<svg width="712" height="56" viewBox="0 0 712 56" fill="none" xmlns="http://www.w3.org/2000/svg">
<rect width="712" height="56" fill="#38485C"/>
<path d="M147.273 34H140.906V22.5781H147.273V23.7578H142.234V27.4375H146.969V28.6094H142.234V32.8125H147.273V34ZM155.141 31.6641C155.141 32.4609 154.844 33.0755 154.25 33.5078C153.656 33.9401 152.823 34.1562 151.75 34.1562C150.615 34.1562 149.729 33.9766 149.094 33.6172V32.4141C149.505 32.6224 149.945 32.7865 150.414 32.9062C150.888 33.026 151.344 33.0859 151.781 33.0859C152.458 33.0859 152.979 32.9792 153.344 32.7656C153.708 32.5469 153.891 32.2161 153.891 31.7734C153.891 31.4401 153.745 31.1562 153.453 30.9219C153.167 30.6823 152.604 30.401 151.766 30.0781C150.969 29.7812 150.401 29.5234 150.062 29.3047C149.729 29.0807 149.479 28.8281 149.312 28.5469C149.151 28.2656 149.07 27.9297 149.07 27.5391C149.07 26.8411 149.354 26.2917 149.922 25.8906C150.49 25.4844 151.268 25.2812 152.258 25.2812C153.18 25.2812 154.081 25.4688 154.961 25.8438L154.5 26.8984C153.641 26.5443 152.862 26.3672 152.164 26.3672C151.549 26.3672 151.086 26.4635 150.773 26.6562C150.461 26.849 150.305 27.1146 150.305 27.4531C150.305 27.6823 150.362 27.8776 150.477 28.0391C150.596 28.2005 150.786 28.3542 151.047 28.5C151.307 28.6458 151.807 28.8568 152.547 29.1328C153.562 29.5026 154.247 29.875 154.602 30.25C154.961 30.625 155.141 31.0964 155.141 31.6641ZM160.023 33.0859C160.253 33.0859 160.474 33.0703 160.688 33.0391C160.901 33.0026 161.07 32.9661 161.195 32.9297V33.9219C161.055 33.9896 160.846 34.0443 160.57 34.0859C160.299 34.1328 160.055 34.1562 159.836 34.1562C158.18 34.1562 157.352 33.2839 157.352 31.5391V26.4453H156.125V25.8203L157.352 25.2812L157.898 23.4531H158.648V25.4375H161.133V26.4453H158.648V31.4844C158.648 32 158.771 32.3958 159.016 32.6719C159.26 32.9479 159.596 33.0859 160.023 33.0859ZM168.18 34L167.922 32.7812H167.859C167.432 33.3177 167.005 33.6823 166.578 33.875C166.156 34.0625 165.628 34.1562 164.992 34.1562C164.143 34.1562 163.477 33.9375 162.992 33.5C162.513 33.0625 162.273 32.4401 162.273 31.6328C162.273 29.9036 163.656 28.9974 166.422 28.9141L167.875 28.8672V28.3359C167.875 27.6641 167.729 27.1693 167.438 26.8516C167.151 26.5286 166.69 26.3672 166.055 26.3672C165.341 26.3672 164.534 26.5859 163.633 27.0234L163.234 26.0312C163.656 25.8021 164.117 25.6224 164.617 25.4922C165.122 25.362 165.628 25.2969 166.133 25.2969C167.154 25.2969 167.909 25.5234 168.398 25.9766C168.893 26.4297 169.141 27.1562 169.141 28.1562V34H168.18ZM165.25 33.0859C166.057 33.0859 166.69 32.8646 167.148 32.4219C167.612 31.9792 167.844 31.3594 167.844 30.5625V29.7891L166.547 29.8438C165.516 29.8802 164.771 30.0417 164.312 30.3281C163.859 30.6094 163.633 31.0495 163.633 31.6484C163.633 32.1172 163.773 32.474 164.055 32.7188C164.341 32.9635 164.74 33.0859 165.25 33.0859ZM181.805 32.8516H181.734C181.135 33.7214 180.24 34.1562 179.047 34.1562C177.927 34.1562 177.055 33.7734 176.43 33.0078C175.81 32.2422 175.5 31.1536 175.5 29.7422C175.5 28.3307 175.812 27.2344 176.438 26.4531C177.062 25.6719 177.932 25.2812 179.047 25.2812C180.208 25.2812 181.099 25.7031 181.719 26.5469H181.82L181.766 25.9297L181.734 25.3281V21.8438H183.031V34H181.977L181.805 32.8516ZM179.211 33.0703C180.096 33.0703 180.737 32.8307 181.133 32.3516C181.534 31.8672 181.734 31.0885 181.734 30.0156V29.7422C181.734 28.5286 181.531 27.6641 181.125 27.1484C180.724 26.6276 180.081 26.3672 179.195 26.3672C178.435 26.3672 177.852 26.6641 177.445 27.2578C177.044 27.8464 176.844 28.6797 176.844 29.7578C176.844 30.8516 177.044 31.6771 177.445 32.2344C177.846 32.7917 178.435 33.0703 179.211 33.0703ZM189.406 34.1562C188.141 34.1562 187.141 33.7708 186.406 33C185.677 32.2292 185.312 31.1589 185.312 29.7891C185.312 28.4089 185.651 27.3125 186.328 26.5C187.01 25.6875 187.924 25.2812 189.07 25.2812C190.143 25.2812 190.992 25.6354 191.617 26.3438C192.242 27.0469 192.555 27.9766 192.555 29.1328V29.9531H186.656C186.682 30.9583 186.935 31.7214 187.414 32.2422C187.898 32.763 188.578 33.0234 189.453 33.0234C190.375 33.0234 191.286 32.8307 192.188 32.4453V33.6016C191.729 33.7995 191.294 33.9401 190.883 34.0234C190.477 34.112 189.984 34.1562 189.406 34.1562ZM189.055 26.3672C188.367 26.3672 187.818 26.5911 187.406 27.0391C187 27.487 186.76 28.1068 186.688 28.8984H191.164C191.164 28.0807 190.982 27.4557 190.617 27.0234C190.253 26.5859 189.732 26.3672 189.055 26.3672ZM200.297 31.6641C200.297 32.4609 200 33.0755 199.406 33.5078C198.812 33.9401 197.979 34.1562 196.906 34.1562C195.771 34.1562 194.885 33.9766 194.25 33.6172V32.4141C194.661 32.6224 195.102 32.7865 195.57 32.9062C196.044 33.026 196.5 33.0859 196.938 33.0859C197.615 33.0859 198.135 32.9792 198.5 32.7656C198.865 32.5469 199.047 32.2161 199.047 31.7734C199.047 31.4401 198.901 31.1562 198.609 30.9219C198.323 30.6823 197.76 30.401 196.922 30.0781C196.125 29.7812 195.557 29.5234 195.219 29.3047C194.885 29.0807 194.635 28.8281 194.469 28.5469C194.307 28.2656 194.227 27.9297 194.227 27.5391C194.227 26.8411 194.51 26.2917 195.078 25.8906C195.646 25.4844 196.424 25.2812 197.414 25.2812C198.336 25.2812 199.237 25.4688 200.117 25.8438L199.656 26.8984C198.797 26.5443 198.018 26.3672 197.32 26.3672C196.706 26.3672 196.242 26.4635 195.93 26.6562C195.617 26.849 195.461 27.1146 195.461 27.4531C195.461 27.6823 195.518 27.8776 195.633 28.0391C195.753 28.2005 195.943 28.3542 196.203 28.5C196.464 28.6458 196.964 28.8568 197.703 29.1328C198.719 29.5026 199.404 29.875 199.758 30.25C200.117 30.625 200.297 31.0964 200.297 31.6641ZM205.836 34.1562C204.596 34.1562 203.635 33.776 202.953 33.0156C202.276 32.25 201.938 31.1693 201.938 29.7734C201.938 28.3411 202.281 27.2344 202.969 26.4531C203.661 25.6719 204.646 25.2812 205.922 25.2812C206.333 25.2812 206.745 25.3255 207.156 25.4141C207.568 25.5026 207.891 25.6068 208.125 25.7266L207.727 26.8281C207.44 26.7135 207.128 26.6198 206.789 26.5469C206.451 26.4688 206.151 26.4297 205.891 26.4297C204.151 26.4297 203.281 27.5391 203.281 29.7578C203.281 30.8099 203.492 31.6172 203.914 32.1797C204.341 32.7422 204.971 33.0234 205.805 33.0234C206.518 33.0234 207.25 32.8698 208 32.5625V33.7109C207.427 34.0078 206.706 34.1562 205.836 34.1562ZM213.945 25.2812C214.326 25.2812 214.667 25.3125 214.969 25.375L214.789 26.5781C214.435 26.5 214.122 26.4609 213.852 26.4609C213.159 26.4609 212.565 26.7422 212.07 27.3047C211.581 27.8672 211.336 28.5677 211.336 29.4062V34H210.039V25.4375H211.109L211.258 27.0234H211.32C211.638 26.4661 212.021 26.0365 212.469 25.7344C212.917 25.4323 213.409 25.2812 213.945 25.2812ZM217.867 34H216.57V25.4375H217.867V34ZM216.461 23.1172C216.461 22.8203 216.534 22.6042 216.68 22.4688C216.826 22.3281 217.008 22.2578 217.227 22.2578C217.435 22.2578 217.615 22.3281 217.766 22.4688C217.917 22.6094 217.992 22.8255 217.992 23.1172C217.992 23.4089 217.917 23.6276 217.766 23.7734C217.615 23.9141 217.435 23.9844 217.227 23.9844C217.008 23.9844 216.826 23.9141 216.68 23.7734C216.534 23.6276 216.461 23.4089 216.461 23.1172ZM224.602 34.1562C224.044 34.1562 223.534 34.0547 223.07 33.8516C222.612 33.6432 222.227 33.3255 221.914 32.8984H221.82C221.883 33.3984 221.914 33.8724 221.914 34.3203V37.8438H220.617V25.4375H221.672L221.852 26.6094H221.914C222.247 26.1406 222.635 25.8021 223.078 25.5938C223.521 25.3854 224.029 25.2812 224.602 25.2812C225.737 25.2812 226.612 25.6693 227.227 26.4453C227.846 27.2214 228.156 28.3099 228.156 29.7109C228.156 31.1172 227.841 32.2109 227.211 32.9922C226.586 33.7682 225.716 34.1562 224.602 34.1562ZM224.414 26.3828C223.539 26.3828 222.906 26.625 222.516 27.1094C222.125 27.5938 221.924 28.3646 221.914 29.4219V29.7109C221.914 30.9141 222.115 31.776 222.516 32.2969C222.917 32.8125 223.56 33.0703 224.445 33.0703C225.185 33.0703 225.763 32.7708 226.18 32.1719C226.602 31.5729 226.812 30.7474 226.812 29.6953C226.812 28.6276 226.602 27.8099 226.18 27.2422C225.763 26.6693 225.174 26.3828 224.414 26.3828ZM233.852 34.1562C232.612 34.1562 231.651 33.776 230.969 33.0156C230.292 32.25 229.953 31.1693 229.953 29.7734C229.953 28.3411 230.297 27.2344 230.984 26.4531C231.677 25.6719 232.661 25.2812 233.938 25.2812C234.349 25.2812 234.76 25.3255 235.172 25.4141C235.583 25.5026 235.906 25.6068 236.141 25.7266L235.742 26.8281C235.456 26.7135 235.143 26.6198 234.805 26.5469C234.466 26.4688 234.167 26.4297 233.906 26.4297C232.167 26.4297 231.297 27.5391 231.297 29.7578C231.297 30.8099 231.508 31.6172 231.93 32.1797C232.357 32.7422 232.987 33.0234 233.82 33.0234C234.534 33.0234 235.266 32.8698 236.016 32.5625V33.7109C235.443 34.0078 234.721 34.1562 233.852 34.1562ZM239.352 34H238.055V25.4375H239.352V34ZM237.945 23.1172C237.945 22.8203 238.018 22.6042 238.164 22.4688C238.31 22.3281 238.492 22.2578 238.711 22.2578C238.919 22.2578 239.099 22.3281 239.25 22.4688C239.401 22.6094 239.477 22.8255 239.477 23.1172C239.477 23.4089 239.401 23.6276 239.25 23.7734C239.099 23.9141 238.919 23.9844 238.711 23.9844C238.492 23.9844 238.31 23.9141 238.164 23.7734C238.018 23.6276 237.945 23.4089 237.945 23.1172ZM249.492 29.7109C249.492 31.1068 249.141 32.1979 248.438 32.9844C247.734 33.7656 246.763 34.1562 245.523 34.1562C244.758 34.1562 244.078 33.9766 243.484 33.6172C242.891 33.2578 242.432 32.7422 242.109 32.0703C241.786 31.3984 241.625 30.612 241.625 29.7109C241.625 28.3151 241.974 27.2292 242.672 26.4531C243.37 25.6719 244.339 25.2812 245.578 25.2812C246.776 25.2812 247.727 25.6797 248.43 26.4766C249.138 27.2734 249.492 28.3516 249.492 29.7109ZM242.969 29.7109C242.969 30.8047 243.188 31.638 243.625 32.2109C244.062 32.7839 244.706 33.0703 245.555 33.0703C246.404 33.0703 247.047 32.7865 247.484 32.2188C247.927 31.6458 248.148 30.8099 248.148 29.7109C248.148 28.6224 247.927 27.7969 247.484 27.2344C247.047 26.6667 246.398 26.3828 245.539 26.3828C244.69 26.3828 244.049 26.6615 243.617 27.2188C243.185 27.776 242.969 28.6068 242.969 29.7109ZM244.469 24.1094C244.719 23.7865 244.987 23.3958 245.273 22.9375C245.565 22.4792 245.794 22.0807 245.961 21.7422H247.539V21.9062C247.31 22.2448 246.969 22.6615 246.516 23.1562C246.062 23.651 245.669 24.0339 245.336 24.3047H244.469V24.1094ZM257.633 34V28.4609C257.633 27.763 257.474 27.2422 257.156 26.8984C256.839 26.5547 256.341 26.3828 255.664 26.3828C254.768 26.3828 254.112 26.625 253.695 27.1094C253.279 27.5938 253.07 28.3932 253.07 29.5078V34H251.773V25.4375H252.828L253.039 26.6094H253.102C253.367 26.1875 253.74 25.862 254.219 25.6328C254.698 25.3984 255.232 25.2812 255.82 25.2812C256.852 25.2812 257.628 25.5312 258.148 26.0312C258.669 26.526 258.93 27.3203 258.93 28.4141V34H257.633ZM271.586 32.8516H271.516C270.917 33.7214 270.021 34.1562 268.828 34.1562C267.708 34.1562 266.836 33.7734 266.211 33.0078C265.591 32.2422 265.281 31.1536 265.281 29.7422C265.281 28.3307 265.594 27.2344 266.219 26.4531C266.844 25.6719 267.714 25.2812 268.828 25.2812C269.99 25.2812 270.88 25.7031 271.5 26.5469H271.602L271.547 25.9297L271.516 25.3281V21.8438H272.812V34H271.758L271.586 32.8516ZM268.992 33.0703C269.878 33.0703 270.518 32.8307 270.914 32.3516C271.315 31.8672 271.516 31.0885 271.516 30.0156V29.7422C271.516 28.5286 271.312 27.6641 270.906 27.1484C270.505 26.6276 269.862 26.3672 268.977 26.3672C268.216 26.3672 267.633 26.6641 267.227 27.2578C266.826 27.8464 266.625 28.6797 266.625 29.7578C266.625 30.8516 266.826 31.6771 267.227 32.2344C267.628 32.7917 268.216 33.0703 268.992 33.0703ZM279.188 34.1562C277.922 34.1562 276.922 33.7708 276.188 33C275.458 32.2292 275.094 31.1589 275.094 29.7891C275.094 28.4089 275.432 27.3125 276.109 26.5C276.792 25.6875 277.706 25.2812 278.852 25.2812C279.924 25.2812 280.773 25.6354 281.398 26.3438C282.023 27.0469 282.336 27.9766 282.336 29.1328V29.9531H276.438C276.464 30.9583 276.716 31.7214 277.195 32.2422C277.68 32.763 278.359 33.0234 279.234 33.0234C280.156 33.0234 281.068 32.8307 281.969 32.4453V33.6016C281.51 33.7995 281.076 33.9401 280.664 34.0234C280.258 34.112 279.766 34.1562 279.188 34.1562ZM278.836 26.3672C278.148 26.3672 277.599 26.5911 277.188 27.0391C276.781 27.487 276.542 28.1068 276.469 28.8984H280.945C280.945 28.0807 280.763 27.4557 280.398 27.0234C280.034 26.5859 279.513 26.3672 278.836 26.3672ZM292.695 25.2969C293.82 25.2969 294.693 25.6823 295.312 26.4531C295.938 27.2188 296.25 28.3047 296.25 29.7109C296.25 31.1172 295.935 32.2109 295.305 32.9922C294.68 33.7682 293.81 34.1562 292.695 34.1562C292.138 34.1562 291.628 34.0547 291.164 33.8516C290.706 33.6432 290.32 33.3255 290.008 32.8984H289.914L289.641 34H288.711V21.8438H290.008V24.7969C290.008 25.4583 289.987 26.0521 289.945 26.5781H290.008C290.612 25.724 291.508 25.2969 292.695 25.2969ZM292.508 26.3828C291.622 26.3828 290.984 26.638 290.594 27.1484C290.203 27.6536 290.008 28.5078 290.008 29.7109C290.008 30.9141 290.208 31.776 290.609 32.2969C291.01 32.8125 291.654 33.0703 292.539 33.0703C293.336 33.0703 293.93 32.7812 294.32 32.2031C294.711 31.6198 294.906 30.7839 294.906 29.6953C294.906 28.5807 294.711 27.75 294.32 27.2031C293.93 26.6562 293.326 26.3828 292.508 26.3828ZM303.789 34L303.531 32.7812H303.469C303.042 33.3177 302.615 33.6823 302.188 33.875C301.766 34.0625 301.237 34.1562 300.602 34.1562C299.753 34.1562 299.086 33.9375 298.602 33.5C298.122 33.0625 297.883 32.4401 297.883 31.6328C297.883 29.9036 299.266 28.9974 302.031 28.9141L303.484 28.8672V28.3359C303.484 27.6641 303.339 27.1693 303.047 26.8516C302.76 26.5286 302.299 26.3672 301.664 26.3672C300.951 26.3672 300.143 26.5859 299.242 27.0234L298.844 26.0312C299.266 25.8021 299.727 25.6224 300.227 25.4922C300.732 25.362 301.237 25.2969 301.742 25.2969C302.763 25.2969 303.518 25.5234 304.008 25.9766C304.503 26.4297 304.75 27.1562 304.75 28.1562V34H303.789ZM300.859 33.0859C301.667 33.0859 302.299 32.8646 302.758 32.4219C303.221 31.9792 303.453 31.3594 303.453 30.5625V29.7891L302.156 29.8438C301.125 29.8802 300.38 30.0417 299.922 30.3281C299.469 30.6094 299.242 31.0495 299.242 31.6484C299.242 32.1172 299.383 32.474 299.664 32.7188C299.951 32.9635 300.349 33.0859 300.859 33.0859ZM313.289 34V28.4609C313.289 27.763 313.13 27.2422 312.812 26.8984C312.495 26.5547 311.997 26.3828 311.32 26.3828C310.424 26.3828 309.768 26.625 309.352 27.1094C308.935 27.5938 308.727 28.3932 308.727 29.5078V34H307.43V25.4375H308.484L308.695 26.6094H308.758C309.023 26.1875 309.396 25.862 309.875 25.6328C310.354 25.3984 310.888 25.2812 311.477 25.2812C312.508 25.2812 313.284 25.5312 313.805 26.0312C314.326 26.526 314.586 27.3203 314.586 28.4141V34H313.289ZM323.117 34V28.4609C323.117 27.763 322.958 27.2422 322.641 26.8984C322.323 26.5547 321.826 26.3828 321.148 26.3828C320.253 26.3828 319.596 26.625 319.18 27.1094C318.763 27.5938 318.555 28.3932 318.555 29.5078V34H317.258V25.4375H318.312L318.523 26.6094H318.586C318.852 26.1875 319.224 25.862 319.703 25.6328C320.182 25.3984 320.716 25.2812 321.305 25.2812C322.336 25.2812 323.112 25.5312 323.633 26.0312C324.154 26.526 324.414 27.3203 324.414 28.4141V34H323.117ZM330.703 34.1562C329.438 34.1562 328.438 33.7708 327.703 33C326.974 32.2292 326.609 31.1589 326.609 29.7891C326.609 28.4089 326.948 27.3125 327.625 26.5C328.307 25.6875 329.221 25.2812 330.367 25.2812C331.44 25.2812 332.289 25.6354 332.914 26.3438C333.539 27.0469 333.852 27.9766 333.852 29.1328V29.9531H327.953C327.979 30.9583 328.232 31.7214 328.711 32.2422C329.195 32.763 329.875 33.0234 330.75 33.0234C331.672 33.0234 332.583 32.8307 333.484 32.4453V33.6016C333.026 33.7995 332.591 33.9401 332.18 34.0234C331.773 34.112 331.281 34.1562 330.703 34.1562ZM330.352 26.3672C329.664 26.3672 329.115 26.5911 328.703 27.0391C328.297 27.487 328.057 28.1068 327.984 28.8984H332.461C332.461 28.0807 332.279 27.4557 331.914 27.0234C331.549 26.5859 331.029 26.3672 330.352 26.3672ZM339.977 25.2812C340.357 25.2812 340.698 25.3125 341 25.375L340.82 26.5781C340.466 26.5 340.154 26.4609 339.883 26.4609C339.19 26.4609 338.596 26.7422 338.102 27.3047C337.612 27.8672 337.367 28.5677 337.367 29.4062V34H336.07V25.4375H337.141L337.289 27.0234H337.352C337.669 26.4661 338.052 26.0365 338.5 25.7344C338.948 25.4323 339.44 25.2812 339.977 25.2812ZM351.43 34.1562C350.404 34.1562 349.599 33.7839 349.016 33.0391H348.891C348.974 33.7682 349.016 34.1901 349.016 34.3047V37.8438H346.633V25.2656H348.57L348.906 26.3984H349.016C349.573 25.5339 350.398 25.1016 351.492 25.1016C352.523 25.1016 353.331 25.5 353.914 26.2969C354.497 27.0938 354.789 28.2005 354.789 29.6172C354.789 30.5495 354.651 31.3594 354.375 32.0469C354.104 32.7344 353.716 33.2578 353.211 33.6172C352.706 33.9766 352.112 34.1562 351.43 34.1562ZM350.727 27.0078C350.138 27.0078 349.708 27.1901 349.438 27.5547C349.167 27.9141 349.026 28.5104 349.016 29.3438V29.6016C349.016 30.5391 349.154 31.2109 349.43 31.6172C349.711 32.0234 350.154 32.2266 350.758 32.2266C351.826 32.2266 352.359 31.3464 352.359 29.5859C352.359 28.7266 352.227 28.0833 351.961 27.6562C351.701 27.224 351.289 27.0078 350.727 27.0078ZM362.945 34L362.625 32.8828H362.5C362.245 33.2891 361.883 33.6042 361.414 33.8281C360.945 34.0469 360.411 34.1562 359.812 34.1562C358.786 34.1562 358.013 33.8828 357.492 33.3359C356.971 32.7839 356.711 31.9922 356.711 30.9609V25.2656H359.094V30.3672C359.094 30.9974 359.206 31.4714 359.43 31.7891C359.654 32.1016 360.01 32.2578 360.5 32.2578C361.167 32.2578 361.648 32.0365 361.945 31.5938C362.242 31.1458 362.391 30.4062 362.391 29.375V25.2656H364.773V34H362.945ZM370.891 26.7969C370.385 26.7969 369.99 26.9583 369.703 27.2812C369.417 27.599 369.253 28.0521 369.211 28.6406H372.555C372.544 28.0521 372.391 27.599 372.094 27.2812C371.797 26.9583 371.396 26.7969 370.891 26.7969ZM371.227 34.1562C369.82 34.1562 368.721 33.7682 367.93 32.9922C367.138 32.2161 366.742 31.1172 366.742 29.6953C366.742 28.2318 367.107 27.1016 367.836 26.3047C368.57 25.5026 369.583 25.1016 370.875 25.1016C372.109 25.1016 373.07 25.4531 373.758 26.1562C374.445 26.8594 374.789 27.8307 374.789 29.0703V30.2266H369.156C369.182 30.9036 369.383 31.4323 369.758 31.8125C370.133 32.1927 370.659 32.3828 371.336 32.3828C371.862 32.3828 372.359 32.3281 372.828 32.2188C373.297 32.1094 373.786 31.9349 374.297 31.6953V33.5391C373.88 33.7474 373.435 33.901 372.961 34C372.487 34.1042 371.909 34.1562 371.227 34.1562ZM379.492 34.1562C378.466 34.1562 377.659 33.7578 377.07 32.9609C376.487 32.1641 376.195 31.0599 376.195 29.6484C376.195 28.2161 376.492 27.1016 377.086 26.3047C377.685 25.5026 378.508 25.1016 379.555 25.1016C380.654 25.1016 381.492 25.5286 382.07 26.3828H382.148C382.029 25.7318 381.969 25.151 381.969 24.6406V21.8438H384.359V34H382.531L382.07 32.8672H381.969C381.427 33.7266 380.602 34.1562 379.492 34.1562ZM380.328 32.2578C380.938 32.2578 381.383 32.0807 381.664 31.7266C381.951 31.3724 382.107 30.7708 382.133 29.9219V29.6641C382.133 28.7266 381.987 28.0547 381.695 27.6484C381.409 27.2422 380.94 27.0391 380.289 27.0391C379.758 27.0391 379.344 27.2656 379.047 27.7188C378.755 28.1667 378.609 28.8203 378.609 29.6797C378.609 30.5391 378.758 31.1849 379.055 31.6172C379.352 32.0443 379.776 32.2578 380.328 32.2578ZM390.469 26.7969C389.964 26.7969 389.568 26.9583 389.281 27.2812C388.995 27.599 388.831 28.0521 388.789 28.6406H392.133C392.122 28.0521 391.969 27.599 391.672 27.2812C391.375 26.9583 390.974 26.7969 390.469 26.7969ZM390.805 34.1562C389.398 34.1562 388.299 33.7682 387.508 32.9922C386.716 32.2161 386.32 31.1172 386.32 29.6953C386.32 28.2318 386.685 27.1016 387.414 26.3047C388.148 25.5026 389.161 25.1016 390.453 25.1016C391.688 25.1016 392.648 25.4531 393.336 26.1562C394.023 26.8594 394.367 27.8307 394.367 29.0703V30.2266H388.734C388.76 30.9036 388.961 31.4323 389.336 31.8125C389.711 32.1927 390.237 32.3828 390.914 32.3828C391.44 32.3828 391.938 32.3281 392.406 32.2188C392.875 32.1094 393.365 31.9349 393.875 31.6953V33.5391C393.458 33.7474 393.013 33.901 392.539 34C392.065 34.1042 391.487 34.1562 390.805 34.1562ZM404.141 32.2578C404.557 32.2578 405.057 32.1667 405.641 31.9844V33.7578C405.047 34.0234 404.318 34.1562 403.453 34.1562C402.5 34.1562 401.805 33.9167 401.367 33.4375C400.935 32.9531 400.719 32.2292 400.719 31.2656V27.0547H399.578V26.0469L400.891 25.25L401.578 23.4062H403.102V25.2656H405.547V27.0547H403.102V31.2656C403.102 31.6042 403.195 31.8542 403.383 32.0156C403.576 32.1771 403.828 32.2578 404.141 32.2578ZM411.031 26.7969C410.526 26.7969 410.13 26.9583 409.844 27.2812C409.557 27.599 409.393 28.0521 409.352 28.6406H412.695C412.685 28.0521 412.531 27.599 412.234 27.2812C411.938 26.9583 411.536 26.7969 411.031 26.7969ZM411.367 34.1562C409.961 34.1562 408.862 33.7682 408.07 32.9922C407.279 32.2161 406.883 31.1172 406.883 29.6953C406.883 28.2318 407.247 27.1016 407.977 26.3047C408.711 25.5026 409.724 25.1016 411.016 25.1016C412.25 25.1016 413.211 25.4531 413.898 26.1562C414.586 26.8594 414.93 27.8307 414.93 29.0703V30.2266H409.297C409.323 30.9036 409.523 31.4323 409.898 31.8125C410.273 32.1927 410.799 32.3828 411.477 32.3828C412.003 32.3828 412.5 32.3281 412.969 32.2188C413.438 32.1094 413.927 31.9349 414.438 31.6953V33.5391C414.021 33.7474 413.576 33.901 413.102 34C412.628 34.1042 412.049 34.1562 411.367 34.1562ZM424.93 34H422.547V28.8984C422.547 28.2682 422.435 27.7969 422.211 27.4844C421.987 27.1667 421.63 27.0078 421.141 27.0078C420.474 27.0078 419.992 27.2318 419.695 27.6797C419.398 28.1224 419.25 28.8594 419.25 29.8906V34H416.867V25.2656H418.688L419.008 26.3828H419.141C419.406 25.9609 419.771 25.6432 420.234 25.4297C420.703 25.2109 421.234 25.1016 421.828 25.1016C422.844 25.1016 423.615 25.3776 424.141 25.9297C424.667 26.4766 424.93 27.2682 424.93 28.3047V34ZM431 26.7969C430.495 26.7969 430.099 26.9583 429.812 27.2812C429.526 27.599 429.362 28.0521 429.32 28.6406H432.664C432.654 28.0521 432.5 27.599 432.203 27.2812C431.906 26.9583 431.505 26.7969 431 26.7969ZM431.336 34.1562C429.93 34.1562 428.831 33.7682 428.039 32.9922C427.247 32.2161 426.852 31.1172 426.852 29.6953C426.852 28.2318 427.216 27.1016 427.945 26.3047C428.68 25.5026 429.693 25.1016 430.984 25.1016C432.219 25.1016 433.18 25.4531 433.867 26.1562C434.555 26.8594 434.898 27.8307 434.898 29.0703V30.2266H429.266C429.292 30.9036 429.492 31.4323 429.867 31.8125C430.242 32.1927 430.768 32.3828 431.445 32.3828C431.971 32.3828 432.469 32.3281 432.938 32.2188C433.406 32.1094 433.896 31.9349 434.406 31.6953V33.5391C433.99 33.7474 433.544 33.901 433.07 34C432.596 34.1042 432.018 34.1562 431.336 34.1562ZM441.711 25.1016C442.034 25.1016 442.302 25.125 442.516 25.1719L442.336 27.4062C442.143 27.3542 441.909 27.3281 441.633 27.3281C440.872 27.3281 440.279 27.5234 439.852 27.9141C439.43 28.3047 439.219 28.8516 439.219 29.5547V34H436.836V25.2656H438.641L438.992 26.7344H439.109C439.38 26.2448 439.745 25.8516 440.203 25.5547C440.667 25.2526 441.169 25.1016 441.711 25.1016ZM451.875 26.7969C451.37 26.7969 450.974 26.9583 450.688 27.2812C450.401 27.599 450.237 28.0521 450.195 28.6406H453.539C453.529 28.0521 453.375 27.599 453.078 27.2812C452.781 26.9583 452.38 26.7969 451.875 26.7969ZM452.211 34.1562C450.805 34.1562 449.706 33.7682 448.914 32.9922C448.122 32.2161 447.727 31.1172 447.727 29.6953C447.727 28.2318 448.091 27.1016 448.82 26.3047C449.555 25.5026 450.568 25.1016 451.859 25.1016C453.094 25.1016 454.055 25.4531 454.742 26.1562C455.43 26.8594 455.773 27.8307 455.773 29.0703V30.2266H450.141C450.167 30.9036 450.367 31.4323 450.742 31.8125C451.117 32.1927 451.643 32.3828 452.32 32.3828C452.846 32.3828 453.344 32.3281 453.812 32.2188C454.281 32.1094 454.771 31.9349 455.281 31.6953V33.5391C454.865 33.7474 454.419 33.901 453.945 34C453.471 34.1042 452.893 34.1562 452.211 34.1562ZM450.5 24.3047V24.0938C451.396 23.0521 452.008 22.2682 452.336 21.7422H455.008V21.9062C454.737 22.1771 454.273 22.5807 453.617 23.1172C452.966 23.6484 452.456 24.0443 452.086 24.3047H450.5ZM465.773 34H463.391V28.8984C463.391 28.2682 463.279 27.7969 463.055 27.4844C462.831 27.1667 462.474 27.0078 461.984 27.0078C461.318 27.0078 460.836 27.2318 460.539 27.6797C460.242 28.1224 460.094 28.8594 460.094 29.8906V34H457.711V25.2656H459.531L459.852 26.3828H459.984C460.25 25.9609 460.615 25.6432 461.078 25.4297C461.547 25.2109 462.078 25.1016 462.672 25.1016C463.688 25.1016 464.458 25.3776 464.984 25.9297C465.51 26.4766 465.773 27.2682 465.773 28.3047V34ZM473.055 27.0547H470.992V34H468.609V27.0547H467.297V25.9062L468.609 25.2656V24.625C468.609 23.6302 468.854 22.9036 469.344 22.4453C469.833 21.987 470.617 21.7578 471.695 21.7578C472.518 21.7578 473.25 21.8802 473.891 22.125L473.281 23.875C472.802 23.724 472.359 23.6484 471.953 23.6484C471.615 23.6484 471.37 23.75 471.219 23.9531C471.068 24.151 470.992 24.4062 470.992 24.7188V25.2656H473.055V27.0547ZM479.977 34L479.516 32.8125H479.453C479.052 33.3177 478.638 33.6693 478.211 33.8672C477.789 34.0599 477.237 34.1562 476.555 34.1562C475.716 34.1562 475.055 33.9167 474.57 33.4375C474.091 32.9583 473.852 32.276 473.852 31.3906C473.852 30.4635 474.174 29.7812 474.82 29.3438C475.471 28.901 476.451 28.6562 477.758 28.6094L479.273 28.5625V28.1797C479.273 27.2943 478.82 26.8516 477.914 26.8516C477.216 26.8516 476.396 27.0625 475.453 27.4844L474.664 25.875C475.669 25.349 476.784 25.0859 478.008 25.0859C479.18 25.0859 480.078 25.3411 480.703 25.8516C481.328 26.362 481.641 27.138 481.641 28.1797V34H479.977ZM479.273 29.9531L478.352 29.9844C477.659 30.0052 477.143 30.1302 476.805 30.3594C476.466 30.5885 476.297 30.9375 476.297 31.4062C476.297 32.0781 476.682 32.4141 477.453 32.4141C478.005 32.4141 478.445 32.2552 478.773 31.9375C479.107 31.6198 479.273 31.1979 479.273 30.6719V29.9531ZM490.195 31.4062C490.195 32.3021 489.883 32.9844 489.258 33.4531C488.638 33.9219 487.708 34.1562 486.469 34.1562C485.833 34.1562 485.292 34.112 484.844 34.0234C484.396 33.9401 483.977 33.8151 483.586 33.6484V31.6797C484.029 31.888 484.526 32.0625 485.078 32.2031C485.635 32.3438 486.125 32.4141 486.547 32.4141C487.411 32.4141 487.844 32.1641 487.844 31.6641C487.844 31.4766 487.786 31.3255 487.672 31.2109C487.557 31.0911 487.359 30.9583 487.078 30.8125C486.797 30.6615 486.422 30.487 485.953 30.2891C485.281 30.0078 484.786 29.7474 484.469 29.5078C484.156 29.2682 483.927 28.9948 483.781 28.6875C483.641 28.375 483.57 27.9922 483.57 27.5391C483.57 26.763 483.87 26.1641 484.469 25.7422C485.073 25.3151 485.927 25.1016 487.031 25.1016C488.083 25.1016 489.107 25.3307 490.102 25.7891L489.383 27.5078C488.945 27.3203 488.536 27.1667 488.156 27.0469C487.776 26.9271 487.388 26.8672 486.992 26.8672C486.289 26.8672 485.938 27.0573 485.938 27.4375C485.938 27.651 486.049 27.8359 486.273 27.9922C486.503 28.1484 487 28.3802 487.766 28.6875C488.448 28.9635 488.948 29.2214 489.266 29.4609C489.583 29.7005 489.818 29.9766 489.969 30.2891C490.12 30.6016 490.195 30.974 490.195 31.4062ZM491.953 23.0078C491.953 22.2318 492.385 21.8438 493.25 21.8438C494.115 21.8438 494.547 22.2318 494.547 23.0078C494.547 23.3776 494.438 23.6667 494.219 23.875C494.005 24.0781 493.682 24.1797 493.25 24.1797C492.385 24.1797 491.953 23.7891 491.953 23.0078ZM494.438 34H492.055V25.2656H494.438V34ZM503.039 31.4062C503.039 32.3021 502.727 32.9844 502.102 33.4531C501.482 33.9219 500.552 34.1562 499.312 34.1562C498.677 34.1562 498.135 34.112 497.688 34.0234C497.24 33.9401 496.82 33.8151 496.43 33.6484V31.6797C496.872 31.888 497.37 32.0625 497.922 32.2031C498.479 32.3438 498.969 32.4141 499.391 32.4141C500.255 32.4141 500.688 32.1641 500.688 31.6641C500.688 31.4766 500.63 31.3255 500.516 31.2109C500.401 31.0911 500.203 30.9583 499.922 30.8125C499.641 30.6615 499.266 30.487 498.797 30.2891C498.125 30.0078 497.63 29.7474 497.312 29.5078C497 29.2682 496.771 28.9948 496.625 28.6875C496.484 28.375 496.414 27.9922 496.414 27.5391C496.414 26.763 496.714 26.1641 497.312 25.7422C497.917 25.3151 498.771 25.1016 499.875 25.1016C500.927 25.1016 501.951 25.3307 502.945 25.7891L502.227 27.5078C501.789 27.3203 501.38 27.1667 501 27.0469C500.62 26.9271 500.232 26.8672 499.836 26.8672C499.133 26.8672 498.781 27.0573 498.781 27.4375C498.781 27.651 498.893 27.8359 499.117 27.9922C499.346 28.1484 499.844 28.3802 500.609 28.6875C501.292 28.9635 501.792 29.2214 502.109 29.4609C502.427 29.7005 502.661 29.9766 502.812 30.2891C502.964 30.6016 503.039 30.974 503.039 31.4062ZM507.82 25.4375H509.211L511.086 30.3203C511.497 31.4349 511.753 32.2396 511.852 32.7344H511.914C511.982 32.4688 512.122 32.0156 512.336 31.375C512.555 30.7292 513.263 28.75 514.461 25.4375H515.852L512.172 35.1875C511.807 36.151 511.38 36.8333 510.891 37.2344C510.406 37.6406 509.81 37.8438 509.102 37.8438C508.706 37.8438 508.315 37.7995 507.93 37.7109V36.6719C508.216 36.7344 508.536 36.7656 508.891 36.7656C509.781 36.7656 510.417 36.2656 510.797 35.2656L511.273 34.0469L507.82 25.4375ZM525.016 34.1562C523.75 34.1562 522.75 33.7708 522.016 33C521.286 32.2292 520.922 31.1589 520.922 29.7891C520.922 28.4089 521.26 27.3125 521.938 26.5C522.62 25.6875 523.534 25.2812 524.68 25.2812C525.753 25.2812 526.602 25.6354 527.227 26.3438C527.852 27.0469 528.164 27.9766 528.164 29.1328V29.9531H522.266C522.292 30.9583 522.544 31.7214 523.023 32.2422C523.508 32.763 524.188 33.0234 525.062 33.0234C525.984 33.0234 526.896 32.8307 527.797 32.4453V33.6016C527.339 33.7995 526.904 33.9401 526.492 34.0234C526.086 34.112 525.594 34.1562 525.016 34.1562ZM524.664 26.3672C523.977 26.3672 523.427 26.5911 523.016 27.0391C522.609 27.487 522.37 28.1068 522.297 28.8984H526.773C526.773 28.0807 526.591 27.4557 526.227 27.0234C525.862 26.5859 525.341 26.3672 524.664 26.3672ZM536.242 34V28.4609C536.242 27.763 536.083 27.2422 535.766 26.8984C535.448 26.5547 534.951 26.3828 534.273 26.3828C533.378 26.3828 532.721 26.625 532.305 27.1094C531.888 27.5938 531.68 28.3932 531.68 29.5078V34H530.383V25.4375H531.438L531.648 26.6094H531.711C531.977 26.1875 532.349 25.862 532.828 25.6328C533.307 25.3984 533.841 25.2812 534.43 25.2812C535.461 25.2812 536.237 25.5312 536.758 26.0312C537.279 26.526 537.539 27.3203 537.539 28.4141V34H536.242ZM541.508 34H540.211V21.8438H541.508V34ZM549.523 34L549.266 32.7812H549.203C548.776 33.3177 548.349 33.6823 547.922 33.875C547.5 34.0625 546.971 34.1562 546.336 34.1562C545.487 34.1562 544.82 33.9375 544.336 33.5C543.857 33.0625 543.617 32.4401 543.617 31.6328C543.617 29.9036 545 28.9974 547.766 28.9141L549.219 28.8672V28.3359C549.219 27.6641 549.073 27.1693 548.781 26.8516C548.495 26.5286 548.034 26.3672 547.398 26.3672C546.685 26.3672 545.878 26.5859 544.977 27.0234L544.578 26.0312C545 25.8021 545.461 25.6224 545.961 25.4922C546.466 25.362 546.971 25.2969 547.477 25.2969C548.497 25.2969 549.253 25.5234 549.742 25.9766C550.237 26.4297 550.484 27.1562 550.484 28.1562V34H549.523ZM546.594 33.0859C547.401 33.0859 548.034 32.8646 548.492 32.4219C548.956 31.9792 549.188 31.3594 549.188 30.5625V29.7891L547.891 29.8438C546.859 29.8802 546.115 30.0417 545.656 30.3281C545.203 30.6094 544.977 31.0495 544.977 31.6484C544.977 32.1172 545.117 32.474 545.398 32.7188C545.685 32.9635 546.083 33.0859 546.594 33.0859ZM556.586 34.1562C555.346 34.1562 554.385 33.776 553.703 33.0156C553.026 32.25 552.688 31.1693 552.688 29.7734C552.688 28.3411 553.031 27.2344 553.719 26.4531C554.411 25.6719 555.396 25.2812 556.672 25.2812C557.083 25.2812 557.495 25.3255 557.906 25.4141C558.318 25.5026 558.641 25.6068 558.875 25.7266L558.477 26.8281C558.19 26.7135 557.878 26.6198 557.539 26.5469C557.201 26.4688 556.901 26.4297 556.641 26.4297C554.901 26.4297 554.031 27.5391 554.031 29.7578C554.031 30.8099 554.242 31.6172 554.664 32.1797C555.091 32.7422 555.721 33.0234 556.555 33.0234C557.268 33.0234 558 32.8698 558.75 32.5625V33.7109C558.177 34.0078 557.456 34.1562 556.586 34.1562ZM564.406 34.1562C563.141 34.1562 562.141 33.7708 561.406 33C560.677 32.2292 560.312 31.1589 560.312 29.7891C560.312 28.4089 560.651 27.3125 561.328 26.5C562.01 25.6875 562.924 25.2812 564.07 25.2812C565.143 25.2812 565.992 25.6354 566.617 26.3438C567.242 27.0469 567.555 27.9766 567.555 29.1328V29.9531H561.656C561.682 30.9583 561.935 31.7214 562.414 32.2422C562.898 32.763 563.578 33.0234 564.453 33.0234C565.375 33.0234 566.286 32.8307 567.188 32.4453V33.6016C566.729 33.7995 566.294 33.9401 565.883 34.0234C565.477 34.112 564.984 34.1562 564.406 34.1562ZM564.055 26.3672C563.367 26.3672 562.818 26.5911 562.406 27.0391C562 27.487 561.76 28.1068 561.688 28.8984H566.164C566.164 28.0807 565.982 27.4557 565.617 27.0234C565.253 26.5859 564.732 26.3672 564.055 26.3672ZM569.586 33.1719C569.586 32.8229 569.664 32.5599 569.82 32.3828C569.982 32.2005 570.211 32.1094 570.508 32.1094C570.81 32.1094 571.044 32.2005 571.211 32.3828C571.383 32.5599 571.469 32.8229 571.469 33.1719C571.469 33.5104 571.383 33.7708 571.211 33.9531C571.039 34.1354 570.805 34.2266 570.508 34.2266C570.242 34.2266 570.021 34.1458 569.844 33.9844C569.672 33.8177 569.586 33.5469 569.586 33.1719Z" fill="white"/>
<path d="M507.805 35.6016H572.656V36.3984H507.805V35.6016Z" fill="white"/>
</svg>
