<svg width="712" height="62" viewBox="0 0 712 62" fill="none" xmlns="http://www.w3.org/2000/svg">
<rect width="712" height="62" fill="#38485C"/>
<path d="M65.3416 20.128C62.4016 19.578 59.7116 20.878 58.2216 23.048C58.2316 23.038 58.2316 23.028 58.2416 23.018C57.8416 22.998 57.4216 22.998 57.0016 22.998C52.5816 22.998 49.0016 23.498 49.0016 26.998V36.998C49.0016 37.878 49.3916 38.668 50.0016 39.218V40.498C50.0016 41.328 50.6716 41.998 51.5016 41.998C52.3316 41.998 53.0016 41.328 53.0016 40.498V39.998H61.0016V40.498C61.0016 41.318 61.6716 41.998 62.5016 41.998C63.3216 41.998 64.0016 41.328 64.0016 40.498V39.218C64.6116 38.668 65.0016 37.878 65.0016 36.998V33.918C68.7216 33.378 71.5016 29.938 70.9216 25.948C70.5016 23.048 68.2216 20.658 65.3416 20.128ZM52.5016 37.998C51.6716 37.998 51.0016 37.328 51.0016 36.498C51.0016 35.668 51.6716 34.998 52.5016 34.998C53.3316 34.998 54.0016 35.668 54.0016 36.498C54.0016 37.328 53.3316 37.998 52.5016 37.998ZM51.0016 31.998V26.998H57.0016C57.0016 28.958 57.8116 30.728 59.1116 31.998H51.0016ZM61.5016 37.998C60.6716 37.998 60.0016 37.328 60.0016 36.498C60.0016 35.668 60.6716 34.998 61.5016 34.998C62.3316 34.998 63.0016 35.668 63.0016 36.498C63.0016 37.328 62.3316 37.998 61.5016 37.998ZM64.0016 31.998C61.2416 31.998 59.0016 29.758 59.0016 26.998C59.0016 24.238 61.2416 21.998 64.0016 21.998C66.7616 21.998 69.0016 24.238 69.0016 26.998C69.0016 29.758 66.7616 31.998 64.0016 31.998ZM63.7516 22.998C63.3416 22.998 63.0016 23.338 63.0016 23.748V27.428C63.0016 27.778 63.1916 28.108 63.4916 28.288L66.0116 29.798C66.3516 29.998 66.7916 29.888 66.9916 29.558C67.2016 29.218 67.0916 28.768 66.7416 28.568L64.5016 27.248V23.748C64.5016 23.338 64.1616 22.998 63.7516 22.998Z" fill="white"/>
<path d="M91.9375 37H85.5703V25.5781H91.9375V26.7578H86.8984V30.4375H91.6328V31.6094H86.8984V35.8125H91.9375V37ZM99.8047 34.6641C99.8047 35.4609 99.5078 36.0755 98.9141 36.5078C98.3203 36.9401 97.487 37.1562 96.4141 37.1562C95.2786 37.1562 94.3932 36.9766 93.7578 36.6172V35.4141C94.1693 35.6224 94.6094 35.7865 95.0781 35.9062C95.5521 36.026 96.0078 36.0859 96.4453 36.0859C97.1224 36.0859 97.6432 35.9792 98.0078 35.7656C98.3724 35.5469 98.5547 35.2161 98.5547 34.7734C98.5547 34.4401 98.4089 34.1562 98.1172 33.9219C97.8307 33.6823 97.2682 33.401 96.4297 33.0781C95.6328 32.7812 95.0651 32.5234 94.7266 32.3047C94.3932 32.0807 94.1432 31.8281 93.9766 31.5469C93.8151 31.2656 93.7344 30.9297 93.7344 30.5391C93.7344 29.8411 94.0182 29.2917 94.5859 28.8906C95.1536 28.4844 95.9323 28.2812 96.9219 28.2812C97.8438 28.2812 98.7448 28.4688 99.625 28.8438L99.1641 29.8984C98.3047 29.5443 97.526 29.3672 96.8281 29.3672C96.2135 29.3672 95.75 29.4635 95.4375 29.6562C95.125 29.849 94.9688 30.1146 94.9688 30.4531C94.9688 30.6823 95.026 30.8776 95.1406 31.0391C95.2604 31.2005 95.4505 31.3542 95.7109 31.5C95.9714 31.6458 96.4714 31.8568 97.2109 32.1328C98.2266 32.5026 98.9115 32.875 99.2656 33.25C99.625 33.625 99.8047 34.0964 99.8047 34.6641ZM104.688 36.0859C104.917 36.0859 105.138 36.0703 105.352 36.0391C105.565 36.0026 105.734 35.9661 105.859 35.9297V36.9219C105.719 36.9896 105.51 37.0443 105.234 37.0859C104.964 37.1328 104.719 37.1562 104.5 37.1562C102.844 37.1562 102.016 36.2839 102.016 34.5391V29.4453H100.789V28.8203L102.016 28.2812L102.562 26.4531H103.312V28.4375H105.797V29.4453H103.312V34.4844C103.312 35 103.435 35.3958 103.68 35.6719C103.924 35.9479 104.26 36.0859 104.688 36.0859ZM111.195 37.1562C109.93 37.1562 108.93 36.7708 108.195 36C107.466 35.2292 107.102 34.1589 107.102 32.7891C107.102 31.4089 107.44 30.3125 108.117 29.5C108.799 28.6875 109.714 28.2812 110.859 28.2812C111.932 28.2812 112.781 28.6354 113.406 29.3438C114.031 30.0469 114.344 30.9766 114.344 32.1328V32.9531H108.445C108.471 33.9583 108.724 34.7214 109.203 35.2422C109.688 35.763 110.367 36.0234 111.242 36.0234C112.164 36.0234 113.076 35.8307 113.977 35.4453V36.6016C113.518 36.7995 113.083 36.9401 112.672 37.0234C112.266 37.112 111.773 37.1562 111.195 37.1562ZM110.844 29.3672C110.156 29.3672 109.607 29.5911 109.195 30.0391C108.789 30.487 108.549 31.1068 108.477 31.8984H112.953C112.953 31.0807 112.771 30.4557 112.406 30.0234C112.042 29.5859 111.521 29.3672 110.844 29.3672ZM124.703 28.2969C125.828 28.2969 126.701 28.6823 127.32 29.4531C127.945 30.2188 128.258 31.3047 128.258 32.7109C128.258 34.1172 127.943 35.2109 127.312 35.9922C126.688 36.7682 125.818 37.1562 124.703 37.1562C124.146 37.1562 123.635 37.0547 123.172 36.8516C122.714 36.6432 122.328 36.3255 122.016 35.8984H121.922L121.648 37H120.719V24.8438H122.016V27.7969C122.016 28.4583 121.995 29.0521 121.953 29.5781H122.016C122.62 28.724 123.516 28.2969 124.703 28.2969ZM124.516 29.3828C123.63 29.3828 122.992 29.638 122.602 30.1484C122.211 30.6536 122.016 31.5078 122.016 32.7109C122.016 33.9141 122.216 34.776 122.617 35.2969C123.018 35.8125 123.661 36.0703 124.547 36.0703C125.344 36.0703 125.938 35.7812 126.328 35.2031C126.719 34.6198 126.914 33.7839 126.914 32.6953C126.914 31.5807 126.719 30.75 126.328 30.2031C125.938 29.6562 125.333 29.3828 124.516 29.3828ZM135.797 37L135.539 35.7812H135.477C135.049 36.3177 134.622 36.6823 134.195 36.875C133.773 37.0625 133.245 37.1562 132.609 37.1562C131.76 37.1562 131.094 36.9375 130.609 36.5C130.13 36.0625 129.891 35.4401 129.891 34.6328C129.891 32.9036 131.273 31.9974 134.039 31.9141L135.492 31.8672V31.3359C135.492 30.6641 135.346 30.1693 135.055 29.8516C134.768 29.5286 134.307 29.3672 133.672 29.3672C132.958 29.3672 132.151 29.5859 131.25 30.0234L130.852 29.0312C131.273 28.8021 131.734 28.6224 132.234 28.4922C132.74 28.362 133.245 28.2969 133.75 28.2969C134.771 28.2969 135.526 28.5234 136.016 28.9766C136.51 29.4297 136.758 30.1562 136.758 31.1562V37H135.797ZM132.867 36.0859C133.674 36.0859 134.307 35.8646 134.766 35.4219C135.229 34.9792 135.461 34.3594 135.461 33.5625V32.7891L134.164 32.8438C133.133 32.8802 132.388 33.0417 131.93 33.3281C131.477 33.6094 131.25 34.0495 131.25 34.6484C131.25 35.1172 131.391 35.474 131.672 35.7188C131.958 35.9635 132.357 36.0859 132.867 36.0859ZM145.297 37V31.4609C145.297 30.763 145.138 30.2422 144.82 29.8984C144.503 29.5547 144.005 29.3828 143.328 29.3828C142.432 29.3828 141.776 29.625 141.359 30.1094C140.943 30.5938 140.734 31.3932 140.734 32.5078V37H139.438V28.4375H140.492L140.703 29.6094H140.766C141.031 29.1875 141.404 28.862 141.883 28.6328C142.362 28.3984 142.896 28.2812 143.484 28.2812C144.516 28.2812 145.292 28.5312 145.812 29.0312C146.333 29.526 146.594 30.3203 146.594 31.4141V37H145.297ZM155.125 37V31.4609C155.125 30.763 154.966 30.2422 154.648 29.8984C154.331 29.5547 153.833 29.3828 153.156 29.3828C152.26 29.3828 151.604 29.625 151.188 30.1094C150.771 30.5938 150.562 31.3932 150.562 32.5078V37H149.266V28.4375H150.32L150.531 29.6094H150.594C150.859 29.1875 151.232 28.862 151.711 28.6328C152.19 28.3984 152.724 28.2812 153.312 28.2812C154.344 28.2812 155.12 28.5312 155.641 29.0312C156.161 29.526 156.422 30.3203 156.422 31.4141V37H155.125ZM162.711 37.1562C161.445 37.1562 160.445 36.7708 159.711 36C158.982 35.2292 158.617 34.1589 158.617 32.7891C158.617 31.4089 158.956 30.3125 159.633 29.5C160.315 28.6875 161.229 28.2812 162.375 28.2812C163.448 28.2812 164.297 28.6354 164.922 29.3438C165.547 30.0469 165.859 30.9766 165.859 32.1328V32.9531H159.961C159.987 33.9583 160.24 34.7214 160.719 35.2422C161.203 35.763 161.883 36.0234 162.758 36.0234C163.68 36.0234 164.591 35.8307 165.492 35.4453V36.6016C165.034 36.7995 164.599 36.9401 164.188 37.0234C163.781 37.112 163.289 37.1562 162.711 37.1562ZM162.359 29.3672C161.672 29.3672 161.122 29.5911 160.711 30.0391C160.305 30.487 160.065 31.1068 159.992 31.8984H164.469C164.469 31.0807 164.286 30.4557 163.922 30.0234C163.557 29.5859 163.036 29.3672 162.359 29.3672ZM171.984 28.2812C172.365 28.2812 172.706 28.3125 173.008 28.375L172.828 29.5781C172.474 29.5 172.161 29.4609 171.891 29.4609C171.198 29.4609 170.604 29.7422 170.109 30.3047C169.62 30.8672 169.375 31.5677 169.375 32.4062V37H168.078V28.4375H169.148L169.297 30.0234H169.359C169.677 29.4661 170.06 29.0365 170.508 28.7344C170.956 28.4323 171.448 28.2812 171.984 28.2812ZM181.531 36.0859C181.76 36.0859 181.982 36.0703 182.195 36.0391C182.409 36.0026 182.578 35.9661 182.703 35.9297V36.9219C182.562 36.9896 182.354 37.0443 182.078 37.0859C181.807 37.1328 181.562 37.1562 181.344 37.1562C179.688 37.1562 178.859 36.2839 178.859 34.5391V29.4453H177.633V28.8203L178.859 28.2812L179.406 26.4531H180.156V28.4375H182.641V29.4453H180.156V34.4844C180.156 35 180.279 35.3958 180.523 35.6719C180.768 35.9479 181.104 36.0859 181.531 36.0859ZM185.719 37H184.422V28.4375H185.719V37ZM184.312 26.1172C184.312 25.8203 184.385 25.6042 184.531 25.4688C184.677 25.3281 184.859 25.2578 185.078 25.2578C185.286 25.2578 185.466 25.3281 185.617 25.4688C185.768 25.6094 185.844 25.8255 185.844 26.1172C185.844 26.4089 185.768 26.6276 185.617 26.7734C185.466 26.9141 185.286 26.9844 185.078 26.9844C184.859 26.9844 184.677 26.9141 184.531 26.7734C184.385 26.6276 184.312 26.4089 184.312 26.1172ZM192.086 37.1562C190.82 37.1562 189.82 36.7708 189.086 36C188.357 35.2292 187.992 34.1589 187.992 32.7891C187.992 31.4089 188.331 30.3125 189.008 29.5C189.69 28.6875 190.604 28.2812 191.75 28.2812C192.823 28.2812 193.672 28.6354 194.297 29.3438C194.922 30.0469 195.234 30.9766 195.234 32.1328V32.9531H189.336C189.362 33.9583 189.615 34.7214 190.094 35.2422C190.578 35.763 191.258 36.0234 192.133 36.0234C193.055 36.0234 193.966 35.8307 194.867 35.4453V36.6016C194.409 36.7995 193.974 36.9401 193.562 37.0234C193.156 37.112 192.664 37.1562 192.086 37.1562ZM191.734 29.3672C191.047 29.3672 190.497 29.5911 190.086 30.0391C189.68 30.487 189.44 31.1068 189.367 31.8984H193.844C193.844 31.0807 193.661 30.4557 193.297 30.0234C192.932 29.5859 192.411 29.3672 191.734 29.3672ZM203.312 37V31.4609C203.312 30.763 203.154 30.2422 202.836 29.8984C202.518 29.5547 202.021 29.3828 201.344 29.3828C200.448 29.3828 199.792 29.625 199.375 30.1094C198.958 30.5938 198.75 31.3932 198.75 32.5078V37H197.453V28.4375H198.508L198.719 29.6094H198.781C199.047 29.1875 199.419 28.862 199.898 28.6328C200.378 28.3984 200.911 28.2812 201.5 28.2812C202.531 28.2812 203.307 28.5312 203.828 29.0312C204.349 29.526 204.609 30.3203 204.609 31.4141V37H203.312ZM210.898 37.1562C209.633 37.1562 208.633 36.7708 207.898 36C207.169 35.2292 206.805 34.1589 206.805 32.7891C206.805 31.4089 207.143 30.3125 207.82 29.5C208.503 28.6875 209.417 28.2812 210.562 28.2812C211.635 28.2812 212.484 28.6354 213.109 29.3438C213.734 30.0469 214.047 30.9766 214.047 32.1328V32.9531H208.148C208.174 33.9583 208.427 34.7214 208.906 35.2422C209.391 35.763 210.07 36.0234 210.945 36.0234C211.867 36.0234 212.779 35.8307 213.68 35.4453V36.6016C213.221 36.7995 212.786 36.9401 212.375 37.0234C211.969 37.112 211.477 37.1562 210.898 37.1562ZM210.547 29.3672C209.859 29.3672 209.31 29.5911 208.898 30.0391C208.492 30.487 208.253 31.1068 208.18 31.8984H212.656C212.656 31.0807 212.474 30.4557 212.109 30.0234C211.745 29.5859 211.224 29.3672 210.547 29.3672ZM221.641 28.4375V33.9922C221.641 34.6901 221.799 35.2109 222.117 35.5547C222.435 35.8984 222.932 36.0703 223.609 36.0703C224.505 36.0703 225.159 35.8255 225.57 35.3359C225.987 34.8464 226.195 34.0469 226.195 32.9375V28.4375H227.492V37H226.422L226.234 35.8516H226.164C225.898 36.2734 225.529 36.5964 225.055 36.8203C224.586 37.0443 224.049 37.1562 223.445 37.1562C222.404 37.1562 221.622 36.9089 221.102 36.4141C220.586 35.9193 220.328 35.1276 220.328 34.0391V28.4375H221.641ZM236.109 37V31.4609C236.109 30.763 235.951 30.2422 235.633 29.8984C235.315 29.5547 234.818 29.3828 234.141 29.3828C233.245 29.3828 232.589 29.625 232.172 30.1094C231.755 30.5938 231.547 31.3932 231.547 32.5078V37H230.25V28.4375H231.305L231.516 29.6094H231.578C231.844 29.1875 232.216 28.862 232.695 28.6328C233.174 28.3984 233.708 28.2812 234.297 28.2812C235.328 28.2812 236.104 28.5312 236.625 29.0312C237.146 29.526 237.406 30.3203 237.406 31.4141V37H236.109ZM249.758 34.6641C249.758 35.4609 249.461 36.0755 248.867 36.5078C248.273 36.9401 247.44 37.1562 246.367 37.1562C245.232 37.1562 244.346 36.9766 243.711 36.6172V35.4141C244.122 35.6224 244.562 35.7865 245.031 35.9062C245.505 36.026 245.961 36.0859 246.398 36.0859C247.076 36.0859 247.596 35.9792 247.961 35.7656C248.326 35.5469 248.508 35.2161 248.508 34.7734C248.508 34.4401 248.362 34.1562 248.07 33.9219C247.784 33.6823 247.221 33.401 246.383 33.0781C245.586 32.7812 245.018 32.5234 244.68 32.3047C244.346 32.0807 244.096 31.8281 243.93 31.5469C243.768 31.2656 243.688 30.9297 243.688 30.5391C243.688 29.8411 243.971 29.2917 244.539 28.8906C245.107 28.4844 245.885 28.2812 246.875 28.2812C247.797 28.2812 248.698 28.4688 249.578 28.8438L249.117 29.8984C248.258 29.5443 247.479 29.3672 246.781 29.3672C246.167 29.3672 245.703 29.4635 245.391 29.6562C245.078 29.849 244.922 30.1146 244.922 30.4531C244.922 30.6823 244.979 30.8776 245.094 31.0391C245.214 31.2005 245.404 31.3542 245.664 31.5C245.924 31.6458 246.424 31.8568 247.164 32.1328C248.18 32.5026 248.865 32.875 249.219 33.25C249.578 33.625 249.758 34.0964 249.758 34.6641ZM259.266 32.7109C259.266 34.1068 258.914 35.1979 258.211 35.9844C257.508 36.7656 256.536 37.1562 255.297 37.1562C254.531 37.1562 253.852 36.9766 253.258 36.6172C252.664 36.2578 252.206 35.7422 251.883 35.0703C251.56 34.3984 251.398 33.612 251.398 32.7109C251.398 31.3151 251.747 30.2292 252.445 29.4531C253.143 28.6719 254.112 28.2812 255.352 28.2812C256.549 28.2812 257.5 28.6797 258.203 29.4766C258.911 30.2734 259.266 31.3516 259.266 32.7109ZM252.742 32.7109C252.742 33.8047 252.961 34.638 253.398 35.2109C253.836 35.7839 254.479 36.0703 255.328 36.0703C256.177 36.0703 256.82 35.7865 257.258 35.2188C257.701 34.6458 257.922 33.8099 257.922 32.7109C257.922 31.6224 257.701 30.7969 257.258 30.2344C256.82 29.6667 256.172 29.3828 255.312 29.3828C254.464 29.3828 253.823 29.6615 253.391 30.2188C252.958 30.776 252.742 31.6068 252.742 32.7109ZM262.844 37H261.547V24.8438H262.844V37ZM272.984 32.7109C272.984 34.1068 272.633 35.1979 271.93 35.9844C271.227 36.7656 270.255 37.1562 269.016 37.1562C268.25 37.1562 267.57 36.9766 266.977 36.6172C266.383 36.2578 265.924 35.7422 265.602 35.0703C265.279 34.3984 265.117 33.612 265.117 32.7109C265.117 31.3151 265.466 30.2292 266.164 29.4531C266.862 28.6719 267.831 28.2812 269.07 28.2812C270.268 28.2812 271.219 28.6797 271.922 29.4766C272.63 30.2734 272.984 31.3516 272.984 32.7109ZM266.461 32.7109C266.461 33.8047 266.68 34.638 267.117 35.2109C267.555 35.7839 268.198 36.0703 269.047 36.0703C269.896 36.0703 270.539 35.7865 270.977 35.2188C271.419 34.6458 271.641 33.8099 271.641 32.7109C271.641 31.6224 271.419 30.7969 270.977 30.2344C270.539 29.6667 269.891 29.3828 269.031 29.3828C268.182 29.3828 267.542 29.6615 267.109 30.2188C266.677 30.776 266.461 31.6068 266.461 32.7109ZM283.406 28.2969C284.531 28.2969 285.404 28.6823 286.023 29.4531C286.648 30.2188 286.961 31.3047 286.961 32.7109C286.961 34.1172 286.646 35.2109 286.016 35.9922C285.391 36.7682 284.521 37.1562 283.406 37.1562C282.849 37.1562 282.339 37.0547 281.875 36.8516C281.417 36.6432 281.031 36.3255 280.719 35.8984H280.625L280.352 37H279.422V24.8438H280.719V27.7969C280.719 28.4583 280.698 29.0521 280.656 29.5781H280.719C281.323 28.724 282.219 28.2969 283.406 28.2969ZM283.219 29.3828C282.333 29.3828 281.695 29.638 281.305 30.1484C280.914 30.6536 280.719 31.5078 280.719 32.7109C280.719 33.9141 280.919 34.776 281.32 35.2969C281.721 35.8125 282.365 36.0703 283.25 36.0703C284.047 36.0703 284.641 35.7812 285.031 35.2031C285.422 34.6198 285.617 33.7839 285.617 32.6953C285.617 31.5807 285.422 30.75 285.031 30.2031C284.641 29.6562 284.036 29.3828 283.219 29.3828ZM296.625 32.7109C296.625 34.1068 296.273 35.1979 295.57 35.9844C294.867 36.7656 293.896 37.1562 292.656 37.1562C291.891 37.1562 291.211 36.9766 290.617 36.6172C290.023 36.2578 289.565 35.7422 289.242 35.0703C288.919 34.3984 288.758 33.612 288.758 32.7109C288.758 31.3151 289.107 30.2292 289.805 29.4531C290.503 28.6719 291.471 28.2812 292.711 28.2812C293.909 28.2812 294.859 28.6797 295.562 29.4766C296.271 30.2734 296.625 31.3516 296.625 32.7109ZM290.102 32.7109C290.102 33.8047 290.32 34.638 290.758 35.2109C291.195 35.7839 291.839 36.0703 292.688 36.0703C293.536 36.0703 294.18 35.7865 294.617 35.2188C295.06 34.6458 295.281 33.8099 295.281 32.7109C295.281 31.6224 295.06 30.7969 294.617 30.2344C294.18 29.6667 293.531 29.3828 292.672 29.3828C291.823 29.3828 291.182 29.6615 290.75 30.2188C290.318 30.776 290.102 31.6068 290.102 32.7109ZM301.672 36.0859C301.901 36.0859 302.122 36.0703 302.336 36.0391C302.549 36.0026 302.719 35.9661 302.844 35.9297V36.9219C302.703 36.9896 302.495 37.0443 302.219 37.0859C301.948 37.1328 301.703 37.1562 301.484 37.1562C299.828 37.1562 299 36.2839 299 34.5391V29.4453H297.773V28.8203L299 28.2812L299.547 26.4531H300.297V28.4375H302.781V29.4453H300.297V34.4844C300.297 35 300.419 35.3958 300.664 35.6719C300.909 35.9479 301.245 36.0859 301.672 36.0859ZM311.953 32.7109C311.953 34.1068 311.602 35.1979 310.898 35.9844C310.195 36.7656 309.224 37.1562 307.984 37.1562C307.219 37.1562 306.539 36.9766 305.945 36.6172C305.352 36.2578 304.893 35.7422 304.57 35.0703C304.247 34.3984 304.086 33.612 304.086 32.7109C304.086 31.3151 304.435 30.2292 305.133 29.4531C305.831 28.6719 306.799 28.2812 308.039 28.2812C309.237 28.2812 310.188 28.6797 310.891 29.4766C311.599 30.2734 311.953 31.3516 311.953 32.7109ZM305.43 32.7109C305.43 33.8047 305.648 34.638 306.086 35.2109C306.523 35.7839 307.167 36.0703 308.016 36.0703C308.865 36.0703 309.508 35.7865 309.945 35.2188C310.388 34.6458 310.609 33.8099 310.609 32.7109C310.609 31.6224 310.388 30.7969 309.945 30.2344C309.508 29.6667 308.859 29.3828 308 29.3828C307.151 29.3828 306.51 29.6615 306.078 30.2188C305.646 30.776 305.43 31.6068 305.43 32.7109ZM306.93 27.1094C307.18 26.7865 307.448 26.3958 307.734 25.9375C308.026 25.4792 308.255 25.0807 308.422 24.7422H310V24.9062C309.771 25.2448 309.43 25.6615 308.977 26.1562C308.523 26.651 308.13 27.0339 307.797 27.3047H306.93V27.1094ZM320.094 37V31.4609C320.094 30.763 319.935 30.2422 319.617 29.8984C319.299 29.5547 318.802 29.3828 318.125 29.3828C317.229 29.3828 316.573 29.625 316.156 30.1094C315.74 30.5938 315.531 31.3932 315.531 32.5078V37H314.234V28.4375H315.289L315.5 29.6094H315.562C315.828 29.1875 316.201 28.862 316.68 28.6328C317.159 28.3984 317.693 28.2812 318.281 28.2812C319.312 28.2812 320.089 28.5312 320.609 29.0312C321.13 29.526 321.391 30.3203 321.391 31.4141V37H320.094ZM326.859 28.4375H328.25L330.125 33.3203C330.536 34.4349 330.792 35.2396 330.891 35.7344H330.953C331.021 35.4688 331.161 35.0156 331.375 34.375C331.594 33.7292 332.302 31.75 333.5 28.4375H334.891L331.211 38.1875C330.846 39.151 330.419 39.8333 329.93 40.2344C329.445 40.6406 328.849 40.8438 328.141 40.8438C327.745 40.8438 327.354 40.7995 326.969 40.7109V39.6719C327.255 39.7344 327.576 39.7656 327.93 39.7656C328.82 39.7656 329.456 39.2656 329.836 38.2656L330.312 37.0469L326.859 28.4375ZM345.109 37.1562C344.083 37.1562 343.279 36.7839 342.695 36.0391H342.57C342.654 36.7682 342.695 37.1901 342.695 37.3047V40.8438H340.312V28.2656H342.25L342.586 29.3984H342.695C343.253 28.5339 344.078 28.1016 345.172 28.1016C346.203 28.1016 347.01 28.5 347.594 29.2969C348.177 30.0938 348.469 31.2005 348.469 32.6172C348.469 33.5495 348.331 34.3594 348.055 35.0469C347.784 35.7344 347.396 36.2578 346.891 36.6172C346.385 36.9766 345.792 37.1562 345.109 37.1562ZM344.406 30.0078C343.818 30.0078 343.388 30.1901 343.117 30.5547C342.846 30.9141 342.706 31.5104 342.695 32.3438V32.6016C342.695 33.5391 342.833 34.2109 343.109 34.6172C343.391 35.0234 343.833 35.2266 344.438 35.2266C345.505 35.2266 346.039 34.3464 346.039 32.5859C346.039 31.7266 345.906 31.0833 345.641 30.6562C345.38 30.224 344.969 30.0078 344.406 30.0078ZM356.625 37L356.305 35.8828H356.18C355.924 36.2891 355.562 36.6042 355.094 36.8281C354.625 37.0469 354.091 37.1562 353.492 37.1562C352.466 37.1562 351.693 36.8828 351.172 36.3359C350.651 35.7839 350.391 34.9922 350.391 33.9609V28.2656H352.773V33.3672C352.773 33.9974 352.885 34.4714 353.109 34.7891C353.333 35.1016 353.69 35.2578 354.18 35.2578C354.846 35.2578 355.328 35.0365 355.625 34.5938C355.922 34.1458 356.07 33.4062 356.07 32.375V28.2656H358.453V37H356.625ZM364.57 29.7969C364.065 29.7969 363.669 29.9583 363.383 30.2812C363.096 30.599 362.932 31.0521 362.891 31.6406H366.234C366.224 31.0521 366.07 30.599 365.773 30.2812C365.477 29.9583 365.076 29.7969 364.57 29.7969ZM364.906 37.1562C363.5 37.1562 362.401 36.7682 361.609 35.9922C360.818 35.2161 360.422 34.1172 360.422 32.6953C360.422 31.2318 360.786 30.1016 361.516 29.3047C362.25 28.5026 363.263 28.1016 364.555 28.1016C365.789 28.1016 366.75 28.4531 367.438 29.1562C368.125 29.8594 368.469 30.8307 368.469 32.0703V33.2266H362.836C362.862 33.9036 363.062 34.4323 363.438 34.8125C363.812 35.1927 364.339 35.3828 365.016 35.3828C365.542 35.3828 366.039 35.3281 366.508 35.2188C366.977 35.1094 367.466 34.9349 367.977 34.6953V36.5391C367.56 36.7474 367.115 36.901 366.641 37C366.167 37.1042 365.589 37.1562 364.906 37.1562ZM373.172 37.1562C372.146 37.1562 371.339 36.7578 370.75 35.9609C370.167 35.1641 369.875 34.0599 369.875 32.6484C369.875 31.2161 370.172 30.1016 370.766 29.3047C371.365 28.5026 372.188 28.1016 373.234 28.1016C374.333 28.1016 375.172 28.5286 375.75 29.3828H375.828C375.708 28.7318 375.648 28.151 375.648 27.6406V24.8438H378.039V37H376.211L375.75 35.8672H375.648C375.107 36.7266 374.281 37.1562 373.172 37.1562ZM374.008 35.2578C374.617 35.2578 375.062 35.0807 375.344 34.7266C375.63 34.3724 375.786 33.7708 375.812 32.9219V32.6641C375.812 31.7266 375.667 31.0547 375.375 30.6484C375.089 30.2422 374.62 30.0391 373.969 30.0391C373.438 30.0391 373.023 30.2656 372.727 30.7188C372.435 31.1667 372.289 31.8203 372.289 32.6797C372.289 33.5391 372.438 34.1849 372.734 34.6172C373.031 35.0443 373.456 35.2578 374.008 35.2578ZM384.148 29.7969C383.643 29.7969 383.247 29.9583 382.961 30.2812C382.674 30.599 382.51 31.0521 382.469 31.6406H385.812C385.802 31.0521 385.648 30.599 385.352 30.2812C385.055 29.9583 384.654 29.7969 384.148 29.7969ZM384.484 37.1562C383.078 37.1562 381.979 36.7682 381.188 35.9922C380.396 35.2161 380 34.1172 380 32.6953C380 31.2318 380.365 30.1016 381.094 29.3047C381.828 28.5026 382.841 28.1016 384.133 28.1016C385.367 28.1016 386.328 28.4531 387.016 29.1562C387.703 29.8594 388.047 30.8307 388.047 32.0703V33.2266H382.414C382.44 33.9036 382.641 34.4323 383.016 34.8125C383.391 35.1927 383.917 35.3828 384.594 35.3828C385.12 35.3828 385.617 35.3281 386.086 35.2188C386.555 35.1094 387.044 34.9349 387.555 34.6953V36.5391C387.138 36.7474 386.693 36.901 386.219 37C385.745 37.1042 385.167 37.1562 384.484 37.1562ZM397.82 35.2578C398.237 35.2578 398.737 35.1667 399.32 34.9844V36.7578C398.727 37.0234 397.997 37.1562 397.133 37.1562C396.18 37.1562 395.484 36.9167 395.047 36.4375C394.615 35.9531 394.398 35.2292 394.398 34.2656V30.0547H393.258V29.0469L394.57 28.25L395.258 26.4062H396.781V28.2656H399.227V30.0547H396.781V34.2656C396.781 34.6042 396.875 34.8542 397.062 35.0156C397.255 35.1771 397.508 35.2578 397.82 35.2578ZM404.711 29.7969C404.206 29.7969 403.81 29.9583 403.523 30.2812C403.237 30.599 403.073 31.0521 403.031 31.6406H406.375C406.365 31.0521 406.211 30.599 405.914 30.2812C405.617 29.9583 405.216 29.7969 404.711 29.7969ZM405.047 37.1562C403.641 37.1562 402.542 36.7682 401.75 35.9922C400.958 35.2161 400.562 34.1172 400.562 32.6953C400.562 31.2318 400.927 30.1016 401.656 29.3047C402.391 28.5026 403.404 28.1016 404.695 28.1016C405.93 28.1016 406.891 28.4531 407.578 29.1562C408.266 29.8594 408.609 30.8307 408.609 32.0703V33.2266H402.977C403.003 33.9036 403.203 34.4323 403.578 34.8125C403.953 35.1927 404.479 35.3828 405.156 35.3828C405.682 35.3828 406.18 35.3281 406.648 35.2188C407.117 35.1094 407.607 34.9349 408.117 34.6953V36.5391C407.701 36.7474 407.255 36.901 406.781 37C406.307 37.1042 405.729 37.1562 405.047 37.1562ZM418.609 37H416.227V31.8984C416.227 31.2682 416.115 30.7969 415.891 30.4844C415.667 30.1667 415.31 30.0078 414.82 30.0078C414.154 30.0078 413.672 30.2318 413.375 30.6797C413.078 31.1224 412.93 31.8594 412.93 32.8906V37H410.547V28.2656H412.367L412.688 29.3828H412.82C413.086 28.9609 413.451 28.6432 413.914 28.4297C414.383 28.2109 414.914 28.1016 415.508 28.1016C416.523 28.1016 417.294 28.3776 417.82 28.9297C418.346 29.4766 418.609 30.2682 418.609 31.3047V37ZM424.68 29.7969C424.174 29.7969 423.779 29.9583 423.492 30.2812C423.206 30.599 423.042 31.0521 423 31.6406H426.344C426.333 31.0521 426.18 30.599 425.883 30.2812C425.586 29.9583 425.185 29.7969 424.68 29.7969ZM425.016 37.1562C423.609 37.1562 422.51 36.7682 421.719 35.9922C420.927 35.2161 420.531 34.1172 420.531 32.6953C420.531 31.2318 420.896 30.1016 421.625 29.3047C422.359 28.5026 423.372 28.1016 424.664 28.1016C425.898 28.1016 426.859 28.4531 427.547 29.1562C428.234 29.8594 428.578 30.8307 428.578 32.0703V33.2266H422.945C422.971 33.9036 423.172 34.4323 423.547 34.8125C423.922 35.1927 424.448 35.3828 425.125 35.3828C425.651 35.3828 426.148 35.3281 426.617 35.2188C427.086 35.1094 427.576 34.9349 428.086 34.6953V36.5391C427.669 36.7474 427.224 36.901 426.75 37C426.276 37.1042 425.698 37.1562 425.016 37.1562ZM435.391 28.1016C435.714 28.1016 435.982 28.125 436.195 28.1719L436.016 30.4062C435.823 30.3542 435.589 30.3281 435.312 30.3281C434.552 30.3281 433.958 30.5234 433.531 30.9141C433.109 31.3047 432.898 31.8516 432.898 32.5547V37H430.516V28.2656H432.32L432.672 29.7344H432.789C433.06 29.2448 433.424 28.8516 433.883 28.5547C434.346 28.2526 434.849 28.1016 435.391 28.1016ZM445.555 29.7969C445.049 29.7969 444.654 29.9583 444.367 30.2812C444.081 30.599 443.917 31.0521 443.875 31.6406H447.219C447.208 31.0521 447.055 30.599 446.758 30.2812C446.461 29.9583 446.06 29.7969 445.555 29.7969ZM445.891 37.1562C444.484 37.1562 443.385 36.7682 442.594 35.9922C441.802 35.2161 441.406 34.1172 441.406 32.6953C441.406 31.2318 441.771 30.1016 442.5 29.3047C443.234 28.5026 444.247 28.1016 445.539 28.1016C446.773 28.1016 447.734 28.4531 448.422 29.1562C449.109 29.8594 449.453 30.8307 449.453 32.0703V33.2266H443.82C443.846 33.9036 444.047 34.4323 444.422 34.8125C444.797 35.1927 445.323 35.3828 446 35.3828C446.526 35.3828 447.023 35.3281 447.492 35.2188C447.961 35.1094 448.451 34.9349 448.961 34.6953V36.5391C448.544 36.7474 448.099 36.901 447.625 37C447.151 37.1042 446.573 37.1562 445.891 37.1562ZM444.18 27.3047V27.0938C445.076 26.0521 445.688 25.2682 446.016 24.7422H448.688V24.9062C448.417 25.1771 447.953 25.5807 447.297 26.1172C446.646 26.6484 446.135 27.0443 445.766 27.3047H444.18ZM459.453 37H457.07V31.8984C457.07 31.2682 456.958 30.7969 456.734 30.4844C456.51 30.1667 456.154 30.0078 455.664 30.0078C454.997 30.0078 454.516 30.2318 454.219 30.6797C453.922 31.1224 453.773 31.8594 453.773 32.8906V37H451.391V28.2656H453.211L453.531 29.3828H453.664C453.93 28.9609 454.294 28.6432 454.758 28.4297C455.227 28.2109 455.758 28.1016 456.352 28.1016C457.367 28.1016 458.138 28.3776 458.664 28.9297C459.19 29.4766 459.453 30.2682 459.453 31.3047V37ZM466.734 30.0547H464.672V37H462.289V30.0547H460.977V28.9062L462.289 28.2656V27.625C462.289 26.6302 462.534 25.9036 463.023 25.4453C463.513 24.987 464.297 24.7578 465.375 24.7578C466.198 24.7578 466.93 24.8802 467.57 25.125L466.961 26.875C466.482 26.724 466.039 26.6484 465.633 26.6484C465.294 26.6484 465.049 26.75 464.898 26.9531C464.747 27.151 464.672 27.4062 464.672 27.7188V28.2656H466.734V30.0547ZM473.656 37L473.195 35.8125H473.133C472.732 36.3177 472.318 36.6693 471.891 36.8672C471.469 37.0599 470.917 37.1562 470.234 37.1562C469.396 37.1562 468.734 36.9167 468.25 36.4375C467.771 35.9583 467.531 35.276 467.531 34.3906C467.531 33.4635 467.854 32.7812 468.5 32.3438C469.151 31.901 470.13 31.6562 471.438 31.6094L472.953 31.5625V31.1797C472.953 30.2943 472.5 29.8516 471.594 29.8516C470.896 29.8516 470.076 30.0625 469.133 30.4844L468.344 28.875C469.349 28.349 470.464 28.0859 471.688 28.0859C472.859 28.0859 473.758 28.3411 474.383 28.8516C475.008 29.362 475.32 30.138 475.32 31.1797V37H473.656ZM472.953 32.9531L472.031 32.9844C471.339 33.0052 470.823 33.1302 470.484 33.3594C470.146 33.5885 469.977 33.9375 469.977 34.4062C469.977 35.0781 470.362 35.4141 471.133 35.4141C471.685 35.4141 472.125 35.2552 472.453 34.9375C472.786 34.6198 472.953 34.1979 472.953 33.6719V32.9531ZM483.875 34.4062C483.875 35.3021 483.562 35.9844 482.938 36.4531C482.318 36.9219 481.388 37.1562 480.148 37.1562C479.513 37.1562 478.971 37.112 478.523 37.0234C478.076 36.9401 477.656 36.8151 477.266 36.6484V34.6797C477.708 34.888 478.206 35.0625 478.758 35.2031C479.315 35.3438 479.805 35.4141 480.227 35.4141C481.091 35.4141 481.523 35.1641 481.523 34.6641C481.523 34.4766 481.466 34.3255 481.352 34.2109C481.237 34.0911 481.039 33.9583 480.758 33.8125C480.477 33.6615 480.102 33.487 479.633 33.2891C478.961 33.0078 478.466 32.7474 478.148 32.5078C477.836 32.2682 477.607 31.9948 477.461 31.6875C477.32 31.375 477.25 30.9922 477.25 30.5391C477.25 29.763 477.549 29.1641 478.148 28.7422C478.753 28.3151 479.607 28.1016 480.711 28.1016C481.763 28.1016 482.786 28.3307 483.781 28.7891L483.062 30.5078C482.625 30.3203 482.216 30.1667 481.836 30.0469C481.456 29.9271 481.068 29.8672 480.672 29.8672C479.969 29.8672 479.617 30.0573 479.617 30.4375C479.617 30.651 479.729 30.8359 479.953 30.9922C480.182 31.1484 480.68 31.3802 481.445 31.6875C482.128 31.9635 482.628 32.2214 482.945 32.4609C483.263 32.7005 483.497 32.9766 483.648 33.2891C483.799 33.6016 483.875 33.974 483.875 34.4062ZM485.633 26.0078C485.633 25.2318 486.065 24.8438 486.93 24.8438C487.794 24.8438 488.227 25.2318 488.227 26.0078C488.227 26.3776 488.117 26.6667 487.898 26.875C487.685 27.0781 487.362 27.1797 486.93 27.1797C486.065 27.1797 485.633 26.7891 485.633 26.0078ZM488.117 37H485.734V28.2656H488.117V37ZM496.719 34.4062C496.719 35.3021 496.406 35.9844 495.781 36.4531C495.161 36.9219 494.232 37.1562 492.992 37.1562C492.357 37.1562 491.815 37.112 491.367 37.0234C490.919 36.9401 490.5 36.8151 490.109 36.6484V34.6797C490.552 34.888 491.049 35.0625 491.602 35.2031C492.159 35.3438 492.648 35.4141 493.07 35.4141C493.935 35.4141 494.367 35.1641 494.367 34.6641C494.367 34.4766 494.31 34.3255 494.195 34.2109C494.081 34.0911 493.883 33.9583 493.602 33.8125C493.32 33.6615 492.945 33.487 492.477 33.2891C491.805 33.0078 491.31 32.7474 490.992 32.5078C490.68 32.2682 490.451 31.9948 490.305 31.6875C490.164 31.375 490.094 30.9922 490.094 30.5391C490.094 29.763 490.393 29.1641 490.992 28.7422C491.596 28.3151 492.451 28.1016 493.555 28.1016C494.607 28.1016 495.63 28.3307 496.625 28.7891L495.906 30.5078C495.469 30.3203 495.06 30.1667 494.68 30.0469C494.299 29.9271 493.911 29.8672 493.516 29.8672C492.812 29.8672 492.461 30.0573 492.461 30.4375C492.461 30.651 492.573 30.8359 492.797 30.9922C493.026 31.1484 493.523 31.3802 494.289 31.6875C494.971 31.9635 495.471 32.2214 495.789 32.4609C496.107 32.7005 496.341 32.9766 496.492 33.2891C496.643 33.6016 496.719 33.974 496.719 34.4062ZM498.242 35.8828C498.242 35.4453 498.359 35.1146 498.594 34.8906C498.828 34.6667 499.169 34.5547 499.617 34.5547C500.049 34.5547 500.383 34.6693 500.617 34.8984C500.857 35.1276 500.977 35.4557 500.977 35.8828C500.977 36.2943 500.857 36.6198 500.617 36.8594C500.378 37.0938 500.044 37.2109 499.617 37.2109C499.18 37.2109 498.841 37.0964 498.602 36.8672C498.362 36.6328 498.242 36.3047 498.242 35.8828ZM514.062 33.9609C514.062 34.9661 513.698 35.75 512.969 36.3125C512.24 36.875 511.25 37.1562 510 37.1562C508.646 37.1562 507.604 36.9818 506.875 36.6328V35.3516C507.344 35.5495 507.854 35.7057 508.406 35.8203C508.958 35.9349 509.505 35.9922 510.047 35.9922C510.932 35.9922 511.599 35.8255 512.047 35.4922C512.495 35.1536 512.719 34.6849 512.719 34.0859C512.719 33.6901 512.638 33.3672 512.477 33.1172C512.32 32.862 512.055 32.6276 511.68 32.4141C511.31 32.2005 510.745 31.9583 509.984 31.6875C508.922 31.3073 508.161 30.8568 507.703 30.3359C507.25 29.8151 507.023 29.1354 507.023 28.2969C507.023 27.4167 507.354 26.7161 508.016 26.1953C508.677 25.6745 509.552 25.4141 510.641 25.4141C511.776 25.4141 512.82 25.6224 513.773 26.0391L513.359 27.1953C512.417 26.7995 511.5 26.6016 510.609 26.6016C509.906 26.6016 509.357 26.7526 508.961 27.0547C508.565 27.3568 508.367 27.776 508.367 28.3125C508.367 28.7083 508.44 29.0339 508.586 29.2891C508.732 29.5391 508.977 29.7708 509.32 29.9844C509.669 30.1927 510.201 30.4245 510.914 30.6797C512.112 31.1068 512.935 31.5651 513.383 32.0547C513.836 32.5443 514.062 33.1797 514.062 33.9609ZM519.82 37.1562C518.555 37.1562 517.555 36.7708 516.82 36C516.091 35.2292 515.727 34.1589 515.727 32.7891C515.727 31.4089 516.065 30.3125 516.742 29.5C517.424 28.6875 518.339 28.2812 519.484 28.2812C520.557 28.2812 521.406 28.6354 522.031 29.3438C522.656 30.0469 522.969 30.9766 522.969 32.1328V32.9531H517.07C517.096 33.9583 517.349 34.7214 517.828 35.2422C518.312 35.763 518.992 36.0234 519.867 36.0234C520.789 36.0234 521.701 35.8307 522.602 35.4453V36.6016C522.143 36.7995 521.708 36.9401 521.297 37.0234C520.891 37.112 520.398 37.1562 519.82 37.1562ZM519.469 29.3672C518.781 29.3672 518.232 29.5911 517.82 30.0391C517.414 30.487 517.174 31.1068 517.102 31.8984H521.578C521.578 31.0807 521.396 30.4557 521.031 30.0234C520.667 29.5859 520.146 29.3672 519.469 29.3672ZM532.109 36.0859C532.339 36.0859 532.56 36.0703 532.773 36.0391C532.987 36.0026 533.156 35.9661 533.281 35.9297V36.9219C533.141 36.9896 532.932 37.0443 532.656 37.0859C532.385 37.1328 532.141 37.1562 531.922 37.1562C530.266 37.1562 529.438 36.2839 529.438 34.5391V29.4453H528.211V28.8203L529.438 28.2812L529.984 26.4531H530.734V28.4375H533.219V29.4453H530.734V34.4844C530.734 35 530.857 35.3958 531.102 35.6719C531.346 35.9479 531.682 36.0859 532.109 36.0859ZM538.906 28.2812C539.286 28.2812 539.628 28.3125 539.93 28.375L539.75 29.5781C539.396 29.5 539.083 29.4609 538.812 29.4609C538.12 29.4609 537.526 29.7422 537.031 30.3047C536.542 30.8672 536.297 31.5677 536.297 32.4062V37H535V28.4375H536.07L536.219 30.0234H536.281C536.599 29.4661 536.982 29.0365 537.43 28.7344C537.878 28.4323 538.37 28.2812 538.906 28.2812ZM542.75 28.4375V33.9922C542.75 34.6901 542.909 35.2109 543.227 35.5547C543.544 35.8984 544.042 36.0703 544.719 36.0703C545.615 36.0703 546.268 35.8255 546.68 35.3359C547.096 34.8464 547.305 34.0469 547.305 32.9375V28.4375H548.602V37H547.531L547.344 35.8516H547.273C547.008 36.2734 546.638 36.5964 546.164 36.8203C545.695 37.0443 545.159 37.1562 544.555 37.1562C543.513 37.1562 542.732 36.9089 542.211 36.4141C541.695 35.9193 541.438 35.1276 541.438 34.0391V28.4375H542.75ZM557.219 37V31.4609C557.219 30.763 557.06 30.2422 556.742 29.8984C556.424 29.5547 555.927 29.3828 555.25 29.3828C554.354 29.3828 553.698 29.625 553.281 30.1094C552.865 30.5938 552.656 31.3932 552.656 32.5078V37H551.359V28.4375H552.414L552.625 29.6094H552.688C552.953 29.1875 553.326 28.862 553.805 28.6328C554.284 28.3984 554.818 28.2812 555.406 28.2812C556.438 28.2812 557.214 28.5312 557.734 29.0312C558.255 29.526 558.516 30.3203 558.516 31.4141V37H557.219ZM564.609 37.1562C563.37 37.1562 562.409 36.776 561.727 36.0156C561.049 35.25 560.711 34.1693 560.711 32.7734C560.711 31.3411 561.055 30.2344 561.742 29.4531C562.435 28.6719 563.419 28.2812 564.695 28.2812C565.107 28.2812 565.518 28.3255 565.93 28.4141C566.341 28.5026 566.664 28.6068 566.898 28.7266L566.5 29.8281C566.214 29.7135 565.901 29.6198 565.562 29.5469C565.224 29.4688 564.924 29.4297 564.664 29.4297C562.924 29.4297 562.055 30.5391 562.055 32.7578C562.055 33.8099 562.266 34.6172 562.688 35.1797C563.115 35.7422 563.745 36.0234 564.578 36.0234C565.292 36.0234 566.023 35.8698 566.773 35.5625V36.7109C566.201 37.0078 565.479 37.1562 564.609 37.1562ZM574.078 37L573.82 35.7812H573.758C573.331 36.3177 572.904 36.6823 572.477 36.875C572.055 37.0625 571.526 37.1562 570.891 37.1562C570.042 37.1562 569.375 36.9375 568.891 36.5C568.411 36.0625 568.172 35.4401 568.172 34.6328C568.172 32.9036 569.555 31.9974 572.32 31.9141L573.773 31.8672V31.3359C573.773 30.6641 573.628 30.1693 573.336 29.8516C573.049 29.5286 572.589 29.3672 571.953 29.3672C571.24 29.3672 570.432 29.5859 569.531 30.0234L569.133 29.0312C569.555 28.8021 570.016 28.6224 570.516 28.4922C571.021 28.362 571.526 28.2969 572.031 28.2969C573.052 28.2969 573.807 28.5234 574.297 28.9766C574.792 29.4297 575.039 30.1562 575.039 31.1562V37H574.078ZM571.148 36.0859C571.956 36.0859 572.589 35.8646 573.047 35.4219C573.51 34.9792 573.742 34.3594 573.742 33.5625V32.7891L572.445 32.8438C571.414 32.8802 570.669 33.0417 570.211 33.3281C569.758 33.6094 569.531 34.0495 569.531 34.6484C569.531 35.1172 569.672 35.474 569.953 35.7188C570.24 35.9635 570.638 36.0859 571.148 36.0859ZM577.531 36.1719C577.531 35.8229 577.609 35.5599 577.766 35.3828C577.927 35.2005 578.156 35.1094 578.453 35.1094C578.755 35.1094 578.99 35.2005 579.156 35.3828C579.328 35.5599 579.414 35.8229 579.414 36.1719C579.414 36.5104 579.328 36.7708 579.156 36.9531C578.984 37.1354 578.75 37.2266 578.453 37.2266C578.188 37.2266 577.966 37.1458 577.789 36.9844C577.617 36.8177 577.531 36.5469 577.531 36.1719ZM581.672 36.1719C581.672 35.8229 581.75 35.5599 581.906 35.3828C582.068 35.2005 582.297 35.1094 582.594 35.1094C582.896 35.1094 583.13 35.2005 583.297 35.3828C583.469 35.5599 583.555 35.8229 583.555 36.1719C583.555 36.5104 583.469 36.7708 583.297 36.9531C583.125 37.1354 582.891 37.2266 582.594 37.2266C582.328 37.2266 582.107 37.1458 581.93 36.9844C581.758 36.8177 581.672 36.5469 581.672 36.1719ZM585.82 36.1719C585.82 35.8229 585.898 35.5599 586.055 35.3828C586.216 35.2005 586.445 35.1094 586.742 35.1094C587.044 35.1094 587.279 35.2005 587.445 35.3828C587.617 35.5599 587.703 35.8229 587.703 36.1719C587.703 36.5104 587.617 36.7708 587.445 36.9531C587.273 37.1354 587.039 37.2266 586.742 37.2266C586.477 37.2266 586.255 37.1458 586.078 36.9844C585.906 36.8177 585.82 36.5469 585.82 36.1719Z" fill="white"/>
<rect x="603" y="16" width="61" height="30" rx="8" fill="#5C6A7A"/>
<path d="M613.32 36C612.968 36 612.696 35.9093 612.504 35.728C612.323 35.536 612.232 35.264 612.232 34.912V25.808C612.232 25.456 612.323 25.1893 612.504 25.008C612.696 24.816 612.968 24.72 613.32 24.72H617.16C617.949 24.72 618.621 24.8373 619.176 25.072C619.731 25.3067 620.152 25.6427 620.44 26.08C620.739 26.5173 620.888 27.04 620.888 27.648C620.888 28.3307 620.691 28.9067 620.296 29.376C619.901 29.8453 619.363 30.16 618.68 30.32V30.08C619.469 30.1973 620.083 30.496 620.52 30.976C620.957 31.456 621.176 32.08 621.176 32.848C621.176 33.8507 620.835 34.6293 620.152 35.184C619.48 35.728 618.541 36 617.336 36H613.32ZM614.2 34.448H617.08C617.805 34.448 618.339 34.3093 618.68 34.032C619.021 33.744 619.192 33.3173 619.192 32.752C619.192 32.176 619.021 31.7493 618.68 31.472C618.339 31.1947 617.805 31.056 617.08 31.056H614.2V34.448ZM614.2 29.504H616.808C617.512 29.504 618.035 29.3707 618.376 29.104C618.728 28.8267 618.904 28.4213 618.904 27.888C618.904 27.3547 618.728 26.9547 618.376 26.688C618.035 26.4107 617.512 26.272 616.808 26.272H614.2V29.504ZM626.624 36.16C625.813 36.16 625.109 35.9947 624.512 35.664C623.914 35.3333 623.45 34.864 623.12 34.256C622.789 33.6373 622.624 32.912 622.624 32.08C622.624 31.4507 622.714 30.8907 622.896 30.4C623.088 29.8987 623.36 29.472 623.712 29.12C624.064 28.7573 624.485 28.4853 624.976 28.304C625.466 28.112 626.016 28.016 626.624 28.016C627.434 28.016 628.138 28.1813 628.736 28.512C629.333 28.8427 629.797 29.312 630.128 29.92C630.458 30.528 630.624 31.248 630.624 32.08C630.624 32.7093 630.528 33.2747 630.336 33.776C630.154 34.2773 629.888 34.7093 629.536 35.072C629.184 35.424 628.762 35.696 628.272 35.888C627.781 36.0693 627.232 36.16 626.624 36.16ZM626.624 34.64C627.018 34.64 627.365 34.544 627.664 34.352C627.962 34.16 628.192 33.8773 628.352 33.504C628.522 33.12 628.608 32.6453 628.608 32.08C628.608 31.2267 628.426 30.592 628.064 30.176C627.701 29.7493 627.221 29.536 626.624 29.536C626.229 29.536 625.882 29.632 625.584 29.824C625.285 30.0053 625.05 30.288 624.88 30.672C624.72 31.0453 624.64 31.5147 624.64 32.08C624.64 32.9227 624.821 33.5627 625.184 34C625.546 34.4267 626.026 34.64 626.624 34.64ZM635.78 36.16C635.087 36.16 634.506 36.0427 634.036 35.808C633.578 35.5733 633.236 35.232 633.012 34.784C632.788 34.3253 632.676 33.76 632.676 33.088V29.68H631.844C631.588 29.68 631.391 29.616 631.252 29.488C631.114 29.3493 631.044 29.1627 631.044 28.928C631.044 28.6827 631.114 28.496 631.252 28.368C631.391 28.24 631.588 28.176 631.844 28.176H632.676V26.72C632.676 26.3893 632.762 26.1387 632.932 25.968C633.114 25.7973 633.364 25.712 633.684 25.712C634.004 25.712 634.25 25.7973 634.42 25.968C634.591 26.1387 634.676 26.3893 634.676 26.72V28.176H636.372C636.628 28.176 636.826 28.24 636.964 28.368C637.103 28.496 637.172 28.6827 637.172 28.928C637.172 29.1627 637.103 29.3493 636.964 29.488C636.826 29.616 636.628 29.68 636.372 29.68H634.676V32.976C634.676 33.488 634.788 33.872 635.012 34.128C635.236 34.384 635.599 34.512 636.1 34.512C636.282 34.512 636.442 34.496 636.58 34.464C636.719 34.432 636.842 34.4107 636.948 34.4C637.076 34.3893 637.183 34.432 637.268 34.528C637.354 34.6133 637.396 34.7947 637.396 35.072C637.396 35.2853 637.359 35.4773 637.284 35.648C637.22 35.808 637.098 35.92 636.916 35.984C636.778 36.0267 636.596 36.064 636.372 36.096C636.148 36.1387 635.951 36.16 635.78 36.16ZM641.827 36.16C641.016 36.16 640.312 35.9947 639.715 35.664C639.117 35.3333 638.653 34.864 638.323 34.256C637.992 33.6373 637.827 32.912 637.827 32.08C637.827 31.4507 637.917 30.8907 638.099 30.4C638.291 29.8987 638.563 29.472 638.915 29.12C639.267 28.7573 639.688 28.4853 640.179 28.304C640.669 28.112 641.219 28.016 641.827 28.016C642.637 28.016 643.341 28.1813 643.939 28.512C644.536 28.8427 645 29.312 645.331 29.92C645.661 30.528 645.827 31.248 645.827 32.08C645.827 32.7093 645.731 33.2747 645.539 33.776C645.357 34.2773 645.091 34.7093 644.739 35.072C644.387 35.424 643.965 35.696 643.475 35.888C642.984 36.0693 642.435 36.16 641.827 36.16ZM641.827 34.64C642.221 34.64 642.568 34.544 642.867 34.352C643.165 34.16 643.395 33.8773 643.555 33.504C643.725 33.12 643.811 32.6453 643.811 32.08C643.811 31.2267 643.629 30.592 643.267 30.176C642.904 29.7493 642.424 29.536 641.827 29.536C641.432 29.536 641.085 29.632 640.787 29.824C640.488 30.0053 640.253 30.288 640.083 30.672C639.923 31.0453 639.843 31.5147 639.843 32.08C639.843 32.9227 640.024 33.5627 640.387 34C640.749 34.4267 641.229 34.64 641.827 34.64ZM642.579 27.04C642.472 27.1893 642.344 27.2747 642.195 27.296C642.045 27.3173 641.901 27.2907 641.763 27.216C641.624 27.1413 641.523 27.0347 641.459 26.896C641.405 26.7573 641.421 26.6027 641.507 26.432L642.723 24.048C642.819 23.8453 642.947 23.7173 643.107 23.664C643.267 23.6 643.432 23.5893 643.603 23.632C643.773 23.6747 643.917 23.7547 644.035 23.872C644.163 23.9893 644.237 24.1333 644.259 24.304C644.291 24.464 644.248 24.6293 644.131 24.8L642.579 27.04ZM648.47 36.128C648.15 36.128 647.904 36.0427 647.734 35.872C647.563 35.6907 647.478 35.4347 647.478 35.104V29.056C647.478 28.7253 647.563 28.4747 647.734 28.304C647.904 28.1333 648.144 28.048 648.454 28.048C648.763 28.048 649.003 28.1333 649.174 28.304C649.344 28.4747 649.43 28.7253 649.43 29.056V30.144L649.254 29.744C649.488 29.1787 649.851 28.752 650.342 28.464C650.843 28.1653 651.408 28.016 652.038 28.016C652.667 28.016 653.184 28.1333 653.59 28.368C653.995 28.6027 654.299 28.96 654.502 29.44C654.704 29.9093 654.806 30.5067 654.806 31.232V35.104C654.806 35.4347 654.72 35.6907 654.55 35.872C654.379 36.0427 654.134 36.128 653.814 36.128C653.494 36.128 653.243 36.0427 653.062 35.872C652.891 35.6907 652.806 35.4347 652.806 35.104V31.328C652.806 30.72 652.688 30.2773 652.454 30C652.23 29.7227 651.878 29.584 651.398 29.584C650.811 29.584 650.342 29.7707 649.99 30.144C649.648 30.5067 649.478 30.992 649.478 31.6V35.104C649.478 35.7867 649.142 36.128 648.47 36.128Z" fill="white"/>
</svg>
