<svg width="328" height="80" viewBox="0 0 328 80" fill="none" xmlns="http://www.w3.org/2000/svg">
<rect width="328" height="80" fill="#E6EBF0"/>
<path d="M46.2381 34H39.8709V22.5781H46.2381V23.7578H41.1991V27.4375H45.9334V28.6094H41.1991V32.8125H46.2381V34ZM53.9453 31.6641C53.9453 32.4609 53.6484 33.0755 53.0547 33.5078C52.4609 33.9401 51.6276 34.1562 50.5547 34.1562C49.4193 34.1562 48.5339 33.9766 47.8984 33.6172V32.4141C48.3099 32.6224 48.75 32.7865 49.2188 32.9062C49.6927 33.026 50.1484 33.0859 50.5859 33.0859C51.263 33.0859 51.7839 32.9792 52.1484 32.7656C52.513 32.5469 52.6953 32.2161 52.6953 31.7734C52.6953 31.4401 52.5495 31.1562 52.2578 30.9219C51.9714 30.6823 51.4089 30.401 50.5703 30.0781C49.7734 29.7812 49.2057 29.5234 48.8672 29.3047C48.5339 29.0807 48.2839 28.8281 48.1172 28.5469C47.9557 28.2656 47.875 27.9297 47.875 27.5391C47.875 26.8411 48.1589 26.2917 48.7266 25.8906C49.2943 25.4844 50.0729 25.2812 51.0625 25.2812C51.9844 25.2812 52.8854 25.4688 53.7656 25.8438L53.3047 26.8984C52.4453 26.5443 51.6667 26.3672 50.9688 26.3672C50.3542 26.3672 49.8906 26.4635 49.5781 26.6562C49.2656 26.849 49.1094 27.1146 49.1094 27.4531C49.1094 27.6823 49.1667 27.8776 49.2813 28.0391C49.401 28.2005 49.5911 28.3542 49.8516 28.5C50.112 28.6458 50.612 28.8568 51.3516 29.1328C52.3672 29.5026 53.0521 29.875 53.4063 30.25C53.7656 30.625 53.9453 31.0964 53.9453 31.6641ZM58.6681 33.0859C58.8973 33.0859 59.1186 33.0703 59.3322 33.0391C59.5457 33.0026 59.715 32.9661 59.84 32.9297V33.9219C59.6994 33.9896 59.491 34.0443 59.215 34.0859C58.9442 34.1328 58.6994 34.1562 58.4806 34.1562C56.8244 34.1562 55.9963 33.2839 55.9963 31.5391V26.4453H54.7697V25.8203L55.9963 25.2812L56.5431 23.4531H57.2931V25.4375H59.7775V26.4453H57.2931V31.4844C57.2931 32 57.4155 32.3958 57.6603 32.6719C57.9051 32.9479 58.241 33.0859 58.6681 33.0859ZM66.6644 34L66.4066 32.7812H66.3441C65.917 33.3177 65.4899 33.6823 65.0628 33.875C64.6409 34.0625 64.1123 34.1562 63.4769 34.1562C62.6279 34.1562 61.9613 33.9375 61.4769 33.5C60.9977 33.0625 60.7581 32.4401 60.7581 31.6328C60.7581 29.9036 62.1409 28.9974 64.9066 28.9141L66.3597 28.8672V28.3359C66.3597 27.6641 66.2139 27.1693 65.9222 26.8516C65.6357 26.5286 65.1748 26.3672 64.5394 26.3672C63.8258 26.3672 63.0185 26.5859 62.1175 27.0234L61.7191 26.0312C62.1409 25.8021 62.6019 25.6224 63.1019 25.4922C63.6071 25.362 64.1123 25.2969 64.6175 25.2969C65.6383 25.2969 66.3935 25.5234 66.8831 25.9766C67.3779 26.4297 67.6253 27.1562 67.6253 28.1562V34H66.6644ZM63.7347 33.0859C64.542 33.0859 65.1748 32.8646 65.6331 32.4219C66.0967 31.9792 66.3284 31.3594 66.3284 30.5625V29.7891L65.0316 29.8438C64.0003 29.8802 63.2555 30.0417 62.7972 30.3281C62.3441 30.6094 62.1175 31.0495 62.1175 31.6484C62.1175 32.1172 62.2581 32.474 62.5394 32.7188C62.8258 32.9635 63.2243 33.0859 63.7347 33.0859ZM79.9694 32.8516H79.8991C79.3001 33.7214 78.4043 34.1562 77.2116 34.1562C76.0918 34.1562 75.2194 33.7734 74.5944 33.0078C73.9746 32.2422 73.6647 31.1536 73.6647 29.7422C73.6647 28.3307 73.9772 27.2344 74.6022 26.4531C75.2272 25.6719 76.097 25.2812 77.2116 25.2812C78.373 25.2812 79.2637 25.7031 79.8834 26.5469H79.985L79.9303 25.9297L79.8991 25.3281V21.8438H81.1959V34H80.1413L79.9694 32.8516ZM77.3756 33.0703C78.261 33.0703 78.9017 32.8307 79.2975 32.3516C79.6985 31.8672 79.8991 31.0885 79.8991 30.0156V29.7422C79.8991 28.5286 79.6959 27.6641 79.2897 27.1484C78.8887 26.6276 78.2454 26.3672 77.36 26.3672C76.5996 26.3672 76.0163 26.6641 75.61 27.2578C75.209 27.8464 75.0084 28.6797 75.0084 29.7578C75.0084 30.8516 75.209 31.6771 75.61 32.2344C76.011 32.7917 76.5996 33.0703 77.3756 33.0703ZM87.4109 34.1562C86.1453 34.1562 85.1453 33.7708 84.4109 33C83.6818 32.2292 83.3172 31.1589 83.3172 29.7891C83.3172 28.4089 83.6557 27.3125 84.3328 26.5C85.0151 25.6875 85.9292 25.2812 87.075 25.2812C88.1479 25.2812 88.9969 25.6354 89.6219 26.3438C90.2469 27.0469 90.5594 27.9766 90.5594 29.1328V29.9531H84.6609C84.687 30.9583 84.9396 31.7214 85.4188 32.2422C85.9031 32.763 86.5828 33.0234 87.4578 33.0234C88.3797 33.0234 89.2912 32.8307 90.1922 32.4453V33.6016C89.7339 33.7995 89.299 33.9401 88.8875 34.0234C88.4813 34.112 87.9891 34.1562 87.4109 34.1562ZM87.0594 26.3672C86.3719 26.3672 85.8224 26.5911 85.4109 27.0391C85.0047 27.487 84.7651 28.1068 84.6922 28.8984H89.1688C89.1688 28.0807 88.9865 27.4557 88.6219 27.0234C88.2573 26.5859 87.7365 26.3672 87.0594 26.3672ZM98.1416 31.6641C98.1416 32.4609 97.8447 33.0755 97.2509 33.5078C96.6572 33.9401 95.8239 34.1562 94.7509 34.1562C93.6155 34.1562 92.7301 33.9766 92.0947 33.6172V32.4141C92.5062 32.6224 92.9463 32.7865 93.415 32.9062C93.889 33.026 94.3447 33.0859 94.7822 33.0859C95.4593 33.0859 95.9801 32.9792 96.3447 32.7656C96.7093 32.5469 96.8916 32.2161 96.8916 31.7734C96.8916 31.4401 96.7457 31.1562 96.4541 30.9219C96.1676 30.6823 95.6051 30.401 94.7666 30.0781C93.9697 29.7812 93.402 29.5234 93.0634 29.3047C92.7301 29.0807 92.4801 28.8281 92.3134 28.5469C92.152 28.2656 92.0713 27.9297 92.0713 27.5391C92.0713 26.8411 92.3551 26.2917 92.9228 25.8906C93.4905 25.4844 94.2692 25.2812 95.2588 25.2812C96.1806 25.2812 97.0817 25.4688 97.9619 25.8438L97.5009 26.8984C96.6416 26.5443 95.8629 26.3672 95.165 26.3672C94.5504 26.3672 94.0869 26.4635 93.7744 26.6562C93.4619 26.849 93.3056 27.1146 93.3056 27.4531C93.3056 27.6823 93.3629 27.8776 93.4775 28.0391C93.5973 28.2005 93.7874 28.3542 94.0478 28.5C94.3082 28.6458 94.8082 28.8568 95.5478 29.1328C96.5634 29.5026 97.2483 29.875 97.6025 30.25C97.9619 30.625 98.1416 31.0964 98.1416 31.6641ZM103.521 34.1562C102.281 34.1562 101.32 33.776 100.638 33.0156C99.9607 32.25 99.6222 31.1693 99.6222 29.7734C99.6222 28.3411 99.9659 27.2344 100.653 26.4531C101.346 25.6719 102.331 25.2812 103.607 25.2812C104.018 25.2812 104.429 25.3255 104.841 25.4141C105.252 25.5026 105.575 25.6068 105.81 25.7266L105.411 26.8281C105.125 26.7135 104.812 26.6198 104.474 26.5469C104.135 26.4688 103.836 26.4297 103.575 26.4297C101.836 26.4297 100.966 27.5391 100.966 29.7578C100.966 30.8099 101.177 31.6172 101.599 32.1797C102.026 32.7422 102.656 33.0234 103.489 33.0234C104.203 33.0234 104.935 32.8698 105.685 32.5625V33.7109C105.112 34.0078 104.39 34.1562 103.521 34.1562ZM111.47 25.2812C111.85 25.2812 112.191 25.3125 112.493 25.375L112.314 26.5781C111.96 26.5 111.647 26.4609 111.376 26.4609C110.684 26.4609 110.09 26.7422 109.595 27.3047C109.105 27.8672 108.861 28.5677 108.861 29.4062V34H107.564V25.4375H108.634L108.783 27.0234H108.845C109.163 26.4661 109.546 26.0365 109.993 25.7344C110.441 25.4323 110.934 25.2812 111.47 25.2812ZM115.232 34H113.935V25.4375H115.232V34ZM113.826 23.1172C113.826 22.8203 113.899 22.6042 114.044 22.4688C114.19 22.3281 114.373 22.2578 114.591 22.2578C114.8 22.2578 114.979 22.3281 115.13 22.4688C115.281 22.6094 115.357 22.8255 115.357 23.1172C115.357 23.4089 115.281 23.6276 115.13 23.7734C114.979 23.9141 114.8 23.9844 114.591 23.9844C114.373 23.9844 114.19 23.9141 114.044 23.7734C113.899 23.6276 113.826 23.4089 113.826 23.1172ZM121.806 34.1562C121.249 34.1562 120.739 34.0547 120.275 33.8516C119.817 33.6432 119.431 33.3255 119.119 32.8984H119.025C119.088 33.3984 119.119 33.8724 119.119 34.3203V37.8438H117.822V25.4375H118.877L119.056 26.6094H119.119C119.452 26.1406 119.84 25.8021 120.283 25.5938C120.726 25.3854 121.233 25.2812 121.806 25.2812C122.942 25.2812 123.817 25.6693 124.431 26.4453C125.051 27.2214 125.361 28.3099 125.361 29.7109C125.361 31.1172 125.046 32.2109 124.416 32.9922C123.791 33.7682 122.921 34.1562 121.806 34.1562ZM121.619 26.3828C120.744 26.3828 120.111 26.625 119.72 27.1094C119.33 27.5938 119.129 28.3646 119.119 29.4219V29.7109C119.119 30.9141 119.319 31.776 119.72 32.2969C120.121 32.8125 120.765 33.0703 121.65 33.0703C122.39 33.0703 122.968 32.7708 123.384 32.1719C123.806 31.5729 124.017 30.7474 124.017 29.6953C124.017 28.6276 123.806 27.8099 123.384 27.2422C122.968 26.6693 122.379 26.3828 121.619 26.3828ZM130.896 34.1562C129.657 34.1562 128.696 33.776 128.013 33.0156C127.336 32.25 126.998 31.1693 126.998 29.7734C126.998 28.3411 127.342 27.2344 128.029 26.4531C128.722 25.6719 129.706 25.2812 130.982 25.2812C131.394 25.2812 131.805 25.3255 132.217 25.4141C132.628 25.5026 132.951 25.6068 133.185 25.7266L132.787 26.8281C132.5 26.7135 132.188 26.6198 131.849 26.5469C131.511 26.4688 131.211 26.4297 130.951 26.4297C129.211 26.4297 128.342 27.5391 128.342 29.7578C128.342 30.8099 128.553 31.6172 128.974 32.1797C129.401 32.7422 130.032 33.0234 130.865 33.0234C131.579 33.0234 132.31 32.8698 133.06 32.5625V33.7109C132.487 34.0078 131.766 34.1562 130.896 34.1562ZM136.236 34H134.939V25.4375H136.236V34ZM134.83 23.1172C134.83 22.8203 134.903 22.6042 135.049 22.4688C135.195 22.3281 135.377 22.2578 135.596 22.2578C135.804 22.2578 135.984 22.3281 136.135 22.4688C136.286 22.6094 136.361 22.8255 136.361 23.1172C136.361 23.4089 136.286 23.6276 136.135 23.7734C135.984 23.9141 135.804 23.9844 135.596 23.9844C135.377 23.9844 135.195 23.9141 135.049 23.7734C134.903 23.6276 134.83 23.4089 134.83 23.1172ZM146.217 29.7109C146.217 31.1068 145.865 32.1979 145.162 32.9844C144.459 33.7656 143.488 34.1562 142.248 34.1562C141.483 34.1562 140.803 33.9766 140.209 33.6172C139.615 33.2578 139.157 32.7422 138.834 32.0703C138.511 31.3984 138.35 30.612 138.35 29.7109C138.35 28.3151 138.699 27.2292 139.397 26.4531C140.094 25.6719 141.063 25.2812 142.303 25.2812C143.501 25.2812 144.451 25.6797 145.154 26.4766C145.863 27.2734 146.217 28.3516 146.217 29.7109ZM139.693 29.7109C139.693 30.8047 139.912 31.638 140.35 32.2109C140.787 32.7839 141.43 33.0703 142.279 33.0703C143.128 33.0703 143.772 32.7865 144.209 32.2188C144.652 31.6458 144.873 30.8099 144.873 29.7109C144.873 28.6224 144.652 27.7969 144.209 27.2344C143.772 26.6667 143.123 26.3828 142.264 26.3828C141.415 26.3828 140.774 26.6615 140.342 27.2188C139.91 27.776 139.693 28.6068 139.693 29.7109ZM141.193 24.1094C141.443 23.7865 141.712 23.3958 141.998 22.9375C142.29 22.4792 142.519 22.0807 142.686 21.7422H144.264V21.9062C144.035 22.2448 143.693 22.6615 143.24 23.1562C142.787 23.651 142.394 24.0339 142.061 24.3047H141.193V24.1094ZM154.198 34V28.4609C154.198 27.763 154.039 27.2422 153.721 26.8984C153.403 26.5547 152.906 26.3828 152.229 26.3828C151.333 26.3828 150.677 26.625 150.26 27.1094C149.843 27.5938 149.635 28.3932 149.635 29.5078V34H148.338V25.4375H149.393L149.604 26.6094H149.666C149.932 26.1875 150.304 25.862 150.783 25.6328C151.263 25.3984 151.796 25.2812 152.385 25.2812C153.416 25.2812 154.192 25.5312 154.713 26.0312C155.234 26.526 155.494 27.3203 155.494 28.4141V34H154.198ZM167.831 32.8516H167.76C167.161 33.7214 166.266 34.1562 165.073 34.1562C163.953 34.1562 163.081 33.7734 162.456 33.0078C161.836 32.2422 161.526 31.1536 161.526 29.7422C161.526 28.3307 161.838 27.2344 162.463 26.4531C163.088 25.6719 163.958 25.2812 165.073 25.2812C166.234 25.2812 167.125 25.7031 167.745 26.5469H167.846L167.792 25.9297L167.76 25.3281V21.8438H169.057V34H168.003L167.831 32.8516ZM165.237 33.0703C166.122 33.0703 166.763 32.8307 167.159 32.3516C167.56 31.8672 167.76 31.0885 167.76 30.0156V29.7422C167.76 28.5286 167.557 27.6641 167.151 27.1484C166.75 26.6276 166.107 26.3672 165.221 26.3672C164.461 26.3672 163.878 26.6641 163.471 27.2578C163.07 27.8464 162.87 28.6797 162.87 29.7578C162.87 30.8516 163.07 31.6771 163.471 32.2344C163.872 32.7917 164.461 33.0703 165.237 33.0703ZM175.272 34.1562C174.007 34.1562 173.007 33.7708 172.272 33C171.543 32.2292 171.178 31.1589 171.178 29.7891C171.178 28.4089 171.517 27.3125 172.194 26.5C172.876 25.6875 173.79 25.2812 174.936 25.2812C176.009 25.2812 176.858 25.6354 177.483 26.3438C178.108 27.0469 178.421 27.9766 178.421 29.1328V29.9531H172.522C172.548 30.9583 172.801 31.7214 173.28 32.2422C173.764 32.763 174.444 33.0234 175.319 33.0234C176.241 33.0234 177.152 32.8307 178.053 32.4453V33.6016C177.595 33.7995 177.16 33.9401 176.749 34.0234C176.342 34.112 175.85 34.1562 175.272 34.1562ZM174.921 26.3672C174.233 26.3672 173.684 26.5911 173.272 27.0391C172.866 27.487 172.626 28.1068 172.553 28.8984H177.03C177.03 28.0807 176.848 27.4557 176.483 27.0234C176.119 26.5859 175.598 26.3672 174.921 26.3672ZM188.46 25.2969C189.585 25.2969 190.457 25.6823 191.077 26.4531C191.702 27.2188 192.015 28.3047 192.015 29.7109C192.015 31.1172 191.7 32.2109 191.069 32.9922C190.444 33.7682 189.575 34.1562 188.46 34.1562C187.903 34.1562 187.392 34.0547 186.929 33.8516C186.47 33.6432 186.085 33.3255 185.773 32.8984H185.679L185.405 34H184.476V21.8438H185.773V24.7969C185.773 25.4583 185.752 26.0521 185.71 26.5781H185.773C186.377 25.724 187.273 25.2969 188.46 25.2969ZM188.273 26.3828C187.387 26.3828 186.749 26.638 186.358 27.1484C185.968 27.6536 185.773 28.5078 185.773 29.7109C185.773 30.9141 185.973 31.776 186.374 32.2969C186.775 32.8125 187.418 33.0703 188.304 33.0703C189.101 33.0703 189.694 32.7812 190.085 32.2031C190.476 31.6198 190.671 30.7839 190.671 29.6953C190.671 28.5807 190.476 27.75 190.085 27.2031C189.694 26.6562 189.09 26.3828 188.273 26.3828ZM199.394 34L199.136 32.7812H199.073C198.646 33.3177 198.219 33.6823 197.792 33.875C197.37 34.0625 196.842 34.1562 196.206 34.1562C195.357 34.1562 194.691 33.9375 194.206 33.5C193.727 33.0625 193.488 32.4401 193.488 31.6328C193.488 29.9036 194.87 28.9974 197.636 28.9141L199.089 28.8672V28.3359C199.089 27.6641 198.943 27.1693 198.652 26.8516C198.365 26.5286 197.904 26.3672 197.269 26.3672C196.555 26.3672 195.748 26.5859 194.847 27.0234L194.448 26.0312C194.87 25.8021 195.331 25.6224 195.831 25.4922C196.336 25.362 196.842 25.2969 197.347 25.2969C198.368 25.2969 199.123 25.5234 199.613 25.9766C200.107 26.4297 200.355 27.1562 200.355 28.1562V34H199.394ZM196.464 33.0859C197.271 33.0859 197.904 32.8646 198.363 32.4219C198.826 31.9792 199.058 31.3594 199.058 30.5625V29.7891L197.761 29.8438C196.73 29.8802 195.985 30.0417 195.527 30.3281C195.073 30.6094 194.847 31.0495 194.847 31.6484C194.847 32.1172 194.988 32.474 195.269 32.7188C195.555 32.9635 195.954 33.0859 196.464 33.0859ZM208.734 34V28.4609C208.734 27.763 208.575 27.2422 208.257 26.8984C207.939 26.5547 207.442 26.3828 206.765 26.3828C205.869 26.3828 205.213 26.625 204.796 27.1094C204.38 27.5938 204.171 28.3932 204.171 29.5078V34H202.874V25.4375H203.929L204.14 26.6094H204.202C204.468 26.1875 204.841 25.862 205.32 25.6328C205.799 25.3984 206.333 25.2812 206.921 25.2812C207.952 25.2812 208.729 25.5312 209.249 26.0312C209.77 26.526 210.031 27.3203 210.031 28.4141V34H208.734ZM218.402 34V28.4609C218.402 27.763 218.243 27.2422 217.925 26.8984C217.608 26.5547 217.11 26.3828 216.433 26.3828C215.537 26.3828 214.881 26.625 214.464 27.1094C214.048 27.5938 213.839 28.3932 213.839 29.5078V34H212.543V25.4375H213.597L213.808 26.6094H213.871C214.136 26.1875 214.509 25.862 214.988 25.6328C215.467 25.3984 216.001 25.2812 216.589 25.2812C217.621 25.2812 218.397 25.5312 218.918 26.0312C219.438 26.526 219.699 27.3203 219.699 28.4141V34H218.402ZM225.828 34.1562C224.562 34.1562 223.562 33.7708 222.828 33C222.099 32.2292 221.734 31.1589 221.734 29.7891C221.734 28.4089 222.073 27.3125 222.75 26.5C223.432 25.6875 224.346 25.2812 225.492 25.2812C226.565 25.2812 227.414 25.6354 228.039 26.3438C228.664 27.0469 228.976 27.9766 228.976 29.1328V29.9531H223.078C223.104 30.9583 223.356 31.7214 223.836 32.2422C224.32 32.763 225 33.0234 225.875 33.0234C226.797 33.0234 227.708 32.8307 228.609 32.4453V33.6016C228.151 33.7995 227.716 33.9401 227.304 34.0234C226.898 34.112 226.406 34.1562 225.828 34.1562ZM225.476 26.3672C224.789 26.3672 224.239 26.5911 223.828 27.0391C223.422 27.487 223.182 28.1068 223.109 28.8984H227.586C227.586 28.0807 227.403 27.4557 227.039 27.0234C226.674 26.5859 226.153 26.3672 225.476 26.3672ZM234.941 25.2812C235.321 25.2812 235.663 25.3125 235.965 25.375L235.785 26.5781C235.431 26.5 235.118 26.4609 234.848 26.4609C234.155 26.4609 233.561 26.7422 233.066 27.3047C232.577 27.8672 232.332 28.5677 232.332 29.4062V34H231.035V25.4375H232.105L232.254 27.0234H232.316C232.634 26.4661 233.017 26.0365 233.465 25.7344C233.913 25.4323 234.405 25.2812 234.941 25.2812ZM246.074 34.1562C245.048 34.1562 244.244 33.7839 243.66 33.0391H243.535C243.619 33.7682 243.66 34.1901 243.66 34.3047V37.8438H241.277V25.2656H243.215L243.551 26.3984H243.66C244.218 25.5339 245.043 25.1016 246.137 25.1016C247.168 25.1016 247.975 25.5 248.559 26.2969C249.142 27.0938 249.434 28.2005 249.434 29.6172C249.434 30.5495 249.296 31.3594 249.02 32.0469C248.749 32.7344 248.361 33.2578 247.856 33.6172C247.35 33.9766 246.757 34.1562 246.074 34.1562ZM245.371 27.0078C244.783 27.0078 244.353 27.1901 244.082 27.5547C243.811 27.9141 243.671 28.5104 243.66 29.3438V29.6016C243.66 30.5391 243.798 31.2109 244.074 31.6172C244.356 32.0234 244.798 32.2266 245.402 32.2266C246.47 32.2266 247.004 31.3464 247.004 29.5859C247.004 28.7266 246.871 28.0833 246.606 27.6562C246.345 27.224 245.934 27.0078 245.371 27.0078ZM257.59 34L257.27 32.8828H257.145C256.889 33.2891 256.527 33.6042 256.059 33.8281C255.59 34.0469 255.056 34.1562 254.457 34.1562C253.431 34.1562 252.658 33.8828 252.137 33.3359C251.616 32.7839 251.356 31.9922 251.356 30.9609V25.2656H253.738V30.3672C253.738 30.9974 253.85 31.4714 254.074 31.7891C254.298 32.1016 254.655 32.2578 255.145 32.2578C255.811 32.2578 256.293 32.0365 256.59 31.5938C256.887 31.1458 257.035 30.4062 257.035 29.375V25.2656H259.418V34H257.59ZM265.535 26.7969C265.03 26.7969 264.634 26.9583 264.348 27.2812C264.061 27.599 263.897 28.0521 263.856 28.6406H267.199C267.189 28.0521 267.035 27.599 266.738 27.2812C266.442 26.9583 266.041 26.7969 265.535 26.7969ZM265.871 34.1562C264.465 34.1562 263.366 33.7682 262.574 32.9922C261.783 32.2161 261.387 31.1172 261.387 29.6953C261.387 28.2318 261.751 27.1016 262.481 26.3047C263.215 25.5026 264.228 25.1016 265.52 25.1016C266.754 25.1016 267.715 25.4531 268.402 26.1562C269.09 26.8594 269.434 27.8307 269.434 29.0703V30.2266H263.801C263.827 30.9036 264.027 31.4323 264.402 31.8125C264.777 32.1927 265.304 32.3828 265.981 32.3828C266.507 32.3828 267.004 32.3281 267.473 32.2188C267.942 32.1094 268.431 31.9349 268.942 31.6953V33.5391C268.525 33.7474 268.08 33.901 267.606 34C267.132 34.1042 266.554 34.1562 265.871 34.1562ZM274.137 34.1562C273.111 34.1562 272.304 33.7578 271.715 32.9609C271.132 32.1641 270.84 31.0599 270.84 29.6484C270.84 28.2161 271.137 27.1016 271.731 26.3047C272.33 25.5026 273.152 25.1016 274.199 25.1016C275.298 25.1016 276.137 25.5286 276.715 26.3828H276.793C276.673 25.7318 276.613 25.151 276.613 24.6406V21.8438H279.004V34H277.176L276.715 32.8672H276.613C276.072 33.7266 275.246 34.1562 274.137 34.1562ZM274.973 32.2578C275.582 32.2578 276.027 32.0807 276.309 31.7266C276.595 31.3724 276.751 30.7708 276.777 29.9219V29.6641C276.777 28.7266 276.632 28.0547 276.34 27.6484C276.054 27.2422 275.585 27.0391 274.934 27.0391C274.402 27.0391 273.988 27.2656 273.692 27.7188C273.4 28.1667 273.254 28.8203 273.254 29.6797C273.254 30.5391 273.402 31.1849 273.699 31.6172C273.996 32.0443 274.421 32.2578 274.973 32.2578ZM285.113 26.7969C284.608 26.7969 284.212 26.9583 283.926 27.2812C283.639 27.599 283.475 28.0521 283.434 28.6406H286.777C286.767 28.0521 286.613 27.599 286.317 27.2812C286.02 26.9583 285.619 26.7969 285.113 26.7969ZM285.449 34.1562C284.043 34.1562 282.944 33.7682 282.152 32.9922C281.361 32.2161 280.965 31.1172 280.965 29.6953C280.965 28.2318 281.33 27.1016 282.059 26.3047C282.793 25.5026 283.806 25.1016 285.098 25.1016C286.332 25.1016 287.293 25.4531 287.981 26.1562C288.668 26.8594 289.012 27.8307 289.012 29.0703V30.2266H283.379C283.405 30.9036 283.606 31.4323 283.981 31.8125C284.356 32.1927 284.882 32.3828 285.559 32.3828C286.085 32.3828 286.582 32.3281 287.051 32.2188C287.52 32.1094 288.009 31.9349 288.52 31.6953V33.5391C288.103 33.7474 287.658 33.901 287.184 34C286.71 34.1042 286.132 34.1562 285.449 34.1562ZM82.2831 56.2578C82.6998 56.2578 83.1998 56.1667 83.7831 55.9844V57.7578C83.1894 58.0234 82.4602 58.1562 81.5956 58.1562C80.6425 58.1562 79.9472 57.9167 79.5097 57.4375C79.0774 56.9531 78.8613 56.2292 78.8613 55.2656V51.0547H77.7206V50.0469L79.0331 49.25L79.7206 47.4062H81.2441V49.2656H83.6894V51.0547H81.2441V55.2656C81.2441 55.6042 81.3378 55.8542 81.5253 56.0156C81.718 56.1771 81.9706 56.2578 82.2831 56.2578ZM89.1738 50.7969C88.6685 50.7969 88.2727 50.9583 87.9863 51.2812C87.6998 51.599 87.5357 52.0521 87.4941 52.6406H90.8378C90.8274 52.0521 90.6738 51.599 90.3769 51.2812C90.08 50.9583 89.679 50.7969 89.1738 50.7969ZM89.5097 58.1562C88.1034 58.1562 87.0045 57.7682 86.2128 56.9922C85.4211 56.2161 85.0253 55.1172 85.0253 53.6953C85.0253 52.2318 85.3899 51.1016 86.1191 50.3047C86.8534 49.5026 87.8665 49.1016 89.1581 49.1016C90.3925 49.1016 91.3534 49.4531 92.0409 50.1562C92.7284 50.8594 93.0722 51.8307 93.0722 53.0703V54.2266H87.4394C87.4654 54.9036 87.6659 55.4323 88.0409 55.8125C88.4159 56.1927 88.942 56.3828 89.6191 56.3828C90.1451 56.3828 90.6425 56.3281 91.1113 56.2188C91.58 56.1094 92.0696 55.9349 92.58 55.6953V57.5391C92.1633 57.7474 91.718 57.901 91.2441 58C90.7701 58.1042 90.192 58.1562 89.5097 58.1562ZM103.072 58H100.689V52.8984C100.689 52.2682 100.577 51.7969 100.353 51.4844C100.129 51.1667 99.7727 51.0078 99.2831 51.0078C98.6165 51.0078 98.1347 51.2318 97.8378 51.6797C97.5409 52.1224 97.3925 52.8594 97.3925 53.8906V58H95.0097V49.2656H96.83L97.1503 50.3828H97.2831C97.5488 49.9609 97.9133 49.6432 98.3769 49.4297C98.8456 49.2109 99.3769 49.1016 99.9706 49.1016C100.986 49.1016 101.757 49.3776 102.283 49.9297C102.809 50.4766 103.072 51.2682 103.072 52.3047V58ZM109.143 50.7969C108.637 50.7969 108.241 50.9583 107.955 51.2812C107.669 51.599 107.504 52.0521 107.463 52.6406H110.807C110.796 52.0521 110.643 51.599 110.346 51.2812C110.049 50.9583 109.648 50.7969 109.143 50.7969ZM109.478 58.1562C108.072 58.1562 106.973 57.7682 106.182 56.9922C105.39 56.2161 104.994 55.1172 104.994 53.6953C104.994 52.2318 105.359 51.1016 106.088 50.3047C106.822 49.5026 107.835 49.1016 109.127 49.1016C110.361 49.1016 111.322 49.4531 112.01 50.1562C112.697 50.8594 113.041 51.8307 113.041 53.0703V54.2266H107.408C107.434 54.9036 107.635 55.4323 108.01 55.8125C108.385 56.1927 108.911 56.3828 109.588 56.3828C110.114 56.3828 110.611 56.3281 111.08 56.2188C111.549 56.1094 112.038 55.9349 112.549 55.6953V57.5391C112.132 57.7474 111.687 57.901 111.213 58C110.739 58.1042 110.161 58.1562 109.478 58.1562ZM119.853 49.1016C120.176 49.1016 120.445 49.125 120.658 49.1719L120.478 51.4062C120.286 51.3542 120.051 51.3281 119.775 51.3281C119.015 51.3281 118.421 51.5234 117.994 51.9141C117.572 52.3047 117.361 52.8516 117.361 53.5547V58H114.978V49.2656H116.783L117.135 50.7344H117.252C117.523 50.2448 117.887 49.8516 118.346 49.5547C118.809 49.2526 119.312 49.1016 119.853 49.1016ZM130.018 50.7969C129.512 50.7969 129.116 50.9583 128.83 51.2812C128.544 51.599 128.379 52.0521 128.338 52.6406H131.682C131.671 52.0521 131.518 51.599 131.221 51.2812C130.924 50.9583 130.523 50.7969 130.018 50.7969ZM130.353 58.1562C128.947 58.1562 127.848 57.7682 127.057 56.9922C126.265 56.2161 125.869 55.1172 125.869 53.6953C125.869 52.2318 126.234 51.1016 126.963 50.3047C127.697 49.5026 128.71 49.1016 130.002 49.1016C131.236 49.1016 132.197 49.4531 132.885 50.1562C133.572 50.8594 133.916 51.8307 133.916 53.0703V54.2266H128.283C128.309 54.9036 128.51 55.4323 128.885 55.8125C129.26 56.1927 129.786 56.3828 130.463 56.3828C130.989 56.3828 131.486 56.3281 131.955 56.2188C132.424 56.1094 132.913 55.9349 133.424 55.6953V57.5391C133.007 57.7474 132.562 57.901 132.088 58C131.614 58.1042 131.036 58.1562 130.353 58.1562ZM128.643 48.3047V48.0938C129.538 47.0521 130.15 46.2682 130.478 45.7422H133.15V45.9062C132.879 46.1771 132.416 46.5807 131.76 47.1172C131.109 47.6484 130.598 48.0443 130.228 48.3047H128.643ZM143.916 58H141.533V52.8984C141.533 52.2682 141.421 51.7969 141.197 51.4844C140.973 51.1667 140.616 51.0078 140.127 51.0078C139.46 51.0078 138.978 51.2318 138.682 51.6797C138.385 52.1224 138.236 52.8594 138.236 53.8906V58H135.853V49.2656H137.674L137.994 50.3828H138.127C138.393 49.9609 138.757 49.6432 139.221 49.4297C139.689 49.2109 140.221 49.1016 140.814 49.1016C141.83 49.1016 142.601 49.3776 143.127 49.9297C143.653 50.4766 143.916 51.2682 143.916 52.3047V58ZM151.197 51.0547H149.135V58H146.752V51.0547H145.439V49.9062L146.752 49.2656V48.625C146.752 47.6302 146.997 46.9036 147.486 46.4453C147.976 45.987 148.76 45.7578 149.838 45.7578C150.661 45.7578 151.393 45.8802 152.033 46.125L151.424 47.875C150.945 47.724 150.502 47.6484 150.096 47.6484C149.757 47.6484 149.512 47.75 149.361 47.9531C149.21 48.151 149.135 48.4062 149.135 48.7188V49.2656H151.197V51.0547ZM158.119 58L157.658 56.8125H157.596C157.195 57.3177 156.781 57.6693 156.353 57.8672C155.932 58.0599 155.379 58.1562 154.697 58.1562C153.859 58.1562 153.197 57.9167 152.713 57.4375C152.234 56.9583 151.994 56.276 151.994 55.3906C151.994 54.4635 152.317 53.7812 152.963 53.3438C153.614 52.901 154.593 52.6562 155.9 52.6094L157.416 52.5625V52.1797C157.416 51.2943 156.963 50.8516 156.057 50.8516C155.359 50.8516 154.538 51.0625 153.596 51.4844L152.807 49.875C153.812 49.349 154.926 49.0859 156.15 49.0859C157.322 49.0859 158.221 49.3411 158.846 49.8516C159.471 50.362 159.783 51.138 159.783 52.1797V58H158.119ZM157.416 53.9531L156.494 53.9844C155.801 54.0052 155.286 54.1302 154.947 54.3594C154.609 54.5885 154.439 54.9375 154.439 55.4062C154.439 56.0781 154.825 56.4141 155.596 56.4141C156.148 56.4141 156.588 56.2552 156.916 55.9375C157.249 55.6198 157.416 55.1979 157.416 54.6719V53.9531ZM168.338 55.4062C168.338 56.3021 168.025 56.9844 167.4 57.4531C166.781 57.9219 165.851 58.1562 164.611 58.1562C163.976 58.1562 163.434 58.112 162.986 58.0234C162.538 57.9401 162.119 57.8151 161.728 57.6484V55.6797C162.171 55.888 162.669 56.0625 163.221 56.2031C163.778 56.3438 164.268 56.4141 164.689 56.4141C165.554 56.4141 165.986 56.1641 165.986 55.6641C165.986 55.4766 165.929 55.3255 165.814 55.2109C165.7 55.0911 165.502 54.9583 165.221 54.8125C164.939 54.6615 164.564 54.487 164.096 54.2891C163.424 54.0078 162.929 53.7474 162.611 53.5078C162.299 53.2682 162.07 52.9948 161.924 52.6875C161.783 52.375 161.713 51.9922 161.713 51.5391C161.713 50.763 162.012 50.1641 162.611 49.7422C163.215 49.3151 164.07 49.1016 165.174 49.1016C166.226 49.1016 167.249 49.3307 168.244 49.7891L167.525 51.5078C167.088 51.3203 166.679 51.1667 166.299 51.0469C165.919 50.9271 165.531 50.8672 165.135 50.8672C164.432 50.8672 164.08 51.0573 164.08 51.4375C164.08 51.651 164.192 51.8359 164.416 51.9922C164.645 52.1484 165.143 52.3802 165.908 52.6875C166.59 52.9635 167.09 53.2214 167.408 53.4609C167.726 53.7005 167.96 53.9766 168.111 54.2891C168.262 54.6016 168.338 54.974 168.338 55.4062ZM170.096 47.0078C170.096 46.2318 170.528 45.8438 171.393 45.8438C172.257 45.8438 172.689 46.2318 172.689 47.0078C172.689 47.3776 172.58 47.6667 172.361 47.875C172.148 48.0781 171.825 48.1797 171.393 48.1797C170.528 48.1797 170.096 47.7891 170.096 47.0078ZM172.58 58H170.197V49.2656H172.58V58ZM181.182 55.4062C181.182 56.3021 180.869 56.9844 180.244 57.4531C179.624 57.9219 178.695 58.1562 177.455 58.1562C176.82 58.1562 176.278 58.112 175.83 58.0234C175.382 57.9401 174.963 57.8151 174.572 57.6484V55.6797C175.015 55.888 175.512 56.0625 176.064 56.2031C176.622 56.3438 177.111 56.4141 177.533 56.4141C178.398 56.4141 178.83 56.1641 178.83 55.6641C178.83 55.4766 178.773 55.3255 178.658 55.2109C178.544 55.0911 178.346 54.9583 178.064 54.8125C177.783 54.6615 177.408 54.487 176.939 54.2891C176.268 54.0078 175.773 53.7474 175.455 53.5078C175.143 53.2682 174.913 52.9948 174.768 52.6875C174.627 52.375 174.557 51.9922 174.557 51.5391C174.557 50.763 174.856 50.1641 175.455 49.7422C176.059 49.3151 176.913 49.1016 178.018 49.1016C179.07 49.1016 180.093 49.3307 181.088 49.7891L180.369 51.5078C179.932 51.3203 179.523 51.1667 179.143 51.0469C178.762 50.9271 178.374 50.8672 177.978 50.8672C177.275 50.8672 176.924 51.0573 176.924 51.4375C176.924 51.651 177.036 51.8359 177.26 51.9922C177.489 52.1484 177.986 52.3802 178.752 52.6875C179.434 52.9635 179.934 53.2214 180.252 53.4609C180.57 53.7005 180.804 53.9766 180.955 54.2891C181.106 54.6016 181.182 54.974 181.182 55.4062ZM185.803 49.4375H187.193L189.068 54.3203C189.48 55.4349 189.735 56.2396 189.834 56.7344H189.897C189.964 56.4688 190.105 56.0156 190.318 55.375C190.537 54.7292 191.246 52.75 192.443 49.4375H193.834L190.154 59.1875C189.79 60.151 189.363 60.8333 188.873 61.2344C188.389 61.6406 187.792 61.8438 187.084 61.8438C186.688 61.8438 186.298 61.7995 185.912 61.7109V60.6719C186.199 60.7344 186.519 60.7656 186.873 60.7656C187.764 60.7656 188.399 60.2656 188.779 59.2656L189.256 58.0469L185.803 49.4375ZM202.998 58.1562C201.732 58.1562 200.732 57.7708 199.998 57C199.269 56.2292 198.904 55.1589 198.904 53.7891C198.904 52.4089 199.243 51.3125 199.92 50.5C200.602 49.6875 201.516 49.2812 202.662 49.2812C203.735 49.2812 204.584 49.6354 205.209 50.3438C205.834 51.0469 206.147 51.9766 206.147 53.1328V53.9531H200.248C200.274 54.9583 200.527 55.7214 201.006 56.2422C201.49 56.763 202.17 57.0234 203.045 57.0234C203.967 57.0234 204.878 56.8307 205.779 56.4453V57.6016C205.321 57.7995 204.886 57.9401 204.475 58.0234C204.068 58.112 203.576 58.1562 202.998 58.1562ZM202.647 50.3672C201.959 50.3672 201.41 50.5911 200.998 51.0391C200.592 51.487 200.352 52.1068 200.279 52.8984H204.756C204.756 52.0807 204.574 51.4557 204.209 51.0234C203.844 50.5859 203.324 50.3672 202.647 50.3672ZM214.225 58V52.4609C214.225 51.763 214.066 51.2422 213.748 50.8984C213.43 50.5547 212.933 50.3828 212.256 50.3828C211.36 50.3828 210.704 50.625 210.287 51.1094C209.871 51.5938 209.662 52.3932 209.662 53.5078V58H208.365V49.4375H209.42L209.631 50.6094H209.693C209.959 50.1875 210.331 49.862 210.811 49.6328C211.29 49.3984 211.824 49.2812 212.412 49.2812C213.443 49.2812 214.219 49.5312 214.74 50.0312C215.261 50.526 215.522 51.3203 215.522 52.4141V58H214.225ZM219.49 58H218.193V45.8438H219.49V58ZM227.506 58L227.248 56.7812H227.186C226.759 57.3177 226.331 57.6823 225.904 57.875C225.482 58.0625 224.954 58.1562 224.318 58.1562C223.469 58.1562 222.803 57.9375 222.318 57.5C221.839 57.0625 221.6 56.4401 221.6 55.6328C221.6 53.9036 222.982 52.9974 225.748 52.9141L227.201 52.8672V52.3359C227.201 51.6641 227.055 51.1693 226.764 50.8516C226.477 50.5286 226.016 50.3672 225.381 50.3672C224.667 50.3672 223.86 50.5859 222.959 51.0234L222.561 50.0312C222.982 49.8021 223.443 49.6224 223.943 49.4922C224.449 49.362 224.954 49.2969 225.459 49.2969C226.48 49.2969 227.235 49.5234 227.725 49.9766C228.219 50.4297 228.467 51.1562 228.467 52.1562V58H227.506ZM224.576 57.0859C225.384 57.0859 226.016 56.8646 226.475 56.4219C226.938 55.9792 227.17 55.3594 227.17 54.5625V53.7891L225.873 53.8438C224.842 53.8802 224.097 54.0417 223.639 54.3281C223.186 54.6094 222.959 55.0495 222.959 55.6484C222.959 56.1172 223.1 56.474 223.381 56.7188C223.667 56.9635 224.066 57.0859 224.576 57.0859ZM234.568 58.1562C233.329 58.1562 232.368 57.776 231.686 57.0156C231.009 56.25 230.67 55.1693 230.67 53.7734C230.67 52.3411 231.014 51.2344 231.701 50.4531C232.394 49.6719 233.378 49.2812 234.654 49.2812C235.066 49.2812 235.477 49.3255 235.889 49.4141C236.3 49.5026 236.623 49.6068 236.857 49.7266L236.459 50.8281C236.173 50.7135 235.86 50.6198 235.522 50.5469C235.183 50.4688 234.884 50.4297 234.623 50.4297C232.884 50.4297 232.014 51.5391 232.014 53.7578C232.014 54.8099 232.225 55.6172 232.647 56.1797C233.074 56.7422 233.704 57.0234 234.537 57.0234C235.251 57.0234 235.982 56.8698 236.732 56.5625V57.7109C236.16 58.0078 235.438 58.1562 234.568 58.1562ZM242.389 58.1562C241.123 58.1562 240.123 57.7708 239.389 57C238.66 56.2292 238.295 55.1589 238.295 53.7891C238.295 52.4089 238.634 51.3125 239.311 50.5C239.993 49.6875 240.907 49.2812 242.053 49.2812C243.126 49.2812 243.975 49.6354 244.6 50.3438C245.225 51.0469 245.537 51.9766 245.537 53.1328V53.9531H239.639C239.665 54.9583 239.917 55.7214 240.397 56.2422C240.881 56.763 241.561 57.0234 242.436 57.0234C243.357 57.0234 244.269 56.8307 245.17 56.4453V57.6016C244.712 57.7995 244.277 57.9401 243.865 58.0234C243.459 58.112 242.967 58.1562 242.389 58.1562ZM242.037 50.3672C241.35 50.3672 240.8 50.5911 240.389 51.0391C239.982 51.487 239.743 52.1068 239.67 52.8984H244.147C244.147 52.0807 243.964 51.4557 243.6 51.0234C243.235 50.5859 242.714 50.3672 242.037 50.3672ZM247.568 57.1719C247.568 56.8229 247.647 56.5599 247.803 56.3828C247.964 56.2005 248.193 56.1094 248.49 56.1094C248.792 56.1094 249.027 56.2005 249.193 56.3828C249.365 56.5599 249.451 56.8229 249.451 57.1719C249.451 57.5104 249.365 57.7708 249.193 57.9531C249.022 58.1354 248.787 58.2266 248.49 58.2266C248.225 58.2266 248.003 58.1458 247.826 57.9844C247.654 57.8177 247.568 57.5469 247.568 57.1719Z" fill="#38485C"/>
<path d="M185.787 59.6016H250.639V60.3984H185.787V59.6016Z" fill="#38485C"/>
</svg>
