<svg width="328" height="146" viewBox="0 0 328 146" fill="none" xmlns="http://www.w3.org/2000/svg">
<rect width="328" height="146" fill="#38485C"/>
<path d="M33.3416 17.128C30.4016 16.578 27.7116 17.878 26.2216 20.048C26.2316 20.038 26.2316 20.028 26.2416 20.018C25.8416 19.998 25.4216 19.998 25.0016 19.998C20.5816 19.998 17.0016 20.498 17.0016 23.998V33.998C17.0016 34.878 17.3916 35.668 18.0016 36.218V37.498C18.0016 38.328 18.6716 38.998 19.5016 38.998C20.3316 38.998 21.0016 38.328 21.0016 37.498V36.998H29.0016V37.498C29.0016 38.318 29.6716 38.998 30.5016 38.998C31.3216 38.998 32.0016 38.328 32.0016 37.498V36.218C32.6116 35.668 33.0016 34.878 33.0016 33.998V30.918C36.7216 30.378 39.5016 26.938 38.9216 22.948C38.5016 20.048 36.2216 17.658 33.3416 17.128ZM20.5016 34.998C19.6716 34.998 19.0016 34.328 19.0016 33.498C19.0016 32.668 19.6716 31.998 20.5016 31.998C21.3316 31.998 22.0016 32.668 22.0016 33.498C22.0016 34.328 21.3316 34.998 20.5016 34.998ZM19.0016 28.998V23.998H25.0016C25.0016 25.958 25.8116 27.728 27.1116 28.998H19.0016ZM29.5016 34.998C28.6716 34.998 28.0016 34.328 28.0016 33.498C28.0016 32.668 28.6716 31.998 29.5016 31.998C30.3316 31.998 31.0016 32.668 31.0016 33.498C31.0016 34.328 30.3316 34.998 29.5016 34.998ZM32.0016 28.998C29.2416 28.998 27.0016 26.758 27.0016 23.998C27.0016 21.238 29.2416 18.998 32.0016 18.998C34.7616 18.998 37.0016 21.238 37.0016 23.998C37.0016 26.758 34.7616 28.998 32.0016 28.998ZM31.7516 19.998C31.3416 19.998 31.0016 20.338 31.0016 20.748V24.428C31.0016 24.778 31.1916 25.108 31.4916 25.288L34.0116 26.798C34.3516 26.998 34.7916 26.888 34.9916 26.558C35.2016 26.218 35.0916 25.768 34.7416 25.568L32.5016 24.248V20.748C32.5016 20.338 32.1616 19.998 31.7516 19.998Z" fill="white"/>
<path d="M59.9375 34H53.5703V22.5781H59.9375V23.7578H54.8984V27.4375H59.6328V28.6094H54.8984V32.8125H59.9375V34ZM67.6447 31.6641C67.6447 32.4609 67.3478 33.0755 66.7541 33.5078C66.1603 33.9401 65.327 34.1562 64.2541 34.1562C63.1186 34.1562 62.2332 33.9766 61.5978 33.6172V32.4141C62.0093 32.6224 62.4494 32.7865 62.9181 32.9062C63.3921 33.026 63.8478 33.0859 64.2853 33.0859C64.9624 33.0859 65.4832 32.9792 65.8478 32.7656C66.2124 32.5469 66.3947 32.2161 66.3947 31.7734C66.3947 31.4401 66.2489 31.1562 65.9572 30.9219C65.6707 30.6823 65.1082 30.401 64.2697 30.0781C63.4728 29.7812 62.9051 29.5234 62.5666 29.3047C62.2332 29.0807 61.9832 28.8281 61.8166 28.5469C61.6551 28.2656 61.5744 27.9297 61.5744 27.5391C61.5744 26.8411 61.8582 26.2917 62.4259 25.8906C62.9936 25.4844 63.7723 25.2812 64.7619 25.2812C65.6838 25.2812 66.5848 25.4688 67.465 25.8438L67.0041 26.8984C66.1447 26.5443 65.366 26.3672 64.6681 26.3672C64.0535 26.3672 63.59 26.4635 63.2775 26.6562C62.965 26.849 62.8088 27.1146 62.8088 27.4531C62.8088 27.6823 62.866 27.8776 62.9806 28.0391C63.1004 28.2005 63.2905 28.3542 63.5509 28.5C63.8114 28.6458 64.3114 28.8568 65.0509 29.1328C66.0666 29.5026 66.7515 29.875 67.1056 30.25C67.465 30.625 67.6447 31.0964 67.6447 31.6641ZM72.3675 33.0859C72.5967 33.0859 72.818 33.0703 73.0316 33.0391C73.2451 33.0026 73.4144 32.9661 73.5394 32.9297V33.9219C73.3988 33.9896 73.1904 34.0443 72.9144 34.0859C72.6435 34.1328 72.3988 34.1562 72.18 34.1562C70.5238 34.1562 69.6956 33.2839 69.6956 31.5391V26.4453H68.4691V25.8203L69.6956 25.2812L70.2425 23.4531H70.9925V25.4375H73.4769V26.4453H70.9925V31.4844C70.9925 32 71.1149 32.3958 71.3597 32.6719C71.6045 32.9479 71.9404 33.0859 72.3675 33.0859ZM80.3638 34L80.1059 32.7812H80.0434C79.6164 33.3177 79.1893 33.6823 78.7622 33.875C78.3403 34.0625 77.8117 34.1562 77.1763 34.1562C76.3273 34.1562 75.6606 33.9375 75.1763 33.5C74.6971 33.0625 74.4575 32.4401 74.4575 31.6328C74.4575 29.9036 75.8403 28.9974 78.6059 28.9141L80.0591 28.8672V28.3359C80.0591 27.6641 79.9132 27.1693 79.6216 26.8516C79.3351 26.5286 78.8742 26.3672 78.2388 26.3672C77.5252 26.3672 76.7179 26.5859 75.8169 27.0234L75.4184 26.0312C75.8403 25.8021 76.3013 25.6224 76.8013 25.4922C77.3065 25.362 77.8117 25.2969 78.3169 25.2969C79.3377 25.2969 80.0929 25.5234 80.5825 25.9766C81.0773 26.4297 81.3247 27.1562 81.3247 28.1562V34H80.3638ZM77.4341 33.0859C78.2414 33.0859 78.8742 32.8646 79.3325 32.4219C79.796 31.9792 80.0278 31.3594 80.0278 30.5625V29.7891L78.7309 29.8438C77.6997 29.8802 76.9549 30.0417 76.4966 30.3281C76.0434 30.6094 75.8169 31.0495 75.8169 31.6484C75.8169 32.1172 75.9575 32.474 76.2388 32.7188C76.5252 32.9635 76.9236 33.0859 77.4341 33.0859ZM93.6688 32.8516H93.5984C92.9995 33.7214 92.1036 34.1562 90.9109 34.1562C89.7911 34.1562 88.9188 33.7734 88.2938 33.0078C87.674 32.2422 87.3641 31.1536 87.3641 29.7422C87.3641 28.3307 87.6766 27.2344 88.3016 26.4531C88.9266 25.6719 89.7964 25.2812 90.9109 25.2812C92.0724 25.2812 92.963 25.7031 93.5828 26.5469H93.6844L93.6297 25.9297L93.5984 25.3281V21.8438H94.8953V34H93.8406L93.6688 32.8516ZM91.075 33.0703C91.9604 33.0703 92.601 32.8307 92.9969 32.3516C93.3979 31.8672 93.5984 31.0885 93.5984 30.0156V29.7422C93.5984 28.5286 93.3953 27.6641 92.9891 27.1484C92.588 26.6276 91.9448 26.3672 91.0594 26.3672C90.299 26.3672 89.7156 26.6641 89.3094 27.2578C88.9083 27.8464 88.7078 28.6797 88.7078 29.7578C88.7078 30.8516 88.9083 31.6771 89.3094 32.2344C89.7104 32.7917 90.299 33.0703 91.075 33.0703ZM101.11 34.1562C99.8447 34.1562 98.8447 33.7708 98.1103 33C97.3811 32.2292 97.0166 31.1589 97.0166 29.7891C97.0166 28.4089 97.3551 27.3125 98.0322 26.5C98.7145 25.6875 99.6285 25.2812 100.774 25.2812C101.847 25.2812 102.696 25.6354 103.321 26.3438C103.946 27.0469 104.259 27.9766 104.259 29.1328V29.9531H98.3603C98.3864 30.9583 98.639 31.7214 99.1181 32.2422C99.6025 32.763 100.282 33.0234 101.157 33.0234C102.079 33.0234 102.991 32.8307 103.892 32.4453V33.6016C103.433 33.7995 102.998 33.9401 102.587 34.0234C102.181 34.112 101.688 34.1562 101.11 34.1562ZM100.759 26.3672C100.071 26.3672 99.5218 26.5911 99.1103 27.0391C98.7041 27.487 98.4645 28.1068 98.3916 28.8984H102.868C102.868 28.0807 102.686 27.4557 102.321 27.0234C101.957 26.5859 101.436 26.3672 100.759 26.3672ZM111.841 31.6641C111.841 32.4609 111.544 33.0755 110.95 33.5078C110.357 33.9401 109.523 34.1562 108.45 34.1562C107.315 34.1562 106.429 33.9766 105.794 33.6172V32.4141C106.206 32.6224 106.646 32.7865 107.114 32.9062C107.588 33.026 108.044 33.0859 108.482 33.0859C109.159 33.0859 109.679 32.9792 110.044 32.7656C110.409 32.5469 110.591 32.2161 110.591 31.7734C110.591 31.4401 110.445 31.1562 110.153 30.9219C109.867 30.6823 109.304 30.401 108.466 30.0781C107.669 29.7812 107.101 29.5234 106.763 29.3047C106.429 29.0807 106.179 28.8281 106.013 28.5469C105.851 28.2656 105.771 27.9297 105.771 27.5391C105.771 26.8411 106.054 26.2917 106.622 25.8906C107.19 25.4844 107.969 25.2812 108.958 25.2812C109.88 25.2812 110.781 25.4688 111.661 25.8438L111.2 26.8984C110.341 26.5443 109.562 26.3672 108.864 26.3672C108.25 26.3672 107.786 26.4635 107.474 26.6562C107.161 26.849 107.005 27.1146 107.005 27.4531C107.005 27.6823 107.062 27.8776 107.177 28.0391C107.297 28.2005 107.487 28.3542 107.747 28.5C108.008 28.6458 108.508 28.8568 109.247 29.1328C110.263 29.5026 110.948 29.875 111.302 30.25C111.661 30.625 111.841 31.0964 111.841 31.6641ZM117.22 34.1562C115.98 34.1562 115.019 33.776 114.337 33.0156C113.66 32.25 113.322 31.1693 113.322 29.7734C113.322 28.3411 113.665 27.2344 114.353 26.4531C115.046 25.6719 116.03 25.2812 117.306 25.2812C117.717 25.2812 118.129 25.3255 118.54 25.4141C118.952 25.5026 119.275 25.6068 119.509 25.7266L119.111 26.8281C118.824 26.7135 118.512 26.6198 118.173 26.5469C117.835 26.4688 117.535 26.4297 117.275 26.4297C115.535 26.4297 114.665 27.5391 114.665 29.7578C114.665 30.8099 114.876 31.6172 115.298 32.1797C115.725 32.7422 116.355 33.0234 117.189 33.0234C117.902 33.0234 118.634 32.8698 119.384 32.5625V33.7109C118.811 34.0078 118.09 34.1562 117.22 34.1562ZM125.169 25.2812C125.55 25.2812 125.891 25.3125 126.193 25.375L126.013 26.5781C125.659 26.5 125.346 26.4609 125.076 26.4609C124.383 26.4609 123.789 26.7422 123.294 27.3047C122.805 27.8672 122.56 28.5677 122.56 29.4062V34H121.263V25.4375H122.333L122.482 27.0234H122.544C122.862 26.4661 123.245 26.0365 123.693 25.7344C124.141 25.4323 124.633 25.2812 125.169 25.2812ZM128.931 34H127.634V25.4375H128.931V34ZM127.525 23.1172C127.525 22.8203 127.598 22.6042 127.744 22.4688C127.89 22.3281 128.072 22.2578 128.291 22.2578C128.499 22.2578 128.679 22.3281 128.83 22.4688C128.981 22.6094 129.056 22.8255 129.056 23.1172C129.056 23.4089 128.981 23.6276 128.83 23.7734C128.679 23.9141 128.499 23.9844 128.291 23.9844C128.072 23.9844 127.89 23.9141 127.744 23.7734C127.598 23.6276 127.525 23.4089 127.525 23.1172ZM135.506 34.1562C134.948 34.1562 134.438 34.0547 133.974 33.8516C133.516 33.6432 133.131 33.3255 132.818 32.8984H132.724C132.787 33.3984 132.818 33.8724 132.818 34.3203V37.8438H131.521V25.4375H132.576L132.756 26.6094H132.818C133.151 26.1406 133.539 25.8021 133.982 25.5938C134.425 25.3854 134.933 25.2812 135.506 25.2812C136.641 25.2812 137.516 25.6693 138.131 26.4453C138.75 27.2214 139.06 28.3099 139.06 29.7109C139.06 31.1172 138.745 32.2109 138.115 32.9922C137.49 33.7682 136.62 34.1562 135.506 34.1562ZM135.318 26.3828C134.443 26.3828 133.81 26.625 133.42 27.1094C133.029 27.5938 132.829 28.3646 132.818 29.4219V29.7109C132.818 30.9141 133.019 31.776 133.42 32.2969C133.821 32.8125 134.464 33.0703 135.349 33.0703C136.089 33.0703 136.667 32.7708 137.084 32.1719C137.506 31.5729 137.717 30.7474 137.717 29.6953C137.717 28.6276 137.506 27.8099 137.084 27.2422C136.667 26.6693 136.079 26.3828 135.318 26.3828ZM144.596 34.1562C143.356 34.1562 142.395 33.776 141.713 33.0156C141.036 32.25 140.697 31.1693 140.697 29.7734C140.697 28.3411 141.041 27.2344 141.728 26.4531C142.421 25.6719 143.406 25.2812 144.682 25.2812C145.093 25.2812 145.504 25.3255 145.916 25.4141C146.327 25.5026 146.65 25.6068 146.885 25.7266L146.486 26.8281C146.2 26.7135 145.887 26.6198 145.549 26.5469C145.21 26.4688 144.911 26.4297 144.65 26.4297C142.911 26.4297 142.041 27.5391 142.041 29.7578C142.041 30.8099 142.252 31.6172 142.674 32.1797C143.101 32.7422 143.731 33.0234 144.564 33.0234C145.278 33.0234 146.01 32.8698 146.76 32.5625V33.7109C146.187 34.0078 145.465 34.1562 144.596 34.1562ZM149.936 34H148.639V25.4375H149.936V34ZM148.529 23.1172C148.529 22.8203 148.602 22.6042 148.748 22.4688C148.894 22.3281 149.076 22.2578 149.295 22.2578C149.503 22.2578 149.683 22.3281 149.834 22.4688C149.985 22.6094 150.061 22.8255 150.061 23.1172C150.061 23.4089 149.985 23.6276 149.834 23.7734C149.683 23.9141 149.503 23.9844 149.295 23.9844C149.076 23.9844 148.894 23.9141 148.748 23.7734C148.602 23.6276 148.529 23.4089 148.529 23.1172ZM159.916 29.7109C159.916 31.1068 159.565 32.1979 158.862 32.9844C158.158 33.7656 157.187 34.1562 155.948 34.1562C155.182 34.1562 154.502 33.9766 153.908 33.6172C153.315 33.2578 152.856 32.7422 152.533 32.0703C152.211 31.3984 152.049 30.612 152.049 29.7109C152.049 28.3151 152.398 27.2292 153.096 26.4531C153.794 25.6719 154.763 25.2812 156.002 25.2812C157.2 25.2812 158.151 25.6797 158.854 26.4766C159.562 27.2734 159.916 28.3516 159.916 29.7109ZM153.393 29.7109C153.393 30.8047 153.612 31.638 154.049 32.2109C154.487 32.7839 155.13 33.0703 155.979 33.0703C156.828 33.0703 157.471 32.7865 157.908 32.2188C158.351 31.6458 158.573 30.8099 158.573 29.7109C158.573 28.6224 158.351 27.7969 157.908 27.2344C157.471 26.6667 156.823 26.3828 155.963 26.3828C155.114 26.3828 154.474 26.6615 154.041 27.2188C153.609 27.776 153.393 28.6068 153.393 29.7109ZM154.893 24.1094C155.143 23.7865 155.411 23.3958 155.698 22.9375C155.989 22.4792 156.218 22.0807 156.385 21.7422H157.963V21.9062C157.734 22.2448 157.393 22.6615 156.94 23.1562C156.487 23.651 156.093 24.0339 155.76 24.3047H154.893V24.1094ZM167.897 34V28.4609C167.897 27.763 167.738 27.2422 167.42 26.8984C167.103 26.5547 166.605 26.3828 165.928 26.3828C165.032 26.3828 164.376 26.625 163.959 27.1094C163.543 27.5938 163.334 28.3932 163.334 29.5078V34H162.037V25.4375H163.092L163.303 26.6094H163.366C163.631 26.1875 164.004 25.862 164.483 25.6328C164.962 25.3984 165.496 25.2812 166.084 25.2812C167.116 25.2812 167.892 25.5312 168.412 26.0312C168.933 26.526 169.194 27.3203 169.194 28.4141V34H167.897ZM181.53 32.8516H181.46C180.861 33.7214 179.965 34.1562 178.772 34.1562C177.652 34.1562 176.78 33.7734 176.155 33.0078C175.535 32.2422 175.225 31.1536 175.225 29.7422C175.225 28.3307 175.538 27.2344 176.163 26.4531C176.788 25.6719 177.658 25.2812 178.772 25.2812C179.934 25.2812 180.824 25.7031 181.444 26.5469H181.546L181.491 25.9297L181.46 25.3281V21.8438H182.757V34H181.702L181.53 32.8516ZM178.936 33.0703C179.822 33.0703 180.462 32.8307 180.858 32.3516C181.259 31.8672 181.46 31.0885 181.46 30.0156V29.7422C181.46 28.5286 181.257 27.6641 180.85 27.1484C180.449 26.6276 179.806 26.3672 178.921 26.3672C178.16 26.3672 177.577 26.6641 177.171 27.2578C176.77 27.8464 176.569 28.6797 176.569 29.7578C176.569 30.8516 176.77 31.6771 177.171 32.2344C177.572 32.7917 178.16 33.0703 178.936 33.0703ZM188.972 34.1562C187.706 34.1562 186.706 33.7708 185.972 33C185.242 32.2292 184.878 31.1589 184.878 29.7891C184.878 28.4089 185.216 27.3125 185.893 26.5C186.576 25.6875 187.49 25.2812 188.636 25.2812C189.709 25.2812 190.557 25.6354 191.182 26.3438C191.807 27.0469 192.12 27.9766 192.12 29.1328V29.9531H186.222C186.248 30.9583 186.5 31.7214 186.979 32.2422C187.464 32.763 188.143 33.0234 189.018 33.0234C189.94 33.0234 190.852 32.8307 191.753 32.4453V33.6016C191.294 33.7995 190.86 33.9401 190.448 34.0234C190.042 34.112 189.55 34.1562 188.972 34.1562ZM188.62 26.3672C187.932 26.3672 187.383 26.5911 186.972 27.0391C186.565 27.487 186.326 28.1068 186.253 28.8984H190.729C190.729 28.0807 190.547 27.4557 190.182 27.0234C189.818 26.5859 189.297 26.3672 188.62 26.3672ZM202.159 25.2969C203.284 25.2969 204.157 25.6823 204.777 26.4531C205.402 27.2188 205.714 28.3047 205.714 29.7109C205.714 31.1172 205.399 32.2109 204.769 32.9922C204.144 33.7682 203.274 34.1562 202.159 34.1562C201.602 34.1562 201.092 34.0547 200.628 33.8516C200.17 33.6432 199.784 33.3255 199.472 32.8984H199.378L199.105 34H198.175V21.8438H199.472V24.7969C199.472 25.4583 199.451 26.0521 199.409 26.5781H199.472C200.076 25.724 200.972 25.2969 202.159 25.2969ZM201.972 26.3828C201.086 26.3828 200.448 26.638 200.058 27.1484C199.667 27.6536 199.472 28.5078 199.472 29.7109C199.472 30.9141 199.672 31.776 200.073 32.2969C200.474 32.8125 201.118 33.0703 202.003 33.0703C202.8 33.0703 203.394 32.7812 203.784 32.2031C204.175 31.6198 204.37 30.7839 204.37 29.6953C204.37 28.5807 204.175 27.75 203.784 27.2031C203.394 26.6562 202.79 26.3828 201.972 26.3828ZM213.093 34L212.835 32.7812H212.773C212.346 33.3177 211.919 33.6823 211.492 33.875C211.07 34.0625 210.541 34.1562 209.906 34.1562C209.057 34.1562 208.39 33.9375 207.906 33.5C207.426 33.0625 207.187 32.4401 207.187 31.6328C207.187 29.9036 208.57 28.9974 211.335 28.9141L212.788 28.8672V28.3359C212.788 27.6641 212.643 27.1693 212.351 26.8516C212.064 26.5286 211.604 26.3672 210.968 26.3672C210.255 26.3672 209.447 26.5859 208.546 27.0234L208.148 26.0312C208.57 25.8021 209.031 25.6224 209.531 25.4922C210.036 25.362 210.541 25.2969 211.046 25.2969C212.067 25.2969 212.822 25.5234 213.312 25.9766C213.807 26.4297 214.054 27.1562 214.054 28.1562V34H213.093ZM210.163 33.0859C210.971 33.0859 211.604 32.8646 212.062 32.4219C212.525 31.9792 212.757 31.3594 212.757 30.5625V29.7891L211.46 29.8438C210.429 29.8802 209.684 30.0417 209.226 30.3281C208.773 30.6094 208.546 31.0495 208.546 31.6484C208.546 32.1172 208.687 32.474 208.968 32.7188C209.255 32.9635 209.653 33.0859 210.163 33.0859ZM222.433 34V28.4609C222.433 27.763 222.274 27.2422 221.957 26.8984C221.639 26.5547 221.141 26.3828 220.464 26.3828C219.569 26.3828 218.912 26.625 218.496 27.1094C218.079 27.5938 217.871 28.3932 217.871 29.5078V34H216.574V25.4375H217.628L217.839 26.6094H217.902C218.167 26.1875 218.54 25.862 219.019 25.6328C219.498 25.3984 220.032 25.2812 220.621 25.2812C221.652 25.2812 222.428 25.5312 222.949 26.0312C223.47 26.526 223.73 27.3203 223.73 28.4141V34H222.433ZM232.101 34V28.4609C232.101 27.763 231.942 27.2422 231.625 26.8984C231.307 26.5547 230.81 26.3828 230.133 26.3828C229.237 26.3828 228.58 26.625 228.164 27.1094C227.747 27.5938 227.539 28.3932 227.539 29.5078V34H226.242V25.4375H227.297L227.508 26.6094H227.57C227.836 26.1875 228.208 25.862 228.687 25.6328C229.166 25.3984 229.7 25.2812 230.289 25.2812C231.32 25.2812 232.096 25.5312 232.617 26.0312C233.138 26.526 233.398 27.3203 233.398 28.4141V34H232.101ZM239.527 34.1562C238.262 34.1562 237.262 33.7708 236.527 33C235.798 32.2292 235.433 31.1589 235.433 29.7891C235.433 28.4089 235.772 27.3125 236.449 26.5C237.131 25.6875 238.045 25.2812 239.191 25.2812C240.264 25.2812 241.113 25.6354 241.738 26.3438C242.363 27.0469 242.676 27.9766 242.676 29.1328V29.9531H236.777C236.803 30.9583 237.056 31.7214 237.535 32.2422C238.019 32.763 238.699 33.0234 239.574 33.0234C240.496 33.0234 241.407 32.8307 242.308 32.4453V33.6016C241.85 33.7995 241.415 33.9401 241.004 34.0234C240.598 34.112 240.105 34.1562 239.527 34.1562ZM239.176 26.3672C238.488 26.3672 237.939 26.5911 237.527 27.0391C237.121 27.487 236.881 28.1068 236.808 28.8984H241.285C241.285 28.0807 241.103 27.4557 240.738 27.0234C240.374 26.5859 239.853 26.3672 239.176 26.3672ZM248.641 25.2812C249.021 25.2812 249.362 25.3125 249.664 25.375L249.484 26.5781C249.13 26.5 248.818 26.4609 248.547 26.4609C247.854 26.4609 247.26 26.7422 246.766 27.3047C246.276 27.8672 246.031 28.5677 246.031 29.4062V34H244.734V25.4375H245.805L245.953 27.0234H246.016C246.333 26.4661 246.716 26.0365 247.164 25.7344C247.612 25.4323 248.104 25.2812 248.641 25.2812ZM259.774 34.1562C258.748 34.1562 257.943 33.7839 257.36 33.0391H257.235C257.318 33.7682 257.36 34.1901 257.36 34.3047V37.8438H254.977V25.2656H256.914L257.25 26.3984H257.36C257.917 25.5339 258.742 25.1016 259.836 25.1016C260.867 25.1016 261.675 25.5 262.258 26.2969C262.841 27.0938 263.133 28.2005 263.133 29.6172C263.133 30.5495 262.995 31.3594 262.719 32.0469C262.448 32.7344 262.06 33.2578 261.555 33.6172C261.05 33.9766 260.456 34.1562 259.774 34.1562ZM259.071 27.0078C258.482 27.0078 258.052 27.1901 257.782 27.5547C257.511 27.9141 257.37 28.5104 257.36 29.3438V29.6016C257.36 30.5391 257.498 31.2109 257.774 31.6172C258.055 32.0234 258.498 32.2266 259.102 32.2266C260.17 32.2266 260.703 31.3464 260.703 29.5859C260.703 28.7266 260.571 28.0833 260.305 27.6562C260.045 27.224 259.633 27.0078 259.071 27.0078ZM271.289 34L270.969 32.8828H270.844C270.589 33.2891 270.227 33.6042 269.758 33.8281C269.289 34.0469 268.756 34.1562 268.157 34.1562C267.131 34.1562 266.357 33.8828 265.836 33.3359C265.315 32.7839 265.055 31.9922 265.055 30.9609V25.2656H267.438V30.3672C267.438 30.9974 267.55 31.4714 267.774 31.7891C267.998 32.1016 268.354 32.2578 268.844 32.2578C269.511 32.2578 269.992 32.0365 270.289 31.5938C270.586 31.1458 270.735 30.4062 270.735 29.375V25.2656H273.117V34H271.289ZM279.235 26.7969C278.729 26.7969 278.334 26.9583 278.047 27.2812C277.761 27.599 277.597 28.0521 277.555 28.6406H280.899C280.888 28.0521 280.735 27.599 280.438 27.2812C280.141 26.9583 279.74 26.7969 279.235 26.7969ZM279.571 34.1562C278.164 34.1562 277.065 33.7682 276.274 32.9922C275.482 32.2161 275.086 31.1172 275.086 29.6953C275.086 28.2318 275.451 27.1016 276.18 26.3047C276.914 25.5026 277.927 25.1016 279.219 25.1016C280.453 25.1016 281.414 25.4531 282.102 26.1562C282.789 26.8594 283.133 27.8307 283.133 29.0703V30.2266H277.5C277.526 30.9036 277.727 31.4323 278.102 31.8125C278.477 32.1927 279.003 32.3828 279.68 32.3828C280.206 32.3828 280.703 32.3281 281.172 32.2188C281.641 32.1094 282.131 31.9349 282.641 31.6953V33.5391C282.224 33.7474 281.779 33.901 281.305 34C280.831 34.1042 280.253 34.1562 279.571 34.1562ZM287.836 34.1562C286.81 34.1562 286.003 33.7578 285.414 32.9609C284.831 32.1641 284.539 31.0599 284.539 29.6484C284.539 28.2161 284.836 27.1016 285.43 26.3047C286.029 25.5026 286.852 25.1016 287.899 25.1016C288.998 25.1016 289.836 25.5286 290.414 26.3828H290.492C290.373 25.7318 290.313 25.151 290.313 24.6406V21.8438H292.703V34H290.875L290.414 32.8672H290.313C289.771 33.7266 288.946 34.1562 287.836 34.1562ZM288.672 32.2578C289.282 32.2578 289.727 32.0807 290.008 31.7266C290.295 31.3724 290.451 30.7708 290.477 29.9219V29.6641C290.477 28.7266 290.331 28.0547 290.039 27.6484C289.753 27.2422 289.284 27.0391 288.633 27.0391C288.102 27.0391 287.688 27.2656 287.391 27.7188C287.099 28.1667 286.953 28.8203 286.953 29.6797C286.953 30.5391 287.102 31.1849 287.399 31.6172C287.696 32.0443 288.12 32.2578 288.672 32.2578ZM298.813 26.7969C298.308 26.7969 297.912 26.9583 297.625 27.2812C297.339 27.599 297.175 28.0521 297.133 28.6406H300.477C300.466 28.0521 300.313 27.599 300.016 27.2812C299.719 26.9583 299.318 26.7969 298.813 26.7969ZM299.149 34.1562C297.742 34.1562 296.644 33.7682 295.852 32.9922C295.06 32.2161 294.664 31.1172 294.664 29.6953C294.664 28.2318 295.029 27.1016 295.758 26.3047C296.492 25.5026 297.506 25.1016 298.797 25.1016C300.032 25.1016 300.992 25.4531 301.68 26.1562C302.367 26.8594 302.711 27.8307 302.711 29.0703V30.2266H297.078C297.104 30.9036 297.305 31.4323 297.68 31.8125C298.055 32.1927 298.581 32.3828 299.258 32.3828C299.784 32.3828 300.282 32.3281 300.75 32.2188C301.219 32.1094 301.709 31.9349 302.219 31.6953V33.5391C301.802 33.7474 301.357 33.901 300.883 34C300.409 34.1042 299.831 34.1562 299.149 34.1562ZM56.9297 56.2578C57.3464 56.2578 57.8464 56.1667 58.4297 55.9844V57.7578C57.8359 58.0234 57.1068 58.1562 56.2422 58.1562C55.2891 58.1562 54.5938 57.9167 54.1562 57.4375C53.724 56.9531 53.5078 56.2292 53.5078 55.2656V51.0547H52.3672V50.0469L53.6797 49.25L54.3672 47.4062H55.8906V49.2656H58.3359V51.0547H55.8906V55.2656C55.8906 55.6042 55.9844 55.8542 56.1719 56.0156C56.3646 56.1771 56.6172 56.2578 56.9297 56.2578ZM63.8203 50.7969C63.3151 50.7969 62.9193 50.9583 62.6328 51.2812C62.3464 51.599 62.1823 52.0521 62.1406 52.6406H65.4844C65.474 52.0521 65.3203 51.599 65.0234 51.2812C64.7266 50.9583 64.3255 50.7969 63.8203 50.7969ZM64.1562 58.1562C62.75 58.1562 61.651 57.7682 60.8594 56.9922C60.0677 56.2161 59.6719 55.1172 59.6719 53.6953C59.6719 52.2318 60.0365 51.1016 60.7656 50.3047C61.5 49.5026 62.513 49.1016 63.8047 49.1016C65.0391 49.1016 66 49.4531 66.6875 50.1562C67.375 50.8594 67.7188 51.8307 67.7188 53.0703V54.2266H62.0859C62.112 54.9036 62.3125 55.4323 62.6875 55.8125C63.0625 56.1927 63.5885 56.3828 64.2656 56.3828C64.7917 56.3828 65.2891 56.3281 65.7578 56.2188C66.2266 56.1094 66.7161 55.9349 67.2266 55.6953V57.5391C66.8099 57.7474 66.3646 57.901 65.8906 58C65.4167 58.1042 64.8385 58.1562 64.1562 58.1562ZM77.7188 58H75.3359V52.8984C75.3359 52.2682 75.224 51.7969 75 51.4844C74.776 51.1667 74.4193 51.0078 73.9297 51.0078C73.263 51.0078 72.7812 51.2318 72.4844 51.6797C72.1875 52.1224 72.0391 52.8594 72.0391 53.8906V58H69.6562V49.2656H71.4766L71.7969 50.3828H71.9297C72.1953 49.9609 72.5599 49.6432 73.0234 49.4297C73.4922 49.2109 74.0234 49.1016 74.6172 49.1016C75.6328 49.1016 76.4036 49.3776 76.9297 49.9297C77.4557 50.4766 77.7188 51.2682 77.7188 52.3047V58ZM83.7891 50.7969C83.2839 50.7969 82.888 50.9583 82.6016 51.2812C82.3151 51.599 82.151 52.0521 82.1094 52.6406H85.4531C85.4427 52.0521 85.2891 51.599 84.9922 51.2812C84.6953 50.9583 84.2943 50.7969 83.7891 50.7969ZM84.125 58.1562C82.7188 58.1562 81.6198 57.7682 80.8281 56.9922C80.0365 56.2161 79.6406 55.1172 79.6406 53.6953C79.6406 52.2318 80.0052 51.1016 80.7344 50.3047C81.4688 49.5026 82.4818 49.1016 83.7734 49.1016C85.0078 49.1016 85.9688 49.4531 86.6562 50.1562C87.3438 50.8594 87.6875 51.8307 87.6875 53.0703V54.2266H82.0547C82.0807 54.9036 82.2812 55.4323 82.6562 55.8125C83.0312 56.1927 83.5573 56.3828 84.2344 56.3828C84.7604 56.3828 85.2578 56.3281 85.7266 56.2188C86.1953 56.1094 86.6849 55.9349 87.1953 55.6953V57.5391C86.7786 57.7474 86.3333 57.901 85.8594 58C85.3854 58.1042 84.8073 58.1562 84.125 58.1562ZM94.5 49.1016C94.8229 49.1016 95.0911 49.125 95.3047 49.1719L95.125 51.4062C94.9323 51.3542 94.6979 51.3281 94.4219 51.3281C93.6615 51.3281 93.0677 51.5234 92.6406 51.9141C92.2188 52.3047 92.0078 52.8516 92.0078 53.5547V58H89.625V49.2656H91.4297L91.7812 50.7344H91.8984C92.1693 50.2448 92.5339 49.8516 92.9922 49.5547C93.4557 49.2526 93.9583 49.1016 94.5 49.1016ZM104.664 50.7969C104.159 50.7969 103.763 50.9583 103.477 51.2812C103.19 51.599 103.026 52.0521 102.984 52.6406H106.328C106.318 52.0521 106.164 51.599 105.867 51.2812C105.57 50.9583 105.169 50.7969 104.664 50.7969ZM105 58.1562C103.594 58.1562 102.495 57.7682 101.703 56.9922C100.911 56.2161 100.516 55.1172 100.516 53.6953C100.516 52.2318 100.88 51.1016 101.609 50.3047C102.344 49.5026 103.357 49.1016 104.648 49.1016C105.883 49.1016 106.844 49.4531 107.531 50.1562C108.219 50.8594 108.562 51.8307 108.562 53.0703V54.2266H102.93C102.956 54.9036 103.156 55.4323 103.531 55.8125C103.906 56.1927 104.432 56.3828 105.109 56.3828C105.635 56.3828 106.133 56.3281 106.602 56.2188C107.07 56.1094 107.56 55.9349 108.07 55.6953V57.5391C107.654 57.7474 107.208 57.901 106.734 58C106.26 58.1042 105.682 58.1562 105 58.1562ZM103.289 48.3047V48.0938C104.185 47.0521 104.797 46.2682 105.125 45.7422H107.797V45.9062C107.526 46.1771 107.062 46.5807 106.406 47.1172C105.755 47.6484 105.245 48.0443 104.875 48.3047H103.289ZM118.562 58H116.18V52.8984C116.18 52.2682 116.068 51.7969 115.844 51.4844C115.62 51.1667 115.263 51.0078 114.773 51.0078C114.107 51.0078 113.625 51.2318 113.328 51.6797C113.031 52.1224 112.883 52.8594 112.883 53.8906V58H110.5V49.2656H112.32L112.641 50.3828H112.773C113.039 49.9609 113.404 49.6432 113.867 49.4297C114.336 49.2109 114.867 49.1016 115.461 49.1016C116.477 49.1016 117.247 49.3776 117.773 49.9297C118.299 50.4766 118.562 51.2682 118.562 52.3047V58ZM125.844 51.0547H123.781V58H121.398V51.0547H120.086V49.9062L121.398 49.2656V48.625C121.398 47.6302 121.643 46.9036 122.133 46.4453C122.622 45.987 123.406 45.7578 124.484 45.7578C125.307 45.7578 126.039 45.8802 126.68 46.125L126.07 47.875C125.591 47.724 125.148 47.6484 124.742 47.6484C124.404 47.6484 124.159 47.75 124.008 47.9531C123.857 48.151 123.781 48.4062 123.781 48.7188V49.2656H125.844V51.0547ZM132.766 58L132.305 56.8125H132.242C131.841 57.3177 131.427 57.6693 131 57.8672C130.578 58.0599 130.026 58.1562 129.344 58.1562C128.505 58.1562 127.844 57.9167 127.359 57.4375C126.88 56.9583 126.641 56.276 126.641 55.3906C126.641 54.4635 126.964 53.7812 127.609 53.3438C128.26 52.901 129.24 52.6562 130.547 52.6094L132.062 52.5625V52.1797C132.062 51.2943 131.609 50.8516 130.703 50.8516C130.005 50.8516 129.185 51.0625 128.242 51.4844L127.453 49.875C128.458 49.349 129.573 49.0859 130.797 49.0859C131.969 49.0859 132.867 49.3411 133.492 49.8516C134.117 50.362 134.43 51.138 134.43 52.1797V58H132.766ZM132.062 53.9531L131.141 53.9844C130.448 54.0052 129.932 54.1302 129.594 54.3594C129.255 54.5885 129.086 54.9375 129.086 55.4062C129.086 56.0781 129.471 56.4141 130.242 56.4141C130.794 56.4141 131.234 56.2552 131.562 55.9375C131.896 55.6198 132.062 55.1979 132.062 54.6719V53.9531ZM142.984 55.4062C142.984 56.3021 142.672 56.9844 142.047 57.4531C141.427 57.9219 140.497 58.1562 139.258 58.1562C138.622 58.1562 138.081 58.112 137.633 58.0234C137.185 57.9401 136.766 57.8151 136.375 57.6484V55.6797C136.818 55.888 137.315 56.0625 137.867 56.2031C138.424 56.3438 138.914 56.4141 139.336 56.4141C140.201 56.4141 140.633 56.1641 140.633 55.6641C140.633 55.4766 140.576 55.3255 140.461 55.2109C140.346 55.0911 140.148 54.9583 139.867 54.8125C139.586 54.6615 139.211 54.487 138.742 54.2891C138.07 54.0078 137.576 53.7474 137.258 53.5078C136.945 53.2682 136.716 52.9948 136.57 52.6875C136.43 52.375 136.359 51.9922 136.359 51.5391C136.359 50.763 136.659 50.1641 137.258 49.7422C137.862 49.3151 138.716 49.1016 139.82 49.1016C140.872 49.1016 141.896 49.3307 142.891 49.7891L142.172 51.5078C141.734 51.3203 141.326 51.1667 140.945 51.0469C140.565 50.9271 140.177 50.8672 139.781 50.8672C139.078 50.8672 138.727 51.0573 138.727 51.4375C138.727 51.651 138.839 51.8359 139.062 51.9922C139.292 52.1484 139.789 52.3802 140.555 52.6875C141.237 52.9635 141.737 53.2214 142.055 53.4609C142.372 53.7005 142.607 53.9766 142.758 54.2891C142.909 54.6016 142.984 54.974 142.984 55.4062ZM144.742 47.0078C144.742 46.2318 145.174 45.8438 146.039 45.8438C146.904 45.8438 147.336 46.2318 147.336 47.0078C147.336 47.3776 147.227 47.6667 147.008 47.875C146.794 48.0781 146.471 48.1797 146.039 48.1797C145.174 48.1797 144.742 47.7891 144.742 47.0078ZM147.227 58H144.844V49.2656H147.227V58ZM155.828 55.4062C155.828 56.3021 155.516 56.9844 154.891 57.4531C154.271 57.9219 153.341 58.1562 152.102 58.1562C151.466 58.1562 150.924 58.112 150.477 58.0234C150.029 57.9401 149.609 57.8151 149.219 57.6484V55.6797C149.661 55.888 150.159 56.0625 150.711 56.2031C151.268 56.3438 151.758 56.4141 152.18 56.4141C153.044 56.4141 153.477 56.1641 153.477 55.6641C153.477 55.4766 153.419 55.3255 153.305 55.2109C153.19 55.0911 152.992 54.9583 152.711 54.8125C152.43 54.6615 152.055 54.487 151.586 54.2891C150.914 54.0078 150.419 53.7474 150.102 53.5078C149.789 53.2682 149.56 52.9948 149.414 52.6875C149.273 52.375 149.203 51.9922 149.203 51.5391C149.203 50.763 149.503 50.1641 150.102 49.7422C150.706 49.3151 151.56 49.1016 152.664 49.1016C153.716 49.1016 154.74 49.3307 155.734 49.7891L155.016 51.5078C154.578 51.3203 154.169 51.1667 153.789 51.0469C153.409 50.9271 153.021 50.8672 152.625 50.8672C151.922 50.8672 151.57 51.0573 151.57 51.4375C151.57 51.651 151.682 51.8359 151.906 51.9922C152.135 52.1484 152.633 52.3802 153.398 52.6875C154.081 52.9635 154.581 53.2214 154.898 53.4609C155.216 53.7005 155.451 53.9766 155.602 54.2891C155.753 54.6016 155.828 54.974 155.828 55.4062ZM157.352 56.8828C157.352 56.4453 157.469 56.1146 157.703 55.8906C157.938 55.6667 158.279 55.5547 158.727 55.5547C159.159 55.5547 159.492 55.6693 159.727 55.8984C159.966 56.1276 160.086 56.4557 160.086 56.8828C160.086 57.2943 159.966 57.6198 159.727 57.8594C159.487 58.0938 159.154 58.2109 158.727 58.2109C158.289 58.2109 157.951 58.0964 157.711 57.8672C157.471 57.6328 157.352 57.3047 157.352 56.8828ZM173.012 54.9609C173.012 55.9661 172.647 56.75 171.918 57.3125C171.189 57.875 170.199 58.1562 168.949 58.1562C167.595 58.1562 166.554 57.9818 165.824 57.6328V56.3516C166.293 56.5495 166.804 56.7057 167.356 56.8203C167.908 56.9349 168.455 56.9922 168.996 56.9922C169.882 56.9922 170.548 56.8255 170.996 56.4922C171.444 56.1536 171.668 55.6849 171.668 55.0859C171.668 54.6901 171.587 54.3672 171.426 54.1172C171.27 53.862 171.004 53.6276 170.629 53.4141C170.259 53.2005 169.694 52.9583 168.934 52.6875C167.871 52.3073 167.111 51.8568 166.652 51.3359C166.199 50.8151 165.973 50.1354 165.973 49.2969C165.973 48.4167 166.304 47.7161 166.965 47.1953C167.626 46.6745 168.501 46.4141 169.59 46.4141C170.725 46.4141 171.77 46.6224 172.723 47.0391L172.309 48.1953C171.366 47.7995 170.449 47.6016 169.559 47.6016C168.856 47.6016 168.306 47.7526 167.91 48.0547C167.514 48.3568 167.317 48.776 167.317 49.3125C167.317 49.7083 167.389 50.0339 167.535 50.2891C167.681 50.5391 167.926 50.7708 168.27 50.9844C168.619 51.1927 169.15 51.4245 169.863 51.6797C171.061 52.1068 171.884 52.5651 172.332 53.0547C172.785 53.5443 173.012 54.1797 173.012 54.9609ZM178.61 58.1562C177.344 58.1562 176.344 57.7708 175.61 57C174.881 56.2292 174.516 55.1589 174.516 53.7891C174.516 52.4089 174.854 51.3125 175.532 50.5C176.214 49.6875 177.128 49.2812 178.274 49.2812C179.347 49.2812 180.196 49.6354 180.821 50.3438C181.446 51.0469 181.758 51.9766 181.758 53.1328V53.9531H175.86C175.886 54.9583 176.138 55.7214 176.618 56.2422C177.102 56.763 177.782 57.0234 178.657 57.0234C179.578 57.0234 180.49 56.8307 181.391 56.4453V57.6016C180.933 57.7995 180.498 57.9401 180.086 58.0234C179.68 58.112 179.188 58.1562 178.61 58.1562ZM178.258 50.3672C177.571 50.3672 177.021 50.5911 176.61 51.0391C176.203 51.487 175.964 52.1068 175.891 52.8984H180.368C180.368 52.0807 180.185 51.4557 179.821 51.0234C179.456 50.5859 178.935 50.3672 178.258 50.3672ZM190.579 57.0859C190.808 57.0859 191.029 57.0703 191.243 57.0391C191.456 57.0026 191.626 56.9661 191.751 56.9297V57.9219C191.61 57.9896 191.402 58.0443 191.126 58.0859C190.855 58.1328 190.61 58.1562 190.391 58.1562C188.735 58.1562 187.907 57.2839 187.907 55.5391V50.4453H186.68V49.8203L187.907 49.2812L188.454 47.4531H189.204V49.4375H191.688V50.4453H189.204V55.4844C189.204 56 189.326 56.3958 189.571 56.6719C189.816 56.9479 190.152 57.0859 190.579 57.0859ZM197.216 49.2812C197.596 49.2812 197.937 49.3125 198.239 49.375L198.059 50.5781C197.705 50.5 197.393 50.4609 197.122 50.4609C196.429 50.4609 195.835 50.7422 195.341 51.3047C194.851 51.8672 194.606 52.5677 194.606 53.4062V58H193.309V49.4375H194.38L194.528 51.0234H194.591C194.908 50.4661 195.291 50.0365 195.739 49.7344C196.187 49.4323 196.679 49.2812 197.216 49.2812ZM200.899 49.4375V54.9922C200.899 55.6901 201.058 56.2109 201.376 56.5547C201.694 56.8984 202.191 57.0703 202.868 57.0703C203.764 57.0703 204.418 56.8255 204.829 56.3359C205.246 55.8464 205.454 55.0469 205.454 53.9375V49.4375H206.751V58H205.681L205.493 56.8516H205.423C205.157 57.2734 204.787 57.5964 204.313 57.8203C203.845 58.0443 203.308 58.1562 202.704 58.1562C201.662 58.1562 200.881 57.9089 200.36 57.4141C199.845 56.9193 199.587 56.1276 199.587 55.0391V49.4375H200.899ZM215.208 58V52.4609C215.208 51.763 215.049 51.2422 214.732 50.8984C214.414 50.5547 213.916 50.3828 213.239 50.3828C212.344 50.3828 211.687 50.625 211.271 51.1094C210.854 51.5938 210.646 52.3932 210.646 53.5078V58H209.349V49.4375H210.403L210.614 50.6094H210.677C210.943 50.1875 211.315 49.862 211.794 49.6328C212.273 49.3984 212.807 49.2812 213.396 49.2812C214.427 49.2812 215.203 49.5312 215.724 50.0312C216.245 50.526 216.505 51.3203 216.505 52.4141V58H215.208ZM222.439 58.1562C221.199 58.1562 220.238 57.776 219.556 57.0156C218.879 56.25 218.54 55.1693 218.54 53.7734C218.54 52.3411 218.884 51.2344 219.572 50.4531C220.264 49.6719 221.249 49.2812 222.525 49.2812C222.936 49.2812 223.348 49.3255 223.759 49.4141C224.171 49.5026 224.493 49.6068 224.728 49.7266L224.329 50.8281C224.043 50.7135 223.73 50.6198 223.392 50.5469C223.053 50.4688 222.754 50.4297 222.493 50.4297C220.754 50.4297 219.884 51.5391 219.884 53.7578C219.884 54.8099 220.095 55.6172 220.517 56.1797C220.944 56.7422 221.574 57.0234 222.408 57.0234C223.121 57.0234 223.853 56.8698 224.603 56.5625V57.7109C224.03 58.0078 223.309 58.1562 222.439 58.1562ZM231.747 58L231.49 56.7812H231.427C231 57.3177 230.573 57.6823 230.146 57.875C229.724 58.0625 229.195 58.1562 228.56 58.1562C227.711 58.1562 227.044 57.9375 226.56 57.5C226.081 57.0625 225.841 56.4401 225.841 55.6328C225.841 53.9036 227.224 52.9974 229.99 52.9141L231.443 52.8672V52.3359C231.443 51.6641 231.297 51.1693 231.005 50.8516C230.719 50.5286 230.258 50.3672 229.622 50.3672C228.909 50.3672 228.102 50.5859 227.201 51.0234L226.802 50.0312C227.224 49.8021 227.685 49.6224 228.185 49.4922C228.69 49.362 229.195 49.2969 229.701 49.2969C230.721 49.2969 231.477 49.5234 231.966 49.9766C232.461 50.4297 232.708 51.1562 232.708 52.1562V58H231.747ZM228.818 57.0859C229.625 57.0859 230.258 56.8646 230.716 56.4219C231.18 55.9792 231.412 55.3594 231.412 54.5625V53.7891L230.115 53.8438C229.083 53.8802 228.339 54.0417 227.88 54.3281C227.427 54.6094 227.201 55.0495 227.201 55.6484C227.201 56.1172 227.341 56.474 227.622 56.7188C227.909 56.9635 228.307 57.0859 228.818 57.0859ZM241.087 58V52.4609C241.087 51.763 240.929 51.2422 240.611 50.8984C240.293 50.5547 239.796 50.3828 239.119 50.3828C238.223 50.3828 237.567 50.625 237.15 51.1094C236.733 51.5938 236.525 52.3932 236.525 53.5078V58H235.228V49.4375H236.283L236.494 50.6094H236.556C236.822 50.1875 237.194 49.862 237.673 49.6328C238.153 49.3984 238.686 49.2812 239.275 49.2812C240.306 49.2812 241.082 49.5312 241.603 50.0312C242.124 50.526 242.384 51.3203 242.384 52.4141V58H241.087ZM250.189 58H248.893V45.8438H250.189V58ZM260.17 53.7109C260.17 55.1068 259.818 56.1979 259.115 56.9844C258.412 57.7656 257.441 58.1562 256.201 58.1562C255.436 58.1562 254.756 57.9766 254.162 57.6172C253.568 57.2578 253.11 56.7422 252.787 56.0703C252.464 55.3984 252.303 54.612 252.303 53.7109C252.303 52.3151 252.652 51.2292 253.35 50.4531C254.048 49.6719 255.016 49.2812 256.256 49.2812C257.454 49.2812 258.404 49.6797 259.107 50.4766C259.816 51.2734 260.17 52.3516 260.17 53.7109ZM253.647 53.7109C253.647 54.8047 253.865 55.638 254.303 56.2109C254.74 56.7839 255.384 57.0703 256.232 57.0703C257.081 57.0703 257.725 56.7865 258.162 56.2188C258.605 55.6458 258.826 54.8099 258.826 53.7109C258.826 52.6224 258.605 51.7969 258.162 51.2344C257.725 50.6667 257.076 50.3828 256.217 50.3828C255.368 50.3828 254.727 50.6615 254.295 51.2188C253.863 51.776 253.647 52.6068 253.647 53.7109ZM267.815 55.6641C267.815 56.4609 267.518 57.0755 266.924 57.5078C266.33 57.9401 265.497 58.1562 264.424 58.1562C263.289 58.1562 262.403 57.9766 261.768 57.6172V56.4141C262.179 56.6224 262.619 56.7865 263.088 56.9062C263.562 57.026 264.018 57.0859 264.455 57.0859C265.132 57.0859 265.653 56.9792 266.018 56.7656C266.382 56.5469 266.565 56.2161 266.565 55.7734C266.565 55.4401 266.419 55.1562 266.127 54.9219C265.841 54.6823 265.278 54.401 264.44 54.0781C263.643 53.7812 263.075 53.5234 262.737 53.3047C262.403 53.0807 262.153 52.8281 261.987 52.5469C261.825 52.2656 261.744 51.9297 261.744 51.5391C261.744 50.8411 262.028 50.2917 262.596 49.8906C263.164 49.4844 263.942 49.2812 264.932 49.2812C265.854 49.2812 266.755 49.4688 267.635 49.8438L267.174 50.8984C266.315 50.5443 265.536 50.3672 264.838 50.3672C264.224 50.3672 263.76 50.4635 263.447 50.6562C263.135 50.849 262.979 51.1146 262.979 51.4531C262.979 51.6823 263.036 51.8776 263.151 52.0391C263.27 52.2005 263.461 52.3542 263.721 52.5C263.981 52.6458 264.481 52.8568 265.221 53.1328C266.237 53.5026 266.921 53.875 267.276 54.25C267.635 54.625 267.815 55.0964 267.815 55.6641ZM56.1406 81.0859C56.3698 81.0859 56.5911 81.0703 56.8047 81.0391C57.0182 81.0026 57.1875 80.9661 57.3125 80.9297V81.9219C57.1719 81.9896 56.9635 82.0443 56.6875 82.0859C56.4167 82.1328 56.1719 82.1562 55.9531 82.1562C54.2969 82.1562 53.4688 81.2839 53.4688 79.5391V74.4453H52.2422V73.8203L53.4688 73.2812L54.0156 71.4531H54.7656V73.4375H57.25V74.4453H54.7656V79.4844C54.7656 80 54.888 80.3958 55.1328 80.6719C55.3776 80.9479 55.7135 81.0859 56.1406 81.0859ZM62.4884 82.1562C61.2228 82.1562 60.2228 81.7708 59.4884 81C58.7593 80.2292 58.3947 79.1589 58.3947 77.7891C58.3947 76.4089 58.7332 75.3125 59.4103 74.5C60.0926 73.6875 61.0067 73.2812 62.1525 73.2812C63.2254 73.2812 64.0744 73.6354 64.6994 74.3438C65.3244 75.0469 65.6369 75.9766 65.6369 77.1328V77.9531H59.7384C59.7645 78.9583 60.0171 79.7214 60.4963 80.2422C60.9806 80.763 61.6603 81.0234 62.5353 81.0234C63.4572 81.0234 64.3686 80.8307 65.2697 80.4453V81.6016C64.8114 81.7995 64.3765 81.9401 63.965 82.0234C63.5588 82.112 63.0666 82.1562 62.4884 82.1562ZM62.1369 74.3672C61.4494 74.3672 60.8999 74.5911 60.4884 75.0391C60.0822 75.487 59.8426 76.1068 59.7697 76.8984H64.2463C64.2463 76.0807 64.064 75.4557 63.6994 75.0234C63.3348 74.5859 62.814 74.3672 62.1369 74.3672ZM69.7581 77.6172L66.7816 73.4375H68.2581L70.5159 76.7188L72.7659 73.4375H74.2269L71.2503 77.6172L74.3831 82H72.9144L70.5159 78.5312L68.0941 82H66.6253L69.7581 77.6172ZM78.6919 81.0859C78.921 81.0859 79.1424 81.0703 79.3559 81.0391C79.5695 81.0026 79.7388 80.9661 79.8638 80.9297V81.9219C79.7231 81.9896 79.5148 82.0443 79.2388 82.0859C78.9679 82.1328 78.7231 82.1562 78.5044 82.1562C76.8481 82.1562 76.02 81.2839 76.02 79.5391V74.4453H74.7934V73.8203L76.02 73.2812L76.5669 71.4531H77.3169V73.4375H79.8013V74.4453H77.3169V79.4844C77.3169 80 77.4393 80.3958 77.6841 80.6719C77.9289 80.9479 78.2648 81.0859 78.6919 81.0859ZM88.8131 77.7109C88.8131 79.1068 88.4616 80.1979 87.7584 80.9844C87.0553 81.7656 86.084 82.1562 84.8444 82.1562C84.0788 82.1562 83.3991 81.9766 82.8053 81.6172C82.2116 81.2578 81.7532 80.7422 81.4303 80.0703C81.1074 79.3984 80.9459 78.612 80.9459 77.7109C80.9459 76.3151 81.2949 75.2292 81.9928 74.4531C82.6907 73.6719 83.6595 73.2812 84.8991 73.2812C86.097 73.2812 87.0475 73.6797 87.7506 74.4766C88.459 75.2734 88.8131 76.3516 88.8131 77.7109ZM82.2897 77.7109C82.2897 78.8047 82.5084 79.638 82.9459 80.2109C83.3834 80.7839 84.0267 81.0703 84.8756 81.0703C85.7246 81.0703 86.3678 80.7865 86.8053 80.2188C87.248 79.6458 87.4694 78.8099 87.4694 77.7109C87.4694 76.6224 87.248 75.7969 86.8053 75.2344C86.3678 74.6667 85.7194 74.3828 84.86 74.3828C84.011 74.3828 83.3704 74.6615 82.9381 75.2188C82.5058 75.776 82.2897 76.6068 82.2897 77.7109ZM96.4578 79.6641C96.4578 80.4609 96.1609 81.0755 95.5672 81.5078C94.9734 81.9401 94.1401 82.1562 93.0672 82.1562C91.9318 82.1562 91.0464 81.9766 90.4109 81.6172V80.4141C90.8224 80.6224 91.2625 80.7865 91.7313 80.9062C92.2052 81.026 92.6609 81.0859 93.0984 81.0859C93.7755 81.0859 94.2964 80.9792 94.6609 80.7656C95.0255 80.5469 95.2078 80.2161 95.2078 79.7734C95.2078 79.4401 95.062 79.1562 94.7703 78.9219C94.4839 78.6823 93.9214 78.401 93.0828 78.0781C92.2859 77.7812 91.7182 77.5234 91.3797 77.3047C91.0464 77.0807 90.7964 76.8281 90.6297 76.5469C90.4682 76.2656 90.3875 75.9297 90.3875 75.5391C90.3875 74.8411 90.6714 74.2917 91.2391 73.8906C91.8068 73.4844 92.5854 73.2812 93.575 73.2812C94.4969 73.2812 95.3979 73.4688 96.2781 73.8438L95.8172 74.8984C94.9578 74.5443 94.1792 74.3672 93.4813 74.3672C92.8667 74.3672 92.4031 74.4635 92.0906 74.6562C91.7781 74.849 91.6219 75.1146 91.6219 75.4531C91.6219 75.6823 91.6792 75.8776 91.7938 76.0391C91.9135 76.2005 92.1036 76.3542 92.3641 76.5C92.6245 76.6458 93.1245 76.8568 93.8641 77.1328C94.8797 77.5026 95.5646 77.875 95.9188 78.25C96.2781 78.625 96.4578 79.0964 96.4578 79.6641ZM105.646 81.0703C106.51 81.0703 107.14 80.8385 107.536 80.375C107.932 79.9115 108.143 79.1302 108.169 78.0312V77.7422C108.169 76.5443 107.966 75.6823 107.56 75.1562C107.153 74.6302 106.51 74.3672 105.63 74.3672C104.87 74.3672 104.286 74.6641 103.88 75.2578C103.479 75.8464 103.278 76.6797 103.278 77.7578C103.278 78.8359 103.476 79.6589 103.872 80.2266C104.273 80.7891 104.864 81.0703 105.646 81.0703ZM105.45 82.1562C104.346 82.1562 103.484 81.7682 102.864 80.9922C102.245 80.2161 101.935 79.1328 101.935 77.7422C101.935 76.3411 102.247 75.2474 102.872 74.4609C103.497 73.6745 104.367 73.2812 105.482 73.2812C106.653 73.2812 107.554 73.724 108.185 74.6094H108.255L108.443 73.4375H109.466V85.8438H108.169V82.1797C108.169 81.6589 108.198 81.2161 108.255 80.8516H108.153C107.554 81.7214 106.653 82.1562 105.45 82.1562ZM113.283 73.4375V78.9922C113.283 79.6901 113.441 80.2109 113.759 80.5547C114.077 80.8984 114.574 81.0703 115.251 81.0703C116.147 81.0703 116.801 80.8255 117.212 80.3359C117.629 79.8464 117.837 79.0469 117.837 77.9375V73.4375H119.134V82H118.064L117.876 80.8516H117.806C117.54 81.2734 117.171 81.5964 116.697 81.8203C116.228 82.0443 115.691 82.1562 115.087 82.1562C114.046 82.1562 113.264 81.9089 112.743 81.4141C112.228 80.9193 111.97 80.1276 111.97 79.0391V73.4375H113.283ZM125.349 82.1562C124.083 82.1562 123.083 81.7708 122.349 81C121.62 80.2292 121.255 79.1589 121.255 77.7891C121.255 76.4089 121.594 75.3125 122.271 74.5C122.953 73.6875 123.867 73.2812 125.013 73.2812C126.086 73.2812 126.935 73.6354 127.56 74.3438C128.185 75.0469 128.497 75.9766 128.497 77.1328V77.9531H122.599C122.625 78.9583 122.878 79.7214 123.357 80.2422C123.841 80.763 124.521 81.0234 125.396 81.0234C126.318 81.0234 127.229 80.8307 128.13 80.4453V81.6016C127.672 81.7995 127.237 81.9401 126.826 82.0234C126.419 82.112 125.927 82.1562 125.349 82.1562ZM124.997 74.3672C124.31 74.3672 123.761 74.5911 123.349 75.0391C122.943 75.487 122.703 76.1068 122.63 76.8984H127.107C127.107 76.0807 126.925 75.4557 126.56 75.0234C126.195 74.5859 125.675 74.3672 124.997 74.3672ZM140.076 79.6641C140.076 80.4609 139.779 81.0755 139.185 81.5078C138.592 81.9401 137.758 82.1562 136.685 82.1562C135.55 82.1562 134.664 81.9766 134.029 81.6172V80.4141C134.441 80.6224 134.881 80.7865 135.349 80.9062C135.823 81.026 136.279 81.0859 136.717 81.0859C137.394 81.0859 137.914 80.9792 138.279 80.7656C138.644 80.5469 138.826 80.2161 138.826 79.7734C138.826 79.4401 138.68 79.1562 138.388 78.9219C138.102 78.6823 137.539 78.401 136.701 78.0781C135.904 77.7812 135.336 77.5234 134.998 77.3047C134.664 77.0807 134.414 76.8281 134.248 76.5469C134.086 76.2656 134.006 75.9297 134.006 75.5391C134.006 74.8411 134.289 74.2917 134.857 73.8906C135.425 73.4844 136.204 73.2812 137.193 73.2812C138.115 73.2812 139.016 73.4688 139.896 73.8438L139.435 74.8984C138.576 74.5443 137.797 74.3672 137.099 74.3672C136.485 74.3672 136.021 74.4635 135.709 74.6562C135.396 74.849 135.24 75.1146 135.24 75.4531C135.24 75.6823 135.297 75.8776 135.412 76.0391C135.532 76.2005 135.722 76.3542 135.982 76.5C136.243 76.6458 136.743 76.8568 137.482 77.1328C138.498 77.5026 139.183 77.875 139.537 78.25C139.896 78.625 140.076 79.0964 140.076 79.6641ZM143.252 73.4375V78.9922C143.252 79.6901 143.411 80.2109 143.728 80.5547C144.046 80.8984 144.544 81.0703 145.221 81.0703C146.116 81.0703 146.77 80.8255 147.182 80.3359C147.598 79.8464 147.807 79.0469 147.807 77.9375V73.4375H149.103V82H148.033L147.846 80.8516H147.775C147.51 81.2734 147.14 81.5964 146.666 81.8203C146.197 82.0443 145.661 82.1562 145.057 82.1562C144.015 82.1562 143.234 81.9089 142.713 81.4141C142.197 80.9193 141.939 80.1276 141.939 79.0391V73.4375H143.252ZM155.686 82.1562C155.128 82.1562 154.618 82.0547 154.154 81.8516C153.696 81.6432 153.311 81.3255 152.998 80.8984H152.904C152.967 81.3984 152.998 81.8724 152.998 82.3203V85.8438H151.701V73.4375H152.756L152.936 74.6094H152.998C153.331 74.1406 153.719 73.8021 154.162 73.5938C154.605 73.3854 155.113 73.2812 155.686 73.2812C156.821 73.2812 157.696 73.6693 158.311 74.4453C158.93 75.2214 159.24 76.3099 159.24 77.7109C159.24 79.1172 158.925 80.2109 158.295 80.9922C157.67 81.7682 156.8 82.1562 155.686 82.1562ZM155.498 74.3828C154.623 74.3828 153.99 74.625 153.6 75.1094C153.209 75.5938 153.009 76.3646 152.998 77.4219V77.7109C152.998 78.9141 153.199 79.776 153.6 80.2969C154.001 80.8125 154.644 81.0703 155.529 81.0703C156.269 81.0703 156.847 80.7708 157.264 80.1719C157.686 79.5729 157.897 78.7474 157.897 77.6953C157.897 76.6276 157.686 75.8099 157.264 75.2422C156.847 74.6693 156.259 74.3828 155.498 74.3828ZM164.971 82.1562C163.705 82.1562 162.705 81.7708 161.971 81C161.242 80.2292 160.877 79.1589 160.877 77.7891C160.877 76.4089 161.216 75.3125 161.893 74.5C162.575 73.6875 163.489 73.2812 164.635 73.2812C165.708 73.2812 166.557 73.6354 167.182 74.3438C167.807 75.0469 168.119 75.9766 168.119 77.1328V77.9531H162.221C162.247 78.9583 162.5 79.7214 162.979 80.2422C163.463 80.763 164.143 81.0234 165.018 81.0234C165.94 81.0234 166.851 80.8307 167.752 80.4453V81.6016C167.294 81.7995 166.859 81.9401 166.448 82.0234C166.041 82.112 165.549 82.1562 164.971 82.1562ZM164.619 74.3672C163.932 74.3672 163.382 74.5911 162.971 75.0391C162.565 75.487 162.325 76.1068 162.252 76.8984H166.729C166.729 76.0807 166.546 75.4557 166.182 75.0234C165.817 74.5859 165.296 74.3672 164.619 74.3672ZM174.084 73.2812C174.465 73.2812 174.806 73.3125 175.108 73.375L174.928 74.5781C174.574 74.5 174.261 74.4609 173.991 74.4609C173.298 74.4609 172.704 74.7422 172.209 75.3047C171.72 75.8672 171.475 76.5677 171.475 77.4062V82H170.178V73.4375H171.248L171.397 75.0234H171.459C171.777 74.4661 172.16 74.0365 172.608 73.7344C173.056 73.4323 173.548 73.2812 174.084 73.2812ZM180.167 82.1562C178.901 82.1562 177.901 81.7708 177.167 81C176.437 80.2292 176.073 79.1589 176.073 77.7891C176.073 76.4089 176.411 75.3125 177.088 74.5C177.771 73.6875 178.685 73.2812 179.831 73.2812C180.904 73.2812 181.753 73.6354 182.378 74.3438C183.003 75.0469 183.315 75.9766 183.315 77.1328V77.9531H177.417C177.443 78.9583 177.695 79.7214 178.174 80.2422C178.659 80.763 179.338 81.0234 180.213 81.0234C181.135 81.0234 182.047 80.8307 182.948 80.4453V81.6016C182.489 81.7995 182.055 81.9401 181.643 82.0234C181.237 82.112 180.745 82.1562 180.167 82.1562ZM179.815 74.3672C179.128 74.3672 178.578 74.5911 178.167 75.0391C177.76 75.487 177.521 76.1068 177.448 76.8984H181.924C181.924 76.0807 181.742 75.4557 181.378 75.0234C181.013 74.5859 180.492 74.3672 179.815 74.3672ZM191.233 82V76.4609C191.233 75.763 191.074 75.2422 190.757 74.8984C190.439 74.5547 189.941 74.3828 189.264 74.3828C188.369 74.3828 187.712 74.625 187.296 75.1094C186.879 75.5938 186.671 76.3932 186.671 77.5078V82H185.374V73.4375H186.428L186.639 74.6094H186.702C186.967 74.1875 187.34 73.862 187.819 73.6328C188.298 73.3984 188.832 73.2812 189.421 73.2812C190.452 73.2812 191.228 73.5312 191.749 74.0312C192.27 74.526 192.53 75.3203 192.53 76.4141V82H191.233ZM205.523 73.2656C205.523 73.9948 205.317 74.5911 204.905 75.0547C204.499 75.5182 203.921 75.8281 203.171 75.9844V76.0469C204.088 76.1615 204.767 76.4531 205.21 76.9219C205.653 77.3906 205.874 78.0052 205.874 78.7656C205.874 79.8542 205.496 80.6927 204.741 81.2812C203.986 81.8646 202.913 82.1562 201.523 82.1562C200.918 82.1562 200.364 82.1094 199.858 82.0156C199.358 81.9271 198.871 81.7682 198.398 81.5391V80.3047C198.892 80.5495 199.418 80.737 199.976 80.8672C200.538 80.9922 201.069 81.0547 201.569 81.0547C203.543 81.0547 204.53 80.2812 204.53 78.7344C204.53 77.349 203.442 76.6562 201.265 76.6562H200.14V75.5391H201.28C202.171 75.5391 202.877 75.3438 203.398 74.9531C203.918 74.5573 204.179 74.0104 204.179 73.3125C204.179 72.7552 203.986 72.3177 203.601 72C203.22 71.6823 202.702 71.5234 202.046 71.5234C201.546 71.5234 201.075 71.5911 200.632 71.7266C200.189 71.862 199.684 72.112 199.116 72.4766L198.46 71.6016C198.929 71.2318 199.468 70.9427 200.077 70.7344C200.692 70.5208 201.338 70.4141 202.015 70.4141C203.124 70.4141 203.986 70.6693 204.601 71.1797C205.215 71.6849 205.523 72.3802 205.523 73.2656ZM213.327 82H212.031V69.8438H213.327V82ZM217.214 82H215.917V73.4375H217.214V82ZM215.863 72.1094C216.113 71.7865 216.381 71.3958 216.667 70.9375C216.959 70.4792 217.188 70.0807 217.355 69.7422H218.933V69.9062C218.704 70.2448 218.363 70.6615 217.91 71.1562C217.457 71.651 217.063 72.0339 216.73 72.3047H215.863V72.1094ZM225.664 82V76.4609C225.664 75.763 225.505 75.2422 225.187 74.8984C224.869 74.5547 224.372 74.3828 223.695 74.3828C222.799 74.3828 222.143 74.625 221.726 75.1094C221.31 75.5938 221.101 76.3932 221.101 77.5078V82H219.804V73.4375H220.859L221.07 74.6094H221.133C221.398 74.1875 221.771 73.862 222.25 73.6328C222.729 73.3984 223.263 73.2812 223.851 73.2812C224.883 73.2812 225.659 73.5312 226.179 74.0312C226.7 74.526 226.961 75.3203 226.961 76.4141V82H225.664ZM233.09 82.1562C231.824 82.1562 230.824 81.7708 230.09 81C229.361 80.2292 228.996 79.1589 228.996 77.7891C228.996 76.4089 229.334 75.3125 230.012 74.5C230.694 73.6875 231.608 73.2812 232.754 73.2812C233.827 73.2812 234.676 73.6354 235.301 74.3438C235.926 75.0469 236.238 75.9766 236.238 77.1328V77.9531H230.34C230.366 78.9583 230.618 79.7214 231.098 80.2422C231.582 80.763 232.262 81.0234 233.137 81.0234C234.058 81.0234 234.97 80.8307 235.871 80.4453V81.6016C235.413 81.7995 234.978 81.9401 234.566 82.0234C234.16 82.112 233.668 82.1562 233.09 82.1562ZM232.738 74.3672C232.051 74.3672 231.501 74.5911 231.09 75.0391C230.683 75.487 230.444 76.1068 230.371 76.8984H234.848C234.848 76.0807 234.665 75.4557 234.301 75.0234C233.936 74.5859 233.415 74.3672 232.738 74.3672ZM243.562 82L243.305 80.7812H243.242C242.815 81.3177 242.388 81.6823 241.961 81.875C241.539 82.0625 241.01 82.1562 240.375 82.1562C239.526 82.1562 238.859 81.9375 238.375 81.5C237.896 81.0625 237.656 80.4401 237.656 79.6328C237.656 77.9036 239.039 76.9974 241.805 76.9141L243.258 76.8672V76.3359C243.258 75.6641 243.112 75.1693 242.82 74.8516C242.534 74.5286 242.073 74.3672 241.438 74.3672C240.724 74.3672 239.917 74.5859 239.016 75.0234L238.617 74.0312C239.039 73.8021 239.5 73.6224 240 73.4922C240.505 73.362 241.01 73.2969 241.516 73.2969C242.536 73.2969 243.292 73.5234 243.781 73.9766C244.276 74.4297 244.523 75.1562 244.523 76.1562V82H243.562ZM240.633 81.0859C241.44 81.0859 242.073 80.8646 242.531 80.4219C242.995 79.9792 243.227 79.3594 243.227 78.5625V77.7891L241.93 77.8438C240.898 77.8802 240.154 78.0417 239.695 78.3281C239.242 78.6094 239.016 79.0495 239.016 79.6484C239.016 80.1172 239.156 80.474 239.438 80.7188C239.724 80.9635 240.122 81.0859 240.633 81.0859ZM252.567 79.6641C252.567 80.4609 252.27 81.0755 251.676 81.5078C251.082 81.9401 250.249 82.1562 249.176 82.1562C248.041 82.1562 247.155 81.9766 246.52 81.6172V80.4141C246.931 80.6224 247.371 80.7865 247.84 80.9062C248.314 81.026 248.77 81.0859 249.207 81.0859C249.884 81.0859 250.405 80.9792 250.77 80.7656C251.134 80.5469 251.317 80.2161 251.317 79.7734C251.317 79.4401 251.171 79.1562 250.879 78.9219C250.593 78.6823 250.03 78.401 249.192 78.0781C248.395 77.7812 247.827 77.5234 247.488 77.3047C247.155 77.0807 246.905 76.8281 246.738 76.5469C246.577 76.2656 246.496 75.9297 246.496 75.5391C246.496 74.8411 246.78 74.2917 247.348 73.8906C247.916 73.4844 248.694 73.2812 249.684 73.2812C250.606 73.2812 251.507 73.4688 252.387 73.8438L251.926 74.8984C251.067 74.5443 250.288 74.3672 249.59 74.3672C248.975 74.3672 248.512 74.4635 248.199 74.6562C247.887 74.849 247.731 75.1146 247.731 75.4531C247.731 75.6823 247.788 75.8776 247.902 76.0391C248.022 76.2005 248.212 76.3542 248.473 76.5C248.733 76.6458 249.233 76.8568 249.973 77.1328C250.988 77.5026 251.673 77.875 252.027 78.25C252.387 78.625 252.567 79.0964 252.567 79.6641ZM264.348 80.8516H264.278C263.679 81.7214 262.783 82.1562 261.59 82.1562C260.471 82.1562 259.598 81.7734 258.973 81.0078C258.353 80.2422 258.043 79.1536 258.043 77.7422C258.043 76.3307 258.356 75.2344 258.981 74.4531C259.606 73.6719 260.476 73.2812 261.59 73.2812C262.752 73.2812 263.642 73.7031 264.262 74.5469H264.364L264.309 73.9297L264.278 73.3281V69.8438H265.575V82H264.52L264.348 80.8516ZM261.754 81.0703C262.64 81.0703 263.28 80.8307 263.676 80.3516C264.077 79.8672 264.278 79.0885 264.278 78.0156V77.7422C264.278 76.5286 264.075 75.6641 263.668 75.1484C263.267 74.6276 262.624 74.3672 261.739 74.3672C260.978 74.3672 260.395 74.6641 259.989 75.2578C259.588 75.8464 259.387 76.6797 259.387 77.7578C259.387 78.8516 259.588 79.6771 259.989 80.2344C260.39 80.7917 260.978 81.0703 261.754 81.0703ZM271.79 82.1562C270.524 82.1562 269.524 81.7708 268.79 81C268.061 80.2292 267.696 79.1589 267.696 77.7891C267.696 76.4089 268.034 75.3125 268.712 74.5C269.394 73.6875 270.308 73.2812 271.454 73.2812C272.527 73.2812 273.376 73.6354 274.001 74.3438C274.626 75.0469 274.938 75.9766 274.938 77.1328V77.9531H269.04C269.066 78.9583 269.318 79.7214 269.798 80.2422C270.282 80.763 270.962 81.0234 271.837 81.0234C272.758 81.0234 273.67 80.8307 274.571 80.4453V81.6016C274.113 81.7995 273.678 81.9401 273.266 82.0234C272.86 82.112 272.368 82.1562 271.79 82.1562ZM271.438 74.3672C270.751 74.3672 270.201 74.5911 269.79 75.0391C269.383 75.487 269.144 76.1068 269.071 76.8984H273.548C273.548 76.0807 273.365 75.4557 273.001 75.0234C272.636 74.5859 272.115 74.3672 271.438 74.3672ZM283.759 81.0859C283.988 81.0859 284.209 81.0703 284.423 81.0391C284.636 81.0026 284.806 80.9661 284.931 80.9297V81.9219C284.79 81.9896 284.582 82.0443 284.306 82.0859C284.035 82.1328 283.79 82.1562 283.571 82.1562C281.915 82.1562 281.087 81.2839 281.087 79.5391V74.4453H279.86V73.8203L281.087 73.2812L281.634 71.4531H282.384V73.4375H284.868V74.4453H282.384V79.4844C282.384 80 282.506 80.3958 282.751 80.6719C282.996 80.9479 283.332 81.0859 283.759 81.0859ZM290.107 82.1562C288.841 82.1562 287.841 81.7708 287.107 81C286.377 80.2292 286.013 79.1589 286.013 77.7891C286.013 76.4089 286.351 75.3125 287.028 74.5C287.711 73.6875 288.625 73.2812 289.771 73.2812C290.844 73.2812 291.693 73.6354 292.318 74.3438C292.943 75.0469 293.255 75.9766 293.255 77.1328V77.9531H287.357C287.383 78.9583 287.635 79.7214 288.114 80.2422C288.599 80.763 289.278 81.0234 290.153 81.0234C291.075 81.0234 291.987 80.8307 292.888 80.4453V81.6016C292.429 81.7995 291.995 81.9401 291.583 82.0234C291.177 82.112 290.685 82.1562 290.107 82.1562ZM289.755 74.3672C289.068 74.3672 288.518 74.5911 288.107 75.0391C287.7 75.487 287.461 76.1068 287.388 76.8984H291.864C291.864 76.0807 291.682 75.4557 291.318 75.0234C290.953 74.5859 290.432 74.3672 289.755 74.3672ZM295.126 81.1719C295.126 80.8229 295.204 80.5599 295.361 80.3828C295.522 80.2005 295.751 80.1094 296.048 80.1094C296.35 80.1094 296.585 80.2005 296.751 80.3828C296.923 80.5599 297.009 80.8229 297.009 81.1719C297.009 81.5104 296.923 81.7708 296.751 81.9531C296.579 82.1354 296.345 82.2266 296.048 82.2266C295.783 82.2266 295.561 82.1458 295.384 81.9844C295.212 81.8177 295.126 81.5469 295.126 81.1719ZM299.267 81.1719C299.267 80.8229 299.345 80.5599 299.501 80.3828C299.663 80.2005 299.892 80.1094 300.189 80.1094C300.491 80.1094 300.725 80.2005 300.892 80.3828C301.064 80.5599 301.15 80.8229 301.15 81.1719C301.15 81.5104 301.064 81.7708 300.892 81.9531C300.72 82.1354 300.486 82.2266 300.189 82.2266C299.923 82.2266 299.702 82.1458 299.525 81.9844C299.353 81.8177 299.267 81.5469 299.267 81.1719ZM303.415 81.1719C303.415 80.8229 303.493 80.5599 303.65 80.3828C303.811 80.2005 304.04 80.1094 304.337 80.1094C304.639 80.1094 304.874 80.2005 305.04 80.3828C305.212 80.5599 305.298 80.8229 305.298 81.1719C305.298 81.5104 305.212 81.7708 305.04 81.9531C304.868 82.1354 304.634 82.2266 304.337 82.2266C304.072 82.2266 303.85 82.1458 303.673 81.9844C303.501 81.8177 303.415 81.5469 303.415 81.1719Z" fill="white"/>
<rect x="52" y="100" width="61" height="30" rx="8" fill="#5C6A7A"/>
<path d="M62.32 120C61.968 120 61.696 119.909 61.504 119.728C61.3227 119.536 61.232 119.264 61.232 118.912V109.808C61.232 109.456 61.3227 109.189 61.504 109.008C61.696 108.816 61.968 108.72 62.32 108.72H66.16C66.9493 108.72 67.6213 108.837 68.176 109.072C68.7307 109.307 69.152 109.643 69.44 110.08C69.7387 110.517 69.888 111.04 69.888 111.648C69.888 112.331 69.6907 112.907 69.296 113.376C68.9013 113.845 68.3627 114.16 67.68 114.32V114.08C68.4693 114.197 69.0827 114.496 69.52 114.976C69.9573 115.456 70.176 116.08 70.176 116.848C70.176 117.851 69.8347 118.629 69.152 119.184C68.48 119.728 67.5413 120 66.336 120H62.32ZM63.2 118.448H66.08C66.8053 118.448 67.3387 118.309 67.68 118.032C68.0213 117.744 68.192 117.317 68.192 116.752C68.192 116.176 68.0213 115.749 67.68 115.472C67.3387 115.195 66.8053 115.056 66.08 115.056H63.2V118.448ZM63.2 113.504H65.808C66.512 113.504 67.0347 113.371 67.376 113.104C67.728 112.827 67.904 112.421 67.904 111.888C67.904 111.355 67.728 110.955 67.376 110.688C67.0347 110.411 66.512 110.272 65.808 110.272H63.2V113.504ZM75.6236 120.16C74.813 120.16 74.109 119.995 73.5116 119.664C72.9143 119.333 72.4503 118.864 72.1196 118.256C71.789 117.637 71.6236 116.912 71.6236 116.08C71.6236 115.451 71.7143 114.891 71.8956 114.4C72.0876 113.899 72.3596 113.472 72.7116 113.12C73.0636 112.757 73.485 112.485 73.9756 112.304C74.4663 112.112 75.0156 112.016 75.6236 112.016C76.4343 112.016 77.1383 112.181 77.7356 112.512C78.333 112.843 78.797 113.312 79.1276 113.92C79.4583 114.528 79.6236 115.248 79.6236 116.08C79.6236 116.709 79.5276 117.275 79.3356 117.776C79.1543 118.277 78.8876 118.709 78.5356 119.072C78.1836 119.424 77.7623 119.696 77.2716 119.888C76.781 120.069 76.2316 120.16 75.6236 120.16ZM75.6236 118.64C76.0183 118.64 76.365 118.544 76.6636 118.352C76.9623 118.16 77.1916 117.877 77.3516 117.504C77.5223 117.12 77.6076 116.645 77.6076 116.08C77.6076 115.227 77.4263 114.592 77.0636 114.176C76.701 113.749 76.221 113.536 75.6236 113.536C75.229 113.536 74.8823 113.632 74.5836 113.824C74.285 114.005 74.0503 114.288 73.8796 114.672C73.7196 115.045 73.6396 115.515 73.6396 116.08C73.6396 116.923 73.821 117.563 74.1836 118C74.5463 118.427 75.0263 118.64 75.6236 118.64ZM84.7803 120.16C84.0869 120.16 83.5056 120.043 83.0363 119.808C82.5776 119.573 82.2363 119.232 82.0123 118.784C81.7883 118.325 81.6763 117.76 81.6763 117.088V113.68H80.8443C80.5883 113.68 80.3909 113.616 80.2523 113.488C80.1136 113.349 80.0442 113.163 80.0442 112.928C80.0442 112.683 80.1136 112.496 80.2523 112.368C80.3909 112.24 80.5883 112.176 80.8443 112.176H81.6763V110.72C81.6763 110.389 81.7616 110.139 81.9323 109.968C82.1136 109.797 82.3643 109.712 82.6843 109.712C83.0043 109.712 83.2496 109.797 83.4203 109.968C83.5909 110.139 83.6763 110.389 83.6763 110.72V112.176H85.3723C85.6283 112.176 85.8256 112.24 85.9643 112.368C86.1029 112.496 86.1723 112.683 86.1723 112.928C86.1723 113.163 86.1029 113.349 85.9643 113.488C85.8256 113.616 85.6283 113.68 85.3723 113.68H83.6763V116.976C83.6763 117.488 83.7883 117.872 84.0123 118.128C84.2363 118.384 84.5989 118.512 85.1003 118.512C85.2816 118.512 85.4416 118.496 85.5803 118.464C85.7189 118.432 85.8416 118.411 85.9483 118.4C86.0763 118.389 86.1829 118.432 86.2683 118.528C86.3536 118.613 86.3963 118.795 86.3963 119.072C86.3963 119.285 86.3589 119.477 86.2843 119.648C86.2203 119.808 86.0976 119.92 85.9163 119.984C85.7776 120.027 85.5963 120.064 85.3723 120.096C85.1483 120.139 84.9509 120.16 84.7803 120.16ZM90.8268 120.16C90.0161 120.16 89.3121 119.995 88.7148 119.664C88.1174 119.333 87.6534 118.864 87.3228 118.256C86.9921 117.637 86.8268 116.912 86.8268 116.08C86.8268 115.451 86.9174 114.891 87.0988 114.4C87.2908 113.899 87.5628 113.472 87.9148 113.12C88.2668 112.757 88.6881 112.485 89.1788 112.304C89.6694 112.112 90.2188 112.016 90.8268 112.016C91.6374 112.016 92.3414 112.181 92.9388 112.512C93.5361 112.843 94.0001 113.312 94.3308 113.92C94.6614 114.528 94.8268 115.248 94.8268 116.08C94.8268 116.709 94.7308 117.275 94.5388 117.776C94.3574 118.277 94.0908 118.709 93.7388 119.072C93.3868 119.424 92.9654 119.696 92.4748 119.888C91.9841 120.069 91.4348 120.16 90.8268 120.16ZM90.8268 118.64C91.2214 118.64 91.5681 118.544 91.8668 118.352C92.1654 118.16 92.3948 117.877 92.5548 117.504C92.7254 117.12 92.8108 116.645 92.8108 116.08C92.8108 115.227 92.6294 114.592 92.2668 114.176C91.9041 113.749 91.4241 113.536 90.8268 113.536C90.4321 113.536 90.0854 113.632 89.7868 113.824C89.4881 114.005 89.2534 114.288 89.0828 114.672C88.9228 115.045 88.8428 115.515 88.8428 116.08C88.8428 116.923 89.0241 117.563 89.3868 118C89.7494 118.427 90.2294 118.64 90.8268 118.64ZM91.5788 111.04C91.4721 111.189 91.3441 111.275 91.1948 111.296C91.0454 111.317 90.9014 111.291 90.7628 111.216C90.6241 111.141 90.5228 111.035 90.4588 110.896C90.4054 110.757 90.4214 110.603 90.5068 110.432L91.7228 108.048C91.8188 107.845 91.9468 107.717 92.1068 107.664C92.2668 107.6 92.4321 107.589 92.6028 107.632C92.7734 107.675 92.9174 107.755 93.0348 107.872C93.1628 107.989 93.2374 108.133 93.2588 108.304C93.2908 108.464 93.2481 108.629 93.1308 108.8L91.5788 111.04ZM97.4695 120.128C97.1495 120.128 96.9042 120.043 96.7335 119.872C96.5628 119.691 96.4775 119.435 96.4775 119.104V113.056C96.4775 112.725 96.5628 112.475 96.7335 112.304C96.9042 112.133 97.1442 112.048 97.4535 112.048C97.7628 112.048 98.0028 112.133 98.1735 112.304C98.3442 112.475 98.4295 112.725 98.4295 113.056V114.144L98.2535 113.744C98.4882 113.179 98.8508 112.752 99.3415 112.464C99.8428 112.165 100.408 112.016 101.038 112.016C101.667 112.016 102.184 112.133 102.59 112.368C102.995 112.603 103.299 112.96 103.502 113.44C103.704 113.909 103.806 114.507 103.806 115.232V119.104C103.806 119.435 103.72 119.691 103.55 119.872C103.379 120.043 103.134 120.128 102.814 120.128C102.494 120.128 102.243 120.043 102.062 119.872C101.891 119.691 101.806 119.435 101.806 119.104V115.328C101.806 114.72 101.688 114.277 101.454 114C101.23 113.723 100.878 113.584 100.398 113.584C99.8108 113.584 99.3415 113.771 98.9895 114.144C98.6482 114.507 98.4775 114.992 98.4775 115.6V119.104C98.4775 119.787 98.1415 120.128 97.4695 120.128Z" fill="white"/>
</svg>
