<svg width="712" height="62" viewBox="0 0 712 62" fill="none" xmlns="http://www.w3.org/2000/svg">
<rect width="712" height="62" fill="#38485C"/>
<path d="M69.269 29.9121C68.059 29.5821 66.959 28.4521 66.979 27.0221C66.989 26.4621 66.579 26.0021 66.019 26.0121C63.829 26.0421 61.999 24.2321 61.999 22.0321C61.999 21.5421 61.649 21.1321 61.159 21.0721C54.529 20.2321 49.999 25.8221 49.999 31.0121C49.999 36.5321 54.479 41.0121 59.999 41.0121C65.609 41.0121 70.109 36.3921 69.999 30.8321C69.989 30.3921 69.689 30.0221 69.269 29.9121ZM56.499 34.0121C55.669 34.0121 54.999 33.3421 54.999 32.5121C54.999 31.6821 55.669 31.0121 56.499 31.0121C57.329 31.0121 57.999 31.6821 57.999 32.5121C57.999 33.3421 57.329 34.0121 56.499 34.0121ZM58.499 29.0121C57.669 29.0121 56.999 28.3421 56.999 27.5121C56.999 26.6821 57.669 26.0121 58.499 26.0121C59.329 26.0121 59.999 26.6821 59.999 27.5121C59.999 28.3421 59.329 29.0121 58.499 29.0121ZM62.999 35.0121C62.449 35.0121 61.999 34.5621 61.999 34.0121C61.999 33.4621 62.449 33.0121 62.999 33.0121C63.549 33.0121 63.999 33.4621 63.999 34.0121C63.999 34.5621 63.549 35.0121 62.999 35.0121Z" fill="white"/>
<path d="M91.9375 37H85.5703V25.5781H91.9375V26.7578H86.8984V30.4375H91.6328V31.6094H86.8984V35.8125H91.9375V37ZM99.8047 34.6641C99.8047 35.4609 99.5078 36.0755 98.9141 36.5078C98.3203 36.9401 97.487 37.1562 96.4141 37.1562C95.2786 37.1562 94.3932 36.9766 93.7578 36.6172V35.4141C94.1693 35.6224 94.6094 35.7865 95.0781 35.9062C95.5521 36.026 96.0078 36.0859 96.4453 36.0859C97.1224 36.0859 97.6432 35.9792 98.0078 35.7656C98.3724 35.5469 98.5547 35.2161 98.5547 34.7734C98.5547 34.4401 98.4089 34.1562 98.1172 33.9219C97.8307 33.6823 97.2682 33.401 96.4297 33.0781C95.6328 32.7812 95.0651 32.5234 94.7266 32.3047C94.3932 32.0807 94.1432 31.8281 93.9766 31.5469C93.8151 31.2656 93.7344 30.9297 93.7344 30.5391C93.7344 29.8411 94.0182 29.2917 94.5859 28.8906C95.1536 28.4844 95.9323 28.2812 96.9219 28.2812C97.8438 28.2812 98.7448 28.4688 99.625 28.8438L99.1641 29.8984C98.3047 29.5443 97.526 29.3672 96.8281 29.3672C96.2135 29.3672 95.75 29.4635 95.4375 29.6562C95.125 29.849 94.9688 30.1146 94.9688 30.4531C94.9688 30.6823 95.026 30.8776 95.1406 31.0391C95.2604 31.2005 95.4505 31.3542 95.7109 31.5C95.9714 31.6458 96.4714 31.8568 97.2109 32.1328C98.2266 32.5026 98.9115 32.875 99.2656 33.25C99.625 33.625 99.8047 34.0964 99.8047 34.6641ZM104.688 36.0859C104.917 36.0859 105.138 36.0703 105.352 36.0391C105.565 36.0026 105.734 35.9661 105.859 35.9297V36.9219C105.719 36.9896 105.51 37.0443 105.234 37.0859C104.964 37.1328 104.719 37.1562 104.5 37.1562C102.844 37.1562 102.016 36.2839 102.016 34.5391V29.4453H100.789V28.8203L102.016 28.2812L102.562 26.4531H103.312V28.4375H105.797V29.4453H103.312V34.4844C103.312 35 103.435 35.3958 103.68 35.6719C103.924 35.9479 104.26 36.0859 104.688 36.0859ZM111.195 37.1562C109.93 37.1562 108.93 36.7708 108.195 36C107.466 35.2292 107.102 34.1589 107.102 32.7891C107.102 31.4089 107.44 30.3125 108.117 29.5C108.799 28.6875 109.714 28.2812 110.859 28.2812C111.932 28.2812 112.781 28.6354 113.406 29.3438C114.031 30.0469 114.344 30.9766 114.344 32.1328V32.9531H108.445C108.471 33.9583 108.724 34.7214 109.203 35.2422C109.688 35.763 110.367 36.0234 111.242 36.0234C112.164 36.0234 113.076 35.8307 113.977 35.4453V36.6016C113.518 36.7995 113.083 36.9401 112.672 37.0234C112.266 37.112 111.773 37.1562 111.195 37.1562ZM110.844 29.3672C110.156 29.3672 109.607 29.5911 109.195 30.0391C108.789 30.487 108.549 31.1068 108.477 31.8984H112.953C112.953 31.0807 112.771 30.4557 112.406 30.0234C112.042 29.5859 111.521 29.3672 110.844 29.3672ZM124.703 28.2969C125.828 28.2969 126.701 28.6823 127.32 29.4531C127.945 30.2188 128.258 31.3047 128.258 32.7109C128.258 34.1172 127.943 35.2109 127.312 35.9922C126.688 36.7682 125.818 37.1562 124.703 37.1562C124.146 37.1562 123.635 37.0547 123.172 36.8516C122.714 36.6432 122.328 36.3255 122.016 35.8984H121.922L121.648 37H120.719V24.8438H122.016V27.7969C122.016 28.4583 121.995 29.0521 121.953 29.5781H122.016C122.62 28.724 123.516 28.2969 124.703 28.2969ZM124.516 29.3828C123.63 29.3828 122.992 29.638 122.602 30.1484C122.211 30.6536 122.016 31.5078 122.016 32.7109C122.016 33.9141 122.216 34.776 122.617 35.2969C123.018 35.8125 123.661 36.0703 124.547 36.0703C125.344 36.0703 125.938 35.7812 126.328 35.2031C126.719 34.6198 126.914 33.7839 126.914 32.6953C126.914 31.5807 126.719 30.75 126.328 30.2031C125.938 29.6562 125.333 29.3828 124.516 29.3828ZM135.797 37L135.539 35.7812H135.477C135.049 36.3177 134.622 36.6823 134.195 36.875C133.773 37.0625 133.245 37.1562 132.609 37.1562C131.76 37.1562 131.094 36.9375 130.609 36.5C130.13 36.0625 129.891 35.4401 129.891 34.6328C129.891 32.9036 131.273 31.9974 134.039 31.9141L135.492 31.8672V31.3359C135.492 30.6641 135.346 30.1693 135.055 29.8516C134.768 29.5286 134.307 29.3672 133.672 29.3672C132.958 29.3672 132.151 29.5859 131.25 30.0234L130.852 29.0312C131.273 28.8021 131.734 28.6224 132.234 28.4922C132.74 28.362 133.245 28.2969 133.75 28.2969C134.771 28.2969 135.526 28.5234 136.016 28.9766C136.51 29.4297 136.758 30.1562 136.758 31.1562V37H135.797ZM132.867 36.0859C133.674 36.0859 134.307 35.8646 134.766 35.4219C135.229 34.9792 135.461 34.3594 135.461 33.5625V32.7891L134.164 32.8438C133.133 32.8802 132.388 33.0417 131.93 33.3281C131.477 33.6094 131.25 34.0495 131.25 34.6484C131.25 35.1172 131.391 35.474 131.672 35.7188C131.958 35.9635 132.357 36.0859 132.867 36.0859ZM145.297 37V31.4609C145.297 30.763 145.138 30.2422 144.82 29.8984C144.503 29.5547 144.005 29.3828 143.328 29.3828C142.432 29.3828 141.776 29.625 141.359 30.1094C140.943 30.5938 140.734 31.3932 140.734 32.5078V37H139.438V28.4375H140.492L140.703 29.6094H140.766C141.031 29.1875 141.404 28.862 141.883 28.6328C142.362 28.3984 142.896 28.2812 143.484 28.2812C144.516 28.2812 145.292 28.5312 145.812 29.0312C146.333 29.526 146.594 30.3203 146.594 31.4141V37H145.297ZM155.125 37V31.4609C155.125 30.763 154.966 30.2422 154.648 29.8984C154.331 29.5547 153.833 29.3828 153.156 29.3828C152.26 29.3828 151.604 29.625 151.188 30.1094C150.771 30.5938 150.562 31.3932 150.562 32.5078V37H149.266V28.4375H150.32L150.531 29.6094H150.594C150.859 29.1875 151.232 28.862 151.711 28.6328C152.19 28.3984 152.724 28.2812 153.312 28.2812C154.344 28.2812 155.12 28.5312 155.641 29.0312C156.161 29.526 156.422 30.3203 156.422 31.4141V37H155.125ZM162.711 37.1562C161.445 37.1562 160.445 36.7708 159.711 36C158.982 35.2292 158.617 34.1589 158.617 32.7891C158.617 31.4089 158.956 30.3125 159.633 29.5C160.315 28.6875 161.229 28.2812 162.375 28.2812C163.448 28.2812 164.297 28.6354 164.922 29.3438C165.547 30.0469 165.859 30.9766 165.859 32.1328V32.9531H159.961C159.987 33.9583 160.24 34.7214 160.719 35.2422C161.203 35.763 161.883 36.0234 162.758 36.0234C163.68 36.0234 164.591 35.8307 165.492 35.4453V36.6016C165.034 36.7995 164.599 36.9401 164.188 37.0234C163.781 37.112 163.289 37.1562 162.711 37.1562ZM162.359 29.3672C161.672 29.3672 161.122 29.5911 160.711 30.0391C160.305 30.487 160.065 31.1068 159.992 31.8984H164.469C164.469 31.0807 164.286 30.4557 163.922 30.0234C163.557 29.5859 163.036 29.3672 162.359 29.3672ZM171.984 28.2812C172.365 28.2812 172.706 28.3125 173.008 28.375L172.828 29.5781C172.474 29.5 172.161 29.4609 171.891 29.4609C171.198 29.4609 170.604 29.7422 170.109 30.3047C169.62 30.8672 169.375 31.5677 169.375 32.4062V37H168.078V28.4375H169.148L169.297 30.0234H169.359C169.677 29.4661 170.06 29.0365 170.508 28.7344C170.956 28.4323 171.448 28.2812 171.984 28.2812ZM181.531 36.0859C181.76 36.0859 181.982 36.0703 182.195 36.0391C182.409 36.0026 182.578 35.9661 182.703 35.9297V36.9219C182.562 36.9896 182.354 37.0443 182.078 37.0859C181.807 37.1328 181.562 37.1562 181.344 37.1562C179.688 37.1562 178.859 36.2839 178.859 34.5391V29.4453H177.633V28.8203L178.859 28.2812L179.406 26.4531H180.156V28.4375H182.641V29.4453H180.156V34.4844C180.156 35 180.279 35.3958 180.523 35.6719C180.768 35.9479 181.104 36.0859 181.531 36.0859ZM185.719 37H184.422V28.4375H185.719V37ZM184.312 26.1172C184.312 25.8203 184.385 25.6042 184.531 25.4688C184.677 25.3281 184.859 25.2578 185.078 25.2578C185.286 25.2578 185.466 25.3281 185.617 25.4688C185.768 25.6094 185.844 25.8255 185.844 26.1172C185.844 26.4089 185.768 26.6276 185.617 26.7734C185.466 26.9141 185.286 26.9844 185.078 26.9844C184.859 26.9844 184.677 26.9141 184.531 26.7734C184.385 26.6276 184.312 26.4089 184.312 26.1172ZM192.086 37.1562C190.82 37.1562 189.82 36.7708 189.086 36C188.357 35.2292 187.992 34.1589 187.992 32.7891C187.992 31.4089 188.331 30.3125 189.008 29.5C189.69 28.6875 190.604 28.2812 191.75 28.2812C192.823 28.2812 193.672 28.6354 194.297 29.3438C194.922 30.0469 195.234 30.9766 195.234 32.1328V32.9531H189.336C189.362 33.9583 189.615 34.7214 190.094 35.2422C190.578 35.763 191.258 36.0234 192.133 36.0234C193.055 36.0234 193.966 35.8307 194.867 35.4453V36.6016C194.409 36.7995 193.974 36.9401 193.562 37.0234C193.156 37.112 192.664 37.1562 192.086 37.1562ZM191.734 29.3672C191.047 29.3672 190.497 29.5911 190.086 30.0391C189.68 30.487 189.44 31.1068 189.367 31.8984H193.844C193.844 31.0807 193.661 30.4557 193.297 30.0234C192.932 29.5859 192.411 29.3672 191.734 29.3672ZM203.312 37V31.4609C203.312 30.763 203.154 30.2422 202.836 29.8984C202.518 29.5547 202.021 29.3828 201.344 29.3828C200.448 29.3828 199.792 29.625 199.375 30.1094C198.958 30.5938 198.75 31.3932 198.75 32.5078V37H197.453V28.4375H198.508L198.719 29.6094H198.781C199.047 29.1875 199.419 28.862 199.898 28.6328C200.378 28.3984 200.911 28.2812 201.5 28.2812C202.531 28.2812 203.307 28.5312 203.828 29.0312C204.349 29.526 204.609 30.3203 204.609 31.4141V37H203.312ZM210.898 37.1562C209.633 37.1562 208.633 36.7708 207.898 36C207.169 35.2292 206.805 34.1589 206.805 32.7891C206.805 31.4089 207.143 30.3125 207.82 29.5C208.503 28.6875 209.417 28.2812 210.562 28.2812C211.635 28.2812 212.484 28.6354 213.109 29.3438C213.734 30.0469 214.047 30.9766 214.047 32.1328V32.9531H208.148C208.174 33.9583 208.427 34.7214 208.906 35.2422C209.391 35.763 210.07 36.0234 210.945 36.0234C211.867 36.0234 212.779 35.8307 213.68 35.4453V36.6016C213.221 36.7995 212.786 36.9401 212.375 37.0234C211.969 37.112 211.477 37.1562 210.898 37.1562ZM210.547 29.3672C209.859 29.3672 209.31 29.5911 208.898 30.0391C208.492 30.487 208.253 31.1068 208.18 31.8984H212.656C212.656 31.0807 212.474 30.4557 212.109 30.0234C211.745 29.5859 211.224 29.3672 210.547 29.3672ZM226.25 35.8516H226.18C225.581 36.7214 224.685 37.1562 223.492 37.1562C222.372 37.1562 221.5 36.7734 220.875 36.0078C220.255 35.2422 219.945 34.1536 219.945 32.7422C219.945 31.3307 220.258 30.2344 220.883 29.4531C221.508 28.6719 222.378 28.2812 223.492 28.2812C224.654 28.2812 225.544 28.7031 226.164 29.5469H226.266L226.211 28.9297L226.18 28.3281V24.8438H227.477V37H226.422L226.25 35.8516ZM223.656 36.0703C224.542 36.0703 225.182 35.8307 225.578 35.3516C225.979 34.8672 226.18 34.0885 226.18 33.0156V32.7422C226.18 31.5286 225.977 30.6641 225.57 30.1484C225.169 29.6276 224.526 29.3672 223.641 29.3672C222.88 29.3672 222.297 29.6641 221.891 30.2578C221.49 30.8464 221.289 31.6797 221.289 32.7578C221.289 33.8516 221.49 34.6771 221.891 35.2344C222.292 35.7917 222.88 36.0703 223.656 36.0703ZM237.625 32.7109C237.625 34.1068 237.273 35.1979 236.57 35.9844C235.867 36.7656 234.896 37.1562 233.656 37.1562C232.891 37.1562 232.211 36.9766 231.617 36.6172C231.023 36.2578 230.565 35.7422 230.242 35.0703C229.919 34.3984 229.758 33.612 229.758 32.7109C229.758 31.3151 230.107 30.2292 230.805 29.4531C231.503 28.6719 232.471 28.2812 233.711 28.2812C234.909 28.2812 235.859 28.6797 236.562 29.4766C237.271 30.2734 237.625 31.3516 237.625 32.7109ZM231.102 32.7109C231.102 33.8047 231.32 34.638 231.758 35.2109C232.195 35.7839 232.839 36.0703 233.688 36.0703C234.536 36.0703 235.18 35.7865 235.617 35.2188C236.06 34.6458 236.281 33.8099 236.281 32.7109C236.281 31.6224 236.06 30.7969 235.617 30.2344C235.18 29.6667 234.531 29.3828 233.672 29.3828C232.823 29.3828 232.182 29.6615 231.75 30.2188C231.318 30.776 231.102 31.6068 231.102 32.7109ZM245.43 34.6641C245.43 35.4609 245.133 36.0755 244.539 36.5078C243.945 36.9401 243.112 37.1562 242.039 37.1562C240.904 37.1562 240.018 36.9766 239.383 36.6172V35.4141C239.794 35.6224 240.234 35.7865 240.703 35.9062C241.177 36.026 241.633 36.0859 242.07 36.0859C242.747 36.0859 243.268 35.9792 243.633 35.7656C243.997 35.5469 244.18 35.2161 244.18 34.7734C244.18 34.4401 244.034 34.1562 243.742 33.9219C243.456 33.6823 242.893 33.401 242.055 33.0781C241.258 32.7812 240.69 32.5234 240.352 32.3047C240.018 32.0807 239.768 31.8281 239.602 31.5469C239.44 31.2656 239.359 30.9297 239.359 30.5391C239.359 29.8411 239.643 29.2917 240.211 28.8906C240.779 28.4844 241.557 28.2812 242.547 28.2812C243.469 28.2812 244.37 28.4688 245.25 28.8438L244.789 29.8984C243.93 29.5443 243.151 29.3672 242.453 29.3672C241.839 29.3672 241.375 29.4635 241.062 29.6562C240.75 29.849 240.594 30.1146 240.594 30.4531C240.594 30.6823 240.651 30.8776 240.766 31.0391C240.885 31.2005 241.076 31.3542 241.336 31.5C241.596 31.6458 242.096 31.8568 242.836 32.1328C243.852 32.5026 244.536 32.875 244.891 33.25C245.25 33.625 245.43 34.0964 245.43 34.6641ZM255.688 28.2969C256.812 28.2969 257.685 28.6823 258.305 29.4531C258.93 30.2188 259.242 31.3047 259.242 32.7109C259.242 34.1172 258.927 35.2109 258.297 35.9922C257.672 36.7682 256.802 37.1562 255.688 37.1562C255.13 37.1562 254.62 37.0547 254.156 36.8516C253.698 36.6432 253.312 36.3255 253 35.8984H252.906L252.633 37H251.703V24.8438H253V27.7969C253 28.4583 252.979 29.0521 252.938 29.5781H253C253.604 28.724 254.5 28.2969 255.688 28.2969ZM255.5 29.3828C254.615 29.3828 253.977 29.638 253.586 30.1484C253.195 30.6536 253 31.5078 253 32.7109C253 33.9141 253.201 34.776 253.602 35.2969C254.003 35.8125 254.646 36.0703 255.531 36.0703C256.328 36.0703 256.922 35.7812 257.312 35.2031C257.703 34.6198 257.898 33.7839 257.898 32.6953C257.898 31.5807 257.703 30.75 257.312 30.2031C256.922 29.6562 256.318 29.3828 255.5 29.3828ZM268.906 32.7109C268.906 34.1068 268.555 35.1979 267.852 35.9844C267.148 36.7656 266.177 37.1562 264.938 37.1562C264.172 37.1562 263.492 36.9766 262.898 36.6172C262.305 36.2578 261.846 35.7422 261.523 35.0703C261.201 34.3984 261.039 33.612 261.039 32.7109C261.039 31.3151 261.388 30.2292 262.086 29.4531C262.784 28.6719 263.753 28.2812 264.992 28.2812C266.19 28.2812 267.141 28.6797 267.844 29.4766C268.552 30.2734 268.906 31.3516 268.906 32.7109ZM262.383 32.7109C262.383 33.8047 262.602 34.638 263.039 35.2109C263.477 35.7839 264.12 36.0703 264.969 36.0703C265.818 36.0703 266.461 35.7865 266.898 35.2188C267.341 34.6458 267.562 33.8099 267.562 32.7109C267.562 31.6224 267.341 30.7969 266.898 30.2344C266.461 29.6667 265.812 29.3828 264.953 29.3828C264.104 29.3828 263.464 29.6615 263.031 30.2188C262.599 30.776 262.383 31.6068 262.383 32.7109ZM273.953 36.0859C274.182 36.0859 274.404 36.0703 274.617 36.0391C274.831 36.0026 275 35.9661 275.125 35.9297V36.9219C274.984 36.9896 274.776 37.0443 274.5 37.0859C274.229 37.1328 273.984 37.1562 273.766 37.1562C272.109 37.1562 271.281 36.2839 271.281 34.5391V29.4453H270.055V28.8203L271.281 28.2812L271.828 26.4531H272.578V28.4375H275.062V29.4453H272.578V34.4844C272.578 35 272.701 35.3958 272.945 35.6719C273.19 35.9479 273.526 36.0859 273.953 36.0859ZM284.234 32.7109C284.234 34.1068 283.883 35.1979 283.18 35.9844C282.477 36.7656 281.505 37.1562 280.266 37.1562C279.5 37.1562 278.82 36.9766 278.227 36.6172C277.633 36.2578 277.174 35.7422 276.852 35.0703C276.529 34.3984 276.367 33.612 276.367 32.7109C276.367 31.3151 276.716 30.2292 277.414 29.4531C278.112 28.6719 279.081 28.2812 280.32 28.2812C281.518 28.2812 282.469 28.6797 283.172 29.4766C283.88 30.2734 284.234 31.3516 284.234 32.7109ZM277.711 32.7109C277.711 33.8047 277.93 34.638 278.367 35.2109C278.805 35.7839 279.448 36.0703 280.297 36.0703C281.146 36.0703 281.789 35.7865 282.227 35.2188C282.669 34.6458 282.891 33.8099 282.891 32.7109C282.891 31.6224 282.669 30.7969 282.227 30.2344C281.789 29.6667 281.141 29.3828 280.281 29.3828C279.432 29.3828 278.792 29.6615 278.359 30.2188C277.927 30.776 277.711 31.6068 277.711 32.7109ZM292.375 37V31.4609C292.375 30.763 292.216 30.2422 291.898 29.8984C291.581 29.5547 291.083 29.3828 290.406 29.3828C289.51 29.3828 288.854 29.625 288.438 30.1094C288.021 30.5938 287.812 31.3932 287.812 32.5078V37H286.516V28.4375H287.57L287.781 29.6094H287.844C288.109 29.1875 288.482 28.862 288.961 28.6328C289.44 28.3984 289.974 28.2812 290.562 28.2812C291.594 28.2812 292.37 28.5312 292.891 29.0312C293.411 29.526 293.672 30.3203 293.672 31.4141V37H292.375ZM299.961 37.1562C298.695 37.1562 297.695 36.7708 296.961 36C296.232 35.2292 295.867 34.1589 295.867 32.7891C295.867 31.4089 296.206 30.3125 296.883 29.5C297.565 28.6875 298.479 28.2812 299.625 28.2812C300.698 28.2812 301.547 28.6354 302.172 29.3438C302.797 30.0469 303.109 30.9766 303.109 32.1328V32.9531H297.211C297.237 33.9583 297.49 34.7214 297.969 35.2422C298.453 35.763 299.133 36.0234 300.008 36.0234C300.93 36.0234 301.841 35.8307 302.742 35.4453V36.6016C302.284 36.7995 301.849 36.9401 301.438 37.0234C301.031 37.112 300.539 37.1562 299.961 37.1562ZM299.609 29.3672C298.922 29.3672 298.372 29.5911 297.961 30.0391C297.555 30.487 297.315 31.1068 297.242 31.8984H301.719C301.719 31.0807 301.536 30.4557 301.172 30.0234C300.807 29.5859 300.286 29.3672 299.609 29.3672ZM310.852 34.6641C310.852 35.4609 310.555 36.0755 309.961 36.5078C309.367 36.9401 308.534 37.1562 307.461 37.1562C306.326 37.1562 305.44 36.9766 304.805 36.6172V35.4141C305.216 35.6224 305.656 35.7865 306.125 35.9062C306.599 36.026 307.055 36.0859 307.492 36.0859C308.169 36.0859 308.69 35.9792 309.055 35.7656C309.419 35.5469 309.602 35.2161 309.602 34.7734C309.602 34.4401 309.456 34.1562 309.164 33.9219C308.878 33.6823 308.315 33.401 307.477 33.0781C306.68 32.7812 306.112 32.5234 305.773 32.3047C305.44 32.0807 305.19 31.8281 305.023 31.5469C304.862 31.2656 304.781 30.9297 304.781 30.5391C304.781 29.8411 305.065 29.2917 305.633 28.8906C306.201 28.4844 306.979 28.2812 307.969 28.2812C308.891 28.2812 309.792 28.4688 310.672 28.8438L310.211 29.8984C309.352 29.5443 308.573 29.3672 307.875 29.3672C307.26 29.3672 306.797 29.4635 306.484 29.6562C306.172 29.849 306.016 30.1146 306.016 30.4531C306.016 30.6823 306.073 30.8776 306.188 31.0391C306.307 31.2005 306.497 31.3542 306.758 31.5C307.018 31.6458 307.518 31.8568 308.258 32.1328C309.273 32.5026 309.958 32.875 310.312 33.25C310.672 33.625 310.852 34.0964 310.852 34.6641ZM315.766 28.4375H317.156L319.031 33.3203C319.443 34.4349 319.698 35.2396 319.797 35.7344H319.859C319.927 35.4688 320.068 35.0156 320.281 34.375C320.5 33.7292 321.208 31.75 322.406 28.4375H323.797L320.117 38.1875C319.753 39.151 319.326 39.8333 318.836 40.2344C318.352 40.6406 317.755 40.8438 317.047 40.8438C316.651 40.8438 316.26 40.7995 315.875 40.7109V39.6719C316.161 39.7344 316.482 39.7656 316.836 39.7656C317.727 39.7656 318.362 39.2656 318.742 38.2656L319.219 37.0469L315.766 28.4375ZM334.016 37.1562C332.99 37.1562 332.185 36.7839 331.602 36.0391H331.477C331.56 36.7682 331.602 37.1901 331.602 37.3047V40.8438H329.219V28.2656H331.156L331.492 29.3984H331.602C332.159 28.5339 332.984 28.1016 334.078 28.1016C335.109 28.1016 335.917 28.5 336.5 29.2969C337.083 30.0938 337.375 31.2005 337.375 32.6172C337.375 33.5495 337.237 34.3594 336.961 35.0469C336.69 35.7344 336.302 36.2578 335.797 36.6172C335.292 36.9766 334.698 37.1562 334.016 37.1562ZM333.312 30.0078C332.724 30.0078 332.294 30.1901 332.023 30.5547C331.753 30.9141 331.612 31.5104 331.602 32.3438V32.6016C331.602 33.5391 331.74 34.2109 332.016 34.6172C332.297 35.0234 332.74 35.2266 333.344 35.2266C334.411 35.2266 334.945 34.3464 334.945 32.5859C334.945 31.7266 334.812 31.0833 334.547 30.6562C334.286 30.224 333.875 30.0078 333.312 30.0078ZM345.531 37L345.211 35.8828H345.086C344.831 36.2891 344.469 36.6042 344 36.8281C343.531 37.0469 342.997 37.1562 342.398 37.1562C341.372 37.1562 340.599 36.8828 340.078 36.3359C339.557 35.7839 339.297 34.9922 339.297 33.9609V28.2656H341.68V33.3672C341.68 33.9974 341.792 34.4714 342.016 34.7891C342.24 35.1016 342.596 35.2578 343.086 35.2578C343.753 35.2578 344.234 35.0365 344.531 34.5938C344.828 34.1458 344.977 33.4062 344.977 32.375V28.2656H347.359V37H345.531ZM353.477 29.7969C352.971 29.7969 352.576 29.9583 352.289 30.2812C352.003 30.599 351.839 31.0521 351.797 31.6406H355.141C355.13 31.0521 354.977 30.599 354.68 30.2812C354.383 29.9583 353.982 29.7969 353.477 29.7969ZM353.812 37.1562C352.406 37.1562 351.307 36.7682 350.516 35.9922C349.724 35.2161 349.328 34.1172 349.328 32.6953C349.328 31.2318 349.693 30.1016 350.422 29.3047C351.156 28.5026 352.169 28.1016 353.461 28.1016C354.695 28.1016 355.656 28.4531 356.344 29.1562C357.031 29.8594 357.375 30.8307 357.375 32.0703V33.2266H351.742C351.768 33.9036 351.969 34.4323 352.344 34.8125C352.719 35.1927 353.245 35.3828 353.922 35.3828C354.448 35.3828 354.945 35.3281 355.414 35.2188C355.883 35.1094 356.372 34.9349 356.883 34.6953V36.5391C356.466 36.7474 356.021 36.901 355.547 37C355.073 37.1042 354.495 37.1562 353.812 37.1562ZM362.078 37.1562C361.052 37.1562 360.245 36.7578 359.656 35.9609C359.073 35.1641 358.781 34.0599 358.781 32.6484C358.781 31.2161 359.078 30.1016 359.672 29.3047C360.271 28.5026 361.094 28.1016 362.141 28.1016C363.24 28.1016 364.078 28.5286 364.656 29.3828H364.734C364.615 28.7318 364.555 28.151 364.555 27.6406V24.8438H366.945V37H365.117L364.656 35.8672H364.555C364.013 36.7266 363.188 37.1562 362.078 37.1562ZM362.914 35.2578C363.523 35.2578 363.969 35.0807 364.25 34.7266C364.536 34.3724 364.693 33.7708 364.719 32.9219V32.6641C364.719 31.7266 364.573 31.0547 364.281 30.6484C363.995 30.2422 363.526 30.0391 362.875 30.0391C362.344 30.0391 361.93 30.2656 361.633 30.7188C361.341 31.1667 361.195 31.8203 361.195 32.6797C361.195 33.5391 361.344 34.1849 361.641 34.6172C361.938 35.0443 362.362 35.2578 362.914 35.2578ZM373.055 29.7969C372.549 29.7969 372.154 29.9583 371.867 30.2812C371.581 30.599 371.417 31.0521 371.375 31.6406H374.719C374.708 31.0521 374.555 30.599 374.258 30.2812C373.961 29.9583 373.56 29.7969 373.055 29.7969ZM373.391 37.1562C371.984 37.1562 370.885 36.7682 370.094 35.9922C369.302 35.2161 368.906 34.1172 368.906 32.6953C368.906 31.2318 369.271 30.1016 370 29.3047C370.734 28.5026 371.747 28.1016 373.039 28.1016C374.273 28.1016 375.234 28.4531 375.922 29.1562C376.609 29.8594 376.953 30.8307 376.953 32.0703V33.2266H371.32C371.346 33.9036 371.547 34.4323 371.922 34.8125C372.297 35.1927 372.823 35.3828 373.5 35.3828C374.026 35.3828 374.523 35.3281 374.992 35.2188C375.461 35.1094 375.951 34.9349 376.461 34.6953V36.5391C376.044 36.7474 375.599 36.901 375.125 37C374.651 37.1042 374.073 37.1562 373.391 37.1562ZM386.727 35.2578C387.143 35.2578 387.643 35.1667 388.227 34.9844V36.7578C387.633 37.0234 386.904 37.1562 386.039 37.1562C385.086 37.1562 384.391 36.9167 383.953 36.4375C383.521 35.9531 383.305 35.2292 383.305 34.2656V30.0547H382.164V29.0469L383.477 28.25L384.164 26.4062H385.688V28.2656H388.133V30.0547H385.688V34.2656C385.688 34.6042 385.781 34.8542 385.969 35.0156C386.161 35.1771 386.414 35.2578 386.727 35.2578ZM393.617 29.7969C393.112 29.7969 392.716 29.9583 392.43 30.2812C392.143 30.599 391.979 31.0521 391.938 31.6406H395.281C395.271 31.0521 395.117 30.599 394.82 30.2812C394.523 29.9583 394.122 29.7969 393.617 29.7969ZM393.953 37.1562C392.547 37.1562 391.448 36.7682 390.656 35.9922C389.865 35.2161 389.469 34.1172 389.469 32.6953C389.469 31.2318 389.833 30.1016 390.562 29.3047C391.297 28.5026 392.31 28.1016 393.602 28.1016C394.836 28.1016 395.797 28.4531 396.484 29.1562C397.172 29.8594 397.516 30.8307 397.516 32.0703V33.2266H391.883C391.909 33.9036 392.109 34.4323 392.484 34.8125C392.859 35.1927 393.385 35.3828 394.062 35.3828C394.589 35.3828 395.086 35.3281 395.555 35.2188C396.023 35.1094 396.513 34.9349 397.023 34.6953V36.5391C396.607 36.7474 396.161 36.901 395.688 37C395.214 37.1042 394.635 37.1562 393.953 37.1562ZM407.516 37H405.133V31.8984C405.133 31.2682 405.021 30.7969 404.797 30.4844C404.573 30.1667 404.216 30.0078 403.727 30.0078C403.06 30.0078 402.578 30.2318 402.281 30.6797C401.984 31.1224 401.836 31.8594 401.836 32.8906V37H399.453V28.2656H401.273L401.594 29.3828H401.727C401.992 28.9609 402.357 28.6432 402.82 28.4297C403.289 28.2109 403.82 28.1016 404.414 28.1016C405.43 28.1016 406.201 28.3776 406.727 28.9297C407.253 29.4766 407.516 30.2682 407.516 31.3047V37ZM413.586 29.7969C413.081 29.7969 412.685 29.9583 412.398 30.2812C412.112 30.599 411.948 31.0521 411.906 31.6406H415.25C415.24 31.0521 415.086 30.599 414.789 30.2812C414.492 29.9583 414.091 29.7969 413.586 29.7969ZM413.922 37.1562C412.516 37.1562 411.417 36.7682 410.625 35.9922C409.833 35.2161 409.438 34.1172 409.438 32.6953C409.438 31.2318 409.802 30.1016 410.531 29.3047C411.266 28.5026 412.279 28.1016 413.57 28.1016C414.805 28.1016 415.766 28.4531 416.453 29.1562C417.141 29.8594 417.484 30.8307 417.484 32.0703V33.2266H411.852C411.878 33.9036 412.078 34.4323 412.453 34.8125C412.828 35.1927 413.354 35.3828 414.031 35.3828C414.557 35.3828 415.055 35.3281 415.523 35.2188C415.992 35.1094 416.482 34.9349 416.992 34.6953V36.5391C416.576 36.7474 416.13 36.901 415.656 37C415.182 37.1042 414.604 37.1562 413.922 37.1562ZM424.297 28.1016C424.62 28.1016 424.888 28.125 425.102 28.1719L424.922 30.4062C424.729 30.3542 424.495 30.3281 424.219 30.3281C423.458 30.3281 422.865 30.5234 422.438 30.9141C422.016 31.3047 421.805 31.8516 421.805 32.5547V37H419.422V28.2656H421.227L421.578 29.7344H421.695C421.966 29.2448 422.331 28.8516 422.789 28.5547C423.253 28.2526 423.755 28.1016 424.297 28.1016ZM434.461 29.7969C433.956 29.7969 433.56 29.9583 433.273 30.2812C432.987 30.599 432.823 31.0521 432.781 31.6406H436.125C436.115 31.0521 435.961 30.599 435.664 30.2812C435.367 29.9583 434.966 29.7969 434.461 29.7969ZM434.797 37.1562C433.391 37.1562 432.292 36.7682 431.5 35.9922C430.708 35.2161 430.312 34.1172 430.312 32.6953C430.312 31.2318 430.677 30.1016 431.406 29.3047C432.141 28.5026 433.154 28.1016 434.445 28.1016C435.68 28.1016 436.641 28.4531 437.328 29.1562C438.016 29.8594 438.359 30.8307 438.359 32.0703V33.2266H432.727C432.753 33.9036 432.953 34.4323 433.328 34.8125C433.703 35.1927 434.229 35.3828 434.906 35.3828C435.432 35.3828 435.93 35.3281 436.398 35.2188C436.867 35.1094 437.357 34.9349 437.867 34.6953V36.5391C437.451 36.7474 437.005 36.901 436.531 37C436.057 37.1042 435.479 37.1562 434.797 37.1562ZM433.086 27.3047V27.0938C433.982 26.0521 434.594 25.2682 434.922 24.7422H437.594V24.9062C437.323 25.1771 436.859 25.5807 436.203 26.1172C435.552 26.6484 435.042 27.0443 434.672 27.3047H433.086ZM448.359 37H445.977V31.8984C445.977 31.2682 445.865 30.7969 445.641 30.4844C445.417 30.1667 445.06 30.0078 444.57 30.0078C443.904 30.0078 443.422 30.2318 443.125 30.6797C442.828 31.1224 442.68 31.8594 442.68 32.8906V37H440.297V28.2656H442.117L442.438 29.3828H442.57C442.836 28.9609 443.201 28.6432 443.664 28.4297C444.133 28.2109 444.664 28.1016 445.258 28.1016C446.273 28.1016 447.044 28.3776 447.57 28.9297C448.096 29.4766 448.359 30.2682 448.359 31.3047V37ZM455.641 30.0547H453.578V37H451.195V30.0547H449.883V28.9062L451.195 28.2656V27.625C451.195 26.6302 451.44 25.9036 451.93 25.4453C452.419 24.987 453.203 24.7578 454.281 24.7578C455.104 24.7578 455.836 24.8802 456.477 25.125L455.867 26.875C455.388 26.724 454.945 26.6484 454.539 26.6484C454.201 26.6484 453.956 26.75 453.805 26.9531C453.654 27.151 453.578 27.4062 453.578 27.7188V28.2656H455.641V30.0547ZM462.562 37L462.102 35.8125H462.039C461.638 36.3177 461.224 36.6693 460.797 36.8672C460.375 37.0599 459.823 37.1562 459.141 37.1562C458.302 37.1562 457.641 36.9167 457.156 36.4375C456.677 35.9583 456.438 35.276 456.438 34.3906C456.438 33.4635 456.76 32.7812 457.406 32.3438C458.057 31.901 459.036 31.6562 460.344 31.6094L461.859 31.5625V31.1797C461.859 30.2943 461.406 29.8516 460.5 29.8516C459.802 29.8516 458.982 30.0625 458.039 30.4844L457.25 28.875C458.255 28.349 459.37 28.0859 460.594 28.0859C461.766 28.0859 462.664 28.3411 463.289 28.8516C463.914 29.362 464.227 30.138 464.227 31.1797V37H462.562ZM461.859 32.9531L460.938 32.9844C460.245 33.0052 459.729 33.1302 459.391 33.3594C459.052 33.5885 458.883 33.9375 458.883 34.4062C458.883 35.0781 459.268 35.4141 460.039 35.4141C460.591 35.4141 461.031 35.2552 461.359 34.9375C461.693 34.6198 461.859 34.1979 461.859 33.6719V32.9531ZM472.781 34.4062C472.781 35.3021 472.469 35.9844 471.844 36.4531C471.224 36.9219 470.294 37.1562 469.055 37.1562C468.419 37.1562 467.878 37.112 467.43 37.0234C466.982 36.9401 466.562 36.8151 466.172 36.6484V34.6797C466.615 34.888 467.112 35.0625 467.664 35.2031C468.221 35.3438 468.711 35.4141 469.133 35.4141C469.997 35.4141 470.43 35.1641 470.43 34.6641C470.43 34.4766 470.372 34.3255 470.258 34.2109C470.143 34.0911 469.945 33.9583 469.664 33.8125C469.383 33.6615 469.008 33.487 468.539 33.2891C467.867 33.0078 467.372 32.7474 467.055 32.5078C466.742 32.2682 466.513 31.9948 466.367 31.6875C466.227 31.375 466.156 30.9922 466.156 30.5391C466.156 29.763 466.456 29.1641 467.055 28.7422C467.659 28.3151 468.513 28.1016 469.617 28.1016C470.669 28.1016 471.693 28.3307 472.688 28.7891L471.969 30.5078C471.531 30.3203 471.122 30.1667 470.742 30.0469C470.362 29.9271 469.974 29.8672 469.578 29.8672C468.875 29.8672 468.523 30.0573 468.523 30.4375C468.523 30.651 468.635 30.8359 468.859 30.9922C469.089 31.1484 469.586 31.3802 470.352 31.6875C471.034 31.9635 471.534 32.2214 471.852 32.4609C472.169 32.7005 472.404 32.9766 472.555 33.2891C472.706 33.6016 472.781 33.974 472.781 34.4062ZM474.539 26.0078C474.539 25.2318 474.971 24.8438 475.836 24.8438C476.701 24.8438 477.133 25.2318 477.133 26.0078C477.133 26.3776 477.023 26.6667 476.805 26.875C476.591 27.0781 476.268 27.1797 475.836 27.1797C474.971 27.1797 474.539 26.7891 474.539 26.0078ZM477.023 37H474.641V28.2656H477.023V37ZM485.625 34.4062C485.625 35.3021 485.312 35.9844 484.688 36.4531C484.068 36.9219 483.138 37.1562 481.898 37.1562C481.263 37.1562 480.721 37.112 480.273 37.0234C479.826 36.9401 479.406 36.8151 479.016 36.6484V34.6797C479.458 34.888 479.956 35.0625 480.508 35.2031C481.065 35.3438 481.555 35.4141 481.977 35.4141C482.841 35.4141 483.273 35.1641 483.273 34.6641C483.273 34.4766 483.216 34.3255 483.102 34.2109C482.987 34.0911 482.789 33.9583 482.508 33.8125C482.227 33.6615 481.852 33.487 481.383 33.2891C480.711 33.0078 480.216 32.7474 479.898 32.5078C479.586 32.2682 479.357 31.9948 479.211 31.6875C479.07 31.375 479 30.9922 479 30.5391C479 29.763 479.299 29.1641 479.898 28.7422C480.503 28.3151 481.357 28.1016 482.461 28.1016C483.513 28.1016 484.536 28.3307 485.531 28.7891L484.812 30.5078C484.375 30.3203 483.966 30.1667 483.586 30.0469C483.206 29.9271 482.818 29.8672 482.422 29.8672C481.719 29.8672 481.367 30.0573 481.367 30.4375C481.367 30.651 481.479 30.8359 481.703 30.9922C481.932 31.1484 482.43 31.3802 483.195 31.6875C483.878 31.9635 484.378 32.2214 484.695 32.4609C485.013 32.7005 485.247 32.9766 485.398 33.2891C485.549 33.6016 485.625 33.974 485.625 34.4062ZM487.148 35.8828C487.148 35.4453 487.266 35.1146 487.5 34.8906C487.734 34.6667 488.076 34.5547 488.523 34.5547C488.956 34.5547 489.289 34.6693 489.523 34.8984C489.763 35.1276 489.883 35.4557 489.883 35.8828C489.883 36.2943 489.763 36.6198 489.523 36.8594C489.284 37.0938 488.951 37.2109 488.523 37.2109C488.086 37.2109 487.747 37.0964 487.508 36.8672C487.268 36.6328 487.148 36.3047 487.148 35.8828ZM502.969 33.9609C502.969 34.9661 502.604 35.75 501.875 36.3125C501.146 36.875 500.156 37.1562 498.906 37.1562C497.552 37.1562 496.51 36.9818 495.781 36.6328V35.3516C496.25 35.5495 496.76 35.7057 497.312 35.8203C497.865 35.9349 498.411 35.9922 498.953 35.9922C499.839 35.9922 500.505 35.8255 500.953 35.4922C501.401 35.1536 501.625 34.6849 501.625 34.0859C501.625 33.6901 501.544 33.3672 501.383 33.1172C501.227 32.862 500.961 32.6276 500.586 32.4141C500.216 32.2005 499.651 31.9583 498.891 31.6875C497.828 31.3073 497.068 30.8568 496.609 30.3359C496.156 29.8151 495.93 29.1354 495.93 28.2969C495.93 27.4167 496.26 26.7161 496.922 26.1953C497.583 25.6745 498.458 25.4141 499.547 25.4141C500.682 25.4141 501.727 25.6224 502.68 26.0391L502.266 27.1953C501.323 26.7995 500.406 26.6016 499.516 26.6016C498.812 26.6016 498.263 26.7526 497.867 27.0547C497.471 27.3568 497.273 27.776 497.273 28.3125C497.273 28.7083 497.346 29.0339 497.492 29.2891C497.638 29.5391 497.883 29.7708 498.227 29.9844C498.576 30.1927 499.107 30.4245 499.82 30.6797C501.018 31.1068 501.841 31.5651 502.289 32.0547C502.742 32.5443 502.969 33.1797 502.969 33.9609ZM504.922 36.1719C504.922 35.8229 505 35.5599 505.156 35.3828C505.318 35.2005 505.547 35.1094 505.844 35.1094C506.146 35.1094 506.38 35.2005 506.547 35.3828C506.719 35.5599 506.805 35.8229 506.805 36.1719C506.805 36.5104 506.719 36.7708 506.547 36.9531C506.375 37.1354 506.141 37.2266 505.844 37.2266C505.578 37.2266 505.357 37.1458 505.18 36.9844C505.008 36.8177 504.922 36.5469 504.922 36.1719ZM509.062 36.1719C509.062 35.8229 509.141 35.5599 509.297 35.3828C509.458 35.2005 509.688 35.1094 509.984 35.1094C510.286 35.1094 510.521 35.2005 510.688 35.3828C510.859 35.5599 510.945 35.8229 510.945 36.1719C510.945 36.5104 510.859 36.7708 510.688 36.9531C510.516 37.1354 510.281 37.2266 509.984 37.2266C509.719 37.2266 509.497 37.1458 509.32 36.9844C509.148 36.8177 509.062 36.5469 509.062 36.1719ZM513.211 36.1719C513.211 35.8229 513.289 35.5599 513.445 35.3828C513.607 35.2005 513.836 35.1094 514.133 35.1094C514.435 35.1094 514.669 35.2005 514.836 35.3828C515.008 35.5599 515.094 35.8229 515.094 36.1719C515.094 36.5104 515.008 36.7708 514.836 36.9531C514.664 37.1354 514.43 37.2266 514.133 37.2266C513.867 37.2266 513.646 37.1458 513.469 36.9844C513.297 36.8177 513.211 36.5469 513.211 36.1719Z" fill="white"/>
<rect x="530" y="16" width="61" height="30" rx="8" fill="#5C6A7A"/>
<path d="M540.32 36C539.968 36 539.696 35.9093 539.504 35.728C539.323 35.536 539.232 35.264 539.232 34.912V25.808C539.232 25.456 539.323 25.1893 539.504 25.008C539.696 24.816 539.968 24.72 540.32 24.72H544.16C544.949 24.72 545.621 24.8373 546.176 25.072C546.731 25.3067 547.152 25.6427 547.44 26.08C547.739 26.5173 547.888 27.04 547.888 27.648C547.888 28.3307 547.691 28.9067 547.296 29.376C546.901 29.8453 546.363 30.16 545.68 30.32V30.08C546.469 30.1973 547.083 30.496 547.52 30.976C547.957 31.456 548.176 32.08 548.176 32.848C548.176 33.8507 547.835 34.6293 547.152 35.184C546.48 35.728 545.541 36 544.336 36H540.32ZM541.2 34.448H544.08C544.805 34.448 545.339 34.3093 545.68 34.032C546.021 33.744 546.192 33.3173 546.192 32.752C546.192 32.176 546.021 31.7493 545.68 31.472C545.339 31.1947 544.805 31.056 544.08 31.056H541.2V34.448ZM541.2 29.504H543.808C544.512 29.504 545.035 29.3707 545.376 29.104C545.728 28.8267 545.904 28.4213 545.904 27.888C545.904 27.3547 545.728 26.9547 545.376 26.688C545.035 26.4107 544.512 26.272 543.808 26.272H541.2V29.504ZM553.624 36.16C552.813 36.16 552.109 35.9947 551.512 35.664C550.914 35.3333 550.45 34.864 550.12 34.256C549.789 33.6373 549.624 32.912 549.624 32.08C549.624 31.4507 549.714 30.8907 549.896 30.4C550.088 29.8987 550.36 29.472 550.712 29.12C551.064 28.7573 551.485 28.4853 551.976 28.304C552.466 28.112 553.016 28.016 553.624 28.016C554.434 28.016 555.138 28.1813 555.736 28.512C556.333 28.8427 556.797 29.312 557.128 29.92C557.458 30.528 557.624 31.248 557.624 32.08C557.624 32.7093 557.528 33.2747 557.336 33.776C557.154 34.2773 556.888 34.7093 556.536 35.072C556.184 35.424 555.762 35.696 555.272 35.888C554.781 36.0693 554.232 36.16 553.624 36.16ZM553.624 34.64C554.018 34.64 554.365 34.544 554.664 34.352C554.962 34.16 555.192 33.8773 555.352 33.504C555.522 33.12 555.608 32.6453 555.608 32.08C555.608 31.2267 555.426 30.592 555.064 30.176C554.701 29.7493 554.221 29.536 553.624 29.536C553.229 29.536 552.882 29.632 552.584 29.824C552.285 30.0053 552.05 30.288 551.88 30.672C551.72 31.0453 551.64 31.5147 551.64 32.08C551.64 32.9227 551.821 33.5627 552.184 34C552.546 34.4267 553.026 34.64 553.624 34.64ZM562.78 36.16C562.087 36.16 561.506 36.0427 561.036 35.808C560.578 35.5733 560.236 35.232 560.012 34.784C559.788 34.3253 559.676 33.76 559.676 33.088V29.68H558.844C558.588 29.68 558.391 29.616 558.252 29.488C558.114 29.3493 558.044 29.1627 558.044 28.928C558.044 28.6827 558.114 28.496 558.252 28.368C558.391 28.24 558.588 28.176 558.844 28.176H559.676V26.72C559.676 26.3893 559.762 26.1387 559.932 25.968C560.114 25.7973 560.364 25.712 560.684 25.712C561.004 25.712 561.25 25.7973 561.42 25.968C561.591 26.1387 561.676 26.3893 561.676 26.72V28.176H563.372C563.628 28.176 563.826 28.24 563.964 28.368C564.103 28.496 564.172 28.6827 564.172 28.928C564.172 29.1627 564.103 29.3493 563.964 29.488C563.826 29.616 563.628 29.68 563.372 29.68H561.676V32.976C561.676 33.488 561.788 33.872 562.012 34.128C562.236 34.384 562.599 34.512 563.1 34.512C563.282 34.512 563.442 34.496 563.58 34.464C563.719 34.432 563.842 34.4107 563.948 34.4C564.076 34.3893 564.183 34.432 564.268 34.528C564.354 34.6133 564.396 34.7947 564.396 35.072C564.396 35.2853 564.359 35.4773 564.284 35.648C564.22 35.808 564.098 35.92 563.916 35.984C563.778 36.0267 563.596 36.064 563.372 36.096C563.148 36.1387 562.951 36.16 562.78 36.16ZM568.827 36.16C568.016 36.16 567.312 35.9947 566.715 35.664C566.117 35.3333 565.653 34.864 565.323 34.256C564.992 33.6373 564.827 32.912 564.827 32.08C564.827 31.4507 564.917 30.8907 565.099 30.4C565.291 29.8987 565.563 29.472 565.915 29.12C566.267 28.7573 566.688 28.4853 567.179 28.304C567.669 28.112 568.219 28.016 568.827 28.016C569.637 28.016 570.341 28.1813 570.939 28.512C571.536 28.8427 572 29.312 572.331 29.92C572.661 30.528 572.827 31.248 572.827 32.08C572.827 32.7093 572.731 33.2747 572.539 33.776C572.357 34.2773 572.091 34.7093 571.739 35.072C571.387 35.424 570.965 35.696 570.475 35.888C569.984 36.0693 569.435 36.16 568.827 36.16ZM568.827 34.64C569.221 34.64 569.568 34.544 569.867 34.352C570.165 34.16 570.395 33.8773 570.555 33.504C570.725 33.12 570.811 32.6453 570.811 32.08C570.811 31.2267 570.629 30.592 570.267 30.176C569.904 29.7493 569.424 29.536 568.827 29.536C568.432 29.536 568.085 29.632 567.787 29.824C567.488 30.0053 567.253 30.288 567.083 30.672C566.923 31.0453 566.843 31.5147 566.843 32.08C566.843 32.9227 567.024 33.5627 567.387 34C567.749 34.4267 568.229 34.64 568.827 34.64ZM569.579 27.04C569.472 27.1893 569.344 27.2747 569.195 27.296C569.045 27.3173 568.901 27.2907 568.763 27.216C568.624 27.1413 568.523 27.0347 568.459 26.896C568.405 26.7573 568.421 26.6027 568.507 26.432L569.723 24.048C569.819 23.8453 569.947 23.7173 570.107 23.664C570.267 23.6 570.432 23.5893 570.603 23.632C570.773 23.6747 570.917 23.7547 571.035 23.872C571.163 23.9893 571.237 24.1333 571.259 24.304C571.291 24.464 571.248 24.6293 571.131 24.8L569.579 27.04ZM575.47 36.128C575.15 36.128 574.904 36.0427 574.734 35.872C574.563 35.6907 574.478 35.4347 574.478 35.104V29.056C574.478 28.7253 574.563 28.4747 574.734 28.304C574.904 28.1333 575.144 28.048 575.454 28.048C575.763 28.048 576.003 28.1333 576.174 28.304C576.344 28.4747 576.43 28.7253 576.43 29.056V30.144L576.254 29.744C576.488 29.1787 576.851 28.752 577.342 28.464C577.843 28.1653 578.408 28.016 579.038 28.016C579.667 28.016 580.184 28.1333 580.59 28.368C580.995 28.6027 581.299 28.96 581.502 29.44C581.704 29.9093 581.806 30.5067 581.806 31.232V35.104C581.806 35.4347 581.72 35.6907 581.55 35.872C581.379 36.0427 581.134 36.128 580.814 36.128C580.494 36.128 580.243 36.0427 580.062 35.872C579.891 35.6907 579.806 35.4347 579.806 35.104V31.328C579.806 30.72 579.688 30.2773 579.454 30C579.23 29.7227 578.878 29.584 578.398 29.584C577.811 29.584 577.342 29.7707 576.99 30.144C576.648 30.5067 576.478 30.992 576.478 31.6V35.104C576.478 35.7867 576.142 36.128 575.47 36.128Z" fill="white"/>
<rect x="603" y="16" width="61" height="30" rx="8" fill="#FFDB2E"/>
<path d="M613.32 36C612.968 36 612.696 35.9093 612.504 35.728C612.323 35.536 612.232 35.264 612.232 34.912V25.808C612.232 25.456 612.323 25.1893 612.504 25.008C612.696 24.816 612.968 24.72 613.32 24.72H617.16C617.949 24.72 618.621 24.8373 619.176 25.072C619.731 25.3067 620.152 25.6427 620.44 26.08C620.739 26.5173 620.888 27.04 620.888 27.648C620.888 28.3307 620.691 28.9067 620.296 29.376C619.901 29.8453 619.363 30.16 618.68 30.32V30.08C619.469 30.1973 620.083 30.496 620.52 30.976C620.957 31.456 621.176 32.08 621.176 32.848C621.176 33.8507 620.835 34.6293 620.152 35.184C619.48 35.728 618.541 36 617.336 36H613.32ZM614.2 34.448H617.08C617.805 34.448 618.339 34.3093 618.68 34.032C619.021 33.744 619.192 33.3173 619.192 32.752C619.192 32.176 619.021 31.7493 618.68 31.472C618.339 31.1947 617.805 31.056 617.08 31.056H614.2V34.448ZM614.2 29.504H616.808C617.512 29.504 618.035 29.3707 618.376 29.104C618.728 28.8267 618.904 28.4213 618.904 27.888C618.904 27.3547 618.728 26.9547 618.376 26.688C618.035 26.4107 617.512 26.272 616.808 26.272H614.2V29.504ZM626.624 36.16C625.813 36.16 625.109 35.9947 624.512 35.664C623.914 35.3333 623.45 34.864 623.12 34.256C622.789 33.6373 622.624 32.912 622.624 32.08C622.624 31.4507 622.714 30.8907 622.896 30.4C623.088 29.8987 623.36 29.472 623.712 29.12C624.064 28.7573 624.485 28.4853 624.976 28.304C625.466 28.112 626.016 28.016 626.624 28.016C627.434 28.016 628.138 28.1813 628.736 28.512C629.333 28.8427 629.797 29.312 630.128 29.92C630.458 30.528 630.624 31.248 630.624 32.08C630.624 32.7093 630.528 33.2747 630.336 33.776C630.154 34.2773 629.888 34.7093 629.536 35.072C629.184 35.424 628.762 35.696 628.272 35.888C627.781 36.0693 627.232 36.16 626.624 36.16ZM626.624 34.64C627.018 34.64 627.365 34.544 627.664 34.352C627.962 34.16 628.192 33.8773 628.352 33.504C628.522 33.12 628.608 32.6453 628.608 32.08C628.608 31.2267 628.426 30.592 628.064 30.176C627.701 29.7493 627.221 29.536 626.624 29.536C626.229 29.536 625.882 29.632 625.584 29.824C625.285 30.0053 625.05 30.288 624.88 30.672C624.72 31.0453 624.64 31.5147 624.64 32.08C624.64 32.9227 624.821 33.5627 625.184 34C625.546 34.4267 626.026 34.64 626.624 34.64ZM635.78 36.16C635.087 36.16 634.506 36.0427 634.036 35.808C633.578 35.5733 633.236 35.232 633.012 34.784C632.788 34.3253 632.676 33.76 632.676 33.088V29.68H631.844C631.588 29.68 631.391 29.616 631.252 29.488C631.114 29.3493 631.044 29.1627 631.044 28.928C631.044 28.6827 631.114 28.496 631.252 28.368C631.391 28.24 631.588 28.176 631.844 28.176H632.676V26.72C632.676 26.3893 632.762 26.1387 632.932 25.968C633.114 25.7973 633.364 25.712 633.684 25.712C634.004 25.712 634.25 25.7973 634.42 25.968C634.591 26.1387 634.676 26.3893 634.676 26.72V28.176H636.372C636.628 28.176 636.826 28.24 636.964 28.368C637.103 28.496 637.172 28.6827 637.172 28.928C637.172 29.1627 637.103 29.3493 636.964 29.488C636.826 29.616 636.628 29.68 636.372 29.68H634.676V32.976C634.676 33.488 634.788 33.872 635.012 34.128C635.236 34.384 635.599 34.512 636.1 34.512C636.282 34.512 636.442 34.496 636.58 34.464C636.719 34.432 636.842 34.4107 636.948 34.4C637.076 34.3893 637.183 34.432 637.268 34.528C637.354 34.6133 637.396 34.7947 637.396 35.072C637.396 35.2853 637.359 35.4773 637.284 35.648C637.22 35.808 637.098 35.92 636.916 35.984C636.778 36.0267 636.596 36.064 636.372 36.096C636.148 36.1387 635.951 36.16 635.78 36.16ZM641.827 36.16C641.016 36.16 640.312 35.9947 639.715 35.664C639.117 35.3333 638.653 34.864 638.323 34.256C637.992 33.6373 637.827 32.912 637.827 32.08C637.827 31.4507 637.917 30.8907 638.099 30.4C638.291 29.8987 638.563 29.472 638.915 29.12C639.267 28.7573 639.688 28.4853 640.179 28.304C640.669 28.112 641.219 28.016 641.827 28.016C642.637 28.016 643.341 28.1813 643.939 28.512C644.536 28.8427 645 29.312 645.331 29.92C645.661 30.528 645.827 31.248 645.827 32.08C645.827 32.7093 645.731 33.2747 645.539 33.776C645.357 34.2773 645.091 34.7093 644.739 35.072C644.387 35.424 643.965 35.696 643.475 35.888C642.984 36.0693 642.435 36.16 641.827 36.16ZM641.827 34.64C642.221 34.64 642.568 34.544 642.867 34.352C643.165 34.16 643.395 33.8773 643.555 33.504C643.725 33.12 643.811 32.6453 643.811 32.08C643.811 31.2267 643.629 30.592 643.267 30.176C642.904 29.7493 642.424 29.536 641.827 29.536C641.432 29.536 641.085 29.632 640.787 29.824C640.488 30.0053 640.253 30.288 640.083 30.672C639.923 31.0453 639.843 31.5147 639.843 32.08C639.843 32.9227 640.024 33.5627 640.387 34C640.749 34.4267 641.229 34.64 641.827 34.64ZM642.579 27.04C642.472 27.1893 642.344 27.2747 642.195 27.296C642.045 27.3173 641.901 27.2907 641.763 27.216C641.624 27.1413 641.523 27.0347 641.459 26.896C641.405 26.7573 641.421 26.6027 641.507 26.432L642.723 24.048C642.819 23.8453 642.947 23.7173 643.107 23.664C643.267 23.6 643.432 23.5893 643.603 23.632C643.773 23.6747 643.917 23.7547 644.035 23.872C644.163 23.9893 644.237 24.1333 644.259 24.304C644.291 24.464 644.248 24.6293 644.131 24.8L642.579 27.04ZM648.47 36.128C648.15 36.128 647.904 36.0427 647.734 35.872C647.563 35.6907 647.478 35.4347 647.478 35.104V29.056C647.478 28.7253 647.563 28.4747 647.734 28.304C647.904 28.1333 648.144 28.048 648.454 28.048C648.763 28.048 649.003 28.1333 649.174 28.304C649.344 28.4747 649.43 28.7253 649.43 29.056V30.144L649.254 29.744C649.488 29.1787 649.851 28.752 650.342 28.464C650.843 28.1653 651.408 28.016 652.038 28.016C652.667 28.016 653.184 28.1333 653.59 28.368C653.995 28.6027 654.299 28.96 654.502 29.44C654.704 29.9093 654.806 30.5067 654.806 31.232V35.104C654.806 35.4347 654.72 35.6907 654.55 35.872C654.379 36.0427 654.134 36.128 653.814 36.128C653.494 36.128 653.243 36.0427 653.062 35.872C652.891 35.6907 652.806 35.4347 652.806 35.104V31.328C652.806 30.72 652.688 30.2773 652.454 30C652.23 29.7227 651.878 29.584 651.398 29.584C650.811 29.584 650.342 29.7707 649.99 30.144C649.648 30.5067 649.478 30.992 649.478 31.6V35.104C649.478 35.7867 649.142 36.128 648.47 36.128Z" fill="#38485C"/>
</svg>
