<svg width="712" height="270" viewBox="0 0 712 270" fill="none" xmlns="http://www.w3.org/2000/svg">
<rect x="1" y="1" width="710" height="268" rx="7" fill="white" stroke="#D1D8E0" stroke-width="2"/>
<g clip-path="url(#clip0_2616_2286)">
<path d="M176.598 105.144C176.226 105.144 175.938 105.042 175.734 104.838C175.542 104.622 175.446 104.328 175.446 103.956V94.236H171.936C171.624 94.236 171.378 94.152 171.198 93.984C171.03 93.804 170.946 93.564 170.946 93.264C170.946 92.952 171.03 92.718 171.198 92.562C171.378 92.394 171.624 92.31 171.936 92.31H181.26C181.572 92.31 181.812 92.394 181.98 92.562C182.16 92.718 182.25 92.952 182.25 93.264C182.25 93.564 182.16 93.804 181.98 93.984C181.812 94.152 181.572 94.236 181.26 94.236H177.75V103.956C177.75 104.328 177.654 104.622 177.462 104.838C177.27 105.042 176.982 105.144 176.598 105.144ZM184.841 105.18C184.205 105.18 183.635 105.06 183.131 104.82C182.639 104.568 182.249 104.232 181.961 103.812C181.685 103.392 181.547 102.918 181.547 102.39C181.547 101.742 181.715 101.232 182.051 100.86C182.387 100.476 182.933 100.2 183.689 100.032C184.445 99.864 185.459 99.78 186.731 99.78H187.631V101.076H186.749C186.005 101.076 185.411 101.112 184.967 101.184C184.523 101.256 184.205 101.382 184.013 101.562C183.833 101.73 183.743 101.97 183.743 102.282C183.743 102.678 183.881 103.002 184.157 103.254C184.433 103.506 184.817 103.632 185.309 103.632C185.705 103.632 186.053 103.542 186.353 103.362C186.665 103.17 186.911 102.912 187.091 102.588C187.271 102.264 187.361 101.892 187.361 101.472V99.402C187.361 98.802 187.229 98.37 186.965 98.106C186.701 97.842 186.257 97.71 185.633 97.71C185.285 97.71 184.907 97.752 184.499 97.836C184.103 97.92 183.683 98.064 183.239 98.268C183.011 98.376 182.807 98.406 182.627 98.358C182.459 98.31 182.327 98.214 182.231 98.07C182.135 97.914 182.087 97.746 182.087 97.566C182.087 97.386 182.135 97.212 182.231 97.044C182.327 96.864 182.489 96.732 182.717 96.648C183.269 96.42 183.797 96.258 184.301 96.162C184.817 96.066 185.285 96.018 185.705 96.018C186.569 96.018 187.277 96.15 187.829 96.414C188.393 96.678 188.813 97.08 189.089 97.62C189.365 98.148 189.503 98.832 189.503 99.672V103.992C189.503 104.364 189.413 104.652 189.233 104.856C189.053 105.048 188.795 105.144 188.459 105.144C188.123 105.144 187.859 105.048 187.667 104.856C187.487 104.652 187.397 104.364 187.397 103.992V103.128H187.541C187.457 103.548 187.289 103.914 187.037 104.226C186.797 104.526 186.491 104.76 186.119 104.928C185.747 105.096 185.321 105.18 184.841 105.18ZM196.863 105.18C196.119 105.18 195.465 104.994 194.901 104.622C194.349 104.25 193.983 103.752 193.803 103.128L194.001 102.678V103.992C194.001 104.364 193.905 104.652 193.713 104.856C193.521 105.048 193.251 105.144 192.903 105.144C192.543 105.144 192.267 105.048 192.075 104.856C191.883 104.652 191.787 104.364 191.787 103.992V93.3C191.787 92.928 191.883 92.646 192.075 92.454C192.267 92.262 192.543 92.166 192.903 92.166C193.263 92.166 193.539 92.262 193.731 92.454C193.935 92.646 194.037 92.928 194.037 93.3V97.98H193.821C194.013 97.392 194.385 96.918 194.937 96.558C195.489 96.198 196.131 96.018 196.863 96.018C197.643 96.018 198.321 96.204 198.897 96.576C199.473 96.948 199.923 97.476 200.247 98.16C200.571 98.832 200.733 99.642 200.733 100.59C200.733 101.526 200.571 102.342 200.247 103.038C199.923 103.722 199.467 104.25 198.879 104.622C198.303 104.994 197.631 105.18 196.863 105.18ZM196.233 103.47C196.677 103.47 197.067 103.362 197.403 103.146C197.739 102.93 197.997 102.612 198.177 102.192C198.369 101.76 198.465 101.226 198.465 100.59C198.465 99.63 198.261 98.916 197.853 98.448C197.445 97.968 196.905 97.728 196.233 97.728C195.789 97.728 195.399 97.836 195.063 98.052C194.727 98.256 194.463 98.574 194.271 99.006C194.091 99.426 194.001 99.954 194.001 100.59C194.001 101.538 194.205 102.258 194.613 102.75C195.021 103.23 195.561 103.47 196.233 103.47ZM205.586 105.18C204.59 105.18 203.84 104.898 203.336 104.334C202.832 103.758 202.58 102.918 202.58 101.814V93.3C202.58 92.928 202.676 92.646 202.868 92.454C203.06 92.262 203.336 92.166 203.696 92.166C204.056 92.166 204.332 92.262 204.524 92.454C204.728 92.646 204.83 92.928 204.83 93.3V101.706C204.83 102.258 204.944 102.666 205.172 102.93C205.412 103.194 205.748 103.326 206.18 103.326C206.276 103.326 206.366 103.326 206.45 103.326C206.534 103.314 206.618 103.302 206.702 103.29C206.87 103.266 206.984 103.314 207.044 103.434C207.104 103.542 207.134 103.77 207.134 104.118C207.134 104.418 207.074 104.652 206.954 104.82C206.834 104.988 206.636 105.09 206.36 105.126C206.24 105.138 206.114 105.15 205.982 105.162C205.85 105.174 205.718 105.18 205.586 105.18ZM212.578 105.18C211.582 105.18 210.724 104.994 210.004 104.622C209.284 104.25 208.726 103.722 208.33 103.038C207.946 102.354 207.754 101.544 207.754 100.608C207.754 99.696 207.94 98.898 208.312 98.214C208.696 97.53 209.218 96.996 209.878 96.612C210.55 96.216 211.312 96.018 212.164 96.018C212.788 96.018 213.346 96.12 213.838 96.324C214.342 96.528 214.768 96.822 215.116 97.206C215.476 97.59 215.746 98.058 215.926 98.61C216.118 99.15 216.214 99.762 216.214 100.446C216.214 100.662 216.136 100.83 215.98 100.95C215.836 101.058 215.626 101.112 215.35 101.112H209.572V99.816H214.63L214.342 100.086C214.342 99.534 214.258 99.072 214.09 98.7C213.934 98.328 213.7 98.046 213.388 97.854C213.088 97.65 212.71 97.548 212.254 97.548C211.75 97.548 211.318 97.668 210.958 97.908C210.61 98.136 210.34 98.466 210.148 98.898C209.968 99.318 209.878 99.822 209.878 100.41V100.536C209.878 101.52 210.106 102.258 210.562 102.75C211.03 103.23 211.714 103.47 212.614 103.47C212.926 103.47 213.274 103.434 213.658 103.362C214.054 103.278 214.426 103.14 214.774 102.948C215.026 102.804 215.248 102.744 215.44 102.768C215.632 102.78 215.782 102.846 215.89 102.966C216.01 103.086 216.082 103.236 216.106 103.416C216.13 103.584 216.094 103.758 215.998 103.938C215.914 104.118 215.764 104.274 215.548 104.406C215.128 104.67 214.642 104.868 214.09 105C213.55 105.12 213.046 105.18 212.578 105.18ZM219.148 105.144C218.776 105.144 218.488 105.048 218.284 104.856C218.092 104.652 217.996 104.364 217.996 103.992V97.188C217.996 96.816 218.092 96.534 218.284 96.342C218.476 96.15 218.746 96.054 219.094 96.054C219.442 96.054 219.712 96.15 219.904 96.342C220.096 96.534 220.192 96.816 220.192 97.188V98.322H220.012C220.18 97.602 220.51 97.056 221.002 96.684C221.494 96.312 222.148 96.09 222.964 96.018C223.216 95.994 223.414 96.06 223.558 96.216C223.714 96.36 223.804 96.588 223.828 96.9C223.852 97.2 223.78 97.446 223.612 97.638C223.456 97.818 223.216 97.926 222.892 97.962L222.496 97.998C221.764 98.07 221.212 98.298 220.84 98.682C220.468 99.054 220.282 99.582 220.282 100.266V103.992C220.282 104.364 220.186 104.652 219.994 104.856C219.802 105.048 219.52 105.144 219.148 105.144ZM228.918 105.18C228.006 105.18 227.214 104.994 226.542 104.622C225.87 104.25 225.348 103.722 224.976 103.038C224.604 102.342 224.418 101.526 224.418 100.59C224.418 99.882 224.52 99.252 224.724 98.7C224.94 98.136 225.246 97.656 225.642 97.26C226.038 96.852 226.512 96.546 227.064 96.342C227.616 96.126 228.234 96.018 228.918 96.018C229.83 96.018 230.622 96.204 231.294 96.576C231.966 96.948 232.488 97.476 232.86 98.16C233.232 98.844 233.418 99.654 233.418 100.59C233.418 101.298 233.31 101.934 233.094 102.498C232.89 103.062 232.59 103.548 232.194 103.956C231.798 104.352 231.324 104.658 230.772 104.874C230.22 105.078 229.602 105.18 228.918 105.18ZM228.918 103.47C229.362 103.47 229.752 103.362 230.088 103.146C230.424 102.93 230.682 102.612 230.862 102.192C231.054 101.76 231.15 101.226 231.15 100.59C231.15 99.63 230.946 98.916 230.538 98.448C230.13 97.968 229.59 97.728 228.918 97.728C228.474 97.728 228.084 97.836 227.748 98.052C227.412 98.256 227.148 98.574 226.956 99.006C226.776 99.426 226.686 99.954 226.686 100.59C226.686 101.538 226.89 102.258 227.298 102.75C227.706 103.23 228.246 103.47 228.918 103.47Z" fill="#38485C"/>
<path d="M249 100H255C255.55 100 256 99.55 256 99V91C256 90.45 255.55 90 255 90H249C248.45 90 248 90.45 248 91V99C248 99.55 248.45 100 249 100ZM249 108H255C255.55 108 256 107.55 256 107V103C256 102.45 255.55 102 255 102H249C248.45 102 248 102.45 248 103V107C248 107.55 248.45 108 249 108ZM259 108H265C265.55 108 266 107.55 266 107V99C266 98.45 265.55 98 265 98H259C258.45 98 258 98.45 258 99V107C258 107.55 258.45 108 259 108ZM258 91V95C258 95.55 258.45 96 259 96H265C265.55 96 266 95.55 266 95V91C266 90.45 265.55 90 265 90H259C258.45 90 258 90.45 258 91Z" fill="#38485C"/>
<path d="M281 119H159V127H281V119Z" fill="#007BC7"/>
</g>
<path d="M293.286 105.126C293.07 105.126 292.902 105.066 292.782 104.946C292.662 104.814 292.602 104.634 292.602 104.406V92.904C292.602 92.664 292.662 92.484 292.782 92.364C292.902 92.244 293.07 92.184 293.286 92.184C293.478 92.184 293.628 92.226 293.736 92.31C293.856 92.382 293.964 92.508 294.06 92.688L298.992 101.976H298.452L303.366 92.688C303.462 92.508 303.564 92.382 303.672 92.31C303.78 92.226 303.936 92.184 304.14 92.184C304.344 92.184 304.506 92.244 304.626 92.364C304.746 92.484 304.806 92.664 304.806 92.904V104.406C304.806 104.634 304.746 104.814 304.626 104.946C304.518 105.066 304.35 105.126 304.122 105.126C303.906 105.126 303.738 105.066 303.618 104.946C303.498 104.814 303.438 104.634 303.438 104.406V94.29H303.87L299.37 102.732C299.286 102.888 299.196 103.002 299.1 103.074C299.016 103.134 298.89 103.164 298.722 103.164C298.554 103.164 298.422 103.128 298.326 103.056C298.23 102.984 298.146 102.876 298.074 102.732L293.52 94.272H293.952V104.406C293.952 104.634 293.892 104.814 293.772 104.946C293.664 105.066 293.502 105.126 293.286 105.126ZM311.402 105.162C310.55 105.162 309.812 104.976 309.188 104.604C308.564 104.232 308.078 103.71 307.73 103.038C307.394 102.354 307.226 101.55 307.226 100.626C307.226 99.93 307.322 99.306 307.514 98.754C307.706 98.19 307.988 97.71 308.36 97.314C308.732 96.918 309.17 96.618 309.674 96.414C310.19 96.198 310.766 96.09 311.402 96.09C312.254 96.09 312.992 96.276 313.616 96.648C314.24 97.02 314.72 97.548 315.056 98.232C315.404 98.904 315.578 99.702 315.578 100.626C315.578 101.322 315.482 101.946 315.29 102.498C315.098 103.05 314.816 103.53 314.444 103.938C314.072 104.334 313.628 104.64 313.112 104.856C312.608 105.06 312.038 105.162 311.402 105.162ZM311.402 103.992C311.942 103.992 312.416 103.86 312.824 103.596C313.232 103.332 313.544 102.948 313.76 102.444C313.988 101.94 314.102 101.334 314.102 100.626C314.102 99.534 313.856 98.7 313.364 98.124C312.884 97.548 312.23 97.26 311.402 97.26C310.85 97.26 310.37 97.392 309.962 97.656C309.566 97.908 309.254 98.286 309.026 98.79C308.81 99.282 308.702 99.894 308.702 100.626C308.702 101.706 308.948 102.54 309.44 103.128C309.932 103.704 310.586 103.992 311.402 103.992ZM318.488 105.126C318.248 105.126 318.068 105.06 317.948 104.928C317.828 104.796 317.768 104.61 317.768 104.37V96.864C317.768 96.624 317.828 96.444 317.948 96.324C318.068 96.192 318.242 96.126 318.47 96.126C318.698 96.126 318.872 96.192 318.992 96.324C319.124 96.444 319.19 96.624 319.19 96.864V98.412L318.992 98.196C319.244 97.5 319.652 96.978 320.216 96.63C320.792 96.27 321.452 96.09 322.196 96.09C322.892 96.09 323.468 96.216 323.924 96.468C324.392 96.72 324.74 97.104 324.968 97.62C325.196 98.124 325.31 98.766 325.31 99.546V104.37C325.31 104.61 325.244 104.796 325.112 104.928C324.992 105.06 324.818 105.126 324.59 105.126C324.35 105.126 324.164 105.06 324.032 104.928C323.912 104.796 323.852 104.61 323.852 104.37V99.636C323.852 98.82 323.69 98.226 323.366 97.854C323.054 97.47 322.55 97.278 321.854 97.278C321.05 97.278 320.408 97.53 319.928 98.034C319.46 98.526 319.226 99.186 319.226 100.014V104.37C319.226 104.874 318.98 105.126 318.488 105.126ZM328.719 105.09C328.479 105.09 328.299 105.024 328.179 104.892C328.059 104.748 327.999 104.55 327.999 104.298V96.936C327.999 96.684 328.059 96.492 328.179 96.36C328.299 96.228 328.479 96.162 328.719 96.162C328.947 96.162 329.127 96.228 329.259 96.36C329.391 96.492 329.457 96.684 329.457 96.936V104.298C329.457 104.55 329.391 104.748 329.259 104.892C329.139 105.024 328.959 105.09 328.719 105.09ZM328.719 94.146C328.419 94.146 328.185 94.068 328.017 93.912C327.849 93.744 327.765 93.522 327.765 93.246C327.765 92.958 327.849 92.742 328.017 92.598C328.185 92.442 328.419 92.364 328.719 92.364C329.031 92.364 329.265 92.442 329.421 92.598C329.589 92.742 329.673 92.958 329.673 93.246C329.673 93.522 329.589 93.744 329.421 93.912C329.265 94.068 329.031 94.146 328.719 94.146ZM335.692 105.162C335.008 105.162 334.432 105.042 333.964 104.802C333.508 104.55 333.166 104.19 332.938 103.722C332.71 103.242 332.596 102.66 332.596 101.976V97.386H331.39C331.186 97.386 331.03 97.338 330.922 97.242C330.814 97.134 330.76 96.99 330.76 96.81C330.76 96.63 330.814 96.492 330.922 96.396C331.03 96.3 331.186 96.252 331.39 96.252H332.596V94.182C332.596 93.942 332.662 93.762 332.794 93.642C332.926 93.51 333.106 93.444 333.334 93.444C333.562 93.444 333.736 93.51 333.856 93.642C333.988 93.762 334.054 93.942 334.054 94.182V96.252H336.322C336.526 96.252 336.682 96.3 336.79 96.396C336.898 96.492 336.952 96.63 336.952 96.81C336.952 96.99 336.898 97.134 336.79 97.242C336.682 97.338 336.526 97.386 336.322 97.386H334.054V101.832C334.054 102.516 334.198 103.038 334.486 103.398C334.774 103.746 335.242 103.92 335.89 103.92C336.118 103.92 336.31 103.896 336.466 103.848C336.634 103.8 336.772 103.776 336.88 103.776C336.988 103.764 337.078 103.8 337.15 103.884C337.222 103.968 337.258 104.112 337.258 104.316C337.258 104.46 337.228 104.592 337.168 104.712C337.12 104.832 337.03 104.916 336.898 104.964C336.754 105.012 336.562 105.054 336.322 105.09C336.094 105.138 335.884 105.162 335.692 105.162ZM342.024 105.162C341.172 105.162 340.434 104.976 339.81 104.604C339.186 104.232 338.7 103.71 338.352 103.038C338.016 102.354 337.848 101.55 337.848 100.626C337.848 99.93 337.944 99.306 338.136 98.754C338.328 98.19 338.61 97.71 338.982 97.314C339.354 96.918 339.792 96.618 340.296 96.414C340.812 96.198 341.388 96.09 342.024 96.09C342.876 96.09 343.614 96.276 344.238 96.648C344.862 97.02 345.342 97.548 345.678 98.232C346.026 98.904 346.2 99.702 346.2 100.626C346.2 101.322 346.104 101.946 345.912 102.498C345.72 103.05 345.438 103.53 345.066 103.938C344.694 104.334 344.25 104.64 343.734 104.856C343.23 105.06 342.66 105.162 342.024 105.162ZM342.024 103.992C342.564 103.992 343.038 103.86 343.446 103.596C343.854 103.332 344.166 102.948 344.382 102.444C344.61 101.94 344.724 101.334 344.724 100.626C344.724 99.534 344.478 98.7 343.986 98.124C343.506 97.548 342.852 97.26 342.024 97.26C341.472 97.26 340.992 97.392 340.584 97.656C340.188 97.908 339.876 98.286 339.648 98.79C339.432 99.282 339.324 99.894 339.324 100.626C339.324 101.706 339.57 102.54 340.062 103.128C340.554 103.704 341.208 103.992 342.024 103.992ZM349.127 105.126C348.887 105.126 348.701 105.06 348.569 104.928C348.449 104.796 348.389 104.61 348.389 104.37V96.864C348.389 96.624 348.449 96.444 348.569 96.324C348.689 96.192 348.863 96.126 349.091 96.126C349.319 96.126 349.493 96.192 349.613 96.324C349.745 96.444 349.811 96.624 349.811 96.864V98.322H349.631C349.823 97.614 350.189 97.068 350.729 96.684C351.269 96.3 351.935 96.096 352.727 96.072C352.907 96.06 353.051 96.102 353.159 96.198C353.267 96.282 353.327 96.432 353.339 96.648C353.351 96.852 353.303 97.014 353.195 97.134C353.087 97.254 352.919 97.326 352.691 97.35L352.403 97.386C351.587 97.458 350.957 97.722 350.513 98.178C350.081 98.622 349.865 99.234 349.865 100.014V104.37C349.865 104.61 349.799 104.796 349.667 104.928C349.547 105.06 349.367 105.126 349.127 105.126ZM358.677 105.162C357.753 105.162 356.955 104.982 356.283 104.622C355.623 104.25 355.107 103.728 354.735 103.056C354.375 102.384 354.195 101.58 354.195 100.644C354.195 99.732 354.375 98.94 354.735 98.268C355.095 97.584 355.587 97.05 356.211 96.666C356.847 96.282 357.579 96.09 358.407 96.09C358.995 96.09 359.523 96.192 359.991 96.396C360.459 96.588 360.855 96.87 361.179 97.242C361.515 97.614 361.767 98.064 361.935 98.592C362.115 99.12 362.205 99.714 362.205 100.374C362.205 100.566 362.151 100.71 362.043 100.806C361.935 100.89 361.779 100.932 361.575 100.932H355.311V99.978H361.233L360.945 100.212C360.945 99.564 360.849 99.018 360.657 98.574C360.465 98.118 360.183 97.77 359.811 97.53C359.451 97.29 358.995 97.17 358.443 97.17C357.831 97.17 357.309 97.314 356.877 97.602C356.457 97.878 356.139 98.268 355.923 98.772C355.707 99.264 355.599 99.84 355.599 100.5V100.608C355.599 101.712 355.863 102.552 356.391 103.128C356.931 103.704 357.693 103.992 358.677 103.992C359.085 103.992 359.487 103.938 359.883 103.83C360.291 103.722 360.687 103.542 361.071 103.29C361.239 103.182 361.389 103.134 361.521 103.146C361.665 103.146 361.779 103.188 361.863 103.272C361.947 103.344 362.001 103.44 362.025 103.56C362.061 103.668 362.049 103.788 361.989 103.92C361.941 104.052 361.839 104.166 361.683 104.262C361.287 104.55 360.819 104.772 360.279 104.928C359.739 105.084 359.205 105.162 358.677 105.162ZM367.951 105.162C367.099 105.162 366.361 104.976 365.737 104.604C365.113 104.232 364.627 103.71 364.279 103.038C363.943 102.354 363.775 101.55 363.775 100.626C363.775 99.93 363.871 99.306 364.063 98.754C364.255 98.19 364.537 97.71 364.909 97.314C365.281 96.918 365.719 96.618 366.223 96.414C366.739 96.198 367.315 96.09 367.951 96.09C368.803 96.09 369.541 96.276 370.165 96.648C370.789 97.02 371.269 97.548 371.605 98.232C371.953 98.904 372.127 99.702 372.127 100.626C372.127 101.322 372.031 101.946 371.839 102.498C371.647 103.05 371.365 103.53 370.993 103.938C370.621 104.334 370.177 104.64 369.661 104.856C369.157 105.06 368.587 105.162 367.951 105.162ZM367.951 103.992C368.491 103.992 368.965 103.86 369.373 103.596C369.781 103.332 370.093 102.948 370.309 102.444C370.537 101.94 370.651 101.334 370.651 100.626C370.651 99.534 370.405 98.7 369.913 98.124C369.433 97.548 368.779 97.26 367.951 97.26C367.399 97.26 366.919 97.392 366.511 97.656C366.115 97.908 365.803 98.286 365.575 98.79C365.359 99.282 365.251 99.894 365.251 100.626C365.251 101.706 365.497 102.54 365.989 103.128C366.481 103.704 367.135 103.992 367.951 103.992Z" fill="#38485C"/>
<path d="M398.11 99.45L397 97.24L393.89 103.45C393.73 103.79 393.38 104 393 104C392.62 104 392.27 103.79 392.11 103.45L390.38 100H385V105C385 106.1 385.9 107 387 107H403C404.1 107 405 106.1 405 105V100H399C398.62 100 398.27 99.79 398.11 99.45Z" fill="#38485C"/>
<path d="M403 91H387C385.9 91 385 91.9 385 93V98H391C391.38 98 391.73 98.21 391.89 98.55L393 100.76L396.11 94.55C396.45 93.87 397.56 93.87 397.9 94.55L399.62 98H405V93C405 91.9 404.1 91 403 91Z" fill="#38485C"/>
<path d="M432.296 105.126C432.104 105.126 431.948 105.084 431.828 105C431.72 104.904 431.654 104.784 431.63 104.64C431.618 104.484 431.654 104.31 431.738 104.118L436.688 92.85C436.796 92.61 436.922 92.442 437.066 92.346C437.222 92.238 437.39 92.184 437.57 92.184C437.75 92.184 437.912 92.238 438.056 92.346C438.212 92.442 438.338 92.61 438.434 92.85L443.402 104.118C443.498 104.31 443.534 104.484 443.51 104.64C443.498 104.796 443.438 104.916 443.33 105C443.222 105.084 443.072 105.126 442.88 105.126C442.664 105.126 442.49 105.072 442.358 104.964C442.226 104.844 442.118 104.676 442.034 104.46L440.702 101.382L441.422 101.76H433.682L434.42 101.382L433.106 104.46C432.998 104.688 432.884 104.856 432.764 104.964C432.644 105.072 432.488 105.126 432.296 105.126ZM437.552 94.038L434.654 100.86L434.222 100.518H440.882L440.486 100.86L437.588 94.038H437.552ZM449.101 105.162C448.225 105.162 447.469 104.97 446.833 104.586C446.197 104.202 445.705 103.668 445.357 102.984C445.021 102.288 444.853 101.484 444.853 100.572C444.853 99.876 444.949 99.252 445.141 98.7C445.333 98.148 445.615 97.68 445.987 97.296C446.359 96.9 446.803 96.6 447.319 96.396C447.847 96.192 448.441 96.09 449.101 96.09C449.533 96.09 449.983 96.156 450.451 96.288C450.919 96.42 451.345 96.648 451.729 96.972C451.849 97.056 451.927 97.158 451.963 97.278C451.999 97.398 451.999 97.518 451.963 97.638C451.927 97.746 451.867 97.842 451.783 97.926C451.699 97.998 451.591 98.04 451.459 98.052C451.339 98.064 451.213 98.022 451.081 97.926C450.769 97.686 450.451 97.518 450.127 97.422C449.803 97.326 449.491 97.278 449.191 97.278C448.723 97.278 448.315 97.356 447.967 97.512C447.619 97.656 447.325 97.866 447.085 98.142C446.845 98.418 446.659 98.76 446.527 99.168C446.407 99.576 446.347 100.05 446.347 100.59C446.347 101.634 446.593 102.462 447.085 103.074C447.577 103.674 448.279 103.974 449.191 103.974C449.491 103.974 449.797 103.926 450.109 103.83C450.433 103.734 450.757 103.566 451.081 103.326C451.213 103.23 451.339 103.188 451.459 103.2C451.579 103.212 451.681 103.26 451.765 103.344C451.849 103.416 451.903 103.512 451.927 103.632C451.963 103.752 451.963 103.872 451.927 103.992C451.891 104.1 451.813 104.196 451.693 104.28C451.309 104.592 450.889 104.82 450.433 104.964C449.977 105.096 449.533 105.162 449.101 105.162ZM457.235 105.162C456.551 105.162 455.975 105.042 455.507 104.802C455.051 104.55 454.709 104.19 454.481 103.722C454.253 103.242 454.139 102.66 454.139 101.976V97.386H452.933C452.729 97.386 452.573 97.338 452.465 97.242C452.357 97.134 452.303 96.99 452.303 96.81C452.303 96.63 452.357 96.492 452.465 96.396C452.573 96.3 452.729 96.252 452.933 96.252H454.139V94.182C454.139 93.942 454.205 93.762 454.337 93.642C454.469 93.51 454.649 93.444 454.877 93.444C455.105 93.444 455.279 93.51 455.399 93.642C455.531 93.762 455.597 93.942 455.597 94.182V96.252H457.865C458.069 96.252 458.225 96.3 458.333 96.396C458.441 96.492 458.495 96.63 458.495 96.81C458.495 96.99 458.441 97.134 458.333 97.242C458.225 97.338 458.069 97.386 457.865 97.386H455.597V101.832C455.597 102.516 455.741 103.038 456.029 103.398C456.317 103.746 456.785 103.92 457.433 103.92C457.661 103.92 457.853 103.896 458.009 103.848C458.177 103.8 458.315 103.776 458.423 103.776C458.531 103.764 458.621 103.8 458.693 103.884C458.765 103.968 458.801 104.112 458.801 104.316C458.801 104.46 458.771 104.592 458.711 104.712C458.663 104.832 458.573 104.916 458.441 104.964C458.297 105.012 458.105 105.054 457.865 105.09C457.637 105.138 457.427 105.162 457.235 105.162ZM460.844 105.09C460.604 105.09 460.424 105.024 460.304 104.892C460.184 104.748 460.124 104.55 460.124 104.298V96.936C460.124 96.684 460.184 96.492 460.304 96.36C460.424 96.228 460.604 96.162 460.844 96.162C461.072 96.162 461.252 96.228 461.384 96.36C461.516 96.492 461.582 96.684 461.582 96.936V104.298C461.582 104.55 461.516 104.748 461.384 104.892C461.264 105.024 461.084 105.09 460.844 105.09ZM460.844 94.146C460.544 94.146 460.31 94.068 460.142 93.912C459.974 93.744 459.89 93.522 459.89 93.246C459.89 92.958 459.974 92.742 460.142 92.598C460.31 92.442 460.544 92.364 460.844 92.364C461.156 92.364 461.39 92.442 461.546 92.598C461.714 92.742 461.798 92.958 461.798 93.246C461.798 93.522 461.714 93.744 461.546 93.912C461.39 94.068 461.156 94.146 460.844 94.146ZM467.565 105.126C467.361 105.126 467.181 105.072 467.025 104.964C466.869 104.844 466.737 104.664 466.629 104.424L463.515 97.152C463.431 96.972 463.401 96.804 463.425 96.648C463.449 96.492 463.521 96.366 463.641 96.27C463.761 96.174 463.929 96.126 464.145 96.126C464.337 96.126 464.487 96.168 464.595 96.252C464.703 96.336 464.799 96.486 464.883 96.702L467.835 103.92H467.349L470.355 96.702C470.439 96.486 470.535 96.336 470.643 96.252C470.751 96.168 470.907 96.126 471.111 96.126C471.303 96.126 471.447 96.174 471.543 96.27C471.651 96.366 471.711 96.492 471.723 96.648C471.747 96.792 471.723 96.954 471.651 97.134L468.501 104.424C468.417 104.664 468.291 104.844 468.123 104.964C467.967 105.072 467.781 105.126 467.565 105.126ZM474.291 105.09C474.051 105.09 473.871 105.024 473.751 104.892C473.631 104.748 473.571 104.55 473.571 104.298V96.936C473.571 96.684 473.631 96.492 473.751 96.36C473.871 96.228 474.051 96.162 474.291 96.162C474.519 96.162 474.699 96.228 474.831 96.36C474.963 96.492 475.029 96.684 475.029 96.936V104.298C475.029 104.55 474.963 104.748 474.831 104.892C474.711 105.024 474.531 105.09 474.291 105.09ZM474.291 94.146C473.991 94.146 473.757 94.068 473.589 93.912C473.421 93.744 473.337 93.522 473.337 93.246C473.337 92.958 473.421 92.742 473.589 92.598C473.757 92.442 473.991 92.364 474.291 92.364C474.603 92.364 474.837 92.442 474.993 92.598C475.161 92.742 475.245 92.958 475.245 93.246C475.245 93.522 475.161 93.744 474.993 93.912C474.837 94.068 474.603 94.146 474.291 94.146ZM481.085 105.162C480.305 105.162 479.621 104.976 479.033 104.604C478.457 104.232 478.007 103.71 477.683 103.038C477.371 102.354 477.215 101.55 477.215 100.626C477.215 99.69 477.371 98.886 477.683 98.214C478.007 97.53 478.457 97.008 479.033 96.648C479.621 96.276 480.305 96.09 481.085 96.09C481.877 96.09 482.555 96.288 483.119 96.684C483.683 97.08 484.061 97.614 484.253 98.286H484.055V92.922C484.055 92.682 484.115 92.502 484.235 92.382C484.367 92.25 484.553 92.184 484.793 92.184C485.021 92.184 485.195 92.25 485.315 92.382C485.447 92.502 485.513 92.682 485.513 92.922V104.37C485.513 104.61 485.453 104.796 485.333 104.928C485.213 105.06 485.033 105.126 484.793 105.126C484.565 105.126 484.385 105.06 484.253 104.928C484.133 104.796 484.073 104.61 484.073 104.37V102.66L484.271 102.912C484.079 103.596 483.695 104.142 483.119 104.55C482.555 104.958 481.877 105.162 481.085 105.162ZM481.391 103.992C481.931 103.992 482.405 103.86 482.813 103.596C483.221 103.332 483.533 102.948 483.749 102.444C483.977 101.94 484.091 101.334 484.091 100.626C484.091 99.534 483.845 98.7 483.353 98.124C482.873 97.548 482.219 97.26 481.391 97.26C480.839 97.26 480.359 97.392 479.951 97.656C479.555 97.908 479.243 98.286 479.015 98.79C478.799 99.282 478.691 99.894 478.691 100.626C478.691 101.706 478.937 102.54 479.429 103.128C479.921 103.704 480.575 103.992 481.391 103.992ZM491.003 105.162C490.403 105.162 489.863 105.048 489.383 104.82C488.915 104.58 488.543 104.256 488.267 103.848C487.991 103.44 487.853 102.984 487.853 102.48C487.853 101.832 488.015 101.322 488.339 100.95C488.675 100.578 489.221 100.314 489.977 100.158C490.745 100.002 491.789 99.924 493.109 99.924H493.919V100.878H493.127C492.155 100.878 491.387 100.926 490.823 101.022C490.271 101.106 489.881 101.256 489.653 101.472C489.437 101.688 489.329 101.994 489.329 102.39C489.329 102.882 489.497 103.284 489.833 103.596C490.181 103.908 490.649 104.064 491.237 104.064C491.717 104.064 492.137 103.95 492.497 103.722C492.869 103.494 493.157 103.182 493.361 102.786C493.577 102.39 493.685 101.934 493.685 101.418V99.366C493.685 98.622 493.535 98.088 493.235 97.764C492.935 97.428 492.443 97.26 491.759 97.26C491.339 97.26 490.919 97.314 490.499 97.422C490.079 97.53 489.635 97.704 489.167 97.944C488.999 98.028 488.855 98.058 488.735 98.034C488.615 97.998 488.519 97.932 488.447 97.836C488.375 97.74 488.333 97.632 488.321 97.512C488.309 97.38 488.333 97.254 488.393 97.134C488.465 97.014 488.573 96.918 488.717 96.846C489.245 96.582 489.767 96.39 490.283 96.27C490.799 96.15 491.291 96.09 491.759 96.09C492.515 96.09 493.139 96.216 493.631 96.468C494.123 96.708 494.489 97.08 494.729 97.584C494.969 98.076 495.089 98.712 495.089 99.492V104.37C495.089 104.61 495.029 104.796 494.909 104.928C494.801 105.06 494.639 105.126 494.423 105.126C494.195 105.126 494.021 105.06 493.901 104.928C493.781 104.796 493.721 104.61 493.721 104.37V102.966H493.883C493.787 103.422 493.601 103.812 493.325 104.136C493.061 104.46 492.731 104.712 492.335 104.892C491.939 105.072 491.495 105.162 491.003 105.162ZM501.124 105.162C500.344 105.162 499.66 104.976 499.072 104.604C498.496 104.232 498.046 103.71 497.722 103.038C497.41 102.354 497.254 101.55 497.254 100.626C497.254 99.69 497.41 98.886 497.722 98.214C498.046 97.53 498.496 97.008 499.072 96.648C499.66 96.276 500.344 96.09 501.124 96.09C501.916 96.09 502.594 96.288 503.158 96.684C503.722 97.08 504.1 97.614 504.292 98.286H504.094V92.922C504.094 92.682 504.154 92.502 504.274 92.382C504.406 92.25 504.592 92.184 504.832 92.184C505.06 92.184 505.234 92.25 505.354 92.382C505.486 92.502 505.552 92.682 505.552 92.922V104.37C505.552 104.61 505.492 104.796 505.372 104.928C505.252 105.06 505.072 105.126 504.832 105.126C504.604 105.126 504.424 105.06 504.292 104.928C504.172 104.796 504.112 104.61 504.112 104.37V102.66L504.31 102.912C504.118 103.596 503.734 104.142 503.158 104.55C502.594 104.958 501.916 105.162 501.124 105.162ZM501.43 103.992C501.97 103.992 502.444 103.86 502.852 103.596C503.26 103.332 503.572 102.948 503.788 102.444C504.016 101.94 504.13 101.334 504.13 100.626C504.13 99.534 503.884 98.7 503.392 98.124C502.912 97.548 502.258 97.26 501.43 97.26C500.878 97.26 500.398 97.392 499.99 97.656C499.594 97.908 499.282 98.286 499.054 98.79C498.838 99.282 498.73 99.894 498.73 100.626C498.73 101.706 498.976 102.54 499.468 103.128C499.96 103.704 500.614 103.992 501.43 103.992Z" fill="#38485C"/>
<path d="M530.891 97.5475L529.831 97.0575C529.441 96.8775 529.441 96.3275 529.831 96.1475L530.891 95.6575L531.381 94.6075C531.561 94.2175 532.111 94.2175 532.291 94.6075L532.781 95.6675L533.831 96.1575C534.221 96.3375 534.221 96.8875 533.831 97.0675L532.771 97.5575L532.281 98.6075C532.101 98.9975 531.551 98.9975 531.371 98.6075L530.891 97.5475ZM521.281 100.607L521.771 99.5475L522.831 99.0575C523.221 98.8775 523.221 98.3275 522.831 98.1475L521.771 97.6575L521.281 96.6075C521.111 96.2175 520.551 96.2175 520.381 96.6075L519.891 97.6675L518.831 98.1575C518.441 98.3375 518.441 98.8875 518.831 99.0675L519.891 99.5575L520.381 100.607C520.551 100.997 521.111 100.997 521.281 100.607ZM525.791 95.5975L526.421 94.1975L527.821 93.5675C528.211 93.3875 528.211 92.8375 527.821 92.6575L526.421 92.0275L525.791 90.6275C525.611 90.2375 525.061 90.2375 524.881 90.6275L524.251 92.0275L522.851 92.6575C522.461 92.8375 522.461 93.3875 522.851 93.5675L524.251 94.1975L524.881 95.5975C525.051 95.9875 525.611 95.9875 525.791 95.5975ZM539.171 95.8775C538.771 95.4775 538.101 95.4875 537.721 95.9175L531.331 103.097L528.041 99.8075C527.651 99.4175 527.021 99.4175 526.631 99.8075L520.591 105.857C520.181 106.267 520.181 106.947 520.591 107.357C521.001 107.767 521.681 107.767 522.091 107.357L527.341 102.097L530.591 105.347C531.001 105.757 531.661 105.737 532.041 105.307L539.211 97.2375C539.561 96.8475 539.541 96.2475 539.171 95.8775Z" fill="#38485C"/>
<path d="M159 155C159 150.582 162.582 147 167 147H273C277.418 147 281 150.582 281 155V195H159V155Z" fill="#F3F6F9"/>
<path d="M176.598 177.144C176.226 177.144 175.938 177.042 175.734 176.838C175.542 176.622 175.446 176.328 175.446 175.956V166.236H171.936C171.624 166.236 171.378 166.152 171.198 165.984C171.03 165.804 170.946 165.564 170.946 165.264C170.946 164.952 171.03 164.718 171.198 164.562C171.378 164.394 171.624 164.31 171.936 164.31H181.26C181.572 164.31 181.812 164.394 181.98 164.562C182.16 164.718 182.25 164.952 182.25 165.264C182.25 165.564 182.16 165.804 181.98 165.984C181.812 166.152 181.572 166.236 181.26 166.236H177.75V175.956C177.75 176.328 177.654 176.622 177.462 176.838C177.27 177.042 176.982 177.144 176.598 177.144ZM184.841 177.18C184.205 177.18 183.635 177.06 183.131 176.82C182.639 176.568 182.249 176.232 181.961 175.812C181.685 175.392 181.547 174.918 181.547 174.39C181.547 173.742 181.715 173.232 182.051 172.86C182.387 172.476 182.933 172.2 183.689 172.032C184.445 171.864 185.459 171.78 186.731 171.78H187.631V173.076H186.749C186.005 173.076 185.411 173.112 184.967 173.184C184.523 173.256 184.205 173.382 184.013 173.562C183.833 173.73 183.743 173.97 183.743 174.282C183.743 174.678 183.881 175.002 184.157 175.254C184.433 175.506 184.817 175.632 185.309 175.632C185.705 175.632 186.053 175.542 186.353 175.362C186.665 175.17 186.911 174.912 187.091 174.588C187.271 174.264 187.361 173.892 187.361 173.472V171.402C187.361 170.802 187.229 170.37 186.965 170.106C186.701 169.842 186.257 169.71 185.633 169.71C185.285 169.71 184.907 169.752 184.499 169.836C184.103 169.92 183.683 170.064 183.239 170.268C183.011 170.376 182.807 170.406 182.627 170.358C182.459 170.31 182.327 170.214 182.231 170.07C182.135 169.914 182.087 169.746 182.087 169.566C182.087 169.386 182.135 169.212 182.231 169.044C182.327 168.864 182.489 168.732 182.717 168.648C183.269 168.42 183.797 168.258 184.301 168.162C184.817 168.066 185.285 168.018 185.705 168.018C186.569 168.018 187.277 168.15 187.829 168.414C188.393 168.678 188.813 169.08 189.089 169.62C189.365 170.148 189.503 170.832 189.503 171.672V175.992C189.503 176.364 189.413 176.652 189.233 176.856C189.053 177.048 188.795 177.144 188.459 177.144C188.123 177.144 187.859 177.048 187.667 176.856C187.487 176.652 187.397 176.364 187.397 175.992V175.128H187.541C187.457 175.548 187.289 175.914 187.037 176.226C186.797 176.526 186.491 176.76 186.119 176.928C185.747 177.096 185.321 177.18 184.841 177.18ZM196.863 177.18C196.119 177.18 195.465 176.994 194.901 176.622C194.349 176.25 193.983 175.752 193.803 175.128L194.001 174.678V175.992C194.001 176.364 193.905 176.652 193.713 176.856C193.521 177.048 193.251 177.144 192.903 177.144C192.543 177.144 192.267 177.048 192.075 176.856C191.883 176.652 191.787 176.364 191.787 175.992V165.3C191.787 164.928 191.883 164.646 192.075 164.454C192.267 164.262 192.543 164.166 192.903 164.166C193.263 164.166 193.539 164.262 193.731 164.454C193.935 164.646 194.037 164.928 194.037 165.3V169.98H193.821C194.013 169.392 194.385 168.918 194.937 168.558C195.489 168.198 196.131 168.018 196.863 168.018C197.643 168.018 198.321 168.204 198.897 168.576C199.473 168.948 199.923 169.476 200.247 170.16C200.571 170.832 200.733 171.642 200.733 172.59C200.733 173.526 200.571 174.342 200.247 175.038C199.923 175.722 199.467 176.25 198.879 176.622C198.303 176.994 197.631 177.18 196.863 177.18ZM196.233 175.47C196.677 175.47 197.067 175.362 197.403 175.146C197.739 174.93 197.997 174.612 198.177 174.192C198.369 173.76 198.465 173.226 198.465 172.59C198.465 171.63 198.261 170.916 197.853 170.448C197.445 169.968 196.905 169.728 196.233 169.728C195.789 169.728 195.399 169.836 195.063 170.052C194.727 170.256 194.463 170.574 194.271 171.006C194.091 171.426 194.001 171.954 194.001 172.59C194.001 173.538 194.205 174.258 194.613 174.75C195.021 175.23 195.561 175.47 196.233 175.47ZM205.586 177.18C204.59 177.18 203.84 176.898 203.336 176.334C202.832 175.758 202.58 174.918 202.58 173.814V165.3C202.58 164.928 202.676 164.646 202.868 164.454C203.06 164.262 203.336 164.166 203.696 164.166C204.056 164.166 204.332 164.262 204.524 164.454C204.728 164.646 204.83 164.928 204.83 165.3V173.706C204.83 174.258 204.944 174.666 205.172 174.93C205.412 175.194 205.748 175.326 206.18 175.326C206.276 175.326 206.366 175.326 206.45 175.326C206.534 175.314 206.618 175.302 206.702 175.29C206.87 175.266 206.984 175.314 207.044 175.434C207.104 175.542 207.134 175.77 207.134 176.118C207.134 176.418 207.074 176.652 206.954 176.82C206.834 176.988 206.636 177.09 206.36 177.126C206.24 177.138 206.114 177.15 205.982 177.162C205.85 177.174 205.718 177.18 205.586 177.18ZM212.578 177.18C211.582 177.18 210.724 176.994 210.004 176.622C209.284 176.25 208.726 175.722 208.33 175.038C207.946 174.354 207.754 173.544 207.754 172.608C207.754 171.696 207.94 170.898 208.312 170.214C208.696 169.53 209.218 168.996 209.878 168.612C210.55 168.216 211.312 168.018 212.164 168.018C212.788 168.018 213.346 168.12 213.838 168.324C214.342 168.528 214.768 168.822 215.116 169.206C215.476 169.59 215.746 170.058 215.926 170.61C216.118 171.15 216.214 171.762 216.214 172.446C216.214 172.662 216.136 172.83 215.98 172.95C215.836 173.058 215.626 173.112 215.35 173.112H209.572V171.816H214.63L214.342 172.086C214.342 171.534 214.258 171.072 214.09 170.7C213.934 170.328 213.7 170.046 213.388 169.854C213.088 169.65 212.71 169.548 212.254 169.548C211.75 169.548 211.318 169.668 210.958 169.908C210.61 170.136 210.34 170.466 210.148 170.898C209.968 171.318 209.878 171.822 209.878 172.41V172.536C209.878 173.52 210.106 174.258 210.562 174.75C211.03 175.23 211.714 175.47 212.614 175.47C212.926 175.47 213.274 175.434 213.658 175.362C214.054 175.278 214.426 175.14 214.774 174.948C215.026 174.804 215.248 174.744 215.44 174.768C215.632 174.78 215.782 174.846 215.89 174.966C216.01 175.086 216.082 175.236 216.106 175.416C216.13 175.584 216.094 175.758 215.998 175.938C215.914 176.118 215.764 176.274 215.548 176.406C215.128 176.67 214.642 176.868 214.09 177C213.55 177.12 213.046 177.18 212.578 177.18ZM219.148 177.144C218.776 177.144 218.488 177.048 218.284 176.856C218.092 176.652 217.996 176.364 217.996 175.992V169.188C217.996 168.816 218.092 168.534 218.284 168.342C218.476 168.15 218.746 168.054 219.094 168.054C219.442 168.054 219.712 168.15 219.904 168.342C220.096 168.534 220.192 168.816 220.192 169.188V170.322H220.012C220.18 169.602 220.51 169.056 221.002 168.684C221.494 168.312 222.148 168.09 222.964 168.018C223.216 167.994 223.414 168.06 223.558 168.216C223.714 168.36 223.804 168.588 223.828 168.9C223.852 169.2 223.78 169.446 223.612 169.638C223.456 169.818 223.216 169.926 222.892 169.962L222.496 169.998C221.764 170.07 221.212 170.298 220.84 170.682C220.468 171.054 220.282 171.582 220.282 172.266V175.992C220.282 176.364 220.186 176.652 219.994 176.856C219.802 177.048 219.52 177.144 219.148 177.144ZM228.918 177.18C228.006 177.18 227.214 176.994 226.542 176.622C225.87 176.25 225.348 175.722 224.976 175.038C224.604 174.342 224.418 173.526 224.418 172.59C224.418 171.882 224.52 171.252 224.724 170.7C224.94 170.136 225.246 169.656 225.642 169.26C226.038 168.852 226.512 168.546 227.064 168.342C227.616 168.126 228.234 168.018 228.918 168.018C229.83 168.018 230.622 168.204 231.294 168.576C231.966 168.948 232.488 169.476 232.86 170.16C233.232 170.844 233.418 171.654 233.418 172.59C233.418 173.298 233.31 173.934 233.094 174.498C232.89 175.062 232.59 175.548 232.194 175.956C231.798 176.352 231.324 176.658 230.772 176.874C230.22 177.078 229.602 177.18 228.918 177.18ZM228.918 175.47C229.362 175.47 229.752 175.362 230.088 175.146C230.424 174.93 230.682 174.612 230.862 174.192C231.054 173.76 231.15 173.226 231.15 172.59C231.15 171.63 230.946 170.916 230.538 170.448C230.13 169.968 229.59 169.728 228.918 169.728C228.474 169.728 228.084 169.836 227.748 170.052C227.412 170.256 227.148 170.574 226.956 171.006C226.776 171.426 226.686 171.954 226.686 172.59C226.686 173.538 226.89 174.258 227.298 174.75C227.706 175.23 228.246 175.47 228.918 175.47Z" fill="#38485C"/>
<path d="M249 172H255C255.55 172 256 171.55 256 171V163C256 162.45 255.55 162 255 162H249C248.45 162 248 162.45 248 163V171C248 171.55 248.45 172 249 172ZM249 180H255C255.55 180 256 179.55 256 179V175C256 174.45 255.55 174 255 174H249C248.45 174 248 174.45 248 175V179C248 179.55 248.45 180 249 180ZM259 180H265C265.55 180 266 179.55 266 179V171C266 170.45 265.55 170 265 170H259C258.45 170 258 170.45 258 171V179C258 179.55 258.45 180 259 180ZM258 163V167C258 167.55 258.45 168 259 168H265C265.55 168 266 167.55 266 167V163C266 162.45 265.55 162 265 162H259C258.45 162 258 162.45 258 163Z" fill="#38485C"/>
<path d="M279 155C279 150.582 282.582 147 287 147H411C415.418 147 419 150.582 419 155V195H279V155Z" fill="#E6EBF0"/>
<path d="M293.286 177.126C293.07 177.126 292.902 177.066 292.782 176.946C292.662 176.814 292.602 176.634 292.602 176.406V164.904C292.602 164.664 292.662 164.484 292.782 164.364C292.902 164.244 293.07 164.184 293.286 164.184C293.478 164.184 293.628 164.226 293.736 164.31C293.856 164.382 293.964 164.508 294.06 164.688L298.992 173.976H298.452L303.366 164.688C303.462 164.508 303.564 164.382 303.672 164.31C303.78 164.226 303.936 164.184 304.14 164.184C304.344 164.184 304.506 164.244 304.626 164.364C304.746 164.484 304.806 164.664 304.806 164.904V176.406C304.806 176.634 304.746 176.814 304.626 176.946C304.518 177.066 304.35 177.126 304.122 177.126C303.906 177.126 303.738 177.066 303.618 176.946C303.498 176.814 303.438 176.634 303.438 176.406V166.29H303.87L299.37 174.732C299.286 174.888 299.196 175.002 299.1 175.074C299.016 175.134 298.89 175.164 298.722 175.164C298.554 175.164 298.422 175.128 298.326 175.056C298.23 174.984 298.146 174.876 298.074 174.732L293.52 166.272H293.952V176.406C293.952 176.634 293.892 176.814 293.772 176.946C293.664 177.066 293.502 177.126 293.286 177.126ZM311.402 177.162C310.55 177.162 309.812 176.976 309.188 176.604C308.564 176.232 308.078 175.71 307.73 175.038C307.394 174.354 307.226 173.55 307.226 172.626C307.226 171.93 307.322 171.306 307.514 170.754C307.706 170.19 307.988 169.71 308.36 169.314C308.732 168.918 309.17 168.618 309.674 168.414C310.19 168.198 310.766 168.09 311.402 168.09C312.254 168.09 312.992 168.276 313.616 168.648C314.24 169.02 314.72 169.548 315.056 170.232C315.404 170.904 315.578 171.702 315.578 172.626C315.578 173.322 315.482 173.946 315.29 174.498C315.098 175.05 314.816 175.53 314.444 175.938C314.072 176.334 313.628 176.64 313.112 176.856C312.608 177.06 312.038 177.162 311.402 177.162ZM311.402 175.992C311.942 175.992 312.416 175.86 312.824 175.596C313.232 175.332 313.544 174.948 313.76 174.444C313.988 173.94 314.102 173.334 314.102 172.626C314.102 171.534 313.856 170.7 313.364 170.124C312.884 169.548 312.23 169.26 311.402 169.26C310.85 169.26 310.37 169.392 309.962 169.656C309.566 169.908 309.254 170.286 309.026 170.79C308.81 171.282 308.702 171.894 308.702 172.626C308.702 173.706 308.948 174.54 309.44 175.128C309.932 175.704 310.586 175.992 311.402 175.992ZM318.488 177.126C318.248 177.126 318.068 177.06 317.948 176.928C317.828 176.796 317.768 176.61 317.768 176.37V168.864C317.768 168.624 317.828 168.444 317.948 168.324C318.068 168.192 318.242 168.126 318.47 168.126C318.698 168.126 318.872 168.192 318.992 168.324C319.124 168.444 319.19 168.624 319.19 168.864V170.412L318.992 170.196C319.244 169.5 319.652 168.978 320.216 168.63C320.792 168.27 321.452 168.09 322.196 168.09C322.892 168.09 323.468 168.216 323.924 168.468C324.392 168.72 324.74 169.104 324.968 169.62C325.196 170.124 325.31 170.766 325.31 171.546V176.37C325.31 176.61 325.244 176.796 325.112 176.928C324.992 177.06 324.818 177.126 324.59 177.126C324.35 177.126 324.164 177.06 324.032 176.928C323.912 176.796 323.852 176.61 323.852 176.37V171.636C323.852 170.82 323.69 170.226 323.366 169.854C323.054 169.47 322.55 169.278 321.854 169.278C321.05 169.278 320.408 169.53 319.928 170.034C319.46 170.526 319.226 171.186 319.226 172.014V176.37C319.226 176.874 318.98 177.126 318.488 177.126ZM328.719 177.09C328.479 177.09 328.299 177.024 328.179 176.892C328.059 176.748 327.999 176.55 327.999 176.298V168.936C327.999 168.684 328.059 168.492 328.179 168.36C328.299 168.228 328.479 168.162 328.719 168.162C328.947 168.162 329.127 168.228 329.259 168.36C329.391 168.492 329.457 168.684 329.457 168.936V176.298C329.457 176.55 329.391 176.748 329.259 176.892C329.139 177.024 328.959 177.09 328.719 177.09ZM328.719 166.146C328.419 166.146 328.185 166.068 328.017 165.912C327.849 165.744 327.765 165.522 327.765 165.246C327.765 164.958 327.849 164.742 328.017 164.598C328.185 164.442 328.419 164.364 328.719 164.364C329.031 164.364 329.265 164.442 329.421 164.598C329.589 164.742 329.673 164.958 329.673 165.246C329.673 165.522 329.589 165.744 329.421 165.912C329.265 166.068 329.031 166.146 328.719 166.146ZM335.692 177.162C335.008 177.162 334.432 177.042 333.964 176.802C333.508 176.55 333.166 176.19 332.938 175.722C332.71 175.242 332.596 174.66 332.596 173.976V169.386H331.39C331.186 169.386 331.03 169.338 330.922 169.242C330.814 169.134 330.76 168.99 330.76 168.81C330.76 168.63 330.814 168.492 330.922 168.396C331.03 168.3 331.186 168.252 331.39 168.252H332.596V166.182C332.596 165.942 332.662 165.762 332.794 165.642C332.926 165.51 333.106 165.444 333.334 165.444C333.562 165.444 333.736 165.51 333.856 165.642C333.988 165.762 334.054 165.942 334.054 166.182V168.252H336.322C336.526 168.252 336.682 168.3 336.79 168.396C336.898 168.492 336.952 168.63 336.952 168.81C336.952 168.99 336.898 169.134 336.79 169.242C336.682 169.338 336.526 169.386 336.322 169.386H334.054V173.832C334.054 174.516 334.198 175.038 334.486 175.398C334.774 175.746 335.242 175.92 335.89 175.92C336.118 175.92 336.31 175.896 336.466 175.848C336.634 175.8 336.772 175.776 336.88 175.776C336.988 175.764 337.078 175.8 337.15 175.884C337.222 175.968 337.258 176.112 337.258 176.316C337.258 176.46 337.228 176.592 337.168 176.712C337.12 176.832 337.03 176.916 336.898 176.964C336.754 177.012 336.562 177.054 336.322 177.09C336.094 177.138 335.884 177.162 335.692 177.162ZM342.024 177.162C341.172 177.162 340.434 176.976 339.81 176.604C339.186 176.232 338.7 175.71 338.352 175.038C338.016 174.354 337.848 173.55 337.848 172.626C337.848 171.93 337.944 171.306 338.136 170.754C338.328 170.19 338.61 169.71 338.982 169.314C339.354 168.918 339.792 168.618 340.296 168.414C340.812 168.198 341.388 168.09 342.024 168.09C342.876 168.09 343.614 168.276 344.238 168.648C344.862 169.02 345.342 169.548 345.678 170.232C346.026 170.904 346.2 171.702 346.2 172.626C346.2 173.322 346.104 173.946 345.912 174.498C345.72 175.05 345.438 175.53 345.066 175.938C344.694 176.334 344.25 176.64 343.734 176.856C343.23 177.06 342.66 177.162 342.024 177.162ZM342.024 175.992C342.564 175.992 343.038 175.86 343.446 175.596C343.854 175.332 344.166 174.948 344.382 174.444C344.61 173.94 344.724 173.334 344.724 172.626C344.724 171.534 344.478 170.7 343.986 170.124C343.506 169.548 342.852 169.26 342.024 169.26C341.472 169.26 340.992 169.392 340.584 169.656C340.188 169.908 339.876 170.286 339.648 170.79C339.432 171.282 339.324 171.894 339.324 172.626C339.324 173.706 339.57 174.54 340.062 175.128C340.554 175.704 341.208 175.992 342.024 175.992ZM349.127 177.126C348.887 177.126 348.701 177.06 348.569 176.928C348.449 176.796 348.389 176.61 348.389 176.37V168.864C348.389 168.624 348.449 168.444 348.569 168.324C348.689 168.192 348.863 168.126 349.091 168.126C349.319 168.126 349.493 168.192 349.613 168.324C349.745 168.444 349.811 168.624 349.811 168.864V170.322H349.631C349.823 169.614 350.189 169.068 350.729 168.684C351.269 168.3 351.935 168.096 352.727 168.072C352.907 168.06 353.051 168.102 353.159 168.198C353.267 168.282 353.327 168.432 353.339 168.648C353.351 168.852 353.303 169.014 353.195 169.134C353.087 169.254 352.919 169.326 352.691 169.35L352.403 169.386C351.587 169.458 350.957 169.722 350.513 170.178C350.081 170.622 349.865 171.234 349.865 172.014V176.37C349.865 176.61 349.799 176.796 349.667 176.928C349.547 177.06 349.367 177.126 349.127 177.126ZM358.677 177.162C357.753 177.162 356.955 176.982 356.283 176.622C355.623 176.25 355.107 175.728 354.735 175.056C354.375 174.384 354.195 173.58 354.195 172.644C354.195 171.732 354.375 170.94 354.735 170.268C355.095 169.584 355.587 169.05 356.211 168.666C356.847 168.282 357.579 168.09 358.407 168.09C358.995 168.09 359.523 168.192 359.991 168.396C360.459 168.588 360.855 168.87 361.179 169.242C361.515 169.614 361.767 170.064 361.935 170.592C362.115 171.12 362.205 171.714 362.205 172.374C362.205 172.566 362.151 172.71 362.043 172.806C361.935 172.89 361.779 172.932 361.575 172.932H355.311V171.978H361.233L360.945 172.212C360.945 171.564 360.849 171.018 360.657 170.574C360.465 170.118 360.183 169.77 359.811 169.53C359.451 169.29 358.995 169.17 358.443 169.17C357.831 169.17 357.309 169.314 356.877 169.602C356.457 169.878 356.139 170.268 355.923 170.772C355.707 171.264 355.599 171.84 355.599 172.5V172.608C355.599 173.712 355.863 174.552 356.391 175.128C356.931 175.704 357.693 175.992 358.677 175.992C359.085 175.992 359.487 175.938 359.883 175.83C360.291 175.722 360.687 175.542 361.071 175.29C361.239 175.182 361.389 175.134 361.521 175.146C361.665 175.146 361.779 175.188 361.863 175.272C361.947 175.344 362.001 175.44 362.025 175.56C362.061 175.668 362.049 175.788 361.989 175.92C361.941 176.052 361.839 176.166 361.683 176.262C361.287 176.55 360.819 176.772 360.279 176.928C359.739 177.084 359.205 177.162 358.677 177.162ZM367.951 177.162C367.099 177.162 366.361 176.976 365.737 176.604C365.113 176.232 364.627 175.71 364.279 175.038C363.943 174.354 363.775 173.55 363.775 172.626C363.775 171.93 363.871 171.306 364.063 170.754C364.255 170.19 364.537 169.71 364.909 169.314C365.281 168.918 365.719 168.618 366.223 168.414C366.739 168.198 367.315 168.09 367.951 168.09C368.803 168.09 369.541 168.276 370.165 168.648C370.789 169.02 371.269 169.548 371.605 170.232C371.953 170.904 372.127 171.702 372.127 172.626C372.127 173.322 372.031 173.946 371.839 174.498C371.647 175.05 371.365 175.53 370.993 175.938C370.621 176.334 370.177 176.64 369.661 176.856C369.157 177.06 368.587 177.162 367.951 177.162ZM367.951 175.992C368.491 175.992 368.965 175.86 369.373 175.596C369.781 175.332 370.093 174.948 370.309 174.444C370.537 173.94 370.651 173.334 370.651 172.626C370.651 171.534 370.405 170.7 369.913 170.124C369.433 169.548 368.779 169.26 367.951 169.26C367.399 169.26 366.919 169.392 366.511 169.656C366.115 169.908 365.803 170.286 365.575 170.79C365.359 171.282 365.251 171.894 365.251 172.626C365.251 173.706 365.497 174.54 365.989 175.128C366.481 175.704 367.135 175.992 367.951 175.992Z" fill="#38485C"/>
<path d="M398.11 171.45L397 169.24L393.89 175.45C393.73 175.79 393.38 176 393 176C392.62 176 392.27 175.79 392.11 175.45L390.38 172H385V177C385 178.1 385.9 179 387 179H403C404.1 179 405 178.1 405 177V172H399C398.62 172 398.27 171.79 398.11 171.45Z" fill="#38485C"/>
<path d="M403 163H387C385.9 163 385 163.9 385 165V170H391C391.38 170 391.73 170.21 391.89 170.55L393 172.76L396.11 166.55C396.45 165.87 397.56 165.87 397.9 166.55L399.62 170H405V165C405 163.9 404.1 163 403 163Z" fill="#38485C"/>
<path d="M419 155C419 150.582 422.582 147 427 147H545C549.418 147 553 150.582 553 155V195H419V155Z" fill="#E6EBF0"/>
<path d="M432.296 177.126C432.104 177.126 431.948 177.084 431.828 177C431.72 176.904 431.654 176.784 431.63 176.64C431.618 176.484 431.654 176.31 431.738 176.118L436.688 164.85C436.796 164.61 436.922 164.442 437.066 164.346C437.222 164.238 437.39 164.184 437.57 164.184C437.75 164.184 437.912 164.238 438.056 164.346C438.212 164.442 438.338 164.61 438.434 164.85L443.402 176.118C443.498 176.31 443.534 176.484 443.51 176.64C443.498 176.796 443.438 176.916 443.33 177C443.222 177.084 443.072 177.126 442.88 177.126C442.664 177.126 442.49 177.072 442.358 176.964C442.226 176.844 442.118 176.676 442.034 176.46L440.702 173.382L441.422 173.76H433.682L434.42 173.382L433.106 176.46C432.998 176.688 432.884 176.856 432.764 176.964C432.644 177.072 432.488 177.126 432.296 177.126ZM437.552 166.038L434.654 172.86L434.222 172.518H440.882L440.486 172.86L437.588 166.038H437.552ZM449.101 177.162C448.225 177.162 447.469 176.97 446.833 176.586C446.197 176.202 445.705 175.668 445.357 174.984C445.021 174.288 444.853 173.484 444.853 172.572C444.853 171.876 444.949 171.252 445.141 170.7C445.333 170.148 445.615 169.68 445.987 169.296C446.359 168.9 446.803 168.6 447.319 168.396C447.847 168.192 448.441 168.09 449.101 168.09C449.533 168.09 449.983 168.156 450.451 168.288C450.919 168.42 451.345 168.648 451.729 168.972C451.849 169.056 451.927 169.158 451.963 169.278C451.999 169.398 451.999 169.518 451.963 169.638C451.927 169.746 451.867 169.842 451.783 169.926C451.699 169.998 451.591 170.04 451.459 170.052C451.339 170.064 451.213 170.022 451.081 169.926C450.769 169.686 450.451 169.518 450.127 169.422C449.803 169.326 449.491 169.278 449.191 169.278C448.723 169.278 448.315 169.356 447.967 169.512C447.619 169.656 447.325 169.866 447.085 170.142C446.845 170.418 446.659 170.76 446.527 171.168C446.407 171.576 446.347 172.05 446.347 172.59C446.347 173.634 446.593 174.462 447.085 175.074C447.577 175.674 448.279 175.974 449.191 175.974C449.491 175.974 449.797 175.926 450.109 175.83C450.433 175.734 450.757 175.566 451.081 175.326C451.213 175.23 451.339 175.188 451.459 175.2C451.579 175.212 451.681 175.26 451.765 175.344C451.849 175.416 451.903 175.512 451.927 175.632C451.963 175.752 451.963 175.872 451.927 175.992C451.891 176.1 451.813 176.196 451.693 176.28C451.309 176.592 450.889 176.82 450.433 176.964C449.977 177.096 449.533 177.162 449.101 177.162ZM457.235 177.162C456.551 177.162 455.975 177.042 455.507 176.802C455.051 176.55 454.709 176.19 454.481 175.722C454.253 175.242 454.139 174.66 454.139 173.976V169.386H452.933C452.729 169.386 452.573 169.338 452.465 169.242C452.357 169.134 452.303 168.99 452.303 168.81C452.303 168.63 452.357 168.492 452.465 168.396C452.573 168.3 452.729 168.252 452.933 168.252H454.139V166.182C454.139 165.942 454.205 165.762 454.337 165.642C454.469 165.51 454.649 165.444 454.877 165.444C455.105 165.444 455.279 165.51 455.399 165.642C455.531 165.762 455.597 165.942 455.597 166.182V168.252H457.865C458.069 168.252 458.225 168.3 458.333 168.396C458.441 168.492 458.495 168.63 458.495 168.81C458.495 168.99 458.441 169.134 458.333 169.242C458.225 169.338 458.069 169.386 457.865 169.386H455.597V173.832C455.597 174.516 455.741 175.038 456.029 175.398C456.317 175.746 456.785 175.92 457.433 175.92C457.661 175.92 457.853 175.896 458.009 175.848C458.177 175.8 458.315 175.776 458.423 175.776C458.531 175.764 458.621 175.8 458.693 175.884C458.765 175.968 458.801 176.112 458.801 176.316C458.801 176.46 458.771 176.592 458.711 176.712C458.663 176.832 458.573 176.916 458.441 176.964C458.297 177.012 458.105 177.054 457.865 177.09C457.637 177.138 457.427 177.162 457.235 177.162ZM460.844 177.09C460.604 177.09 460.424 177.024 460.304 176.892C460.184 176.748 460.124 176.55 460.124 176.298V168.936C460.124 168.684 460.184 168.492 460.304 168.36C460.424 168.228 460.604 168.162 460.844 168.162C461.072 168.162 461.252 168.228 461.384 168.36C461.516 168.492 461.582 168.684 461.582 168.936V176.298C461.582 176.55 461.516 176.748 461.384 176.892C461.264 177.024 461.084 177.09 460.844 177.09ZM460.844 166.146C460.544 166.146 460.31 166.068 460.142 165.912C459.974 165.744 459.89 165.522 459.89 165.246C459.89 164.958 459.974 164.742 460.142 164.598C460.31 164.442 460.544 164.364 460.844 164.364C461.156 164.364 461.39 164.442 461.546 164.598C461.714 164.742 461.798 164.958 461.798 165.246C461.798 165.522 461.714 165.744 461.546 165.912C461.39 166.068 461.156 166.146 460.844 166.146ZM467.565 177.126C467.361 177.126 467.181 177.072 467.025 176.964C466.869 176.844 466.737 176.664 466.629 176.424L463.515 169.152C463.431 168.972 463.401 168.804 463.425 168.648C463.449 168.492 463.521 168.366 463.641 168.27C463.761 168.174 463.929 168.126 464.145 168.126C464.337 168.126 464.487 168.168 464.595 168.252C464.703 168.336 464.799 168.486 464.883 168.702L467.835 175.92H467.349L470.355 168.702C470.439 168.486 470.535 168.336 470.643 168.252C470.751 168.168 470.907 168.126 471.111 168.126C471.303 168.126 471.447 168.174 471.543 168.27C471.651 168.366 471.711 168.492 471.723 168.648C471.747 168.792 471.723 168.954 471.651 169.134L468.501 176.424C468.417 176.664 468.291 176.844 468.123 176.964C467.967 177.072 467.781 177.126 467.565 177.126ZM474.291 177.09C474.051 177.09 473.871 177.024 473.751 176.892C473.631 176.748 473.571 176.55 473.571 176.298V168.936C473.571 168.684 473.631 168.492 473.751 168.36C473.871 168.228 474.051 168.162 474.291 168.162C474.519 168.162 474.699 168.228 474.831 168.36C474.963 168.492 475.029 168.684 475.029 168.936V176.298C475.029 176.55 474.963 176.748 474.831 176.892C474.711 177.024 474.531 177.09 474.291 177.09ZM474.291 166.146C473.991 166.146 473.757 166.068 473.589 165.912C473.421 165.744 473.337 165.522 473.337 165.246C473.337 164.958 473.421 164.742 473.589 164.598C473.757 164.442 473.991 164.364 474.291 164.364C474.603 164.364 474.837 164.442 474.993 164.598C475.161 164.742 475.245 164.958 475.245 165.246C475.245 165.522 475.161 165.744 474.993 165.912C474.837 166.068 474.603 166.146 474.291 166.146ZM481.085 177.162C480.305 177.162 479.621 176.976 479.033 176.604C478.457 176.232 478.007 175.71 477.683 175.038C477.371 174.354 477.215 173.55 477.215 172.626C477.215 171.69 477.371 170.886 477.683 170.214C478.007 169.53 478.457 169.008 479.033 168.648C479.621 168.276 480.305 168.09 481.085 168.09C481.877 168.09 482.555 168.288 483.119 168.684C483.683 169.08 484.061 169.614 484.253 170.286H484.055V164.922C484.055 164.682 484.115 164.502 484.235 164.382C484.367 164.25 484.553 164.184 484.793 164.184C485.021 164.184 485.195 164.25 485.315 164.382C485.447 164.502 485.513 164.682 485.513 164.922V176.37C485.513 176.61 485.453 176.796 485.333 176.928C485.213 177.06 485.033 177.126 484.793 177.126C484.565 177.126 484.385 177.06 484.253 176.928C484.133 176.796 484.073 176.61 484.073 176.37V174.66L484.271 174.912C484.079 175.596 483.695 176.142 483.119 176.55C482.555 176.958 481.877 177.162 481.085 177.162ZM481.391 175.992C481.931 175.992 482.405 175.86 482.813 175.596C483.221 175.332 483.533 174.948 483.749 174.444C483.977 173.94 484.091 173.334 484.091 172.626C484.091 171.534 483.845 170.7 483.353 170.124C482.873 169.548 482.219 169.26 481.391 169.26C480.839 169.26 480.359 169.392 479.951 169.656C479.555 169.908 479.243 170.286 479.015 170.79C478.799 171.282 478.691 171.894 478.691 172.626C478.691 173.706 478.937 174.54 479.429 175.128C479.921 175.704 480.575 175.992 481.391 175.992ZM491.003 177.162C490.403 177.162 489.863 177.048 489.383 176.82C488.915 176.58 488.543 176.256 488.267 175.848C487.991 175.44 487.853 174.984 487.853 174.48C487.853 173.832 488.015 173.322 488.339 172.95C488.675 172.578 489.221 172.314 489.977 172.158C490.745 172.002 491.789 171.924 493.109 171.924H493.919V172.878H493.127C492.155 172.878 491.387 172.926 490.823 173.022C490.271 173.106 489.881 173.256 489.653 173.472C489.437 173.688 489.329 173.994 489.329 174.39C489.329 174.882 489.497 175.284 489.833 175.596C490.181 175.908 490.649 176.064 491.237 176.064C491.717 176.064 492.137 175.95 492.497 175.722C492.869 175.494 493.157 175.182 493.361 174.786C493.577 174.39 493.685 173.934 493.685 173.418V171.366C493.685 170.622 493.535 170.088 493.235 169.764C492.935 169.428 492.443 169.26 491.759 169.26C491.339 169.26 490.919 169.314 490.499 169.422C490.079 169.53 489.635 169.704 489.167 169.944C488.999 170.028 488.855 170.058 488.735 170.034C488.615 169.998 488.519 169.932 488.447 169.836C488.375 169.74 488.333 169.632 488.321 169.512C488.309 169.38 488.333 169.254 488.393 169.134C488.465 169.014 488.573 168.918 488.717 168.846C489.245 168.582 489.767 168.39 490.283 168.27C490.799 168.15 491.291 168.09 491.759 168.09C492.515 168.09 493.139 168.216 493.631 168.468C494.123 168.708 494.489 169.08 494.729 169.584C494.969 170.076 495.089 170.712 495.089 171.492V176.37C495.089 176.61 495.029 176.796 494.909 176.928C494.801 177.06 494.639 177.126 494.423 177.126C494.195 177.126 494.021 177.06 493.901 176.928C493.781 176.796 493.721 176.61 493.721 176.37V174.966H493.883C493.787 175.422 493.601 175.812 493.325 176.136C493.061 176.46 492.731 176.712 492.335 176.892C491.939 177.072 491.495 177.162 491.003 177.162ZM501.124 177.162C500.344 177.162 499.66 176.976 499.072 176.604C498.496 176.232 498.046 175.71 497.722 175.038C497.41 174.354 497.254 173.55 497.254 172.626C497.254 171.69 497.41 170.886 497.722 170.214C498.046 169.53 498.496 169.008 499.072 168.648C499.66 168.276 500.344 168.09 501.124 168.09C501.916 168.09 502.594 168.288 503.158 168.684C503.722 169.08 504.1 169.614 504.292 170.286H504.094V164.922C504.094 164.682 504.154 164.502 504.274 164.382C504.406 164.25 504.592 164.184 504.832 164.184C505.06 164.184 505.234 164.25 505.354 164.382C505.486 164.502 505.552 164.682 505.552 164.922V176.37C505.552 176.61 505.492 176.796 505.372 176.928C505.252 177.06 505.072 177.126 504.832 177.126C504.604 177.126 504.424 177.06 504.292 176.928C504.172 176.796 504.112 176.61 504.112 176.37V174.66L504.31 174.912C504.118 175.596 503.734 176.142 503.158 176.55C502.594 176.958 501.916 177.162 501.124 177.162ZM501.43 175.992C501.97 175.992 502.444 175.86 502.852 175.596C503.26 175.332 503.572 174.948 503.788 174.444C504.016 173.94 504.13 173.334 504.13 172.626C504.13 171.534 503.884 170.7 503.392 170.124C502.912 169.548 502.258 169.26 501.43 169.26C500.878 169.26 500.398 169.392 499.99 169.656C499.594 169.908 499.282 170.286 499.054 170.79C498.838 171.282 498.73 171.894 498.73 172.626C498.73 173.706 498.976 174.54 499.468 175.128C499.96 175.704 500.614 175.992 501.43 175.992Z" fill="#38485C"/>
<path d="M530.891 169.547L529.831 169.057C529.441 168.877 529.441 168.327 529.831 168.147L530.891 167.657L531.381 166.607C531.561 166.217 532.111 166.217 532.291 166.607L532.781 167.667L533.831 168.157C534.221 168.337 534.221 168.887 533.831 169.067L532.771 169.557L532.281 170.607C532.101 170.997 531.551 170.997 531.371 170.607L530.891 169.547ZM521.281 172.607L521.771 171.547L522.831 171.057C523.221 170.877 523.221 170.327 522.831 170.147L521.771 169.657L521.281 168.607C521.111 168.217 520.551 168.217 520.381 168.607L519.891 169.667L518.831 170.157C518.441 170.337 518.441 170.887 518.831 171.067L519.891 171.557L520.381 172.607C520.551 172.997 521.111 172.997 521.281 172.607ZM525.791 167.597L526.421 166.197L527.821 165.567C528.211 165.387 528.211 164.837 527.821 164.657L526.421 164.027L525.791 162.627C525.611 162.237 525.061 162.237 524.881 162.627L524.251 164.027L522.851 164.657C522.461 164.837 522.461 165.387 522.851 165.567L524.251 166.197L524.881 167.597C525.051 167.987 525.611 167.987 525.791 167.597ZM539.171 167.877C538.771 167.477 538.101 167.487 537.721 167.917L531.331 175.097L528.041 171.807C527.651 171.417 527.021 171.417 526.631 171.807L520.591 177.857C520.181 178.267 520.181 178.947 520.591 179.357C521.001 179.767 521.681 179.767 522.091 179.357L527.341 174.097L530.591 177.347C531.001 177.757 531.661 177.737 532.041 177.307L539.211 169.237C539.561 168.847 539.541 168.247 539.171 167.877Z" fill="#38485C"/>
<defs>
<clipPath id="clip0_2616_2286">
<rect width="122" height="48" fill="white" transform="translate(159 75)"/>
</clipPath>
</defs>
</svg>
