<svg width="712" height="256" viewBox="0 0 712 256" fill="none" xmlns="http://www.w3.org/2000/svg">
<path d="M0 8C0 3.58172 3.58172 0 8 0H704C708.418 0 712 3.58172 712 8V156H0V8Z" fill="#F3F6F9"/>
<path d="M62 116C62 111.582 65.5817 108 70 108H275C279.418 108 283 111.582 283 116V156H62V116Z" fill="#E6EBF0"/>
<path d="M76.304 138.09C76.076 138.09 75.896 138.024 75.764 137.892C75.632 137.748 75.566 137.562 75.566 137.334V126.03C75.566 125.814 75.632 125.64 75.764 125.508C75.908 125.376 76.094 125.31 76.322 125.31H80.588C81.92 125.31 82.952 125.634 83.684 126.282C84.428 126.93 84.8 127.848 84.8 129.036C84.8 130.224 84.428 131.148 83.684 131.808C82.94 132.468 81.908 132.798 80.588 132.798H77.042V137.334C77.042 137.562 76.976 137.748 76.844 137.892C76.712 138.024 76.532 138.09 76.304 138.09ZM80.444 131.574C82.376 131.574 83.342 130.728 83.342 129.036C83.342 127.368 82.376 126.534 80.444 126.534H77.042V131.574H80.444ZM93.4563 135.966C93.5883 135.966 93.7023 136.02 93.7983 136.128C93.8943 136.236 93.9423 136.374 93.9423 136.542C93.9423 136.842 93.7323 137.118 93.3123 137.37C92.8803 137.622 92.4243 137.814 91.9443 137.946C91.4643 138.066 90.9963 138.126 90.5403 138.126C89.1843 138.126 88.1103 137.724 87.3183 136.92C86.5383 136.116 86.1483 135.006 86.1483 133.59C86.1483 132.69 86.3223 131.898 86.6703 131.214C87.0183 130.518 87.5043 129.978 88.1283 129.594C88.7643 129.21 89.4843 129.018 90.2883 129.018C91.4283 129.018 92.3343 129.39 93.0063 130.134C93.6783 130.878 94.0143 131.886 94.0143 133.158C94.0143 133.398 93.9663 133.572 93.8703 133.68C93.7743 133.788 93.6183 133.842 93.4023 133.842H87.6063C87.7143 135.906 88.6923 136.938 90.5403 136.938C91.0083 136.938 91.4103 136.878 91.7463 136.758C92.0823 136.626 92.4423 136.452 92.8263 136.236C93.1383 136.056 93.3483 135.966 93.4563 135.966ZM90.3063 130.152C89.5383 130.152 88.9203 130.392 88.4523 130.872C87.9963 131.352 87.7263 132.03 87.6423 132.906H92.7363C92.7123 132.018 92.4903 131.34 92.0703 130.872C91.6503 130.392 91.0623 130.152 90.3063 130.152ZM99.1145 138.126C98.5625 138.126 98.0345 138.06 97.5305 137.928C97.0385 137.796 96.6005 137.61 96.2165 137.37C96.0005 137.226 95.8445 137.094 95.7485 136.974C95.6645 136.842 95.6225 136.686 95.6225 136.506C95.6225 136.35 95.6645 136.224 95.7485 136.128C95.8445 136.02 95.9645 135.966 96.1085 135.966C96.2525 135.966 96.4625 136.056 96.7385 136.236C97.0985 136.452 97.4525 136.626 97.8005 136.758C98.1605 136.878 98.6045 136.938 99.1325 136.938C99.7805 136.938 100.285 136.824 100.645 136.596C101.005 136.368 101.185 136.038 101.185 135.606C101.185 135.342 101.119 135.132 100.987 134.976C100.855 134.808 100.627 134.664 100.303 134.544C99.9785 134.412 99.5045 134.28 98.8805 134.148C97.8245 133.92 97.0685 133.614 96.6125 133.23C96.1565 132.846 95.9285 132.324 95.9285 131.664C95.9285 131.148 96.0725 130.692 96.3605 130.296C96.6485 129.9 97.0445 129.588 97.5485 129.36C98.0645 129.132 98.6465 129.018 99.2945 129.018C99.7625 129.018 100.213 129.084 100.645 129.216C101.089 129.336 101.479 129.51 101.815 129.738C102.223 130.026 102.427 130.326 102.427 130.638C102.427 130.794 102.379 130.926 102.283 131.034C102.187 131.142 102.073 131.196 101.941 131.196C101.797 131.196 101.581 131.094 101.293 130.89C100.957 130.674 100.639 130.506 100.339 130.386C100.039 130.266 99.6665 130.206 99.2225 130.206C98.6585 130.206 98.2025 130.332 97.8545 130.584C97.5185 130.836 97.3505 131.172 97.3505 131.592C97.3505 131.856 97.4105 132.072 97.5305 132.24C97.6625 132.396 97.8725 132.54 98.1605 132.672C98.4605 132.792 98.8865 132.912 99.4385 133.032C100.255 133.212 100.885 133.41 101.329 133.626C101.785 133.842 102.109 134.106 102.301 134.418C102.493 134.73 102.589 135.126 102.589 135.606C102.589 136.362 102.271 136.974 101.635 137.442C100.999 137.898 100.159 138.126 99.1145 138.126ZM108.773 136.938C109.193 136.974 109.403 137.166 109.403 137.514C109.403 137.718 109.325 137.874 109.169 137.982C109.025 138.078 108.803 138.114 108.503 138.09L108.017 138.054C107.057 137.982 106.349 137.694 105.893 137.19C105.437 136.686 105.209 135.924 105.209 134.904V130.386H104.003C103.799 130.386 103.637 130.338 103.517 130.242C103.409 130.134 103.355 129.996 103.355 129.828C103.355 129.648 103.409 129.504 103.517 129.396C103.637 129.288 103.799 129.234 104.003 129.234H105.209V127.2C105.209 126.972 105.275 126.798 105.407 126.678C105.539 126.546 105.719 126.48 105.947 126.48C106.163 126.48 106.337 126.546 106.469 126.678C106.601 126.798 106.667 126.972 106.667 127.2V129.234H108.665C108.857 129.234 109.007 129.288 109.115 129.396C109.235 129.504 109.295 129.648 109.295 129.828C109.295 129.996 109.235 130.134 109.115 130.242C109.007 130.338 108.857 130.386 108.665 130.386H106.667V134.976C106.667 135.636 106.799 136.116 107.063 136.416C107.339 136.704 107.747 136.866 108.287 136.902L108.773 136.938ZM114.422 129.018C116.618 129.018 117.716 130.17 117.716 132.474V137.37C117.716 137.586 117.65 137.76 117.518 137.892C117.398 138.024 117.23 138.09 117.014 138.09C116.798 138.09 116.624 138.024 116.492 137.892C116.36 137.76 116.294 137.586 116.294 137.37V136.506C116.066 137.022 115.718 137.424 115.25 137.712C114.782 137.988 114.242 138.126 113.63 138.126C113.066 138.126 112.544 138.012 112.064 137.784C111.596 137.556 111.224 137.238 110.948 136.83C110.672 136.422 110.534 135.972 110.534 135.48C110.534 134.82 110.702 134.31 111.038 133.95C111.374 133.578 111.926 133.314 112.694 133.158C113.462 132.99 114.53 132.906 115.898 132.906H116.294V132.312C116.294 131.592 116.144 131.064 115.844 130.728C115.556 130.392 115.082 130.224 114.422 130.224C113.606 130.224 112.778 130.446 111.938 130.89C111.614 131.094 111.386 131.196 111.254 131.196C111.11 131.196 110.99 131.142 110.894 131.034C110.798 130.926 110.75 130.788 110.75 130.62C110.75 130.452 110.798 130.308 110.894 130.188C111.002 130.056 111.17 129.924 111.398 129.792C111.818 129.552 112.292 129.366 112.82 129.234C113.36 129.09 113.894 129.018 114.422 129.018ZM113.828 136.974C114.548 136.974 115.136 136.734 115.592 136.254C116.06 135.762 116.294 135.132 116.294 134.364V133.842H115.97C114.914 133.842 114.11 133.89 113.558 133.986C113.006 134.07 112.61 134.22 112.37 134.436C112.142 134.64 112.028 134.946 112.028 135.354C112.028 135.822 112.196 136.212 112.532 136.524C112.88 136.824 113.312 136.974 113.828 136.974ZM124.795 129.018C126.895 129.018 127.945 130.176 127.945 132.492V137.37C127.945 137.598 127.879 137.778 127.747 137.91C127.627 138.03 127.453 138.09 127.225 138.09C126.997 138.09 126.817 138.03 126.685 137.91C126.553 137.778 126.487 137.598 126.487 137.37V132.582C126.487 131.766 126.325 131.172 126.001 130.8C125.689 130.428 125.185 130.242 124.489 130.242C123.685 130.242 123.043 130.488 122.563 130.98C122.083 131.472 121.843 132.138 121.843 132.978V137.37C121.843 137.598 121.777 137.778 121.645 137.91C121.525 138.03 121.351 138.09 121.123 138.09C120.895 138.09 120.715 138.03 120.583 137.91C120.451 137.778 120.385 137.598 120.385 137.37V129.774C120.385 129.558 120.451 129.384 120.583 129.252C120.715 129.12 120.895 129.054 121.123 129.054C121.339 129.054 121.507 129.12 121.627 129.252C121.759 129.384 121.825 129.552 121.825 129.756V130.674C122.113 130.134 122.515 129.726 123.031 129.45C123.547 129.162 124.135 129.018 124.795 129.018ZM125.443 127.38C125.215 127.38 124.993 127.326 124.777 127.218C124.561 127.11 124.303 126.954 124.003 126.75C123.739 126.582 123.529 126.462 123.373 126.39C123.217 126.306 123.073 126.264 122.941 126.264C122.737 126.264 122.575 126.318 122.455 126.426C122.347 126.534 122.239 126.684 122.131 126.876C122.047 127.008 121.975 127.11 121.915 127.182C121.855 127.242 121.783 127.272 121.699 127.272C121.591 127.272 121.501 127.23 121.429 127.146C121.357 127.062 121.321 126.954 121.321 126.822C121.321 126.606 121.387 126.366 121.519 126.102C121.651 125.838 121.837 125.61 122.077 125.418C122.317 125.226 122.587 125.13 122.887 125.13C123.115 125.13 123.337 125.184 123.553 125.292C123.769 125.4 124.027 125.556 124.327 125.76C124.591 125.928 124.801 126.054 124.957 126.138C125.113 126.21 125.257 126.246 125.389 126.246C125.581 126.246 125.731 126.192 125.839 126.084C125.959 125.976 126.079 125.826 126.199 125.634C126.283 125.49 126.355 125.388 126.415 125.328C126.475 125.256 126.547 125.22 126.631 125.22C126.739 125.22 126.829 125.268 126.901 125.364C126.973 125.448 127.009 125.556 127.009 125.688C127.009 125.892 126.943 126.132 126.811 126.408C126.679 126.672 126.493 126.9 126.253 127.092C126.013 127.284 125.743 127.38 125.443 127.38ZM134.198 129.018C136.394 129.018 137.492 130.17 137.492 132.474V137.37C137.492 137.586 137.426 137.76 137.294 137.892C137.174 138.024 137.006 138.09 136.79 138.09C136.574 138.09 136.4 138.024 136.268 137.892C136.136 137.76 136.07 137.586 136.07 137.37V136.506C135.842 137.022 135.494 137.424 135.026 137.712C134.558 137.988 134.018 138.126 133.406 138.126C132.842 138.126 132.32 138.012 131.84 137.784C131.372 137.556 131 137.238 130.724 136.83C130.448 136.422 130.31 135.972 130.31 135.48C130.31 134.82 130.478 134.31 130.814 133.95C131.15 133.578 131.702 133.314 132.47 133.158C133.238 132.99 134.306 132.906 135.674 132.906H136.07V132.312C136.07 131.592 135.92 131.064 135.62 130.728C135.332 130.392 134.858 130.224 134.198 130.224C133.382 130.224 132.554 130.446 131.714 130.89C131.39 131.094 131.162 131.196 131.03 131.196C130.886 131.196 130.766 131.142 130.67 131.034C130.574 130.926 130.526 130.788 130.526 130.62C130.526 130.452 130.574 130.308 130.67 130.188C130.778 130.056 130.946 129.924 131.174 129.792C131.594 129.552 132.068 129.366 132.596 129.234C133.136 129.09 133.67 129.018 134.198 129.018ZM133.604 136.974C134.324 136.974 134.912 136.734 135.368 136.254C135.836 135.762 136.07 135.132 136.07 134.364V133.842H135.746C134.69 133.842 133.886 133.89 133.334 133.986C132.782 134.07 132.386 134.22 132.146 134.436C131.918 134.64 131.804 134.946 131.804 135.354C131.804 135.822 131.972 136.212 132.308 136.524C132.656 136.824 133.088 136.974 133.604 136.974ZM149.211 129.018C149.979 129.018 150.657 129.21 151.245 129.594C151.833 129.978 152.289 130.518 152.613 131.214C152.937 131.898 153.099 132.696 153.099 133.608C153.099 134.52 152.937 135.318 152.613 136.002C152.289 136.674 151.833 137.196 151.245 137.568C150.669 137.94 149.991 138.126 149.211 138.126C148.527 138.126 147.927 137.976 147.411 137.676C146.907 137.376 146.523 136.95 146.259 136.398V140.628C146.259 140.844 146.193 141.012 146.061 141.132C145.941 141.264 145.767 141.33 145.539 141.33C145.311 141.33 145.131 141.264 144.999 141.132C144.867 141 144.801 140.832 144.801 140.628V129.774C144.801 129.558 144.867 129.384 144.999 129.252C145.131 129.12 145.311 129.054 145.539 129.054C145.767 129.054 145.941 129.12 146.061 129.252C146.193 129.384 146.259 129.558 146.259 129.774V130.746C146.523 130.194 146.907 129.768 147.411 129.468C147.927 129.168 148.527 129.018 149.211 129.018ZM148.923 136.92C149.775 136.92 150.435 136.632 150.903 136.056C151.371 135.48 151.605 134.664 151.605 133.608C151.605 132.552 151.371 131.73 150.903 131.142C150.435 130.542 149.775 130.242 148.923 130.242C148.071 130.242 147.411 130.53 146.943 131.106C146.487 131.682 146.259 132.504 146.259 133.572C146.259 134.64 146.487 135.468 146.943 136.056C147.411 136.632 148.071 136.92 148.923 136.92ZM159.616 129.054C160.12 129.018 160.372 129.222 160.372 129.666C160.372 129.858 160.318 130.014 160.21 130.134C160.102 130.242 159.916 130.308 159.652 130.332L159.112 130.386C158.308 130.458 157.708 130.746 157.312 131.25C156.928 131.742 156.736 132.324 156.736 132.996V137.37C156.736 137.61 156.67 137.79 156.538 137.91C156.406 138.03 156.232 138.09 156.016 138.09C155.8 138.09 155.62 138.03 155.476 137.91C155.344 137.778 155.278 137.598 155.278 137.37V129.774C155.278 129.546 155.35 129.372 155.494 129.252C155.638 129.12 155.812 129.054 156.016 129.054C156.208 129.054 156.37 129.12 156.502 129.252C156.634 129.372 156.7 129.54 156.7 129.756V130.764C156.952 130.236 157.306 129.834 157.762 129.558C158.23 129.282 158.764 129.12 159.364 129.072L159.616 129.054ZM168.234 135.966C168.366 135.966 168.48 136.02 168.576 136.128C168.672 136.236 168.72 136.374 168.72 136.542C168.72 136.842 168.51 137.118 168.09 137.37C167.658 137.622 167.202 137.814 166.722 137.946C166.242 138.066 165.774 138.126 165.318 138.126C163.962 138.126 162.888 137.724 162.096 136.92C161.316 136.116 160.926 135.006 160.926 133.59C160.926 132.69 161.1 131.898 161.448 131.214C161.796 130.518 162.282 129.978 162.906 129.594C163.542 129.21 164.262 129.018 165.066 129.018C166.206 129.018 167.112 129.39 167.784 130.134C168.456 130.878 168.792 131.886 168.792 133.158C168.792 133.398 168.744 133.572 168.648 133.68C168.552 133.788 168.396 133.842 168.18 133.842H162.384C162.492 135.906 163.47 136.938 165.318 136.938C165.786 136.938 166.188 136.878 166.524 136.758C166.86 136.626 167.22 136.452 167.604 136.236C167.916 136.056 168.126 135.966 168.234 135.966ZM165.084 130.152C164.316 130.152 163.698 130.392 163.23 130.872C162.774 131.352 162.504 132.03 162.42 132.906H167.514C167.49 132.018 167.268 131.34 166.848 130.872C166.428 130.392 165.84 130.152 165.084 130.152ZM177.978 125.22C178.206 125.22 178.386 125.286 178.518 125.418C178.65 125.55 178.716 125.718 178.716 125.922V137.37C178.716 137.586 178.65 137.76 178.518 137.892C178.386 138.024 178.206 138.09 177.978 138.09C177.75 138.09 177.57 138.024 177.438 137.892C177.318 137.76 177.258 137.586 177.258 137.37V136.398C176.994 136.95 176.604 137.376 176.088 137.676C175.584 137.976 174.99 138.126 174.306 138.126C173.538 138.126 172.86 137.934 172.272 137.55C171.684 137.166 171.228 136.632 170.904 135.948C170.58 135.252 170.418 134.448 170.418 133.536C170.418 132.636 170.58 131.844 170.904 131.16C171.228 130.476 171.684 129.948 172.272 129.576C172.86 129.204 173.538 129.018 174.306 129.018C174.99 129.018 175.584 129.168 176.088 129.468C176.604 129.768 176.994 130.194 177.258 130.746V125.922C177.258 125.706 177.318 125.538 177.438 125.418C177.57 125.286 177.75 125.22 177.978 125.22ZM174.594 136.92C175.446 136.92 176.1 136.632 176.556 136.056C177.024 135.468 177.258 134.64 177.258 133.572C177.258 132.504 177.024 131.682 176.556 131.106C176.1 130.53 175.446 130.242 174.594 130.242C173.742 130.242 173.076 130.53 172.596 131.106C172.128 131.682 171.894 132.492 171.894 133.536C171.894 134.604 172.128 135.438 172.596 136.038C173.076 136.626 173.742 136.92 174.594 136.92ZM188.202 135.966C188.334 135.966 188.448 136.02 188.544 136.128C188.64 136.236 188.688 136.374 188.688 136.542C188.688 136.842 188.478 137.118 188.058 137.37C187.626 137.622 187.17 137.814 186.69 137.946C186.21 138.066 185.742 138.126 185.286 138.126C183.93 138.126 182.856 137.724 182.064 136.92C181.284 136.116 180.894 135.006 180.894 133.59C180.894 132.69 181.068 131.898 181.416 131.214C181.764 130.518 182.25 129.978 182.874 129.594C183.51 129.21 184.23 129.018 185.034 129.018C186.174 129.018 187.08 129.39 187.752 130.134C188.424 130.878 188.76 131.886 188.76 133.158C188.76 133.398 188.712 133.572 188.616 133.68C188.52 133.788 188.364 133.842 188.148 133.842H182.352C182.46 135.906 183.438 136.938 185.286 136.938C185.754 136.938 186.156 136.878 186.492 136.758C186.828 136.626 187.188 136.452 187.572 136.236C187.884 136.056 188.094 135.966 188.202 135.966ZM185.052 130.152C184.284 130.152 183.666 130.392 183.198 130.872C182.742 131.352 182.472 132.03 182.388 132.906H187.482C187.458 132.018 187.236 131.34 186.816 130.872C186.396 130.392 185.808 130.152 185.052 130.152ZM194.906 136.938C195.326 136.974 195.536 137.166 195.536 137.514C195.536 137.718 195.458 137.874 195.302 137.982C195.158 138.078 194.936 138.114 194.636 138.09L194.15 138.054C193.19 137.982 192.482 137.694 192.026 137.19C191.57 136.686 191.342 135.924 191.342 134.904V130.386H190.136C189.932 130.386 189.77 130.338 189.65 130.242C189.542 130.134 189.488 129.996 189.488 129.828C189.488 129.648 189.542 129.504 189.65 129.396C189.77 129.288 189.932 129.234 190.136 129.234H191.342V127.2C191.342 126.972 191.408 126.798 191.54 126.678C191.672 126.546 191.852 126.48 192.08 126.48C192.296 126.48 192.47 126.546 192.602 126.678C192.734 126.798 192.8 126.972 192.8 127.2V129.234H194.798C194.99 129.234 195.14 129.288 195.248 129.396C195.368 129.504 195.428 129.648 195.428 129.828C195.428 129.996 195.368 130.134 195.248 130.242C195.14 130.338 194.99 130.386 194.798 130.386H192.8V134.976C192.8 135.636 192.932 136.116 193.196 136.416C193.472 136.704 193.88 136.866 194.42 136.902L194.906 136.938ZM203.759 135.966C203.891 135.966 204.005 136.02 204.101 136.128C204.197 136.236 204.245 136.374 204.245 136.542C204.245 136.842 204.035 137.118 203.615 137.37C203.183 137.622 202.727 137.814 202.247 137.946C201.767 138.066 201.299 138.126 200.843 138.126C199.487 138.126 198.413 137.724 197.621 136.92C196.841 136.116 196.451 135.006 196.451 133.59C196.451 132.69 196.625 131.898 196.973 131.214C197.321 130.518 197.807 129.978 198.431 129.594C199.067 129.21 199.787 129.018 200.591 129.018C201.731 129.018 202.637 129.39 203.309 130.134C203.981 130.878 204.317 131.886 204.317 133.158C204.317 133.398 204.269 133.572 204.173 133.68C204.077 133.788 203.921 133.842 203.705 133.842H197.909C198.017 135.906 198.995 136.938 200.843 136.938C201.311 136.938 201.713 136.878 202.049 136.758C202.385 136.626 202.745 136.452 203.129 136.236C203.441 136.056 203.651 135.966 203.759 135.966ZM200.609 130.152C199.841 130.152 199.223 130.392 198.755 130.872C198.299 131.352 198.029 132.03 197.945 132.906H203.039C203.015 132.018 202.793 131.34 202.373 130.872C201.953 130.392 201.365 130.152 200.609 130.152ZM210.803 129.054C211.307 129.018 211.559 129.222 211.559 129.666C211.559 129.858 211.505 130.014 211.397 130.134C211.289 130.242 211.103 130.308 210.839 130.332L210.299 130.386C209.495 130.458 208.895 130.746 208.499 131.25C208.115 131.742 207.923 132.324 207.923 132.996V137.37C207.923 137.61 207.857 137.79 207.725 137.91C207.593 138.03 207.419 138.09 207.203 138.09C206.987 138.09 206.807 138.03 206.663 137.91C206.531 137.778 206.465 137.598 206.465 137.37V129.774C206.465 129.546 206.537 129.372 206.681 129.252C206.825 129.12 206.999 129.054 207.203 129.054C207.395 129.054 207.557 129.12 207.689 129.252C207.821 129.372 207.887 129.54 207.887 129.756V130.764C208.139 130.236 208.493 129.834 208.949 129.558C209.417 129.282 209.951 129.12 210.551 129.072L210.803 129.054ZM222.567 129.018C224.511 129.018 225.483 130.176 225.483 132.492V137.37C225.483 137.598 225.417 137.778 225.285 137.91C225.153 138.03 224.979 138.09 224.763 138.09C224.547 138.09 224.367 138.03 224.223 137.91C224.091 137.778 224.025 137.598 224.025 137.37V132.528C224.025 131.724 223.881 131.142 223.593 130.782C223.305 130.422 222.855 130.242 222.243 130.242C221.511 130.242 220.935 130.488 220.515 130.98C220.095 131.472 219.885 132.138 219.885 132.978V137.37C219.885 137.598 219.813 137.778 219.669 137.91C219.537 138.03 219.363 138.09 219.147 138.09C218.931 138.09 218.757 138.03 218.625 137.91C218.493 137.778 218.427 137.598 218.427 137.37V132.528C218.427 131.724 218.283 131.142 217.995 130.782C217.707 130.422 217.251 130.242 216.627 130.242C215.907 130.242 215.331 130.488 214.899 130.98C214.479 131.472 214.269 132.138 214.269 132.978V137.37C214.269 137.598 214.203 137.778 214.071 137.91C213.939 138.03 213.765 138.09 213.549 138.09C213.333 138.09 213.153 138.03 213.009 137.91C212.877 137.778 212.811 137.598 212.811 137.37V129.774C212.811 129.558 212.877 129.384 213.009 129.252C213.153 129.12 213.333 129.054 213.549 129.054C213.753 129.054 213.921 129.12 214.053 129.252C214.185 129.372 214.251 129.54 214.251 129.756V130.62C214.515 130.104 214.881 129.708 215.349 129.432C215.817 129.156 216.357 129.018 216.969 129.018C218.337 129.018 219.231 129.594 219.651 130.746C219.903 130.218 220.287 129.798 220.803 129.486C221.319 129.174 221.907 129.018 222.567 129.018ZM228.877 138.09C228.661 138.09 228.481 138.03 228.337 137.91C228.205 137.778 228.139 137.598 228.139 137.37V129.774C228.139 129.546 228.205 129.372 228.337 129.252C228.481 129.12 228.661 129.054 228.877 129.054C229.093 129.054 229.267 129.12 229.399 129.252C229.531 129.372 229.597 129.546 229.597 129.774V137.37C229.597 137.61 229.531 137.79 229.399 137.91C229.267 138.03 229.093 138.09 228.877 138.09ZM228.877 127.164C228.589 127.164 228.355 127.08 228.175 126.912C227.995 126.744 227.905 126.522 227.905 126.246C227.905 125.982 227.995 125.766 228.175 125.598C228.355 125.43 228.589 125.346 228.877 125.346C229.165 125.346 229.399 125.43 229.579 125.598C229.759 125.766 229.849 125.982 229.849 126.246C229.849 126.522 229.759 126.744 229.579 126.912C229.399 127.08 229.165 127.164 228.877 127.164ZM236.733 129.018C238.833 129.018 239.883 130.176 239.883 132.492V137.37C239.883 137.598 239.817 137.778 239.685 137.91C239.565 138.03 239.391 138.09 239.163 138.09C238.935 138.09 238.755 138.03 238.623 137.91C238.491 137.778 238.425 137.598 238.425 137.37V132.582C238.425 131.766 238.263 131.172 237.939 130.8C237.627 130.428 237.123 130.242 236.427 130.242C235.623 130.242 234.981 130.488 234.501 130.98C234.021 131.472 233.781 132.138 233.781 132.978V137.37C233.781 137.598 233.715 137.778 233.583 137.91C233.463 138.03 233.289 138.09 233.061 138.09C232.833 138.09 232.653 138.03 232.521 137.91C232.389 137.778 232.323 137.598 232.323 137.37V129.774C232.323 129.558 232.389 129.384 232.521 129.252C232.653 129.12 232.833 129.054 233.061 129.054C233.277 129.054 233.445 129.12 233.565 129.252C233.697 129.384 233.763 129.552 233.763 129.756V130.674C234.051 130.134 234.453 129.726 234.969 129.45C235.485 129.162 236.073 129.018 236.733 129.018ZM246.135 129.018C248.331 129.018 249.429 130.17 249.429 132.474V137.37C249.429 137.586 249.363 137.76 249.231 137.892C249.111 138.024 248.943 138.09 248.727 138.09C248.511 138.09 248.337 138.024 248.205 137.892C248.073 137.76 248.007 137.586 248.007 137.37V136.506C247.779 137.022 247.431 137.424 246.963 137.712C246.495 137.988 245.955 138.126 245.343 138.126C244.779 138.126 244.257 138.012 243.777 137.784C243.309 137.556 242.937 137.238 242.661 136.83C242.385 136.422 242.247 135.972 242.247 135.48C242.247 134.82 242.415 134.31 242.751 133.95C243.087 133.578 243.639 133.314 244.407 133.158C245.175 132.99 246.243 132.906 247.611 132.906H248.007V132.312C248.007 131.592 247.857 131.064 247.557 130.728C247.269 130.392 246.795 130.224 246.135 130.224C245.319 130.224 244.491 130.446 243.651 130.89C243.327 131.094 243.099 131.196 242.967 131.196C242.823 131.196 242.703 131.142 242.607 131.034C242.511 130.926 242.463 130.788 242.463 130.62C242.463 130.452 242.511 130.308 242.607 130.188C242.715 130.056 242.883 129.924 243.111 129.792C243.531 129.552 244.005 129.366 244.533 129.234C245.073 129.09 245.607 129.018 246.135 129.018ZM245.541 136.974C246.261 136.974 246.849 136.734 247.305 136.254C247.773 135.762 248.007 135.132 248.007 134.364V133.842H247.683C246.627 133.842 245.823 133.89 245.271 133.986C244.719 134.07 244.323 134.22 244.083 134.436C243.855 134.64 243.741 134.946 243.741 135.354C243.741 135.822 243.909 136.212 244.245 136.524C244.593 136.824 245.025 136.974 245.541 136.974ZM259.136 125.22C259.364 125.22 259.544 125.286 259.676 125.418C259.808 125.55 259.874 125.718 259.874 125.922V137.37C259.874 137.586 259.808 137.76 259.676 137.892C259.544 138.024 259.364 138.09 259.136 138.09C258.908 138.09 258.728 138.024 258.596 137.892C258.476 137.76 258.416 137.586 258.416 137.37V136.398C258.152 136.95 257.762 137.376 257.246 137.676C256.742 137.976 256.148 138.126 255.464 138.126C254.696 138.126 254.018 137.934 253.43 137.55C252.842 137.166 252.386 136.632 252.062 135.948C251.738 135.252 251.576 134.448 251.576 133.536C251.576 132.636 251.738 131.844 252.062 131.16C252.386 130.476 252.842 129.948 253.43 129.576C254.018 129.204 254.696 129.018 255.464 129.018C256.148 129.018 256.742 129.168 257.246 129.468C257.762 129.768 258.152 130.194 258.416 130.746V125.922C258.416 125.706 258.476 125.538 258.596 125.418C258.728 125.286 258.908 125.22 259.136 125.22ZM255.752 136.92C256.604 136.92 257.258 136.632 257.714 136.056C258.182 135.468 258.416 134.64 258.416 133.572C258.416 132.504 258.182 131.682 257.714 131.106C257.258 130.53 256.604 130.242 255.752 130.242C254.9 130.242 254.234 130.53 253.754 131.106C253.286 131.682 253.052 132.492 253.052 133.536C253.052 134.604 253.286 135.438 253.754 136.038C254.234 136.626 254.9 136.92 255.752 136.92ZM266.157 129.018C268.353 129.018 269.451 130.17 269.451 132.474V137.37C269.451 137.586 269.385 137.76 269.253 137.892C269.133 138.024 268.965 138.09 268.749 138.09C268.533 138.09 268.359 138.024 268.227 137.892C268.095 137.76 268.029 137.586 268.029 137.37V136.506C267.801 137.022 267.453 137.424 266.985 137.712C266.517 137.988 265.977 138.126 265.365 138.126C264.801 138.126 264.279 138.012 263.799 137.784C263.331 137.556 262.959 137.238 262.683 136.83C262.407 136.422 262.269 135.972 262.269 135.48C262.269 134.82 262.437 134.31 262.773 133.95C263.109 133.578 263.661 133.314 264.429 133.158C265.197 132.99 266.265 132.906 267.633 132.906H268.029V132.312C268.029 131.592 267.879 131.064 267.579 130.728C267.291 130.392 266.817 130.224 266.157 130.224C265.341 130.224 264.513 130.446 263.673 130.89C263.349 131.094 263.121 131.196 262.989 131.196C262.845 131.196 262.725 131.142 262.629 131.034C262.533 130.926 262.485 130.788 262.485 130.62C262.485 130.452 262.533 130.308 262.629 130.188C262.737 130.056 262.905 129.924 263.133 129.792C263.553 129.552 264.027 129.366 264.555 129.234C265.095 129.09 265.629 129.018 266.157 129.018ZM265.563 136.974C266.283 136.974 266.871 136.734 267.327 136.254C267.795 135.762 268.029 135.132 268.029 134.364V133.842H267.705C266.649 133.842 265.845 133.89 265.293 133.986C264.741 134.07 264.345 134.22 264.105 134.436C263.877 134.64 263.763 134.946 263.763 135.354C263.763 135.822 263.931 136.212 264.267 136.524C264.615 136.824 265.047 136.974 265.563 136.974Z" fill="#38485C"/>
<path d="M283 116C283 111.582 286.582 108 291 108H420C424.418 108 428 111.582 428 116V156H283V116Z" fill="white"/>
<path d="M297.52 138.108C297.172 138.108 296.89 138.006 296.674 137.802C296.47 137.586 296.368 137.298 296.368 136.938V126.408C296.368 126.06 296.464 125.79 296.656 125.598C296.86 125.406 297.136 125.31 297.484 125.31H301.912C303.268 125.31 304.324 125.652 305.08 126.336C305.836 127.008 306.214 127.956 306.214 129.18C306.214 130.404 305.836 131.358 305.08 132.042C304.324 132.726 303.268 133.068 301.912 133.068H298.69V136.938C298.69 137.298 298.582 137.586 298.366 137.802C298.162 138.006 297.88 138.108 297.52 138.108ZM301.624 131.286C303.22 131.286 304.018 130.59 304.018 129.198C304.018 127.806 303.22 127.11 301.624 127.11H298.69V131.286H301.624ZM314.702 135.588C314.906 135.588 315.068 135.666 315.188 135.822C315.32 135.978 315.386 136.188 315.386 136.452C315.386 136.824 315.164 137.136 314.72 137.388C314.312 137.616 313.85 137.802 313.334 137.946C312.818 138.078 312.326 138.144 311.858 138.144C310.442 138.144 309.32 137.736 308.492 136.92C307.664 136.104 307.25 134.988 307.25 133.572C307.25 132.672 307.43 131.874 307.79 131.178C308.15 130.482 308.654 129.942 309.302 129.558C309.962 129.174 310.706 128.982 311.534 128.982C312.326 128.982 313.016 129.156 313.604 129.504C314.192 129.852 314.648 130.344 314.972 130.98C315.296 131.616 315.458 132.366 315.458 133.23C315.458 133.746 315.23 134.004 314.774 134.004H309.464C309.536 134.832 309.77 135.444 310.166 135.84C310.562 136.224 311.138 136.416 311.894 136.416C312.278 136.416 312.614 136.368 312.902 136.272C313.202 136.176 313.538 136.044 313.91 135.876C314.27 135.684 314.534 135.588 314.702 135.588ZM311.588 130.566C310.976 130.566 310.484 130.758 310.112 131.142C309.752 131.526 309.536 132.078 309.464 132.798H313.532C313.508 132.066 313.328 131.514 312.992 131.142C312.656 130.758 312.188 130.566 311.588 130.566ZM320.485 138.144C319.177 138.144 318.121 137.886 317.317 137.37C316.933 137.142 316.741 136.818 316.741 136.398C316.741 136.158 316.807 135.966 316.939 135.822C317.071 135.666 317.233 135.588 317.425 135.588C317.629 135.588 317.911 135.684 318.271 135.876C318.655 136.056 319.003 136.194 319.315 136.29C319.639 136.386 320.047 136.434 320.539 136.434C321.043 136.434 321.433 136.35 321.709 136.182C321.997 136.014 322.141 135.78 322.141 135.48C322.141 135.276 322.081 135.114 321.961 134.994C321.853 134.874 321.649 134.766 321.349 134.67C321.061 134.562 320.617 134.442 320.017 134.31C318.949 134.094 318.181 133.788 317.713 133.392C317.257 132.996 317.029 132.45 317.029 131.754C317.029 131.226 317.185 130.752 317.497 130.332C317.809 129.9 318.235 129.57 318.775 129.342C319.327 129.102 319.951 128.982 320.647 128.982C321.151 128.982 321.637 129.048 322.105 129.18C322.573 129.3 322.993 129.48 323.365 129.72C323.749 129.96 323.941 130.278 323.941 130.674C323.941 130.914 323.875 131.118 323.743 131.286C323.611 131.442 323.449 131.52 323.257 131.52C323.125 131.52 322.993 131.496 322.861 131.448C322.741 131.388 322.585 131.304 322.393 131.196C322.045 131.016 321.745 130.884 321.493 130.8C321.241 130.704 320.929 130.656 320.557 130.656C320.113 130.656 319.759 130.746 319.495 130.926C319.243 131.106 319.117 131.352 319.117 131.664C319.117 131.964 319.249 132.192 319.513 132.348C319.777 132.504 320.287 132.66 321.043 132.816C321.847 132.984 322.477 133.176 322.933 133.392C323.389 133.608 323.713 133.878 323.905 134.202C324.109 134.526 324.211 134.94 324.211 135.444C324.211 136.26 323.869 136.914 323.185 137.406C322.513 137.898 321.613 138.144 320.485 138.144ZM330.519 136.434C331.119 136.47 331.419 136.74 331.419 137.244C331.419 137.532 331.299 137.754 331.059 137.91C330.831 138.054 330.501 138.114 330.069 138.09L329.583 138.054C327.567 137.91 326.559 136.83 326.559 134.814V130.89H325.659C325.335 130.89 325.083 130.818 324.903 130.674C324.735 130.53 324.651 130.32 324.651 130.044C324.651 129.768 324.735 129.558 324.903 129.414C325.083 129.27 325.335 129.198 325.659 129.198H326.559V127.542C326.559 127.218 326.661 126.96 326.865 126.768C327.069 126.576 327.345 126.48 327.693 126.48C328.029 126.48 328.299 126.576 328.503 126.768C328.707 126.96 328.809 127.218 328.809 127.542V129.198H330.339C330.663 129.198 330.909 129.27 331.077 129.414C331.257 129.558 331.347 129.768 331.347 130.044C331.347 130.32 331.257 130.53 331.077 130.674C330.909 130.818 330.663 130.89 330.339 130.89H328.809V134.976C328.809 135.864 329.217 136.338 330.033 136.398L330.519 136.434ZM336.408 128.982C337.632 128.982 338.538 129.288 339.126 129.9C339.726 130.5 340.026 131.418 340.026 132.654V137.046C340.026 137.37 339.93 137.628 339.738 137.82C339.546 138 339.282 138.09 338.946 138.09C338.634 138.09 338.376 137.994 338.172 137.802C337.98 137.61 337.884 137.358 337.884 137.046V136.65C337.68 137.118 337.356 137.484 336.912 137.748C336.48 138.012 335.976 138.144 335.4 138.144C334.812 138.144 334.278 138.024 333.798 137.784C333.318 137.544 332.94 137.214 332.664 136.794C332.388 136.374 332.25 135.906 332.25 135.39C332.25 134.742 332.412 134.232 332.736 133.86C333.072 133.488 333.612 133.218 334.356 133.05C335.1 132.882 336.126 132.798 337.434 132.798H337.884V132.384C337.884 131.796 337.758 131.37 337.506 131.106C337.254 130.83 336.846 130.692 336.282 130.692C335.934 130.692 335.58 130.746 335.22 130.854C334.86 130.95 334.434 131.094 333.942 131.286C333.63 131.442 333.402 131.52 333.258 131.52C333.042 131.52 332.862 131.442 332.718 131.286C332.586 131.13 332.52 130.926 332.52 130.674C332.52 130.47 332.568 130.296 332.664 130.152C332.772 129.996 332.946 129.852 333.186 129.72C333.606 129.492 334.104 129.312 334.68 129.18C335.268 129.048 335.844 128.982 336.408 128.982ZM335.85 136.524C336.45 136.524 336.936 136.326 337.308 135.93C337.692 135.522 337.884 135 337.884 134.364V133.986H337.56C336.756 133.986 336.132 134.022 335.688 134.094C335.244 134.166 334.926 134.292 334.734 134.472C334.542 134.652 334.446 134.898 334.446 135.21C334.446 135.594 334.578 135.912 334.842 136.164C335.118 136.404 335.454 136.524 335.85 136.524ZM347.425 128.982C348.481 128.982 349.267 129.282 349.783 129.882C350.299 130.482 350.557 131.388 350.557 132.6V137.028C350.557 137.364 350.455 137.628 350.251 137.82C350.059 138.012 349.789 138.108 349.441 138.108C349.093 138.108 348.817 138.012 348.613 137.82C348.409 137.628 348.307 137.364 348.307 137.028V132.726C348.307 132.042 348.175 131.544 347.911 131.232C347.659 130.92 347.257 130.764 346.705 130.764C346.057 130.764 345.535 130.968 345.139 131.376C344.755 131.784 344.563 132.33 344.563 133.014V137.028C344.563 137.364 344.461 137.628 344.257 137.82C344.053 138.012 343.777 138.108 343.429 138.108C343.081 138.108 342.805 138.012 342.601 137.82C342.409 137.628 342.313 137.364 342.313 137.028V130.062C342.313 129.75 342.415 129.498 342.619 129.306C342.823 129.114 343.099 129.018 343.447 129.018C343.759 129.018 344.011 129.114 344.203 129.306C344.407 129.486 344.509 129.726 344.509 130.026V130.512C344.809 130.02 345.211 129.642 345.715 129.378C346.219 129.114 346.789 128.982 347.425 128.982ZM347.749 127.488C347.533 127.488 347.317 127.44 347.101 127.344C346.897 127.248 346.633 127.104 346.309 126.912C346.045 126.756 345.835 126.642 345.679 126.57C345.523 126.498 345.379 126.462 345.247 126.462C345.055 126.462 344.899 126.51 344.779 126.606C344.671 126.702 344.557 126.84 344.437 127.02C344.341 127.164 344.257 127.272 344.185 127.344C344.113 127.404 344.023 127.434 343.915 127.434C343.783 127.434 343.669 127.38 343.573 127.272C343.489 127.152 343.447 127.002 343.447 126.822C343.447 126.582 343.519 126.318 343.663 126.03C343.807 125.73 344.005 125.478 344.257 125.274C344.521 125.058 344.809 124.95 345.121 124.95C345.337 124.95 345.547 124.998 345.751 125.094C345.967 125.19 346.237 125.334 346.561 125.526C346.825 125.682 347.035 125.796 347.191 125.868C347.347 125.94 347.491 125.976 347.623 125.976C347.815 125.976 347.965 125.928 348.073 125.832C348.193 125.736 348.313 125.598 348.433 125.418C348.529 125.274 348.613 125.172 348.685 125.112C348.757 125.04 348.847 125.004 348.955 125.004C349.099 125.004 349.213 125.064 349.297 125.184C349.381 125.292 349.423 125.436 349.423 125.616C349.423 125.856 349.351 126.126 349.207 126.426C349.063 126.714 348.859 126.966 348.595 127.182C348.343 127.386 348.061 127.488 347.749 127.488ZM356.658 128.982C357.882 128.982 358.788 129.288 359.376 129.9C359.976 130.5 360.276 131.418 360.276 132.654V137.046C360.276 137.37 360.18 137.628 359.988 137.82C359.796 138 359.532 138.09 359.196 138.09C358.884 138.09 358.626 137.994 358.422 137.802C358.23 137.61 358.134 137.358 358.134 137.046V136.65C357.93 137.118 357.606 137.484 357.162 137.748C356.73 138.012 356.226 138.144 355.65 138.144C355.062 138.144 354.528 138.024 354.048 137.784C353.568 137.544 353.19 137.214 352.914 136.794C352.638 136.374 352.5 135.906 352.5 135.39C352.5 134.742 352.662 134.232 352.986 133.86C353.322 133.488 353.862 133.218 354.606 133.05C355.35 132.882 356.376 132.798 357.684 132.798H358.134V132.384C358.134 131.796 358.008 131.37 357.756 131.106C357.504 130.83 357.096 130.692 356.532 130.692C356.184 130.692 355.83 130.746 355.47 130.854C355.11 130.95 354.684 131.094 354.192 131.286C353.88 131.442 353.652 131.52 353.508 131.52C353.292 131.52 353.112 131.442 352.968 131.286C352.836 131.13 352.77 130.926 352.77 130.674C352.77 130.47 352.818 130.296 352.914 130.152C353.022 129.996 353.196 129.852 353.436 129.72C353.856 129.492 354.354 129.312 354.93 129.18C355.518 129.048 356.094 128.982 356.658 128.982ZM356.1 136.524C356.7 136.524 357.186 136.326 357.558 135.93C357.942 135.522 358.134 135 358.134 134.364V133.986H357.81C357.006 133.986 356.382 134.022 355.938 134.094C355.494 134.166 355.176 134.292 354.984 134.472C354.792 134.652 354.696 134.898 354.696 135.21C354.696 135.594 354.828 135.912 355.092 136.164C355.368 136.404 355.704 136.524 356.1 136.524ZM371.265 128.982C372.489 128.982 373.395 129.288 373.983 129.9C374.583 130.5 374.883 131.418 374.883 132.654V137.046C374.883 137.37 374.787 137.628 374.595 137.82C374.403 138 374.139 138.09 373.803 138.09C373.491 138.09 373.233 137.994 373.029 137.802C372.837 137.61 372.741 137.358 372.741 137.046V136.65C372.537 137.118 372.213 137.484 371.769 137.748C371.337 138.012 370.833 138.144 370.257 138.144C369.669 138.144 369.135 138.024 368.655 137.784C368.175 137.544 367.797 137.214 367.521 136.794C367.245 136.374 367.107 135.906 367.107 135.39C367.107 134.742 367.269 134.232 367.593 133.86C367.929 133.488 368.469 133.218 369.213 133.05C369.957 132.882 370.983 132.798 372.291 132.798H372.741V132.384C372.741 131.796 372.615 131.37 372.363 131.106C372.111 130.83 371.703 130.692 371.139 130.692C370.791 130.692 370.437 130.746 370.077 130.854C369.717 130.95 369.291 131.094 368.799 131.286C368.487 131.442 368.259 131.52 368.115 131.52C367.899 131.52 367.719 131.442 367.575 131.286C367.443 131.13 367.377 130.926 367.377 130.674C367.377 130.47 367.425 130.296 367.521 130.152C367.629 129.996 367.803 129.852 368.043 129.72C368.463 129.492 368.961 129.312 369.537 129.18C370.125 129.048 370.701 128.982 371.265 128.982ZM370.707 136.524C371.307 136.524 371.793 136.326 372.165 135.93C372.549 135.522 372.741 135 372.741 134.364V133.986H372.417C371.613 133.986 370.989 134.022 370.545 134.094C370.101 134.166 369.783 134.292 369.591 134.472C369.399 134.652 369.303 134.898 369.303 135.21C369.303 135.594 369.435 135.912 369.699 136.164C369.975 136.404 370.311 136.524 370.707 136.524ZM381.076 138.144C380.2 138.144 379.426 137.958 378.754 137.586C378.094 137.214 377.584 136.686 377.224 136.002C376.864 135.318 376.684 134.52 376.684 133.608C376.684 132.696 376.87 131.892 377.242 131.196C377.626 130.488 378.16 129.942 378.844 129.558C379.528 129.174 380.314 128.982 381.202 128.982C381.67 128.982 382.138 129.048 382.606 129.18C383.086 129.312 383.506 129.492 383.866 129.72C384.25 129.972 384.442 130.29 384.442 130.674C384.442 130.938 384.376 131.154 384.244 131.322C384.124 131.478 383.962 131.556 383.758 131.556C383.626 131.556 383.488 131.526 383.344 131.466C383.2 131.406 383.056 131.334 382.912 131.25C382.648 131.094 382.396 130.974 382.156 130.89C381.916 130.794 381.64 130.746 381.328 130.746C380.584 130.746 380.008 130.992 379.6 131.484C379.204 131.964 379.006 132.66 379.006 133.572C379.006 134.472 379.204 135.168 379.6 135.66C380.008 136.14 380.584 136.38 381.328 136.38C381.628 136.38 381.892 136.338 382.12 136.254C382.36 136.158 382.624 136.032 382.912 135.876C383.092 135.768 383.248 135.69 383.38 135.642C383.512 135.582 383.644 135.552 383.776 135.552C383.968 135.552 384.13 135.636 384.262 135.804C384.394 135.972 384.46 136.182 384.46 136.434C384.46 136.638 384.412 136.818 384.316 136.974C384.232 137.118 384.088 137.25 383.884 137.37C383.512 137.61 383.08 137.802 382.588 137.946C382.096 138.078 381.592 138.144 381.076 138.144ZM390.584 136.434C391.184 136.47 391.484 136.74 391.484 137.244C391.484 137.532 391.364 137.754 391.124 137.91C390.896 138.054 390.566 138.114 390.134 138.09L389.648 138.054C387.632 137.91 386.624 136.83 386.624 134.814V130.89H385.724C385.4 130.89 385.148 130.818 384.968 130.674C384.8 130.53 384.716 130.32 384.716 130.044C384.716 129.768 384.8 129.558 384.968 129.414C385.148 129.27 385.4 129.198 385.724 129.198H386.624V127.542C386.624 127.218 386.726 126.96 386.93 126.768C387.134 126.576 387.41 126.48 387.758 126.48C388.094 126.48 388.364 126.576 388.568 126.768C388.772 126.96 388.874 127.218 388.874 127.542V129.198H390.404C390.728 129.198 390.974 129.27 391.142 129.414C391.322 129.558 391.412 129.768 391.412 130.044C391.412 130.32 391.322 130.53 391.142 130.674C390.974 130.818 390.728 130.89 390.404 130.89H388.874V134.976C388.874 135.864 389.282 136.338 390.098 136.398L390.584 136.434ZM393.772 138.108C393.448 138.108 393.178 138.018 392.962 137.838C392.758 137.646 392.656 137.376 392.656 137.028V130.08C392.656 129.732 392.758 129.468 392.962 129.288C393.178 129.108 393.448 129.018 393.772 129.018C394.096 129.018 394.366 129.108 394.582 129.288C394.798 129.468 394.906 129.732 394.906 130.08V137.028C394.906 137.376 394.798 137.646 394.582 137.838C394.366 138.018 394.096 138.108 393.772 138.108ZM393.772 127.416C393.364 127.416 393.04 127.308 392.8 127.092C392.56 126.864 392.44 126.57 392.44 126.21C392.44 125.85 392.56 125.562 392.8 125.346C393.04 125.13 393.364 125.022 393.772 125.022C394.168 125.022 394.486 125.13 394.726 125.346C394.978 125.562 395.104 125.85 395.104 126.21C395.104 126.57 394.984 126.864 394.744 127.092C394.504 127.308 394.18 127.416 393.772 127.416ZM403.365 129.666C403.461 129.45 403.587 129.288 403.743 129.18C403.911 129.072 404.091 129.018 404.283 129.018C404.559 129.018 404.805 129.114 405.021 129.306C405.249 129.486 405.363 129.714 405.363 129.99C405.363 130.134 405.327 130.278 405.255 130.422L401.925 137.388C401.817 137.616 401.661 137.79 401.457 137.91C401.265 138.03 401.049 138.09 400.809 138.09C400.581 138.09 400.359 138.03 400.143 137.91C399.939 137.79 399.783 137.616 399.675 137.388L396.327 130.422C396.267 130.302 396.237 130.164 396.237 130.008C396.237 129.732 396.351 129.498 396.579 129.306C396.819 129.114 397.089 129.018 397.389 129.018C397.821 129.018 398.139 129.228 398.343 129.648L400.863 135.21L403.365 129.666ZM410.394 128.982C411.618 128.982 412.524 129.288 413.112 129.9C413.712 130.5 414.012 131.418 414.012 132.654V137.046C414.012 137.37 413.916 137.628 413.724 137.82C413.532 138 413.268 138.09 412.932 138.09C412.62 138.09 412.362 137.994 412.158 137.802C411.966 137.61 411.87 137.358 411.87 137.046V136.65C411.666 137.118 411.342 137.484 410.898 137.748C410.466 138.012 409.962 138.144 409.386 138.144C408.798 138.144 408.264 138.024 407.784 137.784C407.304 137.544 406.926 137.214 406.65 136.794C406.374 136.374 406.236 135.906 406.236 135.39C406.236 134.742 406.398 134.232 406.722 133.86C407.058 133.488 407.598 133.218 408.342 133.05C409.086 132.882 410.112 132.798 411.42 132.798H411.87V132.384C411.87 131.796 411.744 131.37 411.492 131.106C411.24 130.83 410.832 130.692 410.268 130.692C409.92 130.692 409.566 130.746 409.206 130.854C408.846 130.95 408.42 131.094 407.928 131.286C407.616 131.442 407.388 131.52 407.244 131.52C407.028 131.52 406.848 131.442 406.704 131.286C406.572 131.13 406.506 130.926 406.506 130.674C406.506 130.47 406.554 130.296 406.65 130.152C406.758 129.996 406.932 129.852 407.172 129.72C407.592 129.492 408.09 129.312 408.666 129.18C409.254 129.048 409.83 128.982 410.394 128.982ZM409.836 136.524C410.436 136.524 410.922 136.326 411.294 135.93C411.678 135.522 411.87 135 411.87 134.364V133.986H411.546C410.742 133.986 410.118 134.022 409.674 134.094C409.23 134.166 408.912 134.292 408.72 134.472C408.528 134.652 408.432 134.898 408.432 135.21C408.432 135.594 408.564 135.912 408.828 136.164C409.104 136.404 409.44 136.524 409.836 136.524Z" fill="#38485C"/>
<path d="M428 116C428 111.582 431.582 108 436 108H641C645.418 108 649 111.582 649 116V156H428V116Z" fill="#E6EBF0"/>
<path d="M442.304 138.09C442.076 138.09 441.896 138.024 441.764 137.892C441.632 137.748 441.566 137.562 441.566 137.334V126.03C441.566 125.814 441.632 125.64 441.764 125.508C441.908 125.376 442.094 125.31 442.322 125.31H446.588C447.92 125.31 448.952 125.634 449.684 126.282C450.428 126.93 450.8 127.848 450.8 129.036C450.8 130.224 450.428 131.148 449.684 131.808C448.94 132.468 447.908 132.798 446.588 132.798H443.042V137.334C443.042 137.562 442.976 137.748 442.844 137.892C442.712 138.024 442.532 138.09 442.304 138.09ZM446.444 131.574C448.376 131.574 449.342 130.728 449.342 129.036C449.342 127.368 448.376 126.534 446.444 126.534H443.042V131.574H446.444ZM459.456 135.966C459.588 135.966 459.702 136.02 459.798 136.128C459.894 136.236 459.942 136.374 459.942 136.542C459.942 136.842 459.732 137.118 459.312 137.37C458.88 137.622 458.424 137.814 457.944 137.946C457.464 138.066 456.996 138.126 456.54 138.126C455.184 138.126 454.11 137.724 453.318 136.92C452.538 136.116 452.148 135.006 452.148 133.59C452.148 132.69 452.322 131.898 452.67 131.214C453.018 130.518 453.504 129.978 454.128 129.594C454.764 129.21 455.484 129.018 456.288 129.018C457.428 129.018 458.334 129.39 459.006 130.134C459.678 130.878 460.014 131.886 460.014 133.158C460.014 133.398 459.966 133.572 459.87 133.68C459.774 133.788 459.618 133.842 459.402 133.842H453.606C453.714 135.906 454.692 136.938 456.54 136.938C457.008 136.938 457.41 136.878 457.746 136.758C458.082 136.626 458.442 136.452 458.826 136.236C459.138 136.056 459.348 135.966 459.456 135.966ZM456.306 130.152C455.538 130.152 454.92 130.392 454.452 130.872C453.996 131.352 453.726 132.03 453.642 132.906H458.736C458.712 132.018 458.49 131.34 458.07 130.872C457.65 130.392 457.062 130.152 456.306 130.152ZM465.115 138.126C464.563 138.126 464.035 138.06 463.531 137.928C463.039 137.796 462.601 137.61 462.217 137.37C462.001 137.226 461.845 137.094 461.749 136.974C461.665 136.842 461.623 136.686 461.623 136.506C461.623 136.35 461.665 136.224 461.749 136.128C461.845 136.02 461.965 135.966 462.109 135.966C462.253 135.966 462.463 136.056 462.739 136.236C463.099 136.452 463.453 136.626 463.801 136.758C464.161 136.878 464.605 136.938 465.133 136.938C465.781 136.938 466.285 136.824 466.645 136.596C467.005 136.368 467.185 136.038 467.185 135.606C467.185 135.342 467.119 135.132 466.987 134.976C466.855 134.808 466.627 134.664 466.303 134.544C465.979 134.412 465.505 134.28 464.881 134.148C463.825 133.92 463.069 133.614 462.613 133.23C462.157 132.846 461.929 132.324 461.929 131.664C461.929 131.148 462.073 130.692 462.361 130.296C462.649 129.9 463.045 129.588 463.549 129.36C464.065 129.132 464.647 129.018 465.295 129.018C465.763 129.018 466.213 129.084 466.645 129.216C467.089 129.336 467.479 129.51 467.815 129.738C468.223 130.026 468.427 130.326 468.427 130.638C468.427 130.794 468.379 130.926 468.283 131.034C468.187 131.142 468.073 131.196 467.941 131.196C467.797 131.196 467.581 131.094 467.293 130.89C466.957 130.674 466.639 130.506 466.339 130.386C466.039 130.266 465.667 130.206 465.223 130.206C464.659 130.206 464.203 130.332 463.855 130.584C463.519 130.836 463.351 131.172 463.351 131.592C463.351 131.856 463.411 132.072 463.531 132.24C463.663 132.396 463.873 132.54 464.161 132.672C464.461 132.792 464.887 132.912 465.438 133.032C466.255 133.212 466.885 133.41 467.329 133.626C467.785 133.842 468.109 134.106 468.301 134.418C468.493 134.73 468.589 135.126 468.589 135.606C468.589 136.362 468.271 136.974 467.635 137.442C466.999 137.898 466.159 138.126 465.115 138.126ZM474.773 136.938C475.193 136.974 475.403 137.166 475.403 137.514C475.403 137.718 475.325 137.874 475.169 137.982C475.025 138.078 474.803 138.114 474.503 138.09L474.017 138.054C473.057 137.982 472.349 137.694 471.893 137.19C471.437 136.686 471.209 135.924 471.209 134.904V130.386H470.003C469.799 130.386 469.637 130.338 469.517 130.242C469.409 130.134 469.355 129.996 469.355 129.828C469.355 129.648 469.409 129.504 469.517 129.396C469.637 129.288 469.799 129.234 470.003 129.234H471.209V127.2C471.209 126.972 471.275 126.798 471.407 126.678C471.539 126.546 471.719 126.48 471.947 126.48C472.163 126.48 472.337 126.546 472.469 126.678C472.601 126.798 472.667 126.972 472.667 127.2V129.234H474.665C474.857 129.234 475.007 129.288 475.115 129.396C475.235 129.504 475.295 129.648 475.295 129.828C475.295 129.996 475.235 130.134 475.115 130.242C475.007 130.338 474.857 130.386 474.665 130.386H472.667V134.976C472.667 135.636 472.799 136.116 473.063 136.416C473.339 136.704 473.747 136.866 474.287 136.902L474.773 136.938ZM480.422 129.018C482.618 129.018 483.716 130.17 483.716 132.474V137.37C483.716 137.586 483.65 137.76 483.518 137.892C483.398 138.024 483.23 138.09 483.014 138.09C482.798 138.09 482.624 138.024 482.492 137.892C482.36 137.76 482.294 137.586 482.294 137.37V136.506C482.066 137.022 481.718 137.424 481.25 137.712C480.782 137.988 480.242 138.126 479.63 138.126C479.066 138.126 478.544 138.012 478.064 137.784C477.596 137.556 477.224 137.238 476.948 136.83C476.672 136.422 476.534 135.972 476.534 135.48C476.534 134.82 476.702 134.31 477.038 133.95C477.374 133.578 477.926 133.314 478.694 133.158C479.462 132.99 480.53 132.906 481.898 132.906H482.294V132.312C482.294 131.592 482.144 131.064 481.844 130.728C481.556 130.392 481.082 130.224 480.422 130.224C479.606 130.224 478.778 130.446 477.938 130.89C477.614 131.094 477.386 131.196 477.254 131.196C477.11 131.196 476.99 131.142 476.894 131.034C476.798 130.926 476.75 130.788 476.75 130.62C476.75 130.452 476.798 130.308 476.894 130.188C477.002 130.056 477.17 129.924 477.398 129.792C477.818 129.552 478.292 129.366 478.82 129.234C479.36 129.09 479.894 129.018 480.422 129.018ZM479.828 136.974C480.548 136.974 481.136 136.734 481.592 136.254C482.06 135.762 482.294 135.132 482.294 134.364V133.842H481.97C480.914 133.842 480.11 133.89 479.558 133.986C479.006 134.07 478.61 134.22 478.37 134.436C478.142 134.64 478.028 134.946 478.028 135.354C478.028 135.822 478.196 136.212 478.532 136.524C478.88 136.824 479.312 136.974 479.828 136.974ZM490.795 129.018C492.895 129.018 493.945 130.176 493.945 132.492V137.37C493.945 137.598 493.879 137.778 493.747 137.91C493.627 138.03 493.453 138.09 493.225 138.09C492.997 138.09 492.817 138.03 492.685 137.91C492.553 137.778 492.487 137.598 492.487 137.37V132.582C492.487 131.766 492.325 131.172 492.001 130.8C491.689 130.428 491.185 130.242 490.489 130.242C489.685 130.242 489.043 130.488 488.563 130.98C488.083 131.472 487.843 132.138 487.843 132.978V137.37C487.843 137.598 487.777 137.778 487.645 137.91C487.525 138.03 487.351 138.09 487.123 138.09C486.895 138.09 486.715 138.03 486.583 137.91C486.451 137.778 486.385 137.598 486.385 137.37V129.774C486.385 129.558 486.451 129.384 486.583 129.252C486.715 129.12 486.895 129.054 487.123 129.054C487.339 129.054 487.507 129.12 487.627 129.252C487.759 129.384 487.825 129.552 487.825 129.756V130.674C488.113 130.134 488.515 129.726 489.031 129.45C489.547 129.162 490.135 129.018 490.795 129.018ZM491.443 127.38C491.215 127.38 490.993 127.326 490.777 127.218C490.561 127.11 490.303 126.954 490.003 126.75C489.739 126.582 489.529 126.462 489.373 126.39C489.217 126.306 489.073 126.264 488.941 126.264C488.737 126.264 488.575 126.318 488.455 126.426C488.347 126.534 488.239 126.684 488.131 126.876C488.047 127.008 487.975 127.11 487.915 127.182C487.855 127.242 487.783 127.272 487.699 127.272C487.591 127.272 487.501 127.23 487.429 127.146C487.357 127.062 487.321 126.954 487.321 126.822C487.321 126.606 487.387 126.366 487.519 126.102C487.651 125.838 487.837 125.61 488.077 125.418C488.317 125.226 488.587 125.13 488.887 125.13C489.115 125.13 489.337 125.184 489.553 125.292C489.769 125.4 490.027 125.556 490.327 125.76C490.591 125.928 490.801 126.054 490.957 126.138C491.113 126.21 491.257 126.246 491.389 126.246C491.581 126.246 491.731 126.192 491.839 126.084C491.959 125.976 492.079 125.826 492.199 125.634C492.283 125.49 492.355 125.388 492.415 125.328C492.475 125.256 492.547 125.22 492.631 125.22C492.739 125.22 492.829 125.268 492.901 125.364C492.973 125.448 493.009 125.556 493.009 125.688C493.009 125.892 492.943 126.132 492.811 126.408C492.679 126.672 492.493 126.9 492.253 127.092C492.013 127.284 491.743 127.38 491.443 127.38ZM500.198 129.018C502.394 129.018 503.492 130.17 503.492 132.474V137.37C503.492 137.586 503.426 137.76 503.294 137.892C503.174 138.024 503.006 138.09 502.79 138.09C502.574 138.09 502.4 138.024 502.268 137.892C502.136 137.76 502.07 137.586 502.07 137.37V136.506C501.842 137.022 501.494 137.424 501.026 137.712C500.558 137.988 500.018 138.126 499.406 138.126C498.842 138.126 498.32 138.012 497.84 137.784C497.372 137.556 497 137.238 496.724 136.83C496.448 136.422 496.31 135.972 496.31 135.48C496.31 134.82 496.478 134.31 496.814 133.95C497.15 133.578 497.702 133.314 498.47 133.158C499.238 132.99 500.306 132.906 501.674 132.906H502.07V132.312C502.07 131.592 501.92 131.064 501.62 130.728C501.332 130.392 500.858 130.224 500.198 130.224C499.382 130.224 498.554 130.446 497.714 130.89C497.39 131.094 497.162 131.196 497.03 131.196C496.886 131.196 496.766 131.142 496.67 131.034C496.574 130.926 496.526 130.788 496.526 130.62C496.526 130.452 496.574 130.308 496.67 130.188C496.778 130.056 496.946 129.924 497.174 129.792C497.594 129.552 498.068 129.366 498.596 129.234C499.136 129.09 499.67 129.018 500.198 129.018ZM499.604 136.974C500.324 136.974 500.912 136.734 501.368 136.254C501.836 135.762 502.07 135.132 502.07 134.364V133.842H501.746C500.69 133.842 499.886 133.89 499.334 133.986C498.782 134.07 498.386 134.22 498.146 134.436C497.918 134.64 497.804 134.946 497.804 135.354C497.804 135.822 497.972 136.212 498.308 136.524C498.656 136.824 499.088 136.974 499.604 136.974ZM515.211 129.018C515.979 129.018 516.657 129.21 517.245 129.594C517.833 129.978 518.289 130.518 518.613 131.214C518.937 131.898 519.099 132.696 519.099 133.608C519.099 134.52 518.937 135.318 518.613 136.002C518.289 136.674 517.833 137.196 517.245 137.568C516.669 137.94 515.991 138.126 515.211 138.126C514.527 138.126 513.927 137.976 513.411 137.676C512.907 137.376 512.523 136.95 512.259 136.398V140.628C512.259 140.844 512.193 141.012 512.061 141.132C511.941 141.264 511.767 141.33 511.539 141.33C511.311 141.33 511.131 141.264 510.999 141.132C510.867 141 510.801 140.832 510.801 140.628V129.774C510.801 129.558 510.867 129.384 510.999 129.252C511.131 129.12 511.311 129.054 511.539 129.054C511.767 129.054 511.941 129.12 512.061 129.252C512.193 129.384 512.259 129.558 512.259 129.774V130.746C512.523 130.194 512.907 129.768 513.411 129.468C513.927 129.168 514.527 129.018 515.211 129.018ZM514.923 136.92C515.775 136.92 516.435 136.632 516.903 136.056C517.371 135.48 517.605 134.664 517.605 133.608C517.605 132.552 517.371 131.73 516.903 131.142C516.435 130.542 515.775 130.242 514.923 130.242C514.071 130.242 513.411 130.53 512.943 131.106C512.487 131.682 512.259 132.504 512.259 133.572C512.259 134.64 512.487 135.468 512.943 136.056C513.411 136.632 514.071 136.92 514.923 136.92ZM525.616 129.054C526.12 129.018 526.372 129.222 526.372 129.666C526.372 129.858 526.318 130.014 526.21 130.134C526.102 130.242 525.916 130.308 525.652 130.332L525.112 130.386C524.308 130.458 523.708 130.746 523.312 131.25C522.928 131.742 522.736 132.324 522.736 132.996V137.37C522.736 137.61 522.67 137.79 522.538 137.91C522.406 138.03 522.232 138.09 522.016 138.09C521.8 138.09 521.62 138.03 521.476 137.91C521.344 137.778 521.278 137.598 521.278 137.37V129.774C521.278 129.546 521.35 129.372 521.494 129.252C521.638 129.12 521.812 129.054 522.016 129.054C522.208 129.054 522.37 129.12 522.502 129.252C522.634 129.372 522.7 129.54 522.7 129.756V130.764C522.952 130.236 523.306 129.834 523.762 129.558C524.23 129.282 524.764 129.12 525.364 129.072L525.616 129.054ZM534.234 135.966C534.366 135.966 534.48 136.02 534.576 136.128C534.672 136.236 534.72 136.374 534.72 136.542C534.72 136.842 534.51 137.118 534.09 137.37C533.658 137.622 533.202 137.814 532.722 137.946C532.242 138.066 531.774 138.126 531.318 138.126C529.962 138.126 528.888 137.724 528.096 136.92C527.316 136.116 526.926 135.006 526.926 133.59C526.926 132.69 527.1 131.898 527.448 131.214C527.796 130.518 528.282 129.978 528.906 129.594C529.542 129.21 530.262 129.018 531.066 129.018C532.206 129.018 533.112 129.39 533.784 130.134C534.456 130.878 534.792 131.886 534.792 133.158C534.792 133.398 534.744 133.572 534.648 133.68C534.552 133.788 534.396 133.842 534.18 133.842H528.384C528.492 135.906 529.47 136.938 531.318 136.938C531.786 136.938 532.188 136.878 532.524 136.758C532.86 136.626 533.22 136.452 533.604 136.236C533.916 136.056 534.126 135.966 534.234 135.966ZM531.084 130.152C530.316 130.152 529.698 130.392 529.23 130.872C528.774 131.352 528.504 132.03 528.42 132.906H533.514C533.49 132.018 533.268 131.34 532.848 130.872C532.428 130.392 531.84 130.152 531.084 130.152ZM543.978 125.22C544.206 125.22 544.386 125.286 544.518 125.418C544.65 125.55 544.716 125.718 544.716 125.922V137.37C544.716 137.586 544.65 137.76 544.518 137.892C544.386 138.024 544.206 138.09 543.978 138.09C543.75 138.09 543.57 138.024 543.438 137.892C543.318 137.76 543.258 137.586 543.258 137.37V136.398C542.994 136.95 542.604 137.376 542.088 137.676C541.584 137.976 540.99 138.126 540.306 138.126C539.538 138.126 538.86 137.934 538.272 137.55C537.684 137.166 537.228 136.632 536.904 135.948C536.58 135.252 536.418 134.448 536.418 133.536C536.418 132.636 536.58 131.844 536.904 131.16C537.228 130.476 537.684 129.948 538.272 129.576C538.86 129.204 539.538 129.018 540.306 129.018C540.99 129.018 541.584 129.168 542.088 129.468C542.604 129.768 542.994 130.194 543.258 130.746V125.922C543.258 125.706 543.318 125.538 543.438 125.418C543.57 125.286 543.75 125.22 543.978 125.22ZM540.594 136.92C541.446 136.92 542.1 136.632 542.556 136.056C543.024 135.468 543.258 134.64 543.258 133.572C543.258 132.504 543.024 131.682 542.556 131.106C542.1 130.53 541.446 130.242 540.594 130.242C539.742 130.242 539.076 130.53 538.596 131.106C538.128 131.682 537.894 132.492 537.894 133.536C537.894 134.604 538.128 135.438 538.596 136.038C539.076 136.626 539.742 136.92 540.594 136.92ZM554.202 135.966C554.334 135.966 554.448 136.02 554.544 136.128C554.64 136.236 554.688 136.374 554.688 136.542C554.688 136.842 554.478 137.118 554.058 137.37C553.626 137.622 553.17 137.814 552.69 137.946C552.21 138.066 551.742 138.126 551.286 138.126C549.93 138.126 548.856 137.724 548.064 136.92C547.284 136.116 546.894 135.006 546.894 133.59C546.894 132.69 547.068 131.898 547.416 131.214C547.764 130.518 548.25 129.978 548.874 129.594C549.51 129.21 550.23 129.018 551.034 129.018C552.174 129.018 553.08 129.39 553.752 130.134C554.424 130.878 554.76 131.886 554.76 133.158C554.76 133.398 554.712 133.572 554.616 133.68C554.52 133.788 554.364 133.842 554.148 133.842H548.352C548.46 135.906 549.438 136.938 551.286 136.938C551.754 136.938 552.156 136.878 552.492 136.758C552.828 136.626 553.188 136.452 553.572 136.236C553.884 136.056 554.094 135.966 554.202 135.966ZM551.052 130.152C550.284 130.152 549.666 130.392 549.198 130.872C548.742 131.352 548.472 132.03 548.388 132.906H553.482C553.458 132.018 553.236 131.34 552.816 130.872C552.396 130.392 551.808 130.152 551.052 130.152ZM560.906 136.938C561.326 136.974 561.536 137.166 561.536 137.514C561.536 137.718 561.458 137.874 561.302 137.982C561.158 138.078 560.936 138.114 560.636 138.09L560.15 138.054C559.19 137.982 558.482 137.694 558.026 137.19C557.57 136.686 557.342 135.924 557.342 134.904V130.386H556.136C555.932 130.386 555.77 130.338 555.65 130.242C555.542 130.134 555.488 129.996 555.488 129.828C555.488 129.648 555.542 129.504 555.65 129.396C555.77 129.288 555.932 129.234 556.136 129.234H557.342V127.2C557.342 126.972 557.408 126.798 557.54 126.678C557.672 126.546 557.852 126.48 558.08 126.48C558.296 126.48 558.47 126.546 558.602 126.678C558.734 126.798 558.8 126.972 558.8 127.2V129.234H560.798C560.99 129.234 561.14 129.288 561.248 129.396C561.368 129.504 561.428 129.648 561.428 129.828C561.428 129.996 561.368 130.134 561.248 130.242C561.14 130.338 560.99 130.386 560.798 130.386H558.8V134.976C558.8 135.636 558.932 136.116 559.196 136.416C559.472 136.704 559.88 136.866 560.42 136.902L560.906 136.938ZM569.759 135.966C569.891 135.966 570.005 136.02 570.101 136.128C570.197 136.236 570.245 136.374 570.245 136.542C570.245 136.842 570.035 137.118 569.615 137.37C569.183 137.622 568.727 137.814 568.247 137.946C567.767 138.066 567.299 138.126 566.843 138.126C565.487 138.126 564.413 137.724 563.621 136.92C562.841 136.116 562.451 135.006 562.451 133.59C562.451 132.69 562.625 131.898 562.973 131.214C563.321 130.518 563.807 129.978 564.431 129.594C565.067 129.21 565.787 129.018 566.591 129.018C567.731 129.018 568.637 129.39 569.309 130.134C569.981 130.878 570.317 131.886 570.317 133.158C570.317 133.398 570.269 133.572 570.173 133.68C570.077 133.788 569.921 133.842 569.705 133.842H563.909C564.017 135.906 564.995 136.938 566.843 136.938C567.311 136.938 567.713 136.878 568.049 136.758C568.385 136.626 568.745 136.452 569.129 136.236C569.441 136.056 569.651 135.966 569.759 135.966ZM566.609 130.152C565.841 130.152 565.223 130.392 564.755 130.872C564.299 131.352 564.029 132.03 563.945 132.906H569.039C569.015 132.018 568.793 131.34 568.373 130.872C567.953 130.392 567.365 130.152 566.609 130.152ZM576.803 129.054C577.307 129.018 577.559 129.222 577.559 129.666C577.559 129.858 577.505 130.014 577.397 130.134C577.289 130.242 577.103 130.308 576.839 130.332L576.299 130.386C575.495 130.458 574.895 130.746 574.499 131.25C574.115 131.742 573.923 132.324 573.923 132.996V137.37C573.923 137.61 573.857 137.79 573.725 137.91C573.593 138.03 573.419 138.09 573.203 138.09C572.987 138.09 572.807 138.03 572.663 137.91C572.531 137.778 572.465 137.598 572.465 137.37V129.774C572.465 129.546 572.537 129.372 572.681 129.252C572.825 129.12 572.999 129.054 573.203 129.054C573.395 129.054 573.557 129.12 573.689 129.252C573.821 129.372 573.887 129.54 573.887 129.756V130.764C574.139 130.236 574.493 129.834 574.949 129.558C575.417 129.282 575.951 129.12 576.551 129.072L576.803 129.054ZM588.567 129.018C590.511 129.018 591.483 130.176 591.483 132.492V137.37C591.483 137.598 591.417 137.778 591.285 137.91C591.153 138.03 590.979 138.09 590.763 138.09C590.547 138.09 590.367 138.03 590.223 137.91C590.091 137.778 590.025 137.598 590.025 137.37V132.528C590.025 131.724 589.881 131.142 589.593 130.782C589.305 130.422 588.855 130.242 588.243 130.242C587.511 130.242 586.935 130.488 586.515 130.98C586.095 131.472 585.885 132.138 585.885 132.978V137.37C585.885 137.598 585.813 137.778 585.669 137.91C585.537 138.03 585.363 138.09 585.147 138.09C584.931 138.09 584.757 138.03 584.625 137.91C584.493 137.778 584.427 137.598 584.427 137.37V132.528C584.427 131.724 584.283 131.142 583.995 130.782C583.707 130.422 583.251 130.242 582.627 130.242C581.907 130.242 581.331 130.488 580.899 130.98C580.479 131.472 580.269 132.138 580.269 132.978V137.37C580.269 137.598 580.203 137.778 580.071 137.91C579.939 138.03 579.765 138.09 579.549 138.09C579.333 138.09 579.153 138.03 579.009 137.91C578.877 137.778 578.811 137.598 578.811 137.37V129.774C578.811 129.558 578.877 129.384 579.009 129.252C579.153 129.12 579.333 129.054 579.549 129.054C579.753 129.054 579.921 129.12 580.053 129.252C580.185 129.372 580.251 129.54 580.251 129.756V130.62C580.515 130.104 580.881 129.708 581.349 129.432C581.817 129.156 582.357 129.018 582.969 129.018C584.337 129.018 585.231 129.594 585.651 130.746C585.903 130.218 586.287 129.798 586.803 129.486C587.319 129.174 587.907 129.018 588.567 129.018ZM594.877 138.09C594.661 138.09 594.481 138.03 594.337 137.91C594.205 137.778 594.139 137.598 594.139 137.37V129.774C594.139 129.546 594.205 129.372 594.337 129.252C594.481 129.12 594.661 129.054 594.877 129.054C595.093 129.054 595.267 129.12 595.399 129.252C595.531 129.372 595.597 129.546 595.597 129.774V137.37C595.597 137.61 595.531 137.79 595.399 137.91C595.267 138.03 595.093 138.09 594.877 138.09ZM594.877 127.164C594.589 127.164 594.355 127.08 594.175 126.912C593.995 126.744 593.905 126.522 593.905 126.246C593.905 125.982 593.995 125.766 594.175 125.598C594.355 125.43 594.589 125.346 594.877 125.346C595.165 125.346 595.399 125.43 595.579 125.598C595.759 125.766 595.849 125.982 595.849 126.246C595.849 126.522 595.759 126.744 595.579 126.912C595.399 127.08 595.165 127.164 594.877 127.164ZM602.733 129.018C604.833 129.018 605.883 130.176 605.883 132.492V137.37C605.883 137.598 605.817 137.778 605.685 137.91C605.565 138.03 605.391 138.09 605.163 138.09C604.935 138.09 604.755 138.03 604.623 137.91C604.491 137.778 604.425 137.598 604.425 137.37V132.582C604.425 131.766 604.263 131.172 603.939 130.8C603.627 130.428 603.123 130.242 602.427 130.242C601.623 130.242 600.981 130.488 600.501 130.98C600.021 131.472 599.781 132.138 599.781 132.978V137.37C599.781 137.598 599.715 137.778 599.583 137.91C599.463 138.03 599.289 138.09 599.061 138.09C598.833 138.09 598.653 138.03 598.521 137.91C598.389 137.778 598.323 137.598 598.323 137.37V129.774C598.323 129.558 598.389 129.384 598.521 129.252C598.653 129.12 598.833 129.054 599.061 129.054C599.277 129.054 599.445 129.12 599.565 129.252C599.697 129.384 599.763 129.552 599.763 129.756V130.674C600.051 130.134 600.453 129.726 600.969 129.45C601.485 129.162 602.073 129.018 602.733 129.018ZM612.135 129.018C614.331 129.018 615.429 130.17 615.429 132.474V137.37C615.429 137.586 615.363 137.76 615.231 137.892C615.111 138.024 614.943 138.09 614.727 138.09C614.511 138.09 614.337 138.024 614.205 137.892C614.073 137.76 614.007 137.586 614.007 137.37V136.506C613.779 137.022 613.431 137.424 612.963 137.712C612.495 137.988 611.955 138.126 611.343 138.126C610.779 138.126 610.257 138.012 609.777 137.784C609.309 137.556 608.937 137.238 608.661 136.83C608.385 136.422 608.247 135.972 608.247 135.48C608.247 134.82 608.415 134.31 608.751 133.95C609.087 133.578 609.639 133.314 610.407 133.158C611.175 132.99 612.243 132.906 613.611 132.906H614.007V132.312C614.007 131.592 613.857 131.064 613.557 130.728C613.269 130.392 612.795 130.224 612.135 130.224C611.319 130.224 610.491 130.446 609.651 130.89C609.327 131.094 609.099 131.196 608.967 131.196C608.823 131.196 608.703 131.142 608.607 131.034C608.511 130.926 608.463 130.788 608.463 130.62C608.463 130.452 608.511 130.308 608.607 130.188C608.715 130.056 608.883 129.924 609.111 129.792C609.531 129.552 610.005 129.366 610.533 129.234C611.073 129.09 611.607 129.018 612.135 129.018ZM611.541 136.974C612.261 136.974 612.849 136.734 613.305 136.254C613.773 135.762 614.007 135.132 614.007 134.364V133.842H613.683C612.627 133.842 611.823 133.89 611.271 133.986C610.719 134.07 610.323 134.22 610.083 134.436C609.855 134.64 609.741 134.946 609.741 135.354C609.741 135.822 609.909 136.212 610.245 136.524C610.593 136.824 611.025 136.974 611.541 136.974ZM625.136 125.22C625.364 125.22 625.544 125.286 625.676 125.418C625.808 125.55 625.874 125.718 625.874 125.922V137.37C625.874 137.586 625.808 137.76 625.676 137.892C625.544 138.024 625.364 138.09 625.136 138.09C624.908 138.09 624.728 138.024 624.596 137.892C624.476 137.76 624.416 137.586 624.416 137.37V136.398C624.152 136.95 623.762 137.376 623.246 137.676C622.742 137.976 622.148 138.126 621.464 138.126C620.696 138.126 620.018 137.934 619.43 137.55C618.842 137.166 618.386 136.632 618.062 135.948C617.738 135.252 617.576 134.448 617.576 133.536C617.576 132.636 617.738 131.844 618.062 131.16C618.386 130.476 618.842 129.948 619.43 129.576C620.018 129.204 620.696 129.018 621.464 129.018C622.148 129.018 622.742 129.168 623.246 129.468C623.762 129.768 624.152 130.194 624.416 130.746V125.922C624.416 125.706 624.476 125.538 624.596 125.418C624.728 125.286 624.908 125.22 625.136 125.22ZM621.752 136.92C622.604 136.92 623.258 136.632 623.714 136.056C624.182 135.468 624.416 134.64 624.416 133.572C624.416 132.504 624.182 131.682 623.714 131.106C623.258 130.53 622.604 130.242 621.752 130.242C620.9 130.242 620.234 130.53 619.754 131.106C619.286 131.682 619.052 132.492 619.052 133.536C619.052 134.604 619.286 135.438 619.754 136.038C620.234 136.626 620.9 136.92 621.752 136.92ZM632.157 129.018C634.353 129.018 635.451 130.17 635.451 132.474V137.37C635.451 137.586 635.385 137.76 635.253 137.892C635.133 138.024 634.965 138.09 634.749 138.09C634.533 138.09 634.359 138.024 634.227 137.892C634.095 137.76 634.029 137.586 634.029 137.37V136.506C633.801 137.022 633.453 137.424 632.985 137.712C632.517 137.988 631.977 138.126 631.365 138.126C630.801 138.126 630.279 138.012 629.799 137.784C629.331 137.556 628.959 137.238 628.683 136.83C628.407 136.422 628.269 135.972 628.269 135.48C628.269 134.82 628.437 134.31 628.773 133.95C629.109 133.578 629.661 133.314 630.429 133.158C631.197 132.99 632.265 132.906 633.633 132.906H634.029V132.312C634.029 131.592 633.879 131.064 633.579 130.728C633.291 130.392 632.817 130.224 632.157 130.224C631.341 130.224 630.513 130.446 629.673 130.89C629.349 131.094 629.121 131.196 628.989 131.196C628.845 131.196 628.725 131.142 628.629 131.034C628.533 130.926 628.485 130.788 628.485 130.62C628.485 130.452 628.533 130.308 628.629 130.188C628.737 130.056 628.905 129.924 629.133 129.792C629.553 129.552 630.027 129.366 630.555 129.234C631.095 129.09 631.629 129.018 632.157 129.018ZM631.563 136.974C632.283 136.974 632.871 136.734 633.327 136.254C633.795 135.762 634.029 135.132 634.029 134.364V133.842H633.705C632.649 133.842 631.845 133.89 631.293 133.986C630.741 134.07 630.345 134.22 630.105 134.436C629.877 134.64 629.763 134.946 629.763 135.354C629.763 135.822 629.931 136.212 630.267 136.524C630.615 136.824 631.047 136.974 631.563 136.974Z" fill="#38485C"/>
<rect x="1" y="1" width="710" height="254" rx="7" stroke="#D1D8E0" stroke-width="2"/>
<path d="M70.456 52.14C70.0267 52.14 69.672 52.0093 69.392 51.748C69.1307 51.468 69 51.1133 69 50.684V34.668H63.4C62.504 34.668 62.056 34.2667 62.056 33.464C62.056 33.072 62.168 32.7733 62.392 32.568C62.6347 32.3627 62.9707 32.26 63.4 32.26H77.512C77.9413 32.26 78.268 32.3627 78.492 32.568C78.7347 32.7733 78.856 33.072 78.856 33.464C78.856 34.2667 78.408 34.668 77.512 34.668H71.912V50.684C71.912 51.1133 71.7813 51.468 71.52 51.748C71.2587 52.0093 70.904 52.14 70.456 52.14ZM83.3124 52.14C82.9017 52.14 82.5564 52.028 82.2764 51.804C82.015 51.58 81.8844 51.244 81.8844 50.796V39.428C81.8844 38.98 82.015 38.644 82.2764 38.42C82.5564 38.1773 82.9017 38.056 83.3124 38.056C83.723 38.056 84.059 38.1773 84.3204 38.42C84.5817 38.644 84.7124 38.98 84.7124 39.428V50.796C84.7124 51.244 84.5817 51.58 84.3204 51.804C84.059 52.028 83.723 52.14 83.3124 52.14ZM83.9004 36.488C83.751 36.6187 83.5737 36.684 83.3684 36.684C83.163 36.684 82.9764 36.6093 82.8084 36.46C82.659 36.3107 82.5844 36.1333 82.5844 35.928C82.5844 35.7413 82.6497 35.5733 82.7804 35.424L85.8044 31.476C86.1777 30.972 86.607 30.72 87.0924 30.72C87.447 30.72 87.7457 30.8413 87.9884 31.084C88.231 31.3267 88.3524 31.616 88.3524 31.952C88.3524 32.3813 88.1284 32.7827 87.6804 33.156L83.9004 36.488ZM95.1804 49.984C95.5911 50.0213 95.8804 50.1333 96.0484 50.32C96.2351 50.488 96.3284 50.7307 96.3284 51.048C96.3284 51.4213 96.1791 51.7107 95.8804 51.916C95.6004 52.1027 95.1804 52.1773 94.6204 52.14L93.8644 52.084C92.3524 51.972 91.2231 51.5147 90.4764 50.712C89.7298 49.8907 89.3564 48.6867 89.3564 47.1V40.52H87.6764C86.8551 40.52 86.4444 40.156 86.4444 39.428C86.4444 39.092 86.5471 38.8307 86.7524 38.644C86.9764 38.4387 87.2844 38.336 87.6764 38.336H89.3564V35.452C89.3564 35.0227 89.4778 34.6867 89.7204 34.444C89.9818 34.2013 90.3271 34.08 90.7564 34.08C91.1858 34.08 91.5311 34.2013 91.7924 34.444C92.0538 34.6867 92.1844 35.0227 92.1844 35.452V38.336H94.9564C95.3484 38.336 95.6471 38.4387 95.8524 38.644C96.0764 38.8307 96.1884 39.092 96.1884 39.428C96.1884 39.7827 96.0764 40.0533 95.8524 40.24C95.6471 40.4267 95.3484 40.52 94.9564 40.52H92.1844V47.296C92.1844 48.1733 92.3618 48.8173 92.7164 49.228C93.0898 49.6387 93.6498 49.872 94.3964 49.928L95.1804 49.984ZM108.384 38.056C108.813 38.056 109.149 38.1773 109.392 38.42C109.653 38.6627 109.784 38.9987 109.784 39.428V50.824C109.784 51.216 109.653 51.5333 109.392 51.776C109.13 52.0187 108.785 52.14 108.356 52.14C107.964 52.14 107.646 52.028 107.404 51.804C107.161 51.5613 107.04 51.244 107.04 50.852V49.788C106.61 50.572 106.013 51.1693 105.248 51.58C104.501 51.9907 103.661 52.196 102.728 52.196C99.4049 52.196 97.7435 50.3667 97.7435 46.708V39.428C97.7435 38.9987 97.8649 38.6627 98.1075 38.42C98.3689 38.1773 98.7235 38.056 99.1715 38.056C99.6009 38.056 99.9369 38.1773 100.18 38.42C100.441 38.6627 100.572 38.9987 100.572 39.428V46.68C100.572 47.7813 100.796 48.5933 101.244 49.116C101.692 49.6387 102.382 49.9 103.316 49.9C104.417 49.9 105.294 49.5453 105.948 48.836C106.62 48.1267 106.956 47.184 106.956 46.008V39.428C106.956 39.0173 107.086 38.6907 107.348 38.448C107.609 38.1867 107.954 38.056 108.384 38.056ZM114.609 52.14C114.198 52.14 113.853 52.028 113.573 51.804C113.312 51.58 113.181 51.244 113.181 50.796V33.492C113.181 33.044 113.312 32.708 113.573 32.484C113.853 32.2413 114.198 32.12 114.609 32.12C115.02 32.12 115.356 32.2413 115.617 32.484C115.878 32.708 116.009 33.044 116.009 33.492V50.796C116.009 51.244 115.878 51.58 115.617 51.804C115.356 52.028 115.02 52.14 114.609 52.14ZM125.338 52.196C123.994 52.196 122.809 51.9067 121.782 51.328C120.774 50.7493 119.99 49.928 119.43 48.864C118.889 47.7813 118.618 46.5307 118.618 45.112C118.618 43.6747 118.889 42.424 119.43 41.36C119.99 40.2773 120.774 39.4467 121.782 38.868C122.809 38.2893 123.994 38 125.338 38C126.682 38 127.858 38.2893 128.866 38.868C129.893 39.4467 130.677 40.2773 131.218 41.36C131.778 42.424 132.058 43.6747 132.058 45.112C132.058 46.5307 131.778 47.7813 131.218 48.864C130.677 49.928 129.893 50.7493 128.866 51.328C127.858 51.9067 126.682 52.196 125.338 52.196ZM125.338 49.956C126.589 49.956 127.541 49.5453 128.194 48.724C128.866 47.9027 129.202 46.6987 129.202 45.112C129.202 43.544 128.866 42.3493 128.194 41.528C127.522 40.688 126.57 40.268 125.338 40.268C124.106 40.268 123.154 40.688 122.482 41.528C121.81 42.3493 121.474 43.544 121.474 45.112C121.474 46.6987 121.801 47.9027 122.454 48.724C123.126 49.5453 124.088 49.956 125.338 49.956Z" fill="#38485C"/>
<path d="M72.6875 80.1797C72.6875 82.0651 72.1745 83.5078 71.1484 84.5078C70.1276 85.5026 68.6562 86 66.7344 86H63.5703V74.5781H67.0703C68.8464 74.5781 70.2266 75.0703 71.2109 76.0547C72.1953 77.0391 72.6875 78.4141 72.6875 80.1797ZM71.2812 80.2266C71.2812 78.737 70.9062 77.6146 70.1562 76.8594C69.4115 76.1042 68.3021 75.7266 66.8281 75.7266H64.8984V84.8516H66.5156C68.099 84.8516 69.2891 84.4635 70.0859 83.6875C70.8828 82.9062 71.2812 81.7526 71.2812 80.2266ZM78.6641 86.1562C77.3984 86.1562 76.3984 85.7708 75.6641 85C74.9349 84.2292 74.5703 83.1589 74.5703 81.7891C74.5703 80.4089 74.9089 79.3125 75.5859 78.5C76.2682 77.6875 77.1823 77.2812 78.3281 77.2812C79.401 77.2812 80.25 77.6354 80.875 78.3438C81.5 79.0469 81.8125 79.9766 81.8125 81.1328V81.9531H75.9141C75.9401 82.9583 76.1927 83.7214 76.6719 84.2422C77.1562 84.763 77.8359 85.0234 78.7109 85.0234C79.6328 85.0234 80.5443 84.8307 81.4453 84.4453V85.6016C80.987 85.7995 80.5521 85.9401 80.1406 86.0234C79.7344 86.112 79.2422 86.1562 78.6641 86.1562ZM78.3125 78.3672C77.625 78.3672 77.0755 78.5911 76.6641 79.0391C76.2578 79.487 76.0182 80.1068 75.9453 80.8984H80.4219C80.4219 80.0807 80.2396 79.4557 79.875 79.0234C79.5104 78.5859 78.9896 78.3672 78.3125 78.3672ZM89.5547 83.6641C89.5547 84.4609 89.2578 85.0755 88.6641 85.5078C88.0703 85.9401 87.237 86.1562 86.1641 86.1562C85.0286 86.1562 84.1432 85.9766 83.5078 85.6172V84.4141C83.9193 84.6224 84.3594 84.7865 84.8281 84.9062C85.3021 85.026 85.7578 85.0859 86.1953 85.0859C86.8724 85.0859 87.3932 84.9792 87.7578 84.7656C88.1224 84.5469 88.3047 84.2161 88.3047 83.7734C88.3047 83.4401 88.1589 83.1562 87.8672 82.9219C87.5807 82.6823 87.0182 82.401 86.1797 82.0781C85.3828 81.7812 84.8151 81.5234 84.4766 81.3047C84.1432 81.0807 83.8932 80.8281 83.7266 80.5469C83.5651 80.2656 83.4844 79.9297 83.4844 79.5391C83.4844 78.8411 83.7682 78.2917 84.3359 77.8906C84.9036 77.4844 85.6823 77.2812 86.6719 77.2812C87.5938 77.2812 88.4948 77.4688 89.375 77.8438L88.9141 78.8984C88.0547 78.5443 87.276 78.3672 86.5781 78.3672C85.9635 78.3672 85.5 78.4635 85.1875 78.6562C84.875 78.849 84.7188 79.1146 84.7188 79.4531C84.7188 79.6823 84.776 79.8776 84.8906 80.0391C85.0104 80.2005 85.2005 80.3542 85.4609 80.5C85.7214 80.6458 86.2214 80.8568 86.9609 81.1328C87.9766 81.5026 88.6615 81.875 89.0156 82.25C89.375 82.625 89.5547 83.0964 89.5547 83.6641ZM95.0938 86.1562C93.8542 86.1562 92.8932 85.776 92.2109 85.0156C91.5339 84.25 91.1953 83.1693 91.1953 81.7734C91.1953 80.3411 91.5391 79.2344 92.2266 78.4531C92.9193 77.6719 93.9036 77.2812 95.1797 77.2812C95.5911 77.2812 96.0026 77.3255 96.4141 77.4141C96.8255 77.5026 97.1484 77.6068 97.3828 77.7266L96.9844 78.8281C96.6979 78.7135 96.3854 78.6198 96.0469 78.5469C95.7083 78.4688 95.4089 78.4297 95.1484 78.4297C93.4089 78.4297 92.5391 79.5391 92.5391 81.7578C92.5391 82.8099 92.75 83.6172 93.1719 84.1797C93.599 84.7422 94.2292 85.0234 95.0625 85.0234C95.776 85.0234 96.5078 84.8698 97.2578 84.5625V85.7109C96.6849 86.0078 95.9635 86.1562 95.0938 86.1562ZM103.203 77.2812C103.583 77.2812 103.924 77.3125 104.227 77.375L104.047 78.5781C103.693 78.5 103.38 78.4609 103.109 78.4609C102.417 78.4609 101.823 78.7422 101.328 79.3047C100.839 79.8672 100.594 80.5677 100.594 81.4062V86H99.2969V77.4375H100.367L100.516 79.0234H100.578C100.896 78.4661 101.279 78.0365 101.727 77.7344C102.174 77.4323 102.667 77.2812 103.203 77.2812ZM107.125 86H105.828V77.4375H107.125V86ZM105.719 75.1172C105.719 74.8203 105.792 74.6042 105.938 74.4688C106.083 74.3281 106.266 74.2578 106.484 74.2578C106.693 74.2578 106.872 74.3281 107.023 74.4688C107.174 74.6094 107.25 74.8255 107.25 75.1172C107.25 75.4089 107.174 75.6276 107.023 75.7734C106.872 75.9141 106.693 75.9844 106.484 75.9844C106.266 75.9844 106.083 75.9141 105.938 75.7734C105.792 75.6276 105.719 75.4089 105.719 75.1172ZM113.859 86.1562C113.302 86.1562 112.792 86.0547 112.328 85.8516C111.87 85.6432 111.484 85.3255 111.172 84.8984H111.078C111.141 85.3984 111.172 85.8724 111.172 86.3203V89.8438H109.875V77.4375H110.93L111.109 78.6094H111.172C111.505 78.1406 111.893 77.8021 112.336 77.5938C112.779 77.3854 113.286 77.2812 113.859 77.2812C114.995 77.2812 115.87 77.6693 116.484 78.4453C117.104 79.2214 117.414 80.3099 117.414 81.7109C117.414 83.1172 117.099 84.2109 116.469 84.9922C115.844 85.7682 114.974 86.1562 113.859 86.1562ZM113.672 78.3828C112.797 78.3828 112.164 78.625 111.773 79.1094C111.383 79.5938 111.182 80.3646 111.172 81.4219V81.7109C111.172 82.9141 111.372 83.776 111.773 84.2969C112.174 84.8125 112.818 85.0703 113.703 85.0703C114.443 85.0703 115.021 84.7708 115.438 84.1719C115.859 83.5729 116.07 82.7474 116.07 81.6953C116.07 80.6276 115.859 79.8099 115.438 79.2422C115.021 78.6693 114.432 78.3828 113.672 78.3828ZM123.109 86.1562C121.87 86.1562 120.909 85.776 120.227 85.0156C119.549 84.25 119.211 83.1693 119.211 81.7734C119.211 80.3411 119.555 79.2344 120.242 78.4531C120.935 77.6719 121.919 77.2812 123.195 77.2812C123.607 77.2812 124.018 77.3255 124.43 77.4141C124.841 77.5026 125.164 77.6068 125.398 77.7266L125 78.8281C124.714 78.7135 124.401 78.6198 124.062 78.5469C123.724 78.4688 123.424 78.4297 123.164 78.4297C121.424 78.4297 120.555 79.5391 120.555 81.7578C120.555 82.8099 120.766 83.6172 121.188 84.1797C121.615 84.7422 122.245 85.0234 123.078 85.0234C123.792 85.0234 124.523 84.8698 125.273 84.5625V85.7109C124.701 86.0078 123.979 86.1562 123.109 86.1562ZM128.609 86H127.312V77.4375H128.609V86ZM127.203 75.1172C127.203 74.8203 127.276 74.6042 127.422 74.4688C127.568 74.3281 127.75 74.2578 127.969 74.2578C128.177 74.2578 128.357 74.3281 128.508 74.4688C128.659 74.6094 128.734 74.8255 128.734 75.1172C128.734 75.4089 128.659 75.6276 128.508 75.7734C128.357 75.9141 128.177 75.9844 127.969 75.9844C127.75 75.9844 127.568 75.9141 127.422 75.7734C127.276 75.6276 127.203 75.4089 127.203 75.1172ZM138.75 81.7109C138.75 83.1068 138.398 84.1979 137.695 84.9844C136.992 85.7656 136.021 86.1562 134.781 86.1562C134.016 86.1562 133.336 85.9766 132.742 85.6172C132.148 85.2578 131.69 84.7422 131.367 84.0703C131.044 83.3984 130.883 82.612 130.883 81.7109C130.883 80.3151 131.232 79.2292 131.93 78.4531C132.628 77.6719 133.596 77.2812 134.836 77.2812C136.034 77.2812 136.984 77.6797 137.688 78.4766C138.396 79.2734 138.75 80.3516 138.75 81.7109ZM132.227 81.7109C132.227 82.8047 132.445 83.638 132.883 84.2109C133.32 84.7839 133.964 85.0703 134.812 85.0703C135.661 85.0703 136.305 84.7865 136.742 84.2188C137.185 83.6458 137.406 82.8099 137.406 81.7109C137.406 80.6224 137.185 79.7969 136.742 79.2344C136.305 78.6667 135.656 78.3828 134.797 78.3828C133.948 78.3828 133.307 78.6615 132.875 79.2188C132.443 79.776 132.227 80.6068 132.227 81.7109ZM133.727 76.1094C133.977 75.7865 134.245 75.3958 134.531 74.9375C134.823 74.4792 135.052 74.0807 135.219 73.7422H136.797V73.9062C136.568 74.2448 136.227 74.6615 135.773 75.1562C135.32 75.651 134.927 76.0339 134.594 76.3047H133.727V76.1094ZM146.891 86V80.4609C146.891 79.763 146.732 79.2422 146.414 78.8984C146.096 78.5547 145.599 78.3828 144.922 78.3828C144.026 78.3828 143.37 78.625 142.953 79.1094C142.536 79.5938 142.328 80.3932 142.328 81.5078V86H141.031V77.4375H142.086L142.297 78.6094H142.359C142.625 78.1875 142.997 77.862 143.477 77.6328C143.956 77.3984 144.49 77.2812 145.078 77.2812C146.109 77.2812 146.885 77.5312 147.406 78.0312C147.927 78.526 148.188 79.3203 148.188 80.4141V86H146.891ZM160.844 84.8516H160.773C160.174 85.7214 159.279 86.1562 158.086 86.1562C156.966 86.1562 156.094 85.7734 155.469 85.0078C154.849 84.2422 154.539 83.1536 154.539 81.7422C154.539 80.3307 154.852 79.2344 155.477 78.4531C156.102 77.6719 156.971 77.2812 158.086 77.2812C159.247 77.2812 160.138 77.7031 160.758 78.5469H160.859L160.805 77.9297L160.773 77.3281V73.8438H162.07V86H161.016L160.844 84.8516ZM158.25 85.0703C159.135 85.0703 159.776 84.8307 160.172 84.3516C160.573 83.8672 160.773 83.0885 160.773 82.0156V81.7422C160.773 80.5286 160.57 79.6641 160.164 79.1484C159.763 78.6276 159.12 78.3672 158.234 78.3672C157.474 78.3672 156.891 78.6641 156.484 79.2578C156.083 79.8464 155.883 80.6797 155.883 81.7578C155.883 82.8516 156.083 83.6771 156.484 84.2344C156.885 84.7917 157.474 85.0703 158.25 85.0703ZM168.445 86.1562C167.18 86.1562 166.18 85.7708 165.445 85C164.716 84.2292 164.352 83.1589 164.352 81.7891C164.352 80.4089 164.69 79.3125 165.367 78.5C166.049 77.6875 166.964 77.2812 168.109 77.2812C169.182 77.2812 170.031 77.6354 170.656 78.3438C171.281 79.0469 171.594 79.9766 171.594 81.1328V81.9531H165.695C165.721 82.9583 165.974 83.7214 166.453 84.2422C166.938 84.763 167.617 85.0234 168.492 85.0234C169.414 85.0234 170.326 84.8307 171.227 84.4453V85.6016C170.768 85.7995 170.333 85.9401 169.922 86.0234C169.516 86.112 169.023 86.1562 168.445 86.1562ZM168.094 78.3672C167.406 78.3672 166.857 78.5911 166.445 79.0391C166.039 79.487 165.799 80.1068 165.727 80.8984H170.203C170.203 80.0807 170.021 79.4557 169.656 79.0234C169.292 78.5859 168.771 78.3672 168.094 78.3672ZM182.18 86H180.914V77.8594C180.914 77.1823 180.935 76.5417 180.977 75.9375C180.867 76.0469 180.745 76.1615 180.609 76.2812C180.474 76.401 179.854 76.9089 178.75 77.8047L178.062 76.9141L181.086 74.5781H182.18V86ZM192.578 86H191.281V73.8438H192.578V86ZM196.625 86H195.328V77.4375H196.625V86ZM195.273 76.1094C195.523 75.7865 195.792 75.3958 196.078 74.9375C196.37 74.4792 196.599 74.0807 196.766 73.7422H198.344V73.9062C198.115 74.2448 197.773 74.6615 197.32 75.1562C196.867 75.651 196.474 76.0339 196.141 76.3047H195.273V76.1094ZM205.234 86V80.4609C205.234 79.763 205.076 79.2422 204.758 78.8984C204.44 78.5547 203.943 78.3828 203.266 78.3828C202.37 78.3828 201.714 78.625 201.297 79.1094C200.88 79.5938 200.672 80.3932 200.672 81.5078V86H199.375V77.4375H200.43L200.641 78.6094H200.703C200.969 78.1875 201.341 77.862 201.82 77.6328C202.299 77.3984 202.833 77.2812 203.422 77.2812C204.453 77.2812 205.229 77.5312 205.75 78.0312C206.271 78.526 206.531 79.3203 206.531 80.4141V86H205.234ZM212.82 86.1562C211.555 86.1562 210.555 85.7708 209.82 85C209.091 84.2292 208.727 83.1589 208.727 81.7891C208.727 80.4089 209.065 79.3125 209.742 78.5C210.424 77.6875 211.339 77.2812 212.484 77.2812C213.557 77.2812 214.406 77.6354 215.031 78.3438C215.656 79.0469 215.969 79.9766 215.969 81.1328V81.9531H210.07C210.096 82.9583 210.349 83.7214 210.828 84.2422C211.312 84.763 211.992 85.0234 212.867 85.0234C213.789 85.0234 214.701 84.8307 215.602 84.4453V85.6016C215.143 85.7995 214.708 85.9401 214.297 86.0234C213.891 86.112 213.398 86.1562 212.82 86.1562ZM212.469 78.3672C211.781 78.3672 211.232 78.5911 210.82 79.0391C210.414 79.487 210.174 80.1068 210.102 80.8984H214.578C214.578 80.0807 214.396 79.4557 214.031 79.0234C213.667 78.5859 213.146 78.3672 212.469 78.3672ZM223.453 86L223.195 84.7812H223.133C222.706 85.3177 222.279 85.6823 221.852 85.875C221.43 86.0625 220.901 86.1562 220.266 86.1562C219.417 86.1562 218.75 85.9375 218.266 85.5C217.786 85.0625 217.547 84.4401 217.547 83.6328C217.547 81.9036 218.93 80.9974 221.695 80.9141L223.148 80.8672V80.3359C223.148 79.6641 223.003 79.1693 222.711 78.8516C222.424 78.5286 221.964 78.3672 221.328 78.3672C220.615 78.3672 219.807 78.5859 218.906 79.0234L218.508 78.0312C218.93 77.8021 219.391 77.6224 219.891 77.4922C220.396 77.362 220.901 77.2969 221.406 77.2969C222.427 77.2969 223.182 77.5234 223.672 77.9766C224.167 78.4297 224.414 79.1562 224.414 80.1562V86H223.453ZM220.523 85.0859C221.331 85.0859 221.964 84.8646 222.422 84.4219C222.885 83.9792 223.117 83.3594 223.117 82.5625V81.7891L221.82 81.8438C220.789 81.8802 220.044 82.0417 219.586 82.3281C219.133 82.6094 218.906 83.0495 218.906 83.6484C218.906 84.1172 219.047 84.474 219.328 84.7188C219.615 84.9635 220.013 85.0859 220.523 85.0859Z" fill="#38485C"/>
<path d="M601 108H641C645.418 108 649 111.582 649 116V156H601V108Z" fill="#E6EBF0"/>
<path d="M622 126.711C621.61 127.101 621.61 127.731 622 128.121L625.88 132.001L622 135.881C621.61 136.271 621.61 136.901 622 137.291C622.39 137.681 623.02 137.681 623.41 137.291L628 132.701C628.39 132.311 628.39 131.681 628 131.291L623.41 126.701C623.03 126.321 622.39 126.321 622 126.711Z" fill="#38485C"/>
<path d="M62 116C62 111.582 65.5817 108 70 108H110V156H62V116Z" fill="#E6EBF0"/>
<path d="M89 126.705C88.61 126.315 87.98 126.315 87.59 126.705L83 131.295C82.61 131.685 82.61 132.315 83 132.705L87.59 137.295C87.98 137.685 88.61 137.685 89 137.295C89.39 136.905 89.39 136.275 89 135.885L85.12 131.995L89 128.115C89.39 127.725 89.38 127.085 89 126.705Z" fill="#38485C"/>
</svg>
