<svg width="712" height="270" viewBox="0 0 712 270" fill="none" xmlns="http://www.w3.org/2000/svg">
<rect x="1" y="1" width="710" height="268" rx="7" fill="white" stroke="#D1D8E0" stroke-width="2"/>
<g clip-path="url(#clip0_2616_2287)">
<path d="M173.025 105.144C172.653 105.144 172.365 105.042 172.161 104.838C171.969 104.622 171.873 104.328 171.873 103.956V93.48C171.873 93.096 171.975 92.808 172.179 92.616C172.383 92.412 172.671 92.31 173.043 92.31H177.381C178.773 92.31 179.847 92.658 180.603 93.354C181.359 94.05 181.737 95.022 181.737 96.27C181.737 97.518 181.359 98.496 180.603 99.204C179.847 99.9 178.773 100.248 177.381 100.248H174.177V103.956C174.177 104.328 174.081 104.622 173.889 104.838C173.697 105.042 173.409 105.144 173.025 105.144ZM174.177 98.43H177.021C177.837 98.43 178.455 98.25 178.875 97.89C179.295 97.518 179.505 96.978 179.505 96.27C179.505 95.562 179.295 95.028 178.875 94.668C178.455 94.308 177.837 94.128 177.021 94.128H174.177V98.43ZM187.298 105.18C186.302 105.18 185.444 104.994 184.724 104.622C184.004 104.25 183.446 103.722 183.05 103.038C182.666 102.354 182.474 101.544 182.474 100.608C182.474 99.696 182.66 98.898 183.032 98.214C183.416 97.53 183.938 96.996 184.598 96.612C185.27 96.216 186.032 96.018 186.884 96.018C187.508 96.018 188.066 96.12 188.558 96.324C189.062 96.528 189.488 96.822 189.836 97.206C190.196 97.59 190.466 98.058 190.646 98.61C190.838 99.15 190.934 99.762 190.934 100.446C190.934 100.662 190.856 100.83 190.7 100.95C190.556 101.058 190.346 101.112 190.07 101.112H184.292V99.816H189.35L189.062 100.086C189.062 99.534 188.978 99.072 188.81 98.7C188.654 98.328 188.42 98.046 188.108 97.854C187.808 97.65 187.43 97.548 186.974 97.548C186.47 97.548 186.038 97.668 185.678 97.908C185.33 98.136 185.06 98.466 184.868 98.898C184.688 99.318 184.598 99.822 184.598 100.41V100.536C184.598 101.52 184.826 102.258 185.282 102.75C185.75 103.23 186.434 103.47 187.334 103.47C187.646 103.47 187.994 103.434 188.378 103.362C188.774 103.278 189.146 103.14 189.494 102.948C189.746 102.804 189.968 102.744 190.16 102.768C190.352 102.78 190.502 102.846 190.61 102.966C190.73 103.086 190.802 103.236 190.826 103.416C190.85 103.584 190.814 103.758 190.718 103.938C190.634 104.118 190.484 104.274 190.268 104.406C189.848 104.67 189.362 104.868 188.81 105C188.27 105.12 187.766 105.18 187.298 105.18ZM195.938 105.18C195.422 105.18 194.876 105.126 194.3 105.018C193.724 104.91 193.208 104.724 192.752 104.46C192.56 104.34 192.422 104.202 192.338 104.046C192.266 103.878 192.236 103.716 192.248 103.56C192.272 103.392 192.332 103.248 192.428 103.128C192.536 103.008 192.668 102.93 192.824 102.894C192.992 102.858 193.172 102.888 193.364 102.984C193.844 103.212 194.294 103.374 194.714 103.47C195.134 103.554 195.548 103.596 195.956 103.596C196.532 103.596 196.958 103.5 197.234 103.308C197.522 103.104 197.666 102.84 197.666 102.516C197.666 102.24 197.57 102.03 197.378 101.886C197.198 101.73 196.922 101.616 196.55 101.544L194.75 101.202C194.006 101.058 193.436 100.788 193.04 100.392C192.656 99.984 192.464 99.462 192.464 98.826C192.464 98.25 192.62 97.752 192.932 97.332C193.256 96.912 193.7 96.588 194.264 96.36C194.828 96.132 195.476 96.018 196.208 96.018C196.736 96.018 197.228 96.078 197.684 96.198C198.152 96.306 198.602 96.48 199.034 96.72C199.214 96.816 199.334 96.942 199.394 97.098C199.466 97.254 199.484 97.416 199.448 97.584C199.412 97.74 199.34 97.884 199.232 98.016C199.124 98.136 198.986 98.214 198.818 98.25C198.662 98.274 198.482 98.238 198.278 98.142C197.906 97.95 197.546 97.812 197.198 97.728C196.862 97.644 196.538 97.602 196.226 97.602C195.638 97.602 195.2 97.704 194.912 97.908C194.636 98.112 194.498 98.382 194.498 98.718C194.498 98.97 194.582 99.18 194.75 99.348C194.918 99.516 195.176 99.63 195.524 99.69L197.324 100.032C198.104 100.176 198.692 100.44 199.088 100.824C199.496 101.208 199.7 101.724 199.7 102.372C199.7 103.248 199.358 103.938 198.674 104.442C197.99 104.934 197.078 105.18 195.938 105.18ZM205.449 105.18C204.669 105.18 204.015 105.048 203.487 104.784C202.971 104.52 202.587 104.136 202.335 103.632C202.083 103.116 201.957 102.48 201.957 101.724V97.89H201.021C200.733 97.89 200.511 97.818 200.355 97.674C200.199 97.518 200.121 97.308 200.121 97.044C200.121 96.768 200.199 96.558 200.355 96.414C200.511 96.27 200.733 96.198 201.021 96.198H201.957V94.56C201.957 94.188 202.053 93.906 202.245 93.714C202.449 93.522 202.731 93.426 203.091 93.426C203.451 93.426 203.727 93.522 203.919 93.714C204.111 93.906 204.207 94.188 204.207 94.56V96.198H206.115C206.403 96.198 206.625 96.27 206.781 96.414C206.937 96.558 207.015 96.768 207.015 97.044C207.015 97.308 206.937 97.518 206.781 97.674C206.625 97.818 206.403 97.89 206.115 97.89H204.207V101.598C204.207 102.174 204.333 102.606 204.585 102.894C204.837 103.182 205.245 103.326 205.809 103.326C206.013 103.326 206.193 103.308 206.349 103.272C206.505 103.236 206.643 103.212 206.763 103.2C206.907 103.188 207.027 103.236 207.123 103.344C207.219 103.44 207.267 103.644 207.267 103.956C207.267 104.196 207.225 104.412 207.141 104.604C207.069 104.784 206.931 104.91 206.727 104.982C206.571 105.03 206.367 105.072 206.115 105.108C205.863 105.156 205.641 105.18 205.449 105.18ZM211.223 105.18C210.587 105.18 210.017 105.06 209.513 104.82C209.021 104.568 208.631 104.232 208.343 103.812C208.067 103.392 207.929 102.918 207.929 102.39C207.929 101.742 208.097 101.232 208.433 100.86C208.769 100.476 209.315 100.2 210.071 100.032C210.827 99.864 211.841 99.78 213.113 99.78H214.013V101.076H213.131C212.387 101.076 211.793 101.112 211.349 101.184C210.905 101.256 210.587 101.382 210.395 101.562C210.215 101.73 210.125 101.97 210.125 102.282C210.125 102.678 210.263 103.002 210.539 103.254C210.815 103.506 211.199 103.632 211.691 103.632C212.087 103.632 212.435 103.542 212.735 103.362C213.047 103.17 213.293 102.912 213.473 102.588C213.653 102.264 213.743 101.892 213.743 101.472V99.402C213.743 98.802 213.611 98.37 213.347 98.106C213.083 97.842 212.639 97.71 212.015 97.71C211.667 97.71 211.289 97.752 210.881 97.836C210.485 97.92 210.065 98.064 209.621 98.268C209.393 98.376 209.189 98.406 209.009 98.358C208.841 98.31 208.709 98.214 208.613 98.07C208.517 97.914 208.469 97.746 208.469 97.566C208.469 97.386 208.517 97.212 208.613 97.044C208.709 96.864 208.871 96.732 209.099 96.648C209.651 96.42 210.179 96.258 210.683 96.162C211.199 96.066 211.667 96.018 212.087 96.018C212.951 96.018 213.659 96.15 214.211 96.414C214.775 96.678 215.195 97.08 215.471 97.62C215.747 98.148 215.885 98.832 215.885 99.672V103.992C215.885 104.364 215.795 104.652 215.615 104.856C215.435 105.048 215.177 105.144 214.841 105.144C214.505 105.144 214.241 105.048 214.049 104.856C213.869 104.652 213.779 104.364 213.779 103.992V103.128H213.923C213.839 103.548 213.671 103.914 213.419 104.226C213.179 104.526 212.873 104.76 212.501 104.928C212.129 105.096 211.703 105.18 211.223 105.18ZM219.285 105.144C218.925 105.144 218.649 105.048 218.457 104.856C218.265 104.652 218.169 104.364 218.169 103.992V97.188C218.169 96.816 218.265 96.534 218.457 96.342C218.649 96.15 218.919 96.054 219.267 96.054C219.615 96.054 219.885 96.15 220.077 96.342C220.269 96.534 220.365 96.816 220.365 97.188V98.412L220.167 97.962C220.431 97.326 220.839 96.846 221.391 96.522C221.955 96.186 222.591 96.018 223.299 96.018C224.007 96.018 224.589 96.15 225.045 96.414C225.501 96.678 225.843 97.08 226.071 97.62C226.299 98.148 226.413 98.82 226.413 99.636V103.992C226.413 104.364 226.317 104.652 226.125 104.856C225.933 105.048 225.657 105.144 225.297 105.144C224.937 105.144 224.655 105.048 224.451 104.856C224.259 104.652 224.163 104.364 224.163 103.992V99.744C224.163 99.06 224.031 98.562 223.767 98.25C223.515 97.938 223.119 97.782 222.579 97.782C221.919 97.782 221.391 97.992 220.995 98.412C220.611 98.82 220.419 99.366 220.419 100.05V103.992C220.419 104.76 220.041 105.144 219.285 105.144ZM219.357 94.542C219.177 94.53 219.039 94.47 218.943 94.362C218.847 94.254 218.823 94.086 218.871 93.858C218.919 93.606 218.991 93.36 219.087 93.12C219.195 92.868 219.333 92.64 219.501 92.436C219.669 92.232 219.873 92.07 220.113 91.95C220.353 91.818 220.635 91.752 220.959 91.752C221.259 91.752 221.523 91.812 221.751 91.932C221.979 92.052 222.189 92.19 222.381 92.346C222.573 92.502 222.765 92.64 222.957 92.76C223.149 92.88 223.359 92.94 223.587 92.94C223.839 92.94 224.055 92.856 224.235 92.688C224.427 92.508 224.547 92.286 224.595 92.022C224.619 91.89 224.679 91.788 224.775 91.716C224.883 91.644 225.033 91.614 225.225 91.626C225.405 91.638 225.543 91.698 225.639 91.806C225.735 91.914 225.759 92.082 225.711 92.31C225.651 92.634 225.537 92.958 225.369 93.282C225.201 93.606 224.973 93.876 224.685 94.092C224.409 94.308 224.055 94.416 223.623 94.416C223.323 94.416 223.059 94.356 222.831 94.236C222.603 94.116 222.387 93.978 222.183 93.822C221.991 93.666 221.799 93.528 221.607 93.408C221.415 93.288 221.211 93.228 220.995 93.228C220.743 93.228 220.527 93.312 220.347 93.48C220.167 93.648 220.047 93.87 219.987 94.146C219.963 94.278 219.897 94.38 219.789 94.452C219.693 94.524 219.549 94.554 219.357 94.542ZM231.596 105.18C230.96 105.18 230.39 105.06 229.886 104.82C229.394 104.568 229.004 104.232 228.716 103.812C228.44 103.392 228.302 102.918 228.302 102.39C228.302 101.742 228.47 101.232 228.806 100.86C229.142 100.476 229.688 100.2 230.444 100.032C231.2 99.864 232.214 99.78 233.486 99.78H234.386V101.076H233.504C232.76 101.076 232.166 101.112 231.722 101.184C231.278 101.256 230.96 101.382 230.768 101.562C230.588 101.73 230.498 101.97 230.498 102.282C230.498 102.678 230.636 103.002 230.912 103.254C231.188 103.506 231.572 103.632 232.064 103.632C232.46 103.632 232.808 103.542 233.108 103.362C233.42 103.17 233.666 102.912 233.846 102.588C234.026 102.264 234.116 101.892 234.116 101.472V99.402C234.116 98.802 233.984 98.37 233.72 98.106C233.456 97.842 233.012 97.71 232.388 97.71C232.04 97.71 231.662 97.752 231.254 97.836C230.858 97.92 230.438 98.064 229.994 98.268C229.766 98.376 229.562 98.406 229.382 98.358C229.214 98.31 229.082 98.214 228.986 98.07C228.89 97.914 228.842 97.746 228.842 97.566C228.842 97.386 228.89 97.212 228.986 97.044C229.082 96.864 229.244 96.732 229.472 96.648C230.024 96.42 230.552 96.258 231.056 96.162C231.572 96.066 232.04 96.018 232.46 96.018C233.324 96.018 234.032 96.15 234.584 96.414C235.148 96.678 235.568 97.08 235.844 97.62C236.12 98.148 236.258 98.832 236.258 99.672V103.992C236.258 104.364 236.168 104.652 235.988 104.856C235.808 105.048 235.55 105.144 235.214 105.144C234.878 105.144 234.614 105.048 234.422 104.856C234.242 104.652 234.152 104.364 234.152 103.992V103.128H234.296C234.212 103.548 234.044 103.914 233.792 104.226C233.552 104.526 233.246 104.76 232.874 104.928C232.502 105.096 232.076 105.18 231.596 105.18ZM246.327 105.18C245.691 105.18 245.121 105.06 244.617 104.82C244.125 104.568 243.735 104.232 243.447 103.812C243.171 103.392 243.033 102.918 243.033 102.39C243.033 101.742 243.201 101.232 243.537 100.86C243.873 100.476 244.419 100.2 245.175 100.032C245.931 99.864 246.945 99.78 248.217 99.78H249.117V101.076H248.235C247.491 101.076 246.897 101.112 246.453 101.184C246.009 101.256 245.691 101.382 245.499 101.562C245.319 101.73 245.229 101.97 245.229 102.282C245.229 102.678 245.367 103.002 245.643 103.254C245.919 103.506 246.303 103.632 246.795 103.632C247.191 103.632 247.539 103.542 247.839 103.362C248.151 103.17 248.397 102.912 248.577 102.588C248.757 102.264 248.847 101.892 248.847 101.472V99.402C248.847 98.802 248.715 98.37 248.451 98.106C248.187 97.842 247.743 97.71 247.119 97.71C246.771 97.71 246.393 97.752 245.985 97.836C245.589 97.92 245.169 98.064 244.725 98.268C244.497 98.376 244.293 98.406 244.113 98.358C243.945 98.31 243.813 98.214 243.717 98.07C243.621 97.914 243.573 97.746 243.573 97.566C243.573 97.386 243.621 97.212 243.717 97.044C243.813 96.864 243.975 96.732 244.203 96.648C244.755 96.42 245.283 96.258 245.787 96.162C246.303 96.066 246.771 96.018 247.191 96.018C248.055 96.018 248.763 96.15 249.315 96.414C249.879 96.678 250.299 97.08 250.575 97.62C250.851 98.148 250.989 98.832 250.989 99.672V103.992C250.989 104.364 250.899 104.652 250.719 104.856C250.539 105.048 250.281 105.144 249.945 105.144C249.609 105.144 249.345 105.048 249.153 104.856C248.973 104.652 248.883 104.364 248.883 103.992V103.128H249.027C248.943 103.548 248.775 103.914 248.523 104.226C248.283 104.526 247.977 104.76 247.605 104.928C247.233 105.096 246.807 105.18 246.327 105.18ZM257.341 105.18C256.417 105.18 255.613 104.994 254.929 104.622C254.245 104.238 253.717 103.698 253.345 103.002C252.973 102.306 252.787 101.49 252.787 100.554C252.787 99.846 252.889 99.216 253.093 98.664C253.309 98.1 253.615 97.626 254.011 97.242C254.407 96.846 254.887 96.546 255.451 96.342C256.015 96.126 256.645 96.018 257.341 96.018C257.737 96.018 258.163 96.072 258.619 96.18C259.087 96.288 259.525 96.468 259.933 96.72C260.125 96.84 260.251 96.984 260.311 97.152C260.371 97.32 260.383 97.494 260.347 97.674C260.311 97.842 260.233 97.992 260.113 98.124C260.005 98.244 259.867 98.322 259.699 98.358C259.531 98.382 259.345 98.34 259.141 98.232C258.877 98.076 258.607 97.962 258.331 97.89C258.055 97.806 257.791 97.764 257.539 97.764C257.143 97.764 256.795 97.83 256.495 97.962C256.195 98.082 255.937 98.262 255.721 98.502C255.517 98.73 255.361 99.018 255.253 99.366C255.145 99.714 255.091 100.116 255.091 100.572C255.091 101.46 255.301 102.162 255.721 102.678C256.153 103.182 256.759 103.434 257.539 103.434C257.791 103.434 258.049 103.398 258.313 103.326C258.589 103.254 258.865 103.14 259.141 102.984C259.345 102.876 259.525 102.84 259.681 102.876C259.849 102.912 259.987 102.996 260.095 103.128C260.203 103.248 260.269 103.398 260.293 103.578C260.317 103.746 260.293 103.914 260.221 104.082C260.161 104.25 260.041 104.388 259.861 104.496C259.465 104.736 259.045 104.91 258.601 105.018C258.157 105.126 257.737 105.18 257.341 105.18ZM265.83 105.18C265.05 105.18 264.396 105.048 263.868 104.784C263.352 104.52 262.968 104.136 262.716 103.632C262.464 103.116 262.338 102.48 262.338 101.724V97.89H261.402C261.114 97.89 260.892 97.818 260.736 97.674C260.58 97.518 260.502 97.308 260.502 97.044C260.502 96.768 260.58 96.558 260.736 96.414C260.892 96.27 261.114 96.198 261.402 96.198H262.338V94.56C262.338 94.188 262.434 93.906 262.626 93.714C262.83 93.522 263.112 93.426 263.472 93.426C263.832 93.426 264.108 93.522 264.3 93.714C264.492 93.906 264.588 94.188 264.588 94.56V96.198H266.496C266.784 96.198 267.006 96.27 267.162 96.414C267.318 96.558 267.396 96.768 267.396 97.044C267.396 97.308 267.318 97.518 267.162 97.674C267.006 97.818 266.784 97.89 266.496 97.89H264.588V101.598C264.588 102.174 264.714 102.606 264.966 102.894C265.218 103.182 265.626 103.326 266.19 103.326C266.394 103.326 266.574 103.308 266.73 103.272C266.886 103.236 267.024 103.212 267.144 103.2C267.288 103.188 267.408 103.236 267.504 103.344C267.6 103.44 267.648 103.644 267.648 103.956C267.648 104.196 267.606 104.412 267.522 104.604C267.45 104.784 267.312 104.91 267.108 104.982C266.952 105.03 266.748 105.072 266.496 105.108C266.244 105.156 266.022 105.18 265.83 105.18ZM270.051 105.126C269.691 105.126 269.415 105.018 269.223 104.802C269.031 104.586 268.935 104.286 268.935 103.902V97.296C268.935 96.9 269.031 96.6 269.223 96.396C269.415 96.18 269.691 96.072 270.051 96.072C270.411 96.072 270.687 96.18 270.879 96.396C271.083 96.6 271.185 96.9 271.185 97.296V103.902C271.185 104.286 271.089 104.586 270.897 104.802C270.705 105.018 270.423 105.126 270.051 105.126ZM270.051 94.398C269.631 94.398 269.301 94.296 269.061 94.092C268.833 93.876 268.719 93.582 268.719 93.21C268.719 92.826 268.833 92.532 269.061 92.328C269.301 92.124 269.631 92.022 270.051 92.022C270.483 92.022 270.813 92.124 271.041 92.328C271.269 92.532 271.383 92.826 271.383 93.21C271.383 93.582 271.269 93.876 271.041 94.092C270.813 94.296 270.483 94.398 270.051 94.398ZM277.087 105.144C276.787 105.144 276.523 105.066 276.295 104.91C276.079 104.754 275.899 104.514 275.755 104.19L272.893 97.548C272.785 97.284 272.743 97.038 272.767 96.81C272.803 96.582 272.911 96.402 273.091 96.27C273.283 96.126 273.541 96.054 273.865 96.054C274.141 96.054 274.363 96.12 274.531 96.252C274.699 96.372 274.849 96.606 274.981 96.954L277.411 103.02H276.871L279.373 96.936C279.505 96.6 279.655 96.372 279.823 96.252C280.003 96.12 280.243 96.054 280.543 96.054C280.807 96.054 281.017 96.126 281.173 96.27C281.329 96.402 281.425 96.582 281.461 96.81C281.497 97.026 281.455 97.266 281.335 97.53L278.419 104.19C278.287 104.514 278.107 104.754 277.879 104.91C277.663 105.066 277.399 105.144 277.087 105.144ZM285.737 105.18C285.101 105.18 284.531 105.06 284.027 104.82C283.535 104.568 283.145 104.232 282.857 103.812C282.581 103.392 282.443 102.918 282.443 102.39C282.443 101.742 282.611 101.232 282.947 100.86C283.283 100.476 283.829 100.2 284.585 100.032C285.341 99.864 286.355 99.78 287.627 99.78H288.527V101.076H287.645C286.901 101.076 286.307 101.112 285.863 101.184C285.419 101.256 285.101 101.382 284.909 101.562C284.729 101.73 284.639 101.97 284.639 102.282C284.639 102.678 284.777 103.002 285.053 103.254C285.329 103.506 285.713 103.632 286.205 103.632C286.601 103.632 286.949 103.542 287.249 103.362C287.561 103.17 287.807 102.912 287.987 102.588C288.167 102.264 288.257 101.892 288.257 101.472V99.402C288.257 98.802 288.125 98.37 287.861 98.106C287.597 97.842 287.153 97.71 286.529 97.71C286.181 97.71 285.803 97.752 285.395 97.836C284.999 97.92 284.579 98.064 284.135 98.268C283.907 98.376 283.703 98.406 283.523 98.358C283.355 98.31 283.223 98.214 283.127 98.07C283.031 97.914 282.983 97.746 282.983 97.566C282.983 97.386 283.031 97.212 283.127 97.044C283.223 96.864 283.385 96.732 283.613 96.648C284.165 96.42 284.693 96.258 285.197 96.162C285.713 96.066 286.181 96.018 286.601 96.018C287.465 96.018 288.173 96.15 288.725 96.414C289.289 96.678 289.709 97.08 289.985 97.62C290.261 98.148 290.399 98.832 290.399 99.672V103.992C290.399 104.364 290.309 104.652 290.129 104.856C289.949 105.048 289.691 105.144 289.355 105.144C289.019 105.144 288.755 105.048 288.563 104.856C288.383 104.652 288.293 104.364 288.293 103.992V103.128H288.437C288.353 103.548 288.185 103.914 287.933 104.226C287.693 104.526 287.387 104.76 287.015 104.928C286.643 105.096 286.217 105.18 285.737 105.18Z" fill="#38485C"/>
<path d="M356 119H106V127H356V119Z" fill="#007BC7"/>
</g>
<path d="M384.524 105.126C384.284 105.126 384.098 105.06 383.966 104.928C383.846 104.784 383.786 104.592 383.786 104.352V93.066C383.786 92.814 383.852 92.628 383.984 92.508C384.116 92.376 384.302 92.31 384.542 92.31H388.808C390.164 92.31 391.208 92.646 391.94 93.318C392.672 93.978 393.038 94.914 393.038 96.126C393.038 97.326 392.672 98.262 391.94 98.934C391.208 99.606 390.164 99.942 388.808 99.942H385.262V104.352C385.262 104.592 385.202 104.784 385.082 104.928C384.962 105.06 384.776 105.126 384.524 105.126ZM385.262 98.7H388.628C389.6 98.7 390.332 98.484 390.824 98.052C391.328 97.608 391.58 96.966 391.58 96.126C391.58 95.274 391.328 94.632 390.824 94.2C390.332 93.756 389.6 93.534 388.628 93.534H385.262V98.7ZM398.534 105.162C397.61 105.162 396.812 104.982 396.14 104.622C395.48 104.25 394.964 103.728 394.592 103.056C394.232 102.384 394.052 101.58 394.052 100.644C394.052 99.732 394.232 98.94 394.592 98.268C394.952 97.584 395.444 97.05 396.068 96.666C396.704 96.282 397.436 96.09 398.264 96.09C398.852 96.09 399.38 96.192 399.848 96.396C400.316 96.588 400.712 96.87 401.036 97.242C401.372 97.614 401.624 98.064 401.792 98.592C401.972 99.12 402.062 99.714 402.062 100.374C402.062 100.566 402.008 100.71 401.9 100.806C401.792 100.89 401.636 100.932 401.432 100.932H395.168V99.978H401.09L400.802 100.212C400.802 99.564 400.706 99.018 400.514 98.574C400.322 98.118 400.04 97.77 399.668 97.53C399.308 97.29 398.852 97.17 398.3 97.17C397.688 97.17 397.166 97.314 396.734 97.602C396.314 97.878 395.996 98.268 395.78 98.772C395.564 99.264 395.456 99.84 395.456 100.5V100.608C395.456 101.712 395.72 102.552 396.248 103.128C396.788 103.704 397.55 103.992 398.534 103.992C398.942 103.992 399.344 103.938 399.74 103.83C400.148 103.722 400.544 103.542 400.928 103.29C401.096 103.182 401.246 103.134 401.378 103.146C401.522 103.146 401.636 103.188 401.72 103.272C401.804 103.344 401.858 103.44 401.882 103.56C401.918 103.668 401.906 103.788 401.846 103.92C401.798 104.052 401.696 104.166 401.54 104.262C401.144 104.55 400.676 104.772 400.136 104.928C399.596 105.084 399.062 105.162 398.534 105.162ZM407.124 105.162C406.584 105.162 406.038 105.096 405.486 104.964C404.946 104.832 404.442 104.604 403.974 104.28C403.854 104.196 403.77 104.1 403.722 103.992C403.674 103.872 403.656 103.758 403.668 103.65C403.692 103.53 403.74 103.428 403.812 103.344C403.896 103.26 403.992 103.212 404.1 103.2C404.22 103.176 404.352 103.2 404.496 103.272C404.964 103.56 405.414 103.764 405.846 103.884C406.29 103.992 406.728 104.046 407.16 104.046C407.844 104.046 408.36 103.92 408.708 103.668C409.056 103.416 409.23 103.074 409.23 102.642C409.23 102.306 409.116 102.042 408.888 101.85C408.66 101.646 408.3 101.49 407.808 101.382L406.17 101.022C405.414 100.866 404.85 100.596 404.478 100.212C404.118 99.828 403.938 99.33 403.938 98.718C403.938 98.178 404.076 97.716 404.352 97.332C404.64 96.936 405.042 96.63 405.558 96.414C406.074 96.198 406.674 96.09 407.358 96.09C407.886 96.09 408.384 96.162 408.852 96.306C409.332 96.438 409.764 96.654 410.148 96.954C410.268 97.038 410.346 97.14 410.382 97.26C410.43 97.368 410.436 97.482 410.4 97.602C410.376 97.71 410.322 97.806 410.238 97.89C410.154 97.962 410.052 98.004 409.932 98.016C409.812 98.028 409.686 97.992 409.554 97.908C409.194 97.668 408.828 97.494 408.456 97.386C408.084 97.266 407.718 97.206 407.358 97.206C406.686 97.206 406.176 97.338 405.828 97.602C405.48 97.866 405.306 98.214 405.306 98.646C405.306 98.982 405.414 99.258 405.63 99.474C405.846 99.69 406.182 99.846 406.638 99.942L408.276 100.284C409.056 100.452 409.638 100.722 410.022 101.094C410.418 101.454 410.616 101.946 410.616 102.57C410.616 103.362 410.298 103.992 409.662 104.46C409.026 104.928 408.18 105.162 407.124 105.162ZM416.26 105.162C415.576 105.162 415 105.042 414.532 104.802C414.076 104.55 413.734 104.19 413.506 103.722C413.278 103.242 413.164 102.66 413.164 101.976V97.386H411.958C411.754 97.386 411.598 97.338 411.49 97.242C411.382 97.134 411.328 96.99 411.328 96.81C411.328 96.63 411.382 96.492 411.49 96.396C411.598 96.3 411.754 96.252 411.958 96.252H413.164V94.182C413.164 93.942 413.23 93.762 413.362 93.642C413.494 93.51 413.674 93.444 413.902 93.444C414.13 93.444 414.304 93.51 414.424 93.642C414.556 93.762 414.622 93.942 414.622 94.182V96.252H416.89C417.094 96.252 417.25 96.3 417.358 96.396C417.466 96.492 417.52 96.63 417.52 96.81C417.52 96.99 417.466 97.134 417.358 97.242C417.25 97.338 417.094 97.386 416.89 97.386H414.622V101.832C414.622 102.516 414.766 103.038 415.054 103.398C415.342 103.746 415.81 103.92 416.458 103.92C416.686 103.92 416.878 103.896 417.034 103.848C417.202 103.8 417.34 103.776 417.448 103.776C417.556 103.764 417.646 103.8 417.718 103.884C417.79 103.968 417.826 104.112 417.826 104.316C417.826 104.46 417.796 104.592 417.736 104.712C417.688 104.832 417.598 104.916 417.466 104.964C417.322 105.012 417.13 105.054 416.89 105.09C416.662 105.138 416.452 105.162 416.26 105.162ZM421.797 105.162C421.197 105.162 420.657 105.048 420.177 104.82C419.709 104.58 419.337 104.256 419.061 103.848C418.785 103.44 418.647 102.984 418.647 102.48C418.647 101.832 418.809 101.322 419.133 100.95C419.469 100.578 420.015 100.314 420.771 100.158C421.539 100.002 422.583 99.924 423.903 99.924H424.713V100.878H423.921C422.949 100.878 422.181 100.926 421.617 101.022C421.065 101.106 420.675 101.256 420.447 101.472C420.231 101.688 420.123 101.994 420.123 102.39C420.123 102.882 420.291 103.284 420.627 103.596C420.975 103.908 421.443 104.064 422.031 104.064C422.511 104.064 422.931 103.95 423.291 103.722C423.663 103.494 423.951 103.182 424.155 102.786C424.371 102.39 424.479 101.934 424.479 101.418V99.366C424.479 98.622 424.329 98.088 424.029 97.764C423.729 97.428 423.237 97.26 422.553 97.26C422.133 97.26 421.713 97.314 421.293 97.422C420.873 97.53 420.429 97.704 419.961 97.944C419.793 98.028 419.649 98.058 419.529 98.034C419.409 97.998 419.313 97.932 419.241 97.836C419.169 97.74 419.127 97.632 419.115 97.512C419.103 97.38 419.127 97.254 419.187 97.134C419.259 97.014 419.367 96.918 419.511 96.846C420.039 96.582 420.561 96.39 421.077 96.27C421.593 96.15 422.085 96.09 422.553 96.09C423.309 96.09 423.933 96.216 424.425 96.468C424.917 96.708 425.283 97.08 425.523 97.584C425.763 98.076 425.883 98.712 425.883 99.492V104.37C425.883 104.61 425.823 104.796 425.703 104.928C425.595 105.06 425.433 105.126 425.217 105.126C424.989 105.126 424.815 105.06 424.695 104.928C424.575 104.796 424.515 104.61 424.515 104.37V102.966H424.677C424.581 103.422 424.395 103.812 424.119 104.136C423.855 104.46 423.525 104.712 423.129 104.892C422.733 105.072 422.289 105.162 421.797 105.162ZM429.308 105.126C429.068 105.126 428.888 105.06 428.768 104.928C428.648 104.796 428.588 104.61 428.588 104.37V96.864C428.588 96.624 428.648 96.444 428.768 96.324C428.888 96.192 429.062 96.126 429.29 96.126C429.518 96.126 429.692 96.192 429.812 96.324C429.944 96.444 430.01 96.624 430.01 96.864V98.412L429.812 98.196C430.064 97.5 430.472 96.978 431.036 96.63C431.612 96.27 432.272 96.09 433.016 96.09C433.712 96.09 434.288 96.216 434.744 96.468C435.212 96.72 435.56 97.104 435.788 97.62C436.016 98.124 436.13 98.766 436.13 99.546V104.37C436.13 104.61 436.064 104.796 435.932 104.928C435.812 105.06 435.638 105.126 435.41 105.126C435.17 105.126 434.984 105.06 434.852 104.928C434.732 104.796 434.672 104.61 434.672 104.37V99.636C434.672 98.82 434.51 98.226 434.186 97.854C433.874 97.47 433.37 97.278 432.674 97.278C431.87 97.278 431.228 97.53 430.748 98.034C430.28 98.526 430.046 99.186 430.046 100.014V104.37C430.046 104.874 429.8 105.126 429.308 105.126ZM429.524 94.434C429.404 94.434 429.302 94.392 429.218 94.308C429.146 94.224 429.128 94.098 429.164 93.93C429.212 93.642 429.284 93.378 429.38 93.138C429.476 92.898 429.602 92.688 429.758 92.508C429.914 92.328 430.094 92.19 430.298 92.094C430.514 91.986 430.76 91.932 431.036 91.932C431.336 91.932 431.594 92.004 431.81 92.148C432.038 92.28 432.248 92.436 432.44 92.616C432.644 92.784 432.842 92.94 433.034 93.084C433.226 93.228 433.43 93.3 433.646 93.3C433.922 93.3 434.15 93.198 434.33 92.994C434.522 92.778 434.648 92.496 434.708 92.148C434.732 92.028 434.78 91.944 434.852 91.896C434.936 91.836 435.044 91.812 435.176 91.824C435.296 91.824 435.392 91.866 435.464 91.95C435.548 92.034 435.572 92.16 435.536 92.328C435.476 92.7 435.362 93.036 435.194 93.336C435.038 93.636 434.834 93.876 434.582 94.056C434.33 94.236 434.024 94.326 433.664 94.326C433.364 94.326 433.1 94.26 432.872 94.128C432.656 93.984 432.446 93.822 432.242 93.642C432.05 93.462 431.858 93.306 431.666 93.174C431.474 93.03 431.27 92.958 431.054 92.958C430.778 92.958 430.55 93.06 430.37 93.264C430.19 93.468 430.064 93.75 429.992 94.11C429.968 94.218 429.914 94.302 429.83 94.362C429.758 94.422 429.656 94.446 429.524 94.434ZM441.572 105.162C440.972 105.162 440.432 105.048 439.952 104.82C439.484 104.58 439.112 104.256 438.836 103.848C438.56 103.44 438.422 102.984 438.422 102.48C438.422 101.832 438.584 101.322 438.908 100.95C439.244 100.578 439.79 100.314 440.546 100.158C441.314 100.002 442.358 99.924 443.678 99.924H444.488V100.878H443.696C442.724 100.878 441.956 100.926 441.392 101.022C440.84 101.106 440.45 101.256 440.222 101.472C440.006 101.688 439.898 101.994 439.898 102.39C439.898 102.882 440.066 103.284 440.402 103.596C440.75 103.908 441.218 104.064 441.806 104.064C442.286 104.064 442.706 103.95 443.066 103.722C443.438 103.494 443.726 103.182 443.93 102.786C444.146 102.39 444.254 101.934 444.254 101.418V99.366C444.254 98.622 444.104 98.088 443.804 97.764C443.504 97.428 443.012 97.26 442.328 97.26C441.908 97.26 441.488 97.314 441.068 97.422C440.648 97.53 440.204 97.704 439.736 97.944C439.568 98.028 439.424 98.058 439.304 98.034C439.184 97.998 439.088 97.932 439.016 97.836C438.944 97.74 438.902 97.632 438.89 97.512C438.878 97.38 438.902 97.254 438.962 97.134C439.034 97.014 439.142 96.918 439.286 96.846C439.814 96.582 440.336 96.39 440.852 96.27C441.368 96.15 441.86 96.09 442.328 96.09C443.084 96.09 443.708 96.216 444.2 96.468C444.692 96.708 445.058 97.08 445.298 97.584C445.538 98.076 445.658 98.712 445.658 99.492V104.37C445.658 104.61 445.598 104.796 445.478 104.928C445.37 105.06 445.208 105.126 444.992 105.126C444.764 105.126 444.59 105.06 444.47 104.928C444.35 104.796 444.29 104.61 444.29 104.37V102.966H444.452C444.356 103.422 444.17 103.812 443.894 104.136C443.63 104.46 443.3 104.712 442.904 104.892C442.508 105.072 442.064 105.162 441.572 105.162ZM453.724 108.366C453.484 108.366 453.304 108.3 453.184 108.168C453.064 108.048 453.004 107.868 453.004 107.628V96.864C453.004 96.624 453.064 96.444 453.184 96.324C453.304 96.192 453.478 96.126 453.706 96.126C453.946 96.126 454.126 96.192 454.246 96.324C454.378 96.444 454.444 96.624 454.444 96.864V98.574L454.246 98.322C454.438 97.638 454.816 97.098 455.38 96.702C455.956 96.294 456.64 96.09 457.432 96.09C458.212 96.09 458.89 96.276 459.466 96.648C460.054 97.008 460.504 97.53 460.816 98.214C461.14 98.886 461.302 99.69 461.302 100.626C461.302 101.55 461.14 102.354 460.816 103.038C460.504 103.71 460.06 104.232 459.484 104.604C458.908 104.976 458.224 105.162 457.432 105.162C456.64 105.162 455.962 104.964 455.398 104.568C454.834 104.16 454.45 103.62 454.246 102.948H454.462V107.628C454.462 107.868 454.396 108.048 454.264 108.168C454.132 108.3 453.952 108.366 453.724 108.366ZM457.126 103.992C457.678 103.992 458.152 103.86 458.548 103.596C458.956 103.332 459.268 102.948 459.484 102.444C459.712 101.94 459.826 101.334 459.826 100.626C459.826 99.534 459.58 98.7 459.088 98.124C458.608 97.548 457.954 97.26 457.126 97.26C456.586 97.26 456.112 97.392 455.704 97.656C455.296 97.908 454.978 98.286 454.75 98.79C454.534 99.282 454.426 99.894 454.426 100.626C454.426 101.706 454.672 102.54 455.164 103.128C455.656 103.704 456.31 103.992 457.126 103.992ZM464.236 105.126C463.996 105.126 463.81 105.06 463.678 104.928C463.558 104.796 463.498 104.61 463.498 104.37V96.864C463.498 96.624 463.558 96.444 463.678 96.324C463.798 96.192 463.972 96.126 464.2 96.126C464.428 96.126 464.602 96.192 464.722 96.324C464.854 96.444 464.92 96.624 464.92 96.864V98.322H464.74C464.932 97.614 465.298 97.068 465.838 96.684C466.378 96.3 467.044 96.096 467.836 96.072C468.016 96.06 468.16 96.102 468.268 96.198C468.376 96.282 468.436 96.432 468.448 96.648C468.46 96.852 468.412 97.014 468.304 97.134C468.196 97.254 468.028 97.326 467.8 97.35L467.512 97.386C466.696 97.458 466.066 97.722 465.622 98.178C465.19 98.622 464.974 99.234 464.974 100.014V104.37C464.974 104.61 464.908 104.796 464.776 104.928C464.656 105.06 464.476 105.126 464.236 105.126ZM473.786 105.162C472.862 105.162 472.064 104.982 471.392 104.622C470.732 104.25 470.216 103.728 469.844 103.056C469.484 102.384 469.304 101.58 469.304 100.644C469.304 99.732 469.484 98.94 469.844 98.268C470.204 97.584 470.696 97.05 471.32 96.666C471.956 96.282 472.688 96.09 473.516 96.09C474.104 96.09 474.632 96.192 475.1 96.396C475.568 96.588 475.964 96.87 476.288 97.242C476.624 97.614 476.876 98.064 477.044 98.592C477.224 99.12 477.314 99.714 477.314 100.374C477.314 100.566 477.26 100.71 477.152 100.806C477.044 100.89 476.888 100.932 476.684 100.932H470.42V99.978H476.342L476.054 100.212C476.054 99.564 475.958 99.018 475.766 98.574C475.574 98.118 475.292 97.77 474.92 97.53C474.56 97.29 474.104 97.17 473.552 97.17C472.94 97.17 472.418 97.314 471.986 97.602C471.566 97.878 471.248 98.268 471.032 98.772C470.816 99.264 470.708 99.84 470.708 100.5V100.608C470.708 101.712 470.972 102.552 471.5 103.128C472.04 103.704 472.802 103.992 473.786 103.992C474.194 103.992 474.596 103.938 474.992 103.83C475.4 103.722 475.796 103.542 476.18 103.29C476.348 103.182 476.498 103.134 476.63 103.146C476.774 103.146 476.888 103.188 476.972 103.272C477.056 103.344 477.11 103.44 477.134 103.56C477.17 103.668 477.158 103.788 477.098 103.92C477.05 104.052 476.948 104.166 476.792 104.262C476.396 104.55 475.928 104.772 475.388 104.928C474.848 105.084 474.314 105.162 473.786 105.162ZM482.754 105.162C481.974 105.162 481.29 104.976 480.702 104.604C480.126 104.232 479.676 103.71 479.352 103.038C479.04 102.354 478.884 101.55 478.884 100.626C478.884 99.69 479.04 98.886 479.352 98.214C479.676 97.53 480.126 97.008 480.702 96.648C481.29 96.276 481.974 96.09 482.754 96.09C483.546 96.09 484.224 96.288 484.788 96.684C485.352 97.08 485.73 97.614 485.922 98.286H485.724V92.922C485.724 92.682 485.784 92.502 485.904 92.382C486.036 92.25 486.222 92.184 486.462 92.184C486.69 92.184 486.864 92.25 486.984 92.382C487.116 92.502 487.182 92.682 487.182 92.922V104.37C487.182 104.61 487.122 104.796 487.002 104.928C486.882 105.06 486.702 105.126 486.462 105.126C486.234 105.126 486.054 105.06 485.922 104.928C485.802 104.796 485.742 104.61 485.742 104.37V102.66L485.94 102.912C485.748 103.596 485.364 104.142 484.788 104.55C484.224 104.958 483.546 105.162 482.754 105.162ZM483.06 103.992C483.6 103.992 484.074 103.86 484.482 103.596C484.89 103.332 485.202 102.948 485.418 102.444C485.646 101.94 485.76 101.334 485.76 100.626C485.76 99.534 485.514 98.7 485.022 98.124C484.542 97.548 483.888 97.26 483.06 97.26C482.508 97.26 482.028 97.392 481.62 97.656C481.224 97.908 480.912 98.286 480.684 98.79C480.468 99.282 480.36 99.894 480.36 100.626C480.36 101.706 480.606 102.54 481.098 103.128C481.59 103.704 482.244 103.992 483.06 103.992ZM493.86 105.162C492.936 105.162 492.138 104.982 491.466 104.622C490.806 104.25 490.29 103.728 489.918 103.056C489.558 102.384 489.378 101.58 489.378 100.644C489.378 99.732 489.558 98.94 489.918 98.268C490.278 97.584 490.77 97.05 491.394 96.666C492.03 96.282 492.762 96.09 493.59 96.09C494.178 96.09 494.706 96.192 495.174 96.396C495.642 96.588 496.038 96.87 496.362 97.242C496.698 97.614 496.95 98.064 497.118 98.592C497.298 99.12 497.388 99.714 497.388 100.374C497.388 100.566 497.334 100.71 497.226 100.806C497.118 100.89 496.962 100.932 496.758 100.932H490.494V99.978H496.416L496.128 100.212C496.128 99.564 496.032 99.018 495.84 98.574C495.648 98.118 495.366 97.77 494.994 97.53C494.634 97.29 494.178 97.17 493.626 97.17C493.014 97.17 492.492 97.314 492.06 97.602C491.64 97.878 491.322 98.268 491.106 98.772C490.89 99.264 490.782 99.84 490.782 100.5V100.608C490.782 101.712 491.046 102.552 491.574 103.128C492.114 103.704 492.876 103.992 493.86 103.992C494.268 103.992 494.67 103.938 495.066 103.83C495.474 103.722 495.87 103.542 496.254 103.29C496.422 103.182 496.572 103.134 496.704 103.146C496.848 103.146 496.962 103.188 497.046 103.272C497.13 103.344 497.184 103.44 497.208 103.56C497.244 103.668 497.232 103.788 497.172 103.92C497.124 104.052 497.022 104.166 496.866 104.262C496.47 104.55 496.002 104.772 495.462 104.928C494.922 105.084 494.388 105.162 493.86 105.162ZM503.008 105.162C502.324 105.162 501.748 105.042 501.28 104.802C500.824 104.55 500.482 104.19 500.254 103.722C500.026 103.242 499.912 102.66 499.912 101.976V97.386H498.706C498.502 97.386 498.346 97.338 498.238 97.242C498.13 97.134 498.076 96.99 498.076 96.81C498.076 96.63 498.13 96.492 498.238 96.396C498.346 96.3 498.502 96.252 498.706 96.252H499.912V94.182C499.912 93.942 499.978 93.762 500.11 93.642C500.242 93.51 500.422 93.444 500.65 93.444C500.878 93.444 501.052 93.51 501.172 93.642C501.304 93.762 501.37 93.942 501.37 94.182V96.252H503.638C503.842 96.252 503.998 96.3 504.106 96.396C504.214 96.492 504.268 96.63 504.268 96.81C504.268 96.99 504.214 97.134 504.106 97.242C503.998 97.338 503.842 97.386 503.638 97.386H501.37V101.832C501.37 102.516 501.514 103.038 501.802 103.398C502.09 103.746 502.558 103.92 503.206 103.92C503.434 103.92 503.626 103.896 503.782 103.848C503.95 103.8 504.088 103.776 504.196 103.776C504.304 103.764 504.394 103.8 504.466 103.884C504.538 103.968 504.574 104.112 504.574 104.316C504.574 104.46 504.544 104.592 504.484 104.712C504.436 104.832 504.346 104.916 504.214 104.964C504.07 105.012 503.878 105.054 503.638 105.09C503.41 105.138 503.2 105.162 503.008 105.162ZM509.645 105.162C508.721 105.162 507.923 104.982 507.251 104.622C506.591 104.25 506.075 103.728 505.703 103.056C505.343 102.384 505.163 101.58 505.163 100.644C505.163 99.732 505.343 98.94 505.703 98.268C506.063 97.584 506.555 97.05 507.179 96.666C507.815 96.282 508.547 96.09 509.375 96.09C509.963 96.09 510.491 96.192 510.959 96.396C511.427 96.588 511.823 96.87 512.147 97.242C512.483 97.614 512.735 98.064 512.903 98.592C513.083 99.12 513.173 99.714 513.173 100.374C513.173 100.566 513.119 100.71 513.011 100.806C512.903 100.89 512.747 100.932 512.543 100.932H506.279V99.978H512.201L511.913 100.212C511.913 99.564 511.817 99.018 511.625 98.574C511.433 98.118 511.151 97.77 510.779 97.53C510.419 97.29 509.963 97.17 509.411 97.17C508.799 97.17 508.277 97.314 507.845 97.602C507.425 97.878 507.107 98.268 506.891 98.772C506.675 99.264 506.567 99.84 506.567 100.5V100.608C506.567 101.712 506.831 102.552 507.359 103.128C507.899 103.704 508.661 103.992 509.645 103.992C510.053 103.992 510.455 103.938 510.851 103.83C511.259 103.722 511.655 103.542 512.039 103.29C512.207 103.182 512.357 103.134 512.489 103.146C512.633 103.146 512.747 103.188 512.831 103.272C512.915 103.344 512.969 103.44 512.993 103.56C513.029 103.668 513.017 103.788 512.957 103.92C512.909 104.052 512.807 104.166 512.651 104.262C512.255 104.55 511.787 104.772 511.247 104.928C510.707 105.084 510.173 105.162 509.645 105.162ZM516.021 105.126C515.781 105.126 515.595 105.06 515.463 104.928C515.343 104.796 515.283 104.61 515.283 104.37V96.864C515.283 96.624 515.343 96.444 515.463 96.324C515.583 96.192 515.757 96.126 515.985 96.126C516.213 96.126 516.387 96.192 516.507 96.324C516.639 96.444 516.705 96.624 516.705 96.864V98.322H516.525C516.717 97.614 517.083 97.068 517.623 96.684C518.163 96.3 518.829 96.096 519.621 96.072C519.801 96.06 519.945 96.102 520.053 96.198C520.161 96.282 520.221 96.432 520.233 96.648C520.245 96.852 520.197 97.014 520.089 97.134C519.981 97.254 519.813 97.326 519.585 97.35L519.297 97.386C518.481 97.458 517.851 97.722 517.407 98.178C516.975 98.622 516.759 99.234 516.759 100.014V104.37C516.759 104.61 516.693 104.796 516.561 104.928C516.441 105.06 516.261 105.126 516.021 105.126ZM522.49 105.126C522.25 105.126 522.07 105.06 521.95 104.928C521.83 104.796 521.77 104.61 521.77 104.37V96.864C521.77 96.624 521.83 96.444 521.95 96.324C522.07 96.192 522.244 96.126 522.472 96.126C522.7 96.126 522.874 96.192 522.994 96.324C523.126 96.444 523.192 96.624 523.192 96.864V98.448L522.994 98.196C523.222 97.524 523.588 97.008 524.092 96.648C524.608 96.276 525.22 96.09 525.928 96.09C526.672 96.09 527.272 96.27 527.728 96.63C528.196 96.978 528.508 97.524 528.664 98.268H528.394C528.61 97.596 528.994 97.068 529.546 96.684C530.11 96.288 530.764 96.09 531.508 96.09C532.168 96.09 532.708 96.216 533.128 96.468C533.56 96.72 533.884 97.104 534.1 97.62C534.316 98.124 534.424 98.766 534.424 99.546V104.37C534.424 104.61 534.358 104.796 534.226 104.928C534.106 105.06 533.926 105.126 533.686 105.126C533.458 105.126 533.278 105.06 533.146 104.928C533.026 104.796 532.966 104.61 532.966 104.37V99.618C532.966 98.814 532.828 98.226 532.552 97.854C532.276 97.47 531.808 97.278 531.148 97.278C530.428 97.278 529.858 97.53 529.438 98.034C529.03 98.526 528.826 99.198 528.826 100.05V104.37C528.826 104.61 528.76 104.796 528.628 104.928C528.508 105.06 528.328 105.126 528.088 105.126C527.86 105.126 527.68 105.06 527.548 104.928C527.428 104.796 527.368 104.61 527.368 104.37V99.618C527.368 98.814 527.224 98.226 526.936 97.854C526.66 97.47 526.198 97.278 525.55 97.278C524.83 97.278 524.26 97.53 523.84 98.034C523.432 98.526 523.228 99.198 523.228 100.05V104.37C523.228 104.874 522.982 105.126 522.49 105.126ZM537.87 105.09C537.63 105.09 537.45 105.024 537.33 104.892C537.21 104.748 537.15 104.55 537.15 104.298V96.936C537.15 96.684 537.21 96.492 537.33 96.36C537.45 96.228 537.63 96.162 537.87 96.162C538.098 96.162 538.278 96.228 538.41 96.36C538.542 96.492 538.608 96.684 538.608 96.936V104.298C538.608 104.55 538.542 104.748 538.41 104.892C538.29 105.024 538.11 105.09 537.87 105.09ZM537.87 94.146C537.57 94.146 537.336 94.068 537.168 93.912C537 93.744 536.916 93.522 536.916 93.246C536.916 92.958 537 92.742 537.168 92.598C537.336 92.442 537.57 92.364 537.87 92.364C538.182 92.364 538.416 92.442 538.572 92.598C538.74 92.742 538.824 92.958 538.824 93.246C538.824 93.522 538.74 93.744 538.572 93.912C538.416 94.068 538.182 94.146 537.87 94.146ZM542.054 105.126C541.814 105.126 541.634 105.06 541.514 104.928C541.394 104.796 541.334 104.61 541.334 104.37V96.864C541.334 96.624 541.394 96.444 541.514 96.324C541.634 96.192 541.808 96.126 542.036 96.126C542.264 96.126 542.438 96.192 542.558 96.324C542.69 96.444 542.756 96.624 542.756 96.864V98.412L542.558 98.196C542.81 97.5 543.218 96.978 543.782 96.63C544.358 96.27 545.018 96.09 545.762 96.09C546.458 96.09 547.034 96.216 547.49 96.468C547.958 96.72 548.306 97.104 548.534 97.62C548.762 98.124 548.876 98.766 548.876 99.546V104.37C548.876 104.61 548.81 104.796 548.678 104.928C548.558 105.06 548.384 105.126 548.156 105.126C547.916 105.126 547.73 105.06 547.598 104.928C547.478 104.796 547.418 104.61 547.418 104.37V99.636C547.418 98.82 547.256 98.226 546.932 97.854C546.62 97.47 546.116 97.278 545.42 97.278C544.616 97.278 543.974 97.53 543.494 98.034C543.026 98.526 542.792 99.186 542.792 100.014V104.37C542.792 104.874 542.546 105.126 542.054 105.126ZM554.318 105.162C553.718 105.162 553.178 105.048 552.698 104.82C552.23 104.58 551.858 104.256 551.582 103.848C551.306 103.44 551.168 102.984 551.168 102.48C551.168 101.832 551.33 101.322 551.654 100.95C551.99 100.578 552.536 100.314 553.292 100.158C554.06 100.002 555.104 99.924 556.424 99.924H557.234V100.878H556.442C555.47 100.878 554.702 100.926 554.138 101.022C553.586 101.106 553.196 101.256 552.968 101.472C552.752 101.688 552.644 101.994 552.644 102.39C552.644 102.882 552.812 103.284 553.148 103.596C553.496 103.908 553.964 104.064 554.552 104.064C555.032 104.064 555.452 103.95 555.812 103.722C556.184 103.494 556.472 103.182 556.676 102.786C556.892 102.39 557 101.934 557 101.418V99.366C557 98.622 556.85 98.088 556.55 97.764C556.25 97.428 555.758 97.26 555.074 97.26C554.654 97.26 554.234 97.314 553.814 97.422C553.394 97.53 552.95 97.704 552.482 97.944C552.314 98.028 552.17 98.058 552.05 98.034C551.93 97.998 551.834 97.932 551.762 97.836C551.69 97.74 551.648 97.632 551.636 97.512C551.624 97.38 551.648 97.254 551.708 97.134C551.78 97.014 551.888 96.918 552.032 96.846C552.56 96.582 553.082 96.39 553.598 96.27C554.114 96.15 554.606 96.09 555.074 96.09C555.83 96.09 556.454 96.216 556.946 96.468C557.438 96.708 557.804 97.08 558.044 97.584C558.284 98.076 558.404 98.712 558.404 99.492V104.37C558.404 104.61 558.344 104.796 558.224 104.928C558.116 105.06 557.954 105.126 557.738 105.126C557.51 105.126 557.336 105.06 557.216 104.928C557.096 104.796 557.036 104.61 557.036 104.37V102.966H557.198C557.102 103.422 556.916 103.812 556.64 104.136C556.376 104.46 556.046 104.712 555.65 104.892C555.254 105.072 554.81 105.162 554.318 105.162ZM564.439 105.162C563.659 105.162 562.975 104.976 562.387 104.604C561.811 104.232 561.361 103.71 561.037 103.038C560.725 102.354 560.569 101.55 560.569 100.626C560.569 99.69 560.725 98.886 561.037 98.214C561.361 97.53 561.811 97.008 562.387 96.648C562.975 96.276 563.659 96.09 564.439 96.09C565.231 96.09 565.909 96.288 566.473 96.684C567.037 97.08 567.415 97.614 567.607 98.286H567.409V92.922C567.409 92.682 567.469 92.502 567.589 92.382C567.721 92.25 567.907 92.184 568.147 92.184C568.375 92.184 568.549 92.25 568.669 92.382C568.801 92.502 568.867 92.682 568.867 92.922V104.37C568.867 104.61 568.807 104.796 568.687 104.928C568.567 105.06 568.387 105.126 568.147 105.126C567.919 105.126 567.739 105.06 567.607 104.928C567.487 104.796 567.427 104.61 567.427 104.37V102.66L567.625 102.912C567.433 103.596 567.049 104.142 566.473 104.55C565.909 104.958 565.231 105.162 564.439 105.162ZM564.745 103.992C565.285 103.992 565.759 103.86 566.167 103.596C566.575 103.332 566.887 102.948 567.103 102.444C567.331 101.94 567.445 101.334 567.445 100.626C567.445 99.534 567.199 98.7 566.707 98.124C566.227 97.548 565.573 97.26 564.745 97.26C564.193 97.26 563.713 97.392 563.305 97.656C562.909 97.908 562.597 98.286 562.369 98.79C562.153 99.282 562.045 99.894 562.045 100.626C562.045 101.706 562.291 102.54 562.783 103.128C563.275 103.704 563.929 103.992 564.745 103.992ZM574.357 105.162C573.757 105.162 573.217 105.048 572.737 104.82C572.269 104.58 571.897 104.256 571.621 103.848C571.345 103.44 571.207 102.984 571.207 102.48C571.207 101.832 571.369 101.322 571.693 100.95C572.029 100.578 572.575 100.314 573.331 100.158C574.099 100.002 575.143 99.924 576.463 99.924H577.273V100.878H576.481C575.509 100.878 574.741 100.926 574.177 101.022C573.625 101.106 573.235 101.256 573.007 101.472C572.791 101.688 572.683 101.994 572.683 102.39C572.683 102.882 572.851 103.284 573.187 103.596C573.535 103.908 574.003 104.064 574.591 104.064C575.071 104.064 575.491 103.95 575.851 103.722C576.223 103.494 576.511 103.182 576.715 102.786C576.931 102.39 577.039 101.934 577.039 101.418V99.366C577.039 98.622 576.889 98.088 576.589 97.764C576.289 97.428 575.797 97.26 575.113 97.26C574.693 97.26 574.273 97.314 573.853 97.422C573.433 97.53 572.989 97.704 572.521 97.944C572.353 98.028 572.209 98.058 572.089 98.034C571.969 97.998 571.873 97.932 571.801 97.836C571.729 97.74 571.687 97.632 571.675 97.512C571.663 97.38 571.687 97.254 571.747 97.134C571.819 97.014 571.927 96.918 572.071 96.846C572.599 96.582 573.121 96.39 573.637 96.27C574.153 96.15 574.645 96.09 575.113 96.09C575.869 96.09 576.493 96.216 576.985 96.468C577.477 96.708 577.843 97.08 578.083 97.584C578.323 98.076 578.443 98.712 578.443 99.492V104.37C578.443 104.61 578.383 104.796 578.263 104.928C578.155 105.06 577.993 105.126 577.777 105.126C577.549 105.126 577.375 105.06 577.255 104.928C577.135 104.796 577.075 104.61 577.075 104.37V102.966H577.237C577.141 103.422 576.955 103.812 576.679 104.136C576.415 104.46 576.085 104.712 575.689 104.892C575.293 105.072 574.849 105.162 574.357 105.162Z" fill="#38485C"/>
<path d="M107 155C107 150.582 110.582 147 115 147H349C353.418 147 357 150.582 357 155V195H107V155Z" fill="#F3F6F9"/>
<path d="M174.025 177.144C173.653 177.144 173.365 177.042 173.161 176.838C172.969 176.622 172.873 176.328 172.873 175.956V165.48C172.873 165.096 172.975 164.808 173.179 164.616C173.383 164.412 173.671 164.31 174.043 164.31H178.381C179.773 164.31 180.847 164.658 181.603 165.354C182.359 166.05 182.737 167.022 182.737 168.27C182.737 169.518 182.359 170.496 181.603 171.204C180.847 171.9 179.773 172.248 178.381 172.248H175.177V175.956C175.177 176.328 175.081 176.622 174.889 176.838C174.697 177.042 174.409 177.144 174.025 177.144ZM175.177 170.43H178.021C178.837 170.43 179.455 170.25 179.875 169.89C180.295 169.518 180.505 168.978 180.505 168.27C180.505 167.562 180.295 167.028 179.875 166.668C179.455 166.308 178.837 166.128 178.021 166.128H175.177V170.43ZM188.298 177.18C187.302 177.18 186.444 176.994 185.724 176.622C185.004 176.25 184.446 175.722 184.05 175.038C183.666 174.354 183.474 173.544 183.474 172.608C183.474 171.696 183.66 170.898 184.032 170.214C184.416 169.53 184.938 168.996 185.598 168.612C186.27 168.216 187.032 168.018 187.884 168.018C188.508 168.018 189.066 168.12 189.558 168.324C190.062 168.528 190.488 168.822 190.836 169.206C191.196 169.59 191.466 170.058 191.646 170.61C191.838 171.15 191.934 171.762 191.934 172.446C191.934 172.662 191.856 172.83 191.7 172.95C191.556 173.058 191.346 173.112 191.07 173.112H185.292V171.816H190.35L190.062 172.086C190.062 171.534 189.978 171.072 189.81 170.7C189.654 170.328 189.42 170.046 189.108 169.854C188.808 169.65 188.43 169.548 187.974 169.548C187.47 169.548 187.038 169.668 186.678 169.908C186.33 170.136 186.06 170.466 185.868 170.898C185.688 171.318 185.598 171.822 185.598 172.41V172.536C185.598 173.52 185.826 174.258 186.282 174.75C186.75 175.23 187.434 175.47 188.334 175.47C188.646 175.47 188.994 175.434 189.378 175.362C189.774 175.278 190.146 175.14 190.494 174.948C190.746 174.804 190.968 174.744 191.16 174.768C191.352 174.78 191.502 174.846 191.61 174.966C191.73 175.086 191.802 175.236 191.826 175.416C191.85 175.584 191.814 175.758 191.718 175.938C191.634 176.118 191.484 176.274 191.268 176.406C190.848 176.67 190.362 176.868 189.81 177C189.27 177.12 188.766 177.18 188.298 177.18ZM196.938 177.18C196.422 177.18 195.876 177.126 195.3 177.018C194.724 176.91 194.208 176.724 193.752 176.46C193.56 176.34 193.422 176.202 193.338 176.046C193.266 175.878 193.236 175.716 193.248 175.56C193.272 175.392 193.332 175.248 193.428 175.128C193.536 175.008 193.668 174.93 193.824 174.894C193.992 174.858 194.172 174.888 194.364 174.984C194.844 175.212 195.294 175.374 195.714 175.47C196.134 175.554 196.548 175.596 196.956 175.596C197.532 175.596 197.958 175.5 198.234 175.308C198.522 175.104 198.666 174.84 198.666 174.516C198.666 174.24 198.57 174.03 198.378 173.886C198.198 173.73 197.922 173.616 197.55 173.544L195.75 173.202C195.006 173.058 194.436 172.788 194.04 172.392C193.656 171.984 193.464 171.462 193.464 170.826C193.464 170.25 193.62 169.752 193.932 169.332C194.256 168.912 194.7 168.588 195.264 168.36C195.828 168.132 196.476 168.018 197.208 168.018C197.736 168.018 198.228 168.078 198.684 168.198C199.152 168.306 199.602 168.48 200.034 168.72C200.214 168.816 200.334 168.942 200.394 169.098C200.466 169.254 200.484 169.416 200.448 169.584C200.412 169.74 200.34 169.884 200.232 170.016C200.124 170.136 199.986 170.214 199.818 170.25C199.662 170.274 199.482 170.238 199.278 170.142C198.906 169.95 198.546 169.812 198.198 169.728C197.862 169.644 197.538 169.602 197.226 169.602C196.638 169.602 196.2 169.704 195.912 169.908C195.636 170.112 195.498 170.382 195.498 170.718C195.498 170.97 195.582 171.18 195.75 171.348C195.918 171.516 196.176 171.63 196.524 171.69L198.324 172.032C199.104 172.176 199.692 172.44 200.088 172.824C200.496 173.208 200.7 173.724 200.7 174.372C200.7 175.248 200.358 175.938 199.674 176.442C198.99 176.934 198.078 177.18 196.938 177.18ZM206.449 177.18C205.669 177.18 205.015 177.048 204.487 176.784C203.971 176.52 203.587 176.136 203.335 175.632C203.083 175.116 202.957 174.48 202.957 173.724V169.89H202.021C201.733 169.89 201.511 169.818 201.355 169.674C201.199 169.518 201.121 169.308 201.121 169.044C201.121 168.768 201.199 168.558 201.355 168.414C201.511 168.27 201.733 168.198 202.021 168.198H202.957V166.56C202.957 166.188 203.053 165.906 203.245 165.714C203.449 165.522 203.731 165.426 204.091 165.426C204.451 165.426 204.727 165.522 204.919 165.714C205.111 165.906 205.207 166.188 205.207 166.56V168.198H207.115C207.403 168.198 207.625 168.27 207.781 168.414C207.937 168.558 208.015 168.768 208.015 169.044C208.015 169.308 207.937 169.518 207.781 169.674C207.625 169.818 207.403 169.89 207.115 169.89H205.207V173.598C205.207 174.174 205.333 174.606 205.585 174.894C205.837 175.182 206.245 175.326 206.809 175.326C207.013 175.326 207.193 175.308 207.349 175.272C207.505 175.236 207.643 175.212 207.763 175.2C207.907 175.188 208.027 175.236 208.123 175.344C208.219 175.44 208.267 175.644 208.267 175.956C208.267 176.196 208.225 176.412 208.141 176.604C208.069 176.784 207.931 176.91 207.727 176.982C207.571 177.03 207.367 177.072 207.115 177.108C206.863 177.156 206.641 177.18 206.449 177.18ZM212.223 177.18C211.587 177.18 211.017 177.06 210.513 176.82C210.021 176.568 209.631 176.232 209.343 175.812C209.067 175.392 208.929 174.918 208.929 174.39C208.929 173.742 209.097 173.232 209.433 172.86C209.769 172.476 210.315 172.2 211.071 172.032C211.827 171.864 212.841 171.78 214.113 171.78H215.013V173.076H214.131C213.387 173.076 212.793 173.112 212.349 173.184C211.905 173.256 211.587 173.382 211.395 173.562C211.215 173.73 211.125 173.97 211.125 174.282C211.125 174.678 211.263 175.002 211.539 175.254C211.815 175.506 212.199 175.632 212.691 175.632C213.087 175.632 213.435 175.542 213.735 175.362C214.047 175.17 214.293 174.912 214.473 174.588C214.653 174.264 214.743 173.892 214.743 173.472V171.402C214.743 170.802 214.611 170.37 214.347 170.106C214.083 169.842 213.639 169.71 213.015 169.71C212.667 169.71 212.289 169.752 211.881 169.836C211.485 169.92 211.065 170.064 210.621 170.268C210.393 170.376 210.189 170.406 210.009 170.358C209.841 170.31 209.709 170.214 209.613 170.07C209.517 169.914 209.469 169.746 209.469 169.566C209.469 169.386 209.517 169.212 209.613 169.044C209.709 168.864 209.871 168.732 210.099 168.648C210.651 168.42 211.179 168.258 211.683 168.162C212.199 168.066 212.667 168.018 213.087 168.018C213.951 168.018 214.659 168.15 215.211 168.414C215.775 168.678 216.195 169.08 216.471 169.62C216.747 170.148 216.885 170.832 216.885 171.672V175.992C216.885 176.364 216.795 176.652 216.615 176.856C216.435 177.048 216.177 177.144 215.841 177.144C215.505 177.144 215.241 177.048 215.049 176.856C214.869 176.652 214.779 176.364 214.779 175.992V175.128H214.923C214.839 175.548 214.671 175.914 214.419 176.226C214.179 176.526 213.873 176.76 213.501 176.928C213.129 177.096 212.703 177.18 212.223 177.18ZM220.285 177.144C219.925 177.144 219.649 177.048 219.457 176.856C219.265 176.652 219.169 176.364 219.169 175.992V169.188C219.169 168.816 219.265 168.534 219.457 168.342C219.649 168.15 219.919 168.054 220.267 168.054C220.615 168.054 220.885 168.15 221.077 168.342C221.269 168.534 221.365 168.816 221.365 169.188V170.412L221.167 169.962C221.431 169.326 221.839 168.846 222.391 168.522C222.955 168.186 223.591 168.018 224.299 168.018C225.007 168.018 225.589 168.15 226.045 168.414C226.501 168.678 226.843 169.08 227.071 169.62C227.299 170.148 227.413 170.82 227.413 171.636V175.992C227.413 176.364 227.317 176.652 227.125 176.856C226.933 177.048 226.657 177.144 226.297 177.144C225.937 177.144 225.655 177.048 225.451 176.856C225.259 176.652 225.163 176.364 225.163 175.992V171.744C225.163 171.06 225.031 170.562 224.767 170.25C224.515 169.938 224.119 169.782 223.579 169.782C222.919 169.782 222.391 169.992 221.995 170.412C221.611 170.82 221.419 171.366 221.419 172.05V175.992C221.419 176.76 221.041 177.144 220.285 177.144ZM220.357 166.542C220.177 166.53 220.039 166.47 219.943 166.362C219.847 166.254 219.823 166.086 219.871 165.858C219.919 165.606 219.991 165.36 220.087 165.12C220.195 164.868 220.333 164.64 220.501 164.436C220.669 164.232 220.873 164.07 221.113 163.95C221.353 163.818 221.635 163.752 221.959 163.752C222.259 163.752 222.523 163.812 222.751 163.932C222.979 164.052 223.189 164.19 223.381 164.346C223.573 164.502 223.765 164.64 223.957 164.76C224.149 164.88 224.359 164.94 224.587 164.94C224.839 164.94 225.055 164.856 225.235 164.688C225.427 164.508 225.547 164.286 225.595 164.022C225.619 163.89 225.679 163.788 225.775 163.716C225.883 163.644 226.033 163.614 226.225 163.626C226.405 163.638 226.543 163.698 226.639 163.806C226.735 163.914 226.759 164.082 226.711 164.31C226.651 164.634 226.537 164.958 226.369 165.282C226.201 165.606 225.973 165.876 225.685 166.092C225.409 166.308 225.055 166.416 224.623 166.416C224.323 166.416 224.059 166.356 223.831 166.236C223.603 166.116 223.387 165.978 223.183 165.822C222.991 165.666 222.799 165.528 222.607 165.408C222.415 165.288 222.211 165.228 221.995 165.228C221.743 165.228 221.527 165.312 221.347 165.48C221.167 165.648 221.047 165.87 220.987 166.146C220.963 166.278 220.897 166.38 220.789 166.452C220.693 166.524 220.549 166.554 220.357 166.542ZM232.596 177.18C231.96 177.18 231.39 177.06 230.886 176.82C230.394 176.568 230.004 176.232 229.716 175.812C229.44 175.392 229.302 174.918 229.302 174.39C229.302 173.742 229.47 173.232 229.806 172.86C230.142 172.476 230.688 172.2 231.444 172.032C232.2 171.864 233.214 171.78 234.486 171.78H235.386V173.076H234.504C233.76 173.076 233.166 173.112 232.722 173.184C232.278 173.256 231.96 173.382 231.768 173.562C231.588 173.73 231.498 173.97 231.498 174.282C231.498 174.678 231.636 175.002 231.912 175.254C232.188 175.506 232.572 175.632 233.064 175.632C233.46 175.632 233.808 175.542 234.108 175.362C234.42 175.17 234.666 174.912 234.846 174.588C235.026 174.264 235.116 173.892 235.116 173.472V171.402C235.116 170.802 234.984 170.37 234.72 170.106C234.456 169.842 234.012 169.71 233.388 169.71C233.04 169.71 232.662 169.752 232.254 169.836C231.858 169.92 231.438 170.064 230.994 170.268C230.766 170.376 230.562 170.406 230.382 170.358C230.214 170.31 230.082 170.214 229.986 170.07C229.89 169.914 229.842 169.746 229.842 169.566C229.842 169.386 229.89 169.212 229.986 169.044C230.082 168.864 230.244 168.732 230.472 168.648C231.024 168.42 231.552 168.258 232.056 168.162C232.572 168.066 233.04 168.018 233.46 168.018C234.324 168.018 235.032 168.15 235.584 168.414C236.148 168.678 236.568 169.08 236.844 169.62C237.12 170.148 237.258 170.832 237.258 171.672V175.992C237.258 176.364 237.168 176.652 236.988 176.856C236.808 177.048 236.55 177.144 236.214 177.144C235.878 177.144 235.614 177.048 235.422 176.856C235.242 176.652 235.152 176.364 235.152 175.992V175.128H235.296C235.212 175.548 235.044 175.914 234.792 176.226C234.552 176.526 234.246 176.76 233.874 176.928C233.502 177.096 233.076 177.18 232.596 177.18ZM247.327 177.18C246.691 177.18 246.121 177.06 245.617 176.82C245.125 176.568 244.735 176.232 244.447 175.812C244.171 175.392 244.033 174.918 244.033 174.39C244.033 173.742 244.201 173.232 244.537 172.86C244.873 172.476 245.419 172.2 246.175 172.032C246.931 171.864 247.945 171.78 249.217 171.78H250.117V173.076H249.235C248.491 173.076 247.897 173.112 247.453 173.184C247.009 173.256 246.691 173.382 246.499 173.562C246.319 173.73 246.229 173.97 246.229 174.282C246.229 174.678 246.367 175.002 246.643 175.254C246.919 175.506 247.303 175.632 247.795 175.632C248.191 175.632 248.539 175.542 248.839 175.362C249.151 175.17 249.397 174.912 249.577 174.588C249.757 174.264 249.847 173.892 249.847 173.472V171.402C249.847 170.802 249.715 170.37 249.451 170.106C249.187 169.842 248.743 169.71 248.119 169.71C247.771 169.71 247.393 169.752 246.985 169.836C246.589 169.92 246.169 170.064 245.725 170.268C245.497 170.376 245.293 170.406 245.113 170.358C244.945 170.31 244.813 170.214 244.717 170.07C244.621 169.914 244.573 169.746 244.573 169.566C244.573 169.386 244.621 169.212 244.717 169.044C244.813 168.864 244.975 168.732 245.203 168.648C245.755 168.42 246.283 168.258 246.787 168.162C247.303 168.066 247.771 168.018 248.191 168.018C249.055 168.018 249.763 168.15 250.315 168.414C250.879 168.678 251.299 169.08 251.575 169.62C251.851 170.148 251.989 170.832 251.989 171.672V175.992C251.989 176.364 251.899 176.652 251.719 176.856C251.539 177.048 251.281 177.144 250.945 177.144C250.609 177.144 250.345 177.048 250.153 176.856C249.973 176.652 249.883 176.364 249.883 175.992V175.128H250.027C249.943 175.548 249.775 175.914 249.523 176.226C249.283 176.526 248.977 176.76 248.605 176.928C248.233 177.096 247.807 177.18 247.327 177.18ZM258.341 177.18C257.417 177.18 256.613 176.994 255.929 176.622C255.245 176.238 254.717 175.698 254.345 175.002C253.973 174.306 253.787 173.49 253.787 172.554C253.787 171.846 253.889 171.216 254.093 170.664C254.309 170.1 254.615 169.626 255.011 169.242C255.407 168.846 255.887 168.546 256.451 168.342C257.015 168.126 257.645 168.018 258.341 168.018C258.737 168.018 259.163 168.072 259.619 168.18C260.087 168.288 260.525 168.468 260.933 168.72C261.125 168.84 261.251 168.984 261.311 169.152C261.371 169.32 261.383 169.494 261.347 169.674C261.311 169.842 261.233 169.992 261.113 170.124C261.005 170.244 260.867 170.322 260.699 170.358C260.531 170.382 260.345 170.34 260.141 170.232C259.877 170.076 259.607 169.962 259.331 169.89C259.055 169.806 258.791 169.764 258.539 169.764C258.143 169.764 257.795 169.83 257.495 169.962C257.195 170.082 256.937 170.262 256.721 170.502C256.517 170.73 256.361 171.018 256.253 171.366C256.145 171.714 256.091 172.116 256.091 172.572C256.091 173.46 256.301 174.162 256.721 174.678C257.153 175.182 257.759 175.434 258.539 175.434C258.791 175.434 259.049 175.398 259.313 175.326C259.589 175.254 259.865 175.14 260.141 174.984C260.345 174.876 260.525 174.84 260.681 174.876C260.849 174.912 260.987 174.996 261.095 175.128C261.203 175.248 261.269 175.398 261.293 175.578C261.317 175.746 261.293 175.914 261.221 176.082C261.161 176.25 261.041 176.388 260.861 176.496C260.465 176.736 260.045 176.91 259.601 177.018C259.157 177.126 258.737 177.18 258.341 177.18ZM266.83 177.18C266.05 177.18 265.396 177.048 264.868 176.784C264.352 176.52 263.968 176.136 263.716 175.632C263.464 175.116 263.338 174.48 263.338 173.724V169.89H262.402C262.114 169.89 261.892 169.818 261.736 169.674C261.58 169.518 261.502 169.308 261.502 169.044C261.502 168.768 261.58 168.558 261.736 168.414C261.892 168.27 262.114 168.198 262.402 168.198H263.338V166.56C263.338 166.188 263.434 165.906 263.626 165.714C263.83 165.522 264.112 165.426 264.472 165.426C264.832 165.426 265.108 165.522 265.3 165.714C265.492 165.906 265.588 166.188 265.588 166.56V168.198H267.496C267.784 168.198 268.006 168.27 268.162 168.414C268.318 168.558 268.396 168.768 268.396 169.044C268.396 169.308 268.318 169.518 268.162 169.674C268.006 169.818 267.784 169.89 267.496 169.89H265.588V173.598C265.588 174.174 265.714 174.606 265.966 174.894C266.218 175.182 266.626 175.326 267.19 175.326C267.394 175.326 267.574 175.308 267.73 175.272C267.886 175.236 268.024 175.212 268.144 175.2C268.288 175.188 268.408 175.236 268.504 175.344C268.6 175.44 268.648 175.644 268.648 175.956C268.648 176.196 268.606 176.412 268.522 176.604C268.45 176.784 268.312 176.91 268.108 176.982C267.952 177.03 267.748 177.072 267.496 177.108C267.244 177.156 267.022 177.18 266.83 177.18ZM271.051 177.126C270.691 177.126 270.415 177.018 270.223 176.802C270.031 176.586 269.935 176.286 269.935 175.902V169.296C269.935 168.9 270.031 168.6 270.223 168.396C270.415 168.18 270.691 168.072 271.051 168.072C271.411 168.072 271.687 168.18 271.879 168.396C272.083 168.6 272.185 168.9 272.185 169.296V175.902C272.185 176.286 272.089 176.586 271.897 176.802C271.705 177.018 271.423 177.126 271.051 177.126ZM271.051 166.398C270.631 166.398 270.301 166.296 270.061 166.092C269.833 165.876 269.719 165.582 269.719 165.21C269.719 164.826 269.833 164.532 270.061 164.328C270.301 164.124 270.631 164.022 271.051 164.022C271.483 164.022 271.813 164.124 272.041 164.328C272.269 164.532 272.383 164.826 272.383 165.21C272.383 165.582 272.269 165.876 272.041 166.092C271.813 166.296 271.483 166.398 271.051 166.398ZM278.087 177.144C277.787 177.144 277.523 177.066 277.295 176.91C277.079 176.754 276.899 176.514 276.755 176.19L273.893 169.548C273.785 169.284 273.743 169.038 273.767 168.81C273.803 168.582 273.911 168.402 274.091 168.27C274.283 168.126 274.541 168.054 274.865 168.054C275.141 168.054 275.363 168.12 275.531 168.252C275.699 168.372 275.849 168.606 275.981 168.954L278.411 175.02H277.871L280.373 168.936C280.505 168.6 280.655 168.372 280.823 168.252C281.003 168.12 281.243 168.054 281.543 168.054C281.807 168.054 282.017 168.126 282.173 168.27C282.329 168.402 282.425 168.582 282.461 168.81C282.497 169.026 282.455 169.266 282.335 169.53L279.419 176.19C279.287 176.514 279.107 176.754 278.879 176.91C278.663 177.066 278.399 177.144 278.087 177.144ZM286.737 177.18C286.101 177.18 285.531 177.06 285.027 176.82C284.535 176.568 284.145 176.232 283.857 175.812C283.581 175.392 283.443 174.918 283.443 174.39C283.443 173.742 283.611 173.232 283.947 172.86C284.283 172.476 284.829 172.2 285.585 172.032C286.341 171.864 287.355 171.78 288.627 171.78H289.527V173.076H288.645C287.901 173.076 287.307 173.112 286.863 173.184C286.419 173.256 286.101 173.382 285.909 173.562C285.729 173.73 285.639 173.97 285.639 174.282C285.639 174.678 285.777 175.002 286.053 175.254C286.329 175.506 286.713 175.632 287.205 175.632C287.601 175.632 287.949 175.542 288.249 175.362C288.561 175.17 288.807 174.912 288.987 174.588C289.167 174.264 289.257 173.892 289.257 173.472V171.402C289.257 170.802 289.125 170.37 288.861 170.106C288.597 169.842 288.153 169.71 287.529 169.71C287.181 169.71 286.803 169.752 286.395 169.836C285.999 169.92 285.579 170.064 285.135 170.268C284.907 170.376 284.703 170.406 284.523 170.358C284.355 170.31 284.223 170.214 284.127 170.07C284.031 169.914 283.983 169.746 283.983 169.566C283.983 169.386 284.031 169.212 284.127 169.044C284.223 168.864 284.385 168.732 284.613 168.648C285.165 168.42 285.693 168.258 286.197 168.162C286.713 168.066 287.181 168.018 287.601 168.018C288.465 168.018 289.173 168.15 289.725 168.414C290.289 168.678 290.709 169.08 290.985 169.62C291.261 170.148 291.399 170.832 291.399 171.672V175.992C291.399 176.364 291.309 176.652 291.129 176.856C290.949 177.048 290.691 177.144 290.355 177.144C290.019 177.144 289.755 177.048 289.563 176.856C289.383 176.652 289.293 176.364 289.293 175.992V175.128H289.437C289.353 175.548 289.185 175.914 288.933 176.226C288.693 176.526 288.387 176.76 288.015 176.928C287.643 177.096 287.217 177.18 286.737 177.18Z" fill="#38485C"/>
<path d="M357 155C357 150.582 360.582 147 365 147H599C603.418 147 607 150.582 607 155V195H357V155Z" fill="#E6EBF0"/>
<path d="M385.524 177.126C385.284 177.126 385.098 177.06 384.966 176.928C384.846 176.784 384.786 176.592 384.786 176.352V165.066C384.786 164.814 384.852 164.628 384.984 164.508C385.116 164.376 385.302 164.31 385.542 164.31H389.808C391.164 164.31 392.208 164.646 392.94 165.318C393.672 165.978 394.038 166.914 394.038 168.126C394.038 169.326 393.672 170.262 392.94 170.934C392.208 171.606 391.164 171.942 389.808 171.942H386.262V176.352C386.262 176.592 386.202 176.784 386.082 176.928C385.962 177.06 385.776 177.126 385.524 177.126ZM386.262 170.7H389.628C390.6 170.7 391.332 170.484 391.824 170.052C392.328 169.608 392.58 168.966 392.58 168.126C392.58 167.274 392.328 166.632 391.824 166.2C391.332 165.756 390.6 165.534 389.628 165.534H386.262V170.7ZM399.534 177.162C398.61 177.162 397.812 176.982 397.14 176.622C396.48 176.25 395.964 175.728 395.592 175.056C395.232 174.384 395.052 173.58 395.052 172.644C395.052 171.732 395.232 170.94 395.592 170.268C395.952 169.584 396.444 169.05 397.068 168.666C397.704 168.282 398.436 168.09 399.264 168.09C399.852 168.09 400.38 168.192 400.848 168.396C401.316 168.588 401.712 168.87 402.036 169.242C402.372 169.614 402.624 170.064 402.792 170.592C402.972 171.12 403.062 171.714 403.062 172.374C403.062 172.566 403.008 172.71 402.9 172.806C402.792 172.89 402.636 172.932 402.432 172.932H396.168V171.978H402.09L401.802 172.212C401.802 171.564 401.706 171.018 401.514 170.574C401.322 170.118 401.04 169.77 400.668 169.53C400.308 169.29 399.852 169.17 399.3 169.17C398.688 169.17 398.166 169.314 397.734 169.602C397.314 169.878 396.996 170.268 396.78 170.772C396.564 171.264 396.456 171.84 396.456 172.5V172.608C396.456 173.712 396.72 174.552 397.248 175.128C397.788 175.704 398.55 175.992 399.534 175.992C399.942 175.992 400.344 175.938 400.74 175.83C401.148 175.722 401.544 175.542 401.928 175.29C402.096 175.182 402.246 175.134 402.378 175.146C402.522 175.146 402.636 175.188 402.72 175.272C402.804 175.344 402.858 175.44 402.882 175.56C402.918 175.668 402.906 175.788 402.846 175.92C402.798 176.052 402.696 176.166 402.54 176.262C402.144 176.55 401.676 176.772 401.136 176.928C400.596 177.084 400.062 177.162 399.534 177.162ZM408.124 177.162C407.584 177.162 407.038 177.096 406.486 176.964C405.946 176.832 405.442 176.604 404.974 176.28C404.854 176.196 404.77 176.1 404.722 175.992C404.674 175.872 404.656 175.758 404.668 175.65C404.692 175.53 404.74 175.428 404.812 175.344C404.896 175.26 404.992 175.212 405.1 175.2C405.22 175.176 405.352 175.2 405.496 175.272C405.964 175.56 406.414 175.764 406.846 175.884C407.29 175.992 407.728 176.046 408.16 176.046C408.844 176.046 409.36 175.92 409.708 175.668C410.056 175.416 410.23 175.074 410.23 174.642C410.23 174.306 410.116 174.042 409.888 173.85C409.66 173.646 409.3 173.49 408.808 173.382L407.17 173.022C406.414 172.866 405.85 172.596 405.478 172.212C405.118 171.828 404.938 171.33 404.938 170.718C404.938 170.178 405.076 169.716 405.352 169.332C405.64 168.936 406.042 168.63 406.558 168.414C407.074 168.198 407.674 168.09 408.358 168.09C408.886 168.09 409.384 168.162 409.852 168.306C410.332 168.438 410.764 168.654 411.148 168.954C411.268 169.038 411.346 169.14 411.382 169.26C411.43 169.368 411.436 169.482 411.4 169.602C411.376 169.71 411.322 169.806 411.238 169.89C411.154 169.962 411.052 170.004 410.932 170.016C410.812 170.028 410.686 169.992 410.554 169.908C410.194 169.668 409.828 169.494 409.456 169.386C409.084 169.266 408.718 169.206 408.358 169.206C407.686 169.206 407.176 169.338 406.828 169.602C406.48 169.866 406.306 170.214 406.306 170.646C406.306 170.982 406.414 171.258 406.63 171.474C406.846 171.69 407.182 171.846 407.638 171.942L409.276 172.284C410.056 172.452 410.638 172.722 411.022 173.094C411.418 173.454 411.616 173.946 411.616 174.57C411.616 175.362 411.298 175.992 410.662 176.46C410.026 176.928 409.18 177.162 408.124 177.162ZM417.26 177.162C416.576 177.162 416 177.042 415.532 176.802C415.076 176.55 414.734 176.19 414.506 175.722C414.278 175.242 414.164 174.66 414.164 173.976V169.386H412.958C412.754 169.386 412.598 169.338 412.49 169.242C412.382 169.134 412.328 168.99 412.328 168.81C412.328 168.63 412.382 168.492 412.49 168.396C412.598 168.3 412.754 168.252 412.958 168.252H414.164V166.182C414.164 165.942 414.23 165.762 414.362 165.642C414.494 165.51 414.674 165.444 414.902 165.444C415.13 165.444 415.304 165.51 415.424 165.642C415.556 165.762 415.622 165.942 415.622 166.182V168.252H417.89C418.094 168.252 418.25 168.3 418.358 168.396C418.466 168.492 418.52 168.63 418.52 168.81C418.52 168.99 418.466 169.134 418.358 169.242C418.25 169.338 418.094 169.386 417.89 169.386H415.622V173.832C415.622 174.516 415.766 175.038 416.054 175.398C416.342 175.746 416.81 175.92 417.458 175.92C417.686 175.92 417.878 175.896 418.034 175.848C418.202 175.8 418.34 175.776 418.448 175.776C418.556 175.764 418.646 175.8 418.718 175.884C418.79 175.968 418.826 176.112 418.826 176.316C418.826 176.46 418.796 176.592 418.736 176.712C418.688 176.832 418.598 176.916 418.466 176.964C418.322 177.012 418.13 177.054 417.89 177.09C417.662 177.138 417.452 177.162 417.26 177.162ZM422.797 177.162C422.197 177.162 421.657 177.048 421.177 176.82C420.709 176.58 420.337 176.256 420.061 175.848C419.785 175.44 419.647 174.984 419.647 174.48C419.647 173.832 419.809 173.322 420.133 172.95C420.469 172.578 421.015 172.314 421.771 172.158C422.539 172.002 423.583 171.924 424.903 171.924H425.713V172.878H424.921C423.949 172.878 423.181 172.926 422.617 173.022C422.065 173.106 421.675 173.256 421.447 173.472C421.231 173.688 421.123 173.994 421.123 174.39C421.123 174.882 421.291 175.284 421.627 175.596C421.975 175.908 422.443 176.064 423.031 176.064C423.511 176.064 423.931 175.95 424.291 175.722C424.663 175.494 424.951 175.182 425.155 174.786C425.371 174.39 425.479 173.934 425.479 173.418V171.366C425.479 170.622 425.329 170.088 425.029 169.764C424.729 169.428 424.237 169.26 423.553 169.26C423.133 169.26 422.713 169.314 422.293 169.422C421.873 169.53 421.429 169.704 420.961 169.944C420.793 170.028 420.649 170.058 420.529 170.034C420.409 169.998 420.313 169.932 420.241 169.836C420.169 169.74 420.127 169.632 420.115 169.512C420.103 169.38 420.127 169.254 420.187 169.134C420.259 169.014 420.367 168.918 420.511 168.846C421.039 168.582 421.561 168.39 422.077 168.27C422.593 168.15 423.085 168.09 423.553 168.09C424.309 168.09 424.933 168.216 425.425 168.468C425.917 168.708 426.283 169.08 426.523 169.584C426.763 170.076 426.883 170.712 426.883 171.492V176.37C426.883 176.61 426.823 176.796 426.703 176.928C426.595 177.06 426.433 177.126 426.217 177.126C425.989 177.126 425.815 177.06 425.695 176.928C425.575 176.796 425.515 176.61 425.515 176.37V174.966H425.677C425.581 175.422 425.395 175.812 425.119 176.136C424.855 176.46 424.525 176.712 424.129 176.892C423.733 177.072 423.289 177.162 422.797 177.162ZM430.308 177.126C430.068 177.126 429.888 177.06 429.768 176.928C429.648 176.796 429.588 176.61 429.588 176.37V168.864C429.588 168.624 429.648 168.444 429.768 168.324C429.888 168.192 430.062 168.126 430.29 168.126C430.518 168.126 430.692 168.192 430.812 168.324C430.944 168.444 431.01 168.624 431.01 168.864V170.412L430.812 170.196C431.064 169.5 431.472 168.978 432.036 168.63C432.612 168.27 433.272 168.09 434.016 168.09C434.712 168.09 435.288 168.216 435.744 168.468C436.212 168.72 436.56 169.104 436.788 169.62C437.016 170.124 437.13 170.766 437.13 171.546V176.37C437.13 176.61 437.064 176.796 436.932 176.928C436.812 177.06 436.638 177.126 436.41 177.126C436.17 177.126 435.984 177.06 435.852 176.928C435.732 176.796 435.672 176.61 435.672 176.37V171.636C435.672 170.82 435.51 170.226 435.186 169.854C434.874 169.47 434.37 169.278 433.674 169.278C432.87 169.278 432.228 169.53 431.748 170.034C431.28 170.526 431.046 171.186 431.046 172.014V176.37C431.046 176.874 430.8 177.126 430.308 177.126ZM430.524 166.434C430.404 166.434 430.302 166.392 430.218 166.308C430.146 166.224 430.128 166.098 430.164 165.93C430.212 165.642 430.284 165.378 430.38 165.138C430.476 164.898 430.602 164.688 430.758 164.508C430.914 164.328 431.094 164.19 431.298 164.094C431.514 163.986 431.76 163.932 432.036 163.932C432.336 163.932 432.594 164.004 432.81 164.148C433.038 164.28 433.248 164.436 433.44 164.616C433.644 164.784 433.842 164.94 434.034 165.084C434.226 165.228 434.43 165.3 434.646 165.3C434.922 165.3 435.15 165.198 435.33 164.994C435.522 164.778 435.648 164.496 435.708 164.148C435.732 164.028 435.78 163.944 435.852 163.896C435.936 163.836 436.044 163.812 436.176 163.824C436.296 163.824 436.392 163.866 436.464 163.95C436.548 164.034 436.572 164.16 436.536 164.328C436.476 164.7 436.362 165.036 436.194 165.336C436.038 165.636 435.834 165.876 435.582 166.056C435.33 166.236 435.024 166.326 434.664 166.326C434.364 166.326 434.1 166.26 433.872 166.128C433.656 165.984 433.446 165.822 433.242 165.642C433.05 165.462 432.858 165.306 432.666 165.174C432.474 165.03 432.27 164.958 432.054 164.958C431.778 164.958 431.55 165.06 431.37 165.264C431.19 165.468 431.064 165.75 430.992 166.11C430.968 166.218 430.914 166.302 430.83 166.362C430.758 166.422 430.656 166.446 430.524 166.434ZM442.572 177.162C441.972 177.162 441.432 177.048 440.952 176.82C440.484 176.58 440.112 176.256 439.836 175.848C439.56 175.44 439.422 174.984 439.422 174.48C439.422 173.832 439.584 173.322 439.908 172.95C440.244 172.578 440.79 172.314 441.546 172.158C442.314 172.002 443.358 171.924 444.678 171.924H445.488V172.878H444.696C443.724 172.878 442.956 172.926 442.392 173.022C441.84 173.106 441.45 173.256 441.222 173.472C441.006 173.688 440.898 173.994 440.898 174.39C440.898 174.882 441.066 175.284 441.402 175.596C441.75 175.908 442.218 176.064 442.806 176.064C443.286 176.064 443.706 175.95 444.066 175.722C444.438 175.494 444.726 175.182 444.93 174.786C445.146 174.39 445.254 173.934 445.254 173.418V171.366C445.254 170.622 445.104 170.088 444.804 169.764C444.504 169.428 444.012 169.26 443.328 169.26C442.908 169.26 442.488 169.314 442.068 169.422C441.648 169.53 441.204 169.704 440.736 169.944C440.568 170.028 440.424 170.058 440.304 170.034C440.184 169.998 440.088 169.932 440.016 169.836C439.944 169.74 439.902 169.632 439.89 169.512C439.878 169.38 439.902 169.254 439.962 169.134C440.034 169.014 440.142 168.918 440.286 168.846C440.814 168.582 441.336 168.39 441.852 168.27C442.368 168.15 442.86 168.09 443.328 168.09C444.084 168.09 444.708 168.216 445.2 168.468C445.692 168.708 446.058 169.08 446.298 169.584C446.538 170.076 446.658 170.712 446.658 171.492V176.37C446.658 176.61 446.598 176.796 446.478 176.928C446.37 177.06 446.208 177.126 445.992 177.126C445.764 177.126 445.59 177.06 445.47 176.928C445.35 176.796 445.29 176.61 445.29 176.37V174.966H445.452C445.356 175.422 445.17 175.812 444.894 176.136C444.63 176.46 444.3 176.712 443.904 176.892C443.508 177.072 443.064 177.162 442.572 177.162ZM454.724 180.366C454.484 180.366 454.304 180.3 454.184 180.168C454.064 180.048 454.004 179.868 454.004 179.628V168.864C454.004 168.624 454.064 168.444 454.184 168.324C454.304 168.192 454.478 168.126 454.706 168.126C454.946 168.126 455.126 168.192 455.246 168.324C455.378 168.444 455.444 168.624 455.444 168.864V170.574L455.246 170.322C455.438 169.638 455.816 169.098 456.38 168.702C456.956 168.294 457.64 168.09 458.432 168.09C459.212 168.09 459.89 168.276 460.466 168.648C461.054 169.008 461.504 169.53 461.816 170.214C462.14 170.886 462.302 171.69 462.302 172.626C462.302 173.55 462.14 174.354 461.816 175.038C461.504 175.71 461.06 176.232 460.484 176.604C459.908 176.976 459.224 177.162 458.432 177.162C457.64 177.162 456.962 176.964 456.398 176.568C455.834 176.16 455.45 175.62 455.246 174.948H455.462V179.628C455.462 179.868 455.396 180.048 455.264 180.168C455.132 180.3 454.952 180.366 454.724 180.366ZM458.126 175.992C458.678 175.992 459.152 175.86 459.548 175.596C459.956 175.332 460.268 174.948 460.484 174.444C460.712 173.94 460.826 173.334 460.826 172.626C460.826 171.534 460.58 170.7 460.088 170.124C459.608 169.548 458.954 169.26 458.126 169.26C457.586 169.26 457.112 169.392 456.704 169.656C456.296 169.908 455.978 170.286 455.75 170.79C455.534 171.282 455.426 171.894 455.426 172.626C455.426 173.706 455.672 174.54 456.164 175.128C456.656 175.704 457.31 175.992 458.126 175.992ZM465.236 177.126C464.996 177.126 464.81 177.06 464.678 176.928C464.558 176.796 464.498 176.61 464.498 176.37V168.864C464.498 168.624 464.558 168.444 464.678 168.324C464.798 168.192 464.972 168.126 465.2 168.126C465.428 168.126 465.602 168.192 465.722 168.324C465.854 168.444 465.92 168.624 465.92 168.864V170.322H465.74C465.932 169.614 466.298 169.068 466.838 168.684C467.378 168.3 468.044 168.096 468.836 168.072C469.016 168.06 469.16 168.102 469.268 168.198C469.376 168.282 469.436 168.432 469.448 168.648C469.46 168.852 469.412 169.014 469.304 169.134C469.196 169.254 469.028 169.326 468.8 169.35L468.512 169.386C467.696 169.458 467.066 169.722 466.622 170.178C466.19 170.622 465.974 171.234 465.974 172.014V176.37C465.974 176.61 465.908 176.796 465.776 176.928C465.656 177.06 465.476 177.126 465.236 177.126ZM474.786 177.162C473.862 177.162 473.064 176.982 472.392 176.622C471.732 176.25 471.216 175.728 470.844 175.056C470.484 174.384 470.304 173.58 470.304 172.644C470.304 171.732 470.484 170.94 470.844 170.268C471.204 169.584 471.696 169.05 472.32 168.666C472.956 168.282 473.688 168.09 474.516 168.09C475.104 168.09 475.632 168.192 476.1 168.396C476.568 168.588 476.964 168.87 477.288 169.242C477.624 169.614 477.876 170.064 478.044 170.592C478.224 171.12 478.314 171.714 478.314 172.374C478.314 172.566 478.26 172.71 478.152 172.806C478.044 172.89 477.888 172.932 477.684 172.932H471.42V171.978H477.342L477.054 172.212C477.054 171.564 476.958 171.018 476.766 170.574C476.574 170.118 476.292 169.77 475.92 169.53C475.56 169.29 475.104 169.17 474.552 169.17C473.94 169.17 473.418 169.314 472.986 169.602C472.566 169.878 472.248 170.268 472.032 170.772C471.816 171.264 471.708 171.84 471.708 172.5V172.608C471.708 173.712 471.972 174.552 472.5 175.128C473.04 175.704 473.802 175.992 474.786 175.992C475.194 175.992 475.596 175.938 475.992 175.83C476.4 175.722 476.796 175.542 477.18 175.29C477.348 175.182 477.498 175.134 477.63 175.146C477.774 175.146 477.888 175.188 477.972 175.272C478.056 175.344 478.11 175.44 478.134 175.56C478.17 175.668 478.158 175.788 478.098 175.92C478.05 176.052 477.948 176.166 477.792 176.262C477.396 176.55 476.928 176.772 476.388 176.928C475.848 177.084 475.314 177.162 474.786 177.162ZM483.754 177.162C482.974 177.162 482.29 176.976 481.702 176.604C481.126 176.232 480.676 175.71 480.352 175.038C480.04 174.354 479.884 173.55 479.884 172.626C479.884 171.69 480.04 170.886 480.352 170.214C480.676 169.53 481.126 169.008 481.702 168.648C482.29 168.276 482.974 168.09 483.754 168.09C484.546 168.09 485.224 168.288 485.788 168.684C486.352 169.08 486.73 169.614 486.922 170.286H486.724V164.922C486.724 164.682 486.784 164.502 486.904 164.382C487.036 164.25 487.222 164.184 487.462 164.184C487.69 164.184 487.864 164.25 487.984 164.382C488.116 164.502 488.182 164.682 488.182 164.922V176.37C488.182 176.61 488.122 176.796 488.002 176.928C487.882 177.06 487.702 177.126 487.462 177.126C487.234 177.126 487.054 177.06 486.922 176.928C486.802 176.796 486.742 176.61 486.742 176.37V174.66L486.94 174.912C486.748 175.596 486.364 176.142 485.788 176.55C485.224 176.958 484.546 177.162 483.754 177.162ZM484.06 175.992C484.6 175.992 485.074 175.86 485.482 175.596C485.89 175.332 486.202 174.948 486.418 174.444C486.646 173.94 486.76 173.334 486.76 172.626C486.76 171.534 486.514 170.7 486.022 170.124C485.542 169.548 484.888 169.26 484.06 169.26C483.508 169.26 483.028 169.392 482.62 169.656C482.224 169.908 481.912 170.286 481.684 170.79C481.468 171.282 481.36 171.894 481.36 172.626C481.36 173.706 481.606 174.54 482.098 175.128C482.59 175.704 483.244 175.992 484.06 175.992ZM494.86 177.162C493.936 177.162 493.138 176.982 492.466 176.622C491.806 176.25 491.29 175.728 490.918 175.056C490.558 174.384 490.378 173.58 490.378 172.644C490.378 171.732 490.558 170.94 490.918 170.268C491.278 169.584 491.77 169.05 492.394 168.666C493.03 168.282 493.762 168.09 494.59 168.09C495.178 168.09 495.706 168.192 496.174 168.396C496.642 168.588 497.038 168.87 497.362 169.242C497.698 169.614 497.95 170.064 498.118 170.592C498.298 171.12 498.388 171.714 498.388 172.374C498.388 172.566 498.334 172.71 498.226 172.806C498.118 172.89 497.962 172.932 497.758 172.932H491.494V171.978H497.416L497.128 172.212C497.128 171.564 497.032 171.018 496.84 170.574C496.648 170.118 496.366 169.77 495.994 169.53C495.634 169.29 495.178 169.17 494.626 169.17C494.014 169.17 493.492 169.314 493.06 169.602C492.64 169.878 492.322 170.268 492.106 170.772C491.89 171.264 491.782 171.84 491.782 172.5V172.608C491.782 173.712 492.046 174.552 492.574 175.128C493.114 175.704 493.876 175.992 494.86 175.992C495.268 175.992 495.67 175.938 496.066 175.83C496.474 175.722 496.87 175.542 497.254 175.29C497.422 175.182 497.572 175.134 497.704 175.146C497.848 175.146 497.962 175.188 498.046 175.272C498.13 175.344 498.184 175.44 498.208 175.56C498.244 175.668 498.232 175.788 498.172 175.92C498.124 176.052 498.022 176.166 497.866 176.262C497.47 176.55 497.002 176.772 496.462 176.928C495.922 177.084 495.388 177.162 494.86 177.162ZM504.008 177.162C503.324 177.162 502.748 177.042 502.28 176.802C501.824 176.55 501.482 176.19 501.254 175.722C501.026 175.242 500.912 174.66 500.912 173.976V169.386H499.706C499.502 169.386 499.346 169.338 499.238 169.242C499.13 169.134 499.076 168.99 499.076 168.81C499.076 168.63 499.13 168.492 499.238 168.396C499.346 168.3 499.502 168.252 499.706 168.252H500.912V166.182C500.912 165.942 500.978 165.762 501.11 165.642C501.242 165.51 501.422 165.444 501.65 165.444C501.878 165.444 502.052 165.51 502.172 165.642C502.304 165.762 502.37 165.942 502.37 166.182V168.252H504.638C504.842 168.252 504.998 168.3 505.106 168.396C505.214 168.492 505.268 168.63 505.268 168.81C505.268 168.99 505.214 169.134 505.106 169.242C504.998 169.338 504.842 169.386 504.638 169.386H502.37V173.832C502.37 174.516 502.514 175.038 502.802 175.398C503.09 175.746 503.558 175.92 504.206 175.92C504.434 175.92 504.626 175.896 504.782 175.848C504.95 175.8 505.088 175.776 505.196 175.776C505.304 175.764 505.394 175.8 505.466 175.884C505.538 175.968 505.574 176.112 505.574 176.316C505.574 176.46 505.544 176.592 505.484 176.712C505.436 176.832 505.346 176.916 505.214 176.964C505.07 177.012 504.878 177.054 504.638 177.09C504.41 177.138 504.2 177.162 504.008 177.162ZM510.645 177.162C509.721 177.162 508.923 176.982 508.251 176.622C507.591 176.25 507.075 175.728 506.703 175.056C506.343 174.384 506.163 173.58 506.163 172.644C506.163 171.732 506.343 170.94 506.703 170.268C507.063 169.584 507.555 169.05 508.179 168.666C508.815 168.282 509.547 168.09 510.375 168.09C510.963 168.09 511.491 168.192 511.959 168.396C512.427 168.588 512.823 168.87 513.147 169.242C513.483 169.614 513.735 170.064 513.903 170.592C514.083 171.12 514.173 171.714 514.173 172.374C514.173 172.566 514.119 172.71 514.011 172.806C513.903 172.89 513.747 172.932 513.543 172.932H507.279V171.978H513.201L512.913 172.212C512.913 171.564 512.817 171.018 512.625 170.574C512.433 170.118 512.151 169.77 511.779 169.53C511.419 169.29 510.963 169.17 510.411 169.17C509.799 169.17 509.277 169.314 508.845 169.602C508.425 169.878 508.107 170.268 507.891 170.772C507.675 171.264 507.567 171.84 507.567 172.5V172.608C507.567 173.712 507.831 174.552 508.359 175.128C508.899 175.704 509.661 175.992 510.645 175.992C511.053 175.992 511.455 175.938 511.851 175.83C512.259 175.722 512.655 175.542 513.039 175.29C513.207 175.182 513.357 175.134 513.489 175.146C513.633 175.146 513.747 175.188 513.831 175.272C513.915 175.344 513.969 175.44 513.993 175.56C514.029 175.668 514.017 175.788 513.957 175.92C513.909 176.052 513.807 176.166 513.651 176.262C513.255 176.55 512.787 176.772 512.247 176.928C511.707 177.084 511.173 177.162 510.645 177.162ZM517.021 177.126C516.781 177.126 516.595 177.06 516.463 176.928C516.343 176.796 516.283 176.61 516.283 176.37V168.864C516.283 168.624 516.343 168.444 516.463 168.324C516.583 168.192 516.757 168.126 516.985 168.126C517.213 168.126 517.387 168.192 517.507 168.324C517.639 168.444 517.705 168.624 517.705 168.864V170.322H517.525C517.717 169.614 518.083 169.068 518.623 168.684C519.163 168.3 519.829 168.096 520.621 168.072C520.801 168.06 520.945 168.102 521.053 168.198C521.161 168.282 521.221 168.432 521.233 168.648C521.245 168.852 521.197 169.014 521.089 169.134C520.981 169.254 520.813 169.326 520.585 169.35L520.297 169.386C519.481 169.458 518.851 169.722 518.407 170.178C517.975 170.622 517.759 171.234 517.759 172.014V176.37C517.759 176.61 517.693 176.796 517.561 176.928C517.441 177.06 517.261 177.126 517.021 177.126ZM523.49 177.126C523.25 177.126 523.07 177.06 522.95 176.928C522.83 176.796 522.77 176.61 522.77 176.37V168.864C522.77 168.624 522.83 168.444 522.95 168.324C523.07 168.192 523.244 168.126 523.472 168.126C523.7 168.126 523.874 168.192 523.994 168.324C524.126 168.444 524.192 168.624 524.192 168.864V170.448L523.994 170.196C524.222 169.524 524.588 169.008 525.092 168.648C525.608 168.276 526.22 168.09 526.928 168.09C527.672 168.09 528.272 168.27 528.728 168.63C529.196 168.978 529.508 169.524 529.664 170.268H529.394C529.61 169.596 529.994 169.068 530.546 168.684C531.11 168.288 531.764 168.09 532.508 168.09C533.168 168.09 533.708 168.216 534.128 168.468C534.56 168.72 534.884 169.104 535.1 169.62C535.316 170.124 535.424 170.766 535.424 171.546V176.37C535.424 176.61 535.358 176.796 535.226 176.928C535.106 177.06 534.926 177.126 534.686 177.126C534.458 177.126 534.278 177.06 534.146 176.928C534.026 176.796 533.966 176.61 533.966 176.37V171.618C533.966 170.814 533.828 170.226 533.552 169.854C533.276 169.47 532.808 169.278 532.148 169.278C531.428 169.278 530.858 169.53 530.438 170.034C530.03 170.526 529.826 171.198 529.826 172.05V176.37C529.826 176.61 529.76 176.796 529.628 176.928C529.508 177.06 529.328 177.126 529.088 177.126C528.86 177.126 528.68 177.06 528.548 176.928C528.428 176.796 528.368 176.61 528.368 176.37V171.618C528.368 170.814 528.224 170.226 527.936 169.854C527.66 169.47 527.198 169.278 526.55 169.278C525.83 169.278 525.26 169.53 524.84 170.034C524.432 170.526 524.228 171.198 524.228 172.05V176.37C524.228 176.874 523.982 177.126 523.49 177.126ZM538.87 177.09C538.63 177.09 538.45 177.024 538.33 176.892C538.21 176.748 538.15 176.55 538.15 176.298V168.936C538.15 168.684 538.21 168.492 538.33 168.36C538.45 168.228 538.63 168.162 538.87 168.162C539.098 168.162 539.278 168.228 539.41 168.36C539.542 168.492 539.608 168.684 539.608 168.936V176.298C539.608 176.55 539.542 176.748 539.41 176.892C539.29 177.024 539.11 177.09 538.87 177.09ZM538.87 166.146C538.57 166.146 538.336 166.068 538.168 165.912C538 165.744 537.916 165.522 537.916 165.246C537.916 164.958 538 164.742 538.168 164.598C538.336 164.442 538.57 164.364 538.87 164.364C539.182 164.364 539.416 164.442 539.572 164.598C539.74 164.742 539.824 164.958 539.824 165.246C539.824 165.522 539.74 165.744 539.572 165.912C539.416 166.068 539.182 166.146 538.87 166.146ZM543.054 177.126C542.814 177.126 542.634 177.06 542.514 176.928C542.394 176.796 542.334 176.61 542.334 176.37V168.864C542.334 168.624 542.394 168.444 542.514 168.324C542.634 168.192 542.808 168.126 543.036 168.126C543.264 168.126 543.438 168.192 543.558 168.324C543.69 168.444 543.756 168.624 543.756 168.864V170.412L543.558 170.196C543.81 169.5 544.218 168.978 544.782 168.63C545.358 168.27 546.018 168.09 546.762 168.09C547.458 168.09 548.034 168.216 548.49 168.468C548.958 168.72 549.306 169.104 549.534 169.62C549.762 170.124 549.876 170.766 549.876 171.546V176.37C549.876 176.61 549.81 176.796 549.678 176.928C549.558 177.06 549.384 177.126 549.156 177.126C548.916 177.126 548.73 177.06 548.598 176.928C548.478 176.796 548.418 176.61 548.418 176.37V171.636C548.418 170.82 548.256 170.226 547.932 169.854C547.62 169.47 547.116 169.278 546.42 169.278C545.616 169.278 544.974 169.53 544.494 170.034C544.026 170.526 543.792 171.186 543.792 172.014V176.37C543.792 176.874 543.546 177.126 543.054 177.126ZM555.318 177.162C554.718 177.162 554.178 177.048 553.698 176.82C553.23 176.58 552.858 176.256 552.582 175.848C552.306 175.44 552.168 174.984 552.168 174.48C552.168 173.832 552.33 173.322 552.654 172.95C552.99 172.578 553.536 172.314 554.292 172.158C555.06 172.002 556.104 171.924 557.424 171.924H558.234V172.878H557.442C556.47 172.878 555.702 172.926 555.138 173.022C554.586 173.106 554.196 173.256 553.968 173.472C553.752 173.688 553.644 173.994 553.644 174.39C553.644 174.882 553.812 175.284 554.148 175.596C554.496 175.908 554.964 176.064 555.552 176.064C556.032 176.064 556.452 175.95 556.812 175.722C557.184 175.494 557.472 175.182 557.676 174.786C557.892 174.39 558 173.934 558 173.418V171.366C558 170.622 557.85 170.088 557.55 169.764C557.25 169.428 556.758 169.26 556.074 169.26C555.654 169.26 555.234 169.314 554.814 169.422C554.394 169.53 553.95 169.704 553.482 169.944C553.314 170.028 553.17 170.058 553.05 170.034C552.93 169.998 552.834 169.932 552.762 169.836C552.69 169.74 552.648 169.632 552.636 169.512C552.624 169.38 552.648 169.254 552.708 169.134C552.78 169.014 552.888 168.918 553.032 168.846C553.56 168.582 554.082 168.39 554.598 168.27C555.114 168.15 555.606 168.09 556.074 168.09C556.83 168.09 557.454 168.216 557.946 168.468C558.438 168.708 558.804 169.08 559.044 169.584C559.284 170.076 559.404 170.712 559.404 171.492V176.37C559.404 176.61 559.344 176.796 559.224 176.928C559.116 177.06 558.954 177.126 558.738 177.126C558.51 177.126 558.336 177.06 558.216 176.928C558.096 176.796 558.036 176.61 558.036 176.37V174.966H558.198C558.102 175.422 557.916 175.812 557.64 176.136C557.376 176.46 557.046 176.712 556.65 176.892C556.254 177.072 555.81 177.162 555.318 177.162ZM565.439 177.162C564.659 177.162 563.975 176.976 563.387 176.604C562.811 176.232 562.361 175.71 562.037 175.038C561.725 174.354 561.569 173.55 561.569 172.626C561.569 171.69 561.725 170.886 562.037 170.214C562.361 169.53 562.811 169.008 563.387 168.648C563.975 168.276 564.659 168.09 565.439 168.09C566.231 168.09 566.909 168.288 567.473 168.684C568.037 169.08 568.415 169.614 568.607 170.286H568.409V164.922C568.409 164.682 568.469 164.502 568.589 164.382C568.721 164.25 568.907 164.184 569.147 164.184C569.375 164.184 569.549 164.25 569.669 164.382C569.801 164.502 569.867 164.682 569.867 164.922V176.37C569.867 176.61 569.807 176.796 569.687 176.928C569.567 177.06 569.387 177.126 569.147 177.126C568.919 177.126 568.739 177.06 568.607 176.928C568.487 176.796 568.427 176.61 568.427 176.37V174.66L568.625 174.912C568.433 175.596 568.049 176.142 567.473 176.55C566.909 176.958 566.231 177.162 565.439 177.162ZM565.745 175.992C566.285 175.992 566.759 175.86 567.167 175.596C567.575 175.332 567.887 174.948 568.103 174.444C568.331 173.94 568.445 173.334 568.445 172.626C568.445 171.534 568.199 170.7 567.707 170.124C567.227 169.548 566.573 169.26 565.745 169.26C565.193 169.26 564.713 169.392 564.305 169.656C563.909 169.908 563.597 170.286 563.369 170.79C563.153 171.282 563.045 171.894 563.045 172.626C563.045 173.706 563.291 174.54 563.783 175.128C564.275 175.704 564.929 175.992 565.745 175.992ZM575.357 177.162C574.757 177.162 574.217 177.048 573.737 176.82C573.269 176.58 572.897 176.256 572.621 175.848C572.345 175.44 572.207 174.984 572.207 174.48C572.207 173.832 572.369 173.322 572.693 172.95C573.029 172.578 573.575 172.314 574.331 172.158C575.099 172.002 576.143 171.924 577.463 171.924H578.273V172.878H577.481C576.509 172.878 575.741 172.926 575.177 173.022C574.625 173.106 574.235 173.256 574.007 173.472C573.791 173.688 573.683 173.994 573.683 174.39C573.683 174.882 573.851 175.284 574.187 175.596C574.535 175.908 575.003 176.064 575.591 176.064C576.071 176.064 576.491 175.95 576.851 175.722C577.223 175.494 577.511 175.182 577.715 174.786C577.931 174.39 578.039 173.934 578.039 173.418V171.366C578.039 170.622 577.889 170.088 577.589 169.764C577.289 169.428 576.797 169.26 576.113 169.26C575.693 169.26 575.273 169.314 574.853 169.422C574.433 169.53 573.989 169.704 573.521 169.944C573.353 170.028 573.209 170.058 573.089 170.034C572.969 169.998 572.873 169.932 572.801 169.836C572.729 169.74 572.687 169.632 572.675 169.512C572.663 169.38 572.687 169.254 572.747 169.134C572.819 169.014 572.927 168.918 573.071 168.846C573.599 168.582 574.121 168.39 574.637 168.27C575.153 168.15 575.645 168.09 576.113 168.09C576.869 168.09 577.493 168.216 577.985 168.468C578.477 168.708 578.843 169.08 579.083 169.584C579.323 170.076 579.443 170.712 579.443 171.492V176.37C579.443 176.61 579.383 176.796 579.263 176.928C579.155 177.06 578.993 177.126 578.777 177.126C578.549 177.126 578.375 177.06 578.255 176.928C578.135 176.796 578.075 176.61 578.075 176.37V174.966H578.237C578.141 175.422 577.955 175.812 577.679 176.136C577.415 176.46 577.085 176.712 576.689 176.892C576.293 177.072 575.849 177.162 575.357 177.162Z" fill="#38485C"/>
<defs>
<clipPath id="clip0_2616_2287">
<rect width="250" height="48" fill="white" transform="translate(106 75)"/>
</clipPath>
</defs>
</svg>
