<svg xmlns="http://www.w3.org/2000/svg" width="712" height="480" viewBox="0 0 712 480">
  <g id="Group_32461" data-name="Group 32461" transform="translate(4648 18478)">
    <rect id="Rectangle_26397" data-name="Rectangle 26397" width="712" height="480" rx="8" transform="translate(-4648 -18478)" fill="#fff"/>
    <path id="Rectangle_26397_-_Outline" data-name="Rectangle 26397 - Outline" d="M8,2A6.007,6.007,0,0,0,2,8V472a6.007,6.007,0,0,0,6,6H704a6.007,6.007,0,0,0,6-6V8a6.007,6.007,0,0,0-6-6H8M8,0H704a8,8,0,0,1,8,8V472a8,8,0,0,1-8,8H8a8,8,0,0,1-8-8V8A8,8,0,0,1,8,0Z" transform="translate(-4648 -18478)" fill="#38485c"/>
    <g id="Navegación_-_Vertical_-_A1" data-name="Navegación - Vertical - A1" transform="translate(-4462 -18118)">
      <rect id="Rectangle_24357" data-name="Rectangle 24357" width="158.558" height="36.924" rx="8" transform="translate(0.522 5.202)" fill="#fff" opacity="0"/>
      <path id="_Text_Body_1_Selected_On_Surface_Medium_Emphasis_Left_" data-name="✱ / Text / Body 1 / Selected / On Surface / Medium Emphasis / Left " d="M12.492,17.154a.675.675,0,0,1,.072.306.572.572,0,0,1-.207.45.729.729,0,0,1-.5.18.637.637,0,0,1-.63-.432L9.954,14.742H3.168l-1.3,2.916a.637.637,0,0,1-.63.432.742.742,0,0,1-.5-.189.588.588,0,0,1-.216-.459.639.639,0,0,1,.072-.288L5.742,5.706a.776.776,0,0,1,.324-.378A.913.913,0,0,1,6.534,5.2a.9.9,0,0,1,.486.135.841.841,0,0,1,.324.369ZM9.414,13.518,6.552,7.056,3.708,13.518Zm9.432-4.5q3.15,0,3.15,3.474V17.37a.657.657,0,0,1-.72.72.75.75,0,0,1-.54-.189.7.7,0,0,1-.2-.531V12.582a2.717,2.717,0,0,0-.477-1.782,1.9,1.9,0,0,0-1.521-.558,2.568,2.568,0,0,0-1.926.738,2.738,2.738,0,0,0-.72,2V17.37a.657.657,0,0,1-.72.72.75.75,0,0,1-.54-.189.7.7,0,0,1-.2-.531v-7.6a.706.706,0,0,1,.2-.522.73.73,0,0,1,.54-.2.676.676,0,0,1,.513.2.7.7,0,0,1,.189.5v.918a2.952,2.952,0,0,1,1.206-1.233A3.618,3.618,0,0,1,18.846,9.018ZM25.4,18.09a.757.757,0,0,1-.531-.189.683.683,0,0,1-.207-.531v-7.6a.683.683,0,0,1,.207-.531.757.757,0,0,1,.531-.189.725.725,0,0,1,.522.189.7.7,0,0,1,.2.531v7.6a.694.694,0,0,1-.2.54A.746.746,0,0,1,25.4,18.09Zm0-10.926a.988.988,0,0,1-.7-.252.868.868,0,0,1-.27-.666A.847.847,0,0,1,24.7,5.6a1.1,1.1,0,0,1,1.4,0,.847.847,0,0,1,.27.648.868.868,0,0,1-.27.666A.988.988,0,0,1,25.4,7.164ZM35.874,5.22a.73.73,0,0,1,.54.2.683.683,0,0,1,.2.5V17.37a.706.706,0,0,1-.2.522.73.73,0,0,1-.54.2.7.7,0,0,1-.531-.2.725.725,0,0,1-.189-.522V16.4a2.893,2.893,0,0,1-1.161,1.278,3.467,3.467,0,0,1-1.791.45,3.636,3.636,0,0,1-2.034-.576A3.8,3.8,0,0,1,28.8,15.939a5.6,5.6,0,0,1-.486-2.4A5.492,5.492,0,0,1,28.8,11.16a3.609,3.609,0,0,1,3.4-2.142,3.467,3.467,0,0,1,1.791.45,2.893,2.893,0,0,1,1.161,1.278V5.922a.693.693,0,0,1,.189-.513A.718.718,0,0,1,35.874,5.22ZM32.49,16.92a2.371,2.371,0,0,0,1.971-.873,3.9,3.9,0,0,0,.693-2.475,3.856,3.856,0,0,0-.693-2.466,2.381,2.381,0,0,0-1.971-.864,2.433,2.433,0,0,0-1.989.864,3.724,3.724,0,0,0-.711,2.43,3.9,3.9,0,0,0,.711,2.493A2.4,2.4,0,0,0,32.49,16.92Zm10.4-7.9q3.294,0,3.294,3.456v4.9a.725.725,0,0,1-.189.522.676.676,0,0,1-.513.2.68.68,0,0,1-.72-.72v-.864a2.575,2.575,0,0,1-1.044,1.2,3.077,3.077,0,0,1-1.62.423,3.545,3.545,0,0,1-1.557-.342,2.782,2.782,0,0,1-1.125-.954,2.358,2.358,0,0,1-.414-1.35,2.192,2.192,0,0,1,.5-1.539,3.058,3.058,0,0,1,1.656-.792,16.362,16.362,0,0,1,3.2-.243h.4v-.594a2.367,2.367,0,0,0-.441-1.584,1.811,1.811,0,0,0-1.431-.5,5.287,5.287,0,0,0-2.484.666,1.643,1.643,0,0,1-.684.306.462.462,0,0,1-.36-.162.6.6,0,0,1-.144-.414.68.68,0,0,1,.153-.441,1.793,1.793,0,0,1,.5-.387A5.791,5.791,0,0,1,41.3,9.225,6.346,6.346,0,0,1,42.894,9.018ZM42.3,16.974a2.339,2.339,0,0,0,1.773-.729,2.618,2.618,0,0,0,.693-1.881v-.522h-.324a16.111,16.111,0,0,0-2.412.135,2.344,2.344,0,0,0-1.179.45,1.181,1.181,0,0,0-.351.927,1.49,1.49,0,0,0,.513,1.161A1.858,1.858,0,0,0,42.3,16.974ZM55.89,5.22a.73.73,0,0,1,.54.2.683.683,0,0,1,.2.5V17.37a.706.706,0,0,1-.2.522.73.73,0,0,1-.54.2.7.7,0,0,1-.531-.2.725.725,0,0,1-.189-.522V16.4a2.893,2.893,0,0,1-1.161,1.278,3.467,3.467,0,0,1-1.791.45,3.636,3.636,0,0,1-2.034-.576,3.8,3.8,0,0,1-1.368-1.611,5.6,5.6,0,0,1-.486-2.4,5.492,5.492,0,0,1,.486-2.376,3.609,3.609,0,0,1,3.4-2.142,3.467,3.467,0,0,1,1.791.45,2.893,2.893,0,0,1,1.161,1.278V5.922a.693.693,0,0,1,.189-.513A.718.718,0,0,1,55.89,5.22Zm-3.384,11.7a2.371,2.371,0,0,0,1.971-.873,3.9,3.9,0,0,0,.693-2.475,3.856,3.856,0,0,0-.693-2.466,2.381,2.381,0,0,0-1.971-.864,2.433,2.433,0,0,0-1.989.864,3.724,3.724,0,0,0-.711,2.43,3.9,3.9,0,0,0,.711,2.493A2.4,2.4,0,0,0,52.506,16.92Zm10.458,1.206a4.22,4.22,0,0,1-2.187-.558,3.719,3.719,0,0,1-1.458-1.593,5.346,5.346,0,0,1-.513-2.4,5.346,5.346,0,0,1,.513-2.4,3.719,3.719,0,0,1,1.458-1.593,4.22,4.22,0,0,1,2.187-.558,4.269,4.269,0,0,1,2.2.558,3.7,3.7,0,0,1,1.467,1.593,5.346,5.346,0,0,1,.513,2.4,5.346,5.346,0,0,1-.513,2.4,3.7,3.7,0,0,1-1.467,1.593A4.269,4.269,0,0,1,62.964,18.126Zm0-1.206a2.412,2.412,0,0,0,1.989-.855,3.882,3.882,0,0,0,.693-2.493,3.859,3.859,0,0,0-.7-2.475,2.682,2.682,0,0,0-3.96,0,3.859,3.859,0,0,0-.7,2.475,3.888,3.888,0,0,0,.693,2.484A2.4,2.4,0,0,0,62.964,16.92Zm20.7-11.7a.632.632,0,0,1,.5.207.807.807,0,0,1,.18.549V17.334a.783.783,0,0,1-.189.549.683.683,0,0,1-.531.207.751.751,0,0,1-.594-.306l-7.47-9.99v9.54a.783.783,0,0,1-.189.549.66.66,0,0,1-.513.207.632.632,0,0,1-.5-.207.807.807,0,0,1-.18-.549V5.976a.783.783,0,0,1,.189-.549A.683.683,0,0,1,74.9,5.22a.767.767,0,0,1,.612.306l7.452,9.99V5.976a.783.783,0,0,1,.189-.549A.66.66,0,0,1,83.664,5.22ZM88,18.09a.757.757,0,0,1-.531-.189.683.683,0,0,1-.207-.531v-7.6a.683.683,0,0,1,.207-.531A.757.757,0,0,1,88,9.054a.725.725,0,0,1,.522.189.7.7,0,0,1,.2.531v7.6a.694.694,0,0,1-.2.54A.746.746,0,0,1,88,18.09ZM88,7.164a.988.988,0,0,1-.7-.252.868.868,0,0,1-.27-.666A.847.847,0,0,1,87.3,5.6a1.1,1.1,0,0,1,1.4,0,.847.847,0,0,1,.27.648.868.868,0,0,1-.27.666A.988.988,0,0,1,88,7.164ZM97.758,9.5a.658.658,0,0,1,.63-.432.739.739,0,0,1,.486.18.562.562,0,0,1,.216.45.57.57,0,0,1-.072.288l-3.51,7.56a.841.841,0,0,1-.324.369.867.867,0,0,1-.468.135.837.837,0,0,1-.45-.135.966.966,0,0,1-.342-.369L90.432,9.99a.535.535,0,0,1-.072-.27.589.589,0,0,1,.243-.468.823.823,0,0,1,.531-.2.65.65,0,0,1,.351.108.689.689,0,0,1,.261.306l3.006,6.75Zm9.612,6.462a.443.443,0,0,1,.342.162.6.6,0,0,1,.144.414q0,.45-.63.828a5.449,5.449,0,0,1-1.368.567,5.519,5.519,0,0,1-1.4.189,4.287,4.287,0,0,1-3.213-1.206,4.56,4.56,0,0,1-1.179-3.33,5.227,5.227,0,0,1,.522-2.385,3.9,3.9,0,0,1,1.467-1.611,4.05,4.05,0,0,1,2.151-.576,3.481,3.481,0,0,1,2.718,1.116,4.343,4.343,0,0,1,1.008,3.024.775.775,0,0,1-.144.522.6.6,0,0,1-.468.162h-5.8q.162,3.1,2.934,3.1a3.439,3.439,0,0,0,1.206-.189,7.841,7.841,0,0,0,1.08-.513A1.712,1.712,0,0,1,107.37,15.966Zm-3.15-5.814a2.442,2.442,0,0,0-1.845.72,3.29,3.29,0,0,0-.819,2.034h5.094a3.118,3.118,0,0,0-.666-2.043A2.234,2.234,0,0,0,104.22,10.152Zm6.588,7.938a.757.757,0,0,1-.531-.189.683.683,0,0,1-.207-.531V5.94a.683.683,0,0,1,.207-.531.757.757,0,0,1,.531-.189.732.732,0,0,1,.513.189.683.683,0,0,1,.207.531V17.37a.683.683,0,0,1-.207.531A.732.732,0,0,1,110.808,18.09ZM126.4,16.758a.727.727,0,0,1,.5.162.574.574,0,0,1,.18.45.614.614,0,0,1-.171.468A.721.721,0,0,1,126.4,18h-5.958a.721.721,0,0,1-.513-.162.614.614,0,0,1-.171-.468.574.574,0,0,1,.18-.45.727.727,0,0,1,.5-.162h2.232V7.11l-1.962,1.278a.54.54,0,0,1-.288.09.556.556,0,0,1-.441-.234.787.787,0,0,1-.189-.5.57.57,0,0,1,.288-.54l2.736-1.782a1.146,1.146,0,0,1,.63-.2.683.683,0,0,1,.5.2.755.755,0,0,1,.2.558V16.758Z" transform="translate(16 12)" fill="#38485c"/>
    </g>
    <g id="Navegación_-_Vertical_-_A3_-_Seleccionado" data-name="Navegación - Vertical - A3 - Seleccionado" transform="translate(-4462 -18166)">
      <rect id="Rectangle_24365" data-name="Rectangle 24365" width="190.468" height="36.96" rx="8" transform="translate(0.522 5.166)" fill="#007bc7"/>
      <path id="_Text_Body_1_Selected_On_Surface_Medium_Emphasis_Left_2" data-name="✱ / Text / Body 1 / Selected / On Surface / Medium Emphasis / Left " d="M12.492,17.154a.675.675,0,0,1,.072.306.572.572,0,0,1-.207.45.729.729,0,0,1-.5.18.637.637,0,0,1-.63-.432L9.954,14.742H3.168l-1.3,2.916a.637.637,0,0,1-.63.432.742.742,0,0,1-.5-.189.588.588,0,0,1-.216-.459.639.639,0,0,1,.072-.288L5.742,5.706a.776.776,0,0,1,.324-.378A.913.913,0,0,1,6.534,5.2a.9.9,0,0,1,.486.135.841.841,0,0,1,.324.369ZM9.414,13.518,6.552,7.056,3.708,13.518Zm9.432-4.5q3.15,0,3.15,3.474V17.37a.657.657,0,0,1-.72.72.75.75,0,0,1-.54-.189.7.7,0,0,1-.2-.531V12.582a2.717,2.717,0,0,0-.477-1.782,1.9,1.9,0,0,0-1.521-.558,2.568,2.568,0,0,0-1.926.738,2.738,2.738,0,0,0-.72,2V17.37a.657.657,0,0,1-.72.72.75.75,0,0,1-.54-.189.7.7,0,0,1-.2-.531v-7.6a.706.706,0,0,1,.2-.522.73.73,0,0,1,.54-.2.676.676,0,0,1,.513.2.7.7,0,0,1,.189.5v.918a2.952,2.952,0,0,1,1.206-1.233A3.618,3.618,0,0,1,18.846,9.018ZM25.4,18.09a.757.757,0,0,1-.531-.189.683.683,0,0,1-.207-.531v-7.6a.683.683,0,0,1,.207-.531.757.757,0,0,1,.531-.189.725.725,0,0,1,.522.189.7.7,0,0,1,.2.531v7.6a.694.694,0,0,1-.2.54A.746.746,0,0,1,25.4,18.09Zm0-10.926a.988.988,0,0,1-.7-.252.868.868,0,0,1-.27-.666A.847.847,0,0,1,24.7,5.6a1.1,1.1,0,0,1,1.4,0,.847.847,0,0,1,.27.648.868.868,0,0,1-.27.666A.988.988,0,0,1,25.4,7.164ZM35.874,5.22a.73.73,0,0,1,.54.2.683.683,0,0,1,.2.5V17.37a.706.706,0,0,1-.2.522.73.73,0,0,1-.54.2.7.7,0,0,1-.531-.2.725.725,0,0,1-.189-.522V16.4a2.893,2.893,0,0,1-1.161,1.278,3.467,3.467,0,0,1-1.791.45,3.636,3.636,0,0,1-2.034-.576A3.8,3.8,0,0,1,28.8,15.939a5.6,5.6,0,0,1-.486-2.4A5.492,5.492,0,0,1,28.8,11.16a3.609,3.609,0,0,1,3.4-2.142,3.467,3.467,0,0,1,1.791.45,2.893,2.893,0,0,1,1.161,1.278V5.922a.693.693,0,0,1,.189-.513A.718.718,0,0,1,35.874,5.22ZM32.49,16.92a2.371,2.371,0,0,0,1.971-.873,3.9,3.9,0,0,0,.693-2.475,3.856,3.856,0,0,0-.693-2.466,2.381,2.381,0,0,0-1.971-.864,2.433,2.433,0,0,0-1.989.864,3.724,3.724,0,0,0-.711,2.43,3.9,3.9,0,0,0,.711,2.493A2.4,2.4,0,0,0,32.49,16.92Zm10.4-7.9q3.294,0,3.294,3.456v4.9a.725.725,0,0,1-.189.522.676.676,0,0,1-.513.2.68.68,0,0,1-.72-.72v-.864a2.575,2.575,0,0,1-1.044,1.2,3.077,3.077,0,0,1-1.62.423,3.545,3.545,0,0,1-1.557-.342,2.782,2.782,0,0,1-1.125-.954,2.358,2.358,0,0,1-.414-1.35,2.192,2.192,0,0,1,.5-1.539,3.058,3.058,0,0,1,1.656-.792,16.362,16.362,0,0,1,3.2-.243h.4v-.594a2.367,2.367,0,0,0-.441-1.584,1.811,1.811,0,0,0-1.431-.5,5.287,5.287,0,0,0-2.484.666,1.643,1.643,0,0,1-.684.306.462.462,0,0,1-.36-.162.6.6,0,0,1-.144-.414.68.68,0,0,1,.153-.441,1.793,1.793,0,0,1,.5-.387A5.791,5.791,0,0,1,41.3,9.225,6.346,6.346,0,0,1,42.894,9.018ZM42.3,16.974a2.339,2.339,0,0,0,1.773-.729,2.618,2.618,0,0,0,.693-1.881v-.522h-.324a16.111,16.111,0,0,0-2.412.135,2.344,2.344,0,0,0-1.179.45,1.181,1.181,0,0,0-.351.927,1.49,1.49,0,0,0,.513,1.161A1.858,1.858,0,0,0,42.3,16.974ZM55.89,5.22a.73.73,0,0,1,.54.2.683.683,0,0,1,.2.5V17.37a.706.706,0,0,1-.2.522.73.73,0,0,1-.54.2.7.7,0,0,1-.531-.2.725.725,0,0,1-.189-.522V16.4a2.893,2.893,0,0,1-1.161,1.278,3.467,3.467,0,0,1-1.791.45,3.636,3.636,0,0,1-2.034-.576,3.8,3.8,0,0,1-1.368-1.611,5.6,5.6,0,0,1-.486-2.4,5.492,5.492,0,0,1,.486-2.376,3.609,3.609,0,0,1,3.4-2.142,3.467,3.467,0,0,1,1.791.45,2.893,2.893,0,0,1,1.161,1.278V5.922a.693.693,0,0,1,.189-.513A.718.718,0,0,1,55.89,5.22Zm-3.384,11.7a2.371,2.371,0,0,0,1.971-.873,3.9,3.9,0,0,0,.693-2.475,3.856,3.856,0,0,0-.693-2.466,2.381,2.381,0,0,0-1.971-.864,2.433,2.433,0,0,0-1.989.864,3.724,3.724,0,0,0-.711,2.43,3.9,3.9,0,0,0,.711,2.493A2.4,2.4,0,0,0,52.506,16.92Zm10.458,1.206a4.22,4.22,0,0,1-2.187-.558,3.719,3.719,0,0,1-1.458-1.593,5.346,5.346,0,0,1-.513-2.4,5.346,5.346,0,0,1,.513-2.4,3.719,3.719,0,0,1,1.458-1.593,4.22,4.22,0,0,1,2.187-.558,4.269,4.269,0,0,1,2.2.558,3.7,3.7,0,0,1,1.467,1.593,5.346,5.346,0,0,1,.513,2.4,5.346,5.346,0,0,1-.513,2.4,3.7,3.7,0,0,1-1.467,1.593A4.269,4.269,0,0,1,62.964,18.126Zm0-1.206a2.412,2.412,0,0,0,1.989-.855,3.882,3.882,0,0,0,.693-2.493,3.859,3.859,0,0,0-.7-2.475,2.682,2.682,0,0,0-3.96,0,3.859,3.859,0,0,0-.7,2.475,3.888,3.888,0,0,0,.693,2.484A2.4,2.4,0,0,0,62.964,16.92Zm20.7-11.7a.632.632,0,0,1,.5.207.807.807,0,0,1,.18.549V17.334a.783.783,0,0,1-.189.549.683.683,0,0,1-.531.207.751.751,0,0,1-.594-.306l-7.47-9.99v9.54a.783.783,0,0,1-.189.549.66.66,0,0,1-.513.207.632.632,0,0,1-.5-.207.807.807,0,0,1-.18-.549V5.976a.783.783,0,0,1,.189-.549A.683.683,0,0,1,74.9,5.22a.767.767,0,0,1,.612.306l7.452,9.99V5.976a.783.783,0,0,1,.189-.549A.66.66,0,0,1,83.664,5.22ZM88,18.09a.757.757,0,0,1-.531-.189.683.683,0,0,1-.207-.531v-7.6a.683.683,0,0,1,.207-.531A.757.757,0,0,1,88,9.054a.725.725,0,0,1,.522.189.7.7,0,0,1,.2.531v7.6a.694.694,0,0,1-.2.54A.746.746,0,0,1,88,18.09ZM88,7.164a.988.988,0,0,1-.7-.252.868.868,0,0,1-.27-.666A.847.847,0,0,1,87.3,5.6a1.1,1.1,0,0,1,1.4,0,.847.847,0,0,1,.27.648.868.868,0,0,1-.27.666A.988.988,0,0,1,88,7.164ZM97.758,9.5a.658.658,0,0,1,.63-.432.739.739,0,0,1,.486.18.562.562,0,0,1,.216.45.57.57,0,0,1-.072.288l-3.51,7.56a.841.841,0,0,1-.324.369.867.867,0,0,1-.468.135.837.837,0,0,1-.45-.135.966.966,0,0,1-.342-.369L90.432,9.99a.535.535,0,0,1-.072-.27.589.589,0,0,1,.243-.468.823.823,0,0,1,.531-.2.65.65,0,0,1,.351.108.689.689,0,0,1,.261.306l3.006,6.75Zm9.612,6.462a.443.443,0,0,1,.342.162.6.6,0,0,1,.144.414q0,.45-.63.828a5.449,5.449,0,0,1-1.368.567,5.519,5.519,0,0,1-1.4.189,4.287,4.287,0,0,1-3.213-1.206,4.56,4.56,0,0,1-1.179-3.33,5.227,5.227,0,0,1,.522-2.385,3.9,3.9,0,0,1,1.467-1.611,4.05,4.05,0,0,1,2.151-.576,3.481,3.481,0,0,1,2.718,1.116,4.343,4.343,0,0,1,1.008,3.024.775.775,0,0,1-.144.522.6.6,0,0,1-.468.162h-5.8q.162,3.1,2.934,3.1a3.439,3.439,0,0,0,1.206-.189,7.841,7.841,0,0,0,1.08-.513A1.712,1.712,0,0,1,107.37,15.966Zm-3.15-5.814a2.442,2.442,0,0,0-1.845.72,3.29,3.29,0,0,0-.819,2.034h5.094a3.118,3.118,0,0,0-.666-2.043A2.234,2.234,0,0,0,104.22,10.152Zm6.588,7.938a.757.757,0,0,1-.531-.189.683.683,0,0,1-.207-.531V5.94a.683.683,0,0,1,.207-.531.757.757,0,0,1,.531-.189.732.732,0,0,1,.513.189.683.683,0,0,1,.207.531V17.37a.683.683,0,0,1-.207.531A.732.732,0,0,1,110.808,18.09Zm13.824-6.606a3.215,3.215,0,0,1,1.755,1.116,3.144,3.144,0,0,1,.6,1.962,3.253,3.253,0,0,1-1.116,2.61,4.529,4.529,0,0,1-3.042.954,6.41,6.41,0,0,1-2.241-.4,5.357,5.357,0,0,1-1.809-1.08.821.821,0,0,1-.288-.612.7.7,0,0,1,.144-.45.427.427,0,0,1,.342-.18.815.815,0,0,1,.5.2,6.167,6.167,0,0,0,1.62.972,4.7,4.7,0,0,0,1.71.306,2.971,2.971,0,0,0,2.025-.612,2.229,2.229,0,0,0,.693-1.764q0-2.322-2.916-2.322h-.954A.588.588,0,0,1,121.2,12a.637.637,0,0,1-.171-.441.6.6,0,0,1,.63-.612h.666a3.321,3.321,0,0,0,2.16-.621,2.185,2.185,0,0,0,.756-1.791,2.006,2.006,0,0,0-.612-1.575,2.5,2.5,0,0,0-1.728-.549,4.394,4.394,0,0,0-1.638.315,6.061,6.061,0,0,0-1.584.963.815.815,0,0,1-.5.2.427.427,0,0,1-.342-.18.7.7,0,0,1-.144-.45.821.821,0,0,1,.288-.612,5.39,5.39,0,0,1,1.791-1.08,6.113,6.113,0,0,1,2.169-.4,4.073,4.073,0,0,1,2.745.873A2.938,2.938,0,0,1,126.7,8.388a3.361,3.361,0,0,1-.549,1.917A3.055,3.055,0,0,1,124.632,11.484Z" transform="translate(48 12)" fill="#fff"/>
    </g>
    <g id="Navegación_-_Vertical_-_A3" data-name="Navegación - Vertical - A3" transform="translate(-4462 -18214)">
      <rect id="Rectangle_24366" data-name="Rectangle 24366" width="190.468" height="36.96" rx="8" transform="translate(0.522 5.166)" fill="#fff" opacity="0"/>
      <path id="_Text_Body_1_Selected_On_Surface_Medium_Emphasis_Left_3" data-name="✱ / Text / Body 1 / Selected / On Surface / Medium Emphasis / Left " d="M12.492,17.154a.675.675,0,0,1,.072.306.572.572,0,0,1-.207.45.729.729,0,0,1-.5.18.637.637,0,0,1-.63-.432L9.954,14.742H3.168l-1.3,2.916a.637.637,0,0,1-.63.432.742.742,0,0,1-.5-.189.588.588,0,0,1-.216-.459.639.639,0,0,1,.072-.288L5.742,5.706a.776.776,0,0,1,.324-.378A.913.913,0,0,1,6.534,5.2a.9.9,0,0,1,.486.135.841.841,0,0,1,.324.369ZM9.414,13.518,6.552,7.056,3.708,13.518Zm9.432-4.5q3.15,0,3.15,3.474V17.37a.657.657,0,0,1-.72.72.75.75,0,0,1-.54-.189.7.7,0,0,1-.2-.531V12.582a2.717,2.717,0,0,0-.477-1.782,1.9,1.9,0,0,0-1.521-.558,2.568,2.568,0,0,0-1.926.738,2.738,2.738,0,0,0-.72,2V17.37a.657.657,0,0,1-.72.72.75.75,0,0,1-.54-.189.7.7,0,0,1-.2-.531v-7.6a.706.706,0,0,1,.2-.522.73.73,0,0,1,.54-.2.676.676,0,0,1,.513.2.7.7,0,0,1,.189.5v.918a2.952,2.952,0,0,1,1.206-1.233A3.618,3.618,0,0,1,18.846,9.018ZM25.4,18.09a.757.757,0,0,1-.531-.189.683.683,0,0,1-.207-.531v-7.6a.683.683,0,0,1,.207-.531.757.757,0,0,1,.531-.189.725.725,0,0,1,.522.189.7.7,0,0,1,.2.531v7.6a.694.694,0,0,1-.2.54A.746.746,0,0,1,25.4,18.09Zm0-10.926a.988.988,0,0,1-.7-.252.868.868,0,0,1-.27-.666A.847.847,0,0,1,24.7,5.6a1.1,1.1,0,0,1,1.4,0,.847.847,0,0,1,.27.648.868.868,0,0,1-.27.666A.988.988,0,0,1,25.4,7.164ZM35.874,5.22a.73.73,0,0,1,.54.2.683.683,0,0,1,.2.5V17.37a.706.706,0,0,1-.2.522.73.73,0,0,1-.54.2.7.7,0,0,1-.531-.2.725.725,0,0,1-.189-.522V16.4a2.893,2.893,0,0,1-1.161,1.278,3.467,3.467,0,0,1-1.791.45,3.636,3.636,0,0,1-2.034-.576A3.8,3.8,0,0,1,28.8,15.939a5.6,5.6,0,0,1-.486-2.4A5.492,5.492,0,0,1,28.8,11.16a3.609,3.609,0,0,1,3.4-2.142,3.467,3.467,0,0,1,1.791.45,2.893,2.893,0,0,1,1.161,1.278V5.922a.693.693,0,0,1,.189-.513A.718.718,0,0,1,35.874,5.22ZM32.49,16.92a2.371,2.371,0,0,0,1.971-.873,3.9,3.9,0,0,0,.693-2.475,3.856,3.856,0,0,0-.693-2.466,2.381,2.381,0,0,0-1.971-.864,2.433,2.433,0,0,0-1.989.864,3.724,3.724,0,0,0-.711,2.43,3.9,3.9,0,0,0,.711,2.493A2.4,2.4,0,0,0,32.49,16.92Zm10.4-7.9q3.294,0,3.294,3.456v4.9a.725.725,0,0,1-.189.522.676.676,0,0,1-.513.2.68.68,0,0,1-.72-.72v-.864a2.575,2.575,0,0,1-1.044,1.2,3.077,3.077,0,0,1-1.62.423,3.545,3.545,0,0,1-1.557-.342,2.782,2.782,0,0,1-1.125-.954,2.358,2.358,0,0,1-.414-1.35,2.192,2.192,0,0,1,.5-1.539,3.058,3.058,0,0,1,1.656-.792,16.362,16.362,0,0,1,3.2-.243h.4v-.594a2.367,2.367,0,0,0-.441-1.584,1.811,1.811,0,0,0-1.431-.5,5.287,5.287,0,0,0-2.484.666,1.643,1.643,0,0,1-.684.306.462.462,0,0,1-.36-.162.6.6,0,0,1-.144-.414.68.68,0,0,1,.153-.441,1.793,1.793,0,0,1,.5-.387A5.791,5.791,0,0,1,41.3,9.225,6.346,6.346,0,0,1,42.894,9.018ZM42.3,16.974a2.339,2.339,0,0,0,1.773-.729,2.618,2.618,0,0,0,.693-1.881v-.522h-.324a16.111,16.111,0,0,0-2.412.135,2.344,2.344,0,0,0-1.179.45,1.181,1.181,0,0,0-.351.927,1.49,1.49,0,0,0,.513,1.161A1.858,1.858,0,0,0,42.3,16.974ZM55.89,5.22a.73.73,0,0,1,.54.2.683.683,0,0,1,.2.5V17.37a.706.706,0,0,1-.2.522.73.73,0,0,1-.54.2.7.7,0,0,1-.531-.2.725.725,0,0,1-.189-.522V16.4a2.893,2.893,0,0,1-1.161,1.278,3.467,3.467,0,0,1-1.791.45,3.636,3.636,0,0,1-2.034-.576,3.8,3.8,0,0,1-1.368-1.611,5.6,5.6,0,0,1-.486-2.4,5.492,5.492,0,0,1,.486-2.376,3.609,3.609,0,0,1,3.4-2.142,3.467,3.467,0,0,1,1.791.45,2.893,2.893,0,0,1,1.161,1.278V5.922a.693.693,0,0,1,.189-.513A.718.718,0,0,1,55.89,5.22Zm-3.384,11.7a2.371,2.371,0,0,0,1.971-.873,3.9,3.9,0,0,0,.693-2.475,3.856,3.856,0,0,0-.693-2.466,2.381,2.381,0,0,0-1.971-.864,2.433,2.433,0,0,0-1.989.864,3.724,3.724,0,0,0-.711,2.43,3.9,3.9,0,0,0,.711,2.493A2.4,2.4,0,0,0,52.506,16.92Zm10.458,1.206a4.22,4.22,0,0,1-2.187-.558,3.719,3.719,0,0,1-1.458-1.593,5.346,5.346,0,0,1-.513-2.4,5.346,5.346,0,0,1,.513-2.4,3.719,3.719,0,0,1,1.458-1.593,4.22,4.22,0,0,1,2.187-.558,4.269,4.269,0,0,1,2.2.558,3.7,3.7,0,0,1,1.467,1.593,5.346,5.346,0,0,1,.513,2.4,5.346,5.346,0,0,1-.513,2.4,3.7,3.7,0,0,1-1.467,1.593A4.269,4.269,0,0,1,62.964,18.126Zm0-1.206a2.412,2.412,0,0,0,1.989-.855,3.882,3.882,0,0,0,.693-2.493,3.859,3.859,0,0,0-.7-2.475,2.682,2.682,0,0,0-3.96,0,3.859,3.859,0,0,0-.7,2.475,3.888,3.888,0,0,0,.693,2.484A2.4,2.4,0,0,0,62.964,16.92Zm20.7-11.7a.632.632,0,0,1,.5.207.807.807,0,0,1,.18.549V17.334a.783.783,0,0,1-.189.549.683.683,0,0,1-.531.207.751.751,0,0,1-.594-.306l-7.47-9.99v9.54a.783.783,0,0,1-.189.549.66.66,0,0,1-.513.207.632.632,0,0,1-.5-.207.807.807,0,0,1-.18-.549V5.976a.783.783,0,0,1,.189-.549A.683.683,0,0,1,74.9,5.22a.767.767,0,0,1,.612.306l7.452,9.99V5.976a.783.783,0,0,1,.189-.549A.66.66,0,0,1,83.664,5.22ZM88,18.09a.757.757,0,0,1-.531-.189.683.683,0,0,1-.207-.531v-7.6a.683.683,0,0,1,.207-.531A.757.757,0,0,1,88,9.054a.725.725,0,0,1,.522.189.7.7,0,0,1,.2.531v7.6a.694.694,0,0,1-.2.54A.746.746,0,0,1,88,18.09ZM88,7.164a.988.988,0,0,1-.7-.252.868.868,0,0,1-.27-.666A.847.847,0,0,1,87.3,5.6a1.1,1.1,0,0,1,1.4,0,.847.847,0,0,1,.27.648.868.868,0,0,1-.27.666A.988.988,0,0,1,88,7.164ZM97.758,9.5a.658.658,0,0,1,.63-.432.739.739,0,0,1,.486.18.562.562,0,0,1,.216.45.57.57,0,0,1-.072.288l-3.51,7.56a.841.841,0,0,1-.324.369.867.867,0,0,1-.468.135.837.837,0,0,1-.45-.135.966.966,0,0,1-.342-.369L90.432,9.99a.535.535,0,0,1-.072-.27.589.589,0,0,1,.243-.468.823.823,0,0,1,.531-.2.65.65,0,0,1,.351.108.689.689,0,0,1,.261.306l3.006,6.75Zm9.612,6.462a.443.443,0,0,1,.342.162.6.6,0,0,1,.144.414q0,.45-.63.828a5.449,5.449,0,0,1-1.368.567,5.519,5.519,0,0,1-1.4.189,4.287,4.287,0,0,1-3.213-1.206,4.56,4.56,0,0,1-1.179-3.33,5.227,5.227,0,0,1,.522-2.385,3.9,3.9,0,0,1,1.467-1.611,4.05,4.05,0,0,1,2.151-.576,3.481,3.481,0,0,1,2.718,1.116,4.343,4.343,0,0,1,1.008,3.024.775.775,0,0,1-.144.522.6.6,0,0,1-.468.162h-5.8q.162,3.1,2.934,3.1a3.439,3.439,0,0,0,1.206-.189,7.841,7.841,0,0,0,1.08-.513A1.712,1.712,0,0,1,107.37,15.966Zm-3.15-5.814a2.442,2.442,0,0,0-1.845.72,3.29,3.29,0,0,0-.819,2.034h5.094a3.118,3.118,0,0,0-.666-2.043A2.234,2.234,0,0,0,104.22,10.152Zm6.588,7.938a.757.757,0,0,1-.531-.189.683.683,0,0,1-.207-.531V5.94a.683.683,0,0,1,.207-.531.757.757,0,0,1,.531-.189.732.732,0,0,1,.513.189.683.683,0,0,1,.207.531V17.37a.683.683,0,0,1-.207.531A.732.732,0,0,1,110.808,18.09Zm13.824-6.606a3.215,3.215,0,0,1,1.755,1.116,3.144,3.144,0,0,1,.6,1.962,3.253,3.253,0,0,1-1.116,2.61,4.529,4.529,0,0,1-3.042.954,6.41,6.41,0,0,1-2.241-.4,5.357,5.357,0,0,1-1.809-1.08.821.821,0,0,1-.288-.612.7.7,0,0,1,.144-.45.427.427,0,0,1,.342-.18.815.815,0,0,1,.5.2,6.167,6.167,0,0,0,1.62.972,4.7,4.7,0,0,0,1.71.306,2.971,2.971,0,0,0,2.025-.612,2.229,2.229,0,0,0,.693-1.764q0-2.322-2.916-2.322h-.954A.588.588,0,0,1,121.2,12a.637.637,0,0,1-.171-.441.6.6,0,0,1,.63-.612h.666a3.321,3.321,0,0,0,2.16-.621,2.185,2.185,0,0,0,.756-1.791,2.006,2.006,0,0,0-.612-1.575,2.5,2.5,0,0,0-1.728-.549,4.394,4.394,0,0,0-1.638.315,6.061,6.061,0,0,0-1.584.963.815.815,0,0,1-.5.2.427.427,0,0,1-.342-.18.7.7,0,0,1-.144-.45.821.821,0,0,1,.288-.612,5.39,5.39,0,0,1,1.791-1.08,6.113,6.113,0,0,1,2.169-.4,4.073,4.073,0,0,1,2.745.873A2.938,2.938,0,0,1,126.7,8.388a3.361,3.361,0,0,1-.549,1.917A3.055,3.055,0,0,1,124.632,11.484Z" transform="translate(48 12)" fill="#38485c"/>
    </g>
    <g id="Navegación_-_Vertical_-_A2" data-name="Navegación - Vertical - A2" transform="translate(-4462 -18262)">
      <rect id="Rectangle_24359" data-name="Rectangle 24359" width="174.846" height="36.96" rx="8" transform="translate(0.522 5.166)" fill="#fff" opacity="0"/>
      <path id="_Text_Body_1_Selected_On_Surface_Medium_Emphasis_Left_4" data-name="✱ / Text / Body 1 / Selected / On Surface / Medium Emphasis / Left " d="M12.492,17.154a.675.675,0,0,1,.072.306.572.572,0,0,1-.207.45.729.729,0,0,1-.5.18.637.637,0,0,1-.63-.432L9.954,14.742H3.168l-1.3,2.916a.637.637,0,0,1-.63.432.742.742,0,0,1-.5-.189.588.588,0,0,1-.216-.459.639.639,0,0,1,.072-.288L5.742,5.706a.776.776,0,0,1,.324-.378A.913.913,0,0,1,6.534,5.2a.9.9,0,0,1,.486.135.841.841,0,0,1,.324.369ZM9.414,13.518,6.552,7.056,3.708,13.518Zm9.432-4.5q3.15,0,3.15,3.474V17.37a.657.657,0,0,1-.72.72.75.75,0,0,1-.54-.189.7.7,0,0,1-.2-.531V12.582a2.717,2.717,0,0,0-.477-1.782,1.9,1.9,0,0,0-1.521-.558,2.568,2.568,0,0,0-1.926.738,2.738,2.738,0,0,0-.72,2V17.37a.657.657,0,0,1-.72.72.75.75,0,0,1-.54-.189.7.7,0,0,1-.2-.531v-7.6a.706.706,0,0,1,.2-.522.73.73,0,0,1,.54-.2.676.676,0,0,1,.513.2.7.7,0,0,1,.189.5v.918a2.952,2.952,0,0,1,1.206-1.233A3.618,3.618,0,0,1,18.846,9.018ZM25.4,18.09a.757.757,0,0,1-.531-.189.683.683,0,0,1-.207-.531v-7.6a.683.683,0,0,1,.207-.531.757.757,0,0,1,.531-.189.725.725,0,0,1,.522.189.7.7,0,0,1,.2.531v7.6a.694.694,0,0,1-.2.54A.746.746,0,0,1,25.4,18.09Zm0-10.926a.988.988,0,0,1-.7-.252.868.868,0,0,1-.27-.666A.847.847,0,0,1,24.7,5.6a1.1,1.1,0,0,1,1.4,0,.847.847,0,0,1,.27.648.868.868,0,0,1-.27.666A.988.988,0,0,1,25.4,7.164ZM35.874,5.22a.73.73,0,0,1,.54.2.683.683,0,0,1,.2.5V17.37a.706.706,0,0,1-.2.522.73.73,0,0,1-.54.2.7.7,0,0,1-.531-.2.725.725,0,0,1-.189-.522V16.4a2.893,2.893,0,0,1-1.161,1.278,3.467,3.467,0,0,1-1.791.45,3.636,3.636,0,0,1-2.034-.576A3.8,3.8,0,0,1,28.8,15.939a5.6,5.6,0,0,1-.486-2.4A5.492,5.492,0,0,1,28.8,11.16a3.609,3.609,0,0,1,3.4-2.142,3.467,3.467,0,0,1,1.791.45,2.893,2.893,0,0,1,1.161,1.278V5.922a.693.693,0,0,1,.189-.513A.718.718,0,0,1,35.874,5.22ZM32.49,16.92a2.371,2.371,0,0,0,1.971-.873,3.9,3.9,0,0,0,.693-2.475,3.856,3.856,0,0,0-.693-2.466,2.381,2.381,0,0,0-1.971-.864,2.433,2.433,0,0,0-1.989.864,3.724,3.724,0,0,0-.711,2.43,3.9,3.9,0,0,0,.711,2.493A2.4,2.4,0,0,0,32.49,16.92Zm10.4-7.9q3.294,0,3.294,3.456v4.9a.725.725,0,0,1-.189.522.676.676,0,0,1-.513.2.68.68,0,0,1-.72-.72v-.864a2.575,2.575,0,0,1-1.044,1.2,3.077,3.077,0,0,1-1.62.423,3.545,3.545,0,0,1-1.557-.342,2.782,2.782,0,0,1-1.125-.954,2.358,2.358,0,0,1-.414-1.35,2.192,2.192,0,0,1,.5-1.539,3.058,3.058,0,0,1,1.656-.792,16.362,16.362,0,0,1,3.2-.243h.4v-.594a2.367,2.367,0,0,0-.441-1.584,1.811,1.811,0,0,0-1.431-.5,5.287,5.287,0,0,0-2.484.666,1.643,1.643,0,0,1-.684.306.462.462,0,0,1-.36-.162.6.6,0,0,1-.144-.414.68.68,0,0,1,.153-.441,1.793,1.793,0,0,1,.5-.387A5.791,5.791,0,0,1,41.3,9.225,6.346,6.346,0,0,1,42.894,9.018ZM42.3,16.974a2.339,2.339,0,0,0,1.773-.729,2.618,2.618,0,0,0,.693-1.881v-.522h-.324a16.111,16.111,0,0,0-2.412.135,2.344,2.344,0,0,0-1.179.45,1.181,1.181,0,0,0-.351.927,1.49,1.49,0,0,0,.513,1.161A1.858,1.858,0,0,0,42.3,16.974ZM55.89,5.22a.73.73,0,0,1,.54.2.683.683,0,0,1,.2.5V17.37a.706.706,0,0,1-.2.522.73.73,0,0,1-.54.2.7.7,0,0,1-.531-.2.725.725,0,0,1-.189-.522V16.4a2.893,2.893,0,0,1-1.161,1.278,3.467,3.467,0,0,1-1.791.45,3.636,3.636,0,0,1-2.034-.576,3.8,3.8,0,0,1-1.368-1.611,5.6,5.6,0,0,1-.486-2.4,5.492,5.492,0,0,1,.486-2.376,3.609,3.609,0,0,1,3.4-2.142,3.467,3.467,0,0,1,1.791.45,2.893,2.893,0,0,1,1.161,1.278V5.922a.693.693,0,0,1,.189-.513A.718.718,0,0,1,55.89,5.22Zm-3.384,11.7a2.371,2.371,0,0,0,1.971-.873,3.9,3.9,0,0,0,.693-2.475,3.856,3.856,0,0,0-.693-2.466,2.381,2.381,0,0,0-1.971-.864,2.433,2.433,0,0,0-1.989.864,3.724,3.724,0,0,0-.711,2.43,3.9,3.9,0,0,0,.711,2.493A2.4,2.4,0,0,0,52.506,16.92Zm10.458,1.206a4.22,4.22,0,0,1-2.187-.558,3.719,3.719,0,0,1-1.458-1.593,5.346,5.346,0,0,1-.513-2.4,5.346,5.346,0,0,1,.513-2.4,3.719,3.719,0,0,1,1.458-1.593,4.22,4.22,0,0,1,2.187-.558,4.269,4.269,0,0,1,2.2.558,3.7,3.7,0,0,1,1.467,1.593,5.346,5.346,0,0,1,.513,2.4,5.346,5.346,0,0,1-.513,2.4,3.7,3.7,0,0,1-1.467,1.593A4.269,4.269,0,0,1,62.964,18.126Zm0-1.206a2.412,2.412,0,0,0,1.989-.855,3.882,3.882,0,0,0,.693-2.493,3.859,3.859,0,0,0-.7-2.475,2.682,2.682,0,0,0-3.96,0,3.859,3.859,0,0,0-.7,2.475,3.888,3.888,0,0,0,.693,2.484A2.4,2.4,0,0,0,62.964,16.92Zm20.7-11.7a.632.632,0,0,1,.5.207.807.807,0,0,1,.18.549V17.334a.783.783,0,0,1-.189.549.683.683,0,0,1-.531.207.751.751,0,0,1-.594-.306l-7.47-9.99v9.54a.783.783,0,0,1-.189.549.66.66,0,0,1-.513.207.632.632,0,0,1-.5-.207.807.807,0,0,1-.18-.549V5.976a.783.783,0,0,1,.189-.549A.683.683,0,0,1,74.9,5.22a.767.767,0,0,1,.612.306l7.452,9.99V5.976a.783.783,0,0,1,.189-.549A.66.66,0,0,1,83.664,5.22ZM88,18.09a.757.757,0,0,1-.531-.189.683.683,0,0,1-.207-.531v-7.6a.683.683,0,0,1,.207-.531A.757.757,0,0,1,88,9.054a.725.725,0,0,1,.522.189.7.7,0,0,1,.2.531v7.6a.694.694,0,0,1-.2.54A.746.746,0,0,1,88,18.09ZM88,7.164a.988.988,0,0,1-.7-.252.868.868,0,0,1-.27-.666A.847.847,0,0,1,87.3,5.6a1.1,1.1,0,0,1,1.4,0,.847.847,0,0,1,.27.648.868.868,0,0,1-.27.666A.988.988,0,0,1,88,7.164ZM97.758,9.5a.658.658,0,0,1,.63-.432.739.739,0,0,1,.486.18.562.562,0,0,1,.216.45.57.57,0,0,1-.072.288l-3.51,7.56a.841.841,0,0,1-.324.369.867.867,0,0,1-.468.135.837.837,0,0,1-.45-.135.966.966,0,0,1-.342-.369L90.432,9.99a.535.535,0,0,1-.072-.27.589.589,0,0,1,.243-.468.823.823,0,0,1,.531-.2.65.65,0,0,1,.351.108.689.689,0,0,1,.261.306l3.006,6.75Zm9.612,6.462a.443.443,0,0,1,.342.162.6.6,0,0,1,.144.414q0,.45-.63.828a5.449,5.449,0,0,1-1.368.567,5.519,5.519,0,0,1-1.4.189,4.287,4.287,0,0,1-3.213-1.206,4.56,4.56,0,0,1-1.179-3.33,5.227,5.227,0,0,1,.522-2.385,3.9,3.9,0,0,1,1.467-1.611,4.05,4.05,0,0,1,2.151-.576,3.481,3.481,0,0,1,2.718,1.116,4.343,4.343,0,0,1,1.008,3.024.775.775,0,0,1-.144.522.6.6,0,0,1-.468.162h-5.8q.162,3.1,2.934,3.1a3.439,3.439,0,0,0,1.206-.189,7.841,7.841,0,0,0,1.08-.513A1.712,1.712,0,0,1,107.37,15.966Zm-3.15-5.814a2.442,2.442,0,0,0-1.845.72,3.29,3.29,0,0,0-.819,2.034h5.094a3.118,3.118,0,0,0-.666-2.043A2.234,2.234,0,0,0,104.22,10.152Zm6.588,7.938a.757.757,0,0,1-.531-.189.683.683,0,0,1-.207-.531V5.94a.683.683,0,0,1,.207-.531.757.757,0,0,1,.531-.189.732.732,0,0,1,.513.189.683.683,0,0,1,.207.531V17.37a.683.683,0,0,1-.207.531A.732.732,0,0,1,110.808,18.09Zm15.876-1.332a.727.727,0,0,1,.5.162.574.574,0,0,1,.18.45q0,.63-.684.63h-7.056a.7.7,0,0,1-.5-.189.611.611,0,0,1-.2-.459.813.813,0,0,1,.252-.594l4.338-4.77a8.816,8.816,0,0,0,1.305-1.809,3.54,3.54,0,0,0,.4-1.611,2.075,2.075,0,0,0-.6-1.6,2.412,2.412,0,0,0-1.7-.558,4.44,4.44,0,0,0-1.656.315,6.061,6.061,0,0,0-1.584.963.83.83,0,0,1-.5.216.421.421,0,0,1-.342-.189.735.735,0,0,1-.144-.459.751.751,0,0,1,.288-.612,5.373,5.373,0,0,1,1.8-1.08,6.187,6.187,0,0,1,2.178-.4,3.965,3.965,0,0,1,2.727.9A3.081,3.081,0,0,1,126.7,8.5a4.72,4.72,0,0,1-.5,2.106,10.087,10.087,0,0,1-1.629,2.25l-3.6,3.906Z" transform="translate(32 12)" fill="#007bc7"/>
    </g>
    <g id="Navegación_-_Vertical_-_A2-2" data-name="Navegación - Vertical - A2" transform="translate(-4462 -18310)">
      <rect id="Rectangle_24359-2" data-name="Rectangle 24359" width="174.846" height="36.96" rx="8" transform="translate(0.522 5.166)" fill="#fff" opacity="0"/>
      <path id="_Text_Body_1_Selected_On_Surface_Medium_Emphasis_Left_5" data-name="✱ / Text / Body 1 / Selected / On Surface / Medium Emphasis / Left " d="M12.492,17.154a.675.675,0,0,1,.072.306.572.572,0,0,1-.207.45.729.729,0,0,1-.5.18.637.637,0,0,1-.63-.432L9.954,14.742H3.168l-1.3,2.916a.637.637,0,0,1-.63.432.742.742,0,0,1-.5-.189.588.588,0,0,1-.216-.459.639.639,0,0,1,.072-.288L5.742,5.706a.776.776,0,0,1,.324-.378A.913.913,0,0,1,6.534,5.2a.9.9,0,0,1,.486.135.841.841,0,0,1,.324.369ZM9.414,13.518,6.552,7.056,3.708,13.518Zm9.432-4.5q3.15,0,3.15,3.474V17.37a.657.657,0,0,1-.72.72.75.75,0,0,1-.54-.189.7.7,0,0,1-.2-.531V12.582a2.717,2.717,0,0,0-.477-1.782,1.9,1.9,0,0,0-1.521-.558,2.568,2.568,0,0,0-1.926.738,2.738,2.738,0,0,0-.72,2V17.37a.657.657,0,0,1-.72.72.75.75,0,0,1-.54-.189.7.7,0,0,1-.2-.531v-7.6a.706.706,0,0,1,.2-.522.73.73,0,0,1,.54-.2.676.676,0,0,1,.513.2.7.7,0,0,1,.189.5v.918a2.952,2.952,0,0,1,1.206-1.233A3.618,3.618,0,0,1,18.846,9.018ZM25.4,18.09a.757.757,0,0,1-.531-.189.683.683,0,0,1-.207-.531v-7.6a.683.683,0,0,1,.207-.531.757.757,0,0,1,.531-.189.725.725,0,0,1,.522.189.7.7,0,0,1,.2.531v7.6a.694.694,0,0,1-.2.54A.746.746,0,0,1,25.4,18.09Zm0-10.926a.988.988,0,0,1-.7-.252.868.868,0,0,1-.27-.666A.847.847,0,0,1,24.7,5.6a1.1,1.1,0,0,1,1.4,0,.847.847,0,0,1,.27.648.868.868,0,0,1-.27.666A.988.988,0,0,1,25.4,7.164ZM35.874,5.22a.73.73,0,0,1,.54.2.683.683,0,0,1,.2.5V17.37a.706.706,0,0,1-.2.522.73.73,0,0,1-.54.2.7.7,0,0,1-.531-.2.725.725,0,0,1-.189-.522V16.4a2.893,2.893,0,0,1-1.161,1.278,3.467,3.467,0,0,1-1.791.45,3.636,3.636,0,0,1-2.034-.576A3.8,3.8,0,0,1,28.8,15.939a5.6,5.6,0,0,1-.486-2.4A5.492,5.492,0,0,1,28.8,11.16a3.609,3.609,0,0,1,3.4-2.142,3.467,3.467,0,0,1,1.791.45,2.893,2.893,0,0,1,1.161,1.278V5.922a.693.693,0,0,1,.189-.513A.718.718,0,0,1,35.874,5.22ZM32.49,16.92a2.371,2.371,0,0,0,1.971-.873,3.9,3.9,0,0,0,.693-2.475,3.856,3.856,0,0,0-.693-2.466,2.381,2.381,0,0,0-1.971-.864,2.433,2.433,0,0,0-1.989.864,3.724,3.724,0,0,0-.711,2.43,3.9,3.9,0,0,0,.711,2.493A2.4,2.4,0,0,0,32.49,16.92Zm10.4-7.9q3.294,0,3.294,3.456v4.9a.725.725,0,0,1-.189.522.676.676,0,0,1-.513.2.68.68,0,0,1-.72-.72v-.864a2.575,2.575,0,0,1-1.044,1.2,3.077,3.077,0,0,1-1.62.423,3.545,3.545,0,0,1-1.557-.342,2.782,2.782,0,0,1-1.125-.954,2.358,2.358,0,0,1-.414-1.35,2.192,2.192,0,0,1,.5-1.539,3.058,3.058,0,0,1,1.656-.792,16.362,16.362,0,0,1,3.2-.243h.4v-.594a2.367,2.367,0,0,0-.441-1.584,1.811,1.811,0,0,0-1.431-.5,5.287,5.287,0,0,0-2.484.666,1.643,1.643,0,0,1-.684.306.462.462,0,0,1-.36-.162.6.6,0,0,1-.144-.414.68.68,0,0,1,.153-.441,1.793,1.793,0,0,1,.5-.387A5.791,5.791,0,0,1,41.3,9.225,6.346,6.346,0,0,1,42.894,9.018ZM42.3,16.974a2.339,2.339,0,0,0,1.773-.729,2.618,2.618,0,0,0,.693-1.881v-.522h-.324a16.111,16.111,0,0,0-2.412.135,2.344,2.344,0,0,0-1.179.45,1.181,1.181,0,0,0-.351.927,1.49,1.49,0,0,0,.513,1.161A1.858,1.858,0,0,0,42.3,16.974ZM55.89,5.22a.73.73,0,0,1,.54.2.683.683,0,0,1,.2.5V17.37a.706.706,0,0,1-.2.522.73.73,0,0,1-.54.2.7.7,0,0,1-.531-.2.725.725,0,0,1-.189-.522V16.4a2.893,2.893,0,0,1-1.161,1.278,3.467,3.467,0,0,1-1.791.45,3.636,3.636,0,0,1-2.034-.576,3.8,3.8,0,0,1-1.368-1.611,5.6,5.6,0,0,1-.486-2.4,5.492,5.492,0,0,1,.486-2.376,3.609,3.609,0,0,1,3.4-2.142,3.467,3.467,0,0,1,1.791.45,2.893,2.893,0,0,1,1.161,1.278V5.922a.693.693,0,0,1,.189-.513A.718.718,0,0,1,55.89,5.22Zm-3.384,11.7a2.371,2.371,0,0,0,1.971-.873,3.9,3.9,0,0,0,.693-2.475,3.856,3.856,0,0,0-.693-2.466,2.381,2.381,0,0,0-1.971-.864,2.433,2.433,0,0,0-1.989.864,3.724,3.724,0,0,0-.711,2.43,3.9,3.9,0,0,0,.711,2.493A2.4,2.4,0,0,0,52.506,16.92Zm10.458,1.206a4.22,4.22,0,0,1-2.187-.558,3.719,3.719,0,0,1-1.458-1.593,5.346,5.346,0,0,1-.513-2.4,5.346,5.346,0,0,1,.513-2.4,3.719,3.719,0,0,1,1.458-1.593,4.22,4.22,0,0,1,2.187-.558,4.269,4.269,0,0,1,2.2.558,3.7,3.7,0,0,1,1.467,1.593,5.346,5.346,0,0,1,.513,2.4,5.346,5.346,0,0,1-.513,2.4,3.7,3.7,0,0,1-1.467,1.593A4.269,4.269,0,0,1,62.964,18.126Zm0-1.206a2.412,2.412,0,0,0,1.989-.855,3.882,3.882,0,0,0,.693-2.493,3.859,3.859,0,0,0-.7-2.475,2.682,2.682,0,0,0-3.96,0,3.859,3.859,0,0,0-.7,2.475,3.888,3.888,0,0,0,.693,2.484A2.4,2.4,0,0,0,62.964,16.92Zm20.7-11.7a.632.632,0,0,1,.5.207.807.807,0,0,1,.18.549V17.334a.783.783,0,0,1-.189.549.683.683,0,0,1-.531.207.751.751,0,0,1-.594-.306l-7.47-9.99v9.54a.783.783,0,0,1-.189.549.66.66,0,0,1-.513.207.632.632,0,0,1-.5-.207.807.807,0,0,1-.18-.549V5.976a.783.783,0,0,1,.189-.549A.683.683,0,0,1,74.9,5.22a.767.767,0,0,1,.612.306l7.452,9.99V5.976a.783.783,0,0,1,.189-.549A.66.66,0,0,1,83.664,5.22ZM88,18.09a.757.757,0,0,1-.531-.189.683.683,0,0,1-.207-.531v-7.6a.683.683,0,0,1,.207-.531A.757.757,0,0,1,88,9.054a.725.725,0,0,1,.522.189.7.7,0,0,1,.2.531v7.6a.694.694,0,0,1-.2.54A.746.746,0,0,1,88,18.09ZM88,7.164a.988.988,0,0,1-.7-.252.868.868,0,0,1-.27-.666A.847.847,0,0,1,87.3,5.6a1.1,1.1,0,0,1,1.4,0,.847.847,0,0,1,.27.648.868.868,0,0,1-.27.666A.988.988,0,0,1,88,7.164ZM97.758,9.5a.658.658,0,0,1,.63-.432.739.739,0,0,1,.486.18.562.562,0,0,1,.216.45.57.57,0,0,1-.072.288l-3.51,7.56a.841.841,0,0,1-.324.369.867.867,0,0,1-.468.135.837.837,0,0,1-.45-.135.966.966,0,0,1-.342-.369L90.432,9.99a.535.535,0,0,1-.072-.27.589.589,0,0,1,.243-.468.823.823,0,0,1,.531-.2.65.65,0,0,1,.351.108.689.689,0,0,1,.261.306l3.006,6.75Zm9.612,6.462a.443.443,0,0,1,.342.162.6.6,0,0,1,.144.414q0,.45-.63.828a5.449,5.449,0,0,1-1.368.567,5.519,5.519,0,0,1-1.4.189,4.287,4.287,0,0,1-3.213-1.206,4.56,4.56,0,0,1-1.179-3.33,5.227,5.227,0,0,1,.522-2.385,3.9,3.9,0,0,1,1.467-1.611,4.05,4.05,0,0,1,2.151-.576,3.481,3.481,0,0,1,2.718,1.116,4.343,4.343,0,0,1,1.008,3.024.775.775,0,0,1-.144.522.6.6,0,0,1-.468.162h-5.8q.162,3.1,2.934,3.1a3.439,3.439,0,0,0,1.206-.189,7.841,7.841,0,0,0,1.08-.513A1.712,1.712,0,0,1,107.37,15.966Zm-3.15-5.814a2.442,2.442,0,0,0-1.845.72,3.29,3.29,0,0,0-.819,2.034h5.094a3.118,3.118,0,0,0-.666-2.043A2.234,2.234,0,0,0,104.22,10.152Zm6.588,7.938a.757.757,0,0,1-.531-.189.683.683,0,0,1-.207-.531V5.94a.683.683,0,0,1,.207-.531.757.757,0,0,1,.531-.189.732.732,0,0,1,.513.189.683.683,0,0,1,.207.531V17.37a.683.683,0,0,1-.207.531A.732.732,0,0,1,110.808,18.09Zm15.876-1.332a.727.727,0,0,1,.5.162.574.574,0,0,1,.18.45q0,.63-.684.63h-7.056a.7.7,0,0,1-.5-.189.611.611,0,0,1-.2-.459.813.813,0,0,1,.252-.594l4.338-4.77a8.816,8.816,0,0,0,1.305-1.809,3.54,3.54,0,0,0,.4-1.611,2.075,2.075,0,0,0-.6-1.6,2.412,2.412,0,0,0-1.7-.558,4.44,4.44,0,0,0-1.656.315,6.061,6.061,0,0,0-1.584.963.83.83,0,0,1-.5.216.421.421,0,0,1-.342-.189.735.735,0,0,1-.144-.459.751.751,0,0,1,.288-.612,5.373,5.373,0,0,1,1.8-1.08,6.187,6.187,0,0,1,2.178-.4,3.965,3.965,0,0,1,2.727.9A3.081,3.081,0,0,1,126.7,8.5a4.72,4.72,0,0,1-.5,2.106,10.087,10.087,0,0,1-1.629,2.25l-3.6,3.906Z" transform="translate(32 12)" fill="#38485c"/>
    </g>
    <g id="Navegación_-_Vertical_-_A1-2" data-name="Navegación - Vertical - A1" transform="translate(-4462 -18358)">
      <rect id="Rectangle_24357-2" data-name="Rectangle 24357" width="158.558" height="36.924" rx="8" transform="translate(0.522 5.202)" fill="#fff" opacity="0"/>
      <path id="_Text_Body_1_Selected_On_Surface_Medium_Emphasis_Left_6" data-name="✱ / Text / Body 1 / Selected / On Surface / Medium Emphasis / Left " d="M12.492,17.154a.675.675,0,0,1,.072.306.572.572,0,0,1-.207.45.729.729,0,0,1-.5.18.637.637,0,0,1-.63-.432L9.954,14.742H3.168l-1.3,2.916a.637.637,0,0,1-.63.432.742.742,0,0,1-.5-.189.588.588,0,0,1-.216-.459.639.639,0,0,1,.072-.288L5.742,5.706a.776.776,0,0,1,.324-.378A.913.913,0,0,1,6.534,5.2a.9.9,0,0,1,.486.135.841.841,0,0,1,.324.369ZM9.414,13.518,6.552,7.056,3.708,13.518Zm9.432-4.5q3.15,0,3.15,3.474V17.37a.657.657,0,0,1-.72.72.75.75,0,0,1-.54-.189.7.7,0,0,1-.2-.531V12.582a2.717,2.717,0,0,0-.477-1.782,1.9,1.9,0,0,0-1.521-.558,2.568,2.568,0,0,0-1.926.738,2.738,2.738,0,0,0-.72,2V17.37a.657.657,0,0,1-.72.72.75.75,0,0,1-.54-.189.7.7,0,0,1-.2-.531v-7.6a.706.706,0,0,1,.2-.522.73.73,0,0,1,.54-.2.676.676,0,0,1,.513.2.7.7,0,0,1,.189.5v.918a2.952,2.952,0,0,1,1.206-1.233A3.618,3.618,0,0,1,18.846,9.018ZM25.4,18.09a.757.757,0,0,1-.531-.189.683.683,0,0,1-.207-.531v-7.6a.683.683,0,0,1,.207-.531.757.757,0,0,1,.531-.189.725.725,0,0,1,.522.189.7.7,0,0,1,.2.531v7.6a.694.694,0,0,1-.2.54A.746.746,0,0,1,25.4,18.09Zm0-10.926a.988.988,0,0,1-.7-.252.868.868,0,0,1-.27-.666A.847.847,0,0,1,24.7,5.6a1.1,1.1,0,0,1,1.4,0,.847.847,0,0,1,.27.648.868.868,0,0,1-.27.666A.988.988,0,0,1,25.4,7.164ZM35.874,5.22a.73.73,0,0,1,.54.2.683.683,0,0,1,.2.5V17.37a.706.706,0,0,1-.2.522.73.73,0,0,1-.54.2.7.7,0,0,1-.531-.2.725.725,0,0,1-.189-.522V16.4a2.893,2.893,0,0,1-1.161,1.278,3.467,3.467,0,0,1-1.791.45,3.636,3.636,0,0,1-2.034-.576A3.8,3.8,0,0,1,28.8,15.939a5.6,5.6,0,0,1-.486-2.4A5.492,5.492,0,0,1,28.8,11.16a3.609,3.609,0,0,1,3.4-2.142,3.467,3.467,0,0,1,1.791.45,2.893,2.893,0,0,1,1.161,1.278V5.922a.693.693,0,0,1,.189-.513A.718.718,0,0,1,35.874,5.22ZM32.49,16.92a2.371,2.371,0,0,0,1.971-.873,3.9,3.9,0,0,0,.693-2.475,3.856,3.856,0,0,0-.693-2.466,2.381,2.381,0,0,0-1.971-.864,2.433,2.433,0,0,0-1.989.864,3.724,3.724,0,0,0-.711,2.43,3.9,3.9,0,0,0,.711,2.493A2.4,2.4,0,0,0,32.49,16.92Zm10.4-7.9q3.294,0,3.294,3.456v4.9a.725.725,0,0,1-.189.522.676.676,0,0,1-.513.2.68.68,0,0,1-.72-.72v-.864a2.575,2.575,0,0,1-1.044,1.2,3.077,3.077,0,0,1-1.62.423,3.545,3.545,0,0,1-1.557-.342,2.782,2.782,0,0,1-1.125-.954,2.358,2.358,0,0,1-.414-1.35,2.192,2.192,0,0,1,.5-1.539,3.058,3.058,0,0,1,1.656-.792,16.362,16.362,0,0,1,3.2-.243h.4v-.594a2.367,2.367,0,0,0-.441-1.584,1.811,1.811,0,0,0-1.431-.5,5.287,5.287,0,0,0-2.484.666,1.643,1.643,0,0,1-.684.306.462.462,0,0,1-.36-.162.6.6,0,0,1-.144-.414.68.68,0,0,1,.153-.441,1.793,1.793,0,0,1,.5-.387A5.791,5.791,0,0,1,41.3,9.225,6.346,6.346,0,0,1,42.894,9.018ZM42.3,16.974a2.339,2.339,0,0,0,1.773-.729,2.618,2.618,0,0,0,.693-1.881v-.522h-.324a16.111,16.111,0,0,0-2.412.135,2.344,2.344,0,0,0-1.179.45,1.181,1.181,0,0,0-.351.927,1.49,1.49,0,0,0,.513,1.161A1.858,1.858,0,0,0,42.3,16.974ZM55.89,5.22a.73.73,0,0,1,.54.2.683.683,0,0,1,.2.5V17.37a.706.706,0,0,1-.2.522.73.73,0,0,1-.54.2.7.7,0,0,1-.531-.2.725.725,0,0,1-.189-.522V16.4a2.893,2.893,0,0,1-1.161,1.278,3.467,3.467,0,0,1-1.791.45,3.636,3.636,0,0,1-2.034-.576,3.8,3.8,0,0,1-1.368-1.611,5.6,5.6,0,0,1-.486-2.4,5.492,5.492,0,0,1,.486-2.376,3.609,3.609,0,0,1,3.4-2.142,3.467,3.467,0,0,1,1.791.45,2.893,2.893,0,0,1,1.161,1.278V5.922a.693.693,0,0,1,.189-.513A.718.718,0,0,1,55.89,5.22Zm-3.384,11.7a2.371,2.371,0,0,0,1.971-.873,3.9,3.9,0,0,0,.693-2.475,3.856,3.856,0,0,0-.693-2.466,2.381,2.381,0,0,0-1.971-.864,2.433,2.433,0,0,0-1.989.864,3.724,3.724,0,0,0-.711,2.43,3.9,3.9,0,0,0,.711,2.493A2.4,2.4,0,0,0,52.506,16.92Zm10.458,1.206a4.22,4.22,0,0,1-2.187-.558,3.719,3.719,0,0,1-1.458-1.593,5.346,5.346,0,0,1-.513-2.4,5.346,5.346,0,0,1,.513-2.4,3.719,3.719,0,0,1,1.458-1.593,4.22,4.22,0,0,1,2.187-.558,4.269,4.269,0,0,1,2.2.558,3.7,3.7,0,0,1,1.467,1.593,5.346,5.346,0,0,1,.513,2.4,5.346,5.346,0,0,1-.513,2.4,3.7,3.7,0,0,1-1.467,1.593A4.269,4.269,0,0,1,62.964,18.126Zm0-1.206a2.412,2.412,0,0,0,1.989-.855,3.882,3.882,0,0,0,.693-2.493,3.859,3.859,0,0,0-.7-2.475,2.682,2.682,0,0,0-3.96,0,3.859,3.859,0,0,0-.7,2.475,3.888,3.888,0,0,0,.693,2.484A2.4,2.4,0,0,0,62.964,16.92Zm20.7-11.7a.632.632,0,0,1,.5.207.807.807,0,0,1,.18.549V17.334a.783.783,0,0,1-.189.549.683.683,0,0,1-.531.207.751.751,0,0,1-.594-.306l-7.47-9.99v9.54a.783.783,0,0,1-.189.549.66.66,0,0,1-.513.207.632.632,0,0,1-.5-.207.807.807,0,0,1-.18-.549V5.976a.783.783,0,0,1,.189-.549A.683.683,0,0,1,74.9,5.22a.767.767,0,0,1,.612.306l7.452,9.99V5.976a.783.783,0,0,1,.189-.549A.66.66,0,0,1,83.664,5.22ZM88,18.09a.757.757,0,0,1-.531-.189.683.683,0,0,1-.207-.531v-7.6a.683.683,0,0,1,.207-.531A.757.757,0,0,1,88,9.054a.725.725,0,0,1,.522.189.7.7,0,0,1,.2.531v7.6a.694.694,0,0,1-.2.54A.746.746,0,0,1,88,18.09ZM88,7.164a.988.988,0,0,1-.7-.252.868.868,0,0,1-.27-.666A.847.847,0,0,1,87.3,5.6a1.1,1.1,0,0,1,1.4,0,.847.847,0,0,1,.27.648.868.868,0,0,1-.27.666A.988.988,0,0,1,88,7.164ZM97.758,9.5a.658.658,0,0,1,.63-.432.739.739,0,0,1,.486.18.562.562,0,0,1,.216.45.57.57,0,0,1-.072.288l-3.51,7.56a.841.841,0,0,1-.324.369.867.867,0,0,1-.468.135.837.837,0,0,1-.45-.135.966.966,0,0,1-.342-.369L90.432,9.99a.535.535,0,0,1-.072-.27.589.589,0,0,1,.243-.468.823.823,0,0,1,.531-.2.65.65,0,0,1,.351.108.689.689,0,0,1,.261.306l3.006,6.75Zm9.612,6.462a.443.443,0,0,1,.342.162.6.6,0,0,1,.144.414q0,.45-.63.828a5.449,5.449,0,0,1-1.368.567,5.519,5.519,0,0,1-1.4.189,4.287,4.287,0,0,1-3.213-1.206,4.56,4.56,0,0,1-1.179-3.33,5.227,5.227,0,0,1,.522-2.385,3.9,3.9,0,0,1,1.467-1.611,4.05,4.05,0,0,1,2.151-.576,3.481,3.481,0,0,1,2.718,1.116,4.343,4.343,0,0,1,1.008,3.024.775.775,0,0,1-.144.522.6.6,0,0,1-.468.162h-5.8q.162,3.1,2.934,3.1a3.439,3.439,0,0,0,1.206-.189,7.841,7.841,0,0,0,1.08-.513A1.712,1.712,0,0,1,107.37,15.966Zm-3.15-5.814a2.442,2.442,0,0,0-1.845.72,3.29,3.29,0,0,0-.819,2.034h5.094a3.118,3.118,0,0,0-.666-2.043A2.234,2.234,0,0,0,104.22,10.152Zm6.588,7.938a.757.757,0,0,1-.531-.189.683.683,0,0,1-.207-.531V5.94a.683.683,0,0,1,.207-.531.757.757,0,0,1,.531-.189.732.732,0,0,1,.513.189.683.683,0,0,1,.207.531V17.37a.683.683,0,0,1-.207.531A.732.732,0,0,1,110.808,18.09ZM126.4,16.758a.727.727,0,0,1,.5.162.574.574,0,0,1,.18.45.614.614,0,0,1-.171.468A.721.721,0,0,1,126.4,18h-5.958a.721.721,0,0,1-.513-.162.614.614,0,0,1-.171-.468.574.574,0,0,1,.18-.45.727.727,0,0,1,.5-.162h2.232V7.11l-1.962,1.278a.54.54,0,0,1-.288.09.556.556,0,0,1-.441-.234.787.787,0,0,1-.189-.5.57.57,0,0,1,.288-.54l2.736-1.782a1.146,1.146,0,0,1,.63-.2.683.683,0,0,1,.5.2.755.755,0,0,1,.2.558V16.758Z" transform="translate(16 12)" fill="#007bc7"/>
    </g>
    <g id="Navegación_-_Vertical_-_A1-3" data-name="Navegación - Vertical - A1" transform="translate(-4462 -18406)">
      <rect id="Rectangle_24357-3" data-name="Rectangle 24357" width="158.558" height="36.924" rx="8" transform="translate(0.522 5.202)" fill="#fff" opacity="0"/>
      <path id="_Text_Body_1_Selected_On_Surface_Medium_Emphasis_Left_7" data-name="✱ / Text / Body 1 / Selected / On Surface / Medium Emphasis / Left " d="M12.492,17.154a.675.675,0,0,1,.072.306.572.572,0,0,1-.207.45.729.729,0,0,1-.5.18.637.637,0,0,1-.63-.432L9.954,14.742H3.168l-1.3,2.916a.637.637,0,0,1-.63.432.742.742,0,0,1-.5-.189.588.588,0,0,1-.216-.459.639.639,0,0,1,.072-.288L5.742,5.706a.776.776,0,0,1,.324-.378A.913.913,0,0,1,6.534,5.2a.9.9,0,0,1,.486.135.841.841,0,0,1,.324.369ZM9.414,13.518,6.552,7.056,3.708,13.518Zm9.432-4.5q3.15,0,3.15,3.474V17.37a.657.657,0,0,1-.72.72.75.75,0,0,1-.54-.189.7.7,0,0,1-.2-.531V12.582a2.717,2.717,0,0,0-.477-1.782,1.9,1.9,0,0,0-1.521-.558,2.568,2.568,0,0,0-1.926.738,2.738,2.738,0,0,0-.72,2V17.37a.657.657,0,0,1-.72.72.75.75,0,0,1-.54-.189.7.7,0,0,1-.2-.531v-7.6a.706.706,0,0,1,.2-.522.73.73,0,0,1,.54-.2.676.676,0,0,1,.513.2.7.7,0,0,1,.189.5v.918a2.952,2.952,0,0,1,1.206-1.233A3.618,3.618,0,0,1,18.846,9.018ZM25.4,18.09a.757.757,0,0,1-.531-.189.683.683,0,0,1-.207-.531v-7.6a.683.683,0,0,1,.207-.531.757.757,0,0,1,.531-.189.725.725,0,0,1,.522.189.7.7,0,0,1,.2.531v7.6a.694.694,0,0,1-.2.54A.746.746,0,0,1,25.4,18.09Zm0-10.926a.988.988,0,0,1-.7-.252.868.868,0,0,1-.27-.666A.847.847,0,0,1,24.7,5.6a1.1,1.1,0,0,1,1.4,0,.847.847,0,0,1,.27.648.868.868,0,0,1-.27.666A.988.988,0,0,1,25.4,7.164ZM35.874,5.22a.73.73,0,0,1,.54.2.683.683,0,0,1,.2.5V17.37a.706.706,0,0,1-.2.522.73.73,0,0,1-.54.2.7.7,0,0,1-.531-.2.725.725,0,0,1-.189-.522V16.4a2.893,2.893,0,0,1-1.161,1.278,3.467,3.467,0,0,1-1.791.45,3.636,3.636,0,0,1-2.034-.576A3.8,3.8,0,0,1,28.8,15.939a5.6,5.6,0,0,1-.486-2.4A5.492,5.492,0,0,1,28.8,11.16a3.609,3.609,0,0,1,3.4-2.142,3.467,3.467,0,0,1,1.791.45,2.893,2.893,0,0,1,1.161,1.278V5.922a.693.693,0,0,1,.189-.513A.718.718,0,0,1,35.874,5.22ZM32.49,16.92a2.371,2.371,0,0,0,1.971-.873,3.9,3.9,0,0,0,.693-2.475,3.856,3.856,0,0,0-.693-2.466,2.381,2.381,0,0,0-1.971-.864,2.433,2.433,0,0,0-1.989.864,3.724,3.724,0,0,0-.711,2.43,3.9,3.9,0,0,0,.711,2.493A2.4,2.4,0,0,0,32.49,16.92Zm10.4-7.9q3.294,0,3.294,3.456v4.9a.725.725,0,0,1-.189.522.676.676,0,0,1-.513.2.68.68,0,0,1-.72-.72v-.864a2.575,2.575,0,0,1-1.044,1.2,3.077,3.077,0,0,1-1.62.423,3.545,3.545,0,0,1-1.557-.342,2.782,2.782,0,0,1-1.125-.954,2.358,2.358,0,0,1-.414-1.35,2.192,2.192,0,0,1,.5-1.539,3.058,3.058,0,0,1,1.656-.792,16.362,16.362,0,0,1,3.2-.243h.4v-.594a2.367,2.367,0,0,0-.441-1.584,1.811,1.811,0,0,0-1.431-.5,5.287,5.287,0,0,0-2.484.666,1.643,1.643,0,0,1-.684.306.462.462,0,0,1-.36-.162.6.6,0,0,1-.144-.414.68.68,0,0,1,.153-.441,1.793,1.793,0,0,1,.5-.387A5.791,5.791,0,0,1,41.3,9.225,6.346,6.346,0,0,1,42.894,9.018ZM42.3,16.974a2.339,2.339,0,0,0,1.773-.729,2.618,2.618,0,0,0,.693-1.881v-.522h-.324a16.111,16.111,0,0,0-2.412.135,2.344,2.344,0,0,0-1.179.45,1.181,1.181,0,0,0-.351.927,1.49,1.49,0,0,0,.513,1.161A1.858,1.858,0,0,0,42.3,16.974ZM55.89,5.22a.73.73,0,0,1,.54.2.683.683,0,0,1,.2.5V17.37a.706.706,0,0,1-.2.522.73.73,0,0,1-.54.2.7.7,0,0,1-.531-.2.725.725,0,0,1-.189-.522V16.4a2.893,2.893,0,0,1-1.161,1.278,3.467,3.467,0,0,1-1.791.45,3.636,3.636,0,0,1-2.034-.576,3.8,3.8,0,0,1-1.368-1.611,5.6,5.6,0,0,1-.486-2.4,5.492,5.492,0,0,1,.486-2.376,3.609,3.609,0,0,1,3.4-2.142,3.467,3.467,0,0,1,1.791.45,2.893,2.893,0,0,1,1.161,1.278V5.922a.693.693,0,0,1,.189-.513A.718.718,0,0,1,55.89,5.22Zm-3.384,11.7a2.371,2.371,0,0,0,1.971-.873,3.9,3.9,0,0,0,.693-2.475,3.856,3.856,0,0,0-.693-2.466,2.381,2.381,0,0,0-1.971-.864,2.433,2.433,0,0,0-1.989.864,3.724,3.724,0,0,0-.711,2.43,3.9,3.9,0,0,0,.711,2.493A2.4,2.4,0,0,0,52.506,16.92Zm10.458,1.206a4.22,4.22,0,0,1-2.187-.558,3.719,3.719,0,0,1-1.458-1.593,5.346,5.346,0,0,1-.513-2.4,5.346,5.346,0,0,1,.513-2.4,3.719,3.719,0,0,1,1.458-1.593,4.22,4.22,0,0,1,2.187-.558,4.269,4.269,0,0,1,2.2.558,3.7,3.7,0,0,1,1.467,1.593,5.346,5.346,0,0,1,.513,2.4,5.346,5.346,0,0,1-.513,2.4,3.7,3.7,0,0,1-1.467,1.593A4.269,4.269,0,0,1,62.964,18.126Zm0-1.206a2.412,2.412,0,0,0,1.989-.855,3.882,3.882,0,0,0,.693-2.493,3.859,3.859,0,0,0-.7-2.475,2.682,2.682,0,0,0-3.96,0,3.859,3.859,0,0,0-.7,2.475,3.888,3.888,0,0,0,.693,2.484A2.4,2.4,0,0,0,62.964,16.92Zm20.7-11.7a.632.632,0,0,1,.5.207.807.807,0,0,1,.18.549V17.334a.783.783,0,0,1-.189.549.683.683,0,0,1-.531.207.751.751,0,0,1-.594-.306l-7.47-9.99v9.54a.783.783,0,0,1-.189.549.66.66,0,0,1-.513.207.632.632,0,0,1-.5-.207.807.807,0,0,1-.18-.549V5.976a.783.783,0,0,1,.189-.549A.683.683,0,0,1,74.9,5.22a.767.767,0,0,1,.612.306l7.452,9.99V5.976a.783.783,0,0,1,.189-.549A.66.66,0,0,1,83.664,5.22ZM88,18.09a.757.757,0,0,1-.531-.189.683.683,0,0,1-.207-.531v-7.6a.683.683,0,0,1,.207-.531A.757.757,0,0,1,88,9.054a.725.725,0,0,1,.522.189.7.7,0,0,1,.2.531v7.6a.694.694,0,0,1-.2.54A.746.746,0,0,1,88,18.09ZM88,7.164a.988.988,0,0,1-.7-.252.868.868,0,0,1-.27-.666A.847.847,0,0,1,87.3,5.6a1.1,1.1,0,0,1,1.4,0,.847.847,0,0,1,.27.648.868.868,0,0,1-.27.666A.988.988,0,0,1,88,7.164ZM97.758,9.5a.658.658,0,0,1,.63-.432.739.739,0,0,1,.486.18.562.562,0,0,1,.216.45.57.57,0,0,1-.072.288l-3.51,7.56a.841.841,0,0,1-.324.369.867.867,0,0,1-.468.135.837.837,0,0,1-.45-.135.966.966,0,0,1-.342-.369L90.432,9.99a.535.535,0,0,1-.072-.27.589.589,0,0,1,.243-.468.823.823,0,0,1,.531-.2.65.65,0,0,1,.351.108.689.689,0,0,1,.261.306l3.006,6.75Zm9.612,6.462a.443.443,0,0,1,.342.162.6.6,0,0,1,.144.414q0,.45-.63.828a5.449,5.449,0,0,1-1.368.567,5.519,5.519,0,0,1-1.4.189,4.287,4.287,0,0,1-3.213-1.206,4.56,4.56,0,0,1-1.179-3.33,5.227,5.227,0,0,1,.522-2.385,3.9,3.9,0,0,1,1.467-1.611,4.05,4.05,0,0,1,2.151-.576,3.481,3.481,0,0,1,2.718,1.116,4.343,4.343,0,0,1,1.008,3.024.775.775,0,0,1-.144.522.6.6,0,0,1-.468.162h-5.8q.162,3.1,2.934,3.1a3.439,3.439,0,0,0,1.206-.189,7.841,7.841,0,0,0,1.08-.513A1.712,1.712,0,0,1,107.37,15.966Zm-3.15-5.814a2.442,2.442,0,0,0-1.845.72,3.29,3.29,0,0,0-.819,2.034h5.094a3.118,3.118,0,0,0-.666-2.043A2.234,2.234,0,0,0,104.22,10.152Zm6.588,7.938a.757.757,0,0,1-.531-.189.683.683,0,0,1-.207-.531V5.94a.683.683,0,0,1,.207-.531.757.757,0,0,1,.531-.189.732.732,0,0,1,.513.189.683.683,0,0,1,.207.531V17.37a.683.683,0,0,1-.207.531A.732.732,0,0,1,110.808,18.09ZM126.4,16.758a.727.727,0,0,1,.5.162.574.574,0,0,1,.18.45.614.614,0,0,1-.171.468A.721.721,0,0,1,126.4,18h-5.958a.721.721,0,0,1-.513-.162.614.614,0,0,1-.171-.468.574.574,0,0,1,.18-.45.727.727,0,0,1,.5-.162h2.232V7.11l-1.962,1.278a.54.54,0,0,1-.288.09.556.556,0,0,1-.441-.234.787.787,0,0,1-.189-.5.57.57,0,0,1,.288-.54l2.736-1.782a1.146,1.146,0,0,1,.63-.2.683.683,0,0,1,.5.2.755.755,0,0,1,.2.558V16.758Z" transform="translate(16 12)" fill="#38485c"/>
    </g>
  </g>
</svg>
