<svg xmlns="http://www.w3.org/2000/svg" width="712" height="192" viewBox="0 0 712 192">
  <g id="Group_32460" data-name="Group 32460" transform="translate(4648 18800)">
    <rect id="Rectangle_26381" data-name="Rectangle 26381" width="712" height="192" rx="8" transform="translate(-4648 -18800)" fill="#fff"/>
    <path id="Rectangle_26381_-_Outline" data-name="Rectangle 26381 - Outline" d="M8,2A6.007,6.007,0,0,0,2,8V184a6.007,6.007,0,0,0,6,6H704a6.007,6.007,0,0,0,6-6V8a6.007,6.007,0,0,0-6-6H8M8,0H704a8,8,0,0,1,8,8V184a8,8,0,0,1-8,8H8a8,8,0,0,1-8-8V8A8,8,0,0,1,8,0Z" transform="translate(-4648 -18800)" fill="#38485c"/>
    <g id="Botón_Fantasma_-_Grande" data-name="Botón Fantasma - Grande" transform="translate(-4130 -18728)">
      <rect id="Rectangle_3061" data-name="Rectangle 3061" width="87.628" height="37.842" rx="8" transform="translate(1.368 4.302)" fill="#f5f9fc"/>
      <path id="Path_31930" data-name="Path 31930" d="M9.18-6.552a3.07,3.07,0,0,1,1.7,1.116,3.222,3.222,0,0,1,.6,1.98A3.056,3.056,0,0,1,10.323-.918,5.023,5.023,0,0,1,7.128,0H2.484a1.127,1.127,0,0,1-.819-.288,1.076,1.076,0,0,1-.3-.81V-11.592a1.076,1.076,0,0,1,.3-.81,1.127,1.127,0,0,1,.819-.288H6.948a4.949,4.949,0,0,1,3.1.873,2.912,2.912,0,0,1,1.125,2.439,2.91,2.91,0,0,1-.531,1.746A3.036,3.036,0,0,1,9.18-6.552ZM3.636-7.344H6.57q2.394,0,2.394-1.782a1.537,1.537,0,0,0-.594-1.332,3.062,3.062,0,0,0-1.8-.432H3.636ZM6.876-1.8a2.992,2.992,0,0,0,1.836-.45,1.671,1.671,0,0,0,.576-1.4A1.711,1.711,0,0,0,8.7-5.076a2.91,2.91,0,0,0-1.827-.468H3.636V-1.8ZM17.478.144a4.843,4.843,0,0,1-2.367-.558,3.861,3.861,0,0,1-1.575-1.6,5.079,5.079,0,0,1-.558-2.43,5.026,5.026,0,0,1,.558-2.421A3.874,3.874,0,0,1,15.111-8.46a4.843,4.843,0,0,1,2.367-.558,4.843,4.843,0,0,1,2.367.558,3.818,3.818,0,0,1,1.566,1.593,5.093,5.093,0,0,1,.549,2.421,5.147,5.147,0,0,1-.549,2.43,3.805,3.805,0,0,1-1.566,1.6A4.843,4.843,0,0,1,17.478.144ZM17.46-1.6a2.017,2.017,0,0,0,1.674-.72,3.345,3.345,0,0,0,.576-2.124,3.352,3.352,0,0,0-.576-2.115,1.986,1.986,0,0,0-1.656-.729,2.012,2.012,0,0,0-1.665.729,3.314,3.314,0,0,0-.585,2.115A3.345,3.345,0,0,0,15.8-2.322,2,2,0,0,0,17.46-1.6Zm10.872.036q.9.054.9.81a.732.732,0,0,1-.351.657,1.675,1.675,0,0,1-1,.189L27.4.054a2.9,2.9,0,0,1-3.024-3.24V-7.11h-.9a1.143,1.143,0,0,1-.747-.216.771.771,0,0,1-.261-.63.771.771,0,0,1,.261-.63,1.143,1.143,0,0,1,.747-.216h.9v-1.656a1.012,1.012,0,0,1,.306-.774,1.159,1.159,0,0,1,.828-.288,1.134,1.134,0,0,1,.81.288,1.012,1.012,0,0,1,.306.774V-8.8h1.53a1.143,1.143,0,0,1,.747.216.771.771,0,0,1,.261.63.771.771,0,0,1-.261.63,1.143,1.143,0,0,1-.747.216h-1.53v4.086q0,1.332,1.224,1.422ZM34.416.144a4.843,4.843,0,0,1-2.367-.558,3.861,3.861,0,0,1-1.575-1.6,5.079,5.079,0,0,1-.558-2.43,5.026,5.026,0,0,1,.558-2.421A3.874,3.874,0,0,1,32.049-8.46a4.843,4.843,0,0,1,2.367-.558,4.843,4.843,0,0,1,2.367.558,3.818,3.818,0,0,1,1.566,1.593A5.093,5.093,0,0,1,38.9-4.446a5.147,5.147,0,0,1-.549,2.43,3.805,3.805,0,0,1-1.566,1.6A4.843,4.843,0,0,1,34.416.144ZM34.4-1.6a2.017,2.017,0,0,0,1.674-.72,3.345,3.345,0,0,0,.576-2.124,3.352,3.352,0,0,0-.576-2.115,1.986,1.986,0,0,0-1.656-.729,2.012,2.012,0,0,0-1.665.729,3.314,3.314,0,0,0-.585,2.115,3.345,3.345,0,0,0,.576,2.124A2,2,0,0,0,34.4-1.6Zm.468-8.406a.671.671,0,0,1-.4.144.575.575,0,0,1-.423-.171.554.554,0,0,1-.171-.4.671.671,0,0,1,.144-.4l1.746-2.322a1.191,1.191,0,0,1,.954-.54.919.919,0,0,1,.675.279.9.9,0,0,1,.279.657,1.053,1.053,0,0,1-.486.864Zm11,.99a2.942,2.942,0,0,1,2.358.9A4.081,4.081,0,0,1,49-5.4V-.972a1.052,1.052,0,0,1-.3.792,1.127,1.127,0,0,1-.819.288,1.159,1.159,0,0,1-.828-.288,1.035,1.035,0,0,1-.306-.792v-4.3a2.334,2.334,0,0,0-.387-1.494,1.487,1.487,0,0,0-1.215-.468,2.054,2.054,0,0,0-1.557.612A2.272,2.272,0,0,0,43-4.986V-.972A1.035,1.035,0,0,1,42.7-.18a1.159,1.159,0,0,1-.828.288,1.127,1.127,0,0,1-.819-.288,1.052,1.052,0,0,1-.3-.792V-7.938a.99.99,0,0,1,.306-.756,1.159,1.159,0,0,1,.828-.288,1.072,1.072,0,0,1,.765.279.954.954,0,0,1,.3.729v.486a3.044,3.044,0,0,1,1.206-1.134A3.629,3.629,0,0,1,45.864-9.018Z" transform="translate(20 30)" fill="#007bc7"/>
    </g>
    <g id="Navegación_-_Horizontal_-_L" data-name="Navegación - Horizontal - L" transform="translate(-4257 -18728)">
      <rect id="Rectangle_26341" data-name="Rectangle 26341" width="115.692" height="41.01" rx="8" transform="translate(1.566 4.356)" fill="#fff"/>
      <path id="Path_31929" data-name="Path 31929" d="M11.052-12.78a.632.632,0,0,1,.5.207.807.807,0,0,1,.18.549V-.666a.783.783,0,0,1-.189.549.683.683,0,0,1-.531.207.751.751,0,0,1-.594-.306l-7.47-9.99v9.54a.783.783,0,0,1-.189.549A.66.66,0,0,1,2.25.09a.632.632,0,0,1-.5-.207.807.807,0,0,1-.18-.549V-12.024a.783.783,0,0,1,.189-.549.683.683,0,0,1,.531-.207.767.767,0,0,1,.612.306l7.452,9.99v-9.54a.783.783,0,0,1,.189-.549A.66.66,0,0,1,11.052-12.78Zm7.182,3.8q3.294,0,3.294,3.456v4.9a.725.725,0,0,1-.189.522.676.676,0,0,1-.513.2.706.706,0,0,1-.522-.2.706.706,0,0,1-.2-.522v-.864A2.575,2.575,0,0,1,19.062-.3a3.077,3.077,0,0,1-1.62.423,3.545,3.545,0,0,1-1.557-.342A2.782,2.782,0,0,1,14.76-1.17a2.358,2.358,0,0,1-.414-1.35,2.192,2.192,0,0,1,.5-1.539,3.058,3.058,0,0,1,1.656-.792,16.362,16.362,0,0,1,3.2-.243h.4v-.594a2.367,2.367,0,0,0-.441-1.584,1.811,1.811,0,0,0-1.431-.5,5.287,5.287,0,0,0-2.484.666,1.643,1.643,0,0,1-.684.306.462.462,0,0,1-.36-.162.6.6,0,0,1-.144-.414.68.68,0,0,1,.153-.441,1.793,1.793,0,0,1,.495-.387,5.791,5.791,0,0,1,1.431-.567A6.346,6.346,0,0,1,18.234-8.982ZM17.64-1.026a2.339,2.339,0,0,0,1.773-.729,2.618,2.618,0,0,0,.693-1.881v-.522h-.324a16.111,16.111,0,0,0-2.412.135,2.344,2.344,0,0,0-1.179.45,1.181,1.181,0,0,0-.351.927,1.49,1.49,0,0,0,.513,1.161A1.858,1.858,0,0,0,17.64-1.026ZM30.51-8.5a.658.658,0,0,1,.63-.432.739.739,0,0,1,.486.18.562.562,0,0,1,.216.45.57.57,0,0,1-.072.288L28.26-.45a.841.841,0,0,1-.324.369.867.867,0,0,1-.468.135.837.837,0,0,1-.45-.135.966.966,0,0,1-.342-.369L23.184-8.01a.535.535,0,0,1-.072-.27.589.589,0,0,1,.243-.468.823.823,0,0,1,.531-.2.65.65,0,0,1,.351.108.689.689,0,0,1,.261.306L27.5-1.782Zm9.612,6.462a.443.443,0,0,1,.342.162.6.6,0,0,1,.144.414q0,.45-.63.828a5.449,5.449,0,0,1-1.368.567,5.519,5.519,0,0,1-1.4.189A4.287,4.287,0,0,1,33.993-1.08a4.56,4.56,0,0,1-1.179-3.33A5.227,5.227,0,0,1,33.336-6.8,3.9,3.9,0,0,1,34.8-8.406a4.05,4.05,0,0,1,2.151-.576,3.481,3.481,0,0,1,2.718,1.116A4.343,4.343,0,0,1,40.68-4.842a.775.775,0,0,1-.144.522.6.6,0,0,1-.468.162h-5.8q.162,3.1,2.934,3.1a3.439,3.439,0,0,0,1.206-.189,7.841,7.841,0,0,0,1.08-.513A1.712,1.712,0,0,1,40.122-2.034Zm-3.15-5.814a2.442,2.442,0,0,0-1.845.72,3.29,3.29,0,0,0-.819,2.034H39.4a3.118,3.118,0,0,0-.666-2.043A2.234,2.234,0,0,0,36.972-7.848Zm12.96-1.1a.73.73,0,0,1,.54.2.706.706,0,0,1,.2.522V-.594a4,4,0,0,1-1.008,2.961,4.076,4.076,0,0,1-2.988,1,6.208,6.208,0,0,1-3.2-.756q-.648-.36-.648-.828a.625.625,0,0,1,.135-.414.435.435,0,0,1,.351-.162,1.747,1.747,0,0,1,.648.252A8.321,8.321,0,0,0,45.2,1.98a4.76,4.76,0,0,0,1.458.2A2.55,2.55,0,0,0,48.582,1.5,2.738,2.738,0,0,0,49.23-.468V-2.016a2.746,2.746,0,0,1-1.161,1.3,3.639,3.639,0,0,1-1.845.45,3.863,3.863,0,0,1-2.043-.54,3.651,3.651,0,0,1-1.386-1.53A5.047,5.047,0,0,1,42.3-4.626a5.047,5.047,0,0,1,.495-2.286,3.651,3.651,0,0,1,1.386-1.53,3.863,3.863,0,0,1,2.043-.54,3.553,3.553,0,0,1,1.818.45,2.877,2.877,0,0,1,1.17,1.278v-.972a.725.725,0,0,1,.189-.522A.7.7,0,0,1,49.932-8.946Zm-3.42,7.47a2.474,2.474,0,0,0,1.98-.837,3.433,3.433,0,0,0,.72-2.313,3.433,3.433,0,0,0-.711-2.3,2.468,2.468,0,0,0-1.989-.837,2.522,2.522,0,0,0-2.007.837,3.376,3.376,0,0,0-.729,2.3,3.4,3.4,0,0,0,.729,2.313A2.522,2.522,0,0,0,46.512-1.476Zm10.44-7.506q3.294,0,3.294,3.456v4.9a.725.725,0,0,1-.189.522.676.676,0,0,1-.513.2.706.706,0,0,1-.522-.2.706.706,0,0,1-.2-.522v-.864A2.575,2.575,0,0,1,57.78-.3a3.077,3.077,0,0,1-1.62.423A3.545,3.545,0,0,1,54.6-.216a2.782,2.782,0,0,1-1.125-.954,2.358,2.358,0,0,1-.414-1.35,2.192,2.192,0,0,1,.5-1.539,3.058,3.058,0,0,1,1.656-.792,16.362,16.362,0,0,1,3.2-.243h.4v-.594a2.367,2.367,0,0,0-.441-1.584,1.811,1.811,0,0,0-1.431-.5,5.287,5.287,0,0,0-2.484.666,1.643,1.643,0,0,1-.684.306.462.462,0,0,1-.36-.162.6.6,0,0,1-.144-.414.68.68,0,0,1,.153-.441,1.793,1.793,0,0,1,.5-.387,5.791,5.791,0,0,1,1.431-.567A6.346,6.346,0,0,1,56.952-8.982Zm-.594,7.956a2.339,2.339,0,0,0,1.773-.729,2.618,2.618,0,0,0,.693-1.881v-.522H58.5a16.111,16.111,0,0,0-2.412.135,2.344,2.344,0,0,0-1.179.45,1.181,1.181,0,0,0-.351.927,1.49,1.49,0,0,0,.513,1.161A1.858,1.858,0,0,0,56.358-1.026ZM66.528.126a4.185,4.185,0,0,1-2.169-.558A3.729,3.729,0,0,1,62.9-2.016a5.247,5.247,0,0,1-.513-2.376,5.209,5.209,0,0,1,.531-2.394A3.923,3.923,0,0,1,64.4-8.406a4.165,4.165,0,0,1,2.2-.576,5.019,5.019,0,0,1,1.359.189,3.747,3.747,0,0,1,1.179.549,1.6,1.6,0,0,1,.459.423.823.823,0,0,1,.135.459.625.625,0,0,1-.135.414.435.435,0,0,1-.351.162.607.607,0,0,1-.27-.072A1.734,1.734,0,0,1,68.733-7a1.235,1.235,0,0,0-.135-.09,5.779,5.779,0,0,0-.891-.486,2.643,2.643,0,0,0-1.035-.18,2.492,2.492,0,0,0-2.043.891A3.8,3.8,0,0,0,63.9-4.392a3.691,3.691,0,0,0,.729,2.448,2.527,2.527,0,0,0,2.043.864,2.781,2.781,0,0,0,1.053-.18,4.853,4.853,0,0,0,.891-.486,4.241,4.241,0,0,1,.378-.216.714.714,0,0,1,.306-.09.417.417,0,0,1,.333.162.625.625,0,0,1,.135.414.746.746,0,0,1-.126.423,1.759,1.759,0,0,1-.468.423,4.283,4.283,0,0,1-1.215.549A5.1,5.1,0,0,1,66.528.126ZM72.27.09A.757.757,0,0,1,71.739-.1a.683.683,0,0,1-.207-.531v-7.6a.683.683,0,0,1,.207-.531.757.757,0,0,1,.531-.189.725.725,0,0,1,.522.189.7.7,0,0,1,.2.531v7.6a.694.694,0,0,1-.2.54A.746.746,0,0,1,72.27.09Zm0-10.926a.988.988,0,0,1-.7-.252.868.868,0,0,1-.27-.666.847.847,0,0,1,.27-.648.988.988,0,0,1,.7-.252.988.988,0,0,1,.7.252.847.847,0,0,1,.27.648.868.868,0,0,1-.27.666A.988.988,0,0,1,72.27-10.836ZM79.344.126a4.22,4.22,0,0,1-2.187-.558A3.719,3.719,0,0,1,75.7-2.025a5.346,5.346,0,0,1-.513-2.4,5.346,5.346,0,0,1,.513-2.4,3.719,3.719,0,0,1,1.458-1.593,4.22,4.22,0,0,1,2.187-.558,4.269,4.269,0,0,1,2.2.558,3.7,3.7,0,0,1,1.467,1.593,5.346,5.346,0,0,1,.513,2.4,5.346,5.346,0,0,1-.513,2.4A3.7,3.7,0,0,1,81.54-.432,4.269,4.269,0,0,1,79.344.126Zm0-1.206a2.412,2.412,0,0,0,1.989-.855,3.882,3.882,0,0,0,.693-2.493,3.859,3.859,0,0,0-.7-2.475,2.4,2.4,0,0,0-1.98-.873,2.4,2.4,0,0,0-1.98.873,3.859,3.859,0,0,0-.7,2.475,3.888,3.888,0,0,0,.693,2.484A2.4,2.4,0,0,0,79.344-1.08Zm.324-8.856a.479.479,0,0,1-.288.108.433.433,0,0,1-.306-.117.368.368,0,0,1-.126-.279.408.408,0,0,1,.108-.27l2.088-2.736a.93.93,0,0,1,.738-.414.677.677,0,0,1,.486.189.631.631,0,0,1,.2.477.889.889,0,0,1-.36.684Zm10.44.954q3.15,0,3.15,3.474V-.63a.718.718,0,0,1-.189.531.718.718,0,0,1-.531.189A.75.75,0,0,1,92-.1a.7.7,0,0,1-.2-.531V-5.418A2.717,2.717,0,0,0,91.323-7.2,1.9,1.9,0,0,0,89.8-7.758a2.568,2.568,0,0,0-1.926.738,2.738,2.738,0,0,0-.72,2V-.63a.718.718,0,0,1-.189.531.718.718,0,0,1-.531.189A.75.75,0,0,1,85.9-.1a.7.7,0,0,1-.2-.531v-7.6a.706.706,0,0,1,.2-.522.73.73,0,0,1,.54-.2.676.676,0,0,1,.513.2.7.7,0,0,1,.189.5v.918a2.952,2.952,0,0,1,1.206-1.233A3.618,3.618,0,0,1,90.108-8.982Z" transform="translate(12 30)" fill="#38485c"/>
    </g>
    <g id="Navegación_-_Horizontal_-_L-2" data-name="Navegación - Horizontal - L" transform="translate(-4384 -18728)">
      <rect id="Rectangle_26341-2" data-name="Rectangle 26341" width="115.692" height="41.01" rx="8" transform="translate(1.566 4.356)" fill="#fff"/>
      <path id="Path_31928" data-name="Path 31928" d="M11.052-12.78a.632.632,0,0,1,.5.207.807.807,0,0,1,.18.549V-.666a.783.783,0,0,1-.189.549.683.683,0,0,1-.531.207.751.751,0,0,1-.594-.306l-7.47-9.99v9.54a.783.783,0,0,1-.189.549A.66.66,0,0,1,2.25.09a.632.632,0,0,1-.5-.207.807.807,0,0,1-.18-.549V-12.024a.783.783,0,0,1,.189-.549.683.683,0,0,1,.531-.207.767.767,0,0,1,.612.306l7.452,9.99v-9.54a.783.783,0,0,1,.189-.549A.66.66,0,0,1,11.052-12.78Zm7.182,3.8q3.294,0,3.294,3.456v4.9a.725.725,0,0,1-.189.522.676.676,0,0,1-.513.2.706.706,0,0,1-.522-.2.706.706,0,0,1-.2-.522v-.864A2.575,2.575,0,0,1,19.062-.3a3.077,3.077,0,0,1-1.62.423,3.545,3.545,0,0,1-1.557-.342A2.782,2.782,0,0,1,14.76-1.17a2.358,2.358,0,0,1-.414-1.35,2.192,2.192,0,0,1,.5-1.539,3.058,3.058,0,0,1,1.656-.792,16.362,16.362,0,0,1,3.2-.243h.4v-.594a2.367,2.367,0,0,0-.441-1.584,1.811,1.811,0,0,0-1.431-.5,5.287,5.287,0,0,0-2.484.666,1.643,1.643,0,0,1-.684.306.462.462,0,0,1-.36-.162.6.6,0,0,1-.144-.414.68.68,0,0,1,.153-.441,1.793,1.793,0,0,1,.495-.387,5.791,5.791,0,0,1,1.431-.567A6.346,6.346,0,0,1,18.234-8.982ZM17.64-1.026a2.339,2.339,0,0,0,1.773-.729,2.618,2.618,0,0,0,.693-1.881v-.522h-.324a16.111,16.111,0,0,0-2.412.135,2.344,2.344,0,0,0-1.179.45,1.181,1.181,0,0,0-.351.927,1.49,1.49,0,0,0,.513,1.161A1.858,1.858,0,0,0,17.64-1.026ZM30.51-8.5a.658.658,0,0,1,.63-.432.739.739,0,0,1,.486.18.562.562,0,0,1,.216.45.57.57,0,0,1-.072.288L28.26-.45a.841.841,0,0,1-.324.369.867.867,0,0,1-.468.135.837.837,0,0,1-.45-.135.966.966,0,0,1-.342-.369L23.184-8.01a.535.535,0,0,1-.072-.27.589.589,0,0,1,.243-.468.823.823,0,0,1,.531-.2.65.65,0,0,1,.351.108.689.689,0,0,1,.261.306L27.5-1.782Zm9.612,6.462a.443.443,0,0,1,.342.162.6.6,0,0,1,.144.414q0,.45-.63.828a5.449,5.449,0,0,1-1.368.567,5.519,5.519,0,0,1-1.4.189A4.287,4.287,0,0,1,33.993-1.08a4.56,4.56,0,0,1-1.179-3.33A5.227,5.227,0,0,1,33.336-6.8,3.9,3.9,0,0,1,34.8-8.406a4.05,4.05,0,0,1,2.151-.576,3.481,3.481,0,0,1,2.718,1.116A4.343,4.343,0,0,1,40.68-4.842a.775.775,0,0,1-.144.522.6.6,0,0,1-.468.162h-5.8q.162,3.1,2.934,3.1a3.439,3.439,0,0,0,1.206-.189,7.841,7.841,0,0,0,1.08-.513A1.712,1.712,0,0,1,40.122-2.034Zm-3.15-5.814a2.442,2.442,0,0,0-1.845.72,3.29,3.29,0,0,0-.819,2.034H39.4a3.118,3.118,0,0,0-.666-2.043A2.234,2.234,0,0,0,36.972-7.848Zm12.96-1.1a.73.73,0,0,1,.54.2.706.706,0,0,1,.2.522V-.594a4,4,0,0,1-1.008,2.961,4.076,4.076,0,0,1-2.988,1,6.208,6.208,0,0,1-3.2-.756q-.648-.36-.648-.828a.625.625,0,0,1,.135-.414.435.435,0,0,1,.351-.162,1.747,1.747,0,0,1,.648.252A8.321,8.321,0,0,0,45.2,1.98a4.76,4.76,0,0,0,1.458.2A2.55,2.55,0,0,0,48.582,1.5,2.738,2.738,0,0,0,49.23-.468V-2.016a2.746,2.746,0,0,1-1.161,1.3,3.639,3.639,0,0,1-1.845.45,3.863,3.863,0,0,1-2.043-.54,3.651,3.651,0,0,1-1.386-1.53A5.047,5.047,0,0,1,42.3-4.626a5.047,5.047,0,0,1,.495-2.286,3.651,3.651,0,0,1,1.386-1.53,3.863,3.863,0,0,1,2.043-.54,3.553,3.553,0,0,1,1.818.45,2.877,2.877,0,0,1,1.17,1.278v-.972a.725.725,0,0,1,.189-.522A.7.7,0,0,1,49.932-8.946Zm-3.42,7.47a2.474,2.474,0,0,0,1.98-.837,3.433,3.433,0,0,0,.72-2.313,3.433,3.433,0,0,0-.711-2.3,2.468,2.468,0,0,0-1.989-.837,2.522,2.522,0,0,0-2.007.837,3.376,3.376,0,0,0-.729,2.3,3.4,3.4,0,0,0,.729,2.313A2.522,2.522,0,0,0,46.512-1.476Zm10.44-7.506q3.294,0,3.294,3.456v4.9a.725.725,0,0,1-.189.522.676.676,0,0,1-.513.2.706.706,0,0,1-.522-.2.706.706,0,0,1-.2-.522v-.864A2.575,2.575,0,0,1,57.78-.3a3.077,3.077,0,0,1-1.62.423A3.545,3.545,0,0,1,54.6-.216a2.782,2.782,0,0,1-1.125-.954,2.358,2.358,0,0,1-.414-1.35,2.192,2.192,0,0,1,.5-1.539,3.058,3.058,0,0,1,1.656-.792,16.362,16.362,0,0,1,3.2-.243h.4v-.594a2.367,2.367,0,0,0-.441-1.584,1.811,1.811,0,0,0-1.431-.5,5.287,5.287,0,0,0-2.484.666,1.643,1.643,0,0,1-.684.306.462.462,0,0,1-.36-.162.6.6,0,0,1-.144-.414.68.68,0,0,1,.153-.441,1.793,1.793,0,0,1,.5-.387,5.791,5.791,0,0,1,1.431-.567A6.346,6.346,0,0,1,56.952-8.982Zm-.594,7.956a2.339,2.339,0,0,0,1.773-.729,2.618,2.618,0,0,0,.693-1.881v-.522H58.5a16.111,16.111,0,0,0-2.412.135,2.344,2.344,0,0,0-1.179.45,1.181,1.181,0,0,0-.351.927,1.49,1.49,0,0,0,.513,1.161A1.858,1.858,0,0,0,56.358-1.026ZM66.528.126a4.185,4.185,0,0,1-2.169-.558A3.729,3.729,0,0,1,62.9-2.016a5.247,5.247,0,0,1-.513-2.376,5.209,5.209,0,0,1,.531-2.394A3.923,3.923,0,0,1,64.4-8.406a4.165,4.165,0,0,1,2.2-.576,5.019,5.019,0,0,1,1.359.189,3.747,3.747,0,0,1,1.179.549,1.6,1.6,0,0,1,.459.423.823.823,0,0,1,.135.459.625.625,0,0,1-.135.414.435.435,0,0,1-.351.162.607.607,0,0,1-.27-.072A1.734,1.734,0,0,1,68.733-7a1.235,1.235,0,0,0-.135-.09,5.779,5.779,0,0,0-.891-.486,2.643,2.643,0,0,0-1.035-.18,2.492,2.492,0,0,0-2.043.891A3.8,3.8,0,0,0,63.9-4.392a3.691,3.691,0,0,0,.729,2.448,2.527,2.527,0,0,0,2.043.864,2.781,2.781,0,0,0,1.053-.18,4.853,4.853,0,0,0,.891-.486,4.241,4.241,0,0,1,.378-.216.714.714,0,0,1,.306-.09.417.417,0,0,1,.333.162.625.625,0,0,1,.135.414.746.746,0,0,1-.126.423,1.759,1.759,0,0,1-.468.423,4.283,4.283,0,0,1-1.215.549A5.1,5.1,0,0,1,66.528.126ZM72.27.09A.757.757,0,0,1,71.739-.1a.683.683,0,0,1-.207-.531v-7.6a.683.683,0,0,1,.207-.531.757.757,0,0,1,.531-.189.725.725,0,0,1,.522.189.7.7,0,0,1,.2.531v7.6a.694.694,0,0,1-.2.54A.746.746,0,0,1,72.27.09Zm0-10.926a.988.988,0,0,1-.7-.252.868.868,0,0,1-.27-.666.847.847,0,0,1,.27-.648.988.988,0,0,1,.7-.252.988.988,0,0,1,.7.252.847.847,0,0,1,.27.648.868.868,0,0,1-.27.666A.988.988,0,0,1,72.27-10.836ZM79.344.126a4.22,4.22,0,0,1-2.187-.558A3.719,3.719,0,0,1,75.7-2.025a5.346,5.346,0,0,1-.513-2.4,5.346,5.346,0,0,1,.513-2.4,3.719,3.719,0,0,1,1.458-1.593,4.22,4.22,0,0,1,2.187-.558,4.269,4.269,0,0,1,2.2.558,3.7,3.7,0,0,1,1.467,1.593,5.346,5.346,0,0,1,.513,2.4,5.346,5.346,0,0,1-.513,2.4A3.7,3.7,0,0,1,81.54-.432,4.269,4.269,0,0,1,79.344.126Zm0-1.206a2.412,2.412,0,0,0,1.989-.855,3.882,3.882,0,0,0,.693-2.493,3.859,3.859,0,0,0-.7-2.475,2.4,2.4,0,0,0-1.98-.873,2.4,2.4,0,0,0-1.98.873,3.859,3.859,0,0,0-.7,2.475,3.888,3.888,0,0,0,.693,2.484A2.4,2.4,0,0,0,79.344-1.08Zm.324-8.856a.479.479,0,0,1-.288.108.433.433,0,0,1-.306-.117.368.368,0,0,1-.126-.279.408.408,0,0,1,.108-.27l2.088-2.736a.93.93,0,0,1,.738-.414.677.677,0,0,1,.486.189.631.631,0,0,1,.2.477.889.889,0,0,1-.36.684Zm10.44.954q3.15,0,3.15,3.474V-.63a.718.718,0,0,1-.189.531.718.718,0,0,1-.531.189A.75.75,0,0,1,92-.1a.7.7,0,0,1-.2-.531V-5.418A2.717,2.717,0,0,0,91.323-7.2,1.9,1.9,0,0,0,89.8-7.758a2.568,2.568,0,0,0-1.926.738,2.738,2.738,0,0,0-.72,2V-.63a.718.718,0,0,1-.189.531.718.718,0,0,1-.531.189A.75.75,0,0,1,85.9-.1a.7.7,0,0,1-.2-.531v-7.6a.706.706,0,0,1,.2-.522.73.73,0,0,1,.54-.2.676.676,0,0,1,.513.2.7.7,0,0,1,.189.5v.918a2.952,2.952,0,0,1,1.206-1.233A3.618,3.618,0,0,1,90.108-8.982Z" transform="translate(12 30)" fill="#38485c"/>
    </g>
    <g id="Desplegable_-_L" data-name="Desplegable - L" transform="translate(-4544 -18728)">
      <rect id="Rectangle_26341-3" data-name="Rectangle 26341" width="149.434" height="48" rx="8" fill="#fff"/>
      <g id="Group_32051" data-name="Group 32051" transform="translate(-513 -310)">
        <g id="chevron_right" transform="translate(650.434 322) rotate(90)">
          <rect id="Rectangle_32" data-name="Rectangle 32" width="24" height="24" fill="none"/>
          <path id="Path_13167" data-name="Path 13167" d="M9,102.711a1,1,0,0,0,0,1.41L12.88,108,9,111.881a1,1,0,0,0,1.41,1.41L15,108.7a1,1,0,0,0,0-1.41l-4.59-4.59A1,1,0,0,0,9,102.711Z" transform="translate(0 -96)" fill="#38485c"/>
        </g>
        <path id="Path_31927" data-name="Path 31927" d="M2.322,0a.761.761,0,0,1-.549-.2A.689.689,0,0,1,1.566-.72V-11.97a.689.689,0,0,1,.207-.522.761.761,0,0,1,.549-.2h3.51a6.407,6.407,0,0,1,4.707,1.647A6.3,6.3,0,0,1,12.2-6.354a6.314,6.314,0,0,1-1.674,4.7A6.392,6.392,0,0,1,5.832,0Zm3.42-1.26q4.932,0,4.932-5.094,0-5.076-4.932-5.076h-2.7V-1.26Zm15.7-.774a.443.443,0,0,1,.342.162.6.6,0,0,1,.144.414q0,.45-.63.828a5.449,5.449,0,0,1-1.368.567,5.519,5.519,0,0,1-1.4.189A4.287,4.287,0,0,1,15.309-1.08,4.56,4.56,0,0,1,14.13-4.41,5.227,5.227,0,0,1,14.652-6.8a3.9,3.9,0,0,1,1.467-1.611,4.05,4.05,0,0,1,2.151-.576,3.481,3.481,0,0,1,2.718,1.116A4.343,4.343,0,0,1,22-4.842a.775.775,0,0,1-.144.522.6.6,0,0,1-.468.162h-5.8q.162,3.1,2.934,3.1a3.439,3.439,0,0,0,1.206-.189,7.841,7.841,0,0,0,1.08-.513A1.712,1.712,0,0,1,21.438-2.034Zm-3.15-5.814a2.442,2.442,0,0,0-1.845.72,3.29,3.29,0,0,0-.819,2.034h5.094a3.118,3.118,0,0,0-.666-2.043A2.234,2.234,0,0,0,18.288-7.848ZM27.09.126a6.124,6.124,0,0,1-1.575-.2A4.8,4.8,0,0,1,24.192-.63a1.771,1.771,0,0,1-.459-.4.769.769,0,0,1-.135-.459.563.563,0,0,1,.135-.387.446.446,0,0,1,.351-.153,1.343,1.343,0,0,1,.63.27,5.992,5.992,0,0,0,1.071.513,3.985,3.985,0,0,0,1.323.189A2.822,2.822,0,0,0,28.62-1.4a1.1,1.1,0,0,0,.54-.99.98.98,0,0,0-.2-.639,1.638,1.638,0,0,0-.684-.432,9.715,9.715,0,0,0-1.422-.387,5.344,5.344,0,0,1-2.268-.918A1.94,1.94,0,0,1,23.9-6.336,2.265,2.265,0,0,1,24.336-7.7a2.907,2.907,0,0,1,1.2-.936,4.214,4.214,0,0,1,1.737-.342,4.891,4.891,0,0,1,1.359.189,4.041,4.041,0,0,1,1.161.531,1.17,1.17,0,0,1,.612.9.575.575,0,0,1-.144.4.443.443,0,0,1-.342.162,1.345,1.345,0,0,1-.648-.306,5.7,5.7,0,0,0-.954-.5,3.019,3.019,0,0,0-1.116-.18,2.238,2.238,0,0,0-1.359.378,1.191,1.191,0,0,0-.513,1.008,1.012,1.012,0,0,0,.189.639,1.563,1.563,0,0,0,.63.432,7.352,7.352,0,0,0,1.269.369,9.067,9.067,0,0,1,1.9.594,2.207,2.207,0,0,1,.963.792,2.234,2.234,0,0,1,.288,1.188A2.154,2.154,0,0,1,29.61-.567,4.193,4.193,0,0,1,27.09.126Zm10.1-9.108a3.636,3.636,0,0,1,2.034.576A3.8,3.8,0,0,1,40.59-6.8a5.6,5.6,0,0,1,.486,2.4,5.477,5.477,0,0,1-.486,2.385A3.722,3.722,0,0,1,39.231-.432a3.711,3.711,0,0,1-2.043.558A3.467,3.467,0,0,1,35.4-.324,2.893,2.893,0,0,1,34.236-1.6v4.23a.693.693,0,0,1-.189.513.718.718,0,0,1-.531.189.73.73,0,0,1-.54-.2.683.683,0,0,1-.2-.5V-8.226a.706.706,0,0,1,.2-.522.73.73,0,0,1,.54-.2.7.7,0,0,1,.531.2.725.725,0,0,1,.189.522v.972A2.893,2.893,0,0,1,35.4-8.532,3.467,3.467,0,0,1,37.188-8.982ZM36.9-1.08a2.407,2.407,0,0,0,1.98-.864,3.789,3.789,0,0,0,.7-2.448,3.905,3.905,0,0,0-.7-2.475,2.376,2.376,0,0,0-1.98-.891,2.381,2.381,0,0,0-1.971.864,3.856,3.856,0,0,0-.693,2.466,3.9,3.9,0,0,0,.693,2.475A2.37,2.37,0,0,0,36.9-1.08ZM43.992.09A.757.757,0,0,1,43.461-.1a.683.683,0,0,1-.207-.531V-12.06a.683.683,0,0,1,.207-.531.757.757,0,0,1,.531-.189.732.732,0,0,1,.513.189.683.683,0,0,1,.207.531V-.63a.683.683,0,0,1-.207.531A.732.732,0,0,1,43.992.09ZM54.216-2.034a.443.443,0,0,1,.342.162.6.6,0,0,1,.144.414q0,.45-.63.828A5.449,5.449,0,0,1,52.7-.063a5.519,5.519,0,0,1-1.4.189A4.287,4.287,0,0,1,48.087-1.08a4.56,4.56,0,0,1-1.179-3.33A5.227,5.227,0,0,1,47.43-6.8,3.9,3.9,0,0,1,48.9-8.406a4.05,4.05,0,0,1,2.151-.576,3.481,3.481,0,0,1,2.718,1.116,4.343,4.343,0,0,1,1.008,3.024.775.775,0,0,1-.144.522.6.6,0,0,1-.468.162h-5.8q.162,3.1,2.934,3.1a3.439,3.439,0,0,0,1.206-.189,7.841,7.841,0,0,0,1.08-.513A1.712,1.712,0,0,1,54.216-2.034Zm-3.15-5.814a2.442,2.442,0,0,0-1.845.72A3.29,3.29,0,0,0,48.4-5.094H53.5a3.118,3.118,0,0,0-.666-2.043A2.234,2.234,0,0,0,51.066-7.848Zm12.96-1.1a.73.73,0,0,1,.54.2.706.706,0,0,1,.2.522V-.594a4,4,0,0,1-1.008,2.961,4.076,4.076,0,0,1-2.988,1,6.208,6.208,0,0,1-3.2-.756q-.648-.36-.648-.828a.625.625,0,0,1,.135-.414.435.435,0,0,1,.351-.162,1.747,1.747,0,0,1,.648.252,8.321,8.321,0,0,0,1.242.522,4.76,4.76,0,0,0,1.458.2A2.55,2.55,0,0,0,62.676,1.5a2.738,2.738,0,0,0,.648-1.971V-2.016a2.746,2.746,0,0,1-1.161,1.3,3.639,3.639,0,0,1-1.845.45,3.863,3.863,0,0,1-2.043-.54,3.651,3.651,0,0,1-1.386-1.53,5.047,5.047,0,0,1-.495-2.286,5.047,5.047,0,0,1,.495-2.286,3.651,3.651,0,0,1,1.386-1.53,3.863,3.863,0,0,1,2.043-.54,3.553,3.553,0,0,1,1.818.45,2.877,2.877,0,0,1,1.17,1.278v-.972a.725.725,0,0,1,.189-.522A.7.7,0,0,1,64.026-8.946Zm-3.42,7.47a2.474,2.474,0,0,0,1.98-.837,3.433,3.433,0,0,0,.72-2.313,3.433,3.433,0,0,0-.711-2.3,2.468,2.468,0,0,0-1.989-.837,2.522,2.522,0,0,0-2.007.837,3.376,3.376,0,0,0-.729,2.3A3.4,3.4,0,0,0,58.6-2.313,2.522,2.522,0,0,0,60.606-1.476Zm10.44-7.506q3.294,0,3.294,3.456v4.9a.725.725,0,0,1-.189.522.676.676,0,0,1-.513.2.706.706,0,0,1-.522-.2.706.706,0,0,1-.2-.522v-.864A2.575,2.575,0,0,1,71.874-.3a3.077,3.077,0,0,1-1.62.423A3.545,3.545,0,0,1,68.7-.216a2.782,2.782,0,0,1-1.125-.954,2.358,2.358,0,0,1-.414-1.35,2.192,2.192,0,0,1,.5-1.539,3.058,3.058,0,0,1,1.656-.792,16.362,16.362,0,0,1,3.2-.243h.4v-.594a2.367,2.367,0,0,0-.441-1.584,1.811,1.811,0,0,0-1.431-.5,5.287,5.287,0,0,0-2.484.666,1.643,1.643,0,0,1-.684.306.462.462,0,0,1-.36-.162.6.6,0,0,1-.144-.414.68.68,0,0,1,.153-.441,1.792,1.792,0,0,1,.495-.387,5.792,5.792,0,0,1,1.431-.567A6.346,6.346,0,0,1,71.046-8.982Zm-.594,7.956a2.339,2.339,0,0,0,1.773-.729,2.619,2.619,0,0,0,.693-1.881v-.522h-.324a16.111,16.111,0,0,0-2.412.135A2.344,2.344,0,0,0,69-3.573a1.181,1.181,0,0,0-.351.927,1.49,1.49,0,0,0,.513,1.161A1.858,1.858,0,0,0,70.452-1.026ZM81.414-8.982a3.723,3.723,0,0,1,2.034.558A3.691,3.691,0,0,1,84.816-6.84,5.492,5.492,0,0,1,85.3-4.464a5.6,5.6,0,0,1-.486,2.4A3.8,3.8,0,0,1,83.448-.45a3.636,3.636,0,0,1-2.034.576,3.467,3.467,0,0,1-1.791-.45A2.893,2.893,0,0,1,78.462-1.6V-.63a.725.725,0,0,1-.189.522.7.7,0,0,1-.531.2.73.73,0,0,1-.54-.2A.706.706,0,0,1,77-.63V-12.078a.683.683,0,0,1,.2-.5.73.73,0,0,1,.54-.2.718.718,0,0,1,.531.189.693.693,0,0,1,.189.513v4.824a2.893,2.893,0,0,1,1.161-1.278A3.467,3.467,0,0,1,81.414-8.982Zm-.288,7.9a2.376,2.376,0,0,0,1.98-.891,3.937,3.937,0,0,0,.7-2.493,3.758,3.758,0,0,0-.7-2.43,2.407,2.407,0,0,0-1.98-.864,2.381,2.381,0,0,0-1.971.864,3.856,3.856,0,0,0-.693,2.466,3.9,3.9,0,0,0,.693,2.475A2.371,2.371,0,0,0,81.126-1.08ZM88.218.09A.757.757,0,0,1,87.687-.1.683.683,0,0,1,87.48-.63V-12.06a.683.683,0,0,1,.207-.531.757.757,0,0,1,.531-.189.732.732,0,0,1,.513.189.683.683,0,0,1,.207.531V-.63a.683.683,0,0,1-.207.531A.732.732,0,0,1,88.218.09ZM98.442-2.034a.443.443,0,0,1,.342.162.6.6,0,0,1,.144.414q0,.45-.63.828a5.449,5.449,0,0,1-1.368.567,5.519,5.519,0,0,1-1.4.189A4.287,4.287,0,0,1,92.313-1.08a4.56,4.56,0,0,1-1.179-3.33A5.227,5.227,0,0,1,91.656-6.8a3.9,3.9,0,0,1,1.467-1.611,4.05,4.05,0,0,1,2.151-.576,3.481,3.481,0,0,1,2.718,1.116A4.343,4.343,0,0,1,99-4.842a.775.775,0,0,1-.144.522.6.6,0,0,1-.468.162h-5.8q.162,3.1,2.934,3.1a3.439,3.439,0,0,0,1.206-.189,7.841,7.841,0,0,0,1.08-.513A1.712,1.712,0,0,1,98.442-2.034Zm-3.15-5.814a2.442,2.442,0,0,0-1.845.72,3.29,3.29,0,0,0-.819,2.034h5.094a3.118,3.118,0,0,0-.666-2.043A2.234,2.234,0,0,0,95.292-7.848Z" transform="translate(523.434 340)" fill="#38485c"/>
      </g>
    </g>
  </g>
</svg>
