<svg width="715" height="107" viewBox="0 0 715 107" fill="none" xmlns="http://www.w3.org/2000/svg">
<path d="M15 1.5C7.53557 1.5 1.5 7.53557 1.5 15C1.5 22.4644 7.53557 28.5 15 28.5C22.4644 28.5 28.5 22.4644 28.5 15C28.5 7.53557 22.4644 1.5 15 1.5Z" fill="white" stroke="#38485C" stroke-width="3"/>
<rect x="13.5" y="27" width="3" height="80" fill="#38485C"/>
<path d="M48.833 21.095C48.453 21.095 48.149 20.9873 47.921 20.772C47.7057 20.544 47.598 20.2463 47.598 19.879V9.619H44.14C43.38 9.619 43 9.28333 43 8.612C43 7.94067 43.38 7.605 44.14 7.605H53.507C54.267 7.605 54.647 7.94067 54.647 8.612C54.647 9.28333 54.267 9.619 53.507 9.619H50.049V19.879C50.049 20.2463 49.935 20.544 49.707 20.772C49.4917 20.9873 49.2003 21.095 48.833 21.095ZM57.0653 21.114C56.7233 21.114 56.4383 21.019 56.2103 20.829C55.995 20.6263 55.8873 20.3413 55.8873 19.974V12.64C55.8873 12.2727 55.995 11.994 56.2103 11.804C56.4383 11.614 56.7233 11.519 57.0653 11.519C57.4073 11.519 57.6923 11.614 57.9203 11.804C58.1483 11.994 58.2623 12.2727 58.2623 12.64V19.974C58.2623 20.3413 58.1483 20.6263 57.9203 20.829C57.6923 21.019 57.4073 21.114 57.0653 21.114ZM57.5403 10.436C57.401 10.5373 57.2617 10.588 57.1223 10.588C56.945 10.588 56.793 10.531 56.6663 10.417C56.5523 10.2903 56.4953 10.1447 56.4953 9.98C56.4953 9.84067 56.546 9.70133 56.6473 9.562L58.4903 7.111C58.7817 6.731 59.1173 6.541 59.4973 6.541C59.776 6.541 60.0103 6.64233 60.2003 6.845C60.403 7.035 60.5043 7.263 60.5043 7.529C60.5043 7.88367 60.3333 8.18767 59.9913 8.441L57.5403 10.436ZM65.5376 19.347C66.1709 19.385 66.4876 19.67 66.4876 20.202C66.4876 20.506 66.3609 20.7403 66.1076 20.905C65.8669 21.057 65.5186 21.1203 65.0626 21.095L64.5496 21.057C62.4216 20.905 61.3576 19.765 61.3576 17.637V13.495H60.4076C60.0656 13.495 59.7996 13.419 59.6096 13.267C59.4322 13.115 59.3436 12.8933 59.3436 12.602C59.3436 12.3107 59.4322 12.089 59.6096 11.937C59.7996 11.785 60.0656 11.709 60.4076 11.709H61.3576V9.961C61.3576 9.619 61.4652 9.34667 61.6806 9.144C61.8959 8.94133 62.1872 8.84 62.5546 8.84C62.9092 8.84 63.1942 8.94133 63.4096 9.144C63.6249 9.34667 63.7326 9.619 63.7326 9.961V11.709H65.3476C65.6896 11.709 65.9492 11.785 66.1266 11.937C66.3166 12.089 66.4116 12.3107 66.4116 12.602C66.4116 12.8933 66.3166 13.115 66.1266 13.267C65.9492 13.419 65.6896 13.495 65.3476 13.495H63.7326V17.808C63.7326 18.7453 64.1632 19.2457 65.0246 19.309L65.5376 19.347ZM75.0592 11.519C75.4266 11.519 75.7179 11.6203 75.9332 11.823C76.1486 12.0257 76.2562 12.298 76.2562 12.64V20.012C76.2562 20.3413 76.1422 20.6073 75.9142 20.81C75.6989 21.0127 75.4139 21.114 75.0592 21.114C74.7172 21.114 74.4449 21.019 74.2422 20.829C74.0396 20.639 73.9382 20.3793 73.9382 20.05V19.575C73.6469 20.0817 73.2542 20.4743 72.7602 20.753C72.2662 21.019 71.7089 21.152 71.0882 21.152C68.8082 21.152 67.6682 19.8727 67.6682 17.314V12.64C67.6682 12.298 67.7759 12.0257 67.9912 11.823C68.2066 11.6203 68.4916 11.519 68.8462 11.519C69.2136 11.519 69.5049 11.6203 69.7202 11.823C69.9356 12.0257 70.0432 12.298 70.0432 12.64V17.333C70.0432 17.9917 70.1762 18.4793 70.4422 18.796C70.7082 19.1127 71.1262 19.271 71.6962 19.271C72.3549 19.271 72.8806 19.0557 73.2732 18.625C73.6786 18.1817 73.8812 17.599 73.8812 16.877V12.64C73.8812 12.298 73.9889 12.0257 74.2042 11.823C74.4196 11.6203 74.7046 11.519 75.0592 11.519ZM79.9062 21.114C79.5642 21.114 79.2792 21.019 79.0512 20.829C78.8358 20.6263 78.7282 20.3413 78.7282 19.974V8.631C78.7282 8.26367 78.8358 7.985 79.0512 7.795C79.2792 7.605 79.5642 7.51 79.9062 7.51C80.2482 7.51 80.5332 7.605 80.7612 7.795C80.9892 7.985 81.1032 8.26367 81.1032 8.631V19.974C81.1032 20.3413 80.9892 20.6263 80.7612 20.829C80.5332 21.019 80.2482 21.114 79.9062 21.114ZM87.7894 21.152C86.8394 21.152 86.0034 20.9557 85.2814 20.563C84.572 20.1703 84.021 19.6067 83.6284 18.872C83.2357 18.1373 83.0394 17.2823 83.0394 16.307C83.0394 15.3317 83.2357 14.483 83.6284 13.761C84.021 13.0263 84.572 12.4627 85.2814 12.07C86.0034 11.6773 86.8394 11.481 87.7894 11.481C88.7394 11.481 89.569 11.6773 90.2784 12.07C91.0004 12.4627 91.5514 13.0263 91.9314 13.761C92.324 14.483 92.5204 15.3317 92.5204 16.307C92.5204 17.2823 92.324 18.1373 91.9314 18.872C91.5514 19.6067 91.0004 20.1703 90.2784 20.563C89.569 20.9557 88.7394 21.152 87.7894 21.152ZM87.7704 19.309C88.543 19.309 89.132 19.0557 89.5374 18.549C89.9427 18.0423 90.1454 17.295 90.1454 16.307C90.1454 15.3317 89.9427 14.5907 89.5374 14.084C89.132 13.5647 88.5494 13.305 87.7894 13.305C87.0294 13.305 86.4404 13.5647 86.0224 14.084C85.617 14.5907 85.4144 15.3317 85.4144 16.307C85.4144 17.295 85.617 18.0423 86.0224 18.549C86.4277 19.0557 87.0104 19.309 87.7704 19.309ZM107.391 7.51C107.746 7.51 108.037 7.61133 108.265 7.814C108.493 8.01667 108.607 8.28267 108.607 8.612V19.974C108.607 20.316 108.5 20.5883 108.284 20.791C108.069 20.9937 107.784 21.095 107.429 21.095C107.075 21.095 106.79 20.9937 106.574 20.791C106.359 20.5883 106.251 20.316 106.251 19.974V19.499C105.973 20.0183 105.567 20.4237 105.035 20.715C104.516 21.0063 103.921 21.152 103.249 21.152C102.451 21.152 101.736 20.9493 101.102 20.544C100.482 20.1387 99.994 19.5687 99.6393 18.834C99.2973 18.0867 99.1263 17.2317 99.1263 16.269C99.1263 15.3063 99.2973 14.464 99.6393 13.742C99.994 13.02 100.482 12.4627 101.102 12.07C101.723 11.6773 102.439 11.481 103.249 11.481C103.921 11.481 104.516 11.6203 105.035 11.899C105.555 12.1777 105.954 12.5703 106.232 13.077V8.574C106.232 8.25733 106.334 8.004 106.536 7.814C106.752 7.61133 107.037 7.51 107.391 7.51ZM103.876 19.309C104.636 19.309 105.219 19.0493 105.624 18.53C106.042 18.0107 106.251 17.2697 106.251 16.307C106.251 15.3443 106.042 14.6097 105.624 14.103C105.219 13.5837 104.643 13.324 103.895 13.324C103.135 13.324 102.546 13.5773 102.128 14.084C101.71 14.5907 101.501 15.319 101.501 16.269C101.501 17.2317 101.71 17.979 102.128 18.511C102.546 19.043 103.129 19.309 103.876 19.309ZM118.403 18.454C118.619 18.454 118.79 18.5363 118.916 18.701C119.056 18.8657 119.125 19.0873 119.125 19.366C119.125 19.7587 118.891 20.088 118.422 20.354C117.992 20.5947 117.504 20.791 116.959 20.943C116.415 21.0823 115.895 21.152 115.401 21.152C113.907 21.152 112.722 20.7213 111.848 19.86C110.974 18.9987 110.537 17.8207 110.537 16.326C110.537 15.376 110.727 14.5337 111.107 13.799C111.487 13.0643 112.019 12.4943 112.703 12.089C113.4 11.6837 114.185 11.481 115.059 11.481C115.895 11.481 116.624 11.6647 117.244 12.032C117.865 12.3993 118.346 12.9187 118.688 13.59C119.03 14.2613 119.201 15.053 119.201 15.965C119.201 16.5097 118.961 16.782 118.479 16.782H112.874C112.95 17.656 113.197 18.302 113.615 18.72C114.033 19.1253 114.641 19.328 115.439 19.328C115.845 19.328 116.199 19.2773 116.503 19.176C116.82 19.0747 117.175 18.9353 117.567 18.758C117.947 18.5553 118.226 18.454 118.403 18.454ZM115.116 13.153C114.47 13.153 113.951 13.3557 113.558 13.761C113.178 14.1663 112.95 14.749 112.874 15.509H117.168C117.143 14.7363 116.953 14.1537 116.598 13.761C116.244 13.3557 115.75 13.153 115.116 13.153ZM122.322 21.114C121.98 21.114 121.695 21.019 121.467 20.829C121.252 20.6263 121.144 20.3413 121.144 19.974V8.631C121.144 8.26367 121.252 7.985 121.467 7.795C121.695 7.605 121.98 7.51 122.322 7.51C122.664 7.51 122.949 7.605 123.177 7.795C123.405 7.985 123.519 8.26367 123.519 8.631V19.974C123.519 20.3413 123.405 20.6263 123.177 20.829C122.949 21.019 122.664 21.114 122.322 21.114ZM136.466 11.481C137.264 11.481 137.973 11.6837 138.594 12.089C139.227 12.4943 139.715 13.0707 140.057 13.818C140.411 14.5527 140.589 15.4013 140.589 16.364C140.589 17.3267 140.411 18.169 140.057 18.891C139.715 19.613 139.233 20.1703 138.613 20.563C137.992 20.9557 137.276 21.152 136.466 21.152C135.807 21.152 135.218 21.0127 134.699 20.734C134.179 20.4553 133.78 20.069 133.502 19.575V23.451C133.502 23.7803 133.394 24.04 133.179 24.23C132.963 24.42 132.678 24.515 132.324 24.515C131.969 24.515 131.678 24.4137 131.45 24.211C131.234 24.0083 131.127 23.7423 131.127 23.413V12.64C131.127 12.298 131.228 12.0257 131.431 11.823C131.646 11.6203 131.931 11.519 132.286 11.519C132.64 11.519 132.925 11.6203 133.141 11.823C133.356 12.0257 133.464 12.298 133.464 12.64V13.115C133.742 12.5957 134.141 12.1967 134.661 11.918C135.193 11.6267 135.794 11.481 136.466 11.481ZM135.839 19.309C136.586 19.309 137.169 19.0557 137.587 18.549C138.005 18.0297 138.214 17.3013 138.214 16.364C138.214 15.4013 138.005 14.654 137.587 14.122C137.169 13.59 136.586 13.324 135.839 13.324C135.079 13.324 134.49 13.5837 134.072 14.103C133.666 14.6223 133.464 15.3633 133.464 16.326C133.464 17.276 133.666 18.0107 134.072 18.53C134.49 19.0493 135.079 19.309 135.839 19.309ZM146.566 11.481C147.858 11.481 148.814 11.804 149.435 12.45C150.068 13.0833 150.385 14.0523 150.385 15.357V19.993C150.385 20.335 150.283 20.6073 150.081 20.81C149.878 21 149.599 21.095 149.245 21.095C148.915 21.095 148.643 20.9937 148.428 20.791C148.225 20.5883 148.124 20.3223 148.124 19.993V19.575C147.908 20.069 147.566 20.4553 147.098 20.734C146.642 21.0127 146.11 21.152 145.502 21.152C144.881 21.152 144.317 21.0253 143.811 20.772C143.304 20.5187 142.905 20.1703 142.614 19.727C142.322 19.2837 142.177 18.7897 142.177 18.245C142.177 17.561 142.348 17.0227 142.69 16.63C143.044 16.2373 143.614 15.9523 144.4 15.775C145.185 15.5977 146.268 15.509 147.649 15.509H148.124V15.072C148.124 14.4513 147.991 14.0017 147.725 13.723C147.459 13.4317 147.028 13.286 146.433 13.286C146.065 13.286 145.692 13.343 145.312 13.457C144.932 13.5583 144.482 13.7103 143.963 13.913C143.633 14.0777 143.393 14.16 143.241 14.16C143.013 14.16 142.823 14.0777 142.671 13.913C142.531 13.7483 142.462 13.533 142.462 13.267C142.462 13.0517 142.512 12.868 142.614 12.716C142.728 12.5513 142.911 12.3993 143.165 12.26C143.608 12.0193 144.134 11.8293 144.742 11.69C145.362 11.5507 145.97 11.481 146.566 11.481ZM145.977 19.442C146.61 19.442 147.123 19.233 147.516 18.815C147.921 18.3843 148.124 17.8333 148.124 17.162V16.763H147.782C146.933 16.763 146.274 16.801 145.806 16.877C145.337 16.953 145.001 17.086 144.799 17.276C144.596 17.466 144.495 17.7257 144.495 18.055C144.495 18.4603 144.634 18.796 144.913 19.062C145.204 19.3153 145.559 19.442 145.977 19.442ZM156.161 21.152C154.781 21.152 153.666 20.8797 152.817 20.335C152.412 20.0943 152.209 19.7523 152.209 19.309C152.209 19.0557 152.279 18.853 152.418 18.701C152.558 18.5363 152.729 18.454 152.931 18.454C153.147 18.454 153.444 18.5553 153.824 18.758C154.23 18.948 154.597 19.0937 154.926 19.195C155.268 19.2963 155.699 19.347 156.218 19.347C156.75 19.347 157.162 19.2583 157.453 19.081C157.757 18.9037 157.909 18.6567 157.909 18.34C157.909 18.1247 157.846 17.9537 157.719 17.827C157.605 17.7003 157.39 17.5863 157.073 17.485C156.769 17.371 156.301 17.2443 155.667 17.105C154.54 16.877 153.729 16.554 153.235 16.136C152.754 15.718 152.513 15.1417 152.513 14.407C152.513 13.8497 152.678 13.3493 153.007 12.906C153.337 12.45 153.786 12.1017 154.356 11.861C154.939 11.6077 155.598 11.481 156.332 11.481C156.864 11.481 157.377 11.5507 157.871 11.69C158.365 11.8167 158.809 12.0067 159.201 12.26C159.607 12.5133 159.809 12.849 159.809 13.267C159.809 13.5203 159.74 13.7357 159.6 13.913C159.461 14.0777 159.29 14.16 159.087 14.16C158.948 14.16 158.809 14.1347 158.669 14.084C158.543 14.0207 158.378 13.932 158.175 13.818C157.808 13.628 157.491 13.4887 157.225 13.4C156.959 13.2987 156.63 13.248 156.237 13.248C155.769 13.248 155.395 13.343 155.116 13.533C154.85 13.723 154.717 13.9827 154.717 14.312C154.717 14.6287 154.857 14.8693 155.135 15.034C155.414 15.1987 155.952 15.3633 156.75 15.528C157.599 15.7053 158.264 15.908 158.745 16.136C159.227 16.364 159.569 16.649 159.771 16.991C159.987 17.333 160.094 17.77 160.094 18.302C160.094 19.1633 159.733 19.8537 159.011 20.373C158.302 20.8923 157.352 21.152 156.161 21.152ZM166.257 21.152C165.307 21.152 164.471 20.9557 163.749 20.563C163.04 20.1703 162.489 19.6067 162.096 18.872C161.703 18.1373 161.507 17.2823 161.507 16.307C161.507 15.3317 161.703 14.483 162.096 13.761C162.489 13.0263 163.04 12.4627 163.749 12.07C164.471 11.6773 165.307 11.481 166.257 11.481C167.207 11.481 168.037 11.6773 168.746 12.07C169.468 12.4627 170.019 13.0263 170.399 13.761C170.792 14.483 170.988 15.3317 170.988 16.307C170.988 17.2823 170.792 18.1373 170.399 18.872C170.019 19.6067 169.468 20.1703 168.746 20.563C168.037 20.9557 167.207 21.152 166.257 21.152ZM166.238 19.309C167.011 19.309 167.6 19.0557 168.005 18.549C168.41 18.0423 168.613 17.295 168.613 16.307C168.613 15.3317 168.41 14.5907 168.005 14.084C167.6 13.5647 167.017 13.305 166.257 13.305C165.497 13.305 164.908 13.5647 164.49 14.084C164.085 14.5907 163.882 15.3317 163.882 16.307C163.882 17.295 164.085 18.0423 164.49 18.549C164.895 19.0557 165.478 19.309 166.238 19.309Z" fill="#38485C"/>
<path d="M50.9375 53H44.5703V41.5781H50.9375V42.7578H45.8984V46.4375H50.6328V47.6094H45.8984V51.8125H50.9375V53ZM59.1406 53V47.4609C59.1406 46.763 58.9818 46.2422 58.6641 45.8984C58.3464 45.5547 57.849 45.3828 57.1719 45.3828C56.276 45.3828 55.6198 45.625 55.2031 46.1094C54.7865 46.5938 54.5781 47.3932 54.5781 48.5078V53H53.2812V44.4375H54.3359L54.5469 45.6094H54.6094C54.875 45.1875 55.2474 44.862 55.7266 44.6328C56.2057 44.3984 56.7396 44.2812 57.3281 44.2812C58.3594 44.2812 59.1354 44.5312 59.6562 45.0312C60.1771 45.526 60.4375 46.3203 60.4375 47.4141V53H59.1406ZM70.8828 53.1562C69.6172 53.1562 68.6172 52.7708 67.8828 52C67.1536 51.2292 66.7891 50.1589 66.7891 48.7891C66.7891 47.4089 67.1276 46.3125 67.8047 45.5C68.487 44.6875 69.401 44.2812 70.5469 44.2812C71.6198 44.2812 72.4688 44.6354 73.0938 45.3438C73.7188 46.0469 74.0312 46.9766 74.0312 48.1328V48.9531H68.1328C68.1589 49.9583 68.4115 50.7214 68.8906 51.2422C69.375 51.763 70.0547 52.0234 70.9297 52.0234C71.8516 52.0234 72.763 51.8307 73.6641 51.4453V52.6016C73.2057 52.7995 72.7708 52.9401 72.3594 53.0234C71.9531 53.112 71.4609 53.1562 70.8828 53.1562ZM70.5312 45.3672C69.8438 45.3672 69.2943 45.5911 68.8828 46.0391C68.4766 46.487 68.237 47.1068 68.1641 47.8984H72.6406C72.6406 47.0807 72.4583 46.4557 72.0938 46.0234C71.7292 45.5859 71.2083 45.3672 70.5312 45.3672ZM81.7734 50.6641C81.7734 51.4609 81.4766 52.0755 80.8828 52.5078C80.2891 52.9401 79.4557 53.1562 78.3828 53.1562C77.2474 53.1562 76.362 52.9766 75.7266 52.6172V51.4141C76.138 51.6224 76.5781 51.7865 77.0469 51.9062C77.5208 52.026 77.9766 52.0859 78.4141 52.0859C79.0911 52.0859 79.612 51.9792 79.9766 51.7656C80.3411 51.5469 80.5234 51.2161 80.5234 50.7734C80.5234 50.4401 80.3776 50.1562 80.0859 49.9219C79.7995 49.6823 79.237 49.401 78.3984 49.0781C77.6016 48.7812 77.0339 48.5234 76.6953 48.3047C76.362 48.0807 76.112 47.8281 75.9453 47.5469C75.7839 47.2656 75.7031 46.9297 75.7031 46.5391C75.7031 45.8411 75.987 45.2917 76.5547 44.8906C77.1224 44.4844 77.901 44.2812 78.8906 44.2812C79.8125 44.2812 80.7135 44.4688 81.5938 44.8438L81.1328 45.8984C80.2734 45.5443 79.4948 45.3672 78.7969 45.3672C78.1823 45.3672 77.7188 45.4635 77.4062 45.6562C77.0938 45.849 76.9375 46.1146 76.9375 46.4531C76.9375 46.6823 76.9948 46.8776 77.1094 47.0391C77.2292 47.2005 77.4193 47.3542 77.6797 47.5C77.9401 47.6458 78.4401 47.8568 79.1797 48.1328C80.1953 48.5026 80.8802 48.875 81.2344 49.25C81.5938 49.625 81.7734 50.0964 81.7734 50.6641ZM86.6562 52.0859C86.8854 52.0859 87.1068 52.0703 87.3203 52.0391C87.5339 52.0026 87.7031 51.9661 87.8281 51.9297V52.9219C87.6875 52.9896 87.4792 53.0443 87.2031 53.0859C86.9323 53.1328 86.6875 53.1562 86.4688 53.1562C84.8125 53.1562 83.9844 52.2839 83.9844 50.5391V45.4453H82.7578V44.8203L83.9844 44.2812L84.5312 42.4531H85.2812V44.4375H87.7656V45.4453H85.2812V50.4844C85.2812 51 85.4036 51.3958 85.6484 51.6719C85.8932 51.9479 86.2292 52.0859 86.6562 52.0859ZM94.8125 53L94.5547 51.7812H94.4922C94.0651 52.3177 93.638 52.6823 93.2109 52.875C92.7891 53.0625 92.2604 53.1562 91.625 53.1562C90.776 53.1562 90.1094 52.9375 89.625 52.5C89.1458 52.0625 88.9062 51.4401 88.9062 50.6328C88.9062 48.9036 90.2891 47.9974 93.0547 47.9141L94.5078 47.8672V47.3359C94.5078 46.6641 94.362 46.1693 94.0703 45.8516C93.7839 45.5286 93.3229 45.3672 92.6875 45.3672C91.974 45.3672 91.1667 45.5859 90.2656 46.0234L89.8672 45.0312C90.2891 44.8021 90.75 44.6224 91.25 44.4922C91.7552 44.362 92.2604 44.2969 92.7656 44.2969C93.7865 44.2969 94.5417 44.5234 95.0312 44.9766C95.526 45.4297 95.7734 46.1562 95.7734 47.1562V53H94.8125ZM91.8828 52.0859C92.6901 52.0859 93.3229 51.8646 93.7812 51.4219C94.2448 50.9792 94.4766 50.3594 94.4766 49.5625V48.7891L93.1797 48.8438C92.1484 48.8802 91.4036 49.0417 90.9453 49.3281C90.4922 49.6094 90.2656 50.0495 90.2656 50.6484C90.2656 51.1172 90.4062 51.474 90.6875 51.7188C90.974 51.9635 91.3724 52.0859 91.8828 52.0859ZM108.438 51.8516H108.367C107.768 52.7214 106.872 53.1562 105.68 53.1562C104.56 53.1562 103.688 52.7734 103.062 52.0078C102.443 51.2422 102.133 50.1536 102.133 48.7422C102.133 47.3307 102.445 46.2344 103.07 45.4531C103.695 44.6719 104.565 44.2812 105.68 44.2812C106.841 44.2812 107.732 44.7031 108.352 45.5469H108.453L108.398 44.9297L108.367 44.3281V40.8438H109.664V53H108.609L108.438 51.8516ZM105.844 52.0703C106.729 52.0703 107.37 51.8307 107.766 51.3516C108.167 50.8672 108.367 50.0885 108.367 49.0156V48.7422C108.367 47.5286 108.164 46.6641 107.758 46.1484C107.357 45.6276 106.714 45.3672 105.828 45.3672C105.068 45.3672 104.484 45.6641 104.078 46.2578C103.677 46.8464 103.477 47.6797 103.477 48.7578C103.477 49.8516 103.677 50.6771 104.078 51.2344C104.479 51.7917 105.068 52.0703 105.844 52.0703ZM116.039 53.1562C114.773 53.1562 113.773 52.7708 113.039 52C112.31 51.2292 111.945 50.1589 111.945 48.7891C111.945 47.4089 112.284 46.3125 112.961 45.5C113.643 44.6875 114.557 44.2812 115.703 44.2812C116.776 44.2812 117.625 44.6354 118.25 45.3438C118.875 46.0469 119.188 46.9766 119.188 48.1328V48.9531H113.289C113.315 49.9583 113.568 50.7214 114.047 51.2422C114.531 51.763 115.211 52.0234 116.086 52.0234C117.008 52.0234 117.919 51.8307 118.82 51.4453V52.6016C118.362 52.7995 117.927 52.9401 117.516 53.0234C117.109 53.112 116.617 53.1562 116.039 53.1562ZM115.688 45.3672C115 45.3672 114.451 45.5911 114.039 46.0391C113.633 46.487 113.393 47.1068 113.32 47.8984H117.797C117.797 47.0807 117.615 46.4557 117.25 46.0234C116.885 45.5859 116.365 45.3672 115.688 45.3672ZM126.93 50.6641C126.93 51.4609 126.633 52.0755 126.039 52.5078C125.445 52.9401 124.612 53.1562 123.539 53.1562C122.404 53.1562 121.518 52.9766 120.883 52.6172V51.4141C121.294 51.6224 121.734 51.7865 122.203 51.9062C122.677 52.026 123.133 52.0859 123.57 52.0859C124.247 52.0859 124.768 51.9792 125.133 51.7656C125.497 51.5469 125.68 51.2161 125.68 50.7734C125.68 50.4401 125.534 50.1562 125.242 49.9219C124.956 49.6823 124.393 49.401 123.555 49.0781C122.758 48.7812 122.19 48.5234 121.852 48.3047C121.518 48.0807 121.268 47.8281 121.102 47.5469C120.94 47.2656 120.859 46.9297 120.859 46.5391C120.859 45.8411 121.143 45.2917 121.711 44.8906C122.279 44.4844 123.057 44.2812 124.047 44.2812C124.969 44.2812 125.87 44.4688 126.75 44.8438L126.289 45.8984C125.43 45.5443 124.651 45.3672 123.953 45.3672C123.339 45.3672 122.875 45.4635 122.562 45.6562C122.25 45.849 122.094 46.1146 122.094 46.4531C122.094 46.6823 122.151 46.8776 122.266 47.0391C122.385 47.2005 122.576 47.3542 122.836 47.5C123.096 47.6458 123.596 47.8568 124.336 48.1328C125.352 48.5026 126.036 48.875 126.391 49.25C126.75 49.625 126.93 50.0964 126.93 50.6641ZM132.469 53.1562C131.229 53.1562 130.268 52.776 129.586 52.0156C128.909 51.25 128.57 50.1693 128.57 48.7734C128.57 47.3411 128.914 46.2344 129.602 45.4531C130.294 44.6719 131.279 44.2812 132.555 44.2812C132.966 44.2812 133.378 44.3255 133.789 44.4141C134.201 44.5026 134.523 44.6068 134.758 44.7266L134.359 45.8281C134.073 45.7135 133.76 45.6198 133.422 45.5469C133.083 45.4688 132.784 45.4297 132.523 45.4297C130.784 45.4297 129.914 46.5391 129.914 48.7578C129.914 49.8099 130.125 50.6172 130.547 51.1797C130.974 51.7422 131.604 52.0234 132.438 52.0234C133.151 52.0234 133.883 51.8698 134.633 51.5625V52.7109C134.06 53.0078 133.339 53.1562 132.469 53.1562ZM140.578 44.2812C140.958 44.2812 141.299 44.3125 141.602 44.375L141.422 45.5781C141.068 45.5 140.755 45.4609 140.484 45.4609C139.792 45.4609 139.198 45.7422 138.703 46.3047C138.214 46.8672 137.969 47.5677 137.969 48.4062V53H136.672V44.4375H137.742L137.891 46.0234H137.953C138.271 45.4661 138.654 45.0365 139.102 44.7344C139.549 44.4323 140.042 44.2812 140.578 44.2812ZM144.5 53H143.203V44.4375H144.5V53ZM143.094 42.1172C143.094 41.8203 143.167 41.6042 143.312 41.4688C143.458 41.3281 143.641 41.2578 143.859 41.2578C144.068 41.2578 144.247 41.3281 144.398 41.4688C144.549 41.6094 144.625 41.8255 144.625 42.1172C144.625 42.4089 144.549 42.6276 144.398 42.7734C144.247 42.9141 144.068 42.9844 143.859 42.9844C143.641 42.9844 143.458 42.9141 143.312 42.7734C143.167 42.6276 143.094 42.4089 143.094 42.1172ZM151.234 53.1562C150.677 53.1562 150.167 53.0547 149.703 52.8516C149.245 52.6432 148.859 52.3255 148.547 51.8984H148.453C148.516 52.3984 148.547 52.8724 148.547 53.3203V56.8438H147.25V44.4375H148.305L148.484 45.6094H148.547C148.88 45.1406 149.268 44.8021 149.711 44.5938C150.154 44.3854 150.661 44.2812 151.234 44.2812C152.37 44.2812 153.245 44.6693 153.859 45.4453C154.479 46.2214 154.789 47.3099 154.789 48.7109C154.789 50.1172 154.474 51.2109 153.844 51.9922C153.219 52.7682 152.349 53.1562 151.234 53.1562ZM151.047 45.3828C150.172 45.3828 149.539 45.625 149.148 46.1094C148.758 46.5938 148.557 47.3646 148.547 48.4219V48.7109C148.547 49.9141 148.747 50.776 149.148 51.2969C149.549 51.8125 150.193 52.0703 151.078 52.0703C151.818 52.0703 152.396 51.7708 152.812 51.1719C153.234 50.5729 153.445 49.7474 153.445 48.6953C153.445 47.6276 153.234 46.8099 152.812 46.2422C152.396 45.6693 151.807 45.3828 151.047 45.3828ZM160.484 53.1562C159.245 53.1562 158.284 52.776 157.602 52.0156C156.924 51.25 156.586 50.1693 156.586 48.7734C156.586 47.3411 156.93 46.2344 157.617 45.4531C158.31 44.6719 159.294 44.2812 160.57 44.2812C160.982 44.2812 161.393 44.3255 161.805 44.4141C162.216 44.5026 162.539 44.6068 162.773 44.7266L162.375 45.8281C162.089 45.7135 161.776 45.6198 161.438 45.5469C161.099 45.4688 160.799 45.4297 160.539 45.4297C158.799 45.4297 157.93 46.5391 157.93 48.7578C157.93 49.8099 158.141 50.6172 158.562 51.1797C158.99 51.7422 159.62 52.0234 160.453 52.0234C161.167 52.0234 161.898 51.8698 162.648 51.5625V52.7109C162.076 53.0078 161.354 53.1562 160.484 53.1562ZM165.984 53H164.688V44.4375H165.984V53ZM164.578 42.1172C164.578 41.8203 164.651 41.6042 164.797 41.4688C164.943 41.3281 165.125 41.2578 165.344 41.2578C165.552 41.2578 165.732 41.3281 165.883 41.4688C166.034 41.6094 166.109 41.8255 166.109 42.1172C166.109 42.4089 166.034 42.6276 165.883 42.7734C165.732 42.9141 165.552 42.9844 165.344 42.9844C165.125 42.9844 164.943 42.9141 164.797 42.7734C164.651 42.6276 164.578 42.4089 164.578 42.1172ZM176.125 48.7109C176.125 50.1068 175.773 51.1979 175.07 51.9844C174.367 52.7656 173.396 53.1562 172.156 53.1562C171.391 53.1562 170.711 52.9766 170.117 52.6172C169.523 52.2578 169.065 51.7422 168.742 51.0703C168.419 50.3984 168.258 49.612 168.258 48.7109C168.258 47.3151 168.607 46.2292 169.305 45.4531C170.003 44.6719 170.971 44.2812 172.211 44.2812C173.409 44.2812 174.359 44.6797 175.062 45.4766C175.771 46.2734 176.125 47.3516 176.125 48.7109ZM169.602 48.7109C169.602 49.8047 169.82 50.638 170.258 51.2109C170.695 51.7839 171.339 52.0703 172.188 52.0703C173.036 52.0703 173.68 51.7865 174.117 51.2188C174.56 50.6458 174.781 49.8099 174.781 48.7109C174.781 47.6224 174.56 46.7969 174.117 46.2344C173.68 45.6667 173.031 45.3828 172.172 45.3828C171.323 45.3828 170.682 45.6615 170.25 46.2188C169.818 46.776 169.602 47.6068 169.602 48.7109ZM171.102 43.1094C171.352 42.7865 171.62 42.3958 171.906 41.9375C172.198 41.4792 172.427 41.0807 172.594 40.7422H174.172V40.9062C173.943 41.2448 173.602 41.6615 173.148 42.1562C172.695 42.651 172.302 43.0339 171.969 43.3047H171.102V43.1094ZM184.266 53V47.4609C184.266 46.763 184.107 46.2422 183.789 45.8984C183.471 45.5547 182.974 45.3828 182.297 45.3828C181.401 45.3828 180.745 45.625 180.328 46.1094C179.911 46.5938 179.703 47.3932 179.703 48.5078V53H178.406V44.4375H179.461L179.672 45.6094H179.734C180 45.1875 180.372 44.862 180.852 44.6328C181.331 44.3984 181.865 44.2812 182.453 44.2812C183.484 44.2812 184.26 44.5312 184.781 45.0312C185.302 45.526 185.562 46.3203 185.562 47.4141V53H184.266ZM198.219 51.8516H198.148C197.549 52.7214 196.654 53.1562 195.461 53.1562C194.341 53.1562 193.469 52.7734 192.844 52.0078C192.224 51.2422 191.914 50.1536 191.914 48.7422C191.914 47.3307 192.227 46.2344 192.852 45.4531C193.477 44.6719 194.346 44.2812 195.461 44.2812C196.622 44.2812 197.513 44.7031 198.133 45.5469H198.234L198.18 44.9297L198.148 44.3281V40.8438H199.445V53H198.391L198.219 51.8516ZM195.625 52.0703C196.51 52.0703 197.151 51.8307 197.547 51.3516C197.948 50.8672 198.148 50.0885 198.148 49.0156V48.7422C198.148 47.5286 197.945 46.6641 197.539 46.1484C197.138 45.6276 196.495 45.3672 195.609 45.3672C194.849 45.3672 194.266 45.6641 193.859 46.2578C193.458 46.8464 193.258 47.6797 193.258 48.7578C193.258 49.8516 193.458 50.6771 193.859 51.2344C194.26 51.7917 194.849 52.0703 195.625 52.0703ZM205.82 53.1562C204.555 53.1562 203.555 52.7708 202.82 52C202.091 51.2292 201.727 50.1589 201.727 48.7891C201.727 47.4089 202.065 46.3125 202.742 45.5C203.424 44.6875 204.339 44.2812 205.484 44.2812C206.557 44.2812 207.406 44.6354 208.031 45.3438C208.656 46.0469 208.969 46.9766 208.969 48.1328V48.9531H203.07C203.096 49.9583 203.349 50.7214 203.828 51.2422C204.312 51.763 204.992 52.0234 205.867 52.0234C206.789 52.0234 207.701 51.8307 208.602 51.4453V52.6016C208.143 52.7995 207.708 52.9401 207.297 53.0234C206.891 53.112 206.398 53.1562 205.82 53.1562ZM205.469 45.3672C204.781 45.3672 204.232 45.5911 203.82 46.0391C203.414 46.487 203.174 47.1068 203.102 47.8984H207.578C207.578 47.0807 207.396 46.4557 207.031 46.0234C206.667 45.5859 206.146 45.3672 205.469 45.3672ZM212.484 53H211.188V40.8438H212.484V53ZM223.375 53.1562C222.818 53.1562 222.307 53.0547 221.844 52.8516C221.385 52.6432 221 52.3255 220.688 51.8984H220.594C220.656 52.3984 220.688 52.8724 220.688 53.3203V56.8438H219.391V44.4375H220.445L220.625 45.6094H220.688C221.021 45.1406 221.409 44.8021 221.852 44.5938C222.294 44.3854 222.802 44.2812 223.375 44.2812C224.51 44.2812 225.385 44.6693 226 45.4453C226.62 46.2214 226.93 47.3099 226.93 48.7109C226.93 50.1172 226.615 51.2109 225.984 51.9922C225.359 52.7682 224.49 53.1562 223.375 53.1562ZM223.188 45.3828C222.312 45.3828 221.68 45.625 221.289 46.1094C220.898 46.5938 220.698 47.3646 220.688 48.4219V48.7109C220.688 49.9141 220.888 50.776 221.289 51.2969C221.69 51.8125 222.333 52.0703 223.219 52.0703C223.958 52.0703 224.536 51.7708 224.953 51.1719C225.375 50.5729 225.586 49.7474 225.586 48.6953C225.586 47.6276 225.375 46.8099 224.953 46.2422C224.536 45.6693 223.948 45.3828 223.188 45.3828ZM234.469 53L234.211 51.7812H234.148C233.721 52.3177 233.294 52.6823 232.867 52.875C232.445 53.0625 231.917 53.1562 231.281 53.1562C230.432 53.1562 229.766 52.9375 229.281 52.5C228.802 52.0625 228.562 51.4401 228.562 50.6328C228.562 48.9036 229.945 47.9974 232.711 47.9141L234.164 47.8672V47.3359C234.164 46.6641 234.018 46.1693 233.727 45.8516C233.44 45.5286 232.979 45.3672 232.344 45.3672C231.63 45.3672 230.823 45.5859 229.922 46.0234L229.523 45.0312C229.945 44.8021 230.406 44.6224 230.906 44.4922C231.411 44.362 231.917 44.2969 232.422 44.2969C233.443 44.2969 234.198 44.5234 234.688 44.9766C235.182 45.4297 235.43 46.1562 235.43 47.1562V53H234.469ZM231.539 52.0859C232.346 52.0859 232.979 51.8646 233.438 51.4219C233.901 50.9792 234.133 50.3594 234.133 49.5625V48.7891L232.836 48.8438C231.805 48.8802 231.06 49.0417 230.602 49.3281C230.148 49.6094 229.922 50.0495 229.922 50.6484C229.922 51.1172 230.062 51.474 230.344 51.7188C230.63 51.9635 231.029 52.0859 231.539 52.0859ZM243.633 50.6641C243.633 51.4609 243.336 52.0755 242.742 52.5078C242.148 52.9401 241.315 53.1562 240.242 53.1562C239.107 53.1562 238.221 52.9766 237.586 52.6172V51.4141C237.997 51.6224 238.438 51.7865 238.906 51.9062C239.38 52.026 239.836 52.0859 240.273 52.0859C240.951 52.0859 241.471 51.9792 241.836 51.7656C242.201 51.5469 242.383 51.2161 242.383 50.7734C242.383 50.4401 242.237 50.1562 241.945 49.9219C241.659 49.6823 241.096 49.401 240.258 49.0781C239.461 48.7812 238.893 48.5234 238.555 48.3047C238.221 48.0807 237.971 47.8281 237.805 47.5469C237.643 47.2656 237.562 46.9297 237.562 46.5391C237.562 45.8411 237.846 45.2917 238.414 44.8906C238.982 44.4844 239.76 44.2812 240.75 44.2812C241.672 44.2812 242.573 44.4688 243.453 44.8438L242.992 45.8984C242.133 45.5443 241.354 45.3672 240.656 45.3672C240.042 45.3672 239.578 45.4635 239.266 45.6562C238.953 45.849 238.797 46.1146 238.797 46.4531C238.797 46.6823 238.854 46.8776 238.969 47.0391C239.089 47.2005 239.279 47.3542 239.539 47.5C239.799 47.6458 240.299 47.8568 241.039 48.1328C242.055 48.5026 242.74 48.875 243.094 49.25C243.453 49.625 243.633 50.0964 243.633 50.6641ZM253.141 48.7109C253.141 50.1068 252.789 51.1979 252.086 51.9844C251.383 52.7656 250.411 53.1562 249.172 53.1562C248.406 53.1562 247.727 52.9766 247.133 52.6172C246.539 52.2578 246.081 51.7422 245.758 51.0703C245.435 50.3984 245.273 49.612 245.273 48.7109C245.273 47.3151 245.622 46.2292 246.32 45.4531C247.018 44.6719 247.987 44.2812 249.227 44.2812C250.424 44.2812 251.375 44.6797 252.078 45.4766C252.786 46.2734 253.141 47.3516 253.141 48.7109ZM246.617 48.7109C246.617 49.8047 246.836 50.638 247.273 51.2109C247.711 51.7839 248.354 52.0703 249.203 52.0703C250.052 52.0703 250.695 51.7865 251.133 51.2188C251.576 50.6458 251.797 49.8099 251.797 48.7109C251.797 47.6224 251.576 46.7969 251.133 46.2344C250.695 45.6667 250.047 45.3828 249.188 45.3828C248.339 45.3828 247.698 45.6615 247.266 46.2188C246.833 46.776 246.617 47.6068 246.617 48.7109ZM265.102 50.6641C265.102 51.4609 264.805 52.0755 264.211 52.5078C263.617 52.9401 262.784 53.1562 261.711 53.1562C260.576 53.1562 259.69 52.9766 259.055 52.6172V51.4141C259.466 51.6224 259.906 51.7865 260.375 51.9062C260.849 52.026 261.305 52.0859 261.742 52.0859C262.419 52.0859 262.94 51.9792 263.305 51.7656C263.669 51.5469 263.852 51.2161 263.852 50.7734C263.852 50.4401 263.706 50.1562 263.414 49.9219C263.128 49.6823 262.565 49.401 261.727 49.0781C260.93 48.7812 260.362 48.5234 260.023 48.3047C259.69 48.0807 259.44 47.8281 259.273 47.5469C259.112 47.2656 259.031 46.9297 259.031 46.5391C259.031 45.8411 259.315 45.2917 259.883 44.8906C260.451 44.4844 261.229 44.2812 262.219 44.2812C263.141 44.2812 264.042 44.4688 264.922 44.8438L264.461 45.8984C263.602 45.5443 262.823 45.3672 262.125 45.3672C261.51 45.3672 261.047 45.4635 260.734 45.6562C260.422 45.849 260.266 46.1146 260.266 46.4531C260.266 46.6823 260.323 46.8776 260.438 47.0391C260.557 47.2005 260.747 47.3542 261.008 47.5C261.268 47.6458 261.768 47.8568 262.508 48.1328C263.523 48.5026 264.208 48.875 264.562 49.25C264.922 49.625 265.102 50.0964 265.102 50.6641ZM270.836 53.1562C269.57 53.1562 268.57 52.7708 267.836 52C267.107 51.2292 266.742 50.1589 266.742 48.7891C266.742 47.4089 267.081 46.3125 267.758 45.5C268.44 44.6875 269.354 44.2812 270.5 44.2812C271.573 44.2812 272.422 44.6354 273.047 45.3438C273.672 46.0469 273.984 46.9766 273.984 48.1328V48.9531H268.086C268.112 49.9583 268.365 50.7214 268.844 51.2422C269.328 51.763 270.008 52.0234 270.883 52.0234C271.805 52.0234 272.716 51.8307 273.617 51.4453V52.6016C273.159 52.7995 272.724 52.9401 272.312 53.0234C271.906 53.112 271.414 53.1562 270.836 53.1562ZM270.484 45.3672C269.797 45.3672 269.247 45.5911 268.836 46.0391C268.43 46.487 268.19 47.1068 268.117 47.8984H272.594C272.594 47.0807 272.411 46.4557 272.047 46.0234C271.682 45.5859 271.161 45.3672 270.484 45.3672ZM291.273 53V47.4297C291.273 46.7474 291.128 46.237 290.836 45.8984C290.544 45.5547 290.091 45.3828 289.477 45.3828C288.669 45.3828 288.073 45.6146 287.688 46.0781C287.302 46.5417 287.109 47.2552 287.109 48.2188V53H285.812V47.4297C285.812 46.7474 285.667 46.237 285.375 45.8984C285.083 45.5547 284.628 45.3828 284.008 45.3828C283.195 45.3828 282.599 45.6276 282.219 46.1172C281.844 46.6016 281.656 47.3984 281.656 48.5078V53H280.359V44.4375H281.414L281.625 45.6094H281.688C281.932 45.1927 282.276 44.8672 282.719 44.6328C283.167 44.3984 283.667 44.2812 284.219 44.2812C285.557 44.2812 286.432 44.7656 286.844 45.7344H286.906C287.161 45.2865 287.531 44.9323 288.016 44.6719C288.5 44.4115 289.052 44.2812 289.672 44.2812C290.641 44.2812 291.365 44.5312 291.844 45.0312C292.328 45.526 292.57 46.3203 292.57 47.4141V53H291.273ZM296.469 44.4375V49.9922C296.469 50.6901 296.628 51.2109 296.945 51.5547C297.263 51.8984 297.76 52.0703 298.438 52.0703C299.333 52.0703 299.987 51.8255 300.398 51.3359C300.815 50.8464 301.023 50.0469 301.023 48.9375V44.4375H302.32V53H301.25L301.062 51.8516H300.992C300.727 52.2734 300.357 52.5964 299.883 52.8203C299.414 53.0443 298.878 53.1562 298.273 53.1562C297.232 53.1562 296.451 52.9089 295.93 52.4141C295.414 51.9193 295.156 51.1276 295.156 50.0391V44.4375H296.469ZM308.695 53.1562C307.43 53.1562 306.43 52.7708 305.695 52C304.966 51.2292 304.602 50.1589 304.602 48.7891C304.602 47.4089 304.94 46.3125 305.617 45.5C306.299 44.6875 307.214 44.2812 308.359 44.2812C309.432 44.2812 310.281 44.6354 310.906 45.3438C311.531 46.0469 311.844 46.9766 311.844 48.1328V48.9531H305.945C305.971 49.9583 306.224 50.7214 306.703 51.2422C307.188 51.763 307.867 52.0234 308.742 52.0234C309.664 52.0234 310.576 51.8307 311.477 51.4453V52.6016C311.018 52.7995 310.583 52.9401 310.172 53.0234C309.766 53.112 309.273 53.1562 308.695 53.1562ZM308.344 45.3672C307.656 45.3672 307.107 45.5911 306.695 46.0391C306.289 46.487 306.049 47.1068 305.977 47.8984H310.453C310.453 47.0807 310.271 46.4557 309.906 46.0234C309.542 45.5859 309.021 45.3672 308.344 45.3672ZM319.586 50.6641C319.586 51.4609 319.289 52.0755 318.695 52.5078C318.102 52.9401 317.268 53.1562 316.195 53.1562C315.06 53.1562 314.174 52.9766 313.539 52.6172V51.4141C313.951 51.6224 314.391 51.7865 314.859 51.9062C315.333 52.026 315.789 52.0859 316.227 52.0859C316.904 52.0859 317.424 51.9792 317.789 51.7656C318.154 51.5469 318.336 51.2161 318.336 50.7734C318.336 50.4401 318.19 50.1562 317.898 49.9219C317.612 49.6823 317.049 49.401 316.211 49.0781C315.414 48.7812 314.846 48.5234 314.508 48.3047C314.174 48.0807 313.924 47.8281 313.758 47.5469C313.596 47.2656 313.516 46.9297 313.516 46.5391C313.516 45.8411 313.799 45.2917 314.367 44.8906C314.935 44.4844 315.714 44.2812 316.703 44.2812C317.625 44.2812 318.526 44.4688 319.406 44.8438L318.945 45.8984C318.086 45.5443 317.307 45.3672 316.609 45.3672C315.995 45.3672 315.531 45.4635 315.219 45.6562C314.906 45.849 314.75 46.1146 314.75 46.4531C314.75 46.6823 314.807 46.8776 314.922 47.0391C315.042 47.2005 315.232 47.3542 315.492 47.5C315.753 47.6458 316.253 47.8568 316.992 48.1328C318.008 48.5026 318.693 48.875 319.047 49.25C319.406 49.625 319.586 50.0964 319.586 50.6641ZM324.469 52.0859C324.698 52.0859 324.919 52.0703 325.133 52.0391C325.346 52.0026 325.516 51.9661 325.641 51.9297V52.9219C325.5 52.9896 325.292 53.0443 325.016 53.0859C324.745 53.1328 324.5 53.1562 324.281 53.1562C322.625 53.1562 321.797 52.2839 321.797 50.5391V45.4453H320.57V44.8203L321.797 44.2812L322.344 42.4531H323.094V44.4375H325.578V45.4453H323.094V50.4844C323.094 51 323.216 51.3958 323.461 51.6719C323.706 51.9479 324.042 52.0859 324.469 52.0859ZM331.266 44.2812C331.646 44.2812 331.987 44.3125 332.289 44.375L332.109 45.5781C331.755 45.5 331.443 45.4609 331.172 45.4609C330.479 45.4609 329.885 45.7422 329.391 46.3047C328.901 46.8672 328.656 47.5677 328.656 48.4062V53H327.359V44.4375H328.43L328.578 46.0234H328.641C328.958 45.4661 329.341 45.0365 329.789 44.7344C330.237 44.4323 330.729 44.2812 331.266 44.2812ZM339.156 53L338.898 51.7812H338.836C338.409 52.3177 337.982 52.6823 337.555 52.875C337.133 53.0625 336.604 53.1562 335.969 53.1562C335.12 53.1562 334.453 52.9375 333.969 52.5C333.49 52.0625 333.25 51.4401 333.25 50.6328C333.25 48.9036 334.633 47.9974 337.398 47.9141L338.852 47.8672V47.3359C338.852 46.6641 338.706 46.1693 338.414 45.8516C338.128 45.5286 337.667 45.3672 337.031 45.3672C336.318 45.3672 335.51 45.5859 334.609 46.0234L334.211 45.0312C334.633 44.8021 335.094 44.6224 335.594 44.4922C336.099 44.362 336.604 44.2969 337.109 44.2969C338.13 44.2969 338.885 44.5234 339.375 44.9766C339.87 45.4297 340.117 46.1562 340.117 47.1562V53H339.156ZM336.227 52.0859C337.034 52.0859 337.667 51.8646 338.125 51.4219C338.589 50.9792 338.82 50.3594 338.82 49.5625V48.7891L337.523 48.8438C336.492 48.8802 335.747 49.0417 335.289 49.3281C334.836 49.6094 334.609 50.0495 334.609 50.6484C334.609 51.1172 334.75 51.474 335.031 51.7188C335.318 51.9635 335.716 52.0859 336.227 52.0859ZM348.656 53V47.4609C348.656 46.763 348.497 46.2422 348.18 45.8984C347.862 45.5547 347.365 45.3828 346.688 45.3828C345.792 45.3828 345.135 45.625 344.719 46.1094C344.302 46.5938 344.094 47.3932 344.094 48.5078V53H342.797V44.4375H343.852L344.062 45.6094H344.125C344.391 45.1875 344.763 44.862 345.242 44.6328C345.721 44.3984 346.255 44.2812 346.844 44.2812C347.875 44.2812 348.651 44.5312 349.172 45.0312C349.693 45.526 349.953 46.3203 349.953 47.4141V53H348.656ZM358.078 53H356.781V40.8438H358.078V53ZM368.219 48.7109C368.219 50.1068 367.867 51.1979 367.164 51.9844C366.461 52.7656 365.49 53.1562 364.25 53.1562C363.484 53.1562 362.805 52.9766 362.211 52.6172C361.617 52.2578 361.159 51.7422 360.836 51.0703C360.513 50.3984 360.352 49.612 360.352 48.7109C360.352 47.3151 360.701 46.2292 361.398 45.4531C362.096 44.6719 363.065 44.2812 364.305 44.2812C365.503 44.2812 366.453 44.6797 367.156 45.4766C367.865 46.2734 368.219 47.3516 368.219 48.7109ZM361.695 48.7109C361.695 49.8047 361.914 50.638 362.352 51.2109C362.789 51.7839 363.432 52.0703 364.281 52.0703C365.13 52.0703 365.773 51.7865 366.211 51.2188C366.654 50.6458 366.875 49.8099 366.875 48.7109C366.875 47.6224 366.654 46.7969 366.211 46.2344C365.773 45.6667 365.125 45.3828 364.266 45.3828C363.417 45.3828 362.776 45.6615 362.344 46.2188C361.911 46.776 361.695 47.6068 361.695 48.7109ZM376.023 50.6641C376.023 51.4609 375.727 52.0755 375.133 52.5078C374.539 52.9401 373.706 53.1562 372.633 53.1562C371.497 53.1562 370.612 52.9766 369.977 52.6172V51.4141C370.388 51.6224 370.828 51.7865 371.297 51.9062C371.771 52.026 372.227 52.0859 372.664 52.0859C373.341 52.0859 373.862 51.9792 374.227 51.7656C374.591 51.5469 374.773 51.2161 374.773 50.7734C374.773 50.4401 374.628 50.1562 374.336 49.9219C374.049 49.6823 373.487 49.401 372.648 49.0781C371.852 48.7812 371.284 48.5234 370.945 48.3047C370.612 48.0807 370.362 47.8281 370.195 47.5469C370.034 47.2656 369.953 46.9297 369.953 46.5391C369.953 45.8411 370.237 45.2917 370.805 44.8906C371.372 44.4844 372.151 44.2812 373.141 44.2812C374.062 44.2812 374.964 44.4688 375.844 44.8438L375.383 45.8984C374.523 45.5443 373.745 45.3672 373.047 45.3672C372.432 45.3672 371.969 45.4635 371.656 45.6562C371.344 45.849 371.188 46.1146 371.188 46.4531C371.188 46.6823 371.245 46.8776 371.359 47.0391C371.479 47.2005 371.669 47.3542 371.93 47.5C372.19 47.6458 372.69 47.8568 373.43 48.1328C374.445 48.5026 375.13 48.875 375.484 49.25C375.844 49.625 376.023 50.0964 376.023 50.6641ZM388.125 51.8516H388.055C387.456 52.7214 386.56 53.1562 385.367 53.1562C384.247 53.1562 383.375 52.7734 382.75 52.0078C382.13 51.2422 381.82 50.1536 381.82 48.7422C381.82 47.3307 382.133 46.2344 382.758 45.4531C383.383 44.6719 384.253 44.2812 385.367 44.2812C386.529 44.2812 387.419 44.7031 388.039 45.5469H388.141L388.086 44.9297L388.055 44.3281V40.8438H389.352V53H388.297L388.125 51.8516ZM385.531 52.0703C386.417 52.0703 387.057 51.8307 387.453 51.3516C387.854 50.8672 388.055 50.0885 388.055 49.0156V48.7422C388.055 47.5286 387.852 46.6641 387.445 46.1484C387.044 45.6276 386.401 45.3672 385.516 45.3672C384.755 45.3672 384.172 45.6641 383.766 46.2578C383.365 46.8464 383.164 47.6797 383.164 48.7578C383.164 49.8516 383.365 50.6771 383.766 51.2344C384.167 51.7917 384.755 52.0703 385.531 52.0703ZM395.727 53.1562C394.461 53.1562 393.461 52.7708 392.727 52C391.997 51.2292 391.633 50.1589 391.633 48.7891C391.633 47.4089 391.971 46.3125 392.648 45.5C393.331 44.6875 394.245 44.2812 395.391 44.2812C396.464 44.2812 397.312 44.6354 397.938 45.3438C398.562 46.0469 398.875 46.9766 398.875 48.1328V48.9531H392.977C393.003 49.9583 393.255 50.7214 393.734 51.2422C394.219 51.763 394.898 52.0234 395.773 52.0234C396.695 52.0234 397.607 51.8307 398.508 51.4453V52.6016C398.049 52.7995 397.615 52.9401 397.203 53.0234C396.797 53.112 396.305 53.1562 395.727 53.1562ZM395.375 45.3672C394.688 45.3672 394.138 45.5911 393.727 46.0391C393.32 46.487 393.081 47.1068 393.008 47.8984H397.484C397.484 47.0807 397.302 46.4557 396.938 46.0234C396.573 45.5859 396.052 45.3672 395.375 45.3672ZM403.859 52.0859C404.089 52.0859 404.31 52.0703 404.523 52.0391C404.737 52.0026 404.906 51.9661 405.031 51.9297V52.9219C404.891 52.9896 404.682 53.0443 404.406 53.0859C404.135 53.1328 403.891 53.1562 403.672 53.1562C402.016 53.1562 401.188 52.2839 401.188 50.5391V45.4453H399.961V44.8203L401.188 44.2812L401.734 42.4531H402.484V44.4375H404.969V45.4453H402.484V50.4844C402.484 51 402.607 51.3958 402.852 51.6719C403.096 51.9479 403.432 52.0859 403.859 52.0859ZM412.016 53L411.758 51.7812H411.695C411.268 52.3177 410.841 52.6823 410.414 52.875C409.992 53.0625 409.464 53.1562 408.828 53.1562C407.979 53.1562 407.312 52.9375 406.828 52.5C406.349 52.0625 406.109 51.4401 406.109 50.6328C406.109 48.9036 407.492 47.9974 410.258 47.9141L411.711 47.8672V47.3359C411.711 46.6641 411.565 46.1693 411.273 45.8516C410.987 45.5286 410.526 45.3672 409.891 45.3672C409.177 45.3672 408.37 45.5859 407.469 46.0234L407.07 45.0312C407.492 44.8021 407.953 44.6224 408.453 44.4922C408.958 44.362 409.464 44.2969 409.969 44.2969C410.99 44.2969 411.745 44.5234 412.234 44.9766C412.729 45.4297 412.977 46.1562 412.977 47.1562V53H412.016ZM409.086 52.0859C409.893 52.0859 410.526 51.8646 410.984 51.4219C411.448 50.9792 411.68 50.3594 411.68 49.5625V48.7891L410.383 48.8438C409.352 48.8802 408.607 49.0417 408.148 49.3281C407.695 49.6094 407.469 50.0495 407.469 50.6484C407.469 51.1172 407.609 51.474 407.891 51.7188C408.177 51.9635 408.576 52.0859 409.086 52.0859ZM416.953 53H415.656V40.8438H416.953V53ZM421 53H419.703V40.8438H421V53ZM427.367 53.1562C426.102 53.1562 425.102 52.7708 424.367 52C423.638 51.2292 423.273 50.1589 423.273 48.7891C423.273 47.4089 423.612 46.3125 424.289 45.5C424.971 44.6875 425.885 44.2812 427.031 44.2812C428.104 44.2812 428.953 44.6354 429.578 45.3438C430.203 46.0469 430.516 46.9766 430.516 48.1328V48.9531H424.617C424.643 49.9583 424.896 50.7214 425.375 51.2422C425.859 51.763 426.539 52.0234 427.414 52.0234C428.336 52.0234 429.247 51.8307 430.148 51.4453V52.6016C429.69 52.7995 429.255 52.9401 428.844 53.0234C428.438 53.112 427.945 53.1562 427.367 53.1562ZM427.016 45.3672C426.328 45.3672 425.779 45.5911 425.367 46.0391C424.961 46.487 424.721 47.1068 424.648 47.8984H429.125C429.125 47.0807 428.943 46.4557 428.578 46.0234C428.214 45.5859 427.693 45.3672 427.016 45.3672ZM438.258 50.6641C438.258 51.4609 437.961 52.0755 437.367 52.5078C436.773 52.9401 435.94 53.1562 434.867 53.1562C433.732 53.1562 432.846 52.9766 432.211 52.6172V51.4141C432.622 51.6224 433.062 51.7865 433.531 51.9062C434.005 52.026 434.461 52.0859 434.898 52.0859C435.576 52.0859 436.096 51.9792 436.461 51.7656C436.826 51.5469 437.008 51.2161 437.008 50.7734C437.008 50.4401 436.862 50.1562 436.57 49.9219C436.284 49.6823 435.721 49.401 434.883 49.0781C434.086 48.7812 433.518 48.5234 433.18 48.3047C432.846 48.0807 432.596 47.8281 432.43 47.5469C432.268 47.2656 432.188 46.9297 432.188 46.5391C432.188 45.8411 432.471 45.2917 433.039 44.8906C433.607 44.4844 434.385 44.2812 435.375 44.2812C436.297 44.2812 437.198 44.4688 438.078 44.8438L437.617 45.8984C436.758 45.5443 435.979 45.3672 435.281 45.3672C434.667 45.3672 434.203 45.4635 433.891 45.6562C433.578 45.849 433.422 46.1146 433.422 46.4531C433.422 46.6823 433.479 46.8776 433.594 47.0391C433.714 47.2005 433.904 47.3542 434.164 47.5C434.424 47.6458 434.924 47.8568 435.664 48.1328C436.68 48.5026 437.365 48.875 437.719 49.25C438.078 49.625 438.258 50.0964 438.258 50.6641ZM448.516 53.1562C447.958 53.1562 447.448 53.0547 446.984 52.8516C446.526 52.6432 446.141 52.3255 445.828 51.8984H445.734C445.797 52.3984 445.828 52.8724 445.828 53.3203V56.8438H444.531V44.4375H445.586L445.766 45.6094H445.828C446.161 45.1406 446.549 44.8021 446.992 44.5938C447.435 44.3854 447.943 44.2812 448.516 44.2812C449.651 44.2812 450.526 44.6693 451.141 45.4453C451.76 46.2214 452.07 47.3099 452.07 48.7109C452.07 50.1172 451.755 51.2109 451.125 51.9922C450.5 52.7682 449.63 53.1562 448.516 53.1562ZM448.328 45.3828C447.453 45.3828 446.82 45.625 446.43 46.1094C446.039 46.5938 445.839 47.3646 445.828 48.4219V48.7109C445.828 49.9141 446.029 50.776 446.43 51.2969C446.831 51.8125 447.474 52.0703 448.359 52.0703C449.099 52.0703 449.677 51.7708 450.094 51.1719C450.516 50.5729 450.727 49.7474 450.727 48.6953C450.727 47.6276 450.516 46.8099 450.094 46.2422C449.677 45.6693 449.089 45.3828 448.328 45.3828ZM458.25 44.2812C458.63 44.2812 458.971 44.3125 459.273 44.375L459.094 45.5781C458.74 45.5 458.427 45.4609 458.156 45.4609C457.464 45.4609 456.87 45.7422 456.375 46.3047C455.885 46.8672 455.641 47.5677 455.641 48.4062V53H454.344V44.4375H455.414L455.562 46.0234H455.625C455.943 45.4661 456.326 45.0365 456.773 44.7344C457.221 44.4323 457.714 44.2812 458.25 44.2812ZM462.172 53H460.875V44.4375H462.172V53ZM460.766 42.1172C460.766 41.8203 460.839 41.6042 460.984 41.4688C461.13 41.3281 461.312 41.2578 461.531 41.2578C461.74 41.2578 461.919 41.3281 462.07 41.4688C462.221 41.6094 462.297 41.8255 462.297 42.1172C462.297 42.4089 462.221 42.6276 462.07 42.7734C461.919 42.9141 461.74 42.9844 461.531 42.9844C461.312 42.9844 461.13 42.9141 460.984 42.7734C460.839 42.6276 460.766 42.4089 460.766 42.1172ZM470.781 53V47.4609C470.781 46.763 470.622 46.2422 470.305 45.8984C469.987 45.5547 469.49 45.3828 468.812 45.3828C467.917 45.3828 467.26 45.625 466.844 46.1094C466.427 46.5938 466.219 47.3932 466.219 48.5078V53H464.922V44.4375H465.977L466.188 45.6094H466.25C466.516 45.1875 466.888 44.862 467.367 44.6328C467.846 44.3984 468.38 44.2812 468.969 44.2812C470 44.2812 470.776 44.5312 471.297 45.0312C471.818 45.526 472.078 46.3203 472.078 47.4141V53H470.781ZM478.172 53.1562C476.932 53.1562 475.971 52.776 475.289 52.0156C474.612 51.25 474.273 50.1693 474.273 48.7734C474.273 47.3411 474.617 46.2344 475.305 45.4531C475.997 44.6719 476.982 44.2812 478.258 44.2812C478.669 44.2812 479.081 44.3255 479.492 44.4141C479.904 44.5026 480.227 44.6068 480.461 44.7266L480.062 45.8281C479.776 45.7135 479.464 45.6198 479.125 45.5469C478.786 45.4688 478.487 45.4297 478.227 45.4297C476.487 45.4297 475.617 46.5391 475.617 48.7578C475.617 49.8099 475.828 50.6172 476.25 51.1797C476.677 51.7422 477.307 52.0234 478.141 52.0234C478.854 52.0234 479.586 51.8698 480.336 51.5625V52.7109C479.763 53.0078 479.042 53.1562 478.172 53.1562ZM483.672 53H482.375V44.4375H483.672V53ZM482.266 42.1172C482.266 41.8203 482.339 41.6042 482.484 41.4688C482.63 41.3281 482.812 41.2578 483.031 41.2578C483.24 41.2578 483.419 41.3281 483.57 41.4688C483.721 41.6094 483.797 41.8255 483.797 42.1172C483.797 42.4089 483.721 42.6276 483.57 42.7734C483.419 42.9141 483.24 42.9844 483.031 42.9844C482.812 42.9844 482.63 42.9141 482.484 42.7734C482.339 42.6276 482.266 42.4089 482.266 42.1172ZM490.406 53.1562C489.849 53.1562 489.339 53.0547 488.875 52.8516C488.417 52.6432 488.031 52.3255 487.719 51.8984H487.625C487.688 52.3984 487.719 52.8724 487.719 53.3203V56.8438H486.422V44.4375H487.477L487.656 45.6094H487.719C488.052 45.1406 488.44 44.8021 488.883 44.5938C489.326 44.3854 489.833 44.2812 490.406 44.2812C491.542 44.2812 492.417 44.6693 493.031 45.4453C493.651 46.2214 493.961 47.3099 493.961 48.7109C493.961 50.1172 493.646 51.2109 493.016 51.9922C492.391 52.7682 491.521 53.1562 490.406 53.1562ZM490.219 45.3828C489.344 45.3828 488.711 45.625 488.32 46.1094C487.93 46.5938 487.729 47.3646 487.719 48.4219V48.7109C487.719 49.9141 487.919 50.776 488.32 51.2969C488.721 51.8125 489.365 52.0703 490.25 52.0703C490.99 52.0703 491.568 51.7708 491.984 51.1719C492.406 50.5729 492.617 49.7474 492.617 48.6953C492.617 47.6276 492.406 46.8099 491.984 46.2422C491.568 45.6693 490.979 45.3828 490.219 45.3828ZM501.5 53L501.242 51.7812H501.18C500.753 52.3177 500.326 52.6823 499.898 52.875C499.477 53.0625 498.948 53.1562 498.312 53.1562C497.464 53.1562 496.797 52.9375 496.312 52.5C495.833 52.0625 495.594 51.4401 495.594 50.6328C495.594 48.9036 496.977 47.9974 499.742 47.9141L501.195 47.8672V47.3359C501.195 46.6641 501.049 46.1693 500.758 45.8516C500.471 45.5286 500.01 45.3672 499.375 45.3672C498.661 45.3672 497.854 45.5859 496.953 46.0234L496.555 45.0312C496.977 44.8021 497.438 44.6224 497.938 44.4922C498.443 44.362 498.948 44.2969 499.453 44.2969C500.474 44.2969 501.229 44.5234 501.719 44.9766C502.214 45.4297 502.461 46.1562 502.461 47.1562V53H501.5ZM498.57 52.0859C499.378 52.0859 500.01 51.8646 500.469 51.4219C500.932 50.9792 501.164 50.3594 501.164 49.5625V48.7891L499.867 48.8438C498.836 48.8802 498.091 49.0417 497.633 49.3281C497.18 49.6094 496.953 50.0495 496.953 50.6484C496.953 51.1172 497.094 51.474 497.375 51.7188C497.661 51.9635 498.06 52.0859 498.57 52.0859ZM506.438 53H505.141V40.8438H506.438V53ZM512.805 53.1562C511.539 53.1562 510.539 52.7708 509.805 52C509.076 51.2292 508.711 50.1589 508.711 48.7891C508.711 47.4089 509.049 46.3125 509.727 45.5C510.409 44.6875 511.323 44.2812 512.469 44.2812C513.542 44.2812 514.391 44.6354 515.016 45.3438C515.641 46.0469 515.953 46.9766 515.953 48.1328V48.9531H510.055C510.081 49.9583 510.333 50.7214 510.812 51.2422C511.297 51.763 511.977 52.0234 512.852 52.0234C513.773 52.0234 514.685 51.8307 515.586 51.4453V52.6016C515.128 52.7995 514.693 52.9401 514.281 53.0234C513.875 53.112 513.383 53.1562 512.805 53.1562ZM512.453 45.3672C511.766 45.3672 511.216 45.5911 510.805 46.0391C510.398 46.487 510.159 47.1068 510.086 47.8984H514.562C514.562 47.0807 514.38 46.4557 514.016 46.0234C513.651 45.5859 513.13 45.3672 512.453 45.3672ZM523.695 50.6641C523.695 51.4609 523.398 52.0755 522.805 52.5078C522.211 52.9401 521.378 53.1562 520.305 53.1562C519.169 53.1562 518.284 52.9766 517.648 52.6172V51.4141C518.06 51.6224 518.5 51.7865 518.969 51.9062C519.443 52.026 519.898 52.0859 520.336 52.0859C521.013 52.0859 521.534 51.9792 521.898 51.7656C522.263 51.5469 522.445 51.2161 522.445 50.7734C522.445 50.4401 522.299 50.1562 522.008 49.9219C521.721 49.6823 521.159 49.401 520.32 49.0781C519.523 48.7812 518.956 48.5234 518.617 48.3047C518.284 48.0807 518.034 47.8281 517.867 47.5469C517.706 47.2656 517.625 46.9297 517.625 46.5391C517.625 45.8411 517.909 45.2917 518.477 44.8906C519.044 44.4844 519.823 44.2812 520.812 44.2812C521.734 44.2812 522.635 44.4688 523.516 44.8438L523.055 45.8984C522.195 45.5443 521.417 45.3672 520.719 45.3672C520.104 45.3672 519.641 45.4635 519.328 45.6562C519.016 45.849 518.859 46.1146 518.859 46.4531C518.859 46.6823 518.917 46.8776 519.031 47.0391C519.151 47.2005 519.341 47.3542 519.602 47.5C519.862 47.6458 520.362 47.8568 521.102 48.1328C522.117 48.5026 522.802 48.875 523.156 49.25C523.516 49.625 523.695 50.0964 523.695 50.6641ZM535.797 51.8516H535.727C535.128 52.7214 534.232 53.1562 533.039 53.1562C531.919 53.1562 531.047 52.7734 530.422 52.0078C529.802 51.2422 529.492 50.1536 529.492 48.7422C529.492 47.3307 529.805 46.2344 530.43 45.4531C531.055 44.6719 531.924 44.2812 533.039 44.2812C534.201 44.2812 535.091 44.7031 535.711 45.5469H535.812L535.758 44.9297L535.727 44.3281V40.8438H537.023V53H535.969L535.797 51.8516ZM533.203 52.0703C534.089 52.0703 534.729 51.8307 535.125 51.3516C535.526 50.8672 535.727 50.0885 535.727 49.0156V48.7422C535.727 47.5286 535.523 46.6641 535.117 46.1484C534.716 45.6276 534.073 45.3672 533.188 45.3672C532.427 45.3672 531.844 45.6641 531.438 46.2578C531.036 46.8464 530.836 47.6797 530.836 48.7578C530.836 49.8516 531.036 50.6771 531.438 51.2344C531.839 51.7917 532.427 52.0703 533.203 52.0703ZM543.398 53.1562C542.133 53.1562 541.133 52.7708 540.398 52C539.669 51.2292 539.305 50.1589 539.305 48.7891C539.305 47.4089 539.643 46.3125 540.32 45.5C541.003 44.6875 541.917 44.2812 543.062 44.2812C544.135 44.2812 544.984 44.6354 545.609 45.3438C546.234 46.0469 546.547 46.9766 546.547 48.1328V48.9531H540.648C540.674 49.9583 540.927 50.7214 541.406 51.2422C541.891 51.763 542.57 52.0234 543.445 52.0234C544.367 52.0234 545.279 51.8307 546.18 51.4453V52.6016C545.721 52.7995 545.286 52.9401 544.875 53.0234C544.469 53.112 543.977 53.1562 543.398 53.1562ZM543.047 45.3672C542.359 45.3672 541.81 45.5911 541.398 46.0391C540.992 46.487 540.753 47.1068 540.68 47.8984H545.156C545.156 47.0807 544.974 46.4557 544.609 46.0234C544.245 45.5859 543.724 45.3672 543.047 45.3672ZM554.219 53H552.922V40.8438H554.219V53ZM562.234 53L561.977 51.7812H561.914C561.487 52.3177 561.06 52.6823 560.633 52.875C560.211 53.0625 559.682 53.1562 559.047 53.1562C558.198 53.1562 557.531 52.9375 557.047 52.5C556.568 52.0625 556.328 51.4401 556.328 50.6328C556.328 48.9036 557.711 47.9974 560.477 47.9141L561.93 47.8672V47.3359C561.93 46.6641 561.784 46.1693 561.492 45.8516C561.206 45.5286 560.745 45.3672 560.109 45.3672C559.396 45.3672 558.589 45.5859 557.688 46.0234L557.289 45.0312C557.711 44.8021 558.172 44.6224 558.672 44.4922C559.177 44.362 559.682 44.2969 560.188 44.2969C561.208 44.2969 561.964 44.5234 562.453 44.9766C562.948 45.4297 563.195 46.1562 563.195 47.1562V53H562.234ZM559.305 52.0859C560.112 52.0859 560.745 51.8646 561.203 51.4219C561.667 50.9792 561.898 50.3594 561.898 49.5625V48.7891L560.602 48.8438C559.57 48.8802 558.826 49.0417 558.367 49.3281C557.914 49.6094 557.688 50.0495 557.688 50.6484C557.688 51.1172 557.828 51.474 558.109 51.7188C558.396 51.9635 558.794 52.0859 559.305 52.0859ZM571.398 50.6641C571.398 51.4609 571.102 52.0755 570.508 52.5078C569.914 52.9401 569.081 53.1562 568.008 53.1562C566.872 53.1562 565.987 52.9766 565.352 52.6172V51.4141C565.763 51.6224 566.203 51.7865 566.672 51.9062C567.146 52.026 567.602 52.0859 568.039 52.0859C568.716 52.0859 569.237 51.9792 569.602 51.7656C569.966 51.5469 570.148 51.2161 570.148 50.7734C570.148 50.4401 570.003 50.1562 569.711 49.9219C569.424 49.6823 568.862 49.401 568.023 49.0781C567.227 48.7812 566.659 48.5234 566.32 48.3047C565.987 48.0807 565.737 47.8281 565.57 47.5469C565.409 47.2656 565.328 46.9297 565.328 46.5391C565.328 45.8411 565.612 45.2917 566.18 44.8906C566.747 44.4844 567.526 44.2812 568.516 44.2812C569.438 44.2812 570.339 44.4688 571.219 44.8438L570.758 45.8984C569.898 45.5443 569.12 45.3672 568.422 45.3672C567.807 45.3672 567.344 45.4635 567.031 45.6562C566.719 45.849 566.562 46.1146 566.562 46.4531C566.562 46.6823 566.62 46.8776 566.734 47.0391C566.854 47.2005 567.044 47.3542 567.305 47.5C567.565 47.6458 568.065 47.8568 568.805 48.1328C569.82 48.5026 570.505 48.875 570.859 49.25C571.219 49.625 571.398 50.0964 571.398 50.6641ZM582.938 53L582.68 51.7812H582.617C582.19 52.3177 581.763 52.6823 581.336 52.875C580.914 53.0625 580.385 53.1562 579.75 53.1562C578.901 53.1562 578.234 52.9375 577.75 52.5C577.271 52.0625 577.031 51.4401 577.031 50.6328C577.031 48.9036 578.414 47.9974 581.18 47.9141L582.633 47.8672V47.3359C582.633 46.6641 582.487 46.1693 582.195 45.8516C581.909 45.5286 581.448 45.3672 580.812 45.3672C580.099 45.3672 579.292 45.5859 578.391 46.0234L577.992 45.0312C578.414 44.8021 578.875 44.6224 579.375 44.4922C579.88 44.362 580.385 44.2969 580.891 44.2969C581.911 44.2969 582.667 44.5234 583.156 44.9766C583.651 45.4297 583.898 46.1562 583.898 47.1562V53H582.938ZM580.008 52.0859C580.815 52.0859 581.448 51.8646 581.906 51.4219C582.37 50.9792 582.602 50.3594 582.602 49.5625V48.7891L581.305 48.8438C580.273 48.8802 579.529 49.0417 579.07 49.3281C578.617 49.6094 578.391 50.0495 578.391 50.6484C578.391 51.1172 578.531 51.474 578.812 51.7188C579.099 51.9635 579.497 52.0859 580.008 52.0859ZM590 53.1562C588.76 53.1562 587.799 52.776 587.117 52.0156C586.44 51.25 586.102 50.1693 586.102 48.7734C586.102 47.3411 586.445 46.2344 587.133 45.4531C587.826 44.6719 588.81 44.2812 590.086 44.2812C590.497 44.2812 590.909 44.3255 591.32 44.4141C591.732 44.5026 592.055 44.6068 592.289 44.7266L591.891 45.8281C591.604 45.7135 591.292 45.6198 590.953 45.5469C590.615 45.4688 590.315 45.4297 590.055 45.4297C588.315 45.4297 587.445 46.5391 587.445 48.7578C587.445 49.8099 587.656 50.6172 588.078 51.1797C588.505 51.7422 589.135 52.0234 589.969 52.0234C590.682 52.0234 591.414 51.8698 592.164 51.5625V52.7109C591.591 53.0078 590.87 53.1562 590 53.1562ZM597.625 53.1562C596.385 53.1562 595.424 52.776 594.742 52.0156C594.065 51.25 593.727 50.1693 593.727 48.7734C593.727 47.3411 594.07 46.2344 594.758 45.4531C595.451 44.6719 596.435 44.2812 597.711 44.2812C598.122 44.2812 598.534 44.3255 598.945 44.4141C599.357 44.5026 599.68 44.6068 599.914 44.7266L599.516 45.8281C599.229 45.7135 598.917 45.6198 598.578 45.5469C598.24 45.4688 597.94 45.4297 597.68 45.4297C595.94 45.4297 595.07 46.5391 595.07 48.7578C595.07 49.8099 595.281 50.6172 595.703 51.1797C596.13 51.7422 596.76 52.0234 597.594 52.0234C598.307 52.0234 599.039 51.8698 599.789 51.5625V52.7109C599.216 53.0078 598.495 53.1562 597.625 53.1562ZM603.125 53H601.828V44.4375H603.125V53ZM601.719 42.1172C601.719 41.8203 601.792 41.6042 601.938 41.4688C602.083 41.3281 602.266 41.2578 602.484 41.2578C602.693 41.2578 602.872 41.3281 603.023 41.4688C603.174 41.6094 603.25 41.8255 603.25 42.1172C603.25 42.4089 603.174 42.6276 603.023 42.7734C602.872 42.9141 602.693 42.9844 602.484 42.9844C602.266 42.9844 602.083 42.9141 601.938 42.7734C601.792 42.6276 601.719 42.4089 601.719 42.1172ZM613.266 48.7109C613.266 50.1068 612.914 51.1979 612.211 51.9844C611.508 52.7656 610.536 53.1562 609.297 53.1562C608.531 53.1562 607.852 52.9766 607.258 52.6172C606.664 52.2578 606.206 51.7422 605.883 51.0703C605.56 50.3984 605.398 49.612 605.398 48.7109C605.398 47.3151 605.747 46.2292 606.445 45.4531C607.143 44.6719 608.112 44.2812 609.352 44.2812C610.549 44.2812 611.5 44.6797 612.203 45.4766C612.911 46.2734 613.266 47.3516 613.266 48.7109ZM606.742 48.7109C606.742 49.8047 606.961 50.638 607.398 51.2109C607.836 51.7839 608.479 52.0703 609.328 52.0703C610.177 52.0703 610.82 51.7865 611.258 51.2188C611.701 50.6458 611.922 49.8099 611.922 48.7109C611.922 47.6224 611.701 46.7969 611.258 46.2344C610.82 45.6667 610.172 45.3828 609.312 45.3828C608.464 45.3828 607.823 45.6615 607.391 46.2188C606.958 46.776 606.742 47.6068 606.742 48.7109ZM621.406 53V47.4609C621.406 46.763 621.247 46.2422 620.93 45.8984C620.612 45.5547 620.115 45.3828 619.438 45.3828C618.542 45.3828 617.885 45.625 617.469 46.1094C617.052 46.5938 616.844 47.3932 616.844 48.5078V53H615.547V44.4375H616.602L616.812 45.6094H616.875C617.141 45.1875 617.513 44.862 617.992 44.6328C618.471 44.3984 619.005 44.2812 619.594 44.2812C620.625 44.2812 621.401 44.5312 621.922 45.0312C622.443 45.526 622.703 46.3203 622.703 47.4141V53H621.406ZM628.992 53.1562C627.727 53.1562 626.727 52.7708 625.992 52C625.263 51.2292 624.898 50.1589 624.898 48.7891C624.898 47.4089 625.237 46.3125 625.914 45.5C626.596 44.6875 627.51 44.2812 628.656 44.2812C629.729 44.2812 630.578 44.6354 631.203 45.3438C631.828 46.0469 632.141 46.9766 632.141 48.1328V48.9531H626.242C626.268 49.9583 626.521 50.7214 627 51.2422C627.484 51.763 628.164 52.0234 629.039 52.0234C629.961 52.0234 630.872 51.8307 631.773 51.4453V52.6016C631.315 52.7995 630.88 52.9401 630.469 53.0234C630.062 53.112 629.57 53.1562 628.992 53.1562ZM628.641 45.3672C627.953 45.3672 627.404 45.5911 626.992 46.0391C626.586 46.487 626.346 47.1068 626.273 47.8984H630.75C630.75 47.0807 630.568 46.4557 630.203 46.0234C629.839 45.5859 629.318 45.3672 628.641 45.3672ZM639.883 50.6641C639.883 51.4609 639.586 52.0755 638.992 52.5078C638.398 52.9401 637.565 53.1562 636.492 53.1562C635.357 53.1562 634.471 52.9766 633.836 52.6172V51.4141C634.247 51.6224 634.688 51.7865 635.156 51.9062C635.63 52.026 636.086 52.0859 636.523 52.0859C637.201 52.0859 637.721 51.9792 638.086 51.7656C638.451 51.5469 638.633 51.2161 638.633 50.7734C638.633 50.4401 638.487 50.1562 638.195 49.9219C637.909 49.6823 637.346 49.401 636.508 49.0781C635.711 48.7812 635.143 48.5234 634.805 48.3047C634.471 48.0807 634.221 47.8281 634.055 47.5469C633.893 47.2656 633.812 46.9297 633.812 46.5391C633.812 45.8411 634.096 45.2917 634.664 44.8906C635.232 44.4844 636.01 44.2812 637 44.2812C637.922 44.2812 638.823 44.4688 639.703 44.8438L639.242 45.8984C638.383 45.5443 637.604 45.3672 636.906 45.3672C636.292 45.3672 635.828 45.4635 635.516 45.6562C635.203 45.849 635.047 46.1146 635.047 46.4531C635.047 46.6823 635.104 46.8776 635.219 47.0391C635.339 47.2005 635.529 47.3542 635.789 47.5C636.049 47.6458 636.549 47.8568 637.289 48.1328C638.305 48.5026 638.99 48.875 639.344 49.25C639.703 49.625 639.883 50.0964 639.883 50.6641ZM649.391 52.0703C650.255 52.0703 650.885 51.8385 651.281 51.375C651.677 50.9115 651.888 50.1302 651.914 49.0312V48.7422C651.914 47.5443 651.711 46.6823 651.305 46.1562C650.898 45.6302 650.255 45.3672 649.375 45.3672C648.615 45.3672 648.031 45.6641 647.625 46.2578C647.224 46.8464 647.023 47.6797 647.023 48.7578C647.023 49.8359 647.221 50.6589 647.617 51.2266C648.018 51.7891 648.609 52.0703 649.391 52.0703ZM649.195 53.1562C648.091 53.1562 647.229 52.7682 646.609 51.9922C645.99 51.2161 645.68 50.1328 645.68 48.7422C645.68 47.3411 645.992 46.2474 646.617 45.4609C647.242 44.6745 648.112 44.2812 649.227 44.2812C650.398 44.2812 651.299 44.724 651.93 45.6094H652L652.188 44.4375H653.211V56.8438H651.914V53.1797C651.914 52.6589 651.943 52.2161 652 51.8516H651.898C651.299 52.7214 650.398 53.1562 649.195 53.1562ZM657.188 44.4375V49.9922C657.188 50.6901 657.346 51.2109 657.664 51.5547C657.982 51.8984 658.479 52.0703 659.156 52.0703C660.052 52.0703 660.706 51.8255 661.117 51.3359C661.534 50.8464 661.742 50.0469 661.742 48.9375V44.4375H663.039V53H661.969L661.781 51.8516H661.711C661.445 52.2734 661.076 52.5964 660.602 52.8203C660.133 53.0443 659.596 53.1562 658.992 53.1562C657.951 53.1562 657.169 52.9089 656.648 52.4141C656.133 51.9193 655.875 51.1276 655.875 50.0391V44.4375H657.188ZM669.414 53.1562C668.148 53.1562 667.148 52.7708 666.414 52C665.685 51.2292 665.32 50.1589 665.32 48.7891C665.32 47.4089 665.659 46.3125 666.336 45.5C667.018 44.6875 667.932 44.2812 669.078 44.2812C670.151 44.2812 671 44.6354 671.625 45.3438C672.25 46.0469 672.562 46.9766 672.562 48.1328V48.9531H666.664C666.69 49.9583 666.943 50.7214 667.422 51.2422C667.906 51.763 668.586 52.0234 669.461 52.0234C670.383 52.0234 671.294 51.8307 672.195 51.4453V52.6016C671.737 52.7995 671.302 52.9401 670.891 53.0234C670.484 53.112 669.992 53.1562 669.414 53.1562ZM669.062 45.3672C668.375 45.3672 667.826 45.5911 667.414 46.0391C667.008 46.487 666.768 47.1068 666.695 47.8984H671.172C671.172 47.0807 670.99 46.4557 670.625 46.0234C670.26 45.5859 669.74 45.3672 669.062 45.3672ZM50.2031 75.8516H50.1328C49.5339 76.7214 48.638 77.1562 47.4453 77.1562C46.3255 77.1562 45.4531 76.7734 44.8281 76.0078C44.2083 75.2422 43.8984 74.1536 43.8984 72.7422C43.8984 71.3307 44.2109 70.2344 44.8359 69.4531C45.4609 68.6719 46.3307 68.2812 47.4453 68.2812C48.6068 68.2812 49.4974 68.7031 50.1172 69.5469H50.2188L50.1641 68.9297L50.1328 68.3281V64.8438H51.4297V77H50.375L50.2031 75.8516ZM47.6094 76.0703C48.4948 76.0703 49.1354 75.8307 49.5312 75.3516C49.9323 74.8672 50.1328 74.0885 50.1328 73.0156V72.7422C50.1328 71.5286 49.9297 70.6641 49.5234 70.1484C49.1224 69.6276 48.4792 69.3672 47.5938 69.3672C46.8333 69.3672 46.25 69.6641 45.8438 70.2578C45.4427 70.8464 45.2422 71.6797 45.2422 72.7578C45.2422 73.8516 45.4427 74.6771 45.8438 75.2344C46.2448 75.7917 46.8333 76.0703 47.6094 76.0703ZM57.8047 77.1562C56.5391 77.1562 55.5391 76.7708 54.8047 76C54.0755 75.2292 53.7109 74.1589 53.7109 72.7891C53.7109 71.4089 54.0495 70.3125 54.7266 69.5C55.4089 68.6875 56.3229 68.2812 57.4688 68.2812C58.5417 68.2812 59.3906 68.6354 60.0156 69.3438C60.6406 70.0469 60.9531 70.9766 60.9531 72.1328V72.9531H55.0547C55.0807 73.9583 55.3333 74.7214 55.8125 75.2422C56.2969 75.763 56.9766 76.0234 57.8516 76.0234C58.7734 76.0234 59.6849 75.8307 60.5859 75.4453V76.6016C60.1276 76.7995 59.6927 76.9401 59.2812 77.0234C58.875 77.112 58.3828 77.1562 57.8047 77.1562ZM57.4531 69.3672C56.7656 69.3672 56.2161 69.5911 55.8047 70.0391C55.3984 70.487 55.1589 71.1068 55.0859 71.8984H59.5625C59.5625 71.0807 59.3802 70.4557 59.0156 70.0234C58.651 69.5859 58.1302 69.3672 57.4531 69.3672ZM67.1562 68.2969C68.2812 68.2969 69.1536 68.6823 69.7734 69.4531C70.3984 70.2188 70.7109 71.3047 70.7109 72.7109C70.7109 74.1172 70.3958 75.2109 69.7656 75.9922C69.1406 76.7682 68.2708 77.1562 67.1562 77.1562C66.599 77.1562 66.0885 77.0547 65.625 76.8516C65.1667 76.6432 64.7812 76.3255 64.4688 75.8984H64.375L64.1016 77H63.1719V64.8438H64.4688V67.7969C64.4688 68.4583 64.4479 69.0521 64.4062 69.5781H64.4688C65.0729 68.724 65.9688 68.2969 67.1562 68.2969ZM66.9688 69.3828C66.0833 69.3828 65.4453 69.638 65.0547 70.1484C64.6641 70.6536 64.4688 71.5078 64.4688 72.7109C64.4688 73.9141 64.6693 74.776 65.0703 75.2969C65.4714 75.8125 66.1146 76.0703 67 76.0703C67.7969 76.0703 68.3906 75.7812 68.7812 75.2031C69.1719 74.6198 69.3672 73.7839 69.3672 72.6953C69.3672 71.5807 69.1719 70.75 68.7812 70.2031C68.3906 69.6562 67.7865 69.3828 66.9688 69.3828ZM76.6016 77.1562C75.3359 77.1562 74.3359 76.7708 73.6016 76C72.8724 75.2292 72.5078 74.1589 72.5078 72.7891C72.5078 71.4089 72.8464 70.3125 73.5234 69.5C74.2057 68.6875 75.1198 68.2812 76.2656 68.2812C77.3385 68.2812 78.1875 68.6354 78.8125 69.3438C79.4375 70.0469 79.75 70.9766 79.75 72.1328V72.9531H73.8516C73.8776 73.9583 74.1302 74.7214 74.6094 75.2422C75.0938 75.763 75.7734 76.0234 76.6484 76.0234C77.5703 76.0234 78.4818 75.8307 79.3828 75.4453V76.6016C78.9245 76.7995 78.4896 76.9401 78.0781 77.0234C77.6719 77.112 77.1797 77.1562 76.6016 77.1562ZM76.25 69.3672C75.5625 69.3672 75.013 69.5911 74.6016 70.0391C74.1953 70.487 73.9557 71.1068 73.8828 71.8984H78.3594C78.3594 71.0807 78.1771 70.4557 77.8125 70.0234C77.4479 69.5859 76.9271 69.3672 76.25 69.3672ZM85.875 68.2812C86.2552 68.2812 86.5964 68.3125 86.8984 68.375L86.7188 69.5781C86.3646 69.5 86.0521 69.4609 85.7812 69.4609C85.0885 69.4609 84.4948 69.7422 84 70.3047C83.5104 70.8672 83.2656 71.5677 83.2656 72.4062V77H81.9688V68.4375H83.0391L83.1875 70.0234H83.25C83.5677 69.4661 83.9505 69.0365 84.3984 68.7344C84.8464 68.4323 85.3385 68.2812 85.875 68.2812ZM93.7656 77L93.5078 75.7812H93.4453C93.0182 76.3177 92.5911 76.6823 92.1641 76.875C91.7422 77.0625 91.2135 77.1562 90.5781 77.1562C89.7292 77.1562 89.0625 76.9375 88.5781 76.5C88.099 76.0625 87.8594 75.4401 87.8594 74.6328C87.8594 72.9036 89.2422 71.9974 92.0078 71.9141L93.4609 71.8672V71.3359C93.4609 70.6641 93.3151 70.1693 93.0234 69.8516C92.737 69.5286 92.276 69.3672 91.6406 69.3672C90.9271 69.3672 90.1198 69.5859 89.2188 70.0234L88.8203 69.0312C89.2422 68.8021 89.7031 68.6224 90.2031 68.4922C90.7083 68.362 91.2135 68.2969 91.7188 68.2969C92.7396 68.2969 93.4948 68.5234 93.9844 68.9766C94.4792 69.4297 94.7266 70.1562 94.7266 71.1562V77H93.7656ZM90.8359 76.0859C91.6432 76.0859 92.276 75.8646 92.7344 75.4219C93.1979 74.9792 93.4297 74.3594 93.4297 73.5625V72.7891L92.1328 72.8438C91.1016 72.8802 90.3568 73.0417 89.8984 73.3281C89.4453 73.6094 89.2188 74.0495 89.2188 74.6484C89.2188 75.1172 89.3594 75.474 89.6406 75.7188C89.9271 75.9635 90.3255 76.0859 90.8359 76.0859ZM90.5312 67.1094C90.7812 66.7865 91.0495 66.3958 91.3359 65.9375C91.6276 65.4792 91.8568 65.0807 92.0234 64.7422H93.6016V64.9062C93.3724 65.2448 93.0312 65.6615 92.5781 66.1562C92.125 66.651 91.7318 67.0339 91.3984 67.3047H90.5312V67.1094ZM105.469 68.2812C105.849 68.2812 106.19 68.3125 106.492 68.375L106.312 69.5781C105.958 69.5 105.646 69.4609 105.375 69.4609C104.682 69.4609 104.089 69.7422 103.594 70.3047C103.104 70.8672 102.859 71.5677 102.859 72.4062V77H101.562V68.4375H102.633L102.781 70.0234H102.844C103.161 69.4661 103.544 69.0365 103.992 68.7344C104.44 68.4323 104.932 68.2812 105.469 68.2812ZM111.711 77.1562C110.445 77.1562 109.445 76.7708 108.711 76C107.982 75.2292 107.617 74.1589 107.617 72.7891C107.617 71.4089 107.956 70.3125 108.633 69.5C109.315 68.6875 110.229 68.2812 111.375 68.2812C112.448 68.2812 113.297 68.6354 113.922 69.3438C114.547 70.0469 114.859 70.9766 114.859 72.1328V72.9531H108.961C108.987 73.9583 109.24 74.7214 109.719 75.2422C110.203 75.763 110.883 76.0234 111.758 76.0234C112.68 76.0234 113.591 75.8307 114.492 75.4453V76.6016C114.034 76.7995 113.599 76.9401 113.188 77.0234C112.781 77.112 112.289 77.1562 111.711 77.1562ZM111.359 69.3672C110.672 69.3672 110.122 69.5911 109.711 70.0391C109.305 70.487 109.065 71.1068 108.992 71.8984H113.469C113.469 71.0807 113.286 70.4557 112.922 70.0234C112.557 69.5859 112.036 69.3672 111.359 69.3672ZM122.344 77L122.086 75.7812H122.023C121.596 76.3177 121.169 76.6823 120.742 76.875C120.32 77.0625 119.792 77.1562 119.156 77.1562C118.307 77.1562 117.641 76.9375 117.156 76.5C116.677 76.0625 116.438 75.4401 116.438 74.6328C116.438 72.9036 117.82 71.9974 120.586 71.9141L122.039 71.8672V71.3359C122.039 70.6641 121.893 70.1693 121.602 69.8516C121.315 69.5286 120.854 69.3672 120.219 69.3672C119.505 69.3672 118.698 69.5859 117.797 70.0234L117.398 69.0312C117.82 68.8021 118.281 68.6224 118.781 68.4922C119.286 68.362 119.792 68.2969 120.297 68.2969C121.318 68.2969 122.073 68.5234 122.562 68.9766C123.057 69.4297 123.305 70.1562 123.305 71.1562V77H122.344ZM119.414 76.0859C120.221 76.0859 120.854 75.8646 121.312 75.4219C121.776 74.9792 122.008 74.3594 122.008 73.5625V72.7891L120.711 72.8438C119.68 72.8802 118.935 73.0417 118.477 73.3281C118.023 73.6094 117.797 74.0495 117.797 74.6484C117.797 75.1172 117.938 75.474 118.219 75.7188C118.505 75.9635 118.904 76.0859 119.414 76.0859ZM127.281 77H125.984V64.8438H127.281V77ZM131.328 77H130.031V68.4375H131.328V77ZM129.922 66.1172C129.922 65.8203 129.995 65.6042 130.141 65.4688C130.286 65.3281 130.469 65.2578 130.688 65.2578C130.896 65.2578 131.076 65.3281 131.227 65.4688C131.378 65.6094 131.453 65.8255 131.453 66.1172C131.453 66.4089 131.378 66.6276 131.227 66.7734C131.076 66.9141 130.896 66.9844 130.688 66.9844C130.469 66.9844 130.286 66.9141 130.141 66.7734C129.995 66.6276 129.922 66.4089 129.922 66.1172ZM139.555 77H133.344V76.1172L138.016 69.4453H133.633V68.4375H139.438V69.4453L134.828 75.9922H139.555V77ZM146.828 77L146.57 75.7812H146.508C146.081 76.3177 145.654 76.6823 145.227 76.875C144.805 77.0625 144.276 77.1562 143.641 77.1562C142.792 77.1562 142.125 76.9375 141.641 76.5C141.161 76.0625 140.922 75.4401 140.922 74.6328C140.922 72.9036 142.305 71.9974 145.07 71.9141L146.523 71.8672V71.3359C146.523 70.6641 146.378 70.1693 146.086 69.8516C145.799 69.5286 145.339 69.3672 144.703 69.3672C143.99 69.3672 143.182 69.5859 142.281 70.0234L141.883 69.0312C142.305 68.8021 142.766 68.6224 143.266 68.4922C143.771 68.362 144.276 68.2969 144.781 68.2969C145.802 68.2969 146.557 68.5234 147.047 68.9766C147.542 69.4297 147.789 70.1562 147.789 71.1562V77H146.828ZM143.898 76.0859C144.706 76.0859 145.339 75.8646 145.797 75.4219C146.26 74.9792 146.492 74.3594 146.492 73.5625V72.7891L145.195 72.8438C144.164 72.8802 143.419 73.0417 142.961 73.3281C142.508 73.6094 142.281 74.0495 142.281 74.6484C142.281 75.1172 142.422 75.474 142.703 75.7188C142.99 75.9635 143.388 76.0859 143.898 76.0859ZM154.375 68.2812C154.755 68.2812 155.096 68.3125 155.398 68.375L155.219 69.5781C154.865 69.5 154.552 69.4609 154.281 69.4609C153.589 69.4609 152.995 69.7422 152.5 70.3047C152.01 70.8672 151.766 71.5677 151.766 72.4062V77H150.469V68.4375H151.539L151.688 70.0234H151.75C152.068 69.4661 152.451 69.0365 152.898 68.7344C153.346 68.4323 153.839 68.2812 154.375 68.2812ZM162.453 77H161.156V64.8438H162.453V77ZM170.469 77L170.211 75.7812H170.148C169.721 76.3177 169.294 76.6823 168.867 76.875C168.445 77.0625 167.917 77.1562 167.281 77.1562C166.432 77.1562 165.766 76.9375 165.281 76.5C164.802 76.0625 164.562 75.4401 164.562 74.6328C164.562 72.9036 165.945 71.9974 168.711 71.9141L170.164 71.8672V71.3359C170.164 70.6641 170.018 70.1693 169.727 69.8516C169.44 69.5286 168.979 69.3672 168.344 69.3672C167.63 69.3672 166.823 69.5859 165.922 70.0234L165.523 69.0312C165.945 68.8021 166.406 68.6224 166.906 68.4922C167.411 68.362 167.917 68.2969 168.422 68.2969C169.443 68.2969 170.198 68.5234 170.688 68.9766C171.182 69.4297 171.43 70.1562 171.43 71.1562V77H170.469ZM167.539 76.0859C168.346 76.0859 168.979 75.8646 169.438 75.4219C169.901 74.9792 170.133 74.3594 170.133 73.5625V72.7891L168.836 72.8438C167.805 72.8802 167.06 73.0417 166.602 73.3281C166.148 73.6094 165.922 74.0495 165.922 74.6484C165.922 75.1172 166.062 75.474 166.344 75.7188C166.63 75.9635 167.029 76.0859 167.539 76.0859ZM182.25 77.1562C181.693 77.1562 181.182 77.0547 180.719 76.8516C180.26 76.6432 179.875 76.3255 179.562 75.8984H179.469C179.531 76.3984 179.562 76.8724 179.562 77.3203V80.8438H178.266V68.4375H179.32L179.5 69.6094H179.562C179.896 69.1406 180.284 68.8021 180.727 68.5938C181.169 68.3854 181.677 68.2812 182.25 68.2812C183.385 68.2812 184.26 68.6693 184.875 69.4453C185.495 70.2214 185.805 71.3099 185.805 72.7109C185.805 74.1172 185.49 75.2109 184.859 75.9922C184.234 76.7682 183.365 77.1562 182.25 77.1562ZM182.062 69.3828C181.188 69.3828 180.555 69.625 180.164 70.1094C179.773 70.5938 179.573 71.3646 179.562 72.4219V72.7109C179.562 73.9141 179.763 74.776 180.164 75.2969C180.565 75.8125 181.208 76.0703 182.094 76.0703C182.833 76.0703 183.411 75.7708 183.828 75.1719C184.25 74.5729 184.461 73.7474 184.461 72.6953C184.461 71.6276 184.25 70.8099 183.828 70.2422C183.411 69.6693 182.823 69.3828 182.062 69.3828ZM191.695 77.1562C190.43 77.1562 189.43 76.7708 188.695 76C187.966 75.2292 187.602 74.1589 187.602 72.7891C187.602 71.4089 187.94 70.3125 188.617 69.5C189.299 68.6875 190.214 68.2812 191.359 68.2812C192.432 68.2812 193.281 68.6354 193.906 69.3438C194.531 70.0469 194.844 70.9766 194.844 72.1328V72.9531H188.945C188.971 73.9583 189.224 74.7214 189.703 75.2422C190.188 75.763 190.867 76.0234 191.742 76.0234C192.664 76.0234 193.576 75.8307 194.477 75.4453V76.6016C194.018 76.7995 193.583 76.9401 193.172 77.0234C192.766 77.112 192.273 77.1562 191.695 77.1562ZM191.344 69.3672C190.656 69.3672 190.107 69.5911 189.695 70.0391C189.289 70.487 189.049 71.1068 188.977 71.8984H193.453C193.453 71.0807 193.271 70.4557 192.906 70.0234C192.542 69.5859 192.021 69.3672 191.344 69.3672ZM200.969 68.2812C201.349 68.2812 201.69 68.3125 201.992 68.375L201.812 69.5781C201.458 69.5 201.146 69.4609 200.875 69.4609C200.182 69.4609 199.589 69.7422 199.094 70.3047C198.604 70.8672 198.359 71.5677 198.359 72.4062V77H197.062V68.4375H198.133L198.281 70.0234H198.344C198.661 69.4661 199.044 69.0365 199.492 68.7344C199.94 68.4323 200.432 68.2812 200.969 68.2812ZM209.117 74.6641C209.117 75.4609 208.82 76.0755 208.227 76.5078C207.633 76.9401 206.799 77.1562 205.727 77.1562C204.591 77.1562 203.706 76.9766 203.07 76.6172V75.4141C203.482 75.6224 203.922 75.7865 204.391 75.9062C204.865 76.026 205.32 76.0859 205.758 76.0859C206.435 76.0859 206.956 75.9792 207.32 75.7656C207.685 75.5469 207.867 75.2161 207.867 74.7734C207.867 74.4401 207.721 74.1562 207.43 73.9219C207.143 73.6823 206.581 73.401 205.742 73.0781C204.945 72.7812 204.378 72.5234 204.039 72.3047C203.706 72.0807 203.456 71.8281 203.289 71.5469C203.128 71.2656 203.047 70.9297 203.047 70.5391C203.047 69.8411 203.331 69.2917 203.898 68.8906C204.466 68.4844 205.245 68.2812 206.234 68.2812C207.156 68.2812 208.057 68.4688 208.938 68.8438L208.477 69.8984C207.617 69.5443 206.839 69.3672 206.141 69.3672C205.526 69.3672 205.062 69.4635 204.75 69.6562C204.438 69.849 204.281 70.1146 204.281 70.4531C204.281 70.6823 204.339 70.8776 204.453 71.0391C204.573 71.2005 204.763 71.3542 205.023 71.5C205.284 71.6458 205.784 71.8568 206.523 72.1328C207.539 72.5026 208.224 72.875 208.578 73.25C208.938 73.625 209.117 74.0964 209.117 74.6641ZM218.625 72.7109C218.625 74.1068 218.273 75.1979 217.57 75.9844C216.867 76.7656 215.896 77.1562 214.656 77.1562C213.891 77.1562 213.211 76.9766 212.617 76.6172C212.023 76.2578 211.565 75.7422 211.242 75.0703C210.919 74.3984 210.758 73.612 210.758 72.7109C210.758 71.3151 211.107 70.2292 211.805 69.4531C212.503 68.6719 213.471 68.2812 214.711 68.2812C215.909 68.2812 216.859 68.6797 217.562 69.4766C218.271 70.2734 218.625 71.3516 218.625 72.7109ZM212.102 72.7109C212.102 73.8047 212.32 74.638 212.758 75.2109C213.195 75.7839 213.839 76.0703 214.688 76.0703C215.536 76.0703 216.18 75.7865 216.617 75.2188C217.06 74.6458 217.281 73.8099 217.281 72.7109C217.281 71.6224 217.06 70.7969 216.617 70.2344C216.18 69.6667 215.531 69.3828 214.672 69.3828C213.823 69.3828 213.182 69.6615 212.75 70.2188C212.318 70.776 212.102 71.6068 212.102 72.7109ZM226.766 77V71.4609C226.766 70.763 226.607 70.2422 226.289 69.8984C225.971 69.5547 225.474 69.3828 224.797 69.3828C223.901 69.3828 223.245 69.625 222.828 70.1094C222.411 70.5938 222.203 71.3932 222.203 72.5078V77H220.906V68.4375H221.961L222.172 69.6094H222.234C222.5 69.1875 222.872 68.862 223.352 68.6328C223.831 68.3984 224.365 68.2812 224.953 68.2812C225.984 68.2812 226.76 68.5312 227.281 69.0312C227.802 69.526 228.062 70.3203 228.062 71.4141V77H226.766ZM236 77L235.742 75.7812H235.68C235.253 76.3177 234.826 76.6823 234.398 76.875C233.977 77.0625 233.448 77.1562 232.812 77.1562C231.964 77.1562 231.297 76.9375 230.812 76.5C230.333 76.0625 230.094 75.4401 230.094 74.6328C230.094 72.9036 231.477 71.9974 234.242 71.9141L235.695 71.8672V71.3359C235.695 70.6641 235.549 70.1693 235.258 69.8516C234.971 69.5286 234.51 69.3672 233.875 69.3672C233.161 69.3672 232.354 69.5859 231.453 70.0234L231.055 69.0312C231.477 68.8021 231.938 68.6224 232.438 68.4922C232.943 68.362 233.448 68.2969 233.953 68.2969C234.974 68.2969 235.729 68.5234 236.219 68.9766C236.714 69.4297 236.961 70.1562 236.961 71.1562V77H236ZM233.07 76.0859C233.878 76.0859 234.51 75.8646 234.969 75.4219C235.432 74.9792 235.664 74.3594 235.664 73.5625V72.7891L234.367 72.8438C233.336 72.8802 232.591 73.0417 232.133 73.3281C231.68 73.6094 231.453 74.0495 231.453 74.6484C231.453 75.1172 231.594 75.474 231.875 75.7188C232.161 75.9635 232.56 76.0859 233.07 76.0859ZM245.016 68.4375V73.9922C245.016 74.6901 245.174 75.2109 245.492 75.5547C245.81 75.8984 246.307 76.0703 246.984 76.0703C247.88 76.0703 248.534 75.8255 248.945 75.3359C249.362 74.8464 249.57 74.0469 249.57 72.9375V68.4375H250.867V77H249.797L249.609 75.8516H249.539C249.273 76.2734 248.904 76.5964 248.43 76.8203C247.961 77.0443 247.424 77.1562 246.82 77.1562C245.779 77.1562 244.997 76.9089 244.477 76.4141C243.961 75.9193 243.703 75.1276 243.703 74.0391V68.4375H245.016ZM259.148 74.6641C259.148 75.4609 258.852 76.0755 258.258 76.5078C257.664 76.9401 256.831 77.1562 255.758 77.1562C254.622 77.1562 253.737 76.9766 253.102 76.6172V75.4141C253.513 75.6224 253.953 75.7865 254.422 75.9062C254.896 76.026 255.352 76.0859 255.789 76.0859C256.466 76.0859 256.987 75.9792 257.352 75.7656C257.716 75.5469 257.898 75.2161 257.898 74.7734C257.898 74.4401 257.753 74.1562 257.461 73.9219C257.174 73.6823 256.612 73.401 255.773 73.0781C254.977 72.7812 254.409 72.5234 254.07 72.3047C253.737 72.0807 253.487 71.8281 253.32 71.5469C253.159 71.2656 253.078 70.9297 253.078 70.5391C253.078 69.8411 253.362 69.2917 253.93 68.8906C254.497 68.4844 255.276 68.2812 256.266 68.2812C257.188 68.2812 258.089 68.4688 258.969 68.8438L258.508 69.8984C257.648 69.5443 256.87 69.3672 256.172 69.3672C255.557 69.3672 255.094 69.4635 254.781 69.6562C254.469 69.849 254.312 70.1146 254.312 70.4531C254.312 70.6823 254.37 70.8776 254.484 71.0391C254.604 71.2005 254.794 71.3542 255.055 71.5C255.315 71.6458 255.815 71.8568 256.555 72.1328C257.57 72.5026 258.255 72.875 258.609 73.25C258.969 73.625 259.148 74.0964 259.148 74.6641ZM262.484 68.4375V73.9922C262.484 74.6901 262.643 75.2109 262.961 75.5547C263.279 75.8984 263.776 76.0703 264.453 76.0703C265.349 76.0703 266.003 75.8255 266.414 75.3359C266.831 74.8464 267.039 74.0469 267.039 72.9375V68.4375H268.336V77H267.266L267.078 75.8516H267.008C266.742 76.2734 266.372 76.5964 265.898 76.8203C265.43 77.0443 264.893 77.1562 264.289 77.1562C263.247 77.1562 262.466 76.9089 261.945 76.4141C261.43 75.9193 261.172 75.1276 261.172 74.0391V68.4375H262.484ZM276.359 77L276.102 75.7812H276.039C275.612 76.3177 275.185 76.6823 274.758 76.875C274.336 77.0625 273.807 77.1562 273.172 77.1562C272.323 77.1562 271.656 76.9375 271.172 76.5C270.693 76.0625 270.453 75.4401 270.453 74.6328C270.453 72.9036 271.836 71.9974 274.602 71.9141L276.055 71.8672V71.3359C276.055 70.6641 275.909 70.1693 275.617 69.8516C275.331 69.5286 274.87 69.3672 274.234 69.3672C273.521 69.3672 272.714 69.5859 271.812 70.0234L271.414 69.0312C271.836 68.8021 272.297 68.6224 272.797 68.4922C273.302 68.362 273.807 68.2969 274.312 68.2969C275.333 68.2969 276.089 68.5234 276.578 68.9766C277.073 69.4297 277.32 70.1562 277.32 71.1562V77H276.359ZM273.43 76.0859C274.237 76.0859 274.87 75.8646 275.328 75.4219C275.792 74.9792 276.023 74.3594 276.023 73.5625V72.7891L274.727 72.8438C273.695 72.8802 272.951 73.0417 272.492 73.3281C272.039 73.6094 271.812 74.0495 271.812 74.6484C271.812 75.1172 271.953 75.474 272.234 75.7188C272.521 75.9635 272.919 76.0859 273.43 76.0859ZM283.906 68.2812C284.286 68.2812 284.628 68.3125 284.93 68.375L284.75 69.5781C284.396 69.5 284.083 69.4609 283.812 69.4609C283.12 69.4609 282.526 69.7422 282.031 70.3047C281.542 70.8672 281.297 71.5677 281.297 72.4062V77H280V68.4375H281.07L281.219 70.0234H281.281C281.599 69.4661 281.982 69.0365 282.43 68.7344C282.878 68.4323 283.37 68.2812 283.906 68.2812ZM287.828 77H286.531V68.4375H287.828V77ZM286.422 66.1172C286.422 65.8203 286.495 65.6042 286.641 65.4688C286.786 65.3281 286.969 65.2578 287.188 65.2578C287.396 65.2578 287.576 65.3281 287.727 65.4688C287.878 65.6094 287.953 65.8255 287.953 66.1172C287.953 66.4089 287.878 66.6276 287.727 66.7734C287.576 66.9141 287.396 66.9844 287.188 66.9844C286.969 66.9844 286.786 66.9141 286.641 66.7734C286.495 66.6276 286.422 66.4089 286.422 66.1172ZM295.844 77L295.586 75.7812H295.523C295.096 76.3177 294.669 76.6823 294.242 76.875C293.82 77.0625 293.292 77.1562 292.656 77.1562C291.807 77.1562 291.141 76.9375 290.656 76.5C290.177 76.0625 289.938 75.4401 289.938 74.6328C289.938 72.9036 291.32 71.9974 294.086 71.9141L295.539 71.8672V71.3359C295.539 70.6641 295.393 70.1693 295.102 69.8516C294.815 69.5286 294.354 69.3672 293.719 69.3672C293.005 69.3672 292.198 69.5859 291.297 70.0234L290.898 69.0312C291.32 68.8021 291.781 68.6224 292.281 68.4922C292.786 68.362 293.292 68.2969 293.797 68.2969C294.818 68.2969 295.573 68.5234 296.062 68.9766C296.557 69.4297 296.805 70.1562 296.805 71.1562V77H295.844ZM292.914 76.0859C293.721 76.0859 294.354 75.8646 294.812 75.4219C295.276 74.9792 295.508 74.3594 295.508 73.5625V72.7891L294.211 72.8438C293.18 72.8802 292.435 73.0417 291.977 73.3281C291.523 73.6094 291.297 74.0495 291.297 74.6484C291.297 75.1172 291.438 75.474 291.719 75.7188C292.005 75.9635 292.404 76.0859 292.914 76.0859ZM307.625 77.1562C307.068 77.1562 306.557 77.0547 306.094 76.8516C305.635 76.6432 305.25 76.3255 304.938 75.8984H304.844C304.906 76.3984 304.938 76.8724 304.938 77.3203V80.8438H303.641V68.4375H304.695L304.875 69.6094H304.938C305.271 69.1406 305.659 68.8021 306.102 68.5938C306.544 68.3854 307.052 68.2812 307.625 68.2812C308.76 68.2812 309.635 68.6693 310.25 69.4453C310.87 70.2214 311.18 71.3099 311.18 72.7109C311.18 74.1172 310.865 75.2109 310.234 75.9922C309.609 76.7682 308.74 77.1562 307.625 77.1562ZM307.438 69.3828C306.562 69.3828 305.93 69.625 305.539 70.1094C305.148 70.5938 304.948 71.3646 304.938 72.4219V72.7109C304.938 73.9141 305.138 74.776 305.539 75.2969C305.94 75.8125 306.583 76.0703 307.469 76.0703C308.208 76.0703 308.786 75.7708 309.203 75.1719C309.625 74.5729 309.836 73.7474 309.836 72.6953C309.836 71.6276 309.625 70.8099 309.203 70.2422C308.786 69.6693 308.198 69.3828 307.438 69.3828ZM320.844 72.7109C320.844 74.1068 320.492 75.1979 319.789 75.9844C319.086 76.7656 318.115 77.1562 316.875 77.1562C316.109 77.1562 315.43 76.9766 314.836 76.6172C314.242 76.2578 313.784 75.7422 313.461 75.0703C313.138 74.3984 312.977 73.612 312.977 72.7109C312.977 71.3151 313.326 70.2292 314.023 69.4531C314.721 68.6719 315.69 68.2812 316.93 68.2812C318.128 68.2812 319.078 68.6797 319.781 69.4766C320.49 70.2734 320.844 71.3516 320.844 72.7109ZM314.32 72.7109C314.32 73.8047 314.539 74.638 314.977 75.2109C315.414 75.7839 316.057 76.0703 316.906 76.0703C317.755 76.0703 318.398 75.7865 318.836 75.2188C319.279 74.6458 319.5 73.8099 319.5 72.7109C319.5 71.6224 319.279 70.7969 318.836 70.2344C318.398 69.6667 317.75 69.3828 316.891 69.3828C316.042 69.3828 315.401 69.6615 314.969 70.2188C314.536 70.776 314.32 71.6068 314.32 72.7109ZM328.648 74.6641C328.648 75.4609 328.352 76.0755 327.758 76.5078C327.164 76.9401 326.331 77.1562 325.258 77.1562C324.122 77.1562 323.237 76.9766 322.602 76.6172V75.4141C323.013 75.6224 323.453 75.7865 323.922 75.9062C324.396 76.026 324.852 76.0859 325.289 76.0859C325.966 76.0859 326.487 75.9792 326.852 75.7656C327.216 75.5469 327.398 75.2161 327.398 74.7734C327.398 74.4401 327.253 74.1562 326.961 73.9219C326.674 73.6823 326.112 73.401 325.273 73.0781C324.477 72.7812 323.909 72.5234 323.57 72.3047C323.237 72.0807 322.987 71.8281 322.82 71.5469C322.659 71.2656 322.578 70.9297 322.578 70.5391C322.578 69.8411 322.862 69.2917 323.43 68.8906C323.997 68.4844 324.776 68.2812 325.766 68.2812C326.688 68.2812 327.589 68.4688 328.469 68.8438L328.008 69.8984C327.148 69.5443 326.37 69.3672 325.672 69.3672C325.057 69.3672 324.594 69.4635 324.281 69.6562C323.969 69.849 323.812 70.1146 323.812 70.4531C323.812 70.6823 323.87 70.8776 323.984 71.0391C324.104 71.2005 324.294 71.3542 324.555 71.5C324.815 71.6458 325.315 71.8568 326.055 72.1328C327.07 72.5026 327.755 72.875 328.109 73.25C328.469 73.625 328.648 74.0964 328.648 74.6641ZM333.531 76.0859C333.76 76.0859 333.982 76.0703 334.195 76.0391C334.409 76.0026 334.578 75.9661 334.703 75.9297V76.9219C334.562 76.9896 334.354 77.0443 334.078 77.0859C333.807 77.1328 333.562 77.1562 333.344 77.1562C331.688 77.1562 330.859 76.2839 330.859 74.5391V69.4453H329.633V68.8203L330.859 68.2812L331.406 66.4531H332.156V68.4375H334.641V69.4453H332.156V74.4844C332.156 75 332.279 75.3958 332.523 75.6719C332.768 75.9479 333.104 76.0859 333.531 76.0859ZM340.039 77.1562C338.773 77.1562 337.773 76.7708 337.039 76C336.31 75.2292 335.945 74.1589 335.945 72.7891C335.945 71.4089 336.284 70.3125 336.961 69.5C337.643 68.6875 338.557 68.2812 339.703 68.2812C340.776 68.2812 341.625 68.6354 342.25 69.3438C342.875 70.0469 343.188 70.9766 343.188 72.1328V72.9531H337.289C337.315 73.9583 337.568 74.7214 338.047 75.2422C338.531 75.763 339.211 76.0234 340.086 76.0234C341.008 76.0234 341.919 75.8307 342.82 75.4453V76.6016C342.362 76.7995 341.927 76.9401 341.516 77.0234C341.109 77.112 340.617 77.1562 340.039 77.1562ZM339.688 69.3672C339 69.3672 338.451 69.5911 338.039 70.0391C337.633 70.487 337.393 71.1068 337.32 71.8984H341.797C341.797 71.0807 341.615 70.4557 341.25 70.0234C340.885 69.5859 340.365 69.3672 339.688 69.3672ZM349.312 68.2812C349.693 68.2812 350.034 68.3125 350.336 68.375L350.156 69.5781C349.802 69.5 349.49 69.4609 349.219 69.4609C348.526 69.4609 347.932 69.7422 347.438 70.3047C346.948 70.8672 346.703 71.5677 346.703 72.4062V77H345.406V68.4375H346.477L346.625 70.0234H346.688C347.005 69.4661 347.388 69.0365 347.836 68.7344C348.284 68.4323 348.776 68.2812 349.312 68.2812ZM353.234 77H351.938V68.4375H353.234V77ZM351.828 66.1172C351.828 65.8203 351.901 65.6042 352.047 65.4688C352.193 65.3281 352.375 65.2578 352.594 65.2578C352.802 65.2578 352.982 65.3281 353.133 65.4688C353.284 65.6094 353.359 65.8255 353.359 66.1172C353.359 66.4089 353.284 66.6276 353.133 66.7734C352.982 66.9141 352.802 66.9844 352.594 66.9844C352.375 66.9844 352.193 66.9141 352.047 66.7734C351.901 66.6276 351.828 66.4089 351.828 66.1172ZM363.375 72.7109C363.375 74.1068 363.023 75.1979 362.32 75.9844C361.617 76.7656 360.646 77.1562 359.406 77.1562C358.641 77.1562 357.961 76.9766 357.367 76.6172C356.773 76.2578 356.315 75.7422 355.992 75.0703C355.669 74.3984 355.508 73.612 355.508 72.7109C355.508 71.3151 355.857 70.2292 356.555 69.4531C357.253 68.6719 358.221 68.2812 359.461 68.2812C360.659 68.2812 361.609 68.6797 362.312 69.4766C363.021 70.2734 363.375 71.3516 363.375 72.7109ZM356.852 72.7109C356.852 73.8047 357.07 74.638 357.508 75.2109C357.945 75.7839 358.589 76.0703 359.438 76.0703C360.286 76.0703 360.93 75.7865 361.367 75.2188C361.81 74.6458 362.031 73.8099 362.031 72.7109C362.031 71.6224 361.81 70.7969 361.367 70.2344C360.93 69.6667 360.281 69.3828 359.422 69.3828C358.573 69.3828 357.932 69.6615 357.5 70.2188C357.068 70.776 356.852 71.6068 356.852 72.7109ZM369.562 68.2812C369.943 68.2812 370.284 68.3125 370.586 68.375L370.406 69.5781C370.052 69.5 369.74 69.4609 369.469 69.4609C368.776 69.4609 368.182 69.7422 367.688 70.3047C367.198 70.8672 366.953 71.5677 366.953 72.4062V77H365.656V68.4375H366.727L366.875 70.0234H366.938C367.255 69.4661 367.638 69.0365 368.086 68.7344C368.534 68.4323 369.026 68.2812 369.562 68.2812ZM383.102 77V71.4297C383.102 70.7474 382.956 70.237 382.664 69.8984C382.372 69.5547 381.919 69.3828 381.305 69.3828C380.497 69.3828 379.901 69.6146 379.516 70.0781C379.13 70.5417 378.938 71.2552 378.938 72.2188V77H377.641V71.4297C377.641 70.7474 377.495 70.237 377.203 69.8984C376.911 69.5547 376.456 69.3828 375.836 69.3828C375.023 69.3828 374.427 69.6276 374.047 70.1172C373.672 70.6016 373.484 71.3984 373.484 72.5078V77H372.188V68.4375H373.242L373.453 69.6094H373.516C373.76 69.1927 374.104 68.8672 374.547 68.6328C374.995 68.3984 375.495 68.2812 376.047 68.2812C377.385 68.2812 378.26 68.7656 378.672 69.7344H378.734C378.99 69.2865 379.359 68.9323 379.844 68.6719C380.328 68.4115 380.88 68.2812 381.5 68.2812C382.469 68.2812 383.193 68.5312 383.672 69.0312C384.156 69.526 384.398 70.3203 384.398 71.4141V77H383.102ZM390.695 77.1562C389.43 77.1562 388.43 76.7708 387.695 76C386.966 75.2292 386.602 74.1589 386.602 72.7891C386.602 71.4089 386.94 70.3125 387.617 69.5C388.299 68.6875 389.214 68.2812 390.359 68.2812C391.432 68.2812 392.281 68.6354 392.906 69.3438C393.531 70.0469 393.844 70.9766 393.844 72.1328V72.9531H387.945C387.971 73.9583 388.224 74.7214 388.703 75.2422C389.188 75.763 389.867 76.0234 390.742 76.0234C391.664 76.0234 392.576 75.8307 393.477 75.4453V76.6016C393.018 76.7995 392.583 76.9401 392.172 77.0234C391.766 77.112 391.273 77.1562 390.695 77.1562ZM390.344 69.3672C389.656 69.3672 389.107 69.5911 388.695 70.0391C388.289 70.487 388.049 71.1068 387.977 71.8984H392.453C392.453 71.0807 392.271 70.4557 391.906 70.0234C391.542 69.5859 391.021 69.3672 390.344 69.3672ZM401.922 77V71.4609C401.922 70.763 401.763 70.2422 401.445 69.8984C401.128 69.5547 400.63 69.3828 399.953 69.3828C399.057 69.3828 398.401 69.625 397.984 70.1094C397.568 70.5938 397.359 71.3932 397.359 72.5078V77H396.062V68.4375H397.117L397.328 69.6094H397.391C397.656 69.1875 398.029 68.862 398.508 68.6328C398.987 68.3984 399.521 68.2812 400.109 68.2812C401.141 68.2812 401.917 68.5312 402.438 69.0312C402.958 69.526 403.219 70.3203 403.219 71.4141V77H401.922ZM408.656 76.0859C408.885 76.0859 409.107 76.0703 409.32 76.0391C409.534 76.0026 409.703 75.9661 409.828 75.9297V76.9219C409.688 76.9896 409.479 77.0443 409.203 77.0859C408.932 77.1328 408.688 77.1562 408.469 77.1562C406.812 77.1562 405.984 76.2839 405.984 74.5391V69.4453H404.758V68.8203L405.984 68.2812L406.531 66.4531H407.281V68.4375H409.766V69.4453H407.281V74.4844C407.281 75 407.404 75.3958 407.648 75.6719C407.893 75.9479 408.229 76.0859 408.656 76.0859ZM415.164 77.1562C413.898 77.1562 412.898 76.7708 412.164 76C411.435 75.2292 411.07 74.1589 411.07 72.7891C411.07 71.4089 411.409 70.3125 412.086 69.5C412.768 68.6875 413.682 68.2812 414.828 68.2812C415.901 68.2812 416.75 68.6354 417.375 69.3438C418 70.0469 418.312 70.9766 418.312 72.1328V72.9531H412.414C412.44 73.9583 412.693 74.7214 413.172 75.2422C413.656 75.763 414.336 76.0234 415.211 76.0234C416.133 76.0234 417.044 75.8307 417.945 75.4453V76.6016C417.487 76.7995 417.052 76.9401 416.641 77.0234C416.234 77.112 415.742 77.1562 415.164 77.1562ZM414.812 69.3672C414.125 69.3672 413.576 69.5911 413.164 70.0391C412.758 70.487 412.518 71.1068 412.445 71.8984H416.922C416.922 71.0807 416.74 70.4557 416.375 70.0234C416.01 69.5859 415.49 69.3672 414.812 69.3672ZM420.344 76.1719C420.344 75.8229 420.422 75.5599 420.578 75.3828C420.74 75.2005 420.969 75.1094 421.266 75.1094C421.568 75.1094 421.802 75.2005 421.969 75.3828C422.141 75.5599 422.227 75.8229 422.227 76.1719C422.227 76.5104 422.141 76.7708 421.969 76.9531C421.797 77.1354 421.562 77.2266 421.266 77.2266C421 77.2266 420.779 77.1458 420.602 76.9844C420.43 76.8177 420.344 76.5469 420.344 76.1719Z" fill="#38485C"/>
</svg>
