<svg xmlns="http://www.w3.org/2000/svg" width="738" height="298" viewBox="0 0 738 298">
  <g id="Grupo_17910" data-name="Grupo 17910" transform="translate(-2141 3769)">
    <path id="Trazado_24563" data-name="Trazado 24563" d="M97.214,185.786a24,24,0,1,1,24,24,24,24,0,0,1-24-24" transform="translate(2109 -3826)" fill="#f3f6f9"/>
    <path id="Trazado_24564" data-name="Trazado 24564" d="M86.071,186.536a35.143,35.143,0,1,1,35.143,35.142,35.144,35.144,0,0,1-35.143-35.142m35.786,47.571A47.357,47.357,0,1,0,74.5,186.75a47.357,47.357,0,0,0,47.357,47.357" transform="translate(2109 -3826)" fill="#38485c"/>
    <path id="Trazado_24565" data-name="Trazado 24565" d="M142,160.928a12,12,0,1,1,12,12,12,12,0,0,1-12-12" transform="translate(2109 -3826)" fill="#f3f6f9"/>
    <path id="Trazado_24566" data-name="Trazado 24566" d="M207.751,202.465a12.868,12.868,0,1,1,12.869,12.869,12.869,12.869,0,0,1-12.869-12.869" transform="translate(2114 -3826)" fill="#f3f6f9"/>
    <path id="Trazado_24567" data-name="Trazado 24567" d="M201.776,202.867a18.843,18.843,0,1,1,18.843,18.843,18.843,18.843,0,0,1-18.843-18.843m19.188,25.508a25.393,25.393,0,1,0-25.393-25.393,25.393,25.393,0,0,0,25.393,25.393" transform="translate(2114 -3826)" fill="#38485c"/>
    <path id="Trazado_24568" data-name="Trazado 24568" d="M233.787,158.429A12.868,12.868,0,1,1,246.656,171.3a12.869,12.869,0,0,1-12.869-12.869" transform="translate(2114 -3826)" fill="#f3f6f9"/>
    <path id="Trazado_24569" data-name="Trazado 24569" d="M227.812,158.832a18.843,18.843,0,1,1,18.843,18.843,18.843,18.843,0,0,1-18.843-18.843M247,184.339a25.393,25.393,0,1,0-25.393-25.393A25.393,25.393,0,0,0,247,184.339" transform="translate(2114 -3826)" fill="#38485c"/>
    <path id="Trazado_24570" data-name="Trazado 24570" d="M260.465,202.786a12.869,12.869,0,1,1,12.869,12.869,12.869,12.869,0,0,1-12.869-12.869" transform="translate(2114 -3826)" fill="#f3f6f9"/>
    <path id="Trazado_24571" data-name="Trazado 24571" d="M254.491,203.189a18.844,18.844,0,1,1,18.843,18.844,18.843,18.843,0,0,1-18.843-18.844M273.679,228.7A25.393,25.393,0,1,0,248.286,203.3,25.393,25.393,0,0,0,273.679,228.7" transform="translate(2114 -3826)" fill="#38485c"/>
    <path id="Trazado_24572" data-name="Trazado 24572" d="M236.714,202.339a5.785,5.785,0,1,1,5.786,5.786,5.786,5.786,0,0,1-5.786-5.786" transform="translate(2114 -3826)" fill="#f3f6f9"/>
    <path id="Trazado_24573" data-name="Trazado 24573" d="M244.75,202.339a5.786,5.786,0,1,1,5.786,5.786,5.786,5.786,0,0,1-5.786-5.786" transform="translate(2114 -3826)" fill="#f3f6f9"/>
    <path id="Trazado_24574" data-name="Trazado 24574" d="M254.071,176.625a5.786,5.786,0,1,1,5.786,5.786,5.785,5.785,0,0,1-5.786-5.786" transform="translate(2114 -3826)" fill="#f3f6f9"/>
    <path id="Trazado_24575" data-name="Trazado 24575" d="M256.964,183.7a5.786,5.786,0,1,1,5.786,5.786,5.786,5.786,0,0,1-5.786-5.786" transform="translate(2114 -3826)" fill="#f3f6f9"/>
    <path id="Trazado_24576" data-name="Trazado 24576" d="M230.125,176.947a5.785,5.785,0,1,1,5.786,5.786,5.786,5.786,0,0,1-5.786-5.786" transform="translate(2114 -3826)" fill="#f3f6f9"/>
    <path id="Trazado_24577" data-name="Trazado 24577" d="M227.071,184.178a5.786,5.786,0,1,1,5.786,5.786,5.786,5.786,0,0,1-5.786-5.786" transform="translate(2114 -3826)" fill="#f3f6f9"/>
    <path id="Trazado_24578" data-name="Trazado 24578" d="M337.434,202.717a5.213,5.213,0,1,1,5.213,5.213,5.212,5.212,0,0,1-5.213-5.213" transform="translate(2114 -3826)" fill="#f3f6f9"/>
    <path id="Trazado_24579" data-name="Trazado 24579" d="M335.014,202.67a7.632,7.632,0,1,1,7.632,7.633,7.632,7.632,0,0,1-7.632-7.633M342.786,213A10.286,10.286,0,1,0,332.5,202.717,10.285,10.285,0,0,0,342.786,213" transform="translate(2114 -3826)" fill="#38485c"/>
    <path id="Trazado_24580" data-name="Trazado 24580" d="M359.076,202.717a5.213,5.213,0,1,1,5.213,5.213,5.212,5.212,0,0,1-5.213-5.213" transform="translate(2114 -3826)" fill="#f3f6f9"/>
    <path id="Trazado_24581" data-name="Trazado 24581" d="M356.657,202.67a7.632,7.632,0,1,1,7.632,7.633,7.632,7.632,0,0,1-7.632-7.633M364.429,213a10.286,10.286,0,1,0-10.286-10.286A10.285,10.285,0,0,0,364.429,213" transform="translate(2114 -3826)" fill="#38485c"/>
    <path id="Trazado_24582" data-name="Trazado 24582" d="M380.4,203.036a5.213,5.213,0,1,1,5.213,5.212,5.213,5.213,0,0,1-5.213-5.212" transform="translate(2114 -3826)" fill="#f3f6f9"/>
    <path id="Trazado_24583" data-name="Trazado 24583" d="M377.978,202.989a7.633,7.633,0,1,1,7.632,7.633,7.632,7.632,0,0,1-7.632-7.633m7.772,10.333a10.285,10.285,0,1,0-10.286-10.286,10.286,10.286,0,0,0,10.286,10.286" transform="translate(2114 -3826)" fill="#38485c"/>
    <path id="Trazado_24584" data-name="Trazado 24584" d="M402.041,203.036a5.213,5.213,0,1,1,5.212,5.212,5.212,5.212,0,0,1-5.212-5.212" transform="translate(2114 -3826)" fill="#f3f6f9"/>
    <path id="Trazado_24585" data-name="Trazado 24585" d="M399.621,202.989a7.632,7.632,0,1,1,7.632,7.633,7.633,7.633,0,0,1-7.632-7.633m7.772,10.333a10.285,10.285,0,1,0-10.285-10.286,10.286,10.286,0,0,0,10.285,10.286" transform="translate(2114 -3826)" fill="#38485c"/>
    <path id="Trazado_24586" data-name="Trazado 24586" d="M337.326,180.966a5.213,5.213,0,1,1,5.213,5.214,5.211,5.211,0,0,1-5.213-5.214" transform="translate(2114 -3826)" fill="#f3f6f9"/>
    <path id="Trazado_24587" data-name="Trazado 24587" d="M334.907,180.92a7.632,7.632,0,1,1,7.632,7.633,7.632,7.632,0,0,1-7.632-7.633m7.772,10.333a10.286,10.286,0,1,0-10.286-10.286,10.285,10.285,0,0,0,10.286,10.286" transform="translate(2114 -3826)" fill="#38485c"/>
    <path id="Trazado_24588" data-name="Trazado 24588" d="M358.969,180.966a5.213,5.213,0,1,1,5.213,5.214,5.211,5.211,0,0,1-5.213-5.214" transform="translate(2114 -3826)" fill="#f3f6f9"/>
    <path id="Trazado_24589" data-name="Trazado 24589" d="M356.549,180.92a7.632,7.632,0,1,1,7.632,7.633,7.632,7.632,0,0,1-7.632-7.633m7.772,10.333a10.286,10.286,0,1,0-10.285-10.286,10.286,10.286,0,0,0,10.285,10.286" transform="translate(2114 -3826)" fill="#38485c"/>
    <path id="Trazado_24590" data-name="Trazado 24590" d="M380.291,181.286A5.213,5.213,0,1,1,385.5,186.5a5.212,5.212,0,0,1-5.212-5.212" transform="translate(2114 -3826)" fill="#f3f6f9"/>
    <path id="Trazado_24591" data-name="Trazado 24591" d="M377.871,181.239a7.632,7.632,0,1,1,7.632,7.633,7.633,7.633,0,0,1-7.632-7.633m7.772,10.333a10.285,10.285,0,1,0-10.285-10.286,10.286,10.286,0,0,0,10.285,10.286" transform="translate(2114 -3826)" fill="#38485c"/>
    <path id="Trazado_24592" data-name="Trazado 24592" d="M401.934,181.286a5.213,5.213,0,1,1,5.213,5.212,5.213,5.213,0,0,1-5.213-5.212" transform="translate(2114 -3826)" fill="#f3f6f9"/>
    <path id="Trazado_24593" data-name="Trazado 24593" d="M399.514,181.239a7.632,7.632,0,1,1,7.632,7.633,7.632,7.632,0,0,1-7.632-7.633m7.772,10.333A10.285,10.285,0,1,0,397,181.286a10.285,10.285,0,0,0,10.286,10.286" transform="translate(2114 -3826)" fill="#38485c"/>
    <path id="Trazado_24594" data-name="Trazado 24594" d="M337.487,160.019a5.212,5.212,0,1,1,5.212,5.212,5.212,5.212,0,0,1-5.212-5.212" transform="translate(2114 -3826)" fill="#f3f6f9"/>
    <path id="Trazado_24595" data-name="Trazado 24595" d="M335.067,159.972A7.633,7.633,0,1,1,342.7,167.6a7.633,7.633,0,0,1-7.632-7.633m7.772,10.333a10.286,10.286,0,1,0-10.285-10.286A10.286,10.286,0,0,0,342.839,170.3" transform="translate(2114 -3826)" fill="#38485c"/>
    <path id="Trazado_24596" data-name="Trazado 24596" d="M359.13,160.019a5.213,5.213,0,1,1,5.213,5.212,5.213,5.213,0,0,1-5.213-5.212" transform="translate(2114 -3826)" fill="#f3f6f9"/>
    <path id="Trazado_24597" data-name="Trazado 24597" d="M356.71,159.972a7.633,7.633,0,1,1,7.632,7.633,7.632,7.632,0,0,1-7.632-7.633m7.772,10.333A10.286,10.286,0,1,0,354.2,160.019,10.285,10.285,0,0,0,364.482,170.3" transform="translate(2114 -3826)" fill="#38485c"/>
    <path id="Trazado_24598" data-name="Trazado 24598" d="M380.451,160.338a5.213,5.213,0,1,1,5.213,5.212,5.213,5.213,0,0,1-5.213-5.212" transform="translate(2114 -3826)" fill="#f3f6f9"/>
    <path id="Trazado_24599" data-name="Trazado 24599" d="M378.032,160.292a7.632,7.632,0,1,1,7.632,7.633,7.632,7.632,0,0,1-7.632-7.633m7.772,10.332a10.285,10.285,0,1,0-10.286-10.286A10.285,10.285,0,0,0,385.8,170.624" transform="translate(2114 -3826)" fill="#38485c"/>
    <path id="Trazado_24600" data-name="Trazado 24600" d="M402.094,160.338a5.213,5.213,0,1,1,5.213,5.212,5.213,5.213,0,0,1-5.213-5.212" transform="translate(2114 -3826)" fill="#f3f6f9"/>
    <path id="Trazado_24601" data-name="Trazado 24601" d="M399.674,160.292a7.632,7.632,0,1,1,7.632,7.633,7.632,7.632,0,0,1-7.632-7.633m7.772,10.332a10.285,10.285,0,1,0-10.285-10.286,10.286,10.286,0,0,0,10.285,10.286" transform="translate(2114 -3826)" fill="#38485c"/>
    <path id="Trazado_24602" data-name="Trazado 24602" d="M339.893,162.482l70.554-.281-.041-3.737-70.485.29Z" transform="translate(2114 -3826)" fill="#f3f6f9"/>
    <path id="Trazado_24603" data-name="Trazado 24603" d="M339.813,183.214l70.554-.281-.041-3.737-70.485.29Z" transform="translate(2114 -3826)" fill="#f3f6f9"/>
    <path id="Trazado_24604" data-name="Trazado 24604" d="M339.17,204.428l70.554-.281-.041-3.737-70.486.29Z" transform="translate(2114 -3826)" fill="#f3f6f9"/>
    <path id="Trazado_24605" data-name="Trazado 24605" d="M382.964,157.927l.281,45.538,3.738-.026-.291-45.494Z" transform="translate(2114 -3826)" fill="#f3f6f9"/>
    <path id="Trazado_24606" data-name="Trazado 24606" d="M362.232,157.875l.281,45.538,3.737-.026-.29-45.494Z" transform="translate(2114 -3826)" fill="#f3f6f9"/>
    <path id="Trazado_24607" data-name="Trazado 24607" d="M341.018,157.46,341.3,203l3.737-.026-.29-45.494Z" transform="translate(2114 -3826)" fill="#f3f6f9"/>
    <path id="Trazado_24608" data-name="Trazado 24608" d="M405.224,158.115l.28,45.538,3.738-.026-.29-45.494Z" transform="translate(2114 -3826)" fill="#f3f6f9"/>
    <path id="Trazado_24617" data-name="Trazado 24617" d="M671.929,229.5H601.858V137.571h51.75l19.285,19.607Z" transform="translate(2114 -3826)" fill="none" stroke="#38485c" stroke-miterlimit="10" stroke-width="4"/>
    <path id="Trazado_24618" data-name="Trazado 24618" d="M671.875,161.089l-19.554-.053.054-23.465-38.893-.214-.053-7.5H683.5v89.357H671.929l-.054-58.125" transform="translate(2114 -3826)" fill="none" stroke="#38485c" stroke-miterlimit="10" stroke-width="4"/>
    <g id="Grupo_17905" data-name="Grupo 17905">
      <g id="Polígono_4" data-name="Polígono 4" transform="translate(2282.5 -3633.5) rotate(-90)" fill="#d1d8e0">
        <path d="M 15.72992038726807 11.50000190734863 L 4.270080089569092 11.50000190734863 C 3.672830104827881 11.50000190734863 3.165030002593994 11.17710113525391 2.911700010299683 10.63623142242432 C 2.658370018005371 10.09537124633789 2.735399961471558 9.498541831970215 3.117749929428101 9.039721488952637 L 8.84766960144043 2.163821458816528 C 9.133509635925293 1.820821523666382 9.553509712219238 1.624101519584656 10 1.624101519584656 C 10.44649028778076 1.624101519584656 10.86649036407471 1.820821523666382 11.15233039855957 2.163821458816528 L 16.88224983215332 9.039721488952637 C 17.26460075378418 9.498541831970215 17.34163093566895 10.09537124633789 17.08830070495605 10.63623142242432 C 16.83497047424316 11.17710113525391 16.32716941833496 11.50000190734863 15.72992038726807 11.50000190734863 Z" stroke="none"/>
        <path d="M 10 2.124101638793945 C 9.825070381164551 2.124101638793945 9.492670059204102 2.170841217041016 9.231780052185059 2.483911514282227 L 3.501859664916992 9.359811782836914 C 3.124139785766602 9.813081741333008 3.301229476928711 10.28907203674316 3.364500045776367 10.42416191101074 C 3.427770614624023 10.55924129486084 3.680059432983398 11.00000190734863 4.270079612731934 11.00000190734863 L 15.72991943359375 11.00000190734863 C 16.3199405670166 11.00000190734863 16.57222938537598 10.55924129486084 16.63549995422363 10.42416191101074 C 16.69877052307129 10.28907203674316 16.8758602142334 9.813081741333008 16.49814033508301 9.359811782836914 L 10.76821994781494 2.483911514282227 C 10.5073299407959 2.170851707458496 10.17492008209229 2.124101638793945 10 2.124101638793945 M 10 1.124098777770996 C 10.56832218170166 1.124098777770996 11.13664531707764 1.36397647857666 11.53643989562988 1.843731880187988 L 17.26635932922363 8.719631195068359 C 18.35190010070801 10.02228164672852 17.42559051513672 12.00000190734863 15.72991943359375 12.00000190734863 L 4.270079612731934 12.00000190734863 C 2.574409484863281 12.00000190734863 1.648099899291992 10.02228164672852 2.733640670776367 8.719631195068359 L 8.463560104370117 1.843731880187988 C 8.863354682922363 1.36397647857666 9.43167781829834 1.124098777770996 10 1.124098777770996 Z" stroke="none" fill="#9eaab8"/>
      </g>
      <g id="Polígono_5" data-name="Polígono 5" transform="translate(2309.5 -3653.5) rotate(90)" fill="#d1d8e0">
        <path d="M 15.72992038726807 11.50000190734863 L 4.270080089569092 11.50000190734863 C 3.672830104827881 11.50000190734863 3.165030002593994 11.17710113525391 2.911700010299683 10.63623142242432 C 2.658370018005371 10.09537124633789 2.735399961471558 9.498541831970215 3.117749929428101 9.039721488952637 L 8.84766960144043 2.163821458816528 C 9.133509635925293 1.820821523666382 9.553509712219238 1.624101519584656 10 1.624101519584656 C 10.44649028778076 1.624101519584656 10.86649036407471 1.820821523666382 11.15233039855957 2.163821458816528 L 16.88224983215332 9.039721488952637 C 17.26460075378418 9.498541831970215 17.34163093566895 10.09537124633789 17.08830070495605 10.63623142242432 C 16.83497047424316 11.17710113525391 16.32716941833496 11.50000190734863 15.72992038726807 11.50000190734863 Z" stroke="none"/>
        <path d="M 10 2.124101638793945 C 9.825070381164551 2.124101638793945 9.492670059204102 2.170841217041016 9.231780052185059 2.483911514282227 L 3.501859664916992 9.359811782836914 C 3.124139785766602 9.813081741333008 3.301229476928711 10.28907203674316 3.364500045776367 10.42416191101074 C 3.427770614624023 10.55924129486084 3.680059432983398 11.00000190734863 4.270079612731934 11.00000190734863 L 15.72991943359375 11.00000190734863 C 16.3199405670166 11.00000190734863 16.57222938537598 10.55924129486084 16.63549995422363 10.42416191101074 C 16.69877052307129 10.28907203674316 16.8758602142334 9.813081741333008 16.49814033508301 9.359811782836914 L 10.76821994781494 2.483911514282227 C 10.5073299407959 2.170851707458496 10.17492008209229 2.124101638793945 10 2.124101638793945 M 10 1.124098777770996 C 10.56832218170166 1.124098777770996 11.13664531707764 1.36397647857666 11.53643989562988 1.843731880187988 L 17.26635932922363 8.719631195068359 C 18.35190010070801 10.02228164672852 17.42559051513672 12.00000190734863 15.72991943359375 12.00000190734863 L 4.270079612731934 12.00000190734863 C 2.574409484863281 12.00000190734863 1.648099899291992 10.02228164672852 2.733640670776367 8.719631195068359 L 8.463560104370117 1.843731880187988 C 8.863354682922363 1.36397647857666 9.43167781829834 1.124098777770996 10 1.124098777770996 Z" stroke="none" fill="#9eaab8"/>
      </g>
      <g id="Rectángulo_9088" data-name="Rectángulo 9088" transform="translate(2294 -3647)" fill="#d1d8e0" stroke="#9eaab8" stroke-width="1">
        <rect width="4" height="7" stroke="none"/>
        <rect x="0.5" y="0.5" width="3" height="6" fill="none"/>
      </g>
    </g>
    <g id="Grupo_17908" data-name="Grupo 17908" transform="translate(256)">
      <g id="Polígono_4-2" data-name="Polígono 4" transform="translate(2282.5 -3633.5) rotate(-90)" fill="#d1d8e0">
        <path d="M 15.72992038726807 11.50000190734863 L 4.270080089569092 11.50000190734863 C 3.672830104827881 11.50000190734863 3.165030002593994 11.17710113525391 2.911700010299683 10.63623142242432 C 2.658370018005371 10.09537124633789 2.735399961471558 9.498541831970215 3.117749929428101 9.039721488952637 L 8.84766960144043 2.163821458816528 C 9.133509635925293 1.820821523666382 9.553509712219238 1.624101519584656 10 1.624101519584656 C 10.44649028778076 1.624101519584656 10.86649036407471 1.820821523666382 11.15233039855957 2.163821458816528 L 16.88224983215332 9.039721488952637 C 17.26460075378418 9.498541831970215 17.34163093566895 10.09537124633789 17.08830070495605 10.63623142242432 C 16.83497047424316 11.17710113525391 16.32716941833496 11.50000190734863 15.72992038726807 11.50000190734863 Z" stroke="none"/>
        <path d="M 10 2.124101638793945 C 9.825070381164551 2.124101638793945 9.492670059204102 2.170841217041016 9.231780052185059 2.483911514282227 L 3.501859664916992 9.359811782836914 C 3.124139785766602 9.813081741333008 3.301229476928711 10.28907203674316 3.364500045776367 10.42416191101074 C 3.427770614624023 10.55924129486084 3.680059432983398 11.00000190734863 4.270079612731934 11.00000190734863 L 15.72991943359375 11.00000190734863 C 16.3199405670166 11.00000190734863 16.57222938537598 10.55924129486084 16.63549995422363 10.42416191101074 C 16.69877052307129 10.28907203674316 16.8758602142334 9.813081741333008 16.49814033508301 9.359811782836914 L 10.76821994781494 2.483911514282227 C 10.5073299407959 2.170851707458496 10.17492008209229 2.124101638793945 10 2.124101638793945 M 10 1.124098777770996 C 10.56832218170166 1.124098777770996 11.13664531707764 1.36397647857666 11.53643989562988 1.843731880187988 L 17.26635932922363 8.719631195068359 C 18.35190010070801 10.02228164672852 17.42559051513672 12.00000190734863 15.72991943359375 12.00000190734863 L 4.270079612731934 12.00000190734863 C 2.574409484863281 12.00000190734863 1.648099899291992 10.02228164672852 2.733640670776367 8.719631195068359 L 8.463560104370117 1.843731880187988 C 8.863354682922363 1.36397647857666 9.43167781829834 1.124098777770996 10 1.124098777770996 Z" stroke="none" fill="#9eaab8"/>
      </g>
      <g id="Polígono_5-2" data-name="Polígono 5" transform="translate(2309.5 -3653.5) rotate(90)" fill="#d1d8e0">
        <path d="M 15.72992038726807 11.50000190734863 L 4.270080089569092 11.50000190734863 C 3.672830104827881 11.50000190734863 3.165030002593994 11.17710113525391 2.911700010299683 10.63623142242432 C 2.658370018005371 10.09537124633789 2.735399961471558 9.498541831970215 3.117749929428101 9.039721488952637 L 8.84766960144043 2.163821458816528 C 9.133509635925293 1.820821523666382 9.553509712219238 1.624101519584656 10 1.624101519584656 C 10.44649028778076 1.624101519584656 10.86649036407471 1.820821523666382 11.15233039855957 2.163821458816528 L 16.88224983215332 9.039721488952637 C 17.26460075378418 9.498541831970215 17.34163093566895 10.09537124633789 17.08830070495605 10.63623142242432 C 16.83497047424316 11.17710113525391 16.32716941833496 11.50000190734863 15.72992038726807 11.50000190734863 Z" stroke="none"/>
        <path d="M 10 2.124101638793945 C 9.825070381164551 2.124101638793945 9.492670059204102 2.170841217041016 9.231780052185059 2.483911514282227 L 3.501859664916992 9.359811782836914 C 3.124139785766602 9.813081741333008 3.301229476928711 10.28907203674316 3.364500045776367 10.42416191101074 C 3.427770614624023 10.55924129486084 3.680059432983398 11.00000190734863 4.270079612731934 11.00000190734863 L 15.72991943359375 11.00000190734863 C 16.3199405670166 11.00000190734863 16.57222938537598 10.55924129486084 16.63549995422363 10.42416191101074 C 16.69877052307129 10.28907203674316 16.8758602142334 9.813081741333008 16.49814033508301 9.359811782836914 L 10.76821994781494 2.483911514282227 C 10.5073299407959 2.170851707458496 10.17492008209229 2.124101638793945 10 2.124101638793945 M 10 1.124098777770996 C 10.56832218170166 1.124098777770996 11.13664531707764 1.36397647857666 11.53643989562988 1.843731880187988 L 17.26635932922363 8.719631195068359 C 18.35190010070801 10.02228164672852 17.42559051513672 12.00000190734863 15.72991943359375 12.00000190734863 L 4.270079612731934 12.00000190734863 C 2.574409484863281 12.00000190734863 1.648099899291992 10.02228164672852 2.733640670776367 8.719631195068359 L 8.463560104370117 1.843731880187988 C 8.863354682922363 1.36397647857666 9.43167781829834 1.124098777770996 10 1.124098777770996 Z" stroke="none" fill="#9eaab8"/>
      </g>
      <g id="Rectángulo_9088-2" data-name="Rectángulo 9088" transform="translate(2294 -3647)" fill="#d1d8e0" stroke="#9eaab8" stroke-width="1">
        <rect width="4" height="7" stroke="none"/>
        <rect x="0.5" y="0.5" width="3" height="6" fill="none"/>
      </g>
    </g>
    <g id="Grupo_17906" data-name="Grupo 17906" transform="translate(128)">
      <g id="Polígono_4-3" data-name="Polígono 4" transform="translate(2282.5 -3633.5) rotate(-90)" fill="#d1d8e0">
        <path d="M 15.72992038726807 11.50000190734863 L 4.270080089569092 11.50000190734863 C 3.672830104827881 11.50000190734863 3.165030002593994 11.17710113525391 2.911700010299683 10.63623142242432 C 2.658370018005371 10.09537124633789 2.735399961471558 9.498541831970215 3.117749929428101 9.039721488952637 L 8.84766960144043 2.163821458816528 C 9.133509635925293 1.820821523666382 9.553509712219238 1.624101519584656 10 1.624101519584656 C 10.44649028778076 1.624101519584656 10.86649036407471 1.820821523666382 11.15233039855957 2.163821458816528 L 16.88224983215332 9.039721488952637 C 17.26460075378418 9.498541831970215 17.34163093566895 10.09537124633789 17.08830070495605 10.63623142242432 C 16.83497047424316 11.17710113525391 16.32716941833496 11.50000190734863 15.72992038726807 11.50000190734863 Z" stroke="none"/>
        <path d="M 10 2.124101638793945 C 9.825070381164551 2.124101638793945 9.492670059204102 2.170841217041016 9.231780052185059 2.483911514282227 L 3.501859664916992 9.359811782836914 C 3.124139785766602 9.813081741333008 3.301229476928711 10.28907203674316 3.364500045776367 10.42416191101074 C 3.427770614624023 10.55924129486084 3.680059432983398 11.00000190734863 4.270079612731934 11.00000190734863 L 15.72991943359375 11.00000190734863 C 16.3199405670166 11.00000190734863 16.57222938537598 10.55924129486084 16.63549995422363 10.42416191101074 C 16.69877052307129 10.28907203674316 16.8758602142334 9.813081741333008 16.49814033508301 9.359811782836914 L 10.76821994781494 2.483911514282227 C 10.5073299407959 2.170851707458496 10.17492008209229 2.124101638793945 10 2.124101638793945 M 10 1.124098777770996 C 10.56832218170166 1.124098777770996 11.13664531707764 1.36397647857666 11.53643989562988 1.843731880187988 L 17.26635932922363 8.719631195068359 C 18.35190010070801 10.02228164672852 17.42559051513672 12.00000190734863 15.72991943359375 12.00000190734863 L 4.270079612731934 12.00000190734863 C 2.574409484863281 12.00000190734863 1.648099899291992 10.02228164672852 2.733640670776367 8.719631195068359 L 8.463560104370117 1.843731880187988 C 8.863354682922363 1.36397647857666 9.43167781829834 1.124098777770996 10 1.124098777770996 Z" stroke="none" fill="#9eaab8"/>
      </g>
      <g id="Polígono_5-3" data-name="Polígono 5" transform="translate(2309.5 -3653.5) rotate(90)" fill="#d1d8e0">
        <path d="M 15.72992038726807 11.50000190734863 L 4.270080089569092 11.50000190734863 C 3.672830104827881 11.50000190734863 3.165030002593994 11.17710113525391 2.911700010299683 10.63623142242432 C 2.658370018005371 10.09537124633789 2.735399961471558 9.498541831970215 3.117749929428101 9.039721488952637 L 8.84766960144043 2.163821458816528 C 9.133509635925293 1.820821523666382 9.553509712219238 1.624101519584656 10 1.624101519584656 C 10.44649028778076 1.624101519584656 10.86649036407471 1.820821523666382 11.15233039855957 2.163821458816528 L 16.88224983215332 9.039721488952637 C 17.26460075378418 9.498541831970215 17.34163093566895 10.09537124633789 17.08830070495605 10.63623142242432 C 16.83497047424316 11.17710113525391 16.32716941833496 11.50000190734863 15.72992038726807 11.50000190734863 Z" stroke="none"/>
        <path d="M 10 2.124101638793945 C 9.825070381164551 2.124101638793945 9.492670059204102 2.170841217041016 9.231780052185059 2.483911514282227 L 3.501859664916992 9.359811782836914 C 3.124139785766602 9.813081741333008 3.301229476928711 10.28907203674316 3.364500045776367 10.42416191101074 C 3.427770614624023 10.55924129486084 3.680059432983398 11.00000190734863 4.270079612731934 11.00000190734863 L 15.72991943359375 11.00000190734863 C 16.3199405670166 11.00000190734863 16.57222938537598 10.55924129486084 16.63549995422363 10.42416191101074 C 16.69877052307129 10.28907203674316 16.8758602142334 9.813081741333008 16.49814033508301 9.359811782836914 L 10.76821994781494 2.483911514282227 C 10.5073299407959 2.170851707458496 10.17492008209229 2.124101638793945 10 2.124101638793945 M 10 1.124098777770996 C 10.56832218170166 1.124098777770996 11.13664531707764 1.36397647857666 11.53643989562988 1.843731880187988 L 17.26635932922363 8.719631195068359 C 18.35190010070801 10.02228164672852 17.42559051513672 12.00000190734863 15.72991943359375 12.00000190734863 L 4.270079612731934 12.00000190734863 C 2.574409484863281 12.00000190734863 1.648099899291992 10.02228164672852 2.733640670776367 8.719631195068359 L 8.463560104370117 1.843731880187988 C 8.863354682922363 1.36397647857666 9.43167781829834 1.124098777770996 10 1.124098777770996 Z" stroke="none" fill="#9eaab8"/>
      </g>
      <g id="Rectángulo_9088-3" data-name="Rectángulo 9088" transform="translate(2294 -3647)" fill="#d1d8e0" stroke="#9eaab8" stroke-width="1">
        <rect width="4" height="7" stroke="none"/>
        <rect x="0.5" y="0.5" width="3" height="6" fill="none"/>
      </g>
    </g>
    <g id="Grupo_17907" data-name="Grupo 17907" transform="translate(389)">
      <g id="Polígono_4-4" data-name="Polígono 4" transform="translate(2282.5 -3633.5) rotate(-90)" fill="#d1d8e0">
        <path d="M 15.72992038726807 11.50000190734863 L 4.270080089569092 11.50000190734863 C 3.672830104827881 11.50000190734863 3.165030002593994 11.17710113525391 2.911700010299683 10.63623142242432 C 2.658370018005371 10.09537124633789 2.735399961471558 9.498541831970215 3.117749929428101 9.039721488952637 L 8.84766960144043 2.163821458816528 C 9.133509635925293 1.820821523666382 9.553509712219238 1.624101519584656 10 1.624101519584656 C 10.44649028778076 1.624101519584656 10.86649036407471 1.820821523666382 11.15233039855957 2.163821458816528 L 16.88224983215332 9.039721488952637 C 17.26460075378418 9.498541831970215 17.34163093566895 10.09537124633789 17.08830070495605 10.63623142242432 C 16.83497047424316 11.17710113525391 16.32716941833496 11.50000190734863 15.72992038726807 11.50000190734863 Z" stroke="none"/>
        <path d="M 10 2.124101638793945 C 9.825070381164551 2.124101638793945 9.492670059204102 2.170841217041016 9.231780052185059 2.483911514282227 L 3.501859664916992 9.359811782836914 C 3.124139785766602 9.813081741333008 3.301229476928711 10.28907203674316 3.364500045776367 10.42416191101074 C 3.427770614624023 10.55924129486084 3.680059432983398 11.00000190734863 4.270079612731934 11.00000190734863 L 15.72991943359375 11.00000190734863 C 16.3199405670166 11.00000190734863 16.57222938537598 10.55924129486084 16.63549995422363 10.42416191101074 C 16.69877052307129 10.28907203674316 16.8758602142334 9.813081741333008 16.49814033508301 9.359811782836914 L 10.76821994781494 2.483911514282227 C 10.5073299407959 2.170851707458496 10.17492008209229 2.124101638793945 10 2.124101638793945 M 10 1.124098777770996 C 10.56832218170166 1.124098777770996 11.13664531707764 1.36397647857666 11.53643989562988 1.843731880187988 L 17.26635932922363 8.719631195068359 C 18.35190010070801 10.02228164672852 17.42559051513672 12.00000190734863 15.72991943359375 12.00000190734863 L 4.270079612731934 12.00000190734863 C 2.574409484863281 12.00000190734863 1.648099899291992 10.02228164672852 2.733640670776367 8.719631195068359 L 8.463560104370117 1.843731880187988 C 8.863354682922363 1.36397647857666 9.43167781829834 1.124098777770996 10 1.124098777770996 Z" stroke="none" fill="#9eaab8"/>
      </g>
      <g id="Polígono_5-4" data-name="Polígono 5" transform="translate(2309.5 -3653.5) rotate(90)" fill="#d1d8e0">
        <path d="M 15.72992038726807 11.50000190734863 L 4.270080089569092 11.50000190734863 C 3.672830104827881 11.50000190734863 3.165030002593994 11.17710113525391 2.911700010299683 10.63623142242432 C 2.658370018005371 10.09537124633789 2.735399961471558 9.498541831970215 3.117749929428101 9.039721488952637 L 8.84766960144043 2.163821458816528 C 9.133509635925293 1.820821523666382 9.553509712219238 1.624101519584656 10 1.624101519584656 C 10.44649028778076 1.624101519584656 10.86649036407471 1.820821523666382 11.15233039855957 2.163821458816528 L 16.88224983215332 9.039721488952637 C 17.26460075378418 9.498541831970215 17.34163093566895 10.09537124633789 17.08830070495605 10.63623142242432 C 16.83497047424316 11.17710113525391 16.32716941833496 11.50000190734863 15.72992038726807 11.50000190734863 Z" stroke="none"/>
        <path d="M 10 2.124101638793945 C 9.825070381164551 2.124101638793945 9.492670059204102 2.170841217041016 9.231780052185059 2.483911514282227 L 3.501859664916992 9.359811782836914 C 3.124139785766602 9.813081741333008 3.301229476928711 10.28907203674316 3.364500045776367 10.42416191101074 C 3.427770614624023 10.55924129486084 3.680059432983398 11.00000190734863 4.270079612731934 11.00000190734863 L 15.72991943359375 11.00000190734863 C 16.3199405670166 11.00000190734863 16.57222938537598 10.55924129486084 16.63549995422363 10.42416191101074 C 16.69877052307129 10.28907203674316 16.8758602142334 9.813081741333008 16.49814033508301 9.359811782836914 L 10.76821994781494 2.483911514282227 C 10.5073299407959 2.170851707458496 10.17492008209229 2.124101638793945 10 2.124101638793945 M 10 1.124098777770996 C 10.56832218170166 1.124098777770996 11.13664531707764 1.36397647857666 11.53643989562988 1.843731880187988 L 17.26635932922363 8.719631195068359 C 18.35190010070801 10.02228164672852 17.42559051513672 12.00000190734863 15.72991943359375 12.00000190734863 L 4.270079612731934 12.00000190734863 C 2.574409484863281 12.00000190734863 1.648099899291992 10.02228164672852 2.733640670776367 8.719631195068359 L 8.463560104370117 1.843731880187988 C 8.863354682922363 1.36397647857666 9.43167781829834 1.124098777770996 10 1.124098777770996 Z" stroke="none" fill="#9eaab8"/>
      </g>
      <g id="Rectángulo_9088-4" data-name="Rectángulo 9088" transform="translate(2294 -3647)" fill="#d1d8e0" stroke="#9eaab8" stroke-width="1">
        <rect width="4" height="7" stroke="none"/>
        <rect x="0.5" y="0.5" width="3" height="6" fill="none"/>
      </g>
    </g>
    <g id="Rectángulo_9089" data-name="Rectángulo 9089" transform="translate(2581 -3682)" fill="none" stroke="#38485c" stroke-width="3" stroke-dasharray="5 2">
      <rect width="71" height="90" stroke="none"/>
      <rect x="1.5" y="1.5" width="68" height="87" fill="none"/>
    </g>
    <g id="Rectángulo_9090" data-name="Rectángulo 9090" transform="translate(2590 -3692)" fill="none" stroke="#38485c" stroke-width="3" stroke-dasharray="5 2">
      <rect width="71" height="90" stroke="none"/>
      <rect x="1.5" y="1.5" width="68" height="87" fill="none"/>
    </g>
    <text id="_Text_H6_Selected_On_Surface_High_Emphasis_Left" data-name="✱ / Text / H6 / Selected / On Surface / High Emphasis / Left" transform="translate(2198 -3575)" fill="#38485c" font-size="21" font-family="Nunito-Bold, Nunito" font-weight="700" letter-spacing="-0.002em"><tspan x="0" y="21">Átomos</tspan></text>
    <text id="_Text_H6_Selected_On_Surface_High_Emphasis_Left-2" data-name="✱ / Text / H6 / Selected / On Surface / High Emphasis / Left" transform="translate(2312 -3575)" fill="#38485c" font-size="21" font-family="Nunito-Bold, Nunito" font-weight="700" letter-spacing="-0.002em"><tspan x="0" y="21">Moléculas</tspan></text>
    <text id="_Text_H6_Selected_On_Surface_High_Emphasis_Left-3" data-name="✱ / Text / H6 / Selected / On Surface / High Emphasis / Left" transform="translate(2430 -3575)" fill="#38485c" font-size="21" font-family="Nunito-Bold, Nunito" font-weight="700" letter-spacing="-0.002em"><tspan x="0" y="21">Organismos</tspan></text>
    <text id="_Text_H6_Selected_On_Surface_High_Emphasis_Left-4" data-name="✱ / Text / H6 / Selected / On Surface / High Emphasis / Left" transform="translate(2578 -3575)" fill="#38485c" font-size="21" font-family="Nunito-Bold, Nunito" font-weight="700" letter-spacing="-0.002em"><tspan x="0" y="21">Plantillas</tspan></text>
    <text id="_Text_H6_Selected_On_Surface_High_Emphasis_Left-5" data-name="✱ / Text / H6 / Selected / On Surface / High Emphasis / Left" transform="translate(2711 -3575)" fill="#38485c" font-size="21" font-family="Nunito-Bold, Nunito" font-weight="700" letter-spacing="-0.002em"><tspan x="0" y="21">Páginas</tspan></text>
    <rect id="Rectángulo_9091" data-name="Rectángulo 9091" width="738" height="298" transform="translate(2141 -3769)" fill="none"/>
  </g>
</svg>
