<svg xmlns="http://www.w3.org/2000/svg" xmlns:xlink="http://www.w3.org/1999/xlink" width="834" height="509" viewBox="0 0 834 509">
  <defs>
    <clipPath id="clip-dirección_común">
      <rect width="834" height="509"/>
    </clipPath>
  </defs>
  <g id="dirección_común" data-name="dirección común" clip-path="url(#clip-dirección_común)">
    <rect width="834" height="509" fill="#fff"/>
    <g id="Grupo_17831" data-name="Grupo 17831">
      <rect id="Rectángulo_8949" data-name="Rectángulo 8949" width="269" height="18" rx="9" transform="translate(58 172)" fill="#e6ebf0"/>
      <rect id="Rectángulo_8956" data-name="Rectángulo 8956" width="269" height="18" rx="9" transform="translate(423 330)" fill="#e6ebf0"/>
      <rect id="Rectángulo_8951" data-name="Rectángulo 8951" width="269" height="16" rx="8" transform="translate(58 228)" fill="#e6ebf0"/>
      <rect id="Rectángulo_8958" data-name="Rectángulo 8958" width="269" height="16" rx="8" transform="translate(423 386)" fill="#e6ebf0"/>
      <rect id="Rectángulo_8952" data-name="Rectángulo 8952" width="225" height="17" rx="8.5" transform="translate(58 255)" fill="#e6ebf0"/>
      <rect id="Rectángulo_8959" data-name="Rectángulo 8959" width="225" height="17" rx="8.5" transform="translate(423 413)" fill="#e6ebf0"/>
      <rect id="Rectángulo_8950" data-name="Rectángulo 8950" width="298" height="16" rx="8" transform="translate(58 201)" fill="#e6ebf0"/>
      <rect id="Rectángulo_8957" data-name="Rectángulo 8957" width="298" height="16" rx="8" transform="translate(423 359)" fill="#e6ebf0"/>
      <rect id="Rectángulo_8948" data-name="Rectángulo 8948" width="69" height="8" rx="4" transform="translate(58 143)" fill="#e6ebf0"/>
      <rect id="Rectángulo_8955" data-name="Rectángulo 8955" width="69" height="8" rx="4" transform="translate(423 301)" fill="#e6ebf0"/>
      <rect id="Rectángulo_8943" data-name="Rectángulo 8943" width="42" height="8" rx="4" transform="translate(314 60)" fill="#9eaab8"/>
      <rect id="Rectángulo_8960" data-name="Rectángulo 8960" width="42" height="8" rx="4" transform="translate(679 60)" fill="#e6ebf0"/>
      <rect id="Rectángulo_8963" data-name="Rectángulo 8963" width="100" height="8" rx="4" transform="translate(422 119)" fill="#9eaab8"/>
      <rect id="Rectángulo_8964" data-name="Rectángulo 8964" width="119" height="8" rx="4" transform="translate(422 158)" fill="#9eaab8"/>
      <rect id="Rectángulo_8965" data-name="Rectángulo 8965" width="86" height="8" rx="4" transform="translate(422 198)" fill="#9eaab8"/>
      <rect id="Rectángulo_8966" data-name="Rectángulo 8966" width="86" height="8" rx="4" transform="translate(422 237)" fill="#9eaab8"/>
      <rect id="Rectángulo_8945" data-name="Rectángulo 8945" width="42" height="8" rx="4" transform="translate(314 72)" fill="#9eaab8"/>
      <rect id="Rectángulo_8961" data-name="Rectángulo 8961" width="42" height="8" rx="4" transform="translate(679 72)" fill="#e6ebf0"/>
      <rect id="Rectángulo_8946" data-name="Rectángulo 8946" width="42" height="8" rx="4" transform="translate(314 84)" fill="#9eaab8"/>
      <rect id="Rectángulo_8962" data-name="Rectángulo 8962" width="42" height="8" rx="4" transform="translate(679 84)" fill="#e6ebf0"/>
      <line id="Línea_349" data-name="Línea 349" x2="298.085" transform="translate(58.415 103.265)" fill="none" stroke="#e6ebf0" stroke-width="1"/>
      <line id="Línea_350" data-name="Línea 350" x2="298.085" transform="translate(423.415 103.5)" fill="none" stroke="#e6ebf0" stroke-width="1"/>
      <line id="Línea_352" data-name="Línea 352" x2="298.085" transform="translate(423.415 142.5)" fill="none" stroke="#e6ebf0" stroke-width="1"/>
      <line id="Línea_353" data-name="Línea 353" x2="298.085" transform="translate(423.415 182.5)" fill="none" stroke="#e6ebf0" stroke-width="1"/>
      <line id="Línea_354" data-name="Línea 354" x2="298.085" transform="translate(423.415 221.5)" fill="none" stroke="#e6ebf0" stroke-width="1"/>
      <line id="Línea_351" data-name="Línea 351" x2="298.085" transform="translate(423.415 261.5)" fill="none" stroke="#e6ebf0" stroke-width="1"/>
      <g id="Grupo_17814" data-name="Grupo 17814" transform="translate(-489.5 -1993)">
        <g id="Polígono_2" data-name="Polígono 2" transform="translate(891 2149) rotate(90)" fill="#38485c">
          <path d="M 10.23381042480469 9 L 1.766190052032471 9 L 6 1.943650007247925 L 10.23381042480469 9 Z" stroke="none"/>
          <path d="M 6 3.887306690216064 L 3.532383918762207 8 L 8.467616081237793 8 L 6 3.887306690216064 M 6 0 L 12 10 L 0 10 L 6 0 Z" stroke="none" fill="#38485c"/>
        </g>
      </g>
      <path id="Trazado_24338" data-name="Trazado 24338" d="M413.482,128.4l-1.357-3.015-7.629-5.895-4.387-9.559s-.264-1.395.678-1.847,2.118.754,2.571,1.319,3.588,6.423,3.588,6.423v-1.508l-4.8-17.338a1.274,1.274,0,0,1,.935-1.583h0a1.281,1.281,0,0,1,1.508.754l4.433,10.727s-.264-2.261,1.621-2.45a2.6,2.6,0,0,1,2.608,1.508s-.377-1.508,1.545-1.7,2.571,2.148,2.571,2.148c-.113-1.282,1.364-1.432,1.364-1.432a2.42,2.42,0,0,1,2.148.9c3.272,6.212,1.922,16.939,1.922,16.939l1.749,5.043.053.158" transform="translate(-66.99 -22.918)" fill="#fff" stroke="#38485c" stroke-width="1"/>
      <path id="Trazado_24339" data-name="Trazado 24339" d="M2266.48,5034s1.75,37.391,40.686,43.078" transform="translate(-1914 -4915)" fill="none" stroke="#38485c" stroke-width="2"/>
      <g id="Grupo_17817" data-name="Grupo 17817" transform="translate(-83 -15.709)">
        <g id="Grupo_102" data-name="Grupo 102" transform="translate(141 77.181)">
          <path id="Trazado_230" data-name="Trazado 230" d="M175.052,190.172h0a5.135,5.135,0,0,0-4.593,2.836l-6.909,13.349a6.874,6.874,0,0,0-3.486-3.031,6.6,6.6,0,0,0-.836-11.214,13.4,13.4,0,0,0-6.262-1.539H142.629a3.838,3.838,0,0,0-3.842,3.834v19.236a3.838,3.838,0,0,0,3.837,3.839H153.8a15.364,15.364,0,0,0,6.066-1.242l.708-.342c.041-.019.079-.04.116-.06a3.838,3.838,0,0,0,6.785-.392,2.037,2.037,0,0,1,1.782-1.238H180.84a2.04,2.04,0,0,1,1.783,1.238,3.839,3.839,0,0,0,7.336-1.581,3.78,3.78,0,0,0-.5-1.889l-9.815-18.966a5.137,5.137,0,0,0-4.6-2.836Z" transform="translate(-138.787 -190.172)" fill="#e6ebf0"/>
        </g>
      </g>
      <g id="Grupo_17818" data-name="Grupo 17818" transform="translate(281 -15.709)">
        <g id="Grupo_102-2" data-name="Grupo 102" transform="translate(141 77.181)">
          <path id="Trazado_230-2" data-name="Trazado 230" d="M175.052,190.172h0a5.135,5.135,0,0,0-4.593,2.836l-6.909,13.349a6.874,6.874,0,0,0-3.486-3.031,6.6,6.6,0,0,0-.836-11.214,13.4,13.4,0,0,0-6.262-1.539H142.629a3.838,3.838,0,0,0-3.842,3.834v19.236a3.838,3.838,0,0,0,3.837,3.839H153.8a15.364,15.364,0,0,0,6.066-1.242l.708-.342c.041-.019.079-.04.116-.06a3.838,3.838,0,0,0,6.785-.392,2.037,2.037,0,0,1,1.782-1.238H180.84a2.04,2.04,0,0,1,1.783,1.238,3.839,3.839,0,0,0,7.336-1.581,3.78,3.78,0,0,0-.5-1.889l-9.815-18.966a5.137,5.137,0,0,0-4.6-2.836Z" transform="translate(-138.787 -190.172)" fill="#e6ebf0"/>
        </g>
      </g>
      <g id="Rectángulo_8998" data-name="Rectángulo 8998" transform="translate(414 80)" fill="none" stroke="#38485c" stroke-width="2" stroke-dasharray="4 8">
        <rect width="321" height="201" rx="12" stroke="none"/>
        <rect x="1" y="1" width="319" height="199" rx="11" fill="none"/>
      </g>
    </g>
  </g>
</svg>
