<svg xmlns="http://www.w3.org/2000/svg" xmlns:xlink="http://www.w3.org/1999/xlink" width="827" height="324" viewBox="0 0 827 324">
  <defs>
    <filter id="Rectángulo_9022" x="567" y="94" width="173" height="156" filterUnits="userSpaceOnUse">
      <feOffset dy="3" input="SourceAlpha"/>
      <feGaussianBlur stdDeviation="3" result="blur"/>
      <feFlood flood-opacity="0.161"/>
      <feComposite operator="in" in2="blur"/>
      <feComposite in="SourceGraphic"/>
    </filter>
    <clipPath id="clip-figura-fondo">
      <rect width="827" height="324"/>
    </clipPath>
  </defs>
  <g id="figura-fondo" clip-path="url(#clip-figura-fondo)">
    <rect width="827" height="324" fill="#fff"/>
    <g id="Grupo_17832" data-name="Grupo 17832">
      <g id="Grupo_17815" data-name="Grupo 17815" transform="translate(-460 -2729)">
        <rect id="Rectángulo_8988" data-name="Rectángulo 8988" width="223" height="200" rx="12" transform="translate(1002 2798)" fill="#f3f6f9"/>
        <g id="freepik--background-complete--inject-279" transform="translate(1578.985 2539.039)" opacity="0.6">
          <path id="Trazado_24340" data-name="Trazado 24340" d="M-267.145,482.923v19.6h60.259v-19.6Z" transform="translate(-183.878 -42.687)" fill="#fff"/>
          <path id="Trazado_24341" data-name="Trazado 24341" d="M-270.415,475.853v5.478h64.9v-5.478h-64.9Z" transform="translate(-183.141 -41.096)" fill="#dfe5e9"/>
          <path id="Trazado_24342" data-name="Trazado 24342" d="M-228.9,500.927h30.342v-19.6h2.108v-5.478h-33.713v4.974Z" transform="translate(-192.204 -41.096)" fill="#eef1f5"/>
          <rect id="Rectángulo_8971" data-name="Rectángulo 8971" width="12.219" height="2.952" transform="translate(-442.6 443.397)" fill="#dfe5e9"/>
          <rect id="Rectángulo_8972" data-name="Rectángulo 8972" width="15.69" height="6.23" transform="translate(-444.173 450.038)" fill="#eef1f5"/>
          <path id="Trazado_24343" data-name="Trazado 24343" d="M-535.483,407.712a27.083,27.083,0,0,0-11.576-4.014c-1.891-.194-3.952-.139-5.47,1.007a1.125,1.125,0,0,0-.566,1,1.218,1.218,0,0,0,.535.682,16.5,16.5,0,0,0,17.046,1.294" transform="translate(-0.876 -24.829)" fill="#e6ebf0" stroke="#e6ebf0" stroke-width="1"/>
          <path id="Trazado_24344" data-name="Trazado 24344" d="M-534.327,403.21a56.486,56.486,0,0,1-7.477-6.578,18.875,18.875,0,0,1-4.688-8.67,3.49,3.49,0,0,1,.372-2.9c5.958,4.649,10.638,10.669,11.793,18.147" transform="translate(-2.327 -20.652)" fill="#e6ebf0" stroke="#e6ebf0" stroke-width="1"/>
          <path id="Trazado_24345" data-name="Trazado 24345" d="M-530.556,403.637a26.952,26.952,0,0,1,.139-9.809,13.3,13.3,0,0,1,5.23-8.1c1.031,2.41.589,5.184-.139,7.694a37.488,37.488,0,0,1-5.184,10.9" transform="translate(-5.865 -20.801)" fill="#e6ebf0" stroke="#e6ebf0" stroke-width="1"/>
          <path id="Trazado_24346" data-name="Trazado 24346" d="M-527.147,422.353a17.358,17.358,0,0,0-9.3,4.7,17.5,17.5,0,0,0-5.3,9.112c3.479-.217,6.431-2.665,8.57-5.424s3.618-5.772,5.974-8.345" transform="translate(-3.432 -29.049)" fill="#e6ebf0" stroke="#e6ebf0" stroke-width="1"/>
          <path id="Trazado_24347" data-name="Trazado 24347" d="M-521.731,418.208a22.9,22.9,0,0,1,2.642-21.7,27.676,27.676,0,0,1-2.642,21.7" transform="translate(-7.577 -23.231)" fill="#e6ebf0" stroke="#e6ebf0" stroke-width="1"/>
          <path id="Trazado_24348" data-name="Trazado 24348" d="M-515.978,436.364a16.576,16.576,0,0,0-15.838,9.112c-.194.4-.372.891-.108,1.247a1.177,1.177,0,0,0,1.054.3c3.1-.2,5.881-2.077,8.167-4.215s4.269-4.6,6.788-6.454" transform="translate(-5.613 -32.197)" fill="#e6ebf0" stroke="#e6ebf0" stroke-width="1"/>
          <path id="Trazado_24349" data-name="Trazado 24349" d="M-512.009,429.351a29.53,29.53,0,0,1-.294-16.465c.581-2.123,1.55-4.355,3.518-5.346a.7.7,0,0,1,.535-.1.774.774,0,0,1,.341.4,9.954,9.954,0,0,1,.829,4.727,29.416,29.416,0,0,1-.775,4.781c-.612,2.929-.945,6.067-2.549,8.585a17.842,17.842,0,0,0-.984,1.875c-.3.635-.31.868-.589,1.371" transform="translate(-9.829 -25.687)" fill="#e6ebf0" stroke="#e6ebf0" stroke-width="1"/>
          <path id="Trazado_24350" data-name="Trazado 24350" d="M-485.42,434.391a21.246,21.246,0,0,1,3.719-17.457c.271-.349.62-.721,1.062-.682.666.062.837.953.775,1.619a31.584,31.584,0,0,1-5.594,16.519" transform="translate(-15.987 -27.675)" fill="#e6ebf0" stroke="#e6ebf0" stroke-width="1"/>
          <path id="Trazado_24351" data-name="Trazado 24351" d="M-482.875,439.53a25.39,25.39,0,0,0,20.835-4.238,16.866,16.866,0,0,0-11.282-1.379,16.082,16.082,0,0,0-9.554,5.618" transform="translate(-16.687 -31.559)" fill="#e6ebf0" stroke="#e6ebf0" stroke-width="1"/>
          <path id="Trazado_24352" data-name="Trazado 24352" d="M-480.88,433.156a24.092,24.092,0,0,1,18.914-10.933,11.59,11.59,0,0,1-6.2,6.842,34.67,34.67,0,0,1-9.081,2.65c-1.209.24-2.867.5-3.649,1.441" transform="translate(-17.133 -29.02)" fill="#e6ebf0" stroke="#e6ebf0" stroke-width="1"/>
          <path id="Trazado_24353" data-name="Trazado 24353" d="M-485.534,405.929a54.687,54.687,0,0,0,2.417-11.08,18.361,18.361,0,0,0-2.2-10.956,24.119,24.119,0,0,0-.325,22.416" transform="translate(-15.477 -20.389)" fill="#e6ebf0" stroke="#e6ebf0" stroke-width="1"/>
          <path id="Trazado_24354" data-name="Trazado 24354" d="M-468.855,399.974c4.285-7.748,13.017-13.993,21.85-14.861-3.409,8.484-12.707,15.039-21.85,14.861" transform="translate(-19.844 -20.664)" fill="#e6ebf0" stroke="#e6ebf0" stroke-width="1"/>
          <path id="Trazado_24355" data-name="Trazado 24355" d="M-472.325,405.893c6.385.969,11.816,5.044,17.821,7.516a7.914,7.914,0,0,0,4.021.775,3.137,3.137,0,0,0,3.115-3.161,3.139,3.139,0,0,0-1.147-2.4,8.581,8.581,0,0,0-2.913-1.774c-6.5-2.7-13.467-2.774-20.308-1.131" transform="translate(-19.063 -25.056)" fill="#e6ebf0" stroke="#e6ebf0" stroke-width="1"/>
          <path id="Trazado_24356" data-name="Trazado 24356" d="M-477.1,411.942c1.449.418,1.937,1.162,3.1,2.139A33.25,33.25,0,0,0-460.561,421c.511.132,1.185.178,1.441-.287s-.054-.9-.349-1.263a18.6,18.6,0,0,0-8.143-5.525c-3.1-1.162-5.8-2.557-9.523-2.255" transform="translate(-17.98 -26.634)" fill="#e6ebf0" stroke="#e6ebf0" stroke-width="1"/>
          <path id="Trazado_24357" data-name="Trazado 24357" d="M-482.475,376.94a25.568,25.568,0,0,0,19.572,6.648,1.346,1.346,0,0,0,.891-.318c.488-.535-.1-1.364-.674-1.813-5.757-4.486-12.723-6.346-19.789-4.525" transform="translate(-16.777 -18.666)" fill="#e6ebf0" stroke="#e6ebf0" stroke-width="1"/>
          <path id="Trazado_24358" data-name="Trazado 24358" d="M-476.1,373.27a27.245,27.245,0,0,1,24.415-4.029,19.364,19.364,0,0,1-11.622,5.106,36.863,36.863,0,0,1-12.785-1.077" transform="translate(-18.214 -16.801)" fill="#e6ebf0" stroke="#e6ebf0" stroke-width="1"/>
          <path id="Trazado_24359" data-name="Trazado 24359" d="M-479.584,353.755c-.566-5.742-.2-10.274-.6-16.047,0-.457-.132-1.015-.566-1.178-.6-.232-1.1.5-1.3,1.116a18.419,18.419,0,0,0,2.448,15.985" transform="translate(-16.685 -9.714)" fill="#e6ebf0" stroke="#e6ebf0" stroke-width="1"/>
          <path id="Trazado_24360" data-name="Trazado 24360" d="M-479.165,354.347a33.751,33.751,0,0,0,9.515-9.244c1.875-2.572,3.464-5.649,3.037-8.81a9.131,9.131,0,0,0-6.865,3.409,19.181,19.181,0,0,0-3.494,7.035c-.775,2.526-1.294,5.129-2.193,7.609" transform="translate(-17.523 -9.671)" fill="#e6ebf0" stroke="#e6ebf0" stroke-width="1"/>
          <path id="Trazado_24361" data-name="Trazado 24361" d="M-467.134,352.063a76.694,76.694,0,0,0,23.415-13.808c-2.8-1.124-6-.449-8.794.682A27.525,27.525,0,0,0-467.235,352" transform="translate(-20.209 -9.983)" fill="#e6ebf0" stroke="#e6ebf0" stroke-width="1"/>
          <path id="Trazado_24362" data-name="Trazado 24362" d="M-475.745,361.676a48.074,48.074,0,0,0,13,.07c4.285-.705,8.2-2.379,12.134-4.037a1.417,1.417,0,0,0,.821-.628.937.937,0,0,0-.294-1.038,2.442,2.442,0,0,0-1.031-.48,22.536,22.536,0,0,0-13.118.775,61.145,61.145,0,0,0-11.514,5.339" transform="translate(-18.293 -13.863)" fill="#e6ebf0" stroke="#e6ebf0" stroke-width="1"/>
          <path id="Trazado_24363" data-name="Trazado 24363" d="M-508.245,371.863a22.97,22.97,0,0,1-.209-19.03c1.79,2.735,2.007,6.2,1.681,9.461s-1.317,6.6-1.379,9.864" transform="translate(-10.487 -13.395)" fill="#e6ebf0" stroke="#e6ebf0" stroke-width="1"/>
          <path id="Trazado_24364" data-name="Trazado 24364" d="M-528.548,369.722a26.517,26.517,0,0,0-19.727,8.4,18.479,18.479,0,0,0,10.8-2,55.445,55.445,0,0,0,9.3-6.2" transform="translate(-1.961 -17.198)" fill="#e6ebf0" stroke="#e6ebf0" stroke-width="1"/>
          <path id="Trazado_24365" data-name="Trazado 24365" d="M-538.428,366.212c-3.6-.294-7.067-.736-10.53.325a12.6,12.6,0,0,0-8.027,6.8,18.977,18.977,0,0,0,9.871-1.867,55.974,55.974,0,0,0,8.686-5.261" transform="translate(0 -16.33)" fill="#e6ebf0" stroke="#e6ebf0" stroke-width="1"/>
          <path id="Trazado_24366" data-name="Trazado 24366" d="M-524.041,364.857c-3.239-2.123-6.563-4.277-10.336-5.16s-8.143-.232-10.778,2.611c3.053,1.8,6.757,2.007,10.3,2.007s7.88-.046,11.22,1.131" transform="translate(-2.664 -14.858)" fill="#e6ebf0" stroke="#e6ebf0" stroke-width="1"/>
          <path id="Trazado_24367" data-name="Trazado 24367" d="M-519.712,360.141c-5.532-5.424-7.632-15.21-5.424-22.648a34.473,34.473,0,0,1,5.424,22.648" transform="translate(-6.977 -9.941)" fill="#e6ebf0" stroke="#e6ebf0" stroke-width="1"/>
          <path id="Trazado_24368" data-name="Trazado 24368" d="M-498.225,341.611c1.046-2.433,1.774-4.974,2.712-7.446a21.61,21.61,0,0,1,3.874-6.873,10.194,10.194,0,0,1,6.857-3.549,27.613,27.613,0,0,1-13.312,17.906" transform="translate(-13.231 -6.845)" fill="#e6ebf0" stroke="#e6ebf0" stroke-width="1"/>
          <path id="Trazado_24369" data-name="Trazado 24369" d="M-505.908,348.107c-1.728-2.379-3.727-5.61-6.067-7.384a10.185,10.185,0,0,0-8.26-2.17,19.212,19.212,0,0,0,14.327,9.554" transform="translate(-8.275 -10.133)" fill="#e6ebf0" stroke="#e6ebf0" stroke-width="1"/>
          <path id="Trazado_24370" data-name="Trazado 24370" d="M-501.934,341.867a41.077,41.077,0,0,1-2.727-8.841,13.881,13.881,0,0,1,1.379-9c3.045,5.749,4.021,11.917,1.5,17.914" transform="translate(-11.73 -6.908)" fill="#e6ebf0" stroke="#e6ebf0" stroke-width="1"/>
          <path id="Trazado_24371" data-name="Trazado 24371" d="M-498.2,320.489c1.728-5.7,6.973-9.887,12.576-11.816a4.657,4.657,0,0,1,2.2-.325,1.915,1.915,0,0,1,1.627,1.356c.2.969-.6,1.836-1.348,2.479a42.7,42.7,0,0,1-15.055,8.306" transform="translate(-13.238 -3.374)" fill="#e6ebf0" stroke="#e6ebf0" stroke-width="1"/>
          <path id="Trazado_24372" data-name="Trazado 24372" d="M-498.14,312.458c.225-3.673.449-7.4,1.65-10.848s3.495-6.749,6.842-8.267c.573,3.711-1.069,7.4-3.037,10.592s-4.355,6.2-5.54,9.763" transform="translate(-13.231)" fill="#e6ebf0" stroke="#e6ebf0" stroke-width="1"/>
          <path id="Trazado_24373" data-name="Trazado 24373" d="M-501.323,315.47c-1.426-4.145-1.55-9.422-4.06-13.04-1.736-2.526-4.517-4.246-6.013-6.927a10.526,10.526,0,0,0,.372,7.865,22.875,22.875,0,0,0,4.595,6.586c1.844,1.96,3.417,3.44,5.129,5.517" transform="translate(-10.133 -0.486)" fill="#e6ebf0" stroke="#e6ebf0" stroke-width="1"/>
          <path id="Trazado_24374" data-name="Trazado 24374" d="M-498.256,443.123c-.108,0-.2-27.693-.209-61.855s.078-61.855.186-61.855.2,27.685.209,61.855S-498.14,443.123-498.256,443.123Z" transform="translate(-13.177 -5.87)" fill="#e6ebf0" stroke="#e6ebf0" stroke-width="1"/>
          <path id="Trazado_24375" data-name="Trazado 24375" d="M-473.99,372a6.267,6.267,0,0,1-1.038.387l-2.867.969c-2.417.821-5.734,2.015-9.3,3.495s-6.973,2.774-8.849,4.432a6.526,6.526,0,0,0-1.782,2.324c-.271.651-.318,1.054-.356,1.046s0-.1,0-.294a4.49,4.49,0,0,1,.209-.775,6.21,6.21,0,0,1,1.674-2.5,15.229,15.229,0,0,1,3.874-2.394c1.55-.721,3.239-1.464,5.044-2.208,3.611-1.48,6.974-2.634,9.406-3.394,1.216-.38,2.216-.659,2.906-.845A5.637,5.637,0,0,1-473.99,372Z" transform="translate(-13.237 -17.712)" fill="#e6ebf0" stroke="#e6ebf0" stroke-width="1"/>
          <path id="Trazado_24376" data-name="Trazado 24376" d="M-465.52,346.853a1.921,1.921,0,0,1-.294.31l-.883.837-3.324,3.014-10.995,9.833c-4.308,3.835-8.035,7.5-10.615,10.259-1.294,1.379-2.324,2.526-3.006,3.324-.325.364-.589.674-.775.914a1.689,1.689,0,0,1-.3.3,1.542,1.542,0,0,1,.232-.356c.17-.217.418-.55.775-.961.659-.829,1.643-2.007,2.913-3.409a138.28,138.28,0,0,1,10.561-10.375c4.324-3.828,8.26-7.268,11.119-9.747l3.4-2.913.938-.775A2.491,2.491,0,0,1-465.52,346.853Z" transform="translate(-13.796 -12.049)" fill="#e6ebf0" stroke="#e6ebf0" stroke-width="1"/>
          <path id="Trazado_24377" data-name="Trazado 24377" d="M-482.748,367.158c-.116-.046.775-2.123,1.681-4.757s1.333-4.85,1.449-4.827a16.517,16.517,0,0,1-1.069,4.959,31.231,31.231,0,0,1-1.341,3.324A5.4,5.4,0,0,1-482.748,367.158Z" transform="translate(-16.713 -14.462)" fill="#e6ebf0" stroke="#e6ebf0" stroke-width="1"/>
          <path id="Trazado_24378" data-name="Trazado 24378" d="M-502.82,385.706a4.85,4.85,0,0,1-.666-.775l-1.7-2.177c-1.426-1.852-3.4-4.4-5.618-7.19s-4.254-5.292-5.726-7.105l-1.743-2.154a4.974,4.974,0,0,1-.6-.821,4.91,4.91,0,0,1,.721.721c.442.48,1.069,1.185,1.836,2.069,1.55,1.767,3.6,4.246,5.819,7.043s4.161,5.377,5.54,7.268c.682.945,1.232,1.72,1.6,2.255A4.815,4.815,0,0,1-502.82,385.706Z" transform="translate(-8.581 -16.244)" fill="#e6ebf0" stroke="#e6ebf0" stroke-width="1"/>
          <path id="Trazado_24379" data-name="Trazado 24379" d="M-505.8,380.354a9.745,9.745,0,0,1-2.224-4.169,11.738,11.738,0,0,1-.5-4.192h.178c-.085.318-.139.488-.17.48s0-.178,0-.511h.178a19.247,19.247,0,0,0,.705,4.083A31.9,31.9,0,0,0-505.8,380.354Z" transform="translate(-10.905 -17.703)" fill="#e6ebf0" stroke="#e6ebf0" stroke-width="1"/>
          <path id="Trazado_24380" data-name="Trazado 24380" d="M-517.328,371.162a7.212,7.212,0,0,0-1.55-.9,10.355,10.355,0,0,0-4.308-.341,26.257,26.257,0,0,0-4.339.7,11.614,11.614,0,0,1-1.79.426,6.232,6.232,0,0,1,1.712-.7,20.263,20.263,0,0,1,4.386-.829,9.426,9.426,0,0,1,4.448.48A2.814,2.814,0,0,1-517.328,371.162Z" transform="translate(-6.23 -17.134)" fill="#e6ebf0" stroke="#e6ebf0" stroke-width="1"/>
          <path id="Trazado_24381" data-name="Trazado 24381" d="M-520.84,368.244c0,.062-.907-.364-2.379-.868a23.869,23.869,0,0,0-11.987-.876c-1.55.279-2.456.566-2.479.5a2.362,2.362,0,0,1,.628-.271,16.238,16.238,0,0,1,1.8-.5,21.426,21.426,0,0,1,6.137-.426,21.2,21.2,0,0,1,6,1.356,14.75,14.75,0,0,1,1.7.775A2.176,2.176,0,0,1-520.84,368.244Z" transform="translate(-4.346 -16.301)" fill="#e6ebf0" stroke="#e6ebf0" stroke-width="1"/>
          <path id="Trazado_24382" data-name="Trazado 24382" d="M-499.121,354.042a49.618,49.618,0,0,1-1.736-6.028,48.728,48.728,0,0,1-1.348-6.121,49.529,49.529,0,0,1,1.736,6.067A48.712,48.712,0,0,1-499.121,354.042Z" transform="translate(-12.335 -10.932)" fill="#e6ebf0" stroke="#e6ebf0" stroke-width="1"/>
          <path id="Trazado_24383" data-name="Trazado 24383" d="M-499.465,355.675a28.822,28.822,0,0,0-1.922-3.611,15.859,15.859,0,0,0-2.828-2.913,2.637,2.637,0,0,1,1.093.558,8.755,8.755,0,0,1,2.061,2.131A7.9,7.9,0,0,1-499.465,355.675Z" transform="translate(-11.882 -12.564)" fill="#e6ebf0" stroke="#e6ebf0" stroke-width="1"/>
          <path id="Trazado_24384" data-name="Trazado 24384" d="M-505.567,448.285s-.124-.666-.434-1.844a26.4,26.4,0,0,0-1.852-4.8,67.483,67.483,0,0,0-9.817-13.831c-2.193-2.51-4.324-4.874-6.129-7.136a49.864,49.864,0,0,1-4.378-6.315,30.038,30.038,0,0,1-2.208-4.649c-.2-.573-.356-1.023-.434-1.34a1.826,1.826,0,0,1-.116-.48s.24.635.7,1.767a33.1,33.1,0,0,0,2.324,4.6,53.821,53.821,0,0,0,4.417,6.2c1.813,2.239,3.944,4.587,6.144,7.1a63.221,63.221,0,0,1,9.771,13.947,24.438,24.438,0,0,1,1.751,4.881c.124.6.209,1.069.24,1.387A2.174,2.174,0,0,1-505.567,448.285Z" transform="translate(-5.866 -25.793)" fill="#e6ebf0" stroke="#e6ebf0" stroke-width="1"/>
          <path id="Trazado_24385" data-name="Trazado 24385" d="M-476.315,428.142a10.8,10.8,0,0,1-1.147.643,25.347,25.347,0,0,0-2.975,1.96,33.877,33.877,0,0,0-3.874,3.564c-1.371,1.449-2.782,3.1-4.223,4.928-2.882,3.618-5.579,6.811-7.19,9.368a32.617,32.617,0,0,0-1.805,3.1,10.18,10.18,0,0,1-.635,1.154,1.8,1.8,0,0,1,.108-.325c.085-.209.2-.519.387-.9a29.124,29.124,0,0,1,1.7-3.169,100.933,100.933,0,0,1,7.113-9.461c1.449-1.805,2.875-3.494,4.269-4.936a32.377,32.377,0,0,1,4.006-3.533,20.173,20.173,0,0,1,3.1-1.875c.38-.194.69-.31.891-.4S-476.322,428.127-476.315,428.142Z" transform="translate(-13.244 -30.352)" fill="#e6ebf0" stroke="#e6ebf0" stroke-width="1"/>
          <path id="Trazado_24386" data-name="Trazado 24386" d="M-473.809,438.475a16.948,16.948,0,0,1-2.417.349,32.076,32.076,0,0,0-5.749,1.131,17.207,17.207,0,0,0-5.145,2.7c-1.185.914-1.743,1.674-1.8,1.627s.093-.217.356-.558a9.537,9.537,0,0,1,1.263-1.294,15.722,15.722,0,0,1,5.2-2.859,26.154,26.154,0,0,1,5.842-1.031A13.2,13.2,0,0,1-473.809,438.475Z" transform="translate(-15.324 -32.673)" fill="#e6ebf0" stroke="#e6ebf0" stroke-width="1"/>
          <path id="Trazado_24387" data-name="Trazado 24387" d="M-488.008,442.466c-.124-.077.969-1.743,1.813-3.983s.984-4.254,1.123-4.231a3.861,3.861,0,0,1,0,1.3,14.4,14.4,0,0,1-.705,3.1,15.132,15.132,0,0,1-1.41,2.813A4.049,4.049,0,0,1-488.008,442.466Z" transform="translate(-15.529 -31.728)" fill="#e6ebf0" stroke="#e6ebf0" stroke-width="1"/>
          <path id="Trazado_24388" data-name="Trazado 24388" d="M-469.233,400.373a1.615,1.615,0,0,1-.387.2l-1.139.519c-.5.217-1.1.488-1.782.845s-1.488.721-2.325,1.216l-1.325.775c-.457.263-.907.581-1.387.876-.976.6-1.953,1.325-3,2.069a51.348,51.348,0,0,0-11.514,11.9c-.705,1.062-1.4,2.069-1.96,3.1-.287.488-.581.953-.829,1.418l-.705,1.348c-.473.852-.775,1.658-1.139,2.324a13.885,13.885,0,0,0-.775,1.813c-.194.5-.349.852-.48,1.155a1.941,1.941,0,0,1-.186.4,1.487,1.487,0,0,1,.116-.418c.108-.31.24-.705.4-1.185s.411-1.139.728-1.844.628-1.55,1.085-2.394c.225-.434.449-.891.69-1.364s.535-.945.775-1.449c.55-1.007,1.24-2.022,1.945-3.1a53.1,53.1,0,0,1,5.292-6.5,54.241,54.241,0,0,1,6.315-5.517c1.054-.736,2.046-1.457,3.037-2.046.488-.294.945-.6,1.41-.86l1.348-.736c.845-.488,1.65-.837,2.324-1.17q.89-.432,1.821-.775l1.17-.449A1.694,1.694,0,0,1-469.233,400.373Z" transform="translate(-13.244 -24.1)" fill="#e6ebf0" stroke="#e6ebf0" stroke-width="1"/>
          <path id="Trazado_24389" data-name="Trazado 24389" d="M-483.165,414.5a2.849,2.849,0,0,1,.953-1.418,5.98,5.98,0,0,1,3.874-1.472,10.445,10.445,0,0,1,4.037.775,5.972,5.972,0,0,1,1.55.775,9.363,9.363,0,0,1-1.619-.473,12.3,12.3,0,0,0-3.928-.659,6.285,6.285,0,0,0-3.665,1.286A13.047,13.047,0,0,0-483.165,414.5Z" transform="translate(-16.622 -26.631)" fill="#e6ebf0" stroke="#e6ebf0" stroke-width="1"/>
          <path id="Trazado_24390" data-name="Trazado 24390" d="M-486.505,416.678a14.419,14.419,0,0,0,1.093-3.541,14.145,14.145,0,0,0-.248-3.7,2.406,2.406,0,0,1,.457,1.038,7.289,7.289,0,0,1,.186,2.712,7.384,7.384,0,0,1-.775,2.6C-486.164,416.391-486.466,416.709-486.505,416.678Z" transform="translate(-15.87 -26.14)" fill="#e6ebf0" stroke="#e6ebf0" stroke-width="1"/>
          <path id="Trazado_24391" data-name="Trazado 24391" d="M-522.875,465.143c.6,10.584,3.781,21.347,8.694,32.233h21.331c4.649-10.778,7.648-21.525,8.174-32.233Z" transform="translate(-7.68 -38.684)" fill="#9eaab8" opacity="0.4"/>
          <path id="Trazado_24392" data-name="Trazado 24392" d="M-487.154,487.187c0,.116-7.028.2-15.69.2s-15.69-.085-15.69-.2,7.028-.194,15.69-.194S-487.154,487.078-487.154,487.187Z" transform="translate(-8.658 -43.604)" fill="#fafafa"/>
          <path id="Trazado_24393" data-name="Trazado 24393" d="M-487.211,492.134c0,.116-6.586.2-14.722.2s-14.722-.085-14.722-.2,6.586-.2,14.722-.2S-487.211,492.026-487.211,492.134Z" transform="translate(-9.081 -44.716)" fill="#fafafa"/>
          <path id="Trazado_24394" data-name="Trazado 24394" d="M-511.273,474.113a59.939,59.939,0,0,1,0,9.825A60.109,60.109,0,0,1-511.273,474.113Z" transform="translate(-10.247 -40.704)" fill="#fafafa"/>
          <path id="Trazado_24395" data-name="Trazado 24395" d="M-496.523,474.113a64.261,64.261,0,0,1,0,10.174A64.444,64.444,0,0,1-496.523,474.113Z" transform="translate(-13.569 -40.704)" fill="#fafafa"/>
          <path id="Trazado_24396" data-name="Trazado 24396" d="M-482.673,474a66.828,66.828,0,0,1,0,10.375A67.017,67.017,0,0,1-482.673,474Z" transform="translate(-16.687 -40.679)" fill="#fafafa"/>
          <path id="Trazado_24397" data-name="Trazado 24397" d="M-485.141,474.054c0,.108-8.244.2-18.4.2s-18.4-.093-18.4-.2,8.236-.2,18.4-.2S-485.141,473.946-485.141,474.054Z" transform="translate(-7.89 -40.645)" fill="#fafafa"/>
          <path id="Trazado_24398" data-name="Trazado 24398" d="M-270.415,475.853v5.478H-236.7v-5.478h-33.713Z" transform="translate(-151.955 -41.096)" fill="#d3dae0"/>
          <path id="Trazado_24424" data-name="Trazado 24424" d="M-270.415,475.853v5.478H-236.7v-5.478h-33.713Z" transform="translate(-151.955 -41.096)" fill="#d3dae0" style="mix-blend-mode: multiply;isolation: isolate"/>
        </g>
        <rect id="Rectángulo_9023" data-name="Rectángulo 9023" width="223" height="200" rx="12" transform="translate(1002 2798)" fill="#38485c" opacity="0.15"/>
      </g>
      <path id="Trazado_24423" data-name="Trazado 24423" d="M12,0H454a12,12,0,0,1,12,12V189a12,12,0,0,1-12,12H12A12,12,0,0,1,0,189V12A12,12,0,0,1,12,0Z" transform="translate(56 69)" fill="#f3f6f9"/>
      <g id="freepik--background-complete--inject-279-2" data-name="freepik--background-complete--inject-279" transform="translate(665.984 -203.134)" opacity="0.6">
        <path id="Trazado_24340-2" data-name="Trazado 24340" d="M-267.145,482.923v21.146h65.027V482.923Z" transform="translate(-47.493 -31.065)" fill="#fff"/>
        <path id="Trazado_24341-2" data-name="Trazado 24341" d="M-270.415,475.853v5.911h70.035v-5.911h-70.035Z" transform="translate(-46.958 -29.906)" fill="#dfe5e9"/>
        <path id="Trazado_24342-2" data-name="Trazado 24342" d="M-228.8,502.911h32.743V481.765h2.274v-5.911h-36.38v5.368Z" transform="translate(-53.553 -29.906)" fill="#eef1f5"/>
        <rect id="Rectángulo_8971-2" data-name="Rectángulo 8971" width="13.186" height="3.186" transform="translate(-305.549 455.27)" fill="#dfe5e9"/>
        <rect id="Rectángulo_8972-2" data-name="Rectángulo 8972" width="16.932" height="6.723" transform="translate(-307.247 462.436)" fill="#eef1f5"/>
        <path id="Trazado_24343-2" data-name="Trazado 24343" d="M-534.09,408.036a29.225,29.225,0,0,0-12.492-4.331c-2.04-.209-4.264-.15-5.9,1.087a1.214,1.214,0,0,0-.61,1.079,1.315,1.315,0,0,0,.577.736,17.8,17.8,0,0,0,18.4,1.4" transform="translate(-0.637 -18.069)" fill="#e6ebf0" stroke="#e6ebf0" stroke-width="1"/>
        <path id="Trazado_24344-2" data-name="Trazado 24344" d="M-533.352,404.645a60.96,60.96,0,0,1-8.069-7.1,20.369,20.369,0,0,1-5.059-9.356,3.766,3.766,0,0,1,.4-3.127c6.43,5.017,11.48,11.514,12.726,19.582" transform="translate(-1.693 -15.029)" fill="#e6ebf0" stroke="#e6ebf0" stroke-width="1"/>
        <path id="Trazado_24345-2" data-name="Trazado 24345" d="M-530.526,405.055a29.085,29.085,0,0,1,.151-10.585,14.352,14.352,0,0,1,5.644-8.746c1.112,2.6.635,5.594-.151,8.3a40.455,40.455,0,0,1-5.594,11.764" transform="translate(-4.268 -15.137)" fill="#e6ebf0" stroke="#e6ebf0" stroke-width="1"/>
        <path id="Trazado_24346-2" data-name="Trazado 24346" d="M-525.992,422.353c-3.829.468-7.157,2.508-10.034,5.075a18.881,18.881,0,0,0-5.719,9.833c3.754-.234,6.94-2.876,9.248-5.853s3.9-6.229,6.447-9.005" transform="translate(-2.497 -21.14)" fill="#e6ebf0" stroke="#e6ebf0" stroke-width="1"/>
        <path id="Trazado_24347-2" data-name="Trazado 24347" d="M-521.6,419.925a24.711,24.711,0,0,1,2.851-23.412c2.182,7.759,1.38,16.522-2.851,23.412" transform="translate(-5.514 -16.905)" fill="#e6ebf0" stroke="#e6ebf0" stroke-width="1"/>
        <path id="Trazado_24348-2" data-name="Trazado 24348" d="M-514.705,436.366A17.887,17.887,0,0,0-531.8,446.2c-.209.426-.4.962-.117,1.346a1.271,1.271,0,0,0,1.137.326c3.344-.217,6.346-2.241,8.813-4.549s4.607-4.967,7.325-6.965" transform="translate(-4.085 -23.43)" fill="#e6ebf0" stroke="#e6ebf0" stroke-width="1"/>
        <path id="Trazado_24349-2" data-name="Trazado 24349" d="M-511.9,431.086a31.867,31.867,0,0,1-.318-17.768c.627-2.291,1.672-4.7,3.8-5.769a.756.756,0,0,1,.577-.109.835.835,0,0,1,.368.426,10.741,10.741,0,0,1,.895,5.1,31.746,31.746,0,0,1-.836,5.159c-.661,3.161-1.02,6.547-2.751,9.264a19.251,19.251,0,0,0-1.062,2.023c-.326.686-.334.936-.635,1.48" transform="translate(-7.153 -18.693)" fill="#e6ebf0" stroke="#e6ebf0" stroke-width="1"/>
        <path id="Trazado_24350-2" data-name="Trazado 24350" d="M-485.375,435.826a22.927,22.927,0,0,1,4.013-18.838c.293-.376.669-.778,1.146-.736.719.067.9,1.028.836,1.748a34.082,34.082,0,0,1-6.037,17.827" transform="translate(-11.634 -20.14)" fill="#e6ebf0" stroke="#e6ebf0" stroke-width="1"/>
        <path id="Trazado_24351-2" data-name="Trazado 24351" d="M-482.875,440.007a27.4,27.4,0,0,0,22.484-4.574,18.2,18.2,0,0,0-12.174-1.488c-4.064.928-7.784,2.751-10.31,6.062" transform="translate(-12.144 -22.966)" fill="#e6ebf0" stroke="#e6ebf0" stroke-width="1"/>
        <path id="Trazado_24352-2" data-name="Trazado 24352" d="M-480.878,434.021a26,26,0,0,1,20.41-11.8c-.928,3.286-3.629,5.853-6.689,7.383a37.414,37.414,0,0,1-9.8,2.86c-1.3.259-3.094.535-3.938,1.555" transform="translate(-12.468 -21.118)" fill="#e6ebf0" stroke="#e6ebf0" stroke-width="1"/>
        <path id="Trazado_24353-2" data-name="Trazado 24353" d="M-485.319,407.673a59.014,59.014,0,0,0,2.609-11.957,19.814,19.814,0,0,0-2.375-11.823c-3.955,7.642-4.348,16.572-.351,24.19" transform="translate(-11.263 -14.838)" fill="#e6ebf0" stroke="#e6ebf0" stroke-width="1"/>
        <path id="Trazado_24354-2" data-name="Trazado 24354" d="M-468.855,401.15c4.624-8.361,14.047-15.1,23.579-16.037-3.679,9.156-13.713,16.229-23.579,16.037" transform="translate(-14.441 -15.037)" fill="#e6ebf0" stroke="#e6ebf0" stroke-width="1"/>
        <path id="Trazado_24355-2" data-name="Trazado 24355" d="M-472.325,405.994c6.89,1.045,12.751,5.443,19.231,8.111a8.541,8.541,0,0,0,4.34.836,3.385,3.385,0,0,0,3.361-3.411,3.388,3.388,0,0,0-1.237-2.593,9.259,9.259,0,0,0-3.144-1.915c-7.015-2.918-14.532-2.993-21.915-1.221" transform="translate(-13.872 -18.234)" fill="#e6ebf0" stroke="#e6ebf0" stroke-width="1"/>
        <path id="Trazado_24356-2" data-name="Trazado 24356" d="M-477.1,411.967c1.564.452,2.09,1.254,3.345,2.308a35.881,35.881,0,0,0,14.507,7.467c.552.142,1.279.192,1.555-.309s-.059-.97-.376-1.363a20.069,20.069,0,0,0-8.788-5.962c-3.345-1.254-6.263-2.759-10.276-2.433" transform="translate(-13.084 -19.382)" fill="#e6ebf0" stroke="#e6ebf0" stroke-width="1"/>
        <path id="Trazado_24357-2" data-name="Trazado 24357" d="M-482.475,376.995a27.591,27.591,0,0,0,21.121,7.174,1.452,1.452,0,0,0,.962-.343c.527-.577-.109-1.472-.727-1.957-6.213-4.841-13.729-6.848-21.355-4.883" transform="translate(-12.209 -13.583)" fill="#e6ebf0" stroke="#e6ebf0" stroke-width="1"/>
        <path id="Trazado_24358-2" data-name="Trazado 24358" d="M-476.1,373.69a29.4,29.4,0,0,1,26.347-4.348,20.9,20.9,0,0,1-12.542,5.51,39.78,39.78,0,0,1-13.8-1.162" transform="translate(-13.255 -12.227)" fill="#e6ebf0" stroke="#e6ebf0" stroke-width="1"/>
        <path id="Trazado_24359-2" data-name="Trazado 24359" d="M-479.323,355.121c-.61-6.2-.217-11.087-.644-17.316,0-.493-.142-1.1-.61-1.271-.644-.251-1.187.543-1.4,1.2a19.876,19.876,0,0,0,2.642,17.25" transform="translate(-12.142 -7.069)" fill="#e6ebf0" stroke="#e6ebf0" stroke-width="1"/>
        <path id="Trazado_24360-2" data-name="Trazado 24360" d="M-479.165,355.775A36.422,36.422,0,0,0-468.9,345.8c2.023-2.776,3.738-6.1,3.278-9.507a9.854,9.854,0,0,0-7.408,3.679,20.7,20.7,0,0,0-3.771,7.592c-.836,2.726-1.4,5.535-2.366,8.211" transform="translate(-12.752 -7.038)" fill="#e6ebf0" stroke="#e6ebf0" stroke-width="1"/>
        <path id="Trazado_24361-2" data-name="Trazado 24361" d="M-467.126,353.2a82.762,82.762,0,0,0,25.268-14.9c-3.018-1.212-6.48-.485-9.49.736a29.7,29.7,0,0,0-15.887,14.1" transform="translate(-14.707 -7.265)" fill="#e6ebf0" stroke="#e6ebf0" stroke-width="1"/>
        <path id="Trazado_24362-2" data-name="Trazado 24362" d="M-475.745,362.212a51.879,51.879,0,0,0,14.03.075c4.624-.761,8.846-2.567,13.094-4.356a1.529,1.529,0,0,0,.886-.677,1.012,1.012,0,0,0-.318-1.12,2.636,2.636,0,0,0-1.112-.518c-4.624-1.3-9.607-.686-14.156.836a65.982,65.982,0,0,0-12.425,5.761" transform="translate(-13.312 -10.088)" fill="#e6ebf0" stroke="#e6ebf0" stroke-width="1"/>
        <path id="Trazado_24363-2" data-name="Trazado 24363" d="M-508.073,373.369a24.787,24.787,0,0,1-.226-20.536c1.931,2.952,2.166,6.689,1.814,10.209s-1.421,7.124-1.488,10.644" transform="translate(-7.631 -9.748)" fill="#e6ebf0" stroke="#e6ebf0" stroke-width="1"/>
        <path id="Trazado_24364-2" data-name="Trazado 24364" d="M-526.987,369.722a28.615,28.615,0,0,0-21.288,9.064,19.941,19.941,0,0,0,11.656-2.157,59.832,59.832,0,0,0,10.034-6.689" transform="translate(-1.427 -12.515)" fill="#e6ebf0" stroke="#e6ebf0" stroke-width="1"/>
        <path id="Trazado_24365-2" data-name="Trazado 24365" d="M-536.959,366.24c-3.888-.318-7.626-.794-11.363.351a13.592,13.592,0,0,0-8.662,7.341,20.479,20.479,0,0,0,10.652-2.015,60.4,60.4,0,0,0,9.373-5.677" transform="translate(0 -11.884)" fill="#e6ebf0" stroke="#e6ebf0" stroke-width="1"/>
        <path id="Trazado_24366-2" data-name="Trazado 24366" d="M-522.37,365.294c-3.5-2.291-7.082-4.616-11.154-5.569s-8.788-.251-11.631,2.818c3.294,1.94,7.291,2.166,11.112,2.166s8.5-.05,12.107,1.221" transform="translate(-1.938 -10.813)" fill="#e6ebf0" stroke="#e6ebf0" stroke-width="1"/>
        <path id="Trazado_24367-2" data-name="Trazado 24367" d="M-519.215,361.933c-5.97-5.853-8.236-16.413-5.853-24.44a37.2,37.2,0,0,1,5.853,24.44" transform="translate(-5.077 -7.234)" fill="#e6ebf0" stroke="#e6ebf0" stroke-width="1"/>
        <path id="Trazado_24368-2" data-name="Trazado 24368" d="M-498.225,343.024c1.129-2.626,1.915-5.368,2.926-8.035a23.319,23.319,0,0,1,4.181-7.417,11,11,0,0,1,7.4-3.83,29.8,29.8,0,0,1-14.365,19.323" transform="translate(-9.628 -4.981)" fill="#e6ebf0" stroke="#e6ebf0" stroke-width="1"/>
        <path id="Trazado_24369-2" data-name="Trazado 24369" d="M-504.775,348.879c-1.865-2.567-4.022-6.054-6.547-7.968s-5.853-3.077-8.913-2.341a20.733,20.733,0,0,0,15.46,10.31" transform="translate(-6.022 -7.374)" fill="#e6ebf0" stroke="#e6ebf0" stroke-width="1"/>
        <path id="Trazado_24370-2" data-name="Trazado 24370" d="M-501.7,343.279a44.329,44.329,0,0,1-2.943-9.54,14.98,14.98,0,0,1,1.488-9.716c3.286,6.2,4.34,12.86,1.622,19.332" transform="translate(-8.536 -5.027)" fill="#e6ebf0" stroke="#e6ebf0" stroke-width="1"/>
        <path id="Trazado_24371-2" data-name="Trazado 24371" d="M-498.2,321.451c1.865-6.146,7.525-10.669,13.571-12.751a5.025,5.025,0,0,1,2.375-.351,2.066,2.066,0,0,1,1.756,1.463c.217,1.045-.644,1.982-1.455,2.676a46.077,46.077,0,0,1-16.246,8.963" transform="translate(-9.633 -2.455)" fill="#e6ebf0" stroke="#e6ebf0" stroke-width="1"/>
        <path id="Trazado_24372-2" data-name="Trazado 24372" d="M-498.133,313.971c.242-3.963.485-7.985,1.781-11.706s3.771-7.283,7.383-8.922c.619,4.005-1.154,7.985-3.278,11.43s-4.7,6.689-5.978,10.535" transform="translate(-9.628)" fill="#e6ebf0" stroke="#e6ebf0" stroke-width="1"/>
        <path id="Trazado_24373-2" data-name="Trazado 24373" d="M-500.48,317.05c-1.539-4.473-1.672-10.167-4.381-14.072-1.873-2.726-4.875-4.582-6.488-7.475a11.359,11.359,0,0,0,.4,8.487,24.685,24.685,0,0,0,4.958,7.107c1.99,2.115,3.687,3.712,5.535,5.953" transform="translate(-7.374 -0.354)" fill="#e6ebf0" stroke="#e6ebf0" stroke-width="1"/>
        <path id="Trazado_24374-2" data-name="Trazado 24374" d="M-498.239,452.911c-.117,0-.217-29.884-.226-66.749s.084-66.749.2-66.749.217,29.875.226,66.749S-498.114,452.911-498.239,452.911Z" transform="translate(-9.589 -4.272)" fill="#e6ebf0" stroke="#e6ebf0" stroke-width="1"/>
        <path id="Trazado_24375-2" data-name="Trazado 24375" d="M-472.074,372a6.762,6.762,0,0,1-1.12.418l-3.094,1.045c-2.609.886-6.187,2.174-10.034,3.771s-7.525,2.993-9.549,4.783a7.043,7.043,0,0,0-1.923,2.508c-.293.7-.343,1.137-.385,1.129s0-.109,0-.318a4.844,4.844,0,0,1,.226-.836,6.7,6.7,0,0,1,1.806-2.7,16.434,16.434,0,0,1,4.181-2.584c1.672-.778,3.5-1.58,5.443-2.383,3.9-1.6,7.525-2.843,10.151-3.662,1.313-.41,2.391-.711,3.136-.911A6.085,6.085,0,0,1-472.074,372Z" transform="translate(-9.633 -12.889)" fill="#e6ebf0" stroke="#e6ebf0" stroke-width="1"/>
        <path id="Trazado_24376-2" data-name="Trazado 24376" d="M-463.131,346.853a2.073,2.073,0,0,1-.318.334l-.953.9-3.587,3.253-11.865,10.611c-4.649,4.139-8.671,8.094-11.455,11.07-1.4,1.488-2.508,2.726-3.244,3.587-.351.393-.635.727-.836.987a1.823,1.823,0,0,1-.326.326,1.663,1.663,0,0,1,.251-.385c.184-.234.452-.594.836-1.037.711-.895,1.773-2.166,3.144-3.679a149.219,149.219,0,0,1,11.4-11.2c4.666-4.131,8.913-7.843,12-10.519l3.671-3.144,1.012-.836A2.686,2.686,0,0,1-463.131,346.853Z" transform="translate(-10.04 -8.768)" fill="#e6ebf0" stroke="#e6ebf0" stroke-width="1"/>
        <path id="Trazado_24377-2" data-name="Trazado 24377" d="M-482.747,367.916c-.125-.05.836-2.291,1.814-5.134s1.438-5.234,1.564-5.209a17.823,17.823,0,0,1-1.154,5.351,33.7,33.7,0,0,1-1.447,3.587A5.826,5.826,0,0,1-482.747,367.916Z" transform="translate(-12.163 -10.525)" fill="#e6ebf0" stroke="#e6ebf0" stroke-width="1"/>
        <path id="Trazado_24378-2" data-name="Trazado 24378" d="M-501.55,387.306a5.237,5.237,0,0,1-.719-.836l-1.84-2.35c-1.538-2-3.671-4.749-6.062-7.759s-4.59-5.711-6.179-7.667l-1.881-2.324a5.363,5.363,0,0,1-.644-.886,5.3,5.3,0,0,1,.778.778c.477.518,1.154,1.279,1.982,2.233,1.672,1.906,3.888,4.582,6.279,7.6s4.49,5.8,5.978,7.843c.736,1.02,1.329,1.856,1.722,2.433A5.2,5.2,0,0,1-501.55,387.306Z" transform="translate(-6.245 -11.821)" fill="#e6ebf0" stroke="#e6ebf0" stroke-width="1"/>
        <path id="Trazado_24379-2" data-name="Trazado 24379" d="M-505.586,381.018a10.516,10.516,0,0,1-2.4-4.5A12.666,12.666,0,0,1-508.53,372h.192c-.092.343-.151.527-.184.518s0-.192,0-.552h.192a20.768,20.768,0,0,0,.761,4.406A34.428,34.428,0,0,0-505.586,381.018Z" transform="translate(-7.936 -12.883)" fill="#e6ebf0" stroke="#e6ebf0" stroke-width="1"/>
        <path id="Trazado_24380-2" data-name="Trazado 24380" d="M-516.38,371.3a7.782,7.782,0,0,0-1.672-.97,11.175,11.175,0,0,0-4.649-.368,28.335,28.335,0,0,0-4.682.753,12.532,12.532,0,0,1-1.932.46,6.724,6.724,0,0,1,1.848-.753,21.866,21.866,0,0,1,4.733-.895,10.172,10.172,0,0,1,4.8.518A3.037,3.037,0,0,1-516.38,371.3Z" transform="translate(-4.534 -12.469)" fill="#e6ebf0" stroke="#e6ebf0" stroke-width="1"/>
        <path id="Trazado_24381-2" data-name="Trazado 24381" d="M-519.507,368.443c0,.067-.978-.393-2.567-.936a25.757,25.757,0,0,0-12.935-.945c-1.672.3-2.651.61-2.676.535a2.549,2.549,0,0,1,.677-.293,17.524,17.524,0,0,1,1.94-.543,23.121,23.121,0,0,1,6.622-.46,22.878,22.878,0,0,1,6.48,1.463,15.923,15.923,0,0,1,1.831.836A2.348,2.348,0,0,1-519.507,368.443Z" transform="translate(-3.163 -11.862)" fill="#e6ebf0" stroke="#e6ebf0" stroke-width="1"/>
        <path id="Trazado_24382-2" data-name="Trazado 24382" d="M-498.877,355a53.543,53.543,0,0,1-1.873-6.505,52.583,52.583,0,0,1-1.455-6.605,53.448,53.448,0,0,1,1.873,6.547A52.567,52.567,0,0,1-498.877,355Z" transform="translate(-8.976 -7.955)" fill="#e6ebf0" stroke="#e6ebf0" stroke-width="1"/>
        <path id="Trazado_24383-2" data-name="Trazado 24383" d="M-499.089,356.192a31.1,31.1,0,0,0-2.074-3.9,17.112,17.112,0,0,0-3.052-3.144,2.847,2.847,0,0,1,1.179.6,9.449,9.449,0,0,1,2.224,2.3A8.529,8.529,0,0,1-499.089,356.192Z" transform="translate(-8.647 -9.143)" fill="#e6ebf0" stroke="#e6ebf0" stroke-width="1"/>
        <path id="Trazado_24384-2" data-name="Trazado 24384" d="M-503.56,451.481s-.134-.719-.468-1.99a28.486,28.486,0,0,0-2-5.176A72.822,72.822,0,0,0-516.62,429.39c-2.366-2.709-4.666-5.259-6.614-7.7a53.811,53.811,0,0,1-4.724-6.815,32.41,32.41,0,0,1-2.383-5.017c-.217-.619-.385-1.1-.468-1.447a1.974,1.974,0,0,1-.125-.518s.259.686.753,1.906a35.713,35.713,0,0,0,2.508,4.967,58.074,58.074,0,0,0,4.766,6.689c1.957,2.416,4.256,4.95,6.631,7.659a68.223,68.223,0,0,1,10.544,15.051,26.371,26.371,0,0,1,1.89,5.268c.134.652.226,1.154.259,1.5A2.346,2.346,0,0,1-503.56,451.481Z" transform="translate(-4.269 -18.77)" fill="#e6ebf0" stroke="#e6ebf0" stroke-width="1"/>
        <path id="Trazado_24385-2" data-name="Trazado 24385" d="M-474.586,428.142a11.649,11.649,0,0,1-1.237.694,27.352,27.352,0,0,0-3.211,2.115,36.559,36.559,0,0,0-4.181,3.846c-1.48,1.564-3,3.345-4.557,5.318-3.11,3.9-6.02,7.35-7.759,10.109a35.2,35.2,0,0,0-1.948,3.345,10.989,10.989,0,0,1-.686,1.246,1.945,1.945,0,0,1,.117-.351c.092-.226.217-.56.418-.97a31.425,31.425,0,0,1,1.84-3.42,108.911,108.911,0,0,1,7.676-10.209c1.564-1.948,3.1-3.771,4.607-5.326a34.938,34.938,0,0,1,4.323-3.813,21.766,21.766,0,0,1,3.345-2.023c.41-.209.744-.334.962-.426S-474.594,428.126-474.586,428.142Z" transform="translate(-9.638 -22.088)" fill="#e6ebf0" stroke="#e6ebf0" stroke-width="1"/>
        <path id="Trazado_24386-2" data-name="Trazado 24386" d="M-472.613,438.477a18.29,18.29,0,0,1-2.609.376,34.611,34.611,0,0,0-6.2,1.221,18.567,18.567,0,0,0-5.552,2.918c-1.279.987-1.881,1.806-1.94,1.756s.1-.234.385-.6a10.293,10.293,0,0,1,1.363-1.4,16.966,16.966,0,0,1,5.611-3.085,28.226,28.226,0,0,1,6.3-1.112A14.238,14.238,0,0,1-472.613,438.477Z" transform="translate(-11.152 -23.777)" fill="#e6ebf0" stroke="#e6ebf0" stroke-width="1"/>
        <path id="Trazado_24387-2" data-name="Trazado 24387" d="M-488.007,443.116c-.134-.084,1.045-1.881,1.957-4.3s1.062-4.59,1.212-4.565a4.168,4.168,0,0,1,0,1.4A15.538,15.538,0,0,1-485.6,439a16.331,16.331,0,0,1-1.522,3.035A4.368,4.368,0,0,1-488.007,443.116Z" transform="translate(-11.301 -23.09)" fill="#e6ebf0" stroke="#e6ebf0" stroke-width="1"/>
        <path id="Trazado_24388-2" data-name="Trazado 24388" d="M-466.944,400.373a1.743,1.743,0,0,1-.418.217l-1.229.56c-.535.234-1.187.527-1.923.911s-1.605.778-2.508,1.313l-1.43.836c-.493.284-.978.627-1.5.945-1.054.644-2.107,1.43-3.236,2.233a55.411,55.411,0,0,0-12.425,12.843c-.761,1.146-1.513,2.233-2.115,3.345-.309.527-.627,1.028-.895,1.53l-.761,1.455c-.51.92-.836,1.789-1.229,2.508a14.984,14.984,0,0,0-.836,1.957c-.209.544-.376.92-.518,1.246a2.094,2.094,0,0,1-.2.426,1.605,1.605,0,0,1,.125-.452c.117-.334.259-.761.435-1.279s.443-1.229.786-1.99.677-1.672,1.171-2.584c.242-.468.485-.962.744-1.472s.577-1.02.836-1.564c.594-1.087,1.338-2.182,2.1-3.345A57.31,57.31,0,0,1-486.258,413a58.533,58.533,0,0,1,6.815-5.953c1.137-.794,2.207-1.572,3.278-2.207.527-.318,1.02-.652,1.522-.928l1.455-.794c.911-.527,1.781-.9,2.508-1.263q.961-.467,1.965-.836l1.263-.485A1.827,1.827,0,0,1-466.944,400.373Z" transform="translate(-9.638 -17.538)" fill="#e6ebf0" stroke="#e6ebf0" stroke-width="1"/>
        <path id="Trazado_24389-2" data-name="Trazado 24389" d="M-483.165,414.732a3.074,3.074,0,0,1,1.028-1.53,6.453,6.453,0,0,1,4.181-1.589,11.272,11.272,0,0,1,4.356.836,6.445,6.445,0,0,1,1.672.836,10.1,10.1,0,0,1-1.748-.51,13.269,13.269,0,0,0-4.239-.711,6.782,6.782,0,0,0-3.955,1.388A14.08,14.08,0,0,0-483.165,414.732Z" transform="translate(-12.096 -19.38)" fill="#e6ebf0" stroke="#e6ebf0" stroke-width="1"/>
        <path id="Trazado_24390-2" data-name="Trazado 24390" d="M-486.5,417.251a15.559,15.559,0,0,0,1.179-3.821,15.266,15.266,0,0,0-.268-4,2.6,2.6,0,0,1,.493,1.12,7.865,7.865,0,0,1,.2,2.927,7.968,7.968,0,0,1-.836,2.8C-486.137,416.942-486.463,417.284-486.5,417.251Z" transform="translate(-11.549 -19.023)" fill="#e6ebf0" stroke="#e6ebf0" stroke-width="1"/>
        <path id="Trazado_24391-2" data-name="Trazado 24391" d="M-522.875,465.143c.644,11.422,4.08,23.036,9.382,34.783h23.019c5.017-11.631,8.253-23.228,8.821-34.783Z" transform="translate(-5.589 -28.151)" fill="#9eaab8" opacity="0.4"/>
        <path id="Trazado_24392-2" data-name="Trazado 24392" d="M-484.671,487.2c0,.125-7.584.217-16.932.217s-16.932-.092-16.932-.217,7.584-.209,16.932-.209S-484.671,487.085-484.671,487.2Z" transform="translate(-6.3 -31.732)" fill="#fafafa"/>
        <path id="Trazado_24393-2" data-name="Trazado 24393" d="M-484.882,492.15c0,.125-7.107.217-15.887.217s-15.887-.092-15.887-.217,7.107-.217,15.887-.217S-484.882,492.033-484.882,492.15Z" transform="translate(-6.608 -32.541)" fill="#fafafa"/>
        <path id="Trazado_24394-2" data-name="Trazado 24394" d="M-511.258,474.113a64.682,64.682,0,0,1,0,10.6A64.865,64.865,0,0,1-511.258,474.113Z" transform="translate(-7.457 -29.621)" fill="#fafafa"/>
        <path id="Trazado_24395-2" data-name="Trazado 24395" d="M-496.508,474.113a69.346,69.346,0,0,1,0,10.979A69.536,69.536,0,0,1-496.508,474.113Z" transform="translate(-9.874 -29.621)" fill="#fafafa"/>
        <path id="Trazado_24396-2" data-name="Trazado 24396" d="M-482.658,474a72.116,72.116,0,0,1,0,11.2A72.321,72.321,0,0,1-482.658,474Z" transform="translate(-12.144 -29.603)" fill="#fafafa"/>
        <path id="Trazado_24397-2" data-name="Trazado 24397" d="M-482.228,474.07c0,.117-8.9.217-19.858.217s-19.858-.1-19.858-.217,8.888-.217,19.858-.217S-482.228,473.953-482.228,474.07Z" transform="translate(-5.742 -29.578)" fill="#fafafa"/>
        <path id="Trazado_24398-2" data-name="Trazado 24398" d="M-270.415,475.853v5.911h36.381v-5.911h-36.381Z" transform="translate(-13.303 -29.906)" fill="#d3dae0"/>
        <path id="Trazado_24424-2" data-name="Trazado 24424" d="M-270.415,475.853v5.911h36.381v-5.911h-36.381Z" transform="translate(-13.303 -29.906)" fill="#d3dae0" style="mix-blend-mode: multiply;isolation: isolate"/>
      </g>
      <g id="freepik--background-complete--inject-197" transform="translate(163.545 47.547)" opacity="0.6">
        <rect id="Rectángulo_8973" data-name="Rectángulo 8973" width="50.674" height="73.497" transform="translate(94.442 62.921)" fill="#bfc8d1"/>
        <rect id="Rectángulo_8974" data-name="Rectángulo 8974" width="50.674" height="73.497" transform="translate(91.9 62.921)" fill="#ebeff3"/>
        <rect id="Rectángulo_8975" data-name="Rectángulo 8975" width="38.075" height="57.582" transform="translate(98.2 70.878)" fill="#fff"/>
        <path id="Trazado_24399" data-name="Trazado 24399" d="M141.475,143.358V139.1c0-2.763,0-6.8-.055-11.881,0-10.168-.055-24.536-.055-41.446l.111.111H103.4l.166-.166V143.3l-.111-.111,27.741.055,7.681.055h-7.571l-27.8.055H103.4V85.5h38.351v.276c0,16.965-.055,31.388-.055,41.556,0,5.084-.055,9.063-.055,11.826v3.924A.381.381,0,0,1,141.475,143.358Z" transform="translate(-5.145 -14.898)" fill="#e0e0e0"/>
        <path id="Trazado_24400" data-name="Trazado 24400" d="M178.352,71.6a7.908,7.908,0,0,1-.884,1.326c-.608.774-1.437,1.879-2.376,3.039s-1.824,2.155-2.487,2.929c-.332.387-.718.774-1.105,1.16a7.193,7.193,0,0,1,.995-1.271l2.431-2.984,2.431-2.984A6.845,6.845,0,0,1,178.352,71.6Z" transform="translate(-35.612 -8.679)" fill="#e0e0e0"/>
        <path id="Trazado_24401" data-name="Trazado 24401" d="M172.6,189.8a45.492,45.492,0,0,0,6.631,8.289" transform="translate(-36.105 -61.561)" fill="#fff"/>
        <path id="Trazado_24402" data-name="Trazado 24402" d="M179.231,198.144a7.11,7.11,0,0,1-1.16-1.05,30.218,30.218,0,0,1-2.487-2.818,28.584,28.584,0,0,1-2.21-3.095,11.122,11.122,0,0,1-.774-1.382,10.787,10.787,0,0,1,.939,1.271c.553.774,1.326,1.879,2.266,2.984s1.824,2.155,2.431,2.874A10.594,10.594,0,0,1,179.231,198.144Z" transform="translate(-36.105 -61.561)" fill="#e0e0e0"/>
        <path id="Trazado_24403" data-name="Trazado 24403" d="M91.9,197.879l6.631-8.179" transform="translate(0 -61.517)" fill="#fff"/>
        <path id="Trazado_24404" data-name="Trazado 24404" d="M98.531,189.6c-.995,1.437-2.1,2.818-3.205,4.2-1.05,1.382-2.21,2.708-3.426,4.034.995-1.437,2.1-2.818,3.205-4.2A47.218,47.218,0,0,1,98.531,189.6Z" transform="translate(0 -61.472)" fill="#e0e0e0"/>
        <path id="Trazado_24405" data-name="Trazado 24405" d="M91.9,71.6a42.485,42.485,0,0,1,3.205,3.868A42.21,42.21,0,0,1,98.089,79.5a42.484,42.484,0,0,1-3.205-3.868C93.834,74.363,92.839,72.982,91.9,71.6Z" transform="translate(0 -8.679)" fill="#e0e0e0"/>
        <rect id="Rectángulo_8976" data-name="Rectángulo 8976" width="12.765" height="36.251" transform="translate(111.683 82.538)" fill="#bfc8d1"/>
        <path id="Trazado_24406" data-name="Trazado 24406" d="M273.156,52.2V84.362h-46.2L225.3,52.421Z" transform="translate(-59.682 0)" fill="#d3dae0"/>
        <rect id="Rectángulo_8977" data-name="Rectángulo 8977" width="46.198" height="31.885" transform="translate(165.618 52.421)" fill="#fff"/>
        <path id="Trazado_24407" data-name="Trazado 24407" d="M271.54,84.528H224.9V52.2h46.64Zm-46.2-.442H271.1V52.642H225.342Z" transform="translate(-59.503 0)" fill="#e0e0e0"/>
        <rect id="Rectángulo_8978" data-name="Rectángulo 8978" width="36.196" height="23.983" transform="translate(170.591 56.4)" fill="#fff"/>
        <path id="Trazado_24408" data-name="Trazado 24408" d="M270.417,59.755H260.249l-26.083.111.111-.111V83.738h0l-.111-.111h36.2l-.111.111c0-7.294.055-13.263.055-17.462V60.2c0-.276.055-.442.111-.442-.055,0-.055.111-.055.387v6.079c0,4.2,0,10.168.055,17.518v.111H234v-.111h0V59.7h.111l26.138.055,7.46.055h2.653Z" transform="translate(-63.575 -3.355)" fill="#e0e0e0"/>
        <path id="Trazado_24409" data-name="Trazado 24409" d="M225.3,52.5a3.706,3.706,0,0,1,.774.5c.5.332,1.105.829,1.824,1.382a18.306,18.306,0,0,1,1.713,1.492l.663.663a28.7,28.7,0,0,1-2.542-1.989A28.02,28.02,0,0,1,225.3,52.5Z" transform="translate(-59.682 -0.134)" fill="#e0e0e0"/>
        <path id="Trazado_24410" data-name="Trazado 24410" d="M304.829,52.6a22.1,22.1,0,0,1-2.431,2.1,22.22,22.22,0,0,1-2.6,1.879,22.1,22.1,0,0,1,2.431-2.1A28.108,28.108,0,0,1,304.829,52.6Z" transform="translate(-93.013 -0.179)" fill="#e0e0e0"/>
        <path id="Trazado_24411" data-name="Trazado 24411" d="M304.739,106.9l-5.139-4.2" transform="translate(-92.924 -22.593)" fill="#fff"/>
        <path id="Trazado_24412" data-name="Trazado 24412" d="M299.5,102.8a23.71,23.71,0,0,1,2.653,1.989,23.179,23.179,0,0,1,2.487,2.155,23.716,23.716,0,0,1-2.652-1.989A30.177,30.177,0,0,1,299.5,102.8Z" transform="translate(-92.879 -22.638)" fill="#e0e0e0"/>
        <path id="Trazado_24413" data-name="Trazado 24413" d="M225.3,107.124a21.634,21.634,0,0,1,2.431-2.045,27.381,27.381,0,0,1,2.542-1.879,21.633,21.633,0,0,1-2.431,2.045A20.071,20.071,0,0,1,225.3,107.124Z" transform="translate(-59.682 -22.817)" fill="#e0e0e0"/>
        <rect id="Rectángulo_8979" data-name="Rectángulo 8979" width="22.767" height="8.013" transform="translate(177.941 63.86)" fill="#bfc8d1"/>
        <path id="Trazado_24414" data-name="Trazado 24414" d="M621.165,313.066s-4.145-1.934-7.4,7.792a114.679,114.679,0,0,0-4.2,15.2s-.939,2.1-2.431,1.05-3.813-4.31-5.913-3.316-2.6,3.647-1.547,7.35,2.874,11.881,3.039,12.6-.111,1.879-1.216,1.326-8.013-6.189-10.5-2.818,1.989,13.263,2.432,14.313.332,1.6-.166,1.934-2.6-1.768-4.642-3.316-4.642-2.929-5.913-.884-.608,9.892,8.621,21.275l4.587,5.029,6.687-1.382c14.147-3.868,19.286-9.726,19.452-12.213s-2.763-2.818-5.25-2.763-5.471.553-5.692-.055,0-1.105.995-1.658,10.389-5.968,10.389-10.168-8.9-3.647-10.113-3.868-.774-1.326-.221-1.768,6.908-6.023,9.892-8.4,4.255-4.808,3.039-6.908-4.918-.774-6.742-.774-1.382-2.266-1.382-2.266a117.714,117.714,0,0,0,5.526-14.81c3.095-9.836-1.547-10.665-1.547-10.665" transform="translate(-294.363 -171.635)" fill="#f5f5f5"/>
        <path id="Trazado_24415" data-name="Trazado 24415" d="M605.5,399.2c2.266-7.184,6.576-19.894,10.168-30.78s6.908-20.778,9.229-27.962c1.161-3.592,2.1-6.466,2.763-8.51.332-.995.553-1.768.774-2.321.11-.276.166-.442.221-.608a.872.872,0,0,0,.055-.221.872.872,0,0,1-.055.221,4.49,4.49,0,0,0-.166.608c-.166.553-.387,1.326-.718,2.321-.608,1.989-1.547,4.918-2.652,8.51-2.266,7.184-5.526,17.076-9.118,27.962s-7.9,23.6-10.223,30.78" transform="translate(-304.781 -178.749)" fill="#e0e0e0"/>
        <path id="Trazado_24416" data-name="Trazado 24416" d="M622.1,359.1a1.111,1.111,0,0,1,.221.442c.166.276.332.718.553,1.216.442,1.05,1.105,2.487,1.713,4.089s1.216,3.039,1.658,4.089c.166.5.387.884.5,1.271.055.166.111.276.166.442a1.11,1.11,0,0,1-.221-.442c-.166-.276-.332-.718-.553-1.216-.442-1.05-1.05-2.487-1.713-4.089s-1.216-2.984-1.658-4.089l-.5-1.271A3.818,3.818,0,0,1,622.1,359.1Z" transform="translate(-312.208 -192.305)" fill="#e0e0e0"/>
        <path id="Trazado_24417" data-name="Trazado 24417" d="M632,375.167c0-.055,2.874-1.437,6.521-3.095s6.576-2.929,6.631-2.874-2.874,1.437-6.521,3.095S632,375.222,632,375.167Z" transform="translate(-316.637 -196.822)" fill="#e0e0e0"/>
        <path id="Trazado_24418" data-name="Trazado 24418" d="M620.5,407.976a1.614,1.614,0,0,1,.5-.111l1.382-.221c1.16-.166,2.708-.387,4.421-.718s3.26-.663,4.421-.939l1.326-.276c.166-.055.332-.055.5-.111l-.5.166c-.332.111-.774.221-1.326.387-1.105.276-2.653.663-4.421.995s-3.316.553-4.476.663c-.553.055-1.05.111-1.382.111A1.078,1.078,0,0,1,620.5,407.976Z" transform="translate(-311.492 -213.109)" fill="#e0e0e0"/>
        <path id="Trazado_24419" data-name="Trazado 24419" d="M607.4,392.9l.332.332.829.995c.663.829,1.6,1.989,2.6,3.26s1.934,2.431,2.6,3.316l.774.995c.111.111.166.276.276.387l-.332-.332-.829-.995c-.663-.829-1.6-1.989-2.6-3.26s-1.934-2.431-2.542-3.316l-.774-.995A1.125,1.125,0,0,1,607.4,392.9Z" transform="translate(-305.631 -207.427)" fill="#e0e0e0"/>
        <path id="Trazado_24420" data-name="Trazado 24420" d="M594,418a1.49,1.49,0,0,1,.387.442c.276.332.608.718,1.05,1.216.884,1.05,2.1,2.487,3.371,4.145s2.487,3.095,3.316,4.2l.995,1.271.332.5a1.489,1.489,0,0,1-.387-.442l-1.05-1.216c-.884-1.05-2.1-2.487-3.371-4.145s-2.487-3.095-3.316-4.2c-.387-.5-.718-.939-.995-1.271Z" transform="translate(-299.636 -218.656)" fill="#e0e0e0"/>
        <path id="Trazado_24421" data-name="Trazado 24421" d="M611,435.781c.221-.055.387-.111.608-.166l1.713-.332c1.437-.276,3.426-.663,5.637-1.105s4.145-.939,5.581-1.326l1.658-.442a2.35,2.35,0,0,1,.608-.111,2.7,2.7,0,0,1-.608.221q-.58.166-1.658.5c-1.437.387-3.371.884-5.581,1.382s-4.2.829-5.637,1.05c-.718.111-1.326.221-1.713.276A1.1,1.1,0,0,1,611,435.781Z" transform="translate(-307.242 -225.054)" fill="#e0e0e0"/>
      </g>
      <rect id="Rectángulo_8981" data-name="Rectángulo 8981" width="298" height="16" rx="8" transform="translate(86 191)" fill="#9eaab8"/>
      <rect id="Rectángulo_8983" data-name="Rectángulo 8983" width="338" height="16" rx="8" transform="translate(86 163)" fill="#9eaab8"/>
      <rect id="Rectángulo_8982" data-name="Rectángulo 8982" width="69" height="8" rx="4" transform="translate(86 133)" fill="#9eaab8"/>
      <g transform="matrix(1, 0, 0, 1, 0, 0)" filter="url(#Rectángulo_9022)">
        <rect id="Rectángulo_9022-2" data-name="Rectángulo 9022" width="155" height="138" rx="12" transform="translate(576 100)" fill="#fff"/>
      </g>
      <path id="Polígono_3" data-name="Polígono 3" d="M17.673,7.474a5,5,0,0,1,8.654,0L39.655,30.495A5,5,0,0,1,35.328,38H8.672a5,5,0,0,1-4.327-7.505Z" transform="translate(632 120)" fill="#9eaab8"/>
      <path id="Trazado_24425" data-name="Trazado 24425" d="M2550,5607.854v-9.333" transform="translate(-1896 -5461.728)" fill="none" stroke="#fff" stroke-linecap="round" stroke-width="4"/>
      <circle id="Elipse_5" data-name="Elipse 5" cx="2" cy="2" r="2" transform="translate(652 150)" fill="#fff"/>
      <rect id="Rectángulo_9024" data-name="Rectángulo 9024" width="69" height="8" rx="4" transform="translate(620 177)" fill="#e6ebf0"/>
      <rect id="Rectángulo_9026" data-name="Rectángulo 9026" width="69" height="8" rx="4" transform="translate(620 207)" fill="#e6ebf0"/>
      <rect id="Rectángulo_9025" data-name="Rectángulo 9025" width="91" height="8" rx="4" transform="translate(609 192)" fill="#e6ebf0"/>
    </g>
  </g>
</svg>
