<svg xmlns="http://www.w3.org/2000/svg" xmlns:xlink="http://www.w3.org/1999/xlink" width="822" height="466" viewBox="0 0 822 466">
  <defs>
    <clipPath id="clip-igualdad">
      <rect width="822" height="466"/>
    </clipPath>
  </defs>
  <g id="igualdad" clip-path="url(#clip-igualdad)">
    <rect width="822" height="466" fill="#fff"/>
    <g id="Grupo_17833" data-name="Grupo 17833">
      <text id="_Text_H6_Selected_On_Surface_High_Emphasis_Left" data-name="✱ / Text / H6 / Selected / On Surface / High Emphasis / Left" transform="translate(62 69)" fill="#38485c" font-size="16" font-family="OpenSans-Regular, Open Sans"><tspan x="0" y="17">La mente humana reconoce y agrupa rápidamente aquellos elementos que tienen algún tipo </tspan><tspan x="0" y="41">de característica común (la misma figura, el mismo color, etc).</tspan></text>
      <g id="Grupo_17822" data-name="Grupo 17822" transform="translate(-511.244 -2813)">
        <g id="Grupo_17820" data-name="Grupo 17820" transform="translate(716.17 3167.304) rotate(-30)">
          <g id="Polígono_2" data-name="Polígono 2" transform="translate(10) rotate(90)" fill="#38485c">
            <path d="M 10.23381042480469 9 L 1.766190052032471 9 L 6 1.943650007247925 L 10.23381042480469 9 Z" stroke="none"/>
            <path d="M 6 3.887306690216064 L 3.532383918762207 8 L 8.467616081237793 8 L 6 3.887306690216064 M 6 0 L 12 10 L 0 10 L 6 0 Z" stroke="none" fill="#38485c"/>
          </g>
        </g>
        <g id="Grupo_17821" data-name="Grupo 17821" transform="translate(1178.292 3026.331) rotate(-60)">
          <g id="Polígono_2-2" data-name="Polígono 2" transform="translate(10 0) rotate(90)" fill="#38485c">
            <path d="M 10.23381042480469 9 L 1.766190052032471 9 L 6 1.943650007247925 L 10.23381042480469 9 Z" stroke="none"/>
            <path d="M 6 3.887306690216064 L 3.532383918762207 8 L 8.467616081237793 8 L 6 3.887306690216064 M 6 0 L 12 10 L 0 10 L 6 0 Z" stroke="none" fill="#38485c"/>
          </g>
        </g>
        <path id="Trazado_24422" data-name="Trazado 24422" d="M0,0S31.494,304.493,312.316,370.457" transform="matrix(0.391, -0.921, 0.921, 0.391, 720.845, 3171.133)" fill="none" stroke="#38485c" stroke-width="2" stroke-dasharray="4 8"/>
      </g>
      <g id="Grupo_17823" data-name="Grupo 17823" transform="translate(-454 -2818)">
        <rect id="Rectángulo_8999" data-name="Rectángulo 8999" width="101" height="26" rx="13" transform="translate(1091 2967)" fill="#9eaab8"/>
        <rect id="Rectángulo_8996" data-name="Rectángulo 8996" width="255" height="19" rx="9.5" transform="translate(516 3052)" fill="#e6ebf0"/>
        <rect id="Rectángulo_8994" data-name="Rectángulo 8994" width="213" height="18" rx="9" transform="translate(516 3112)" fill="#e6ebf0"/>
        <rect id="Rectángulo_8995" data-name="Rectángulo 8995" width="286" height="18" rx="9" transform="translate(516 3082)" fill="#e6ebf0"/>
        <rect id="Rectángulo_8997" data-name="Rectángulo 8997" width="69" height="8" rx="4" transform="translate(516 3027)" fill="#e6ebf0"/>
        <rect id="Rectángulo_9000" data-name="Rectángulo 9000" width="69" height="8" rx="4" transform="translate(993 2975)" fill="#e6ebf0"/>
        <rect id="Rectángulo_9001" data-name="Rectángulo 9001" width="69" height="8" rx="4" transform="translate(895 2975)" fill="#e6ebf0"/>
        <rect id="Rectángulo_9002" data-name="Rectángulo 9002" width="69" height="8" rx="4" transform="translate(797 2975)" fill="#e6ebf0"/>
        <line id="Línea_355" data-name="Línea 355" x2="709.085" transform="translate(516.415 3005.265)" fill="none" stroke="#e6ebf0" stroke-width="1"/>
        <g id="Grupo_17819" data-name="Grupo 17819" transform="translate(375 2888.291)">
          <g id="Grupo_102" data-name="Grupo 102" transform="translate(141 77.181)">
            <path id="Trazado_230" data-name="Trazado 230" d="M175.052,190.172h0a5.135,5.135,0,0,0-4.593,2.836l-6.909,13.349a6.874,6.874,0,0,0-3.486-3.031,6.6,6.6,0,0,0-.836-11.214,13.4,13.4,0,0,0-6.262-1.539H142.629a3.838,3.838,0,0,0-3.842,3.834v19.236a3.838,3.838,0,0,0,3.837,3.839H153.8a15.364,15.364,0,0,0,6.066-1.242l.708-.342c.041-.019.079-.04.116-.06a3.838,3.838,0,0,0,6.785-.392,2.037,2.037,0,0,1,1.782-1.238H180.84a2.04,2.04,0,0,1,1.783,1.238,3.839,3.839,0,0,0,7.336-1.581,3.78,3.78,0,0,0-.5-1.889l-9.815-18.966a5.137,5.137,0,0,0-4.6-2.836Z" transform="translate(-138.787 -190.172)" fill="#e6ebf0"/>
          </g>
        </g>
        <text id="_Text_H6_Selected_On_Surface_High_Emphasis_Left-2" data-name="✱ / Text / H6 / Selected / On Surface / High Emphasis / Left" transform="translate(1105 2985)" fill="#fff" font-size="13" font-family="OpenSans-Regular, Open Sans"><tspan x="0" y="0">Registrarme</tspan></text>
        <rect id="Rectángulo_9003" data-name="Rectángulo 9003" width="101" height="26" rx="13" transform="translate(516 3152)" fill="#9eaab8"/>
        <text id="_Text_H6_Selected_On_Surface_High_Emphasis_Left-3" data-name="✱ / Text / H6 / Selected / On Surface / High Emphasis / Left" transform="translate(530 3170)" fill="#fff" font-size="13" font-family="OpenSans-Regular, Open Sans"><tspan x="0" y="0">Registrarme</tspan></text>
      </g>
    </g>
  </g>
</svg>
