<?xml version="1.0" encoding="UTF-8"?>
<svg id="Capa_1" data-name="Capa 1" xmlns="http://www.w3.org/2000/svg" xmlns:xlink="http://www.w3.org/1999/xlink" viewBox="0 0 714.42 258">
  <defs>
    <style>
      .cls-1 {
        fill: #fff;
      }

      .cls-2 {
        fill: #f3f6f9;
      }

      .cls-3 {
        clip-path: url(#clippath-1);
      }

      .cls-4 {
        fill: #007bc7;
      }

      .cls-5 {
        fill: #38485c;
      }

      .cls-6, .cls-7, .cls-8 {
        fill: none;
      }

      .cls-7 {
        clip-path: url(#clippath);
      }

      .cls-8 {
        stroke: #d1d8e0;
        stroke-width: 2px;
      }
    </style>
    <clipPath id="clippath">
      <polygon class="cls-6" points="3 3 4 3 3 4 3 3"/>
    </clipPath>
    <clipPath id="clippath-1">
      <polygon class="cls-7" points="1 1 0 1 1 0 1 1"/>
    </clipPath>
  </defs>
  <path class="cls-1" d="m2.42,10C2.42,5.58,6,2,10.42,2h696c4.42,0,8,3.58,8,8v248H2.42V10Z"/>
  <path class="cls-2" d="m2,10C2,5.58,5.58,2,10,2h696c4.42,0,8,3.58,8,8v148H2V10Z"/>
  <path class="cls-5" d="m78.3,140.09c-.23,0-.41-.07-.54-.2-.13-.14-.2-.33-.2-.56v-11.3c0-.22.07-.39.2-.52.14-.13.33-.2.56-.2h4.27c1.33,0,2.36.32,3.1.97.74.65,1.12,1.57,1.12,2.75s-.37,2.11-1.12,2.77c-.74.66-1.78.99-3.1.99h-3.55v4.54c0,.23-.07.41-.2.56-.13.13-.31.2-.54.2Zm4.14-6.52c1.93,0,2.9-.85,2.9-2.54s-.97-2.5-2.9-2.5h-3.4v5.04h3.4Zm13.01,4.39c.13,0,.25.05.34.16.1.11.14.25.14.41,0,.3-.21.58-.63.83-.43.25-.89.44-1.37.58-.48.12-.95.18-1.4.18-1.36,0-2.43-.4-3.22-1.21-.78-.8-1.17-1.91-1.17-3.33,0-.9.17-1.69.52-2.38.35-.7.83-1.24,1.46-1.62.64-.38,1.36-.58,2.16-.58,1.14,0,2.05.37,2.72,1.12.67.74,1.01,1.75,1.01,3.02,0,.24-.05.41-.14.52-.1.11-.25.16-.47.16h-5.8c.11,2.06,1.09,3.1,2.93,3.1.47,0,.87-.06,1.21-.18.34-.13.7-.31,1.08-.52.31-.18.52-.27.63-.27Zm-3.15-5.81c-.77,0-1.39.24-1.85.72-.46.48-.73,1.16-.81,2.03h5.09c-.02-.89-.25-1.57-.67-2.03-.42-.48-1.01-.72-1.76-.72Zm8.81,7.97c-.55,0-1.08-.07-1.58-.2-.49-.13-.93-.32-1.31-.56-.22-.14-.37-.28-.47-.4-.08-.13-.13-.29-.13-.47,0-.16.04-.28.13-.38.1-.11.22-.16.36-.16s.35.09.63.27c.36.22.71.39,1.06.52.36.12.8.18,1.33.18.65,0,1.15-.11,1.51-.34.36-.23.54-.56.54-.99,0-.26-.07-.47-.2-.63-.13-.17-.36-.31-.68-.43-.32-.13-.8-.26-1.42-.4-1.06-.23-1.81-.53-2.27-.92-.46-.38-.68-.91-.68-1.57,0-.52.14-.97.43-1.37.29-.4.68-.71,1.19-.94.52-.23,1.1-.34,1.75-.34.47,0,.92.07,1.35.2.44.12.83.29,1.17.52.41.29.61.59.61.9,0,.16-.05.29-.14.4s-.21.16-.34.16c-.14,0-.36-.1-.65-.31-.34-.22-.65-.38-.95-.5-.3-.12-.67-.18-1.12-.18-.56,0-1.02.13-1.37.38-.34.25-.5.59-.5,1.01,0,.26.06.48.18.65.13.16.34.3.63.43.3.12.73.24,1.28.36.82.18,1.45.38,1.89.59.46.22.78.48.97.79.19.31.29.71.29,1.19,0,.76-.32,1.37-.95,1.84-.64.46-1.48.68-2.52.68Zm9.66-1.19c.42.04.63.23.63.58,0,.2-.08.36-.23.47-.14.1-.37.13-.67.11l-.49-.04c-.96-.07-1.67-.36-2.12-.86s-.68-1.27-.68-2.29v-4.52h-1.21c-.2,0-.37-.05-.49-.14-.11-.11-.16-.25-.16-.41,0-.18.05-.32.16-.43.12-.11.28-.16.49-.16h1.21v-2.03c0-.23.07-.4.2-.52.13-.13.31-.2.54-.2.22,0,.39.07.52.2.13.12.2.29.2.52v2.03h2c.19,0,.34.05.45.16.12.11.18.25.18.43,0,.17-.06.31-.18.41-.11.1-.26.14-.45.14h-2v4.59c0,.66.13,1.14.4,1.44.28.29.68.45,1.22.49l.49.04Zm5.65-7.92c2.2,0,3.29,1.15,3.29,3.46v4.9c0,.22-.07.39-.2.52-.12.13-.29.2-.5.2s-.39-.07-.52-.2c-.13-.13-.2-.31-.2-.52v-.86c-.23.52-.58.92-1.04,1.21-.47.28-1.01.41-1.62.41-.56,0-1.09-.11-1.57-.34-.47-.23-.84-.55-1.12-.95s-.41-.86-.41-1.35c0-.66.17-1.17.5-1.53.34-.37.89-.64,1.66-.79.77-.17,1.84-.25,3.2-.25h.4v-.59c0-.72-.15-1.25-.45-1.58-.29-.34-.76-.5-1.42-.5-.82,0-1.64.22-2.48.67-.32.2-.55.31-.68.31-.14,0-.26-.05-.36-.16s-.14-.25-.14-.41.05-.31.14-.43c.11-.13.28-.26.5-.4.42-.24.89-.43,1.42-.56.54-.14,1.07-.22,1.6-.22Zm-.59,7.96c.72,0,1.31-.24,1.76-.72.47-.49.7-1.12.7-1.89v-.52h-.32c-1.06,0-1.86.05-2.41.14-.55.08-.95.23-1.19.45-.23.2-.34.51-.34.92,0,.47.17.86.5,1.17.35.3.78.45,1.3.45Zm10.97-7.96c2.1,0,3.15,1.16,3.15,3.47v4.88c0,.23-.07.41-.2.54-.12.12-.29.18-.52.18s-.41-.06-.54-.18c-.13-.13-.2-.31-.2-.54v-4.79c0-.82-.16-1.41-.49-1.78-.31-.37-.82-.56-1.51-.56-.8,0-1.45.25-1.93.74-.48.49-.72,1.16-.72,2v4.39c0,.23-.07.41-.2.54-.12.12-.29.18-.52.18s-.41-.06-.54-.18c-.13-.13-.2-.31-.2-.54v-7.6c0-.22.07-.39.2-.52.13-.13.31-.2.54-.2.22,0,.38.07.5.2.13.13.2.3.2.5v.92c.29-.54.69-.95,1.21-1.22.52-.29,1.1-.43,1.76-.43Zm.65-1.64c-.23,0-.45-.05-.67-.16-.22-.11-.47-.26-.77-.47-.26-.17-.47-.29-.63-.36-.16-.08-.3-.13-.43-.13-.2,0-.37.05-.49.16-.11.11-.22.26-.32.45-.08.13-.16.23-.22.31-.06.06-.13.09-.22.09-.11,0-.2-.04-.27-.13-.07-.08-.11-.19-.11-.32,0-.22.07-.46.2-.72.13-.26.32-.49.56-.68.24-.19.51-.29.81-.29.23,0,.45.05.67.16.22.11.47.26.77.47.26.17.47.29.63.38.16.07.3.11.43.11.19,0,.34-.05.45-.16.12-.11.24-.26.36-.45.08-.14.16-.25.22-.31.06-.07.13-.11.22-.11.11,0,.2.05.27.14.07.08.11.19.11.32,0,.2-.07.44-.2.72-.13.26-.32.49-.56.68-.24.19-.51.29-.81.29Zm8.75,1.64c2.2,0,3.29,1.15,3.29,3.46v4.9c0,.22-.07.39-.2.52-.12.13-.29.2-.5.2s-.39-.07-.52-.2c-.13-.13-.2-.31-.2-.52v-.86c-.23.52-.58.92-1.04,1.21-.47.28-1.01.41-1.62.41-.56,0-1.09-.11-1.57-.34-.47-.23-.84-.55-1.12-.95s-.41-.86-.41-1.35c0-.66.17-1.17.5-1.53.34-.37.89-.64,1.66-.79.77-.17,1.84-.25,3.2-.25h.4v-.59c0-.72-.15-1.25-.45-1.58-.29-.34-.76-.5-1.42-.5-.82,0-1.64.22-2.48.67-.32.2-.55.31-.68.31-.14,0-.26-.05-.36-.16-.1-.11-.14-.25-.14-.41s.05-.31.14-.43c.11-.13.28-.26.5-.4.42-.24.89-.43,1.42-.56.54-.14,1.07-.22,1.6-.22Zm-.59,7.96c.72,0,1.31-.24,1.76-.72.47-.49.7-1.12.7-1.89v-.52h-.32c-1.06,0-1.86.05-2.41.14-.55.08-.95.23-1.19.45-.23.2-.34.51-.34.92,0,.47.17.86.5,1.17.35.3.78.45,1.3.45Zm15.61-7.96c.77,0,1.45.19,2.03.58.59.38,1.04.92,1.37,1.62.32.68.49,1.48.49,2.39s-.16,1.71-.49,2.39c-.32.67-.78,1.19-1.37,1.57-.58.37-1.25.56-2.03.56-.68,0-1.28-.15-1.8-.45-.5-.3-.89-.73-1.15-1.28v4.23c0,.22-.07.38-.2.5-.12.13-.29.2-.52.2s-.41-.07-.54-.2c-.13-.13-.2-.3-.2-.5v-10.85c0-.22.07-.39.2-.52.13-.13.31-.2.54-.2s.4.07.52.2c.13.13.2.31.2.52v.97c.26-.55.65-.98,1.15-1.28.52-.3,1.12-.45,1.8-.45Zm-.29,7.9c.85,0,1.51-.29,1.98-.86s.7-1.39.7-2.45-.23-1.88-.7-2.47c-.47-.6-1.13-.9-1.98-.9s-1.51.29-1.98.86c-.46.58-.68,1.4-.68,2.47s.23,1.9.68,2.48c.47.58,1.13.86,1.98.86Zm10.69-7.87c.5-.04.76.17.76.61,0,.19-.05.35-.16.47-.11.11-.29.17-.56.2l-.54.05c-.8.07-1.4.36-1.8.86-.38.49-.58,1.07-.58,1.75v4.37c0,.24-.07.42-.2.54-.13.12-.31.18-.52.18s-.4-.06-.54-.18c-.13-.13-.2-.31-.2-.54v-7.6c0-.23.07-.4.22-.52.14-.13.32-.2.52-.2.19,0,.35.07.49.2.13.12.2.29.2.5v1.01c.25-.53.61-.93,1.06-1.21.47-.28,1-.44,1.6-.49l.25-.02Zm8.62,6.91c.13,0,.25.05.34.16.1.11.14.25.14.41,0,.3-.21.58-.63.83-.43.25-.89.44-1.37.58-.48.12-.95.18-1.4.18-1.36,0-2.43-.4-3.22-1.21-.78-.8-1.17-1.91-1.17-3.33,0-.9.17-1.69.52-2.38.35-.7.83-1.24,1.46-1.62.64-.38,1.36-.58,2.16-.58,1.14,0,2.05.37,2.72,1.12s1.01,1.75,1.01,3.02c0,.24-.05.41-.14.52-.1.11-.25.16-.47.16h-5.8c.11,2.06,1.09,3.1,2.93,3.1.47,0,.87-.06,1.21-.18.34-.13.7-.31,1.08-.52.31-.18.52-.27.63-.27Zm-3.15-5.81c-.77,0-1.39.24-1.85.72-.46.48-.73,1.16-.81,2.03h5.09c-.02-.89-.25-1.57-.67-2.03-.42-.48-1.01-.72-1.76-.72Zm12.89-4.93c.23,0,.41.07.54.2.13.13.2.3.2.5v11.45c0,.22-.07.39-.2.52-.13.13-.31.2-.54.2s-.41-.07-.54-.2c-.12-.13-.18-.31-.18-.52v-.97c-.26.55-.65.98-1.17,1.28-.5.3-1.1.45-1.78.45-.77,0-1.45-.19-2.03-.58s-1.04-.92-1.37-1.6c-.32-.7-.49-1.5-.49-2.41s.16-1.69.49-2.38c.32-.68.78-1.21,1.37-1.58.59-.37,1.27-.56,2.03-.56.68,0,1.28.15,1.78.45.52.3.91.73,1.17,1.28v-4.82c0-.22.06-.38.18-.5.13-.13.31-.2.54-.2Zm-3.38,11.7c.85,0,1.51-.29,1.96-.86.47-.59.7-1.42.7-2.48s-.23-1.89-.7-2.47c-.46-.58-1.11-.86-1.96-.86s-1.52.29-2,.86c-.47.58-.7,1.39-.7,2.43s.23,1.9.7,2.5c.48.59,1.15.88,2,.88Zm13.61-.95c.13,0,.25.05.34.16.1.11.14.25.14.41,0,.3-.21.58-.63.83-.43.25-.89.44-1.37.58-.48.12-.95.18-1.4.18-1.36,0-2.43-.4-3.22-1.21-.78-.8-1.17-1.91-1.17-3.33,0-.9.17-1.69.52-2.38.35-.7.83-1.24,1.46-1.62.64-.38,1.36-.58,2.16-.58,1.14,0,2.05.37,2.72,1.12s1.01,1.75,1.01,3.02c0,.24-.05.41-.14.52-.1.11-.25.16-.47.16h-5.8c.11,2.06,1.09,3.1,2.93,3.1.47,0,.87-.06,1.21-.18.34-.13.7-.31,1.08-.52.31-.18.52-.27.63-.27Zm-3.15-5.81c-.77,0-1.39.24-1.85.72-.46.48-.73,1.16-.81,2.03h5.09c-.02-.89-.25-1.57-.67-2.03-.42-.48-1.01-.72-1.76-.72Zm9.85,6.79c.42.04.63.23.63.58,0,.2-.08.36-.23.47-.14.1-.37.13-.67.11l-.49-.04c-.96-.07-1.67-.36-2.12-.86s-.68-1.27-.68-2.29v-4.52h-1.21c-.2,0-.37-.05-.49-.14-.11-.11-.16-.25-.16-.41,0-.18.05-.32.16-.43.12-.11.28-.16.49-.16h1.21v-2.03c0-.23.07-.4.2-.52.13-.13.31-.2.54-.2.22,0,.39.07.52.2.13.12.2.29.2.52v2.03h2c.19,0,.34.05.45.16.12.11.18.25.18.43,0,.17-.06.31-.18.41-.11.1-.26.14-.45.14h-2v4.59c0,.66.13,1.14.4,1.44.28.29.68.45,1.22.49l.49.04Zm8.85-.97c.13,0,.25.05.34.16.1.11.14.25.14.41,0,.3-.21.58-.63.83-.43.25-.89.44-1.37.58-.48.12-.95.18-1.4.18-1.36,0-2.43-.4-3.22-1.21-.78-.8-1.17-1.91-1.17-3.33,0-.9.17-1.69.52-2.38.35-.7.83-1.24,1.46-1.62.64-.38,1.36-.58,2.16-.58,1.14,0,2.05.37,2.72,1.12.67.74,1.01,1.75,1.01,3.02,0,.24-.05.41-.14.52-.1.11-.25.16-.47.16h-5.8c.11,2.06,1.09,3.1,2.93,3.1.47,0,.87-.06,1.21-.18.34-.13.7-.31,1.08-.52.31-.18.52-.27.63-.27Zm-3.15-5.81c-.77,0-1.39.24-1.85.72-.46.48-.73,1.16-.81,2.03h5.09c-.02-.89-.25-1.57-.67-2.03-.42-.48-1.01-.72-1.76-.72Zm10.19-1.1c.5-.04.76.17.76.61,0,.19-.05.35-.16.47-.11.11-.29.17-.56.2l-.54.05c-.8.07-1.4.36-1.8.86-.38.49-.58,1.07-.58,1.75v4.37c0,.24-.07.42-.2.54-.13.12-.31.18-.52.18s-.4-.06-.54-.18c-.13-.13-.2-.31-.2-.54v-7.6c0-.23.07-.4.22-.52.14-.13.32-.2.52-.2.19,0,.35.07.49.2.13.12.2.29.2.5v1.01c.25-.53.61-.93,1.06-1.21.47-.28,1-.44,1.6-.49l.25-.02Zm11.76-.04c1.94,0,2.92,1.16,2.92,3.47v4.88c0,.23-.07.41-.2.54-.13.12-.31.18-.52.18s-.4-.06-.54-.18c-.13-.13-.2-.31-.2-.54v-4.84c0-.8-.14-1.39-.43-1.75-.29-.36-.74-.54-1.35-.54-.73,0-1.31.25-1.73.74-.42.49-.63,1.16-.63,2v4.39c0,.23-.07.41-.22.54-.13.12-.31.18-.52.18s-.39-.06-.52-.18c-.13-.13-.2-.31-.2-.54v-4.84c0-.8-.14-1.39-.43-1.75-.29-.36-.74-.54-1.37-.54-.72,0-1.3.25-1.73.74-.42.49-.63,1.16-.63,2v4.39c0,.23-.07.41-.2.54-.13.12-.31.18-.52.18s-.4-.06-.54-.18c-.13-.13-.2-.31-.2-.54v-7.6c0-.22.07-.39.2-.52.14-.13.32-.2.54-.2.2,0,.37.07.5.2.13.12.2.29.2.5v.86c.26-.52.63-.91,1.1-1.19.47-.28,1.01-.41,1.62-.41,1.37,0,2.26.58,2.68,1.73.25-.53.64-.95,1.15-1.26.52-.31,1.1-.47,1.76-.47Zm6.31,9.07c-.22,0-.4-.06-.54-.18-.13-.13-.2-.31-.2-.54v-7.6c0-.23.07-.4.2-.52.14-.13.32-.2.54-.2s.39.07.52.2c.13.12.2.29.2.52v7.6c0,.24-.07.42-.2.54-.13.12-.31.18-.52.18Zm0-10.93c-.29,0-.52-.08-.7-.25-.18-.17-.27-.39-.27-.67s.09-.48.27-.65c.18-.17.41-.25.7-.25s.52.08.7.25c.18.17.27.38.27.65s-.09.5-.27.67c-.18.17-.41.25-.7.25Zm7.86,1.85c2.1,0,3.15,1.16,3.15,3.47v4.88c0,.23-.07.41-.2.54-.12.12-.29.18-.52.18s-.41-.06-.54-.18c-.13-.13-.2-.31-.2-.54v-4.79c0-.82-.16-1.41-.49-1.78-.31-.37-.82-.56-1.51-.56-.8,0-1.45.25-1.93.74-.48.49-.72,1.16-.72,2v4.39c0,.23-.07.41-.2.54-.12.12-.29.18-.52.18s-.41-.06-.54-.18c-.13-.13-.2-.31-.2-.54v-7.6c0-.22.07-.39.2-.52.13-.13.31-.2.54-.2.22,0,.38.07.5.2.13.13.2.3.2.5v.92c.29-.54.69-.95,1.21-1.22.52-.29,1.1-.43,1.76-.43Zm9.4,0c2.2,0,3.29,1.15,3.29,3.46v4.9c0,.22-.07.39-.2.52-.12.13-.29.2-.5.2s-.39-.07-.52-.2-.2-.31-.2-.52v-.86c-.23.52-.58.92-1.04,1.21-.47.28-1.01.41-1.62.41-.56,0-1.09-.11-1.57-.34-.47-.23-.84-.55-1.12-.95s-.41-.86-.41-1.35c0-.66.17-1.17.5-1.53.34-.37.89-.64,1.66-.79.77-.17,1.84-.25,3.2-.25h.4v-.59c0-.72-.15-1.25-.45-1.58-.29-.34-.76-.5-1.42-.5-.82,0-1.64.22-2.48.67-.32.2-.55.31-.68.31-.14,0-.26-.05-.36-.16-.1-.11-.14-.25-.14-.41s.05-.31.14-.43c.11-.13.28-.26.5-.4.42-.24.89-.43,1.42-.56.54-.14,1.07-.22,1.6-.22Zm-.59,7.96c.72,0,1.31-.24,1.76-.72.47-.49.7-1.12.7-1.89v-.52h-.32c-1.06,0-1.86.05-2.41.14-.55.08-.95.23-1.19.45-.23.2-.34.51-.34.92,0,.47.17.86.5,1.17.35.3.78.45,1.3.45Zm13.59-11.75c.23,0,.41.07.54.2.13.13.2.3.2.5v11.45c0,.22-.07.39-.2.52-.13.13-.31.2-.54.2s-.41-.07-.54-.2c-.12-.13-.18-.31-.18-.52v-.97c-.26.55-.65.98-1.17,1.28-.5.3-1.1.45-1.78.45-.77,0-1.45-.19-2.03-.58-.59-.38-1.04-.92-1.37-1.6-.32-.7-.49-1.5-.49-2.41s.16-1.69.49-2.38c.32-.68.78-1.21,1.37-1.58.59-.37,1.27-.56,2.03-.56.68,0,1.28.15,1.78.45.52.3.91.73,1.17,1.28v-4.82c0-.22.06-.38.18-.5.13-.13.31-.2.54-.2Zm-3.38,11.7c.85,0,1.51-.29,1.96-.86.47-.59.7-1.42.7-2.48s-.23-1.89-.7-2.47c-.46-.58-1.11-.86-1.96-.86s-1.52.29-2,.86c-.47.58-.7,1.39-.7,2.43s.23,1.9.7,2.5c.48.59,1.15.88,2,.88Zm10.41-7.9c2.2,0,3.29,1.15,3.29,3.46v4.9c0,.22-.07.39-.2.52-.12.13-.29.2-.5.2s-.39-.07-.52-.2c-.13-.13-.2-.31-.2-.52v-.86c-.23.52-.58.92-1.04,1.21-.47.28-1.01.41-1.62.41-.56,0-1.09-.11-1.57-.34-.47-.23-.84-.55-1.12-.95s-.41-.86-.41-1.35c0-.66.17-1.17.5-1.53.34-.37.89-.64,1.66-.79.77-.17,1.84-.25,3.2-.25h.4v-.59c0-.72-.15-1.25-.45-1.58-.29-.34-.76-.5-1.42-.5-.82,0-1.64.22-2.48.67-.32.2-.55.31-.68.31-.14,0-.26-.05-.36-.16s-.14-.25-.14-.41.05-.31.14-.43c.11-.13.28-.26.5-.4.42-.24.89-.43,1.42-.56.54-.14,1.07-.22,1.6-.22Zm-.59,7.96c.72,0,1.31-.24,1.76-.72.47-.49.7-1.12.7-1.89v-.52h-.32c-1.06,0-1.86.05-2.41.14-.55.08-.95.23-1.19.45-.23.2-.34.51-.34.92,0,.47.17.86.5,1.17.35.3.78.45,1.3.45Z"/>
  <path class="cls-5" d="m299.52,140.11c-.35,0-.63-.1-.85-.31-.2-.22-.31-.5-.31-.86v-10.53c0-.35.1-.62.29-.81.2-.19.48-.29.83-.29h4.43c1.36,0,2.41.34,3.17,1.03.76.67,1.13,1.62,1.13,2.84s-.38,2.18-1.13,2.86c-.76.68-1.81,1.03-3.17,1.03h-3.22v3.87c0,.36-.11.65-.32.86-.2.2-.49.31-.85.31Zm4.1-6.82c1.6,0,2.39-.7,2.39-2.09s-.8-2.09-2.39-2.09h-2.93v4.18h2.93Zm13.08,4.3c.2,0,.37.08.49.23.13.16.2.37.2.63,0,.37-.22.68-.67.94-.41.23-.87.41-1.39.56-.52.13-1.01.2-1.48.2-1.42,0-2.54-.41-3.37-1.22s-1.24-1.93-1.24-3.35c0-.9.18-1.7.54-2.39.36-.7.86-1.24,1.51-1.62.66-.38,1.4-.58,2.23-.58s1.48.17,2.07.52c.59.35,1.04.84,1.37,1.48.32.64.49,1.39.49,2.25,0,.52-.23.77-.68.77h-5.31c.07.83.31,1.44.7,1.84.4.38.97.58,1.73.58.38,0,.72-.05,1.01-.14.3-.1.64-.23,1.01-.4.36-.19.62-.29.79-.29Zm-3.11-5.02c-.61,0-1.1.19-1.48.58-.36.38-.58.94-.65,1.66h4.07c-.02-.73-.2-1.28-.54-1.66-.34-.38-.8-.58-1.4-.58Zm8.9,7.58c-1.31,0-2.36-.26-3.17-.77-.38-.23-.58-.55-.58-.97,0-.24.07-.43.2-.58.13-.16.29-.23.49-.23.2,0,.49.1.85.29.38.18.73.32,1.04.41.32.1.73.14,1.22.14s.89-.08,1.17-.25c.29-.17.43-.4.43-.7,0-.2-.06-.37-.18-.49-.11-.12-.31-.23-.61-.32-.29-.11-.73-.23-1.33-.36-1.07-.22-1.84-.52-2.3-.92-.46-.4-.68-.94-.68-1.64,0-.53.16-1,.47-1.42.31-.43.74-.76,1.28-.99.55-.24,1.18-.36,1.87-.36.5,0,.99.07,1.46.2.47.12.89.3,1.26.54.38.24.58.56.58.95,0,.24-.07.44-.2.61-.13.16-.29.23-.49.23-.13,0-.26-.02-.4-.07-.12-.06-.28-.14-.47-.25-.35-.18-.65-.31-.9-.4-.25-.1-.56-.14-.94-.14-.44,0-.8.09-1.06.27-.25.18-.38.43-.38.74s.13.53.4.68c.26.16.77.31,1.53.47.8.17,1.43.36,1.89.58.46.22.78.49.97.81.2.32.31.74.31,1.24,0,.82-.34,1.47-1.03,1.96-.67.49-1.57.74-2.7.74Zm10.03-1.71c.6.04.9.31.9.81,0,.29-.12.51-.36.67-.23.14-.56.2-.99.18l-.49-.04c-2.02-.14-3.02-1.22-3.02-3.24v-3.92h-.9c-.32,0-.58-.07-.76-.22-.17-.14-.25-.35-.25-.63s.08-.49.25-.63c.18-.14.43-.22.76-.22h.9v-1.66c0-.32.1-.58.31-.77.2-.19.48-.29.83-.29s.61.1.81.29c.2.19.31.45.31.77v1.66h1.53c.32,0,.57.07.74.22.18.14.27.35.27.63s-.09.49-.27.63c-.17.14-.41.22-.74.22h-1.53v4.09c0,.89.41,1.36,1.22,1.42l.49.04Zm5.89-7.45c1.22,0,2.13.31,2.72.92.6.6.9,1.52.9,2.75v4.39c0,.32-.1.58-.29.77-.19.18-.46.27-.79.27-.31,0-.57-.1-.77-.29-.19-.19-.29-.44-.29-.76v-.4c-.2.47-.53.83-.97,1.1-.43.26-.94.4-1.51.4s-1.12-.12-1.6-.36c-.48-.24-.86-.57-1.13-.99-.28-.42-.41-.89-.41-1.4,0-.65.16-1.16.49-1.53.34-.37.88-.64,1.62-.81.74-.17,1.77-.25,3.08-.25h.45v-.41c0-.59-.13-1.01-.38-1.28-.25-.28-.66-.41-1.22-.41-.35,0-.7.05-1.06.16-.36.1-.79.24-1.28.43-.31.16-.54.23-.68.23-.22,0-.4-.08-.54-.23-.13-.16-.2-.36-.2-.61,0-.2.05-.38.14-.52.11-.16.28-.3.52-.43.42-.23.92-.41,1.49-.54.59-.13,1.16-.2,1.73-.2Zm-.56,7.54c.6,0,1.09-.2,1.46-.59.38-.41.58-.93.58-1.57v-.38h-.32c-.8,0-1.43.04-1.87.11-.44.07-.76.2-.95.38-.19.18-.29.43-.29.74,0,.38.13.7.4.95.28.24.61.36,1.01.36Zm11.57-7.54c1.06,0,1.84.3,2.36.9.52.6.77,1.51.77,2.72v4.43c0,.34-.1.6-.31.79-.19.19-.46.29-.81.29s-.62-.1-.83-.29c-.2-.19-.31-.46-.31-.79v-4.3c0-.68-.13-1.18-.4-1.49-.25-.31-.65-.47-1.21-.47-.65,0-1.17.2-1.57.61-.38.41-.58.95-.58,1.64v4.01c0,.34-.1.6-.31.79-.2.19-.48.29-.83.29s-.62-.1-.83-.29c-.19-.19-.29-.46-.29-.79v-6.97c0-.31.1-.56.31-.76.2-.19.48-.29.83-.29.31,0,.56.1.76.29.2.18.31.42.31.72v.49c.3-.49.7-.87,1.21-1.13.5-.26,1.07-.4,1.71-.4Zm.32-1.49c-.22,0-.43-.05-.65-.14-.2-.1-.47-.24-.79-.43-.26-.16-.47-.27-.63-.34-.16-.07-.3-.11-.43-.11-.19,0-.35.05-.47.14-.11.1-.22.23-.34.41-.1.14-.18.25-.25.32-.07.06-.16.09-.27.09-.13,0-.25-.05-.34-.16-.08-.12-.13-.27-.13-.45,0-.24.07-.5.22-.79.14-.3.34-.55.59-.76.26-.22.55-.32.86-.32.22,0,.43.05.63.14.22.1.49.24.81.43.26.16.47.27.63.34.16.07.3.11.43.11.19,0,.34-.05.45-.14.12-.1.24-.23.36-.41.1-.14.18-.25.25-.31.07-.07.16-.11.27-.11.14,0,.26.06.34.18.08.11.13.25.13.43,0,.24-.07.51-.22.81-.14.29-.35.54-.61.76-.25.2-.53.31-.85.31Zm8.91,1.49c1.22,0,2.13.31,2.72.92.6.6.9,1.52.9,2.75v4.39c0,.32-.1.58-.29.77-.19.18-.46.27-.79.27-.31,0-.57-.1-.77-.29-.19-.19-.29-.44-.29-.76v-.4c-.2.47-.53.83-.97,1.1-.43.26-.94.4-1.51.4s-1.12-.12-1.6-.36c-.48-.24-.86-.57-1.13-.99-.28-.42-.41-.89-.41-1.4,0-.65.16-1.16.49-1.53.34-.37.88-.64,1.62-.81.74-.17,1.77-.25,3.08-.25h.45v-.41c0-.59-.13-1.01-.38-1.28-.25-.28-.66-.41-1.22-.41-.35,0-.7.05-1.06.16-.36.1-.79.24-1.28.43-.31.16-.54.23-.68.23-.22,0-.4-.08-.54-.23-.13-.16-.2-.36-.2-.61,0-.2.05-.38.14-.52.11-.16.28-.3.52-.43.42-.23.92-.41,1.49-.54.59-.13,1.16-.2,1.73-.2Zm-.56,7.54c.6,0,1.09-.2,1.46-.59.38-.41.58-.93.58-1.57v-.38h-.32c-.8,0-1.43.04-1.87.11-.44.07-.76.2-.95.38-.19.18-.29.43-.29.74,0,.38.13.7.4.95.28.24.61.36,1.01.36Zm15.17-7.54c1.22,0,2.13.31,2.72.92.6.6.9,1.52.9,2.75v4.39c0,.32-.1.58-.29.77-.19.18-.46.27-.79.27-.31,0-.57-.1-.77-.29-.19-.19-.29-.44-.29-.76v-.4c-.2.47-.53.83-.97,1.1-.43.26-.94.4-1.51.4s-1.12-.12-1.6-.36c-.48-.24-.86-.57-1.13-.99-.28-.42-.41-.89-.41-1.4,0-.65.16-1.16.49-1.53.34-.37.88-.64,1.62-.81.74-.17,1.77-.25,3.08-.25h.45v-.41c0-.59-.13-1.01-.38-1.28-.25-.28-.66-.41-1.22-.41-.35,0-.7.05-1.06.16-.36.1-.79.24-1.28.43-.31.16-.54.23-.68.23-.22,0-.4-.08-.54-.23-.13-.16-.2-.36-.2-.61,0-.2.05-.38.14-.52.11-.16.28-.3.52-.43.42-.23.92-.41,1.49-.54.59-.13,1.16-.2,1.73-.2Zm-.56,7.54c.6,0,1.09-.2,1.46-.59.38-.41.58-.93.58-1.57v-.38h-.32c-.8,0-1.43.04-1.87.11-.44.07-.76.2-.95.38-.19.18-.29.43-.29.74,0,.38.13.7.4.95.28.24.61.36,1.01.36Zm10.37,1.62c-.88,0-1.65-.19-2.32-.56-.66-.37-1.17-.9-1.53-1.58-.36-.68-.54-1.48-.54-2.39s.19-1.72.56-2.41c.38-.71.92-1.25,1.6-1.64.68-.38,1.47-.58,2.36-.58.47,0,.94.07,1.4.2.48.13.9.31,1.26.54.38.25.58.57.58.95,0,.26-.07.48-.2.65-.12.16-.28.23-.49.23-.13,0-.27-.03-.41-.09-.14-.06-.29-.13-.43-.22-.26-.16-.52-.28-.76-.36-.24-.1-.52-.14-.83-.14-.74,0-1.32.25-1.73.74-.4.48-.59,1.18-.59,2.09s.2,1.6.59,2.09c.41.48.98.72,1.73.72.3,0,.56-.04.79-.13.24-.1.5-.22.79-.38.18-.11.34-.19.47-.23.13-.06.26-.09.4-.09.19,0,.35.08.49.25.13.17.2.38.2.63,0,.2-.05.38-.14.54-.08.14-.23.28-.43.4-.37.24-.8.43-1.3.58-.49.13-1,.2-1.51.2Zm9.51-1.71c.6.04.9.31.9.81,0,.29-.12.51-.36.67-.23.14-.56.2-.99.18l-.49-.04c-2.02-.14-3.02-1.22-3.02-3.24v-3.92h-.9c-.32,0-.58-.07-.76-.22-.17-.14-.25-.35-.25-.63s.08-.49.25-.63c.18-.14.43-.22.76-.22h.9v-1.66c0-.32.1-.58.31-.77.2-.19.48-.29.83-.29s.61.1.81.29c.2.19.31.45.31.77v1.66h1.53c.32,0,.57.07.74.22.18.14.27.35.27.63s-.09.49-.27.63c-.17.14-.41.22-.74.22h-1.53v4.09c0,.89.41,1.36,1.22,1.42l.49.04Zm3.19,1.67c-.32,0-.59-.09-.81-.27-.2-.19-.31-.46-.31-.81v-6.95c0-.35.1-.61.31-.79.22-.18.49-.27.81-.27s.59.09.81.27c.22.18.32.44.32.79v6.95c0,.35-.11.62-.32.81-.22.18-.49.27-.81.27Zm0-10.69c-.41,0-.73-.11-.97-.32-.24-.23-.36-.52-.36-.88s.12-.65.36-.86c.24-.22.56-.32.97-.32s.71.11.95.32c.25.22.38.5.38.86s-.12.65-.36.88c-.24.22-.56.32-.97.32Zm9.59,2.25c.1-.22.22-.38.38-.49.17-.11.35-.16.54-.16.28,0,.52.1.74.29.23.18.34.41.34.68,0,.14-.04.29-.11.43l-3.33,6.97c-.11.23-.26.4-.47.52-.19.12-.41.18-.65.18s-.45-.06-.67-.18c-.2-.12-.36-.29-.47-.52l-3.35-6.97c-.06-.12-.09-.26-.09-.41,0-.28.11-.51.34-.7.24-.19.51-.29.81-.29.43,0,.75.21.95.63l2.52,5.56,2.5-5.54Zm7.03-.68c1.22,0,2.13.31,2.72.92.6.6.9,1.52.9,2.75v4.39c0,.32-.1.58-.29.77-.19.18-.46.27-.79.27-.31,0-.57-.1-.77-.29-.19-.19-.29-.44-.29-.76v-.4c-.2.47-.53.83-.97,1.1-.43.26-.94.4-1.51.4s-1.12-.12-1.6-.36c-.48-.24-.86-.57-1.13-.99-.28-.42-.41-.89-.41-1.4,0-.65.16-1.16.49-1.53.34-.37.88-.64,1.62-.81.74-.17,1.77-.25,3.08-.25h.45v-.41c0-.59-.13-1.01-.38-1.28-.25-.28-.66-.41-1.22-.41-.35,0-.7.05-1.06.16-.36.1-.79.24-1.28.43-.31.16-.54.23-.68.23-.22,0-.4-.08-.54-.23-.13-.16-.2-.36-.2-.61,0-.2.05-.38.14-.52.11-.16.28-.3.52-.43.42-.23.92-.41,1.49-.54.59-.13,1.16-.2,1.73-.2Zm-.56,7.54c.6,0,1.09-.2,1.46-.59.38-.41.58-.93.58-1.57v-.38h-.32c-.8,0-1.43.04-1.87.11-.44.07-.76.2-.95.38s-.29.43-.29.74c0,.38.13.7.4.95.28.24.61.36,1.01.36Z"/>
  <g class="cls-3">
    <path class="cls-4" d="m430,154h-145v8h145v-8Z"/>
  </g>
  <path class="cls-5" d="m444.3,140.09c-.23,0-.41-.07-.54-.2-.13-.14-.2-.33-.2-.56v-11.3c0-.22.07-.39.2-.52.14-.13.33-.2.56-.2h4.27c1.33,0,2.36.32,3.1.97.74.65,1.12,1.57,1.12,2.75s-.37,2.11-1.12,2.77c-.74.66-1.78.99-3.1.99h-3.55v4.54c0,.23-.07.41-.2.56-.13.13-.31.2-.54.2Zm4.14-6.52c1.93,0,2.9-.85,2.9-2.54s-.97-2.5-2.9-2.5h-3.4v5.04h3.4Zm13.01,4.39c.13,0,.25.05.34.16.1.11.14.25.14.41,0,.3-.21.58-.63.83-.43.25-.89.44-1.37.58-.48.12-.95.18-1.4.18-1.36,0-2.43-.4-3.22-1.21-.78-.8-1.17-1.91-1.17-3.33,0-.9.17-1.69.52-2.38.35-.7.83-1.24,1.46-1.62.64-.38,1.36-.58,2.16-.58,1.14,0,2.05.37,2.72,1.12s1.01,1.75,1.01,3.02c0,.24-.05.41-.14.52-.1.11-.25.16-.47.16h-5.8c.11,2.06,1.09,3.1,2.93,3.1.47,0,.87-.06,1.21-.18.34-.13.7-.31,1.08-.52.31-.18.52-.27.63-.27Zm-3.15-5.81c-.77,0-1.39.24-1.85.72-.46.48-.73,1.16-.81,2.03h5.09c-.02-.89-.25-1.57-.67-2.03-.42-.48-1.01-.72-1.76-.72Zm8.81,7.97c-.55,0-1.08-.07-1.58-.2-.49-.13-.93-.32-1.31-.56-.22-.14-.37-.28-.47-.4-.08-.13-.13-.29-.13-.47,0-.16.04-.28.13-.38.1-.11.22-.16.36-.16s.35.09.63.27c.36.22.71.39,1.06.52.36.12.8.18,1.33.18.65,0,1.15-.11,1.51-.34.36-.23.54-.56.54-.99,0-.26-.07-.47-.2-.63-.13-.17-.36-.31-.68-.43-.32-.13-.8-.26-1.42-.4-1.06-.23-1.81-.53-2.27-.92s-.68-.91-.68-1.57c0-.52.14-.97.43-1.37.29-.4.68-.71,1.19-.94.52-.23,1.1-.34,1.75-.34.47,0,.92.07,1.35.2.44.12.83.29,1.17.52.41.29.61.59.61.9,0,.16-.05.29-.14.4-.1.11-.21.16-.34.16-.14,0-.36-.1-.65-.31-.34-.22-.65-.38-.95-.5-.3-.12-.67-.18-1.12-.18-.56,0-1.02.13-1.37.38-.34.25-.5.59-.5,1.01,0,.26.06.48.18.65.13.16.34.3.63.43.3.12.73.24,1.28.36.82.18,1.45.38,1.89.59.46.22.78.48.97.79.19.31.29.71.29,1.19,0,.76-.32,1.37-.95,1.84-.64.46-1.48.68-2.52.68Zm9.66-1.19c.42.04.63.23.63.58,0,.2-.08.36-.23.47-.14.1-.37.13-.67.11l-.49-.04c-.96-.07-1.67-.36-2.12-.86s-.68-1.27-.68-2.29v-4.52h-1.21c-.2,0-.37-.05-.49-.14-.11-.11-.16-.25-.16-.41,0-.18.05-.32.16-.43.12-.11.28-.16.49-.16h1.21v-2.03c0-.23.07-.4.2-.52.13-.13.31-.2.54-.2.22,0,.39.07.52.2.13.12.2.29.2.52v2.03h2c.19,0,.34.05.45.16.12.11.18.25.18.43,0,.17-.06.31-.18.41-.11.1-.26.14-.45.14h-2v4.59c0,.66.13,1.14.4,1.44.28.29.68.45,1.22.49l.49.04Zm5.65-7.92c2.2,0,3.29,1.15,3.29,3.46v4.9c0,.22-.07.39-.2.52-.12.13-.29.2-.5.2s-.39-.07-.52-.2c-.13-.13-.2-.31-.2-.52v-.86c-.23.52-.58.92-1.04,1.21-.47.28-1.01.41-1.62.41-.56,0-1.09-.11-1.57-.34-.47-.23-.84-.55-1.12-.95s-.41-.86-.41-1.35c0-.66.17-1.17.5-1.53.34-.37.89-.64,1.66-.79.77-.17,1.84-.25,3.2-.25h.4v-.59c0-.72-.15-1.25-.45-1.58-.29-.34-.76-.5-1.42-.5-.82,0-1.64.22-2.48.67-.32.2-.55.31-.68.31-.14,0-.26-.05-.36-.16-.1-.11-.14-.25-.14-.41s.05-.31.14-.43c.11-.13.28-.26.5-.4.42-.24.89-.43,1.42-.56.54-.14,1.07-.22,1.6-.22Zm-.59,7.96c.72,0,1.31-.24,1.76-.72.47-.49.7-1.12.7-1.89v-.52h-.32c-1.06,0-1.86.05-2.41.14-.55.08-.95.23-1.19.45-.23.2-.34.51-.34.92,0,.47.17.86.5,1.17.35.3.78.45,1.3.45Zm10.97-7.96c2.1,0,3.15,1.16,3.15,3.47v4.88c0,.23-.07.41-.2.54-.12.12-.29.18-.52.18s-.41-.06-.54-.18c-.13-.13-.2-.31-.2-.54v-4.79c0-.82-.16-1.41-.49-1.78-.31-.37-.82-.56-1.51-.56-.8,0-1.45.25-1.93.74-.48.49-.72,1.16-.72,2v4.39c0,.23-.07.41-.2.54-.12.12-.29.18-.52.18s-.41-.06-.54-.18c-.13-.13-.2-.31-.2-.54v-7.6c0-.22.07-.39.2-.52.13-.13.31-.2.54-.2.22,0,.38.07.5.2.13.13.2.3.2.5v.92c.29-.54.69-.95,1.21-1.22.52-.29,1.1-.43,1.76-.43Zm.65-1.64c-.23,0-.45-.05-.67-.16-.22-.11-.47-.26-.77-.47-.26-.17-.47-.29-.63-.36-.16-.08-.3-.13-.43-.13-.2,0-.37.05-.49.16-.11.11-.22.26-.32.45-.08.13-.16.23-.22.31-.06.06-.13.09-.22.09-.11,0-.2-.04-.27-.13-.07-.08-.11-.19-.11-.32,0-.22.07-.46.2-.72.13-.26.32-.49.56-.68s.51-.29.81-.29c.23,0,.45.05.67.16s.47.26.77.47c.26.17.47.29.63.38.16.07.3.11.43.11.19,0,.34-.05.45-.16.12-.11.24-.26.36-.45.08-.14.16-.25.22-.31.06-.07.13-.11.22-.11.11,0,.2.05.27.14.07.08.11.19.11.32,0,.2-.07.44-.2.72-.13.26-.32.49-.56.68-.24.19-.51.29-.81.29Zm8.76,1.64c2.2,0,3.29,1.15,3.29,3.46v4.9c0,.22-.07.39-.2.52-.12.13-.29.2-.5.2s-.39-.07-.52-.2c-.13-.13-.2-.31-.2-.52v-.86c-.23.52-.58.92-1.04,1.21-.47.28-1.01.41-1.62.41-.56,0-1.09-.11-1.57-.34-.47-.23-.84-.55-1.12-.95s-.41-.86-.41-1.35c0-.66.17-1.17.5-1.53.34-.37.89-.64,1.66-.79.77-.17,1.84-.25,3.2-.25h.4v-.59c0-.72-.15-1.25-.45-1.58-.29-.34-.76-.5-1.42-.5-.82,0-1.64.22-2.48.67-.32.2-.55.31-.68.31-.14,0-.26-.05-.36-.16-.1-.11-.14-.25-.14-.41s.05-.31.14-.43c.11-.13.28-.26.5-.4.42-.24.89-.43,1.42-.56.54-.14,1.07-.22,1.6-.22Zm-.59,7.96c.72,0,1.31-.24,1.76-.72.47-.49.7-1.12.7-1.89v-.52h-.32c-1.06,0-1.86.05-2.41.14-.55.08-.95.23-1.19.45-.23.2-.34.51-.34.92,0,.47.17.86.5,1.17.35.3.78.45,1.3.45Zm15.61-7.96c.77,0,1.45.19,2.03.58.59.38,1.04.92,1.37,1.62.32.68.49,1.48.49,2.39s-.16,1.71-.49,2.39c-.32.67-.78,1.19-1.37,1.57-.58.37-1.25.56-2.03.56-.68,0-1.28-.15-1.8-.45-.5-.3-.89-.73-1.15-1.28v4.23c0,.22-.07.38-.2.5-.12.13-.29.2-.52.2s-.41-.07-.54-.2c-.13-.13-.2-.3-.2-.5v-10.85c0-.22.07-.39.2-.52.13-.13.31-.2.54-.2s.4.07.52.2c.13.13.2.31.2.52v.97c.26-.55.65-.98,1.15-1.28.52-.3,1.12-.45,1.8-.45Zm-.29,7.9c.85,0,1.51-.29,1.98-.86.47-.58.7-1.39.7-2.45s-.23-1.88-.7-2.47c-.47-.6-1.13-.9-1.98-.9s-1.51.29-1.98.86c-.46.58-.68,1.4-.68,2.47s.23,1.9.68,2.48c.47.58,1.13.86,1.98.86Zm10.69-7.87c.5-.04.76.17.76.61,0,.19-.05.35-.16.47-.11.11-.29.17-.56.2l-.54.05c-.8.07-1.4.36-1.8.86-.38.49-.58,1.07-.58,1.75v4.37c0,.24-.07.42-.2.54-.13.12-.31.18-.52.18s-.4-.06-.54-.18c-.13-.13-.2-.31-.2-.54v-7.6c0-.23.07-.4.22-.52.14-.13.32-.2.52-.2.19,0,.35.07.49.2.13.12.2.29.2.5v1.01c.25-.53.61-.93,1.06-1.21.47-.28,1-.44,1.6-.49l.25-.02Zm8.62,6.91c.13,0,.25.05.34.16.1.11.14.25.14.41,0,.3-.21.58-.63.83-.43.25-.89.44-1.37.58-.48.12-.95.18-1.4.18-1.36,0-2.43-.4-3.22-1.21-.78-.8-1.17-1.91-1.17-3.33,0-.9.17-1.69.52-2.38.35-.7.83-1.24,1.46-1.62.64-.38,1.36-.58,2.16-.58,1.14,0,2.05.37,2.72,1.12s1.01,1.75,1.01,3.02c0,.24-.05.41-.14.52-.1.11-.25.16-.47.16h-5.8c.11,2.06,1.09,3.1,2.93,3.1.47,0,.87-.06,1.21-.18.34-.13.7-.31,1.08-.52.31-.18.52-.27.63-.27Zm-3.15-5.81c-.77,0-1.39.24-1.85.72-.46.48-.73,1.16-.81,2.03h5.09c-.02-.89-.25-1.57-.67-2.03-.42-.48-1.01-.72-1.76-.72Zm12.89-4.93c.23,0,.41.07.54.2.13.13.2.3.2.5v11.45c0,.22-.07.39-.2.52s-.31.2-.54.2-.41-.07-.54-.2c-.12-.13-.18-.31-.18-.52v-.97c-.26.55-.65.98-1.17,1.28-.5.3-1.1.45-1.78.45-.77,0-1.45-.19-2.03-.58-.59-.38-1.04-.92-1.37-1.6-.32-.7-.49-1.5-.49-2.41s.16-1.69.49-2.38c.32-.68.78-1.21,1.37-1.58.59-.37,1.27-.56,2.03-.56.68,0,1.28.15,1.78.45.52.3.91.73,1.17,1.28v-4.82c0-.22.06-.38.18-.5.13-.13.31-.2.54-.2Zm-3.38,11.7c.85,0,1.51-.29,1.96-.86.47-.59.7-1.42.7-2.48s-.23-1.89-.7-2.47c-.46-.58-1.11-.86-1.96-.86s-1.52.29-2,.86c-.47.58-.7,1.39-.7,2.43s.23,1.9.7,2.5c.48.59,1.15.88,2,.88Zm13.61-.95c.13,0,.25.05.34.16.1.11.14.25.14.41,0,.3-.21.58-.63.83-.43.25-.89.44-1.37.58-.48.12-.95.18-1.4.18-1.36,0-2.43-.4-3.22-1.21-.78-.8-1.17-1.91-1.17-3.33,0-.9.17-1.69.52-2.38.35-.7.83-1.24,1.46-1.62.64-.38,1.36-.58,2.16-.58,1.14,0,2.05.37,2.72,1.12s1.01,1.75,1.01,3.02c0,.24-.05.41-.14.52-.1.11-.25.16-.47.16h-5.8c.11,2.06,1.09,3.1,2.93,3.1.47,0,.87-.06,1.21-.18.34-.13.7-.31,1.08-.52.31-.18.52-.27.63-.27Zm-3.15-5.81c-.77,0-1.39.24-1.85.72-.46.48-.73,1.16-.81,2.03h5.09c-.02-.89-.25-1.57-.67-2.03-.42-.48-1.01-.72-1.76-.72Zm9.85,6.79c.42.04.63.23.63.58,0,.2-.08.36-.23.47-.14.1-.37.13-.67.11l-.49-.04c-.96-.07-1.67-.36-2.12-.86s-.68-1.27-.68-2.29v-4.52h-1.21c-.2,0-.37-.05-.49-.14-.11-.11-.16-.25-.16-.41,0-.18.05-.32.16-.43.12-.11.28-.16.49-.16h1.21v-2.03c0-.23.07-.4.2-.52.13-.13.31-.2.54-.2.22,0,.39.07.52.2.13.12.2.29.2.52v2.03h2c.19,0,.34.05.45.16.12.11.18.25.18.43,0,.17-.06.31-.18.41-.11.1-.26.14-.45.14h-2v4.59c0,.66.13,1.14.4,1.44.28.29.68.45,1.22.49l.49.04Zm8.85-.97c.13,0,.25.05.34.16.1.11.14.25.14.41,0,.3-.21.58-.63.83-.43.25-.89.44-1.37.58-.48.12-.95.18-1.4.18-1.36,0-2.43-.4-3.22-1.21-.78-.8-1.17-1.91-1.17-3.33,0-.9.17-1.69.52-2.38.35-.7.83-1.24,1.46-1.62.64-.38,1.36-.58,2.16-.58,1.14,0,2.05.37,2.72,1.12s1.01,1.75,1.01,3.02c0,.24-.05.41-.14.52-.1.11-.25.16-.47.16h-5.8c.11,2.06,1.09,3.1,2.93,3.1.47,0,.87-.06,1.21-.18.34-.13.7-.31,1.08-.52.31-.18.52-.27.63-.27Zm-3.15-5.81c-.77,0-1.39.24-1.85.72-.46.48-.73,1.16-.81,2.03h5.09c-.02-.89-.25-1.57-.67-2.03-.42-.48-1.01-.72-1.76-.72Zm10.19-1.1c.5-.04.76.17.76.61,0,.19-.05.35-.16.47-.11.11-.29.17-.56.2l-.54.05c-.8.07-1.4.36-1.8.86-.38.49-.58,1.07-.58,1.75v4.37c0,.24-.07.42-.2.54-.13.12-.31.18-.52.18s-.4-.06-.54-.18c-.13-.13-.2-.31-.2-.54v-7.6c0-.23.07-.4.22-.52.14-.13.32-.2.52-.2.19,0,.35.07.49.2.13.12.2.29.2.5v1.01c.25-.53.61-.93,1.06-1.21.47-.28,1-.44,1.6-.49l.25-.02Zm11.76-.04c1.94,0,2.92,1.16,2.92,3.47v4.88c0,.23-.07.41-.2.54-.13.12-.31.18-.52.18s-.4-.06-.54-.18c-.13-.13-.2-.31-.2-.54v-4.84c0-.8-.14-1.39-.43-1.75-.29-.36-.74-.54-1.35-.54-.73,0-1.31.25-1.73.74-.42.49-.63,1.16-.63,2v4.39c0,.23-.07.41-.22.54-.13.12-.31.18-.52.18s-.39-.06-.52-.18c-.13-.13-.2-.31-.2-.54v-4.84c0-.8-.14-1.39-.43-1.75s-.74-.54-1.37-.54c-.72,0-1.3.25-1.73.74-.42.49-.63,1.16-.63,2v4.39c0,.23-.07.41-.2.54-.13.12-.31.18-.52.18s-.4-.06-.54-.18c-.13-.13-.2-.31-.2-.54v-7.6c0-.22.07-.39.2-.52.14-.13.32-.2.54-.2.2,0,.37.07.5.2.13.12.2.29.2.5v.86c.26-.52.63-.91,1.1-1.19.47-.28,1.01-.41,1.62-.41,1.37,0,2.26.58,2.68,1.73.25-.53.64-.95,1.15-1.26.52-.31,1.1-.47,1.76-.47Zm6.31,9.07c-.22,0-.4-.06-.54-.18-.13-.13-.2-.31-.2-.54v-7.6c0-.23.07-.4.2-.52.14-.13.32-.2.54-.2s.39.07.52.2c.13.12.2.29.2.52v7.6c0,.24-.07.42-.2.54-.13.12-.31.18-.52.18Zm0-10.93c-.29,0-.52-.08-.7-.25s-.27-.39-.27-.67.09-.48.27-.65.41-.25.7-.25.52.08.7.25.27.38.27.65-.09.5-.27.67-.41.25-.7.25Zm7.86,1.85c2.1,0,3.15,1.16,3.15,3.47v4.88c0,.23-.07.41-.2.54-.12.12-.29.18-.52.18s-.41-.06-.54-.18c-.13-.13-.2-.31-.2-.54v-4.79c0-.82-.16-1.41-.49-1.78-.31-.37-.82-.56-1.51-.56-.8,0-1.45.25-1.93.74-.48.49-.72,1.16-.72,2v4.39c0,.23-.07.41-.2.54-.12.12-.29.18-.52.18s-.41-.06-.54-.18c-.13-.13-.2-.31-.2-.54v-7.6c0-.22.07-.39.2-.52s.31-.2.54-.2c.22,0,.38.07.5.2.13.13.2.3.2.5v.92c.29-.54.69-.95,1.21-1.22.52-.29,1.1-.43,1.76-.43Zm9.4,0c2.2,0,3.29,1.15,3.29,3.46v4.9c0,.22-.07.39-.2.52-.12.13-.29.2-.5.2s-.39-.07-.52-.2c-.13-.13-.2-.31-.2-.52v-.86c-.23.52-.58.92-1.04,1.21-.47.28-1.01.41-1.62.41-.56,0-1.09-.11-1.57-.34-.47-.23-.84-.55-1.12-.95s-.41-.86-.41-1.35c0-.66.17-1.17.5-1.53.34-.37.89-.64,1.66-.79.77-.17,1.84-.25,3.2-.25h.4v-.59c0-.72-.15-1.25-.45-1.58-.29-.34-.76-.5-1.42-.5-.82,0-1.64.22-2.48.67-.32.2-.55.31-.68.31-.14,0-.26-.05-.36-.16s-.14-.25-.14-.41.05-.31.14-.43c.11-.13.28-.26.5-.4.42-.24.89-.43,1.42-.56.54-.14,1.07-.22,1.6-.22Zm-.59,7.96c.72,0,1.31-.24,1.76-.72.47-.49.7-1.12.7-1.89v-.52h-.32c-1.06,0-1.86.05-2.41.14-.55.08-.95.23-1.19.45-.23.2-.34.51-.34.92,0,.47.17.86.5,1.17.35.3.78.45,1.3.45Zm13.59-11.75c.23,0,.41.07.54.2.13.13.2.3.2.5v11.45c0,.22-.07.39-.2.52-.13.13-.31.2-.54.2s-.41-.07-.54-.2c-.12-.13-.18-.31-.18-.52v-.97c-.26.55-.65.98-1.17,1.28-.5.3-1.1.45-1.78.45-.77,0-1.45-.19-2.03-.58s-1.04-.92-1.37-1.6c-.32-.7-.49-1.5-.49-2.41s.16-1.69.49-2.38c.32-.68.78-1.21,1.37-1.58.59-.37,1.27-.56,2.03-.56.68,0,1.28.15,1.78.45.52.3.91.73,1.17,1.28v-4.82c0-.22.06-.38.18-.5.13-.13.31-.2.54-.2Zm-3.38,11.7c.85,0,1.51-.29,1.96-.86.47-.59.7-1.42.7-2.48s-.23-1.89-.7-2.47c-.46-.58-1.11-.86-1.96-.86s-1.52.29-2,.86c-.47.58-.7,1.39-.7,2.43s.23,1.9.7,2.5c.48.59,1.15.88,2,.88Zm10.4-7.9c2.2,0,3.29,1.15,3.29,3.46v4.9c0,.22-.07.39-.2.52-.12.13-.29.2-.5.2s-.39-.07-.52-.2-.2-.31-.2-.52v-.86c-.23.52-.58.92-1.04,1.21-.47.28-1.01.41-1.62.41-.56,0-1.09-.11-1.57-.34-.47-.23-.84-.55-1.12-.95s-.41-.86-.41-1.35c0-.66.17-1.17.5-1.53.34-.37.89-.64,1.66-.79.77-.17,1.84-.25,3.2-.25h.4v-.59c0-.72-.15-1.25-.45-1.58-.29-.34-.76-.5-1.42-.5-.82,0-1.64.22-2.48.67-.32.2-.55.31-.68.31-.14,0-.26-.05-.36-.16-.1-.11-.14-.25-.14-.41s.05-.31.14-.43c.11-.13.28-.26.5-.4.42-.24.89-.43,1.42-.56.54-.14,1.07-.22,1.6-.22Zm-.59,7.96c.72,0,1.31-.24,1.76-.72.47-.49.7-1.12.7-1.89v-.52h-.32c-1.06,0-1.86.05-2.41.14-.55.08-.95.23-1.19.45-.23.2-.34.51-.34.92,0,.47.17.86.5,1.17.35.3.78.45,1.3.45Z"/>
  <rect class="cls-8" x="3" y="3" width="710" height="254" rx="7" ry="7"/>
  <path class="cls-5" d="m72.46,54.14c-.43,0-.78-.13-1.06-.39-.26-.28-.39-.63-.39-1.06v-16.02h-5.6c-.9,0-1.34-.4-1.34-1.2,0-.39.11-.69.34-.9.24-.21.58-.31,1.01-.31h14.11c.43,0,.76.1.98.31.24.21.36.5.36.9,0,.8-.45,1.2-1.34,1.2h-5.6v16.02c0,.43-.13.78-.39,1.06-.26.26-.62.39-1.06.39Zm11.33,0c-.41,0-.76-.11-1.04-.34-.26-.22-.39-.56-.39-1.01v-11.37c0-.45.13-.78.39-1.01.28-.24.63-.36,1.04-.36s.75.12,1.01.36c.26.22.39.56.39,1.01v11.37c0,.45-.13.78-.39,1.01-.26.22-.6.34-1.01.34Zm.59-15.65c-.15.13-.33.2-.53.2s-.39-.07-.56-.22c-.15-.15-.22-.33-.22-.53,0-.19.07-.35.2-.5l3.02-3.95c.37-.5.8-.76,1.29-.76.35,0,.65.12.9.36.24.24.36.53.36.87,0,.43-.22.83-.67,1.2l-3.78,3.33Zm10.9,13.5c.41.04.7.15.87.34.19.17.28.41.28.73,0,.37-.15.66-.45.87-.28.19-.7.26-1.26.22l-.76-.06c-1.51-.11-2.64-.57-3.39-1.37-.75-.82-1.12-2.03-1.12-3.61v-6.58h-1.68c-.82,0-1.23-.36-1.23-1.09,0-.34.1-.6.31-.78.22-.21.53-.31.92-.31h1.68v-2.88c0-.43.12-.77.36-1.01.26-.24.61-.36,1.04-.36s.77.12,1.04.36c.26.24.39.58.39,1.01v2.88h2.77c.39,0,.69.1.9.31.22.19.34.45.34.78,0,.35-.11.63-.34.81-.21.19-.5.28-.9.28h-2.77v6.78c0,.88.18,1.52.53,1.93.37.41.93.64,1.68.7l.78.06Zm13.2-11.93c.43,0,.77.12,1.01.36.26.24.39.58.39,1.01v11.4c0,.39-.13.71-.39.95-.26.24-.61.36-1.04.36-.39,0-.71-.11-.95-.34-.24-.24-.36-.56-.36-.95v-1.06c-.43.78-1.03,1.38-1.79,1.79-.75.41-1.59.62-2.52.62-3.32,0-4.98-1.83-4.98-5.49v-7.28c0-.43.12-.77.36-1.01.26-.24.62-.36,1.06-.36s.77.12,1.01.36c.26.24.39.58.39,1.01v7.25c0,1.1.22,1.91.67,2.44.45.52,1.14.78,2.07.78,1.1,0,1.98-.35,2.63-1.06.67-.71,1.01-1.65,1.01-2.83v-6.58c0-.41.13-.74.39-.98.26-.26.61-.39,1.04-.39Zm6.23,14.08c-.41,0-.76-.11-1.04-.34-.26-.22-.39-.56-.39-1.01v-17.3c0-.45.13-.78.39-1.01.28-.24.62-.36,1.04-.36s.75.12,1.01.36c.26.22.39.56.39,1.01v17.3c0,.45-.13.78-.39,1.01-.26.22-.6.34-1.01.34Zm10.73.06c-1.34,0-2.53-.29-3.56-.87-1.01-.58-1.79-1.4-2.35-2.46-.54-1.08-.81-2.33-.81-3.75s.27-2.69.81-3.75c.56-1.08,1.34-1.91,2.35-2.49,1.03-.58,2.21-.87,3.56-.87s2.52.29,3.53.87c1.03.58,1.81,1.41,2.35,2.49.56,1.06.84,2.31.84,3.75s-.28,2.67-.84,3.75c-.54,1.06-1.33,1.89-2.35,2.46-1.01.58-2.18.87-3.53.87Zm0-2.24c1.25,0,2.2-.41,2.86-1.23.67-.82,1.01-2.03,1.01-3.61s-.34-2.76-1.01-3.58c-.67-.84-1.62-1.26-2.86-1.26s-2.18.42-2.86,1.26c-.67.82-1.01,2.02-1.01,3.58s.33,2.79.98,3.61c.67.82,1.63,1.23,2.88,1.23Z"/>
  <path class="cls-5" d="m74.69,82.18c0,1.89-.51,3.33-1.54,4.33-1.02.99-2.49,1.49-4.41,1.49h-3.16v-11.42h3.5c1.78,0,3.16.49,4.14,1.48.98.98,1.48,2.36,1.48,4.12Zm-1.41.05c0-1.49-.38-2.61-1.12-3.37-.74-.76-1.85-1.13-3.33-1.13h-1.93v9.12h1.62c1.58,0,2.77-.39,3.57-1.16.8-.78,1.2-1.93,1.2-3.46Zm7.38,5.93c-1.27,0-2.27-.39-3-1.16-.73-.77-1.09-1.84-1.09-3.21s.34-2.48,1.02-3.29c.68-.81,1.6-1.22,2.74-1.22,1.07,0,1.92.35,2.55,1.06.62.7.94,1.63.94,2.79v.82h-5.9c.03,1.01.28,1.77.76,2.29.48.52,1.16.78,2.04.78.92,0,1.83-.19,2.73-.58v1.16c-.46.2-.89.34-1.3.42-.41.09-.9.13-1.48.13Zm-.35-7.79c-.69,0-1.24.22-1.65.67-.41.45-.65,1.07-.72,1.86h4.48c0-.82-.18-1.44-.55-1.88-.36-.44-.89-.66-1.56-.66Zm11.24,5.3c0,.8-.3,1.41-.89,1.84-.59.43-1.43.65-2.5.65-1.14,0-2.02-.18-2.66-.54v-1.2c.41.21.85.37,1.32.49.47.12.93.18,1.37.18.68,0,1.2-.11,1.56-.32.36-.22.55-.55.55-.99,0-.33-.15-.62-.44-.85-.29-.24-.85-.52-1.69-.84-.8-.3-1.36-.55-1.7-.77-.33-.22-.58-.48-.75-.76-.16-.28-.24-.62-.24-1.01,0-.7.28-1.25.85-1.65.57-.41,1.35-.61,2.34-.61.92,0,1.82.19,2.7.56l-.46,1.05c-.86-.35-1.64-.53-2.34-.53-.61,0-1.08.1-1.39.29-.31.19-.47.46-.47.8,0,.23.06.42.17.59.12.16.31.32.57.46.26.15.76.36,1.5.63,1.02.37,1.7.74,2.05,1.12.36.38.54.85.54,1.41Zm5.54,2.49c-1.24,0-2.2-.38-2.88-1.14-.68-.77-1.02-1.85-1.02-3.24s.34-2.54,1.03-3.32c.69-.78,1.68-1.17,2.95-1.17.41,0,.82.04,1.23.13.41.09.73.19.97.31l-.4,1.1c-.29-.11-.6-.21-.94-.28-.34-.08-.64-.12-.9-.12-1.74,0-2.61,1.11-2.61,3.33,0,1.05.21,1.86.63,2.42.43.56,1.06.84,1.89.84.71,0,1.45-.15,2.2-.46v1.15c-.57.3-1.29.45-2.16.45Zm8.11-8.88c.38,0,.72.03,1.02.09l-.18,1.2c-.35-.08-.67-.12-.94-.12-.69,0-1.29.28-1.78.84-.49.56-.73,1.26-.73,2.1v4.59h-1.3v-8.56h1.07l.15,1.59h.06c.32-.56.7-.99,1.15-1.29.45-.3.94-.45,1.48-.45Zm3.92,8.72h-1.3v-8.56h1.3v8.56Zm-1.41-10.88c0-.3.07-.51.22-.65.14-.14.33-.21.55-.21s.39.07.54.21c.15.14.23.36.23.65s-.08.51-.23.66c-.15.14-.33.21-.54.21s-.4-.07-.55-.21c-.15-.15-.22-.36-.22-.66Zm8.14,11.04c-.56,0-1.07-.1-1.53-.3-.46-.21-.84-.53-1.16-.95h-.09c.06.5.09.97.09,1.42v3.52h-1.3v-12.41h1.06l.18,1.17h.06c.33-.47.72-.81,1.16-1.02.44-.21.95-.31,1.52-.31,1.14,0,2.01.39,2.62,1.16.62.78.93,1.86.93,3.27s-.32,2.5-.94,3.28c-.62.78-1.5,1.16-2.61,1.16Zm-.19-7.77c-.88,0-1.51.24-1.9.73-.39.48-.59,1.26-.6,2.31v.29c0,1.2.2,2.07.6,2.59.4.52,1.04.77,1.93.77.74,0,1.32-.3,1.74-.9.42-.6.63-1.42.63-2.48s-.21-1.89-.63-2.45c-.42-.57-1.01-.86-1.77-.86Zm9.44,7.77c-1.24,0-2.2-.38-2.88-1.14-.68-.77-1.02-1.85-1.02-3.24s.34-2.54,1.03-3.32c.69-.78,1.68-1.17,2.95-1.17.41,0,.82.04,1.24.13.41.09.73.19.97.31l-.4,1.1c-.29-.11-.6-.21-.94-.28-.34-.08-.64-.12-.9-.12-1.74,0-2.61,1.11-2.61,3.33,0,1.05.21,1.86.63,2.42.43.56,1.06.84,1.89.84.71,0,1.44-.15,2.19-.46v1.15c-.57.3-1.29.45-2.16.45Zm5.5-.16h-1.3v-8.56h1.3v8.56Zm-1.41-10.88c0-.3.07-.51.22-.65.15-.14.33-.21.55-.21s.39.07.54.21c.15.14.23.36.23.65s-.07.51-.23.66c-.15.14-.33.21-.54.21-.22,0-.4-.07-.55-.21-.15-.15-.22-.36-.22-.66Zm11.55,6.59c0,1.4-.35,2.49-1.05,3.27-.7.78-1.67,1.17-2.91,1.17-.76,0-1.45-.18-2.04-.54-.59-.36-1.05-.88-1.38-1.55-.32-.67-.48-1.46-.48-2.36,0-1.4.35-2.48,1.05-3.26.7-.78,1.67-1.17,2.91-1.17s2.15.4,2.85,1.2c.71.8,1.06,1.88,1.06,3.23Zm-6.52,0c0,1.09.22,1.93.66,2.5.44.57,1.08.86,1.93.86s1.49-.28,1.93-.85c.44-.57.66-1.41.66-2.51s-.22-1.91-.66-2.48c-.44-.57-1.09-.85-1.95-.85s-1.49.28-1.92.84c-.43.56-.65,1.39-.65,2.49Zm1.5-5.6c.25-.32.52-.71.8-1.17.29-.46.52-.86.69-1.2h1.58v.16c-.23.34-.57.76-1.02,1.25-.45.49-.85.88-1.18,1.15h-.87v-.2Zm13.16,9.89v-5.54c0-.7-.16-1.22-.48-1.56-.32-.34-.82-.52-1.49-.52-.9,0-1.55.24-1.97.73-.42.48-.62,1.28-.62,2.4v4.49h-1.3v-8.56h1.05l.21,1.17h.06c.27-.42.64-.75,1.12-.98.48-.23,1.01-.35,1.6-.35,1.03,0,1.81.25,2.33.75.52.49.78,1.29.78,2.38v5.59h-1.3Zm13.95-1.15h-.07c-.6.87-1.49,1.3-2.69,1.3-1.12,0-1.99-.38-2.62-1.15-.62-.77-.93-1.85-.93-3.27s.31-2.51.94-3.29c.62-.78,1.49-1.17,2.61-1.17s2.05.42,2.67,1.27h.1l-.05-.62-.03-.6v-3.48h1.3v12.16h-1.05l-.17-1.15Zm-2.59.22c.88,0,1.53-.24,1.92-.72.4-.48.6-1.26.6-2.34v-.27c0-1.21-.2-2.08-.61-2.59-.4-.52-1.04-.78-1.93-.78-.76,0-1.34.3-1.75.89-.4.59-.6,1.42-.6,2.5s.2,1.92.6,2.48c.4.56.99.84,1.77.84Zm10.2,1.09c-1.27,0-2.27-.39-3-1.16-.73-.77-1.09-1.84-1.09-3.21s.34-2.48,1.01-3.29c.68-.81,1.6-1.22,2.74-1.22,1.07,0,1.92.35,2.55,1.06.62.7.94,1.63.94,2.79v.82h-5.9c.03,1.01.28,1.77.76,2.29.49.52,1.16.78,2.04.78.92,0,1.83-.19,2.74-.58v1.16c-.46.2-.89.34-1.31.42-.41.09-.9.13-1.48.13Zm-.35-7.79c-.69,0-1.24.22-1.65.67-.41.45-.65,1.07-.72,1.86h4.48c0-.82-.18-1.44-.55-1.88-.36-.44-.89-.66-1.56-.66Zm14.09,7.63h-1.27v-8.14c0-.68.02-1.32.06-1.92-.11.11-.23.22-.37.34-.13.12-.75.63-1.86,1.52l-.69-.89,3.02-2.34h1.09v11.42Zm10.4,0h-1.3v-12.16h1.3v12.16Zm4.05,0h-1.3v-8.56h1.3v8.56Zm-1.35-9.89c.25-.32.52-.71.81-1.17.29-.46.52-.86.69-1.2h1.58v.16c-.23.34-.57.76-1.02,1.25-.45.49-.85.88-1.18,1.15h-.87v-.2Zm9.96,9.89v-5.54c0-.7-.16-1.22-.48-1.56-.32-.34-.82-.52-1.49-.52-.9,0-1.55.24-1.97.73-.42.48-.62,1.28-.62,2.4v4.49h-1.3v-8.56h1.05l.21,1.17h.06c.27-.42.64-.75,1.12-.98.48-.23,1.01-.35,1.6-.35,1.03,0,1.81.25,2.33.75.52.49.78,1.29.78,2.38v5.59h-1.3Zm7.59.16c-1.27,0-2.27-.39-3-1.16-.73-.77-1.09-1.84-1.09-3.21s.34-2.48,1.01-3.29c.68-.81,1.6-1.22,2.74-1.22,1.07,0,1.92.35,2.55,1.06.62.7.94,1.63.94,2.79v.82h-5.9c.03,1.01.28,1.77.76,2.29.48.52,1.16.78,2.04.78.92,0,1.83-.19,2.74-.58v1.16c-.46.2-.89.34-1.31.42-.41.09-.9.13-1.48.13Zm-.35-7.79c-.69,0-1.24.22-1.65.67-.41.45-.65,1.07-.72,1.86h4.48c0-.82-.18-1.44-.55-1.88-.36-.44-.89-.66-1.56-.66Zm10.98,7.63l-.26-1.22h-.06c-.43.54-.85.9-1.28,1.09-.42.19-.95.28-1.59.28-.85,0-1.52-.22-2-.66-.48-.44-.72-1.06-.72-1.87,0-1.73,1.38-2.64,4.15-2.72l1.45-.05v-.53c0-.67-.14-1.17-.44-1.48-.29-.32-.75-.48-1.38-.48-.71,0-1.52.22-2.42.66l-.4-.99c.42-.23.88-.41,1.38-.54.5-.13,1.01-.2,1.51-.2,1.02,0,1.78.23,2.27.68.5.45.74,1.18.74,2.18v5.84h-.96Zm-2.93-.91c.81,0,1.44-.22,1.9-.66.46-.44.7-1.06.7-1.86v-.77l-1.3.05c-1.03.04-1.78.2-2.23.48-.45.28-.68.72-.68,1.32,0,.47.14.83.42,1.07.29.24.68.37,1.19.37Z"/>
  <path class="cls-2" d="m603,110h40c4.42,0,8,3.58,8,8v40h-48v-48Z"/>
  <path class="cls-5" d="m624,128.71c-.39.39-.39,1.02,0,1.41l3.88,3.88-3.88,3.88c-.39.39-.39,1.02,0,1.41s1.02.39,1.41,0l4.59-4.59c.39-.39.39-1.02,0-1.41l-4.59-4.59c-.38-.38-1.02-.38-1.41.01Z"/>
  <path class="cls-2" d="m64,118c0-4.42,3.58-8,8-8h40v48h-48v-40Z"/>
  <path class="cls-5" d="m91,128.71c-.39-.39-1.02-.39-1.41,0l-4.59,4.59c-.39.39-.39,1.02,0,1.41l4.59,4.59c.39.39,1.02.39,1.41,0s.39-1.02,0-1.41l-3.88-3.89,3.88-3.88c.39-.39.38-1.03,0-1.41Z"/>
  <rect class="cls-4" x="284.2" y="153.92" width="145" height="4"/>
</svg>