<svg xmlns="http://www.w3.org/2000/svg" width="712" height="326" viewBox="0 0 712 326">
  <defs>
    <style>
      .cls-1 {
        fill: #f3f6f9;
      }

      .cls-2 {
        fill: #fcf5f5;
        stroke-width: 2px;
      }

      .cls-2, .cls-9 {
        stroke: #9eaab8;
      }

      .cls-3 {
        fill: #9eaab8;
      }

      .cls-4 {
        fill: #007bc7;
      }

      .cls-4, .cls-5 {
        opacity: 0.5;
      }

      .cls-6 {
        fill: #38485c;
      }

      .cls-11, .cls-7 {
        fill: none;
      }

      .cls-8, .cls-9 {
        fill: rgba(158,170,184,0.24);
      }

      .cls-10, .cls-12, .cls-8, .cls-9 {
        stroke-dasharray: 5 2;
      }

      .cls-10, .cls-12 {
        fill: rgba(56,72,92,0.25);
      }

      .cls-10, .cls-11 {
        stroke: #38485c;
      }

      .cls-11 {
        stroke-linecap: round;
      }

      .cls-13, .cls-14, .cls-15 {
        stroke: none;
      }

      .cls-14 {
        fill: #9eaab8;
      }

      .cls-15 {
        fill: #38485c;
      }
    </style>
  </defs>
  <g id="Grupo_18233" data-name="Grupo 18233" transform="translate(-513 -590)">
    <path id="Trazado_20235" data-name="Trazado 20235" class="cls-1" d="M4,0H708c2.209,0,4,1.156,4,2.582V323.418c0,1.426-1.791,2.582-4,2.582H4c-2.209,0-4-1.156-4-2.582V2.582C0,1.156,1.791,0,4,0Z" transform="translate(513 590)"/>
    <g id="Grupo_18196" data-name="Grupo 18196" transform="translate(0 -31.216)">
      <g id="V1-Alerta-Error" transform="translate(574 742)">
        <g id="Grupo_11759" data-name="Grupo 11759" transform="translate(0)">
          <g id="Rectángulo_3183" data-name="Rectángulo 3183" class="cls-2" transform="translate(0)">
            <rect class="cls-13" width="596.668" height="86" rx="4"/>
            <rect class="cls-7" x="1" y="1" width="594.668" height="84" rx="3"/>
          </g>
          <path id="Rectángulo_4769" data-name="Rectángulo 4769" class="cls-3" d="M4,0H6A0,0,0,0,1,6,0V86a0,0,0,0,1,0,0H4a4,4,0,0,1-4-4V4A4,4,0,0,1,4,0Z" transform="translate(0)"/>
        </g>
        <g id="bx-x-circle" transform="translate(24 20)">
          <circle id="Elipse_870" data-name="Elipse 870" class="cls-3" cx="10" cy="10" r="10"/>
        </g>
        <path id="_Text_Body_1_Selected_On_Surface_Medium_Emphasis_Left_" data-name="✱ / Text / Body 1 / Selected / On Surface / Medium Emphasis / Left " class="cls-4" d="M7.938,17H1.57V5.578H7.938v1.18H2.9v3.68H7.633v1.172H2.9v4.2H7.938ZM15.8,14.664a2.145,2.145,0,0,1-.891,1.844,4.186,4.186,0,0,1-2.5.648,5.436,5.436,0,0,1-2.656-.539v-1.2a6.424,6.424,0,0,0,1.324.492,5.53,5.53,0,0,0,1.363.18A3.092,3.092,0,0,0,14,15.762a1.116,1.116,0,0,0,.113-1.844,6.82,6.82,0,0,0-1.691-.84,9.172,9.172,0,0,1-1.7-.777,2.321,2.321,0,0,1-.75-.754,1.966,1.966,0,0,1-.246-1.008,1.921,1.921,0,0,1,.852-1.652,3.968,3.968,0,0,1,2.336-.605,6.835,6.835,0,0,1,2.7.563L15.156,9.9a6.2,6.2,0,0,0-2.336-.531,2.688,2.688,0,0,0-1.391.289.894.894,0,0,0-.469.8.971.971,0,0,0,.176.586,1.735,1.735,0,0,0,.566.461,12.658,12.658,0,0,0,1.5.633,5.6,5.6,0,0,1,2.059,1.117A1.97,1.97,0,0,1,15.8,14.664Zm4.875,1.422a4.236,4.236,0,0,0,.664-.051,4.3,4.3,0,0,0,.508-.105v.992a2.371,2.371,0,0,1-.621.168,4.664,4.664,0,0,1-.738.066Q18,17.156,18,14.539V9.445H16.773V8.82L18,8.281l.547-1.828h.75V8.438h2.484V9.445H19.3v5.039a1.734,1.734,0,0,0,.367,1.188A1.278,1.278,0,0,0,20.672,16.086ZM28.82,17l-.258-1.219H28.5a3.6,3.6,0,0,1-1.277,1.09,3.893,3.893,0,0,1-1.59.285,2.86,2.86,0,0,1-2-.656,2.394,2.394,0,0,1-.723-1.867q0-2.594,4.148-2.719l1.453-.047v-.531a2.171,2.171,0,0,0-.434-1.488,1.783,1.783,0,0,0-1.387-.48,5.65,5.65,0,0,0-2.422.656l-.4-.992a6.094,6.094,0,0,1,1.387-.539,6.006,6.006,0,0,1,1.512-.2,3.262,3.262,0,0,1,2.27.68,2.837,2.837,0,0,1,.738,2.18V17Zm-2.93-.914a2.632,2.632,0,0,0,1.9-.664,2.457,2.457,0,0,0,.691-1.859v-.773l-1.3.055a4.717,4.717,0,0,0-2.23.48,1.449,1.449,0,0,0-.684,1.324,1.336,1.336,0,0,0,.426,1.07A1.767,1.767,0,0,0,25.891,16.086Zm14.336,1.07a3.934,3.934,0,0,1-3-1.156,4.476,4.476,0,0,1-1.1-3.211A4.964,4.964,0,0,1,37.152,9.5a3.387,3.387,0,0,1,2.738-1.219A3.229,3.229,0,0,1,42.438,9.34a4.057,4.057,0,0,1,.938,2.793v.82h-5.9a3.394,3.394,0,0,0,.762,2.289,2.634,2.634,0,0,0,2.035.781,6.9,6.9,0,0,0,2.734-.578V16.6a6.863,6.863,0,0,1-1.3.426A7.31,7.31,0,0,1,40.227,17.156Zm-.352-7.789a2.118,2.118,0,0,0-1.645.672,3.1,3.1,0,0,0-.723,1.859h4.477a2.851,2.851,0,0,0-.547-1.879A1.925,1.925,0,0,0,39.875,9.367Zm11.234,5.3a2.145,2.145,0,0,1-.891,1.844,4.186,4.186,0,0,1-2.5.648,5.436,5.436,0,0,1-2.656-.539v-1.2a6.424,6.424,0,0,0,1.324.492,5.53,5.53,0,0,0,1.363.18,3.092,3.092,0,0,0,1.563-.324,1.116,1.116,0,0,0,.113-1.844,6.82,6.82,0,0,0-1.691-.84,9.172,9.172,0,0,1-1.7-.777,2.321,2.321,0,0,1-.75-.754,1.966,1.966,0,0,1-.246-1.008,1.921,1.921,0,0,1,.852-1.652,3.968,3.968,0,0,1,2.336-.605,6.835,6.835,0,0,1,2.7.563L50.469,9.9a6.2,6.2,0,0,0-2.336-.531,2.688,2.688,0,0,0-1.391.289.894.894,0,0,0-.469.8.971.971,0,0,0,.176.586,1.735,1.735,0,0,0,.566.461,12.658,12.658,0,0,0,1.5.633,5.6,5.6,0,0,1,2.059,1.117A1.97,1.97,0,0,1,51.109,14.664ZM58.672,17h-1.3V4.844h1.3Zm8.016,0-.258-1.219h-.062a3.6,3.6,0,0,1-1.277,1.09,3.893,3.893,0,0,1-1.59.285,2.86,2.86,0,0,1-2-.656,2.394,2.394,0,0,1-.723-1.867q0-2.594,4.148-2.719l1.453-.047v-.531a2.171,2.171,0,0,0-.434-1.488,1.783,1.783,0,0,0-1.387-.48,5.65,5.65,0,0,0-2.422.656l-.4-.992a6.094,6.094,0,0,1,1.387-.539,6.006,6.006,0,0,1,1.512-.2,3.262,3.262,0,0,1,2.27.68,2.837,2.837,0,0,1,.738,2.18V17Zm-2.93-.914a2.632,2.632,0,0,0,1.9-.664,2.457,2.457,0,0,0,.691-1.859v-.773l-1.3.055a4.717,4.717,0,0,0-2.23.48,1.449,1.449,0,0,0-.684,1.324,1.336,1.336,0,0,0,.426,1.07A1.767,1.767,0,0,0,63.758,16.086ZM80.3,15.852h-.07a3.047,3.047,0,0,1-2.687,1.3,3.179,3.179,0,0,1-2.613-1.148A5.055,5.055,0,0,1,74,12.742a5.141,5.141,0,0,1,.938-3.289,3.155,3.155,0,0,1,2.609-1.172,3.114,3.114,0,0,1,2.672,1.266h.1l-.055-.617-.031-.6V4.844h1.3V17H80.477Zm-2.594.219a2.361,2.361,0,0,0,1.926-.723,3.652,3.652,0,0,0,.6-2.332v-.273a4.3,4.3,0,0,0-.605-2.6A2.3,2.3,0,0,0,77.7,9.367a1.985,1.985,0,0,0-1.746.887,4.409,4.409,0,0,0-.605,2.5,4.227,4.227,0,0,0,.6,2.477A2.037,2.037,0,0,0,77.711,16.07ZM87.9,17.156A3.934,3.934,0,0,1,84.9,16a4.476,4.476,0,0,1-1.1-3.211A4.964,4.964,0,0,1,84.824,9.5a3.387,3.387,0,0,1,2.738-1.219A3.229,3.229,0,0,1,90.109,9.34a4.057,4.057,0,0,1,.938,2.793v.82h-5.9a3.394,3.394,0,0,0,.762,2.289,2.635,2.635,0,0,0,2.035.781,6.9,6.9,0,0,0,2.734-.578V16.6a6.863,6.863,0,0,1-1.3.426A7.31,7.31,0,0,1,87.9,17.156Zm-.352-7.789a2.118,2.118,0,0,0-1.645.672A3.1,3.1,0,0,0,85.18,11.9h4.477a2.851,2.851,0,0,0-.547-1.879A1.925,1.925,0,0,0,87.547,9.367Zm11.234,5.3a2.145,2.145,0,0,1-.891,1.844,4.186,4.186,0,0,1-2.5.648,5.436,5.436,0,0,1-2.656-.539v-1.2a6.424,6.424,0,0,0,1.324.492,5.53,5.53,0,0,0,1.363.18,3.092,3.092,0,0,0,1.563-.324,1.116,1.116,0,0,0,.113-1.844,6.82,6.82,0,0,0-1.691-.84,9.172,9.172,0,0,1-1.7-.777,2.321,2.321,0,0,1-.75-.754,1.966,1.966,0,0,1-.246-1.008,1.921,1.921,0,0,1,.852-1.652A3.968,3.968,0,0,1,95.9,8.281a6.835,6.835,0,0,1,2.7.563L98.141,9.9A6.2,6.2,0,0,0,95.8,9.367a2.687,2.687,0,0,0-1.391.289.894.894,0,0,0-.469.8.971.971,0,0,0,.176.586,1.735,1.735,0,0,0,.566.461,12.657,12.657,0,0,0,1.5.633,5.6,5.6,0,0,1,2.059,1.117A1.97,1.97,0,0,1,98.781,14.664Zm5.531,2.492a3.654,3.654,0,0,1-2.879-1.145,4.707,4.707,0,0,1-1.02-3.238,4.853,4.853,0,0,1,1.035-3.32A3.727,3.727,0,0,1,104.4,8.281a5.852,5.852,0,0,1,1.234.133,4.066,4.066,0,0,1,.969.313l-.4,1.1a6.1,6.1,0,0,0-.937-.285,4.186,4.186,0,0,0-.9-.113q-2.609,0-2.609,3.328a3.963,3.963,0,0,0,.637,2.422,2.215,2.215,0,0,0,1.887.844,5.769,5.769,0,0,0,2.2-.461v1.148A4.679,4.679,0,0,1,104.313,17.156Zm8.1-8.875a5.075,5.075,0,0,1,1.023.094l-.18,1.2a4.418,4.418,0,0,0-.937-.117,2.282,2.282,0,0,0-1.777.844,3.077,3.077,0,0,0-.738,2.1V17h-1.3V8.438h1.07l.148,1.586h.063a3.764,3.764,0,0,1,1.148-1.289A2.585,2.585,0,0,1,112.414,8.281ZM116.336,17h-1.3V8.438h1.3ZM114.93,6.117a.861.861,0,0,1,.219-.652.81.81,0,0,1,1.086,0,.846.846,0,0,1,.227.648.859.859,0,0,1-.227.652.794.794,0,0,1-1.086,0A.877.877,0,0,1,114.93,6.117Zm8.141,11.039a3.706,3.706,0,0,1-1.527-.309,2.872,2.872,0,0,1-1.16-.949h-.094a11.485,11.485,0,0,1,.094,1.422v3.523h-1.3V8.438h1.055l.18,1.172h.063a3.012,3.012,0,0,1,1.164-1.016,3.539,3.539,0,0,1,1.523-.312A3.165,3.165,0,0,1,125.7,9.445a5.125,5.125,0,0,1,.926,3.266,5.1,5.1,0,0,1-.941,3.277A3.17,3.17,0,0,1,123.07,17.156Zm-.187-7.773a2.3,2.3,0,0,0-1.9.727,3.739,3.739,0,0,0-.6,2.313v.289a4.285,4.285,0,0,0,.6,2.582,2.288,2.288,0,0,0,1.93.777,2.007,2.007,0,0,0,1.738-.9,4.26,4.26,0,0,0,.629-2.477,4.1,4.1,0,0,0-.629-2.457A2.069,2.069,0,0,0,122.883,9.383Zm9.43,7.773a3.654,3.654,0,0,1-2.879-1.145,4.707,4.707,0,0,1-1.02-3.238,4.853,4.853,0,0,1,1.035-3.32A3.727,3.727,0,0,1,132.4,8.281a5.852,5.852,0,0,1,1.234.133,4.066,4.066,0,0,1,.969.313l-.4,1.1a6.1,6.1,0,0,0-.937-.285,4.186,4.186,0,0,0-.9-.113q-2.609,0-2.609,3.328a3.963,3.963,0,0,0,.637,2.422,2.215,2.215,0,0,0,1.887.844,5.769,5.769,0,0,0,2.2-.461v1.148A4.679,4.679,0,0,1,132.313,17.156ZM137.8,17h-1.3V8.438h1.3ZM136.4,6.117a.861.861,0,0,1,.219-.652.81.81,0,0,1,1.086,0,.846.846,0,0,1,.227.648.859.859,0,0,1-.227.652.794.794,0,0,1-1.086,0A.877.877,0,0,1,136.4,6.117Zm11.547,6.594a4.724,4.724,0,0,1-1.055,3.27,3.714,3.714,0,0,1-2.914,1.176,3.86,3.86,0,0,1-2.039-.539,3.558,3.558,0,0,1-1.375-1.547,5.391,5.391,0,0,1-.484-2.359,4.716,4.716,0,0,1,1.047-3.262,3.7,3.7,0,0,1,2.906-1.168,3.622,3.622,0,0,1,2.855,1.2A4.7,4.7,0,0,1,147.945,12.711Zm-6.523,0a4.064,4.064,0,0,0,.656,2.5,2.6,2.6,0,0,0,3.863,0,4.043,4.043,0,0,0,.66-2.5,3.978,3.978,0,0,0-.66-2.48,2.32,2.32,0,0,0-1.949-.848,2.283,2.283,0,0,0-1.922.836A4.023,4.023,0,0,0,141.422,12.711Zm1.5-5.6q.375-.484.809-1.172a13.413,13.413,0,0,0,.684-1.2h1.578v.164a11.549,11.549,0,0,1-1.023,1.25,11.62,11.62,0,0,1-1.18,1.148h-.867ZM156.078,17V11.461A2.235,2.235,0,0,0,155.6,9.9a1.941,1.941,0,0,0-1.492-.516,2.461,2.461,0,0,0-1.969.727,3.668,3.668,0,0,0-.625,2.4V17h-1.3V8.438h1.055l.211,1.172h.063a2.648,2.648,0,0,1,1.117-.98,3.63,3.63,0,0,1,1.6-.348,3.252,3.252,0,0,1,2.328.746,3.175,3.175,0,0,1,.781,2.387V17Zm13.945-1.148h-.07a3.047,3.047,0,0,1-2.687,1.3,3.179,3.179,0,0,1-2.613-1.148,5.055,5.055,0,0,1-.934-3.266,5.141,5.141,0,0,1,.938-3.289,3.155,3.155,0,0,1,2.609-1.172,3.114,3.114,0,0,1,2.672,1.266h.1l-.055-.617-.031-.6V4.844h1.3V17H170.2Zm-2.594.219a2.361,2.361,0,0,0,1.926-.723,3.652,3.652,0,0,0,.6-2.332v-.273a4.3,4.3,0,0,0-.605-2.6,2.3,2.3,0,0,0-1.934-.777,1.985,1.985,0,0,0-1.746.887,4.409,4.409,0,0,0-.605,2.5,4.227,4.227,0,0,0,.6,2.477A2.037,2.037,0,0,0,167.43,16.07Zm10.188,1.086a3.934,3.934,0,0,1-3-1.156,4.476,4.476,0,0,1-1.1-3.211,4.964,4.964,0,0,1,1.02-3.289,3.387,3.387,0,0,1,2.738-1.219,3.229,3.229,0,0,1,2.547,1.059,4.057,4.057,0,0,1,.938,2.793v.82h-5.9a3.394,3.394,0,0,0,.762,2.289,2.634,2.634,0,0,0,2.035.781,6.9,6.9,0,0,0,2.734-.578V16.6a6.863,6.863,0,0,1-1.3.426A7.31,7.31,0,0,1,177.617,17.156Zm-.352-7.789a2.118,2.118,0,0,0-1.645.672A3.1,3.1,0,0,0,174.9,11.9h4.477a2.851,2.851,0,0,0-.547-1.879A1.925,1.925,0,0,0,177.266,9.367Zm11.086-.93v5.555a2.235,2.235,0,0,0,.477,1.563,1.941,1.941,0,0,0,1.492.516,2.435,2.435,0,0,0,1.965-.734,3.7,3.7,0,0,0,.621-2.4v-4.5h1.3V17h-1.07l-.187-1.148h-.07a2.585,2.585,0,0,1-1.105.969,3.716,3.716,0,0,1-1.613.336,3.273,3.273,0,0,1-2.34-.742,3.159,3.159,0,0,1-.777-2.375v-5.6ZM202.813,17V11.461a2.235,2.235,0,0,0-.477-1.562,1.941,1.941,0,0,0-1.492-.516,2.461,2.461,0,0,0-1.969.727,3.668,3.668,0,0,0-.625,2.4V17h-1.3V8.438h1.055l.211,1.172h.063a2.648,2.648,0,0,1,1.117-.98,3.63,3.63,0,0,1,1.6-.348,3.252,3.252,0,0,1,2.328.746,3.175,3.175,0,0,1,.781,2.387V17Zm9.227,0-.258-1.219h-.062a3.6,3.6,0,0,1-1.277,1.09,3.893,3.893,0,0,1-1.59.285,2.86,2.86,0,0,1-2-.656,2.394,2.394,0,0,1-.723-1.867q0-2.594,4.148-2.719l1.453-.047v-.531a2.171,2.171,0,0,0-.434-1.488,1.783,1.783,0,0,0-1.387-.48,5.65,5.65,0,0,0-2.422.656l-.4-.992a6.094,6.094,0,0,1,1.387-.539,6.006,6.006,0,0,1,1.512-.2,3.262,3.262,0,0,1,2.27.68,2.837,2.837,0,0,1,.738,2.18V17Zm-2.93-.914a2.632,2.632,0,0,0,1.9-.664,2.457,2.457,0,0,0,.691-1.859v-.773l-1.3.055a4.717,4.717,0,0,0-2.23.48,1.449,1.449,0,0,0-.684,1.324,1.336,1.336,0,0,0,.426,1.07A1.767,1.767,0,0,0,209.109,16.086ZM225.094,17l-.258-1.219h-.062a3.6,3.6,0,0,1-1.277,1.09,3.893,3.893,0,0,1-1.59.285,2.86,2.86,0,0,1-2-.656,2.394,2.394,0,0,1-.723-1.867q0-2.594,4.148-2.719l1.453-.047v-.531a2.171,2.171,0,0,0-.434-1.488,1.783,1.783,0,0,0-1.387-.48,5.65,5.65,0,0,0-2.422.656l-.4-.992a6.094,6.094,0,0,1,1.387-.539,6.006,6.006,0,0,1,1.512-.2,3.262,3.262,0,0,1,2.27.68,2.837,2.837,0,0,1,.738,2.18V17Zm-2.93-.914a2.632,2.632,0,0,0,1.9-.664,2.457,2.457,0,0,0,.691-1.859v-.773l-1.3.055a4.717,4.717,0,0,0-2.23.48,1.449,1.449,0,0,0-.684,1.324,1.336,1.336,0,0,0,.426,1.07A1.767,1.767,0,0,0,222.164,16.086Zm7.859.914h-1.3V4.844h1.3Zm6.367.156a3.934,3.934,0,0,1-3-1.156,4.476,4.476,0,0,1-1.1-3.211,4.964,4.964,0,0,1,1.02-3.289,3.387,3.387,0,0,1,2.738-1.219A3.229,3.229,0,0,1,238.6,9.34a4.057,4.057,0,0,1,.938,2.793v.82h-5.9a3.394,3.394,0,0,0,.762,2.289,2.634,2.634,0,0,0,2.035.781,6.9,6.9,0,0,0,2.734-.578V16.6a6.863,6.863,0,0,1-1.3.426A7.31,7.31,0,0,1,236.391,17.156Zm-.352-7.789a2.118,2.118,0,0,0-1.645.672,3.1,3.1,0,0,0-.723,1.859h4.477a2.851,2.851,0,0,0-.547-1.879A1.925,1.925,0,0,0,236.039,9.367Zm9.617-1.086a5.075,5.075,0,0,1,1.023.094l-.18,1.2a4.418,4.418,0,0,0-.937-.117,2.282,2.282,0,0,0-1.777.844,3.077,3.077,0,0,0-.738,2.1V17h-1.3V8.438h1.07l.148,1.586h.063a3.764,3.764,0,0,1,1.148-1.289A2.585,2.585,0,0,1,245.656,8.281Zm5.391,7.8a4.236,4.236,0,0,0,.664-.051,4.3,4.3,0,0,0,.508-.105v.992a2.371,2.371,0,0,1-.621.168,4.664,4.664,0,0,1-.738.066q-2.484,0-2.484-2.617V9.445h-1.227V8.82l1.227-.539.547-1.828h.75V8.438h2.484V9.445h-2.484v5.039a1.733,1.733,0,0,0,.367,1.188A1.278,1.278,0,0,0,251.047,16.086ZM259.2,17l-.258-1.219h-.062a3.6,3.6,0,0,1-1.277,1.09,3.893,3.893,0,0,1-1.59.285,2.86,2.86,0,0,1-2-.656,2.394,2.394,0,0,1-.723-1.867q0-2.594,4.148-2.719l1.453-.047v-.531a2.171,2.171,0,0,0-.434-1.488,1.783,1.783,0,0,0-1.387-.48,5.65,5.65,0,0,0-2.422.656l-.4-.992a6.094,6.094,0,0,1,1.387-.539,6.006,6.006,0,0,1,1.512-.2,3.262,3.262,0,0,1,2.27.68,2.837,2.837,0,0,1,.738,2.18V17Zm-2.93-.914a2.632,2.632,0,0,0,1.9-.664,2.457,2.457,0,0,0,.691-1.859v-.773l-1.3.055a4.717,4.717,0,0,0-2.23.48,1.449,1.449,0,0,0-.684,1.324,1.336,1.336,0,0,0,.426,1.07A1.767,1.767,0,0,0,256.266,16.086Zm6.375.086a1.164,1.164,0,0,1,.238-.793.864.864,0,0,1,.684-.27.924.924,0,0,1,.707.27,1.116,1.116,0,0,1,.254.793,1.1,1.1,0,0,1-.258.781,1.025,1.025,0,0,1-1.363.027A1.07,1.07,0,0,1,262.641,16.172ZM277.8,17h-6.367V5.578H277.8v1.18h-5.039v3.68H277.5v1.172h-4.734v4.2H277.8Zm8.2,0V11.461a2.235,2.235,0,0,0-.477-1.562,1.941,1.941,0,0,0-1.492-.516,2.461,2.461,0,0,0-1.969.727,3.668,3.668,0,0,0-.625,2.4V17h-1.3V8.438H281.2l.211,1.172h.063a2.648,2.648,0,0,1,1.117-.98,3.63,3.63,0,0,1,1.6-.348,3.252,3.252,0,0,1,2.328.746,3.175,3.175,0,0,1,.781,2.387V17Zm5.258,0h-1.3V4.844h1.3Zm8.016,0-.258-1.219h-.062a3.6,3.6,0,0,1-1.277,1.09,3.893,3.893,0,0,1-1.59.285,2.86,2.86,0,0,1-2-.656,2.394,2.394,0,0,1-.723-1.867q0-2.594,4.148-2.719l1.453-.047v-.531a2.171,2.171,0,0,0-.434-1.488,1.783,1.783,0,0,0-1.387-.48,5.65,5.65,0,0,0-2.422.656l-.4-.992a6.094,6.094,0,0,1,1.387-.539,6.006,6.006,0,0,1,1.512-.2,3.262,3.262,0,0,1,2.27.68,2.837,2.837,0,0,1,.738,2.18V17Zm-2.93-.914a2.632,2.632,0,0,0,1.9-.664,2.457,2.457,0,0,0,.691-1.859v-.773l-1.3.055a4.717,4.717,0,0,0-2.23.48,1.449,1.449,0,0,0-.684,1.324,1.336,1.336,0,0,0,.426,1.07A1.767,1.767,0,0,0,296.344,16.086Zm9.984,1.07a3.654,3.654,0,0,1-2.879-1.145,4.707,4.707,0,0,1-1.02-3.238,4.853,4.853,0,0,1,1.035-3.32,3.727,3.727,0,0,1,2.949-1.172,5.852,5.852,0,0,1,1.234.133,4.066,4.066,0,0,1,.969.313l-.4,1.1a6.1,6.1,0,0,0-.937-.285,4.186,4.186,0,0,0-.9-.113q-2.609,0-2.609,3.328a3.963,3.963,0,0,0,.637,2.422,2.215,2.215,0,0,0,1.887.844,5.769,5.769,0,0,0,2.2-.461v1.148A4.679,4.679,0,0,1,306.328,17.156Zm7.813,0a3.934,3.934,0,0,1-3-1.156,4.476,4.476,0,0,1-1.1-3.211,4.964,4.964,0,0,1,1.02-3.289A3.387,3.387,0,0,1,313.8,8.281a3.229,3.229,0,0,1,2.547,1.059,4.057,4.057,0,0,1,.938,2.793v.82h-5.9a3.394,3.394,0,0,0,.762,2.289,2.635,2.635,0,0,0,2.035.781,6.9,6.9,0,0,0,2.734-.578V16.6a6.864,6.864,0,0,1-1.3.426A7.31,7.31,0,0,1,314.141,17.156Zm-.352-7.789a2.118,2.118,0,0,0-1.645.672,3.1,3.1,0,0,0-.723,1.859H315.9a2.851,2.851,0,0,0-.547-1.879A1.925,1.925,0,0,0,313.789,9.367Z" transform="translate(60 48)"/>
        <g id="Grupo_17674" data-name="Grupo 17674" class="cls-5" transform="translate(61 -24)">
          <path id="_Text_Body_1_Selected_On_Surface_Medium_Emphasis_Left_2" data-name="✱ / Text / Body 1 / Selected / On Surface / Medium Emphasis / Left " class="cls-6" d="M2.793,21a1.064,1.064,0,0,1-.787-.284,1.036,1.036,0,0,1-.284-.766V7.245a1.036,1.036,0,0,1,.284-.767A1.064,1.064,0,0,1,2.793,6.2h7.728a1.093,1.093,0,0,1,.745.231.821.821,0,0,1,.263.651.789.789,0,0,1-.263.64,1.128,1.128,0,0,1-.745.221H3.843V12.6H10.1a1.093,1.093,0,0,1,.746.231.938.938,0,0,1,0,1.3,1.093,1.093,0,0,1-.746.231H3.843v4.893h6.678q1.008,0,1.008.861a.821.821,0,0,1-.263.651,1.093,1.093,0,0,1-.745.231Zm14.511.147a6.355,6.355,0,0,1-3.507-.882,1.6,1.6,0,0,1-.535-.483,1.048,1.048,0,0,1-.158-.567.866.866,0,0,1,.189-.567.6.6,0,0,1,.483-.231,2.07,2.07,0,0,1,.861.336,8.834,8.834,0,0,0,1.228.546,4.589,4.589,0,0,0,1.5.21,2.949,2.949,0,0,0,1.575-.357,1.127,1.127,0,0,0,.567-1.008.984.984,0,0,0-.22-.672,1.869,1.869,0,0,0-.767-.451A13.077,13.077,0,0,0,16.9,16.59a6.23,6.23,0,0,1-2.656-1.082,2.3,2.3,0,0,1-.809-1.859,2.706,2.706,0,0,1,.525-1.627A3.41,3.41,0,0,1,15.414,10.9a5.25,5.25,0,0,1,2.1-.4,6.122,6.122,0,0,1,1.638.22,4.627,4.627,0,0,1,1.407.641,1.3,1.3,0,0,1,.693,1.071.837.837,0,0,1-.2.567.606.606,0,0,1-.472.231.924.924,0,0,1-.378-.084,4.988,4.988,0,0,1-.5-.273,7.054,7.054,0,0,0-1.06-.525,3.46,3.46,0,0,0-1.229-.189,2.41,2.41,0,0,0-1.418.378,1.194,1.194,0,0,0-.536,1.029,1.034,1.034,0,0,0,.494.913,6.05,6.05,0,0,0,1.859.62,10.184,10.184,0,0,1,2.2.672,2.613,2.613,0,0,1,1.145.934,2.642,2.642,0,0,1,.346,1.418,2.584,2.584,0,0,1-1.144,2.194A5.1,5.1,0,0,1,17.3,21.147Zm11.445-1.659a1.053,1.053,0,0,1,.661.241.752.752,0,0,1,.2.556.726.726,0,0,1-.326.641,1.52,1.52,0,0,1-.955.178l-.567-.042a3.677,3.677,0,0,1-2.541-1.039,3.859,3.859,0,0,1-.84-2.7V12.39h-1.26q-.924,0-.924-.819a.77.77,0,0,1,.241-.6.976.976,0,0,1,.683-.22h1.26V8.589a1,1,0,0,1,.284-.756,1.059,1.059,0,0,1,.766-.273,1.1,1.1,0,0,1,.777.273.981.981,0,0,1,.294.756v2.163h2.079a.976.976,0,0,1,.682.22.875.875,0,0,1,0,1.208,1.008,1.008,0,0,1-.682.21H26.5v5.082a2.145,2.145,0,0,0,.409,1.449,1.772,1.772,0,0,0,1.25.525Zm10.4-1.071a.6.6,0,0,1,.483.231.9.9,0,0,1,.189.588,1.208,1.208,0,0,1-.756,1.029,6.662,6.662,0,0,1-1.607.651,6.514,6.514,0,0,1-1.669.231,5.171,5.171,0,0,1-3.843-1.417,5.258,5.258,0,0,1-1.407-3.875,6.077,6.077,0,0,1,.619-2.793,4.554,4.554,0,0,1,1.743-1.89,4.874,4.874,0,0,1,2.552-.672A4.17,4.17,0,0,1,38.7,11.823a5.121,5.121,0,0,1,1.2,3.57q0,.84-.756.84H32.655q.21,3.255,3.129,3.255a3.871,3.871,0,0,0,1.344-.21,9.774,9.774,0,0,0,1.2-.546q.063-.042.347-.179A1.147,1.147,0,0,1,39.144,18.417ZM35.49,12.054a2.562,2.562,0,0,0-1.953.777,3.629,3.629,0,0,0-.882,2.184h5.418a3.51,3.51,0,0,0-.724-2.194A2.323,2.323,0,0,0,35.49,12.054Zm20.265,6.363a.6.6,0,0,1,.483.231.9.9,0,0,1,.189.588,1.208,1.208,0,0,1-.756,1.029,6.662,6.662,0,0,1-1.607.651,6.514,6.514,0,0,1-1.669.231,5.171,5.171,0,0,1-3.843-1.417,5.258,5.258,0,0,1-1.407-3.875,6.077,6.077,0,0,1,.619-2.793,4.554,4.554,0,0,1,1.743-1.89,4.874,4.874,0,0,1,2.552-.672,4.17,4.17,0,0,1,3.255,1.323,5.121,5.121,0,0,1,1.2,3.57q0,.84-.756.84H49.266q.21,3.255,3.129,3.255a3.871,3.871,0,0,0,1.344-.21,9.774,9.774,0,0,0,1.2-.546q.063-.042.347-.179A1.147,1.147,0,0,1,55.755,18.417ZM52.1,12.054a2.562,2.562,0,0,0-1.953.777,3.629,3.629,0,0,0-.882,2.184h5.418a3.51,3.51,0,0,0-.724-2.194A2.323,2.323,0,0,0,52.1,12.054Zm10.29,9.093a6.355,6.355,0,0,1-3.507-.882,1.6,1.6,0,0,1-.535-.483,1.048,1.048,0,0,1-.158-.567.866.866,0,0,1,.189-.567.6.6,0,0,1,.483-.231,2.07,2.07,0,0,1,.861.336,8.834,8.834,0,0,0,1.229.546,4.589,4.589,0,0,0,1.5.21,2.949,2.949,0,0,0,1.575-.357,1.127,1.127,0,0,0,.567-1.008.984.984,0,0,0-.22-.672,1.869,1.869,0,0,0-.767-.451,13.077,13.077,0,0,0-1.617-.431,6.23,6.23,0,0,1-2.656-1.082,2.3,2.3,0,0,1-.809-1.859,2.706,2.706,0,0,1,.525-1.627A3.41,3.41,0,0,1,60.5,10.9a5.25,5.25,0,0,1,2.1-.4,6.122,6.122,0,0,1,1.638.22,4.627,4.627,0,0,1,1.407.641,1.3,1.3,0,0,1,.693,1.071.837.837,0,0,1-.2.567.606.606,0,0,1-.473.231.924.924,0,0,1-.378-.084,4.988,4.988,0,0,1-.5-.273,7.053,7.053,0,0,0-1.061-.525,3.46,3.46,0,0,0-1.229-.189,2.41,2.41,0,0,0-1.417.378,1.2,1.2,0,0,0-.535,1.029,1.034,1.034,0,0,0,.493.913,6.05,6.05,0,0,0,1.858.62,10.184,10.184,0,0,1,2.2.672,2.613,2.613,0,0,1,1.145.934,2.642,2.642,0,0,1,.347,1.418,2.584,2.584,0,0,1-1.145,2.194A5.1,5.1,0,0,1,62.391,21.147Zm20.076-2.73a.6.6,0,0,1,.483.231.9.9,0,0,1,.189.588,1.208,1.208,0,0,1-.756,1.029,6.661,6.661,0,0,1-1.606.651,6.514,6.514,0,0,1-1.67.231,5.171,5.171,0,0,1-3.843-1.417,5.258,5.258,0,0,1-1.407-3.875,6.077,6.077,0,0,1,.62-2.793,4.554,4.554,0,0,1,1.743-1.89,4.874,4.874,0,0,1,2.551-.672,4.17,4.17,0,0,1,3.255,1.323,5.121,5.121,0,0,1,1.2,3.57q0,.84-.756.84H75.978q.21,3.255,3.129,3.255a3.871,3.871,0,0,0,1.344-.21,9.774,9.774,0,0,0,1.2-.546q.063-.042.347-.179A1.147,1.147,0,0,1,82.467,18.417Zm-3.654-6.363a2.562,2.562,0,0,0-1.953.777,3.629,3.629,0,0,0-.882,2.184H81.4a3.51,3.51,0,0,0-.724-2.194A2.323,2.323,0,0,0,78.813,12.054ZM86.6,21.1a1.162,1.162,0,0,1-.767-.252.925.925,0,0,1-.3-.756V7.119a.957.957,0,0,1,.3-.766A1.132,1.132,0,0,1,86.6,6.09a1.092,1.092,0,0,1,.756.262.974.974,0,0,1,.294.766V20.1a.941.941,0,0,1-.294.756A1.121,1.121,0,0,1,86.6,21.1Zm14.532-1.617a1.053,1.053,0,0,1,.661.241.752.752,0,0,1,.2.556.725.725,0,0,1-.326.641,1.52,1.52,0,0,1-.955.178l-.567-.042a3.677,3.677,0,0,1-2.541-1.039,3.859,3.859,0,0,1-.84-2.7V12.39h-1.26q-.924,0-.924-.819a.77.77,0,0,1,.242-.6.976.976,0,0,1,.683-.22h1.26V8.589a1,1,0,0,1,.284-.756,1.059,1.059,0,0,1,.766-.273,1.1,1.1,0,0,1,.777.273.981.981,0,0,1,.294.756v2.163h2.079a.976.976,0,0,1,.683.22.875.875,0,0,1,0,1.208,1.008,1.008,0,0,1-.683.21H98.889v5.082a2.145,2.145,0,0,0,.41,1.449,1.772,1.772,0,0,0,1.25.525ZM104.58,21.1a1.162,1.162,0,0,1-.767-.252.925.925,0,0,1-.3-.756V11.571a.957.957,0,0,1,.3-.767,1.132,1.132,0,0,1,.767-.262,1.092,1.092,0,0,1,.756.262.974.974,0,0,1,.294.767V20.1a.941.941,0,0,1-.294.756A1.121,1.121,0,0,1,104.58,21.1Zm.441-11.739a.6.6,0,0,1-.809-.021.53.53,0,0,1-.178-.4.559.559,0,0,1,.147-.378l2.268-2.961a1.2,1.2,0,0,1,.966-.567.913.913,0,0,1,.672.273.889.889,0,0,1,.273.651,1.186,1.186,0,0,1-.5.9Zm8.862,10.122a1.053,1.053,0,0,1,.661.241.752.752,0,0,1,.2.556.725.725,0,0,1-.326.641,1.52,1.52,0,0,1-.955.178l-.567-.042a3.677,3.677,0,0,1-2.541-1.039,3.859,3.859,0,0,1-.84-2.7V12.39h-1.26q-.924,0-.924-.819a.77.77,0,0,1,.242-.6.976.976,0,0,1,.683-.22h1.26V8.589a1,1,0,0,1,.284-.756,1.059,1.059,0,0,1,.766-.273,1.1,1.1,0,0,1,.777.273.981.981,0,0,1,.294.756v2.163h2.079a.976.976,0,0,1,.683.22.875.875,0,0,1,0,1.208,1.008,1.008,0,0,1-.683.21h-2.079v5.082a2.145,2.145,0,0,0,.41,1.449,1.772,1.772,0,0,0,1.25.525Zm10.311-8.946a1.059,1.059,0,0,1,.767.273,1,1,0,0,1,.284.756v8.547a.929.929,0,0,1-.294.714,1.1,1.1,0,0,1-.777.273.987.987,0,0,1-.714-.262.931.931,0,0,1-.273-.7v-.8a3.289,3.289,0,0,1-1.334,1.344,3.916,3.916,0,0,1-1.9.462q-3.738,0-3.738-4.116v-5.46a1,1,0,0,1,.284-.756,1.088,1.088,0,0,1,.787-.273,1.059,1.059,0,0,1,.767.273,1,1,0,0,1,.284.756V17.01a2.764,2.764,0,0,0,.5,1.827,1.936,1.936,0,0,0,1.554.588,2.587,2.587,0,0,0,1.984-.8,2.982,2.982,0,0,0,.745-2.121V11.571a.988.988,0,0,1,.294-.745A1.072,1.072,0,0,1,124.194,10.542ZM129.255,21.1a1.162,1.162,0,0,1-.766-.252.925.925,0,0,1-.3-.756V7.119a.957.957,0,0,1,.3-.766,1.132,1.132,0,0,1,.766-.262,1.092,1.092,0,0,1,.756.262.974.974,0,0,1,.294.766V20.1a.941.941,0,0,1-.294.756A1.121,1.121,0,0,1,129.255,21.1Zm8.442.042a5.28,5.28,0,0,1-2.656-.651,4.393,4.393,0,0,1-1.764-1.858,6.06,6.06,0,0,1-.619-2.8,6.108,6.108,0,0,1,.619-2.824,4.393,4.393,0,0,1,1.764-1.859,5.746,5.746,0,0,1,5.313,0,4.393,4.393,0,0,1,1.764,1.859,6.108,6.108,0,0,1,.62,2.824,6.06,6.06,0,0,1-.62,2.8,4.393,4.393,0,0,1-1.764,1.858A5.28,5.28,0,0,1,137.7,21.147Zm0-1.68a2.6,2.6,0,0,0,2.152-.924,4.236,4.236,0,0,0,.746-2.709,4.2,4.2,0,0,0-.756-2.7,2.922,2.922,0,0,0-4.284,0,4.2,4.2,0,0,0-.756,2.7,4.236,4.236,0,0,0,.745,2.709A2.6,2.6,0,0,0,137.7,19.467ZM158.97,6.09a1.1,1.1,0,0,1,.777.273.954.954,0,0,1,.294.735V20.076a1,1,0,0,1-.283.756,1.213,1.213,0,0,1-1.533,0,1,1,0,0,1-.283-.756v-.84a3.25,3.25,0,0,1-1.344,1.417,4.1,4.1,0,0,1-2.037.493,4.256,4.256,0,0,1-2.362-.672,4.467,4.467,0,0,1-1.617-1.89A6.446,6.446,0,0,1,150,15.792,6.359,6.359,0,0,1,150.581,13a4.239,4.239,0,0,1,3.979-2.5,4.042,4.042,0,0,1,2.027.493,3.292,3.292,0,0,1,1.333,1.4V7.056a.912.912,0,0,1,.284-.7A1.084,1.084,0,0,1,158.97,6.09Zm-3.906,13.377a2.562,2.562,0,0,0,2.121-.945,4.209,4.209,0,0,0,.756-2.688,4.251,4.251,0,0,0-.746-2.688,2.556,2.556,0,0,0-2.132-.945,2.628,2.628,0,0,0-2.152.934,4.086,4.086,0,0,0-.766,2.656,4.226,4.226,0,0,0,.777,2.7A2.587,2.587,0,0,0,155.064,19.467ZM171,18.417a.6.6,0,0,1,.483.231.9.9,0,0,1,.189.588,1.208,1.208,0,0,1-.756,1.029,6.661,6.661,0,0,1-1.607.651,6.514,6.514,0,0,1-1.669.231,5.171,5.171,0,0,1-3.843-1.417,5.258,5.258,0,0,1-1.407-3.875,6.077,6.077,0,0,1,.619-2.793,4.554,4.554,0,0,1,1.743-1.89,4.874,4.874,0,0,1,2.551-.672,4.17,4.17,0,0,1,3.255,1.323,5.121,5.121,0,0,1,1.2,3.57q0,.84-.756.84h-6.489q.21,3.255,3.129,3.255a3.871,3.871,0,0,0,1.344-.21,9.774,9.774,0,0,0,1.2-.546q.063-.042.346-.179A1.147,1.147,0,0,1,171,18.417Zm-3.654-6.363a2.562,2.562,0,0,0-1.953.777,3.629,3.629,0,0,0-.882,2.184h5.418a3.51,3.51,0,0,0-.725-2.194A2.323,2.323,0,0,0,167.349,12.054Zm20.181-1.512a1.059,1.059,0,0,1,.766.273,1,1,0,0,1,.283.756v8.547a.929.929,0,0,1-.294.714,1.1,1.1,0,0,1-.777.273.987.987,0,0,1-.714-.262.931.931,0,0,1-.273-.7v-.8a3.289,3.289,0,0,1-1.333,1.344,3.916,3.916,0,0,1-1.9.462q-3.738,0-3.738-4.116v-5.46a1,1,0,0,1,.284-.756,1.088,1.088,0,0,1,.787-.273,1.059,1.059,0,0,1,.767.273,1,1,0,0,1,.283.756V17.01a2.764,2.764,0,0,0,.5,1.827,1.936,1.936,0,0,0,1.554.588,2.587,2.587,0,0,0,1.985-.8,2.982,2.982,0,0,0,.745-2.121V11.571a.988.988,0,0,1,.294-.745A1.072,1.072,0,0,1,187.53,10.542Zm9.513-.042q3.675,0,3.675,4.137V20.1a.966.966,0,0,1-.283.746,1.115,1.115,0,0,1-.788.262,1.059,1.059,0,0,1-.766-.273.973.973,0,0,1-.284-.735V14.742a2.927,2.927,0,0,0-.514-1.911,1.988,1.988,0,0,0-1.607-.609,2.742,2.742,0,0,0-2.058.8,2.939,2.939,0,0,0-.777,2.142V20.1a.973.973,0,0,1-.284.735,1.059,1.059,0,0,1-.766.273,1.1,1.1,0,0,1-.777-.273.954.954,0,0,1-.294-.735V11.55a.946.946,0,0,1,.3-.724,1.081,1.081,0,0,1,.766-.284.993.993,0,0,1,.735.273.966.966,0,0,1,.273.714v.861a3.407,3.407,0,0,1,1.407-1.407A4.25,4.25,0,0,1,197.043,10.5Zm10.857,0a4.05,4.05,0,0,1,3.035,1.029,4.34,4.34,0,0,1,1,3.129V20.1a.986.986,0,0,1-.273.746,1.046,1.046,0,0,1-.756.262A.941.941,0,0,1,209.9,20.1V19.32a2.954,2.954,0,0,1-1.187,1.354,3.5,3.5,0,0,1-1.837.472,4.094,4.094,0,0,1-1.838-.41,3.324,3.324,0,0,1-1.312-1.123A2.819,2.819,0,0,1,203.238,18a2.454,2.454,0,0,1,.567-1.774,3.545,3.545,0,0,1,1.911-.924,18.474,18.474,0,0,1,3.675-.284h.483v-.609a2.469,2.469,0,0,0-.483-1.7,2.023,2.023,0,0,0-1.554-.525,4.949,4.949,0,0,0-1.386.189,10.421,10.421,0,0,0-1.428.546,2.058,2.058,0,0,1-.8.315A.649.649,0,0,1,203.71,13a.867.867,0,0,1-.2-.588.911.911,0,0,1,.178-.557,1.88,1.88,0,0,1,.577-.472,7.18,7.18,0,0,1,1.722-.641A8.031,8.031,0,0,1,207.9,10.5Zm-.651,9.072a2.469,2.469,0,0,0,1.89-.788,2.851,2.851,0,0,0,.735-2.027v-.546H209.5a16.36,16.36,0,0,0-2.52.147,2.472,2.472,0,0,0-1.26.493,1.285,1.285,0,0,0-.378,1,1.579,1.579,0,0,0,.546,1.239A1.985,1.985,0,0,0,207.249,19.572ZM224.637,10.5a4.05,4.05,0,0,1,3.035,1.029,4.34,4.34,0,0,1,1,3.129V20.1a.986.986,0,0,1-.273.746,1.046,1.046,0,0,1-.756.262.941.941,0,0,1-1.008-1.008V19.32a2.954,2.954,0,0,1-1.187,1.354,3.5,3.5,0,0,1-1.837.472,4.094,4.094,0,0,1-1.838-.41,3.324,3.324,0,0,1-1.312-1.123A2.819,2.819,0,0,1,219.975,18a2.454,2.454,0,0,1,.567-1.774,3.545,3.545,0,0,1,1.911-.924,18.474,18.474,0,0,1,3.675-.284h.483v-.609a2.469,2.469,0,0,0-.483-1.7,2.023,2.023,0,0,0-1.554-.525,4.949,4.949,0,0,0-1.386.189,10.421,10.421,0,0,0-1.428.546,2.058,2.058,0,0,1-.8.315.649.649,0,0,1-.515-.231.867.867,0,0,1-.2-.588.911.911,0,0,1,.178-.557,1.88,1.88,0,0,1,.577-.472,7.18,7.18,0,0,1,1.722-.641A8.031,8.031,0,0,1,224.637,10.5Zm-.651,9.072a2.469,2.469,0,0,0,1.89-.788,2.851,2.851,0,0,0,.735-2.027v-.546h-.378a16.36,16.36,0,0,0-2.52.147,2.472,2.472,0,0,0-1.26.493,1.285,1.285,0,0,0-.378,1,1.579,1.579,0,0,0,.546,1.239A1.985,1.985,0,0,0,223.986,19.572Zm8.631,1.533a1.162,1.162,0,0,1-.766-.252.925.925,0,0,1-.3-.756V7.119a.957.957,0,0,1,.3-.766,1.132,1.132,0,0,1,.766-.262,1.092,1.092,0,0,1,.756.262.974.974,0,0,1,.294.766V20.1a.941.941,0,0,1-.294.756A1.121,1.121,0,0,1,232.617,21.1Zm12.012-2.688a.6.6,0,0,1,.483.231.9.9,0,0,1,.189.588,1.208,1.208,0,0,1-.756,1.029,6.661,6.661,0,0,1-1.607.651,6.514,6.514,0,0,1-1.669.231,5.171,5.171,0,0,1-3.843-1.417,5.258,5.258,0,0,1-1.407-3.875,6.077,6.077,0,0,1,.619-2.793,4.554,4.554,0,0,1,1.743-1.89,4.874,4.874,0,0,1,2.551-.672,4.17,4.17,0,0,1,3.255,1.323,5.121,5.121,0,0,1,1.2,3.57q0,.84-.756.84H238.14q.21,3.255,3.129,3.255a3.871,3.871,0,0,0,1.344-.21,9.774,9.774,0,0,0,1.2-.546q.063-.042.346-.179A1.147,1.147,0,0,1,244.629,18.417Zm-3.654-6.363a2.562,2.562,0,0,0-1.953.777,3.629,3.629,0,0,0-.882,2.184h5.418a3.51,3.51,0,0,0-.725-2.194A2.323,2.323,0,0,0,240.975,12.054Zm12.1-1.512q1.008-.063,1.008.861a.941.941,0,0,1-.231.693,1.246,1.246,0,0,1-.8.273l-.63.063a2.718,2.718,0,0,0-1.964.924,2.989,2.989,0,0,0-.641,1.932V20.1a.941.941,0,0,1-.294.756,1.121,1.121,0,0,1-.756.252,1.162,1.162,0,0,1-.766-.252.925.925,0,0,1-.3-.756V11.55a.931.931,0,0,1,.3-.746,1.132,1.132,0,0,1,.766-.262,1,1,0,0,1,.7.262.939.939,0,0,1,.283.725v1.008a3.085,3.085,0,0,1,1.218-1.407,4.093,4.093,0,0,1,1.806-.567Zm8.19,8.946a1.053,1.053,0,0,1,.661.241.752.752,0,0,1,.2.556.725.725,0,0,1-.326.641,1.52,1.52,0,0,1-.956.178l-.567-.042a3.677,3.677,0,0,1-2.541-1.039,3.859,3.859,0,0,1-.84-2.7V12.39h-1.26q-.924,0-.924-.819a.77.77,0,0,1,.242-.6.976.976,0,0,1,.682-.22h1.26V8.589a1,1,0,0,1,.284-.756,1.058,1.058,0,0,1,.766-.273,1.1,1.1,0,0,1,.777.273.981.981,0,0,1,.294.756v2.163h2.079a.976.976,0,0,1,.682.22.875.875,0,0,1,0,1.208,1.008,1.008,0,0,1-.682.21h-2.079v5.082a2.145,2.145,0,0,0,.409,1.449,1.772,1.772,0,0,0,1.25.525Zm6.678-8.988a4.05,4.05,0,0,1,3.035,1.029,4.34,4.34,0,0,1,1,3.129V20.1a.986.986,0,0,1-.273.746,1.046,1.046,0,0,1-.756.262.941.941,0,0,1-1.008-1.008V19.32a2.954,2.954,0,0,1-1.186,1.354,3.5,3.5,0,0,1-1.837.472,4.094,4.094,0,0,1-1.837-.41,3.324,3.324,0,0,1-1.312-1.123A2.819,2.819,0,0,1,263.277,18a2.454,2.454,0,0,1,.567-1.774,3.545,3.545,0,0,1,1.911-.924,18.474,18.474,0,0,1,3.675-.284h.483v-.609a2.469,2.469,0,0,0-.483-1.7,2.023,2.023,0,0,0-1.554-.525,4.949,4.949,0,0,0-1.386.189,10.42,10.42,0,0,0-1.428.546,2.059,2.059,0,0,1-.8.315A.649.649,0,0,1,263.75,13a.867.867,0,0,1-.2-.588.911.911,0,0,1,.179-.557,1.88,1.88,0,0,1,.577-.472,7.18,7.18,0,0,1,1.722-.641A8.031,8.031,0,0,1,267.939,10.5Zm-.651,9.072a2.469,2.469,0,0,0,1.89-.788,2.851,2.851,0,0,0,.735-2.027v-.546h-.378a16.36,16.36,0,0,0-2.52.147,2.472,2.472,0,0,0-1.26.493,1.285,1.285,0,0,0-.378,1,1.579,1.579,0,0,0,.546,1.239A1.985,1.985,0,0,0,267.288,19.572Z" transform="translate(0 40)"/>
          <g id="criss-cross" transform="translate(491.668 44)">
            <path id="Trazado_4660" data-name="Trazado 4660" class="cls-7" d="M10,0A10,10,0,1,0,20,10,10.011,10.011,0,0,0,10,0Zm0,0"/>
            <path id="bx-x" class="cls-6" d="M16.793,6.344l-4.5,4.5-4.5-4.5-1.5,1.5,4.5,4.5-4.5,4.5,1.5,1.5,4.5-4.5,4.5,4.5,1.5-1.5-4.5-4.5,4.5-4.5Z" transform="translate(-2.293 -2.344)"/>
          </g>
        </g>
      </g>
      <g id="Trazado_23867" data-name="Trazado 23867" class="cls-8" transform="translate(633.901 813.286) rotate(-90)">
        <path class="cls-13" d="M0,0H24V266H0Z"/>
        <path class="cls-14" d="M 0 0 L 5 0 L 5 1 L 1 1 L 1 6 L 0 6 L 0 0 Z M 7 0 L 12 0 L 12 1 L 7 1 L 7 0 Z M 14 0 L 19 0 L 19 1 L 14 1 L 14 0 Z M 21 0 L 24 0 L 24 1 L 24 1 C 24 1.5 24 2 24 2 L 23 2 L 23 1 L 21 1 L 21 0 Z M 23 4 L 24 4 C 24 4 24 9 24 9 L 23 9 L 23 4 Z M 23 11 L 24 11 C 24 11 24 16 24 16 L 23 16 L 23 11 Z M 23 18 L 24 18 C 24 18 24 23 24 23 L 23 23 L 23 18 Z M 23 25 L 24 25 C 24 25 24 30 24 30 L 23 30 L 23 25 Z M 23 32 L 24 32 C 24 32 24 37 24 37 L 23 37 L 23 32 Z M 23 39 L 24 39 C 24 39 24 44 24 44 L 23 44 L 23 39 Z M 23 46 L 24 46 C 24 46 24 51 24 51 L 23 51 L 23 46 Z M 23 53 L 24 53 C 24 53 24 58 24 58 L 23 58 L 23 53 Z M 23 60 L 24 60 C 24 60 24 65 24 65 L 23 65 L 23 60 Z M 23 67 L 24 67 C 24 67 24 72 24 72 L 23 72 L 23 67 Z M 23 74 L 24 74 C 24 74 24 79 24 79 L 23 79 L 23 74 Z M 23 81 L 24 81 C 24 81 24 86 24 86 L 23 86 L 23 81 Z M 23 88 L 24 88 C 24 88 24 93 24 93 L 23 93 L 23 88 Z M 23 95 L 24 95 C 24 95 24 100 24 100 L 23 100 L 23 95 Z M 23 102 L 24 102 C 24 102 24 107 24 107 L 23 107 L 23 102 Z M 23 109 L 24 109 C 24 109 24 114 24 114 L 23 114 L 23 109 Z M 23 116 L 24 116 C 24 116 24 121 24 121 L 23 121 L 23 116 Z M 23 123 L 24 123 C 24 123 24 128 24 128 L 23 128 L 23 123 Z M 23 130 L 24 130 C 24 130 24 135 24 135 L 23 135 L 23 130 Z M 23 137 L 24 137 C 24 137 24 142 24 142 L 23 142 L 23 137 Z M 23 144 L 24 144 C 24 144 24 149 24 149 L 23 149 L 23 144 Z M 23 151 L 24 151 C 24 151 24 156 24 156 L 23 156 L 23 151 Z M 23 158 L 24 158 C 24 158 24 163 24 163 L 23 163 L 23 158 Z M 23 165 L 24 165 C 24 165 24 170 24 170 L 23 170 L 23 165 Z M 23 172 L 24 172 C 24 172 24 177 24 177 L 23 177 L 23 172 Z M 23 179 L 24 179 C 24 179 24 184 24 184 L 23 184 L 23 179 Z M 23 186 L 24 186 C 24 186 24 191 24 191 L 23 191 L 23 186 Z M 23 193 L 24 193 C 24 193 24 198 24 198 L 23 198 L 23 193 Z M 23 200 L 24 200 C 24 200 24 205 24 205 L 23 205 L 23 200 Z M 23 207 L 24 207 C 24 207 24 212 24 212 L 23 212 L 23 207 Z M 23 214 L 24 214 C 24 214 24 219 24 219 L 23 219 L 23 214 Z M 23 221 L 24 221 C 24 221 24 226 24 226 L 23 226 L 23 221 Z M 23 228 L 24 228 C 24 228 24 233 24 233 L 23 233 L 23 228 Z M 23 235 L 24 235 C 24 235 24 240 24 240 L 23 240 L 23 235 Z M 23 242 L 24 242 C 24 242 24 247 24 247 L 23 247 L 23 242 Z M 23 249 L 24 249 C 24 249 24 254 24 254 L 23 254 L 23 249 Z M 23 256 L 24 256 C 24 256 24 261 24 261 L 23 261 L 23 256 Z M 23 263 L 24 263 C 24 263 24 266 24 266 L 23 266 L 23 266 L 23 266 L 23 266 L 23 266 C 22.5 266 22 266 22 266 L 22 265 L 23 265 L 23 263 Z M 15 265 L 20 265 L 20 266 C 20 266 15 266 15 266 L 15 265 Z M 8 265 L 13 265 L 13 266 C 13 266 8 266 8 266 L 8 265 Z M 1 265 L 6 265 L 6 266 C 6 266 1 266 1 266 L 1 265 Z M 0 260 L 1 260 L 1 265 L 0 265 L 0 260 Z M 0 253 L 1 253 L 1 258 L 0 258 L 0 253 Z M 0 246 L 1 246 L 1 251 L 0 251 L 0 246 Z M 0 239 L 1 239 L 1 244 L 0 244 L 0 239 Z M 0 232 L 1 232 L 1 237 L 0 237 L 0 232 Z M 0 225 L 1 225 L 1 230 L 0 230 L 0 225 Z M 0 218 L 1 218 L 1 223 L 0 223 L 0 218 Z M 0 211 L 1 211 L 1 216 L 0 216 L 0 211 Z M 0 204 L 1 204 L 1 209 L 0 209 L 0 204 Z M 0 197 L 1 197 L 1 202 L 0 202 L 0 197 Z M 0 190 L 1 190 L 1 195 L 0 195 L 0 190 Z M 0 183 L 1 183 L 1 188 L 0 188 L 0 183 Z M 0 176 L 1 176 L 1 181 L 0 181 L 0 176 Z M 0 169 L 1 169 L 1 174 L 0 174 L 0 169 Z M 0 162 L 1 162 L 1 167 L 0 167 L 0 162 Z M 0 155 L 1 155 L 1 160 L 0 160 L 0 155 Z M 0 148 L 1 148 L 1 153 L 0 153 L 0 148 Z M 0 141 L 1 141 L 1 146 L 0 146 L 0 141 Z M 0 134 L 1 134 L 1 139 L 0 139 L 0 134 Z M 0 127 L 1 127 L 1 132 L 0 132 L 0 127 Z M 0 120 L 1 120 L 1 125 L 0 125 L 0 120 Z M 0 113 L 1 113 L 1 118 L 0 118 L 0 113 Z M 0 106 L 1 106 L 1 111 L 0 111 L 0 106 Z M 0 99 L 1 99 L 1 104 L 0 104 L 0 99 Z M 0 92 L 1 92 L 1 97 L 0 97 L 0 92 Z M 0 85 L 1 85 L 1 90 L 0 90 L 0 85 Z M 0 78 L 1 78 L 1 83 L 0 83 L 0 78 Z M 0 71 L 1 71 L 1 76 L 0 76 L 0 71 Z M 0 64 L 1 64 L 1 69 L 0 69 L 0 64 Z M 0 57 L 1 57 L 1 62 L 0 62 L 0 57 Z M 0 50 L 1 50 L 1 55 L 0 55 L 0 50 Z M 0 43 L 1 43 L 1 48 L 0 48 L 0 43 Z M 0 36 L 1 36 L 1 41 L 0 41 L 0 36 Z M 0 29 L 1 29 L 1 34 L 0 34 L 0 29 Z M 0 22 L 1 22 L 1 27 L 0 27 L 0 22 Z M 0 15 L 1 15 L 1 20 L 0 20 L 0 15 Z M 0 8 L 1 8 L 1 13 L 0 13 L 0 8 Z"/>
      </g>
      <g id="Trazado_23868" data-name="Trazado 23868" class="cls-8" transform="translate(900.901 813.286) rotate(-90)">
        <path class="cls-13" d="M0,0H24V56H0Z"/>
        <path class="cls-14" d="M 0 0 L 5 0 L 5 1 L 1 1 L 1 6 L 0 6 L 0 0 Z M 7 0 L 12 0 L 12 1 L 7 1 L 7 0 Z M 14 0 L 19 0 L 19 1 L 14 1 L 14 0 Z M 21 0 L 24 0 L 24 1 L 24 1 C 24 1.5 24 2 24 2 L 23 2 L 23 1 L 21 1 L 21 0 Z M 23 4 L 24 4 C 24 4 24 9 24 9 L 23 9 L 23 4 Z M 23 11 L 24 11 C 24 11 24 16 24 16 L 23 16 L 23 11 Z M 23 18 L 24 18 C 24 18 24 23 24 23 L 23 23 L 23 18 Z M 23 25 L 24 25 C 24 25 24 30 24 30 L 23 30 L 23 25 Z M 23 32 L 24 32 C 24 32 24 37 24 37 L 23 37 L 23 32 Z M 23 39 L 24 39 C 24 39 24 44 24 44 L 23 44 L 23 39 Z M 23 46 L 24 46 C 24 46 24 51 24 51 L 23 51 L 23 46 Z M 23 53 L 24 53 C 24 53 24 56 24 56 L 23 56 L 23 56 L 23 56 L 23 56 L 23 56 C 22.5 56 22 56 22 56 L 22 55 L 23 55 L 23 53 Z M 15 55 L 20 55 L 20 56 C 20 56 15 56 15 56 L 15 55 Z M 8 55 L 13 55 L 13 56 C 13 56 8 56 8 56 L 8 55 Z M 1 55 L 6 55 L 6 56 C 6 56 1 56 1 56 L 1 55 Z M 0 50 L 1 50 L 1 55 L 0 55 L 0 50 Z M 0 43 L 1 43 L 1 48 L 0 48 L 0 43 Z M 0 36 L 1 36 L 1 41 L 0 41 L 0 36 Z M 0 29 L 1 29 L 1 34 L 0 34 L 0 29 Z M 0 22 L 1 22 L 1 27 L 0 27 L 0 22 Z M 0 15 L 1 15 L 1 20 L 0 20 L 0 15 Z M 0 8 L 1 8 L 1 13 L 0 13 L 0 8 Z"/>
      </g>
      <g id="Rectángulo_8960" data-name="Rectángulo 8960" class="cls-9" transform="translate(1124.901 784.286) rotate(-90)">
        <rect class="cls-13" width="24" height="24"/>
        <rect class="cls-7" x="0.5" y="0.5" width="23" height="23"/>
      </g>
      <g id="Rectángulo_8959" data-name="Rectángulo 8959" class="cls-10" transform="translate(595.901 784.286) rotate(-90)">
        <rect class="cls-13" width="24" height="24"/>
        <rect class="cls-7" x="0.5" y="0.5" width="23" height="23"/>
      </g>
      <g id="Grupo_18084" data-name="Grupo 18084" transform="translate(1148.483 725.204) rotate(180)">
        <line id="Línea_114" data-name="Línea 114" class="cls-11" x2="23.787" transform="translate(0.213 3.034)"/>
        <path id="Trazado_4671" data-name="Trazado 4671" class="cls-11" d="M0,0V3.033" transform="translate(24 3.034) rotate(180)"/>
        <path id="Trazado_20265" data-name="Trazado 20265" class="cls-11" d="M0,0V3.033" transform="translate(0 3.033) rotate(180)"/>
      </g>
      <g id="Grupo_18192" data-name="Grupo 18192" transform="translate(619.483 725.204) rotate(180)">
        <line id="Línea_114-2" data-name="Línea 114" class="cls-11" x2="23.787" transform="translate(0.213 3.034)"/>
        <path id="Trazado_4671-2" data-name="Trazado 4671" class="cls-11" d="M0,0V3.033" transform="translate(24 3.034) rotate(180)"/>
        <path id="Trazado_20265-2" data-name="Trazado 20265" class="cls-11" d="M0,0V3.033" transform="translate(0 3.033) rotate(180)"/>
      </g>
      <g id="Grupo_18193" data-name="Grupo 18193" transform="translate(1108.901 725.204) rotate(180)">
        <line id="Línea_114-3" data-name="Línea 114" class="cls-11" x2="473.205" transform="translate(0.213 3.034)"/>
        <path id="Trazado_4671-3" data-name="Trazado 4671" class="cls-11" d="M0,0V3.033" transform="translate(473.418 3.034) rotate(180)"/>
        <path id="Trazado_20265-3" data-name="Trazado 20265" class="cls-11" d="M0,0V3.033" transform="translate(0 3.033) rotate(180)"/>
      </g>
      <g id="Grupo_18194" data-name="Grupo 18194" transform="translate(635.483 844.17)">
        <line id="Línea_114-4" data-name="Línea 114" class="cls-11" x2="262.955" transform="translate(0.119 3.034)"/>
        <path id="Trazado_4671-4" data-name="Trazado 4671" class="cls-11" d="M0,0V3.033" transform="translate(263.075 3.034) rotate(180)"/>
        <path id="Trazado_20265-4" data-name="Trazado 20265" class="cls-11" d="M0,0V3.033" transform="translate(0 3.033) rotate(180)"/>
      </g>
      <g id="Grupo_18195" data-name="Grupo 18195" transform="translate(903.415 844.17)">
        <line id="Línea_114-5" data-name="Línea 114" class="cls-11" x2="53.366" transform="translate(0.119 3.034)"/>
        <path id="Trazado_4671-5" data-name="Trazado 4671" class="cls-11" d="M0,0V3.033" transform="translate(53.485 3.034) rotate(180)"/>
        <path id="Trazado_20265-5" data-name="Trazado 20265" class="cls-11" d="M0,0V3.033" transform="translate(0 3.033) rotate(180)"/>
      </g>
      <path id="Trazado_23871" data-name="Trazado 23871" class="cls-6" d="M11.44-1.232a.985.985,0,0,1,.1.416.8.8,0,0,1-.3.624,1.009,1.009,0,0,1-.68.256.909.909,0,0,1-.48-.136A.907.907,0,0,1,9.728-.5L8.768-2.64H3.136L2.176-.5a.907.907,0,0,1-.352.424.937.937,0,0,1-.5.136A1.019,1.019,0,0,1,.656-.192a.787.787,0,0,1-.3-.624.985.985,0,0,1,.1-.416L4.864-10.72a1.032,1.032,0,0,1,.44-.488,1.26,1.26,0,0,1,.632-.168,1.26,1.26,0,0,1,.632.168,1.032,1.032,0,0,1,.44.488ZM3.84-4.24H8.064L5.952-8.992Zm2.352-7.984a.568.568,0,0,1-.256.064.494.494,0,0,1-.352-.136.418.418,0,0,1-.144-.312.507.507,0,0,1,.176-.352l1.456-1.5a.928.928,0,0,1,.688-.32.754.754,0,0,1,.552.232.736.736,0,0,1,.232.536.682.682,0,0,1-.136.4A1.141,1.141,0,0,1,8-13.28Zm11.072,4.24a.861.861,0,0,1,.656.176.781.781,0,0,1,.24.624.872.872,0,0,1-.208.64,1.278,1.278,0,0,1-.752.272l-.48.048a1.944,1.944,0,0,0-1.384.64,2.093,2.093,0,0,0-.44,1.36v3.36a.888.888,0,0,1-.288.712,1.064,1.064,0,0,1-.72.248,1.034,1.034,0,0,1-.712-.248.9.9,0,0,1-.28-.712V-7.056a.856.856,0,0,1,.28-.688,1.032,1.032,0,0,1,.7-.24.962.962,0,0,1,.672.232.85.85,0,0,1,.256.664v.64a2.368,2.368,0,0,1,.9-1.088,2.771,2.771,0,0,1,1.336-.432Zm7.776,5.84a.538.538,0,0,1,.44.208.865.865,0,0,1,.168.56.97.97,0,0,1-.592.832,5.349,5.349,0,0,1-1.232.488,5.079,5.079,0,0,1-1.312.184A4.077,4.077,0,0,1,19.52-.96a3.988,3.988,0,0,1-1.1-2.976,4.566,4.566,0,0,1,.48-2.128A3.49,3.49,0,0,1,20.248-7.5a3.829,3.829,0,0,1,1.976-.512,3.546,3.546,0,0,1,1.84.464A3.146,3.146,0,0,1,25.28-6.24a4.353,4.353,0,0,1,.432,2q0,.688-.608.688h-4.72a2.517,2.517,0,0,0,.624,1.624,2.1,2.1,0,0,0,1.536.52,2.913,2.913,0,0,0,.9-.128,8.923,8.923,0,0,0,.888-.352A1.766,1.766,0,0,1,25.04-2.144ZM22.272-6.608a1.717,1.717,0,0,0-1.3.512,2.417,2.417,0,0,0-.584,1.472H24a2.281,2.281,0,0,0-.48-1.48A1.583,1.583,0,0,0,22.272-6.608ZM30.72-8.016a3.259,3.259,0,0,1,2.424.808,3.383,3.383,0,0,1,.792,2.456v3.9a.9.9,0,0,1-.256.68.969.969,0,0,1-.7.248.936.936,0,0,1-.68-.256.894.894,0,0,1-.264-.672V-1.2a2.088,2.088,0,0,1-.856.976,2.568,2.568,0,0,1-1.352.352A3.139,3.139,0,0,1,28.4-.192a2.533,2.533,0,0,1-1.008-.88,2.224,2.224,0,0,1-.368-1.248,1.977,1.977,0,0,1,.44-1.36A2.644,2.644,0,0,1,28.9-4.4a13.041,13.041,0,0,1,2.736-.224h.4v-.368A1.638,1.638,0,0,0,31.7-6.136a1.43,1.43,0,0,0-1.088-.36,3.452,3.452,0,0,0-.944.136q-.48.136-1.136.392a1.6,1.6,0,0,1-.608.208.6.6,0,0,1-.472-.208.791.791,0,0,1-.184-.544.819.819,0,0,1,.136-.472,1.291,1.291,0,0,1,.456-.376,5.215,5.215,0,0,1,1.336-.48A6.893,6.893,0,0,1,30.72-8.016Zm-.5,6.7a1.709,1.709,0,0,0,1.3-.536,1.939,1.939,0,0,0,.5-1.384v-.336h-.288a11.038,11.038,0,0,0-1.664.1,1.616,1.616,0,0,0-.848.336.856.856,0,0,0-.256.656,1.085,1.085,0,0,0,.36.84A1.27,1.27,0,0,0,30.224-1.312ZM46.8-11.36a1.066,1.066,0,0,1,.736.256.856.856,0,0,1,.288.672V-.864a.9.9,0,0,1-.272.688,1.008,1.008,0,0,1-.72.256,1.008,1.008,0,0,1-.72-.256.9.9,0,0,1-.272-.688v-.4A2.5,2.5,0,0,1,44.824-.24a3.066,3.066,0,0,1-1.512.368,3.243,3.243,0,0,1-1.8-.512A3.4,3.4,0,0,1,40.28-1.832a5,5,0,0,1-.44-2.152,4.845,4.845,0,0,1,.44-2.128A3.333,3.333,0,0,1,41.5-7.52a3.309,3.309,0,0,1,1.808-.5,3.131,3.131,0,0,1,1.5.352,2.442,2.442,0,0,1,1.008.992v-3.792a.848.848,0,0,1,.264-.648A1,1,0,0,1,46.8-11.36ZM43.84-1.424a1.779,1.779,0,0,0,1.48-.656,2.952,2.952,0,0,0,.52-1.872,2.917,2.917,0,0,0-.52-1.864,1.77,1.77,0,0,0-1.464-.648,1.821,1.821,0,0,0-1.488.64,2.823,2.823,0,0,0-.528,1.84A2.989,2.989,0,0,0,42.368-2.1,1.766,1.766,0,0,0,43.84-1.424Zm12.224-.72a.538.538,0,0,1,.44.208.865.865,0,0,1,.168.56.97.97,0,0,1-.592.832,5.349,5.349,0,0,1-1.232.488,5.079,5.079,0,0,1-1.312.184A4.077,4.077,0,0,1,50.544-.96a3.988,3.988,0,0,1-1.1-2.976,4.566,4.566,0,0,1,.48-2.128A3.49,3.49,0,0,1,51.272-7.5a3.829,3.829,0,0,1,1.976-.512,3.546,3.546,0,0,1,1.84.464A3.146,3.146,0,0,1,56.3-6.24a4.354,4.354,0,0,1,.432,2q0,.688-.608.688h-4.72a2.517,2.517,0,0,0,.624,1.624,2.1,2.1,0,0,0,1.536.52,2.913,2.913,0,0,0,.9-.128,8.923,8.923,0,0,0,.888-.352A1.766,1.766,0,0,1,56.064-2.144ZM53.3-6.608a1.717,1.717,0,0,0-1.3.512,2.417,2.417,0,0,0-.584,1.472h3.616a2.281,2.281,0,0,0-.48-1.48A1.583,1.583,0,0,0,53.3-6.608Zm13.44,5.216q.8.048.8.72a.651.651,0,0,1-.312.584,1.489,1.489,0,0,1-.888.168L65.9.048a2.574,2.574,0,0,1-2.688-2.88V-6.32h-.8a1.016,1.016,0,0,1-.664-.192.685.685,0,0,1-.232-.56.685.685,0,0,1,.232-.56,1.016,1.016,0,0,1,.664-.192h.8V-9.3a.9.9,0,0,1,.272-.688,1.03,1.03,0,0,1,.736-.256,1.008,1.008,0,0,1,.72.256.9.9,0,0,1,.272.688v1.472h1.36a1.016,1.016,0,0,1,.664.192.685.685,0,0,1,.232.56.685.685,0,0,1-.232.56,1.016,1.016,0,0,1-.664.192h-1.36v3.632q0,1.184,1.088,1.264ZM69.552.1a1.034,1.034,0,0,1-.712-.248.9.9,0,0,1-.28-.712V-7.04a.876.876,0,0,1,.28-.7,1.055,1.055,0,0,1,.712-.24,1.087,1.087,0,0,1,.72.24.864.864,0,0,1,.288.7V-.864a.888.888,0,0,1-.288.712A1.064,1.064,0,0,1,69.552.1Zm.4-8.992a.6.6,0,0,1-.352.128.511.511,0,0,1-.376-.152.492.492,0,0,1-.152-.36.6.6,0,0,1,.128-.352L70.752-11.7a1.059,1.059,0,0,1,.848-.48.817.817,0,0,1,.6.248.8.8,0,0,1,.248.584.936.936,0,0,1-.432.768Zm7.056,7.5q.8.048.8.72a.651.651,0,0,1-.312.584,1.489,1.489,0,0,1-.888.168L76.176.048a2.574,2.574,0,0,1-2.688-2.88V-6.32h-.8a1.016,1.016,0,0,1-.664-.192.685.685,0,0,1-.232-.56.685.685,0,0,1,.232-.56,1.016,1.016,0,0,1,.664-.192h.8V-9.3a.9.9,0,0,1,.272-.688,1.03,1.03,0,0,1,.736-.256,1.008,1.008,0,0,1,.72.256.9.9,0,0,1,.272.688v1.472h1.36a1.016,1.016,0,0,1,.664.192.685.685,0,0,1,.232.56.685.685,0,0,1-.232.56,1.016,1.016,0,0,1-.664.192h-1.36v3.632q0,1.184,1.088,1.264Zm8-6.592a1.03,1.03,0,0,1,.736.256.9.9,0,0,1,.272.688V-.832a.868.868,0,0,1-.28.672A1.037,1.037,0,0,1,85.008.1a.965.965,0,0,1-.688-.24A.856.856,0,0,1,84.064-.8v-.4a2.549,2.549,0,0,1-.992.984,2.867,2.867,0,0,1-1.408.344q-2.88,0-2.88-3.232V-7.04a.9.9,0,0,1,.272-.688,1.008,1.008,0,0,1,.72-.256,1.03,1.03,0,0,1,.736.256.9.9,0,0,1,.272.688v3.952a1.888,1.888,0,0,0,.336,1.232,1.3,1.3,0,0,0,1.056.4,1.722,1.722,0,0,0,1.336-.552,2.087,2.087,0,0,0,.5-1.464V-7.04a.9.9,0,0,1,.272-.688A1.008,1.008,0,0,1,85.008-7.984ZM89.072.1a1.034,1.034,0,0,1-.712-.248.9.9,0,0,1-.28-.712v-9.552a.876.876,0,0,1,.28-.7,1.055,1.055,0,0,1,.712-.24,1.087,1.087,0,0,1,.72.24.864.864,0,0,1,.288.7V-.864a.888.888,0,0,1-.288.712A1.064,1.064,0,0,1,89.072.1ZM95.7.128a4.3,4.3,0,0,1-2.1-.5,3.432,3.432,0,0,1-1.4-1.424,4.515,4.515,0,0,1-.5-2.16,4.468,4.468,0,0,1,.5-2.152,3.444,3.444,0,0,1,1.4-1.416,4.3,4.3,0,0,1,2.1-.5,4.3,4.3,0,0,1,2.1.5A3.394,3.394,0,0,1,99.192-6.1a4.528,4.528,0,0,1,.488,2.152,4.575,4.575,0,0,1-.488,2.16A3.382,3.382,0,0,1,97.8-.368,4.3,4.3,0,0,1,95.7.128ZM95.68-1.424a1.793,1.793,0,0,0,1.488-.64,2.973,2.973,0,0,0,.512-1.888,2.979,2.979,0,0,0-.512-1.88A1.765,1.765,0,0,0,95.7-6.48a1.788,1.788,0,0,0-1.48.648,2.946,2.946,0,0,0-.52,1.88,2.973,2.973,0,0,0,.512,1.888A1.775,1.775,0,0,0,95.68-1.424Z" transform="translate(822 700)"/>
      <path id="Trazado_23866" data-name="Trazado 23866" class="cls-6" d="M-48.272-1.232a.985.985,0,0,1,.1.416.8.8,0,0,1-.3.624,1.009,1.009,0,0,1-.68.256.909.909,0,0,1-.48-.136A.907.907,0,0,1-49.984-.5l-.96-2.144h-5.632L-57.536-.5a.907.907,0,0,1-.352.424.937.937,0,0,1-.5.136,1.019,1.019,0,0,1-.672-.256.787.787,0,0,1-.3-.624.985.985,0,0,1,.1-.416l4.416-9.488a1.032,1.032,0,0,1,.44-.488,1.26,1.26,0,0,1,.632-.168,1.26,1.26,0,0,1,.632.168,1.032,1.032,0,0,1,.44.488Zm-7.6-3.008h4.224L-53.76-8.992Zm2.352-7.984a.568.568,0,0,1-.256.064.494.494,0,0,1-.352-.136.418.418,0,0,1-.144-.312.507.507,0,0,1,.176-.352l1.456-1.5a.928.928,0,0,1,.688-.32.754.754,0,0,1,.552.232.736.736,0,0,1,.232.536.682.682,0,0,1-.136.4,1.141,1.141,0,0,1-.408.336Zm11.072,4.24a.861.861,0,0,1,.656.176.781.781,0,0,1,.24.624.872.872,0,0,1-.208.64,1.278,1.278,0,0,1-.752.272l-.48.048a1.944,1.944,0,0,0-1.384.64,2.093,2.093,0,0,0-.44,1.36v3.36a.888.888,0,0,1-.288.712,1.064,1.064,0,0,1-.72.248,1.034,1.034,0,0,1-.712-.248.9.9,0,0,1-.28-.712V-7.056a.856.856,0,0,1,.28-.688,1.032,1.032,0,0,1,.7-.24.962.962,0,0,1,.672.232.85.85,0,0,1,.256.664v.64a2.368,2.368,0,0,1,.9-1.088,2.771,2.771,0,0,1,1.336-.432Zm7.776,5.84a.538.538,0,0,1,.44.208.865.865,0,0,1,.168.56.97.97,0,0,1-.592.832,5.349,5.349,0,0,1-1.232.488A5.079,5.079,0,0,1-37.2.128,4.077,4.077,0,0,1-40.192-.96a3.988,3.988,0,0,1-1.1-2.976,4.566,4.566,0,0,1,.48-2.128A3.49,3.49,0,0,1-39.464-7.5a3.829,3.829,0,0,1,1.976-.512,3.546,3.546,0,0,1,1.84.464A3.146,3.146,0,0,1-34.432-6.24a4.354,4.354,0,0,1,.432,2q0,.688-.608.688h-4.72A2.517,2.517,0,0,0-38.7-1.928a2.1,2.1,0,0,0,1.536.52,2.913,2.913,0,0,0,.9-.128,8.923,8.923,0,0,0,.888-.352A1.766,1.766,0,0,1-34.672-2.144ZM-37.44-6.608a1.717,1.717,0,0,0-1.3.512,2.417,2.417,0,0,0-.584,1.472h3.616a2.281,2.281,0,0,0-.48-1.48A1.583,1.583,0,0,0-37.44-6.608Zm8.448-1.408a3.259,3.259,0,0,1,2.424.808,3.383,3.383,0,0,1,.792,2.456v3.9a.9.9,0,0,1-.256.68.969.969,0,0,1-.7.248.936.936,0,0,1-.68-.256.894.894,0,0,1-.264-.672V-1.2a2.088,2.088,0,0,1-.856.976,2.568,2.568,0,0,1-1.352.352,3.139,3.139,0,0,1-1.424-.32,2.533,2.533,0,0,1-1.008-.88,2.224,2.224,0,0,1-.368-1.248,1.977,1.977,0,0,1,.44-1.36,2.644,2.644,0,0,1,1.432-.72,13.041,13.041,0,0,1,2.736-.224h.4v-.368a1.638,1.638,0,0,0-.336-1.144A1.43,1.43,0,0,0-29.1-6.5a3.452,3.452,0,0,0-.944.136q-.48.136-1.136.392a1.6,1.6,0,0,1-.608.208.6.6,0,0,1-.472-.208.791.791,0,0,1-.184-.544.819.819,0,0,1,.136-.472,1.291,1.291,0,0,1,.456-.376,5.215,5.215,0,0,1,1.336-.48A6.893,6.893,0,0,1-28.992-8.016Zm-.5,6.7a1.709,1.709,0,0,0,1.3-.536,1.939,1.939,0,0,0,.5-1.384v-.336h-.288a11.038,11.038,0,0,0-1.664.1,1.616,1.616,0,0,0-.848.336.856.856,0,0,0-.256.656,1.085,1.085,0,0,0,.36.84A1.27,1.27,0,0,0-29.488-1.312ZM-12.912-11.36a1.066,1.066,0,0,1,.736.256.856.856,0,0,1,.288.672V-.864a.9.9,0,0,1-.272.688,1.008,1.008,0,0,1-.72.256,1.008,1.008,0,0,1-.72-.256.9.9,0,0,1-.272-.688v-.4A2.5,2.5,0,0,1-14.888-.24,3.066,3.066,0,0,1-16.4.128a3.243,3.243,0,0,1-1.8-.512,3.4,3.4,0,0,1-1.232-1.448,5,5,0,0,1-.44-2.152,4.845,4.845,0,0,1,.44-2.128A3.333,3.333,0,0,1-18.208-7.52a3.309,3.309,0,0,1,1.808-.5,3.131,3.131,0,0,1,1.5.352,2.442,2.442,0,0,1,1.008.992v-3.792a.848.848,0,0,1,.264-.648A1,1,0,0,1-12.912-11.36Zm-2.96,9.936a1.779,1.779,0,0,0,1.48-.656,2.952,2.952,0,0,0,.52-1.872,2.917,2.917,0,0,0-.52-1.864,1.77,1.77,0,0,0-1.464-.648,1.821,1.821,0,0,0-1.488.64,2.823,2.823,0,0,0-.528,1.84A2.989,2.989,0,0,0-17.344-2.1,1.766,1.766,0,0,0-15.872-1.424Zm12.224-.72a.538.538,0,0,1,.44.208.865.865,0,0,1,.168.56.97.97,0,0,1-.592.832,5.349,5.349,0,0,1-1.232.488A5.079,5.079,0,0,1-6.176.128,4.077,4.077,0,0,1-9.168-.96a3.988,3.988,0,0,1-1.1-2.976,4.566,4.566,0,0,1,.48-2.128A3.49,3.49,0,0,1-8.44-7.5a3.829,3.829,0,0,1,1.976-.512,3.546,3.546,0,0,1,1.84.464A3.146,3.146,0,0,1-3.408-6.24a4.353,4.353,0,0,1,.432,2q0,.688-.608.688H-8.3A2.517,2.517,0,0,0-7.68-1.928a2.1,2.1,0,0,0,1.536.52,2.913,2.913,0,0,0,.9-.128,8.923,8.923,0,0,0,.888-.352A1.766,1.766,0,0,1-3.648-2.144ZM-6.416-6.608a1.717,1.717,0,0,0-1.3.512A2.417,2.417,0,0,0-8.3-4.624h3.616a2.281,2.281,0,0,0-.48-1.48A1.583,1.583,0,0,0-6.416-6.608ZM1.472.128A5.144,5.144,0,0,1-1.344-.56a.954.954,0,0,1-.512-.864.758.758,0,0,1,.176-.52.554.554,0,0,1,.432-.2A1.767,1.767,0,0,1-.5-1.888,7,7,0,0,0,.44-1.52a3.812,3.812,0,0,0,1.08.128,2.054,2.054,0,0,0,1.048-.224.694.694,0,0,0,.376-.624.6.6,0,0,0-.152-.432,1.394,1.394,0,0,0-.544-.3A11.44,11.44,0,0,0,1.056-3.28,4.58,4.58,0,0,1-.984-4.1,1.816,1.816,0,0,1-1.6-5.552a2.1,2.1,0,0,1,.416-1.272A2.7,2.7,0,0,1-.04-7.7a4.168,4.168,0,0,1,1.656-.312,4.963,4.963,0,0,1,1.3.168,3.94,3.94,0,0,1,1.12.488.966.966,0,0,1,.512.848.821.821,0,0,1-.176.536.538.538,0,0,1-.432.216.865.865,0,0,1-.344-.072,4.616,4.616,0,0,1-.424-.216,6.709,6.709,0,0,0-.8-.36,2.5,2.5,0,0,0-.832-.12,1.611,1.611,0,0,0-.936.24.758.758,0,0,0-.344.656.666.666,0,0,0,.352.608,5.041,5.041,0,0,0,1.36.416,7.76,7.76,0,0,1,1.68.512,1.968,1.968,0,0,1,.872.72,2.089,2.089,0,0,1,.264,1.1,2.052,2.052,0,0,1-.9,1.744A4.013,4.013,0,0,1,1.472.128Zm8.384,0A4.146,4.146,0,0,1,7.8-.368,3.381,3.381,0,0,1,6.432-1.776,4.505,4.505,0,0,1,5.952-3.9a4.468,4.468,0,0,1,.5-2.152A3.56,3.56,0,0,1,7.872-7.5a4.208,4.208,0,0,1,2.1-.512,4.665,4.665,0,0,1,1.256.176,4.143,4.143,0,0,1,1.112.48.99.99,0,0,1,.512.848.9.9,0,0,1-.168.568.531.531,0,0,1-.44.216.956.956,0,0,1-.368-.08A3.223,3.223,0,0,1,11.488-6a4.3,4.3,0,0,0-.672-.328,2.088,2.088,0,0,0-.736-.12A1.871,1.871,0,0,0,8.552-5.8a2.855,2.855,0,0,0-.536,1.864,2.827,2.827,0,0,0,.536,1.848,1.871,1.871,0,0,0,1.528.648,1.973,1.973,0,0,0,.712-.12,6.031,6.031,0,0,0,.7-.328A3.168,3.168,0,0,1,11.9-2.1a.923.923,0,0,1,.352-.072.531.531,0,0,1,.432.224.879.879,0,0,1,.176.56.9.9,0,0,1-.12.472,1.081,1.081,0,0,1-.392.36,4.207,4.207,0,0,1-1.152.5A4.953,4.953,0,0,1,9.856.128Zm8.688-8.112a.861.861,0,0,1,.656.176.781.781,0,0,1,.24.624.872.872,0,0,1-.208.64,1.278,1.278,0,0,1-.752.272L18-6.224a1.944,1.944,0,0,0-1.384.64,2.093,2.093,0,0,0-.44,1.36v3.36a.888.888,0,0,1-.288.712,1.064,1.064,0,0,1-.72.248,1.034,1.034,0,0,1-.712-.248.9.9,0,0,1-.28-.712V-7.056a.856.856,0,0,1,.28-.688,1.032,1.032,0,0,1,.7-.24.962.962,0,0,1,.672.232.85.85,0,0,1,.256.664v.64a2.368,2.368,0,0,1,.9-1.088,2.771,2.771,0,0,1,1.336-.432ZM21.28.1a1.034,1.034,0,0,1-.712-.248.9.9,0,0,1-.28-.712V-7.04a.876.876,0,0,1,.28-.7,1.055,1.055,0,0,1,.712-.24,1.087,1.087,0,0,1,.72.24.864.864,0,0,1,.288.7V-.864A.888.888,0,0,1,22-.152,1.064,1.064,0,0,1,21.28.1Zm0-9.5a1.222,1.222,0,0,1-.864-.3,1.008,1.008,0,0,1-.32-.776.983.983,0,0,1,.32-.768,1.243,1.243,0,0,1,.864-.288,1.25,1.25,0,0,1,.856.288.971.971,0,0,1,.328.768,1.008,1.008,0,0,1-.32.776A1.222,1.222,0,0,1,21.28-9.408Zm7.552,1.392a3.243,3.243,0,0,1,1.8.512,3.4,3.4,0,0,1,1.232,1.448A5,5,0,0,1,32.3-3.9a4.845,4.845,0,0,1-.44,2.128A3.333,3.333,0,0,1,30.64-.368a3.309,3.309,0,0,1-1.808.5,3.1,3.1,0,0,1-1.488-.352A2.47,2.47,0,0,1,26.336-1.2V2.064a.83.83,0,0,1-.272.656,1.048,1.048,0,0,1-.72.24,1.037,1.037,0,0,1-.728-.256.868.868,0,0,1-.28-.672V-7.04a.914.914,0,0,1,.264-.688.979.979,0,0,1,.712-.256,1.008,1.008,0,0,1,.72.256.9.9,0,0,1,.272.688v.4A2.455,2.455,0,0,1,27.32-7.656,3.121,3.121,0,0,1,28.832-8.016ZM28.3-1.424a1.793,1.793,0,0,0,1.472-.648A2.829,2.829,0,0,0,30.3-3.9a2.989,2.989,0,0,0-.528-1.888A1.766,1.766,0,0,0,28.3-6.464a1.779,1.779,0,0,0-1.48.656,2.952,2.952,0,0,0-.52,1.872,2.923,2.923,0,0,0,.52,1.856A1.779,1.779,0,0,0,28.3-1.424Zm9.648.032q.8.048.8.72a.651.651,0,0,1-.312.584,1.489,1.489,0,0,1-.888.168L37.12.048a2.574,2.574,0,0,1-2.688-2.88V-6.32h-.8a1.016,1.016,0,0,1-.664-.192.685.685,0,0,1-.232-.56.685.685,0,0,1,.232-.56,1.016,1.016,0,0,1,.664-.192h.8V-9.3a.9.9,0,0,1,.272-.688,1.03,1.03,0,0,1,.736-.256,1.008,1.008,0,0,1,.72.256.9.9,0,0,1,.272.688v1.472h1.36a1.016,1.016,0,0,1,.664.192.685.685,0,0,1,.232.56.685.685,0,0,1-.232.56,1.016,1.016,0,0,1-.664.192h-1.36v3.632q0,1.184,1.088,1.264ZM40.768.1a1.034,1.034,0,0,1-.712-.248.9.9,0,0,1-.28-.712V-7.04a.876.876,0,0,1,.28-.7,1.055,1.055,0,0,1,.712-.24,1.087,1.087,0,0,1,.72.24.864.864,0,0,1,.288.7V-.864a.888.888,0,0,1-.288.712A1.064,1.064,0,0,1,40.768.1Zm0-9.5a1.222,1.222,0,0,1-.864-.3,1.008,1.008,0,0,1-.32-.776.983.983,0,0,1,.32-.768,1.243,1.243,0,0,1,.864-.288,1.25,1.25,0,0,1,.856.288.971.971,0,0,1,.328.768,1.008,1.008,0,0,1-.32.776A1.222,1.222,0,0,1,40.768-9.408Zm8.512,2a.979.979,0,0,1,.344-.432.834.834,0,0,1,.472-.144,1.007,1.007,0,0,1,.664.248.772.772,0,0,1,.3.616.852.852,0,0,1-.1.384L48-.544a1.053,1.053,0,0,1-.408.464,1.105,1.105,0,0,1-.584.16,1.161,1.161,0,0,1-.584-.16A1.025,1.025,0,0,1,46-.544L43.024-6.736a.812.812,0,0,1-.08-.368.78.78,0,0,1,.312-.624,1.091,1.091,0,0,1,.712-.256.892.892,0,0,1,.848.56l2.24,4.944ZM55.5-8.016a3.259,3.259,0,0,1,2.424.808,3.383,3.383,0,0,1,.792,2.456v3.9a.9.9,0,0,1-.256.68.969.969,0,0,1-.7.248.936.936,0,0,1-.68-.256.894.894,0,0,1-.264-.672V-1.2a2.088,2.088,0,0,1-.856.976,2.568,2.568,0,0,1-1.352.352,3.139,3.139,0,0,1-1.424-.32,2.533,2.533,0,0,1-1.008-.88,2.224,2.224,0,0,1-.368-1.248,1.977,1.977,0,0,1,.44-1.36A2.644,2.644,0,0,1,53.68-4.4a13.041,13.041,0,0,1,2.736-.224h.4v-.368a1.638,1.638,0,0,0-.336-1.144,1.43,1.43,0,0,0-1.088-.36,3.452,3.452,0,0,0-.944.136q-.48.136-1.136.392a1.6,1.6,0,0,1-.608.208.6.6,0,0,1-.472-.208.791.791,0,0,1-.184-.544.819.819,0,0,1,.136-.472,1.291,1.291,0,0,1,.456-.376,5.215,5.215,0,0,1,1.336-.48A6.893,6.893,0,0,1,55.5-8.016Zm-.5,6.7a1.709,1.709,0,0,0,1.3-.536,1.939,1.939,0,0,0,.5-1.384v-.336h-.288a11.038,11.038,0,0,0-1.664.1,1.616,1.616,0,0,0-.848.336.856.856,0,0,0-.256.656,1.085,1.085,0,0,0,.36.84A1.27,1.27,0,0,0,55.008-1.312Z" transform="translate(696 880)"/>
      <path id="Trazado_23865" data-name="Trazado 23865" class="cls-6" d="M11.44-1.232a.985.985,0,0,1,.1.416.8.8,0,0,1-.3.624,1.009,1.009,0,0,1-.68.256.909.909,0,0,1-.48-.136A.907.907,0,0,1,9.728-.5L8.768-2.64H3.136L2.176-.5a.907.907,0,0,1-.352.424.937.937,0,0,1-.5.136A1.019,1.019,0,0,1,.656-.192a.787.787,0,0,1-.3-.624.985.985,0,0,1,.1-.416L4.864-10.72a1.032,1.032,0,0,1,.44-.488,1.26,1.26,0,0,1,.632-.168,1.26,1.26,0,0,1,.632.168,1.032,1.032,0,0,1,.44.488ZM3.84-4.24H8.064L5.952-8.992Zm2.352-7.984a.568.568,0,0,1-.256.064.494.494,0,0,1-.352-.136.418.418,0,0,1-.144-.312.507.507,0,0,1,.176-.352l1.456-1.5a.928.928,0,0,1,.688-.32.754.754,0,0,1,.552.232.736.736,0,0,1,.232.536.682.682,0,0,1-.136.4A1.141,1.141,0,0,1,8-13.28Zm11.072,4.24a.861.861,0,0,1,.656.176.781.781,0,0,1,.24.624.872.872,0,0,1-.208.64,1.278,1.278,0,0,1-.752.272l-.48.048a1.944,1.944,0,0,0-1.384.64,2.093,2.093,0,0,0-.44,1.36v3.36a.888.888,0,0,1-.288.712,1.064,1.064,0,0,1-.72.248,1.034,1.034,0,0,1-.712-.248.9.9,0,0,1-.28-.712V-7.056a.856.856,0,0,1,.28-.688,1.032,1.032,0,0,1,.7-.24.962.962,0,0,1,.672.232.85.85,0,0,1,.256.664v.64a2.368,2.368,0,0,1,.9-1.088,2.771,2.771,0,0,1,1.336-.432Zm7.776,5.84a.538.538,0,0,1,.44.208.865.865,0,0,1,.168.56.97.97,0,0,1-.592.832,5.349,5.349,0,0,1-1.232.488,5.079,5.079,0,0,1-1.312.184A4.077,4.077,0,0,1,19.52-.96a3.988,3.988,0,0,1-1.1-2.976,4.566,4.566,0,0,1,.48-2.128A3.49,3.49,0,0,1,20.248-7.5a3.829,3.829,0,0,1,1.976-.512,3.546,3.546,0,0,1,1.84.464A3.146,3.146,0,0,1,25.28-6.24a4.353,4.353,0,0,1,.432,2q0,.688-.608.688h-4.72a2.517,2.517,0,0,0,.624,1.624,2.1,2.1,0,0,0,1.536.52,2.913,2.913,0,0,0,.9-.128,8.923,8.923,0,0,0,.888-.352A1.766,1.766,0,0,1,25.04-2.144ZM22.272-6.608a1.717,1.717,0,0,0-1.3.512,2.417,2.417,0,0,0-.584,1.472H24a2.281,2.281,0,0,0-.48-1.48A1.583,1.583,0,0,0,22.272-6.608ZM30.72-8.016a3.259,3.259,0,0,1,2.424.808,3.383,3.383,0,0,1,.792,2.456v3.9a.9.9,0,0,1-.256.68.969.969,0,0,1-.7.248.936.936,0,0,1-.68-.256.894.894,0,0,1-.264-.672V-1.2a2.088,2.088,0,0,1-.856.976,2.568,2.568,0,0,1-1.352.352A3.139,3.139,0,0,1,28.4-.192a2.533,2.533,0,0,1-1.008-.88,2.224,2.224,0,0,1-.368-1.248,1.977,1.977,0,0,1,.44-1.36A2.644,2.644,0,0,1,28.9-4.4a13.041,13.041,0,0,1,2.736-.224h.4v-.368A1.638,1.638,0,0,0,31.7-6.136a1.43,1.43,0,0,0-1.088-.36,3.452,3.452,0,0,0-.944.136q-.48.136-1.136.392a1.6,1.6,0,0,1-.608.208.6.6,0,0,1-.472-.208.791.791,0,0,1-.184-.544.819.819,0,0,1,.136-.472,1.291,1.291,0,0,1,.456-.376,5.215,5.215,0,0,1,1.336-.48A6.893,6.893,0,0,1,30.72-8.016Zm-.5,6.7a1.709,1.709,0,0,0,1.3-.536,1.939,1.939,0,0,0,.5-1.384v-.336h-.288a11.038,11.038,0,0,0-1.664.1,1.616,1.616,0,0,0-.848.336.856.856,0,0,0-.256.656,1.085,1.085,0,0,0,.36.84A1.27,1.27,0,0,0,30.224-1.312Zm13.44-6.7a3.259,3.259,0,0,1,2.424.808,3.383,3.383,0,0,1,.792,2.456v3.9a.9.9,0,0,1-.256.68.969.969,0,0,1-.7.248.936.936,0,0,1-.68-.256.894.894,0,0,1-.264-.672V-1.2a2.088,2.088,0,0,1-.856.976,2.568,2.568,0,0,1-1.352.352,3.139,3.139,0,0,1-1.424-.32,2.533,2.533,0,0,1-1.008-.88,2.224,2.224,0,0,1-.368-1.248,1.977,1.977,0,0,1,.44-1.36A2.644,2.644,0,0,1,41.84-4.4a13.041,13.041,0,0,1,2.736-.224h.4v-.368a1.638,1.638,0,0,0-.336-1.144,1.43,1.43,0,0,0-1.088-.36,3.452,3.452,0,0,0-.944.136q-.48.136-1.136.392a1.6,1.6,0,0,1-.608.208.6.6,0,0,1-.472-.208.791.791,0,0,1-.184-.544.819.819,0,0,1,.136-.472A1.291,1.291,0,0,1,40.8-7.36a5.215,5.215,0,0,1,1.336-.48A6.893,6.893,0,0,1,43.664-8.016Zm-.5,6.7a1.709,1.709,0,0,0,1.3-.536,1.939,1.939,0,0,0,.5-1.384v-.336h-.288a11.038,11.038,0,0,0-1.664.1,1.616,1.616,0,0,0-.848.336.856.856,0,0,0-.256.656,1.085,1.085,0,0,0,.36.84A1.27,1.27,0,0,0,43.168-1.312Zm9.2,1.44a4.146,4.146,0,0,1-2.056-.5,3.381,3.381,0,0,1-1.368-1.408,4.505,4.505,0,0,1-.48-2.128,4.468,4.468,0,0,1,.5-2.152A3.56,3.56,0,0,1,50.384-7.5a4.208,4.208,0,0,1,2.1-.512,4.665,4.665,0,0,1,1.256.176,4.143,4.143,0,0,1,1.112.48.99.99,0,0,1,.512.848.9.9,0,0,1-.168.568.531.531,0,0,1-.44.216.956.956,0,0,1-.368-.08A3.222,3.222,0,0,1,54-6a4.3,4.3,0,0,0-.672-.328,2.088,2.088,0,0,0-.736-.12,1.871,1.871,0,0,0-1.528.648,2.855,2.855,0,0,0-.536,1.864,2.827,2.827,0,0,0,.536,1.848,1.871,1.871,0,0,0,1.528.648,1.973,1.973,0,0,0,.712-.12,6.031,6.031,0,0,0,.7-.328,3.168,3.168,0,0,1,.416-.216.923.923,0,0,1,.352-.072.531.531,0,0,1,.432.224.879.879,0,0,1,.176.56.9.9,0,0,1-.12.472,1.081,1.081,0,0,1-.392.36,4.207,4.207,0,0,1-1.152.5A4.953,4.953,0,0,1,52.368.128Zm7.792,0a4.146,4.146,0,0,1-2.056-.5,3.381,3.381,0,0,1-1.368-1.408,4.505,4.505,0,0,1-.48-2.128,4.468,4.468,0,0,1,.5-2.152A3.56,3.56,0,0,1,58.176-7.5a4.208,4.208,0,0,1,2.1-.512,4.665,4.665,0,0,1,1.256.176,4.143,4.143,0,0,1,1.112.48.99.99,0,0,1,.512.848.9.9,0,0,1-.168.568.531.531,0,0,1-.44.216.956.956,0,0,1-.368-.08A3.222,3.222,0,0,1,61.792-6a4.3,4.3,0,0,0-.672-.328,2.088,2.088,0,0,0-.736-.12,1.871,1.871,0,0,0-1.528.648,2.855,2.855,0,0,0-.536,1.864,2.827,2.827,0,0,0,.536,1.848,1.871,1.871,0,0,0,1.528.648,1.973,1.973,0,0,0,.712-.12,6.031,6.031,0,0,0,.7-.328,3.168,3.168,0,0,1,.416-.216.923.923,0,0,1,.352-.072.531.531,0,0,1,.432.224.879.879,0,0,1,.176.56.9.9,0,0,1-.12.472,1.081,1.081,0,0,1-.392.36,4.207,4.207,0,0,1-1.152.5A4.953,4.953,0,0,1,60.16.128ZM65.472.1a1.034,1.034,0,0,1-.712-.248.9.9,0,0,1-.28-.712V-7.04a.876.876,0,0,1,.28-.7,1.055,1.055,0,0,1,.712-.24,1.087,1.087,0,0,1,.72.24.864.864,0,0,1,.288.7V-.864a.888.888,0,0,1-.288.712A1.064,1.064,0,0,1,65.472.1Zm0-9.5a1.222,1.222,0,0,1-.864-.3,1.008,1.008,0,0,1-.32-.776.983.983,0,0,1,.32-.768,1.243,1.243,0,0,1,.864-.288,1.25,1.25,0,0,1,.856.288.971.971,0,0,1,.328.768,1.008,1.008,0,0,1-.32.776A1.222,1.222,0,0,1,65.472-9.408ZM72.1.128a4.3,4.3,0,0,1-2.1-.5,3.432,3.432,0,0,1-1.4-1.424,4.515,4.515,0,0,1-.5-2.16,4.468,4.468,0,0,1,.5-2.152,3.444,3.444,0,0,1,1.4-1.416,4.3,4.3,0,0,1,2.1-.5,4.3,4.3,0,0,1,2.1.5A3.394,3.394,0,0,1,75.592-6.1a4.528,4.528,0,0,1,.488,2.152,4.575,4.575,0,0,1-.488,2.16A3.382,3.382,0,0,1,74.2-.368,4.3,4.3,0,0,1,72.1.128ZM72.08-1.424a1.793,1.793,0,0,0,1.488-.64,2.973,2.973,0,0,0,.512-1.888,2.979,2.979,0,0,0-.512-1.88A1.765,1.765,0,0,0,72.1-6.48a1.788,1.788,0,0,0-1.48.648,2.946,2.946,0,0,0-.52,1.88,2.973,2.973,0,0,0,.512,1.888A1.775,1.775,0,0,0,72.08-1.424ZM82.256-8.016a2.615,2.615,0,0,1,2.1.8A3.628,3.628,0,0,1,85.04-4.8V-.864a.935.935,0,0,1-.264.7A1,1,0,0,1,84.048.1a1.03,1.03,0,0,1-.736-.256.92.92,0,0,1-.272-.7V-4.688A2.074,2.074,0,0,0,82.7-6.016a1.322,1.322,0,0,0-1.08-.416,1.826,1.826,0,0,0-1.384.544,2.019,2.019,0,0,0-.52,1.456V-.864a.92.92,0,0,1-.272.7A1.03,1.03,0,0,1,78.7.1a1,1,0,0,1-.728-.256.935.935,0,0,1-.264-.7V-7.056a.88.88,0,0,1,.272-.672,1.03,1.03,0,0,1,.736-.256.953.953,0,0,1,.68.248.848.848,0,0,1,.264.648v.432a2.706,2.706,0,0,1,1.072-1.008A3.226,3.226,0,0,1,82.256-8.016Zm8.192,0a3.259,3.259,0,0,1,2.424.808,3.383,3.383,0,0,1,.792,2.456v3.9a.9.9,0,0,1-.256.68.969.969,0,0,1-.7.248.936.936,0,0,1-.68-.256.894.894,0,0,1-.264-.672V-1.2a2.088,2.088,0,0,1-.856.976,2.568,2.568,0,0,1-1.352.352,3.139,3.139,0,0,1-1.424-.32,2.533,2.533,0,0,1-1.008-.88,2.224,2.224,0,0,1-.368-1.248,1.977,1.977,0,0,1,.44-1.36,2.644,2.644,0,0,1,1.432-.72,13.041,13.041,0,0,1,2.736-.224h.4v-.368a1.638,1.638,0,0,0-.336-1.144,1.43,1.43,0,0,0-1.088-.36,3.452,3.452,0,0,0-.944.136q-.48.136-1.136.392a1.6,1.6,0,0,1-.608.208.6.6,0,0,1-.472-.208.791.791,0,0,1-.184-.544.819.819,0,0,1,.136-.472,1.291,1.291,0,0,1,.456-.376,5.215,5.215,0,0,1,1.336-.48A6.893,6.893,0,0,1,90.448-8.016Zm-.5,6.7a1.709,1.709,0,0,0,1.3-.536,1.939,1.939,0,0,0,.5-1.384v-.336h-.288a11.038,11.038,0,0,0-1.664.1,1.615,1.615,0,0,0-.848.336.856.856,0,0,0-.256.656,1.085,1.085,0,0,0,.36.84A1.27,1.27,0,0,0,89.952-1.312Zm10.224-6.7a3.309,3.309,0,0,1,1.808.5,3.333,3.333,0,0,1,1.224,1.408,4.845,4.845,0,0,1,.44,2.128,5,5,0,0,1-.44,2.152,3.4,3.4,0,0,1-1.232,1.448,3.243,3.243,0,0,1-1.8.512A3.066,3.066,0,0,1,98.664-.24a2.5,2.5,0,0,1-1.016-1.024v.4a.9.9,0,0,1-.272.688,1.008,1.008,0,0,1-.72.256.979.979,0,0,1-.712-.256.914.914,0,0,1-.264-.688v-9.568a.868.868,0,0,1,.28-.672,1.037,1.037,0,0,1,.728-.256,1.048,1.048,0,0,1,.72.24.83.83,0,0,1,.272.656v3.776a2.392,2.392,0,0,1,1.008-.984A3.156,3.156,0,0,1,100.176-8.016Zm-.528,6.592A1.766,1.766,0,0,0,101.12-2.1a2.989,2.989,0,0,0,.528-1.888,2.854,2.854,0,0,0-.52-1.84,1.8,1.8,0,0,0-1.48-.64,1.788,1.788,0,0,0-1.48.648,2.917,2.917,0,0,0-.52,1.864,2.952,2.952,0,0,0,.52,1.872A1.779,1.779,0,0,0,99.648-1.424ZM106.272.1a1.034,1.034,0,0,1-.712-.248.9.9,0,0,1-.28-.712v-9.552a.876.876,0,0,1,.28-.7,1.055,1.055,0,0,1,.712-.24,1.087,1.087,0,0,1,.72.24.864.864,0,0,1,.288.7V-.864a.888.888,0,0,1-.288.712A1.064,1.064,0,0,1,106.272.1Zm9.248-2.24a.538.538,0,0,1,.44.208.865.865,0,0,1,.168.56.97.97,0,0,1-.592.832,5.349,5.349,0,0,1-1.232.488,5.079,5.079,0,0,1-1.312.184A4.077,4.077,0,0,1,110-.96a3.988,3.988,0,0,1-1.1-2.976,4.566,4.566,0,0,1,.48-2.128,3.49,3.49,0,0,1,1.352-1.44,3.829,3.829,0,0,1,1.976-.512,3.546,3.546,0,0,1,1.84.464A3.146,3.146,0,0,1,115.76-6.24a4.353,4.353,0,0,1,.432,2q0,.688-.608.688h-4.72a2.517,2.517,0,0,0,.624,1.624,2.1,2.1,0,0,0,1.536.52,2.913,2.913,0,0,0,.9-.128,8.923,8.923,0,0,0,.888-.352A1.766,1.766,0,0,1,115.52-2.144Zm-2.768-4.464a1.717,1.717,0,0,0-1.3.512,2.417,2.417,0,0,0-.584,1.472h3.616A2.281,2.281,0,0,0,114-6.1,1.583,1.583,0,0,0,112.752-6.608Z" transform="translate(903 880)"/>
      <path id="Trazado_23870" data-name="Trazado 23870" class="cls-6" d="M2.24.1A.99.99,0,0,1,1.5-.192a1.033,1.033,0,0,1-.28-.752v-9.392a1.006,1.006,0,0,1,.28-.744,1.006,1.006,0,0,1,.744-.28,1.027,1.027,0,0,1,.76.28,1.006,1.006,0,0,1,.28.744V-.944A1.033,1.033,0,0,1,3-.192,1.011,1.011,0,0,1,2.24.1ZM2.5-12.224a.568.568,0,0,1-.256.064.494.494,0,0,1-.352-.136.418.418,0,0,1-.144-.312.507.507,0,0,1,.176-.352l1.456-1.5a.928.928,0,0,1,.688-.32.754.754,0,0,1,.552.232.736.736,0,0,1,.232.536.682.682,0,0,1-.136.4,1.141,1.141,0,0,1-.408.336ZM8.992.128a4.146,4.146,0,0,1-2.056-.5A3.381,3.381,0,0,1,5.568-1.776,4.505,4.505,0,0,1,5.088-3.9a4.468,4.468,0,0,1,.5-2.152A3.56,3.56,0,0,1,7.008-7.5a4.208,4.208,0,0,1,2.1-.512,4.665,4.665,0,0,1,1.256.176,4.143,4.143,0,0,1,1.112.48.99.99,0,0,1,.512.848.9.9,0,0,1-.168.568.531.531,0,0,1-.44.216.956.956,0,0,1-.368-.08A3.223,3.223,0,0,1,10.624-6a4.3,4.3,0,0,0-.672-.328,2.088,2.088,0,0,0-.736-.12A1.871,1.871,0,0,0,7.688-5.8a2.855,2.855,0,0,0-.536,1.864,2.827,2.827,0,0,0,.536,1.848,1.871,1.871,0,0,0,1.528.648,1.973,1.973,0,0,0,.712-.12,6.031,6.031,0,0,0,.7-.328A3.168,3.168,0,0,1,11.04-2.1a.923.923,0,0,1,.352-.072.531.531,0,0,1,.432.224.879.879,0,0,1,.176.56.9.9,0,0,1-.12.472,1.081,1.081,0,0,1-.392.36,4.207,4.207,0,0,1-1.152.5A4.953,4.953,0,0,1,8.992.128Zm7.888,0a4.3,4.3,0,0,1-2.1-.5,3.432,3.432,0,0,1-1.4-1.424,4.515,4.515,0,0,1-.5-2.16,4.468,4.468,0,0,1,.5-2.152,3.444,3.444,0,0,1,1.4-1.416,4.3,4.3,0,0,1,2.1-.5,4.3,4.3,0,0,1,2.1.5A3.394,3.394,0,0,1,20.376-6.1a4.527,4.527,0,0,1,.488,2.152,4.575,4.575,0,0,1-.488,2.16A3.382,3.382,0,0,1,18.984-.368,4.3,4.3,0,0,1,16.88.128Zm-.016-1.552a1.793,1.793,0,0,0,1.488-.64,2.973,2.973,0,0,0,.512-1.888,2.979,2.979,0,0,0-.512-1.88A1.765,1.765,0,0,0,16.88-6.48a1.788,1.788,0,0,0-1.48.648,2.946,2.946,0,0,0-.52,1.88,2.973,2.973,0,0,0,.512,1.888A1.775,1.775,0,0,0,16.864-1.424ZM27.04-8.016a2.615,2.615,0,0,1,2.1.8A3.628,3.628,0,0,1,29.824-4.8V-.864a.935.935,0,0,1-.264.7A1,1,0,0,1,28.832.1,1.03,1.03,0,0,1,28.1-.16a.92.92,0,0,1-.272-.7V-4.688a2.074,2.074,0,0,0-.344-1.328,1.322,1.322,0,0,0-1.08-.416,1.826,1.826,0,0,0-1.384.544,2.019,2.019,0,0,0-.52,1.456V-.864a.92.92,0,0,1-.272.7A1.03,1.03,0,0,1,23.488.1,1,1,0,0,1,22.76-.16a.935.935,0,0,1-.264-.7V-7.056a.88.88,0,0,1,.272-.672,1.03,1.03,0,0,1,.736-.256.953.953,0,0,1,.68.248.848.848,0,0,1,.264.648v.432A2.706,2.706,0,0,1,25.52-7.664,3.226,3.226,0,0,1,27.04-8.016ZM35.408.128a4.3,4.3,0,0,1-2.1-.5,3.432,3.432,0,0,1-1.4-1.424,4.515,4.515,0,0,1-.5-2.16A4.468,4.468,0,0,1,31.9-6.1,3.444,3.444,0,0,1,33.3-7.52a4.3,4.3,0,0,1,2.1-.5,4.3,4.3,0,0,1,2.1.5A3.394,3.394,0,0,1,38.9-6.1a4.527,4.527,0,0,1,.488,2.152,4.575,4.575,0,0,1-.488,2.16A3.382,3.382,0,0,1,37.512-.368,4.3,4.3,0,0,1,35.408.128Zm-.016-1.552a1.793,1.793,0,0,0,1.488-.64,2.973,2.973,0,0,0,.512-1.888,2.979,2.979,0,0,0-.512-1.88,1.765,1.765,0,0,0-1.472-.648,1.788,1.788,0,0,0-1.48.648,2.946,2.946,0,0,0-.52,1.88,2.973,2.973,0,0,0,.512,1.888A1.775,1.775,0,0,0,35.392-1.424Z" transform="translate(588 700)"/>
      <path id="Trazado_23872" data-name="Trazado 23872" class="cls-6" d="M6.256.144A5.628,5.628,0,0,1,3.4-.56,4.68,4.68,0,0,1,1.52-2.576,6.789,6.789,0,0,1,.864-5.648,6.738,6.738,0,0,1,1.52-8.712,4.69,4.69,0,0,1,3.4-10.72a5.628,5.628,0,0,1,2.856-.7,6.186,6.186,0,0,1,1.984.312,5.155,5.155,0,0,1,1.648.9.918.918,0,0,1,.288.336,1.041,1.041,0,0,1,.08.432.918.918,0,0,1-.192.592.577.577,0,0,1-.464.24,1.183,1.183,0,0,1-.656-.224,4.744,4.744,0,0,0-1.28-.712,4.08,4.08,0,0,0-1.312-.2A3.075,3.075,0,0,0,3.832-8.7a4.712,4.712,0,0,0-.856,3.056,4.741,4.741,0,0,0,.856,3.072,3.075,3.075,0,0,0,2.52,1.04,3.766,3.766,0,0,0,1.272-.208,6.1,6.1,0,0,0,1.32-.7,2.239,2.239,0,0,1,.32-.16A.9.9,0,0,1,9.6-2.672a.577.577,0,0,1,.464.24.918.918,0,0,1,.192.592,1.055,1.055,0,0,1-.08.424.9.9,0,0,1-.288.344,5.155,5.155,0,0,1-1.648.9A6.186,6.186,0,0,1,6.256.144ZM12.864.1a1.034,1.034,0,0,1-.712-.248.9.9,0,0,1-.28-.712V-7.04a.876.876,0,0,1,.28-.7,1.055,1.055,0,0,1,.712-.24,1.087,1.087,0,0,1,.72.24.864.864,0,0,1,.288.7V-.864a.888.888,0,0,1-.288.712A1.064,1.064,0,0,1,12.864.1Zm0-9.5A1.222,1.222,0,0,1,12-9.7a1.008,1.008,0,0,1-.32-.776.983.983,0,0,1,.32-.768,1.243,1.243,0,0,1,.864-.288,1.25,1.25,0,0,1,.856.288.971.971,0,0,1,.328.768,1.008,1.008,0,0,1-.32.776A1.222,1.222,0,0,1,12.864-9.408Zm9.248,7.264a.538.538,0,0,1,.44.208.865.865,0,0,1,.168.56.97.97,0,0,1-.592.832A5.349,5.349,0,0,1,20.9-.056a5.079,5.079,0,0,1-1.312.184A4.077,4.077,0,0,1,16.592-.96a3.988,3.988,0,0,1-1.1-2.976,4.566,4.566,0,0,1,.48-2.128A3.49,3.49,0,0,1,17.32-7.5,3.829,3.829,0,0,1,19.3-8.016a3.546,3.546,0,0,1,1.84.464A3.146,3.146,0,0,1,22.352-6.24a4.353,4.353,0,0,1,.432,2q0,.688-.608.688h-4.72a2.517,2.517,0,0,0,.624,1.624,2.1,2.1,0,0,0,1.536.52,2.913,2.913,0,0,0,.9-.128,8.923,8.923,0,0,0,.888-.352A1.766,1.766,0,0,1,22.112-2.144ZM19.344-6.608a1.717,1.717,0,0,0-1.3.512,2.417,2.417,0,0,0-.584,1.472h3.616a2.281,2.281,0,0,0-.48-1.48A1.583,1.583,0,0,0,19.344-6.608Zm9.424-1.376a.861.861,0,0,1,.656.176.781.781,0,0,1,.24.624.872.872,0,0,1-.208.64,1.278,1.278,0,0,1-.752.272l-.48.048a1.944,1.944,0,0,0-1.384.64,2.093,2.093,0,0,0-.44,1.36v3.36a.888.888,0,0,1-.288.712,1.064,1.064,0,0,1-.72.248,1.034,1.034,0,0,1-.712-.248.9.9,0,0,1-.28-.712V-7.056a.856.856,0,0,1,.28-.688,1.032,1.032,0,0,1,.7-.24.962.962,0,0,1,.672.232.85.85,0,0,1,.256.664v.64a2.368,2.368,0,0,1,.9-1.088,2.771,2.771,0,0,1,1.336-.432Zm6.112,0a.861.861,0,0,1,.656.176.781.781,0,0,1,.24.624.872.872,0,0,1-.208.64,1.278,1.278,0,0,1-.752.272l-.48.048a1.944,1.944,0,0,0-1.384.64,2.093,2.093,0,0,0-.44,1.36v3.36a.888.888,0,0,1-.288.712A1.064,1.064,0,0,1,31.5.1a1.034,1.034,0,0,1-.712-.248.9.9,0,0,1-.28-.712V-7.056a.856.856,0,0,1,.28-.688,1.032,1.032,0,0,1,.7-.24.962.962,0,0,1,.672.232.85.85,0,0,1,.256.664v.64a2.368,2.368,0,0,1,.9-1.088,2.771,2.771,0,0,1,1.336-.432Zm7.776,5.84a.538.538,0,0,1,.44.208.865.865,0,0,1,.168.56.97.97,0,0,1-.592.832,5.349,5.349,0,0,1-1.232.488,5.079,5.079,0,0,1-1.312.184A4.077,4.077,0,0,1,37.136-.96a3.988,3.988,0,0,1-1.1-2.976,4.566,4.566,0,0,1,.48-2.128A3.49,3.49,0,0,1,37.864-7.5a3.829,3.829,0,0,1,1.976-.512,3.546,3.546,0,0,1,1.84.464A3.146,3.146,0,0,1,42.9-6.24a4.354,4.354,0,0,1,.432,2q0,.688-.608.688H38a2.517,2.517,0,0,0,.624,1.624,2.1,2.1,0,0,0,1.536.52,2.913,2.913,0,0,0,.9-.128,8.923,8.923,0,0,0,.888-.352A1.766,1.766,0,0,1,42.656-2.144ZM39.888-6.608a1.717,1.717,0,0,0-1.3.512A2.417,2.417,0,0,0,38-4.624h3.616a2.281,2.281,0,0,0-.48-1.48A1.583,1.583,0,0,0,39.888-6.608Z" transform="translate(1114 700)"/>
      <g id="Trazado_23869" data-name="Trazado 23869" class="cls-12" transform="translate(633.901 784.286) rotate(-90)">
        <path class="cls-13" d="M0,0H24V475H0Z"/>
        <path class="cls-15" d="M 7 -3.0517578125e-05 L 12 -3.0517578125e-05 L 12 0.999969482421875 L 7 0.999969482421875 L 7 -3.0517578125e-05 Z M 14 -3.0517578125e-05 L 19 -3.0517578125e-05 L 19 0.999969482421875 L 14 0.999969482421875 L 14 -3.0517578125e-05 Z M 21 -3.0517578125e-05 L 24 -3.0517578125e-05 L 24 0.999969482421875 L 24 0.999969482421875 C 24 1.499969482421875 24 1.999969482421875 24 1.999969482421875 L 23 1.999969482421875 L 23 0.999969482421875 L 21 0.999969482421875 L 21 -3.0517578125e-05 Z M 23 3.999969482421875 L 24 3.999969482421875 C 24 3.999969482421875 24 8.999969482421875 24 8.999969482421875 L 23 8.999969482421875 L 23 3.999969482421875 Z M 23 10.99996948242188 L 24 10.99996948242188 C 24 10.99996948242188 24 15.99996948242188 24 15.99996948242188 L 23 15.99996948242188 L 23 10.99996948242188 Z M 23 17.99996948242188 L 24 17.99996948242188 C 24 17.99996948242188 24 22.99996948242188 24 22.99996948242188 L 23 22.99996948242188 L 23 17.99996948242188 Z M 23 24.99996948242188 L 24 24.99996948242188 C 24 24.99996948242188 24 29.99996948242188 24 29.99996948242188 L 23 29.99996948242188 L 23 24.99996948242188 Z M 23 31.99996948242188 L 24 31.99996948242188 C 24 31.99996948242188 24 36.99996948242188 24 36.99996948242188 L 23 36.99996948242188 L 23 31.99996948242188 Z M 23 38.99996948242188 L 24 38.99996948242188 C 24 38.99996948242188 24 43.99996948242188 24 43.99996948242188 L 23 43.99996948242188 L 23 38.99996948242188 Z M 23 45.99996948242188 L 24 45.99996948242188 C 24 45.99996948242188 24 50.99996948242188 24 50.99996948242188 L 23 50.99996948242188 L 23 45.99996948242188 Z M 23 52.99996948242188 L 24 52.99996948242188 C 24 52.99996948242188 24 57.99996948242188 24 57.99996948242188 L 23 57.99996948242188 L 23 52.99996948242188 Z M 23 59.99996948242188 L 24 59.99996948242188 C 24 59.99996948242188 24 64.99996948242188 24 64.99996948242188 L 23 64.99996948242188 L 23 59.99996948242188 Z M 23 66.99996948242188 L 24 66.99996948242188 C 24 66.99996948242188 24 71.99996948242188 24 71.99996948242188 L 23 71.99996948242188 L 23 66.99996948242188 Z M 23 73.99996948242188 L 24 73.99996948242188 C 24 73.99996948242188 24 78.99996948242188 24 78.99996948242188 L 23 78.99996948242188 L 23 73.99996948242188 Z M 23 80.99996948242188 L 24 80.99996948242188 C 24 80.99996948242188 24 85.99996948242188 24 85.99996948242188 L 23 85.99996948242188 L 23 80.99996948242188 Z M 23 87.99996948242188 L 24 87.99996948242188 C 24 87.99996948242188 24 92.99996948242188 24 92.99996948242188 L 23 92.99996948242188 L 23 87.99996948242188 Z M 23 94.99996948242188 L 24 94.99996948242188 C 24 94.99996948242188 24 99.99996948242188 24 99.99996948242188 L 23 99.99996948242188 L 23 94.99996948242188 Z M 23 101.9999694824219 L 24 101.9999694824219 C 24 101.9999694824219 24 106.9999694824219 24 106.9999694824219 L 23 106.9999694824219 L 23 101.9999694824219 Z M 23 108.9999694824219 L 24 108.9999694824219 C 24 108.9999694824219 24 113.9999694824219 24 113.9999694824219 L 23 113.9999694824219 L 23 108.9999694824219 Z M 23 115.9999694824219 L 24 115.9999694824219 C 24 115.9999694824219 24 120.9999694824219 24 120.9999694824219 L 23 120.9999694824219 L 23 115.9999694824219 Z M 23 122.9999694824219 L 24 122.9999694824219 C 24 122.9999694824219 24 127.9999694824219 24 127.9999694824219 L 23 127.9999694824219 L 23 122.9999694824219 Z M 23 129.9999694824219 L 24 129.9999694824219 C 24 129.9999694824219 24 134.9999694824219 24 134.9999694824219 L 23 134.9999694824219 L 23 129.9999694824219 Z M 23 136.9999694824219 L 24 136.9999694824219 C 24 136.9999694824219 24 141.9999694824219 24 141.9999694824219 L 23 141.9999694824219 L 23 136.9999694824219 Z M 23 143.9999694824219 L 24 143.9999694824219 C 24 143.9999694824219 24 148.9999694824219 24 148.9999694824219 L 23 148.9999694824219 L 23 143.9999694824219 Z M 23 150.9999694824219 L 24 150.9999694824219 C 24 150.9999694824219 24 155.9999694824219 24 155.9999694824219 L 23 155.9999694824219 L 23 150.9999694824219 Z M 23 157.9999694824219 L 24 157.9999694824219 C 24 157.9999694824219 24 162.9999694824219 24 162.9999694824219 L 23 162.9999694824219 L 23 157.9999694824219 Z M 23 164.9999694824219 L 24 164.9999694824219 C 24 164.9999694824219 24 169.9999694824219 24 169.9999694824219 L 23 169.9999694824219 L 23 164.9999694824219 Z M 23 171.9999694824219 L 24 171.9999694824219 C 24 171.9999694824219 24 176.9999694824219 24 176.9999694824219 L 23 176.9999694824219 L 23 171.9999694824219 Z M 23 178.9999694824219 L 24 178.9999694824219 C 24 178.9999694824219 24 183.9999694824219 24 183.9999694824219 L 23 183.9999694824219 L 23 178.9999694824219 Z M 23 185.9999694824219 L 24 185.9999694824219 C 24 185.9999694824219 24 190.9999694824219 24 190.9999694824219 L 23 190.9999694824219 L 23 185.9999694824219 Z M 23 192.9999694824219 L 24 192.9999694824219 C 24 192.9999694824219 24 197.9999694824219 24 197.9999694824219 L 23 197.9999694824219 L 23 192.9999694824219 Z M 23 199.9999694824219 L 24 199.9999694824219 C 24 199.9999694824219 24 204.9999694824219 24 204.9999694824219 L 23 204.9999694824219 L 23 199.9999694824219 Z M 23 206.9999694824219 L 24 206.9999694824219 C 24 206.9999694824219 24 211.9999694824219 24 211.9999694824219 L 23 211.9999694824219 L 23 206.9999694824219 Z M 23 213.9999694824219 L 24 213.9999694824219 C 24 213.9999694824219 24 218.9999847412109 24 218.9999847412109 L 23 218.9999847412109 L 23 213.9999694824219 Z M 23 220.9999847412109 L 24 220.9999847412109 C 24 220.9999847412109 24 225.9999847412109 24 225.9999847412109 L 23 225.9999847412109 L 23 220.9999847412109 Z M 23 227.9999847412109 L 24 227.9999847412109 C 24 227.9999847412109 24 232.9999847412109 24 232.9999847412109 L 23 232.9999847412109 L 23 227.9999847412109 Z M 23 234.9999847412109 L 24 234.9999847412109 C 24 234.9999847412109 24 239.9999847412109 24 239.9999847412109 L 23 239.9999847412109 L 23 234.9999847412109 Z M 23 241.9999847412109 L 24 241.9999847412109 C 24 241.9999847412109 24 246.9999847412109 24 246.9999847412109 L 23 246.9999847412109 L 23 241.9999847412109 Z M 23 248.9999847412109 L 24 248.9999847412109 C 24 248.9999847412109 24 253.9999847412109 24 253.9999847412109 L 23 253.9999847412109 L 23 248.9999847412109 Z M 23 255.9999847412109 L 24 255.9999847412109 C 24 255.9999847412109 24 261 24 261 L 23 261 L 23 255.9999847412109 Z M 23 263 L 24 263 C 24 263 24 268 24 268 L 23 268 L 23 263 Z M 23 270 L 24 270 C 24 270 24 275 24 275 L 23 275 L 23 270 Z M 23 277 L 24 277 C 24 277 24 282 24 282 L 23 282 L 23 277 Z M 23 284 L 24 284 C 24 284 24 289 24 289 L 23 289 L 23 284 Z M 23 291 L 24 291 C 24 291 24 296 24 296 L 23 296 L 23 291 Z M 23 298 L 24 298 C 24 298 24 303 24 303 L 23 303 L 23 298 Z M 23 305 L 24 305 C 24 305 24 310 24 310 L 23 310 L 23 305 Z M 23 312 L 24 312 C 24 312 24 317 24 317 L 23 317 L 23 312 Z M 23 319 L 24 319 C 24 319 24 324 24 324 L 23 324 L 23 319 Z M 23 326 L 24 326 C 24 326 24 331 24 331 L 23 331 L 23 326 Z M 23 333 L 24 333 C 24 333 24 338 24 338 L 23 338 L 23 333 Z M 23 340 L 24 340 C 24 340 24 345 24 345 L 23 345 L 23 340 Z M 23 347 L 24 347 C 24 347 24 352 24 352 L 23 352 L 23 347 Z M 23 354 L 24 354 C 24 354 24 359 24 359 L 23 359 L 23 354 Z M 23 361 L 24 361 C 24 361 24 366 24 366 L 23 366 L 23 361 Z M 23 368 L 24 368 C 24 368 24 373 24 373 L 23 373 L 23 368 Z M 23 375 L 24 375 C 24 375 24 380 24 380 L 23 380 L 23 375 Z M 23 382 L 24 382 C 24 382 24 387 24 387 L 23 387 L 23 382 Z M 23 389 L 24 389 C 24 389 24 394 24 394 L 23 394 L 23 389 Z M 23 396 L 24 396 C 24 396 24 401 24 401 L 23 401 L 23 396 Z M 23 403 L 24 403 C 24 403 24 408 24 408 L 23 408 L 23 403 Z M 23 410 L 24 410 C 24 410 24 415 24 415 L 23 415 L 23 410 Z M 23 417 L 24 417 C 24 417 24 422 24 422 L 23 422 L 23 417 Z M 23 424 L 24 424 C 24 424 24 429 24 429 L 23 429 L 23 424 Z M 23 431 L 24 431 C 24 431 24 436 24 436 L 23 436 L 23 431 Z M 23 438 L 24 438 C 24 438 24 443 24 443 L 23 443 L 23 438 Z M 23 445 L 24 445 C 24 445 24 450 24 450 L 23 450 L 23 445 Z M 23 452 L 24 452 C 24 452 24 457 24 457 L 23 457 L 23 452 Z M 23 459 L 24 459 C 24 459 24 464 24 464 L 23 464 L 23 459 Z M 23 466 L 24 466 C 24 466 24 471 24 471 L 23 471 L 23 466 Z M 23 473 L 24 473 C 24 473 24 475 24 475 L 23 475 L 23 475 L 23 475 L 23 475 L 23 475 C 22.12744140625 475 21 475 21 475 L 21 474 L 23 474 L 23 473 Z M 14 474 L 19 474 L 19 475 C 19 475 14 475 14 475 L 14 474 Z M 7 474 L 12 474 L 12 475 C 12 475 7 475 7 475 L 7 474 Z M 0 474 L 5 474 L 5 475 C 5 475 0 475 0 475 L 0 474 Z M 0 468 L 1 468 L 1 473 L 0 473 L 0 468 Z M 0 461 L 1 461 L 1 466 L 0 466 L 0 461 Z M 0 454 L 1 454 L 1 459 L 0 459 L 0 454 Z M 0 447 L 1 447 L 1 452 L 0 452 L 0 447 Z M 0 440 L 1 440 L 1 445 L 0 445 L 0 440 Z M 0 433 L 1 433 L 1 438 L 0 438 L 0 433 Z M 0 426 L 1 426 L 1 431 L 0 431 L 0 426 Z M 0 419 L 1 419 L 1 424 L 0 424 L 0 419 Z M 0 412 L 1 412 L 1 417 L 0 417 L 0 412 Z M 0 405 L 1 405 L 1 410 L 0 410 L 0 405 Z M 0 398 L 1 398 L 1 403 L 0 403 L 0 398 Z M 0 391 L 1 391 L 1 396 L 0 396 L 0 391 Z M 0 384 L 1 384 L 1 389 L 0 389 L 0 384 Z M 0 377 L 1 377 L 1 382 L 0 382 L 0 377 Z M 0 370 L 1 370 L 1 375 L 0 375 L 0 370 Z M 0 363 L 1 363 L 1 368 L 0 368 L 0 363 Z M 0 356 L 1 356 L 1 361 L 0 361 L 0 356 Z M 0 349 L 1 349 L 1 354 L 0 354 L 0 349 Z M 0 342 L 1 342 L 1 347 L 0 347 L 0 342 Z M 0 335 L 1 335 L 1 340 L 0 340 L 0 335 Z M 0 328 L 1 328 L 1 333 L 0 333 L 0 328 Z M 0 321 L 1 321 L 1 326 L 0 326 L 0 321 Z M 0 314 L 1 314 L 1 319 L 0 319 L 0 314 Z M 0 307 L 1 307 L 1 312 L 0 312 L 0 307 Z M 0 300 L 1 300 L 1 305 L 0 305 L 0 300 Z M 0 293 L 1 293 L 1 298 L 0 298 L 0 293 Z M 0 286 L 1 286 L 1 291 L 0 291 L 0 286 Z M 0 279 L 1 279 L 1 284 L 0 284 L 0 279 Z M 0 272 L 1 272 L 1 277 L 0 277 L 0 272 Z M 0 265 L 1 265 L 1 270 L 0 270 L 0 265 Z M 0 258 L 1 258 L 1 263 L 0 263 L 0 258 Z M 0 250.9999847412109 L 1 250.9999847412109 L 1 255.9999847412109 L 0 255.9999847412109 L 0 250.9999847412109 Z M 0 243.9999847412109 L 1 243.9999847412109 L 1 248.9999847412109 L 0 248.9999847412109 L 0 243.9999847412109 Z M 0 236.9999847412109 L 1 236.9999847412109 L 1 241.9999847412109 L 0 241.9999847412109 L 0 236.9999847412109 Z M 0 229.9999847412109 L 1 229.9999847412109 L 1 234.9999847412109 L 0 234.9999847412109 L 0 229.9999847412109 Z M 0 222.9999847412109 L 1 222.9999847412109 L 1 227.9999847412109 L 0 227.9999847412109 L 0 222.9999847412109 Z M 0 215.9999694824219 L 1 215.9999694824219 L 1 220.9999847412109 L 0 220.9999847412109 L 0 215.9999694824219 Z M 0 208.9999694824219 L 1 208.9999694824219 L 1 213.9999694824219 L 0 213.9999694824219 L 0 208.9999694824219 Z M 0 201.9999694824219 L 1 201.9999694824219 L 1 206.9999694824219 L 0 206.9999694824219 L 0 201.9999694824219 Z M 0 194.9999694824219 L 1 194.9999694824219 L 1 199.9999694824219 L 0 199.9999694824219 L 0 194.9999694824219 Z M 0 187.9999694824219 L 1 187.9999694824219 L 1 192.9999694824219 L 0 192.9999694824219 L 0 187.9999694824219 Z M 0 180.9999694824219 L 1 180.9999694824219 L 1 185.9999694824219 L 0 185.9999694824219 L 0 180.9999694824219 Z M 0 173.9999694824219 L 1 173.9999694824219 L 1 178.9999694824219 L 0 178.9999694824219 L 0 173.9999694824219 Z M 0 166.9999694824219 L 1 166.9999694824219 L 1 171.9999694824219 L 0 171.9999694824219 L 0 166.9999694824219 Z M 0 159.9999694824219 L 1 159.9999694824219 L 1 164.9999694824219 L 0 164.9999694824219 L 0 159.9999694824219 Z M 0 152.9999694824219 L 1 152.9999694824219 L 1 157.9999694824219 L 0 157.9999694824219 L 0 152.9999694824219 Z M 0 145.9999694824219 L 1 145.9999694824219 L 1 150.9999694824219 L 0 150.9999694824219 L 0 145.9999694824219 Z M 0 138.9999694824219 L 1 138.9999694824219 L 1 143.9999694824219 L 0 143.9999694824219 L 0 138.9999694824219 Z M 0 131.9999694824219 L 1 131.9999694824219 L 1 136.9999694824219 L 0 136.9999694824219 L 0 131.9999694824219 Z M 0 124.9999694824219 L 1 124.9999694824219 L 1 129.9999694824219 L 0 129.9999694824219 L 0 124.9999694824219 Z M 0 117.9999694824219 L 1 117.9999694824219 L 1 122.9999694824219 L 0 122.9999694824219 L 0 117.9999694824219 Z M 0 110.9999694824219 L 1 110.9999694824219 L 1 115.9999694824219 L 0 115.9999694824219 L 0 110.9999694824219 Z M 0 103.9999694824219 L 1 103.9999694824219 L 1 108.9999694824219 L 0 108.9999694824219 L 0 103.9999694824219 Z M 0 96.99996948242188 L 1 96.99996948242188 L 1 101.9999694824219 L 0 101.9999694824219 L 0 96.99996948242188 Z M 0 89.99996948242188 L 1 89.99996948242188 L 1 94.99996948242188 L 0 94.99996948242188 L 0 89.99996948242188 Z M 0 82.99996948242188 L 1 82.99996948242188 L 1 87.99996948242188 L 0 87.99996948242188 L 0 82.99996948242188 Z M 0 75.99996948242188 L 1 75.99996948242188 L 1 80.99996948242188 L 0 80.99996948242188 L 0 75.99996948242188 Z M 0 68.99996948242188 L 1 68.99996948242188 L 1 73.99996948242188 L 0 73.99996948242188 L 0 68.99996948242188 Z M 0 61.99996948242188 L 1 61.99996948242188 L 1 66.99996948242188 L 0 66.99996948242188 L 0 61.99996948242188 Z M 0 54.99996948242188 L 1 54.99996948242188 L 1 59.99996948242188 L 0 59.99996948242188 L 0 54.99996948242188 Z M 0 47.99996948242188 L 1 47.99996948242188 L 1 52.99996948242188 L 0 52.99996948242188 L 0 47.99996948242188 Z M 0 40.99996948242188 L 1 40.99996948242188 L 1 45.99996948242188 L 0 45.99996948242188 L 0 40.99996948242188 Z M 0 33.99996948242188 L 1 33.99996948242188 L 1 38.99996948242188 L 0 38.99996948242188 L 0 33.99996948242188 Z M 0 26.99996948242188 L 1 26.99996948242188 L 1 31.99996948242188 L 0 31.99996948242188 L 0 26.99996948242188 Z M 0 19.99996948242188 L 1 19.99996948242188 L 1 24.99996948242188 L 0 24.99996948242188 L 0 19.99996948242188 Z M 0 12.99996948242188 L 1 12.99996948242188 L 1 17.99996948242188 L 0 17.99996948242188 L 0 12.99996948242188 Z M 0 5.999969482421875 L 1 5.999969482421875 L 1 10.99996948242188 L 0 10.99996948242188 L 0 5.999969482421875 Z M 0 -3.0517578125e-05 L 5 -3.0517578125e-05 L 5 0.999969482421875 L 1 0.999969482421875 L 1 3.999969482421875 L 0 3.999969482421875 L 0 -3.0517578125e-05 Z"/>
      </g>
    </g>
  </g>
</svg>
