<svg xmlns="http://www.w3.org/2000/svg" width="712" height="267" viewBox="0 0 712 267">
  <g id="Grupo_18081" data-name="Grupo 18081" transform="translate(-513 -853)">
    <path id="Trazado_20250" data-name="Trazado 20250" d="M4,0H708a4,4,0,0,1,4,4V263a4,4,0,0,1-4,4H4a4,4,0,0,1-4-4V4A4,4,0,0,1,4,0Z" transform="translate(513 853)" fill="#f3f6f9"/>
    <g id="Grupo_18057" data-name="Grupo 18057" transform="translate(20 -134)">
      <g id="V1-Alerta-Titulo-Cerrar" transform="translate(529.248 1060.438)">
        <g id="Grupo_11759" data-name="Grupo 11759" transform="translate(0)">
          <g id="Rectángulo_3183" data-name="Rectángulo 3183" transform="translate(0)" fill="#fcf5f5" stroke="#c93b3b" stroke-width="2">
            <rect width="655.752" height="104.89" rx="4" stroke="none"/>
            <rect x="1" y="1" width="653.752" height="102.89" rx="3" fill="none"/>
          </g>
          <path id="Rectángulo_4769" data-name="Rectángulo 4769" d="M4,0H6A0,0,0,0,1,6,0V104.89a0,0,0,0,1,0,0H4a4,4,0,0,1-4-4V4A4,4,0,0,1,4,0Z" transform="translate(0)" fill="#c93b3b"/>
        </g>
        <g id="criss-cross" transform="translate(24 20)">
          <path id="Trazado_4660" data-name="Trazado 4660" d="M9.726,0A9.69,9.69,0,0,0,0,9.632a9.726,9.726,0,0,0,19.452,0A9.69,9.69,0,0,0,9.726,0Zm0,0" fill="#c93b3b"/>
          <path id="Trazado_4661" data-name="Trazado 4661" d="M162.872,161.666a.8.8,0,0,1,0,1.135.816.816,0,0,1-1.146,0l-2.436-2.412-2.436,2.412a.816.816,0,0,1-1.146,0,.8.8,0,0,1,0-1.135l2.436-2.412-2.436-2.412a.8.8,0,0,1,0-1.135.815.815,0,0,1,1.146,0l2.436,2.412,2.436-2.412a.815.815,0,0,1,1.146,0,.8.8,0,0,1,0,1.135l-2.436,2.412Zm0,0" transform="translate(-149.565 -149.621)" fill="#fff"/>
        </g>
        <text id="_Text_Body_1_Selected_On_Surface_Medium_Emphasis_Left_" data-name="✱ / Text / Body 1 / Selected / On Surface / Medium Emphasis / Left " transform="translate(59.014 18.89)" fill="#38485c" font-size="16" font-family="OpenSans-Regular, Open Sans"><tspan x="0" y="17">Lorem ipsum dolor sit amet, adipiscing elit. Lorem ipsum dolor sit amet, </tspan><tspan x="0" y="41">adipiscing elit.Lorem ipsum dolor sit amet, adipiscing elit.Lorem ipsum </tspan><tspan x="0" y="65">dolor sit amet, adipiscing elit.Lorem ipsum dolor sit amet, adipiscing elit.</tspan></text>
        <g id="criss-cross-2" data-name="criss-cross" transform="translate(612.3 16)">
          <path id="Trazado_4660-2" data-name="Trazado 4660" d="M9.726,0A9.69,9.69,0,0,0,0,9.632a9.726,9.726,0,0,0,19.452,0A9.69,9.69,0,0,0,9.726,0Zm0,0" transform="translate(0)" fill="none"/>
          <path id="Trazado_4661-2" data-name="Trazado 4661" d="M166.671,164.936a1.226,1.226,0,1,1-1.734,1.734l-3.685-3.686-3.685,3.686a1.226,1.226,0,0,1-1.734-1.734l3.686-3.685-3.686-3.685a1.226,1.226,0,0,1,1.734-1.734l3.685,3.686,3.685-3.686a1.226,1.226,0,0,1,1.734,1.734l-3.686,3.685Zm0,0" transform="translate(-151.51 -151.548)" fill="#38485c"/>
        </g>
      </g>
      <text id="Altura_variable_según_líneas_de_texto" data-name="Altura variable según líneas de texto" transform="translate(528.335 1205.79)" fill="#38485c" font-size="14" font-family="OpenSans-Regular, Open Sans"><tspan x="0" y="0">Altura variable según líneas de texto</tspan></text>
      <g id="Grupo_11793" data-name="Grupo 11793" transform="translate(513 1165.328) rotate(-90)">
        <line id="Línea_114" data-name="Línea 114" x2="104.182" transform="translate(0 3.682)" fill="none" stroke="#38485c" stroke-linecap="round" stroke-width="1"/>
        <line id="Línea_115" data-name="Línea 115" y1="3.682" x2="4.099" fill="none" stroke="#38485c" stroke-linecap="round" stroke-width="1"/>
        <line id="Línea_117" data-name="Línea 117" y1="3.682" x2="4.099" transform="translate(104.182 7.364) rotate(180)" fill="none" stroke="#38485c" stroke-linecap="round" stroke-width="1"/>
        <line id="Línea_116" data-name="Línea 116" x2="4.099" y2="3.682" transform="translate(0 3.682)" fill="none" stroke="#38485c" stroke-linecap="round" stroke-width="1"/>
        <path id="Trazado_4671" data-name="Trazado 4671" d="M0,0,4.1,3.682" transform="translate(104.182 3.682) rotate(180)" fill="none" stroke="#38485c" stroke-linecap="round" stroke-width="1"/>
      </g>
      <g id="Grupo_18059" data-name="Grupo 18059" transform="translate(1183.151 1146.878) rotate(90)" opacity="0.5">
        <rect id="Rectángulo_3425" data-name="Rectángulo 3425" width="19.283" height="654.103" fill="#fcf1d9"/>
        <path id="Trazado_4670" data-name="Trazado 4670" d="M0,654.1V0" transform="translate(-1)" fill="#ffeb8a" stroke="#000" stroke-width="1" stroke-dasharray="5 2"/>
        <path id="Trazado_20100" data-name="Trazado 20100" d="M0,654.1V0" transform="translate(18.707)" fill="#ffeb8a" stroke="#000" stroke-width="1" stroke-dasharray="5 2"/>
      </g>
      <g id="Grupo_18060" data-name="Grupo 18060" transform="translate(1183.151 1059.878) rotate(90)">
        <rect id="Rectángulo_3425-2" data-name="Rectángulo 3425" width="19.283" height="654.103" fill="#fcf1d9"/>
        <path id="Trazado_4669" data-name="Trazado 4669" d="M0,616.855V0" transform="translate(20.906 37.248)" fill="#fcf1d9" stroke="#000" stroke-width="1" stroke-dasharray="5 2"/>
        <path id="Trazado_4670-2" data-name="Trazado 4670" d="M0,654.1V0" fill="#fcf1d9" stroke="#000" stroke-width="1" stroke-dasharray="5 2"/>
      </g>
      <text id="_16px" data-name="16px" transform="translate(561.52 1047)" fill="#38485c" font-size="14" font-family="OpenSans-SemiBold, Open Sans" font-weight="600"><tspan x="-32.416" y="0">16px</tspan></text>
      <text id="_16px-2" data-name="16px" transform="translate(1181.132 1188.026)" fill="#38485c" font-size="14" font-family="OpenSans-SemiBold, Open Sans" font-weight="600"><tspan x="-32.416" y="0">16px</tspan></text>
      <g id="Trazado_4808" data-name="Trazado 4808" transform="translate(585.356 1080.784)" fill="none" stroke-dasharray="5 3">
        <path d="M0,0H544.892V65.094H0Z" stroke="none"/>
        <path d="M 8 7.62939453125e-06 L 13 7.62939453125e-06 L 13 1.000007629394531 L 8 1.000007629394531 L 8 7.62939453125e-06 Z M 16 7.62939453125e-06 L 21 7.62939453125e-06 L 21 1.000007629394531 L 16 1.000007629394531 L 16 7.62939453125e-06 Z M 24 7.62939453125e-06 L 29 7.62939453125e-06 L 29 1.000007629394531 L 24 1.000007629394531 L 24 7.62939453125e-06 Z M 32 7.62939453125e-06 L 36.99996948242188 7.62939453125e-06 L 36.99996948242188 1.000007629394531 L 32 1.000007629394531 L 32 7.62939453125e-06 Z M 39.99996948242188 7.62939453125e-06 L 44.99996948242188 7.62939453125e-06 L 44.99996948242188 1.000007629394531 L 39.99996948242188 1.000007629394531 L 39.99996948242188 7.62939453125e-06 Z M 47.99996948242188 7.62939453125e-06 L 52.99996948242188 7.62939453125e-06 L 52.99996948242188 1.000007629394531 L 47.99996948242188 1.000007629394531 L 47.99996948242188 7.62939453125e-06 Z M 55.99996948242188 7.62939453125e-06 L 60.99996948242188 7.62939453125e-06 L 60.99996948242188 1.000007629394531 L 55.99996948242188 1.000007629394531 L 55.99996948242188 7.62939453125e-06 Z M 63.99996948242188 7.62939453125e-06 L 68.99996948242188 7.62939453125e-06 L 68.99996948242188 1.000007629394531 L 63.99996948242188 1.000007629394531 L 63.99996948242188 7.62939453125e-06 Z M 71.99996948242188 7.62939453125e-06 L 76.99996948242188 7.62939453125e-06 L 76.99996948242188 1.000007629394531 L 71.99996948242188 1.000007629394531 L 71.99996948242188 7.62939453125e-06 Z M 79.99996948242188 7.62939453125e-06 L 84.99996948242188 7.62939453125e-06 L 84.99996948242188 1.000007629394531 L 79.99996948242188 1.000007629394531 L 79.99996948242188 7.62939453125e-06 Z M 87.99996948242188 7.62939453125e-06 L 92.99996948242188 7.62939453125e-06 L 92.99996948242188 1.000007629394531 L 87.99996948242188 1.000007629394531 L 87.99996948242188 7.62939453125e-06 Z M 95.99996948242188 7.62939453125e-06 L 100.9999694824219 7.62939453125e-06 L 100.9999694824219 1.000007629394531 L 95.99996948242188 1.000007629394531 L 95.99996948242188 7.62939453125e-06 Z M 103.9999694824219 7.62939453125e-06 L 108.9999694824219 7.62939453125e-06 L 108.9999694824219 1.000007629394531 L 103.9999694824219 1.000007629394531 L 103.9999694824219 7.62939453125e-06 Z M 111.9999694824219 7.62939453125e-06 L 116.9999694824219 7.62939453125e-06 L 116.9999694824219 1.000007629394531 L 111.9999694824219 1.000007629394531 L 111.9999694824219 7.62939453125e-06 Z M 119.9999694824219 7.62939453125e-06 L 124.9999694824219 7.62939453125e-06 L 124.9999694824219 1.000007629394531 L 119.9999694824219 1.000007629394531 L 119.9999694824219 7.62939453125e-06 Z M 127.9999694824219 7.62939453125e-06 L 132.9999694824219 7.62939453125e-06 L 132.9999694824219 1.000007629394531 L 127.9999694824219 1.000007629394531 L 127.9999694824219 7.62939453125e-06 Z M 135.9999694824219 7.62939453125e-06 L 140.9999694824219 7.62939453125e-06 L 140.9999694824219 1.000007629394531 L 135.9999694824219 1.000007629394531 L 135.9999694824219 7.62939453125e-06 Z M 143.9999694824219 7.62939453125e-06 L 148.9999694824219 7.62939453125e-06 L 148.9999694824219 1.000007629394531 L 143.9999694824219 1.000007629394531 L 143.9999694824219 7.62939453125e-06 Z M 151.9999694824219 7.62939453125e-06 L 156.9999694824219 7.62939453125e-06 L 156.9999694824219 1.000007629394531 L 151.9999694824219 1.000007629394531 L 151.9999694824219 7.62939453125e-06 Z M 159.9999694824219 7.62939453125e-06 L 164.9999694824219 7.62939453125e-06 L 164.9999694824219 1.000007629394531 L 159.9999694824219 1.000007629394531 L 159.9999694824219 7.62939453125e-06 Z M 167.9999694824219 7.62939453125e-06 L 172.9999694824219 7.62939453125e-06 L 172.9999694824219 1.000007629394531 L 167.9999694824219 1.000007629394531 L 167.9999694824219 7.62939453125e-06 Z M 175.9999694824219 7.62939453125e-06 L 180.9999694824219 7.62939453125e-06 L 180.9999694824219 1.000007629394531 L 175.9999694824219 1.000007629394531 L 175.9999694824219 7.62939453125e-06 Z M 183.9999694824219 7.62939453125e-06 L 188.9999694824219 7.62939453125e-06 L 188.9999694824219 1.000007629394531 L 183.9999694824219 1.000007629394531 L 183.9999694824219 7.62939453125e-06 Z M 191.9999694824219 7.62939453125e-06 L 196.9999694824219 7.62939453125e-06 L 196.9999694824219 1.000007629394531 L 191.9999694824219 1.000007629394531 L 191.9999694824219 7.62939453125e-06 Z M 199.9999694824219 7.62939453125e-06 L 204.9999694824219 7.62939453125e-06 L 204.9999694824219 1.000007629394531 L 199.9999694824219 1.000007629394531 L 199.9999694824219 7.62939453125e-06 Z M 207.9999694824219 7.62939453125e-06 L 212.9999694824219 7.62939453125e-06 L 212.9999694824219 1.000007629394531 L 207.9999694824219 1.000007629394531 L 207.9999694824219 7.62939453125e-06 Z M 215.9999694824219 7.62939453125e-06 L 220.9999694824219 7.62939453125e-06 L 220.9999694824219 1.000007629394531 L 215.9999694824219 1.000007629394531 L 215.9999694824219 7.62939453125e-06 Z M 223.9999694824219 7.62939453125e-06 L 228.9999694824219 7.62939453125e-06 L 228.9999694824219 1.000007629394531 L 223.9999694824219 1.000007629394531 L 223.9999694824219 7.62939453125e-06 Z M 231.9999694824219 7.62939453125e-06 L 236.9999694824219 7.62939453125e-06 L 236.9999694824219 1.000007629394531 L 231.9999694824219 1.000007629394531 L 231.9999694824219 7.62939453125e-06 Z M 239.9999694824219 7.62939453125e-06 L 244.9999694824219 7.62939453125e-06 L 244.9999694824219 1.000007629394531 L 239.9999694824219 1.000007629394531 L 239.9999694824219 7.62939453125e-06 Z M 247.9999694824219 7.62939453125e-06 L 252.9999694824219 7.62939453125e-06 L 252.9999694824219 1.000007629394531 L 247.9999694824219 1.000007629394531 L 247.9999694824219 7.62939453125e-06 Z M 255.9999694824219 7.62939453125e-06 L 260.9999694824219 7.62939453125e-06 L 260.9999694824219 1.000007629394531 L 255.9999694824219 1.000007629394531 L 255.9999694824219 7.62939453125e-06 Z M 263.9999694824219 7.62939453125e-06 L 268.9999694824219 7.62939453125e-06 L 268.9999694824219 1.000007629394531 L 263.9999694824219 1.000007629394531 L 263.9999694824219 7.62939453125e-06 Z M 271.9999694824219 7.62939453125e-06 L 276.9999694824219 7.62939453125e-06 L 276.9999694824219 1.000007629394531 L 271.9999694824219 1.000007629394531 L 271.9999694824219 7.62939453125e-06 Z M 279.9999694824219 7.62939453125e-06 L 284.9999694824219 7.62939453125e-06 L 284.9999694824219 1.000007629394531 L 279.9999694824219 1.000007629394531 L 279.9999694824219 7.62939453125e-06 Z M 287.9999694824219 7.62939453125e-06 L 293 7.62939453125e-06 L 293 1.000007629394531 L 287.9999694824219 1.000007629394531 L 287.9999694824219 7.62939453125e-06 Z M 296 7.62939453125e-06 L 301 7.62939453125e-06 L 301 1.000007629394531 L 296 1.000007629394531 L 296 7.62939453125e-06 Z M 304 7.62939453125e-06 L 309 7.62939453125e-06 L 309 1.000007629394531 L 304 1.000007629394531 L 304 7.62939453125e-06 Z M 312 7.62939453125e-06 L 317 7.62939453125e-06 L 317 1.000007629394531 L 312 1.000007629394531 L 312 7.62939453125e-06 Z M 320 7.62939453125e-06 L 325 7.62939453125e-06 L 325 1.000007629394531 L 320 1.000007629394531 L 320 7.62939453125e-06 Z M 328 7.62939453125e-06 L 333 7.62939453125e-06 L 333 1.000007629394531 L 328 1.000007629394531 L 328 7.62939453125e-06 Z M 336 7.62939453125e-06 L 341 7.62939453125e-06 L 341 1.000007629394531 L 336 1.000007629394531 L 336 7.62939453125e-06 Z M 344 7.62939453125e-06 L 349 7.62939453125e-06 L 349 1.000007629394531 L 344 1.000007629394531 L 344 7.62939453125e-06 Z M 352 7.62939453125e-06 L 357 7.62939453125e-06 L 357 1.000007629394531 L 352 1.000007629394531 L 352 7.62939453125e-06 Z M 360 7.62939453125e-06 L 365 7.62939453125e-06 L 365 1.000007629394531 L 360 1.000007629394531 L 360 7.62939453125e-06 Z M 368 7.62939453125e-06 L 373 7.62939453125e-06 L 373 1.000007629394531 L 368 1.000007629394531 L 368 7.62939453125e-06 Z M 376 7.62939453125e-06 L 381 7.62939453125e-06 L 381 1.000007629394531 L 376 1.000007629394531 L 376 7.62939453125e-06 Z M 384 7.62939453125e-06 L 389 7.62939453125e-06 L 389 1.000007629394531 L 384 1.000007629394531 L 384 7.62939453125e-06 Z M 392 7.62939453125e-06 L 397 7.62939453125e-06 L 397 1.000007629394531 L 392 1.000007629394531 L 392 7.62939453125e-06 Z M 400 7.62939453125e-06 L 405 7.62939453125e-06 L 405 1.000007629394531 L 400 1.000007629394531 L 400 7.62939453125e-06 Z M 408 7.62939453125e-06 L 413 7.62939453125e-06 L 413 1.000007629394531 L 408 1.000007629394531 L 408 7.62939453125e-06 Z M 416 7.62939453125e-06 L 420.9999694824219 7.62939453125e-06 L 420.9999694824219 1.000007629394531 L 416 1.000007629394531 L 416 7.62939453125e-06 Z M 423.9999694824219 7.62939453125e-06 L 428.9999694824219 7.62939453125e-06 L 428.9999694824219 1.000007629394531 L 423.9999694824219 1.000007629394531 L 423.9999694824219 7.62939453125e-06 Z M 431.9999694824219 7.62939453125e-06 L 436.9999694824219 7.62939453125e-06 L 436.9999694824219 1.000007629394531 L 431.9999694824219 1.000007629394531 L 431.9999694824219 7.62939453125e-06 Z M 439.9999694824219 7.62939453125e-06 L 444.9999694824219 7.62939453125e-06 L 444.9999694824219 1.000007629394531 L 439.9999694824219 1.000007629394531 L 439.9999694824219 7.62939453125e-06 Z M 447.9999694824219 7.62939453125e-06 L 452.9999694824219 7.62939453125e-06 L 452.9999694824219 1.000007629394531 L 447.9999694824219 1.000007629394531 L 447.9999694824219 7.62939453125e-06 Z M 455.9999694824219 7.62939453125e-06 L 460.9999694824219 7.62939453125e-06 L 460.9999694824219 1.000007629394531 L 455.9999694824219 1.000007629394531 L 455.9999694824219 7.62939453125e-06 Z M 463.9999694824219 7.62939453125e-06 L 468.9999694824219 7.62939453125e-06 L 468.9999694824219 1.000007629394531 L 463.9999694824219 1.000007629394531 L 463.9999694824219 7.62939453125e-06 Z M 471.9999694824219 7.62939453125e-06 L 476.9999694824219 7.62939453125e-06 L 476.9999694824219 1.000007629394531 L 471.9999694824219 1.000007629394531 L 471.9999694824219 7.62939453125e-06 Z M 479.9999694824219 7.62939453125e-06 L 484.9999694824219 7.62939453125e-06 L 484.9999694824219 1.000007629394531 L 479.9999694824219 1.000007629394531 L 479.9999694824219 7.62939453125e-06 Z M 487.9999694824219 7.62939453125e-06 L 492.9999694824219 7.62939453125e-06 L 492.9999694824219 1.000007629394531 L 487.9999694824219 1.000007629394531 L 487.9999694824219 7.62939453125e-06 Z M 495.9999694824219 7.62939453125e-06 L 500.9999694824219 7.62939453125e-06 L 500.9999694824219 1.000007629394531 L 495.9999694824219 1.000007629394531 L 495.9999694824219 7.62939453125e-06 Z M 503.9999694824219 7.62939453125e-06 L 508.9999694824219 7.62939453125e-06 L 508.9999694824219 1.000007629394531 L 503.9999694824219 1.000007629394531 L 503.9999694824219 7.62939453125e-06 Z M 511.9999694824219 7.62939453125e-06 L 517 7.62939453125e-06 L 517 1.000007629394531 L 511.9999694824219 1.000007629394531 L 511.9999694824219 7.62939453125e-06 Z M 520 7.62939453125e-06 L 525 7.62939453125e-06 L 525 1.000007629394531 L 520 1.000007629394531 L 520 7.62939453125e-06 Z M 528 7.62939453125e-06 L 533 7.62939453125e-06 L 533 1.000007629394531 L 528 1.000007629394531 L 528 7.62939453125e-06 Z M 536 7.62939453125e-06 L 541 7.62939453125e-06 L 541 1.000007629394531 L 536 1.000007629394531 L 536 7.62939453125e-06 Z M 543.89208984375 7.62939453125e-06 L 544.89208984375 7.62939453125e-06 L 544.89208984375 1.000007629394531 L 544.89208984375 1.000007629394531 C 544.89208984375 2.215961456298828 544.89208984375 4.107875823974609 544.89208984375 4.107875823974609 L 543.89208984375 4.107875823974609 L 543.89208984375 7.62939453125e-06 Z M 543.89208984375 7.107875823974609 L 544.89208984375 7.107875823974609 C 544.89208984375 7.107875823974609 544.89208984375 12.10787582397461 544.89208984375 12.10787582397461 L 543.89208984375 12.10787582397461 L 543.89208984375 7.107875823974609 Z M 543.89208984375 15.10787582397461 L 544.89208984375 15.10787582397461 C 544.89208984375 15.10787582397461 544.89208984375 20.10787582397461 544.89208984375 20.10787582397461 L 543.89208984375 20.10787582397461 L 543.89208984375 15.10787582397461 Z M 543.89208984375 23.10787582397461 L 544.89208984375 23.10787582397461 C 544.89208984375 23.10787582397461 544.89208984375 28.10787582397461 544.89208984375 28.10787582397461 L 543.89208984375 28.10787582397461 L 543.89208984375 23.10787582397461 Z M 543.89208984375 31.10787582397461 L 544.89208984375 31.10787582397461 C 544.89208984375 31.10787582397461 544.89208984375 36.10787582397461 544.89208984375 36.10787582397461 L 543.89208984375 36.10787582397461 L 543.89208984375 31.10787582397461 Z M 543.89208984375 39.10787582397461 L 544.89208984375 39.10787582397461 C 544.89208984375 39.10787582397461 544.89208984375 44.10787582397461 544.89208984375 44.10787582397461 L 543.89208984375 44.10787582397461 L 543.89208984375 39.10787582397461 Z M 543.89208984375 47.10787582397461 L 544.89208984375 47.10787582397461 C 544.89208984375 47.10787582397461 544.89208984375 52.10787582397461 544.89208984375 52.10787582397461 L 543.89208984375 52.10787582397461 L 543.89208984375 47.10787582397461 Z M 543.89208984375 55.10787582397461 L 544.89208984375 55.10787582397461 C 544.89208984375 55.10787582397461 544.89208984375 60.10787582397461 544.89208984375 60.10787582397461 L 543.89208984375 60.10787582397461 L 543.89208984375 55.10787582397461 Z M 543.89208984375 63.10787582397461 L 544.89208984375 63.10787582397461 C 544.89208984375 63.10787582397461 544.89208984375 65.09374237060547 544.89208984375 65.09374237060547 L 543.89208984375 65.09374237060547 L 543.89208984375 65.09374237060547 L 543.89208984375 65.09374237060547 L 543.89208984375 65.09374237060547 L 543.89208984375 65.09374237060547 C 543.0147705078125 65.09374237060547 541.8779907226562 65.09374237060547 541.8779907226562 65.09374237060547 L 541.8779907226562 64.09374237060547 L 543.89208984375 64.09374237060547 L 543.89208984375 63.10787582397461 Z M 533.8779907226562 64.09374237060547 L 538.8779907226562 64.09374237060547 L 538.8779907226562 65.09374237060547 C 538.8779907226562 65.09374237060547 533.8779907226562 65.09374237060547 533.8779907226562 65.09374237060547 L 533.8779907226562 64.09374237060547 Z M 525.8779907226562 64.09374237060547 L 530.8779907226562 64.09374237060547 L 530.8779907226562 65.09374237060547 C 530.8779907226562 65.09374237060547 525.8779907226562 65.09374237060547 525.8779907226562 65.09374237060547 L 525.8779907226562 64.09374237060547 Z M 517.8779907226562 64.09374237060547 L 522.8779907226562 64.09374237060547 L 522.8779907226562 65.09374237060547 C 522.8779907226562 65.09374237060547 517.8779907226562 65.09374237060547 517.8779907226562 65.09374237060547 L 517.8779907226562 64.09374237060547 Z M 509.8779907226562 64.09374237060547 L 514.8779907226562 64.09374237060547 L 514.8779907226562 65.09374237060547 C 514.8779907226562 65.09374237060547 509.8779907226562 65.09374237060547 509.8779907226562 65.09374237060547 L 509.8779907226562 64.09374237060547 Z M 501.8779907226562 64.09374237060547 L 506.8779907226562 64.09374237060547 L 506.8779907226562 65.09374237060547 C 506.8779907226562 65.09374237060547 501.8779907226562 65.09374237060547 501.8779907226562 65.09374237060547 L 501.8779907226562 64.09374237060547 Z M 493.8779907226562 64.09374237060547 L 498.8779907226562 64.09374237060547 L 498.8779907226562 65.09374237060547 C 498.8779907226562 65.09374237060547 493.8779907226562 65.09374237060547 493.8779907226562 65.09374237060547 L 493.8779907226562 64.09374237060547 Z M 485.8779907226562 64.09374237060547 L 490.8779907226562 64.09374237060547 L 490.8779907226562 65.09374237060547 C 490.8779907226562 65.09374237060547 485.8779907226562 65.09374237060547 485.8779907226562 65.09374237060547 L 485.8779907226562 64.09374237060547 Z M 477.8779907226562 64.09374237060547 L 482.8779907226562 64.09374237060547 L 482.8779907226562 65.09374237060547 C 482.8779907226562 65.09374237060547 477.8779907226562 65.09374237060547 477.8779907226562 65.09374237060547 L 477.8779907226562 64.09374237060547 Z M 469.8779907226562 64.09374237060547 L 474.8779907226562 64.09374237060547 L 474.8779907226562 65.09374237060547 C 474.8779907226562 65.09374237060547 469.8779907226562 65.09374237060547 469.8779907226562 65.09374237060547 L 469.8779907226562 64.09374237060547 Z M 461.8779907226562 64.09374237060547 L 466.8779907226562 64.09374237060547 L 466.8779907226562 65.09374237060547 C 466.8779907226562 65.09374237060547 461.8779907226562 65.09374237060547 461.8779907226562 65.09374237060547 L 461.8779907226562 64.09374237060547 Z M 453.8779907226562 64.09374237060547 L 458.8779907226562 64.09374237060547 L 458.8779907226562 65.09374237060547 C 458.8779907226562 65.09374237060547 453.8779907226562 65.09374237060547 453.8779907226562 65.09374237060547 L 453.8779907226562 64.09374237060547 Z M 445.8779907226562 64.09374237060547 L 450.8779907226562 64.09374237060547 L 450.8779907226562 65.09374237060547 C 450.8779907226562 65.09374237060547 445.8779907226562 65.09374237060547 445.8779907226562 65.09374237060547 L 445.8779907226562 64.09374237060547 Z M 437.8779907226562 64.09374237060547 L 442.8779907226562 64.09374237060547 L 442.8779907226562 65.09374237060547 C 442.8779907226562 65.09374237060547 437.8779907226562 65.09374237060547 437.8779907226562 65.09374237060547 L 437.8779907226562 64.09374237060547 Z M 429.8779907226562 64.09374237060547 L 434.8779907226562 64.09374237060547 L 434.8779907226562 65.09374237060547 C 434.8779907226562 65.09374237060547 429.8779907226562 65.09374237060547 429.8779907226562 65.09374237060547 L 429.8779907226562 64.09374237060547 Z M 421.8779907226562 64.09374237060547 L 426.8779907226562 64.09374237060547 L 426.8779907226562 65.09374237060547 C 426.8779907226562 65.09374237060547 421.8779907226562 65.09374237060547 421.8779907226562 65.09374237060547 L 421.8779907226562 64.09374237060547 Z M 413.8779907226562 64.09374237060547 L 418.8779907226562 64.09374237060547 L 418.8779907226562 65.09374237060547 C 418.8779907226562 65.09374237060547 413.8779907226562 65.09374237060547 413.8779907226562 65.09374237060547 L 413.8779907226562 64.09374237060547 Z M 405.8779907226562 64.09374237060547 L 410.8779907226562 64.09374237060547 L 410.8779907226562 65.09374237060547 C 410.8779907226562 65.09374237060547 405.8779907226562 65.09374237060547 405.8779907226562 65.09374237060547 L 405.8779907226562 64.09374237060547 Z M 397.8779907226562 64.09374237060547 L 402.8779907226562 64.09374237060547 L 402.8779907226562 65.09374237060547 C 402.8779907226562 65.09374237060547 397.8779907226562 65.09374237060547 397.8779907226562 65.09374237060547 L 397.8779907226562 64.09374237060547 Z M 389.8779907226562 64.09374237060547 L 394.8779907226562 64.09374237060547 L 394.8779907226562 65.09374237060547 C 394.8779907226562 65.09374237060547 389.8779907226562 65.09374237060547 389.8779907226562 65.09374237060547 L 389.8779907226562 64.09374237060547 Z M 381.8779907226562 64.09374237060547 L 386.8779907226562 64.09374237060547 L 386.8779907226562 65.09374237060547 C 386.8779907226562 65.09374237060547 381.8779907226562 65.09374237060547 381.8779907226562 65.09374237060547 L 381.8779907226562 64.09374237060547 Z M 373.8779907226562 64.09374237060547 L 378.8779907226562 64.09374237060547 L 378.8779907226562 65.09374237060547 C 378.8779907226562 65.09374237060547 373.8779907226562 65.09374237060547 373.8779907226562 65.09374237060547 L 373.8779907226562 64.09374237060547 Z M 365.8779907226562 64.09374237060547 L 370.8779907226562 64.09374237060547 L 370.8779907226562 65.09374237060547 C 370.8779907226562 65.09374237060547 365.8779907226562 65.09374237060547 365.8779907226562 65.09374237060547 L 365.8779907226562 64.09374237060547 Z M 357.8779907226562 64.09374237060547 L 362.8779907226562 64.09374237060547 L 362.8779907226562 65.09374237060547 C 362.8779907226562 65.09374237060547 357.8779907226562 65.09374237060547 357.8779907226562 65.09374237060547 L 357.8779907226562 64.09374237060547 Z M 349.8779907226562 64.09374237060547 L 354.8779907226562 64.09374237060547 L 354.8779907226562 65.09374237060547 C 354.8779907226562 65.09374237060547 349.8779907226562 65.09374237060547 349.8779907226562 65.09374237060547 L 349.8779907226562 64.09374237060547 Z M 341.8779907226562 64.09374237060547 L 346.8779907226562 64.09374237060547 L 346.8779907226562 65.09374237060547 C 346.8779907226562 65.09374237060547 341.8779907226562 65.09374237060547 341.8779907226562 65.09374237060547 L 341.8779907226562 64.09374237060547 Z M 333.8779907226562 64.09374237060547 L 338.8779907226562 64.09374237060547 L 338.8779907226562 65.09374237060547 C 338.8779907226562 65.09374237060547 333.8779907226562 65.09374237060547 333.8779907226562 65.09374237060547 L 333.8779907226562 64.09374237060547 Z M 325.8779907226562 64.09374237060547 L 330.8779907226562 64.09374237060547 L 330.8779907226562 65.09374237060547 C 330.8779907226562 65.09374237060547 325.8779907226562 65.09374237060547 325.8779907226562 65.09374237060547 L 325.8779907226562 64.09374237060547 Z M 317.8779907226562 64.09374237060547 L 322.8779907226562 64.09374237060547 L 322.8779907226562 65.09374237060547 C 322.8779907226562 65.09374237060547 317.8779907226562 65.09374237060547 317.8779907226562 65.09374237060547 L 317.8779907226562 64.09374237060547 Z M 309.8779907226562 64.09374237060547 L 314.8779907226562 64.09374237060547 L 314.8779907226562 65.09374237060547 C 314.8779907226562 65.09374237060547 309.8779907226562 65.09374237060547 309.8779907226562 65.09374237060547 L 309.8779907226562 64.09374237060547 Z M 301.8779907226562 64.09374237060547 L 306.8779907226562 64.09374237060547 L 306.8779907226562 65.09374237060547 C 306.8779907226562 65.09374237060547 301.8779907226562 65.09374237060547 301.8779907226562 65.09374237060547 L 301.8779907226562 64.09374237060547 Z M 293.8779907226562 64.09374237060547 L 298.8779907226562 64.09374237060547 L 298.8779907226562 65.09374237060547 C 298.8779907226562 65.09374237060547 293.8779907226562 65.09374237060547 293.8779907226562 65.09374237060547 L 293.8779907226562 64.09374237060547 Z M 285.8779907226562 64.09374237060547 L 290.8779907226562 64.09374237060547 L 290.8779907226562 65.09374237060547 C 290.8779907226562 65.09374237060547 285.8779907226562 65.09374237060547 285.8779907226562 65.09374237060547 L 285.8779907226562 64.09374237060547 Z M 277.8779907226562 64.09374237060547 L 282.8779907226562 64.09374237060547 L 282.8779907226562 65.09374237060547 C 282.8779907226562 65.09374237060547 277.8779907226562 65.09374237060547 277.8779907226562 65.09374237060547 L 277.8779907226562 64.09374237060547 Z M 269.8779907226562 64.09374237060547 L 274.8779907226562 64.09374237060547 L 274.8779907226562 65.09374237060547 C 274.8779907226562 65.09374237060547 269.8779907226562 65.09374237060547 269.8779907226562 65.09374237060547 L 269.8779907226562 64.09374237060547 Z M 261.8779907226562 64.09374237060547 L 266.8779907226562 64.09374237060547 L 266.8779907226562 65.09374237060547 C 266.8779907226562 65.09374237060547 261.8779907226562 65.09374237060547 261.8779907226562 65.09374237060547 L 261.8779907226562 64.09374237060547 Z M 253.8779907226562 64.09374237060547 L 258.8779907226562 64.09374237060547 L 258.8779907226562 65.09374237060547 C 258.8779907226562 65.09374237060547 253.8779907226562 65.09374237060547 253.8779907226562 65.09374237060547 L 253.8779907226562 64.09374237060547 Z M 245.8779907226562 64.09374237060547 L 250.8779907226562 64.09374237060547 L 250.8779907226562 65.09374237060547 C 250.8779907226562 65.09374237060547 245.8779907226562 65.09374237060547 245.8779907226562 65.09374237060547 L 245.8779907226562 64.09374237060547 Z M 237.8779907226562 64.09374237060547 L 242.8779907226562 64.09374237060547 L 242.8779907226562 65.09374237060547 C 242.8779907226562 65.09374237060547 237.8779907226562 65.09374237060547 237.8779907226562 65.09374237060547 L 237.8779907226562 64.09374237060547 Z M 229.8779907226562 64.09374237060547 L 234.8779907226562 64.09374237060547 L 234.8779907226562 65.09374237060547 C 234.8779907226562 65.09374237060547 229.8779907226562 65.09374237060547 229.8779907226562 65.09374237060547 L 229.8779907226562 64.09374237060547 Z M 221.8779907226562 64.09374237060547 L 226.8779907226562 64.09374237060547 L 226.8779907226562 65.09374237060547 C 226.8779907226562 65.09374237060547 221.8779907226562 65.09374237060547 221.8779907226562 65.09374237060547 L 221.8779907226562 64.09374237060547 Z M 213.8779907226562 64.09374237060547 L 218.8779907226562 64.09374237060547 L 218.8779907226562 65.09374237060547 C 218.8779907226562 65.09374237060547 213.8779907226562 65.09374237060547 213.8779907226562 65.09374237060547 L 213.8779907226562 64.09374237060547 Z M 205.8779907226562 64.09374237060547 L 210.8779907226562 64.09374237060547 L 210.8779907226562 65.09374237060547 C 210.8779907226562 65.09374237060547 205.8779907226562 65.09374237060547 205.8779907226562 65.09374237060547 L 205.8779907226562 64.09374237060547 Z M 197.8779907226562 64.09374237060547 L 202.8779907226562 64.09374237060547 L 202.8779907226562 65.09374237060547 C 202.8779907226562 65.09374237060547 197.8779907226562 65.09374237060547 197.8779907226562 65.09374237060547 L 197.8779907226562 64.09374237060547 Z M 189.8779907226562 64.09374237060547 L 194.8779907226562 64.09374237060547 L 194.8779907226562 65.09374237060547 C 194.8779907226562 65.09374237060547 189.8779907226562 65.09374237060547 189.8779907226562 65.09374237060547 L 189.8779907226562 64.09374237060547 Z M 181.8779907226562 64.09374237060547 L 186.8779907226562 64.09374237060547 L 186.8779907226562 65.09374237060547 C 186.8779907226562 65.09374237060547 181.8779907226562 65.09374237060547 181.8779907226562 65.09374237060547 L 181.8779907226562 64.09374237060547 Z M 173.8779907226562 64.09374237060547 L 178.8779907226562 64.09374237060547 L 178.8779907226562 65.09374237060547 C 178.8779907226562 65.09374237060547 173.8779907226562 65.09374237060547 173.8779907226562 65.09374237060547 L 173.8779907226562 64.09374237060547 Z M 165.8779907226562 64.09374237060547 L 170.8779907226562 64.09374237060547 L 170.8779907226562 65.09374237060547 C 170.8779907226562 65.09374237060547 165.8779907226562 65.09374237060547 165.8779907226562 65.09374237060547 L 165.8779907226562 64.09374237060547 Z M 157.8779907226562 64.09374237060547 L 162.8779907226562 64.09374237060547 L 162.8779907226562 65.09374237060547 C 162.8779907226562 65.09374237060547 157.8779907226562 65.09374237060547 157.8779907226562 65.09374237060547 L 157.8779907226562 64.09374237060547 Z M 149.8779907226562 64.09374237060547 L 154.8779907226562 64.09374237060547 L 154.8779907226562 65.09374237060547 C 154.8779907226562 65.09374237060547 149.8779907226562 65.09374237060547 149.8779907226562 65.09374237060547 L 149.8779907226562 64.09374237060547 Z M 141.8779907226562 64.09374237060547 L 146.8779907226562 64.09374237060547 L 146.8779907226562 65.09374237060547 C 146.8779907226562 65.09374237060547 141.8779907226562 65.09374237060547 141.8779907226562 65.09374237060547 L 141.8779907226562 64.09374237060547 Z M 133.8779907226562 64.09374237060547 L 138.8779907226562 64.09374237060547 L 138.8779907226562 65.09374237060547 C 138.8779907226562 65.09374237060547 133.8779907226562 65.09374237060547 133.8779907226562 65.09374237060547 L 133.8779907226562 64.09374237060547 Z M 125.8779907226562 64.09374237060547 L 130.8779907226562 64.09374237060547 L 130.8779907226562 65.09374237060547 C 130.8779907226562 65.09374237060547 125.8779907226562 65.09374237060547 125.8779907226562 65.09374237060547 L 125.8779907226562 64.09374237060547 Z M 117.8779907226562 64.09374237060547 L 122.8779907226562 64.09374237060547 L 122.8779907226562 65.09374237060547 C 122.8779907226562 65.09374237060547 117.8779907226562 65.09374237060547 117.8779907226562 65.09374237060547 L 117.8779907226562 64.09374237060547 Z M 109.8779907226562 64.09374237060547 L 114.8779907226562 64.09374237060547 L 114.8779907226562 65.09374237060547 C 114.8779907226562 65.09374237060547 109.8779907226562 65.09374237060547 109.8779907226562 65.09374237060547 L 109.8779907226562 64.09374237060547 Z M 101.8779907226562 64.09374237060547 L 106.8779907226562 64.09374237060547 L 106.8779907226562 65.09374237060547 C 106.8779907226562 65.09374237060547 101.8779907226562 65.09374237060547 101.8779907226562 65.09374237060547 L 101.8779907226562 64.09374237060547 Z M 93.87799072265625 64.09374237060547 L 98.87799072265625 64.09374237060547 L 98.87799072265625 65.09374237060547 C 98.87799072265625 65.09374237060547 93.87799072265625 65.09374237060547 93.87799072265625 65.09374237060547 L 93.87799072265625 64.09374237060547 Z M 85.87799072265625 64.09374237060547 L 90.87799072265625 64.09374237060547 L 90.87799072265625 65.09374237060547 C 90.87799072265625 65.09374237060547 85.87799072265625 65.09374237060547 85.87799072265625 65.09374237060547 L 85.87799072265625 64.09374237060547 Z M 77.87799072265625 64.09374237060547 L 82.87799072265625 64.09374237060547 L 82.87799072265625 65.09374237060547 C 82.87799072265625 65.09374237060547 77.87799072265625 65.09374237060547 77.87799072265625 65.09374237060547 L 77.87799072265625 64.09374237060547 Z M 69.87799072265625 64.09374237060547 L 74.87799072265625 64.09374237060547 L 74.87799072265625 65.09374237060547 C 74.87799072265625 65.09374237060547 69.87799072265625 65.09374237060547 69.87799072265625 65.09374237060547 L 69.87799072265625 64.09374237060547 Z M 61.87799072265625 64.09374237060547 L 66.87799072265625 64.09374237060547 L 66.87799072265625 65.09374237060547 C 66.87799072265625 65.09374237060547 61.87799072265625 65.09374237060547 61.87799072265625 65.09374237060547 L 61.87799072265625 64.09374237060547 Z M 53.87799072265625 64.09374237060547 L 58.87799072265625 64.09374237060547 L 58.87799072265625 65.09374237060547 C 58.87799072265625 65.09374237060547 53.87799072265625 65.09374237060547 53.87799072265625 65.09374237060547 L 53.87799072265625 64.09374237060547 Z M 45.87799072265625 64.09374237060547 L 50.87799072265625 64.09374237060547 L 50.87799072265625 65.09374237060547 C 50.87799072265625 65.09374237060547 45.87799072265625 65.09374237060547 45.87799072265625 65.09374237060547 L 45.87799072265625 64.09374237060547 Z M 37.87799072265625 64.09374237060547 L 42.87799072265625 64.09374237060547 L 42.87799072265625 65.09374237060547 C 42.87799072265625 65.09374237060547 37.87799072265625 65.09374237060547 37.87799072265625 65.09374237060547 L 37.87799072265625 64.09374237060547 Z M 29.87799072265625 64.09374237060547 L 34.87799072265625 64.09374237060547 L 34.87799072265625 65.09374237060547 C 34.87799072265625 65.09374237060547 29.87799072265625 65.09374237060547 29.87799072265625 65.09374237060547 L 29.87799072265625 64.09374237060547 Z M 21.87799072265625 64.09374237060547 L 26.87799072265625 64.09374237060547 L 26.87799072265625 65.09374237060547 C 26.87799072265625 65.09374237060547 21.87799072265625 65.09374237060547 21.87799072265625 65.09374237060547 L 21.87799072265625 64.09374237060547 Z M 13.87799072265625 64.09374237060547 L 18.87799072265625 64.09374237060547 L 18.87799072265625 65.09374237060547 C 18.87799072265625 65.09374237060547 13.87799072265625 65.09374237060547 13.87799072265625 65.09374237060547 L 13.87799072265625 64.09374237060547 Z M 5.87799072265625 64.09374237060547 L 10.87799072265625 64.09374237060547 L 10.87799072265625 65.09374237060547 C 10.87799072265625 65.09374237060547 5.87799072265625 65.09374237060547 5.87799072265625 65.09374237060547 L 5.87799072265625 64.09374237060547 Z M 0 62.97174072265625 L 1 62.97174072265625 L 1 64.09374237060547 L 2.87799072265625 64.09374237060547 L 2.87799072265625 65.09374237060547 C 2.87799072265625 65.09374237060547 0 65.09374237060547 0 65.09374237060547 L 0 62.97174072265625 Z M 0 54.97174072265625 L 1 54.97174072265625 L 1 59.97174072265625 L 0 59.97174072265625 L 0 54.97174072265625 Z M 0 46.97174072265625 L 1 46.97174072265625 L 1 51.97174072265625 L 0 51.97174072265625 L 0 46.97174072265625 Z M 0 38.97174072265625 L 1 38.97174072265625 L 1 43.97174072265625 L 0 43.97174072265625 L 0 38.97174072265625 Z M 0 30.97174072265625 L 1 30.97174072265625 L 1 35.97174072265625 L 0 35.97174072265625 L 0 30.97174072265625 Z M 0 22.97174072265625 L 1 22.97174072265625 L 1 27.97174072265625 L 0 27.97174072265625 L 0 22.97174072265625 Z M 0 14.97174072265625 L 1 14.97174072265625 L 1 19.97174072265625 L 0 19.97174072265625 L 0 14.97174072265625 Z M 0 6.97174072265625 L 1 6.97174072265625 L 1 11.97174072265625 L 0 11.97174072265625 L 0 6.97174072265625 Z M 0 7.62939453125e-06 L 5 7.62939453125e-06 L 5 1.000007629394531 L 1 1.000007629394531 L 1 3.97174072265625 L 0 3.97174072265625 L 0 7.62939453125e-06 Z" stroke="none"/>
      </g>
    </g>
  </g>
</svg>
