<svg width="427" height="147" viewBox="0 0 427 147" fill="none" xmlns="http://www.w3.org/2000/svg">
<g clip-path="url(#clip0_6385_2572)">
<mask id="mask0_6385_2572" style="mask-type:luminance" maskUnits="userSpaceOnUse" x="0" y="0" width="427" height="147">
<path d="M0.131927 9.72338C0.131927 4.88536 4.05769 0.963379 8.90037 0.963379H417.363C422.206 0.963379 426.132 4.88536 426.132 9.72338V146.963H0.131927V9.72338Z" fill="white"/>
</mask>
<g mask="url(#mask0_6385_2572)">
<path d="M0.131927 9.72338C0.131927 4.88536 4.05769 0.963379 8.90037 0.963379H417.363C422.206 0.963379 426.132 4.88536 426.132 9.72338V146.963H0.131927V9.72338Z" fill="white"/>
<path d="M44.1044 109.871H150.137" stroke="#E6EBF0" stroke-width="0.242192"/>
<path d="M80.9036 98.8104H46.599C45.2212 98.8104 44.1042 99.9263 44.1042 101.303C44.1042 102.679 45.2212 103.795 46.599 103.795H80.9036C82.2815 103.795 83.3985 102.679 83.3985 101.303C83.3985 99.9263 82.2815 98.8104 80.9036 98.8104Z" fill="#D1D8E0"/>
<path d="M77.5865 56.4435H51.2812C49.8687 56.4435 48.7237 57.5874 48.7237 58.9985C48.7237 60.4095 49.8687 61.5535 51.2812 61.5535H77.5865C78.9989 61.5535 80.1439 60.4095 80.1439 58.9985C80.1439 57.5874 78.9989 56.4435 77.5865 56.4435Z" fill="#505E70"/>
<path d="M147.642 98.8104H129.866C128.488 98.8104 127.371 99.9263 127.371 101.303C127.371 102.679 128.488 103.795 129.866 103.795H147.642C149.019 103.795 150.136 102.679 150.136 101.303C150.136 99.9263 149.019 98.8104 147.642 98.8104Z" fill="#D1D8E0"/>
<path d="M148.889 116.257H45.3518C44.6628 116.257 44.1044 116.815 44.1044 117.504V128.72C44.1044 129.408 44.6628 129.966 45.3518 129.966H148.889C149.578 129.966 150.137 129.408 150.137 128.72V117.504C150.137 116.815 149.578 116.257 148.889 116.257Z" fill="#F5F9FC"/>
<path d="M148.89 133.082H45.352C44.6631 133.082 44.1046 133.64 44.1046 134.328V145.544C44.1046 146.232 44.6631 146.79 45.352 146.79H148.89C149.578 146.79 150.137 146.232 150.137 145.544V134.328C150.137 133.64 149.578 133.082 148.89 133.082Z" fill="#F3F6F9"/>
<path d="M160.116 109.871H266.148" stroke="#E6EBF0" stroke-width="0.242192"/>
<path d="M196.915 98.8104H162.611C161.233 98.8104 160.116 99.9263 160.116 101.303C160.116 102.679 161.233 103.795 162.611 103.795H196.915C198.293 103.795 199.41 102.679 199.41 101.303C199.41 99.9263 198.293 98.8104 196.915 98.8104Z" fill="#D1D8E0"/>
<path d="M263.652 98.8104H245.876C244.499 98.8104 243.382 99.9263 243.382 101.303C243.382 102.679 244.499 103.795 245.876 103.795H263.652C265.03 103.795 266.147 102.679 266.147 101.303C266.147 99.9263 265.03 98.8104 263.652 98.8104Z" fill="#D1D8E0"/>
<path d="M264.901 116.257H161.363C160.674 116.257 160.116 116.815 160.116 117.504V128.72C160.116 129.408 160.674 129.966 161.363 129.966H264.901C265.59 129.966 266.148 129.408 266.148 128.72V117.504C266.148 116.815 265.59 116.257 264.901 116.257Z" fill="#F5F9FC"/>
<path d="M264.901 133.082H161.363C160.674 133.082 160.116 133.64 160.116 134.328V145.544C160.116 146.232 160.674 146.79 161.363 146.79H264.901C265.59 146.79 266.148 146.232 266.148 145.544V134.328C266.148 133.64 265.59 133.082 264.901 133.082Z" fill="#F3F6F9"/>
<path d="M276.127 109.871H382.159" stroke="#E6EBF0" stroke-width="0.242192"/>
<path d="M312.927 98.8104H278.622C277.244 98.8104 276.127 99.9263 276.127 101.303C276.127 102.679 277.244 103.795 278.622 103.795H312.927C314.305 103.795 315.422 102.679 315.422 101.303C315.422 99.9263 314.305 98.8104 312.927 98.8104Z" fill="#D1D8E0"/>
<path d="M379.664 98.8104H361.888C360.51 98.8104 359.393 99.9263 359.393 101.303C359.393 102.679 360.51 103.795 361.888 103.795H379.664C381.042 103.795 382.159 102.679 382.159 101.303C382.159 99.9263 381.042 98.8104 379.664 98.8104Z" fill="#D1D8E0"/>
<path d="M380.912 116.257H277.375C276.686 116.257 276.127 116.815 276.127 117.504V128.72C276.127 129.408 276.686 129.966 277.375 129.966H380.912C381.601 129.966 382.16 129.408 382.16 128.72V117.504C382.16 116.815 381.601 116.257 380.912 116.257Z" fill="#F5F9FC"/>
<path d="M380.912 133.082H277.375C276.686 133.082 276.127 133.64 276.127 134.328V145.544C276.127 146.232 276.686 146.79 277.375 146.79H380.912C381.601 146.79 382.16 146.232 382.16 145.544V134.328C382.16 133.64 381.601 133.082 380.912 133.082Z" fill="#F3F6F9"/>
<path d="M51.6465 76.1534C53.2607 76.1534 54.5693 74.8461 54.5693 73.2334C54.5693 71.6207 53.2607 70.3134 51.6465 70.3134C50.0323 70.3134 48.7237 71.6207 48.7237 73.2334C48.7237 74.8461 50.0323 76.1534 51.6465 76.1534Z" fill="#007BC7"/>
<path d="M92.8302 70.7409H58.5256C57.1477 70.7409 56.0307 71.8568 56.0307 73.2333C56.0307 74.6099 57.1477 75.7258 58.5256 75.7258H92.8302C94.208 75.7258 95.325 74.6099 95.325 73.2333C95.325 71.8568 94.208 70.7409 92.8302 70.7409Z" fill="#D1D8E0"/>
<path d="M115.785 76.1534C117.399 76.1534 118.708 74.8461 118.708 73.2334C118.708 71.6207 117.399 70.3134 115.785 70.3134C114.17 70.3134 112.862 71.6207 112.862 73.2334C112.862 74.8461 114.17 76.1534 115.785 76.1534Z" fill="#38485C"/>
<path d="M156.968 70.7409H122.664C121.286 70.7409 120.169 71.8568 120.169 73.2333C120.169 74.6099 121.286 75.7258 122.664 75.7258H156.968C158.346 75.7258 159.463 74.6099 159.463 73.2333C159.463 71.8568 158.346 70.7409 156.968 70.7409Z" fill="#D1D8E0"/>
<path d="M179.923 76.1534C181.537 76.1534 182.846 74.8461 182.846 73.2334C182.846 71.6207 181.537 70.3134 179.923 70.3134C178.309 70.3134 177 71.6207 177 73.2334C177 74.8461 178.309 76.1534 179.923 76.1534Z" fill="#99E8FF"/>
<path d="M221.107 70.7409H186.802C185.424 70.7409 184.307 71.8568 184.307 73.2333C184.307 74.6099 185.424 75.7258 186.802 75.7258H221.107C222.484 75.7258 223.601 74.6099 223.601 73.2333C223.601 71.8568 222.484 70.7409 221.107 70.7409Z" fill="#D1D8E0"/>
<path d="M244.061 76.1534C245.675 76.1534 246.984 74.8461 246.984 73.2334C246.984 71.6207 245.675 70.3134 244.061 70.3134C242.447 70.3134 241.138 71.6207 241.138 73.2334C241.138 74.8461 242.447 76.1534 244.061 76.1534Z" fill="#99B5FF"/>
<path d="M285.245 70.7409H250.94C249.562 70.7409 248.445 71.8568 248.445 73.2333C248.445 74.6099 249.562 75.7258 250.94 75.7258H285.245C286.623 75.7258 287.74 74.6099 287.74 73.2333C287.74 71.8568 286.623 70.7409 285.245 70.7409Z" fill="#D1D8E0"/>
<path d="M294.971 48.0484H45.0702C43.6577 48.0484 42.5127 49.1923 42.5127 50.6034V81.2634C42.5127 82.6745 43.6577 83.8184 45.0702 83.8184H294.971C296.383 83.8184 297.528 82.6745 297.528 81.2634V50.6034C297.528 49.1923 296.383 48.0484 294.971 48.0484Z" stroke="#E6EBF0" stroke-width="0.56747"/>
</g>
<mask id="mask1_6385_2572" style="mask-type:luminance" maskUnits="userSpaceOnUse" x="0" y="0" width="427" height="147">
<path d="M0.131927 9.72338C0.131927 4.88536 4.05769 0.963379 8.90037 0.963379H417.363C422.206 0.963379 426.132 4.88536 426.132 9.72338V146.963H0.131927V9.72338Z" fill="white"/>
</mask>
<g mask="url(#mask1_6385_2572)">
<path d="M-5.7137 9.72338C-5.7137 1.66003 0.82924 -4.87662 8.90037 -4.87662H417.363C425.435 -4.87662 431.978 1.66003 431.978 9.72338H420.286C420.286 8.11071 418.978 6.80338 417.363 6.80338H8.90037C7.28614 6.80338 5.97755 8.11071 5.97755 9.72338H-5.7137ZM-5.7137 146.963V9.72338C-5.7137 1.66003 0.82924 -4.87662 8.90037 -4.87662V6.80338C7.28614 6.80338 5.97755 8.11071 5.97755 9.72338V146.963H-5.7137ZM417.363 -4.87662C425.435 -4.87662 431.978 1.66003 431.978 9.72338V146.963H420.286V9.72338C420.286 8.11071 418.978 6.80338 417.363 6.80338V-4.87662Z" fill="#505E70"/>
</g>
</g>
<defs>
<clipPath id="clip0_6385_2572">
<rect width="426" height="146" fill="white" transform="translate(0.131927 0.963379)"/>
</clipPath>
</defs>
</svg>
