<svg xmlns="http://www.w3.org/2000/svg" width="732.937" height="270.014" viewBox="0 0 732.937 270.014">
  <g id="Grupo_17890" data-name="Grupo 17890" transform="translate(-514.181 -1728.836)">
    <path id="Trazado_17602" data-name="Trazado 17602" d="M263.351,45.263c-24.8-.924-51.248,10.753-75.193,7.174-36.093-5.425-47.041-41.5-79.44-53.527C85.189-9.823,53.033-3.465,30.892,11.829S-3.7,49.967-5.568,71.7.762,116.194,13.1,134.178h0c15.816,21.339,40.491,37.256,70.553,45.511,37.957,10.3,83.326,10.965,123.274,3.2,28.314-5.519,56.463-16.464,77.652-33.672s34.542-41.058,31.405-62.832S291.343,46.3,263.351,45.263Z" transform="matrix(0.966, 0.259, -0.259, 0.966, 568.511, 1735.218)" fill="#f3f6f9"/>
    <g id="freepik--background-simple--inject-742" transform="matrix(-0.966, 0.259, -0.259, -0.966, 1258.068, 1915.805)">
      <path id="Trazado_5055" data-name="Trazado 5055" d="M287.3,30.725C221.348-16.1,160.078,55.7,88.454,50.035,42.307,46.386-4.584,64.483,10.126,109.11c21.394,64.9,151.138,65.112,218.516,51.268S345.7,72.206,287.3,30.725Z" transform="translate(0 0)" fill="#f3f6f9"/>
    </g>
    <g id="Grupo_13423" data-name="Grupo 13423" transform="translate(586.336 1763.242)">
      <path id="Trazado_7380" data-name="Trazado 7380" d="M195.328,121.405a25.708,25.708,0,1,1,25.708-25.649,25.708,25.708,0,0,1-25.708,25.649Zm0-49.153a23.446,23.446,0,1,0,23.446,23.4A23.446,23.446,0,0,0,195.328,72.252Z" transform="translate(-169.62 -35.06)" fill="#ffdb2e"/>
      <circle id="Elipse_121" data-name="Elipse 121" cx="7.998" cy="7.998" r="7.998" transform="translate(36.084)" fill="#ffdb2e"/>
      <path id="Trazado_7381" data-name="Trazado 7381" d="M248.329,107.369a13.431,13.431,0,1,1,9.5-3.95,13.419,13.419,0,0,1-9.5,3.95Zm0-24.577A11.157,11.157,0,1,0,259.5,93.9,11.158,11.158,0,0,0,248.329,82.792Z" transform="translate(-158.79 -33.312)" fill="#ffdb2e"/>
      <path id="Trazado_7382" data-name="Trazado 7382" d="M225.572,159.265a18.5,18.5,0,1,1,18.5-18.5A18.5,18.5,0,0,1,225.572,159.265Zm0-34.755a16.241,16.241,0,1,1,0,.023Z" transform="translate(-163.408 -26.39)" fill="#ffdb2e"/>
      <rect id="Rectángulo_919" data-name="Rectángulo 919" width="23.189" height="2.262" transform="matrix(0.299, -0.954, 0.954, 0.299, 33.066, 37.212)" fill="#ffdb2e"/>
      <rect id="Rectángulo_920" data-name="Rectángulo 920" width="26.955" height="2.262" transform="translate(50.284 59.506)" fill="#ffdb2e"/>
      <rect id="Rectángulo_921" data-name="Rectángulo 921" width="2.262" height="23.038" transform="matrix(0.81, -0.587, 0.587, 0.81, 38.753, 81.501)" fill="#ffdb2e"/>
      <path id="Trazado_7383" data-name="Trazado 7383" d="M202.043,94.12H185.3a4.594,4.594,0,0,0-4.535,3.894l-1.166,7.24h28.074l-1.166-7.24A4.594,4.594,0,0,0,202.043,94.12Z" transform="translate(-167.964 -31.058)" fill="#455a64"/>
      <path id="Trazado_7384" data-name="Trazado 7384" d="M200.766,85.916A7.963,7.963,0,1,1,192.8,78a7.963,7.963,0,0,1,7.963,7.916Z" transform="translate(-167.095 -33.732)" fill="#455a64"/>
      <path id="Trazado_7385" data-name="Trazado 7385" d="M251.015,93.11h-7.52a2.064,2.064,0,0,0-2.04,1.749L241,98.112h12.615l-.5-3.253a2.075,2.075,0,0,0-2.1-1.749Z" transform="translate(-157.78 -31.225)" fill="#505e70"/>
      <path id="Trazado_7386" data-name="Trazado 7386" d="M250.448,89.429a3.579,3.579,0,1,1-3.579-3.579A3.579,3.579,0,0,1,250.448,89.429Z" transform="translate(-157.4 -32.429)" fill="#505e70"/>
      <path id="Trazado_7387" data-name="Trazado 7387" d="M230.334,139.71H218.4a3.276,3.276,0,0,0-3.241,2.775l-.8,5.165h20.03l-.8-5.165a3.288,3.288,0,0,0-3.241-2.775Z" transform="translate(-162.2 -23.495)" fill="#ffdb2e"/>
      <path id="Trazado_7388" data-name="Trazado 7388" d="M229.429,133.858a5.689,5.689,0,1,1-5.678-5.678,5.689,5.689,0,0,1,5.678,5.678Z" transform="translate(-161.587 -25.408)" fill="#ffdb2e"/>
      <g id="Grupo_298" data-name="Grupo 298" transform="translate(52.15 102.772)">
        <path id="Trazado_7389" data-name="Trazado 7389" d="M230.334,139.71H218.4a3.276,3.276,0,0,0-3.241,2.775l-.8,5.165h20.03l-.8-5.165a3.288,3.288,0,0,0-3.241-2.775Z" transform="translate(-214.35 -126.267)" fill="#505e70"/>
        <path id="Trazado_7390" data-name="Trazado 7390" d="M229.429,133.858a5.689,5.689,0,1,1-5.678-5.678,5.689,5.689,0,0,1,5.678,5.678Z" transform="translate(-213.736 -128.18)" fill="#505e70"/>
      </g>
    </g>
    <g id="Grupo_17820" data-name="Grupo 17820" transform="translate(677.942 1922.883)">
      <path id="Trazado_4556" data-name="Trazado 4556" d="M393.347,135.164a4.007,4.007,0,1,1,4.007-4.007A4.007,4.007,0,0,1,393.347,135.164Z" transform="translate(-332.926 -108.196)" fill="#ffdb2e"/>
      <path id="Trazado_4557" data-name="Trazado 4557" d="M393.325,135.134a6.966,6.966,0,0,0,.954-.216,3.944,3.944,0,0,0,2.1-1.468,3.8,3.8,0,1,0-6.105,0,4.016,4.016,0,0,0,2.1,1.468c.594.18.954.171.954.216s-.09,0-.261,0a3.152,3.152,0,0,1-.738-.072,4,4,0,0,1-2.314-1.441,4.142,4.142,0,0,1-.648-3.962,4.2,4.2,0,0,1,7.924,0,4.142,4.142,0,0,1-.648,3.962,3.971,3.971,0,0,1-2.314,1.441,3.115,3.115,0,0,1-.738.072C393.415,135.161,393.325,135.152,393.325,135.134Z" transform="translate(-332.904 -108.166)" fill="#ffdb2e"/>
      <path id="Trazado_4558" data-name="Trazado 4558" d="M336.12,110.974c0-.126,23.07-.234,51.534-.234s51.534.108,51.534.234-23.07.234-51.534.234S336.12,111.109,336.12,110.974Z" transform="translate(-327.629 -106.563)" fill="#ffdb2e"/>
      <path id="Trazado_4559" data-name="Trazado 4559" d="M326.69,121.219h.81l2.323-.045,8.563-.072,28.257-.072,29.94.081-.135.081,3.395-6.528c.4-.729.7-1.306.9-1.738a3.79,3.79,0,0,1,.351-.585,4.04,4.04,0,0,1-.27.621c-.207.441-.5,1.036-.855,1.8-.783,1.585-1.891,3.818-3.278,6.6a.144.144,0,0,1-.135.081l-29.94.081-28.257-.063-8.563-.081H326.87A.627.627,0,0,0,326.69,121.219Z" transform="translate(-326.69 -106.722)" fill="#ffdb2e"/>
      <path id="Trazado_4560" data-name="Trazado 4560" d="M419.472,110.86a2.052,2.052,0,0,1-.126.351c-.108.261-.252.6-.432,1.018-.405.9-.972,2.206-1.675,3.827l-6.105,13.57a.2.2,0,0,1-.18.117H370.5a.189.189,0,0,1-.18-.117c-2.242-5.214-4.106-9.563-5.4-12.606l-1.486-3.548-.378-.9a1.488,1.488,0,0,1-.108-.324,1.385,1.385,0,0,1,.162.306c.117.234.261.54.432.9l1.594,3.5,5.574,12.606-.18-.117h40.449l-.189.117c2.566-5.556,4.718-10.2,6.249-13.507.756-1.6,1.36-2.872,1.8-3.782.207-.405.369-.729.486-.991A1.8,1.8,0,0,1,419.472,110.86Z" transform="translate(-330.299 -106.574)" fill="#ffdb2e"/>
      <path id="Trazado_4561" data-name="Trazado 4561" d="M408.907,114.414a4,4,0,1,1,2.833-1.168A4.007,4.007,0,0,1,408.907,114.414Z" transform="translate(-334.475 -106.131)" fill="#fff"/>
      <path id="Trazado_4562" data-name="Trazado 4562" d="M408.885,114.386a3.229,3.229,0,0,0,.955-.207,4,4,0,0,0,2.1-1.468,3.8,3.8,0,1,0-6.105,0,4.061,4.061,0,0,0,2.1,1.468c.594.171.954.171.954.207s-.09,0-.261,0a2.7,2.7,0,0,1-.738-.072,3.953,3.953,0,0,1-2.314-1.441,4.142,4.142,0,0,1-.648-3.962,4.205,4.205,0,0,1,7.924,0,4.142,4.142,0,0,1-.648,3.962,3.926,3.926,0,0,1-2.314,1.441,2.7,2.7,0,0,1-.738.072C408.975,114.422,408.885,114.4,408.885,114.386Z" transform="translate(-334.453 -106.102)" fill="#ffdb2e"/>
      <path id="Trazado_4563" data-name="Trazado 4563" d="M425.277,114.414a4,4,0,1,1,2.833-1.168A4.007,4.007,0,0,1,425.277,114.414Z" transform="translate(-336.104 -106.131)" fill="#fff"/>
      <path id="Trazado_4564" data-name="Trazado 4564" d="M425.255,114.384a3.228,3.228,0,0,0,.955-.207,4,4,0,0,0,2.1-1.468,3.845,3.845,0,0,0,.5-3.6,3.791,3.791,0,0,0-7.114,0,3.845,3.845,0,0,0,.5,3.6,4.061,4.061,0,0,0,2.1,1.468c.6.171.955.171.955.207s-.09,0-.261,0a2.7,2.7,0,0,1-.738-.072,3.953,3.953,0,0,1-2.314-1.441,4.142,4.142,0,0,1-.648-3.962,4.2,4.2,0,1,1,7.276,3.962,3.926,3.926,0,0,1-2.314,1.441,2.7,2.7,0,0,1-.738.072C425.345,114.42,425.255,114.4,425.255,114.384Z" transform="translate(-336.082 -106.101)" fill="#ffdb2e"/>
      <path id="Trazado_4565" data-name="Trazado 4565" d="M363.366,114.414a4.007,4.007,0,1,1,4-4,4.007,4.007,0,0,1-4,4Z" transform="translate(-329.941 -106.131)" fill="#ffdb2e"/>
      <path id="Trazado_4566" data-name="Trazado 4566" d="M363.345,114.384a3.282,3.282,0,0,0,.954-.207,4.016,4.016,0,0,0,2.089-1.468,3.872,3.872,0,0,0,.513-3.6,3.8,3.8,0,0,0-7.123,0,3.872,3.872,0,0,0,.513,3.6,4.016,4.016,0,0,0,2.089,1.468c.6.171.964.171.964.207s-.09,0-.261,0a2.791,2.791,0,0,1-.747-.072,3.971,3.971,0,0,1-2.314-1.441,4.2,4.2,0,1,1,6.636,0,3.971,3.971,0,0,1-2.314,1.441,2.791,2.791,0,0,1-.747.072C363.426,114.42,363.345,114.4,363.345,114.384Z" transform="translate(-329.919 -106.101)" fill="#ffdb2e"/>
      <path id="Trazado_4567" data-name="Trazado 4567" d="M348.556,114.414a4.007,4.007,0,1,1,4-4,4.007,4.007,0,0,1-4,4Z" transform="translate(-328.467 -106.131)" fill="#fff"/>
      <path id="Trazado_4568" data-name="Trazado 4568" d="M348.535,114.384a3.282,3.282,0,0,0,.955-.207,4.061,4.061,0,0,0,2.1-1.468,3.9,3.9,0,0,0,.5-3.6,3.8,3.8,0,0,0-7.123,0,3.872,3.872,0,0,0,.513,3.6,4.016,4.016,0,0,0,2.089,1.468c.6.171.964.171.964.207s-.09,0-.261,0a2.791,2.791,0,0,1-.747-.072,3.971,3.971,0,0,1-2.314-1.441,4.2,4.2,0,1,1,6.636,0,3.971,3.971,0,0,1-2.314,1.441,2.791,2.791,0,0,1-.747.072C348.634,114.42,348.535,114.4,348.535,114.384Z" transform="translate(-328.445 -106.101)" fill="#ffdb2e"/>
      <path id="Trazado_4569" data-name="Trazado 4569" d="M355.556,125.764a4.007,4.007,0,1,1,4-4.007A4.007,4.007,0,0,1,355.556,125.764Z" transform="translate(-329.163 -107.26)" fill="#fff"/>
      <path id="Trazado_4570" data-name="Trazado 4570" d="M355.535,125.733c0-.045.351-.045.954-.216a3.962,3.962,0,0,0,2.089-1.468,3.8,3.8,0,1,0-6.1,0,3.962,3.962,0,0,0,2.089,1.468c.6.171.964.171.964.216s-.09,0-.261,0a3.223,3.223,0,0,1-.747-.072,4.025,4.025,0,0,1-2.314-1.441,4.2,4.2,0,1,1,6.636,0,4.025,4.025,0,0,1-2.314,1.441,3.223,3.223,0,0,1-.747.072C355.643,125.76,355.535,125.751,355.535,125.733Z" transform="translate(-329.142 -107.229)" fill="#ffdb2e"/>
      <path id="Trazado_4571" data-name="Trazado 4571" d="M380.217,135.164a4.007,4.007,0,1,1,4.007-4.007A4.007,4.007,0,0,1,380.217,135.164Z" transform="translate(-331.619 -108.196)" fill="#fff"/>
      <path id="Trazado_4572" data-name="Trazado 4572" d="M380.2,135.134a6.966,6.966,0,0,0,.954-.216,3.944,3.944,0,0,0,2.1-1.468,3.8,3.8,0,1,0-6.105,0,4.016,4.016,0,0,0,2.1,1.468c.6.18.954.171.954.216s-.09,0-.261,0a3.152,3.152,0,0,1-.738-.072,4,4,0,0,1-2.314-1.441,4.142,4.142,0,0,1-.648-3.962,4.2,4.2,0,1,1,7.276,3.962,3.971,3.971,0,0,1-2.314,1.441,3.115,3.115,0,0,1-.738.072C380.285,135.161,380.2,135.152,380.2,135.134Z" transform="translate(-331.597 -108.166)" fill="#ffdb2e"/>
      <path id="Trazado_4573" data-name="Trazado 4573" d="M406.8,135.164a4.007,4.007,0,1,1,4.007-4.007A4.007,4.007,0,0,1,406.8,135.164Z" transform="translate(-334.265 -108.196)" fill="#fff"/>
      <path id="Trazado_4574" data-name="Trazado 4574" d="M406.776,135.134a7.218,7.218,0,0,0,.964-.216,3.962,3.962,0,0,0,2.089-1.468,3.8,3.8,0,1,0-6.105,0,4.016,4.016,0,0,0,2.1,1.468c.6.18.964.171.954.216s-.081,0-.252,0a3.222,3.222,0,0,1-.747-.072,4.025,4.025,0,0,1-2.314-1.441,4.2,4.2,0,1,1,6.636,0,4.016,4.016,0,0,1-2.323,1.441,3.116,3.116,0,0,1-.738.072C406.866,135.161,406.776,135.152,406.776,135.134Z" transform="translate(-334.243 -108.166)" fill="#ffdb2e"/>
    </g>
    <g id="Grupo_17868" data-name="Grupo 17868" transform="translate(962.334 1752.892)">
      <path id="Trazado_24329" data-name="Trazado 24329" d="M405.973,333a2.592,2.592,0,0,1-.322.482,7.234,7.234,0,0,1-1.117,1.1,9.036,9.036,0,0,1-9.824.989,8.034,8.034,0,0,1-1.318-.844c-.281-.241-.418-.386-.4-.41a18.175,18.175,0,0,0,1.849.989,9.446,9.446,0,0,0,9.518-.965A17.19,17.19,0,0,0,405.973,333Z" transform="translate(-385.678 -311.987)" fill="#263238"/>
      <path id="Trazado_24330" data-name="Trazado 24330" d="M395.036,334.193a6.682,6.682,0,0,1-2.331.169h0l.217-.209a6.518,6.518,0,0,1-.209,2.291,6.52,6.52,0,0,1-.209-2.291v-.217h.241a6.36,6.36,0,0,1,2.291.257Z" transform="translate(-385.578 -312.168)" fill="#263238"/>
      <path id="Trazado_24331" data-name="Trazado 24331" d="M390.26,323.931a1.391,1.391,0,0,1,.1-.571,7.793,7.793,0,0,1,.6-1.447,9.036,9.036,0,0,1,8.642-4.759,7.493,7.493,0,0,1,1.552.265c.354.1.539.185.531.217a20.5,20.5,0,0,0-2.09-.185,9.446,9.446,0,0,0-8.377,4.607C390.557,323.167,390.332,323.955,390.26,323.931Z" transform="translate(-385.143 -308.875)" fill="#263238"/>
      <path id="Trazado_24332" data-name="Trazado 24332" d="M402.18,318.453a6.511,6.511,0,0,1,2.074-1.069h0l-.113.273a6.432,6.432,0,0,1-.707-2.187,6.431,6.431,0,0,1,1.093,2.026l.08.193-.2.08h0A6.745,6.745,0,0,1,402.18,318.453Z" transform="translate(-387.48 -308.55)" fill="#263238"/>
      <path id="Trazado_24333" data-name="Trazado 24333" d="M421.274,348.476l-1.31-1.954s3.176-7.589,3.176-9.141v-7.356s-.547-1.013-1.318-.933a6.225,6.225,0,0,0-1.391.314s-.314-2.251-1.552-2.323a1.753,1.753,0,0,0-1.7.852s-.233-2.1-1.4-2.018a3.473,3.473,0,0,0-2.09,1.318l-1.544-6.126L407.953,315a1.97,1.97,0,0,0-1.085,2.412,41.591,41.591,0,0,0,1.608,3.9l.924,6.97-.233,3.023s-1.238,2.412-2.323,2.323-4.88-4.574-7.123-4.727a1.9,1.9,0,0,0-2.171,1.7,26.214,26.214,0,0,1,4.88,4.108c1.608,1.9,2.557,4.566,3.642,5.965s4.18,5.812,4.18,5.812l1.318,3.537" transform="translate(-386.573 -308.458)" fill="#fff"/>
      <path id="Trazado_24334" data-name="Trazado 24334" d="M411.539,349.922a.916.916,0,0,1-.1-.225l-.273-.667-1.013-2.621h0l-2.155-2.942-1.278-1.785c-.45-.635-.989-1.286-1.431-2.05a39.51,39.51,0,0,0-2.91-4.824,23.474,23.474,0,0,0-4.928-4.148l-.1-.064v-.1a2.123,2.123,0,0,1,.957-1.608,2.476,2.476,0,0,1,1.881-.209,10.451,10.451,0,0,1,3.216,1.986c.989.8,1.938,1.712,2.991,2.412.273.169.49.273.748.153a2.073,2.073,0,0,0,.724-.539,8.2,8.2,0,0,0,1.117-1.608v.08c.072-.949.153-1.978.233-3.023v.04l-.933-6.97v.064c-.273-.579-.555-1.206-.8-1.849a16.622,16.622,0,0,1-.9-2.412,1.93,1.93,0,0,1,.273-1.359,2.549,2.549,0,0,1,1.013-.9l.161-.08.1.153,4.172,6.118h0l1.544,6.126-.346-.072a4.615,4.615,0,0,1,1.029-.949,2.323,2.323,0,0,1,1.343-.434,1.1,1.1,0,0,1,.7.314,2.18,2.18,0,0,1,.4.587,4.823,4.823,0,0,1,.354,1.278l-.354-.064a1.9,1.9,0,0,1,1.109-.868,1.992,1.992,0,0,1,.683-.08,1.206,1.206,0,0,1,.683.209,2.3,2.3,0,0,1,.8,1.069,5.256,5.256,0,0,1,.33,1.206l-.233-.145a5.547,5.547,0,0,1,1.608-.314,1.849,1.849,0,0,1,1.286,1.021h0v7.01a4.6,4.6,0,0,1-.145,1.246c-.2.8-.45,1.511-.691,2.195-.973,2.717-1.849,4.775-2.412,6.118v-.056l.949,1.56.225.37c.048.08.072.121.064.121l-.088-.1-.257-.354c-.233-.338-.571-.8-1.013-1.463h0c.531-1.351,1.375-3.425,2.315-6.15.225-.683.466-1.407.659-2.171a11.259,11.259,0,0,0,.113-2.476v-5.6a1.608,1.608,0,0,0-1.029-.8,5.008,5.008,0,0,0-1.479.305l-.193.064v-.2a3.216,3.216,0,0,0-.965-2.026,1.318,1.318,0,0,0-1.069-.072,1.527,1.527,0,0,0-.876.683l-.281.482-.072-.547a4.149,4.149,0,0,0-.33-1.158,1.015,1.015,0,0,0-.8-.683,2.926,2.926,0,0,0-2.034,1.238l-.249.314-.1-.378c-.506-1.978-1.021-4.02-1.56-6.118v.064l-4.188-6.118.257.072A1.753,1.753,0,0,0,406.941,317a18.687,18.687,0,0,0,.876,2.348c.265.627.547,1.254.8,1.833h0c.322,2.412.635,4.743.933,6.978v.04c-.08,1.045-.161,2.074-.233,3.023v.08a8.313,8.313,0,0,1-1.19,1.7,2.525,2.525,0,0,1-.868.643,1.013,1.013,0,0,1-.6.048,1.85,1.85,0,0,1-.506-.241c-1.126-.8-2.034-1.672-3.015-2.468a10.322,10.322,0,0,0-3.055-1.929,2.122,2.122,0,0,0-1.608.169,1.76,1.76,0,0,0-.8,1.294l-.08-.161a23.427,23.427,0,0,1,4.984,4.253,38.512,38.512,0,0,1,2.894,4.888c.426.748.941,1.391,1.391,2.042l1.294,1.817,2.106,2.983h0c.4,1.134.724,2.018.941,2.645.1.289.177.515.233.691A.915.915,0,0,1,411.539,349.922Z" transform="translate(-386.533 -308.393)" fill="#263238"/>
      <path id="Trazado_24335" data-name="Trazado 24335" d="M429.257,355.965a3.156,3.156,0,0,0,.482-.056,3.585,3.585,0,0,0,1.326-.474,3.666,3.666,0,0,0,1.479-1.7,7.99,7.99,0,0,0,.273-3.119c0-4.824-.04-11.729-.072-20.283v-19.8a3.441,3.441,0,0,0-2.082-2.967,4.293,4.293,0,0,0-1.937-.281H387.67a3.449,3.449,0,0,0-3.344,2.637,12.586,12.586,0,0,0-.1,2.356v39.843a3.69,3.69,0,0,0,.394,1.817,3.489,3.489,0,0,0,2.95,1.857h14l20.283.064,5.507.04h0l-5.507.04L401.57,356H387.557a3.835,3.835,0,0,1-3.216-2.042,3.963,3.963,0,0,1-.442-1.978v-40.9a5.124,5.124,0,0,1,.1-1.246,3.867,3.867,0,0,1,3.754-2.958h41.017a4.711,4.711,0,0,1,2.09.314,3.932,3.932,0,0,1,1.608,1.334,3.851,3.851,0,0,1,.667,1.962V330.3c0,8.554-.048,15.476-.064,20.283v1.688a3.666,3.666,0,0,1-1.865,3.216,3.457,3.457,0,0,1-1.367.442,2.717,2.717,0,0,1-.587.032Z" transform="translate(-383.895 -306.862)" fill="#ffdb2e"/>
    </g>
    <g id="Grupo_17871" data-name="Grupo 17871" transform="translate(678.244 1738.235)">
      <g id="freepik--light-bulb--inject-76" transform="translate(0 0)">
        <path id="Trazado_23845" data-name="Trazado 23845" d="M402.986,87.023a3.283,3.283,0,1,1-.961-2.332,3.293,3.293,0,0,1,.961,2.332Z" transform="translate(-372.136 -32.303)" fill="#37474f"/>
        <path id="Trazado_23846" data-name="Trazado 23846" d="M395.886,87.322c-2.178-1.254-2.178-3.293,0-4.547a8.669,8.669,0,0,1,7.883,0c2.178,1.254,2.178,3.293,0,4.547a8.732,8.732,0,0,1-7.883,0Z" transform="translate(-372.27 -32.421)" fill="#455a64"/>
        <path id="Trazado_23847" data-name="Trazado 23847" d="M395.779,86.242c-2.242-1.3-2.242-3.389,0-4.685a8.977,8.977,0,0,1,8.127,0c2.241,1.3,2.241,3.389,0,4.685a8.977,8.977,0,0,1-8.127,0Z" transform="translate(-372.28 -32.499)" fill="#37474f"/>
        <path id="Trazado_23848" data-name="Trazado 23848" d="M395.662,85.1c-2.316-1.339-2.316-3.5,0-4.834a9.232,9.232,0,0,1,8.371,0c2.316,1.339,2.316,3.5,0,4.834a9.232,9.232,0,0,1-8.371,0Z" transform="translate(-372.291 -32.581)" fill="#455a64"/>
        <path id="Trazado_23849" data-name="Trazado 23849" d="M395.545,83.923c-2.38-1.37-2.38-3.6,0-4.982a9.561,9.561,0,0,1,8.626,0c2.39,1.381,2.39,3.612,0,4.982A9.5,9.5,0,0,1,395.545,83.923Z" transform="translate(-372.301 -32.665)" fill="#37474f"/>
        <path id="Trazado_23850" data-name="Trazado 23850" d="M395.467,82.69c-2.433-1.4-2.433-3.686,0-5.089a9.742,9.742,0,0,1,8.807,0c2.433,1.4,2.433,3.686,0,5.089a9.742,9.742,0,0,1-8.807,0Z" transform="translate(-372.308 -32.75)" fill="#455a64"/>
        <path id="Trazado_23851" data-name="Trazado 23851" d="M400.418,46.3A15.648,15.648,0,0,0,384.77,61.916c0,12.429,10.251,14.5,10.251,19.5a2.688,2.688,0,0,0,1.583,2.21,8.5,8.5,0,0,0,7.638,0,2.709,2.709,0,0,0,1.583-2.21h0c0-5,10.251-7.075,10.251-19.5A15.659,15.659,0,0,0,400.418,46.3Z" transform="translate(-372.861 -34.636)" fill="#9eaab8"/>
        <path id="Trazado_23852" data-name="Trazado 23852" d="M396.87,81.065c-1.583-.914-1.583-2.4,0-3.314a6.3,6.3,0,0,1,5.747,0c1.583.914,1.583,2.4,0,3.314a6.374,6.374,0,0,1-5.747,0Z" transform="translate(-372.181 -32.719)" opacity="0.1"/>
        <path id="Trazado_23853" data-name="Trazado 23853" d="M402.062,80.029a.531.531,0,0,1-.531-.521,37.556,37.556,0,0,1,1.094-8.934,17.616,17.616,0,0,1,.786-2.486,6.98,6.98,0,0,1-1.36-.669,9.019,9.019,0,0,1-2.125-1.742,8.943,8.943,0,0,1-2.029,1.71,6.981,6.981,0,0,1-1.36.669,19.123,19.123,0,0,1,.775,2.518,38.563,38.563,0,0,1,1.062,8.945.552.552,0,0,1-.542.521.521.521,0,0,1-.52-.542,37.776,37.776,0,0,0-1.062-8.669,16.723,16.723,0,0,0-.786-2.475,3.346,3.346,0,0,1-2.964-.871,1.71,1.71,0,0,1-.234-2.2,1.434,1.434,0,0,1,1.455-.606c.829.17,1.647,1.062,2.348,2.433a5.59,5.59,0,0,0,1.232-.584,8.053,8.053,0,0,0,1.986-1.71,3.92,3.92,0,0,1-.775-2.985,1.5,1.5,0,0,1,2.858,0,3.963,3.963,0,0,1-.776,2.985,8.192,8.192,0,0,0,2.029,1.7,6.077,6.077,0,0,0,1.232.584c.7-1.4,1.519-2.263,2.358-2.433a1.445,1.445,0,0,1,1.445.606,1.7,1.7,0,0,1-.234,2.2,3.315,3.315,0,0,1-2.953.871,16.632,16.632,0,0,0-.8,2.475,37.455,37.455,0,0,0-1.062,8.669.531.531,0,0,1-.521.542Zm-8.594-14.32a.393.393,0,0,0-.308.191c-.255.361.053.744.149.85a2.125,2.125,0,0,0,1.7.563c-.563-1.062-1.115-1.53-1.466-1.593Zm11.463,1.6a2.125,2.125,0,0,0,1.7-.563.669.669,0,0,0,.149-.85c-.149-.2-.276-.2-.382-.181C406.046,65.783,405.5,66.325,404.93,67.313Zm-4.961-5.482a.351.351,0,0,0-.4.276,2.571,2.571,0,0,0,.4,1.742,2.518,2.518,0,0,0,.4-1.742C400.33,61.938,400.245,61.832,399.969,61.832Z" transform="translate(-372.412 -33.733)" fill="#fff"/>
        <path id="Trazado_23854" data-name="Trazado 23854" d="M399.562,43.564A1.062,1.062,0,0,1,398.5,42.5V36.382a1.062,1.062,0,1,1,2.125,0V42.5A1.062,1.062,0,0,1,399.562,43.564Z" transform="translate(-372.005 -35.32)" fill="#ffdb2e"/>
        <path id="Trazado_23855" data-name="Trazado 23855" d="M390.683,45.948a1.062,1.062,0,0,1-1.455-.393l-3.06-5.312a1.066,1.066,0,1,1,1.848-1.062l3.06,5.312a1.062,1.062,0,0,1-.393,1.455Z" transform="translate(-372.783 -35.113)" fill="#ffdb2e"/>
        <path id="Trazado_23856" data-name="Trazado 23856" d="M384.191,52.444a1.062,1.062,0,0,1-1.455.393l-5.312-3.06a1.062,1.062,0,1,1,1.062-1.838L383.8,51A1.062,1.062,0,0,1,384.191,52.444Z" transform="translate(-373.355 -34.544)" fill="#ffdb2e"/>
        <path id="Trazado_23857" data-name="Trazado 23857" d="M381.8,61.332a1.062,1.062,0,0,1-1.062,1.062h-6.119a1.062,1.062,0,1,1,0-2.125h6.119A1.062,1.062,0,0,1,381.8,61.332Z" transform="translate(-373.56 -33.765)" fill="#ffdb2e"/>
        <path id="Trazado_23858" data-name="Trazado 23858" d="M384.189,70.391a1.062,1.062,0,0,1-.393,1.445l-5.312,3.06a1.061,1.061,0,1,1-1.062-1.838L382.733,70a1.062,1.062,0,0,1,1.455.393Z" transform="translate(-373.353 -33.167)" fill="#ffdb2e"/>
        <path id="Trazado_23859" data-name="Trazado 23859" d="M415.258,70.391A1.062,1.062,0,0,1,416.7,70l5.312,3.06a1.062,1.062,0,1,1-1.062,1.838l-5.312-3.06a1.062,1.062,0,0,1-.382-1.445Z" transform="translate(-370.97 -33.167)" fill="#ffdb2e"/>
        <path id="Trazado_23860" data-name="Trazado 23860" d="M417.68,61.332a1.062,1.062,0,0,1,1.062-1.062h6.13a1.062,1.062,0,0,1,0,2.125h-6.13A1.062,1.062,0,0,1,417.68,61.332Z" transform="translate(-370.81 -33.765)" fill="#ffdb2e"/>
        <path id="Trazado_23861" data-name="Trazado 23861" d="M415.258,52.444A1.062,1.062,0,0,1,415.641,51l5.312-3.06a1.062,1.062,0,1,1,1.062,1.838l-5.312,3.06A1.062,1.062,0,0,1,415.258,52.444Z" transform="translate(-370.97 -34.544)" fill="#ffdb2e"/>
        <path id="Trazado_23862" data-name="Trazado 23862" d="M408.621,45.946a1.062,1.062,0,0,1-.382-1.455l3.06-5.312a1.062,1.062,0,0,1,1.838,1.062l-3.06,5.312a1.062,1.062,0,0,1-1.455.393Z" transform="translate(-371.408 -35.11)" fill="#ffdb2e"/>
      </g>
    </g>
    <g id="Grupo_17872" data-name="Grupo 17872" transform="translate(782.336 1863.6)">
      <path id="Trazado_23983" data-name="Trazado 23983" d="M250.931,284.308h0a3.7,3.7,0,0,1,0-5.2l2.336-2.336a3.691,3.691,0,0,1,5.21,0h0a3.685,3.685,0,0,1,0,5.2l-2.336,2.336A3.691,3.691,0,0,1,250.931,284.308Z" transform="translate(-233.682 -275.692)" fill="#263238"/>
      <path id="Trazado_23985" data-name="Trazado 23985" d="M225.47,305.148a2.342,2.342,0,0,1-2.063-3.455.448.448,0,0,0,0-.418,1.761,1.761,0,0,1,.333-2.021l14.329-14.329a.605.605,0,0,1,.883,0l4.405,4.411a.605.605,0,0,1,0,.883l-14.329,14.329h0a1.749,1.749,0,0,1-2.015.333.466.466,0,0,0-.418,0A2.294,2.294,0,0,1,225.47,305.148Zm13.028-18.9L224.61,300.138a.5.5,0,0,0-.1.605,1.706,1.706,0,0,1,0,1.567A1.1,1.1,0,0,0,226,303.793a1.706,1.706,0,0,1,1.567,0,.508.508,0,0,0,.605-.1h0l13.918-13.888Z" transform="translate(-223.125 -279.262)" fill="#ffdb2e"/>
      <path id="Trazado_23986" data-name="Trazado 23986" d="M246.227,281.536h0a1.815,1.815,0,0,1,2.56,0l5.38,5.38a1.815,1.815,0,0,1,0,2.554h0a1.815,1.815,0,0,1-2.554,0l-5.386-5.38a1.815,1.815,0,0,1,0-2.554Z" transform="translate(-232.04 -277.791)" fill="#263238"/>
    </g>
    <g id="Grupo_17816" data-name="Grupo 17816" transform="translate(835.51 1810.917)">
      <path id="Trazado_2695" data-name="Trazado 2695" d="M135.24,303.594c0-.167.608-.417,1.419-.548s1.49-.119,1.514,0-.6.417-1.407.56S135.264,303.772,135.24,303.594Z" transform="translate(-57.953 -302.951)" fill="#ffdb2e"/>
      <rect id="Rectángulo_319" data-name="Rectángulo 319" width="126.379" height="84.618" transform="translate(0.143 0.439)" fill="#fff"/>
      <path id="Trazado_2776" data-name="Trazado 2776" d="M196.932,388v-23.02c0-14.7,0-35.836-.1-61.6l.179.191H70.648l.226-.227v84.642l-.215-.2,91.056.1,26.013.06h.036L161.8,388l-91.187.107h-.2V303.02h126.8v.179c0,25.81-.083,46.982-.1,61.717v21.4A7.266,7.266,0,0,1,196.932,388Z" transform="translate(-70.41 -302.938)" fill="#ffdb2e"/>
      <path id="Trazado_2777" data-name="Trazado 2777" d="M70.53,309.7c0-.131,28.278-.227,63.184-.227s63.184.1,63.184.227-28.266.227-63.184.227S70.53,309.816,70.53,309.7Z" transform="translate(-70.387 -301.699)" fill="#ffdb2e"/>
      <g id="Grupo_160" data-name="Grupo 160" transform="translate(3.112 3.17)" opacity="0.3">
        <circle id="Elipse_21" data-name="Elipse 21" cx="1.013" cy="1.013" r="1.013" transform="translate(0)" fill="#ffdb2e"/>
      </g>
      <g id="Grupo_161" data-name="Grupo 161" transform="translate(6.581 3.17)" opacity="0.3">
        <path id="Trazado_2778" data-name="Trazado 2778" d="M77.957,306.623a1.013,1.013,0,1,1-1.013-1.013,1.013,1.013,0,0,1,1.013,1.013Z" transform="translate(-75.93 -305.61)" fill="#ffdb2e"/>
      </g>
      <g id="Grupo_162" data-name="Grupo 162" transform="translate(10.002 3.17)" opacity="0.3">
        <path id="Trazado_2779" data-name="Trazado 2779" d="M80.827,306.623a1.013,1.013,0,1,1-1.013-1.013,1.013,1.013,0,0,1,1.013,1.013Z" transform="translate(-78.8 -305.61)" fill="#ffdb2e"/>
      </g>
      <g id="Grupo_163" data-name="Grupo 163" transform="translate(11.015 16.82)" opacity="0.3">
        <rect id="Rectángulo_320" data-name="Rectángulo 320" width="33.714" height="33.714" transform="translate(0 0)" fill="#ffdb2e"/>
      </g>
      <path id="Trazado_2780" data-name="Trazado 2780" d="M171.467,325.087c0,.131-13.114.226-29.363.226s-29.374-.1-29.374-.226,13.114-.227,29.374-.227S171.467,325.027,171.467,325.087Z" transform="translate(-62.279 -298.741)" fill="#ffdb2e"/>
      <path id="Trazado_2781" data-name="Trazado 2781" d="M171.467,330.347c0,.119-13.114.227-29.363.227s-29.374-.107-29.374-.227,13.114-.227,29.374-.227S171.467,330.215,171.467,330.347Z" transform="translate(-62.279 -297.731)" fill="#ffdb2e"/>
      <path id="Trazado_2782" data-name="Trazado 2782" d="M171.467,335.6c0,.131-13.114.227-29.363.227s-29.374-.1-29.374-.227,13.114-.226,29.374-.226S171.467,335.477,171.467,335.6Z" transform="translate(-62.279 -296.722)" fill="#ffdb2e"/>
      <path id="Trazado_2783" data-name="Trazado 2783" d="M147.455,340.857a9.03,9.03,0,0,1-1.371.083l-3.719.072c-3.135,0-7.475.072-12.267.072s-9.132,0-12.267-.072l-3.719-.072a9.038,9.038,0,0,1-1.371-.083,7.924,7.924,0,0,1,1.371-.1l3.719-.071c3.135,0,7.475-.06,12.267-.06s9.132,0,12.267.06l3.719.072a7.918,7.918,0,0,1,1.371.1Z" transform="translate(-62.277 -295.711)" fill="#ffdb2e"/>
      <g id="Grupo_164" data-name="Grupo 164" transform="translate(13.126 61.895)" opacity="0.3">
        <rect id="Rectángulo_321" data-name="Rectángulo 321" width="15.844" height="15.844" transform="translate(0 0)" fill="#ffdb2e"/>
      </g>
      <g id="Grupo_165" data-name="Grupo 165" transform="translate(41.856 61.895)" opacity="0.3">
        <rect id="Rectángulo_322" data-name="Rectángulo 322" width="15.844" height="15.844" transform="translate(0 0)" fill="#ffdb2e"/>
      </g>
      <g id="Grupo_166" data-name="Grupo 166" transform="translate(70.587 61.895)" opacity="0.3">
        <rect id="Rectángulo_323" data-name="Rectángulo 323" width="15.844" height="15.844" transform="translate(0 0)" fill="#ffdb2e"/>
      </g>
      <g id="Grupo_167" data-name="Grupo 167" transform="translate(99.317 61.895)" opacity="0.3">
        <rect id="Rectángulo_324" data-name="Rectángulo 324" width="15.844" height="15.844" transform="translate(0 0)" fill="#ffdb2e"/>
      </g>
    </g>
    <g id="Grupo_13424" data-name="Grupo 13424" transform="translate(709.318 1846.588)">
      <rect id="Rectángulo_922" data-name="Rectángulo 922" width="54.362" height="51.604" rx="6.6" transform="translate(0.498 0.498)" fill="#fafafa"/>
      <path id="Trazado_7393" data-name="Trazado 7393" d="M330.3,123.25H289.09a7.08,7.08,0,0,1-7.08-7.07V77.73a7.08,7.08,0,0,1,7.08-7.07H330.3a7.07,7.07,0,0,1,7.07,7.07v38.449a7.07,7.07,0,0,1-7.07,7.07ZM289.09,71.656a6.084,6.084,0,0,0-6.084,6.075v38.449a6.084,6.084,0,0,0,6.084,6.075H330.3a6.075,6.075,0,0,0,6.075-6.075V77.73a6.075,6.075,0,0,0-6.075-6.075Z" transform="translate(-282.01 -70.66)" fill="#e0e0e0"/>
      <path id="Trazado_7394" data-name="Trazado 7394" d="M322.407,109.791a18.283,18.283,0,1,1-8.355-29.974l-5.5,17.447h0a.428.428,0,0,0,.149.339h0Z" transform="translate(-282.046 -70.695)" fill="#ffdb2e"/>
      <path id="Trazado_7395" data-name="Trazado 7395" d="M322.407,109.791a18.283,18.283,0,1,1-8.355-29.974l-5.5,17.447h0a.428.428,0,0,0,.149.339h0Z" transform="translate(-282.046 -70.695)" fill="#38485c"/>
      <path id="Trazado_7396" data-name="Trazado 7396" d="M327.392,85.366,311.2,95.324l5.776-18.134a20.2,20.2,0,0,1,10.416,8.176Z" transform="translate(-282.132 -70.687)" fill="#9eaab8"/>
      <path id="Trazado_7397" data-name="Trazado 7397" d="M330.7,97.5a20.2,20.2,0,0,1-4.76,13.055L311.19,97.607,327.93,87.27A20.216,20.216,0,0,1,330.7,97.5Z" transform="translate(-282.132 -70.729)" fill="#ffdb2e"/>
      <g id="Grupo_299" data-name="Grupo 299" transform="translate(29.058 16.541)">
        <path id="Trazado_7398" data-name="Trazado 7398" d="M330.7,97.5a20.2,20.2,0,0,1-4.76,13.055L311.19,97.607,327.93,87.27A20.216,20.216,0,0,1,330.7,97.5Z" transform="translate(-311.19 -87.27)" fill="#e6ebf0"/>
      </g>
    </g>
    <g id="Grupo_13425" data-name="Grupo 13425" transform="translate(913.737 1909.076)">
      <rect id="Rectángulo_923" data-name="Rectángulo 923" width="40.086" height="31.233" rx="5.99" fill="#d1d8e0"/>
      <circle id="Elipse_122" data-name="Elipse 122" cx="10.098" cy="10.098" r="10.098" transform="translate(7.885 23.051) rotate(-76.72)" fill="#fafafa"/>
      <path id="Trazado_7401" data-name="Trazado 7401" d="M389.015,123.942l-7.849-4.2a1.109,1.109,0,0,0-1.607.98v8.395a1.109,1.109,0,0,0,1.607.98l7.849-4.2a1.109,1.109,0,0,0,0-1.952Z" transform="translate(-363.477 -109.346)" fill="#ffdb2e"/>
    </g>
    <g id="Grupo_13426" data-name="Grupo 13426" transform="translate(950.99 1824.937)">
      <path id="Trazado_7403" data-name="Trazado 7403" d="M434.158,167.05H400.123a3.823,3.823,0,0,0-3.823,3.823v17.145a3.823,3.823,0,0,0,3.823,3.823h3.893V197.4a.6.6,0,0,0,1.019.42l5.989-5.983h23.134a3.823,3.823,0,0,0,3.823-3.823V170.841A3.823,3.823,0,0,0,434.158,167.05Z" transform="translate(-396.3 -167.05)" fill="#9eaab8"/>
      <path id="Trazado_7404" data-name="Trazado 7404" d="M434.48,177.871H406.115a1.09,1.09,0,0,1-1.115-1.1h0a1.09,1.09,0,0,1,1.089-1.1h28.365a1.1,1.1,0,0,1,1.128,1.1h0a1.1,1.1,0,0,1-1.1,1.1Z" transform="translate(-399.457 -170.182)" fill="#fafafa"/>
      <path id="Trazado_7405" data-name="Trazado 7405" d="M434.48,187.165H406.115A1.089,1.089,0,0,1,405,186.076h0a1.09,1.09,0,0,1,1.089-1.1h28.365a1.1,1.1,0,0,1,1.128,1.1h0a1.1,1.1,0,0,1-1.1,1.089Z" transform="translate(-399.457 -173.556)" fill="#fafafa"/>
      <path id="Trazado_7406" data-name="Trazado 7406" d="M434.48,196.465H406.115A1.089,1.089,0,0,1,405,195.376h0a1.09,1.09,0,0,1,1.089-1.1h28.365a1.1,1.1,0,0,1,1.128,1.1h0A1.1,1.1,0,0,1,434.48,196.465Z" transform="translate(-399.457 -176.931)" fill="#fafafa"/>
    </g>
    <g id="Grupo_17867" data-name="Grupo 17867" transform="translate(811.934 1910.433)">
      <path id="Trazado_24337" data-name="Trazado 24337" d="M400.464,95.942a1.206,1.206,0,0,1,0-.686,2.714,2.714,0,0,1,.988-1.6,2.857,2.857,0,0,1,2.736-.452,2.91,2.91,0,0,1,0,5.48,2.872,2.872,0,0,1-2.736-.452,2.736,2.736,0,0,1-.987-1.6,1.251,1.251,0,0,1,0-.694,2.015,2.015,0,0,0,.158.656,2.736,2.736,0,0,0,.987,1.41,2.608,2.608,0,0,0,2.45.339,2.563,2.563,0,0,0,0-4.8,2.631,2.631,0,0,0-2.45.332,2.722,2.722,0,0,0-.987,1.395C400.5,95.7,400.494,95.942,400.464,95.942Z" transform="translate(-387.962 -87.397)" fill="#263238"/>
      <path id="Trazado_24338" data-name="Trazado 24338" d="M413.482,128.4l-1.357-3.015-7.629-5.895-4.387-9.559s-.264-1.395.678-1.847,2.118.754,2.571,1.319,3.588,6.423,3.588,6.423v-1.508l-4.8-17.338a1.274,1.274,0,0,1,.935-1.583h0a1.281,1.281,0,0,1,1.508.754l4.433,10.727s-.264-2.261,1.621-2.45a2.6,2.6,0,0,1,2.608,1.508s-.377-1.508,1.545-1.7,2.571,2.148,2.571,2.148c-.113-1.282,1.364-1.432,1.364-1.432a2.42,2.42,0,0,1,2.148.9c3.272,6.212,1.922,16.939,1.922,16.939l1.749,5.043.053.158" transform="translate(-387.878 -87.967)" fill="#fff"/>
      <path id="Trazado_24339" data-name="Trazado 24339" d="M424.529,128.1a2.43,2.43,0,0,1-.136-.339l-.369-1.018-1.38-3.845v-.038a49.576,49.576,0,0,0,.181-7.3,33.924,33.924,0,0,0-.535-4.613,17.836,17.836,0,0,0-1.621-4.945h0a2.186,2.186,0,0,0-2-.844h0a1.771,1.771,0,0,0-.882.377.988.988,0,0,0-.324.882l.136,1.508-.467-1.508a2.7,2.7,0,0,0-1.877-2,2.186,2.186,0,0,0-1.41.249,1.116,1.116,0,0,0-.5,1.206l.317,1.508-.656-1.4a2.706,2.706,0,0,0-.95-1.093,2.209,2.209,0,0,0-1.432-.339,1.508,1.508,0,0,0-1.214.754,2.669,2.669,0,0,0-.279,1.508l.09,1.191-.452-1.093-2.857-6.89q-.754-1.771-1.508-3.6a1.349,1.349,0,0,0-.482-.754,1.07,1.07,0,0,0-.8-.173,1.085,1.085,0,0,0-.889,1.38c1.7,6.114,3.317,11.986,4.824,17.421v2.262l-.339-.641c-1.07-1.99-2.1-3.912-3.143-5.729-.128-.219-.264-.452-.4-.641a5.037,5.037,0,0,0-.505-.558,3.016,3.016,0,0,0-1.191-.754.942.942,0,0,0-1.1.407,2.058,2.058,0,0,0-.181,1.3V109.9c1.636,3.611,3.091,6.784,4.35,9.574v-.045l7.591,5.94h0c.43,1,.754,1.756.987,2.261.106.241.181.43.241.573a.752.752,0,0,1,.068.188,1.438,1.438,0,0,1-.1-.173l-.271-.558-1.048-2.261h0l-7.666-5.842h0c-1.266-2.751-2.751-5.948-4.41-9.543h0a2.344,2.344,0,0,1,.219-1.508,1.259,1.259,0,0,1,1.47-.558,3.377,3.377,0,0,1,1.342.852,5.787,5.787,0,0,1,.535.6c.166.234.286.452.43.678,1.055,1.824,2.088,3.769,3.166,5.729l-.347.09v-1.425c-1.508-5.45-3.143-11.307-4.847-17.451a1.508,1.508,0,0,1,2.3-1.455,1.764,1.764,0,0,1,.618.89q.754,1.817,1.508,3.6l2.842,6.9-.362.09a3.068,3.068,0,0,1,.332-1.749,1.839,1.839,0,0,1,1.508-.912,2.631,2.631,0,0,1,1.666.4,3.016,3.016,0,0,1,1.086,1.266l-.339.113a1.629,1.629,0,0,1,.068-.912,1.418,1.418,0,0,1,.588-.686,2.533,2.533,0,0,1,1.666-.294,2.322,2.322,0,0,1,1.395.859,4.214,4.214,0,0,1,.754,1.395l-.332.06a1.342,1.342,0,0,1,.445-1.161,2.073,2.073,0,0,1,1.063-.452h0a2.261,2.261,0,0,1,1.327.2,2.948,2.948,0,0,1,.98.754h0a17.963,17.963,0,0,1,1.568,5,34.633,34.633,0,0,1,.505,4.666,47.573,47.573,0,0,1-.264,7.327h0c.565,1.666,1,2.963,1.3,3.867l.332,1.01A1.861,1.861,0,0,1,424.529,128.1Z" transform="translate(-387.837 -87.961)" fill="#263238"/>
      <path id="Trazado_24340" data-name="Trazado 24340" d="M426.43,131.595a3.835,3.835,0,0,1,.452-.053,3.4,3.4,0,0,0,1.244-.452,3.362,3.362,0,0,0,1.387-1.6,7.478,7.478,0,0,0,.256-2.925c0-4.523-.038-11-.068-19.012V88.988a3.226,3.226,0,0,0-.573-1.658,3.264,3.264,0,0,0-1.379-1.131,4.025,4.025,0,0,0-1.817-.264h-38.5a3.234,3.234,0,0,0-3.136,2.473,11.734,11.734,0,0,0-.09,2.2v37.36a3.445,3.445,0,0,0,.369,1.7,3.241,3.241,0,0,0,2.767,1.741h13.124l19.019.068h0l-19.019.06H387.329a3.6,3.6,0,0,1-3.015-1.915,3.724,3.724,0,0,1-.415-1.862V89.509a4.862,4.862,0,0,1,.1-1.176,3.611,3.611,0,0,1,3.52-2.767h38.46a4.417,4.417,0,0,1,1.96.3,3.686,3.686,0,0,1,1.508,1.251,3.58,3.58,0,0,1,.626,1.832V107.54c-.113,8.028-.113,14.534-.113,19.057v1.591a3.438,3.438,0,0,1-1.749,3.015,3.158,3.158,0,0,1-1.281.422A2.549,2.549,0,0,1,426.43,131.595Z" transform="translate(-383.895 -85.554)" fill="#ffdb2e"/>
    </g>
    <g id="freepik--color-palette--inject-74" transform="translate(820.945 1731.954) rotate(56)">
      <rect id="Rectángulo_8944" data-name="Rectángulo 8944" width="18.902" height="77.565" transform="translate(25.265 0)" fill="#ffdb2e"/>
      <rect id="Rectángulo_8945" data-name="Rectángulo 8945" width="18.902" height="77.565" transform="translate(25.265 0)" fill="#fff" opacity="0.7"/>
      <rect id="Rectángulo_8946" data-name="Rectángulo 8946" width="16.079" height="7.387" transform="translate(26.679 3.696)" fill="#263238" opacity="0.3"/>
      <rect id="Rectángulo_8947" data-name="Rectángulo 8947" width="16.079" height="7.387" transform="translate(26.679 12.629)" fill="#263238" opacity="0.417"/>
      <rect id="Rectángulo_8948" data-name="Rectángulo 8948" width="16.079" height="7.387" transform="translate(26.679 21.563)" fill="#263238" opacity="0.533"/>
      <rect id="Rectángulo_8949" data-name="Rectángulo 8949" width="16.079" height="7.387" transform="translate(26.679 30.501)" fill="#263238" opacity="0.65"/>
      <rect id="Rectángulo_8950" data-name="Rectángulo 8950" width="16.079" height="7.387" transform="translate(26.679 39.435)" fill="#263238" opacity="0.767"/>
      <rect id="Rectángulo_8951" data-name="Rectángulo 8951" width="16.079" height="7.387" transform="translate(26.679 48.369)" fill="#263238" opacity="0.883"/>
      <rect id="Rectángulo_8952" data-name="Rectángulo 8952" width="16.079" height="7.387" transform="translate(26.679 57.307)" fill="#263238"/>
      <rect id="Rectángulo_8953" data-name="Rectángulo 8953" width="18.902" height="77.565" transform="matrix(0.985, -0.172, 0.172, 0.985, 12.219, 7.864)" fill="#ffdb2e"/>
      <rect id="Rectángulo_8954" data-name="Rectángulo 8954" width="18.902" height="77.565" transform="matrix(0.985, -0.172, 0.172, 0.985, 12.219, 7.864)" fill="#fff" opacity="0.8"/>
      <rect id="Rectángulo_8955" data-name="Rectángulo 8955" width="16.079" height="7.387" transform="matrix(0.985, -0.172, 0.172, 0.985, 14.247, 11.258)" fill="#ffdb2e"/>
      <rect id="Rectángulo_8956" data-name="Rectángulo 8956" width="16.079" height="7.387" transform="matrix(0.985, -0.172, 0.172, 0.985, 15.785, 20.062)" fill="#ffdb2e"/>
      <rect id="Rectángulo_8957" data-name="Rectángulo 8957" width="16.079" height="7.387" transform="matrix(0.985, -0.172, 0.172, 0.985, 17.323, 28.865)" fill="#ffdb2e"/>
      <rect id="Rectángulo_8958" data-name="Rectángulo 8958" width="16.079" height="7.387" transform="matrix(0.985, -0.172, 0.172, 0.985, 18.856, 37.666)" fill="#ffdb2e"/>
      <rect id="Rectángulo_8959" data-name="Rectángulo 8959" width="16.079" height="7.387" transform="matrix(0.985, -0.172, 0.172, 0.985, 20.394, 46.469)" fill="#ffdb2e"/>
      <rect id="Rectángulo_8960" data-name="Rectángulo 8960" width="16.151" height="7.42" transform="translate(21.986 55.936) rotate(-9.744)" fill="#ffdb2e"/>
      <rect id="Rectángulo_8961" data-name="Rectángulo 8961" width="16.079" height="7.387" transform="matrix(0.985, -0.172, 0.172, 0.985, 23.465, 64.069)" fill="#ffdb2e"/>
      <rect id="Rectángulo_8962" data-name="Rectángulo 8962" width="16.079" height="7.387" transform="matrix(0.985, -0.172, 0.172, 0.985, 14.247, 11.258)" opacity="0.05"/>
      <rect id="Rectángulo_8963" data-name="Rectángulo 8963" width="16.079" height="7.387" transform="matrix(0.985, -0.172, 0.172, 0.985, 15.785, 20.062)" opacity="0.1"/>
      <rect id="Rectángulo_8964" data-name="Rectángulo 8964" width="16.079" height="7.387" transform="matrix(0.985, -0.172, 0.172, 0.985, 17.323, 28.865)" opacity="0.2"/>
      <rect id="Rectángulo_8965" data-name="Rectángulo 8965" width="16.079" height="7.387" transform="matrix(0.985, -0.172, 0.172, 0.985, 18.856, 37.666)" opacity="0.3"/>
      <rect id="Rectángulo_8966" data-name="Rectángulo 8966" width="16.079" height="7.387" transform="matrix(0.985, -0.172, 0.172, 0.985, 20.394, 46.469)" opacity="0.4"/>
      <rect id="Rectángulo_8967" data-name="Rectángulo 8967" width="16.151" height="7.42" transform="translate(21.986 55.936) rotate(-9.744)" opacity="0.5"/>
      <rect id="Rectángulo_8968" data-name="Rectángulo 8968" width="16.079" height="7.387" transform="matrix(0.985, -0.172, 0.172, 0.985, 23.465, 64.069)" opacity="0.6"/>
      <rect id="Rectángulo_8969" data-name="Rectángulo 8969" width="18.902" height="77.565" transform="translate(0 17.992) rotate(-19.9)" fill="#ffdb2e"/>
      <rect id="Rectángulo_8970" data-name="Rectángulo 8970" width="18.902" height="77.565" transform="translate(0 17.992) rotate(-19.9)" fill="#fff" opacity="0.9"/>
      <rect id="Rectángulo_8971" data-name="Rectángulo 8971" width="16.079" height="7.387" transform="translate(2.585 20.981) rotate(-19.9)" fill="#ffdb2e"/>
      <rect id="Rectángulo_8972" data-name="Rectángulo 8972" width="16.079" height="7.387" transform="translate(5.629 29.383) rotate(-19.9)" fill="#ffdb2e"/>
      <rect id="Rectángulo_8973" data-name="Rectángulo 8973" width="16.079" height="7.387" transform="translate(8.664 37.788) rotate(-19.9)" fill="#ffdb2e"/>
      <rect id="Rectángulo_8974" data-name="Rectángulo 8974" width="16.079" height="7.387" transform="translate(11.707 46.19) rotate(-19.9)" fill="#ffdb2e"/>
      <rect id="Rectángulo_8975" data-name="Rectángulo 8975" width="16.079" height="7.387" transform="translate(14.751 54.588) rotate(-19.9)" fill="#ffdb2e"/>
      <rect id="Rectángulo_8976" data-name="Rectángulo 8976" width="16.079" height="7.387" transform="translate(17.79 62.991) rotate(-19.9)" fill="#ffdb2e"/>
      <rect id="Rectángulo_8977" data-name="Rectángulo 8977" width="16.079" height="7.387" transform="translate(20.834 71.393) rotate(-19.9)" fill="#ffdb2e"/>
      <rect id="Rectángulo_8978" data-name="Rectángulo 8978" width="16.079" height="7.387" transform="translate(2.585 20.981) rotate(-19.9)" fill="#fff" opacity="0.6"/>
      <rect id="Rectángulo_8979" data-name="Rectángulo 8979" width="16.079" height="7.387" transform="translate(5.629 29.383) rotate(-19.9)" fill="#fff" opacity="0.5"/>
      <rect id="Rectángulo_8980" data-name="Rectángulo 8980" width="16.079" height="7.387" transform="translate(8.664 37.788) rotate(-19.9)" fill="#fff" opacity="0.4"/>
      <rect id="Rectángulo_8981" data-name="Rectángulo 8981" width="16.079" height="7.387" transform="translate(11.707 46.19) rotate(-19.9)" fill="#fff" opacity="0.3"/>
      <rect id="Rectángulo_8982" data-name="Rectángulo 8982" width="16.079" height="7.387" transform="translate(14.751 54.588) rotate(-19.9)" fill="#fff" opacity="0.2"/>
      <rect id="Rectángulo_8983" data-name="Rectángulo 8983" width="16.079" height="7.387" transform="translate(17.79 62.991) rotate(-19.9)" fill="#fff" opacity="0.1"/>
    </g>
    <g id="Grupo_17866" data-name="Grupo 17866" transform="translate(1028.105 1754.984)">
      <g id="Grupo_17864" data-name="Grupo 17864" transform="translate(0 32.221)">
        <path id="Trazado_24293" data-name="Trazado 24293" d="M285.689,171.515h-5.253a4.077,4.077,0,0,0-1.611.177,2.546,2.546,0,0,0-1.257,1.112,2.6,2.6,0,0,0-.29.838,5.986,5.986,0,0,0,0,.935v.967a4.221,4.221,0,0,1,0,1,2.675,2.675,0,0,1-1.176,1.611,2.562,2.562,0,0,1-1.031.371H254.847a2.417,2.417,0,0,1-.757,0,2.643,2.643,0,0,1-1.95-2.24,6.578,6.578,0,0,1,0-.79v-.79a3.819,3.819,0,0,0-.161-1.611,2.433,2.433,0,0,0-2.449-1.611h-12.1a7.96,7.96,0,0,0-6.445,2.868,8.058,8.058,0,0,0-1.611,3.352c-.081.322-.113.628-.161.951V309.045a8.976,8.976,0,0,0,.322,2.546,8.057,8.057,0,0,0,3.126,4.3,8.2,8.2,0,0,0,5.14,1.418h52.837a7.911,7.911,0,0,0,4.544-1.773,8.055,8.055,0,0,0,1.611-1.821,8.575,8.575,0,0,0,1.015-2.208,8.153,8.153,0,0,0,.29-2.417V179.813a8.362,8.362,0,0,0-.58-3.223,8.167,8.167,0,0,0-1.531-2.417,7.525,7.525,0,0,0-1.821-1.482,7.766,7.766,0,0,0-3.013-1.08,6.637,6.637,0,0,0-.822,0h-4.609Z" transform="translate(-228.869 -171.476)" fill="#fafafa"/>
        <path id="Trazado_24305" data-name="Trazado 24305" d="M290.233,171.61h.274a6.237,6.237,0,0,1,.822,0,7.7,7.7,0,0,1,3.046,1.047,8.058,8.058,0,0,1,1.837,1.5,8.2,8.2,0,0,1,1.611,2.417,8.54,8.54,0,0,1,.612,3.223V309.285a8.478,8.478,0,0,1-.306,2.465,8.058,8.058,0,0,1-1.031,2.288,8.843,8.843,0,0,1-1.692,1.869,8.2,8.2,0,0,1-4.673,1.821h-52.9a8.637,8.637,0,0,1-5.269-1.466,8.251,8.251,0,0,1-3.223-4.431,9.265,9.265,0,0,1-.338-2.739V178.813a4.08,4.08,0,0,1,.177-.967,8.379,8.379,0,0,1,1.692-3.432,8.524,8.524,0,0,1,3.013-2.24,8.4,8.4,0,0,1,3.593-.677h12.117a2.578,2.578,0,0,1,1.611.435,2.724,2.724,0,0,1,.983,1.305,4.157,4.157,0,0,1,.161,1.611v.79a6.206,6.206,0,0,0,0,.773,2.594,2.594,0,0,0,.6,1.354,2.465,2.465,0,0,0,1.241.773,3.672,3.672,0,0,0,.725,0h20.3a2.482,2.482,0,0,0,1-.355,2.642,2.642,0,0,0,1.128-1.611,3.982,3.982,0,0,0,0-.983v-.967a4.7,4.7,0,0,1,0-.951,2.255,2.255,0,0,1,.306-.854,2.546,2.546,0,0,1,1.289-1.144,3.98,3.98,0,0,1,1.611-.177h0a4.124,4.124,0,0,0-1.611.177,2.514,2.514,0,0,0-1.241,1.112,2.594,2.594,0,0,0-.29.838,4.491,4.491,0,0,0,0,.935v.967a4.227,4.227,0,0,1,0,1,2.594,2.594,0,0,1-1.16,1.692,2.562,2.562,0,0,1-1.031.371h-20.19a2.451,2.451,0,0,1-.757,0,2.642,2.642,0,0,1-1.305-.806,2.917,2.917,0,0,1-.645-1.434,6.454,6.454,0,0,1,0-.79v-.79a4.478,4.478,0,0,0-.161-1.611,2.53,2.53,0,0,0-.935-1.225,2.385,2.385,0,0,0-1.515-.419H237.59a8.33,8.33,0,0,0-3.529.661,8.556,8.556,0,0,0-2.949,2.208,8.2,8.2,0,0,0-1.611,3.352c-.081.322-.1.628-.161.951V308.946a8.83,8.83,0,0,0,.322,2.675,8.057,8.057,0,0,0,3.126,4.3,8.2,8.2,0,0,0,5.14,1.418h52.82a7.961,7.961,0,0,0,4.56-1.773,8.456,8.456,0,0,0,1.611-1.821,8.054,8.054,0,0,0,1-2.208,8.736,8.736,0,0,0,.306-2.417v-129.3a8.186,8.186,0,0,0-2.111-5.672,7.9,7.9,0,0,0-1.837-1.482,7.67,7.67,0,0,0-3.013-1.08,6.221,6.221,0,0,0-.822,0Z" transform="translate(-228.998 -171.474)" fill="#263238"/>
        <path id="Trazado_24306" data-name="Trazado 24306" d="M270.268,179.7s-1.337.081-2.981.1-3,0-3,0,1.337,0,3-.081A23.59,23.59,0,0,1,270.268,179.7Z" transform="translate(-207.422 -166.467)" fill="#263238"/>
        <path id="Trazado_24307" data-name="Trazado 24307" d="M270.268,180.642s-1.337.081-2.981.1-3,0-3,0h3C268.947,180.739,270.268,180.61,270.268,180.642Z" transform="translate(-207.422 -165.875)" fill="#263238"/>
        <path id="Trazado_24308" data-name="Trazado 24308" d="M270.268,181.63H264.29s1.337,0,2.981-.081A15.931,15.931,0,0,1,270.268,181.63Z" transform="translate(-207.422 -165.333)" fill="#263238"/>
        <path id="Trazado_24309" data-name="Trazado 24309" d="M234.22,184.572h1.74v-1.45a.483.483,0,0,1,.435-.387h.6a.484.484,0,0,1,.419.5v1.354h1.611v-2.514a.516.516,0,0,0-.226-.387l-.693-.693-.677-.661-.338-.338c-.113-.1-.193-.21-.338-.242a.467.467,0,0,0-.354,0,2.729,2.729,0,0,0-.306.306l-.58.58c-.354.371-.741.725-1.015,1.047a1.08,1.08,0,0,0-.081.6v-.306a.661.661,0,0,1,0-.338c.306-.371.661-.693,1.015-1.08l.58-.58.306-.306a.532.532,0,0,1,.467-.1.774.774,0,0,1,.387.274l.338.322.677.677.709.693a.708.708,0,0,1,.177.193.548.548,0,0,1,0,.274v2.514h-1.724v-1.4a.387.387,0,0,0-.338-.387h-.58a.371.371,0,0,0-.338.306v1.482h-1.611A1.453,1.453,0,0,1,234.22,184.572Z" transform="translate(-225.805 -166.534)" fill="#263238"/>
        <circle id="Elipse_794" data-name="Elipse 794" cx="13.519" cy="13.519" r="13.519" transform="matrix(0.16, -0.987, 0.987, 0.16, 20.108, 59.373)" fill="#38485c"/>
        <path id="Trazado_24310" data-name="Trazado 24310" d="M257.515,206.975H248.25v-1.144a4.641,4.641,0,0,1,4.641-4.641h0a4.625,4.625,0,0,1,4.625,4.641Z" transform="translate(-217.228 -153.31)" fill="#fff"/>
        <circle id="Elipse_795" data-name="Elipse 795" cx="2.723" cy="2.723" r="2.723" transform="translate(32.907 42.772)" fill="#fff"/>
        <rect id="Rectángulo_9068" data-name="Rectángulo 9068" width="45.569" height="9.314" transform="translate(11.524 77.223)" fill="#ebebeb"/>
        <rect id="Rectángulo_9069" data-name="Rectángulo 9069" width="45.569" height="9.314" transform="translate(11.524 90.726)" fill="#ebebeb"/>
        <path id="Trazado_24311" data-name="Trazado 24311" d="M268.088,248.528H245.207a4.657,4.657,0,0,1-4.657-4.657h0a4.657,4.657,0,0,1,4.657-4.641h22.881a4.641,4.641,0,0,1,4.641,4.641h0a4.641,4.641,0,0,1-4.641,4.657Z" transform="translate(-221.935 -130.054)" fill="#ffdb2e"/>
        <path id="Trazado_24312" data-name="Trazado 24312" d="M270.252,216.088a119.579,119.579,0,0,1-14.293.419,119.965,119.965,0,0,1-14.309-.419,124.193,124.193,0,0,1,14.309-.419A123.782,123.782,0,0,1,270.252,216.088Z" transform="translate(-221.263 -144.489)" fill="#263238"/>
        <path id="Trazado_24313" data-name="Trazado 24313" d="M240.959,224.192h-2.014a.354.354,0,0,1-.355-.354h0a1.337,1.337,0,0,1,1.337-1.337h0a1.337,1.337,0,0,1,1.337,1.337h0a.355.355,0,0,1-.306.354Z" transform="translate(-223.134 -140.282)" fill="#e0e0e0"/>
        <circle id="Elipse_796" data-name="Elipse 796" cx="0.806" cy="0.806" r="0.806" transform="translate(16.004 80.704)" fill="#e0e0e0"/>
        <rect id="Rectángulo_9070" data-name="Rectángulo 9070" width="2.401" height="1.692" transform="translate(15.617 95.528)" fill="#e0e0e0"/>
        <path id="Trazado_24314" data-name="Trazado 24314" d="M241.484,231.823h-.806v-.516a.693.693,0,1,0-1.37,0v.516H238.5v-.516a1.5,1.5,0,1,1,2.981,0Z" transform="translate(-223.192 -135.908)" fill="#e0e0e0"/>
      </g>
      <g id="Grupo_17863" data-name="Grupo 17863" transform="translate(36.452 0)">
        <path id="Trazado_24322" data-name="Trazado 24322" d="M255.455,170.158a1.918,1.918,0,1,1-1.918-1.917,1.918,1.918,0,0,1,1.918,1.917Z" transform="translate(-251.62 -141.234)" fill="#ffdb2e"/>
        <path id="Trazado_24323" data-name="Trazado 24323" d="M337.815,170.158a1.9,1.9,0,1,1-.557-1.361A1.917,1.917,0,0,1,337.815,170.158Z" transform="translate(-201.268 -141.234)" fill="#ffdb2e"/>
        <path id="Trazado_24324" data-name="Trazado 24324" d="M385.481,180.4a1.879,1.879,0,0,1,0-.483v-1.386c0-1.273,0-3.045-.081-5.318s0-5.14,0-8.411v-5.237a8.057,8.057,0,0,0-8.057-7.4H354.816l-35.676.145H261.132a8.057,8.057,0,0,0-5.624,2.353,8.186,8.186,0,0,0-2.433,4.9v13.648c0,2.32,0,4.045-.081,5.318v1.386a1.613,1.613,0,0,1,0,.483,1.868,1.868,0,0,1,0-.483v-1.386c0-1.273,0-3.045-.081-5.318s0-5.14,0-8.411v-5.269a8.685,8.685,0,0,1,8.508-8.057H377.569a8.653,8.653,0,0,1,8.492,8.057v5.285c0,3.223,0,6.091-.081,8.411s0,4.045,0,5.318v1.386A1.868,1.868,0,0,1,385.481,180.4Z" transform="translate(-250.851 -151.48)" fill="#ffdb2e"/>
      </g>
      <g id="Grupo_17865" data-name="Grupo 17865" transform="translate(133.596 32.224)">
        <path id="Trazado_24394" data-name="Trazado 24394" d="M368.638,171.633h-5.253a3.755,3.755,0,0,0-1.611.161,2.514,2.514,0,0,0-1.611,1.966,5.75,5.75,0,0,0,0,.918v.967a7.161,7.161,0,0,1,0,1.015,2.723,2.723,0,0,1-1.176,1.692,2.32,2.32,0,0,1-1.031.355H337.732a3.223,3.223,0,0,1-.773-.081,2.529,2.529,0,0,1-1.305-.806,2.755,2.755,0,0,1-.628-1.434,4.319,4.319,0,0,1,0-.79v-.79a4.19,4.19,0,0,0-.161-1.611,2.594,2.594,0,0,0-.934-1.225,2.385,2.385,0,0,0-1.515-.419H320.329a8.057,8.057,0,0,0-6.445,2.868,8.185,8.185,0,0,0-1.611,3.368,4.73,4.73,0,0,1-.161.935,3.358,3.358,0,0,0,0,.806V309.243a8.427,8.427,0,0,0,.322,2.546,8.056,8.056,0,0,0,3.126,4.318,8.411,8.411,0,0,0,5.14,1.418h52.724a7.944,7.944,0,0,0,4.592-1.837,8.81,8.81,0,0,0,1.611-1.821,8.25,8.25,0,0,0,1.305-4.641V179.979a8.057,8.057,0,0,0-2.111-5.656,7.671,7.671,0,0,0-1.837-1.5,7.268,7.268,0,0,0-3.013-1.064,4.58,4.58,0,0,0-.806-.081h-4.609Z" transform="translate(-311.799 -171.436)" fill="#fafafa"/>
        <path id="Trazado_24395" data-name="Trazado 24395" d="M373.128,171.61h.274a6.454,6.454,0,0,1,.822,0,7.574,7.574,0,0,1,3.029,1.047,7.737,7.737,0,0,1,1.853,1.5,8.057,8.057,0,0,1,2.143,5.7V309.285a9.073,9.073,0,0,1-.306,2.465,8.607,8.607,0,0,1-1.031,2.288,9.319,9.319,0,0,1-1.692,1.869,8.249,8.249,0,0,1-4.673,1.821h-52.8a8.669,8.669,0,0,1-5.269-1.466,8.315,8.315,0,0,1-3.223-4.431,8.746,8.746,0,0,1-.338-2.739V178.813a1.88,1.88,0,0,1,.177-.967,8.138,8.138,0,0,1,8.3-6.349h12.117a2.578,2.578,0,0,1,1.611.435,2.723,2.723,0,0,1,.983,1.305,4.156,4.156,0,0,1,.161,1.611v.79a6.171,6.171,0,0,0,0,.773,2.6,2.6,0,0,0,.6,1.354,2.467,2.467,0,0,0,1.241.773,3.677,3.677,0,0,0,.725,0h20.158a2.337,2.337,0,0,0,.983-.355,2.611,2.611,0,0,0,1.144-1.611,4.966,4.966,0,0,0,0-.983v-.967a6.258,6.258,0,0,1,0-.951,3,3,0,0,1,.306-.854,2.578,2.578,0,0,1,1.305-1.144,3.931,3.931,0,0,1,1.611-.177h0a4.076,4.076,0,0,0-1.611.177,2.513,2.513,0,0,0-1.241,1.112,3.078,3.078,0,0,0-.306.838,5.986,5.986,0,0,0,0,.935v.967a4.227,4.227,0,0,1,0,1A2.626,2.626,0,0,1,359,178.217a2.562,2.562,0,0,1-1.031.371H337.952a2.416,2.416,0,0,1-.757,0,2.643,2.643,0,0,1-1.95-2.24v-1.579a4.124,4.124,0,0,0-.145-1.611,2.481,2.481,0,0,0-.951-1.225,2.353,2.353,0,0,0-1.5-.419H320.533a7.863,7.863,0,0,0-8.057,6.22c-.081.322-.113.628-.161.951V309.027a8.83,8.83,0,0,0,.338,2.675,8.056,8.056,0,0,0,3.11,4.3,8.218,8.218,0,0,0,5.14,1.418h52.627a7.912,7.912,0,0,0,4.592-1.692,7.7,7.7,0,0,0,1.611-1.821,7.624,7.624,0,0,0,1.015-2.208,8.733,8.733,0,0,0,.306-2.417v-129.3a8.364,8.364,0,0,0-.58-3.223,7.862,7.862,0,0,0-1.531-2.417,7.525,7.525,0,0,0-1.821-1.482,7.768,7.768,0,0,0-3.013-1.08,6.445,6.445,0,0,0-.822,0Z" transform="translate(-311.907 -171.478)" fill="#263238"/>
        <path id="Trazado_24396" data-name="Trazado 24396" d="M353.138,179.7s-1.337.081-2.981.1-3,0-3,0,1.337,0,3-.081A23.59,23.59,0,0,1,353.138,179.7Z" transform="translate(-290.354 -166.471)" fill="#263238"/>
        <path id="Trazado_24397" data-name="Trazado 24397" d="M353.148,180.642s-1.337.081-3,.1-2.981,0-2.981,0h2.981C351.795,180.739,353.148,180.61,353.148,180.642Z" transform="translate(-290.348 -165.879)" fill="#263238"/>
        <path id="Trazado_24398" data-name="Trazado 24398" d="M353.158,181.63H347.18s1.337,0,2.981-.081A15.932,15.932,0,0,1,353.158,181.63Z" transform="translate(-290.342 -165.337)" fill="#263238"/>
        <path id="Trazado_24399" data-name="Trazado 24399" d="M317.13,184.6h1.756v-1.45a.483.483,0,0,1,.419-.387h.612a.5.5,0,0,1,.419.5q0,.653,0,1.354h1.611V182.1a.516.516,0,0,0-.226-.387l-.709-.693-.87-.725-.322-.338a.934.934,0,0,0-.338-.242.5.5,0,0,0-.371,0c-.1.081-.193.209-.29.306l-.58.58c-.371.371-.741.725-1.015,1.047a1.079,1.079,0,0,0-.081.6v-.306a.677.677,0,0,1,.1-.338c.29-.371.661-.693,1.015-1.08l.58-.58a2.727,2.727,0,0,1,.306-.306.532.532,0,0,1,.467-.1.774.774,0,0,1,.387.274l.338.322q.306.338.677.677l.709.693a1.1,1.1,0,0,1,.177.193.549.549,0,0,1,0,.274v2.514h-1.756v-1.4a.371.371,0,0,0-.322-.387h-.58a.4.4,0,0,0-.354.306v1.482h-1.611S317.13,184.613,317.13,184.6Z" transform="translate(-308.713 -166.563)" fill="#263238"/>
        <path id="Trazado_24400" data-name="Trazado 24400" d="M341.426,189.918a5.4,5.4,0,1,1-5.4-5.4,5.4,5.4,0,0,1,5.4,5.4Z" transform="translate(-300.46 -163.505)" fill="#ffdb2e"/>
        <path id="Trazado_24401" data-name="Trazado 24401" d="M336.536,190.094H332.83v-.451a1.853,1.853,0,0,1,1.853-1.853h0a1.837,1.837,0,0,1,1.853,1.853Z" transform="translate(-299.115 -161.506)" fill="#fff"/>
        <path id="Trazado_24402" data-name="Trazado 24402" d="M335.491,187.6a1.1,1.1,0,1,1-1.1-1.08,1.08,1.08,0,0,1,1.1,1.08Z" transform="translate(-298.827 -162.282)" fill="#fff"/>
        <path id="Trazado_24403" data-name="Trazado 24403" d="M353.172,196.9a123.787,123.787,0,0,1-14.293.419,123.968,123.968,0,0,1-14.309-.419,123.958,123.958,0,0,1,14.309-.419A123.78,123.78,0,0,1,353.172,196.9Z" transform="translate(-304.165 -156.224)" fill="#263238"/>
        <rect id="Rectángulo_9082" data-name="Rectángulo 9082" width="18.563" height="24.686" transform="matrix(0.006, -1, 1, 0.006, 5.45, 73.457)" fill="#ffdb2e"/>
        <path id="Trazado_24404" data-name="Trazado 24404" d="M315.28,221.419l8.685-11.489,5.3,7.235,3.642-3.835,7.058,8.218Z" transform="translate(-309.844 -147.97)" fill="#ffdb2e"/>
        <path id="Trazado_24405" data-name="Trazado 24405" d="M326.879,209.826a1.95,1.95,0,1,1-1.934-1.966,1.95,1.95,0,0,1,1.934,1.966Z" transform="translate(-305.137 -149.236)" fill="#ffdb2e"/>
        <g id="Grupo_17842" data-name="Grupo 17842" transform="translate(5.436 61.96)" opacity="0.2">
          <path id="Trazado_24406" data-name="Trazado 24406" d="M315.28,221.419l8.685-11.489,5.3,7.235,3.642-3.835,7.058,8.218Z" transform="translate(-315.28 -209.93)"/>
        </g>
        <g id="Grupo_17843" data-name="Grupo 17843" transform="translate(17.843 58.624)" opacity="0.2">
          <path id="Trazado_24407" data-name="Trazado 24407" d="M326.879,209.826a1.95,1.95,0,1,1-1.934-1.966,1.95,1.95,0,0,1,1.934,1.966Z" transform="translate(-322.98 -207.86)"/>
        </g>
        <rect id="Rectángulo_9083" data-name="Rectángulo 9083" width="42.895" height="57.075" transform="matrix(0.006, -1, 1, 0.006, 5.214, 122.073)" fill="#ffdb2e"/>
        <path id="Trazado_24408" data-name="Trazado 24408" d="M315.14,257.305l20.078-26.555,12.262,16.758,8.427-8.879,16.307,19Z" transform="translate(-309.93 -135.242)" fill="#ffdb2e"/>
        <path id="Trazado_24409" data-name="Trazado 24409" d="M341.941,230.492a4.5,4.5,0,1,1-4.464-4.512A4.5,4.5,0,0,1,341.941,230.492Z" transform="translate(-299.042 -138.158)" fill="#ffdb2e"/>
        <g id="Grupo_17844" data-name="Grupo 17844" transform="translate(5.21 95.508)" opacity="0.2">
          <path id="Trazado_24410" data-name="Trazado 24410" d="M315.14,257.305l20.078-26.555,12.262,16.758,8.427-8.879,16.307,19Z" transform="translate(-315.14 -230.75)"/>
        </g>
        <g id="Grupo_17845" data-name="Grupo 17845" transform="translate(33.908 87.822)" opacity="0.2">
          <path id="Trazado_24411" data-name="Trazado 24411" d="M341.941,230.492a4.5,4.5,0,1,1-4.464-4.512A4.5,4.5,0,0,1,341.941,230.492Z" transform="translate(-332.95 -225.98)"/>
        </g>
        <rect id="Rectángulo_9084" data-name="Rectángulo 9084" width="18.563" height="24.686" transform="matrix(0.006, -1, 1, 0.006, 38.037, 73.458)" fill="#ffdb2e"/>
        <path id="Trazado_24412" data-name="Trazado 24412" d="M335.51,221.419,344.2,209.93l5.3,7.235,3.642-3.835,7.058,8.218Z" transform="translate(-297.476 -147.97)" fill="#ffdb2e"/>
        <path id="Trazado_24413" data-name="Trazado 24413" d="M347.109,209.826a1.95,1.95,0,1,1-1.934-1.966A1.95,1.95,0,0,1,347.109,209.826Z" transform="translate(-292.769 -149.236)" fill="#ffdb2e"/>
        <g id="Grupo_17846" data-name="Grupo 17846" transform="translate(38.034 61.96)" opacity="0.2">
          <path id="Trazado_24414" data-name="Trazado 24414" d="M335.51,221.419,344.2,209.93l5.3,7.235,3.642-3.835,7.058,8.218Z" transform="translate(-335.51 -209.93)"/>
        </g>
        <g id="Grupo_17847" data-name="Grupo 17847" transform="translate(50.441 58.624)" opacity="0.2">
          <path id="Trazado_24415" data-name="Trazado 24415" d="M347.109,209.826a1.95,1.95,0,1,1-1.934-1.966A1.95,1.95,0,0,1,347.109,209.826Z" transform="translate(-343.21 -207.86)"/>
        </g>
      </g>
    </g>
    <g id="Grupo_17873" data-name="Grupo 17873" transform="translate(875.216 1779.968)">
      <path id="Trazado_23969" data-name="Trazado 23969" d="M387.708,81.108a9.994,9.994,0,0,0-13.744-9.21A12.1,12.1,0,0,0,351.3,74.57a10.4,10.4,0,0,0,.678,20.787h33.105a7.364,7.364,0,0,0,2.63-14.27Z" transform="translate(-341.556 -65.126)" fill="#e6ebf0"/>
      <path id="Trazado_23970" data-name="Trazado 23970" d="M379.036,93.61,370.52,85.1l-8.51,8.51h4.539v20.976H374.5V93.61Z" transform="translate(-351.251 -74.594)" fill="#d1d8e0"/>
      <path id="Trazado_23971" data-name="Trazado 23971" d="M383.18,129.436l8.51,8.516,8.516-8.516h-4.539V108.46h-7.948v20.976Z" transform="translate(-361.287 -85.667)" fill="#d1d8e0"/>
    </g>
    <g id="Grupo_17876" data-name="Grupo 17876" transform="translate(990.892 1908.61)">
      <g id="Grupo_17874" data-name="Grupo 17874" transform="translate(7.561)">
        <path id="Trazado_23972" data-name="Trazado 23972" d="M241.208,116.17v30.5H214.19v-37.7h19.815Z" transform="translate(-214.19 -108.97)" fill="#ffdb2e"/>
        <path id="Trazado_23973" data-name="Trazado 23973" d="M241.208,116.17v30.5H214.19v-37.7h19.815Z" transform="translate(-214.19 -108.97)" fill="#fff" opacity="0.8"/>
        <path id="Trazado_23974" data-name="Trazado 23974" d="M292.263,116.17h-7.2v-7.2Z" transform="translate(-265.245 -108.97)" fill="#ffdb2e"/>
      </g>
      <g id="freepik--device-3--inject-397" transform="translate(0 5.461)">
        <rect id="Rectángulo_377" data-name="Rectángulo 377" width="20.966" height="30.085" rx="3.71" transform="translate(0 30.442) rotate(-90)" fill="#455a64"/>
        <rect id="Rectángulo_378" data-name="Rectángulo 378" width="19.643" height="25.126" transform="translate(2.058 29.781) rotate(-90)" fill="#fff"/>
        <ellipse id="Elipse_23" data-name="Elipse 23" cx="0.803" cy="0.803" rx="0.803" ry="0.803" transform="translate(27.521 20.388) rotate(-67.67)" fill="#263238"/>
        <path id="Trazado_3453" data-name="Trazado 3453" d="M328.374,136.6v5.981a.168.168,0,0,1-.168.165h0a.165.165,0,0,1-.165-.165V136.6a.165.165,0,0,1,.165-.168h0A.168.168,0,0,1,328.374,136.6Z" transform="translate(-327.172 -119.624)" fill="#263238"/>
        <rect id="Rectángulo_379" data-name="Rectángulo 379" width="15.404" height="21.081" transform="translate(12.172 0)" fill="#e0e0e0"/>
        <rect id="Rectángulo_380" data-name="Rectángulo 380" width="15.404" height="21.081" transform="translate(8.266 2.654)" fill="#ffdb2e"/>
        <rect id="Rectángulo_381" data-name="Rectángulo 381" width="15.404" height="21.081" transform="translate(5.627 5.892)" fill="#fff"/>
        <path id="Trazado_3454" data-name="Trazado 3454" d="M359.39,120.274v-1.553c0-1.007,0-2.474-.021-4.328,0-3.711-.027-8.971-.047-15.2l.071.071-15.4.018h0l.077-.077v21.081l-.062-.065,11.186.027h3.147l-3.1.018-11.218.041h-.089v-.062c0-5.9-.021-13.208-.029-21.081V99.09h15.552v.071c0,6.244-.018,11.513-.024,15.242,0,1.848,0,3.309-.018,4.313v1.435A.587.587,0,0,1,359.39,120.274Z" transform="translate(-338.35 -93.307)" fill="#263238"/>
        <path id="Trazado_3455" data-name="Trazado 3455" d="M358.187,113.634c0,.041-1.677.077-3.743.08s-3.743-.032-3.743-.074,1.677-.08,3.743-.08S358.187,113.59,358.187,113.634Z" transform="translate(-343.143 -103.505)" fill="#263238"/>
        <path id="Trazado_3456" data-name="Trazado 3456" d="M362.244,119.831c0,.044-2.583.08-5.768.083s-5.765-.032-5.765-.074,2.58-.08,5.765-.08S362.244,119.79,362.244,119.831Z" transform="translate(-343.15 -107.875)" fill="#263238"/>
        <path id="Trazado_3457" data-name="Trazado 3457" d="M362.244,126.3c0,.041-2.58.077-5.766.08s-5.768-.03-5.768-.074,2.583-.077,5.768-.08S362.244,126.259,362.244,126.3Z" transform="translate(-343.15 -112.434)" fill="#263238"/>
        <path id="Trazado_3458" data-name="Trazado 3458" d="M362.254,132.823c0,.041-2.583.08-5.768.08s-5.766-.03-5.766-.071,2.58-.08,5.766-.083S362.254,132.767,362.254,132.823Z" transform="translate(-343.157 -117.029)" fill="#263238"/>
        <path id="Trazado_3459" data-name="Trazado 3459" d="M362.254,139.251c0,.044-2.58.08-5.766.083s-5.768-.032-5.768-.074,2.583-.08,5.768-.08S362.254,139.21,362.254,139.251Z" transform="translate(-343.157 -121.562)" fill="#263238"/>
        <path id="Trazado_3460" data-name="Trazado 3460" d="M362.264,145.723c0,.041-2.583.077-5.768.08s-5.766-.03-5.766-.074,2.58-.077,5.766-.08S362.264,145.679,362.264,145.723Z" transform="translate(-343.164 -126.121)" fill="#263238"/>
        <path id="Trazado_3461" data-name="Trazado 3461" d="M362.264,152.193c0,.041-2.58.08-5.765.08s-5.768-.03-5.768-.071,2.583-.08,5.768-.083S362.264,152.152,362.264,152.193Z" transform="translate(-343.164 -130.681)" fill="#263238"/>
        <path id="Trazado_3462" data-name="Trazado 3462" d="M356.932,158.652c0,.041-1.388.077-3.1.077s-3.1-.032-3.1-.074,1.39-.077,3.1-.08A30.73,30.73,0,0,1,356.932,158.652Z" transform="translate(-343.164 -135.225)" fill="#263238"/>
      </g>
    </g>
    <g id="Grupo_17879" data-name="Grupo 17879" transform="translate(1124.905 1929.021)">
      <g id="Grupo_17877" data-name="Grupo 17877" transform="translate(0 13.463)">
        <path id="Trazado_23706" data-name="Trazado 23706" d="M416.89,109.45s.148,17.494,1.039,22.831l21.974-1.039s-1.93-17.2-1.187-21.792Z" transform="translate(-416.89 -109.45)" fill="#ffdb2e"/>
        <path id="Trazado_23708" data-name="Trazado 23708" d="M437.191,120.325c0,.094-3.286.371-7.354.621a73.032,73.032,0,0,1-7.367.263c-.007-.1,3.286-.371,7.347-.614S437.185,120.23,437.191,120.325Z" transform="translate(-418.705 -112.977)" fill="#fff"/>
        <path id="Trazado_23709" data-name="Trazado 23709" d="M437.2,125.815c0,.1-3.286.378-7.354.621s-7.368.364-7.368.263,3.279-.371,7.347-.614S437.195,125.72,437.2,125.815Z" transform="translate(-418.709 -114.763)" fill="#fff"/>
        <path id="Trazado_23710" data-name="Trazado 23710" d="M434.726,131.2a24.757,24.757,0,0,1-4.183.432,25.079,25.079,0,0,1-4.2.074,25.21,25.21,0,0,1,4.183-.425,25.56,25.56,0,0,1,4.2-.081Z" transform="translate(-419.964 -116.508)" fill="#fff"/>
        <path id="Trazado_23724" data-name="Trazado 23724" d="M453.18,110s.148,17.494,1.039,22.831l21.94-1.032s-1.929-17.2-1.187-21.8Z" transform="translate(-428.696 -109.629)" fill="#ffdb2e"/>
        <path id="Trazado_23727" data-name="Trazado 23727" d="M473.478,120.875c0,.1-3.286.378-7.354.621s-7.367.364-7.374.27,3.286-.378,7.354-.621S473.471,120.78,473.478,120.875Z" transform="translate(-430.508 -113.156)" fill="#fff"/>
        <path id="Trazado_23728" data-name="Trazado 23728" d="M473.488,126.372c0,.094-3.286.371-7.354.614s-7.368.364-7.374.27,3.286-.371,7.354-.621A73.152,73.152,0,0,1,473.488,126.372Z" transform="translate(-430.511 -114.943)" fill="#fff"/>
        <path id="Trazado_23734" data-name="Trazado 23734" d="M471.013,131.755a25.214,25.214,0,0,1-4.183.425,25.634,25.634,0,0,1-4.21.081,24.9,24.9,0,0,1,4.19-.432,25.973,25.973,0,0,1,4.2-.074Z" transform="translate(-431.767 -116.689)" fill="#fff"/>
        <path id="Trazado_23746" data-name="Trazado 23746" d="M493.26,111.17s.148,17.488,1.032,22.831l21.947-1.039s-1.93-17.2-1.187-21.792Z" transform="translate(-441.735 -110.01)" fill="#ffdb2e"/>
        <path id="Trazado_23749" data-name="Trazado 23749" d="M513.558,122.042c0,.094-3.286.371-7.354.614s-7.368.364-7.374.27,3.286-.371,7.354-.621A73.154,73.154,0,0,1,513.558,122.042Z" transform="translate(-443.547 -113.535)" fill="#fff"/>
        <path id="Trazado_23750" data-name="Trazado 23750" d="M513.568,127.535c0,.094-3.286.371-7.354.614s-7.367.371-7.374.27,3.286-.371,7.354-.614S513.561,127.44,513.568,127.535Z" transform="translate(-443.55 -115.323)" fill="#fff"/>
        <path id="Trazado_23752" data-name="Trazado 23752" d="M511.093,132.934a25.21,25.21,0,0,1-4.183.425,25.635,25.635,0,0,1-4.21.081A51.425,51.425,0,0,1,511.093,132.934Z" transform="translate(-444.806 -117.086)" fill="#fff"/>
        <path id="Trazado_23711" data-name="Trazado 23711" d="M425.68,130.62s.148,17.494,1.032,22.831l21.947-1.039s-1.93-17.2-1.187-21.792Z" transform="translate(-419.75 -116.337)" fill="#455a64"/>
        <path id="Trazado_23712" data-name="Trazado 23712" d="M445.978,141.495c0,.094-3.286.378-7.354.621s-7.367.364-7.374.263,3.286-.371,7.354-.614S445.971,141.4,445.978,141.495Z" transform="translate(-421.562 -119.864)" fill="#fff"/>
        <path id="Trazado_23713" data-name="Trazado 23713" d="M445.988,146.985c0,.1-3.286.378-7.354.621s-7.367.364-7.374.27,3.286-.378,7.354-.621S445.981,146.89,445.988,146.985Z" transform="translate(-421.565 -121.651)" fill="#fff"/>
        <path id="Trazado_23714" data-name="Trazado 23714" d="M443.513,152.372a26.1,26.1,0,0,1-4.183.425,24.292,24.292,0,0,1-4.21.074,26.254,26.254,0,0,1,4.19-.425,24.243,24.243,0,0,1,4.2-.074Z" transform="translate(-422.821 -123.395)" fill="#fff"/>
      </g>
      <g id="Grupo_17878" data-name="Grupo 17878" transform="translate(43.274)">
        <path id="Trazado_24518" data-name="Trazado 24518" d="M421.59,188.17s.158,19.522,1.152,25.477l24.49-1.159s-2.153-19.19-1.325-24.317Z" transform="translate(-414.412 -175.458)" fill="#ffdb2e"/>
        <path id="Trazado_24521" data-name="Trazado 24521" d="M443.6,199.047c0,.105-3.666.414-8.206.685s-8.221.407-8.229.3,3.666-.414,8.206-.693A81.666,81.666,0,0,1,443.6,199.047Z" transform="translate(-415.791 -178.136)" fill="#fff"/>
        <path id="Trazado_24523" data-name="Trazado 24523" d="M443.607,204.538c0,.105-3.666.414-8.2.693a81.581,81.581,0,0,1-8.229.294c-.008-.113,3.666-.414,8.206-.685S443.607,204.433,443.607,204.538Z" transform="translate(-415.794 -179.495)" fill="#fff"/>
        <path id="Trazado_24524" data-name="Trazado 24524" d="M440.4,209.921a27.618,27.618,0,0,1-4.668.482,29.067,29.067,0,0,1-4.7.083,28.131,28.131,0,0,1,4.668-.474A28.608,28.608,0,0,1,440.4,209.921Z" transform="translate(-416.745 -180.82)" fill="#fff"/>
        <path id="Trazado_24519" data-name="Trazado 24519" d="M440.735,182.087l.294.105.873.361a16.793,16.793,0,0,1,3.064,1.89,17.517,17.517,0,0,1,3.885,4.163,19.221,19.221,0,0,1,1.716,3.132,19.665,19.665,0,0,1,1.152,3.832,17.865,17.865,0,0,1-.8,9.079,19.74,19.74,0,0,1-5.978,8.59,19.122,19.122,0,0,1-10.683,4.291,20.876,20.876,0,0,1-12.091-2.59,20.477,20.477,0,0,1-8.364-9.1,17.9,17.9,0,0,1-1.363-11.421,18.137,18.137,0,0,1,5.044-9.132,15.546,15.546,0,0,1,3.9-2.755,16.561,16.561,0,0,1,4.156-1.506,25.935,25.935,0,0,1,7.529-.474,47.431,47.431,0,0,1,5.646.753c1.506.286,2.718.565,3.523.753l.9.218a1.927,1.927,0,0,1,.309.09l-.316-.045-.918-.188c-.806-.166-1.988-.414-3.523-.678a47.58,47.58,0,0,0-5.639-.693,25.776,25.776,0,0,0-7.453.52,16.847,16.847,0,0,0-4.08,1.468,15.56,15.56,0,0,0-3.809,2.725,17.76,17.76,0,0,0-4.946,9,17.565,17.565,0,0,0,1.355,11.18,20.184,20.184,0,0,0,8.214,8.929,20.591,20.591,0,0,0,11.865,2.545,18.761,18.761,0,0,0,10.487-4.186,19.529,19.529,0,0,0,5.9-8.4,17.571,17.571,0,0,0,.821-8.914,18.817,18.817,0,0,0-1.1-3.764,19.8,19.8,0,0,0-1.671-3.109,17.8,17.8,0,0,0-3.764-4.163,18.174,18.174,0,0,0-3.011-1.942l-.851-.392a1.542,1.542,0,0,1-.279-.166Z" transform="translate(-412.056 -173.553)" fill="#263238"/>
        <path id="Trazado_24522" data-name="Trazado 24522" d="M460.66,182.168c-.068-.09,2.944-2.6,6.723-5.609a84.981,84.981,0,0,1,6.971-5.27c.068.105-2.944,2.59-6.723,5.6S460.727,182.25,460.66,182.168Z" transform="translate(-424.068 -171.285)" fill="#263238"/>
        <path id="Trazado_24520" data-name="Trazado 24520" d="M472.283,182.784a4.76,4.76,0,0,1-.964.136l-2.65.226c-2.259.181-5.345.4-8.793.617h-.286l.083-.271a1.205,1.205,0,0,1,.105-.331,34.164,34.164,0,0,1,3.764-8.229c.625-.979,1.174-1.739,1.574-2.259a4.615,4.615,0,0,1,.663-.753,5.766,5.766,0,0,1-.535.851c-.361.535-.873,1.31-1.468,2.3a38.491,38.491,0,0,0-3.651,8.206l-.1.324-.2-.256c3.448-.218,6.55-.391,8.8-.5l2.658-.105A4.419,4.419,0,0,1,472.283,182.784Z" transform="translate(-423.804 -171.442)" fill="#263238"/>
      </g>
    </g>
    <g id="Grupo_17821" data-name="Grupo 17821" transform="translate(900.7 1947.036)">
      <path id="Trazado_17611" data-name="Trazado 17611" d="M301.18,363.967l3.582-1.779,3.493,1.946-.579-3.953,2.926-2.723-3.941-.675-1.684-3.624L303.12,356.7l-3.97.484,2.8,2.86Z" transform="translate(-255.302 -353.16)" fill="#d1d8e0"/>
      <path id="Trazado_23704" data-name="Trazado 23704" d="M301.18,363.967l3.582-1.779,3.493,1.946-.579-3.953,2.926-2.723-3.941-.675-1.684-3.624L303.12,356.7l-3.97.484,2.8,2.86Z" transform="translate(-240.973 -353.16)" fill="#d1d8e0"/>
      <path id="Trazado_17606" data-name="Trazado 17606" d="M276.7,363.967l3.582-1.779,3.493,1.946-.579-3.953,2.926-2.723-3.941-.675L280.5,353.16l-1.857,3.541-3.97.484,2.8,2.86Z" transform="translate(-245.438 -353.16)" fill="#38485c"/>
      <path id="Trazado_17604" data-name="Trazado 17604" d="M252.22,363.967l3.582-1.779,3.493,1.946-.579-3.953,2.926-2.723-3.941-.675-1.684-3.624L254.16,356.7l-3.97.484,2.8,2.86Z" transform="translate(-235.574 -353.16)" fill="#38485c"/>
      <path id="Trazado_17603" data-name="Trazado 17603" d="M227.74,363.967l3.582-1.779,3.493,1.946-.579-3.953,2.926-2.723-3.941-.675-1.684-3.624L229.68,356.7l-3.97.484,2.8,2.86Z" transform="translate(-225.71 -353.16)" fill="#38485c"/>
    </g>
    <g id="freepik--pen-tool--inject-74" transform="translate(567.854 1848.905)">
      <rect id="Rectángulo_8939" data-name="Rectángulo 8939" width="8.941" height="4.715" rx="1.77" transform="translate(3.334 33.035) rotate(45)" fill="#263238"/>
      <path id="Trazado_23987" data-name="Trazado 23987" d="M361.954,130.185l-10.9,10.9-1.837-1.841c1.591-1.591.676-5.3.676-5.3l3.023-3.023c4.891-.676,15.2-7.995,15.2-7.995l.338.338-6.475,6.445a.338.338,0,0,0-.027.483Z" transform="translate(-343.839 -105.606)" fill="#ffdb2e"/>
      <path id="Trazado_23988" data-name="Trazado 23988" d="M364.823,140.783l-3.023,3.04s-3.715-.925-5.3.676l-1.837-1.837,10.9-10.9a.338.338,0,0,0,.483-.037l6.458-6.458.338.338S365.509,135.9,364.823,140.783Z" transform="translate(-347.441 -107.163)" fill="#ffdb2e"/>
      <path id="Trazado_23989" data-name="Trazado 23989" d="M364.823,140.783l-3.023,3.04s-3.715-.925-5.3.676l-1.837-1.837,10.9-10.9a.338.338,0,0,0,.483-.037l6.458-6.458.338.338S365.509,135.9,364.823,140.783Z" transform="translate(-347.441 -107.163)" fill="#fff" opacity="0.2"/>
      <path id="Trazado_23990" data-name="Trazado 23990" d="M365.054,133.219l-.2-.2a16.655,16.655,0,1,0-23.553-23.553l-.2-.2a16.932,16.932,0,1,1,23.945,23.945Z" transform="translate(-338.468 -93.286)" fill="#ffdb2e"/>
      <rect id="Rectángulo_8940" data-name="Rectángulo 8940" width="0.277" height="42.562" transform="translate(11.356 1.136) rotate(-45)" fill="#ffdb2e"/>
      <rect id="Rectángulo_8941" data-name="Rectángulo 8941" width="1.756" height="1.756" transform="translate(26.502 14.844) rotate(45)" fill="#ffdb2e"/>
      <path id="Trazado_23991" data-name="Trazado 23991" d="M408.876,117.882l-1.466-1.466,1.466-1.466,1.469,1.466Zm-1.013-1.466,1.013,1.013,1.013-1.013-1.013-1.013Z" transform="translate(-382.374 -100.328)" fill="#ffdb2e"/>
      <rect id="Rectángulo_8942" data-name="Rectángulo 8942" width="1.756" height="1.756" transform="translate(2.752 14.845) rotate(45)" fill="#fff"/>
      <path id="Trazado_23992" data-name="Trazado 23992" d="M338.566,117.882l-1.466-1.466,1.466-1.466,1.466,1.466Zm-1.013-1.466,1.013,1.013,1.013-1.013-1.013-1.013Z" transform="translate(-335.812 -100.328)" fill="#ffdb2e"/>
      <rect id="Rectángulo_8943" data-name="Rectángulo 8943" width="1.756" height="1.756" transform="translate(26.556 38.644) rotate(45)" fill="#fff"/>
      <path id="Trazado_23993" data-name="Trazado 23993" d="M409.036,188.342l-1.466-1.466,1.466-1.466,1.466,1.466Zm-1.013-1.466,1.013,1.013,1.013-1.013-1.013-1.013Z" transform="translate(-382.48 -146.989)" fill="#ffdb2e"/>
      <path id="Trazado_23994" data-name="Trazado 23994" d="M455.362,162.89a.878.878,0,1,1,0-1.243A.878.878,0,0,1,455.362,162.89Z" transform="translate(-413.137 -131.083)" fill="#fff"/>
      <path id="Trazado_23995" data-name="Trazado 23995" d="M454.426,162.994a1.037,1.037,0,1,1,.733-.3,1.037,1.037,0,0,1-.733.3Zm0-1.756a.719.719,0,1,0,.51.209A.719.719,0,0,0,454.426,161.237Z" transform="translate(-412.823 -130.771)" fill="#ffdb2e"/>
      <path id="Trazado_23996" data-name="Trazado 23996" d="M366.058,73.633a.878.878,0,1,1,0-1.24.878.878,0,0,1,0,1.24Z" transform="translate(-353.996 -71.975)" fill="#fff"/>
      <path id="Trazado_23997" data-name="Trazado 23997" d="M365.167,73.734A1.037,1.037,0,1,1,366.2,72.7a1.013,1.013,0,0,1-.3.733h0A1.013,1.013,0,0,1,365.167,73.734Zm0-1.756a.709.709,0,0,0-.507.213.719.719,0,0,0,1.013,1.013h0a.719.719,0,0,0-.51-1.229Z" transform="translate(-353.713 -71.66)" fill="#ffdb2e"/>
    </g>
    <g id="Grupo_17889" data-name="Grupo 17889" transform="translate(610.765 1902.193)">
      <path id="Trazado_24545" data-name="Trazado 24545" d="M108.439,97.341a12.748,12.748,0,0,1,9.4,3.378,22.532,22.532,0,0,1,5.652,8.5c2.518,6.119,2.443,13.747,1.445,20.29-7.181-1.562-12.366-8.339-14.777-11.951-3.814-5.694-7.245-18.3-1.721-20.184" transform="translate(-102.634 -97.32)" fill="#e6ebf0"/>
      <path id="Trazado_24546" data-name="Trazado 24546" d="M134.15,134.782a10.91,10.91,0,0,1-1.9-10.761,14.447,14.447,0,0,1,7.734-8.052c1.615-.733,3.527-1.2,5.11-.414a4.632,4.632,0,0,1,2.337,4.1,9.412,9.412,0,0,1-1.4,4.7c-2.751,4.95-6.374,9.242-11.877,10.432" transform="translate(-101.011 -96.209)" fill="#e6ebf0"/>
      <path id="Trazado_24547" data-name="Trazado 24547" d="M135.669,150.8a21.978,21.978,0,0,1-1.424-4.143,20.3,20.3,0,0,1-.7-4.738,44.936,44.936,0,0,1,.053-5.832,21.767,21.767,0,0,1,3.346-10.039A16.519,16.519,0,0,1,139,123.563c.574-.51.9-.754.945-.722a27.354,27.354,0,0,0-2.56,3.484,23.371,23.371,0,0,0-3.06,9.827,52.792,52.792,0,0,0-.1,5.747,22.119,22.119,0,0,0,.521,4.632,30.192,30.192,0,0,1,.914,4.271Z" transform="translate(-100.893 -95.73)" fill="#38485c"/>
      <path id="Trazado_24548" data-name="Trazado 24548" d="M111.53,106.17a11.835,11.835,0,0,1,1.254,1.817c.776,1.2,1.859,2.953,3.187,5.131,2.645,4.356,6.236,10.4,10.028,17.188s7.064,13.014,9.327,17.582c1.137,2.273,2.029,4.132,2.624,5.428a11.59,11.59,0,0,1,.85,2.04,13.692,13.692,0,0,1-1.115-1.912l-2.826-5.312c-2.38-4.494-5.715-10.687-9.508-17.454l-9.837-17.252c-1.211-2.125-2.21-3.888-2.975-5.248a13.31,13.31,0,0,1-1.009-2.008Z" transform="translate(-102.261 -96.768)" fill="#38485c"/>
      <path id="Trazado_24549" data-name="Trazado 24549" d="M129.878,139.925a25.411,25.411,0,0,0-22.309-6.64c-2.018.393-4.249,1.37-4.7,3.389s1.349,3.793,3.091,4.887a21.746,21.746,0,0,0,24.136-1.115" transform="translate(-102.805 -95.106)" fill="#e6ebf0"/>
      <path id="Trazado_24550" data-name="Trazado 24550" d="M111.61,137.021a3.389,3.389,0,0,1,1.147-.191c.744-.085,1.827-.138,3.187-.159a28.683,28.683,0,0,1,10.336,1.625,17.646,17.646,0,0,1,5.014,2.943,17.433,17.433,0,0,1,3.187,3.538,16.889,16.889,0,0,1,1.53,2.783,3.719,3.719,0,0,1,.393,1.062c-.138.064-.8-1.466-2.348-3.591a18.993,18.993,0,0,0-3.187-3.314,18.527,18.527,0,0,0-4.844-2.773,32.253,32.253,0,0,0-10.082-1.8A38.8,38.8,0,0,1,111.61,137.021Z" transform="translate(-102.256 -94.868)" fill="#38485c"/>
    </g>
    <g id="Grupo_17882" data-name="Grupo 17882" transform="translate(1036.471 1940.309)">
      <path id="Trazado_5919" data-name="Trazado 5919" d="M397.09,392.49s-2.829,4.726,2.51,7.35A5.7,5.7,0,0,0,397.09,392.49Z" transform="translate(-394.33 -391.159)" fill="#d1d8e0"/>
      <path id="Trazado_5920" data-name="Trazado 5920" d="M426.039,395a5.035,5.035,0,0,0-3.3,7.032A5.7,5.7,0,0,0,426.039,395Z" transform="translate(-416.719 -393.325)" fill="#d1d8e0"/>
      <path id="Trazado_5921" data-name="Trazado 5921" d="M381.686,404.23s-.786,5.856,5.583,6.179A6.112,6.112,0,0,0,381.686,404.23Z" transform="translate(-381.655 -401.291)" fill="#9eaab8"/>
      <path id="Trazado_5922" data-name="Trazado 5922" d="M428.068,408.376s-5.856-.786-6.178,5.583A6.116,6.116,0,0,0,428.068,408.376Z" transform="translate(-416.38 -404.843)" fill="#9eaab8"/>
      <path id="Trazado_5923" data-name="Trazado 5923" d="M410.709,382.77s-5.022,4.07-.2,9.108A6.686,6.686,0,0,0,410.709,382.77Z" transform="translate(-404.752 -382.77)" fill="#505e70"/>
    </g>
    <g id="Grupo_17894" data-name="Grupo 17894" transform="translate(966.471 1901.309)">
      <path id="Trazado_5919-2" data-name="Trazado 5919" d="M397.09,392.49s-2.829,4.726,2.51,7.35A5.7,5.7,0,0,0,397.09,392.49Z" transform="translate(-394.33 -391.159)" fill="#d1d8e0"/>
      <path id="Trazado_5920-2" data-name="Trazado 5920" d="M426.039,395a5.035,5.035,0,0,0-3.3,7.032A5.7,5.7,0,0,0,426.039,395Z" transform="translate(-416.719 -393.325)" fill="#d1d8e0"/>
      <path id="Trazado_5921-2" data-name="Trazado 5921" d="M381.686,404.23s-.786,5.856,5.583,6.179A6.112,6.112,0,0,0,381.686,404.23Z" transform="translate(-381.655 -401.291)" fill="#9eaab8"/>
      <path id="Trazado_5922-2" data-name="Trazado 5922" d="M428.068,408.376s-5.856-.786-6.178,5.583A6.116,6.116,0,0,0,428.068,408.376Z" transform="translate(-416.38 -404.843)" fill="#9eaab8"/>
      <path id="Trazado_5923-2" data-name="Trazado 5923" d="M410.709,382.77s-5.022,4.07-.2,9.108A6.686,6.686,0,0,0,410.709,382.77Z" transform="translate(-404.752 -382.77)" fill="#505e70"/>
    </g>
    <g id="Grupo_17883" data-name="Grupo 17883" transform="translate(996.579 1863.683)">
      <path id="Trazado_5919-3" data-name="Trazado 5919" d="M397.318,392.49s-3.692,6.167,3.275,9.59C402.279,398.657,400.776,394.547,397.318,392.49Z" transform="translate(-393.717 -390.753)" fill="#d1d8e0"/>
      <path id="Trazado_5920-3" data-name="Trazado 5920" d="M427.184,395s-6.94,1.876-4.3,9.176C426.478,402.875,428.244,398.881,427.184,395Z" transform="translate(-415.023 -392.815)" fill="#d1d8e0"/>
      <path id="Trazado_5921-3" data-name="Trazado 5921" d="M381.7,404.23s-1.026,7.641,7.285,8.062C389.188,408.2,385.973,404.795,381.7,404.23Z" transform="translate(-381.655 -400.395)" fill="#9eaab8"/>
      <path id="Trazado_5922-3" data-name="Trazado 5922" d="M429.951,408.385s-7.641-1.026-8.061,7.285C425.978,415.878,429.382,412.663,429.951,408.385Z" transform="translate(-414.701 -403.775)" fill="#9eaab8"/>
      <path id="Trazado_5923-3" data-name="Trazado 5923" d="M411.407,382.77s-6.552,5.311-.257,11.884C414.389,391.552,414.388,386.431,411.407,382.77Z" transform="translate(-403.635 -382.77)" fill="#505e70"/>
    </g>
    <g id="Grupo_17887" data-name="Grupo 17887" transform="translate(567.717 1747.233)">
      <path id="Trazado_5919-4" data-name="Trazado 5919" d="M397.967,392.49s-6.144,10.263,5.451,15.962C406.223,402.753,403.722,395.913,397.967,392.49Z" transform="translate(-391.973 -389.599)" fill="#d1d8e0"/>
      <path id="Trazado_5920-4" data-name="Trazado 5920" d="M430.44,395s-11.551,3.123-7.161,15.272C429.265,408.107,432.2,401.46,430.44,395Z" transform="translate(-410.2 -391.363)" fill="#d1d8e0"/>
      <path id="Trazado_5921-4" data-name="Trazado 5921" d="M381.722,404.23s-1.707,12.717,12.125,13.419C394.192,410.832,388.842,405.17,381.722,404.23Z" transform="translate(-381.655 -397.848)" fill="#9eaab8"/>
      <path id="Trazado_5922-4" data-name="Trazado 5922" d="M435.306,408.412s-12.717-1.707-13.416,12.125C428.695,420.882,434.36,415.532,435.306,408.412Z" transform="translate(-409.924 -400.739)" fill="#9eaab8"/>
      <path id="Trazado_5923-4" data-name="Trazado 5923" d="M413.393,382.77s-10.906,8.839-.428,19.78C418.357,397.387,418.354,388.864,413.393,382.77Z" transform="translate(-400.458 -382.77)" fill="#505e70"/>
    </g>
    <g id="Grupo_17884" data-name="Grupo 17884" transform="translate(1134.415 1872.775)">
      <path id="Trazado_5919-5" data-name="Trazado 5919" d="M396.872,392.49a3.57,3.57,0,0,0,1.78,5.212A4.044,4.044,0,0,0,396.872,392.49Z" transform="translate(-394.915 -391.546)" fill="#d1d8e0"/>
      <path id="Trazado_5920-5" data-name="Trazado 5920" d="M424.947,395a3.57,3.57,0,0,0-2.339,4.987A4.042,4.042,0,0,0,424.947,395Z" transform="translate(-418.338 -393.812)" fill="#d1d8e0"/>
      <path id="Trazado_5921-5" data-name="Trazado 5921" d="M381.677,404.23a3.828,3.828,0,0,0,3.959,4.382A4.334,4.334,0,0,0,381.677,404.23Z" transform="translate(-381.655 -402.146)" fill="#9eaab8"/>
      <path id="Trazado_5922-5" data-name="Trazado 5922" d="M426.271,408.367a3.827,3.827,0,0,0-4.381,3.959A4.337,4.337,0,0,0,426.271,408.367Z" transform="translate(-417.983 -405.861)" fill="#9eaab8"/>
      <path id="Trazado_5923-5" data-name="Trazado 5923" d="M410.042,382.77a4.188,4.188,0,0,0-.14,6.459A4.741,4.741,0,0,0,410.042,382.77Z" transform="translate(-405.818 -382.77)" fill="#505e70"/>
    </g>
    <g id="Grupo_17892" data-name="Grupo 17892" transform="translate(1111.415 1839.775)">
      <path id="Trazado_5919-6" data-name="Trazado 5919" d="M396.872,392.49a3.57,3.57,0,0,0,1.78,5.212A4.044,4.044,0,0,0,396.872,392.49Z" transform="translate(-394.915 -391.546)" fill="#d1d8e0"/>
      <path id="Trazado_5920-6" data-name="Trazado 5920" d="M424.947,395a3.57,3.57,0,0,0-2.339,4.987A4.042,4.042,0,0,0,424.947,395Z" transform="translate(-418.338 -393.812)" fill="#d1d8e0"/>
      <path id="Trazado_5921-6" data-name="Trazado 5921" d="M381.677,404.23a3.828,3.828,0,0,0,3.959,4.382A4.334,4.334,0,0,0,381.677,404.23Z" transform="translate(-381.655 -402.146)" fill="#9eaab8"/>
      <path id="Trazado_5922-6" data-name="Trazado 5922" d="M426.271,408.367a3.827,3.827,0,0,0-4.381,3.959A4.337,4.337,0,0,0,426.271,408.367Z" transform="translate(-417.983 -405.861)" fill="#9eaab8"/>
      <path id="Trazado_5923-6" data-name="Trazado 5923" d="M410.042,382.77a4.188,4.188,0,0,0-.14,6.459A4.741,4.741,0,0,0,410.042,382.77Z" transform="translate(-405.818 -382.77)" fill="#505e70"/>
    </g>
    <g id="Grupo_17893" data-name="Grupo 17893" transform="translate(1134.415 1802.775)">
      <path id="Trazado_5919-7" data-name="Trazado 5919" d="M396.872,392.49a3.57,3.57,0,0,0,1.78,5.212A4.044,4.044,0,0,0,396.872,392.49Z" transform="translate(-394.915 -391.546)" fill="#d1d8e0"/>
      <path id="Trazado_5920-7" data-name="Trazado 5920" d="M424.947,395a3.57,3.57,0,0,0-2.339,4.987A4.042,4.042,0,0,0,424.947,395Z" transform="translate(-418.338 -393.812)" fill="#d1d8e0"/>
      <path id="Trazado_5921-7" data-name="Trazado 5921" d="M381.677,404.23a3.828,3.828,0,0,0,3.959,4.382A4.334,4.334,0,0,0,381.677,404.23Z" transform="translate(-381.655 -402.146)" fill="#9eaab8"/>
      <path id="Trazado_5922-7" data-name="Trazado 5922" d="M426.271,408.367a3.827,3.827,0,0,0-4.381,3.959A4.337,4.337,0,0,0,426.271,408.367Z" transform="translate(-417.983 -405.861)" fill="#9eaab8"/>
      <path id="Trazado_5923-7" data-name="Trazado 5923" d="M410.042,382.77a4.188,4.188,0,0,0-.14,6.459A4.741,4.741,0,0,0,410.042,382.77Z" transform="translate(-405.818 -382.77)" fill="#505e70"/>
    </g>
  </g>
</svg>
