<svg xmlns="http://www.w3.org/2000/svg" width="247" height="183.336" viewBox="0 0 247 183.336">
  <g id="Grupo_17805" data-name="Grupo 17805" transform="translate(0 0)">
    <g id="freepik--character-4--inject-19" transform="translate(149.339 4.53)">
      <rect id="Rectángulo_8862" data-name="Rectángulo 8862" width="48.291" height="48.834" transform="translate(3.461 0.285)" fill="#fff"/>
      <path id="Trazado_23469" data-name="Trazado 23469" d="M357.837,145.953H308.971v-49.4h48.855Zm-48.291-.57h47.727V97.119H309.535Z" transform="translate(-305.803 -96.549)" fill="#ebebeb"/>
      <path id="Trazado_23470" data-name="Trazado 23470" d="M316.693,101.046a1.421,1.421,0,1,1-1.421-1.437h0A1.429,1.429,0,0,1,316.693,101.046Z" transform="translate(-307.932 -97.864)" fill="#c7c7c7"/>
      <ellipse id="Elipse_649" data-name="Elipse 649" cx="1.421" cy="1.437" rx="1.421" ry="1.437" transform="translate(11.722 1.745)" fill="#ebebeb"/>
      <ellipse id="Elipse_650" data-name="Elipse 650" cx="1.421" cy="1.437" rx="1.421" ry="1.437" transform="translate(17.53 1.745)" fill="#ffc100"/>
      <rect id="Rectángulo_8863" data-name="Rectángulo 8863" width="48.291" height="0.57" transform="translate(3.461 5.714)" fill="#ebebeb"/>
      <rect id="Rectángulo_8864" data-name="Rectángulo 8864" width="48.291" height="48.834" transform="translate(3.461 0.285)" fill="#fff"/>
      <path id="Trazado_23471" data-name="Trazado 23471" d="M357.837,145.953H308.971v-49.4h48.855Zm-48.291-.57h47.727V97.119H309.535Z" transform="translate(-305.803 -96.549)" fill="#ebebeb"/>
      <path id="Trazado_23472" data-name="Trazado 23472" d="M316.693,101.046a1.421,1.421,0,1,1-1.421-1.437h0A1.429,1.429,0,0,1,316.693,101.046Z" transform="translate(-307.932 -97.864)" fill="#a6a6a6"/>
      <ellipse id="Elipse_651" data-name="Elipse 651" cx="1.421" cy="1.437" rx="1.421" ry="1.437" transform="translate(11.722 1.745)" fill="#ebebeb"/>
      <ellipse id="Elipse_652" data-name="Elipse 652" cx="1.421" cy="1.437" rx="1.421" ry="1.437" transform="translate(17.53 1.745)" fill="#ffc100"/>
      <rect id="Rectángulo_8865" data-name="Rectángulo 8865" width="48.291" height="0.57" transform="translate(3.461 5.714)" fill="#ebebeb"/>
      <path id="Trazado_23473" data-name="Trazado 23473" d="M343.986,108.136c-2.718,3.547-2.955,8.833-2.955,8.833s-2.334,5.6-1.128,8.308a5.139,5.139,0,0,0,3.688,3.062l-.5-1.522s1.257,1.876,4.714,2.281,7.759-1.249,9.919-2.731a8.983,8.983,0,0,0,3.006-3.456l-.564,2.384A6.748,6.748,0,0,0,364.895,121c1.489-3.752-4.708-8.063-5.317-9.084s-2.21-8.844-10.257-6.409A7.762,7.762,0,0,0,343.986,108.136Z" transform="translate(-319.142 -100.198)" fill="#263238"/>
      <path id="Trazado_23474" data-name="Trazado 23474" d="M341.507,136.4a5.351,5.351,0,0,1-2.464-2.019,4.912,4.912,0,0,1-.914-3.045,10.859,10.859,0,0,1,1.1-3.706c.524-1.226,1.128-2.412,1.641-3.644.028-.068-.073-.108-.113-.057a30.619,30.619,0,0,0-1.692,2.988,14.132,14.132,0,0,0-1.257,3,5.293,5.293,0,0,0,0,2.959,5.143,5.143,0,0,0,1.3,2.053,10.9,10.9,0,0,0,2.368,1.545C341.529,136.5,341.563,136.419,341.507,136.4Z" transform="translate(-318.287 -108.307)" fill="#263238"/>
      <path id="Trazado_23475" data-name="Trazado 23475" d="M377.691,118.7c-1.353-2.783-4.173-4.288-6.067-6.62a25.892,25.892,0,0,0-3.141-3.746c-.034,0-.085.034-.051.063a19.646,19.646,0,0,1,2.549,3.319,21.735,21.735,0,0,0,2.881,3.131c1.883,1.762,4.128,3.843,4.111,6.654a3.641,3.641,0,0,1-1.821,3.376c-.045,0,0,.1.039.074a4.12,4.12,0,0,0,1.968-2.583A5.291,5.291,0,0,0,377.691,118.7Z" transform="translate(-331.73 -101.612)" fill="#263238"/>
      <path id="Trazado_23476" data-name="Trazado 23476" d="M379.909,122.52a5.461,5.461,0,0,0-1.128-3.062,7.619,7.619,0,0,0-2.633-1.9,8.415,8.415,0,0,1-3.079-2.087c-.034-.04-.09,0-.056.057,1.263,1.676,3.344,2.281,4.866,3.609a5.6,5.6,0,0,1,1.274,6.2,8.855,8.855,0,0,1-2.357,3.376m0,.029a7.77,7.77,0,0,0,3.113-6.215Z" transform="translate(-333.728 -104.673)" fill="#263238"/>
      <path id="Trazado_23477" data-name="Trazado 23477" d="M317.829,118.87l2.96,13.087c.13.382-.068.69-.44.679l-6.637-.148a1.069,1.069,0,0,1-.908-.713l-2.955-13.081c-.13-.388.068-.69.434-.684l6.643.148A1.063,1.063,0,0,1,317.829,118.87Z" transform="translate(-306.169 -105.772)" fill="#a6a6a6"/>
      <path id="Trazado_23478" data-name="Trazado 23478" d="M316.435,118.808l2.955,13.081c.13.388-.068.69-.434.684l-6.643-.148a1.079,1.079,0,0,1-.908-.713L308.45,118.6c-.13-.382.068-.69.44-.679l6.637.148A1.067,1.067,0,0,1,316.435,118.808Z" transform="translate(-305.559 -105.733)" fill="#dbdbdb"/>
      <path id="Trazado_23479" data-name="Trazado 23479" d="M319.391,120.019a.564.564,0,1,0,.564-.57A.567.567,0,0,0,319.391,120.019Z" transform="translate(-310.348 -106.391)" fill="#455a64"/>
      <path id="Trazado_23480" data-name="Trazado 23480" d="M336.459,150.084c-3.868,8.046-12.439,18.441-15.935,18.441-1.663,0-4.635.359-6.767-1.6-4.7-4.277-8.571-12.385-9.321-17.01-.265-1.637,7.629-5.058,8.8-3.735,2.684,3.159,5.774,9.34,6.259,9.312,1.788-.114,8.853-5.907,13.787-9.985C339.267,140.561,338,146.879,336.459,150.084Z" transform="translate(-303.823 -116.806)" fill="#eb9481"/>
      <path id="Trazado_23481" data-name="Trazado 23481" d="M304.261,132.477c.88-3.319,1.607-4.037.88-7.236-.479-2.1.643-3.307,2.086-1.608,2.363,2.777,2.12,7.3,1.584,8.844Z" transform="translate(-303.749 -107.843)" fill="#eb9481"/>
      <path id="Trazado_23482" data-name="Trazado 23482" d="M304.316,142.65s-1.41-4.659-.818-8.291c.406-2.509,1.895-7.869,8.9-10.618,1.658-.65,4.483-.388,2.154,1.671-1.658,1.465-3.141,1.887-3.947,2.914,0,0,3.552.764,4.133,2.475a33.3,33.3,0,0,1,1.2,4.562,7.154,7.154,0,0,1-.823.3,5.629,5.629,0,0,1-.7,3.912Z" transform="translate(-303.353 -108.1)" fill="#eb9481"/>
      <path id="Trazado_23483" data-name="Trazado 23483" d="M304.971,135.091a19.6,19.6,0,0,1,5.487-3.421c2.532-.9,7.658-1.95,8.3-.051.468,1.4-1.455,1.967-1.455,1.967s2.21,0,2.363,1.374c.135,1.232-1.376,1.585-1.376,1.585s1.336.245,1.246,1.454c-.113,1.46-2.9.713-4.274,2.087C314.952,140.394,304.971,135.091,304.971,135.091Z" transform="translate(-304.059 -111.165)" fill="#eb9481"/>
      <path id="Trazado_23484" data-name="Trazado 23484" d="M315.568,136.7a10.564,10.564,0,0,1,6.31-.992c.051,0,.073.057,0,.057a26.123,26.123,0,0,0-6.327.958A.045.045,0,0,1,315.568,136.7Z" transform="translate(-308.673 -113.327)" fill="#263238"/>
      <path id="Trazado_23485" data-name="Trazado 23485" d="M317.3,141.43a11.865,11.865,0,0,1,6.355-.61c.056,0,.073.063,0,.063a27.808,27.808,0,0,0-6.372.57A.045.045,0,0,1,317.3,141.43Z" transform="translate(-309.427 -115.496)" fill="#263238"/>
      <path id="Trazado_23486" data-name="Trazado 23486" d="M340.361,151.733l8.188,6.141s3.987-5.434,4.928-10.264-1.5-4.875-5.188-1.916S340.361,151.733,340.361,151.733Z" transform="translate(-319.493 -116.807)" fill="#ffc100"/>
      <path id="Trazado_23487" data-name="Trazado 23487" d="M343.567,156.256c.474.228,4.449,3.119,7.094,5.269.034.034,0,.086-.039.063a61.908,61.908,0,0,1-7.1-5.28C343.488,156.279,343.533,156.239,343.567,156.256Z" transform="translate(-320.866 -122.208)" fill="#263238"/>
      <path id="Trazado_23488" data-name="Trazado 23488" d="M355.579,147.544c-.936,4.858-4.928,10.264-4.928,10.264l-5.47-4.1,8.25-9.95C355.275,143.153,356.228,144.214,355.579,147.544Z" transform="translate(-321.595 -116.769)" fill="#263238"/>
      <path id="Trazado_23489" data-name="Trazado 23489" d="M372.514,161.743c-3.22-6.786-7.246-14.17-10.917-17.728-.175-.171-.355-.336-.53-.485l-.1-.091c-3.569-3.062-7.331-1.6-9.738.918-.564.627-6.908,10.977-7.178,14.7a10.286,10.286,0,0,0,1.759,5.776h26.706Z" transform="translate(-321.094 -115.959)" fill="#ffc100"/>
      <path id="Trazado_23490" data-name="Trazado 23490" d="M383.671,152.833a61.984,61.984,0,0,0-9.366-7.453c-2.65-1.568-7.3-2.6-2.819,4.5,2.628,4.151,6.9,11.764,8.926,16.035h3.248Z" transform="translate(-332.252 -117.046)" fill="#eb9481"/>
      <path id="Trazado_23491" data-name="Trazado 23491" d="M374.493,157.247l7.421-7.048s-4.562-4.949-9.118-6.757-5.013.61-2.819,4.807S374.493,157.247,374.493,157.247Z" transform="translate(-331.853 -116.442)" fill="#ffc100"/>
      <path id="Trazado_23492" data-name="Trazado 23492" d="M377.971,160.038c.3-.433,3.84-3.866,6.406-6.107.039-.029.085,0,.056.051a61.726,61.726,0,0,1-6.423,6.107C377.971,160.095,377.971,160.095,377.971,160.038Z" transform="translate(-335.895 -121.205)" fill="#263238"/>
      <path id="Trazado_23493" data-name="Trazado 23493" d="M376.8,161.827a8.411,8.411,0,0,0-.846.536c-.056-.131-.13-.257-.2-.393l-.434-.878c-.333-.644-.671-1.277-1.026-1.91-.694-1.232-1.449-2.452-2.086-3.718,0-.051-.1,0-.073.051.35.667.677,1.357.992,2.047-.051-.046-.789-.644-.908-.764s-.107.029-.062.068c.13.1,1.128,1.112,1.179,1.14l.6,1.3q.446.952.93,1.882c.152.291.3.57.462.867s.474.827.479.838a11.707,11.707,0,0,0,1.055-.992.062.062,0,0,0-.049-.074Z" transform="translate(-333.346 -121.86)" fill="#263238"/>
      <path id="Trazado_23494" data-name="Trazado 23494" d="M359.827,140.452a7.07,7.07,0,0,0-4.618,3.108c-1.218,1.671-2.334,4.049-1.494,4.562.964.57,2.876-1.58,2.876-1.58s-.485,3.5,1.353,3.319c2.148-.205,4.111-3.227,4.472-5.275C362.8,142.374,362.41,140.184,359.827,140.452Z" transform="translate(-325.189 -115.408)" fill="#fff"/>
      <path id="Trazado_23495" data-name="Trazado 23495" d="M363.6,137.044c-.147.508-2.757,3.724-5.075,3.49-.756-.08-.519-4.277-.519-4.277l-.051-.314-.733-4.4,5.216-3.005.756-.393s.118,1.215.259,2.731v.217a.713.713,0,0,0,.028.245c0,.228.045.456.062.69a3.621,3.621,0,0,0,.04.53l.034.57A29.973,29.973,0,0,1,363.6,137.044Z" transform="translate(-326.846 -110.13)" fill="#eb9481"/>
      <path id="Trazado_23496" data-name="Trazado 23496" d="M363.432,130.85a8.894,8.894,0,0,1-5.5,5.064l-.733-4.4,5.216-3.005.756-.393S363.274,129.334,363.432,130.85Z" transform="translate(-326.837 -110.117)" fill="#263238"/>
      <path id="Trazado_23497" data-name="Trazado 23497" d="M345.752,115.915c-.395,7.812,4.19,8.93,5.859,9.015,1.511.074,6.671.137,7.855-7.59s-2.284-10.384-5.729-10.743S346.142,108.1,345.752,115.915Z" transform="translate(-321.834 -100.85)" fill="#eb9481"/>
      <path id="Trazado_23498" data-name="Trazado 23498" d="M348.148,120.355a4.022,4.022,0,0,0,.519-.12.85.85,0,0,0,.508-.228.275.275,0,0,0,0-.336.677.677,0,0,0-.677-.148.968.968,0,0,0-.62.371.293.293,0,0,0,.059.407A.285.285,0,0,0,348.148,120.355Z" transform="translate(-322.746 -106.408)" fill="#263238"/>
      <path id="Trazado_23499" data-name="Trazado 23499" d="M357.05,120.48a4.221,4.221,0,0,1-.53-.1.853.853,0,0,1-.513-.205.276.276,0,0,1,0-.336.672.672,0,0,1,.671-.177.976.976,0,0,1,.632.348.3.3,0,0,1-.059.415A.289.289,0,0,1,357.05,120.48Z" transform="translate(-326.291 -106.469)" fill="#263238"/>
      <path id="Trazado_23500" data-name="Trazado 23500" d="M356.114,124.619a.041.041,0,0,1,.039.046c0,.53.045,1.14.524,1.323v.034C356.091,125.936,356.018,125.121,356.114,124.619Z" transform="translate(-326.348 -108.613)" fill="#263238"/>
      <path id="Trazado_23501" data-name="Trazado 23501" d="M356.584,123.648c.852-.063.908,1.654.124,1.711S355.874,123.7,356.584,123.648Z" transform="translate(-326.35 -108.195)" fill="#263238"/>
      <path id="Trazado_23502" data-name="Trazado 23502" d="M357.5,123.689c.152.1.3.262.485.274s.355-.171.485-.354h.028c0,.325-.1.667-.44.73s-.564-.228-.648-.57C357.391,123.763,357.436,123.689,357.5,123.689Z" transform="translate(-326.926 -108.179)" fill="#263238"/>
      <path id="Trazado_23503" data-name="Trazado 23503" d="M349.879,124.4a.041.041,0,0,0-.039.046c.039.536,0,1.14-.468,1.346h0C349.952,125.739,350,124.9,349.879,124.4Z" transform="translate(-323.422 -108.518)" fill="#263238"/>
      <path id="Trazado_23504" data-name="Trazado 23504" d="M348.9,123.459c-.851-.029-.846,1.711-.056,1.711S349.614,123.482,348.9,123.459Z" transform="translate(-322.938 -108.114)" fill="#263238"/>
      <path id="Trazado_23505" data-name="Trazado 23505" d="M348.078,123.6c-.135.091-.265.257-.428.268s-.321-.171-.44-.348h-.028c0,.331.1.673.412.736s.5-.228.564-.57C348.19,123.65,348.134,123.565,348.078,123.6Z" transform="translate(-322.467 -108.14)" fill="#263238"/>
      <path id="Trazado_23506" data-name="Trazado 23506" d="M355.2,131.784c-.118.131-.231.314-.417.348a1.432,1.432,0,0,1-.564-.091s-.034,0,0,.029a.706.706,0,0,0,.694.234.569.569,0,0,0,.372-.5C355.234,131.756,355.2,131.756,355.2,131.784Z" transform="translate(-325.53 -111.684)" fill="#263238"/>
      <path id="Trazado_23507" data-name="Trazado 23507" d="M351.277,124.6s-.09.8-.085,1.175c0,.034.09.051.22.051h0a1.739,1.739,0,0,0,1.692-.707c.028-.034,0-.074-.056-.046a2.656,2.656,0,0,1-1.6.5c-.028-.1.2-1.363.141-1.363a3.33,3.33,0,0,0-.835.211c.141-1.665.564-3.3.66-4.961,0-.057-.085-.074-.1,0a27.382,27.382,0,0,0-.93,5.314C350.358,124.97,351.114,124.668,351.277,124.6Z" transform="translate(-323.862 -106.375)" fill="#263238"/>
      <path id="Trazado_23508" data-name="Trazado 23508" d="M352.271,129.938a2.209,2.209,0,0,0,.857.684.949.949,0,0,0,.592.04c.429-.108.44-.5.367-.844a2.394,2.394,0,0,0-.186-.519A2.8,2.8,0,0,1,352.271,129.938Z" transform="translate(-324.687 -110.624)" fill="#263238"/>
      <path id="Trazado_23509" data-name="Trazado 23509" d="M353.791,131.013a.949.949,0,0,0,.592.04c.429-.108.44-.5.366-.844A1.013,1.013,0,0,0,353.791,131.013Z" transform="translate(-325.35 -111.015)" fill="#ff99ba"/>
      <path id="Trazado_23510" data-name="Trazado 23510" d="M358.779,117.364c-1.9,0-2.65-5.885-2.735-6.609a14.581,14.581,0,0,1,0,2.988,1.84,1.84,0,0,1-.6-.091h0a5.8,5.8,0,0,0-.1-.867,6.758,6.758,0,0,0-.1.821l-.355-.091a6.98,6.98,0,0,0-.243-1.842,13.466,13.466,0,0,0-.276,1.711,22.7,22.7,0,0,0-5-.718,10.39,10.39,0,0,0-1.246.046,10.914,10.914,0,0,0,0-1.317,6.841,6.841,0,0,0-.248,1.34l-.564.063c-.079-1.015.344-2.646.192-2.395a7.1,7.1,0,0,0-.885,2.532c-.682.154-.868.3-.891.12a8.485,8.485,0,0,1,2.368-5.326,6.672,6.672,0,0,1,9.8.319,6.219,6.219,0,0,1,2.673,3.706C360.99,114.08,359.879,117.364,358.779,117.364Z" transform="translate(-321.835 -100.497)" fill="#263238"/>
      <path id="Trazado_23511" data-name="Trazado 23511" d="M367.106,124.608s1.6-2.5,2.718-1.933,0,4.151-1.291,4.681a1.307,1.307,0,0,1-1.76-.6c-.007-.015-.015-.03-.021-.045Z" transform="translate(-331.002 -107.741)" fill="#eb9481"/>
      <path id="Trazado_23512" data-name="Trazado 23512" d="M370.021,124.529v.034a3.344,3.344,0,0,0-1.635,2.15.724.724,0,0,1,.986-.3.7.7,0,0,1,.091.059s0,.057-.028.051a.8.8,0,0,0-.874.319,4.063,4.063,0,0,0-.395.736c-.039.086-.186.046-.158-.051h0C367.952,126.365,368.786,124.689,370.021,124.529Z" transform="translate(-331.549 -108.574)" fill="#263238"/>
    </g>
    <g id="Grupo_17801" data-name="Grupo 17801" transform="translate(7.713 20.346)">
      <g id="freepik--character-1--inject-19" transform="translate(0 7.73)">
        <rect id="Rectángulo_8866" data-name="Rectángulo 8866" width="48.291" height="48.834" transform="translate(0.282 0.285)" fill="#fff"/>
        <path id="Trazado_23513" data-name="Trazado 23513" d="M101.048,187.258H52.193V137.843h48.855Zm-48.291-.57h47.727V138.413H52.757Z" transform="translate(-52.193 -137.843)" fill="#ebebeb"/>
        <path id="Trazado_23514" data-name="Trazado 23514" d="M59.895,142.34a1.421,1.421,0,1,1-1.421-1.437,1.429,1.429,0,0,1,1.421,1.437Z" transform="translate(-54.313 -139.158)" fill="#a6a6a6"/>
        <ellipse id="Elipse_653" data-name="Elipse 653" cx="1.421" cy="1.437" rx="1.421" ry="1.437" transform="translate(8.543 1.745)" fill="#ebebeb"/>
        <ellipse id="Elipse_654" data-name="Elipse 654" cx="1.421" cy="1.437" rx="1.421" ry="1.437" transform="translate(14.351 1.745)" fill="#ffc100"/>
        <rect id="Rectángulo_8867" data-name="Rectángulo 8867" width="48.291" height="0.57" transform="translate(0.282 5.714)" fill="#ebebeb"/>
        <path id="Trazado_23515" data-name="Trazado 23515" d="M79.057,188.345c3.231,7.858,10.065,17.46,14.306,16.73,3.874-.661,11.994-6.272,15.27-9.124s-5.994-10.749-7.968-9.124c-2.633,2.19-7.054,6.843-7.894,6.677-1.066-.171-2.323-1.648-9.248-8.194C80.647,182.643,77.653,184.986,79.057,188.345Z" transform="translate(-63.753 -157.747)" fill="#ad6359"/>
        <path id="Trazado_23516" data-name="Trazado 23516" d="M122.9,180.342c1.663-.787,3.507-1.83,5.419-1.984s3.755,2.235,3.829,2.971-.2,5.36-2.115,5.554-1.128-3.421-1.212-3.821-.237-.9-.592-.827-6.372,3.741-6.372,3.741Z" transform="translate(-82.573 -155.252)" fill="#ad6359"/>
        <path id="Trazado_23517" data-name="Trazado 23517" d="M123.973,180.229c.107,0,5.03-2.572,6.947-2.731s3.755,2.241,3.829,2.971-.2,5.366-2.115,5.554-1.128-3.421-1.218-3.82-.231-.9-.592-.827-6.372,3.741-6.372,3.741Z" transform="translate(-83.497 -154.882)" fill="#ad6359"/>
        <path id="Trazado_23518" data-name="Trazado 23518" d="M134.67,188.686a2.3,2.3,0,0,1-.429-1.112,4,4,0,0,1-.051-1.243,7.058,7.058,0,0,0,.124-1.083,2.122,2.122,0,0,0-.367-1c-.175-.257-.445-.137-.677,0a9.033,9.033,0,0,0-.992.57c-.35.222-.694.45-1.038.679a10.2,10.2,0,0,0-1.049.724v.051c.321-.148.62-.354.93-.536s.694-.416,1.043-.616.643-.4.976-.57c.113-.063.344-.217.485-.2s.259.371.3.485a1.867,1.867,0,0,1,.034,1.055,5.321,5.321,0,0,0-.09,1.078,2.849,2.849,0,0,0,.175,1,3.99,3.99,0,0,0,.564.787C134.642,188.765,134.7,188.72,134.67,188.686Z" transform="translate(-86.21 -157.723)" fill="#263238"/>
        <path id="Trazado_23519" data-name="Trazado 23519" d="M114.093,181.9s4.821-5.417,5.831-6.5c2.019-2.167,10.962-6.957,12.248-7.225s2.024,2.372-4.032,5.811c-3.186,1.808-3.592,3.8-3.423,4.864s1.376,2.954,3.152,2.726,2.673-2.971,4.28-3.421.823,2.686-.158,4.562a11.045,11.045,0,0,1-4.421,4.26c-1.477.741-6.039,3.3-6.039,3.3Z" transform="translate(-79.188 -150.873)" fill="#ad6359"/>
        <path id="Trazado_23520" data-name="Trazado 23520" d="M138.162,184.435a4.621,4.621,0,0,1-2.194,1.471,2.165,2.165,0,0,1-2.058-1.14,3.448,3.448,0,0,1-.71-2.441,4.2,4.2,0,0,1,1.021-2.144,10.293,10.293,0,0,1,2.256-1.865c.039,0,0-.08-.039-.057-.784.456-3.225,1.762-3.513,4.094a3.552,3.552,0,0,0,.744,2.486,2.5,2.5,0,0,0,1.979,1.294c1.06,0,1.883-.975,2.571-1.711C138.224,184.418,138.19,184.4,138.162,184.435Z" transform="translate(-87.395 -155.212)" fill="#263238"/>
        <path id="Trazado_23521" data-name="Trazado 23521" d="M78.321,189.641a37.229,37.229,0,0,0,4.449,9.015,8.634,8.634,0,0,0,.62.827l6.676-7.242.925-1s-.175-.194-.733-.718c-.789-.736-2.357-2.116-5.306-4.493a15.624,15.624,0,0,0-4.319-2.669C77.436,182.234,76.646,184.834,78.321,189.641Z" transform="translate(-63.215 -157.292)" fill="#37474f"/>
        <path id="Trazado_23522" data-name="Trazado 23522" d="M85.593,204.646l2.2,2.537,7.443-8.228,1.663-1.847-2.622-1.9-.479.519-.936,1.021-6.552,7.116Z" transform="translate(-66.759 -162.495)" fill="#37474f"/>
        <path id="Trazado_23523" data-name="Trazado 23523" d="M78.321,189.641a37.229,37.229,0,0,0,4.449,9.015l-.722.787,2.2,2.537,7.443-8.228-1.63-1.511-.744-.7c-3.349-3.131-6.688-6.272-8.689-8.183C77.436,182.234,76.646,184.834,78.321,189.641Z" transform="translate(-63.215 -157.292)" fill="#263238"/>
        <path id="Trazado_23524" data-name="Trazado 23524" d="M79.6,205.928a98.618,98.618,0,0,0-1.906-13.406c-.784-3.353-4.607-8.171-4.759-8.308-2.256-2.041-5.019-2.6-7.94.354-3.744,3.792-8.2,13.725-11.278,21.361Z" transform="translate(-52.856 -157.043)" fill="#37474f"/>
        <path id="Trazado_23525" data-name="Trazado 23525" d="M74.494,193.557c3.857,7.607,18.18,20.613,22.956,20.665,5.543.034,18.259-9.283,20.892-12.916,1.054-1.443-8.458-8.245-9.953-7.071-6.287,4.91-11.842,7.362-12.924,7.025-1.692-.519-9.806-6.347-15.14-10.315C73.62,185.939,72.763,190.147,74.494,193.557Z" transform="translate(-61.581 -159.674)" fill="#ad6359"/>
        <path id="Trazado_23526" data-name="Trazado 23526" d="M143.933,193.363a43.318,43.318,0,0,0,5.509-8.046,23.816,23.816,0,0,0,1.991-7.344c.395-3.992.3-6.843-.423-7.869-.84-1.215-1.032-1.4-2.7,5.588-.947,3.952-2.718,4.927-4.365,5.417a27.857,27.857,0,0,0-10.872,6.141S141.424,195.285,143.933,193.363Z" transform="translate(-87.466 -151.429)" fill="#ad6359"/>
        <path id="Trazado_23527" data-name="Trazado 23527" d="M148.43,162.854,143.919,175.7c-.135.382.056.684.423.684l6.558-.046a1.062,1.062,0,0,0,.9-.69l4.511-12.853c.135-.382-.056-.684-.423-.684l-6.558.051A1.045,1.045,0,0,0,148.43,162.854Z" transform="translate(-92.177 -148.274)" fill="#263238"/>
        <path id="Trazado_23528" data-name="Trazado 23528" d="M147.392,162.949,142.881,175.8c-.13.376.056.684.423.679l6.558-.046a1.055,1.055,0,0,0,.908-.69l4.511-12.853c.135-.376-.051-.679-.417-.679l-6.558.046A1.079,1.079,0,0,0,147.392,162.949Z" transform="translate(-91.725 -148.317)" fill="#37474f"/>
        <path id="Trazado_23529" data-name="Trazado 23529" d="M148,163.884l-4.15,11.781c-.124.365.039.65.367.65l5.864-.04a1,1,0,0,0,.829-.656l4.15-11.786c.259-.736.045-.9-.282-.89h-1.173c-.068,0-.152.08-.186.177v.046c-.079.228-.2.228-.355.228h-2.718c-.152,0-.276,0-.192-.222v-.046c.034-.1,0-.177-.062-.177H148.92C148.582,162.983,148.238,163.211,148,163.884Z" transform="translate(-92.148 -148.63)" fill="#fff"/>
        <path id="Trazado_23530" data-name="Trazado 23530" d="M157.279,163.194h.744a.072.072,0,0,0,.062-.046h0a.034.034,0,0,0-.02-.043l-.014,0h-.773a.068.068,0,0,0-.062.046h0a.039.039,0,0,0,.008.054A.038.038,0,0,0,157.279,163.194Z" transform="translate(-97.992 -148.699)" fill="#fff"/>
        <path id="Trazado_23531" data-name="Trazado 23531" d="M148.743,172.915l4.985-.034,1.782-5.058-4.985.04Z" transform="translate(-94.3 -150.728)" fill="#dbdbdb"/>
        <path id="Trazado_23532" data-name="Trazado 23532" d="M151.913,177.943l2.91-.023.1-.3-2.91.023Z" transform="translate(-95.682 -154.94)" fill="#a6a6a6"/>
        <path id="Trazado_23533" data-name="Trazado 23533" d="M150.653,178.914l3.445-.023.051-.148-3.44.023Z" transform="translate(-95.133 -155.421)" fill="#a6a6a6"/>
        <path id="Trazado_23534" data-name="Trazado 23534" d="M150.483,179.394l3.445-.029.051-.143-3.44.023Z" transform="translate(-95.059 -155.627)" fill="#a6a6a6"/>
        <path id="Trazado_23535" data-name="Trazado 23535" d="M150.313,179.864l3.445-.023.056-.148-3.445.023Z" transform="translate(-94.985 -155.829)" fill="#a6a6a6"/>
        <path id="Trazado_23536" data-name="Trazado 23536" d="M152.793,164.959l.62-.006.045-.12-.62.006Z" transform="translate(-96.066 -149.443)" fill="#a6a6a6"/>
        <path id="Trazado_23537" data-name="Trazado 23537" d="M152.653,165.355l.62-.006.045-.125-.62.006Z" transform="translate(-96.005 -149.61)" fill="#a6a6a6"/>
        <path id="Trazado_23538" data-name="Trazado 23538" d="M152.513,165.749l.62-.006.045-.12h-.62Z" transform="translate(-95.944 -149.782)" fill="#a6a6a6"/>
        <path id="Trazado_23539" data-name="Trazado 23539" d="M148.379,177.848a.335.335,0,0,0,.107.148.812.812,0,0,0,.22-.154c.135-.114.175-.279.056-.279s-.169.137-.169.137,0-.137-.068-.131A.263.263,0,0,0,148.379,177.848Z" transform="translate(-94.139 -154.914)" fill="#ffc100"/>
        <path id="Trazado_23540" data-name="Trazado 23540" d="M146.9,183.421l4.021-.029.412-1.169-4.02.029Z" transform="translate(-93.497 -156.917)" fill="#dbdbdb"/>
        <path id="Trazado_23541" data-name="Trazado 23541" d="M145.586,183.621c-1.692.57,2.735-4.659,2.21-6.632s-2.2-.764-3.344.81c-3.947,5.446-7.894,6.495-9.344,10.971S145.586,183.621,145.586,183.621Z" transform="translate(-88.3 -154.227)" fill="#ad6359"/>
        <path id="Trazado_23542" data-name="Trazado 23542" d="M106.186,198.4c.564.291,1.128.616,1.692.924a9.16,9.16,0,0,0,1.573.815,2.839,2.839,0,0,0,1.923-.2,16.448,16.448,0,0,0,1.613-.707,52.069,52.069,0,0,0,6.2-3.655,35.887,35.887,0,0,0,3.282-2.321l-.107.171a8.9,8.9,0,0,1,.744-1.751,10.031,10.031,0,0,1,1.269-1.8,18.257,18.257,0,0,1,1.658-1.648c.31-.274.615-.57.93-.8l.474-.388c.141-.114.479-.314.564-.473-.028.068-.124,0-.079-.046h0a.039.039,0,0,1,.056,0h.034v.04c-.039.1-.152.171-.231.251l-.423.433c-.265.274-.524.57-.789.8-.6.6-1.2,1.2-1.754,1.836a16.217,16.217,0,0,0-1.32,1.711c-.2.3-.383.627-.564.941a6.471,6.471,0,0,0-.434.964c0,.029-1.917,1.528-2.915,2.281a35.717,35.717,0,0,1-3.118,2.07c-1.071.644-2.154,1.249-3.271,1.8a14.245,14.245,0,0,1-1.742.747,3,3,0,0,1-1.692.239,6.666,6.666,0,0,1-1.641-.924c-.665-.416-1.331-.821-1.979-1.254C106.129,198.436,106.152,198.385,106.186,198.4Z" transform="translate(-75.719 -158.76)" fill="#263238"/>
        <path id="Trazado_23543" data-name="Trazado 23543" d="M91.759,198.789l-6.879,8.873s-8.143-7.453-10.951-13.754.412-7.715,7.3-2.663C87.959,196.189,91.759,198.789,91.759,198.789Z" transform="translate(-61.231 -159.478)" fill="#37474f"/>
        <path id="Trazado_23544" data-name="Trazado 23544" d="M93.534,197.723c1.184.764,2.334,1.591,3.468,2.412.564.4,1.128.81,1.647,1.22l.863.656a6.793,6.793,0,0,0,.976.7c.062.034,0,.125-.051.08a13.276,13.276,0,0,0-1.742-1.192c-.6-.4-1.2-.81-1.788-1.232-1.128-.827-2.312-1.682-3.383-2.6Z" transform="translate(-70.218 -163.578)" fill="#263238"/>
        <path id="Trazado_23545" data-name="Trazado 23545" d="M79.653,207.17a7.62,7.62,0,0,0,1.009.758c.141.086.276.182.412.274-.677-.821-1.336-1.659-1.951-2.52h0c1.46,1.6,2.819,3.267,4.3,4.858s2.876,3.342,4.426,4.893a.046.046,0,0,1,.015.063.045.045,0,0,1-.062.015.049.049,0,0,1-.015-.015c-1.517-1.579-3.118-3.062-4.556-4.716q-.846-.992-1.692-2a2.964,2.964,0,0,1-.457-.3c-.169-.125-.344-.251-.5-.388-.321-.285-.643-.57-.981-.827C79.552,207.2,79.614,207.13,79.653,207.17Z" transform="translate(-63.938 -166.992)" fill="#263238"/>
        <path id="Trazado_23546" data-name="Trazado 23546" d="M102.382,206.334l-2.774-1.671-7.855,10.173,2.413,2.338Z" transform="translate(-69.446 -166.561)" fill="#37474f"/>
        <path id="Trazado_23547" data-name="Trazado 23547" d="M93.418,214.235c.959-1.351,2.019-2.634,3.034-3.935s2.137-2.543,3.113-3.883c.034-.051.107,0,.073.057-1,1.323-1.895,2.726-2.921,4.026a48.9,48.9,0,0,1-3.22,3.8.05.05,0,0,1-.072,0A.052.052,0,0,1,93.418,214.235Z" transform="translate(-70.169 -167.306)" fill="#263238"/>
        <path id="Trazado_23548" data-name="Trazado 23548" d="M95.433,222.485c-.513.57-.992,1.14-1.46,1.711h.2a33.08,33.08,0,0,0-2.447-2.281v.108c.18-.268.361-.536.53-.81-.226.228-.44.468-.654.713l-.045.051.051.057c.756.827,1.556,1.614,2.374,2.378l.113.1.09-.12C94.615,223.745,95.043,223.129,95.433,222.485Z" transform="translate(-69.358 -173.674)" fill="#263238"/>
        <path id="Trazado_23549" data-name="Trazado 23549" d="M86.1,183.845c-1.833-.086-5.91-2.851-6.834-5.246-.062-.16.372-1.711.806-3.672.254-1.175.519-2.492.665-3.712.034-.251.818.319.818.319l1.511.57,5,1.927a19.8,19.8,0,0,0-1.314,4.562,3.054,3.054,0,0,0,0,.508Z" transform="translate(-63.998 -152.158)" fill="#ad6359"/>
        <path id="Trazado_23550" data-name="Trazado 23550" d="M88.141,179.573a.432.432,0,0,1,0,.086,4.8,4.8,0,0,1-.778-.063c-5.075-.758-4.9-7.413-4.9-7.413l2,.342,5,1.927a19.8,19.8,0,0,0-1.314,4.562A3.084,3.084,0,0,0,88.141,179.573Z" transform="translate(-65.394 -152.602)" fill="#263238"/>
        <path id="Trazado_23551" data-name="Trazado 23551" d="M81.927,153.519c-1.083,2.634-.417,10.629,1.325,12.545,2.526,2.811,7.043,3.5,9.5.342,2.38-3.068,1.331-13.469-.654-15.271C89.2,148.507,83.545,149.619,81.927,153.519Z" transform="translate(-64.932 -142.941)" fill="#ad6359"/>
        <path id="Trazado_23552" data-name="Trazado 23552" d="M84.393,178.263h0" transform="translate(-66.236 -155.215)" fill="none"/>
        <path id="Trazado_23553" data-name="Trazado 23553" d="M94.261,166.613s-.039,0-.034.051c.056.536.034,1.14-.434,1.38h0C94.379,167.942,94.4,167.121,94.261,166.613Z" transform="translate(-70.335 -150.208)" fill="#263238"/>
        <path id="Trazado_23554" data-name="Trazado 23554" d="M93.222,165.693c-.863,0-.8,1.745,0,1.745S93.944,165.693,93.222,165.693Z" transform="translate(-69.815 -149.812)" fill="#263238"/>
        <path id="Trazado_23555" data-name="Trazado 23555" d="M100.414,166.253a.044.044,0,0,1,.045.046c0,.542.1,1.14.564,1.323h0C100.453,167.587,100.363,166.766,100.414,166.253Z" transform="translate(-73.217 -150.053)" fill="#263238"/>
        <path id="Trazado_23556" data-name="Trazado 23556" d="M100.866,165.23c.857-.1.992,1.637.2,1.711S100.15,165.315,100.866,165.23Z" transform="translate(-73.213 -149.611)" fill="#263238"/>
        <path id="Trazado_23557" data-name="Trazado 23557" d="M92.058,163.391a6.418,6.418,0,0,0,.654-.262,1.124,1.124,0,0,0,.62-.4.374.374,0,0,0-.073-.445.889.889,0,0,0-.913-.057,1.325,1.325,0,0,0-.744.61.4.4,0,0,0,.175.527A.38.38,0,0,0,92.058,163.391Z" transform="translate(-69.362 -148.28)" fill="#263238"/>
        <path id="Trazado_23558" data-name="Trazado 23558" d="M101.215,162.783a3.274,3.274,0,0,1-.694-.148,1.177,1.177,0,0,1-.677-.291.375.375,0,0,1,0-.451.9.9,0,0,1,.891-.211,1.343,1.343,0,0,1,.835.479.4.4,0,0,1-.088.55A.383.383,0,0,1,101.215,162.783Z" transform="translate(-72.942 -148.071)" fill="#263238"/>
        <path id="Trazado_23559" data-name="Trazado 23559" d="M94.1,175.116c.13.12.265.291.462.3a1.389,1.389,0,0,0,.564-.16h0a.712.712,0,0,1-.665.325.567.567,0,0,1-.44-.462A.078.078,0,0,1,94.1,175.116Z" transform="translate(-70.436 -153.859)" fill="#263238"/>
        <path id="Trazado_23560" data-name="Trazado 23560" d="M95.033,167.8a1.817,1.817,0,0,0,1.246.77,2.287,2.287,0,0,0,.654,0,.411.411,0,0,0,.124,0h.118a.141.141,0,0,0,.1-.125h0v-.057h0v-.051c0-.411-.073-1.043-.073-1.043.158.068.936.388.913.171a27.686,27.686,0,0,0-.925-5.537c0-.057-.107-.04-.1,0,.1,1.711.507,3.421.637,5.172a3.187,3.187,0,0,0-.868-.234c-.056,0,.147,1.22.135,1.408h0a2.5,2.5,0,0,1-1.906-.513C95.039,167.719,95,167.753,95.033,167.8Z" transform="translate(-70.871 -148.177)" fill="#263238"/>
        <path id="Trazado_23561" data-name="Trazado 23561" d="M91.263,151.051c-2.453,2.07-6.3-.336-6.3-.336a2.88,2.88,0,0,1-2.729,2.1s-.09,4.562-1.263,4.647c-1.788.16-2.91-5.913-2.464-7.173a3.206,3.206,0,0,1,1.934-1.711,3,3,0,0,1,1.049-1.9c1.128-1.061,5.453-.194,5.453-.194a3.964,3.964,0,0,1,.942-1.574,1.119,1.119,0,0,1,1.6-.006l.006.006a2.73,2.73,0,0,0-.321,1.14c-.09,1.334.976,1.232.851.04a1.893,1.893,0,0,0-.53-1.192,1.4,1.4,0,0,1,1.844-.8C92.345,144.773,93.3,149.329,91.263,151.051Z" transform="translate(-63.626 -140.473)" fill="#263238"/>
        <path id="Trazado_23562" data-name="Trazado 23562" d="M81.686,166.237s-1.568-2.68-2.757-2.138-.147,4.339,1.128,4.95a1.363,1.363,0,0,0,1.859-.555l.025-.049Z" transform="translate(-63.625 -149.096)" fill="#ad6359"/>
        <path id="Trazado_23563" data-name="Trazado 23563" d="M79.913,166.053v.034a3.471,3.471,0,0,1,1.618,2.315.752.752,0,0,0-1.006-.364.779.779,0,0,0-.122.073v.051a.832.832,0,0,1,.9.365,3.975,3.975,0,0,1,.383.793c.039.085.2.051.169-.046h0C81.994,168.02,81.187,166.27,79.913,166.053Z" transform="translate(-64.282 -149.967)" fill="#263238"/>
      </g>
      <path id="Trazado_23564" data-name="Trazado 23564" d="M114.878,136.882a6.967,6.967,0,0,1-1.173-3.82c0-4.847,5.261-8.776,11.751-8.776s11.74,3.929,11.74,8.776-5.255,8.77-11.74,8.77a13.95,13.95,0,0,1-8.1-2.429l-4.049,1.044Z" transform="translate(-78.845 -124.286)" fill="#007bc7"/>
      <path id="Trazado_23565" data-name="Trazado 23565" d="M142.345,138.738a1.226,1.226,0,1,0,0-.011Z" transform="translate(-91.51 -129.968)" fill="#fff"/>
      <path id="Trazado_23566" data-name="Trazado 23566" d="M132.685,138.738a1.218,1.218,0,1,0,1.218-1.232,1.225,1.225,0,0,0-1.218,1.232Z" transform="translate(-87.297 -129.968)" fill="#fff"/>
      <path id="Trazado_23567" data-name="Trazado 23567" d="M123.035,138.738a1.218,1.218,0,1,0,1.218-1.232,1.225,1.225,0,0,0-1.218,1.232Z" transform="translate(-83.088 -129.968)" fill="#fff"/>
    </g>
    <g id="Grupo_17802" data-name="Grupo 17802" transform="translate(11.974 129.627)">
      <g id="freepik--character-2--inject-19" transform="translate(13.238 4.305)">
        <rect id="Rectángulo_8868" data-name="Rectángulo 8868" width="48.291" height="48.834" transform="translate(0.282 0.285)" fill="#fff"/>
        <path id="Trazado_23568" data-name="Trazado 23568" d="M132.08,372.886H83.225v-49.4H132.08Zm-48.291-.57h47.727V324.052H83.789Z" transform="translate(-83.225 -323.482)" fill="#ebebeb"/>
        <path id="Trazado_23569" data-name="Trazado 23569" d="M90.927,327.979a1.421,1.421,0,1,1-1.421-1.437h0A1.43,1.43,0,0,1,90.927,327.979Z" transform="translate(-85.345 -324.797)" fill="#a6a6a6"/>
        <path id="Trazado_23570" data-name="Trazado 23570" d="M101.217,327.979a1.421,1.421,0,1,1-1.421-1.437h0A1.43,1.43,0,0,1,101.217,327.979Z" transform="translate(-89.832 -324.797)" fill="#ebebeb"/>
        <path id="Trazado_23571" data-name="Trazado 23571" d="M111.517,327.979a1.421,1.421,0,1,1-1.421-1.437h0A1.43,1.43,0,0,1,111.517,327.979Z" transform="translate(-94.324 -324.797)" fill="#ffc100"/>
        <rect id="Rectángulo_8869" data-name="Rectángulo 8869" width="48.291" height="0.57" transform="translate(0.282 5.714)" fill="#ebebeb"/>
        <path id="Trazado_23572" data-name="Trazado 23572" d="M89.143,362.36c2.081,4.146,6.7,6.563,10.945,7.772s9.338,1.865,13.736.656a10.878,10.878,0,0,0,5.171-2.988,4.951,4.951,0,0,0,1.2-5.468c-.654-1.585-2.509-3.016-2.256-4.288s1.489-2.053,2.024-3.21c.919-1.984.135-3.781-1.009-5.44-2.712-3.935-.908-7.983-2.154-12.414-.71-2.526-3.18-7.413-9.586-6.8-2.43.239-4.432,2.019-5.814,3.992-1.63,2.338-1.562,5.89-3.383,8.08-1.579,1.859-3.321,1.842-4.872,3.82-.671.861-1.128,1.933-.6,4.414a4.664,4.664,0,0,1-.22,3.13c-.744,1.249-2.442,1.534-3.254,2.851A6.1,6.1,0,0,0,89.143,362.36Z" transform="translate(-85.455 -326.339)" fill="#263238"/>
        <path id="Trazado_23573" data-name="Trazado 23573" d="M139.47,377.26a3.059,3.059,0,0,0,2.611-4.368c-.626-1.112-1.776-1.808-2.408-2.919-1.043-1.819.457-2.948,1.506-4.3,2.256-2.925.564-5.594-1.32-8.1-1.427-1.9-1.415-3.735-1.066-6.016,0-.034.068-.029.062,0a7.983,7.983,0,0,0,.564,4.921c.7,1.254,1.782,2.235,2.453,3.524a5.178,5.178,0,0,1-.6,6.067,11.846,11.846,0,0,0-1.41,1.711c-.615,1.494.367,2.537,1.3,3.535a4.857,4.857,0,0,1,1.6,2.709,3.371,3.371,0,0,1-3.3,3.342C139.385,377.357,139.38,377.26,139.47,377.26Z" transform="translate(-107.374 -335.537)" fill="#263238"/>
        <path id="Trazado_23574" data-name="Trazado 23574" d="M137.527,376.834c1.421-.513,2.938-.929,3.947-2.138,1.517-1.779.457-3.592-.53-5.286a3.019,3.019,0,0,1-.564-2.281c.31-1.289,1.455-2.178,1.872-3.421,1-2.988-1.585-5.463-2.616-8.023s-1-5.406-1.009-8.177a.045.045,0,1,1,.09,0c.034,3.547.367,6.934,2.177,10.042,1.263,2.167,2.605,4.5,1.3,6.985-.321.61-.818,1.14-1.128,1.711a3,3,0,0,0,.209,3.216,5.982,5.982,0,0,1,1.252,3.421c-.209,2.5-2.915,3.615-4.973,4.157a.109.109,0,0,1-.028-.205Z" transform="translate(-106.88 -333.788)" fill="#263238"/>
        <path id="Trazado_23575" data-name="Trazado 23575" d="M88,361c1.314-1.272,3.09-1.711,3.079-3.883,0-1.517-.564-2.851.034-4.328a5.676,5.676,0,0,1,2.6-2.714,16.628,16.628,0,0,0,4.06-2.64,17.7,17.7,0,0,0,2.819-4.659c0-.034.073,0,.062,0-.925,2.247-1.962,4.562-4.043,5.936-1.083.736-2.318,1.2-3.383,1.95-1.94,1.334-2.256,3.159-1.979,5.371a3.942,3.942,0,0,1-.383,2.92,12.22,12.22,0,0,1-2.425,1.99c-3.383,2.914-.068,8.108,3.22,9.414.147.057.085.3-.068.24a7.8,7.8,0,0,1-4.8-6.472A4.214,4.214,0,0,1,88,361Z" transform="translate(-84.779 -331.77)" fill="#263238"/>
        <path id="Trazado_23576" data-name="Trazado 23576" d="M88.456,362.149c.327-1.54,1.432-2.212,2.4-3.279,1.511-1.682.677-3.792.919-5.833a5.1,5.1,0,0,1,2-3.359c1.41-1.14,3.056-1.848,4.3-3.245a10.32,10.32,0,0,0,2.43-5.343c0-.034.056,0,.056,0a9.755,9.755,0,0,1-3.834,6.843c-1.387,1.026-3.13,1.745-4.088,3.3-1.015,1.648-.445,3.421-.564,5.263a4.011,4.011,0,0,1-1.308,2.851,8.113,8.113,0,0,0-1.692,1.819,4.964,4.964,0,0,0-.316,3.376,10.717,10.717,0,0,0,6.823,7.35c.107.04.062.228-.045.188a11.394,11.394,0,0,1-6.473-5.885A6.7,6.7,0,0,1,88.456,362.149Z" transform="translate(-85.467 -331.043)" fill="#263238"/>
        <path id="Trazado_23577" data-name="Trazado 23577" d="M116.6,363.954c2.256,2.971,14.351,12.5,24.845,12.693,3.564.063,13.979-14.974,16-20.762,1.455-4.157-7.3-6.575-9.806-6.056-3.135.65-8.616,13.537-10.838,13.685-3.564.234-10.308-2.093-17.751-3.421C115.226,359.449,114.887,361.673,116.6,363.954Z" transform="translate(-97.351 -334.776)" fill="#f7a9a0"/>
        <path id="Trazado_23578" data-name="Trazado 23578" d="M181.215,348.071a60.659,60.659,0,0,0,3.214-8.992c.282-1.8.7-7.042-.637-7.413s-1.585,1.14-1.585,1.14-.169-2.241-1.551-2.475-1.692,2.15-1.692,2.15-.333-2.281-1.731-2.423-1.308,2.315-1.308,2.315-.209-2.1-1.4-1.711c-1.444.456-.62,4.3-1.077,6.272-.1.445-2.729,8.89-2.729,8.89Z" transform="translate(-121.381 -326.305)" fill="#f7a9a0"/>
        <path id="Trazado_23579" data-name="Trazado 23579" d="M179.509,333.721a10.451,10.451,0,0,1-.564,6.843c0,.051.051.091.073.04,1.19-2.526,1.692-4.168.654-6.917C179.593,333.549,179.481,333.584,179.509,333.721Z" transform="translate(-124.97 -327.83)" fill="#263238"/>
        <path id="Trazado_23580" data-name="Trazado 23580" d="M184.732,333.9a15.365,15.365,0,0,1-.677,7.322c0,.04.056.063.073,0,1.032-2.748,1.511-4.4.756-7.339C184.85,333.771,184.715,333.759,184.732,333.9Z" transform="translate(-127.198 -327.915)" fill="#263238"/>
        <path id="Trazado_23581" data-name="Trazado 23581" d="M190.09,335.091a13.791,13.791,0,0,1-1.179,7.219.054.054,0,0,0,.025.071.053.053,0,0,0,.07-.026,9.788,9.788,0,0,0,1.173-7.259C190.146,334.914,190.084,334.909,190.09,335.091Z" transform="translate(-129.314 -328.414)" fill="#263238"/>
        <path id="Trazado_23582" data-name="Trazado 23582" d="M167.17,350.891a35.808,35.808,0,0,1-.051-5.229c.226-1.614,3.248-7.316,4.511-6.723,1.618.758.513,4.4-.259,6.113,0,0,3.755,1.762,3.519,4.562S167.17,350.891,167.17,350.891Z" transform="translate(-119.781 -330.107)" fill="#f7a9a0"/>
        <path id="Trazado_23583" data-name="Trazado 23583" d="M175.2,339.585c.981,1.773-.175,3.957-.8,5.674a.166.166,0,0,0,.081.219.152.152,0,0,0,.065.015c1.522.844,3.428,2.48,3.626,4.322a.04.04,0,1,0,.079,0c.056-2.007-1.692-3.769-3.411-4.562.671-1.751,1.731-3.992.378-5.651C175.21,339.568,175.2,339.574,175.2,339.585Z" transform="translate(-122.983 -330.399)" fill="#263238"/>
        <path id="Trazado_23584" data-name="Trazado 23584" d="M140.1,363.772l12.406,8.251s-6.682,10.161-10.629,11.034-16.8-4.185-23.362-10.23-4.037-8.126,2.989-6.466,13.787,3.062,14.887,2.56S140.1,363.772,140.1,363.772Z" transform="translate(-96.955 -340.798)" fill="#ffc100"/>
        <path id="Trazado_23585" data-name="Trazado 23585" d="M133.877,383.139c-5.193-1.848-11.424-5.132-15.366-8.747-6-5.514-4.4-7.744,1.286-6.814Z" transform="translate(-96.954 -342.345)" fill="#263238"/>
        <path id="Trazado_23586" data-name="Trazado 23586" d="M116.313,391.116v-.068s2.509-3.25,2.256-6.535c-.276-3.729-6.6-14.073-7.184-14.7-2.38-2.52-5.87-4.151-10.37-.342-4.7,3.992-9.586,13.891-12.969,21.668Z" transform="translate(-85.327 -342.276)" fill="#ffc100"/>
        <path id="Trazado_23587" data-name="Trazado 23587" d="M96.055,392.465c1.821-4.356,5.075-11.125,7.088-15.185,3.727-7.55-1.94-7.983-4.088-5.748-4.218,4.351-11.543,12.4-14.83,18.515v2.418Z" transform="translate(-83.661 -343.625)" fill="#f7a9a0"/>
        <path id="Trazado_23588" data-name="Trazado 23588" d="M96.8,391.824c1.816-4.2,5.075-11.4,7.1-15.59,2.955-6.141-.383-10.184-5.723-5a99.627,99.627,0,0,0-13.945,18.127v2.458Z" transform="translate(-83.665 -342.984)" fill="#ffc100"/>
        <path id="Trazado_23589" data-name="Trazado 23589" d="M106.634,400.63c.135-.279.259-.536.338-.719.491-1.14.987-2.281,1.466-3.456s.976-2.309,1.432-3.478c.079-.2.164-.393.242-.57.107-.08,1-1.38,1.257-1.665.045-.046-.034-.114-.068-.068a7.425,7.425,0,0,1-.767.861l-.135.165c.31-.753.62-1.511.908-2.281,0-.057-.056-.1-.079-.046-.671,1.562-1.128,2.5-1.731,3.735s-1.083,2.418-1.613,3.632-1.038,2.441-1.545,3.667c0,.063-.062.137-.1.222Z" transform="translate(-93.264 -351.791)" fill="#263238"/>
        <path id="Trazado_23590" data-name="Trazado 23590" d="M117.682,362.432c.147.513,2.757,3.729,5.075,3.5.756-.08.519-4.277.519-4.277l.051-.314.733-4.4-5.216-3.005-.756-.393s-.118,1.215-.254,2.731v.462c0,.228-.045.456-.062.69s-.028.342-.039.53l-.034.57A29.9,29.9,0,0,0,117.682,362.432Z" transform="translate(-98.228 -336.401)" fill="#f7a9a0"/>
        <path id="Trazado_23591" data-name="Trazado 23591" d="M118.015,356.273a8.877,8.877,0,0,0,5.492,5.064l.733-4.4-5.216-3.005-.756-.393S118.15,354.745,118.015,356.273Z" transform="translate(-98.397 -336.401)" fill="#263238"/>
        <path id="Trazado_23592" data-name="Trazado 23592" d="M115.034,351.822s-2.03-2.155-3.022-1.386.784,4.071,2.131,4.356a1.3,1.3,0,0,0,1.608-.908c.006-.021.011-.041.016-.062Z" transform="translate(-95.653 -334.995)" fill="#f7a9a0"/>
        <path id="Trazado_23593" data-name="Trazado 23593" d="M113.175,352.2v.034a3.33,3.33,0,0,1,2,1.808.723.723,0,0,0-1.02-.137.708.708,0,0,0-.108.1s0,.057.034.046a.783.783,0,0,1,.914.148,3.95,3.95,0,0,1,.53.65c.051.074.192,0,.147-.08h0C115.538,353.6,114.416,352.126,113.175,352.2Z" transform="translate(-96.287 -335.823)" fill="#263238"/>
        <path id="Trazado_23594" data-name="Trazado 23594" d="M127.676,339.505c1.821,7.607-2.481,9.563-4.1,9.956-1.472.359-6.53,1.391-9.118-5.982s.338-10.629,3.66-11.627S125.86,331.9,127.676,339.505Z" transform="translate(-96.414 -326.943)" fill="#f7a9a0"/>
        <path id="Trazado_23595" data-name="Trazado 23595" d="M134.795,343.523h-.564a.872.872,0,0,1-.536-.125.275.275,0,0,1-.056-.336.679.679,0,0,1,.637-.274,1.008,1.008,0,0,1,.677.245.3.3,0,0,1-.019.419A.288.288,0,0,1,134.795,343.523Z" transform="translate(-105.196 -331.777)" fill="#263238"/>
        <path id="Trazado_23596" data-name="Trazado 23596" d="M126.117,345.234a5.312,5.312,0,0,0,.5-.2.847.847,0,0,0,.468-.3.271.271,0,0,0-.056-.331.666.666,0,0,0-.688-.046,1.023,1.023,0,0,0-.564.456.3.3,0,0,0,.142.4A.293.293,0,0,0,126.117,345.234Z" transform="translate(-101.768 -332.421)" fill="#263238"/>
        <path id="Trazado_23597" data-name="Trazado 23597" d="M128.549,349.052s-.039.034-.034.057c.118.519.163,1.14-.271,1.4v.029C128.809,350.346,128.741,349.531,128.549,349.052Z" transform="translate(-102.859 -334.471)" fill="#263238"/>
        <path id="Trazado_23598" data-name="Trazado 23598" d="M127.377,348.26c-.84.1-.564,1.8.2,1.711S128.087,348.174,127.377,348.26Z" transform="translate(-102.256 -334.13)" fill="#263238"/>
        <path id="Trazado_23599" data-name="Trazado 23599" d="M126.44,348.492c-.13.12-.248.314-.423.359s-.383-.1-.564-.257c0,0-.034,0,0,.029.045.325.22.639.564.633s.508-.325.564-.667C126.559,348.526,126.5,348.446,126.44,348.492Z" transform="translate(-101.635 -334.225)" fill="#263238"/>
        <path id="Trazado_23600" data-name="Trazado 23600" d="M134.521,347.752s.045,0,.045.04c.056.53.214,1.14.711,1.232v.029C134.679,349.058,134.482,348.265,134.521,347.752Z" transform="translate(-105.594 -333.913)" fill="#263238"/>
        <path id="Trazado_23601" data-name="Trazado 23601" d="M134.886,346.641c.829-.188,1.128,1.5.372,1.676S134.192,346.806,134.886,346.641Z" transform="translate(-105.586 -333.429)" fill="#263238"/>
        <path id="Trazado_23602" data-name="Trazado 23602" d="M135.771,346.567c.147.063.3.2.468.182s.288-.234.372-.428h0a.683.683,0,0,1-.271.8c-.271.12-.53-.131-.665-.439C135.681,346.636,135.709,346.539,135.771,346.567Z" transform="translate(-106.099 -333.298)" fill="#263238"/>
        <path id="Trazado_23603" data-name="Trazado 23603" d="M130.271,356.066c.141.108.282.268.474.262a1.39,1.39,0,0,0,.564-.194h0a.692.692,0,0,1-.632.359.565.565,0,0,1-.462-.422C130.215,356.066,130.255,356.049,130.271,356.066Z" transform="translate(-103.718 -337.483)" fill="#263238"/>
        <path id="Trazado_23604" data-name="Trazado 23604" d="M132.3,348.271a11.682,11.682,0,0,1,.293,1.14c0,.034-.079.063-.2.091h0a1.76,1.76,0,0,1-1.8-.376.04.04,0,0,1,0-.056.039.039,0,0,1,.041-.007,2.582,2.582,0,0,0,1.692.194c0-.1-.445-1.294-.389-1.312a3.271,3.271,0,0,1,.863.051c-.445-1.614-1.128-3.136-1.556-4.75a.05.05,0,0,1,.041-.059.051.051,0,0,1,.049.019,27.385,27.385,0,0,1,1.895,5.046C133.249,348.465,132.454,348.311,132.3,348.271Z" transform="translate(-103.876 -331.951)" fill="#263238"/>
        <path id="Trazado_23605" data-name="Trazado 23605" d="M132.263,353.774a2.147,2.147,0,0,1-.716.838.97.97,0,0,1-.564.154c-.44-.029-.53-.416-.519-.764a2.473,2.473,0,0,1,.09-.57A2.747,2.747,0,0,0,132.263,353.774Z" transform="translate(-103.826 -336.354)" fill="#263238"/>
        <path id="Trazado_23606" data-name="Trazado 23606" d="M131.547,355.033a.97.97,0,0,1-.564.154c-.44-.029-.53-.416-.519-.764A1.008,1.008,0,0,1,131.547,355.033Z" transform="translate(-103.826 -336.775)" fill="#ff99ba"/>
        <path id="Trazado_23607" data-name="Trazado 23607" d="M114.325,343.66c1.263-.165,1-2.851,1-2.851s2.526-.53,2.594-4.374a5.867,5.867,0,0,1-.485,3.273s4.348-1.426,5.436-5.588a10.244,10.244,0,0,1-.9,2.908,5.376,5.376,0,0,0,2.346-2.652,11.569,11.569,0,0,0,1.957,2.48s-1.827-7.835-8.864-5.463c0,0-4.449,1.266-5.317,5.229S114.325,343.66,114.325,343.66Z" transform="translate(-95.745 -326.691)" fill="#263238"/>
        <path id="Trazado_23608" data-name="Trazado 23608" d="M115.128,367.115a9.212,9.212,0,0,0-4.393,2.469s4.968,3.131,9.079,2.4c1.85-.331,2.819-3.484,2.819-3.484A14.233,14.233,0,0,0,115.128,367.115Z" transform="translate(-95.223 -342.196)" fill="#f7a9a0"/>
        <path id="Trazado_23609" data-name="Trazado 23609" d="M109.955,372.191a23.509,23.509,0,0,0,3.513,1.711,13.785,13.785,0,0,0,3.739.947,8.192,8.192,0,0,0,1.906,0,6.413,6.413,0,0,0,.93-.194,2.635,2.635,0,0,0,.818-.416,5.6,5.6,0,0,0,1.274-1.426,11.4,11.4,0,0,0,.936-1.711,7.164,7.164,0,0,1-2.013,3.421,2.56,2.56,0,0,1-.908.513,6.439,6.439,0,0,1-.981.228,8.4,8.4,0,0,1-2,.051,12.777,12.777,0,0,1-3.823-1.061A16,16,0,0,1,109.955,372.191Z" transform="translate(-94.882 -343.948)" fill="#263238"/>
      </g>
      <path id="Trazado_23610" data-name="Trazado 23610" d="M82.068,328.528A6.98,6.98,0,0,0,83.24,324.7c0-4.847-5.261-8.77-11.746-8.77s-11.746,3.923-11.746,8.77,5.261,8.776,11.746,8.776a13.981,13.981,0,0,0,8.1-2.429l4.043,1.038Z" transform="translate(-59.749 -315.932)" fill="#ffc100"/>
      <path id="Trazado_23611" data-name="Trazado 23611" d="M71.2,330.384a1.218,1.218,0,1,1-1.218-1.232,1.225,1.225,0,0,1,1.218,1.232Z" transform="translate(-63.683 -321.614)" fill="#263238"/>
      <path id="Trazado_23612" data-name="Trazado 23612" d="M80.855,330.384a1.218,1.218,0,1,1-1.218-1.232,1.225,1.225,0,0,1,1.218,1.232Z" transform="translate(-67.891 -321.614)" fill="#263238"/>
      <path id="Trazado_23613" data-name="Trazado 23613" d="M90.5,330.384a1.218,1.218,0,1,1-1.217-1.232h.022A1.225,1.225,0,0,1,90.5,330.384Z" transform="translate(-72.1 -321.614)" fill="#263238"/>
    </g>
    <g id="Grupo_102" data-name="Grupo 102" transform="translate(56.543 57.916)">
      <path id="Trazado_230" data-name="Trazado 230" d="M227.672,190.172h-.008a12.572,12.572,0,0,0-11.257,7.029l-16.935,33.086a16.9,16.9,0,0,0-8.545-7.512,16.482,16.482,0,0,0,3.631-22.848,16.236,16.236,0,0,0-5.679-4.947,32.556,32.556,0,0,0-15.347-3.814H148.2a9.46,9.46,0,0,0-9.417,9.5v47.677a9.46,9.46,0,0,0,9.406,9.514h27.4a37.3,37.3,0,0,0,14.869-3.079l1.734-.848c.1-.047.195-.1.285-.148a9.348,9.348,0,0,0,12.908,3.255,9.479,9.479,0,0,0,3.723-4.227,5,5,0,0,1,4.367-3.069h28.38a5,5,0,0,1,4.369,3.069,9.368,9.368,0,0,0,12.455,4.739,9.57,9.57,0,0,0,4.31-13.341L238.938,197.2a12.577,12.577,0,0,0-11.262-7.029Z" transform="translate(-138.787 -190.172)" fill="#9eaab8"/>
    </g>
    <g id="Grupo_17803" data-name="Grupo 17803" transform="translate(172.415 95.662)">
      <g id="freepik--character-5--inject-19" transform="translate(0 0.513)">
        <rect id="Rectángulo_8870" data-name="Rectángulo 8870" width="48.291" height="48.834" transform="translate(13.235 0.285)" fill="#fff"/>
        <path id="Trazado_23614" data-name="Trazado 23614" d="M416.1,306.672H367.246v-49.4H416.1Zm-48.286-.57h47.722V257.838H367.81Z" transform="translate(-354.293 -257.268)" fill="#ebebeb"/>
        <path id="Trazado_23615" data-name="Trazado 23615" d="M374.948,261.771a1.44,1.44,0,1,1,0-.006Z" transform="translate(-356.413 -258.583)" fill="#a6a6a6"/>
        <path id="Trazado_23616" data-name="Trazado 23616" d="M385.238,261.771a1.44,1.44,0,1,1,0-.006Z" transform="translate(-360.9 -258.583)" fill="#ebebeb"/>
        <path id="Trazado_23617" data-name="Trazado 23617" d="M395.528,261.771a1.44,1.44,0,1,1,0-.006Z" transform="translate(-365.388 -258.583)" fill="#ffc100"/>
        <rect id="Rectángulo_8871" data-name="Rectángulo 8871" width="48.291" height="0.57" transform="translate(13.235 5.714)" fill="#ebebeb"/>
        <path id="Trazado_23618" data-name="Trazado 23618" d="M391.806,303.749c-2.115,3.051-13.877,13.035-24.354,13.623-3.558.194-14.52-14.444-16.759-20.152-1.607-4.094,7.049-6.843,9.586-6.415,3.158.53,9.112,13.2,11.334,13.263,3.569.091,10.223-2.48,17.616-4.06C393.018,299.193,393.441,301.4,391.806,303.749Z" transform="translate(-346.988 -271.663)" fill="#dd6a57"/>
        <path id="Trazado_23619" data-name="Trazado 23619" d="M410.938,311.436c-2.6,3.952-11.278,10.435-11.278,10.435l-1.263-2.709-4.071-8.947s8.018-2.594,13.3-3.786a11.547,11.547,0,0,1,1.889-.285C412.878,305.911,413.182,308.044,410.938,311.436Z" transform="translate(-366.103 -278.267)" fill="#455a64"/>
        <path id="Trazado_23620" data-name="Trazado 23620" d="M406.068,310.648a4.505,4.505,0,0,1,0,2.281A4.347,4.347,0,0,1,406.068,310.648Z" transform="translate(-371.158 -280.21)" fill="#fff"/>
        <path id="Trazado_23621" data-name="Trazado 23621" d="M402.522,318.635a4.359,4.359,0,0,1-2.256,0,3.663,3.663,0,0,1,1.128-.148A3.847,3.847,0,0,1,402.522,318.635Z" transform="translate(-368.694 -283.578)" fill="#fdd306"/>
        <path id="Trazado_23622" data-name="Trazado 23622" d="M422.8,307.436a4.385,4.385,0,0,1-2.256,0,3.884,3.884,0,0,1,1.128-.148A4.071,4.071,0,0,1,422.8,307.436Z" transform="translate(-377.538 -278.765)" fill="#fff"/>
        <path id="Trazado_23623" data-name="Trazado 23623" d="M413.476,315.678a4.417,4.417,0,0,1,1.6,1.614A4.407,4.407,0,0,1,413.476,315.678Z" transform="translate(-374.455 -282.371)" fill="#fff"/>
        <path id="Trazado_23624" data-name="Trazado 23624" d="M405.776,325.228a4.108,4.108,0,0,1,.9.7,3.809,3.809,0,0,1,.694.912,4.045,4.045,0,0,1-.9-.7A3.975,3.975,0,0,1,405.776,325.228Z" transform="translate(-371.097 -286.476)" fill="#fff"/>
        <path id="Trazado_23625" data-name="Trazado 23625" d="M414.087,311.436c-2.6,3.952-11.278,10.435-11.278,10.435l-1.263-2.709c3.231-3.843,8.221-9.694,11.092-13.018C416.027,305.911,416.331,308.044,414.087,311.436Z" transform="translate(-369.252 -278.267)" fill="#263238"/>
        <path id="Trazado_23626" data-name="Trazado 23626" d="M403.046,323.179c-.677-1.648-3.682-8.28-4.432-9.694-.051-.1-.124-.091-.079,0a97.3,97.3,0,0,0,4.449,9.694C403,323.241,403.046,323.218,403.046,323.179Z" transform="translate(-367.933 -281.398)" fill="#263238"/>
        <path id="Trazado_23627" data-name="Trazado 23627" d="M348.268,289.569a59.919,59.919,0,0,1-3.541-8.861c-.344-1.79-.97-7.008.361-7.413s1.63,1.14,1.63,1.14.085-2.247,1.455-2.538,1.771,2.087,1.771,2.087.254-2.281,1.641-2.486,1.393,2.281,1.393,2.281.135-2.115,1.342-1.779c1.455.4.778,4.271,1.3,6.221.118.439,3.056,8.781,3.056,8.781Z" transform="translate(-344.275 -263.379)" fill="#dd6a57"/>
        <path id="Trazado_23628" data-name="Trazado 23628" d="M359.228,274.959a10.264,10.264,0,0,0,.851,6.814c0,.051-.051.1-.079.046-1.28-2.486-1.855-4.106-.908-6.888C359.143,274.788,359.256,274.828,359.228,274.959Z" transform="translate(-350.532 -264.82)" fill="#263238"/>
        <path id="Trazado_23629" data-name="Trazado 23629" d="M354.068,275.343a15.082,15.082,0,0,0,.942,7.287c0,.04-.051.068-.068.028-1.128-2.708-1.692-4.339-1.026-7.31C353.944,275.217,354.079,275.2,354.068,275.343Z" transform="translate(-348.355 -264.993)" fill="#263238"/>
        <path id="Trazado_23630" data-name="Trazado 23630" d="M348.5,276.745a13.848,13.848,0,0,0,1.443,7.168.052.052,0,0,1-.02.071.051.051,0,0,1-.07-.02h0a9.78,9.78,0,0,1-1.438-7.213C348.44,276.569,348.5,276.557,348.5,276.745Z" transform="translate(-346.004 -265.58)" fill="#263238"/>
        <path id="Trazado_23631" data-name="Trazado 23631" d="M367.332,291.771a36.315,36.315,0,0,0-.141-5.229c-.282-1.6-3.519-7.185-4.748-6.552-1.59.827-.355,4.419.479,6.1,0,0-3.682,1.9-3.344,4.676S367.332,291.771,367.332,291.771Z" transform="translate(-350.94 -267.012)" fill="#dd6a57"/>
        <path id="Trazado_23632" data-name="Trazado 23632" d="M361.953,280.669c-.913,1.813.321,3.946,1.009,5.639a.173.173,0,0,1-.086.226.17.17,0,0,1-.05.013c-1.494.9-3.338,2.612-3.462,4.459a.042.042,0,0,1-.085,0c-.13-2,1.545-3.832,3.242-4.71-.733-1.711-1.878-3.923-.564-5.634C361.948,280.652,361.959,280.658,361.953,280.669Z" transform="translate(-350.816 -267.32)" fill="#263238"/>
        <path id="Trazado_23633" data-name="Trazado 23633" d="M409.06,322.461a23.867,23.867,0,0,0-.462,2.469.5.5,0,0,1,0-.091c-.034-.468-.062-.941-.135-1.4m-.045,0a7.4,7.4,0,0,0,.034,1.414,4.325,4.325,0,0,0,.079.661c-.045.376-.085.753-.113,1.14-.051.7-.237,3.718-.231,4.237,0,.114.13.125.152,0,.113-.536.429-3.638.513-4.339a38.016,38.016,0,0,0,.271-4.083c-.011-.046-.056-.04-.062-.011Z" transform="translate(-372.148 -285.277)" fill="#263238"/>
        <path id="Trazado_23634" data-name="Trazado 23634" d="M433.26,325.787V323.2c-2.915-6.489-7.477-14.478-13.793-19.422-1.489-1.14-4.646-.667-6.648.513-.716.416-3.124,4.351-3.654,7.955-.265,1.83-.919,7.9-1.359,13.543Z" transform="translate(-371.982 -276.976)" fill="#455a64"/>
        <path id="Trazado_23635" data-name="Trazado 23635" d="M420.778,321.568a4.157,4.157,0,0,1,0,1.14,3.883,3.883,0,0,1-.3,1.106,4.271,4.271,0,0,1,.3-2.247Z" transform="translate(-377.488 -284.903)" fill="#fff"/>
        <path id="Trazado_23636" data-name="Trazado 23636" d="M441.43,333.358a4.154,4.154,0,0,1,0,1.14,4.419,4.419,0,0,1-.3,1.112,4.152,4.152,0,0,1,0-1.14A3.927,3.927,0,0,1,441.43,333.358Z" transform="translate(-386.496 -289.97)" fill="#fff"/>
        <path id="Trazado_23637" data-name="Trazado 23637" d="M431.1,327.626a3.934,3.934,0,0,1-1.128,0,4.2,4.2,0,0,1-1.1-.308,4.021,4.021,0,0,1,1.128,0A4.2,4.2,0,0,1,431.1,327.626Z" transform="translate(-381.171 -287.357)" fill="#fff"/>
        <path id="Trazado_23638" data-name="Trazado 23638" d="M423.558,307.026a3.976,3.976,0,0,1-1.128,0,4.154,4.154,0,0,1-1.094-.308,3.973,3.973,0,0,1,1.128,0A4.251,4.251,0,0,1,423.558,307.026Z" transform="translate(-377.883 -278.503)" fill="#fff"/>
        <path id="Trazado_23639" data-name="Trazado 23639" d="M431.806,310.838a4.086,4.086,0,0,1,.8.827,3.915,3.915,0,0,1,.564,1,4.009,4.009,0,0,1-.795-.821A4.1,4.1,0,0,1,431.806,310.838Z" transform="translate(-382.449 -280.291)" fill="#fff"/>
        <path id="Trazado_23640" data-name="Trazado 23640" d="M449.3,335.868a4.045,4.045,0,0,1,.8.821,3.96,3.96,0,0,1,.564,1,4.386,4.386,0,0,1-1.353-1.825Z" transform="translate(-390.076 -291.049)" fill="#fdd306"/>
        <path id="Trazado_23641" data-name="Trazado 23641" d="M415.956,333.528a4.563,4.563,0,0,1,1.359,1.83A4.55,4.55,0,0,1,415.956,333.528Z" transform="translate(-375.536 -290.043)" fill="#fdd306"/>
        <path id="Trazado_23642" data-name="Trazado 23642" d="M413.2,313.748a4.043,4.043,0,0,1,.8.821,4.143,4.143,0,0,1,.564,1,4.056,4.056,0,0,1-.8-.827A4,4,0,0,1,413.2,313.748Z" transform="translate(-374.333 -281.542)" fill="#fdd306"/>
        <path id="Trazado_23643" data-name="Trazado 23643" d="M409.356,327.712a4.057,4.057,0,0,1,.812-.8,3.871,3.871,0,0,1,.992-.57,4.052,4.052,0,0,1-.818.8A4.113,4.113,0,0,1,409.356,327.712Z" transform="translate(-372.658 -286.953)" fill="#fdd306"/>
        <path id="Trazado_23644" data-name="Trazado 23644" d="M438.356,322.712a4.07,4.07,0,0,1,.818-.8,3.84,3.84,0,0,1,.987-.57,4.429,4.429,0,0,1-1.8,1.374Z" transform="translate(-385.305 -284.804)" fill="#fff"/>
        <path id="Trazado_23645" data-name="Trazado 23645" d="M429.706,338.712a4.072,4.072,0,0,1,.818-.8,3.946,3.946,0,0,1,.987-.57,4.431,4.431,0,0,1-1.8,1.374Z" transform="translate(-381.533 -291.68)" fill="#fff"/>
        <path id="Trazado_23646" data-name="Trazado 23646" d="M415.429,305.729c1.833-.086,4.032-3.587,4.59-6.073.039-.171-.626-1.659-1.342-3.507-.434-1.14-.891-2.389-1.224-3.57-.068-.24-.756.439-.756.439l-1.41.8-4.652,2.669a19.516,19.516,0,0,1,1.985,4.334,3.3,3.3,0,0,1,.09.5.243.243,0,0,0,0,.086C412.841,302.347,413.658,305.809,415.429,305.729Z" transform="translate(-373.216 -272.422)" fill="#dd6a57"/>
        <path id="Trazado_23647" data-name="Trazado 23647" d="M412.7,301.811a.242.242,0,0,0,0,.086,4.722,4.722,0,0,0,.761-.177c4.906-1.534,3.733-8.052,3.733-8.052l-1.928.644-4.652,2.669a19.516,19.516,0,0,1,1.985,4.334A3.383,3.383,0,0,1,412.7,301.811Z" transform="translate(-373.208 -272.912)" fill="#263238"/>
        <path id="Trazado_23648" data-name="Trazado 23648" d="M411.189,275.8c1.466,2.441,2.007,10.446.564,12.63-2.081,3.165-6.44,4.562-9.338,1.791-2.819-2.663-3.338-13.115-1.647-15.185C403.267,271.965,409.024,272.2,411.189,275.8Z" transform="translate(-368.492 -263.987)" fill="#dd6a57"/>
        <path id="Trazado_23649" data-name="Trazado 23649" d="M421.316,299.918h0" transform="translate(-377.874 -275.598)" fill="none"/>
        <path id="Trazado_23650" data-name="Trazado 23650" d="M409.423,289.958a.044.044,0,0,1,.045.046c0,.536.135,1.14.632,1.294v.034C409.485,291.292,409.356,290.471,409.423,289.958Z" transform="translate(-372.68 -271.317)" fill="#263238"/>
        <path id="Trazado_23651" data-name="Trazado 23651" d="M409.859,288.9c.851-.131,1.043,1.6.254,1.711S409.142,289.011,409.859,288.9Z" transform="translate(-372.681 -270.861)" fill="#263238"/>
        <path id="Trazado_23652" data-name="Trazado 23652" d="M403.319,290.478s-.039.034-.034.051c.073.536.073,1.14-.389,1.4v.029C403.482,291.807,403.477,290.974,403.319,290.478Z" transform="translate(-369.841 -271.541)" fill="#263238"/>
        <path id="Trazado_23653" data-name="Trazado 23653" d="M402.236,289.588c-.863.034-.739,1.773.062,1.745S402.958,289.565,402.236,289.588Z" transform="translate(-369.294 -271.158)" fill="#263238"/>
        <path id="Trazado_23654" data-name="Trazado 23654" d="M410.137,286.516c-.237-.034-.457-.108-.688-.165a1.12,1.12,0,0,1-.671-.3.375.375,0,0,1,0-.451.9.9,0,0,1,.9-.2,1.346,1.346,0,0,1,.823.49.4.4,0,0,1-.105.555A.391.391,0,0,1,410.137,286.516Z" transform="translate(-372.373 -269.341)" fill="#263238"/>
        <path id="Trazado_23655" data-name="Trazado 23655" d="M400.969,287.252c.231-.068.44-.171.66-.257a1.153,1.153,0,0,0,.626-.393.375.375,0,0,0-.068-.445.906.906,0,0,0-.914-.068,1.324,1.324,0,0,0-.75.6.4.4,0,0,0,.171.529A.382.382,0,0,0,400.969,287.252Z" transform="translate(-368.788 -269.615)" fill="#263238"/>
        <path id="Trazado_23656" data-name="Trazado 23656" d="M410.42,298.289c-.113.143-.22.325-.412.365a1.353,1.353,0,0,1-.564-.068s-.034,0,0,.029a.71.71,0,0,0,.7.217.57.57,0,0,0,.361-.525C410.476,298.277,410.437,298.266,410.42,298.289Z" transform="translate(-372.69 -274.893)" fill="#263238"/>
        <path id="Trazado_23657" data-name="Trazado 23657" d="M407.4,291.4a1.821,1.821,0,0,1-1.128.952,2.176,2.176,0,0,1-.643.1h-.248a.124.124,0,0,1-.118-.108h0a.194.194,0,0,1,0-.057h0v-.046c-.056-.411-.09-1.043-.09-1.043-.141.091-.863.525-.874.308a27.845,27.845,0,0,1,.085-5.61.051.051,0,1,1,.1,0c.158,1.711,0,3.466.141,5.206a3.156,3.156,0,0,1,.823-.359c.062,0,.039,1.225.079,1.408h0a2.5,2.5,0,0,0,1.8-.8C407.381,291.328,407.426,291.357,407.4,291.4Z" transform="translate(-370.407 -269.552)" fill="#263238"/>
        <path id="Trazado_23658" data-name="Trazado 23658" d="M407.136,296.4a2.178,2.178,0,0,0,.936.57.94.94,0,0,0,.564-.034c.412-.16.383-.57.265-.884a2.443,2.443,0,0,0-.248-.49A2.809,2.809,0,0,1,407.136,296.4Z" transform="translate(-371.69 -273.724)" fill="#263238"/>
        <path id="Trazado_23659" data-name="Trazado 23659" d="M408.8,297.346a.939.939,0,0,0,.564-.034c.412-.16.383-.57.265-.884A1.011,1.011,0,0,0,408.8,297.346Z" transform="translate(-372.414 -274.098)" fill="#ff99ba"/>
        <path id="Trazado_23660" data-name="Trazado 23660" d="M410.707,281.7c-1.348.177-1.833-3.142-1.833-3.142s-2.1,0-3.62-2.612c0,0-2.306,2.155-4.573,2.167-3.558,0-4.3-4.51-3.186-5.674,1.579-1.648,5.177-.371,5.177-.371s4.658-2.315,6.767.764a2.57,2.57,0,0,1,2.819,2.1C412.844,277.354,411.711,281.574,410.707,281.7Z" transform="translate(-367.276 -263.27)" fill="#263238"/>
        <path id="Trazado_23661" data-name="Trazado 23661" d="M415.711,281.68a4.609,4.609,0,0,1-2.819-.929,3.514,3.514,0,0,1-1.348-2.9.045.045,0,0,0-.09,0,4.016,4.016,0,0,0,1.156,3.193,3.188,3.188,0,0,0,3.124.736C415.773,281.766,415.773,281.68,415.711,281.68Z" transform="translate(-373.566 -266.096)" fill="#263238"/>
        <path id="Trazado_23662" data-name="Trazado 23662" d="M421.565,274.693a3.13,3.13,0,0,0-2.915-.451c-.056,0-.034.108,0,.091a2.88,2.88,0,0,1,2.819.912,3.672,3.672,0,0,1,.7,2.709,7.379,7.379,0,0,1-2.047,4.841s0,.057.028.034a7.353,7.353,0,0,0,2.323-5.314A3.679,3.679,0,0,0,421.565,274.693Z" transform="translate(-376.696 -264.497)" fill="#263238"/>
        <path id="Trazado_23663" data-name="Trazado 23663" d="M402.831,272.1a3.407,3.407,0,0,0-2.16-1.1,4.053,4.053,0,0,0-2.819.833,2.341,2.341,0,0,0-.829,2.184A4.119,4.119,0,0,0,398.4,276.4s.045,0,0-.029a4.138,4.138,0,0,1-1.128-2.2,2.155,2.155,0,0,1,.88-2.1c1.291-.9,3.383-1.192,4.568.086C402.8,272.206,402.871,272.143,402.831,272.1Z" transform="translate(-367.267 -263.162)" fill="#263238"/>
        <path id="Trazado_23664" data-name="Trazado 23664" d="M419.916,287.716s1.128-2.891,2.4-2.532.8,4.265-.4,5.064A1.354,1.354,0,0,1,420,290q-.02-.025-.037-.051Z" transform="translate(-377.263 -269.253)" fill="#dd6a57"/>
        <path id="Trazado_23665" data-name="Trazado 23665" d="M422.693,287.168s.034,0,0,.034a3.485,3.485,0,0,0-1.246,2.538.749.749,0,0,1,1.049-.462c.028,0,0,.051,0,.057a.846.846,0,0,0-.835.5,4.018,4.018,0,0,0-.259.845c-.028.091-.186.08-.175,0h0C420.939,289.455,421.469,287.579,422.693,287.168Z" transform="translate(-377.802 -270.118)" fill="#263238"/>
        <path id="Trazado_23666" data-name="Trazado 23666" d="M434.795,328.767c-1-7-3.13-15-5.2-17.643-1.731-2.212-4.6-1.431-4.545,6.672,0,3-.265,7.276-.615,10.971Z" transform="translate(-379.235 -279.956)" fill="#dd6a57"/>
        <path id="Trazado_23667" data-name="Trazado 23667" d="M424.382,312.948c.88-7.618,4.274-6.843,6.721-.45a110,110,0,0,1,3.947,13.685l-12.265.57S423.824,317.823,424.382,312.948Z" transform="translate(-378.515 -278.843)" fill="#455a64"/>
        <path id="Trazado_23668" data-name="Trazado 23668" d="M441.43,333.358a4.154,4.154,0,0,1,0,1.14,4.419,4.419,0,0,1-.3,1.112,4.152,4.152,0,0,1,0-1.14A3.927,3.927,0,0,1,441.43,333.358Z" transform="translate(-386.496 -289.97)" fill="#fdd306"/>
        <path id="Trazado_23669" data-name="Trazado 23669" d="M431.1,327.626a3.934,3.934,0,0,1-1.128,0,4.2,4.2,0,0,1-1.1-.308,4.021,4.021,0,0,1,1.128,0A4.2,4.2,0,0,1,431.1,327.626Z" transform="translate(-381.171 -287.357)" fill="#fdd306"/>
        <path id="Trazado_23670" data-name="Trazado 23670" d="M431.806,310.838a4.086,4.086,0,0,1,.8.827,3.915,3.915,0,0,1,.564,1,4.009,4.009,0,0,1-.795-.821A4.1,4.1,0,0,1,431.806,310.838Z" transform="translate(-382.449 -280.291)" fill="#fdd306"/>
        <path id="Trazado_23671" data-name="Trazado 23671" d="M438.356,322.712a4.07,4.07,0,0,1,.818-.8,3.84,3.84,0,0,1,.987-.57,4.429,4.429,0,0,1-1.8,1.374Z" transform="translate(-385.305 -284.804)" fill="#fff"/>
        <path id="Trazado_23672" data-name="Trazado 23672" d="M429.706,338.712a4.072,4.072,0,0,1,.818-.8,3.946,3.946,0,0,1,.987-.57,4.431,4.431,0,0,1-1.8,1.374Z" transform="translate(-381.533 -291.68)" fill="#fff"/>
        <path id="Trazado_23673" data-name="Trazado 23673" d="M423.856,321.216c-.13,1-.288,2-.44,3-.056-.433-.13-.855-.226-1.283h-.028c.045.342.073.685.124,1.026l.068.5v.1c-.118.781-.231,1.557-.327,2.344-.118.929-.209,1.865-.3,2.8s-.107,2.041-.237,3.005a6.3,6.3,0,0,0,1.2-.046c.113,0,.124-.12,0-.1s-1.049-.029-1.066-.034c.1-.935.288-1.87.406-2.805s.248-1.865.35-2.8c.2-1.9.3-3.809.5-5.7C423.9,321.193,423.856,321.193,423.856,321.216Z" transform="translate(-378.384 -284.744)" fill="#263238"/>
        <path id="Trazado_23674" data-name="Trazado 23674" d="M439.932,321.376a11.228,11.228,0,0,0,.039,1.14,1.787,1.787,0,0,0,.039.456q-.53-1.779-1.071-3.547h0c.485,1.973.964,3.94,1.483,5.9A57.754,57.754,0,0,0,442,330.9a6.969,6.969,0,0,0-1.077.194,4.909,4.909,0,0,0,1.263-.063q-.625-2.988-1.545-5.9c-.152-.536-.31-1.066-.468-1.6-.045-.348-.062-.7-.085-1.049s-.079-.741-.124-1.112C439.972,321.353,439.932,321.353,439.932,321.376Z" transform="translate(-385.455 -283.644)" fill="#263238"/>
        <path id="Trazado_23675" data-name="Trazado 23675" d="M434.459,337.566c-1.759-.029-8.977.131-10.533.268-.113,0-.13.08,0,.086a95.662,95.662,0,0,0,10.55-.285C434.5,337.628,434.5,337.566,434.459,337.566Z" transform="translate(-378.972 -291.777)" fill="#263238"/>
      </g>
      <path id="Trazado_23676" data-name="Trazado 23676" d="M435.759,268.964a6.964,6.964,0,0,1-1.173-3.82c0-4.847,5.261-8.776,11.746-8.776s11.74,3.929,11.74,8.77-5.255,8.77-11.746,8.77a13.979,13.979,0,0,1-8.1-2.423l-4.037,1.066Z" transform="translate(-383.487 -256.368)" fill="#c93b3b"/>
      <path id="Trazado_23677" data-name="Trazado 23677" d="M463.216,270.82a1.218,1.218,0,1,0,1.218-1.232,1.225,1.225,0,0,0-1.218,1.232Z" transform="translate(-396.147 -262.05)" fill="#fff"/>
      <path id="Trazado_23678" data-name="Trazado 23678" d="M453.546,270.82a1.218,1.218,0,1,0,1.218-1.232,1.225,1.225,0,0,0-1.218,1.232Z" transform="translate(-391.93 -262.05)" fill="#fff"/>
      <path id="Trazado_23679" data-name="Trazado 23679" d="M443.916,270.82a1.218,1.218,0,1,0,1.218-1.232,1.225,1.225,0,0,0-1.218,1.232Z" transform="translate(-387.73 -262.05)" fill="#fff"/>
    </g>
    <g id="freepik--background-complete--inject-11" transform="translate(0 0)">
      <path id="Trazado_23680" data-name="Trazado 23680" d="M38.514,278.3H57.79s-1.7-3.139-6.667-2.68c-4.737.441-4.977-1.545-7.387-1.788S39.318,275.454,38.514,278.3Z" transform="translate(-38.514 -168.201)" fill="#e6ebf0"/>
      <path id="Trazado_23681" data-name="Trazado 23681" d="M387.448,216.018c-3.584-5.135-2.432-11.814-.231-17.4a6.776,6.776,0,0,1,1.358-2.649,1.975,1.975,0,0,1,2.668-.15,4.165,4.165,0,0,1,.733,2.317,5.9,5.9,0,0,0,1.437,2.91,2.229,2.229,0,0,0,1.851.883c.965-.159,1.458-1.245,1.79-2.207l1.834-5.254a9.393,9.393,0,0,1,1.27-2.684,3.046,3.046,0,0,1,2.51-1.325,1.888,1.888,0,0,1,1.746,1.974,9.029,9.029,0,0,1-.389,1.175,1.06,1.06,0,0,0,.24,1.139,1.186,1.186,0,0,0,1.17-.062,13.011,13.011,0,0,0,3.419-2.574,18.183,18.183,0,0,1,3.309-2.733,5.251,5.251,0,0,1,4.083-.689,3.237,3.237,0,0,1,2.34,3.192c-.135,1.426-1.375,2.508-2.585,3.276a21.851,21.851,0,0,1-5.8,2.636,1.839,1.839,0,0,0-1,.521c-.436.552-.061,1.386.476,1.814a11.458,11.458,0,0,0,2.078,1.038,2.239,2.239,0,0,1,1.388,1.766c.035,1.095-1.114,1.81-2.131,2.185a18.744,18.744,0,0,1-6.339,1.152,6.247,6.247,0,0,0-2.292.247,1.838,1.838,0,0,0-1.257,1.766,1.865,1.865,0,0,0,1.637,1.43,13.624,13.624,0,0,0,2.318-.044,3.478,3.478,0,0,1,3.493,2.075,3.184,3.184,0,0,1-.624,2.742,7.109,7.109,0,0,1-2.231,1.8,18.771,18.771,0,0,1-9.54,2.649,12.991,12.991,0,0,1-8.732-2.914" transform="translate(-189.687 -131.548)" fill="#e6ebf0"/>
      <path id="Trazado_23682" data-name="Trazado 23682" d="M390.565,217.9c1-2.163.091-1.126,1.934-3.673a88.733,88.733,0,0,1,6.518-7.846l1.816-1.964c.6-.644,1.188-1.285,1.8-1.872a43.579,43.579,0,0,1,3.741-3.178c1.236-.954,2.445-1.815,3.58-2.609s2.213-1.51,3.218-2.124a34.985,34.985,0,0,1,4.96-2.53c.607-.251,1.083-.441,1.406-.547l.371-.128a.473.473,0,0,1,.126-.04.525.525,0,0,1-.118.058l-.367.145c-.319.128-.791.318-1.393.578a36.765,36.765,0,0,0-4.894,2.578c-1,.618-2.065,1.325-3.2,2.137s-2.336,1.66-3.567,2.614a44.956,44.956,0,0,0-3.715,3.174c-.611.587-1.2,1.223-1.794,1.867l-1.821,1.991a90.853,90.853,0,0,0-6.522,7.819c-1.842,2.534-.939,1.479-1.952,3.629" transform="translate(-192.048 -132.781)" fill="#d1d8e0"/>
      <path id="Trazado_23683" data-name="Trazado 23683" d="M412.1,202.814a2.078,2.078,0,0,1,.052-.441c.043-.278.118-.675.222-1.166.2-.98.524-2.327.873-3.81s.668-2.83.873-3.81c.092-.49.166-.883.214-1.166a2.191,2.191,0,0,1,.091-.442,1.931,1.931,0,0,1,0,.442c-.026.278-.078.684-.157,1.179-.157.989-.437,2.349-.8,3.832s-.69,2.782-.943,3.793l-.275,1.152A1.769,1.769,0,0,1,412.1,202.814Z" transform="translate(-201.439 -133.033)" fill="#d1d8e0"/>
      <path id="Trazado_23684" data-name="Trazado 23684" d="M424.854,213.067a3.2,3.2,0,0,1-.5-.119c-.314-.084-.768-.208-1.34-.34-1.131-.278-2.711-.609-4.471-.883s-3.366-.468-4.532-.57c-.58-.058-1.052-.088-1.379-.115a2.6,2.6,0,0,1-.506-.053,2.733,2.733,0,0,1,.511,0c.327,0,.8,0,1.388.053,1.17.071,2.781.238,4.545.521a43.851,43.851,0,0,1,4.479.949c.563.15,1.017.3,1.31.4A2.408,2.408,0,0,1,424.854,213.067Z" transform="translate(-201.452 -141.197)" fill="#d1d8e0"/>
      <path id="Trazado_23685" data-name="Trazado 23685" d="M394.039,217.9a1.039,1.039,0,0,1-.03-.177c0-.137-.026-.3-.048-.508-.04-.442-.079-1.091-.122-1.885-.083-1.59-.127-3.793-.148-6.221s-.044-4.627-.1-6.221c-.026-.773-.048-1.408-.061-1.881v-.512a.576.576,0,0,1,0-.181.783.783,0,0,1,.03.177c0,.137.026.3.048.512.039.441.079,1.086.122,1.881.083,1.59.131,3.793.148,6.221s.044,4.631.1,6.221c.026.773.048,1.408.061,1.881v.517A.544.544,0,0,1,394.039,217.9Z" transform="translate(-193.339 -136.614)" fill="#d1d8e0"/>
      <path id="Trazado_23686" data-name="Trazado 23686" d="M412.107,231.758a.617.617,0,0,1-.183,0h-.515l-1.9-.062c-1.6-.048-3.811-.1-6.252-.146s-4.658-.115-6.256-.2c-.8-.044-1.445-.084-1.89-.124l-.515-.044a.547.547,0,0,1-.179-.031.893.893,0,0,1,.183,0h.515l1.9.062c1.6.053,3.807.1,6.252.145s4.654.115,6.256.2c.8.04,1.445.084,1.89.119l.515.049A.633.633,0,0,1,412.107,231.758Z" transform="translate(-193.73 -149.867)" fill="#d1d8e0"/>
      <path id="Trazado_23687" data-name="Trazado 23687" d="M338.772,237.021a.808.808,0,0,0,1.109.3.817.817,0,0,0,.328-.356l1.991-4.181a6.7,6.7,0,0,0,.694-2.565c0-2.53-2.589-4.155-5.278-2.936a2.972,2.972,0,0,0-1.31,1.1,4.46,4.46,0,0,0,.039,4.415Zm1.651-4.614c-1.952,1.134-3.929-.993-2.837-3.091a1.645,1.645,0,0,1,.624-.662c1.952-1.135,3.929.993,2.838,3.09a1.62,1.62,0,0,1-.624.663Z" transform="translate(-164.332 -155.723)" fill="#e6ebf0"/>
      <path id="Trazado_23688" data-name="Trazado 23688" d="M209.111,155.156H233.63s-2.183-3.974-8.479-3.413c-6.03.556-6.335-1.96-9.4-2.269S210.132,151.54,209.111,155.156Z" transform="translate(-112.914 -114.754)" fill="#e6ebf0"/>
      <path id="Trazado_23689" data-name="Trazado 23689" d="M201.214,379.427h24.519s-2.183-3.974-8.479-3.409c-6.029.557-6.335-1.96-9.4-2.269S202.236,375.816,201.214,379.427Z" transform="translate(-109.47 -211.143)" fill="#e6ebf0"/>
      <path id="Trazado_23690" data-name="Trazado 23690" d="M340.155,367.124h23.139s-2.047-3.766-8.007-3.218c-5.676.526-5.982-1.85-8.876-2.146S341.111,363.72,340.155,367.124Z" transform="translate(-170.064 -205.99)" fill="#e6ebf0"/>
      <path id="Trazado_23691" data-name="Trazado 23691" d="M188.444,100.706a3.575,3.575,0,0,1-.1-.746,6.371,6.371,0,0,0-.118-.883,8.606,8.606,0,0,0-.258-1.2,11.6,11.6,0,0,0-15.036-8.026,10.585,10.585,0,0,0-2.881,1.558,12.716,12.716,0,0,0-1.31,1.1,13.121,13.121,0,0,0-1.118,1.325,11.548,11.548,0,0,0-.065,13.58,13,13,0,0,0,1.1,1.325,13.272,13.272,0,0,0,1.283,1.117,10.628,10.628,0,0,0,2.868,1.589,11.334,11.334,0,0,0,10.836-1.545,11.7,11.7,0,0,0,2.96-3.254,11.549,11.549,0,0,0,1.31-3.091,8.973,8.973,0,0,0,.271-1.205,6.541,6.541,0,0,0,.122-.883,3.541,3.541,0,0,1,.1-.75,3.35,3.35,0,0,1,.026.759,5.7,5.7,0,0,1-.065.914,8.724,8.724,0,0,1-.218,1.241,11.034,11.034,0,0,1-1.266,3.2,11.72,11.72,0,0,1-14.263,5.2,11.362,11.362,0,0,1-3.03-1.651,11.024,11.024,0,0,1-2.528-2.583,12.139,12.139,0,0,1,.066-14.335,13.942,13.942,0,0,1,1.188-1.4A13.594,13.594,0,0,1,169.7,90.9a11.232,11.232,0,0,1,3.056-1.62,11.81,11.81,0,0,1,14.232,5.342,11.187,11.187,0,0,1,1.24,3.214,7.885,7.885,0,0,1,.2,1.24,4.773,4.773,0,0,1,.057.919A3.153,3.153,0,0,1,188.444,100.706Z" transform="translate(-93.575 -88.605)" fill="#e6ebf0"/>
      <path id="Trazado_23692" data-name="Trazado 23692" d="M188.178,96.9c.026.035-.179.225-.581.538l-.742.561c-.148.105-.3.225-.471.34l-.567.313a13.089,13.089,0,0,1-6.833,1.886l-1.039-.027-1-.141-.485-.071-.476-.123c-.31-.084-.615-.151-.9-.238a15.005,15.005,0,0,1-2.938-1.3,6.543,6.543,0,0,1-2.305-1.837c.057-.07.925.636,2.519,1.435a17.327,17.327,0,0,0,2.891,1.126c.279.079.572.132.873.208l.437.1.467.062.956.124h.991a14.055,14.055,0,0,0,6.619-1.611l.576-.265c.179-.1.336-.2.489-.291l.79-.442C187.894,96.982,188.152,96.863,188.178,96.9Z" transform="translate(-95.784 -92.125)" fill="#e6ebf0"/>
      <path id="Trazado_23693" data-name="Trazado 23693" d="M169.729,120.054c-.026-.04.183-.225.58-.543l.743-.557c.148-.106.3-.225.471-.34l.567-.318a13.131,13.131,0,0,1,6.833-1.881l1.039.027,1,.137c.166.026.328.044.484.075l.472.115c.306.079.611.145.9.234a14.987,14.987,0,0,1,2.938,1.315,6.462,6.462,0,0,1,2.305,1.841c-.056.075-.925-.64-2.519-1.435a17.377,17.377,0,0,0-2.89-1.13c-.279-.075-.572-.132-.873-.2l-.436-.1-.467-.062-.956-.124h-.991a14.075,14.075,0,0,0-6.614,1.642l-.576.265c-.175.1-.336.2-.489.291l-.786.441A2.494,2.494,0,0,1,169.729,120.054Z" transform="translate(-95.738 -100.558)" fill="#e6ebf0"/>
      <path id="Trazado_23694" data-name="Trazado 23694" d="M188.694,110.017c0,.181-5.239.3-11.679.27s-11.679-.2-11.674-.38,5.239-.3,11.679-.27S188.694,109.841,188.694,110.017Z" transform="translate(-93.825 -97.642)" fill="#e6ebf0"/>
      <path id="Trazado_23695" data-name="Trazado 23695" d="M185.277,112.634c-.179,0-.3-5.3-.267-11.805s.2-11.806.38-11.806.293,5.3.262,11.806S185.456,112.634,185.277,112.634Z" transform="translate(-102.401 -88.785)" fill="#e6ebf0"/>
      <path id="Trazado_23696" data-name="Trazado 23696" d="M180.82,112.617a9.36,9.36,0,0,1-2.868-2.755,15.855,15.855,0,0,1-2.161-3.793,14.3,14.3,0,0,1-1-5.263,13.652,13.652,0,0,1,1.079-5.258,16.412,16.412,0,0,1,2.2-3.757,10.014,10.014,0,0,1,2.864-2.764c.048.066-1.092,1.064-2.5,3.038a17.574,17.574,0,0,0-2.025,3.708,13.687,13.687,0,0,0-.982,5.033,14.478,14.478,0,0,0,.912,5.055,16.916,16.916,0,0,0,1.978,3.735C179.706,111.576,180.886,112.542,180.82,112.617Z" transform="translate(-97.944 -88.786)" fill="#e6ebf0"/>
      <path id="Trazado_23697" data-name="Trazado 23697" d="M186.068,89.02a9.352,9.352,0,0,1,2.873,2.751,16.019,16.019,0,0,1,2.157,3.793,14.393,14.393,0,0,1,1.008,5.271,13.713,13.713,0,0,1-1.087,5.267,16.566,16.566,0,0,1-2.209,3.762,10.029,10.029,0,0,1-2.86,2.759c-.043-.067,1.092-1.06,2.5-3.038a17.814,17.814,0,0,0,2.022-3.709,13.746,13.746,0,0,0,.986-5.033,14.577,14.577,0,0,0-.917-5.056,17.233,17.233,0,0,0-1.973-3.735C187.177,90.058,186,89.091,186.068,89.02Z" transform="translate(-102.812 -88.782)" fill="#e6ebf0"/>
    </g>
    <g id="Grupo_17804" data-name="Grupo 17804" transform="translate(130.906 147.116)">
      <path id="Trazado_23698" data-name="Trazado 23698" d="M305.445,371.693a6.385,6.385,0,0,1-2.16-5.987,8.445,8.445,0,0,1,3.586-5.406,3.532,3.532,0,0,1,2.865-.758,2.718,2.718,0,0,1,1.737,2.121,5.552,5.552,0,0,1-.327,2.851c-1.071,3.125-2.673,5.953-5.7,7.2" transform="translate(-284.848 -352.126)" fill="#e6ebf0"/>
      <path id="Trazado_23699" data-name="Trazado 23699" d="M290.032,387.431a14.544,14.544,0,0,0-12.969-3.421c-1.128.268-2.453.884-2.639,2.064s.851,2.19,1.878,2.794a12.439,12.439,0,0,0,13.877-1.141" transform="translate(-272.294 -362.527)" fill="#e6ebf0"/>
      <path id="Trazado_23700" data-name="Trazado 23700" d="M271.875,346.794a7.3,7.3,0,0,1,5.639.992,13,13,0,0,1,4.06,4.288c2.041,3.262,2.763,7.652,2.853,11.513-4.24-.171-7.861-3.541-9.586-5.371-2.74-2.885-5.955-9.779-3-11.4" transform="translate(-270.664 -346.603)" fill="#e6ebf0"/>
      <path id="Trazado_23701" data-name="Trazado 23701" d="M310.625,386.678a15.859,15.859,0,0,1-1.06-1.619,27.37,27.37,0,0,1-2.385-6.883,13.757,13.757,0,0,1,.53-7.259,8.938,8.938,0,0,1,1.021-1.967,2.705,2.705,0,0,1,.524-.622,19.073,19.073,0,0,0-1.263,2.691,14.516,14.516,0,0,0-.395,7.082,31.922,31.922,0,0,0,2.256,6.843" transform="translate(-286.475 -355.94)" fill="#d1d8e0"/>
      <path id="Trazado_23702" data-name="Trazado 23702" d="M298.031,381.31l-2.21-2.88c-1.855-2.435-4.432-5.793-7.331-9.466s-5.554-6.957-7.483-9.329l-2.255-2.851a7.684,7.684,0,0,1-.8-1.066,8.488,8.488,0,0,1,.925.958c.564.639,1.393,1.568,2.391,2.731,1.99,2.327,4.691,5.588,7.59,9.26s5.43,7.065,7.229,9.551c.9,1.243,1.618,2.281,2.1,2.959" transform="translate(-273.842 -350.521)" fill="#d1d8e0"/>
      <path id="Trazado_23703" data-name="Trazado 23703" d="M283.811,388.285a2.357,2.357,0,0,1,.733-.228,5.586,5.586,0,0,1,.885-.171,10.689,10.689,0,0,1,1.19-.131,15.329,15.329,0,0,1,3.118.12,17.662,17.662,0,0,1,3.693.975,18.028,18.028,0,0,1,3.383,1.808,15.531,15.531,0,0,1,2.374,2.041,10.719,10.719,0,0,1,.8.907,7.038,7.038,0,0,1,.564.73c.276.416.237.61.214.627A25.32,25.32,0,0,0,299,392.915a17.426,17.426,0,0,0-2.38-1.927,17.817,17.817,0,0,0-6.913-2.7,16.5,16.5,0,0,0-3.045-.205C284.882,388.1,283.811,388.365,283.811,388.285Z" transform="translate(-276.397 -364.276)" fill="#d1d8e0"/>
    </g>
  </g>
</svg>
