<svg xmlns="http://www.w3.org/2000/svg" width="712" height="262" viewBox="0 0 712 262">
  <g id="Grupo_18078" data-name="Grupo 18078" transform="translate(-513 -718)">
    <path id="Trazado_20235" data-name="Trazado 20235" d="M4,0H708c2.209,0,4,.929,4,2.075v257.85c0,1.146-1.791,2.075-4,2.075H4c-2.209,0-4-.929-4-2.075V2.075C0,.929,1.791,0,4,0Z" transform="translate(513 718)" fill="#f3f6f9"/>
    <g id="Grupo_17672" data-name="Grupo 17672" transform="translate(1039 891.787) rotate(-90)">
      <line id="Línea_114" data-name="Línea 114" x2="45.787" transform="translate(0 3.034)" fill="none" stroke="#38485c" stroke-linecap="round" stroke-width="1"/>
      <path id="Trazado_4671" data-name="Trazado 4671" d="M0,0V3.033" transform="translate(45.787 3.034) rotate(180)" fill="none" stroke="#38485c" stroke-linecap="round" stroke-width="1"/>
      <path id="Trazado_20265" data-name="Trazado 20265" d="M0,0V3.033" transform="translate(-0.213 3.033) rotate(180)" fill="none" stroke="#38485c" stroke-linecap="round" stroke-width="1"/>
    </g>
    <g id="Grupo_18084" data-name="Grupo 18084" transform="translate(1039 832) rotate(-90)">
      <line id="Línea_114-2" data-name="Línea 114" x2="50" transform="translate(0 3.034)" fill="none" stroke="#38485c" stroke-linecap="round" stroke-width="1"/>
      <path id="Trazado_4671-2" data-name="Trazado 4671" d="M0,0V3.033" transform="translate(50 3.034) rotate(180)" fill="none" stroke="#38485c" stroke-linecap="round" stroke-width="1"/>
      <path id="Trazado_20265-2" data-name="Trazado 20265" d="M0,0V3.033" transform="translate(-0.213 3.033) rotate(180)" fill="none" stroke="#38485c" stroke-linecap="round" stroke-width="1"/>
    </g>
    <g id="Grupo_18086" data-name="Grupo 18086" transform="translate(659.034 795.5) rotate(90)">
      <line id="Línea_114-3" data-name="Línea 114" x2="22.787" transform="translate(0 3.034)" fill="none" stroke="#38485c" stroke-linecap="round" stroke-width="1"/>
      <path id="Trazado_4671-3" data-name="Trazado 4671" d="M0,0V3.033" transform="translate(22.787 3.034) rotate(180)" fill="none" stroke="#38485c" stroke-linecap="round" stroke-width="1"/>
      <path id="Trazado_20265-3" data-name="Trazado 20265" d="M0,0V3.033" transform="translate(-0.213 3.033) rotate(180)" fill="none" stroke="#38485c" stroke-linecap="round" stroke-width="1"/>
    </g>
    <g id="Grupo_18083" data-name="Grupo 18083" transform="translate(186 60)">
      <g id="Rectángulo_8930" data-name="Rectángulo 8930" transform="translate(493 722)" fill="#fff" stroke="rgba(209,216,224,0.5)" stroke-width="2">
        <rect width="340" height="134" rx="4" stroke="none"/>
        <rect x="1" y="1" width="338" height="132" rx="3" fill="none"/>
      </g>
      <path id="Rectángulo_8931" data-name="Rectángulo 8931" d="M4,0H336a4,4,0,0,1,4,4V48a0,0,0,0,1,0,0H0a0,0,0,0,1,0,0V4A4,4,0,0,1,4,0Z" transform="translate(493 722)" fill="#d1d8e0" opacity="0.5"/>
      <path id="Trazado_20269" data-name="Trazado 20269" d="M6.135,19h-2.1V7.952H.255V6.15H9.914v1.8H6.135Zm7.594,0H11.663V9.279h2.065ZM11.558,8.093v-.22q.5-.615,1.033-1.371T13.43,5.21h2.4v.185a18.048,18.048,0,0,1-1.367,1.384,19.27,19.27,0,0,1-1.534,1.314ZM20.3,17.506a5.023,5.023,0,0,0,1.512-.237v1.556a4.169,4.169,0,0,1-.883.25,6.086,6.086,0,0,1-1.121.1q-2.936,0-2.936-3.094V10.844H15.548V9.93l1.424-.756.7-2.057h1.274V9.279h2.769v1.564H18.949v5.2a1.46,1.46,0,0,0,.374,1.1A1.362,1.362,0,0,0,20.3,17.506ZM30.612,19l-.29-1.274h-.105a2.931,2.931,0,0,1-1.226,1.063,4.1,4.1,0,0,1-1.815.387,3.563,3.563,0,0,1-2.637-.879,3.643,3.643,0,0,1-.87-2.663V9.279h2.083v5.994a2.6,2.6,0,0,0,.457,1.674,1.745,1.745,0,0,0,1.433.558,2.281,2.281,0,0,0,1.912-.778,4.286,4.286,0,0,0,.611-2.606V9.279h2.074V19Zm6.636,0H35.183V5.324h2.065Zm11.575-4.878A5.306,5.306,0,0,1,47.6,17.84a4.377,4.377,0,0,1-3.4,1.336,4.66,4.66,0,0,1-2.408-.615,4.062,4.062,0,0,1-1.608-1.767,6.017,6.017,0,0,1-.562-2.672,5.27,5.27,0,0,1,1.213-3.691A4.4,4.4,0,0,1,44.253,9.1a4.282,4.282,0,0,1,3.34,1.358A5.245,5.245,0,0,1,48.823,14.122Zm-7.075,0q0,3.366,2.487,3.366,2.461,0,2.461-3.366,0-3.331-2.479-3.331a2.113,2.113,0,0,0-1.885.861A4.383,4.383,0,0,0,41.748,14.122Z" transform="translate(517 734)" fill="#9eaab8"/>
      <path id="Unión_4" data-name="Unión 4" d="M16,0V4H0V0Z" transform="translate(792 744)" fill="#9eaab8"/>
    </g>
    <path id="Trazado_20266" data-name="Trazado 20266" d="M11.44-1.232a.985.985,0,0,1,.1.416.8.8,0,0,1-.3.624,1.009,1.009,0,0,1-.68.256.909.909,0,0,1-.48-.136A.907.907,0,0,1,9.728-.5L8.768-2.64H3.136L2.176-.5a.907.907,0,0,1-.352.424.937.937,0,0,1-.5.136A1.019,1.019,0,0,1,.656-.192a.787.787,0,0,1-.3-.624.985.985,0,0,1,.1-.416L4.864-10.72a1.032,1.032,0,0,1,.44-.488,1.26,1.26,0,0,1,.632-.168,1.26,1.26,0,0,1,.632.168,1.032,1.032,0,0,1,.44.488ZM3.84-4.24H8.064L5.952-8.992Zm2.352-7.984a.568.568,0,0,1-.256.064.494.494,0,0,1-.352-.136.418.418,0,0,1-.144-.312.507.507,0,0,1,.176-.352l1.456-1.5a.928.928,0,0,1,.688-.32.754.754,0,0,1,.552.232.736.736,0,0,1,.232.536.682.682,0,0,1-.136.4A1.141,1.141,0,0,1,8-13.28Zm11.072,4.24a.861.861,0,0,1,.656.176.781.781,0,0,1,.24.624.872.872,0,0,1-.208.64,1.278,1.278,0,0,1-.752.272l-.48.048a1.944,1.944,0,0,0-1.384.64,2.093,2.093,0,0,0-.44,1.36v3.36a.888.888,0,0,1-.288.712,1.064,1.064,0,0,1-.72.248,1.034,1.034,0,0,1-.712-.248.9.9,0,0,1-.28-.712V-7.056a.856.856,0,0,1,.28-.688,1.032,1.032,0,0,1,.7-.24.962.962,0,0,1,.672.232.85.85,0,0,1,.256.664v.64a2.368,2.368,0,0,1,.9-1.088,2.771,2.771,0,0,1,1.336-.432Zm7.776,5.84a.538.538,0,0,1,.44.208.865.865,0,0,1,.168.56.97.97,0,0,1-.592.832,5.349,5.349,0,0,1-1.232.488,5.079,5.079,0,0,1-1.312.184A4.077,4.077,0,0,1,19.52-.96a3.988,3.988,0,0,1-1.1-2.976,4.566,4.566,0,0,1,.48-2.128A3.49,3.49,0,0,1,20.248-7.5a3.829,3.829,0,0,1,1.976-.512,3.546,3.546,0,0,1,1.84.464A3.146,3.146,0,0,1,25.28-6.24a4.353,4.353,0,0,1,.432,2q0,.688-.608.688h-4.72a2.517,2.517,0,0,0,.624,1.624,2.1,2.1,0,0,0,1.536.52,2.913,2.913,0,0,0,.9-.128,8.923,8.923,0,0,0,.888-.352A1.766,1.766,0,0,1,25.04-2.144ZM22.272-6.608a1.717,1.717,0,0,0-1.3.512,2.417,2.417,0,0,0-.584,1.472H24a2.281,2.281,0,0,0-.48-1.48A1.583,1.583,0,0,0,22.272-6.608ZM30.72-8.016a3.259,3.259,0,0,1,2.424.808,3.383,3.383,0,0,1,.792,2.456v3.9a.9.9,0,0,1-.256.68.969.969,0,0,1-.7.248.936.936,0,0,1-.68-.256.894.894,0,0,1-.264-.672V-1.2a2.088,2.088,0,0,1-.856.976,2.568,2.568,0,0,1-1.352.352A3.139,3.139,0,0,1,28.4-.192a2.533,2.533,0,0,1-1.008-.88,2.224,2.224,0,0,1-.368-1.248,1.977,1.977,0,0,1,.44-1.36A2.644,2.644,0,0,1,28.9-4.4a13.041,13.041,0,0,1,2.736-.224h.4v-.368A1.638,1.638,0,0,0,31.7-6.136a1.43,1.43,0,0,0-1.088-.36,3.452,3.452,0,0,0-.944.136q-.48.136-1.136.392a1.6,1.6,0,0,1-.608.208.6.6,0,0,1-.472-.208.791.791,0,0,1-.184-.544.819.819,0,0,1,.136-.472,1.291,1.291,0,0,1,.456-.376,5.215,5.215,0,0,1,1.336-.48A6.893,6.893,0,0,1,30.72-8.016Zm-.5,6.7a1.709,1.709,0,0,0,1.3-.536,1.939,1.939,0,0,0,.5-1.384v-.336h-.288a11.038,11.038,0,0,0-1.664.1,1.616,1.616,0,0,0-.848.336.856.856,0,0,0-.256.656,1.085,1.085,0,0,0,.36.84A1.27,1.27,0,0,0,30.224-1.312ZM46.8-11.36a1.066,1.066,0,0,1,.736.256.856.856,0,0,1,.288.672V-.864a.9.9,0,0,1-.272.688,1.008,1.008,0,0,1-.72.256,1.008,1.008,0,0,1-.72-.256.9.9,0,0,1-.272-.688v-.4A2.5,2.5,0,0,1,44.824-.24a3.066,3.066,0,0,1-1.512.368,3.243,3.243,0,0,1-1.8-.512A3.4,3.4,0,0,1,40.28-1.832a5,5,0,0,1-.44-2.152,4.845,4.845,0,0,1,.44-2.128A3.333,3.333,0,0,1,41.5-7.52a3.309,3.309,0,0,1,1.808-.5,3.131,3.131,0,0,1,1.5.352,2.442,2.442,0,0,1,1.008.992v-3.792a.848.848,0,0,1,.264-.648A1,1,0,0,1,46.8-11.36ZM43.84-1.424a1.779,1.779,0,0,0,1.48-.656,2.952,2.952,0,0,0,.52-1.872,2.917,2.917,0,0,0-.52-1.864,1.77,1.77,0,0,0-1.464-.648,1.821,1.821,0,0,0-1.488.64,2.823,2.823,0,0,0-.528,1.84A2.989,2.989,0,0,0,42.368-2.1,1.766,1.766,0,0,0,43.84-1.424Zm12.224-.72a.538.538,0,0,1,.44.208.865.865,0,0,1,.168.56.97.97,0,0,1-.592.832,5.349,5.349,0,0,1-1.232.488,5.079,5.079,0,0,1-1.312.184A4.077,4.077,0,0,1,50.544-.96a3.988,3.988,0,0,1-1.1-2.976,4.566,4.566,0,0,1,.48-2.128A3.49,3.49,0,0,1,51.272-7.5a3.829,3.829,0,0,1,1.976-.512,3.546,3.546,0,0,1,1.84.464A3.146,3.146,0,0,1,56.3-6.24a4.354,4.354,0,0,1,.432,2q0,.688-.608.688h-4.72a2.517,2.517,0,0,0,.624,1.624,2.1,2.1,0,0,0,1.536.52,2.913,2.913,0,0,0,.9-.128,8.923,8.923,0,0,0,.888-.352A1.766,1.766,0,0,1,56.064-2.144ZM53.3-6.608a1.717,1.717,0,0,0-1.3.512,2.417,2.417,0,0,0-.584,1.472h3.616a2.281,2.281,0,0,0-.48-1.48A1.583,1.583,0,0,0,53.3-6.608Zm13.44,5.216q.8.048.8.72a.651.651,0,0,1-.312.584,1.489,1.489,0,0,1-.888.168L65.9.048a2.574,2.574,0,0,1-2.688-2.88V-6.32h-.8a1.016,1.016,0,0,1-.664-.192.685.685,0,0,1-.232-.56.685.685,0,0,1,.232-.56,1.016,1.016,0,0,1,.664-.192h.8V-9.3a.9.9,0,0,1,.272-.688,1.03,1.03,0,0,1,.736-.256,1.008,1.008,0,0,1,.72.256.9.9,0,0,1,.272.688v1.472h1.36a1.016,1.016,0,0,1,.664.192.685.685,0,0,1,.232.56.685.685,0,0,1-.232.56,1.016,1.016,0,0,1-.664.192h-1.36v3.632q0,1.184,1.088,1.264ZM69.552.1a1.034,1.034,0,0,1-.712-.248.9.9,0,0,1-.28-.712V-7.04a.876.876,0,0,1,.28-.7,1.055,1.055,0,0,1,.712-.24,1.087,1.087,0,0,1,.72.24.864.864,0,0,1,.288.7V-.864a.888.888,0,0,1-.288.712A1.064,1.064,0,0,1,69.552.1Zm.4-8.992a.6.6,0,0,1-.352.128.511.511,0,0,1-.376-.152.492.492,0,0,1-.152-.36.6.6,0,0,1,.128-.352L70.752-11.7a1.059,1.059,0,0,1,.848-.48.817.817,0,0,1,.6.248.8.8,0,0,1,.248.584.936.936,0,0,1-.432.768Zm7.056,7.5q.8.048.8.72a.651.651,0,0,1-.312.584,1.489,1.489,0,0,1-.888.168L76.176.048a2.574,2.574,0,0,1-2.688-2.88V-6.32h-.8a1.016,1.016,0,0,1-.664-.192.685.685,0,0,1-.232-.56.685.685,0,0,1,.232-.56,1.016,1.016,0,0,1,.664-.192h.8V-9.3a.9.9,0,0,1,.272-.688,1.03,1.03,0,0,1,.736-.256,1.008,1.008,0,0,1,.72.256.9.9,0,0,1,.272.688v1.472h1.36a1.016,1.016,0,0,1,.664.192.685.685,0,0,1,.232.56.685.685,0,0,1-.232.56,1.016,1.016,0,0,1-.664.192h-1.36v3.632q0,1.184,1.088,1.264Zm8-6.592a1.03,1.03,0,0,1,.736.256.9.9,0,0,1,.272.688V-.832a.868.868,0,0,1-.28.672A1.037,1.037,0,0,1,85.008.1a.965.965,0,0,1-.688-.24A.856.856,0,0,1,84.064-.8v-.4a2.549,2.549,0,0,1-.992.984,2.867,2.867,0,0,1-1.408.344q-2.88,0-2.88-3.232V-7.04a.9.9,0,0,1,.272-.688,1.008,1.008,0,0,1,.72-.256,1.03,1.03,0,0,1,.736.256.9.9,0,0,1,.272.688v3.952a1.888,1.888,0,0,0,.336,1.232,1.3,1.3,0,0,0,1.056.4,1.722,1.722,0,0,0,1.336-.552,2.087,2.087,0,0,0,.5-1.464V-7.04a.9.9,0,0,1,.272-.688A1.008,1.008,0,0,1,85.008-7.984ZM89.072.1a1.034,1.034,0,0,1-.712-.248.9.9,0,0,1-.28-.712v-9.552a.876.876,0,0,1,.28-.7,1.055,1.055,0,0,1,.712-.24,1.087,1.087,0,0,1,.72.24.864.864,0,0,1,.288.7V-.864a.888.888,0,0,1-.288.712A1.064,1.064,0,0,1,89.072.1ZM95.7.128a4.3,4.3,0,0,1-2.1-.5,3.432,3.432,0,0,1-1.4-1.424,4.515,4.515,0,0,1-.5-2.16,4.468,4.468,0,0,1,.5-2.152,3.444,3.444,0,0,1,1.4-1.416,4.3,4.3,0,0,1,2.1-.5,4.3,4.3,0,0,1,2.1.5A3.394,3.394,0,0,1,99.192-6.1a4.528,4.528,0,0,1,.488,2.152,4.575,4.575,0,0,1-.488,2.16A3.382,3.382,0,0,1,97.8-.368,4.3,4.3,0,0,1,95.7.128ZM95.68-1.424a1.793,1.793,0,0,0,1.488-.64,2.973,2.973,0,0,0,.512-1.888,2.979,2.979,0,0,0-.512-1.88A1.765,1.765,0,0,0,95.7-6.48a1.788,1.788,0,0,0-1.48.648,2.946,2.946,0,0,0-.52,1.88,2.973,2.973,0,0,0,.512,1.888A1.775,1.775,0,0,0,95.68-1.424Z" transform="translate(538 812)" fill="#38485c"/>
    <g id="Rectángulo_8939" data-name="Rectángulo 8939" transform="translate(702.9 892.286) rotate(-90)" fill="rgba(158,170,184,0.24)" stroke="#9eaab8" stroke-width="1" stroke-dasharray="5 5">
      <rect width="46" height="291" stroke="none"/>
      <rect x="0.5" y="0.5" width="45" height="290" fill="none"/>
    </g>
    <g id="Rectángulo_8940" data-name="Rectángulo 8940" transform="translate(702.9 818.286) rotate(-90)" fill="rgba(56,72,92,0.25)" stroke="#38485c" stroke-width="1" stroke-dasharray="5 5">
      <rect width="23" height="258" stroke="none"/>
      <rect x="0.5" y="0.5" width="22" height="257" fill="none"/>
    </g>
    <g id="Rectángulo_18492" data-name="Rectángulo 18492" transform="translate(974 818.286) rotate(-90)" fill="rgba(56,72,92,0.25)" stroke="#38485c" stroke-width="1" stroke-dasharray="5 5">
      <rect width="23" height="23" stroke="none"/>
      <rect x="0.5" y="0.5" width="22" height="22" fill="none"/>
    </g>
    <path id="Trazado_27914" data-name="Trazado 27914" d="M2.38.1A1.052,1.052,0,0,1,1.59-.2a1.1,1.1,0,0,1-.3-.8v-9.979a1.068,1.068,0,0,1,.3-.791,1.068,1.068,0,0,1,.791-.3,1.091,1.091,0,0,1,.808.3,1.068,1.068,0,0,1,.3.791V-1a1.1,1.1,0,0,1-.3.8A1.074,1.074,0,0,1,2.38.1Zm.272-13.09a.6.6,0,0,1-.272.068.524.524,0,0,1-.374-.144.444.444,0,0,1-.153-.332.539.539,0,0,1,.187-.374l1.547-1.6a.986.986,0,0,1,.731-.34.8.8,0,0,1,.586.246.782.782,0,0,1,.247.569.725.725,0,0,1-.144.425,1.212,1.212,0,0,1-.433.357ZM9.554.136A4.4,4.4,0,0,1,7.37-.391a3.592,3.592,0,0,1-1.453-1.5,4.787,4.787,0,0,1-.51-2.261,4.748,4.748,0,0,1,.536-2.286,3.783,3.783,0,0,1,1.5-1.538,4.471,4.471,0,0,1,2.227-.544,4.956,4.956,0,0,1,1.334.187,4.4,4.4,0,0,1,1.182.51,1.052,1.052,0,0,1,.544.9.956.956,0,0,1-.178.6.564.564,0,0,1-.467.23,1.016,1.016,0,0,1-.391-.085,3.424,3.424,0,0,1-.408-.2,4.566,4.566,0,0,0-.714-.348,2.219,2.219,0,0,0-.782-.128,1.988,1.988,0,0,0-1.623.688A3.033,3.033,0,0,0,7.6-4.182a3,3,0,0,0,.57,1.964,1.988,1.988,0,0,0,1.623.689,2.1,2.1,0,0,0,.757-.127,6.408,6.408,0,0,0,.74-.349,3.366,3.366,0,0,1,.442-.23.981.981,0,0,1,.374-.076.565.565,0,0,1,.459.238.933.933,0,0,1,.187.6.956.956,0,0,1-.127.5,1.148,1.148,0,0,1-.417.382,4.47,4.47,0,0,1-1.224.536A5.263,5.263,0,0,1,9.554.136Zm8.381,0A4.574,4.574,0,0,1,15.7-.391,3.646,3.646,0,0,1,14.212-1.9a4.8,4.8,0,0,1-.527-2.3,4.747,4.747,0,0,1,.527-2.286A3.659,3.659,0,0,1,15.7-7.99a4.574,4.574,0,0,1,2.236-.527,4.574,4.574,0,0,1,2.236.527,3.606,3.606,0,0,1,1.479,1.5A4.81,4.81,0,0,1,22.168-4.2a4.861,4.861,0,0,1-.518,2.3A3.594,3.594,0,0,1,20.171-.391,4.574,4.574,0,0,1,17.935.136Zm-.017-1.649a1.905,1.905,0,0,0,1.581-.68A3.159,3.159,0,0,0,20.043-4.2a3.165,3.165,0,0,0-.544-2,1.876,1.876,0,0,0-1.564-.689,1.9,1.9,0,0,0-1.573.689,3.13,3.13,0,0,0-.553,2,3.159,3.159,0,0,0,.544,2.006A1.886,1.886,0,0,0,17.918-1.513Zm10.812-7a2.778,2.778,0,0,1,2.227.85A3.855,3.855,0,0,1,31.688-5.1V-.918a.993.993,0,0,1-.28.748A1.064,1.064,0,0,1,30.634.1a1.1,1.1,0,0,1-.782-.272.977.977,0,0,1-.289-.748V-4.981A2.2,2.2,0,0,0,29.2-6.392a1.4,1.4,0,0,0-1.148-.442,1.94,1.94,0,0,0-1.47.578,2.146,2.146,0,0,0-.553,1.547V-.918a.978.978,0,0,1-.289.748A1.1,1.1,0,0,1,24.956.1a1.064,1.064,0,0,1-.774-.272A.993.993,0,0,1,23.9-.918V-7.5a.935.935,0,0,1,.289-.714,1.1,1.1,0,0,1,.782-.272,1.013,1.013,0,0,1,.722.263.9.9,0,0,1,.281.689v.459a2.875,2.875,0,0,1,1.139-1.071A3.428,3.428,0,0,1,28.73-8.517ZM37.621.136a4.574,4.574,0,0,1-2.236-.527A3.646,3.646,0,0,1,33.9-1.9a4.8,4.8,0,0,1-.527-2.3A4.747,4.747,0,0,1,33.9-6.486a3.659,3.659,0,0,1,1.487-1.5,4.574,4.574,0,0,1,2.236-.527,4.574,4.574,0,0,1,2.236.527,3.606,3.606,0,0,1,1.479,1.5A4.81,4.81,0,0,1,41.854-4.2a4.861,4.861,0,0,1-.519,2.3A3.594,3.594,0,0,1,39.857-.391,4.574,4.574,0,0,1,37.621.136ZM37.6-1.513a1.905,1.905,0,0,0,1.581-.68A3.159,3.159,0,0,0,39.729-4.2a3.165,3.165,0,0,0-.544-2,1.876,1.876,0,0,0-1.564-.689,1.9,1.9,0,0,0-1.572.689,3.13,3.13,0,0,0-.553,2,3.159,3.159,0,0,0,.544,2.006A1.886,1.886,0,0,0,37.6-1.513ZM48.569.578a.874.874,0,0,1-.323.476.846.846,0,0,1-.493.153.893.893,0,0,1-.6-.229.743.743,0,0,1-.264-.586.963.963,0,0,1,.051-.306l3.944-12.359a.874.874,0,0,1,.323-.476A.846.846,0,0,1,51.7-12.9a.893.893,0,0,1,.6.23.743.743,0,0,1,.264.586.963.963,0,0,1-.051.306ZM62.39-1.479q.85.051.85.765a.692.692,0,0,1-.331.621,1.582,1.582,0,0,1-.944.179L61.506.051a2.735,2.735,0,0,1-2.856-3.06V-6.715H57.8a1.079,1.079,0,0,1-.706-.2.728.728,0,0,1-.246-.6.728.728,0,0,1,.246-.595,1.079,1.079,0,0,1,.706-.2h.85V-9.877a.956.956,0,0,1,.289-.731,1.1,1.1,0,0,1,.782-.272,1.071,1.071,0,0,1,.765.272.956.956,0,0,1,.289.731v1.564H62.22a1.079,1.079,0,0,1,.706.2.728.728,0,0,1,.247.595.728.728,0,0,1-.247.6,1.079,1.079,0,0,1-.706.2H60.775v3.859q0,1.258,1.156,1.343Zm8.517-.8a.572.572,0,0,1,.467.221.92.92,0,0,1,.178.6,1.031,1.031,0,0,1-.629.884,5.683,5.683,0,0,1-1.309.519,5.4,5.4,0,0,1-1.394.2A4.332,4.332,0,0,1,65.042-1.02a4.238,4.238,0,0,1-1.173-3.162,4.851,4.851,0,0,1,.51-2.261,3.708,3.708,0,0,1,1.437-1.53,4.068,4.068,0,0,1,2.1-.544,3.767,3.767,0,0,1,1.955.493A3.343,3.343,0,0,1,71.162-6.63a4.626,4.626,0,0,1,.459,2.125q0,.731-.646.731H65.96a2.675,2.675,0,0,0,.663,1.726,2.231,2.231,0,0,0,1.632.552,3.1,3.1,0,0,0,.96-.136,9.48,9.48,0,0,0,.944-.374A1.876,1.876,0,0,1,70.907-2.278ZM67.966-7.021a1.824,1.824,0,0,0-1.385.544,2.569,2.569,0,0,0-.62,1.564H69.8a2.424,2.424,0,0,0-.51-1.573A1.682,1.682,0,0,0,67.966-7.021Zm12.41,5.457a.96.96,0,0,1,.306.7.94.94,0,0,1-.289.672.918.918,0,0,1-.68.3.933.933,0,0,1-.731-.357l-2.4-2.652-2.4,2.652a.986.986,0,0,1-.731.34A.912.912,0,0,1,72.794-.2a.912.912,0,0,1-.289-.663.96.96,0,0,1,.306-.7l2.482-2.7-2.346-2.55a.96.96,0,0,1-.306-.7.9.9,0,0,1,.289-.671.925.925,0,0,1,.663-.281.986.986,0,0,1,.731.34l2.261,2.482,2.261-2.482a.986.986,0,0,1,.731-.34.916.916,0,0,1,.672.281.916.916,0,0,1,.281.671.96.96,0,0,1-.306.7l-2.346,2.55Zm6.137.085q.85.051.85.765a.692.692,0,0,1-.332.621,1.582,1.582,0,0,1-.943.179L85.629.051a2.735,2.735,0,0,1-2.856-3.06V-6.715h-.85a1.079,1.079,0,0,1-.705-.2.728.728,0,0,1-.247-.6.728.728,0,0,1,.247-.595,1.079,1.079,0,0,1,.705-.2h.85V-9.877a.956.956,0,0,1,.289-.731,1.1,1.1,0,0,1,.782-.272,1.071,1.071,0,0,1,.765.272.956.956,0,0,1,.289.731v1.564h1.445a1.079,1.079,0,0,1,.706.2.728.728,0,0,1,.246.595.728.728,0,0,1-.246.6,1.079,1.079,0,0,1-.706.2H84.9v3.859q0,1.258,1.156,1.343ZM92.242.136a4.574,4.574,0,0,1-2.236-.527A3.646,3.646,0,0,1,88.519-1.9a4.8,4.8,0,0,1-.527-2.3,4.747,4.747,0,0,1,.527-2.286,3.659,3.659,0,0,1,1.488-1.5,4.574,4.574,0,0,1,2.236-.527,4.574,4.574,0,0,1,2.235.527,3.606,3.606,0,0,1,1.479,1.5A4.81,4.81,0,0,1,96.475-4.2a4.861,4.861,0,0,1-.519,2.3A3.594,3.594,0,0,1,94.478-.391,4.574,4.574,0,0,1,92.242.136Zm-.017-1.649a1.905,1.905,0,0,0,1.581-.68A3.159,3.159,0,0,0,94.35-4.2a3.165,3.165,0,0,0-.544-2,1.876,1.876,0,0,0-1.564-.689A1.9,1.9,0,0,0,90.67-6.2a3.13,3.13,0,0,0-.552,2,3.159,3.159,0,0,0,.544,2.006A1.886,1.886,0,0,0,92.225-1.513Z" transform="translate(1057.06 813.037)" fill="#38485c"/>
    <path id="Trazado_27915" data-name="Trazado 27915" d="M12.155-1.309a1.047,1.047,0,0,1,.1.442.845.845,0,0,1-.314.663,1.072,1.072,0,0,1-.723.272.966.966,0,0,1-.51-.145.964.964,0,0,1-.374-.451L9.316-2.805H3.332L2.312-.527a.964.964,0,0,1-.374.451,1,1,0,0,1-.527.145A1.083,1.083,0,0,1,.7-.2.836.836,0,0,1,.374-.867a1.047,1.047,0,0,1,.1-.442L5.168-11.39a1.1,1.1,0,0,1,.468-.519,1.339,1.339,0,0,1,.671-.179,1.339,1.339,0,0,1,.672.179,1.1,1.1,0,0,1,.468.519ZM4.08-4.505H8.568L6.324-9.554Zm2.5-8.483a.6.6,0,0,1-.272.068.524.524,0,0,1-.374-.144A.444.444,0,0,1,5.78-13.4a.539.539,0,0,1,.187-.374l1.547-1.6a.986.986,0,0,1,.731-.34.8.8,0,0,1,.587.246.782.782,0,0,1,.247.569.725.725,0,0,1-.145.425,1.212,1.212,0,0,1-.434.357ZM18.343-8.483a.915.915,0,0,1,.7.187.83.83,0,0,1,.255.663.926.926,0,0,1-.221.68,1.358,1.358,0,0,1-.8.289l-.51.051a2.066,2.066,0,0,0-1.47.68,2.224,2.224,0,0,0-.467,1.445v3.57a.944.944,0,0,1-.306.757A1.131,1.131,0,0,1,14.756.1,1.1,1.1,0,0,1,14-.162a.957.957,0,0,1-.3-.757V-7.5a.91.91,0,0,1,.3-.731,1.1,1.1,0,0,1,.74-.255,1.022,1.022,0,0,1,.714.246.9.9,0,0,1,.272.706v.68a2.516,2.516,0,0,1,.961-1.156A2.945,2.945,0,0,1,18.1-8.466Zm8.262,6.2a.572.572,0,0,1,.468.221.92.92,0,0,1,.178.6,1.031,1.031,0,0,1-.629.884,5.683,5.683,0,0,1-1.309.519,5.4,5.4,0,0,1-1.394.2A4.332,4.332,0,0,1,20.74-1.02a4.238,4.238,0,0,1-1.173-3.162,4.851,4.851,0,0,1,.51-2.261,3.708,3.708,0,0,1,1.437-1.53,4.068,4.068,0,0,1,2.1-.544,3.767,3.767,0,0,1,1.955.493A3.343,3.343,0,0,1,26.86-6.63a4.626,4.626,0,0,1,.459,2.125q0,.731-.646.731H21.658a2.675,2.675,0,0,0,.663,1.726,2.231,2.231,0,0,0,1.632.552,3.1,3.1,0,0,0,.961-.136,9.481,9.481,0,0,0,.944-.374A1.876,1.876,0,0,1,26.605-2.278ZM23.664-7.021a1.824,1.824,0,0,0-1.385.544,2.569,2.569,0,0,0-.621,1.564H25.5a2.424,2.424,0,0,0-.51-1.573A1.682,1.682,0,0,0,23.664-7.021Zm8.976-1.5a3.463,3.463,0,0,1,2.576.859,3.594,3.594,0,0,1,.841,2.609V-.9a.959.959,0,0,1-.272.723,1.03,1.03,0,0,1-.748.264,1,1,0,0,1-.722-.272.95.95,0,0,1-.28-.714v-.374a2.218,2.218,0,0,1-.91,1.037,2.728,2.728,0,0,1-1.436.374A3.336,3.336,0,0,1,30.175-.2,2.692,2.692,0,0,1,29.1-1.139a2.363,2.363,0,0,1-.391-1.326,2.1,2.1,0,0,1,.468-1.445A2.809,2.809,0,0,1,30.7-4.675a13.856,13.856,0,0,1,2.907-.238h.425V-5.3a1.741,1.741,0,0,0-.357-1.216A1.519,1.519,0,0,0,32.521-6.9a3.668,3.668,0,0,0-1,.145q-.51.144-1.207.416a1.7,1.7,0,0,1-.646.221.639.639,0,0,1-.5-.221.84.84,0,0,1-.2-.578.87.87,0,0,1,.144-.5,1.371,1.371,0,0,1,.485-.4,5.541,5.541,0,0,1,1.42-.51A7.324,7.324,0,0,1,32.64-8.517Zm-.527,7.123A1.816,1.816,0,0,0,33.5-1.964a2.06,2.06,0,0,0,.536-1.47v-.357h-.306a11.727,11.727,0,0,0-1.768.1,1.716,1.716,0,0,0-.9.357.909.909,0,0,0-.272.7,1.153,1.153,0,0,0,.382.892A1.349,1.349,0,0,0,32.113-1.394ZM49.725-12.07a1.133,1.133,0,0,1,.782.272.91.91,0,0,1,.306.714V-.918a.956.956,0,0,1-.289.731,1.071,1.071,0,0,1-.765.272,1.071,1.071,0,0,1-.765-.272.956.956,0,0,1-.289-.731v-.425A2.661,2.661,0,0,1,47.626-.255a3.258,3.258,0,0,1-1.607.391,3.445,3.445,0,0,1-1.912-.544A3.607,3.607,0,0,1,42.8-1.947a5.317,5.317,0,0,1-.467-2.287A5.148,5.148,0,0,1,42.8-6.494a3.541,3.541,0,0,1,1.3-1.5,3.516,3.516,0,0,1,1.921-.527,3.327,3.327,0,0,1,1.6.374,2.594,2.594,0,0,1,1.071,1.054v-4.029a.9.9,0,0,1,.28-.688A1.06,1.06,0,0,1,49.725-12.07ZM46.58-1.513a1.89,1.89,0,0,0,1.573-.7A3.136,3.136,0,0,0,48.705-4.2a3.1,3.1,0,0,0-.552-1.981A1.881,1.881,0,0,0,46.6-6.868a1.935,1.935,0,0,0-1.581.68,3,3,0,0,0-.561,1.955,3.176,3.176,0,0,0,.561,2.006A1.877,1.877,0,0,0,46.58-1.513Zm12.988-.765a.572.572,0,0,1,.467.221.92.92,0,0,1,.179.6,1.031,1.031,0,0,1-.629.884,5.683,5.683,0,0,1-1.309.519,5.4,5.4,0,0,1-1.394.2A4.332,4.332,0,0,1,53.7-1.02,4.238,4.238,0,0,1,52.53-4.182a4.851,4.851,0,0,1,.51-2.261,3.708,3.708,0,0,1,1.437-1.53,4.068,4.068,0,0,1,2.1-.544,3.767,3.767,0,0,1,1.955.493A3.343,3.343,0,0,1,59.823-6.63a4.626,4.626,0,0,1,.459,2.125q0,.731-.646.731H54.621a2.675,2.675,0,0,0,.663,1.726,2.231,2.231,0,0,0,1.632.552,3.1,3.1,0,0,0,.96-.136,9.481,9.481,0,0,0,.944-.374A1.876,1.876,0,0,1,59.568-2.278ZM56.627-7.021a1.824,1.824,0,0,0-1.386.544,2.569,2.569,0,0,0-.62,1.564h3.842a2.424,2.424,0,0,0-.51-1.573A1.682,1.682,0,0,0,56.627-7.021ZM70.278.136a4.4,4.4,0,0,1-2.185-.527,3.592,3.592,0,0,1-1.453-1.5,4.787,4.787,0,0,1-.51-2.261,4.748,4.748,0,0,1,.535-2.286,3.783,3.783,0,0,1,1.5-1.538A4.471,4.471,0,0,1,70.4-8.517a4.956,4.956,0,0,1,1.334.187,4.4,4.4,0,0,1,1.182.51,1.052,1.052,0,0,1,.544.9.956.956,0,0,1-.178.6.564.564,0,0,1-.467.23,1.016,1.016,0,0,1-.391-.085,3.425,3.425,0,0,1-.408-.2,4.567,4.567,0,0,0-.714-.348,2.219,2.219,0,0,0-.782-.128,1.988,1.988,0,0,0-1.623.688,3.033,3.033,0,0,0-.57,1.981,3,3,0,0,0,.57,1.964,1.988,1.988,0,0,0,1.623.689,2.1,2.1,0,0,0,.757-.127,6.408,6.408,0,0,0,.74-.349,3.365,3.365,0,0,1,.442-.23.981.981,0,0,1,.374-.076.565.565,0,0,1,.459.238.933.933,0,0,1,.187.6.956.956,0,0,1-.127.5A1.148,1.148,0,0,1,72.93-.6a4.47,4.47,0,0,1-1.224.536A5.263,5.263,0,0,1,70.278.136Zm8.381,0a4.574,4.574,0,0,1-2.236-.527A3.646,3.646,0,0,1,74.936-1.9a4.8,4.8,0,0,1-.527-2.3,4.747,4.747,0,0,1,.527-2.286,3.659,3.659,0,0,1,1.488-1.5,4.574,4.574,0,0,1,2.236-.527,4.574,4.574,0,0,1,2.235.527,3.606,3.606,0,0,1,1.479,1.5A4.81,4.81,0,0,1,82.892-4.2a4.861,4.861,0,0,1-.519,2.3A3.594,3.594,0,0,1,80.895-.391,4.574,4.574,0,0,1,78.659.136Zm-.017-1.649a1.905,1.905,0,0,0,1.581-.68A3.159,3.159,0,0,0,80.767-4.2a3.165,3.165,0,0,0-.544-2,1.876,1.876,0,0,0-1.564-.689,1.9,1.9,0,0,0-1.573.689,3.13,3.13,0,0,0-.552,2,3.159,3.159,0,0,0,.544,2.006A1.886,1.886,0,0,0,78.642-1.513Zm10.812-7a2.778,2.778,0,0,1,2.227.85A3.855,3.855,0,0,1,92.412-5.1V-.918a.993.993,0,0,1-.28.748A1.064,1.064,0,0,1,91.358.1a1.1,1.1,0,0,1-.782-.272.978.978,0,0,1-.289-.748V-4.981a2.2,2.2,0,0,0-.366-1.411,1.4,1.4,0,0,0-1.147-.442,1.94,1.94,0,0,0-1.47.578,2.146,2.146,0,0,0-.552,1.547V-.918a.978.978,0,0,1-.289.748A1.1,1.1,0,0,1,85.68.1a1.064,1.064,0,0,1-.773-.272.993.993,0,0,1-.28-.748V-7.5a.935.935,0,0,1,.289-.714,1.1,1.1,0,0,1,.782-.272,1.013,1.013,0,0,1,.722.263.9.9,0,0,1,.281.689v.459a2.875,2.875,0,0,1,1.139-1.071A3.428,3.428,0,0,1,89.454-8.517Zm9.418,7.038q.85.051.85.765a.692.692,0,0,1-.332.621,1.582,1.582,0,0,1-.943.179L97.988.051a2.735,2.735,0,0,1-2.856-3.06V-6.715h-.85a1.079,1.079,0,0,1-.705-.2.728.728,0,0,1-.247-.6.728.728,0,0,1,.247-.595,1.079,1.079,0,0,1,.705-.2h.85V-9.877a.956.956,0,0,1,.289-.731,1.1,1.1,0,0,1,.782-.272,1.071,1.071,0,0,1,.765.272.956.956,0,0,1,.289.731v1.564H98.7a1.079,1.079,0,0,1,.706.2.728.728,0,0,1,.246.595.728.728,0,0,1-.246.6,1.079,1.079,0,0,1-.706.2H97.257v3.859q0,1.258,1.156,1.343Zm8.517-.8a.572.572,0,0,1,.467.221.92.92,0,0,1,.179.6,1.031,1.031,0,0,1-.629.884A5.683,5.683,0,0,1,106.1-.06a5.4,5.4,0,0,1-1.394.2,4.332,4.332,0,0,1-3.179-1.156,4.238,4.238,0,0,1-1.173-3.162,4.851,4.851,0,0,1,.51-2.261,3.708,3.708,0,0,1,1.437-1.53,4.068,4.068,0,0,1,2.1-.544,3.767,3.767,0,0,1,1.955.493,3.343,3.343,0,0,1,1.292,1.394,4.626,4.626,0,0,1,.459,2.125q0,.731-.646.731h-5.015a2.675,2.675,0,0,0,.663,1.726,2.231,2.231,0,0,0,1.632.552,3.1,3.1,0,0,0,.961-.136,9.481,9.481,0,0,0,.943-.374A1.876,1.876,0,0,1,107.389-2.278Zm-2.941-4.743a1.824,1.824,0,0,0-1.386.544,2.569,2.569,0,0,0-.62,1.564h3.842a2.424,2.424,0,0,0-.51-1.573A1.682,1.682,0,0,0,104.448-7.021Zm10.2-1.5a2.778,2.778,0,0,1,2.227.85,3.855,3.855,0,0,1,.731,2.567V-.918a.993.993,0,0,1-.28.748,1.064,1.064,0,0,1-.774.272,1.1,1.1,0,0,1-.782-.272.978.978,0,0,1-.289-.748V-4.981a2.2,2.2,0,0,0-.366-1.411,1.4,1.4,0,0,0-1.147-.442,1.94,1.94,0,0,0-1.47.578,2.146,2.146,0,0,0-.552,1.547V-.918a.978.978,0,0,1-.289.748,1.1,1.1,0,0,1-.782.272A1.064,1.064,0,0,1,110.1-.17a.993.993,0,0,1-.28-.748V-7.5a.935.935,0,0,1,.289-.714,1.1,1.1,0,0,1,.782-.272,1.013,1.013,0,0,1,.722.263.9.9,0,0,1,.281.689v.459a2.875,2.875,0,0,1,1.139-1.071A3.428,3.428,0,0,1,114.648-8.517ZM120.8.1a1.1,1.1,0,0,1-.757-.264.957.957,0,0,1-.3-.757V-7.48a.931.931,0,0,1,.3-.748,1.121,1.121,0,0,1,.757-.255,1.155,1.155,0,0,1,.765.255.918.918,0,0,1,.306.748V-.918a.944.944,0,0,1-.306.757A1.131,1.131,0,0,1,120.8.1Zm0-10.1a1.3,1.3,0,0,1-.918-.314,1.071,1.071,0,0,1-.34-.825,1.044,1.044,0,0,1,.34-.816,1.321,1.321,0,0,1,.918-.306,1.328,1.328,0,0,1,.91.306,1.032,1.032,0,0,1,.349.816,1.071,1.071,0,0,1-.34.825A1.3,1.3,0,0,1,120.8-10Zm10.183-2.074a1.133,1.133,0,0,1,.782.272.91.91,0,0,1,.306.714V-.918a.956.956,0,0,1-.289.731,1.071,1.071,0,0,1-.765.272,1.071,1.071,0,0,1-.765-.272.956.956,0,0,1-.289-.731v-.425a2.661,2.661,0,0,1-1.079,1.088,3.258,3.258,0,0,1-1.606.391,3.445,3.445,0,0,1-1.912-.544,3.607,3.607,0,0,1-1.309-1.539,5.317,5.317,0,0,1-.467-2.287,5.148,5.148,0,0,1,.467-2.261,3.541,3.541,0,0,1,1.3-1.5,3.516,3.516,0,0,1,1.921-.527,3.327,3.327,0,0,1,1.6.374,2.594,2.594,0,0,1,1.071,1.054v-4.029a.9.9,0,0,1,.281-.688A1.06,1.06,0,0,1,130.985-12.07ZM127.84-1.513a1.89,1.89,0,0,0,1.573-.7,3.136,3.136,0,0,0,.552-1.989,3.1,3.1,0,0,0-.552-1.981,1.881,1.881,0,0,0-1.556-.688,1.935,1.935,0,0,0-1.581.68,3,3,0,0,0-.561,1.955,3.176,3.176,0,0,0,.561,2.006A1.877,1.877,0,0,0,127.84-1.513ZM138.04.136A4.574,4.574,0,0,1,135.8-.391,3.646,3.646,0,0,1,134.317-1.9a4.8,4.8,0,0,1-.527-2.3,4.747,4.747,0,0,1,.527-2.286,3.659,3.659,0,0,1,1.488-1.5,4.574,4.574,0,0,1,2.235-.527,4.574,4.574,0,0,1,2.236.527,3.606,3.606,0,0,1,1.479,1.5,4.811,4.811,0,0,1,.518,2.286,4.861,4.861,0,0,1-.518,2.3,3.594,3.594,0,0,1-1.479,1.513A4.574,4.574,0,0,1,138.04.136Zm-.017-1.649a1.905,1.905,0,0,0,1.581-.68,3.159,3.159,0,0,0,.544-2.006,3.165,3.165,0,0,0-.544-2,1.876,1.876,0,0,0-1.564-.689,1.9,1.9,0,0,0-1.572.689,3.13,3.13,0,0,0-.553,2,3.159,3.159,0,0,0,.544,2.006A1.886,1.886,0,0,0,138.023-1.513Z" transform="translate(1057.978 876.786)" fill="#38485c"/>
  </g>
</svg>
