<svg xmlns="http://www.w3.org/2000/svg" width="712" height="412" viewBox="0 0 712 412">
  <g id="Grupo_20831" data-name="Grupo 20831" transform="translate(-513 -2310)">
    <g id="Grupo_18087" data-name="Grupo 18087" transform="translate(0 1592)">
      <path id="Trazado_20235" data-name="Trazado 20235" d="M4,0H708c2.209,0,4,1.461,4,3.263V408.737c0,1.8-1.791,3.263-4,3.263H4c-2.209,0-4-1.461-4-3.263V3.263C0,1.461,1.791,0,4,0Z" transform="translate(513 718)" fill="#f3f6f9"/>
    </g>
    <g id="Rectángulo_17737" data-name="Rectángulo 17737" transform="translate(564 2374)" fill="#fff" stroke="#e6ebf0" stroke-width="2">
      <rect width="560" height="169" rx="8" stroke="none"/>
      <rect x="1" y="1" width="558" height="167" rx="7" fill="none"/>
    </g>
    <path id="Trazado_27767" data-name="Trazado 27767" d="M7.938,17H1.57V5.578H7.938v1.18H2.9v3.68H7.633v1.172H2.9v4.2H7.938ZM15.8,14.664a2.145,2.145,0,0,1-.891,1.844,4.186,4.186,0,0,1-2.5.648,5.436,5.436,0,0,1-2.656-.539v-1.2a6.424,6.424,0,0,0,1.324.492,5.53,5.53,0,0,0,1.363.18A3.092,3.092,0,0,0,14,15.762a1.116,1.116,0,0,0,.113-1.844,6.82,6.82,0,0,0-1.691-.84,9.172,9.172,0,0,1-1.7-.777,2.321,2.321,0,0,1-.75-.754,1.966,1.966,0,0,1-.246-1.008,1.921,1.921,0,0,1,.852-1.652,3.968,3.968,0,0,1,2.336-.605,6.835,6.835,0,0,1,2.7.563L15.156,9.9a6.2,6.2,0,0,0-2.336-.531,2.688,2.688,0,0,0-1.391.289.894.894,0,0,0-.469.8.971.971,0,0,0,.176.586,1.735,1.735,0,0,0,.566.461,12.658,12.658,0,0,0,1.5.633,5.6,5.6,0,0,1,2.059,1.117A1.97,1.97,0,0,1,15.8,14.664Zm4.875,1.422a4.236,4.236,0,0,0,.664-.051,4.3,4.3,0,0,0,.508-.105v.992a2.371,2.371,0,0,1-.621.168,4.664,4.664,0,0,1-.738.066Q18,17.156,18,14.539V9.445H16.773V8.82L18,8.281l.547-1.828h.75V8.438h2.484V9.445H19.3v5.039a1.734,1.734,0,0,0,.367,1.188A1.278,1.278,0,0,0,20.672,16.086Zm6.5,1.07a3.934,3.934,0,0,1-3-1.156,4.476,4.476,0,0,1-1.1-3.211A4.964,4.964,0,0,1,24.1,9.5a3.387,3.387,0,0,1,2.738-1.219A3.229,3.229,0,0,1,29.383,9.34a4.057,4.057,0,0,1,.938,2.793v.82h-5.9a3.394,3.394,0,0,0,.762,2.289,2.635,2.635,0,0,0,2.035.781,6.9,6.9,0,0,0,2.734-.578V16.6a6.863,6.863,0,0,1-1.3.426A7.31,7.31,0,0,1,27.172,17.156ZM26.82,9.367a2.118,2.118,0,0,0-1.645.672,3.1,3.1,0,0,0-.723,1.859H28.93a2.851,2.851,0,0,0-.547-1.879A1.925,1.925,0,0,0,26.82,9.367ZM40.3,17.156a3.934,3.934,0,0,1-3-1.156,4.476,4.476,0,0,1-1.1-3.211A4.964,4.964,0,0,1,37.23,9.5a3.387,3.387,0,0,1,2.738-1.219A3.229,3.229,0,0,1,42.516,9.34a4.057,4.057,0,0,1,.938,2.793v.82h-5.9a3.394,3.394,0,0,0,.762,2.289,2.634,2.634,0,0,0,2.035.781,6.9,6.9,0,0,0,2.734-.578V16.6a6.863,6.863,0,0,1-1.3.426A7.31,7.31,0,0,1,40.3,17.156Zm-.352-7.789a2.118,2.118,0,0,0-1.645.672,3.1,3.1,0,0,0-.723,1.859h4.477a2.851,2.851,0,0,0-.547-1.879A1.925,1.925,0,0,0,39.953,9.367Zm11.234,5.3a2.145,2.145,0,0,1-.891,1.844,4.186,4.186,0,0,1-2.5.648,5.436,5.436,0,0,1-2.656-.539v-1.2a6.424,6.424,0,0,0,1.324.492,5.53,5.53,0,0,0,1.363.18,3.092,3.092,0,0,0,1.563-.324,1.116,1.116,0,0,0,.113-1.844,6.82,6.82,0,0,0-1.691-.84,9.172,9.172,0,0,1-1.7-.777,2.321,2.321,0,0,1-.75-.754,1.966,1.966,0,0,1-.246-1.008,1.921,1.921,0,0,1,.852-1.652A3.968,3.968,0,0,1,48.3,8.281a6.835,6.835,0,0,1,2.7.563L50.547,9.9a6.2,6.2,0,0,0-2.336-.531,2.688,2.688,0,0,0-1.391.289.894.894,0,0,0-.469.8.971.971,0,0,0,.176.586,1.735,1.735,0,0,0,.566.461,12.658,12.658,0,0,0,1.5.633,5.6,5.6,0,0,1,2.059,1.117A1.97,1.97,0,0,1,51.188,14.664Zm9.883,2.492a3.934,3.934,0,0,1-3-1.156,4.476,4.476,0,0,1-1.1-3.211A4.964,4.964,0,0,1,58,9.5a3.387,3.387,0,0,1,2.738-1.219A3.229,3.229,0,0,1,63.281,9.34a4.057,4.057,0,0,1,.938,2.793v.82h-5.9a3.394,3.394,0,0,0,.762,2.289,2.634,2.634,0,0,0,2.035.781,6.9,6.9,0,0,0,2.734-.578V16.6a6.863,6.863,0,0,1-1.3.426A7.31,7.31,0,0,1,61.07,17.156Zm-.352-7.789a2.118,2.118,0,0,0-1.645.672,3.1,3.1,0,0,0-.723,1.859h4.477a2.851,2.851,0,0,0-.547-1.879A1.925,1.925,0,0,0,60.719,9.367ZM67.727,17h-1.3V4.844h1.3ZM79.9,17l-.258-1.219h-.062a3.6,3.6,0,0,1-1.277,1.09,3.893,3.893,0,0,1-1.59.285,2.86,2.86,0,0,1-2-.656,2.394,2.394,0,0,1-.723-1.867q0-2.594,4.148-2.719l1.453-.047v-.531a2.171,2.171,0,0,0-.434-1.488,1.783,1.783,0,0,0-1.387-.48,5.65,5.65,0,0,0-2.422.656l-.4-.992a6.094,6.094,0,0,1,1.387-.539,6.006,6.006,0,0,1,1.512-.2,3.262,3.262,0,0,1,2.27.68,2.837,2.837,0,0,1,.738,2.18V17Zm-2.93-.914a2.632,2.632,0,0,0,1.9-.664,2.457,2.457,0,0,0,.691-1.859v-.773l-1.3.055a4.717,4.717,0,0,0-2.23.48,1.449,1.449,0,0,0-.684,1.324,1.336,1.336,0,0,0,.426,1.07A1.767,1.767,0,0,0,76.969,16.086Zm-.3-8.977q.375-.484.809-1.172a13.411,13.411,0,0,0,.684-1.2h1.578v.164a11.549,11.549,0,0,1-1.023,1.25A11.619,11.619,0,0,1,77.531,7.3h-.867ZM87.438,8.281a5.075,5.075,0,0,1,1.023.094l-.18,1.2a4.418,4.418,0,0,0-.937-.117,2.282,2.282,0,0,0-1.777.844,3.077,3.077,0,0,0-.738,2.1V17h-1.3V8.438H84.6l.148,1.586h.063a3.764,3.764,0,0,1,1.148-1.289A2.585,2.585,0,0,1,87.438,8.281Zm6.242,8.875a3.934,3.934,0,0,1-3-1.156,4.476,4.476,0,0,1-1.1-3.211A4.964,4.964,0,0,1,90.605,9.5a3.387,3.387,0,0,1,2.738-1.219A3.229,3.229,0,0,1,95.891,9.34a4.057,4.057,0,0,1,.938,2.793v.82h-5.9a3.394,3.394,0,0,0,.762,2.289,2.635,2.635,0,0,0,2.035.781,6.9,6.9,0,0,0,2.734-.578V16.6a6.863,6.863,0,0,1-1.3.426A7.31,7.31,0,0,1,93.68,17.156Zm-.352-7.789a2.118,2.118,0,0,0-1.645.672,3.1,3.1,0,0,0-.723,1.859h4.477a2.851,2.851,0,0,0-.547-1.879A1.925,1.925,0,0,0,93.328,9.367ZM104.3,17l-.258-1.219h-.062a3.6,3.6,0,0,1-1.277,1.09,3.893,3.893,0,0,1-1.59.285,2.86,2.86,0,0,1-2-.656,2.394,2.394,0,0,1-.723-1.867q0-2.594,4.148-2.719L104,11.867v-.531a2.171,2.171,0,0,0-.434-1.488,1.783,1.783,0,0,0-1.387-.48,5.65,5.65,0,0,0-2.422.656l-.4-.992a6.094,6.094,0,0,1,1.387-.539,6.006,6.006,0,0,1,1.512-.2,3.262,3.262,0,0,1,2.27.68,2.837,2.837,0,0,1,.738,2.18V17Zm-2.93-.914a2.632,2.632,0,0,0,1.9-.664,2.457,2.457,0,0,0,.691-1.859v-.773l-1.3.055a4.717,4.717,0,0,0-2.23.48,1.449,1.449,0,0,0-.684,1.324,1.336,1.336,0,0,0,.426,1.07A1.767,1.767,0,0,0,101.375,16.086Zm16.547-.234h-.07a3.047,3.047,0,0,1-2.687,1.3,3.179,3.179,0,0,1-2.613-1.148,5.055,5.055,0,0,1-.934-3.266,5.141,5.141,0,0,1,.938-3.289,3.155,3.155,0,0,1,2.609-1.172,3.114,3.114,0,0,1,2.672,1.266h.1l-.055-.617-.031-.6V4.844h1.3V17h-1.055Zm-2.594.219a2.361,2.361,0,0,0,1.926-.723,3.652,3.652,0,0,0,.6-2.332v-.273a4.3,4.3,0,0,0-.605-2.6,2.3,2.3,0,0,0-1.934-.777,1.985,1.985,0,0,0-1.746.887,4.409,4.409,0,0,0-.605,2.5,4.227,4.227,0,0,0,.6,2.477A2.037,2.037,0,0,0,115.328,16.07Zm10.188,1.086a3.934,3.934,0,0,1-3-1.156,4.476,4.476,0,0,1-1.1-3.211,4.964,4.964,0,0,1,1.02-3.289,3.387,3.387,0,0,1,2.738-1.219,3.229,3.229,0,0,1,2.547,1.059,4.057,4.057,0,0,1,.938,2.793v.82h-5.9a3.394,3.394,0,0,0,.762,2.289,2.635,2.635,0,0,0,2.035.781,6.9,6.9,0,0,0,2.734-.578V16.6a6.863,6.863,0,0,1-1.3.426A7.31,7.31,0,0,1,125.516,17.156Zm-.352-7.789a2.118,2.118,0,0,0-1.645.672A3.1,3.1,0,0,0,122.8,11.9h4.477a2.851,2.851,0,0,0-.547-1.879A1.925,1.925,0,0,0,125.164,9.367Zm11.234,5.3a2.145,2.145,0,0,1-.891,1.844,4.186,4.186,0,0,1-2.5.648,5.436,5.436,0,0,1-2.656-.539v-1.2a6.423,6.423,0,0,0,1.324.492,5.53,5.53,0,0,0,1.363.18,3.092,3.092,0,0,0,1.563-.324,1.116,1.116,0,0,0,.113-1.844,6.82,6.82,0,0,0-1.691-.84,9.172,9.172,0,0,1-1.7-.777,2.321,2.321,0,0,1-.75-.754,1.966,1.966,0,0,1-.246-1.008,1.921,1.921,0,0,1,.852-1.652,3.968,3.968,0,0,1,2.336-.605,6.835,6.835,0,0,1,2.7.563L135.758,9.9a6.2,6.2,0,0,0-2.336-.531,2.688,2.688,0,0,0-1.391.289.894.894,0,0,0-.469.8.971.971,0,0,0,.176.586,1.735,1.735,0,0,0,.566.461,12.659,12.659,0,0,0,1.5.633,5.6,5.6,0,0,1,2.059,1.117A1.97,1.97,0,0,1,136.4,14.664Zm5.531,2.492a3.654,3.654,0,0,1-2.879-1.145,4.707,4.707,0,0,1-1.02-3.238,4.853,4.853,0,0,1,1.035-3.32,3.727,3.727,0,0,1,2.949-1.172,5.852,5.852,0,0,1,1.234.133,4.066,4.066,0,0,1,.969.313l-.4,1.1a6.1,6.1,0,0,0-.937-.285,4.186,4.186,0,0,0-.9-.113q-2.609,0-2.609,3.328a3.963,3.963,0,0,0,.637,2.422,2.215,2.215,0,0,0,1.887.844,5.769,5.769,0,0,0,2.2-.461v1.148A4.679,4.679,0,0,1,141.93,17.156Zm8.1-8.875a5.075,5.075,0,0,1,1.023.094l-.18,1.2a4.418,4.418,0,0,0-.937-.117,2.282,2.282,0,0,0-1.777.844,3.077,3.077,0,0,0-.738,2.1V17h-1.3V8.438h1.07l.148,1.586h.063a3.764,3.764,0,0,1,1.148-1.289A2.585,2.585,0,0,1,150.031,8.281ZM153.953,17h-1.3V8.438h1.3ZM152.547,6.117a.861.861,0,0,1,.219-.652.81.81,0,0,1,1.086,0,.846.846,0,0,1,.227.648.859.859,0,0,1-.227.652.794.794,0,0,1-1.086,0A.877.877,0,0,1,152.547,6.117Zm8.141,11.039a3.706,3.706,0,0,1-1.527-.309A2.872,2.872,0,0,1,158,15.9h-.094A11.485,11.485,0,0,1,158,17.32v3.523h-1.3V8.438h1.055l.18,1.172H158a3.012,3.012,0,0,1,1.164-1.016,3.539,3.539,0,0,1,1.523-.312,3.165,3.165,0,0,1,2.629,1.164,5.125,5.125,0,0,1,.926,3.266,5.1,5.1,0,0,1-.941,3.277A3.17,3.17,0,0,1,160.688,17.156ZM160.5,9.383a2.3,2.3,0,0,0-1.9.727,3.739,3.739,0,0,0-.6,2.313v.289a4.285,4.285,0,0,0,.6,2.582,2.288,2.288,0,0,0,1.93.777,2.007,2.007,0,0,0,1.738-.9A4.26,4.26,0,0,0,162.9,12.7a4.1,4.1,0,0,0-.629-2.457A2.069,2.069,0,0,0,160.5,9.383Zm8.773,6.7a4.236,4.236,0,0,0,.664-.051,4.3,4.3,0,0,0,.508-.105v.992a2.371,2.371,0,0,1-.621.168,4.664,4.664,0,0,1-.738.066q-2.484,0-2.484-2.617V9.445h-1.227V8.82l1.227-.539.547-1.828h.75V8.438h2.484V9.445H167.9v5.039a1.733,1.733,0,0,0,.367,1.188A1.278,1.278,0,0,0,169.273,16.086Zm4.18.914h-1.3V8.438h1.3ZM172.047,6.117a.861.861,0,0,1,.219-.652.81.81,0,0,1,1.086,0,.846.846,0,0,1,.227.648.859.859,0,0,1-.227.652.794.794,0,0,1-1.086,0A.877.877,0,0,1,172.047,6.117ZM178.078,17l-3.25-8.562h1.391l1.844,5.078a24.035,24.035,0,0,1,.734,2.313h.063a17.468,17.468,0,0,1,.543-1.715q.457-1.3,2.051-5.676h1.391L179.594,17Zm11.406,0-.258-1.219h-.062a3.6,3.6,0,0,1-1.277,1.09,3.893,3.893,0,0,1-1.59.285,2.86,2.86,0,0,1-2-.656,2.394,2.394,0,0,1-.723-1.867q0-2.594,4.148-2.719l1.453-.047v-.531a2.171,2.171,0,0,0-.434-1.488,1.783,1.783,0,0,0-1.387-.48,5.65,5.65,0,0,0-2.422.656l-.4-.992a6.094,6.094,0,0,1,1.387-.539,6.006,6.006,0,0,1,1.512-.2,3.262,3.262,0,0,1,2.27.68,2.837,2.837,0,0,1,.738,2.18V17Zm-2.93-.914a2.632,2.632,0,0,0,1.9-.664,2.457,2.457,0,0,0,.691-1.859v-.773l-1.3.055a4.717,4.717,0,0,0-2.23.48,1.449,1.449,0,0,0-.684,1.324,1.336,1.336,0,0,0,.426,1.07A1.767,1.767,0,0,0,186.555,16.086Zm16.547-.234h-.07a3.047,3.047,0,0,1-2.687,1.3,3.179,3.179,0,0,1-2.613-1.148,5.055,5.055,0,0,1-.934-3.266,5.141,5.141,0,0,1,.938-3.289,3.155,3.155,0,0,1,2.609-1.172,3.114,3.114,0,0,1,2.672,1.266h.1l-.055-.617-.031-.6V4.844h1.3V17h-1.055Zm-2.594.219a2.361,2.361,0,0,0,1.926-.723,3.652,3.652,0,0,0,.6-2.332v-.273a4.3,4.3,0,0,0-.605-2.6,2.3,2.3,0,0,0-1.934-.777,1.985,1.985,0,0,0-1.746.887,4.409,4.409,0,0,0-.605,2.5,4.227,4.227,0,0,0,.6,2.477A2.037,2.037,0,0,0,200.508,16.07ZM210.7,17.156a3.934,3.934,0,0,1-3-1.156,4.476,4.476,0,0,1-1.1-3.211,4.964,4.964,0,0,1,1.02-3.289,3.387,3.387,0,0,1,2.738-1.219,3.229,3.229,0,0,1,2.547,1.059,4.057,4.057,0,0,1,.938,2.793v.82h-5.9a3.394,3.394,0,0,0,.762,2.289,2.634,2.634,0,0,0,2.035.781,6.9,6.9,0,0,0,2.734-.578V16.6a6.863,6.863,0,0,1-1.3.426A7.31,7.31,0,0,1,210.7,17.156Zm-.352-7.789a2.118,2.118,0,0,0-1.645.672,3.1,3.1,0,0,0-.723,1.859h4.477a2.851,2.851,0,0,0-.547-1.879A1.925,1.925,0,0,0,210.344,9.367Zm11.086-.93v5.555a2.235,2.235,0,0,0,.477,1.563,1.941,1.941,0,0,0,1.492.516,2.435,2.435,0,0,0,1.965-.734,3.7,3.7,0,0,0,.621-2.4v-4.5h1.3V17h-1.07l-.187-1.148h-.07a2.585,2.585,0,0,1-1.105.969,3.716,3.716,0,0,1-1.613.336,3.273,3.273,0,0,1-2.34-.742,3.159,3.159,0,0,1-.777-2.375v-5.6ZM235.891,17V11.461a2.235,2.235,0,0,0-.477-1.562,1.941,1.941,0,0,0-1.492-.516,2.461,2.461,0,0,0-1.969.727,3.668,3.668,0,0,0-.625,2.4V17h-1.3V8.438h1.055l.211,1.172h.063a2.648,2.648,0,0,1,1.117-.98,3.63,3.63,0,0,1,1.6-.348,3.252,3.252,0,0,1,2.328.746,3.175,3.175,0,0,1,.781,2.387V17Zm11.539.156a3.654,3.654,0,0,1-2.879-1.145,4.707,4.707,0,0,1-1.02-3.238,4.853,4.853,0,0,1,1.035-3.32,3.727,3.727,0,0,1,2.949-1.172,5.852,5.852,0,0,1,1.234.133,4.066,4.066,0,0,1,.969.313l-.4,1.1a6.1,6.1,0,0,0-.937-.285,4.186,4.186,0,0,0-.9-.113q-2.609,0-2.609,3.328a3.963,3.963,0,0,0,.637,2.422,2.215,2.215,0,0,0,1.887.844,5.769,5.769,0,0,0,2.2-.461v1.148A4.679,4.679,0,0,1,247.43,17.156Zm11.586-4.445a4.724,4.724,0,0,1-1.055,3.27,3.714,3.714,0,0,1-2.914,1.176,3.86,3.86,0,0,1-2.039-.539,3.558,3.558,0,0,1-1.375-1.547,5.391,5.391,0,0,1-.484-2.359A4.716,4.716,0,0,1,252.2,9.449,3.7,3.7,0,0,1,255.1,8.281a3.622,3.622,0,0,1,2.855,1.2A4.7,4.7,0,0,1,259.016,12.711Zm-6.523,0a4.064,4.064,0,0,0,.656,2.5,2.6,2.6,0,0,0,3.863,0,4.044,4.044,0,0,0,.66-2.5,3.978,3.978,0,0,0-.66-2.48,2.32,2.32,0,0,0-1.949-.848,2.283,2.283,0,0,0-1.922.836A4.023,4.023,0,0,0,252.492,12.711ZM262.586,17h-1.3V4.844h1.3Zm8.016,0-.258-1.219h-.062A3.6,3.6,0,0,1,269,16.871a3.893,3.893,0,0,1-1.59.285,2.86,2.86,0,0,1-2-.656,2.394,2.394,0,0,1-.723-1.867q0-2.594,4.148-2.719l1.453-.047v-.531a2.171,2.171,0,0,0-.434-1.488,1.783,1.783,0,0,0-1.387-.48,5.65,5.65,0,0,0-2.422.656l-.4-.992a6.094,6.094,0,0,1,1.387-.539,6.006,6.006,0,0,1,1.512-.2,3.262,3.262,0,0,1,2.27.68,2.837,2.837,0,0,1,.738,2.18V17Zm-2.93-.914a2.632,2.632,0,0,0,1.9-.664,2.457,2.457,0,0,0,.691-1.859v-.773l-1.3.055a4.717,4.717,0,0,0-2.23.48,1.449,1.449,0,0,0-.684,1.324,1.336,1.336,0,0,0,.426,1.07A1.767,1.767,0,0,0,267.672,16.086Zm10.547,1.07a3.706,3.706,0,0,1-1.527-.309,2.872,2.872,0,0,1-1.16-.949h-.094a11.485,11.485,0,0,1,.094,1.422v3.523h-1.3V8.438h1.055l.18,1.172h.063A3.012,3.012,0,0,1,276.7,8.594a3.539,3.539,0,0,1,1.523-.312,3.165,3.165,0,0,1,2.629,1.164,5.125,5.125,0,0,1,.926,3.266,5.1,5.1,0,0,1-.941,3.277A3.17,3.17,0,0,1,278.219,17.156Zm-.187-7.773a2.3,2.3,0,0,0-1.9.727,3.739,3.739,0,0,0-.6,2.313v.289a4.285,4.285,0,0,0,.6,2.582,2.288,2.288,0,0,0,1.93.777,2.007,2.007,0,0,0,1.738-.9,4.26,4.26,0,0,0,.629-2.477,4.1,4.1,0,0,0-.629-2.457A2.069,2.069,0,0,0,278.031,9.383Zm11.531,5.281a2.145,2.145,0,0,1-.891,1.844,4.186,4.186,0,0,1-2.5.648,5.436,5.436,0,0,1-2.656-.539v-1.2a6.424,6.424,0,0,0,1.324.492,5.53,5.53,0,0,0,1.363.18,3.092,3.092,0,0,0,1.563-.324,1.116,1.116,0,0,0,.113-1.844,6.821,6.821,0,0,0-1.691-.84,9.172,9.172,0,0,1-1.7-.777,2.321,2.321,0,0,1-.75-.754,1.966,1.966,0,0,1-.246-1.008,1.921,1.921,0,0,1,.852-1.652,3.968,3.968,0,0,1,2.336-.605,6.835,6.835,0,0,1,2.7.563L288.922,9.9a6.2,6.2,0,0,0-2.336-.531,2.687,2.687,0,0,0-1.391.289.894.894,0,0,0-.469.8.971.971,0,0,0,.176.586,1.735,1.735,0,0,0,.566.461,12.656,12.656,0,0,0,1.5.633,5.6,5.6,0,0,1,2.059,1.117A1.97,1.97,0,0,1,289.563,14.664ZM296.938,17l-.258-1.219h-.062a3.6,3.6,0,0,1-1.277,1.09,3.893,3.893,0,0,1-1.59.285,2.86,2.86,0,0,1-2-.656,2.394,2.394,0,0,1-.723-1.867q0-2.594,4.148-2.719l1.453-.047v-.531a2.171,2.171,0,0,0-.434-1.488,1.783,1.783,0,0,0-1.387-.48,5.65,5.65,0,0,0-2.422.656l-.4-.992a6.094,6.094,0,0,1,1.387-.539,6.006,6.006,0,0,1,1.512-.2,3.262,3.262,0,0,1,2.27.68,2.837,2.837,0,0,1,.738,2.18V17Zm-2.93-.914a2.632,2.632,0,0,0,1.9-.664,2.457,2.457,0,0,0,.691-1.859v-.773l-1.3.055a4.717,4.717,0,0,0-2.23.48,1.449,1.449,0,0,0-.684,1.324,1.336,1.336,0,0,0,.426,1.07A1.767,1.767,0,0,0,294.008,16.086ZM304.555,8.3a3.183,3.183,0,0,1,2.621,1.152,5.058,5.058,0,0,1,.934,3.262,5.1,5.1,0,0,1-.941,3.277,3.17,3.17,0,0,1-2.613,1.168,3.706,3.706,0,0,1-1.527-.309,2.872,2.872,0,0,1-1.16-.949h-.094L301.5,17h-.93V4.844h1.3V7.8q0,.992-.062,1.781h.063A3.079,3.079,0,0,1,304.555,8.3Zm-.187,1.086a2.264,2.264,0,0,0-1.914.762,4.3,4.3,0,0,0-.586,2.566,4.285,4.285,0,0,0,.6,2.582,2.288,2.288,0,0,0,1.93.777,2,2,0,0,0,1.781-.871,4.477,4.477,0,0,0,.586-2.5,4.3,4.3,0,0,0-.586-2.492A2.076,2.076,0,0,0,304.367,9.383Zm7.3,7.617h-1.3V4.844h1.3Zm6.367.156a3.934,3.934,0,0,1-3-1.156,4.476,4.476,0,0,1-1.1-3.211,4.964,4.964,0,0,1,1.02-3.289A3.387,3.387,0,0,1,317.7,8.281,3.229,3.229,0,0,1,320.25,9.34a4.057,4.057,0,0,1,.938,2.793v.82h-5.9a3.394,3.394,0,0,0,.762,2.289,2.635,2.635,0,0,0,2.035.781,6.9,6.9,0,0,0,2.734-.578V16.6a6.864,6.864,0,0,1-1.3.426A7.31,7.31,0,0,1,318.039,17.156Zm-.352-7.789a2.118,2.118,0,0,0-1.645.672,3.1,3.1,0,0,0-.723,1.859H319.8a2.851,2.851,0,0,0-.547-1.879A1.925,1.925,0,0,0,317.688,9.367Zm15.7,6.484h-.07a3.047,3.047,0,0,1-2.687,1.3,3.179,3.179,0,0,1-2.613-1.148,5.055,5.055,0,0,1-.934-3.266,5.141,5.141,0,0,1,.938-3.289,3.155,3.155,0,0,1,2.609-1.172A3.114,3.114,0,0,1,333.3,9.547h.1l-.055-.617-.031-.6V4.844h1.3V17h-1.055Zm-2.594.219a2.361,2.361,0,0,0,1.926-.723,3.652,3.652,0,0,0,.6-2.332v-.273a4.3,4.3,0,0,0-.605-2.6,2.3,2.3,0,0,0-1.934-.777,1.985,1.985,0,0,0-1.746.887,4.409,4.409,0,0,0-.605,2.5,4.227,4.227,0,0,0,.6,2.477A2.037,2.037,0,0,0,330.789,16.07Zm10.188,1.086a3.934,3.934,0,0,1-3-1.156,4.476,4.476,0,0,1-1.1-3.211A4.964,4.964,0,0,1,337.9,9.5a3.387,3.387,0,0,1,2.738-1.219,3.229,3.229,0,0,1,2.547,1.059,4.057,4.057,0,0,1,.938,2.793v.82h-5.9a3.394,3.394,0,0,0,.762,2.289,2.635,2.635,0,0,0,2.035.781,6.9,6.9,0,0,0,2.734-.578V16.6a6.864,6.864,0,0,1-1.3.426A7.31,7.31,0,0,1,340.977,17.156Zm-.352-7.789a2.118,2.118,0,0,0-1.645.672,3.1,3.1,0,0,0-.723,1.859h4.477a2.851,2.851,0,0,0-.547-1.879A1.925,1.925,0,0,0,340.625,9.367Zm15.391,5.3a2.145,2.145,0,0,1-.891,1.844,4.186,4.186,0,0,1-2.5.648,5.436,5.436,0,0,1-2.656-.539v-1.2a6.424,6.424,0,0,0,1.324.492,5.53,5.53,0,0,0,1.363.18,3.092,3.092,0,0,0,1.563-.324,1.116,1.116,0,0,0,.113-1.844,6.821,6.821,0,0,0-1.691-.84,9.172,9.172,0,0,1-1.7-.777,2.321,2.321,0,0,1-.75-.754,1.966,1.966,0,0,1-.246-1.008,1.921,1.921,0,0,1,.852-1.652,3.968,3.968,0,0,1,2.336-.605,6.835,6.835,0,0,1,2.7.563L355.375,9.9a6.2,6.2,0,0,0-2.336-.531,2.687,2.687,0,0,0-1.391.289.894.894,0,0,0-.469.8.971.971,0,0,0,.176.586,1.735,1.735,0,0,0,.566.461,12.656,12.656,0,0,0,1.5.633,5.6,5.6,0,0,1,2.059,1.117A1.97,1.97,0,0,1,356.016,14.664Zm5.727,2.492a3.934,3.934,0,0,1-3-1.156,4.476,4.476,0,0,1-1.1-3.211,4.964,4.964,0,0,1,1.02-3.289,3.387,3.387,0,0,1,2.738-1.219,3.229,3.229,0,0,1,2.547,1.059,4.057,4.057,0,0,1,.938,2.793v.82h-5.9a3.394,3.394,0,0,0,.762,2.289,2.635,2.635,0,0,0,2.035.781,6.9,6.9,0,0,0,2.734-.578V16.6a6.864,6.864,0,0,1-1.3.426A7.31,7.31,0,0,1,361.742,17.156Zm-.352-7.789a2.118,2.118,0,0,0-1.645.672,3.1,3.1,0,0,0-.723,1.859H363.5a2.851,2.851,0,0,0-.547-1.879A1.925,1.925,0,0,0,361.391,9.367ZM368.4,17h-1.3V4.844h1.3Zm6.367.156a3.934,3.934,0,0,1-3-1.156,4.476,4.476,0,0,1-1.1-3.211,4.964,4.964,0,0,1,1.02-3.289,3.387,3.387,0,0,1,2.738-1.219,3.229,3.229,0,0,1,2.547,1.059,4.057,4.057,0,0,1,.938,2.793v.82h-5.9a3.394,3.394,0,0,0,.762,2.289,2.635,2.635,0,0,0,2.035.781,6.9,6.9,0,0,0,2.734-.578V16.6a6.864,6.864,0,0,1-1.3.426A7.31,7.31,0,0,1,374.766,17.156Zm-.352-7.789a2.118,2.118,0,0,0-1.645.672,3.1,3.1,0,0,0-.723,1.859h4.477a2.851,2.851,0,0,0-.547-1.879A1.925,1.925,0,0,0,374.414,9.367Zm9.133,7.789a3.654,3.654,0,0,1-2.879-1.145,4.707,4.707,0,0,1-1.02-3.238,4.853,4.853,0,0,1,1.035-3.32,3.727,3.727,0,0,1,2.949-1.172,5.852,5.852,0,0,1,1.234.133,4.066,4.066,0,0,1,.969.313l-.4,1.1a6.1,6.1,0,0,0-.937-.285,4.186,4.186,0,0,0-.9-.113q-2.609,0-2.609,3.328a3.963,3.963,0,0,0,.637,2.422,2.215,2.215,0,0,0,1.887.844,5.769,5.769,0,0,0,2.2-.461v1.148A4.679,4.679,0,0,1,383.547,17.156Zm7.617,0a3.654,3.654,0,0,1-2.879-1.145,4.707,4.707,0,0,1-1.02-3.238,4.853,4.853,0,0,1,1.035-3.32,3.727,3.727,0,0,1,2.949-1.172,5.852,5.852,0,0,1,1.234.133,4.066,4.066,0,0,1,.969.313l-.4,1.1a6.1,6.1,0,0,0-.937-.285,4.186,4.186,0,0,0-.9-.113q-2.609,0-2.609,3.328a3.963,3.963,0,0,0,.637,2.422,2.215,2.215,0,0,0,1.887.844,5.769,5.769,0,0,0,2.2-.461v1.148A4.679,4.679,0,0,1,391.164,17.156ZM396.656,17h-1.3V8.438h1.3ZM395.25,6.117a.861.861,0,0,1,.219-.652.81.81,0,0,1,1.086,0,.846.846,0,0,1,.227.648.859.859,0,0,1-.227.652.794.794,0,0,1-1.086,0A.877.877,0,0,1,395.25,6.117ZM406.8,12.711a4.724,4.724,0,0,1-1.055,3.27,3.714,3.714,0,0,1-2.914,1.176,3.86,3.86,0,0,1-2.039-.539,3.558,3.558,0,0,1-1.375-1.547,5.391,5.391,0,0,1-.484-2.359,4.716,4.716,0,0,1,1.047-3.262,3.7,3.7,0,0,1,2.906-1.168,3.622,3.622,0,0,1,2.855,1.2A4.7,4.7,0,0,1,406.8,12.711Zm-6.523,0a4.064,4.064,0,0,0,.656,2.5,2.6,2.6,0,0,0,3.863,0,4.044,4.044,0,0,0,.66-2.5,3.978,3.978,0,0,0-.66-2.48,2.32,2.32,0,0,0-1.949-.848,2.283,2.283,0,0,0-1.922.836A4.023,4.023,0,0,0,400.273,12.711Zm1.5-5.6q.375-.484.809-1.172a13.409,13.409,0,0,0,.684-1.2h1.578v.164a11.548,11.548,0,0,1-1.023,1.25,11.618,11.618,0,0,1-1.18,1.148h-.867ZM414.93,17V11.461a2.235,2.235,0,0,0-.477-1.562,1.941,1.941,0,0,0-1.492-.516,2.461,2.461,0,0,0-1.969.727,3.668,3.668,0,0,0-.625,2.4V17h-1.3V8.438h1.055l.211,1.172h.063a2.648,2.648,0,0,1,1.117-.98,3.63,3.63,0,0,1,1.6-.348,3.252,3.252,0,0,1,2.328.746,3.175,3.175,0,0,1,.781,2.387V17Zm9.336-8.562v5.555a2.235,2.235,0,0,0,.477,1.563,1.941,1.941,0,0,0,1.492.516,2.435,2.435,0,0,0,1.965-.734,3.7,3.7,0,0,0,.621-2.4v-4.5h1.3V17h-1.07l-.187-1.148h-.07a2.585,2.585,0,0,1-1.105.969,3.716,3.716,0,0,1-1.613.336,3.273,3.273,0,0,1-2.34-.742,3.159,3.159,0,0,1-.777-2.375v-5.6Zm1.359-1.328q.375-.484.809-1.172a13.409,13.409,0,0,0,.684-1.2H428.7v.164a11.548,11.548,0,0,1-1.023,1.25,11.618,11.618,0,0,1-1.18,1.148h-.867ZM438.727,17V11.461A2.235,2.235,0,0,0,438.25,9.9a1.941,1.941,0,0,0-1.492-.516,2.461,2.461,0,0,0-1.969.727,3.668,3.668,0,0,0-.625,2.4V17h-1.3V8.438h1.055l.211,1.172h.063a2.648,2.648,0,0,1,1.117-.98,3.63,3.63,0,0,1,1.6-.348,3.252,3.252,0,0,1,2.328.746,3.175,3.175,0,0,1,.781,2.387V17Zm5.258,0h-1.3V8.438h1.3ZM442.578,6.117a.861.861,0,0,1,.219-.652.81.81,0,0,1,1.086,0,.846.846,0,0,1,.227.648.859.859,0,0,1-.227.652.794.794,0,0,1-1.086,0A.877.877,0,0,1,442.578,6.117Zm7.578,11.039a3.654,3.654,0,0,1-2.879-1.145,4.707,4.707,0,0,1-1.02-3.238,4.853,4.853,0,0,1,1.035-3.32,3.727,3.727,0,0,1,2.949-1.172,5.852,5.852,0,0,1,1.234.133,4.066,4.066,0,0,1,.969.313l-.4,1.1a6.1,6.1,0,0,0-.937-.285,4.186,4.186,0,0,0-.9-.113q-2.609,0-2.609,3.328a3.963,3.963,0,0,0,.637,2.422,2.215,2.215,0,0,0,1.887.844,5.769,5.769,0,0,0,2.2-.461v1.148A4.679,4.679,0,0,1,450.156,17.156ZM459.617,17l-.258-1.219H459.3a3.6,3.6,0,0,1-1.277,1.09,3.893,3.893,0,0,1-1.59.285,2.86,2.86,0,0,1-2-.656,2.394,2.394,0,0,1-.723-1.867q0-2.594,4.148-2.719l1.453-.047v-.531a2.171,2.171,0,0,0-.434-1.488,1.783,1.783,0,0,0-1.387-.48,5.65,5.65,0,0,0-2.422.656l-.4-.992a6.094,6.094,0,0,1,1.387-.539,6.006,6.006,0,0,1,1.512-.2,3.262,3.262,0,0,1,2.27.68,2.837,2.837,0,0,1,.738,2.18V17Zm-2.93-.914a2.632,2.632,0,0,0,1.9-.664,2.457,2.457,0,0,0,.691-1.859v-.773l-1.3.055a4.717,4.717,0,0,0-2.23.48,1.449,1.449,0,0,0-.684,1.324,1.336,1.336,0,0,0,.426,1.07A1.767,1.767,0,0,0,456.688,16.086Zm6.375.086a1.164,1.164,0,0,1,.238-.793.864.864,0,0,1,.684-.27.924.924,0,0,1,.707.27,1.116,1.116,0,0,1,.254.793,1.1,1.1,0,0,1-.258.781,1.025,1.025,0,0,1-1.363.027A1.07,1.07,0,0,1,463.063,16.172ZM480.484,5.578v7.391a4.026,4.026,0,0,1-1.18,3.07,4.524,4.524,0,0,1-3.242,1.117,4.325,4.325,0,0,1-3.191-1.125,4.172,4.172,0,0,1-1.129-3.094V5.578h1.328v7.453a2.936,2.936,0,0,0,.781,2.2,3.153,3.153,0,0,0,2.3.766,3.04,3.04,0,0,0,2.227-.77,2.96,2.96,0,0,0,.781-2.207V5.578ZM489.172,17V11.461A2.235,2.235,0,0,0,488.7,9.9a1.941,1.941,0,0,0-1.492-.516,2.461,2.461,0,0,0-1.969.727,3.668,3.668,0,0,0-.625,2.4V17h-1.3V8.438h1.055l.211,1.172h.063a2.648,2.648,0,0,1,1.117-.98,3.63,3.63,0,0,1,1.6-.348,3.252,3.252,0,0,1,2.328.746,3.175,3.175,0,0,1,.781,2.387V17Zm9.227,0-.258-1.219h-.062a3.6,3.6,0,0,1-1.277,1.09,3.893,3.893,0,0,1-1.59.285,2.86,2.86,0,0,1-2-.656,2.394,2.394,0,0,1-.723-1.867q0-2.594,4.148-2.719l1.453-.047v-.531a2.171,2.171,0,0,0-.434-1.488,1.783,1.783,0,0,0-1.387-.48,5.65,5.65,0,0,0-2.422.656l-.4-.992a6.094,6.094,0,0,1,1.387-.539,6.006,6.006,0,0,1,1.512-.2,3.262,3.262,0,0,1,2.27.68,2.837,2.837,0,0,1,.738,2.18V17Zm-2.93-.914a2.632,2.632,0,0,0,1.9-.664,2.457,2.457,0,0,0,.691-1.859v-.773l-1.3.055a4.717,4.717,0,0,0-2.23.48,1.449,1.449,0,0,0-.684,1.324,1.336,1.336,0,0,0,.426,1.07A1.767,1.767,0,0,0,495.469,16.086ZM3.25,41,0,32.438H1.391l1.844,5.078a24.035,24.035,0,0,1,.734,2.313h.063a17.467,17.467,0,0,1,.543-1.715q.457-1.3,2.051-5.676H8.016L4.766,41Zm9.758.156a3.934,3.934,0,0,1-3-1.156,4.476,4.476,0,0,1-1.1-3.211A4.964,4.964,0,0,1,9.934,33.5a3.387,3.387,0,0,1,2.738-1.219,3.229,3.229,0,0,1,2.547,1.059,4.057,4.057,0,0,1,.938,2.793v.82h-5.9a3.394,3.394,0,0,0,.762,2.289,2.635,2.635,0,0,0,2.035.781,6.9,6.9,0,0,0,2.734-.578V40.6a6.863,6.863,0,0,1-1.3.426A7.31,7.31,0,0,1,13.008,41.156Zm-.352-7.789a2.118,2.118,0,0,0-1.645.672,3.1,3.1,0,0,0-.723,1.859h4.477a2.851,2.851,0,0,0-.547-1.879A1.925,1.925,0,0,0,12.656,33.367ZM23.844,41H17.633v-.883L22.3,33.445H17.922V32.438h5.8v1.008l-4.609,6.547h4.727Zm9.4-.93a2.356,2.356,0,0,0,1.891-.7,3.766,3.766,0,0,0,.633-2.344v-.289a4.282,4.282,0,0,0-.609-2.586,2.285,2.285,0,0,0-1.93-.789,1.985,1.985,0,0,0-1.746.887,4.409,4.409,0,0,0-.605,2.5,4.258,4.258,0,0,0,.6,2.465A2.025,2.025,0,0,0,33.242,40.07Zm-.2,1.086a3.124,3.124,0,0,1-2.586-1.164,5.082,5.082,0,0,1-.93-3.25,5.147,5.147,0,0,1,.938-3.281,3.444,3.444,0,0,1,5.313.148h.07l.188-1.172h1.023V44.844h-1.3V41.18a8.726,8.726,0,0,1,.086-1.328h-.1A3.063,3.063,0,0,1,33.047,41.156Zm7.984-8.719v5.555a2.235,2.235,0,0,0,.477,1.563A1.941,1.941,0,0,0,43,40.07a2.435,2.435,0,0,0,1.965-.734,3.7,3.7,0,0,0,.621-2.4v-4.5h1.3V41h-1.07l-.187-1.148h-.07a2.585,2.585,0,0,1-1.105.969,3.716,3.716,0,0,1-1.613.336,3.273,3.273,0,0,1-2.34-.742,3.159,3.159,0,0,1-.777-2.375v-5.6ZM53.25,41.156a3.934,3.934,0,0,1-3-1.156,4.476,4.476,0,0,1-1.1-3.211,4.964,4.964,0,0,1,1.02-3.289,3.387,3.387,0,0,1,2.738-1.219,3.229,3.229,0,0,1,2.547,1.059,4.057,4.057,0,0,1,.938,2.793v.82H50.5a3.394,3.394,0,0,0,.762,2.289,2.635,2.635,0,0,0,2.035.781,6.9,6.9,0,0,0,2.734-.578V40.6a6.863,6.863,0,0,1-1.3.426A7.31,7.31,0,0,1,53.25,41.156ZM52.9,33.367a2.118,2.118,0,0,0-1.645.672,3.1,3.1,0,0,0-.723,1.859h4.477a2.851,2.851,0,0,0-.547-1.879A1.925,1.925,0,0,0,52.9,33.367Zm15.391,5.3a2.145,2.145,0,0,1-.891,1.844,4.186,4.186,0,0,1-2.5.648,5.436,5.436,0,0,1-2.656-.539v-1.2a6.424,6.424,0,0,0,1.324.492,5.53,5.53,0,0,0,1.363.18,3.092,3.092,0,0,0,1.563-.324,1.116,1.116,0,0,0,.113-1.844,6.82,6.82,0,0,0-1.691-.84,9.172,9.172,0,0,1-1.7-.777,2.321,2.321,0,0,1-.75-.754,1.966,1.966,0,0,1-.246-1.008,1.921,1.921,0,0,1,.852-1.652,3.968,3.968,0,0,1,2.336-.605,6.835,6.835,0,0,1,2.7.563L67.648,33.9a6.2,6.2,0,0,0-2.336-.531,2.688,2.688,0,0,0-1.391.289.894.894,0,0,0-.469.8.971.971,0,0,0,.176.586,1.735,1.735,0,0,0,.566.461,12.658,12.658,0,0,0,1.5.633,5.6,5.6,0,0,1,2.059,1.117A1.97,1.97,0,0,1,68.289,38.664Zm5.727,2.492a3.934,3.934,0,0,1-3-1.156,4.476,4.476,0,0,1-1.1-3.211,4.964,4.964,0,0,1,1.02-3.289,3.387,3.387,0,0,1,2.738-1.219,3.229,3.229,0,0,1,2.547,1.059,4.057,4.057,0,0,1,.938,2.793v.82h-5.9a3.394,3.394,0,0,0,.762,2.289,2.635,2.635,0,0,0,2.035.781,6.9,6.9,0,0,0,2.734-.578V40.6a6.863,6.863,0,0,1-1.3.426A7.31,7.31,0,0,1,74.016,41.156Zm-.352-7.789a2.118,2.118,0,0,0-1.645.672A3.1,3.1,0,0,0,71.3,35.9h4.477a2.851,2.851,0,0,0-.547-1.879A1.925,1.925,0,0,0,73.664,33.367ZM88.8,41l-.258-1.219h-.062a3.6,3.6,0,0,1-1.277,1.09,3.893,3.893,0,0,1-1.59.285,2.86,2.86,0,0,1-2-.656,2.394,2.394,0,0,1-.723-1.867q0-2.594,4.148-2.719l1.453-.047v-.531a2.171,2.171,0,0,0-.434-1.488,1.783,1.783,0,0,0-1.387-.48,5.65,5.65,0,0,0-2.422.656l-.4-.992a6.094,6.094,0,0,1,1.387-.539,6.006,6.006,0,0,1,1.512-.2,3.262,3.262,0,0,1,2.27.68,2.837,2.837,0,0,1,.738,2.18V41Zm-2.93-.914a2.632,2.632,0,0,0,1.9-.664,2.457,2.457,0,0,0,.691-1.859v-.773l-1.3.055a4.717,4.717,0,0,0-2.23.48,1.449,1.449,0,0,0-.684,1.324,1.336,1.336,0,0,0,.426,1.07A1.767,1.767,0,0,0,85.867,40.086Zm9.984,1.07a3.654,3.654,0,0,1-2.879-1.145,4.707,4.707,0,0,1-1.02-3.238,4.853,4.853,0,0,1,1.035-3.32,3.727,3.727,0,0,1,2.949-1.172,5.852,5.852,0,0,1,1.234.133,4.066,4.066,0,0,1,.969.313l-.4,1.1a6.1,6.1,0,0,0-.937-.285,4.186,4.186,0,0,0-.9-.113q-2.609,0-2.609,3.328a3.963,3.963,0,0,0,.637,2.422,2.215,2.215,0,0,0,1.887.844,5.769,5.769,0,0,0,2.2-.461v1.148A4.679,4.679,0,0,1,95.852,41.156Zm7.617,0a3.654,3.654,0,0,1-2.879-1.145,4.707,4.707,0,0,1-1.02-3.238,4.853,4.853,0,0,1,1.035-3.32,3.727,3.727,0,0,1,2.949-1.172,5.852,5.852,0,0,1,1.234.133,4.066,4.066,0,0,1,.969.313l-.4,1.1a6.1,6.1,0,0,0-.937-.285,4.186,4.186,0,0,0-.9-.113q-2.609,0-2.609,3.328a3.963,3.963,0,0,0,.637,2.422,2.215,2.215,0,0,0,1.887.844,5.769,5.769,0,0,0,2.2-.461v1.148A4.679,4.679,0,0,1,103.469,41.156ZM108.961,41h-1.3V32.438h1.3Zm-1.406-10.883a.861.861,0,0,1,.219-.652.81.81,0,0,1,1.086,0,.846.846,0,0,1,.227.648.859.859,0,0,1-.227.652.794.794,0,0,1-1.086,0A.877.877,0,0,1,107.555,30.117ZM119.1,36.711a4.724,4.724,0,0,1-1.055,3.27,3.714,3.714,0,0,1-2.914,1.176,3.86,3.86,0,0,1-2.039-.539,3.558,3.558,0,0,1-1.375-1.547,5.391,5.391,0,0,1-.484-2.359,4.716,4.716,0,0,1,1.047-3.262,3.7,3.7,0,0,1,2.906-1.168,3.622,3.622,0,0,1,2.855,1.2A4.7,4.7,0,0,1,119.1,36.711Zm-6.523,0a4.064,4.064,0,0,0,.656,2.5,2.6,2.6,0,0,0,3.863,0,4.043,4.043,0,0,0,.66-2.5,3.978,3.978,0,0,0-.66-2.48,2.32,2.32,0,0,0-1.949-.848,2.283,2.283,0,0,0-1.922.836A4.023,4.023,0,0,0,112.578,36.711ZM127.234,41V35.461a2.235,2.235,0,0,0-.477-1.562,1.941,1.941,0,0,0-1.492-.516,2.461,2.461,0,0,0-1.969.727,3.668,3.668,0,0,0-.625,2.4V41h-1.3V32.438h1.055l.211,1.172h.063a2.648,2.648,0,0,1,1.117-.98,3.63,3.63,0,0,1,1.6-.348,3.252,3.252,0,0,1,2.328.746,3.175,3.175,0,0,1,.781,2.387V41Zm7.578.156a3.934,3.934,0,0,1-3-1.156,4.476,4.476,0,0,1-1.1-3.211,4.964,4.964,0,0,1,1.02-3.289,3.387,3.387,0,0,1,2.738-1.219,3.229,3.229,0,0,1,2.547,1.059,4.057,4.057,0,0,1,.938,2.793v.82h-5.9a3.394,3.394,0,0,0,.762,2.289,2.634,2.634,0,0,0,2.035.781,6.9,6.9,0,0,0,2.734-.578V40.6a6.863,6.863,0,0,1-1.3.426A7.31,7.31,0,0,1,134.813,41.156Zm-.352-7.789a2.118,2.118,0,0,0-1.645.672,3.1,3.1,0,0,0-.723,1.859h4.477a2.851,2.851,0,0,0-.547-1.879A1.925,1.925,0,0,0,134.461,33.367Zm15.391,5.3a2.145,2.145,0,0,1-.891,1.844,4.186,4.186,0,0,1-2.5.648,5.436,5.436,0,0,1-2.656-.539v-1.2a6.424,6.424,0,0,0,1.324.492,5.53,5.53,0,0,0,1.363.18,3.092,3.092,0,0,0,1.563-.324,1.116,1.116,0,0,0,.113-1.844,6.82,6.82,0,0,0-1.691-.84,9.172,9.172,0,0,1-1.7-.777,2.321,2.321,0,0,1-.75-.754,1.966,1.966,0,0,1-.246-1.008,1.921,1.921,0,0,1,.852-1.652,3.968,3.968,0,0,1,2.336-.605,6.835,6.835,0,0,1,2.7.563l-.461,1.055a6.2,6.2,0,0,0-2.336-.531,2.688,2.688,0,0,0-1.391.289.894.894,0,0,0-.469.8.971.971,0,0,0,.176.586,1.735,1.735,0,0,0,.566.461,12.659,12.659,0,0,0,1.5.633,5.6,5.6,0,0,1,2.059,1.117A1.97,1.97,0,0,1,149.852,38.664Zm9.5-1.953a4.724,4.724,0,0,1-1.055,3.27,3.714,3.714,0,0,1-2.914,1.176,3.86,3.86,0,0,1-2.039-.539,3.558,3.558,0,0,1-1.375-1.547,5.391,5.391,0,0,1-.484-2.359,4.716,4.716,0,0,1,1.047-3.262,3.7,3.7,0,0,1,2.906-1.168,3.622,3.622,0,0,1,2.855,1.2A4.7,4.7,0,0,1,159.352,36.711Zm-6.523,0a4.064,4.064,0,0,0,.656,2.5,2.6,2.6,0,0,0,3.863,0,4.043,4.043,0,0,0,.66-2.5,3.978,3.978,0,0,0-.66-2.48,2.32,2.32,0,0,0-1.949-.848,2.283,2.283,0,0,0-1.922.836A4.023,4.023,0,0,0,152.828,36.711ZM165.609,32.3a3.183,3.183,0,0,1,2.621,1.152,5.058,5.058,0,0,1,.934,3.262,5.1,5.1,0,0,1-.941,3.277,3.17,3.17,0,0,1-2.613,1.168,3.705,3.705,0,0,1-1.527-.309,2.872,2.872,0,0,1-1.16-.949h-.094l-.273,1.1h-.93V28.844h1.3V31.8q0,.992-.062,1.781h.063A3.079,3.079,0,0,1,165.609,32.3Zm-.187,1.086a2.264,2.264,0,0,0-1.914.762,4.3,4.3,0,0,0-.586,2.566,4.285,4.285,0,0,0,.6,2.582,2.288,2.288,0,0,0,1.93.777,2,2,0,0,0,1.781-.871,4.477,4.477,0,0,0,.586-2.5,4.3,4.3,0,0,0-.586-2.492A2.076,2.076,0,0,0,165.422,33.383Zm9.914-1.1a5.075,5.075,0,0,1,1.023.094l-.18,1.2a4.418,4.418,0,0,0-.937-.117,2.282,2.282,0,0,0-1.777.844,3.077,3.077,0,0,0-.738,2.1V41h-1.3V32.438h1.07l.148,1.586h.063a3.764,3.764,0,0,1,1.148-1.289A2.585,2.585,0,0,1,175.336,32.281Zm6.242,8.875a3.934,3.934,0,0,1-3-1.156,4.476,4.476,0,0,1-1.1-3.211A4.964,4.964,0,0,1,178.5,33.5a3.387,3.387,0,0,1,2.738-1.219,3.229,3.229,0,0,1,2.547,1.059,4.057,4.057,0,0,1,.938,2.793v.82h-5.9a3.394,3.394,0,0,0,.762,2.289,2.634,2.634,0,0,0,2.035.781,6.9,6.9,0,0,0,2.734-.578V40.6a6.863,6.863,0,0,1-1.3.426A7.31,7.31,0,0,1,181.578,41.156Zm-.352-7.789a2.118,2.118,0,0,0-1.645.672,3.1,3.1,0,0,0-.723,1.859h4.477a2.851,2.851,0,0,0-.547-1.879A1.925,1.925,0,0,0,181.227,33.367Zm13.484,7.789a3.934,3.934,0,0,1-3-1.156,4.476,4.476,0,0,1-1.1-3.211,4.964,4.964,0,0,1,1.02-3.289,3.387,3.387,0,0,1,2.738-1.219,3.229,3.229,0,0,1,2.547,1.059,4.057,4.057,0,0,1,.938,2.793v.82h-5.9a3.394,3.394,0,0,0,.762,2.289,2.634,2.634,0,0,0,2.035.781,6.9,6.9,0,0,0,2.734-.578V40.6a6.863,6.863,0,0,1-1.3.426A7.31,7.31,0,0,1,194.711,41.156Zm-.352-7.789a2.118,2.118,0,0,0-1.645.672,3.1,3.1,0,0,0-.723,1.859h4.477a2.851,2.851,0,0,0-.547-1.879A1.925,1.925,0,0,0,194.359,33.367ZM201.367,41h-1.3V28.844h1.3Zm12.172,0-.258-1.219h-.062a3.6,3.6,0,0,1-1.277,1.09,3.893,3.893,0,0,1-1.59.285,2.86,2.86,0,0,1-2-.656,2.394,2.394,0,0,1-.723-1.867q0-2.594,4.148-2.719l1.453-.047v-.531a2.171,2.171,0,0,0-.434-1.488,1.783,1.783,0,0,0-1.387-.48,5.65,5.65,0,0,0-2.422.656l-.4-.992a6.094,6.094,0,0,1,1.387-.539,6.006,6.006,0,0,1,1.512-.2,3.262,3.262,0,0,1,2.27.68,2.837,2.837,0,0,1,.738,2.18V41Zm-2.93-.914a2.632,2.632,0,0,0,1.9-.664,2.457,2.457,0,0,0,.691-1.859v-.773l-1.3.055a4.717,4.717,0,0,0-2.23.48,1.449,1.449,0,0,0-.684,1.324,1.336,1.336,0,0,0,.426,1.07A1.767,1.767,0,0,0,210.609,40.086Zm-.3-8.977q.375-.484.809-1.172a13.413,13.413,0,0,0,.684-1.2h1.578v.164a14.473,14.473,0,0,1-2.2,2.4H210.3Zm10.773,1.172a5.075,5.075,0,0,1,1.023.094l-.18,1.2a4.418,4.418,0,0,0-.937-.117,2.282,2.282,0,0,0-1.777.844,3.077,3.077,0,0,0-.738,2.1V41h-1.3V32.438h1.07l.148,1.586h.063a3.764,3.764,0,0,1,1.148-1.289A2.585,2.585,0,0,1,221.078,32.281Zm6.242,8.875a3.934,3.934,0,0,1-3-1.156,4.476,4.476,0,0,1-1.1-3.211,4.964,4.964,0,0,1,1.02-3.289,3.387,3.387,0,0,1,2.738-1.219,3.229,3.229,0,0,1,2.547,1.059,4.057,4.057,0,0,1,.938,2.793v.82h-5.9a3.394,3.394,0,0,0,.762,2.289,2.634,2.634,0,0,0,2.035.781,6.9,6.9,0,0,0,2.734-.578V40.6a6.863,6.863,0,0,1-1.3.426A7.31,7.31,0,0,1,227.32,41.156Zm-.352-7.789a2.118,2.118,0,0,0-1.645.672A3.1,3.1,0,0,0,224.6,35.9h4.477a2.851,2.851,0,0,0-.547-1.879A1.925,1.925,0,0,0,226.969,33.367ZM237.945,41l-.258-1.219h-.062a3.6,3.6,0,0,1-1.277,1.09,3.893,3.893,0,0,1-1.59.285,2.86,2.86,0,0,1-2-.656,2.394,2.394,0,0,1-.723-1.867q0-2.594,4.148-2.719l1.453-.047v-.531a2.171,2.171,0,0,0-.434-1.488,1.783,1.783,0,0,0-1.387-.48,5.65,5.65,0,0,0-2.422.656l-.4-.992a6.094,6.094,0,0,1,1.387-.539,6.006,6.006,0,0,1,1.512-.2,3.262,3.262,0,0,1,2.27.68,2.837,2.837,0,0,1,.738,2.18V41Zm-2.93-.914a2.632,2.632,0,0,0,1.9-.664,2.457,2.457,0,0,0,.691-1.859v-.773l-1.3.055a4.717,4.717,0,0,0-2.23.48,1.449,1.449,0,0,0-.684,1.324,1.336,1.336,0,0,0,.426,1.07A1.767,1.767,0,0,0,235.016,40.086Zm16.547-.234h-.07a3.047,3.047,0,0,1-2.687,1.3,3.179,3.179,0,0,1-2.613-1.148,5.055,5.055,0,0,1-.934-3.266,5.141,5.141,0,0,1,.938-3.289,3.155,3.155,0,0,1,2.609-1.172,3.114,3.114,0,0,1,2.672,1.266h.1l-.055-.617-.031-.6V28.844h1.3V41h-1.055Zm-2.594.219a2.361,2.361,0,0,0,1.926-.723,3.652,3.652,0,0,0,.6-2.332v-.273a4.3,4.3,0,0,0-.605-2.6,2.3,2.3,0,0,0-1.934-.777,1.985,1.985,0,0,0-1.746.887,4.409,4.409,0,0,0-.605,2.5,4.227,4.227,0,0,0,.6,2.477A2.037,2.037,0,0,0,248.969,40.07Zm10.188,1.086a3.934,3.934,0,0,1-3-1.156,4.476,4.476,0,0,1-1.1-3.211,4.964,4.964,0,0,1,1.02-3.289,3.387,3.387,0,0,1,2.738-1.219,3.229,3.229,0,0,1,2.547,1.059,4.057,4.057,0,0,1,.938,2.793v.82h-5.9a3.394,3.394,0,0,0,.762,2.289,2.635,2.635,0,0,0,2.035.781,6.9,6.9,0,0,0,2.734-.578V40.6a6.863,6.863,0,0,1-1.3.426A7.31,7.31,0,0,1,259.156,41.156Zm-.352-7.789a2.118,2.118,0,0,0-1.645.672,3.1,3.1,0,0,0-.723,1.859h4.477a2.851,2.851,0,0,0-.547-1.879A1.925,1.925,0,0,0,258.8,33.367Zm12.633,6.719a4.236,4.236,0,0,0,.664-.051,4.3,4.3,0,0,0,.508-.105v.992a2.371,2.371,0,0,1-.621.168,4.664,4.664,0,0,1-.738.066q-2.484,0-2.484-2.617V33.445h-1.227V32.82l1.227-.539.547-1.828h.75v1.984h2.484v1.008h-2.484v5.039a1.734,1.734,0,0,0,.367,1.188A1.278,1.278,0,0,0,271.438,40.086Zm4.18.914h-1.3V32.438h1.3Zm-1.352-9.891q.375-.484.809-1.172a13.409,13.409,0,0,0,.684-1.2h1.578v.164a14.473,14.473,0,0,1-2.2,2.4h-.867Zm6.867,8.977a4.236,4.236,0,0,0,.664-.051,4.3,4.3,0,0,0,.508-.105v.992a2.371,2.371,0,0,1-.621.168,4.664,4.664,0,0,1-.738.066q-2.484,0-2.484-2.617V33.445h-1.227V32.82l1.227-.539.547-1.828h.75v1.984h2.484v1.008h-2.484v5.039a1.734,1.734,0,0,0,.367,1.188A1.278,1.278,0,0,0,281.133,40.086Zm4.1-7.648v5.555a2.235,2.235,0,0,0,.477,1.563,1.941,1.941,0,0,0,1.492.516,2.435,2.435,0,0,0,1.965-.734,3.7,3.7,0,0,0,.621-2.4v-4.5h1.3V41h-1.07l-.187-1.148h-.07a2.585,2.585,0,0,1-1.105.969,3.716,3.716,0,0,1-1.613.336,3.273,3.273,0,0,1-2.34-.742,3.159,3.159,0,0,1-.777-2.375v-5.6Zm9.9,8.563h-1.3V28.844h1.3Zm10.141-4.289a4.724,4.724,0,0,1-1.055,3.27,3.714,3.714,0,0,1-2.914,1.176,3.86,3.86,0,0,1-2.039-.539,3.558,3.558,0,0,1-1.375-1.547,5.391,5.391,0,0,1-.484-2.359,4.716,4.716,0,0,1,1.047-3.262,3.7,3.7,0,0,1,2.906-1.168,3.622,3.622,0,0,1,2.855,1.2A4.7,4.7,0,0,1,305.273,36.711Zm-6.523,0a4.064,4.064,0,0,0,.656,2.5,2.6,2.6,0,0,0,3.863,0,4.044,4.044,0,0,0,.66-2.5,3.978,3.978,0,0,0-.66-2.48,2.32,2.32,0,0,0-1.949-.848,2.283,2.283,0,0,0-1.922.836A4.023,4.023,0,0,0,298.75,36.711Zm14.32,1.953a2.145,2.145,0,0,1-.891,1.844,4.186,4.186,0,0,1-2.5.648,5.436,5.436,0,0,1-2.656-.539v-1.2a6.424,6.424,0,0,0,1.324.492,5.53,5.53,0,0,0,1.363.18,3.092,3.092,0,0,0,1.563-.324,1.116,1.116,0,0,0,.113-1.844,6.821,6.821,0,0,0-1.691-.84A9.172,9.172,0,0,1,308,36.3a2.321,2.321,0,0,1-.75-.754A1.966,1.966,0,0,1,307,34.539a1.921,1.921,0,0,1,.852-1.652,3.968,3.968,0,0,1,2.336-.605,6.835,6.835,0,0,1,2.7.563L312.43,33.9a6.2,6.2,0,0,0-2.336-.531,2.687,2.687,0,0,0-1.391.289.894.894,0,0,0-.469.8.971.971,0,0,0,.176.586,1.735,1.735,0,0,0,.566.461,12.657,12.657,0,0,0,1.5.633,5.6,5.6,0,0,1,2.059,1.117A1.97,1.97,0,0,1,313.07,38.664Zm3.469.477.117.18q-.2.781-.586,1.816t-.8,1.926H314.3q.211-.813.465-2.008t.355-1.914Zm12.242-.477a2.145,2.145,0,0,1-.891,1.844,4.186,4.186,0,0,1-2.5.648,5.436,5.436,0,0,1-2.656-.539v-1.2a6.424,6.424,0,0,0,1.324.492,5.53,5.53,0,0,0,1.363.18,3.092,3.092,0,0,0,1.563-.324,1.116,1.116,0,0,0,.113-1.844,6.821,6.821,0,0,0-1.691-.84,9.172,9.172,0,0,1-1.7-.777,2.321,2.321,0,0,1-.75-.754,1.966,1.966,0,0,1-.246-1.008,1.921,1.921,0,0,1,.852-1.652,3.968,3.968,0,0,1,2.336-.605,6.835,6.835,0,0,1,2.7.563l-.461,1.055a6.2,6.2,0,0,0-2.336-.531,2.687,2.687,0,0,0-1.391.289.894.894,0,0,0-.469.8.971.971,0,0,0,.176.586,1.735,1.735,0,0,0,.566.461,12.657,12.657,0,0,0,1.5.633,5.6,5.6,0,0,1,2.059,1.117A1.97,1.97,0,0,1,328.781,38.664Zm5.727,2.492a3.934,3.934,0,0,1-3-1.156,4.476,4.476,0,0,1-1.1-3.211,4.964,4.964,0,0,1,1.02-3.289,3.387,3.387,0,0,1,2.738-1.219,3.229,3.229,0,0,1,2.547,1.059,4.057,4.057,0,0,1,.938,2.793v.82h-5.9a3.394,3.394,0,0,0,.762,2.289,2.635,2.635,0,0,0,2.035.781,6.9,6.9,0,0,0,2.734-.578V40.6a6.863,6.863,0,0,1-1.3.426A7.31,7.31,0,0,1,334.508,41.156Zm-.352-7.789a2.118,2.118,0,0,0-1.645.672,3.1,3.1,0,0,0-.723,1.859h4.477a2.851,2.851,0,0,0-.547-1.879A1.925,1.925,0,0,0,334.156,33.367ZM349.289,41l-.258-1.219h-.062a3.6,3.6,0,0,1-1.277,1.09,3.893,3.893,0,0,1-1.59.285,2.86,2.86,0,0,1-2-.656,2.394,2.394,0,0,1-.723-1.867q0-2.594,4.148-2.719l1.453-.047v-.531a2.171,2.171,0,0,0-.434-1.488,1.783,1.783,0,0,0-1.387-.48,5.65,5.65,0,0,0-2.422.656l-.4-.992a6.094,6.094,0,0,1,1.387-.539,6.006,6.006,0,0,1,1.512-.2,3.262,3.262,0,0,1,2.27.68,2.837,2.837,0,0,1,.738,2.18V41Zm-2.93-.914a2.632,2.632,0,0,0,1.9-.664,2.457,2.457,0,0,0,.691-1.859v-.773l-1.3.055a4.717,4.717,0,0,0-2.23.48,1.449,1.449,0,0,0-.684,1.324,1.336,1.336,0,0,0,.426,1.07A1.767,1.767,0,0,0,346.359,40.086ZM356.906,32.3a3.183,3.183,0,0,1,2.621,1.152,5.058,5.058,0,0,1,.934,3.262,5.1,5.1,0,0,1-.941,3.277,3.17,3.17,0,0,1-2.613,1.168,3.706,3.706,0,0,1-1.527-.309,2.872,2.872,0,0,1-1.16-.949h-.094l-.273,1.1h-.93V28.844h1.3V31.8q0,.992-.062,1.781h.063A3.079,3.079,0,0,1,356.906,32.3Zm-.187,1.086a2.264,2.264,0,0,0-1.914.762,4.3,4.3,0,0,0-.586,2.566,4.285,4.285,0,0,0,.6,2.582,2.288,2.288,0,0,0,1.93.777,2,2,0,0,0,1.781-.871,4.477,4.477,0,0,0,.586-2.5,4.3,4.3,0,0,0-.586-2.492A2.076,2.076,0,0,0,356.719,33.383Zm9.914-1.1a5.075,5.075,0,0,1,1.023.094l-.18,1.2a4.417,4.417,0,0,0-.937-.117,2.282,2.282,0,0,0-1.777.844,3.077,3.077,0,0,0-.738,2.1V41h-1.3V32.438h1.07l.148,1.586h.063a3.764,3.764,0,0,1,1.148-1.289A2.585,2.585,0,0,1,366.633,32.281ZM370.555,41h-1.3V32.438h1.3Zm-1.406-10.883a.861.861,0,0,1,.219-.652.81.81,0,0,1,1.086,0,.846.846,0,0,1,.227.648.859.859,0,0,1-.227.652.794.794,0,0,1-1.086,0A.877.877,0,0,1,369.148,30.117Zm8.063,2.164a5.075,5.075,0,0,1,1.023.094l-.18,1.2a4.417,4.417,0,0,0-.937-.117,2.282,2.282,0,0,0-1.777.844,3.077,3.077,0,0,0-.738,2.1V41h-1.3V32.438h1.07l.148,1.586h.063a3.764,3.764,0,0,1,1.148-1.289A2.585,2.585,0,0,1,377.211,32.281ZM385.1,41l-.258-1.219h-.062a3.6,3.6,0,0,1-1.277,1.09,3.893,3.893,0,0,1-1.59.285,2.86,2.86,0,0,1-2-.656,2.394,2.394,0,0,1-.723-1.867q0-2.594,4.148-2.719l1.453-.047v-.531a2.171,2.171,0,0,0-.434-1.488,1.783,1.783,0,0,0-1.387-.48,5.65,5.65,0,0,0-2.422.656l-.4-.992a6.094,6.094,0,0,1,1.387-.539,6.006,6.006,0,0,1,1.512-.2,3.262,3.262,0,0,1,2.27.68,2.837,2.837,0,0,1,.738,2.18V41Zm-2.93-.914a2.632,2.632,0,0,0,1.9-.664,2.457,2.457,0,0,0,.691-1.859v-.773l-1.3.055a4.717,4.717,0,0,0-2.23.48,1.449,1.449,0,0,0-.684,1.324,1.336,1.336,0,0,0,.426,1.07A1.767,1.767,0,0,0,382.172,40.086Zm-.3-8.977q.375-.484.809-1.172a13.409,13.409,0,0,0,.684-1.2h1.578v.164a14.473,14.473,0,0,1-2.2,2.4h-.867Zm14.641,10.047a3.934,3.934,0,0,1-3-1.156,4.476,4.476,0,0,1-1.1-3.211,4.964,4.964,0,0,1,1.02-3.289,3.387,3.387,0,0,1,2.738-1.219,3.229,3.229,0,0,1,2.547,1.059,4.057,4.057,0,0,1,.938,2.793v.82h-5.9a3.394,3.394,0,0,0,.762,2.289,2.635,2.635,0,0,0,2.035.781,6.9,6.9,0,0,0,2.734-.578V40.6a6.863,6.863,0,0,1-1.3.426A7.31,7.31,0,0,1,396.508,41.156Zm-.352-7.789a2.118,2.118,0,0,0-1.645.672,3.1,3.1,0,0,0-.723,1.859h4.477a2.851,2.851,0,0,0-.547-1.879A1.925,1.925,0,0,0,396.156,33.367ZM403.164,41h-1.3V28.844h1.3Zm10.328.156a3.654,3.654,0,0,1-2.879-1.145,4.707,4.707,0,0,1-1.02-3.238,4.853,4.853,0,0,1,1.035-3.32,3.727,3.727,0,0,1,2.949-1.172,5.852,5.852,0,0,1,1.234.133,4.066,4.066,0,0,1,.969.313l-.4,1.1a6.1,6.1,0,0,0-.937-.285,4.186,4.186,0,0,0-.9-.113q-2.609,0-2.609,3.328a3.963,3.963,0,0,0,.637,2.422,2.215,2.215,0,0,0,1.887.844,5.769,5.769,0,0,0,2.2-.461v1.148A4.679,4.679,0,0,1,413.492,41.156Zm11.586-4.445a4.724,4.724,0,0,1-1.055,3.27,3.714,3.714,0,0,1-2.914,1.176,3.86,3.86,0,0,1-2.039-.539A3.558,3.558,0,0,1,417.7,39.07a5.391,5.391,0,0,1-.484-2.359,4.716,4.716,0,0,1,1.047-3.262,3.7,3.7,0,0,1,2.906-1.168,3.622,3.622,0,0,1,2.855,1.2A4.7,4.7,0,0,1,425.078,36.711Zm-6.523,0a4.064,4.064,0,0,0,.656,2.5,2.6,2.6,0,0,0,3.863,0,4.044,4.044,0,0,0,.66-2.5,3.978,3.978,0,0,0-.66-2.48,2.32,2.32,0,0,0-1.949-.848,2.283,2.283,0,0,0-1.922.836A4.023,4.023,0,0,0,418.555,36.711ZM438.266,41V35.43a2.312,2.312,0,0,0-.437-1.535,1.692,1.692,0,0,0-1.359-.512,2.195,2.195,0,0,0-1.789.7,3.3,3.3,0,0,0-.578,2.141V41h-1.3V35.43a2.312,2.312,0,0,0-.437-1.535A1.7,1.7,0,0,0,431,33.383a2.118,2.118,0,0,0-1.785.73,3.953,3.953,0,0,0-.566,2.395V41h-1.3V32.438h1.055l.211,1.172h.063a2.549,2.549,0,0,1,1.035-.977,3.162,3.162,0,0,1,1.5-.352,2.544,2.544,0,0,1,2.625,1.453h.063a2.73,2.73,0,0,1,1.109-1.062,3.442,3.442,0,0,1,1.656-.391,2.9,2.9,0,0,1,2.176.746,3.338,3.338,0,0,1,.723,2.387V41Zm7.953.156a3.706,3.706,0,0,1-1.527-.309,2.872,2.872,0,0,1-1.16-.949h-.094a11.485,11.485,0,0,1,.094,1.422v3.523h-1.3V32.438h1.055l.18,1.172h.063a3.012,3.012,0,0,1,1.164-1.016,3.539,3.539,0,0,1,1.523-.312,3.165,3.165,0,0,1,2.629,1.164,5.125,5.125,0,0,1,.926,3.266,5.1,5.1,0,0,1-.941,3.277A3.17,3.17,0,0,1,446.219,41.156Zm-.187-7.773a2.3,2.3,0,0,0-1.9.727,3.739,3.739,0,0,0-.6,2.313v.289a4.285,4.285,0,0,0,.6,2.582,2.288,2.288,0,0,0,1.93.777,2.007,2.007,0,0,0,1.738-.9,4.26,4.26,0,0,0,.629-2.477,4.1,4.1,0,0,0-.629-2.457A2.069,2.069,0,0,0,446.031,33.383Zm13.4,3.328a4.724,4.724,0,0,1-1.055,3.27,3.714,3.714,0,0,1-2.914,1.176,3.86,3.86,0,0,1-2.039-.539,3.558,3.558,0,0,1-1.375-1.547,5.391,5.391,0,0,1-.484-2.359,4.716,4.716,0,0,1,1.047-3.262,3.7,3.7,0,0,1,2.906-1.168,3.622,3.622,0,0,1,2.855,1.2A4.7,4.7,0,0,1,459.43,36.711Zm-6.523,0a4.064,4.064,0,0,0,.656,2.5,2.6,2.6,0,0,0,3.863,0,4.044,4.044,0,0,0,.66-2.5,3.978,3.978,0,0,0-.66-2.48,2.32,2.32,0,0,0-1.949-.848,2.283,2.283,0,0,0-1.922.836A4.023,4.023,0,0,0,452.906,36.711ZM467.563,41V35.461a2.235,2.235,0,0,0-.477-1.562,1.941,1.941,0,0,0-1.492-.516,2.461,2.461,0,0,0-1.969.727,3.668,3.668,0,0,0-.625,2.4V41h-1.3V32.438h1.055l.211,1.172h.063a2.648,2.648,0,0,1,1.117-.98,3.63,3.63,0,0,1,1.6-.348,3.252,3.252,0,0,1,2.328.746,3.175,3.175,0,0,1,.781,2.387V41Zm7.578.156a3.934,3.934,0,0,1-3-1.156,4.476,4.476,0,0,1-1.1-3.211,4.964,4.964,0,0,1,1.02-3.289,3.387,3.387,0,0,1,2.738-1.219,3.229,3.229,0,0,1,2.547,1.059,4.057,4.057,0,0,1,.938,2.793v.82h-5.9a3.394,3.394,0,0,0,.762,2.289,2.635,2.635,0,0,0,2.035.781,6.9,6.9,0,0,0,2.734-.578V40.6a6.863,6.863,0,0,1-1.3.426A7.31,7.31,0,0,1,475.141,41.156Zm-.352-7.789a2.118,2.118,0,0,0-1.645.672,3.1,3.1,0,0,0-.723,1.859H476.9a2.851,2.851,0,0,0-.547-1.879A1.925,1.925,0,0,0,474.789,33.367ZM486.359,41V35.461a2.235,2.235,0,0,0-.477-1.562,1.941,1.941,0,0,0-1.492-.516,2.461,2.461,0,0,0-1.969.727,3.668,3.668,0,0,0-.625,2.4V41h-1.3V32.438h1.055l.211,1.172h.063a2.648,2.648,0,0,1,1.117-.98,3.63,3.63,0,0,1,1.6-.348,3.252,3.252,0,0,1,2.328.746,3.175,3.175,0,0,1,.781,2.387V41Zm6.727-.914a4.236,4.236,0,0,0,.664-.051,4.3,4.3,0,0,0,.508-.105v.992a2.371,2.371,0,0,1-.621.168,4.664,4.664,0,0,1-.738.066q-2.484,0-2.484-2.617V33.445h-1.227V32.82l1.227-.539.547-1.828h.75v1.984H494.2v1.008h-2.484v5.039a1.734,1.734,0,0,0,.367,1.188A1.278,1.278,0,0,0,493.086,40.086Zm6.5,1.07a3.934,3.934,0,0,1-3-1.156,4.476,4.476,0,0,1-1.1-3.211,4.964,4.964,0,0,1,1.02-3.289,3.387,3.387,0,0,1,2.738-1.219A3.229,3.229,0,0,1,501.8,33.34a4.057,4.057,0,0,1,.938,2.793v.82h-5.9a3.394,3.394,0,0,0,.762,2.289,2.635,2.635,0,0,0,2.035.781,6.9,6.9,0,0,0,2.734-.578V40.6a6.863,6.863,0,0,1-1.3.426A7.31,7.31,0,0,1,499.586,41.156Zm-.352-7.789a2.118,2.118,0,0,0-1.645.672,3.1,3.1,0,0,0-.723,1.859h4.477a2.851,2.851,0,0,0-.547-1.879A1.925,1.925,0,0,0,499.234,33.367ZM12.289,65V59.43a2.312,2.312,0,0,0-.437-1.535,1.692,1.692,0,0,0-1.359-.512,2.195,2.195,0,0,0-1.789.7,3.3,3.3,0,0,0-.578,2.141V65h-1.3V59.43a2.312,2.312,0,0,0-.437-1.535,1.7,1.7,0,0,0-1.367-.512,2.118,2.118,0,0,0-1.785.73,3.953,3.953,0,0,0-.566,2.395V65h-1.3V56.438H2.43l.211,1.172H2.7a2.549,2.549,0,0,1,1.035-.977,3.162,3.162,0,0,1,1.5-.352,2.544,2.544,0,0,1,2.625,1.453h.063a2.73,2.73,0,0,1,1.109-1.062,3.442,3.442,0,0,1,1.656-.391,2.9,2.9,0,0,1,2.176.746,3.338,3.338,0,0,1,.723,2.387V65Zm11.359-4.289a4.724,4.724,0,0,1-1.055,3.27,3.714,3.714,0,0,1-2.914,1.176,3.86,3.86,0,0,1-2.039-.539,3.558,3.558,0,0,1-1.375-1.547,5.391,5.391,0,0,1-.484-2.359,4.716,4.716,0,0,1,1.047-3.262,3.7,3.7,0,0,1,2.906-1.168,3.622,3.622,0,0,1,2.855,1.2A4.7,4.7,0,0,1,23.648,60.711Zm-6.523,0a4.064,4.064,0,0,0,.656,2.5,2.278,2.278,0,0,0,1.93.859,2.293,2.293,0,0,0,1.934-.855,4.043,4.043,0,0,0,.66-2.5,3.978,3.978,0,0,0-.66-2.48,2.32,2.32,0,0,0-1.949-.848,2.283,2.283,0,0,0-1.922.836A4.023,4.023,0,0,0,17.125,60.711Zm14.32,1.953a2.145,2.145,0,0,1-.891,1.844,4.186,4.186,0,0,1-2.5.648,5.436,5.436,0,0,1-2.656-.539v-1.2a6.424,6.424,0,0,0,1.324.492,5.53,5.53,0,0,0,1.363.18,3.092,3.092,0,0,0,1.563-.324,1.116,1.116,0,0,0,.113-1.844,6.82,6.82,0,0,0-1.691-.84,9.172,9.172,0,0,1-1.7-.777,2.321,2.321,0,0,1-.75-.754,1.966,1.966,0,0,1-.246-1.008,1.921,1.921,0,0,1,.852-1.652,3.968,3.968,0,0,1,2.336-.605,6.835,6.835,0,0,1,2.7.563L30.8,57.9a6.2,6.2,0,0,0-2.336-.531,2.688,2.688,0,0,0-1.391.289.894.894,0,0,0-.469.8.971.971,0,0,0,.176.586,1.735,1.735,0,0,0,.566.461,12.658,12.658,0,0,0,1.5.633A5.6,5.6,0,0,1,30.91,61.25,1.97,1.97,0,0,1,31.445,62.664Zm4.875,1.422a4.237,4.237,0,0,0,.664-.051,4.3,4.3,0,0,0,.508-.105v.992a2.371,2.371,0,0,1-.621.168,4.664,4.664,0,0,1-.738.066q-2.484,0-2.484-2.617V57.445H32.422V56.82l1.227-.539.547-1.828h.75v1.984H37.43v1.008H34.945v5.039a1.734,1.734,0,0,0,.367,1.188A1.278,1.278,0,0,0,36.32,64.086Zm6.789-7.8a5.075,5.075,0,0,1,1.023.094l-.18,1.2a4.418,4.418,0,0,0-.937-.117,2.282,2.282,0,0,0-1.777.844,3.077,3.077,0,0,0-.738,2.1V65H39.2V56.438h1.07l.148,1.586h.063a3.764,3.764,0,0,1,1.148-1.289A2.585,2.585,0,0,1,43.109,56.281ZM51,65l-.258-1.219H50.68a3.6,3.6,0,0,1-1.277,1.09,3.893,3.893,0,0,1-1.59.285,2.86,2.86,0,0,1-2-.656,2.394,2.394,0,0,1-.723-1.867q0-2.594,4.148-2.719l1.453-.047v-.531a2.171,2.171,0,0,0-.434-1.488,1.783,1.783,0,0,0-1.387-.48,5.65,5.65,0,0,0-2.422.656l-.4-.992a6.094,6.094,0,0,1,1.387-.539,6.006,6.006,0,0,1,1.512-.2,3.262,3.262,0,0,1,2.27.68,2.837,2.837,0,0,1,.738,2.18V65Zm-2.93-.914a2.632,2.632,0,0,0,1.9-.664,2.457,2.457,0,0,0,.691-1.859v-.773l-1.3.055a4.717,4.717,0,0,0-2.23.48,1.449,1.449,0,0,0-.684,1.324,1.336,1.336,0,0,0,.426,1.07A1.767,1.767,0,0,0,48.07,64.086ZM60.492,65V59.461a2.235,2.235,0,0,0-.477-1.562,1.941,1.941,0,0,0-1.492-.516,2.461,2.461,0,0,0-1.969.727,3.668,3.668,0,0,0-.625,2.4V65h-1.3V56.438h1.055l.211,1.172h.063a2.648,2.648,0,0,1,1.117-.98,3.63,3.63,0,0,1,1.6-.348,3.252,3.252,0,0,1,2.328.746,3.175,3.175,0,0,1,.781,2.387V65Zm9.789-1.148h-.07a3.047,3.047,0,0,1-2.687,1.3,3.179,3.179,0,0,1-2.613-1.148,5.055,5.055,0,0,1-.934-3.266,5.141,5.141,0,0,1,.938-3.289,3.155,3.155,0,0,1,2.609-1.172A3.114,3.114,0,0,1,70.2,57.547h.1l-.055-.617-.031-.6V52.844h1.3V65H70.453Zm-2.594.219a2.361,2.361,0,0,0,1.926-.723,3.652,3.652,0,0,0,.6-2.332v-.273a4.3,4.3,0,0,0-.605-2.6,2.3,2.3,0,0,0-1.934-.777,1.985,1.985,0,0,0-1.746.887,4.409,4.409,0,0,0-.605,2.5,4.227,4.227,0,0,0,.6,2.477A2.037,2.037,0,0,0,67.688,64.07Zm13.961-3.359a4.724,4.724,0,0,1-1.055,3.27,3.714,3.714,0,0,1-2.914,1.176,3.86,3.86,0,0,1-2.039-.539,3.558,3.558,0,0,1-1.375-1.547,5.391,5.391,0,0,1-.484-2.359,4.716,4.716,0,0,1,1.047-3.262,3.7,3.7,0,0,1,2.906-1.168,3.622,3.622,0,0,1,2.855,1.2A4.7,4.7,0,0,1,81.648,60.711Zm-6.523,0a4.064,4.064,0,0,0,.656,2.5,2.6,2.6,0,0,0,3.863,0,4.043,4.043,0,0,0,.66-2.5,3.978,3.978,0,0,0-.66-2.48,2.32,2.32,0,0,0-1.949-.848,2.283,2.283,0,0,0-1.922.836A4.023,4.023,0,0,0,75.125,60.711ZM91.7,65.156A3.934,3.934,0,0,1,88.7,64a4.476,4.476,0,0,1-1.1-3.211,4.964,4.964,0,0,1,1.02-3.289,3.387,3.387,0,0,1,2.738-1.219,3.229,3.229,0,0,1,2.547,1.059,4.057,4.057,0,0,1,.938,2.793v.82h-5.9a3.394,3.394,0,0,0,.762,2.289,2.635,2.635,0,0,0,2.035.781,6.9,6.9,0,0,0,2.734-.578V64.6a6.863,6.863,0,0,1-1.3.426A7.31,7.31,0,0,1,91.7,65.156Zm-.352-7.789a2.118,2.118,0,0,0-1.645.672,3.1,3.1,0,0,0-.723,1.859h4.477a2.851,2.851,0,0,0-.547-1.879A1.925,1.925,0,0,0,91.344,57.367ZM98.352,65h-1.3V52.844h1.3Zm12.172,0-.258-1.219H110.2a3.6,3.6,0,0,1-1.277,1.09,3.893,3.893,0,0,1-1.59.285,2.86,2.86,0,0,1-2-.656,2.394,2.394,0,0,1-.723-1.867q0-2.594,4.148-2.719l1.453-.047v-.531a2.171,2.171,0,0,0-.434-1.488,1.783,1.783,0,0,0-1.387-.48,5.65,5.65,0,0,0-2.422.656l-.4-.992a6.094,6.094,0,0,1,1.387-.539,6.006,6.006,0,0,1,1.512-.2,3.262,3.262,0,0,1,2.27.68,2.837,2.837,0,0,1,.738,2.18V65Zm-2.93-.914a2.632,2.632,0,0,0,1.9-.664,2.457,2.457,0,0,0,.691-1.859v-.773l-1.3.055a4.717,4.717,0,0,0-2.23.48,1.449,1.449,0,0,0-.684,1.324,1.336,1.336,0,0,0,.426,1.07A1.767,1.767,0,0,0,107.594,64.086Zm-.3-8.977q.375-.484.809-1.172a13.41,13.41,0,0,0,.684-1.2h1.578v.164a14.473,14.473,0,0,1-2.2,2.4h-.867Zm10.773,1.172a5.075,5.075,0,0,1,1.023.094l-.18,1.2a4.418,4.418,0,0,0-.937-.117,2.282,2.282,0,0,0-1.777.844,3.077,3.077,0,0,0-.738,2.1V65h-1.3V56.438h1.07l.148,1.586h.063a3.764,3.764,0,0,1,1.148-1.289A2.585,2.585,0,0,1,118.063,56.281Zm6.242,8.875a3.934,3.934,0,0,1-3-1.156,4.476,4.476,0,0,1-1.1-3.211,4.964,4.964,0,0,1,1.02-3.289,3.387,3.387,0,0,1,2.738-1.219,3.229,3.229,0,0,1,2.547,1.059,4.057,4.057,0,0,1,.938,2.793v.82h-5.9a3.394,3.394,0,0,0,.762,2.289,2.635,2.635,0,0,0,2.035.781,6.9,6.9,0,0,0,2.734-.578V64.6a6.863,6.863,0,0,1-1.3.426A7.31,7.31,0,0,1,124.3,65.156Zm-.352-7.789a2.118,2.118,0,0,0-1.645.672,3.1,3.1,0,0,0-.723,1.859h4.477a2.851,2.851,0,0,0-.547-1.879A1.925,1.925,0,0,0,123.953,57.367ZM134.93,65l-.258-1.219h-.062a3.6,3.6,0,0,1-1.277,1.09,3.893,3.893,0,0,1-1.59.285,2.86,2.86,0,0,1-2-.656,2.394,2.394,0,0,1-.723-1.867q0-2.594,4.148-2.719l1.453-.047v-.531a2.171,2.171,0,0,0-.434-1.488,1.783,1.783,0,0,0-1.387-.48,5.65,5.65,0,0,0-2.422.656l-.4-.992a6.094,6.094,0,0,1,1.387-.539,6.006,6.006,0,0,1,1.512-.2,3.262,3.262,0,0,1,2.27.68,2.837,2.837,0,0,1,.738,2.18V65ZM132,64.086a2.632,2.632,0,0,0,1.9-.664,2.457,2.457,0,0,0,.691-1.859v-.773l-1.3.055a4.717,4.717,0,0,0-2.23.48,1.449,1.449,0,0,0-.684,1.324,1.336,1.336,0,0,0,.426,1.07A1.767,1.767,0,0,0,132,64.086Zm16.547-.234h-.07a3.047,3.047,0,0,1-2.687,1.3,3.179,3.179,0,0,1-2.613-1.148,5.055,5.055,0,0,1-.934-3.266,5.141,5.141,0,0,1,.938-3.289,3.155,3.155,0,0,1,2.609-1.172,3.114,3.114,0,0,1,2.672,1.266h.1l-.055-.617-.031-.6V52.844h1.3V65h-1.055Zm-2.594.219a2.361,2.361,0,0,0,1.926-.723,3.652,3.652,0,0,0,.6-2.332v-.273a4.3,4.3,0,0,0-.605-2.6,2.3,2.3,0,0,0-1.934-.777,1.985,1.985,0,0,0-1.746.887,4.409,4.409,0,0,0-.605,2.5,4.227,4.227,0,0,0,.6,2.477A2.037,2.037,0,0,0,145.953,64.07Zm10.188,1.086a3.934,3.934,0,0,1-3-1.156,4.476,4.476,0,0,1-1.1-3.211,4.964,4.964,0,0,1,1.02-3.289,3.387,3.387,0,0,1,2.738-1.219,3.229,3.229,0,0,1,2.547,1.059,4.057,4.057,0,0,1,.938,2.793v.82h-5.9a3.394,3.394,0,0,0,.762,2.289,2.634,2.634,0,0,0,2.035.781,6.9,6.9,0,0,0,2.734-.578V64.6a6.863,6.863,0,0,1-1.3.426A7.31,7.31,0,0,1,156.141,65.156Zm-.352-7.789a2.118,2.118,0,0,0-1.645.672,3.1,3.1,0,0,0-.723,1.859H157.9a2.851,2.851,0,0,0-.547-1.879A1.925,1.925,0,0,0,155.789,57.367Zm11.234,5.3a2.145,2.145,0,0,1-.891,1.844,4.186,4.186,0,0,1-2.5.648,5.436,5.436,0,0,1-2.656-.539v-1.2a6.424,6.424,0,0,0,1.324.492,5.53,5.53,0,0,0,1.363.18,3.092,3.092,0,0,0,1.563-.324,1.116,1.116,0,0,0,.113-1.844,6.82,6.82,0,0,0-1.691-.84,9.172,9.172,0,0,1-1.7-.777,2.321,2.321,0,0,1-.75-.754,1.966,1.966,0,0,1-.246-1.008,1.921,1.921,0,0,1,.852-1.652,3.968,3.968,0,0,1,2.336-.605,6.835,6.835,0,0,1,2.7.563l-.461,1.055a6.2,6.2,0,0,0-2.336-.531,2.688,2.688,0,0,0-1.391.289.894.894,0,0,0-.469.8.971.971,0,0,0,.176.586,1.735,1.735,0,0,0,.566.461,12.659,12.659,0,0,0,1.5.633,5.6,5.6,0,0,1,2.059,1.117A1.97,1.97,0,0,1,167.023,62.664Zm5.531,2.492a3.654,3.654,0,0,1-2.879-1.145,4.707,4.707,0,0,1-1.02-3.238,4.853,4.853,0,0,1,1.035-3.32,3.727,3.727,0,0,1,2.949-1.172,5.852,5.852,0,0,1,1.234.133,4.066,4.066,0,0,1,.969.313l-.4,1.1a6.1,6.1,0,0,0-.937-.285,4.186,4.186,0,0,0-.9-.113Q170,57.43,170,60.758a3.963,3.963,0,0,0,.637,2.422,2.215,2.215,0,0,0,1.887.844,5.769,5.769,0,0,0,2.2-.461v1.148A4.679,4.679,0,0,1,172.555,65.156Zm8.1-8.875a5.075,5.075,0,0,1,1.023.094l-.18,1.2a4.418,4.418,0,0,0-.937-.117,2.282,2.282,0,0,0-1.777.844,3.077,3.077,0,0,0-.738,2.1V65h-1.3V56.438h1.07l.148,1.586h.063a3.764,3.764,0,0,1,1.148-1.289A2.585,2.585,0,0,1,180.656,56.281ZM184.578,65h-1.3V56.438h1.3Zm-1.406-10.883a.861.861,0,0,1,.219-.652.81.81,0,0,1,1.086,0,.846.846,0,0,1,.227.648.859.859,0,0,1-.227.652.794.794,0,0,1-1.086,0A.877.877,0,0,1,183.172,54.117Zm8.141,11.039a3.706,3.706,0,0,1-1.527-.309,2.872,2.872,0,0,1-1.16-.949h-.094a11.485,11.485,0,0,1,.094,1.422v3.523h-1.3V56.438h1.055l.18,1.172h.063a3.012,3.012,0,0,1,1.164-1.016,3.539,3.539,0,0,1,1.523-.312,3.165,3.165,0,0,1,2.629,1.164,5.125,5.125,0,0,1,.926,3.266,5.1,5.1,0,0,1-.941,3.277A3.17,3.17,0,0,1,191.313,65.156Zm-.187-7.773a2.3,2.3,0,0,0-1.9.727,3.739,3.739,0,0,0-.6,2.313v.289a4.285,4.285,0,0,0,.6,2.582,2.288,2.288,0,0,0,1.93.777,2.007,2.007,0,0,0,1.738-.9,4.26,4.26,0,0,0,.629-2.477,4.1,4.1,0,0,0-.629-2.457A2.069,2.069,0,0,0,191.125,57.383Zm8.773,6.7a4.237,4.237,0,0,0,.664-.051,4.3,4.3,0,0,0,.508-.105v.992a2.371,2.371,0,0,1-.621.168,4.664,4.664,0,0,1-.738.066q-2.484,0-2.484-2.617V57.445H196V56.82l1.227-.539.547-1.828h.75v1.984h2.484v1.008h-2.484v5.039a1.733,1.733,0,0,0,.367,1.188A1.278,1.278,0,0,0,199.9,64.086Zm4.18.914h-1.3V56.438h1.3Zm-1.406-10.883a.861.861,0,0,1,.219-.652.81.81,0,0,1,1.086,0,.846.846,0,0,1,.227.648.859.859,0,0,1-.227.652.794.794,0,0,1-1.086,0A.877.877,0,0,1,202.672,54.117ZM208.7,65l-3.25-8.562h1.391l1.844,5.078a24.035,24.035,0,0,1,.734,2.313h.063a17.468,17.468,0,0,1,.543-1.715q.457-1.3,2.051-5.676h1.391L210.219,65Zm11.406,0-.258-1.219h-.062a3.6,3.6,0,0,1-1.277,1.09,3.893,3.893,0,0,1-1.59.285,2.86,2.86,0,0,1-2-.656,2.394,2.394,0,0,1-.723-1.867q0-2.594,4.148-2.719l1.453-.047v-.531a2.171,2.171,0,0,0-.434-1.488,1.783,1.783,0,0,0-1.387-.48,5.65,5.65,0,0,0-2.422.656l-.4-.992a6.094,6.094,0,0,1,1.387-.539,6.006,6.006,0,0,1,1.512-.2,3.262,3.262,0,0,1,2.27.68,2.837,2.837,0,0,1,.738,2.18V65Zm-2.93-.914a2.632,2.632,0,0,0,1.9-.664,2.457,2.457,0,0,0,.691-1.859v-.773l-1.3.055a4.717,4.717,0,0,0-2.23.48,1.449,1.449,0,0,0-.684,1.324,1.336,1.336,0,0,0,.426,1.07A1.767,1.767,0,0,0,217.18,64.086Zm6.375.086a1.164,1.164,0,0,1,.238-.793.864.864,0,0,1,.684-.27.924.924,0,0,1,.707.27,1.116,1.116,0,0,1,.254.793,1.1,1.1,0,0,1-.258.781,1.025,1.025,0,0,1-1.363.027A1.07,1.07,0,0,1,223.555,64.172Z" transform="translate(580 2448)" fill="#9eaab8"/>
    <path id="Rectángulo_17738" data-name="Rectángulo 17738" d="M8,0H552a8,8,0,0,1,8,8V58a0,0,0,0,1,0,0H0a0,0,0,0,1,0,0V8A8,8,0,0,1,8,0Z" transform="translate(564 2374)" fill="#e6ebf0"/>
    <g id="Grupo_20832" data-name="Grupo 20832" transform="translate(580 2390)">
      <g id="Grupo_17687" data-name="Grupo 17687">
        <path id="Trazado_27765" data-name="Trazado 27765" d="M7.391,19.152a6.547,6.547,0,0,1-3.344-.826,5.445,5.445,0,0,1-2.185-2.375,8.216,8.216,0,0,1-.76-3.658,8.17,8.17,0,0,1,.76-3.639A5.445,5.445,0,0,1,4.047,6.28a6.547,6.547,0,0,1,3.344-.826,7.185,7.185,0,0,1,2.375.389,5.769,5.769,0,0,1,1.957,1.13.919.919,0,0,1,.361.76.9.9,0,0,1-.19.58.568.568,0,0,1-.456.238.986.986,0,0,1-.627-.247,6.727,6.727,0,0,0-1.662-.959,4.912,4.912,0,0,0-1.7-.276A3.939,3.939,0,0,0,4.237,8.417a5.916,5.916,0,0,0-1.121,3.876,5.949,5.949,0,0,0,1.121,3.895,3.939,3.939,0,0,0,3.211,1.349,4.649,4.649,0,0,0,1.663-.285,8.053,8.053,0,0,0,1.7-.95,1.246,1.246,0,0,1,.627-.247.568.568,0,0,1,.456.237.9.9,0,0,1,.19.58.919.919,0,0,1-.361.76,5.769,5.769,0,0,1-1.957,1.131A7.185,7.185,0,0,1,7.391,19.152Zm10.621-.019a4.777,4.777,0,0,1-2.4-.589,3.974,3.974,0,0,1-1.6-1.682,5.483,5.483,0,0,1-.561-2.536,5.527,5.527,0,0,1,.561-2.556,3.974,3.974,0,0,1,1.6-1.682,4.777,4.777,0,0,1,2.4-.589,4.777,4.777,0,0,1,2.4.589,3.974,3.974,0,0,1,1.6,1.682,5.527,5.527,0,0,1,.56,2.556,5.483,5.483,0,0,1-.56,2.536,3.974,3.974,0,0,1-1.6,1.682A4.777,4.777,0,0,1,18.012,19.133Zm0-1.52a2.356,2.356,0,0,0,1.947-.836,3.832,3.832,0,0,0,.674-2.451,3.8,3.8,0,0,0-.684-2.441,2.35,2.35,0,0,0-1.938-.846,2.35,2.35,0,0,0-1.938.846,3.8,3.8,0,0,0-.684,2.441,3.832,3.832,0,0,0,.675,2.451A2.356,2.356,0,0,0,18.012,17.613Zm7.638,1.482a1.051,1.051,0,0,1-.694-.228.837.837,0,0,1-.275-.684V6.441a.866.866,0,0,1,.275-.693,1.024,1.024,0,0,1,.694-.238.988.988,0,0,1,.684.238.881.881,0,0,1,.266.693V18.183a.851.851,0,0,1-.266.684A1.014,1.014,0,0,1,25.65,19.095Zm7.5-9.595a3.664,3.664,0,0,1,2.746.931,3.927,3.927,0,0,1,.9,2.831v4.921a.892.892,0,0,1-.247.674.946.946,0,0,1-.684.237.851.851,0,0,1-.912-.912v-.7a2.673,2.673,0,0,1-1.073,1.226,3.169,3.169,0,0,1-1.663.427,3.764,3.764,0,0,1-1.672-.37,2.872,2.872,0,0,1-1.187-1.036,2.683,2.683,0,0,1-.427-1.482,2.282,2.282,0,0,1,.522-1.587,3.116,3.116,0,0,1,1.729-.827,17.367,17.367,0,0,1,3.316-.247h.437v-.551a2.234,2.234,0,0,0-.437-1.539A1.83,1.83,0,0,0,33.1,11.02a4.477,4.477,0,0,0-1.254.171,9.428,9.428,0,0,0-1.292.494,1.862,1.862,0,0,1-.722.285.587.587,0,0,1-.465-.209.785.785,0,0,1-.181-.532.825.825,0,0,1,.162-.5,1.7,1.7,0,0,1,.522-.427,6.5,6.5,0,0,1,1.558-.58A7.266,7.266,0,0,1,33.155,9.5Zm-.589,8.208A2.234,2.234,0,0,0,34.276,17a2.58,2.58,0,0,0,.665-1.834v-.494H34.6a14.8,14.8,0,0,0-2.28.133,2.237,2.237,0,0,0-1.14.446,1.163,1.163,0,0,0-.342.9,1.429,1.429,0,0,0,.494,1.121A1.8,1.8,0,0,0,32.566,17.708ZM44.384,9.5a3.851,3.851,0,0,1,2.138.608,4.042,4.042,0,0,1,1.463,1.71,5.879,5.879,0,0,1,.522,2.546,5.8,5.8,0,0,1-.513,2.508,3.874,3.874,0,0,1-1.453,1.672,3.977,3.977,0,0,1-2.157.589,3.711,3.711,0,0,1-1.843-.446A2.94,2.94,0,0,1,41.325,17.4v4.237a.826.826,0,0,1-.257.636.953.953,0,0,1-.674.237,1.027,1.027,0,0,1-.713-.247.849.849,0,0,1-.275-.665V10.469a.894.894,0,0,1,.266-.674.97.97,0,0,1,.7-.257.945.945,0,0,1,.684.257.894.894,0,0,1,.266.674v.779a3,3,0,0,1,1.216-1.292A3.649,3.649,0,0,1,44.384,9.5Zm-.456,8.113a2.35,2.35,0,0,0,1.938-.846,3.733,3.733,0,0,0,.684-2.4,3.853,3.853,0,0,0-.694-2.451A2.583,2.583,0,0,0,42,11.894a3.846,3.846,0,0,0-.674,2.432A3.846,3.846,0,0,0,42,16.758,2.312,2.312,0,0,0,43.928,17.613Zm9.918,1.52a5.75,5.75,0,0,1-3.173-.8,1.444,1.444,0,0,1-.485-.437.948.948,0,0,1-.143-.513.784.784,0,0,1,.171-.513.54.54,0,0,1,.437-.209,1.873,1.873,0,0,1,.779.3,7.993,7.993,0,0,0,1.111.494,4.152,4.152,0,0,0,1.359.19,2.668,2.668,0,0,0,1.425-.323,1.02,1.02,0,0,0,.513-.912.89.89,0,0,0-.2-.608,1.691,1.691,0,0,0-.694-.409,11.832,11.832,0,0,0-1.463-.389,5.637,5.637,0,0,1-2.4-.979,2.085,2.085,0,0,1-.732-1.681,2.449,2.449,0,0,1,.475-1.473,3.085,3.085,0,0,1,1.311-1.016,4.75,4.75,0,0,1,1.9-.361,5.539,5.539,0,0,1,1.482.2,4.186,4.186,0,0,1,1.273.58,1.178,1.178,0,0,1,.627.969.757.757,0,0,1-.181.513.548.548,0,0,1-.428.209.836.836,0,0,1-.342-.076,4.512,4.512,0,0,1-.456-.247,6.382,6.382,0,0,0-.96-.475A3.13,3.13,0,0,0,53.941,11a2.18,2.18,0,0,0-1.282.342,1.081,1.081,0,0,0-.485.931.936.936,0,0,0,.446.826,5.474,5.474,0,0,0,1.681.561,9.214,9.214,0,0,1,1.995.608,2.364,2.364,0,0,1,1.036.845,2.39,2.39,0,0,1,.313,1.282,2.338,2.338,0,0,1-1.035,1.986A4.613,4.613,0,0,1,53.846,19.133ZM63.65,9.5a3.664,3.664,0,0,1,2.746.931,3.927,3.927,0,0,1,.9,2.831v4.921a.892.892,0,0,1-.247.674.946.946,0,0,1-.684.237.851.851,0,0,1-.912-.912v-.7a2.673,2.673,0,0,1-1.074,1.226,3.169,3.169,0,0,1-1.663.427,3.764,3.764,0,0,1-1.672-.37,2.872,2.872,0,0,1-1.187-1.036,2.683,2.683,0,0,1-.428-1.482,2.282,2.282,0,0,1,.522-1.587,3.116,3.116,0,0,1,1.729-.827A17.367,17.367,0,0,1,65,13.585h.437v-.551A2.234,2.234,0,0,0,65,11.495a1.83,1.83,0,0,0-1.406-.475,4.477,4.477,0,0,0-1.254.171,9.428,9.428,0,0,0-1.292.494,1.862,1.862,0,0,1-.722.285.587.587,0,0,1-.465-.209.785.785,0,0,1-.181-.532.825.825,0,0,1,.161-.5,1.7,1.7,0,0,1,.522-.427,6.5,6.5,0,0,1,1.558-.58A7.266,7.266,0,0,1,63.65,9.5Zm-.589,8.208A2.234,2.234,0,0,0,64.771,17a2.58,2.58,0,0,0,.665-1.834v-.494h-.342a14.8,14.8,0,0,0-2.28.133,2.237,2.237,0,0,0-1.14.446,1.163,1.163,0,0,0-.342.9,1.429,1.429,0,0,0,.494,1.121A1.8,1.8,0,0,0,63.061,17.708ZM74.879,9.5a3.836,3.836,0,0,1,3.6,2.261A5.754,5.754,0,0,1,79,14.288a5.832,5.832,0,0,1-.522,2.527,4.042,4.042,0,0,1-1.463,1.71,3.851,3.851,0,0,1-2.138.608,3.711,3.711,0,0,1-1.843-.446A2.94,2.94,0,0,1,71.82,17.4v.76a.912.912,0,0,1-.257.674.937.937,0,0,1-.693.257.97.97,0,0,1-.7-.257.894.894,0,0,1-.266-.674V6.422a.849.849,0,0,1,.275-.665,1.027,1.027,0,0,1,.713-.247.953.953,0,0,1,.674.238.826.826,0,0,1,.257.637v4.864a3,3,0,0,1,1.216-1.292A3.649,3.649,0,0,1,74.879,9.5Zm-.456,8.113a2.324,2.324,0,0,0,1.929-.874,3.853,3.853,0,0,0,.693-2.451,3.733,3.733,0,0,0-.684-2.4,2.35,2.35,0,0,0-1.938-.846,2.312,2.312,0,0,0-1.928.855,3.846,3.846,0,0,0-.674,2.432,3.846,3.846,0,0,0,.674,2.432A2.312,2.312,0,0,0,74.423,17.613Zm7.657,1.482a1.051,1.051,0,0,1-.694-.228.837.837,0,0,1-.275-.684V6.441a.866.866,0,0,1,.275-.693,1.024,1.024,0,0,1,.694-.238.988.988,0,0,1,.684.238.881.881,0,0,1,.266.693V18.183a.851.851,0,0,1-.266.684A1.014,1.014,0,0,1,82.08,19.095Zm10.868-2.432a.54.54,0,0,1,.437.209.813.813,0,0,1,.171.532,1.093,1.093,0,0,1-.684.931,6.027,6.027,0,0,1-1.453.589,5.894,5.894,0,0,1-1.511.209,4.679,4.679,0,0,1-3.477-1.282,4.757,4.757,0,0,1-1.273-3.506,5.5,5.5,0,0,1,.561-2.527,4.121,4.121,0,0,1,1.577-1.71A4.41,4.41,0,0,1,89.6,9.5a3.773,3.773,0,0,1,2.945,1.2,4.633,4.633,0,0,1,1.083,3.23q0,.76-.684.76H87.077q.19,2.945,2.831,2.945a3.5,3.5,0,0,0,1.216-.19,8.843,8.843,0,0,0,1.083-.494q.057-.038.313-.162A1.037,1.037,0,0,1,92.948,16.663Zm-3.306-5.757a2.318,2.318,0,0,0-1.767.7,3.283,3.283,0,0,0-.8,1.976h4.9a3.176,3.176,0,0,0-.656-1.985A2.1,2.1,0,0,0,89.642,10.906Z" fill="#9eaab8"/>
      </g>
    </g>
    <g id="Grupo_18092" data-name="Grupo 18092" transform="translate(-10 -36.576)">
      <g id="Grupo_18088" data-name="Grupo 18088" transform="translate(574 2410.878)">
        <rect id="Rectángulo_3425" data-name="Rectángulo 3425" width="12" height="559.428" transform="translate(559.428) rotate(90)" fill="#007bc7" opacity="0.24"/>
        <path id="Trazado_4669" data-name="Trazado 4669" d="M0,559.414V0" transform="translate(559.414 11.944) rotate(90)" fill="none" stroke="#007bc7" stroke-width="1" stroke-dasharray="5 2"/>
        <path id="Trazado_4670" data-name="Trazado 4670" d="M0,559.414V0" transform="translate(559.414) rotate(90)" fill="none" stroke="#007bc7" stroke-width="1" stroke-dasharray="5 2"/>
      </g>
      <g id="Grupo_18089" data-name="Grupo 18089" transform="translate(574 2455.769)">
        <rect id="Rectángulo_3425-2" data-name="Rectángulo 3425" width="12" height="559.428" transform="translate(559.428) rotate(90)" fill="#007bc7" opacity="0.24"/>
        <path id="Trazado_4669-2" data-name="Trazado 4669" d="M0,559.414V0" transform="translate(559.414 11.944) rotate(90)" fill="none" stroke="#007bc7" stroke-width="1" stroke-dasharray="5 2"/>
        <path id="Trazado_4670-2" data-name="Trazado 4670" d="M0,559.414V0" transform="translate(559.414) rotate(90)" fill="none" stroke="#007bc7" stroke-width="1" stroke-dasharray="5 2"/>
      </g>
      <g id="Grupo_18090" data-name="Grupo 18090" transform="translate(574 2467.769)">
        <rect id="Rectángulo_3425-3" data-name="Rectángulo 3425" width="16" height="559.428" transform="translate(559.428 0) rotate(90)" fill="#007bc7" opacity="0.24"/>
        <path id="Trazado_4669-3" data-name="Trazado 4669" d="M0,559.414V0" transform="translate(559.414 15.925) rotate(90)" fill="none" stroke="#007bc7" stroke-width="1" stroke-dasharray="5 2"/>
        <path id="Trazado_4670-3" data-name="Trazado 4670" d="M0,559.414V0" transform="translate(559.414 0) rotate(90)" fill="none" stroke="#007bc7" stroke-width="1" stroke-dasharray="5 2"/>
      </g>
      <g id="Grupo_18091" data-name="Grupo 18091" transform="translate(574 2553.96)">
        <rect id="Rectángulo_3425-4" data-name="Rectángulo 3425" width="24" height="559.428" transform="translate(559.428) rotate(90)" fill="#007bc7" opacity="0.24"/>
        <path id="Trazado_4669-4" data-name="Trazado 4669" d="M0,559.414V0" transform="translate(559.414 23.887) rotate(90)" fill="none" stroke="#007bc7" stroke-width="1" stroke-dasharray="5 2"/>
        <path id="Trazado_4670-4" data-name="Trazado 4670" d="M0,559.414V0" transform="translate(559.414) rotate(90)" fill="none" stroke="#007bc7" stroke-width="1" stroke-dasharray="5 2"/>
      </g>
      <path id="Trazado_20272" data-name="Trazado 20272" d="M8.016-1.664q.96,0,.96.816,0,.848-.96.848H2.608q-.976,0-.976-.848,0-.816.976-.816H4.272v-7.3l-1.536.944a.827.827,0,0,1-.4.128.7.7,0,0,1-.568-.288,1,1,0,0,1-.232-.64.8.8,0,0,1,.416-.72l2.48-1.536a1.782,1.782,0,0,1,.912-.288.973.973,0,0,1,.72.272,1.016,1.016,0,0,1,.272.752v8.672Zm9.536,0q.96,0,.96.816,0,.848-.96.848h-6.08a.87.87,0,0,1-.656-.248.851.851,0,0,1-.24-.616,1.218,1.218,0,0,1,.368-.864l3.648-3.92A6.316,6.316,0,0,0,15.576-7a2.691,2.691,0,0,0,.312-1.224,1.492,1.492,0,0,0-.432-1.152,1.748,1.748,0,0,0-1.232-.4,3.376,3.376,0,0,0-1.272.248,6.362,6.362,0,0,0-1.24.68,1.968,1.968,0,0,1-.32.184.774.774,0,0,1-.32.072.587.587,0,0,1-.472-.256.958.958,0,0,1-.2-.608.92.92,0,0,1,.088-.416,1.068,1.068,0,0,1,.28-.336,5.545,5.545,0,0,1,1.648-.888,5.721,5.721,0,0,1,1.888-.328,3.942,3.942,0,0,1,2.632.832,2.782,2.782,0,0,1,.984,2.24A4.136,4.136,0,0,1,17.5-6.52,8.119,8.119,0,0,1,16.1-4.608L13.328-1.664ZM24.72-8.016a3.243,3.243,0,0,1,1.8.512,3.4,3.4,0,0,1,1.232,1.448,5,5,0,0,1,.44,2.152,4.845,4.845,0,0,1-.44,2.128A3.333,3.333,0,0,1,26.528-.368a3.309,3.309,0,0,1-1.808.5,3.1,3.1,0,0,1-1.488-.352A2.47,2.47,0,0,1,22.224-1.2V2.064a.83.83,0,0,1-.272.656,1.048,1.048,0,0,1-.72.24A1.037,1.037,0,0,1,20.5,2.7a.868.868,0,0,1-.28-.672V-7.04a.914.914,0,0,1,.264-.688.979.979,0,0,1,.712-.256,1.008,1.008,0,0,1,.72.256.9.9,0,0,1,.272.688v.4a2.455,2.455,0,0,1,1.016-1.016A3.121,3.121,0,0,1,24.72-8.016Zm-.528,6.592a1.793,1.793,0,0,0,1.472-.648A2.829,2.829,0,0,0,26.192-3.9a2.989,2.989,0,0,0-.528-1.888,1.766,1.766,0,0,0-1.472-.672,1.779,1.779,0,0,0-1.48.656,2.952,2.952,0,0,0-.52,1.872,2.923,2.923,0,0,0,.52,1.856A1.779,1.779,0,0,0,24.192-1.424Zm12.256-.048a.9.9,0,0,1,.288.656.885.885,0,0,1-.272.632.864.864,0,0,1-.64.28.878.878,0,0,1-.688-.336l-2.256-2.5L30.624-.24a.928.928,0,0,1-.688.32.858.858,0,0,1-.624-.272.858.858,0,0,1-.272-.624.9.9,0,0,1,.288-.656l2.336-2.544-2.208-2.4a.9.9,0,0,1-.288-.656A.85.85,0,0,1,29.44-7.7a.871.871,0,0,1,.624-.264.928.928,0,0,1,.688.32L32.88-5.312l2.128-2.336a.928.928,0,0,1,.688-.32.862.862,0,0,1,.632.264.862.862,0,0,1,.264.632.9.9,0,0,1-.288.656L34.1-4.016Z" transform="translate(1148 2422)" fill="#38485c"/>
      <path id="Trazado_27768" data-name="Trazado 27768" d="M8.016-1.664q.96,0,.96.816,0,.848-.96.848H2.608q-.976,0-.976-.848,0-.816.976-.816H4.272v-7.3l-1.536.944a.827.827,0,0,1-.4.128.7.7,0,0,1-.568-.288,1,1,0,0,1-.232-.64.8.8,0,0,1,.416-.72l2.48-1.536a1.782,1.782,0,0,1,.912-.288.973.973,0,0,1,.72.272,1.016,1.016,0,0,1,.272.752v8.672Zm9.536,0q.96,0,.96.816,0,.848-.96.848h-6.08a.87.87,0,0,1-.656-.248.851.851,0,0,1-.24-.616,1.218,1.218,0,0,1,.368-.864l3.648-3.92A6.316,6.316,0,0,0,15.576-7a2.691,2.691,0,0,0,.312-1.224,1.492,1.492,0,0,0-.432-1.152,1.748,1.748,0,0,0-1.232-.4,3.376,3.376,0,0,0-1.272.248,6.362,6.362,0,0,0-1.24.68,1.968,1.968,0,0,1-.32.184.774.774,0,0,1-.32.072.587.587,0,0,1-.472-.256.958.958,0,0,1-.2-.608.92.92,0,0,1,.088-.416,1.068,1.068,0,0,1,.28-.336,5.545,5.545,0,0,1,1.648-.888,5.721,5.721,0,0,1,1.888-.328,3.942,3.942,0,0,1,2.632.832,2.782,2.782,0,0,1,.984,2.24A4.136,4.136,0,0,1,17.5-6.52,8.119,8.119,0,0,1,16.1-4.608L13.328-1.664ZM24.72-8.016a3.243,3.243,0,0,1,1.8.512,3.4,3.4,0,0,1,1.232,1.448,5,5,0,0,1,.44,2.152,4.845,4.845,0,0,1-.44,2.128A3.333,3.333,0,0,1,26.528-.368a3.309,3.309,0,0,1-1.808.5,3.1,3.1,0,0,1-1.488-.352A2.47,2.47,0,0,1,22.224-1.2V2.064a.83.83,0,0,1-.272.656,1.048,1.048,0,0,1-.72.24A1.037,1.037,0,0,1,20.5,2.7a.868.868,0,0,1-.28-.672V-7.04a.914.914,0,0,1,.264-.688.979.979,0,0,1,.712-.256,1.008,1.008,0,0,1,.72.256.9.9,0,0,1,.272.688v.4a2.455,2.455,0,0,1,1.016-1.016A3.121,3.121,0,0,1,24.72-8.016Zm-.528,6.592a1.793,1.793,0,0,0,1.472-.648A2.829,2.829,0,0,0,26.192-3.9a2.989,2.989,0,0,0-.528-1.888,1.766,1.766,0,0,0-1.472-.672,1.779,1.779,0,0,0-1.48.656,2.952,2.952,0,0,0-.52,1.872,2.923,2.923,0,0,0,.52,1.856A1.779,1.779,0,0,0,24.192-1.424Zm12.256-.048a.9.9,0,0,1,.288.656.885.885,0,0,1-.272.632.864.864,0,0,1-.64.28.878.878,0,0,1-.688-.336l-2.256-2.5L30.624-.24a.928.928,0,0,1-.688.32.858.858,0,0,1-.624-.272.858.858,0,0,1-.272-.624.9.9,0,0,1,.288-.656l2.336-2.544-2.208-2.4a.9.9,0,0,1-.288-.656A.85.85,0,0,1,29.44-7.7a.871.871,0,0,1,.624-.264.928.928,0,0,1,.688.32L32.88-5.312l2.128-2.336a.928.928,0,0,1,.688-.32.862.862,0,0,1,.632.264.862.862,0,0,1,.264.632.9.9,0,0,1-.288.656L34.1-4.016Z" transform="translate(1148 2464.808)" fill="#38485c"/>
      <path id="Trazado_20273" data-name="Trazado 20273" d="M8.016-1.664q.96,0,.96.816,0,.848-.96.848H2.608q-.976,0-.976-.848,0-.816.976-.816H4.272v-7.3l-1.536.944a.827.827,0,0,1-.4.128.7.7,0,0,1-.568-.288,1,1,0,0,1-.232-.64.8.8,0,0,1,.416-.72l2.48-1.536a1.782,1.782,0,0,1,.912-.288.973.973,0,0,1,.72.272,1.016,1.016,0,0,1,.272.752v8.672Zm7.056-5.568a3.5,3.5,0,0,1,1.792.456A3.181,3.181,0,0,1,18.088-5.5a3.929,3.929,0,0,1,.44,1.88,3.855,3.855,0,0,1-.488,1.944A3.479,3.479,0,0,1,16.7-.336a3.906,3.906,0,0,1-1.944.48,3.989,3.989,0,0,1-3.3-1.448,6.474,6.474,0,0,1-1.16-4.136,8.527,8.527,0,0,1,.544-3.192,4.529,4.529,0,0,1,1.56-2.072,4.03,4.03,0,0,1,2.392-.72,5.426,5.426,0,0,1,1.832.328,4.773,4.773,0,0,1,1.56.888,1.2,1.2,0,0,1,.3.344.87.87,0,0,1,.088.408.926.926,0,0,1-.2.6.592.592,0,0,1-.472.248.831.831,0,0,1-.3-.056,2.284,2.284,0,0,1-.352-.184,4.3,4.3,0,0,0-2.368-.928,2.071,2.071,0,0,0-1.84,1.08,5.933,5.933,0,0,0-.7,3.032,2.745,2.745,0,0,1,1.1-1.144A3.241,3.241,0,0,1,15.072-7.232ZM14.64-1.488a1.83,1.83,0,0,0,1.408-.568,2.109,2.109,0,0,0,.528-1.5,2.08,2.08,0,0,0-.528-1.488A1.844,1.844,0,0,0,14.64-5.6a1.928,1.928,0,0,0-1.448.568,2.034,2.034,0,0,0-.552,1.48,2.055,2.055,0,0,0,.552,1.5A1.928,1.928,0,0,0,14.64-1.488ZM24.7-8.016a3.243,3.243,0,0,1,1.8.512,3.4,3.4,0,0,1,1.232,1.448,5,5,0,0,1,.44,2.152,4.845,4.845,0,0,1-.44,2.128A3.333,3.333,0,0,1,26.512-.368a3.309,3.309,0,0,1-1.808.5,3.1,3.1,0,0,1-1.488-.352A2.47,2.47,0,0,1,22.208-1.2V2.064a.83.83,0,0,1-.272.656,1.048,1.048,0,0,1-.72.24,1.037,1.037,0,0,1-.728-.256.868.868,0,0,1-.28-.672V-7.04a.914.914,0,0,1,.264-.688.979.979,0,0,1,.712-.256,1.008,1.008,0,0,1,.72.256.9.9,0,0,1,.272.688v.4a2.455,2.455,0,0,1,1.016-1.016A3.121,3.121,0,0,1,24.7-8.016Zm-.528,6.592a1.793,1.793,0,0,0,1.472-.648A2.829,2.829,0,0,0,26.176-3.9a2.989,2.989,0,0,0-.528-1.888,1.766,1.766,0,0,0-1.472-.672,1.779,1.779,0,0,0-1.48.656,2.952,2.952,0,0,0-.52,1.872A2.923,2.923,0,0,0,22.7-2.08,1.779,1.779,0,0,0,24.176-1.424Zm12.256-.048a.9.9,0,0,1,.288.656.885.885,0,0,1-.272.632.864.864,0,0,1-.64.28A.878.878,0,0,1,35.12-.24l-2.256-2.5L30.608-.24a.928.928,0,0,1-.688.32A.858.858,0,0,1,29.3-.192a.858.858,0,0,1-.272-.624.9.9,0,0,1,.288-.656l2.336-2.544-2.208-2.4a.9.9,0,0,1-.288-.656.85.85,0,0,1,.272-.632.871.871,0,0,1,.624-.264.928.928,0,0,1,.688.32l2.128,2.336,2.128-2.336a.928.928,0,0,1,.688-.32.862.862,0,0,1,.632.264.862.862,0,0,1,.264.632.9.9,0,0,1-.288.656l-2.208,2.4Z" transform="translate(1148 2488)" fill="#38485c"/>
      <path id="Trazado_20274" data-name="Trazado 20274" d="M7.968-1.664q.96,0,.96.816,0,.848-.96.848H1.888a.87.87,0,0,1-.656-.248.851.851,0,0,1-.24-.616,1.218,1.218,0,0,1,.368-.864l3.648-3.92A6.316,6.316,0,0,0,5.992-7,2.691,2.691,0,0,0,6.3-8.224a1.492,1.492,0,0,0-.432-1.152,1.748,1.748,0,0,0-1.232-.4,3.376,3.376,0,0,0-1.272.248,6.362,6.362,0,0,0-1.24.68,1.968,1.968,0,0,1-.32.184.774.774,0,0,1-.32.072.587.587,0,0,1-.472-.256.958.958,0,0,1-.2-.608A.92.92,0,0,1,.9-9.872a1.068,1.068,0,0,1,.28-.336A5.545,5.545,0,0,1,2.832-11.1a5.721,5.721,0,0,1,1.888-.328,3.942,3.942,0,0,1,2.632.832,2.782,2.782,0,0,1,.984,2.24A4.136,4.136,0,0,1,7.92-6.52,8.119,8.119,0,0,1,6.512-4.608L3.744-1.664ZM18-3.808a1.074,1.074,0,0,1,.72.208.741.741,0,0,1,.24.592q0,.8-.96.8h-.816V-.944a1.021,1.021,0,0,1-.28.768A1,1,0,0,1,16.176.1a1,1,0,0,1-.728-.272,1.021,1.021,0,0,1-.28-.768V-2.208H10.976a.892.892,0,0,1-.672-.248.851.851,0,0,1-.24-.616,1.234,1.234,0,0,1,.256-.736l4.944-7.1a1.079,1.079,0,0,1,.4-.344,1.1,1.1,0,0,1,.5-.12,1.044,1.044,0,0,1,.72.272.977.977,0,0,1,.3.768v6.528Zm-5.808,0h2.976v-4.3ZM24.72-8.016a3.243,3.243,0,0,1,1.8.512,3.4,3.4,0,0,1,1.232,1.448,5,5,0,0,1,.44,2.152,4.845,4.845,0,0,1-.44,2.128A3.333,3.333,0,0,1,26.528-.368a3.309,3.309,0,0,1-1.808.5,3.1,3.1,0,0,1-1.488-.352A2.47,2.47,0,0,1,22.224-1.2V2.064a.83.83,0,0,1-.272.656,1.048,1.048,0,0,1-.72.24A1.037,1.037,0,0,1,20.5,2.7a.868.868,0,0,1-.28-.672V-7.04a.914.914,0,0,1,.264-.688.979.979,0,0,1,.712-.256,1.008,1.008,0,0,1,.72.256.9.9,0,0,1,.272.688v.4a2.455,2.455,0,0,1,1.016-1.016A3.121,3.121,0,0,1,24.72-8.016Zm-.528,6.592a1.793,1.793,0,0,0,1.472-.648A2.829,2.829,0,0,0,26.192-3.9a2.989,2.989,0,0,0-.528-1.888,1.766,1.766,0,0,0-1.472-.672,1.779,1.779,0,0,0-1.48.656,2.952,2.952,0,0,0-.52,1.872,2.923,2.923,0,0,0,.52,1.856A1.779,1.779,0,0,0,24.192-1.424Zm12.256-.048a.9.9,0,0,1,.288.656.885.885,0,0,1-.272.632.864.864,0,0,1-.64.28.878.878,0,0,1-.688-.336l-2.256-2.5L30.624-.24a.928.928,0,0,1-.688.32.858.858,0,0,1-.624-.272.858.858,0,0,1-.272-.624.9.9,0,0,1,.288-.656l2.336-2.544-2.208-2.4a.9.9,0,0,1-.288-.656A.85.85,0,0,1,29.44-7.7a.871.871,0,0,1,.624-.264.928.928,0,0,1,.688.32L32.88-5.312l2.128-2.336a.928.928,0,0,1,.688-.32.862.862,0,0,1,.632.264.862.862,0,0,1,.264.632.9.9,0,0,1-.288.656L34.1-4.016Z" transform="translate(1148 2568.192)" fill="#38485c"/>
    </g>
    <g id="Grupo_18095" data-name="Grupo 18095" transform="translate(0 -30)">
      <g id="V2-Colapsable-Información" transform="translate(562.898 2608)">
        <rect id="Rectángulo_3061" data-name="Rectángulo 3061" width="560" height="48" rx="8" transform="translate(1.102 1)" fill="#cfedf1"/>
        <g id="Grupo_17116" data-name="Grupo 17116" transform="translate(513.102 13)">
          <path id="bx-plus" d="M21,11.857H14.143V5H11.857v6.857H5v2.286h6.857V21h2.286V14.143H21Z" transform="translate(-1 -1)" fill="#9eaab8"/>
          <rect id="Rectángulo_6202" data-name="Rectángulo 6202" width="24" height="24" fill="none"/>
        </g>
        <g id="Grupo_17688" data-name="Grupo 17688" transform="translate(25.102 17.453)">
          <g id="Grupo_17687-2" data-name="Grupo 17687" transform="translate(0)">
            <path id="Trazado_27764" data-name="Trazado 27764" d="M6.922,19.152a5.705,5.705,0,0,1-3.095-.826,5.308,5.308,0,0,1-2.022-2.375,8.781,8.781,0,0,1-.7-3.658,8.73,8.73,0,0,1,.7-3.639A5.308,5.308,0,0,1,3.827,6.28a5.705,5.705,0,0,1,3.095-.826,6.2,6.2,0,0,1,2.2.389,5.26,5.26,0,0,1,1.811,1.13,1.036,1.036,0,0,1,.158,1.34.514.514,0,0,1-.422.238.875.875,0,0,1-.58-.247,6.124,6.124,0,0,0-1.539-.959,4.24,4.24,0,0,0-1.574-.276A3.525,3.525,0,0,0,4,8.417a6.255,6.255,0,0,0-1.037,3.876A6.291,6.291,0,0,0,4,16.188a3.525,3.525,0,0,0,2.972,1.349,4.017,4.017,0,0,0,1.539-.285,7.31,7.31,0,0,0,1.574-.95,1.1,1.1,0,0,1,.58-.247.514.514,0,0,1,.422.237,1.036,1.036,0,0,1-.158,1.34A5.26,5.26,0,0,1,9.12,18.763,6.2,6.2,0,0,1,6.922,19.152Zm9.829-.019a4.161,4.161,0,0,1-2.224-.589,3.862,3.862,0,0,1-1.477-1.682,5.852,5.852,0,0,1-.519-2.536,5.9,5.9,0,0,1,.519-2.556,3.862,3.862,0,0,1,1.477-1.682A4.161,4.161,0,0,1,16.751,9.5a4.161,4.161,0,0,1,2.224.589,3.862,3.862,0,0,1,1.477,1.682,5.9,5.9,0,0,1,.519,2.556,5.852,5.852,0,0,1-.519,2.536,3.862,3.862,0,0,1-1.477,1.682A4.161,4.161,0,0,1,16.751,19.133Zm0-1.52a2.112,2.112,0,0,0,1.8-.836,4.058,4.058,0,0,0,.624-2.451,4.023,4.023,0,0,0-.633-2.441,2.108,2.108,0,0,0-1.794-.846,2.108,2.108,0,0,0-1.794.846,4.023,4.023,0,0,0-.633,2.441,4.058,4.058,0,0,0,.624,2.451A2.112,2.112,0,0,0,16.751,17.613Zm7.069,1.482a.927.927,0,0,1-.642-.228.871.871,0,0,1-.255-.684V6.441a.85.85,0,0,1,.9-.931.874.874,0,0,1,.633.238.92.92,0,0,1,.246.693V18.183a.822.822,0,0,1-.879.912ZM30.765,9.5a3.242,3.242,0,0,1,2.541.931,4.133,4.133,0,0,1,.835,2.831v4.921a.934.934,0,0,1-.229.674.837.837,0,0,1-.633.237.8.8,0,0,1-.615-.247.94.94,0,0,1-.229-.665v-.7a2.62,2.62,0,0,1-.993,1.226,2.765,2.765,0,0,1-1.539.427,3.269,3.269,0,0,1-1.547-.37,2.733,2.733,0,0,1-1.1-1.036,2.843,2.843,0,0,1-.4-1.482,2.4,2.4,0,0,1,.484-1.587,2.807,2.807,0,0,1,1.6-.827,14.9,14.9,0,0,1,3.068-.247h.4v-.551a2.361,2.361,0,0,0-.4-1.539,1.62,1.62,0,0,0-1.3-.475,3.856,3.856,0,0,0-1.161.171,8.334,8.334,0,0,0-1.2.494,1.647,1.647,0,0,1-.668.285.527.527,0,0,1-.431-.209.825.825,0,0,1-.167-.532.87.87,0,0,1,.149-.5,1.609,1.609,0,0,1,.484-.427,5.739,5.739,0,0,1,1.442-.58A6.251,6.251,0,0,1,30.765,9.5Zm-.545,8.208A2,2,0,0,0,31.8,17a2.7,2.7,0,0,0,.615-1.834v-.494H32.1a12.693,12.693,0,0,0-2.11.133,1.989,1.989,0,0,0-1.055.446,1.215,1.215,0,0,0-.317.9,1.482,1.482,0,0,0,.457,1.121A1.589,1.589,0,0,0,30.22,17.708ZM41.157,9.5a3.371,3.371,0,0,1,1.978.608,3.972,3.972,0,0,1,1.354,1.71,6.285,6.285,0,0,1,.484,2.546,6.2,6.2,0,0,1-.475,2.508,3.8,3.8,0,0,1-1.345,1.672,3.477,3.477,0,0,1-2,.589,3.231,3.231,0,0,1-1.706-.446A2.857,2.857,0,0,1,38.326,17.4v4.237a.86.86,0,0,1-.237.636.844.844,0,0,1-.624.237.908.908,0,0,1-.659-.247.883.883,0,0,1-.255-.665V10.469a.933.933,0,0,1,.246-.674.86.86,0,0,1,.651-.257.839.839,0,0,1,.633.257.933.933,0,0,1,.246.674v.779a2.915,2.915,0,0,1,1.125-1.292A3.18,3.18,0,0,1,41.157,9.5Zm-.422,8.113a2.108,2.108,0,0,0,1.794-.846,3.95,3.95,0,0,0,.633-2.4,4.077,4.077,0,0,0-.642-2.451,2.275,2.275,0,0,0-3.569-.019,4.073,4.073,0,0,0-.624,2.432,4.073,4.073,0,0,0,.624,2.432A2.077,2.077,0,0,0,40.735,17.613Zm9.179,1.52a5.017,5.017,0,0,1-2.936-.8,1.381,1.381,0,0,1-.448-.437,1.006,1.006,0,0,1-.132-.513.825.825,0,0,1,.158-.513.487.487,0,0,1,.4-.209,1.656,1.656,0,0,1,.721.3,7.132,7.132,0,0,0,1.029.494,3.578,3.578,0,0,0,1.257.19,2.322,2.322,0,0,0,1.319-.323,1.04,1.04,0,0,0,.475-.912.937.937,0,0,0-.185-.608,1.549,1.549,0,0,0-.642-.409,10.308,10.308,0,0,0-1.354-.389,5.018,5.018,0,0,1-2.224-.979,2.163,2.163,0,0,1-.677-1.681,2.584,2.584,0,0,1,.44-1.473,2.9,2.9,0,0,1,1.213-1.016A4.112,4.112,0,0,1,50.09,9.5a4.769,4.769,0,0,1,1.372.2,3.745,3.745,0,0,1,1.178.58,1.191,1.191,0,0,1,.58.969.8.8,0,0,1-.167.513.494.494,0,0,1-.4.209.726.726,0,0,1-.317-.076,4.085,4.085,0,0,1-.422-.247,5.738,5.738,0,0,0-.888-.475A2.7,2.7,0,0,0,50,11a1.907,1.907,0,0,0-1.187.342,1.108,1.108,0,0,0-.448.931.957.957,0,0,0,.413.826,4.819,4.819,0,0,0,1.556.561,8.069,8.069,0,0,1,1.846.608,2.236,2.236,0,0,1,.958.845,2.543,2.543,0,0,1,.29,1.282,2.4,2.4,0,0,1-.958,1.986A4.037,4.037,0,0,1,49.914,19.133ZM58.987,9.5a3.242,3.242,0,0,1,2.541.931,4.133,4.133,0,0,1,.835,2.831v4.921a.934.934,0,0,1-.229.674.837.837,0,0,1-.633.237.8.8,0,0,1-.615-.247.94.94,0,0,1-.229-.665v-.7a2.62,2.62,0,0,1-.993,1.226,2.765,2.765,0,0,1-1.539.427,3.269,3.269,0,0,1-1.547-.37,2.733,2.733,0,0,1-1.1-1.036,2.843,2.843,0,0,1-.4-1.482,2.4,2.4,0,0,1,.484-1.587,2.807,2.807,0,0,1,1.6-.827,14.9,14.9,0,0,1,3.068-.247h.4v-.551a2.361,2.361,0,0,0-.4-1.539,1.62,1.62,0,0,0-1.3-.475,3.856,3.856,0,0,0-1.161.171,8.334,8.334,0,0,0-1.2.494,1.647,1.647,0,0,1-.668.285.527.527,0,0,1-.431-.209.825.825,0,0,1-.167-.532.87.87,0,0,1,.149-.5,1.609,1.609,0,0,1,.484-.427,5.739,5.739,0,0,1,1.442-.58A6.251,6.251,0,0,1,58.987,9.5Zm-.545,8.208A2,2,0,0,0,60.025,17a2.7,2.7,0,0,0,.615-1.834v-.494h-.316a12.693,12.693,0,0,0-2.11.133,1.989,1.989,0,0,0-1.055.446,1.215,1.215,0,0,0-.317.9,1.482,1.482,0,0,0,.457,1.121A1.589,1.589,0,0,0,58.442,17.708ZM69.379,9.5a3.436,3.436,0,0,1,1.987.589,3.882,3.882,0,0,1,1.345,1.672,6.15,6.15,0,0,1,.484,2.527,6.234,6.234,0,0,1-.484,2.527,3.972,3.972,0,0,1-1.354,1.71,3.371,3.371,0,0,1-1.978.608,3.231,3.231,0,0,1-1.706-.446A2.857,2.857,0,0,1,66.548,17.4v.76a.954.954,0,0,1-.237.674.832.832,0,0,1-.642.257.86.86,0,0,1-.651-.257.933.933,0,0,1-.246-.674V6.422a.883.883,0,0,1,.255-.665.908.908,0,0,1,.659-.247.844.844,0,0,1,.624.238.86.86,0,0,1,.237.637v4.864a2.915,2.915,0,0,1,1.125-1.292A3.18,3.18,0,0,1,69.379,9.5Zm-.422,8.113a2.089,2.089,0,0,0,1.785-.874,4.077,4.077,0,0,0,.642-2.451,3.95,3.95,0,0,0-.633-2.4,2.108,2.108,0,0,0-1.794-.846,2.077,2.077,0,0,0-1.785.855,4.073,4.073,0,0,0-.624,2.432,4.073,4.073,0,0,0,.624,2.432A2.077,2.077,0,0,0,68.957,17.613Zm7.086,1.482a.927.927,0,0,1-.642-.228.871.871,0,0,1-.255-.684V6.441a.85.85,0,0,1,.9-.931.874.874,0,0,1,.633.238.92.92,0,0,1,.246.693V18.183a.822.822,0,0,1-.879.912ZM86.1,16.663a.487.487,0,0,1,.4.209.857.857,0,0,1,.158.532,1.092,1.092,0,0,1-.633.931,5.349,5.349,0,0,1-1.345.589,5.074,5.074,0,0,1-1.4.209,4.153,4.153,0,0,1-3.218-1.282,4.983,4.983,0,0,1-1.178-3.506,5.868,5.868,0,0,1,.519-2.527,4.016,4.016,0,0,1,1.459-1.71A3.849,3.849,0,0,1,83.006,9.5a3.368,3.368,0,0,1,2.725,1.2,4.872,4.872,0,0,1,1,3.23q0,.76-.633.76H80.668q.176,2.945,2.62,2.945a3.022,3.022,0,0,0,1.125-.19,7.9,7.9,0,0,0,1-.494,3.314,3.314,0,0,1,.29-.162A.906.906,0,0,1,86.1,16.663Zm-3.06-5.757a2.066,2.066,0,0,0-1.635.7,3.426,3.426,0,0,0-.739,1.976H85.2A3.343,3.343,0,0,0,84.6,11.6,1.878,1.878,0,0,0,83.041,10.906Z" transform="translate(-1.102 -5.453)" fill="#9eaab8"/>
          </g>
        </g>
      </g>
      <path id="Trazado_20274-2" data-name="Trazado 20274" d="M7.968-1.664q.96,0,.96.816,0,.848-.96.848H1.888a.87.87,0,0,1-.656-.248.851.851,0,0,1-.24-.616,1.218,1.218,0,0,1,.368-.864l3.648-3.92A6.316,6.316,0,0,0,5.992-7,2.691,2.691,0,0,0,6.3-8.224a1.492,1.492,0,0,0-.432-1.152,1.748,1.748,0,0,0-1.232-.4,3.376,3.376,0,0,0-1.272.248,6.362,6.362,0,0,0-1.24.68,1.968,1.968,0,0,1-.32.184.774.774,0,0,1-.32.072.587.587,0,0,1-.472-.256.958.958,0,0,1-.2-.608A.92.92,0,0,1,.9-9.872a1.068,1.068,0,0,1,.28-.336A5.545,5.545,0,0,1,2.832-11.1a5.721,5.721,0,0,1,1.888-.328,3.942,3.942,0,0,1,2.632.832,2.782,2.782,0,0,1,.984,2.24A4.136,4.136,0,0,1,7.92-6.52,8.119,8.119,0,0,1,6.512-4.608L3.744-1.664ZM18-3.808a1.074,1.074,0,0,1,.72.208.741.741,0,0,1,.24.592q0,.8-.96.8h-.816V-.944a1.021,1.021,0,0,1-.28.768A1,1,0,0,1,16.176.1a1,1,0,0,1-.728-.272,1.021,1.021,0,0,1-.28-.768V-2.208H10.976a.892.892,0,0,1-.672-.248.851.851,0,0,1-.24-.616,1.234,1.234,0,0,1,.256-.736l4.944-7.1a1.079,1.079,0,0,1,.4-.344,1.1,1.1,0,0,1,.5-.12,1.044,1.044,0,0,1,.72.272.977.977,0,0,1,.3.768v6.528Zm-5.808,0h2.976v-4.3ZM24.72-8.016a3.243,3.243,0,0,1,1.8.512,3.4,3.4,0,0,1,1.232,1.448,5,5,0,0,1,.44,2.152,4.845,4.845,0,0,1-.44,2.128A3.333,3.333,0,0,1,26.528-.368a3.309,3.309,0,0,1-1.808.5,3.1,3.1,0,0,1-1.488-.352A2.47,2.47,0,0,1,22.224-1.2V2.064a.83.83,0,0,1-.272.656,1.048,1.048,0,0,1-.72.24A1.037,1.037,0,0,1,20.5,2.7a.868.868,0,0,1-.28-.672V-7.04a.914.914,0,0,1,.264-.688.979.979,0,0,1,.712-.256,1.008,1.008,0,0,1,.72.256.9.9,0,0,1,.272.688v.4a2.455,2.455,0,0,1,1.016-1.016A3.121,3.121,0,0,1,24.72-8.016Zm-.528,6.592a1.793,1.793,0,0,0,1.472-.648A2.829,2.829,0,0,0,26.192-3.9a2.989,2.989,0,0,0-.528-1.888,1.766,1.766,0,0,0-1.472-.672,1.779,1.779,0,0,0-1.48.656,2.952,2.952,0,0,0-.52,1.872,2.923,2.923,0,0,0,.52,1.856A1.779,1.779,0,0,0,24.192-1.424Zm12.256-.048a.9.9,0,0,1,.288.656.885.885,0,0,1-.272.632.864.864,0,0,1-.64.28.878.878,0,0,1-.688-.336l-2.256-2.5L30.624-.24a.928.928,0,0,1-.688.32.858.858,0,0,1-.624-.272.858.858,0,0,1-.272-.624.9.9,0,0,1,.288-.656l2.336-2.544-2.208-2.4a.9.9,0,0,1-.288-.656A.85.85,0,0,1,29.44-7.7a.871.871,0,0,1,.624-.264.928.928,0,0,1,.688.32L32.88-5.312l2.128-2.336a.928.928,0,0,1,.688-.32.862.862,0,0,1,.632.264.862.862,0,0,1,.264.632.9.9,0,0,1-.288.656L34.1-4.016Z" transform="translate(1097.264 2684.424)" fill="#38485c"/>
      <path id="Trazado_20275" data-name="Trazado 20275" d="M7.968-1.664q.96,0,.96.816,0,.848-.96.848H1.888a.87.87,0,0,1-.656-.248.851.851,0,0,1-.24-.616,1.218,1.218,0,0,1,.368-.864l3.648-3.92A6.316,6.316,0,0,0,5.992-7,2.691,2.691,0,0,0,6.3-8.224a1.492,1.492,0,0,0-.432-1.152,1.748,1.748,0,0,0-1.232-.4,3.376,3.376,0,0,0-1.272.248,6.362,6.362,0,0,0-1.24.68,1.968,1.968,0,0,1-.32.184.774.774,0,0,1-.32.072.587.587,0,0,1-.472-.256.958.958,0,0,1-.2-.608A.92.92,0,0,1,.9-9.872a1.068,1.068,0,0,1,.28-.336A5.545,5.545,0,0,1,2.832-11.1a5.721,5.721,0,0,1,1.888-.328,3.942,3.942,0,0,1,2.632.832,2.782,2.782,0,0,1,.984,2.24A4.136,4.136,0,0,1,7.92-6.52,8.119,8.119,0,0,1,6.512-4.608L3.744-1.664ZM18-3.808a1.074,1.074,0,0,1,.72.208.741.741,0,0,1,.24.592q0,.8-.96.8h-.816V-.944a1.021,1.021,0,0,1-.28.768A1,1,0,0,1,16.176.1a1,1,0,0,1-.728-.272,1.021,1.021,0,0,1-.28-.768V-2.208H10.976a.892.892,0,0,1-.672-.248.851.851,0,0,1-.24-.616,1.234,1.234,0,0,1,.256-.736l4.944-7.1a1.079,1.079,0,0,1,.4-.344,1.1,1.1,0,0,1,.5-.12,1.044,1.044,0,0,1,.72.272.977.977,0,0,1,.3.768v6.528Zm-5.808,0h2.976v-4.3ZM24.72-8.016a3.243,3.243,0,0,1,1.8.512,3.4,3.4,0,0,1,1.232,1.448,5,5,0,0,1,.44,2.152,4.845,4.845,0,0,1-.44,2.128A3.333,3.333,0,0,1,26.528-.368a3.309,3.309,0,0,1-1.808.5,3.1,3.1,0,0,1-1.488-.352A2.47,2.47,0,0,1,22.224-1.2V2.064a.83.83,0,0,1-.272.656,1.048,1.048,0,0,1-.72.24A1.037,1.037,0,0,1,20.5,2.7a.868.868,0,0,1-.28-.672V-7.04a.914.914,0,0,1,.264-.688.979.979,0,0,1,.712-.256,1.008,1.008,0,0,1,.72.256.9.9,0,0,1,.272.688v.4a2.455,2.455,0,0,1,1.016-1.016A3.121,3.121,0,0,1,24.72-8.016Zm-.528,6.592a1.793,1.793,0,0,0,1.472-.648A2.829,2.829,0,0,0,26.192-3.9a2.989,2.989,0,0,0-.528-1.888,1.766,1.766,0,0,0-1.472-.672,1.779,1.779,0,0,0-1.48.656,2.952,2.952,0,0,0-.52,1.872,2.923,2.923,0,0,0,.52,1.856A1.779,1.779,0,0,0,24.192-1.424Zm12.256-.048a.9.9,0,0,1,.288.656.885.885,0,0,1-.272.632.864.864,0,0,1-.64.28.878.878,0,0,1-.688-.336l-2.256-2.5L30.624-.24a.928.928,0,0,1-.688.32.858.858,0,0,1-.624-.272.858.858,0,0,1-.272-.624.9.9,0,0,1,.288-.656l2.336-2.544-2.208-2.4a.9.9,0,0,1-.288-.656A.85.85,0,0,1,29.44-7.7a.871.871,0,0,1,.624-.264.928.928,0,0,1,.688.32L32.88-5.312l2.128-2.336a.928.928,0,0,1,.688-.32.862.862,0,0,1,.632.264.862.862,0,0,1,.264.632.9.9,0,0,1-.288.656L34.1-4.016Z" transform="translate(563.264 2684.424)" fill="#38485c"/>
      <g id="Grupo_18093" data-name="Grupo 18093" transform="translate(564 2657.349) rotate(-90)">
        <rect id="Rectángulo_3425-5" data-name="Rectángulo 3425" width="24" height="48.047" transform="translate(48.047) rotate(90)" fill="#007bc7" opacity="0.24"/>
        <path id="Trazado_4669-5" data-name="Trazado 4669" d="M0,48.045V0" transform="translate(48.045 23.887) rotate(90)" fill="none" stroke="#007bc7" stroke-width="1" stroke-dasharray="5 2"/>
        <path id="Trazado_4670-5" data-name="Trazado 4670" d="M0,48.045V0" transform="translate(48.045) rotate(90)" fill="none" stroke="#007bc7" stroke-width="1" stroke-dasharray="5 2"/>
      </g>
      <g id="Grupo_18094" data-name="Grupo 18094" transform="translate(1098 2657.349) rotate(-90)">
        <rect id="Rectángulo_3425-6" data-name="Rectángulo 3425" width="24" height="48.047" transform="translate(48.047) rotate(90)" fill="#007bc7" opacity="0.24"/>
        <path id="Trazado_4669-6" data-name="Trazado 4669" d="M0,48.045V0" transform="translate(48.045 23.887) rotate(90)" fill="none" stroke="#007bc7" stroke-width="1" stroke-dasharray="5 2"/>
        <path id="Trazado_4670-6" data-name="Trazado 4670" d="M0,48.045V0" transform="translate(48.045) rotate(90)" fill="none" stroke="#007bc7" stroke-width="1" stroke-dasharray="5 2"/>
      </g>
      <g id="Grupo_18097" data-name="Grupo 18097" transform="translate(-1275.878 3211.5) rotate(-90)">
        <rect id="Rectángulo_3425-7" data-name="Rectángulo 3425" width="16" height="48.047" transform="translate(602.198 2341.878) rotate(90)" fill="#007bc7" opacity="0.24"/>
        <path id="Trazado_4669-7" data-name="Trazado 4669" d="M0,48.045V0" transform="translate(602.197 2357.803) rotate(90)" fill="none" stroke="#007bc7" stroke-width="1" stroke-dasharray="5 2"/>
        <path id="Trazado_4670-7" data-name="Trazado 4670" d="M0,48.045V0" transform="translate(602.197 2341.878) rotate(90)" fill="none" stroke="#007bc7" stroke-width="1" stroke-dasharray="5 2"/>
      </g>
      <g id="Grupo_18098" data-name="Grupo 18098" transform="translate(33.366 279.907)">
        <rect id="Rectángulo_3425-8" data-name="Rectángulo 3425" width="24" height="478.483" transform="translate(1032.634 2341.878) rotate(90)" fill="none" opacity="0.24"/>
        <path id="Trazado_4669-8" data-name="Trazado 4669" d="M0,478.471V0" transform="translate(1032.622 2365.765) rotate(90)" fill="none" stroke="#007bc7" stroke-width="1" stroke-dasharray="5 2"/>
        <path id="Trazado_4670-8" data-name="Trazado 4670" d="M0,478.471V0" transform="translate(1032.622 2341.878) rotate(90)" fill="none" stroke="#007bc7" stroke-width="1" stroke-dasharray="5 2"/>
      </g>
      <path id="Trazado_20277" data-name="Trazado 20277" d="M8.016-1.664q.96,0,.96.816,0,.848-.96.848H2.608q-.976,0-.976-.848,0-.816.976-.816H4.272v-7.3l-1.536.944a.827.827,0,0,1-.4.128.7.7,0,0,1-.568-.288,1,1,0,0,1-.232-.64.8.8,0,0,1,.416-.72l2.48-1.536a1.782,1.782,0,0,1,.912-.288.973.973,0,0,1,.72.272,1.016,1.016,0,0,1,.272.752v8.672Zm7.056-5.568a3.5,3.5,0,0,1,1.792.456A3.181,3.181,0,0,1,18.088-5.5a3.929,3.929,0,0,1,.44,1.88,3.855,3.855,0,0,1-.488,1.944A3.479,3.479,0,0,1,16.7-.336a3.906,3.906,0,0,1-1.944.48,3.989,3.989,0,0,1-3.3-1.448,6.474,6.474,0,0,1-1.16-4.136,8.527,8.527,0,0,1,.544-3.192,4.529,4.529,0,0,1,1.56-2.072,4.03,4.03,0,0,1,2.392-.72,5.426,5.426,0,0,1,1.832.328,4.773,4.773,0,0,1,1.56.888,1.2,1.2,0,0,1,.3.344.87.87,0,0,1,.088.408.926.926,0,0,1-.2.6.592.592,0,0,1-.472.248.831.831,0,0,1-.3-.056,2.284,2.284,0,0,1-.352-.184,4.3,4.3,0,0,0-2.368-.928,2.071,2.071,0,0,0-1.84,1.08,5.933,5.933,0,0,0-.7,3.032,2.745,2.745,0,0,1,1.1-1.144A3.241,3.241,0,0,1,15.072-7.232ZM14.64-1.488a1.83,1.83,0,0,0,1.408-.568,2.109,2.109,0,0,0,.528-1.5,2.08,2.08,0,0,0-.528-1.488A1.844,1.844,0,0,0,14.64-5.6a1.928,1.928,0,0,0-1.448.568,2.034,2.034,0,0,0-.552,1.48,2.055,2.055,0,0,0,.552,1.5A1.928,1.928,0,0,0,14.64-1.488ZM24.7-8.016a3.243,3.243,0,0,1,1.8.512,3.4,3.4,0,0,1,1.232,1.448,5,5,0,0,1,.44,2.152,4.845,4.845,0,0,1-.44,2.128A3.333,3.333,0,0,1,26.512-.368a3.309,3.309,0,0,1-1.808.5,3.1,3.1,0,0,1-1.488-.352A2.47,2.47,0,0,1,22.208-1.2V2.064a.83.83,0,0,1-.272.656,1.048,1.048,0,0,1-.72.24,1.037,1.037,0,0,1-.728-.256.868.868,0,0,1-.28-.672V-7.04a.914.914,0,0,1,.264-.688.979.979,0,0,1,.712-.256,1.008,1.008,0,0,1,.72.256.9.9,0,0,1,.272.688v.4a2.455,2.455,0,0,1,1.016-1.016A3.121,3.121,0,0,1,24.7-8.016Zm-.528,6.592a1.793,1.793,0,0,0,1.472-.648A2.829,2.829,0,0,0,26.176-3.9a2.989,2.989,0,0,0-.528-1.888,1.766,1.766,0,0,0-1.472-.672,1.779,1.779,0,0,0-1.48.656,2.952,2.952,0,0,0-.52,1.872A2.923,2.923,0,0,0,22.7-2.08,1.779,1.779,0,0,0,24.176-1.424Zm12.256-.048a.9.9,0,0,1,.288.656.885.885,0,0,1-.272.632.864.864,0,0,1-.64.28A.878.878,0,0,1,35.12-.24l-2.256-2.5L30.608-.24a.928.928,0,0,1-.688.32A.858.858,0,0,1,29.3-.192a.858.858,0,0,1-.272-.624.9.9,0,0,1,.288-.656l2.336-2.544-2.208-2.4a.9.9,0,0,1-.288-.656.85.85,0,0,1,.272-.632.871.871,0,0,1,.624-.264.928.928,0,0,1,.688.32l2.128,2.336,2.128-2.336a.928.928,0,0,1,.688-.32.862.862,0,0,1,.632.264.862.862,0,0,1,.264.632.9.9,0,0,1-.288.656l-2.208,2.4Z" transform="translate(1045 2684.424)" fill="#38485c"/>
    </g>
  </g>
</svg>
