<svg xmlns="http://www.w3.org/2000/svg" width="712" height="1133" viewBox="0 0 712 1133"><defs><style>.a{fill:#f3f6f9;}.b{fill:#d1d8e0;}.c{fill:#38485c;font-size:16px;font-family:OpenSans-Regular, Open Sans;}</style></defs><g transform="translate(-513 -536)"><rect class="a" width="712" height="1133" rx="4" transform="translate(513 536)"/><g transform="translate(19)"><rect class="b" width="602" height="1" transform="translate(575 591)"/><text class="c" transform="translate(559 597)"><tspan x="-27.336" y="0">1px</tspan></text><rect class="b" width="602" height="2" transform="translate(575 636)"/><text class="c" transform="translate(559 643)"><tspan x="-27.336" y="0">2px</tspan></text><rect class="b" width="602" height="4" transform="translate(575 681)"/><text class="c" transform="translate(559 689)"><tspan x="-27.336" y="0">4px</tspan></text><rect class="b" width="602.096" height="8" transform="translate(575 725)"/><text class="c" transform="translate(559 735)"><tspan x="-27.336" y="0">8px</tspan></text><rect class="b" width="602" height="12" transform="translate(575 769)"/><text class="c" transform="translate(559 781)"><tspan x="-36.484" y="0">12px</tspan></text><rect class="b" width="602" height="16" transform="translate(575 813)"/><text class="c" transform="translate(559 827)"><tspan x="-36.484" y="0">16px</tspan></text><rect class="b" width="602" height="20" transform="translate(575 857)"/><text class="c" transform="translate(559 873)"><tspan x="-36.484" y="0">20px</tspan></text><rect class="b" width="602" height="24" transform="translate(575 902)"/><text class="c" transform="translate(559 920)"><tspan x="-36.484" y="0">24px</tspan></text><rect class="b" width="602" height="32" transform="translate(575 950)"/><text class="c" transform="translate(559 972)"><tspan x="-36.484" y="0">32px</tspan></text><rect class="b" width="602" height="40" transform="translate(575 1006)"/><text class="c" transform="translate(559 1032)"><tspan x="-36.484" y="0">40px</tspan></text><rect class="b" width="602" height="48" transform="translate(575 1070)"/><text class="c" transform="translate(559 1100)"><tspan x="-36.484" y="0">48px</tspan></text><rect class="b" width="602" height="56" transform="translate(575 1142)"/><text class="c" transform="translate(559 1176)"><tspan x="-36.484" y="0">56px</tspan></text><rect class="b" width="602" height="64" transform="translate(575 1222)"/><text class="c" transform="translate(559 1260)"><tspan x="-36.484" y="0">64px</tspan></text><rect class="b" width="602" height="72" transform="translate(575 1310)"/><text class="c" transform="translate(559 1352)"><tspan x="-36.484" y="0">72px</tspan></text><rect class="b" width="602" height="80" transform="translate(575 1406)"/><text class="c" transform="translate(559 1452)"><tspan x="-36.484" y="0">80px</tspan></text><rect class="b" width="602" height="120" transform="translate(575 1510)"/><text class="c" transform="translate(559 1576)"><tspan x="-45.633" y="0">120px</tspan></text></g></g></svg>