<?xml version="1.0" encoding="utf-8"?>
<!-- Generator: Adobe Illustrator 25.0.0, SVG Export Plug-In . SVG Version: 6.00 Build 0)  -->
<svg version="1.1" xmlns="http://www.w3.org/2000/svg" xmlns:xlink="http://www.w3.org/1999/xlink" x="0px" y="0px"
	 viewBox="0 0 298.47 293.14" style="enable-background:new 0 0 298.47 293.14;" xml:space="preserve">
<style type="text/css">
	.st0{fill:#383838;}
	.st1{fill:#38485C;}
	.st2{fill:#FFFFFF;}
	.st3{fill:none;stroke:#383838;stroke-miterlimit:10;}
	.st4{fill:none;stroke:#383838;stroke-width:3;stroke-miterlimit:10;}
	.st5{fill:#FFFFFF;stroke:#383838;stroke-miterlimit:10;}
</style>
<g id="Capa_1">
	<g>
		<path class="st1" d="M151.46,62.44V46.61c-2.35,0.72-4.43,1.53-6.18,2.42c1.41,1.41,2.28,3.36,2.28,5.51
			c0,2.15-0.87,4.09-2.28,5.5C147,60.9,149.07,61.71,151.46,62.44z"/>
		<path class="st1" d="M135.88,54.54c0,2.15,1.75,3.9,3.89,3.9s3.89-1.75,3.89-3.9c0-2.15-1.75-3.9-3.89-3.9
			S135.88,52.39,135.88,54.54z"/>
		<path class="st1" d="M155.36,63.51c7.2,1.73,17.11,2.83,27.53,2.72l-4.47-17.66c-0.37-1.96-0.94-3.84-1.66-5.64
			c-7.75,0.25-15.32,1.18-21.39,2.63V63.51z"/>
		<path class="st1" d="M130.04,62.34c3.7,0,6.61,3.46,5.66,7.31c-0.65,2.65-3.23,4.38-5.96,4.38h-6.44
			c2.39,2.99,5.31,5.58,8.72,7.54c0.29,0.17,0.62,0.25,0.96,0.25h40.16c0.65,0,1.26-0.33,1.62-0.87l7.64-10.87
			c-0.31,0-0.63,0.03-0.94,0.03c-11.66,0-30.43-1.62-40.22-7.94c-2.25,0.44-4.81,0.08-7.6-3.28c-0.87-1.05-1.51-2.33-1.63-3.69
			c-0.39-4.6,3.24-8.47,7.76-8.47c0.49,0,0.96,0.06,1.42,0.14c8.43-5.44,23.68-7.34,33.7-7.79c-5.68-9.96-16.95-16.37-29.06-15.7
			c-10.83,0.6-20.37,7.29-25.64,16.77c-4.16,7.5-4.59,15.19-2.78,22.17H130.04z"/>
		<path class="st1" d="M131.99,68.18c0-1.08-0.87-1.95-1.95-1.95h-11.33c0.54,1.34,1.16,2.65,1.89,3.9h9.44
			C131.11,70.13,131.99,69.26,131.99,68.18z"/>
		<path class="st1" d="M105.28,137.14h8.7h0.86h0.2l0.21-1.07l2.26-11.76c0.45-2.34,2.52-4.17,4.85-4.02
			c0.4-0.04,0.81-0.05,1.21,0.04c0.09,0.09,0.18,0.22,0.26,0.33c0.01,0,0.01,0,0.02,0.01c0,0.01,0,0.02,0,0.02
			c2.5,3.16,3.38,13.03,3.61,16.44h0.08h0.5c4.67-9.8,14.55-16.14,25.71-16.14c11.15,0,21.02,6.34,25.7,16.14h1.14h0.08
			c0.23-3.41,1.12-13.28,3.61-16.44c0-0.01,0-0.02,0-0.02c0.01,0,0.01,0,0.02-0.01c0.09-0.11,0.17-0.24,0.26-0.33
			c0.41-0.08,0.82-0.08,1.21-0.04c2.34-0.15,4.4,1.68,4.86,4.02l2.26,11.75l0.21,1.07h0.2h0.86h8.7c1.76,0,3.09-1.59,2.78-3.31
			l-3.07-17.31c-0.01-0.03-0.02-0.07-0.02-0.1c-0.05-0.28-0.12-0.55-0.18-0.84c-0.04-0.18-0.09-0.36-0.13-0.54
			c-2.83-11.49-10.87-21.04-21.52-25.33c-0.1-0.04-0.2-0.09-0.31-0.13c-0.25-0.1-0.51-0.17-0.77-0.27c-2.36-0.86-4.83-1.48-7.4-1.8
			c-0.78-0.1-1.56-0.16-2.33-0.2c0.06-0.03-7.84-0.04-15.87-0.04s-15.93,0.01-15.87,0.04c-0.78,0.04-1.55,0.1-2.33,0.2
			c-2.57,0.31-5.04,0.94-7.4,1.8c-0.25,0.09-0.51,0.17-0.77,0.27c-0.1,0.04-0.2,0.09-0.31,0.13c-10.65,4.29-18.69,13.84-21.52,25.33
			c-0.04,0.18-0.09,0.36-0.13,0.54c-0.06,0.28-0.13,0.55-0.18,0.84c-0.01,0.03-0.02,0.07-0.02,0.1l-3.07,17.31
			C102.19,135.55,103.52,137.14,105.28,137.14z"/>
		<path class="st1" d="M179.84,161.41c-0.63,1.34-1.36,2.62-2.18,3.83c-0.64,0.94-0.44,2.22,0.54,2.8c0.13,0.07,0.25,0.15,0.38,0.22
			c1.34,0.81,3.04-0.19,2.96-1.75c-0.08-1.75-0.16-3.46-0.24-5.1h-0.24H179.84z"/>
		<path class="st1" d="M129.63,168.05c0.13-0.08,0.27-0.16,0.4-0.24c0.99-0.59,1.18-1.9,0.53-2.84c-0.84-1.23-1.58-2.53-2.21-3.89
			h-1.21h-0.24c-0.08,1.68-0.16,3.43-0.25,5.23C126.57,167.88,128.28,168.87,129.63,168.05z"/>
		<path class="st1" d="M161.17,149.43c0-4.72-4.44-8.43-9.37-7.15c-2.49,0.65-4.52,2.68-5.17,5.17c-1.29,4.93,2.42,9.38,7.14,9.38
			c2.18,0,4.16-0.81,5.57-2.29c1.26-1.32,1.92-3.05,1.84-4.87l-0.01-0.12V149.43z"/>
		<path class="st1" d="M153.78,221.76c-3.25,0-6.19,1.25-8.46,3.25c-2.7,2.37-4.45,5.8-4.45,9.66v15.26v10.34
			c0,6.18,4.09,11.88,10.14,13.17c8.29,1.76,15.68-4.62,15.68-12.62v-14.42v-11.73c0-3.5-1.42-6.68-3.7-9.01
			C160.64,223.27,157.38,221.76,153.78,221.76z"/>
		<path class="st1" d="M207.35,143.25c-0.06-0.35-0.36-0.6-0.71-0.6H194.2h-13.58h-4.89c-2.9-9.36-11.62-16.14-21.95-16.14
			c-10.34,0-19.06,6.78-21.96,16.14h-4.25h-13.59H101.2c-0.15,0-0.28,0.11-0.31,0.26l0,0c-1.17,6.6,3.9,12.65,10.6,12.65h15.64h3.61
			c0.84,0,1.55,0.55,1.83,1.33c1.34,3.72,3.61,6.95,6.58,9.45c1.15,0.97,0.92,2.77-0.47,3.32c-4.65,1.84-8.9,4.49-12.59,7.76
			c-8.73,7.72-14.3,18.93-14.3,31.4v33.92c0,5.57,4.49,10.22,9.98,10.58c0.23,0.02,0.44,0.07,0.67,0.07h5.9
			c1.56,0,2.82-1.26,2.82-2.82v-15.59c0-10.27,6.89-19.05,16.27-21.92l3.17-17.77c0.15-0.86,1.82-1.29,3.48-1.29
			c1.66,0,3.32,0.43,3.48,1.29l3.17,17.77c9.39,2.87,16.27,11.65,16.27,21.92v15.59c0,1.56,1.26,2.82,2.82,2.82h5.9
			c0.23,0,0.45-0.05,0.67-0.07c5.51-0.36,9.99-5.01,9.99-10.58v-33.58c0-12.48-5.57-23.83-14.29-31.55
			c-3.68-3.25-7.91-5.88-12.53-7.65c-1.41-0.54-1.65-2.35-0.5-3.33c2.95-2.5,5.2-5.71,6.55-9.42c0.28-0.78,1-1.33,1.83-1.33h3.61
			h15.69C203.45,155.89,208.52,149.84,207.35,143.25z M153.78,162.34c-8,0-14.34-7.34-12.63-15.63c1-4.86,4.91-8.81,9.76-9.88
			c8.33-1.84,15.79,4.56,15.79,12.6C167,156.54,161.2,162.34,153.78,162.34z"/>
	</g>
</g>
<g id="Capa_2">
</g>
<g id="Capa_3">
</g>
<g id="Capa_4">
</g>
<g id="Capa_5">
</g>
</svg>
