<?xml version="1.0" encoding="utf-8"?>
<!-- Generator: Adobe Illustrator 25.0.0, SVG Export Plug-In . SVG Version: 6.00 Build 0)  -->
<svg version="1.1" xmlns="http://www.w3.org/2000/svg" xmlns:xlink="http://www.w3.org/1999/xlink" x="0px" y="0px"
	 viewBox="0 0 298.47 293.14" style="enable-background:new 0 0 298.47 293.14;" xml:space="preserve">
<style type="text/css">
	.st0{fill:#383838;}
	.st1{fill:#38485C;}
	.st2{fill:#FFFFFF;}
	.st3{fill:none;stroke:#383838;stroke-miterlimit:10;}
	.st4{fill:none;stroke:#383838;stroke-width:3;stroke-miterlimit:10;}
	.st5{fill:#FFFFFF;stroke:#383838;stroke-miterlimit:10;}
</style>
<g id="Capa_1">
	<g>
		<path class="st1" d="M263.63,264.79l-10.79-60.93l-5.87-33.12c-0.01-0.06-0.03-0.12-0.04-0.18c-0.09-0.5-0.22-0.99-0.32-1.49
			c-0.07-0.32-0.16-0.64-0.23-0.96c-5.05-20.54-19.43-37.61-38.47-45.28c-0.18-0.07-0.36-0.16-0.55-0.24
			c-0.45-0.18-0.92-0.31-1.37-0.48c-4.22-1.54-8.63-2.65-13.22-3.21c-1.39-0.17-2.78-0.29-4.17-0.36
			c0.11-0.05-14.03-0.07-28.37-0.07c-14.34,0-28.48,0.02-28.37,0.07c-1.38,0.07-2.78,0.19-4.17,0.36
			c-4.59,0.56-15.97,4.35-16.4,4.53c-0.05,0-0.09-0.01-0.14-0.01c-8.63-0.26-33.94,3.85-51.68,0.67c-3.89-0.7-13.56-4.63-3.67-9.18
			c9.1-4.19,27.45-11.31,63.61-12.93c2.7-0.12,5.54-0.08,7.95-0.51c-5.17-5.32-9.04-11.87-11.16-19.19
			c-0.02-0.08-0.03-0.16-0.05-0.24c-3.87,0.33-6.6,0.63-6.6,0.63l0.02,0.02c-49.42,3.24-70.6,12.79-80.73,29.16
			c-4.87,7.88-4.97,16.11-2.21,20.53c4.04,6.48,13.66,10.88,15.98,11.83c10.35,4.26,20.5,7.15,31.39,8.21
			c-0.02,0.04-0.05,0.08-0.08,0.12c1.7,0.08,11.54,4.26,14.2,6.2c3.29,2.87,6.58,5.75,9.87,8.62c3.52,3.55,6.33,6.83,7.7,10.22
			c0.01,0.03,4.51,11.61,4.6,11.77c1.97,9.36,2.5,20.39,2.5,20.39c0.36,7.06-0.78,34.2-2.49,67.58c-0.12,2.32,1.73,4.27,4.05,4.27
			h91.76c2.32,0,4.16-1.95,4.05-4.27c-1.71-33.37-2.85-60.52-2.49-67.58c0,0,1.16-24.64,6.59-31.5c0-0.01,0-0.03,0.01-0.04
			c0.01,0,0.02-0.01,0.03-0.01c0.16-0.2,0.31-0.43,0.47-0.6c0.73-0.15,1.46-0.14,2.17-0.07c4.17-0.27,7.87,2.99,8.68,7.18
			l4.05,21.01l12.09,62.77c0.99,5.14,5.3,9.19,10.52,9.36C259.5,278.06,264.84,271.65,263.63,264.79z"/>
		<path class="st1" d="M134.11,81.11c4.56,0.04,8.67,2.99,10,7.09c0.42-0.74,1.19-1.26,2.1-1.26h26.87c1.36,0,2.46,1.1,2.46,2.46
			c0,1.36-1.1,2.46-2.46,2.46h-26.87c-0.63,0-1.19-0.25-1.62-0.64c-0.08,3.33-2,6.66-8.16,8.63c-2.36,0.75-5.3,1.32-9.06,1.59
			c8.33,8.57,19.96,13.91,32.86,13.91c25.32,0,45.85-20.53,45.85-45.85s-20.53-45.85-45.85-45.85s-45.85,20.53-45.85,45.85
			c0,4.34,0.65,8.53,1.78,12.51c2.39-0.21,5.2-0.42,8.09-0.6C127.64,81.22,131.13,81.08,134.11,81.11z"/>
		<path class="st1" d="M144.11,88.21c-0.21,0.36-0.36,0.76-0.36,1.21c0,0.73,0.33,1.37,0.84,1.82c0-0.04,0.01-0.08,0.01-0.12
			C144.62,90.09,144.41,89.13,144.11,88.21z"/>
	</g>
</g>
<g id="Capa_2">
</g>
<g id="Capa_3">
</g>
<g id="Capa_4">
</g>
<g id="Capa_5">
</g>
</svg>
