<?xml version="1.0" encoding="utf-8"?>
<!-- Generator: Adobe Illustrator 25.0.0, SVG Export Plug-In . SVG Version: 6.00 Build 0)  -->
<svg version="1.1" xmlns="http://www.w3.org/2000/svg" xmlns:xlink="http://www.w3.org/1999/xlink" x="0px" y="0px"
	 viewBox="0 0 298.47 293.14" style="enable-background:new 0 0 298.47 293.14;" xml:space="preserve">
<style type="text/css">
	.st0{fill:#383838;}
	.st1{fill:#38485C;}
	.st2{fill:#FFFFFF;}
	.st3{fill:none;stroke:#383838;stroke-miterlimit:10;}
	.st4{fill:none;stroke:#383838;stroke-width:3;stroke-miterlimit:10;}
	.st5{fill:#FFFFFF;stroke:#383838;stroke-miterlimit:10;}
</style>
<g id="Capa_1">
	<g>
		<path class="st1" d="M221.11,249.12l-9.56-53.94l-5.24-29.59c-0.01-0.05-0.03-0.11-0.04-0.16c-0.08-0.45-0.2-0.89-0.29-1.34
			c-0.06-0.29-0.15-0.57-0.21-0.86c-0.25-1-0.61-1.95-0.9-2.93c-5.7-33.52-37.51-44.2-75.96-44.2c-9.18,0-18.01,0.7-26.18,2.05
			l0.2,0.86l14.62,63.87h17.31c11.23,0,20.24,9.18,20.24,20.24c0,11.23-9.18,20.23-20.24,20.23H87.96h-1.99
			c-0.28,7.13-0.66,15.48-1.11,24.65c-0.19,3.92-0.39,7.99-0.61,12.17c-0.08,1.48,1.1,2.73,2.58,2.73h83.97
			c1.48,0,2.66-1.25,2.58-2.73c-1.51-29.53-2.52-53.49-2.2-59.75c0,0,0.73-15.32,3.79-23.96c0.6-1.7,1.29-3.17,2.09-4.18
			c0-0.01,0-0.02,0.01-0.04c0.01-0.01,0.02-0.01,0.03-0.01c0.14-0.17,0.27-0.38,0.42-0.53c0.65-0.13,1.3-0.13,1.94-0.06
			c3.73-0.24,7.03,2.67,7.75,6.41l3.61,18.77l9.85,51.14l1.01,5.26c1.05,5.44,6.39,9.04,11.96,7.79
			C218.9,259.82,222.05,254.4,221.11,249.12z"/>
		<path class="st1" d="M115.8,214.65l-4.75-20.93h8.33l-1.84-8.65h-8.87l1.37,6.29H85.67h-9.11c0.99-6.43,2.66-11.58,5.41-16.63
			c1.02-1.88,2.19-3.74,3.53-5.65c0.75-1.08,2.46-0.55,2.46,0.76v13.04h20.72l-14.33-62.6c-2.18,0.51-4.33,1.12-6.4,1.87
			c-0.41,0.15-0.82,0.27-1.23,0.43c-0.16,0.07-0.32,0.15-0.49,0.21c-16.3,6.57-28.69,20.88-33.67,38.21
			c-0.52,3.29-0.79,6.79-0.79,10.52v30.32v8.29c0,2.5,2.02,4.52,4.52,4.52h7.07h22.92H115.8z"/>
		<path class="st1" d="M146.5,204.06c-0.64-6.06-6.11-10.46-12.2-10.46h-14.91l5.46,23.43h10.01
			C141.74,217.02,147.24,211.03,146.5,204.06z"/>
		<path class="st1" d="M129.96,109.48c22.14,0,40.09-17.95,40.09-40.09c0-22.14-17.95-40.09-40.09-40.09S89.87,47.26,89.87,69.39
			C89.87,91.53,107.82,109.48,129.96,109.48z"/>
	</g>
</g>
<g id="Capa_2">
</g>
<g id="Capa_3">
</g>
<g id="Capa_4">
</g>
<g id="Capa_5">
</g>
</svg>
