<?xml version="1.0" encoding="utf-8"?>
<!-- Generator: Adobe Illustrator 25.0.0, SVG Export Plug-In . SVG Version: 6.00 Build 0)  -->
<svg version="1.1" xmlns="http://www.w3.org/2000/svg" xmlns:xlink="http://www.w3.org/1999/xlink" x="0px" y="0px"
	 viewBox="0 0 298.47 293.14" style="enable-background:new 0 0 298.47 293.14;" xml:space="preserve">
<style type="text/css">
	.st0{fill:#383838;}
	.st1{fill:#38485C;}
	.st2{fill:#FFFFFF;}
	.st3{fill:none;stroke:#383838;stroke-miterlimit:10;}
	.st4{fill:none;stroke:#383838;stroke-width:3;stroke-miterlimit:10;}
	.st5{fill:#FFFFFF;stroke:#383838;stroke-miterlimit:10;}
</style>
<g id="Capa_1">
	<g>
		<path class="st1" d="M214.35,133.24c-0.78-2.36-3.36-7.05-8.65-11.25c-5.54-4.4-14.04-8.26-26.63-8.33l-32.94,0.07
			c-5.52,0.01-10.32,0.01-13.16,0.03l-2.15,0.01c-16.62-0.93-26.28,5.62-31.13,11.81c-2.13,2.71-3.34,5.36-3.79,7.27
			c0,0-16.18,51.54-13.39,63.47c0.02,0.07,0.05,0.14,0.07,0.21c0.86,3.34,3.92,6.99,8.28,10.61c5.29,4.4,12.47,8.76,19.91,12.43
			l-0.18,15.27c-0.03,2.37,1.89,4.31,4.26,4.31h83.42c2.26,0,4.13-1.77,4.25-4.03l0.94-17.51c6.07-3.21,11.77-6.82,16.17-10.47
			c4.36-3.62,7.4-7.27,8.27-10.61c0.02-0.07,0.07-0.14,0.08-0.21C230.75,184.23,214.35,133.24,214.35,133.24z M197.6,187.08
			c-5.71,5.19-18.37,14.27-37.07,14.16c-0.7,0-1.35,0-1.96-0.04h-0.04c-2.4-0.03-4.58-0.21-6.5-0.43
			c-12.37-1.46-15.89-6.06-16.03-10.71c-2.25,0.98-4.72,1.56-7.32,1.56c-7.48,0-13.88-4.59-16.67-11.14
			c-0.39-2.5-0.88-5.04-1.5-7.33c0-10.23,8.13-18.49,18.17-18.49c9.86,0,17.98,8.01,18.24,17.99c3.15-2.25,6.34-3.33,8.77-3.77v0.07
			c3.59-0.69,6.42,0,6.42,0c9.7,2.15,28.82,10.19,36.06,13.31C197.94,183.97,197.75,185.6,197.6,187.08z"/>
		<path class="st1" d="M157.55,105.17c21.43,0,38.81-17.37,38.81-38.81c0-21.43-17.37-38.81-38.81-38.81
			c-21.43,0-38.81,17.38-38.81,38.81C118.74,87.79,136.12,105.17,157.55,105.17z"/>
	</g>
</g>
<g id="Capa_2">
</g>
<g id="Capa_3">
</g>
<g id="Capa_4">
</g>
<g id="Capa_5">
</g>
</svg>
