<?xml version="1.0" encoding="utf-8"?>
<!-- Generator: Adobe Illustrator 25.0.0, SVG Export Plug-In . SVG Version: 6.00 Build 0)  -->
<svg version="1.1" xmlns="http://www.w3.org/2000/svg" xmlns:xlink="http://www.w3.org/1999/xlink" x="0px" y="0px"
	 viewBox="0 0 298.47 293.14" style="enable-background:new 0 0 298.47 293.14;" xml:space="preserve">
<style type="text/css">
	.st0{fill:#383838;}
	.st1{fill:#38485C;}
	.st2{fill:#FFFFFF;}
	.st3{fill:none;stroke:#383838;stroke-miterlimit:10;}
	.st4{fill:none;stroke:#383838;stroke-width:3;stroke-miterlimit:10;}
	.st5{fill:#FFFFFF;stroke:#383838;stroke-miterlimit:10;}
</style>
<g id="Capa_1">
	<g>
		<path class="st1" d="M233.77,78.32c0-2.64,1.03-5.12,2.9-6.99c1.71-1.71,1.71-4.48,0-6.19c-1.71-1.71-4.48-1.71-6.19,0
			c-3.52,3.52-5.46,8.2-5.46,13.17c0,4.98,1.94,9.66,5.46,13.17c0.85,0.85,1.97,1.28,3.09,1.28c1.12,0,2.24-0.43,3.09-1.28
			c1.71-1.71,1.71-4.48,0-6.19C234.8,83.44,233.77,80.96,233.77,78.32z"/>
		<path class="st1" d="M225.32,61.58c1.71-1.71,1.71-4.48,0-6.19c-1.71-1.71-4.48-1.71-6.19,0c-12.87,12.87-12.87,33.82,0,46.7
			c0.85,0.85,1.97,1.28,3.09,1.28s2.24-0.43,3.09-1.28c1.71-1.71,1.71-4.48,0-6.19C215.86,86.44,215.86,71.04,225.32,61.58z"/>
		<path class="st1" d="M211.26,115.19c1.12,0,2.24-0.43,3.09-1.28c1.71-1.71,1.71-4.48,0-6.19c-15.77-15.77-15.77-41.42,0-57.18
			c1.71-1.71,1.71-4.48,0-6.19c-1.71-1.71-4.48-1.71-6.19,0c-19.18,19.18-19.18,50.38,0,69.56
			C209.02,114.76,210.14,115.19,211.26,115.19z"/>
		<path class="st1" d="M60.6,66c-1.71-1.71-4.48-1.71-6.19,0c-1.71,1.71-1.71,4.48,0,6.19c3.85,3.85,3.85,10.12,0,13.97
			c-1.71,1.71-1.71,4.48,0,6.19c0.86,0.85,1.98,1.28,3.09,1.28c1.12,0,2.24-0.43,3.09-1.28C67.86,85.08,67.86,73.26,60.6,66z"/>
		<path class="st1" d="M65.76,95.92c-1.71,1.71-1.71,4.48,0,6.19c0.86,0.85,1.98,1.28,3.09,1.28c1.12,0,2.24-0.43,3.09-1.28
			c12.87-12.87,12.87-33.82,0-46.7c-1.71-1.71-4.48-1.71-6.19,0c-1.71,1.71-1.71,4.48,0,6.19C75.22,71.06,75.22,86.45,65.76,95.92z"
			/>
		<path class="st1" d="M76.72,106.96c-1.71,1.71-1.71,4.48,0,6.19c0.86,0.85,1.97,1.28,3.09,1.28c1.12,0,2.24-0.43,3.09-1.28
			c19.18-19.18,19.18-50.38,0-69.56c-1.71-1.71-4.48-1.71-6.19,0c-1.71,1.71-1.71,4.48,0,6.19C92.49,65.54,92.49,91.19,76.72,106.96
			z"/>
		<path class="st1" d="M160.66,206.39l-13.69-19.35l-15.61,6.17l3.25,23.48l9.7,24.53c0.39-0.21,0.76-0.44,1.18-0.6l24.89-9.68
			L160.66,206.39z"/>
		<path class="st1" d="M151.8,261.11h36.3c-0.24-4.73-0.47-9.32-0.68-13.7l-34.14,13.28C152.8,260.88,152.3,261,151.8,261.11z"/>
		<path class="st1" d="M99.63,261.11h47.31c-3.34-0.78-6.26-3.11-7.6-6.55c-0.55-1.41-0.77-2.86-0.72-4.27l-12.23-30.92
			c-0.09-0.33-0.17-0.65-0.26-0.98l-3.48-25.2l-21.2,6.07c0.2,2.42,0.28,4.03,0.28,4.03C102.04,209.4,101.08,232.48,99.63,261.11z"
			/>
		<path class="st1" d="M220.92,168.66c-0.01-0.05-0.03-0.1-0.04-0.16c-0.08-0.45-0.2-0.88-0.29-1.33c-0.06-0.29-0.15-0.57-0.21-0.85
			c-0.49-1.99-1.12-3.93-1.8-5.85c-4.03-11.29-11.29-21.07-20.72-27.9c-3.59-2.6-7.49-4.79-11.64-6.47
			c-0.16-0.06-0.32-0.15-0.48-0.21c-0.4-0.16-0.81-0.28-1.22-0.43c-3.75-1.36-7.67-2.35-11.74-2.85c-1.24-0.15-2.47-0.26-3.7-0.32
			c0.1-0.04-12.46-0.06-25.2-0.06c-12.74,0-25.3,0.02-25.2,0.06c-1.23,0.06-2.47,0.17-3.7,0.32c-4.08,0.5-8,1.49-11.74,2.85
			c-0.4,0.15-0.82,0.27-1.22,0.43c-0.16,0.07-0.32,0.15-0.48,0.21c-4.16,1.67-8.06,3.86-11.65,6.47
			c-9.43,6.83-16.68,16.61-20.71,27.89c-0.68,1.92-1.32,3.86-1.81,5.85c-0.06,0.29-0.15,0.57-0.21,0.85
			c-0.09,0.45-0.21,0.88-0.29,1.33c-0.01,0.06-0.03,0.11-0.03,0.16l-5.21,29.42l-0.03,0.17c0.69,4.1,3.6,7.65,8.2,8.71
			c1.87,0.43,3.84,0.28,5.69-0.25l5.7-1.63l20.29-5.81c-0.46-5.56-1.6-15.55-4.05-21.24l-11.68,3.35l0.06-0.32
			c0.23-1.17,0.73-2.24,1.39-3.17c2.19-1.86,5.11-3.14,6.32-3.21c0.63-0.07,1.28-0.07,1.93,0.06c0.15,0.15,0.28,0.36,0.42,0.53
			c0.01,0,0.02,0.01,0.03,0.01c0,0.01,0,0.02,0.01,0.03c0.56,0.71,1.06,1.64,1.52,2.71l40.37-11.57c5.47-1.57,11.54,1.01,13.61,6.32
			c0.82,2.11,0.86,4.26,0.4,6.27c0.08,0.1,0.19,0.16,0.26,0.26l15.94,22.52c0.17,0.31,0.33,0.61,0.49,0.91l9.92,25.08l8.03-3.12
			c-0.41-10.59-0.59-18.26-0.42-21.41c0,0,0.9-20.09,5.85-27.98c0-0.01,0.99-0.7,0.99-0.7s0.84-0.24,1.47-0.17
			c3.79,0.31,6.92,2.9,7.63,6.61l2.86,14.86c0.01,0.09,0.02,0.19,0.03,0.28v21.35l-18.41,7.16c0.25,6.57,0.59,14.25,1,22.72
			l25.4-9.88l6.68-2.6c4.14-1.61,6.86-5.59,6.86-10.03v-25.47l-0.24-1.35L220.92,168.66z"/>
		<path class="st1" d="M145.54,116.92c21.08,0,38.17-17.09,38.17-38.17c0-21.08-17.09-38.17-38.17-38.17
			c-21.08,0-38.17,17.09-38.17,38.17C107.37,99.83,124.46,116.92,145.54,116.92z"/>
	</g>
</g>
<g id="Capa_2">
</g>
<g id="Capa_3">
</g>
<g id="Capa_4">
</g>
<g id="Capa_5">
</g>
</svg>
