<?xml version="1.0" encoding="utf-8"?>
<!-- Generator: Adobe Illustrator 25.0.0, SVG Export Plug-In . SVG Version: 6.00 Build 0)  -->
<svg version="1.1" xmlns="http://www.w3.org/2000/svg" xmlns:xlink="http://www.w3.org/1999/xlink" x="0px" y="0px"
	 viewBox="0 0 298.47 293.14" style="enable-background:new 0 0 298.47 293.14;" xml:space="preserve">
<style type="text/css">
	.st0{fill:#383838;}
	.st1{fill:#38485C;}
	.st2{fill:#FFFFFF;}
	.st3{fill:none;stroke:#383838;stroke-miterlimit:10;}
	.st4{fill:none;stroke:#383838;stroke-width:3;stroke-miterlimit:10;}
	.st5{fill:#FFFFFF;stroke:#383838;stroke-miterlimit:10;}
</style>
<g id="Capa_1">
	<g>
		<path class="st1" d="M201.73,122.85c0.13-2.4,0.21-4.92,0.21-7.55c0.01-21.75-11.38-36.12-32.56-41.89
			c-0.12-0.02-0.25-0.04-0.37-0.07l-0.04-0.03c-7.66-1.93-15.53-2.86-23.43-2.76c-7.9-0.09-15.77,0.83-23.43,2.76l-0.04,0.03
			c-0.09,0.02-0.18,0.04-0.27,0.05c-21.12,6.17-32.66,20.12-32.66,41.89c0,2.64,0.08,5.15,0.21,7.55c3.64-0.51,7.34,0.14,10.6,1.85
			c0.39-0.48,0.82-0.92,1.3-1.3c1.87-1.4,5.74-3.73,11.11-6.96c9.58-5.54,18.88-11.55,27.87-18.01c3.13-2.42,7.49-2.42,10.61,0
			c8.98,6.46,18.28,12.48,27.87,18.01c5.37,3.23,9.25,5.56,11.04,6.91c0.51,0.4,0.97,0.86,1.37,1.37
			C194.38,122.99,198.09,122.34,201.73,122.85z"/>
		<path class="st1" d="M167.23,64.05c0-8.36-9.73-15.18-21.69-15.18s-21.69,6.83-21.69,15.18c7.13-1.5,14.4-2.23,21.69-2.17
			C152.83,61.82,160.1,62.55,167.23,64.05z"/>
		<path class="st1" d="M193.26,133.63v21.59c0.15-0.13,0.32-0.23,0.46-0.36c3.97-3.96,6.6-9.07,7.51-14.61
			c0.77-2.79,0.92-5.71,0.43-8.56C198.72,130.91,195.58,131.64,193.26,133.63z"/>
		<path class="st1" d="M167.23,215.82v-7.65c-5.64,6.04-13.44,9.59-21.69,9.9c-8.26-0.3-16.05-3.86-21.69-9.9v7.57l22.41,14.94
			L167.23,215.82z"/>
		<polygon class="st1" points="116.72,230.07 131.47,241.15 138.67,236.05 120.71,224.08 		"/>
		<path class="st1" d="M141.04,244.54c1.71,2.94,4.24,5.31,7.29,6.82l26.03-21.27l-3.93-5.89L141.04,244.54z"/>
		<path class="st1" d="M89.41,131.68c-0.48,2.84-0.33,5.76,0.43,8.54c0.91,5.54,3.54,10.65,7.51,14.61
			c0.15,0.14,0.32,0.24,0.47,0.38v-21.58C95.51,131.64,92.36,130.91,89.41,131.68z"/>
		<path class="st1" d="M174.24,123.84c-9.88-5.71-19.46-11.91-28.7-18.58c-9.25,6.68-18.83,12.88-28.7,18.58
			c-4.77,2.86-8.86,5.33-10.29,6.4c-0.04,0.18-0.05,0.36-0.05,0.53v24.96c0,2.08,0.34,4.16,1,6.13c2.73,8.17,6.17,16.08,10.28,23.65
			c6.04,10.89,15.76,23.86,27.77,23.86c12.01,0,21.72-12.98,27.77-23.86c4.12-7.57,7.56-15.48,10.28-23.65c0.66-1.98,1-4.05,1-6.13
			v-24.96c0.01-0.22-0.04-0.44-0.16-0.63C183.12,129.18,179,126.7,174.24,123.84z M138.3,152.37l-29.28-3.25l29.28-3.25
			c1.8,0,3.25,1.45,3.25,3.25C141.55,150.92,140.1,152.37,138.3,152.37z M151.29,152.37c-1.8,0-3.25-1.46-3.25-3.25
			c0-1.8,1.46-3.25,3.25-3.25l29.28,3.25L151.29,152.37z"/>
	</g>
</g>
<g id="Capa_2">
</g>
<g id="Capa_3">
</g>
<g id="Capa_4">
</g>
<g id="Capa_5">
</g>
</svg>
