<svg width="712" height="796" viewBox="0 0 712 796" fill="none" xmlns="http://www.w3.org/2000/svg">
<mask id="path-1-inside-1_3141_14823" fill="white">
<path d="M0 7.99999C0 3.58171 3.58172 0 8 0H704C708.418 0 712 3.58172 712 8V507H0V7.99999Z"/>
</mask>
<path d="M0 7.99999C0 3.58171 3.58172 0 8 0H704C708.418 0 712 3.58172 712 8V507H0V7.99999Z" fill="#F3F6F9"/>
<path d="M-2 8C-2 2.47715 2.47715 -2 8 -2H704C709.523 -2 714 2.47715 714 8H710C710 4.68629 707.314 2 704 2H8C4.68629 2 2 4.68629 2 8H-2ZM712 507H0H712ZM-2 507V8C-2 2.47715 2.47715 -2 8 -2V2C4.68629 2 2 4.68629 2 8V507H-2ZM704 -2C709.523 -2 714 2.47715 714 8V507H710V8C710 4.68629 707.314 2 704 2V-2Z" fill="#E6EBF0" mask="url(#path-1-inside-1_3141_14823)"/>
<line x1="45" y1="224.5" x2="670" y2="224.5" stroke="#E6EBF0"/>
<rect x="42" y="306" width="579.919" height="160.79" rx="8" fill="white"/>
<path d="M58 328.347C58 324.842 60.8416 322 64.3469 322H115.122C118.627 322 121.469 324.842 121.469 328.347V379.122C121.469 382.627 118.627 385.469 115.122 385.469H64.3469C60.8416 385.469 58 382.627 58 379.122V328.347Z" fill="#9EAAB8"/>
<path d="M58 397.469H197.632V411.75H58V397.469Z" fill="#38485C"/>
<path d="M58 419.75H220.64V426.096H58V419.75Z" fill="#505E70"/>
<path d="M58 432.096H208.739V438.443H58V432.096Z" fill="#505E70"/>
<path d="M58 444.443H215.086V450.79H58V444.443Z" fill="#505E70"/>
<path d="M250.64 328.347C250.64 324.842 253.481 322 256.986 322H307.762C311.267 322 314.109 324.842 314.109 328.347V379.122C314.109 382.627 311.267 385.469 307.762 385.469H256.986C253.481 385.469 250.64 382.627 250.64 379.122V328.347Z" fill="#9EAAB8"/>
<path d="M250.64 397.469H390.271V411.75H250.64V397.469Z" fill="#38485C"/>
<path d="M250.64 419.75H413.279V426.096H250.64V419.75Z" fill="#505E70"/>
<path d="M250.64 432.096H401.379V438.443H250.64V432.096Z" fill="#505E70"/>
<path d="M250.64 444.443H407.725V450.79H250.64V444.443Z" fill="#505E70"/>
<path d="M443.279 328.347C443.279 324.842 446.121 322 449.626 322H500.401C503.906 322 506.748 324.842 506.748 328.347V379.122C506.748 382.627 503.906 385.469 500.401 385.469H449.626C446.121 385.469 443.279 382.627 443.279 379.122V328.347Z" fill="#9EAAB8"/>
<path d="M443.279 397.469H582.911V411.75H443.279V397.469Z" fill="#38485C"/>
<path d="M443.279 419.75H605.919V426.096H443.279V419.75Z" fill="#505E70"/>
<path d="M443.279 432.096H594.018V438.443H443.279V432.096Z" fill="#505E70"/>
<path d="M443.279 444.443H600.365V450.79H443.279V444.443Z" fill="#505E70"/>
<path d="M656.933 375.648C654.955 375.648 653.022 376.234 651.377 377.333C649.733 378.432 648.451 379.994 647.694 381.821C646.937 383.648 646.739 385.659 647.125 387.599C647.511 389.539 648.463 391.32 649.862 392.719C651.26 394.118 653.042 395.07 654.982 395.456C656.922 395.842 658.933 395.644 660.76 394.887C662.587 394.13 664.149 392.848 665.248 391.204C666.347 389.559 666.933 387.626 666.933 385.648C666.933 382.996 665.879 380.452 664.004 378.577C662.129 376.702 659.585 375.648 656.933 375.648ZM654.223 389.938L650.633 386.348C650.469 386.157 650.384 385.911 650.393 385.659C650.403 385.407 650.507 385.168 650.685 384.99C650.864 384.812 651.102 384.708 651.354 384.698C651.606 384.689 651.852 384.774 652.043 384.938L654.933 387.818L661.813 380.938C662.004 380.774 662.25 380.689 662.502 380.698C662.754 380.708 662.992 380.812 663.171 380.99C663.349 381.168 663.453 381.407 663.463 381.659C663.472 381.911 663.387 382.157 663.223 382.348L655.633 389.938C655.446 390.124 655.192 390.229 654.928 390.229C654.664 390.229 654.41 390.124 654.223 389.938Z" fill="#26874A"/>
<path d="M45 62.3469C45 58.8416 47.8416 56 51.3469 56H102.122C105.627 56 108.469 58.8416 108.469 62.3469V113.122C108.469 116.627 105.627 119.469 102.122 119.469H51.3469C47.8416 119.469 45 116.627 45 113.122V62.3469Z" fill="#9EAAB8"/>
<path d="M45 131.469H184.632V145.75H45V131.469Z" fill="#38485C"/>
<path d="M45 153.75H207.64V160.096H45V153.75Z" fill="#505E70"/>
<path d="M45 166.096H195.739V172.443H45V166.096Z" fill="#505E70"/>
<path d="M45 178.443H202.086V184.79H45V178.443Z" fill="#505E70"/>
<path d="M254 62.3469C254 58.8416 256.842 56 260.347 56H311.122C314.627 56 317.469 58.8416 317.469 62.3469V113.122C317.469 116.627 314.627 119.469 311.122 119.469H260.347C256.842 119.469 254 116.627 254 113.122V62.3469Z" fill="#9EAAB8"/>
<path d="M254 131.469H393.632V145.75H254V131.469Z" fill="#38485C"/>
<path d="M254 153.75H416.64V160.096H254V153.75Z" fill="#505E70"/>
<path d="M254 166.096H404.739V172.443H254V166.096Z" fill="#505E70"/>
<path d="M254 178.443H411.086V184.79H254V178.443Z" fill="#505E70"/>
<path d="M462 62.3469C462 58.8416 464.842 56 468.347 56H519.122C522.627 56 525.469 58.8416 525.469 62.3469V113.122C525.469 116.627 522.627 119.469 519.122 119.469H468.347C464.842 119.469 462 116.627 462 113.122V62.3469Z" fill="#9EAAB8"/>
<path d="M462 131.469H601.632V145.75H462V131.469Z" fill="#38485C"/>
<path d="M462 153.75H624.64V160.096H462V153.75Z" fill="#505E70"/>
<path d="M462 166.096H612.739V172.443H462V166.096Z" fill="#505E70"/>
<path d="M462 178.443H619.086V184.79H462V178.443Z" fill="#505E70"/>
<path d="M657 121C655.022 121 653.089 121.586 651.444 122.685C649.8 123.784 648.518 125.346 647.761 127.173C647.004 129 646.806 131.011 647.192 132.951C647.578 134.891 648.53 136.673 649.929 138.071C651.327 139.47 653.109 140.422 655.049 140.808C656.989 141.194 659 140.996 660.827 140.239C662.654 139.482 664.216 138.2 665.315 136.556C666.414 134.911 667 132.978 667 131C667.001 129.686 666.743 128.386 666.241 127.172C665.739 125.958 665.003 124.855 664.074 123.926C663.145 122.997 662.042 122.261 660.828 121.759C659.614 121.257 658.314 120.999 657 121ZM661.3 135.3C661.113 135.486 660.859 135.591 660.595 135.591C660.331 135.591 660.077 135.486 659.89 135.3L657 132.41L654.11 135.3C654.02 135.405 653.91 135.49 653.786 135.55C653.662 135.61 653.527 135.643 653.389 135.649C653.251 135.654 653.114 135.631 652.986 135.581C652.857 135.53 652.741 135.454 652.643 135.357C652.546 135.259 652.47 135.143 652.419 135.014C652.369 134.886 652.346 134.749 652.351 134.611C652.357 134.473 652.39 134.338 652.45 134.214C652.51 134.09 652.595 133.98 652.7 133.89L655.59 131L652.7 128.11C652.536 127.919 652.451 127.673 652.46 127.421C652.47 127.169 652.574 126.931 652.752 126.752C652.931 126.574 653.169 126.47 653.421 126.46C653.673 126.451 653.919 126.536 654.11 126.7L657 129.59L659.89 126.7C660.081 126.536 660.327 126.451 660.579 126.46C660.831 126.47 661.069 126.574 661.248 126.752C661.426 126.931 661.53 127.169 661.54 127.421C661.549 127.673 661.464 127.919 661.3 128.11L658.41 131L661.3 133.89C661.483 134.079 661.585 134.332 661.585 134.595C661.585 134.858 661.483 135.111 661.3 135.3Z" fill="#C93B3B"/>
<mask id="path-37-inside-2_3141_14823" fill="white">
<path d="M0 507H712V788C712 792.418 708.418 796 704 796H8C3.58172 796 0 792.418 0 788V507Z"/>
</mask>
<path d="M0 507H712V788C712 792.418 708.418 796 704 796H8C3.58172 796 0 792.418 0 788V507Z" fill="white"/>
<path d="M0 507H712H0ZM714 788C714 793.523 709.523 798 704 798H8C2.47715 798 -2 793.523 -2 788H2C2 791.314 4.68629 794 8 794H704C707.314 794 710 791.314 710 788H714ZM8 798C2.47715 798 -2 793.523 -2 788V507H2V788C2 791.314 4.68629 794 8 794V798ZM714 507V788C714 793.523 709.523 798 704 798V794C707.314 794 710 791.314 710 788V507H714Z" fill="#E6EBF0" mask="url(#path-37-inside-2_3141_14823)"/>
<rect x="42" y="588" width="579.919" height="160.79" rx="8" fill="#F3F6F9"/>
<path d="M58 610.347C58 606.842 60.8416 604 64.3469 604H115.122C118.627 604 121.469 606.842 121.469 610.347V661.122C121.469 664.627 118.627 667.469 115.122 667.469H64.3469C60.8416 667.469 58 664.627 58 661.122V610.347Z" fill="#9EAAB8"/>
<path d="M58 679.469H197.632V693.75H58V679.469Z" fill="#38485C"/>
<path d="M58 701.75H220.64V708.096H58V701.75Z" fill="#505E70"/>
<path d="M58 714.096H208.739V720.443H58V714.096Z" fill="#505E70"/>
<path d="M58 726.443H215.086V732.79H58V726.443Z" fill="#505E70"/>
<path d="M250.64 610.347C250.64 606.842 253.481 604 256.986 604H307.762C311.267 604 314.109 606.842 314.109 610.347V661.122C314.109 664.627 311.267 667.469 307.762 667.469H256.986C253.481 667.469 250.64 664.627 250.64 661.122V610.347Z" fill="#9EAAB8"/>
<path d="M250.64 679.469H390.271V693.75H250.64V679.469Z" fill="#38485C"/>
<path d="M250.64 701.75H413.279V708.096H250.64V701.75Z" fill="#505E70"/>
<path d="M250.64 714.096H401.379V720.443H250.64V714.096Z" fill="#505E70"/>
<path d="M250.64 726.443H407.725V732.79H250.64V726.443Z" fill="#505E70"/>
<path d="M443.279 610.347C443.279 606.842 446.121 604 449.626 604H500.401C503.906 604 506.748 606.842 506.748 610.347V661.122C506.748 664.627 503.906 667.469 500.401 667.469H449.626C446.121 667.469 443.279 664.627 443.279 661.122V610.347Z" fill="#9EAAB8"/>
<path d="M443.279 679.469H582.911V693.75H443.279V679.469Z" fill="#38485C"/>
<path d="M443.279 701.75H605.919V708.096H443.279V701.75Z" fill="#505E70"/>
<path d="M443.279 714.096H594.018V720.443H443.279V714.096Z" fill="#505E70"/>
<path d="M443.279 726.443H600.365V732.79H443.279V726.443Z" fill="#505E70"/>
<path d="M656.933 657.648C654.955 657.648 653.022 658.234 651.377 659.333C649.733 660.432 648.451 661.994 647.694 663.821C646.937 665.648 646.739 667.659 647.125 669.599C647.511 671.539 648.463 673.32 649.862 674.719C651.26 676.118 653.042 677.07 654.982 677.456C656.922 677.842 658.933 677.644 660.76 676.887C662.587 676.13 664.149 674.848 665.248 673.204C666.347 671.559 666.933 669.626 666.933 667.648C666.933 664.996 665.879 662.452 664.004 660.577C662.129 658.702 659.585 657.648 656.933 657.648ZM654.223 671.938L650.633 668.348C650.469 668.157 650.384 667.911 650.393 667.659C650.403 667.407 650.507 667.168 650.685 666.99C650.864 666.812 651.102 666.708 651.354 666.698C651.606 666.689 651.852 666.774 652.043 666.938L654.933 669.818L661.813 662.938C662.004 662.774 662.25 662.689 662.502 662.698C662.754 662.708 662.992 662.812 663.171 662.99C663.349 663.168 663.453 663.407 663.463 663.659C663.472 663.911 663.387 664.157 663.223 664.348L655.633 671.938C655.446 672.124 655.192 672.229 654.928 672.229C654.664 672.229 654.41 672.124 654.223 671.938Z" fill="#26874A"/>
<path d="M42 547H279V568H42V547Z" fill="#38485C"/>
<path d="M42 265H279V286H42V265Z" fill="#38485C"/>
</svg>
