<svg xmlns="http://www.w3.org/2000/svg" xmlns:xlink="http://www.w3.org/1999/xlink" width="712" height="505" viewBox="0 0 712 505">
  <defs>
    <filter id="Rectángulo_5014" x="181.5" y="32.5" width="349" height="442" filterUnits="userSpaceOnUse">
      <feOffset dy="1" input="SourceAlpha"/>
      <feGaussianBlur stdDeviation="1.5" result="blur"/>
      <feFlood flood-color="#38485c" flood-opacity="0.2"/>
      <feComposite operator="in" in2="blur"/>
      <feComposite in="SourceGraphic"/>
    </filter>
  </defs>
  <g id="Grupo_18078" data-name="Grupo 18078" transform="translate(-513 -596)">
    <path id="Trazado_20235" data-name="Trazado 20235" d="M4,0H708a4,4,0,0,1,4,4V501a4,4,0,0,1-4,4H4a4,4,0,0,1-4-4V4A4,4,0,0,1,4,0Z" transform="translate(513 596)" fill="#f3f6f9"/>
    <g id="V1-Tarjetas-Contenedor" transform="translate(699 632)">
      <g transform="matrix(1, 0, 0, 1, -186, -36)" filter="url(#Rectángulo_5014)">
        <rect id="Rectángulo_5014-2" data-name="Rectángulo 5014" width="340" height="433" rx="8" transform="translate(186 36)" fill="#fff"/>
      </g>
      <g id="Trazado_10132" data-name="Trazado 10132" transform="translate(24 369)" fill="#f3f6f9" stroke-dasharray="12 10">
        <path d="M0,0H292V40H0Z" stroke="none"/>
        <path d="M 22 0 L 34 0 L 34 1 L 22 1 L 22 0 Z M 44 0 L 56 0 L 56 1 L 44 1 L 44 0 Z M 66 0 L 78 0 L 78 1 L 66 1 L 66 0 Z M 88 0 L 100 0 L 100 1 L 88 1 L 88 0 Z M 110 0 L 122 0 L 122 1 L 110 1 L 110 0 Z M 132 0 L 144 0 L 144 1 L 132 1 L 132 0 Z M 154 0 L 166 0 L 166 1 L 154 1 L 154 0 Z M 176 0 L 188 0 L 188 1 L 176 1 L 176 0 Z M 198 0 L 210 0 L 210 1 L 198 1 L 198 0 Z M 220 0 L 232 0 L 232 1 L 220 1 L 220 0 Z M 242 0 L 254 0 L 254 1 L 242 1 L 242 0 Z M 264 0 L 276 0 L 276 1 L 264 1 L 264 0 Z M 286 0 L 292 0 L 292 1 L 292 1 C 292 2.706851959228516 292 6 292 6 L 291 6 L 291 1 L 286 1 L 286 0 Z M 291 16 L 292 16 C 292 16 292 28 292 28 L 291 28 L 291 16 Z M 291 38 L 292 38 C 292 38 292 40 292 40 L 291 40 L 291 40 L 291 40 L 291 40 L 291 40 C 288.4673767089844 40 282 40 282 40 L 282 39 L 291 39 L 291 38 Z M 260 39 L 272 39 L 272 40 C 272 40 260 40 260 40 L 260 39 Z M 238 39 L 250 39 L 250 40 C 250 40 238 40 238 40 L 238 39 Z M 216 39 L 228 39 L 228 40 C 228 40 216 40 216 40 L 216 39 Z M 194 39 L 206 39 L 206 40 C 206 40 194 40 194 40 L 194 39 Z M 172 39 L 184 39 L 184 40 C 184 40 172 40 172 40 L 172 39 Z M 150 39 L 162 39 L 162 40 C 162 40 150 40 150 40 L 150 39 Z M 128 39 L 140 39 L 140 40 C 140 40 128 40 128 40 L 128 39 Z M 106 39 L 118 39 L 118 40 C 118 40 106 40 106 40 L 106 39 Z M 84 39 L 96 39 L 96 40 C 96 40 84 40 84 40 L 84 39 Z M 62 39 L 74 39 L 74 40 C 74 40 62 40 62 40 L 62 39 Z M 40 39 L 52 39 L 52 40 C 52 40 40 40 40 40 L 40 39 Z M 18 39 L 30 39 L 30 40 C 30 40 18 40 18 40 L 18 39 Z M 0 36 L 1 36 L 1 39 L 8 39 L 8 40 C 8 40 0 40 0 40 L 0 36 Z M 0 14 L 1 14 L 1 26 L 0 26 L 0 14 Z M 0 0 L 12 0 L 12 1 L 1 1 L 1 4 L 0 4 L 0 0 Z" stroke="none" fill="#a0aab7"/>
      </g>
      <line id="Línea_299" data-name="Línea 299" x2="294" transform="translate(22 353)" fill="none" stroke="#e6ebf0" stroke-width="1"/>
      <g id="Rectángulo_8708" data-name="Rectángulo 8708" transform="translate(24 215)" fill="#f3f6f9" stroke="#a0aab7" stroke-width="1" stroke-dasharray="12 10">
        <rect width="292" height="123" stroke="none"/>
        <rect x="0.5" y="0.5" width="291" height="122" fill="none"/>
      </g>
      <path id="_Text_Body_1_Selected_On_Surface_Medium_Emphasis_Left_" data-name="✱ / Text / Body 1 / Selected / On Surface / Medium Emphasis / Left " d="M6.342,21.1A1.044,1.044,0,0,1,5.25,20.013V8H1.05Q.042,8,.042,7.1A.848.848,0,0,1,.3,6.426a1.093,1.093,0,0,1,.746-.231H11.634a1.093,1.093,0,0,1,.745.231.848.848,0,0,1,.263.672q0,.9-1.008.9h-4.2V20.013a1.087,1.087,0,0,1-.294.788A1.058,1.058,0,0,1,6.342,21.1Zm10.038,0a1.162,1.162,0,0,1-.766-.252.925.925,0,0,1-.3-.756V11.571a.957.957,0,0,1,.3-.766,1.132,1.132,0,0,1,.766-.262,1.092,1.092,0,0,1,.756.262.974.974,0,0,1,.294.766V20.1a.941.941,0,0,1-.294.756A1.121,1.121,0,0,1,16.38,21.1Zm.441-11.739a.6.6,0,0,1-.808-.021.53.53,0,0,1-.179-.4.559.559,0,0,1,.147-.378l2.268-2.961a1.2,1.2,0,0,1,.966-.567.913.913,0,0,1,.672.273.889.889,0,0,1,.273.651,1.186,1.186,0,0,1-.5.9Zm8.862,10.122a1.053,1.053,0,0,1,.662.242.752.752,0,0,1,.2.556.726.726,0,0,1-.326.641,1.52,1.52,0,0,1-.955.178l-.567-.042a3.677,3.677,0,0,1-2.541-1.039,3.859,3.859,0,0,1-.84-2.7V12.39h-1.26q-.924,0-.924-.819a.77.77,0,0,1,.241-.6.976.976,0,0,1,.683-.221h1.26V8.589a1,1,0,0,1,.284-.756,1.059,1.059,0,0,1,.766-.273,1.1,1.1,0,0,1,.777.273.981.981,0,0,1,.294.756v2.163h2.079a.976.976,0,0,1,.682.221.875.875,0,0,1,0,1.207,1.008,1.008,0,0,1-.682.21H23.436v5.082a2.145,2.145,0,0,0,.41,1.449,1.772,1.772,0,0,0,1.25.525Zm10.311-8.946a1.059,1.059,0,0,1,.767.273,1,1,0,0,1,.283.756v8.547a.929.929,0,0,1-.294.714,1.1,1.1,0,0,1-.777.273.987.987,0,0,1-.714-.262.931.931,0,0,1-.273-.7v-.8a3.289,3.289,0,0,1-1.333,1.344,3.916,3.916,0,0,1-1.9.462q-3.738,0-3.738-4.116v-5.46a1,1,0,0,1,.284-.756,1.088,1.088,0,0,1,.788-.273,1.059,1.059,0,0,1,.767.273,1,1,0,0,1,.283.756V17.01a2.764,2.764,0,0,0,.5,1.827,1.936,1.936,0,0,0,1.554.588,2.587,2.587,0,0,0,1.985-.8,2.982,2.982,0,0,0,.745-2.121V11.571a.988.988,0,0,1,.294-.745A1.072,1.072,0,0,1,35.994,10.542ZM41.055,21.1a1.162,1.162,0,0,1-.766-.252.925.925,0,0,1-.3-.756V7.119a.957.957,0,0,1,.3-.767,1.132,1.132,0,0,1,.766-.262,1.092,1.092,0,0,1,.756.262.974.974,0,0,1,.294.767V20.1a.941.941,0,0,1-.294.756A1.121,1.121,0,0,1,41.055,21.1Zm8.442.042A5.28,5.28,0,0,1,46.84,20.5a4.393,4.393,0,0,1-1.764-1.858,6.06,6.06,0,0,1-.619-2.8,6.108,6.108,0,0,1,.619-2.825,4.393,4.393,0,0,1,1.764-1.858,5.746,5.746,0,0,1,5.313,0,4.393,4.393,0,0,1,1.764,1.858,6.108,6.108,0,0,1,.619,2.825,6.06,6.06,0,0,1-.619,2.8A4.393,4.393,0,0,1,52.154,20.5,5.28,5.28,0,0,1,49.5,21.147Zm0-1.68a2.6,2.6,0,0,0,2.153-.924,4.236,4.236,0,0,0,.745-2.709,4.2,4.2,0,0,0-.756-2.7,2.922,2.922,0,0,0-4.284,0,4.2,4.2,0,0,0-.756,2.7,4.236,4.236,0,0,0,.746,2.709A2.6,2.6,0,0,0,49.5,19.467ZM70.77,6.09a1.1,1.1,0,0,1,.777.273.955.955,0,0,1,.294.735V20.076a1,1,0,0,1-.284.756,1.213,1.213,0,0,1-1.533,0,1,1,0,0,1-.284-.756v-.84A3.25,3.25,0,0,1,68.4,20.653a4.1,4.1,0,0,1-2.037.493A4.256,4.256,0,0,1,64,20.475a4.468,4.468,0,0,1-1.617-1.89,6.446,6.446,0,0,1-.577-2.793A6.359,6.359,0,0,1,62.381,13a4.239,4.239,0,0,1,3.979-2.5,4.042,4.042,0,0,1,2.027.493,3.292,3.292,0,0,1,1.333,1.4V7.056a.912.912,0,0,1,.284-.7A1.084,1.084,0,0,1,70.77,6.09ZM66.864,19.467a2.562,2.562,0,0,0,2.121-.945,4.209,4.209,0,0,0,.756-2.688A4.251,4.251,0,0,0,69,13.146a2.556,2.556,0,0,0-2.132-.945,2.628,2.628,0,0,0-2.152.935,4.086,4.086,0,0,0-.767,2.656,4.226,4.226,0,0,0,.777,2.7A2.587,2.587,0,0,0,66.864,19.467ZM82.8,18.417a.6.6,0,0,1,.483.231.9.9,0,0,1,.189.588,1.208,1.208,0,0,1-.756,1.029,6.661,6.661,0,0,1-1.606.651,6.514,6.514,0,0,1-1.669.231A5.171,5.171,0,0,1,75.6,19.729a5.258,5.258,0,0,1-1.407-3.875,6.077,6.077,0,0,1,.619-2.793,4.554,4.554,0,0,1,1.743-1.89,4.874,4.874,0,0,1,2.551-.672,4.17,4.17,0,0,1,3.255,1.323,5.121,5.121,0,0,1,1.2,3.57q0,.84-.756.84H76.314q.21,3.255,3.129,3.255a3.871,3.871,0,0,0,1.344-.21,9.775,9.775,0,0,0,1.2-.546q.063-.042.346-.179A1.147,1.147,0,0,1,82.8,18.417Zm-3.654-6.363a2.562,2.562,0,0,0-1.953.777,3.629,3.629,0,0,0-.882,2.184h5.418a3.51,3.51,0,0,0-.724-2.194A2.323,2.323,0,0,0,79.149,12.054Zm17.262,7.434a1.053,1.053,0,0,1,.661.242.752.752,0,0,1,.2.556.725.725,0,0,1-.326.641,1.52,1.52,0,0,1-.955.178l-.567-.042a3.677,3.677,0,0,1-2.541-1.039,3.859,3.859,0,0,1-.84-2.7V12.39h-1.26q-.924,0-.924-.819a.77.77,0,0,1,.242-.6.976.976,0,0,1,.683-.221h1.26V8.589a1,1,0,0,1,.284-.756,1.059,1.059,0,0,1,.766-.273,1.1,1.1,0,0,1,.777.273.981.981,0,0,1,.294.756v2.163h2.079a.976.976,0,0,1,.683.221.875.875,0,0,1,0,1.207,1.008,1.008,0,0,1-.683.21H94.164v5.082a2.145,2.145,0,0,0,.41,1.449,1.772,1.772,0,0,0,1.25.525Zm6.678-8.988a4.05,4.05,0,0,1,3.035,1.029,4.34,4.34,0,0,1,1,3.129V20.1a.986.986,0,0,1-.273.746,1.046,1.046,0,0,1-.756.262.941.941,0,0,1-1.008-1.008V19.32a2.954,2.954,0,0,1-1.186,1.354,3.5,3.5,0,0,1-1.838.472,4.094,4.094,0,0,1-1.838-.41,3.324,3.324,0,0,1-1.313-1.123A2.819,2.819,0,0,1,98.427,18a2.454,2.454,0,0,1,.567-1.774,3.545,3.545,0,0,1,1.911-.924,18.474,18.474,0,0,1,3.675-.284h.483v-.609a2.469,2.469,0,0,0-.483-1.7,2.023,2.023,0,0,0-1.554-.525,4.949,4.949,0,0,0-1.386.189,10.421,10.421,0,0,0-1.428.546,2.058,2.058,0,0,1-.8.315A.649.649,0,0,1,98.9,13a.867.867,0,0,1-.2-.588.911.911,0,0,1,.178-.557,1.88,1.88,0,0,1,.577-.473,7.18,7.18,0,0,1,1.722-.641A8.031,8.031,0,0,1,103.089,10.5Zm-.651,9.072a2.469,2.469,0,0,0,1.89-.788,2.851,2.851,0,0,0,.735-2.027v-.546h-.378a16.361,16.361,0,0,0-2.52.147,2.472,2.472,0,0,0-1.26.494,1.285,1.285,0,0,0-.378,1,1.579,1.579,0,0,0,.546,1.239A1.985,1.985,0,0,0,102.438,19.572Zm12.936-9.03q1.008-.063,1.008.861a.941.941,0,0,1-.231.693,1.246,1.246,0,0,1-.8.273l-.63.063a2.718,2.718,0,0,0-1.964.924,2.989,2.989,0,0,0-.64,1.932V20.1a.941.941,0,0,1-.294.756,1.121,1.121,0,0,1-.756.252,1.162,1.162,0,0,1-.767-.252.925.925,0,0,1-.3-.756V11.55a.931.931,0,0,1,.3-.745,1.132,1.132,0,0,1,.767-.262,1,1,0,0,1,.7.262.939.939,0,0,1,.284.724v1.008a3.085,3.085,0,0,1,1.218-1.407,4.092,4.092,0,0,1,1.806-.567Zm.483,14.28a1.623,1.623,0,0,1-.966-.168.713.713,0,0,1-.336-.651.7.7,0,0,1,.21-.535,1.1,1.1,0,0,1,.672-.242l.588-.042a1.678,1.678,0,0,0,1.229-.5,2.182,2.182,0,0,0,.41-1.47V11.571a.957.957,0,0,1,.3-.766,1.132,1.132,0,0,1,.767-.262,1.092,1.092,0,0,1,.756.262.974.974,0,0,1,.294.766v9.513a3.849,3.849,0,0,1-.819,2.667,3.648,3.648,0,0,1-2.541,1.029Zm2.877-16.338a1.352,1.352,0,0,1-.966-.336,1.155,1.155,0,0,1-.357-.882,1.122,1.122,0,0,1,.357-.871,1.581,1.581,0,0,1,1.922,0,1.106,1.106,0,0,1,.368.871,1.155,1.155,0,0,1-.357.882A1.352,1.352,0,0,1,118.734,8.484Zm12.012,9.933a.6.6,0,0,1,.483.231.9.9,0,0,1,.189.588,1.208,1.208,0,0,1-.756,1.029,6.661,6.661,0,0,1-1.607.651,6.514,6.514,0,0,1-1.669.231,5.171,5.171,0,0,1-3.843-1.417,5.258,5.258,0,0,1-1.407-3.875,6.077,6.077,0,0,1,.619-2.793,4.554,4.554,0,0,1,1.743-1.89,4.874,4.874,0,0,1,2.551-.672,4.17,4.17,0,0,1,3.255,1.323,5.121,5.121,0,0,1,1.2,3.57q0,.84-.756.84h-6.489q.21,3.255,3.129,3.255a3.871,3.871,0,0,0,1.344-.21,9.774,9.774,0,0,0,1.2-.546q.063-.042.346-.179A1.147,1.147,0,0,1,130.746,18.417Zm-3.654-6.363a2.562,2.562,0,0,0-1.953.777,3.629,3.629,0,0,0-.882,2.184h5.418a3.51,3.51,0,0,0-.725-2.194A2.323,2.323,0,0,0,127.092,12.054Zm11.634,7.434a1.053,1.053,0,0,1,.661.242.752.752,0,0,1,.2.556.726.726,0,0,1-.326.641,1.52,1.52,0,0,1-.956.178l-.567-.042a3.677,3.677,0,0,1-2.541-1.039,3.859,3.859,0,0,1-.84-2.7V12.39H133.1q-.924,0-.924-.819a.77.77,0,0,1,.242-.6.976.976,0,0,1,.682-.221h1.26V8.589a1,1,0,0,1,.283-.756,1.059,1.059,0,0,1,.767-.273,1.1,1.1,0,0,1,.777.273.981.981,0,0,1,.294.756v2.163h2.079a.976.976,0,0,1,.682.221.875.875,0,0,1,0,1.207,1.008,1.008,0,0,1-.682.21h-2.079v5.082a2.145,2.145,0,0,0,.41,1.449,1.772,1.772,0,0,0,1.249.525ZM145.4,10.5a4.05,4.05,0,0,1,3.035,1.029,4.34,4.34,0,0,1,1,3.129V20.1a.986.986,0,0,1-.273.746,1.046,1.046,0,0,1-.756.262A.941.941,0,0,1,147.4,20.1V19.32a2.954,2.954,0,0,1-1.187,1.354,3.5,3.5,0,0,1-1.837.472,4.094,4.094,0,0,1-1.838-.41,3.324,3.324,0,0,1-1.312-1.123A2.819,2.819,0,0,1,140.742,18a2.454,2.454,0,0,1,.567-1.774,3.545,3.545,0,0,1,1.911-.924,18.474,18.474,0,0,1,3.675-.284h.483v-.609a2.469,2.469,0,0,0-.483-1.7,2.023,2.023,0,0,0-1.554-.525,4.949,4.949,0,0,0-1.386.189,10.421,10.421,0,0,0-1.428.546,2.058,2.058,0,0,1-.8.315.649.649,0,0,1-.515-.231.867.867,0,0,1-.2-.588.911.911,0,0,1,.178-.557,1.88,1.88,0,0,1,.577-.473,7.18,7.18,0,0,1,1.722-.641A8.031,8.031,0,0,1,145.4,10.5Zm-.651,9.072a2.469,2.469,0,0,0,1.89-.788,2.851,2.851,0,0,0,.735-2.027v-.546H147a16.361,16.361,0,0,0-2.52.147,2.472,2.472,0,0,0-1.26.494,1.285,1.285,0,0,0-.378,1,1.579,1.579,0,0,0,.546,1.239A1.985,1.985,0,0,0,144.753,19.572Z" transform="translate(22 175)" fill="#a0aab7"/>
      <path id="Rectángulo_8707" data-name="Rectángulo 8707" d="M4,0H336a4,4,0,0,1,4,4V159a0,0,0,0,1,0,0H0a0,0,0,0,1,0,0V4A4,4,0,0,1,4,0Z" fill="#e6ebf0"/>
      <path id="_Text_Body_1_Selected_On_Surface_Medium_Emphasis_Left_2" data-name="✱ / Text / Body 1 / Selected / On Surface / Medium Emphasis / Left " d="M-32.309-10.4a3.735,3.735,0,0,0-2.973,1.254,5.058,5.058,0,0,0-1.09,3.434A5.159,5.159,0,0,0-35.32-2.246a3.735,3.735,0,0,0,3,1.223,10.23,10.23,0,0,0,2.727-.43V-.289a8.4,8.4,0,0,1-2.93.445,4.956,4.956,0,0,1-3.895-1.531,6.306,6.306,0,0,1-1.371-4.352,6.868,6.868,0,0,1,.66-3.094,4.739,4.739,0,0,1,1.906-2.047,5.77,5.77,0,0,1,2.934-.719,7.078,7.078,0,0,1,3.141.656l-.562,1.141A6.053,6.053,0,0,0-32.309-10.4Zm12.4,6.109a4.724,4.724,0,0,1-1.055,3.27A3.714,3.714,0,0,1-23.879.156a3.86,3.86,0,0,1-2.039-.539A3.558,3.558,0,0,1-27.293-1.93a5.391,5.391,0,0,1-.484-2.359A4.716,4.716,0,0,1-26.73-7.551a3.7,3.7,0,0,1,2.906-1.168,3.622,3.622,0,0,1,2.855,1.2A4.7,4.7,0,0,1-19.91-4.289Zm-6.523,0a4.064,4.064,0,0,0,.656,2.5,2.278,2.278,0,0,0,1.93.859,2.293,2.293,0,0,0,1.934-.855,4.043,4.043,0,0,0,.66-2.5,3.978,3.978,0,0,0-.66-2.48,2.32,2.32,0,0,0-1.949-.848,2.283,2.283,0,0,0-1.922.836A4.023,4.023,0,0,0-26.434-4.289ZM-11.777,0V-5.539A2.235,2.235,0,0,0-12.254-7.1a1.941,1.941,0,0,0-1.492-.516,2.461,2.461,0,0,0-1.969.727,3.668,3.668,0,0,0-.625,2.4V0h-1.3V-8.562h1.055l.211,1.172h.063a2.648,2.648,0,0,1,1.117-.98,3.63,3.63,0,0,1,1.6-.348,3.252,3.252,0,0,1,2.328.746,3.175,3.175,0,0,1,.781,2.387V0Zm6.727-.914a4.236,4.236,0,0,0,.664-.051,4.3,4.3,0,0,0,.508-.105v.992A2.371,2.371,0,0,1-4.5.09a4.664,4.664,0,0,1-.738.066q-2.484,0-2.484-2.617V-7.555H-8.949V-8.18l1.227-.539.547-1.828h.75v1.984h2.484v1.008H-6.426v5.039a1.734,1.734,0,0,0,.367,1.188A1.278,1.278,0,0,0-5.051-.914Zm6.5,1.07A3.934,3.934,0,0,1-1.547-1a4.476,4.476,0,0,1-1.1-3.211A4.964,4.964,0,0,1-1.625-7.5,3.387,3.387,0,0,1,1.113-8.719,3.229,3.229,0,0,1,3.66-7.66,4.057,4.057,0,0,1,4.6-4.867v.82H-1.3A3.394,3.394,0,0,0-.539-1.758,2.634,2.634,0,0,0,1.5-.977,6.9,6.9,0,0,0,4.23-1.555V-.4a6.863,6.863,0,0,1-1.3.426A7.31,7.31,0,0,1,1.449.156ZM1.1-7.633a2.118,2.118,0,0,0-1.645.672A3.1,3.1,0,0,0-1.27-5.1H3.207A2.851,2.851,0,0,0,2.66-6.98,1.925,1.925,0,0,0,1.1-7.633ZM12.668,0V-5.539A2.235,2.235,0,0,0,12.191-7.1,1.941,1.941,0,0,0,10.7-7.617a2.461,2.461,0,0,0-1.969.727,3.668,3.668,0,0,0-.625,2.4V0h-1.3V-8.562H7.863l.211,1.172h.063a2.648,2.648,0,0,1,1.117-.98,3.63,3.63,0,0,1,1.6-.348,3.252,3.252,0,0,1,2.328.746,3.175,3.175,0,0,1,.781,2.387V0Zm5.258,0h-1.3V-8.562h1.3ZM16.52-10.883a.861.861,0,0,1,.219-.652.764.764,0,0,1,.547-.207.764.764,0,0,1,.539.211.846.846,0,0,1,.227.648.859.859,0,0,1-.227.652.757.757,0,0,1-.539.215.749.749,0,0,1-.547-.215A.877.877,0,0,1,16.52-10.883ZM26.5-1.148h-.07a3.047,3.047,0,0,1-2.687,1.3A3.179,3.179,0,0,1,21.133-.992,5.055,5.055,0,0,1,20.2-4.258a5.141,5.141,0,0,1,.938-3.289,3.155,3.155,0,0,1,2.609-1.172,3.114,3.114,0,0,1,2.672,1.266h.1l-.055-.617-.031-.6v-3.484h1.3V0H26.676ZM23.91-.93a2.361,2.361,0,0,0,1.926-.723,3.652,3.652,0,0,0,.6-2.332v-.273a4.3,4.3,0,0,0-.605-2.6,2.3,2.3,0,0,0-1.934-.777,1.985,1.985,0,0,0-1.746.887,4.409,4.409,0,0,0-.605,2.5,4.227,4.227,0,0,0,.6,2.477A2.037,2.037,0,0,0,23.91-.93ZM37.871-4.289a4.724,4.724,0,0,1-1.055,3.27A3.714,3.714,0,0,1,33.9.156a3.86,3.86,0,0,1-2.039-.539A3.558,3.558,0,0,1,30.488-1.93,5.391,5.391,0,0,1,30-4.289a4.716,4.716,0,0,1,1.047-3.262,3.7,3.7,0,0,1,2.906-1.168,3.622,3.622,0,0,1,2.855,1.2A4.7,4.7,0,0,1,37.871-4.289Zm-6.523,0A4.064,4.064,0,0,0,32-1.789a2.278,2.278,0,0,0,1.93.859,2.293,2.293,0,0,0,1.934-.855,4.043,4.043,0,0,0,.66-2.5,3.978,3.978,0,0,0-.66-2.48,2.32,2.32,0,0,0-1.949-.848A2.283,2.283,0,0,0,32-6.781,4.023,4.023,0,0,0,31.348-4.289Z" transform="translate(170 280)" fill="#9eaab8"/>
      <path id="_Text_Body_1_Selected_On_Surface_Medium_Emphasis_Left_3" data-name="✱ / Text / Body 1 / Selected / On Surface / Medium Emphasis / Left " d="M-32.309-10.4a3.735,3.735,0,0,0-2.973,1.254,5.058,5.058,0,0,0-1.09,3.434A5.159,5.159,0,0,0-35.32-2.246a3.735,3.735,0,0,0,3,1.223,10.23,10.23,0,0,0,2.727-.43V-.289a8.4,8.4,0,0,1-2.93.445,4.956,4.956,0,0,1-3.895-1.531,6.306,6.306,0,0,1-1.371-4.352,6.868,6.868,0,0,1,.66-3.094,4.739,4.739,0,0,1,1.906-2.047,5.77,5.77,0,0,1,2.934-.719,7.078,7.078,0,0,1,3.141.656l-.562,1.141A6.053,6.053,0,0,0-32.309-10.4Zm12.4,6.109a4.724,4.724,0,0,1-1.055,3.27A3.714,3.714,0,0,1-23.879.156a3.86,3.86,0,0,1-2.039-.539A3.558,3.558,0,0,1-27.293-1.93a5.391,5.391,0,0,1-.484-2.359A4.716,4.716,0,0,1-26.73-7.551a3.7,3.7,0,0,1,2.906-1.168,3.622,3.622,0,0,1,2.855,1.2A4.7,4.7,0,0,1-19.91-4.289Zm-6.523,0a4.064,4.064,0,0,0,.656,2.5,2.278,2.278,0,0,0,1.93.859,2.293,2.293,0,0,0,1.934-.855,4.043,4.043,0,0,0,.66-2.5,3.978,3.978,0,0,0-.66-2.48,2.32,2.32,0,0,0-1.949-.848,2.283,2.283,0,0,0-1.922.836A4.023,4.023,0,0,0-26.434-4.289ZM-11.777,0V-5.539A2.235,2.235,0,0,0-12.254-7.1a1.941,1.941,0,0,0-1.492-.516,2.461,2.461,0,0,0-1.969.727,3.668,3.668,0,0,0-.625,2.4V0h-1.3V-8.562h1.055l.211,1.172h.063a2.648,2.648,0,0,1,1.117-.98,3.63,3.63,0,0,1,1.6-.348,3.252,3.252,0,0,1,2.328.746,3.175,3.175,0,0,1,.781,2.387V0Zm6.727-.914a4.236,4.236,0,0,0,.664-.051,4.3,4.3,0,0,0,.508-.105v.992A2.371,2.371,0,0,1-4.5.09a4.664,4.664,0,0,1-.738.066q-2.484,0-2.484-2.617V-7.555H-8.949V-8.18l1.227-.539.547-1.828h.75v1.984h2.484v1.008H-6.426v5.039a1.734,1.734,0,0,0,.367,1.188A1.278,1.278,0,0,0-5.051-.914Zm6.5,1.07A3.934,3.934,0,0,1-1.547-1a4.476,4.476,0,0,1-1.1-3.211A4.964,4.964,0,0,1-1.625-7.5,3.387,3.387,0,0,1,1.113-8.719,3.229,3.229,0,0,1,3.66-7.66,4.057,4.057,0,0,1,4.6-4.867v.82H-1.3A3.394,3.394,0,0,0-.539-1.758,2.634,2.634,0,0,0,1.5-.977,6.9,6.9,0,0,0,4.23-1.555V-.4a6.863,6.863,0,0,1-1.3.426A7.31,7.31,0,0,1,1.449.156ZM1.1-7.633a2.118,2.118,0,0,0-1.645.672A3.1,3.1,0,0,0-1.27-5.1H3.207A2.851,2.851,0,0,0,2.66-6.98,1.925,1.925,0,0,0,1.1-7.633ZM12.668,0V-5.539A2.235,2.235,0,0,0,12.191-7.1,1.941,1.941,0,0,0,10.7-7.617a2.461,2.461,0,0,0-1.969.727,3.668,3.668,0,0,0-.625,2.4V0h-1.3V-8.562H7.863l.211,1.172h.063a2.648,2.648,0,0,1,1.117-.98,3.63,3.63,0,0,1,1.6-.348,3.252,3.252,0,0,1,2.328.746,3.175,3.175,0,0,1,.781,2.387V0Zm5.258,0h-1.3V-8.562h1.3ZM16.52-10.883a.861.861,0,0,1,.219-.652.764.764,0,0,1,.547-.207.764.764,0,0,1,.539.211.846.846,0,0,1,.227.648.859.859,0,0,1-.227.652.757.757,0,0,1-.539.215.749.749,0,0,1-.547-.215A.877.877,0,0,1,16.52-10.883ZM26.5-1.148h-.07a3.047,3.047,0,0,1-2.687,1.3A3.179,3.179,0,0,1,21.133-.992,5.055,5.055,0,0,1,20.2-4.258a5.141,5.141,0,0,1,.938-3.289,3.155,3.155,0,0,1,2.609-1.172,3.114,3.114,0,0,1,2.672,1.266h.1l-.055-.617-.031-.6v-3.484h1.3V0H26.676ZM23.91-.93a2.361,2.361,0,0,0,1.926-.723,3.652,3.652,0,0,0,.6-2.332v-.273a4.3,4.3,0,0,0-.605-2.6,2.3,2.3,0,0,0-1.934-.777,1.985,1.985,0,0,0-1.746.887,4.409,4.409,0,0,0-.605,2.5,4.227,4.227,0,0,0,.6,2.477A2.037,2.037,0,0,0,23.91-.93ZM37.871-4.289a4.724,4.724,0,0,1-1.055,3.27A3.714,3.714,0,0,1,33.9.156a3.86,3.86,0,0,1-2.039-.539A3.558,3.558,0,0,1,30.488-1.93,5.391,5.391,0,0,1,30-4.289a4.716,4.716,0,0,1,1.047-3.262,3.7,3.7,0,0,1,2.906-1.168,3.622,3.622,0,0,1,2.855,1.2A4.7,4.7,0,0,1,37.871-4.289Zm-6.523,0A4.064,4.064,0,0,0,32-1.789a2.278,2.278,0,0,0,1.93.859,2.293,2.293,0,0,0,1.934-.855,4.043,4.043,0,0,0,.66-2.5,3.978,3.978,0,0,0-.66-2.48,2.32,2.32,0,0,0-1.949-.848A2.283,2.283,0,0,0,32-6.781,4.023,4.023,0,0,0,31.348-4.289Z" transform="translate(170 395)" fill="#9eaab8"/>
      <path id="bxs-image-alt" d="M7,39H35a4,4,0,0,0,4-4V7a4,4,0,0,0-4-4H7A4,4,0,0,0,3,7V35A4,4,0,0,0,7,39Zm6-14,4.726,4.726L25,19,35,33H7Z" transform="translate(149 59)" fill="#9eaab8"/>
    </g>
    <path id="Trazado_20237" data-name="Trazado 20237" d="M5.908,0,5.124-2.181h-3L1.354,0H0L2.938-7.885h1.4L7.272,0ZM4.786-3.287,4.05-5.425Q3.969-5.64,3.827-6.1t-.2-.677a12.037,12.037,0,0,1-.424,1.445L2.5-3.287ZM2.857-8.481v-.134q.306-.376.631-.838T4-10.243H5.468v.113a11.029,11.029,0,0,1-.835.846,11.776,11.776,0,0,1-.937.8Zm8.331,2.433a3.038,3.038,0,0,1,.628.054l-.124,1.176a2.386,2.386,0,0,0-.559-.064,1.616,1.616,0,0,0-1.227.494A1.786,1.786,0,0,0,9.437-3.1V0H8.175V-5.94h.988L9.33-4.893h.064a2.354,2.354,0,0,1,.771-.843A1.832,1.832,0,0,1,11.188-6.048ZM15.512.107A2.874,2.874,0,0,1,13.344-.7a3.069,3.069,0,0,1-.781-2.226,3.367,3.367,0,0,1,.725-2.288,2.5,2.5,0,0,1,1.993-.833,2.448,2.448,0,0,1,1.858.714,2.73,2.73,0,0,1,.682,1.966v.682H13.863a1.951,1.951,0,0,0,.467,1.329,1.628,1.628,0,0,0,1.241.465,4.58,4.58,0,0,0,.98-.1,5.138,5.138,0,0,0,.975-.33V-.3a3.875,3.875,0,0,1-.935.312A5.731,5.731,0,0,1,15.512.107Zm-.231-5.2a1.268,1.268,0,0,0-.964.381A1.817,1.817,0,0,0,13.884-3.6h2.7a1.644,1.644,0,0,0-.354-1.115A1.212,1.212,0,0,0,15.281-5.092ZM22.972,0,22.72-.827h-.043a2.434,2.434,0,0,1-.865.739,2.735,2.735,0,0,1-1.117.2,1.891,1.891,0,0,1-1.367-.473A1.769,1.769,0,0,1,18.836-1.7a1.57,1.57,0,0,1,.682-1.386A3.933,3.933,0,0,1,21.6-3.6l1.026-.032v-.317a1.2,1.2,0,0,0-.266-.851,1.084,1.084,0,0,0-.824-.282,2.851,2.851,0,0,0-.875.134,6.607,6.607,0,0,0-.806.317l-.408-.9A4.393,4.393,0,0,1,20.5-5.916a4.869,4.869,0,0,1,1.085-.132,2.57,2.57,0,0,1,1.711.494A1.935,1.935,0,0,1,23.875-4V0Zm-1.88-.859a1.563,1.563,0,0,0,1.1-.384,1.392,1.392,0,0,0,.416-1.077v-.516L21.85-2.8a2.61,2.61,0,0,0-1.3.3.906.906,0,0,0-.406.814.794.794,0,0,0,.236.615A1.015,1.015,0,0,0,21.092-.859ZM31.507.107A2.081,2.081,0,0,1,29.756-.7h-.075q.075.752.075.913V2.643H28.494V-5.94h1.021q.043.167.177.795h.064a1.977,1.977,0,0,1,1.772-.9,2.062,2.062,0,0,1,1.732.806,3.633,3.633,0,0,1,.62,2.261A3.635,3.635,0,0,1,33.25-.709,2.081,2.081,0,0,1,31.507.107ZM31.2-5.017a1.312,1.312,0,0,0-1.1.44,2.283,2.283,0,0,0-.346,1.407v.188A2.779,2.779,0,0,0,30.1-1.41a1.279,1.279,0,0,0,1.123.486,1.14,1.14,0,0,0,1.01-.537,2.774,2.774,0,0,0,.354-1.531A2.677,2.677,0,0,0,32.235-4.5,1.174,1.174,0,0,0,31.2-5.017Zm7.16-1.031a3.038,3.038,0,0,1,.628.054l-.124,1.176a2.386,2.386,0,0,0-.559-.064,1.616,1.616,0,0,0-1.227.494,1.786,1.786,0,0,0-.47,1.284V0H35.347V-5.94h.988L36.5-4.893h.064a2.354,2.354,0,0,1,.771-.843A1.832,1.832,0,0,1,38.36-6.048ZM42.684.107A2.874,2.874,0,0,1,40.517-.7a3.069,3.069,0,0,1-.781-2.226,3.367,3.367,0,0,1,.725-2.288,2.5,2.5,0,0,1,1.993-.833,2.448,2.448,0,0,1,1.858.714,2.73,2.73,0,0,1,.682,1.966v.682H41.035A1.951,1.951,0,0,0,41.5-1.356a1.628,1.628,0,0,0,1.241.465,4.58,4.58,0,0,0,.98-.1,5.138,5.138,0,0,0,.975-.33V-.3a3.875,3.875,0,0,1-.935.312A5.731,5.731,0,0,1,42.684.107Zm-.231-5.2a1.268,1.268,0,0,0-.964.381A1.817,1.817,0,0,0,41.057-3.6h2.7A1.644,1.644,0,0,0,43.4-4.713,1.212,1.212,0,0,0,42.453-5.092ZM47.69,0H46.428V-8.357H47.69Zm3.067,0H49.495V-5.94h1.262ZM49.419-7.514a.7.7,0,0,1,.185-.521.722.722,0,0,1,.529-.183.707.707,0,0,1,.518.183.7.7,0,0,1,.185.521.686.686,0,0,1-.185.508.7.7,0,0,1-.518.185.716.716,0,0,1-.529-.185A.686.686,0,0,1,49.419-7.514ZM57.567,0H56.3V-3.663a1.661,1.661,0,0,0-.258-1.018.951.951,0,0,0-.806-.336,1.229,1.229,0,0,0-1.072.475,2.789,2.789,0,0,0-.341,1.582V0H52.562V-5.94h.988l.177.779h.064a1.646,1.646,0,0,1,.717-.655,2.312,2.312,0,0,1,1.034-.231,1.807,1.807,0,0,1,1.815.935h.086a1.811,1.811,0,0,1,.741-.687,2.352,2.352,0,0,1,1.1-.247,2,2,0,0,1,1.55.537,2.379,2.379,0,0,1,.486,1.638V0H60.054V-3.663a1.648,1.648,0,0,0-.26-1.018.959.959,0,0,0-.808-.336,1.253,1.253,0,0,0-1.077.459,2.367,2.367,0,0,0-.341,1.41ZM64.34,0H63.078V-5.94H64.34ZM63-7.514a.7.7,0,0,1,.185-.521.722.722,0,0,1,.529-.183.707.707,0,0,1,.518.183.7.7,0,0,1,.185.521.686.686,0,0,1-.185.508.7.7,0,0,1-.518.185.716.716,0,0,1-.529-.185A.686.686,0,0,1,63-7.514ZM71.371,0H70.1V-3.652a1.6,1.6,0,0,0-.277-1.026,1.069,1.069,0,0,0-.878-.338,1.4,1.4,0,0,0-1.171.473,2.61,2.61,0,0,0-.371,1.584V0H66.145V-5.94h.988l.177.779h.064a1.757,1.757,0,0,1,.763-.655,2.556,2.556,0,0,1,1.1-.231,1.906,1.906,0,0,1,2.138,2.175Zm5.473,0-.252-.827h-.043a2.434,2.434,0,0,1-.865.739,2.735,2.735,0,0,1-1.117.2A1.891,1.891,0,0,1,73.2-.365,1.769,1.769,0,0,1,72.708-1.7a1.57,1.57,0,0,1,.682-1.386,3.933,3.933,0,0,1,2.079-.51L76.5-3.631v-.317a1.2,1.2,0,0,0-.266-.851,1.084,1.084,0,0,0-.824-.282,2.851,2.851,0,0,0-.875.134,6.607,6.607,0,0,0-.806.317l-.408-.9a4.393,4.393,0,0,1,1.058-.384,4.869,4.869,0,0,1,1.085-.132,2.57,2.57,0,0,1,1.711.494A1.935,1.935,0,0,1,77.747-4V0Zm-1.88-.859a1.563,1.563,0,0,0,1.1-.384,1.392,1.392,0,0,0,.416-1.077v-.516l-.763.032a2.61,2.61,0,0,0-1.3.3.906.906,0,0,0-.406.814.794.794,0,0,0,.236.615A1.015,1.015,0,0,0,74.964-.859Zm7.557-5.188a3.038,3.038,0,0,1,.628.054l-.124,1.176a2.386,2.386,0,0,0-.559-.064,1.616,1.616,0,0,0-1.227.494,1.786,1.786,0,0,0-.47,1.284V0H79.508V-5.94H80.5l.167,1.047h.064a2.354,2.354,0,0,1,.771-.843A1.832,1.832,0,0,1,82.521-6.048Z" transform="translate(1080 723)" fill="#38485c"/>
    <path id="Trazado_20236" data-name="Trazado 20236" d="M5.908,0,5.124-2.181h-3L1.354,0H0L2.938-7.885h1.4L7.272,0ZM4.786-3.287,4.05-5.425Q3.969-5.64,3.827-6.1t-.2-.677a12.037,12.037,0,0,1-.424,1.445L2.5-3.287Zm6.4-2.761a3.038,3.038,0,0,1,.628.054l-.124,1.176a2.386,2.386,0,0,0-.559-.064,1.616,1.616,0,0,0-1.227.494A1.786,1.786,0,0,0,9.437-3.1V0H8.175V-5.94h.988L9.33-4.893h.064a2.354,2.354,0,0,1,.771-.843A1.832,1.832,0,0,1,11.188-6.048ZM15.512.107A2.874,2.874,0,0,1,13.344-.7a3.069,3.069,0,0,1-.781-2.226,3.367,3.367,0,0,1,.725-2.288,2.5,2.5,0,0,1,1.993-.833,2.448,2.448,0,0,1,1.858.714,2.73,2.73,0,0,1,.682,1.966v.682H13.863a1.951,1.951,0,0,0,.467,1.329,1.628,1.628,0,0,0,1.241.465,4.58,4.58,0,0,0,.98-.1,5.138,5.138,0,0,0,.975-.33V-.3a3.875,3.875,0,0,1-.935.312A5.731,5.731,0,0,1,15.512.107Zm-.231-5.2a1.268,1.268,0,0,0-.964.381A1.817,1.817,0,0,0,13.884-3.6h2.7a1.644,1.644,0,0,0-.354-1.115A1.212,1.212,0,0,0,15.281-5.092ZM22.972,0,22.72-.827h-.043a2.434,2.434,0,0,1-.865.739,2.735,2.735,0,0,1-1.117.2,1.891,1.891,0,0,1-1.367-.473A1.769,1.769,0,0,1,18.836-1.7a1.57,1.57,0,0,1,.682-1.386A3.933,3.933,0,0,1,21.6-3.6l1.026-.032v-.317a1.2,1.2,0,0,0-.266-.851,1.084,1.084,0,0,0-.824-.282,2.851,2.851,0,0,0-.875.134,6.607,6.607,0,0,0-.806.317l-.408-.9A4.393,4.393,0,0,1,20.5-5.916a4.869,4.869,0,0,1,1.085-.132,2.57,2.57,0,0,1,1.711.494A1.935,1.935,0,0,1,23.875-4V0Zm-1.88-.859a1.563,1.563,0,0,0,1.1-.384,1.392,1.392,0,0,0,.416-1.077v-.516L21.85-2.8a2.61,2.61,0,0,0-1.3.3.906.906,0,0,0-.406.814.794.794,0,0,0,.236.615A1.015,1.015,0,0,0,21.092-.859Zm9.4.967A2.069,2.069,0,0,1,28.762-.7a3.621,3.621,0,0,1-.623-2.261,3.633,3.633,0,0,1,.631-2.275,2.089,2.089,0,0,1,1.748-.814,2.048,2.048,0,0,1,1.783.865h.064a7.566,7.566,0,0,1-.091-1.01V-8.357h1.268V0h-.988l-.22-.779h-.059A2.018,2.018,0,0,1,30.5.107Zm.338-1.021a1.374,1.374,0,0,0,1.133-.438,2.3,2.3,0,0,0,.365-1.421v-.177a2.663,2.663,0,0,0-.365-1.6,1.355,1.355,0,0,0-1.144-.473,1.161,1.161,0,0,0-1.026.54,2.766,2.766,0,0,0-.36,1.539,2.7,2.7,0,0,0,.349,1.507A1.179,1.179,0,0,0,30.835-.913ZM37.941.107A2.874,2.874,0,0,1,35.774-.7a3.069,3.069,0,0,1-.781-2.226,3.367,3.367,0,0,1,.725-2.288,2.5,2.5,0,0,1,1.993-.833,2.448,2.448,0,0,1,1.858.714,2.73,2.73,0,0,1,.682,1.966v.682H36.292a1.951,1.951,0,0,0,.467,1.329A1.628,1.628,0,0,0,38-.892a4.58,4.58,0,0,0,.98-.1,5.138,5.138,0,0,0,.975-.33V-.3a3.875,3.875,0,0,1-.935.312A5.731,5.731,0,0,1,37.941.107Zm-.231-5.2a1.268,1.268,0,0,0-.964.381A1.817,1.817,0,0,0,36.314-3.6h2.7a1.644,1.644,0,0,0-.354-1.115A1.212,1.212,0,0,0,37.71-5.092Zm7.965,3.4a1.554,1.554,0,0,1-.634,1.335,3.035,3.035,0,0,1-1.815.465,4.288,4.288,0,0,1-1.907-.36v-1.09a4.681,4.681,0,0,0,1.95.483q1.166,0,1.166-.7a.557.557,0,0,0-.129-.376,1.526,1.526,0,0,0-.424-.312,7.3,7.3,0,0,0-.822-.365,3.8,3.8,0,0,1-1.388-.795,1.471,1.471,0,0,1-.363-1.031,1.354,1.354,0,0,1,.615-1.184A2.918,2.918,0,0,1,43.6-6.048a4.739,4.739,0,0,1,1.982.424l-.408.951a4.408,4.408,0,0,0-1.617-.4q-1,0-1,.569a.573.573,0,0,0,.26.473,5.729,5.729,0,0,0,1.136.532,5.193,5.193,0,0,1,1.069.521,1.557,1.557,0,0,1,.494.545A1.578,1.578,0,0,1,45.676-1.692Zm3.76,1.8a2.6,2.6,0,0,1-2.049-.787,3.288,3.288,0,0,1-.7-2.259,3.306,3.306,0,0,1,.733-2.3,2.72,2.72,0,0,1,2.119-.806,3.971,3.971,0,0,1,1.692.349l-.381,1.015A3.823,3.823,0,0,0,49.527-5q-1.542,0-1.542,2.046a2.451,2.451,0,0,0,.384,1.5,1.329,1.329,0,0,0,1.125.5,3.228,3.228,0,0,0,1.6-.419v1.1a2.493,2.493,0,0,1-.722.285A4.335,4.335,0,0,1,49.436.107ZM55.5-6.048a3.038,3.038,0,0,1,.628.054L56-4.818a2.386,2.386,0,0,0-.559-.064,1.616,1.616,0,0,0-1.227.494,1.786,1.786,0,0,0-.47,1.284V0H52.486V-5.94h.988l.167,1.047h.064a2.354,2.354,0,0,1,.771-.843A1.832,1.832,0,0,1,55.5-6.048ZM58.491,0H57.229V-5.94h1.262ZM57.154-7.514a.7.7,0,0,1,.185-.521.722.722,0,0,1,.529-.183.707.707,0,0,1,.518.183.7.7,0,0,1,.185.521.686.686,0,0,1-.185.508.7.7,0,0,1-.518.185.716.716,0,0,1-.529-.185A.686.686,0,0,1,57.154-7.514ZM63.309.107A2.081,2.081,0,0,1,61.558-.7h-.075q.075.752.075.913V2.643H60.3V-5.94h1.021q.043.167.177.795h.064a1.977,1.977,0,0,1,1.772-.9,2.062,2.062,0,0,1,1.732.806,3.633,3.633,0,0,1,.62,2.261,3.635,3.635,0,0,1-.631,2.272A2.081,2.081,0,0,1,63.309.107ZM63-5.017a1.312,1.312,0,0,0-1.1.44,2.283,2.283,0,0,0-.346,1.407v.188A2.779,2.779,0,0,0,61.9-1.41a1.279,1.279,0,0,0,1.123.486,1.14,1.14,0,0,0,1.01-.537,2.774,2.774,0,0,0,.354-1.531A2.677,2.677,0,0,0,64.037-4.5,1.174,1.174,0,0,0,63-5.017Zm6.359,4.1a3.069,3.069,0,0,0,.924-.145v.951a2.548,2.548,0,0,1-.54.153,3.719,3.719,0,0,1-.685.062q-1.794,0-1.794-1.891v-3.2h-.811v-.559L67.327-6l.43-1.257h.779V-5.94h1.692v.956H68.535V-1.8a.892.892,0,0,0,.228.674A.832.832,0,0,0,69.362-.913ZM72.735,0H71.473V-5.94h1.262ZM71.4-7.514a.7.7,0,0,1,.185-.521.722.722,0,0,1,.529-.183.707.707,0,0,1,.518.183.7.7,0,0,1,.185.521.686.686,0,0,1-.185.508.7.7,0,0,1-.518.185.716.716,0,0,1-.529-.185A.686.686,0,0,1,71.4-7.514ZM75.894,0,73.638-5.94H74.97l1.208,3.454a6.844,6.844,0,0,1,.376,1.407H76.6a9.449,9.449,0,0,1,.376-1.407L78.182-5.94h1.343L77.258,0Zm8.25,0-.252-.827h-.043a2.434,2.434,0,0,1-.865.739,2.735,2.735,0,0,1-1.117.2A1.891,1.891,0,0,1,80.5-.365,1.769,1.769,0,0,1,80.008-1.7a1.57,1.57,0,0,1,.682-1.386,3.933,3.933,0,0,1,2.079-.51l1.026-.032v-.317a1.2,1.2,0,0,0-.266-.851,1.084,1.084,0,0,0-.824-.282,2.851,2.851,0,0,0-.875.134,6.607,6.607,0,0,0-.806.317l-.408-.9a4.393,4.393,0,0,1,1.058-.384,4.869,4.869,0,0,1,1.085-.132,2.57,2.57,0,0,1,1.711.494A1.935,1.935,0,0,1,85.046-4V0Zm-1.88-.859a1.563,1.563,0,0,0,1.1-.384,1.392,1.392,0,0,0,.416-1.077v-.516l-.763.032a2.61,2.61,0,0,0-1.3.3.906.906,0,0,0-.406.814.794.794,0,0,0,.236.615A1.015,1.015,0,0,0,82.264-.859Z" transform="translate(1080 914)" fill="#38485c"/>
    <path id="Trazado_20238" data-name="Trazado 20238" d="M-71.57,0l-.784-2.181h-3L-76.125,0h-1.354l2.938-7.885h1.4L-70.206,0Zm-1.123-3.287-.736-2.138q-.081-.215-.223-.677t-.2-.677a12.038,12.038,0,0,1-.424,1.445l-.709,2.046Zm6.4-2.761a3.038,3.038,0,0,1,.628.054l-.124,1.176a2.386,2.386,0,0,0-.559-.064,1.616,1.616,0,0,0-1.227.494,1.786,1.786,0,0,0-.47,1.284V0H-69.3V-5.94h.988l.167,1.047h.064a2.354,2.354,0,0,1,.771-.843A1.832,1.832,0,0,1-66.29-6.048ZM-61.966.107A2.874,2.874,0,0,1-64.134-.7a3.069,3.069,0,0,1-.781-2.226,3.367,3.367,0,0,1,.725-2.288A2.5,2.5,0,0,1-62.2-6.048a2.448,2.448,0,0,1,1.858.714,2.73,2.73,0,0,1,.682,1.966v.682h-3.958a1.951,1.951,0,0,0,.467,1.329,1.628,1.628,0,0,0,1.241.465,4.58,4.58,0,0,0,.98-.1,5.138,5.138,0,0,0,.975-.33V-.3a3.875,3.875,0,0,1-.935.312A5.731,5.731,0,0,1-61.966.107Zm-.231-5.2a1.268,1.268,0,0,0-.964.381A1.817,1.817,0,0,0-63.594-3.6h2.7a1.644,1.644,0,0,0-.354-1.115A1.212,1.212,0,0,0-62.2-5.092ZM-54.506,0l-.252-.827H-54.8a2.434,2.434,0,0,1-.865.739,2.735,2.735,0,0,1-1.117.2A1.891,1.891,0,0,1-58.15-.365,1.769,1.769,0,0,1-58.642-1.7a1.57,1.57,0,0,1,.682-1.386,3.933,3.933,0,0,1,2.079-.51l1.026-.032v-.317a1.2,1.2,0,0,0-.266-.851,1.084,1.084,0,0,0-.824-.282,2.851,2.851,0,0,0-.875.134,6.607,6.607,0,0,0-.806.317l-.408-.9a4.393,4.393,0,0,1,1.058-.384,4.869,4.869,0,0,1,1.085-.132,2.57,2.57,0,0,1,1.711.494A1.935,1.935,0,0,1-53.6-4V0Zm-1.88-.859a1.563,1.563,0,0,0,1.1-.384,1.392,1.392,0,0,0,.416-1.077v-.516l-.763.032a2.61,2.61,0,0,0-1.3.3.906.906,0,0,0-.406.814.794.794,0,0,0,.236.615A1.015,1.015,0,0,0-56.386-.859Zm9.4.967A2.069,2.069,0,0,1-48.716-.7a3.621,3.621,0,0,1-.623-2.261,3.633,3.633,0,0,1,.631-2.275,2.089,2.089,0,0,1,1.748-.814,2.048,2.048,0,0,1,1.783.865h.064a7.566,7.566,0,0,1-.091-1.01V-8.357h1.268V0h-.988l-.22-.779H-45.2A2.018,2.018,0,0,1-46.981.107Zm.338-1.021a1.374,1.374,0,0,0,1.133-.438,2.3,2.3,0,0,0,.365-1.421v-.177a2.663,2.663,0,0,0-.365-1.6,1.355,1.355,0,0,0-1.144-.473,1.161,1.161,0,0,0-1.026.54,2.766,2.766,0,0,0-.36,1.539,2.7,2.7,0,0,0,.349,1.507A1.179,1.179,0,0,0-46.643-.913ZM-39.537.107A2.874,2.874,0,0,1-41.7-.7a3.069,3.069,0,0,1-.781-2.226,3.367,3.367,0,0,1,.725-2.288,2.5,2.5,0,0,1,1.993-.833,2.448,2.448,0,0,1,1.858.714,2.73,2.73,0,0,1,.682,1.966v.682h-3.958a1.951,1.951,0,0,0,.467,1.329,1.628,1.628,0,0,0,1.241.465,4.58,4.58,0,0,0,.98-.1,5.138,5.138,0,0,0,.975-.33V-.3a3.875,3.875,0,0,1-.935.312A5.731,5.731,0,0,1-39.537.107Zm-.231-5.2a1.268,1.268,0,0,0-.964.381A1.817,1.817,0,0,0-41.164-3.6h2.7a1.644,1.644,0,0,0-.354-1.115A1.212,1.212,0,0,0-39.768-5.092Zm9.045,4.179a3.069,3.069,0,0,0,.924-.145v.951a2.548,2.548,0,0,1-.54.153,3.719,3.719,0,0,1-.685.062q-1.794,0-1.794-1.891v-3.2h-.811v-.559l.87-.462.43-1.257h.779V-5.94h1.692v.956H-31.55V-1.8a.892.892,0,0,0,.228.674A.832.832,0,0,0-30.723-.913ZM-27.35,0h-1.262V-5.94h1.262Zm-1.327-6.666V-6.8q.306-.376.631-.838t.513-.79h1.466v.113a11.029,11.029,0,0,1-.835.846,11.776,11.776,0,0,1-.937.8Zm5.344,5.752a3.069,3.069,0,0,0,.924-.145v.951a2.548,2.548,0,0,1-.54.153,3.719,3.719,0,0,1-.685.062q-1.794,0-1.794-1.891v-3.2h-.811v-.559l.87-.462.43-1.257h.779V-5.94h1.692v.956h-1.692V-1.8a.892.892,0,0,0,.228.674A.832.832,0,0,0-23.332-.913Zm6.3.913-.177-.779h-.064a1.791,1.791,0,0,1-.749.65,2.505,2.505,0,0,1-1.109.236A2.177,2.177,0,0,1-20.743-.43a2.227,2.227,0,0,1-.532-1.627V-5.94H-20v3.663a1.589,1.589,0,0,0,.279,1.023,1.066,1.066,0,0,0,.875.341,1.394,1.394,0,0,0,1.168-.475,2.619,2.619,0,0,0,.373-1.593V-5.94h1.268V0Zm4.055,0h-1.262V-8.357h1.262ZM-5.9-2.981A3.242,3.242,0,0,1-6.649-.709,2.675,2.675,0,0,1-8.728.107,2.848,2.848,0,0,1-10.2-.269a2.482,2.482,0,0,1-.983-1.08,3.677,3.677,0,0,1-.344-1.633,3.22,3.22,0,0,1,.741-2.256A2.687,2.687,0,0,1-8.7-6.048a2.617,2.617,0,0,1,2.041.83A3.205,3.205,0,0,1-5.9-2.981Zm-4.324,0q0,2.057,1.52,2.057,1.5,0,1.5-2.057,0-2.036-1.515-2.036a1.291,1.291,0,0,0-1.152.526A2.679,2.679,0,0,0-10.227-2.981ZM-.462-1.692A1.554,1.554,0,0,1-1.1-.357,3.035,3.035,0,0,1-2.911.107a4.288,4.288,0,0,1-1.907-.36v-1.09a4.681,4.681,0,0,0,1.95.483q1.166,0,1.166-.7a.557.557,0,0,0-.129-.376,1.526,1.526,0,0,0-.424-.312,7.3,7.3,0,0,0-.822-.365,3.8,3.8,0,0,1-1.388-.795,1.471,1.471,0,0,1-.363-1.031,1.354,1.354,0,0,1,.615-1.184,2.918,2.918,0,0,1,1.673-.422,4.739,4.739,0,0,1,1.982.424l-.408.951a4.408,4.408,0,0,0-1.617-.4q-1,0-1,.569a.573.573,0,0,0,.26.473A5.729,5.729,0,0,0-2.186-3.5a5.193,5.193,0,0,1,1.069.521,1.557,1.557,0,0,1,.494.545A1.578,1.578,0,0,1-.462-1.692Z" transform="translate(659 824)" fill="#38485c"/>
    <path id="Trazado_20239" data-name="Trazado 20239" d="M-68.406,0l-.784-2.181h-3L-72.961,0h-1.354l2.938-7.885h1.4L-67.042,0Zm-1.123-3.287-.736-2.138q-.081-.215-.223-.677t-.2-.677a12.038,12.038,0,0,1-.424,1.445l-.709,2.046Zm6.4-2.761a3.038,3.038,0,0,1,.628.054l-.124,1.176a2.386,2.386,0,0,0-.559-.064,1.616,1.616,0,0,0-1.227.494,1.786,1.786,0,0,0-.47,1.284V0H-66.14V-5.94h.988l.167,1.047h.064a2.354,2.354,0,0,1,.771-.843A1.832,1.832,0,0,1-63.126-6.048ZM-58.8.107A2.874,2.874,0,0,1-60.97-.7a3.069,3.069,0,0,1-.781-2.226,3.367,3.367,0,0,1,.725-2.288,2.5,2.5,0,0,1,1.993-.833,2.448,2.448,0,0,1,1.858.714,2.73,2.73,0,0,1,.682,1.966v.682h-3.958a1.951,1.951,0,0,0,.467,1.329,1.628,1.628,0,0,0,1.241.465,4.58,4.58,0,0,0,.98-.1,5.138,5.138,0,0,0,.975-.33V-.3a3.875,3.875,0,0,1-.935.312A5.731,5.731,0,0,1-58.8.107Zm-.231-5.2A1.268,1.268,0,0,0-60-4.71,1.817,1.817,0,0,0-60.43-3.6h2.7a1.644,1.644,0,0,0-.354-1.115A1.212,1.212,0,0,0-59.034-5.092ZM-51.342,0l-.252-.827h-.043a2.434,2.434,0,0,1-.865.739,2.735,2.735,0,0,1-1.117.2,1.891,1.891,0,0,1-1.367-.473A1.769,1.769,0,0,1-55.478-1.7,1.57,1.57,0,0,1-54.8-3.088a3.933,3.933,0,0,1,2.079-.51l1.026-.032v-.317a1.2,1.2,0,0,0-.266-.851,1.084,1.084,0,0,0-.824-.282,2.851,2.851,0,0,0-.875.134,6.607,6.607,0,0,0-.806.317l-.408-.9a4.393,4.393,0,0,1,1.058-.384,4.869,4.869,0,0,1,1.085-.132,2.57,2.57,0,0,1,1.711.494A1.935,1.935,0,0,1-50.44-4V0Zm-1.88-.859a1.563,1.563,0,0,0,1.1-.384A1.392,1.392,0,0,0-51.7-2.32v-.516l-.763.032a2.61,2.61,0,0,0-1.3.3.906.906,0,0,0-.406.814.794.794,0,0,0,.236.615A1.015,1.015,0,0,0-53.222-.859Zm9.4.967A2.069,2.069,0,0,1-45.552-.7a3.621,3.621,0,0,1-.623-2.261,3.633,3.633,0,0,1,.631-2.275A2.089,2.089,0,0,1-43.8-6.048a2.048,2.048,0,0,1,1.783.865h.064a7.566,7.566,0,0,1-.091-1.01V-8.357h1.268V0h-.988l-.22-.779h-.059A2.018,2.018,0,0,1-43.817.107Zm.338-1.021a1.374,1.374,0,0,0,1.133-.438,2.3,2.3,0,0,0,.365-1.421v-.177a2.663,2.663,0,0,0-.365-1.6,1.355,1.355,0,0,0-1.144-.473,1.161,1.161,0,0,0-1.026.54,2.766,2.766,0,0,0-.36,1.539,2.7,2.7,0,0,0,.349,1.507A1.179,1.179,0,0,0-43.479-.913ZM-36.373.107A2.874,2.874,0,0,1-38.54-.7a3.069,3.069,0,0,1-.781-2.226A3.367,3.367,0,0,1-38.6-5.215,2.5,2.5,0,0,1-36.6-6.048a2.448,2.448,0,0,1,1.858.714,2.73,2.73,0,0,1,.682,1.966v.682h-3.958a1.951,1.951,0,0,0,.467,1.329,1.628,1.628,0,0,0,1.241.465,4.58,4.58,0,0,0,.98-.1,5.138,5.138,0,0,0,.975-.33V-.3a3.875,3.875,0,0,1-.935.312A5.731,5.731,0,0,1-36.373.107Zm-.231-5.2a1.268,1.268,0,0,0-.964.381A1.817,1.817,0,0,0-38-3.6h2.7a1.644,1.644,0,0,0-.354-1.115A1.212,1.212,0,0,0-36.6-5.092Zm9.228,5.2a2.6,2.6,0,0,1-2.049-.787,3.288,3.288,0,0,1-.7-2.259,3.306,3.306,0,0,1,.733-2.3,2.72,2.72,0,0,1,2.119-.806,3.971,3.971,0,0,1,1.692.349l-.381,1.015A3.823,3.823,0,0,0-27.285-5q-1.542,0-1.542,2.046a2.451,2.451,0,0,0,.384,1.5,1.329,1.329,0,0,0,1.125.5,3.228,3.228,0,0,0,1.6-.419v1.1a2.493,2.493,0,0,1-.722.285A4.335,4.335,0,0,1-27.376.107ZM-23.063,0h-1.262V-5.94h1.262ZM-24.4-7.514a.7.7,0,0,1,.185-.521.722.722,0,0,1,.529-.183.707.707,0,0,1,.518.183.7.7,0,0,1,.185.521.686.686,0,0,1-.185.508.7.7,0,0,1-.518.185.716.716,0,0,1-.529-.185A.686.686,0,0,1-24.4-7.514ZM-18.665.107A2.874,2.874,0,0,1-20.832-.7a3.069,3.069,0,0,1-.781-2.226,3.367,3.367,0,0,1,.725-2.288A2.5,2.5,0,0,1-18.9-6.048a2.448,2.448,0,0,1,1.858.714,2.73,2.73,0,0,1,.682,1.966v.682h-3.958a1.951,1.951,0,0,0,.467,1.329,1.628,1.628,0,0,0,1.241.465,4.58,4.58,0,0,0,.98-.1,5.138,5.138,0,0,0,.975-.33V-.3a3.875,3.875,0,0,1-.935.312A5.731,5.731,0,0,1-18.665.107Zm-.231-5.2a1.268,1.268,0,0,0-.964.381A1.817,1.817,0,0,0-20.292-3.6h2.7a1.644,1.644,0,0,0-.354-1.115A1.212,1.212,0,0,0-18.9-5.092Zm6.988-.956a3.038,3.038,0,0,1,.628.054L-11.4-4.818a2.386,2.386,0,0,0-.559-.064,1.616,1.616,0,0,0-1.227.494,1.786,1.786,0,0,0-.47,1.284V0h-1.262V-5.94h.988l.167,1.047h.064a2.354,2.354,0,0,1,.771-.843A1.832,1.832,0,0,1-11.908-6.048Zm4.743,0a3.038,3.038,0,0,1,.628.054L-6.66-4.818a2.386,2.386,0,0,0-.559-.064,1.616,1.616,0,0,0-1.227.494A1.786,1.786,0,0,0-8.916-3.1V0h-1.262V-5.94h.988l.167,1.047h.064a2.354,2.354,0,0,1,.771-.843A1.832,1.832,0,0,1-7.165-6.048ZM-2.841.107A2.874,2.874,0,0,1-5.009-.7,3.069,3.069,0,0,1-5.79-2.927a3.367,3.367,0,0,1,.725-2.288,2.5,2.5,0,0,1,1.993-.833,2.448,2.448,0,0,1,1.858.714A2.73,2.73,0,0,1-.532-3.368v.682H-4.49a1.951,1.951,0,0,0,.467,1.329,1.628,1.628,0,0,0,1.241.465,4.58,4.58,0,0,0,.98-.1,5.138,5.138,0,0,0,.975-.33V-.3a3.875,3.875,0,0,1-.935.312A5.731,5.731,0,0,1-2.841.107Zm-.231-5.2a1.268,1.268,0,0,0-.964.381A1.817,1.817,0,0,0-4.469-3.6h2.7a1.644,1.644,0,0,0-.354-1.115A1.212,1.212,0,0,0-3.072-5.092Z" transform="translate(659 1026)" fill="#38485c"/>
    <g id="Grupo_17671" data-name="Grupo 17671" transform="translate(1058.19 790.422) rotate(-90)">
      <line id="Línea_114" data-name="Línea 114" x2="158.208" transform="translate(0 3.034)" fill="none" stroke="#38485c" stroke-linecap="round" stroke-width="1"/>
      <line id="Línea_115" data-name="Línea 115" y1="3.034" x2="3.034" transform="translate(0)" fill="none" stroke="#38485c" stroke-linecap="round" stroke-width="1"/>
      <path id="Trazado_4671" data-name="Trazado 4671" d="M0,0,3.034,3.034" transform="translate(158.208 3.034) rotate(180)" fill="none" stroke="#38485c" stroke-linecap="round" stroke-width="1"/>
    </g>
    <g id="Grupo_17672" data-name="Grupo 17672" transform="translate(1058.19 971.255) rotate(-90)">
      <line id="Línea_114-2" data-name="Línea 114" x2="123.042" transform="translate(0 3.034)" fill="none" stroke="#38485c" stroke-linecap="round" stroke-width="1"/>
      <line id="Línea_115-2" data-name="Línea 115" y1="3.034" x2="3.034" transform="translate(0)" fill="none" stroke="#38485c" stroke-linecap="round" stroke-width="1"/>
      <path id="Trazado_4671-2" data-name="Trazado 4671" d="M0,0,3.034,3.034" transform="translate(123.042 3.034) rotate(180)" fill="none" stroke="#38485c" stroke-linecap="round" stroke-width="1"/>
    </g>
    <g id="Grupo_17673" data-name="Grupo 17673" transform="translate(674.19 844.966) rotate(-90)">
      <line id="Línea_114-3" data-name="Línea 114" x2="50.753" transform="translate(0 3.034)" fill="none" stroke="#38485c" stroke-linecap="round" stroke-width="1"/>
      <line id="Línea_117" data-name="Línea 117" y1="3.034" x2="3.034" transform="translate(50.753 6.067) rotate(180)" fill="none" stroke="#38485c" stroke-linecap="round" stroke-width="1"/>
      <line id="Línea_116" data-name="Línea 116" x2="3.034" y2="3.034" transform="translate(0 3.034)" fill="none" stroke="#38485c" stroke-linecap="round" stroke-width="1"/>
    </g>
    <g id="Grupo_17674" data-name="Grupo 17674" transform="translate(674.19 1046.966) rotate(-90)">
      <line id="Línea_114-4" data-name="Línea 114" x2="50.753" transform="translate(0 3.034)" fill="none" stroke="#38485c" stroke-linecap="round" stroke-width="1"/>
      <line id="Línea_117-2" data-name="Línea 117" y1="3.034" x2="3.034" transform="translate(50.753 6.067) rotate(180)" fill="none" stroke="#38485c" stroke-linecap="round" stroke-width="1"/>
      <line id="Línea_116-2" data-name="Línea 116" x2="3.034" y2="3.034" transform="translate(0 3.034)" fill="none" stroke="#38485c" stroke-linecap="round" stroke-width="1"/>
    </g>
  </g>
</svg>
