<svg xmlns="http://www.w3.org/2000/svg" xmlns:xlink="http://www.w3.org/1999/xlink" width="712" height="505" viewBox="0 0 712 505"><defs><style>.a,.c,.e{fill:#f3f6f9;}.b{fill:#fff;}.c,.e{stroke-dasharray:12 10;}.d,.k,.n{fill:none;}.d{stroke:#e6ebf0;}.e{stroke:#a0aab7;}.f,.m{fill:#a0aab7;}.f{font-size:21px;font-family:Nunito-SemiBold, Nunito;letter-spacing:-0.001em;}.f,.j{font-weight:600;}.g{fill:#e6ebf0;}.h,.i{fill:#9eaab8;}.h{font-size:16px;font-family:OpenSans-Regular, Open Sans;}.j{fill:#38485c;font-size:11px;font-family:OpenSans-SemiBold, Open Sans;}.k{stroke:#38485c;stroke-linecap:round;}.l,.m{stroke:none;}.o{filter:url(#a);}</style><filter id="a" x="181.5" y="32.5" width="349" height="442" filterUnits="userSpaceOnUse"><feOffset dy="1" input="SourceAlpha"/><feGaussianBlur stdDeviation="1.5" result="b"/><feFlood flood-color="#38485c" flood-opacity="0.2"/><feComposite operator="in" in2="b"/><feComposite in="SourceGraphic"/></filter></defs><g transform="translate(-513 -596)"><rect class="a" width="712" height="505" rx="4" transform="translate(513 596)"/><g transform="translate(699 632)"><g class="o" transform="matrix(1, 0, 0, 1, -186, -36)"><rect class="b" width="340" height="433" rx="8" transform="translate(186 36)"/></g><g class="c" transform="translate(24 369)"><path class="l" d="M0,0H292V40H0Z"/><path class="m" d="M 22 0 L 34 0 L 34 1 L 22 1 L 22 0 Z M 44 0 L 56 0 L 56 1 L 44 1 L 44 0 Z M 66 0 L 78 0 L 78 1 L 66 1 L 66 0 Z M 88 0 L 100 0 L 100 1 L 88 1 L 88 0 Z M 110 0 L 122 0 L 122 1 L 110 1 L 110 0 Z M 132 0 L 144 0 L 144 1 L 132 1 L 132 0 Z M 154 0 L 166 0 L 166 1 L 154 1 L 154 0 Z M 176 0 L 188 0 L 188 1 L 176 1 L 176 0 Z M 198 0 L 210 0 L 210 1 L 198 1 L 198 0 Z M 220 0 L 232 0 L 232 1 L 220 1 L 220 0 Z M 242 0 L 254 0 L 254 1 L 242 1 L 242 0 Z M 264 0 L 276 0 L 276 1 L 264 1 L 264 0 Z M 286 0 L 292 0 L 292 1 L 292 1 C 292 2.706851959228516 292 6 292 6 L 291 6 L 291 1 L 286 1 L 286 0 Z M 291 16 L 292 16 C 292 16 292 28 292 28 L 291 28 L 291 16 Z M 291 38 L 292 38 C 292 38 292 40 292 40 L 291 40 L 291 40 L 291 40 L 291 40 L 291 40 C 288.4673767089844 40 282 40 282 40 L 282 39 L 291 39 L 291 38 Z M 260 39 L 272 39 L 272 40 C 272 40 260 40 260 40 L 260 39 Z M 238 39 L 250 39 L 250 40 C 250 40 238 40 238 40 L 238 39 Z M 216 39 L 228 39 L 228 40 C 228 40 216 40 216 40 L 216 39 Z M 194 39 L 206 39 L 206 40 C 206 40 194 40 194 40 L 194 39 Z M 172 39 L 184 39 L 184 40 C 184 40 172 40 172 40 L 172 39 Z M 150 39 L 162 39 L 162 40 C 162 40 150 40 150 40 L 150 39 Z M 128 39 L 140 39 L 140 40 C 140 40 128 40 128 40 L 128 39 Z M 106 39 L 118 39 L 118 40 C 118 40 106 40 106 40 L 106 39 Z M 84 39 L 96 39 L 96 40 C 96 40 84 40 84 40 L 84 39 Z M 62 39 L 74 39 L 74 40 C 74 40 62 40 62 40 L 62 39 Z M 40 39 L 52 39 L 52 40 C 52 40 40 40 40 40 L 40 39 Z M 18 39 L 30 39 L 30 40 C 30 40 18 40 18 40 L 18 39 Z M 0 36 L 1 36 L 1 39 L 8 39 L 8 40 C 8 40 0 40 0 40 L 0 36 Z M 0 14 L 1 14 L 1 26 L 0 26 L 0 14 Z M 0 0 L 12 0 L 12 1 L 1 1 L 1 4 L 0 4 L 0 0 Z"/></g><line class="d" x2="294" transform="translate(22 353)"/><g class="e" transform="translate(24 215)"><rect class="l" width="292" height="123"/><rect class="n" x="0.5" y="0.5" width="291" height="122"/></g><text class="f" transform="translate(22 175)"><tspan x="0" y="21">Título de tarjeta</tspan></text><path class="g" d="M4,0H336a4,4,0,0,1,4,4V159a0,0,0,0,1,0,0H0a0,0,0,0,1,0,0V4A4,4,0,0,1,4,0Z"/><text class="h" transform="translate(170 280)"><tspan x="-38.77" y="0">Contenido</tspan></text><text class="h" transform="translate(170 395)"><tspan x="-38.77" y="0">Contenido</tspan></text><path class="i" d="M7,39H35a4,4,0,0,0,4-4V7a4,4,0,0,0-4-4H7A4,4,0,0,0,3,7V35A4,4,0,0,0,7,39Zm6-14,4.726,4.726L25,19,35,33H7Z" transform="translate(149 59)"/></g><text class="j" transform="translate(1080 723)"><tspan x="0" y="0">Área preliminar</tspan></text><text class="j" transform="translate(1080 914)"><tspan x="0" y="0">Area descriptiva</tspan></text><text class="j" transform="translate(659 824)"><tspan x="-77.478" y="0">Area de títulos</tspan></text><text class="j" transform="translate(659 1026)"><tspan x="-74.314" y="0">Area de cierre</tspan></text><g transform="translate(1058.19 790.422) rotate(-90)"><line class="k" x2="158.208" transform="translate(0 3.034)"/><line class="k" y1="3.034" x2="3.034" transform="translate(0)"/><path class="k" d="M0,0,3.034,3.034" transform="translate(158.208 3.034) rotate(180)"/></g><g transform="translate(1058.19 971.255) rotate(-90)"><line class="k" x2="123.042" transform="translate(0 3.034)"/><line class="k" y1="3.034" x2="3.034" transform="translate(0)"/><path class="k" d="M0,0,3.034,3.034" transform="translate(123.042 3.034) rotate(180)"/></g><g transform="translate(674.19 844.966) rotate(-90)"><line class="k" x2="50.753" transform="translate(0 3.034)"/><line class="k" y1="3.034" x2="3.034" transform="translate(50.753 6.067) rotate(180)"/><line class="k" x2="3.034" y2="3.034" transform="translate(0 3.034)"/></g><g transform="translate(674.19 1046.966) rotate(-90)"><line class="k" x2="50.753" transform="translate(0 3.034)"/><line class="k" y1="3.034" x2="3.034" transform="translate(50.753 6.067) rotate(180)"/><line class="k" x2="3.034" y2="3.034" transform="translate(0 3.034)"/></g></g></svg>