<svg width="446" height="82" viewBox="0 0 446 82" fill="none" xmlns="http://www.w3.org/2000/svg">
<rect x="14.2709" y="13.6464" width="54.0836" height="54.0836" rx="6.76046" fill="#F3F6F9"/>
<path d="M41.3127 29.4208C35.0931 29.4208 30.0453 34.4686 30.0453 40.6882C30.0453 46.9078 35.0931 51.9556 41.3127 51.9556C47.5324 51.9556 52.5802 46.9078 52.5802 40.6882C52.5802 34.4686 47.5324 29.4208 41.3127 29.4208ZM41.3127 46.3219C40.693 46.3219 40.186 45.8149 40.186 45.1952V40.6882C40.186 40.0685 40.693 39.5615 41.3127 39.5615C41.9324 39.5615 42.4395 40.0685 42.4395 40.6882V45.1952C42.4395 45.8149 41.9324 46.3219 41.3127 46.3219ZM42.4395 37.308H40.186V35.0545H42.4395V37.308Z" fill="#38485C"/>
<path d="M86.8689 33.1265C86.5371 33.1265 86.2802 33.0356 86.0982 32.8536C85.927 32.6609 85.8413 32.3987 85.8413 32.0668V23.3966H82.7104C82.4321 23.3966 82.2127 23.3216 82.0521 23.1718C81.9022 23.0112 81.8273 22.7971 81.8273 22.5295C81.8273 22.2512 81.9022 22.0425 82.0521 21.9033C82.2127 21.7535 82.4321 21.6786 82.7104 21.6786H91.0274C91.3057 21.6786 91.5198 21.7535 91.6697 21.9033C91.8302 22.0425 91.9105 22.2512 91.9105 22.5295C91.9105 22.7971 91.8302 23.0112 91.6697 23.1718C91.5198 23.3216 91.3057 23.3966 91.0274 23.3966H87.8965V32.0668C87.8965 32.3987 87.8109 32.6609 87.6396 32.8536C87.4683 33.0356 87.2114 33.1265 86.8689 33.1265ZM94.765 33.1105C94.4439 33.1105 94.1977 33.0142 94.0264 32.8215C93.8552 32.6288 93.7695 32.3612 93.7695 32.0187V26.1261C93.7695 25.7729 93.8552 25.5053 94.0264 25.3233C94.1977 25.1306 94.4439 25.0343 94.765 25.0343C95.0861 25.0343 95.3323 25.1306 95.5036 25.3233C95.6855 25.5053 95.7765 25.7729 95.7765 26.1261V32.0187C95.7765 32.3612 95.6909 32.6288 95.5196 32.8215C95.3484 33.0142 95.0968 33.1105 94.765 33.1105ZM95.5196 24.0067C95.4126 24.1565 95.2841 24.2422 95.1343 24.2636C94.9844 24.285 94.8399 24.2582 94.7008 24.1833C94.5616 24.1084 94.4599 24.0013 94.3957 23.8622C94.3422 23.723 94.3582 23.5678 94.4439 23.3966L95.6641 21.0042C95.7605 20.8008 95.8889 20.6724 96.0495 20.6189C96.21 20.5546 96.376 20.5439 96.5472 20.5867C96.7185 20.6296 96.863 20.7098 96.9807 20.8276C97.1092 20.9453 97.1841 21.0898 97.2055 21.2611C97.2376 21.4217 97.1948 21.5876 97.0771 21.7588L95.5196 24.0067ZM101.459 33.1587C100.763 33.1587 100.179 33.0409 99.7084 32.8054C99.2481 32.5699 98.9056 32.2274 98.6808 31.7778C98.456 31.3176 98.3436 30.7502 98.3436 30.0759V26.6559H97.5087C97.2518 26.6559 97.0538 26.5917 96.9146 26.4633C96.7755 26.3241 96.7059 26.1368 96.7059 25.9013C96.7059 25.6551 96.7755 25.4678 96.9146 25.3393C97.0538 25.2109 97.2518 25.1467 97.5087 25.1467H98.3436V23.6856C98.3436 23.3537 98.4293 23.1022 98.6005 22.9309C98.7825 22.7597 99.034 22.674 99.3552 22.674C99.6763 22.674 99.9225 22.7597 100.094 22.9309C100.265 23.1022 100.351 23.3537 100.351 23.6856V25.1467H102.053C102.309 25.1467 102.507 25.2109 102.647 25.3393C102.786 25.4678 102.855 25.6551 102.855 25.9013C102.855 26.1368 102.786 26.3241 102.647 26.4633C102.507 26.5917 102.309 26.6559 102.053 26.6559H100.351V29.9635C100.351 30.4773 100.463 30.8626 100.688 31.1195C100.913 31.3764 101.277 31.5049 101.78 31.5049C101.962 31.5049 102.122 31.4888 102.261 31.4567C102.4 31.4246 102.524 31.4032 102.631 31.3925C102.759 31.3818 102.866 31.4246 102.952 31.5209C103.037 31.6066 103.08 31.7885 103.08 32.0668C103.08 32.2809 103.043 32.4736 102.968 32.6449C102.904 32.8054 102.78 32.9178 102.598 32.982C102.459 33.0249 102.277 33.0623 102.053 33.0944C101.828 33.1372 101.63 33.1587 101.459 33.1587ZM106.866 33.1587C106.213 33.1587 105.673 33.0409 105.244 32.8054C104.816 32.5592 104.495 32.1953 104.281 31.7136C104.078 31.2319 103.976 30.6325 103.976 29.9153V26.0298C103.976 25.6872 104.062 25.4357 104.233 25.2751C104.404 25.1039 104.65 25.0182 104.971 25.0182C105.293 25.0182 105.539 25.1039 105.71 25.2751C105.892 25.4357 105.983 25.6872 105.983 26.0298V29.9474C105.983 30.5041 106.095 30.9162 106.32 31.1838C106.545 31.4514 106.903 31.5852 107.396 31.5852C107.931 31.5852 108.37 31.4032 108.712 31.0393C109.055 30.6646 109.226 30.1722 109.226 29.5621V26.0298C109.226 25.6872 109.312 25.4357 109.483 25.2751C109.654 25.1039 109.901 25.0182 110.222 25.0182C110.543 25.0182 110.789 25.1039 110.96 25.2751C111.142 25.4357 111.233 25.6872 111.233 26.0298V32.099C111.233 32.784 110.907 33.1265 110.254 33.1265C109.943 33.1265 109.703 33.0409 109.531 32.8696C109.36 32.6877 109.274 32.4308 109.274 32.099V30.8787L109.499 31.3604C109.274 31.9384 108.932 32.3826 108.472 32.693C108.022 33.0034 107.487 33.1587 106.866 33.1587ZM116.004 33.1587C115.115 33.1587 114.446 32.9071 113.997 32.404C113.547 31.8902 113.322 31.1409 113.322 30.1562V22.5616C113.322 22.2298 113.408 21.9783 113.579 21.807C113.75 21.6357 113.997 21.5501 114.318 21.5501C114.639 21.5501 114.885 21.6357 115.056 21.807C115.238 21.9783 115.329 22.2298 115.329 22.5616V30.0598C115.329 30.5522 115.431 30.9162 115.634 31.1516C115.848 31.3871 116.148 31.5049 116.533 31.5049C116.619 31.5049 116.699 31.5049 116.774 31.5049C116.849 31.4942 116.924 31.4835 116.999 31.4728C117.149 31.4514 117.251 31.4942 117.304 31.6012C117.358 31.6976 117.384 31.9009 117.384 32.2113C117.384 32.4789 117.331 32.6877 117.224 32.8375C117.117 32.9874 116.94 33.0784 116.694 33.1105C116.587 33.1212 116.475 33.1319 116.357 33.1426C116.239 33.1533 116.121 33.1587 116.004 33.1587ZM121.952 33.1587C121.138 33.1587 120.432 32.9927 119.832 32.6609C119.233 32.3291 118.767 31.8581 118.435 31.248C118.103 30.6271 117.938 29.8993 117.938 29.0644C117.938 28.4328 118.029 27.8709 118.211 27.3785C118.403 26.8754 118.676 26.4472 119.029 26.094C119.383 25.73 119.805 25.4571 120.298 25.2751C120.79 25.0824 121.341 24.9861 121.952 24.9861C122.765 24.9861 123.472 25.152 124.071 25.4838C124.67 25.8157 125.136 26.2867 125.468 26.8968C125.8 27.5069 125.966 28.2294 125.966 29.0644C125.966 29.6959 125.869 30.2632 125.677 30.7663C125.495 31.2694 125.227 31.7029 124.874 32.0668C124.521 32.4201 124.098 32.693 123.605 32.8857C123.113 33.0677 122.562 33.1587 121.952 33.1587ZM121.952 31.6333C122.348 31.6333 122.696 31.537 122.995 31.3443C123.295 31.1516 123.525 30.868 123.686 30.4933C123.857 30.108 123.943 29.6317 123.943 29.0644C123.943 28.208 123.761 27.5711 123.397 27.1537C123.033 26.7255 122.551 26.5114 121.952 26.5114C121.556 26.5114 121.208 26.6078 120.908 26.8004C120.608 26.9824 120.373 27.2661 120.201 27.6514C120.041 28.0261 119.961 28.497 119.961 29.0644C119.961 29.91 120.143 30.5522 120.507 30.9911C120.87 31.4192 121.352 31.6333 121.952 31.6333ZM135 33.1587C134.315 33.1587 133.71 32.9927 133.185 32.6609C132.672 32.3291 132.27 31.8581 131.981 31.248C131.692 30.6271 131.548 29.8993 131.548 29.0644C131.548 28.2187 131.692 27.4962 131.981 26.8968C132.27 26.2867 132.672 25.8157 133.185 25.4838C133.71 25.152 134.315 24.9861 135 24.9861C135.653 24.9861 136.22 25.1467 136.702 25.4678C137.194 25.7889 137.526 26.2117 137.697 26.7362H137.52V22.5616C137.52 22.2298 137.606 21.9783 137.777 21.807C137.949 21.6357 138.195 21.5501 138.516 21.5501C138.837 21.5501 139.083 21.6357 139.255 21.807C139.436 21.9783 139.527 22.2298 139.527 22.5616V32.099C139.527 32.4308 139.442 32.6877 139.271 32.8696C139.099 33.0409 138.853 33.1265 138.532 33.1265C138.211 33.1265 137.965 33.0409 137.793 32.8696C137.622 32.6877 137.537 32.4308 137.537 32.099V30.8466L137.713 31.3283C137.553 31.8849 137.226 32.3291 136.734 32.6609C136.241 32.9927 135.663 33.1587 135 33.1587ZM135.562 31.6333C135.958 31.6333 136.306 31.537 136.605 31.3443C136.905 31.1516 137.135 30.868 137.296 30.4933C137.467 30.108 137.553 29.6317 137.553 29.0644C137.553 28.208 137.371 27.5711 137.007 27.1537C136.643 26.7255 136.161 26.5114 135.562 26.5114C135.166 26.5114 134.818 26.6078 134.518 26.8004C134.218 26.9824 133.983 27.2661 133.812 27.6514C133.651 28.0261 133.571 28.497 133.571 29.0644C133.571 29.91 133.753 30.5522 134.117 30.9911C134.481 31.4192 134.962 31.6333 135.562 31.6333ZM145.478 33.1587C144.59 33.1587 143.824 32.9927 143.182 32.6609C142.54 32.3291 142.042 31.8581 141.689 31.248C141.346 30.6379 141.175 29.9153 141.175 29.0804C141.175 28.2669 141.341 27.5551 141.673 26.945C142.015 26.3348 142.481 25.8585 143.07 25.516C143.669 25.1627 144.349 24.9861 145.109 24.9861C145.665 24.9861 146.163 25.0771 146.602 25.2591C147.052 25.441 147.432 25.7033 147.742 26.0458C148.063 26.3883 148.304 26.8058 148.464 27.2982C148.636 27.7799 148.721 28.3258 148.721 28.9359C148.721 29.1286 148.652 29.2784 148.513 29.3855C148.384 29.4818 148.197 29.53 147.951 29.53H142.797V28.3739H147.308L147.052 28.6148C147.052 28.1224 146.977 27.7103 146.827 27.3785C146.688 27.0466 146.479 26.7951 146.201 26.6238C145.933 26.4419 145.596 26.3509 145.189 26.3509C144.739 26.3509 144.354 26.4579 144.033 26.672C143.723 26.8754 143.482 27.1697 143.31 27.5551C143.15 27.9297 143.07 28.3793 143.07 28.9038V29.0162C143.07 29.8939 143.273 30.5522 143.68 30.9911C144.097 31.4192 144.707 31.6333 145.51 31.6333C145.788 31.6333 146.099 31.6012 146.441 31.537C146.795 31.4621 147.126 31.339 147.437 31.1677C147.662 31.0393 147.86 30.9857 148.031 31.0071C148.202 31.0178 148.336 31.0767 148.432 31.1838C148.539 31.2908 148.604 31.4246 148.625 31.5852C148.646 31.735 148.614 31.8902 148.529 32.0508C148.454 32.2113 148.32 32.3505 148.127 32.4682C147.753 32.7037 147.319 32.8804 146.827 32.9981C146.345 33.1051 145.895 33.1587 145.478 33.1587ZM157.351 33.1587C156.463 33.1587 155.794 32.9071 155.344 32.404C154.895 31.8902 154.67 31.1409 154.67 30.1562V22.5616C154.67 22.2298 154.755 21.9783 154.927 21.807C155.098 21.6357 155.344 21.5501 155.665 21.5501C155.986 21.5501 156.233 21.6357 156.404 21.807C156.586 21.9783 156.677 22.2298 156.677 22.5616V30.0598C156.677 30.5522 156.778 30.9162 156.982 31.1516C157.196 31.3871 157.496 31.5049 157.881 31.5049C157.967 31.5049 158.047 31.5049 158.122 31.5049C158.197 31.4942 158.272 31.4835 158.347 31.4728C158.496 31.4514 158.598 31.4942 158.652 31.6012C158.705 31.6976 158.732 31.9009 158.732 32.2113C158.732 32.4789 158.678 32.6877 158.571 32.8375C158.464 32.9874 158.288 33.0784 158.042 33.1105C157.934 33.1212 157.822 33.1319 157.704 33.1426C157.587 33.1533 157.469 33.1587 157.351 33.1587ZM162.382 33.1587C161.815 33.1587 161.306 33.0516 160.857 32.8375C160.418 32.6128 160.07 32.313 159.813 31.9384C159.567 31.5638 159.444 31.1409 159.444 30.67C159.444 30.0919 159.594 29.637 159.893 29.3052C160.193 28.9627 160.68 28.7165 161.354 28.5666C162.029 28.4168 162.933 28.3418 164.068 28.3418H164.871V29.4979H164.084C163.42 29.4979 162.89 29.53 162.494 29.5942C162.098 29.6584 161.815 29.7708 161.643 29.9314C161.483 30.0812 161.403 30.2953 161.403 30.5736C161.403 30.9269 161.526 31.2159 161.772 31.4407C162.018 31.6654 162.361 31.7778 162.8 31.7778C163.153 31.7778 163.463 31.6976 163.731 31.537C164.009 31.3657 164.229 31.1356 164.389 30.8466C164.55 30.5576 164.63 30.2257 164.63 29.8511V28.0047C164.63 27.4695 164.512 27.0841 164.277 26.8486C164.041 26.6131 163.645 26.4954 163.089 26.4954C162.778 26.4954 162.441 26.5328 162.077 26.6078C161.724 26.6827 161.349 26.8112 160.953 26.9931C160.75 27.0895 160.568 27.1162 160.407 27.0734C160.257 27.0306 160.14 26.945 160.054 26.8165C159.968 26.6774 159.925 26.5275 159.925 26.3669C159.925 26.2064 159.968 26.0512 160.054 25.9013C160.14 25.7407 160.284 25.623 160.487 25.5481C160.98 25.3447 161.451 25.2002 161.9 25.1146C162.361 25.0289 162.778 24.9861 163.153 24.9861C163.923 24.9861 164.555 25.1039 165.047 25.3393C165.55 25.5748 165.925 25.9334 166.171 26.4151C166.417 26.8861 166.541 27.4962 166.541 28.2455V32.099C166.541 32.4308 166.46 32.6877 166.3 32.8696C166.139 33.0409 165.909 33.1265 165.609 33.1265C165.31 33.1265 165.074 33.0409 164.903 32.8696C164.742 32.6877 164.662 32.4308 164.662 32.099V31.3283H164.79C164.716 31.7029 164.566 32.0294 164.341 32.3077C164.127 32.5753 163.854 32.784 163.522 32.9339C163.19 33.0837 162.81 33.1587 162.382 33.1587ZM176.533 33.1587C175.837 33.1587 175.254 33.0409 174.783 32.8054C174.323 32.5699 173.98 32.2274 173.756 31.7778C173.531 31.3176 173.418 30.7502 173.418 30.0759V26.6559H172.583C172.327 26.6559 172.129 26.5917 171.989 26.4633C171.85 26.3241 171.781 26.1368 171.781 25.9013C171.781 25.6551 171.85 25.4678 171.989 25.3393C172.129 25.2109 172.327 25.1467 172.583 25.1467H173.418V23.6856C173.418 23.3537 173.504 23.1022 173.675 22.9309C173.857 22.7597 174.109 22.674 174.43 22.674C174.751 22.674 174.997 22.7597 175.168 22.9309C175.34 23.1022 175.425 23.3537 175.425 23.6856V25.1467H177.127C177.384 25.1467 177.582 25.2109 177.721 25.3393C177.861 25.4678 177.93 25.6551 177.93 25.9013C177.93 26.1368 177.861 26.3241 177.721 26.4633C177.582 26.5917 177.384 26.6559 177.127 26.6559H175.425V29.9635C175.425 30.4773 175.538 30.8626 175.763 31.1195C175.987 31.3764 176.351 31.5049 176.854 31.5049C177.036 31.5049 177.197 31.4888 177.336 31.4567C177.475 31.4246 177.598 31.4032 177.705 31.3925C177.834 31.3818 177.941 31.4246 178.026 31.5209C178.112 31.6066 178.155 31.7885 178.155 32.0668C178.155 32.2809 178.117 32.4736 178.043 32.6449C177.978 32.8054 177.855 32.9178 177.673 32.982C177.534 33.0249 177.352 33.0623 177.127 33.0944C176.903 33.1372 176.705 33.1587 176.533 33.1587ZM181.684 33.1587C181.117 33.1587 180.608 33.0516 180.159 32.8375C179.72 32.6128 179.372 32.313 179.115 31.9384C178.869 31.5638 178.746 31.1409 178.746 30.67C178.746 30.0919 178.895 29.637 179.195 29.3052C179.495 28.9627 179.982 28.7165 180.656 28.5666C181.331 28.4168 182.235 28.3418 183.37 28.3418H184.173V29.4979H183.386C182.722 29.4979 182.192 29.53 181.796 29.5942C181.4 29.6584 181.117 29.7708 180.945 29.9314C180.785 30.0812 180.704 30.2953 180.704 30.5736C180.704 30.9269 180.828 31.2159 181.074 31.4407C181.32 31.6654 181.662 31.7778 182.101 31.7778C182.455 31.7778 182.765 31.6976 183.033 31.537C183.311 31.3657 183.53 31.1356 183.691 30.8466C183.851 30.5576 183.932 30.2257 183.932 29.8511V28.0047C183.932 27.4695 183.814 27.0841 183.578 26.8486C183.343 26.6131 182.947 26.4954 182.39 26.4954C182.08 26.4954 181.743 26.5328 181.379 26.6078C181.026 26.6827 180.651 26.8112 180.255 26.9931C180.051 27.0895 179.87 27.1162 179.709 27.0734C179.559 27.0306 179.441 26.945 179.356 26.8165C179.27 26.6774 179.227 26.5275 179.227 26.3669C179.227 26.2064 179.27 26.0512 179.356 25.9013C179.441 25.7407 179.586 25.623 179.789 25.5481C180.282 25.3447 180.753 25.2002 181.202 25.1146C181.662 25.0289 182.08 24.9861 182.455 24.9861C183.225 24.9861 183.857 25.1039 184.349 25.3393C184.852 25.5748 185.227 25.9334 185.473 26.4151C185.719 26.8861 185.842 27.4962 185.842 28.2455V32.099C185.842 32.4308 185.762 32.6877 185.602 32.8696C185.441 33.0409 185.211 33.1265 184.911 33.1265C184.611 33.1265 184.376 33.0409 184.205 32.8696C184.044 32.6877 183.964 32.4308 183.964 32.099V31.3283H184.092C184.017 31.7029 183.867 32.0294 183.643 32.3077C183.429 32.5753 183.156 32.784 182.824 32.9339C182.492 33.0837 182.112 33.1587 181.684 33.1587ZM188.907 33.1265C188.575 33.1265 188.318 33.0409 188.136 32.8696C187.965 32.6877 187.879 32.4308 187.879 32.099V26.0298C187.879 25.6979 187.965 25.4464 188.136 25.2751C188.308 25.1039 188.548 25.0182 188.859 25.0182C189.169 25.0182 189.41 25.1039 189.581 25.2751C189.753 25.4464 189.838 25.6979 189.838 26.0298V27.0413H189.678C189.828 26.399 190.122 25.912 190.561 25.5802C191 25.2484 191.583 25.0503 192.311 24.9861C192.536 24.9647 192.712 25.0236 192.841 25.1627C192.98 25.2912 193.06 25.4946 193.082 25.7729C193.103 26.0405 193.039 26.2599 192.889 26.4312C192.75 26.5917 192.536 26.6881 192.247 26.7202L191.894 26.7523C191.241 26.8165 190.748 27.0199 190.416 27.3624C190.085 27.6942 189.919 28.1652 189.919 28.7753V32.099C189.919 32.4308 189.833 32.6877 189.662 32.8696C189.49 33.0409 189.239 33.1265 188.907 33.1265ZM193.204 36.0327C192.968 36.0541 192.776 36.0166 192.626 35.9203C192.476 35.8347 192.374 35.7223 192.321 35.5831C192.256 35.444 192.235 35.2995 192.256 35.1496C192.278 34.9998 192.342 34.866 192.449 34.7482C192.545 34.6412 192.679 34.5823 192.85 34.5716C193.332 34.5288 193.68 34.3896 193.894 34.1541C194.119 33.9293 194.231 33.5815 194.231 33.1105V26.0298C194.231 25.6979 194.317 25.4464 194.488 25.2751C194.67 25.1039 194.922 25.0182 195.243 25.0182C195.564 25.0182 195.81 25.1039 195.981 25.2751C196.153 25.4464 196.238 25.6979 196.238 26.0298V32.9339C196.238 33.6189 196.126 34.1809 195.901 34.6198C195.687 35.0586 195.355 35.3905 194.906 35.6152C194.467 35.84 193.899 35.9792 193.204 36.0327ZM195.227 23.5411C194.852 23.5411 194.558 23.4501 194.344 23.2681C194.14 23.0754 194.039 22.8132 194.039 22.4814C194.039 22.1388 194.14 21.8766 194.344 21.6946C194.558 21.5126 194.852 21.4217 195.227 21.4217C195.612 21.4217 195.906 21.5126 196.11 21.6946C196.313 21.8766 196.415 22.1388 196.415 22.4814C196.415 22.8132 196.313 23.0754 196.11 23.2681C195.906 23.4501 195.612 23.5411 195.227 23.5411ZM202.192 33.1587C201.303 33.1587 200.538 32.9927 199.896 32.6609C199.253 32.3291 198.756 31.8581 198.403 31.248C198.06 30.6379 197.889 29.9153 197.889 29.0804C197.889 28.2669 198.055 27.5551 198.386 26.945C198.729 26.3348 199.195 25.8585 199.783 25.516C200.383 25.1627 201.062 24.9861 201.822 24.9861C202.379 24.9861 202.877 25.0771 203.316 25.2591C203.765 25.441 204.145 25.7033 204.456 26.0458C204.777 26.3883 205.018 26.8058 205.178 27.2982C205.349 27.7799 205.435 28.3258 205.435 28.9359C205.435 29.1286 205.365 29.2784 205.226 29.3855C205.098 29.4818 204.911 29.53 204.664 29.53H199.51V28.3739H204.022L203.765 28.6148C203.765 28.1224 203.69 27.7103 203.54 27.3785C203.401 27.0466 203.193 26.7951 202.914 26.6238C202.647 26.4419 202.309 26.3509 201.903 26.3509C201.453 26.3509 201.068 26.4579 200.747 26.672C200.436 26.8754 200.195 27.1697 200.024 27.5551C199.864 27.9297 199.783 28.3793 199.783 28.9038V29.0162C199.783 29.8939 199.987 30.5522 200.393 30.9911C200.811 31.4192 201.421 31.6333 202.224 31.6333C202.502 31.6333 202.813 31.6012 203.155 31.537C203.508 31.4621 203.84 31.339 204.151 31.1677C204.375 31.0393 204.573 30.9857 204.745 31.0071C204.916 31.0178 205.05 31.0767 205.146 31.1838C205.253 31.2908 205.317 31.4246 205.339 31.5852C205.36 31.735 205.328 31.8902 205.242 32.0508C205.167 32.2113 205.034 32.3505 204.841 32.4682C204.466 32.7037 204.033 32.8804 203.54 32.9981C203.059 33.1051 202.609 33.1587 202.192 33.1587ZM210.59 33.1587C209.894 33.1587 209.311 33.0409 208.84 32.8054C208.379 32.5699 208.037 32.2274 207.812 31.7778C207.587 31.3176 207.475 30.7502 207.475 30.0759V26.6559H206.64C206.383 26.6559 206.185 26.5917 206.046 26.4633C205.907 26.3241 205.837 26.1368 205.837 25.9013C205.837 25.6551 205.907 25.4678 206.046 25.3393C206.185 25.2109 206.383 25.1467 206.64 25.1467H207.475V23.6856C207.475 23.3537 207.56 23.1022 207.732 22.9309C207.914 22.7597 208.165 22.674 208.486 22.674C208.807 22.674 209.054 22.7597 209.225 22.9309C209.396 23.1022 209.482 23.3537 209.482 23.6856V25.1467H211.184C211.441 25.1467 211.639 25.2109 211.778 25.3393C211.917 25.4678 211.987 25.6551 211.987 25.9013C211.987 26.1368 211.917 26.3241 211.778 26.4633C211.639 26.5917 211.441 26.6559 211.184 26.6559H209.482V29.9635C209.482 30.4773 209.594 30.8626 209.819 31.1195C210.044 31.3764 210.408 31.5049 210.911 31.5049C211.093 31.5049 211.253 31.4888 211.392 31.4567C211.532 31.4246 211.655 31.4032 211.762 31.3925C211.89 31.3818 211.997 31.4246 212.083 31.5209C212.169 31.6066 212.211 31.7885 212.211 32.0668C212.211 32.2809 212.174 32.4736 212.099 32.6449C212.035 32.8054 211.912 32.9178 211.73 32.982C211.591 33.0249 211.409 33.0623 211.184 33.0944C210.959 33.1372 210.761 33.1587 210.59 33.1587ZM215.74 33.1587C215.173 33.1587 214.665 33.0516 214.215 32.8375C213.776 32.6128 213.428 32.313 213.171 31.9384C212.925 31.5638 212.802 31.1409 212.802 30.67C212.802 30.0919 212.952 29.637 213.252 29.3052C213.551 28.9627 214.038 28.7165 214.713 28.5666C215.387 28.4168 216.292 28.3418 217.426 28.3418H218.229V29.4979H217.442C216.779 29.4979 216.249 29.53 215.853 29.5942C215.457 29.6584 215.173 29.7708 215.002 29.9314C214.841 30.0812 214.761 30.2953 214.761 30.5736C214.761 30.9269 214.884 31.2159 215.13 31.4407C215.376 31.6654 215.719 31.7778 216.158 31.7778C216.511 31.7778 216.821 31.6976 217.089 31.537C217.367 31.3657 217.587 31.1356 217.747 30.8466C217.908 30.5576 217.988 30.2257 217.988 29.8511V28.0047C217.988 27.4695 217.87 27.0841 217.635 26.8486C217.399 26.6131 217.003 26.4954 216.447 26.4954C216.136 26.4954 215.799 26.5328 215.435 26.6078C215.082 26.6827 214.707 26.8112 214.311 26.9931C214.108 27.0895 213.926 27.1162 213.765 27.0734C213.616 27.0306 213.498 26.945 213.412 26.8165C213.327 26.6774 213.284 26.5275 213.284 26.3669C213.284 26.2064 213.327 26.0512 213.412 25.9013C213.498 25.7407 213.642 25.623 213.846 25.5481C214.338 25.3447 214.809 25.2002 215.259 25.1146C215.719 25.0289 216.136 24.9861 216.511 24.9861C217.282 24.9861 217.913 25.1039 218.406 25.3393C218.909 25.5748 219.283 25.9334 219.53 26.4151C219.776 26.8861 219.899 27.4962 219.899 28.2455V32.099C219.899 32.4308 219.819 32.6877 219.658 32.8696C219.497 33.0409 219.267 33.1265 218.968 33.1265C218.668 33.1265 218.432 33.0409 218.261 32.8696C218.101 32.6877 218.02 32.4308 218.02 32.099V31.3283H218.149C218.074 31.7029 217.924 32.0294 217.699 32.3077C217.485 32.5753 217.212 32.784 216.88 32.9339C216.548 33.0837 216.168 33.1587 215.74 33.1587ZM229.924 33.1587C229.099 33.1587 228.382 32.9927 227.772 32.6609C227.162 32.3184 226.691 31.8367 226.359 31.2159C226.027 30.595 225.861 29.8672 225.861 29.0322C225.861 28.4007 225.952 27.8387 226.134 27.3464C226.327 26.8433 226.6 26.4205 226.953 26.0779C227.306 25.7247 227.735 25.4571 228.238 25.2751C228.741 25.0824 229.303 24.9861 229.924 24.9861C230.277 24.9861 230.657 25.0343 231.064 25.1306C231.481 25.227 231.872 25.3875 232.236 25.6123C232.407 25.7193 232.519 25.8478 232.573 25.9976C232.626 26.1475 232.637 26.3027 232.605 26.4633C232.573 26.6131 232.503 26.7469 232.396 26.8647C232.3 26.9717 232.177 27.0413 232.027 27.0734C231.877 27.0948 231.711 27.0573 231.529 26.961C231.294 26.8219 231.053 26.7202 230.807 26.6559C230.56 26.581 230.325 26.5436 230.1 26.5436C229.747 26.5436 229.437 26.6024 229.169 26.7202C228.901 26.8272 228.671 26.9878 228.479 27.2018C228.297 27.4052 228.157 27.6621 228.061 27.9725C227.965 28.283 227.917 28.6415 227.917 29.0483C227.917 29.8404 228.104 30.4666 228.479 30.9269C228.864 31.3764 229.404 31.6012 230.1 31.6012C230.325 31.6012 230.555 31.5691 230.791 31.5049C231.037 31.4407 231.283 31.339 231.529 31.1998C231.711 31.1035 231.872 31.0714 232.011 31.1035C232.161 31.1356 232.284 31.2105 232.38 31.3283C232.477 31.4353 232.535 31.5691 232.557 31.7297C232.578 31.8795 232.557 32.0294 232.493 32.1792C232.439 32.3291 232.332 32.4522 232.171 32.5485C231.818 32.7626 231.444 32.9178 231.048 33.0142C230.651 33.1105 230.277 33.1587 229.924 33.1587ZM237.292 33.1587C236.478 33.1587 235.772 32.9927 235.173 32.6609C234.573 32.3291 234.108 31.8581 233.776 31.248C233.444 30.6271 233.278 29.8993 233.278 29.0644C233.278 28.4328 233.369 27.8709 233.551 27.3785C233.744 26.8754 234.017 26.4472 234.37 26.094C234.723 25.73 235.146 25.4571 235.638 25.2751C236.131 25.0824 236.682 24.9861 237.292 24.9861C238.105 24.9861 238.812 25.152 239.411 25.4838C240.011 25.8157 240.476 26.2867 240.808 26.8968C241.14 27.5069 241.306 28.2294 241.306 29.0644C241.306 29.6959 241.21 30.2632 241.017 30.7663C240.835 31.2694 240.567 31.7029 240.214 32.0668C239.861 32.4201 239.438 32.693 238.946 32.8857C238.453 33.0677 237.902 33.1587 237.292 33.1587ZM237.292 31.6333C237.688 31.6333 238.036 31.537 238.336 31.3443C238.635 31.1516 238.865 30.868 239.026 30.4933C239.197 30.108 239.283 29.6317 239.283 29.0644C239.283 28.208 239.101 27.5711 238.737 27.1537C238.373 26.7255 237.891 26.5114 237.292 26.5114C236.896 26.5114 236.548 26.6078 236.248 26.8004C235.949 26.9824 235.713 27.2661 235.542 27.6514C235.381 28.0261 235.301 28.497 235.301 29.0644C235.301 29.91 235.483 30.5522 235.847 30.9911C236.211 31.4192 236.693 31.6333 237.292 31.6333ZM243.958 33.1265C243.637 33.1265 243.391 33.0409 243.219 32.8696C243.048 32.6877 242.963 32.4308 242.963 32.099V26.0298C242.963 25.6979 243.048 25.4464 243.219 25.2751C243.391 25.1039 243.632 25.0182 243.942 25.0182C244.252 25.0182 244.493 25.1039 244.664 25.2751C244.836 25.4464 244.921 25.6979 244.921 26.0298V27.1216L244.745 26.7202C244.98 26.1529 245.344 25.7247 245.837 25.4357C246.34 25.136 246.907 24.9861 247.539 24.9861C248.17 24.9861 248.689 25.1039 249.096 25.3393C249.503 25.5748 249.808 25.9334 250.011 26.4151C250.215 26.8861 250.316 27.4855 250.316 28.2134V32.099C250.316 32.4308 250.231 32.6877 250.059 32.8696C249.888 33.0409 249.642 33.1265 249.321 33.1265C249 33.1265 248.748 33.0409 248.566 32.8696C248.395 32.6877 248.309 32.4308 248.309 32.099V28.3097C248.309 27.6996 248.191 27.2554 247.956 26.9771C247.731 26.6988 247.378 26.5596 246.896 26.5596C246.308 26.5596 245.837 26.7469 245.483 27.1216C245.141 27.4855 244.97 27.9725 244.97 28.5827V32.099C244.97 32.784 244.632 33.1265 243.958 33.1265ZM257.741 33.1265C257.42 33.1265 257.174 33.0409 257.003 32.8696C256.831 32.6877 256.746 32.4308 256.746 32.099V26.0298C256.746 25.6979 256.831 25.4464 257.003 25.2751C257.174 25.1039 257.415 25.0182 257.725 25.0182C258.036 25.0182 258.276 25.1039 258.448 25.2751C258.619 25.4464 258.705 25.6979 258.705 26.0298V27.2018L258.528 26.7202C258.742 26.185 259.074 25.7622 259.524 25.4517C259.973 25.1413 260.508 24.9861 261.129 24.9861C261.761 24.9861 262.28 25.136 262.687 25.4357C263.093 25.7354 263.377 26.1957 263.538 26.8165H263.313C263.527 26.2492 263.88 25.805 264.372 25.4838C264.865 25.152 265.432 24.9861 266.074 24.9861C266.674 24.9861 267.166 25.1039 267.552 25.3393C267.948 25.5748 268.242 25.9334 268.435 26.4151C268.627 26.8861 268.724 27.4855 268.724 28.2134V32.099C268.724 32.4308 268.633 32.6877 268.451 32.8696C268.279 33.0409 268.033 33.1265 267.712 33.1265C267.391 33.1265 267.145 33.0409 266.974 32.8696C266.802 32.6877 266.717 32.4308 266.717 32.099V28.2937C266.717 27.6942 266.615 27.2554 266.412 26.9771C266.219 26.6988 265.887 26.5596 265.416 26.5596C264.892 26.5596 264.479 26.7469 264.18 27.1216C263.88 27.4855 263.73 27.994 263.73 28.6469V32.099C263.73 32.4308 263.645 32.6877 263.473 32.8696C263.302 33.0409 263.056 33.1265 262.735 33.1265C262.414 33.1265 262.162 33.0409 261.98 32.8696C261.809 32.6877 261.723 32.4308 261.723 32.099V28.2937C261.723 27.6942 261.621 27.2554 261.418 26.9771C261.225 26.6988 260.899 26.5596 260.439 26.5596C259.914 26.5596 259.502 26.7469 259.202 27.1216C258.903 27.4855 258.753 27.994 258.753 28.6469V32.099C258.753 32.784 258.416 33.1265 257.741 33.1265ZM273.379 33.1587C272.812 33.1587 272.303 33.0516 271.854 32.8375C271.415 32.6128 271.067 32.313 270.81 31.9384C270.564 31.5638 270.441 31.1409 270.441 30.67C270.441 30.0919 270.591 29.637 270.89 29.3052C271.19 28.9627 271.677 28.7165 272.352 28.5666C273.026 28.4168 273.93 28.3418 275.065 28.3418H275.868V29.4979H275.081C274.417 29.4979 273.888 29.53 273.492 29.5942C273.095 29.6584 272.812 29.7708 272.641 29.9314C272.48 30.0812 272.4 30.2953 272.4 30.5736C272.4 30.9269 272.523 31.2159 272.769 31.4407C273.015 31.6654 273.358 31.7778 273.797 31.7778C274.15 31.7778 274.46 31.6976 274.728 31.537C275.006 31.3657 275.226 31.1356 275.386 30.8466C275.547 30.5576 275.627 30.2257 275.627 29.8511V28.0047C275.627 27.4695 275.509 27.0841 275.274 26.8486C275.038 26.6131 274.642 26.4954 274.086 26.4954C273.775 26.4954 273.438 26.5328 273.074 26.6078C272.721 26.6827 272.346 26.8112 271.95 26.9931C271.747 27.0895 271.565 27.1162 271.404 27.0734C271.254 27.0306 271.137 26.945 271.051 26.8165C270.965 26.6774 270.923 26.5275 270.923 26.3669C270.923 26.2064 270.965 26.0512 271.051 25.9013C271.137 25.7407 271.281 25.623 271.485 25.5481C271.977 25.3447 272.448 25.2002 272.897 25.1146C273.358 25.0289 273.775 24.9861 274.15 24.9861C274.921 24.9861 275.552 25.1039 276.044 25.3393C276.548 25.5748 276.922 25.9334 277.168 26.4151C277.415 26.8861 277.538 27.4962 277.538 28.2455V32.099C277.538 32.4308 277.457 32.6877 277.297 32.8696C277.136 33.0409 276.906 33.1265 276.606 33.1265C276.307 33.1265 276.071 33.0409 275.9 32.8696C275.739 32.6877 275.659 32.4308 275.659 32.099V31.3283H275.788C275.713 31.7029 275.563 32.0294 275.338 32.3077C275.124 32.5753 274.851 32.784 274.519 32.9339C274.187 33.0837 273.807 33.1587 273.379 33.1587ZM274.985 24.0067C274.878 24.1565 274.749 24.2422 274.599 24.2636C274.45 24.285 274.305 24.2582 274.166 24.1833C274.027 24.1084 273.925 24.0013 273.861 23.8622C273.807 23.723 273.823 23.5678 273.909 23.3966L275.129 21.0042C275.226 20.8008 275.354 20.6724 275.515 20.6189C275.675 20.5546 275.841 20.5439 276.012 20.5867C276.184 20.6296 276.328 20.7098 276.446 20.8276C276.574 20.9453 276.649 21.0898 276.671 21.2611C276.703 21.4217 276.66 21.5876 276.542 21.7588L274.985 24.0067ZM282.449 33.1587C281.989 33.1587 281.502 33.1105 280.988 33.0142C280.474 32.9178 280.014 32.7519 279.607 32.5164C279.436 32.4094 279.313 32.2863 279.238 32.1471C279.173 31.9973 279.147 31.8528 279.157 31.7136C279.179 31.5638 279.232 31.4353 279.318 31.3283C279.414 31.2212 279.532 31.1516 279.671 31.1195C279.821 31.0874 279.982 31.1142 280.153 31.1998C280.581 31.4032 280.982 31.5477 281.357 31.6333C281.732 31.7083 282.101 31.7457 282.465 31.7457C282.979 31.7457 283.359 31.6601 283.605 31.4888C283.862 31.3069 283.99 31.0714 283.99 30.7824C283.99 30.5362 283.905 30.3488 283.733 30.2204C283.573 30.0812 283.327 29.9796 282.995 29.9153L281.389 29.6103C280.725 29.4818 280.217 29.241 279.864 28.8877C279.521 28.5238 279.35 28.0582 279.35 27.4909C279.35 26.9771 279.489 26.5328 279.767 26.1582C280.056 25.7836 280.453 25.4946 280.956 25.2912C281.459 25.0878 282.037 24.9861 282.69 24.9861C283.161 24.9861 283.6 25.0396 284.006 25.1467C284.424 25.243 284.825 25.3982 285.21 25.6123C285.371 25.6979 285.478 25.8103 285.532 25.9495C285.596 26.0886 285.612 26.2331 285.58 26.383C285.548 26.5221 285.483 26.6506 285.387 26.7683C285.291 26.8754 285.168 26.945 285.018 26.9771C284.879 26.9985 284.718 26.9664 284.536 26.8807C284.204 26.7095 283.883 26.5864 283.573 26.5114C283.273 26.4365 282.984 26.399 282.706 26.399C282.181 26.399 281.791 26.49 281.534 26.672C281.287 26.854 281.164 27.0948 281.164 27.3945C281.164 27.6193 281.239 27.8066 281.389 27.9565C281.539 28.1063 281.769 28.208 282.08 28.2616L283.685 28.5666C284.381 28.6951 284.905 28.9306 285.259 29.2731C285.623 29.6156 285.805 30.0759 285.805 30.6539C285.805 31.4353 285.499 32.0508 284.889 32.5004C284.279 32.9392 283.466 33.1587 282.449 33.1587ZM294.792 33.1587C294.107 33.1587 293.502 32.9927 292.978 32.6609C292.464 32.3291 292.063 31.8581 291.774 31.248C291.485 30.6271 291.34 29.8993 291.34 29.0644C291.34 28.2187 291.485 27.4962 291.774 26.8968C292.063 26.2867 292.464 25.8157 292.978 25.4838C293.502 25.152 294.107 24.9861 294.792 24.9861C295.445 24.9861 296.012 25.1467 296.494 25.4678C296.987 25.7889 297.318 26.2117 297.49 26.7362H297.313V22.5616C297.313 22.2298 297.399 21.9783 297.57 21.807C297.741 21.6357 297.987 21.5501 298.308 21.5501C298.63 21.5501 298.876 21.6357 299.047 21.807C299.229 21.9783 299.32 22.2298 299.32 22.5616V32.099C299.32 32.4308 299.234 32.6877 299.063 32.8696C298.892 33.0409 298.646 33.1265 298.325 33.1265C298.003 33.1265 297.757 33.0409 297.586 32.8696C297.415 32.6877 297.329 32.4308 297.329 32.099V30.8466L297.506 31.3283C297.345 31.8849 297.019 32.3291 296.526 32.6609C296.034 32.9927 295.456 33.1587 294.792 33.1587ZM295.354 31.6333C295.75 31.6333 296.098 31.537 296.398 31.3443C296.698 31.1516 296.928 30.868 297.088 30.4933C297.259 30.108 297.345 29.6317 297.345 29.0644C297.345 28.208 297.163 27.5711 296.799 27.1537C296.435 26.7255 295.954 26.5114 295.354 26.5114C294.958 26.5114 294.61 26.6078 294.311 26.8004C294.011 26.9824 293.775 27.2661 293.604 27.6514C293.443 28.0261 293.363 28.497 293.363 29.0644C293.363 29.91 293.545 30.5522 293.909 30.9911C294.273 31.4192 294.755 31.6333 295.354 31.6333ZM305.271 33.1587C304.382 33.1587 303.617 32.9927 302.975 32.6609C302.332 32.3291 301.835 31.8581 301.481 31.248C301.139 30.6379 300.968 29.9153 300.968 29.0804C300.968 28.2669 301.133 27.5551 301.465 26.945C301.808 26.3348 302.273 25.8585 302.862 25.516C303.462 25.1627 304.141 24.9861 304.901 24.9861C305.458 24.9861 305.956 25.0771 306.394 25.2591C306.844 25.441 307.224 25.7033 307.534 26.0458C307.856 26.3883 308.096 26.8058 308.257 27.2982C308.428 27.7799 308.514 28.3258 308.514 28.9359C308.514 29.1286 308.444 29.2784 308.305 29.3855C308.177 29.4818 307.989 29.53 307.743 29.53H302.589V28.3739H307.101L306.844 28.6148C306.844 28.1224 306.769 27.7103 306.619 27.3785C306.48 27.0466 306.271 26.7951 305.993 26.6238C305.725 26.4419 305.388 26.3509 304.982 26.3509C304.532 26.3509 304.147 26.4579 303.825 26.672C303.515 26.8754 303.274 27.1697 303.103 27.5551C302.942 27.9297 302.862 28.3793 302.862 28.9038V29.0162C302.862 29.8939 303.066 30.5522 303.472 30.9911C303.89 31.4192 304.5 31.6333 305.303 31.6333C305.581 31.6333 305.891 31.6012 306.234 31.537C306.587 31.4621 306.919 31.339 307.229 31.1677C307.454 31.0393 307.652 30.9857 307.823 31.0071C307.995 31.0178 308.129 31.0767 308.225 31.1838C308.332 31.2908 308.396 31.4246 308.418 31.5852C308.439 31.735 308.407 31.8902 308.321 32.0508C308.246 32.2113 308.112 32.3505 307.92 32.4682C307.545 32.7037 307.112 32.8804 306.619 32.9981C306.138 33.1051 305.688 33.1587 305.271 33.1587ZM317.304 33.1587C316.651 33.1587 316.111 33.0409 315.683 32.8054C315.254 32.5592 314.933 32.1953 314.719 31.7136C314.516 31.2319 314.414 30.6325 314.414 29.9153V26.0298C314.414 25.6872 314.5 25.4357 314.671 25.2751C314.842 25.1039 315.088 25.0182 315.41 25.0182C315.731 25.0182 315.977 25.1039 316.148 25.2751C316.33 25.4357 316.421 25.6872 316.421 26.0298V29.9474C316.421 30.5041 316.534 30.9162 316.758 31.1838C316.983 31.4514 317.342 31.5852 317.834 31.5852C318.369 31.5852 318.808 31.4032 319.151 31.0393C319.493 30.6646 319.664 30.1722 319.664 29.5621V26.0298C319.664 25.6872 319.75 25.4357 319.921 25.2751C320.093 25.1039 320.339 25.0182 320.66 25.0182C320.981 25.0182 321.227 25.1039 321.398 25.2751C321.58 25.4357 321.671 25.6872 321.671 26.0298V32.099C321.671 32.784 321.345 33.1265 320.692 33.1265C320.382 33.1265 320.141 33.0409 319.97 32.8696C319.798 32.6877 319.713 32.4308 319.713 32.099V30.8787L319.937 31.3604C319.713 31.9384 319.37 32.3826 318.91 32.693C318.46 33.0034 317.925 33.1587 317.304 33.1587ZM324.756 33.1265C324.435 33.1265 324.189 33.0409 324.017 32.8696C323.846 32.6877 323.76 32.4308 323.76 32.099V26.0298C323.76 25.6979 323.846 25.4464 324.017 25.2751C324.189 25.1039 324.429 25.0182 324.74 25.0182C325.05 25.0182 325.291 25.1039 325.462 25.2751C325.634 25.4464 325.719 25.6979 325.719 26.0298V27.1216L325.543 26.7202C325.778 26.1529 326.142 25.7247 326.634 25.4357C327.138 25.136 327.705 24.9861 328.336 24.9861C328.968 24.9861 329.487 25.1039 329.894 25.3393C330.301 25.5748 330.606 25.9334 330.809 26.4151C331.012 26.8861 331.114 27.4855 331.114 28.2134V32.099C331.114 32.4308 331.028 32.6877 330.857 32.8696C330.686 33.0409 330.44 33.1265 330.119 33.1265C329.797 33.1265 329.546 33.0409 329.364 32.8696C329.193 32.6877 329.107 32.4308 329.107 32.099V28.3097C329.107 27.6996 328.989 27.2554 328.754 26.9771C328.529 26.6988 328.176 26.5596 327.694 26.5596C327.105 26.5596 326.634 26.7469 326.281 27.1216C325.939 27.4855 325.767 27.9725 325.767 28.5827V32.099C325.767 32.784 325.43 33.1265 324.756 33.1265ZM335.738 33.1587C335.17 33.1587 334.662 33.0516 334.212 32.8375C333.773 32.6128 333.426 32.313 333.169 31.9384C332.922 31.5638 332.799 31.1409 332.799 30.67C332.799 30.0919 332.949 29.637 333.249 29.3052C333.549 28.9627 334.036 28.7165 334.71 28.5666C335.384 28.4168 336.289 28.3418 337.423 28.3418H338.226V29.4979H337.44C336.776 29.4979 336.246 29.53 335.85 29.5942C335.454 29.6584 335.17 29.7708 334.999 29.9314C334.838 30.0812 334.758 30.2953 334.758 30.5736C334.758 30.9269 334.881 31.2159 335.127 31.4407C335.374 31.6654 335.716 31.7778 336.155 31.7778C336.508 31.7778 336.819 31.6976 337.086 31.537C337.365 31.3657 337.584 31.1356 337.745 30.8466C337.905 30.5576 337.985 30.2257 337.985 29.8511V28.0047C337.985 27.4695 337.868 27.0841 337.632 26.8486C337.397 26.6131 337.001 26.4954 336.444 26.4954C336.134 26.4954 335.796 26.5328 335.433 26.6078C335.079 26.6827 334.705 26.8112 334.309 26.9931C334.105 27.0895 333.923 27.1162 333.763 27.0734C333.613 27.0306 333.495 26.945 333.409 26.8165C333.324 26.6774 333.281 26.5275 333.281 26.3669C333.281 26.2064 333.324 26.0512 333.409 25.9013C333.495 25.7407 333.64 25.623 333.843 25.5481C334.335 25.3447 334.806 25.2002 335.256 25.1146C335.716 25.0289 336.134 24.9861 336.508 24.9861C337.279 24.9861 337.911 25.1039 338.403 25.3393C338.906 25.5748 339.281 25.9334 339.527 26.4151C339.773 26.8861 339.896 27.4962 339.896 28.2455V32.099C339.896 32.4308 339.816 32.6877 339.655 32.8696C339.495 33.0409 339.265 33.1265 338.965 33.1265C338.665 33.1265 338.43 33.0409 338.258 32.8696C338.098 32.6877 338.018 32.4308 338.018 32.099V31.3283H338.146C338.071 31.7029 337.921 32.0294 337.696 32.3077C337.482 32.5753 337.209 32.784 336.878 32.9339C336.546 33.0837 336.166 33.1587 335.738 33.1587ZM348.974 33.1587C348.085 33.1587 347.416 32.9071 346.967 32.404C346.517 31.8902 346.292 31.1409 346.292 30.1562V22.5616C346.292 22.2298 346.378 21.9783 346.549 21.807C346.72 21.6357 346.967 21.5501 347.288 21.5501C347.609 21.5501 347.855 21.6357 348.026 21.807C348.208 21.9783 348.299 22.2298 348.299 22.5616V30.0598C348.299 30.5522 348.401 30.9162 348.604 31.1516C348.818 31.3871 349.118 31.5049 349.503 31.5049C349.589 31.5049 349.669 31.5049 349.744 31.5049C349.819 31.4942 349.894 31.4835 349.969 31.4728C350.119 31.4514 350.221 31.4942 350.274 31.6012C350.328 31.6976 350.354 31.9009 350.354 32.2113C350.354 32.4789 350.301 32.6877 350.194 32.8375C350.087 32.9874 349.91 33.0784 349.664 33.1105C349.557 33.1212 349.445 33.1319 349.327 33.1426C349.209 33.1533 349.091 33.1587 348.974 33.1587ZM352.415 33.1105C352.094 33.1105 351.848 33.0142 351.676 32.8215C351.505 32.6288 351.419 32.3612 351.419 32.0187V26.1261C351.419 25.7729 351.505 25.5053 351.676 25.3233C351.848 25.1306 352.094 25.0343 352.415 25.0343C352.736 25.0343 352.982 25.1306 353.154 25.3233C353.336 25.5053 353.426 25.7729 353.426 26.1261V32.0187C353.426 32.3612 353.341 32.6288 353.17 32.8215C352.998 33.0142 352.747 33.1105 352.415 33.1105ZM353.17 24.0067C353.063 24.1565 352.934 24.2422 352.784 24.2636C352.634 24.285 352.49 24.2582 352.351 24.1833C352.212 24.1084 352.11 24.0013 352.046 23.8622C351.992 23.723 352.008 23.5678 352.094 23.3966L353.314 21.0042C353.41 20.8008 353.539 20.6724 353.699 20.6189C353.86 20.5546 354.026 20.5439 354.197 20.5867C354.368 20.6296 354.513 20.7098 354.631 20.8276C354.759 20.9453 354.834 21.0898 354.855 21.2611C354.888 21.4217 354.845 21.5876 354.727 21.7588L353.17 24.0067ZM356.507 33.1265C356.186 33.1265 355.94 33.0409 355.769 32.8696C355.598 32.6877 355.512 32.4308 355.512 32.099V26.0298C355.512 25.6979 355.598 25.4464 355.769 25.2751C355.94 25.1039 356.181 25.0182 356.491 25.0182C356.802 25.0182 357.043 25.1039 357.214 25.2751C357.385 25.4464 357.471 25.6979 357.471 26.0298V27.1216L357.294 26.7202C357.53 26.1529 357.894 25.7247 358.386 25.4357C358.889 25.136 359.456 24.9861 360.088 24.9861C360.719 24.9861 361.239 25.1039 361.645 25.3393C362.052 25.5748 362.357 25.9334 362.561 26.4151C362.764 26.8861 362.866 27.4855 362.866 28.2134V32.099C362.866 32.4308 362.78 32.6877 362.609 32.8696C362.437 33.0409 362.191 33.1265 361.87 33.1265C361.549 33.1265 361.297 33.0409 361.115 32.8696C360.944 32.6877 360.859 32.4308 360.859 32.099V28.3097C360.859 27.6996 360.741 27.2554 360.505 26.9771C360.281 26.6988 359.927 26.5596 359.446 26.5596C358.857 26.5596 358.386 26.7469 358.033 27.1216C357.69 27.4855 357.519 27.9725 357.519 28.5827V32.099C357.519 32.784 357.182 33.1265 356.507 33.1265ZM368.774 33.1587C367.885 33.1587 367.12 32.9927 366.478 32.6609C365.835 32.3291 365.338 31.8581 364.984 31.248C364.642 30.6379 364.471 29.9153 364.471 29.0804C364.471 28.2669 364.637 27.5551 364.968 26.945C365.311 26.3348 365.776 25.8585 366.365 25.516C366.965 25.1627 367.644 24.9861 368.404 24.9861C368.961 24.9861 369.459 25.0771 369.898 25.2591C370.347 25.441 370.727 25.7033 371.038 26.0458C371.359 26.3883 371.599 26.8058 371.76 27.2982C371.931 27.7799 372.017 28.3258 372.017 28.9359C372.017 29.1286 371.947 29.2784 371.808 29.3855C371.68 29.4818 371.492 29.53 371.246 29.53H366.092V28.3739H370.604L370.347 28.6148C370.347 28.1224 370.272 27.7103 370.122 27.3785C369.983 27.0466 369.774 26.7951 369.496 26.6238C369.229 26.4419 368.891 26.3509 368.485 26.3509C368.035 26.3509 367.65 26.4579 367.329 26.672C367.018 26.8754 366.777 27.1697 366.606 27.5551C366.445 27.9297 366.365 28.3793 366.365 28.9038V29.0162C366.365 29.8939 366.569 30.5522 366.975 30.9911C367.393 31.4192 368.003 31.6333 368.806 31.6333C369.084 31.6333 369.394 31.6012 369.737 31.537C370.09 31.4621 370.422 31.339 370.732 31.1677C370.957 31.0393 371.155 30.9857 371.327 31.0071C371.498 31.0178 371.632 31.0767 371.728 31.1838C371.835 31.2908 371.899 31.4246 371.921 31.5852C371.942 31.735 371.91 31.8902 371.824 32.0508C371.749 32.2113 371.616 32.3505 371.423 32.4682C371.048 32.7037 370.615 32.8804 370.122 32.9981C369.641 33.1051 369.191 33.1587 368.774 33.1587ZM376.191 33.1587C375.624 33.1587 375.116 33.0516 374.666 32.8375C374.227 32.6128 373.879 32.313 373.622 31.9384C373.376 31.5638 373.253 31.1409 373.253 30.67C373.253 30.0919 373.403 29.637 373.703 29.3052C374.002 28.9627 374.489 28.7165 375.164 28.5666C375.838 28.4168 376.743 28.3418 377.877 28.3418H378.68V29.4979H377.893C377.23 29.4979 376.7 29.53 376.304 29.5942C375.908 29.6584 375.624 29.7708 375.453 29.9314C375.292 30.0812 375.212 30.2953 375.212 30.5736C375.212 30.9269 375.335 31.2159 375.581 31.4407C375.827 31.6654 376.17 31.7778 376.609 31.7778C376.962 31.7778 377.273 31.6976 377.54 31.537C377.818 31.3657 378.038 31.1356 378.198 30.8466C378.359 30.5576 378.439 30.2257 378.439 29.8511V28.0047C378.439 27.4695 378.322 27.0841 378.086 26.8486C377.851 26.6131 377.454 26.4954 376.898 26.4954C376.587 26.4954 376.25 26.5328 375.886 26.6078C375.533 26.6827 375.158 26.8112 374.762 26.9931C374.559 27.0895 374.377 27.1162 374.217 27.0734C374.067 27.0306 373.949 26.945 373.863 26.8165C373.778 26.6774 373.735 26.5275 373.735 26.3669C373.735 26.2064 373.778 26.0512 373.863 25.9013C373.949 25.7407 374.093 25.623 374.297 25.5481C374.789 25.3447 375.26 25.2002 375.71 25.1146C376.17 25.0289 376.587 24.9861 376.962 24.9861C377.733 24.9861 378.364 25.1039 378.857 25.3393C379.36 25.5748 379.734 25.9334 379.981 26.4151C380.227 26.8861 380.35 27.4962 380.35 28.2455V32.099C380.35 32.4308 380.27 32.6877 380.109 32.8696C379.949 33.0409 379.718 33.1265 379.419 33.1265C379.119 33.1265 378.883 33.0409 378.712 32.8696C378.552 32.6877 378.471 32.4308 378.471 32.099V31.3283H378.6C378.525 31.7029 378.375 32.0294 378.15 32.3077C377.936 32.5753 377.663 32.784 377.331 32.9339C377 33.0837 376.62 33.1587 376.191 33.1587Z" fill="#007BC7"/>
<path d="M81.8755 34.5074H381.345V34.9569H81.8755V34.5074Z" fill="#007BC7"/>
<path d="M90.8608 52.4598C90.8608 53.547 90.6627 54.4558 90.2666 55.1865C89.8705 55.9127 89.2961 56.4606 88.5435 56.8304C87.7953 57.1957 86.8864 57.3783 85.8169 57.3783H83.1959V47.7262H86.1074C87.0889 47.7262 87.9339 47.9066 88.6425 48.2676C89.3511 48.6241 89.8969 49.1544 90.2798 49.8586C90.6671 50.5585 90.8608 51.4255 90.8608 52.4598ZM89.679 52.4994C89.679 51.6324 89.5338 50.9172 89.2433 50.3538C88.9572 49.7904 88.5347 49.3723 87.9757 49.0994C87.4212 48.8221 86.7412 48.6835 85.9357 48.6835H84.3182V56.4144H85.6848C87.014 56.4144 88.0109 56.0865 88.6755 55.4307C89.3445 54.7749 89.679 53.7978 89.679 52.4994ZM95.6275 50.0105C96.2436 50.0105 96.7718 50.1469 97.2119 50.4198C97.6521 50.6927 97.9888 51.0756 98.222 51.5686C98.4553 52.0571 98.572 52.6293 98.572 53.2851V53.9651H93.5742C93.5874 54.8145 93.7987 55.4615 94.208 55.9061C94.6173 56.3506 95.1939 56.5729 95.9378 56.5729C96.3955 56.5729 96.8004 56.5311 97.1525 56.4474C97.5046 56.3638 97.8699 56.2406 98.2485 56.0777V57.0416C97.8831 57.2045 97.52 57.3233 97.1591 57.3981C96.8026 57.473 96.3801 57.5104 95.8915 57.5104C95.1961 57.5104 94.5887 57.3695 94.0694 57.0878C93.5544 56.8017 93.1539 56.3836 92.8678 55.8335C92.5817 55.2833 92.4387 54.6099 92.4387 53.8132C92.4387 53.0342 92.5685 52.3608 92.8282 51.793C93.0923 51.2209 93.462 50.7807 93.9373 50.4726C94.4171 50.1645 94.9805 50.0105 95.6275 50.0105ZM95.6143 50.9084C95.0289 50.9084 94.5623 51.0998 94.2146 51.4827C93.8669 51.8656 93.6601 52.4004 93.594 53.087H97.4232C97.4188 52.6557 97.3506 52.2772 97.2185 51.9515C97.0909 51.6214 96.895 51.3661 96.631 51.1856C96.3669 51.0008 96.028 50.9084 95.6143 50.9084ZM105.115 55.3977C105.115 55.8599 104.998 56.2494 104.765 56.5663C104.536 56.8788 104.206 57.1142 103.774 57.2727C103.347 57.4311 102.837 57.5104 102.243 57.5104C101.737 57.5104 101.299 57.4708 100.929 57.3915C100.559 57.3123 100.236 57.2001 99.9584 57.0548V56.0447C100.253 56.19 100.605 56.322 101.015 56.4408C101.424 56.5597 101.842 56.6191 102.269 56.6191C102.894 56.6191 103.347 56.5179 103.629 56.3154C103.911 56.1129 104.052 55.8379 104.052 55.4902C104.052 55.2921 103.994 55.1182 103.88 54.9686C103.77 54.8145 103.583 54.6671 103.319 54.5263C103.055 54.381 102.689 54.2226 102.223 54.0509C101.761 53.8749 101.36 53.701 101.021 53.5294C100.687 53.3533 100.427 53.1398 100.242 52.889C100.062 52.6381 99.9716 52.3124 99.9716 51.9119C99.9716 51.3001 100.218 50.8313 100.711 50.5056C101.208 50.1755 101.86 50.0105 102.665 50.0105C103.101 50.0105 103.508 50.0545 103.887 50.1425C104.269 50.2261 104.626 50.3406 104.956 50.4858L104.586 51.3639C104.287 51.2363 103.968 51.1284 103.629 51.0404C103.29 50.9524 102.945 50.9084 102.593 50.9084C102.086 50.9084 101.697 50.992 101.424 51.1592C101.156 51.3265 101.021 51.5554 101.021 51.8458C101.021 52.0703 101.083 52.2552 101.206 52.4004C101.334 52.5457 101.536 52.6821 101.814 52.8097C102.091 52.9374 102.456 53.087 102.909 53.2587C103.363 53.4259 103.755 53.5998 104.085 53.7802C104.415 53.9563 104.668 54.1719 104.844 54.4272C105.024 54.6781 105.115 55.0016 105.115 55.3977ZM109.776 57.5104C109.124 57.5104 108.55 57.3761 108.052 57.1076C107.555 56.8392 107.168 56.4298 106.89 55.8797C106.613 55.3295 106.475 54.6363 106.475 53.8C106.475 52.9242 106.62 52.209 106.91 51.6544C107.205 51.0954 107.61 50.6817 108.125 50.4132C108.64 50.1447 109.225 50.0105 109.881 50.0105C110.242 50.0105 110.59 50.0479 110.924 50.1227C111.263 50.1931 111.54 50.2834 111.756 50.3934L111.426 51.3111C111.206 51.2231 110.951 51.1438 110.66 51.0734C110.374 51.003 110.106 50.9678 109.855 50.9678C109.353 50.9678 108.935 51.0756 108.6 51.2913C108.27 51.5069 108.022 51.8238 107.854 52.242C107.692 52.6601 107.61 53.175 107.61 53.7868C107.61 54.3722 107.689 54.8718 107.848 55.2855C108.011 55.6992 108.25 56.0161 108.567 56.2362C108.889 56.4518 109.289 56.5597 109.769 56.5597C110.152 56.5597 110.497 56.5201 110.805 56.4408C111.114 56.3572 111.393 56.2604 111.644 56.1504V57.1274C111.402 57.2507 111.131 57.3453 110.832 57.4113C110.537 57.4774 110.185 57.5104 109.776 57.5104ZM116.648 50.0105C116.793 50.0105 116.945 50.0193 117.104 50.0369C117.262 50.0501 117.403 50.0699 117.526 50.0963L117.388 51.113C117.269 51.0822 117.137 51.058 116.992 51.0404C116.846 51.0228 116.71 51.014 116.582 51.014C116.292 51.014 116.017 51.0734 115.757 51.1922C115.502 51.3067 115.277 51.4739 115.084 51.694C114.89 51.9097 114.738 52.1715 114.628 52.4796C114.518 52.7833 114.463 53.1222 114.463 53.4963V57.3783H113.36V50.1425H114.272L114.39 51.4761H114.437C114.586 51.2076 114.767 50.9634 114.978 50.7433C115.189 50.5188 115.433 50.3406 115.711 50.2085C115.992 50.0765 116.305 50.0105 116.648 50.0105ZM119.989 50.1425V57.3783H118.893V50.1425H119.989ZM119.454 47.4357C119.635 47.4357 119.789 47.4951 119.916 47.614C120.048 47.7284 120.114 47.9088 120.114 48.1553C120.114 48.3974 120.048 48.5778 119.916 48.6967C119.789 48.8155 119.635 48.8749 119.454 48.8749C119.265 48.8749 119.106 48.8155 118.979 48.6967C118.856 48.5778 118.794 48.3974 118.794 48.1553C118.794 47.9088 118.856 47.7284 118.979 47.614C119.106 47.4951 119.265 47.4357 119.454 47.4357ZM125.713 50.0105C126.615 50.0105 127.335 50.3208 127.872 50.9414C128.409 51.562 128.677 52.495 128.677 53.7406C128.677 54.5637 128.554 55.2547 128.307 55.8136C128.061 56.3726 127.713 56.7951 127.264 57.0812C126.82 57.3673 126.294 57.5104 125.686 57.5104C125.303 57.5104 124.967 57.4597 124.676 57.3585C124.386 57.2573 124.137 57.1208 123.93 56.9492C123.723 56.7775 123.552 56.5905 123.415 56.388H123.336C123.349 56.5597 123.365 56.7665 123.382 57.0086C123.404 57.2507 123.415 57.4619 123.415 57.6424V60.6133H122.313V50.1425H123.217L123.362 51.212H123.415C123.556 50.992 123.728 50.7917 123.93 50.6113C124.133 50.4264 124.379 50.2812 124.67 50.1755C124.965 50.0655 125.312 50.0105 125.713 50.0105ZM125.521 50.9348C125.02 50.9348 124.615 51.0316 124.307 51.2253C124.003 51.4189 123.781 51.7094 123.64 52.0967C123.499 52.4796 123.424 52.9616 123.415 53.5426V53.7538C123.415 54.3656 123.481 54.8828 123.613 55.3053C123.75 55.7278 123.972 56.0491 124.28 56.2692C124.593 56.4893 125.011 56.5993 125.535 56.5993C125.983 56.5993 126.358 56.4783 126.657 56.2362C126.956 55.9941 127.178 55.6574 127.324 55.2261C127.473 54.7903 127.548 54.2908 127.548 53.7274C127.548 52.8736 127.381 52.1957 127.046 51.694C126.716 51.1878 126.208 50.9348 125.521 50.9348ZM133.49 57.5104C132.839 57.5104 132.264 57.3761 131.767 57.1076C131.269 56.8392 130.882 56.4298 130.605 55.8797C130.328 55.3295 130.189 54.6363 130.189 53.8C130.189 52.9242 130.334 52.209 130.625 51.6544C130.92 51.0954 131.325 50.6817 131.839 50.4132C132.354 50.1447 132.94 50.0105 133.596 50.0105C133.957 50.0105 134.304 50.0479 134.639 50.1227C134.978 50.1931 135.255 50.2834 135.471 50.3934L135.14 51.3111C134.92 51.2231 134.665 51.1438 134.375 51.0734C134.089 51.003 133.82 50.9678 133.569 50.9678C133.067 50.9678 132.649 51.0756 132.315 51.2913C131.985 51.5069 131.736 51.8238 131.569 52.242C131.406 52.6601 131.325 53.175 131.325 53.7868C131.325 54.3722 131.404 54.8718 131.562 55.2855C131.725 55.6992 131.965 56.0161 132.282 56.2362C132.603 56.4518 133.004 56.5597 133.483 56.5597C133.866 56.5597 134.212 56.5201 134.52 56.4408C134.828 56.3572 135.107 56.2604 135.358 56.1504V57.1274C135.116 57.2507 134.846 57.3453 134.546 57.4113C134.251 57.4774 133.899 57.5104 133.49 57.5104ZM138.171 50.1425V57.3783H137.075V50.1425H138.171ZM137.636 47.4357C137.816 47.4357 137.971 47.4951 138.098 47.614C138.23 47.7284 138.296 47.9088 138.296 48.1553C138.296 48.3974 138.23 48.5778 138.098 48.6967C137.971 48.8155 137.816 48.8749 137.636 48.8749C137.447 48.8749 137.288 48.8155 137.161 48.6967C137.037 48.5778 136.976 48.3974 136.976 48.1553C136.976 47.9088 137.037 47.7284 137.161 47.614C137.288 47.4951 137.447 47.4357 137.636 47.4357ZM146.734 53.7472C146.734 54.3414 146.657 54.8718 146.503 55.3383C146.348 55.8048 146.126 56.1988 145.836 56.5201C145.545 56.8414 145.193 57.0878 144.779 57.2595C144.37 57.4267 143.906 57.5104 143.386 57.5104C142.902 57.5104 142.458 57.4267 142.053 57.2595C141.652 57.0878 141.305 56.8414 141.01 56.5201C140.719 56.1988 140.493 55.8048 140.33 55.3383C140.171 54.8718 140.092 54.3414 140.092 53.7472C140.092 52.955 140.226 52.2816 140.495 51.727C140.763 51.168 141.146 50.7433 141.643 50.4528C142.145 50.1579 142.742 50.0105 143.433 50.0105C144.093 50.0105 144.669 50.1579 145.162 50.4528C145.66 50.7477 146.045 51.1746 146.318 51.7336C146.595 52.2882 146.734 52.9594 146.734 53.7472ZM141.228 53.7472C141.228 54.3282 141.305 54.8322 141.459 55.2591C141.613 55.686 141.85 56.0161 142.172 56.2494C142.493 56.4827 142.907 56.5993 143.413 56.5993C143.915 56.5993 144.326 56.4827 144.647 56.2494C144.973 56.0161 145.213 55.686 145.367 55.2591C145.521 54.8322 145.598 54.3282 145.598 53.7472C145.598 53.1706 145.521 52.6733 145.367 52.2552C145.213 51.8326 144.975 51.5069 144.654 51.2781C144.333 51.0492 143.917 50.9348 143.406 50.9348C142.654 50.9348 142.101 51.1834 141.749 51.6808C141.401 52.1781 141.228 52.867 141.228 53.7472ZM145.327 47.0198V47.1518C145.239 47.2795 145.118 47.4335 144.964 47.614C144.815 47.79 144.647 47.9771 144.463 48.1751C144.278 48.3688 144.091 48.5536 143.901 48.7297C143.716 48.9057 143.545 49.0576 143.386 49.1852H142.654V49.0268C142.794 48.8595 142.948 48.6593 143.116 48.426C143.283 48.1883 143.446 47.9463 143.604 47.6998C143.763 47.4489 143.895 47.2222 144 47.0198H145.327ZM152.055 50.0105C152.913 50.0105 153.562 50.2217 154.002 50.6443C154.443 51.0624 154.663 51.7358 154.663 52.6645V57.3783H153.58V52.7371C153.58 52.1341 153.441 51.683 153.164 51.3837C152.891 51.0844 152.471 50.9348 151.903 50.9348C151.102 50.9348 150.539 51.1614 150.213 51.6148C149.887 52.0681 149.724 52.7261 149.724 53.5888V57.3783H148.628V50.1425H149.513L149.678 51.1856H149.738C149.892 50.9304 150.087 50.7169 150.325 50.5452C150.563 50.3692 150.829 50.2372 151.124 50.1491C151.419 50.0567 151.729 50.0105 152.055 50.0105ZM163.008 57.5104C162.092 57.5104 161.366 57.1979 160.829 56.5729C160.296 55.9479 160.03 55.0192 160.03 53.7868C160.03 52.5413 160.303 51.6016 160.849 50.9678C161.394 50.3296 162.121 50.0105 163.027 50.0105C163.41 50.0105 163.745 50.0611 164.031 50.1623C164.317 50.2636 164.563 50.4 164.77 50.5717C164.977 50.7389 165.151 50.9304 165.292 51.146H165.371C165.353 51.0096 165.336 50.8225 165.318 50.5849C165.301 50.3472 165.292 50.1535 165.292 50.0039V47.1056H166.388V57.3783H165.503L165.338 56.3484H165.292C165.155 56.5641 164.982 56.7599 164.77 56.936C164.563 57.112 164.315 57.2529 164.024 57.3585C163.738 57.4597 163.399 57.5104 163.008 57.5104ZM163.179 56.5993C163.954 56.5993 164.502 56.3792 164.823 55.9391C165.144 55.499 165.305 54.8454 165.305 53.9783V53.7802C165.305 52.8604 165.151 52.1539 164.843 51.661C164.539 51.168 163.985 50.9216 163.179 50.9216C162.506 50.9216 162.002 51.1812 161.667 51.7006C161.333 52.2156 161.166 52.9198 161.166 53.8132C161.166 54.7023 161.331 55.3889 161.661 55.8731C161.995 56.3572 162.501 56.5993 163.179 56.5993ZM171.498 50.0105C172.114 50.0105 172.642 50.1469 173.082 50.4198C173.522 50.6927 173.859 51.0756 174.092 51.5686C174.326 52.0571 174.442 52.6293 174.442 53.2851V53.9651H169.445C169.458 54.8145 169.669 55.4615 170.078 55.9061C170.488 56.3506 171.064 56.5729 171.808 56.5729C172.266 56.5729 172.671 56.5311 173.023 56.4474C173.375 56.3638 173.74 56.2406 174.119 56.0777V57.0416C173.753 57.2045 173.39 57.3233 173.029 57.3981C172.673 57.473 172.25 57.5104 171.762 57.5104C171.066 57.5104 170.459 57.3695 169.94 57.0878C169.425 56.8017 169.024 56.3836 168.738 55.8335C168.452 55.2833 168.309 54.6099 168.309 53.8132C168.309 53.0342 168.439 52.3608 168.698 51.793C168.963 51.2209 169.332 50.7807 169.808 50.4726C170.287 50.1645 170.851 50.0105 171.498 50.0105ZM171.485 50.9084C170.899 50.9084 170.433 51.0998 170.085 51.4827C169.737 51.8656 169.53 52.4004 169.464 53.087H173.293C173.289 52.6557 173.221 52.2772 173.089 51.9515C172.961 51.6214 172.765 51.3661 172.501 51.1856C172.237 51.0008 171.898 50.9084 171.485 50.9084ZM180.919 57.3783H179.816V47.1056H180.919V57.3783ZM185.943 50.0237C186.806 50.0237 187.446 50.2173 187.864 50.6047C188.282 50.992 188.491 51.6104 188.491 52.4598V57.3783H187.692L187.481 56.3088H187.428C187.226 56.5729 187.015 56.7951 186.795 56.9756C186.575 57.1517 186.319 57.2859 186.029 57.3783C185.743 57.4664 185.391 57.5104 184.972 57.5104C184.532 57.5104 184.141 57.4333 183.797 57.2793C183.458 57.1252 183.19 56.892 182.992 56.5795C182.798 56.267 182.701 55.8709 182.701 55.3911C182.701 54.6693 182.987 54.1147 183.56 53.7274C184.132 53.3401 185.003 53.1288 186.174 53.0936L187.422 53.0408V52.5985C187.422 51.9735 187.288 51.5355 187.019 51.2847C186.751 51.0338 186.372 50.9084 185.884 50.9084C185.505 50.9084 185.144 50.9634 184.801 51.0734C184.457 51.1834 184.132 51.3133 183.824 51.4629L183.487 50.6311C183.813 50.4638 184.187 50.3208 184.609 50.2019C185.032 50.0831 185.476 50.0237 185.943 50.0237ZM187.409 53.8132L186.306 53.8595C185.404 53.8947 184.768 54.0421 184.398 54.3018C184.028 54.5615 183.843 54.929 183.843 55.4043C183.843 55.818 183.969 56.1239 184.22 56.322C184.471 56.5201 184.803 56.6191 185.217 56.6191C185.859 56.6191 186.385 56.4408 186.795 56.0843C187.204 55.7278 187.409 55.1931 187.409 54.48V53.8132ZM196.599 56.6125C196.779 56.6125 196.964 56.5971 197.153 56.5663C197.342 56.5355 197.496 56.4981 197.615 56.454V57.3057C197.488 57.3629 197.309 57.4113 197.081 57.4509C196.856 57.4906 196.636 57.5104 196.42 57.5104C196.037 57.5104 195.69 57.4443 195.377 57.3123C195.065 57.1759 194.814 56.947 194.625 56.6257C194.44 56.3044 194.347 55.8599 194.347 55.2921V51.0008H193.317V50.466L194.354 50.0369L194.79 48.4656H195.45V50.1425H197.569V51.0008H195.45V55.2591C195.45 55.7124 195.553 56.0513 195.76 56.2758C195.971 56.5003 196.251 56.6125 196.599 56.6125ZM201.788 50.0237C202.65 50.0237 203.291 50.2173 203.709 50.6047C204.127 50.992 204.336 51.6104 204.336 52.4598V57.3783H203.537L203.326 56.3088H203.273C203.071 56.5729 202.859 56.7951 202.639 56.9756C202.419 57.1517 202.164 57.2859 201.874 57.3783C201.587 57.4664 201.235 57.5104 200.817 57.5104C200.377 57.5104 199.985 57.4333 199.642 57.2793C199.303 57.1252 199.035 56.892 198.837 56.5795C198.643 56.267 198.546 55.8709 198.546 55.3911C198.546 54.6693 198.832 54.1147 199.404 53.7274C199.977 53.3401 200.848 53.1288 202.019 53.0936L203.267 53.0408V52.5985C203.267 51.9735 203.132 51.5355 202.864 51.2847C202.595 51.0338 202.217 50.9084 201.728 50.9084C201.35 50.9084 200.989 50.9634 200.646 51.0734C200.302 51.1834 199.977 51.3133 199.668 51.4629L199.332 50.6311C199.657 50.4638 200.032 50.3208 200.454 50.2019C200.877 50.0831 201.321 50.0237 201.788 50.0237ZM203.253 53.8132L202.151 53.8595C201.249 53.8947 200.613 54.0421 200.243 54.3018C199.873 54.5615 199.688 54.929 199.688 55.4043C199.688 55.818 199.814 56.1239 200.065 56.322C200.315 56.5201 200.648 56.6191 201.062 56.6191C201.704 56.6191 202.23 56.4408 202.639 56.0843C203.049 55.7278 203.253 55.1931 203.253 54.48V53.8132ZM209.882 50.0105C210.027 50.0105 210.179 50.0193 210.337 50.0369C210.496 50.0501 210.637 50.0699 210.76 50.0963L210.621 51.113C210.502 51.0822 210.37 51.058 210.225 51.0404C210.08 51.0228 209.943 51.014 209.816 51.014C209.525 51.014 209.25 51.0734 208.991 51.1922C208.735 51.3067 208.511 51.4739 208.317 51.694C208.123 51.9097 207.972 52.1715 207.862 52.4796C207.752 52.7833 207.697 53.1222 207.697 53.4963V57.3783H206.594V50.1425H207.505L207.624 51.4761H207.67C207.82 51.2076 208 50.9634 208.211 50.7433C208.423 50.5188 208.667 50.3406 208.944 50.2085C209.226 50.0765 209.538 50.0105 209.882 50.0105ZM211.255 60.6265C211.031 60.6265 210.835 60.6089 210.667 60.5737C210.5 60.5429 210.355 60.5055 210.232 60.4615V59.5702C210.368 59.6142 210.507 59.6472 210.648 59.6692C210.788 59.6956 210.947 59.7088 211.123 59.7088C211.422 59.7088 211.664 59.6252 211.849 59.458C212.034 59.2907 212.126 58.987 212.126 58.5469V50.1425H213.222V58.5205C213.222 58.9606 213.152 59.3369 213.011 59.6494C212.87 59.9663 212.655 60.2084 212.364 60.3756C212.074 60.5429 211.704 60.6265 211.255 60.6265ZM212.027 48.1553C212.027 47.9088 212.089 47.7284 212.212 47.614C212.34 47.4951 212.498 47.4357 212.688 47.4357C212.868 47.4357 213.022 47.4951 213.15 47.614C213.282 47.7284 213.348 47.9088 213.348 48.1553C213.348 48.3974 213.282 48.5778 213.15 48.6967C213.022 48.8155 212.868 48.8749 212.688 48.8749C212.498 48.8749 212.34 48.8155 212.212 48.6967C212.089 48.5778 212.027 48.3974 212.027 48.1553ZM218.332 50.0105C218.949 50.0105 219.477 50.1469 219.917 50.4198C220.357 50.6927 220.694 51.0756 220.927 51.5686C221.16 52.0571 221.277 52.6293 221.277 53.2851V53.9651H216.279C216.292 54.8145 216.504 55.4615 216.913 55.9061C217.322 56.3506 217.899 56.5729 218.643 56.5729C219.1 56.5729 219.505 56.5311 219.857 56.4474C220.21 56.3638 220.575 56.2406 220.953 56.0777V57.0416C220.588 57.2045 220.225 57.3233 219.864 57.3981C219.508 57.473 219.085 57.5104 218.596 57.5104C217.901 57.5104 217.294 57.3695 216.774 57.0878C216.259 56.8017 215.859 56.3836 215.573 55.8335C215.287 55.2833 215.144 54.6099 215.144 53.8132C215.144 53.0342 215.273 52.3608 215.533 51.793C215.797 51.2209 216.167 50.7807 216.642 50.4726C217.122 50.1645 217.685 50.0105 218.332 50.0105ZM218.319 50.9084C217.734 50.9084 217.267 51.0998 216.92 51.4827C216.572 51.8656 216.365 52.4004 216.299 53.087H220.128C220.124 52.6557 220.055 52.2772 219.923 51.9515C219.796 51.6214 219.6 51.3661 219.336 51.1856C219.072 51.0008 218.733 50.9084 218.319 50.9084ZM225.476 56.6125C225.656 56.6125 225.841 56.5971 226.03 56.5663C226.22 56.5355 226.374 56.4981 226.492 56.454V57.3057C226.365 57.3629 226.187 57.4113 225.958 57.4509C225.733 57.4906 225.513 57.5104 225.297 57.5104C224.915 57.5104 224.567 57.4443 224.254 57.3123C223.942 57.1759 223.691 56.947 223.502 56.6257C223.317 56.3044 223.224 55.8599 223.224 55.2921V51.0008H222.195V50.466L223.231 50.0369L223.667 48.4656H224.327V50.1425H226.446V51.0008H224.327V55.2591C224.327 55.7124 224.43 56.0513 224.637 56.2758C224.849 56.5003 225.128 56.6125 225.476 56.6125ZM230.665 50.0237C231.528 50.0237 232.168 50.2173 232.586 50.6047C233.004 50.992 233.213 51.6104 233.213 52.4598V57.3783H232.414L232.203 56.3088H232.15C231.948 56.5729 231.737 56.7951 231.517 56.9756C231.297 57.1517 231.041 57.2859 230.751 57.3783C230.465 57.4664 230.113 57.5104 229.694 57.5104C229.254 57.5104 228.863 57.4333 228.519 57.2793C228.18 57.1252 227.912 56.892 227.714 56.5795C227.52 56.267 227.423 55.8709 227.423 55.3911C227.423 54.6693 227.709 54.1147 228.282 53.7274C228.854 53.3401 229.725 53.1288 230.896 53.0936L232.144 53.0408V52.5985C232.144 51.9735 232.01 51.5355 231.741 51.2847C231.473 51.0338 231.094 50.9084 230.606 50.9084C230.227 50.9084 229.866 50.9634 229.523 51.0734C229.179 51.1834 228.854 51.3133 228.546 51.4629L228.209 50.6311C228.535 50.4638 228.909 50.3208 229.331 50.2019C229.754 50.0831 230.198 50.0237 230.665 50.0237ZM232.131 53.8132L231.028 53.8595C230.126 53.8947 229.49 54.0421 229.12 54.3018C228.75 54.5615 228.565 54.929 228.565 55.4043C228.565 55.818 228.691 56.1239 228.942 56.322C229.193 56.5201 229.525 56.6191 229.939 56.6191C230.581 56.6191 231.107 56.4408 231.517 56.0843C231.926 55.7278 232.131 55.1931 232.131 54.48V53.8132Z" fill="#38485C"/>
</svg>
