<svg width="446" height="109" viewBox="0 0 446 109" fill="none" xmlns="http://www.w3.org/2000/svg">
<rect width="444.5" height="108.167" transform="translate(0.75)" fill="white"/>
<path fill-rule="evenodd" clip-rule="evenodd" d="M95.4598 94.9926H14.3132V94.2157H95.4598V94.9926Z" fill="#38485C"/>
<path d="M38.8198 58.6892C38.8198 55.6259 41.3127 53.133 44.3761 53.133H66.8335V39.8022C66.8335 36.7389 69.3264 34.246 72.3897 34.246H88.2768C91.3401 34.246 93.833 36.7389 93.833 39.8022V93.1676L38.8198 93.2732V58.6892Z" fill="#FDD204"/>
<path d="M88.2768 35.5558C90.6218 35.5558 92.5443 37.4571 92.5443 39.8233V91.8999L40.1297 92.0056V87.7592V58.6892C40.1297 56.3442 42.031 54.4217 44.3972 54.4217H65.5659H68.1433V51.8231V39.8022C68.1433 37.4571 70.0447 35.5346 72.4108 35.5346H88.2768M88.2768 32.9572H72.3897C68.6292 32.9572 65.5447 36.0417 65.5447 39.8022V51.8231H44.3761C40.6156 51.8231 37.5311 54.9076 37.5311 58.6681V87.7169V94.5619L95.1217 94.4562V39.8233C95.1217 36.0417 92.0373 32.9572 88.2768 32.9572Z" fill="white"/>
<path d="M92.5232 86.2803H40.1508V94.6464H92.5232V86.2803Z" fill="#FDD204"/>
<path fill-rule="evenodd" clip-rule="evenodd" d="M72.3897 33.3668C68.8437 33.3668 65.9332 36.2774 65.9332 39.8234V52.2327H44.3761C40.8301 52.2327 37.9195 55.1433 37.9195 58.6893V94.1939L94.7333 94.0897V39.8234C94.7333 36.2774 91.8228 33.3668 88.2768 33.3668H72.3897ZM65.1563 39.8234C65.1563 35.8483 68.4147 32.59 72.3897 32.59H88.2768C92.2518 32.59 95.5102 35.8483 95.5102 39.8234V94.8652L37.1427 94.9722V58.6893C37.1427 54.7142 40.401 51.4559 44.3761 51.4559H65.1563V39.8234Z" fill="#38485C"/>
<path d="M78.1361 52.2246C77.2065 52.2246 76.446 51.464 76.446 50.5345V45.1261C76.446 44.1965 77.2065 43.436 78.1361 43.436H83.0797C84.0092 43.436 84.7698 44.1965 84.7698 45.1261V50.5345C84.7698 51.464 84.0092 52.2246 83.0797 52.2246H78.1361Z" fill="white"/>
<path d="M83.0797 43.8373C83.798 43.8373 84.3684 44.4078 84.3684 45.1261V50.5344C84.3684 51.2527 83.798 51.8231 83.0797 51.8231H78.1361C77.4178 51.8231 76.8474 51.2527 76.8474 50.5344V45.1261C76.8474 44.4078 77.4178 43.8373 78.1361 43.8373H83.0797ZM83.0797 43.0557H78.1361C76.9953 43.0557 76.0657 43.9852 76.0657 45.1261V50.5344C76.0657 51.6752 76.9953 52.6048 78.1361 52.6048H83.0797C84.2205 52.6048 85.1501 51.6752 85.1501 50.5344V45.1261C85.1501 43.9852 84.2205 43.0557 83.0797 43.0557Z" fill="#38485C"/>
<path d="M78.1361 70.0341C77.2065 70.0341 76.446 69.2736 76.446 68.344V62.9568C76.446 62.0272 77.2065 61.2667 78.1361 61.2667H83.0797C84.0092 61.2667 84.7698 62.0272 84.7698 62.9568V68.3651C84.7698 69.2947 84.0092 70.0553 83.0797 70.0553H78.1361V70.0341Z" fill="white"/>
<path d="M83.0797 61.647C83.798 61.647 84.3684 62.2174 84.3684 62.9357V68.344C84.3684 69.0623 83.798 69.6328 83.0797 69.6328H78.1361C77.4178 69.6328 76.8474 69.0623 76.8474 68.344V62.9568C76.8474 62.2385 77.4178 61.6681 78.1361 61.6681H83.0797M83.0797 60.8864H78.1361C76.9953 60.8864 76.0657 61.816 76.0657 62.9568V68.3652C76.0657 69.506 76.9953 70.4356 78.1361 70.4356H83.0797C84.2205 70.4356 85.1501 69.506 85.1501 68.3652V62.9568C85.1501 61.7948 84.2205 60.8864 83.0797 60.8864Z" fill="#38485C"/>
<path d="M64.2772 70.0341C63.3476 70.0341 62.587 69.2736 62.587 68.344V62.9568C62.587 62.0272 63.3476 61.2667 64.2772 61.2667H69.2207C70.1503 61.2667 70.9109 62.0272 70.9109 62.9568V68.3651C70.9109 69.2947 70.1503 70.0553 69.2207 70.0553H64.2772V70.0341Z" fill="white"/>
<path d="M69.2207 61.647C69.939 61.647 70.5095 62.2174 70.5095 62.9357V68.344C70.5095 69.0623 69.939 69.6328 69.2207 69.6328H64.2772C63.5589 69.6328 62.9885 69.0623 62.9885 68.344V62.9568C62.9885 62.2385 63.5589 61.6681 64.2772 61.6681H69.2207M69.2207 60.8864H64.2772C63.1363 60.8864 62.2068 61.816 62.2068 62.9568V68.3652C62.2068 69.506 63.1363 70.4356 64.2772 70.4356H69.2207C70.3616 70.4356 71.2911 69.506 71.2911 68.3652V62.9568C71.2911 61.7948 70.3827 60.8864 69.2207 60.8864Z" fill="#38485C"/>
<path d="M50.4394 70.0341C49.5098 70.0341 48.7492 69.2736 48.7492 68.344V62.9568C48.7492 62.0272 49.5098 61.2667 50.4394 61.2667H55.3829C56.3125 61.2667 57.0731 62.0272 57.0731 62.9568V68.3651C57.0731 69.2947 56.3125 70.0553 55.3829 70.0553H50.4394V70.0341Z" fill="white"/>
<path d="M55.3829 61.647C56.1012 61.647 56.6716 62.2174 56.6716 62.9357V68.344C56.6716 69.0623 56.1012 69.6328 55.3829 69.6328H50.4394C49.7211 69.6328 49.1506 69.0623 49.1506 68.344V62.9568C49.1506 62.2385 49.7211 61.6681 50.4394 61.6681H55.3829M55.3829 60.8864H50.4394C49.2985 60.8864 48.369 61.816 48.369 62.9568V68.3652C48.369 69.506 49.2985 70.4356 50.4394 70.4356H55.3829C56.5238 70.4356 57.4533 69.506 57.4533 68.3652V62.9568C57.4533 61.7948 56.5238 60.8864 55.3829 60.8864Z" fill="#38485C"/>
<path d="M64.2772 87.8648C63.3476 87.8648 62.587 87.1043 62.587 86.1747V80.7663C62.587 79.8368 63.3476 79.0762 64.2772 79.0762H69.2207C70.1503 79.0762 70.9109 79.8368 70.9109 80.7663V86.1747C70.9109 87.1043 70.1503 87.8648 69.2207 87.8648H64.2772Z" fill="white"/>
<path d="M69.2207 79.4776C69.939 79.4776 70.5095 80.048 70.5095 80.7663V86.1747C70.5095 86.893 69.939 87.4634 69.2207 87.4634H64.2772C63.5589 87.4634 62.9885 86.893 62.9885 86.1747V80.7663C62.9885 80.048 63.5589 79.4776 64.2772 79.4776H69.2207ZM69.2207 78.6959H64.2772C63.1363 78.6959 62.2068 79.6255 62.2068 80.7663V86.1747C62.2068 87.3155 63.1363 88.2451 64.2772 88.2451H69.2207C70.3616 88.2451 71.2911 87.3155 71.2911 86.1747V80.7663C71.2911 79.6255 70.3827 78.6959 69.2207 78.6959Z" fill="#38485C"/>
<path d="M50.4394 87.8648C49.5098 87.8648 48.7492 87.1043 48.7492 86.1747V80.7663C48.7492 79.8368 49.5098 79.0762 50.4394 79.0762H55.3829C56.3125 79.0762 57.0731 79.8368 57.0731 80.7663V86.1747C57.0731 87.1043 56.3125 87.8648 55.3829 87.8648H50.4394Z" fill="white"/>
<path d="M55.3829 79.4776C56.1012 79.4776 56.6716 80.048 56.6716 80.7663V86.1747C56.6716 86.893 56.1012 87.4634 55.3829 87.4634H50.4394C49.7211 87.4634 49.1506 86.893 49.1506 86.1747V80.7663C49.1506 80.048 49.7211 79.4776 50.4394 79.4776H55.3829ZM55.3829 78.6959H50.4394C49.2985 78.6959 48.369 79.6255 48.369 80.7663V86.1747C48.369 87.3155 49.2985 88.2451 50.4394 88.2451H55.3829C56.5238 88.2451 57.4533 87.3155 57.4533 86.1747V80.7663C57.4533 79.6255 56.5238 78.6959 55.3829 78.6959Z" fill="#38485C"/>
<path d="M78.1361 87.8648C77.2065 87.8648 76.446 87.1043 76.446 86.1747V80.7663C76.446 79.8368 77.2065 79.0762 78.1361 79.0762H83.0797C84.0092 79.0762 84.7698 79.8368 84.7698 80.7663V86.1747C84.7698 87.1043 84.0092 87.8648 83.0797 87.8648H78.1361Z" fill="white"/>
<path d="M83.0797 79.4776C83.798 79.4776 84.3684 80.048 84.3684 80.7663V86.1747C84.3684 86.893 83.798 87.4634 83.0797 87.4634H78.1361C77.4178 87.4634 76.8474 86.893 76.8474 86.1747V80.7663C76.8474 80.048 77.4178 79.4776 78.1361 79.4776H83.0797ZM83.0797 78.6959H78.1361C76.9953 78.6959 76.0657 79.6255 76.0657 80.7663V86.1747C76.0657 87.3155 76.9953 88.2451 78.1361 88.2451H83.0797C84.2205 88.2451 85.1501 87.3155 85.1501 86.1747V80.7663C85.1501 79.6255 84.2205 78.6959 83.0797 78.6959Z" fill="#38485C"/>
<path d="M30.2425 48.6964C38.9233 48.6964 45.9606 41.6592 45.9606 32.9783C45.9606 24.2975 38.9233 17.2603 30.2425 17.2603C21.5616 17.2603 14.5244 24.2975 14.5244 32.9783C14.5244 41.6592 21.5616 48.6964 30.2425 48.6964Z" fill="#FDD204"/>
<path d="M30.2425 17.8519C38.5874 17.8519 45.369 24.6335 45.369 32.9784C45.369 41.3233 38.5874 48.1049 30.2425 48.1049C21.8976 48.1049 15.116 41.3022 15.116 32.9784C15.116 24.6335 21.8976 17.8519 30.2425 17.8519ZM30.2425 17.0702C21.4539 17.0702 14.3343 24.1898 14.3343 32.9784C14.3343 41.767 21.4539 48.8866 30.2425 48.8866C39.0311 48.8866 46.1507 41.767 46.1507 32.9784C46.1296 24.1898 39.01 17.0702 30.2425 17.0702Z" fill="#38485C"/>
<path fill-rule="evenodd" clip-rule="evenodd" d="M30.2425 29.1041C30.457 29.1041 30.6309 29.278 30.6309 29.4925V94.3929C30.6309 94.6074 30.457 94.7813 30.2425 94.7813C30.028 94.7813 29.854 94.6074 29.854 94.3929V29.4925C29.854 29.278 30.028 29.1041 30.2425 29.1041Z" fill="#38485C"/>
<path fill-rule="evenodd" clip-rule="evenodd" d="M24.1827 29.8058C24.3363 29.6561 24.5822 29.6592 24.732 29.8129L30.4573 35.686C30.607 35.8396 30.6039 36.0855 30.4503 36.2353C30.2966 36.385 30.0507 36.3819 29.901 36.2283L24.1757 30.3551C24.026 30.2015 24.0291 29.9556 24.1827 29.8058Z" fill="#38485C"/>
<path fill-rule="evenodd" clip-rule="evenodd" d="M36.5884 32.3954C36.747 32.5398 36.7585 32.7855 36.6141 32.9441L30.5931 39.5567C30.4486 39.7153 30.203 39.7268 30.0443 39.5824C29.8857 39.4379 29.8742 39.1922 30.0187 39.0336L36.0397 32.4211C36.1841 32.2624 36.4298 32.2509 36.5884 32.3954Z" fill="#38485C"/>
<path d="M134.192 36.522C133.86 36.522 133.603 36.431 133.421 36.249C133.25 36.0564 133.165 35.7941 133.165 35.4623V26.792H130.034C129.755 26.792 129.536 26.7171 129.375 26.5672C129.225 26.4067 129.151 26.1926 129.151 25.925C129.151 25.6467 129.225 25.438 129.375 25.2988C129.536 25.1489 129.755 25.074 130.034 25.074H138.351C138.629 25.074 138.843 25.1489 138.993 25.2988C139.153 25.438 139.234 25.6467 139.234 25.925C139.234 26.1926 139.153 26.4067 138.993 26.5672C138.843 26.7171 138.629 26.792 138.351 26.792H135.22V35.4623C135.22 35.7941 135.134 36.0564 134.963 36.249C134.792 36.431 134.535 36.522 134.192 36.522ZM142.088 36.5059C141.767 36.5059 141.521 36.4096 141.35 36.2169C141.178 36.0243 141.093 35.7567 141.093 35.4141V29.5216C141.093 29.1683 141.178 28.9007 141.35 28.7187C141.521 28.5261 141.767 28.4297 142.088 28.4297C142.409 28.4297 142.656 28.5261 142.827 28.7187C143.009 28.9007 143.1 29.1683 143.1 29.5216V35.4141C143.1 35.7567 143.014 36.0243 142.843 36.2169C142.672 36.4096 142.42 36.5059 142.088 36.5059ZM142.843 27.4021C142.736 27.552 142.607 27.6376 142.457 27.659C142.308 27.6805 142.163 27.6537 142.024 27.5788C141.885 27.5038 141.783 27.3968 141.719 27.2576C141.665 27.1185 141.681 26.9633 141.767 26.792L142.987 24.3997C143.084 24.1963 143.212 24.0678 143.373 24.0143C143.533 23.9501 143.699 23.9394 143.87 23.9822C144.042 24.025 144.186 24.1053 144.304 24.223C144.432 24.3408 144.507 24.4853 144.529 24.6566C144.561 24.8171 144.518 24.983 144.4 25.1543L142.843 27.4021ZM148.782 36.5541C148.086 36.5541 147.503 36.4364 147.032 36.2009C146.571 35.9654 146.229 35.6229 146.004 35.1733C145.779 34.713 145.667 34.1457 145.667 33.4713V30.0514H144.832C144.575 30.0514 144.377 29.9872 144.238 29.8587C144.099 29.7196 144.029 29.5323 144.029 29.2968C144.029 29.0506 144.099 28.8633 144.238 28.7348C144.377 28.6064 144.575 28.5421 144.832 28.5421H145.667V27.081C145.667 26.7492 145.752 26.4977 145.924 26.3264C146.106 26.1551 146.357 26.0695 146.678 26.0695C146.999 26.0695 147.246 26.1551 147.417 26.3264C147.588 26.4977 147.674 26.7492 147.674 27.081V28.5421H149.376C149.633 28.5421 149.831 28.6064 149.97 28.7348C150.109 28.8633 150.179 29.0506 150.179 29.2968C150.179 29.5323 150.109 29.7196 149.97 29.8587C149.831 29.9872 149.633 30.0514 149.376 30.0514H147.674V33.359C147.674 33.8727 147.786 34.2581 148.011 34.515C148.236 34.7719 148.6 34.9003 149.103 34.9003C149.285 34.9003 149.445 34.8843 149.585 34.8522C149.724 34.8201 149.847 34.7987 149.954 34.7879C150.082 34.7772 150.189 34.8201 150.275 34.9164C150.361 35.002 150.403 35.184 150.403 35.4623C150.403 35.6764 150.366 35.8691 150.291 36.0403C150.227 36.2009 150.104 36.3133 149.922 36.3775C149.783 36.4203 149.601 36.4578 149.376 36.4899C149.151 36.5327 148.953 36.5541 148.782 36.5541ZM154.189 36.5541C153.536 36.5541 152.996 36.4364 152.568 36.2009C152.139 35.9547 151.818 35.5908 151.604 35.1091C151.401 34.6274 151.299 34.028 151.299 33.3108V29.4252C151.299 29.0827 151.385 28.8311 151.556 28.6706C151.727 28.4993 151.973 28.4137 152.295 28.4137C152.616 28.4137 152.862 28.4993 153.033 28.6706C153.215 28.8311 153.306 29.0827 153.306 29.4252V33.3429C153.306 33.8995 153.419 34.3116 153.643 34.5792C153.868 34.8468 154.227 34.9806 154.719 34.9806C155.254 34.9806 155.693 34.7987 156.036 34.4347C156.378 34.0601 156.549 33.5677 156.549 32.9576V29.4252C156.549 29.0827 156.635 28.8311 156.806 28.6706C156.978 28.4993 157.224 28.4137 157.545 28.4137C157.866 28.4137 158.112 28.4993 158.284 28.6706C158.465 28.8311 158.556 29.0827 158.556 29.4252V35.4944C158.556 36.1795 158.23 36.522 157.577 36.522C157.267 36.522 157.026 36.4364 156.855 36.2651C156.683 36.0831 156.598 35.8262 156.598 35.4944V34.2742L156.822 34.7558C156.598 35.3339 156.255 35.7781 155.795 36.0885C155.345 36.3989 154.81 36.5541 154.189 36.5541ZM163.327 36.5541C162.438 36.5541 161.769 36.3026 161.32 35.7995C160.87 35.2857 160.645 34.5364 160.645 33.5516V25.9571C160.645 25.6253 160.731 25.3737 160.902 25.2025C161.074 25.0312 161.32 24.9456 161.641 24.9456C161.962 24.9456 162.208 25.0312 162.379 25.2025C162.561 25.3737 162.652 25.6253 162.652 25.9571V33.4553C162.652 33.9477 162.754 34.3116 162.957 34.5471C163.172 34.7826 163.471 34.9003 163.857 34.9003C163.942 34.9003 164.023 34.9003 164.097 34.9003C164.172 34.8896 164.247 34.8789 164.322 34.8682C164.472 34.8468 164.574 34.8896 164.627 34.9967C164.681 35.093 164.708 35.2964 164.708 35.6068C164.708 35.8744 164.654 36.0831 164.547 36.233C164.44 36.3829 164.263 36.4738 164.017 36.5059C163.91 36.5167 163.798 36.5274 163.68 36.5381C163.562 36.5488 163.445 36.5541 163.327 36.5541ZM169.275 36.5541C168.461 36.5541 167.755 36.3882 167.155 36.0564C166.556 35.7246 166.09 35.2536 165.759 34.6434C165.427 34.0226 165.261 33.2947 165.261 32.4598C165.261 31.8283 165.352 31.2663 165.534 30.7739C165.726 30.2708 165.999 29.8427 166.353 29.4894C166.706 29.1255 167.129 28.8525 167.621 28.6706C168.113 28.4779 168.665 28.3816 169.275 28.3816C170.088 28.3816 170.795 28.5475 171.394 28.8793C171.994 29.2111 172.459 29.6821 172.791 30.2922C173.123 30.9024 173.289 31.6249 173.289 32.4598C173.289 33.0914 173.192 33.6587 173 34.1618C172.818 34.6648 172.55 35.0984 172.197 35.4623C171.844 35.8155 171.421 36.0885 170.929 36.2812C170.436 36.4631 169.885 36.5541 169.275 36.5541ZM169.275 35.0288C169.671 35.0288 170.019 34.9325 170.318 34.7398C170.618 34.5471 170.848 34.2634 171.009 33.8888C171.18 33.5035 171.266 33.0271 171.266 32.4598C171.266 31.6035 171.084 30.9666 170.72 30.5491C170.356 30.121 169.874 29.9069 169.275 29.9069C168.879 29.9069 168.531 30.0032 168.231 30.1959C167.931 30.3779 167.696 30.6615 167.525 31.0469C167.364 31.4215 167.284 31.8925 167.284 32.4598C167.284 33.3054 167.466 33.9477 167.83 34.3865C168.194 34.8147 168.675 35.0288 169.275 35.0288ZM182.323 36.5541C181.638 36.5541 181.033 36.3882 180.509 36.0564C179.995 35.7246 179.593 35.2536 179.304 34.6434C179.015 34.0226 178.871 33.2947 178.871 32.4598C178.871 31.6142 179.015 30.8917 179.304 30.2922C179.593 29.6821 179.995 29.2111 180.509 28.8793C181.033 28.5475 181.638 28.3816 182.323 28.3816C182.976 28.3816 183.543 28.5421 184.025 28.8633C184.517 29.1844 184.849 29.6072 185.02 30.1317H184.844V25.9571C184.844 25.6253 184.929 25.3737 185.101 25.2025C185.272 25.0312 185.518 24.9456 185.839 24.9456C186.16 24.9456 186.406 25.0312 186.578 25.2025C186.76 25.3737 186.851 25.6253 186.851 25.9571V35.4944C186.851 35.8262 186.765 36.0831 186.594 36.2651C186.423 36.4364 186.176 36.522 185.855 36.522C185.534 36.522 185.288 36.4364 185.117 36.2651C184.945 36.0831 184.86 35.8262 184.86 35.4944V34.242L185.036 34.7237C184.876 35.2803 184.549 35.7246 184.057 36.0564C183.565 36.3882 182.987 36.5541 182.323 36.5541ZM182.885 35.0288C183.281 35.0288 183.629 34.9325 183.928 34.7398C184.228 34.5471 184.458 34.2634 184.619 33.8888C184.79 33.5035 184.876 33.0271 184.876 32.4598C184.876 31.6035 184.694 30.9666 184.33 30.5491C183.966 30.121 183.484 29.9069 182.885 29.9069C182.489 29.9069 182.141 30.0032 181.841 30.1959C181.541 30.3779 181.306 30.6615 181.135 31.0469C180.974 31.4215 180.894 31.8925 180.894 32.4598C180.894 33.3054 181.076 33.9477 181.44 34.3865C181.804 34.8147 182.285 35.0288 182.885 35.0288ZM192.801 36.5541C191.913 36.5541 191.147 36.3882 190.505 36.0564C189.863 35.7246 189.365 35.2536 189.012 34.6434C188.669 34.0333 188.498 33.3108 188.498 32.4759C188.498 31.6624 188.664 30.9505 188.996 30.3404C189.338 29.7303 189.804 29.2539 190.393 28.9114C190.992 28.5582 191.672 28.3816 192.432 28.3816C192.989 28.3816 193.486 28.4726 193.925 28.6545C194.375 28.8365 194.755 29.0987 195.065 29.4413C195.386 29.7838 195.627 30.2013 195.788 30.6936C195.959 31.1753 196.045 31.7212 196.045 32.3314C196.045 32.524 195.975 32.6739 195.836 32.7809C195.707 32.8773 195.52 32.9254 195.274 32.9254H190.12V31.7694H194.632L194.375 32.0102C194.375 31.5179 194.3 31.1058 194.15 30.7739C194.011 30.4421 193.802 30.1906 193.524 30.0193C193.256 29.8373 192.919 29.7463 192.512 29.7463C192.063 29.7463 191.677 29.8534 191.356 30.0675C191.046 30.2708 190.805 30.5652 190.634 30.9505C190.473 31.3252 190.393 31.7748 190.393 32.2993V32.4116C190.393 33.2894 190.596 33.9477 191.003 34.3865C191.42 34.8147 192.031 35.0288 192.833 35.0288C193.112 35.0288 193.422 34.9967 193.765 34.9325C194.118 34.8575 194.45 34.7344 194.76 34.5632C194.985 34.4347 195.183 34.3812 195.354 34.4026C195.525 34.4133 195.659 34.4722 195.756 34.5792C195.863 34.6863 195.927 34.8201 195.948 34.9806C195.97 35.1305 195.938 35.2857 195.852 35.4462C195.777 35.6068 195.643 35.746 195.45 35.8637C195.076 36.0992 194.642 36.2758 194.15 36.3936C193.668 36.5006 193.219 36.5541 192.801 36.5541ZM204.674 36.5541C203.786 36.5541 203.117 36.3026 202.667 35.7995C202.218 35.2857 201.993 34.5364 201.993 33.5516V25.9571C201.993 25.6253 202.079 25.3737 202.25 25.2025C202.421 25.0312 202.667 24.9456 202.988 24.9456C203.31 24.9456 203.556 25.0312 203.727 25.2025C203.909 25.3737 204 25.6253 204 25.9571V33.4553C204 33.9477 204.102 34.3116 204.305 34.5471C204.519 34.7826 204.819 34.9003 205.204 34.9003C205.29 34.9003 205.37 34.9003 205.445 34.9003C205.52 34.8896 205.595 34.8789 205.67 34.8682C205.82 34.8468 205.921 34.8896 205.975 34.9967C206.028 35.093 206.055 35.2964 206.055 35.6068C206.055 35.8744 206.002 36.0831 205.895 36.233C205.788 36.3829 205.611 36.4738 205.365 36.5059C205.258 36.5167 205.145 36.5274 205.028 36.5381C204.91 36.5488 204.792 36.5541 204.674 36.5541ZM209.705 36.5541C209.138 36.5541 208.63 36.4471 208.18 36.233C207.741 36.0082 207.393 35.7085 207.136 35.3339C206.89 34.9592 206.767 34.5364 206.767 34.0654C206.767 33.4874 206.917 33.0325 207.217 32.7007C207.516 32.3581 208.003 32.1119 208.678 31.9621C209.352 31.8122 210.257 31.7373 211.391 31.7373H212.194V32.8933H211.407C210.744 32.8933 210.214 32.9254 209.818 32.9897C209.422 33.0539 209.138 33.1663 208.967 33.3268C208.806 33.4767 208.726 33.6908 208.726 33.9691C208.726 34.3223 208.849 34.6113 209.095 34.8361C209.341 35.0609 209.684 35.1733 210.123 35.1733C210.476 35.1733 210.786 35.093 211.054 34.9325C211.332 34.7612 211.552 34.531 211.712 34.242C211.873 33.953 211.953 33.6212 211.953 33.2466V31.4001C211.953 30.8649 211.835 30.4796 211.6 30.2441C211.364 30.0086 210.968 29.8908 210.412 29.8908C210.101 29.8908 209.764 29.9283 209.4 30.0032C209.047 30.0782 208.672 30.2066 208.276 30.3886C208.073 30.4849 207.891 30.5117 207.73 30.4689C207.581 30.426 207.463 30.3404 207.377 30.212C207.292 30.0728 207.249 29.923 207.249 29.7624C207.249 29.6018 207.292 29.4466 207.377 29.2968C207.463 29.1362 207.607 29.0185 207.811 28.9435C208.303 28.7402 208.774 28.5956 209.224 28.51C209.684 28.4244 210.101 28.3816 210.476 28.3816C211.247 28.3816 211.878 28.4993 212.371 28.7348C212.874 28.9703 213.248 29.3289 213.495 29.8106C213.741 30.2815 213.864 30.8917 213.864 31.641V35.4944C213.864 35.8262 213.784 36.0831 213.623 36.2651C213.462 36.4364 213.232 36.522 212.933 36.522C212.633 36.522 212.397 36.4364 212.226 36.2651C212.066 36.0831 211.985 35.8262 211.985 35.4944V34.7237H212.114C212.039 35.0984 211.889 35.4248 211.664 35.7031C211.45 35.9707 211.177 36.1795 210.845 36.3293C210.513 36.4792 210.133 36.5541 209.705 36.5541ZM223.856 36.5541C223.161 36.5541 222.577 36.4364 222.106 36.2009C221.646 35.9654 221.304 35.6229 221.079 35.1733C220.854 34.713 220.742 34.1457 220.742 33.4713V30.0514H219.907C219.65 30.0514 219.452 29.9872 219.313 29.8587C219.173 29.7196 219.104 29.5323 219.104 29.2968C219.104 29.0506 219.173 28.8633 219.313 28.7348C219.452 28.6064 219.65 28.5421 219.907 28.5421H220.742V27.081C220.742 26.7492 220.827 26.4977 220.998 26.3264C221.18 26.1551 221.432 26.0695 221.753 26.0695C222.074 26.0695 222.32 26.1551 222.492 26.3264C222.663 26.4977 222.749 26.7492 222.749 27.081V28.5421H224.451C224.707 28.5421 224.905 28.6064 225.045 28.7348C225.184 28.8633 225.253 29.0506 225.253 29.2968C225.253 29.5323 225.184 29.7196 225.045 29.8587C224.905 29.9872 224.707 30.0514 224.451 30.0514H222.749V33.359C222.749 33.8727 222.861 34.2581 223.086 34.515C223.311 34.7719 223.674 34.9003 224.178 34.9003C224.36 34.9003 224.52 34.8843 224.659 34.8522C224.798 34.8201 224.922 34.7987 225.029 34.7879C225.157 34.7772 225.264 34.8201 225.35 34.9164C225.435 35.002 225.478 35.184 225.478 35.4623C225.478 35.6764 225.441 35.8691 225.366 36.0403C225.301 36.2009 225.178 36.3133 224.996 36.3775C224.857 36.4203 224.675 36.4578 224.451 36.4899C224.226 36.5327 224.028 36.5541 223.856 36.5541ZM229.007 36.5541C228.44 36.5541 227.931 36.4471 227.482 36.233C227.043 36.0082 226.695 35.7085 226.438 35.3339C226.192 34.9592 226.069 34.5364 226.069 34.0654C226.069 33.4874 226.219 33.0325 226.518 32.7007C226.818 32.3581 227.305 32.1119 227.979 31.9621C228.654 31.8122 229.558 31.7373 230.693 31.7373H231.496V32.8933H230.709C230.045 32.8933 229.516 32.9254 229.119 32.9897C228.723 33.0539 228.44 33.1663 228.268 33.3268C228.108 33.4767 228.028 33.6908 228.028 33.9691C228.028 34.3223 228.151 34.6113 228.397 34.8361C228.643 35.0609 228.986 35.1733 229.425 35.1733C229.778 35.1733 230.088 35.093 230.356 34.9325C230.634 34.7612 230.854 34.531 231.014 34.242C231.175 33.953 231.255 33.6212 231.255 33.2466V31.4001C231.255 30.8649 231.137 30.4796 230.902 30.2441C230.666 30.0086 230.27 29.8908 229.714 29.8908C229.403 29.8908 229.066 29.9283 228.702 30.0032C228.349 30.0782 227.974 30.2066 227.578 30.3886C227.375 30.4849 227.193 30.5117 227.032 30.4689C226.882 30.426 226.765 30.3404 226.679 30.212C226.593 30.0728 226.55 29.923 226.55 29.7624C226.55 29.6018 226.593 29.4466 226.679 29.2968C226.765 29.1362 226.909 29.0185 227.112 28.9435C227.605 28.7402 228.076 28.5956 228.525 28.51C228.986 28.4244 229.403 28.3816 229.778 28.3816C230.548 28.3816 231.18 28.4993 231.672 28.7348C232.175 28.9703 232.55 29.3289 232.796 29.8106C233.042 30.2815 233.166 30.8917 233.166 31.641V35.4944C233.166 35.8262 233.085 36.0831 232.925 36.2651C232.764 36.4364 232.534 36.522 232.234 36.522C231.935 36.522 231.699 36.4364 231.528 36.2651C231.367 36.0831 231.287 35.8262 231.287 35.4944V34.7237H231.415C231.341 35.0984 231.191 35.4248 230.966 35.7031C230.752 35.9707 230.479 36.1795 230.147 36.3293C229.815 36.4792 229.435 36.5541 229.007 36.5541ZM236.23 36.522C235.898 36.522 235.642 36.4364 235.46 36.2651C235.288 36.0831 235.203 35.8262 235.203 35.4944V29.4252C235.203 29.0934 235.288 28.8418 235.46 28.6706C235.631 28.4993 235.872 28.4137 236.182 28.4137C236.493 28.4137 236.733 28.4993 236.905 28.6706C237.076 28.8418 237.162 29.0934 237.162 29.4252V30.4367H237.001C237.151 29.7945 237.445 29.3075 237.884 28.9756C238.323 28.6438 238.906 28.4458 239.634 28.3816C239.859 28.3602 240.036 28.419 240.164 28.5582C240.303 28.6866 240.383 28.89 240.405 29.1683C240.426 29.4359 240.362 29.6554 240.212 29.8266C240.073 29.9872 239.859 30.0835 239.57 30.1156L239.217 30.1477C238.564 30.212 238.071 30.4153 237.74 30.7579C237.408 31.0897 237.242 31.5607 237.242 32.1708V35.4944C237.242 35.8262 237.156 36.0831 236.985 36.2651C236.814 36.4364 236.562 36.522 236.23 36.522ZM240.527 39.4282C240.291 39.4496 240.099 39.4121 239.949 39.3158C239.799 39.2301 239.697 39.1177 239.644 38.9786C239.58 38.8394 239.558 38.6949 239.58 38.5451C239.601 38.3952 239.665 38.2614 239.772 38.1437C239.869 38.0366 240.002 37.9778 240.174 37.9671C240.655 37.9242 241.003 37.7851 241.217 37.5496C241.442 37.3248 241.555 36.9769 241.555 36.5059V29.4252C241.555 29.0934 241.64 28.8418 241.811 28.6706C241.993 28.4993 242.245 28.4137 242.566 28.4137C242.887 28.4137 243.133 28.4993 243.305 28.6706C243.476 28.8418 243.562 29.0934 243.562 29.4252V36.3293C243.562 37.0144 243.449 37.5764 243.224 38.0152C243.01 38.4541 242.678 38.7859 242.229 39.0107C241.79 39.2355 241.223 39.3746 240.527 39.4282ZM242.55 26.9365C242.175 26.9365 241.881 26.8455 241.667 26.6636C241.464 26.4709 241.362 26.2086 241.362 25.8768C241.362 25.5343 241.464 25.272 241.667 25.0901C241.881 24.9081 242.175 24.8171 242.55 24.8171C242.935 24.8171 243.23 24.9081 243.433 25.0901C243.636 25.272 243.738 25.5343 243.738 25.8768C243.738 26.2086 243.636 26.4709 243.433 26.6636C243.23 26.8455 242.935 26.9365 242.55 26.9365ZM249.515 36.5541C248.627 36.5541 247.861 36.3882 247.219 36.0564C246.577 35.7246 246.079 35.2536 245.726 34.6434C245.383 34.0333 245.212 33.3108 245.212 32.4759C245.212 31.6624 245.378 30.9505 245.71 30.3404C246.052 29.7303 246.518 29.2539 247.107 28.9114C247.706 28.5582 248.386 28.3816 249.146 28.3816C249.702 28.3816 250.2 28.4726 250.639 28.6545C251.088 28.8365 251.468 29.0987 251.779 29.4413C252.1 29.7838 252.341 30.2013 252.501 30.6936C252.673 31.1753 252.758 31.7212 252.758 32.3314C252.758 32.524 252.689 32.6739 252.55 32.7809C252.421 32.8773 252.234 32.9254 251.988 32.9254H246.834V31.7694H251.345L251.088 32.0102C251.088 31.5179 251.014 31.1058 250.864 30.7739C250.725 30.4421 250.516 30.1906 250.237 30.0193C249.97 29.8373 249.633 29.7463 249.226 29.7463C248.776 29.7463 248.391 29.8534 248.07 30.0675C247.759 30.2708 247.519 30.5652 247.347 30.9505C247.187 31.3252 247.107 31.7748 247.107 32.2993V32.4116C247.107 33.2894 247.31 33.9477 247.717 34.3865C248.134 34.8147 248.744 35.0288 249.547 35.0288C249.825 35.0288 250.136 34.9967 250.478 34.9325C250.832 34.8575 251.163 34.7344 251.474 34.5632C251.699 34.4347 251.897 34.3812 252.068 34.4026C252.239 34.4133 252.373 34.4722 252.469 34.5792C252.576 34.6863 252.641 34.8201 252.662 34.9806C252.683 35.1305 252.651 35.2857 252.566 35.4462C252.491 35.6068 252.357 35.746 252.164 35.8637C251.79 36.0992 251.356 36.2758 250.864 36.3936C250.382 36.5006 249.932 36.5541 249.515 36.5541ZM257.913 36.5541C257.217 36.5541 256.634 36.4364 256.163 36.2009C255.703 35.9654 255.36 35.6229 255.135 35.1733C254.91 34.713 254.798 34.1457 254.798 33.4713V30.0514H253.963C253.706 30.0514 253.508 29.9872 253.369 29.8587C253.23 29.7196 253.16 29.5323 253.16 29.2968C253.16 29.0506 253.23 28.8633 253.369 28.7348C253.508 28.6064 253.706 28.5421 253.963 28.5421H254.798V27.081C254.798 26.7492 254.884 26.4977 255.055 26.3264C255.237 26.1551 255.488 26.0695 255.81 26.0695C256.131 26.0695 256.377 26.1551 256.548 26.3264C256.719 26.4977 256.805 26.7492 256.805 27.081V28.5421H258.507C258.764 28.5421 258.962 28.6064 259.101 28.7348C259.24 28.8633 259.31 29.0506 259.31 29.2968C259.31 29.5323 259.24 29.7196 259.101 29.8587C258.962 29.9872 258.764 30.0514 258.507 30.0514H256.805V33.359C256.805 33.8727 256.917 34.2581 257.142 34.515C257.367 34.7719 257.731 34.9003 258.234 34.9003C258.416 34.9003 258.577 34.8843 258.716 34.8522C258.855 34.8201 258.978 34.7987 259.085 34.7879C259.213 34.7772 259.32 34.8201 259.406 34.9164C259.492 35.002 259.535 35.184 259.535 35.4623C259.535 35.6764 259.497 35.8691 259.422 36.0403C259.358 36.2009 259.235 36.3133 259.053 36.3775C258.914 36.4203 258.732 36.4578 258.507 36.4899C258.282 36.5327 258.084 36.5541 257.913 36.5541ZM263.064 36.5541C262.496 36.5541 261.988 36.4471 261.538 36.233C261.099 36.0082 260.751 35.7085 260.495 35.3339C260.248 34.9592 260.125 34.5364 260.125 34.0654C260.125 33.4874 260.275 33.0325 260.575 32.7007C260.875 32.3581 261.362 32.1119 262.036 31.9621C262.71 31.8122 263.615 31.7373 264.749 31.7373H265.552V32.8933H264.765C264.102 32.8933 263.572 32.9254 263.176 32.9897C262.78 33.0539 262.496 33.1663 262.325 33.3268C262.164 33.4767 262.084 33.6908 262.084 33.9691C262.084 34.3223 262.207 34.6113 262.453 34.8361C262.7 35.0609 263.042 35.1733 263.481 35.1733C263.834 35.1733 264.145 35.093 264.412 34.9325C264.691 34.7612 264.91 34.531 265.071 34.242C265.231 33.953 265.311 33.6212 265.311 33.2466V31.4001C265.311 30.8649 265.194 30.4796 264.958 30.2441C264.723 30.0086 264.327 29.8908 263.77 29.8908C263.46 29.8908 263.122 29.9283 262.758 30.0032C262.405 30.0782 262.031 30.2066 261.635 30.3886C261.431 30.4849 261.249 30.5117 261.089 30.4689C260.939 30.426 260.821 30.3404 260.735 30.212C260.65 30.0728 260.607 29.923 260.607 29.7624C260.607 29.6018 260.65 29.4466 260.735 29.2968C260.821 29.1362 260.966 29.0185 261.169 28.9435C261.661 28.7402 262.132 28.5956 262.582 28.51C263.042 28.4244 263.46 28.3816 263.834 28.3816C264.605 28.3816 265.236 28.4993 265.729 28.7348C266.232 28.9703 266.607 29.3289 266.853 29.8106C267.099 30.2815 267.222 30.8917 267.222 31.641V35.4944C267.222 35.8262 267.142 36.0831 266.981 36.2651C266.821 36.4364 266.591 36.522 266.291 36.522C265.991 36.522 265.756 36.4364 265.584 36.2651C265.424 36.0831 265.343 35.8262 265.343 35.4944V34.7237H265.472C265.397 35.0984 265.247 35.4248 265.022 35.7031C264.808 35.9707 264.535 36.1795 264.204 36.3293C263.872 36.4792 263.492 36.5541 263.064 36.5541ZM277.247 36.5541C276.423 36.5541 275.705 36.3882 275.095 36.0564C274.485 35.7138 274.014 35.2322 273.682 34.6113C273.351 33.9905 273.185 33.2626 273.185 32.4277C273.185 31.7962 273.276 31.2342 273.458 30.7418C273.65 30.2387 273.923 29.8159 274.276 29.4734C274.63 29.1201 275.058 28.8525 275.561 28.6706C276.064 28.4779 276.626 28.3816 277.247 28.3816C277.6 28.3816 277.98 28.4297 278.387 28.5261C278.804 28.6224 279.195 28.783 279.559 29.0078C279.73 29.1148 279.843 29.2432 279.896 29.3931C279.95 29.543 279.96 29.6982 279.928 29.8587C279.896 30.0086 279.826 30.1424 279.719 30.2601C279.623 30.3672 279.5 30.4367 279.35 30.4689C279.2 30.4903 279.034 30.4528 278.852 30.3565C278.617 30.2173 278.376 30.1156 278.13 30.0514C277.884 29.9765 277.648 29.939 277.423 29.939C277.07 29.939 276.76 29.9979 276.492 30.1156C276.225 30.2227 275.994 30.3832 275.802 30.5973C275.62 30.8007 275.481 31.0576 275.384 31.368C275.288 31.6784 275.24 32.037 275.24 32.4438C275.24 33.2359 275.427 33.862 275.802 34.3223C276.187 34.7719 276.728 34.9967 277.423 34.9967C277.648 34.9967 277.878 34.9646 278.114 34.9003C278.36 34.8361 278.606 34.7344 278.852 34.5953C279.034 34.4989 279.195 34.4668 279.334 34.4989C279.484 34.531 279.607 34.606 279.703 34.7237C279.8 34.8308 279.859 34.9646 279.88 35.1251C279.901 35.275 279.88 35.4248 279.816 35.5747C279.762 35.7246 279.655 35.8476 279.495 35.944C279.141 36.1581 278.767 36.3133 278.371 36.4096C277.975 36.5059 277.6 36.5541 277.247 36.5541ZM284.615 36.5541C283.802 36.5541 283.095 36.3882 282.496 36.0564C281.896 35.7246 281.431 35.2536 281.099 34.6434C280.767 34.0226 280.601 33.2947 280.601 32.4598C280.601 31.8283 280.692 31.2663 280.874 30.7739C281.067 30.2708 281.34 29.8427 281.693 29.4894C282.046 29.1255 282.469 28.8525 282.961 28.6706C283.454 28.4779 284.005 28.3816 284.615 28.3816C285.429 28.3816 286.135 28.5475 286.735 28.8793C287.334 29.2111 287.8 29.6821 288.131 30.2922C288.463 30.9024 288.629 31.6249 288.629 32.4598C288.629 33.0914 288.533 33.6587 288.34 34.1618C288.158 34.6648 287.891 35.0984 287.537 35.4623C287.184 35.8155 286.761 36.0885 286.269 36.2812C285.777 36.4631 285.225 36.5541 284.615 36.5541ZM284.615 35.0288C285.011 35.0288 285.359 34.9325 285.659 34.7398C285.959 34.5471 286.189 34.2634 286.349 33.8888C286.521 33.5035 286.606 33.0271 286.606 32.4598C286.606 31.6035 286.424 30.9666 286.06 30.5491C285.696 30.121 285.215 29.9069 284.615 29.9069C284.219 29.9069 283.871 30.0032 283.572 30.1959C283.272 30.3779 283.036 30.6615 282.865 31.0469C282.705 31.4215 282.624 31.8925 282.624 32.4598C282.624 33.3054 282.806 33.9477 283.17 34.3865C283.534 34.8147 284.016 35.0288 284.615 35.0288ZM291.281 36.522C290.96 36.522 290.714 36.4364 290.543 36.2651C290.371 36.0831 290.286 35.8262 290.286 35.4944V29.4252C290.286 29.0934 290.371 28.8418 290.543 28.6706C290.714 28.4993 290.955 28.4137 291.265 28.4137C291.576 28.4137 291.816 28.4993 291.988 28.6706C292.159 28.8418 292.245 29.0934 292.245 29.4252V30.517L292.068 30.1156C292.303 29.5483 292.667 29.1201 293.16 28.8311C293.663 28.5314 294.23 28.3816 294.862 28.3816C295.493 28.3816 296.012 28.4993 296.419 28.7348C296.826 28.9703 297.131 29.3289 297.334 29.8106C297.538 30.2815 297.639 30.881 297.639 31.6088V35.4944C297.639 35.8262 297.554 36.0831 297.383 36.2651C297.211 36.4364 296.965 36.522 296.644 36.522C296.323 36.522 296.071 36.4364 295.889 36.2651C295.718 36.0831 295.632 35.8262 295.632 35.4944V31.7052C295.632 31.095 295.515 30.6508 295.279 30.3725C295.054 30.0942 294.701 29.9551 294.219 29.9551C293.631 29.9551 293.16 30.1424 292.807 30.517C292.464 30.881 292.293 31.368 292.293 31.9781V35.4944C292.293 36.1795 291.956 36.522 291.281 36.522ZM305.064 36.522C304.743 36.522 304.497 36.4364 304.326 36.2651C304.155 36.0831 304.069 35.8262 304.069 35.4944V29.4252C304.069 29.0934 304.155 28.8418 304.326 28.6706C304.497 28.4993 304.738 28.4137 305.048 28.4137C305.359 28.4137 305.6 28.4993 305.771 28.6706C305.942 28.8418 306.028 29.0934 306.028 29.4252V30.5973L305.851 30.1156C306.065 29.5804 306.397 29.1576 306.847 28.8472C307.296 28.5368 307.831 28.3816 308.452 28.3816C309.084 28.3816 309.603 28.5314 310.01 28.8311C310.417 29.1309 310.7 29.5911 310.861 30.212H310.636C310.85 29.6446 311.203 29.2004 311.696 28.8793C312.188 28.5475 312.755 28.3816 313.398 28.3816C313.997 28.3816 314.489 28.4993 314.875 28.7348C315.271 28.9703 315.565 29.3289 315.758 29.8106C315.951 30.2815 316.047 30.881 316.047 31.6088V35.4944C316.047 35.8262 315.956 36.0831 315.774 36.2651C315.603 36.4364 315.356 36.522 315.035 36.522C314.714 36.522 314.468 36.4364 314.297 36.2651C314.125 36.0831 314.04 35.8262 314.04 35.4944V31.6891C314.04 31.0897 313.938 30.6508 313.735 30.3725C313.542 30.0942 313.21 29.9551 312.739 29.9551C312.215 29.9551 311.803 30.1424 311.503 30.517C311.203 30.881 311.053 31.3894 311.053 32.0424V35.4944C311.053 35.8262 310.968 36.0831 310.797 36.2651C310.625 36.4364 310.379 36.522 310.058 36.522C309.737 36.522 309.485 36.4364 309.303 36.2651C309.132 36.0831 309.046 35.8262 309.046 35.4944V31.6891C309.046 31.0897 308.945 30.6508 308.741 30.3725C308.549 30.0942 308.222 29.9551 307.762 29.9551C307.237 29.9551 306.825 30.1424 306.526 30.517C306.226 30.881 306.076 31.3894 306.076 32.0424V35.4944C306.076 36.1795 305.739 36.522 305.064 36.522ZM320.702 36.5541C320.135 36.5541 319.627 36.4471 319.177 36.233C318.738 36.0082 318.39 35.7085 318.133 35.3339C317.887 34.9592 317.764 34.5364 317.764 34.0654C317.764 33.4874 317.914 33.0325 318.214 32.7007C318.513 32.3581 319 32.1119 319.675 31.9621C320.349 31.8122 321.254 31.7373 322.388 31.7373H323.191V32.8933H322.404C321.741 32.8933 321.211 32.9254 320.815 32.9897C320.419 33.0539 320.135 33.1663 319.964 33.3268C319.803 33.4767 319.723 33.6908 319.723 33.9691C319.723 34.3223 319.846 34.6113 320.092 34.8361C320.338 35.0609 320.681 35.1733 321.12 35.1733C321.473 35.1733 321.783 35.093 322.051 34.9325C322.329 34.7612 322.549 34.531 322.709 34.242C322.87 33.953 322.95 33.6212 322.95 33.2466V31.4001C322.95 30.8649 322.832 30.4796 322.597 30.2441C322.361 30.0086 321.965 29.8908 321.409 29.8908C321.098 29.8908 320.761 29.9283 320.397 30.0032C320.044 30.0782 319.669 30.2066 319.273 30.3886C319.07 30.4849 318.888 30.5117 318.727 30.4689C318.578 30.426 318.46 30.3404 318.374 30.212C318.289 30.0728 318.246 29.923 318.246 29.7624C318.246 29.6018 318.289 29.4466 318.374 29.2968C318.46 29.1362 318.604 29.0185 318.808 28.9435C319.3 28.7402 319.771 28.5956 320.221 28.51C320.681 28.4244 321.098 28.3816 321.473 28.3816C322.244 28.3816 322.875 28.4993 323.368 28.7348C323.871 28.9703 324.245 29.3289 324.492 29.8106C324.738 30.2815 324.861 30.8917 324.861 31.641V35.4944C324.861 35.8262 324.781 36.0831 324.62 36.2651C324.459 36.4364 324.229 36.522 323.93 36.522C323.63 36.522 323.394 36.4364 323.223 36.2651C323.063 36.0831 322.982 35.8262 322.982 35.4944V34.7237H323.111C323.036 35.0984 322.886 35.4248 322.661 35.7031C322.447 35.9707 322.174 36.1795 321.842 36.3293C321.511 36.4792 321.131 36.5541 320.702 36.5541ZM322.308 27.4021C322.201 27.552 322.072 27.6376 321.923 27.659C321.773 27.6805 321.628 27.6537 321.489 27.5788C321.35 27.5038 321.248 27.3968 321.184 27.2576C321.131 27.1185 321.147 26.9633 321.232 26.792L322.452 24.3997C322.549 24.1963 322.677 24.0678 322.838 24.0143C322.998 23.9501 323.164 23.9394 323.336 23.9822C323.507 24.025 323.651 24.1053 323.769 24.223C323.898 24.3408 323.972 24.4853 323.994 24.6566C324.026 24.8171 323.983 24.983 323.865 25.1543L322.308 27.4021ZM329.772 36.5541C329.312 36.5541 328.825 36.5059 328.311 36.4096C327.797 36.3133 327.337 36.1474 326.93 35.9119C326.759 35.8048 326.636 35.6817 326.561 35.5426C326.497 35.3927 326.47 35.2482 326.481 35.1091C326.502 34.9592 326.555 34.8308 326.641 34.7237C326.737 34.6167 326.855 34.5471 326.994 34.515C327.144 34.4829 327.305 34.5096 327.476 34.5953C327.904 34.7987 328.306 34.9432 328.68 35.0288C329.055 35.1037 329.424 35.1412 329.788 35.1412C330.302 35.1412 330.682 35.0555 330.928 34.8843C331.185 34.7023 331.313 34.4668 331.313 34.1778C331.313 33.9316 331.228 33.7443 331.057 33.6159C330.896 33.4767 330.65 33.375 330.318 33.3108L328.712 33.0057C328.049 32.8773 327.54 32.6364 327.187 32.2832C326.844 31.9193 326.673 31.4536 326.673 30.8863C326.673 30.3725 326.812 29.9283 327.091 29.5537C327.38 29.179 327.776 28.89 328.279 28.6866C328.782 28.4833 329.36 28.3816 330.013 28.3816C330.484 28.3816 330.923 28.4351 331.329 28.5421C331.747 28.6385 332.148 28.7937 332.534 29.0078C332.694 29.0934 332.801 29.2058 332.855 29.3449C332.919 29.4841 332.935 29.6286 332.903 29.7784C332.871 29.9176 332.807 30.046 332.71 30.1638C332.614 30.2708 332.491 30.3404 332.341 30.3725C332.202 30.3939 332.041 30.3618 331.859 30.2762C331.528 30.1049 331.206 29.9818 330.896 29.9069C330.596 29.832 330.307 29.7945 330.029 29.7945C329.504 29.7945 329.114 29.8855 328.857 30.0675C328.611 30.2494 328.488 30.4903 328.488 30.79C328.488 31.0148 328.562 31.2021 328.712 31.3519C328.862 31.5018 329.092 31.6035 329.403 31.657L331.008 31.9621C331.704 32.0905 332.229 32.326 332.582 32.6685C332.946 33.0111 333.128 33.4713 333.128 34.0494C333.128 34.8308 332.823 35.4462 332.213 35.8958C331.602 36.3347 330.789 36.5541 329.772 36.5541ZM342.115 36.5541C341.43 36.5541 340.826 36.3882 340.301 36.0564C339.787 35.7246 339.386 35.2536 339.097 34.6434C338.808 34.0226 338.663 33.2947 338.663 32.4598C338.663 31.6142 338.808 30.8917 339.097 30.2922C339.386 29.6821 339.787 29.2111 340.301 28.8793C340.826 28.5475 341.43 28.3816 342.115 28.3816C342.768 28.3816 343.336 28.5421 343.817 28.8633C344.31 29.1844 344.642 29.6072 344.813 30.1317H344.636V25.9571C344.636 25.6253 344.722 25.3737 344.893 25.2025C345.064 25.0312 345.311 24.9456 345.632 24.9456C345.953 24.9456 346.199 25.0312 346.37 25.2025C346.552 25.3737 346.643 25.6253 346.643 25.9571V35.4944C346.643 35.8262 346.558 36.0831 346.386 36.2651C346.215 36.4364 345.969 36.522 345.648 36.522C345.327 36.522 345.08 36.4364 344.909 36.2651C344.738 36.0831 344.652 35.8262 344.652 35.4944V34.242L344.829 34.7237C344.668 35.2803 344.342 35.7246 343.849 36.0564C343.357 36.3882 342.779 36.5541 342.115 36.5541ZM342.677 35.0288C343.073 35.0288 343.421 34.9325 343.721 34.7398C344.021 34.5471 344.251 34.2634 344.411 33.8888C344.583 33.5035 344.668 33.0271 344.668 32.4598C344.668 31.6035 344.486 30.9666 344.122 30.5491C343.758 30.121 343.277 29.9069 342.677 29.9069C342.281 29.9069 341.933 30.0032 341.634 30.1959C341.334 30.3779 341.099 30.6615 340.927 31.0469C340.767 31.4215 340.686 31.8925 340.686 32.4598C340.686 33.3054 340.868 33.9477 341.232 34.3865C341.596 34.8147 342.078 35.0288 342.677 35.0288ZM352.594 36.5541C351.705 36.5541 350.94 36.3882 350.298 36.0564C349.655 35.7246 349.158 35.2536 348.805 34.6434C348.462 34.0333 348.291 33.3108 348.291 32.4759C348.291 31.6624 348.457 30.9505 348.788 30.3404C349.131 29.7303 349.597 29.2539 350.185 28.9114C350.785 28.5582 351.464 28.3816 352.224 28.3816C352.781 28.3816 353.279 28.4726 353.718 28.6545C354.167 28.8365 354.547 29.0987 354.858 29.4413C355.179 29.7838 355.42 30.2013 355.58 30.6936C355.751 31.1753 355.837 31.7212 355.837 32.3314C355.837 32.524 355.768 32.6739 355.628 32.7809C355.5 32.8773 355.313 32.9254 355.066 32.9254H349.912V31.7694H354.424L354.167 32.0102C354.167 31.5179 354.092 31.1058 353.942 30.7739C353.803 30.4421 353.595 30.1906 353.316 30.0193C353.049 29.8373 352.711 29.7463 352.305 29.7463C351.855 29.7463 351.47 29.8534 351.149 30.0675C350.838 30.2708 350.597 30.5652 350.426 30.9505C350.266 31.3252 350.185 31.7748 350.185 32.2993V32.4116C350.185 33.2894 350.389 33.9477 350.795 34.3865C351.213 34.8147 351.823 35.0288 352.626 35.0288C352.904 35.0288 353.215 34.9967 353.557 34.9325C353.91 34.8575 354.242 34.7344 354.553 34.5632C354.777 34.4347 354.975 34.3812 355.147 34.4026C355.318 34.4133 355.452 34.4722 355.548 34.5792C355.655 34.6863 355.719 34.8201 355.741 34.9806C355.762 35.1305 355.73 35.2857 355.644 35.4462C355.569 35.6068 355.436 35.746 355.243 35.8637C354.868 36.0992 354.435 36.2758 353.942 36.3936C353.461 36.5006 353.011 36.5541 352.594 36.5541ZM364.627 36.5541C363.974 36.5541 363.434 36.4364 363.006 36.2009C362.578 35.9547 362.256 35.5908 362.042 35.1091C361.839 34.6274 361.737 34.028 361.737 33.3108V29.4252C361.737 29.0827 361.823 28.8311 361.994 28.6706C362.165 28.4993 362.412 28.4137 362.733 28.4137C363.054 28.4137 363.3 28.4993 363.471 28.6706C363.653 28.8311 363.744 29.0827 363.744 29.4252V33.3429C363.744 33.8995 363.857 34.3116 364.082 34.5792C364.306 34.8468 364.665 34.9806 365.157 34.9806C365.692 34.9806 366.131 34.7987 366.474 34.4347C366.816 34.0601 366.988 33.5677 366.988 32.9576V29.4252C366.988 29.0827 367.073 28.8311 367.245 28.6706C367.416 28.4993 367.662 28.4137 367.983 28.4137C368.304 28.4137 368.55 28.4993 368.722 28.6706C368.904 28.8311 368.995 29.0827 368.995 29.4252V35.4944C368.995 36.1795 368.668 36.522 368.015 36.522C367.705 36.522 367.464 36.4364 367.293 36.2651C367.121 36.0831 367.036 35.8262 367.036 35.4944V34.2742L367.261 34.7558C367.036 35.3339 366.693 35.7781 366.233 36.0885C365.783 36.3989 365.248 36.5541 364.627 36.5541ZM372.079 36.522C371.758 36.522 371.512 36.4364 371.34 36.2651C371.169 36.0831 371.084 35.8262 371.084 35.4944V29.4252C371.084 29.0934 371.169 28.8418 371.34 28.6706C371.512 28.4993 371.753 28.4137 372.063 28.4137C372.373 28.4137 372.614 28.4993 372.786 28.6706C372.957 28.8418 373.042 29.0934 373.042 29.4252V30.517L372.866 30.1156C373.101 29.5483 373.465 29.1201 373.958 28.8311C374.461 28.5314 375.028 28.3816 375.66 28.3816C376.291 28.3816 376.81 28.4993 377.217 28.7348C377.624 28.9703 377.929 29.3289 378.132 29.8106C378.336 30.2815 378.437 30.881 378.437 31.6088V35.4944C378.437 35.8262 378.352 36.0831 378.18 36.2651C378.009 36.4364 377.763 36.522 377.442 36.522C377.121 36.522 376.869 36.4364 376.687 36.2651C376.516 36.0831 376.43 35.8262 376.43 35.4944V31.7052C376.43 31.095 376.313 30.6508 376.077 30.3725C375.852 30.0942 375.499 29.9551 375.017 29.9551C374.429 29.9551 373.958 30.1424 373.604 30.517C373.262 30.881 373.091 31.368 373.091 31.9781V35.4944C373.091 36.1795 372.753 36.522 372.079 36.522ZM383.061 36.5541C382.493 36.5541 381.985 36.4471 381.535 36.233C381.097 36.0082 380.749 35.7085 380.492 35.3339C380.246 34.9592 380.123 34.5364 380.123 34.0654C380.123 33.4874 380.272 33.0325 380.572 32.7007C380.872 32.3581 381.359 32.1119 382.033 31.9621C382.708 31.8122 383.612 31.7373 384.747 31.7373H385.549V32.8933H384.763C384.099 32.8933 383.569 32.9254 383.173 32.9897C382.777 33.0539 382.493 33.1663 382.322 33.3268C382.162 33.4767 382.081 33.6908 382.081 33.9691C382.081 34.3223 382.204 34.6113 382.451 34.8361C382.697 35.0609 383.039 35.1733 383.478 35.1733C383.831 35.1733 384.142 35.093 384.41 34.9325C384.688 34.7612 384.907 34.531 385.068 34.242C385.228 33.953 385.309 33.6212 385.309 33.2466V31.4001C385.309 30.8649 385.191 30.4796 384.955 30.2441C384.72 30.0086 384.324 29.8908 383.767 29.8908C383.457 29.8908 383.12 29.9283 382.756 30.0032C382.403 30.0782 382.028 30.2066 381.632 30.3886C381.428 30.4849 381.246 30.5117 381.086 30.4689C380.936 30.426 380.818 30.3404 380.733 30.212C380.647 30.0728 380.604 29.923 380.604 29.7624C380.604 29.6018 380.647 29.4466 380.733 29.2968C380.818 29.1362 380.963 29.0185 381.166 28.9435C381.659 28.7402 382.13 28.5956 382.579 28.51C383.039 28.4244 383.457 28.3816 383.831 28.3816C384.602 28.3816 385.234 28.4993 385.726 28.7348C386.229 28.9703 386.604 29.3289 386.85 29.8106C387.096 30.2815 387.219 30.8917 387.219 31.641V35.4944C387.219 35.8262 387.139 36.0831 386.978 36.2651C386.818 36.4364 386.588 36.522 386.288 36.522C385.988 36.522 385.753 36.4364 385.582 36.2651C385.421 36.0831 385.341 35.8262 385.341 35.4944V34.7237H385.469C385.394 35.0984 385.244 35.4248 385.02 35.7031C384.806 35.9707 384.533 36.1795 384.201 36.3293C383.869 36.4792 383.489 36.5541 383.061 36.5541ZM132.924 57.5541C132.035 57.5541 131.366 57.3026 130.917 56.7995C130.467 56.2857 130.242 55.5364 130.242 54.5516V46.9571C130.242 46.6253 130.328 46.3737 130.499 46.2025C130.67 46.0312 130.917 45.9456 131.238 45.9456C131.559 45.9456 131.805 46.0312 131.976 46.2025C132.158 46.3737 132.249 46.6253 132.249 46.9571V54.4553C132.249 54.9477 132.351 55.3116 132.554 55.5471C132.768 55.7826 133.068 55.9003 133.454 55.9003C133.539 55.9003 133.619 55.9003 133.694 55.9003C133.769 55.8896 133.844 55.8789 133.919 55.8682C134.069 55.8468 134.171 55.8896 134.224 55.9967C134.278 56.093 134.305 56.2964 134.305 56.6068C134.305 56.8744 134.251 57.0831 134.144 57.233C134.037 57.3829 133.86 57.4738 133.614 57.5059C133.507 57.5167 133.395 57.5274 133.277 57.5381C133.159 57.5488 133.041 57.5541 132.924 57.5541ZM136.365 57.5059C136.044 57.5059 135.798 57.4096 135.627 57.2169C135.455 57.0243 135.37 56.7567 135.37 56.4141V50.5216C135.37 50.1683 135.455 49.9007 135.627 49.7187C135.798 49.5261 136.044 49.4297 136.365 49.4297C136.686 49.4297 136.932 49.5261 137.104 49.7187C137.286 49.9007 137.377 50.1683 137.377 50.5216V56.4141C137.377 56.7567 137.291 57.0243 137.12 57.2169C136.948 57.4096 136.697 57.5059 136.365 57.5059ZM137.12 48.4021C137.013 48.552 136.884 48.6376 136.734 48.659C136.585 48.6805 136.44 48.6537 136.301 48.5788C136.162 48.5038 136.06 48.3968 135.996 48.2576C135.942 48.1185 135.958 47.9633 136.044 47.792L137.264 45.3997C137.361 45.1963 137.489 45.0678 137.65 45.0143C137.81 44.9501 137.976 44.9394 138.147 44.9822C138.319 45.025 138.463 45.1053 138.581 45.223C138.709 45.3408 138.784 45.4853 138.806 45.6566C138.838 45.8171 138.795 45.983 138.677 46.1543L137.12 48.4021ZM140.458 57.522C140.136 57.522 139.89 57.4364 139.719 57.2651C139.548 57.0831 139.462 56.8262 139.462 56.4944V50.4252C139.462 50.0934 139.548 49.8418 139.719 49.6706C139.89 49.4993 140.131 49.4137 140.441 49.4137C140.752 49.4137 140.993 49.4993 141.164 49.6706C141.335 49.8418 141.421 50.0934 141.421 50.4252V51.517L141.244 51.1156C141.48 50.5483 141.844 50.1201 142.336 49.8311C142.839 49.5314 143.406 49.3816 144.038 49.3816C144.67 49.3816 145.189 49.4993 145.595 49.7348C146.002 49.9703 146.307 50.3289 146.511 50.8106C146.714 51.2815 146.816 51.881 146.816 52.6088V56.4944C146.816 56.8262 146.73 57.0831 146.559 57.2651C146.388 57.4364 146.141 57.522 145.82 57.522C145.499 57.522 145.248 57.4364 145.066 57.2651C144.894 57.0831 144.809 56.8262 144.809 56.4944V52.7052C144.809 52.095 144.691 51.6508 144.455 51.3725C144.231 51.0942 143.877 50.9551 143.396 50.9551C142.807 50.9551 142.336 51.1424 141.983 51.517C141.64 51.881 141.469 52.368 141.469 52.9781V56.4944C141.469 57.1795 141.132 57.522 140.458 57.522ZM152.724 57.5541C151.835 57.5541 151.07 57.3882 150.428 57.0564C149.785 56.7246 149.288 56.2536 148.934 55.6434C148.592 55.0333 148.421 54.3108 148.421 53.4759C148.421 52.6624 148.587 51.9505 148.918 51.3404C149.261 50.7303 149.727 50.2539 150.315 49.9114C150.915 49.5582 151.594 49.3816 152.354 49.3816C152.911 49.3816 153.409 49.4726 153.848 49.6545C154.297 49.8365 154.677 50.0987 154.988 50.4413C155.309 50.7838 155.55 51.2013 155.71 51.6936C155.881 52.1753 155.967 52.7212 155.967 53.3314C155.967 53.524 155.897 53.6739 155.758 53.7809C155.63 53.8773 155.443 53.9254 155.196 53.9254H150.042V52.7694H154.554L154.297 53.0102C154.297 52.5179 154.222 52.1058 154.072 51.7739C153.933 51.4421 153.725 51.1906 153.446 51.0193C153.179 50.8373 152.841 50.7463 152.435 50.7463C151.985 50.7463 151.6 50.8534 151.279 51.0675C150.968 51.2708 150.727 51.5652 150.556 51.9505C150.396 52.3252 150.315 52.7748 150.315 53.2993V53.4116C150.315 54.2894 150.519 54.9477 150.925 55.3865C151.343 55.8147 151.953 56.0288 152.756 56.0288C153.034 56.0288 153.345 55.9967 153.687 55.9325C154.04 55.8575 154.372 55.7344 154.683 55.5632C154.907 55.4347 155.105 55.3812 155.277 55.4026C155.448 55.4133 155.582 55.4722 155.678 55.5792C155.785 55.6863 155.849 55.8201 155.871 55.9806C155.892 56.1305 155.86 56.2857 155.774 56.4462C155.699 56.6068 155.566 56.746 155.373 56.8637C154.998 57.0992 154.565 57.2758 154.072 57.3936C153.591 57.5006 153.141 57.5541 152.724 57.5541ZM160.142 57.5541C159.574 57.5541 159.066 57.4471 158.616 57.233C158.177 57.0082 157.829 56.7085 157.573 56.3339C157.326 55.9592 157.203 55.5364 157.203 55.0654C157.203 54.4874 157.353 54.0325 157.653 53.7007C157.953 53.3581 158.44 53.1119 159.114 52.9621C159.788 52.8122 160.693 52.7373 161.827 52.7373H162.63V53.8933H161.843C161.18 53.8933 160.65 53.9254 160.254 53.9897C159.858 54.0539 159.574 54.1663 159.403 54.3268C159.242 54.4767 159.162 54.6908 159.162 54.9691C159.162 55.3223 159.285 55.6113 159.531 55.8361C159.778 56.0609 160.12 56.1733 160.559 56.1733C160.912 56.1733 161.223 56.093 161.49 55.9325C161.769 55.7612 161.988 55.531 162.149 55.242C162.309 54.953 162.389 54.6212 162.389 54.2466V52.4001C162.389 51.8649 162.272 51.4796 162.036 51.2441C161.801 51.0086 161.405 50.8908 160.848 50.8908C160.538 50.8908 160.2 50.9283 159.836 51.0032C159.483 51.0782 159.109 51.2066 158.713 51.3886C158.509 51.4849 158.327 51.5117 158.167 51.4689C158.017 51.426 157.899 51.3404 157.813 51.212C157.728 51.0728 157.685 50.923 157.685 50.7624C157.685 50.6018 157.728 50.4466 157.813 50.2968C157.899 50.1362 158.044 50.0185 158.247 49.9435C158.739 49.7402 159.21 49.5956 159.66 49.51C160.12 49.4244 160.538 49.3816 160.912 49.3816C161.683 49.3816 162.314 49.4993 162.807 49.7348C163.31 49.9703 163.685 50.3289 163.931 50.8106C164.177 51.2815 164.3 51.8917 164.3 52.641V56.4944C164.3 56.8262 164.22 57.0831 164.059 57.2651C163.899 57.4364 163.669 57.522 163.369 57.522C163.069 57.522 162.834 57.4364 162.662 57.2651C162.502 57.0831 162.421 56.8262 162.421 56.4944V55.7237H162.55C162.475 56.0984 162.325 56.4248 162.1 56.7031C161.886 56.9707 161.613 57.1795 161.281 57.3293C160.95 57.4792 160.57 57.5541 160.142 57.5541Z" fill="#007BC7"/>
<path d="M129.199 37.9028H388.215V38.3524H129.199V37.9028ZM129.199 58.9028H165.296V59.3524H129.199V58.9028Z" fill="#007BC7"/>
<path d="M138.184 75.8553C138.184 76.9424 137.986 77.8513 137.59 78.5819C137.194 79.3082 136.619 79.8561 135.867 80.2258C135.118 80.5911 134.21 80.7738 133.14 80.7738H130.519V71.1217H133.431C134.412 71.1217 135.257 71.3021 135.966 71.663C136.674 72.0195 137.22 72.5499 137.603 73.2541C137.99 73.9539 138.184 74.821 138.184 75.8553ZM137.002 75.8949C137.002 75.0279 136.857 74.3126 136.567 73.7493C136.28 73.1859 135.858 72.7678 135.299 72.4949C134.744 72.2176 134.064 72.079 133.259 72.079H131.641V79.8099H133.008C134.337 79.8099 135.334 79.482 135.999 78.8262C136.668 78.1704 137.002 77.1933 137.002 75.8949ZM142.951 73.406C143.567 73.406 144.095 73.5424 144.535 73.8153C144.975 74.0882 145.312 74.4711 145.545 74.964C145.779 75.4526 145.895 76.0248 145.895 76.6806V77.3606H140.897C140.911 78.21 141.122 78.857 141.531 79.3016C141.941 79.7461 142.517 79.9684 143.261 79.9684C143.719 79.9684 144.124 79.9265 144.476 79.8429C144.828 79.7593 145.193 79.6361 145.572 79.4732V80.4371C145.206 80.6 144.843 80.7188 144.482 80.7936C144.126 80.8684 143.703 80.9058 143.215 80.9058C142.519 80.9058 141.912 80.765 141.393 80.4833C140.878 80.1972 140.477 79.7791 140.191 79.2289C139.905 78.6788 139.762 78.0054 139.762 77.2087C139.762 76.4297 139.892 75.7563 140.151 75.1885C140.415 74.6163 140.785 74.1762 141.261 73.8681C141.74 73.56 142.304 73.406 142.951 73.406ZM142.937 74.3038C142.352 74.3038 141.886 74.4953 141.538 74.8782C141.19 75.2611 140.983 75.7959 140.917 76.4825H144.746C144.742 76.0512 144.674 75.6727 144.542 75.347C144.414 75.0169 144.218 74.7616 143.954 74.5811C143.69 74.3963 143.351 74.3038 142.937 74.3038ZM152.438 78.7932C152.438 79.2553 152.321 79.6449 152.088 79.9618C151.859 80.2743 151.529 80.5097 151.098 80.6682C150.671 80.8266 150.16 80.9058 149.566 80.9058C149.06 80.9058 148.622 80.8662 148.252 80.787C147.882 80.7078 147.559 80.5955 147.282 80.4503V79.4402C147.576 79.5854 147.929 79.7175 148.338 79.8363C148.747 79.9552 149.165 80.0146 149.592 80.0146C150.217 80.0146 150.671 79.9133 150.952 79.7109C151.234 79.5084 151.375 79.2333 151.375 78.8856C151.375 78.6876 151.318 78.5137 151.203 78.3641C151.093 78.21 150.906 78.0626 150.642 77.9217C150.378 77.7765 150.013 77.618 149.546 77.4464C149.084 77.2703 148.683 77.0965 148.345 76.9248C148.01 76.7488 147.75 76.5353 147.565 76.2844C147.385 76.0336 147.295 75.7079 147.295 75.3073C147.295 74.6956 147.541 74.2268 148.034 73.9011C148.532 73.571 149.183 73.406 149.988 73.406C150.424 73.406 150.831 73.45 151.21 73.538C151.593 73.6216 151.949 73.7361 152.279 73.8813L151.91 74.7594C151.61 74.6317 151.291 74.5239 150.952 74.4359C150.613 74.3478 150.268 74.3038 149.916 74.3038C149.41 74.3038 149.02 74.3875 148.747 74.5547C148.479 74.722 148.345 74.9508 148.345 75.2413C148.345 75.4658 148.406 75.6506 148.529 75.7959C148.657 75.9411 148.859 76.0776 149.137 76.2052C149.414 76.3329 149.779 76.4825 150.233 76.6542C150.686 76.8214 151.078 76.9953 151.408 77.1757C151.738 77.3518 151.991 77.5674 152.167 77.8227C152.348 78.0736 152.438 78.3971 152.438 78.7932ZM157.099 80.9058C156.447 80.9058 155.873 80.7716 155.376 80.5031C154.878 80.2346 154.491 79.8253 154.214 79.2751C153.936 78.725 153.798 78.0318 153.798 77.1955C153.798 76.3196 153.943 75.6044 154.233 75.0499C154.528 74.4909 154.933 74.0772 155.448 73.8087C155.963 73.5402 156.549 73.406 157.204 73.406C157.565 73.406 157.913 73.4434 158.248 73.5182C158.586 73.5886 158.864 73.6788 159.079 73.7889L158.749 74.7066C158.529 74.6185 158.274 74.5393 157.983 74.4689C157.697 74.3985 157.429 74.3633 157.178 74.3633C156.676 74.3633 156.258 74.4711 155.924 74.6868C155.594 74.9024 155.345 75.2193 155.178 75.6374C155.015 76.0556 154.933 76.5705 154.933 77.1823C154.933 77.7677 155.013 78.2672 155.171 78.681C155.334 79.0947 155.574 79.4116 155.891 79.6317C156.212 79.8473 156.612 79.9552 157.092 79.9552C157.475 79.9552 157.821 79.9155 158.129 79.8363C158.437 79.7527 158.716 79.6559 158.967 79.5458V80.5229C158.725 80.6462 158.454 80.7408 158.155 80.8068C157.86 80.8728 157.508 80.9058 157.099 80.9058ZM163.971 73.406C164.117 73.406 164.269 73.4148 164.427 73.4324C164.585 73.4456 164.726 73.4654 164.85 73.4918L164.711 74.5085C164.592 74.4777 164.46 74.4535 164.315 74.4359C164.17 74.4183 164.033 74.4095 163.905 74.4095C163.615 74.4095 163.34 74.4689 163.08 74.5877C162.825 74.7022 162.6 74.8694 162.407 75.0895C162.213 75.3051 162.061 75.567 161.951 75.8751C161.841 76.1788 161.786 76.5177 161.786 76.8918V80.7738H160.684V73.538H161.595L161.714 74.8716H161.76C161.909 74.6031 162.09 74.3589 162.301 74.1388C162.512 73.9143 162.757 73.7361 163.034 73.604C163.316 73.472 163.628 73.406 163.971 73.406ZM167.312 73.538V80.7738H166.216V73.538H167.312ZM166.777 70.8312C166.958 70.8312 167.112 70.8906 167.239 71.0094C167.371 71.1239 167.438 71.3043 167.438 71.5508C167.438 71.7929 167.371 71.9733 167.239 72.0922C167.112 72.211 166.958 72.2704 166.777 72.2704C166.588 72.2704 166.43 72.211 166.302 72.0922C166.179 71.9733 166.117 71.7929 166.117 71.5508C166.117 71.3043 166.179 71.1239 166.302 71.0094C166.43 70.8906 166.588 70.8312 166.777 70.8312ZM173.036 73.406C173.938 73.406 174.658 73.7163 175.195 74.3368C175.732 74.9574 176 75.8905 176 77.1361C176 77.9591 175.877 78.6502 175.631 79.2091C175.384 79.7681 175.036 80.1906 174.587 80.4767C174.143 80.7628 173.617 80.9058 173.01 80.9058C172.627 80.9058 172.29 80.8552 172 80.754C171.709 80.6528 171.46 80.5163 171.253 80.3447C171.047 80.173 170.875 79.986 170.739 79.7835H170.659C170.672 79.9552 170.688 80.162 170.706 80.4041C170.728 80.6462 170.739 80.8574 170.739 81.0379V84.0088H169.636V73.538H170.54L170.686 74.6075H170.739C170.879 74.3875 171.051 74.1872 171.253 74.0067C171.456 73.8219 171.702 73.6766 171.993 73.571C172.288 73.461 172.635 73.406 173.036 73.406ZM172.845 74.3302C172.343 74.3302 171.938 74.4271 171.63 74.6207C171.326 74.8144 171.104 75.1049 170.963 75.4922C170.822 75.8751 170.747 76.3571 170.739 76.938V77.1493C170.739 77.7611 170.805 78.2782 170.937 78.7008C171.073 79.1233 171.295 79.4446 171.603 79.6647C171.916 79.8847 172.334 79.9948 172.858 79.9948C173.307 79.9948 173.681 79.8737 173.98 79.6317C174.279 79.3896 174.502 79.0529 174.647 78.6215C174.797 78.1858 174.871 77.6863 174.871 77.1229C174.871 76.269 174.704 75.5912 174.37 75.0895C174.04 74.5833 173.531 74.3302 172.845 74.3302ZM180.813 80.9058C180.162 80.9058 179.587 80.7716 179.09 80.5031C178.593 80.2346 178.205 79.8253 177.928 79.2751C177.651 78.725 177.512 78.0318 177.512 77.1955C177.512 76.3196 177.657 75.6044 177.948 75.0499C178.243 74.4909 178.648 74.0772 179.163 73.8087C179.678 73.5402 180.263 73.406 180.919 73.406C181.28 73.406 181.627 73.4434 181.962 73.5182C182.301 73.5886 182.578 73.6788 182.794 73.7889L182.464 74.7066C182.244 74.6185 181.988 74.5393 181.698 74.4689C181.412 74.3985 181.143 74.3633 180.892 74.3633C180.391 74.3633 179.973 74.4711 179.638 74.6868C179.308 74.9024 179.059 75.2193 178.892 75.6374C178.729 76.0556 178.648 76.5705 178.648 77.1823C178.648 77.7677 178.727 78.2672 178.885 78.681C179.048 79.0947 179.288 79.4116 179.605 79.6317C179.926 79.8473 180.327 79.9552 180.807 79.9552C181.189 79.9552 181.535 79.9155 181.843 79.8363C182.151 79.7527 182.431 79.6559 182.682 79.5458V80.5229C182.439 80.6462 182.169 80.7408 181.87 80.8068C181.575 80.8728 181.223 80.9058 180.813 80.9058ZM185.494 73.538V80.7738H184.398V73.538H185.494ZM184.959 70.8312C185.14 70.8312 185.294 70.8906 185.421 71.0094C185.553 71.1239 185.619 71.3043 185.619 71.5508C185.619 71.7929 185.553 71.9733 185.421 72.0922C185.294 72.211 185.14 72.2704 184.959 72.2704C184.77 72.2704 184.612 72.211 184.484 72.0922C184.361 71.9733 184.299 71.7929 184.299 71.5508C184.299 71.3043 184.361 71.1239 184.484 71.0094C184.612 70.8906 184.77 70.8312 184.959 70.8312ZM194.057 77.1427C194.057 77.7369 193.98 78.2672 193.826 78.7338C193.672 79.2003 193.449 79.5942 193.159 79.9155C192.868 80.2368 192.516 80.4833 192.103 80.655C191.693 80.8222 191.229 80.9058 190.71 80.9058C190.225 80.9058 189.781 80.8222 189.376 80.655C188.975 80.4833 188.628 80.2368 188.333 79.9155C188.042 79.5942 187.816 79.2003 187.653 78.7338C187.494 78.2672 187.415 77.7369 187.415 77.1427C187.415 76.3505 187.549 75.6771 187.818 75.1225C188.086 74.5635 188.469 74.1388 188.967 73.8483C189.468 73.5534 190.065 73.406 190.756 73.406C191.416 73.406 191.993 73.5534 192.486 73.8483C192.983 74.1432 193.368 74.5701 193.641 75.1291C193.918 75.6837 194.057 76.3549 194.057 77.1427ZM188.551 77.1427C188.551 77.7237 188.628 78.2276 188.782 78.6546C188.936 79.0815 189.174 79.4116 189.495 79.6449C189.816 79.8781 190.23 79.9948 190.736 79.9948C191.238 79.9948 191.649 79.8781 191.971 79.6449C192.296 79.4116 192.536 79.0815 192.69 78.6546C192.844 78.2276 192.921 77.7237 192.921 77.1427C192.921 76.5661 192.844 76.0688 192.69 75.6506C192.536 75.2281 192.298 74.9024 191.977 74.6735C191.656 74.4447 191.24 74.3302 190.729 74.3302C189.977 74.3302 189.424 74.5789 189.072 75.0763C188.725 75.5736 188.551 76.2624 188.551 77.1427ZM192.651 70.4153V70.5473C192.563 70.6749 192.442 70.829 192.287 71.0094C192.138 71.1855 191.971 71.3725 191.786 71.5706C191.601 71.7643 191.414 71.9491 191.225 72.1252C191.04 72.3012 190.868 72.4531 190.71 72.5807H189.977V72.4223C190.118 72.255 190.272 72.0548 190.439 71.8215C190.606 71.5838 190.769 71.3417 190.927 71.0953C191.086 70.8444 191.218 70.6177 191.324 70.4153H192.651ZM199.378 73.406C200.236 73.406 200.885 73.6172 201.326 74.0398C201.766 74.4579 201.986 75.1313 201.986 76.06V80.7738H200.903V76.1326C200.903 75.5296 200.764 75.0785 200.487 74.7792C200.214 74.4799 199.794 74.3302 199.226 74.3302C198.425 74.3302 197.862 74.5569 197.536 75.0103C197.21 75.4636 197.048 76.1216 197.048 76.9843V80.7738H195.952V73.538H196.836L197.001 74.5811H197.061C197.215 74.3258 197.411 74.1124 197.648 73.9407C197.886 73.7647 198.152 73.6326 198.447 73.5446C198.742 73.4522 199.052 73.406 199.378 73.406ZM210.331 80.9058C209.415 80.9058 208.689 80.5933 208.152 79.9684C207.62 79.3434 207.353 78.4147 207.353 77.1823C207.353 75.9367 207.626 74.997 208.172 74.3633C208.718 73.7251 209.444 73.406 210.351 73.406C210.733 73.406 211.068 73.4566 211.354 73.5578C211.64 73.659 211.887 73.7955 212.093 73.9671C212.3 74.1344 212.474 74.3258 212.615 74.5415H212.694C212.677 74.4051 212.659 74.218 212.641 73.9803C212.624 73.7427 212.615 73.549 212.615 73.3994V70.5011H213.711V80.7738H212.826L212.661 79.7439H212.615C212.479 79.9596 212.305 80.1554 212.093 80.3315C211.887 80.5075 211.638 80.6484 211.347 80.754C211.061 80.8552 210.722 80.9058 210.331 80.9058ZM210.502 79.9948C211.277 79.9948 211.825 79.7747 212.146 79.3346C212.468 78.8944 212.628 78.2408 212.628 77.3738V77.1757C212.628 76.2558 212.474 75.5494 212.166 75.0565C211.862 74.5635 211.308 74.317 210.502 74.317C209.829 74.317 209.325 74.5767 208.991 75.0961C208.656 75.611 208.489 76.3152 208.489 77.2087C208.489 78.0978 208.654 78.7844 208.984 79.2685C209.318 79.7527 209.825 79.9948 210.502 79.9948ZM218.821 73.406C219.437 73.406 219.965 73.5424 220.405 73.8153C220.846 74.0882 221.182 74.4711 221.416 74.964C221.649 75.4526 221.765 76.0248 221.765 76.6806V77.3606H216.768C216.781 78.21 216.992 78.857 217.402 79.3016C217.811 79.7461 218.387 79.9684 219.131 79.9684C219.589 79.9684 219.994 79.9265 220.346 79.8429C220.698 79.7593 221.063 79.6361 221.442 79.4732V80.4371C221.077 80.6 220.714 80.7188 220.353 80.7936C219.996 80.8684 219.574 80.9058 219.085 80.9058C218.39 80.9058 217.782 80.765 217.263 80.4833C216.748 80.1972 216.347 79.7791 216.061 79.2289C215.775 78.6788 215.632 78.0054 215.632 77.2087C215.632 76.4297 215.762 75.7563 216.022 75.1885C216.286 74.6163 216.655 74.1762 217.131 73.8681C217.611 73.56 218.174 73.406 218.821 73.406ZM218.808 74.3038C218.222 74.3038 217.756 74.4953 217.408 74.8782C217.06 75.2611 216.854 75.7959 216.788 76.4825H220.617C220.612 76.0512 220.544 75.6727 220.412 75.347C220.284 75.0169 220.089 74.7616 219.824 74.5811C219.56 74.3963 219.221 74.3038 218.808 74.3038ZM228.242 80.7738H227.139V70.5011H228.242V80.7738ZM233.266 73.4192C234.129 73.4192 234.769 73.6128 235.187 74.0001C235.605 74.3875 235.815 75.0058 235.815 75.8553V80.7738H235.016L234.804 79.7043H234.752C234.549 79.9684 234.338 80.1906 234.118 80.3711C233.898 80.5471 233.642 80.6814 233.352 80.7738C233.066 80.8618 232.714 80.9058 232.296 80.9058C231.856 80.9058 231.464 80.8288 231.12 80.6748C230.782 80.5207 230.513 80.2875 230.315 79.975C230.121 79.6625 230.025 79.2663 230.025 78.7866C230.025 78.0648 230.311 77.5102 230.883 77.1229C231.455 76.7356 232.326 76.5243 233.497 76.4891L234.745 76.4363V75.9939C234.745 75.369 234.611 74.931 234.342 74.6802C234.074 74.4293 233.695 74.3038 233.207 74.3038C232.828 74.3038 232.467 74.3589 232.124 74.4689C231.781 74.5789 231.455 74.7088 231.147 74.8584L230.81 74.0266C231.136 73.8593 231.51 73.7163 231.933 73.5974C232.355 73.4786 232.8 73.4192 233.266 73.4192ZM234.732 77.2087L233.629 77.2549C232.727 77.2901 232.091 77.4376 231.721 77.6973C231.352 77.9569 231.167 78.3245 231.167 78.7998C231.167 79.2135 231.292 79.5194 231.543 79.7175C231.794 79.9155 232.126 80.0146 232.54 80.0146C233.183 80.0146 233.708 79.8363 234.118 79.4798C234.527 79.1233 234.732 78.5885 234.732 77.8755V77.2087ZM243.922 80.008C244.102 80.008 244.287 79.9926 244.476 79.9618C244.666 79.9309 244.82 79.8935 244.938 79.8495V80.7012C244.811 80.7584 244.633 80.8068 244.404 80.8464C244.179 80.886 243.959 80.9058 243.744 80.9058C243.361 80.9058 243.013 80.8398 242.7 80.7078C242.388 80.5713 242.137 80.3425 241.948 80.0212C241.763 79.6999 241.67 79.2553 241.67 78.6876V74.3963H240.641V73.8615L241.677 73.4324L242.113 71.8611H242.773V73.538H244.892V74.3963H242.773V78.6546C242.773 79.1079 242.876 79.4468 243.083 79.6713C243.295 79.8957 243.574 80.008 243.922 80.008ZM249.111 73.4192C249.974 73.4192 250.614 73.6128 251.032 74.0001C251.45 74.3875 251.659 75.0058 251.659 75.8553V80.7738H250.86L250.649 79.7043H250.596C250.394 79.9684 250.183 80.1906 249.963 80.3711C249.743 80.5471 249.487 80.6814 249.197 80.7738C248.911 80.8618 248.559 80.9058 248.14 80.9058C247.7 80.9058 247.309 80.8288 246.965 80.6748C246.626 80.5207 246.358 80.2875 246.16 79.975C245.966 79.6625 245.869 79.2663 245.869 78.7866C245.869 78.0648 246.155 77.5102 246.728 77.1229C247.3 76.7356 248.171 76.5243 249.342 76.4891L250.59 76.4363V75.9939C250.59 75.369 250.456 74.931 250.187 74.6802C249.919 74.4293 249.54 74.3038 249.052 74.3038C248.673 74.3038 248.312 74.3589 247.969 74.4689C247.626 74.5789 247.3 74.7088 246.992 74.8584L246.655 74.0266C246.981 73.8593 247.355 73.7163 247.777 73.5974C248.2 73.4786 248.644 73.4192 249.111 73.4192ZM250.577 77.2087L249.474 77.2549C248.572 77.2901 247.936 77.4376 247.566 77.6973C247.196 77.9569 247.012 78.3245 247.012 78.7998C247.012 79.2135 247.137 79.5194 247.388 79.7175C247.639 79.9155 247.971 80.0146 248.385 80.0146C249.027 80.0146 249.553 79.8363 249.963 79.4798C250.372 79.1233 250.577 78.5885 250.577 77.8755V77.2087ZM257.205 73.406C257.35 73.406 257.502 73.4148 257.661 73.4324C257.819 73.4456 257.96 73.4654 258.083 73.4918L257.944 74.5085C257.826 74.4777 257.694 74.4535 257.548 74.4359C257.403 74.4183 257.267 74.4095 257.139 74.4095C256.849 74.4095 256.573 74.4689 256.314 74.5877C256.058 74.7022 255.834 74.8694 255.64 75.0895C255.447 75.3051 255.295 75.567 255.185 75.8751C255.075 76.1788 255.02 76.5177 255.02 76.8918V80.7738H253.917V73.538H254.828L254.947 74.8716H254.993C255.143 74.6031 255.323 74.3589 255.535 74.1388C255.746 73.9143 255.99 73.7361 256.268 73.604C256.549 73.472 256.862 73.406 257.205 73.406ZM258.578 84.022C258.354 84.022 258.158 84.0044 257.991 83.9692C257.823 83.9384 257.678 83.901 257.555 83.8569V82.9657C257.691 83.0097 257.83 83.0427 257.971 83.0647C258.112 83.0911 258.27 83.1043 258.446 83.1043C258.745 83.1043 258.988 83.0207 259.172 82.8534C259.357 82.6862 259.45 82.3825 259.45 81.9424V73.538H260.546V81.916C260.546 82.3561 260.475 82.7324 260.334 83.0449C260.194 83.3618 259.978 83.6039 259.687 83.7711C259.397 83.9384 259.027 84.022 258.578 84.022ZM259.351 71.5508C259.351 71.3043 259.412 71.1239 259.536 71.0094C259.663 70.8906 259.822 70.8312 260.011 70.8312C260.191 70.8312 260.345 70.8906 260.473 71.0094C260.605 71.1239 260.671 71.3043 260.671 71.5508C260.671 71.7929 260.605 71.9733 260.473 72.0922C260.345 72.211 260.191 72.2704 260.011 72.2704C259.822 72.2704 259.663 72.211 259.536 72.0922C259.412 71.9733 259.351 71.7929 259.351 71.5508ZM265.656 73.406C266.272 73.406 266.8 73.5424 267.24 73.8153C267.68 74.0882 268.017 74.4711 268.25 74.964C268.483 75.4526 268.6 76.0248 268.6 76.6806V77.3606H263.602C263.616 78.21 263.827 78.857 264.236 79.3016C264.645 79.7461 265.222 79.9684 265.966 79.9684C266.424 79.9684 266.829 79.9265 267.181 79.8429C267.533 79.7593 267.898 79.6361 268.277 79.4732V80.4371C267.911 80.6 267.548 80.7188 267.187 80.7936C266.831 80.8684 266.408 80.9058 265.92 80.9058C265.224 80.9058 264.617 80.765 264.098 80.4833C263.583 80.1972 263.182 79.7791 262.896 79.2289C262.61 78.6788 262.467 78.0054 262.467 77.2087C262.467 76.4297 262.597 75.7563 262.856 75.1885C263.12 74.6163 263.49 74.1762 263.965 73.8681C264.445 73.56 265.009 73.406 265.656 73.406ZM265.642 74.3038C265.057 74.3038 264.59 74.4953 264.243 74.8782C263.895 75.2611 263.688 75.7959 263.622 76.4825H267.451C267.447 76.0512 267.379 75.6727 267.247 75.347C267.119 75.0169 266.923 74.7616 266.659 74.5811C266.395 74.3963 266.056 74.3038 265.642 74.3038ZM272.799 80.008C272.979 80.008 273.164 79.9926 273.354 79.9618C273.543 79.9309 273.697 79.8935 273.816 79.8495V80.7012C273.688 80.7584 273.51 80.8068 273.281 80.8464C273.056 80.886 272.836 80.9058 272.621 80.9058C272.238 80.9058 271.89 80.8398 271.578 80.7078C271.265 80.5713 271.014 80.3425 270.825 80.0212C270.64 79.6999 270.548 79.2553 270.548 78.6876V74.3963H269.518V73.8615L270.554 73.4324L270.99 71.8611H271.65V73.538H273.769V74.3963H271.65V78.6546C271.65 79.1079 271.754 79.4468 271.961 79.6713C272.172 79.8957 272.451 80.008 272.799 80.008ZM277.988 73.4192C278.851 73.4192 279.491 73.6128 279.909 74.0001C280.327 74.3875 280.537 75.0058 280.537 75.8553V80.7738H279.738L279.526 79.7043H279.474C279.271 79.9684 279.06 80.1906 278.84 80.3711C278.62 80.5471 278.364 80.6814 278.074 80.7738C277.788 80.8618 277.436 80.9058 277.018 80.9058C276.578 80.9058 276.186 80.8288 275.842 80.6748C275.504 80.5207 275.235 80.2875 275.037 79.975C274.843 79.6625 274.747 79.2663 274.747 78.7866C274.747 78.0648 275.033 77.5102 275.605 77.1229C276.177 76.7356 277.048 76.5243 278.219 76.4891L279.467 76.4363V75.9939C279.467 75.369 279.333 74.931 279.064 74.6802C278.796 74.4293 278.417 74.3038 277.929 74.3038C277.55 74.3038 277.189 74.3589 276.846 74.4689C276.503 74.5789 276.177 74.7088 275.869 74.8584L275.532 74.0266C275.858 73.8593 276.232 73.7163 276.655 73.5974C277.077 73.4786 277.522 73.4192 277.988 73.4192ZM279.454 77.2087L278.351 77.2549C277.449 77.2901 276.813 77.4376 276.443 77.6973C276.074 77.9569 275.889 78.3245 275.889 78.7998C275.889 79.2135 276.014 79.5194 276.265 79.7175C276.516 79.9155 276.848 80.0146 277.262 80.0146C277.905 80.0146 278.43 79.8363 278.84 79.4798C279.249 79.1233 279.454 78.5885 279.454 77.8755V77.2087ZM282.629 80.0872C282.629 79.7791 282.704 79.5612 282.854 79.4336C283.003 79.3016 283.186 79.2355 283.402 79.2355C283.626 79.2355 283.816 79.3016 283.97 79.4336C284.124 79.5612 284.201 79.7791 284.201 80.0872C284.201 80.3909 284.124 80.6132 283.97 80.754C283.816 80.8904 283.626 80.9587 283.402 80.9587C283.186 80.9587 283.003 80.8904 282.854 80.754C282.704 80.6132 282.629 80.3909 282.629 80.0872Z" fill="#38485C"/>
</svg>
