<svg xmlns="http://www.w3.org/2000/svg" xmlns:xlink="http://www.w3.org/1999/xlink" width="712" height="636" viewBox="0 0 712 636">
  <defs>
    <filter id="Rectángulo_5014" x="179.5" y="32.5" width="351" height="247" filterUnits="userSpaceOnUse">
      <feOffset dy="1" input="SourceAlpha"/>
      <feGaussianBlur stdDeviation="1.5" result="blur"/>
      <feFlood flood-color="#38485c" flood-opacity="0.2"/>
      <feComposite operator="in" in2="blur"/>
      <feComposite in="SourceGraphic"/>
    </filter>
    <filter id="Rectángulo_5014-2" x="179.5" y="338.5" width="351" height="247" filterUnits="userSpaceOnUse">
      <feOffset dy="1" input="SourceAlpha"/>
      <feGaussianBlur stdDeviation="1.5" result="blur-2"/>
      <feFlood flood-color="#38485c" flood-opacity="0.2"/>
      <feComposite operator="in" in2="blur-2"/>
      <feComposite in="SourceGraphic"/>
    </filter>
  </defs>
  <g id="Grupo_18079" data-name="Grupo 18079" transform="translate(-513 -3881)">
    <path id="Trazado_20240" data-name="Trazado 20240" d="M4,0H708a4,4,0,0,1,4,4V632a4,4,0,0,1-4,4H4a4,4,0,0,1-4-4V4A4,4,0,0,1,4,0Z" transform="translate(513 3881)" fill="#f3f6f9"/>
    <g id="V1-Tarjetas-Contenedor" transform="translate(699 3766)">
      <g transform="matrix(1, 0, 0, 1, -186, 115)" filter="url(#Rectángulo_5014)">
        <rect id="Rectángulo_5014-3" data-name="Rectángulo 5014" width="342" height="238" rx="8" transform="translate(184 36)" fill="#fff"/>
      </g>
      <line id="Línea_299" data-name="Línea 299" x2="294" transform="translate(22 333)" fill="none" stroke="#e6ebf0" stroke-width="1"/>
      <text id="_Text_Body_1_Selected_On_Surface_Medium_Emphasis_Left_" data-name="✱ / Text / Body 1 / Selected / On Surface / Medium Emphasis / Left " transform="translate(22 175)" fill="#a0aab7" font-size="21" font-family="Nunito-SemiBold, Nunito" font-weight="600" letter-spacing="-0.001em"><tspan x="0" y="21">Título de tarjeta</tspan></text>
      <text id="_Text_Body_1_Selected_On_Surface_Medium_Emphasis_Left_2" data-name="✱ / Text / Body 1 / Selected / On Surface / Medium Emphasis / Left " transform="translate(22 207)" fill="#a0aab7" font-size="19" font-family="OpenSans-Regular, Open Sans" letter-spacing="-0.001em"><tspan x="0" y="20">Título de tarjeta</tspan></text>
      <text id="_Text_Body_1_Selected_On_Surface_Medium_Emphasis_Left_3" data-name="✱ / Text / Body 1 / Selected / On Surface / Medium Emphasis / Left " transform="translate(288 362)" fill="#a0aab7" font-size="11.7" font-family="OpenSans-Regular, Open Sans"><tspan x="-28.35" y="0">Contenido</tspan></text>
      <text id="_Text_Body_1_Selected_On_Surface_Medium_Emphasis_Left_4" data-name="✱ / Text / Body 1 / Selected / On Surface / Medium Emphasis / Left " transform="translate(22 247)" fill="#a0aab7" font-size="16" font-family="OpenSans-Regular, Open Sans"><tspan x="0" y="17">Recomendamos en este espacio no </tspan><tspan x="0" y="41">utilizar más de 3 líneas, para generar </tspan><tspan x="0" y="65">una lectura óptima.</tspan></text>
    </g>
    <g id="V1-Tarjetas-Contenedor-2" data-name="V1-Tarjetas-Contenedor" transform="translate(699 4072)">
      <g transform="matrix(1, 0, 0, 1, -186, -191)" filter="url(#Rectángulo_5014-2)">
        <rect id="Rectángulo_5014-4" data-name="Rectángulo 5014" width="342" height="238" rx="8" transform="translate(184 342)" fill="#fff"/>
      </g>
      <line id="Línea_299-2" data-name="Línea 299" x2="294" transform="translate(22 333)" fill="none" stroke="#e6ebf0" stroke-width="1"/>
      <text id="_Text_Body_1_Selected_On_Surface_Medium_Emphasis_Left_5" data-name="✱ / Text / Body 1 / Selected / On Surface / Medium Emphasis / Left " transform="translate(22 175)" fill="#a0aab7" font-size="21" font-family="Nunito-SemiBold, Nunito" font-weight="600" letter-spacing="-0.001em"><tspan x="0" y="21">Título de tarjeta</tspan></text>
      <text id="_Text_Body_1_Selected_On_Surface_Medium_Emphasis_Left_6" data-name="✱ / Text / Body 1 / Selected / On Surface / Medium Emphasis / Left " transform="translate(22 207)" fill="#a0aab7" font-size="19" font-family="OpenSans-Regular, Open Sans" letter-spacing="-0.001em"><tspan x="0" y="20">Título de tarjeta</tspan></text>
      <text id="_Text_Body_1_Selected_On_Surface_Medium_Emphasis_Left_7" data-name="✱ / Text / Body 1 / Selected / On Surface / Medium Emphasis / Left " transform="translate(288 362)" fill="#a0aab7" font-size="11.7" font-family="OpenSans-Regular, Open Sans"><tspan x="-28.35" y="0">Contenido</tspan></text>
      <text id="_Text_Body_1_Selected_On_Surface_Medium_Emphasis_Left_8" data-name="✱ / Text / Body 1 / Selected / On Surface / Medium Emphasis / Left " transform="translate(22 247)" fill="#a0aab7" font-size="16" font-family="OpenSans-Regular, Open Sans"><tspan x="0" y="17">Recomendamos en este espacio no </tspan><tspan x="0" y="41">utilizar más de 3 líneas, para generar </tspan><tspan x="0" y="65">una lectura óptima.</tspan></text>
    </g>
    <g id="Grupo_17724" data-name="Grupo 17724" transform="translate(1039 3917.404) rotate(90)" opacity="0.5">
      <rect id="Rectángulo_3425" data-name="Rectángulo 3425" width="23.091" height="341.337" transform="translate(0 0)" fill="#fffbe5"/>
      <path id="Trazado_4669" data-name="Trazado 4669" d="M0,341.877V0" transform="translate(23.945 0.124)" fill="none" stroke="#38485c" stroke-width="1" stroke-dasharray="5 2"/>
      <path id="Trazado_4670" data-name="Trazado 4670" d="M0,341.877V0" transform="translate(0.067 0.124)" fill="none" stroke="#38485c" stroke-width="1" stroke-dasharray="5 2"/>
    </g>
    <g id="Grupo_17726" data-name="Grupo 17726" transform="translate(1039 4001.404) rotate(90)" opacity="0.5">
      <rect id="Rectángulo_3425-2" data-name="Rectángulo 3425" width="10.637" height="341.337" transform="translate(0 0)" fill="#fffbe5"/>
      <path id="Trazado_4669-2" data-name="Trazado 4669" d="M0,341.877V0" transform="translate(11.491 0.124)" fill="none" stroke="#38485c" stroke-width="1" stroke-dasharray="5 2"/>
      <path id="Trazado_4670-2" data-name="Trazado 4670" d="M0,341.877V0" transform="translate(0.067 0.124)" fill="none" stroke="#38485c" stroke-width="1" stroke-dasharray="5 2"/>
    </g>
    <g id="Grupo_17727" data-name="Grupo 17727" transform="translate(1039 4083.404) rotate(90)" opacity="0.5">
      <rect id="Rectángulo_3425-3" data-name="Rectángulo 3425" width="11.912" height="341.337" transform="translate(0 0)" fill="#fffbe5"/>
      <path id="Trazado_4669-3" data-name="Trazado 4669" d="M0,341.877V0" transform="translate(12.766 0.124)" fill="none" stroke="#38485c" stroke-width="1" stroke-dasharray="5 2"/>
      <path id="Trazado_4670-3" data-name="Trazado 4670" d="M0,341.877V0" transform="translate(0.067 0.124)" fill="none" stroke="#38485c" stroke-width="1" stroke-dasharray="5 2"/>
    </g>
    <g id="Grupo_17728" data-name="Grupo 17728" transform="translate(1039 4102.267) rotate(90)" opacity="0.5">
      <rect id="Rectángulo_3425-4" data-name="Rectángulo 3425" width="12.627" height="341.337" transform="translate(0 0)" fill="#fffbe5"/>
      <path id="Trazado_4669-4" data-name="Trazado 4669" d="M0,341.877V0" transform="translate(13.48 0.124)" fill="none" stroke="#38485c" stroke-width="1" stroke-dasharray="5 2"/>
      <path id="Trazado_4670-4" data-name="Trazado 4670" d="M0,341.877V0" transform="translate(0.067 0.124)" fill="none" stroke="#38485c" stroke-width="1" stroke-dasharray="5 2"/>
    </g>
    <g id="Grupo_17729" data-name="Grupo 17729" transform="translate(1039 4131.404) rotate(90)" opacity="0.5">
      <rect id="Rectángulo_3425-5" data-name="Rectángulo 3425" width="22.742" height="341.337" transform="translate(0 0)" fill="#fffbe5"/>
      <path id="Trazado_4669-5" data-name="Trazado 4669" d="M0,341.877V0" transform="translate(23.596 0.124)" fill="none" stroke="#38485c" stroke-width="1" stroke-dasharray="5 2"/>
      <path id="Trazado_4670-5" data-name="Trazado 4670" d="M0,341.877V0" transform="translate(0.067 0.124)" fill="none" stroke="#38485c" stroke-width="1" stroke-dasharray="5 2"/>
    </g>
    <g id="Grupo_17730" data-name="Grupo 17730" transform="translate(1038.798 4461) rotate(180)" opacity="0.5">
      <rect id="Rectángulo_3425-6" data-name="Rectángulo 3425" width="22.742" height="237.135" transform="translate(0 0)" fill="#fffbe5"/>
      <path id="Trazado_4669-6" data-name="Trazado 4669" d="M0,237.674V0" transform="translate(23.596 0.124)" fill="none" stroke="#38485c" stroke-width="1" stroke-dasharray="5 2"/>
      <path id="Trazado_4670-6" data-name="Trazado 4670" d="M0,237.674V0" transform="translate(0.067 0.124)" fill="none" stroke="#38485c" stroke-width="1" stroke-dasharray="5 2"/>
    </g>
    <g id="Grupo_17731" data-name="Grupo 17731" transform="translate(720.798 4461) rotate(180)" opacity="0.5">
      <rect id="Rectángulo_3425-7" data-name="Rectángulo 3425" width="22.742" height="237.135" transform="translate(0 0)" fill="#fffbe5"/>
      <path id="Trazado_4669-7" data-name="Trazado 4669" d="M0,237.674V0" transform="translate(23.596 0.124)" fill="none" stroke="#38485c" stroke-width="1" stroke-dasharray="5 2"/>
      <path id="Trazado_4670-7" data-name="Trazado 4670" d="M0,237.674V0" transform="translate(0.067 0.124)" fill="none" stroke="#38485c" stroke-width="1" stroke-dasharray="5 2"/>
    </g>
    <g id="Grupo_17725" data-name="Grupo 17725" transform="translate(1039 3969.404) rotate(90)" opacity="0.5">
      <rect id="Rectángulo_3425-8" data-name="Rectángulo 3425" width="3.09" height="341.337" transform="translate(0 0)" fill="#fffbe5"/>
      <path id="Trazado_4669-8" data-name="Trazado 4669" d="M0,341.877V0" transform="translate(3.944 0.124)" fill="none" stroke="#38485c" stroke-width="1" stroke-dasharray="5 2"/>
      <path id="Trazado_4670-8" data-name="Trazado 4670" d="M0,341.877V0" transform="translate(0.067 0.124)" fill="none" stroke="#38485c" stroke-width="1" stroke-dasharray="5 2"/>
    </g>
    <path id="Trazado_20248" data-name="Trazado 20248" d="M-21.451,0h-5.807V-1.043l2.209-2.221a18.79,18.79,0,0,0,1.3-1.421,3.392,3.392,0,0,0,.466-.788,2.125,2.125,0,0,0,.146-.791,1.206,1.206,0,0,0-.349-.914,1.336,1.336,0,0,0-.964-.334,2.57,2.57,0,0,0-.952.182,4.457,4.457,0,0,0-1.063.656l-.744-.908a4.8,4.8,0,0,1,1.389-.855,4.065,4.065,0,0,1,1.436-.252,2.824,2.824,0,0,1,1.916.624,2.108,2.108,0,0,1,.721,1.679,2.946,2.946,0,0,1-.208,1.1A4.477,4.477,0,0,1-22.6-4.21a14.6,14.6,0,0,1-1.433,1.5l-1.488,1.441v.059h4.066ZM-14.3-1.869h-1.154V0h-1.342V-1.869h-3.914V-2.93l3.914-5.66h1.342v5.578H-14.3Zm-2.5-1.143v-2.15q0-1.148.059-1.881h-.047a6.647,6.647,0,0,1-.516.938l-2.127,3.094ZM-9.814.117a2.27,2.27,0,0,1-1.91-.885h-.082q.082.82.082,1V2.883H-13.1V-6.48h1.113q.047.182.193.867h.07A2.157,2.157,0,0,1-9.791-6.6a2.249,2.249,0,0,1,1.89.879,3.963,3.963,0,0,1,.677,2.467A3.966,3.966,0,0,1-7.913-.773,2.27,2.27,0,0,1-9.814.117Zm-.334-5.59a1.431,1.431,0,0,0-1.2.48,2.49,2.49,0,0,0-.378,1.535v.205a3.031,3.031,0,0,0,.375,1.714,1.4,1.4,0,0,0,1.225.53,1.243,1.243,0,0,0,1.1-.586,3.026,3.026,0,0,0,.387-1.67,2.92,2.92,0,0,0-.384-1.649A1.28,1.28,0,0,0-10.148-5.473Zm5.965,2.162L-6.357-6.48h1.57l1.477,2.268L-1.822-6.48H-.264l-2.18,3.17L-.152,0H-1.711l-1.6-2.426L-4.9,0H-6.463Z" transform="translate(1083 3934)" fill="#38485c"/>
    <path id="Trazado_20243" data-name="Trazado 20243" d="M-21.451,0h-5.807V-1.043l2.209-2.221a18.79,18.79,0,0,0,1.3-1.421,3.392,3.392,0,0,0,.466-.788,2.125,2.125,0,0,0,.146-.791,1.206,1.206,0,0,0-.349-.914,1.336,1.336,0,0,0-.964-.334,2.57,2.57,0,0,0-.952.182,4.457,4.457,0,0,0-1.063.656l-.744-.908a4.8,4.8,0,0,1,1.389-.855,4.065,4.065,0,0,1,1.436-.252,2.824,2.824,0,0,1,1.916.624,2.108,2.108,0,0,1,.721,1.679,2.946,2.946,0,0,1-.208,1.1A4.477,4.477,0,0,1-22.6-4.21a14.6,14.6,0,0,1-1.433,1.5l-1.488,1.441v.059h4.066ZM-14.3-1.869h-1.154V0h-1.342V-1.869h-3.914V-2.93l3.914-5.66h1.342v5.578H-14.3Zm-2.5-1.143v-2.15q0-1.148.059-1.881h-.047a6.647,6.647,0,0,1-.516.938l-2.127,3.094ZM-9.814.117a2.27,2.27,0,0,1-1.91-.885h-.082q.082.82.082,1V2.883H-13.1V-6.48h1.113q.047.182.193.867h.07A2.157,2.157,0,0,1-9.791-6.6a2.249,2.249,0,0,1,1.89.879,3.963,3.963,0,0,1,.677,2.467A3.966,3.966,0,0,1-7.913-.773,2.27,2.27,0,0,1-9.814.117Zm-.334-5.59a1.431,1.431,0,0,0-1.2.48,2.49,2.49,0,0,0-.378,1.535v.205a3.031,3.031,0,0,0,.375,1.714,1.4,1.4,0,0,0,1.225.53,1.243,1.243,0,0,0,1.1-.586,3.026,3.026,0,0,0,.387-1.67,2.92,2.92,0,0,0-.384-1.649A1.28,1.28,0,0,0-10.148-5.473Zm5.965,2.162L-6.357-6.48h1.57l1.477,2.268L-1.822-6.48H-.264l-2.18,3.17L-.152,0H-1.711l-1.6-2.426L-4.9,0H-6.463Z" transform="translate(723 4211)" fill="#38485c"/>
    <path id="Trazado_20247" data-name="Trazado 20247" d="M-14.3-1.869h-1.154V0h-1.342V-1.869h-3.914V-2.93l3.914-5.66h1.342v5.578H-14.3Zm-2.5-1.143v-2.15q0-1.148.059-1.881h-.047a6.647,6.647,0,0,1-.516.938l-2.127,3.094ZM-9.814.117a2.27,2.27,0,0,1-1.91-.885h-.082q.082.82.082,1V2.883H-13.1V-6.48h1.113q.047.182.193.867h.07A2.157,2.157,0,0,1-9.791-6.6a2.249,2.249,0,0,1,1.89.879,3.963,3.963,0,0,1,.677,2.467A3.966,3.966,0,0,1-7.913-.773,2.27,2.27,0,0,1-9.814.117Zm-.334-5.59a1.431,1.431,0,0,0-1.2.48,2.49,2.49,0,0,0-.378,1.535v.205a3.031,3.031,0,0,0,.375,1.714,1.4,1.4,0,0,0,1.225.53,1.243,1.243,0,0,0,1.1-.586,3.026,3.026,0,0,0,.387-1.67,2.92,2.92,0,0,0-.384-1.649A1.28,1.28,0,0,0-10.148-5.473Zm5.965,2.162L-6.357-6.48h1.57l1.477,2.268L-1.822-6.48H-.264l-2.18,3.17L-.152,0H-1.711l-1.6-2.426L-4.9,0H-6.463Z" transform="translate(681 3976)" fill="#38485c"/>
    <path id="Trazado_20246" data-name="Trazado 20246" d="M-23.215,0h-1.377V-5.531q0-.99.047-1.57-.135.141-.331.311t-1.315,1.078l-.691-.873,2.52-1.98h1.148ZM-14.6,0h-5.807V-1.043L-18.2-3.264a18.79,18.79,0,0,0,1.3-1.421,3.392,3.392,0,0,0,.466-.788,2.125,2.125,0,0,0,.146-.791,1.206,1.206,0,0,0-.349-.914,1.336,1.336,0,0,0-.964-.334,2.57,2.57,0,0,0-.952.182,4.457,4.457,0,0,0-1.063.656l-.744-.908a4.8,4.8,0,0,1,1.389-.855,4.065,4.065,0,0,1,1.436-.252,2.824,2.824,0,0,1,1.916.624A2.108,2.108,0,0,1-14.9-6.387a2.946,2.946,0,0,1-.208,1.1,4.477,4.477,0,0,1-.639,1.075,14.6,14.6,0,0,1-1.433,1.5l-1.488,1.441v.059H-14.6Zm4.787.117a2.27,2.27,0,0,1-1.91-.885h-.082q.082.82.082,1V2.883H-13.1V-6.48h1.113q.047.182.193.867h.07A2.157,2.157,0,0,1-9.791-6.6a2.249,2.249,0,0,1,1.89.879,3.963,3.963,0,0,1,.677,2.467A3.966,3.966,0,0,1-7.913-.773,2.27,2.27,0,0,1-9.814.117Zm-.334-5.59a1.431,1.431,0,0,0-1.2.48,2.49,2.49,0,0,0-.378,1.535v.205a3.031,3.031,0,0,0,.375,1.714,1.4,1.4,0,0,0,1.225.53,1.243,1.243,0,0,0,1.1-.586,3.026,3.026,0,0,0,.387-1.67,2.92,2.92,0,0,0-.384-1.649A1.28,1.28,0,0,0-10.148-5.473Zm5.965,2.162L-6.357-6.48h1.57l1.477,2.268L-1.822-6.48H-.264l-2.18,3.17L-.152,0H-1.711l-1.6-2.426L-4.9,0H-6.463Z" transform="translate(681 4012)" fill="#38485c"/>
    <path id="Trazado_20244" data-name="Trazado 20244" d="M-23.215,0h-1.377V-5.531q0-.99.047-1.57-.135.141-.331.311t-1.315,1.078l-.691-.873,2.52-1.98h1.148Zm2.83-3.65q0-5.027,4.1-5.027a5.081,5.081,0,0,1,1.09.1V-7.43a3.721,3.721,0,0,0-1.031-.129A2.7,2.7,0,0,0-18.3-6.82a3.585,3.585,0,0,0-.75,2.367h.07a1.885,1.885,0,0,1,.773-.735,2.493,2.493,0,0,1,1.172-.261,2.331,2.331,0,0,1,1.816.715,2.773,2.773,0,0,1,.65,1.939,2.942,2.942,0,0,1-.753,2.13,2.717,2.717,0,0,1-2.054.782,2.866,2.866,0,0,1-1.6-.442,2.825,2.825,0,0,1-1.046-1.289A5.113,5.113,0,0,1-20.385-3.65ZM-17.4-1.02A1.347,1.347,0,0,0-16.3-1.477a1.979,1.979,0,0,0,.384-1.307,1.729,1.729,0,0,0-.36-1.16,1.343,1.343,0,0,0-1.081-.422,1.785,1.785,0,0,0-.82.19,1.507,1.507,0,0,0-.592.521,1.222,1.222,0,0,0-.217.677,2.17,2.17,0,0,0,.448,1.392A1.4,1.4,0,0,0-17.4-1.02ZM-9.814.117a2.27,2.27,0,0,1-1.91-.885h-.082q.082.82.082,1V2.883H-13.1V-6.48h1.113q.047.182.193.867h.07A2.157,2.157,0,0,1-9.791-6.6a2.249,2.249,0,0,1,1.89.879,3.963,3.963,0,0,1,.677,2.467A3.966,3.966,0,0,1-7.913-.773,2.27,2.27,0,0,1-9.814.117Zm-.334-5.59a1.431,1.431,0,0,0-1.2.48,2.49,2.49,0,0,0-.378,1.535v.205a3.031,3.031,0,0,0,.375,1.714,1.4,1.4,0,0,0,1.225.53,1.243,1.243,0,0,0,1.1-.586,3.026,3.026,0,0,0,.387-1.67,2.92,2.92,0,0,0-.384-1.649A1.28,1.28,0,0,0-10.148-5.473Zm5.965,2.162L-6.357-6.48h1.57l1.477,2.268L-1.822-6.48H-.264l-2.18,3.17L-.152,0H-1.711l-1.6-2.426L-4.9,0H-6.463Z" transform="translate(681 4096)" fill="#38485c"/>
    <path id="Trazado_20245" data-name="Trazado 20245" d="M-23.215,0h-1.377V-5.531q0-.99.047-1.57-.135.141-.331.311t-1.315,1.078l-.691-.873,2.52-1.98h1.148Zm2.83-3.65q0-5.027,4.1-5.027a5.081,5.081,0,0,1,1.09.1V-7.43a3.721,3.721,0,0,0-1.031-.129A2.7,2.7,0,0,0-18.3-6.82a3.585,3.585,0,0,0-.75,2.367h.07a1.885,1.885,0,0,1,.773-.735,2.493,2.493,0,0,1,1.172-.261,2.331,2.331,0,0,1,1.816.715,2.773,2.773,0,0,1,.65,1.939,2.942,2.942,0,0,1-.753,2.13,2.717,2.717,0,0,1-2.054.782,2.866,2.866,0,0,1-1.6-.442,2.825,2.825,0,0,1-1.046-1.289A5.113,5.113,0,0,1-20.385-3.65ZM-17.4-1.02A1.347,1.347,0,0,0-16.3-1.477a1.979,1.979,0,0,0,.384-1.307,1.729,1.729,0,0,0-.36-1.16,1.343,1.343,0,0,0-1.081-.422,1.785,1.785,0,0,0-.82.19,1.507,1.507,0,0,0-.592.521,1.222,1.222,0,0,0-.217.677,2.17,2.17,0,0,0,.448,1.392A1.4,1.4,0,0,0-17.4-1.02ZM-9.814.117a2.27,2.27,0,0,1-1.91-.885h-.082q.082.82.082,1V2.883H-13.1V-6.48h1.113q.047.182.193.867h.07A2.157,2.157,0,0,1-9.791-6.6a2.249,2.249,0,0,1,1.89.879,3.963,3.963,0,0,1,.677,2.467A3.966,3.966,0,0,1-7.913-.773,2.27,2.27,0,0,1-9.814.117Zm-.334-5.59a1.431,1.431,0,0,0-1.2.48,2.49,2.49,0,0,0-.378,1.535v.205a3.031,3.031,0,0,0,.375,1.714,1.4,1.4,0,0,0,1.225.53,1.243,1.243,0,0,0,1.1-.586,3.026,3.026,0,0,0,.387-1.67,2.92,2.92,0,0,0-.384-1.649A1.28,1.28,0,0,0-10.148-5.473Zm5.965,2.162L-6.357-6.48h1.57l1.477,2.268L-1.822-6.48H-.264l-2.18,3.17L-.152,0H-1.711l-1.6-2.426L-4.9,0H-6.463Z" transform="translate(681 4113)" fill="#38485c"/>
    <path id="Trazado_20242" data-name="Trazado 20242" d="M-21.451,0h-5.807V-1.043l2.209-2.221a18.79,18.79,0,0,0,1.3-1.421,3.392,3.392,0,0,0,.466-.788,2.125,2.125,0,0,0,.146-.791,1.206,1.206,0,0,0-.349-.914,1.336,1.336,0,0,0-.964-.334,2.57,2.57,0,0,0-.952.182,4.457,4.457,0,0,0-1.063.656l-.744-.908a4.8,4.8,0,0,1,1.389-.855,4.065,4.065,0,0,1,1.436-.252,2.824,2.824,0,0,1,1.916.624,2.108,2.108,0,0,1,.721,1.679,2.946,2.946,0,0,1-.208,1.1A4.477,4.477,0,0,1-22.6-4.21a14.6,14.6,0,0,1-1.433,1.5l-1.488,1.441v.059h4.066ZM-14.3-1.869h-1.154V0h-1.342V-1.869h-3.914V-2.93l3.914-5.66h1.342v5.578H-14.3Zm-2.5-1.143v-2.15q0-1.148.059-1.881h-.047a6.647,6.647,0,0,1-.516.938l-2.127,3.094ZM-9.814.117a2.27,2.27,0,0,1-1.91-.885h-.082q.082.82.082,1V2.883H-13.1V-6.48h1.113q.047.182.193.867h.07A2.157,2.157,0,0,1-9.791-6.6a2.249,2.249,0,0,1,1.89.879,3.963,3.963,0,0,1,.677,2.467A3.966,3.966,0,0,1-7.913-.773,2.27,2.27,0,0,1-9.814.117Zm-.334-5.59a1.431,1.431,0,0,0-1.2.48,2.49,2.49,0,0,0-.378,1.535v.205a3.031,3.031,0,0,0,.375,1.714,1.4,1.4,0,0,0,1.225.53,1.243,1.243,0,0,0,1.1-.586,3.026,3.026,0,0,0,.387-1.67,2.92,2.92,0,0,0-.384-1.649A1.28,1.28,0,0,0-10.148-5.473Zm5.965,2.162L-6.357-6.48h1.57l1.477,2.268L-1.822-6.48H-.264l-2.18,3.17L-.152,0H-1.711l-1.6-2.426L-4.9,0H-6.463Z" transform="translate(1083 4148)" fill="#38485c"/>
    <path id="Trazado_20241" data-name="Trazado 20241" d="M-21.451,0h-5.807V-1.043l2.209-2.221a18.79,18.79,0,0,0,1.3-1.421,3.392,3.392,0,0,0,.466-.788,2.125,2.125,0,0,0,.146-.791,1.206,1.206,0,0,0-.349-.914,1.336,1.336,0,0,0-.964-.334,2.57,2.57,0,0,0-.952.182,4.457,4.457,0,0,0-1.063.656l-.744-.908a4.8,4.8,0,0,1,1.389-.855,4.065,4.065,0,0,1,1.436-.252,2.824,2.824,0,0,1,1.916.624,2.108,2.108,0,0,1,.721,1.679,2.946,2.946,0,0,1-.208,1.1A4.477,4.477,0,0,1-22.6-4.21a14.6,14.6,0,0,1-1.433,1.5l-1.488,1.441v.059h4.066ZM-14.3-1.869h-1.154V0h-1.342V-1.869h-3.914V-2.93l3.914-5.66h1.342v5.578H-14.3Zm-2.5-1.143v-2.15q0-1.148.059-1.881h-.047a6.647,6.647,0,0,1-.516.938l-2.127,3.094ZM-9.814.117a2.27,2.27,0,0,1-1.91-.885h-.082q.082.82.082,1V2.883H-13.1V-6.48h1.113q.047.182.193.867h.07A2.157,2.157,0,0,1-9.791-6.6a2.249,2.249,0,0,1,1.89.879,3.963,3.963,0,0,1,.677,2.467A3.966,3.966,0,0,1-7.913-.773,2.27,2.27,0,0,1-9.814.117Zm-.334-5.59a1.431,1.431,0,0,0-1.2.48,2.49,2.49,0,0,0-.378,1.535v.205a3.031,3.031,0,0,0,.375,1.714,1.4,1.4,0,0,0,1.225.53,1.243,1.243,0,0,0,1.1-.586,3.026,3.026,0,0,0,.387-1.67,2.92,2.92,0,0,0-.384-1.649A1.28,1.28,0,0,0-10.148-5.473Zm5.965,2.162L-6.357-6.48h1.57l1.477,2.268L-1.822-6.48H-.264l-2.18,3.17L-.152,0H-1.711l-1.6-2.426L-4.9,0H-6.463Z" transform="translate(1041 4482)" fill="#38485c"/>
  </g>
</svg>
