<svg xmlns="http://www.w3.org/2000/svg" xmlns:xlink="http://www.w3.org/1999/xlink" width="712" height="636" viewBox="0 0 712 636"><defs><style>.a{fill:#f3f6f9;}.b{fill:#fff;}.c,.j{fill:none;}.c{stroke:#e6ebf0;}.d,.e,.f,.g{fill:#a0aab7;}.d{font-size:21px;font-family:Nunito-SemiBold, Nunito;}.d,.k{font-weight:600;}.d,.e{letter-spacing:-0.001em;}.e{font-size:19px;}.e,.f,.g{font-family:OpenSans-Regular, Open Sans;}.f{font-size:11.7px;}.g{font-size:16px;}.h{opacity:0.5;}.i{fill:#fffbe5;}.j{stroke:#38485c;stroke-dasharray:5 2;}.k{fill:#38485c;font-size:12px;font-family:OpenSans-SemiBold, Open Sans;}.l{filter:url(#c);}.m{filter:url(#a);}</style><filter id="a" x="179.5" y="32.5" width="351" height="247" filterUnits="userSpaceOnUse"><feOffset dy="1" input="SourceAlpha"/><feGaussianBlur stdDeviation="1.5" result="b"/><feFlood flood-color="#38485c" flood-opacity="0.2"/><feComposite operator="in" in2="b"/><feComposite in="SourceGraphic"/></filter><filter id="c" x="179.5" y="338.5" width="351" height="247" filterUnits="userSpaceOnUse"><feOffset dy="1" input="SourceAlpha"/><feGaussianBlur stdDeviation="1.5" result="d"/><feFlood flood-color="#38485c" flood-opacity="0.2"/><feComposite operator="in" in2="d"/><feComposite in="SourceGraphic"/></filter></defs><g transform="translate(-513 -4134)"><rect class="a" width="712" height="636" rx="4" transform="translate(513 4134)"/><g transform="translate(699 4019)"><g class="m" transform="matrix(1, 0, 0, 1, -186, 115)"><rect class="b" width="342" height="238" rx="8" transform="translate(184 36)"/></g><line class="c" x2="294" transform="translate(22 333)"/><text class="d" transform="translate(22 175)"><tspan x="0" y="21">Título de tarjeta</tspan></text><text class="e" transform="translate(22 207)"><tspan x="0" y="20">Título de tarjeta</tspan></text><text class="f" transform="translate(288 362)"><tspan x="-28.35" y="0">Contenido</tspan></text><text class="g" transform="translate(22 247)"><tspan x="0" y="17">Recomendamos en este espacio no </tspan><tspan x="0" y="41">utilizar más de 3 líneas, para generar </tspan><tspan x="0" y="65">una lectura óptima.</tspan></text></g><g transform="translate(699 4325)"><g class="l" transform="matrix(1, 0, 0, 1, -186, -191)"><rect class="b" width="342" height="238" rx="8" transform="translate(184 342)"/></g><line class="c" x2="294" transform="translate(22 333)"/><text class="d" transform="translate(22 175)"><tspan x="0" y="21">Título de tarjeta</tspan></text><text class="e" transform="translate(22 207)"><tspan x="0" y="20">Título de tarjeta</tspan></text><text class="f" transform="translate(288 362)"><tspan x="-28.35" y="0">Contenido</tspan></text><text class="g" transform="translate(22 247)"><tspan x="0" y="17">Recomendamos en este espacio no </tspan><tspan x="0" y="41">utilizar más de 3 líneas, para generar </tspan><tspan x="0" y="65">una lectura óptima.</tspan></text></g><g class="h" transform="translate(1039 4170.404) rotate(90)"><rect class="i" width="23.091" height="341.337" transform="translate(0 0)"/><path class="j" d="M0,341.877V0" transform="translate(23.945 0.124)"/><path class="j" d="M0,341.877V0" transform="translate(0.067 0.124)"/></g><g class="h" transform="translate(1039 4254.404) rotate(90)"><rect class="i" width="10.637" height="341.337" transform="translate(0 0)"/><path class="j" d="M0,341.877V0" transform="translate(11.491 0.124)"/><path class="j" d="M0,341.877V0" transform="translate(0.067 0.124)"/></g><g class="h" transform="translate(1039 4336.404) rotate(90)"><rect class="i" width="11.912" height="341.337" transform="translate(0 0)"/><path class="j" d="M0,341.877V0" transform="translate(12.766 0.124)"/><path class="j" d="M0,341.877V0" transform="translate(0.067 0.124)"/></g><g class="h" transform="translate(1039 4355.267) rotate(90)"><rect class="i" width="12.627" height="341.337" transform="translate(0 0)"/><path class="j" d="M0,341.877V0" transform="translate(13.48 0.124)"/><path class="j" d="M0,341.877V0" transform="translate(0.067 0.124)"/></g><g class="h" transform="translate(1039 4384.404) rotate(90)"><rect class="i" width="22.742" height="341.337" transform="translate(0 0)"/><path class="j" d="M0,341.877V0" transform="translate(23.596 0.124)"/><path class="j" d="M0,341.877V0" transform="translate(0.067 0.124)"/></g><g class="h" transform="translate(1038.798 4714) rotate(180)"><rect class="i" width="22.742" height="237.135" transform="translate(0 0)"/><path class="j" d="M0,237.674V0" transform="translate(23.596 0.124)"/><path class="j" d="M0,237.674V0" transform="translate(0.067 0.124)"/></g><g class="h" transform="translate(720.798 4714) rotate(180)"><rect class="i" width="22.742" height="237.135" transform="translate(0 0)"/><path class="j" d="M0,237.674V0" transform="translate(23.596 0.124)"/><path class="j" d="M0,237.674V0" transform="translate(0.067 0.124)"/></g><g class="h" transform="translate(1039 4222.404) rotate(90)"><rect class="i" width="3.09" height="341.337" transform="translate(0 0)"/><path class="j" d="M0,341.877V0" transform="translate(3.944 0.124)"/><path class="j" d="M0,341.877V0" transform="translate(0.067 0.124)"/></g><text class="k" transform="translate(1083 4187)"><tspan x="-27.785" y="0">24px</tspan></text><text class="k" transform="translate(723 4464)"><tspan x="-27.785" y="0">24px</tspan></text><text class="k" transform="translate(681 4229)"><tspan x="-20.936" y="0">4px</tspan></text><text class="k" transform="translate(681 4265)"><tspan x="-27.785" y="0">12px</tspan></text><text class="k" transform="translate(681 4349)"><tspan x="-27.785" y="0">16px</tspan></text><text class="k" transform="translate(681 4366)"><tspan x="-27.785" y="0">16px</tspan></text><text class="k" transform="translate(1083 4401)"><tspan x="-27.785" y="0">24px</tspan></text><text class="k" transform="translate(1041 4735)"><tspan x="-27.785" y="0">24px</tspan></text></g></svg>