<svg xmlns="http://www.w3.org/2000/svg" width="712" height="367" viewBox="0 0 712 367">
  <g id="Grupo_18297" data-name="Grupo 18297" transform="translate(-513 -1784)">
    <path id="Trazado_23976" data-name="Trazado 23976" d="M4,0H708c2.209,0,4,1.3,4,2.907V364.093c0,1.605-1.791,2.907-4,2.907H4c-2.209,0-4-1.3-4-2.907V2.907C0,1.3,1.791,0,4,0Z" transform="translate(513 1784)" fill="#f3f6f9"/>
    <rect id="Rectángulo_8991" data-name="Rectángulo 8991" width="340" height="199" rx="8" transform="translate(699 1876)" fill="#fff"/>
    <path id="Trazado_23977" data-name="Trazado 23977" d="M5.738,19.095a.944.944,0,0,1-.988-.988V7.239H.95q-.912,0-.912-.817a.767.767,0,0,1,.237-.608A.989.989,0,0,1,.95,5.605h9.576a.989.989,0,0,1,.675.209.767.767,0,0,1,.237.608q0,.817-.912.817h-3.8V18.107a.983.983,0,0,1-.266.712A.957.957,0,0,1,5.738,19.095Zm9.082,0a1.051,1.051,0,0,1-.693-.228.837.837,0,0,1-.276-.684V10.469a.866.866,0,0,1,.276-.693,1.024,1.024,0,0,1,.693-.238.988.988,0,0,1,.684.238.881.881,0,0,1,.266.693v7.714a.851.851,0,0,1-.266.684A1.014,1.014,0,0,1,14.82,19.095Zm.4-10.621a.541.541,0,0,1-.731-.019.479.479,0,0,1-.161-.361.506.506,0,0,1,.133-.342l2.052-2.679a1.084,1.084,0,0,1,.874-.513.826.826,0,0,1,.608.247.8.8,0,0,1,.247.589,1.073,1.073,0,0,1-.456.817Zm8.018,9.158a.953.953,0,0,1,.6.219.681.681,0,0,1,.181.5.656.656,0,0,1-.294.58,1.375,1.375,0,0,1-.865.161l-.513-.038a3.327,3.327,0,0,1-2.3-.94,3.492,3.492,0,0,1-.76-2.442V11.21h-1.14q-.836,0-.836-.741a.7.7,0,0,1,.219-.542.883.883,0,0,1,.617-.2h1.14V7.771a.9.9,0,0,1,.257-.684.958.958,0,0,1,.693-.247.992.992,0,0,1,.7.247.887.887,0,0,1,.266.684V9.728h1.881a.883.883,0,0,1,.618.2.792.792,0,0,1,0,1.093.912.912,0,0,1-.618.19H21.2v4.6a1.941,1.941,0,0,0,.371,1.311,1.6,1.6,0,0,0,1.13.475Zm9.329-8.094a.958.958,0,0,1,.693.247.9.9,0,0,1,.257.684V18.2a.841.841,0,0,1-.266.646.992.992,0,0,1-.7.247.893.893,0,0,1-.646-.237.842.842,0,0,1-.247-.636V17.5a2.976,2.976,0,0,1-1.207,1.216,3.543,3.543,0,0,1-1.719.418q-3.382,0-3.382-3.724v-4.94a.9.9,0,0,1,.257-.684.985.985,0,0,1,.712-.247.958.958,0,0,1,.694.247.9.9,0,0,1,.257.684V15.39a2.5,2.5,0,0,0,.456,1.653,1.752,1.752,0,0,0,1.406.532,2.34,2.34,0,0,0,1.8-.722,2.7,2.7,0,0,0,.674-1.919V10.469a.894.894,0,0,1,.266-.674A.97.97,0,0,1,32.566,9.538Zm4.579,9.557a1.051,1.051,0,0,1-.694-.228.837.837,0,0,1-.275-.684V6.441a.866.866,0,0,1,.275-.693,1.024,1.024,0,0,1,.694-.238.988.988,0,0,1,.684.238.881.881,0,0,1,.266.693V18.183a.851.851,0,0,1-.266.684A1.014,1.014,0,0,1,37.145,19.095Zm7.638.038a4.777,4.777,0,0,1-2.4-.589,3.974,3.974,0,0,1-1.6-1.682,5.483,5.483,0,0,1-.561-2.536,5.527,5.527,0,0,1,.561-2.556,3.974,3.974,0,0,1,1.6-1.682,5.2,5.2,0,0,1,4.807,0,3.974,3.974,0,0,1,1.6,1.682,5.527,5.527,0,0,1,.56,2.556,5.483,5.483,0,0,1-.56,2.536,3.974,3.974,0,0,1-1.6,1.682A4.777,4.777,0,0,1,44.783,19.133Zm0-1.52a2.356,2.356,0,0,0,1.947-.836,3.832,3.832,0,0,0,.674-2.451,3.8,3.8,0,0,0-.684-2.441,2.644,2.644,0,0,0-3.876,0,3.8,3.8,0,0,0-.684,2.441,3.832,3.832,0,0,0,.674,2.451A2.356,2.356,0,0,0,44.783,17.613ZM64.03,5.51a.992.992,0,0,1,.7.247A.864.864,0,0,1,65,6.422V18.164a.9.9,0,0,1-.257.684,1.1,1.1,0,0,1-1.387,0,.9.9,0,0,1-.257-.684V17.4a2.94,2.94,0,0,1-1.216,1.283,3.711,3.711,0,0,1-1.843.446,3.851,3.851,0,0,1-2.138-.608,4.042,4.042,0,0,1-1.463-1.71,5.832,5.832,0,0,1-.522-2.527,5.754,5.754,0,0,1,.522-2.527A3.836,3.836,0,0,1,60.04,9.5a3.657,3.657,0,0,1,1.833.446A2.979,2.979,0,0,1,63.08,11.21V6.384a.826.826,0,0,1,.257-.637A.981.981,0,0,1,64.03,5.51ZM60.5,17.613a2.318,2.318,0,0,0,1.919-.855,3.808,3.808,0,0,0,.684-2.432,3.846,3.846,0,0,0-.674-2.432,2.312,2.312,0,0,0-1.929-.855,2.378,2.378,0,0,0-1.947.846,3.7,3.7,0,0,0-.694,2.4,3.823,3.823,0,0,0,.7,2.441A2.34,2.34,0,0,0,60.5,17.613Zm14.421-.95a.54.54,0,0,1,.437.209.813.813,0,0,1,.171.532,1.093,1.093,0,0,1-.684.931,6.027,6.027,0,0,1-1.453.589,5.894,5.894,0,0,1-1.511.209A4.679,4.679,0,0,1,68.4,17.851a4.757,4.757,0,0,1-1.273-3.506,5.5,5.5,0,0,1,.561-2.527,4.121,4.121,0,0,1,1.577-1.71A4.41,4.41,0,0,1,71.573,9.5a3.773,3.773,0,0,1,2.945,1.2,4.633,4.633,0,0,1,1.083,3.23q0,.76-.684.76H69.046q.19,2.945,2.831,2.945a3.5,3.5,0,0,0,1.216-.19,8.843,8.843,0,0,0,1.083-.494q.057-.038.313-.162A1.037,1.037,0,0,1,74.917,16.663Zm-3.306-5.757a2.318,2.318,0,0,0-1.767.7,3.283,3.283,0,0,0-.8,1.976h4.9a3.176,3.176,0,0,0-.656-1.985A2.1,2.1,0,0,0,71.611,10.906ZM93.328,9.5q3.116,0,3.116,3.743v4.94a.857.857,0,0,1-.266.674,1.016,1.016,0,0,1-.7.237.988.988,0,0,1-.684-.237.857.857,0,0,1-.266-.674V13.262a2.7,2.7,0,0,0-.418-1.682,1.578,1.578,0,0,0-1.311-.523,2.06,2.06,0,0,0-1.653.713,2.9,2.9,0,0,0-.608,1.948v4.465a.857.857,0,0,1-.266.674,1.016,1.016,0,0,1-.7.237.988.988,0,0,1-.684-.237.857.857,0,0,1-.266-.674V13.262A2.7,2.7,0,0,0,88.2,11.58a1.578,1.578,0,0,0-1.311-.523,2.088,2.088,0,0,0-1.662.713,2.874,2.874,0,0,0-.618,1.948v4.465a.857.857,0,0,1-.266.674.988.988,0,0,1-.684.237,1.024,1.024,0,0,1-.694-.237.842.842,0,0,1-.275-.674V10.45a.835.835,0,0,1,.285-.665,1.009,1.009,0,0,1,.684-.247.927.927,0,0,1,.655.238.849.849,0,0,1,.257.655v.7a2.906,2.906,0,0,1,1.159-1.216,3.421,3.421,0,0,1,1.71-.418,3.243,3.243,0,0,1,1.757.437,2.611,2.611,0,0,1,1.035,1.349,3.17,3.17,0,0,1,1.235-1.3A3.58,3.58,0,0,1,93.328,9.5Zm9.747,9.633a4.777,4.777,0,0,1-2.4-.589,3.974,3.974,0,0,1-1.6-1.682,5.483,5.483,0,0,1-.561-2.536,5.527,5.527,0,0,1,.561-2.556,3.974,3.974,0,0,1,1.6-1.682,5.2,5.2,0,0,1,4.807,0,3.974,3.974,0,0,1,1.6,1.682,5.527,5.527,0,0,1,.561,2.556,5.483,5.483,0,0,1-.561,2.536,3.974,3.974,0,0,1-1.6,1.682A4.777,4.777,0,0,1,103.075,19.133Zm0-1.52a2.356,2.356,0,0,0,1.948-.836,3.832,3.832,0,0,0,.674-2.451,3.8,3.8,0,0,0-.684-2.441,2.644,2.644,0,0,0-3.876,0,3.8,3.8,0,0,0-.684,2.441,3.832,3.832,0,0,0,.674,2.451A2.356,2.356,0,0,0,103.075,17.613Zm14.25-12.1a.992.992,0,0,1,.7.247.864.864,0,0,1,.266.665V18.164a.9.9,0,0,1-.257.684,1.1,1.1,0,0,1-1.387,0,.9.9,0,0,1-.257-.684V17.4a2.94,2.94,0,0,1-1.216,1.283,3.711,3.711,0,0,1-1.843.446,3.851,3.851,0,0,1-2.137-.608,4.042,4.042,0,0,1-1.463-1.71,5.832,5.832,0,0,1-.523-2.527,5.754,5.754,0,0,1,.523-2.527,3.836,3.836,0,0,1,3.6-2.261,3.657,3.657,0,0,1,1.834.446,2.979,2.979,0,0,1,1.206,1.264V6.384a.826.826,0,0,1,.257-.637A.981.981,0,0,1,117.325,5.51Zm-3.534,12.1a2.318,2.318,0,0,0,1.919-.855,3.808,3.808,0,0,0,.684-2.432,3.846,3.846,0,0,0-.674-2.432,2.312,2.312,0,0,0-1.928-.855,2.378,2.378,0,0,0-1.948.846,3.7,3.7,0,0,0-.693,2.4,3.823,3.823,0,0,0,.7,2.441A2.34,2.34,0,0,0,113.791,17.613ZM124.849,9.5a3.664,3.664,0,0,1,2.745.931,3.927,3.927,0,0,1,.9,2.831v4.921a.892.892,0,0,1-.247.674.946.946,0,0,1-.684.237.851.851,0,0,1-.912-.912v-.7a2.673,2.673,0,0,1-1.074,1.226,3.169,3.169,0,0,1-1.662.427,3.7,3.7,0,0,1-1.662-.37,3.008,3.008,0,0,1-1.187-1.017,2.551,2.551,0,0,1-.437-1.463,2.221,2.221,0,0,1,.513-1.606,3.208,3.208,0,0,1,1.729-.836,16.714,16.714,0,0,1,3.325-.257h.437v-.551a2.234,2.234,0,0,0-.437-1.539,1.83,1.83,0,0,0-1.406-.475,4.477,4.477,0,0,0-1.254.171,9.428,9.428,0,0,0-1.292.494,1.862,1.862,0,0,1-.722.285.587.587,0,0,1-.465-.209.785.785,0,0,1-.181-.532.825.825,0,0,1,.161-.5,1.7,1.7,0,0,1,.523-.427,6.5,6.5,0,0,1,1.558-.58A7.266,7.266,0,0,1,124.849,9.5Zm-.589,8.208A2.234,2.234,0,0,0,125.97,17a2.58,2.58,0,0,0,.665-1.834v-.494h-.342a14.8,14.8,0,0,0-2.28.133,2.237,2.237,0,0,0-1.14.446,1.163,1.163,0,0,0-.342.9,1.429,1.429,0,0,0,.494,1.121A1.8,1.8,0,0,0,124.26,17.708Zm7.809,1.387a1.051,1.051,0,0,1-.693-.228.837.837,0,0,1-.275-.684V6.441a.866.866,0,0,1,.275-.693,1.024,1.024,0,0,1,.693-.238.988.988,0,0,1,.684.238.881.881,0,0,1,.266.693V18.183a.851.851,0,0,1-.266.684A1.014,1.014,0,0,1,132.069,19.095Z" transform="translate(723 1896)" fill="#38485c"/>
    <g id="Rectángulo_8992" data-name="Rectángulo 8992" transform="translate(723 1938)" fill="#e6ebf0" stroke="#e6ebf0" stroke-width="1">
      <rect width="292" height="1" stroke="none"/>
      <rect x="0.5" y="0.5" width="291" fill="none"/>
    </g>
    <path id="Trazado_23978" data-name="Trazado 23978" d="M4.923,0H91.077C93.8,0,96,1.791,96,4V30c0,2.209-2.2,4-4.923,4H4.923C2.2,34,0,32.209,0,30V4C0,1.791,2.2,0,4.923,0Z" transform="translate(919 2021)" fill="#c93b3b"/>
    <path id="Trazado_23979" data-name="Trazado 23979" d="M-23.457,0-24.6-3.172h-4.367L-30.082,0h-1.969l4.273-11.469h2.031L-21.473,0ZM-25.09-4.781l-1.07-3.109q-.117-.312-.324-.984t-.285-.984a17.509,17.509,0,0,1-.617,2.1l-1.031,2.977ZM-16.676.156a3.783,3.783,0,0,1-2.98-1.145,4.782,4.782,0,0,1-1.02-3.285,4.809,4.809,0,0,1,1.066-3.352A3.956,3.956,0,0,1-16.527-8.8a5.776,5.776,0,0,1,2.461.508l-.555,1.477a5.56,5.56,0,0,0-1.922-.453q-2.242,0-2.242,2.977a3.565,3.565,0,0,0,.559,2.184,1.934,1.934,0,0,0,1.637.73,4.7,4.7,0,0,0,2.32-.609v1.6A3.626,3.626,0,0,1-15.32.031,6.305,6.305,0,0,1-16.676.156Zm7.922,0a3.783,3.783,0,0,1-2.98-1.145,4.782,4.782,0,0,1-1.02-3.285,4.809,4.809,0,0,1,1.066-3.352A3.956,3.956,0,0,1-8.605-8.8a5.776,5.776,0,0,1,2.461.508L-6.7-6.812a5.56,5.56,0,0,0-1.922-.453q-2.242,0-2.242,2.977A3.565,3.565,0,0,0-10.3-2.105a1.934,1.934,0,0,0,1.637.73,4.7,4.7,0,0,0,2.32-.609v1.6A3.626,3.626,0,0,1-7.4.031,6.305,6.305,0,0,1-8.754.156ZM-2.48,0H-4.316V-8.641H-2.48ZM-4.426-10.93a1.017,1.017,0,0,1,.27-.758,1.05,1.05,0,0,1,.77-.266,1.028,1.028,0,0,1,.754.266,1.017,1.017,0,0,1,.27.758,1,1,0,0,1-.27.738,1.019,1.019,0,0,1-.754.27,1.041,1.041,0,0,1-.77-.27A1,1,0,0,1-4.426-10.93ZM7.809-4.336a4.716,4.716,0,0,1-1.086,3.3A3.891,3.891,0,0,1,3.7.156,4.143,4.143,0,0,1,1.559-.391a3.61,3.61,0,0,1-1.43-1.57,5.348,5.348,0,0,1-.5-2.375A4.684,4.684,0,0,1,.707-7.617,3.909,3.909,0,0,1,3.746-8.8,3.807,3.807,0,0,1,6.715-7.59,4.663,4.663,0,0,1,7.809-4.336Zm-6.289,0q0,2.992,2.211,2.992,2.188,0,2.188-2.992,0-2.961-2.2-2.961a1.879,1.879,0,0,0-1.676.766A3.9,3.9,0,0,0,1.52-4.336ZM2.527-9.7v-.2q.445-.547.918-1.219t.746-1.148H6.324v.164a16.043,16.043,0,0,1-1.215,1.23A17.129,17.129,0,0,1,3.746-9.7ZM17.52,0H15.676V-5.312a2.325,2.325,0,0,0-.4-1.492A1.555,1.555,0,0,0,14-7.3a2.031,2.031,0,0,0-1.7.688,3.8,3.8,0,0,0-.539,2.3V0H9.918V-8.641h1.438l.258,1.133h.094a2.556,2.556,0,0,1,1.109-.953A3.718,3.718,0,0,1,14.41-8.8q3.109,0,3.109,3.164ZM29.012,0H27.176V-7.375q0-1.32.063-2.094-.18.188-.441.414T25.043-7.617l-.922-1.164,3.359-2.641h1.531Z" transform="translate(967 2044)" fill="#fff"/>
    <g id="Grupo_18287" data-name="Grupo 18287" transform="translate(0 94)">
      <rect id="Rectángulo_8934" data-name="Rectángulo 8934" width="96" height="34" rx="4" transform="translate(811 1927)" fill="none"/>
      <path id="Trazado_23987" data-name="Trazado 23987" d="M-23.457,0-24.6-3.172h-4.367L-30.082,0h-1.969l4.273-11.469h2.031L-21.473,0ZM-25.09-4.781l-1.07-3.109q-.117-.312-.324-.984t-.285-.984a17.509,17.509,0,0,1-.617,2.1l-1.031,2.977ZM-16.676.156a3.783,3.783,0,0,1-2.98-1.145,4.782,4.782,0,0,1-1.02-3.285,4.809,4.809,0,0,1,1.066-3.352A3.956,3.956,0,0,1-16.527-8.8a5.776,5.776,0,0,1,2.461.508l-.555,1.477a5.56,5.56,0,0,0-1.922-.453q-2.242,0-2.242,2.977a3.565,3.565,0,0,0,.559,2.184,1.934,1.934,0,0,0,1.637.73,4.7,4.7,0,0,0,2.32-.609v1.6A3.626,3.626,0,0,1-15.32.031,6.305,6.305,0,0,1-16.676.156Zm7.922,0a3.783,3.783,0,0,1-2.98-1.145,4.782,4.782,0,0,1-1.02-3.285,4.809,4.809,0,0,1,1.066-3.352A3.956,3.956,0,0,1-8.605-8.8a5.776,5.776,0,0,1,2.461.508L-6.7-6.812a5.56,5.56,0,0,0-1.922-.453q-2.242,0-2.242,2.977A3.565,3.565,0,0,0-10.3-2.105a1.934,1.934,0,0,0,1.637.73,4.7,4.7,0,0,0,2.32-.609v1.6A3.626,3.626,0,0,1-7.4.031,6.305,6.305,0,0,1-8.754.156ZM-2.48,0H-4.316V-8.641H-2.48ZM-4.426-10.93a1.017,1.017,0,0,1,.27-.758,1.05,1.05,0,0,1,.77-.266,1.028,1.028,0,0,1,.754.266,1.017,1.017,0,0,1,.27.758,1,1,0,0,1-.27.738,1.019,1.019,0,0,1-.754.27,1.041,1.041,0,0,1-.77-.27A1,1,0,0,1-4.426-10.93ZM7.809-4.336a4.716,4.716,0,0,1-1.086,3.3A3.891,3.891,0,0,1,3.7.156,4.143,4.143,0,0,1,1.559-.391a3.61,3.61,0,0,1-1.43-1.57,5.348,5.348,0,0,1-.5-2.375A4.684,4.684,0,0,1,.707-7.617,3.909,3.909,0,0,1,3.746-8.8,3.807,3.807,0,0,1,6.715-7.59,4.663,4.663,0,0,1,7.809-4.336Zm-6.289,0q0,2.992,2.211,2.992,2.188,0,2.188-2.992,0-2.961-2.2-2.961a1.879,1.879,0,0,0-1.676.766A3.9,3.9,0,0,0,1.52-4.336ZM2.527-9.7v-.2q.445-.547.918-1.219t.746-1.148H6.324v.164a16.043,16.043,0,0,1-1.215,1.23A17.129,17.129,0,0,1,3.746-9.7ZM17.52,0H15.676V-5.312a2.325,2.325,0,0,0-.4-1.492A1.555,1.555,0,0,0,14-7.3a2.031,2.031,0,0,0-1.7.688,3.8,3.8,0,0,0-.539,2.3V0H9.918V-8.641h1.438l.258,1.133h.094a2.556,2.556,0,0,1,1.109-.953A3.718,3.718,0,0,1,14.41-8.8q3.109,0,3.109,3.164ZM31.363,0H23.621V-1.391l2.945-2.961A25.053,25.053,0,0,0,28.3-6.246,4.523,4.523,0,0,0,28.918-7.3a2.833,2.833,0,0,0,.2-1.055,1.608,1.608,0,0,0-.465-1.219,1.781,1.781,0,0,0-1.285-.445,3.426,3.426,0,0,0-1.27.242,5.942,5.942,0,0,0-1.418.875l-.992-1.211a6.4,6.4,0,0,1,1.852-1.141,5.42,5.42,0,0,1,1.914-.336A3.766,3.766,0,0,1,30-10.754a2.81,2.81,0,0,1,.961,2.238,3.928,3.928,0,0,1-.277,1.469,5.969,5.969,0,0,1-.852,1.434,19.461,19.461,0,0,1-1.91,2L25.941-1.7v.078h5.422Z" transform="translate(859 1950)" fill="#007bc7"/>
    </g>
    <path id="Trazado_23980" data-name="Trazado 23980" d="M7.938,17H1.57V5.578H7.938v1.18H2.9v3.68H7.633v1.172H2.9v4.2H7.938ZM15.8,14.664a2.145,2.145,0,0,1-.891,1.844,4.186,4.186,0,0,1-2.5.648,5.436,5.436,0,0,1-2.656-.539v-1.2a6.424,6.424,0,0,0,1.324.492,5.53,5.53,0,0,0,1.363.18A3.092,3.092,0,0,0,14,15.762a1.116,1.116,0,0,0,.113-1.844,6.82,6.82,0,0,0-1.691-.84,9.172,9.172,0,0,1-1.7-.777,2.321,2.321,0,0,1-.75-.754,1.966,1.966,0,0,1-.246-1.008,1.921,1.921,0,0,1,.852-1.652,3.968,3.968,0,0,1,2.336-.605,6.835,6.835,0,0,1,2.7.563L15.156,9.9a6.2,6.2,0,0,0-2.336-.531,2.688,2.688,0,0,0-1.391.289.894.894,0,0,0-.469.8.971.971,0,0,0,.176.586,1.735,1.735,0,0,0,.566.461,12.658,12.658,0,0,0,1.5.633,5.6,5.6,0,0,1,2.059,1.117A1.97,1.97,0,0,1,15.8,14.664Zm4.875,1.422a4.236,4.236,0,0,0,.664-.051,4.3,4.3,0,0,0,.508-.105v.992a2.371,2.371,0,0,1-.621.168,4.664,4.664,0,0,1-.738.066Q18,17.156,18,14.539V9.445H16.773V8.82L18,8.281l.547-1.828h.75V8.438h2.484V9.445H19.3v5.039a1.734,1.734,0,0,0,.367,1.188A1.278,1.278,0,0,0,20.672,16.086ZM28.82,17l-.258-1.219H28.5a3.6,3.6,0,0,1-1.277,1.09,3.893,3.893,0,0,1-1.59.285,2.86,2.86,0,0,1-2-.656,2.394,2.394,0,0,1-.723-1.867q0-2.594,4.148-2.719l1.453-.047v-.531a2.171,2.171,0,0,0-.434-1.488,1.783,1.783,0,0,0-1.387-.48,5.65,5.65,0,0,0-2.422.656l-.4-.992a6.094,6.094,0,0,1,1.387-.539,6.006,6.006,0,0,1,1.512-.2,3.262,3.262,0,0,1,2.27.68,2.837,2.837,0,0,1,.738,2.18V17Zm-2.93-.914a2.632,2.632,0,0,0,1.9-.664,2.457,2.457,0,0,0,.691-1.859v-.773l-1.3.055a4.717,4.717,0,0,0-2.23.48,1.449,1.449,0,0,0-.684,1.324,1.336,1.336,0,0,0,.426,1.07A1.767,1.767,0,0,0,25.891,16.086Zm14.336,1.07a3.934,3.934,0,0,1-3-1.156,4.476,4.476,0,0,1-1.1-3.211A4.964,4.964,0,0,1,37.152,9.5a3.387,3.387,0,0,1,2.738-1.219A3.229,3.229,0,0,1,42.438,9.34a4.057,4.057,0,0,1,.938,2.793v.82h-5.9a3.394,3.394,0,0,0,.762,2.289,2.634,2.634,0,0,0,2.035.781,6.9,6.9,0,0,0,2.734-.578V16.6a6.863,6.863,0,0,1-1.3.426A7.31,7.31,0,0,1,40.227,17.156Zm-.352-7.789a2.118,2.118,0,0,0-1.645.672,3.1,3.1,0,0,0-.723,1.859h4.477a2.851,2.851,0,0,0-.547-1.879A1.925,1.925,0,0,0,39.875,9.367Zm11.234,5.3a2.145,2.145,0,0,1-.891,1.844,4.186,4.186,0,0,1-2.5.648,5.436,5.436,0,0,1-2.656-.539v-1.2a6.424,6.424,0,0,0,1.324.492,5.53,5.53,0,0,0,1.363.18,3.092,3.092,0,0,0,1.563-.324,1.116,1.116,0,0,0,.113-1.844,6.82,6.82,0,0,0-1.691-.84,9.172,9.172,0,0,1-1.7-.777,2.321,2.321,0,0,1-.75-.754,1.966,1.966,0,0,1-.246-1.008,1.921,1.921,0,0,1,.852-1.652,3.968,3.968,0,0,1,2.336-.605,6.835,6.835,0,0,1,2.7.563L50.469,9.9a6.2,6.2,0,0,0-2.336-.531,2.688,2.688,0,0,0-1.391.289.894.894,0,0,0-.469.8.971.971,0,0,0,.176.586,1.735,1.735,0,0,0,.566.461,12.658,12.658,0,0,0,1.5.633,5.6,5.6,0,0,1,2.059,1.117A1.97,1.97,0,0,1,51.109,14.664ZM58.672,17h-1.3V4.844h1.3Zm8.016,0-.258-1.219h-.062a3.6,3.6,0,0,1-1.277,1.09,3.893,3.893,0,0,1-1.59.285,2.86,2.86,0,0,1-2-.656,2.394,2.394,0,0,1-.723-1.867q0-2.594,4.148-2.719l1.453-.047v-.531a2.171,2.171,0,0,0-.434-1.488,1.783,1.783,0,0,0-1.387-.48,5.65,5.65,0,0,0-2.422.656l-.4-.992a6.094,6.094,0,0,1,1.387-.539,6.006,6.006,0,0,1,1.512-.2,3.262,3.262,0,0,1,2.27.68,2.837,2.837,0,0,1,.738,2.18V17Zm-2.93-.914a2.632,2.632,0,0,0,1.9-.664,2.457,2.457,0,0,0,.691-1.859v-.773l-1.3.055a4.717,4.717,0,0,0-2.23.48,1.449,1.449,0,0,0-.684,1.324,1.336,1.336,0,0,0,.426,1.07A1.767,1.767,0,0,0,63.758,16.086ZM80.3,15.852h-.07a3.047,3.047,0,0,1-2.687,1.3,3.179,3.179,0,0,1-2.613-1.148A5.055,5.055,0,0,1,74,12.742a5.141,5.141,0,0,1,.938-3.289,3.155,3.155,0,0,1,2.609-1.172,3.114,3.114,0,0,1,2.672,1.266h.1l-.055-.617-.031-.6V4.844h1.3V17H80.477Zm-2.594.219a2.361,2.361,0,0,0,1.926-.723,3.652,3.652,0,0,0,.6-2.332v-.273a4.3,4.3,0,0,0-.605-2.6A2.3,2.3,0,0,0,77.7,9.367a1.985,1.985,0,0,0-1.746.887,4.409,4.409,0,0,0-.605,2.5,4.227,4.227,0,0,0,.6,2.477A2.037,2.037,0,0,0,77.711,16.07ZM87.9,17.156A3.934,3.934,0,0,1,84.9,16a4.476,4.476,0,0,1-1.1-3.211A4.964,4.964,0,0,1,84.824,9.5a3.387,3.387,0,0,1,2.738-1.219A3.229,3.229,0,0,1,90.109,9.34a4.057,4.057,0,0,1,.938,2.793v.82h-5.9a3.394,3.394,0,0,0,.762,2.289,2.635,2.635,0,0,0,2.035.781,6.9,6.9,0,0,0,2.734-.578V16.6a6.863,6.863,0,0,1-1.3.426A7.31,7.31,0,0,1,87.9,17.156Zm-.352-7.789a2.118,2.118,0,0,0-1.645.672A3.1,3.1,0,0,0,85.18,11.9h4.477a2.851,2.851,0,0,0-.547-1.879A1.925,1.925,0,0,0,87.547,9.367Zm11.234,5.3a2.145,2.145,0,0,1-.891,1.844,4.186,4.186,0,0,1-2.5.648,5.436,5.436,0,0,1-2.656-.539v-1.2a6.424,6.424,0,0,0,1.324.492,5.53,5.53,0,0,0,1.363.18,3.092,3.092,0,0,0,1.563-.324,1.116,1.116,0,0,0,.113-1.844,6.82,6.82,0,0,0-1.691-.84,9.172,9.172,0,0,1-1.7-.777,2.321,2.321,0,0,1-.75-.754,1.966,1.966,0,0,1-.246-1.008,1.921,1.921,0,0,1,.852-1.652A3.968,3.968,0,0,1,95.9,8.281a6.835,6.835,0,0,1,2.7.563L98.141,9.9A6.2,6.2,0,0,0,95.8,9.367a2.687,2.687,0,0,0-1.391.289.894.894,0,0,0-.469.8.971.971,0,0,0,.176.586,1.735,1.735,0,0,0,.566.461,12.657,12.657,0,0,0,1.5.633,5.6,5.6,0,0,1,2.059,1.117A1.97,1.97,0,0,1,98.781,14.664Zm5.531,2.492a3.654,3.654,0,0,1-2.879-1.145,4.707,4.707,0,0,1-1.02-3.238,4.853,4.853,0,0,1,1.035-3.32A3.727,3.727,0,0,1,104.4,8.281a5.852,5.852,0,0,1,1.234.133,4.066,4.066,0,0,1,.969.313l-.4,1.1a6.1,6.1,0,0,0-.937-.285,4.186,4.186,0,0,0-.9-.113q-2.609,0-2.609,3.328a3.963,3.963,0,0,0,.637,2.422,2.215,2.215,0,0,0,1.887.844,5.769,5.769,0,0,0,2.2-.461v1.148A4.679,4.679,0,0,1,104.313,17.156Zm8.1-8.875a5.075,5.075,0,0,1,1.023.094l-.18,1.2a4.418,4.418,0,0,0-.937-.117,2.282,2.282,0,0,0-1.777.844,3.077,3.077,0,0,0-.738,2.1V17h-1.3V8.438h1.07l.148,1.586h.063a3.764,3.764,0,0,1,1.148-1.289A2.585,2.585,0,0,1,112.414,8.281ZM116.336,17h-1.3V8.438h1.3ZM114.93,6.117a.861.861,0,0,1,.219-.652.81.81,0,0,1,1.086,0,.846.846,0,0,1,.227.648.859.859,0,0,1-.227.652.794.794,0,0,1-1.086,0A.877.877,0,0,1,114.93,6.117Zm8.141,11.039a3.706,3.706,0,0,1-1.527-.309,2.872,2.872,0,0,1-1.16-.949h-.094a11.485,11.485,0,0,1,.094,1.422v3.523h-1.3V8.438h1.055l.18,1.172h.063a3.012,3.012,0,0,1,1.164-1.016,3.539,3.539,0,0,1,1.523-.312A3.165,3.165,0,0,1,125.7,9.445a5.125,5.125,0,0,1,.926,3.266,5.1,5.1,0,0,1-.941,3.277A3.17,3.17,0,0,1,123.07,17.156Zm-.187-7.773a2.3,2.3,0,0,0-1.9.727,3.739,3.739,0,0,0-.6,2.313v.289a4.285,4.285,0,0,0,.6,2.582,2.288,2.288,0,0,0,1.93.777,2.007,2.007,0,0,0,1.738-.9,4.26,4.26,0,0,0,.629-2.477,4.1,4.1,0,0,0-.629-2.457A2.069,2.069,0,0,0,122.883,9.383Zm9.43,7.773a3.654,3.654,0,0,1-2.879-1.145,4.707,4.707,0,0,1-1.02-3.238,4.853,4.853,0,0,1,1.035-3.32A3.727,3.727,0,0,1,132.4,8.281a5.852,5.852,0,0,1,1.234.133,4.066,4.066,0,0,1,.969.313l-.4,1.1a6.1,6.1,0,0,0-.937-.285,4.186,4.186,0,0,0-.9-.113q-2.609,0-2.609,3.328a3.963,3.963,0,0,0,.637,2.422,2.215,2.215,0,0,0,1.887.844,5.769,5.769,0,0,0,2.2-.461v1.148A4.679,4.679,0,0,1,132.313,17.156ZM137.8,17h-1.3V8.438h1.3ZM136.4,6.117a.861.861,0,0,1,.219-.652.81.81,0,0,1,1.086,0,.846.846,0,0,1,.227.648.859.859,0,0,1-.227.652.794.794,0,0,1-1.086,0A.877.877,0,0,1,136.4,6.117Zm11.547,6.594a4.724,4.724,0,0,1-1.055,3.27,3.714,3.714,0,0,1-2.914,1.176,3.86,3.86,0,0,1-2.039-.539,3.558,3.558,0,0,1-1.375-1.547,5.391,5.391,0,0,1-.484-2.359,4.716,4.716,0,0,1,1.047-3.262,3.7,3.7,0,0,1,2.906-1.168,3.622,3.622,0,0,1,2.855,1.2A4.7,4.7,0,0,1,147.945,12.711Zm-6.523,0a4.064,4.064,0,0,0,.656,2.5,2.6,2.6,0,0,0,3.863,0,4.043,4.043,0,0,0,.66-2.5,3.978,3.978,0,0,0-.66-2.48,2.32,2.32,0,0,0-1.949-.848,2.283,2.283,0,0,0-1.922.836A4.023,4.023,0,0,0,141.422,12.711Zm1.5-5.6q.375-.484.809-1.172a13.413,13.413,0,0,0,.684-1.2h1.578v.164a11.549,11.549,0,0,1-1.023,1.25,11.62,11.62,0,0,1-1.18,1.148h-.867ZM156.078,17V11.461A2.235,2.235,0,0,0,155.6,9.9a1.941,1.941,0,0,0-1.492-.516,2.461,2.461,0,0,0-1.969.727,3.668,3.668,0,0,0-.625,2.4V17h-1.3V8.438h1.055l.211,1.172h.063a2.648,2.648,0,0,1,1.117-.98,3.63,3.63,0,0,1,1.6-.348,3.252,3.252,0,0,1,2.328.746,3.175,3.175,0,0,1,.781,2.387V17Zm13.945-1.148h-.07a3.047,3.047,0,0,1-2.687,1.3,3.179,3.179,0,0,1-2.613-1.148,5.055,5.055,0,0,1-.934-3.266,5.141,5.141,0,0,1,.938-3.289,3.155,3.155,0,0,1,2.609-1.172,3.114,3.114,0,0,1,2.672,1.266h.1l-.055-.617-.031-.6V4.844h1.3V17H170.2Zm-2.594.219a2.361,2.361,0,0,0,1.926-.723,3.652,3.652,0,0,0,.6-2.332v-.273a4.3,4.3,0,0,0-.605-2.6,2.3,2.3,0,0,0-1.934-.777,1.985,1.985,0,0,0-1.746.887,4.409,4.409,0,0,0-.605,2.5,4.227,4.227,0,0,0,.6,2.477A2.037,2.037,0,0,0,167.43,16.07Zm10.188,1.086a3.934,3.934,0,0,1-3-1.156,4.476,4.476,0,0,1-1.1-3.211,4.964,4.964,0,0,1,1.02-3.289,3.387,3.387,0,0,1,2.738-1.219,3.229,3.229,0,0,1,2.547,1.059,4.057,4.057,0,0,1,.938,2.793v.82h-5.9a3.394,3.394,0,0,0,.762,2.289,2.634,2.634,0,0,0,2.035.781,6.9,6.9,0,0,0,2.734-.578V16.6a6.863,6.863,0,0,1-1.3.426A7.31,7.31,0,0,1,177.617,17.156Zm-.352-7.789a2.118,2.118,0,0,0-1.645.672A3.1,3.1,0,0,0,174.9,11.9h4.477a2.851,2.851,0,0,0-.547-1.879A1.925,1.925,0,0,0,177.266,9.367ZM184.273,17h-1.3V4.844h1.3Zm17.82,0V11.43a2.312,2.312,0,0,0-.437-1.535,1.692,1.692,0,0,0-1.359-.512,2.195,2.195,0,0,0-1.789.7,3.3,3.3,0,0,0-.578,2.141V17h-1.3V11.43a2.312,2.312,0,0,0-.437-1.535,1.7,1.7,0,0,0-1.367-.512,2.118,2.118,0,0,0-1.785.73,3.953,3.953,0,0,0-.566,2.395V17h-1.3V8.438h1.055l.211,1.172h.063a2.549,2.549,0,0,1,1.035-.977,3.163,3.163,0,0,1,1.5-.352,2.544,2.544,0,0,1,2.625,1.453h.063a2.73,2.73,0,0,1,1.109-1.062,3.442,3.442,0,0,1,1.656-.391,2.9,2.9,0,0,1,2.176.746,3.338,3.338,0,0,1,.723,2.387V17Zm11.359-4.289a4.724,4.724,0,0,1-1.055,3.27,3.714,3.714,0,0,1-2.914,1.176,3.86,3.86,0,0,1-2.039-.539,3.558,3.558,0,0,1-1.375-1.547,5.391,5.391,0,0,1-.484-2.359,4.716,4.716,0,0,1,1.047-3.262,3.7,3.7,0,0,1,2.906-1.168,3.622,3.622,0,0,1,2.855,1.2A4.7,4.7,0,0,1,213.453,12.711Zm-6.523,0a4.064,4.064,0,0,0,.656,2.5,2.6,2.6,0,0,0,3.863,0,4.043,4.043,0,0,0,.66-2.5,3.978,3.978,0,0,0-.66-2.48,2.32,2.32,0,0,0-1.949-.848,2.283,2.283,0,0,0-1.922.836A4.023,4.023,0,0,0,206.93,12.711Zm14.625,3.141h-.07a3.047,3.047,0,0,1-2.687,1.3,3.179,3.179,0,0,1-2.613-1.148,5.055,5.055,0,0,1-.934-3.266,5.141,5.141,0,0,1,.938-3.289A3.155,3.155,0,0,1,218.8,8.281a3.114,3.114,0,0,1,2.672,1.266h.1l-.055-.617-.031-.6V4.844h1.3V17h-1.055Zm-2.594.219a2.361,2.361,0,0,0,1.926-.723,3.652,3.652,0,0,0,.6-2.332v-.273a4.3,4.3,0,0,0-.605-2.6,2.3,2.3,0,0,0-1.934-.777,1.985,1.985,0,0,0-1.746.887,4.409,4.409,0,0,0-.605,2.5,4.227,4.227,0,0,0,.6,2.477A2.037,2.037,0,0,0,218.961,16.07ZM230.8,17l-.258-1.219h-.062a3.6,3.6,0,0,1-1.277,1.09,3.893,3.893,0,0,1-1.59.285,2.86,2.86,0,0,1-2-.656,2.394,2.394,0,0,1-.723-1.867q0-2.594,4.148-2.719l1.453-.047v-.531a2.171,2.171,0,0,0-.434-1.488,1.783,1.783,0,0,0-1.387-.48,5.65,5.65,0,0,0-2.422.656l-.4-.992a6.094,6.094,0,0,1,1.387-.539,6.006,6.006,0,0,1,1.512-.2,3.262,3.262,0,0,1,2.27.68,2.837,2.837,0,0,1,.738,2.18V17Zm-2.93-.914a2.632,2.632,0,0,0,1.9-.664,2.457,2.457,0,0,0,.691-1.859v-.773l-1.3.055a4.717,4.717,0,0,0-2.23.48,1.449,1.449,0,0,0-.684,1.324,1.336,1.336,0,0,0,.426,1.07A1.767,1.767,0,0,0,227.867,16.086Zm7.859.914h-1.3V4.844h1.3Zm2.563-.828a1.164,1.164,0,0,1,.238-.793.864.864,0,0,1,.684-.27.924.924,0,0,1,.707.27,1.116,1.116,0,0,1,.254.793,1.1,1.1,0,0,1-.258.781,1.025,1.025,0,0,1-1.363.027A1.07,1.07,0,0,1,238.289,16.172Z" transform="translate(723 1959)" fill="#38485c"/>
    <g id="Grupo_18288" data-name="Grupo 18288" transform="translate(723 1876) rotate(90)">
      <rect id="Rectángulo_3425" data-name="Rectángulo 3425" width="24" height="199" transform="translate(199) rotate(90)" fill="#007bc7" opacity="0.24"/>
      <path id="Trazado_4669" data-name="Trazado 4669" d="M0,198.995V0" transform="translate(198.995 23.887) rotate(90)" fill="none" stroke="#007bc7" stroke-width="1" stroke-dasharray="5 2"/>
      <path id="Trazado_4670" data-name="Trazado 4670" d="M0,198.995V0" transform="translate(198.995) rotate(90)" fill="none" stroke="#007bc7" stroke-width="1" stroke-dasharray="5 2"/>
    </g>
    <g id="Grupo_18289" data-name="Grupo 18289" transform="translate(1039 1876) rotate(90)">
      <rect id="Rectángulo_3425-2" data-name="Rectángulo 3425" width="24" height="199" transform="translate(199) rotate(90)" fill="#007bc7" opacity="0.24"/>
      <path id="Trazado_4669-2" data-name="Trazado 4669" d="M0,198.995V0" transform="translate(198.995 23.887) rotate(90)" fill="none" stroke="#007bc7" stroke-width="1" stroke-dasharray="5 2"/>
      <path id="Trazado_4670-2" data-name="Trazado 4670" d="M0,198.995V0" transform="translate(198.995) rotate(90)" fill="none" stroke="#007bc7" stroke-width="1" stroke-dasharray="5 2"/>
    </g>
    <g id="Grupo_18290" data-name="Grupo 18290" transform="translate(919 2021) rotate(90)">
      <rect id="Rectángulo_3425-3" data-name="Rectángulo 3425" width="12" height="34" transform="translate(34) rotate(90)" fill="#007bc7" opacity="0.24"/>
      <path id="Trazado_4669-3" data-name="Trazado 4669" d="M0,34V0" transform="translate(33.999 11.944) rotate(90)" fill="none" stroke="#007bc7" stroke-width="1" stroke-dasharray="5 2"/>
      <path id="Trazado_4670-3" data-name="Trazado 4670" d="M0,34V0" transform="translate(33.999) rotate(90)" fill="none" stroke="#007bc7" stroke-width="1" stroke-dasharray="5 2"/>
    </g>
    <g id="Grupo_18291" data-name="Grupo 18291" transform="translate(699 1876)">
      <rect id="Rectángulo_3425-4" data-name="Rectángulo 3425" width="20" height="340" transform="translate(340) rotate(90)" fill="#38485c" opacity="0.24"/>
      <path id="Trazado_4669-4" data-name="Trazado 4669" d="M0,339.991V0" transform="translate(339.991 19.925) rotate(90)" fill="none" stroke="#38485c" stroke-width="1" stroke-dasharray="5 2"/>
      <path id="Trazado_4670-4" data-name="Trazado 4670" d="M0,339.991V0" transform="translate(339.991) rotate(90)" fill="none" stroke="#38485c" stroke-width="1" stroke-dasharray="5 2"/>
    </g>
    <g id="Grupo_18292" data-name="Grupo 18292" transform="translate(699 1922)">
      <rect id="Rectángulo_3425-5" data-name="Rectángulo 3425" width="16" height="340" transform="translate(340) rotate(90)" fill="#38485c" opacity="0.24"/>
      <path id="Trazado_4669-5" data-name="Trazado 4669" d="M0,339.991V0" transform="translate(339.991 15.94) rotate(90)" fill="none" stroke="#38485c" stroke-width="1" stroke-dasharray="5 2"/>
      <path id="Trazado_4670-5" data-name="Trazado 4670" d="M0,339.991V0" transform="translate(339.991) rotate(90)" fill="none" stroke="#38485c" stroke-width="1" stroke-dasharray="5 2"/>
    </g>
    <g id="Grupo_18293" data-name="Grupo 18293" transform="translate(699 1939)">
      <rect id="Rectángulo_3425-6" data-name="Rectángulo 3425" width="20" height="340" transform="translate(340) rotate(90)" fill="#38485c" opacity="0.24"/>
      <path id="Trazado_4669-6" data-name="Trazado 4669" d="M0,339.991V0" transform="translate(339.991 19.925) rotate(90)" fill="none" stroke="#38485c" stroke-width="1" stroke-dasharray="5 2"/>
      <path id="Trazado_4670-6" data-name="Trazado 4670" d="M0,339.991V0" transform="translate(339.991) rotate(90)" fill="none" stroke="#38485c" stroke-width="1" stroke-dasharray="5 2"/>
    </g>
    <g id="Grupo_18294" data-name="Grupo 18294" transform="translate(699 1981)">
      <rect id="Rectángulo_3425-7" data-name="Rectángulo 3425" width="40" height="340" transform="translate(340) rotate(90)" fill="#38485c" opacity="0.24"/>
      <path id="Trazado_4669-7" data-name="Trazado 4669" d="M0,339.991V0" transform="translate(339.991 39.851) rotate(90)" fill="none" stroke="#38485c" stroke-width="1" stroke-dasharray="5 2"/>
      <path id="Trazado_4670-7" data-name="Trazado 4670" d="M0,339.991V0" transform="translate(339.991) rotate(90)" fill="none" stroke="#38485c" stroke-width="1" stroke-dasharray="5 2"/>
    </g>
    <g id="Grupo_18295" data-name="Grupo 18295" transform="translate(699 2055)">
      <rect id="Rectángulo_3425-8" data-name="Rectángulo 3425" width="20" height="340" transform="translate(340) rotate(90)" fill="#38485c" opacity="0.24"/>
      <path id="Trazado_4669-8" data-name="Trazado 4669" d="M0,339.991V0" transform="translate(339.991 19.925) rotate(90)" fill="none" stroke="#38485c" stroke-width="1" stroke-dasharray="5 2"/>
      <path id="Trazado_4670-8" data-name="Trazado 4670" d="M0,339.991V0" transform="translate(339.991) rotate(90)" fill="none" stroke="#38485c" stroke-width="1" stroke-dasharray="5 2"/>
    </g>
    <path id="Trazado_23981" data-name="Trazado 23981" d="M-28.281,0h-7.742V-1.391l2.945-2.961a25.052,25.052,0,0,0,1.73-1.895A4.523,4.523,0,0,0-30.727-7.3a2.833,2.833,0,0,0,.2-1.055A1.608,1.608,0,0,0-31-9.57a1.781,1.781,0,0,0-1.285-.445,3.427,3.427,0,0,0-1.27.242,5.942,5.942,0,0,0-1.418.875l-.992-1.211a6.4,6.4,0,0,1,1.852-1.141,5.42,5.42,0,0,1,1.914-.336,3.766,3.766,0,0,1,2.555.832,2.81,2.81,0,0,1,.961,2.238,3.928,3.928,0,0,1-.277,1.469,5.969,5.969,0,0,1-.852,1.434,19.461,19.461,0,0,1-1.91,2L-33.7-1.7v.078h5.422Zm9.133-5.711a8.125,8.125,0,0,1-.957,4.422A3.267,3.267,0,0,1-23.031.156a3.243,3.243,0,0,1-2.891-1.492,7.979,7.979,0,0,1-.984-4.375,8.17,8.17,0,0,1,.957-4.457A3.268,3.268,0,0,1-23.031-11.6a3.246,3.246,0,0,1,2.9,1.5A8.039,8.039,0,0,1-19.148-5.711Zm-5.9,0a8.322,8.322,0,0,0,.48,3.336,1.6,1.6,0,0,0,1.535,1,1.615,1.615,0,0,0,1.543-1.016A8.216,8.216,0,0,0-21-5.711a8.281,8.281,0,0,0-.488-3.324,1.615,1.615,0,0,0-1.543-1.027,1.6,1.6,0,0,0-1.535,1.008A8.383,8.383,0,0,0-25.047-5.711ZM-12.766.156a3.026,3.026,0,0,1-2.547-1.18h-.109Q-15.312.07-15.312.3V3.844h-1.836V-8.641h1.484q.063.242.258,1.156h.094A2.876,2.876,0,0,1-12.734-8.8a3,3,0,0,1,2.52,1.172,5.284,5.284,0,0,1,.9,3.289,5.288,5.288,0,0,1-.918,3.3A3.026,3.026,0,0,1-12.766.156ZM-13.211-7.3a1.908,1.908,0,0,0-1.6.641,3.32,3.32,0,0,0-.5,2.047v.273a4.041,4.041,0,0,0,.5,2.285,1.86,1.86,0,0,0,1.633.707,1.658,1.658,0,0,0,1.469-.781A4.035,4.035,0,0,0-11.2-4.352a3.893,3.893,0,0,0-.512-2.2A1.707,1.707,0,0,0-13.211-7.3Zm7.633,2.883-2.9-4.227h2.094l1.969,3.023L-2.43-8.641H-.352L-3.258-4.414-.2,0H-2.281L-4.414-3.234-6.539,0H-8.617Z" transform="translate(683 1889)" fill="#38485c"/>
    <path id="Trazado_23982" data-name="Trazado 23982" d="M-28.281,0h-7.742V-1.391l2.945-2.961a25.052,25.052,0,0,0,1.73-1.895A4.523,4.523,0,0,0-30.727-7.3a2.833,2.833,0,0,0,.2-1.055A1.608,1.608,0,0,0-31-9.57a1.781,1.781,0,0,0-1.285-.445,3.427,3.427,0,0,0-1.27.242,5.942,5.942,0,0,0-1.418.875l-.992-1.211a6.4,6.4,0,0,1,1.852-1.141,5.42,5.42,0,0,1,1.914-.336,3.766,3.766,0,0,1,2.555.832,2.81,2.81,0,0,1,.961,2.238,3.928,3.928,0,0,1-.277,1.469,5.969,5.969,0,0,1-.852,1.434,19.461,19.461,0,0,1-1.91,2L-33.7-1.7v.078h5.422Zm9.539-2.492h-1.539V0H-22.07V-2.492h-5.219V-3.906l5.219-7.547h1.789v7.438h1.539ZM-22.07-4.016V-6.883q0-1.531.078-2.508h-.062a8.862,8.862,0,0,1-.687,1.25l-2.836,4.125Zm9.3,4.172a3.026,3.026,0,0,1-2.547-1.18h-.109Q-15.312.07-15.312.3V3.844h-1.836V-8.641h1.484q.063.242.258,1.156h.094A2.876,2.876,0,0,1-12.734-8.8a3,3,0,0,1,2.52,1.172,5.284,5.284,0,0,1,.9,3.289,5.288,5.288,0,0,1-.918,3.3A3.026,3.026,0,0,1-12.766.156ZM-13.211-7.3a1.908,1.908,0,0,0-1.6.641,3.32,3.32,0,0,0-.5,2.047v.273a4.041,4.041,0,0,0,.5,2.285,1.86,1.86,0,0,0,1.633.707,1.658,1.658,0,0,0,1.469-.781A4.035,4.035,0,0,0-11.2-4.352a3.893,3.893,0,0,0-.512-2.2A1.707,1.707,0,0,0-13.211-7.3Zm7.633,2.883-2.9-4.227h2.094l1.969,3.023L-2.43-8.641H-.352L-3.258-4.414-.2,0H-2.281L-4.414-3.234-6.539,0H-8.617Z" transform="translate(730 1855)" fill="#38485c"/>
    <path id="Trazado_23983" data-name="Trazado 23983" d="M-28.281,0h-7.742V-1.391l2.945-2.961a25.052,25.052,0,0,0,1.73-1.895A4.523,4.523,0,0,0-30.727-7.3a2.833,2.833,0,0,0,.2-1.055A1.608,1.608,0,0,0-31-9.57a1.781,1.781,0,0,0-1.285-.445,3.427,3.427,0,0,0-1.27.242,5.942,5.942,0,0,0-1.418.875l-.992-1.211a6.4,6.4,0,0,1,1.852-1.141,5.42,5.42,0,0,1,1.914-.336,3.766,3.766,0,0,1,2.555.832,2.81,2.81,0,0,1,.961,2.238,3.928,3.928,0,0,1-.277,1.469,5.969,5.969,0,0,1-.852,1.434,19.461,19.461,0,0,1-1.91,2L-33.7-1.7v.078h5.422Zm9.539-2.492h-1.539V0H-22.07V-2.492h-5.219V-3.906l5.219-7.547h1.789v7.438h1.539ZM-22.07-4.016V-6.883q0-1.531.078-2.508h-.062a8.862,8.862,0,0,1-.687,1.25l-2.836,4.125Zm9.3,4.172a3.026,3.026,0,0,1-2.547-1.18h-.109Q-15.312.07-15.312.3V3.844h-1.836V-8.641h1.484q.063.242.258,1.156h.094A2.876,2.876,0,0,1-12.734-8.8a3,3,0,0,1,2.52,1.172,5.284,5.284,0,0,1,.9,3.289,5.288,5.288,0,0,1-.918,3.3A3.026,3.026,0,0,1-12.766.156ZM-13.211-7.3a1.908,1.908,0,0,0-1.6.641,3.32,3.32,0,0,0-.5,2.047v.273a4.041,4.041,0,0,0,.5,2.285,1.86,1.86,0,0,0,1.633.707,1.658,1.658,0,0,0,1.469-.781A4.035,4.035,0,0,0-11.2-4.352a3.893,3.893,0,0,0-.512-2.2A1.707,1.707,0,0,0-13.211-7.3Zm7.633,2.883-2.9-4.227h2.094l1.969,3.023L-2.43-8.641H-.352L-3.258-4.414-.2,0H-2.281L-4.414-3.234-6.539,0H-8.617Z" transform="translate(1046 1855)" fill="#38485c"/>
    <path id="Trazado_23984" data-name="Trazado 23984" d="M-30.633,0h-1.836V-7.375q0-1.32.063-2.094-.18.188-.441.414T-34.6-7.617l-.922-1.164,3.359-2.641h1.531Zm11.484,0h-7.742V-1.391l2.945-2.961a25.053,25.053,0,0,0,1.73-1.895A4.523,4.523,0,0,0-21.594-7.3a2.833,2.833,0,0,0,.2-1.055,1.608,1.608,0,0,0-.465-1.219,1.781,1.781,0,0,0-1.285-.445,3.426,3.426,0,0,0-1.27.242,5.942,5.942,0,0,0-1.418.875l-.992-1.211a6.4,6.4,0,0,1,1.852-1.141,5.42,5.42,0,0,1,1.914-.336,3.766,3.766,0,0,1,2.555.832,2.81,2.81,0,0,1,.961,2.238,3.928,3.928,0,0,1-.277,1.469,5.969,5.969,0,0,1-.852,1.434,19.461,19.461,0,0,1-1.91,2L-24.57-1.7v.078h5.422Zm6.383.156a3.026,3.026,0,0,1-2.547-1.18h-.109Q-15.312.07-15.312.3V3.844h-1.836V-8.641h1.484q.063.242.258,1.156h.094A2.876,2.876,0,0,1-12.734-8.8a3,3,0,0,1,2.52,1.172,5.284,5.284,0,0,1,.9,3.289,5.288,5.288,0,0,1-.918,3.3A3.026,3.026,0,0,1-12.766.156ZM-13.211-7.3a1.908,1.908,0,0,0-1.6.641,3.32,3.32,0,0,0-.5,2.047v.273a4.041,4.041,0,0,0,.5,2.285,1.86,1.86,0,0,0,1.633.707,1.658,1.658,0,0,0,1.469-.781A4.035,4.035,0,0,0-11.2-4.352a3.893,3.893,0,0,0-.512-2.2A1.707,1.707,0,0,0-13.211-7.3Zm7.633,2.883-2.9-4.227h2.094l1.969,3.023L-2.43-8.641H-.352L-3.258-4.414-.2,0H-2.281L-4.414-3.234-6.539,0H-8.617Z" transform="translate(932 2100)" fill="#38485c"/>
    <path id="Trazado_23985" data-name="Trazado 23985" d="M-30.633,0h-1.836V-7.375q0-1.32.063-2.094-.18.188-.441.414T-34.6-7.617l-.922-1.164,3.359-2.641h1.531Zm3.773-4.867q0-6.7,5.461-6.7a6.774,6.774,0,0,1,1.453.133v1.531a4.961,4.961,0,0,0-1.375-.172,3.6,3.6,0,0,0-2.758.984,4.78,4.78,0,0,0-1,3.156h.094a2.513,2.513,0,0,1,1.031-.98,3.324,3.324,0,0,1,1.563-.348,3.108,3.108,0,0,1,2.422.953A3.7,3.7,0,0,1-19.1-3.727a3.923,3.923,0,0,1-1,2.84A3.622,3.622,0,0,1-22.844.156a3.822,3.822,0,0,1-2.133-.59,3.766,3.766,0,0,1-1.395-1.719A6.817,6.817,0,0,1-26.859-4.867Zm3.984,3.508a1.8,1.8,0,0,0,1.457-.609,2.638,2.638,0,0,0,.512-1.742,2.306,2.306,0,0,0-.48-1.547,1.791,1.791,0,0,0-1.441-.562,2.381,2.381,0,0,0-1.094.254,2.009,2.009,0,0,0-.789.7,1.629,1.629,0,0,0-.289.9,2.893,2.893,0,0,0,.6,1.855A1.865,1.865,0,0,0-22.875-1.359ZM-12.766.156a3.026,3.026,0,0,1-2.547-1.18h-.109Q-15.312.07-15.312.3V3.844h-1.836V-8.641h1.484q.063.242.258,1.156h.094A2.876,2.876,0,0,1-12.734-8.8a3,3,0,0,1,2.52,1.172,5.284,5.284,0,0,1,.9,3.289,5.288,5.288,0,0,1-.918,3.3A3.026,3.026,0,0,1-12.766.156ZM-13.211-7.3a1.908,1.908,0,0,0-1.6.641,3.32,3.32,0,0,0-.5,2.047v.273a4.041,4.041,0,0,0,.5,2.285,1.86,1.86,0,0,0,1.633.707,1.658,1.658,0,0,0,1.469-.781A4.035,4.035,0,0,0-11.2-4.352a3.893,3.893,0,0,0-.512-2.2A1.707,1.707,0,0,0-13.211-7.3Zm7.633,2.883-2.9-4.227h2.094l1.969,3.023L-2.43-8.641H-.352L-3.258-4.414-.2,0H-2.281L-4.414-3.234-6.539,0H-8.617Z" transform="translate(683 1934)" fill="#38485c"/>
    <path id="Trazado_23986" data-name="Trazado 23986" d="M-28.281,0h-7.742V-1.391l2.945-2.961a25.052,25.052,0,0,0,1.73-1.895A4.523,4.523,0,0,0-30.727-7.3a2.833,2.833,0,0,0,.2-1.055A1.608,1.608,0,0,0-31-9.57a1.781,1.781,0,0,0-1.285-.445,3.427,3.427,0,0,0-1.27.242,5.942,5.942,0,0,0-1.418.875l-.992-1.211a6.4,6.4,0,0,1,1.852-1.141,5.42,5.42,0,0,1,1.914-.336,3.766,3.766,0,0,1,2.555.832,2.81,2.81,0,0,1,.961,2.238,3.928,3.928,0,0,1-.277,1.469,5.969,5.969,0,0,1-.852,1.434,19.461,19.461,0,0,1-1.91,2L-33.7-1.7v.078h5.422Zm9.133-5.711a8.125,8.125,0,0,1-.957,4.422A3.267,3.267,0,0,1-23.031.156a3.243,3.243,0,0,1-2.891-1.492,7.979,7.979,0,0,1-.984-4.375,8.17,8.17,0,0,1,.957-4.457A3.268,3.268,0,0,1-23.031-11.6a3.246,3.246,0,0,1,2.9,1.5A8.039,8.039,0,0,1-19.148-5.711Zm-5.9,0a8.322,8.322,0,0,0,.48,3.336,1.6,1.6,0,0,0,1.535,1,1.615,1.615,0,0,0,1.543-1.016A8.216,8.216,0,0,0-21-5.711a8.281,8.281,0,0,0-.488-3.324,1.615,1.615,0,0,0-1.543-1.027,1.6,1.6,0,0,0-1.535,1.008A8.383,8.383,0,0,0-25.047-5.711ZM-12.766.156a3.026,3.026,0,0,1-2.547-1.18h-.109Q-15.312.07-15.312.3V3.844h-1.836V-8.641h1.484q.063.242.258,1.156h.094A2.876,2.876,0,0,1-12.734-8.8a3,3,0,0,1,2.52,1.172,5.284,5.284,0,0,1,.9,3.289,5.288,5.288,0,0,1-.918,3.3A3.026,3.026,0,0,1-12.766.156ZM-13.211-7.3a1.908,1.908,0,0,0-1.6.641,3.32,3.32,0,0,0-.5,2.047v.273a4.041,4.041,0,0,0,.5,2.285,1.86,1.86,0,0,0,1.633.707,1.658,1.658,0,0,0,1.469-.781A4.035,4.035,0,0,0-11.2-4.352a3.893,3.893,0,0,0-.512-2.2A1.707,1.707,0,0,0-13.211-7.3Zm7.633,2.883-2.9-4.227h2.094l1.969,3.023L-2.43-8.641H-.352L-3.258-4.414-.2,0H-2.281L-4.414-3.234-6.539,0H-8.617Z" transform="translate(683 1954)" fill="#38485c"/>
    <path id="Trazado_23987-2" data-name="Trazado 23987" d="M-27.875-2.492h-1.539V0H-31.2V-2.492h-5.219V-3.906l5.219-7.547h1.789v7.438h1.539ZM-31.2-4.016V-6.883q0-1.531.078-2.508h-.062a8.862,8.862,0,0,1-.687,1.25l-2.836,4.125Zm12.055-1.7a8.125,8.125,0,0,1-.957,4.422A3.267,3.267,0,0,1-23.031.156a3.243,3.243,0,0,1-2.891-1.492,7.979,7.979,0,0,1-.984-4.375,8.17,8.17,0,0,1,.957-4.457A3.268,3.268,0,0,1-23.031-11.6a3.246,3.246,0,0,1,2.9,1.5A8.039,8.039,0,0,1-19.148-5.711Zm-5.9,0a8.322,8.322,0,0,0,.48,3.336,1.6,1.6,0,0,0,1.535,1,1.615,1.615,0,0,0,1.543-1.016A8.216,8.216,0,0,0-21-5.711a8.281,8.281,0,0,0-.488-3.324,1.615,1.615,0,0,0-1.543-1.027,1.6,1.6,0,0,0-1.535,1.008A8.383,8.383,0,0,0-25.047-5.711ZM-12.766.156a3.026,3.026,0,0,1-2.547-1.18h-.109Q-15.312.07-15.312.3V3.844h-1.836V-8.641h1.484q.063.242.258,1.156h.094A2.876,2.876,0,0,1-12.734-8.8a3,3,0,0,1,2.52,1.172,5.284,5.284,0,0,1,.9,3.289,5.288,5.288,0,0,1-.918,3.3A3.026,3.026,0,0,1-12.766.156ZM-13.211-7.3a1.908,1.908,0,0,0-1.6.641,3.32,3.32,0,0,0-.5,2.047v.273a4.041,4.041,0,0,0,.5,2.285,1.86,1.86,0,0,0,1.633.707,1.658,1.658,0,0,0,1.469-.781A4.035,4.035,0,0,0-11.2-4.352a3.893,3.893,0,0,0-.512-2.2A1.707,1.707,0,0,0-13.211-7.3Zm7.633,2.883-2.9-4.227h2.094l1.969,3.023L-2.43-8.641H-.352L-3.258-4.414-.2,0H-2.281L-4.414-3.234-6.539,0H-8.617Z" transform="translate(683 2005)" fill="#38485c"/>
    <path id="Trazado_23988" data-name="Trazado 23988" d="M-28.281,0h-7.742V-1.391l2.945-2.961a25.052,25.052,0,0,0,1.73-1.895A4.523,4.523,0,0,0-30.727-7.3a2.833,2.833,0,0,0,.2-1.055A1.608,1.608,0,0,0-31-9.57a1.781,1.781,0,0,0-1.285-.445,3.427,3.427,0,0,0-1.27.242,5.942,5.942,0,0,0-1.418.875l-.992-1.211a6.4,6.4,0,0,1,1.852-1.141,5.42,5.42,0,0,1,1.914-.336,3.766,3.766,0,0,1,2.555.832,2.81,2.81,0,0,1,.961,2.238,3.928,3.928,0,0,1-.277,1.469,5.969,5.969,0,0,1-.852,1.434,19.461,19.461,0,0,1-1.91,2L-33.7-1.7v.078h5.422Zm9.133-5.711a8.125,8.125,0,0,1-.957,4.422A3.267,3.267,0,0,1-23.031.156a3.243,3.243,0,0,1-2.891-1.492,7.979,7.979,0,0,1-.984-4.375,8.17,8.17,0,0,1,.957-4.457A3.268,3.268,0,0,1-23.031-11.6a3.246,3.246,0,0,1,2.9,1.5A8.039,8.039,0,0,1-19.148-5.711Zm-5.9,0a8.322,8.322,0,0,0,.48,3.336,1.6,1.6,0,0,0,1.535,1,1.615,1.615,0,0,0,1.543-1.016A8.216,8.216,0,0,0-21-5.711a8.281,8.281,0,0,0-.488-3.324,1.615,1.615,0,0,0-1.543-1.027,1.6,1.6,0,0,0-1.535,1.008A8.383,8.383,0,0,0-25.047-5.711ZM-12.766.156a3.026,3.026,0,0,1-2.547-1.18h-.109Q-15.312.07-15.312.3V3.844h-1.836V-8.641h1.484q.063.242.258,1.156h.094A2.876,2.876,0,0,1-12.734-8.8a3,3,0,0,1,2.52,1.172,5.284,5.284,0,0,1,.9,3.289,5.288,5.288,0,0,1-.918,3.3A3.026,3.026,0,0,1-12.766.156ZM-13.211-7.3a1.908,1.908,0,0,0-1.6.641,3.32,3.32,0,0,0-.5,2.047v.273a4.041,4.041,0,0,0,.5,2.285,1.86,1.86,0,0,0,1.633.707,1.658,1.658,0,0,0,1.469-.781A4.035,4.035,0,0,0-11.2-4.352a3.893,3.893,0,0,0-.512-2.2A1.707,1.707,0,0,0-13.211-7.3Zm7.633,2.883-2.9-4.227h2.094l1.969,3.023L-2.43-8.641H-.352L-3.258-4.414-.2,0H-2.281L-4.414-3.234-6.539,0H-8.617Z" transform="translate(683 2066)" fill="#38485c"/>
    <path id="Trazado_23989" data-name="Trazado 23989" d="M11.44-1.232a.985.985,0,0,1,.1.416.8.8,0,0,1-.3.624,1.009,1.009,0,0,1-.68.256.909.909,0,0,1-.48-.136A.907.907,0,0,1,9.728-.5L8.768-2.64H3.136L2.176-.5a.907.907,0,0,1-.352.424.937.937,0,0,1-.5.136A1.019,1.019,0,0,1,.656-.192a.787.787,0,0,1-.3-.624.985.985,0,0,1,.1-.416L4.864-10.72a1.032,1.032,0,0,1,.44-.488,1.26,1.26,0,0,1,.632-.168,1.26,1.26,0,0,1,.632.168,1.032,1.032,0,0,1,.44.488ZM3.84-4.24H8.064L5.952-8.992ZM13.888.1a1.034,1.034,0,0,1-.712-.248.9.9,0,0,1-.28-.712v-9.552a.876.876,0,0,1,.28-.7,1.055,1.055,0,0,1,.712-.24,1.087,1.087,0,0,1,.72.24.864.864,0,0,1,.288.7V-.864a.888.888,0,0,1-.288.712A1.064,1.064,0,0,1,13.888.1Zm4.048,0a1.034,1.034,0,0,1-.712-.248.9.9,0,0,1-.28-.712V-7.04a.876.876,0,0,1,.28-.7,1.055,1.055,0,0,1,.712-.24,1.087,1.087,0,0,1,.72.24.864.864,0,0,1,.288.7V-.864a.888.888,0,0,1-.288.712A1.064,1.064,0,0,1,17.936.1Zm0-9.5a1.222,1.222,0,0,1-.864-.3,1.008,1.008,0,0,1-.32-.776.983.983,0,0,1,.32-.768,1.243,1.243,0,0,1,.864-.288,1.25,1.25,0,0,1,.856.288.971.971,0,0,1,.328.768,1.008,1.008,0,0,1-.32.776A1.222,1.222,0,0,1,17.936-9.408Zm7.6,1.392a2.615,2.615,0,0,1,2.1.8A3.628,3.628,0,0,1,28.32-4.8V-.864a.935.935,0,0,1-.264.7A1,1,0,0,1,27.328.1a1.03,1.03,0,0,1-.736-.256.92.92,0,0,1-.272-.7V-4.688a2.074,2.074,0,0,0-.344-1.328,1.322,1.322,0,0,0-1.08-.416,1.826,1.826,0,0,0-1.384.544,2.019,2.019,0,0,0-.52,1.456V-.864a.92.92,0,0,1-.272.7A1.03,1.03,0,0,1,21.984.1a1,1,0,0,1-.728-.256.935.935,0,0,1-.264-.7V-7.056a.88.88,0,0,1,.272-.672A1.03,1.03,0,0,1,22-7.984a.953.953,0,0,1,.68.248.848.848,0,0,1,.264.648v.432a2.706,2.706,0,0,1,1.072-1.008A3.226,3.226,0,0,1,25.536-8.016ZM36.528-2.144a.538.538,0,0,1,.44.208.865.865,0,0,1,.168.56.97.97,0,0,1-.592.832,5.349,5.349,0,0,1-1.232.488A5.079,5.079,0,0,1,34,.128,4.077,4.077,0,0,1,31.008-.96a3.988,3.988,0,0,1-1.1-2.976,4.566,4.566,0,0,1,.48-2.128A3.49,3.49,0,0,1,31.736-7.5a3.829,3.829,0,0,1,1.976-.512,3.546,3.546,0,0,1,1.84.464A3.146,3.146,0,0,1,36.768-6.24a4.353,4.353,0,0,1,.432,2q0,.688-.608.688h-4.72A2.517,2.517,0,0,0,32.5-1.928a2.1,2.1,0,0,0,1.536.52,2.913,2.913,0,0,0,.9-.128,8.923,8.923,0,0,0,.888-.352A1.766,1.766,0,0,1,36.528-2.144ZM33.76-6.608a1.717,1.717,0,0,0-1.3.512,2.417,2.417,0,0,0-.584,1.472h3.616a2.281,2.281,0,0,0-.48-1.48A1.583,1.583,0,0,0,33.76-6.608Zm8.448-1.408a3.259,3.259,0,0,1,2.424.808,3.383,3.383,0,0,1,.792,2.456v3.9a.9.9,0,0,1-.256.68.969.969,0,0,1-.7.248.936.936,0,0,1-.68-.256.894.894,0,0,1-.264-.672V-1.2a2.088,2.088,0,0,1-.856.976,2.568,2.568,0,0,1-1.352.352,3.139,3.139,0,0,1-1.424-.32,2.533,2.533,0,0,1-1.008-.88,2.224,2.224,0,0,1-.368-1.248,1.977,1.977,0,0,1,.44-1.36,2.644,2.644,0,0,1,1.432-.72,13.041,13.041,0,0,1,2.736-.224h.4v-.368a1.638,1.638,0,0,0-.336-1.144A1.43,1.43,0,0,0,42.1-6.5a3.452,3.452,0,0,0-.944.136q-.48.136-1.136.392a1.6,1.6,0,0,1-.608.208.6.6,0,0,1-.472-.208.791.791,0,0,1-.184-.544.819.819,0,0,1,.136-.472,1.291,1.291,0,0,1,.456-.376,5.215,5.215,0,0,1,1.336-.48A6.893,6.893,0,0,1,42.208-8.016Zm-.5,6.7a1.709,1.709,0,0,0,1.3-.536,1.939,1.939,0,0,0,.5-1.384v-.336h-.288a11.038,11.038,0,0,0-1.664.1,1.616,1.616,0,0,0-.848.336.856.856,0,0,0-.256.656,1.085,1.085,0,0,0,.36.84A1.27,1.27,0,0,0,41.712-1.312Zm9.2,1.44a4.146,4.146,0,0,1-2.056-.5,3.381,3.381,0,0,1-1.368-1.408,4.505,4.505,0,0,1-.48-2.128,4.468,4.468,0,0,1,.5-2.152A3.56,3.56,0,0,1,48.928-7.5a4.208,4.208,0,0,1,2.1-.512,4.665,4.665,0,0,1,1.256.176,4.143,4.143,0,0,1,1.112.48.99.99,0,0,1,.512.848.9.9,0,0,1-.168.568.531.531,0,0,1-.44.216.956.956,0,0,1-.368-.08A3.222,3.222,0,0,1,52.544-6a4.3,4.3,0,0,0-.672-.328,2.088,2.088,0,0,0-.736-.12,1.871,1.871,0,0,0-1.528.648,2.855,2.855,0,0,0-.536,1.864,2.827,2.827,0,0,0,.536,1.848,1.871,1.871,0,0,0,1.528.648,1.973,1.973,0,0,0,.712-.12,6.031,6.031,0,0,0,.7-.328A3.168,3.168,0,0,1,52.96-2.1a.923.923,0,0,1,.352-.072.531.531,0,0,1,.432.224.879.879,0,0,1,.176.56.9.9,0,0,1-.12.472,1.081,1.081,0,0,1-.392.36,4.207,4.207,0,0,1-1.152.5A4.953,4.953,0,0,1,50.912.128ZM56.224.1a1.034,1.034,0,0,1-.712-.248.9.9,0,0,1-.28-.712V-7.04a.876.876,0,0,1,.28-.7,1.055,1.055,0,0,1,.712-.24,1.087,1.087,0,0,1,.72.24.864.864,0,0,1,.288.7V-.864a.888.888,0,0,1-.288.712A1.064,1.064,0,0,1,56.224.1Zm0-9.5a1.222,1.222,0,0,1-.864-.3,1.008,1.008,0,0,1-.32-.776.983.983,0,0,1,.32-.768,1.243,1.243,0,0,1,.864-.288,1.25,1.25,0,0,1,.856.288.971.971,0,0,1,.328.768,1.008,1.008,0,0,1-.32.776A1.222,1.222,0,0,1,56.224-9.408ZM62.848.128a4.3,4.3,0,0,1-2.1-.5,3.432,3.432,0,0,1-1.4-1.424,4.515,4.515,0,0,1-.5-2.16,4.468,4.468,0,0,1,.5-2.152,3.444,3.444,0,0,1,1.4-1.416,4.3,4.3,0,0,1,2.1-.5,4.3,4.3,0,0,1,2.1.5A3.394,3.394,0,0,1,66.344-6.1a4.527,4.527,0,0,1,.488,2.152,4.575,4.575,0,0,1-.488,2.16A3.382,3.382,0,0,1,64.952-.368,4.3,4.3,0,0,1,62.848.128Zm-.016-1.552a1.793,1.793,0,0,0,1.488-.64,2.973,2.973,0,0,0,.512-1.888,2.979,2.979,0,0,0-.512-1.88,1.765,1.765,0,0,0-1.472-.648,1.788,1.788,0,0,0-1.48.648,2.946,2.946,0,0,0-.52,1.88,2.973,2.973,0,0,0,.512,1.888A1.775,1.775,0,0,0,62.832-1.424ZM63.248-8.9a.6.6,0,0,1-.352.128.511.511,0,0,1-.376-.152.492.492,0,0,1-.152-.36.6.6,0,0,1,.128-.352L64.048-11.7a1.059,1.059,0,0,1,.848-.48.817.817,0,0,1,.6.248.8.8,0,0,1,.248.584.936.936,0,0,1-.432.768Zm9.76.88a2.615,2.615,0,0,1,2.1.8A3.628,3.628,0,0,1,75.792-4.8V-.864a.935.935,0,0,1-.264.7A1,1,0,0,1,74.8.1a1.03,1.03,0,0,1-.736-.256.92.92,0,0,1-.272-.7V-4.688a2.074,2.074,0,0,0-.344-1.328,1.322,1.322,0,0,0-1.08-.416,1.826,1.826,0,0,0-1.384.544,2.019,2.019,0,0,0-.52,1.456V-.864a.92.92,0,0,1-.272.7A1.03,1.03,0,0,1,69.456.1a1,1,0,0,1-.728-.256.935.935,0,0,1-.264-.7V-7.056a.88.88,0,0,1,.272-.672,1.03,1.03,0,0,1,.736-.256.953.953,0,0,1,.68.248.848.848,0,0,1,.264.648v.432a2.706,2.706,0,0,1,1.072-1.008A3.226,3.226,0,0,1,73.008-8.016Zm-68.576,18a3.259,3.259,0,0,1,2.424.808,3.383,3.383,0,0,1,.792,2.456v3.9a.9.9,0,0,1-.256.68.969.969,0,0,1-.7.248.936.936,0,0,1-.68-.256.894.894,0,0,1-.264-.672V16.8a2.088,2.088,0,0,1-.856.976,2.568,2.568,0,0,1-1.352.352,3.139,3.139,0,0,1-1.424-.32,2.533,2.533,0,0,1-1.008-.88A2.224,2.224,0,0,1,.736,15.68a1.977,1.977,0,0,1,.44-1.36,2.644,2.644,0,0,1,1.432-.72,13.041,13.041,0,0,1,2.736-.224h.4v-.368a1.638,1.638,0,0,0-.336-1.144A1.43,1.43,0,0,0,4.32,11.5a3.452,3.452,0,0,0-.944.136q-.48.136-1.136.392a1.6,1.6,0,0,1-.608.208.6.6,0,0,1-.472-.208.791.791,0,0,1-.184-.544.819.819,0,0,1,.136-.472,1.291,1.291,0,0,1,.456-.376A5.215,5.215,0,0,1,2.9,10.16,6.893,6.893,0,0,1,4.432,9.984Zm-.5,6.7a1.709,1.709,0,0,0,1.3-.536,1.939,1.939,0,0,0,.5-1.384v-.336H5.456a11.038,11.038,0,0,0-1.664.1,1.616,1.616,0,0,0-.848.336.856.856,0,0,0-.256.656,1.085,1.085,0,0,0,.36.84A1.27,1.27,0,0,0,3.936,16.688ZM14.976,18.1a1.034,1.034,0,0,1-.712-.248.9.9,0,0,1-.28-.712V7.584a.876.876,0,0,1,.28-.7,1.055,1.055,0,0,1,.712-.24,1.087,1.087,0,0,1,.72.24.864.864,0,0,1,.288.7v9.552a.888.888,0,0,1-.288.712A1.064,1.064,0,0,1,14.976,18.1Zm6.448-8.112a3.259,3.259,0,0,1,2.424.808,3.383,3.383,0,0,1,.792,2.456v3.9a.9.9,0,0,1-.256.68.969.969,0,0,1-.7.248.936.936,0,0,1-.68-.256.894.894,0,0,1-.264-.672V16.8a2.088,2.088,0,0,1-.856.976,2.568,2.568,0,0,1-1.352.352,3.139,3.139,0,0,1-1.424-.32,2.533,2.533,0,0,1-1.008-.88,2.224,2.224,0,0,1-.368-1.248,1.977,1.977,0,0,1,.44-1.36A2.644,2.644,0,0,1,19.6,13.6a13.041,13.041,0,0,1,2.736-.224h.4v-.368a1.638,1.638,0,0,0-.336-1.144,1.43,1.43,0,0,0-1.088-.36,3.452,3.452,0,0,0-.944.136q-.48.136-1.136.392a1.6,1.6,0,0,1-.608.208.6.6,0,0,1-.472-.208.791.791,0,0,1-.184-.544.819.819,0,0,1,.136-.472,1.291,1.291,0,0,1,.456-.376,5.215,5.215,0,0,1,1.336-.48A6.893,6.893,0,0,1,21.424,9.984Zm-.5,6.7a1.709,1.709,0,0,0,1.3-.536,1.939,1.939,0,0,0,.5-1.384v-.336h-.288a11.038,11.038,0,0,0-1.664.1,1.616,1.616,0,0,0-.848.336.856.856,0,0,0-.256.656,1.085,1.085,0,0,0,.36.84A1.27,1.27,0,0,0,20.928,16.688ZM37.5,6.64a1.066,1.066,0,0,1,.736.256.856.856,0,0,1,.288.672v9.568a.9.9,0,0,1-.272.688,1.14,1.14,0,0,1-1.44,0,.9.9,0,0,1-.272-.688v-.4a2.5,2.5,0,0,1-1.016,1.024,3.066,3.066,0,0,1-1.512.368,3.243,3.243,0,0,1-1.8-.512,3.4,3.4,0,0,1-1.232-1.448,5,5,0,0,1-.44-2.152,4.845,4.845,0,0,1,.44-2.128,3.23,3.23,0,0,1,3.032-1.9,3.131,3.131,0,0,1,1.5.352,2.442,2.442,0,0,1,1.008.992V7.536a.848.848,0,0,1,.264-.648A1,1,0,0,1,37.5,6.64Zm-2.96,9.936a1.779,1.779,0,0,0,1.48-.656,2.952,2.952,0,0,0,.52-1.872,2.917,2.917,0,0,0-.52-1.864,1.77,1.77,0,0,0-1.464-.648,1.821,1.821,0,0,0-1.488.64,2.823,2.823,0,0,0-.528,1.84,2.989,2.989,0,0,0,.528,1.888A1.766,1.766,0,0,0,34.544,16.576Zm12.224-.72a.538.538,0,0,1,.44.208.865.865,0,0,1,.168.56.97.97,0,0,1-.592.832,5.349,5.349,0,0,1-1.232.488,5.079,5.079,0,0,1-1.312.184,4.077,4.077,0,0,1-2.992-1.088,3.988,3.988,0,0,1-1.1-2.976,4.566,4.566,0,0,1,.48-2.128,3.49,3.49,0,0,1,1.352-1.44,3.829,3.829,0,0,1,1.976-.512,3.546,3.546,0,0,1,1.84.464,3.146,3.146,0,0,1,1.216,1.312,4.354,4.354,0,0,1,.432,2q0,.688-.608.688h-4.72a2.517,2.517,0,0,0,.624,1.624,2.1,2.1,0,0,0,1.536.52,2.913,2.913,0,0,0,.9-.128,8.923,8.923,0,0,0,.888-.352A1.766,1.766,0,0,1,46.768,15.856ZM44,11.392a1.717,1.717,0,0,0-1.3.512,2.417,2.417,0,0,0-.584,1.472h3.616a2.281,2.281,0,0,0-.48-1.48A1.583,1.583,0,0,0,44,11.392Zm9.424-1.376a.861.861,0,0,1,.656.176.781.781,0,0,1,.24.624.872.872,0,0,1-.208.64,1.278,1.278,0,0,1-.752.272l-.48.048a1.944,1.944,0,0,0-1.384.64,2.093,2.093,0,0,0-.44,1.36v3.36a.888.888,0,0,1-.288.712,1.064,1.064,0,0,1-.72.248,1.034,1.034,0,0,1-.712-.248.9.9,0,0,1-.28-.712V10.944a.856.856,0,0,1,.28-.688,1.032,1.032,0,0,1,.7-.24.962.962,0,0,1,.672.232.85.85,0,0,1,.256.664v.64a2.368,2.368,0,0,1,.9-1.088,2.771,2.771,0,0,1,1.336-.432Zm7.776,5.84a.538.538,0,0,1,.44.208.865.865,0,0,1,.168.56.97.97,0,0,1-.592.832,5.349,5.349,0,0,1-1.232.488,5.079,5.079,0,0,1-1.312.184A4.077,4.077,0,0,1,55.68,17.04a3.988,3.988,0,0,1-1.1-2.976,4.566,4.566,0,0,1,.48-2.128,3.49,3.49,0,0,1,1.352-1.44,3.829,3.829,0,0,1,1.976-.512,3.546,3.546,0,0,1,1.84.464A3.146,3.146,0,0,1,61.44,11.76a4.354,4.354,0,0,1,.432,2q0,.688-.608.688h-4.72a2.517,2.517,0,0,0,.624,1.624,2.1,2.1,0,0,0,1.536.52,2.913,2.913,0,0,0,.9-.128,8.923,8.923,0,0,0,.888-.352A1.766,1.766,0,0,1,61.2,15.856Zm-2.768-4.464a1.717,1.717,0,0,0-1.3.512,2.417,2.417,0,0,0-.584,1.472H60.16a2.281,2.281,0,0,0-.48-1.48A1.583,1.583,0,0,0,58.432,11.392Zm8.528,6.736a4.146,4.146,0,0,1-2.056-.5,3.381,3.381,0,0,1-1.368-1.408,4.505,4.505,0,0,1-.48-2.128,4.468,4.468,0,0,1,.5-2.152A3.56,3.56,0,0,1,64.976,10.5a4.208,4.208,0,0,1,2.1-.512,4.665,4.665,0,0,1,1.256.176,4.143,4.143,0,0,1,1.112.48.99.99,0,0,1,.512.848.9.9,0,0,1-.168.568.531.531,0,0,1-.44.216.956.956,0,0,1-.368-.08A3.223,3.223,0,0,1,68.592,12a4.3,4.3,0,0,0-.672-.328,2.088,2.088,0,0,0-.736-.12,1.871,1.871,0,0,0-1.528.648,2.855,2.855,0,0,0-.536,1.864,2.827,2.827,0,0,0,.536,1.848,1.871,1.871,0,0,0,1.528.648,1.973,1.973,0,0,0,.712-.12,6.032,6.032,0,0,0,.7-.328,3.168,3.168,0,0,1,.416-.216.923.923,0,0,1,.352-.072.531.531,0,0,1,.432.224.879.879,0,0,1,.176.56.9.9,0,0,1-.12.472,1.081,1.081,0,0,1-.392.36,4.207,4.207,0,0,1-1.152.5A4.953,4.953,0,0,1,66.96,18.128Zm8.9-8.144q2.752,0,2.752,3.216v3.936a.935.935,0,0,1-.264.7,1,1,0,0,1-.728.256,1.03,1.03,0,0,1-.736-.256.92.92,0,0,1-.272-.7V13.2a1.852,1.852,0,0,0-.344-1.24,1.365,1.365,0,0,0-1.08-.392,1.826,1.826,0,0,0-1.384.544,2.019,2.019,0,0,0-.52,1.456v3.568a.92.92,0,0,1-.272.7,1.03,1.03,0,0,1-.736.256,1,1,0,0,1-.728-.256.935.935,0,0,1-.264-.7V7.568a.868.868,0,0,1,.28-.672,1.037,1.037,0,0,1,.728-.256,1.048,1.048,0,0,1,.72.24.83.83,0,0,1,.272.656v3.728a2.619,2.619,0,0,1,1.064-.952A3.37,3.37,0,0,1,75.856,9.984Zm8.16,0a3.259,3.259,0,0,1,2.424.808,3.383,3.383,0,0,1,.792,2.456v3.9a.9.9,0,0,1-.256.68.969.969,0,0,1-.7.248.936.936,0,0,1-.68-.256.894.894,0,0,1-.264-.672V16.8a2.088,2.088,0,0,1-.856.976,2.568,2.568,0,0,1-1.352.352,3.139,3.139,0,0,1-1.424-.32,2.533,2.533,0,0,1-1.008-.88,2.224,2.224,0,0,1-.368-1.248,1.977,1.977,0,0,1,.44-1.36,2.644,2.644,0,0,1,1.432-.72,13.041,13.041,0,0,1,2.736-.224h.4v-.368a1.638,1.638,0,0,0-.336-1.144A1.43,1.43,0,0,0,83.9,11.5a3.452,3.452,0,0,0-.944.136q-.48.136-1.136.392a1.6,1.6,0,0,1-.608.208.6.6,0,0,1-.472-.208.791.791,0,0,1-.184-.544.819.819,0,0,1,.136-.472,1.291,1.291,0,0,1,.456-.376,5.215,5.215,0,0,1,1.336-.48A6.893,6.893,0,0,1,84.016,9.984Zm-.5,6.7a1.709,1.709,0,0,0,1.3-.536,1.939,1.939,0,0,0,.5-1.384v-.336H85.04a11.038,11.038,0,0,0-1.664.1,1.615,1.615,0,0,0-.848.336.856.856,0,0,0-.256.656,1.085,1.085,0,0,0,.36.84A1.27,1.27,0,0,0,83.52,16.688Z" transform="translate(1064 2034)" fill="#38485c"/>
    <g id="Grupo_18296" data-name="Grupo 18296" transform="translate(1055 2054.787) rotate(-90)">
      <line id="Línea_114" data-name="Línea 114" x2="33.788" transform="translate(0 3.034)" fill="none" stroke="#38485c" stroke-linecap="round" stroke-width="1"/>
      <path id="Trazado_4671" data-name="Trazado 4671" d="M0,0V3.033" transform="translate(33.788 3.034) rotate(180)" fill="none" stroke="#38485c" stroke-linecap="round" stroke-width="1"/>
      <path id="Trazado_20265" data-name="Trazado 20265" d="M0,0V3.033" transform="translate(-0.213 3.033) rotate(180)" fill="none" stroke="#38485c" stroke-linecap="round" stroke-width="1"/>
    </g>
  </g>
</svg>
