<svg xmlns="http://www.w3.org/2000/svg" width="712" height="387" viewBox="0 0 712 387">
  <g id="Group_32459" data-name="Group 32459" transform="translate(6254 19372)">
    <rect id="Rectangle_26403" data-name="Rectangle 26403" width="712" height="387" rx="8" transform="translate(-6254 -19372)" fill="gray"/>
    <rect id="Rectangle_23922" data-name="Rectangle 23922" width="340" height="243" rx="8" transform="translate(-6068 -19300)" fill="#fff"/>
    <path id="Rectangle_23922_-_Outline" data-name="Rectangle 23922 - Outline" d="M8,0A8,8,0,0,0,0,8V235a8,8,0,0,0,8,8H332a8,8,0,0,0,8-8V8a8,8,0,0,0-8-8H8M8-2H332A10.011,10.011,0,0,1,342,8V235a10.011,10.011,0,0,1-10,10H8A10.011,10.011,0,0,1-2,235V8A10.011,10.011,0,0,1,8-2Z" transform="translate(-6068 -19300)" fill="#e6ebf0"/>
    <rect id="Rectangle_3061" data-name="Rectangle 3061" width="82" height="40" rx="8" transform="translate(-5834 -19121)" fill="#ffdb2e"/>
    <path id="Path_31926" data-name="Path 31926" d="M9.18-6.552a3.07,3.07,0,0,1,1.7,1.116,3.222,3.222,0,0,1,.6,1.98A3.056,3.056,0,0,1,10.323-.918,5.023,5.023,0,0,1,7.128,0H2.484a1.127,1.127,0,0,1-.819-.288,1.076,1.076,0,0,1-.3-.81V-11.592a1.076,1.076,0,0,1,.3-.81,1.127,1.127,0,0,1,.819-.288H6.948a4.949,4.949,0,0,1,3.1.873,2.912,2.912,0,0,1,1.125,2.439,2.91,2.91,0,0,1-.531,1.746A3.036,3.036,0,0,1,9.18-6.552ZM3.636-7.344H6.57q2.394,0,2.394-1.782a1.537,1.537,0,0,0-.594-1.332,3.062,3.062,0,0,0-1.8-.432H3.636ZM6.876-1.8a2.992,2.992,0,0,0,1.836-.45,1.671,1.671,0,0,0,.576-1.4A1.711,1.711,0,0,0,8.7-5.076a2.91,2.91,0,0,0-1.827-.468H3.636V-1.8ZM17.478.144a4.843,4.843,0,0,1-2.367-.558,3.861,3.861,0,0,1-1.575-1.6,5.079,5.079,0,0,1-.558-2.43,5.026,5.026,0,0,1,.558-2.421A3.874,3.874,0,0,1,15.111-8.46a4.843,4.843,0,0,1,2.367-.558,4.843,4.843,0,0,1,2.367.558,3.818,3.818,0,0,1,1.566,1.593,5.093,5.093,0,0,1,.549,2.421,5.147,5.147,0,0,1-.549,2.43,3.805,3.805,0,0,1-1.566,1.6A4.843,4.843,0,0,1,17.478.144ZM17.46-1.6a2.017,2.017,0,0,0,1.674-.72,3.345,3.345,0,0,0,.576-2.124,3.352,3.352,0,0,0-.576-2.115,1.986,1.986,0,0,0-1.656-.729,2.012,2.012,0,0,0-1.665.729,3.314,3.314,0,0,0-.585,2.115A3.345,3.345,0,0,0,15.8-2.322,2,2,0,0,0,17.46-1.6Zm10.872.036q.9.054.9.81a.732.732,0,0,1-.351.657,1.675,1.675,0,0,1-1,.189L27.4.054a2.9,2.9,0,0,1-3.024-3.24V-7.11h-.9a1.143,1.143,0,0,1-.747-.216.771.771,0,0,1-.261-.63.771.771,0,0,1,.261-.63,1.143,1.143,0,0,1,.747-.216h.9v-1.656a1.012,1.012,0,0,1,.306-.774,1.159,1.159,0,0,1,.828-.288,1.134,1.134,0,0,1,.81.288,1.012,1.012,0,0,1,.306.774V-8.8h1.53a1.143,1.143,0,0,1,.747.216.771.771,0,0,1,.261.63.771.771,0,0,1-.261.63,1.143,1.143,0,0,1-.747.216h-1.53v4.086q0,1.332,1.224,1.422ZM34.416.144a4.843,4.843,0,0,1-2.367-.558,3.861,3.861,0,0,1-1.575-1.6,5.079,5.079,0,0,1-.558-2.43,5.026,5.026,0,0,1,.558-2.421A3.874,3.874,0,0,1,32.049-8.46a4.843,4.843,0,0,1,2.367-.558,4.843,4.843,0,0,1,2.367.558,3.818,3.818,0,0,1,1.566,1.593A5.093,5.093,0,0,1,38.9-4.446a5.147,5.147,0,0,1-.549,2.43,3.805,3.805,0,0,1-1.566,1.6A4.843,4.843,0,0,1,34.416.144ZM34.4-1.6a2.017,2.017,0,0,0,1.674-.72,3.345,3.345,0,0,0,.576-2.124,3.352,3.352,0,0,0-.576-2.115,1.986,1.986,0,0,0-1.656-.729,2.012,2.012,0,0,0-1.665.729,3.314,3.314,0,0,0-.585,2.115,3.345,3.345,0,0,0,.576,2.124A2,2,0,0,0,34.4-1.6Zm.468-8.406a.671.671,0,0,1-.4.144.575.575,0,0,1-.423-.171.554.554,0,0,1-.171-.4.671.671,0,0,1,.144-.4l1.746-2.322a1.191,1.191,0,0,1,.954-.54.919.919,0,0,1,.675.279.9.9,0,0,1,.279.657,1.053,1.053,0,0,1-.486.864Zm11,.99a2.942,2.942,0,0,1,2.358.9A4.081,4.081,0,0,1,49-5.4V-.972a1.052,1.052,0,0,1-.3.792,1.127,1.127,0,0,1-.819.288,1.159,1.159,0,0,1-.828-.288,1.035,1.035,0,0,1-.306-.792v-4.3a2.334,2.334,0,0,0-.387-1.494,1.487,1.487,0,0,0-1.215-.468,2.054,2.054,0,0,0-1.557.612A2.272,2.272,0,0,0,43-4.986V-.972A1.035,1.035,0,0,1,42.7-.18a1.159,1.159,0,0,1-.828.288,1.127,1.127,0,0,1-.819-.288,1.052,1.052,0,0,1-.3-.792V-7.938a.99.99,0,0,1,.306-.756,1.159,1.159,0,0,1,.828-.288,1.072,1.072,0,0,1,.765.279.954.954,0,0,1,.3.729v.486a3.044,3.044,0,0,1,1.206-1.134A3.629,3.629,0,0,1,45.864-9.018Z" transform="translate(-5818 -19095)" fill="#38485c"/>
    <rect id="Rectangle_3061-2" data-name="Rectangle 3061" width="82" height="40" rx="8" transform="translate(-5924 -19121)" fill="#f5f9fc"/>
    <path id="Path_31925" data-name="Path 31925" d="M9.18-6.552a3.07,3.07,0,0,1,1.7,1.116,3.222,3.222,0,0,1,.6,1.98A3.056,3.056,0,0,1,10.323-.918,5.023,5.023,0,0,1,7.128,0H2.484a1.127,1.127,0,0,1-.819-.288,1.076,1.076,0,0,1-.3-.81V-11.592a1.076,1.076,0,0,1,.3-.81,1.127,1.127,0,0,1,.819-.288H6.948a4.949,4.949,0,0,1,3.1.873,2.912,2.912,0,0,1,1.125,2.439,2.91,2.91,0,0,1-.531,1.746A3.036,3.036,0,0,1,9.18-6.552ZM3.636-7.344H6.57q2.394,0,2.394-1.782a1.537,1.537,0,0,0-.594-1.332,3.062,3.062,0,0,0-1.8-.432H3.636ZM6.876-1.8a2.992,2.992,0,0,0,1.836-.45,1.671,1.671,0,0,0,.576-1.4A1.711,1.711,0,0,0,8.7-5.076a2.91,2.91,0,0,0-1.827-.468H3.636V-1.8ZM17.478.144a4.843,4.843,0,0,1-2.367-.558,3.861,3.861,0,0,1-1.575-1.6,5.079,5.079,0,0,1-.558-2.43,5.026,5.026,0,0,1,.558-2.421A3.874,3.874,0,0,1,15.111-8.46a4.843,4.843,0,0,1,2.367-.558,4.843,4.843,0,0,1,2.367.558,3.818,3.818,0,0,1,1.566,1.593,5.093,5.093,0,0,1,.549,2.421,5.147,5.147,0,0,1-.549,2.43,3.805,3.805,0,0,1-1.566,1.6A4.843,4.843,0,0,1,17.478.144ZM17.46-1.6a2.017,2.017,0,0,0,1.674-.72,3.345,3.345,0,0,0,.576-2.124,3.352,3.352,0,0,0-.576-2.115,1.986,1.986,0,0,0-1.656-.729,2.012,2.012,0,0,0-1.665.729,3.314,3.314,0,0,0-.585,2.115A3.345,3.345,0,0,0,15.8-2.322,2,2,0,0,0,17.46-1.6Zm10.872.036q.9.054.9.81a.732.732,0,0,1-.351.657,1.675,1.675,0,0,1-1,.189L27.4.054a2.9,2.9,0,0,1-3.024-3.24V-7.11h-.9a1.143,1.143,0,0,1-.747-.216.771.771,0,0,1-.261-.63.771.771,0,0,1,.261-.63,1.143,1.143,0,0,1,.747-.216h.9v-1.656a1.012,1.012,0,0,1,.306-.774,1.159,1.159,0,0,1,.828-.288,1.134,1.134,0,0,1,.81.288,1.012,1.012,0,0,1,.306.774V-8.8h1.53a1.143,1.143,0,0,1,.747.216.771.771,0,0,1,.261.63.771.771,0,0,1-.261.63,1.143,1.143,0,0,1-.747.216h-1.53v4.086q0,1.332,1.224,1.422ZM34.416.144a4.843,4.843,0,0,1-2.367-.558,3.861,3.861,0,0,1-1.575-1.6,5.079,5.079,0,0,1-.558-2.43,5.026,5.026,0,0,1,.558-2.421A3.874,3.874,0,0,1,32.049-8.46a4.843,4.843,0,0,1,2.367-.558,4.843,4.843,0,0,1,2.367.558,3.818,3.818,0,0,1,1.566,1.593A5.093,5.093,0,0,1,38.9-4.446a5.147,5.147,0,0,1-.549,2.43,3.805,3.805,0,0,1-1.566,1.6A4.843,4.843,0,0,1,34.416.144ZM34.4-1.6a2.017,2.017,0,0,0,1.674-.72,3.345,3.345,0,0,0,.576-2.124,3.352,3.352,0,0,0-.576-2.115,1.986,1.986,0,0,0-1.656-.729,2.012,2.012,0,0,0-1.665.729,3.314,3.314,0,0,0-.585,2.115,3.345,3.345,0,0,0,.576,2.124A2,2,0,0,0,34.4-1.6Zm.468-8.406a.671.671,0,0,1-.4.144.575.575,0,0,1-.423-.171.554.554,0,0,1-.171-.4.671.671,0,0,1,.144-.4l1.746-2.322a1.191,1.191,0,0,1,.954-.54.919.919,0,0,1,.675.279.9.9,0,0,1,.279.657,1.053,1.053,0,0,1-.486.864Zm11,.99a2.942,2.942,0,0,1,2.358.9A4.081,4.081,0,0,1,49-5.4V-.972a1.052,1.052,0,0,1-.3.792,1.127,1.127,0,0,1-.819.288,1.159,1.159,0,0,1-.828-.288,1.035,1.035,0,0,1-.306-.792v-4.3a2.334,2.334,0,0,0-.387-1.494,1.487,1.487,0,0,0-1.215-.468,2.054,2.054,0,0,0-1.557.612A2.272,2.272,0,0,0,43-4.986V-.972A1.035,1.035,0,0,1,42.7-.18a1.159,1.159,0,0,1-.828.288,1.127,1.127,0,0,1-.819-.288,1.052,1.052,0,0,1-.3-.792V-7.938a.99.99,0,0,1,.306-.756,1.159,1.159,0,0,1,.828-.288,1.072,1.072,0,0,1,.765.279.954.954,0,0,1,.3.729v.486a3.044,3.044,0,0,1,1.206-1.134A3.629,3.629,0,0,1,45.864-9.018Z" transform="translate(-5908 -19095)" fill="#007bc7"/>
    <path id="_Text_Body_1_Selected_On_Surface_Medium_Emphasis_Left_" data-name="✱ / Text / Body 1 / Selected / On Surface / Medium Emphasis / Left " d="M1.57,17V5.578H2.9V15.8H7.938V17Zm15.5-4.289a4.724,4.724,0,0,1-1.055,3.27A3.714,3.714,0,0,1,13.1,17.156a3.86,3.86,0,0,1-2.039-.539A3.558,3.558,0,0,1,9.688,15.07,5.391,5.391,0,0,1,9.2,12.711,4.716,4.716,0,0,1,10.25,9.449a3.7,3.7,0,0,1,2.906-1.168,3.622,3.622,0,0,1,2.855,1.2A4.7,4.7,0,0,1,17.07,12.711Zm-6.523,0a4.064,4.064,0,0,0,.656,2.5,2.278,2.278,0,0,0,1.93.859,2.293,2.293,0,0,0,1.934-.855,4.043,4.043,0,0,0,.66-2.5,3.978,3.978,0,0,0-.66-2.48,2.32,2.32,0,0,0-1.949-.848,2.283,2.283,0,0,0-1.922.836A4.023,4.023,0,0,0,10.547,12.711Zm12.7-4.43a5.075,5.075,0,0,1,1.023.094l-.18,1.2a4.418,4.418,0,0,0-.937-.117,2.282,2.282,0,0,0-1.777.844,3.077,3.077,0,0,0-.738,2.1V17h-1.3V8.438h1.07l.148,1.586h.063a3.764,3.764,0,0,1,1.148-1.289A2.585,2.585,0,0,1,23.25,8.281Zm5.922,8.875a3.934,3.934,0,0,1-3-1.156,4.476,4.476,0,0,1-1.1-3.211A4.964,4.964,0,0,1,26.1,9.5a3.387,3.387,0,0,1,2.738-1.219A3.229,3.229,0,0,1,31.383,9.34a4.057,4.057,0,0,1,.938,2.793v.82h-5.9a3.394,3.394,0,0,0,.762,2.289,2.635,2.635,0,0,0,2.035.781,6.9,6.9,0,0,0,2.734-.578V16.6a6.863,6.863,0,0,1-1.3.426A7.31,7.31,0,0,1,29.172,17.156ZM28.82,9.367a2.118,2.118,0,0,0-1.645.672,3.1,3.1,0,0,0-.723,1.859H30.93a2.851,2.851,0,0,0-.547-1.879A1.925,1.925,0,0,0,28.82,9.367ZM45.445,17V11.43a2.312,2.312,0,0,0-.437-1.535,1.692,1.692,0,0,0-1.359-.512,2.195,2.195,0,0,0-1.789.7,3.3,3.3,0,0,0-.578,2.141V17h-1.3V11.43a2.312,2.312,0,0,0-.437-1.535,1.7,1.7,0,0,0-1.367-.512,2.118,2.118,0,0,0-1.785.73,3.953,3.953,0,0,0-.566,2.395V17h-1.3V8.438h1.055L35.8,9.609h.063a2.549,2.549,0,0,1,1.035-.977,3.163,3.163,0,0,1,1.5-.352,2.544,2.544,0,0,1,2.625,1.453h.063a2.73,2.73,0,0,1,1.109-1.062,3.442,3.442,0,0,1,1.656-.391,2.9,2.9,0,0,1,2.176.746,3.338,3.338,0,0,1,.723,2.387V17Zm9.422,0h-1.3V8.438h1.3ZM53.461,6.117a.861.861,0,0,1,.219-.652.81.81,0,0,1,1.086,0,.846.846,0,0,1,.227.648.859.859,0,0,1-.227.652.794.794,0,0,1-1.086,0A.877.877,0,0,1,53.461,6.117ZM61.6,17.156a3.706,3.706,0,0,1-1.527-.309,2.872,2.872,0,0,1-1.16-.949H58.82a11.485,11.485,0,0,1,.094,1.422v3.523h-1.3V8.438h1.055l.18,1.172h.063a3.012,3.012,0,0,1,1.164-1.016A3.539,3.539,0,0,1,61.6,8.281,3.165,3.165,0,0,1,64.23,9.445a5.125,5.125,0,0,1,.926,3.266,5.1,5.1,0,0,1-.941,3.277A3.17,3.17,0,0,1,61.6,17.156Zm-.187-7.773a2.3,2.3,0,0,0-1.9.727,3.739,3.739,0,0,0-.6,2.313v.289a4.285,4.285,0,0,0,.6,2.582,2.288,2.288,0,0,0,1.93.777,2.007,2.007,0,0,0,1.738-.9,4.26,4.26,0,0,0,.629-2.477,4.1,4.1,0,0,0-.629-2.457A2.069,2.069,0,0,0,61.414,9.383Zm11.531,5.281a2.145,2.145,0,0,1-.891,1.844,4.186,4.186,0,0,1-2.5.648,5.436,5.436,0,0,1-2.656-.539v-1.2a6.424,6.424,0,0,0,1.324.492,5.53,5.53,0,0,0,1.363.18,3.092,3.092,0,0,0,1.563-.324,1.116,1.116,0,0,0,.113-1.844,6.82,6.82,0,0,0-1.691-.84,9.172,9.172,0,0,1-1.7-.777,2.321,2.321,0,0,1-.75-.754,1.966,1.966,0,0,1-.246-1.008,1.921,1.921,0,0,1,.852-1.652,3.968,3.968,0,0,1,2.336-.605,6.835,6.835,0,0,1,2.7.563L72.3,9.9a6.2,6.2,0,0,0-2.336-.531,2.687,2.687,0,0,0-1.391.289.894.894,0,0,0-.469.8.971.971,0,0,0,.176.586,1.735,1.735,0,0,0,.566.461,12.657,12.657,0,0,0,1.5.633A5.6,5.6,0,0,1,72.41,13.25,1.97,1.97,0,0,1,72.945,14.664Zm3.328-6.227v5.555a2.235,2.235,0,0,0,.477,1.563,1.941,1.941,0,0,0,1.492.516,2.435,2.435,0,0,0,1.965-.734,3.7,3.7,0,0,0,.621-2.4v-4.5h1.3V17h-1.07l-.187-1.148H80.8a2.585,2.585,0,0,1-1.105.969,3.716,3.716,0,0,1-1.613.336,3.273,3.273,0,0,1-2.34-.742,3.159,3.159,0,0,1-.777-2.375v-5.6ZM95.789,17V11.43a2.312,2.312,0,0,0-.437-1.535,1.692,1.692,0,0,0-1.359-.512,2.195,2.195,0,0,0-1.789.7,3.3,3.3,0,0,0-.578,2.141V17h-1.3V11.43a2.312,2.312,0,0,0-.437-1.535,1.7,1.7,0,0,0-1.367-.512,2.118,2.118,0,0,0-1.785.73,3.953,3.953,0,0,0-.566,2.395V17h-1.3V8.438H85.93l.211,1.172H86.2a2.549,2.549,0,0,1,1.035-.977,3.162,3.162,0,0,1,1.5-.352,2.544,2.544,0,0,1,2.625,1.453h.063a2.73,2.73,0,0,1,1.109-1.062,3.442,3.442,0,0,1,1.656-.391,2.9,2.9,0,0,1,2.176.746,3.338,3.338,0,0,1,.723,2.387V17Zm13.953-1.148h-.07a3.047,3.047,0,0,1-2.687,1.3,3.179,3.179,0,0,1-2.613-1.148,5.055,5.055,0,0,1-.934-3.266,5.141,5.141,0,0,1,.938-3.289,3.155,3.155,0,0,1,2.609-1.172,3.114,3.114,0,0,1,2.672,1.266h.1L109.7,8.93l-.031-.6V4.844h1.3V17h-1.055Zm-2.594.219a2.361,2.361,0,0,0,1.926-.723,3.652,3.652,0,0,0,.6-2.332v-.273a4.3,4.3,0,0,0-.605-2.6,2.3,2.3,0,0,0-1.934-.777,1.985,1.985,0,0,0-1.746.887,4.409,4.409,0,0,0-.605,2.5,4.227,4.227,0,0,0,.6,2.477A2.037,2.037,0,0,0,107.148,16.07Zm13.961-3.359a4.724,4.724,0,0,1-1.055,3.27,3.714,3.714,0,0,1-2.914,1.176,3.86,3.86,0,0,1-2.039-.539,3.558,3.558,0,0,1-1.375-1.547,5.391,5.391,0,0,1-.484-2.359,4.716,4.716,0,0,1,1.047-3.262A3.7,3.7,0,0,1,117.2,8.281a3.622,3.622,0,0,1,2.855,1.2A4.7,4.7,0,0,1,121.109,12.711Zm-6.523,0a4.064,4.064,0,0,0,.656,2.5,2.6,2.6,0,0,0,3.863,0,4.043,4.043,0,0,0,.66-2.5,3.978,3.978,0,0,0-.66-2.48,2.32,2.32,0,0,0-1.949-.848,2.283,2.283,0,0,0-1.922.836A4.023,4.023,0,0,0,114.586,12.711ZM124.68,17h-1.3V4.844h1.3Zm10.141-4.289a4.724,4.724,0,0,1-1.055,3.27,3.714,3.714,0,0,1-2.914,1.176,3.86,3.86,0,0,1-2.039-.539,3.558,3.558,0,0,1-1.375-1.547,5.391,5.391,0,0,1-.484-2.359A4.716,4.716,0,0,1,128,9.449a3.7,3.7,0,0,1,2.906-1.168,3.622,3.622,0,0,1,2.855,1.2A4.7,4.7,0,0,1,134.82,12.711Zm-6.523,0a4.064,4.064,0,0,0,.656,2.5,2.6,2.6,0,0,0,3.863,0,4.043,4.043,0,0,0,.66-2.5,3.978,3.978,0,0,0-.66-2.48,2.32,2.32,0,0,0-1.949-.848,2.283,2.283,0,0,0-1.922.836A4.023,4.023,0,0,0,128.3,12.711ZM141,8.281a5.075,5.075,0,0,1,1.023.094l-.18,1.2a4.418,4.418,0,0,0-.937-.117,2.282,2.282,0,0,0-1.777.844,3.077,3.077,0,0,0-.738,2.1V17h-1.3V8.438h1.07l.148,1.586h.063a3.764,3.764,0,0,1,1.148-1.289A2.585,2.585,0,0,1,141,8.281Zm12.3,6.383a2.145,2.145,0,0,1-.891,1.844,4.186,4.186,0,0,1-2.5.648,5.436,5.436,0,0,1-2.656-.539v-1.2a6.423,6.423,0,0,0,1.324.492,5.53,5.53,0,0,0,1.363.18,3.092,3.092,0,0,0,1.563-.324,1.116,1.116,0,0,0,.113-1.844,6.82,6.82,0,0,0-1.691-.84,9.172,9.172,0,0,1-1.7-.777,2.321,2.321,0,0,1-.75-.754,1.966,1.966,0,0,1-.246-1.008,1.921,1.921,0,0,1,.852-1.652,3.968,3.968,0,0,1,2.336-.605,6.835,6.835,0,0,1,2.7.563L152.664,9.9a6.2,6.2,0,0,0-2.336-.531,2.688,2.688,0,0,0-1.391.289.894.894,0,0,0-.469.8.971.971,0,0,0,.176.586,1.735,1.735,0,0,0,.566.461,12.659,12.659,0,0,0,1.5.633,5.6,5.6,0,0,1,2.059,1.117A1.97,1.97,0,0,1,153.3,14.664ZM156.711,17h-1.3V8.438h1.3ZM155.3,6.117a.861.861,0,0,1,.219-.652.81.81,0,0,1,1.086,0,.846.846,0,0,1,.227.648.859.859,0,0,1-.227.652.794.794,0,0,1-1.086,0A.877.877,0,0,1,155.3,6.117Zm6.922,9.969a4.236,4.236,0,0,0,.664-.051,4.3,4.3,0,0,0,.508-.105v.992a2.371,2.371,0,0,1-.621.168,4.664,4.664,0,0,1-.738.066q-2.484,0-2.484-2.617V9.445h-1.227V8.82l1.227-.539.547-1.828h.75V8.438h2.484V9.445h-2.484v5.039a1.733,1.733,0,0,0,.367,1.188A1.278,1.278,0,0,0,162.227,16.086Zm12.3.914-.258-1.219h-.062a3.6,3.6,0,0,1-1.277,1.09,3.893,3.893,0,0,1-1.59.285,2.86,2.86,0,0,1-2-.656,2.394,2.394,0,0,1-.723-1.867q0-2.594,4.148-2.719l1.453-.047v-.531a2.171,2.171,0,0,0-.434-1.488,1.783,1.783,0,0,0-1.387-.48,5.65,5.65,0,0,0-2.422.656l-.4-.992a6.094,6.094,0,0,1,1.387-.539,6.006,6.006,0,0,1,1.512-.2,3.262,3.262,0,0,1,2.27.68,2.837,2.837,0,0,1,.738,2.18V17Zm-2.93-.914a2.632,2.632,0,0,0,1.9-.664,2.457,2.457,0,0,0,.691-1.859v-.773l-1.3.055a4.717,4.717,0,0,0-2.23.48,1.449,1.449,0,0,0-.684,1.324,1.336,1.336,0,0,0,.426,1.07A1.767,1.767,0,0,0,171.6,16.086ZM189.078,17V11.43a2.312,2.312,0,0,0-.437-1.535,1.692,1.692,0,0,0-1.359-.512,2.195,2.195,0,0,0-1.789.7,3.3,3.3,0,0,0-.578,2.141V17h-1.3V11.43a2.312,2.312,0,0,0-.437-1.535,1.7,1.7,0,0,0-1.367-.512,2.118,2.118,0,0,0-1.785.73,3.953,3.953,0,0,0-.566,2.395V17h-1.3V8.438h1.055l.211,1.172h.063a2.549,2.549,0,0,1,1.035-.977,3.163,3.163,0,0,1,1.5-.352,2.544,2.544,0,0,1,2.625,1.453h.063a2.73,2.73,0,0,1,1.109-1.062,3.442,3.442,0,0,1,1.656-.391,2.9,2.9,0,0,1,2.176.746,3.338,3.338,0,0,1,.723,2.387V17Zm7.586.156a3.934,3.934,0,0,1-3-1.156,4.476,4.476,0,0,1-1.1-3.211A4.964,4.964,0,0,1,193.59,9.5a3.387,3.387,0,0,1,2.738-1.219,3.229,3.229,0,0,1,2.547,1.059,4.057,4.057,0,0,1,.938,2.793v.82h-5.9a3.394,3.394,0,0,0,.762,2.289,2.634,2.634,0,0,0,2.035.781,6.9,6.9,0,0,0,2.734-.578V16.6a6.863,6.863,0,0,1-1.3.426A7.31,7.31,0,0,1,196.664,17.156Zm-.352-7.789a2.118,2.118,0,0,0-1.645.672,3.1,3.1,0,0,0-.723,1.859h4.477a2.851,2.851,0,0,0-.547-1.879A1.925,1.925,0,0,0,196.313,9.367Zm8.477,6.719a4.236,4.236,0,0,0,.664-.051,4.3,4.3,0,0,0,.508-.105v.992a2.371,2.371,0,0,1-.621.168,4.664,4.664,0,0,1-.738.066q-2.484,0-2.484-2.617V9.445h-1.227V8.82l1.227-.539.547-1.828h.75V8.438H205.9V9.445h-2.484v5.039a1.733,1.733,0,0,0,.367,1.188A1.278,1.278,0,0,0,204.789,16.086Zm4.242-.945.117.18q-.2.781-.586,1.816t-.8,1.926h-.977q.211-.812.465-2.008t.355-1.914ZM4.8,41.156a3.654,3.654,0,0,1-2.879-1.145A4.707,4.707,0,0,1,.9,36.773a4.853,4.853,0,0,1,1.035-3.32,3.727,3.727,0,0,1,2.949-1.172,5.852,5.852,0,0,1,1.234.133,4.066,4.066,0,0,1,.969.313l-.4,1.1a6.1,6.1,0,0,0-.937-.285,4.186,4.186,0,0,0-.9-.113q-2.609,0-2.609,3.328a3.963,3.963,0,0,0,.637,2.422,2.215,2.215,0,0,0,1.887.844,5.769,5.769,0,0,0,2.2-.461v1.148A4.679,4.679,0,0,1,4.8,41.156Zm11.586-4.445a4.724,4.724,0,0,1-1.055,3.27,3.714,3.714,0,0,1-2.914,1.176,3.86,3.86,0,0,1-2.039-.539A3.558,3.558,0,0,1,9,39.07a5.391,5.391,0,0,1-.484-2.359,4.716,4.716,0,0,1,1.047-3.262,3.7,3.7,0,0,1,2.906-1.168,3.622,3.622,0,0,1,2.855,1.2A4.7,4.7,0,0,1,16.383,36.711Zm-6.523,0a4.064,4.064,0,0,0,.656,2.5,2.278,2.278,0,0,0,1.93.859,2.293,2.293,0,0,0,1.934-.855,4.043,4.043,0,0,0,.66-2.5,3.978,3.978,0,0,0-.66-2.48,2.32,2.32,0,0,0-1.949-.848,2.283,2.283,0,0,0-1.922.836A4.023,4.023,0,0,0,9.859,36.711ZM24.516,41V35.461a2.235,2.235,0,0,0-.477-1.562,1.941,1.941,0,0,0-1.492-.516,2.461,2.461,0,0,0-1.969.727,3.668,3.668,0,0,0-.625,2.4V41h-1.3V32.438h1.055l.211,1.172h.063a2.648,2.648,0,0,1,1.117-.98,3.63,3.63,0,0,1,1.6-.348,3.252,3.252,0,0,1,2.328.746,3.175,3.175,0,0,1,.781,2.387V41ZM34,38.664a2.145,2.145,0,0,1-.891,1.844,4.186,4.186,0,0,1-2.5.648,5.436,5.436,0,0,1-2.656-.539v-1.2a6.424,6.424,0,0,0,1.324.492,5.53,5.53,0,0,0,1.363.18,3.092,3.092,0,0,0,1.563-.324,1.116,1.116,0,0,0,.113-1.844,6.82,6.82,0,0,0-1.691-.84,9.172,9.172,0,0,1-1.7-.777,2.321,2.321,0,0,1-.75-.754,1.966,1.966,0,0,1-.246-1.008,1.921,1.921,0,0,1,.852-1.652,3.968,3.968,0,0,1,2.336-.605,6.835,6.835,0,0,1,2.7.563L33.359,33.9a6.2,6.2,0,0,0-2.336-.531,2.688,2.688,0,0,0-1.391.289.894.894,0,0,0-.469.8.971.971,0,0,0,.176.586,1.735,1.735,0,0,0,.566.461,12.658,12.658,0,0,0,1.5.633,5.6,5.6,0,0,1,2.059,1.117A1.97,1.97,0,0,1,34,38.664Zm5.727,2.492a3.934,3.934,0,0,1-3-1.156,4.476,4.476,0,0,1-1.1-3.211,4.964,4.964,0,0,1,1.02-3.289,3.387,3.387,0,0,1,2.738-1.219,3.229,3.229,0,0,1,2.547,1.059,4.057,4.057,0,0,1,.938,2.793v.82h-5.9a3.394,3.394,0,0,0,.762,2.289,2.635,2.635,0,0,0,2.035.781,6.9,6.9,0,0,0,2.734-.578V40.6a6.863,6.863,0,0,1-1.3.426A7.31,7.31,0,0,1,39.727,41.156Zm-.352-7.789a2.118,2.118,0,0,0-1.645.672,3.1,3.1,0,0,0-.723,1.859h4.477a2.851,2.851,0,0,0-.547-1.879A1.925,1.925,0,0,0,39.375,33.367Zm8.477,6.719a4.236,4.236,0,0,0,.664-.051,4.3,4.3,0,0,0,.508-.105v.992a2.371,2.371,0,0,1-.621.168,4.664,4.664,0,0,1-.738.066q-2.484,0-2.484-2.617V33.445H43.953V32.82l1.227-.539.547-1.828h.75v1.984h2.484v1.008H46.477v5.039a1.734,1.734,0,0,0,.367,1.188A1.278,1.278,0,0,0,47.852,40.086Zm6.5,1.07a3.934,3.934,0,0,1-3-1.156,4.476,4.476,0,0,1-1.1-3.211,4.964,4.964,0,0,1,1.02-3.289,3.387,3.387,0,0,1,2.738-1.219,3.229,3.229,0,0,1,2.547,1.059,4.057,4.057,0,0,1,.938,2.793v.82H51.6a3.394,3.394,0,0,0,.762,2.289,2.635,2.635,0,0,0,2.035.781,6.9,6.9,0,0,0,2.734-.578V40.6a6.863,6.863,0,0,1-1.3.426A7.31,7.31,0,0,1,54.352,41.156ZM54,33.367a2.118,2.118,0,0,0-1.645.672,3.1,3.1,0,0,0-.723,1.859h4.477a2.851,2.851,0,0,0-.547-1.879A1.925,1.925,0,0,0,54,33.367Zm8.477,6.719a4.236,4.236,0,0,0,.664-.051,4.3,4.3,0,0,0,.508-.105v.992a2.371,2.371,0,0,1-.621.168,4.664,4.664,0,0,1-.738.066q-2.484,0-2.484-2.617V33.445H58.578V32.82l1.227-.539.547-1.828h.75v1.984h2.484v1.008H61.1v5.039a1.734,1.734,0,0,0,.367,1.188A1.278,1.278,0,0,0,62.477,40.086Zm4.1-7.648v5.555a2.235,2.235,0,0,0,.477,1.563,1.941,1.941,0,0,0,1.492.516,2.435,2.435,0,0,0,1.965-.734,3.7,3.7,0,0,0,.621-2.4v-4.5h1.3V41h-1.07l-.187-1.148H71.1A2.585,2.585,0,0,1,70,40.82a3.716,3.716,0,0,1-1.613.336,3.273,3.273,0,0,1-2.34-.742,3.159,3.159,0,0,1-.777-2.375v-5.6Zm12.508-.156a5.075,5.075,0,0,1,1.023.094l-.18,1.2a4.418,4.418,0,0,0-.937-.117,2.282,2.282,0,0,0-1.777.844,3.077,3.077,0,0,0-.738,2.1V41h-1.3V32.438h1.07l.148,1.586h.063a3.764,3.764,0,0,1,1.148-1.289A2.585,2.585,0,0,1,79.086,32.281Zm12.3,6.383a2.145,2.145,0,0,1-.891,1.844,4.186,4.186,0,0,1-2.5.648,5.436,5.436,0,0,1-2.656-.539v-1.2a6.424,6.424,0,0,0,1.324.492,5.53,5.53,0,0,0,1.363.18,3.092,3.092,0,0,0,1.563-.324,1.116,1.116,0,0,0,.113-1.844,6.82,6.82,0,0,0-1.691-.84,9.172,9.172,0,0,1-1.7-.777,2.321,2.321,0,0,1-.75-.754,1.966,1.966,0,0,1-.246-1.008,1.921,1.921,0,0,1,.852-1.652,3.968,3.968,0,0,1,2.336-.605,6.835,6.835,0,0,1,2.7.563L90.75,33.9a6.2,6.2,0,0,0-2.336-.531,2.688,2.688,0,0,0-1.391.289.894.894,0,0,0-.469.8.971.971,0,0,0,.176.586,1.735,1.735,0,0,0,.566.461,12.658,12.658,0,0,0,1.5.633,5.6,5.6,0,0,1,2.059,1.117A1.97,1.97,0,0,1,91.391,38.664ZM98.766,41l-.258-1.219h-.062a3.6,3.6,0,0,1-1.277,1.09,3.893,3.893,0,0,1-1.59.285,2.86,2.86,0,0,1-2-.656,2.394,2.394,0,0,1-.723-1.867q0-2.594,4.148-2.719l1.453-.047v-.531a2.171,2.171,0,0,0-.434-1.488,1.783,1.783,0,0,0-1.387-.48,5.65,5.65,0,0,0-2.422.656l-.4-.992a6.094,6.094,0,0,1,1.387-.539,6.006,6.006,0,0,1,1.512-.2,3.262,3.262,0,0,1,2.27.68,2.837,2.837,0,0,1,.738,2.18V41Zm-2.93-.914a2.632,2.632,0,0,0,1.9-.664,2.457,2.457,0,0,0,.691-1.859v-.773l-1.3.055a4.717,4.717,0,0,0-2.23.48,1.449,1.449,0,0,0-.684,1.324,1.336,1.336,0,0,0,.426,1.07A1.767,1.767,0,0,0,95.836,40.086Zm12.391-.234h-.07a3.047,3.047,0,0,1-2.687,1.3,3.179,3.179,0,0,1-2.613-1.148,5.055,5.055,0,0,1-.934-3.266,5.141,5.141,0,0,1,.938-3.289,3.155,3.155,0,0,1,2.609-1.172,3.114,3.114,0,0,1,2.672,1.266h.1l-.055-.617-.031-.6V28.844h1.3V41H108.4Zm-2.594.219a2.361,2.361,0,0,0,1.926-.723,3.652,3.652,0,0,0,.6-2.332v-.273a4.3,4.3,0,0,0-.605-2.6,2.3,2.3,0,0,0-1.934-.777,1.985,1.985,0,0,0-1.746.887,4.409,4.409,0,0,0-.605,2.5,4.227,4.227,0,0,0,.6,2.477A2.037,2.037,0,0,0,105.633,40.07ZM113.5,41h-1.3V32.438h1.3Zm-1.406-10.883a.861.861,0,0,1,.219-.652.81.81,0,0,1,1.086,0,.846.846,0,0,1,.227.648.859.859,0,0,1-.227.652.794.794,0,0,1-1.086,0A.877.877,0,0,1,112.094,30.117Zm8.141,11.039a3.706,3.706,0,0,1-1.527-.309,2.872,2.872,0,0,1-1.16-.949h-.094a11.485,11.485,0,0,1,.094,1.422v3.523h-1.3V32.438H117.3l.18,1.172h.063a3.012,3.012,0,0,1,1.164-1.016,3.539,3.539,0,0,1,1.523-.312,3.165,3.165,0,0,1,2.629,1.164,5.125,5.125,0,0,1,.926,3.266,5.1,5.1,0,0,1-.941,3.277A3.17,3.17,0,0,1,120.234,41.156Zm-.187-7.773a2.3,2.3,0,0,0-1.9.727,3.739,3.739,0,0,0-.6,2.313v.289a4.285,4.285,0,0,0,.6,2.582,2.288,2.288,0,0,0,1.93.777,2.007,2.007,0,0,0,1.738-.9,4.26,4.26,0,0,0,.629-2.477,4.1,4.1,0,0,0-.629-2.457A2.069,2.069,0,0,0,120.047,33.383Zm11.531,5.281a2.145,2.145,0,0,1-.891,1.844,4.186,4.186,0,0,1-2.5.648,5.436,5.436,0,0,1-2.656-.539v-1.2a6.424,6.424,0,0,0,1.324.492,5.53,5.53,0,0,0,1.363.18,3.092,3.092,0,0,0,1.563-.324,1.116,1.116,0,0,0,.113-1.844,6.82,6.82,0,0,0-1.691-.84,9.172,9.172,0,0,1-1.7-.777,2.321,2.321,0,0,1-.75-.754,1.966,1.966,0,0,1-.246-1.008,1.921,1.921,0,0,1,.852-1.652,3.968,3.968,0,0,1,2.336-.605,6.835,6.835,0,0,1,2.7.563l-.461,1.055a6.2,6.2,0,0,0-2.336-.531,2.688,2.688,0,0,0-1.391.289.894.894,0,0,0-.469.8.971.971,0,0,0,.176.586,1.735,1.735,0,0,0,.566.461,12.658,12.658,0,0,0,1.5.633,5.6,5.6,0,0,1,2.059,1.117A1.97,1.97,0,0,1,131.578,38.664Zm5.531,2.492a3.654,3.654,0,0,1-2.879-1.145,4.707,4.707,0,0,1-1.02-3.238,4.853,4.853,0,0,1,1.035-3.32,3.727,3.727,0,0,1,2.949-1.172,5.852,5.852,0,0,1,1.234.133,4.066,4.066,0,0,1,.969.313l-.4,1.1a6.1,6.1,0,0,0-.937-.285,4.186,4.186,0,0,0-.9-.113q-2.609,0-2.609,3.328a3.963,3.963,0,0,0,.637,2.422,2.215,2.215,0,0,0,1.887.844,5.769,5.769,0,0,0,2.2-.461v1.148A4.679,4.679,0,0,1,137.109,41.156ZM142.6,41h-1.3V32.438h1.3ZM141.2,30.117a.861.861,0,0,1,.219-.652.81.81,0,0,1,1.086,0,.846.846,0,0,1,.227.648.859.859,0,0,1-.227.652.794.794,0,0,1-1.086,0A.877.877,0,0,1,141.2,30.117ZM151.211,41V35.461a2.235,2.235,0,0,0-.477-1.562,1.941,1.941,0,0,0-1.492-.516,2.461,2.461,0,0,0-1.969.727,3.668,3.668,0,0,0-.625,2.4V41h-1.3V32.438h1.055l.211,1.172h.063a2.648,2.648,0,0,1,1.117-.98,3.63,3.63,0,0,1,1.6-.348,3.252,3.252,0,0,1,2.328.746,3.175,3.175,0,0,1,.781,2.387V41Zm10.969-8.562v.82l-1.586.188a2.785,2.785,0,0,1,.563,1.711,2.531,2.531,0,0,1-.859,2.008,3.467,3.467,0,0,1-2.359.75,3.929,3.929,0,0,1-.719-.062,1.276,1.276,0,0,0-.828,1.1.56.56,0,0,0,.289.52,2.112,2.112,0,0,0,.992.168h1.516a3.394,3.394,0,0,1,2.137.586,2.036,2.036,0,0,1,.746,1.7A2.431,2.431,0,0,1,160.93,44.1a6.1,6.1,0,0,1-3.328.746,4.547,4.547,0,0,1-2.59-.625,2.018,2.018,0,0,1-.91-1.766,1.983,1.983,0,0,1,.5-1.352,2.546,2.546,0,0,1,1.406-.773,1.357,1.357,0,0,1-.551-.461,1.22,1.22,0,0,1-.223-.727,1.379,1.379,0,0,1,.25-.82,2.628,2.628,0,0,1,.789-.68,2.313,2.313,0,0,1-1.082-.93,2.732,2.732,0,0,1-.418-1.5,2.771,2.771,0,0,1,.844-2.168,3.445,3.445,0,0,1,2.391-.762,4.347,4.347,0,0,1,1.211.156Zm-6.828,10a1.162,1.162,0,0,0,.586,1.055,3.234,3.234,0,0,0,1.68.359,4.687,4.687,0,0,0,2.418-.488,1.5,1.5,0,0,0,.785-1.324,1.048,1.048,0,0,0-.43-.965,3.337,3.337,0,0,0-1.617-.27h-1.555a2.048,2.048,0,0,0-1.375.422A1.507,1.507,0,0,0,155.352,42.438Zm.7-7.258a1.743,1.743,0,0,0,.508,1.359,2.028,2.028,0,0,0,1.414.461,1.654,1.654,0,0,0,1.9-1.844,1.7,1.7,0,0,0-1.922-1.93,1.9,1.9,0,0,0-1.406.492A1.982,1.982,0,0,0,156.055,35.18Zm15.656,5.977a3.934,3.934,0,0,1-3-1.156,4.476,4.476,0,0,1-1.1-3.211,4.964,4.964,0,0,1,1.02-3.289,3.387,3.387,0,0,1,2.738-1.219,3.229,3.229,0,0,1,2.547,1.059,4.057,4.057,0,0,1,.938,2.793v.82h-5.9a3.394,3.394,0,0,0,.762,2.289,2.634,2.634,0,0,0,2.035.781,6.9,6.9,0,0,0,2.734-.578V40.6a6.863,6.863,0,0,1-1.3.426A7.31,7.31,0,0,1,171.711,41.156Zm-.352-7.789a2.118,2.118,0,0,0-1.645.672,3.1,3.1,0,0,0-.723,1.859h4.477a2.851,2.851,0,0,0-.547-1.879A1.925,1.925,0,0,0,171.359,33.367ZM178.367,41h-1.3V28.844h1.3Zm4.047,0h-1.3V32.438h1.3Zm-1.406-10.883a.861.861,0,0,1,.219-.652.81.81,0,0,1,1.086,0,.846.846,0,0,1,.227.648.859.859,0,0,1-.227.652.794.794,0,0,1-1.086,0A.877.877,0,0,1,181.008,30.117Zm6.922,9.969a4.236,4.236,0,0,0,.664-.051,4.3,4.3,0,0,0,.508-.105v.992a2.371,2.371,0,0,1-.621.168,4.664,4.664,0,0,1-.738.066q-2.484,0-2.484-2.617V33.445h-1.227V32.82l1.227-.539.547-1.828h.75v1.984h2.484v1.008h-2.484v5.039a1.733,1.733,0,0,0,.367,1.188A1.278,1.278,0,0,0,187.93,40.086Zm6.789-7.8a5.075,5.075,0,0,1,1.023.094l-.18,1.2a4.418,4.418,0,0,0-.937-.117,2.282,2.282,0,0,0-1.777.844,3.077,3.077,0,0,0-.738,2.1V41h-1.3V32.438h1.07l.148,1.586h.063a3.764,3.764,0,0,1,1.148-1.289A2.585,2.585,0,0,1,194.719,32.281Zm3.984,6.859.117.18q-.2.781-.586,1.816t-.8,1.926h-.977q.211-.813.465-2.008t.355-1.914Zm12.242-.477a2.145,2.145,0,0,1-.891,1.844,4.186,4.186,0,0,1-2.5.648,5.436,5.436,0,0,1-2.656-.539v-1.2a6.424,6.424,0,0,0,1.324.492,5.53,5.53,0,0,0,1.363.18,3.092,3.092,0,0,0,1.563-.324,1.116,1.116,0,0,0,.113-1.844,6.82,6.82,0,0,0-1.691-.84,9.172,9.172,0,0,1-1.7-.777,2.321,2.321,0,0,1-.75-.754,1.966,1.966,0,0,1-.246-1.008,1.921,1.921,0,0,1,.852-1.652,3.968,3.968,0,0,1,2.336-.605,6.835,6.835,0,0,1,2.7.563L210.3,33.9a6.2,6.2,0,0,0-2.336-.531,2.688,2.688,0,0,0-1.391.289.894.894,0,0,0-.469.8.971.971,0,0,0,.176.586,1.735,1.735,0,0,0,.566.461,12.659,12.659,0,0,0,1.5.633,5.6,5.6,0,0,1,2.059,1.117A1.97,1.97,0,0,1,210.945,38.664Zm5.727,2.492a3.934,3.934,0,0,1-3-1.156,4.476,4.476,0,0,1-1.1-3.211A4.964,4.964,0,0,1,213.6,33.5a3.387,3.387,0,0,1,2.738-1.219,3.229,3.229,0,0,1,2.547,1.059,4.057,4.057,0,0,1,.938,2.793v.82h-5.9a3.394,3.394,0,0,0,.762,2.289,2.634,2.634,0,0,0,2.035.781,6.9,6.9,0,0,0,2.734-.578V40.6a6.863,6.863,0,0,1-1.3.426A7.31,7.31,0,0,1,216.672,41.156Zm-.352-7.789a2.118,2.118,0,0,0-1.645.672,3.1,3.1,0,0,0-.723,1.859h4.477a2.851,2.851,0,0,0-.547-1.879A1.925,1.925,0,0,0,216.32,33.367Zm11.539,6.484h-.07a3.047,3.047,0,0,1-2.687,1.3,3.179,3.179,0,0,1-2.613-1.148,5.055,5.055,0,0,1-.934-3.266,5.141,5.141,0,0,1,.938-3.289,3.155,3.155,0,0,1,2.609-1.172,3.114,3.114,0,0,1,2.672,1.266h.1l-.055-.617-.031-.6V28.844h1.3V41h-1.055Zm-2.594.219a2.361,2.361,0,0,0,1.926-.723,3.652,3.652,0,0,0,.6-2.332v-.273a4.3,4.3,0,0,0-.605-2.6,2.3,2.3,0,0,0-1.934-.777,1.985,1.985,0,0,0-1.746.887,4.409,4.409,0,0,0-.605,2.5,4.227,4.227,0,0,0,.6,2.477A2.037,2.037,0,0,0,225.266,40.07Zm16.555-.219h-.07a3.047,3.047,0,0,1-2.687,1.3,3.179,3.179,0,0,1-2.613-1.148,5.055,5.055,0,0,1-.934-3.266,5.141,5.141,0,0,1,.938-3.289,3.155,3.155,0,0,1,2.609-1.172,3.114,3.114,0,0,1,2.672,1.266h.1l-.055-.617-.031-.6V28.844h1.3V41h-1.055Zm-2.594.219a2.361,2.361,0,0,0,1.926-.723,3.652,3.652,0,0,0,.6-2.332v-.273a4.3,4.3,0,0,0-.605-2.6,2.3,2.3,0,0,0-1.934-.777,1.985,1.985,0,0,0-1.746.887,4.409,4.409,0,0,0-.605,2.5,4.227,4.227,0,0,0,.6,2.477A2.037,2.037,0,0,0,239.227,40.07Zm7.867.93h-1.3V32.438h1.3Zm-1.406-10.883a.861.861,0,0,1,.219-.652.81.81,0,0,1,1.086,0,.846.846,0,0,1,.227.648.859.859,0,0,1-.227.652.794.794,0,0,1-1.086,0A.877.877,0,0,1,245.688,30.117ZM255.109,41l-.258-1.219h-.062a3.6,3.6,0,0,1-1.277,1.09,3.893,3.893,0,0,1-1.59.285,2.86,2.86,0,0,1-2-.656,2.394,2.394,0,0,1-.723-1.867q0-2.594,4.148-2.719l1.453-.047v-.531a2.171,2.171,0,0,0-.434-1.488,1.783,1.783,0,0,0-1.387-.48,5.65,5.65,0,0,0-2.422.656l-.4-.992a6.094,6.094,0,0,1,1.387-.539,6.006,6.006,0,0,1,1.512-.2,3.262,3.262,0,0,1,2.27.68,2.837,2.837,0,0,1,.738,2.18V41Zm-2.93-.914a2.632,2.632,0,0,0,1.9-.664,2.457,2.457,0,0,0,.691-1.859v-.773l-1.3.055a4.717,4.717,0,0,0-2.23.48,1.449,1.449,0,0,0-.684,1.324,1.336,1.336,0,0,0,.426,1.07A1.767,1.767,0,0,0,252.18,40.086ZM269.656,41V35.43a2.312,2.312,0,0,0-.437-1.535,1.692,1.692,0,0,0-1.359-.512,2.195,2.195,0,0,0-1.789.7,3.3,3.3,0,0,0-.578,2.141V41h-1.3V35.43a2.312,2.312,0,0,0-.437-1.535,1.7,1.7,0,0,0-1.367-.512,2.118,2.118,0,0,0-1.785.73,3.953,3.953,0,0,0-.566,2.395V41h-1.3V32.438H259.8l.211,1.172h.063a2.549,2.549,0,0,1,1.035-.977,3.162,3.162,0,0,1,1.5-.352,2.544,2.544,0,0,1,2.625,1.453h.063a2.73,2.73,0,0,1,1.109-1.062,3.442,3.442,0,0,1,1.656-.391,2.9,2.9,0,0,1,2.176.746,3.338,3.338,0,0,1,.723,2.387V41ZM7.234,65V59.461A2.235,2.235,0,0,0,6.758,57.9a1.941,1.941,0,0,0-1.492-.516,2.461,2.461,0,0,0-1.969.727,3.668,3.668,0,0,0-.625,2.4V65h-1.3V56.438H2.43l.211,1.172H2.7a2.648,2.648,0,0,1,1.117-.98,3.63,3.63,0,0,1,1.6-.348,3.252,3.252,0,0,1,2.328.746,3.175,3.175,0,0,1,.781,2.387V65Zm11.352-4.289a4.724,4.724,0,0,1-1.055,3.27,3.714,3.714,0,0,1-2.914,1.176,3.86,3.86,0,0,1-2.039-.539A3.558,3.558,0,0,1,11.2,63.07a5.391,5.391,0,0,1-.484-2.359,4.716,4.716,0,0,1,1.047-3.262,3.7,3.7,0,0,1,2.906-1.168,3.622,3.622,0,0,1,2.855,1.2A4.7,4.7,0,0,1,18.586,60.711Zm-6.523,0a4.064,4.064,0,0,0,.656,2.5,2.278,2.278,0,0,0,1.93.859,2.293,2.293,0,0,0,1.934-.855,4.043,4.043,0,0,0,.66-2.5,3.978,3.978,0,0,0-.66-2.48,2.32,2.32,0,0,0-1.949-.848,2.283,2.283,0,0,0-1.922.836A4.023,4.023,0,0,0,12.063,60.711ZM26.719,65V59.461a2.235,2.235,0,0,0-.477-1.562,1.941,1.941,0,0,0-1.492-.516,2.461,2.461,0,0,0-1.969.727,3.668,3.668,0,0,0-.625,2.4V65h-1.3V56.438h1.055l.211,1.172h.063a2.648,2.648,0,0,1,1.117-.98,3.63,3.63,0,0,1,1.6-.348,3.252,3.252,0,0,1,2.328.746,3.175,3.175,0,0,1,.781,2.387V65Zm5.18-8.562v5.555a2.235,2.235,0,0,0,.477,1.563,1.941,1.941,0,0,0,1.492.516,2.435,2.435,0,0,0,1.965-.734,3.7,3.7,0,0,0,.621-2.4v-4.5h1.3V65H36.68l-.187-1.148h-.07a2.585,2.585,0,0,1-1.105.969,3.716,3.716,0,0,1-1.613.336,3.273,3.273,0,0,1-2.34-.742,3.159,3.159,0,0,1-.777-2.375v-5.6ZM51.414,65V59.43a2.312,2.312,0,0,0-.437-1.535,1.692,1.692,0,0,0-1.359-.512,2.195,2.195,0,0,0-1.789.7,3.3,3.3,0,0,0-.578,2.141V65h-1.3V59.43a2.312,2.312,0,0,0-.437-1.535,1.7,1.7,0,0,0-1.367-.512,2.118,2.118,0,0,0-1.785.73,3.953,3.953,0,0,0-.566,2.395V65H40.5V56.438h1.055l.211,1.172h.063a2.549,2.549,0,0,1,1.035-.977,3.163,3.163,0,0,1,1.5-.352,2.544,2.544,0,0,1,2.625,1.453h.063a2.73,2.73,0,0,1,1.109-1.062,3.442,3.442,0,0,1,1.656-.391,2.9,2.9,0,0,1,2.176.746,3.338,3.338,0,0,1,.723,2.387V65Zm2.609-8.562h1.391l1.875,4.883a18.572,18.572,0,0,1,.766,2.414h.063q.1-.4.426-1.363t2.121-5.934h1.391l-3.68,9.75A4.864,4.864,0,0,1,57.1,68.238a2.716,2.716,0,0,1-1.793.605,5.218,5.218,0,0,1-1.172-.133V67.672a4.52,4.52,0,0,0,.961.094A1.981,1.981,0,0,0,57,66.266l.477-1.219Zm17.2,8.719a3.934,3.934,0,0,1-3-1.156,4.476,4.476,0,0,1-1.1-3.211,4.964,4.964,0,0,1,1.02-3.289,3.387,3.387,0,0,1,2.738-1.219A3.229,3.229,0,0,1,73.43,57.34a4.057,4.057,0,0,1,.938,2.793v.82h-5.9a3.394,3.394,0,0,0,.762,2.289,2.635,2.635,0,0,0,2.035.781A6.9,6.9,0,0,0,74,63.445V64.6a6.863,6.863,0,0,1-1.3.426A7.31,7.31,0,0,1,71.219,65.156Zm-.352-7.789a2.118,2.118,0,0,0-1.645.672A3.1,3.1,0,0,0,68.5,59.9h4.477a2.851,2.851,0,0,0-.547-1.879A1.925,1.925,0,0,0,70.867,57.367ZM77.875,65h-1.3V56.438h1.3ZM76.469,54.117a.861.861,0,0,1,.219-.652.81.81,0,0,1,1.086,0,.846.846,0,0,1,.227.648.859.859,0,0,1-.227.652.794.794,0,0,1-1.086,0A.877.877,0,0,1,76.469,54.117Zm8.063,2.164a5.075,5.075,0,0,1,1.023.094l-.18,1.2a4.418,4.418,0,0,0-.937-.117,2.282,2.282,0,0,0-1.777.844,3.077,3.077,0,0,0-.738,2.1V65h-1.3V56.438H81.7l.148,1.586h.063a3.764,3.764,0,0,1,1.148-1.289A2.585,2.585,0,0,1,84.531,56.281ZM98.07,65V59.43a2.312,2.312,0,0,0-.437-1.535,1.692,1.692,0,0,0-1.359-.512,2.195,2.195,0,0,0-1.789.7,3.3,3.3,0,0,0-.578,2.141V65h-1.3V59.43a2.312,2.312,0,0,0-.437-1.535,1.7,1.7,0,0,0-1.367-.512,2.118,2.118,0,0,0-1.785.73,3.953,3.953,0,0,0-.566,2.395V65h-1.3V56.438h1.055l.211,1.172h.063a2.549,2.549,0,0,1,1.035-.977,3.162,3.162,0,0,1,1.5-.352,2.544,2.544,0,0,1,2.625,1.453H93.7a2.73,2.73,0,0,1,1.109-1.062,3.442,3.442,0,0,1,1.656-.391,2.9,2.9,0,0,1,2.176.746,3.338,3.338,0,0,1,.723,2.387V65Zm11.359-4.289a4.724,4.724,0,0,1-1.055,3.27,3.714,3.714,0,0,1-2.914,1.176,3.86,3.86,0,0,1-2.039-.539,3.558,3.558,0,0,1-1.375-1.547,5.391,5.391,0,0,1-.484-2.359,4.716,4.716,0,0,1,1.047-3.262,3.7,3.7,0,0,1,2.906-1.168,3.622,3.622,0,0,1,2.855,1.2A4.7,4.7,0,0,1,109.43,60.711Zm-6.523,0a4.064,4.064,0,0,0,.656,2.5,2.6,2.6,0,0,0,3.863,0,4.043,4.043,0,0,0,.66-2.5,3.978,3.978,0,0,0-.66-2.48,2.32,2.32,0,0,0-1.949-.848,2.283,2.283,0,0,0-1.922.836A4.023,4.023,0,0,0,102.906,60.711Zm14.625,3.141h-.07a3.047,3.047,0,0,1-2.687,1.3,3.179,3.179,0,0,1-2.613-1.148,5.055,5.055,0,0,1-.934-3.266,5.141,5.141,0,0,1,.938-3.289,3.155,3.155,0,0,1,2.609-1.172,3.114,3.114,0,0,1,2.672,1.266h.1l-.055-.617-.031-.6V52.844h1.3V65H117.7Zm-2.594.219a2.361,2.361,0,0,0,1.926-.723,3.652,3.652,0,0,0,.6-2.332v-.273a4.3,4.3,0,0,0-.605-2.6,2.3,2.3,0,0,0-1.934-.777,1.985,1.985,0,0,0-1.746.887,4.409,4.409,0,0,0-.605,2.5,4.227,4.227,0,0,0,.6,2.477A2.037,2.037,0,0,0,114.938,64.07Zm13.492.016a4.237,4.237,0,0,0,.664-.051,4.3,4.3,0,0,0,.508-.105v.992a2.371,2.371,0,0,1-.621.168,4.664,4.664,0,0,1-.738.066q-2.484,0-2.484-2.617V57.445h-1.227V56.82l1.227-.539.547-1.828h.75v1.984h2.484v1.008h-2.484v5.039a1.734,1.734,0,0,0,.367,1.188A1.278,1.278,0,0,0,128.43,64.086Zm6.5,1.07a3.934,3.934,0,0,1-3-1.156,4.476,4.476,0,0,1-1.1-3.211,4.964,4.964,0,0,1,1.02-3.289,3.387,3.387,0,0,1,2.738-1.219,3.229,3.229,0,0,1,2.547,1.059,4.057,4.057,0,0,1,.938,2.793v.82h-5.9a3.394,3.394,0,0,0,.762,2.289,2.634,2.634,0,0,0,2.035.781,6.9,6.9,0,0,0,2.734-.578V64.6a6.863,6.863,0,0,1-1.3.426A7.31,7.31,0,0,1,134.93,65.156Zm-.352-7.789a2.118,2.118,0,0,0-1.645.672,3.1,3.1,0,0,0-.723,1.859h4.477a2.851,2.851,0,0,0-.547-1.879A1.925,1.925,0,0,0,134.578,57.367ZM151.2,65V59.43a2.312,2.312,0,0,0-.437-1.535,1.692,1.692,0,0,0-1.359-.512,2.195,2.195,0,0,0-1.789.7,3.3,3.3,0,0,0-.578,2.141V65h-1.3V59.43a2.312,2.312,0,0,0-.437-1.535,1.7,1.7,0,0,0-1.367-.512,2.118,2.118,0,0,0-1.785.73,3.953,3.953,0,0,0-.566,2.395V65h-1.3V56.438h1.055l.211,1.172h.063a2.549,2.549,0,0,1,1.035-.977,3.163,3.163,0,0,1,1.5-.352,2.544,2.544,0,0,1,2.625,1.453h.063a2.73,2.73,0,0,1,1.109-1.062,3.442,3.442,0,0,1,1.656-.391,2.9,2.9,0,0,1,2.176.746,3.338,3.338,0,0,1,.723,2.387V65Zm7.953.156a3.706,3.706,0,0,1-1.527-.309,2.872,2.872,0,0,1-1.16-.949h-.094a11.485,11.485,0,0,1,.094,1.422v3.523h-1.3V56.438h1.055l.18,1.172h.063a3.012,3.012,0,0,1,1.164-1.016,3.539,3.539,0,0,1,1.523-.312,3.165,3.165,0,0,1,2.629,1.164,5.125,5.125,0,0,1,.926,3.266,5.1,5.1,0,0,1-.941,3.277A3.17,3.17,0,0,1,159.156,65.156Zm-.187-7.773a2.3,2.3,0,0,0-1.9.727,3.739,3.739,0,0,0-.6,2.313v.289a4.285,4.285,0,0,0,.6,2.582,2.288,2.288,0,0,0,1.93.777,2.007,2.007,0,0,0,1.738-.9,4.26,4.26,0,0,0,.629-2.477,4.1,4.1,0,0,0-.629-2.457A2.069,2.069,0,0,0,158.969,57.383Zm13.4,3.328a4.724,4.724,0,0,1-1.055,3.27,3.714,3.714,0,0,1-2.914,1.176,3.86,3.86,0,0,1-2.039-.539,3.558,3.558,0,0,1-1.375-1.547,5.391,5.391,0,0,1-.484-2.359,4.716,4.716,0,0,1,1.047-3.262,3.7,3.7,0,0,1,2.906-1.168,3.622,3.622,0,0,1,2.855,1.2A4.7,4.7,0,0,1,172.367,60.711Zm-6.523,0a4.064,4.064,0,0,0,.656,2.5,2.6,2.6,0,0,0,3.863,0,4.043,4.043,0,0,0,.66-2.5,3.978,3.978,0,0,0-.66-2.48,2.32,2.32,0,0,0-1.949-.848,2.283,2.283,0,0,0-1.922.836A4.023,4.023,0,0,0,165.844,60.711Zm12.7-4.43a5.075,5.075,0,0,1,1.023.094l-.18,1.2a4.418,4.418,0,0,0-.937-.117,2.282,2.282,0,0,0-1.777.844,3.077,3.077,0,0,0-.738,2.1V65h-1.3V56.438h1.07l.148,1.586h.063a3.764,3.764,0,0,1,1.148-1.289A2.585,2.585,0,0,1,178.547,56.281ZM186.625,65h-1.3V56.438h1.3Zm-1.406-10.883a.861.861,0,0,1,.219-.652.81.81,0,0,1,1.086,0,.846.846,0,0,1,.227.648.859.859,0,0,1-.227.652.794.794,0,0,1-1.086,0A.877.877,0,0,1,185.219,54.117ZM195.234,65V59.461a2.235,2.235,0,0,0-.477-1.562,1.941,1.941,0,0,0-1.492-.516,2.461,2.461,0,0,0-1.969.727,3.668,3.668,0,0,0-.625,2.4V65h-1.3V56.438h1.055l.211,1.172h.063a2.648,2.648,0,0,1,1.117-.98,3.63,3.63,0,0,1,1.6-.348,3.252,3.252,0,0,1,2.328.746,3.175,3.175,0,0,1,.781,2.387V65Zm5.836,0-3.25-8.562h1.391l1.844,5.078a24.035,24.035,0,0,1,.734,2.313h.063a17.468,17.468,0,0,1,.543-1.715q.457-1.3,2.051-5.676h1.391L202.586,65Zm7.438,0h-1.3V56.438h1.3ZM207.1,54.117a.861.861,0,0,1,.219-.652.81.81,0,0,1,1.086,0,.846.846,0,0,1,.227.648.859.859,0,0,1-.227.652.794.794,0,0,1-1.086,0A.877.877,0,0,1,207.1,54.117Zm9.984,9.734h-.07a3.047,3.047,0,0,1-2.687,1.3,3.179,3.179,0,0,1-2.613-1.148,5.055,5.055,0,0,1-.934-3.266,5.141,5.141,0,0,1,.938-3.289,3.155,3.155,0,0,1,2.609-1.172A3.114,3.114,0,0,1,217,57.547h.1l-.055-.617-.031-.6V52.844h1.3V65h-1.055Zm-2.594.219a2.361,2.361,0,0,0,1.926-.723,3.652,3.652,0,0,0,.6-2.332v-.273a4.3,4.3,0,0,0-.605-2.6,2.3,2.3,0,0,0-1.934-.777,1.985,1.985,0,0,0-1.746.887,4.409,4.409,0,0,0-.605,2.5,4.227,4.227,0,0,0,.6,2.477A2.037,2.037,0,0,0,214.492,64.07Zm7.789-7.633v5.555a2.235,2.235,0,0,0,.477,1.563,1.941,1.941,0,0,0,1.492.516,2.435,2.435,0,0,0,1.965-.734,3.7,3.7,0,0,0,.621-2.4v-4.5h1.3V65h-1.07l-.187-1.148h-.07a2.585,2.585,0,0,1-1.105.969,3.716,3.716,0,0,1-1.613.336,3.273,3.273,0,0,1-2.34-.742,3.159,3.159,0,0,1-.777-2.375v-5.6ZM236.742,65V59.461a2.235,2.235,0,0,0-.477-1.562,1.941,1.941,0,0,0-1.492-.516,2.461,2.461,0,0,0-1.969.727,3.668,3.668,0,0,0-.625,2.4V65h-1.3V56.438h1.055l.211,1.172h.063a2.648,2.648,0,0,1,1.117-.98,3.63,3.63,0,0,1,1.6-.348,3.252,3.252,0,0,1,2.328.746,3.175,3.175,0,0,1,.781,2.387V65Zm6.727-.914a4.237,4.237,0,0,0,.664-.051,4.3,4.3,0,0,0,.508-.105v.992a2.371,2.371,0,0,1-.621.168,4.664,4.664,0,0,1-.738.066q-2.484,0-2.484-2.617V57.445H239.57V56.82l1.227-.539.547-1.828h.75v1.984h2.484v1.008h-2.484v5.039a1.733,1.733,0,0,0,.367,1.188A1.278,1.278,0,0,0,243.469,64.086Zm8.258-7.648v5.555a2.235,2.235,0,0,0,.477,1.563,1.941,1.941,0,0,0,1.492.516,2.435,2.435,0,0,0,1.965-.734,3.7,3.7,0,0,0,.621-2.4v-4.5h1.3V65h-1.07l-.187-1.148h-.07a2.585,2.585,0,0,1-1.105.969,3.716,3.716,0,0,1-1.613.336,3.273,3.273,0,0,1-2.34-.742,3.159,3.159,0,0,1-.777-2.375v-5.6Zm11.367,7.648a4.237,4.237,0,0,0,.664-.051,4.3,4.3,0,0,0,.508-.105v.992a2.371,2.371,0,0,1-.621.168,4.664,4.664,0,0,1-.738.066q-2.484,0-2.484-2.617V57.445H259.2V56.82l1.227-.539.547-1.828h.75v1.984H264.2v1.008h-2.484v5.039a1.734,1.734,0,0,0,.367,1.188A1.278,1.278,0,0,0,263.094,64.086Z" transform="translate(-6044 -19207)" fill="#38485c"/>
    <g id="Group_26331" data-name="Group 26331" transform="translate(-6209 -20029)">
      <rect id="Rectangle_26331" data-name="Rectangle 26331" width="292" height="1" transform="translate(165 813)" fill="#e6ebf0"/>
      <path id="Rectangle_26331_-_Outline" data-name="Rectangle 26331 - Outline" d="M0,0H292V1H0Z" transform="translate(165 813)" fill="#e6ebf0"/>
    </g>
    <path id="_Text_Body_1_Selected_On_Surface_Medium_Emphasis_Left_2" data-name="✱ / Text / Body 1 / Selected / On Surface / Medium Emphasis / Left " d="M2.6,19a1.156,1.156,0,0,1-.855-.3,1.13,1.13,0,0,1-.3-.836V6.726a1.194,1.194,0,0,1,.333-.884A1.194,1.194,0,0,1,2.66,5.51a1.219,1.219,0,0,1,.9.332,1.194,1.194,0,0,1,.332.884v10.26H9.234q1.14,0,1.14,1.007T9.234,19Zm13.338.152a5.112,5.112,0,0,1-2.5-.589,4.075,4.075,0,0,1-1.663-1.691,5.361,5.361,0,0,1-.589-2.565,5.305,5.305,0,0,1,.589-2.556,4.089,4.089,0,0,1,1.663-1.682,5.112,5.112,0,0,1,2.5-.589,5.112,5.112,0,0,1,2.5.589,4.03,4.03,0,0,1,1.653,1.682,5.376,5.376,0,0,1,.58,2.556,5.433,5.433,0,0,1-.58,2.565,4.017,4.017,0,0,1-1.653,1.691A5.112,5.112,0,0,1,15.941,19.152Zm-.019-1.843a2.129,2.129,0,0,0,1.767-.76,3.531,3.531,0,0,0,.608-2.242,3.538,3.538,0,0,0-.608-2.233,2.1,2.1,0,0,0-1.748-.769,2.123,2.123,0,0,0-1.757.769,3.5,3.5,0,0,0-.618,2.233,3.531,3.531,0,0,0,.608,2.242A2.108,2.108,0,0,0,15.922,17.309ZM27.8,9.519a1.023,1.023,0,0,1,.779.209.928.928,0,0,1,.285.741,1.035,1.035,0,0,1-.247.76,1.517,1.517,0,0,1-.893.323l-.57.057a2.309,2.309,0,0,0-1.644.76,2.485,2.485,0,0,0-.522,1.615v3.99a1.055,1.055,0,0,1-.342.846,1.264,1.264,0,0,1-.855.295,1.228,1.228,0,0,1-.845-.295,1.07,1.07,0,0,1-.333-.846V10.621a1.017,1.017,0,0,1,.333-.817,1.226,1.226,0,0,1,.826-.285,1.143,1.143,0,0,1,.8.276,1.01,1.01,0,0,1,.3.788v.76a2.812,2.812,0,0,1,1.073-1.292,3.291,3.291,0,0,1,1.587-.513Zm9.234,6.935a.639.639,0,0,1,.522.247,1.028,1.028,0,0,1,.2.665,1.152,1.152,0,0,1-.7.988,6.352,6.352,0,0,1-1.463.58,6.032,6.032,0,0,1-1.558.219,4.841,4.841,0,0,1-3.553-1.292,4.736,4.736,0,0,1-1.311-3.534,5.422,5.422,0,0,1,.57-2.527,4.145,4.145,0,0,1,1.605-1.71,4.547,4.547,0,0,1,2.347-.608,4.21,4.21,0,0,1,2.185.551,3.736,3.736,0,0,1,1.444,1.558,5.17,5.17,0,0,1,.513,2.375q0,.817-.722.817H31.5a2.989,2.989,0,0,0,.741,1.929,2.494,2.494,0,0,0,1.824.617,3.459,3.459,0,0,0,1.073-.152,10.6,10.6,0,0,0,1.055-.418A2.1,2.1,0,0,1,37.031,16.454Zm-3.287-5.3a2.039,2.039,0,0,0-1.549.608,2.871,2.871,0,0,0-.693,1.748H35.8a2.709,2.709,0,0,0-.57-1.757A1.88,1.88,0,0,0,33.744,11.153ZM50.787,9.481a2.961,2.961,0,0,1,2.327.9,4.315,4.315,0,0,1,.807,2.916v4.674a1.07,1.07,0,0,1-.333.846,1.255,1.255,0,0,1-.864.295,1.228,1.228,0,0,1-.846-.295,1.07,1.07,0,0,1-.333-.846V13.3a2.35,2.35,0,0,0-.371-1.491,1.385,1.385,0,0,0-1.13-.447A1.861,1.861,0,0,0,48.564,12a2.567,2.567,0,0,0-.551,1.738v4.237a1.07,1.07,0,0,1-.333.846,1.228,1.228,0,0,1-.846.295,1.264,1.264,0,0,1-.855-.295,1.055,1.055,0,0,1-.342-.846V13.3a2.35,2.35,0,0,0-.37-1.491,1.385,1.385,0,0,0-1.131-.447A1.832,1.832,0,0,0,42.665,12a2.6,2.6,0,0,0-.542,1.738v4.237a1.055,1.055,0,0,1-.342.846,1.264,1.264,0,0,1-.855.295,1.228,1.228,0,0,1-.846-.295,1.07,1.07,0,0,1-.333-.846V10.621A1,1,0,0,1,40.09,9.8a1.29,1.29,0,0,1,.855-.285,1.178,1.178,0,0,1,.807.276.994.994,0,0,1,.314.788v.456A2.978,2.978,0,0,1,43.235,9.88a3.455,3.455,0,0,1,1.681-.4,2.722,2.722,0,0,1,2.793,1.748,3.14,3.14,0,0,1,1.235-1.273A3.6,3.6,0,0,1,50.787,9.481Zm11.837,9.633a1.228,1.228,0,0,1-.846-.295,1.07,1.07,0,0,1-.333-.846V10.64a1.04,1.04,0,0,1,.333-.836,1.253,1.253,0,0,1,.846-.285,1.29,1.29,0,0,1,.855.285,1.026,1.026,0,0,1,.342.836v7.334a1.055,1.055,0,0,1-.342.846A1.264,1.264,0,0,1,62.624,19.114Zm0-11.286A1.452,1.452,0,0,1,61.6,7.476a1.2,1.2,0,0,1-.38-.921,1.167,1.167,0,0,1,.38-.912,1.7,1.7,0,0,1,2.042,0,1.153,1.153,0,0,1,.389.912,1.2,1.2,0,0,1-.38.921A1.452,1.452,0,0,1,62.624,7.828Zm8.968,1.653a3.851,3.851,0,0,1,2.138.608,4.032,4.032,0,0,1,1.463,1.72,5.942,5.942,0,0,1,.522,2.556,5.754,5.754,0,0,1-.522,2.527,3.836,3.836,0,0,1-3.6,2.261,3.678,3.678,0,0,1-1.767-.418,2.933,2.933,0,0,1-1.2-1.159v3.876a.986.986,0,0,1-.323.779,1.245,1.245,0,0,1-.855.285,1.231,1.231,0,0,1-.865-.3,1.03,1.03,0,0,1-.332-.8V10.64a1.085,1.085,0,0,1,.313-.817,1.163,1.163,0,0,1,.845-.3,1.2,1.2,0,0,1,.855.3,1.068,1.068,0,0,1,.323.817v.475A2.915,2.915,0,0,1,69.8,9.908,3.706,3.706,0,0,1,71.592,9.481Zm-.627,7.828a2.129,2.129,0,0,0,1.748-.77,3.359,3.359,0,0,0,.627-2.175,3.55,3.55,0,0,0-.627-2.242,2.342,2.342,0,0,0-3.506-.019,3.505,3.505,0,0,0-.618,2.223,3.471,3.471,0,0,0,.618,2.2A2.112,2.112,0,0,0,70.965,17.309Zm10.051,1.843a6.109,6.109,0,0,1-3.344-.817,1.133,1.133,0,0,1-.608-1.026.9.9,0,0,1,.209-.618.657.657,0,0,1,.513-.237,2.1,2.1,0,0,1,.893.3,8.317,8.317,0,0,0,1.111.437,4.527,4.527,0,0,0,1.283.152,2.439,2.439,0,0,0,1.244-.266.824.824,0,0,0,.447-.741.714.714,0,0,0-.181-.513,1.655,1.655,0,0,0-.646-.351,13.584,13.584,0,0,0-1.415-.371,5.438,5.438,0,0,1-2.423-.969,2.156,2.156,0,0,1-.732-1.729,2.5,2.5,0,0,1,.494-1.51A3.2,3.2,0,0,1,79.22,9.851a4.949,4.949,0,0,1,1.966-.37,5.894,5.894,0,0,1,1.539.2,4.678,4.678,0,0,1,1.33.58,1.147,1.147,0,0,1,.608,1.007.975.975,0,0,1-.209.636.639.639,0,0,1-.513.257,1.028,1.028,0,0,1-.409-.085,5.481,5.481,0,0,1-.5-.256,7.967,7.967,0,0,0-.95-.428,2.963,2.963,0,0,0-.988-.142,1.913,1.913,0,0,0-1.112.285.9.9,0,0,0-.409.779.791.791,0,0,0,.418.722,5.986,5.986,0,0,0,1.615.494,9.214,9.214,0,0,1,2,.608,2.336,2.336,0,0,1,1.035.855,2.48,2.48,0,0,1,.313,1.311,2.436,2.436,0,0,1-1.073,2.071A4.766,4.766,0,0,1,81.016,19.152ZM94.183,9.519a1.224,1.224,0,0,1,.874.3,1.068,1.068,0,0,1,.323.817v7.372a1.03,1.03,0,0,1-.332.8,1.231,1.231,0,0,1-.865.3,1.146,1.146,0,0,1-.817-.285,1.016,1.016,0,0,1-.3-.779v-.475a3.027,3.027,0,0,1-1.178,1.168,3.4,3.4,0,0,1-1.672.409q-3.42,0-3.42-3.838V10.64a1.068,1.068,0,0,1,.323-.817,1.2,1.2,0,0,1,.855-.3,1.224,1.224,0,0,1,.874.3,1.068,1.068,0,0,1,.323.817v4.693a2.242,2.242,0,0,0,.4,1.463,1.548,1.548,0,0,0,1.254.475,2.045,2.045,0,0,0,1.586-.656,2.478,2.478,0,0,0,.6-1.738V10.64a1.068,1.068,0,0,1,.323-.817A1.2,1.2,0,0,1,94.183,9.519Zm14.687-.038a2.961,2.961,0,0,1,2.327.9A4.315,4.315,0,0,1,112,13.3v4.674a1.07,1.07,0,0,1-.332.846,1.255,1.255,0,0,1-.865.295,1.228,1.228,0,0,1-.845-.295,1.07,1.07,0,0,1-.333-.846V13.3a2.35,2.35,0,0,0-.37-1.491,1.385,1.385,0,0,0-1.131-.447,1.861,1.861,0,0,0-1.482.637,2.567,2.567,0,0,0-.551,1.738v4.237a1.07,1.07,0,0,1-.332.846,1.228,1.228,0,0,1-.846.295,1.264,1.264,0,0,1-.855-.295,1.055,1.055,0,0,1-.342-.846V13.3a2.35,2.35,0,0,0-.37-1.491,1.385,1.385,0,0,0-1.131-.447,1.832,1.832,0,0,0-1.473.637,2.6,2.6,0,0,0-.541,1.738v4.237a1.055,1.055,0,0,1-.342.846,1.264,1.264,0,0,1-.855.295,1.228,1.228,0,0,1-.846-.295,1.07,1.07,0,0,1-.332-.846V10.621a1,1,0,0,1,.342-.817,1.29,1.29,0,0,1,.855-.285,1.178,1.178,0,0,1,.808.276.994.994,0,0,1,.313.788v.456a2.978,2.978,0,0,1,1.168-1.159,3.455,3.455,0,0,1,1.682-.4,2.722,2.722,0,0,1,2.793,1.748,3.14,3.14,0,0,1,1.235-1.273A3.6,3.6,0,0,1,108.87,9.481ZM127.281,5.51a1.266,1.266,0,0,1,.874.3,1.017,1.017,0,0,1,.342.8V17.974a1.068,1.068,0,0,1-.323.817,1.354,1.354,0,0,1-1.71,0,1.068,1.068,0,0,1-.323-.817V17.5a2.975,2.975,0,0,1-1.206,1.216,3.641,3.641,0,0,1-1.8.437A3.851,3.851,0,0,1,121,18.544a4.032,4.032,0,0,1-1.463-1.719,5.942,5.942,0,0,1-.522-2.556,5.754,5.754,0,0,1,.522-2.527,3.836,3.836,0,0,1,3.6-2.261,3.718,3.718,0,0,1,1.786.418,2.9,2.9,0,0,1,1.2,1.178v-4.5a1.007,1.007,0,0,1,.313-.77A1.185,1.185,0,0,1,127.281,5.51Zm-3.515,11.8a2.112,2.112,0,0,0,1.757-.779,3.505,3.505,0,0,0,.618-2.223,3.464,3.464,0,0,0-.618-2.214,2.1,2.1,0,0,0-1.739-.77,2.163,2.163,0,0,0-1.767.76,3.352,3.352,0,0,0-.627,2.185,3.55,3.55,0,0,0,.627,2.242A2.1,2.1,0,0,0,123.766,17.309Zm11.4,1.843a5.112,5.112,0,0,1-2.5-.589,4.075,4.075,0,0,1-1.662-1.691,5.361,5.361,0,0,1-.589-2.565,5.305,5.305,0,0,1,.589-2.556,4.089,4.089,0,0,1,1.662-1.682,5.594,5.594,0,0,1,5,0,4.03,4.03,0,0,1,1.653,1.682,5.376,5.376,0,0,1,.579,2.556,5.433,5.433,0,0,1-.579,2.565,4.017,4.017,0,0,1-1.653,1.691A5.112,5.112,0,0,1,135.166,19.152Zm-.019-1.843a2.129,2.129,0,0,0,1.767-.76,3.531,3.531,0,0,0,.608-2.242,3.538,3.538,0,0,0-.608-2.233,2.1,2.1,0,0,0-1.748-.769,2.123,2.123,0,0,0-1.758.769,3.5,3.5,0,0,0-.617,2.233,3.531,3.531,0,0,0,.608,2.242A2.108,2.108,0,0,0,135.147,17.309Zm7.866,1.805a1.228,1.228,0,0,1-.845-.295,1.07,1.07,0,0,1-.333-.846V6.631a1.04,1.04,0,0,1,.333-.836,1.253,1.253,0,0,1,.845-.285,1.29,1.29,0,0,1,.855.285,1.026,1.026,0,0,1,.342.836V17.974a1.055,1.055,0,0,1-.342.846A1.264,1.264,0,0,1,143.013,19.114Zm7.866.038a5.112,5.112,0,0,1-2.5-.589,4.075,4.075,0,0,1-1.662-1.691,5.361,5.361,0,0,1-.589-2.565,5.305,5.305,0,0,1,.589-2.556,4.089,4.089,0,0,1,1.662-1.682,5.594,5.594,0,0,1,5,0,4.03,4.03,0,0,1,1.653,1.682,5.376,5.376,0,0,1,.579,2.556,5.433,5.433,0,0,1-.579,2.565,4.017,4.017,0,0,1-1.653,1.691A5.112,5.112,0,0,1,150.879,19.152Zm-.019-1.843a2.129,2.129,0,0,0,1.767-.76,3.531,3.531,0,0,0,.608-2.242,3.538,3.538,0,0,0-.608-2.233,2.1,2.1,0,0,0-1.748-.769,2.123,2.123,0,0,0-1.758.769,3.5,3.5,0,0,0-.617,2.233,3.531,3.531,0,0,0,.608,2.242A2.108,2.108,0,0,0,150.86,17.309Zm11.875-7.79a1.023,1.023,0,0,1,.779.209.928.928,0,0,1,.285.741,1.035,1.035,0,0,1-.247.76,1.517,1.517,0,0,1-.893.323l-.57.057a2.309,2.309,0,0,0-1.643.76,2.485,2.485,0,0,0-.523,1.615v3.99a1.055,1.055,0,0,1-.342.846,1.264,1.264,0,0,1-.855.295,1.228,1.228,0,0,1-.845-.295,1.07,1.07,0,0,1-.333-.846V10.621a1.017,1.017,0,0,1,.333-.817,1.226,1.226,0,0,1,.826-.285,1.143,1.143,0,0,1,.8.276,1.01,1.01,0,0,1,.3.788v.76a2.812,2.812,0,0,1,1.074-1.292,3.291,3.291,0,0,1,1.587-.513ZM173.3,19.152a6.109,6.109,0,0,1-3.344-.817,1.133,1.133,0,0,1-.608-1.026.9.9,0,0,1,.209-.618.657.657,0,0,1,.513-.237,2.1,2.1,0,0,1,.893.3,8.317,8.317,0,0,0,1.111.437,4.527,4.527,0,0,0,1.283.152,2.439,2.439,0,0,0,1.245-.266.824.824,0,0,0,.446-.741.714.714,0,0,0-.18-.513,1.655,1.655,0,0,0-.646-.351,13.584,13.584,0,0,0-1.415-.371,5.438,5.438,0,0,1-2.423-.969,2.156,2.156,0,0,1-.732-1.729,2.5,2.5,0,0,1,.494-1.51A3.2,3.2,0,0,1,171.5,9.851a4.949,4.949,0,0,1,1.966-.37,5.894,5.894,0,0,1,1.539.2,4.678,4.678,0,0,1,1.33.58,1.147,1.147,0,0,1,.608,1.007.975.975,0,0,1-.209.636.639.639,0,0,1-.513.257,1.028,1.028,0,0,1-.409-.085,5.482,5.482,0,0,1-.5-.256,7.966,7.966,0,0,0-.95-.428,2.963,2.963,0,0,0-.988-.142,1.913,1.913,0,0,0-1.111.285.9.9,0,0,0-.408.779.791.791,0,0,0,.418.722,5.986,5.986,0,0,0,1.615.494,9.214,9.214,0,0,1,2,.608,2.336,2.336,0,0,1,1.035.855,2.48,2.48,0,0,1,.314,1.311,2.436,2.436,0,0,1-1.074,2.071A4.766,4.766,0,0,1,173.3,19.152Zm7.011-.038a1.228,1.228,0,0,1-.845-.295,1.07,1.07,0,0,1-.333-.846V10.64a1.04,1.04,0,0,1,.333-.836,1.253,1.253,0,0,1,.845-.285,1.29,1.29,0,0,1,.855.285,1.026,1.026,0,0,1,.342.836v7.334a1.055,1.055,0,0,1-.342.846A1.264,1.264,0,0,1,180.31,19.114Zm0-11.286a1.452,1.452,0,0,1-1.026-.352,1.2,1.2,0,0,1-.38-.921,1.167,1.167,0,0,1,.38-.912,1.7,1.7,0,0,1,2.043,0,1.153,1.153,0,0,1,.389.912,1.2,1.2,0,0,1-.38.921A1.452,1.452,0,0,1,180.31,7.828Zm8.455,9.519q.95.057.95.855a.773.773,0,0,1-.37.694,1.768,1.768,0,0,1-1.055.2l-.513-.038a3.057,3.057,0,0,1-3.192-3.42V11.495h-.95a1.206,1.206,0,0,1-.788-.228.814.814,0,0,1-.275-.665.814.814,0,0,1,.275-.665,1.206,1.206,0,0,1,.788-.228h.95V7.961a1.068,1.068,0,0,1,.323-.817,1.224,1.224,0,0,1,.874-.3,1.2,1.2,0,0,1,.855.3,1.068,1.068,0,0,1,.323.817V9.709h1.615a1.206,1.206,0,0,1,.788.228.814.814,0,0,1,.275.665.814.814,0,0,1-.275.665,1.206,1.206,0,0,1-.788.228H186.96v4.313q0,1.406,1.292,1.5Zm11.324-7.866a3.87,3.87,0,0,1,2.878.96,4.017,4.017,0,0,1,.941,2.917v4.636a1.072,1.072,0,0,1-.3.808,1.151,1.151,0,0,1-.836.294,1.112,1.112,0,0,1-.807-.3,1.061,1.061,0,0,1-.314-.8v-.418a2.479,2.479,0,0,1-1.016,1.159,3.049,3.049,0,0,1-1.605.418,3.728,3.728,0,0,1-1.691-.38,3.008,3.008,0,0,1-1.2-1.045,2.64,2.64,0,0,1-.437-1.482,2.348,2.348,0,0,1,.523-1.615,3.14,3.14,0,0,1,1.7-.855,15.486,15.486,0,0,1,3.249-.266h.475v-.437a1.945,1.945,0,0,0-.4-1.359,1.7,1.7,0,0,0-1.292-.427,4.1,4.1,0,0,0-1.121.161q-.57.162-1.349.465a1.9,1.9,0,0,1-.722.247.714.714,0,0,1-.561-.247.939.939,0,0,1-.219-.646.973.973,0,0,1,.161-.561,1.533,1.533,0,0,1,.542-.446,6.193,6.193,0,0,1,1.587-.57A8.186,8.186,0,0,1,200.089,9.481Zm-.589,7.961a2.029,2.029,0,0,0,1.549-.636,2.3,2.3,0,0,0,.6-1.644v-.4h-.342a13.107,13.107,0,0,0-1.976.114,1.918,1.918,0,0,0-1.007.4,1.016,1.016,0,0,0-.3.779,1.289,1.289,0,0,0,.428,1A1.508,1.508,0,0,0,199.5,17.442Zm17.841-7.961a2.961,2.961,0,0,1,2.327.9,4.315,4.315,0,0,1,.807,2.916v4.674a1.07,1.07,0,0,1-.333.846,1.255,1.255,0,0,1-.864.295,1.228,1.228,0,0,1-.846-.295,1.07,1.07,0,0,1-.333-.846V13.3a2.35,2.35,0,0,0-.37-1.491,1.385,1.385,0,0,0-1.13-.447,1.861,1.861,0,0,0-1.482.637,2.567,2.567,0,0,0-.551,1.738v4.237a1.07,1.07,0,0,1-.333.846,1.228,1.228,0,0,1-.845.295,1.264,1.264,0,0,1-.855-.295,1.055,1.055,0,0,1-.342-.846V13.3a2.35,2.35,0,0,0-.37-1.491,1.385,1.385,0,0,0-1.131-.447,1.832,1.832,0,0,0-1.472.637,2.6,2.6,0,0,0-.542,1.738v4.237a1.055,1.055,0,0,1-.342.846,1.264,1.264,0,0,1-.855.295,1.228,1.228,0,0,1-.845-.295,1.07,1.07,0,0,1-.333-.846V10.621a1,1,0,0,1,.342-.817,1.29,1.29,0,0,1,.855-.285,1.178,1.178,0,0,1,.807.276.994.994,0,0,1,.313.788v.456a2.978,2.978,0,0,1,1.169-1.159,3.455,3.455,0,0,1,1.682-.4,2.722,2.722,0,0,1,2.793,1.748A3.14,3.14,0,0,1,215.5,9.956,3.6,3.6,0,0,1,217.341,9.481Zm12.882,6.973a.639.639,0,0,1,.523.247,1.028,1.028,0,0,1,.2.665,1.152,1.152,0,0,1-.7.988,6.351,6.351,0,0,1-1.463.58,6.032,6.032,0,0,1-1.558.219,4.841,4.841,0,0,1-3.553-1.292,4.736,4.736,0,0,1-1.311-3.534,5.422,5.422,0,0,1,.57-2.527,4.145,4.145,0,0,1,1.605-1.71,4.547,4.547,0,0,1,2.346-.608,4.21,4.21,0,0,1,2.185.551,3.736,3.736,0,0,1,1.444,1.558,5.17,5.17,0,0,1,.513,2.375q0,.817-.722.817h-5.6a2.989,2.989,0,0,0,.741,1.929,2.494,2.494,0,0,0,1.824.617,3.459,3.459,0,0,0,1.074-.152,10.6,10.6,0,0,0,1.055-.418A2.1,2.1,0,0,1,230.223,16.454Zm-3.287-5.3a2.039,2.039,0,0,0-1.548.608,2.871,2.871,0,0,0-.693,1.748h4.294a2.709,2.709,0,0,0-.57-1.757A1.88,1.88,0,0,0,226.936,11.153Zm10.7,6.194q.95.057.95.855a.773.773,0,0,1-.37.694,1.768,1.768,0,0,1-1.055.2l-.513-.038a3.057,3.057,0,0,1-3.192-3.42V11.495h-.95a1.206,1.206,0,0,1-.788-.228.814.814,0,0,1-.275-.665.814.814,0,0,1,.275-.665,1.206,1.206,0,0,1,.788-.228h.95V7.961a1.068,1.068,0,0,1,.323-.817,1.224,1.224,0,0,1,.874-.3,1.2,1.2,0,0,1,.855.3,1.068,1.068,0,0,1,.323.817V9.709h1.615a1.206,1.206,0,0,1,.788.228.814.814,0,0,1,.275.665.814.814,0,0,1-.275.665,1.206,1.206,0,0,1-.788.228h-1.615v4.313q0,1.406,1.292,1.5Zm3.629-1.083a1.3,1.3,0,0,1,1.045.475,2.106,2.106,0,0,1,.4,1.387,4.354,4.354,0,0,1-1.254,3.116.744.744,0,0,1-.532.247.71.71,0,0,1-.494-.19.6.6,0,0,1-.209-.456.645.645,0,0,1,.19-.437,2.911,2.911,0,0,0,.741-1.368,1.4,1.4,0,0,1-.9-.427,1.287,1.287,0,0,1-.352-.922,1.416,1.416,0,0,1,.389-1.016A1.3,1.3,0,0,1,241.262,16.264ZM5.358,45.152a4.923,4.923,0,0,1-2.442-.589,4.015,4.015,0,0,1-1.625-1.672,5.82,5.82,0,0,1,.028-5.083A4.228,4.228,0,0,1,3,36.089a5,5,0,0,1,2.489-.608,5.539,5.539,0,0,1,1.491.209,4.92,4.92,0,0,1,1.321.57,1.176,1.176,0,0,1,.608,1.007,1.068,1.068,0,0,1-.2.675.631.631,0,0,1-.523.256,1.135,1.135,0,0,1-.437-.095,3.827,3.827,0,0,1-.456-.228,5.1,5.1,0,0,0-.8-.389,2.48,2.48,0,0,0-.874-.143,2.222,2.222,0,0,0-1.815.77,3.39,3.39,0,0,0-.637,2.214,3.357,3.357,0,0,0,.637,2.194,2.222,2.222,0,0,0,1.815.77,2.343,2.343,0,0,0,.845-.143,7.161,7.161,0,0,0,.826-.389A3.761,3.761,0,0,1,7.79,42.5a1.1,1.1,0,0,1,.418-.085.631.631,0,0,1,.513.266,1.043,1.043,0,0,1,.209.665,1.069,1.069,0,0,1-.142.561,1.283,1.283,0,0,1-.466.427,5,5,0,0,1-1.368.6A5.882,5.882,0,0,1,5.358,45.152Zm9.367,0a5.112,5.112,0,0,1-2.5-.589,4.075,4.075,0,0,1-1.663-1.691,5.361,5.361,0,0,1-.589-2.565,5.305,5.305,0,0,1,.589-2.556,4.089,4.089,0,0,1,1.663-1.681,5.112,5.112,0,0,1,2.5-.589,5.112,5.112,0,0,1,2.5.589,4.03,4.03,0,0,1,1.653,1.681,5.376,5.376,0,0,1,.58,2.556,5.433,5.433,0,0,1-.58,2.565,4.017,4.017,0,0,1-1.653,1.691A5.112,5.112,0,0,1,14.725,45.152Zm-.019-1.843a2.129,2.129,0,0,0,1.767-.76,3.531,3.531,0,0,0,.608-2.242,3.538,3.538,0,0,0-.608-2.232,2.1,2.1,0,0,0-1.748-.77,2.123,2.123,0,0,0-1.757.77,3.5,3.5,0,0,0-.618,2.232,3.531,3.531,0,0,0,.608,2.242A2.108,2.108,0,0,0,14.706,43.309ZM26.79,35.481a3.105,3.105,0,0,1,2.489.95A4.308,4.308,0,0,1,30.1,39.3v4.674a1.11,1.11,0,0,1-.313.836,1.189,1.189,0,0,1-.865.3,1.224,1.224,0,0,1-.874-.3,1.093,1.093,0,0,1-.323-.836V39.433a2.463,2.463,0,0,0-.409-1.577,1.57,1.57,0,0,0-1.282-.494,2.168,2.168,0,0,0-1.643.646,2.4,2.4,0,0,0-.618,1.729v4.237a1.093,1.093,0,0,1-.323.836,1.224,1.224,0,0,1-.874.3,1.189,1.189,0,0,1-.865-.3,1.11,1.11,0,0,1-.313-.836V36.621a1.045,1.045,0,0,1,.323-.8,1.224,1.224,0,0,1,.874-.3,1.132,1.132,0,0,1,.808.294,1.007,1.007,0,0,1,.313.77V37.1a3.213,3.213,0,0,1,1.273-1.2A3.831,3.831,0,0,1,26.79,35.481Zm9.063,9.671a6.109,6.109,0,0,1-3.344-.817,1.133,1.133,0,0,1-.608-1.026.9.9,0,0,1,.209-.617.657.657,0,0,1,.513-.238,2.1,2.1,0,0,1,.893.3,8.318,8.318,0,0,0,1.111.437,4.527,4.527,0,0,0,1.283.152,2.439,2.439,0,0,0,1.244-.266.824.824,0,0,0,.446-.741.714.714,0,0,0-.181-.513,1.655,1.655,0,0,0-.646-.351,13.583,13.583,0,0,0-1.415-.371,5.438,5.438,0,0,1-2.423-.969,2.156,2.156,0,0,1-.732-1.729A2.5,2.5,0,0,1,32.7,36.9a3.2,3.2,0,0,1,1.359-1.045,4.949,4.949,0,0,1,1.966-.371,5.894,5.894,0,0,1,1.539.2,4.678,4.678,0,0,1,1.33.58,1.147,1.147,0,0,1,.608,1.007.975.975,0,0,1-.209.637.639.639,0,0,1-.513.257,1.028,1.028,0,0,1-.409-.085,5.482,5.482,0,0,1-.5-.257,7.968,7.968,0,0,0-.95-.428,2.963,2.963,0,0,0-.988-.142,1.913,1.913,0,0,0-1.112.285.9.9,0,0,0-.408.779.791.791,0,0,0,.418.722,5.986,5.986,0,0,0,1.615.494,9.214,9.214,0,0,1,1.995.608,2.336,2.336,0,0,1,1.035.855,2.48,2.48,0,0,1,.313,1.311,2.436,2.436,0,0,1-1.073,2.071A4.766,4.766,0,0,1,35.853,45.152Zm13.186-2.7a.639.639,0,0,1,.522.247,1.028,1.028,0,0,1,.2.665,1.152,1.152,0,0,1-.7.988,6.351,6.351,0,0,1-1.463.579,6.032,6.032,0,0,1-1.558.219,4.841,4.841,0,0,1-3.553-1.292,4.736,4.736,0,0,1-1.311-3.534,5.422,5.422,0,0,1,.57-2.527,4.145,4.145,0,0,1,1.605-1.71,4.547,4.547,0,0,1,2.347-.608,4.21,4.21,0,0,1,2.185.551,3.736,3.736,0,0,1,1.444,1.558,5.17,5.17,0,0,1,.513,2.375q0,.817-.722.817h-5.6a2.989,2.989,0,0,0,.741,1.928,2.494,2.494,0,0,0,1.824.618,3.459,3.459,0,0,0,1.073-.152,10.6,10.6,0,0,0,1.055-.418A2.1,2.1,0,0,1,49.039,42.454Zm-3.287-5.3a2.039,2.039,0,0,0-1.549.608,2.871,2.871,0,0,0-.693,1.748H47.8a2.709,2.709,0,0,0-.57-1.757A1.88,1.88,0,0,0,45.752,37.153Zm10.7,6.194q.95.057.95.855a.773.773,0,0,1-.371.694,1.768,1.768,0,0,1-1.055.2l-.513-.038a3.057,3.057,0,0,1-3.192-3.42V37.495h-.95a1.206,1.206,0,0,1-.788-.228.94.94,0,0,1,0-1.33,1.206,1.206,0,0,1,.788-.228h.95V33.961a1.068,1.068,0,0,1,.323-.817,1.224,1.224,0,0,1,.874-.3,1.2,1.2,0,0,1,.855.3,1.068,1.068,0,0,1,.323.817v1.748h1.615a1.206,1.206,0,0,1,.789.228.94.94,0,0,1,0,1.33,1.206,1.206,0,0,1-.789.228H54.644v4.313q0,1.406,1.292,1.5Zm9.519-.893a.639.639,0,0,1,.522.247,1.028,1.028,0,0,1,.2.665,1.152,1.152,0,0,1-.7.988,6.351,6.351,0,0,1-1.463.579,6.032,6.032,0,0,1-1.558.219,4.841,4.841,0,0,1-3.553-1.292A4.736,4.736,0,0,1,58.1,40.326a5.422,5.422,0,0,1,.57-2.527,4.145,4.145,0,0,1,1.605-1.71,4.547,4.547,0,0,1,2.347-.608,4.21,4.21,0,0,1,2.185.551,3.736,3.736,0,0,1,1.444,1.558,5.17,5.17,0,0,1,.513,2.375q0,.817-.722.817h-5.6a2.989,2.989,0,0,0,.741,1.928A2.494,2.494,0,0,0,63,43.328a3.459,3.459,0,0,0,1.073-.152,10.6,10.6,0,0,0,1.055-.418A2.1,2.1,0,0,1,65.968,42.454Zm-3.287-5.3a2.039,2.039,0,0,0-1.549.608,2.871,2.871,0,0,0-.693,1.748h4.294a2.709,2.709,0,0,0-.57-1.757A1.88,1.88,0,0,0,62.681,37.153Zm10.7,6.194q.95.057.95.855a.773.773,0,0,1-.37.694,1.768,1.768,0,0,1-1.055.2l-.513-.038a3.057,3.057,0,0,1-3.192-3.42V37.495h-.95a1.206,1.206,0,0,1-.788-.228.94.94,0,0,1,0-1.33,1.206,1.206,0,0,1,.788-.228h.95V33.961a1.068,1.068,0,0,1,.323-.817,1.224,1.224,0,0,1,.874-.3,1.2,1.2,0,0,1,.855.3,1.068,1.068,0,0,1,.323.817v1.748h1.615a1.206,1.206,0,0,1,.788.228.94.94,0,0,1,0,1.33,1.206,1.206,0,0,1-.788.228H71.573v4.313q0,1.406,1.292,1.5Zm9.5-7.828a1.224,1.224,0,0,1,.874.3,1.068,1.068,0,0,1,.323.817v7.372a1.03,1.03,0,0,1-.332.8,1.231,1.231,0,0,1-.865.3,1.146,1.146,0,0,1-.817-.285,1.016,1.016,0,0,1-.3-.779v-.475a3.027,3.027,0,0,1-1.178,1.168,3.4,3.4,0,0,1-1.672.409q-3.42,0-3.42-3.838V36.64a1.068,1.068,0,0,1,.323-.817,1.2,1.2,0,0,1,.855-.3,1.224,1.224,0,0,1,.874.3,1.068,1.068,0,0,1,.323.817v4.693a2.242,2.242,0,0,0,.4,1.463,1.548,1.548,0,0,0,1.254.475,2.045,2.045,0,0,0,1.587-.655,2.478,2.478,0,0,0,.6-1.739V36.64a1.068,1.068,0,0,1,.323-.817A1.2,1.2,0,0,1,82.878,35.519Zm8.835,0a1.023,1.023,0,0,1,.779.209.928.928,0,0,1,.285.741,1.035,1.035,0,0,1-.247.76,1.517,1.517,0,0,1-.893.323l-.57.057a2.309,2.309,0,0,0-1.644.76,2.485,2.485,0,0,0-.522,1.615v3.99a1.055,1.055,0,0,1-.342.846,1.264,1.264,0,0,1-.855.294,1.228,1.228,0,0,1-.846-.294,1.07,1.07,0,0,1-.332-.846V36.621a1.017,1.017,0,0,1,.332-.817,1.226,1.226,0,0,1,.826-.285,1.143,1.143,0,0,1,.8.276,1.01,1.01,0,0,1,.3.788v.76a2.812,2.812,0,0,1,1.074-1.292,3.291,3.291,0,0,1,1.586-.513Zm10.564,9.633a6.109,6.109,0,0,1-3.344-.817,1.133,1.133,0,0,1-.608-1.026.9.9,0,0,1,.209-.617.657.657,0,0,1,.513-.238,2.1,2.1,0,0,1,.893.3,8.318,8.318,0,0,0,1.111.437,4.527,4.527,0,0,0,1.283.152,2.439,2.439,0,0,0,1.244-.266.824.824,0,0,0,.447-.741.714.714,0,0,0-.181-.513,1.655,1.655,0,0,0-.646-.351,13.583,13.583,0,0,0-1.415-.371,5.438,5.438,0,0,1-2.423-.969,2.156,2.156,0,0,1-.732-1.729,2.5,2.5,0,0,1,.494-1.511,3.2,3.2,0,0,1,1.358-1.045,4.949,4.949,0,0,1,1.966-.371,5.894,5.894,0,0,1,1.539.2,4.678,4.678,0,0,1,1.33.58,1.147,1.147,0,0,1,.608,1.007.975.975,0,0,1-.209.637.639.639,0,0,1-.513.257,1.028,1.028,0,0,1-.409-.085,5.482,5.482,0,0,1-.5-.257,7.967,7.967,0,0,0-.95-.428,2.963,2.963,0,0,0-.988-.142,1.913,1.913,0,0,0-1.112.285.9.9,0,0,0-.409.779.791.791,0,0,0,.418.722,5.986,5.986,0,0,0,1.615.494,9.214,9.214,0,0,1,2,.608,2.336,2.336,0,0,1,1.035.855,2.48,2.48,0,0,1,.313,1.311,2.436,2.436,0,0,1-1.073,2.071A4.766,4.766,0,0,1,102.277,45.152Zm9.861-9.671a3.87,3.87,0,0,1,2.879.959,4.017,4.017,0,0,1,.94,2.917v4.636a1.072,1.072,0,0,1-.3.807,1.151,1.151,0,0,1-.836.295,1.112,1.112,0,0,1-.808-.3,1.061,1.061,0,0,1-.313-.8v-.418a2.479,2.479,0,0,1-1.017,1.159,3.049,3.049,0,0,1-1.605.418,3.728,3.728,0,0,1-1.691-.38,3.008,3.008,0,0,1-1.2-1.045,2.641,2.641,0,0,1-.437-1.482,2.348,2.348,0,0,1,.522-1.615,3.14,3.14,0,0,1,1.7-.855,15.486,15.486,0,0,1,3.249-.266h.475v-.437a1.945,1.945,0,0,0-.4-1.358A1.7,1.7,0,0,0,112,37.286a4.1,4.1,0,0,0-1.121.161q-.57.162-1.349.466a1.9,1.9,0,0,1-.722.247.714.714,0,0,1-.561-.247.939.939,0,0,1-.219-.646.973.973,0,0,1,.162-.56,1.533,1.533,0,0,1,.541-.446,6.193,6.193,0,0,1,1.587-.57A8.186,8.186,0,0,1,112.138,35.481Zm-.589,7.961a2.029,2.029,0,0,0,1.549-.637,2.3,2.3,0,0,0,.6-1.644v-.4h-.342a13.107,13.107,0,0,0-1.976.114,1.918,1.918,0,0,0-1.007.4,1.016,1.016,0,0,0-.3.779,1.289,1.289,0,0,0,.427,1A1.508,1.508,0,0,0,111.549,43.442ZM126.1,31.51a1.266,1.266,0,0,1,.874.3,1.017,1.017,0,0,1,.342.8V43.974a1.068,1.068,0,0,1-.323.817,1.354,1.354,0,0,1-1.71,0,1.068,1.068,0,0,1-.323-.817V43.5a2.975,2.975,0,0,1-1.206,1.216,3.641,3.641,0,0,1-1.8.437,3.851,3.851,0,0,1-2.138-.608,4.032,4.032,0,0,1-1.463-1.719,5.942,5.942,0,0,1-.522-2.556,5.754,5.754,0,0,1,.522-2.527,3.836,3.836,0,0,1,3.6-2.261,3.718,3.718,0,0,1,1.786.418,2.9,2.9,0,0,1,1.2,1.178v-4.5a1.007,1.007,0,0,1,.313-.77A1.185,1.185,0,0,1,126.1,31.51Zm-3.515,11.8a2.112,2.112,0,0,0,1.757-.779,3.505,3.505,0,0,0,.618-2.223,3.464,3.464,0,0,0-.618-2.214,2.1,2.1,0,0,0-1.739-.769,2.163,2.163,0,0,0-1.767.76,3.352,3.352,0,0,0-.627,2.185,3.55,3.55,0,0,0,.627,2.242A2.1,2.1,0,0,0,122.588,43.309Zm8.341,1.805a1.228,1.228,0,0,1-.845-.294,1.07,1.07,0,0,1-.333-.846V36.64a1.04,1.04,0,0,1,.333-.836,1.253,1.253,0,0,1,.845-.285,1.29,1.29,0,0,1,.855.285,1.026,1.026,0,0,1,.342.836v7.334a1.055,1.055,0,0,1-.342.846A1.264,1.264,0,0,1,130.929,45.114Zm0-11.286a1.452,1.452,0,0,1-1.026-.351,1.2,1.2,0,0,1-.38-.922,1.167,1.167,0,0,1,.38-.912,1.7,1.7,0,0,1,2.043,0,1.153,1.153,0,0,1,.389.912,1.2,1.2,0,0,1-.38.922A1.452,1.452,0,0,1,130.929,33.828Zm8.968,1.653a3.851,3.851,0,0,1,2.137.608,4.032,4.032,0,0,1,1.463,1.719,5.942,5.942,0,0,1,.523,2.556,5.754,5.754,0,0,1-.523,2.527,3.836,3.836,0,0,1-3.6,2.261,3.678,3.678,0,0,1-1.767-.418,2.933,2.933,0,0,1-1.2-1.159v3.876a.986.986,0,0,1-.323.779,1.245,1.245,0,0,1-.855.285,1.231,1.231,0,0,1-.865-.3,1.03,1.03,0,0,1-.333-.8V36.64a1.085,1.085,0,0,1,.313-.817,1.163,1.163,0,0,1,.846-.3,1.2,1.2,0,0,1,.855.3,1.068,1.068,0,0,1,.323.817v.475a2.915,2.915,0,0,1,1.206-1.207A3.706,3.706,0,0,1,139.9,35.481Zm-.627,7.828a2.129,2.129,0,0,0,1.748-.769,3.359,3.359,0,0,0,.627-2.176,3.55,3.55,0,0,0-.627-2.242,2.342,2.342,0,0,0-3.506-.019,3.505,3.505,0,0,0-.617,2.223,3.471,3.471,0,0,0,.617,2.2A2.112,2.112,0,0,0,139.27,43.309Zm10.051,1.843a6.109,6.109,0,0,1-3.344-.817,1.133,1.133,0,0,1-.608-1.026.9.9,0,0,1,.209-.617.657.657,0,0,1,.513-.238,2.1,2.1,0,0,1,.893.3,8.318,8.318,0,0,0,1.111.437,4.527,4.527,0,0,0,1.283.152,2.439,2.439,0,0,0,1.245-.266.824.824,0,0,0,.446-.741.714.714,0,0,0-.18-.513,1.655,1.655,0,0,0-.646-.351,13.583,13.583,0,0,0-1.415-.371,5.438,5.438,0,0,1-2.423-.969,2.156,2.156,0,0,1-.732-1.729,2.5,2.5,0,0,1,.494-1.511,3.2,3.2,0,0,1,1.359-1.045,4.949,4.949,0,0,1,1.966-.371,5.894,5.894,0,0,1,1.539.2,4.678,4.678,0,0,1,1.33.58,1.147,1.147,0,0,1,.608,1.007.975.975,0,0,1-.209.637.639.639,0,0,1-.513.257,1.028,1.028,0,0,1-.409-.085,5.483,5.483,0,0,1-.5-.257,7.966,7.966,0,0,0-.95-.428,2.963,2.963,0,0,0-.988-.142,1.913,1.913,0,0,0-1.111.285.9.9,0,0,0-.408.779.791.791,0,0,0,.418.722,5.986,5.986,0,0,0,1.615.494,9.214,9.214,0,0,1,2,.608,2.336,2.336,0,0,1,1.035.855,2.48,2.48,0,0,1,.314,1.311,2.436,2.436,0,0,1-1.074,2.071A4.766,4.766,0,0,1,149.321,45.152Zm9.956,0a4.923,4.923,0,0,1-2.441-.589,4.015,4.015,0,0,1-1.624-1.672,5.82,5.82,0,0,1,.028-5.083,4.228,4.228,0,0,1,1.682-1.719,5,5,0,0,1,2.489-.608,5.539,5.539,0,0,1,1.492.209,4.92,4.92,0,0,1,1.32.57,1.176,1.176,0,0,1,.608,1.007,1.068,1.068,0,0,1-.2.675.631.631,0,0,1-.523.256,1.135,1.135,0,0,1-.437-.095,3.827,3.827,0,0,1-.456-.228,5.1,5.1,0,0,0-.8-.389,2.48,2.48,0,0,0-.874-.143,2.222,2.222,0,0,0-1.814.77,3.39,3.39,0,0,0-.636,2.214,3.357,3.357,0,0,0,.636,2.194,2.222,2.222,0,0,0,1.814.77,2.343,2.343,0,0,0,.846-.143,7.162,7.162,0,0,0,.827-.389,3.761,3.761,0,0,1,.494-.257,1.1,1.1,0,0,1,.418-.085.631.631,0,0,1,.513.266,1.043,1.043,0,0,1,.209.665,1.069,1.069,0,0,1-.142.561,1.283,1.283,0,0,1-.465.427,5,5,0,0,1-1.368.6A5.882,5.882,0,0,1,159.277,45.152Zm6.308-.038a1.228,1.228,0,0,1-.845-.294,1.07,1.07,0,0,1-.333-.846V36.64a1.04,1.04,0,0,1,.333-.836,1.253,1.253,0,0,1,.845-.285,1.29,1.29,0,0,1,.855.285,1.026,1.026,0,0,1,.342.836v7.334a1.055,1.055,0,0,1-.342.846A1.264,1.264,0,0,1,165.585,45.114Zm0-11.286a1.452,1.452,0,0,1-1.026-.351,1.2,1.2,0,0,1-.38-.922,1.167,1.167,0,0,1,.38-.912,1.7,1.7,0,0,1,2.043,0,1.153,1.153,0,0,1,.389.912,1.2,1.2,0,0,1-.38.922A1.452,1.452,0,0,1,165.585,33.828Zm9.025,1.653a3.105,3.105,0,0,1,2.489.95,4.308,4.308,0,0,1,.817,2.869v4.674a1.11,1.11,0,0,1-.313.836,1.19,1.19,0,0,1-.865.3,1.224,1.224,0,0,1-.874-.3,1.093,1.093,0,0,1-.323-.836V39.433a2.463,2.463,0,0,0-.408-1.577,1.57,1.57,0,0,0-1.283-.494,2.168,2.168,0,0,0-1.644.646,2.4,2.4,0,0,0-.617,1.729v4.237a1.093,1.093,0,0,1-.323.836,1.224,1.224,0,0,1-.874.3,1.19,1.19,0,0,1-.865-.3,1.11,1.11,0,0,1-.313-.836V36.621a1.045,1.045,0,0,1,.323-.8,1.224,1.224,0,0,1,.874-.3,1.132,1.132,0,0,1,.807.294,1.007,1.007,0,0,1,.313.77V37.1a3.213,3.213,0,0,1,1.273-1.2A3.831,3.831,0,0,1,174.61,35.481Zm13.566.038a1.2,1.2,0,0,1,.855.3,1.068,1.068,0,0,1,.323.817v7.505a4.276,4.276,0,0,1-1.216,3.306,5.127,5.127,0,0,1-3.591,1.121,6.983,6.983,0,0,1-3.458-.779,1.192,1.192,0,0,1-.7-1.007,1.028,1.028,0,0,1,.2-.665.639.639,0,0,1,.523-.247,1.322,1.322,0,0,1,.418.085q.247.085.513.2a10.891,10.891,0,0,0,1.225.437,4.617,4.617,0,0,0,1.245.152A2.175,2.175,0,0,0,187,44.316V43.1a2.9,2.9,0,0,1-1.216,1.207,3.8,3.8,0,0,1-1.824.428,4.027,4.027,0,0,1-2.156-.58,3.982,3.982,0,0,1-1.473-1.625,5.248,5.248,0,0,1-.532-2.413,5.387,5.387,0,0,1,.523-2.423,3.885,3.885,0,0,1,1.472-1.634,4.076,4.076,0,0,1,2.166-.58,3.8,3.8,0,0,1,1.824.428A2.9,2.9,0,0,1,187,37.115v-.494a1.045,1.045,0,0,1,.323-.8A1.2,1.2,0,0,1,188.176,35.519Zm-3.591,7.372a2.216,2.216,0,0,0,1.777-.741A3.019,3.019,0,0,0,187,40.117a3.049,3.049,0,0,0-.637-2.052,2.489,2.489,0,0,0-3.544,0,3.019,3.019,0,0,0-.646,2.052,2.989,2.989,0,0,0,.646,2.033A2.223,2.223,0,0,0,184.585,42.891Zm19.684-.437a.639.639,0,0,1,.523.247,1.028,1.028,0,0,1,.2.665,1.152,1.152,0,0,1-.7.988,6.351,6.351,0,0,1-1.463.579,6.031,6.031,0,0,1-1.558.219,4.841,4.841,0,0,1-3.553-1.292,4.736,4.736,0,0,1-1.311-3.534,5.422,5.422,0,0,1,.57-2.527,4.145,4.145,0,0,1,1.605-1.71,4.547,4.547,0,0,1,2.346-.608,4.21,4.21,0,0,1,2.185.551,3.736,3.736,0,0,1,1.444,1.558,5.17,5.17,0,0,1,.513,2.375q0,.817-.722.817h-5.6a2.989,2.989,0,0,0,.741,1.928,2.494,2.494,0,0,0,1.824.618,3.459,3.459,0,0,0,1.074-.152,10.6,10.6,0,0,0,1.055-.418A2.1,2.1,0,0,1,204.269,42.454Zm-3.287-5.3a2.039,2.039,0,0,0-1.548.608,2.871,2.871,0,0,0-.693,1.748h4.294a2.709,2.709,0,0,0-.57-1.757A1.88,1.88,0,0,0,200.982,37.153Zm7.182,7.961a1.228,1.228,0,0,1-.845-.294,1.07,1.07,0,0,1-.333-.846V32.631a1.04,1.04,0,0,1,.333-.836,1.253,1.253,0,0,1,.845-.285,1.29,1.29,0,0,1,.855.285,1.026,1.026,0,0,1,.342.836V43.974a1.055,1.055,0,0,1-.342.846A1.264,1.264,0,0,1,208.164,45.114Zm4.807,0a1.228,1.228,0,0,1-.845-.294,1.07,1.07,0,0,1-.333-.846V36.64a1.04,1.04,0,0,1,.333-.836,1.253,1.253,0,0,1,.845-.285,1.29,1.29,0,0,1,.855.285,1.026,1.026,0,0,1,.342.836v7.334a1.055,1.055,0,0,1-.342.846A1.264,1.264,0,0,1,212.971,45.114Zm0-11.286a1.452,1.452,0,0,1-1.026-.351,1.2,1.2,0,0,1-.38-.922,1.167,1.167,0,0,1,.38-.912,1.7,1.7,0,0,1,2.043,0,1.153,1.153,0,0,1,.389.912,1.2,1.2,0,0,1-.38.922A1.452,1.452,0,0,1,212.971,33.828Zm8.455,9.519q.95.057.95.855a.773.773,0,0,1-.37.694,1.768,1.768,0,0,1-1.055.2l-.513-.038a3.057,3.057,0,0,1-3.192-3.42V37.495h-.95a1.206,1.206,0,0,1-.788-.228.94.94,0,0,1,0-1.33,1.206,1.206,0,0,1,.788-.228h.95V33.961a1.068,1.068,0,0,1,.323-.817,1.224,1.224,0,0,1,.874-.3,1.2,1.2,0,0,1,.855.3,1.068,1.068,0,0,1,.323.817v1.748h1.615a1.206,1.206,0,0,1,.788.228.94.94,0,0,1,0,1.33,1.206,1.206,0,0,1-.788.228h-1.615v4.313q0,1.406,1.292,1.5Zm7.353-7.828a1.023,1.023,0,0,1,.779.209.928.928,0,0,1,.285.741,1.035,1.035,0,0,1-.247.76,1.517,1.517,0,0,1-.893.323l-.57.057a2.309,2.309,0,0,0-1.643.76,2.485,2.485,0,0,0-.523,1.615v3.99a1.055,1.055,0,0,1-.342.846,1.264,1.264,0,0,1-.855.294,1.228,1.228,0,0,1-.845-.294,1.07,1.07,0,0,1-.333-.846V36.621a1.017,1.017,0,0,1,.333-.817,1.226,1.226,0,0,1,.826-.285,1.143,1.143,0,0,1,.8.276,1.01,1.01,0,0,1,.3.788v.76a2.812,2.812,0,0,1,1.074-1.292,3.291,3.291,0,0,1,1.587-.513Zm2.717,6.745a1.3,1.3,0,0,1,1.045.475,2.106,2.106,0,0,1,.4,1.387,4.354,4.354,0,0,1-1.254,3.116.744.744,0,0,1-.532.247.71.71,0,0,1-.494-.19.6.6,0,0,1-.209-.456.645.645,0,0,1,.19-.437,2.911,2.911,0,0,0,.741-1.368,1.4,1.4,0,0,1-.9-.427,1.287,1.287,0,0,1-.352-.922,1.416,1.416,0,0,1,.389-1.016A1.3,1.3,0,0,1,231.5,42.264Zm12.1,2.888a6.109,6.109,0,0,1-3.344-.817,1.133,1.133,0,0,1-.608-1.026.9.9,0,0,1,.209-.617.657.657,0,0,1,.513-.238,2.1,2.1,0,0,1,.893.3,8.318,8.318,0,0,0,1.111.437,4.527,4.527,0,0,0,1.283.152,2.439,2.439,0,0,0,1.245-.266.824.824,0,0,0,.446-.741.714.714,0,0,0-.18-.513,1.655,1.655,0,0,0-.646-.351,13.583,13.583,0,0,0-1.415-.371,5.438,5.438,0,0,1-2.423-.969,2.156,2.156,0,0,1-.732-1.729,2.5,2.5,0,0,1,.494-1.511,3.2,3.2,0,0,1,1.359-1.045,4.949,4.949,0,0,1,1.966-.371,5.894,5.894,0,0,1,1.539.2,4.678,4.678,0,0,1,1.33.58,1.147,1.147,0,0,1,.608,1.007.975.975,0,0,1-.209.637.639.639,0,0,1-.513.257,1.028,1.028,0,0,1-.409-.085,5.483,5.483,0,0,1-.5-.257,7.966,7.966,0,0,0-.95-.428,2.963,2.963,0,0,0-.988-.142,1.913,1.913,0,0,0-1.111.285.9.9,0,0,0-.408.779.791.791,0,0,0,.418.722,5.986,5.986,0,0,0,1.615.494,9.214,9.214,0,0,1,2,.608,2.336,2.336,0,0,1,1.035.855,2.48,2.48,0,0,1,.314,1.311,2.436,2.436,0,0,1-1.074,2.071A4.766,4.766,0,0,1,243.6,45.152Zm13.186-2.7a.639.639,0,0,1,.522.247,1.028,1.028,0,0,1,.2.665,1.152,1.152,0,0,1-.7.988,6.351,6.351,0,0,1-1.463.579,6.031,6.031,0,0,1-1.558.219,4.841,4.841,0,0,1-3.553-1.292,4.736,4.736,0,0,1-1.311-3.534,5.422,5.422,0,0,1,.57-2.527,4.145,4.145,0,0,1,1.605-1.71,4.547,4.547,0,0,1,2.346-.608,4.21,4.21,0,0,1,2.185.551,3.736,3.736,0,0,1,1.444,1.558,5.17,5.17,0,0,1,.513,2.375q0,.817-.722.817h-5.6A2.989,2.989,0,0,0,252,42.71a2.494,2.494,0,0,0,1.824.618,3.459,3.459,0,0,0,1.074-.152,10.6,10.6,0,0,0,1.055-.418A2.1,2.1,0,0,1,256.785,42.454Zm-3.287-5.3a2.039,2.039,0,0,0-1.548.608,2.871,2.871,0,0,0-.693,1.748h4.294a2.709,2.709,0,0,0-.57-1.757A1.88,1.88,0,0,0,253.5,37.153Zm13.756-5.643a1.266,1.266,0,0,1,.874.3,1.017,1.017,0,0,1,.342.8V43.974a1.068,1.068,0,0,1-.323.817,1.354,1.354,0,0,1-1.71,0,1.068,1.068,0,0,1-.323-.817V43.5a2.974,2.974,0,0,1-1.206,1.216,3.641,3.641,0,0,1-1.8.437,3.851,3.851,0,0,1-2.138-.608,4.032,4.032,0,0,1-1.463-1.719,5.942,5.942,0,0,1-.523-2.556,5.753,5.753,0,0,1,.523-2.527,3.835,3.835,0,0,1,3.6-2.261,3.719,3.719,0,0,1,1.786.418,2.9,2.9,0,0,1,1.2,1.178v-4.5a1.007,1.007,0,0,1,.314-.77A1.185,1.185,0,0,1,267.254,31.51Zm-3.515,11.8a2.112,2.112,0,0,0,1.758-.779,3.505,3.505,0,0,0,.617-2.223,3.464,3.464,0,0,0-.617-2.214,2.1,2.1,0,0,0-1.738-.769,2.163,2.163,0,0,0-1.767.76,3.352,3.352,0,0,0-.627,2.185,3.55,3.55,0,0,0,.627,2.242A2.1,2.1,0,0,0,263.739,43.309Z" transform="translate(-6044 -19276)" fill="#38485c"/>
  </g>
</svg>
