<svg width="1366" height="86" viewBox="0 0 1366 86" fill="none" xmlns="http://www.w3.org/2000/svg">
<rect width="1366" height="84" fill="white"/>
<g clip-path="url(#clip0_700_12577)">
<path d="M218.261 53.3779L203.685 25.2116C202.427 22.7113 199.851 21 196.861 21H196.854C193.867 21 191.288 22.7113 190.03 25.2116L179.77 45.0375C178.624 42.9984 176.797 41.3988 174.593 40.5341C177.053 38.7543 178.656 35.8541 178.656 32.5828C178.656 28.7891 176.502 25.507 173.353 23.8786C170.579 22.4195 167.412 21.5945 164.054 21.5945H148.707C145.551 21.5945 143 24.1452 143 27.294V55.8566C143 59.0054 145.551 61.5561 148.707 61.5561H165.305C168.504 61.5561 171.548 60.8932 174.311 59.7115L175.363 59.2036C175.421 59.1747 175.479 59.1459 175.536 59.1171C176.534 60.7708 178.339 61.884 180.418 61.884C182.728 61.884 184.716 60.515 185.613 58.537C186.06 57.4922 187.069 56.7537 188.258 56.696H205.454C206.646 56.7537 207.651 57.4922 208.098 58.537C208.992 60.515 210.984 61.884 213.293 61.884C216.446 61.884 218.996 59.326 218.996 56.1881C218.996 55.1649 218.733 54.2065 218.258 53.3815" fill="#FFD305"/>
</g>
<rect x="631" y="22" width="66" height="40" rx="8" fill="#007BC7"/>
<path d="M645.304 48.126C645.064 48.126 644.878 48.06 644.746 47.928C644.626 47.784 644.566 47.592 644.566 47.352V35.958C644.566 35.706 644.626 35.514 644.746 35.382C644.878 35.25 645.064 35.184 645.304 35.184C645.544 35.184 645.724 35.25 645.844 35.382C645.976 35.514 646.042 35.706 646.042 35.958V47.352C646.042 47.592 645.982 47.784 645.862 47.928C645.742 48.06 645.556 48.126 645.304 48.126ZM649.711 48.126C649.471 48.126 649.291 48.06 649.171 47.928C649.051 47.796 648.991 47.61 648.991 47.37V39.864C648.991 39.624 649.051 39.444 649.171 39.324C649.291 39.192 649.465 39.126 649.693 39.126C649.921 39.126 650.095 39.192 650.215 39.324C650.347 39.444 650.413 39.624 650.413 39.864V41.412L650.215 41.196C650.467 40.5 650.875 39.978 651.439 39.63C652.015 39.27 652.675 39.09 653.419 39.09C654.115 39.09 654.691 39.216 655.147 39.468C655.615 39.72 655.963 40.104 656.191 40.62C656.419 41.124 656.533 41.766 656.533 42.546V47.37C656.533 47.61 656.467 47.796 656.335 47.928C656.215 48.06 656.041 48.126 655.813 48.126C655.573 48.126 655.387 48.06 655.255 47.928C655.135 47.796 655.075 47.61 655.075 47.37V42.636C655.075 41.82 654.913 41.226 654.589 40.854C654.277 40.47 653.773 40.278 653.077 40.278C652.273 40.278 651.631 40.53 651.151 41.034C650.683 41.526 650.449 42.186 650.449 43.014V47.37C650.449 47.874 650.203 48.126 649.711 48.126ZM659.942 48.09C659.702 48.09 659.522 48.024 659.402 47.892C659.282 47.748 659.222 47.55 659.222 47.298V39.936C659.222 39.684 659.282 39.492 659.402 39.36C659.522 39.228 659.702 39.162 659.942 39.162C660.17 39.162 660.35 39.228 660.482 39.36C660.614 39.492 660.68 39.684 660.68 39.936V47.298C660.68 47.55 660.614 47.748 660.482 47.892C660.362 48.024 660.182 48.09 659.942 48.09ZM659.942 37.146C659.642 37.146 659.408 37.068 659.24 36.912C659.072 36.744 658.988 36.522 658.988 36.246C658.988 35.958 659.072 35.742 659.24 35.598C659.408 35.442 659.642 35.364 659.942 35.364C660.254 35.364 660.488 35.442 660.644 35.598C660.812 35.742 660.896 35.958 660.896 36.246C660.896 36.522 660.812 36.744 660.644 36.912C660.488 37.068 660.254 37.146 659.942 37.146ZM667.113 48.162C666.237 48.162 665.481 47.97 664.845 47.586C664.209 47.202 663.717 46.668 663.369 45.984C663.033 45.288 662.865 44.484 662.865 43.572C662.865 42.876 662.961 42.252 663.153 41.7C663.345 41.148 663.627 40.68 663.999 40.296C664.371 39.9 664.815 39.6 665.331 39.396C665.859 39.192 666.453 39.09 667.113 39.09C667.545 39.09 667.995 39.156 668.463 39.288C668.931 39.42 669.357 39.648 669.741 39.972C669.861 40.056 669.939 40.158 669.975 40.278C670.011 40.398 670.011 40.518 669.975 40.638C669.939 40.746 669.879 40.842 669.795 40.926C669.711 40.998 669.603 41.04 669.471 41.052C669.351 41.064 669.225 41.022 669.093 40.926C668.781 40.686 668.463 40.518 668.139 40.422C667.815 40.326 667.503 40.278 667.203 40.278C666.735 40.278 666.327 40.356 665.979 40.512C665.631 40.656 665.337 40.866 665.097 41.142C664.857 41.418 664.671 41.76 664.539 42.168C664.419 42.576 664.359 43.05 664.359 43.59C664.359 44.634 664.605 45.462 665.097 46.074C665.589 46.674 666.291 46.974 667.203 46.974C667.503 46.974 667.809 46.926 668.121 46.83C668.445 46.734 668.769 46.566 669.093 46.326C669.225 46.23 669.351 46.188 669.471 46.2C669.591 46.212 669.693 46.26 669.777 46.344C669.861 46.416 669.915 46.512 669.939 46.632C669.975 46.752 669.975 46.872 669.939 46.992C669.903 47.1 669.825 47.196 669.705 47.28C669.321 47.592 668.901 47.82 668.445 47.964C667.989 48.096 667.545 48.162 667.113 48.162ZM672.457 48.09C672.217 48.09 672.037 48.024 671.917 47.892C671.797 47.748 671.737 47.55 671.737 47.298V39.936C671.737 39.684 671.797 39.492 671.917 39.36C672.037 39.228 672.217 39.162 672.457 39.162C672.685 39.162 672.865 39.228 672.997 39.36C673.129 39.492 673.195 39.684 673.195 39.936V47.298C673.195 47.55 673.129 47.748 672.997 47.892C672.877 48.024 672.697 48.09 672.457 48.09ZM672.457 37.146C672.157 37.146 671.923 37.068 671.755 36.912C671.587 36.744 671.503 36.522 671.503 36.246C671.503 35.958 671.587 35.742 671.755 35.598C671.923 35.442 672.157 35.364 672.457 35.364C672.769 35.364 673.003 35.442 673.159 35.598C673.327 35.742 673.411 35.958 673.411 36.246C673.411 36.522 673.327 36.744 673.159 36.912C673.003 37.068 672.769 37.146 672.457 37.146ZM679.557 48.162C678.705 48.162 677.967 47.976 677.343 47.604C676.719 47.232 676.233 46.71 675.885 46.038C675.549 45.354 675.381 44.55 675.381 43.626C675.381 42.93 675.477 42.306 675.669 41.754C675.861 41.19 676.143 40.71 676.515 40.314C676.887 39.918 677.325 39.618 677.829 39.414C678.345 39.198 678.921 39.09 679.557 39.09C680.409 39.09 681.147 39.276 681.771 39.648C682.395 40.02 682.875 40.548 683.211 41.232C683.559 41.904 683.733 42.702 683.733 43.626C683.733 44.322 683.637 44.946 683.445 45.498C683.253 46.05 682.971 46.53 682.599 46.938C682.227 47.334 681.783 47.64 681.267 47.856C680.763 48.06 680.193 48.162 679.557 48.162ZM679.557 46.992C680.097 46.992 680.571 46.86 680.979 46.596C681.387 46.332 681.699 45.948 681.915 45.444C682.143 44.94 682.257 44.334 682.257 43.626C682.257 42.534 682.011 41.7 681.519 41.124C681.039 40.548 680.385 40.26 679.557 40.26C679.005 40.26 678.525 40.392 678.117 40.656C677.721 40.908 677.409 41.286 677.181 41.79C676.965 42.282 676.857 42.894 676.857 43.626C676.857 44.706 677.103 45.54 677.595 46.128C678.087 46.704 678.741 46.992 679.557 46.992Z" fill="white"/>
<rect x="705" y="18" width="160" height="48" rx="8" fill="white"/>
<path d="M724.056 48.162C722.808 48.162 721.74 47.898 720.852 47.37C719.964 46.842 719.28 46.092 718.8 45.12C718.332 44.148 718.098 42.99 718.098 41.646C718.098 40.638 718.23 39.738 718.494 38.946C718.77 38.142 719.16 37.464 719.664 36.912C720.18 36.348 720.81 35.916 721.554 35.616C722.298 35.304 723.132 35.148 724.056 35.148C724.8 35.148 725.508 35.256 726.18 35.472C726.852 35.676 727.434 35.982 727.926 36.39C728.082 36.51 728.184 36.648 728.232 36.804C728.292 36.948 728.298 37.092 728.25 37.236C728.214 37.368 728.142 37.482 728.034 37.578C727.938 37.662 727.818 37.704 727.674 37.704C727.53 37.704 727.368 37.644 727.188 37.524C726.756 37.176 726.282 36.918 725.766 36.75C725.25 36.582 724.692 36.498 724.092 36.498C723.144 36.498 722.34 36.702 721.68 37.11C721.02 37.506 720.522 38.088 720.186 38.856C719.85 39.624 719.682 40.554 719.682 41.646C719.682 42.738 719.85 43.674 720.186 44.454C720.522 45.222 721.02 45.81 721.68 46.218C722.34 46.614 723.144 46.812 724.092 46.812C724.68 46.812 725.238 46.728 725.766 46.56C726.294 46.38 726.78 46.116 727.224 45.768C727.404 45.648 727.566 45.594 727.71 45.606C727.854 45.606 727.974 45.648 728.07 45.732C728.166 45.816 728.232 45.924 728.268 46.056C728.316 46.188 728.316 46.326 728.268 46.47C728.232 46.614 728.142 46.74 727.998 46.848C727.494 47.28 726.9 47.61 726.216 47.838C725.544 48.054 724.824 48.162 724.056 48.162ZM731.199 48.126C730.959 48.126 730.779 48.06 730.659 47.928C730.539 47.796 730.479 47.61 730.479 47.37V35.922C730.479 35.682 730.539 35.502 730.659 35.382C730.779 35.25 730.959 35.184 731.199 35.184C731.427 35.184 731.607 35.25 731.739 35.382C731.871 35.502 731.937 35.682 731.937 35.922V41.196H731.703C731.955 40.5 732.363 39.978 732.927 39.63C733.503 39.27 734.163 39.09 734.907 39.09C735.603 39.09 736.179 39.216 736.635 39.468C737.103 39.72 737.451 40.104 737.679 40.62C737.907 41.124 738.021 41.766 738.021 42.546V47.37C738.021 47.61 737.955 47.796 737.823 47.928C737.703 48.06 737.529 48.126 737.301 48.126C737.061 48.126 736.875 48.06 736.743 47.928C736.623 47.796 736.563 47.61 736.563 47.37V42.636C736.563 41.82 736.401 41.226 736.077 40.854C735.765 40.47 735.261 40.278 734.565 40.278C733.761 40.278 733.119 40.53 732.639 41.034C732.171 41.526 731.937 42.186 731.937 43.014V47.37C731.937 47.874 731.691 48.126 731.199 48.126ZM743.464 48.162C742.864 48.162 742.324 48.048 741.844 47.82C741.376 47.58 741.004 47.256 740.728 46.848C740.452 46.44 740.314 45.984 740.314 45.48C740.314 44.832 740.476 44.322 740.8 43.95C741.136 43.578 741.682 43.314 742.438 43.158C743.206 43.002 744.25 42.924 745.57 42.924H746.38V43.878H745.588C744.616 43.878 743.848 43.926 743.284 44.022C742.732 44.106 742.342 44.256 742.114 44.472C741.898 44.688 741.79 44.994 741.79 45.39C741.79 45.882 741.958 46.284 742.294 46.596C742.642 46.908 743.11 47.064 743.698 47.064C744.178 47.064 744.598 46.95 744.958 46.722C745.33 46.494 745.618 46.182 745.822 45.786C746.038 45.39 746.146 44.934 746.146 44.418V42.366C746.146 41.622 745.996 41.088 745.696 40.764C745.396 40.428 744.904 40.26 744.22 40.26C743.8 40.26 743.38 40.314 742.96 40.422C742.54 40.53 742.096 40.704 741.628 40.944C741.46 41.028 741.316 41.058 741.196 41.034C741.076 40.998 740.98 40.932 740.908 40.836C740.836 40.74 740.794 40.632 740.782 40.512C740.77 40.38 740.794 40.254 740.854 40.134C740.926 40.014 741.034 39.918 741.178 39.846C741.706 39.582 742.228 39.39 742.744 39.27C743.26 39.15 743.752 39.09 744.22 39.09C744.976 39.09 745.6 39.216 746.092 39.468C746.584 39.708 746.95 40.08 747.19 40.584C747.43 41.076 747.55 41.712 747.55 42.492V47.37C747.55 47.61 747.49 47.796 747.37 47.928C747.262 48.06 747.1 48.126 746.884 48.126C746.656 48.126 746.482 48.06 746.362 47.928C746.242 47.796 746.182 47.61 746.182 47.37V45.966H746.344C746.248 46.422 746.062 46.812 745.786 47.136C745.522 47.46 745.192 47.712 744.796 47.892C744.4 48.072 743.956 48.162 743.464 48.162ZM753.765 48.162C753.081 48.162 752.505 48.042 752.037 47.802C751.581 47.55 751.239 47.19 751.011 46.722C750.783 46.242 750.669 45.66 750.669 44.976V40.386H749.463C749.259 40.386 749.103 40.338 748.995 40.242C748.887 40.134 748.833 39.99 748.833 39.81C748.833 39.63 748.887 39.492 748.995 39.396C749.103 39.3 749.259 39.252 749.463 39.252H750.669V37.182C750.669 36.942 750.735 36.762 750.867 36.642C750.999 36.51 751.179 36.444 751.407 36.444C751.635 36.444 751.809 36.51 751.929 36.642C752.061 36.762 752.127 36.942 752.127 37.182V39.252H754.395C754.599 39.252 754.755 39.3 754.863 39.396C754.971 39.492 755.025 39.63 755.025 39.81C755.025 39.99 754.971 40.134 754.863 40.242C754.755 40.338 754.599 40.386 754.395 40.386H752.127V44.832C752.127 45.516 752.271 46.038 752.559 46.398C752.847 46.746 753.315 46.92 753.963 46.92C754.191 46.92 754.383 46.896 754.539 46.848C754.707 46.8 754.845 46.776 754.953 46.776C755.061 46.764 755.151 46.8 755.223 46.884C755.295 46.968 755.331 47.112 755.331 47.316C755.331 47.46 755.301 47.592 755.241 47.712C755.193 47.832 755.103 47.916 754.971 47.964C754.827 48.012 754.635 48.054 754.395 48.09C754.167 48.138 753.957 48.162 753.765 48.162ZM760.402 48.162C759.478 48.162 758.68 47.982 758.008 47.622C757.348 47.25 756.832 46.728 756.46 46.056C756.1 45.384 755.92 44.58 755.92 43.644C755.92 42.732 756.1 41.94 756.46 41.268C756.82 40.584 757.312 40.05 757.936 39.666C758.572 39.282 759.304 39.09 760.132 39.09C760.72 39.09 761.248 39.192 761.716 39.396C762.184 39.588 762.58 39.87 762.904 40.242C763.24 40.614 763.492 41.064 763.66 41.592C763.84 42.12 763.93 42.714 763.93 43.374C763.93 43.566 763.876 43.71 763.768 43.806C763.66 43.89 763.504 43.932 763.3 43.932H757.036V42.978H762.958L762.67 43.212C762.67 42.564 762.574 42.018 762.382 41.574C762.19 41.118 761.908 40.77 761.536 40.53C761.176 40.29 760.72 40.17 760.168 40.17C759.556 40.17 759.034 40.314 758.602 40.602C758.182 40.878 757.864 41.268 757.648 41.772C757.432 42.264 757.324 42.84 757.324 43.5V43.608C757.324 44.712 757.588 45.552 758.116 46.128C758.656 46.704 759.418 46.992 760.402 46.992C760.81 46.992 761.212 46.938 761.608 46.83C762.016 46.722 762.412 46.542 762.796 46.29C762.964 46.182 763.114 46.134 763.246 46.146C763.39 46.146 763.504 46.188 763.588 46.272C763.672 46.344 763.726 46.44 763.75 46.56C763.786 46.668 763.774 46.788 763.714 46.92C763.666 47.052 763.564 47.166 763.408 47.262C763.012 47.55 762.544 47.772 762.004 47.928C761.464 48.084 760.93 48.162 760.402 48.162ZM768.794 48.162C768.194 48.162 767.654 48.048 767.174 47.82C766.706 47.58 766.334 47.256 766.058 46.848C765.782 46.44 765.644 45.984 765.644 45.48C765.644 44.832 765.806 44.322 766.13 43.95C766.466 43.578 767.012 43.314 767.768 43.158C768.536 43.002 769.58 42.924 770.9 42.924H771.71V43.878H770.918C769.946 43.878 769.178 43.926 768.614 44.022C768.062 44.106 767.672 44.256 767.444 44.472C767.228 44.688 767.12 44.994 767.12 45.39C767.12 45.882 767.288 46.284 767.624 46.596C767.972 46.908 768.44 47.064 769.028 47.064C769.508 47.064 769.928 46.95 770.288 46.722C770.66 46.494 770.948 46.182 771.152 45.786C771.368 45.39 771.476 44.934 771.476 44.418V42.366C771.476 41.622 771.326 41.088 771.026 40.764C770.726 40.428 770.234 40.26 769.55 40.26C769.13 40.26 768.71 40.314 768.29 40.422C767.87 40.53 767.426 40.704 766.958 40.944C766.79 41.028 766.646 41.058 766.526 41.034C766.406 40.998 766.31 40.932 766.238 40.836C766.166 40.74 766.124 40.632 766.112 40.512C766.1 40.38 766.124 40.254 766.184 40.134C766.256 40.014 766.364 39.918 766.508 39.846C767.036 39.582 767.558 39.39 768.074 39.27C768.59 39.15 769.082 39.09 769.55 39.09C770.306 39.09 770.93 39.216 771.422 39.468C771.914 39.708 772.28 40.08 772.52 40.584C772.76 41.076 772.88 41.712 772.88 42.492V47.37C772.88 47.61 772.82 47.796 772.7 47.928C772.592 48.06 772.43 48.126 772.214 48.126C771.986 48.126 771.812 48.06 771.692 47.928C771.572 47.796 771.512 47.61 771.512 47.37V45.966H771.674C771.578 46.422 771.392 46.812 771.116 47.136C770.852 47.46 770.522 47.712 770.126 47.892C769.73 48.072 769.286 48.162 768.794 48.162ZM770.162 37.992C770.078 38.112 769.976 38.184 769.856 38.208C769.736 38.22 769.622 38.202 769.514 38.154C769.406 38.094 769.328 38.01 769.28 37.902C769.232 37.794 769.244 37.668 769.316 37.524L770.828 34.59C770.912 34.422 771.02 34.314 771.152 34.266C771.284 34.218 771.416 34.212 771.548 34.248C771.692 34.272 771.812 34.332 771.908 34.428C772.004 34.524 772.058 34.638 772.07 34.77C772.094 34.902 772.058 35.04 771.962 35.184L770.162 37.992ZM783.933 48.162C783.057 48.162 782.301 47.97 781.665 47.586C781.029 47.202 780.537 46.668 780.189 45.984C779.853 45.288 779.685 44.484 779.685 43.572C779.685 42.876 779.781 42.252 779.973 41.7C780.165 41.148 780.447 40.68 780.819 40.296C781.191 39.9 781.635 39.6 782.151 39.396C782.679 39.192 783.273 39.09 783.933 39.09C784.365 39.09 784.815 39.156 785.283 39.288C785.751 39.42 786.177 39.648 786.561 39.972C786.681 40.056 786.759 40.158 786.795 40.278C786.831 40.398 786.831 40.518 786.795 40.638C786.759 40.746 786.699 40.842 786.615 40.926C786.531 40.998 786.423 41.04 786.291 41.052C786.171 41.064 786.045 41.022 785.913 40.926C785.601 40.686 785.283 40.518 784.959 40.422C784.635 40.326 784.323 40.278 784.023 40.278C783.555 40.278 783.147 40.356 782.799 40.512C782.451 40.656 782.157 40.866 781.917 41.142C781.677 41.418 781.491 41.76 781.359 42.168C781.239 42.576 781.179 43.05 781.179 43.59C781.179 44.634 781.425 45.462 781.917 46.074C782.409 46.674 783.111 46.974 784.023 46.974C784.323 46.974 784.629 46.926 784.941 46.83C785.265 46.734 785.589 46.566 785.913 46.326C786.045 46.23 786.171 46.188 786.291 46.2C786.411 46.212 786.513 46.26 786.597 46.344C786.681 46.416 786.735 46.512 786.759 46.632C786.795 46.752 786.795 46.872 786.759 46.992C786.723 47.1 786.645 47.196 786.525 47.28C786.141 47.592 785.721 47.82 785.265 47.964C784.809 48.096 784.365 48.162 783.933 48.162ZM792.018 48.162C791.166 48.162 790.428 47.976 789.804 47.604C789.18 47.232 788.694 46.71 788.346 46.038C788.01 45.354 787.842 44.55 787.842 43.626C787.842 42.93 787.938 42.306 788.13 41.754C788.322 41.19 788.604 40.71 788.976 40.314C789.348 39.918 789.786 39.618 790.29 39.414C790.806 39.198 791.382 39.09 792.018 39.09C792.87 39.09 793.608 39.276 794.232 39.648C794.856 40.02 795.336 40.548 795.672 41.232C796.02 41.904 796.194 42.702 796.194 43.626C796.194 44.322 796.098 44.946 795.906 45.498C795.714 46.05 795.432 46.53 795.06 46.938C794.688 47.334 794.244 47.64 793.728 47.856C793.224 48.06 792.654 48.162 792.018 48.162ZM792.018 46.992C792.558 46.992 793.032 46.86 793.44 46.596C793.848 46.332 794.16 45.948 794.376 45.444C794.604 44.94 794.718 44.334 794.718 43.626C794.718 42.534 794.472 41.7 793.98 41.124C793.5 40.548 792.846 40.26 792.018 40.26C791.466 40.26 790.986 40.392 790.578 40.656C790.182 40.908 789.87 41.286 789.642 41.79C789.426 42.282 789.318 42.894 789.318 43.626C789.318 44.706 789.564 45.54 790.056 46.128C790.548 46.704 791.202 46.992 792.018 46.992ZM799.104 48.126C798.864 48.126 798.684 48.06 798.564 47.928C798.444 47.796 798.384 47.61 798.384 47.37V39.864C798.384 39.624 798.444 39.444 798.564 39.324C798.684 39.192 798.858 39.126 799.086 39.126C799.314 39.126 799.488 39.192 799.608 39.324C799.74 39.444 799.806 39.624 799.806 39.864V41.412L799.608 41.196C799.86 40.5 800.268 39.978 800.832 39.63C801.408 39.27 802.068 39.09 802.812 39.09C803.508 39.09 804.084 39.216 804.54 39.468C805.008 39.72 805.356 40.104 805.584 40.62C805.812 41.124 805.926 41.766 805.926 42.546V47.37C805.926 47.61 805.86 47.796 805.728 47.928C805.608 48.06 805.434 48.126 805.206 48.126C804.966 48.126 804.78 48.06 804.648 47.928C804.528 47.796 804.468 47.61 804.468 47.37V42.636C804.468 41.82 804.306 41.226 803.982 40.854C803.67 40.47 803.166 40.278 802.47 40.278C801.666 40.278 801.024 40.53 800.544 41.034C800.076 41.526 799.842 42.186 799.842 43.014V47.37C799.842 47.874 799.596 48.126 799.104 48.126ZM814.263 48C813.999 48 813.795 47.934 813.651 47.802C813.519 47.658 813.453 47.454 813.453 47.19V36.12C813.453 35.856 813.519 35.658 813.651 35.526C813.795 35.382 813.999 35.31 814.263 35.31H818.529C819.405 35.31 820.143 35.442 820.743 35.706C821.355 35.958 821.823 36.33 822.147 36.822C822.471 37.314 822.633 37.914 822.633 38.622C822.633 39.414 822.399 40.074 821.931 40.602C821.475 41.13 820.851 41.478 820.059 41.646V41.394C820.959 41.502 821.661 41.826 822.165 42.366C822.681 42.906 822.939 43.62 822.939 44.508C822.939 45.636 822.573 46.5 821.841 47.1C821.109 47.7 820.077 48 818.745 48H814.263ZM814.893 46.812H818.601C819.561 46.812 820.281 46.62 820.761 46.236C821.241 45.852 821.481 45.27 821.481 44.49C821.481 43.698 821.241 43.116 820.761 42.744C820.281 42.36 819.561 42.168 818.601 42.168H814.893V46.812ZM814.893 40.98H818.313C819.249 40.98 819.957 40.788 820.437 40.404C820.929 40.02 821.175 39.468 821.175 38.748C821.175 38.004 820.929 37.446 820.437 37.074C819.957 36.69 819.249 36.498 818.313 36.498H814.893V40.98ZM830.945 48.162C829.769 48.162 828.743 47.898 827.867 47.37C827.003 46.83 826.331 46.074 825.851 45.102C825.383 44.13 825.149 42.978 825.149 41.646C825.149 40.638 825.281 39.738 825.545 38.946C825.821 38.142 826.211 37.464 826.715 36.912C827.219 36.348 827.825 35.916 828.533 35.616C829.253 35.304 830.057 35.148 830.945 35.148C832.145 35.148 833.177 35.412 834.041 35.94C834.917 36.468 835.589 37.218 836.057 38.19C836.537 39.15 836.777 40.296 836.777 41.628C836.777 42.636 836.639 43.542 836.363 44.346C836.087 45.15 835.697 45.834 835.193 46.398C834.689 46.962 834.077 47.4 833.357 47.712C832.649 48.012 831.845 48.162 830.945 48.162ZM830.945 46.848C831.857 46.848 832.625 46.644 833.249 46.236C833.885 45.828 834.371 45.234 834.707 44.454C835.043 43.674 835.211 42.738 835.211 41.646C835.211 40.002 834.839 38.73 834.095 37.83C833.363 36.918 832.313 36.462 830.945 36.462C830.057 36.462 829.295 36.666 828.659 37.074C828.035 37.482 827.555 38.076 827.219 38.856C826.883 39.624 826.715 40.554 826.715 41.646C826.715 43.278 827.087 44.556 827.831 45.48C828.575 46.392 829.613 46.848 830.945 46.848ZM842.477 48.126C842.249 48.126 842.069 48.06 841.937 47.928C841.805 47.784 841.739 47.592 841.739 47.352V36.588H837.689C837.473 36.588 837.305 36.528 837.185 36.408C837.065 36.288 837.005 36.132 837.005 35.94C837.005 35.736 837.065 35.58 837.185 35.472C837.305 35.364 837.473 35.31 837.689 35.31H847.283C847.499 35.31 847.667 35.364 847.787 35.472C847.907 35.58 847.967 35.736 847.967 35.94C847.967 36.144 847.907 36.306 847.787 36.426C847.667 36.534 847.499 36.588 847.283 36.588H843.233V47.352C843.233 47.592 843.167 47.784 843.035 47.928C842.915 48.06 842.729 48.126 842.477 48.126ZM850.191 48.126C849.951 48.126 849.765 48.06 849.633 47.928C849.513 47.784 849.453 47.592 849.453 47.352V35.958C849.453 35.706 849.513 35.514 849.633 35.382C849.765 35.25 849.951 35.184 850.191 35.184C850.431 35.184 850.611 35.25 850.731 35.382C850.863 35.514 850.929 35.706 850.929 35.958V47.352C850.929 47.592 850.869 47.784 850.749 47.928C850.629 48.06 850.443 48.126 850.191 48.126Z" fill="#38485C"/>
<rect x="873" y="18" width="121" height="48" rx="8" fill="white"/>
<path d="M887.286 48.126C887.07 48.126 886.902 48.066 886.782 47.946C886.662 47.814 886.602 47.634 886.602 47.406V35.904C886.602 35.664 886.662 35.484 886.782 35.364C886.902 35.244 887.07 35.184 887.286 35.184C887.478 35.184 887.628 35.226 887.736 35.31C887.856 35.382 887.964 35.508 888.06 35.688L892.992 44.976H892.452L897.366 35.688C897.462 35.508 897.564 35.382 897.672 35.31C897.78 35.226 897.936 35.184 898.14 35.184C898.344 35.184 898.506 35.244 898.626 35.364C898.746 35.484 898.806 35.664 898.806 35.904V47.406C898.806 47.634 898.746 47.814 898.626 47.946C898.518 48.066 898.35 48.126 898.122 48.126C897.906 48.126 897.738 48.066 897.618 47.946C897.498 47.814 897.438 47.634 897.438 47.406V37.29H897.87L893.37 45.732C893.286 45.888 893.196 46.002 893.1 46.074C893.016 46.134 892.89 46.164 892.722 46.164C892.554 46.164 892.422 46.128 892.326 46.056C892.23 45.984 892.146 45.876 892.074 45.732L887.52 37.272H887.952V47.406C887.952 47.634 887.892 47.814 887.772 47.946C887.664 48.066 887.502 48.126 887.286 48.126ZM902.486 48.09C902.246 48.09 902.066 48.024 901.946 47.892C901.826 47.748 901.766 47.55 901.766 47.298V39.936C901.766 39.684 901.826 39.492 901.946 39.36C902.066 39.228 902.246 39.162 902.486 39.162C902.714 39.162 902.894 39.228 903.026 39.36C903.158 39.492 903.224 39.684 903.224 39.936V47.298C903.224 47.55 903.158 47.748 903.026 47.892C902.906 48.024 902.726 48.09 902.486 48.09ZM902.486 37.146C902.186 37.146 901.952 37.068 901.784 36.912C901.616 36.744 901.532 36.522 901.532 36.246C901.532 35.958 901.616 35.742 901.784 35.598C901.952 35.442 902.186 35.364 902.486 35.364C902.798 35.364 903.032 35.442 903.188 35.598C903.356 35.742 903.44 35.958 903.44 36.246C903.44 36.522 903.356 36.744 903.188 36.912C903.032 37.068 902.798 37.146 902.486 37.146ZM913.345 48.162C912.745 48.162 912.205 48.048 911.725 47.82C911.257 47.58 910.885 47.256 910.609 46.848C910.333 46.44 910.195 45.984 910.195 45.48C910.195 44.832 910.357 44.322 910.681 43.95C911.017 43.578 911.563 43.314 912.319 43.158C913.087 43.002 914.131 42.924 915.451 42.924H916.261V43.878H915.469C914.497 43.878 913.729 43.926 913.165 44.022C912.613 44.106 912.223 44.256 911.995 44.472C911.779 44.688 911.671 44.994 911.671 45.39C911.671 45.882 911.839 46.284 912.175 46.596C912.523 46.908 912.991 47.064 913.579 47.064C914.059 47.064 914.479 46.95 914.839 46.722C915.211 46.494 915.499 46.182 915.703 45.786C915.919 45.39 916.027 44.934 916.027 44.418V42.366C916.027 41.622 915.877 41.088 915.577 40.764C915.277 40.428 914.785 40.26 914.101 40.26C913.681 40.26 913.261 40.314 912.841 40.422C912.421 40.53 911.977 40.704 911.509 40.944C911.341 41.028 911.197 41.058 911.077 41.034C910.957 40.998 910.861 40.932 910.789 40.836C910.717 40.74 910.675 40.632 910.663 40.512C910.651 40.38 910.675 40.254 910.735 40.134C910.807 40.014 910.915 39.918 911.059 39.846C911.587 39.582 912.109 39.39 912.625 39.27C913.141 39.15 913.633 39.09 914.101 39.09C914.857 39.09 915.481 39.216 915.973 39.468C916.465 39.708 916.831 40.08 917.071 40.584C917.311 41.076 917.431 41.712 917.431 42.492V47.37C917.431 47.61 917.371 47.796 917.251 47.928C917.143 48.06 916.981 48.126 916.765 48.126C916.537 48.126 916.363 48.06 916.243 47.928C916.123 47.796 916.063 47.61 916.063 47.37V45.966H916.225C916.129 46.422 915.943 46.812 915.667 47.136C915.403 47.46 915.073 47.712 914.677 47.892C914.281 48.072 913.837 48.162 913.345 48.162ZM923.844 48.162C922.968 48.162 922.212 47.97 921.576 47.586C920.94 47.202 920.448 46.668 920.1 45.984C919.764 45.288 919.596 44.484 919.596 43.572C919.596 42.876 919.692 42.252 919.884 41.7C920.076 41.148 920.358 40.68 920.73 40.296C921.102 39.9 921.546 39.6 922.062 39.396C922.59 39.192 923.184 39.09 923.844 39.09C924.276 39.09 924.726 39.156 925.194 39.288C925.662 39.42 926.088 39.648 926.472 39.972C926.592 40.056 926.67 40.158 926.706 40.278C926.742 40.398 926.742 40.518 926.706 40.638C926.67 40.746 926.61 40.842 926.526 40.926C926.442 40.998 926.334 41.04 926.202 41.052C926.082 41.064 925.956 41.022 925.824 40.926C925.512 40.686 925.194 40.518 924.87 40.422C924.546 40.326 924.234 40.278 923.934 40.278C923.466 40.278 923.058 40.356 922.71 40.512C922.362 40.656 922.068 40.866 921.828 41.142C921.588 41.418 921.402 41.76 921.27 42.168C921.15 42.576 921.09 43.05 921.09 43.59C921.09 44.634 921.336 45.462 921.828 46.074C922.32 46.674 923.022 46.974 923.934 46.974C924.234 46.974 924.54 46.926 924.852 46.83C925.176 46.734 925.5 46.566 925.824 46.326C925.956 46.23 926.082 46.188 926.202 46.2C926.322 46.212 926.424 46.26 926.508 46.344C926.592 46.416 926.646 46.512 926.67 46.632C926.706 46.752 926.706 46.872 926.67 46.992C926.634 47.1 926.556 47.196 926.436 47.28C926.052 47.592 925.632 47.82 925.176 47.964C924.72 48.096 924.276 48.162 923.844 48.162ZM931.978 48.162C931.294 48.162 930.718 48.042 930.25 47.802C929.794 47.55 929.452 47.19 929.224 46.722C928.996 46.242 928.882 45.66 928.882 44.976V40.386H927.676C927.472 40.386 927.316 40.338 927.208 40.242C927.1 40.134 927.046 39.99 927.046 39.81C927.046 39.63 927.1 39.492 927.208 39.396C927.316 39.3 927.472 39.252 927.676 39.252H928.882V37.182C928.882 36.942 928.948 36.762 929.08 36.642C929.212 36.51 929.392 36.444 929.62 36.444C929.848 36.444 930.022 36.51 930.142 36.642C930.274 36.762 930.34 36.942 930.34 37.182V39.252H932.608C932.812 39.252 932.968 39.3 933.076 39.396C933.184 39.492 933.238 39.63 933.238 39.81C933.238 39.99 933.184 40.134 933.076 40.242C932.968 40.338 932.812 40.386 932.608 40.386H930.34V44.832C930.34 45.516 930.484 46.038 930.772 46.398C931.06 46.746 931.528 46.92 932.176 46.92C932.404 46.92 932.596 46.896 932.752 46.848C932.92 46.8 933.058 46.776 933.166 46.776C933.274 46.764 933.364 46.8 933.436 46.884C933.508 46.968 933.544 47.112 933.544 47.316C933.544 47.46 933.514 47.592 933.454 47.712C933.406 47.832 933.316 47.916 933.184 47.964C933.04 48.012 932.848 48.054 932.608 48.09C932.38 48.138 932.17 48.162 931.978 48.162ZM935.586 48.09C935.346 48.09 935.166 48.024 935.046 47.892C934.926 47.748 934.866 47.55 934.866 47.298V39.936C934.866 39.684 934.926 39.492 935.046 39.36C935.166 39.228 935.346 39.162 935.586 39.162C935.814 39.162 935.994 39.228 936.126 39.36C936.258 39.492 936.324 39.684 936.324 39.936V47.298C936.324 47.55 936.258 47.748 936.126 47.892C936.006 48.024 935.826 48.09 935.586 48.09ZM935.586 37.146C935.286 37.146 935.052 37.068 934.884 36.912C934.716 36.744 934.632 36.522 934.632 36.246C934.632 35.958 934.716 35.742 934.884 35.598C935.052 35.442 935.286 35.364 935.586 35.364C935.898 35.364 936.132 35.442 936.288 35.598C936.456 35.742 936.54 35.958 936.54 36.246C936.54 36.522 936.456 36.744 936.288 36.912C936.132 37.068 935.898 37.146 935.586 37.146ZM942.308 48.126C942.104 48.126 941.924 48.072 941.768 47.964C941.612 47.844 941.48 47.664 941.372 47.424L938.258 40.152C938.174 39.972 938.144 39.804 938.168 39.648C938.192 39.492 938.264 39.366 938.384 39.27C938.504 39.174 938.672 39.126 938.888 39.126C939.08 39.126 939.23 39.168 939.338 39.252C939.446 39.336 939.542 39.486 939.626 39.702L942.578 46.92H942.092L945.098 39.702C945.182 39.486 945.278 39.336 945.386 39.252C945.494 39.168 945.65 39.126 945.854 39.126C946.046 39.126 946.19 39.174 946.286 39.27C946.394 39.366 946.454 39.492 946.466 39.648C946.49 39.792 946.466 39.954 946.394 40.134L943.244 47.424C943.16 47.664 943.034 47.844 942.866 47.964C942.71 48.072 942.524 48.126 942.308 48.126ZM949.033 48.09C948.793 48.09 948.613 48.024 948.493 47.892C948.373 47.748 948.313 47.55 948.313 47.298V39.936C948.313 39.684 948.373 39.492 948.493 39.36C948.613 39.228 948.793 39.162 949.033 39.162C949.261 39.162 949.441 39.228 949.573 39.36C949.705 39.492 949.771 39.684 949.771 39.936V47.298C949.771 47.55 949.705 47.748 949.573 47.892C949.453 48.024 949.273 48.09 949.033 48.09ZM949.033 37.146C948.733 37.146 948.499 37.068 948.331 36.912C948.163 36.744 948.079 36.522 948.079 36.246C948.079 35.958 948.163 35.742 948.331 35.598C948.499 35.442 948.733 35.364 949.033 35.364C949.345 35.364 949.579 35.442 949.735 35.598C949.903 35.742 949.987 35.958 949.987 36.246C949.987 36.522 949.903 36.744 949.735 36.912C949.579 37.068 949.345 37.146 949.033 37.146ZM955.827 48.162C955.047 48.162 954.363 47.976 953.775 47.604C953.199 47.232 952.749 46.71 952.425 46.038C952.113 45.354 951.957 44.55 951.957 43.626C951.957 42.69 952.113 41.886 952.425 41.214C952.749 40.53 953.199 40.008 953.775 39.648C954.363 39.276 955.047 39.09 955.827 39.09C956.619 39.09 957.297 39.288 957.861 39.684C958.425 40.08 958.803 40.614 958.995 41.286H958.797V35.922C958.797 35.682 958.857 35.502 958.977 35.382C959.109 35.25 959.295 35.184 959.535 35.184C959.763 35.184 959.937 35.25 960.057 35.382C960.189 35.502 960.255 35.682 960.255 35.922V47.37C960.255 47.61 960.195 47.796 960.075 47.928C959.955 48.06 959.775 48.126 959.535 48.126C959.307 48.126 959.127 48.06 958.995 47.928C958.875 47.796 958.815 47.61 958.815 47.37V45.66L959.013 45.912C958.821 46.596 958.437 47.142 957.861 47.55C957.297 47.958 956.619 48.162 955.827 48.162ZM956.133 46.992C956.673 46.992 957.147 46.86 957.555 46.596C957.963 46.332 958.275 45.948 958.491 45.444C958.719 44.94 958.833 44.334 958.833 43.626C958.833 42.534 958.587 41.7 958.095 41.124C957.615 40.548 956.961 40.26 956.133 40.26C955.581 40.26 955.101 40.392 954.693 40.656C954.297 40.908 953.985 41.286 953.757 41.79C953.541 42.282 953.433 42.894 953.433 43.626C953.433 44.706 953.679 45.54 954.171 46.128C954.663 46.704 955.317 46.992 956.133 46.992ZM965.745 48.162C965.145 48.162 964.605 48.048 964.125 47.82C963.657 47.58 963.285 47.256 963.009 46.848C962.733 46.44 962.595 45.984 962.595 45.48C962.595 44.832 962.757 44.322 963.081 43.95C963.417 43.578 963.963 43.314 964.719 43.158C965.487 43.002 966.531 42.924 967.851 42.924H968.661V43.878H967.869C966.897 43.878 966.129 43.926 965.565 44.022C965.013 44.106 964.623 44.256 964.395 44.472C964.179 44.688 964.071 44.994 964.071 45.39C964.071 45.882 964.239 46.284 964.575 46.596C964.923 46.908 965.391 47.064 965.979 47.064C966.459 47.064 966.879 46.95 967.239 46.722C967.611 46.494 967.899 46.182 968.103 45.786C968.319 45.39 968.427 44.934 968.427 44.418V42.366C968.427 41.622 968.277 41.088 967.977 40.764C967.677 40.428 967.185 40.26 966.501 40.26C966.081 40.26 965.661 40.314 965.241 40.422C964.821 40.53 964.377 40.704 963.909 40.944C963.741 41.028 963.597 41.058 963.477 41.034C963.357 40.998 963.261 40.932 963.189 40.836C963.117 40.74 963.075 40.632 963.063 40.512C963.051 40.38 963.075 40.254 963.135 40.134C963.207 40.014 963.315 39.918 963.459 39.846C963.987 39.582 964.509 39.39 965.025 39.27C965.541 39.15 966.033 39.09 966.501 39.09C967.257 39.09 967.881 39.216 968.373 39.468C968.865 39.708 969.231 40.08 969.471 40.584C969.711 41.076 969.831 41.712 969.831 42.492V47.37C969.831 47.61 969.771 47.796 969.651 47.928C969.543 48.06 969.381 48.126 969.165 48.126C968.937 48.126 968.763 48.06 968.643 47.928C968.523 47.796 968.463 47.61 968.463 47.37V45.966H968.625C968.529 46.422 968.343 46.812 968.067 47.136C967.803 47.46 967.473 47.712 967.077 47.892C966.681 48.072 966.237 48.162 965.745 48.162ZM975.866 48.162C975.086 48.162 974.402 47.976 973.814 47.604C973.238 47.232 972.788 46.71 972.464 46.038C972.152 45.354 971.996 44.55 971.996 43.626C971.996 42.69 972.152 41.886 972.464 41.214C972.788 40.53 973.238 40.008 973.814 39.648C974.402 39.276 975.086 39.09 975.866 39.09C976.658 39.09 977.336 39.288 977.9 39.684C978.464 40.08 978.842 40.614 979.034 41.286H978.836V35.922C978.836 35.682 978.896 35.502 979.016 35.382C979.148 35.25 979.334 35.184 979.574 35.184C979.802 35.184 979.976 35.25 980.096 35.382C980.228 35.502 980.294 35.682 980.294 35.922V47.37C980.294 47.61 980.234 47.796 980.114 47.928C979.994 48.06 979.814 48.126 979.574 48.126C979.346 48.126 979.166 48.06 979.034 47.928C978.914 47.796 978.854 47.61 978.854 47.37V45.66L979.052 45.912C978.86 46.596 978.476 47.142 977.9 47.55C977.336 47.958 976.658 48.162 975.866 48.162ZM976.172 46.992C976.712 46.992 977.186 46.86 977.594 46.596C978.002 46.332 978.314 45.948 978.53 45.444C978.758 44.94 978.872 44.334 978.872 43.626C978.872 42.534 978.626 41.7 978.134 41.124C977.654 40.548 977 40.26 976.172 40.26C975.62 40.26 975.14 40.392 974.732 40.656C974.336 40.908 974.024 41.286 973.796 41.79C973.58 42.282 973.472 42.894 973.472 43.626C973.472 44.706 973.718 45.54 974.21 46.128C974.702 46.704 975.356 46.992 976.172 46.992Z" fill="#38485C"/>
<rect x="1002" y="18" width="103" height="48" rx="8" fill="white"/>
<path d="M1016.29 48.126C1016.07 48.126 1015.9 48.066 1015.78 47.946C1015.66 47.814 1015.6 47.634 1015.6 47.406V35.904C1015.6 35.664 1015.66 35.484 1015.78 35.364C1015.9 35.244 1016.07 35.184 1016.29 35.184C1016.48 35.184 1016.63 35.226 1016.74 35.31C1016.86 35.382 1016.96 35.508 1017.06 35.688L1021.99 44.976H1021.45L1026.37 35.688C1026.46 35.508 1026.56 35.382 1026.67 35.31C1026.78 35.226 1026.94 35.184 1027.14 35.184C1027.34 35.184 1027.51 35.244 1027.63 35.364C1027.75 35.484 1027.81 35.664 1027.81 35.904V47.406C1027.81 47.634 1027.75 47.814 1027.63 47.946C1027.52 48.066 1027.35 48.126 1027.12 48.126C1026.91 48.126 1026.74 48.066 1026.62 47.946C1026.5 47.814 1026.44 47.634 1026.44 47.406V37.29H1026.87L1022.37 45.732C1022.29 45.888 1022.2 46.002 1022.1 46.074C1022.02 46.134 1021.89 46.164 1021.72 46.164C1021.55 46.164 1021.42 46.128 1021.33 46.056C1021.23 45.984 1021.15 45.876 1021.07 45.732L1016.52 37.272H1016.95V47.406C1016.95 47.634 1016.89 47.814 1016.77 47.946C1016.66 48.066 1016.5 48.126 1016.29 48.126ZM1031.49 48.09C1031.25 48.09 1031.07 48.024 1030.95 47.892C1030.83 47.748 1030.77 47.55 1030.77 47.298V39.936C1030.77 39.684 1030.83 39.492 1030.95 39.36C1031.07 39.228 1031.25 39.162 1031.49 39.162C1031.71 39.162 1031.89 39.228 1032.03 39.36C1032.16 39.492 1032.22 39.684 1032.22 39.936V47.298C1032.22 47.55 1032.16 47.748 1032.03 47.892C1031.91 48.024 1031.73 48.09 1031.49 48.09ZM1031.49 37.146C1031.19 37.146 1030.95 37.068 1030.78 36.912C1030.62 36.744 1030.53 36.522 1030.53 36.246C1030.53 35.958 1030.62 35.742 1030.78 35.598C1030.95 35.442 1031.19 35.364 1031.49 35.364C1031.8 35.364 1032.03 35.442 1032.19 35.598C1032.36 35.742 1032.44 35.958 1032.44 36.246C1032.44 36.522 1032.36 36.744 1032.19 36.912C1032.03 37.068 1031.8 37.146 1031.49 37.146ZM1043.3 48.162C1042.42 48.162 1041.67 47.97 1041.03 47.586C1040.39 47.202 1039.9 46.668 1039.55 45.984C1039.22 45.288 1039.05 44.484 1039.05 43.572C1039.05 42.876 1039.15 42.252 1039.34 41.7C1039.53 41.148 1039.81 40.68 1040.18 40.296C1040.56 39.9 1041 39.6 1041.52 39.396C1042.04 39.192 1042.64 39.09 1043.3 39.09C1043.73 39.09 1044.18 39.156 1044.65 39.288C1045.12 39.42 1045.54 39.648 1045.93 39.972C1046.05 40.056 1046.12 40.158 1046.16 40.278C1046.2 40.398 1046.2 40.518 1046.16 40.638C1046.12 40.746 1046.06 40.842 1045.98 40.926C1045.9 40.998 1045.79 41.04 1045.66 41.052C1045.54 41.064 1045.41 41.022 1045.28 40.926C1044.97 40.686 1044.65 40.518 1044.32 40.422C1044 40.326 1043.69 40.278 1043.39 40.278C1042.92 40.278 1042.51 40.356 1042.16 40.512C1041.82 40.656 1041.52 40.866 1041.28 41.142C1041.04 41.418 1040.86 41.76 1040.72 42.168C1040.6 42.576 1040.54 43.05 1040.54 43.59C1040.54 44.634 1040.79 45.462 1041.28 46.074C1041.77 46.674 1042.48 46.974 1043.39 46.974C1043.69 46.974 1043.99 46.926 1044.31 46.83C1044.63 46.734 1044.95 46.566 1045.28 46.326C1045.41 46.23 1045.54 46.188 1045.66 46.2C1045.78 46.212 1045.88 46.26 1045.96 46.344C1046.05 46.416 1046.1 46.512 1046.12 46.632C1046.16 46.752 1046.16 46.872 1046.12 46.992C1046.09 47.1 1046.01 47.196 1045.89 47.28C1045.51 47.592 1045.09 47.82 1044.63 47.964C1044.17 48.096 1043.73 48.162 1043.3 48.162ZM1051.02 48.162C1050.31 48.162 1049.72 48.036 1049.25 47.784C1048.8 47.52 1048.45 47.13 1048.21 46.614C1047.98 46.098 1047.87 45.456 1047.87 44.688V39.864C1047.87 39.612 1047.93 39.426 1048.05 39.306C1048.18 39.186 1048.36 39.126 1048.59 39.126C1048.83 39.126 1049.01 39.186 1049.13 39.306C1049.26 39.426 1049.33 39.612 1049.33 39.864V44.67C1049.33 45.438 1049.48 46.014 1049.79 46.398C1050.12 46.77 1050.62 46.956 1051.31 46.956C1052.05 46.956 1052.66 46.704 1053.12 46.2C1053.59 45.696 1053.83 45.036 1053.83 44.22V39.864C1053.83 39.612 1053.89 39.426 1054.01 39.306C1054.14 39.186 1054.32 39.126 1054.56 39.126C1054.79 39.126 1054.97 39.186 1055.09 39.306C1055.22 39.426 1055.28 39.612 1055.28 39.864V47.37C1055.28 47.874 1055.05 48.126 1054.58 48.126C1054.35 48.126 1054.17 48.06 1054.04 47.928C1053.92 47.796 1053.86 47.61 1053.86 47.37V45.732L1054.1 45.984C1053.86 46.692 1053.46 47.232 1052.91 47.604C1052.37 47.976 1051.74 48.162 1051.02 48.162ZM1061.95 48.162C1061.03 48.162 1060.23 47.982 1059.56 47.622C1058.9 47.25 1058.38 46.728 1058.01 46.056C1057.65 45.384 1057.47 44.58 1057.47 43.644C1057.47 42.732 1057.65 41.94 1058.01 41.268C1058.37 40.584 1058.86 40.05 1059.49 39.666C1060.12 39.282 1060.86 39.09 1061.68 39.09C1062.27 39.09 1062.8 39.192 1063.27 39.396C1063.74 39.588 1064.13 39.87 1064.46 40.242C1064.79 40.614 1065.04 41.064 1065.21 41.592C1065.39 42.12 1065.48 42.714 1065.48 43.374C1065.48 43.566 1065.43 43.71 1065.32 43.806C1065.21 43.89 1065.06 43.932 1064.85 43.932H1058.59V42.978H1064.51L1064.22 43.212C1064.22 42.564 1064.13 42.018 1063.93 41.574C1063.74 41.118 1063.46 40.77 1063.09 40.53C1062.73 40.29 1062.27 40.17 1061.72 40.17C1061.11 40.17 1060.59 40.314 1060.15 40.602C1059.73 40.878 1059.42 41.268 1059.2 41.772C1058.98 42.264 1058.88 42.84 1058.88 43.5V43.608C1058.88 44.712 1059.14 45.552 1059.67 46.128C1060.21 46.704 1060.97 46.992 1061.95 46.992C1062.36 46.992 1062.76 46.938 1063.16 46.83C1063.57 46.722 1063.96 46.542 1064.35 46.29C1064.52 46.182 1064.67 46.134 1064.8 46.146C1064.94 46.146 1065.06 46.188 1065.14 46.272C1065.22 46.344 1065.28 46.44 1065.3 46.56C1065.34 46.668 1065.33 46.788 1065.27 46.92C1065.22 47.052 1065.12 47.166 1064.96 47.262C1064.56 47.55 1064.1 47.772 1063.56 47.928C1063.02 48.084 1062.48 48.162 1061.95 48.162ZM1068.31 48.126C1068.07 48.126 1067.89 48.06 1067.77 47.928C1067.65 47.796 1067.59 47.61 1067.59 47.37V39.864C1067.59 39.624 1067.65 39.444 1067.77 39.324C1067.89 39.192 1068.07 39.126 1068.29 39.126C1068.52 39.126 1068.7 39.192 1068.82 39.324C1068.95 39.444 1069.01 39.624 1069.01 39.864V41.412L1068.82 41.196C1069.07 40.5 1069.48 39.978 1070.04 39.63C1070.62 39.27 1071.28 39.09 1072.02 39.09C1072.72 39.09 1073.29 39.216 1073.75 39.468C1074.22 39.72 1074.56 40.104 1074.79 40.62C1075.02 41.124 1075.13 41.766 1075.13 42.546V47.37C1075.13 47.61 1075.07 47.796 1074.94 47.928C1074.82 48.06 1074.64 48.126 1074.41 48.126C1074.17 48.126 1073.99 48.06 1073.86 47.928C1073.74 47.796 1073.68 47.61 1073.68 47.37V42.636C1073.68 41.82 1073.51 41.226 1073.19 40.854C1072.88 40.47 1072.37 40.278 1071.68 40.278C1070.87 40.278 1070.23 40.53 1069.75 41.034C1069.28 41.526 1069.05 42.186 1069.05 43.014V47.37C1069.05 47.874 1068.8 48.126 1068.31 48.126ZM1081.33 48.162C1080.65 48.162 1080.07 48.042 1079.61 47.802C1079.15 47.55 1078.81 47.19 1078.58 46.722C1078.35 46.242 1078.24 45.66 1078.24 44.976V40.386H1077.03C1076.83 40.386 1076.67 40.338 1076.56 40.242C1076.46 40.134 1076.4 39.99 1076.4 39.81C1076.4 39.63 1076.46 39.492 1076.56 39.396C1076.67 39.3 1076.83 39.252 1077.03 39.252H1078.24V37.182C1078.24 36.942 1078.3 36.762 1078.44 36.642C1078.57 36.51 1078.75 36.444 1078.98 36.444C1079.2 36.444 1079.38 36.51 1079.5 36.642C1079.63 36.762 1079.7 36.942 1079.7 37.182V39.252H1081.96C1082.17 39.252 1082.32 39.3 1082.43 39.396C1082.54 39.492 1082.59 39.63 1082.59 39.81C1082.59 39.99 1082.54 40.134 1082.43 40.242C1082.32 40.338 1082.17 40.386 1081.96 40.386H1079.7V44.832C1079.7 45.516 1079.84 46.038 1080.13 46.398C1080.42 46.746 1080.88 46.92 1081.53 46.92C1081.76 46.92 1081.95 46.896 1082.11 46.848C1082.28 46.8 1082.41 46.776 1082.52 46.776C1082.63 46.764 1082.72 46.8 1082.79 46.884C1082.86 46.968 1082.9 47.112 1082.9 47.316C1082.9 47.46 1082.87 47.592 1082.81 47.712C1082.76 47.832 1082.67 47.916 1082.54 47.964C1082.4 48.012 1082.2 48.054 1081.96 48.09C1081.74 48.138 1081.53 48.162 1081.33 48.162ZM1086.87 48.162C1086.27 48.162 1085.73 48.048 1085.25 47.82C1084.78 47.58 1084.41 47.256 1084.13 46.848C1083.86 46.44 1083.72 45.984 1083.72 45.48C1083.72 44.832 1083.88 44.322 1084.21 43.95C1084.54 43.578 1085.09 43.314 1085.84 43.158C1086.61 43.002 1087.66 42.924 1088.98 42.924H1089.79V43.878H1088.99C1088.02 43.878 1087.25 43.926 1086.69 44.022C1086.14 44.106 1085.75 44.256 1085.52 44.472C1085.3 44.688 1085.2 44.994 1085.2 45.39C1085.2 45.882 1085.36 46.284 1085.7 46.596C1086.05 46.908 1086.52 47.064 1087.1 47.064C1087.58 47.064 1088 46.95 1088.36 46.722C1088.74 46.494 1089.02 46.182 1089.23 45.786C1089.44 45.39 1089.55 44.934 1089.55 44.418V42.366C1089.55 41.622 1089.4 41.088 1089.1 40.764C1088.8 40.428 1088.31 40.26 1087.63 40.26C1087.21 40.26 1086.79 40.314 1086.37 40.422C1085.95 40.53 1085.5 40.704 1085.03 40.944C1084.87 41.028 1084.72 41.058 1084.6 41.034C1084.48 40.998 1084.39 40.932 1084.31 40.836C1084.24 40.74 1084.2 40.632 1084.19 40.512C1084.18 40.38 1084.2 40.254 1084.26 40.134C1084.33 40.014 1084.44 39.918 1084.58 39.846C1085.11 39.582 1085.63 39.39 1086.15 39.27C1086.67 39.15 1087.16 39.09 1087.63 39.09C1088.38 39.09 1089.01 39.216 1089.5 39.468C1089.99 39.708 1090.36 40.08 1090.6 40.584C1090.84 41.076 1090.96 41.712 1090.96 42.492V47.37C1090.96 47.61 1090.9 47.796 1090.78 47.928C1090.67 48.06 1090.51 48.126 1090.29 48.126C1090.06 48.126 1089.89 48.06 1089.77 47.928C1089.65 47.796 1089.59 47.61 1089.59 47.37V45.966H1089.75C1089.65 46.422 1089.47 46.812 1089.19 47.136C1088.93 47.46 1088.6 47.712 1088.2 47.892C1087.81 48.072 1087.36 48.162 1086.87 48.162Z" fill="#38485C"/>
<rect x="1113" y="22" width="48" height="40" rx="8" fill="white"/>
<path d="M1137 51.75C1137.53 51.7484 1138.04 51.5372 1138.41 51.1625C1138.79 50.7877 1139 50.2799 1139 49.75H1135C1135 50.2804 1135.21 50.7891 1135.59 51.1642C1135.96 51.5393 1136.47 51.75 1137 51.75ZM1143 45.75V40.75C1143 37.68 1141.36 35.11 1138.5 34.43V33.75C1138.5 33.3522 1138.34 32.9706 1138.06 32.6893C1137.78 32.408 1137.4 32.25 1137 32.25C1136.6 32.25 1136.22 32.408 1135.94 32.6893C1135.66 32.9706 1135.5 33.3522 1135.5 33.75V34.43C1132.63 35.11 1131 37.67 1131 40.75V45.75L1129.71 47.04C1129.57 47.1793 1129.47 47.3571 1129.43 47.5509C1129.39 47.7447 1129.41 47.9458 1129.49 48.1288C1129.56 48.3119 1129.69 48.4686 1129.86 48.5792C1130.02 48.6897 1130.21 48.7492 1130.41 48.75H1143.58C1143.78 48.7512 1143.97 48.6931 1144.14 48.5833C1144.3 48.4735 1144.43 48.3169 1144.51 48.1335C1144.59 47.95 1144.61 47.7481 1144.57 47.5533C1144.53 47.3586 1144.43 47.1799 1144.29 47.04L1143 45.75Z" fill="#38485C"/>
<path d="M1190.03 34.8466H1196.03C1196.3 34.8466 1196.55 34.7441 1196.74 34.5616C1196.93 34.3791 1197.03 34.1316 1197.03 33.8736C1197.03 33.6155 1196.93 33.3681 1196.74 33.1856C1196.55 33.0031 1196.3 32.9006 1196.03 32.9006H1190.03C1189.5 32.9021 1189 33.1077 1188.62 33.4723C1188.25 33.8369 1188.03 34.331 1188.03 34.8466V48.4684C1188.03 48.9841 1188.25 49.4781 1188.62 49.8428C1189 50.2074 1189.5 50.4129 1190.03 50.4144H1196.03C1196.3 50.4144 1196.55 50.3119 1196.74 50.1294C1196.93 49.9469 1197.03 49.6995 1197.03 49.4414C1197.03 49.1834 1196.93 48.9359 1196.74 48.7534C1196.55 48.571 1196.3 48.4684 1196.03 48.4684H1190.03V34.8466Z" fill="#C93B3B"/>
<path d="M1205.69 41.317L1202.9 38.6023C1202.83 38.5323 1202.74 38.4841 1202.64 38.464C1202.54 38.4439 1202.44 38.4526 1202.35 38.4893C1202.26 38.5259 1202.18 38.5887 1202.12 38.6696C1202.07 38.7504 1202.04 38.8457 1202.04 38.9429V40.6845H1195.04C1194.77 40.6845 1194.52 40.787 1194.33 40.9695C1194.14 41.152 1194.04 41.3995 1194.04 41.6575C1194.04 41.9156 1194.14 42.163 1194.33 42.3455C1194.52 42.528 1194.77 42.6305 1195.04 42.6305H1202.04V44.3721C1202.04 44.4673 1202.07 44.5601 1202.12 44.6388C1202.18 44.7176 1202.26 44.7789 1202.35 44.8151C1202.44 44.8514 1202.54 44.861 1202.63 44.8428C1202.73 44.8246 1202.82 44.7794 1202.89 44.7127L1205.68 41.998C1205.72 41.9541 1205.76 41.9017 1205.79 41.8436C1205.81 41.7855 1205.83 41.7229 1205.83 41.6595C1205.83 41.5962 1205.82 41.5333 1205.79 41.4745C1205.77 41.4157 1205.73 41.3621 1205.69 41.317V41.317Z" fill="#C93B3B"/>
<rect x="1170" y="21.3241" width="54" height="41.3517" rx="7" stroke="#C93B3B" stroke-width="2"/>
<line x1="-1.75853e-09" y1="85" x2="1366" y2="85" stroke="#007BC7" stroke-width="2"/>
<defs>
<clipPath id="clip0_700_12577">
<rect width="76" height="40.8804" fill="white" transform="translate(143 21)"/>
</clipPath>
</defs>
</svg>
