<svg width="1366" height="86" viewBox="0 0 1366 86" fill="none" xmlns="http://www.w3.org/2000/svg">
<rect width="1366" height="84" fill="white"/>
<g clip-path="url(#clip0_700_12107)">
<path d="M218.261 53.3779L203.685 25.2116C202.427 22.7113 199.851 21 196.861 21H196.854C193.867 21 191.288 22.7113 190.03 25.2116L179.77 45.0375C178.624 42.9984 176.797 41.3988 174.593 40.5341C177.053 38.7543 178.656 35.8541 178.656 32.5828C178.656 28.7891 176.502 25.507 173.353 23.8786C170.579 22.4195 167.412 21.5945 164.054 21.5945H148.707C145.551 21.5945 143 24.1452 143 27.294V55.8566C143 59.0054 145.551 61.5561 148.707 61.5561H165.305C168.504 61.5561 171.548 60.8932 174.311 59.7115L175.363 59.2036C175.421 59.1747 175.479 59.1459 175.536 59.1171C176.534 60.7708 178.339 61.884 180.418 61.884C182.728 61.884 184.716 60.515 185.613 58.537C186.06 57.4922 187.069 56.7537 188.258 56.696H205.454C206.646 56.7537 207.651 57.4922 208.098 58.537C208.992 60.515 210.984 61.884 213.293 61.884C216.446 61.884 218.996 59.326 218.996 56.1881C218.996 55.1649 218.733 54.2065 218.258 53.3815" fill="#FFD305"/>
</g>
<rect x="275" y="22" width="66" height="40" rx="8" fill="#007BC7"/>
<path d="M289.304 48.126C289.064 48.126 288.878 48.06 288.746 47.928C288.626 47.784 288.566 47.592 288.566 47.352V35.958C288.566 35.706 288.626 35.514 288.746 35.382C288.878 35.25 289.064 35.184 289.304 35.184C289.544 35.184 289.724 35.25 289.844 35.382C289.976 35.514 290.042 35.706 290.042 35.958V47.352C290.042 47.592 289.982 47.784 289.862 47.928C289.742 48.06 289.556 48.126 289.304 48.126ZM293.711 48.126C293.471 48.126 293.291 48.06 293.171 47.928C293.051 47.796 292.991 47.61 292.991 47.37V39.864C292.991 39.624 293.051 39.444 293.171 39.324C293.291 39.192 293.465 39.126 293.693 39.126C293.921 39.126 294.095 39.192 294.215 39.324C294.347 39.444 294.413 39.624 294.413 39.864V41.412L294.215 41.196C294.467 40.5 294.875 39.978 295.439 39.63C296.015 39.27 296.675 39.09 297.419 39.09C298.115 39.09 298.691 39.216 299.147 39.468C299.615 39.72 299.963 40.104 300.191 40.62C300.419 41.124 300.533 41.766 300.533 42.546V47.37C300.533 47.61 300.467 47.796 300.335 47.928C300.215 48.06 300.041 48.126 299.813 48.126C299.573 48.126 299.387 48.06 299.255 47.928C299.135 47.796 299.075 47.61 299.075 47.37V42.636C299.075 41.82 298.913 41.226 298.589 40.854C298.277 40.47 297.773 40.278 297.077 40.278C296.273 40.278 295.631 40.53 295.151 41.034C294.683 41.526 294.449 42.186 294.449 43.014V47.37C294.449 47.874 294.203 48.126 293.711 48.126ZM303.942 48.09C303.702 48.09 303.522 48.024 303.402 47.892C303.282 47.748 303.222 47.55 303.222 47.298V39.936C303.222 39.684 303.282 39.492 303.402 39.36C303.522 39.228 303.702 39.162 303.942 39.162C304.17 39.162 304.35 39.228 304.482 39.36C304.614 39.492 304.68 39.684 304.68 39.936V47.298C304.68 47.55 304.614 47.748 304.482 47.892C304.362 48.024 304.182 48.09 303.942 48.09ZM303.942 37.146C303.642 37.146 303.408 37.068 303.24 36.912C303.072 36.744 302.988 36.522 302.988 36.246C302.988 35.958 303.072 35.742 303.24 35.598C303.408 35.442 303.642 35.364 303.942 35.364C304.254 35.364 304.488 35.442 304.644 35.598C304.812 35.742 304.896 35.958 304.896 36.246C304.896 36.522 304.812 36.744 304.644 36.912C304.488 37.068 304.254 37.146 303.942 37.146ZM311.113 48.162C310.237 48.162 309.481 47.97 308.845 47.586C308.209 47.202 307.717 46.668 307.369 45.984C307.033 45.288 306.865 44.484 306.865 43.572C306.865 42.876 306.961 42.252 307.153 41.7C307.345 41.148 307.627 40.68 307.999 40.296C308.371 39.9 308.815 39.6 309.331 39.396C309.859 39.192 310.453 39.09 311.113 39.09C311.545 39.09 311.995 39.156 312.463 39.288C312.931 39.42 313.357 39.648 313.741 39.972C313.861 40.056 313.939 40.158 313.975 40.278C314.011 40.398 314.011 40.518 313.975 40.638C313.939 40.746 313.879 40.842 313.795 40.926C313.711 40.998 313.603 41.04 313.471 41.052C313.351 41.064 313.225 41.022 313.093 40.926C312.781 40.686 312.463 40.518 312.139 40.422C311.815 40.326 311.503 40.278 311.203 40.278C310.735 40.278 310.327 40.356 309.979 40.512C309.631 40.656 309.337 40.866 309.097 41.142C308.857 41.418 308.671 41.76 308.539 42.168C308.419 42.576 308.359 43.05 308.359 43.59C308.359 44.634 308.605 45.462 309.097 46.074C309.589 46.674 310.291 46.974 311.203 46.974C311.503 46.974 311.809 46.926 312.121 46.83C312.445 46.734 312.769 46.566 313.093 46.326C313.225 46.23 313.351 46.188 313.471 46.2C313.591 46.212 313.693 46.26 313.777 46.344C313.861 46.416 313.915 46.512 313.939 46.632C313.975 46.752 313.975 46.872 313.939 46.992C313.903 47.1 313.825 47.196 313.705 47.28C313.321 47.592 312.901 47.82 312.445 47.964C311.989 48.096 311.545 48.162 311.113 48.162ZM316.457 48.09C316.217 48.09 316.037 48.024 315.917 47.892C315.797 47.748 315.737 47.55 315.737 47.298V39.936C315.737 39.684 315.797 39.492 315.917 39.36C316.037 39.228 316.217 39.162 316.457 39.162C316.685 39.162 316.865 39.228 316.997 39.36C317.129 39.492 317.195 39.684 317.195 39.936V47.298C317.195 47.55 317.129 47.748 316.997 47.892C316.877 48.024 316.697 48.09 316.457 48.09ZM316.457 37.146C316.157 37.146 315.923 37.068 315.755 36.912C315.587 36.744 315.503 36.522 315.503 36.246C315.503 35.958 315.587 35.742 315.755 35.598C315.923 35.442 316.157 35.364 316.457 35.364C316.769 35.364 317.003 35.442 317.159 35.598C317.327 35.742 317.411 35.958 317.411 36.246C317.411 36.522 317.327 36.744 317.159 36.912C317.003 37.068 316.769 37.146 316.457 37.146ZM323.557 48.162C322.705 48.162 321.967 47.976 321.343 47.604C320.719 47.232 320.233 46.71 319.885 46.038C319.549 45.354 319.381 44.55 319.381 43.626C319.381 42.93 319.477 42.306 319.669 41.754C319.861 41.19 320.143 40.71 320.515 40.314C320.887 39.918 321.325 39.618 321.829 39.414C322.345 39.198 322.921 39.09 323.557 39.09C324.409 39.09 325.147 39.276 325.771 39.648C326.395 40.02 326.875 40.548 327.211 41.232C327.559 41.904 327.733 42.702 327.733 43.626C327.733 44.322 327.637 44.946 327.445 45.498C327.253 46.05 326.971 46.53 326.599 46.938C326.227 47.334 325.783 47.64 325.267 47.856C324.763 48.06 324.193 48.162 323.557 48.162ZM323.557 46.992C324.097 46.992 324.571 46.86 324.979 46.596C325.387 46.332 325.699 45.948 325.915 45.444C326.143 44.94 326.257 44.334 326.257 43.626C326.257 42.534 326.011 41.7 325.519 41.124C325.039 40.548 324.385 40.26 323.557 40.26C323.005 40.26 322.525 40.392 322.117 40.656C321.721 40.908 321.409 41.286 321.181 41.79C320.965 42.282 320.857 42.894 320.857 43.626C320.857 44.706 321.103 45.54 321.595 46.128C322.087 46.704 322.741 46.992 323.557 46.992Z" fill="white"/>
<rect x="349" y="18" width="160" height="48" rx="8" fill="white"/>
<path d="M368.056 48.162C366.808 48.162 365.74 47.898 364.852 47.37C363.964 46.842 363.28 46.092 362.8 45.12C362.332 44.148 362.098 42.99 362.098 41.646C362.098 40.638 362.23 39.738 362.494 38.946C362.77 38.142 363.16 37.464 363.664 36.912C364.18 36.348 364.81 35.916 365.554 35.616C366.298 35.304 367.132 35.148 368.056 35.148C368.8 35.148 369.508 35.256 370.18 35.472C370.852 35.676 371.434 35.982 371.926 36.39C372.082 36.51 372.184 36.648 372.232 36.804C372.292 36.948 372.298 37.092 372.25 37.236C372.214 37.368 372.142 37.482 372.034 37.578C371.938 37.662 371.818 37.704 371.674 37.704C371.53 37.704 371.368 37.644 371.188 37.524C370.756 37.176 370.282 36.918 369.766 36.75C369.25 36.582 368.692 36.498 368.092 36.498C367.144 36.498 366.34 36.702 365.68 37.11C365.02 37.506 364.522 38.088 364.186 38.856C363.85 39.624 363.682 40.554 363.682 41.646C363.682 42.738 363.85 43.674 364.186 44.454C364.522 45.222 365.02 45.81 365.68 46.218C366.34 46.614 367.144 46.812 368.092 46.812C368.68 46.812 369.238 46.728 369.766 46.56C370.294 46.38 370.78 46.116 371.224 45.768C371.404 45.648 371.566 45.594 371.71 45.606C371.854 45.606 371.974 45.648 372.07 45.732C372.166 45.816 372.232 45.924 372.268 46.056C372.316 46.188 372.316 46.326 372.268 46.47C372.232 46.614 372.142 46.74 371.998 46.848C371.494 47.28 370.9 47.61 370.216 47.838C369.544 48.054 368.824 48.162 368.056 48.162ZM375.199 48.126C374.959 48.126 374.779 48.06 374.659 47.928C374.539 47.796 374.479 47.61 374.479 47.37V35.922C374.479 35.682 374.539 35.502 374.659 35.382C374.779 35.25 374.959 35.184 375.199 35.184C375.427 35.184 375.607 35.25 375.739 35.382C375.871 35.502 375.937 35.682 375.937 35.922V41.196H375.703C375.955 40.5 376.363 39.978 376.927 39.63C377.503 39.27 378.163 39.09 378.907 39.09C379.603 39.09 380.179 39.216 380.635 39.468C381.103 39.72 381.451 40.104 381.679 40.62C381.907 41.124 382.021 41.766 382.021 42.546V47.37C382.021 47.61 381.955 47.796 381.823 47.928C381.703 48.06 381.529 48.126 381.301 48.126C381.061 48.126 380.875 48.06 380.743 47.928C380.623 47.796 380.563 47.61 380.563 47.37V42.636C380.563 41.82 380.401 41.226 380.077 40.854C379.765 40.47 379.261 40.278 378.565 40.278C377.761 40.278 377.119 40.53 376.639 41.034C376.171 41.526 375.937 42.186 375.937 43.014V47.37C375.937 47.874 375.691 48.126 375.199 48.126ZM387.464 48.162C386.864 48.162 386.324 48.048 385.844 47.82C385.376 47.58 385.004 47.256 384.728 46.848C384.452 46.44 384.314 45.984 384.314 45.48C384.314 44.832 384.476 44.322 384.8 43.95C385.136 43.578 385.682 43.314 386.438 43.158C387.206 43.002 388.25 42.924 389.57 42.924H390.38V43.878H389.588C388.616 43.878 387.848 43.926 387.284 44.022C386.732 44.106 386.342 44.256 386.114 44.472C385.898 44.688 385.79 44.994 385.79 45.39C385.79 45.882 385.958 46.284 386.294 46.596C386.642 46.908 387.11 47.064 387.698 47.064C388.178 47.064 388.598 46.95 388.958 46.722C389.33 46.494 389.618 46.182 389.822 45.786C390.038 45.39 390.146 44.934 390.146 44.418V42.366C390.146 41.622 389.996 41.088 389.696 40.764C389.396 40.428 388.904 40.26 388.22 40.26C387.8 40.26 387.38 40.314 386.96 40.422C386.54 40.53 386.096 40.704 385.628 40.944C385.46 41.028 385.316 41.058 385.196 41.034C385.076 40.998 384.98 40.932 384.908 40.836C384.836 40.74 384.794 40.632 384.782 40.512C384.77 40.38 384.794 40.254 384.854 40.134C384.926 40.014 385.034 39.918 385.178 39.846C385.706 39.582 386.228 39.39 386.744 39.27C387.26 39.15 387.752 39.09 388.22 39.09C388.976 39.09 389.6 39.216 390.092 39.468C390.584 39.708 390.95 40.08 391.19 40.584C391.43 41.076 391.55 41.712 391.55 42.492V47.37C391.55 47.61 391.49 47.796 391.37 47.928C391.262 48.06 391.1 48.126 390.884 48.126C390.656 48.126 390.482 48.06 390.362 47.928C390.242 47.796 390.182 47.61 390.182 47.37V45.966H390.344C390.248 46.422 390.062 46.812 389.786 47.136C389.522 47.46 389.192 47.712 388.796 47.892C388.4 48.072 387.956 48.162 387.464 48.162ZM397.765 48.162C397.081 48.162 396.505 48.042 396.037 47.802C395.581 47.55 395.239 47.19 395.011 46.722C394.783 46.242 394.669 45.66 394.669 44.976V40.386H393.463C393.259 40.386 393.103 40.338 392.995 40.242C392.887 40.134 392.833 39.99 392.833 39.81C392.833 39.63 392.887 39.492 392.995 39.396C393.103 39.3 393.259 39.252 393.463 39.252H394.669V37.182C394.669 36.942 394.735 36.762 394.867 36.642C394.999 36.51 395.179 36.444 395.407 36.444C395.635 36.444 395.809 36.51 395.929 36.642C396.061 36.762 396.127 36.942 396.127 37.182V39.252H398.395C398.599 39.252 398.755 39.3 398.863 39.396C398.971 39.492 399.025 39.63 399.025 39.81C399.025 39.99 398.971 40.134 398.863 40.242C398.755 40.338 398.599 40.386 398.395 40.386H396.127V44.832C396.127 45.516 396.271 46.038 396.559 46.398C396.847 46.746 397.315 46.92 397.963 46.92C398.191 46.92 398.383 46.896 398.539 46.848C398.707 46.8 398.845 46.776 398.953 46.776C399.061 46.764 399.151 46.8 399.223 46.884C399.295 46.968 399.331 47.112 399.331 47.316C399.331 47.46 399.301 47.592 399.241 47.712C399.193 47.832 399.103 47.916 398.971 47.964C398.827 48.012 398.635 48.054 398.395 48.09C398.167 48.138 397.957 48.162 397.765 48.162ZM404.402 48.162C403.478 48.162 402.68 47.982 402.008 47.622C401.348 47.25 400.832 46.728 400.46 46.056C400.1 45.384 399.92 44.58 399.92 43.644C399.92 42.732 400.1 41.94 400.46 41.268C400.82 40.584 401.312 40.05 401.936 39.666C402.572 39.282 403.304 39.09 404.132 39.09C404.72 39.09 405.248 39.192 405.716 39.396C406.184 39.588 406.58 39.87 406.904 40.242C407.24 40.614 407.492 41.064 407.66 41.592C407.84 42.12 407.93 42.714 407.93 43.374C407.93 43.566 407.876 43.71 407.768 43.806C407.66 43.89 407.504 43.932 407.3 43.932H401.036V42.978H406.958L406.67 43.212C406.67 42.564 406.574 42.018 406.382 41.574C406.19 41.118 405.908 40.77 405.536 40.53C405.176 40.29 404.72 40.17 404.168 40.17C403.556 40.17 403.034 40.314 402.602 40.602C402.182 40.878 401.864 41.268 401.648 41.772C401.432 42.264 401.324 42.84 401.324 43.5V43.608C401.324 44.712 401.588 45.552 402.116 46.128C402.656 46.704 403.418 46.992 404.402 46.992C404.81 46.992 405.212 46.938 405.608 46.83C406.016 46.722 406.412 46.542 406.796 46.29C406.964 46.182 407.114 46.134 407.246 46.146C407.39 46.146 407.504 46.188 407.588 46.272C407.672 46.344 407.726 46.44 407.75 46.56C407.786 46.668 407.774 46.788 407.714 46.92C407.666 47.052 407.564 47.166 407.408 47.262C407.012 47.55 406.544 47.772 406.004 47.928C405.464 48.084 404.93 48.162 404.402 48.162ZM412.794 48.162C412.194 48.162 411.654 48.048 411.174 47.82C410.706 47.58 410.334 47.256 410.058 46.848C409.782 46.44 409.644 45.984 409.644 45.48C409.644 44.832 409.806 44.322 410.13 43.95C410.466 43.578 411.012 43.314 411.768 43.158C412.536 43.002 413.58 42.924 414.9 42.924H415.71V43.878H414.918C413.946 43.878 413.178 43.926 412.614 44.022C412.062 44.106 411.672 44.256 411.444 44.472C411.228 44.688 411.12 44.994 411.12 45.39C411.12 45.882 411.288 46.284 411.624 46.596C411.972 46.908 412.44 47.064 413.028 47.064C413.508 47.064 413.928 46.95 414.288 46.722C414.66 46.494 414.948 46.182 415.152 45.786C415.368 45.39 415.476 44.934 415.476 44.418V42.366C415.476 41.622 415.326 41.088 415.026 40.764C414.726 40.428 414.234 40.26 413.55 40.26C413.13 40.26 412.71 40.314 412.29 40.422C411.87 40.53 411.426 40.704 410.958 40.944C410.79 41.028 410.646 41.058 410.526 41.034C410.406 40.998 410.31 40.932 410.238 40.836C410.166 40.74 410.124 40.632 410.112 40.512C410.1 40.38 410.124 40.254 410.184 40.134C410.256 40.014 410.364 39.918 410.508 39.846C411.036 39.582 411.558 39.39 412.074 39.27C412.59 39.15 413.082 39.09 413.55 39.09C414.306 39.09 414.93 39.216 415.422 39.468C415.914 39.708 416.28 40.08 416.52 40.584C416.76 41.076 416.88 41.712 416.88 42.492V47.37C416.88 47.61 416.82 47.796 416.7 47.928C416.592 48.06 416.43 48.126 416.214 48.126C415.986 48.126 415.812 48.06 415.692 47.928C415.572 47.796 415.512 47.61 415.512 47.37V45.966H415.674C415.578 46.422 415.392 46.812 415.116 47.136C414.852 47.46 414.522 47.712 414.126 47.892C413.73 48.072 413.286 48.162 412.794 48.162ZM414.162 37.992C414.078 38.112 413.976 38.184 413.856 38.208C413.736 38.22 413.622 38.202 413.514 38.154C413.406 38.094 413.328 38.01 413.28 37.902C413.232 37.794 413.244 37.668 413.316 37.524L414.828 34.59C414.912 34.422 415.02 34.314 415.152 34.266C415.284 34.218 415.416 34.212 415.548 34.248C415.692 34.272 415.812 34.332 415.908 34.428C416.004 34.524 416.058 34.638 416.07 34.77C416.094 34.902 416.058 35.04 415.962 35.184L414.162 37.992ZM427.933 48.162C427.057 48.162 426.301 47.97 425.665 47.586C425.029 47.202 424.537 46.668 424.189 45.984C423.853 45.288 423.685 44.484 423.685 43.572C423.685 42.876 423.781 42.252 423.973 41.7C424.165 41.148 424.447 40.68 424.819 40.296C425.191 39.9 425.635 39.6 426.151 39.396C426.679 39.192 427.273 39.09 427.933 39.09C428.365 39.09 428.815 39.156 429.283 39.288C429.751 39.42 430.177 39.648 430.561 39.972C430.681 40.056 430.759 40.158 430.795 40.278C430.831 40.398 430.831 40.518 430.795 40.638C430.759 40.746 430.699 40.842 430.615 40.926C430.531 40.998 430.423 41.04 430.291 41.052C430.171 41.064 430.045 41.022 429.913 40.926C429.601 40.686 429.283 40.518 428.959 40.422C428.635 40.326 428.323 40.278 428.023 40.278C427.555 40.278 427.147 40.356 426.799 40.512C426.451 40.656 426.157 40.866 425.917 41.142C425.677 41.418 425.491 41.76 425.359 42.168C425.239 42.576 425.179 43.05 425.179 43.59C425.179 44.634 425.425 45.462 425.917 46.074C426.409 46.674 427.111 46.974 428.023 46.974C428.323 46.974 428.629 46.926 428.941 46.83C429.265 46.734 429.589 46.566 429.913 46.326C430.045 46.23 430.171 46.188 430.291 46.2C430.411 46.212 430.513 46.26 430.597 46.344C430.681 46.416 430.735 46.512 430.759 46.632C430.795 46.752 430.795 46.872 430.759 46.992C430.723 47.1 430.645 47.196 430.525 47.28C430.141 47.592 429.721 47.82 429.265 47.964C428.809 48.096 428.365 48.162 427.933 48.162ZM436.018 48.162C435.166 48.162 434.428 47.976 433.804 47.604C433.18 47.232 432.694 46.71 432.346 46.038C432.01 45.354 431.842 44.55 431.842 43.626C431.842 42.93 431.938 42.306 432.13 41.754C432.322 41.19 432.604 40.71 432.976 40.314C433.348 39.918 433.786 39.618 434.29 39.414C434.806 39.198 435.382 39.09 436.018 39.09C436.87 39.09 437.608 39.276 438.232 39.648C438.856 40.02 439.336 40.548 439.672 41.232C440.02 41.904 440.194 42.702 440.194 43.626C440.194 44.322 440.098 44.946 439.906 45.498C439.714 46.05 439.432 46.53 439.06 46.938C438.688 47.334 438.244 47.64 437.728 47.856C437.224 48.06 436.654 48.162 436.018 48.162ZM436.018 46.992C436.558 46.992 437.032 46.86 437.44 46.596C437.848 46.332 438.16 45.948 438.376 45.444C438.604 44.94 438.718 44.334 438.718 43.626C438.718 42.534 438.472 41.7 437.98 41.124C437.5 40.548 436.846 40.26 436.018 40.26C435.466 40.26 434.986 40.392 434.578 40.656C434.182 40.908 433.87 41.286 433.642 41.79C433.426 42.282 433.318 42.894 433.318 43.626C433.318 44.706 433.564 45.54 434.056 46.128C434.548 46.704 435.202 46.992 436.018 46.992ZM443.104 48.126C442.864 48.126 442.684 48.06 442.564 47.928C442.444 47.796 442.384 47.61 442.384 47.37V39.864C442.384 39.624 442.444 39.444 442.564 39.324C442.684 39.192 442.858 39.126 443.086 39.126C443.314 39.126 443.488 39.192 443.608 39.324C443.74 39.444 443.806 39.624 443.806 39.864V41.412L443.608 41.196C443.86 40.5 444.268 39.978 444.832 39.63C445.408 39.27 446.068 39.09 446.812 39.09C447.508 39.09 448.084 39.216 448.54 39.468C449.008 39.72 449.356 40.104 449.584 40.62C449.812 41.124 449.926 41.766 449.926 42.546V47.37C449.926 47.61 449.86 47.796 449.728 47.928C449.608 48.06 449.434 48.126 449.206 48.126C448.966 48.126 448.78 48.06 448.648 47.928C448.528 47.796 448.468 47.61 448.468 47.37V42.636C448.468 41.82 448.306 41.226 447.982 40.854C447.67 40.47 447.166 40.278 446.47 40.278C445.666 40.278 445.024 40.53 444.544 41.034C444.076 41.526 443.842 42.186 443.842 43.014V47.37C443.842 47.874 443.596 48.126 443.104 48.126ZM458.263 48C457.999 48 457.795 47.934 457.651 47.802C457.519 47.658 457.453 47.454 457.453 47.19V36.12C457.453 35.856 457.519 35.658 457.651 35.526C457.795 35.382 457.999 35.31 458.263 35.31H462.529C463.405 35.31 464.143 35.442 464.743 35.706C465.355 35.958 465.823 36.33 466.147 36.822C466.471 37.314 466.633 37.914 466.633 38.622C466.633 39.414 466.399 40.074 465.931 40.602C465.475 41.13 464.851 41.478 464.059 41.646V41.394C464.959 41.502 465.661 41.826 466.165 42.366C466.681 42.906 466.939 43.62 466.939 44.508C466.939 45.636 466.573 46.5 465.841 47.1C465.109 47.7 464.077 48 462.745 48H458.263ZM458.893 46.812H462.601C463.561 46.812 464.281 46.62 464.761 46.236C465.241 45.852 465.481 45.27 465.481 44.49C465.481 43.698 465.241 43.116 464.761 42.744C464.281 42.36 463.561 42.168 462.601 42.168H458.893V46.812ZM458.893 40.98H462.313C463.249 40.98 463.957 40.788 464.437 40.404C464.929 40.02 465.175 39.468 465.175 38.748C465.175 38.004 464.929 37.446 464.437 37.074C463.957 36.69 463.249 36.498 462.313 36.498H458.893V40.98ZM474.945 48.162C473.769 48.162 472.743 47.898 471.867 47.37C471.003 46.83 470.331 46.074 469.851 45.102C469.383 44.13 469.149 42.978 469.149 41.646C469.149 40.638 469.281 39.738 469.545 38.946C469.821 38.142 470.211 37.464 470.715 36.912C471.219 36.348 471.825 35.916 472.533 35.616C473.253 35.304 474.057 35.148 474.945 35.148C476.145 35.148 477.177 35.412 478.041 35.94C478.917 36.468 479.589 37.218 480.057 38.19C480.537 39.15 480.777 40.296 480.777 41.628C480.777 42.636 480.639 43.542 480.363 44.346C480.087 45.15 479.697 45.834 479.193 46.398C478.689 46.962 478.077 47.4 477.357 47.712C476.649 48.012 475.845 48.162 474.945 48.162ZM474.945 46.848C475.857 46.848 476.625 46.644 477.249 46.236C477.885 45.828 478.371 45.234 478.707 44.454C479.043 43.674 479.211 42.738 479.211 41.646C479.211 40.002 478.839 38.73 478.095 37.83C477.363 36.918 476.313 36.462 474.945 36.462C474.057 36.462 473.295 36.666 472.659 37.074C472.035 37.482 471.555 38.076 471.219 38.856C470.883 39.624 470.715 40.554 470.715 41.646C470.715 43.278 471.087 44.556 471.831 45.48C472.575 46.392 473.613 46.848 474.945 46.848ZM486.477 48.126C486.249 48.126 486.069 48.06 485.937 47.928C485.805 47.784 485.739 47.592 485.739 47.352V36.588H481.689C481.473 36.588 481.305 36.528 481.185 36.408C481.065 36.288 481.005 36.132 481.005 35.94C481.005 35.736 481.065 35.58 481.185 35.472C481.305 35.364 481.473 35.31 481.689 35.31H491.283C491.499 35.31 491.667 35.364 491.787 35.472C491.907 35.58 491.967 35.736 491.967 35.94C491.967 36.144 491.907 36.306 491.787 36.426C491.667 36.534 491.499 36.588 491.283 36.588H487.233V47.352C487.233 47.592 487.167 47.784 487.035 47.928C486.915 48.06 486.729 48.126 486.477 48.126ZM494.191 48.126C493.951 48.126 493.765 48.06 493.633 47.928C493.513 47.784 493.453 47.592 493.453 47.352V35.958C493.453 35.706 493.513 35.514 493.633 35.382C493.765 35.25 493.951 35.184 494.191 35.184C494.431 35.184 494.611 35.25 494.731 35.382C494.863 35.514 494.929 35.706 494.929 35.958V47.352C494.929 47.592 494.869 47.784 494.749 47.928C494.629 48.06 494.443 48.126 494.191 48.126Z" fill="#38485C"/>
<rect x="517" y="18" width="121" height="48" rx="8" fill="white"/>
<path d="M531.286 48.126C531.07 48.126 530.902 48.066 530.782 47.946C530.662 47.814 530.602 47.634 530.602 47.406V35.904C530.602 35.664 530.662 35.484 530.782 35.364C530.902 35.244 531.07 35.184 531.286 35.184C531.478 35.184 531.628 35.226 531.736 35.31C531.856 35.382 531.964 35.508 532.06 35.688L536.992 44.976H536.452L541.366 35.688C541.462 35.508 541.564 35.382 541.672 35.31C541.78 35.226 541.936 35.184 542.14 35.184C542.344 35.184 542.506 35.244 542.626 35.364C542.746 35.484 542.806 35.664 542.806 35.904V47.406C542.806 47.634 542.746 47.814 542.626 47.946C542.518 48.066 542.35 48.126 542.122 48.126C541.906 48.126 541.738 48.066 541.618 47.946C541.498 47.814 541.438 47.634 541.438 47.406V37.29H541.87L537.37 45.732C537.286 45.888 537.196 46.002 537.1 46.074C537.016 46.134 536.89 46.164 536.722 46.164C536.554 46.164 536.422 46.128 536.326 46.056C536.23 45.984 536.146 45.876 536.074 45.732L531.52 37.272H531.952V47.406C531.952 47.634 531.892 47.814 531.772 47.946C531.664 48.066 531.502 48.126 531.286 48.126ZM546.486 48.09C546.246 48.09 546.066 48.024 545.946 47.892C545.826 47.748 545.766 47.55 545.766 47.298V39.936C545.766 39.684 545.826 39.492 545.946 39.36C546.066 39.228 546.246 39.162 546.486 39.162C546.714 39.162 546.894 39.228 547.026 39.36C547.158 39.492 547.224 39.684 547.224 39.936V47.298C547.224 47.55 547.158 47.748 547.026 47.892C546.906 48.024 546.726 48.09 546.486 48.09ZM546.486 37.146C546.186 37.146 545.952 37.068 545.784 36.912C545.616 36.744 545.532 36.522 545.532 36.246C545.532 35.958 545.616 35.742 545.784 35.598C545.952 35.442 546.186 35.364 546.486 35.364C546.798 35.364 547.032 35.442 547.188 35.598C547.356 35.742 547.44 35.958 547.44 36.246C547.44 36.522 547.356 36.744 547.188 36.912C547.032 37.068 546.798 37.146 546.486 37.146ZM557.345 48.162C556.745 48.162 556.205 48.048 555.725 47.82C555.257 47.58 554.885 47.256 554.609 46.848C554.333 46.44 554.195 45.984 554.195 45.48C554.195 44.832 554.357 44.322 554.681 43.95C555.017 43.578 555.563 43.314 556.319 43.158C557.087 43.002 558.131 42.924 559.451 42.924H560.261V43.878H559.469C558.497 43.878 557.729 43.926 557.165 44.022C556.613 44.106 556.223 44.256 555.995 44.472C555.779 44.688 555.671 44.994 555.671 45.39C555.671 45.882 555.839 46.284 556.175 46.596C556.523 46.908 556.991 47.064 557.579 47.064C558.059 47.064 558.479 46.95 558.839 46.722C559.211 46.494 559.499 46.182 559.703 45.786C559.919 45.39 560.027 44.934 560.027 44.418V42.366C560.027 41.622 559.877 41.088 559.577 40.764C559.277 40.428 558.785 40.26 558.101 40.26C557.681 40.26 557.261 40.314 556.841 40.422C556.421 40.53 555.977 40.704 555.509 40.944C555.341 41.028 555.197 41.058 555.077 41.034C554.957 40.998 554.861 40.932 554.789 40.836C554.717 40.74 554.675 40.632 554.663 40.512C554.651 40.38 554.675 40.254 554.735 40.134C554.807 40.014 554.915 39.918 555.059 39.846C555.587 39.582 556.109 39.39 556.625 39.27C557.141 39.15 557.633 39.09 558.101 39.09C558.857 39.09 559.481 39.216 559.973 39.468C560.465 39.708 560.831 40.08 561.071 40.584C561.311 41.076 561.431 41.712 561.431 42.492V47.37C561.431 47.61 561.371 47.796 561.251 47.928C561.143 48.06 560.981 48.126 560.765 48.126C560.537 48.126 560.363 48.06 560.243 47.928C560.123 47.796 560.063 47.61 560.063 47.37V45.966H560.225C560.129 46.422 559.943 46.812 559.667 47.136C559.403 47.46 559.073 47.712 558.677 47.892C558.281 48.072 557.837 48.162 557.345 48.162ZM567.844 48.162C566.968 48.162 566.212 47.97 565.576 47.586C564.94 47.202 564.448 46.668 564.1 45.984C563.764 45.288 563.596 44.484 563.596 43.572C563.596 42.876 563.692 42.252 563.884 41.7C564.076 41.148 564.358 40.68 564.73 40.296C565.102 39.9 565.546 39.6 566.062 39.396C566.59 39.192 567.184 39.09 567.844 39.09C568.276 39.09 568.726 39.156 569.194 39.288C569.662 39.42 570.088 39.648 570.472 39.972C570.592 40.056 570.67 40.158 570.706 40.278C570.742 40.398 570.742 40.518 570.706 40.638C570.67 40.746 570.61 40.842 570.526 40.926C570.442 40.998 570.334 41.04 570.202 41.052C570.082 41.064 569.956 41.022 569.824 40.926C569.512 40.686 569.194 40.518 568.87 40.422C568.546 40.326 568.234 40.278 567.934 40.278C567.466 40.278 567.058 40.356 566.71 40.512C566.362 40.656 566.068 40.866 565.828 41.142C565.588 41.418 565.402 41.76 565.27 42.168C565.15 42.576 565.09 43.05 565.09 43.59C565.09 44.634 565.336 45.462 565.828 46.074C566.32 46.674 567.022 46.974 567.934 46.974C568.234 46.974 568.54 46.926 568.852 46.83C569.176 46.734 569.5 46.566 569.824 46.326C569.956 46.23 570.082 46.188 570.202 46.2C570.322 46.212 570.424 46.26 570.508 46.344C570.592 46.416 570.646 46.512 570.67 46.632C570.706 46.752 570.706 46.872 570.67 46.992C570.634 47.1 570.556 47.196 570.436 47.28C570.052 47.592 569.632 47.82 569.176 47.964C568.72 48.096 568.276 48.162 567.844 48.162ZM575.978 48.162C575.294 48.162 574.718 48.042 574.25 47.802C573.794 47.55 573.452 47.19 573.224 46.722C572.996 46.242 572.882 45.66 572.882 44.976V40.386H571.676C571.472 40.386 571.316 40.338 571.208 40.242C571.1 40.134 571.046 39.99 571.046 39.81C571.046 39.63 571.1 39.492 571.208 39.396C571.316 39.3 571.472 39.252 571.676 39.252H572.882V37.182C572.882 36.942 572.948 36.762 573.08 36.642C573.212 36.51 573.392 36.444 573.62 36.444C573.848 36.444 574.022 36.51 574.142 36.642C574.274 36.762 574.34 36.942 574.34 37.182V39.252H576.608C576.812 39.252 576.968 39.3 577.076 39.396C577.184 39.492 577.238 39.63 577.238 39.81C577.238 39.99 577.184 40.134 577.076 40.242C576.968 40.338 576.812 40.386 576.608 40.386H574.34V44.832C574.34 45.516 574.484 46.038 574.772 46.398C575.06 46.746 575.528 46.92 576.176 46.92C576.404 46.92 576.596 46.896 576.752 46.848C576.92 46.8 577.058 46.776 577.166 46.776C577.274 46.764 577.364 46.8 577.436 46.884C577.508 46.968 577.544 47.112 577.544 47.316C577.544 47.46 577.514 47.592 577.454 47.712C577.406 47.832 577.316 47.916 577.184 47.964C577.04 48.012 576.848 48.054 576.608 48.09C576.38 48.138 576.17 48.162 575.978 48.162ZM579.586 48.09C579.346 48.09 579.166 48.024 579.046 47.892C578.926 47.748 578.866 47.55 578.866 47.298V39.936C578.866 39.684 578.926 39.492 579.046 39.36C579.166 39.228 579.346 39.162 579.586 39.162C579.814 39.162 579.994 39.228 580.126 39.36C580.258 39.492 580.324 39.684 580.324 39.936V47.298C580.324 47.55 580.258 47.748 580.126 47.892C580.006 48.024 579.826 48.09 579.586 48.09ZM579.586 37.146C579.286 37.146 579.052 37.068 578.884 36.912C578.716 36.744 578.632 36.522 578.632 36.246C578.632 35.958 578.716 35.742 578.884 35.598C579.052 35.442 579.286 35.364 579.586 35.364C579.898 35.364 580.132 35.442 580.288 35.598C580.456 35.742 580.54 35.958 580.54 36.246C580.54 36.522 580.456 36.744 580.288 36.912C580.132 37.068 579.898 37.146 579.586 37.146ZM586.308 48.126C586.104 48.126 585.924 48.072 585.768 47.964C585.612 47.844 585.48 47.664 585.372 47.424L582.258 40.152C582.174 39.972 582.144 39.804 582.168 39.648C582.192 39.492 582.264 39.366 582.384 39.27C582.504 39.174 582.672 39.126 582.888 39.126C583.08 39.126 583.23 39.168 583.338 39.252C583.446 39.336 583.542 39.486 583.626 39.702L586.578 46.92H586.092L589.098 39.702C589.182 39.486 589.278 39.336 589.386 39.252C589.494 39.168 589.65 39.126 589.854 39.126C590.046 39.126 590.19 39.174 590.286 39.27C590.394 39.366 590.454 39.492 590.466 39.648C590.49 39.792 590.466 39.954 590.394 40.134L587.244 47.424C587.16 47.664 587.034 47.844 586.866 47.964C586.71 48.072 586.524 48.126 586.308 48.126ZM593.033 48.09C592.793 48.09 592.613 48.024 592.493 47.892C592.373 47.748 592.313 47.55 592.313 47.298V39.936C592.313 39.684 592.373 39.492 592.493 39.36C592.613 39.228 592.793 39.162 593.033 39.162C593.261 39.162 593.441 39.228 593.573 39.36C593.705 39.492 593.771 39.684 593.771 39.936V47.298C593.771 47.55 593.705 47.748 593.573 47.892C593.453 48.024 593.273 48.09 593.033 48.09ZM593.033 37.146C592.733 37.146 592.499 37.068 592.331 36.912C592.163 36.744 592.079 36.522 592.079 36.246C592.079 35.958 592.163 35.742 592.331 35.598C592.499 35.442 592.733 35.364 593.033 35.364C593.345 35.364 593.579 35.442 593.735 35.598C593.903 35.742 593.987 35.958 593.987 36.246C593.987 36.522 593.903 36.744 593.735 36.912C593.579 37.068 593.345 37.146 593.033 37.146ZM599.827 48.162C599.047 48.162 598.363 47.976 597.775 47.604C597.199 47.232 596.749 46.71 596.425 46.038C596.113 45.354 595.957 44.55 595.957 43.626C595.957 42.69 596.113 41.886 596.425 41.214C596.749 40.53 597.199 40.008 597.775 39.648C598.363 39.276 599.047 39.09 599.827 39.09C600.619 39.09 601.297 39.288 601.861 39.684C602.425 40.08 602.803 40.614 602.995 41.286H602.797V35.922C602.797 35.682 602.857 35.502 602.977 35.382C603.109 35.25 603.295 35.184 603.535 35.184C603.763 35.184 603.937 35.25 604.057 35.382C604.189 35.502 604.255 35.682 604.255 35.922V47.37C604.255 47.61 604.195 47.796 604.075 47.928C603.955 48.06 603.775 48.126 603.535 48.126C603.307 48.126 603.127 48.06 602.995 47.928C602.875 47.796 602.815 47.61 602.815 47.37V45.66L603.013 45.912C602.821 46.596 602.437 47.142 601.861 47.55C601.297 47.958 600.619 48.162 599.827 48.162ZM600.133 46.992C600.673 46.992 601.147 46.86 601.555 46.596C601.963 46.332 602.275 45.948 602.491 45.444C602.719 44.94 602.833 44.334 602.833 43.626C602.833 42.534 602.587 41.7 602.095 41.124C601.615 40.548 600.961 40.26 600.133 40.26C599.581 40.26 599.101 40.392 598.693 40.656C598.297 40.908 597.985 41.286 597.757 41.79C597.541 42.282 597.433 42.894 597.433 43.626C597.433 44.706 597.679 45.54 598.171 46.128C598.663 46.704 599.317 46.992 600.133 46.992ZM609.745 48.162C609.145 48.162 608.605 48.048 608.125 47.82C607.657 47.58 607.285 47.256 607.009 46.848C606.733 46.44 606.595 45.984 606.595 45.48C606.595 44.832 606.757 44.322 607.081 43.95C607.417 43.578 607.963 43.314 608.719 43.158C609.487 43.002 610.531 42.924 611.851 42.924H612.661V43.878H611.869C610.897 43.878 610.129 43.926 609.565 44.022C609.013 44.106 608.623 44.256 608.395 44.472C608.179 44.688 608.071 44.994 608.071 45.39C608.071 45.882 608.239 46.284 608.575 46.596C608.923 46.908 609.391 47.064 609.979 47.064C610.459 47.064 610.879 46.95 611.239 46.722C611.611 46.494 611.899 46.182 612.103 45.786C612.319 45.39 612.427 44.934 612.427 44.418V42.366C612.427 41.622 612.277 41.088 611.977 40.764C611.677 40.428 611.185 40.26 610.501 40.26C610.081 40.26 609.661 40.314 609.241 40.422C608.821 40.53 608.377 40.704 607.909 40.944C607.741 41.028 607.597 41.058 607.477 41.034C607.357 40.998 607.261 40.932 607.189 40.836C607.117 40.74 607.075 40.632 607.063 40.512C607.051 40.38 607.075 40.254 607.135 40.134C607.207 40.014 607.315 39.918 607.459 39.846C607.987 39.582 608.509 39.39 609.025 39.27C609.541 39.15 610.033 39.09 610.501 39.09C611.257 39.09 611.881 39.216 612.373 39.468C612.865 39.708 613.231 40.08 613.471 40.584C613.711 41.076 613.831 41.712 613.831 42.492V47.37C613.831 47.61 613.771 47.796 613.651 47.928C613.543 48.06 613.381 48.126 613.165 48.126C612.937 48.126 612.763 48.06 612.643 47.928C612.523 47.796 612.463 47.61 612.463 47.37V45.966H612.625C612.529 46.422 612.343 46.812 612.067 47.136C611.803 47.46 611.473 47.712 611.077 47.892C610.681 48.072 610.237 48.162 609.745 48.162ZM619.866 48.162C619.086 48.162 618.402 47.976 617.814 47.604C617.238 47.232 616.788 46.71 616.464 46.038C616.152 45.354 615.996 44.55 615.996 43.626C615.996 42.69 616.152 41.886 616.464 41.214C616.788 40.53 617.238 40.008 617.814 39.648C618.402 39.276 619.086 39.09 619.866 39.09C620.658 39.09 621.336 39.288 621.9 39.684C622.464 40.08 622.842 40.614 623.034 41.286H622.836V35.922C622.836 35.682 622.896 35.502 623.016 35.382C623.148 35.25 623.334 35.184 623.574 35.184C623.802 35.184 623.976 35.25 624.096 35.382C624.228 35.502 624.294 35.682 624.294 35.922V47.37C624.294 47.61 624.234 47.796 624.114 47.928C623.994 48.06 623.814 48.126 623.574 48.126C623.346 48.126 623.166 48.06 623.034 47.928C622.914 47.796 622.854 47.61 622.854 47.37V45.66L623.052 45.912C622.86 46.596 622.476 47.142 621.9 47.55C621.336 47.958 620.658 48.162 619.866 48.162ZM620.172 46.992C620.712 46.992 621.186 46.86 621.594 46.596C622.002 46.332 622.314 45.948 622.53 45.444C622.758 44.94 622.872 44.334 622.872 43.626C622.872 42.534 622.626 41.7 622.134 41.124C621.654 40.548 621 40.26 620.172 40.26C619.62 40.26 619.14 40.392 618.732 40.656C618.336 40.908 618.024 41.286 617.796 41.79C617.58 42.282 617.472 42.894 617.472 43.626C617.472 44.706 617.718 45.54 618.21 46.128C618.702 46.704 619.356 46.992 620.172 46.992Z" fill="#38485C"/>
<rect x="646" y="18" width="103" height="48" rx="8" fill="white"/>
<path d="M660.286 48.126C660.07 48.126 659.902 48.066 659.782 47.946C659.662 47.814 659.602 47.634 659.602 47.406V35.904C659.602 35.664 659.662 35.484 659.782 35.364C659.902 35.244 660.07 35.184 660.286 35.184C660.478 35.184 660.628 35.226 660.736 35.31C660.856 35.382 660.964 35.508 661.06 35.688L665.992 44.976H665.452L670.366 35.688C670.462 35.508 670.564 35.382 670.672 35.31C670.78 35.226 670.936 35.184 671.14 35.184C671.344 35.184 671.506 35.244 671.626 35.364C671.746 35.484 671.806 35.664 671.806 35.904V47.406C671.806 47.634 671.746 47.814 671.626 47.946C671.518 48.066 671.35 48.126 671.122 48.126C670.906 48.126 670.738 48.066 670.618 47.946C670.498 47.814 670.438 47.634 670.438 47.406V37.29H670.87L666.37 45.732C666.286 45.888 666.196 46.002 666.1 46.074C666.016 46.134 665.89 46.164 665.722 46.164C665.554 46.164 665.422 46.128 665.326 46.056C665.23 45.984 665.146 45.876 665.074 45.732L660.52 37.272H660.952V47.406C660.952 47.634 660.892 47.814 660.772 47.946C660.664 48.066 660.502 48.126 660.286 48.126ZM675.486 48.09C675.246 48.09 675.066 48.024 674.946 47.892C674.826 47.748 674.766 47.55 674.766 47.298V39.936C674.766 39.684 674.826 39.492 674.946 39.36C675.066 39.228 675.246 39.162 675.486 39.162C675.714 39.162 675.894 39.228 676.026 39.36C676.158 39.492 676.224 39.684 676.224 39.936V47.298C676.224 47.55 676.158 47.748 676.026 47.892C675.906 48.024 675.726 48.09 675.486 48.09ZM675.486 37.146C675.186 37.146 674.952 37.068 674.784 36.912C674.616 36.744 674.532 36.522 674.532 36.246C674.532 35.958 674.616 35.742 674.784 35.598C674.952 35.442 675.186 35.364 675.486 35.364C675.798 35.364 676.032 35.442 676.188 35.598C676.356 35.742 676.44 35.958 676.44 36.246C676.44 36.522 676.356 36.744 676.188 36.912C676.032 37.068 675.798 37.146 675.486 37.146ZM687.299 48.162C686.423 48.162 685.667 47.97 685.031 47.586C684.395 47.202 683.903 46.668 683.555 45.984C683.219 45.288 683.051 44.484 683.051 43.572C683.051 42.876 683.147 42.252 683.339 41.7C683.531 41.148 683.813 40.68 684.185 40.296C684.557 39.9 685.001 39.6 685.517 39.396C686.045 39.192 686.639 39.09 687.299 39.09C687.731 39.09 688.181 39.156 688.649 39.288C689.117 39.42 689.543 39.648 689.927 39.972C690.047 40.056 690.125 40.158 690.161 40.278C690.197 40.398 690.197 40.518 690.161 40.638C690.125 40.746 690.065 40.842 689.981 40.926C689.897 40.998 689.789 41.04 689.657 41.052C689.537 41.064 689.411 41.022 689.279 40.926C688.967 40.686 688.649 40.518 688.325 40.422C688.001 40.326 687.689 40.278 687.389 40.278C686.921 40.278 686.513 40.356 686.165 40.512C685.817 40.656 685.523 40.866 685.283 41.142C685.043 41.418 684.857 41.76 684.725 42.168C684.605 42.576 684.545 43.05 684.545 43.59C684.545 44.634 684.791 45.462 685.283 46.074C685.775 46.674 686.477 46.974 687.389 46.974C687.689 46.974 687.995 46.926 688.307 46.83C688.631 46.734 688.955 46.566 689.279 46.326C689.411 46.23 689.537 46.188 689.657 46.2C689.777 46.212 689.879 46.26 689.963 46.344C690.047 46.416 690.101 46.512 690.125 46.632C690.161 46.752 690.161 46.872 690.125 46.992C690.089 47.1 690.011 47.196 689.891 47.28C689.507 47.592 689.087 47.82 688.631 47.964C688.175 48.096 687.731 48.162 687.299 48.162ZM695.019 48.162C694.311 48.162 693.723 48.036 693.255 47.784C692.799 47.52 692.451 47.13 692.211 46.614C691.983 46.098 691.869 45.456 691.869 44.688V39.864C691.869 39.612 691.929 39.426 692.049 39.306C692.181 39.186 692.361 39.126 692.589 39.126C692.829 39.126 693.009 39.186 693.129 39.306C693.261 39.426 693.327 39.612 693.327 39.864V44.67C693.327 45.438 693.483 46.014 693.795 46.398C694.119 46.77 694.623 46.956 695.307 46.956C696.051 46.956 696.657 46.704 697.125 46.2C697.593 45.696 697.827 45.036 697.827 44.22V39.864C697.827 39.612 697.887 39.426 698.007 39.306C698.139 39.186 698.325 39.126 698.565 39.126C698.793 39.126 698.967 39.186 699.087 39.306C699.219 39.426 699.285 39.612 699.285 39.864V47.37C699.285 47.874 699.051 48.126 698.583 48.126C698.355 48.126 698.175 48.06 698.043 47.928C697.923 47.796 697.863 47.61 697.863 47.37V45.732L698.097 45.984C697.857 46.692 697.461 47.232 696.909 47.604C696.369 47.976 695.739 48.162 695.019 48.162ZM705.955 48.162C705.031 48.162 704.233 47.982 703.561 47.622C702.901 47.25 702.385 46.728 702.013 46.056C701.653 45.384 701.473 44.58 701.473 43.644C701.473 42.732 701.653 41.94 702.013 41.268C702.373 40.584 702.865 40.05 703.489 39.666C704.125 39.282 704.857 39.09 705.685 39.09C706.273 39.09 706.801 39.192 707.269 39.396C707.737 39.588 708.133 39.87 708.457 40.242C708.793 40.614 709.045 41.064 709.213 41.592C709.393 42.12 709.483 42.714 709.483 43.374C709.483 43.566 709.429 43.71 709.321 43.806C709.213 43.89 709.057 43.932 708.853 43.932H702.589V42.978H708.511L708.223 43.212C708.223 42.564 708.127 42.018 707.935 41.574C707.743 41.118 707.461 40.77 707.089 40.53C706.729 40.29 706.273 40.17 705.721 40.17C705.109 40.17 704.587 40.314 704.155 40.602C703.735 40.878 703.417 41.268 703.201 41.772C702.985 42.264 702.877 42.84 702.877 43.5V43.608C702.877 44.712 703.141 45.552 703.669 46.128C704.209 46.704 704.971 46.992 705.955 46.992C706.363 46.992 706.765 46.938 707.161 46.83C707.569 46.722 707.965 46.542 708.349 46.29C708.517 46.182 708.667 46.134 708.799 46.146C708.943 46.146 709.057 46.188 709.141 46.272C709.225 46.344 709.279 46.44 709.303 46.56C709.339 46.668 709.327 46.788 709.267 46.92C709.219 47.052 709.117 47.166 708.961 47.262C708.565 47.55 708.097 47.772 707.557 47.928C707.017 48.084 706.483 48.162 705.955 48.162ZM712.313 48.126C712.073 48.126 711.893 48.06 711.773 47.928C711.653 47.796 711.593 47.61 711.593 47.37V39.864C711.593 39.624 711.653 39.444 711.773 39.324C711.893 39.192 712.067 39.126 712.295 39.126C712.523 39.126 712.697 39.192 712.817 39.324C712.949 39.444 713.015 39.624 713.015 39.864V41.412L712.817 41.196C713.069 40.5 713.477 39.978 714.041 39.63C714.617 39.27 715.277 39.09 716.021 39.09C716.717 39.09 717.293 39.216 717.749 39.468C718.217 39.72 718.565 40.104 718.793 40.62C719.021 41.124 719.135 41.766 719.135 42.546V47.37C719.135 47.61 719.069 47.796 718.937 47.928C718.817 48.06 718.643 48.126 718.415 48.126C718.175 48.126 717.989 48.06 717.857 47.928C717.737 47.796 717.677 47.61 717.677 47.37V42.636C717.677 41.82 717.515 41.226 717.191 40.854C716.879 40.47 716.375 40.278 715.679 40.278C714.875 40.278 714.233 40.53 713.753 41.034C713.285 41.526 713.051 42.186 713.051 43.014V47.37C713.051 47.874 712.805 48.126 712.313 48.126ZM725.333 48.162C724.649 48.162 724.073 48.042 723.605 47.802C723.149 47.55 722.807 47.19 722.579 46.722C722.351 46.242 722.237 45.66 722.237 44.976V40.386H721.031C720.827 40.386 720.671 40.338 720.563 40.242C720.455 40.134 720.401 39.99 720.401 39.81C720.401 39.63 720.455 39.492 720.563 39.396C720.671 39.3 720.827 39.252 721.031 39.252H722.237V37.182C722.237 36.942 722.303 36.762 722.435 36.642C722.567 36.51 722.747 36.444 722.975 36.444C723.203 36.444 723.377 36.51 723.497 36.642C723.629 36.762 723.695 36.942 723.695 37.182V39.252H725.963C726.167 39.252 726.323 39.3 726.431 39.396C726.539 39.492 726.593 39.63 726.593 39.81C726.593 39.99 726.539 40.134 726.431 40.242C726.323 40.338 726.167 40.386 725.963 40.386H723.695V44.832C723.695 45.516 723.839 46.038 724.127 46.398C724.415 46.746 724.883 46.92 725.531 46.92C725.759 46.92 725.951 46.896 726.107 46.848C726.275 46.8 726.413 46.776 726.521 46.776C726.629 46.764 726.719 46.8 726.791 46.884C726.863 46.968 726.899 47.112 726.899 47.316C726.899 47.46 726.869 47.592 726.809 47.712C726.761 47.832 726.671 47.916 726.539 47.964C726.395 48.012 726.203 48.054 725.963 48.09C725.735 48.138 725.525 48.162 725.333 48.162ZM730.87 48.162C730.27 48.162 729.73 48.048 729.25 47.82C728.782 47.58 728.41 47.256 728.134 46.848C727.858 46.44 727.72 45.984 727.72 45.48C727.72 44.832 727.882 44.322 728.206 43.95C728.542 43.578 729.088 43.314 729.844 43.158C730.612 43.002 731.656 42.924 732.976 42.924H733.786V43.878H732.994C732.022 43.878 731.254 43.926 730.69 44.022C730.138 44.106 729.748 44.256 729.52 44.472C729.304 44.688 729.196 44.994 729.196 45.39C729.196 45.882 729.364 46.284 729.7 46.596C730.048 46.908 730.516 47.064 731.104 47.064C731.584 47.064 732.004 46.95 732.364 46.722C732.736 46.494 733.024 46.182 733.228 45.786C733.444 45.39 733.552 44.934 733.552 44.418V42.366C733.552 41.622 733.402 41.088 733.102 40.764C732.802 40.428 732.31 40.26 731.626 40.26C731.206 40.26 730.786 40.314 730.366 40.422C729.946 40.53 729.502 40.704 729.034 40.944C728.866 41.028 728.722 41.058 728.602 41.034C728.482 40.998 728.386 40.932 728.314 40.836C728.242 40.74 728.2 40.632 728.188 40.512C728.176 40.38 728.2 40.254 728.26 40.134C728.332 40.014 728.44 39.918 728.584 39.846C729.112 39.582 729.634 39.39 730.15 39.27C730.666 39.15 731.158 39.09 731.626 39.09C732.382 39.09 733.006 39.216 733.498 39.468C733.99 39.708 734.356 40.08 734.596 40.584C734.836 41.076 734.956 41.712 734.956 42.492V47.37C734.956 47.61 734.896 47.796 734.776 47.928C734.668 48.06 734.506 48.126 734.29 48.126C734.062 48.126 733.888 48.06 733.768 47.928C733.648 47.796 733.588 47.61 733.588 47.37V45.966H733.75C733.654 46.422 733.468 46.812 733.192 47.136C732.928 47.46 732.598 47.712 732.202 47.892C731.806 48.072 731.362 48.162 730.87 48.162Z" fill="#38485C"/>
<rect x="757" y="22" width="48" height="40" rx="8" fill="white"/>
<path d="M781 51.75C781.53 51.7484 782.038 51.5372 782.412 51.1625C782.787 50.7877 782.998 50.2799 783 49.75H779C779 50.2804 779.211 50.7891 779.586 51.1642C779.961 51.5393 780.47 51.75 781 51.75ZM787 45.75V40.75C787 37.68 785.36 35.11 782.5 34.43V33.75C782.5 33.3522 782.342 32.9706 782.061 32.6893C781.779 32.408 781.398 32.25 781 32.25C780.602 32.25 780.221 32.408 779.939 32.6893C779.658 32.9706 779.5 33.3522 779.5 33.75V34.43C776.63 35.11 775 37.67 775 40.75V45.75L773.71 47.04C773.57 47.1793 773.474 47.3571 773.434 47.5509C773.395 47.7447 773.414 47.9458 773.489 48.1288C773.564 48.3119 773.691 48.4686 773.855 48.5792C774.019 48.6897 774.212 48.7492 774.41 48.75H787.58C787.779 48.7512 787.973 48.6931 788.139 48.5833C788.304 48.4735 788.433 48.3169 788.509 48.1335C788.586 47.95 788.605 47.7481 788.566 47.5533C788.527 47.3586 788.431 47.1799 788.29 47.04L787 45.75Z" fill="#38485C"/>
<rect x="812" y="21" width="342" height="42" rx="9" fill="#F3F6F9"/>
<path d="M826.562 36.5781H829.797C831.224 36.5781 832.297 36.7917 833.016 37.2188C833.734 37.6458 834.094 38.3724 834.094 39.3984C834.094 39.8411 834.008 40.2396 833.836 40.5938C833.669 40.9427 833.424 41.2318 833.102 41.4609C832.779 41.6901 832.38 41.849 831.906 41.9375V42.0156C832.406 42.0938 832.849 42.237 833.234 42.4453C833.62 42.6536 833.922 42.9453 834.141 43.3203C834.359 43.6953 834.469 44.1719 834.469 44.75C834.469 45.4531 834.305 46.0469 833.977 46.5312C833.654 47.0156 833.195 47.3828 832.602 47.6328C832.008 47.8776 831.305 48 830.492 48H826.562V36.5781ZM827.891 41.4766H830.078C831.073 41.4766 831.76 41.3125 832.141 40.9844C832.526 40.6562 832.719 40.1771 832.719 39.5469C832.719 38.8958 832.49 38.4271 832.031 38.1406C831.578 37.8542 830.854 37.7109 829.859 37.7109H827.891V41.4766ZM827.891 42.5938V46.8672H830.266C831.281 46.8672 832 46.6693 832.422 46.2734C832.844 45.8724 833.055 45.3333 833.055 44.6562C833.055 44.224 832.958 43.8542 832.766 43.5469C832.578 43.2396 832.271 43.0052 831.844 42.8438C831.422 42.6771 830.857 42.5938 830.148 42.5938H827.891ZM843.781 39.4375V48H842.719L842.531 46.7969H842.461C842.284 47.0938 842.055 47.3438 841.773 47.5469C841.492 47.75 841.174 47.901 840.82 48C840.471 48.1042 840.099 48.1562 839.703 48.1562C839.026 48.1562 838.458 48.0469 838 47.8281C837.542 47.6094 837.195 47.2708 836.961 46.8125C836.732 46.3542 836.617 45.7656 836.617 45.0469V39.4375H837.93V44.9531C837.93 45.6667 838.091 46.2005 838.414 46.5547C838.737 46.9036 839.229 47.0781 839.891 47.0781C840.526 47.0781 841.031 46.9583 841.406 46.7188C841.786 46.4792 842.06 46.1276 842.227 45.6641C842.393 45.1953 842.477 44.6224 842.477 43.9453V39.4375H843.781ZM852.062 45.6562C852.062 46.2031 851.924 46.6641 851.648 47.0391C851.378 47.4089 850.987 47.6875 850.477 47.875C849.971 48.0625 849.367 48.1562 848.664 48.1562C848.065 48.1562 847.547 48.1094 847.109 48.0156C846.672 47.9219 846.289 47.7891 845.961 47.6172V46.4219C846.31 46.5938 846.727 46.75 847.211 46.8906C847.695 47.0312 848.19 47.1016 848.695 47.1016C849.435 47.1016 849.971 46.9818 850.305 46.7422C850.638 46.5026 850.805 46.1771 850.805 45.7656C850.805 45.5312 850.737 45.3255 850.602 45.1484C850.471 44.9661 850.25 44.7917 849.938 44.625C849.625 44.4531 849.193 44.2656 848.641 44.0625C848.094 43.8542 847.62 43.6484 847.219 43.4453C846.823 43.237 846.516 42.9844 846.297 42.6875C846.083 42.3906 845.977 42.0052 845.977 41.5312C845.977 40.8073 846.268 40.2526 846.852 39.8672C847.44 39.4766 848.211 39.2812 849.164 39.2812C849.68 39.2812 850.161 39.3333 850.609 39.4375C851.062 39.5365 851.484 39.6719 851.875 39.8438L851.438 40.8828C851.083 40.7318 850.706 40.6042 850.305 40.5C849.904 40.3958 849.495 40.3438 849.078 40.3438C848.479 40.3438 848.018 40.4427 847.695 40.6406C847.378 40.8385 847.219 41.1094 847.219 41.4531C847.219 41.7188 847.292 41.9375 847.438 42.1094C847.589 42.2812 847.828 42.4427 848.156 42.5938C848.484 42.7448 848.917 42.9219 849.453 43.125C849.99 43.3229 850.453 43.5286 850.844 43.7422C851.234 43.9505 851.534 44.2057 851.742 44.5078C851.956 44.8047 852.062 45.1875 852.062 45.6562ZM857.578 48.1562C856.807 48.1562 856.128 47.9974 855.539 47.6797C854.951 47.362 854.492 46.8776 854.164 46.2266C853.836 45.5755 853.672 44.7552 853.672 43.7656C853.672 42.7292 853.844 41.8828 854.188 41.2266C854.536 40.5651 855.016 40.0755 855.625 39.7578C856.234 39.4401 856.927 39.2812 857.703 39.2812C858.13 39.2812 858.542 39.3255 858.938 39.4141C859.339 39.4974 859.667 39.6042 859.922 39.7344L859.531 40.8203C859.271 40.7161 858.969 40.6224 858.625 40.5391C858.286 40.4557 857.969 40.4141 857.672 40.4141C857.078 40.4141 856.583 40.5417 856.188 40.7969C855.797 41.0521 855.503 41.4271 855.305 41.9219C855.112 42.4167 855.016 43.026 855.016 43.75C855.016 44.4427 855.109 45.0339 855.297 45.5234C855.49 46.013 855.773 46.388 856.148 46.6484C856.529 46.9036 857.003 47.0312 857.57 47.0312C858.023 47.0312 858.432 46.9844 858.797 46.8906C859.161 46.7917 859.492 46.6771 859.789 46.5469V47.7031C859.503 47.849 859.182 47.9609 858.828 48.0391C858.479 48.1172 858.062 48.1562 857.578 48.1562ZM865.023 39.2969C866.044 39.2969 866.802 39.526 867.297 39.9844C867.792 40.4427 868.039 41.1745 868.039 42.1797V48H867.094L866.844 46.7344H866.781C866.542 47.0469 866.292 47.3099 866.031 47.5234C865.771 47.7318 865.469 47.8906 865.125 48C864.786 48.1042 864.37 48.1562 863.875 48.1562C863.354 48.1562 862.891 48.0651 862.484 47.8828C862.083 47.7005 861.766 47.4245 861.531 47.0547C861.302 46.6849 861.188 46.2161 861.188 45.6484C861.188 44.7943 861.526 44.138 862.203 43.6797C862.88 43.2214 863.911 42.9714 865.297 42.9297L866.773 42.8672V42.3438C866.773 41.6042 866.615 41.0859 866.297 40.7891C865.979 40.4922 865.531 40.3438 864.953 40.3438C864.505 40.3438 864.078 40.4089 863.672 40.5391C863.266 40.6693 862.88 40.8229 862.516 41L862.117 40.0156C862.503 39.8177 862.945 39.6484 863.445 39.5078C863.945 39.3672 864.471 39.2969 865.023 39.2969ZM866.758 43.7812L865.453 43.8359C864.385 43.8776 863.633 44.0521 863.195 44.3594C862.758 44.6667 862.539 45.1016 862.539 45.6641C862.539 46.1536 862.688 46.5156 862.984 46.75C863.281 46.9844 863.674 47.1016 864.164 47.1016C864.924 47.1016 865.547 46.8906 866.031 46.4688C866.516 46.0469 866.758 45.4141 866.758 44.5703V43.7812ZM874.602 39.2812C874.773 39.2812 874.953 39.2917 875.141 39.3125C875.328 39.3281 875.495 39.3516 875.641 39.3828L875.477 40.5859C875.336 40.5495 875.18 40.5208 875.008 40.5C874.836 40.4792 874.674 40.4688 874.523 40.4688C874.18 40.4688 873.854 40.5391 873.547 40.6797C873.245 40.8151 872.979 41.013 872.75 41.2734C872.521 41.5286 872.341 41.8385 872.211 42.2031C872.081 42.5625 872.016 42.9635 872.016 43.4062V48H870.711V39.4375H871.789L871.93 41.0156H871.984C872.161 40.6979 872.375 40.4089 872.625 40.1484C872.875 39.8828 873.164 39.6719 873.492 39.5156C873.826 39.3594 874.195 39.2812 874.602 39.2812ZM884.711 39.2812C885.44 39.2812 886.065 39.4427 886.586 39.7656C887.107 40.0885 887.505 40.5417 887.781 41.125C888.057 41.7031 888.195 42.3802 888.195 43.1562V43.9609H882.281C882.297 44.9661 882.547 45.7318 883.031 46.2578C883.516 46.7839 884.198 47.0469 885.078 47.0469C885.62 47.0469 886.099 46.9974 886.516 46.8984C886.932 46.7995 887.365 46.6536 887.812 46.4609V47.6016C887.38 47.7943 886.951 47.9349 886.523 48.0234C886.102 48.112 885.602 48.1562 885.023 48.1562C884.201 48.1562 883.482 47.9896 882.867 47.6562C882.258 47.3177 881.784 46.8229 881.445 46.1719C881.107 45.5208 880.938 44.724 880.938 43.7812C880.938 42.8594 881.091 42.0625 881.398 41.3906C881.711 40.7135 882.148 40.1927 882.711 39.8281C883.279 39.4635 883.945 39.2812 884.711 39.2812ZM884.695 40.3438C884.003 40.3438 883.451 40.5703 883.039 41.0234C882.628 41.4766 882.383 42.1094 882.305 42.9219H886.836C886.831 42.4115 886.75 41.9635 886.594 41.5781C886.443 41.1875 886.211 40.8854 885.898 40.6719C885.586 40.4531 885.185 40.3438 884.695 40.3438ZM894.453 39.2812C895.469 39.2812 896.237 39.5312 896.758 40.0312C897.279 40.526 897.539 41.3229 897.539 42.4219V48H896.258V42.5078C896.258 41.7943 896.094 41.2604 895.766 40.9062C895.443 40.5521 894.945 40.375 894.273 40.375C893.326 40.375 892.659 40.6432 892.273 41.1797C891.888 41.7161 891.695 42.4948 891.695 43.5156V48H890.398V39.4375H891.445L891.641 40.6719H891.711C891.893 40.3698 892.125 40.1172 892.406 39.9141C892.688 39.7057 893.003 39.5495 893.352 39.4453C893.701 39.3359 894.068 39.2812 894.453 39.2812ZM904.562 36.5781H907.797C909.224 36.5781 910.297 36.7917 911.016 37.2188C911.734 37.6458 912.094 38.3724 912.094 39.3984C912.094 39.8411 912.008 40.2396 911.836 40.5938C911.669 40.9427 911.424 41.2318 911.102 41.4609C910.779 41.6901 910.38 41.849 909.906 41.9375V42.0156C910.406 42.0938 910.849 42.237 911.234 42.4453C911.62 42.6536 911.922 42.9453 912.141 43.3203C912.359 43.6953 912.469 44.1719 912.469 44.75C912.469 45.4531 912.305 46.0469 911.977 46.5312C911.654 47.0156 911.195 47.3828 910.602 47.6328C910.008 47.8776 909.305 48 908.492 48H904.562V36.5781ZM905.891 41.4766H908.078C909.073 41.4766 909.76 41.3125 910.141 40.9844C910.526 40.6562 910.719 40.1771 910.719 39.5469C910.719 38.8958 910.49 38.4271 910.031 38.1406C909.578 37.8542 908.854 37.7109 907.859 37.7109H905.891V41.4766ZM905.891 42.5938V46.8672H908.266C909.281 46.8672 910 46.6693 910.422 46.2734C910.844 45.8724 911.055 45.3333 911.055 44.6562C911.055 44.224 910.958 43.8542 910.766 43.5469C910.578 43.2396 910.271 43.0052 909.844 42.8438C909.422 42.6771 908.857 42.5938 908.148 42.5938H905.891ZM921.781 39.4375V48H920.719L920.531 46.7969H920.461C920.284 47.0938 920.055 47.3438 919.773 47.5469C919.492 47.75 919.174 47.901 918.82 48C918.471 48.1042 918.099 48.1562 917.703 48.1562C917.026 48.1562 916.458 48.0469 916 47.8281C915.542 47.6094 915.195 47.2708 914.961 46.8125C914.732 46.3542 914.617 45.7656 914.617 45.0469V39.4375H915.93V44.9531C915.93 45.6667 916.091 46.2005 916.414 46.5547C916.737 46.9036 917.229 47.0781 917.891 47.0781C918.526 47.0781 919.031 46.9583 919.406 46.7188C919.786 46.4792 920.06 46.1276 920.227 45.6641C920.393 45.1953 920.477 44.6224 920.477 43.9453V39.4375H921.781ZM927.82 39.2812C928.549 39.2812 929.174 39.4427 929.695 39.7656C930.216 40.0885 930.615 40.5417 930.891 41.125C931.167 41.7031 931.305 42.3802 931.305 43.1562V43.9609H925.391C925.406 44.9661 925.656 45.7318 926.141 46.2578C926.625 46.7839 927.307 47.0469 928.188 47.0469C928.729 47.0469 929.208 46.9974 929.625 46.8984C930.042 46.7995 930.474 46.6536 930.922 46.4609V47.6016C930.49 47.7943 930.06 47.9349 929.633 48.0234C929.211 48.112 928.711 48.1562 928.133 48.1562C927.31 48.1562 926.591 47.9896 925.977 47.6562C925.367 47.3177 924.893 46.8229 924.555 46.1719C924.216 45.5208 924.047 44.724 924.047 43.7812C924.047 42.8594 924.201 42.0625 924.508 41.3906C924.82 40.7135 925.258 40.1927 925.82 39.8281C926.388 39.4635 927.055 39.2812 927.82 39.2812ZM927.805 40.3438C927.112 40.3438 926.56 40.5703 926.148 41.0234C925.737 41.4766 925.492 42.1094 925.414 42.9219H929.945C929.94 42.4115 929.859 41.9635 929.703 41.5781C929.552 41.1875 929.32 40.8854 929.008 40.6719C928.695 40.4531 928.294 40.3438 927.805 40.3438ZM937.562 39.2812C938.578 39.2812 939.346 39.5312 939.867 40.0312C940.388 40.526 940.648 41.3229 940.648 42.4219V48H939.367V42.5078C939.367 41.7943 939.203 41.2604 938.875 40.9062C938.552 40.5521 938.055 40.375 937.383 40.375C936.435 40.375 935.768 40.6432 935.383 41.1797C934.997 41.7161 934.805 42.4948 934.805 43.5156V48H933.508V39.4375H934.555L934.75 40.6719H934.82C935.003 40.3698 935.234 40.1172 935.516 39.9141C935.797 39.7057 936.112 39.5495 936.461 39.4453C936.81 39.3359 937.177 39.2812 937.562 39.2812ZM950.703 43.7031C950.703 44.4062 950.612 45.0339 950.43 45.5859C950.247 46.138 949.984 46.6042 949.641 46.9844C949.297 47.3646 948.88 47.6562 948.391 47.8594C947.906 48.0573 947.357 48.1562 946.742 48.1562C946.169 48.1562 945.643 48.0573 945.164 47.8594C944.69 47.6562 944.279 47.3646 943.93 46.9844C943.586 46.6042 943.318 46.138 943.125 45.5859C942.938 45.0339 942.844 44.4062 942.844 43.7031C942.844 42.7656 943.003 41.9688 943.32 41.3125C943.638 40.651 944.091 40.1484 944.68 39.8047C945.273 39.4557 945.979 39.2812 946.797 39.2812C947.578 39.2812 948.26 39.4557 948.844 39.8047C949.432 40.1536 949.888 40.6589 950.211 41.3203C950.539 41.9766 950.703 42.7708 950.703 43.7031ZM944.188 43.7031C944.188 44.3906 944.279 44.987 944.461 45.4922C944.643 45.9974 944.924 46.388 945.305 46.6641C945.685 46.9401 946.174 47.0781 946.773 47.0781C947.367 47.0781 947.854 46.9401 948.234 46.6641C948.62 46.388 948.904 45.9974 949.086 45.4922C949.268 44.987 949.359 44.3906 949.359 43.7031C949.359 43.0208 949.268 42.4323 949.086 41.9375C948.904 41.4375 948.622 41.0521 948.242 40.7812C947.862 40.5104 947.37 40.375 946.766 40.375C945.875 40.375 945.221 40.6693 944.805 41.2578C944.393 41.8464 944.188 42.6615 944.188 43.7031ZM958.484 45.6562C958.484 46.2031 958.346 46.6641 958.07 47.0391C957.799 47.4089 957.409 47.6875 956.898 47.875C956.393 48.0625 955.789 48.1562 955.086 48.1562C954.487 48.1562 953.969 48.1094 953.531 48.0156C953.094 47.9219 952.711 47.7891 952.383 47.6172V46.4219C952.732 46.5938 953.148 46.75 953.633 46.8906C954.117 47.0312 954.612 47.1016 955.117 47.1016C955.857 47.1016 956.393 46.9818 956.727 46.7422C957.06 46.5026 957.227 46.1771 957.227 45.7656C957.227 45.5312 957.159 45.3255 957.023 45.1484C956.893 44.9661 956.672 44.7917 956.359 44.625C956.047 44.4531 955.615 44.2656 955.062 44.0625C954.516 43.8542 954.042 43.6484 953.641 43.4453C953.245 43.237 952.938 42.9844 952.719 42.6875C952.505 42.3906 952.398 42.0052 952.398 41.5312C952.398 40.8073 952.69 40.2526 953.273 39.8672C953.862 39.4766 954.633 39.2812 955.586 39.2812C956.102 39.2812 956.583 39.3333 957.031 39.4375C957.484 39.5365 957.906 39.6719 958.297 39.8438L957.859 40.8828C957.505 40.7318 957.128 40.6042 956.727 40.5C956.326 40.3958 955.917 40.3438 955.5 40.3438C954.901 40.3438 954.44 40.4427 954.117 40.6406C953.799 40.8385 953.641 41.1094 953.641 41.4531C953.641 41.7188 953.714 41.9375 953.859 42.1094C954.01 42.2812 954.25 42.4427 954.578 42.5938C954.906 42.7448 955.339 42.9219 955.875 43.125C956.411 43.3229 956.875 43.5286 957.266 43.7422C957.656 43.9505 957.956 44.2057 958.164 44.5078C958.378 44.8047 958.484 45.1875 958.484 45.6562ZM972.086 48L970.68 44.375H966.102L964.703 48H963.359L967.828 36.5312H969.023L973.461 48H972.086ZM970.281 43.1953L968.945 39.5938C968.914 39.5 968.862 39.3464 968.789 39.1328C968.721 38.9193 968.651 38.6979 968.578 38.4688C968.505 38.2396 968.445 38.0547 968.398 37.9141C968.346 38.1276 968.289 38.3411 968.227 38.5547C968.169 38.763 968.112 38.9583 968.055 39.1406C967.997 39.3177 967.948 39.4688 967.906 39.5938L966.547 43.1953H970.281ZM976.148 39.4375V48H974.852V39.4375H976.148ZM975.516 36.2344C975.729 36.2344 975.911 36.3047 976.062 36.4453C976.219 36.5807 976.297 36.7943 976.297 37.0859C976.297 37.3724 976.219 37.5859 976.062 37.7266C975.911 37.8672 975.729 37.9375 975.516 37.9375C975.292 37.9375 975.104 37.8672 974.953 37.7266C974.807 37.5859 974.734 37.3724 974.734 37.0859C974.734 36.7943 974.807 36.5807 974.953 36.4453C975.104 36.3047 975.292 36.2344 975.516 36.2344ZM982.789 39.2812C982.961 39.2812 983.141 39.2917 983.328 39.3125C983.516 39.3281 983.682 39.3516 983.828 39.3828L983.664 40.5859C983.523 40.5495 983.367 40.5208 983.195 40.5C983.023 40.4792 982.862 40.4688 982.711 40.4688C982.367 40.4688 982.042 40.5391 981.734 40.6797C981.432 40.8151 981.167 41.013 980.938 41.2734C980.708 41.5286 980.529 41.8385 980.398 42.2031C980.268 42.5625 980.203 42.9635 980.203 43.4062V48H978.898V39.4375H979.977L980.117 41.0156H980.172C980.349 40.6979 980.562 40.4089 980.812 40.1484C981.062 39.8828 981.352 39.6719 981.68 39.5156C982.013 39.3594 982.383 39.2812 982.789 39.2812ZM988.742 39.2812C989.471 39.2812 990.096 39.4427 990.617 39.7656C991.138 40.0885 991.536 40.5417 991.812 41.125C992.089 41.7031 992.227 42.3802 992.227 43.1562V43.9609H986.312C986.328 44.9661 986.578 45.7318 987.062 46.2578C987.547 46.7839 988.229 47.0469 989.109 47.0469C989.651 47.0469 990.13 46.9974 990.547 46.8984C990.964 46.7995 991.396 46.6536 991.844 46.4609V47.6016C991.411 47.7943 990.982 47.9349 990.555 48.0234C990.133 48.112 989.633 48.1562 989.055 48.1562C988.232 48.1562 987.513 47.9896 986.898 47.6562C986.289 47.3177 985.815 46.8229 985.477 46.1719C985.138 45.5208 984.969 44.724 984.969 43.7812C984.969 42.8594 985.122 42.0625 985.43 41.3906C985.742 40.7135 986.18 40.1927 986.742 39.8281C987.31 39.4635 987.977 39.2812 988.742 39.2812ZM988.727 40.3438C988.034 40.3438 987.482 40.5703 987.07 41.0234C986.659 41.4766 986.414 42.1094 986.336 42.9219H990.867C990.862 42.4115 990.781 41.9635 990.625 41.5781C990.474 41.1875 990.242 40.8854 989.93 40.6719C989.617 40.4531 989.216 40.3438 988.727 40.3438ZM999.969 45.6562C999.969 46.2031 999.831 46.6641 999.555 47.0391C999.284 47.4089 998.893 47.6875 998.383 47.875C997.878 48.0625 997.273 48.1562 996.57 48.1562C995.971 48.1562 995.453 48.1094 995.016 48.0156C994.578 47.9219 994.195 47.7891 993.867 47.6172V46.4219C994.216 46.5938 994.633 46.75 995.117 46.8906C995.602 47.0312 996.096 47.1016 996.602 47.1016C997.341 47.1016 997.878 46.9818 998.211 46.7422C998.544 46.5026 998.711 46.1771 998.711 45.7656C998.711 45.5312 998.643 45.3255 998.508 45.1484C998.378 44.9661 998.156 44.7917 997.844 44.625C997.531 44.4531 997.099 44.2656 996.547 44.0625C996 43.8542 995.526 43.6484 995.125 43.4453C994.729 43.237 994.422 42.9844 994.203 42.6875C993.99 42.3906 993.883 42.0052 993.883 41.5312C993.883 40.8073 994.174 40.2526 994.758 39.8672C995.346 39.4766 996.117 39.2812 997.07 39.2812C997.586 39.2812 998.068 39.3333 998.516 39.4375C998.969 39.5365 999.391 39.6719 999.781 39.8438L999.344 40.8828C998.99 40.7318 998.612 40.6042 998.211 40.5C997.81 40.3958 997.401 40.3438 996.984 40.3438C996.385 40.3438 995.924 40.4427 995.602 40.6406C995.284 40.8385 995.125 41.1094 995.125 41.4531C995.125 41.7188 995.198 41.9375 995.344 42.1094C995.495 42.2812 995.734 42.4427 996.062 42.5938C996.391 42.7448 996.823 42.9219 997.359 43.125C997.896 43.3229 998.359 43.5286 998.75 43.7422C999.141 43.9505 999.44 44.2057 999.648 44.5078C999.862 44.8047 999.969 45.1875 999.969 45.6562ZM1001.86 47.1875C1001.86 46.8229 1001.95 46.5651 1002.12 46.4141C1002.3 46.2578 1002.52 46.1797 1002.77 46.1797C1003.04 46.1797 1003.26 46.2578 1003.45 46.4141C1003.63 46.5651 1003.72 46.8229 1003.72 47.1875C1003.72 47.5469 1003.63 47.8099 1003.45 47.9766C1003.26 48.138 1003.04 48.2188 1002.77 48.2188C1002.52 48.2188 1002.3 48.138 1002.12 47.9766C1001.95 47.8099 1001.86 47.5469 1001.86 47.1875ZM1006.06 47.1875C1006.06 46.8229 1006.15 46.5651 1006.33 46.4141C1006.51 46.2578 1006.72 46.1797 1006.98 46.1797C1007.24 46.1797 1007.47 46.2578 1007.65 46.4141C1007.83 46.5651 1007.92 46.8229 1007.92 47.1875C1007.92 47.5469 1007.83 47.8099 1007.65 47.9766C1007.47 48.138 1007.24 48.2188 1006.98 48.2188C1006.72 48.2188 1006.51 48.138 1006.33 47.9766C1006.15 47.8099 1006.06 47.5469 1006.06 47.1875ZM1010.27 47.1875C1010.27 46.8229 1010.35 46.5651 1010.53 46.4141C1010.71 46.2578 1010.92 46.1797 1011.18 46.1797C1011.45 46.1797 1011.67 46.2578 1011.85 46.4141C1012.03 46.5651 1012.12 46.8229 1012.12 47.1875C1012.12 47.5469 1012.03 47.8099 1011.85 47.9766C1011.67 48.138 1011.45 48.2188 1011.18 48.2188C1010.92 48.2188 1010.71 48.138 1010.53 47.9766C1010.35 47.8099 1010.27 47.5469 1010.27 47.1875Z" fill="#9EAAB8"/>
<g clip-path="url(#clip1_700_12107)">
<path d="M1127.98 48.968C1129.75 48.9676 1131.47 48.3749 1132.87 47.284L1137.26 51.67L1138.67 50.26L1134.28 45.873C1135.38 44.447 1135.97 42.69 1135.95 40.8883C1135.92 39.0866 1135.29 37.3464 1134.15 35.9512C1133.01 34.5561 1131.43 33.5882 1129.67 33.2052C1127.91 32.8223 1126.07 33.0469 1124.45 33.8424C1122.83 34.6379 1121.53 35.9575 1120.76 37.5862C1119.99 39.2148 1119.8 41.0565 1120.21 42.8112C1120.62 44.5659 1121.61 46.1301 1123.02 47.249C1124.43 48.3679 1126.18 48.9756 1127.98 48.973L1127.98 48.968ZM1127.98 35C1129.17 34.9992 1130.33 35.3498 1131.31 36.0075C1132.3 36.6652 1133.07 37.6003 1133.52 38.6947C1133.97 39.789 1134.09 40.9933 1133.86 42.1552C1133.63 43.3172 1133.06 44.3845 1132.22 45.2222C1131.38 46.0598 1130.32 46.6302 1129.16 46.8611C1127.99 47.0921 1126.79 46.9731 1125.69 46.5194C1124.6 46.0657 1123.67 45.2976 1123.01 44.3123C1122.35 43.3269 1122 42.1687 1122 40.984C1122 39.3978 1122.63 37.8772 1123.76 36.7556C1124.88 35.634 1126.4 35.0027 1127.98 35V35Z" fill="#38485C"/>
</g>
<rect x="812" y="21" width="342" height="42" rx="9" stroke="#E6EBF0" stroke-width="2"/>
<path d="M1190.03 34.8466H1196.03C1196.3 34.8466 1196.55 34.7441 1196.74 34.5616C1196.93 34.3791 1197.03 34.1316 1197.03 33.8736C1197.03 33.6155 1196.93 33.3681 1196.74 33.1856C1196.55 33.0031 1196.3 32.9006 1196.03 32.9006H1190.03C1189.5 32.9021 1189 33.1077 1188.62 33.4723C1188.25 33.8369 1188.03 34.331 1188.03 34.8466V48.4684C1188.03 48.9841 1188.25 49.4781 1188.62 49.8428C1189 50.2074 1189.5 50.4129 1190.03 50.4144H1196.03C1196.3 50.4144 1196.55 50.3119 1196.74 50.1294C1196.93 49.9469 1197.03 49.6995 1197.03 49.4414C1197.03 49.1834 1196.93 48.9359 1196.74 48.7534C1196.55 48.571 1196.3 48.4684 1196.03 48.4684H1190.03V34.8466Z" fill="#C93B3B"/>
<path d="M1205.69 41.317L1202.9 38.6023C1202.83 38.5323 1202.74 38.4841 1202.64 38.464C1202.54 38.4439 1202.44 38.4526 1202.35 38.4893C1202.26 38.5259 1202.18 38.5887 1202.12 38.6696C1202.07 38.7504 1202.04 38.8457 1202.04 38.9429V40.6845H1195.04C1194.77 40.6845 1194.52 40.787 1194.33 40.9695C1194.14 41.152 1194.04 41.3995 1194.04 41.6575C1194.04 41.9156 1194.14 42.163 1194.33 42.3455C1194.52 42.528 1194.77 42.6305 1195.04 42.6305H1202.04V44.3721C1202.04 44.4673 1202.07 44.5601 1202.12 44.6388C1202.18 44.7176 1202.26 44.7789 1202.35 44.8151C1202.44 44.8514 1202.54 44.861 1202.63 44.8428C1202.73 44.8246 1202.82 44.7794 1202.89 44.7127L1205.68 41.998C1205.72 41.9541 1205.76 41.9017 1205.79 41.8436C1205.81 41.7855 1205.83 41.7229 1205.83 41.6595C1205.83 41.5962 1205.82 41.5333 1205.79 41.4745C1205.77 41.4157 1205.73 41.3621 1205.69 41.317V41.317Z" fill="#C93B3B"/>
<rect x="1170" y="21.3241" width="54" height="41.3517" rx="7" stroke="#C93B3B" stroke-width="2"/>
<line x1="-1.75853e-09" y1="85" x2="1366" y2="85" stroke="#007BC7" stroke-width="2"/>
<defs>
<clipPath id="clip0_700_12107">
<rect width="76" height="40.8804" fill="white" transform="translate(143 21)"/>
</clipPath>
<clipPath id="clip1_700_12107">
<rect width="24" height="24" fill="white" transform="translate(1117 30)"/>
</clipPath>
</defs>
</svg>
