<svg width="360" height="68" viewBox="0 0 360 68" fill="none" xmlns="http://www.w3.org/2000/svg">
<rect width="360" height="66" fill="white"/>
<rect x="15" y="12" width="50" height="42" rx="9" fill="white"/>
<path d="M46.7912 32.005H35.6212L40.5012 27.125C40.8912 26.735 40.8912 26.095 40.5012 25.705C40.1112 25.315 39.4812 25.315 39.0912 25.705L32.5012 32.295C32.1112 32.685 32.1112 33.315 32.5012 33.705L39.0912 40.295C39.4812 40.685 40.1112 40.685 40.5012 40.295C40.8912 39.905 40.8912 39.275 40.5012 38.885L35.6212 34.005H46.7912C47.3412 34.005 47.7912 33.555 47.7912 33.005C47.7912 32.455 47.3412 32.005 46.7912 32.005Z" fill="#38485C"/>
<rect x="15" y="12" width="50" height="42" rx="9" stroke="#E6EBF0" stroke-width="2"/>
<rect x="71" y="12" width="274" height="42" rx="9" fill="#F3F6F9"/>
<path d="M85.5625 27.5781H88.7969C90.224 27.5781 91.2969 27.7917 92.0156 28.2188C92.7344 28.6458 93.0938 29.3724 93.0938 30.3984C93.0938 30.8411 93.0078 31.2396 92.8359 31.5938C92.6693 31.9427 92.4245 32.2318 92.1016 32.4609C91.7786 32.6901 91.3802 32.849 90.9062 32.9375V33.0156C91.4062 33.0938 91.849 33.237 92.2344 33.4453C92.6198 33.6536 92.9219 33.9453 93.1406 34.3203C93.3594 34.6953 93.4688 35.1719 93.4688 35.75C93.4688 36.4531 93.3047 37.0469 92.9766 37.5312C92.6536 38.0156 92.1953 38.3828 91.6016 38.6328C91.0078 38.8776 90.3047 39 89.4922 39H85.5625V27.5781ZM86.8906 32.4766H89.0781C90.0729 32.4766 90.7604 32.3125 91.1406 31.9844C91.526 31.6562 91.7188 31.1771 91.7188 30.5469C91.7188 29.8958 91.4896 29.4271 91.0312 29.1406C90.5781 28.8542 89.8542 28.7109 88.8594 28.7109H86.8906V32.4766ZM86.8906 33.5938V37.8672H89.2656C90.2812 37.8672 91 37.6693 91.4219 37.2734C91.8438 36.8724 92.0547 36.3333 92.0547 35.6562C92.0547 35.224 91.9583 34.8542 91.7656 34.5469C91.5781 34.2396 91.2708 34.0052 90.8438 33.8438C90.4219 33.6771 89.8568 33.5938 89.1484 33.5938H86.8906ZM102.781 30.4375V39H101.719L101.531 37.7969H101.461C101.284 38.0938 101.055 38.3438 100.773 38.5469C100.492 38.75 100.174 38.901 99.8203 39C99.4714 39.1042 99.099 39.1562 98.7031 39.1562C98.026 39.1562 97.4583 39.0469 97 38.8281C96.5417 38.6094 96.1953 38.2708 95.9609 37.8125C95.7318 37.3542 95.6172 36.7656 95.6172 36.0469V30.4375H96.9297V35.9531C96.9297 36.6667 97.0911 37.2005 97.4141 37.5547C97.737 37.9036 98.2292 38.0781 98.8906 38.0781C99.526 38.0781 100.031 37.9583 100.406 37.7188C100.786 37.4792 101.06 37.1276 101.227 36.6641C101.393 36.1953 101.477 35.6224 101.477 34.9453V30.4375H102.781ZM111.062 36.6562C111.062 37.2031 110.924 37.6641 110.648 38.0391C110.378 38.4089 109.987 38.6875 109.477 38.875C108.971 39.0625 108.367 39.1562 107.664 39.1562C107.065 39.1562 106.547 39.1094 106.109 39.0156C105.672 38.9219 105.289 38.7891 104.961 38.6172V37.4219C105.31 37.5938 105.727 37.75 106.211 37.8906C106.695 38.0312 107.19 38.1016 107.695 38.1016C108.435 38.1016 108.971 37.9818 109.305 37.7422C109.638 37.5026 109.805 37.1771 109.805 36.7656C109.805 36.5312 109.737 36.3255 109.602 36.1484C109.471 35.9661 109.25 35.7917 108.938 35.625C108.625 35.4531 108.193 35.2656 107.641 35.0625C107.094 34.8542 106.62 34.6484 106.219 34.4453C105.823 34.237 105.516 33.9844 105.297 33.6875C105.083 33.3906 104.977 33.0052 104.977 32.5312C104.977 31.8073 105.268 31.2526 105.852 30.8672C106.44 30.4766 107.211 30.2812 108.164 30.2812C108.68 30.2812 109.161 30.3333 109.609 30.4375C110.062 30.5365 110.484 30.6719 110.875 30.8438L110.438 31.8828C110.083 31.7318 109.706 31.6042 109.305 31.5C108.904 31.3958 108.495 31.3438 108.078 31.3438C107.479 31.3438 107.018 31.4427 106.695 31.6406C106.378 31.8385 106.219 32.1094 106.219 32.4531C106.219 32.7188 106.292 32.9375 106.438 33.1094C106.589 33.2812 106.828 33.4427 107.156 33.5938C107.484 33.7448 107.917 33.9219 108.453 34.125C108.99 34.3229 109.453 34.5286 109.844 34.7422C110.234 34.9505 110.534 35.2057 110.742 35.5078C110.956 35.8047 111.062 36.1875 111.062 36.6562ZM116.578 39.1562C115.807 39.1562 115.128 38.9974 114.539 38.6797C113.951 38.362 113.492 37.8776 113.164 37.2266C112.836 36.5755 112.672 35.7552 112.672 34.7656C112.672 33.7292 112.844 32.8828 113.188 32.2266C113.536 31.5651 114.016 31.0755 114.625 30.7578C115.234 30.4401 115.927 30.2812 116.703 30.2812C117.13 30.2812 117.542 30.3255 117.938 30.4141C118.339 30.4974 118.667 30.6042 118.922 30.7344L118.531 31.8203C118.271 31.7161 117.969 31.6224 117.625 31.5391C117.286 31.4557 116.969 31.4141 116.672 31.4141C116.078 31.4141 115.583 31.5417 115.188 31.7969C114.797 32.0521 114.503 32.4271 114.305 32.9219C114.112 33.4167 114.016 34.026 114.016 34.75C114.016 35.4427 114.109 36.0339 114.297 36.5234C114.49 37.013 114.773 37.388 115.148 37.6484C115.529 37.9036 116.003 38.0312 116.57 38.0312C117.023 38.0312 117.432 37.9844 117.797 37.8906C118.161 37.7917 118.492 37.6771 118.789 37.5469V38.7031C118.503 38.849 118.182 38.9609 117.828 39.0391C117.479 39.1172 117.062 39.1562 116.578 39.1562ZM124.023 30.2969C125.044 30.2969 125.802 30.526 126.297 30.9844C126.792 31.4427 127.039 32.1745 127.039 33.1797V39H126.094L125.844 37.7344H125.781C125.542 38.0469 125.292 38.3099 125.031 38.5234C124.771 38.7318 124.469 38.8906 124.125 39C123.786 39.1042 123.37 39.1562 122.875 39.1562C122.354 39.1562 121.891 39.0651 121.484 38.8828C121.083 38.7005 120.766 38.4245 120.531 38.0547C120.302 37.6849 120.188 37.2161 120.188 36.6484C120.188 35.7943 120.526 35.138 121.203 34.6797C121.88 34.2214 122.911 33.9714 124.297 33.9297L125.773 33.8672V33.3438C125.773 32.6042 125.615 32.0859 125.297 31.7891C124.979 31.4922 124.531 31.3438 123.953 31.3438C123.505 31.3438 123.078 31.4089 122.672 31.5391C122.266 31.6693 121.88 31.8229 121.516 32L121.117 31.0156C121.503 30.8177 121.945 30.6484 122.445 30.5078C122.945 30.3672 123.471 30.2969 124.023 30.2969ZM125.758 34.7812L124.453 34.8359C123.385 34.8776 122.633 35.0521 122.195 35.3594C121.758 35.6667 121.539 36.1016 121.539 36.6641C121.539 37.1536 121.688 37.5156 121.984 37.75C122.281 37.9844 122.674 38.1016 123.164 38.1016C123.924 38.1016 124.547 37.8906 125.031 37.4688C125.516 37.0469 125.758 36.4141 125.758 35.5703V34.7812ZM133.602 30.2812C133.773 30.2812 133.953 30.2917 134.141 30.3125C134.328 30.3281 134.495 30.3516 134.641 30.3828L134.477 31.5859C134.336 31.5495 134.18 31.5208 134.008 31.5C133.836 31.4792 133.674 31.4688 133.523 31.4688C133.18 31.4688 132.854 31.5391 132.547 31.6797C132.245 31.8151 131.979 32.013 131.75 32.2734C131.521 32.5286 131.341 32.8385 131.211 33.2031C131.081 33.5625 131.016 33.9635 131.016 34.4062V39H129.711V30.4375H130.789L130.93 32.0156H130.984C131.161 31.6979 131.375 31.4089 131.625 31.1484C131.875 30.8828 132.164 30.6719 132.492 30.5156C132.826 30.3594 133.195 30.2812 133.602 30.2812ZM143.711 30.2812C144.44 30.2812 145.065 30.4427 145.586 30.7656C146.107 31.0885 146.505 31.5417 146.781 32.125C147.057 32.7031 147.195 33.3802 147.195 34.1562V34.9609H141.281C141.297 35.9661 141.547 36.7318 142.031 37.2578C142.516 37.7839 143.198 38.0469 144.078 38.0469C144.62 38.0469 145.099 37.9974 145.516 37.8984C145.932 37.7995 146.365 37.6536 146.812 37.4609V38.6016C146.38 38.7943 145.951 38.9349 145.523 39.0234C145.102 39.112 144.602 39.1562 144.023 39.1562C143.201 39.1562 142.482 38.9896 141.867 38.6562C141.258 38.3177 140.784 37.8229 140.445 37.1719C140.107 36.5208 139.938 35.724 139.938 34.7812C139.938 33.8594 140.091 33.0625 140.398 32.3906C140.711 31.7135 141.148 31.1927 141.711 30.8281C142.279 30.4635 142.945 30.2812 143.711 30.2812ZM143.695 31.3438C143.003 31.3438 142.451 31.5703 142.039 32.0234C141.628 32.4766 141.383 33.1094 141.305 33.9219H145.836C145.831 33.4115 145.75 32.9635 145.594 32.5781C145.443 32.1875 145.211 31.8854 144.898 31.6719C144.586 31.4531 144.185 31.3438 143.695 31.3438ZM153.453 30.2812C154.469 30.2812 155.237 30.5312 155.758 31.0312C156.279 31.526 156.539 32.3229 156.539 33.4219V39H155.258V33.5078C155.258 32.7943 155.094 32.2604 154.766 31.9062C154.443 31.5521 153.945 31.375 153.273 31.375C152.326 31.375 151.659 31.6432 151.273 32.1797C150.888 32.7161 150.695 33.4948 150.695 34.5156V39H149.398V30.4375H150.445L150.641 31.6719H150.711C150.893 31.3698 151.125 31.1172 151.406 30.9141C151.688 30.7057 152.003 30.5495 152.352 30.4453C152.701 30.3359 153.068 30.2812 153.453 30.2812ZM163.562 27.5781H166.797C168.224 27.5781 169.297 27.7917 170.016 28.2188C170.734 28.6458 171.094 29.3724 171.094 30.3984C171.094 30.8411 171.008 31.2396 170.836 31.5938C170.669 31.9427 170.424 32.2318 170.102 32.4609C169.779 32.6901 169.38 32.849 168.906 32.9375V33.0156C169.406 33.0938 169.849 33.237 170.234 33.4453C170.62 33.6536 170.922 33.9453 171.141 34.3203C171.359 34.6953 171.469 35.1719 171.469 35.75C171.469 36.4531 171.305 37.0469 170.977 37.5312C170.654 38.0156 170.195 38.3828 169.602 38.6328C169.008 38.8776 168.305 39 167.492 39H163.562V27.5781ZM164.891 32.4766H167.078C168.073 32.4766 168.76 32.3125 169.141 31.9844C169.526 31.6562 169.719 31.1771 169.719 30.5469C169.719 29.8958 169.49 29.4271 169.031 29.1406C168.578 28.8542 167.854 28.7109 166.859 28.7109H164.891V32.4766ZM164.891 33.5938V37.8672H167.266C168.281 37.8672 169 37.6693 169.422 37.2734C169.844 36.8724 170.055 36.3333 170.055 35.6562C170.055 35.224 169.958 34.8542 169.766 34.5469C169.578 34.2396 169.271 34.0052 168.844 33.8438C168.422 33.6771 167.857 33.5938 167.148 33.5938H164.891ZM180.781 30.4375V39H179.719L179.531 37.7969H179.461C179.284 38.0938 179.055 38.3438 178.773 38.5469C178.492 38.75 178.174 38.901 177.82 39C177.471 39.1042 177.099 39.1562 176.703 39.1562C176.026 39.1562 175.458 39.0469 175 38.8281C174.542 38.6094 174.195 38.2708 173.961 37.8125C173.732 37.3542 173.617 36.7656 173.617 36.0469V30.4375H174.93V35.9531C174.93 36.6667 175.091 37.2005 175.414 37.5547C175.737 37.9036 176.229 38.0781 176.891 38.0781C177.526 38.0781 178.031 37.9583 178.406 37.7188C178.786 37.4792 179.06 37.1276 179.227 36.6641C179.393 36.1953 179.477 35.6224 179.477 34.9453V30.4375H180.781ZM186.82 30.2812C187.549 30.2812 188.174 30.4427 188.695 30.7656C189.216 31.0885 189.615 31.5417 189.891 32.125C190.167 32.7031 190.305 33.3802 190.305 34.1562V34.9609H184.391C184.406 35.9661 184.656 36.7318 185.141 37.2578C185.625 37.7839 186.307 38.0469 187.188 38.0469C187.729 38.0469 188.208 37.9974 188.625 37.8984C189.042 37.7995 189.474 37.6536 189.922 37.4609V38.6016C189.49 38.7943 189.06 38.9349 188.633 39.0234C188.211 39.112 187.711 39.1562 187.133 39.1562C186.31 39.1562 185.591 38.9896 184.977 38.6562C184.367 38.3177 183.893 37.8229 183.555 37.1719C183.216 36.5208 183.047 35.724 183.047 34.7812C183.047 33.8594 183.201 33.0625 183.508 32.3906C183.82 31.7135 184.258 31.1927 184.82 30.8281C185.388 30.4635 186.055 30.2812 186.82 30.2812ZM186.805 31.3438C186.112 31.3438 185.56 31.5703 185.148 32.0234C184.737 32.4766 184.492 33.1094 184.414 33.9219H188.945C188.94 33.4115 188.859 32.9635 188.703 32.5781C188.552 32.1875 188.32 31.8854 188.008 31.6719C187.695 31.4531 187.294 31.3438 186.805 31.3438ZM196.562 30.2812C197.578 30.2812 198.346 30.5312 198.867 31.0312C199.388 31.526 199.648 32.3229 199.648 33.4219V39H198.367V33.5078C198.367 32.7943 198.203 32.2604 197.875 31.9062C197.552 31.5521 197.055 31.375 196.383 31.375C195.435 31.375 194.768 31.6432 194.383 32.1797C193.997 32.7161 193.805 33.4948 193.805 34.5156V39H192.508V30.4375H193.555L193.75 31.6719H193.82C194.003 31.3698 194.234 31.1172 194.516 30.9141C194.797 30.7057 195.112 30.5495 195.461 30.4453C195.81 30.3359 196.177 30.2812 196.562 30.2812ZM209.703 34.7031C209.703 35.4062 209.612 36.0339 209.43 36.5859C209.247 37.138 208.984 37.6042 208.641 37.9844C208.297 38.3646 207.88 38.6562 207.391 38.8594C206.906 39.0573 206.357 39.1562 205.742 39.1562C205.169 39.1562 204.643 39.0573 204.164 38.8594C203.69 38.6562 203.279 38.3646 202.93 37.9844C202.586 37.6042 202.318 37.138 202.125 36.5859C201.938 36.0339 201.844 35.4062 201.844 34.7031C201.844 33.7656 202.003 32.9688 202.32 32.3125C202.638 31.651 203.091 31.1484 203.68 30.8047C204.273 30.4557 204.979 30.2812 205.797 30.2812C206.578 30.2812 207.26 30.4557 207.844 30.8047C208.432 31.1536 208.888 31.6589 209.211 32.3203C209.539 32.9766 209.703 33.7708 209.703 34.7031ZM203.188 34.7031C203.188 35.3906 203.279 35.987 203.461 36.4922C203.643 36.9974 203.924 37.388 204.305 37.6641C204.685 37.9401 205.174 38.0781 205.773 38.0781C206.367 38.0781 206.854 37.9401 207.234 37.6641C207.62 37.388 207.904 36.9974 208.086 36.4922C208.268 35.987 208.359 35.3906 208.359 34.7031C208.359 34.0208 208.268 33.4323 208.086 32.9375C207.904 32.4375 207.622 32.0521 207.242 31.7812C206.862 31.5104 206.37 31.375 205.766 31.375C204.875 31.375 204.221 31.6693 203.805 32.2578C203.393 32.8464 203.188 33.6615 203.188 34.7031ZM217.484 36.6562C217.484 37.2031 217.346 37.6641 217.07 38.0391C216.799 38.4089 216.409 38.6875 215.898 38.875C215.393 39.0625 214.789 39.1562 214.086 39.1562C213.487 39.1562 212.969 39.1094 212.531 39.0156C212.094 38.9219 211.711 38.7891 211.383 38.6172V37.4219C211.732 37.5938 212.148 37.75 212.633 37.8906C213.117 38.0312 213.612 38.1016 214.117 38.1016C214.857 38.1016 215.393 37.9818 215.727 37.7422C216.06 37.5026 216.227 37.1771 216.227 36.7656C216.227 36.5312 216.159 36.3255 216.023 36.1484C215.893 35.9661 215.672 35.7917 215.359 35.625C215.047 35.4531 214.615 35.2656 214.062 35.0625C213.516 34.8542 213.042 34.6484 212.641 34.4453C212.245 34.237 211.938 33.9844 211.719 33.6875C211.505 33.3906 211.398 33.0052 211.398 32.5312C211.398 31.8073 211.69 31.2526 212.273 30.8672C212.862 30.4766 213.633 30.2812 214.586 30.2812C215.102 30.2812 215.583 30.3333 216.031 30.4375C216.484 30.5365 216.906 30.6719 217.297 30.8438L216.859 31.8828C216.505 31.7318 216.128 31.6042 215.727 31.5C215.326 31.3958 214.917 31.3438 214.5 31.3438C213.901 31.3438 213.44 31.4427 213.117 31.6406C212.799 31.8385 212.641 32.1094 212.641 32.4531C212.641 32.7188 212.714 32.9375 212.859 33.1094C213.01 33.2812 213.25 33.4427 213.578 33.5938C213.906 33.7448 214.339 33.9219 214.875 34.125C215.411 34.3229 215.875 34.5286 216.266 34.7422C216.656 34.9505 216.956 35.2057 217.164 35.5078C217.378 35.8047 217.484 36.1875 217.484 36.6562ZM231.086 39L229.68 35.375H225.102L223.703 39H222.359L226.828 27.5312H228.023L232.461 39H231.086ZM229.281 34.1953L227.945 30.5938C227.914 30.5 227.862 30.3464 227.789 30.1328C227.721 29.9193 227.651 29.6979 227.578 29.4688C227.505 29.2396 227.445 29.0547 227.398 28.9141C227.346 29.1276 227.289 29.3411 227.227 29.5547C227.169 29.763 227.112 29.9583 227.055 30.1406C226.997 30.3177 226.948 30.4688 226.906 30.5938L225.547 34.1953H229.281ZM235.148 30.4375V39H233.852V30.4375H235.148ZM234.516 27.2344C234.729 27.2344 234.911 27.3047 235.062 27.4453C235.219 27.5807 235.297 27.7943 235.297 28.0859C235.297 28.3724 235.219 28.5859 235.062 28.7266C234.911 28.8672 234.729 28.9375 234.516 28.9375C234.292 28.9375 234.104 28.8672 233.953 28.7266C233.807 28.5859 233.734 28.3724 233.734 28.0859C233.734 27.7943 233.807 27.5807 233.953 27.4453C234.104 27.3047 234.292 27.2344 234.516 27.2344ZM241.789 30.2812C241.961 30.2812 242.141 30.2917 242.328 30.3125C242.516 30.3281 242.682 30.3516 242.828 30.3828L242.664 31.5859C242.523 31.5495 242.367 31.5208 242.195 31.5C242.023 31.4792 241.862 31.4688 241.711 31.4688C241.367 31.4688 241.042 31.5391 240.734 31.6797C240.432 31.8151 240.167 32.013 239.938 32.2734C239.708 32.5286 239.529 32.8385 239.398 33.2031C239.268 33.5625 239.203 33.9635 239.203 34.4062V39H237.898V30.4375H238.977L239.117 32.0156H239.172C239.349 31.6979 239.562 31.4089 239.812 31.1484C240.062 30.8828 240.352 30.6719 240.68 30.5156C241.013 30.3594 241.383 30.2812 241.789 30.2812ZM247.742 30.2812C248.471 30.2812 249.096 30.4427 249.617 30.7656C250.138 31.0885 250.536 31.5417 250.812 32.125C251.089 32.7031 251.227 33.3802 251.227 34.1562V34.9609H245.312C245.328 35.9661 245.578 36.7318 246.062 37.2578C246.547 37.7839 247.229 38.0469 248.109 38.0469C248.651 38.0469 249.13 37.9974 249.547 37.8984C249.964 37.7995 250.396 37.6536 250.844 37.4609V38.6016C250.411 38.7943 249.982 38.9349 249.555 39.0234C249.133 39.112 248.633 39.1562 248.055 39.1562C247.232 39.1562 246.513 38.9896 245.898 38.6562C245.289 38.3177 244.815 37.8229 244.477 37.1719C244.138 36.5208 243.969 35.724 243.969 34.7812C243.969 33.8594 244.122 33.0625 244.43 32.3906C244.742 31.7135 245.18 31.1927 245.742 30.8281C246.31 30.4635 246.977 30.2812 247.742 30.2812ZM247.727 31.3438C247.034 31.3438 246.482 31.5703 246.07 32.0234C245.659 32.4766 245.414 33.1094 245.336 33.9219H249.867C249.862 33.4115 249.781 32.9635 249.625 32.5781C249.474 32.1875 249.242 31.8854 248.93 31.6719C248.617 31.4531 248.216 31.3438 247.727 31.3438ZM258.969 36.6562C258.969 37.2031 258.831 37.6641 258.555 38.0391C258.284 38.4089 257.893 38.6875 257.383 38.875C256.878 39.0625 256.273 39.1562 255.57 39.1562C254.971 39.1562 254.453 39.1094 254.016 39.0156C253.578 38.9219 253.195 38.7891 252.867 38.6172V37.4219C253.216 37.5938 253.633 37.75 254.117 37.8906C254.602 38.0312 255.096 38.1016 255.602 38.1016C256.341 38.1016 256.878 37.9818 257.211 37.7422C257.544 37.5026 257.711 37.1771 257.711 36.7656C257.711 36.5312 257.643 36.3255 257.508 36.1484C257.378 35.9661 257.156 35.7917 256.844 35.625C256.531 35.4531 256.099 35.2656 255.547 35.0625C255 34.8542 254.526 34.6484 254.125 34.4453C253.729 34.237 253.422 33.9844 253.203 33.6875C252.99 33.3906 252.883 33.0052 252.883 32.5312C252.883 31.8073 253.174 31.2526 253.758 30.8672C254.346 30.4766 255.117 30.2812 256.07 30.2812C256.586 30.2812 257.068 30.3333 257.516 30.4375C257.969 30.5365 258.391 30.6719 258.781 30.8438L258.344 31.8828C257.99 31.7318 257.612 31.6042 257.211 31.5C256.81 31.3958 256.401 31.3438 255.984 31.3438C255.385 31.3438 254.924 31.4427 254.602 31.6406C254.284 31.8385 254.125 32.1094 254.125 32.4531C254.125 32.7188 254.198 32.9375 254.344 33.1094C254.495 33.2812 254.734 33.4427 255.062 33.5938C255.391 33.7448 255.823 33.9219 256.359 34.125C256.896 34.3229 257.359 34.5286 257.75 34.7422C258.141 34.9505 258.44 35.2057 258.648 35.5078C258.862 35.8047 258.969 36.1875 258.969 36.6562ZM260.859 38.1875C260.859 37.8229 260.948 37.5651 261.125 37.4141C261.302 37.2578 261.518 37.1797 261.773 37.1797C262.039 37.1797 262.263 37.2578 262.445 37.4141C262.628 37.5651 262.719 37.8229 262.719 38.1875C262.719 38.5469 262.628 38.8099 262.445 38.9766C262.263 39.138 262.039 39.2188 261.773 39.2188C261.518 39.2188 261.302 39.138 261.125 38.9766C260.948 38.8099 260.859 38.5469 260.859 38.1875ZM265.062 38.1875C265.062 37.8229 265.151 37.5651 265.328 37.4141C265.505 37.2578 265.721 37.1797 265.977 37.1797C266.242 37.1797 266.466 37.2578 266.648 37.4141C266.831 37.5651 266.922 37.8229 266.922 38.1875C266.922 38.5469 266.831 38.8099 266.648 38.9766C266.466 39.138 266.242 39.2188 265.977 39.2188C265.721 39.2188 265.505 39.138 265.328 38.9766C265.151 38.8099 265.062 38.5469 265.062 38.1875ZM269.266 38.1875C269.266 37.8229 269.354 37.5651 269.531 37.4141C269.708 37.2578 269.924 37.1797 270.18 37.1797C270.445 37.1797 270.669 37.2578 270.852 37.4141C271.034 37.5651 271.125 37.8229 271.125 38.1875C271.125 38.5469 271.034 38.8099 270.852 38.9766C270.669 39.138 270.445 39.2188 270.18 39.2188C269.924 39.2188 269.708 39.138 269.531 38.9766C269.354 38.8099 269.266 38.5469 269.266 38.1875Z" fill="#9EAAB8"/>
<g clip-path="url(#clip0_60_1427)">
<path d="M318.984 39.968C320.755 39.9676 322.475 39.3748 323.87 38.284L328.259 42.67L329.67 41.26L325.283 36.873C326.384 35.447 326.97 33.69 326.946 31.8883C326.921 30.0866 326.287 28.3464 325.146 26.9512C324.006 25.5561 322.427 24.5881 320.666 24.2052C318.906 23.8222 317.067 24.0468 315.45 24.8424C313.834 25.6379 312.534 26.9575 311.763 28.5861C310.992 30.2148 310.796 32.0565 311.205 33.8112C311.615 35.5658 312.607 37.1301 314.019 38.249C315.431 39.3679 317.181 39.9756 318.983 39.973L318.984 39.968ZM318.984 26C320.169 25.9992 321.327 26.3498 322.312 27.0075C323.298 27.6652 324.066 28.6003 324.519 29.6946C324.973 30.789 325.092 31.9933 324.861 33.1552C324.63 34.3171 324.06 35.3845 323.222 36.2221C322.384 37.0598 321.317 37.6302 320.155 37.8611C318.993 38.0921 317.789 37.9731 316.695 37.5194C315.6 37.0657 314.665 36.2976 314.007 35.3123C313.35 34.3269 312.999 33.1687 313 31.984C313.003 30.3978 313.634 28.8772 314.756 27.7556C315.877 26.6339 317.398 26.0026 318.984 26Z" fill="#38485C"/>
</g>
<rect x="71" y="12" width="274" height="42" rx="9" stroke="#E6EBF0" stroke-width="2"/>
<line x1="-1.75853e-09" y1="67" x2="360" y2="67" stroke="#007BC7" stroke-width="2"/>
<defs>
<clipPath id="clip0_60_1427">
<rect width="24" height="24" fill="white" transform="translate(308 21)"/>
</clipPath>
</defs>
</svg>
