<svg width="717" height="244" viewBox="0 0 717 244" fill="none" xmlns="http://www.w3.org/2000/svg">
<rect x="1" y="1" width="715" height="242" rx="9" stroke="#E6EBF0" stroke-width="2"/>
<rect x="126" y="106" width="466" height="40" rx="8" fill="#F5F9FC"/>
<g clip-path="url(#clip0_4732_1111)">
<path d="M146 130C148.209 130 150 128.209 150 126C150 123.791 148.209 122 146 122C143.791 122 142 123.791 142 126C142 128.209 143.791 130 146 130Z" fill="#38485C"/>
</g>
<path d="M173.922 132H167.562V120.578H173.922V121.75H168.891V125.445H173.633V126.602H168.891V130.828H173.922V132ZM181.797 129.656C181.797 130.203 181.659 130.664 181.383 131.039C181.112 131.409 180.721 131.688 180.211 131.875C179.706 132.062 179.102 132.156 178.398 132.156C177.799 132.156 177.281 132.109 176.844 132.016C176.406 131.922 176.023 131.789 175.695 131.617V130.422C176.044 130.594 176.461 130.75 176.945 130.891C177.43 131.031 177.924 131.102 178.43 131.102C179.169 131.102 179.706 130.982 180.039 130.742C180.372 130.503 180.539 130.177 180.539 129.766C180.539 129.531 180.471 129.326 180.336 129.148C180.206 128.966 179.984 128.792 179.672 128.625C179.359 128.453 178.927 128.266 178.375 128.062C177.828 127.854 177.354 127.648 176.953 127.445C176.557 127.237 176.25 126.984 176.031 126.688C175.818 126.391 175.711 126.005 175.711 125.531C175.711 124.807 176.003 124.253 176.586 123.867C177.174 123.477 177.945 123.281 178.898 123.281C179.414 123.281 179.896 123.333 180.344 123.438C180.797 123.536 181.219 123.672 181.609 123.844L181.172 124.883C180.818 124.732 180.44 124.604 180.039 124.5C179.638 124.396 179.229 124.344 178.812 124.344C178.214 124.344 177.753 124.443 177.43 124.641C177.112 124.839 176.953 125.109 176.953 125.453C176.953 125.719 177.026 125.938 177.172 126.109C177.323 126.281 177.562 126.443 177.891 126.594C178.219 126.745 178.651 126.922 179.188 127.125C179.724 127.323 180.188 127.529 180.578 127.742C180.969 127.951 181.268 128.206 181.477 128.508C181.69 128.805 181.797 129.188 181.797 129.656ZM186.648 131.094C186.862 131.094 187.081 131.076 187.305 131.039C187.529 131.003 187.711 130.958 187.852 130.906V131.914C187.701 131.982 187.49 132.039 187.219 132.086C186.953 132.133 186.693 132.156 186.438 132.156C185.984 132.156 185.573 132.078 185.203 131.922C184.833 131.76 184.536 131.49 184.312 131.109C184.094 130.729 183.984 130.203 183.984 129.531V124.453H182.766V123.82L183.992 123.312L184.508 121.453H185.289V123.438H187.797V124.453H185.289V129.492C185.289 130.029 185.411 130.43 185.656 130.695C185.906 130.961 186.237 131.094 186.648 131.094ZM192.883 123.281C193.612 123.281 194.237 123.443 194.758 123.766C195.279 124.089 195.677 124.542 195.953 125.125C196.229 125.703 196.367 126.38 196.367 127.156V127.961H190.453C190.469 128.966 190.719 129.732 191.203 130.258C191.688 130.784 192.37 131.047 193.25 131.047C193.792 131.047 194.271 130.997 194.688 130.898C195.104 130.799 195.536 130.654 195.984 130.461V131.602C195.552 131.794 195.122 131.935 194.695 132.023C194.273 132.112 193.773 132.156 193.195 132.156C192.372 132.156 191.654 131.99 191.039 131.656C190.43 131.318 189.956 130.823 189.617 130.172C189.279 129.521 189.109 128.724 189.109 127.781C189.109 126.859 189.263 126.062 189.57 125.391C189.883 124.714 190.32 124.193 190.883 123.828C191.451 123.464 192.117 123.281 192.883 123.281ZM192.867 124.344C192.174 124.344 191.622 124.57 191.211 125.023C190.799 125.477 190.555 126.109 190.477 126.922H195.008C195.003 126.411 194.922 125.964 194.766 125.578C194.615 125.188 194.383 124.885 194.07 124.672C193.758 124.453 193.357 124.344 192.867 124.344ZM206.023 123.281C206.753 123.281 207.378 123.443 207.898 123.766C208.419 124.089 208.818 124.542 209.094 125.125C209.37 125.703 209.508 126.38 209.508 127.156V127.961H203.594C203.609 128.966 203.859 129.732 204.344 130.258C204.828 130.784 205.51 131.047 206.391 131.047C206.932 131.047 207.411 130.997 207.828 130.898C208.245 130.799 208.677 130.654 209.125 130.461V131.602C208.693 131.794 208.263 131.935 207.836 132.023C207.414 132.112 206.914 132.156 206.336 132.156C205.513 132.156 204.794 131.99 204.18 131.656C203.57 131.318 203.096 130.823 202.758 130.172C202.419 129.521 202.25 128.724 202.25 127.781C202.25 126.859 202.404 126.062 202.711 125.391C203.023 124.714 203.461 124.193 204.023 123.828C204.591 123.464 205.258 123.281 206.023 123.281ZM206.008 124.344C205.315 124.344 204.763 124.57 204.352 125.023C203.94 125.477 203.695 126.109 203.617 126.922H208.148C208.143 126.411 208.062 125.964 207.906 125.578C207.755 125.188 207.523 124.885 207.211 124.672C206.898 124.453 206.497 124.344 206.008 124.344ZM217.25 129.656C217.25 130.203 217.112 130.664 216.836 131.039C216.565 131.409 216.174 131.688 215.664 131.875C215.159 132.062 214.555 132.156 213.852 132.156C213.253 132.156 212.734 132.109 212.297 132.016C211.859 131.922 211.477 131.789 211.148 131.617V130.422C211.497 130.594 211.914 130.75 212.398 130.891C212.883 131.031 213.378 131.102 213.883 131.102C214.622 131.102 215.159 130.982 215.492 130.742C215.826 130.503 215.992 130.177 215.992 129.766C215.992 129.531 215.924 129.326 215.789 129.148C215.659 128.966 215.438 128.792 215.125 128.625C214.812 128.453 214.38 128.266 213.828 128.062C213.281 127.854 212.807 127.648 212.406 127.445C212.01 127.237 211.703 126.984 211.484 126.688C211.271 126.391 211.164 126.005 211.164 125.531C211.164 124.807 211.456 124.253 212.039 123.867C212.628 123.477 213.398 123.281 214.352 123.281C214.867 123.281 215.349 123.333 215.797 123.438C216.25 123.536 216.672 123.672 217.062 123.844L216.625 124.883C216.271 124.732 215.893 124.604 215.492 124.5C215.091 124.396 214.682 124.344 214.266 124.344C213.667 124.344 213.206 124.443 212.883 124.641C212.565 124.839 212.406 125.109 212.406 125.453C212.406 125.719 212.479 125.938 212.625 126.109C212.776 126.281 213.016 126.443 213.344 126.594C213.672 126.745 214.104 126.922 214.641 127.125C215.177 127.323 215.641 127.529 216.031 127.742C216.422 127.951 216.721 128.206 216.93 128.508C217.143 128.805 217.25 129.188 217.25 129.656ZM226.789 123.281C227.518 123.281 228.143 123.443 228.664 123.766C229.185 124.089 229.583 124.542 229.859 125.125C230.135 125.703 230.273 126.38 230.273 127.156V127.961H224.359C224.375 128.966 224.625 129.732 225.109 130.258C225.594 130.784 226.276 131.047 227.156 131.047C227.698 131.047 228.177 130.997 228.594 130.898C229.01 130.799 229.443 130.654 229.891 130.461V131.602C229.458 131.794 229.029 131.935 228.602 132.023C228.18 132.112 227.68 132.156 227.102 132.156C226.279 132.156 225.56 131.99 224.945 131.656C224.336 131.318 223.862 130.823 223.523 130.172C223.185 129.521 223.016 128.724 223.016 127.781C223.016 126.859 223.169 126.062 223.477 125.391C223.789 124.714 224.227 124.193 224.789 123.828C225.357 123.464 226.023 123.281 226.789 123.281ZM226.773 124.344C226.081 124.344 225.529 124.57 225.117 125.023C224.706 125.477 224.461 126.109 224.383 126.922H228.914C228.909 126.411 228.828 125.964 228.672 125.578C228.521 125.188 228.289 124.885 227.977 124.672C227.664 124.453 227.263 124.344 226.773 124.344ZM233.781 132H232.477V119.844H233.781V132ZM244.109 132.156C243.339 132.156 242.659 131.997 242.07 131.68C241.482 131.362 241.023 130.878 240.695 130.227C240.367 129.576 240.203 128.755 240.203 127.766C240.203 126.729 240.375 125.883 240.719 125.227C241.068 124.565 241.547 124.076 242.156 123.758C242.766 123.44 243.458 123.281 244.234 123.281C244.661 123.281 245.073 123.326 245.469 123.414C245.87 123.497 246.198 123.604 246.453 123.734L246.062 124.82C245.802 124.716 245.5 124.622 245.156 124.539C244.818 124.456 244.5 124.414 244.203 124.414C243.609 124.414 243.115 124.542 242.719 124.797C242.328 125.052 242.034 125.427 241.836 125.922C241.643 126.417 241.547 127.026 241.547 127.75C241.547 128.443 241.641 129.034 241.828 129.523C242.021 130.013 242.305 130.388 242.68 130.648C243.06 130.904 243.534 131.031 244.102 131.031C244.555 131.031 244.964 130.984 245.328 130.891C245.693 130.792 246.023 130.677 246.32 130.547V131.703C246.034 131.849 245.714 131.961 245.359 132.039C245.01 132.117 244.594 132.156 244.109 132.156ZM255.734 127.703C255.734 128.406 255.643 129.034 255.461 129.586C255.279 130.138 255.016 130.604 254.672 130.984C254.328 131.365 253.911 131.656 253.422 131.859C252.938 132.057 252.388 132.156 251.773 132.156C251.201 132.156 250.674 132.057 250.195 131.859C249.721 131.656 249.31 131.365 248.961 130.984C248.617 130.604 248.349 130.138 248.156 129.586C247.969 129.034 247.875 128.406 247.875 127.703C247.875 126.766 248.034 125.969 248.352 125.312C248.669 124.651 249.122 124.148 249.711 123.805C250.305 123.456 251.01 123.281 251.828 123.281C252.609 123.281 253.292 123.456 253.875 123.805C254.464 124.154 254.919 124.659 255.242 125.32C255.57 125.977 255.734 126.771 255.734 127.703ZM249.219 127.703C249.219 128.391 249.31 128.987 249.492 129.492C249.674 129.997 249.956 130.388 250.336 130.664C250.716 130.94 251.206 131.078 251.805 131.078C252.398 131.078 252.885 130.94 253.266 130.664C253.651 130.388 253.935 129.997 254.117 129.492C254.299 128.987 254.391 128.391 254.391 127.703C254.391 127.021 254.299 126.432 254.117 125.938C253.935 125.438 253.654 125.052 253.273 124.781C252.893 124.51 252.401 124.375 251.797 124.375C250.906 124.375 250.253 124.669 249.836 125.258C249.424 125.846 249.219 126.661 249.219 127.703ZM262.031 123.281C263.047 123.281 263.815 123.531 264.336 124.031C264.857 124.526 265.117 125.323 265.117 126.422V132H263.836V126.508C263.836 125.794 263.672 125.26 263.344 124.906C263.021 124.552 262.523 124.375 261.852 124.375C260.904 124.375 260.237 124.643 259.852 125.18C259.466 125.716 259.273 126.495 259.273 127.516V132H257.977V123.438H259.023L259.219 124.672H259.289C259.471 124.37 259.703 124.117 259.984 123.914C260.266 123.706 260.581 123.549 260.93 123.445C261.279 123.336 261.646 123.281 262.031 123.281ZM270.555 131.094C270.768 131.094 270.987 131.076 271.211 131.039C271.435 131.003 271.617 130.958 271.758 130.906V131.914C271.607 131.982 271.396 132.039 271.125 132.086C270.859 132.133 270.599 132.156 270.344 132.156C269.891 132.156 269.479 132.078 269.109 131.922C268.74 131.76 268.443 131.49 268.219 131.109C268 130.729 267.891 130.203 267.891 129.531V124.453H266.672V123.82L267.898 123.312L268.414 121.453H269.195V123.438H271.703V124.453H269.195V129.492C269.195 130.029 269.318 130.43 269.562 130.695C269.812 130.961 270.143 131.094 270.555 131.094ZM276.789 123.281C277.518 123.281 278.143 123.443 278.664 123.766C279.185 124.089 279.583 124.542 279.859 125.125C280.135 125.703 280.273 126.38 280.273 127.156V127.961H274.359C274.375 128.966 274.625 129.732 275.109 130.258C275.594 130.784 276.276 131.047 277.156 131.047C277.698 131.047 278.177 130.997 278.594 130.898C279.01 130.799 279.443 130.654 279.891 130.461V131.602C279.458 131.794 279.029 131.935 278.602 132.023C278.18 132.112 277.68 132.156 277.102 132.156C276.279 132.156 275.56 131.99 274.945 131.656C274.336 131.318 273.862 130.823 273.523 130.172C273.185 129.521 273.016 128.724 273.016 127.781C273.016 126.859 273.169 126.062 273.477 125.391C273.789 124.714 274.227 124.193 274.789 123.828C275.357 123.464 276.023 123.281 276.789 123.281ZM276.773 124.344C276.081 124.344 275.529 124.57 275.117 125.023C274.706 125.477 274.461 126.109 274.383 126.922H278.914C278.909 126.411 278.828 125.964 278.672 125.578C278.521 125.188 278.289 124.885 277.977 124.672C277.664 124.453 277.263 124.344 276.773 124.344ZM286.531 123.281C287.547 123.281 288.315 123.531 288.836 124.031C289.357 124.526 289.617 125.323 289.617 126.422V132H288.336V126.508C288.336 125.794 288.172 125.26 287.844 124.906C287.521 124.552 287.023 124.375 286.352 124.375C285.404 124.375 284.737 124.643 284.352 125.18C283.966 125.716 283.773 126.495 283.773 127.516V132H282.477V123.438H283.523L283.719 124.672H283.789C283.971 124.37 284.203 124.117 284.484 123.914C284.766 123.706 285.081 123.549 285.43 123.445C285.779 123.336 286.146 123.281 286.531 123.281ZM293.586 123.438V132H292.289V123.438H293.586ZM292.953 120.234C293.167 120.234 293.349 120.305 293.5 120.445C293.656 120.581 293.734 120.794 293.734 121.086C293.734 121.372 293.656 121.586 293.5 121.727C293.349 121.867 293.167 121.938 292.953 121.938C292.729 121.938 292.542 121.867 292.391 121.727C292.245 121.586 292.172 121.372 292.172 121.086C292.172 120.794 292.245 120.581 292.391 120.445C292.542 120.305 292.729 120.234 292.953 120.234ZM299.383 132.156C298.299 132.156 297.44 131.786 296.805 131.047C296.174 130.307 295.859 129.208 295.859 127.75C295.859 126.276 296.182 125.164 296.828 124.414C297.474 123.659 298.333 123.281 299.406 123.281C299.859 123.281 300.255 123.341 300.594 123.461C300.932 123.581 301.224 123.742 301.469 123.945C301.714 124.143 301.919 124.37 302.086 124.625H302.18C302.159 124.464 302.138 124.242 302.117 123.961C302.096 123.68 302.086 123.451 302.086 123.273V119.844H303.383V132H302.336L302.141 130.781H302.086C301.924 131.036 301.719 131.268 301.469 131.477C301.224 131.685 300.93 131.852 300.586 131.977C300.247 132.096 299.846 132.156 299.383 132.156ZM299.586 131.078C300.503 131.078 301.151 130.818 301.531 130.297C301.911 129.776 302.102 129.003 302.102 127.977V127.742C302.102 126.654 301.919 125.818 301.555 125.234C301.195 124.651 300.539 124.359 299.586 124.359C298.789 124.359 298.193 124.667 297.797 125.281C297.401 125.891 297.203 126.724 297.203 127.781C297.203 128.833 297.398 129.646 297.789 130.219C298.185 130.792 298.784 131.078 299.586 131.078ZM313.516 127.703C313.516 128.406 313.424 129.034 313.242 129.586C313.06 130.138 312.797 130.604 312.453 130.984C312.109 131.365 311.693 131.656 311.203 131.859C310.719 132.057 310.169 132.156 309.555 132.156C308.982 132.156 308.456 132.057 307.977 131.859C307.503 131.656 307.091 131.365 306.742 130.984C306.398 130.604 306.13 130.138 305.938 129.586C305.75 129.034 305.656 128.406 305.656 127.703C305.656 126.766 305.815 125.969 306.133 125.312C306.451 124.651 306.904 124.148 307.492 123.805C308.086 123.456 308.792 123.281 309.609 123.281C310.391 123.281 311.073 123.456 311.656 123.805C312.245 124.154 312.701 124.659 313.023 125.32C313.352 125.977 313.516 126.771 313.516 127.703ZM307 127.703C307 128.391 307.091 128.987 307.273 129.492C307.456 129.997 307.737 130.388 308.117 130.664C308.497 130.94 308.987 131.078 309.586 131.078C310.18 131.078 310.667 130.94 311.047 130.664C311.432 130.388 311.716 129.997 311.898 129.492C312.081 128.987 312.172 128.391 312.172 127.703C312.172 127.021 312.081 126.432 311.898 125.938C311.716 125.438 311.435 125.052 311.055 124.781C310.674 124.51 310.182 124.375 309.578 124.375C308.688 124.375 308.034 124.669 307.617 125.258C307.206 125.846 307 126.661 307 127.703ZM322.961 132.156C321.878 132.156 321.018 131.786 320.383 131.047C319.753 130.307 319.438 129.208 319.438 127.75C319.438 126.276 319.76 125.164 320.406 124.414C321.052 123.659 321.911 123.281 322.984 123.281C323.438 123.281 323.833 123.341 324.172 123.461C324.51 123.581 324.802 123.742 325.047 123.945C325.292 124.143 325.497 124.37 325.664 124.625H325.758C325.737 124.464 325.716 124.242 325.695 123.961C325.674 123.68 325.664 123.451 325.664 123.273V119.844H326.961V132H325.914L325.719 130.781H325.664C325.503 131.036 325.297 131.268 325.047 131.477C324.802 131.685 324.508 131.852 324.164 131.977C323.826 132.096 323.424 132.156 322.961 132.156ZM323.164 131.078C324.081 131.078 324.729 130.818 325.109 130.297C325.49 129.776 325.68 129.003 325.68 127.977V127.742C325.68 126.654 325.497 125.818 325.133 125.234C324.773 124.651 324.117 124.359 323.164 124.359C322.367 124.359 321.771 124.667 321.375 125.281C320.979 125.891 320.781 126.724 320.781 127.781C320.781 128.833 320.977 129.646 321.367 130.219C321.763 130.792 322.362 131.078 323.164 131.078ZM333.008 123.281C333.737 123.281 334.362 123.443 334.883 123.766C335.404 124.089 335.802 124.542 336.078 125.125C336.354 125.703 336.492 126.38 336.492 127.156V127.961H330.578C330.594 128.966 330.844 129.732 331.328 130.258C331.812 130.784 332.495 131.047 333.375 131.047C333.917 131.047 334.396 130.997 334.812 130.898C335.229 130.799 335.661 130.654 336.109 130.461V131.602C335.677 131.794 335.247 131.935 334.82 132.023C334.398 132.112 333.898 132.156 333.32 132.156C332.497 132.156 331.779 131.99 331.164 131.656C330.555 131.318 330.081 130.823 329.742 130.172C329.404 129.521 329.234 128.724 329.234 127.781C329.234 126.859 329.388 126.062 329.695 125.391C330.008 124.714 330.445 124.193 331.008 123.828C331.576 123.464 332.242 123.281 333.008 123.281ZM332.992 124.344C332.299 124.344 331.747 124.57 331.336 125.023C330.924 125.477 330.68 126.109 330.602 126.922H335.133C335.128 126.411 335.047 125.964 334.891 125.578C334.74 125.188 334.508 124.885 334.195 124.672C333.883 124.453 333.482 124.344 332.992 124.344ZM349.922 123.438V132H348.859L348.672 130.797H348.602C348.424 131.094 348.195 131.344 347.914 131.547C347.633 131.75 347.315 131.901 346.961 132C346.612 132.104 346.24 132.156 345.844 132.156C345.167 132.156 344.599 132.047 344.141 131.828C343.682 131.609 343.336 131.271 343.102 130.812C342.872 130.354 342.758 129.766 342.758 129.047V123.438H344.07V128.953C344.07 129.667 344.232 130.201 344.555 130.555C344.878 130.904 345.37 131.078 346.031 131.078C346.667 131.078 347.172 130.958 347.547 130.719C347.927 130.479 348.201 130.128 348.367 129.664C348.534 129.195 348.617 128.622 348.617 127.945V123.438H349.922ZM356.719 123.281C357.734 123.281 358.503 123.531 359.023 124.031C359.544 124.526 359.805 125.323 359.805 126.422V132H358.523V126.508C358.523 125.794 358.359 125.26 358.031 124.906C357.708 124.552 357.211 124.375 356.539 124.375C355.591 124.375 354.924 124.643 354.539 125.18C354.154 125.716 353.961 126.495 353.961 127.516V132H352.664V123.438H353.711L353.906 124.672H353.977C354.159 124.37 354.391 124.117 354.672 123.914C354.953 123.706 355.268 123.549 355.617 123.445C355.966 123.336 356.333 123.281 356.719 123.281ZM367.93 132H366.633V123.438H367.93V132ZM369.547 119.742V119.898C369.443 120.049 369.299 120.232 369.117 120.445C368.94 120.654 368.742 120.875 368.523 121.109C368.305 121.339 368.083 121.557 367.859 121.766C367.641 121.974 367.438 122.154 367.25 122.305H366.383V122.117C366.549 121.919 366.732 121.682 366.93 121.406C367.128 121.125 367.32 120.839 367.508 120.547C367.695 120.25 367.852 119.982 367.977 119.742H369.547ZM373.445 131.094C373.659 131.094 373.878 131.076 374.102 131.039C374.326 131.003 374.508 130.958 374.648 130.906V131.914C374.497 131.982 374.286 132.039 374.016 132.086C373.75 132.133 373.49 132.156 373.234 132.156C372.781 132.156 372.37 132.078 372 131.922C371.63 131.76 371.333 131.49 371.109 131.109C370.891 130.729 370.781 130.203 370.781 129.531V124.453H369.562V123.82L370.789 123.312L371.305 121.453H372.086V123.438H374.594V124.453H372.086V129.492C372.086 130.029 372.208 130.43 372.453 130.695C372.703 130.961 373.034 131.094 373.445 131.094ZM379.68 123.281C380.409 123.281 381.034 123.443 381.555 123.766C382.076 124.089 382.474 124.542 382.75 125.125C383.026 125.703 383.164 126.38 383.164 127.156V127.961H377.25C377.266 128.966 377.516 129.732 378 130.258C378.484 130.784 379.167 131.047 380.047 131.047C380.589 131.047 381.068 130.997 381.484 130.898C381.901 130.799 382.333 130.654 382.781 130.461V131.602C382.349 131.794 381.919 131.935 381.492 132.023C381.07 132.112 380.57 132.156 379.992 132.156C379.169 132.156 378.451 131.99 377.836 131.656C377.227 131.318 376.753 130.823 376.414 130.172C376.076 129.521 375.906 128.724 375.906 127.781C375.906 126.859 376.06 126.062 376.367 125.391C376.68 124.714 377.117 124.193 377.68 123.828C378.247 123.464 378.914 123.281 379.68 123.281ZM379.664 124.344C378.971 124.344 378.419 124.57 378.008 125.023C377.596 125.477 377.352 126.109 377.273 126.922H381.805C381.799 126.411 381.719 125.964 381.562 125.578C381.411 125.188 381.18 124.885 380.867 124.672C380.555 124.453 380.154 124.344 379.664 124.344ZM394.664 123.281C395.607 123.281 396.318 123.529 396.797 124.023C397.276 124.513 397.516 125.302 397.516 126.391V132H396.234V126.453C396.234 125.76 396.083 125.242 395.781 124.898C395.484 124.549 395.042 124.375 394.453 124.375C393.625 124.375 393.023 124.615 392.648 125.094C392.273 125.573 392.086 126.279 392.086 127.211V132H390.797V126.453C390.797 125.99 390.729 125.604 390.594 125.297C390.464 124.99 390.266 124.76 390 124.609C389.74 124.453 389.409 124.375 389.008 124.375C388.44 124.375 387.984 124.492 387.641 124.727C387.297 124.961 387.047 125.31 386.891 125.773C386.74 126.232 386.664 126.797 386.664 127.469V132H385.367V123.438H386.414L386.609 124.648H386.68C386.852 124.352 387.068 124.102 387.328 123.898C387.589 123.695 387.88 123.542 388.203 123.438C388.526 123.333 388.87 123.281 389.234 123.281C389.885 123.281 390.43 123.404 390.867 123.648C391.31 123.888 391.63 124.255 391.828 124.75H391.898C392.18 124.255 392.565 123.888 393.055 123.648C393.544 123.404 394.081 123.281 394.664 123.281ZM407.383 132.156C406.299 132.156 405.44 131.786 404.805 131.047C404.174 130.307 403.859 129.208 403.859 127.75C403.859 126.276 404.182 125.164 404.828 124.414C405.474 123.659 406.333 123.281 407.406 123.281C407.859 123.281 408.255 123.341 408.594 123.461C408.932 123.581 409.224 123.742 409.469 123.945C409.714 124.143 409.919 124.37 410.086 124.625H410.18C410.159 124.464 410.138 124.242 410.117 123.961C410.096 123.68 410.086 123.451 410.086 123.273V119.844H411.383V132H410.336L410.141 130.781H410.086C409.924 131.036 409.719 131.268 409.469 131.477C409.224 131.685 408.93 131.852 408.586 131.977C408.247 132.096 407.846 132.156 407.383 132.156ZM407.586 131.078C408.503 131.078 409.151 130.818 409.531 130.297C409.911 129.776 410.102 129.003 410.102 127.977V127.742C410.102 126.654 409.919 125.818 409.555 125.234C409.195 124.651 408.539 124.359 407.586 124.359C406.789 124.359 406.193 124.667 405.797 125.281C405.401 125.891 405.203 126.724 405.203 127.781C405.203 128.833 405.398 129.646 405.789 130.219C406.185 130.792 406.784 131.078 407.586 131.078ZM417.43 123.281C418.159 123.281 418.784 123.443 419.305 123.766C419.826 124.089 420.224 124.542 420.5 125.125C420.776 125.703 420.914 126.38 420.914 127.156V127.961H415C415.016 128.966 415.266 129.732 415.75 130.258C416.234 130.784 416.917 131.047 417.797 131.047C418.339 131.047 418.818 130.997 419.234 130.898C419.651 130.799 420.083 130.654 420.531 130.461V131.602C420.099 131.794 419.669 131.935 419.242 132.023C418.82 132.112 418.32 132.156 417.742 132.156C416.919 132.156 416.201 131.99 415.586 131.656C414.977 131.318 414.503 130.823 414.164 130.172C413.826 129.521 413.656 128.724 413.656 127.781C413.656 126.859 413.81 126.062 414.117 125.391C414.43 124.714 414.867 124.193 415.43 123.828C415.997 123.464 416.664 123.281 417.43 123.281ZM417.414 124.344C416.721 124.344 416.169 124.57 415.758 125.023C415.346 125.477 415.102 126.109 415.023 126.922H419.555C419.549 126.411 419.469 125.964 419.312 125.578C419.161 125.188 418.93 124.885 418.617 124.672C418.305 124.453 417.904 124.344 417.414 124.344ZM434.344 123.438V132H433.281L433.094 130.797H433.023C432.846 131.094 432.617 131.344 432.336 131.547C432.055 131.75 431.737 131.901 431.383 132C431.034 132.104 430.661 132.156 430.266 132.156C429.589 132.156 429.021 132.047 428.562 131.828C428.104 131.609 427.758 131.271 427.523 130.812C427.294 130.354 427.18 129.766 427.18 129.047V123.438H428.492V128.953C428.492 129.667 428.654 130.201 428.977 130.555C429.299 130.904 429.792 131.078 430.453 131.078C431.089 131.078 431.594 130.958 431.969 130.719C432.349 130.479 432.622 130.128 432.789 129.664C432.956 129.195 433.039 128.622 433.039 127.945V123.438H434.344ZM441.141 123.281C442.156 123.281 442.924 123.531 443.445 124.031C443.966 124.526 444.227 125.323 444.227 126.422V132H442.945V126.508C442.945 125.794 442.781 125.26 442.453 124.906C442.13 124.552 441.633 124.375 440.961 124.375C440.013 124.375 439.346 124.643 438.961 125.18C438.576 125.716 438.383 126.495 438.383 127.516V132H437.086V123.438H438.133L438.328 124.672H438.398C438.581 124.37 438.812 124.117 439.094 123.914C439.375 123.706 439.69 123.549 440.039 123.445C440.388 123.336 440.755 123.281 441.141 123.281ZM450.102 123.297C451.122 123.297 451.88 123.526 452.375 123.984C452.87 124.443 453.117 125.174 453.117 126.18V132H452.172L451.922 130.734H451.859C451.62 131.047 451.37 131.31 451.109 131.523C450.849 131.732 450.547 131.891 450.203 132C449.865 132.104 449.448 132.156 448.953 132.156C448.432 132.156 447.969 132.065 447.562 131.883C447.161 131.701 446.844 131.424 446.609 131.055C446.38 130.685 446.266 130.216 446.266 129.648C446.266 128.794 446.604 128.138 447.281 127.68C447.958 127.221 448.99 126.971 450.375 126.93L451.852 126.867V126.344C451.852 125.604 451.693 125.086 451.375 124.789C451.057 124.492 450.609 124.344 450.031 124.344C449.583 124.344 449.156 124.409 448.75 124.539C448.344 124.669 447.958 124.823 447.594 125L447.195 124.016C447.581 123.818 448.023 123.648 448.523 123.508C449.023 123.367 449.549 123.297 450.102 123.297ZM451.836 127.781L450.531 127.836C449.464 127.878 448.711 128.052 448.273 128.359C447.836 128.667 447.617 129.102 447.617 129.664C447.617 130.154 447.766 130.516 448.062 130.75C448.359 130.984 448.753 131.102 449.242 131.102C450.003 131.102 450.625 130.891 451.109 130.469C451.594 130.047 451.836 129.414 451.836 128.57V127.781ZM461.25 132H459.945V119.844H461.25V132ZM465.289 123.438V132H463.992V123.438H465.289ZM464.656 120.234C464.87 120.234 465.052 120.305 465.203 120.445C465.359 120.581 465.438 120.794 465.438 121.086C465.438 121.372 465.359 121.586 465.203 121.727C465.052 121.867 464.87 121.938 464.656 121.938C464.432 121.938 464.245 121.867 464.094 121.727C463.948 121.586 463.875 121.372 463.875 121.086C463.875 120.794 463.948 120.581 464.094 120.445C464.245 120.305 464.432 120.234 464.656 120.234ZM473.578 129.656C473.578 130.203 473.44 130.664 473.164 131.039C472.893 131.409 472.503 131.688 471.992 131.875C471.487 132.062 470.883 132.156 470.18 132.156C469.581 132.156 469.062 132.109 468.625 132.016C468.188 131.922 467.805 131.789 467.477 131.617V130.422C467.826 130.594 468.242 130.75 468.727 130.891C469.211 131.031 469.706 131.102 470.211 131.102C470.951 131.102 471.487 130.982 471.82 130.742C472.154 130.503 472.32 130.177 472.32 129.766C472.32 129.531 472.253 129.326 472.117 129.148C471.987 128.966 471.766 128.792 471.453 128.625C471.141 128.453 470.708 128.266 470.156 128.062C469.609 127.854 469.135 127.648 468.734 127.445C468.339 127.237 468.031 126.984 467.812 126.688C467.599 126.391 467.492 126.005 467.492 125.531C467.492 124.807 467.784 124.253 468.367 123.867C468.956 123.477 469.727 123.281 470.68 123.281C471.195 123.281 471.677 123.333 472.125 123.438C472.578 123.536 473 123.672 473.391 123.844L472.953 124.883C472.599 124.732 472.221 124.604 471.82 124.5C471.419 124.396 471.01 124.344 470.594 124.344C469.995 124.344 469.534 124.443 469.211 124.641C468.893 124.839 468.734 125.109 468.734 125.453C468.734 125.719 468.807 125.938 468.953 126.109C469.104 126.281 469.344 126.443 469.672 126.594C470 126.745 470.432 126.922 470.969 127.125C471.505 127.323 471.969 127.529 472.359 127.742C472.75 127.951 473.049 128.206 473.258 128.508C473.471 128.805 473.578 129.188 473.578 129.656ZM478.43 131.094C478.643 131.094 478.862 131.076 479.086 131.039C479.31 131.003 479.492 130.958 479.633 130.906V131.914C479.482 131.982 479.271 132.039 479 132.086C478.734 132.133 478.474 132.156 478.219 132.156C477.766 132.156 477.354 132.078 476.984 131.922C476.615 131.76 476.318 131.49 476.094 131.109C475.875 130.729 475.766 130.203 475.766 129.531V124.453H474.547V123.82L475.773 123.312L476.289 121.453H477.07V123.438H479.578V124.453H477.07V129.492C477.07 130.029 477.193 130.43 477.438 130.695C477.688 130.961 478.018 131.094 478.43 131.094ZM484.57 123.297C485.591 123.297 486.349 123.526 486.844 123.984C487.339 124.443 487.586 125.174 487.586 126.18V132H486.641L486.391 130.734H486.328C486.089 131.047 485.839 131.31 485.578 131.523C485.318 131.732 485.016 131.891 484.672 132C484.333 132.104 483.917 132.156 483.422 132.156C482.901 132.156 482.438 132.065 482.031 131.883C481.63 131.701 481.312 131.424 481.078 131.055C480.849 130.685 480.734 130.216 480.734 129.648C480.734 128.794 481.073 128.138 481.75 127.68C482.427 127.221 483.458 126.971 484.844 126.93L486.32 126.867V126.344C486.32 125.604 486.161 125.086 485.844 124.789C485.526 124.492 485.078 124.344 484.5 124.344C484.052 124.344 483.625 124.409 483.219 124.539C482.812 124.669 482.427 124.823 482.062 125L481.664 124.016C482.049 123.818 482.492 123.648 482.992 123.508C483.492 123.367 484.018 123.297 484.57 123.297ZM486.305 127.781L485 127.836C483.932 127.878 483.18 128.052 482.742 128.359C482.305 128.667 482.086 129.102 482.086 129.664C482.086 130.154 482.234 130.516 482.531 130.75C482.828 130.984 483.221 131.102 483.711 131.102C484.471 131.102 485.094 130.891 485.578 130.469C486.062 130.047 486.305 129.414 486.305 128.57V127.781ZM495.711 123.438V132H494.414V123.438H495.711ZM495.078 120.234C495.292 120.234 495.474 120.305 495.625 120.445C495.781 120.581 495.859 120.794 495.859 121.086C495.859 121.372 495.781 121.586 495.625 121.727C495.474 121.867 495.292 121.938 495.078 121.938C494.854 121.938 494.667 121.867 494.516 121.727C494.37 121.586 494.297 121.372 494.297 121.086C494.297 120.794 494.37 120.581 494.516 120.445C494.667 120.305 494.854 120.234 495.078 120.234ZM502.516 123.281C503.531 123.281 504.299 123.531 504.82 124.031C505.341 124.526 505.602 125.323 505.602 126.422V132H504.32V126.508C504.32 125.794 504.156 125.26 503.828 124.906C503.505 124.552 503.008 124.375 502.336 124.375C501.388 124.375 500.721 124.643 500.336 125.18C499.951 125.716 499.758 126.495 499.758 127.516V132H498.461V123.438H499.508L499.703 124.672H499.773C499.956 124.37 500.188 124.117 500.469 123.914C500.75 123.706 501.065 123.549 501.414 123.445C501.763 123.336 502.13 123.281 502.516 123.281ZM512.086 124.453H509.953V132H508.656V124.453H507.141V123.828L508.656 123.398V122.828C508.656 122.109 508.763 121.526 508.977 121.078C509.19 120.625 509.5 120.292 509.906 120.078C510.312 119.865 510.807 119.758 511.391 119.758C511.719 119.758 512.018 119.786 512.289 119.844C512.565 119.901 512.807 119.966 513.016 120.039L512.68 121.062C512.503 121.005 512.302 120.953 512.078 120.906C511.859 120.854 511.635 120.828 511.406 120.828C510.911 120.828 510.544 120.99 510.305 121.312C510.07 121.63 509.953 122.13 509.953 122.812V123.438H512.086V124.453ZM521.047 127.703C521.047 128.406 520.956 129.034 520.773 129.586C520.591 130.138 520.328 130.604 519.984 130.984C519.641 131.365 519.224 131.656 518.734 131.859C518.25 132.057 517.701 132.156 517.086 132.156C516.513 132.156 515.987 132.057 515.508 131.859C515.034 131.656 514.622 131.365 514.273 130.984C513.93 130.604 513.661 130.138 513.469 129.586C513.281 129.034 513.188 128.406 513.188 127.703C513.188 126.766 513.346 125.969 513.664 125.312C513.982 124.651 514.435 124.148 515.023 123.805C515.617 123.456 516.323 123.281 517.141 123.281C517.922 123.281 518.604 123.456 519.188 123.805C519.776 124.154 520.232 124.659 520.555 125.32C520.883 125.977 521.047 126.771 521.047 127.703ZM514.531 127.703C514.531 128.391 514.622 128.987 514.805 129.492C514.987 129.997 515.268 130.388 515.648 130.664C516.029 130.94 516.518 131.078 517.117 131.078C517.711 131.078 518.198 130.94 518.578 130.664C518.964 130.388 519.247 129.997 519.43 129.492C519.612 128.987 519.703 128.391 519.703 127.703C519.703 127.021 519.612 126.432 519.43 125.938C519.247 125.438 518.966 125.052 518.586 124.781C518.206 124.51 517.714 124.375 517.109 124.375C516.219 124.375 515.565 124.669 515.148 125.258C514.737 125.846 514.531 126.661 514.531 127.703ZM527.18 123.281C527.352 123.281 527.531 123.292 527.719 123.312C527.906 123.328 528.073 123.352 528.219 123.383L528.055 124.586C527.914 124.549 527.758 124.521 527.586 124.5C527.414 124.479 527.253 124.469 527.102 124.469C526.758 124.469 526.432 124.539 526.125 124.68C525.823 124.815 525.557 125.013 525.328 125.273C525.099 125.529 524.919 125.839 524.789 126.203C524.659 126.562 524.594 126.964 524.594 127.406V132H523.289V123.438H524.367L524.508 125.016H524.562C524.74 124.698 524.953 124.409 525.203 124.148C525.453 123.883 525.742 123.672 526.07 123.516C526.404 123.359 526.773 123.281 527.18 123.281ZM539.133 123.281C540.076 123.281 540.786 123.529 541.266 124.023C541.745 124.513 541.984 125.302 541.984 126.391V132H540.703V126.453C540.703 125.76 540.552 125.242 540.25 124.898C539.953 124.549 539.51 124.375 538.922 124.375C538.094 124.375 537.492 124.615 537.117 125.094C536.742 125.573 536.555 126.279 536.555 127.211V132H535.266V126.453C535.266 125.99 535.198 125.604 535.062 125.297C534.932 124.99 534.734 124.76 534.469 124.609C534.208 124.453 533.878 124.375 533.477 124.375C532.909 124.375 532.453 124.492 532.109 124.727C531.766 124.961 531.516 125.31 531.359 125.773C531.208 126.232 531.133 126.797 531.133 127.469V132H529.836V123.438H530.883L531.078 124.648H531.148C531.32 124.352 531.536 124.102 531.797 123.898C532.057 123.695 532.349 123.542 532.672 123.438C532.995 123.333 533.339 123.281 533.703 123.281C534.354 123.281 534.898 123.404 535.336 123.648C535.779 123.888 536.099 124.255 536.297 124.75H536.367C536.648 124.255 537.034 123.888 537.523 123.648C538.013 123.404 538.549 123.281 539.133 123.281ZM547.852 123.297C548.872 123.297 549.63 123.526 550.125 123.984C550.62 124.443 550.867 125.174 550.867 126.18V132H549.922L549.672 130.734H549.609C549.37 131.047 549.12 131.31 548.859 131.523C548.599 131.732 548.297 131.891 547.953 132C547.615 132.104 547.198 132.156 546.703 132.156C546.182 132.156 545.719 132.065 545.312 131.883C544.911 131.701 544.594 131.424 544.359 131.055C544.13 130.685 544.016 130.216 544.016 129.648C544.016 128.794 544.354 128.138 545.031 127.68C545.708 127.221 546.74 126.971 548.125 126.93L549.602 126.867V126.344C549.602 125.604 549.443 125.086 549.125 124.789C548.807 124.492 548.359 124.344 547.781 124.344C547.333 124.344 546.906 124.409 546.5 124.539C546.094 124.669 545.708 124.823 545.344 125L544.945 124.016C545.331 123.818 545.773 123.648 546.273 123.508C546.773 123.367 547.299 123.297 547.852 123.297ZM549.586 127.781L548.281 127.836C547.214 127.878 546.461 128.052 546.023 128.359C545.586 128.667 545.367 129.102 545.367 129.664C545.367 130.154 545.516 130.516 545.812 130.75C546.109 130.984 546.503 131.102 546.992 131.102C547.753 131.102 548.375 130.891 548.859 130.469C549.344 130.047 549.586 129.414 549.586 128.57V127.781ZM556.305 131.094C556.518 131.094 556.737 131.076 556.961 131.039C557.185 131.003 557.367 130.958 557.508 130.906V131.914C557.357 131.982 557.146 132.039 556.875 132.086C556.609 132.133 556.349 132.156 556.094 132.156C555.641 132.156 555.229 132.078 554.859 131.922C554.49 131.76 554.193 131.49 553.969 131.109C553.75 130.729 553.641 130.203 553.641 129.531V124.453H552.422V123.82L553.648 123.312L554.164 121.453H554.945V123.438H557.453V124.453H554.945V129.492C554.945 130.029 555.068 130.43 555.312 130.695C555.562 130.961 555.893 131.094 556.305 131.094ZM560.539 123.438V132H559.242V123.438H560.539ZM559.906 120.234C560.12 120.234 560.302 120.305 560.453 120.445C560.609 120.581 560.688 120.794 560.688 121.086C560.688 121.372 560.609 121.586 560.453 121.727C560.302 121.867 560.12 121.938 559.906 121.938C559.682 121.938 559.495 121.867 559.344 121.727C559.198 121.586 559.125 121.372 559.125 121.086C559.125 120.794 559.198 120.581 559.344 120.445C559.495 120.305 559.682 120.234 559.906 120.234ZM565.172 132L561.922 123.438H563.312L565.195 128.617C565.326 128.971 565.458 129.362 565.594 129.789C565.729 130.216 565.823 130.56 565.875 130.82H565.93C565.992 130.56 566.096 130.216 566.242 129.789C566.388 129.357 566.521 128.966 566.641 128.617L568.523 123.438H569.914L566.656 132H565.172ZM574.492 123.297C575.513 123.297 576.271 123.526 576.766 123.984C577.26 124.443 577.508 125.174 577.508 126.18V132H576.562L576.312 130.734H576.25C576.01 131.047 575.76 131.31 575.5 131.523C575.24 131.732 574.938 131.891 574.594 132C574.255 132.104 573.839 132.156 573.344 132.156C572.823 132.156 572.359 132.065 571.953 131.883C571.552 131.701 571.234 131.424 571 131.055C570.771 130.685 570.656 130.216 570.656 129.648C570.656 128.794 570.995 128.138 571.672 127.68C572.349 127.221 573.38 126.971 574.766 126.93L576.242 126.867V126.344C576.242 125.604 576.083 125.086 575.766 124.789C575.448 124.492 575 124.344 574.422 124.344C573.974 124.344 573.547 124.409 573.141 124.539C572.734 124.669 572.349 124.823 571.984 125L571.586 124.016C571.971 123.818 572.414 123.648 572.914 123.508C573.414 123.367 573.94 123.297 574.492 123.297ZM576.227 127.781L574.922 127.836C573.854 127.878 573.102 128.052 572.664 128.359C572.227 128.667 572.008 129.102 572.008 129.664C572.008 130.154 572.156 130.516 572.453 130.75C572.75 130.984 573.143 131.102 573.633 131.102C574.393 131.102 575.016 130.891 575.5 130.469C575.984 130.047 576.227 129.414 576.227 128.57V127.781ZM579.984 131.188C579.984 130.823 580.073 130.565 580.25 130.414C580.427 130.258 580.643 130.18 580.898 130.18C581.164 130.18 581.388 130.258 581.57 130.414C581.753 130.565 581.844 130.823 581.844 131.188C581.844 131.547 581.753 131.81 581.57 131.977C581.388 132.138 581.164 132.219 580.898 132.219C580.643 132.219 580.427 132.138 580.25 131.977C580.073 131.81 579.984 131.547 579.984 131.188Z" fill="#38485C"/>
<rect x="134.5" y="114.5" width="23" height="23" rx="1.5" stroke="#007BC7"/>
<rect x="162.5" y="114.5" width="422" height="23" rx="1.5" stroke="#007BC7"/>
<path d="M359 80.6667C360.473 80.6667 361.667 79.4728 361.667 78C361.667 76.5272 360.473 75.3333 359 75.3333C357.527 75.3333 356.333 76.5272 356.333 78C356.333 79.4728 357.527 80.6667 359 80.6667ZM359.5 106L359.5 78L358.5 78L358.5 106L359.5 106Z" fill="#007BC7"/>
<path d="M146 163.333C147.473 163.333 148.667 164.527 148.667 166C148.667 167.473 147.473 168.667 146 168.667C144.527 168.667 143.333 167.473 143.333 166C143.333 164.527 144.527 163.333 146 163.333ZM146.5 138L146.5 166L145.5 166L145.5 138L146.5 138Z" fill="#007BC7"/>
<path d="M359 163.333C360.473 163.333 361.667 164.527 361.667 166C361.667 167.473 360.473 168.667 359 168.667C357.527 168.667 356.333 167.473 356.333 166C356.333 164.527 357.527 163.333 359 163.333ZM359.5 138L359.5 166L358.5 166L358.5 138L359.5 138Z" fill="#007BC7"/>
<path d="M324.664 65.065C324.499 65.065 324.369 65.0173 324.274 64.922C324.179 64.818 324.131 64.6837 324.131 64.519V56.316C324.131 56.1513 324.179 56.0213 324.274 55.926C324.369 55.822 324.499 55.77 324.664 55.77C324.829 55.77 324.959 55.822 325.054 55.926C325.149 56.0213 325.197 56.1513 325.197 56.316V64.519C325.197 64.6837 325.149 64.818 325.054 64.922C324.959 65.0173 324.829 65.065 324.664 65.065ZM324.846 55.068C324.785 55.1027 324.729 55.12 324.677 55.12C324.599 55.12 324.53 55.094 324.469 55.042C324.417 54.99 324.391 54.9293 324.391 54.86C324.391 54.782 324.421 54.7127 324.482 54.652L325.769 53.248C325.908 53.1007 326.059 53.027 326.224 53.027C326.345 53.027 326.449 53.0703 326.536 53.157C326.631 53.2437 326.679 53.3477 326.679 53.469C326.679 53.651 326.575 53.8113 326.367 53.95L324.846 55.068ZM330.226 64.233C330.53 64.259 330.681 64.3977 330.681 64.649C330.681 64.7963 330.625 64.909 330.512 64.987C330.408 65.0563 330.248 65.0823 330.031 65.065L329.68 65.039C328.987 64.987 328.476 64.779 328.146 64.415C327.817 64.051 327.652 63.5007 327.652 62.764V59.501H326.781C326.634 59.501 326.517 59.4663 326.43 59.397C326.352 59.319 326.313 59.2193 326.313 59.098C326.313 58.968 326.352 58.864 326.43 58.786C326.517 58.708 326.634 58.669 326.781 58.669H327.652V57.2C327.652 57.0353 327.7 56.9097 327.795 56.823C327.891 56.7277 328.021 56.68 328.185 56.68C328.341 56.68 328.467 56.7277 328.562 56.823C328.658 56.9097 328.705 57.0353 328.705 57.2V58.669H330.148C330.287 58.669 330.395 58.708 330.473 58.786C330.56 58.864 330.603 58.968 330.603 59.098C330.603 59.2193 330.56 59.319 330.473 59.397C330.395 59.4663 330.287 59.501 330.148 59.501H328.705V62.816C328.705 63.2927 328.801 63.6393 328.991 63.856C329.191 64.064 329.485 64.181 329.875 64.207L330.226 64.233ZM336.62 63.531C336.715 63.531 336.798 63.57 336.867 63.648C336.936 63.726 336.971 63.8257 336.971 63.947C336.971 64.1637 336.819 64.363 336.516 64.545C336.204 64.727 335.875 64.8657 335.528 64.961C335.181 65.0477 334.843 65.091 334.514 65.091C333.535 65.091 332.759 64.8007 332.187 64.22C331.624 63.6393 331.342 62.8377 331.342 61.815C331.342 61.165 331.468 60.593 331.719 60.099C331.97 59.5963 332.321 59.2063 332.772 58.929C333.231 58.6517 333.751 58.513 334.332 58.513C335.155 58.513 335.81 58.7817 336.295 59.319C336.78 59.8563 337.023 60.5843 337.023 61.503C337.023 61.6763 336.988 61.802 336.919 61.88C336.85 61.958 336.737 61.997 336.581 61.997H332.395C332.473 63.4877 333.179 64.233 334.514 64.233C334.852 64.233 335.142 64.1897 335.385 64.103C335.628 64.0077 335.888 63.882 336.165 63.726C336.39 63.596 336.542 63.531 336.62 63.531ZM334.345 59.332C333.79 59.332 333.344 59.5053 333.006 59.852C332.677 60.1987 332.482 60.6883 332.421 61.321H336.1C336.083 60.6797 335.922 60.19 335.619 59.852C335.316 59.5053 334.891 59.332 334.345 59.332ZM345.621 58.513C347.025 58.513 347.727 59.3493 347.727 61.022V64.545C347.727 64.7097 347.679 64.8397 347.584 64.935C347.488 65.0217 347.363 65.065 347.207 65.065C347.051 65.065 346.921 65.0217 346.817 64.935C346.721 64.8397 346.674 64.7097 346.674 64.545V61.048C346.674 60.4673 346.57 60.047 346.362 59.787C346.154 59.527 345.829 59.397 345.387 59.397C344.858 59.397 344.442 59.5747 344.139 59.93C343.835 60.2853 343.684 60.7663 343.684 61.373V64.545C343.684 64.7097 343.632 64.8397 343.528 64.935C343.432 65.0217 343.307 65.065 343.151 65.065C342.995 65.065 342.869 65.0217 342.774 64.935C342.678 64.8397 342.631 64.7097 342.631 64.545V61.048C342.631 60.4673 342.527 60.047 342.319 59.787C342.111 59.527 341.781 59.397 341.331 59.397C340.811 59.397 340.395 59.5747 340.083 59.93C339.779 60.2853 339.628 60.7663 339.628 61.373V64.545C339.628 64.7097 339.58 64.8397 339.485 64.935C339.389 65.0217 339.264 65.065 339.108 65.065C338.952 65.065 338.822 65.0217 338.718 64.935C338.622 64.8397 338.575 64.7097 338.575 64.545V59.059C338.575 58.903 338.622 58.7773 338.718 58.682C338.822 58.5867 338.952 58.539 339.108 58.539C339.255 58.539 339.376 58.5867 339.472 58.682C339.567 58.7687 339.615 58.89 339.615 59.046V59.67C339.805 59.2973 340.07 59.0113 340.408 58.812C340.746 58.6127 341.136 58.513 341.578 58.513C342.566 58.513 343.211 58.929 343.515 59.761C343.697 59.3797 343.974 59.0763 344.347 58.851C344.719 58.6257 345.144 58.513 345.621 58.513ZM358.079 55.77C358.244 55.77 358.374 55.8177 358.469 55.913C358.565 56.0083 358.612 56.1297 358.612 56.277V64.545C358.612 64.701 358.565 64.8267 358.469 64.922C358.374 65.0173 358.244 65.065 358.079 65.065C357.915 65.065 357.785 65.0173 357.689 64.922C357.603 64.8267 357.559 64.701 357.559 64.545V63.843C357.369 64.2417 357.087 64.5493 356.714 64.766C356.35 64.9827 355.921 65.091 355.427 65.091C354.873 65.091 354.383 64.9523 353.958 64.675C353.534 64.3977 353.204 64.012 352.97 63.518C352.736 63.0153 352.619 62.4347 352.619 61.776C352.619 61.126 352.736 60.554 352.97 60.06C353.204 59.566 353.534 59.1847 353.958 58.916C354.383 58.6473 354.873 58.513 355.427 58.513C355.921 58.513 356.35 58.6213 356.714 58.838C357.087 59.0547 357.369 59.3623 357.559 59.761V56.277C357.559 56.121 357.603 55.9997 357.689 55.913C357.785 55.8177 357.915 55.77 358.079 55.77ZM355.635 64.22C356.251 64.22 356.723 64.012 357.052 63.596C357.39 63.1713 357.559 62.5733 357.559 61.802C357.559 61.0307 357.39 60.437 357.052 60.021C356.723 59.605 356.251 59.397 355.635 59.397C355.02 59.397 354.539 59.605 354.192 60.021C353.854 60.437 353.685 61.022 353.685 61.776C353.685 62.5473 353.854 63.1497 354.192 63.583C354.539 64.0077 355.02 64.22 355.635 64.22ZM365.464 63.531C365.559 63.531 365.642 63.57 365.711 63.648C365.78 63.726 365.815 63.8257 365.815 63.947C365.815 64.1637 365.663 64.363 365.36 64.545C365.048 64.727 364.719 64.8657 364.372 64.961C364.025 65.0477 363.687 65.091 363.358 65.091C362.379 65.091 361.603 64.8007 361.031 64.22C360.468 63.6393 360.186 62.8377 360.186 61.815C360.186 61.165 360.312 60.593 360.563 60.099C360.814 59.5963 361.165 59.2063 361.616 58.929C362.075 58.6517 362.595 58.513 363.176 58.513C363.999 58.513 364.654 58.7817 365.139 59.319C365.624 59.8563 365.867 60.5843 365.867 61.503C365.867 61.6763 365.832 61.802 365.763 61.88C365.694 61.958 365.581 61.997 365.425 61.997H361.239C361.317 63.4877 362.023 64.233 363.358 64.233C363.696 64.233 363.986 64.1897 364.229 64.103C364.472 64.0077 364.732 63.882 365.009 63.726C365.234 63.596 365.386 63.531 365.464 63.531ZM363.189 59.332C362.634 59.332 362.188 59.5053 361.85 59.852C361.521 60.1987 361.326 60.6883 361.265 61.321H364.944C364.927 60.6797 364.766 60.19 364.463 59.852C364.16 59.5053 363.735 59.332 363.189 59.332ZM371.303 65.065C371.147 65.065 371.017 65.0217 370.913 64.935C370.818 64.8397 370.77 64.7097 370.77 64.545V56.29C370.77 56.1253 370.818 55.9997 370.913 55.913C371.017 55.8177 371.147 55.77 371.303 55.77C371.45 55.77 371.572 55.8177 371.667 55.913C371.771 55.9997 371.823 56.1253 371.823 56.29V64.545C371.823 64.7097 371.771 64.8397 371.667 64.935C371.572 65.0217 371.45 65.065 371.303 65.065ZM374.324 65.065C374.168 65.065 374.038 65.0217 373.934 64.935C373.839 64.8397 373.791 64.7097 373.791 64.545V59.059C373.791 58.8943 373.839 58.7687 373.934 58.682C374.038 58.5867 374.168 58.539 374.324 58.539C374.48 58.539 374.606 58.5867 374.701 58.682C374.797 58.7687 374.844 58.8943 374.844 59.059V64.545C374.844 64.7183 374.797 64.8483 374.701 64.935C374.606 65.0217 374.48 65.065 374.324 65.065ZM374.324 57.174C374.116 57.174 373.947 57.1133 373.817 56.992C373.687 56.8707 373.622 56.7103 373.622 56.511C373.622 56.3203 373.687 56.1643 373.817 56.043C373.947 55.9217 374.116 55.861 374.324 55.861C374.532 55.861 374.701 55.9217 374.831 56.043C374.961 56.1643 375.026 56.3203 375.026 56.511C375.026 56.7103 374.961 56.8707 374.831 56.992C374.701 57.1133 374.532 57.174 374.324 57.174ZM378.945 65.091C378.546 65.091 378.165 65.0433 377.801 64.948C377.446 64.8527 377.129 64.7183 376.852 64.545C376.696 64.441 376.583 64.3457 376.514 64.259C376.453 64.1637 376.423 64.051 376.423 63.921C376.423 63.8083 376.453 63.7173 376.514 63.648C376.583 63.57 376.67 63.531 376.774 63.531C376.878 63.531 377.03 63.596 377.229 63.726C377.489 63.882 377.745 64.0077 377.996 64.103C378.256 64.1897 378.577 64.233 378.958 64.233C379.426 64.233 379.79 64.1507 380.05 63.986C380.31 63.8213 380.44 63.583 380.44 63.271C380.44 63.0803 380.392 62.9287 380.297 62.816C380.202 62.6947 380.037 62.5907 379.803 62.504C379.569 62.4087 379.227 62.3133 378.776 62.218C378.013 62.0533 377.467 61.8323 377.138 61.555C376.809 61.2777 376.644 60.9007 376.644 60.424C376.644 60.0513 376.748 59.722 376.956 59.436C377.164 59.15 377.45 58.9247 377.814 58.76C378.187 58.5953 378.607 58.513 379.075 58.513C379.413 58.513 379.738 58.5607 380.05 58.656C380.371 58.7427 380.652 58.8683 380.895 59.033C381.19 59.241 381.337 59.4577 381.337 59.683C381.337 59.7957 381.302 59.891 381.233 59.969C381.164 60.047 381.081 60.086 380.986 60.086C380.882 60.086 380.726 60.0123 380.518 59.865C380.275 59.709 380.046 59.5877 379.829 59.501C379.612 59.4143 379.344 59.371 379.023 59.371C378.616 59.371 378.286 59.462 378.035 59.644C377.792 59.826 377.671 60.0687 377.671 60.372C377.671 60.5627 377.714 60.7187 377.801 60.84C377.896 60.9527 378.048 61.0567 378.256 61.152C378.473 61.2387 378.78 61.3253 379.179 61.412C379.768 61.542 380.223 61.685 380.544 61.841C380.873 61.997 381.107 62.1877 381.246 62.413C381.385 62.6383 381.454 62.9243 381.454 63.271C381.454 63.817 381.224 64.259 380.765 64.597C380.306 64.9263 379.699 65.091 378.945 65.091ZM385.921 64.233C386.224 64.259 386.376 64.3977 386.376 64.649C386.376 64.7963 386.319 64.909 386.207 64.987C386.103 65.0563 385.942 65.0823 385.726 65.065L385.375 65.039C384.681 64.987 384.17 64.779 383.841 64.415C383.511 64.051 383.347 63.5007 383.347 62.764V59.501H382.476C382.328 59.501 382.211 59.4663 382.125 59.397C382.047 59.319 382.008 59.2193 382.008 59.098C382.008 58.968 382.047 58.864 382.125 58.786C382.211 58.708 382.328 58.669 382.476 58.669H383.347V57.2C383.347 57.0353 383.394 56.9097 383.49 56.823C383.585 56.7277 383.715 56.68 383.88 56.68C384.036 56.68 384.161 56.7277 384.257 56.823C384.352 56.9097 384.4 57.0353 384.4 57.2V58.669H385.843C385.981 58.669 386.09 58.708 386.168 58.786C386.254 58.864 386.298 58.968 386.298 59.098C386.298 59.2193 386.254 59.319 386.168 59.397C386.09 59.4663 385.981 59.501 385.843 59.501H384.4V62.816C384.4 63.2927 384.495 63.6393 384.686 63.856C384.885 64.064 385.18 64.181 385.57 64.207L385.921 64.233ZM390 58.513C391.586 58.513 392.379 59.345 392.379 61.009V64.545C392.379 64.701 392.332 64.8267 392.236 64.922C392.15 65.0173 392.028 65.065 391.872 65.065C391.716 65.065 391.591 65.0173 391.495 64.922C391.4 64.8267 391.352 64.701 391.352 64.545V63.921C391.188 64.2937 390.936 64.584 390.598 64.792C390.26 64.9913 389.87 65.091 389.428 65.091C389.021 65.091 388.644 65.0087 388.297 64.844C387.959 64.6793 387.691 64.4497 387.491 64.155C387.292 63.8603 387.192 63.5353 387.192 63.18C387.192 62.7033 387.314 62.335 387.556 62.075C387.799 61.8063 388.198 61.6157 388.752 61.503C389.307 61.3817 390.078 61.321 391.066 61.321H391.352V60.892C391.352 60.372 391.244 59.9907 391.027 59.748C390.819 59.5053 390.477 59.384 390 59.384C389.411 59.384 388.813 59.5443 388.206 59.865C387.972 60.0123 387.808 60.086 387.712 60.086C387.608 60.086 387.522 60.047 387.452 59.969C387.383 59.891 387.348 59.7913 387.348 59.67C387.348 59.5487 387.383 59.4447 387.452 59.358C387.53 59.2627 387.652 59.1673 387.816 59.072C388.12 58.8987 388.462 58.7643 388.843 58.669C389.233 58.565 389.619 58.513 390 58.513ZM389.571 64.259C390.091 64.259 390.516 64.0857 390.845 63.739C391.183 63.3837 391.352 62.9287 391.352 62.374V61.997H391.118C390.356 61.997 389.775 62.0317 389.376 62.101C388.978 62.1617 388.692 62.27 388.518 62.426C388.354 62.5733 388.271 62.7943 388.271 63.089C388.271 63.427 388.393 63.7087 388.635 63.934C388.887 64.1507 389.199 64.259 389.571 64.259Z" fill="#38485C"/>
<path d="M131.985 187.065C131.821 187.065 131.691 187.017 131.595 186.922C131.5 186.818 131.452 186.684 131.452 186.519V178.316C131.452 178.151 131.5 178.021 131.595 177.926C131.691 177.822 131.821 177.77 131.985 177.77C132.15 177.77 132.28 177.822 132.375 177.926C132.471 178.021 132.518 178.151 132.518 178.316V186.519C132.518 186.684 132.471 186.818 132.375 186.922C132.28 187.017 132.15 187.065 131.985 187.065ZM132.167 177.068C132.107 177.103 132.05 177.12 131.998 177.12C131.92 177.12 131.851 177.094 131.79 177.042C131.738 176.99 131.712 176.929 131.712 176.86C131.712 176.782 131.743 176.713 131.803 176.652L133.09 175.248C133.229 175.101 133.381 175.027 133.545 175.027C133.667 175.027 133.771 175.07 133.857 175.157C133.953 175.244 134 175.348 134 175.469C134 175.651 133.896 175.811 133.688 175.95L132.167 177.068ZM137.235 187.091C136.646 187.091 136.122 186.957 135.662 186.688C135.212 186.419 134.861 186.038 134.609 185.544C134.367 185.05 134.245 184.478 134.245 183.828C134.245 183.178 134.371 182.602 134.622 182.099C134.882 181.596 135.242 181.206 135.701 180.929C136.161 180.652 136.689 180.513 137.287 180.513C137.617 180.513 137.942 180.561 138.262 180.656C138.592 180.743 138.878 180.873 139.12 181.046C139.276 181.15 139.385 181.254 139.445 181.358C139.515 181.453 139.549 181.562 139.549 181.683C139.549 181.804 139.515 181.904 139.445 181.982C139.385 182.06 139.302 182.099 139.198 182.099C139.138 182.099 139.073 182.082 139.003 182.047C138.934 182.012 138.873 181.978 138.821 181.943C138.778 181.908 138.748 181.887 138.73 181.878C138.505 181.731 138.288 181.614 138.08 181.527C137.881 181.44 137.634 181.397 137.339 181.397C136.707 181.397 136.213 181.614 135.857 182.047C135.511 182.472 135.337 183.065 135.337 183.828C135.337 184.591 135.511 185.18 135.857 185.596C136.213 186.012 136.707 186.22 137.339 186.22C137.634 186.22 137.885 186.177 138.093 186.09C138.31 186.003 138.527 185.886 138.743 185.739C138.839 185.678 138.93 185.626 139.016 185.583C139.103 185.54 139.177 185.518 139.237 185.518C139.333 185.518 139.411 185.557 139.471 185.635C139.541 185.713 139.575 185.813 139.575 185.934C139.575 186.047 139.545 186.151 139.484 186.246C139.424 186.333 139.311 186.432 139.146 186.545C138.904 186.71 138.609 186.844 138.262 186.948C137.924 187.043 137.582 187.091 137.235 187.091ZM143.469 187.091C142.871 187.091 142.342 186.957 141.883 186.688C141.432 186.419 141.081 186.038 140.83 185.544C140.587 185.041 140.466 184.461 140.466 183.802C140.466 183.143 140.587 182.567 140.83 182.073C141.081 181.57 141.432 181.185 141.883 180.916C142.342 180.647 142.871 180.513 143.469 180.513C144.067 180.513 144.596 180.647 145.055 180.916C145.514 181.185 145.865 181.57 146.108 182.073C146.359 182.567 146.485 183.143 146.485 183.802C146.485 184.461 146.359 185.041 146.108 185.544C145.865 186.038 145.514 186.419 145.055 186.688C144.596 186.957 144.067 187.091 143.469 187.091ZM143.469 186.22C144.093 186.22 144.57 186.016 144.899 185.609C145.237 185.193 145.406 184.591 145.406 183.802C145.406 183.031 145.237 182.437 144.899 182.021C144.561 181.596 144.084 181.384 143.469 181.384C142.854 181.384 142.377 181.596 142.039 182.021C141.701 182.437 141.532 183.031 141.532 183.802C141.532 184.582 141.697 185.18 142.026 185.596C142.364 186.012 142.845 186.22 143.469 186.22ZM151.239 180.513C152.756 180.513 153.514 181.349 153.514 183.022V186.545C153.514 186.71 153.466 186.84 153.371 186.935C153.284 187.022 153.159 187.065 152.994 187.065C152.829 187.065 152.699 187.022 152.604 186.935C152.509 186.84 152.461 186.71 152.461 186.545V183.087C152.461 182.498 152.344 182.069 152.11 181.8C151.885 181.531 151.521 181.397 151.018 181.397C150.437 181.397 149.974 181.575 149.627 181.93C149.28 182.285 149.107 182.766 149.107 183.373V186.545C149.107 186.71 149.059 186.84 148.964 186.935C148.877 187.022 148.752 187.065 148.587 187.065C148.422 187.065 148.292 187.022 148.197 186.935C148.102 186.84 148.054 186.71 148.054 186.545V181.059C148.054 180.903 148.102 180.777 148.197 180.682C148.292 180.587 148.422 180.539 148.587 180.539C148.743 180.539 148.864 180.587 148.951 180.682C149.046 180.777 149.094 180.899 149.094 181.046V181.709C149.302 181.319 149.592 181.024 149.965 180.825C150.338 180.617 150.762 180.513 151.239 180.513ZM158.069 187.091C157.471 187.091 156.942 186.957 156.483 186.688C156.032 186.419 155.681 186.038 155.43 185.544C155.187 185.041 155.066 184.461 155.066 183.802C155.066 183.143 155.187 182.567 155.43 182.073C155.681 181.57 156.032 181.185 156.483 180.916C156.942 180.647 157.471 180.513 158.069 180.513C158.667 180.513 159.195 180.647 159.655 180.916C160.114 181.185 160.465 181.57 160.708 182.073C160.959 182.567 161.085 183.143 161.085 183.802C161.085 184.461 160.959 185.041 160.708 185.544C160.465 186.038 160.114 186.419 159.655 186.688C159.195 186.957 158.667 187.091 158.069 187.091ZM158.069 186.22C158.693 186.22 159.169 186.016 159.499 185.609C159.837 185.193 160.006 184.591 160.006 183.802C160.006 183.031 159.837 182.437 159.499 182.021C159.161 181.596 158.684 181.384 158.069 181.384C157.453 181.384 156.977 181.596 156.639 182.021C156.301 182.437 156.132 183.031 156.132 183.802C156.132 184.582 156.296 185.18 156.626 185.596C156.964 186.012 157.445 186.22 158.069 186.22Z" fill="#38485C"/>
<path d="M334.152 187.104C333.286 187.104 332.536 186.918 331.903 186.545C331.271 186.164 330.781 185.622 330.434 184.92C330.096 184.209 329.927 183.373 329.927 182.411C329.927 181.458 330.096 180.63 330.434 179.928C330.781 179.217 331.271 178.676 331.903 178.303C332.536 177.922 333.286 177.731 334.152 177.731C334.733 177.731 335.279 177.826 335.79 178.017C336.31 178.199 336.761 178.463 337.142 178.81C337.281 178.94 337.35 179.092 337.35 179.265C337.35 179.386 337.316 179.495 337.246 179.59C337.177 179.677 337.095 179.72 336.999 179.72C336.895 179.72 336.77 179.672 336.622 179.577C336.18 179.23 335.777 178.988 335.413 178.849C335.058 178.71 334.646 178.641 334.178 178.641C333.173 178.641 332.397 178.97 331.851 179.629C331.314 180.279 331.045 181.206 331.045 182.411C331.045 183.624 331.314 184.56 331.851 185.219C332.397 185.869 333.173 186.194 334.178 186.194C334.638 186.194 335.049 186.125 335.413 185.986C335.777 185.847 336.18 185.605 336.622 185.258C336.77 185.163 336.895 185.115 336.999 185.115C337.095 185.115 337.177 185.158 337.246 185.245C337.316 185.332 337.35 185.44 337.35 185.57C337.35 185.743 337.281 185.895 337.142 186.025C336.761 186.372 336.31 186.64 335.79 186.831C335.279 187.013 334.733 187.104 334.152 187.104ZM341.406 187.091C340.808 187.091 340.28 186.957 339.82 186.688C339.37 186.419 339.019 186.038 338.767 185.544C338.525 185.041 338.403 184.461 338.403 183.802C338.403 183.143 338.525 182.567 338.767 182.073C339.019 181.57 339.37 181.185 339.82 180.916C340.28 180.647 340.808 180.513 341.406 180.513C342.004 180.513 342.533 180.647 342.992 180.916C343.452 181.185 343.803 181.57 344.045 182.073C344.297 182.567 344.422 183.143 344.422 183.802C344.422 184.461 344.297 185.041 344.045 185.544C343.803 186.038 343.452 186.419 342.992 186.688C342.533 186.957 342.004 187.091 341.406 187.091ZM341.406 186.22C342.03 186.22 342.507 186.016 342.836 185.609C343.174 185.193 343.343 184.591 343.343 183.802C343.343 183.031 343.174 182.437 342.836 182.021C342.498 181.596 342.022 181.384 341.406 181.384C340.791 181.384 340.314 181.596 339.976 182.021C339.638 182.437 339.469 183.031 339.469 183.802C339.469 184.582 339.634 185.18 339.963 185.596C340.301 186.012 340.782 186.22 341.406 186.22ZM349.176 180.513C350.693 180.513 351.451 181.349 351.451 183.022V186.545C351.451 186.71 351.403 186.84 351.308 186.935C351.221 187.022 351.096 187.065 350.931 187.065C350.766 187.065 350.636 187.022 350.541 186.935C350.446 186.84 350.398 186.71 350.398 186.545V183.087C350.398 182.498 350.281 182.069 350.047 181.8C349.822 181.531 349.458 181.397 348.955 181.397C348.374 181.397 347.911 181.575 347.564 181.93C347.217 182.285 347.044 182.766 347.044 183.373V186.545C347.044 186.71 346.996 186.84 346.901 186.935C346.814 187.022 346.689 187.065 346.524 187.065C346.359 187.065 346.229 187.022 346.134 186.935C346.039 186.84 345.991 186.71 345.991 186.545V181.059C345.991 180.903 346.039 180.777 346.134 180.682C346.229 180.587 346.359 180.539 346.524 180.539C346.68 180.539 346.801 180.587 346.888 180.682C346.983 180.777 347.031 180.899 347.031 181.046V181.709C347.239 181.319 347.529 181.024 347.902 180.825C348.275 180.617 348.699 180.513 349.176 180.513ZM356.305 186.233C356.608 186.259 356.76 186.398 356.76 186.649C356.76 186.796 356.703 186.909 356.591 186.987C356.487 187.056 356.326 187.082 356.11 187.065L355.759 187.039C355.065 186.987 354.554 186.779 354.225 186.415C353.895 186.051 353.731 185.501 353.731 184.764V181.501H352.86C352.712 181.501 352.595 181.466 352.509 181.397C352.431 181.319 352.392 181.219 352.392 181.098C352.392 180.968 352.431 180.864 352.509 180.786C352.595 180.708 352.712 180.669 352.86 180.669H353.731V179.2C353.731 179.035 353.778 178.91 353.874 178.823C353.969 178.728 354.099 178.68 354.264 178.68C354.42 178.68 354.545 178.728 354.641 178.823C354.736 178.91 354.784 179.035 354.784 179.2V180.669H356.227C356.365 180.669 356.474 180.708 356.552 180.786C356.638 180.864 356.682 180.968 356.682 181.098C356.682 181.219 356.638 181.319 356.552 181.397C356.474 181.466 356.365 181.501 356.227 181.501H354.784V184.816C354.784 185.293 354.879 185.639 355.07 185.856C355.269 186.064 355.564 186.181 355.954 186.207L356.305 186.233ZM362.699 185.531C362.794 185.531 362.876 185.57 362.946 185.648C363.015 185.726 363.05 185.826 363.05 185.947C363.05 186.164 362.898 186.363 362.595 186.545C362.283 186.727 361.953 186.866 361.607 186.961C361.26 187.048 360.922 187.091 360.593 187.091C359.613 187.091 358.838 186.801 358.266 186.22C357.702 185.639 357.421 184.838 357.421 183.815C357.421 183.165 357.546 182.593 357.798 182.099C358.049 181.596 358.4 181.206 358.851 180.929C359.31 180.652 359.83 180.513 360.411 180.513C361.234 180.513 361.888 180.782 362.374 181.319C362.859 181.856 363.102 182.584 363.102 183.503C363.102 183.676 363.067 183.802 362.998 183.88C362.928 183.958 362.816 183.997 362.66 183.997H358.474C358.552 185.488 359.258 186.233 360.593 186.233C360.931 186.233 361.221 186.19 361.464 186.103C361.706 186.008 361.966 185.882 362.244 185.726C362.469 185.596 362.621 185.531 362.699 185.531ZM360.424 181.332C359.869 181.332 359.423 181.505 359.085 181.852C358.755 182.199 358.56 182.688 358.5 183.321H362.179C362.161 182.68 362.001 182.19 361.698 181.852C361.394 181.505 360.97 181.332 360.424 181.332ZM367.838 180.513C369.355 180.513 370.113 181.349 370.113 183.022V186.545C370.113 186.71 370.066 186.84 369.97 186.935C369.884 187.022 369.758 187.065 369.593 187.065C369.429 187.065 369.299 187.022 369.203 186.935C369.108 186.84 369.06 186.71 369.06 186.545V183.087C369.06 182.498 368.943 182.069 368.709 181.8C368.484 181.531 368.12 181.397 367.617 181.397C367.037 181.397 366.573 181.575 366.226 181.93C365.88 182.285 365.706 182.766 365.706 183.373V186.545C365.706 186.71 365.659 186.84 365.563 186.935C365.477 187.022 365.351 187.065 365.186 187.065C365.022 187.065 364.892 187.022 364.796 186.935C364.701 186.84 364.653 186.71 364.653 186.545V181.059C364.653 180.903 364.701 180.777 364.796 180.682C364.892 180.587 365.022 180.539 365.186 180.539C365.342 180.539 365.464 180.587 365.55 180.682C365.646 180.777 365.693 180.899 365.693 181.046V181.709C365.901 181.319 366.192 181.024 366.564 180.825C366.937 180.617 367.362 180.513 367.838 180.513ZM372.575 187.065C372.419 187.065 372.289 187.022 372.185 186.935C372.09 186.84 372.042 186.71 372.042 186.545V181.059C372.042 180.894 372.09 180.769 372.185 180.682C372.289 180.587 372.419 180.539 372.575 180.539C372.731 180.539 372.857 180.587 372.952 180.682C373.047 180.769 373.095 180.894 373.095 181.059V186.545C373.095 186.718 373.047 186.848 372.952 186.935C372.857 187.022 372.731 187.065 372.575 187.065ZM372.575 179.174C372.367 179.174 372.198 179.113 372.068 178.992C371.938 178.871 371.873 178.71 371.873 178.511C371.873 178.32 371.938 178.164 372.068 178.043C372.198 177.922 372.367 177.861 372.575 177.861C372.783 177.861 372.952 177.922 373.082 178.043C373.212 178.164 373.277 178.32 373.277 178.511C373.277 178.71 373.212 178.871 373.082 178.992C372.952 179.113 372.783 179.174 372.575 179.174ZM380.146 177.77C380.311 177.77 380.441 177.818 380.536 177.913C380.632 178.008 380.679 178.13 380.679 178.277V186.545C380.679 186.701 380.632 186.827 380.536 186.922C380.441 187.017 380.311 187.065 380.146 187.065C379.982 187.065 379.852 187.017 379.756 186.922C379.67 186.827 379.626 186.701 379.626 186.545V185.843C379.436 186.242 379.154 186.549 378.781 186.766C378.417 186.983 377.988 187.091 377.494 187.091C376.94 187.091 376.45 186.952 376.025 186.675C375.601 186.398 375.271 186.012 375.037 185.518C374.803 185.015 374.686 184.435 374.686 183.776C374.686 183.126 374.803 182.554 375.037 182.06C375.271 181.566 375.601 181.185 376.025 180.916C376.45 180.647 376.94 180.513 377.494 180.513C377.988 180.513 378.417 180.621 378.781 180.838C379.154 181.055 379.436 181.362 379.626 181.761V178.277C379.626 178.121 379.67 178 379.756 177.913C379.852 177.818 379.982 177.77 380.146 177.77ZM377.702 186.22C378.318 186.22 378.79 186.012 379.119 185.596C379.457 185.171 379.626 184.573 379.626 183.802C379.626 183.031 379.457 182.437 379.119 182.021C378.79 181.605 378.318 181.397 377.702 181.397C377.087 181.397 376.606 181.605 376.259 182.021C375.921 182.437 375.752 183.022 375.752 183.776C375.752 184.547 375.921 185.15 376.259 185.583C376.606 186.008 377.087 186.22 377.702 186.22ZM385.256 187.091C384.658 187.091 384.129 186.957 383.67 186.688C383.219 186.419 382.868 186.038 382.617 185.544C382.374 185.041 382.253 184.461 382.253 183.802C382.253 183.143 382.374 182.567 382.617 182.073C382.868 181.57 383.219 181.185 383.67 180.916C384.129 180.647 384.658 180.513 385.256 180.513C385.854 180.513 386.382 180.647 386.842 180.916C387.301 181.185 387.652 181.57 387.895 182.073C388.146 182.567 388.272 183.143 388.272 183.802C388.272 184.461 388.146 185.041 387.895 185.544C387.652 186.038 387.301 186.419 386.842 186.688C386.382 186.957 385.854 187.091 385.256 187.091ZM385.256 186.22C385.88 186.22 386.356 186.016 386.686 185.609C387.024 185.193 387.193 184.591 387.193 183.802C387.193 183.031 387.024 182.437 386.686 182.021C386.348 181.596 385.871 181.384 385.256 181.384C384.64 181.384 384.164 181.596 383.826 182.021C383.488 182.437 383.319 183.031 383.319 183.802C383.319 184.582 383.483 185.18 383.813 185.596C384.151 186.012 384.632 186.22 385.256 186.22Z" fill="#38485C"/>
<defs>
<clipPath id="clip0_4732_1111">
<rect width="24" height="24" fill="white" transform="translate(134 114)"/>
</clipPath>
</defs>
</svg>
