<svg width="1366" height="86" viewBox="0 0 1366 86" fill="none" xmlns="http://www.w3.org/2000/svg">
<rect width="1366" height="84" fill="white"/>
<g clip-path="url(#clip0_81_3511)">
<path d="M216.261 53.9377L201.685 25.7714C200.427 23.2711 197.851 21.5598 194.861 21.5598H194.854C191.867 21.5598 189.288 23.2711 188.03 25.7714L177.77 45.5974C176.624 43.5582 174.797 41.9586 172.593 41.0939C175.053 39.3142 176.656 36.414 176.656 33.1427C176.656 29.349 174.502 26.0669 171.353 24.4384C168.579 22.9793 165.412 22.1543 162.054 22.1543H146.707C143.551 22.1543 141 24.705 141 27.8538V56.4164C141 59.5652 143.551 62.116 146.707 62.116H163.305C166.504 62.116 169.548 61.4531 172.311 60.2714L173.363 59.7634C173.421 59.7345 173.479 59.7057 173.536 59.6769C174.534 61.3306 176.339 62.4438 178.418 62.4438C180.728 62.4438 182.716 61.0748 183.613 59.0969C184.06 58.0521 185.069 57.3135 186.258 57.2559H203.454C204.646 57.3135 205.651 58.0521 206.098 59.0969C206.992 61.0748 208.984 62.4438 211.293 62.4438C214.446 62.4438 216.996 59.8859 216.996 56.7479C216.996 55.7247 216.733 54.7664 216.258 53.9413" fill="#FFD305"/>
</g>
<rect x="444" y="22" width="66" height="40" rx="8" fill="#007BC7"/>
<path d="M458.304 48.126C458.064 48.126 457.878 48.06 457.746 47.928C457.626 47.784 457.566 47.592 457.566 47.352V35.958C457.566 35.706 457.626 35.514 457.746 35.382C457.878 35.25 458.064 35.184 458.304 35.184C458.544 35.184 458.724 35.25 458.844 35.382C458.976 35.514 459.042 35.706 459.042 35.958V47.352C459.042 47.592 458.982 47.784 458.862 47.928C458.742 48.06 458.556 48.126 458.304 48.126ZM462.711 48.126C462.471 48.126 462.291 48.06 462.171 47.928C462.051 47.796 461.991 47.61 461.991 47.37V39.864C461.991 39.624 462.051 39.444 462.171 39.324C462.291 39.192 462.465 39.126 462.693 39.126C462.921 39.126 463.095 39.192 463.215 39.324C463.347 39.444 463.413 39.624 463.413 39.864V41.412L463.215 41.196C463.467 40.5 463.875 39.978 464.439 39.63C465.015 39.27 465.675 39.09 466.419 39.09C467.115 39.09 467.691 39.216 468.147 39.468C468.615 39.72 468.963 40.104 469.191 40.62C469.419 41.124 469.533 41.766 469.533 42.546V47.37C469.533 47.61 469.467 47.796 469.335 47.928C469.215 48.06 469.041 48.126 468.813 48.126C468.573 48.126 468.387 48.06 468.255 47.928C468.135 47.796 468.075 47.61 468.075 47.37V42.636C468.075 41.82 467.913 41.226 467.589 40.854C467.277 40.47 466.773 40.278 466.077 40.278C465.273 40.278 464.631 40.53 464.151 41.034C463.683 41.526 463.449 42.186 463.449 43.014V47.37C463.449 47.874 463.203 48.126 462.711 48.126ZM472.942 48.09C472.702 48.09 472.522 48.024 472.402 47.892C472.282 47.748 472.222 47.55 472.222 47.298V39.936C472.222 39.684 472.282 39.492 472.402 39.36C472.522 39.228 472.702 39.162 472.942 39.162C473.17 39.162 473.35 39.228 473.482 39.36C473.614 39.492 473.68 39.684 473.68 39.936V47.298C473.68 47.55 473.614 47.748 473.482 47.892C473.362 48.024 473.182 48.09 472.942 48.09ZM472.942 37.146C472.642 37.146 472.408 37.068 472.24 36.912C472.072 36.744 471.988 36.522 471.988 36.246C471.988 35.958 472.072 35.742 472.24 35.598C472.408 35.442 472.642 35.364 472.942 35.364C473.254 35.364 473.488 35.442 473.644 35.598C473.812 35.742 473.896 35.958 473.896 36.246C473.896 36.522 473.812 36.744 473.644 36.912C473.488 37.068 473.254 37.146 472.942 37.146ZM480.113 48.162C479.237 48.162 478.481 47.97 477.845 47.586C477.209 47.202 476.717 46.668 476.369 45.984C476.033 45.288 475.865 44.484 475.865 43.572C475.865 42.876 475.961 42.252 476.153 41.7C476.345 41.148 476.627 40.68 476.999 40.296C477.371 39.9 477.815 39.6 478.331 39.396C478.859 39.192 479.453 39.09 480.113 39.09C480.545 39.09 480.995 39.156 481.463 39.288C481.931 39.42 482.357 39.648 482.741 39.972C482.861 40.056 482.939 40.158 482.975 40.278C483.011 40.398 483.011 40.518 482.975 40.638C482.939 40.746 482.879 40.842 482.795 40.926C482.711 40.998 482.603 41.04 482.471 41.052C482.351 41.064 482.225 41.022 482.093 40.926C481.781 40.686 481.463 40.518 481.139 40.422C480.815 40.326 480.503 40.278 480.203 40.278C479.735 40.278 479.327 40.356 478.979 40.512C478.631 40.656 478.337 40.866 478.097 41.142C477.857 41.418 477.671 41.76 477.539 42.168C477.419 42.576 477.359 43.05 477.359 43.59C477.359 44.634 477.605 45.462 478.097 46.074C478.589 46.674 479.291 46.974 480.203 46.974C480.503 46.974 480.809 46.926 481.121 46.83C481.445 46.734 481.769 46.566 482.093 46.326C482.225 46.23 482.351 46.188 482.471 46.2C482.591 46.212 482.693 46.26 482.777 46.344C482.861 46.416 482.915 46.512 482.939 46.632C482.975 46.752 482.975 46.872 482.939 46.992C482.903 47.1 482.825 47.196 482.705 47.28C482.321 47.592 481.901 47.82 481.445 47.964C480.989 48.096 480.545 48.162 480.113 48.162ZM485.457 48.09C485.217 48.09 485.037 48.024 484.917 47.892C484.797 47.748 484.737 47.55 484.737 47.298V39.936C484.737 39.684 484.797 39.492 484.917 39.36C485.037 39.228 485.217 39.162 485.457 39.162C485.685 39.162 485.865 39.228 485.997 39.36C486.129 39.492 486.195 39.684 486.195 39.936V47.298C486.195 47.55 486.129 47.748 485.997 47.892C485.877 48.024 485.697 48.09 485.457 48.09ZM485.457 37.146C485.157 37.146 484.923 37.068 484.755 36.912C484.587 36.744 484.503 36.522 484.503 36.246C484.503 35.958 484.587 35.742 484.755 35.598C484.923 35.442 485.157 35.364 485.457 35.364C485.769 35.364 486.003 35.442 486.159 35.598C486.327 35.742 486.411 35.958 486.411 36.246C486.411 36.522 486.327 36.744 486.159 36.912C486.003 37.068 485.769 37.146 485.457 37.146ZM492.557 48.162C491.705 48.162 490.967 47.976 490.343 47.604C489.719 47.232 489.233 46.71 488.885 46.038C488.549 45.354 488.381 44.55 488.381 43.626C488.381 42.93 488.477 42.306 488.669 41.754C488.861 41.19 489.143 40.71 489.515 40.314C489.887 39.918 490.325 39.618 490.829 39.414C491.345 39.198 491.921 39.09 492.557 39.09C493.409 39.09 494.147 39.276 494.771 39.648C495.395 40.02 495.875 40.548 496.211 41.232C496.559 41.904 496.733 42.702 496.733 43.626C496.733 44.322 496.637 44.946 496.445 45.498C496.253 46.05 495.971 46.53 495.599 46.938C495.227 47.334 494.783 47.64 494.267 47.856C493.763 48.06 493.193 48.162 492.557 48.162ZM492.557 46.992C493.097 46.992 493.571 46.86 493.979 46.596C494.387 46.332 494.699 45.948 494.915 45.444C495.143 44.94 495.257 44.334 495.257 43.626C495.257 42.534 495.011 41.7 494.519 41.124C494.039 40.548 493.385 40.26 492.557 40.26C492.005 40.26 491.525 40.392 491.117 40.656C490.721 40.908 490.409 41.286 490.181 41.79C489.965 42.282 489.857 42.894 489.857 43.626C489.857 44.706 490.103 45.54 490.595 46.128C491.087 46.704 491.741 46.992 492.557 46.992Z" fill="white"/>
<rect x="518" y="18" width="160" height="48" rx="8" fill="white"/>
<path d="M537.056 48.162C535.808 48.162 534.74 47.898 533.852 47.37C532.964 46.842 532.28 46.092 531.8 45.12C531.332 44.148 531.098 42.99 531.098 41.646C531.098 40.638 531.23 39.738 531.494 38.946C531.77 38.142 532.16 37.464 532.664 36.912C533.18 36.348 533.81 35.916 534.554 35.616C535.298 35.304 536.132 35.148 537.056 35.148C537.8 35.148 538.508 35.256 539.18 35.472C539.852 35.676 540.434 35.982 540.926 36.39C541.082 36.51 541.184 36.648 541.232 36.804C541.292 36.948 541.298 37.092 541.25 37.236C541.214 37.368 541.142 37.482 541.034 37.578C540.938 37.662 540.818 37.704 540.674 37.704C540.53 37.704 540.368 37.644 540.188 37.524C539.756 37.176 539.282 36.918 538.766 36.75C538.25 36.582 537.692 36.498 537.092 36.498C536.144 36.498 535.34 36.702 534.68 37.11C534.02 37.506 533.522 38.088 533.186 38.856C532.85 39.624 532.682 40.554 532.682 41.646C532.682 42.738 532.85 43.674 533.186 44.454C533.522 45.222 534.02 45.81 534.68 46.218C535.34 46.614 536.144 46.812 537.092 46.812C537.68 46.812 538.238 46.728 538.766 46.56C539.294 46.38 539.78 46.116 540.224 45.768C540.404 45.648 540.566 45.594 540.71 45.606C540.854 45.606 540.974 45.648 541.07 45.732C541.166 45.816 541.232 45.924 541.268 46.056C541.316 46.188 541.316 46.326 541.268 46.47C541.232 46.614 541.142 46.74 540.998 46.848C540.494 47.28 539.9 47.61 539.216 47.838C538.544 48.054 537.824 48.162 537.056 48.162ZM544.199 48.126C543.959 48.126 543.779 48.06 543.659 47.928C543.539 47.796 543.479 47.61 543.479 47.37V35.922C543.479 35.682 543.539 35.502 543.659 35.382C543.779 35.25 543.959 35.184 544.199 35.184C544.427 35.184 544.607 35.25 544.739 35.382C544.871 35.502 544.937 35.682 544.937 35.922V41.196H544.703C544.955 40.5 545.363 39.978 545.927 39.63C546.503 39.27 547.163 39.09 547.907 39.09C548.603 39.09 549.179 39.216 549.635 39.468C550.103 39.72 550.451 40.104 550.679 40.62C550.907 41.124 551.021 41.766 551.021 42.546V47.37C551.021 47.61 550.955 47.796 550.823 47.928C550.703 48.06 550.529 48.126 550.301 48.126C550.061 48.126 549.875 48.06 549.743 47.928C549.623 47.796 549.563 47.61 549.563 47.37V42.636C549.563 41.82 549.401 41.226 549.077 40.854C548.765 40.47 548.261 40.278 547.565 40.278C546.761 40.278 546.119 40.53 545.639 41.034C545.171 41.526 544.937 42.186 544.937 43.014V47.37C544.937 47.874 544.691 48.126 544.199 48.126ZM556.464 48.162C555.864 48.162 555.324 48.048 554.844 47.82C554.376 47.58 554.004 47.256 553.728 46.848C553.452 46.44 553.314 45.984 553.314 45.48C553.314 44.832 553.476 44.322 553.8 43.95C554.136 43.578 554.682 43.314 555.438 43.158C556.206 43.002 557.25 42.924 558.57 42.924H559.38V43.878H558.588C557.616 43.878 556.848 43.926 556.284 44.022C555.732 44.106 555.342 44.256 555.114 44.472C554.898 44.688 554.79 44.994 554.79 45.39C554.79 45.882 554.958 46.284 555.294 46.596C555.642 46.908 556.11 47.064 556.698 47.064C557.178 47.064 557.598 46.95 557.958 46.722C558.33 46.494 558.618 46.182 558.822 45.786C559.038 45.39 559.146 44.934 559.146 44.418V42.366C559.146 41.622 558.996 41.088 558.696 40.764C558.396 40.428 557.904 40.26 557.22 40.26C556.8 40.26 556.38 40.314 555.96 40.422C555.54 40.53 555.096 40.704 554.628 40.944C554.46 41.028 554.316 41.058 554.196 41.034C554.076 40.998 553.98 40.932 553.908 40.836C553.836 40.74 553.794 40.632 553.782 40.512C553.77 40.38 553.794 40.254 553.854 40.134C553.926 40.014 554.034 39.918 554.178 39.846C554.706 39.582 555.228 39.39 555.744 39.27C556.26 39.15 556.752 39.09 557.22 39.09C557.976 39.09 558.6 39.216 559.092 39.468C559.584 39.708 559.95 40.08 560.19 40.584C560.43 41.076 560.55 41.712 560.55 42.492V47.37C560.55 47.61 560.49 47.796 560.37 47.928C560.262 48.06 560.1 48.126 559.884 48.126C559.656 48.126 559.482 48.06 559.362 47.928C559.242 47.796 559.182 47.61 559.182 47.37V45.966H559.344C559.248 46.422 559.062 46.812 558.786 47.136C558.522 47.46 558.192 47.712 557.796 47.892C557.4 48.072 556.956 48.162 556.464 48.162ZM566.765 48.162C566.081 48.162 565.505 48.042 565.037 47.802C564.581 47.55 564.239 47.19 564.011 46.722C563.783 46.242 563.669 45.66 563.669 44.976V40.386H562.463C562.259 40.386 562.103 40.338 561.995 40.242C561.887 40.134 561.833 39.99 561.833 39.81C561.833 39.63 561.887 39.492 561.995 39.396C562.103 39.3 562.259 39.252 562.463 39.252H563.669V37.182C563.669 36.942 563.735 36.762 563.867 36.642C563.999 36.51 564.179 36.444 564.407 36.444C564.635 36.444 564.809 36.51 564.929 36.642C565.061 36.762 565.127 36.942 565.127 37.182V39.252H567.395C567.599 39.252 567.755 39.3 567.863 39.396C567.971 39.492 568.025 39.63 568.025 39.81C568.025 39.99 567.971 40.134 567.863 40.242C567.755 40.338 567.599 40.386 567.395 40.386H565.127V44.832C565.127 45.516 565.271 46.038 565.559 46.398C565.847 46.746 566.315 46.92 566.963 46.92C567.191 46.92 567.383 46.896 567.539 46.848C567.707 46.8 567.845 46.776 567.953 46.776C568.061 46.764 568.151 46.8 568.223 46.884C568.295 46.968 568.331 47.112 568.331 47.316C568.331 47.46 568.301 47.592 568.241 47.712C568.193 47.832 568.103 47.916 567.971 47.964C567.827 48.012 567.635 48.054 567.395 48.09C567.167 48.138 566.957 48.162 566.765 48.162ZM573.402 48.162C572.478 48.162 571.68 47.982 571.008 47.622C570.348 47.25 569.832 46.728 569.46 46.056C569.1 45.384 568.92 44.58 568.92 43.644C568.92 42.732 569.1 41.94 569.46 41.268C569.82 40.584 570.312 40.05 570.936 39.666C571.572 39.282 572.304 39.09 573.132 39.09C573.72 39.09 574.248 39.192 574.716 39.396C575.184 39.588 575.58 39.87 575.904 40.242C576.24 40.614 576.492 41.064 576.66 41.592C576.84 42.12 576.93 42.714 576.93 43.374C576.93 43.566 576.876 43.71 576.768 43.806C576.66 43.89 576.504 43.932 576.3 43.932H570.036V42.978H575.958L575.67 43.212C575.67 42.564 575.574 42.018 575.382 41.574C575.19 41.118 574.908 40.77 574.536 40.53C574.176 40.29 573.72 40.17 573.168 40.17C572.556 40.17 572.034 40.314 571.602 40.602C571.182 40.878 570.864 41.268 570.648 41.772C570.432 42.264 570.324 42.84 570.324 43.5V43.608C570.324 44.712 570.588 45.552 571.116 46.128C571.656 46.704 572.418 46.992 573.402 46.992C573.81 46.992 574.212 46.938 574.608 46.83C575.016 46.722 575.412 46.542 575.796 46.29C575.964 46.182 576.114 46.134 576.246 46.146C576.39 46.146 576.504 46.188 576.588 46.272C576.672 46.344 576.726 46.44 576.75 46.56C576.786 46.668 576.774 46.788 576.714 46.92C576.666 47.052 576.564 47.166 576.408 47.262C576.012 47.55 575.544 47.772 575.004 47.928C574.464 48.084 573.93 48.162 573.402 48.162ZM581.794 48.162C581.194 48.162 580.654 48.048 580.174 47.82C579.706 47.58 579.334 47.256 579.058 46.848C578.782 46.44 578.644 45.984 578.644 45.48C578.644 44.832 578.806 44.322 579.13 43.95C579.466 43.578 580.012 43.314 580.768 43.158C581.536 43.002 582.58 42.924 583.9 42.924H584.71V43.878H583.918C582.946 43.878 582.178 43.926 581.614 44.022C581.062 44.106 580.672 44.256 580.444 44.472C580.228 44.688 580.12 44.994 580.12 45.39C580.12 45.882 580.288 46.284 580.624 46.596C580.972 46.908 581.44 47.064 582.028 47.064C582.508 47.064 582.928 46.95 583.288 46.722C583.66 46.494 583.948 46.182 584.152 45.786C584.368 45.39 584.476 44.934 584.476 44.418V42.366C584.476 41.622 584.326 41.088 584.026 40.764C583.726 40.428 583.234 40.26 582.55 40.26C582.13 40.26 581.71 40.314 581.29 40.422C580.87 40.53 580.426 40.704 579.958 40.944C579.79 41.028 579.646 41.058 579.526 41.034C579.406 40.998 579.31 40.932 579.238 40.836C579.166 40.74 579.124 40.632 579.112 40.512C579.1 40.38 579.124 40.254 579.184 40.134C579.256 40.014 579.364 39.918 579.508 39.846C580.036 39.582 580.558 39.39 581.074 39.27C581.59 39.15 582.082 39.09 582.55 39.09C583.306 39.09 583.93 39.216 584.422 39.468C584.914 39.708 585.28 40.08 585.52 40.584C585.76 41.076 585.88 41.712 585.88 42.492V47.37C585.88 47.61 585.82 47.796 585.7 47.928C585.592 48.06 585.43 48.126 585.214 48.126C584.986 48.126 584.812 48.06 584.692 47.928C584.572 47.796 584.512 47.61 584.512 47.37V45.966H584.674C584.578 46.422 584.392 46.812 584.116 47.136C583.852 47.46 583.522 47.712 583.126 47.892C582.73 48.072 582.286 48.162 581.794 48.162ZM583.162 37.992C583.078 38.112 582.976 38.184 582.856 38.208C582.736 38.22 582.622 38.202 582.514 38.154C582.406 38.094 582.328 38.01 582.28 37.902C582.232 37.794 582.244 37.668 582.316 37.524L583.828 34.59C583.912 34.422 584.02 34.314 584.152 34.266C584.284 34.218 584.416 34.212 584.548 34.248C584.692 34.272 584.812 34.332 584.908 34.428C585.004 34.524 585.058 34.638 585.07 34.77C585.094 34.902 585.058 35.04 584.962 35.184L583.162 37.992ZM596.933 48.162C596.057 48.162 595.301 47.97 594.665 47.586C594.029 47.202 593.537 46.668 593.189 45.984C592.853 45.288 592.685 44.484 592.685 43.572C592.685 42.876 592.781 42.252 592.973 41.7C593.165 41.148 593.447 40.68 593.819 40.296C594.191 39.9 594.635 39.6 595.151 39.396C595.679 39.192 596.273 39.09 596.933 39.09C597.365 39.09 597.815 39.156 598.283 39.288C598.751 39.42 599.177 39.648 599.561 39.972C599.681 40.056 599.759 40.158 599.795 40.278C599.831 40.398 599.831 40.518 599.795 40.638C599.759 40.746 599.699 40.842 599.615 40.926C599.531 40.998 599.423 41.04 599.291 41.052C599.171 41.064 599.045 41.022 598.913 40.926C598.601 40.686 598.283 40.518 597.959 40.422C597.635 40.326 597.323 40.278 597.023 40.278C596.555 40.278 596.147 40.356 595.799 40.512C595.451 40.656 595.157 40.866 594.917 41.142C594.677 41.418 594.491 41.76 594.359 42.168C594.239 42.576 594.179 43.05 594.179 43.59C594.179 44.634 594.425 45.462 594.917 46.074C595.409 46.674 596.111 46.974 597.023 46.974C597.323 46.974 597.629 46.926 597.941 46.83C598.265 46.734 598.589 46.566 598.913 46.326C599.045 46.23 599.171 46.188 599.291 46.2C599.411 46.212 599.513 46.26 599.597 46.344C599.681 46.416 599.735 46.512 599.759 46.632C599.795 46.752 599.795 46.872 599.759 46.992C599.723 47.1 599.645 47.196 599.525 47.28C599.141 47.592 598.721 47.82 598.265 47.964C597.809 48.096 597.365 48.162 596.933 48.162ZM605.018 48.162C604.166 48.162 603.428 47.976 602.804 47.604C602.18 47.232 601.694 46.71 601.346 46.038C601.01 45.354 600.842 44.55 600.842 43.626C600.842 42.93 600.938 42.306 601.13 41.754C601.322 41.19 601.604 40.71 601.976 40.314C602.348 39.918 602.786 39.618 603.29 39.414C603.806 39.198 604.382 39.09 605.018 39.09C605.87 39.09 606.608 39.276 607.232 39.648C607.856 40.02 608.336 40.548 608.672 41.232C609.02 41.904 609.194 42.702 609.194 43.626C609.194 44.322 609.098 44.946 608.906 45.498C608.714 46.05 608.432 46.53 608.06 46.938C607.688 47.334 607.244 47.64 606.728 47.856C606.224 48.06 605.654 48.162 605.018 48.162ZM605.018 46.992C605.558 46.992 606.032 46.86 606.44 46.596C606.848 46.332 607.16 45.948 607.376 45.444C607.604 44.94 607.718 44.334 607.718 43.626C607.718 42.534 607.472 41.7 606.98 41.124C606.5 40.548 605.846 40.26 605.018 40.26C604.466 40.26 603.986 40.392 603.578 40.656C603.182 40.908 602.87 41.286 602.642 41.79C602.426 42.282 602.318 42.894 602.318 43.626C602.318 44.706 602.564 45.54 603.056 46.128C603.548 46.704 604.202 46.992 605.018 46.992ZM612.104 48.126C611.864 48.126 611.684 48.06 611.564 47.928C611.444 47.796 611.384 47.61 611.384 47.37V39.864C611.384 39.624 611.444 39.444 611.564 39.324C611.684 39.192 611.858 39.126 612.086 39.126C612.314 39.126 612.488 39.192 612.608 39.324C612.74 39.444 612.806 39.624 612.806 39.864V41.412L612.608 41.196C612.86 40.5 613.268 39.978 613.832 39.63C614.408 39.27 615.068 39.09 615.812 39.09C616.508 39.09 617.084 39.216 617.54 39.468C618.008 39.72 618.356 40.104 618.584 40.62C618.812 41.124 618.926 41.766 618.926 42.546V47.37C618.926 47.61 618.86 47.796 618.728 47.928C618.608 48.06 618.434 48.126 618.206 48.126C617.966 48.126 617.78 48.06 617.648 47.928C617.528 47.796 617.468 47.61 617.468 47.37V42.636C617.468 41.82 617.306 41.226 616.982 40.854C616.67 40.47 616.166 40.278 615.47 40.278C614.666 40.278 614.024 40.53 613.544 41.034C613.076 41.526 612.842 42.186 612.842 43.014V47.37C612.842 47.874 612.596 48.126 612.104 48.126ZM627.263 48C626.999 48 626.795 47.934 626.651 47.802C626.519 47.658 626.453 47.454 626.453 47.19V36.12C626.453 35.856 626.519 35.658 626.651 35.526C626.795 35.382 626.999 35.31 627.263 35.31H631.529C632.405 35.31 633.143 35.442 633.743 35.706C634.355 35.958 634.823 36.33 635.147 36.822C635.471 37.314 635.633 37.914 635.633 38.622C635.633 39.414 635.399 40.074 634.931 40.602C634.475 41.13 633.851 41.478 633.059 41.646V41.394C633.959 41.502 634.661 41.826 635.165 42.366C635.681 42.906 635.939 43.62 635.939 44.508C635.939 45.636 635.573 46.5 634.841 47.1C634.109 47.7 633.077 48 631.745 48H627.263ZM627.893 46.812H631.601C632.561 46.812 633.281 46.62 633.761 46.236C634.241 45.852 634.481 45.27 634.481 44.49C634.481 43.698 634.241 43.116 633.761 42.744C633.281 42.36 632.561 42.168 631.601 42.168H627.893V46.812ZM627.893 40.98H631.313C632.249 40.98 632.957 40.788 633.437 40.404C633.929 40.02 634.175 39.468 634.175 38.748C634.175 38.004 633.929 37.446 633.437 37.074C632.957 36.69 632.249 36.498 631.313 36.498H627.893V40.98ZM643.945 48.162C642.769 48.162 641.743 47.898 640.867 47.37C640.003 46.83 639.331 46.074 638.851 45.102C638.383 44.13 638.149 42.978 638.149 41.646C638.149 40.638 638.281 39.738 638.545 38.946C638.821 38.142 639.211 37.464 639.715 36.912C640.219 36.348 640.825 35.916 641.533 35.616C642.253 35.304 643.057 35.148 643.945 35.148C645.145 35.148 646.177 35.412 647.041 35.94C647.917 36.468 648.589 37.218 649.057 38.19C649.537 39.15 649.777 40.296 649.777 41.628C649.777 42.636 649.639 43.542 649.363 44.346C649.087 45.15 648.697 45.834 648.193 46.398C647.689 46.962 647.077 47.4 646.357 47.712C645.649 48.012 644.845 48.162 643.945 48.162ZM643.945 46.848C644.857 46.848 645.625 46.644 646.249 46.236C646.885 45.828 647.371 45.234 647.707 44.454C648.043 43.674 648.211 42.738 648.211 41.646C648.211 40.002 647.839 38.73 647.095 37.83C646.363 36.918 645.313 36.462 643.945 36.462C643.057 36.462 642.295 36.666 641.659 37.074C641.035 37.482 640.555 38.076 640.219 38.856C639.883 39.624 639.715 40.554 639.715 41.646C639.715 43.278 640.087 44.556 640.831 45.48C641.575 46.392 642.613 46.848 643.945 46.848ZM655.477 48.126C655.249 48.126 655.069 48.06 654.937 47.928C654.805 47.784 654.739 47.592 654.739 47.352V36.588H650.689C650.473 36.588 650.305 36.528 650.185 36.408C650.065 36.288 650.005 36.132 650.005 35.94C650.005 35.736 650.065 35.58 650.185 35.472C650.305 35.364 650.473 35.31 650.689 35.31H660.283C660.499 35.31 660.667 35.364 660.787 35.472C660.907 35.58 660.967 35.736 660.967 35.94C660.967 36.144 660.907 36.306 660.787 36.426C660.667 36.534 660.499 36.588 660.283 36.588H656.233V47.352C656.233 47.592 656.167 47.784 656.035 47.928C655.915 48.06 655.729 48.126 655.477 48.126ZM663.191 48.126C662.951 48.126 662.765 48.06 662.633 47.928C662.513 47.784 662.453 47.592 662.453 47.352V35.958C662.453 35.706 662.513 35.514 662.633 35.382C662.765 35.25 662.951 35.184 663.191 35.184C663.431 35.184 663.611 35.25 663.731 35.382C663.863 35.514 663.929 35.706 663.929 35.958V47.352C663.929 47.592 663.869 47.784 663.749 47.928C663.629 48.06 663.443 48.126 663.191 48.126Z" fill="#38485C"/>
<rect x="685" y="21" width="342" height="42" rx="9" fill="#F3F6F9"/>
<path d="M699.562 36.5781H702.797C704.224 36.5781 705.297 36.7917 706.016 37.2188C706.734 37.6458 707.094 38.3724 707.094 39.3984C707.094 39.8411 707.008 40.2396 706.836 40.5938C706.669 40.9427 706.424 41.2318 706.102 41.4609C705.779 41.6901 705.38 41.849 704.906 41.9375V42.0156C705.406 42.0938 705.849 42.237 706.234 42.4453C706.62 42.6536 706.922 42.9453 707.141 43.3203C707.359 43.6953 707.469 44.1719 707.469 44.75C707.469 45.4531 707.305 46.0469 706.977 46.5312C706.654 47.0156 706.195 47.3828 705.602 47.6328C705.008 47.8776 704.305 48 703.492 48H699.562V36.5781ZM700.891 41.4766H703.078C704.073 41.4766 704.76 41.3125 705.141 40.9844C705.526 40.6562 705.719 40.1771 705.719 39.5469C705.719 38.8958 705.49 38.4271 705.031 38.1406C704.578 37.8542 703.854 37.7109 702.859 37.7109H700.891V41.4766ZM700.891 42.5938V46.8672H703.266C704.281 46.8672 705 46.6693 705.422 46.2734C705.844 45.8724 706.055 45.3333 706.055 44.6562C706.055 44.224 705.958 43.8542 705.766 43.5469C705.578 43.2396 705.271 43.0052 704.844 42.8438C704.422 42.6771 703.857 42.5938 703.148 42.5938H700.891ZM716.781 39.4375V48H715.719L715.531 46.7969H715.461C715.284 47.0938 715.055 47.3438 714.773 47.5469C714.492 47.75 714.174 47.901 713.82 48C713.471 48.1042 713.099 48.1562 712.703 48.1562C712.026 48.1562 711.458 48.0469 711 47.8281C710.542 47.6094 710.195 47.2708 709.961 46.8125C709.732 46.3542 709.617 45.7656 709.617 45.0469V39.4375H710.93V44.9531C710.93 45.6667 711.091 46.2005 711.414 46.5547C711.737 46.9036 712.229 47.0781 712.891 47.0781C713.526 47.0781 714.031 46.9583 714.406 46.7188C714.786 46.4792 715.06 46.1276 715.227 45.6641C715.393 45.1953 715.477 44.6224 715.477 43.9453V39.4375H716.781ZM725.062 45.6562C725.062 46.2031 724.924 46.6641 724.648 47.0391C724.378 47.4089 723.987 47.6875 723.477 47.875C722.971 48.0625 722.367 48.1562 721.664 48.1562C721.065 48.1562 720.547 48.1094 720.109 48.0156C719.672 47.9219 719.289 47.7891 718.961 47.6172V46.4219C719.31 46.5938 719.727 46.75 720.211 46.8906C720.695 47.0312 721.19 47.1016 721.695 47.1016C722.435 47.1016 722.971 46.9818 723.305 46.7422C723.638 46.5026 723.805 46.1771 723.805 45.7656C723.805 45.5312 723.737 45.3255 723.602 45.1484C723.471 44.9661 723.25 44.7917 722.938 44.625C722.625 44.4531 722.193 44.2656 721.641 44.0625C721.094 43.8542 720.62 43.6484 720.219 43.4453C719.823 43.237 719.516 42.9844 719.297 42.6875C719.083 42.3906 718.977 42.0052 718.977 41.5312C718.977 40.8073 719.268 40.2526 719.852 39.8672C720.44 39.4766 721.211 39.2812 722.164 39.2812C722.68 39.2812 723.161 39.3333 723.609 39.4375C724.062 39.5365 724.484 39.6719 724.875 39.8438L724.438 40.8828C724.083 40.7318 723.706 40.6042 723.305 40.5C722.904 40.3958 722.495 40.3438 722.078 40.3438C721.479 40.3438 721.018 40.4427 720.695 40.6406C720.378 40.8385 720.219 41.1094 720.219 41.4531C720.219 41.7188 720.292 41.9375 720.438 42.1094C720.589 42.2812 720.828 42.4427 721.156 42.5938C721.484 42.7448 721.917 42.9219 722.453 43.125C722.99 43.3229 723.453 43.5286 723.844 43.7422C724.234 43.9505 724.534 44.2057 724.742 44.5078C724.956 44.8047 725.062 45.1875 725.062 45.6562ZM730.578 48.1562C729.807 48.1562 729.128 47.9974 728.539 47.6797C727.951 47.362 727.492 46.8776 727.164 46.2266C726.836 45.5755 726.672 44.7552 726.672 43.7656C726.672 42.7292 726.844 41.8828 727.188 41.2266C727.536 40.5651 728.016 40.0755 728.625 39.7578C729.234 39.4401 729.927 39.2812 730.703 39.2812C731.13 39.2812 731.542 39.3255 731.938 39.4141C732.339 39.4974 732.667 39.6042 732.922 39.7344L732.531 40.8203C732.271 40.7161 731.969 40.6224 731.625 40.5391C731.286 40.4557 730.969 40.4141 730.672 40.4141C730.078 40.4141 729.583 40.5417 729.188 40.7969C728.797 41.0521 728.503 41.4271 728.305 41.9219C728.112 42.4167 728.016 43.026 728.016 43.75C728.016 44.4427 728.109 45.0339 728.297 45.5234C728.49 46.013 728.773 46.388 729.148 46.6484C729.529 46.9036 730.003 47.0312 730.57 47.0312C731.023 47.0312 731.432 46.9844 731.797 46.8906C732.161 46.7917 732.492 46.6771 732.789 46.5469V47.7031C732.503 47.849 732.182 47.9609 731.828 48.0391C731.479 48.1172 731.062 48.1562 730.578 48.1562ZM738.023 39.2969C739.044 39.2969 739.802 39.526 740.297 39.9844C740.792 40.4427 741.039 41.1745 741.039 42.1797V48H740.094L739.844 46.7344H739.781C739.542 47.0469 739.292 47.3099 739.031 47.5234C738.771 47.7318 738.469 47.8906 738.125 48C737.786 48.1042 737.37 48.1562 736.875 48.1562C736.354 48.1562 735.891 48.0651 735.484 47.8828C735.083 47.7005 734.766 47.4245 734.531 47.0547C734.302 46.6849 734.188 46.2161 734.188 45.6484C734.188 44.7943 734.526 44.138 735.203 43.6797C735.88 43.2214 736.911 42.9714 738.297 42.9297L739.773 42.8672V42.3438C739.773 41.6042 739.615 41.0859 739.297 40.7891C738.979 40.4922 738.531 40.3438 737.953 40.3438C737.505 40.3438 737.078 40.4089 736.672 40.5391C736.266 40.6693 735.88 40.8229 735.516 41L735.117 40.0156C735.503 39.8177 735.945 39.6484 736.445 39.5078C736.945 39.3672 737.471 39.2969 738.023 39.2969ZM739.758 43.7812L738.453 43.8359C737.385 43.8776 736.633 44.0521 736.195 44.3594C735.758 44.6667 735.539 45.1016 735.539 45.6641C735.539 46.1536 735.688 46.5156 735.984 46.75C736.281 46.9844 736.674 47.1016 737.164 47.1016C737.924 47.1016 738.547 46.8906 739.031 46.4688C739.516 46.0469 739.758 45.4141 739.758 44.5703V43.7812ZM747.602 39.2812C747.773 39.2812 747.953 39.2917 748.141 39.3125C748.328 39.3281 748.495 39.3516 748.641 39.3828L748.477 40.5859C748.336 40.5495 748.18 40.5208 748.008 40.5C747.836 40.4792 747.674 40.4688 747.523 40.4688C747.18 40.4688 746.854 40.5391 746.547 40.6797C746.245 40.8151 745.979 41.013 745.75 41.2734C745.521 41.5286 745.341 41.8385 745.211 42.2031C745.081 42.5625 745.016 42.9635 745.016 43.4062V48H743.711V39.4375H744.789L744.93 41.0156H744.984C745.161 40.6979 745.375 40.4089 745.625 40.1484C745.875 39.8828 746.164 39.6719 746.492 39.5156C746.826 39.3594 747.195 39.2812 747.602 39.2812ZM757.711 39.2812C758.44 39.2812 759.065 39.4427 759.586 39.7656C760.107 40.0885 760.505 40.5417 760.781 41.125C761.057 41.7031 761.195 42.3802 761.195 43.1562V43.9609H755.281C755.297 44.9661 755.547 45.7318 756.031 46.2578C756.516 46.7839 757.198 47.0469 758.078 47.0469C758.62 47.0469 759.099 46.9974 759.516 46.8984C759.932 46.7995 760.365 46.6536 760.812 46.4609V47.6016C760.38 47.7943 759.951 47.9349 759.523 48.0234C759.102 48.112 758.602 48.1562 758.023 48.1562C757.201 48.1562 756.482 47.9896 755.867 47.6562C755.258 47.3177 754.784 46.8229 754.445 46.1719C754.107 45.5208 753.938 44.724 753.938 43.7812C753.938 42.8594 754.091 42.0625 754.398 41.3906C754.711 40.7135 755.148 40.1927 755.711 39.8281C756.279 39.4635 756.945 39.2812 757.711 39.2812ZM757.695 40.3438C757.003 40.3438 756.451 40.5703 756.039 41.0234C755.628 41.4766 755.383 42.1094 755.305 42.9219H759.836C759.831 42.4115 759.75 41.9635 759.594 41.5781C759.443 41.1875 759.211 40.8854 758.898 40.6719C758.586 40.4531 758.185 40.3438 757.695 40.3438ZM767.453 39.2812C768.469 39.2812 769.237 39.5312 769.758 40.0312C770.279 40.526 770.539 41.3229 770.539 42.4219V48H769.258V42.5078C769.258 41.7943 769.094 41.2604 768.766 40.9062C768.443 40.5521 767.945 40.375 767.273 40.375C766.326 40.375 765.659 40.6432 765.273 41.1797C764.888 41.7161 764.695 42.4948 764.695 43.5156V48H763.398V39.4375H764.445L764.641 40.6719H764.711C764.893 40.3698 765.125 40.1172 765.406 39.9141C765.688 39.7057 766.003 39.5495 766.352 39.4453C766.701 39.3359 767.068 39.2812 767.453 39.2812ZM777.562 36.5781H780.797C782.224 36.5781 783.297 36.7917 784.016 37.2188C784.734 37.6458 785.094 38.3724 785.094 39.3984C785.094 39.8411 785.008 40.2396 784.836 40.5938C784.669 40.9427 784.424 41.2318 784.102 41.4609C783.779 41.6901 783.38 41.849 782.906 41.9375V42.0156C783.406 42.0938 783.849 42.237 784.234 42.4453C784.62 42.6536 784.922 42.9453 785.141 43.3203C785.359 43.6953 785.469 44.1719 785.469 44.75C785.469 45.4531 785.305 46.0469 784.977 46.5312C784.654 47.0156 784.195 47.3828 783.602 47.6328C783.008 47.8776 782.305 48 781.492 48H777.562V36.5781ZM778.891 41.4766H781.078C782.073 41.4766 782.76 41.3125 783.141 40.9844C783.526 40.6562 783.719 40.1771 783.719 39.5469C783.719 38.8958 783.49 38.4271 783.031 38.1406C782.578 37.8542 781.854 37.7109 780.859 37.7109H778.891V41.4766ZM778.891 42.5938V46.8672H781.266C782.281 46.8672 783 46.6693 783.422 46.2734C783.844 45.8724 784.055 45.3333 784.055 44.6562C784.055 44.224 783.958 43.8542 783.766 43.5469C783.578 43.2396 783.271 43.0052 782.844 42.8438C782.422 42.6771 781.857 42.5938 781.148 42.5938H778.891ZM794.781 39.4375V48H793.719L793.531 46.7969H793.461C793.284 47.0938 793.055 47.3438 792.773 47.5469C792.492 47.75 792.174 47.901 791.82 48C791.471 48.1042 791.099 48.1562 790.703 48.1562C790.026 48.1562 789.458 48.0469 789 47.8281C788.542 47.6094 788.195 47.2708 787.961 46.8125C787.732 46.3542 787.617 45.7656 787.617 45.0469V39.4375H788.93V44.9531C788.93 45.6667 789.091 46.2005 789.414 46.5547C789.737 46.9036 790.229 47.0781 790.891 47.0781C791.526 47.0781 792.031 46.9583 792.406 46.7188C792.786 46.4792 793.06 46.1276 793.227 45.6641C793.393 45.1953 793.477 44.6224 793.477 43.9453V39.4375H794.781ZM800.82 39.2812C801.549 39.2812 802.174 39.4427 802.695 39.7656C803.216 40.0885 803.615 40.5417 803.891 41.125C804.167 41.7031 804.305 42.3802 804.305 43.1562V43.9609H798.391C798.406 44.9661 798.656 45.7318 799.141 46.2578C799.625 46.7839 800.307 47.0469 801.188 47.0469C801.729 47.0469 802.208 46.9974 802.625 46.8984C803.042 46.7995 803.474 46.6536 803.922 46.4609V47.6016C803.49 47.7943 803.06 47.9349 802.633 48.0234C802.211 48.112 801.711 48.1562 801.133 48.1562C800.31 48.1562 799.591 47.9896 798.977 47.6562C798.367 47.3177 797.893 46.8229 797.555 46.1719C797.216 45.5208 797.047 44.724 797.047 43.7812C797.047 42.8594 797.201 42.0625 797.508 41.3906C797.82 40.7135 798.258 40.1927 798.82 39.8281C799.388 39.4635 800.055 39.2812 800.82 39.2812ZM800.805 40.3438C800.112 40.3438 799.56 40.5703 799.148 41.0234C798.737 41.4766 798.492 42.1094 798.414 42.9219H802.945C802.94 42.4115 802.859 41.9635 802.703 41.5781C802.552 41.1875 802.32 40.8854 802.008 40.6719C801.695 40.4531 801.294 40.3438 800.805 40.3438ZM810.562 39.2812C811.578 39.2812 812.346 39.5312 812.867 40.0312C813.388 40.526 813.648 41.3229 813.648 42.4219V48H812.367V42.5078C812.367 41.7943 812.203 41.2604 811.875 40.9062C811.552 40.5521 811.055 40.375 810.383 40.375C809.435 40.375 808.768 40.6432 808.383 41.1797C807.997 41.7161 807.805 42.4948 807.805 43.5156V48H806.508V39.4375H807.555L807.75 40.6719H807.82C808.003 40.3698 808.234 40.1172 808.516 39.9141C808.797 39.7057 809.112 39.5495 809.461 39.4453C809.81 39.3359 810.177 39.2812 810.562 39.2812ZM823.703 43.7031C823.703 44.4062 823.612 45.0339 823.43 45.5859C823.247 46.138 822.984 46.6042 822.641 46.9844C822.297 47.3646 821.88 47.6562 821.391 47.8594C820.906 48.0573 820.357 48.1562 819.742 48.1562C819.169 48.1562 818.643 48.0573 818.164 47.8594C817.69 47.6562 817.279 47.3646 816.93 46.9844C816.586 46.6042 816.318 46.138 816.125 45.5859C815.938 45.0339 815.844 44.4062 815.844 43.7031C815.844 42.7656 816.003 41.9688 816.32 41.3125C816.638 40.651 817.091 40.1484 817.68 39.8047C818.273 39.4557 818.979 39.2812 819.797 39.2812C820.578 39.2812 821.26 39.4557 821.844 39.8047C822.432 40.1536 822.888 40.6589 823.211 41.3203C823.539 41.9766 823.703 42.7708 823.703 43.7031ZM817.188 43.7031C817.188 44.3906 817.279 44.987 817.461 45.4922C817.643 45.9974 817.924 46.388 818.305 46.6641C818.685 46.9401 819.174 47.0781 819.773 47.0781C820.367 47.0781 820.854 46.9401 821.234 46.6641C821.62 46.388 821.904 45.9974 822.086 45.4922C822.268 44.987 822.359 44.3906 822.359 43.7031C822.359 43.0208 822.268 42.4323 822.086 41.9375C821.904 41.4375 821.622 41.0521 821.242 40.7812C820.862 40.5104 820.37 40.375 819.766 40.375C818.875 40.375 818.221 40.6693 817.805 41.2578C817.393 41.8464 817.188 42.6615 817.188 43.7031ZM831.484 45.6562C831.484 46.2031 831.346 46.6641 831.07 47.0391C830.799 47.4089 830.409 47.6875 829.898 47.875C829.393 48.0625 828.789 48.1562 828.086 48.1562C827.487 48.1562 826.969 48.1094 826.531 48.0156C826.094 47.9219 825.711 47.7891 825.383 47.6172V46.4219C825.732 46.5938 826.148 46.75 826.633 46.8906C827.117 47.0312 827.612 47.1016 828.117 47.1016C828.857 47.1016 829.393 46.9818 829.727 46.7422C830.06 46.5026 830.227 46.1771 830.227 45.7656C830.227 45.5312 830.159 45.3255 830.023 45.1484C829.893 44.9661 829.672 44.7917 829.359 44.625C829.047 44.4531 828.615 44.2656 828.062 44.0625C827.516 43.8542 827.042 43.6484 826.641 43.4453C826.245 43.237 825.938 42.9844 825.719 42.6875C825.505 42.3906 825.398 42.0052 825.398 41.5312C825.398 40.8073 825.69 40.2526 826.273 39.8672C826.862 39.4766 827.633 39.2812 828.586 39.2812C829.102 39.2812 829.583 39.3333 830.031 39.4375C830.484 39.5365 830.906 39.6719 831.297 39.8438L830.859 40.8828C830.505 40.7318 830.128 40.6042 829.727 40.5C829.326 40.3958 828.917 40.3438 828.5 40.3438C827.901 40.3438 827.44 40.4427 827.117 40.6406C826.799 40.8385 826.641 41.1094 826.641 41.4531C826.641 41.7188 826.714 41.9375 826.859 42.1094C827.01 42.2812 827.25 42.4427 827.578 42.5938C827.906 42.7448 828.339 42.9219 828.875 43.125C829.411 43.3229 829.875 43.5286 830.266 43.7422C830.656 43.9505 830.956 44.2057 831.164 44.5078C831.378 44.8047 831.484 45.1875 831.484 45.6562ZM845.086 48L843.68 44.375H839.102L837.703 48H836.359L840.828 36.5312H842.023L846.461 48H845.086ZM843.281 43.1953L841.945 39.5938C841.914 39.5 841.862 39.3464 841.789 39.1328C841.721 38.9193 841.651 38.6979 841.578 38.4688C841.505 38.2396 841.445 38.0547 841.398 37.9141C841.346 38.1276 841.289 38.3411 841.227 38.5547C841.169 38.763 841.112 38.9583 841.055 39.1406C840.997 39.3177 840.948 39.4688 840.906 39.5938L839.547 43.1953H843.281ZM849.148 39.4375V48H847.852V39.4375H849.148ZM848.516 36.2344C848.729 36.2344 848.911 36.3047 849.062 36.4453C849.219 36.5807 849.297 36.7943 849.297 37.0859C849.297 37.3724 849.219 37.5859 849.062 37.7266C848.911 37.8672 848.729 37.9375 848.516 37.9375C848.292 37.9375 848.104 37.8672 847.953 37.7266C847.807 37.5859 847.734 37.3724 847.734 37.0859C847.734 36.7943 847.807 36.5807 847.953 36.4453C848.104 36.3047 848.292 36.2344 848.516 36.2344ZM855.789 39.2812C855.961 39.2812 856.141 39.2917 856.328 39.3125C856.516 39.3281 856.682 39.3516 856.828 39.3828L856.664 40.5859C856.523 40.5495 856.367 40.5208 856.195 40.5C856.023 40.4792 855.862 40.4688 855.711 40.4688C855.367 40.4688 855.042 40.5391 854.734 40.6797C854.432 40.8151 854.167 41.013 853.938 41.2734C853.708 41.5286 853.529 41.8385 853.398 42.2031C853.268 42.5625 853.203 42.9635 853.203 43.4062V48H851.898V39.4375H852.977L853.117 41.0156H853.172C853.349 40.6979 853.562 40.4089 853.812 40.1484C854.062 39.8828 854.352 39.6719 854.68 39.5156C855.013 39.3594 855.383 39.2812 855.789 39.2812ZM861.742 39.2812C862.471 39.2812 863.096 39.4427 863.617 39.7656C864.138 40.0885 864.536 40.5417 864.812 41.125C865.089 41.7031 865.227 42.3802 865.227 43.1562V43.9609H859.312C859.328 44.9661 859.578 45.7318 860.062 46.2578C860.547 46.7839 861.229 47.0469 862.109 47.0469C862.651 47.0469 863.13 46.9974 863.547 46.8984C863.964 46.7995 864.396 46.6536 864.844 46.4609V47.6016C864.411 47.7943 863.982 47.9349 863.555 48.0234C863.133 48.112 862.633 48.1562 862.055 48.1562C861.232 48.1562 860.513 47.9896 859.898 47.6562C859.289 47.3177 858.815 46.8229 858.477 46.1719C858.138 45.5208 857.969 44.724 857.969 43.7812C857.969 42.8594 858.122 42.0625 858.43 41.3906C858.742 40.7135 859.18 40.1927 859.742 39.8281C860.31 39.4635 860.977 39.2812 861.742 39.2812ZM861.727 40.3438C861.034 40.3438 860.482 40.5703 860.07 41.0234C859.659 41.4766 859.414 42.1094 859.336 42.9219H863.867C863.862 42.4115 863.781 41.9635 863.625 41.5781C863.474 41.1875 863.242 40.8854 862.93 40.6719C862.617 40.4531 862.216 40.3438 861.727 40.3438ZM872.969 45.6562C872.969 46.2031 872.831 46.6641 872.555 47.0391C872.284 47.4089 871.893 47.6875 871.383 47.875C870.878 48.0625 870.273 48.1562 869.57 48.1562C868.971 48.1562 868.453 48.1094 868.016 48.0156C867.578 47.9219 867.195 47.7891 866.867 47.6172V46.4219C867.216 46.5938 867.633 46.75 868.117 46.8906C868.602 47.0312 869.096 47.1016 869.602 47.1016C870.341 47.1016 870.878 46.9818 871.211 46.7422C871.544 46.5026 871.711 46.1771 871.711 45.7656C871.711 45.5312 871.643 45.3255 871.508 45.1484C871.378 44.9661 871.156 44.7917 870.844 44.625C870.531 44.4531 870.099 44.2656 869.547 44.0625C869 43.8542 868.526 43.6484 868.125 43.4453C867.729 43.237 867.422 42.9844 867.203 42.6875C866.99 42.3906 866.883 42.0052 866.883 41.5312C866.883 40.8073 867.174 40.2526 867.758 39.8672C868.346 39.4766 869.117 39.2812 870.07 39.2812C870.586 39.2812 871.068 39.3333 871.516 39.4375C871.969 39.5365 872.391 39.6719 872.781 39.8438L872.344 40.8828C871.99 40.7318 871.612 40.6042 871.211 40.5C870.81 40.3958 870.401 40.3438 869.984 40.3438C869.385 40.3438 868.924 40.4427 868.602 40.6406C868.284 40.8385 868.125 41.1094 868.125 41.4531C868.125 41.7188 868.198 41.9375 868.344 42.1094C868.495 42.2812 868.734 42.4427 869.062 42.5938C869.391 42.7448 869.823 42.9219 870.359 43.125C870.896 43.3229 871.359 43.5286 871.75 43.7422C872.141 43.9505 872.44 44.2057 872.648 44.5078C872.862 44.8047 872.969 45.1875 872.969 45.6562ZM874.859 47.1875C874.859 46.8229 874.948 46.5651 875.125 46.4141C875.302 46.2578 875.518 46.1797 875.773 46.1797C876.039 46.1797 876.263 46.2578 876.445 46.4141C876.628 46.5651 876.719 46.8229 876.719 47.1875C876.719 47.5469 876.628 47.8099 876.445 47.9766C876.263 48.138 876.039 48.2188 875.773 48.2188C875.518 48.2188 875.302 48.138 875.125 47.9766C874.948 47.8099 874.859 47.5469 874.859 47.1875ZM879.062 47.1875C879.062 46.8229 879.151 46.5651 879.328 46.4141C879.505 46.2578 879.721 46.1797 879.977 46.1797C880.242 46.1797 880.466 46.2578 880.648 46.4141C880.831 46.5651 880.922 46.8229 880.922 47.1875C880.922 47.5469 880.831 47.8099 880.648 47.9766C880.466 48.138 880.242 48.2188 879.977 48.2188C879.721 48.2188 879.505 48.138 879.328 47.9766C879.151 47.8099 879.062 47.5469 879.062 47.1875ZM883.266 47.1875C883.266 46.8229 883.354 46.5651 883.531 46.4141C883.708 46.2578 883.924 46.1797 884.18 46.1797C884.445 46.1797 884.669 46.2578 884.852 46.4141C885.034 46.5651 885.125 46.8229 885.125 47.1875C885.125 47.5469 885.034 47.8099 884.852 47.9766C884.669 48.138 884.445 48.2188 884.18 48.2188C883.924 48.2188 883.708 48.138 883.531 47.9766C883.354 47.8099 883.266 47.5469 883.266 47.1875Z" fill="#9EAAB8"/>
<g clip-path="url(#clip1_81_3511)">
<path d="M1000.98 48.9679C1002.76 48.9676 1004.47 48.3748 1005.87 47.2839L1010.26 51.67L1011.67 50.26L1007.28 45.8729C1008.38 44.4469 1008.97 42.6899 1008.95 40.8882C1008.92 39.0866 1008.29 37.3464 1007.15 35.9512C1006.01 34.556 1004.43 33.5881 1002.67 33.2051C1000.91 32.8222 999.067 33.0468 997.451 33.8423C995.834 34.6379 994.534 35.9575 993.763 37.5861C992.992 39.2147 992.796 41.0564 993.205 42.8111C993.615 44.5658 994.607 46.13 996.019 47.249C997.432 48.3679 999.181 48.9755 1000.98 48.9729L1000.98 48.9679ZM1000.98 34.9999C1002.17 34.9992 1003.33 35.3498 1004.31 36.0074C1005.3 36.6651 1006.07 37.6003 1006.52 38.6946C1006.97 39.7889 1007.09 40.9932 1006.86 42.1552C1006.63 43.3171 1006.06 44.3844 1005.22 45.2221C1004.38 46.0598 1003.32 46.6302 1002.16 46.8611C1000.99 47.092 999.789 46.9731 998.695 46.5194C997.6 46.0657 996.665 45.2975 996.008 44.3122C995.35 43.3269 994.999 42.1686 995 40.984C995.003 39.3977 995.634 37.8772 996.756 36.7555C997.877 35.6339 999.398 35.0026 1000.98 34.9999V34.9999Z" fill="#38485C"/>
</g>
<rect x="685" y="21" width="342" height="42" rx="9" stroke="#E6EBF0" stroke-width="2"/>
<path d="M1051.51 48.144C1051.22 48.144 1050.99 48.078 1050.81 47.946C1050.64 47.814 1050.54 47.64 1050.5 47.424C1050.47 47.196 1050.51 46.944 1050.63 46.668L1055.38 36.138C1055.54 35.79 1055.72 35.544 1055.94 35.4C1056.17 35.244 1056.43 35.166 1056.71 35.166C1056.99 35.166 1057.24 35.244 1057.45 35.4C1057.68 35.544 1057.87 35.79 1058.03 36.138L1062.8 46.668C1062.93 46.944 1062.98 47.196 1062.94 47.424C1062.91 47.652 1062.8 47.832 1062.64 47.964C1062.47 48.084 1062.25 48.144 1061.97 48.144C1061.63 48.144 1061.37 48.066 1061.18 47.91C1061 47.742 1060.84 47.49 1060.69 47.154L1059.52 44.436L1060.49 45.066H1052.9L1053.87 44.436L1052.72 47.154C1052.56 47.502 1052.4 47.754 1052.23 47.91C1052.06 48.066 1051.82 48.144 1051.51 48.144ZM1056.68 37.812L1054.16 43.806L1053.69 43.23H1059.7L1059.25 43.806L1056.71 37.812H1056.68ZM1068.54 48.18C1067.62 48.18 1066.82 47.994 1066.13 47.622C1065.45 47.238 1064.92 46.698 1064.55 46.002C1064.18 45.306 1063.99 44.49 1063.99 43.554C1063.99 42.846 1064.09 42.216 1064.3 41.664C1064.51 41.1 1064.82 40.626 1065.21 40.242C1065.61 39.846 1066.09 39.546 1066.65 39.342C1067.22 39.126 1067.85 39.018 1068.54 39.018C1068.94 39.018 1069.37 39.072 1069.82 39.18C1070.29 39.288 1070.73 39.468 1071.14 39.72C1071.33 39.84 1071.45 39.984 1071.51 40.152C1071.57 40.32 1071.59 40.494 1071.55 40.674C1071.51 40.842 1071.44 40.992 1071.32 41.124C1071.21 41.244 1071.07 41.322 1070.9 41.358C1070.73 41.382 1070.55 41.34 1070.34 41.232C1070.08 41.076 1069.81 40.962 1069.53 40.89C1069.26 40.806 1068.99 40.764 1068.74 40.764C1068.35 40.764 1068 40.83 1067.7 40.962C1067.4 41.082 1067.14 41.262 1066.92 41.502C1066.72 41.73 1066.56 42.018 1066.46 42.366C1066.35 42.714 1066.29 43.116 1066.29 43.572C1066.29 44.46 1066.5 45.162 1066.92 45.678C1067.36 46.182 1067.96 46.434 1068.74 46.434C1068.99 46.434 1069.25 46.398 1069.52 46.326C1069.79 46.254 1070.07 46.14 1070.34 45.984C1070.55 45.876 1070.73 45.84 1070.88 45.876C1071.05 45.912 1071.19 45.996 1071.3 46.128C1071.41 46.248 1071.47 46.398 1071.5 46.578C1071.52 46.746 1071.5 46.914 1071.42 47.082C1071.36 47.25 1071.24 47.388 1071.06 47.496C1070.67 47.736 1070.25 47.91 1069.8 48.018C1069.36 48.126 1068.94 48.18 1068.54 48.18ZM1076.86 48.18C1075.94 48.18 1075.13 47.994 1074.45 47.622C1073.76 47.238 1073.24 46.698 1072.86 46.002C1072.49 45.306 1072.31 44.49 1072.31 43.554C1072.31 42.846 1072.41 42.216 1072.61 41.664C1072.83 41.1 1073.13 40.626 1073.53 40.242C1073.93 39.846 1074.41 39.546 1074.97 39.342C1075.53 39.126 1076.16 39.018 1076.86 39.018C1077.26 39.018 1077.68 39.072 1078.14 39.18C1078.61 39.288 1079.04 39.468 1079.45 39.72C1079.64 39.84 1079.77 39.984 1079.83 40.152C1079.89 40.32 1079.9 40.494 1079.87 40.674C1079.83 40.842 1079.75 40.992 1079.63 41.124C1079.52 41.244 1079.39 41.322 1079.22 41.358C1079.05 41.382 1078.86 41.34 1078.66 41.232C1078.4 41.076 1078.13 40.962 1077.85 40.89C1077.57 40.806 1077.31 40.764 1077.06 40.764C1076.66 40.764 1076.31 40.83 1076.01 40.962C1075.71 41.082 1075.46 41.262 1075.24 41.502C1075.04 41.73 1074.88 42.018 1074.77 42.366C1074.66 42.714 1074.61 43.116 1074.61 43.572C1074.61 44.46 1074.82 45.162 1075.24 45.678C1075.67 46.182 1076.28 46.434 1077.06 46.434C1077.31 46.434 1077.57 46.398 1077.83 46.326C1078.11 46.254 1078.38 46.14 1078.66 45.984C1078.86 45.876 1079.04 45.84 1079.2 45.876C1079.37 45.912 1079.51 45.996 1079.61 46.128C1079.72 46.248 1079.79 46.398 1079.81 46.578C1079.84 46.746 1079.81 46.914 1079.74 47.082C1079.68 47.25 1079.56 47.388 1079.38 47.496C1078.98 47.736 1078.56 47.91 1078.12 48.018C1077.68 48.126 1077.26 48.18 1076.86 48.18ZM1085.44 48.18C1084.45 48.18 1083.59 47.994 1082.87 47.622C1082.15 47.25 1081.59 46.722 1081.2 46.038C1080.81 45.354 1080.62 44.544 1080.62 43.608C1080.62 42.696 1080.81 41.898 1081.18 41.214C1081.56 40.53 1082.08 39.996 1082.74 39.612C1083.42 39.216 1084.18 39.018 1085.03 39.018C1085.65 39.018 1086.21 39.12 1086.7 39.324C1087.21 39.528 1087.63 39.822 1087.98 40.206C1088.34 40.59 1088.61 41.058 1088.79 41.61C1088.98 42.15 1089.08 42.762 1089.08 43.446C1089.08 43.662 1089 43.83 1088.85 43.95C1088.7 44.058 1088.49 44.112 1088.22 44.112H1082.44V42.816H1087.5L1087.21 43.086C1087.21 42.534 1087.12 42.072 1086.96 41.7C1086.8 41.328 1086.57 41.046 1086.25 40.854C1085.95 40.65 1085.58 40.548 1085.12 40.548C1084.62 40.548 1084.18 40.668 1083.82 40.908C1083.48 41.136 1083.21 41.466 1083.01 41.898C1082.83 42.318 1082.74 42.822 1082.74 43.41V43.536C1082.74 44.52 1082.97 45.258 1083.43 45.75C1083.9 46.23 1084.58 46.47 1085.48 46.47C1085.79 46.47 1086.14 46.434 1086.52 46.362C1086.92 46.278 1087.29 46.14 1087.64 45.948C1087.89 45.804 1088.11 45.744 1088.31 45.768C1088.5 45.78 1088.65 45.846 1088.76 45.966C1088.88 46.086 1088.95 46.236 1088.97 46.416C1089 46.584 1088.96 46.758 1088.86 46.938C1088.78 47.118 1088.63 47.274 1088.41 47.406C1087.99 47.67 1087.51 47.868 1086.96 48C1086.42 48.12 1085.91 48.18 1085.44 48.18ZM1094.25 48.18C1093.48 48.18 1092.8 47.994 1092.21 47.622C1091.64 47.25 1091.19 46.722 1090.86 46.038C1090.54 45.342 1090.38 44.526 1090.38 43.59C1090.38 42.642 1090.54 41.832 1090.86 41.16C1091.19 40.476 1091.64 39.948 1092.21 39.576C1092.8 39.204 1093.48 39.018 1094.25 39.018C1094.98 39.018 1095.61 39.198 1096.15 39.558C1096.71 39.918 1097.08 40.392 1097.27 40.98H1097.07V36.3C1097.07 35.928 1097.17 35.646 1097.36 35.454C1097.55 35.262 1097.83 35.166 1098.19 35.166C1098.55 35.166 1098.82 35.262 1099.02 35.454C1099.22 35.646 1099.32 35.928 1099.32 36.3V46.992C1099.32 47.364 1099.23 47.652 1099.03 47.856C1098.84 48.048 1098.57 48.144 1098.21 48.144C1097.85 48.144 1097.57 48.048 1097.38 47.856C1097.19 47.652 1097.09 47.364 1097.09 46.992V45.588L1097.29 46.128C1097.11 46.752 1096.74 47.25 1096.19 47.622C1095.64 47.994 1094.99 48.18 1094.25 48.18ZM1094.88 46.47C1095.32 46.47 1095.71 46.362 1096.05 46.146C1096.38 45.93 1096.64 45.612 1096.82 45.192C1097.01 44.76 1097.11 44.226 1097.11 43.59C1097.11 42.63 1096.9 41.916 1096.5 41.448C1096.09 40.968 1095.55 40.728 1094.88 40.728C1094.43 40.728 1094.04 40.836 1093.71 41.052C1093.37 41.256 1093.11 41.574 1092.91 42.006C1092.73 42.426 1092.64 42.954 1092.64 43.59C1092.64 44.538 1092.85 45.258 1093.26 45.75C1093.66 46.23 1094.2 46.47 1094.88 46.47ZM1105.99 48.18C1105 48.18 1104.14 47.994 1103.42 47.622C1102.7 47.25 1102.14 46.722 1101.74 46.038C1101.36 45.354 1101.17 44.544 1101.17 43.608C1101.17 42.696 1101.35 41.898 1101.73 41.214C1102.11 40.53 1102.63 39.996 1103.29 39.612C1103.96 39.216 1104.73 39.018 1105.58 39.018C1106.2 39.018 1106.76 39.12 1107.25 39.324C1107.76 39.528 1108.18 39.822 1108.53 40.206C1108.89 40.59 1109.16 41.058 1109.34 41.61C1109.53 42.15 1109.63 42.762 1109.63 43.446C1109.63 43.662 1109.55 43.83 1109.39 43.95C1109.25 44.058 1109.04 44.112 1108.76 44.112H1102.99V42.816H1108.04L1107.76 43.086C1107.76 42.534 1107.67 42.072 1107.5 41.7C1107.35 41.328 1107.11 41.046 1106.8 40.854C1106.5 40.65 1106.12 40.548 1105.67 40.548C1105.16 40.548 1104.73 40.668 1104.37 40.908C1104.02 41.136 1103.75 41.466 1103.56 41.898C1103.38 42.318 1103.29 42.822 1103.29 43.41V43.536C1103.29 44.52 1103.52 45.258 1103.98 45.75C1104.44 46.23 1105.13 46.47 1106.03 46.47C1106.34 46.47 1106.69 46.434 1107.07 46.362C1107.47 46.278 1107.84 46.14 1108.19 45.948C1108.44 45.804 1108.66 45.744 1108.85 45.768C1109.05 45.78 1109.2 45.846 1109.3 45.966C1109.42 46.086 1109.5 46.236 1109.52 46.416C1109.54 46.584 1109.51 46.758 1109.41 46.938C1109.33 47.118 1109.18 47.274 1108.96 47.406C1108.54 47.67 1108.06 47.868 1107.5 48C1106.96 48.12 1106.46 48.18 1105.99 48.18ZM1106.44 37.92C1106.32 38.088 1106.18 38.184 1106.01 38.208C1105.84 38.232 1105.68 38.202 1105.52 38.118C1105.37 38.034 1105.25 37.914 1105.18 37.758C1105.12 37.602 1105.14 37.428 1105.24 37.236L1106.6 34.554C1106.71 34.326 1106.86 34.182 1107.04 34.122C1107.22 34.05 1107.4 34.038 1107.59 34.086C1107.79 34.134 1107.95 34.224 1108.08 34.356C1108.22 34.488 1108.31 34.65 1108.33 34.842C1108.37 35.022 1108.32 35.208 1108.19 35.4L1106.44 37.92ZM1119.19 48.18C1118.56 48.18 1117.99 48.06 1117.48 47.82C1116.99 47.568 1116.6 47.232 1116.31 46.812C1116.04 46.392 1115.9 45.918 1115.9 45.39C1115.9 44.742 1116.07 44.232 1116.4 43.86C1116.74 43.476 1117.29 43.2 1118.04 43.032C1118.8 42.864 1119.81 42.78 1121.08 42.78H1121.98V44.076H1121.1C1120.36 44.076 1119.76 44.112 1119.32 44.184C1118.88 44.256 1118.56 44.382 1118.37 44.562C1118.19 44.73 1118.1 44.97 1118.1 45.282C1118.1 45.678 1118.23 46.002 1118.51 46.254C1118.79 46.506 1119.17 46.632 1119.66 46.632C1120.06 46.632 1120.41 46.542 1120.71 46.362C1121.02 46.17 1121.26 45.912 1121.44 45.588C1121.62 45.264 1121.71 44.892 1121.71 44.472V42.402C1121.71 41.802 1121.58 41.37 1121.32 41.106C1121.05 40.842 1120.61 40.71 1119.99 40.71C1119.64 40.71 1119.26 40.752 1118.85 40.836C1118.46 40.92 1118.04 41.064 1117.59 41.268C1117.36 41.376 1117.16 41.406 1116.98 41.358C1116.81 41.31 1116.68 41.214 1116.58 41.07C1116.49 40.914 1116.44 40.746 1116.44 40.566C1116.44 40.386 1116.49 40.212 1116.58 40.044C1116.68 39.864 1116.84 39.732 1117.07 39.648C1117.62 39.42 1118.15 39.258 1118.65 39.162C1119.17 39.066 1119.64 39.018 1120.06 39.018C1120.92 39.018 1121.63 39.15 1122.18 39.414C1122.75 39.678 1123.17 40.08 1123.44 40.62C1123.72 41.148 1123.86 41.832 1123.86 42.672V46.992C1123.86 47.364 1123.77 47.652 1123.59 47.856C1123.41 48.048 1123.15 48.144 1122.81 48.144C1122.48 48.144 1122.21 48.048 1122.02 47.856C1121.84 47.652 1121.75 47.364 1121.75 46.992V46.128H1121.89C1121.81 46.548 1121.64 46.914 1121.39 47.226C1121.15 47.526 1120.84 47.76 1120.47 47.928C1120.1 48.096 1119.67 48.18 1119.19 48.18ZM1135.06 48.18C1134.28 48.18 1133.63 48.048 1133.1 47.784C1132.58 47.52 1132.2 47.136 1131.95 46.632C1131.69 46.116 1131.57 45.48 1131.57 44.724V40.89H1130.63C1130.34 40.89 1130.12 40.818 1129.97 40.674C1129.81 40.518 1129.73 40.308 1129.73 40.044C1129.73 39.768 1129.81 39.558 1129.97 39.414C1130.12 39.27 1130.34 39.198 1130.63 39.198H1131.57V37.56C1131.57 37.188 1131.66 36.906 1131.86 36.714C1132.06 36.522 1132.34 36.426 1132.7 36.426C1133.06 36.426 1133.34 36.522 1133.53 36.714C1133.72 36.906 1133.82 37.188 1133.82 37.56V39.198H1135.73C1136.01 39.198 1136.24 39.27 1136.39 39.414C1136.55 39.558 1136.63 39.768 1136.63 40.044C1136.63 40.308 1136.55 40.518 1136.39 40.674C1136.24 40.818 1136.01 40.89 1135.73 40.89H1133.82V44.598C1133.82 45.174 1133.94 45.606 1134.2 45.894C1134.45 46.182 1134.86 46.326 1135.42 46.326C1135.62 46.326 1135.8 46.308 1135.96 46.272C1136.12 46.236 1136.25 46.212 1136.37 46.2C1136.52 46.188 1136.64 46.236 1136.73 46.344C1136.83 46.44 1136.88 46.644 1136.88 46.956C1136.88 47.196 1136.84 47.412 1136.75 47.604C1136.68 47.784 1136.54 47.91 1136.34 47.982C1136.18 48.03 1135.98 48.072 1135.73 48.108C1135.47 48.156 1135.25 48.18 1135.06 48.18ZM1141.12 48.18C1140.39 48.18 1139.78 48.048 1139.3 47.784C1138.82 47.508 1138.46 47.1 1138.22 46.56C1138 46.02 1137.88 45.348 1137.88 44.544V40.188C1137.88 39.804 1137.98 39.522 1138.17 39.342C1138.36 39.15 1138.64 39.054 1139 39.054C1139.36 39.054 1139.63 39.15 1139.83 39.342C1140.03 39.522 1140.13 39.804 1140.13 40.188V44.58C1140.13 45.204 1140.26 45.666 1140.51 45.966C1140.76 46.266 1141.16 46.416 1141.72 46.416C1142.32 46.416 1142.81 46.212 1143.19 45.804C1143.58 45.384 1143.77 44.832 1143.77 44.148V40.188C1143.77 39.804 1143.86 39.522 1144.06 39.342C1144.25 39.15 1144.52 39.054 1144.88 39.054C1145.24 39.054 1145.52 39.15 1145.71 39.342C1145.92 39.522 1146.02 39.804 1146.02 40.188V46.992C1146.02 47.76 1145.65 48.144 1144.92 48.144C1144.57 48.144 1144.3 48.048 1144.11 47.856C1143.92 47.652 1143.82 47.364 1143.82 46.992V45.624L1144.07 46.164C1143.82 46.812 1143.44 47.31 1142.92 47.658C1142.42 48.006 1141.82 48.18 1141.12 48.18ZM1157.31 48.18C1156.39 48.18 1155.59 47.994 1154.9 47.622C1154.22 47.238 1153.69 46.698 1153.32 46.002C1152.95 45.306 1152.76 44.49 1152.76 43.554C1152.76 42.846 1152.86 42.216 1153.07 41.664C1153.28 41.1 1153.59 40.626 1153.98 40.242C1154.38 39.846 1154.86 39.546 1155.42 39.342C1155.99 39.126 1156.62 39.018 1157.31 39.018C1157.71 39.018 1158.14 39.072 1158.59 39.18C1159.06 39.288 1159.5 39.468 1159.91 39.72C1160.1 39.84 1160.22 39.984 1160.28 40.152C1160.34 40.32 1160.36 40.494 1160.32 40.674C1160.28 40.842 1160.21 40.992 1160.09 41.124C1159.98 41.244 1159.84 41.322 1159.67 41.358C1159.5 41.382 1159.32 41.34 1159.11 41.232C1158.85 41.076 1158.58 40.962 1158.3 40.89C1158.03 40.806 1157.76 40.764 1157.51 40.764C1157.12 40.764 1156.77 40.83 1156.47 40.962C1156.17 41.082 1155.91 41.262 1155.69 41.502C1155.49 41.73 1155.33 42.018 1155.23 42.366C1155.12 42.714 1155.06 43.116 1155.06 43.572C1155.06 44.46 1155.27 45.162 1155.69 45.678C1156.13 46.182 1156.73 46.434 1157.51 46.434C1157.76 46.434 1158.02 46.398 1158.29 46.326C1158.56 46.254 1158.84 46.14 1159.11 45.984C1159.32 45.876 1159.5 45.84 1159.65 45.876C1159.82 45.912 1159.96 45.996 1160.07 46.128C1160.18 46.248 1160.24 46.398 1160.27 46.578C1160.29 46.746 1160.27 46.914 1160.19 47.082C1160.13 47.25 1160.01 47.388 1159.83 47.496C1159.44 47.736 1159.02 47.91 1158.57 48.018C1158.13 48.126 1157.71 48.18 1157.31 48.18ZM1164.92 48.18C1164.19 48.18 1163.58 48.048 1163.1 47.784C1162.62 47.508 1162.26 47.1 1162.02 46.56C1161.8 46.02 1161.68 45.348 1161.68 44.544V40.188C1161.68 39.804 1161.78 39.522 1161.97 39.342C1162.16 39.15 1162.44 39.054 1162.8 39.054C1163.16 39.054 1163.43 39.15 1163.63 39.342C1163.83 39.522 1163.93 39.804 1163.93 40.188V44.58C1163.93 45.204 1164.06 45.666 1164.31 45.966C1164.56 46.266 1164.96 46.416 1165.52 46.416C1166.12 46.416 1166.61 46.212 1166.99 45.804C1167.38 45.384 1167.57 44.832 1167.57 44.148V40.188C1167.57 39.804 1167.66 39.522 1167.86 39.342C1168.05 39.15 1168.32 39.054 1168.68 39.054C1169.04 39.054 1169.32 39.15 1169.51 39.342C1169.72 39.522 1169.82 39.804 1169.82 40.188V46.992C1169.82 47.76 1169.45 48.144 1168.72 48.144C1168.37 48.144 1168.1 48.048 1167.91 47.856C1167.72 47.652 1167.62 47.364 1167.62 46.992V45.624L1167.87 46.164C1167.62 46.812 1167.24 47.31 1166.72 47.658C1166.22 48.006 1165.62 48.18 1164.92 48.18ZM1176.5 48.18C1175.5 48.18 1174.64 47.994 1173.92 47.622C1173.2 47.25 1172.65 46.722 1172.25 46.038C1171.87 45.354 1171.67 44.544 1171.67 43.608C1171.67 42.696 1171.86 41.898 1172.23 41.214C1172.62 40.53 1173.14 39.996 1173.8 39.612C1174.47 39.216 1175.23 39.018 1176.08 39.018C1176.71 39.018 1177.27 39.12 1177.76 39.324C1178.26 39.528 1178.69 39.822 1179.04 40.206C1179.4 40.59 1179.67 41.058 1179.85 41.61C1180.04 42.15 1180.13 42.762 1180.13 43.446C1180.13 43.662 1180.06 43.83 1179.9 43.95C1179.76 44.058 1179.55 44.112 1179.27 44.112H1173.49V42.816H1178.55L1178.26 43.086C1178.26 42.534 1178.18 42.072 1178.01 41.7C1177.85 41.328 1177.62 41.046 1177.31 40.854C1177.01 40.65 1176.63 40.548 1176.17 40.548C1175.67 40.548 1175.24 40.668 1174.88 40.908C1174.53 41.136 1174.26 41.466 1174.07 41.898C1173.89 42.318 1173.8 42.822 1173.8 43.41V43.536C1173.8 44.52 1174.03 45.258 1174.48 45.75C1174.95 46.23 1175.63 46.47 1176.53 46.47C1176.85 46.47 1177.19 46.434 1177.58 46.362C1177.97 46.278 1178.35 46.14 1178.69 45.948C1178.95 45.804 1179.17 45.744 1179.36 45.768C1179.55 45.78 1179.7 45.846 1179.81 45.966C1179.93 46.086 1180 46.236 1180.03 46.416C1180.05 46.584 1180.01 46.758 1179.92 46.938C1179.83 47.118 1179.68 47.274 1179.47 47.406C1179.05 47.67 1178.56 47.868 1178.01 48C1177.47 48.12 1176.97 48.18 1176.5 48.18ZM1183.03 48.144C1182.67 48.144 1182.4 48.048 1182.2 47.856C1182.01 47.652 1181.92 47.364 1181.92 46.992V40.188C1181.92 39.816 1182.01 39.534 1182.2 39.342C1182.4 39.15 1182.67 39.054 1183.01 39.054C1183.36 39.054 1183.63 39.15 1183.82 39.342C1184.02 39.534 1184.11 39.816 1184.11 40.188V41.412L1183.91 40.962C1184.18 40.326 1184.59 39.846 1185.14 39.522C1185.7 39.186 1186.34 39.018 1187.05 39.018C1187.75 39.018 1188.34 39.15 1188.79 39.414C1189.25 39.678 1189.59 40.08 1189.82 40.62C1190.05 41.148 1190.16 41.82 1190.16 42.636V46.992C1190.16 47.364 1190.06 47.652 1189.87 47.856C1189.68 48.048 1189.4 48.144 1189.04 48.144C1188.68 48.144 1188.4 48.048 1188.2 47.856C1188.01 47.652 1187.91 47.364 1187.91 46.992V42.744C1187.91 42.06 1187.78 41.562 1187.51 41.25C1187.26 40.938 1186.87 40.782 1186.33 40.782C1185.67 40.782 1185.14 40.992 1184.74 41.412C1184.36 41.82 1184.17 42.366 1184.17 43.05V46.992C1184.17 47.76 1183.79 48.144 1183.03 48.144ZM1196.48 48.18C1195.7 48.18 1195.04 48.048 1194.52 47.784C1194 47.52 1193.62 47.136 1193.36 46.632C1193.11 46.116 1192.99 45.48 1192.99 44.724V40.89H1192.05C1191.76 40.89 1191.54 40.818 1191.38 40.674C1191.23 40.518 1191.15 40.308 1191.15 40.044C1191.15 39.768 1191.23 39.558 1191.38 39.414C1191.54 39.27 1191.76 39.198 1192.05 39.198H1192.99V37.56C1192.99 37.188 1193.08 36.906 1193.27 36.714C1193.48 36.522 1193.76 36.426 1194.12 36.426C1194.48 36.426 1194.76 36.522 1194.95 36.714C1195.14 36.906 1195.24 37.188 1195.24 37.56V39.198H1197.14C1197.43 39.198 1197.65 39.27 1197.81 39.414C1197.97 39.558 1198.04 39.768 1198.04 40.044C1198.04 40.308 1197.97 40.518 1197.81 40.674C1197.65 40.818 1197.43 40.89 1197.14 40.89H1195.24V44.598C1195.24 45.174 1195.36 45.606 1195.61 45.894C1195.87 46.182 1196.27 46.326 1196.84 46.326C1197.04 46.326 1197.22 46.308 1197.38 46.272C1197.53 46.236 1197.67 46.212 1197.79 46.2C1197.94 46.188 1198.06 46.236 1198.15 46.344C1198.25 46.44 1198.3 46.644 1198.3 46.956C1198.3 47.196 1198.25 47.412 1198.17 47.604C1198.1 47.784 1197.96 47.91 1197.76 47.982C1197.6 48.03 1197.4 48.072 1197.14 48.108C1196.89 48.156 1196.67 48.18 1196.48 48.18ZM1202.25 48.18C1201.62 48.18 1201.05 48.06 1200.54 47.82C1200.05 47.568 1199.66 47.232 1199.37 46.812C1199.1 46.392 1198.96 45.918 1198.96 45.39C1198.96 44.742 1199.13 44.232 1199.46 43.86C1199.8 43.476 1200.34 43.2 1201.1 43.032C1201.86 42.864 1202.87 42.78 1204.14 42.78H1205.04V44.076H1204.16C1203.42 44.076 1202.82 44.112 1202.38 44.184C1201.93 44.256 1201.62 44.382 1201.42 44.562C1201.24 44.73 1201.15 44.97 1201.15 45.282C1201.15 45.678 1201.29 46.002 1201.57 46.254C1201.84 46.506 1202.23 46.632 1202.72 46.632C1203.12 46.632 1203.46 46.542 1203.76 46.362C1204.08 46.17 1204.32 45.912 1204.5 45.588C1204.68 45.264 1204.77 44.892 1204.77 44.472V42.402C1204.77 41.802 1204.64 41.37 1204.38 41.106C1204.11 40.842 1203.67 40.71 1203.04 40.71C1202.7 40.71 1202.32 40.752 1201.91 40.836C1201.51 40.92 1201.09 41.064 1200.65 41.268C1200.42 41.376 1200.22 41.406 1200.04 41.358C1199.87 41.31 1199.74 41.214 1199.64 41.07C1199.55 40.914 1199.5 40.746 1199.5 40.566C1199.5 40.386 1199.55 40.212 1199.64 40.044C1199.74 39.864 1199.9 39.732 1200.13 39.648C1200.68 39.42 1201.21 39.258 1201.71 39.162C1202.23 39.066 1202.7 39.018 1203.12 39.018C1203.98 39.018 1204.69 39.15 1205.24 39.414C1205.8 39.678 1206.22 40.08 1206.5 40.62C1206.78 41.148 1206.91 41.832 1206.91 42.672V46.992C1206.91 47.364 1206.82 47.652 1206.64 47.856C1206.46 48.048 1206.21 48.144 1205.87 48.144C1205.53 48.144 1205.27 48.048 1205.08 47.856C1204.9 47.652 1204.81 47.364 1204.81 46.992V46.128H1204.95C1204.87 46.548 1204.7 46.914 1204.45 47.226C1204.21 47.526 1203.9 47.76 1203.53 47.928C1203.16 48.096 1202.73 48.18 1202.25 48.18Z" fill="#007BC7"/>
<rect x="1035" y="23" width="189" height="38" rx="7" stroke="#007BC7" stroke-width="2"/>
<line x1="-1.75853e-09" y1="85" x2="1366" y2="85" stroke="#007BC7" stroke-width="2"/>
<defs>
<clipPath id="clip0_81_3511">
<rect width="76" height="40.8804" fill="white" transform="translate(141 21.5598)"/>
</clipPath>
<clipPath id="clip1_81_3511">
<rect width="24" height="24" fill="white" transform="translate(990 30)"/>
</clipPath>
</defs>
</svg>
