<svg width="360" height="70" viewBox="0 0 360 70" fill="none" xmlns="http://www.w3.org/2000/svg">
<rect width="360" height="68" fill="white"/>
<g clip-path="url(#clip0_680_11668)">
<path d="M72.4461 42.9534L61.5135 21.8286C60.5705 19.9534 58.6385 18.6699 56.3958 18.6699H56.3904C54.1504 18.6699 52.2157 19.9534 51.2727 21.8286L43.5772 36.6981C42.718 35.1687 41.348 33.969 39.6944 33.3205C41.5399 31.9857 42.7423 29.8105 42.7423 27.3571C42.7423 24.5118 41.1265 22.0502 38.7649 20.8289C36.6843 19.7345 34.3092 19.1158 31.7909 19.1158H20.2801C17.9131 19.1158 16 21.0288 16 23.3904V44.8124C16 47.174 17.9131 49.087 20.2801 49.087H32.7285C35.1279 49.087 37.4111 48.5899 39.4836 47.7036L40.2726 47.3226C40.3159 47.301 40.3591 47.2794 40.4023 47.2577C41.1508 48.498 42.5045 49.3329 44.0636 49.3329C45.7956 49.3329 47.2872 48.3061 47.96 46.8227C48.295 46.0391 49.0516 45.4852 49.9433 45.442H62.8402C63.7346 45.4852 64.4885 46.0391 64.8236 46.8227C65.4937 48.3061 66.9879 49.3329 68.7199 49.3329C71.0842 49.3329 72.9973 47.4145 72.9973 45.061C72.9973 44.2936 72.8 43.5748 72.4434 42.9561" fill="#FFD305"/>
</g>
<g clip-path="url(#clip1_680_11668)">
<path d="M144.984 40.9679C146.755 40.9676 148.475 40.3748 149.87 39.2839L154.259 43.67L155.67 42.26L151.283 37.8729C152.385 36.4469 152.971 34.6899 152.946 32.8882C152.921 31.0866 152.287 29.3464 151.147 27.9512C150.006 26.556 148.427 25.5881 146.666 25.2051C144.906 24.8222 143.067 25.0468 141.451 25.8423C139.834 26.6379 138.534 27.9575 137.763 29.5861C136.992 31.2147 136.796 33.0564 137.205 34.8111C137.615 36.5658 138.607 38.13 140.019 39.249C141.432 40.3679 143.181 40.9755 144.983 40.9729L144.984 40.9679ZM144.984 26.9999C146.169 26.9992 147.327 27.3498 148.312 28.0074C149.298 28.6651 150.066 29.6003 150.52 30.6946C150.973 31.7889 151.092 32.9932 150.861 34.1552C150.63 35.3171 150.06 36.3844 149.222 37.2221C148.385 38.0598 147.317 38.6302 146.155 38.8611C144.993 39.092 143.789 38.9731 142.695 38.5194C141.6 38.0657 140.665 37.2975 140.008 36.3122C139.35 35.3269 138.999 34.1686 139 32.984C139.003 31.3977 139.634 29.8772 140.756 28.7555C141.877 27.6339 143.398 27.0026 144.984 26.9999V26.9999Z" fill="#38485C"/>
</g>
<rect x="119" y="13" width="54" height="42" rx="7" stroke="#E6EBF0" stroke-width="2"/>
<rect x="181" y="13" width="100" height="42" rx="9" fill="white"/>
<path d="M196.286 40.126C196.07 40.126 195.902 40.066 195.782 39.946C195.662 39.814 195.602 39.634 195.602 39.406V27.904C195.602 27.664 195.662 27.484 195.782 27.364C195.902 27.244 196.07 27.184 196.286 27.184C196.478 27.184 196.628 27.226 196.736 27.31C196.856 27.382 196.964 27.508 197.06 27.688L201.992 36.976H201.452L206.366 27.688C206.462 27.508 206.564 27.382 206.672 27.31C206.78 27.226 206.936 27.184 207.14 27.184C207.344 27.184 207.506 27.244 207.626 27.364C207.746 27.484 207.806 27.664 207.806 27.904V39.406C207.806 39.634 207.746 39.814 207.626 39.946C207.518 40.066 207.35 40.126 207.122 40.126C206.906 40.126 206.738 40.066 206.618 39.946C206.498 39.814 206.438 39.634 206.438 39.406V29.29H206.87L202.37 37.732C202.286 37.888 202.196 38.002 202.1 38.074C202.016 38.134 201.89 38.164 201.722 38.164C201.554 38.164 201.422 38.128 201.326 38.056C201.23 37.984 201.146 37.876 201.074 37.732L196.52 29.272H196.952V39.406C196.952 39.634 196.892 39.814 196.772 39.946C196.664 40.066 196.502 40.126 196.286 40.126ZM214.708 40.162C213.784 40.162 212.986 39.982 212.314 39.622C211.654 39.25 211.138 38.728 210.766 38.056C210.406 37.384 210.226 36.58 210.226 35.644C210.226 34.732 210.406 33.94 210.766 33.268C211.126 32.584 211.618 32.05 212.242 31.666C212.878 31.282 213.61 31.09 214.438 31.09C215.026 31.09 215.554 31.192 216.022 31.396C216.49 31.588 216.886 31.87 217.21 32.242C217.546 32.614 217.798 33.064 217.966 33.592C218.146 34.12 218.236 34.714 218.236 35.374C218.236 35.566 218.182 35.71 218.074 35.806C217.966 35.89 217.81 35.932 217.606 35.932H211.342V34.978H217.264L216.976 35.212C216.976 34.564 216.88 34.018 216.688 33.574C216.496 33.118 216.214 32.77 215.842 32.53C215.482 32.29 215.026 32.17 214.474 32.17C213.862 32.17 213.34 32.314 212.908 32.602C212.488 32.878 212.17 33.268 211.954 33.772C211.738 34.264 211.63 34.84 211.63 35.5V35.608C211.63 36.712 211.894 37.552 212.422 38.128C212.962 38.704 213.724 38.992 214.708 38.992C215.116 38.992 215.518 38.938 215.914 38.83C216.322 38.722 216.718 38.542 217.102 38.29C217.27 38.182 217.42 38.134 217.552 38.146C217.696 38.146 217.81 38.188 217.894 38.272C217.978 38.344 218.032 38.44 218.056 38.56C218.092 38.668 218.08 38.788 218.02 38.92C217.972 39.052 217.87 39.166 217.714 39.262C217.318 39.55 216.85 39.772 216.31 39.928C215.77 40.084 215.236 40.162 214.708 40.162ZM221.067 40.126C220.827 40.126 220.647 40.06 220.527 39.928C220.407 39.796 220.347 39.61 220.347 39.37V31.864C220.347 31.624 220.407 31.444 220.527 31.324C220.647 31.192 220.821 31.126 221.049 31.126C221.277 31.126 221.451 31.192 221.571 31.324C221.703 31.444 221.769 31.624 221.769 31.864V33.412L221.571 33.196C221.823 32.5 222.231 31.978 222.795 31.63C223.371 31.27 224.031 31.09 224.775 31.09C225.471 31.09 226.047 31.216 226.503 31.468C226.971 31.72 227.319 32.104 227.547 32.62C227.775 33.124 227.889 33.766 227.889 34.546V39.37C227.889 39.61 227.823 39.796 227.691 39.928C227.571 40.06 227.397 40.126 227.169 40.126C226.929 40.126 226.743 40.06 226.611 39.928C226.491 39.796 226.431 39.61 226.431 39.37V34.636C226.431 33.82 226.269 33.226 225.945 32.854C225.633 32.47 225.129 32.278 224.433 32.278C223.629 32.278 222.987 32.53 222.507 33.034C222.039 33.526 221.805 34.186 221.805 35.014V39.37C221.805 39.874 221.559 40.126 221.067 40.126ZM233.673 40.162C232.965 40.162 232.377 40.036 231.909 39.784C231.453 39.52 231.105 39.13 230.865 38.614C230.637 38.098 230.523 37.456 230.523 36.688V31.864C230.523 31.612 230.583 31.426 230.703 31.306C230.835 31.186 231.015 31.126 231.243 31.126C231.483 31.126 231.663 31.186 231.783 31.306C231.915 31.426 231.981 31.612 231.981 31.864V36.67C231.981 37.438 232.137 38.014 232.449 38.398C232.773 38.77 233.277 38.956 233.961 38.956C234.705 38.956 235.311 38.704 235.779 38.2C236.247 37.696 236.481 37.036 236.481 36.22V31.864C236.481 31.612 236.541 31.426 236.661 31.306C236.793 31.186 236.979 31.126 237.219 31.126C237.447 31.126 237.621 31.186 237.741 31.306C237.873 31.426 237.939 31.612 237.939 31.864V39.37C237.939 39.874 237.705 40.126 237.237 40.126C237.009 40.126 236.829 40.06 236.697 39.928C236.577 39.796 236.517 39.61 236.517 39.37V37.732L236.751 37.984C236.511 38.692 236.115 39.232 235.563 39.604C235.023 39.976 234.393 40.162 233.673 40.162ZM234.861 29.974C234.777 30.094 234.675 30.166 234.555 30.19C234.435 30.202 234.321 30.184 234.213 30.136C234.105 30.076 234.027 29.992 233.979 29.884C233.931 29.776 233.943 29.65 234.015 29.506L235.527 26.572C235.611 26.404 235.719 26.296 235.851 26.248C235.983 26.2 236.115 26.194 236.247 26.23C236.391 26.254 236.511 26.314 236.607 26.41C236.703 26.506 236.757 26.62 236.769 26.752C236.793 26.884 236.757 27.022 236.661 27.166L234.861 29.974Z" fill="#38485C"/>
<path d="M248 40H264C264.265 40 264.52 39.8946 264.707 39.7071C264.895 39.5196 265 39.2652 265 39C265 38.7348 264.895 38.4804 264.707 38.2929C264.52 38.1054 264.265 38 264 38H248C247.735 38 247.48 38.1054 247.293 38.2929C247.105 38.4804 247 38.7348 247 39C247 39.2652 247.105 39.5196 247.293 39.7071C247.48 39.8946 247.735 40 248 40ZM248 35H264C264.265 35 264.52 34.8946 264.707 34.7071C264.895 34.5196 265 34.2652 265 34C265 33.7348 264.895 33.4804 264.707 33.2929C264.52 33.1054 264.265 33 264 33H248C247.735 33 247.48 33.1054 247.293 33.2929C247.105 33.4804 247 33.7348 247 34C247 34.2652 247.105 34.5196 247.293 34.7071C247.48 34.8946 247.735 35 248 35ZM247 29C247 29.2652 247.105 29.5196 247.293 29.7071C247.48 29.8946 247.735 30 248 30H264C264.265 30 264.52 29.8946 264.707 29.7071C264.895 29.5196 265 29.2652 265 29C265 28.7348 264.895 28.4804 264.707 28.2929C264.52 28.1054 264.265 28 264 28H248C247.735 28 247.48 28.1054 247.293 28.2929C247.105 28.4804 247 28.7348 247 29Z" fill="#38485C"/>
<rect x="181" y="13" width="100" height="42" rx="9" stroke="#E6EBF0" stroke-width="2"/>
<path d="M309.033 26.8466H315.033C315.298 26.8466 315.553 26.7441 315.74 26.5616C315.928 26.3791 316.033 26.1317 316.033 25.8736C316.033 25.6156 315.928 25.3681 315.74 25.1856C315.553 25.0032 315.298 24.9006 315.033 24.9006H309.033C308.503 24.9022 307.995 25.1077 307.62 25.4723C307.246 25.8369 307.035 26.331 307.033 26.8466V40.4685C307.035 40.9841 307.246 41.4782 307.62 41.8428C307.995 42.2074 308.503 42.4129 309.033 42.4144H315.033C315.298 42.4144 315.553 42.3119 315.74 42.1294C315.928 41.947 316.033 41.6995 316.033 41.4415C316.033 41.1834 315.928 40.9359 315.74 40.7535C315.553 40.571 315.298 40.4685 315.033 40.4685H309.033V26.8466Z" fill="#C93B3B"/>
<path d="M324.687 33.3172L321.897 30.6025C321.828 30.5325 321.738 30.4843 321.641 30.4642C321.543 30.444 321.441 30.4528 321.349 30.4895C321.256 30.5261 321.177 30.5889 321.121 30.6698C321.066 30.7506 321.037 30.8458 321.037 30.9431V32.6847H314.037C313.772 32.6847 313.518 32.7872 313.33 32.9697C313.142 33.1522 313.037 33.3996 313.037 33.6577C313.037 33.9157 313.142 34.1632 313.33 34.3457C313.518 34.5282 313.772 34.6307 314.037 34.6307H321.037V36.3723C321.038 36.4675 321.069 36.5603 321.124 36.639C321.179 36.7178 321.256 36.7791 321.347 36.8153C321.437 36.8516 321.537 36.8612 321.633 36.843C321.729 36.8248 321.817 36.7796 321.887 36.7129L324.677 33.9982C324.724 33.9543 324.762 33.9019 324.788 33.8437C324.814 33.7856 324.827 33.7231 324.828 33.6597C324.829 33.5964 324.817 33.5335 324.793 33.4747C324.769 33.4159 324.733 33.3623 324.687 33.3172V33.3172Z" fill="#C93B3B"/>
<rect x="289" y="13.3242" width="54" height="41.3517" rx="7" stroke="#C93B3B" stroke-width="2"/>
<line x1="-1.75853e-09" y1="69" x2="360" y2="69" stroke="#007BC7" stroke-width="2"/>
<defs>
<clipPath id="clip0_680_11668">
<rect width="57" height="30.6603" fill="white" transform="translate(16 18.6699)"/>
</clipPath>
<clipPath id="clip1_680_11668">
<rect width="24" height="24" fill="white" transform="translate(134 22)"/>
</clipPath>
</defs>
</svg>
