<svg width="1366" height="86" viewBox="0 0 1366 86" fill="none" xmlns="http://www.w3.org/2000/svg">
<rect width="1366" height="84" fill="white"/>
<g clip-path="url(#clip0_731_11770)">
<path d="M216.261 53.9375L201.685 25.7712C200.427 23.2709 197.851 21.5596 194.861 21.5596H194.854C191.867 21.5596 189.288 23.2709 188.03 25.7712L177.77 45.5971C176.624 43.558 174.797 41.9583 172.593 41.0937C175.053 39.3139 176.656 36.4137 176.656 33.1424C176.656 29.3487 174.502 26.0666 171.353 24.4382C168.579 22.9791 165.412 22.154 162.054 22.154H146.707C143.551 22.154 141 24.7048 141 27.8536V56.4162C141 59.565 143.551 62.1157 146.707 62.1157H163.305C166.504 62.1157 169.548 61.4528 172.311 60.2711L173.363 59.7631C173.421 59.7343 173.479 59.7055 173.536 59.6767C174.534 61.3303 176.339 62.4436 178.418 62.4436C180.728 62.4436 182.716 61.0745 183.613 59.0966C184.06 58.0518 185.069 57.3133 186.258 57.2556H203.454C204.646 57.3133 205.651 58.0518 206.098 59.0966C206.992 61.0745 208.984 62.4436 211.293 62.4436C214.446 62.4436 216.996 59.8856 216.996 56.7476C216.996 55.7244 216.733 54.7661 216.258 53.9411" fill="#FFD305"/>
</g>
<rect x="792" y="22" width="66" height="40" rx="8" fill="#007BC7"/>
<path d="M806.304 48.126C806.064 48.126 805.878 48.06 805.746 47.928C805.626 47.784 805.566 47.592 805.566 47.352V35.958C805.566 35.706 805.626 35.514 805.746 35.382C805.878 35.25 806.064 35.184 806.304 35.184C806.544 35.184 806.724 35.25 806.844 35.382C806.976 35.514 807.042 35.706 807.042 35.958V47.352C807.042 47.592 806.982 47.784 806.862 47.928C806.742 48.06 806.556 48.126 806.304 48.126ZM810.711 48.126C810.471 48.126 810.291 48.06 810.171 47.928C810.051 47.796 809.991 47.61 809.991 47.37V39.864C809.991 39.624 810.051 39.444 810.171 39.324C810.291 39.192 810.465 39.126 810.693 39.126C810.921 39.126 811.095 39.192 811.215 39.324C811.347 39.444 811.413 39.624 811.413 39.864V41.412L811.215 41.196C811.467 40.5 811.875 39.978 812.439 39.63C813.015 39.27 813.675 39.09 814.419 39.09C815.115 39.09 815.691 39.216 816.147 39.468C816.615 39.72 816.963 40.104 817.191 40.62C817.419 41.124 817.533 41.766 817.533 42.546V47.37C817.533 47.61 817.467 47.796 817.335 47.928C817.215 48.06 817.041 48.126 816.813 48.126C816.573 48.126 816.387 48.06 816.255 47.928C816.135 47.796 816.075 47.61 816.075 47.37V42.636C816.075 41.82 815.913 41.226 815.589 40.854C815.277 40.47 814.773 40.278 814.077 40.278C813.273 40.278 812.631 40.53 812.151 41.034C811.683 41.526 811.449 42.186 811.449 43.014V47.37C811.449 47.874 811.203 48.126 810.711 48.126ZM820.942 48.09C820.702 48.09 820.522 48.024 820.402 47.892C820.282 47.748 820.222 47.55 820.222 47.298V39.936C820.222 39.684 820.282 39.492 820.402 39.36C820.522 39.228 820.702 39.162 820.942 39.162C821.17 39.162 821.35 39.228 821.482 39.36C821.614 39.492 821.68 39.684 821.68 39.936V47.298C821.68 47.55 821.614 47.748 821.482 47.892C821.362 48.024 821.182 48.09 820.942 48.09ZM820.942 37.146C820.642 37.146 820.408 37.068 820.24 36.912C820.072 36.744 819.988 36.522 819.988 36.246C819.988 35.958 820.072 35.742 820.24 35.598C820.408 35.442 820.642 35.364 820.942 35.364C821.254 35.364 821.488 35.442 821.644 35.598C821.812 35.742 821.896 35.958 821.896 36.246C821.896 36.522 821.812 36.744 821.644 36.912C821.488 37.068 821.254 37.146 820.942 37.146ZM828.113 48.162C827.237 48.162 826.481 47.97 825.845 47.586C825.209 47.202 824.717 46.668 824.369 45.984C824.033 45.288 823.865 44.484 823.865 43.572C823.865 42.876 823.961 42.252 824.153 41.7C824.345 41.148 824.627 40.68 824.999 40.296C825.371 39.9 825.815 39.6 826.331 39.396C826.859 39.192 827.453 39.09 828.113 39.09C828.545 39.09 828.995 39.156 829.463 39.288C829.931 39.42 830.357 39.648 830.741 39.972C830.861 40.056 830.939 40.158 830.975 40.278C831.011 40.398 831.011 40.518 830.975 40.638C830.939 40.746 830.879 40.842 830.795 40.926C830.711 40.998 830.603 41.04 830.471 41.052C830.351 41.064 830.225 41.022 830.093 40.926C829.781 40.686 829.463 40.518 829.139 40.422C828.815 40.326 828.503 40.278 828.203 40.278C827.735 40.278 827.327 40.356 826.979 40.512C826.631 40.656 826.337 40.866 826.097 41.142C825.857 41.418 825.671 41.76 825.539 42.168C825.419 42.576 825.359 43.05 825.359 43.59C825.359 44.634 825.605 45.462 826.097 46.074C826.589 46.674 827.291 46.974 828.203 46.974C828.503 46.974 828.809 46.926 829.121 46.83C829.445 46.734 829.769 46.566 830.093 46.326C830.225 46.23 830.351 46.188 830.471 46.2C830.591 46.212 830.693 46.26 830.777 46.344C830.861 46.416 830.915 46.512 830.939 46.632C830.975 46.752 830.975 46.872 830.939 46.992C830.903 47.1 830.825 47.196 830.705 47.28C830.321 47.592 829.901 47.82 829.445 47.964C828.989 48.096 828.545 48.162 828.113 48.162ZM833.457 48.09C833.217 48.09 833.037 48.024 832.917 47.892C832.797 47.748 832.737 47.55 832.737 47.298V39.936C832.737 39.684 832.797 39.492 832.917 39.36C833.037 39.228 833.217 39.162 833.457 39.162C833.685 39.162 833.865 39.228 833.997 39.36C834.129 39.492 834.195 39.684 834.195 39.936V47.298C834.195 47.55 834.129 47.748 833.997 47.892C833.877 48.024 833.697 48.09 833.457 48.09ZM833.457 37.146C833.157 37.146 832.923 37.068 832.755 36.912C832.587 36.744 832.503 36.522 832.503 36.246C832.503 35.958 832.587 35.742 832.755 35.598C832.923 35.442 833.157 35.364 833.457 35.364C833.769 35.364 834.003 35.442 834.159 35.598C834.327 35.742 834.411 35.958 834.411 36.246C834.411 36.522 834.327 36.744 834.159 36.912C834.003 37.068 833.769 37.146 833.457 37.146ZM840.557 48.162C839.705 48.162 838.967 47.976 838.343 47.604C837.719 47.232 837.233 46.71 836.885 46.038C836.549 45.354 836.381 44.55 836.381 43.626C836.381 42.93 836.477 42.306 836.669 41.754C836.861 41.19 837.143 40.71 837.515 40.314C837.887 39.918 838.325 39.618 838.829 39.414C839.345 39.198 839.921 39.09 840.557 39.09C841.409 39.09 842.147 39.276 842.771 39.648C843.395 40.02 843.875 40.548 844.211 41.232C844.559 41.904 844.733 42.702 844.733 43.626C844.733 44.322 844.637 44.946 844.445 45.498C844.253 46.05 843.971 46.53 843.599 46.938C843.227 47.334 842.783 47.64 842.267 47.856C841.763 48.06 841.193 48.162 840.557 48.162ZM840.557 46.992C841.097 46.992 841.571 46.86 841.979 46.596C842.387 46.332 842.699 45.948 842.915 45.444C843.143 44.94 843.257 44.334 843.257 43.626C843.257 42.534 843.011 41.7 842.519 41.124C842.039 40.548 841.385 40.26 840.557 40.26C840.005 40.26 839.525 40.392 839.117 40.656C838.721 40.908 838.409 41.286 838.181 41.79C837.965 42.282 837.857 42.894 837.857 43.626C837.857 44.706 838.103 45.54 838.595 46.128C839.087 46.704 839.741 46.992 840.557 46.992Z" fill="white"/>
<rect x="866" y="18" width="160" height="48" rx="8" fill="white"/>
<path d="M885.056 48.162C883.808 48.162 882.74 47.898 881.852 47.37C880.964 46.842 880.28 46.092 879.8 45.12C879.332 44.148 879.098 42.99 879.098 41.646C879.098 40.638 879.23 39.738 879.494 38.946C879.77 38.142 880.16 37.464 880.664 36.912C881.18 36.348 881.81 35.916 882.554 35.616C883.298 35.304 884.132 35.148 885.056 35.148C885.8 35.148 886.508 35.256 887.18 35.472C887.852 35.676 888.434 35.982 888.926 36.39C889.082 36.51 889.184 36.648 889.232 36.804C889.292 36.948 889.298 37.092 889.25 37.236C889.214 37.368 889.142 37.482 889.034 37.578C888.938 37.662 888.818 37.704 888.674 37.704C888.53 37.704 888.368 37.644 888.188 37.524C887.756 37.176 887.282 36.918 886.766 36.75C886.25 36.582 885.692 36.498 885.092 36.498C884.144 36.498 883.34 36.702 882.68 37.11C882.02 37.506 881.522 38.088 881.186 38.856C880.85 39.624 880.682 40.554 880.682 41.646C880.682 42.738 880.85 43.674 881.186 44.454C881.522 45.222 882.02 45.81 882.68 46.218C883.34 46.614 884.144 46.812 885.092 46.812C885.68 46.812 886.238 46.728 886.766 46.56C887.294 46.38 887.78 46.116 888.224 45.768C888.404 45.648 888.566 45.594 888.71 45.606C888.854 45.606 888.974 45.648 889.07 45.732C889.166 45.816 889.232 45.924 889.268 46.056C889.316 46.188 889.316 46.326 889.268 46.47C889.232 46.614 889.142 46.74 888.998 46.848C888.494 47.28 887.9 47.61 887.216 47.838C886.544 48.054 885.824 48.162 885.056 48.162ZM892.199 48.126C891.959 48.126 891.779 48.06 891.659 47.928C891.539 47.796 891.479 47.61 891.479 47.37V35.922C891.479 35.682 891.539 35.502 891.659 35.382C891.779 35.25 891.959 35.184 892.199 35.184C892.427 35.184 892.607 35.25 892.739 35.382C892.871 35.502 892.937 35.682 892.937 35.922V41.196H892.703C892.955 40.5 893.363 39.978 893.927 39.63C894.503 39.27 895.163 39.09 895.907 39.09C896.603 39.09 897.179 39.216 897.635 39.468C898.103 39.72 898.451 40.104 898.679 40.62C898.907 41.124 899.021 41.766 899.021 42.546V47.37C899.021 47.61 898.955 47.796 898.823 47.928C898.703 48.06 898.529 48.126 898.301 48.126C898.061 48.126 897.875 48.06 897.743 47.928C897.623 47.796 897.563 47.61 897.563 47.37V42.636C897.563 41.82 897.401 41.226 897.077 40.854C896.765 40.47 896.261 40.278 895.565 40.278C894.761 40.278 894.119 40.53 893.639 41.034C893.171 41.526 892.937 42.186 892.937 43.014V47.37C892.937 47.874 892.691 48.126 892.199 48.126ZM904.464 48.162C903.864 48.162 903.324 48.048 902.844 47.82C902.376 47.58 902.004 47.256 901.728 46.848C901.452 46.44 901.314 45.984 901.314 45.48C901.314 44.832 901.476 44.322 901.8 43.95C902.136 43.578 902.682 43.314 903.438 43.158C904.206 43.002 905.25 42.924 906.57 42.924H907.38V43.878H906.588C905.616 43.878 904.848 43.926 904.284 44.022C903.732 44.106 903.342 44.256 903.114 44.472C902.898 44.688 902.79 44.994 902.79 45.39C902.79 45.882 902.958 46.284 903.294 46.596C903.642 46.908 904.11 47.064 904.698 47.064C905.178 47.064 905.598 46.95 905.958 46.722C906.33 46.494 906.618 46.182 906.822 45.786C907.038 45.39 907.146 44.934 907.146 44.418V42.366C907.146 41.622 906.996 41.088 906.696 40.764C906.396 40.428 905.904 40.26 905.22 40.26C904.8 40.26 904.38 40.314 903.96 40.422C903.54 40.53 903.096 40.704 902.628 40.944C902.46 41.028 902.316 41.058 902.196 41.034C902.076 40.998 901.98 40.932 901.908 40.836C901.836 40.74 901.794 40.632 901.782 40.512C901.77 40.38 901.794 40.254 901.854 40.134C901.926 40.014 902.034 39.918 902.178 39.846C902.706 39.582 903.228 39.39 903.744 39.27C904.26 39.15 904.752 39.09 905.22 39.09C905.976 39.09 906.6 39.216 907.092 39.468C907.584 39.708 907.95 40.08 908.19 40.584C908.43 41.076 908.55 41.712 908.55 42.492V47.37C908.55 47.61 908.49 47.796 908.37 47.928C908.262 48.06 908.1 48.126 907.884 48.126C907.656 48.126 907.482 48.06 907.362 47.928C907.242 47.796 907.182 47.61 907.182 47.37V45.966H907.344C907.248 46.422 907.062 46.812 906.786 47.136C906.522 47.46 906.192 47.712 905.796 47.892C905.4 48.072 904.956 48.162 904.464 48.162ZM914.765 48.162C914.081 48.162 913.505 48.042 913.037 47.802C912.581 47.55 912.239 47.19 912.011 46.722C911.783 46.242 911.669 45.66 911.669 44.976V40.386H910.463C910.259 40.386 910.103 40.338 909.995 40.242C909.887 40.134 909.833 39.99 909.833 39.81C909.833 39.63 909.887 39.492 909.995 39.396C910.103 39.3 910.259 39.252 910.463 39.252H911.669V37.182C911.669 36.942 911.735 36.762 911.867 36.642C911.999 36.51 912.179 36.444 912.407 36.444C912.635 36.444 912.809 36.51 912.929 36.642C913.061 36.762 913.127 36.942 913.127 37.182V39.252H915.395C915.599 39.252 915.755 39.3 915.863 39.396C915.971 39.492 916.025 39.63 916.025 39.81C916.025 39.99 915.971 40.134 915.863 40.242C915.755 40.338 915.599 40.386 915.395 40.386H913.127V44.832C913.127 45.516 913.271 46.038 913.559 46.398C913.847 46.746 914.315 46.92 914.963 46.92C915.191 46.92 915.383 46.896 915.539 46.848C915.707 46.8 915.845 46.776 915.953 46.776C916.061 46.764 916.151 46.8 916.223 46.884C916.295 46.968 916.331 47.112 916.331 47.316C916.331 47.46 916.301 47.592 916.241 47.712C916.193 47.832 916.103 47.916 915.971 47.964C915.827 48.012 915.635 48.054 915.395 48.09C915.167 48.138 914.957 48.162 914.765 48.162ZM921.402 48.162C920.478 48.162 919.68 47.982 919.008 47.622C918.348 47.25 917.832 46.728 917.46 46.056C917.1 45.384 916.92 44.58 916.92 43.644C916.92 42.732 917.1 41.94 917.46 41.268C917.82 40.584 918.312 40.05 918.936 39.666C919.572 39.282 920.304 39.09 921.132 39.09C921.72 39.09 922.248 39.192 922.716 39.396C923.184 39.588 923.58 39.87 923.904 40.242C924.24 40.614 924.492 41.064 924.66 41.592C924.84 42.12 924.93 42.714 924.93 43.374C924.93 43.566 924.876 43.71 924.768 43.806C924.66 43.89 924.504 43.932 924.3 43.932H918.036V42.978H923.958L923.67 43.212C923.67 42.564 923.574 42.018 923.382 41.574C923.19 41.118 922.908 40.77 922.536 40.53C922.176 40.29 921.72 40.17 921.168 40.17C920.556 40.17 920.034 40.314 919.602 40.602C919.182 40.878 918.864 41.268 918.648 41.772C918.432 42.264 918.324 42.84 918.324 43.5V43.608C918.324 44.712 918.588 45.552 919.116 46.128C919.656 46.704 920.418 46.992 921.402 46.992C921.81 46.992 922.212 46.938 922.608 46.83C923.016 46.722 923.412 46.542 923.796 46.29C923.964 46.182 924.114 46.134 924.246 46.146C924.39 46.146 924.504 46.188 924.588 46.272C924.672 46.344 924.726 46.44 924.75 46.56C924.786 46.668 924.774 46.788 924.714 46.92C924.666 47.052 924.564 47.166 924.408 47.262C924.012 47.55 923.544 47.772 923.004 47.928C922.464 48.084 921.93 48.162 921.402 48.162ZM929.794 48.162C929.194 48.162 928.654 48.048 928.174 47.82C927.706 47.58 927.334 47.256 927.058 46.848C926.782 46.44 926.644 45.984 926.644 45.48C926.644 44.832 926.806 44.322 927.13 43.95C927.466 43.578 928.012 43.314 928.768 43.158C929.536 43.002 930.58 42.924 931.9 42.924H932.71V43.878H931.918C930.946 43.878 930.178 43.926 929.614 44.022C929.062 44.106 928.672 44.256 928.444 44.472C928.228 44.688 928.12 44.994 928.12 45.39C928.12 45.882 928.288 46.284 928.624 46.596C928.972 46.908 929.44 47.064 930.028 47.064C930.508 47.064 930.928 46.95 931.288 46.722C931.66 46.494 931.948 46.182 932.152 45.786C932.368 45.39 932.476 44.934 932.476 44.418V42.366C932.476 41.622 932.326 41.088 932.026 40.764C931.726 40.428 931.234 40.26 930.55 40.26C930.13 40.26 929.71 40.314 929.29 40.422C928.87 40.53 928.426 40.704 927.958 40.944C927.79 41.028 927.646 41.058 927.526 41.034C927.406 40.998 927.31 40.932 927.238 40.836C927.166 40.74 927.124 40.632 927.112 40.512C927.1 40.38 927.124 40.254 927.184 40.134C927.256 40.014 927.364 39.918 927.508 39.846C928.036 39.582 928.558 39.39 929.074 39.27C929.59 39.15 930.082 39.09 930.55 39.09C931.306 39.09 931.93 39.216 932.422 39.468C932.914 39.708 933.28 40.08 933.52 40.584C933.76 41.076 933.88 41.712 933.88 42.492V47.37C933.88 47.61 933.82 47.796 933.7 47.928C933.592 48.06 933.43 48.126 933.214 48.126C932.986 48.126 932.812 48.06 932.692 47.928C932.572 47.796 932.512 47.61 932.512 47.37V45.966H932.674C932.578 46.422 932.392 46.812 932.116 47.136C931.852 47.46 931.522 47.712 931.126 47.892C930.73 48.072 930.286 48.162 929.794 48.162ZM931.162 37.992C931.078 38.112 930.976 38.184 930.856 38.208C930.736 38.22 930.622 38.202 930.514 38.154C930.406 38.094 930.328 38.01 930.28 37.902C930.232 37.794 930.244 37.668 930.316 37.524L931.828 34.59C931.912 34.422 932.02 34.314 932.152 34.266C932.284 34.218 932.416 34.212 932.548 34.248C932.692 34.272 932.812 34.332 932.908 34.428C933.004 34.524 933.058 34.638 933.07 34.77C933.094 34.902 933.058 35.04 932.962 35.184L931.162 37.992ZM944.933 48.162C944.057 48.162 943.301 47.97 942.665 47.586C942.029 47.202 941.537 46.668 941.189 45.984C940.853 45.288 940.685 44.484 940.685 43.572C940.685 42.876 940.781 42.252 940.973 41.7C941.165 41.148 941.447 40.68 941.819 40.296C942.191 39.9 942.635 39.6 943.151 39.396C943.679 39.192 944.273 39.09 944.933 39.09C945.365 39.09 945.815 39.156 946.283 39.288C946.751 39.42 947.177 39.648 947.561 39.972C947.681 40.056 947.759 40.158 947.795 40.278C947.831 40.398 947.831 40.518 947.795 40.638C947.759 40.746 947.699 40.842 947.615 40.926C947.531 40.998 947.423 41.04 947.291 41.052C947.171 41.064 947.045 41.022 946.913 40.926C946.601 40.686 946.283 40.518 945.959 40.422C945.635 40.326 945.323 40.278 945.023 40.278C944.555 40.278 944.147 40.356 943.799 40.512C943.451 40.656 943.157 40.866 942.917 41.142C942.677 41.418 942.491 41.76 942.359 42.168C942.239 42.576 942.179 43.05 942.179 43.59C942.179 44.634 942.425 45.462 942.917 46.074C943.409 46.674 944.111 46.974 945.023 46.974C945.323 46.974 945.629 46.926 945.941 46.83C946.265 46.734 946.589 46.566 946.913 46.326C947.045 46.23 947.171 46.188 947.291 46.2C947.411 46.212 947.513 46.26 947.597 46.344C947.681 46.416 947.735 46.512 947.759 46.632C947.795 46.752 947.795 46.872 947.759 46.992C947.723 47.1 947.645 47.196 947.525 47.28C947.141 47.592 946.721 47.82 946.265 47.964C945.809 48.096 945.365 48.162 944.933 48.162ZM953.018 48.162C952.166 48.162 951.428 47.976 950.804 47.604C950.18 47.232 949.694 46.71 949.346 46.038C949.01 45.354 948.842 44.55 948.842 43.626C948.842 42.93 948.938 42.306 949.13 41.754C949.322 41.19 949.604 40.71 949.976 40.314C950.348 39.918 950.786 39.618 951.29 39.414C951.806 39.198 952.382 39.09 953.018 39.09C953.87 39.09 954.608 39.276 955.232 39.648C955.856 40.02 956.336 40.548 956.672 41.232C957.02 41.904 957.194 42.702 957.194 43.626C957.194 44.322 957.098 44.946 956.906 45.498C956.714 46.05 956.432 46.53 956.06 46.938C955.688 47.334 955.244 47.64 954.728 47.856C954.224 48.06 953.654 48.162 953.018 48.162ZM953.018 46.992C953.558 46.992 954.032 46.86 954.44 46.596C954.848 46.332 955.16 45.948 955.376 45.444C955.604 44.94 955.718 44.334 955.718 43.626C955.718 42.534 955.472 41.7 954.98 41.124C954.5 40.548 953.846 40.26 953.018 40.26C952.466 40.26 951.986 40.392 951.578 40.656C951.182 40.908 950.87 41.286 950.642 41.79C950.426 42.282 950.318 42.894 950.318 43.626C950.318 44.706 950.564 45.54 951.056 46.128C951.548 46.704 952.202 46.992 953.018 46.992ZM960.104 48.126C959.864 48.126 959.684 48.06 959.564 47.928C959.444 47.796 959.384 47.61 959.384 47.37V39.864C959.384 39.624 959.444 39.444 959.564 39.324C959.684 39.192 959.858 39.126 960.086 39.126C960.314 39.126 960.488 39.192 960.608 39.324C960.74 39.444 960.806 39.624 960.806 39.864V41.412L960.608 41.196C960.86 40.5 961.268 39.978 961.832 39.63C962.408 39.27 963.068 39.09 963.812 39.09C964.508 39.09 965.084 39.216 965.54 39.468C966.008 39.72 966.356 40.104 966.584 40.62C966.812 41.124 966.926 41.766 966.926 42.546V47.37C966.926 47.61 966.86 47.796 966.728 47.928C966.608 48.06 966.434 48.126 966.206 48.126C965.966 48.126 965.78 48.06 965.648 47.928C965.528 47.796 965.468 47.61 965.468 47.37V42.636C965.468 41.82 965.306 41.226 964.982 40.854C964.67 40.47 964.166 40.278 963.47 40.278C962.666 40.278 962.024 40.53 961.544 41.034C961.076 41.526 960.842 42.186 960.842 43.014V47.37C960.842 47.874 960.596 48.126 960.104 48.126ZM975.263 48C974.999 48 974.795 47.934 974.651 47.802C974.519 47.658 974.453 47.454 974.453 47.19V36.12C974.453 35.856 974.519 35.658 974.651 35.526C974.795 35.382 974.999 35.31 975.263 35.31H979.529C980.405 35.31 981.143 35.442 981.743 35.706C982.355 35.958 982.823 36.33 983.147 36.822C983.471 37.314 983.633 37.914 983.633 38.622C983.633 39.414 983.399 40.074 982.931 40.602C982.475 41.13 981.851 41.478 981.059 41.646V41.394C981.959 41.502 982.661 41.826 983.165 42.366C983.681 42.906 983.939 43.62 983.939 44.508C983.939 45.636 983.573 46.5 982.841 47.1C982.109 47.7 981.077 48 979.745 48H975.263ZM975.893 46.812H979.601C980.561 46.812 981.281 46.62 981.761 46.236C982.241 45.852 982.481 45.27 982.481 44.49C982.481 43.698 982.241 43.116 981.761 42.744C981.281 42.36 980.561 42.168 979.601 42.168H975.893V46.812ZM975.893 40.98H979.313C980.249 40.98 980.957 40.788 981.437 40.404C981.929 40.02 982.175 39.468 982.175 38.748C982.175 38.004 981.929 37.446 981.437 37.074C980.957 36.69 980.249 36.498 979.313 36.498H975.893V40.98ZM991.945 48.162C990.769 48.162 989.743 47.898 988.867 47.37C988.003 46.83 987.331 46.074 986.851 45.102C986.383 44.13 986.149 42.978 986.149 41.646C986.149 40.638 986.281 39.738 986.545 38.946C986.821 38.142 987.211 37.464 987.715 36.912C988.219 36.348 988.825 35.916 989.533 35.616C990.253 35.304 991.057 35.148 991.945 35.148C993.145 35.148 994.177 35.412 995.041 35.94C995.917 36.468 996.589 37.218 997.057 38.19C997.537 39.15 997.777 40.296 997.777 41.628C997.777 42.636 997.639 43.542 997.363 44.346C997.087 45.15 996.697 45.834 996.193 46.398C995.689 46.962 995.077 47.4 994.357 47.712C993.649 48.012 992.845 48.162 991.945 48.162ZM991.945 46.848C992.857 46.848 993.625 46.644 994.249 46.236C994.885 45.828 995.371 45.234 995.707 44.454C996.043 43.674 996.211 42.738 996.211 41.646C996.211 40.002 995.839 38.73 995.095 37.83C994.363 36.918 993.313 36.462 991.945 36.462C991.057 36.462 990.295 36.666 989.659 37.074C989.035 37.482 988.555 38.076 988.219 38.856C987.883 39.624 987.715 40.554 987.715 41.646C987.715 43.278 988.087 44.556 988.831 45.48C989.575 46.392 990.613 46.848 991.945 46.848ZM1003.48 48.126C1003.25 48.126 1003.07 48.06 1002.94 47.928C1002.8 47.784 1002.74 47.592 1002.74 47.352V36.588H998.689C998.473 36.588 998.305 36.528 998.185 36.408C998.065 36.288 998.005 36.132 998.005 35.94C998.005 35.736 998.065 35.58 998.185 35.472C998.305 35.364 998.473 35.31 998.689 35.31H1008.28C1008.5 35.31 1008.67 35.364 1008.79 35.472C1008.91 35.58 1008.97 35.736 1008.97 35.94C1008.97 36.144 1008.91 36.306 1008.79 36.426C1008.67 36.534 1008.5 36.588 1008.28 36.588H1004.23V47.352C1004.23 47.592 1004.17 47.784 1004.03 47.928C1003.91 48.06 1003.73 48.126 1003.48 48.126ZM1011.19 48.126C1010.95 48.126 1010.76 48.06 1010.63 47.928C1010.51 47.784 1010.45 47.592 1010.45 47.352V35.958C1010.45 35.706 1010.51 35.514 1010.63 35.382C1010.76 35.25 1010.95 35.184 1011.19 35.184C1011.43 35.184 1011.61 35.25 1011.73 35.382C1011.86 35.514 1011.93 35.706 1011.93 35.958V47.352C1011.93 47.592 1011.87 47.784 1011.75 47.928C1011.63 48.06 1011.44 48.126 1011.19 48.126Z" fill="#38485C"/>
<path d="M1051.51 48.144C1051.22 48.144 1050.99 48.078 1050.81 47.946C1050.64 47.814 1050.54 47.64 1050.5 47.424C1050.47 47.196 1050.51 46.944 1050.63 46.668L1055.38 36.138C1055.54 35.79 1055.72 35.544 1055.94 35.4C1056.17 35.244 1056.43 35.166 1056.71 35.166C1056.99 35.166 1057.24 35.244 1057.45 35.4C1057.68 35.544 1057.87 35.79 1058.03 36.138L1062.8 46.668C1062.93 46.944 1062.98 47.196 1062.94 47.424C1062.91 47.652 1062.8 47.832 1062.64 47.964C1062.47 48.084 1062.25 48.144 1061.97 48.144C1061.63 48.144 1061.37 48.066 1061.18 47.91C1061 47.742 1060.84 47.49 1060.69 47.154L1059.52 44.436L1060.49 45.066H1052.9L1053.87 44.436L1052.72 47.154C1052.56 47.502 1052.4 47.754 1052.23 47.91C1052.06 48.066 1051.82 48.144 1051.51 48.144ZM1056.68 37.812L1054.16 43.806L1053.69 43.23H1059.7L1059.25 43.806L1056.71 37.812H1056.68ZM1068.54 48.18C1067.62 48.18 1066.82 47.994 1066.13 47.622C1065.45 47.238 1064.92 46.698 1064.55 46.002C1064.18 45.306 1063.99 44.49 1063.99 43.554C1063.99 42.846 1064.09 42.216 1064.3 41.664C1064.51 41.1 1064.82 40.626 1065.21 40.242C1065.61 39.846 1066.09 39.546 1066.65 39.342C1067.22 39.126 1067.85 39.018 1068.54 39.018C1068.94 39.018 1069.37 39.072 1069.82 39.18C1070.29 39.288 1070.73 39.468 1071.14 39.72C1071.33 39.84 1071.45 39.984 1071.51 40.152C1071.57 40.32 1071.59 40.494 1071.55 40.674C1071.51 40.842 1071.44 40.992 1071.32 41.124C1071.21 41.244 1071.07 41.322 1070.9 41.358C1070.73 41.382 1070.55 41.34 1070.34 41.232C1070.08 41.076 1069.81 40.962 1069.53 40.89C1069.26 40.806 1068.99 40.764 1068.74 40.764C1068.35 40.764 1068 40.83 1067.7 40.962C1067.4 41.082 1067.14 41.262 1066.92 41.502C1066.72 41.73 1066.56 42.018 1066.46 42.366C1066.35 42.714 1066.29 43.116 1066.29 43.572C1066.29 44.46 1066.5 45.162 1066.92 45.678C1067.36 46.182 1067.96 46.434 1068.74 46.434C1068.99 46.434 1069.25 46.398 1069.52 46.326C1069.79 46.254 1070.07 46.14 1070.34 45.984C1070.55 45.876 1070.73 45.84 1070.88 45.876C1071.05 45.912 1071.19 45.996 1071.3 46.128C1071.41 46.248 1071.47 46.398 1071.5 46.578C1071.52 46.746 1071.5 46.914 1071.42 47.082C1071.36 47.25 1071.24 47.388 1071.06 47.496C1070.67 47.736 1070.25 47.91 1069.8 48.018C1069.36 48.126 1068.94 48.18 1068.54 48.18ZM1076.86 48.18C1075.94 48.18 1075.13 47.994 1074.45 47.622C1073.76 47.238 1073.24 46.698 1072.86 46.002C1072.49 45.306 1072.31 44.49 1072.31 43.554C1072.31 42.846 1072.41 42.216 1072.61 41.664C1072.83 41.1 1073.13 40.626 1073.53 40.242C1073.93 39.846 1074.41 39.546 1074.97 39.342C1075.53 39.126 1076.16 39.018 1076.86 39.018C1077.26 39.018 1077.68 39.072 1078.14 39.18C1078.61 39.288 1079.04 39.468 1079.45 39.72C1079.64 39.84 1079.77 39.984 1079.83 40.152C1079.89 40.32 1079.9 40.494 1079.87 40.674C1079.83 40.842 1079.75 40.992 1079.63 41.124C1079.52 41.244 1079.39 41.322 1079.22 41.358C1079.05 41.382 1078.86 41.34 1078.66 41.232C1078.4 41.076 1078.13 40.962 1077.85 40.89C1077.57 40.806 1077.31 40.764 1077.06 40.764C1076.66 40.764 1076.31 40.83 1076.01 40.962C1075.71 41.082 1075.46 41.262 1075.24 41.502C1075.04 41.73 1074.88 42.018 1074.77 42.366C1074.66 42.714 1074.61 43.116 1074.61 43.572C1074.61 44.46 1074.82 45.162 1075.24 45.678C1075.67 46.182 1076.28 46.434 1077.06 46.434C1077.31 46.434 1077.57 46.398 1077.83 46.326C1078.11 46.254 1078.38 46.14 1078.66 45.984C1078.86 45.876 1079.04 45.84 1079.2 45.876C1079.37 45.912 1079.51 45.996 1079.61 46.128C1079.72 46.248 1079.79 46.398 1079.81 46.578C1079.84 46.746 1079.81 46.914 1079.74 47.082C1079.68 47.25 1079.56 47.388 1079.38 47.496C1078.98 47.736 1078.56 47.91 1078.12 48.018C1077.68 48.126 1077.26 48.18 1076.86 48.18ZM1085.44 48.18C1084.45 48.18 1083.59 47.994 1082.87 47.622C1082.15 47.25 1081.59 46.722 1081.2 46.038C1080.81 45.354 1080.62 44.544 1080.62 43.608C1080.62 42.696 1080.81 41.898 1081.18 41.214C1081.56 40.53 1082.08 39.996 1082.74 39.612C1083.42 39.216 1084.18 39.018 1085.03 39.018C1085.65 39.018 1086.21 39.12 1086.7 39.324C1087.21 39.528 1087.63 39.822 1087.98 40.206C1088.34 40.59 1088.61 41.058 1088.79 41.61C1088.98 42.15 1089.08 42.762 1089.08 43.446C1089.08 43.662 1089 43.83 1088.85 43.95C1088.7 44.058 1088.49 44.112 1088.22 44.112H1082.44V42.816H1087.5L1087.21 43.086C1087.21 42.534 1087.12 42.072 1086.96 41.7C1086.8 41.328 1086.57 41.046 1086.25 40.854C1085.95 40.65 1085.58 40.548 1085.12 40.548C1084.62 40.548 1084.18 40.668 1083.82 40.908C1083.48 41.136 1083.21 41.466 1083.01 41.898C1082.83 42.318 1082.74 42.822 1082.74 43.41V43.536C1082.74 44.52 1082.97 45.258 1083.43 45.75C1083.9 46.23 1084.58 46.47 1085.48 46.47C1085.79 46.47 1086.14 46.434 1086.52 46.362C1086.92 46.278 1087.29 46.14 1087.64 45.948C1087.89 45.804 1088.11 45.744 1088.31 45.768C1088.5 45.78 1088.65 45.846 1088.76 45.966C1088.88 46.086 1088.95 46.236 1088.97 46.416C1089 46.584 1088.96 46.758 1088.86 46.938C1088.78 47.118 1088.63 47.274 1088.41 47.406C1087.99 47.67 1087.51 47.868 1086.96 48C1086.42 48.12 1085.91 48.18 1085.44 48.18ZM1094.25 48.18C1093.48 48.18 1092.8 47.994 1092.21 47.622C1091.64 47.25 1091.19 46.722 1090.86 46.038C1090.54 45.342 1090.38 44.526 1090.38 43.59C1090.38 42.642 1090.54 41.832 1090.86 41.16C1091.19 40.476 1091.64 39.948 1092.21 39.576C1092.8 39.204 1093.48 39.018 1094.25 39.018C1094.98 39.018 1095.61 39.198 1096.15 39.558C1096.71 39.918 1097.08 40.392 1097.27 40.98H1097.07V36.3C1097.07 35.928 1097.17 35.646 1097.36 35.454C1097.55 35.262 1097.83 35.166 1098.19 35.166C1098.55 35.166 1098.82 35.262 1099.02 35.454C1099.22 35.646 1099.32 35.928 1099.32 36.3V46.992C1099.32 47.364 1099.23 47.652 1099.03 47.856C1098.84 48.048 1098.57 48.144 1098.21 48.144C1097.85 48.144 1097.57 48.048 1097.38 47.856C1097.19 47.652 1097.09 47.364 1097.09 46.992V45.588L1097.29 46.128C1097.11 46.752 1096.74 47.25 1096.19 47.622C1095.64 47.994 1094.99 48.18 1094.25 48.18ZM1094.88 46.47C1095.32 46.47 1095.71 46.362 1096.05 46.146C1096.38 45.93 1096.64 45.612 1096.82 45.192C1097.01 44.76 1097.11 44.226 1097.11 43.59C1097.11 42.63 1096.9 41.916 1096.5 41.448C1096.09 40.968 1095.55 40.728 1094.88 40.728C1094.43 40.728 1094.04 40.836 1093.71 41.052C1093.37 41.256 1093.11 41.574 1092.91 42.006C1092.73 42.426 1092.64 42.954 1092.64 43.59C1092.64 44.538 1092.85 45.258 1093.26 45.75C1093.66 46.23 1094.2 46.47 1094.88 46.47ZM1105.99 48.18C1105 48.18 1104.14 47.994 1103.42 47.622C1102.7 47.25 1102.14 46.722 1101.74 46.038C1101.36 45.354 1101.17 44.544 1101.17 43.608C1101.17 42.696 1101.35 41.898 1101.73 41.214C1102.11 40.53 1102.63 39.996 1103.29 39.612C1103.96 39.216 1104.73 39.018 1105.58 39.018C1106.2 39.018 1106.76 39.12 1107.25 39.324C1107.76 39.528 1108.18 39.822 1108.53 40.206C1108.89 40.59 1109.16 41.058 1109.34 41.61C1109.53 42.15 1109.63 42.762 1109.63 43.446C1109.63 43.662 1109.55 43.83 1109.39 43.95C1109.25 44.058 1109.04 44.112 1108.76 44.112H1102.99V42.816H1108.04L1107.76 43.086C1107.76 42.534 1107.67 42.072 1107.5 41.7C1107.35 41.328 1107.11 41.046 1106.8 40.854C1106.5 40.65 1106.12 40.548 1105.67 40.548C1105.16 40.548 1104.73 40.668 1104.37 40.908C1104.02 41.136 1103.75 41.466 1103.56 41.898C1103.38 42.318 1103.29 42.822 1103.29 43.41V43.536C1103.29 44.52 1103.52 45.258 1103.98 45.75C1104.44 46.23 1105.13 46.47 1106.03 46.47C1106.34 46.47 1106.69 46.434 1107.07 46.362C1107.47 46.278 1107.84 46.14 1108.19 45.948C1108.44 45.804 1108.66 45.744 1108.85 45.768C1109.05 45.78 1109.2 45.846 1109.3 45.966C1109.42 46.086 1109.5 46.236 1109.52 46.416C1109.54 46.584 1109.51 46.758 1109.41 46.938C1109.33 47.118 1109.18 47.274 1108.96 47.406C1108.54 47.67 1108.06 47.868 1107.5 48C1106.96 48.12 1106.46 48.18 1105.99 48.18ZM1106.44 37.92C1106.32 38.088 1106.18 38.184 1106.01 38.208C1105.84 38.232 1105.68 38.202 1105.52 38.118C1105.37 38.034 1105.25 37.914 1105.18 37.758C1105.12 37.602 1105.14 37.428 1105.24 37.236L1106.6 34.554C1106.71 34.326 1106.86 34.182 1107.04 34.122C1107.22 34.05 1107.4 34.038 1107.59 34.086C1107.79 34.134 1107.95 34.224 1108.08 34.356C1108.22 34.488 1108.31 34.65 1108.33 34.842C1108.37 35.022 1108.32 35.208 1108.19 35.4L1106.44 37.92ZM1119.19 48.18C1118.56 48.18 1117.99 48.06 1117.48 47.82C1116.99 47.568 1116.6 47.232 1116.31 46.812C1116.04 46.392 1115.9 45.918 1115.9 45.39C1115.9 44.742 1116.07 44.232 1116.4 43.86C1116.74 43.476 1117.29 43.2 1118.04 43.032C1118.8 42.864 1119.81 42.78 1121.08 42.78H1121.98V44.076H1121.1C1120.36 44.076 1119.76 44.112 1119.32 44.184C1118.88 44.256 1118.56 44.382 1118.37 44.562C1118.19 44.73 1118.1 44.97 1118.1 45.282C1118.1 45.678 1118.23 46.002 1118.51 46.254C1118.79 46.506 1119.17 46.632 1119.66 46.632C1120.06 46.632 1120.41 46.542 1120.71 46.362C1121.02 46.17 1121.26 45.912 1121.44 45.588C1121.62 45.264 1121.71 44.892 1121.71 44.472V42.402C1121.71 41.802 1121.58 41.37 1121.32 41.106C1121.05 40.842 1120.61 40.71 1119.99 40.71C1119.64 40.71 1119.26 40.752 1118.85 40.836C1118.46 40.92 1118.04 41.064 1117.59 41.268C1117.36 41.376 1117.16 41.406 1116.98 41.358C1116.81 41.31 1116.68 41.214 1116.58 41.07C1116.49 40.914 1116.44 40.746 1116.44 40.566C1116.44 40.386 1116.49 40.212 1116.58 40.044C1116.68 39.864 1116.84 39.732 1117.07 39.648C1117.62 39.42 1118.15 39.258 1118.65 39.162C1119.17 39.066 1119.64 39.018 1120.06 39.018C1120.92 39.018 1121.63 39.15 1122.18 39.414C1122.75 39.678 1123.17 40.08 1123.44 40.62C1123.72 41.148 1123.86 41.832 1123.86 42.672V46.992C1123.86 47.364 1123.77 47.652 1123.59 47.856C1123.41 48.048 1123.15 48.144 1122.81 48.144C1122.48 48.144 1122.21 48.048 1122.02 47.856C1121.84 47.652 1121.75 47.364 1121.75 46.992V46.128H1121.89C1121.81 46.548 1121.64 46.914 1121.39 47.226C1121.15 47.526 1120.84 47.76 1120.47 47.928C1120.1 48.096 1119.67 48.18 1119.19 48.18ZM1135.06 48.18C1134.28 48.18 1133.63 48.048 1133.1 47.784C1132.58 47.52 1132.2 47.136 1131.95 46.632C1131.69 46.116 1131.57 45.48 1131.57 44.724V40.89H1130.63C1130.34 40.89 1130.12 40.818 1129.97 40.674C1129.81 40.518 1129.73 40.308 1129.73 40.044C1129.73 39.768 1129.81 39.558 1129.97 39.414C1130.12 39.27 1130.34 39.198 1130.63 39.198H1131.57V37.56C1131.57 37.188 1131.66 36.906 1131.86 36.714C1132.06 36.522 1132.34 36.426 1132.7 36.426C1133.06 36.426 1133.34 36.522 1133.53 36.714C1133.72 36.906 1133.82 37.188 1133.82 37.56V39.198H1135.73C1136.01 39.198 1136.24 39.27 1136.39 39.414C1136.55 39.558 1136.63 39.768 1136.63 40.044C1136.63 40.308 1136.55 40.518 1136.39 40.674C1136.24 40.818 1136.01 40.89 1135.73 40.89H1133.82V44.598C1133.82 45.174 1133.94 45.606 1134.2 45.894C1134.45 46.182 1134.86 46.326 1135.42 46.326C1135.62 46.326 1135.8 46.308 1135.96 46.272C1136.12 46.236 1136.25 46.212 1136.37 46.2C1136.52 46.188 1136.64 46.236 1136.73 46.344C1136.83 46.44 1136.88 46.644 1136.88 46.956C1136.88 47.196 1136.84 47.412 1136.75 47.604C1136.68 47.784 1136.54 47.91 1136.34 47.982C1136.18 48.03 1135.98 48.072 1135.73 48.108C1135.47 48.156 1135.25 48.18 1135.06 48.18ZM1141.12 48.18C1140.39 48.18 1139.78 48.048 1139.3 47.784C1138.82 47.508 1138.46 47.1 1138.22 46.56C1138 46.02 1137.88 45.348 1137.88 44.544V40.188C1137.88 39.804 1137.98 39.522 1138.17 39.342C1138.36 39.15 1138.64 39.054 1139 39.054C1139.36 39.054 1139.63 39.15 1139.83 39.342C1140.03 39.522 1140.13 39.804 1140.13 40.188V44.58C1140.13 45.204 1140.26 45.666 1140.51 45.966C1140.76 46.266 1141.16 46.416 1141.72 46.416C1142.32 46.416 1142.81 46.212 1143.19 45.804C1143.58 45.384 1143.77 44.832 1143.77 44.148V40.188C1143.77 39.804 1143.86 39.522 1144.06 39.342C1144.25 39.15 1144.52 39.054 1144.88 39.054C1145.24 39.054 1145.52 39.15 1145.71 39.342C1145.92 39.522 1146.02 39.804 1146.02 40.188V46.992C1146.02 47.76 1145.65 48.144 1144.92 48.144C1144.57 48.144 1144.3 48.048 1144.11 47.856C1143.92 47.652 1143.82 47.364 1143.82 46.992V45.624L1144.07 46.164C1143.82 46.812 1143.44 47.31 1142.92 47.658C1142.42 48.006 1141.82 48.18 1141.12 48.18ZM1157.31 48.18C1156.39 48.18 1155.59 47.994 1154.9 47.622C1154.22 47.238 1153.69 46.698 1153.32 46.002C1152.95 45.306 1152.76 44.49 1152.76 43.554C1152.76 42.846 1152.86 42.216 1153.07 41.664C1153.28 41.1 1153.59 40.626 1153.98 40.242C1154.38 39.846 1154.86 39.546 1155.42 39.342C1155.99 39.126 1156.62 39.018 1157.31 39.018C1157.71 39.018 1158.14 39.072 1158.59 39.18C1159.06 39.288 1159.5 39.468 1159.91 39.72C1160.1 39.84 1160.22 39.984 1160.28 40.152C1160.34 40.32 1160.36 40.494 1160.32 40.674C1160.28 40.842 1160.21 40.992 1160.09 41.124C1159.98 41.244 1159.84 41.322 1159.67 41.358C1159.5 41.382 1159.32 41.34 1159.11 41.232C1158.85 41.076 1158.58 40.962 1158.3 40.89C1158.03 40.806 1157.76 40.764 1157.51 40.764C1157.12 40.764 1156.77 40.83 1156.47 40.962C1156.17 41.082 1155.91 41.262 1155.69 41.502C1155.49 41.73 1155.33 42.018 1155.23 42.366C1155.12 42.714 1155.06 43.116 1155.06 43.572C1155.06 44.46 1155.27 45.162 1155.69 45.678C1156.13 46.182 1156.73 46.434 1157.51 46.434C1157.76 46.434 1158.02 46.398 1158.29 46.326C1158.56 46.254 1158.84 46.14 1159.11 45.984C1159.32 45.876 1159.5 45.84 1159.65 45.876C1159.82 45.912 1159.96 45.996 1160.07 46.128C1160.18 46.248 1160.24 46.398 1160.27 46.578C1160.29 46.746 1160.27 46.914 1160.19 47.082C1160.13 47.25 1160.01 47.388 1159.83 47.496C1159.44 47.736 1159.02 47.91 1158.57 48.018C1158.13 48.126 1157.71 48.18 1157.31 48.18ZM1164.92 48.18C1164.19 48.18 1163.58 48.048 1163.1 47.784C1162.62 47.508 1162.26 47.1 1162.02 46.56C1161.8 46.02 1161.68 45.348 1161.68 44.544V40.188C1161.68 39.804 1161.78 39.522 1161.97 39.342C1162.16 39.15 1162.44 39.054 1162.8 39.054C1163.16 39.054 1163.43 39.15 1163.63 39.342C1163.83 39.522 1163.93 39.804 1163.93 40.188V44.58C1163.93 45.204 1164.06 45.666 1164.31 45.966C1164.56 46.266 1164.96 46.416 1165.52 46.416C1166.12 46.416 1166.61 46.212 1166.99 45.804C1167.38 45.384 1167.57 44.832 1167.57 44.148V40.188C1167.57 39.804 1167.66 39.522 1167.86 39.342C1168.05 39.15 1168.32 39.054 1168.68 39.054C1169.04 39.054 1169.32 39.15 1169.51 39.342C1169.72 39.522 1169.82 39.804 1169.82 40.188V46.992C1169.82 47.76 1169.45 48.144 1168.72 48.144C1168.37 48.144 1168.1 48.048 1167.91 47.856C1167.72 47.652 1167.62 47.364 1167.62 46.992V45.624L1167.87 46.164C1167.62 46.812 1167.24 47.31 1166.72 47.658C1166.22 48.006 1165.62 48.18 1164.92 48.18ZM1176.5 48.18C1175.5 48.18 1174.64 47.994 1173.92 47.622C1173.2 47.25 1172.65 46.722 1172.25 46.038C1171.87 45.354 1171.67 44.544 1171.67 43.608C1171.67 42.696 1171.86 41.898 1172.23 41.214C1172.62 40.53 1173.14 39.996 1173.8 39.612C1174.47 39.216 1175.23 39.018 1176.08 39.018C1176.71 39.018 1177.27 39.12 1177.76 39.324C1178.26 39.528 1178.69 39.822 1179.04 40.206C1179.4 40.59 1179.67 41.058 1179.85 41.61C1180.04 42.15 1180.13 42.762 1180.13 43.446C1180.13 43.662 1180.06 43.83 1179.9 43.95C1179.76 44.058 1179.55 44.112 1179.27 44.112H1173.49V42.816H1178.55L1178.26 43.086C1178.26 42.534 1178.18 42.072 1178.01 41.7C1177.85 41.328 1177.62 41.046 1177.31 40.854C1177.01 40.65 1176.63 40.548 1176.17 40.548C1175.67 40.548 1175.24 40.668 1174.88 40.908C1174.53 41.136 1174.26 41.466 1174.07 41.898C1173.89 42.318 1173.8 42.822 1173.8 43.41V43.536C1173.8 44.52 1174.03 45.258 1174.48 45.75C1174.95 46.23 1175.63 46.47 1176.53 46.47C1176.85 46.47 1177.19 46.434 1177.58 46.362C1177.97 46.278 1178.35 46.14 1178.69 45.948C1178.95 45.804 1179.17 45.744 1179.36 45.768C1179.55 45.78 1179.7 45.846 1179.81 45.966C1179.93 46.086 1180 46.236 1180.03 46.416C1180.05 46.584 1180.01 46.758 1179.92 46.938C1179.83 47.118 1179.68 47.274 1179.47 47.406C1179.05 47.67 1178.56 47.868 1178.01 48C1177.47 48.12 1176.97 48.18 1176.5 48.18ZM1183.03 48.144C1182.67 48.144 1182.4 48.048 1182.2 47.856C1182.01 47.652 1181.92 47.364 1181.92 46.992V40.188C1181.92 39.816 1182.01 39.534 1182.2 39.342C1182.4 39.15 1182.67 39.054 1183.01 39.054C1183.36 39.054 1183.63 39.15 1183.82 39.342C1184.02 39.534 1184.11 39.816 1184.11 40.188V41.412L1183.91 40.962C1184.18 40.326 1184.59 39.846 1185.14 39.522C1185.7 39.186 1186.34 39.018 1187.05 39.018C1187.75 39.018 1188.34 39.15 1188.79 39.414C1189.25 39.678 1189.59 40.08 1189.82 40.62C1190.05 41.148 1190.16 41.82 1190.16 42.636V46.992C1190.16 47.364 1190.06 47.652 1189.87 47.856C1189.68 48.048 1189.4 48.144 1189.04 48.144C1188.68 48.144 1188.4 48.048 1188.2 47.856C1188.01 47.652 1187.91 47.364 1187.91 46.992V42.744C1187.91 42.06 1187.78 41.562 1187.51 41.25C1187.26 40.938 1186.87 40.782 1186.33 40.782C1185.67 40.782 1185.14 40.992 1184.74 41.412C1184.36 41.82 1184.17 42.366 1184.17 43.05V46.992C1184.17 47.76 1183.79 48.144 1183.03 48.144ZM1196.48 48.18C1195.7 48.18 1195.04 48.048 1194.52 47.784C1194 47.52 1193.62 47.136 1193.36 46.632C1193.11 46.116 1192.99 45.48 1192.99 44.724V40.89H1192.05C1191.76 40.89 1191.54 40.818 1191.38 40.674C1191.23 40.518 1191.15 40.308 1191.15 40.044C1191.15 39.768 1191.23 39.558 1191.38 39.414C1191.54 39.27 1191.76 39.198 1192.05 39.198H1192.99V37.56C1192.99 37.188 1193.08 36.906 1193.27 36.714C1193.48 36.522 1193.76 36.426 1194.12 36.426C1194.48 36.426 1194.76 36.522 1194.95 36.714C1195.14 36.906 1195.24 37.188 1195.24 37.56V39.198H1197.14C1197.43 39.198 1197.65 39.27 1197.81 39.414C1197.97 39.558 1198.04 39.768 1198.04 40.044C1198.04 40.308 1197.97 40.518 1197.81 40.674C1197.65 40.818 1197.43 40.89 1197.14 40.89H1195.24V44.598C1195.24 45.174 1195.36 45.606 1195.61 45.894C1195.87 46.182 1196.27 46.326 1196.84 46.326C1197.04 46.326 1197.22 46.308 1197.38 46.272C1197.53 46.236 1197.67 46.212 1197.79 46.2C1197.94 46.188 1198.06 46.236 1198.15 46.344C1198.25 46.44 1198.3 46.644 1198.3 46.956C1198.3 47.196 1198.25 47.412 1198.17 47.604C1198.1 47.784 1197.96 47.91 1197.76 47.982C1197.6 48.03 1197.4 48.072 1197.14 48.108C1196.89 48.156 1196.67 48.18 1196.48 48.18ZM1202.25 48.18C1201.62 48.18 1201.05 48.06 1200.54 47.82C1200.05 47.568 1199.66 47.232 1199.37 46.812C1199.1 46.392 1198.96 45.918 1198.96 45.39C1198.96 44.742 1199.13 44.232 1199.46 43.86C1199.8 43.476 1200.34 43.2 1201.1 43.032C1201.86 42.864 1202.87 42.78 1204.14 42.78H1205.04V44.076H1204.16C1203.42 44.076 1202.82 44.112 1202.38 44.184C1201.93 44.256 1201.62 44.382 1201.42 44.562C1201.24 44.73 1201.15 44.97 1201.15 45.282C1201.15 45.678 1201.29 46.002 1201.57 46.254C1201.84 46.506 1202.23 46.632 1202.72 46.632C1203.12 46.632 1203.46 46.542 1203.76 46.362C1204.08 46.17 1204.32 45.912 1204.5 45.588C1204.68 45.264 1204.77 44.892 1204.77 44.472V42.402C1204.77 41.802 1204.64 41.37 1204.38 41.106C1204.11 40.842 1203.67 40.71 1203.04 40.71C1202.7 40.71 1202.32 40.752 1201.91 40.836C1201.51 40.92 1201.09 41.064 1200.65 41.268C1200.42 41.376 1200.22 41.406 1200.04 41.358C1199.87 41.31 1199.74 41.214 1199.64 41.07C1199.55 40.914 1199.5 40.746 1199.5 40.566C1199.5 40.386 1199.55 40.212 1199.64 40.044C1199.74 39.864 1199.9 39.732 1200.13 39.648C1200.68 39.42 1201.21 39.258 1201.71 39.162C1202.23 39.066 1202.7 39.018 1203.12 39.018C1203.98 39.018 1204.69 39.15 1205.24 39.414C1205.8 39.678 1206.22 40.08 1206.5 40.62C1206.78 41.148 1206.91 41.832 1206.91 42.672V46.992C1206.91 47.364 1206.82 47.652 1206.64 47.856C1206.46 48.048 1206.21 48.144 1205.87 48.144C1205.53 48.144 1205.27 48.048 1205.08 47.856C1204.9 47.652 1204.81 47.364 1204.81 46.992V46.128H1204.95C1204.87 46.548 1204.7 46.914 1204.45 47.226C1204.21 47.526 1203.9 47.76 1203.53 47.928C1203.16 48.096 1202.73 48.18 1202.25 48.18Z" fill="#007BC7"/>
<rect x="1035" y="23" width="189" height="38" rx="7" stroke="#007BC7" stroke-width="2"/>
<line x1="-1.75853e-09" y1="85" x2="1366" y2="85" stroke="#007BC7" stroke-width="2"/>
<defs>
<clipPath id="clip0_731_11770">
<rect width="76" height="40.8804" fill="white" transform="translate(141 21.5596)"/>
</clipPath>
</defs>
</svg>
