<svg width="360" height="412" viewBox="0 0 360 412" fill="none" xmlns="http://www.w3.org/2000/svg">
<rect width="360" height="68" fill="white"/>
<g clip-path="url(#clip0_12454_218)">
<path d="M72.4461 42.9533L61.5135 21.8286C60.5705 19.9533 58.6385 18.6699 56.3958 18.6699H56.3904C54.1504 18.6699 52.2157 19.9533 51.2727 21.8286L43.5772 36.698C42.718 35.1687 41.348 33.9689 39.6944 33.3204C41.5399 31.9856 42.7423 29.8105 42.7423 27.357C42.7423 24.5117 41.1265 22.0501 38.7649 20.8288C36.6843 19.7345 34.3092 19.1157 31.7909 19.1157H20.2801C17.9131 19.1157 16 21.0288 16 23.3904V44.8123C16 47.1739 17.9131 49.087 20.2801 49.087H32.7285C35.1279 49.087 37.4111 48.5898 39.4836 47.7035L40.2726 47.3225C40.3159 47.3009 40.3591 47.2793 40.4023 47.2577C41.1508 48.4979 42.5045 49.3329 44.0636 49.3329C45.7956 49.3329 47.2872 48.3061 47.96 46.8226C48.295 46.039 49.0516 45.4851 49.9433 45.4419H62.8402C63.7346 45.4851 64.4885 46.039 64.8236 46.8226C65.4937 48.3061 66.9879 49.3329 68.7199 49.3329C71.0842 49.3329 72.9973 47.4144 72.9973 45.0609C72.9973 44.2935 72.8 43.5748 72.4434 42.956" fill="#FFD305"/>
</g>
<g clip-path="url(#clip1_12454_218)">
<path d="M208.984 40.968C210.755 40.9676 212.475 40.3749 213.87 39.284L218.259 43.67L219.67 42.26L215.283 37.873C216.384 36.447 216.971 34.69 216.946 32.8883C216.921 31.0866 216.287 29.3464 215.146 27.9512C214.006 26.5561 212.427 25.5882 210.666 25.2052C208.906 24.8223 207.067 25.0469 205.45 25.8424C203.834 26.6379 202.534 27.9575 201.763 29.5862C200.992 31.2148 200.796 33.0565 201.205 34.8112C201.615 36.5659 202.607 38.1301 204.019 39.249C205.431 40.3679 207.181 40.9756 208.983 40.973L208.984 40.968ZM208.984 27C210.169 26.9992 211.327 27.3498 212.312 28.0075C213.298 28.6652 214.066 29.6003 214.519 30.6947C214.973 31.789 215.092 32.9933 214.861 34.1552C214.63 35.3172 214.06 36.3845 213.222 37.2222C212.384 38.0598 211.317 38.6302 210.155 38.8611C208.993 39.0921 207.789 38.9731 206.695 38.5194C205.6 38.0657 204.665 37.2976 204.007 36.3123C203.35 35.3269 202.999 34.1687 203 32.984C203.003 31.3978 203.634 29.8772 204.756 28.7556C205.877 27.634 207.398 27.0027 208.984 27V27Z" fill="#38485C"/>
</g>
<rect x="183" y="13" width="54" height="42" rx="7" stroke="#E6EBF0" stroke-width="2"/>
<rect x="245" y="13" width="100" height="42" rx="9" fill="white"/>
<path d="M260.286 40.126C260.07 40.126 259.902 40.066 259.782 39.946C259.662 39.814 259.602 39.634 259.602 39.406V27.904C259.602 27.664 259.662 27.484 259.782 27.364C259.902 27.244 260.07 27.184 260.286 27.184C260.478 27.184 260.628 27.226 260.736 27.31C260.856 27.382 260.964 27.508 261.06 27.688L265.992 36.976H265.452L270.366 27.688C270.462 27.508 270.564 27.382 270.672 27.31C270.78 27.226 270.936 27.184 271.14 27.184C271.344 27.184 271.506 27.244 271.626 27.364C271.746 27.484 271.806 27.664 271.806 27.904V39.406C271.806 39.634 271.746 39.814 271.626 39.946C271.518 40.066 271.35 40.126 271.122 40.126C270.906 40.126 270.738 40.066 270.618 39.946C270.498 39.814 270.438 39.634 270.438 39.406V29.29H270.87L266.37 37.732C266.286 37.888 266.196 38.002 266.1 38.074C266.016 38.134 265.89 38.164 265.722 38.164C265.554 38.164 265.422 38.128 265.326 38.056C265.23 37.984 265.146 37.876 265.074 37.732L260.52 29.272H260.952V39.406C260.952 39.634 260.892 39.814 260.772 39.946C260.664 40.066 260.502 40.126 260.286 40.126ZM278.708 40.162C277.784 40.162 276.986 39.982 276.314 39.622C275.654 39.25 275.138 38.728 274.766 38.056C274.406 37.384 274.226 36.58 274.226 35.644C274.226 34.732 274.406 33.94 274.766 33.268C275.126 32.584 275.618 32.05 276.242 31.666C276.878 31.282 277.61 31.09 278.438 31.09C279.026 31.09 279.554 31.192 280.022 31.396C280.49 31.588 280.886 31.87 281.21 32.242C281.546 32.614 281.798 33.064 281.966 33.592C282.146 34.12 282.236 34.714 282.236 35.374C282.236 35.566 282.182 35.71 282.074 35.806C281.966 35.89 281.81 35.932 281.606 35.932H275.342V34.978H281.264L280.976 35.212C280.976 34.564 280.88 34.018 280.688 33.574C280.496 33.118 280.214 32.77 279.842 32.53C279.482 32.29 279.026 32.17 278.474 32.17C277.862 32.17 277.34 32.314 276.908 32.602C276.488 32.878 276.17 33.268 275.954 33.772C275.738 34.264 275.63 34.84 275.63 35.5V35.608C275.63 36.712 275.894 37.552 276.422 38.128C276.962 38.704 277.724 38.992 278.708 38.992C279.116 38.992 279.518 38.938 279.914 38.83C280.322 38.722 280.718 38.542 281.102 38.29C281.27 38.182 281.42 38.134 281.552 38.146C281.696 38.146 281.81 38.188 281.894 38.272C281.978 38.344 282.032 38.44 282.056 38.56C282.092 38.668 282.08 38.788 282.02 38.92C281.972 39.052 281.87 39.166 281.714 39.262C281.318 39.55 280.85 39.772 280.31 39.928C279.77 40.084 279.236 40.162 278.708 40.162ZM285.067 40.126C284.827 40.126 284.647 40.06 284.527 39.928C284.407 39.796 284.347 39.61 284.347 39.37V31.864C284.347 31.624 284.407 31.444 284.527 31.324C284.647 31.192 284.821 31.126 285.049 31.126C285.277 31.126 285.451 31.192 285.571 31.324C285.703 31.444 285.769 31.624 285.769 31.864V33.412L285.571 33.196C285.823 32.5 286.231 31.978 286.795 31.63C287.371 31.27 288.031 31.09 288.775 31.09C289.471 31.09 290.047 31.216 290.503 31.468C290.971 31.72 291.319 32.104 291.547 32.62C291.775 33.124 291.889 33.766 291.889 34.546V39.37C291.889 39.61 291.823 39.796 291.691 39.928C291.571 40.06 291.397 40.126 291.169 40.126C290.929 40.126 290.743 40.06 290.611 39.928C290.491 39.796 290.431 39.61 290.431 39.37V34.636C290.431 33.82 290.269 33.226 289.945 32.854C289.633 32.47 289.129 32.278 288.433 32.278C287.629 32.278 286.987 32.53 286.507 33.034C286.039 33.526 285.805 34.186 285.805 35.014V39.37C285.805 39.874 285.559 40.126 285.067 40.126ZM297.673 40.162C296.965 40.162 296.377 40.036 295.909 39.784C295.453 39.52 295.105 39.13 294.865 38.614C294.637 38.098 294.523 37.456 294.523 36.688V31.864C294.523 31.612 294.583 31.426 294.703 31.306C294.835 31.186 295.015 31.126 295.243 31.126C295.483 31.126 295.663 31.186 295.783 31.306C295.915 31.426 295.981 31.612 295.981 31.864V36.67C295.981 37.438 296.137 38.014 296.449 38.398C296.773 38.77 297.277 38.956 297.961 38.956C298.705 38.956 299.311 38.704 299.779 38.2C300.247 37.696 300.481 37.036 300.481 36.22V31.864C300.481 31.612 300.541 31.426 300.661 31.306C300.793 31.186 300.979 31.126 301.219 31.126C301.447 31.126 301.621 31.186 301.741 31.306C301.873 31.426 301.939 31.612 301.939 31.864V39.37C301.939 39.874 301.705 40.126 301.237 40.126C301.009 40.126 300.829 40.06 300.697 39.928C300.577 39.796 300.517 39.61 300.517 39.37V37.732L300.751 37.984C300.511 38.692 300.115 39.232 299.563 39.604C299.023 39.976 298.393 40.162 297.673 40.162ZM298.861 29.974C298.777 30.094 298.675 30.166 298.555 30.19C298.435 30.202 298.321 30.184 298.213 30.136C298.105 30.076 298.027 29.992 297.979 29.884C297.931 29.776 297.943 29.65 298.015 29.506L299.527 26.572C299.611 26.404 299.719 26.296 299.851 26.248C299.983 26.2 300.115 26.194 300.247 26.23C300.391 26.254 300.511 26.314 300.607 26.41C300.703 26.506 300.757 26.62 300.769 26.752C300.793 26.884 300.757 27.022 300.661 27.166L298.861 29.974Z" fill="#38485C"/>
<path d="M312 40H328C328.265 40 328.52 39.8946 328.707 39.7071C328.895 39.5196 329 39.2652 329 39C329 38.7348 328.895 38.4804 328.707 38.2929C328.52 38.1054 328.265 38 328 38H312C311.735 38 311.48 38.1054 311.293 38.2929C311.105 38.4804 311 38.7348 311 39C311 39.2652 311.105 39.5196 311.293 39.7071C311.48 39.8946 311.735 40 312 40ZM312 35H328C328.265 35 328.52 34.8946 328.707 34.7071C328.895 34.5196 329 34.2652 329 34C329 33.7348 328.895 33.4804 328.707 33.2929C328.52 33.1054 328.265 33 328 33H312C311.735 33 311.48 33.1054 311.293 33.2929C311.105 33.4804 311 33.7348 311 34C311 34.2652 311.105 34.5196 311.293 34.7071C311.48 34.8946 311.735 35 312 35ZM311 29C311 29.2652 311.105 29.5196 311.293 29.7071C311.48 29.8946 311.735 30 312 30H328C328.265 30 328.52 29.8946 328.707 29.7071C328.895 29.5196 329 29.2652 329 29C329 28.7348 328.895 28.4804 328.707 28.2929C328.52 28.1054 328.265 28 328 28H312C311.735 28 311.48 28.1054 311.293 28.2929C311.105 28.4804 311 28.7348 311 29Z" fill="#38485C"/>
<rect x="245" y="13" width="100" height="42" rx="9" stroke="#E6EBF0" stroke-width="2"/>
<mask id="path-7-outside-1_12454_218" maskUnits="userSpaceOnUse" x="0" y="70" width="360" height="342" fill="black">
<rect fill="white" y="70" width="360" height="342"/>
<path d="M0 70H360V410H0V70Z"/>
</mask>
<path d="M0 70H360V410H0V70Z" fill="white"/>
<path d="M16 94C16 89.5817 19.5817 86 24 86H336C340.418 86 344 89.5817 344 94V126C344 130.418 340.418 134 336 134H24C19.5817 134 16 130.418 16 126V94Z" fill="#007BC7"/>
<path d="M270.102 112.961C270.102 113.638 269.932 114.216 269.594 114.695C269.26 115.169 268.792 115.531 268.188 115.781C267.583 116.031 266.872 116.156 266.055 116.156C265.622 116.156 265.214 116.135 264.828 116.094C264.443 116.052 264.089 115.992 263.766 115.914C263.443 115.836 263.159 115.74 262.914 115.625V114.352C263.305 114.513 263.781 114.664 264.344 114.805C264.906 114.94 265.495 115.008 266.109 115.008C266.682 115.008 267.167 114.932 267.562 114.781C267.958 114.625 268.258 114.404 268.461 114.117C268.669 113.826 268.773 113.477 268.773 113.07C268.773 112.68 268.688 112.354 268.516 112.094C268.344 111.828 268.057 111.589 267.656 111.375C267.26 111.156 266.719 110.924 266.031 110.68C265.547 110.508 265.12 110.32 264.75 110.117C264.38 109.909 264.07 109.674 263.82 109.414C263.57 109.154 263.38 108.852 263.25 108.508C263.125 108.164 263.062 107.771 263.062 107.328C263.062 106.719 263.216 106.198 263.523 105.766C263.836 105.328 264.266 104.995 264.812 104.766C265.365 104.531 265.997 104.414 266.711 104.414C267.32 104.414 267.883 104.471 268.398 104.586C268.919 104.701 269.396 104.854 269.828 105.047L269.414 106.188C269.003 106.016 268.565 105.872 268.102 105.758C267.643 105.643 267.169 105.586 266.68 105.586C266.19 105.586 265.776 105.659 265.438 105.805C265.104 105.945 264.849 106.146 264.672 106.406C264.495 106.667 264.406 106.977 264.406 107.336C264.406 107.737 264.49 108.07 264.656 108.336C264.828 108.602 265.099 108.839 265.469 109.047C265.844 109.25 266.339 109.464 266.953 109.688C267.625 109.932 268.195 110.193 268.664 110.469C269.133 110.74 269.49 111.073 269.734 111.469C269.979 111.859 270.102 112.357 270.102 112.961ZM275.539 107.281C276.268 107.281 276.893 107.443 277.414 107.766C277.935 108.089 278.333 108.542 278.609 109.125C278.885 109.703 279.023 110.38 279.023 111.156V111.961H273.109C273.125 112.966 273.375 113.732 273.859 114.258C274.344 114.784 275.026 115.047 275.906 115.047C276.448 115.047 276.927 114.997 277.344 114.898C277.76 114.799 278.193 114.654 278.641 114.461V115.602C278.208 115.794 277.779 115.935 277.352 116.023C276.93 116.112 276.43 116.156 275.852 116.156C275.029 116.156 274.31 115.99 273.695 115.656C273.086 115.318 272.612 114.823 272.273 114.172C271.935 113.521 271.766 112.724 271.766 111.781C271.766 110.859 271.919 110.062 272.227 109.391C272.539 108.714 272.977 108.193 273.539 107.828C274.107 107.464 274.773 107.281 275.539 107.281ZM275.523 108.344C274.831 108.344 274.279 108.57 273.867 109.023C273.456 109.477 273.211 110.109 273.133 110.922H277.664C277.659 110.411 277.578 109.964 277.422 109.578C277.271 109.188 277.039 108.885 276.727 108.672C276.414 108.453 276.013 108.344 275.523 108.344ZM284.656 116.156C283.885 116.156 283.206 115.997 282.617 115.68C282.029 115.362 281.57 114.878 281.242 114.227C280.914 113.576 280.75 112.755 280.75 111.766C280.75 110.729 280.922 109.883 281.266 109.227C281.615 108.565 282.094 108.076 282.703 107.758C283.312 107.44 284.005 107.281 284.781 107.281C285.208 107.281 285.62 107.326 286.016 107.414C286.417 107.497 286.745 107.604 287 107.734L286.609 108.82C286.349 108.716 286.047 108.622 285.703 108.539C285.365 108.456 285.047 108.414 284.75 108.414C284.156 108.414 283.661 108.542 283.266 108.797C282.875 109.052 282.581 109.427 282.383 109.922C282.19 110.417 282.094 111.026 282.094 111.75C282.094 112.443 282.188 113.034 282.375 113.523C282.568 114.013 282.852 114.388 283.227 114.648C283.607 114.904 284.081 115.031 284.648 115.031C285.102 115.031 285.51 114.984 285.875 114.891C286.24 114.792 286.57 114.677 286.867 114.547V115.703C286.581 115.849 286.26 115.961 285.906 116.039C285.557 116.117 285.141 116.156 284.656 116.156ZM292.328 116.156C291.557 116.156 290.878 115.997 290.289 115.68C289.701 115.362 289.242 114.878 288.914 114.227C288.586 113.576 288.422 112.755 288.422 111.766C288.422 110.729 288.594 109.883 288.938 109.227C289.286 108.565 289.766 108.076 290.375 107.758C290.984 107.44 291.677 107.281 292.453 107.281C292.88 107.281 293.292 107.326 293.688 107.414C294.089 107.497 294.417 107.604 294.672 107.734L294.281 108.82C294.021 108.716 293.719 108.622 293.375 108.539C293.036 108.456 292.719 108.414 292.422 108.414C291.828 108.414 291.333 108.542 290.938 108.797C290.547 109.052 290.253 109.427 290.055 109.922C289.862 110.417 289.766 111.026 289.766 111.75C289.766 112.443 289.859 113.034 290.047 113.523C290.24 114.013 290.523 114.388 290.898 114.648C291.279 114.904 291.753 115.031 292.32 115.031C292.773 115.031 293.182 114.984 293.547 114.891C293.911 114.792 294.242 114.677 294.539 114.547V115.703C294.253 115.849 293.932 115.961 293.578 116.039C293.229 116.117 292.812 116.156 292.328 116.156ZM297.867 107.438V116H296.57V107.438H297.867ZM297.234 104.234C297.448 104.234 297.63 104.305 297.781 104.445C297.938 104.581 298.016 104.794 298.016 105.086C298.016 105.372 297.938 105.586 297.781 105.727C297.63 105.867 297.448 105.938 297.234 105.938C297.01 105.938 296.823 105.867 296.672 105.727C296.526 105.586 296.453 105.372 296.453 105.086C296.453 104.794 296.526 104.581 296.672 104.445C296.823 104.305 297.01 104.234 297.234 104.234ZM308 111.703C308 112.406 307.909 113.034 307.727 113.586C307.544 114.138 307.281 114.604 306.938 114.984C306.594 115.365 306.177 115.656 305.688 115.859C305.203 116.057 304.654 116.156 304.039 116.156C303.466 116.156 302.94 116.057 302.461 115.859C301.987 115.656 301.576 115.365 301.227 114.984C300.883 114.604 300.615 114.138 300.422 113.586C300.234 113.034 300.141 112.406 300.141 111.703C300.141 110.766 300.299 109.969 300.617 109.312C300.935 108.651 301.388 108.148 301.977 107.805C302.57 107.456 303.276 107.281 304.094 107.281C304.875 107.281 305.557 107.456 306.141 107.805C306.729 108.154 307.185 108.659 307.508 109.32C307.836 109.977 308 110.771 308 111.703ZM301.484 111.703C301.484 112.391 301.576 112.987 301.758 113.492C301.94 113.997 302.221 114.388 302.602 114.664C302.982 114.94 303.471 115.078 304.07 115.078C304.664 115.078 305.151 114.94 305.531 114.664C305.917 114.388 306.201 113.997 306.383 113.492C306.565 112.987 306.656 112.391 306.656 111.703C306.656 111.021 306.565 110.432 306.383 109.938C306.201 109.438 305.919 109.052 305.539 108.781C305.159 108.51 304.667 108.375 304.062 108.375C303.172 108.375 302.518 108.669 302.102 109.258C301.69 109.846 301.484 110.661 301.484 111.703ZM306.336 103.742V103.898C306.232 104.049 306.089 104.232 305.906 104.445C305.729 104.654 305.531 104.875 305.312 105.109C305.094 105.339 304.872 105.557 304.648 105.766C304.43 105.974 304.227 106.154 304.039 106.305H303.172V106.117C303.339 105.919 303.521 105.682 303.719 105.406C303.917 105.125 304.109 104.839 304.297 104.547C304.484 104.25 304.641 103.982 304.766 103.742H306.336ZM314.297 107.281C315.312 107.281 316.081 107.531 316.602 108.031C317.122 108.526 317.383 109.323 317.383 110.422V116H316.102V110.508C316.102 109.794 315.938 109.26 315.609 108.906C315.286 108.552 314.789 108.375 314.117 108.375C313.169 108.375 312.503 108.643 312.117 109.18C311.732 109.716 311.539 110.495 311.539 111.516V116H310.242V107.438H311.289L311.484 108.672H311.555C311.737 108.37 311.969 108.117 312.25 107.914C312.531 107.706 312.846 107.549 313.195 107.445C313.544 107.336 313.911 107.281 314.297 107.281ZM328.461 116H327.195V107.906C327.195 107.599 327.195 107.336 327.195 107.117C327.201 106.893 327.206 106.69 327.211 106.508C327.221 106.32 327.234 106.13 327.25 105.938C327.089 106.104 326.938 106.247 326.797 106.367C326.656 106.482 326.482 106.625 326.273 106.797L324.969 107.844L324.289 106.961L327.383 104.578H328.461V116Z" fill="white"/>
<path d="M16 146C16 141.582 19.5817 138 24 138H336C340.418 138 344 141.582 344 146V178C344 182.418 340.418 186 336 186H24C19.5817 186 16 182.418 16 178V146Z" fill="white"/>
<path d="M270.102 164.961C270.102 165.638 269.932 166.216 269.594 166.695C269.26 167.169 268.792 167.531 268.188 167.781C267.583 168.031 266.872 168.156 266.055 168.156C265.622 168.156 265.214 168.135 264.828 168.094C264.443 168.052 264.089 167.992 263.766 167.914C263.443 167.836 263.159 167.74 262.914 167.625V166.352C263.305 166.513 263.781 166.664 264.344 166.805C264.906 166.94 265.495 167.008 266.109 167.008C266.682 167.008 267.167 166.932 267.562 166.781C267.958 166.625 268.258 166.404 268.461 166.117C268.669 165.826 268.773 165.477 268.773 165.07C268.773 164.68 268.688 164.354 268.516 164.094C268.344 163.828 268.057 163.589 267.656 163.375C267.26 163.156 266.719 162.924 266.031 162.68C265.547 162.508 265.12 162.32 264.75 162.117C264.38 161.909 264.07 161.674 263.82 161.414C263.57 161.154 263.38 160.852 263.25 160.508C263.125 160.164 263.062 159.771 263.062 159.328C263.062 158.719 263.216 158.198 263.523 157.766C263.836 157.328 264.266 156.995 264.812 156.766C265.365 156.531 265.997 156.414 266.711 156.414C267.32 156.414 267.883 156.471 268.398 156.586C268.919 156.701 269.396 156.854 269.828 157.047L269.414 158.188C269.003 158.016 268.565 157.872 268.102 157.758C267.643 157.643 267.169 157.586 266.68 157.586C266.19 157.586 265.776 157.659 265.438 157.805C265.104 157.945 264.849 158.146 264.672 158.406C264.495 158.667 264.406 158.977 264.406 159.336C264.406 159.737 264.49 160.07 264.656 160.336C264.828 160.602 265.099 160.839 265.469 161.047C265.844 161.25 266.339 161.464 266.953 161.688C267.625 161.932 268.195 162.193 268.664 162.469C269.133 162.74 269.49 163.073 269.734 163.469C269.979 163.859 270.102 164.357 270.102 164.961ZM275.539 159.281C276.268 159.281 276.893 159.443 277.414 159.766C277.935 160.089 278.333 160.542 278.609 161.125C278.885 161.703 279.023 162.38 279.023 163.156V163.961H273.109C273.125 164.966 273.375 165.732 273.859 166.258C274.344 166.784 275.026 167.047 275.906 167.047C276.448 167.047 276.927 166.997 277.344 166.898C277.76 166.799 278.193 166.654 278.641 166.461V167.602C278.208 167.794 277.779 167.935 277.352 168.023C276.93 168.112 276.43 168.156 275.852 168.156C275.029 168.156 274.31 167.99 273.695 167.656C273.086 167.318 272.612 166.823 272.273 166.172C271.935 165.521 271.766 164.724 271.766 163.781C271.766 162.859 271.919 162.062 272.227 161.391C272.539 160.714 272.977 160.193 273.539 159.828C274.107 159.464 274.773 159.281 275.539 159.281ZM275.523 160.344C274.831 160.344 274.279 160.57 273.867 161.023C273.456 161.477 273.211 162.109 273.133 162.922H277.664C277.659 162.411 277.578 161.964 277.422 161.578C277.271 161.188 277.039 160.885 276.727 160.672C276.414 160.453 276.013 160.344 275.523 160.344ZM284.656 168.156C283.885 168.156 283.206 167.997 282.617 167.68C282.029 167.362 281.57 166.878 281.242 166.227C280.914 165.576 280.75 164.755 280.75 163.766C280.75 162.729 280.922 161.883 281.266 161.227C281.615 160.565 282.094 160.076 282.703 159.758C283.312 159.44 284.005 159.281 284.781 159.281C285.208 159.281 285.62 159.326 286.016 159.414C286.417 159.497 286.745 159.604 287 159.734L286.609 160.82C286.349 160.716 286.047 160.622 285.703 160.539C285.365 160.456 285.047 160.414 284.75 160.414C284.156 160.414 283.661 160.542 283.266 160.797C282.875 161.052 282.581 161.427 282.383 161.922C282.19 162.417 282.094 163.026 282.094 163.75C282.094 164.443 282.188 165.034 282.375 165.523C282.568 166.013 282.852 166.388 283.227 166.648C283.607 166.904 284.081 167.031 284.648 167.031C285.102 167.031 285.51 166.984 285.875 166.891C286.24 166.792 286.57 166.677 286.867 166.547V167.703C286.581 167.849 286.26 167.961 285.906 168.039C285.557 168.117 285.141 168.156 284.656 168.156ZM292.328 168.156C291.557 168.156 290.878 167.997 290.289 167.68C289.701 167.362 289.242 166.878 288.914 166.227C288.586 165.576 288.422 164.755 288.422 163.766C288.422 162.729 288.594 161.883 288.938 161.227C289.286 160.565 289.766 160.076 290.375 159.758C290.984 159.44 291.677 159.281 292.453 159.281C292.88 159.281 293.292 159.326 293.688 159.414C294.089 159.497 294.417 159.604 294.672 159.734L294.281 160.82C294.021 160.716 293.719 160.622 293.375 160.539C293.036 160.456 292.719 160.414 292.422 160.414C291.828 160.414 291.333 160.542 290.938 160.797C290.547 161.052 290.253 161.427 290.055 161.922C289.862 162.417 289.766 163.026 289.766 163.75C289.766 164.443 289.859 165.034 290.047 165.523C290.24 166.013 290.523 166.388 290.898 166.648C291.279 166.904 291.753 167.031 292.32 167.031C292.773 167.031 293.182 166.984 293.547 166.891C293.911 166.792 294.242 166.677 294.539 166.547V167.703C294.253 167.849 293.932 167.961 293.578 168.039C293.229 168.117 292.812 168.156 292.328 168.156ZM297.867 159.438V168H296.57V159.438H297.867ZM297.234 156.234C297.448 156.234 297.63 156.305 297.781 156.445C297.938 156.581 298.016 156.794 298.016 157.086C298.016 157.372 297.938 157.586 297.781 157.727C297.63 157.867 297.448 157.938 297.234 157.938C297.01 157.938 296.823 157.867 296.672 157.727C296.526 157.586 296.453 157.372 296.453 157.086C296.453 156.794 296.526 156.581 296.672 156.445C296.823 156.305 297.01 156.234 297.234 156.234ZM308 163.703C308 164.406 307.909 165.034 307.727 165.586C307.544 166.138 307.281 166.604 306.938 166.984C306.594 167.365 306.177 167.656 305.688 167.859C305.203 168.057 304.654 168.156 304.039 168.156C303.466 168.156 302.94 168.057 302.461 167.859C301.987 167.656 301.576 167.365 301.227 166.984C300.883 166.604 300.615 166.138 300.422 165.586C300.234 165.034 300.141 164.406 300.141 163.703C300.141 162.766 300.299 161.969 300.617 161.312C300.935 160.651 301.388 160.148 301.977 159.805C302.57 159.456 303.276 159.281 304.094 159.281C304.875 159.281 305.557 159.456 306.141 159.805C306.729 160.154 307.185 160.659 307.508 161.32C307.836 161.977 308 162.771 308 163.703ZM301.484 163.703C301.484 164.391 301.576 164.987 301.758 165.492C301.94 165.997 302.221 166.388 302.602 166.664C302.982 166.94 303.471 167.078 304.07 167.078C304.664 167.078 305.151 166.94 305.531 166.664C305.917 166.388 306.201 165.997 306.383 165.492C306.565 164.987 306.656 164.391 306.656 163.703C306.656 163.021 306.565 162.432 306.383 161.938C306.201 161.438 305.919 161.052 305.539 160.781C305.159 160.51 304.667 160.375 304.062 160.375C303.172 160.375 302.518 160.669 302.102 161.258C301.69 161.846 301.484 162.661 301.484 163.703ZM306.336 155.742V155.898C306.232 156.049 306.089 156.232 305.906 156.445C305.729 156.654 305.531 156.875 305.312 157.109C305.094 157.339 304.872 157.557 304.648 157.766C304.43 157.974 304.227 158.154 304.039 158.305H303.172V158.117C303.339 157.919 303.521 157.682 303.719 157.406C303.917 157.125 304.109 156.839 304.297 156.547C304.484 156.25 304.641 155.982 304.766 155.742H306.336ZM314.297 159.281C315.312 159.281 316.081 159.531 316.602 160.031C317.122 160.526 317.383 161.323 317.383 162.422V168H316.102V162.508C316.102 161.794 315.938 161.26 315.609 160.906C315.286 160.552 314.789 160.375 314.117 160.375C313.169 160.375 312.503 160.643 312.117 161.18C311.732 161.716 311.539 162.495 311.539 163.516V168H310.242V159.438H311.289L311.484 160.672H311.555C311.737 160.37 311.969 160.117 312.25 159.914C312.531 159.706 312.846 159.549 313.195 159.445C313.544 159.336 313.911 159.281 314.297 159.281ZM331.117 168H323.633V166.914L326.688 163.812C327.255 163.24 327.732 162.729 328.117 162.281C328.508 161.833 328.805 161.393 329.008 160.961C329.211 160.523 329.312 160.044 329.312 159.523C329.312 158.878 329.12 158.385 328.734 158.047C328.354 157.703 327.852 157.531 327.227 157.531C326.68 157.531 326.195 157.625 325.773 157.812C325.352 158 324.919 158.266 324.477 158.609L323.781 157.734C324.083 157.479 324.411 157.253 324.766 157.055C325.125 156.857 325.508 156.701 325.914 156.586C326.326 156.471 326.763 156.414 327.227 156.414C327.93 156.414 328.536 156.536 329.047 156.781C329.557 157.026 329.951 157.375 330.227 157.828C330.508 158.281 330.648 158.82 330.648 159.445C330.648 160.049 330.529 160.612 330.289 161.133C330.049 161.648 329.714 162.161 329.281 162.672C328.849 163.177 328.344 163.714 327.766 164.281L325.281 166.758V166.812H331.117V168Z" fill="#38485C"/>
<path d="M16 198C16 193.582 19.5817 190 24 190H336C340.418 190 344 193.582 344 198V230C344 234.418 340.418 238 336 238H24C19.5817 238 16 234.418 16 230V198Z" fill="white"/>
<path d="M270.102 216.961C270.102 217.638 269.932 218.216 269.594 218.695C269.26 219.169 268.792 219.531 268.188 219.781C267.583 220.031 266.872 220.156 266.055 220.156C265.622 220.156 265.214 220.135 264.828 220.094C264.443 220.052 264.089 219.992 263.766 219.914C263.443 219.836 263.159 219.74 262.914 219.625V218.352C263.305 218.513 263.781 218.664 264.344 218.805C264.906 218.94 265.495 219.008 266.109 219.008C266.682 219.008 267.167 218.932 267.562 218.781C267.958 218.625 268.258 218.404 268.461 218.117C268.669 217.826 268.773 217.477 268.773 217.07C268.773 216.68 268.688 216.354 268.516 216.094C268.344 215.828 268.057 215.589 267.656 215.375C267.26 215.156 266.719 214.924 266.031 214.68C265.547 214.508 265.12 214.32 264.75 214.117C264.38 213.909 264.07 213.674 263.82 213.414C263.57 213.154 263.38 212.852 263.25 212.508C263.125 212.164 263.062 211.771 263.062 211.328C263.062 210.719 263.216 210.198 263.523 209.766C263.836 209.328 264.266 208.995 264.812 208.766C265.365 208.531 265.997 208.414 266.711 208.414C267.32 208.414 267.883 208.471 268.398 208.586C268.919 208.701 269.396 208.854 269.828 209.047L269.414 210.188C269.003 210.016 268.565 209.872 268.102 209.758C267.643 209.643 267.169 209.586 266.68 209.586C266.19 209.586 265.776 209.659 265.438 209.805C265.104 209.945 264.849 210.146 264.672 210.406C264.495 210.667 264.406 210.977 264.406 211.336C264.406 211.737 264.49 212.07 264.656 212.336C264.828 212.602 265.099 212.839 265.469 213.047C265.844 213.25 266.339 213.464 266.953 213.688C267.625 213.932 268.195 214.193 268.664 214.469C269.133 214.74 269.49 215.073 269.734 215.469C269.979 215.859 270.102 216.357 270.102 216.961ZM275.539 211.281C276.268 211.281 276.893 211.443 277.414 211.766C277.935 212.089 278.333 212.542 278.609 213.125C278.885 213.703 279.023 214.38 279.023 215.156V215.961H273.109C273.125 216.966 273.375 217.732 273.859 218.258C274.344 218.784 275.026 219.047 275.906 219.047C276.448 219.047 276.927 218.997 277.344 218.898C277.76 218.799 278.193 218.654 278.641 218.461V219.602C278.208 219.794 277.779 219.935 277.352 220.023C276.93 220.112 276.43 220.156 275.852 220.156C275.029 220.156 274.31 219.99 273.695 219.656C273.086 219.318 272.612 218.823 272.273 218.172C271.935 217.521 271.766 216.724 271.766 215.781C271.766 214.859 271.919 214.062 272.227 213.391C272.539 212.714 272.977 212.193 273.539 211.828C274.107 211.464 274.773 211.281 275.539 211.281ZM275.523 212.344C274.831 212.344 274.279 212.57 273.867 213.023C273.456 213.477 273.211 214.109 273.133 214.922H277.664C277.659 214.411 277.578 213.964 277.422 213.578C277.271 213.188 277.039 212.885 276.727 212.672C276.414 212.453 276.013 212.344 275.523 212.344ZM284.656 220.156C283.885 220.156 283.206 219.997 282.617 219.68C282.029 219.362 281.57 218.878 281.242 218.227C280.914 217.576 280.75 216.755 280.75 215.766C280.75 214.729 280.922 213.883 281.266 213.227C281.615 212.565 282.094 212.076 282.703 211.758C283.312 211.44 284.005 211.281 284.781 211.281C285.208 211.281 285.62 211.326 286.016 211.414C286.417 211.497 286.745 211.604 287 211.734L286.609 212.82C286.349 212.716 286.047 212.622 285.703 212.539C285.365 212.456 285.047 212.414 284.75 212.414C284.156 212.414 283.661 212.542 283.266 212.797C282.875 213.052 282.581 213.427 282.383 213.922C282.19 214.417 282.094 215.026 282.094 215.75C282.094 216.443 282.188 217.034 282.375 217.523C282.568 218.013 282.852 218.388 283.227 218.648C283.607 218.904 284.081 219.031 284.648 219.031C285.102 219.031 285.51 218.984 285.875 218.891C286.24 218.792 286.57 218.677 286.867 218.547V219.703C286.581 219.849 286.26 219.961 285.906 220.039C285.557 220.117 285.141 220.156 284.656 220.156ZM292.328 220.156C291.557 220.156 290.878 219.997 290.289 219.68C289.701 219.362 289.242 218.878 288.914 218.227C288.586 217.576 288.422 216.755 288.422 215.766C288.422 214.729 288.594 213.883 288.938 213.227C289.286 212.565 289.766 212.076 290.375 211.758C290.984 211.44 291.677 211.281 292.453 211.281C292.88 211.281 293.292 211.326 293.688 211.414C294.089 211.497 294.417 211.604 294.672 211.734L294.281 212.82C294.021 212.716 293.719 212.622 293.375 212.539C293.036 212.456 292.719 212.414 292.422 212.414C291.828 212.414 291.333 212.542 290.938 212.797C290.547 213.052 290.253 213.427 290.055 213.922C289.862 214.417 289.766 215.026 289.766 215.75C289.766 216.443 289.859 217.034 290.047 217.523C290.24 218.013 290.523 218.388 290.898 218.648C291.279 218.904 291.753 219.031 292.32 219.031C292.773 219.031 293.182 218.984 293.547 218.891C293.911 218.792 294.242 218.677 294.539 218.547V219.703C294.253 219.849 293.932 219.961 293.578 220.039C293.229 220.117 292.812 220.156 292.328 220.156ZM297.867 211.438V220H296.57V211.438H297.867ZM297.234 208.234C297.448 208.234 297.63 208.305 297.781 208.445C297.938 208.581 298.016 208.794 298.016 209.086C298.016 209.372 297.938 209.586 297.781 209.727C297.63 209.867 297.448 209.938 297.234 209.938C297.01 209.938 296.823 209.867 296.672 209.727C296.526 209.586 296.453 209.372 296.453 209.086C296.453 208.794 296.526 208.581 296.672 208.445C296.823 208.305 297.01 208.234 297.234 208.234ZM308 215.703C308 216.406 307.909 217.034 307.727 217.586C307.544 218.138 307.281 218.604 306.938 218.984C306.594 219.365 306.177 219.656 305.688 219.859C305.203 220.057 304.654 220.156 304.039 220.156C303.466 220.156 302.94 220.057 302.461 219.859C301.987 219.656 301.576 219.365 301.227 218.984C300.883 218.604 300.615 218.138 300.422 217.586C300.234 217.034 300.141 216.406 300.141 215.703C300.141 214.766 300.299 213.969 300.617 213.312C300.935 212.651 301.388 212.148 301.977 211.805C302.57 211.456 303.276 211.281 304.094 211.281C304.875 211.281 305.557 211.456 306.141 211.805C306.729 212.154 307.185 212.659 307.508 213.32C307.836 213.977 308 214.771 308 215.703ZM301.484 215.703C301.484 216.391 301.576 216.987 301.758 217.492C301.94 217.997 302.221 218.388 302.602 218.664C302.982 218.94 303.471 219.078 304.07 219.078C304.664 219.078 305.151 218.94 305.531 218.664C305.917 218.388 306.201 217.997 306.383 217.492C306.565 216.987 306.656 216.391 306.656 215.703C306.656 215.021 306.565 214.432 306.383 213.938C306.201 213.438 305.919 213.052 305.539 212.781C305.159 212.51 304.667 212.375 304.062 212.375C303.172 212.375 302.518 212.669 302.102 213.258C301.69 213.846 301.484 214.661 301.484 215.703ZM306.336 207.742V207.898C306.232 208.049 306.089 208.232 305.906 208.445C305.729 208.654 305.531 208.875 305.312 209.109C305.094 209.339 304.872 209.557 304.648 209.766C304.43 209.974 304.227 210.154 304.039 210.305H303.172V210.117C303.339 209.919 303.521 209.682 303.719 209.406C303.917 209.125 304.109 208.839 304.297 208.547C304.484 208.25 304.641 207.982 304.766 207.742H306.336ZM314.297 211.281C315.312 211.281 316.081 211.531 316.602 212.031C317.122 212.526 317.383 213.323 317.383 214.422V220H316.102V214.508C316.102 213.794 315.938 213.26 315.609 212.906C315.286 212.552 314.789 212.375 314.117 212.375C313.169 212.375 312.503 212.643 312.117 213.18C311.732 213.716 311.539 214.495 311.539 215.516V220H310.242V211.438H311.289L311.484 212.672H311.555C311.737 212.37 311.969 212.117 312.25 211.914C312.531 211.706 312.846 211.549 313.195 211.445C313.544 211.336 313.911 211.281 314.297 211.281ZM330.695 211.242C330.695 211.753 330.596 212.195 330.398 212.57C330.201 212.945 329.924 213.253 329.57 213.492C329.216 213.727 328.799 213.891 328.32 213.984V214.047C329.227 214.161 329.906 214.453 330.359 214.922C330.818 215.391 331.047 216.005 331.047 216.766C331.047 217.427 330.891 218.013 330.578 218.523C330.271 219.034 329.797 219.435 329.156 219.727C328.521 220.013 327.706 220.156 326.711 220.156C326.107 220.156 325.547 220.107 325.031 220.008C324.521 219.914 324.031 219.755 323.562 219.531V218.312C324.036 218.547 324.552 218.732 325.109 218.867C325.667 218.997 326.206 219.062 326.727 219.062C327.768 219.062 328.521 218.857 328.984 218.445C329.448 218.029 329.68 217.461 329.68 216.742C329.68 216.247 329.549 215.849 329.289 215.547C329.034 215.24 328.664 215.016 328.18 214.875C327.701 214.729 327.122 214.656 326.445 214.656H325.305V213.547H326.453C327.073 213.547 327.599 213.456 328.031 213.273C328.464 213.091 328.792 212.836 329.016 212.508C329.245 212.174 329.359 211.781 329.359 211.328C329.359 210.75 329.167 210.305 328.781 209.992C328.396 209.674 327.872 209.516 327.211 209.516C326.805 209.516 326.435 209.557 326.102 209.641C325.768 209.724 325.456 209.839 325.164 209.984C324.872 210.13 324.581 210.299 324.289 210.492L323.633 209.602C324.049 209.279 324.557 209 325.156 208.766C325.755 208.531 326.435 208.414 327.195 208.414C328.362 208.414 329.237 208.68 329.82 209.211C330.404 209.742 330.695 210.419 330.695 211.242Z" fill="#38485C"/>
<path d="M16 250C16 245.582 19.5817 242 24 242H336C340.418 242 344 245.582 344 250V282C344 286.418 340.418 290 336 290H24C19.5817 290 16 286.418 16 282V250Z" fill="white"/>
<path d="M270.102 268.961C270.102 269.638 269.932 270.216 269.594 270.695C269.26 271.169 268.792 271.531 268.188 271.781C267.583 272.031 266.872 272.156 266.055 272.156C265.622 272.156 265.214 272.135 264.828 272.094C264.443 272.052 264.089 271.992 263.766 271.914C263.443 271.836 263.159 271.74 262.914 271.625V270.352C263.305 270.513 263.781 270.664 264.344 270.805C264.906 270.94 265.495 271.008 266.109 271.008C266.682 271.008 267.167 270.932 267.562 270.781C267.958 270.625 268.258 270.404 268.461 270.117C268.669 269.826 268.773 269.477 268.773 269.07C268.773 268.68 268.688 268.354 268.516 268.094C268.344 267.828 268.057 267.589 267.656 267.375C267.26 267.156 266.719 266.924 266.031 266.68C265.547 266.508 265.12 266.32 264.75 266.117C264.38 265.909 264.07 265.674 263.82 265.414C263.57 265.154 263.38 264.852 263.25 264.508C263.125 264.164 263.062 263.771 263.062 263.328C263.062 262.719 263.216 262.198 263.523 261.766C263.836 261.328 264.266 260.995 264.812 260.766C265.365 260.531 265.997 260.414 266.711 260.414C267.32 260.414 267.883 260.471 268.398 260.586C268.919 260.701 269.396 260.854 269.828 261.047L269.414 262.188C269.003 262.016 268.565 261.872 268.102 261.758C267.643 261.643 267.169 261.586 266.68 261.586C266.19 261.586 265.776 261.659 265.438 261.805C265.104 261.945 264.849 262.146 264.672 262.406C264.495 262.667 264.406 262.977 264.406 263.336C264.406 263.737 264.49 264.07 264.656 264.336C264.828 264.602 265.099 264.839 265.469 265.047C265.844 265.25 266.339 265.464 266.953 265.688C267.625 265.932 268.195 266.193 268.664 266.469C269.133 266.74 269.49 267.073 269.734 267.469C269.979 267.859 270.102 268.357 270.102 268.961ZM275.539 263.281C276.268 263.281 276.893 263.443 277.414 263.766C277.935 264.089 278.333 264.542 278.609 265.125C278.885 265.703 279.023 266.38 279.023 267.156V267.961H273.109C273.125 268.966 273.375 269.732 273.859 270.258C274.344 270.784 275.026 271.047 275.906 271.047C276.448 271.047 276.927 270.997 277.344 270.898C277.76 270.799 278.193 270.654 278.641 270.461V271.602C278.208 271.794 277.779 271.935 277.352 272.023C276.93 272.112 276.43 272.156 275.852 272.156C275.029 272.156 274.31 271.99 273.695 271.656C273.086 271.318 272.612 270.823 272.273 270.172C271.935 269.521 271.766 268.724 271.766 267.781C271.766 266.859 271.919 266.062 272.227 265.391C272.539 264.714 272.977 264.193 273.539 263.828C274.107 263.464 274.773 263.281 275.539 263.281ZM275.523 264.344C274.831 264.344 274.279 264.57 273.867 265.023C273.456 265.477 273.211 266.109 273.133 266.922H277.664C277.659 266.411 277.578 265.964 277.422 265.578C277.271 265.188 277.039 264.885 276.727 264.672C276.414 264.453 276.013 264.344 275.523 264.344ZM284.656 272.156C283.885 272.156 283.206 271.997 282.617 271.68C282.029 271.362 281.57 270.878 281.242 270.227C280.914 269.576 280.75 268.755 280.75 267.766C280.75 266.729 280.922 265.883 281.266 265.227C281.615 264.565 282.094 264.076 282.703 263.758C283.312 263.44 284.005 263.281 284.781 263.281C285.208 263.281 285.62 263.326 286.016 263.414C286.417 263.497 286.745 263.604 287 263.734L286.609 264.82C286.349 264.716 286.047 264.622 285.703 264.539C285.365 264.456 285.047 264.414 284.75 264.414C284.156 264.414 283.661 264.542 283.266 264.797C282.875 265.052 282.581 265.427 282.383 265.922C282.19 266.417 282.094 267.026 282.094 267.75C282.094 268.443 282.188 269.034 282.375 269.523C282.568 270.013 282.852 270.388 283.227 270.648C283.607 270.904 284.081 271.031 284.648 271.031C285.102 271.031 285.51 270.984 285.875 270.891C286.24 270.792 286.57 270.677 286.867 270.547V271.703C286.581 271.849 286.26 271.961 285.906 272.039C285.557 272.117 285.141 272.156 284.656 272.156ZM292.328 272.156C291.557 272.156 290.878 271.997 290.289 271.68C289.701 271.362 289.242 270.878 288.914 270.227C288.586 269.576 288.422 268.755 288.422 267.766C288.422 266.729 288.594 265.883 288.938 265.227C289.286 264.565 289.766 264.076 290.375 263.758C290.984 263.44 291.677 263.281 292.453 263.281C292.88 263.281 293.292 263.326 293.688 263.414C294.089 263.497 294.417 263.604 294.672 263.734L294.281 264.82C294.021 264.716 293.719 264.622 293.375 264.539C293.036 264.456 292.719 264.414 292.422 264.414C291.828 264.414 291.333 264.542 290.938 264.797C290.547 265.052 290.253 265.427 290.055 265.922C289.862 266.417 289.766 267.026 289.766 267.75C289.766 268.443 289.859 269.034 290.047 269.523C290.24 270.013 290.523 270.388 290.898 270.648C291.279 270.904 291.753 271.031 292.32 271.031C292.773 271.031 293.182 270.984 293.547 270.891C293.911 270.792 294.242 270.677 294.539 270.547V271.703C294.253 271.849 293.932 271.961 293.578 272.039C293.229 272.117 292.812 272.156 292.328 272.156ZM297.867 263.438V272H296.57V263.438H297.867ZM297.234 260.234C297.448 260.234 297.63 260.305 297.781 260.445C297.938 260.581 298.016 260.794 298.016 261.086C298.016 261.372 297.938 261.586 297.781 261.727C297.63 261.867 297.448 261.938 297.234 261.938C297.01 261.938 296.823 261.867 296.672 261.727C296.526 261.586 296.453 261.372 296.453 261.086C296.453 260.794 296.526 260.581 296.672 260.445C296.823 260.305 297.01 260.234 297.234 260.234ZM308 267.703C308 268.406 307.909 269.034 307.727 269.586C307.544 270.138 307.281 270.604 306.938 270.984C306.594 271.365 306.177 271.656 305.688 271.859C305.203 272.057 304.654 272.156 304.039 272.156C303.466 272.156 302.94 272.057 302.461 271.859C301.987 271.656 301.576 271.365 301.227 270.984C300.883 270.604 300.615 270.138 300.422 269.586C300.234 269.034 300.141 268.406 300.141 267.703C300.141 266.766 300.299 265.969 300.617 265.312C300.935 264.651 301.388 264.148 301.977 263.805C302.57 263.456 303.276 263.281 304.094 263.281C304.875 263.281 305.557 263.456 306.141 263.805C306.729 264.154 307.185 264.659 307.508 265.32C307.836 265.977 308 266.771 308 267.703ZM301.484 267.703C301.484 268.391 301.576 268.987 301.758 269.492C301.94 269.997 302.221 270.388 302.602 270.664C302.982 270.94 303.471 271.078 304.07 271.078C304.664 271.078 305.151 270.94 305.531 270.664C305.917 270.388 306.201 269.997 306.383 269.492C306.565 268.987 306.656 268.391 306.656 267.703C306.656 267.021 306.565 266.432 306.383 265.938C306.201 265.438 305.919 265.052 305.539 264.781C305.159 264.51 304.667 264.375 304.062 264.375C303.172 264.375 302.518 264.669 302.102 265.258C301.69 265.846 301.484 266.661 301.484 267.703ZM306.336 259.742V259.898C306.232 260.049 306.089 260.232 305.906 260.445C305.729 260.654 305.531 260.875 305.312 261.109C305.094 261.339 304.872 261.557 304.648 261.766C304.43 261.974 304.227 262.154 304.039 262.305H303.172V262.117C303.339 261.919 303.521 261.682 303.719 261.406C303.917 261.125 304.109 260.839 304.297 260.547C304.484 260.25 304.641 259.982 304.766 259.742H306.336ZM314.297 263.281C315.312 263.281 316.081 263.531 316.602 264.031C317.122 264.526 317.383 265.323 317.383 266.422V272H316.102V266.508C316.102 265.794 315.938 265.26 315.609 264.906C315.286 264.552 314.789 264.375 314.117 264.375C313.169 264.375 312.503 264.643 312.117 265.18C311.732 265.716 311.539 266.495 311.539 267.516V272H310.242V263.438H311.289L311.484 264.672H311.555C311.737 264.37 311.969 264.117 312.25 263.914C312.531 263.706 312.846 263.549 313.195 263.445C313.544 263.336 313.911 263.281 314.297 263.281ZM331.688 269.352H329.977V272H328.711V269.352H323.188V268.258L328.625 260.516H329.977V268.18H331.688V269.352ZM328.711 268.18V264.445C328.711 264.159 328.714 263.901 328.719 263.672C328.724 263.438 328.732 263.221 328.742 263.023C328.753 262.82 328.76 262.628 328.766 262.445C328.776 262.263 328.784 262.083 328.789 261.906H328.727C328.628 262.115 328.513 262.336 328.383 262.57C328.258 262.799 328.13 263.005 328 263.188L324.477 268.18H328.711Z" fill="#38485C"/>
<path d="M16 302C16 297.582 19.5817 294 24 294H336C340.418 294 344 297.582 344 302V334C344 338.418 340.418 342 336 342H24C19.5817 342 16 338.418 16 334V302Z" fill="white"/>
<path d="M223.32 324H221.789L215.562 314.406H215.5C215.516 314.661 215.534 314.953 215.555 315.281C215.576 315.604 215.591 315.951 215.602 316.32C215.617 316.685 215.625 317.057 215.625 317.438V324H214.391V312.578H215.914L222.117 322.141H222.172C222.161 321.958 222.148 321.701 222.133 321.367C222.117 321.029 222.102 320.667 222.086 320.281C222.076 319.891 222.07 319.529 222.07 319.195V312.578H223.32V324ZM233.625 319.703C233.625 320.406 233.534 321.034 233.352 321.586C233.169 322.138 232.906 322.604 232.562 322.984C232.219 323.365 231.802 323.656 231.312 323.859C230.828 324.057 230.279 324.156 229.664 324.156C229.091 324.156 228.565 324.057 228.086 323.859C227.612 323.656 227.201 323.365 226.852 322.984C226.508 322.604 226.24 322.138 226.047 321.586C225.859 321.034 225.766 320.406 225.766 319.703C225.766 318.766 225.924 317.969 226.242 317.312C226.56 316.651 227.013 316.148 227.602 315.805C228.195 315.456 228.901 315.281 229.719 315.281C230.5 315.281 231.182 315.456 231.766 315.805C232.354 316.154 232.81 316.659 233.133 317.32C233.461 317.977 233.625 318.771 233.625 319.703ZM227.109 319.703C227.109 320.391 227.201 320.987 227.383 321.492C227.565 321.997 227.846 322.388 228.227 322.664C228.607 322.94 229.096 323.078 229.695 323.078C230.289 323.078 230.776 322.94 231.156 322.664C231.542 322.388 231.826 321.997 232.008 321.492C232.19 320.987 232.281 320.391 232.281 319.703C232.281 319.021 232.19 318.432 232.008 317.938C231.826 317.438 231.544 317.052 231.164 316.781C230.784 316.51 230.292 316.375 229.688 316.375C228.797 316.375 228.143 316.669 227.727 317.258C227.315 317.846 227.109 318.661 227.109 319.703ZM238.633 323.094C238.846 323.094 239.065 323.076 239.289 323.039C239.513 323.003 239.695 322.958 239.836 322.906V323.914C239.685 323.982 239.474 324.039 239.203 324.086C238.938 324.133 238.677 324.156 238.422 324.156C237.969 324.156 237.557 324.078 237.188 323.922C236.818 323.76 236.521 323.49 236.297 323.109C236.078 322.729 235.969 322.203 235.969 321.531V316.453H234.75V315.82L235.977 315.312L236.492 313.453H237.273V315.438H239.781V316.453H237.273V321.492C237.273 322.029 237.396 322.43 237.641 322.695C237.891 322.961 238.221 323.094 238.633 323.094ZM242.867 315.438V324H241.57V315.438H242.867ZM242.234 312.234C242.448 312.234 242.63 312.305 242.781 312.445C242.938 312.581 243.016 312.794 243.016 313.086C243.016 313.372 242.938 313.586 242.781 313.727C242.63 313.867 242.448 313.938 242.234 313.938C242.01 313.938 241.823 313.867 241.672 313.727C241.526 313.586 241.453 313.372 241.453 313.086C241.453 312.794 241.526 312.581 241.672 312.445C241.823 312.305 242.01 312.234 242.234 312.234ZM249.43 316.453H247.297V324H246V316.453H244.484V315.828L246 315.398V314.828C246 314.109 246.107 313.526 246.32 313.078C246.534 312.625 246.844 312.292 247.25 312.078C247.656 311.865 248.151 311.758 248.734 311.758C249.062 311.758 249.362 311.786 249.633 311.844C249.909 311.901 250.151 311.966 250.359 312.039L250.023 313.062C249.846 313.005 249.646 312.953 249.422 312.906C249.203 312.854 248.979 312.828 248.75 312.828C248.255 312.828 247.888 312.99 247.648 313.312C247.414 313.63 247.297 314.13 247.297 314.812V315.438H249.43V316.453ZM252.297 315.438V324H251V315.438H252.297ZM251.664 312.234C251.878 312.234 252.06 312.305 252.211 312.445C252.367 312.581 252.445 312.794 252.445 313.086C252.445 313.372 252.367 313.586 252.211 313.727C252.06 313.867 251.878 313.938 251.664 313.938C251.44 313.938 251.253 313.867 251.102 313.727C250.956 313.586 250.883 313.372 250.883 313.086C250.883 312.794 250.956 312.581 251.102 312.445C251.253 312.305 251.44 312.234 251.664 312.234ZM258.469 324.156C257.698 324.156 257.018 323.997 256.43 323.68C255.841 323.362 255.383 322.878 255.055 322.227C254.727 321.576 254.562 320.755 254.562 319.766C254.562 318.729 254.734 317.883 255.078 317.227C255.427 316.565 255.906 316.076 256.516 315.758C257.125 315.44 257.818 315.281 258.594 315.281C259.021 315.281 259.432 315.326 259.828 315.414C260.229 315.497 260.557 315.604 260.812 315.734L260.422 316.82C260.161 316.716 259.859 316.622 259.516 316.539C259.177 316.456 258.859 316.414 258.562 316.414C257.969 316.414 257.474 316.542 257.078 316.797C256.688 317.052 256.393 317.427 256.195 317.922C256.003 318.417 255.906 319.026 255.906 319.75C255.906 320.443 256 321.034 256.188 321.523C256.38 322.013 256.664 322.388 257.039 322.648C257.419 322.904 257.893 323.031 258.461 323.031C258.914 323.031 259.323 322.984 259.688 322.891C260.052 322.792 260.383 322.677 260.68 322.547V323.703C260.393 323.849 260.073 323.961 259.719 324.039C259.37 324.117 258.953 324.156 258.469 324.156ZM265.914 315.297C266.935 315.297 267.693 315.526 268.188 315.984C268.682 316.443 268.93 317.174 268.93 318.18V324H267.984L267.734 322.734H267.672C267.432 323.047 267.182 323.31 266.922 323.523C266.661 323.732 266.359 323.891 266.016 324C265.677 324.104 265.26 324.156 264.766 324.156C264.245 324.156 263.781 324.065 263.375 323.883C262.974 323.701 262.656 323.424 262.422 323.055C262.193 322.685 262.078 322.216 262.078 321.648C262.078 320.794 262.417 320.138 263.094 319.68C263.771 319.221 264.802 318.971 266.188 318.93L267.664 318.867V318.344C267.664 317.604 267.505 317.086 267.188 316.789C266.87 316.492 266.422 316.344 265.844 316.344C265.396 316.344 264.969 316.409 264.562 316.539C264.156 316.669 263.771 316.823 263.406 317L263.008 316.016C263.393 315.818 263.836 315.648 264.336 315.508C264.836 315.367 265.362 315.297 265.914 315.297ZM267.648 319.781L266.344 319.836C265.276 319.878 264.523 320.052 264.086 320.359C263.648 320.667 263.43 321.102 263.43 321.664C263.43 322.154 263.578 322.516 263.875 322.75C264.172 322.984 264.565 323.102 265.055 323.102C265.815 323.102 266.438 322.891 266.922 322.469C267.406 322.047 267.648 321.414 267.648 320.57V319.781ZM275.031 324.156C274.26 324.156 273.581 323.997 272.992 323.68C272.404 323.362 271.945 322.878 271.617 322.227C271.289 321.576 271.125 320.755 271.125 319.766C271.125 318.729 271.297 317.883 271.641 317.227C271.99 316.565 272.469 316.076 273.078 315.758C273.688 315.44 274.38 315.281 275.156 315.281C275.583 315.281 275.995 315.326 276.391 315.414C276.792 315.497 277.12 315.604 277.375 315.734L276.984 316.82C276.724 316.716 276.422 316.622 276.078 316.539C275.74 316.456 275.422 316.414 275.125 316.414C274.531 316.414 274.036 316.542 273.641 316.797C273.25 317.052 272.956 317.427 272.758 317.922C272.565 318.417 272.469 319.026 272.469 319.75C272.469 320.443 272.562 321.034 272.75 321.523C272.943 322.013 273.227 322.388 273.602 322.648C273.982 322.904 274.456 323.031 275.023 323.031C275.477 323.031 275.885 322.984 276.25 322.891C276.615 322.792 276.945 322.677 277.242 322.547V323.703C276.956 323.849 276.635 323.961 276.281 324.039C275.932 324.117 275.516 324.156 275.031 324.156ZM280.57 315.438V324H279.273V315.438H280.57ZM279.938 312.234C280.151 312.234 280.333 312.305 280.484 312.445C280.641 312.581 280.719 312.794 280.719 313.086C280.719 313.372 280.641 313.586 280.484 313.727C280.333 313.867 280.151 313.938 279.938 313.938C279.714 313.938 279.526 313.867 279.375 313.727C279.229 313.586 279.156 313.372 279.156 313.086C279.156 312.794 279.229 312.581 279.375 312.445C279.526 312.305 279.714 312.234 279.938 312.234ZM290.703 319.703C290.703 320.406 290.612 321.034 290.43 321.586C290.247 322.138 289.984 322.604 289.641 322.984C289.297 323.365 288.88 323.656 288.391 323.859C287.906 324.057 287.357 324.156 286.742 324.156C286.169 324.156 285.643 324.057 285.164 323.859C284.69 323.656 284.279 323.365 283.93 322.984C283.586 322.604 283.318 322.138 283.125 321.586C282.938 321.034 282.844 320.406 282.844 319.703C282.844 318.766 283.003 317.969 283.32 317.312C283.638 316.651 284.091 316.148 284.68 315.805C285.273 315.456 285.979 315.281 286.797 315.281C287.578 315.281 288.26 315.456 288.844 315.805C289.432 316.154 289.888 316.659 290.211 317.32C290.539 317.977 290.703 318.771 290.703 319.703ZM284.188 319.703C284.188 320.391 284.279 320.987 284.461 321.492C284.643 321.997 284.924 322.388 285.305 322.664C285.685 322.94 286.174 323.078 286.773 323.078C287.367 323.078 287.854 322.94 288.234 322.664C288.62 322.388 288.904 321.997 289.086 321.492C289.268 320.987 289.359 320.391 289.359 319.703C289.359 319.021 289.268 318.432 289.086 317.938C288.904 317.438 288.622 317.052 288.242 316.781C287.862 316.51 287.37 316.375 286.766 316.375C285.875 316.375 285.221 316.669 284.805 317.258C284.393 317.846 284.188 318.661 284.188 319.703ZM297 315.281C298.016 315.281 298.784 315.531 299.305 316.031C299.826 316.526 300.086 317.323 300.086 318.422V324H298.805V318.508C298.805 317.794 298.641 317.26 298.312 316.906C297.99 316.552 297.492 316.375 296.82 316.375C295.872 316.375 295.206 316.643 294.82 317.18C294.435 317.716 294.242 318.495 294.242 319.516V324H292.945V315.438H293.992L294.188 316.672H294.258C294.44 316.37 294.672 316.117 294.953 315.914C295.234 315.706 295.549 315.549 295.898 315.445C296.247 315.336 296.615 315.281 297 315.281ZM306.055 315.281C306.784 315.281 307.409 315.443 307.93 315.766C308.451 316.089 308.849 316.542 309.125 317.125C309.401 317.703 309.539 318.38 309.539 319.156V319.961H303.625C303.641 320.966 303.891 321.732 304.375 322.258C304.859 322.784 305.542 323.047 306.422 323.047C306.964 323.047 307.443 322.997 307.859 322.898C308.276 322.799 308.708 322.654 309.156 322.461V323.602C308.724 323.794 308.294 323.935 307.867 324.023C307.445 324.112 306.945 324.156 306.367 324.156C305.544 324.156 304.826 323.99 304.211 323.656C303.602 323.318 303.128 322.823 302.789 322.172C302.451 321.521 302.281 320.724 302.281 319.781C302.281 318.859 302.435 318.062 302.742 317.391C303.055 316.714 303.492 316.193 304.055 315.828C304.622 315.464 305.289 315.281 306.055 315.281ZM306.039 316.344C305.346 316.344 304.794 316.57 304.383 317.023C303.971 317.477 303.727 318.109 303.648 318.922H308.18C308.174 318.411 308.094 317.964 307.938 317.578C307.786 317.188 307.555 316.885 307.242 316.672C306.93 316.453 306.529 316.344 306.039 316.344ZM317.281 321.656C317.281 322.203 317.143 322.664 316.867 323.039C316.596 323.409 316.206 323.688 315.695 323.875C315.19 324.062 314.586 324.156 313.883 324.156C313.284 324.156 312.766 324.109 312.328 324.016C311.891 323.922 311.508 323.789 311.18 323.617V322.422C311.529 322.594 311.945 322.75 312.43 322.891C312.914 323.031 313.409 323.102 313.914 323.102C314.654 323.102 315.19 322.982 315.523 322.742C315.857 322.503 316.023 322.177 316.023 321.766C316.023 321.531 315.956 321.326 315.82 321.148C315.69 320.966 315.469 320.792 315.156 320.625C314.844 320.453 314.411 320.266 313.859 320.062C313.312 319.854 312.839 319.648 312.438 319.445C312.042 319.237 311.734 318.984 311.516 318.688C311.302 318.391 311.195 318.005 311.195 317.531C311.195 316.807 311.487 316.253 312.07 315.867C312.659 315.477 313.43 315.281 314.383 315.281C314.898 315.281 315.38 315.333 315.828 315.438C316.281 315.536 316.703 315.672 317.094 315.844L316.656 316.883C316.302 316.732 315.924 316.604 315.523 316.5C315.122 316.396 314.714 316.344 314.297 316.344C313.698 316.344 313.237 316.443 312.914 316.641C312.596 316.839 312.438 317.109 312.438 317.453C312.438 317.719 312.51 317.938 312.656 318.109C312.807 318.281 313.047 318.443 313.375 318.594C313.703 318.745 314.135 318.922 314.672 319.125C315.208 319.323 315.672 319.529 316.062 319.742C316.453 319.951 316.753 320.206 316.961 320.508C317.174 320.805 317.281 321.188 317.281 321.656Z" fill="#38485C"/>
<path d="M327 315C329.209 315 331 313.209 331 311C331 308.791 329.209 307 327 307C324.791 307 323 308.791 323 311C323 313.209 324.791 315 327 315Z" fill="#C93B3B"/>
<path d="M327 316C329.761 316 332 313.761 332 311C332 308.239 329.761 306 327 306C324.239 306 322 308.239 322 311C322 313.761 324.239 316 327 316Z" stroke="white" stroke-width="2"/>
<path d="M16 354C16 349.582 19.5817 346 24 346H336C340.418 346 344 349.582 344 354V386C344 390.418 340.418 394 336 394H24C19.5817 394 16 390.418 16 386V354Z" fill="white"/>
<path d="M238.977 365.586C238.346 365.586 237.779 365.695 237.273 365.914C236.773 366.128 236.346 366.44 235.992 366.852C235.643 367.258 235.375 367.75 235.188 368.328C235 368.906 234.906 369.557 234.906 370.281C234.906 371.24 235.055 372.073 235.352 372.781C235.654 373.484 236.102 374.029 236.695 374.414C237.294 374.799 238.042 374.992 238.938 374.992C239.448 374.992 239.927 374.951 240.375 374.867C240.828 374.779 241.268 374.669 241.695 374.539V375.695C241.279 375.852 240.841 375.966 240.383 376.039C239.924 376.117 239.38 376.156 238.75 376.156C237.589 376.156 236.617 375.917 235.836 375.438C235.06 374.953 234.477 374.271 234.086 373.391C233.701 372.51 233.508 371.471 233.508 370.273C233.508 369.409 233.628 368.62 233.867 367.906C234.112 367.188 234.466 366.568 234.93 366.047C235.398 365.526 235.971 365.125 236.648 364.844C237.331 364.557 238.112 364.414 238.992 364.414C239.57 364.414 240.128 364.471 240.664 364.586C241.201 364.701 241.685 364.865 242.117 365.078L241.586 366.203C241.221 366.036 240.82 365.893 240.383 365.773C239.951 365.648 239.482 365.586 238.977 365.586ZM247.273 367.281C248.003 367.281 248.628 367.443 249.148 367.766C249.669 368.089 250.068 368.542 250.344 369.125C250.62 369.703 250.758 370.38 250.758 371.156V371.961H244.844C244.859 372.966 245.109 373.732 245.594 374.258C246.078 374.784 246.76 375.047 247.641 375.047C248.182 375.047 248.661 374.997 249.078 374.898C249.495 374.799 249.927 374.654 250.375 374.461V375.602C249.943 375.794 249.513 375.935 249.086 376.023C248.664 376.112 248.164 376.156 247.586 376.156C246.763 376.156 246.044 375.99 245.43 375.656C244.82 375.318 244.346 374.823 244.008 374.172C243.669 373.521 243.5 372.724 243.5 371.781C243.5 370.859 243.654 370.062 243.961 369.391C244.273 368.714 244.711 368.193 245.273 367.828C245.841 367.464 246.508 367.281 247.273 367.281ZM247.258 368.344C246.565 368.344 246.013 368.57 245.602 369.023C245.19 369.477 244.945 370.109 244.867 370.922H249.398C249.393 370.411 249.312 369.964 249.156 369.578C249.005 369.188 248.773 368.885 248.461 368.672C248.148 368.453 247.747 368.344 247.258 368.344ZM256.852 367.281C257.023 367.281 257.203 367.292 257.391 367.312C257.578 367.328 257.745 367.352 257.891 367.383L257.727 368.586C257.586 368.549 257.43 368.521 257.258 368.5C257.086 368.479 256.924 368.469 256.773 368.469C256.43 368.469 256.104 368.539 255.797 368.68C255.495 368.815 255.229 369.013 255 369.273C254.771 369.529 254.591 369.839 254.461 370.203C254.331 370.562 254.266 370.964 254.266 371.406V376H252.961V367.438H254.039L254.18 369.016H254.234C254.411 368.698 254.625 368.409 254.875 368.148C255.125 367.883 255.414 367.672 255.742 367.516C256.076 367.359 256.445 367.281 256.852 367.281ZM263.398 367.281C263.57 367.281 263.75 367.292 263.938 367.312C264.125 367.328 264.292 367.352 264.438 367.383L264.273 368.586C264.133 368.549 263.977 368.521 263.805 368.5C263.633 368.479 263.471 368.469 263.32 368.469C262.977 368.469 262.651 368.539 262.344 368.68C262.042 368.815 261.776 369.013 261.547 369.273C261.318 369.529 261.138 369.839 261.008 370.203C260.878 370.562 260.812 370.964 260.812 371.406V376H259.508V367.438H260.586L260.727 369.016H260.781C260.958 368.698 261.172 368.409 261.422 368.148C261.672 367.883 261.961 367.672 262.289 367.516C262.622 367.359 262.992 367.281 263.398 367.281ZM269.258 367.297C270.279 367.297 271.036 367.526 271.531 367.984C272.026 368.443 272.273 369.174 272.273 370.18V376H271.328L271.078 374.734H271.016C270.776 375.047 270.526 375.31 270.266 375.523C270.005 375.732 269.703 375.891 269.359 376C269.021 376.104 268.604 376.156 268.109 376.156C267.589 376.156 267.125 376.065 266.719 375.883C266.318 375.701 266 375.424 265.766 375.055C265.536 374.685 265.422 374.216 265.422 373.648C265.422 372.794 265.76 372.138 266.438 371.68C267.115 371.221 268.146 370.971 269.531 370.93L271.008 370.867V370.344C271.008 369.604 270.849 369.086 270.531 368.789C270.214 368.492 269.766 368.344 269.188 368.344C268.74 368.344 268.312 368.409 267.906 368.539C267.5 368.669 267.115 368.823 266.75 369L266.352 368.016C266.737 367.818 267.18 367.648 267.68 367.508C268.18 367.367 268.706 367.297 269.258 367.297ZM270.992 371.781L269.688 371.836C268.62 371.878 267.867 372.052 267.43 372.359C266.992 372.667 266.773 373.102 266.773 373.664C266.773 374.154 266.922 374.516 267.219 374.75C267.516 374.984 267.909 375.102 268.398 375.102C269.159 375.102 269.781 374.891 270.266 374.469C270.75 374.047 270.992 373.414 270.992 372.57V371.781ZM278.836 367.281C279.008 367.281 279.188 367.292 279.375 367.312C279.562 367.328 279.729 367.352 279.875 367.383L279.711 368.586C279.57 368.549 279.414 368.521 279.242 368.5C279.07 368.479 278.909 368.469 278.758 368.469C278.414 368.469 278.089 368.539 277.781 368.68C277.479 368.815 277.214 369.013 276.984 369.273C276.755 369.529 276.576 369.839 276.445 370.203C276.315 370.562 276.25 370.964 276.25 371.406V376H274.945V367.438H276.023L276.164 369.016H276.219C276.396 368.698 276.609 368.409 276.859 368.148C277.109 367.883 277.398 367.672 277.727 367.516C278.06 367.359 278.43 367.281 278.836 367.281ZM291.188 373.656C291.188 374.203 291.049 374.664 290.773 375.039C290.503 375.409 290.112 375.688 289.602 375.875C289.096 376.062 288.492 376.156 287.789 376.156C287.19 376.156 286.672 376.109 286.234 376.016C285.797 375.922 285.414 375.789 285.086 375.617V374.422C285.435 374.594 285.852 374.75 286.336 374.891C286.82 375.031 287.315 375.102 287.82 375.102C288.56 375.102 289.096 374.982 289.43 374.742C289.763 374.503 289.93 374.177 289.93 373.766C289.93 373.531 289.862 373.326 289.727 373.148C289.596 372.966 289.375 372.792 289.062 372.625C288.75 372.453 288.318 372.266 287.766 372.062C287.219 371.854 286.745 371.648 286.344 371.445C285.948 371.237 285.641 370.984 285.422 370.688C285.208 370.391 285.102 370.005 285.102 369.531C285.102 368.807 285.393 368.253 285.977 367.867C286.565 367.477 287.336 367.281 288.289 367.281C288.805 367.281 289.286 367.333 289.734 367.438C290.188 367.536 290.609 367.672 291 367.844L290.562 368.883C290.208 368.732 289.831 368.604 289.43 368.5C289.029 368.396 288.62 368.344 288.203 368.344C287.604 368.344 287.143 368.443 286.82 368.641C286.503 368.839 286.344 369.109 286.344 369.453C286.344 369.719 286.417 369.938 286.562 370.109C286.714 370.281 286.953 370.443 287.281 370.594C287.609 370.745 288.042 370.922 288.578 371.125C289.115 371.323 289.578 371.529 289.969 371.742C290.359 371.951 290.659 372.206 290.867 372.508C291.081 372.805 291.188 373.188 291.188 373.656ZM296.57 367.281C297.299 367.281 297.924 367.443 298.445 367.766C298.966 368.089 299.365 368.542 299.641 369.125C299.917 369.703 300.055 370.38 300.055 371.156V371.961H294.141C294.156 372.966 294.406 373.732 294.891 374.258C295.375 374.784 296.057 375.047 296.938 375.047C297.479 375.047 297.958 374.997 298.375 374.898C298.792 374.799 299.224 374.654 299.672 374.461V375.602C299.24 375.794 298.81 375.935 298.383 376.023C297.961 376.112 297.461 376.156 296.883 376.156C296.06 376.156 295.341 375.99 294.727 375.656C294.117 375.318 293.643 374.823 293.305 374.172C292.966 373.521 292.797 372.724 292.797 371.781C292.797 370.859 292.951 370.062 293.258 369.391C293.57 368.714 294.008 368.193 294.57 367.828C295.138 367.464 295.805 367.281 296.57 367.281ZM296.555 368.344C295.862 368.344 295.31 368.57 294.898 369.023C294.487 369.477 294.242 370.109 294.164 370.922H298.695C298.69 370.411 298.609 369.964 298.453 369.578C298.302 369.188 298.07 368.885 297.758 368.672C297.445 368.453 297.044 368.344 296.555 368.344ZM307.797 373.656C307.797 374.203 307.659 374.664 307.383 375.039C307.112 375.409 306.721 375.688 306.211 375.875C305.706 376.062 305.102 376.156 304.398 376.156C303.799 376.156 303.281 376.109 302.844 376.016C302.406 375.922 302.023 375.789 301.695 375.617V374.422C302.044 374.594 302.461 374.75 302.945 374.891C303.43 375.031 303.924 375.102 304.43 375.102C305.169 375.102 305.706 374.982 306.039 374.742C306.372 374.503 306.539 374.177 306.539 373.766C306.539 373.531 306.471 373.326 306.336 373.148C306.206 372.966 305.984 372.792 305.672 372.625C305.359 372.453 304.927 372.266 304.375 372.062C303.828 371.854 303.354 371.648 302.953 371.445C302.557 371.237 302.25 370.984 302.031 370.688C301.818 370.391 301.711 370.005 301.711 369.531C301.711 368.807 302.003 368.253 302.586 367.867C303.174 367.477 303.945 367.281 304.898 367.281C305.414 367.281 305.896 367.333 306.344 367.438C306.797 367.536 307.219 367.672 307.609 367.844L307.172 368.883C306.818 368.732 306.44 368.604 306.039 368.5C305.638 368.396 305.229 368.344 304.812 368.344C304.214 368.344 303.753 368.443 303.43 368.641C303.112 368.839 302.953 369.109 302.953 369.453C302.953 369.719 303.026 369.938 303.172 370.109C303.323 370.281 303.562 370.443 303.891 370.594C304.219 370.745 304.651 370.922 305.188 371.125C305.724 371.323 306.188 371.529 306.578 371.742C306.969 371.951 307.268 372.206 307.477 372.508C307.69 372.805 307.797 373.188 307.797 373.656ZM311.18 367.438V376H309.883V367.438H311.18ZM310.547 364.234C310.76 364.234 310.943 364.305 311.094 364.445C311.25 364.581 311.328 364.794 311.328 365.086C311.328 365.372 311.25 365.586 311.094 365.727C310.943 365.867 310.76 365.938 310.547 365.938C310.323 365.938 310.135 365.867 309.984 365.727C309.839 365.586 309.766 365.372 309.766 365.086C309.766 364.794 309.839 364.581 309.984 364.445C310.135 364.305 310.323 364.234 310.547 364.234ZM321.312 371.703C321.312 372.406 321.221 373.034 321.039 373.586C320.857 374.138 320.594 374.604 320.25 374.984C319.906 375.365 319.49 375.656 319 375.859C318.516 376.057 317.966 376.156 317.352 376.156C316.779 376.156 316.253 376.057 315.773 375.859C315.299 375.656 314.888 375.365 314.539 374.984C314.195 374.604 313.927 374.138 313.734 373.586C313.547 373.034 313.453 372.406 313.453 371.703C313.453 370.766 313.612 369.969 313.93 369.312C314.247 368.651 314.701 368.148 315.289 367.805C315.883 367.456 316.589 367.281 317.406 367.281C318.188 367.281 318.87 367.456 319.453 367.805C320.042 368.154 320.497 368.659 320.82 369.32C321.148 369.977 321.312 370.771 321.312 371.703ZM314.797 371.703C314.797 372.391 314.888 372.987 315.07 373.492C315.253 373.997 315.534 374.388 315.914 374.664C316.294 374.94 316.784 375.078 317.383 375.078C317.977 375.078 318.464 374.94 318.844 374.664C319.229 374.388 319.513 373.997 319.695 373.492C319.878 372.987 319.969 372.391 319.969 371.703C319.969 371.021 319.878 370.432 319.695 369.938C319.513 369.438 319.232 369.052 318.852 368.781C318.471 368.51 317.979 368.375 317.375 368.375C316.484 368.375 315.831 368.669 315.414 369.258C315.003 369.846 314.797 370.661 314.797 371.703ZM319.648 363.742V363.898C319.544 364.049 319.401 364.232 319.219 364.445C319.042 364.654 318.844 364.875 318.625 365.109C318.406 365.339 318.185 365.557 317.961 365.766C317.742 365.974 317.539 366.154 317.352 366.305H316.484V366.117C316.651 365.919 316.833 365.682 317.031 365.406C317.229 365.125 317.422 364.839 317.609 364.547C317.797 364.25 317.953 363.982 318.078 363.742H319.648ZM327.609 367.281C328.625 367.281 329.393 367.531 329.914 368.031C330.435 368.526 330.695 369.323 330.695 370.422V376H329.414V370.508C329.414 369.794 329.25 369.26 328.922 368.906C328.599 368.552 328.102 368.375 327.43 368.375C326.482 368.375 325.815 368.643 325.43 369.18C325.044 369.716 324.852 370.495 324.852 371.516V376H323.555V367.438H324.602L324.797 368.672H324.867C325.049 368.37 325.281 368.117 325.562 367.914C325.844 367.706 326.159 367.549 326.508 367.445C326.857 367.336 327.224 367.281 327.609 367.281Z" fill="#C93B3B"/>
<path d="M360 408H0V412H360V408Z" fill="#007BC7" mask="url(#path-7-outside-1_12454_218)"/>
<line x1="-1.75853e-09" y1="411" x2="360" y2="411" stroke="#007BC7" stroke-width="2"/>
<defs>
<clipPath id="clip0_12454_218">
<rect width="57" height="30.6603" fill="white" transform="translate(16 18.6699)"/>
</clipPath>
<clipPath id="clip1_12454_218">
<rect width="24" height="24" fill="white" transform="translate(198 22)"/>
</clipPath>
</defs>
</svg>
