<svg width="360" height="70" viewBox="0 0 360 70" fill="none" xmlns="http://www.w3.org/2000/svg">
<rect width="360" height="68" fill="white"/>
<g clip-path="url(#clip0_60_1424)">
<path d="M72.4461 42.9533L61.5135 21.8286C60.5705 19.9533 58.6385 18.6698 56.3958 18.6698H56.3904C54.1504 18.6698 52.2157 19.9533 51.2727 21.8286L43.5772 36.698C42.718 35.1686 41.348 33.9689 39.6944 33.3204C41.5399 31.9856 42.7423 29.8104 42.7423 27.357C42.7423 24.5117 41.1265 22.0501 38.7649 20.8288C36.6843 19.7345 34.3092 19.1157 31.7909 19.1157H20.2801C17.9131 19.1157 16 21.0287 16 23.3903V44.8123C16 47.1739 17.9131 49.087 20.2801 49.087H32.7285C35.1279 49.087 37.4111 48.5898 39.4836 47.7035L40.2726 47.3225C40.3159 47.3009 40.3591 47.2793 40.4023 47.2577C41.1508 48.4979 42.5045 49.3328 44.0636 49.3328C45.7956 49.3328 47.2872 48.3061 47.96 46.8226C48.295 46.039 49.0516 45.4851 49.9433 45.4419H62.8402C63.7346 45.4851 64.4885 46.039 64.8236 46.8226C65.4937 48.3061 66.9879 49.3328 68.7199 49.3328C71.0842 49.3328 72.9973 47.4144 72.9973 45.0609C72.9973 44.2935 72.8 43.5748 72.4434 42.956" fill="#FFD305"/>
</g>
<g clip-path="url(#clip1_60_1424)">
<path d="M208.984 40.968C210.755 40.9676 212.475 40.3748 213.87 39.284L218.259 43.67L219.67 42.26L215.283 37.873C216.384 36.447 216.971 34.69 216.946 32.8883C216.921 31.0866 216.287 29.3464 215.146 27.9512C214.006 26.5561 212.427 25.5881 210.666 25.2052C208.906 24.8222 207.067 25.0468 205.45 25.8424C203.834 26.6379 202.534 27.9575 201.763 29.5861C200.992 31.2148 200.796 33.0565 201.205 34.8112C201.615 36.5658 202.607 38.1301 204.019 39.249C205.431 40.3679 207.181 40.9756 208.983 40.973L208.984 40.968ZM208.984 27C210.169 26.9992 211.327 27.3498 212.312 28.0075C213.298 28.6652 214.066 29.6003 214.519 30.6946C214.973 31.789 215.092 32.9933 214.861 34.1552C214.63 35.3171 214.06 36.3845 213.222 37.2221C212.384 38.0598 211.317 38.6302 210.155 38.8611C208.993 39.0921 207.789 38.9731 206.695 38.5194C205.6 38.0657 204.665 37.2976 204.007 36.3123C203.35 35.3269 202.999 34.1687 203 32.984C203.003 31.3978 203.634 29.8772 204.756 28.7556C205.877 27.6339 207.398 27.0026 208.984 27Z" fill="#38485C"/>
</g>
<rect x="183" y="13" width="54" height="42" rx="7" stroke="#E6EBF0" stroke-width="2"/>
<rect x="245" y="13" width="100" height="42" rx="9" fill="white"/>
<path d="M260.286 40.126C260.07 40.126 259.902 40.066 259.782 39.946C259.662 39.814 259.602 39.634 259.602 39.406V27.904C259.602 27.664 259.662 27.484 259.782 27.364C259.902 27.244 260.07 27.184 260.286 27.184C260.478 27.184 260.628 27.226 260.736 27.31C260.856 27.382 260.964 27.508 261.06 27.688L265.992 36.976H265.452L270.366 27.688C270.462 27.508 270.564 27.382 270.672 27.31C270.78 27.226 270.936 27.184 271.14 27.184C271.344 27.184 271.506 27.244 271.626 27.364C271.746 27.484 271.806 27.664 271.806 27.904V39.406C271.806 39.634 271.746 39.814 271.626 39.946C271.518 40.066 271.35 40.126 271.122 40.126C270.906 40.126 270.738 40.066 270.618 39.946C270.498 39.814 270.438 39.634 270.438 39.406V29.29H270.87L266.37 37.732C266.286 37.888 266.196 38.002 266.1 38.074C266.016 38.134 265.89 38.164 265.722 38.164C265.554 38.164 265.422 38.128 265.326 38.056C265.23 37.984 265.146 37.876 265.074 37.732L260.52 29.272H260.952V39.406C260.952 39.634 260.892 39.814 260.772 39.946C260.664 40.066 260.502 40.126 260.286 40.126ZM278.708 40.162C277.784 40.162 276.986 39.982 276.314 39.622C275.654 39.25 275.138 38.728 274.766 38.056C274.406 37.384 274.226 36.58 274.226 35.644C274.226 34.732 274.406 33.94 274.766 33.268C275.126 32.584 275.618 32.05 276.242 31.666C276.878 31.282 277.61 31.09 278.438 31.09C279.026 31.09 279.554 31.192 280.022 31.396C280.49 31.588 280.886 31.87 281.21 32.242C281.546 32.614 281.798 33.064 281.966 33.592C282.146 34.12 282.236 34.714 282.236 35.374C282.236 35.566 282.182 35.71 282.074 35.806C281.966 35.89 281.81 35.932 281.606 35.932H275.342V34.978H281.264L280.976 35.212C280.976 34.564 280.88 34.018 280.688 33.574C280.496 33.118 280.214 32.77 279.842 32.53C279.482 32.29 279.026 32.17 278.474 32.17C277.862 32.17 277.34 32.314 276.908 32.602C276.488 32.878 276.17 33.268 275.954 33.772C275.738 34.264 275.63 34.84 275.63 35.5V35.608C275.63 36.712 275.894 37.552 276.422 38.128C276.962 38.704 277.724 38.992 278.708 38.992C279.116 38.992 279.518 38.938 279.914 38.83C280.322 38.722 280.718 38.542 281.102 38.29C281.27 38.182 281.42 38.134 281.552 38.146C281.696 38.146 281.81 38.188 281.894 38.272C281.978 38.344 282.032 38.44 282.056 38.56C282.092 38.668 282.08 38.788 282.02 38.92C281.972 39.052 281.87 39.166 281.714 39.262C281.318 39.55 280.85 39.772 280.31 39.928C279.77 40.084 279.236 40.162 278.708 40.162ZM285.067 40.126C284.827 40.126 284.647 40.06 284.527 39.928C284.407 39.796 284.347 39.61 284.347 39.37V31.864C284.347 31.624 284.407 31.444 284.527 31.324C284.647 31.192 284.821 31.126 285.049 31.126C285.277 31.126 285.451 31.192 285.571 31.324C285.703 31.444 285.769 31.624 285.769 31.864V33.412L285.571 33.196C285.823 32.5 286.231 31.978 286.795 31.63C287.371 31.27 288.031 31.09 288.775 31.09C289.471 31.09 290.047 31.216 290.503 31.468C290.971 31.72 291.319 32.104 291.547 32.62C291.775 33.124 291.889 33.766 291.889 34.546V39.37C291.889 39.61 291.823 39.796 291.691 39.928C291.571 40.06 291.397 40.126 291.169 40.126C290.929 40.126 290.743 40.06 290.611 39.928C290.491 39.796 290.431 39.61 290.431 39.37V34.636C290.431 33.82 290.269 33.226 289.945 32.854C289.633 32.47 289.129 32.278 288.433 32.278C287.629 32.278 286.987 32.53 286.507 33.034C286.039 33.526 285.805 34.186 285.805 35.014V39.37C285.805 39.874 285.559 40.126 285.067 40.126ZM297.673 40.162C296.965 40.162 296.377 40.036 295.909 39.784C295.453 39.52 295.105 39.13 294.865 38.614C294.637 38.098 294.523 37.456 294.523 36.688V31.864C294.523 31.612 294.583 31.426 294.703 31.306C294.835 31.186 295.015 31.126 295.243 31.126C295.483 31.126 295.663 31.186 295.783 31.306C295.915 31.426 295.981 31.612 295.981 31.864V36.67C295.981 37.438 296.137 38.014 296.449 38.398C296.773 38.77 297.277 38.956 297.961 38.956C298.705 38.956 299.311 38.704 299.779 38.2C300.247 37.696 300.481 37.036 300.481 36.22V31.864C300.481 31.612 300.541 31.426 300.661 31.306C300.793 31.186 300.979 31.126 301.219 31.126C301.447 31.126 301.621 31.186 301.741 31.306C301.873 31.426 301.939 31.612 301.939 31.864V39.37C301.939 39.874 301.705 40.126 301.237 40.126C301.009 40.126 300.829 40.06 300.697 39.928C300.577 39.796 300.517 39.61 300.517 39.37V37.732L300.751 37.984C300.511 38.692 300.115 39.232 299.563 39.604C299.023 39.976 298.393 40.162 297.673 40.162ZM298.861 29.974C298.777 30.094 298.675 30.166 298.555 30.19C298.435 30.202 298.321 30.184 298.213 30.136C298.105 30.076 298.027 29.992 297.979 29.884C297.931 29.776 297.943 29.65 298.015 29.506L299.527 26.572C299.611 26.404 299.719 26.296 299.851 26.248C299.983 26.2 300.115 26.194 300.247 26.23C300.391 26.254 300.511 26.314 300.607 26.41C300.703 26.506 300.757 26.62 300.769 26.752C300.793 26.884 300.757 27.022 300.661 27.166L298.861 29.974Z" fill="#38485C"/>
<path d="M312 40H328C328.265 40 328.52 39.8946 328.707 39.7071C328.895 39.5196 329 39.2652 329 39C329 38.7348 328.895 38.4804 328.707 38.2929C328.52 38.1054 328.265 38 328 38H312C311.735 38 311.48 38.1054 311.293 38.2929C311.105 38.4804 311 38.7348 311 39C311 39.2652 311.105 39.5196 311.293 39.7071C311.48 39.8946 311.735 40 312 40ZM312 35H328C328.265 35 328.52 34.8946 328.707 34.7071C328.895 34.5196 329 34.2652 329 34C329 33.7348 328.895 33.4804 328.707 33.2929C328.52 33.1054 328.265 33 328 33H312C311.735 33 311.48 33.1054 311.293 33.2929C311.105 33.4804 311 33.7348 311 34C311 34.2652 311.105 34.5196 311.293 34.7071C311.48 34.8946 311.735 35 312 35ZM311 29C311 29.2652 311.105 29.5196 311.293 29.7071C311.48 29.8946 311.735 30 312 30H328C328.265 30 328.52 29.8946 328.707 29.7071C328.895 29.5196 329 29.2652 329 29C329 28.7348 328.895 28.4804 328.707 28.2929C328.52 28.1054 328.265 28 328 28H312C311.735 28 311.48 28.1054 311.293 28.2929C311.105 28.4804 311 28.7348 311 29Z" fill="#38485C"/>
<rect x="245" y="13" width="100" height="42" rx="9" stroke="#E6EBF0" stroke-width="2"/>
<line x1="-1.75853e-09" y1="69" x2="360" y2="69" stroke="#007BC7" stroke-width="2"/>
<defs>
<clipPath id="clip0_60_1424">
<rect width="57" height="30.6603" fill="white" transform="translate(16 18.6698)"/>
</clipPath>
<clipPath id="clip1_60_1424">
<rect width="24" height="24" fill="white" transform="translate(198 22)"/>
</clipPath>
</defs>
</svg>
