<svg width="712" height="231" viewBox="0 0 712 231" fill="none" xmlns="http://www.w3.org/2000/svg">
<rect x="1" y="1" width="710" height="229" rx="7" fill="white"/>
<g clip-path="url(#clip0_5202_31726)">
<path d="M6 91H706V135.07H6V91Z" fill="white"/>
<mask id="mask0_5202_31726" style="mask-type:luminance" maskUnits="userSpaceOnUse" x="37" y="101" width="43" height="23">
<path d="M79.7152 101.467H37.8484V123.987H79.7152V101.467Z" fill="white"/>
</mask>
<g mask="url(#mask0_5202_31726)">
<path d="M79.3083 119.303L71.2783 103.787C70.5855 102.409 69.1665 101.467 67.5195 101.467H67.5154C65.87 101.467 64.449 102.409 63.7561 103.787L58.1039 114.708C57.473 113.585 56.4666 112.704 55.2521 112.228C56.6076 111.247 57.491 109.649 57.491 107.847C57.491 105.758 56.3039 103.95 54.5693 103.052C53.0411 102.249 51.2965 101.794 49.4469 101.794H40.9921C39.2536 101.794 37.8484 103.199 37.8484 104.934V120.668C37.8484 122.403 39.2536 123.808 40.9921 123.808H50.1355C51.8979 123.808 53.575 123.443 55.0972 122.792L55.6768 122.512C55.7085 122.496 55.7403 122.48 55.772 122.465C56.3218 123.376 57.3162 123.989 58.461 123.989C59.7334 123.989 60.829 123.235 61.323 122.145C61.569 121.569 62.125 121.163 62.7799 121.131H72.253C72.9099 121.163 73.4634 121.569 73.7094 122.145C74.2018 123.235 75.2995 123.989 76.5714 123.989C78.308 123.989 79.7132 122.58 79.7132 120.851C79.7132 120.287 79.5681 119.759 79.3063 119.305" fill="#FFD305"/>
</g>
<path d="M139.236 100.224H97.2153C94.6679 100.224 92.6033 102.289 92.6033 104.836V121.234C92.6033 123.781 94.6679 125.846 97.2153 125.846H139.236C141.783 125.846 143.848 123.781 143.848 121.234V104.836C143.848 102.289 141.783 100.224 139.236 100.224Z" fill="white"/>
<path d="M100.436 116.174C100.326 116.174 100.24 116.144 100.178 116.082C100.117 116.015 100.086 115.922 100.086 115.805V109.911C100.086 109.788 100.117 109.696 100.178 109.635C100.24 109.573 100.326 109.542 100.436 109.542C100.535 109.542 100.612 109.564 100.667 109.607C100.729 109.644 100.784 109.708 100.833 109.801L103.36 114.56H103.084L105.602 109.801C105.651 109.708 105.703 109.644 105.759 109.607C105.814 109.564 105.894 109.542 105.999 109.542C106.103 109.542 106.186 109.573 106.248 109.635C106.309 109.696 106.34 109.788 106.34 109.911V115.805C106.34 115.922 106.309 116.015 106.248 116.082C106.192 116.144 106.106 116.174 105.989 116.174C105.879 116.174 105.793 116.144 105.731 116.082C105.67 116.015 105.639 115.922 105.639 115.805V110.622H105.86L103.554 114.948C103.511 115.028 103.465 115.086 103.416 115.123C103.373 115.154 103.308 115.169 103.222 115.169C103.136 115.169 103.068 115.151 103.019 115.114C102.97 115.077 102.927 115.021 102.89 114.948L100.556 110.612H100.778V115.805C100.778 115.922 100.747 116.015 100.685 116.082C100.63 116.144 100.547 116.174 100.436 116.174ZM109.877 116.193C109.403 116.193 108.994 116.101 108.65 115.916C108.312 115.726 108.047 115.458 107.857 115.114C107.672 114.769 107.58 114.357 107.58 113.878C107.58 113.41 107.672 113.004 107.857 112.66C108.041 112.31 108.293 112.036 108.613 111.839C108.939 111.642 109.314 111.544 109.738 111.544C110.04 111.544 110.31 111.596 110.55 111.701C110.79 111.799 110.993 111.944 111.159 112.134C111.331 112.325 111.46 112.556 111.546 112.826C111.638 113.097 111.685 113.401 111.685 113.739C111.685 113.838 111.657 113.911 111.602 113.961C111.546 114.004 111.466 114.025 111.362 114.025H108.152V113.536H111.187L111.039 113.656C111.039 113.324 110.99 113.044 110.891 112.817C110.793 112.583 110.648 112.405 110.458 112.282C110.273 112.159 110.04 112.097 109.757 112.097C109.443 112.097 109.176 112.171 108.954 112.319C108.739 112.46 108.576 112.66 108.465 112.918C108.355 113.17 108.299 113.466 108.299 113.804V113.859C108.299 114.425 108.435 114.855 108.705 115.151C108.982 115.446 109.372 115.593 109.877 115.593C110.086 115.593 110.292 115.566 110.495 115.51C110.704 115.455 110.907 115.363 111.104 115.234C111.19 115.178 111.266 115.154 111.334 115.16C111.408 115.16 111.466 115.181 111.509 115.224C111.552 115.261 111.58 115.31 111.592 115.372C111.611 115.427 111.605 115.489 111.574 115.556C111.549 115.624 111.497 115.682 111.417 115.732C111.214 115.879 110.974 115.993 110.698 116.073C110.421 116.153 110.147 116.193 109.877 116.193ZM113.135 116.174C113.012 116.174 112.92 116.141 112.859 116.073C112.797 116.005 112.766 115.91 112.766 115.787V111.941C112.766 111.818 112.797 111.725 112.859 111.664C112.92 111.596 113.009 111.562 113.126 111.562C113.243 111.562 113.332 111.596 113.394 111.664C113.461 111.725 113.495 111.818 113.495 111.941V112.734L113.394 112.623C113.523 112.267 113.732 111.999 114.021 111.821C114.316 111.636 114.654 111.544 115.035 111.544C115.392 111.544 115.687 111.609 115.921 111.738C116.161 111.867 116.339 112.064 116.456 112.328C116.573 112.586 116.631 112.915 116.631 113.315V115.787C116.631 115.91 116.597 116.005 116.53 116.073C116.468 116.141 116.379 116.174 116.262 116.174C116.139 116.174 116.044 116.141 115.976 116.073C115.915 116.005 115.884 115.91 115.884 115.787V113.361C115.884 112.943 115.801 112.639 115.635 112.448C115.475 112.251 115.217 112.153 114.86 112.153C114.448 112.153 114.119 112.282 113.873 112.54C113.633 112.792 113.514 113.13 113.514 113.555V115.787C113.514 116.045 113.387 116.174 113.135 116.174ZM119.595 116.193C119.232 116.193 118.931 116.128 118.691 115.999C118.458 115.864 118.279 115.664 118.156 115.4C118.039 115.135 117.981 114.806 117.981 114.413V111.941C117.981 111.811 118.012 111.716 118.073 111.655C118.141 111.593 118.233 111.562 118.35 111.562C118.473 111.562 118.565 111.593 118.627 111.655C118.694 111.716 118.728 111.811 118.728 111.941V114.403C118.728 114.797 118.808 115.092 118.968 115.289C119.134 115.48 119.392 115.575 119.743 115.575C120.124 115.575 120.435 115.446 120.674 115.187C120.914 114.929 121.034 114.591 121.034 114.173V111.941C121.034 111.811 121.065 111.716 121.126 111.655C121.194 111.593 121.289 111.562 121.412 111.562C121.529 111.562 121.618 111.593 121.68 111.655C121.747 111.716 121.781 111.811 121.781 111.941V115.787C121.781 116.045 121.661 116.174 121.422 116.174C121.305 116.174 121.213 116.141 121.145 116.073C121.083 116.005 121.053 115.91 121.053 115.787V114.948L121.173 115.077C121.05 115.44 120.847 115.716 120.564 115.907C120.287 116.098 119.964 116.193 119.595 116.193ZM120.204 110.972C120.161 111.034 120.109 111.07 120.047 111.083C119.986 111.089 119.927 111.08 119.872 111.055C119.817 111.024 119.777 110.981 119.752 110.926C119.727 110.871 119.734 110.806 119.77 110.732L120.545 109.229C120.588 109.143 120.644 109.087 120.711 109.063C120.779 109.038 120.847 109.035 120.914 109.053C120.988 109.066 121.05 109.097 121.099 109.146C121.148 109.195 121.176 109.253 121.182 109.321C121.194 109.389 121.176 109.459 121.126 109.533L120.204 110.972Z" fill="#38485C"/>
<mask id="mask1_5202_31726" style="mask-type:luminance" maskUnits="userSpaceOnUse" x="124" y="106" width="14" height="14">
<path d="M137.186 106.886H124.887V119.184H137.186V106.886Z" fill="white"/>
</mask>
<g mask="url(#mask1_5202_31726)">
<path d="M129.048 111.646L131.037 113.635L133.025 111.646C133.225 111.446 133.547 111.446 133.747 111.646C133.947 111.846 133.947 112.169 133.747 112.369L131.395 114.721C131.195 114.921 130.873 114.921 130.673 114.721L128.321 112.369C128.121 112.169 128.121 111.846 128.321 111.646C128.52 111.452 128.848 111.446 129.048 111.646Z" fill="#38485C"/>
</g>
<path d="M139.236 100.224H97.2153C94.6679 100.224 92.6033 102.289 92.6033 104.836V121.234C92.6033 123.781 94.6679 125.846 97.2153 125.846H139.236C141.783 125.846 143.848 123.781 143.848 121.234V104.836C143.848 102.289 141.783 100.224 139.236 100.224Z" stroke="#E6EBF0" stroke-width="2"/>
<mask id="mask2_5202_31726" style="mask-type:luminance" maskUnits="userSpaceOnUse" x="425" y="100" width="175" height="26">
<path d="M595.312 100.736H429.28C427.015 100.736 425.18 102.572 425.18 104.836V121.234C425.18 123.498 427.015 125.334 429.28 125.334H595.312C597.576 125.334 599.411 123.498 599.411 121.234V104.836C599.411 102.572 597.576 100.736 595.312 100.736Z" fill="white"/>
</mask>
<g mask="url(#mask2_5202_31726)">
<path d="M595.312 100.224H429.28C426.732 100.224 424.668 102.289 424.668 104.836V121.234C424.668 123.781 426.732 125.846 429.28 125.846H595.312C597.859 125.846 599.924 123.781 599.924 121.234V104.836C599.924 102.289 597.859 100.224 595.312 100.224Z" fill="#F3F6F9"/>
<path d="M434.18 110.257H435.837C436.569 110.257 437.118 110.366 437.487 110.585C437.855 110.804 438.039 111.176 438.039 111.702C438.039 111.929 437.995 112.133 437.907 112.315C437.822 112.493 437.696 112.641 437.531 112.759C437.365 112.876 437.161 112.958 436.918 113.003V113.043C437.174 113.083 437.401 113.157 437.599 113.263C437.796 113.37 437.951 113.52 438.063 113.712C438.175 113.904 438.231 114.148 438.231 114.444C438.231 114.805 438.147 115.109 437.979 115.357C437.814 115.605 437.579 115.794 437.275 115.922C436.97 116.047 436.61 116.11 436.193 116.11H434.18V110.257ZM434.861 112.767H435.981C436.491 112.767 436.843 112.683 437.038 112.515C437.236 112.346 437.335 112.101 437.335 111.778C437.335 111.444 437.217 111.204 436.982 111.057C436.75 110.911 436.379 110.837 435.869 110.837H434.861V112.767ZM434.861 113.339V115.529H436.078C436.598 115.529 436.966 115.428 437.182 115.225C437.399 115.02 437.507 114.743 437.507 114.396C437.507 114.175 437.457 113.985 437.359 113.828C437.262 113.67 437.105 113.55 436.886 113.468C436.67 113.382 436.381 113.339 436.017 113.339H434.861ZM443.003 111.722V116.11H442.459L442.363 115.493H442.327C442.236 115.645 442.119 115.774 441.974 115.878C441.83 115.982 441.667 116.059 441.486 116.11C441.307 116.163 441.117 116.19 440.914 116.19C440.567 116.19 440.276 116.134 440.041 116.022C439.806 115.91 439.628 115.736 439.508 115.501C439.391 115.266 439.332 114.965 439.332 114.596V111.722H440.005V114.548C440.005 114.914 440.088 115.188 440.253 115.369C440.419 115.548 440.671 115.637 441.01 115.637C441.335 115.637 441.594 115.576 441.786 115.453C441.981 115.33 442.121 115.15 442.207 114.913C442.292 114.673 442.335 114.379 442.335 114.032V111.722H443.003ZM447.247 114.909C447.247 115.189 447.176 115.425 447.035 115.617C446.896 115.807 446.696 115.95 446.435 116.046C446.175 116.142 445.866 116.19 445.506 116.19C445.199 116.19 444.933 116.166 444.709 116.118C444.485 116.07 444.289 116.002 444.12 115.914V115.301C444.299 115.389 444.513 115.469 444.761 115.541C445.009 115.613 445.263 115.649 445.522 115.649C445.901 115.649 446.175 115.588 446.347 115.465C446.517 115.342 446.603 115.176 446.603 114.965C446.603 114.845 446.568 114.739 446.499 114.649C446.432 114.555 446.318 114.466 446.158 114.38C445.998 114.292 445.777 114.196 445.494 114.092C445.214 113.985 444.971 113.88 444.765 113.776C444.562 113.669 444.405 113.54 444.293 113.387C444.183 113.235 444.129 113.038 444.129 112.795C444.129 112.424 444.278 112.14 444.577 111.942C444.878 111.742 445.273 111.642 445.762 111.642C446.026 111.642 446.273 111.669 446.502 111.722C446.734 111.773 446.951 111.842 447.151 111.93L446.927 112.463C446.745 112.385 446.552 112.32 446.347 112.266C446.141 112.213 445.931 112.186 445.718 112.186C445.411 112.186 445.175 112.237 445.009 112.339C444.847 112.44 444.765 112.579 444.765 112.755C444.765 112.891 444.803 113.003 444.877 113.091C444.955 113.179 445.077 113.262 445.245 113.339C445.413 113.417 445.635 113.508 445.91 113.612C446.185 113.713 446.422 113.818 446.623 113.928C446.823 114.035 446.976 114.165 447.083 114.32C447.193 114.472 447.247 114.669 447.247 114.909ZM450.074 116.19C449.678 116.19 449.331 116.108 449.029 115.946C448.727 115.783 448.492 115.535 448.324 115.201C448.156 114.867 448.072 114.447 448.072 113.94C448.072 113.409 448.16 112.975 448.336 112.639C448.515 112.3 448.761 112.049 449.073 111.886C449.385 111.723 449.74 111.642 450.138 111.642C450.356 111.642 450.568 111.665 450.77 111.71C450.976 111.753 451.144 111.807 451.275 111.874L451.074 112.431C450.941 112.377 450.786 112.329 450.61 112.286C450.436 112.244 450.274 112.222 450.122 112.222C449.817 112.222 449.564 112.288 449.361 112.419C449.161 112.549 449.01 112.742 448.909 112.995C448.81 113.249 448.761 113.561 448.761 113.932C448.761 114.287 448.808 114.59 448.905 114.841C449.004 115.092 449.149 115.284 449.341 115.417C449.536 115.548 449.779 115.613 450.069 115.613C450.302 115.613 450.511 115.589 450.698 115.541C450.885 115.491 451.054 115.432 451.207 115.365V115.958C451.06 116.032 450.896 116.09 450.714 116.13C450.535 116.17 450.322 116.19 450.074 116.19ZM453.889 111.65C454.412 111.65 454.8 111.767 455.054 112.002C455.308 112.237 455.434 112.612 455.434 113.127V116.11H454.95L454.822 115.461H454.79C454.667 115.621 454.539 115.756 454.405 115.866C454.272 115.972 454.117 116.054 453.941 116.11C453.767 116.163 453.554 116.19 453.3 116.19C453.033 116.19 452.796 116.143 452.588 116.05C452.382 115.956 452.22 115.815 452.099 115.625C451.982 115.436 451.923 115.196 451.923 114.905C451.923 114.467 452.097 114.131 452.444 113.896C452.791 113.661 453.319 113.533 454.029 113.512L454.785 113.48V113.211C454.785 112.832 454.705 112.567 454.542 112.415C454.379 112.262 454.149 112.186 453.853 112.186C453.623 112.186 453.404 112.22 453.196 112.286C452.988 112.353 452.791 112.432 452.604 112.523L452.4 112.018C452.597 111.917 452.824 111.83 453.08 111.758C453.336 111.686 453.606 111.65 453.889 111.65ZM454.778 113.948L454.109 113.976C453.562 113.997 453.176 114.087 452.952 114.244C452.728 114.402 452.616 114.625 452.616 114.913C452.616 115.164 452.692 115.349 452.844 115.469C452.996 115.589 453.197 115.649 453.449 115.649C453.838 115.649 454.157 115.541 454.405 115.325C454.654 115.109 454.778 114.785 454.778 114.352V113.948ZM458.797 111.642C458.885 111.642 458.977 111.647 459.074 111.658C459.169 111.666 459.255 111.678 459.33 111.694L459.246 112.31C459.174 112.292 459.094 112.277 459.005 112.266C458.917 112.256 458.834 112.25 458.757 112.25C458.581 112.25 458.414 112.286 458.257 112.359C458.102 112.428 457.966 112.529 457.848 112.663C457.731 112.794 457.639 112.952 457.572 113.139C457.506 113.323 457.472 113.529 457.472 113.756V116.11H456.803V111.722H457.356L457.428 112.531H457.456C457.547 112.368 457.656 112.22 457.784 112.086C457.912 111.95 458.061 111.842 458.229 111.762C458.4 111.682 458.589 111.642 458.797 111.642ZM463.978 111.642C464.351 111.642 464.672 111.725 464.939 111.89C465.206 112.056 465.41 112.288 465.551 112.587C465.692 112.883 465.763 113.23 465.763 113.628V114.04H462.732C462.741 114.555 462.869 114.947 463.117 115.217C463.365 115.487 463.715 115.621 464.166 115.621C464.444 115.621 464.689 115.596 464.903 115.545C465.116 115.495 465.338 115.42 465.567 115.321V115.906C465.345 116.004 465.126 116.076 464.906 116.122C464.691 116.167 464.434 116.19 464.138 116.19C463.716 116.19 463.348 116.104 463.033 115.934C462.721 115.76 462.478 115.507 462.304 115.173C462.131 114.839 462.044 114.431 462.044 113.948C462.044 113.476 462.123 113.067 462.28 112.723C462.44 112.376 462.664 112.109 462.953 111.922C463.244 111.735 463.585 111.642 463.978 111.642ZM463.97 112.186C463.615 112.186 463.332 112.302 463.121 112.535C462.91 112.767 462.785 113.091 462.745 113.508H465.067C465.064 113.246 465.023 113.016 464.943 112.819C464.865 112.619 464.746 112.464 464.586 112.355C464.426 112.242 464.221 112.186 463.97 112.186ZM468.97 111.642C469.491 111.642 469.884 111.77 470.151 112.026C470.418 112.28 470.551 112.688 470.551 113.251V116.11H469.895V113.295C469.895 112.93 469.811 112.656 469.643 112.475C469.477 112.293 469.222 112.202 468.878 112.202C468.392 112.202 468.051 112.34 467.853 112.615C467.656 112.89 467.557 113.289 467.557 113.812V116.11H466.892V111.722H467.429L467.529 112.355H467.565C467.658 112.2 467.777 112.07 467.921 111.966C468.066 111.859 468.227 111.779 468.406 111.726C468.585 111.67 468.773 111.642 468.97 111.642ZM474.15 110.257H475.808C476.539 110.257 477.089 110.366 477.458 110.585C477.826 110.804 478.01 111.176 478.01 111.702C478.01 111.929 477.966 112.133 477.878 112.315C477.792 112.493 477.667 112.641 477.502 112.759C477.336 112.876 477.132 112.958 476.889 113.003V113.043C477.145 113.083 477.372 113.157 477.569 113.263C477.767 113.37 477.922 113.52 478.034 113.712C478.146 113.904 478.202 114.148 478.202 114.444C478.202 114.805 478.118 115.109 477.95 115.357C477.785 115.605 477.549 115.794 477.245 115.922C476.941 116.047 476.581 116.11 476.164 116.11H474.15V110.257ZM474.831 112.767H475.952C476.462 112.767 476.814 112.683 477.009 112.515C477.206 112.346 477.305 112.101 477.305 111.778C477.305 111.444 477.188 111.204 476.953 111.057C476.721 110.911 476.35 110.837 475.84 110.837H474.831V112.767ZM474.831 113.339V115.529H476.048C476.569 115.529 476.937 115.428 477.153 115.225C477.369 115.02 477.478 114.743 477.478 114.396C477.478 114.175 477.428 113.985 477.329 113.828C477.233 113.67 477.076 113.55 476.857 113.468C476.641 113.382 476.351 113.339 475.988 113.339H474.831ZM482.974 111.722V116.11H482.43L482.334 115.493H482.298C482.207 115.645 482.09 115.774 481.945 115.878C481.801 115.982 481.638 116.059 481.457 116.11C481.278 116.163 481.087 116.19 480.884 116.19C480.537 116.19 480.246 116.134 480.012 116.022C479.777 115.91 479.599 115.736 479.479 115.501C479.362 115.266 479.303 114.965 479.303 114.596V111.722H479.976V114.548C479.976 114.914 480.058 115.188 480.224 115.369C480.389 115.548 480.641 115.637 480.981 115.637C481.306 115.637 481.565 115.576 481.757 115.453C481.952 115.33 482.092 115.15 482.178 114.913C482.263 114.673 482.306 114.379 482.306 114.032V111.722H482.974ZM486.069 111.642C486.442 111.642 486.763 111.725 487.03 111.89C487.297 112.056 487.501 112.288 487.642 112.587C487.784 112.883 487.855 113.23 487.855 113.628V114.04H484.824C484.832 114.555 484.96 114.947 485.208 115.217C485.456 115.487 485.806 115.621 486.257 115.621C486.535 115.621 486.78 115.596 486.994 115.545C487.207 115.495 487.429 115.42 487.658 115.321V115.906C487.437 116.004 487.217 116.076 486.998 116.122C486.782 116.167 486.525 116.19 486.229 116.19C485.807 116.19 485.439 116.104 485.124 115.934C484.812 115.76 484.569 115.507 484.396 115.173C484.222 114.839 484.135 114.431 484.135 113.948C484.135 113.476 484.214 113.067 484.372 112.723C484.531 112.376 484.756 112.109 485.044 111.922C485.335 111.735 485.677 111.642 486.069 111.642ZM486.061 112.186C485.706 112.186 485.423 112.302 485.212 112.535C485.001 112.767 484.876 113.091 484.836 113.508H487.158C487.155 113.246 487.114 113.016 487.034 112.819C486.956 112.619 486.837 112.464 486.678 112.355C486.517 112.242 486.312 112.186 486.061 112.186ZM491.061 111.642C491.582 111.642 491.975 111.77 492.242 112.026C492.509 112.28 492.642 112.688 492.642 113.251V116.11H491.986V113.295C491.986 112.93 491.902 112.656 491.734 112.475C491.568 112.293 491.314 112.202 490.969 112.202C490.483 112.202 490.142 112.34 489.944 112.615C489.747 112.89 489.648 113.289 489.648 113.812V116.11H488.984V111.722H489.52L489.62 112.355H489.656C489.75 112.2 489.868 112.07 490.012 111.966C490.156 111.859 490.318 111.779 490.497 111.726C490.676 111.67 490.864 111.642 491.061 111.642ZM497.795 113.908C497.795 114.268 497.748 114.59 497.655 114.873C497.561 115.156 497.427 115.395 497.251 115.589C497.075 115.784 496.861 115.934 496.61 116.038C496.362 116.139 496.08 116.19 495.765 116.19C495.472 116.19 495.202 116.139 494.957 116.038C494.714 115.934 494.503 115.784 494.324 115.589C494.148 115.395 494.011 115.156 493.912 114.873C493.816 114.59 493.768 114.268 493.768 113.908C493.768 113.427 493.849 113.019 494.012 112.683C494.175 112.344 494.407 112.086 494.709 111.91C495.012 111.731 495.374 111.642 495.793 111.642C496.194 111.642 496.543 111.731 496.842 111.91C497.144 112.089 497.377 112.348 497.543 112.687C497.711 113.023 497.795 113.43 497.795 113.908ZM494.456 113.908C494.456 114.26 494.503 114.566 494.596 114.825C494.69 115.084 494.834 115.284 495.029 115.425C495.224 115.567 495.474 115.637 495.781 115.637C496.085 115.637 496.335 115.567 496.53 115.425C496.728 115.284 496.873 115.084 496.966 114.825C497.06 114.566 497.106 114.26 497.106 113.908C497.106 113.558 497.06 113.257 496.966 113.003C496.873 112.747 496.729 112.549 496.534 112.411C496.339 112.272 496.087 112.202 495.778 112.202C495.321 112.202 494.986 112.353 494.773 112.655C494.561 112.956 494.456 113.374 494.456 113.908ZM501.782 114.909C501.782 115.189 501.712 115.425 501.57 115.617C501.431 115.807 501.231 115.95 500.97 116.046C500.711 116.142 500.401 116.19 500.041 116.19C499.734 116.19 499.469 116.166 499.244 116.118C499.02 116.07 498.824 116.002 498.656 115.914V115.301C498.835 115.389 499.048 115.469 499.296 115.541C499.544 115.613 499.798 115.649 500.057 115.649C500.436 115.649 500.711 115.588 500.882 115.465C501.053 115.342 501.138 115.176 501.138 114.965C501.138 114.845 501.103 114.739 501.034 114.649C500.967 114.555 500.854 114.466 500.693 114.38C500.534 114.292 500.312 114.196 500.029 114.092C499.749 113.985 499.506 113.88 499.301 113.776C499.098 113.669 498.94 113.54 498.828 113.387C498.718 113.235 498.664 113.038 498.664 112.795C498.664 112.424 498.813 112.14 499.112 111.942C499.414 111.742 499.809 111.642 500.297 111.642C500.562 111.642 500.808 111.669 501.038 111.722C501.27 111.773 501.486 111.842 501.687 111.93L501.462 112.463C501.281 112.385 501.087 112.32 500.882 112.266C500.676 112.213 500.467 112.186 500.253 112.186C499.946 112.186 499.71 112.237 499.544 112.339C499.382 112.44 499.301 112.579 499.301 112.755C499.301 112.891 499.338 113.003 499.412 113.091C499.49 113.179 499.613 113.262 499.781 113.339C499.949 113.417 500.171 113.508 500.445 113.612C500.72 113.713 500.958 113.818 501.158 113.928C501.358 114.035 501.512 114.165 501.618 114.32C501.728 114.472 501.782 114.669 501.782 114.909ZM508.753 116.11L508.032 114.252H505.686L504.969 116.11H504.281L506.571 110.233H507.183L509.457 116.11H508.753ZM507.828 113.648L507.143 111.802C507.127 111.754 507.1 111.675 507.063 111.566C507.028 111.456 506.992 111.343 506.955 111.226C506.918 111.108 506.887 111.013 506.863 110.941C506.836 111.051 506.807 111.16 506.775 111.27C506.745 111.376 506.716 111.476 506.687 111.57C506.657 111.661 506.632 111.738 506.611 111.802L505.914 113.648H507.828ZM510.834 111.722V116.11H510.17V111.722H510.834ZM510.51 110.081C510.619 110.081 510.713 110.117 510.79 110.189C510.871 110.258 510.911 110.367 510.911 110.517C510.911 110.664 510.871 110.773 510.79 110.845C510.713 110.917 510.619 110.953 510.51 110.953C510.396 110.953 510.299 110.917 510.222 110.845C510.147 110.773 510.11 110.664 510.11 110.517C510.11 110.367 510.147 110.258 510.222 110.189C510.299 110.117 510.396 110.081 510.51 110.081ZM514.237 111.642C514.325 111.642 514.418 111.647 514.514 111.658C514.61 111.666 514.695 111.678 514.77 111.694L514.686 112.31C514.613 112.292 514.534 112.277 514.445 112.266C514.357 112.256 514.275 112.25 514.197 112.25C514.021 112.25 513.855 112.286 513.697 112.359C513.542 112.428 513.406 112.529 513.289 112.663C513.171 112.794 513.079 112.952 513.012 113.139C512.945 113.323 512.912 113.529 512.912 113.756V116.11H512.243V111.722H512.796L512.868 112.531H512.896C512.987 112.368 513.096 112.22 513.224 112.086C513.352 111.95 513.501 111.842 513.669 111.762C513.84 111.682 514.029 111.642 514.237 111.642ZM517.288 111.642C517.661 111.642 517.982 111.725 518.249 111.89C518.517 112.056 518.722 112.288 518.86 112.587C519.004 112.883 519.075 113.23 519.075 113.628V114.04H516.043C516.051 114.555 516.179 114.947 516.427 115.217C516.676 115.487 517.025 115.621 517.476 115.621C517.754 115.621 517.999 115.596 518.213 115.545C518.427 115.495 518.65 115.42 518.875 115.321V115.906C518.655 116.004 518.436 116.076 518.217 116.122C518.001 116.167 517.744 116.19 517.448 116.19C517.027 116.19 516.658 116.104 516.343 115.934C516.031 115.76 515.788 115.507 515.615 115.173C515.441 114.839 515.354 114.431 515.354 113.948C515.354 113.476 515.433 113.067 515.591 112.723C515.751 112.376 515.975 112.109 516.263 111.922C516.554 111.735 516.896 111.642 517.288 111.642ZM517.28 112.186C516.925 112.186 516.642 112.302 516.431 112.535C516.22 112.767 516.095 113.091 516.055 113.508H518.377C518.374 113.246 518.333 113.016 518.253 112.819C518.175 112.619 518.057 112.464 517.897 112.355C517.736 112.242 517.531 112.186 517.28 112.186ZM523.042 114.909C523.042 115.189 522.97 115.425 522.826 115.617C522.688 115.807 522.488 115.95 522.227 116.046C521.971 116.142 521.658 116.19 521.299 116.19C520.992 116.19 520.725 116.166 520.505 116.118C520.28 116.07 520.085 116.002 519.916 115.914V115.301C520.095 115.389 520.305 115.469 520.556 115.541C520.802 115.613 521.058 115.649 521.315 115.649C521.694 115.649 521.971 115.588 522.14 115.465C522.309 115.342 522.396 115.176 522.396 114.965C522.396 114.845 522.36 114.739 522.293 114.649C522.227 114.555 522.114 114.466 521.95 114.38C521.791 114.292 521.571 114.196 521.289 114.092C521.007 113.985 520.766 113.88 520.556 113.776C520.356 113.669 520.198 113.54 520.085 113.387C519.977 113.235 519.921 113.038 519.921 112.795C519.921 112.424 520.069 112.14 520.372 111.942C520.674 111.742 521.069 111.642 521.556 111.642C521.822 111.642 522.068 111.669 522.299 111.722C522.529 111.773 522.744 111.842 522.944 111.93L522.719 112.463C522.539 112.385 522.345 112.32 522.14 112.266C521.935 112.213 521.725 112.186 521.509 112.186C521.207 112.186 520.966 112.237 520.802 112.339C520.638 112.44 520.556 112.579 520.556 112.755C520.556 112.891 520.597 113.003 520.669 113.091C520.746 113.179 520.869 113.262 521.038 113.339C521.207 113.417 521.427 113.508 521.704 113.612C521.981 113.713 522.217 113.818 522.416 113.928C522.616 114.035 522.77 114.165 522.878 114.32C522.985 114.472 523.042 114.669 523.042 114.909Z" fill="#9EAAB8"/>
<path d="M574.814 100.736H595.312C597.577 100.736 599.411 102.572 599.411 104.836V121.234C599.411 123.498 597.577 125.334 595.312 125.334H574.814V100.736Z" fill="#F3F6F9"/>
<mask id="mask3_5202_31726" style="mask-type:luminance" maskUnits="userSpaceOnUse" x="580" y="106" width="14" height="14">
<path d="M593.262 106.886H580.963V119.184H593.262V106.886Z" fill="white"/>
</mask>
<g mask="url(#mask3_5202_31726)">
<path d="M586.59 116.606C587.502 116.606 588.378 116.302 589.096 115.743L591.346 117.99L592.068 117.268L589.818 115.02C590.382 114.289 590.684 113.389 590.674 112.465C590.659 111.542 590.336 110.65 589.752 109.935C589.168 109.22 588.358 108.724 587.456 108.528C586.554 108.332 585.611 108.447 584.781 108.855C583.951 109.262 583.285 109.939 582.89 110.773C582.496 111.608 582.398 112.552 582.608 113.451C582.818 114.35 583.326 115.151 584.048 115.725C584.771 116.298 585.668 116.61 586.59 116.608V116.606ZM586.59 109.448C587.2 109.448 587.794 109.627 588.297 109.964C588.804 110.301 589.198 110.78 589.429 111.341C589.66 111.902 589.721 112.519 589.603 113.115C589.485 113.71 589.193 114.257 588.763 114.686C588.332 115.115 587.789 115.408 587.195 115.526C586.595 115.644 585.98 115.584 585.417 115.351C584.858 115.119 584.381 114.725 584.043 114.22C583.705 113.715 583.526 113.121 583.526 112.514C583.526 111.702 583.848 110.922 584.428 110.348C585.001 109.773 585.78 109.449 586.59 109.448Z" fill="#38485C"/>
</g>
<path d="M595.312 100.224H429.28C426.732 100.224 424.668 102.289 424.668 104.836V121.234C424.668 123.781 426.732 125.846 429.28 125.846H595.312C597.859 125.846 599.924 123.781 599.924 121.234V104.836C599.924 102.289 597.859 100.224 595.312 100.224Z" stroke="#E6EBF0" stroke-width="2"/>
</g>
<path d="M595.312 100.224H429.28C426.732 100.224 424.668 102.289 424.668 104.836V121.234C424.668 123.781 426.732 125.846 429.28 125.846H595.312C597.859 125.846 599.924 123.781 599.924 121.234V104.836C599.924 102.289 597.859 100.224 595.312 100.224Z" stroke="#E6EBF0" stroke-width="2"/>
<path d="M622.256 111.199C622.092 111.365 622.092 111.63 622.256 111.797L623.071 112.608H619.141C618.905 112.608 618.715 112.8 618.715 113.035C618.715 113.27 618.905 113.462 619.141 113.462H623.071L622.256 114.274C622.092 114.44 622.092 114.705 622.256 114.871C622.425 115.038 622.687 115.038 622.856 114.871L624.388 113.338C624.557 113.172 624.557 112.903 624.388 112.736L622.856 111.199C622.687 111.032 622.425 111.032 622.256 111.199ZM626.402 116.024H623.409C623.174 116.024 622.984 116.217 622.984 116.451C622.984 116.686 623.174 116.878 623.409 116.878H626.402C626.868 116.878 627.253 116.494 627.253 116.024V110.046C627.253 109.576 626.868 109.192 626.402 109.192H623.409C623.174 109.192 622.984 109.384 622.984 109.619C622.984 109.854 623.174 110.046 623.409 110.046H626.402V116.024Z" fill="#007BC7"/>
<path d="M630.932 116.184C630.783 116.184 630.665 116.15 630.573 116.082C630.486 116.014 630.435 115.925 630.414 115.815C630.399 115.698 630.419 115.569 630.481 115.427L632.915 110.031C632.997 109.853 633.089 109.727 633.202 109.653C633.32 109.573 633.453 109.533 633.597 109.533C633.74 109.533 633.868 109.573 633.976 109.653C634.094 109.727 634.191 109.853 634.273 110.031L636.717 115.427C636.784 115.569 636.81 115.698 636.789 115.815C636.774 115.931 636.717 116.024 636.635 116.091C636.548 116.153 636.436 116.184 636.292 116.184C636.118 116.184 635.985 116.144 635.887 116.064C635.795 115.978 635.713 115.848 635.636 115.676L635.037 114.283L635.534 114.606H631.644L632.141 114.283L631.552 115.676C631.47 115.855 631.388 115.984 631.301 116.064C631.214 116.144 631.091 116.184 630.932 116.184ZM633.581 110.889L632.29 113.961L632.049 113.665H635.129L634.898 113.961L633.597 110.889H633.581ZM639.659 116.202C639.187 116.202 638.777 116.107 638.424 115.916C638.075 115.719 637.804 115.443 637.614 115.086C637.425 114.729 637.327 114.311 637.327 113.831C637.327 113.469 637.378 113.146 637.486 112.863C637.594 112.574 637.753 112.331 637.952 112.134C638.157 111.931 638.403 111.778 638.69 111.673C638.982 111.562 639.305 111.507 639.659 111.507C639.864 111.507 640.084 111.535 640.315 111.59C640.556 111.645 640.781 111.738 640.991 111.867C641.089 111.928 641.15 112.002 641.181 112.088C641.212 112.174 641.222 112.263 641.201 112.356C641.181 112.442 641.145 112.519 641.083 112.586C641.027 112.648 640.955 112.688 640.868 112.706C640.781 112.718 640.689 112.697 640.581 112.642C640.448 112.562 640.31 112.503 640.166 112.466C640.028 112.423 639.889 112.402 639.761 112.402C639.561 112.402 639.382 112.436 639.228 112.503C639.075 112.565 638.941 112.657 638.829 112.78C638.726 112.897 638.644 113.044 638.593 113.223C638.537 113.401 638.506 113.607 638.506 113.841C638.506 114.296 638.613 114.655 638.829 114.92C639.054 115.178 639.362 115.307 639.761 115.307C639.889 115.307 640.023 115.289 640.161 115.252C640.299 115.215 640.443 115.157 640.581 115.077C640.689 115.021 640.781 115.003 640.858 115.021C640.945 115.04 641.017 115.083 641.073 115.151C641.13 115.212 641.16 115.289 641.176 115.381C641.186 115.467 641.176 115.553 641.135 115.639C641.104 115.725 641.042 115.796 640.95 115.852C640.75 115.975 640.535 116.064 640.305 116.119C640.079 116.174 639.864 116.202 639.659 116.202ZM643.922 116.202C643.451 116.202 643.036 116.107 642.687 115.916C642.334 115.719 642.067 115.443 641.873 115.086C641.683 114.729 641.591 114.311 641.591 113.831C641.591 113.469 641.642 113.146 641.744 112.863C641.857 112.574 642.011 112.331 642.216 112.134C642.421 111.931 642.667 111.778 642.954 111.673C643.241 111.562 643.564 111.507 643.922 111.507C644.127 111.507 644.343 111.535 644.578 111.59C644.819 111.645 645.039 111.738 645.25 111.867C645.347 111.928 645.414 112.002 645.444 112.088C645.475 112.174 645.48 112.263 645.465 112.356C645.444 112.442 645.403 112.519 645.342 112.586C645.285 112.648 645.219 112.688 645.132 112.706C645.045 112.718 644.947 112.697 644.845 112.642C644.712 112.562 644.573 112.503 644.43 112.466C644.286 112.423 644.153 112.402 644.025 112.402C643.82 112.402 643.641 112.436 643.487 112.503C643.333 112.565 643.205 112.657 643.092 112.78C642.99 112.897 642.908 113.044 642.851 113.223C642.795 113.401 642.769 113.607 642.769 113.841C642.769 114.296 642.877 114.655 643.092 114.92C643.313 115.178 643.625 115.307 644.025 115.307C644.153 115.307 644.286 115.289 644.419 115.252C644.563 115.215 644.701 115.157 644.845 115.077C644.947 115.021 645.039 115.003 645.121 115.021C645.209 115.04 645.28 115.083 645.332 115.151C645.388 115.212 645.424 115.289 645.434 115.381C645.449 115.467 645.434 115.553 645.398 115.639C645.367 115.725 645.306 115.796 645.214 115.852C645.009 115.975 644.794 116.064 644.568 116.119C644.343 116.174 644.127 116.202 643.922 116.202ZM648.319 116.202C647.812 116.202 647.371 116.107 647.002 115.916C646.633 115.725 646.346 115.455 646.146 115.104C645.947 114.754 645.849 114.339 645.849 113.859C645.849 113.392 645.947 112.983 646.136 112.632C646.331 112.282 646.597 112.008 646.936 111.811C647.284 111.608 647.673 111.507 648.109 111.507C648.427 111.507 648.714 111.559 648.965 111.664C649.226 111.768 649.441 111.919 649.621 112.116C649.805 112.313 649.944 112.552 650.036 112.835C650.133 113.112 650.184 113.426 650.184 113.776C650.184 113.887 650.143 113.973 650.067 114.034C649.99 114.09 649.882 114.117 649.744 114.117H646.782V113.453H649.375L649.226 113.592C649.226 113.309 649.18 113.072 649.098 112.881C649.016 112.691 648.898 112.546 648.734 112.448C648.58 112.343 648.391 112.291 648.155 112.291C647.899 112.291 647.673 112.353 647.489 112.476C647.315 112.592 647.176 112.761 647.074 112.983C646.982 113.198 646.936 113.456 646.936 113.758V113.822C646.936 114.326 647.053 114.705 647.289 114.957C647.53 115.203 647.878 115.326 648.34 115.326C648.498 115.326 648.678 115.307 648.873 115.27C649.078 115.227 649.267 115.157 649.447 115.058C649.575 114.984 649.687 114.954 649.79 114.966C649.887 114.972 649.964 115.006 650.02 115.067C650.082 115.129 650.118 115.206 650.128 115.298C650.143 115.384 650.123 115.473 650.072 115.566C650.031 115.658 649.954 115.738 649.841 115.805C649.626 115.941 649.38 116.042 649.098 116.11C648.821 116.171 648.56 116.202 648.319 116.202ZM652.834 116.202C652.439 116.202 652.091 116.107 651.788 115.916C651.496 115.725 651.266 115.455 651.097 115.104C650.933 114.748 650.851 114.33 650.851 113.85C650.851 113.364 650.933 112.949 651.097 112.605C651.266 112.254 651.496 111.984 651.788 111.793C652.091 111.602 652.439 111.507 652.834 111.507C653.208 111.507 653.531 111.599 653.807 111.784C654.094 111.968 654.284 112.211 654.381 112.512H654.279V110.114C654.279 109.924 654.33 109.779 654.427 109.681C654.525 109.582 654.668 109.533 654.853 109.533C655.037 109.533 655.176 109.582 655.278 109.681C655.381 109.779 655.432 109.924 655.432 110.114V115.593C655.432 115.784 655.386 115.931 655.283 116.036C655.186 116.134 655.048 116.184 654.863 116.184C654.679 116.184 654.535 116.134 654.438 116.036C654.34 115.931 654.289 115.784 654.289 115.593V114.874L654.392 115.151C654.299 115.47 654.11 115.725 653.828 115.916C653.546 116.107 653.213 116.202 652.834 116.202ZM653.157 115.326C653.382 115.326 653.582 115.27 653.756 115.16C653.925 115.049 654.059 114.886 654.151 114.671C654.248 114.449 654.299 114.176 654.299 113.85C654.299 113.358 654.192 112.992 653.987 112.752C653.777 112.506 653.5 112.383 653.157 112.383C652.926 112.383 652.726 112.439 652.557 112.549C652.383 112.654 652.25 112.817 652.147 113.038C652.055 113.253 652.009 113.524 652.009 113.85C652.009 114.336 652.116 114.705 652.326 114.957C652.531 115.203 652.808 115.326 653.157 115.326ZM658.85 116.202C658.343 116.202 657.902 116.107 657.533 115.916C657.164 115.725 656.877 115.455 656.672 115.104C656.477 114.754 656.38 114.339 656.38 113.859C656.38 113.392 656.472 112.983 656.667 112.632C656.862 112.282 657.128 112.008 657.466 111.811C657.81 111.608 658.204 111.507 658.64 111.507C658.957 111.507 659.244 111.559 659.496 111.664C659.757 111.768 659.972 111.919 660.152 112.116C660.336 112.313 660.474 112.552 660.567 112.835C660.664 113.112 660.715 113.426 660.715 113.776C660.715 113.887 660.674 113.973 660.592 114.034C660.52 114.09 660.413 114.117 660.269 114.117H657.313V113.453H659.9L659.757 113.592C659.757 113.309 659.711 113.072 659.624 112.881C659.547 112.691 659.424 112.546 659.265 112.448C659.111 112.343 658.917 112.291 658.686 112.291C658.425 112.291 658.204 112.353 658.02 112.476C657.84 112.592 657.702 112.761 657.605 112.983C657.512 113.198 657.466 113.456 657.466 113.758V113.822C657.466 114.326 657.584 114.705 657.82 114.957C658.056 115.203 658.409 115.326 658.87 115.326C659.029 115.326 659.209 115.307 659.403 115.27C659.608 115.227 659.798 115.157 659.977 115.058C660.105 114.984 660.218 114.954 660.315 114.966C660.418 114.972 660.495 115.006 660.546 115.067C660.608 115.129 660.649 115.206 660.659 115.298C660.669 115.384 660.654 115.473 660.602 115.566C660.561 115.658 660.485 115.738 660.372 115.805C660.157 115.941 659.911 116.042 659.624 116.11C659.347 116.171 659.091 116.202 658.85 116.202ZM662.217 116.184C662.027 116.184 661.878 116.134 661.776 116.036C661.679 115.931 661.627 115.784 661.627 115.593V112.107C661.627 111.916 661.679 111.771 661.776 111.673C661.873 111.575 662.012 111.525 662.191 111.525C662.37 111.525 662.509 111.575 662.606 111.673C662.703 111.771 662.755 111.916 662.755 112.107V112.688H662.663C662.745 112.319 662.914 112.039 663.17 111.848C663.421 111.658 663.754 111.544 664.174 111.507C664.302 111.495 664.405 111.529 664.477 111.608C664.559 111.682 664.605 111.799 664.615 111.959C664.63 112.113 664.589 112.239 664.507 112.337C664.425 112.429 664.302 112.485 664.138 112.503L663.933 112.522C663.559 112.559 663.277 112.675 663.083 112.872C662.893 113.063 662.801 113.333 662.801 113.684V115.593C662.801 115.784 662.75 115.931 662.652 116.036C662.555 116.134 662.406 116.184 662.217 116.184Z" fill="#007BC7"/>
<path d="M671.154 101.249H611.71C609.729 101.249 608.123 102.855 608.123 104.836V121.234C608.123 123.215 609.729 124.821 611.71 124.821H671.154C673.135 124.821 674.741 123.215 674.741 121.234V104.836C674.741 102.855 673.135 101.249 671.154 101.249Z" stroke="#007BC7" stroke-width="2"/>
<mask id="mask4_5202_31726" style="mask-type:luminance" maskUnits="userSpaceOnUse" x="6" y="91" width="700" height="45">
<path d="M6 91H706V135.07H6V91Z" fill="#007BC7"/>
</mask>
<g mask="url(#mask4_5202_31726)">
<path d="M706 134.045H6V136.095H706V134.045Z" fill="#007BC7"/>
</g>
</g>
<path d="M43.6431 39V29.7197H45.1665V37.7051H49.1084V39H43.6431ZM56.7827 35.4707C56.7827 36.0547 56.7065 36.5731 56.5542 37.0259C56.4019 37.4787 56.1797 37.8617 55.8877 38.1748C55.5957 38.4837 55.2445 38.7207 54.834 38.8857C54.4235 39.0465 53.9601 39.127 53.4438 39.127C52.9614 39.127 52.5192 39.0465 52.1172 38.8857C51.7152 38.7207 51.366 38.4837 51.0698 38.1748C50.7778 37.8617 50.5514 37.4787 50.3906 37.0259C50.2298 36.5731 50.1494 36.0547 50.1494 35.4707C50.1494 34.6963 50.2827 34.0404 50.5493 33.5029C50.8201 32.9613 51.2052 32.5487 51.7046 32.2651C52.2039 31.9816 52.7985 31.8398 53.4883 31.8398C54.1357 31.8398 54.707 31.9816 55.2021 32.2651C55.6973 32.5487 56.0845 32.9613 56.3638 33.5029C56.6431 34.0446 56.7827 34.7005 56.7827 35.4707ZM51.6855 35.4707C51.6855 35.9827 51.7469 36.4207 51.8696 36.7847C51.9966 37.1486 52.1912 37.4279 52.4536 37.6226C52.716 37.813 53.0545 37.9082 53.4692 37.9082C53.884 37.9082 54.2225 37.813 54.4849 37.6226C54.7472 37.4279 54.9398 37.1486 55.0625 36.7847C55.1852 36.4207 55.2466 35.9827 55.2466 35.4707C55.2466 34.9587 55.1852 34.5249 55.0625 34.1694C54.9398 33.8097 54.7472 33.5368 54.4849 33.3506C54.2225 33.1602 53.8818 33.0649 53.4629 33.0649C52.8451 33.0649 52.3944 33.2723 52.1108 33.687C51.8273 34.1017 51.6855 34.6963 51.6855 35.4707ZM60.5024 42.123C59.5503 42.123 58.8203 41.9517 58.3125 41.6089C57.8047 41.2661 57.5508 40.7858 57.5508 40.168C57.5508 39.7363 57.6862 39.3703 57.957 39.0698C58.2279 38.7736 58.6151 38.5684 59.1187 38.4541C58.9282 38.3695 58.7632 38.2383 58.6235 38.0605C58.4881 37.8786 58.4204 37.6776 58.4204 37.4575C58.4204 37.1951 58.4945 36.9709 58.6426 36.7847C58.7907 36.5985 59.0129 36.4186 59.3091 36.2451C58.9409 36.0885 58.6447 35.8346 58.4204 35.4834C58.2004 35.1279 58.0903 34.7111 58.0903 34.2329C58.0903 33.7251 58.1982 33.2935 58.4141 32.938C58.6299 32.5783 58.9451 32.3053 59.3599 32.1191C59.7746 31.9287 60.276 31.8335 60.8643 31.8335C60.9912 31.8335 61.1287 31.842 61.2769 31.8589C61.4292 31.8716 61.5688 31.8885 61.6958 31.9097C61.827 31.9266 61.9264 31.9456 61.9941 31.9668H64.4253V32.7983L63.2319 33.0205C63.3462 33.1813 63.4372 33.3654 63.5049 33.5728C63.5726 33.7759 63.6064 33.998 63.6064 34.2393C63.6064 34.9671 63.3547 35.5405 62.8511 35.9595C62.3517 36.3742 61.6619 36.5815 60.7817 36.5815C60.5701 36.5731 60.3649 36.5562 60.166 36.5308C60.0137 36.6239 59.8973 36.7275 59.8169 36.8418C59.7365 36.9518 59.6963 37.0767 59.6963 37.2163C59.6963 37.3306 59.7365 37.4237 59.8169 37.4956C59.8973 37.5633 60.0158 37.6141 60.1724 37.6479C60.3332 37.6818 60.5278 37.6987 60.7563 37.6987H61.9688C62.7389 37.6987 63.3271 37.8617 63.7334 38.1875C64.1396 38.5133 64.3428 38.9915 64.3428 39.6221C64.3428 40.4219 64.0127 41.0376 63.3525 41.4692C62.6924 41.9051 61.7424 42.123 60.5024 42.123ZM60.5596 41.0757C61.0801 41.0757 61.5181 41.0249 61.8735 40.9233C62.229 40.8218 62.4977 40.6758 62.6797 40.4854C62.8617 40.2992 62.9526 40.077 62.9526 39.8188C62.9526 39.5903 62.8955 39.4147 62.7812 39.292C62.667 39.1693 62.4956 39.0846 62.2671 39.0381C62.0386 38.9915 61.755 38.9683 61.4165 38.9683H60.312C60.0369 38.9683 59.7936 39.0106 59.582 39.0952C59.3704 39.1841 59.2054 39.311 59.0869 39.4761C58.9727 39.6411 58.9155 39.84 58.9155 40.0728C58.9155 40.3944 59.0573 40.6419 59.3408 40.8154C59.6286 40.9889 60.0348 41.0757 60.5596 41.0757ZM60.8516 35.604C61.2874 35.604 61.6112 35.4855 61.8228 35.2485C62.0343 35.0073 62.1401 34.6688 62.1401 34.2329C62.1401 33.759 62.0301 33.4035 61.8101 33.1665C61.5942 32.9295 61.2726 32.811 60.8452 32.811C60.4263 32.811 60.1068 32.9316 59.8867 33.1729C59.6709 33.4141 59.563 33.7716 59.563 34.2456C59.563 34.673 59.6709 35.0073 59.8867 35.2485C60.1068 35.4855 60.4284 35.604 60.8516 35.604ZM71.9282 35.4707C71.9282 36.0547 71.8521 36.5731 71.6997 37.0259C71.5474 37.4787 71.3252 37.8617 71.0332 38.1748C70.7412 38.4837 70.39 38.7207 69.9795 38.8857C69.569 39.0465 69.1056 39.127 68.5894 39.127C68.1069 39.127 67.6647 39.0465 67.2627 38.8857C66.8607 38.7207 66.5116 38.4837 66.2153 38.1748C65.9233 37.8617 65.6969 37.4787 65.5361 37.0259C65.3753 36.5731 65.2949 36.0547 65.2949 35.4707C65.2949 34.6963 65.4282 34.0404 65.6948 33.5029C65.9657 32.9613 66.3507 32.5487 66.8501 32.2651C67.3494 31.9816 67.944 31.8398 68.6338 31.8398C69.2812 31.8398 69.8525 31.9816 70.3477 32.2651C70.8428 32.5487 71.23 32.9613 71.5093 33.5029C71.7886 34.0446 71.9282 34.7005 71.9282 35.4707ZM66.8311 35.4707C66.8311 35.9827 66.8924 36.4207 67.0151 36.7847C67.1421 37.1486 67.3368 37.4279 67.5991 37.6226C67.8615 37.813 68.2 37.9082 68.6147 37.9082C69.0295 37.9082 69.368 37.813 69.6304 37.6226C69.8927 37.4279 70.0853 37.1486 70.208 36.7847C70.3307 36.4207 70.3921 35.9827 70.3921 35.4707C70.3921 34.9587 70.3307 34.5249 70.208 34.1694C70.0853 33.8097 69.8927 33.5368 69.6304 33.3506C69.368 33.1602 69.0273 33.0649 68.6084 33.0649C67.9906 33.0649 67.5399 33.2723 67.2563 33.687C66.9728 34.1017 66.8311 34.6963 66.8311 35.4707Z" fill="#505E70"/>
<mask id="path-24-inside-1_5202_31726" fill="white">
<path d="M33 75H83V89H33V75Z"/>
</mask>
<path d="M33 75V74H32V75H33ZM83 75H84V74H83V75ZM33 76H83V74H33V76ZM82 75V89H84V75H82ZM34 89V75H32V89H34Z" fill="#FDD306" mask="url(#path-24-inside-1_5202_31726)"/>
<line x1="57.5" y1="75" x2="57.5" y2="48" stroke="#FDD306"/>
<path d="M590.512 29.7197H593.273C594.471 29.7197 595.375 29.8932 595.984 30.2402C596.593 30.5872 596.898 31.186 596.898 32.0366C596.898 32.3921 596.834 32.7137 596.708 33.0015C596.585 33.285 596.405 33.5199 596.168 33.7061C595.931 33.888 595.639 34.0107 595.292 34.0742V34.1377C595.652 34.2012 595.971 34.3133 596.25 34.4741C596.534 34.6349 596.756 34.8656 596.917 35.166C597.082 35.4665 597.165 35.8558 597.165 36.334C597.165 36.901 597.029 37.3835 596.758 37.7812C596.492 38.179 596.109 38.4816 595.609 38.689C595.114 38.8963 594.526 39 593.845 39H590.512V29.7197ZM592.036 33.5474H593.496C594.185 33.5474 594.664 33.4352 594.93 33.2109C595.197 32.9867 595.33 32.6587 595.33 32.2271C595.33 31.7869 595.171 31.4696 594.854 31.2749C594.541 31.0802 594.042 30.9829 593.356 30.9829H592.036V33.5474ZM592.036 34.7788V37.7241H593.642C594.353 37.7241 594.852 37.5866 595.14 37.3115C595.427 37.0365 595.571 36.6641 595.571 36.1943C595.571 35.9066 595.506 35.6569 595.375 35.4453C595.248 35.2337 595.038 35.0708 594.746 34.9565C594.454 34.8381 594.061 34.7788 593.565 34.7788H592.036ZM605.15 35.4707C605.15 36.0547 605.074 36.5731 604.921 37.0259C604.769 37.4787 604.547 37.8617 604.255 38.1748C603.963 38.4837 603.612 38.7207 603.201 38.8857C602.791 39.0465 602.327 39.127 601.811 39.127C601.329 39.127 600.886 39.0465 600.484 38.8857C600.082 38.7207 599.733 38.4837 599.437 38.1748C599.145 37.8617 598.919 37.4787 598.758 37.0259C598.597 36.5731 598.517 36.0547 598.517 35.4707C598.517 34.6963 598.65 34.0404 598.917 33.5029C599.187 32.9613 599.572 32.5487 600.072 32.2651C600.571 31.9816 601.166 31.8398 601.855 31.8398C602.503 31.8398 603.074 31.9816 603.569 32.2651C604.064 32.5487 604.452 32.9613 604.731 33.5029C605.01 34.0446 605.15 34.7005 605.15 35.4707ZM600.053 35.4707C600.053 35.9827 600.114 36.4207 600.237 36.7847C600.364 37.1486 600.558 37.4279 600.821 37.6226C601.083 37.813 601.422 37.9082 601.836 37.9082C602.251 37.9082 602.59 37.813 602.852 37.6226C603.114 37.4279 603.307 37.1486 603.43 36.7847C603.552 36.4207 603.614 35.9827 603.614 35.4707C603.614 34.9587 603.552 34.5249 603.43 34.1694C603.307 33.8097 603.114 33.5368 602.852 33.3506C602.59 33.1602 602.249 33.0649 601.83 33.0649C601.212 33.0649 600.762 33.2723 600.478 33.687C600.194 34.1017 600.053 34.6963 600.053 35.4707ZM609.479 37.9209C609.674 37.9209 609.866 37.904 610.057 37.8701C610.247 37.832 610.421 37.7876 610.577 37.7368V38.8667C610.412 38.9386 610.198 39 609.936 39.0508C609.674 39.1016 609.401 39.127 609.117 39.127C608.719 39.127 608.362 39.0614 608.044 38.9302C607.727 38.7948 607.475 38.5641 607.289 38.2383C607.103 37.9124 607.01 37.4618 607.01 36.8862V33.1094H606.051V32.4429L607.08 31.916L607.568 30.4116H608.508V31.9731H610.52V33.1094H608.508V36.8672C608.508 37.2227 608.597 37.4871 608.774 37.6606C608.952 37.8341 609.187 37.9209 609.479 37.9209ZM618.226 35.4707C618.226 36.0547 618.15 36.5731 617.998 37.0259C617.845 37.4787 617.623 37.8617 617.331 38.1748C617.039 38.4837 616.688 38.7207 616.277 38.8857C615.867 39.0465 615.403 39.127 614.887 39.127C614.405 39.127 613.963 39.0465 613.561 38.8857C613.159 38.7207 612.809 38.4837 612.513 38.1748C612.221 37.8617 611.995 37.4787 611.834 37.0259C611.673 36.5731 611.593 36.0547 611.593 35.4707C611.593 34.6963 611.726 34.0404 611.993 33.5029C612.264 32.9613 612.649 32.5487 613.148 32.2651C613.647 31.9816 614.242 31.8398 614.932 31.8398C615.579 31.8398 616.15 31.9816 616.646 32.2651C617.141 32.5487 617.528 32.9613 617.807 33.5029C618.086 34.0446 618.226 34.7005 618.226 35.4707ZM613.129 35.4707C613.129 35.9827 613.19 36.4207 613.313 36.7847C613.44 37.1486 613.635 37.4279 613.897 37.6226C614.159 37.813 614.498 37.9082 614.913 37.9082C615.327 37.9082 615.666 37.813 615.928 37.6226C616.191 37.4279 616.383 37.1486 616.506 36.7847C616.629 36.4207 616.69 35.9827 616.69 35.4707C616.69 34.9587 616.629 34.5249 616.506 34.1694C616.383 33.8097 616.191 33.5368 615.928 33.3506C615.666 33.1602 615.325 33.0649 614.906 33.0649C614.288 33.0649 613.838 33.2723 613.554 33.687C613.271 34.1017 613.129 34.6963 613.129 35.4707ZM617.083 29.0405V29.1675C616.982 29.2902 616.844 29.4383 616.671 29.6118C616.497 29.7811 616.309 29.9609 616.106 30.1514C615.903 30.3376 615.702 30.5174 615.503 30.6909C615.304 30.8602 615.124 31.0041 614.963 31.1226H613.967V30.9575C614.106 30.7967 614.261 30.6042 614.43 30.3799C614.604 30.1556 614.773 29.925 614.938 29.688C615.107 29.451 615.249 29.2352 615.363 29.0405H617.083ZM623.603 31.8398C624.394 31.8398 625.01 32.0451 625.45 32.4556C625.894 32.8618 626.116 33.5156 626.116 34.417V39H624.625V34.6963C624.625 34.1504 624.512 33.742 624.288 33.4712C624.064 33.1961 623.717 33.0586 623.247 33.0586C622.566 33.0586 622.092 33.2681 621.825 33.687C621.563 34.106 621.432 34.7132 621.432 35.5088V39H619.94V31.9731H621.102L621.311 32.9253H621.394C621.546 32.6799 621.734 32.4788 621.958 32.3223C622.187 32.1615 622.441 32.0409 622.72 31.9604C623.004 31.88 623.298 31.8398 623.603 31.8398ZM633.943 39.127C633.105 39.127 632.432 38.8223 631.924 38.2129C631.421 37.5993 631.169 36.6958 631.169 35.5024C631.169 34.2964 631.425 33.3844 631.937 32.7666C632.453 32.1488 633.132 31.8398 633.975 31.8398C634.33 31.8398 634.641 31.8885 634.908 31.9858C635.174 32.0789 635.403 32.2059 635.593 32.3667C635.788 32.5275 635.953 32.7074 636.088 32.9062H636.158C636.137 32.7751 636.112 32.5868 636.082 32.3413C636.057 32.0916 636.044 31.861 636.044 31.6494V29.123H637.542V39H636.374L636.107 38.0415H636.044C635.917 38.2446 635.756 38.4287 635.562 38.5938C635.371 38.7546 635.143 38.8836 634.876 38.981C634.614 39.0783 634.303 39.127 633.943 39.127ZM634.362 37.9146C635.001 37.9146 635.451 37.7305 635.714 37.3623C635.976 36.9941 636.112 36.4419 636.12 35.7056V35.5088C636.12 34.7217 635.993 34.1187 635.739 33.6997C635.485 33.2765 635.022 33.0649 634.349 33.0649C633.812 33.0649 633.401 33.2829 633.118 33.7188C632.838 34.1504 632.699 34.7534 632.699 35.5278C632.699 36.3022 632.838 36.8947 633.118 37.3052C633.401 37.7114 633.816 37.9146 634.362 37.9146ZM642.48 31.8398C643.107 31.8398 643.644 31.9689 644.093 32.2271C644.541 32.4852 644.886 32.8512 645.127 33.3252C645.369 33.7992 645.489 34.3662 645.489 35.0264V35.8262H640.798C640.815 36.5075 640.997 37.0322 641.344 37.4004C641.695 37.7686 642.186 37.9526 642.817 37.9526C643.265 37.9526 643.667 37.9103 644.023 37.8257C644.383 37.7368 644.753 37.6077 645.134 37.4385V38.6509C644.783 38.8159 644.425 38.9365 644.061 39.0127C643.697 39.0889 643.261 39.127 642.753 39.127C642.064 39.127 641.456 38.9937 640.932 38.7271C640.411 38.4562 640.003 38.0542 639.707 37.521C639.415 36.9878 639.269 36.3255 639.269 35.5342C639.269 34.7471 639.402 34.0785 639.668 33.5283C639.935 32.9782 640.31 32.5592 640.792 32.2715C641.274 31.9837 641.837 31.8398 642.48 31.8398ZM642.48 32.9634C642.011 32.9634 641.63 33.1157 641.338 33.4204C641.05 33.7251 640.881 34.1715 640.83 34.7598H644.029C644.025 34.4085 643.966 34.0975 643.852 33.8267C643.742 33.5558 643.572 33.3442 643.344 33.1919C643.119 33.0396 642.832 32.9634 642.48 32.9634ZM653.303 31.8398C654.192 31.8398 654.863 32.0366 655.315 32.4302C655.772 32.8237 656.001 33.4373 656.001 34.271V39H654.941L654.655 38.0034H654.604C654.406 38.2573 654.2 38.4668 653.989 38.6318C653.777 38.7969 653.532 38.9196 653.252 39C652.977 39.0846 652.641 39.127 652.243 39.127C651.824 39.127 651.45 39.0508 651.12 38.8984C650.79 38.7419 650.529 38.5049 650.339 38.1875C650.148 37.8701 650.053 37.4681 650.053 36.9814C650.053 36.2578 650.322 35.714 650.859 35.3501C651.401 34.9862 652.218 34.7852 653.31 34.7471L654.528 34.7026V34.3345C654.528 33.8478 654.414 33.5008 654.186 33.2935C653.961 33.0861 653.644 32.9824 653.233 32.9824C652.882 32.9824 652.542 33.0332 652.211 33.1348C651.881 33.2363 651.56 33.3612 651.247 33.5093L650.764 32.4556C651.107 32.2736 651.496 32.1255 651.932 32.0112C652.372 31.897 652.829 31.8398 653.303 31.8398ZM654.522 35.6421L653.614 35.6738C652.869 35.6992 652.347 35.8262 652.046 36.0547C651.746 36.2832 651.596 36.5964 651.596 36.9941C651.596 37.3411 651.699 37.5951 651.907 37.7559C652.114 37.9124 652.387 37.9907 652.726 37.9907C653.242 37.9907 653.669 37.8447 654.008 37.5527C654.351 37.2565 654.522 36.8228 654.522 36.2515V35.6421ZM660.92 39.127C660.256 39.127 659.681 38.9979 659.194 38.7397C658.707 38.4816 658.333 38.0859 658.07 37.5527C657.808 37.0195 657.677 36.3424 657.677 35.5215C657.677 34.6667 657.821 33.9684 658.108 33.4268C658.396 32.8851 658.794 32.4852 659.302 32.2271C659.814 31.9689 660.4 31.8398 661.06 31.8398C661.479 31.8398 661.858 31.8822 662.196 31.9668C662.539 32.0472 662.829 32.1466 663.066 32.2651L662.622 33.4585C662.363 33.3527 662.099 33.2638 661.828 33.1919C661.557 33.12 661.297 33.084 661.047 33.084C660.637 33.084 660.294 33.175 660.019 33.3569C659.748 33.5389 659.545 33.8097 659.41 34.1694C659.278 34.5291 659.213 34.9756 659.213 35.5088C659.213 36.0251 659.281 36.4609 659.416 36.8164C659.551 37.1676 659.752 37.4342 660.019 37.6162C660.286 37.7939 660.614 37.8828 661.003 37.8828C661.388 37.8828 661.733 37.8363 662.038 37.7432C662.342 37.6501 662.63 37.5295 662.901 37.3813V38.6763C662.634 38.8286 662.349 38.9408 662.044 39.0127C661.739 39.0889 661.365 39.127 660.92 39.127ZM667.382 39.127C666.718 39.127 666.142 38.9979 665.656 38.7397C665.169 38.4816 664.795 38.0859 664.532 37.5527C664.27 37.0195 664.139 36.3424 664.139 35.5215C664.139 34.6667 664.283 33.9684 664.57 33.4268C664.858 32.8851 665.256 32.4852 665.764 32.2271C666.276 31.9689 666.862 31.8398 667.522 31.8398C667.941 31.8398 668.32 31.8822 668.658 31.9668C669.001 32.0472 669.291 32.1466 669.528 32.2651L669.083 33.4585C668.825 33.3527 668.561 33.2638 668.29 33.1919C668.019 33.12 667.759 33.084 667.509 33.084C667.099 33.084 666.756 33.175 666.481 33.3569C666.21 33.5389 666.007 33.8097 665.872 34.1694C665.74 34.5291 665.675 34.9756 665.675 35.5088C665.675 36.0251 665.743 36.4609 665.878 36.8164C666.013 37.1676 666.214 37.4342 666.481 37.6162C666.748 37.7939 667.076 37.8828 667.465 37.8828C667.85 37.8828 668.195 37.8363 668.5 37.7432C668.804 37.6501 669.092 37.5295 669.363 37.3813V38.6763C669.096 38.8286 668.811 38.9408 668.506 39.0127C668.201 39.0889 667.827 39.127 667.382 39.127ZM673.812 31.8398C674.439 31.8398 674.976 31.9689 675.425 32.2271C675.873 32.4852 676.218 32.8512 676.459 33.3252C676.701 33.7992 676.821 34.3662 676.821 35.0264V35.8262H672.13C672.147 36.5075 672.329 37.0322 672.676 37.4004C673.028 37.7686 673.518 37.9526 674.149 37.9526C674.597 37.9526 675 37.9103 675.355 37.8257C675.715 37.7368 676.085 37.6077 676.466 37.4385V38.6509C676.115 38.8159 675.757 38.9365 675.393 39.0127C675.029 39.0889 674.593 39.127 674.085 39.127C673.396 39.127 672.788 38.9937 672.264 38.7271C671.743 38.4562 671.335 38.0542 671.039 37.521C670.747 36.9878 670.601 36.3255 670.601 35.5342C670.601 34.7471 670.734 34.0785 671 33.5283C671.267 32.9782 671.642 32.5592 672.124 32.2715C672.606 31.9837 673.169 31.8398 673.812 31.8398ZM673.812 32.9634C673.343 32.9634 672.962 33.1157 672.67 33.4204C672.382 33.7251 672.213 34.1715 672.162 34.7598H675.361C675.357 34.4085 675.298 34.0975 675.184 33.8267C675.074 33.5558 674.904 33.3442 674.676 33.1919C674.451 33.0396 674.164 32.9634 673.812 32.9634ZM683.226 36.9941C683.226 37.4554 683.114 37.8447 682.89 38.1621C682.665 38.4795 682.337 38.7207 681.906 38.8857C681.478 39.0465 680.954 39.127 680.332 39.127C679.841 39.127 679.417 39.091 679.062 39.019C678.711 38.9513 678.379 38.8455 678.065 38.7017V37.4131C678.4 37.5697 678.774 37.7051 679.189 37.8193C679.608 37.9336 680.004 37.9907 680.376 37.9907C680.867 37.9907 681.22 37.9146 681.436 37.7622C681.652 37.6056 681.76 37.3983 681.76 37.1401C681.76 36.9878 681.715 36.8524 681.626 36.7339C681.542 36.6112 681.381 36.4863 681.144 36.3594C680.911 36.2282 680.569 36.0716 680.116 35.8896C679.671 35.7119 679.297 35.5342 678.992 35.3564C678.688 35.1787 678.457 34.965 678.3 34.7153C678.144 34.4614 678.065 34.1377 678.065 33.7441C678.065 33.1221 678.311 32.6502 678.802 32.3286C679.297 32.0028 679.951 31.8398 680.763 31.8398C681.195 31.8398 681.601 31.8843 681.982 31.9731C682.367 32.0578 682.744 32.1826 683.112 32.3477L682.642 33.4712C682.325 33.3315 682.005 33.2173 681.684 33.1284C681.366 33.0353 681.042 32.9888 680.712 32.9888C680.327 32.9888 680.033 33.048 679.83 33.1665C679.631 33.285 679.532 33.4543 679.532 33.6743C679.532 33.8394 679.58 33.979 679.678 34.0933C679.775 34.2075 679.942 34.3218 680.179 34.436C680.42 34.5503 680.755 34.6921 681.182 34.8613C681.601 35.0221 681.963 35.1914 682.268 35.3691C682.576 35.5426 682.813 35.7563 682.979 36.0103C683.144 36.2642 683.226 36.5921 683.226 36.9941ZM691.059 35.4707C691.059 36.0547 690.983 36.5731 690.831 37.0259C690.678 37.4787 690.456 37.8617 690.164 38.1748C689.872 38.4837 689.521 38.7207 689.11 38.8857C688.7 39.0465 688.236 39.127 687.72 39.127C687.238 39.127 686.796 39.0465 686.394 38.8857C685.992 38.7207 685.642 38.4837 685.346 38.1748C685.054 37.8617 684.828 37.4787 684.667 37.0259C684.506 36.5731 684.426 36.0547 684.426 35.4707C684.426 34.6963 684.559 34.0404 684.826 33.5029C685.097 32.9613 685.482 32.5487 685.981 32.2651C686.48 31.9816 687.075 31.8398 687.765 31.8398C688.412 31.8398 688.983 31.9816 689.479 32.2651C689.974 32.5487 690.361 32.9613 690.64 33.5029C690.919 34.0446 691.059 34.7005 691.059 35.4707ZM685.962 35.4707C685.962 35.9827 686.023 36.4207 686.146 36.7847C686.273 37.1486 686.468 37.4279 686.73 37.6226C686.992 37.813 687.331 37.9082 687.746 37.9082C688.16 37.9082 688.499 37.813 688.761 37.6226C689.024 37.4279 689.216 37.1486 689.339 36.7847C689.462 36.4207 689.523 35.9827 689.523 35.4707C689.523 34.9587 689.462 34.5249 689.339 34.1694C689.216 33.8097 689.024 33.5368 688.761 33.3506C688.499 33.1602 688.158 33.0649 687.739 33.0649C687.121 33.0649 686.671 33.2723 686.387 33.687C686.104 34.1017 685.962 34.6963 685.962 35.4707Z" fill="#505E70"/>
<mask id="path-28-inside-2_5202_31726" fill="white">
<path d="M609.5 75H671.5V89H609.5V75Z"/>
</mask>
<path d="M609.5 75V74H608.5V75H609.5ZM671.5 75H672.5V74H671.5V75ZM609.5 76H671.5V74H609.5V76ZM670.5 75V89H672.5V75H670.5ZM610.5 89V75H608.5V89H610.5Z" fill="#FDD306" mask="url(#path-28-inside-2_5202_31726)"/>
<line x1="640" y1="75" x2="640" y2="48" stroke="#FDD306"/>
<path d="M67.4746 202L64.8022 194.25H64.7451C64.7578 194.423 64.7726 194.66 64.7896 194.96C64.8065 195.261 64.8213 195.583 64.834 195.925C64.8467 196.268 64.853 196.596 64.853 196.909V202H63.4692V192.72H65.6084L68.1792 200.127H68.2173L70.877 192.72H73.0098V202H71.5562V196.833C71.5562 196.549 71.5604 196.243 71.5688 195.913C71.5815 195.583 71.5942 195.269 71.6069 194.973C71.6239 194.677 71.6366 194.44 71.645 194.262H71.5942L68.8203 202H67.4746ZM78.1006 194.84C78.7269 194.84 79.2643 194.969 79.7129 195.227C80.1615 195.485 80.5063 195.851 80.7476 196.325C80.9888 196.799 81.1094 197.366 81.1094 198.026V198.826H76.4185C76.4354 199.507 76.6174 200.032 76.9644 200.4C77.3156 200.769 77.8065 200.953 78.437 200.953C78.8856 200.953 79.2876 200.91 79.6431 200.826C80.0028 200.737 80.373 200.608 80.7539 200.438V201.651C80.4027 201.816 80.0451 201.937 79.6812 202.013C79.3172 202.089 78.8813 202.127 78.3735 202.127C77.6838 202.127 77.0765 201.994 76.5518 201.727C76.0312 201.456 75.6229 201.054 75.3267 200.521C75.0347 199.988 74.8887 199.326 74.8887 198.534C74.8887 197.747 75.022 197.078 75.2886 196.528C75.5552 195.978 75.9297 195.559 76.4121 195.271C76.8945 194.984 77.4574 194.84 78.1006 194.84ZM78.1006 195.963C77.6309 195.963 77.25 196.116 76.958 196.42C76.6702 196.725 76.501 197.172 76.4502 197.76H79.6494C79.6452 197.409 79.5859 197.097 79.4717 196.827C79.3617 196.556 79.1924 196.344 78.9639 196.192C78.7396 196.04 78.4518 195.963 78.1006 195.963ZM86.4541 194.84C87.2454 194.84 87.8612 195.045 88.3013 195.456C88.7456 195.862 88.9678 196.516 88.9678 197.417V202H87.4761V197.696C87.4761 197.15 87.3639 196.742 87.1396 196.471C86.9154 196.196 86.5684 196.059 86.0986 196.059C85.4173 196.059 84.9434 196.268 84.6768 196.687C84.4144 197.106 84.2832 197.713 84.2832 198.509V202H82.7915V194.973H83.9531L84.1626 195.925H84.2451C84.3975 195.68 84.5858 195.479 84.8101 195.322C85.0386 195.161 85.2925 195.041 85.5718 194.96C85.8553 194.88 86.1494 194.84 86.4541 194.84ZM97.1816 194.973V202H96.0073L95.8042 201.054H95.7217C95.5736 201.295 95.3853 201.496 95.1567 201.657C94.9282 201.814 94.6743 201.93 94.395 202.006C94.1157 202.087 93.8216 202.127 93.5127 202.127C92.9837 202.127 92.5309 202.038 92.1543 201.86C91.7819 201.678 91.4963 201.399 91.2974 201.022C91.0985 200.646 90.999 200.159 90.999 199.562V194.973H92.4971V199.283C92.4971 199.829 92.6071 200.237 92.8271 200.508C93.0514 200.779 93.3984 200.915 93.8682 200.915C94.321 200.915 94.6807 200.821 94.9473 200.635C95.2139 200.449 95.4022 200.174 95.5122 199.81C95.6265 199.446 95.6836 199 95.6836 198.471V194.973H97.1816ZM96.293 192.041V192.167C96.1914 192.29 96.0539 192.438 95.8804 192.612C95.7069 192.781 95.5186 192.961 95.3154 193.151C95.1123 193.338 94.9113 193.517 94.7124 193.691C94.5135 193.86 94.3337 194.004 94.1729 194.123H93.1763V193.958C93.3159 193.797 93.4704 193.604 93.6396 193.38C93.8132 193.156 93.9824 192.925 94.1475 192.688C94.3167 192.451 94.4585 192.235 94.5728 192.041H96.293ZM105.059 202.127C104.221 202.127 103.548 201.822 103.041 201.213C102.537 200.599 102.285 199.696 102.285 198.502C102.285 197.296 102.541 196.384 103.053 195.767C103.569 195.149 104.249 194.84 105.091 194.84C105.446 194.84 105.757 194.889 106.024 194.986C106.291 195.079 106.519 195.206 106.709 195.367C106.904 195.528 107.069 195.707 107.205 195.906H107.274C107.253 195.775 107.228 195.587 107.198 195.341C107.173 195.092 107.16 194.861 107.16 194.649V192.123H108.658V202H107.49L107.224 201.042H107.16C107.033 201.245 106.872 201.429 106.678 201.594C106.487 201.755 106.259 201.884 105.992 201.981C105.73 202.078 105.419 202.127 105.059 202.127ZM105.478 200.915C106.117 200.915 106.568 200.73 106.83 200.362C107.092 199.994 107.228 199.442 107.236 198.706V198.509C107.236 197.722 107.109 197.119 106.855 196.7C106.602 196.277 106.138 196.065 105.465 196.065C104.928 196.065 104.517 196.283 104.234 196.719C103.955 197.15 103.815 197.753 103.815 198.528C103.815 199.302 103.955 199.895 104.234 200.305C104.517 200.711 104.932 200.915 105.478 200.915ZM113.597 194.84C114.223 194.84 114.76 194.969 115.209 195.227C115.658 195.485 116.002 195.851 116.244 196.325C116.485 196.799 116.605 197.366 116.605 198.026V198.826H111.915C111.931 199.507 112.113 200.032 112.46 200.4C112.812 200.769 113.303 200.953 113.933 200.953C114.382 200.953 114.784 200.91 115.139 200.826C115.499 200.737 115.869 200.608 116.25 200.438V201.651C115.899 201.816 115.541 201.937 115.177 202.013C114.813 202.089 114.377 202.127 113.87 202.127C113.18 202.127 112.573 201.994 112.048 201.727C111.527 201.456 111.119 201.054 110.823 200.521C110.531 199.988 110.385 199.326 110.385 198.534C110.385 197.747 110.518 197.078 110.785 196.528C111.051 195.978 111.426 195.559 111.908 195.271C112.391 194.984 112.953 194.84 113.597 194.84ZM113.597 195.963C113.127 195.963 112.746 196.116 112.454 196.42C112.166 196.725 111.997 197.172 111.946 197.76H115.146C115.141 197.409 115.082 197.097 114.968 196.827C114.858 196.556 114.688 196.344 114.46 196.192C114.236 196.04 113.948 195.963 113.597 195.963ZM123.01 199.994C123.01 200.455 122.898 200.845 122.674 201.162C122.45 201.479 122.122 201.721 121.69 201.886C121.263 202.047 120.738 202.127 120.116 202.127C119.625 202.127 119.202 202.091 118.846 202.019C118.495 201.951 118.163 201.846 117.85 201.702V200.413C118.184 200.57 118.558 200.705 118.973 200.819C119.392 200.934 119.788 200.991 120.16 200.991C120.651 200.991 121.004 200.915 121.22 200.762C121.436 200.606 121.544 200.398 121.544 200.14C121.544 199.988 121.5 199.852 121.411 199.734C121.326 199.611 121.165 199.486 120.928 199.359C120.695 199.228 120.353 199.072 119.9 198.89C119.456 198.712 119.081 198.534 118.776 198.356C118.472 198.179 118.241 197.965 118.084 197.715C117.928 197.461 117.85 197.138 117.85 196.744C117.85 196.122 118.095 195.65 118.586 195.329C119.081 195.003 119.735 194.84 120.547 194.84C120.979 194.84 121.385 194.884 121.766 194.973C122.151 195.058 122.528 195.183 122.896 195.348L122.426 196.471C122.109 196.332 121.789 196.217 121.468 196.128C121.15 196.035 120.827 195.989 120.497 195.989C120.111 195.989 119.817 196.048 119.614 196.167C119.415 196.285 119.316 196.454 119.316 196.674C119.316 196.839 119.365 196.979 119.462 197.093C119.559 197.208 119.726 197.322 119.963 197.436C120.205 197.55 120.539 197.692 120.966 197.861C121.385 198.022 121.747 198.191 122.052 198.369C122.361 198.543 122.598 198.756 122.763 199.01C122.928 199.264 123.01 199.592 123.01 199.994ZM128.228 194.84C129.062 194.84 129.73 195.145 130.234 195.754C130.742 196.363 130.996 197.269 130.996 198.471C130.996 199.266 130.877 199.937 130.64 200.483C130.407 201.025 130.079 201.435 129.656 201.714C129.237 201.989 128.749 202.127 128.19 202.127C127.834 202.127 127.526 202.08 127.263 201.987C127.001 201.894 126.777 201.774 126.59 201.625C126.404 201.473 126.248 201.308 126.121 201.13H126.032C126.053 201.3 126.072 201.488 126.089 201.695C126.11 201.898 126.121 202.085 126.121 202.254V205.117H124.623V194.973H125.841L126.051 195.944H126.121C126.252 195.745 126.41 195.561 126.597 195.392C126.787 195.223 127.016 195.09 127.282 194.992C127.553 194.891 127.868 194.84 128.228 194.84ZM127.828 196.059C127.418 196.059 127.088 196.141 126.838 196.306C126.592 196.467 126.413 196.71 126.298 197.036C126.188 197.362 126.129 197.77 126.121 198.261V198.471C126.121 198.991 126.174 199.433 126.279 199.797C126.389 200.157 126.569 200.432 126.819 200.623C127.073 200.809 127.416 200.902 127.847 200.902C128.211 200.902 128.512 200.802 128.749 200.604C128.99 200.405 129.17 200.121 129.288 199.753C129.407 199.385 129.466 198.951 129.466 198.452C129.466 197.694 129.33 197.106 129.06 196.687C128.793 196.268 128.382 196.059 127.828 196.059ZM134.22 202H132.722V192.123H134.22V202ZM139.152 194.84C139.779 194.84 140.316 194.969 140.765 195.227C141.213 195.485 141.558 195.851 141.799 196.325C142.041 196.799 142.161 197.366 142.161 198.026V198.826H137.47C137.487 199.507 137.669 200.032 138.016 200.4C138.367 200.769 138.858 200.953 139.489 200.953C139.937 200.953 140.339 200.91 140.695 200.826C141.055 200.737 141.425 200.608 141.806 200.438V201.651C141.454 201.816 141.097 201.937 140.733 202.013C140.369 202.089 139.933 202.127 139.425 202.127C138.736 202.127 138.128 201.994 137.604 201.727C137.083 201.456 136.675 201.054 136.378 200.521C136.086 199.988 135.94 199.326 135.94 198.534C135.94 197.747 136.074 197.078 136.34 196.528C136.607 195.978 136.981 195.559 137.464 195.271C137.946 194.984 138.509 194.84 139.152 194.84ZM139.152 195.963C138.683 195.963 138.302 196.116 138.01 196.42C137.722 196.725 137.553 197.172 137.502 197.76H140.701C140.697 197.409 140.638 197.097 140.523 196.827C140.413 196.556 140.244 196.344 140.016 196.192C139.791 196.04 139.504 195.963 139.152 195.963ZM145.849 205.123C144.897 205.123 144.167 204.952 143.659 204.609C143.151 204.266 142.897 203.786 142.897 203.168C142.897 202.736 143.033 202.37 143.304 202.07C143.575 201.774 143.962 201.568 144.465 201.454C144.275 201.369 144.11 201.238 143.97 201.061C143.835 200.879 143.767 200.678 143.767 200.458C143.767 200.195 143.841 199.971 143.989 199.785C144.137 199.598 144.36 199.419 144.656 199.245C144.288 199.089 143.991 198.835 143.767 198.483C143.547 198.128 143.437 197.711 143.437 197.233C143.437 196.725 143.545 196.293 143.761 195.938C143.977 195.578 144.292 195.305 144.707 195.119C145.121 194.929 145.623 194.833 146.211 194.833C146.338 194.833 146.475 194.842 146.624 194.859C146.776 194.872 146.916 194.889 147.042 194.91C147.174 194.927 147.273 194.946 147.341 194.967H149.772V195.798L148.579 196.021C148.693 196.181 148.784 196.365 148.852 196.573C148.919 196.776 148.953 196.998 148.953 197.239C148.953 197.967 148.701 198.541 148.198 198.959C147.698 199.374 147.009 199.582 146.128 199.582C145.917 199.573 145.712 199.556 145.513 199.531C145.36 199.624 145.244 199.728 145.164 199.842C145.083 199.952 145.043 200.077 145.043 200.216C145.043 200.331 145.083 200.424 145.164 200.496C145.244 200.563 145.362 200.614 145.519 200.648C145.68 200.682 145.875 200.699 146.103 200.699H147.315C148.086 200.699 148.674 200.862 149.08 201.188C149.486 201.513 149.689 201.992 149.689 202.622C149.689 203.422 149.359 204.038 148.699 204.469C148.039 204.905 147.089 205.123 145.849 205.123ZM145.906 204.076C146.427 204.076 146.865 204.025 147.22 203.923C147.576 203.822 147.844 203.676 148.026 203.485C148.208 203.299 148.299 203.077 148.299 202.819C148.299 202.59 148.242 202.415 148.128 202.292C148.014 202.169 147.842 202.085 147.614 202.038C147.385 201.992 147.102 201.968 146.763 201.968H145.659C145.384 201.968 145.14 202.011 144.929 202.095C144.717 202.184 144.552 202.311 144.434 202.476C144.319 202.641 144.262 202.84 144.262 203.073C144.262 203.394 144.404 203.642 144.688 203.815C144.975 203.989 145.382 204.076 145.906 204.076ZM146.198 198.604C146.634 198.604 146.958 198.486 147.169 198.249C147.381 198.007 147.487 197.669 147.487 197.233C147.487 196.759 147.377 196.403 147.157 196.167C146.941 195.93 146.619 195.811 146.192 195.811C145.773 195.811 145.453 195.932 145.233 196.173C145.018 196.414 144.91 196.772 144.91 197.246C144.91 197.673 145.018 198.007 145.233 198.249C145.453 198.486 145.775 198.604 146.198 198.604ZM153.809 194.84C154.698 194.84 155.368 195.037 155.821 195.43C156.278 195.824 156.507 196.437 156.507 197.271V202H155.447L155.161 201.003H155.11C154.911 201.257 154.706 201.467 154.495 201.632C154.283 201.797 154.038 201.92 153.758 202C153.483 202.085 153.147 202.127 152.749 202.127C152.33 202.127 151.956 202.051 151.625 201.898C151.295 201.742 151.035 201.505 150.845 201.188C150.654 200.87 150.559 200.468 150.559 199.981C150.559 199.258 150.828 198.714 151.365 198.35C151.907 197.986 152.724 197.785 153.815 197.747L155.034 197.703V197.334C155.034 196.848 154.92 196.501 154.691 196.293C154.467 196.086 154.15 195.982 153.739 195.982C153.388 195.982 153.047 196.033 152.717 196.135C152.387 196.236 152.066 196.361 151.752 196.509L151.27 195.456C151.613 195.274 152.002 195.125 152.438 195.011C152.878 194.897 153.335 194.84 153.809 194.84ZM155.028 198.642L154.12 198.674C153.375 198.699 152.853 198.826 152.552 199.055C152.252 199.283 152.102 199.596 152.102 199.994C152.102 200.341 152.205 200.595 152.413 200.756C152.62 200.912 152.893 200.991 153.231 200.991C153.748 200.991 154.175 200.845 154.514 200.553C154.856 200.257 155.028 199.823 155.028 199.251V198.642ZM160.087 192.123V194.503C160.087 194.778 160.078 195.049 160.062 195.316C160.049 195.578 160.036 195.784 160.023 195.932H160.087C160.277 195.627 160.542 195.371 160.88 195.164C161.223 194.952 161.661 194.846 162.194 194.846C163.028 194.846 163.699 195.153 164.207 195.767C164.714 196.376 164.968 197.279 164.968 198.477C164.968 199.273 164.852 199.941 164.619 200.483C164.386 201.025 164.058 201.435 163.635 201.714C163.216 201.989 162.723 202.127 162.156 202.127C161.623 202.127 161.191 202.03 160.861 201.835C160.535 201.636 160.279 201.405 160.093 201.143H159.985L159.712 202H158.595V192.123H160.087ZM161.801 196.059C161.378 196.059 161.041 196.143 160.792 196.312C160.546 196.482 160.368 196.736 160.258 197.074C160.148 197.409 160.091 197.834 160.087 198.35V198.483C160.087 199.266 160.21 199.865 160.455 200.28C160.705 200.694 161.158 200.902 161.813 200.902C162.334 200.902 162.734 200.692 163.013 200.273C163.292 199.85 163.432 199.245 163.432 198.458C163.432 197.662 163.292 197.064 163.013 196.662C162.738 196.26 162.334 196.059 161.801 196.059ZM168.193 202H166.695V192.123H168.193V202ZM173.125 194.84C173.751 194.84 174.289 194.969 174.737 195.227C175.186 195.485 175.531 195.851 175.772 196.325C176.013 196.799 176.134 197.366 176.134 198.026V198.826H171.443C171.46 199.507 171.642 200.032 171.989 200.4C172.34 200.769 172.831 200.953 173.461 200.953C173.91 200.953 174.312 200.91 174.667 200.826C175.027 200.737 175.397 200.608 175.778 200.438V201.651C175.427 201.816 175.069 201.937 174.706 202.013C174.342 202.089 173.906 202.127 173.398 202.127C172.708 202.127 172.101 201.994 171.576 201.727C171.056 201.456 170.647 201.054 170.351 200.521C170.059 199.988 169.913 199.326 169.913 198.534C169.913 197.747 170.046 197.078 170.313 196.528C170.58 195.978 170.954 195.559 171.437 195.271C171.919 194.984 172.482 194.84 173.125 194.84ZM173.125 195.963C172.655 195.963 172.274 196.116 171.982 196.42C171.695 196.725 171.525 197.172 171.475 197.76H174.674C174.67 197.409 174.61 197.097 174.496 196.827C174.386 196.556 174.217 196.344 173.988 196.192C173.764 196.04 173.476 195.963 173.125 195.963Z" fill="#505E70"/>
<mask id="path-32-inside-3_5202_31726" fill="white">
<path d="M92.75 156H146.25V142H92.75V156Z"/>
</mask>
<path d="M92.75 156V157H91.75V156H92.75ZM146.25 156H147.25V157H146.25V156ZM92.75 155H146.25V157H92.75V155ZM145.25 156V142H147.25V156H145.25ZM93.75 142V156H91.75V142H93.75Z" fill="#FDD306" mask="url(#path-32-inside-3_5202_31726)"/>
<line y1="-0.5" x2="27" y2="-0.5" transform="matrix(0 1 1 0 119.866 156)" stroke="#FDD306"/>
<path d="M484.31 192.72H487.071C488.269 192.72 489.172 192.893 489.782 193.24C490.391 193.587 490.696 194.186 490.696 195.037C490.696 195.392 490.632 195.714 490.505 196.001C490.383 196.285 490.203 196.52 489.966 196.706C489.729 196.888 489.437 197.011 489.09 197.074V197.138C489.45 197.201 489.769 197.313 490.048 197.474C490.332 197.635 490.554 197.866 490.715 198.166C490.88 198.466 490.962 198.856 490.962 199.334C490.962 199.901 490.827 200.383 490.556 200.781C490.29 201.179 489.907 201.482 489.407 201.689C488.912 201.896 488.324 202 487.643 202H484.31V192.72ZM485.833 196.547H487.293C487.983 196.547 488.461 196.435 488.728 196.211C488.995 195.987 489.128 195.659 489.128 195.227C489.128 194.787 488.969 194.47 488.652 194.275C488.339 194.08 487.839 193.983 487.154 193.983H485.833V196.547ZM485.833 197.779V200.724H487.439C488.15 200.724 488.65 200.587 488.938 200.312C489.225 200.036 489.369 199.664 489.369 199.194C489.369 198.907 489.304 198.657 489.172 198.445C489.045 198.234 488.836 198.071 488.544 197.957C488.252 197.838 487.858 197.779 487.363 197.779H485.833ZM498.853 194.973V202H497.678L497.475 201.054H497.393C497.244 201.295 497.056 201.496 496.828 201.657C496.599 201.814 496.345 201.93 496.066 202.006C495.787 202.087 495.493 202.127 495.184 202.127C494.655 202.127 494.202 202.038 493.825 201.86C493.453 201.678 493.167 201.399 492.968 201.022C492.769 200.646 492.67 200.159 492.67 199.562V194.973H494.168V199.283C494.168 199.829 494.278 200.237 494.498 200.508C494.722 200.779 495.069 200.915 495.539 200.915C495.992 200.915 496.352 200.821 496.618 200.635C496.885 200.449 497.073 200.174 497.183 199.81C497.297 199.446 497.354 199 497.354 198.471V194.973H498.853ZM505.714 199.994C505.714 200.455 505.602 200.845 505.378 201.162C505.154 201.479 504.826 201.721 504.394 201.886C503.967 202.047 503.442 202.127 502.82 202.127C502.329 202.127 501.906 202.091 501.55 202.019C501.199 201.951 500.867 201.846 500.554 201.702V200.413C500.888 200.57 501.263 200.705 501.677 200.819C502.096 200.934 502.492 200.991 502.864 200.991C503.355 200.991 503.708 200.915 503.924 200.762C504.14 200.606 504.248 200.398 504.248 200.14C504.248 199.988 504.204 199.852 504.115 199.734C504.03 199.611 503.869 199.486 503.632 199.359C503.4 199.228 503.057 199.072 502.604 198.89C502.16 198.712 501.785 198.534 501.48 198.356C501.176 198.179 500.945 197.965 500.789 197.715C500.632 197.461 500.554 197.138 500.554 196.744C500.554 196.122 500.799 195.65 501.29 195.329C501.785 195.003 502.439 194.84 503.251 194.84C503.683 194.84 504.089 194.884 504.47 194.973C504.855 195.058 505.232 195.183 505.6 195.348L505.13 196.471C504.813 196.332 504.493 196.217 504.172 196.128C503.854 196.035 503.531 195.989 503.201 195.989C502.816 195.989 502.521 196.048 502.318 196.167C502.119 196.285 502.02 196.454 502.02 196.674C502.02 196.839 502.069 196.979 502.166 197.093C502.263 197.208 502.431 197.322 502.667 197.436C502.909 197.55 503.243 197.692 503.67 197.861C504.089 198.022 504.451 198.191 504.756 198.369C505.065 198.543 505.302 198.756 505.467 199.01C505.632 199.264 505.714 199.592 505.714 199.994ZM510.158 202.127C509.493 202.127 508.918 201.998 508.431 201.74C507.944 201.482 507.57 201.086 507.308 200.553C507.045 200.02 506.914 199.342 506.914 198.521C506.914 197.667 507.058 196.968 507.346 196.427C507.633 195.885 508.031 195.485 508.539 195.227C509.051 194.969 509.637 194.84 510.297 194.84C510.716 194.84 511.095 194.882 511.434 194.967C511.776 195.047 512.066 195.147 512.303 195.265L511.859 196.458C511.601 196.353 511.336 196.264 511.065 196.192C510.795 196.12 510.534 196.084 510.285 196.084C509.874 196.084 509.531 196.175 509.256 196.357C508.986 196.539 508.782 196.81 508.647 197.169C508.516 197.529 508.45 197.976 508.45 198.509C508.45 199.025 508.518 199.461 508.653 199.816C508.789 200.168 508.99 200.434 509.256 200.616C509.523 200.794 509.851 200.883 510.24 200.883C510.625 200.883 510.97 200.836 511.275 200.743C511.58 200.65 511.867 200.529 512.138 200.381V201.676C511.872 201.829 511.586 201.941 511.281 202.013C510.977 202.089 510.602 202.127 510.158 202.127ZM516.543 194.84C517.432 194.84 518.103 195.037 518.556 195.43C519.013 195.824 519.241 196.437 519.241 197.271V202H518.181L517.896 201.003H517.845C517.646 201.257 517.441 201.467 517.229 201.632C517.017 201.797 516.772 201.92 516.493 202C516.218 202.085 515.881 202.127 515.483 202.127C515.064 202.127 514.69 202.051 514.36 201.898C514.03 201.742 513.77 201.505 513.579 201.188C513.389 200.87 513.293 200.468 513.293 199.981C513.293 199.258 513.562 198.714 514.1 198.35C514.641 197.986 515.458 197.785 516.55 197.747L517.769 197.703V197.334C517.769 196.848 517.654 196.501 517.426 196.293C517.201 196.086 516.884 195.982 516.474 195.982C516.122 195.982 515.782 196.033 515.452 196.135C515.122 196.236 514.8 196.361 514.487 196.509L514.004 195.456C514.347 195.274 514.736 195.125 515.172 195.011C515.612 194.897 516.069 194.84 516.543 194.84ZM517.762 198.642L516.854 198.674C516.11 198.699 515.587 198.826 515.287 199.055C514.986 199.283 514.836 199.596 514.836 199.994C514.836 200.341 514.94 200.595 515.147 200.756C515.354 200.912 515.627 200.991 515.966 200.991C516.482 200.991 516.91 200.845 517.248 200.553C517.591 200.257 517.762 199.823 517.762 199.251V198.642ZM523.691 202.127C522.853 202.127 522.18 201.822 521.672 201.213C521.169 200.599 520.917 199.696 520.917 198.502C520.917 197.296 521.173 196.384 521.685 195.767C522.201 195.149 522.881 194.84 523.723 194.84C524.078 194.84 524.389 194.889 524.656 194.986C524.922 195.079 525.151 195.206 525.341 195.367C525.536 195.528 525.701 195.707 525.836 195.906H525.906C525.885 195.775 525.86 195.587 525.83 195.341C525.805 195.092 525.792 194.861 525.792 194.649V192.123H527.29V202H526.122L525.855 201.042H525.792C525.665 201.245 525.504 201.429 525.31 201.594C525.119 201.755 524.891 201.884 524.624 201.981C524.362 202.078 524.051 202.127 523.691 202.127ZM524.11 200.915C524.749 200.915 525.2 200.73 525.462 200.362C525.724 199.994 525.86 199.442 525.868 198.706V198.509C525.868 197.722 525.741 197.119 525.487 196.7C525.233 196.277 524.77 196.065 524.097 196.065C523.56 196.065 523.149 196.283 522.866 196.719C522.586 197.15 522.447 197.753 522.447 198.528C522.447 199.302 522.586 199.895 522.866 200.305C523.149 200.711 523.564 200.915 524.11 200.915ZM535.65 198.471C535.65 199.055 535.574 199.573 535.421 200.026C535.269 200.479 535.047 200.862 534.755 201.175C534.463 201.484 534.112 201.721 533.701 201.886C533.291 202.047 532.827 202.127 532.311 202.127C531.829 202.127 531.386 202.047 530.984 201.886C530.582 201.721 530.233 201.484 529.937 201.175C529.645 200.862 529.419 200.479 529.258 200.026C529.097 199.573 529.017 199.055 529.017 198.471C529.017 197.696 529.15 197.04 529.417 196.503C529.687 195.961 530.072 195.549 530.572 195.265C531.071 194.982 531.666 194.84 532.355 194.84C533.003 194.84 533.574 194.982 534.069 195.265C534.564 195.549 534.952 195.961 535.231 196.503C535.51 197.045 535.65 197.701 535.65 198.471ZM530.553 198.471C530.553 198.983 530.614 199.421 530.737 199.785C530.864 200.149 531.058 200.428 531.321 200.623C531.583 200.813 531.922 200.908 532.336 200.908C532.751 200.908 533.09 200.813 533.352 200.623C533.614 200.428 533.807 200.149 533.93 199.785C534.052 199.421 534.114 198.983 534.114 198.471C534.114 197.959 534.052 197.525 533.93 197.169C533.807 196.81 533.614 196.537 533.352 196.351C533.09 196.16 532.749 196.065 532.33 196.065C531.712 196.065 531.262 196.272 530.978 196.687C530.694 197.102 530.553 197.696 530.553 198.471ZM540.925 194.84C541.043 194.84 541.172 194.846 541.312 194.859C541.452 194.872 541.572 194.889 541.674 194.91L541.534 196.306C541.445 196.281 541.335 196.262 541.204 196.249C541.077 196.236 540.963 196.23 540.861 196.23C540.595 196.23 540.341 196.274 540.1 196.363C539.858 196.448 539.645 196.579 539.458 196.757C539.272 196.93 539.126 197.148 539.021 197.411C538.915 197.673 538.862 197.978 538.862 198.325V202H537.364V194.973H538.532L538.735 196.211H538.805C538.944 195.961 539.118 195.733 539.325 195.525C539.533 195.318 539.77 195.153 540.036 195.03C540.307 194.903 540.603 194.84 540.925 194.84Z" fill="#505E70"/>
<mask id="path-36-inside-4_5202_31726" fill="white">
<path d="M425 156H600V142H425V156Z"/>
</mask>
<path d="M425 156V157H424V156H425ZM600 156H601V157H600V156ZM425 155H600V157H425V155ZM599 156V142H601V156H599ZM426 142V156H424V142H426Z" fill="#FDD306" mask="url(#path-36-inside-4_5202_31726)"/>
<line y1="-0.5" x2="27" y2="-0.5" transform="matrix(0 1 1 0 512.5 156)" stroke="#FDD306"/>
<rect x="1" y="1" width="710" height="229" rx="7" stroke="#E6EBF0" stroke-width="2"/>
<defs>
<clipPath id="clip0_5202_31726">
<rect width="700" height="44.0703" fill="white" transform="translate(6 91)"/>
</clipPath>
</defs>
</svg>
