<svg width="712" height="249" viewBox="0 0 712 249" fill="none" xmlns="http://www.w3.org/2000/svg">
<rect x="1" y="1" width="710" height="247" rx="7" fill="white"/>
<g clip-path="url(#clip0_5202_31908)">
<path d="M6 109H706V153.07H6V109Z" fill="white"/>
<mask id="mask0_5202_31908" style="mask-type:luminance" maskUnits="userSpaceOnUse" x="37" y="119" width="43" height="23">
<path d="M79.7152 119.467H37.8484V141.987H79.7152V119.467Z" fill="white"/>
</mask>
<g mask="url(#mask0_5202_31908)">
<path d="M79.3083 137.303L71.2783 121.787C70.5855 120.409 69.1665 119.467 67.5195 119.467H67.5154C65.87 119.467 64.449 120.409 63.7561 121.787L58.1039 132.708C57.473 131.585 56.4666 130.704 55.2521 130.228C56.6076 129.247 57.491 127.649 57.491 125.847C57.491 123.758 56.3039 121.95 54.5693 121.052C53.0411 120.249 51.2965 119.794 49.4469 119.794H40.9921C39.2536 119.794 37.8484 121.199 37.8484 122.934V138.668C37.8484 140.403 39.2536 141.808 40.9921 141.808H50.1355C51.8979 141.808 53.575 141.443 55.0972 140.792L55.6768 140.512C55.7085 140.496 55.7403 140.48 55.772 140.465C56.3218 141.376 57.3162 141.989 58.461 141.989C59.7334 141.989 60.829 141.235 61.323 140.145C61.569 139.569 62.125 139.163 62.7799 139.131H72.253C72.9099 139.163 73.4634 139.569 73.7094 140.145C74.2018 141.235 75.2995 141.989 76.5714 141.989C78.308 141.989 79.7132 140.58 79.7132 138.851C79.7132 138.287 79.5681 137.759 79.3063 137.305" fill="#FFD305"/>
</g>
<path d="M139.236 118.224H97.2153C94.6679 118.224 92.6033 120.289 92.6033 122.836V139.234C92.6033 141.781 94.6679 143.846 97.2153 143.846H139.236C141.783 143.846 143.848 141.781 143.848 139.234V122.836C143.848 120.289 141.783 118.224 139.236 118.224Z" fill="white"/>
<path d="M100.436 134.174C100.326 134.174 100.24 134.144 100.178 134.082C100.117 134.014 100.086 133.922 100.086 133.805V127.911C100.086 127.788 100.117 127.696 100.178 127.635C100.24 127.573 100.326 127.542 100.436 127.542C100.535 127.542 100.612 127.564 100.667 127.607C100.729 127.644 100.784 127.708 100.833 127.801L103.36 132.56H103.084L105.602 127.801C105.651 127.708 105.703 127.644 105.759 127.607C105.814 127.564 105.894 127.542 105.999 127.542C106.103 127.542 106.186 127.573 106.248 127.635C106.309 127.696 106.34 127.788 106.34 127.911V133.805C106.34 133.922 106.309 134.014 106.248 134.082C106.192 134.144 106.106 134.174 105.989 134.174C105.879 134.174 105.793 134.144 105.731 134.082C105.67 134.014 105.639 133.922 105.639 133.805V128.622H105.86L103.554 132.948C103.511 133.028 103.465 133.086 103.416 133.123C103.373 133.154 103.308 133.169 103.222 133.169C103.136 133.169 103.068 133.15 103.019 133.114C102.97 133.077 102.927 133.021 102.89 132.948L100.556 128.612H100.778V133.805C100.778 133.922 100.747 134.014 100.685 134.082C100.63 134.144 100.547 134.174 100.436 134.174ZM109.877 134.193C109.403 134.193 108.994 134.101 108.65 133.916C108.312 133.725 108.047 133.458 107.857 133.114C107.672 132.769 107.58 132.357 107.58 131.878C107.58 131.41 107.672 131.004 107.857 130.66C108.041 130.31 108.293 130.036 108.613 129.839C108.939 129.642 109.314 129.544 109.738 129.544C110.04 129.544 110.31 129.596 110.55 129.701C110.79 129.799 110.993 129.944 111.159 130.134C111.331 130.325 111.46 130.555 111.546 130.826C111.638 131.097 111.685 131.401 111.685 131.739C111.685 131.838 111.657 131.911 111.602 131.961C111.546 132.004 111.466 132.025 111.362 132.025H108.152V131.536H111.187L111.039 131.656C111.039 131.324 110.99 131.044 110.891 130.817C110.793 130.583 110.648 130.405 110.458 130.282C110.273 130.159 110.04 130.097 109.757 130.097C109.443 130.097 109.176 130.171 108.954 130.319C108.739 130.46 108.576 130.66 108.465 130.918C108.355 131.17 108.299 131.466 108.299 131.804V131.859C108.299 132.425 108.435 132.855 108.705 133.15C108.982 133.446 109.372 133.593 109.877 133.593C110.086 133.593 110.292 133.566 110.495 133.51C110.704 133.455 110.907 133.363 111.104 133.234C111.19 133.178 111.266 133.154 111.334 133.16C111.408 133.16 111.466 133.181 111.509 133.224C111.552 133.261 111.58 133.31 111.592 133.372C111.611 133.427 111.605 133.489 111.574 133.556C111.549 133.624 111.497 133.682 111.417 133.732C111.214 133.879 110.974 133.993 110.698 134.073C110.421 134.153 110.147 134.193 109.877 134.193ZM113.135 134.174C113.012 134.174 112.92 134.141 112.859 134.073C112.797 134.005 112.766 133.91 112.766 133.787V129.941C112.766 129.818 112.797 129.725 112.859 129.664C112.92 129.596 113.009 129.562 113.126 129.562C113.243 129.562 113.332 129.596 113.394 129.664C113.461 129.725 113.495 129.818 113.495 129.941V130.734L113.394 130.623C113.523 130.266 113.732 129.999 114.021 129.821C114.316 129.636 114.654 129.544 115.035 129.544C115.392 129.544 115.687 129.608 115.921 129.738C116.161 129.867 116.339 130.064 116.456 130.328C116.573 130.586 116.631 130.915 116.631 131.315V133.787C116.631 133.91 116.597 134.005 116.53 134.073C116.468 134.141 116.379 134.174 116.262 134.174C116.139 134.174 116.044 134.141 115.976 134.073C115.915 134.005 115.884 133.91 115.884 133.787V131.361C115.884 130.943 115.801 130.638 115.635 130.448C115.475 130.251 115.217 130.153 114.86 130.153C114.448 130.153 114.119 130.282 113.873 130.54C113.633 130.792 113.514 131.13 113.514 131.555V133.787C113.514 134.045 113.387 134.174 113.135 134.174ZM119.595 134.193C119.232 134.193 118.931 134.128 118.691 133.999C118.458 133.864 118.279 133.664 118.156 133.4C118.039 133.135 117.981 132.806 117.981 132.413V129.941C117.981 129.811 118.012 129.716 118.073 129.655C118.141 129.593 118.233 129.562 118.35 129.562C118.473 129.562 118.565 129.593 118.627 129.655C118.694 129.716 118.728 129.811 118.728 129.941V132.403C118.728 132.797 118.808 133.092 118.968 133.289C119.134 133.479 119.392 133.575 119.743 133.575C120.124 133.575 120.435 133.446 120.674 133.187C120.914 132.929 121.034 132.591 121.034 132.173V129.941C121.034 129.811 121.065 129.716 121.126 129.655C121.194 129.593 121.289 129.562 121.412 129.562C121.529 129.562 121.618 129.593 121.68 129.655C121.747 129.716 121.781 129.811 121.781 129.941V133.787C121.781 134.045 121.661 134.174 121.422 134.174C121.305 134.174 121.213 134.141 121.145 134.073C121.083 134.005 121.053 133.91 121.053 133.787V132.948L121.173 133.077C121.05 133.44 120.847 133.716 120.564 133.907C120.287 134.097 119.964 134.193 119.595 134.193ZM120.204 128.972C120.161 129.034 120.109 129.07 120.047 129.083C119.986 129.089 119.927 129.08 119.872 129.055C119.817 129.024 119.777 128.981 119.752 128.926C119.727 128.871 119.734 128.806 119.77 128.732L120.545 127.229C120.588 127.143 120.644 127.087 120.711 127.063C120.779 127.038 120.847 127.035 120.914 127.053C120.988 127.066 121.05 127.096 121.099 127.146C121.148 127.195 121.176 127.253 121.182 127.321C121.194 127.389 121.176 127.459 121.126 127.533L120.204 128.972Z" fill="#38485C"/>
<mask id="mask1_5202_31908" style="mask-type:luminance" maskUnits="userSpaceOnUse" x="124" y="124" width="14" height="14">
<path d="M137.186 124.886H124.887V137.184H137.186V124.886Z" fill="white"/>
</mask>
<g mask="url(#mask1_5202_31908)">
<path d="M129.048 129.646L131.037 131.635L133.025 129.646C133.225 129.447 133.547 129.447 133.747 129.646C133.947 129.846 133.947 130.169 133.747 130.369L131.395 132.721C131.195 132.921 130.873 132.921 130.673 132.721L128.321 130.369C128.121 130.169 128.121 129.846 128.321 129.646C128.52 129.452 128.848 129.447 129.048 129.646Z" fill="#38485C"/>
</g>
<path d="M139.236 118.224H97.2153C94.6679 118.224 92.6033 120.289 92.6033 122.836V139.234C92.6033 141.781 94.6679 143.846 97.2153 143.846H139.236C141.783 143.846 143.848 141.781 143.848 139.234V122.836C143.848 120.289 141.783 118.224 139.236 118.224Z" stroke="#E6EBF0" stroke-width="2"/>
<mask id="mask2_5202_31908" style="mask-type:luminance" maskUnits="userSpaceOnUse" x="444" y="118" width="175" height="26">
<path d="M614.272 118.736H448.24C445.976 118.736 444.141 120.572 444.141 122.836V139.234C444.141 141.498 445.976 143.334 448.24 143.334H614.272C616.537 143.334 618.372 141.498 618.372 139.234V122.836C618.372 120.572 616.537 118.736 614.272 118.736Z" fill="white"/>
</mask>
<g mask="url(#mask2_5202_31908)">
<path d="M614.272 118.224H448.24C445.693 118.224 443.628 120.289 443.628 122.836V139.234C443.628 141.781 445.693 143.846 448.24 143.846H614.272C616.82 143.846 618.884 141.781 618.884 139.234V122.836C618.884 120.289 616.82 118.224 614.272 118.224Z" fill="#F3F6F9"/>
<path d="M453.14 128.257H454.798C455.529 128.257 456.079 128.366 456.447 128.585C456.815 128.804 457 129.176 457 129.702C457 129.929 456.956 130.133 456.868 130.315C456.782 130.493 456.657 130.641 456.492 130.759C456.326 130.876 456.122 130.958 455.879 131.003V131.043C456.135 131.083 456.362 131.157 456.559 131.263C456.757 131.37 456.912 131.52 457.024 131.712C457.136 131.904 457.192 132.148 457.192 132.444C457.192 132.805 457.108 133.109 456.94 133.357C456.774 133.605 456.539 133.794 456.235 133.922C455.931 134.047 455.571 134.11 455.154 134.11H453.14V128.257ZM453.821 130.767H454.942C455.452 130.767 455.804 130.683 455.999 130.515C456.196 130.346 456.295 130.101 456.295 129.778C456.295 129.444 456.178 129.204 455.943 129.057C455.711 128.911 455.34 128.837 454.83 128.837H453.821V130.767ZM453.821 131.339V133.529H455.038C455.558 133.529 455.927 133.428 456.143 133.225C456.359 133.02 456.467 132.743 456.467 132.396C456.467 132.175 456.418 131.985 456.319 131.828C456.223 131.67 456.066 131.55 455.847 131.468C455.631 131.382 455.341 131.339 454.978 131.339H453.821ZM461.964 129.722V134.11H461.42L461.323 133.493H461.287C461.197 133.645 461.079 133.774 460.935 133.878C460.791 133.982 460.628 134.059 460.447 134.11C460.268 134.163 460.077 134.19 459.874 134.19C459.527 134.19 459.236 134.134 459.001 134.022C458.767 133.91 458.589 133.736 458.469 133.501C458.352 133.266 458.293 132.965 458.293 132.596V129.722H458.966V132.548C458.966 132.914 459.048 133.188 459.214 133.369C459.379 133.548 459.631 133.637 459.971 133.637C460.296 133.637 460.555 133.576 460.747 133.453C460.942 133.33 461.082 133.15 461.168 132.913C461.253 132.673 461.296 132.379 461.296 132.032V129.722H461.964ZM466.207 132.909C466.207 133.189 466.137 133.425 465.995 133.617C465.857 133.807 465.657 133.95 465.395 134.046C465.136 134.142 464.826 134.19 464.466 134.19C464.159 134.19 463.894 134.166 463.669 134.118C463.445 134.07 463.249 134.002 463.081 133.914V133.301C463.26 133.389 463.474 133.469 463.722 133.541C463.97 133.613 464.223 133.649 464.482 133.649C464.861 133.649 465.136 133.588 465.307 133.465C465.478 133.342 465.563 133.176 465.563 132.965C465.563 132.845 465.528 132.739 465.459 132.649C465.392 132.555 465.279 132.466 465.119 132.38C464.959 132.292 464.737 132.196 464.454 132.092C464.174 131.985 463.931 131.88 463.726 131.776C463.523 131.669 463.365 131.54 463.253 131.387C463.144 131.235 463.089 131.038 463.089 130.795C463.089 130.424 463.238 130.14 463.538 129.942C463.839 129.742 464.234 129.642 464.722 129.642C464.987 129.642 465.233 129.669 465.463 129.722C465.695 129.773 465.911 129.842 466.112 129.93L465.888 130.463C465.706 130.385 465.513 130.32 465.307 130.266C465.102 130.213 464.892 130.186 464.678 130.186C464.371 130.186 464.135 130.237 463.97 130.339C463.807 130.44 463.726 130.579 463.726 130.755C463.726 130.891 463.763 131.003 463.838 131.091C463.915 131.179 464.038 131.262 464.206 131.339C464.374 131.417 464.596 131.508 464.871 131.612C465.146 131.713 465.383 131.818 465.583 131.928C465.783 132.035 465.937 132.165 466.043 132.32C466.153 132.472 466.207 132.669 466.207 132.909ZM469.034 134.19C468.639 134.19 468.291 134.108 467.989 133.946C467.688 133.783 467.453 133.535 467.285 133.201C467.117 132.867 467.033 132.447 467.033 131.94C467.033 131.409 467.121 130.975 467.297 130.639C467.475 130.3 467.721 130.049 468.033 129.886C468.345 129.723 468.701 129.642 469.098 129.642C469.317 129.642 469.528 129.665 469.731 129.71C469.937 129.753 470.105 129.807 470.235 129.874L470.035 130.431C469.902 130.377 469.747 130.329 469.571 130.286C469.397 130.244 469.234 130.222 469.082 130.222C468.778 130.222 468.524 130.288 468.322 130.419C468.121 130.549 467.971 130.742 467.869 130.995C467.77 131.249 467.721 131.561 467.721 131.932C467.721 132.287 467.769 132.59 467.865 132.841C467.964 133.092 468.109 133.284 468.301 133.417C468.497 133.548 468.739 133.613 469.03 133.613C469.262 133.613 469.472 133.589 469.659 133.541C469.845 133.491 470.015 133.432 470.167 133.365V133.958C470.021 134.032 469.856 134.09 469.675 134.13C469.496 134.17 469.282 134.19 469.034 134.19ZM472.849 129.65C473.372 129.65 473.761 129.767 474.015 130.002C474.268 130.237 474.395 130.612 474.395 131.127V134.11H473.911L473.782 133.461H473.75C473.628 133.621 473.5 133.756 473.366 133.866C473.233 133.972 473.078 134.054 472.902 134.11C472.728 134.163 472.515 134.19 472.261 134.19C471.994 134.19 471.757 134.143 471.548 134.05C471.343 133.956 471.18 133.815 471.06 133.625C470.942 133.436 470.884 133.196 470.884 132.905C470.884 132.467 471.057 132.131 471.404 131.896C471.751 131.661 472.279 131.533 472.99 131.512L473.746 131.48V131.211C473.746 130.832 473.665 130.567 473.502 130.415C473.339 130.262 473.11 130.186 472.813 130.186C472.584 130.186 472.365 130.22 472.157 130.286C471.949 130.353 471.751 130.432 471.565 130.523L471.36 130.018C471.558 129.917 471.784 129.83 472.041 129.758C472.297 129.686 472.566 129.65 472.849 129.65ZM473.738 131.948L473.07 131.976C472.522 131.997 472.137 132.087 471.913 132.244C471.689 132.402 471.576 132.625 471.576 132.913C471.576 133.164 471.653 133.349 471.804 133.469C471.957 133.589 472.158 133.649 472.409 133.649C472.799 133.649 473.118 133.541 473.366 133.325C473.614 133.109 473.738 132.785 473.738 132.352V131.948ZM477.758 129.642C477.846 129.642 477.938 129.647 478.034 129.658C478.13 129.666 478.216 129.678 478.29 129.694L478.206 130.31C478.134 130.292 478.054 130.277 477.966 130.266C477.878 130.256 477.795 130.25 477.718 130.25C477.542 130.25 477.375 130.286 477.217 130.359C477.063 130.428 476.926 130.529 476.809 130.663C476.692 130.794 476.599 130.952 476.533 131.139C476.466 131.323 476.433 131.529 476.433 131.756V134.11H475.764V129.722H476.316L476.389 130.531H476.416C476.507 130.368 476.617 130.22 476.745 130.086C476.873 129.95 477.021 129.842 477.189 129.762C477.36 129.682 477.549 129.642 477.758 129.642ZM482.938 129.642C483.312 129.642 483.632 129.725 483.899 129.89C484.166 130.056 484.37 130.288 484.512 130.587C484.653 130.883 484.724 131.23 484.724 131.628V132.04H481.693C481.701 132.555 481.829 132.947 482.077 133.217C482.326 133.487 482.675 133.621 483.126 133.621C483.404 133.621 483.65 133.596 483.863 133.545C484.076 133.495 484.298 133.42 484.527 133.321V133.906C484.306 134.004 484.086 134.076 483.867 134.122C483.651 134.167 483.395 134.19 483.098 134.19C482.677 134.19 482.309 134.104 481.993 133.934C481.681 133.76 481.438 133.507 481.265 133.173C481.091 132.839 481.005 132.431 481.005 131.948C481.005 131.476 481.083 131.067 481.241 130.723C481.401 130.376 481.625 130.109 481.913 129.922C482.204 129.735 482.546 129.642 482.938 129.642ZM482.93 130.186C482.575 130.186 482.293 130.302 482.081 130.535C481.871 130.767 481.745 131.091 481.705 131.508H484.027C484.025 131.246 483.983 131.016 483.903 130.819C483.826 130.619 483.707 130.464 483.547 130.355C483.387 130.242 483.181 130.186 482.93 130.186ZM487.931 129.642C488.451 129.642 488.845 129.77 489.112 130.026C489.379 130.28 489.512 130.688 489.512 131.251V134.11H488.856V131.295C488.856 130.93 488.771 130.656 488.603 130.475C488.438 130.293 488.183 130.202 487.838 130.202C487.353 130.202 487.011 130.34 486.813 130.615C486.616 130.89 486.517 131.289 486.517 131.812V134.11H485.853V129.722H486.389L486.49 130.355H486.525C486.619 130.2 486.738 130.07 486.882 129.966C487.026 129.859 487.187 129.779 487.366 129.726C487.545 129.67 487.733 129.642 487.931 129.642ZM493.111 128.257H494.769C495.5 128.257 496.05 128.366 496.418 128.585C496.786 128.804 496.971 129.176 496.971 129.702C496.971 129.929 496.927 130.133 496.838 130.315C496.753 130.493 496.627 130.641 496.462 130.759C496.297 130.876 496.092 130.958 495.849 131.003V131.043C496.106 131.083 496.333 131.157 496.53 131.263C496.728 131.37 496.882 131.52 496.995 131.712C497.106 131.904 497.163 132.148 497.163 132.444C497.163 132.805 497.079 133.109 496.911 133.357C496.745 133.605 496.51 133.794 496.206 133.922C495.902 134.047 495.541 134.11 495.125 134.11H493.111V128.257ZM493.792 130.767H494.913C495.422 130.767 495.775 130.683 495.97 130.515C496.167 130.346 496.266 130.101 496.266 129.778C496.266 129.444 496.149 129.204 495.913 129.057C495.681 128.911 495.31 128.837 494.8 128.837H493.792V130.767ZM493.792 131.339V133.529H495.009C495.529 133.529 495.898 133.428 496.114 133.225C496.33 133.02 496.438 132.743 496.438 132.396C496.438 132.175 496.388 131.985 496.29 131.828C496.194 131.67 496.036 131.55 495.818 131.468C495.601 131.382 495.312 131.339 494.948 131.339H493.792ZM501.935 129.722V134.11H501.39L501.294 133.493H501.258C501.168 133.645 501.05 133.774 500.906 133.878C500.762 133.982 500.599 134.059 500.417 134.11C500.238 134.163 500.048 134.19 499.845 134.19C499.498 134.19 499.207 134.134 498.972 134.022C498.737 133.91 498.56 133.736 498.44 133.501C498.322 133.266 498.263 132.965 498.263 132.596V129.722H498.936V132.548C498.936 132.914 499.019 133.188 499.184 133.369C499.35 133.548 499.602 133.637 499.941 133.637C500.267 133.637 500.525 133.576 500.718 133.453C500.912 133.33 501.053 133.15 501.138 132.913C501.223 132.673 501.266 132.379 501.266 132.032V129.722H501.935ZM505.029 129.642C505.403 129.642 505.723 129.725 505.99 129.89C506.257 130.056 506.462 130.288 506.603 130.587C506.744 130.883 506.815 131.23 506.815 131.628V132.04H503.785C503.792 132.555 503.92 132.947 504.169 133.217C504.417 133.487 504.766 133.621 505.218 133.621C505.495 133.621 505.741 133.596 505.954 133.545C506.168 133.495 506.389 133.42 506.619 133.321V133.906C506.398 134.004 506.177 134.076 505.958 134.122C505.742 134.167 505.486 134.19 505.19 134.19C504.768 134.19 504.399 134.104 504.085 133.934C503.772 133.76 503.529 133.507 503.356 133.173C503.182 132.839 503.096 132.431 503.096 131.948C503.096 131.476 503.175 131.067 503.332 130.723C503.492 130.376 503.716 130.109 504.004 129.922C504.295 129.735 504.637 129.642 505.029 129.642ZM505.022 130.186C504.666 130.186 504.384 130.302 504.172 130.535C503.962 130.767 503.836 131.091 503.796 131.508H506.118C506.116 131.246 506.074 131.016 505.994 130.819C505.917 130.619 505.798 130.464 505.638 130.355C505.478 130.242 505.272 130.186 505.022 130.186ZM510.022 129.642C510.542 129.642 510.936 129.77 511.203 130.026C511.47 130.28 511.603 130.688 511.603 131.251V134.11H510.947V131.295C510.947 130.93 510.862 130.656 510.694 130.475C510.529 130.293 510.274 130.202 509.93 130.202C509.444 130.202 509.102 130.34 508.905 130.615C508.707 130.89 508.609 131.289 508.609 131.812V134.11H507.944V129.722H508.481L508.581 130.355H508.616C508.71 130.2 508.829 130.07 508.973 129.966C509.117 129.859 509.278 129.779 509.457 129.726C509.636 129.67 509.824 129.642 510.022 129.642ZM516.756 131.908C516.756 132.268 516.709 132.59 516.616 132.873C516.522 133.156 516.387 133.395 516.211 133.589C516.035 133.784 515.821 133.934 515.571 134.038C515.322 134.139 515.041 134.19 514.726 134.19C514.432 134.19 514.163 134.139 513.917 134.038C513.674 133.934 513.464 133.784 513.285 133.589C513.109 133.395 512.971 133.156 512.872 132.873C512.776 132.59 512.728 132.268 512.728 131.908C512.728 131.427 512.81 131.019 512.972 130.683C513.135 130.344 513.367 130.086 513.669 129.91C513.973 129.731 514.335 129.642 514.754 129.642C515.154 129.642 515.504 129.731 515.803 129.91C516.104 130.089 516.338 130.348 516.503 130.687C516.672 131.023 516.756 131.43 516.756 131.908ZM513.417 131.908C513.417 132.26 513.464 132.566 513.557 132.825C513.65 133.084 513.794 133.284 513.989 133.425C514.184 133.567 514.435 133.637 514.742 133.637C515.046 133.637 515.296 133.567 515.49 133.425C515.688 133.284 515.834 133.084 515.927 132.825C516.02 132.566 516.067 132.26 516.067 131.908C516.067 131.558 516.02 131.257 515.927 131.003C515.834 130.747 515.689 130.549 515.494 130.411C515.3 130.272 515.048 130.202 514.738 130.202C514.281 130.202 513.946 130.353 513.733 130.655C513.522 130.956 513.417 131.374 513.417 131.908ZM520.741 132.909C520.741 133.189 520.674 133.425 520.531 133.617C520.392 133.807 520.193 133.95 519.931 134.046C519.67 134.142 519.362 134.19 519.004 134.19C518.696 134.19 518.429 134.166 518.205 134.118C517.981 134.07 517.785 134.002 517.616 133.914V133.301C517.795 133.389 518.008 133.469 518.257 133.541C518.507 133.613 518.758 133.649 519.019 133.649C519.398 133.649 519.67 133.588 519.844 133.465C520.013 133.342 520.1 133.176 520.1 132.965C520.1 132.845 520.064 132.739 519.993 132.649C519.926 132.555 519.813 132.466 519.654 132.38C519.496 132.292 519.27 132.196 518.988 132.092C518.712 131.985 518.466 131.88 518.261 131.776C518.058 131.669 517.901 131.54 517.789 131.387C517.679 131.235 517.624 131.038 517.624 130.795C517.624 130.424 517.774 130.14 518.073 129.942C518.374 129.742 518.768 129.642 519.26 129.642C519.521 129.642 519.767 129.669 519.998 129.722C520.228 129.773 520.449 129.842 520.649 129.93L520.423 130.463C520.244 130.385 520.049 130.32 519.844 130.266C519.639 130.213 519.429 130.186 519.214 130.186C518.906 130.186 518.671 130.237 518.507 130.339C518.342 130.44 518.261 130.579 518.261 130.755C518.261 130.891 518.299 131.003 518.373 131.091C518.45 131.179 518.573 131.262 518.742 131.339C518.911 131.417 519.132 131.508 519.409 131.612C519.68 131.713 519.921 131.818 520.121 131.928C520.321 132.035 520.474 132.165 520.577 132.32C520.69 132.472 520.741 132.669 520.741 132.909ZM527.715 134.11L526.993 132.252H524.646L523.928 134.11H523.242L525.532 128.233H526.142L528.417 134.11H527.715ZM526.788 131.648L526.106 129.802C526.086 129.754 526.06 129.675 526.024 129.566C525.988 129.456 525.952 129.343 525.917 129.226C525.881 129.108 525.85 129.013 525.824 128.941C525.799 129.051 525.768 129.16 525.737 129.27C525.706 129.376 525.676 129.476 525.645 129.57C525.619 129.661 525.594 129.738 525.573 129.802L524.876 131.648H526.788ZM529.796 129.722V134.11H529.13V129.722H529.796ZM529.473 128.081C529.581 128.081 529.673 128.117 529.75 128.189C529.832 128.258 529.873 128.367 529.873 128.517C529.873 128.664 529.832 128.773 529.75 128.845C529.673 128.917 529.581 128.953 529.473 128.953C529.355 128.953 529.258 128.917 529.181 128.845C529.109 128.773 529.068 128.664 529.068 128.517C529.068 128.367 529.109 128.258 529.181 128.189C529.258 128.117 529.355 128.081 529.473 128.081ZM533.198 129.642C533.286 129.642 533.378 129.647 533.475 129.658C533.572 129.666 533.654 129.678 533.731 129.694L533.644 130.31C533.573 130.292 533.496 130.277 533.408 130.266C533.316 130.256 533.234 130.25 533.157 130.25C532.983 130.25 532.814 130.286 532.655 130.359C532.501 130.428 532.368 130.529 532.25 130.663C532.132 130.794 532.04 130.952 531.974 131.139C531.907 131.323 531.871 131.529 531.871 131.756V134.11H531.205V129.722H531.758L531.83 130.531H531.856C531.948 130.368 532.056 130.22 532.184 130.086C532.312 129.95 532.461 129.842 532.63 129.762C532.799 129.682 532.988 129.642 533.198 129.642ZM536.247 129.642C536.622 129.642 536.944 129.725 537.211 129.89C537.477 130.056 537.682 130.288 537.821 130.587C537.964 130.883 538.036 131.23 538.036 131.628V132.04H535.002C535.012 132.555 535.141 132.947 535.387 133.217C535.638 133.487 535.986 133.621 536.437 133.621C536.714 133.621 536.96 133.596 537.175 133.545C537.385 133.495 537.611 133.42 537.836 133.321V133.906C537.616 134.004 537.395 134.076 537.175 134.122C536.96 134.167 536.704 134.19 536.406 134.19C535.986 134.19 535.617 134.104 535.305 133.934C534.992 133.76 534.751 133.507 534.577 133.173C534.403 132.839 534.316 132.431 534.316 131.948C534.316 131.476 534.392 131.067 534.551 130.723C534.71 130.376 534.936 130.109 535.223 129.922C535.515 129.735 535.858 129.642 536.247 129.642ZM536.242 130.186C535.884 130.186 535.602 130.302 535.392 130.535C535.182 130.767 535.053 131.091 535.018 131.508H537.339C537.334 131.246 537.293 131.016 537.211 130.819C537.134 130.619 537.016 130.464 536.857 130.355C536.698 130.242 536.493 130.186 536.242 130.186ZM542.002 132.909C542.002 133.189 541.93 133.425 541.787 133.617C541.649 133.807 541.449 133.95 541.187 134.046C540.931 134.142 540.619 134.19 540.26 134.19C539.952 134.19 539.686 134.166 539.466 134.118C539.24 134.07 539.045 134.002 538.876 133.914V133.301C539.056 133.389 539.266 133.469 539.517 133.541C539.763 133.613 540.019 133.649 540.275 133.649C540.654 133.649 540.931 133.588 541.1 133.465C541.269 133.342 541.357 133.176 541.357 132.965C541.357 132.845 541.321 132.739 541.254 132.649C541.187 132.555 541.075 132.466 540.911 132.38C540.752 132.292 540.532 132.196 540.25 132.092C539.968 131.985 539.727 131.88 539.517 131.776C539.317 131.669 539.158 131.54 539.045 131.387C538.938 131.235 538.881 131.038 538.881 130.795C538.881 130.424 539.03 130.14 539.332 129.942C539.635 129.742 540.029 129.642 540.516 129.642C540.783 129.642 541.029 129.669 541.259 129.722C541.49 129.773 541.705 129.842 541.905 129.93L541.679 130.463C541.5 130.385 541.305 130.32 541.1 130.266C540.895 130.213 540.685 130.186 540.47 130.186C540.168 130.186 539.927 130.237 539.763 130.339C539.599 130.44 539.517 130.579 539.517 130.755C539.517 130.891 539.558 131.003 539.63 131.091C539.706 131.179 539.829 131.262 539.999 131.339C540.168 131.417 540.388 131.508 540.665 131.612C540.941 131.713 541.177 131.818 541.377 131.928C541.577 132.035 541.731 132.165 541.838 132.32C541.946 132.472 542.002 132.669 542.002 132.909Z" fill="#9EAAB8"/>
<path d="M593.775 118.736H614.272C616.537 118.736 618.372 120.572 618.372 122.836V139.234C618.372 141.498 616.537 143.334 614.272 143.334H593.775V118.736Z" fill="#F3F6F9"/>
<mask id="mask3_5202_31908" style="mask-type:luminance" maskUnits="userSpaceOnUse" x="599" y="124" width="14" height="14">
<path d="M612.223 124.886H599.924V137.184H612.223V124.886Z" fill="white"/>
</mask>
<g mask="url(#mask3_5202_31908)">
<path d="M605.551 134.606C606.463 134.606 607.339 134.302 608.056 133.743L610.306 135.99L611.029 135.268L608.779 133.02C609.343 132.289 609.645 131.389 609.635 130.465C609.619 129.542 609.297 128.65 608.712 127.935C608.128 127.22 607.319 126.724 606.417 126.528C605.515 126.332 604.572 126.447 603.742 126.855C602.911 127.262 602.245 127.939 601.851 128.773C601.456 129.608 601.359 130.552 601.569 131.451C601.779 132.35 602.286 133.152 603.009 133.725C603.731 134.298 604.628 134.61 605.551 134.608V134.606ZM605.551 127.448C606.16 127.448 606.755 127.627 607.257 127.964C607.764 128.301 608.159 128.781 608.39 129.341C608.62 129.902 608.682 130.519 608.564 131.115C608.446 131.71 608.154 132.257 607.723 132.686C607.293 133.116 606.75 133.408 606.155 133.526C605.556 133.644 604.941 133.584 604.377 133.351C603.819 133.119 603.342 132.725 603.004 132.22C602.666 131.715 602.486 131.122 602.486 130.514C602.486 129.702 602.809 128.922 603.388 128.348C603.962 127.773 604.741 127.449 605.551 127.448Z" fill="#38485C"/>
</g>
<path d="M614.272 118.224H448.24C445.693 118.224 443.628 120.289 443.628 122.836V139.234C443.628 141.781 445.693 143.846 448.24 143.846H614.272C616.82 143.846 618.884 141.781 618.884 139.234V122.836C618.884 120.289 616.82 118.224 614.272 118.224Z" stroke="#E6EBF0" stroke-width="2"/>
</g>
<path d="M614.272 118.224H448.24C445.693 118.224 443.628 120.289 443.628 122.836V139.234C443.628 141.781 445.693 143.846 448.24 143.846H614.272C616.82 143.846 618.884 141.781 618.884 139.234V122.836C618.884 120.289 616.82 118.224 614.272 118.224Z" stroke="#E6EBF0" stroke-width="2"/>
<path d="M671.154 118.224H630.671C628.124 118.224 626.059 120.289 626.059 122.836V139.234C626.059 141.781 628.124 143.846 630.671 143.846H671.154C673.701 143.846 675.766 141.781 675.766 139.234V122.836C675.766 120.289 673.701 118.224 671.154 118.224Z" fill="white"/>
<path d="M638.87 131.035C640.002 131.035 640.919 130.118 640.919 128.985C640.919 127.853 640.002 126.936 638.87 126.936C637.737 126.936 636.82 127.853 636.82 128.985C636.82 130.118 637.737 131.035 638.87 131.035ZM638.87 132.06C637.501 132.06 634.77 132.747 634.77 134.11V135.135H642.969V134.11C642.969 132.747 640.238 132.06 638.87 132.06Z" fill="#38485C"/>
<path d="M648.247 134.174C648.124 134.174 648.032 134.141 647.966 134.073C647.904 133.999 647.873 133.901 647.873 133.778V127.994C647.873 127.865 647.904 127.77 647.971 127.708C648.042 127.641 648.135 127.607 648.258 127.607H650.446C651.138 127.607 651.676 127.779 652.05 128.123C652.424 128.462 652.613 128.941 652.613 129.562C652.613 130.177 652.424 130.657 652.05 131.001C651.676 131.346 651.138 131.518 650.446 131.518H648.627V133.778C648.627 133.901 648.596 133.999 648.534 134.073C648.473 134.141 648.381 134.174 648.247 134.174ZM648.627 130.881H650.354C650.851 130.881 651.225 130.771 651.476 130.549C651.737 130.322 651.865 129.993 651.865 129.562C651.865 129.126 651.737 128.797 651.476 128.575C651.225 128.348 650.851 128.234 650.354 128.234H648.627V130.881ZM655.427 134.193C654.955 134.193 654.545 134.101 654.202 133.916C653.864 133.725 653.597 133.458 653.408 133.114C653.223 132.769 653.131 132.357 653.131 131.878C653.131 131.41 653.223 131.004 653.408 130.66C653.592 130.31 653.843 130.036 654.166 129.839C654.489 129.642 654.868 129.544 655.288 129.544C655.591 129.544 655.862 129.596 656.103 129.701C656.344 129.799 656.544 129.944 656.713 130.134C656.882 130.325 657.01 130.555 657.097 130.826C657.19 131.097 657.236 131.401 657.236 131.739C657.236 131.838 657.21 131.911 657.154 131.961C657.097 132.004 657.02 132.025 656.913 132.025H653.705V131.536H656.739L656.59 131.656C656.59 131.324 656.544 131.044 656.441 130.817C656.344 130.583 656.201 130.405 656.011 130.282C655.826 130.159 655.591 130.097 655.309 130.097C654.996 130.097 654.73 130.171 654.504 130.319C654.289 130.46 654.13 130.66 654.018 130.918C653.905 131.17 653.854 131.466 653.854 131.804V131.859C653.854 132.425 653.987 132.855 654.258 133.15C654.535 133.446 654.925 133.593 655.427 133.593C655.637 133.593 655.842 133.566 656.047 133.51C656.257 133.455 656.457 133.363 656.657 133.234C656.744 133.178 656.821 133.154 656.887 133.16C656.959 133.16 657.02 133.181 657.061 133.224C657.102 133.261 657.133 133.31 657.143 133.372C657.164 133.427 657.159 133.489 657.128 133.556C657.102 133.624 657.051 133.682 656.969 133.732C656.764 133.879 656.529 133.993 656.252 134.073C655.975 134.153 655.698 134.193 655.427 134.193ZM658.696 134.174C658.573 134.174 658.476 134.141 658.409 134.073C658.348 134.005 658.317 133.91 658.317 133.787V129.941C658.317 129.818 658.348 129.725 658.409 129.664C658.471 129.596 658.563 129.562 658.676 129.562C658.794 129.562 658.886 129.596 658.947 129.664C659.014 129.725 659.045 129.818 659.045 129.941V130.688H658.952C659.055 130.325 659.239 130.045 659.516 129.848C659.793 129.652 660.136 129.547 660.541 129.535C660.633 129.529 660.705 129.55 660.761 129.599C660.818 129.642 660.848 129.719 660.854 129.83C660.859 129.934 660.838 130.017 660.782 130.079C660.725 130.14 660.638 130.177 660.52 130.19L660.377 130.208C659.957 130.245 659.634 130.38 659.408 130.614C659.183 130.841 659.075 131.155 659.075 131.555V133.787C659.075 133.91 659.039 134.005 658.973 134.073C658.911 134.141 658.819 134.174 658.696 134.174ZM662.478 134.174C662.36 134.174 662.268 134.141 662.201 134.073C662.14 134.005 662.109 133.91 662.109 133.787V130.208H661.515C661.417 130.208 661.34 130.183 661.279 130.134C661.223 130.079 661.192 130.005 661.192 129.913C661.192 129.821 661.223 129.75 661.279 129.701C661.34 129.652 661.417 129.627 661.515 129.627H662.309L662.109 129.821V129.47C662.109 128.892 662.247 128.449 662.524 128.142C662.806 127.834 663.221 127.659 663.769 127.616L664.046 127.588C664.138 127.582 664.21 127.598 664.266 127.635C664.323 127.665 664.354 127.708 664.369 127.764C664.384 127.819 664.389 127.877 664.374 127.939C664.364 128 664.338 128.053 664.292 128.096C664.256 128.139 664.21 128.163 664.154 128.17L663.877 128.188C663.513 128.213 663.252 128.326 663.093 128.529C662.934 128.726 662.852 129.009 662.852 129.378V129.765L662.744 129.627H665.25C665.368 129.627 665.46 129.661 665.522 129.728C665.589 129.796 665.619 129.894 665.619 130.024V133.75C665.619 133.879 665.589 133.981 665.527 134.054C665.466 134.122 665.373 134.156 665.25 134.156C665.127 134.156 665.035 134.122 664.969 134.054C664.907 133.981 664.876 133.879 664.876 133.75V130.208H662.852V133.787C662.852 134.045 662.729 134.174 662.478 134.174ZM665.261 128.548C665.107 128.548 664.989 128.508 664.902 128.428C664.82 128.342 664.784 128.228 664.784 128.087C664.784 127.939 664.82 127.828 664.902 127.754C664.989 127.675 665.107 127.635 665.261 127.635C665.414 127.635 665.532 127.675 665.614 127.754C665.696 127.828 665.742 127.939 665.742 128.087C665.742 128.228 665.696 128.342 665.614 128.428C665.532 128.508 665.414 128.548 665.261 128.548ZM668.386 134.193C667.941 134.193 667.602 134.058 667.372 133.787C667.136 133.516 667.018 133.129 667.018 132.625V127.92C667.018 127.797 667.049 127.705 667.111 127.644C667.172 127.576 667.264 127.542 667.387 127.542C667.505 127.542 667.597 127.576 667.664 127.644C667.731 127.705 667.766 127.797 667.766 127.92V132.569C667.766 132.901 667.833 133.15 667.961 133.317C668.094 133.476 668.294 133.556 668.551 133.556C668.607 133.556 668.653 133.553 668.699 133.547C668.74 133.541 668.786 133.538 668.827 133.538C668.894 133.532 668.94 133.547 668.966 133.584C668.996 133.621 669.012 133.695 669.012 133.805C669.012 133.916 668.986 133.999 668.94 134.054C668.889 134.11 668.807 134.147 668.699 134.165C668.648 134.171 668.597 134.177 668.54 134.184C668.484 134.19 668.433 134.193 668.386 134.193Z" fill="#38485C"/>
<path d="M671.154 118.224H630.671C628.124 118.224 626.059 120.289 626.059 122.836V139.234C626.059 141.781 628.124 143.846 630.671 143.846H671.154C673.701 143.846 675.766 141.781 675.766 139.234V122.836C675.766 120.289 673.701 118.224 671.154 118.224Z" stroke="#E6EBF0" stroke-width="2"/>
<mask id="mask4_5202_31908" style="mask-type:luminance" maskUnits="userSpaceOnUse" x="6" y="109" width="700" height="45">
<path d="M6 109H706V153.07H6V109Z" fill="#007BC7"/>
</mask>
<g mask="url(#mask4_5202_31908)">
<path d="M706 152.045H6V154.095H706V152.045Z" fill="#007BC7"/>
</g>
</g>
<path d="M42.6431 57V47.7197H44.1665V55.7051H48.1084V57H42.6431ZM55.7827 53.4707C55.7827 54.0547 55.7065 54.5731 55.5542 55.0259C55.4019 55.4787 55.1797 55.8617 54.8877 56.1748C54.5957 56.4837 54.2445 56.7207 53.834 56.8857C53.4235 57.0465 52.9601 57.127 52.4438 57.127C51.9614 57.127 51.5192 57.0465 51.1172 56.8857C50.7152 56.7207 50.366 56.4837 50.0698 56.1748C49.7778 55.8617 49.5514 55.4787 49.3906 55.0259C49.2298 54.5731 49.1494 54.0547 49.1494 53.4707C49.1494 52.6963 49.2827 52.0404 49.5493 51.5029C49.8201 50.9613 50.2052 50.5487 50.7046 50.2651C51.2039 49.9816 51.7985 49.8398 52.4883 49.8398C53.1357 49.8398 53.707 49.9816 54.2021 50.2651C54.6973 50.5487 55.0845 50.9613 55.3638 51.5029C55.6431 52.0446 55.7827 52.7005 55.7827 53.4707ZM50.6855 53.4707C50.6855 53.9827 50.7469 54.4207 50.8696 54.7847C50.9966 55.1486 51.1912 55.4279 51.4536 55.6226C51.716 55.813 52.0545 55.9082 52.4692 55.9082C52.884 55.9082 53.2225 55.813 53.4849 55.6226C53.7472 55.4279 53.9398 55.1486 54.0625 54.7847C54.1852 54.4207 54.2466 53.9827 54.2466 53.4707C54.2466 52.9587 54.1852 52.5249 54.0625 52.1694C53.9398 51.8097 53.7472 51.5368 53.4849 51.3506C53.2225 51.1602 52.8818 51.0649 52.4629 51.0649C51.8451 51.0649 51.3944 51.2723 51.1108 51.687C50.8273 52.1017 50.6855 52.6963 50.6855 53.4707ZM59.5024 60.123C58.5503 60.123 57.8203 59.9517 57.3125 59.6089C56.8047 59.2661 56.5508 58.7858 56.5508 58.168C56.5508 57.7363 56.6862 57.3703 56.957 57.0698C57.2279 56.7736 57.6151 56.5684 58.1187 56.4541C57.9282 56.3695 57.7632 56.2383 57.6235 56.0605C57.4881 55.8786 57.4204 55.6776 57.4204 55.4575C57.4204 55.1951 57.4945 54.9709 57.6426 54.7847C57.7907 54.5985 58.0129 54.4186 58.3091 54.2451C57.9409 54.0885 57.6447 53.8346 57.4204 53.4834C57.2004 53.1279 57.0903 52.7111 57.0903 52.2329C57.0903 51.7251 57.1982 51.2935 57.4141 50.938C57.6299 50.5783 57.9451 50.3053 58.3599 50.1191C58.7746 49.9287 59.276 49.8335 59.8643 49.8335C59.9912 49.8335 60.1287 49.842 60.2769 49.8589C60.4292 49.8716 60.5688 49.8885 60.6958 49.9097C60.827 49.9266 60.9264 49.9456 60.9941 49.9668H63.4253V50.7983L62.2319 51.0205C62.3462 51.1813 62.4372 51.3654 62.5049 51.5728C62.5726 51.7759 62.6064 51.998 62.6064 52.2393C62.6064 52.9671 62.3547 53.5405 61.8511 53.9595C61.3517 54.3742 60.6619 54.5815 59.7817 54.5815C59.5701 54.5731 59.3649 54.5562 59.166 54.5308C59.0137 54.6239 58.8973 54.7275 58.8169 54.8418C58.7365 54.9518 58.6963 55.0767 58.6963 55.2163C58.6963 55.3306 58.7365 55.4237 58.8169 55.4956C58.8973 55.5633 59.0158 55.6141 59.1724 55.6479C59.3332 55.6818 59.5278 55.6987 59.7563 55.6987H60.9688C61.7389 55.6987 62.3271 55.8617 62.7334 56.1875C63.1396 56.5133 63.3428 56.9915 63.3428 57.6221C63.3428 58.4219 63.0127 59.0376 62.3525 59.4692C61.6924 59.9051 60.7424 60.123 59.5024 60.123ZM59.5596 59.0757C60.0801 59.0757 60.5181 59.0249 60.8735 58.9233C61.229 58.8218 61.4977 58.6758 61.6797 58.4854C61.8617 58.2992 61.9526 58.077 61.9526 57.8188C61.9526 57.5903 61.8955 57.4147 61.7812 57.292C61.667 57.1693 61.4956 57.0846 61.2671 57.0381C61.0386 56.9915 60.755 56.9683 60.4165 56.9683H59.312C59.0369 56.9683 58.7936 57.0106 58.582 57.0952C58.3704 57.1841 58.2054 57.311 58.0869 57.4761C57.9727 57.6411 57.9155 57.84 57.9155 58.0728C57.9155 58.3944 58.0573 58.6419 58.3408 58.8154C58.6286 58.9889 59.0348 59.0757 59.5596 59.0757ZM59.8516 53.604C60.2874 53.604 60.6112 53.4855 60.8228 53.2485C61.0343 53.0073 61.1401 52.6688 61.1401 52.2329C61.1401 51.759 61.0301 51.4035 60.8101 51.1665C60.5942 50.9295 60.2726 50.811 59.8452 50.811C59.4263 50.811 59.1068 50.9316 58.8867 51.1729C58.6709 51.4141 58.563 51.7716 58.563 52.2456C58.563 52.673 58.6709 53.0073 58.8867 53.2485C59.1068 53.4855 59.4284 53.604 59.8516 53.604ZM70.9282 53.4707C70.9282 54.0547 70.8521 54.5731 70.6997 55.0259C70.5474 55.4787 70.3252 55.8617 70.0332 56.1748C69.7412 56.4837 69.39 56.7207 68.9795 56.8857C68.569 57.0465 68.1056 57.127 67.5894 57.127C67.1069 57.127 66.6647 57.0465 66.2627 56.8857C65.8607 56.7207 65.5116 56.4837 65.2153 56.1748C64.9233 55.8617 64.6969 55.4787 64.5361 55.0259C64.3753 54.5731 64.2949 54.0547 64.2949 53.4707C64.2949 52.6963 64.4282 52.0404 64.6948 51.5029C64.9657 50.9613 65.3507 50.5487 65.8501 50.2651C66.3494 49.9816 66.944 49.8398 67.6338 49.8398C68.2812 49.8398 68.8525 49.9816 69.3477 50.2651C69.8428 50.5487 70.23 50.9613 70.5093 51.5029C70.7886 52.0446 70.9282 52.7005 70.9282 53.4707ZM65.8311 53.4707C65.8311 53.9827 65.8924 54.4207 66.0151 54.7847C66.1421 55.1486 66.3368 55.4279 66.5991 55.6226C66.8615 55.813 67.2 55.9082 67.6147 55.9082C68.0295 55.9082 68.368 55.813 68.6304 55.6226C68.8927 55.4279 69.0853 55.1486 69.208 54.7847C69.3307 54.4207 69.3921 53.9827 69.3921 53.4707C69.3921 52.9587 69.3307 52.5249 69.208 52.1694C69.0853 51.8097 68.8927 51.5368 68.6304 51.3506C68.368 51.1602 68.0273 51.0649 67.6084 51.0649C66.9906 51.0649 66.5399 51.2723 66.2563 51.687C65.9728 52.1017 65.8311 52.6963 65.8311 53.4707Z" fill="#505E70"/>
<mask id="path-25-inside-1_5202_31908" fill="white">
<path d="M33 93H80V107H33V93Z"/>
</mask>
<path d="M33 93V92H32V93H33ZM80 93H81V92H80V93ZM33 94H80V92H33V94ZM79 93V107H81V93H79ZM34 107V93H32V107H34Z" fill="#FDD306" mask="url(#path-25-inside-1_5202_31908)"/>
<line x1="56" y1="93" x2="56" y2="66" stroke="#FDD306"/>
<path d="M620.977 34.271C620.977 35.3162 620.782 36.1901 620.393 36.8926C620.004 37.5908 619.439 38.1177 618.698 38.4731C617.958 38.8244 617.065 39 616.02 39H613.442V29.7197H616.299C617.259 29.7197 618.089 29.8932 618.787 30.2402C619.485 30.583 620.025 31.0929 620.406 31.77C620.787 32.4429 620.977 33.2765 620.977 34.271ZM619.39 34.3154C619.39 33.5537 619.27 32.9274 619.028 32.4365C618.791 31.9456 618.44 31.5817 617.975 31.3447C617.513 31.1035 616.944 30.9829 616.267 30.9829H614.966V37.7241H616.045C617.166 37.7241 618.004 37.4385 618.559 36.8672C619.113 36.2959 619.39 35.4453 619.39 34.3154ZM625.624 31.8398C626.25 31.8398 626.787 31.9689 627.236 32.2271C627.684 32.4852 628.029 32.8512 628.271 33.3252C628.512 33.7992 628.632 34.3662 628.632 35.0264V35.8262H623.941C623.958 36.5075 624.14 37.0322 624.487 37.4004C624.839 37.7686 625.329 37.9526 625.96 37.9526C626.409 37.9526 626.811 37.9103 627.166 37.8257C627.526 37.7368 627.896 37.6077 628.277 37.4385V38.6509C627.926 38.8159 627.568 38.9365 627.204 39.0127C626.84 39.0889 626.404 39.127 625.896 39.127C625.207 39.127 624.599 38.9937 624.075 38.7271C623.554 38.4562 623.146 38.0542 622.85 37.521C622.558 36.9878 622.412 36.3255 622.412 35.5342C622.412 34.7471 622.545 34.0785 622.812 33.5283C623.078 32.9782 623.453 32.5592 623.935 32.2715C624.417 31.9837 624.98 31.8398 625.624 31.8398ZM625.624 32.9634C625.154 32.9634 624.773 33.1157 624.481 33.4204C624.193 33.7251 624.024 34.1715 623.973 34.7598H627.172C627.168 34.4085 627.109 34.0975 626.995 33.8267C626.885 33.5558 626.715 33.3442 626.487 33.1919C626.263 33.0396 625.975 32.9634 625.624 32.9634ZM635.037 36.9941C635.037 37.4554 634.925 37.8447 634.701 38.1621C634.476 38.4795 634.148 38.7207 633.717 38.8857C633.289 39.0465 632.765 39.127 632.143 39.127C631.652 39.127 631.229 39.091 630.873 39.019C630.522 38.9513 630.19 38.8455 629.876 38.7017V37.4131C630.211 37.5697 630.585 37.7051 631 37.8193C631.419 37.9336 631.815 37.9907 632.187 37.9907C632.678 37.9907 633.031 37.9146 633.247 37.7622C633.463 37.6056 633.571 37.3983 633.571 37.1401C633.571 36.9878 633.526 36.8524 633.438 36.7339C633.353 36.6112 633.192 36.4863 632.955 36.3594C632.722 36.2282 632.38 36.0716 631.927 35.8896C631.482 35.7119 631.108 35.5342 630.803 35.3564C630.499 35.1787 630.268 34.965 630.111 34.7153C629.955 34.4614 629.876 34.1377 629.876 33.7441C629.876 33.1221 630.122 32.6502 630.613 32.3286C631.108 32.0028 631.762 31.8398 632.574 31.8398C633.006 31.8398 633.412 31.8843 633.793 31.9731C634.178 32.0578 634.555 32.1826 634.923 32.3477L634.453 33.4712C634.136 33.3315 633.816 33.2173 633.495 33.1284C633.177 33.0353 632.854 32.9888 632.523 32.9888C632.138 32.9888 631.844 33.048 631.641 33.1665C631.442 33.285 631.343 33.4543 631.343 33.6743C631.343 33.8394 631.391 33.979 631.489 34.0933C631.586 34.2075 631.753 34.3218 631.99 34.436C632.231 34.5503 632.566 34.6921 632.993 34.8613C633.412 35.0221 633.774 35.1914 634.079 35.3691C634.388 35.5426 634.625 35.7563 634.79 36.0103C634.955 36.2642 635.037 36.5921 635.037 36.9941ZM640.255 31.8398C641.089 31.8398 641.757 32.1445 642.261 32.7539C642.769 33.3633 643.022 34.2689 643.022 35.4707C643.022 36.2663 642.904 36.937 642.667 37.4829C642.434 38.0246 642.106 38.4351 641.683 38.7144C641.264 38.9894 640.775 39.127 640.217 39.127C639.861 39.127 639.552 39.0804 639.29 38.9873C639.028 38.8942 638.803 38.7736 638.617 38.6255C638.431 38.4731 638.274 38.3081 638.147 38.1304H638.059C638.08 38.2996 638.099 38.488 638.116 38.6953C638.137 38.8984 638.147 39.0846 638.147 39.2539V42.1167H636.649V31.9731H637.868L638.078 32.9443H638.147C638.279 32.7454 638.437 32.5614 638.624 32.3921C638.814 32.2228 639.042 32.0895 639.309 31.9922C639.58 31.8906 639.895 31.8398 640.255 31.8398ZM639.855 33.0586C639.444 33.0586 639.114 33.1411 638.865 33.3062C638.619 33.467 638.439 33.7103 638.325 34.0361C638.215 34.362 638.156 34.7703 638.147 35.2612V35.4707C638.147 35.9912 638.2 36.4334 638.306 36.7974C638.416 37.1571 638.596 37.4321 638.846 37.6226C639.1 37.8088 639.442 37.9019 639.874 37.9019C640.238 37.9019 640.538 37.8024 640.775 37.6035C641.017 37.4046 641.196 37.1211 641.315 36.7529C641.433 36.3848 641.493 35.951 641.493 35.4517C641.493 34.6942 641.357 34.106 641.086 33.687C640.82 33.2681 640.409 33.0586 639.855 33.0586ZM646.247 39H644.749V29.123H646.247V39ZM651.179 31.8398C651.806 31.8398 652.343 31.9689 652.792 32.2271C653.24 32.4852 653.585 32.8512 653.826 33.3252C654.067 33.7992 654.188 34.3662 654.188 35.0264V35.8262H649.497C649.514 36.5075 649.696 37.0322 650.043 37.4004C650.394 37.7686 650.885 37.9526 651.516 37.9526C651.964 37.9526 652.366 37.9103 652.722 37.8257C653.081 37.7368 653.452 37.6077 653.833 37.4385V38.6509C653.481 38.8159 653.124 38.9365 652.76 39.0127C652.396 39.0889 651.96 39.127 651.452 39.127C650.762 39.127 650.155 38.9937 649.63 38.7271C649.11 38.4562 648.701 38.0542 648.405 37.521C648.113 36.9878 647.967 36.3255 647.967 35.5342C647.967 34.7471 648.101 34.0785 648.367 33.5283C648.634 32.9782 649.008 32.5592 649.491 32.2715C649.973 31.9837 650.536 31.8398 651.179 31.8398ZM651.179 32.9634C650.709 32.9634 650.329 33.1157 650.037 33.4204C649.749 33.7251 649.58 34.1715 649.529 34.7598H652.728C652.724 34.4085 652.665 34.0975 652.55 33.8267C652.44 33.5558 652.271 33.3442 652.042 33.1919C651.818 33.0396 651.53 32.9634 651.179 32.9634ZM657.876 42.123C656.924 42.123 656.194 41.9517 655.686 41.6089C655.178 41.2661 654.924 40.7858 654.924 40.168C654.924 39.7363 655.06 39.3703 655.331 39.0698C655.601 38.7736 655.989 38.5684 656.492 38.4541C656.302 38.3695 656.137 38.2383 655.997 38.0605C655.862 37.8786 655.794 37.6776 655.794 37.4575C655.794 37.1951 655.868 36.9709 656.016 36.7847C656.164 36.5985 656.386 36.4186 656.683 36.2451C656.314 36.0885 656.018 35.8346 655.794 35.4834C655.574 35.1279 655.464 34.7111 655.464 34.2329C655.464 33.7251 655.572 33.2935 655.788 32.938C656.003 32.5783 656.319 32.3053 656.733 32.1191C657.148 31.9287 657.65 31.8335 658.238 31.8335C658.365 31.8335 658.502 31.842 658.65 31.8589C658.803 31.8716 658.942 31.8885 659.069 31.9097C659.201 31.9266 659.3 31.9456 659.368 31.9668H661.799V32.7983L660.605 33.0205C660.72 33.1813 660.811 33.3654 660.878 33.5728C660.946 33.7759 660.98 33.998 660.98 34.2393C660.98 34.9671 660.728 35.5405 660.225 35.9595C659.725 36.3742 659.035 36.5815 658.155 36.5815C657.944 36.5731 657.738 36.5562 657.54 36.5308C657.387 36.6239 657.271 36.7275 657.19 36.8418C657.11 36.9518 657.07 37.0767 657.07 37.2163C657.07 37.3306 657.11 37.4237 657.19 37.4956C657.271 37.5633 657.389 37.6141 657.546 37.6479C657.707 37.6818 657.901 37.6987 658.13 37.6987H659.342C660.112 37.6987 660.701 37.8617 661.107 38.1875C661.513 38.5133 661.716 38.9915 661.716 39.6221C661.716 40.4219 661.386 41.0376 660.726 41.4692C660.066 41.9051 659.116 42.123 657.876 42.123ZM657.933 41.0757C658.454 41.0757 658.892 41.0249 659.247 40.9233C659.603 40.8218 659.871 40.6758 660.053 40.4854C660.235 40.2992 660.326 40.077 660.326 39.8188C660.326 39.5903 660.269 39.4147 660.155 39.292C660.041 39.1693 659.869 39.0846 659.641 39.0381C659.412 38.9915 659.129 38.9683 658.79 38.9683H657.686C657.41 38.9683 657.167 39.0106 656.956 39.0952C656.744 39.1841 656.579 39.311 656.46 39.4761C656.346 39.6411 656.289 39.84 656.289 40.0728C656.289 40.3944 656.431 40.6419 656.714 40.8154C657.002 40.9889 657.408 41.0757 657.933 41.0757ZM658.225 35.604C658.661 35.604 658.985 35.4855 659.196 35.2485C659.408 35.0073 659.514 34.6688 659.514 34.2329C659.514 33.759 659.404 33.4035 659.184 33.1665C658.968 32.9295 658.646 32.811 658.219 32.811C657.8 32.811 657.48 32.9316 657.26 33.1729C657.044 33.4141 656.937 33.7716 656.937 34.2456C656.937 34.673 657.044 35.0073 657.26 35.2485C657.48 35.4855 657.802 35.604 658.225 35.604ZM665.836 31.8398C666.725 31.8398 667.395 32.0366 667.848 32.4302C668.305 32.8237 668.534 33.4373 668.534 34.271V39H667.474L667.188 38.0034H667.137C666.938 38.2573 666.733 38.4668 666.521 38.6318C666.31 38.7969 666.064 38.9196 665.785 39C665.51 39.0846 665.174 39.127 664.776 39.127C664.357 39.127 663.982 39.0508 663.652 38.8984C663.322 38.7419 663.062 38.5049 662.872 38.1875C662.681 37.8701 662.586 37.4681 662.586 36.9814C662.586 36.2578 662.855 35.714 663.392 35.3501C663.934 34.9862 664.75 34.7852 665.842 34.7471L667.061 34.7026V34.3345C667.061 33.8478 666.947 33.5008 666.718 33.2935C666.494 33.0861 666.177 32.9824 665.766 32.9824C665.415 32.9824 665.074 33.0332 664.744 33.1348C664.414 33.2363 664.092 33.3612 663.779 33.5093L663.297 32.4556C663.64 32.2736 664.029 32.1255 664.465 32.0112C664.905 31.897 665.362 31.8398 665.836 31.8398ZM667.055 35.6421L666.147 35.6738C665.402 35.6992 664.88 35.8262 664.579 36.0547C664.279 36.2832 664.128 36.5964 664.128 36.9941C664.128 37.3411 664.232 37.5951 664.439 37.7559C664.647 37.9124 664.92 37.9907 665.258 37.9907C665.775 37.9907 666.202 37.8447 666.541 37.5527C666.883 37.2565 667.055 36.8228 667.055 36.2515V35.6421ZM672.114 29.123V31.5034C672.114 31.7785 672.105 32.0493 672.088 32.3159C672.076 32.5783 672.063 32.7835 672.05 32.9316H672.114C672.304 32.627 672.569 32.3709 672.907 32.1636C673.25 31.952 673.688 31.8462 674.221 31.8462C675.055 31.8462 675.726 32.153 676.233 32.7666C676.741 33.376 676.995 34.2795 676.995 35.4771C676.995 36.2726 676.879 36.9412 676.646 37.4829C676.413 38.0246 676.085 38.4351 675.662 38.7144C675.243 38.9894 674.75 39.127 674.183 39.127C673.65 39.127 673.218 39.0296 672.888 38.835C672.562 38.6361 672.306 38.4054 672.12 38.1431H672.012L671.739 39H670.622V29.123H672.114ZM673.828 33.0586C673.404 33.0586 673.068 33.1432 672.818 33.3125C672.573 33.4818 672.395 33.7357 672.285 34.0742C672.175 34.4085 672.118 34.8338 672.114 35.3501V35.4834C672.114 36.2663 672.236 36.8651 672.482 37.2798C672.732 37.6945 673.184 37.9019 673.84 37.9019C674.361 37.9019 674.761 37.6924 675.04 37.2734C675.319 36.8503 675.459 36.2451 675.459 35.458C675.459 34.6624 675.319 34.0636 675.04 33.6616C674.765 33.2596 674.361 33.0586 673.828 33.0586ZM680.22 39H678.722V29.123H680.22V39ZM685.152 31.8398C685.778 31.8398 686.316 31.9689 686.764 32.2271C687.213 32.4852 687.558 32.8512 687.799 33.3252C688.04 33.7992 688.161 34.3662 688.161 35.0264V35.8262H683.47C683.487 36.5075 683.669 37.0322 684.016 37.4004C684.367 37.7686 684.858 37.9526 685.488 37.9526C685.937 37.9526 686.339 37.9103 686.694 37.8257C687.054 37.7368 687.424 37.6077 687.805 37.4385V38.6509C687.454 38.8159 687.096 38.9365 686.732 39.0127C686.368 39.0889 685.933 39.127 685.425 39.127C684.735 39.127 684.128 38.9937 683.603 38.7271C683.083 38.4562 682.674 38.0542 682.378 37.521C682.086 36.9878 681.94 36.3255 681.94 35.5342C681.94 34.7471 682.073 34.0785 682.34 33.5283C682.606 32.9782 682.981 32.5592 683.463 32.2715C683.946 31.9837 684.509 31.8398 685.152 31.8398ZM685.152 32.9634C684.682 32.9634 684.301 33.1157 684.009 33.4204C683.722 33.7251 683.552 34.1715 683.501 34.7598H686.701C686.696 34.4085 686.637 34.0975 686.523 33.8267C686.413 33.5558 686.244 33.3442 686.015 33.1919C685.791 33.0396 685.503 32.9634 685.152 32.9634ZM627.864 59.127C627.026 59.127 626.354 58.8223 625.846 58.2129C625.342 57.5993 625.09 56.6958 625.09 55.5024C625.09 54.2964 625.346 53.3844 625.858 52.7666C626.375 52.1488 627.054 51.8398 627.896 51.8398C628.251 51.8398 628.562 51.8885 628.829 51.9858C629.096 52.0789 629.324 52.2059 629.515 52.3667C629.709 52.5275 629.874 52.7074 630.01 52.9062H630.08C630.058 52.7751 630.033 52.5868 630.003 52.3413C629.978 52.0916 629.965 51.861 629.965 51.6494V49.123H631.463V59H630.295L630.029 58.0415H629.965C629.838 58.2446 629.678 58.4287 629.483 58.5938C629.292 58.7546 629.064 58.8836 628.797 58.981C628.535 59.0783 628.224 59.127 627.864 59.127ZM628.283 57.9146C628.922 57.9146 629.373 57.7305 629.635 57.3623C629.898 56.9941 630.033 56.4419 630.042 55.7056V55.5088C630.042 54.7217 629.915 54.1187 629.661 53.6997C629.407 53.2765 628.943 53.0649 628.271 53.0649C627.733 53.0649 627.323 53.2829 627.039 53.7188C626.76 54.1504 626.62 54.7534 626.62 55.5278C626.62 56.3022 626.76 56.8947 627.039 57.3052C627.323 57.7114 627.737 57.9146 628.283 57.9146ZM636.402 51.8398C637.028 51.8398 637.566 51.9689 638.014 52.2271C638.463 52.4852 638.808 52.8512 639.049 53.3252C639.29 53.7992 639.411 54.3662 639.411 55.0264V55.8262H634.72C634.737 56.5075 634.919 57.0322 635.266 57.4004C635.617 57.7686 636.108 57.9526 636.738 57.9526C637.187 57.9526 637.589 57.9103 637.944 57.8257C638.304 57.7368 638.674 57.6077 639.055 57.4385V58.6509C638.704 58.8159 638.346 58.9365 637.982 59.0127C637.618 59.0889 637.183 59.127 636.675 59.127C635.985 59.127 635.378 58.9937 634.853 58.7271C634.333 58.4562 633.924 58.0542 633.628 57.521C633.336 56.9878 633.19 56.3255 633.19 55.5342C633.19 54.7471 633.323 54.0785 633.59 53.5283C633.856 52.9782 634.231 52.5592 634.713 52.2715C635.196 51.9837 635.759 51.8398 636.402 51.8398ZM636.402 52.9634C635.932 52.9634 635.551 53.1157 635.259 53.4204C634.972 53.7251 634.802 54.1715 634.751 54.7598H637.951C637.946 54.4085 637.887 54.0975 637.773 53.8267C637.663 53.5558 637.494 53.3442 637.265 53.1919C637.041 53.0396 636.753 52.9634 636.402 52.9634ZM648.075 51.8398C648.909 51.8398 649.577 52.1445 650.081 52.7539C650.589 53.3633 650.843 54.2689 650.843 55.4707C650.843 56.2663 650.724 56.937 650.487 57.4829C650.255 58.0246 649.927 58.4351 649.503 58.7144C649.084 58.9894 648.596 59.127 648.037 59.127C647.682 59.127 647.373 59.0804 647.11 58.9873C646.848 58.8942 646.624 58.7736 646.438 58.6255C646.251 58.4731 646.095 58.3081 645.968 58.1304H645.879C645.9 58.2996 645.919 58.488 645.936 58.6953C645.957 58.8984 645.968 59.0846 645.968 59.2539V62.1167H644.47V51.9731H645.688L645.898 52.9443H645.968C646.099 52.7454 646.258 52.5614 646.444 52.3921C646.634 52.2228 646.863 52.0895 647.129 51.9922C647.4 51.8906 647.715 51.8398 648.075 51.8398ZM647.675 53.0586C647.265 53.0586 646.935 53.1411 646.685 53.3062C646.44 53.467 646.26 53.7103 646.146 54.0361C646.035 54.362 645.976 54.7703 645.968 55.2612V55.4707C645.968 55.9912 646.021 56.4334 646.126 56.7974C646.236 57.1571 646.416 57.4321 646.666 57.6226C646.92 57.8088 647.263 57.9019 647.694 57.9019C648.058 57.9019 648.359 57.8024 648.596 57.6035C648.837 57.4046 649.017 57.1211 649.135 56.7529C649.254 56.3848 649.313 55.951 649.313 55.4517C649.313 54.6942 649.178 54.106 648.907 53.687C648.64 53.2681 648.23 53.0586 647.675 53.0586ZM655.369 51.8398C655.995 51.8398 656.532 51.9689 656.981 52.2271C657.43 52.4852 657.774 52.8512 658.016 53.3252C658.257 53.7992 658.377 54.3662 658.377 55.0264V55.8262H653.687C653.703 56.5075 653.885 57.0322 654.232 57.4004C654.584 57.7686 655.075 57.9526 655.705 57.9526C656.154 57.9526 656.556 57.9103 656.911 57.8257C657.271 57.7368 657.641 57.6077 658.022 57.4385V58.6509C657.671 58.8159 657.313 58.9365 656.949 59.0127C656.585 59.0889 656.149 59.127 655.642 59.127C654.952 59.127 654.345 58.9937 653.82 58.7271C653.299 58.4562 652.891 58.0542 652.595 57.521C652.303 56.9878 652.157 56.3255 652.157 55.5342C652.157 54.7471 652.29 54.0785 652.557 53.5283C652.823 52.9782 653.198 52.5592 653.68 52.2715C654.163 51.9837 654.725 51.8398 655.369 51.8398ZM655.369 52.9634C654.899 52.9634 654.518 53.1157 654.226 53.4204C653.938 53.7251 653.769 54.1715 653.718 54.7598H656.917C656.913 54.4085 656.854 54.0975 656.74 53.8267C656.63 53.5558 656.46 53.3442 656.232 53.1919C656.008 53.0396 655.72 52.9634 655.369 52.9634ZM663.621 51.8398C663.739 51.8398 663.868 51.8462 664.008 51.8589C664.147 51.8716 664.268 51.8885 664.37 51.9097L664.23 53.3062C664.141 53.2808 664.031 53.2617 663.9 53.249C663.773 53.2363 663.659 53.23 663.557 53.23C663.291 53.23 663.037 53.2744 662.795 53.3633C662.554 53.4479 662.34 53.5791 662.154 53.7568C661.968 53.9303 661.822 54.1483 661.716 54.4106C661.611 54.673 661.558 54.9777 661.558 55.3247V59H660.06V51.9731H661.228L661.431 53.2109H661.5C661.64 52.9613 661.814 52.7327 662.021 52.5254C662.228 52.318 662.465 52.153 662.732 52.0303C663.003 51.9033 663.299 51.8398 663.621 51.8398ZM669.181 53.1094H667.474V59H665.982V53.1094H664.833V52.3921L665.982 51.9541V51.4653C665.982 50.8687 666.075 50.3947 666.261 50.0435C666.452 49.6922 666.722 49.4404 667.074 49.2881C667.429 49.1315 667.852 49.0532 668.343 49.0532C668.665 49.0532 668.959 49.0807 669.226 49.1357C669.492 49.1865 669.716 49.2458 669.898 49.3135L669.511 50.4434C669.367 50.3968 669.207 50.3545 669.029 50.3164C668.851 50.2741 668.661 50.2529 668.458 50.2529C668.119 50.2529 667.869 50.3587 667.708 50.5703C667.552 50.7819 667.474 51.0908 667.474 51.4971V51.9731H669.181V53.1094ZM671.866 51.9731V59H670.375V51.9731H671.866ZM671.13 49.2817C671.358 49.2817 671.555 49.3431 671.72 49.4658C671.889 49.5885 671.974 49.8001 671.974 50.1006C671.974 50.3968 671.889 50.6084 671.72 50.7354C671.555 50.8581 671.358 50.9194 671.13 50.9194C670.893 50.9194 670.692 50.8581 670.527 50.7354C670.366 50.6084 670.286 50.3968 670.286 50.1006C670.286 49.8001 670.366 49.5885 670.527 49.4658C670.692 49.3431 670.893 49.2817 671.13 49.2817ZM675.497 59H673.999V49.123H675.497V59Z" fill="#505E70"/>
<mask id="path-29-inside-2_5202_31908" fill="white">
<path d="M625 95H676V109H625V95Z"/>
</mask>
<path d="M625 95V94H624V95H625ZM676 95H677V94H676V95ZM625 96H676V94H625V96ZM675 95V109H677V95H675ZM626 109V95H624V109H626Z" fill="#FDD306" mask="url(#path-29-inside-2_5202_31908)"/>
<line x1="650" y1="95" x2="650" y2="68" stroke="#FDD306"/>
<path d="M66.4746 220L63.8022 212.25H63.7451C63.7578 212.423 63.7726 212.66 63.7896 212.96C63.8065 213.261 63.8213 213.583 63.834 213.925C63.8467 214.268 63.853 214.596 63.853 214.909V220H62.4692V210.72H64.6084L67.1792 218.127H67.2173L69.877 210.72H72.0098V220H70.5562V214.833C70.5562 214.549 70.5604 214.243 70.5688 213.913C70.5815 213.583 70.5942 213.269 70.6069 212.973C70.6239 212.677 70.6366 212.44 70.645 212.262H70.5942L67.8203 220H66.4746ZM77.1006 212.84C77.7269 212.84 78.2643 212.969 78.7129 213.227C79.1615 213.485 79.5063 213.851 79.7476 214.325C79.9888 214.799 80.1094 215.366 80.1094 216.026V216.826H75.4185C75.4354 217.507 75.6174 218.032 75.9644 218.4C76.3156 218.769 76.8065 218.953 77.437 218.953C77.8856 218.953 78.2876 218.91 78.6431 218.826C79.0028 218.737 79.373 218.608 79.7539 218.438V219.651C79.4027 219.816 79.0451 219.937 78.6812 220.013C78.3172 220.089 77.8813 220.127 77.3735 220.127C76.6838 220.127 76.0765 219.994 75.5518 219.727C75.0312 219.456 74.6229 219.054 74.3267 218.521C74.0347 217.988 73.8887 217.326 73.8887 216.534C73.8887 215.747 74.022 215.078 74.2886 214.528C74.5552 213.978 74.9297 213.559 75.4121 213.271C75.8945 212.984 76.4574 212.84 77.1006 212.84ZM77.1006 213.963C76.6309 213.963 76.25 214.116 75.958 214.42C75.6702 214.725 75.501 215.172 75.4502 215.76H78.6494C78.6452 215.409 78.5859 215.097 78.4717 214.827C78.3617 214.556 78.1924 214.344 77.9639 214.192C77.7396 214.04 77.4518 213.963 77.1006 213.963ZM85.4541 212.84C86.2454 212.84 86.8612 213.045 87.3013 213.456C87.7456 213.862 87.9678 214.516 87.9678 215.417V220H86.4761V215.696C86.4761 215.15 86.3639 214.742 86.1396 214.471C85.9154 214.196 85.5684 214.059 85.0986 214.059C84.4173 214.059 83.9434 214.268 83.6768 214.687C83.4144 215.106 83.2832 215.713 83.2832 216.509V220H81.7915V212.973H82.9531L83.1626 213.925H83.2451C83.3975 213.68 83.5858 213.479 83.8101 213.322C84.0386 213.161 84.2925 213.041 84.5718 212.96C84.8553 212.88 85.1494 212.84 85.4541 212.84ZM96.1816 212.973V220H95.0073L94.8042 219.054H94.7217C94.5736 219.295 94.3853 219.496 94.1567 219.657C93.9282 219.814 93.6743 219.93 93.395 220.006C93.1157 220.087 92.8216 220.127 92.5127 220.127C91.9837 220.127 91.5309 220.038 91.1543 219.86C90.7819 219.678 90.4963 219.399 90.2974 219.022C90.0985 218.646 89.999 218.159 89.999 217.562V212.973H91.4971V217.283C91.4971 217.829 91.6071 218.237 91.8271 218.508C92.0514 218.779 92.3984 218.915 92.8682 218.915C93.321 218.915 93.6807 218.821 93.9473 218.635C94.2139 218.449 94.4022 218.174 94.5122 217.81C94.6265 217.446 94.6836 217 94.6836 216.471V212.973H96.1816ZM95.293 210.041V210.167C95.1914 210.29 95.0539 210.438 94.8804 210.612C94.7069 210.781 94.5186 210.961 94.3154 211.151C94.1123 211.338 93.9113 211.517 93.7124 211.691C93.5135 211.86 93.3337 212.004 93.1729 212.123H92.1763V211.958C92.3159 211.797 92.4704 211.604 92.6396 211.38C92.8132 211.156 92.9824 210.925 93.1475 210.688C93.3167 210.451 93.4585 210.235 93.5728 210.041H95.293ZM104.059 220.127C103.221 220.127 102.548 219.822 102.041 219.213C101.537 218.599 101.285 217.696 101.285 216.502C101.285 215.296 101.541 214.384 102.053 213.767C102.569 213.149 103.249 212.84 104.091 212.84C104.446 212.84 104.757 212.889 105.024 212.986C105.291 213.079 105.519 213.206 105.709 213.367C105.904 213.528 106.069 213.707 106.205 213.906H106.274C106.253 213.775 106.228 213.587 106.198 213.341C106.173 213.092 106.16 212.861 106.16 212.649V210.123H107.658V220H106.49L106.224 219.042H106.16C106.033 219.245 105.872 219.429 105.678 219.594C105.487 219.755 105.259 219.884 104.992 219.981C104.73 220.078 104.419 220.127 104.059 220.127ZM104.478 218.915C105.117 218.915 105.568 218.73 105.83 218.362C106.092 217.994 106.228 217.442 106.236 216.706V216.509C106.236 215.722 106.109 215.119 105.855 214.7C105.602 214.277 105.138 214.065 104.465 214.065C103.928 214.065 103.517 214.283 103.234 214.719C102.955 215.15 102.815 215.753 102.815 216.528C102.815 217.302 102.955 217.895 103.234 218.305C103.517 218.711 103.932 218.915 104.478 218.915ZM112.597 212.84C113.223 212.84 113.76 212.969 114.209 213.227C114.658 213.485 115.002 213.851 115.244 214.325C115.485 214.799 115.605 215.366 115.605 216.026V216.826H110.915C110.931 217.507 111.113 218.032 111.46 218.4C111.812 218.769 112.303 218.953 112.933 218.953C113.382 218.953 113.784 218.91 114.139 218.826C114.499 218.737 114.869 218.608 115.25 218.438V219.651C114.899 219.816 114.541 219.937 114.177 220.013C113.813 220.089 113.377 220.127 112.87 220.127C112.18 220.127 111.573 219.994 111.048 219.727C110.527 219.456 110.119 219.054 109.823 218.521C109.531 217.988 109.385 217.326 109.385 216.534C109.385 215.747 109.518 215.078 109.785 214.528C110.051 213.978 110.426 213.559 110.908 213.271C111.391 212.984 111.953 212.84 112.597 212.84ZM112.597 213.963C112.127 213.963 111.746 214.116 111.454 214.42C111.166 214.725 110.997 215.172 110.946 215.76H114.146C114.141 215.409 114.082 215.097 113.968 214.827C113.858 214.556 113.688 214.344 113.46 214.192C113.236 214.04 112.948 213.963 112.597 213.963ZM122.01 217.994C122.01 218.455 121.898 218.845 121.674 219.162C121.45 219.479 121.122 219.721 120.69 219.886C120.263 220.047 119.738 220.127 119.116 220.127C118.625 220.127 118.202 220.091 117.846 220.019C117.495 219.951 117.163 219.846 116.85 219.702V218.413C117.184 218.57 117.558 218.705 117.973 218.819C118.392 218.934 118.788 218.991 119.16 218.991C119.651 218.991 120.004 218.915 120.22 218.762C120.436 218.606 120.544 218.398 120.544 218.14C120.544 217.988 120.5 217.852 120.411 217.734C120.326 217.611 120.165 217.486 119.928 217.359C119.695 217.228 119.353 217.072 118.9 216.89C118.456 216.712 118.081 216.534 117.776 216.356C117.472 216.179 117.241 215.965 117.084 215.715C116.928 215.461 116.85 215.138 116.85 214.744C116.85 214.122 117.095 213.65 117.586 213.329C118.081 213.003 118.735 212.84 119.547 212.84C119.979 212.84 120.385 212.884 120.766 212.973C121.151 213.058 121.528 213.183 121.896 213.348L121.426 214.471C121.109 214.332 120.789 214.217 120.468 214.128C120.15 214.035 119.827 213.989 119.497 213.989C119.111 213.989 118.817 214.048 118.614 214.167C118.415 214.285 118.316 214.454 118.316 214.674C118.316 214.839 118.365 214.979 118.462 215.093C118.559 215.208 118.726 215.322 118.963 215.436C119.205 215.55 119.539 215.692 119.966 215.861C120.385 216.022 120.747 216.191 121.052 216.369C121.361 216.543 121.598 216.756 121.763 217.01C121.928 217.264 122.01 217.592 122.01 217.994ZM127.228 212.84C128.062 212.84 128.73 213.145 129.234 213.754C129.742 214.363 129.996 215.269 129.996 216.471C129.996 217.266 129.877 217.937 129.64 218.483C129.407 219.025 129.079 219.435 128.656 219.714C128.237 219.989 127.749 220.127 127.19 220.127C126.834 220.127 126.526 220.08 126.263 219.987C126.001 219.894 125.777 219.774 125.59 219.625C125.404 219.473 125.248 219.308 125.121 219.13H125.032C125.053 219.3 125.072 219.488 125.089 219.695C125.11 219.898 125.121 220.085 125.121 220.254V223.117H123.623V212.973H124.841L125.051 213.944H125.121C125.252 213.745 125.41 213.561 125.597 213.392C125.787 213.223 126.016 213.09 126.282 212.992C126.553 212.891 126.868 212.84 127.228 212.84ZM126.828 214.059C126.418 214.059 126.088 214.141 125.838 214.306C125.592 214.467 125.413 214.71 125.298 215.036C125.188 215.362 125.129 215.77 125.121 216.261V216.471C125.121 216.991 125.174 217.433 125.279 217.797C125.389 218.157 125.569 218.432 125.819 218.623C126.073 218.809 126.416 218.902 126.847 218.902C127.211 218.902 127.512 218.802 127.749 218.604C127.99 218.405 128.17 218.121 128.288 217.753C128.407 217.385 128.466 216.951 128.466 216.452C128.466 215.694 128.33 215.106 128.06 214.687C127.793 214.268 127.382 214.059 126.828 214.059ZM133.22 220H131.722V210.123H133.22V220ZM138.152 212.84C138.779 212.84 139.316 212.969 139.765 213.227C140.213 213.485 140.558 213.851 140.799 214.325C141.041 214.799 141.161 215.366 141.161 216.026V216.826H136.47C136.487 217.507 136.669 218.032 137.016 218.4C137.367 218.769 137.858 218.953 138.489 218.953C138.937 218.953 139.339 218.91 139.695 218.826C140.055 218.737 140.425 218.608 140.806 218.438V219.651C140.454 219.816 140.097 219.937 139.733 220.013C139.369 220.089 138.933 220.127 138.425 220.127C137.736 220.127 137.128 219.994 136.604 219.727C136.083 219.456 135.675 219.054 135.378 218.521C135.086 217.988 134.94 217.326 134.94 216.534C134.94 215.747 135.074 215.078 135.34 214.528C135.607 213.978 135.981 213.559 136.464 213.271C136.946 212.984 137.509 212.84 138.152 212.84ZM138.152 213.963C137.683 213.963 137.302 214.116 137.01 214.42C136.722 214.725 136.553 215.172 136.502 215.76H139.701C139.697 215.409 139.638 215.097 139.523 214.827C139.413 214.556 139.244 214.344 139.016 214.192C138.791 214.04 138.504 213.963 138.152 213.963ZM144.849 223.123C143.897 223.123 143.167 222.952 142.659 222.609C142.151 222.266 141.897 221.786 141.897 221.168C141.897 220.736 142.033 220.37 142.304 220.07C142.575 219.774 142.962 219.568 143.465 219.454C143.275 219.369 143.11 219.238 142.97 219.061C142.835 218.879 142.767 218.678 142.767 218.458C142.767 218.195 142.841 217.971 142.989 217.785C143.137 217.598 143.36 217.419 143.656 217.245C143.288 217.089 142.991 216.835 142.767 216.483C142.547 216.128 142.437 215.711 142.437 215.233C142.437 214.725 142.545 214.293 142.761 213.938C142.977 213.578 143.292 213.305 143.707 213.119C144.121 212.929 144.623 212.833 145.211 212.833C145.338 212.833 145.475 212.842 145.624 212.859C145.776 212.872 145.916 212.889 146.042 212.91C146.174 212.927 146.273 212.946 146.341 212.967H148.772V213.798L147.579 214.021C147.693 214.181 147.784 214.365 147.852 214.573C147.919 214.776 147.953 214.998 147.953 215.239C147.953 215.967 147.701 216.541 147.198 216.959C146.698 217.374 146.009 217.582 145.128 217.582C144.917 217.573 144.712 217.556 144.513 217.531C144.36 217.624 144.244 217.728 144.164 217.842C144.083 217.952 144.043 218.077 144.043 218.216C144.043 218.331 144.083 218.424 144.164 218.496C144.244 218.563 144.362 218.614 144.519 218.648C144.68 218.682 144.875 218.699 145.103 218.699H146.315C147.086 218.699 147.674 218.862 148.08 219.188C148.486 219.513 148.689 219.992 148.689 220.622C148.689 221.422 148.359 222.038 147.699 222.469C147.039 222.905 146.089 223.123 144.849 223.123ZM144.906 222.076C145.427 222.076 145.865 222.025 146.22 221.923C146.576 221.822 146.844 221.676 147.026 221.485C147.208 221.299 147.299 221.077 147.299 220.819C147.299 220.59 147.242 220.415 147.128 220.292C147.014 220.169 146.842 220.085 146.614 220.038C146.385 219.992 146.102 219.968 145.763 219.968H144.659C144.384 219.968 144.14 220.011 143.929 220.095C143.717 220.184 143.552 220.311 143.434 220.476C143.319 220.641 143.262 220.84 143.262 221.073C143.262 221.394 143.404 221.642 143.688 221.815C143.975 221.989 144.382 222.076 144.906 222.076ZM145.198 216.604C145.634 216.604 145.958 216.486 146.169 216.249C146.381 216.007 146.487 215.669 146.487 215.233C146.487 214.759 146.377 214.403 146.157 214.167C145.941 213.93 145.619 213.811 145.192 213.811C144.773 213.811 144.453 213.932 144.233 214.173C144.018 214.414 143.91 214.772 143.91 215.246C143.91 215.673 144.018 216.007 144.233 216.249C144.453 216.486 144.775 216.604 145.198 216.604ZM152.809 212.84C153.698 212.84 154.368 213.037 154.821 213.43C155.278 213.824 155.507 214.437 155.507 215.271V220H154.447L154.161 219.003H154.11C153.911 219.257 153.706 219.467 153.495 219.632C153.283 219.797 153.038 219.92 152.758 220C152.483 220.085 152.147 220.127 151.749 220.127C151.33 220.127 150.956 220.051 150.625 219.898C150.295 219.742 150.035 219.505 149.845 219.188C149.654 218.87 149.559 218.468 149.559 217.981C149.559 217.258 149.828 216.714 150.365 216.35C150.907 215.986 151.724 215.785 152.815 215.747L154.034 215.703V215.334C154.034 214.848 153.92 214.501 153.691 214.293C153.467 214.086 153.15 213.982 152.739 213.982C152.388 213.982 152.047 214.033 151.717 214.135C151.387 214.236 151.066 214.361 150.752 214.509L150.27 213.456C150.613 213.274 151.002 213.125 151.438 213.011C151.878 212.897 152.335 212.84 152.809 212.84ZM154.028 216.642L153.12 216.674C152.375 216.699 151.853 216.826 151.552 217.055C151.252 217.283 151.102 217.596 151.102 217.994C151.102 218.341 151.205 218.595 151.413 218.756C151.62 218.912 151.893 218.991 152.231 218.991C152.748 218.991 153.175 218.845 153.514 218.553C153.856 218.257 154.028 217.823 154.028 217.251V216.642ZM159.087 210.123V212.503C159.087 212.778 159.078 213.049 159.062 213.316C159.049 213.578 159.036 213.784 159.023 213.932H159.087C159.277 213.627 159.542 213.371 159.88 213.164C160.223 212.952 160.661 212.846 161.194 212.846C162.028 212.846 162.699 213.153 163.207 213.767C163.714 214.376 163.968 215.279 163.968 216.477C163.968 217.273 163.852 217.941 163.619 218.483C163.386 219.025 163.058 219.435 162.635 219.714C162.216 219.989 161.723 220.127 161.156 220.127C160.623 220.127 160.191 220.03 159.861 219.835C159.535 219.636 159.279 219.405 159.093 219.143H158.985L158.712 220H157.595V210.123H159.087ZM160.801 214.059C160.378 214.059 160.041 214.143 159.792 214.312C159.546 214.482 159.368 214.736 159.258 215.074C159.148 215.409 159.091 215.834 159.087 216.35V216.483C159.087 217.266 159.21 217.865 159.455 218.28C159.705 218.694 160.158 218.902 160.813 218.902C161.334 218.902 161.734 218.692 162.013 218.273C162.292 217.85 162.432 217.245 162.432 216.458C162.432 215.662 162.292 215.064 162.013 214.662C161.738 214.26 161.334 214.059 160.801 214.059ZM167.193 220H165.695V210.123H167.193V220ZM172.125 212.84C172.751 212.84 173.289 212.969 173.737 213.227C174.186 213.485 174.531 213.851 174.772 214.325C175.013 214.799 175.134 215.366 175.134 216.026V216.826H170.443C170.46 217.507 170.642 218.032 170.989 218.4C171.34 218.769 171.831 218.953 172.461 218.953C172.91 218.953 173.312 218.91 173.667 218.826C174.027 218.737 174.397 218.608 174.778 218.438V219.651C174.427 219.816 174.069 219.937 173.706 220.013C173.342 220.089 172.906 220.127 172.398 220.127C171.708 220.127 171.101 219.994 170.576 219.727C170.056 219.456 169.647 219.054 169.351 218.521C169.059 217.988 168.913 217.326 168.913 216.534C168.913 215.747 169.046 215.078 169.313 214.528C169.58 213.978 169.954 213.559 170.437 213.271C170.919 212.984 171.482 212.84 172.125 212.84ZM172.125 213.963C171.655 213.963 171.274 214.116 170.982 214.42C170.695 214.725 170.525 215.172 170.475 215.76H173.674C173.67 215.409 173.61 215.097 173.496 214.827C173.386 214.556 173.217 214.344 172.988 214.192C172.764 214.04 172.476 213.963 172.125 213.963Z" fill="#505E70"/>
<mask id="path-33-inside-3_5202_31908" fill="white">
<path d="M93 174H144V160H93V174Z"/>
</mask>
<path d="M93 174V175H92V174H93ZM144 174H145V175H144V174ZM93 173H144V175H93V173ZM143 174V160H145V174H143ZM94 160V174H92V160H94Z" fill="#FDD306" mask="url(#path-33-inside-3_5202_31908)"/>
<line y1="-0.5" x2="27" y2="-0.5" transform="matrix(0 1 1 0 118.618 174)" stroke="#FDD306"/>
<path d="M501.31 210.72H504.071C505.269 210.72 506.172 210.893 506.782 211.24C507.391 211.587 507.696 212.186 507.696 213.037C507.696 213.392 507.632 213.714 507.505 214.001C507.383 214.285 507.203 214.52 506.966 214.706C506.729 214.888 506.437 215.011 506.09 215.074V215.138C506.45 215.201 506.769 215.313 507.048 215.474C507.332 215.635 507.554 215.866 507.715 216.166C507.88 216.466 507.962 216.856 507.962 217.334C507.962 217.901 507.827 218.383 507.556 218.781C507.29 219.179 506.907 219.482 506.407 219.689C505.912 219.896 505.324 220 504.643 220H501.31V210.72ZM502.833 214.547H504.293C504.983 214.547 505.461 214.435 505.728 214.211C505.995 213.987 506.128 213.659 506.128 213.227C506.128 212.787 505.969 212.47 505.652 212.275C505.339 212.08 504.839 211.983 504.154 211.983H502.833V214.547ZM502.833 215.779V218.724H504.439C505.15 218.724 505.65 218.587 505.938 218.312C506.225 218.036 506.369 217.664 506.369 217.194C506.369 216.907 506.304 216.657 506.172 216.445C506.045 216.234 505.836 216.071 505.544 215.957C505.252 215.838 504.858 215.779 504.363 215.779H502.833ZM515.853 212.973V220H514.678L514.475 219.054H514.393C514.244 219.295 514.056 219.496 513.828 219.657C513.599 219.814 513.345 219.93 513.066 220.006C512.787 220.087 512.493 220.127 512.184 220.127C511.655 220.127 511.202 220.038 510.825 219.86C510.453 219.678 510.167 219.399 509.968 219.022C509.769 218.646 509.67 218.159 509.67 217.562V212.973H511.168V217.283C511.168 217.829 511.278 218.237 511.498 218.508C511.722 218.779 512.069 218.915 512.539 218.915C512.992 218.915 513.352 218.821 513.618 218.635C513.885 218.449 514.073 218.174 514.183 217.81C514.297 217.446 514.354 217 514.354 216.471V212.973H515.853ZM522.714 217.994C522.714 218.455 522.602 218.845 522.378 219.162C522.154 219.479 521.826 219.721 521.394 219.886C520.967 220.047 520.442 220.127 519.82 220.127C519.329 220.127 518.906 220.091 518.55 220.019C518.199 219.951 517.867 219.846 517.554 219.702V218.413C517.888 218.57 518.263 218.705 518.677 218.819C519.096 218.934 519.492 218.991 519.864 218.991C520.355 218.991 520.708 218.915 520.924 218.762C521.14 218.606 521.248 218.398 521.248 218.14C521.248 217.988 521.204 217.852 521.115 217.734C521.03 217.611 520.869 217.486 520.632 217.359C520.4 217.228 520.057 217.072 519.604 216.89C519.16 216.712 518.785 216.534 518.48 216.356C518.176 216.179 517.945 215.965 517.789 215.715C517.632 215.461 517.554 215.138 517.554 214.744C517.554 214.122 517.799 213.65 518.29 213.329C518.785 213.003 519.439 212.84 520.251 212.84C520.683 212.84 521.089 212.884 521.47 212.973C521.855 213.058 522.232 213.183 522.6 213.348L522.13 214.471C521.813 214.332 521.493 214.217 521.172 214.128C520.854 214.035 520.531 213.989 520.201 213.989C519.816 213.989 519.521 214.048 519.318 214.167C519.119 214.285 519.02 214.454 519.02 214.674C519.02 214.839 519.069 214.979 519.166 215.093C519.263 215.208 519.431 215.322 519.667 215.436C519.909 215.55 520.243 215.692 520.67 215.861C521.089 216.022 521.451 216.191 521.756 216.369C522.065 216.543 522.302 216.756 522.467 217.01C522.632 217.264 522.714 217.592 522.714 217.994ZM527.158 220.127C526.493 220.127 525.918 219.998 525.431 219.74C524.944 219.482 524.57 219.086 524.308 218.553C524.045 218.02 523.914 217.342 523.914 216.521C523.914 215.667 524.058 214.968 524.346 214.427C524.633 213.885 525.031 213.485 525.539 213.227C526.051 212.969 526.637 212.84 527.297 212.84C527.716 212.84 528.095 212.882 528.434 212.967C528.776 213.047 529.066 213.147 529.303 213.265L528.859 214.458C528.601 214.353 528.336 214.264 528.065 214.192C527.795 214.12 527.534 214.084 527.285 214.084C526.874 214.084 526.531 214.175 526.256 214.357C525.986 214.539 525.782 214.81 525.647 215.169C525.516 215.529 525.45 215.976 525.45 216.509C525.45 217.025 525.518 217.461 525.653 217.816C525.789 218.168 525.99 218.434 526.256 218.616C526.523 218.794 526.851 218.883 527.24 218.883C527.625 218.883 527.97 218.836 528.275 218.743C528.58 218.65 528.867 218.529 529.138 218.381V219.676C528.872 219.829 528.586 219.941 528.281 220.013C527.977 220.089 527.602 220.127 527.158 220.127ZM533.543 212.84C534.432 212.84 535.103 213.037 535.556 213.43C536.013 213.824 536.241 214.437 536.241 215.271V220H535.181L534.896 219.003H534.845C534.646 219.257 534.441 219.467 534.229 219.632C534.017 219.797 533.772 219.92 533.493 220C533.218 220.085 532.881 220.127 532.483 220.127C532.064 220.127 531.69 220.051 531.36 219.898C531.03 219.742 530.77 219.505 530.579 219.188C530.389 218.87 530.293 218.468 530.293 217.981C530.293 217.258 530.562 216.714 531.1 216.35C531.641 215.986 532.458 215.785 533.55 215.747L534.769 215.703V215.334C534.769 214.848 534.654 214.501 534.426 214.293C534.201 214.086 533.884 213.982 533.474 213.982C533.122 213.982 532.782 214.033 532.452 214.135C532.122 214.236 531.8 214.361 531.487 214.509L531.004 213.456C531.347 213.274 531.736 213.125 532.172 213.011C532.612 212.897 533.069 212.84 533.543 212.84ZM534.762 216.642L533.854 216.674C533.11 216.699 532.587 216.826 532.287 217.055C531.986 217.283 531.836 217.596 531.836 217.994C531.836 218.341 531.94 218.595 532.147 218.756C532.354 218.912 532.627 218.991 532.966 218.991C533.482 218.991 533.91 218.845 534.248 218.553C534.591 218.257 534.762 217.823 534.762 217.251V216.642ZM540.691 220.127C539.853 220.127 539.18 219.822 538.672 219.213C538.169 218.599 537.917 217.696 537.917 216.502C537.917 215.296 538.173 214.384 538.685 213.767C539.201 213.149 539.881 212.84 540.723 212.84C541.078 212.84 541.389 212.889 541.656 212.986C541.922 213.079 542.151 213.206 542.341 213.367C542.536 213.528 542.701 213.707 542.836 213.906H542.906C542.885 213.775 542.86 213.587 542.83 213.341C542.805 213.092 542.792 212.861 542.792 212.649V210.123H544.29V220H543.122L542.855 219.042H542.792C542.665 219.245 542.504 219.429 542.31 219.594C542.119 219.755 541.891 219.884 541.624 219.981C541.362 220.078 541.051 220.127 540.691 220.127ZM541.11 218.915C541.749 218.915 542.2 218.73 542.462 218.362C542.724 217.994 542.86 217.442 542.868 216.706V216.509C542.868 215.722 542.741 215.119 542.487 214.7C542.233 214.277 541.77 214.065 541.097 214.065C540.56 214.065 540.149 214.283 539.866 214.719C539.586 215.15 539.447 215.753 539.447 216.528C539.447 217.302 539.586 217.895 539.866 218.305C540.149 218.711 540.564 218.915 541.11 218.915ZM552.65 216.471C552.65 217.055 552.574 217.573 552.421 218.026C552.269 218.479 552.047 218.862 551.755 219.175C551.463 219.484 551.112 219.721 550.701 219.886C550.291 220.047 549.827 220.127 549.311 220.127C548.829 220.127 548.386 220.047 547.984 219.886C547.582 219.721 547.233 219.484 546.937 219.175C546.645 218.862 546.419 218.479 546.258 218.026C546.097 217.573 546.017 217.055 546.017 216.471C546.017 215.696 546.15 215.04 546.417 214.503C546.687 213.961 547.072 213.549 547.572 213.265C548.071 212.982 548.666 212.84 549.355 212.84C550.003 212.84 550.574 212.982 551.069 213.265C551.564 213.549 551.952 213.961 552.231 214.503C552.51 215.045 552.65 215.701 552.65 216.471ZM547.553 216.471C547.553 216.983 547.614 217.421 547.737 217.785C547.864 218.149 548.058 218.428 548.321 218.623C548.583 218.813 548.922 218.908 549.336 218.908C549.751 218.908 550.09 218.813 550.352 218.623C550.614 218.428 550.807 218.149 550.93 217.785C551.052 217.421 551.114 216.983 551.114 216.471C551.114 215.959 551.052 215.525 550.93 215.169C550.807 214.81 550.614 214.537 550.352 214.351C550.09 214.16 549.749 214.065 549.33 214.065C548.712 214.065 548.262 214.272 547.978 214.687C547.694 215.102 547.553 215.696 547.553 216.471ZM557.925 212.84C558.043 212.84 558.172 212.846 558.312 212.859C558.452 212.872 558.572 212.889 558.674 212.91L558.534 214.306C558.445 214.281 558.335 214.262 558.204 214.249C558.077 214.236 557.963 214.23 557.861 214.23C557.595 214.23 557.341 214.274 557.1 214.363C556.858 214.448 556.645 214.579 556.458 214.757C556.272 214.93 556.126 215.148 556.021 215.411C555.915 215.673 555.862 215.978 555.862 216.325V220H554.364V212.973H555.532L555.735 214.211H555.805C555.944 213.961 556.118 213.733 556.325 213.525C556.533 213.318 556.77 213.153 557.036 213.03C557.307 212.903 557.603 212.84 557.925 212.84Z" fill="#505E70"/>
<mask id="path-37-inside-4_5202_31908" fill="white">
<path d="M443 174H618V160H443V174Z"/>
</mask>
<path d="M443 174V175H442V174H443ZM618 174H619V175H618V174ZM443 173H618V175H443V173ZM617 174V160H619V174H617ZM444 160V174H442V160H444Z" fill="#FDD306" mask="url(#path-37-inside-4_5202_31908)"/>
<line y1="-0.5" x2="27" y2="-0.5" transform="matrix(0 1 1 0 530.5 174)" stroke="#FDD306"/>
<rect x="1" y="1" width="710" height="247" rx="7" stroke="#E6EBF0" stroke-width="2"/>
<defs>
<clipPath id="clip0_5202_31908">
<rect width="700" height="44.0703" fill="white" transform="translate(6 109)"/>
</clipPath>
</defs>
</svg>
