<svg xmlns="http://www.w3.org/2000/svg" xmlns:xlink="http://www.w3.org/1999/xlink" width="760" height="434.91" viewBox="0 0 760 434.91">
  <defs>
    <filter id="Rectángulo_6577" x="67.311" y="0" width="635.244" height="434.91" filterUnits="userSpaceOnUse">
      <feOffset dy="7.72" input="SourceAlpha"/>
      <feGaussianBlur stdDeviation="28.858" result="blur"/>
      <feFlood flood-color="#202933" flood-opacity="0.6"/>
      <feComposite operator="in" in2="blur"/>
      <feComposite in="SourceGraphic"/>
    </filter>
    <clipPath id="clip-path">
      <ellipse id="Elipse_873" data-name="Elipse 873" cx="31.425" cy="31.425" rx="31.425" ry="31.425" transform="translate(9.941 72) rotate(-99.1)" fill="#e0e0e0"/>
    </clipPath>
  </defs>
  <g id="Grupo_18567" data-name="Grupo 18567" transform="translate(-20 -392.338)">
    <path id="Trazado_10882" data-name="Trazado 10882" d="M0,0H380V760H0Z" transform="translate(20 780) rotate(-90)" fill="#f3f6f9"/>
    <g transform="matrix(1, 0, 0, 1, 20, 392.34)" filter="url(#Rectángulo_6577)">
      <rect id="Rectángulo_6577-2" data-name="Rectángulo 6577" width="462.097" height="261.763" transform="translate(153.88 78.85)" fill="#e2e7eb"/>
    </g>
    <rect id="Rectángulo_6578" data-name="Rectángulo 6578" width="519.022" height="303.581" rx="29.554" transform="translate(145.453 429.776)" fill="#f7f9fc"/>
    <g id="Grupo_18574" data-name="Grupo 18574" transform="translate(0 -17)">
      <g id="Grupo_18541" data-name="Grupo 18541" transform="translate(185.001 468.999)">
        <ellipse id="Elipse_676" data-name="Elipse 676" cx="35.997" cy="35.997" rx="35.997" ry="35.997" transform="translate(0.002 71.996) rotate(-90)" fill="#e0e0e0"/>
        <g id="Enmascarar_grupo_52" data-name="Enmascarar grupo 52" transform="translate(0 0)" clip-path="url(#clip-path)">
          <g id="freepik--Character--inject-158" transform="translate(-1.434 9.539)">
            <path id="Trazado_558" data-name="Trazado 558" d="M95.1,169.238a8.837,8.837,0,0,0-9,2.259,16.511,16.511,0,0,1-2.277,2.4c-2.051,1.434-4.944.791-7.2,1.868a5.874,5.874,0,0,0-2.963,6.43,7.473,7.473,0,0,0,5.04,5.283,10.332,10.332,0,0,0,7.438-.652,17.083,17.083,0,0,0,5.874-4.779c2.885-3.476,4.84-8.02,4.345-12.539" transform="translate(-69.191 -127.387)" fill="#ffdb2e"/>
            <path id="Trazado_559" data-name="Trazado 559" d="M94.961,169.54l-2.685,6.839L76.34,186.3l7.768,50.4s-6.543,10.94-6.413,19v.061a2.329,2.329,0,0,0,1.894,2.242c4.953,1,21.3,4.006,32.342,2.937,12.7-1.182,17.987-3.241,17.987-3.241l1.738-7.49L129.51,243.8l-2.937-51.05s-1.138-8.689-3.093-11.018l-5.622-4.345-3.041-5.4Z" transform="translate(-69.56 -127.48)" fill="#ffdb2e"/>
            <path id="Trazado_560" data-name="Trazado 560" d="M125.24,179.45c6.413,2.12,12.643,5.057,12.8,17.666s1.13,41.11,1.13,41.11l-11.374-5.214-2.555-46.254Z" transform="translate(-75.969 -128.779)" fill="#ffdb2e"/>
            <g id="Grupo_34" data-name="Grupo 34" transform="translate(9.725 97.326)" opacity="0.3">
              <path id="Trazado_561" data-name="Trazado 561" d="M79.73,255.611a50.853,50.853,0,0,0,8.924,1.469,15.78,15.78,0,0,0,8.394-1.738,31.743,31.743,0,0,0,4.927-3.849,100.416,100.416,0,0,1,13.755-9.445l7.673-4.666a5.536,5.536,0,0,0,1.738-1.434,1.912,1.912,0,0,0,.148-2.129,1.885,1.885,0,0,0-1.842-.634,5.43,5.43,0,0,0-1.877.8l-8.377,4.892c-10.262,5.987-20.854,12.1-32.585,13.9Z" transform="translate(-79.73 -233.142)"/>
            </g>
            <path id="Trazado_562" data-name="Trazado 562" d="M89.264,224.834a.921.921,0,0,1,.339-.452l1.573-1.13a.869.869,0,0,0,.382-.791l-.426-7.343v-.069c0-.817.365-16.927-1.46-22.2-1.738-5.109-6.2-7.9-14.216-5.014a21.128,21.128,0,0,0-1.92,2.1h0a17.11,17.11,0,0,0-2.511,8.377l-.573,17.318s-1.59,15.971-1.816,18.135c-.574,5.387,1.382,14.112,5.961,14.772,2.068.287,15.458-2.494,18.109-3.224a5.613,5.613,0,0,0,1.868-2.172l1.677-16.51a1.442,1.442,0,0,0-1.382-1.581Z" transform="translate(-68.538 -129.726)" fill="#ffdb2e"/>
            <path id="Trazado_563" data-name="Trazado 563" d="M94.614,203.75a5.283,5.283,0,0,1,.087.982c0,.713.061,1.616.1,2.685.07,2.268.139,5.4.191,8.872,0,1.738,0,3.372.052,4.883a7.047,7.047,0,0,1-.765,3.945A5.97,5.97,0,0,1,92.329,227a2.771,2.771,0,0,1-.869.408s.3-.174.817-.539a6.17,6.17,0,0,0,1.8-1.9,6.951,6.951,0,0,0,.643-3.789c0-1.512-.061-3.163-.087-4.883-.052-3.476-.078-6.6-.069-8.872v-2.694A4.015,4.015,0,0,1,94.614,203.75Z" transform="translate(-71.542 -131.964)" fill="#263238"/>
            <path id="Trazado_564" data-name="Trazado 564" d="M84.73,238.521a3.71,3.71,0,0,1,.235-1.4,9.558,9.558,0,0,1,1.547-3.041,8.437,8.437,0,0,1,2.607-2.259,3.206,3.206,0,0,1,1.321-.521,13.3,13.3,0,0,0-3.571,3.015A17.068,17.068,0,0,0,84.73,238.521Z" transform="translate(-70.66 -135.575)" fill="#263238"/>
            <path id="Trazado_565" data-name="Trazado 565" d="M81.14,234.6a3.8,3.8,0,0,1,.921-1.2,9.316,9.316,0,0,1,3.059-2.007,9.185,9.185,0,0,1,3.589-.66,3.7,3.7,0,0,1,1.495.235,11.286,11.286,0,0,1-1.486.043,10.67,10.67,0,0,0-6.465,2.607A11.381,11.381,0,0,1,81.14,234.6Z" transform="translate(-70.19 -135.499)" fill="#263238"/>
            <g id="Grupo_35" data-name="Grupo 35" transform="translate(7.781 94.678)" opacity="0.3">
              <path id="Trazado_566" data-name="Trazado 566" d="M89.438,230.664a11.574,11.574,0,0,0-11.3,2.372c-.382.348-.765.869-.617,1.312a.973.973,0,0,0,.869.634,2.407,2.407,0,0,0,1.095-.2,38.621,38.621,0,0,0,4.9-2.607,8.776,8.776,0,0,1,5.318-1.338" transform="translate(-77.493 -230.094)"/>
            </g>
            <path id="Trazado_567" data-name="Trazado 567" d="M136.17,225.87c1.946,8.455,4.64,16.779,5.466,25.417.374,3.884.287,8.073-1.868,11.3a8.2,8.2,0,0,1-3.345,2.98" transform="translate(-77.402 -134.863)" fill="#ffdb2e"/>
            <path id="Trazado_568" data-name="Trazado 568" d="M134.278,195.86a1.276,1.276,0,0,1,.052.408c0,.322.043.713.069,1.173,0,1.095.113,2.555.183,4.345.156,3.65.374,8.689.765,14.233s.956,10.566,1.442,14.172c.243,1.807.452,3.276.608,4.284l.165,1.164a1.217,1.217,0,0,1,0,.408,1.4,1.4,0,0,1-.113-.4c-.069-.313-.148-.686-.252-1.147-.209-1-.461-2.459-.747-4.258-.574-3.615-1.173-8.629-1.581-14.19s-.556-10.61-.626-14.259c0-1.825-.052-3.3-.043-4.345v-1.182A1.366,1.366,0,0,1,134.278,195.86Z" transform="translate(-77.144 -130.93)" fill="#263238"/>
            <path id="Trazado_569" data-name="Trazado 569" d="M90.664,175.51a6.584,6.584,0,0,1-.608.573c-.408.348-1.017.869-1.738,1.408-1.529,1.156-3.7,2.668-6.083,4.345s-4.484,3.276-5.944,4.5-2.32,2.033-2.372,1.981a3.024,3.024,0,0,1,.53-.643c.365-.391.921-.938,1.634-1.581a63.065,63.065,0,0,1,5.891-4.631c2.39-1.677,4.579-3.146,6.152-4.232A25.6,25.6,0,0,1,90.664,175.51Z" transform="translate(-69.243 -128.263)" fill="#263238"/>
            <path id="Trazado_570" data-name="Trazado 570" d="M99.775,231.912l3.91-1.642v16.84l-6.8,2.555Z" transform="translate(-72.254 -135.44)" fill="#ffdb2e"/>
            <path id="Trazado_571" data-name="Trazado 571" d="M89.14,232.083a4.88,4.88,0,0,1,1.077-.209l2.937-.382,2.042-.243,1.13-.13a6.476,6.476,0,0,1,1.251-.07,1.651,1.651,0,0,1,1.243.669,2.338,2.338,0,0,1,.313,1.408c-.087.947-.287,1.833-.426,2.781-.608,3.771-1.077,7.2-1.5,9.68-.209,1.234-.4,2.233-.539,2.92a4.4,4.4,0,0,1-.269,1.06,5.9,5.9,0,0,1,.1-1.086c.1-.782.235-1.738.4-2.937.339-2.485.756-5.926,1.373-9.706.13-.938.348-1.886.426-2.729a1.9,1.9,0,0,0-.226-1.147,1.243,1.243,0,0,0-.93-.5,18.187,18.187,0,0,0-2.3.156l-2.042.191-2.954.243A5.834,5.834,0,0,1,89.14,232.083Z" transform="translate(-71.238 -135.541)" fill="#263238"/>
            <path id="Trazado_572" data-name="Trazado 572" d="M103.79,234.82a6.5,6.5,0,0,1-2.051,1.26,6.518,6.518,0,0,1-2.259.869,6.6,6.6,0,0,1,2.059-1.26A6.569,6.569,0,0,1,103.79,234.82Z" transform="translate(-72.593 -136.036)" fill="#263238"/>
            <path id="Trazado_573" data-name="Trazado 573" d="M103.874,243.15a14.456,14.456,0,0,1-2.685,1.26,7.448,7.448,0,0,1-2.859.869,14.451,14.451,0,0,1,2.685-1.26A7.638,7.638,0,0,1,103.874,243.15Z" transform="translate(-72.443 -137.128)" fill="#263238"/>
            <path id="Trazado_574" data-name="Trazado 574" d="M97.82,249.319a9.481,9.481,0,0,1,1.6-.721c1.034-.426,2.529-1.017,4.345-1.738l-.122.182V239.7c0-3.693,0-7.047.061-9.5l.226.148-2.894,1.138a6.44,6.44,0,0,1-1.077.356,4.81,4.81,0,0,1,1.008-.53l2.841-1.26.217-.1v.252c0,2.45.061,5.8.061,9.5v7.473l-.122.052c-1.816.652-3.319,1.19-4.345,1.555A11.151,11.151,0,0,1,97.82,249.319Z" transform="translate(-72.376 -135.398)" fill="#263238"/>
            <path id="Trazado_575" data-name="Trazado 575" d="M114.467,180.189a1.851,1.851,0,0,1-.617.287,7.388,7.388,0,0,1-1.825.391,12.079,12.079,0,0,1-6-1.095,23.7,23.7,0,0,1-5.135-3.293A13.488,13.488,0,0,1,99,174.81a14.92,14.92,0,0,1,2.068,1.434,29.351,29.351,0,0,0,5.118,3.128,12.9,12.9,0,0,0,5.8,1.19A23.54,23.54,0,0,0,114.467,180.189Z" transform="translate(-72.53 -128.171)" fill="#263238"/>
            <path id="Trazado_576" data-name="Trazado 576" d="M118.845,178.8c.087.087-.061.4-.33.712s-.573.5-.669.408.052-.4.33-.712S118.715,178.719,118.845,178.8Z" transform="translate(-74.997 -128.691)" fill="#263238"/>
            <path id="Trazado_577" data-name="Trazado 577" d="M113.412,249.47a3.137,3.137,0,0,1-.1.669,10.628,10.628,0,0,1-.582,1.738,15.363,15.363,0,0,1-8.55,8.272,11.408,11.408,0,0,1-1.738.521c-.434.078-.669.113-.678.078s.921-.287,2.32-.869a16.675,16.675,0,0,0,8.316-8.125C113.091,250.374,113.334,249.453,113.412,249.47Z" transform="translate(-72.892 -137.956)" fill="#263238"/>
            <path id="Trazado_578" data-name="Trazado 578" d="M131.367,245.6a8.55,8.55,0,0,1-1.851.6c-1.164.3-2.781.678-4.579,1.017s-3.476.582-4.64.721a7.676,7.676,0,0,1-1.946.113,9.655,9.655,0,0,1,1.894-.434l4.605-.869,4.6-.869A8.251,8.251,0,0,1,131.367,245.6Z" transform="translate(-75.066 -137.449)" fill="#263238"/>
            <path id="Trazado_579" data-name="Trazado 579" d="M146.941,207.34l-5.266,2.442-2.468,2.5s5.744-.678,5.9.287.174,2.059-.209,2.363a6.422,6.422,0,0,0-.938,1.208s1.382,1.538.869,2.329a8.988,8.988,0,0,0-.869,1.59l-.817-.07s.087,2.989-.539,3.4a2.451,2.451,0,0,1-1.356.573,25.2,25.2,0,0,1-2.607.243l-.947-.087s-4.927,6.2-6.691,6.083-5.014-.209-5.014-.209A66.726,66.726,0,0,1,98.35,246.061l1.26-14.372.174-2.607,27.146-9.767,9.654-10.766,4.518-2.216,6.578-1.443a2.242,2.242,0,0,1-.739,2.451Z" transform="translate(-72.445 -132.113)" fill="#ffbe9d"/>
            <path id="Trazado_580" data-name="Trazado 580" d="M130.15,229.947h.991l2.841.07h.973a1.573,1.573,0,0,0,.973-.217,9.934,9.934,0,0,0,1.886-1.469,45.248,45.248,0,0,0,3.928-4.345l.052-.061h.078l.938.078h0a14.64,14.64,0,0,0,1.738-.139,8.051,8.051,0,0,0,.869-.122,2.207,2.207,0,0,0,.825-.278l.4-.269a.747.747,0,0,0,.191-.322,4.344,4.344,0,0,0,.191-.921,17.023,17.023,0,0,0,.07-2.007v-.209h.209l.817.07-.182.113a8.389,8.389,0,0,1,.461-.982c.148-.322.461-.66.478-.869a1.8,1.8,0,0,0-.3-.956,4.806,4.806,0,0,0-.626-.869l-.1-.113.07-.122a9.471,9.471,0,0,1,.713-.991c.078-.078.148-.156.235-.235a.443.443,0,0,0,.139-.174,1.633,1.633,0,0,0,.113-.521,6.075,6.075,0,0,0,0-1.19l-.043-.3c0-.052,0-.061-.087-.113a1.668,1.668,0,0,0-.521-.165,23.335,23.335,0,0,0-5.083.139l-.547.052.382-.391.1-.087,2.381-2.416h0l5.266-2.433h0a2.068,2.068,0,0,0,.678-2.285l.217.122-6.587,1.434h0l-4.527,2.2.043-.043-7.091,7.82-1.964,2.129-.521.547-.191.182a1.414,1.414,0,0,1,.156-.209l.487-.582,1.9-2.181c1.677-1.9,4.067-4.605,6.995-7.9h0l4.51-2.224h.043l6.569-1.46h.174l.043.156a2.416,2.416,0,0,1-.782,2.72h0l-5.257,2.433h.052l-2.381,2.416-.087.087-.165-.33c.869-.1,1.738-.174,2.607-.217a14.337,14.337,0,0,1,2.607.078,1.868,1.868,0,0,1,.66.226.539.539,0,0,1,.261.382l.043.313a6.269,6.269,0,0,1,0,1.277,2.094,2.094,0,0,1-.156.652.869.869,0,0,1-.235.3,1.984,1.984,0,0,0-.191.191,7.147,7.147,0,0,0-.617.843v-.226a5.669,5.669,0,0,1,.678.965,2.207,2.207,0,0,1,.33,1.173,1.33,1.33,0,0,1-.252.582c-.1.148-.183.3-.269.452a10.228,10.228,0,0,0-.452.938l-.052.13h-.13l-.869-.078.2-.182a16,16,0,0,1-.087,2.051,5.068,5.068,0,0,1-.209,1.008,1.06,1.06,0,0,1-.33.487l-.4.269a2.442,2.442,0,0,1-.956.321,8.792,8.792,0,0,1-.93.122c-.608.061-1.208.1-1.781.122h0l-.938-.087.13-.052a43.753,43.753,0,0,1-4,4.345A9.648,9.648,0,0,1,136,230.077a2.863,2.863,0,0,1-.539.2,1.965,1.965,0,0,1-.547,0l-.973-.052-2.824-.156-.739-.052Z" transform="translate(-76.613 -132.092)" fill="#eb996e"/>
            <path id="Trazado_581" data-name="Trazado 581" d="M149.951,217.552c0,.043-.33-.165-.869-.348A5.014,5.014,0,0,0,146.91,217a12.949,12.949,0,0,0-2.172.5c-.565.174-.869.261-.938.209s.3-.235.869-.469a8.181,8.181,0,0,1,2.233-.626,4.345,4.345,0,0,1,2.285.339C149.742,217.213,149.986,217.518,149.951,217.552Z" transform="translate(-78.401 -133.645)" fill="#eb996e"/>
            <path id="Trazado_582" data-name="Trazado 582" d="M149.128,222.246a.921.921,0,0,0-.391-.678,4.171,4.171,0,0,0-2.025-.191,12.936,12.936,0,0,0-2.9.808,4.267,4.267,0,0,1,2.859-1.19,5.218,5.218,0,0,1,1.234,0,1.956,1.956,0,0,1,.991.339.869.869,0,0,1,.339.652C149.189,222.176,149.189,222.255,149.128,222.246Z" transform="translate(-78.403 -134.219)" fill="#eb996e"/>
            <path id="Trazado_583" data-name="Trazado 583" d="M146.4,224.893c0,.052-.235.156-.652.2a7.532,7.532,0,0,0-1.521.209,1.077,1.077,0,0,0-.817.965c0,.365.209.53.174.582s-.356-.07-.452-.547a1.086,1.086,0,0,1,.183-.8,1.625,1.625,0,0,1,.782-.582,4.293,4.293,0,0,1,1.642-.1C146.134,224.841,146.378,224.841,146.4,224.893Z" transform="translate(-78.312 -134.72)" fill="#eb996e"/>
            <path id="Trazado_584" data-name="Trazado 584" d="M97.268,136.762l.93,27.328,9.68,6.352a6.352,6.352,0,0,0,9.758-4.345h0V162.83s7.768-.8,8.264-8.5c.243-3.745.113-11.513-.087-18.508a14.277,14.277,0,0,0-14.207-13.9h0a14.285,14.285,0,0,0-14.337,14.841Z" transform="translate(-72.302 -121.239)" fill="#ffbe9d"/>
            <path id="Trazado_585" data-name="Trazado 585" d="M119.237,168.49a17.97,17.97,0,0,1-9.9-3.38s2.085,5.665,9.81,5.379Z" transform="translate(-73.886 -126.9)" fill="#eb996e"/>
            <path id="Trazado_586" data-name="Trazado 586" d="M127.667,144.111a1.1,1.1,0,0,1-1.121,1.051,1.06,1.06,0,0,1-1.086-1.051,1.1,1.1,0,0,1,1.121-1.051,1.06,1.06,0,0,1,1.086,1.051Z" transform="translate(-75.998 -124.01)" fill="#263238"/>
            <path id="Trazado_587" data-name="Trazado 587" d="M127.341,142.258c-.139.13-.947-.53-2.129-.591s-2.085.5-2.207.339.1-.322.487-.573a3.032,3.032,0,0,1,1.738-.443,2.789,2.789,0,0,1,1.686.643C127.341,141.928,127.4,142.2,127.341,142.258Z" transform="translate(-75.672 -123.738)" fill="#263238"/>
            <path id="Trazado_588" data-name="Trazado 588" d="M114.288,144a1.1,1.1,0,0,1-1.112,1.06A1.06,1.06,0,0,1,112.09,144a1.1,1.1,0,0,1,1.121-1.051A1.043,1.043,0,0,1,114.288,144Z" transform="translate(-74.246 -123.996)" fill="#263238"/>
            <path id="Trazado_589" data-name="Trazado 589" d="M113.921,141.808c-.148.139-.947-.521-2.129-.582s-2.085.487-2.207.339.1-.321.487-.582a3.032,3.032,0,0,1,1.738-.443,2.9,2.9,0,0,1,1.686.643C113.877,141.478,113.99,141.747,113.921,141.808Z" transform="translate(-73.913 -123.679)" fill="#263238"/>
            <path id="Trazado_590" data-name="Trazado 590" d="M118.988,150.877a7.824,7.824,0,0,1,1.938-.252c.3,0,.6-.061.66-.261a1.581,1.581,0,0,0-.156-.912l-.773-2.346a51.314,51.314,0,0,1-1.738-6.126,40.079,40.079,0,0,1,2.181,5.978l.739,2.355a1.8,1.8,0,0,1,.1,1.2.773.773,0,0,1-.521.417,1.883,1.883,0,0,1-.521,0A8.386,8.386,0,0,1,118.988,150.877Z" transform="translate(-75.14 -123.737)" fill="#263238"/>
            <path id="Trazado_591" data-name="Trazado 591" d="M114.391,136.526c-.13.313-1.3.1-2.7.191s-2.546.417-2.711.122c-.078-.148.13-.434.6-.73a4.588,4.588,0,0,1,2.042-.591,4.414,4.414,0,0,1,2.085.356C114.209,136.109,114.452,136.37,114.391,136.526Z" transform="translate(-73.836 -123.02)" fill="#263238"/>
            <path id="Trazado_592" data-name="Trazado 592" d="M127.093,138.269c-.226.261-1.025-.061-2.007-.122s-1.825.087-2-.209c-.078-.139.07-.4.443-.634a2.92,2.92,0,0,1,3.224.261C127.084,137.861,127.188,138.148,127.093,138.269Z" transform="translate(-75.685 -123.208)" fill="#263238"/>
            <path id="Trazado_593" data-name="Trazado 593" d="M99.476,146.419c-.13-.061-5.214-1.842-5.327,3.432S99.363,154.2,99.363,154,99.476,146.419,99.476,146.419Z" transform="translate(-71.894 -124.406)" fill="#ffbe9d"/>
            <path id="Trazado_594" data-name="Trazado 594" d="M98.009,152.227a2.117,2.117,0,0,1-.252.13.964.964,0,0,1-.686,0,2.259,2.259,0,0,1-1.008-2.068,3.059,3.059,0,0,1,.278-1.312,1.06,1.06,0,0,1,.713-.686.461.461,0,0,1,.53.261c.07.148,0,.252.061.261s.113-.087.078-.3a.565.565,0,0,0-.2-.33.7.7,0,0,0-.5-.148,1.3,1.3,0,0,0-.982.8,3.189,3.189,0,0,0-.348,1.469,2.4,2.4,0,0,0,1.295,2.3.973.973,0,0,0,.869-.122C97.992,152.348,98.027,152.235,98.009,152.227Z" transform="translate(-72.096 -124.661)" fill="#eb996e"/>
            <path id="Trazado_595" data-name="Trazado 595" d="M119.685,155.655a1.738,1.738,0,1,0,0,2.607" transform="translate(-74.863 -125.604)" fill="#eb996e"/>
            <path id="Trazado_596" data-name="Trazado 596" d="M119.159,158.445a1.144,1.144,0,0,1-.973.287,1.691,1.691,0,1,1,.426-3.354,1.079,1.079,0,0,1,.869.521,2.315,2.315,0,0,0-.869-.2,1.451,1.451,0,0,0-.869.261,1.382,1.382,0,0,0-.252,1.964,1.538,1.538,0,0,0,.782.478C118.777,158.523,119.133,158.375,119.159,158.445Z" transform="translate(-74.85 -125.622)" fill="#263238"/>
            <path id="Trazado_597" data-name="Trazado 597" d="M121.666,127.24c.869-.478-1.738-3.285-3.867-4.258-3.224-1.46-8.151-2.364-11.122-1.521-3.58,1.008-6.951,2.407-8.75,5.665s-2.094,7.56-1.99,11.3c0,1.138.348,4.223.938,4.536.991.513,2.016.547,1.955,2.19a2.233,2.233,0,0,0,.556,1.634c.982,1.043,2.181.061,2.737-.921,1.173-2.094,1.312-4.605,1.416-7.012a15.919,15.919,0,0,0-.339-5.1c-.261-.869-.686-1.738-.869-2.607a3.232,3.232,0,0,1,.382-2.676,2.873,2.873,0,0,1,.434-.443,5.6,5.6,0,0,1,5.552-1.051c3.015,1.069,8.168,2.668,9.558,1.642a8.256,8.256,0,0,0,2.407-2.433Z" transform="translate(-72.127 -121.137)" fill="#455a64"/>
            <path id="Trazado_598" data-name="Trazado 598" d="M118.1,122.982c-3.224-1.46-8.151-2.364-11.122-1.521-3.58,1.008-6.951,2.407-8.75,5.665l5.214.869A5.6,5.6,0,0,1,109,126.944c3.015,1.069,8.168,2.668,9.558,1.642a8.255,8.255,0,0,0,2.407-2.433l1.069,1.121C122.83,126.762,120.231,123.955,118.1,122.982Z" transform="translate(-72.429 -121.137)" fill="#263238"/>
            <path id="Trazado_599" data-name="Trazado 599" d="M102.564,130.481a7.916,7.916,0,0,1-2.607-.061,7.864,7.864,0,0,1-2.607-.5,7.515,7.515,0,0,1,2.607.052A7.489,7.489,0,0,1,102.564,130.481Z" transform="translate(-72.314 -122.276)" fill="#263238"/>
            <path id="Trazado_600" data-name="Trazado 600" d="M115.827,220.849a5.874,5.874,0,0,1-.113-2.19,13.3,13.3,0,0,1,2.068-5.579c1.269-2.19,3.311-4.432,4.883-7.325a14.038,14.038,0,0,0,.991-2.3,7.172,7.172,0,0,0,.261-1.26.73.73,0,0,0-.087-.5c-.069-.1-.191-.139-.4-.113a15.076,15.076,0,0,0-5.1,1.972c-1.651.947-3.2,2.007-4.805,2.868-.4.226-.8.426-1.217.617a1.9,1.9,0,0,1-1.442.148,1.286,1.286,0,0,1-.756-1.234,3.615,3.615,0,0,1,.287-1.312,85.237,85.237,0,0,1,4.266-7.751c1.321-2.138,2.476-3.815,3.3-4.953.408-.565.739-1.008.965-1.295a2.787,2.787,0,0,1,.365-.434,2.462,2.462,0,0,1-.287.487l-.869,1.347c-.773,1.164-1.886,2.859-3.172,5.014s-2.746,4.779-4.153,7.742a3.163,3.163,0,0,0-.243,1.147.869.869,0,0,0,.5.869c.669.235,1.512-.374,2.285-.747,1.573-.869,3.119-1.92,4.8-2.876a15.4,15.4,0,0,1,5.266-2.025.869.869,0,0,1,.817.3,1.225,1.225,0,0,1,.165.791,8.149,8.149,0,0,1-.33,1.321,13.9,13.9,0,0,1-1.034,2.372c-1.634,2.946-3.693,5.153-4.979,7.29a13.825,13.825,0,0,0-2.164,5.431A13.284,13.284,0,0,0,115.827,220.849Z" transform="translate(-73.986 -130.189)" fill="#fff"/>
          </g>
        </g>
      </g>
      <text id="Heraldo" transform="translate(281 509)" fill="#505e70" font-size="32" font-family="Nunito-Bold, Nunito" font-weight="700"><tspan x="0" y="0">Heraldo</tspan></text>
      <text id="Escenario" transform="translate(446 496)" fill="#505e70" font-size="8" font-family="Nunito-Bold, Nunito" font-weight="700" letter-spacing="0.01em"><tspan x="0" y="0">Escenario</tspan></text>
      <text id="Expectativas" transform="translate(529 496)" fill="#505e70" font-size="8" font-family="Nunito-Bold, Nunito" font-weight="700" letter-spacing="0.01em"><tspan x="0" y="0">Expectativas</tspan></text>
      <rect id="Rectángulo_6599" data-name="Rectángulo 6599" width="50" height="8" rx="4" transform="translate(282 520)" fill="#9eaab8" opacity="0.25"/>
      <rect id="Rectángulo_6601" data-name="Rectángulo 6601" width="50" height="4" rx="2" transform="translate(446 503)" fill="#9eaab8" opacity="0.25"/>
      <rect id="Rectángulo_6606" data-name="Rectángulo 6606" width="50" height="4" rx="2" transform="translate(533 503)" fill="#9eaab8" opacity="0.25"/>
      <rect id="Rectángulo_6612" data-name="Rectángulo 6612" width="52" height="4" rx="2" transform="translate(533 539)" fill="#9eaab8" opacity="0.25"/>
      <rect id="Rectángulo_6610" data-name="Rectángulo 6610" width="46" height="4" rx="2" transform="translate(533 521)" fill="#9eaab8" opacity="0.25"/>
      <rect id="Rectángulo_6608" data-name="Rectángulo 6608" width="38" height="4" rx="2" transform="translate(533 511)" fill="#9eaab8" opacity="0.25"/>
      <rect id="Rectángulo_6609" data-name="Rectángulo 6609" width="41" height="4" rx="2" transform="translate(533 529)" fill="#9eaab8" opacity="0.25"/>
      <rect id="Rectángulo_6607" data-name="Rectángulo 6607" width="2" height="2" rx="1" transform="translate(529 504)" fill="#007bc7" opacity="0.25"/>
      <rect id="Rectángulo_6613" data-name="Rectángulo 6613" width="2" height="2" rx="1" transform="translate(529 540)" fill="#007bc7" opacity="0.25"/>
      <rect id="Rectángulo_6611" data-name="Rectángulo 6611" width="2" height="2" rx="1" transform="translate(529 522)" fill="#007bc7" opacity="0.25"/>
      <rect id="Rectángulo_6602" data-name="Rectángulo 6602" width="54" height="4" rx="2" transform="translate(446 511)" fill="#9eaab8" opacity="0.25"/>
      <rect id="Rectángulo_6603" data-name="Rectángulo 6603" width="47" height="4" rx="2" transform="translate(446 519)" fill="#9eaab8" opacity="0.25"/>
      <rect id="Rectángulo_6604" data-name="Rectángulo 6604" width="49" height="4" rx="2" transform="translate(446 527)" fill="#9eaab8" opacity="0.25"/>
      <rect id="Rectángulo_6605" data-name="Rectángulo 6605" width="33" height="4" rx="2" transform="translate(446 535)" fill="#9eaab8" opacity="0.25"/>
      <rect id="Rectángulo_6600" data-name="Rectángulo 6600" width="78" height="8" rx="4" transform="translate(282 532)" fill="#9eaab8" opacity="0.25"/>
    </g>
    <rect id="Rectángulo_6629" data-name="Rectángulo 6629" width="119" height="182.457" rx="18.263" transform="translate(359 541.876)" fill="#f5d8e3" opacity="0.5"/>
    <rect id="Rectángulo_6630" data-name="Rectángulo 6630" width="208.547" height="182.457" rx="18.263" transform="translate(148.453 541.876)" fill="#dff1fd" opacity="0.5"/>
    <rect id="Rectángulo_6631" data-name="Rectángulo 6631" width="180.476" height="182.457" rx="18.263" transform="translate(480 541.876)" fill="#e4f2d5" opacity="0.5"/>
    <rect id="Rectángulo_6632" data-name="Rectángulo 6632" width="50" height="8" rx="4" transform="translate(160 550)" fill="#007bc7" opacity="0.25"/>
    <rect id="Rectángulo_6633" data-name="Rectángulo 6633" width="63" height="8" rx="4" transform="translate(371 550)" fill="#c93b3b" opacity="0.25"/>
    <rect id="Rectángulo_6634" data-name="Rectángulo 6634" width="63" height="8" rx="4" transform="translate(492 550)" fill="#26874a" opacity="0.25"/>
    <g id="Grupo_18573" data-name="Grupo 18573" transform="translate(0 5.333)">
      <path id="Trazado_11039" data-name="Trazado 11039" d="M264.551,663.847s31.7-5.911,42.667,17.512,50.843,30.871,65.111,17.23,42.85-42.836,64.158-45.36,35.483,5.327,43.248,28.13,2.362,59.252,22.724,62.647,25.954-43.587,58.829-85.071,56.772-40.157,77.3-32.107,24.939,47.892,28.949,62.091,19.624,39.408,44.289,23.391,17.989-25.64,48.378-34.863" transform="translate(-111.097 -64)" fill="none" stroke="#a0aab7" stroke-width="1"/>
      <g id="Grupo_18567-2" data-name="Grupo 18567" transform="translate(-1104.117 -621)">
        <circle id="Elipse_877" data-name="Elipse 877" cx="10" cy="10" r="10" transform="translate(1257.57 1211)" fill="#ffdb2e"/>
        <g id="Grupo_18554" data-name="Grupo 18554" transform="translate(1263.591 1219.999)" opacity="0.3">
          <path id="Trazado_11021" data-name="Trazado 11021" d="M175.14,62.37c.085,0,.19.25.25.761a7.06,7.06,0,0,1-.1,2.134,9.306,9.306,0,0,1-.4,1.437,10.031,10.031,0,0,1-.749,1.552,9.276,9.276,0,0,1-6.314,4.447,10.062,10.062,0,0,1-1.712.175,9.407,9.407,0,0,1-1.5-.11,7.077,7.077,0,0,1-2.044-.621c-.449-.23-.664-.417-.631-.5.075-.19,1.1.162,2.76.2a11.554,11.554,0,0,0,1.345-.052,11,11,0,0,0,1.5-.267,9.216,9.216,0,0,0,5.558-3.916,10.94,10.94,0,0,0,.764-1.33,12.559,12.559,0,0,0,.5-1.248C174.93,63.458,174.93,62.375,175.14,62.37Z" transform="translate(-161.937 -62.37)" fill="#505e70"/>
        </g>
        <g id="Grupo_18555" data-name="Grupo 18555" transform="translate(1258.116 1211.611)" opacity="0.3">
          <path id="Trazado_11022" data-name="Trazado 11022" d="M149,28.908c0,.11-.878.057-2.2.4a8.9,8.9,0,0,0-2.2.9,8.061,8.061,0,0,0-3.644,4.345,8.985,8.985,0,0,0-.5,2.323c-.107,1.363.1,2.216,0,2.246-.04,0-.137-.19-.25-.576a6.618,6.618,0,0,1-.2-1.682,8.126,8.126,0,0,1,.4-2.5,8,8,0,0,1,3.921-4.677,8.1,8.1,0,0,1,2.391-.829,6.611,6.611,0,0,1,1.692-.092C148.789,28.818,149,28.865,149,28.908Z" transform="translate(-139.999 -28.758)" fill="#fff"/>
        </g>
        <g id="Grupo_18556" data-name="Grupo 18556" transform="translate(1258.634 1222.946)" opacity="0.3">
          <path id="Trazado_11023" data-name="Trazado 11023" d="M142.787,75.651c-.147.1-.484-.147-.639-.6s-.045-.858.13-.871.354.289.484.659S142.939,75.554,142.787,75.651Z" transform="translate(-142.074 -74.179)" fill="#fff"/>
        </g>
        <path id="Trazado_11024" data-name="Trazado 11024" d="M171.006,61.406a2.163,2.163,0,0,1-.626.906,3.714,3.714,0,0,1-4.944.25,2.122,2.122,0,0,1-.711-.836,8.137,8.137,0,0,0,.821.689,3.776,3.776,0,0,0,4.712-.235C170.757,61.748,170.969,61.381,171.006,61.406Z" transform="translate(1099.563 1158.353)" fill="none" stroke="#505e71" stroke-width="1"/>
        <path id="Trazado_11025" data-name="Trazado 11025" d="M156.7,51.84a.9.9,0,0,0-.908-.479.6.6,0,0,0-.309.1h0a.973.973,0,0,0-.364.938.876.876,0,0,0,1.113.631.9.9,0,0,0,.469-1.2Z" transform="translate(1106.784 1165.896)" fill="#505e70"/>
        <path id="Trazado_11026" data-name="Trazado 11026" d="M194.832,51.968a.9.9,0,0,0-.906-.477.589.589,0,0,0-.309.1h0a.983.983,0,0,0-.367.938.876.876,0,0,0,1.116.631.9.9,0,0,0,.467-1.2Z" transform="translate(1078.166 1165.798)" fill="#505e70"/>
      </g>
      <g id="Grupo_18571" data-name="Grupo 18571" transform="translate(-686.57 -570)">
        <circle id="Elipse_877-2" data-name="Elipse 877" cx="10" cy="10" r="10" transform="translate(1257.57 1211)" fill="#ffdb2e"/>
        <g id="Grupo_18554-2" data-name="Grupo 18554" transform="translate(1263.591 1219.999)" opacity="0.3">
          <path id="Trazado_11021-2" data-name="Trazado 11021" d="M175.14,62.37c.085,0,.19.25.25.761a7.06,7.06,0,0,1-.1,2.134,9.306,9.306,0,0,1-.4,1.437,10.031,10.031,0,0,1-.749,1.552,9.276,9.276,0,0,1-6.314,4.447,10.062,10.062,0,0,1-1.712.175,9.407,9.407,0,0,1-1.5-.11,7.077,7.077,0,0,1-2.044-.621c-.449-.23-.664-.417-.631-.5.075-.19,1.1.162,2.76.2a11.554,11.554,0,0,0,1.345-.052,11,11,0,0,0,1.5-.267,9.216,9.216,0,0,0,5.558-3.916,10.94,10.94,0,0,0,.764-1.33,12.559,12.559,0,0,0,.5-1.248C174.93,63.458,174.93,62.375,175.14,62.37Z" transform="translate(-161.937 -62.37)" fill="#505e70"/>
        </g>
        <g id="Grupo_18555-2" data-name="Grupo 18555" transform="translate(1258.116 1211.611)" opacity="0.3">
          <path id="Trazado_11022-2" data-name="Trazado 11022" d="M149,28.908c0,.11-.878.057-2.2.4a8.9,8.9,0,0,0-2.2.9,8.061,8.061,0,0,0-3.644,4.345,8.985,8.985,0,0,0-.5,2.323c-.107,1.363.1,2.216,0,2.246-.04,0-.137-.19-.25-.576a6.618,6.618,0,0,1-.2-1.682,8.126,8.126,0,0,1,.4-2.5,8,8,0,0,1,3.921-4.677,8.1,8.1,0,0,1,2.391-.829,6.611,6.611,0,0,1,1.692-.092C148.789,28.818,149,28.865,149,28.908Z" transform="translate(-139.999 -28.758)" fill="#fff"/>
        </g>
        <g id="Grupo_18556-2" data-name="Grupo 18556" transform="translate(1258.634 1222.946)" opacity="0.3">
          <path id="Trazado_11023-2" data-name="Trazado 11023" d="M142.787,75.651c-.147.1-.484-.147-.639-.6s-.045-.858.13-.871.354.289.484.659S142.939,75.554,142.787,75.651Z" transform="translate(-142.074 -74.179)" fill="#fff"/>
        </g>
        <path id="Trazado_11024-2" data-name="Trazado 11024" d="M171.006,61.406a2.163,2.163,0,0,1-.626.906,3.714,3.714,0,0,1-4.944.25,2.122,2.122,0,0,1-.711-.836,8.137,8.137,0,0,0,.821.689,3.776,3.776,0,0,0,4.712-.235C170.757,61.748,170.969,61.381,171.006,61.406Z" transform="translate(1435.295 1283.144) rotate(180)" fill="none" stroke="#505e71" stroke-width="1"/>
        <path id="Trazado_11025-2" data-name="Trazado 11025" d="M156.7,51.84a.9.9,0,0,0-.908-.479.6.6,0,0,0-.309.1h0a.973.973,0,0,0-.364.938.876.876,0,0,0,1.113.631.9.9,0,0,0,.469-1.2Z" transform="translate(1106.784 1165.896)" fill="#505e70"/>
        <path id="Trazado_11026-2" data-name="Trazado 11026" d="M194.832,51.968a.9.9,0,0,0-.906-.477.589.589,0,0,0-.309.1h0a.983.983,0,0,0-.367.938.876.876,0,0,0,1.116.631.9.9,0,0,0,.467-1.2Z" transform="translate(1078.166 1165.798)" fill="#505e70"/>
      </g>
      <g id="Grupo_18568" data-name="Grupo 18568" transform="translate(-621.094 -607)">
        <circle id="Elipse_877-3" data-name="Elipse 877" cx="10" cy="10" r="10" transform="translate(1257.57 1211)" fill="#ffdb2e"/>
        <g id="Grupo_18554-3" data-name="Grupo 18554" transform="translate(1263.591 1219.999)" opacity="0.3">
          <path id="Trazado_11021-3" data-name="Trazado 11021" d="M175.14,62.37c.085,0,.19.25.25.761a7.06,7.06,0,0,1-.1,2.134,9.306,9.306,0,0,1-.4,1.437,10.031,10.031,0,0,1-.749,1.552,9.276,9.276,0,0,1-6.314,4.447,10.062,10.062,0,0,1-1.712.175,9.407,9.407,0,0,1-1.5-.11,7.077,7.077,0,0,1-2.044-.621c-.449-.23-.664-.417-.631-.5.075-.19,1.1.162,2.76.2a11.554,11.554,0,0,0,1.345-.052,11,11,0,0,0,1.5-.267,9.216,9.216,0,0,0,5.558-3.916,10.94,10.94,0,0,0,.764-1.33,12.559,12.559,0,0,0,.5-1.248C174.93,63.458,174.93,62.375,175.14,62.37Z" transform="translate(-161.937 -62.37)" fill="#505e70"/>
        </g>
        <g id="Grupo_18555-3" data-name="Grupo 18555" transform="translate(1258.116 1211.611)" opacity="0.3">
          <path id="Trazado_11022-3" data-name="Trazado 11022" d="M149,28.908c0,.11-.878.057-2.2.4a8.9,8.9,0,0,0-2.2.9,8.061,8.061,0,0,0-3.644,4.345,8.985,8.985,0,0,0-.5,2.323c-.107,1.363.1,2.216,0,2.246-.04,0-.137-.19-.25-.576a6.618,6.618,0,0,1-.2-1.682,8.126,8.126,0,0,1,.4-2.5,8,8,0,0,1,3.921-4.677,8.1,8.1,0,0,1,2.391-.829,6.611,6.611,0,0,1,1.692-.092C148.789,28.818,149,28.865,149,28.908Z" transform="translate(-139.999 -28.758)" fill="#fff"/>
        </g>
        <g id="Grupo_18556-3" data-name="Grupo 18556" transform="translate(1258.634 1222.946)" opacity="0.3">
          <path id="Trazado_11023-3" data-name="Trazado 11023" d="M142.787,75.651c-.147.1-.484-.147-.639-.6s-.045-.858.13-.871.354.289.484.659S142.939,75.554,142.787,75.651Z" transform="translate(-142.074 -74.179)" fill="#fff"/>
        </g>
        <path id="Trazado_11024-3" data-name="Trazado 11024" d="M171.006,61.405a1.667,1.667,0,0,1-.626.208,14.145,14.145,0,0,1-4.944.057,2.362,2.362,0,0,1-.711-.192c.022,0,.282.072.821.158a14.659,14.659,0,0,0,4.712-.054C170.757,61.484,170.969,61.4,171.006,61.405Z" transform="matrix(0.999, -0.052, 0.052, 0.999, 1096.564, 1168.629)" fill="none" stroke="#505e70" stroke-width="1"/>
        <path id="Trazado_11025-3" data-name="Trazado 11025" d="M156.7,51.84a.9.9,0,0,0-.908-.479.6.6,0,0,0-.309.1h0a.973.973,0,0,0-.364.938.876.876,0,0,0,1.113.631.9.9,0,0,0,.469-1.2Z" transform="translate(1106.784 1165.896)" fill="#505e70"/>
        <path id="Trazado_11026-3" data-name="Trazado 11026" d="M194.832,51.968a.9.9,0,0,0-.906-.477.589.589,0,0,0-.309.1h0a.983.983,0,0,0-.367.938.876.876,0,0,0,1.116.631.9.9,0,0,0,.467-1.2Z" transform="translate(1078.166 1165.798)" fill="#505e70"/>
      </g>
      <g id="Grupo_18570" data-name="Grupo 18570" transform="translate(-1028.569 -582)">
        <circle id="Elipse_877-4" data-name="Elipse 877" cx="10" cy="10" r="10" transform="translate(1257.57 1211)" fill="#ffdb2e"/>
        <g id="Grupo_18554-4" data-name="Grupo 18554" transform="translate(1263.591 1219.999)" opacity="0.3">
          <path id="Trazado_11021-4" data-name="Trazado 11021" d="M175.14,62.37c.085,0,.19.25.25.761a7.06,7.06,0,0,1-.1,2.134,9.306,9.306,0,0,1-.4,1.437,10.031,10.031,0,0,1-.749,1.552,9.276,9.276,0,0,1-6.314,4.447,10.062,10.062,0,0,1-1.712.175,9.407,9.407,0,0,1-1.5-.11,7.077,7.077,0,0,1-2.044-.621c-.449-.23-.664-.417-.631-.5.075-.19,1.1.162,2.76.2a11.554,11.554,0,0,0,1.345-.052,11,11,0,0,0,1.5-.267,9.216,9.216,0,0,0,5.558-3.916,10.94,10.94,0,0,0,.764-1.33,12.559,12.559,0,0,0,.5-1.248C174.93,63.458,174.93,62.375,175.14,62.37Z" transform="translate(-161.937 -62.37)" fill="#505e70"/>
        </g>
        <g id="Grupo_18555-4" data-name="Grupo 18555" transform="translate(1258.116 1211.611)" opacity="0.3">
          <path id="Trazado_11022-4" data-name="Trazado 11022" d="M149,28.908c0,.11-.878.057-2.2.4a8.9,8.9,0,0,0-2.2.9,8.061,8.061,0,0,0-3.644,4.345,8.985,8.985,0,0,0-.5,2.323c-.107,1.363.1,2.216,0,2.246-.04,0-.137-.19-.25-.576a6.618,6.618,0,0,1-.2-1.682,8.126,8.126,0,0,1,.4-2.5,8,8,0,0,1,3.921-4.677,8.1,8.1,0,0,1,2.391-.829,6.611,6.611,0,0,1,1.692-.092C148.789,28.818,149,28.865,149,28.908Z" transform="translate(-139.999 -28.758)" fill="#fff"/>
        </g>
        <g id="Grupo_18556-4" data-name="Grupo 18556" transform="translate(1258.634 1222.946)" opacity="0.3">
          <path id="Trazado_11023-4" data-name="Trazado 11023" d="M142.787,75.651c-.147.1-.484-.147-.639-.6s-.045-.858.13-.871.354.289.484.659S142.939,75.554,142.787,75.651Z" transform="translate(-142.074 -74.179)" fill="#fff"/>
        </g>
        <path id="Trazado_11024-4" data-name="Trazado 11024" d="M171.006,61.569a3.852,3.852,0,0,0-.626-.075,38.966,38.966,0,0,0-4.944-.021,5.81,5.81,0,0,0-.711.069c.022,0,.282-.026.821-.057a40.426,40.426,0,0,1,4.712.019C170.757,61.541,170.969,61.571,171.006,61.569Z" transform="translate(1099.559 1159.595)" fill="none" stroke="#505e70" stroke-width="1"/>
        <path id="Trazado_11025-4" data-name="Trazado 11025" d="M156.7,51.84a.9.9,0,0,0-.908-.479.6.6,0,0,0-.309.1h0a.973.973,0,0,0-.364.938.876.876,0,0,0,1.113.631.9.9,0,0,0,.469-1.2Z" transform="translate(1106.784 1165.896)" fill="#505e70"/>
        <path id="Trazado_11026-4" data-name="Trazado 11026" d="M194.832,51.968a.9.9,0,0,0-.906-.477.589.589,0,0,0-.309.1h0a.983.983,0,0,0-.367.938.876.876,0,0,0,1.116.631.9.9,0,0,0,.467-1.2Z" transform="translate(1078.166 1165.798)" fill="#505e70"/>
      </g>
      <g id="Grupo_18566" data-name="Grupo 18566" transform="translate(-966.383 -902.344)">
        <circle id="Elipse_879" data-name="Elipse 879" cx="10.023" cy="10.023" r="10.023" transform="translate(1456.36 1450.22)" fill="#ffdb2e"/>
        <g id="Grupo_18560" data-name="Grupo 18560" transform="translate(1462.416 1459.239)" opacity="0.3">
          <path id="Trazado_11033" data-name="Trazado 11033" d="M370.035,295.65c.156,0,.329.255.458.77a6.17,6.17,0,0,1,.048,2.222,8.909,8.909,0,0,1-1.087,3.159,9.349,9.349,0,0,1-6.627,4.668,8.963,8.963,0,0,1-3.342-.036,6.094,6.094,0,0,1-2.078-.794c-.443-.3-.632-.545-.572-.689.135-.32,1.2-.1,2.8-.165a11.535,11.535,0,0,0,2.725-.422,9.352,9.352,0,0,0,5.27-3.71,11.509,11.509,0,0,0,1.315-2.426C369.54,296.74,369.69,295.668,370.035,295.65Z" transform="translate(-356.824 -295.65)" fill="#505e70"/>
        </g>
        <g id="Grupo_18561" data-name="Grupo 18561" transform="translate(1456.854 1450.792)" opacity="0.3">
          <path id="Trazado_11034" data-name="Trazado 11034" d="M347.323,267.63c0,.129-.88.093-2.2.449a9.061,9.061,0,0,0-2.186.913,8.118,8.118,0,0,0-3.623,4.324,8.966,8.966,0,0,0-.515,2.309c-.12,1.36.069,2.216-.057,2.246a3.85,3.85,0,0,1-.494-2.267,8.145,8.145,0,0,1,6.759-8.064A3.881,3.881,0,0,1,347.323,267.63Z" transform="translate(-338.249 -267.442)" fill="#fff"/>
        </g>
        <g id="Grupo_18562" data-name="Grupo 18562" transform="translate(1457.372 1462.188)" opacity="0.3">
          <path id="Trazado_11035" data-name="Trazado 11035" d="M340.75,306.98c-.177.117-.542-.123-.7-.584s-.021-.877.192-.9.416.279.545.641S340.932,306.86,340.75,306.98Z" transform="translate(-339.98 -305.497)" fill="#fff"/>
        </g>
        <path id="Trazado_11036" data-name="Trazado 11036" d="M361.288,297.372a4.285,4.285,0,0,0,2.764-1.237,2.489,2.489,0,0,0,.725-1.692,1.33,1.33,0,0,0-1.084-1.234,1.911,1.911,0,0,0-1.18.383,3.636,3.636,0,0,1-1.114.581,2.928,2.928,0,0,1-1.746-.335,3.176,3.176,0,0,0-1.743-.374,1.147,1.147,0,0,0-.955.653,1.622,1.622,0,0,0,.3,1.527,4.468,4.468,0,0,0,4.034,1.728Z" transform="translate(1105.553 1165.3)" fill="#505e70"/>
        <path id="Trazado_11037" data-name="Trazado 11037" d="M352.694,286.936a.9.9,0,0,0-.9-.479.6.6,0,0,0-.3.1h0a.988.988,0,0,0-.368.943.839.839,0,1,0,1.566-.569Z" transform="translate(1109.592 1170.034)" fill="#505e70"/>
        <path id="Trazado_11038" data-name="Trazado 11038" d="M384.544,287.042a.9.9,0,0,0-.9-.476.6.6,0,0,0-.3.1h0a.982.982,0,0,0-.368.94.877.877,0,0,0,1.117.632.9.9,0,0,0,.449-1.2Z" transform="translate(1087.279 1169.957)" fill="#505e70"/>
      </g>
      <g id="Grupo_18572" data-name="Grupo 18572" transform="translate(-874.57 -541)">
        <circle id="Elipse_877-5" data-name="Elipse 877" cx="10" cy="10" r="10" transform="translate(1257.57 1211)" fill="#f0a25c"/>
        <g id="Grupo_18554-5" data-name="Grupo 18554" transform="translate(1263.591 1219.999)" opacity="0.3">
          <path id="Trazado_11021-5" data-name="Trazado 11021" d="M175.14,62.37c.085,0,.19.25.25.761a7.06,7.06,0,0,1-.1,2.134,9.306,9.306,0,0,1-.4,1.437,10.031,10.031,0,0,1-.749,1.552,9.276,9.276,0,0,1-6.314,4.447,10.062,10.062,0,0,1-1.712.175,9.407,9.407,0,0,1-1.5-.11,7.077,7.077,0,0,1-2.044-.621c-.449-.23-.664-.417-.631-.5.075-.19,1.1.162,2.76.2a11.554,11.554,0,0,0,1.345-.052,11,11,0,0,0,1.5-.267,9.216,9.216,0,0,0,5.558-3.916,10.94,10.94,0,0,0,.764-1.33,12.559,12.559,0,0,0,.5-1.248C174.93,63.458,174.93,62.375,175.14,62.37Z" transform="translate(-161.937 -62.37)" fill="#505e70"/>
        </g>
        <g id="Grupo_18556-5" data-name="Grupo 18556" transform="translate(1258.634 1222.946)" opacity="0.3">
          <path id="Trazado_11023-5" data-name="Trazado 11023" d="M142.787,75.651c-.147.1-.484-.147-.639-.6s-.045-.858.13-.871.354.289.484.659S142.939,75.554,142.787,75.651Z" transform="translate(-142.074 -74.179)" fill="#fff"/>
        </g>
        <path id="Trazado_11024-5" data-name="Trazado 11024" d="M171.006,61.407a2.61,2.61,0,0,1-.626,1.058,3.331,3.331,0,0,1-4.944.291,2.459,2.459,0,0,1-.711-.976,8.635,8.635,0,0,0,.821.8,3.367,3.367,0,0,0,4.712-.274C170.757,61.806,170.969,61.377,171.006,61.407Z" transform="translate(1435.295 1285.144) rotate(180)" fill="none" stroke="#505e71" stroke-width="1"/>
        <path id="Sustracción_1" data-name="Sustracción 1" d="M.566,10.37v0A6.689,6.689,0,0,1,0,7.68C0,3.445,4.037,0,9,0s9,3.445,9,7.68a6.664,6.664,0,0,1-.566,2.686,7.973,7.973,0,0,0-3.248-3.587A10.034,10.034,0,0,0,9,5.376a10.033,10.033,0,0,0-5.186,1.4A7.96,7.96,0,0,0,.567,10.368Z" transform="translate(1258.57 1211.611)" fill="#ffdb2e" opacity="0.7"/>
        <path id="Trazado_11025-5" data-name="Trazado 11025" d="M157.391,51.84a1.5,1.5,0,0,0-1.3-.479,1.12,1.12,0,0,0-.444.1h0a.855.855,0,0,0-.522.938.991.991,0,0,0,.6.557,1.747,1.747,0,0,0,.994.074,1.159,1.159,0,0,0,.7-.5A.655.655,0,0,0,157.391,51.84Z" transform="translate(1156.001 1094.852) rotate(31)" fill="#505e70"/>
        <path id="Trazado_11026-5" data-name="Trazado 11026" d="M195.342,51.968a1.32,1.32,0,0,0-1.2-.477.952.952,0,0,0-.408.1h0a.882.882,0,0,0-.484.938.949.949,0,0,0,.555.558,1.488,1.488,0,0,0,.917.073,1.076,1.076,0,0,0,.64-.5.7.7,0,0,0-.024-.7Z" transform="translate(1077.482 1271.982) rotate(-30)" fill="#505e70"/>
        <g id="Grupo_18555-5" data-name="Grupo 18555" transform="translate(1258.116 1211.611)" opacity="0.3">
          <path id="Trazado_11022-5" data-name="Trazado 11022" d="M149,28.908c0,.11-.878.057-2.2.4a8.9,8.9,0,0,0-2.2.9,8.061,8.061,0,0,0-3.644,4.345,8.985,8.985,0,0,0-.5,2.323c-.107,1.363.1,2.216,0,2.246-.04,0-.137-.19-.25-.576a6.618,6.618,0,0,1-.2-1.682,8.126,8.126,0,0,1,.4-2.5,8,8,0,0,1,3.921-4.677,8.1,8.1,0,0,1,2.391-.829,6.611,6.611,0,0,1,1.692-.092C148.789,28.818,149,28.865,149,28.908Z" transform="translate(-139.999 -28.758)" fill="#fff"/>
        </g>
      </g>
      <rect id="Rectángulo_6615" data-name="Rectángulo 6615" width="30" height="4" rx="2" transform="translate(150 614)" fill="#8bb0c7" opacity="0.25"/>
      <rect id="Rectángulo_6619" data-name="Rectángulo 6619" width="30" height="4" rx="2" transform="translate(317 602)" fill="#8bb0c7" opacity="0.25"/>
      <rect id="Rectángulo_6621" data-name="Rectángulo 6621" width="40" height="4" rx="2" transform="translate(373 694)" fill="#bfa3a3" opacity="0.25"/>
      <rect id="Rectángulo_6617" data-name="Rectángulo 6617" width="30" height="4" rx="2" transform="translate(224 653)" fill="#8bb0c7" opacity="0.25"/>
      <rect id="Rectángulo_6624" data-name="Rectángulo 6624" width="30" height="4" rx="2" transform="translate(566 665)" fill="#8fb39c" opacity="0.25"/>
      <rect id="Rectángulo_6622" data-name="Rectángulo 6622" width="29" height="4" rx="2" transform="translate(485 572)" fill="#8fb39c" opacity="0.25"/>
      <rect id="Rectángulo_6626" data-name="Rectángulo 6626" width="29" height="4" rx="2" transform="translate(630 628)" fill="#8fb39c" opacity="0.25"/>
      <rect id="Rectángulo_6628" data-name="Rectángulo 6628" width="20" height="4" rx="2" transform="translate(630 640)" fill="#8fb39c" opacity="0.25"/>
      <rect id="Rectángulo_6616" data-name="Rectángulo 6616" width="20" height="4" rx="2" transform="translate(150 620)" fill="#8bb0c7" opacity="0.25"/>
      <rect id="Rectángulo_6620" data-name="Rectángulo 6620" width="13" height="4" rx="2" transform="translate(317 608)" fill="#8bb0c7" opacity="0.25"/>
      <rect id="Rectángulo_6618" data-name="Rectángulo 6618" width="26" height="4" rx="2" transform="translate(224 659)" fill="#8bb0c7" opacity="0.25"/>
      <rect id="Rectángulo_6625" data-name="Rectángulo 6625" width="18" height="4" rx="2" transform="translate(566 671)" fill="#8fb39c" opacity="0.25"/>
      <rect id="Rectángulo_6623" data-name="Rectángulo 6623" width="33" height="4" rx="2" transform="translate(485 578)" fill="#8fb39c" opacity="0.25"/>
      <rect id="Rectángulo_6627" data-name="Rectángulo 6627" width="26" height="4" rx="2" transform="translate(630 634)" fill="#8fb39c" opacity="0.25"/>
      <g id="Grupo_18575" data-name="Grupo 18575" transform="translate(-1070.27 -725.409)">
        <circle id="Elipse_876" data-name="Elipse 876" cx="9.907" cy="9.907" r="9.907" transform="matrix(0.244, -0.97, 0.97, 0.244, 1390.245, 1320.575)" fill="#ffdb2e"/>
        <circle id="Elipse_883" data-name="Elipse 883" cx="2" cy="2" r="2" transform="translate(1405.27 1310.076)" fill="#ecbcc1"/>
        <circle id="Elipse_882" data-name="Elipse 882" cx="2" cy="2" r="2" transform="translate(1394.27 1311.076)" fill="#ecbcc1"/>
        <g id="Grupo_18551" data-name="Grupo 18551" transform="translate(1398.34 1312.391)" opacity="0.3">
          <path id="Trazado_10989" data-name="Trazado 10989" d="M330.917,181.22c.118,0,.255.255.342.757a6.442,6.442,0,0,1-.029,2.155c-.029.229-.094.46-.149.706s-.144.494-.226.754a9.793,9.793,0,0,1-.732,1.579,9.215,9.215,0,0,1-6.4,4.505,9.617,9.617,0,0,1-1.733.157,9.09,9.09,0,0,1-1.5-.14,6.456,6.456,0,0,1-2.037-.7c-.443-.256-.643-.473-.6-.583.1-.25,1.133.038,2.748.027a12.534,12.534,0,0,0,1.307-.082,11.093,11.093,0,0,0,1.458-.284,9.176,9.176,0,0,0,5.365-3.777,11.4,11.4,0,0,0,.757-1.277c.1-.212.2-.415.285-.617s.171-.395.231-.586C330.57,182.3,330.647,181.232,330.917,181.22Z" transform="translate(-317.852 -181.22)" fill="#505e70"/>
        </g>
        <g id="Grupo_18552" data-name="Grupo 18552" transform="translate(1392.959 1304.123)" opacity="0.3">
          <path id="Trazado_10990" data-name="Trazado 10990" d="M295.222,132.949a1.912,1.912,0,0,1-.6.074,9.593,9.593,0,0,0-1.6.256,9.314,9.314,0,0,0-1.06.342,9.02,9.02,0,0,0-1.148.547,7.971,7.971,0,0,0-3.651,4.358,8.834,8.834,0,0,0-.342,1.225,9.035,9.035,0,0,0-.145,1.1,9.463,9.463,0,0,0,.027,1.617,1.865,1.865,0,0,1,.032.605c-.032.007-.111-.193-.2-.576a6.891,6.891,0,0,1-.171-1.658,8.407,8.407,0,0,1,.1-1.154,8.514,8.514,0,0,1,.314-1.3,7.928,7.928,0,0,1,3.84-4.584,8.734,8.734,0,0,1,1.22-.535,8.487,8.487,0,0,1,1.131-.3,6.836,6.836,0,0,1,1.661-.121C295.017,132.869,295.226,132.922,295.222,132.949Z" transform="translate(-286.363 -132.842)" fill="#fff"/>
        </g>
        <path id="Trazado_10993" data-name="Trazado 10993" d="M360.016,163.708a2.924,2.924,0,0,0-.3-.684,1.824,1.824,0,0,0-.578-.547,1.509,1.509,0,0,0-1.8.137,1.847,1.847,0,0,0-.489.627,3.052,3.052,0,0,0-.191.726c-.036,0-.029-.072-.034-.208a1.476,1.476,0,0,1,.109-.567,1.843,1.843,0,0,1,.5-.7,1.613,1.613,0,0,1,2-.15,1.821,1.821,0,0,1,.6.619,1.47,1.47,0,0,1,.195.544C360.035,163.633,360.026,163.708,360.016,163.708Z" transform="translate(1048.346 1147.055)" fill="none" stroke="#505e70" stroke-width="0.25"/>
        <path id="Trazado_10994" data-name="Trazado 10994" d="M304.534,165.6a2.81,2.81,0,0,0-.3-.684,1.827,1.827,0,0,0-.579-.545,1.5,1.5,0,0,0-1.8.137,1.822,1.822,0,0,0-.491.627,2.989,2.989,0,0,0-.19.725c-.034,0-.031-.072-.034-.209a1.47,1.47,0,0,1,.109-.566,1.8,1.8,0,0,1,.5-.7,1.617,1.617,0,0,1,2-.152,1.822,1.822,0,0,1,.6.619,1.465,1.465,0,0,1,.195.545C304.555,165.521,304.546,165.6,304.534,165.6Z" transform="translate(1094.344 1145.488)" fill="none" stroke="#505e70" stroke-width="0.25"/>
        <path id="Trazado_10992" data-name="Trazado 10992" d="M328,179.827a.807.807,0,0,1-.132.261,3.185,3.185,0,0,1-.513.615,3.714,3.714,0,0,1-4.862.243,3.3,3.3,0,0,1-.567-.561.8.8,0,0,1-.156-.248,8.646,8.646,0,0,0,.8.708,3.972,3.972,0,0,0,1.017.513,3.616,3.616,0,0,0,2.724-.137,3.947,3.947,0,0,0,.961-.617A7.769,7.769,0,0,0,328,179.827Z" transform="translate(1077.24 1132.327)" fill="none" stroke="#505e70" stroke-width="1"/>
      </g>
    </g>
    <rect id="Rectángulo_6635" data-name="Rectángulo 6635" width="49.62" height="4" rx="2" transform="translate(213 711.333)" fill="#8bb0c7" opacity="0.25"/>
    <rect id="Rectángulo_6639" data-name="Rectángulo 6639" width="42.62" height="4" rx="2" transform="translate(555 711.333)" fill="#8fb39c" opacity="0.25"/>
    <rect id="Rectángulo_6642" data-name="Rectángulo 6642" width="53.62" height="4" rx="2" transform="translate(370.88 711.333)" fill="#bfa3a3" opacity="0.25"/>
    <rect id="Rectángulo_6637" data-name="Rectángulo 6637" width="53.62" height="4" rx="2" transform="translate(213 705.333)" fill="#8bb0c7" opacity="0.25"/>
    <rect id="Rectángulo_6636" data-name="Rectángulo 6636" width="45.62" height="4" rx="2" transform="translate(213 717.333)" fill="#8bb0c7" opacity="0.25"/>
    <rect id="Rectángulo_6640" data-name="Rectángulo 6640" width="47.62" height="4" rx="2" transform="translate(555 717.333)" fill="#8fb39c" opacity="0.25"/>
    <rect id="Rectángulo_6641" data-name="Rectángulo 6641" width="49.62" height="4" rx="2" transform="translate(370.88 717.333)" fill="#bfa3a3" opacity="0.25"/>
    <line id="Línea_307" data-name="Línea 307" y2="32" transform="translate(237.5 671.5)" fill="none" stroke="#347ac1" stroke-linecap="round" stroke-width="0.25" stroke-dasharray="2" opacity="0.5"/>
    <line id="Línea_308" data-name="Línea 308" y2="27.833" transform="translate(579.5 681.5)" fill="none" stroke="#26874a" stroke-linecap="round" stroke-width="0.25" stroke-dasharray="2" opacity="0.5"/>
    <line id="Línea_309" data-name="Línea 309" y2="4.833" transform="translate(395.38 704.5)" fill="none" stroke="#c93b3b" stroke-linecap="round" stroke-width="0.25" stroke-dasharray="2" opacity="0.5"/>
    <path id="Trazado_11040" data-name="Trazado 11040" d="M348.081,753.27l2.516,2.516,2.539-2.516" transform="translate(-113.109 -52.286)" fill="none" stroke="#347ac1" stroke-linecap="round" stroke-linejoin="round" stroke-width="0.25" opacity="0.5"/>
    <path id="Trazado_11041" data-name="Trazado 11041" d="M348.081,753.27l2.516,2.516,2.539-2.516" transform="translate(228.891 -46.453)" fill="none" stroke="#26874a" stroke-linecap="round" stroke-linejoin="round" stroke-width="0.25" opacity="0.5"/>
    <path id="Trazado_11042" data-name="Trazado 11042" d="M348.081,753.27l2.516,2.516,2.539-2.516" transform="translate(44.771 -46.453)" fill="none" stroke="#c93b3b" stroke-linecap="round" stroke-linejoin="round" stroke-width="0.25" opacity="0.5"/>
  </g>
</svg>
