<?xml version="1.0" encoding="utf-8"?>
<!-- Generator: Adobe Illustrator 25.0.0, SVG Export Plug-In . SVG Version: 6.00 Build 0)  -->
<svg version="1.1" xmlns="http://www.w3.org/2000/svg" xmlns:xlink="http://www.w3.org/1999/xlink" x="0px" y="0px"
	 viewBox="0 0 298.47 293.14" style="enable-background:new 0 0 298.47 293.14;" xml:space="preserve">
<style type="text/css">
	.st0{fill:#383838;}
	.st1{fill:#38485C;}
	.st2{fill:#FFFFFF;}
	.st3{fill:none;stroke:#383838;stroke-miterlimit:10;}
	.st4{fill:none;stroke:#383838;stroke-width:3;stroke-miterlimit:10;}
	.st5{fill:#FFFFFF;stroke:#383838;stroke-miterlimit:10;}
</style>
<g id="Capa_1">
	<g>
		<path class="st1" d="M245.99,68.28c0-3,1.17-5.83,3.3-7.95c1.95-1.94,1.95-5.1,0-7.05c-1.95-1.95-5.1-1.95-7.04,0
			c-4.01,4-6.22,9.33-6.22,15s2.21,10.99,6.22,15c0.97,0.97,2.25,1.46,3.52,1.46s2.55-0.49,3.52-1.46c1.95-1.95,1.95-5.1,0-7.04
			C247.16,74.11,245.99,71.28,245.99,68.28z"/>
		<path class="st1" d="M236.36,49.22c1.95-1.95,1.95-5.1,0-7.05c-1.95-1.95-5.1-1.95-7.05,0c-14.66,14.66-14.66,38.51,0,53.16
			c0.97,0.97,2.25,1.46,3.52,1.46s2.55-0.49,3.52-1.46c1.95-1.95,1.95-5.1,0-7.05C225.59,77.52,225.59,59.99,236.36,49.22z"/>
		<path class="st1" d="M220.36,110.25c1.27,0,2.55-0.49,3.52-1.46c1.95-1.95,1.95-5.1,0-7.05c-17.95-17.95-17.95-47.15,0-65.1
			c1.95-1.95,1.95-5.1,0-7.04c-1.95-1.95-5.1-1.95-7.04,0c-21.83,21.83-21.83,57.36,0,79.19
			C217.81,109.76,219.09,110.25,220.36,110.25z"/>
		<path class="st1" d="M48.84,54.25c-1.95-1.95-5.1-1.95-7.05,0c-1.95,1.94-1.95,5.1,0,7.05c4.38,4.39,4.38,11.52,0,15.9
			c-1.95,1.95-1.95,5.1,0,7.05c0.97,0.97,2.25,1.46,3.52,1.46c1.27,0,2.55-0.49,3.52-1.46C57.11,75.98,57.11,62.52,48.84,54.25z"/>
		<path class="st1" d="M54.72,88.31c-1.95,1.95-1.95,5.1,0,7.04c0.97,0.97,2.25,1.46,3.52,1.46c1.27,0,2.55-0.49,3.52-1.46
			c14.66-14.66,14.66-38.51,0-53.16c-1.95-1.95-5.1-1.95-7.05,0c-1.95,1.95-1.95,5.1,0,7.04C65.49,60.01,65.49,77.54,54.72,88.31z"
			/>
		<path class="st1" d="M67.2,100.89c-1.95,1.95-1.95,5.1,0,7.05c0.97,0.97,2.25,1.46,3.52,1.46c1.27,0,2.55-0.49,3.52-1.46
			c21.83-21.83,21.83-57.36,0-79.19c-1.95-1.95-5.1-1.95-7.05,0c-1.95,1.95-1.95,5.1,0,7.05C85.14,53.73,85.14,82.94,67.2,100.89z"
			/>
		<path class="st1" d="M162.75,214.08l-15.59-22.03l-17.77,7.03l3.7,26.73l11.04,27.92c0.44-0.24,0.86-0.5,1.34-0.68l28.33-11.02
			L162.75,214.08z"/>
		<path class="st1" d="M152.67,276.38h41.32c-0.27-5.39-0.53-10.61-0.77-15.59l-38.86,15.11
			C153.8,276.11,153.24,276.25,152.67,276.38z"/>
		<path class="st1" d="M93.27,276.38h53.86c-3.8-0.89-7.13-3.54-8.65-7.46c-0.62-1.6-0.88-3.25-0.82-4.87l-13.92-35.2
			c-0.1-0.37-0.19-0.74-0.29-1.11l-3.97-28.69l-24.14,6.92c0.23,2.76,0.32,4.58,0.32,4.58C96.02,217.51,94.93,243.78,93.27,276.38z"
			/>
		<path class="st1" d="M231.35,171.13c-0.01-0.06-0.03-0.12-0.04-0.18c-0.09-0.51-0.22-1-0.33-1.51c-0.07-0.33-0.17-0.64-0.24-0.97
			c-0.56-2.27-1.28-4.48-2.05-6.66c-4.59-12.85-12.85-23.99-23.59-31.77c-4.09-2.96-8.53-5.46-13.26-7.36
			c-0.19-0.07-0.36-0.17-0.55-0.24c-0.45-0.18-0.93-0.32-1.39-0.49c-4.27-1.55-8.73-2.68-13.37-3.25c-1.41-0.17-2.81-0.29-4.21-0.36
			c0.11-0.05-14.18-0.07-28.69-0.07c-14.5,0-28.8,0.02-28.69,0.07c-1.4,0.07-2.81,0.19-4.21,0.36c-4.64,0.57-9.11,1.69-13.37,3.25
			c-0.46,0.17-0.93,0.31-1.39,0.49c-0.19,0.08-0.36,0.17-0.55,0.24c-4.73,1.91-9.17,4.4-13.27,7.37
			c-10.74,7.78-18.99,18.91-23.58,31.76c-0.78,2.18-1.5,4.39-2.06,6.66c-0.07,0.33-0.17,0.65-0.24,0.97c-0.1,0.51-0.24,1-0.33,1.51
			c-0.01,0.06-0.03,0.12-0.04,0.18l-5.93,33.49l-0.03,0.19c0.79,4.66,4.1,8.71,9.34,9.91c2.13,0.49,4.37,0.31,6.48-0.29l6.49-1.86
			l23.1-6.62c-0.53-6.33-1.82-17.7-4.61-24.18l-13.29,3.81l0.07-0.36c0.26-1.33,0.83-2.55,1.58-3.61c2.5-2.12,5.82-3.58,7.19-3.65
			c0.72-0.08,1.46-0.08,2.2,0.07c0.17,0.17,0.32,0.41,0.48,0.61c0.01,0,0.02,0.01,0.03,0.01c0,0.01,0,0.03,0.01,0.04
			c0.64,0.8,1.21,1.87,1.73,3.09l45.96-13.17c6.23-1.79,13.14,1.15,15.49,7.19c0.94,2.4,0.98,4.85,0.45,7.13
			c0.09,0.11,0.21,0.18,0.3,0.3l18.15,25.64c0.19,0.35,0.38,0.69,0.56,1.04l11.29,28.55l9.14-3.55
			c-0.46-12.06-0.67-20.79-0.48-24.37c0,0,1.02-22.87,6.66-31.86c0-0.01,1.13-0.8,1.13-0.8s0.95-0.27,1.68-0.19
			c4.31,0.36,7.87,3.3,8.69,7.53l3.26,16.92c0.01,0.11,0.02,0.21,0.03,0.32v24.31l-20.96,8.15c0.29,7.48,0.68,16.23,1.14,25.86
			l28.91-11.24l7.6-2.96c4.71-1.83,7.81-6.37,7.81-11.42v-29l-0.27-1.54L231.35,171.13z"/>
		<path class="st1" d="M145.54,112.22c24,0,43.46-19.46,43.46-43.46c0-24-19.46-43.46-43.46-43.46c-24,0-43.46,19.46-43.46,43.46
			C102.08,92.77,121.54,112.22,145.54,112.22z"/>
	</g>
</g>
<g id="Capa_2">
</g>
<g id="Capa_3">
</g>
<g id="Capa_4">
</g>
<g id="Capa_5">
</g>
</svg>
