<?xml version="1.0" encoding="utf-8"?>
<!-- Generator: Adobe Illustrator 25.0.0, SVG Export Plug-In . SVG Version: 6.00 Build 0)  -->
<svg version="1.1" xmlns="http://www.w3.org/2000/svg" xmlns:xlink="http://www.w3.org/1999/xlink" x="0px" y="0px"
	 viewBox="0 0 298.47 293.14" style="enable-background:new 0 0 298.47 293.14;" xml:space="preserve">
<style type="text/css">
	.st0{fill:#383838;}
	.st1{fill:#38485C;}
	.st2{fill:#FFFFFF;}
	.st3{fill:none;stroke:#383838;stroke-miterlimit:10;}
	.st4{fill:none;stroke:#383838;stroke-width:3;stroke-miterlimit:10;}
	.st5{fill:#FFFFFF;stroke:#383838;stroke-miterlimit:10;}
</style>
<g id="Capa_1">
	<g>
		<path class="st1" d="M204.86,164.07l-6.1-34.42l-3.31-18.71c-0.01-0.03-0.02-0.07-0.02-0.1c-0.05-0.28-0.13-0.56-0.18-0.84
			c-0.04-0.18-0.09-0.36-0.13-0.54c-2.85-11.6-10.97-21.24-21.73-25.57c-0.1-0.04-0.2-0.09-0.31-0.13c-0.25-0.1-0.52-0.18-0.77-0.27
			c-2.38-0.87-4.88-1.5-7.47-1.81c-0.79-0.1-1.57-0.16-2.35-0.2c0.06-0.03-7.92-0.04-16.02-0.04c-8.1,0-16.09,0.01-16.02,0.04
			c-0.78,0.04-1.57,0.11-2.35,0.2c-2.59,0.32-5.09,0.95-7.47,1.81c-0.26,0.1-0.52,0.17-0.77,0.27c-0.1,0.04-0.2,0.09-0.31,0.13
			c-10.76,4.33-18.88,13.98-21.73,25.57c-0.04,0.18-0.1,0.36-0.13,0.54c-0.06,0.28-0.13,0.56-0.18,0.84
			c-0.01,0.04-0.02,0.07-0.02,0.1l-3.31,18.71l-5.86,33.11h-8.54c-1.54,0-2.78,1.25-2.78,2.78s1.25,2.78,2.78,2.78h9.1
			c0.6,1.01,1.46,1.84,2.52,2.39V272.9c0,1.54,1.25,2.78,2.78,2.78s2.78-1.25,2.78-2.78V170.81c1.73-0.83,3.06-2.45,3.44-4.46
			l6.87-35.66l2.29-11.87c0.46-2.36,2.55-4.21,4.9-4.05c0.4-0.04,0.81-0.05,1.23,0.04c0.09,0.09,0.18,0.23,0.27,0.34
			c0.01,0,0.01,0,0.02,0.01c0,0.01,0,0.01,0,0.02c3.06,3.88,3.72,17.79,3.72,17.79c0.63,12.24-6.76,131.21-6.76,131.21
			c0,2.44,0.99,4.64,2.59,6.24c0,0,0,0,0,0c1.12,1.11,2.54,1.91,4.12,2.3c0.12,0.03,0.23,0.08,0.36,0.11
			c0.24,0.05,0.5,0.05,0.75,0.08c0.23,0.03,0.46,0.05,0.69,0.07c0.19-0.01,0.38-0.04,0.57-0.06c0.51-0.05,1.02-0.15,1.54-0.29
			c0.11-0.03,0.22-0.03,0.34-0.06c0.14-0.04,0.26-0.11,0.39-0.16c0.17-0.07,0.34-0.13,0.51-0.21c0.33-0.15,0.65-0.32,0.95-0.51
			c0.17-0.11,0.34-0.2,0.5-0.32c0.16-0.11,0.3-0.24,0.45-0.37c2-1.71,3.19-4.33,3.19-7.07l13.09-73.42c0.31-1.74,6.72-1.74,7.03,0
			l13.1,73.42c0,2.74,1.19,5.36,3.19,7.07c0.15,0.13,0.29,0.25,0.45,0.37c0.16,0.12,0.33,0.21,0.49,0.32
			c0.3,0.19,0.62,0.36,0.95,0.51c0.17,0.08,0.33,0.15,0.51,0.21c0.13,0.05,0.25,0.12,0.39,0.16c0.11,0.04,0.22,0.03,0.34,0.06
			c0.52,0.14,1.04,0.24,1.54,0.29c0.19,0.02,0.38,0.05,0.57,0.06c0.23-0.02,0.46-0.04,0.69-0.07c0.25-0.03,0.51-0.03,0.75-0.08
			c0.12-0.02,0.24-0.08,0.36-0.11c1.58-0.39,3-1.18,4.12-2.3c0,0,0,0,0.01,0c1.6-1.6,2.58-3.8,2.58-6.24
			c0,0-7.38-118.97-6.75-131.21c0,0,0.66-13.92,3.72-17.79c0-0.01,0-0.01,0-0.02c0.01,0,0.01,0,0.02-0.01
			c0.09-0.11,0.17-0.24,0.27-0.34c0.41-0.08,0.82-0.08,1.23-0.04c2.36-0.15,4.45,1.69,4.9,4.05l2.29,11.87l6.87,35.66
			c0.62,3.2,3.58,5.39,6.83,5.05C202.97,171,205.49,167.64,204.86,164.07z"/>
		<path class="st1" d="M168.48,51.19c0,5.87-4.75,10.64-10.58,10.64c-5.8,0-10.53-4.62-10.69-10.35c-0.76-1.14-1.7-1.77-2.68-1.77
			s-1.92,0.63-2.68,1.77c-0.16,5.73-4.83,10.35-10.56,10.35c-5.6,0-10.2-4.3-10.66-9.75h-1.82c-0.06,0-0.09-0.05-0.14-0.06
			c0.44,13.92,11.83,25.07,25.86,25.07c14.3,0,25.9-11.6,25.9-25.9c0-0.02,0-0.05,0-0.07c-0.07,0.02-0.11,0.08-0.18,0.08H168.48z"/>
		<path class="st1" d="M120.64,50.3c0.46-5.45,5.06-9.75,10.66-9.75c5.1,0,9.37,3.65,10.36,8.49c0.86-0.72,1.84-1.1,2.88-1.1
			s2.02,0.38,2.88,1.1c1-4.84,5.32-8.49,10.49-8.49c5.23,0,9.57,3.84,10.42,8.87h1.93c0.04,0,0.06,0.04,0.1,0.04
			c-0.9-13.49-12.09-24.17-25.81-24.17c-14.02,0-25.42,11.16-25.86,25.07c0.05-0.01,0.09-0.06,0.14-0.06H120.64z"/>
		<path class="st1" d="M171.13,50.3c0-0.45-0.35-0.79-0.79-0.85c0.04,0.55,0.08,1.1,0.08,1.66
			C170.82,51.02,171.13,50.72,171.13,50.3z"/>
		<path class="st1" d="M118.68,52.01c-0.01-0.28-0.04-0.55-0.04-0.83s0.03-0.55,0.04-0.83c-0.41,0.08-0.74,0.39-0.74,0.83
			C117.93,51.62,118.26,51.93,118.68,52.01z"/>
		<path class="st1" d="M131.23,60.54c5.16,0,9.35-4.19,9.35-9.35s-4.19-9.35-9.35-9.35s-9.35,4.19-9.35,9.35
			S126.07,60.54,131.23,60.54z M131.3,42.32c4.94,0,8.8,3.89,8.8,8.87c0,4.97-3.87,8.87-8.8,8.87c-4.93,0-8.93-3.98-8.93-8.87
			C122.37,46.29,126.37,42.32,131.3,42.32z"/>
		<path class="st1" d="M157.83,60.54c5.16,0,9.35-4.19,9.35-9.35s-4.19-9.35-9.35-9.35s-9.35,4.19-9.35,9.35
			S152.67,60.54,157.83,60.54z M157.9,42.32c4.94,0,8.8,3.89,8.8,8.87c0,4.97-3.87,8.87-8.8,8.87c-4.93,0-8.93-3.98-8.93-8.87
			C148.97,46.29,152.97,42.32,157.9,42.32z"/>
		<path class="st1" d="M157.83,58.14c3.84,0,6.96-3.12,6.96-6.96c0-3.84-3.11-6.96-6.96-6.96c-3.84,0-6.96,3.11-6.96,6.96
			C150.88,55.03,153.99,58.14,157.83,58.14z M157.83,44.92c3.45,0,6.26,2.81,6.26,6.26c0,3.45-2.81,6.26-6.26,6.26
			c-3.45,0-6.26-2.81-6.26-6.26C151.57,47.73,154.38,44.92,157.83,44.92z"/>
		<path class="st1" d="M131.23,58.14c3.84,0,6.96-3.12,6.96-6.96c0-3.84-3.12-6.96-6.96-6.96c-3.84,0-6.96,3.11-6.96,6.96
			C124.28,55.03,127.39,58.14,131.23,58.14z M131.23,44.92c3.45,0,6.26,2.81,6.26,6.26c0,3.45-2.81,6.26-6.26,6.26
			c-3.45,0-6.26-2.81-6.26-6.26C124.97,47.73,127.78,44.92,131.23,44.92z"/>
	</g>
</g>
<g id="Capa_2">
</g>
<g id="Capa_3">
</g>
<g id="Capa_4">
</g>
<g id="Capa_5">
</g>
</svg>
