<?xml version="1.0" encoding="utf-8"?>
<!-- Generator: Adobe Illustrator 25.0.0, SVG Export Plug-In . SVG Version: 6.00 Build 0)  -->
<svg version="1.1" xmlns="http://www.w3.org/2000/svg" xmlns:xlink="http://www.w3.org/1999/xlink" x="0px" y="0px"
	 viewBox="0 0 298.47 293.14" style="enable-background:new 0 0 298.47 293.14;" xml:space="preserve">
<style type="text/css">
	.st0{fill:#383838;}
	.st1{fill:#38485C;}
	.st2{fill:#FFFFFF;}
	.st3{fill:none;stroke:#383838;stroke-miterlimit:10;}
	.st4{fill:none;stroke:#383838;stroke-width:3;stroke-miterlimit:10;}
	.st5{fill:#FFFFFF;stroke:#383838;stroke-miterlimit:10;}
</style>
<g id="Capa_1">
	<g>
		<path class="st1" d="M225.38,144.79c-0.93-2.8-3.99-8.36-10.27-13.35c-6.57-5.22-16.66-9.8-31.6-9.88l-39.09,0.08
			c-6.55,0.01-12.24,0.02-15.62,0.03l-2.55,0.01c-19.72-1.1-31.18,6.67-36.94,14.01c-2.52,3.22-3.96,6.36-4.5,8.63
			c0,0-19.2,61.16-15.89,75.32c0.02,0.08,0.06,0.17,0.08,0.25c1.02,3.96,4.66,8.3,9.82,12.59c6.28,5.23,14.8,10.39,23.63,14.75
			l-0.22,18.12c-0.03,2.81,2.24,5.11,5.05,5.11h98.98c2.68,0,4.9-2.1,5.04-4.78l1.11-20.78c7.2-3.81,13.97-8.09,19.18-12.42
			c5.17-4.29,8.78-8.63,9.81-12.59c0.02-0.08,0.08-0.17,0.1-0.25C244.84,205.3,225.38,144.79,225.38,144.79z M205.5,208.68
			c-6.78,6.16-21.79,16.93-43.98,16.8c-0.83,0-1.6,0-2.32-0.04h-0.04c-2.84-0.03-5.43-0.25-7.71-0.51
			c-14.68-1.73-18.85-7.19-19.02-12.7c-2.67,1.17-5.6,1.85-8.69,1.85c-8.88,0-16.48-5.44-19.78-13.22
			c-0.47-2.97-1.05-5.98-1.78-8.69c0-12.14,9.64-21.94,21.56-21.94c11.7,0,21.34,9.51,21.65,21.34c3.74-2.66,7.53-3.96,10.41-4.47
			v0.09c4.26-0.81,7.61,0,7.61,0c11.51,2.55,34.19,12.09,42.79,15.8C205.92,204.99,205.69,206.92,205.5,208.68z"/>
		<path class="st1" d="M157.98,111.48c25.43,0,46.05-20.62,46.05-46.05c0-25.43-20.62-46.05-46.05-46.05
			c-25.43,0-46.05,20.62-46.05,46.05C111.94,90.86,132.55,111.48,157.98,111.48z"/>
	</g>
</g>
<g id="Capa_2">
</g>
<g id="Capa_3">
</g>
<g id="Capa_4">
</g>
<g id="Capa_5">
</g>
</svg>
