<?xml version="1.0" encoding="utf-8"?>
<!-- Generator: Adobe Illustrator 25.0.0, SVG Export Plug-In . SVG Version: 6.00 Build 0)  -->
<svg version="1.1" xmlns="http://www.w3.org/2000/svg" xmlns:xlink="http://www.w3.org/1999/xlink" x="0px" y="0px"
	 viewBox="0 0 298.47 293.14" style="enable-background:new 0 0 298.47 293.14;" xml:space="preserve">
<style type="text/css">
	.st0{fill:#383838;}
	.st1{fill:#38485C;}
	.st2{fill:#FFFFFF;}
	.st3{fill:none;stroke:#383838;stroke-miterlimit:10;}
	.st4{fill:none;stroke:#383838;stroke-width:3;stroke-miterlimit:10;}
	.st5{fill:#FFFFFF;stroke:#383838;stroke-miterlimit:10;}
</style>
<g id="Capa_1">
	<g>
		<path class="st1" d="M252.82,257.1l-10.83-61.14l-5.89-33.23c-0.01-0.06-0.03-0.12-0.04-0.18c-0.09-0.5-0.22-0.99-0.33-1.5
			c-0.07-0.32-0.16-0.64-0.23-0.96c-5.07-20.61-19.5-37.74-38.61-45.44c-0.18-0.07-0.36-0.16-0.55-0.24
			c-0.45-0.18-0.92-0.31-1.38-0.48c-4.23-1.54-8.66-2.66-13.27-3.22c-1.4-0.17-2.79-0.36-4.18-0.43c0.06-0.02-4.37,0.01-10.8,0
			c-3.1,0-6.67,0-10.43,0c-1.7,0-3.44,0-5.2,0c-0.68,0-1.36,0-2.04,0c-3.36,0-6.69,0-9.85,0c-10.37,0.01-18.7-0.03-18.62,0
			c-1.39,0.07-2.79,0.26-4.18,0.43c-4.61,0.56-9.04,1.68-13.27,3.22c-0.46,0.17-0.92,0.3-1.38,0.48c-0.19,0.07-0.36,0.17-0.55,0.24
			c-19.11,7.7-33.54,24.83-38.61,45.44c-0.07,0.32-0.17,0.64-0.24,0.96c-0.1,0.5-0.24,0.99-0.33,1.5c-0.01,0.06-0.03,0.12-0.04,0.18
			l-5.89,33.23l-10.73,60.59c-1.05,5.93,2.49,12.02,8.37,13.35c6.25,1.41,12.25-2.63,13.43-8.75l12.2-63.35l4.06-21.09
			c0.81-4.2,4.52-7.47,8.71-7.2c0.72-0.07,1.45-0.08,2.18,0.07c0.17,0.17,0.32,0.4,0.47,0.6c0.01,0,0.02,0.01,0.03,0.01
			c0,0.01,0,0.03,0.01,0.04c5.44,6.89,6.61,31.61,6.61,31.61c0.35,6.9-0.73,32.94-2.37,65.24c-0.16,3.22,2.41,5.93,5.64,5.93h88.67
			c3.23,0,5.8-2.71,5.64-5.93c-1.64-32.3-2.72-58.34-2.37-65.24c0,0,1.17-24.72,6.61-31.61c0-0.01,0-0.03,0.01-0.04
			c0.01,0,0.02-0.01,0.03-0.01c0.16-0.2,0.31-0.43,0.47-0.6c0.73-0.15,1.46-0.14,2.18-0.07c4.19-0.27,7.9,3.01,8.71,7.2l4.06,21.08
			l12.1,62.83c1.08,5.63,6.1,9.94,11.82,9.52C249.26,269.67,253.96,263.58,252.82,257.1z"/>
		<rect x="142.41" y="95.2" class="st1" width="13.27" height="3.32"/>
		<rect x="137.43" y="75.28" class="st1" width="23.23" height="3.32"/>
		<path class="st1" d="M157.83,73.14l2.35-2.35c-7.28-7.28-14.98-7.28-22.26,0l2.35,2.35C146.26,67.14,151.84,67.14,157.83,73.14z"
			/>
		<path class="st1" d="M149.09,107.48c23.71,0,42.92-19.22,42.92-42.92c0-23.71-19.22-42.92-42.92-42.92
			c-23.71,0-42.92,19.22-42.92,42.92C106.17,88.26,125.38,107.48,149.09,107.48z M129.61,76.89l1.45,2.53l2.88-1.65l-2.47-4.32
			c3.91-6.18,10.34-11.45,17.62-11.45c7.28,0,13.72,5.27,17.62,11.45l-2.47,4.32l2.88,1.65l1.45-2.53c1.33,2.89,2.09,5.81,2.09,8.35
			c0,9.15-9.68,16.59-21.57,16.59c-11.9,0-21.57-7.44-21.57-16.59C127.52,82.7,128.28,79.78,129.61,76.89z"/>
		<rect x="132.45" y="81.92" class="st1" width="33.19" height="3.32"/>
		<rect x="134.11" y="88.56" class="st1" width="29.87" height="3.32"/>
	</g>
</g>
<g id="Capa_2">
</g>
<g id="Capa_3">
</g>
<g id="Capa_4">
</g>
<g id="Capa_5">
</g>
</svg>
