<?xml version="1.0" encoding="utf-8"?>
<!-- Generator: Adobe Illustrator 25.0.0, SVG Export Plug-In . SVG Version: 6.00 Build 0)  -->
<svg version="1.1" xmlns="http://www.w3.org/2000/svg" xmlns:xlink="http://www.w3.org/1999/xlink" x="0px" y="0px"
	 viewBox="0 0 298.47 293.14" style="enable-background:new 0 0 298.47 293.14;" xml:space="preserve">
<style type="text/css">
	.st0{fill:#383838;}
	.st1{fill:#38485C;}
	.st2{fill:#FFFFFF;}
	.st3{fill:none;stroke:#383838;stroke-miterlimit:10;}
	.st4{fill:none;stroke:#383838;stroke-width:3;stroke-miterlimit:10;}
	.st5{fill:#FFFFFF;stroke:#383838;stroke-miterlimit:10;}
</style>
<g id="Capa_1">
	<g>
		<path class="st1" d="M247.79,256.6l-10.28-58.02l-5.64-31.82c-0.01-0.06-0.03-0.11-0.04-0.17c-0.09-0.48-0.21-0.96-0.31-1.44
			c-0.06-0.31-0.16-0.61-0.23-0.92c-0.26-1.08-0.66-2.1-0.97-3.16c-6.13-36.05-40.34-47.55-81.71-47.55
			c-9.87,0-19.37,0.75-28.16,2.21l0.21,0.92l15.72,68.7h18.62c12.08,0,21.77,9.87,21.77,21.77c0,12.08-9.87,21.77-21.77,21.77
			h-50.44h-2.15c-0.3,7.67-0.71,16.66-1.19,26.51c-0.2,4.21-0.42,8.59-0.65,13.09c-0.08,1.59,1.19,2.94,2.78,2.94h90.33
			c1.59,0,2.86-1.35,2.78-2.94c-1.62-31.76-2.71-57.54-2.36-64.27c0,0,0.79-16.48,4.08-25.77c0.65-1.83,1.39-3.41,2.25-4.5
			c0-0.01,0-0.02,0.01-0.04c0.01-0.01,0.02-0.01,0.03-0.01c0.15-0.19,0.29-0.41,0.45-0.57c0.7-0.14,1.4-0.14,2.09-0.07
			c4.01-0.26,7.57,2.88,8.34,6.9l3.89,20.19l10.59,55.01l1.09,5.65c1.13,5.86,6.88,9.73,12.86,8.38
			C245.41,268.11,248.8,262.29,247.79,256.6z"/>
		<path class="st1" d="M134.51,219.53l-5.11-22.51h8.97l-1.98-9.31h-9.54l1.47,6.76H102.1h-9.8c1.07-6.92,2.86-12.45,5.82-17.89
			c1.1-2.02,2.36-4.02,3.8-6.08c0.81-1.16,2.65-0.59,2.65,0.82v14.03h22.28l-15.41-67.34c-2.35,0.54-4.65,1.2-6.89,2.02
			c-0.44,0.16-0.89,0.29-1.32,0.46c-0.18,0.07-0.35,0.16-0.52,0.23c-17.54,7.06-30.86,22.46-36.22,41.1
			c-0.56,3.53-0.85,7.3-0.85,11.32v32.62v8.91c0,2.69,2.18,4.86,4.86,4.86h7.6h24.65H134.51z"/>
		<path class="st1" d="M167.54,208.14c-0.69-6.51-6.58-11.25-13.13-11.25h-16.04l5.88,25.2h10.76
			C162.42,222.08,168.33,215.64,167.54,208.14z"/>
		<path class="st1" d="M149.74,106.4c23.81,0,43.12-19.3,43.12-43.12c0-23.81-19.3-43.12-43.12-43.12s-43.12,19.3-43.12,43.12
			C106.62,87.1,125.93,106.4,149.74,106.4z"/>
	</g>
</g>
<g id="Capa_2">
</g>
<g id="Capa_3">
</g>
<g id="Capa_4">
</g>
<g id="Capa_5">
</g>
</svg>
