<?xml version="1.0" encoding="utf-8"?>
<!-- Generator: Adobe Illustrator 25.0.0, SVG Export Plug-In . SVG Version: 6.00 Build 0)  -->
<svg version="1.1" xmlns="http://www.w3.org/2000/svg" xmlns:xlink="http://www.w3.org/1999/xlink" x="0px" y="0px"
	 viewBox="0 0 298.47 293.14" style="enable-background:new 0 0 298.47 293.14;" xml:space="preserve">
<style type="text/css">
	.st0{fill:#383838;}
	.st1{fill:#38485C;}
	.st2{fill:#FFFFFF;}
	.st3{fill:none;stroke:#383838;stroke-miterlimit:10;}
	.st4{fill:none;stroke:#383838;stroke-width:3;stroke-miterlimit:10;}
	.st5{fill:#FFFFFF;stroke:#383838;stroke-miterlimit:10;}
</style>
<g id="Capa_1">
	<path class="st1" d="M208.75,67.61c-4.01-2.54-7.92-2.59-11.13-1.15c0-0.1,0.01-0.19,0.01-0.29c0-25.04-20.87-45.2-46.17-44.04
		c-22.45,1.03-40.92,19.51-41.96,41.96c-1.16,25.3,19,46.17,44.04,46.17c16.83,0,31.45-9.44,38.88-23.3
		c0.91,1.14,2.07,2.18,3.5,3.09c7.89,5.02,32.21,6.06,37.5,14.15c1.73,2.65,3.22,4.79,3.8,7.77c0.31,1.61-0.1,2.63,0.02,2.44
		c-1.74,3.06-6.74,5.62-12.51,6.72c-5.17,0.99-10.39,1.22-15.63,1.08c-0.69-0.36-1.41-0.68-2.12-1.01c-0.84-0.4-1.66-0.85-2.53-1.21
		c-0.23-0.1-0.45-0.23-0.68-0.32c-0.18-0.07-0.35-0.16-0.52-0.23c-0.43-0.17-0.88-0.3-1.32-0.46c-4.06-1.48-8.3-2.55-12.71-3.08
		c-1.34-0.16-2.67-0.28-4.01-0.34c0.11-0.04-13.48-0.07-27.28-0.07c-13.79,0-27.38,0.02-27.28,0.07c-1.33,0.06-2.67,0.18-4.01,0.34
		c-4.41,0.54-8.66,1.61-12.71,3.08c-0.44,0.16-0.89,0.29-1.32,0.46c-0.18,0.07-0.35,0.16-0.52,0.23
		c-18.31,7.37-32.13,23.79-36.99,43.54c-0.07,0.31-0.16,0.61-0.22,0.92c-0.1,0.48-0.23,0.95-0.31,1.44
		c-0.01,0.06-0.03,0.12-0.04,0.17l-5.64,31.84l-10.29,58.06c-1.01,5.69,2.38,11.51,8.01,12.79c5.98,1.35,11.74-2.52,12.87-8.38
		l11.69-60.7l3.89-20.21c0.77-4.02,4.33-7.16,8.34-6.9c0.69-0.07,1.39-0.08,2.09,0.06c0.16,0.16,0.3,0.39,0.45,0.58
		c0.01,0,0.02,0.01,0.03,0.01c0,0.01,0.01,0.03,0.01,0.04c5.22,6.6,6.33,30.29,6.33,30.29c0.35,6.82-0.76,33.12-2.42,65.41
		c-0.13,2.47,1.84,4.54,4.31,4.54h89.68c2.38,0,4.31-1.93,4.31-4.31c0.07-48.34,1.68-95.95,1.68-95.96c0.01,0,4.31-22.91,4.37-24.54
		c6.47-0.11,13.17-0.78,19.47-2.29c13.12-3.15,26.61-16.32,30.36-29.98C271.29,89.92,228.02,79.85,208.75,67.61z M182.66,61.57
		c-0.02,0.2-0.03,0.42-0.05,0.61c-0.03,0.23-0.08,0.43-0.12,0.64c-0.04,0.17-0.07,0.36-0.11,0.52c-0.06,0.2-0.13,0.38-0.19,0.57
		c-0.05,0.15-0.1,0.3-0.16,0.44c-0.08,0.18-0.17,0.35-0.26,0.51c-0.06,0.12-0.12,0.26-0.19,0.37c-0.1,0.16-0.2,0.31-0.31,0.46
		c-0.07,0.1-0.14,0.22-0.21,0.32c-0.11,0.15-0.24,0.29-0.36,0.44c-0.07,0.08-0.14,0.17-0.21,0.26c-0.14,0.16-0.28,0.3-0.42,0.45
		c-0.06,0.06-0.12,0.12-0.17,0.18c-0.2,0.2-0.4,0.39-0.59,0.59c-0.19,0.18-0.37,0.37-0.56,0.55c-0.06,0.06-0.11,0.12-0.16,0.17
		c-0.13,0.13-0.26,0.26-0.38,0.4c-0.06,0.06-0.11,0.13-0.16,0.2c-0.11,0.13-0.23,0.27-0.33,0.41c-0.06,0.08-0.12,0.18-0.18,0.26
		c-0.09,0.13-0.18,0.26-0.26,0.4c-0.06,0.1-0.11,0.22-0.16,0.32c-0.07,0.14-0.15,0.27-0.21,0.42c-0.05,0.12-0.09,0.25-0.13,0.38
		c-0.05,0.15-0.11,0.31-0.16,0.47c-0.04,0.14-0.06,0.29-0.09,0.43c-0.03,0.18-0.08,0.35-0.1,0.54c-0.02,0.16-0.03,0.34-0.04,0.51
		c-0.01,0.17-0.04,0.33-0.04,0.52c-0.04,2.17-1.2,4.19-2.99,5.25c-0.06,0.03-0.11,0.06-0.17,0.09c-0.21,0.12-0.44,0.21-0.67,0.3
		c-0.17,0.06-0.35,0.12-0.52,0.16c-0.16,0.04-0.33,0.09-0.5,0.12c-0.18,0.03-0.37,0.04-0.56,0.06c-0.24,0.02-0.48,0.03-0.72,0.02
		c-0.18-0.01-0.36-0.03-0.54-0.06c-0.23-0.03-0.45-0.08-0.66-0.13c-0.17-0.04-0.34-0.1-0.5-0.16c-0.21-0.08-0.41-0.17-0.61-0.26
		c-0.15-0.08-0.31-0.16-0.45-0.25c-0.19-0.12-0.36-0.25-0.54-0.38c-0.13-0.1-0.27-0.21-0.39-0.32c-0.16-0.15-0.31-0.32-0.46-0.5
		c-0.11-0.13-0.22-0.25-0.31-0.38c-0.14-0.19-0.25-0.4-0.36-0.61c-0.08-0.14-0.16-0.27-0.22-0.41c-0.11-0.24-0.18-0.5-0.25-0.75
		c-0.04-0.13-0.09-0.25-0.12-0.38c-0.09-0.39-0.13-0.8-0.13-1.22c0-0.91,0.74-1.66,1.66-1.66s1.66,0.74,1.66,1.66
		c0,1.39,1.13,2.52,2.52,2.52c1.39,0,2.52-1.13,2.52-2.52c0-4.67,2.28-6.9,3.95-8.53c0.36-0.35,0.68-0.67,0.97-0.98
		c0.09-0.1,0.15-0.2,0.23-0.3c0.19-0.22,0.37-0.45,0.51-0.69c0.08-0.13,0.13-0.29,0.2-0.44c0.11-0.23,0.21-0.46,0.29-0.73
		c0.05-0.18,0.07-0.41,0.1-0.61c0.03-0.21,0.09-0.39,0.1-0.63c0.01-0.11-0.01-0.21-0.01-0.31c0-0.08,0.02-0.13,0.02-0.21
		c0-0.12-0.03-0.23-0.03-0.34c-0.01-0.25-0.04-0.49-0.07-0.73c-0.03-0.21-0.07-0.41-0.11-0.61c-0.07-0.29-0.16-0.56-0.26-0.84
		c-0.04-0.11-0.07-0.22-0.12-0.32c-0.7-1.67-2.01-3.02-3.76-3.73c-0.01,0-0.01,0-0.02-0.01c-0.23-0.09-0.45-0.2-0.7-0.27
		c-0.11-0.03-0.21-0.03-0.32-0.05c-0.35-0.09-0.7-0.14-1.07-0.17c-0.17-0.02-0.35-0.05-0.52-0.05c-0.05,0-0.1-0.02-0.16-0.02
		c-0.44,0-0.86,0.05-1.27,0.13c-0.05,0.01-0.1,0.01-0.15,0.02c-0.51,0.1-0.99,0.27-1.46,0.47c-0.15,0.06-0.27,0.15-0.41,0.22
		c-0.31,0.16-0.61,0.33-0.89,0.54c-0.15,0.11-0.29,0.24-0.43,0.36c-0.24,0.2-0.47,0.42-0.68,0.65c-0.13,0.15-0.25,0.29-0.37,0.45
		c-0.19,0.25-0.36,0.51-0.52,0.79c-0.09,0.17-0.19,0.33-0.27,0.5c-0.15,0.31-0.26,0.64-0.36,0.97c-0.05,0.16-0.11,0.31-0.15,0.48
		c-0.11,0.5-0.19,1.03-0.19,1.56c0,0.91-0.74,1.66-1.66,1.66s-1.66-0.74-1.66-1.66c0-0.65,0.08-1.29,0.19-1.91
		c0.02-0.11,0.03-0.22,0.06-0.32c0.13-0.59,0.31-1.15,0.53-1.7c0.04-0.11,0.09-0.21,0.14-0.31c0.25-0.55,0.52-1.08,0.86-1.57
		c0.02-0.03,0.05-0.07,0.08-0.1c0.33-0.48,0.7-0.92,1.1-1.33c0.06-0.07,0.13-0.14,0.19-0.21c0.42-0.41,0.87-0.78,1.34-1.11
		c0.1-0.07,0.19-0.13,0.29-0.19c0.49-0.32,1.01-0.61,1.56-0.85c0.07-0.03,0.14-0.05,0.2-0.08c0.53-0.22,1.09-0.39,1.66-0.51
		c0.08-0.02,0.15-0.04,0.23-0.06c0.6-0.12,1.21-0.17,1.84-0.19c0.13,0,0.25,0,0.38,0c0.65,0.01,1.28,0.07,1.89,0.19
		c0.03,0.01,0.06,0.01,0.09,0.02c0.8,0.17,1.57,0.44,2.29,0.79c0.05,0.02,0.11,0.04,0.16,0.07c2.24,1.11,4.03,2.98,5.01,5.29
		c0,0.01,0.01,0.02,0.01,0.02c0.22,0.53,0.38,1.1,0.52,1.67c0.04,0.17,0.08,0.35,0.11,0.52c0.08,0.46,0.12,0.94,0.14,1.43
		c0.01,0.21,0.03,0.41,0.03,0.62C182.69,61.11,182.67,61.34,182.66,61.57z M170.19,65.94c-0.11-0.43-0.37-0.78-0.75-1
		c-0.31-0.18-0.66-0.26-1.01-0.22c-0.95,0.08-1.72-0.56-1.82-1.47l-0.1-2.69c-0.01-0.2,0.02-0.38,0.08-0.57
		c0.42-3.06,3.05-5.36,6.15-5.36c3.43,0,6.21,2.79,6.21,6.22c0,0.91-0.74,1.66-1.66,1.66s-1.66-0.74-1.66-1.66
		c0-1.6-1.3-2.9-2.9-2.9c-1.6,0-2.9,1.3-2.9,2.9l0.02,0.72c0.44,0.12,0.87,0.29,1.27,0.53c1.14,0.67,1.94,1.75,2.27,3.03
		c0.33,1.28,0.14,2.61-0.54,3.75c-0.68,1.14-1.75,1.94-3.03,2.27c-0.4,0.1-0.81,0.16-1.23,0.16c-0.88,0-1.75-0.24-2.52-0.69
		c-0.79-0.47-1.05-1.49-0.58-2.27c0.47-0.79,1.49-1.05,2.27-0.58c0.38,0.22,0.82,0.28,1.24,0.18c0.42-0.11,0.78-0.37,1-0.75
		C170.24,66.8,170.3,66.36,170.19,65.94z"/>
</g>
<g id="Capa_2">
</g>
<g id="Capa_3">
</g>
<g id="Capa_4">
</g>
<g id="Capa_5">
</g>
</svg>
