<svg xmlns="http://www.w3.org/2000/svg" width="712" height="298" viewBox="0 0 712 298">
  <g id="Grupo_32406" data-name="Grupo 32406" transform="translate(-513 -1447)">
    <g id="Rectángulo_26381" data-name="Rectángulo 26381" transform="translate(513 1447)" fill="#fff" stroke="#38485c" stroke-width="1">
      <rect width="712" height="298" rx="8" stroke="none"/>
      <rect x="0.5" y="0.5" width="711" height="297" rx="7.5" fill="none"/>
    </g>
    <text id="Lorem_ipsum" data-name="Lorem ipsum" transform="translate(606 1577)" fill="#38485c" font-size="28" font-family="Nunito-SemiBold, Nunito" font-weight="600" letter-spacing="-0.001em"><tspan x="0" y="0">Lorem ipsum</tspan></text>
    <text id="Lorem_ipsum_dolor_sit_amet_consetetur_sadipscing_elitr_sed_diam_nonumy_eirmod_tempor_invidunt_ut_labore_et_dolore_magna_aliquyam_erat_sed_diam_voluptua._At_vero_eos_et_accusam_et_justo_duo_dolores_et_ea_rebum._Stet_clita_kasd_gubergren_no_sea_takimata_" data-name="Lorem ipsum dolor sit amet, consetetur sadipscing elitr, sed diam nonumy eirmod tempor invidunt ut labore et dolore magna aliquyam erat, sed diam voluptua. At vero eos et accusam et justo duo dolores et ea rebum. Stet clita kasd gubergren, no sea takimata " transform="translate(606 1603)" fill="#38485c" font-size="16" font-family="OpenSans-Regular, Open Sans"><tspan x="0" y="17">Lorem ipsum dolor sit amet, consetetur sadipscing elitr, sed diam </tspan><tspan x="0" y="41">nonumy eirmod tempor invidunt ut labore et dolore magna aliquyam </tspan><tspan x="0" y="65">erat, sed diam voluptua. At vero eos et accusam et justo duo dolores </tspan><tspan x="0" y="89">et ea rebum. Stet clita kasd gubergren, no sea takimata sanctus est.</tspan></text>
    <g id="Grupo_32276" data-name="Grupo 32276" transform="translate(56 790)">
      <path id="Trazado_27754" data-name="Trazado 27754" d="M1,0H115a1,1,0,0,1,1,1V21a1,1,0,0,1-1,1H1a1,1,0,0,1-1-1V1A1,1,0,0,1,1,0Z" transform="translate(806 705)" fill="none"/>
      <path id="Trazado_27755" data-name="Trazado 27755" d="M8.813-8.094A3.2,3.2,0,0,1,7.629-5.426a5.362,5.362,0,0,1-3.387.934H2.9V0H1.57V-11.422H4.531Q8.813-11.422,8.813-8.094ZM2.9-5.633h1.2A4.442,4.442,0,0,0,6.648-6.2a2.1,2.1,0,0,0,.789-1.828A1.971,1.971,0,0,0,6.7-9.719a3.877,3.877,0,0,0-2.312-.555H2.9ZM16.273,0l-.258-1.219h-.062a3.6,3.6,0,0,1-1.277,1.09,3.893,3.893,0,0,1-1.59.285,2.86,2.86,0,0,1-2-.656,2.394,2.394,0,0,1-.723-1.867q0-2.594,4.148-2.719l1.453-.047v-.531a2.171,2.171,0,0,0-.434-1.488,1.783,1.783,0,0,0-1.387-.48,5.65,5.65,0,0,0-2.422.656l-.4-.992a6.094,6.094,0,0,1,1.387-.539,6.006,6.006,0,0,1,1.512-.2,3.262,3.262,0,0,1,2.27.68,2.837,2.837,0,0,1,.738,2.18V0Zm-2.93-.914a2.632,2.632,0,0,0,1.9-.664,2.457,2.457,0,0,0,.691-1.859v-.773l-1.3.055a4.717,4.717,0,0,0-2.23.48,1.449,1.449,0,0,0-.684,1.324,1.336,1.336,0,0,0,.426,1.07A1.767,1.767,0,0,0,13.344-.914Zm-.3-8.977q.375-.484.809-1.172a13.411,13.411,0,0,0,.684-1.2h1.578v.164a11.549,11.549,0,0,1-1.023,1.25A11.619,11.619,0,0,1,13.906-9.7h-.867ZM26.914-8.562v.82l-1.586.188a2.726,2.726,0,0,1,.391.715,2.727,2.727,0,0,1,.172,1,2.531,2.531,0,0,1-.859,2.008,3.467,3.467,0,0,1-2.359.75,3.929,3.929,0,0,1-.719-.062,1.276,1.276,0,0,0-.828,1.1.56.56,0,0,0,.289.52,2.112,2.112,0,0,0,.992.168h1.516a3.394,3.394,0,0,1,2.137.586A2.036,2.036,0,0,1,26.8.93,2.431,2.431,0,0,1,25.664,3.1a6.1,6.1,0,0,1-3.328.746,4.547,4.547,0,0,1-2.59-.625,2.018,2.018,0,0,1-.91-1.766A1.983,1.983,0,0,1,19.336.1a2.546,2.546,0,0,1,1.406-.773,1.357,1.357,0,0,1-.551-.461,1.22,1.22,0,0,1-.223-.727,1.379,1.379,0,0,1,.25-.82,2.628,2.628,0,0,1,.789-.68,2.313,2.313,0,0,1-1.082-.93,2.732,2.732,0,0,1-.418-1.5,2.771,2.771,0,0,1,.844-2.168,3.445,3.445,0,0,1,2.391-.762,4.347,4.347,0,0,1,1.211.156Zm-6.828,10a1.162,1.162,0,0,0,.586,1.055,3.234,3.234,0,0,0,1.68.359,4.687,4.687,0,0,0,2.418-.488,1.5,1.5,0,0,0,.785-1.324,1.048,1.048,0,0,0-.43-.965A3.337,3.337,0,0,0,23.508-.2H21.953a2.048,2.048,0,0,0-1.375.422A1.507,1.507,0,0,0,20.086,1.438Zm.7-7.258A1.743,1.743,0,0,0,21.3-4.461,2.028,2.028,0,0,0,22.711-4a1.654,1.654,0,0,0,1.9-1.844,1.7,1.7,0,0,0-1.922-1.93,1.9,1.9,0,0,0-1.406.492A1.982,1.982,0,0,0,20.789-5.82ZM29.969,0h-1.3V-8.562h1.3ZM28.563-10.883a.861.861,0,0,1,.219-.652.764.764,0,0,1,.547-.207.764.764,0,0,1,.539.211.846.846,0,0,1,.227.648.859.859,0,0,1-.227.652.757.757,0,0,1-.539.215.749.749,0,0,1-.547-.215A.877.877,0,0,1,28.563-10.883ZM38.578,0V-5.539A2.235,2.235,0,0,0,38.1-7.1a1.941,1.941,0,0,0-1.492-.516,2.461,2.461,0,0,0-1.969.727,3.668,3.668,0,0,0-.625,2.4V0h-1.3V-8.562h1.055l.211,1.172h.063a2.648,2.648,0,0,1,1.117-.98,3.63,3.63,0,0,1,1.6-.348,3.252,3.252,0,0,1,2.328.746,3.175,3.175,0,0,1,.781,2.387V0ZM47.8,0l-.258-1.219h-.062a3.6,3.6,0,0,1-1.277,1.09,3.893,3.893,0,0,1-1.59.285,2.86,2.86,0,0,1-2-.656A2.394,2.394,0,0,1,41.9-2.367q0-2.594,4.148-2.719L47.5-5.133v-.531a2.171,2.171,0,0,0-.434-1.488,1.783,1.783,0,0,0-1.387-.48,5.65,5.65,0,0,0-2.422.656l-.4-.992a6.094,6.094,0,0,1,1.387-.539,6.006,6.006,0,0,1,1.512-.2,3.262,3.262,0,0,1,2.27.68,2.837,2.837,0,0,1,.738,2.18V0Zm-2.93-.914a2.632,2.632,0,0,0,1.9-.664,2.457,2.457,0,0,0,.691-1.859v-.773l-1.3.055a4.717,4.717,0,0,0-2.23.48,1.449,1.449,0,0,0-.684,1.324,1.336,1.336,0,0,0,.426,1.07A1.767,1.767,0,0,0,44.875-.914ZM60.859,0,60.6-1.219h-.062a3.6,3.6,0,0,1-1.277,1.09,3.893,3.893,0,0,1-1.59.285,2.86,2.86,0,0,1-2-.656,2.394,2.394,0,0,1-.723-1.867q0-2.594,4.148-2.719l1.453-.047v-.531a2.171,2.171,0,0,0-.434-1.488,1.783,1.783,0,0,0-1.387-.48,5.65,5.65,0,0,0-2.422.656l-.4-.992A6.094,6.094,0,0,1,57.3-8.508a6.006,6.006,0,0,1,1.512-.2,3.262,3.262,0,0,1,2.27.68,2.837,2.837,0,0,1,.738,2.18V0ZM57.93-.914a2.632,2.632,0,0,0,1.9-.664,2.457,2.457,0,0,0,.691-1.859v-.773l-1.3.055a4.717,4.717,0,0,0-2.23.48,1.449,1.449,0,0,0-.684,1.324,1.336,1.336,0,0,0,.426,1.07A1.767,1.767,0,0,0,57.93-.914ZM70.352,0V-5.539A2.235,2.235,0,0,0,69.875-7.1a1.941,1.941,0,0,0-1.492-.516,2.461,2.461,0,0,0-1.969.727,3.668,3.668,0,0,0-.625,2.4V0h-1.3V-8.562h1.055l.211,1.172h.063a2.648,2.648,0,0,1,1.117-.98,3.63,3.63,0,0,1,1.6-.348,3.252,3.252,0,0,1,2.328.746,3.175,3.175,0,0,1,.781,2.387V0Zm6.727-.914a4.236,4.236,0,0,0,.664-.051,4.3,4.3,0,0,0,.508-.105v.992a2.371,2.371,0,0,1-.621.168,4.664,4.664,0,0,1-.738.066q-2.484,0-2.484-2.617V-7.555H73.18V-8.18l1.227-.539.547-1.828h.75v1.984h2.484v1.008H75.7v5.039a1.734,1.734,0,0,0,.367,1.188A1.278,1.278,0,0,0,77.078-.914Zm6.5,1.07a3.934,3.934,0,0,1-3-1.156,4.476,4.476,0,0,1-1.1-3.211A4.964,4.964,0,0,1,80.5-7.5a3.387,3.387,0,0,1,2.738-1.219A3.229,3.229,0,0,1,85.789-7.66a4.057,4.057,0,0,1,.938,2.793v.82h-5.9a3.394,3.394,0,0,0,.762,2.289,2.635,2.635,0,0,0,2.035.781,6.9,6.9,0,0,0,2.734-.578V-.4a6.863,6.863,0,0,1-1.3.426A7.31,7.31,0,0,1,83.578.156Zm-.352-7.789a2.118,2.118,0,0,0-1.645.672A3.1,3.1,0,0,0,80.859-5.1h4.477a2.851,2.851,0,0,0-.547-1.879A1.925,1.925,0,0,0,83.227-7.633Zm9.617-1.086a5.075,5.075,0,0,1,1.023.094l-.18,1.2a4.418,4.418,0,0,0-.937-.117,2.282,2.282,0,0,0-1.777.844,3.077,3.077,0,0,0-.738,2.1V0h-1.3V-8.562h1.07l.148,1.586h.063a3.764,3.764,0,0,1,1.148-1.289A2.585,2.585,0,0,1,92.844-8.719ZM96.766,0h-1.3V-8.562h1.3ZM95.359-10.883a.861.861,0,0,1,.219-.652.764.764,0,0,1,.547-.207.764.764,0,0,1,.539.211.846.846,0,0,1,.227.648.859.859,0,0,1-.227.652.757.757,0,0,1-.539.215.749.749,0,0,1-.547-.215A.877.877,0,0,1,95.359-10.883Zm11.547,6.594a4.724,4.724,0,0,1-1.055,3.27A3.714,3.714,0,0,1,102.938.156,3.86,3.86,0,0,1,100.9-.383,3.558,3.558,0,0,1,99.523-1.93a5.391,5.391,0,0,1-.484-2.359,4.716,4.716,0,0,1,1.047-3.262,3.7,3.7,0,0,1,2.906-1.168,3.622,3.622,0,0,1,2.855,1.2A4.7,4.7,0,0,1,106.906-4.289Zm-6.523,0a4.064,4.064,0,0,0,.656,2.5,2.278,2.278,0,0,0,1.93.859,2.293,2.293,0,0,0,1.934-.855,4.043,4.043,0,0,0,.66-2.5,3.978,3.978,0,0,0-.66-2.48,2.32,2.32,0,0,0-1.949-.848,2.283,2.283,0,0,0-1.922.836A4.023,4.023,0,0,0,100.383-4.289Zm12.7-4.43a5.075,5.075,0,0,1,1.023.094l-.18,1.2a4.418,4.418,0,0,0-.937-.117,2.282,2.282,0,0,0-1.777.844,3.077,3.077,0,0,0-.738,2.1V0h-1.3V-8.562h1.07l.148,1.586h.063a3.764,3.764,0,0,1,1.148-1.289A2.585,2.585,0,0,1,113.086-8.719ZM0,1H17.836V2H0ZM27.8,1h86.531V2H27.8Z" transform="translate(807 722)" fill="#007bc7"/>
      <path id="Trazado_33" data-name="Trazado 33" d="M0,0H22V22H0Z" transform="translate(776 705)" fill="none"/>
      <path id="Trazado_34" data-name="Trazado 34" d="M9.266,6.686a.913.913,0,0,0,0,1.293l3.557,3.557L9.266,15.091a.914.914,0,0,0,1.292,1.293l4.208-4.208a.913.913,0,0,0,0-1.292L10.558,6.676A.921.921,0,0,0,9.266,6.686Z" transform="translate(775.25 704.465)" fill="#38485c"/>
      <path id="Trazado_27756" data-name="Trazado 27756" d="M1,0H137a1,1,0,0,1,1,1V21a1,1,0,0,1-1,1H1a1,1,0,0,1-1-1V1A1,1,0,0,1,1,0Z" transform="translate(630 705)" fill="none"/>
      <path id="Trazado_27757" data-name="Trazado 27757" d="M8.813-8.094A3.2,3.2,0,0,1,7.629-5.426a5.362,5.362,0,0,1-3.387.934H2.9V0H1.57V-11.422H4.531Q8.813-11.422,8.813-8.094ZM2.9-5.633h1.2A4.442,4.442,0,0,0,6.648-6.2a2.1,2.1,0,0,0,.789-1.828A1.971,1.971,0,0,0,6.7-9.719a3.877,3.877,0,0,0-2.312-.555H2.9ZM16.273,0l-.258-1.219h-.062a3.6,3.6,0,0,1-1.277,1.09,3.893,3.893,0,0,1-1.59.285,2.86,2.86,0,0,1-2-.656,2.394,2.394,0,0,1-.723-1.867q0-2.594,4.148-2.719l1.453-.047v-.531a2.171,2.171,0,0,0-.434-1.488,1.783,1.783,0,0,0-1.387-.48,5.65,5.65,0,0,0-2.422.656l-.4-.992a6.094,6.094,0,0,1,1.387-.539,6.006,6.006,0,0,1,1.512-.2,3.262,3.262,0,0,1,2.27.68,2.837,2.837,0,0,1,.738,2.18V0Zm-2.93-.914a2.632,2.632,0,0,0,1.9-.664,2.457,2.457,0,0,0,.691-1.859v-.773l-1.3.055a4.717,4.717,0,0,0-2.23.48,1.449,1.449,0,0,0-.684,1.324,1.336,1.336,0,0,0,.426,1.07A1.767,1.767,0,0,0,13.344-.914Zm-.3-8.977q.375-.484.809-1.172a13.411,13.411,0,0,0,.684-1.2h1.578v.164a11.549,11.549,0,0,1-1.023,1.25A11.619,11.619,0,0,1,13.906-9.7h-.867ZM26.914-8.562v.82l-1.586.188a2.726,2.726,0,0,1,.391.715,2.727,2.727,0,0,1,.172,1,2.531,2.531,0,0,1-.859,2.008,3.467,3.467,0,0,1-2.359.75,3.929,3.929,0,0,1-.719-.062,1.276,1.276,0,0,0-.828,1.1.56.56,0,0,0,.289.52,2.112,2.112,0,0,0,.992.168h1.516a3.394,3.394,0,0,1,2.137.586A2.036,2.036,0,0,1,26.8.93,2.431,2.431,0,0,1,25.664,3.1a6.1,6.1,0,0,1-3.328.746,4.547,4.547,0,0,1-2.59-.625,2.018,2.018,0,0,1-.91-1.766A1.983,1.983,0,0,1,19.336.1a2.546,2.546,0,0,1,1.406-.773,1.357,1.357,0,0,1-.551-.461,1.22,1.22,0,0,1-.223-.727,1.379,1.379,0,0,1,.25-.82,2.628,2.628,0,0,1,.789-.68,2.313,2.313,0,0,1-1.082-.93,2.732,2.732,0,0,1-.418-1.5,2.771,2.771,0,0,1,.844-2.168,3.445,3.445,0,0,1,2.391-.762,4.347,4.347,0,0,1,1.211.156Zm-6.828,10a1.162,1.162,0,0,0,.586,1.055,3.234,3.234,0,0,0,1.68.359,4.687,4.687,0,0,0,2.418-.488,1.5,1.5,0,0,0,.785-1.324,1.048,1.048,0,0,0-.43-.965A3.337,3.337,0,0,0,23.508-.2H21.953a2.048,2.048,0,0,0-1.375.422A1.507,1.507,0,0,0,20.086,1.438Zm.7-7.258A1.743,1.743,0,0,0,21.3-4.461,2.028,2.028,0,0,0,22.711-4a1.654,1.654,0,0,0,1.9-1.844,1.7,1.7,0,0,0-1.922-1.93,1.9,1.9,0,0,0-1.406.492A1.982,1.982,0,0,0,20.789-5.82ZM29.969,0h-1.3V-8.562h1.3ZM28.563-10.883a.861.861,0,0,1,.219-.652.764.764,0,0,1,.547-.207.764.764,0,0,1,.539.211.846.846,0,0,1,.227.648.859.859,0,0,1-.227.652.757.757,0,0,1-.539.215.749.749,0,0,1-.547-.215A.877.877,0,0,1,28.563-10.883ZM38.578,0V-5.539A2.235,2.235,0,0,0,38.1-7.1a1.941,1.941,0,0,0-1.492-.516,2.461,2.461,0,0,0-1.969.727,3.668,3.668,0,0,0-.625,2.4V0h-1.3V-8.562h1.055l.211,1.172h.063a2.648,2.648,0,0,1,1.117-.98,3.63,3.63,0,0,1,1.6-.348,3.252,3.252,0,0,1,2.328.746,3.175,3.175,0,0,1,.781,2.387V0ZM47.8,0l-.258-1.219h-.062a3.6,3.6,0,0,1-1.277,1.09,3.893,3.893,0,0,1-1.59.285,2.86,2.86,0,0,1-2-.656A2.394,2.394,0,0,1,41.9-2.367q0-2.594,4.148-2.719L47.5-5.133v-.531a2.171,2.171,0,0,0-.434-1.488,1.783,1.783,0,0,0-1.387-.48,5.65,5.65,0,0,0-2.422.656l-.4-.992a6.094,6.094,0,0,1,1.387-.539,6.006,6.006,0,0,1,1.512-.2,3.262,3.262,0,0,1,2.27.68,2.837,2.837,0,0,1,.738,2.18V0Zm-2.93-.914a2.632,2.632,0,0,0,1.9-.664,2.457,2.457,0,0,0,.691-1.859v-.773l-1.3.055a4.717,4.717,0,0,0-2.23.48,1.449,1.449,0,0,0-.684,1.324,1.336,1.336,0,0,0,.426,1.07A1.767,1.767,0,0,0,44.875-.914ZM56.891,0h-1.3V-8.562h1.3ZM55.484-10.883a.861.861,0,0,1,.219-.652.764.764,0,0,1,.547-.207.764.764,0,0,1,.539.211.846.846,0,0,1,.227.648.859.859,0,0,1-.227.652.757.757,0,0,1-.539.215.749.749,0,0,1-.547-.215A.877.877,0,0,1,55.484-10.883ZM65.5,0V-5.539A2.235,2.235,0,0,0,65.023-7.1a1.941,1.941,0,0,0-1.492-.516,2.461,2.461,0,0,0-1.969.727,3.668,3.668,0,0,0-.625,2.4V0h-1.3V-8.562H60.7l.211,1.172h.063a2.648,2.648,0,0,1,1.117-.98,3.63,3.63,0,0,1,1.6-.348,3.252,3.252,0,0,1,2.328.746A3.175,3.175,0,0,1,66.8-5.586V0Zm6.727-.914a4.236,4.236,0,0,0,.664-.051A4.3,4.3,0,0,0,73.4-1.07v.992a2.371,2.371,0,0,1-.621.168,4.664,4.664,0,0,1-.738.066q-2.484,0-2.484-2.617V-7.555H68.328V-8.18l1.227-.539.547-1.828h.75v1.984h2.484v1.008H70.852v5.039a1.734,1.734,0,0,0,.367,1.188A1.278,1.278,0,0,0,72.227-.914Zm6.5,1.07A3.934,3.934,0,0,1,75.73-1a4.476,4.476,0,0,1-1.1-3.211A4.964,4.964,0,0,1,75.652-7.5a3.387,3.387,0,0,1,2.738-1.219A3.229,3.229,0,0,1,80.938-7.66a4.057,4.057,0,0,1,.938,2.793v.82h-5.9a3.394,3.394,0,0,0,.762,2.289,2.635,2.635,0,0,0,2.035.781,6.9,6.9,0,0,0,2.734-.578V-.4a6.863,6.863,0,0,1-1.3.426A7.31,7.31,0,0,1,78.727.156Zm-.352-7.789a2.118,2.118,0,0,0-1.645.672A3.1,3.1,0,0,0,76.008-5.1h4.477a2.851,2.851,0,0,0-.547-1.879A1.925,1.925,0,0,0,78.375-7.633Zm9.617-1.086a5.075,5.075,0,0,1,1.023.094l-.18,1.2a4.418,4.418,0,0,0-.937-.117,2.282,2.282,0,0,0-1.777.844,3.077,3.077,0,0,0-.738,2.1V0h-1.3V-8.562h1.07L85.3-6.977h.063a3.764,3.764,0,0,1,1.148-1.289A2.585,2.585,0,0,1,87.992-8.719ZM101.531,0V-5.57a2.312,2.312,0,0,0-.437-1.535,1.692,1.692,0,0,0-1.359-.512,2.195,2.195,0,0,0-1.789.7,3.3,3.3,0,0,0-.578,2.141V0h-1.3V-5.57a2.312,2.312,0,0,0-.437-1.535,1.7,1.7,0,0,0-1.367-.512,2.118,2.118,0,0,0-1.785.73,3.953,3.953,0,0,0-.566,2.395V0h-1.3V-8.562h1.055l.211,1.172h.063a2.549,2.549,0,0,1,1.035-.977,3.162,3.162,0,0,1,1.5-.352A2.544,2.544,0,0,1,97.1-7.266h.063a2.73,2.73,0,0,1,1.109-1.062,3.442,3.442,0,0,1,1.656-.391,2.9,2.9,0,0,1,2.176.746,3.338,3.338,0,0,1,.723,2.387V0Zm7.586.156a3.934,3.934,0,0,1-3-1.156,4.476,4.476,0,0,1-1.1-3.211,4.964,4.964,0,0,1,1.02-3.289,3.387,3.387,0,0,1,2.738-1.219,3.229,3.229,0,0,1,2.547,1.059,4.057,4.057,0,0,1,.938,2.793v.82h-5.9a3.394,3.394,0,0,0,.762,2.289,2.635,2.635,0,0,0,2.035.781,6.9,6.9,0,0,0,2.734-.578V-.4a6.863,6.863,0,0,1-1.3.426A7.31,7.31,0,0,1,109.117.156Zm-.352-7.789a2.118,2.118,0,0,0-1.645.672A3.1,3.1,0,0,0,106.4-5.1h4.477a2.851,2.851,0,0,0-.547-1.879A1.925,1.925,0,0,0,108.766-7.633ZM120.3-1.148h-.07a3.047,3.047,0,0,1-2.687,1.3,3.179,3.179,0,0,1-2.613-1.148A5.055,5.055,0,0,1,114-4.258a5.141,5.141,0,0,1,.938-3.289,3.155,3.155,0,0,1,2.609-1.172,3.114,3.114,0,0,1,2.672,1.266h.1l-.055-.617-.031-.6v-3.484h1.3V0h-1.055Zm-2.594.219a2.361,2.361,0,0,0,1.926-.723,3.652,3.652,0,0,0,.6-2.332v-.273a4.3,4.3,0,0,0-.605-2.6,2.3,2.3,0,0,0-1.934-.777,1.985,1.985,0,0,0-1.746.887,4.409,4.409,0,0,0-.605,2.5,4.227,4.227,0,0,0,.6,2.477A2.037,2.037,0,0,0,117.711-.93Zm7.867.93h-1.3V-8.562h1.3Zm-1.406-10.883a.861.861,0,0,1,.219-.652.764.764,0,0,1,.547-.207.764.764,0,0,1,.539.211.846.846,0,0,1,.227.648.859.859,0,0,1-.227.652.757.757,0,0,1-.539.215.749.749,0,0,1-.547-.215A.877.877,0,0,1,124.172-10.883ZM133.594,0l-.258-1.219h-.062A3.6,3.6,0,0,1,132-.129a3.893,3.893,0,0,1-1.59.285,2.86,2.86,0,0,1-2-.656,2.394,2.394,0,0,1-.723-1.867q0-2.594,4.148-2.719l1.453-.047v-.531a2.171,2.171,0,0,0-.434-1.488,1.783,1.783,0,0,0-1.387-.48,5.65,5.65,0,0,0-2.422.656l-.4-.992a6.094,6.094,0,0,1,1.387-.539,6.006,6.006,0,0,1,1.512-.2,3.262,3.262,0,0,1,2.27.68,2.837,2.837,0,0,1,.738,2.18V0Zm-2.93-.914a2.632,2.632,0,0,0,1.9-.664,2.457,2.457,0,0,0,.691-1.859v-.773l-1.3.055a4.717,4.717,0,0,0-2.23.48,1.449,1.449,0,0,0-.684,1.324,1.336,1.336,0,0,0,.426,1.07A1.767,1.767,0,0,0,130.664-.914ZM0,1H17.836V2H0ZM27.8,1H135.852V2H27.8Z" transform="translate(631 722)" fill="#007bc7"/>
      <path id="Trazado_33-2" data-name="Trazado 33" d="M0,0H22V22H0Z" transform="translate(600 705)" fill="none"/>
      <path id="Trazado_34-2" data-name="Trazado 34" d="M9.266,6.686a.913.913,0,0,0,0,1.293l3.557,3.557L9.266,15.091a.914.914,0,0,0,1.292,1.293l4.208-4.208a.913.913,0,0,0,0-1.292L10.558,6.676A.921.921,0,0,0,9.266,6.686Z" transform="translate(599.25 704.465)" fill="#38485c"/>
      <path id="Trazado_27758" data-name="Trazado 27758" d="M1,0H41a1,1,0,0,1,1,1V21a1,1,0,0,1-1,1H1a1,1,0,0,1-1-1V1A1,1,0,0,1,1,0Z" transform="translate(550 705)" fill="none"/>
      <path id="Trazado_27759" data-name="Trazado 27759" d="M1.57,0V-11.422H2.9V0ZM11.7,0V-5.539A2.235,2.235,0,0,0,11.219-7.1a1.941,1.941,0,0,0-1.492-.516,2.461,2.461,0,0,0-1.969.727,3.668,3.668,0,0,0-.625,2.4V0h-1.3V-8.562H6.891L7.1-7.391h.063a2.648,2.648,0,0,1,1.117-.98,3.63,3.63,0,0,1,1.6-.348,3.252,3.252,0,0,1,2.328.746,3.175,3.175,0,0,1,.781,2.387V0Zm5.258,0h-1.3V-8.562h1.3ZM15.547-10.883a.861.861,0,0,1,.219-.652.764.764,0,0,1,.547-.207.764.764,0,0,1,.539.211.846.846,0,0,1,.227.648.859.859,0,0,1-.227.652.757.757,0,0,1-.539.215.749.749,0,0,1-.547-.215A.877.877,0,0,1,15.547-10.883ZM23.125.156A3.654,3.654,0,0,1,20.246-.988a4.707,4.707,0,0,1-1.02-3.238,4.853,4.853,0,0,1,1.035-3.32,3.727,3.727,0,0,1,2.949-1.172,5.852,5.852,0,0,1,1.234.133,4.066,4.066,0,0,1,.969.313l-.4,1.1a6.1,6.1,0,0,0-.937-.285,4.186,4.186,0,0,0-.9-.113q-2.609,0-2.609,3.328a3.963,3.963,0,0,0,.637,2.422,2.215,2.215,0,0,0,1.887.844,5.769,5.769,0,0,0,2.2-.461V-.289A4.679,4.679,0,0,1,23.125.156ZM28.617,0h-1.3V-8.562h1.3ZM27.211-10.883a.861.861,0,0,1,.219-.652.764.764,0,0,1,.547-.207.764.764,0,0,1,.539.211.846.846,0,0,1,.227.648.859.859,0,0,1-.227.652.757.757,0,0,1-.539.215.749.749,0,0,1-.547-.215A.877.877,0,0,1,27.211-10.883ZM38.758-4.289A4.724,4.724,0,0,1,37.7-1.02,3.714,3.714,0,0,1,34.789.156,3.86,3.86,0,0,1,32.75-.383,3.558,3.558,0,0,1,31.375-1.93a5.391,5.391,0,0,1-.484-2.359,4.716,4.716,0,0,1,1.047-3.262,3.7,3.7,0,0,1,2.906-1.168,3.622,3.622,0,0,1,2.855,1.2A4.7,4.7,0,0,1,38.758-4.289Zm-6.523,0a4.064,4.064,0,0,0,.656,2.5,2.278,2.278,0,0,0,1.93.859,2.293,2.293,0,0,0,1.934-.855,4.043,4.043,0,0,0,.66-2.5,3.978,3.978,0,0,0-.66-2.48A2.32,2.32,0,0,0,34.8-7.617a2.283,2.283,0,0,0-1.922.836A4.023,4.023,0,0,0,32.234-4.289ZM0,1H39.656V2H0Z" transform="translate(551 722)" fill="#007bc7"/>
    </g>
  </g>
</svg>
