<svg xmlns="http://www.w3.org/2000/svg" width="712" height="376" viewBox="0 0 712 376"><defs><style>.a{fill:#f3f6f9;}.b,.g{fill:#e6ebf0;}.c{fill:#fff;}.d{fill:rgba(56,72,92,0.6);}.e{fill:#5c6a7a;}.f,.h{fill:#38485c;}.f,.g{opacity:0.5;}.g,.i{stroke:#38485c;}.i,.l,.n{fill:none;}.i{stroke-linecap:round;}.j{fill:#d1d8e0;}.k{fill:#007bc7;opacity:0.24;}.l{stroke:#007bc7;stroke-dasharray:5 2;}.m{stroke:none;}</style></defs><g transform="translate(-513 -1996)"><path class="a" d="M4,0H708c2.209,0,4,1.333,4,2.978V373.022c0,1.645-1.791,2.978-4,2.978H4c-2.209,0-4-1.334-4-2.978V2.978C0,1.333,1.791,0,4,0Z" transform="translate(513 1996)"/><rect class="b" width="712" height="71" transform="translate(513 1996)"/><rect class="c" width="372" height="201" rx="4" transform="translate(606 2056)"/><rect class="b" width="43" height="16" rx="4" transform="translate(935 2269)"/><path class="d" d="M-10.4-1.163a1.078,1.078,0,0,1-.413.9,1.8,1.8,0,0,1-1.14.325,2.719,2.719,0,0,1-1.189-.226V-.829a3.233,3.233,0,0,0,.623.217,2.64,2.64,0,0,0,.614.079.976.976,0,0,0,.614-.158.516.516,0,0,0,.2-.425.532.532,0,0,0-.182-.407,2.735,2.735,0,0,0-.75-.4,1.984,1.984,0,0,1-.826-.542,1.147,1.147,0,0,1-.24-.732,1.026,1.026,0,0,1,.381-.844,1.58,1.58,0,0,1,1.022-.308,3,3,0,0,1,1.225.27l-.223.571a2.676,2.676,0,0,0-1.02-.24.782.782,0,0,0-.516.148.486.486,0,0,0-.176.391.551.551,0,0,0,.07.286A.718.718,0,0,0-12.1-2.7a3.915,3.915,0,0,0,.58.278,3.174,3.174,0,0,1,.691.366,1.077,1.077,0,0,1,.322.384A1.154,1.154,0,0,1-10.4-1.163ZM-8.956,0h-.688V-3.24h.688Zm-.729-4.1a.381.381,0,0,1,.1-.284.394.394,0,0,1,.289-.1.385.385,0,0,1,.283.1.381.381,0,0,1,.1.284.374.374,0,0,1-.1.277.382.382,0,0,1-.283.1.39.39,0,0,1-.289-.1A.374.374,0,0,1-9.686-4.1Zm4.45.858v.378l-.554.1a.894.894,0,0,1,.126.252.994.994,0,0,1,.05.316.969.969,0,0,1-.346.788,1.447,1.447,0,0,1-.952.287,1.544,1.544,0,0,1-.281-.023.388.388,0,0,0-.223.322.179.179,0,0,0,.1.167.9.9,0,0,0,.382.056h.565a1.257,1.257,0,0,1,.814.229.8.8,0,0,1,.278.659.959.959,0,0,1-.454.85,2.391,2.391,0,0,1-1.312.3,1.811,1.811,0,0,1-1.011-.234A.758.758,0,0,1-8.4.539a.711.711,0,0,1,.189-.5,1.013,1.013,0,0,1,.529-.283.517.517,0,0,1-.227-.189A.477.477,0,0,1-8-.709a.472.472,0,0,1,.1-.308,1.183,1.183,0,0,1,.3-.249A.9.9,0,0,1-8-1.619a1.038,1.038,0,0,1-.157-.573,1.027,1.027,0,0,1,.333-.817,1.4,1.4,0,0,1,.948-.29,2.307,2.307,0,0,1,.289.019,1.817,1.817,0,0,1,.227.04ZM-7.781.5a.379.379,0,0,0,.2.343,1.1,1.1,0,0,0,.564.12A1.7,1.7,0,0,0-6.179.806.483.483,0,0,0-5.9.378a.321.321,0,0,0-.151-.3,1.212,1.212,0,0,0-.561-.089h-.521a.733.733,0,0,0-.47.139A.456.456,0,0,0-7.781.5Zm.3-2.7a.652.652,0,0,0,.157.469.593.593,0,0,0,.45.164q.6,0,.6-.639a.724.724,0,0,0-.148-.488.562.562,0,0,0-.45-.171.58.58,0,0,0-.453.17A.714.714,0,0,0-7.485-2.191ZM-2.35,0l-.1-.425h-.035A.977.977,0,0,1-2.89-.07a1.366,1.366,0,0,1-.6.129,1.188,1.188,0,0,1-.879-.293,1.214,1.214,0,0,1-.29-.888V-3.24h.694v2a.867.867,0,0,0,.152.558A.582.582,0,0,0-3.34-.5.76.76,0,0,0-2.7-.757a1.429,1.429,0,0,0,.2-.869V-3.24h.691V0ZM-.138,0H-.826V-3.24h.688ZM-.867-4.1a.381.381,0,0,1,.1-.284.394.394,0,0,1,.289-.1.385.385,0,0,1,.283.1.381.381,0,0,1,.1.284.374.374,0,0,1-.1.277.382.382,0,0,1-.283.1.39.39,0,0,1-.289-.1A.374.374,0,0,1-.867-4.1ZM2.262.059A1.567,1.567,0,0,1,1.08-.382,1.674,1.674,0,0,1,.653-1.6a1.836,1.836,0,0,1,.4-1.248A1.366,1.366,0,0,1,2.136-3.3a1.335,1.335,0,0,1,1.014.39,1.489,1.489,0,0,1,.372,1.072v.372H1.362a1.064,1.064,0,0,0,.255.725.888.888,0,0,0,.677.253,2.5,2.5,0,0,0,.535-.054,2.8,2.8,0,0,0,.532-.18v.56a2.114,2.114,0,0,1-.51.17A3.126,3.126,0,0,1,2.262.059ZM2.136-2.777a.692.692,0,0,0-.526.208.991.991,0,0,0-.236.606H2.845a.9.9,0,0,0-.193-.608A.661.661,0,0,0,2.136-2.777ZM7.154,0H6.463V-1.992a.872.872,0,0,0-.151-.56.583.583,0,0,0-.479-.185.762.762,0,0,0-.639.258,1.423,1.423,0,0,0-.2.864V0H4.3V-3.24h.539l.1.425h.035a.959.959,0,0,1,.416-.357,1.394,1.394,0,0,1,.6-.126A1.04,1.04,0,0,1,7.154-2.112ZM9.319-.5a1.674,1.674,0,0,0,.5-.079v.519a1.39,1.39,0,0,1-.294.083,2.029,2.029,0,0,1-.374.034q-.979,0-.979-1.031V-2.719H7.734v-.3l.475-.252.234-.686h.425v.721h.923v.521H8.868V-.984a.487.487,0,0,0,.125.368A.454.454,0,0,0,9.319-.5Zm2.566.557A1.567,1.567,0,0,1,10.7-.382,1.674,1.674,0,0,1,10.277-1.6a1.836,1.836,0,0,1,.4-1.248A1.366,1.366,0,0,1,11.76-3.3a1.335,1.335,0,0,1,1.014.39,1.489,1.489,0,0,1,.372,1.072v.372H10.986a1.064,1.064,0,0,0,.255.725.888.888,0,0,0,.677.253,2.5,2.5,0,0,0,.535-.054,2.8,2.8,0,0,0,.532-.18v.56a2.114,2.114,0,0,1-.51.17A3.126,3.126,0,0,1,11.886.059ZM11.76-2.777a.692.692,0,0,0-.526.208A.991.991,0,0,0,11-1.963h1.471a.9.9,0,0,0-.193-.608A.661.661,0,0,0,11.76-2.777Z" transform="translate(957 2279)"/><rect class="e" width="42" height="16" rx="4" transform="translate(888 2269)"/><path class="c" d="M2.388-3.744a1.154,1.154,0,0,0-.949.428,1.828,1.828,0,0,0-.346,1.181A1.841,1.841,0,0,0,1.425-.943a1.174,1.174,0,0,0,.962.4,2.529,2.529,0,0,0,.527-.054q.255-.054.53-.139v.6A3.215,3.215,0,0,1,2.3.059,1.826,1.826,0,0,1,.858-.511a2.384,2.384,0,0,1-.5-1.63A2.635,2.635,0,0,1,.6-3.311a1.746,1.746,0,0,1,.708-.768,2.14,2.14,0,0,1,1.087-.267,2.7,2.7,0,0,1,1.213.275l-.252.583a3.762,3.762,0,0,0-.458-.18A1.652,1.652,0,0,0,2.388-3.744ZM6.322,0,6.185-.451H6.161a1.327,1.327,0,0,1-.472.4A1.492,1.492,0,0,1,5.08.059,1.031,1.031,0,0,1,4.334-.2a.965.965,0,0,1-.268-.729.857.857,0,0,1,.372-.756,2.145,2.145,0,0,1,1.134-.278l.56-.018v-.173a.655.655,0,0,0-.145-.464.591.591,0,0,0-.45-.154A1.555,1.555,0,0,0,5.06-2.7a3.6,3.6,0,0,0-.439.173L4.4-3.018a2.4,2.4,0,0,1,.577-.209A2.656,2.656,0,0,1,5.566-3.3a1.4,1.4,0,0,1,.933.27,1.055,1.055,0,0,1,.315.847V0ZM5.3-.469a.853.853,0,0,0,.6-.209.759.759,0,0,0,.227-.587v-.281l-.416.018A1.423,1.423,0,0,0,5-1.367a.494.494,0,0,0-.221.444.433.433,0,0,0,.129.335A.554.554,0,0,0,5.3-.469ZM10.626,0H9.935V-1.992a.872.872,0,0,0-.151-.56A.583.583,0,0,0,9.3-2.736a.762.762,0,0,0-.639.258,1.423,1.423,0,0,0-.2.864V0H7.775V-3.24h.539l.1.425h.035a.959.959,0,0,1,.416-.357,1.394,1.394,0,0,1,.6-.126,1.04,1.04,0,0,1,1.166,1.187Zm2.265.059a1.419,1.419,0,0,1-1.118-.429A1.793,1.793,0,0,1,11.391-1.6a1.8,1.8,0,0,1,.4-1.257A1.483,1.483,0,0,1,12.946-3.3a2.166,2.166,0,0,1,.923.19l-.208.554a2.085,2.085,0,0,0-.721-.17q-.841,0-.841,1.116a1.337,1.337,0,0,0,.209.819.725.725,0,0,0,.614.274,1.761,1.761,0,0,0,.87-.229v.6A1.36,1.36,0,0,1,13.4.012,2.364,2.364,0,0,1,12.891.059Zm3.079,0a1.567,1.567,0,0,1-1.182-.441A1.674,1.674,0,0,1,14.361-1.6a1.836,1.836,0,0,1,.4-1.248A1.366,1.366,0,0,1,15.844-3.3a1.335,1.335,0,0,1,1.014.39,1.489,1.489,0,0,1,.372,1.072v.372H15.07a1.064,1.064,0,0,0,.255.725A.888.888,0,0,0,16-.486a2.5,2.5,0,0,0,.535-.054,2.8,2.8,0,0,0,.532-.18v.56a2.114,2.114,0,0,1-.51.17A3.126,3.126,0,0,1,15.97.059Zm-.126-2.836a.692.692,0,0,0-.526.208.991.991,0,0,0-.236.606h1.471a.9.9,0,0,0-.193-.608A.661.661,0,0,0,15.844-2.777ZM18.7,0h-.688V-4.559H18.7Zm3.012,0-.138-.451h-.023a1.327,1.327,0,0,1-.472.4,1.492,1.492,0,0,1-.609.107A1.031,1.031,0,0,1,19.724-.2a.965.965,0,0,1-.268-.729.857.857,0,0,1,.372-.756,2.145,2.145,0,0,1,1.134-.278l.56-.018v-.173a.655.655,0,0,0-.145-.464.591.591,0,0,0-.45-.154,1.555,1.555,0,0,0-.478.073,3.6,3.6,0,0,0-.439.173l-.223-.492a2.4,2.4,0,0,1,.577-.209,2.656,2.656,0,0,1,.592-.072,1.4,1.4,0,0,1,.933.27,1.055,1.055,0,0,1,.315.847V0ZM20.687-.469a.853.853,0,0,0,.6-.209.759.759,0,0,0,.227-.587v-.281l-.416.018a1.423,1.423,0,0,0-.708.163.494.494,0,0,0-.221.444.433.433,0,0,0,.129.335A.554.554,0,0,0,20.687-.469ZM24.809-3.3a1.657,1.657,0,0,1,.343.029l-.067.642a1.3,1.3,0,0,0-.3-.035.882.882,0,0,0-.669.27.974.974,0,0,0-.256.7V0h-.688V-3.24H23.7l.091.571h.035a1.284,1.284,0,0,1,.42-.46A1,1,0,0,1,24.809-3.3Z" transform="translate(897 2279)"/><path class="f" d="M2.2-2.023a.8.8,0,0,1-.3.667,1.34,1.34,0,0,1-.847.233H.725V0H.393V-2.855h.74Q2.2-2.855,2.2-2.023ZM.725-1.408h.3a1.111,1.111,0,0,0,.639-.143.525.525,0,0,0,.2-.457.493.493,0,0,0-.186-.422A.969.969,0,0,0,1.1-2.568H.725ZM4.068,0,4-.3H3.988a.9.9,0,0,1-.319.272.973.973,0,0,1-.4.071.715.715,0,0,1-.5-.164.6.6,0,0,1-.181-.467q0-.648,1.037-.68l.363-.012v-.133a.543.543,0,0,0-.108-.372.446.446,0,0,0-.347-.12,1.413,1.413,0,0,0-.605.164l-.1-.248a1.524,1.524,0,0,1,.347-.135,1.5,1.5,0,0,1,.378-.049.815.815,0,0,1,.567.17.709.709,0,0,1,.185.545V0ZM3.336-.229a.658.658,0,0,0,.476-.166.614.614,0,0,0,.173-.465v-.193l-.324.014a1.179,1.179,0,0,0-.558.12.362.362,0,0,0-.171.331.334.334,0,0,0,.106.268A.442.442,0,0,0,3.336-.229ZM6.357-.584a.536.536,0,0,1-.223.461A1.047,1.047,0,0,1,5.51.039,1.359,1.359,0,0,1,4.846-.1V-.4a1.606,1.606,0,0,0,.331.123,1.382,1.382,0,0,0,.341.045A.773.773,0,0,0,5.908-.31a.268.268,0,0,0,.137-.247.268.268,0,0,0-.108-.214,1.705,1.705,0,0,0-.423-.21,2.293,2.293,0,0,1-.425-.194A.58.58,0,0,1,4.9-1.363a.492.492,0,0,1-.062-.252.48.48,0,0,1,.213-.413.992.992,0,0,1,.584-.151,1.709,1.709,0,0,1,.676.141L6.2-1.775a1.551,1.551,0,0,0-.584-.133.672.672,0,0,0-.348.072.223.223,0,0,0-.117.2.243.243,0,0,0,.044.146.434.434,0,0,0,.142.115,3.164,3.164,0,0,0,.375.158,1.4,1.4,0,0,1,.515.279A.493.493,0,0,1,6.357-.584Zm2.375-.488a1.181,1.181,0,0,1-.264.817A.929.929,0,0,1,7.74.039.965.965,0,0,1,7.23-.1a.889.889,0,0,1-.344-.387,1.348,1.348,0,0,1-.121-.59,1.179,1.179,0,0,1,.262-.815.926.926,0,0,1,.727-.292.906.906,0,0,1,.714.3A1.176,1.176,0,0,1,8.732-1.072Zm-1.631,0a1.016,1.016,0,0,0,.164.625.569.569,0,0,0,.482.215.573.573,0,0,0,.483-.214A1.011,1.011,0,0,0,8.4-1.072a1,1,0,0,0-.165-.62A.58.58,0,0,0,7.744-1.9a.571.571,0,0,0-.48.209A1.006,1.006,0,0,0,7.1-1.072Zm4.859-1.111a.651.651,0,0,1-.153.447.768.768,0,0,1-.435.232v.016a.817.817,0,0,1,.51.219.644.644,0,0,1,.166.461.748.748,0,0,1-.283.628,1.288,1.288,0,0,1-.8.22A2.332,2.332,0,0,1,10.546,0a1.42,1.42,0,0,1-.366-.12V-.424a1.781,1.781,0,0,0,.4.14,1.791,1.791,0,0,0,.4.048q.74,0,.74-.58,0-.52-.816-.52h-.281v-.279H10.9a.859.859,0,0,0,.529-.147.484.484,0,0,0,.2-.409.4.4,0,0,0-.144-.328.592.592,0,0,0-.39-.119,1.2,1.2,0,0,0-.354.051,1.582,1.582,0,0,0-.379.188L10.2-2.6a1.368,1.368,0,0,1,.405-.218,1.473,1.473,0,0,1,.483-.079.988.988,0,0,1,.646.19A.641.641,0,0,1,11.961-2.184Zm3.162,1.9h-.018a.762.762,0,0,1-.672.326.8.8,0,0,1-.653-.287,1.264,1.264,0,0,1-.233-.816,1.285,1.285,0,0,1,.234-.822.789.789,0,0,1,.652-.293.778.778,0,0,1,.668.316h.025l-.014-.154-.008-.15v-.871h.324V0h-.264Zm-.648.055a.59.59,0,0,0,.481-.181A.913.913,0,0,0,15.105-1v-.068a1.074,1.074,0,0,0-.151-.649.575.575,0,0,0-.483-.194.5.5,0,0,0-.437.222,1.1,1.1,0,0,0-.151.626,1.057,1.057,0,0,0,.15.619A.509.509,0,0,0,14.475-.232Zm2.547.271a.983.983,0,0,1-.749-.289,1.119,1.119,0,0,1-.274-.8,1.241,1.241,0,0,1,.255-.822.847.847,0,0,1,.685-.3.807.807,0,0,1,.637.265,1.014,1.014,0,0,1,.234.7v.205H16.334a.849.849,0,0,0,.19.572.659.659,0,0,0,.509.2,1.724,1.724,0,0,0,.684-.145V-.1a1.716,1.716,0,0,1-.325.106A1.828,1.828,0,0,1,17.021.039Zm-.088-1.947a.529.529,0,0,0-.411.168.774.774,0,0,0-.181.465h1.119a.713.713,0,0,0-.137-.47A.481.481,0,0,0,16.934-1.908Zm2.352.688a2.02,2.02,0,0,1,.327-1.259A1.155,1.155,0,0,1,20.58-2.9a1.289,1.289,0,0,1,.348.037v.279a1.112,1.112,0,0,0-.344-.049.867.867,0,0,0-.7.286,1.467,1.467,0,0,0-.266.9h.023a.748.748,0,0,1,.68-.336.8.8,0,0,1,.606.232.876.876,0,0,1,.222.631.973.973,0,0,1-.243.7.865.865,0,0,1-.657.255.845.845,0,0,1-.7-.333A1.473,1.473,0,0,1,19.285-1.221Zm.959.984a.543.543,0,0,0,.431-.175.743.743,0,0,0,.153-.5.651.651,0,0,0-.143-.445.537.537,0,0,0-.426-.162.718.718,0,0,0-.322.072.6.6,0,0,0-.233.2.46.46,0,0,0-.087.264.9.9,0,0,0,.078.375.661.661,0,0,0,.222.275A.552.552,0,0,0,20.244-.236Z" transform="translate(644 2043)"/><g class="g" transform="translate(636 2040)"><circle class="m" cx="2" cy="2" r="2"/><circle class="n" cx="2" cy="2" r="1.5"/></g><g class="g" transform="translate(630 2040)"><circle class="m" cx="2" cy="2" r="2"/><circle class="n" cx="2" cy="2" r="1.5"/></g><g class="g" transform="translate(624 2040)"><circle class="m" cx="2" cy="2" r="2"/><circle class="n" cx="2" cy="2" r="1.5"/></g><circle class="f" cx="2" cy="2" r="2" transform="translate(606 2040)"/><circle class="f" cx="2" cy="2" r="2" transform="translate(612 2040)"/><circle class="f" cx="2" cy="2" r="2" transform="translate(618 2040)"/><path class="f" d="M2.754-2.529a1,1,0,0,1-.37.834A1.676,1.676,0,0,1,1.326-1.4H.906V0H.491V-3.569h.925Q2.754-3.569,2.754-2.529ZM.906-1.76h.374a1.388,1.388,0,0,0,.8-.178.657.657,0,0,0,.247-.571.616.616,0,0,0-.232-.527A1.212,1.212,0,0,0,1.37-3.21H.906ZM5.085,0,5-.381h-.02a1.126,1.126,0,0,1-.4.341,1.217,1.217,0,0,1-.5.089.894.894,0,0,1-.624-.205A.748.748,0,0,1,3.24-.74q0-.811,1.3-.85L4.99-1.6V-1.77a.678.678,0,0,0-.135-.465.557.557,0,0,0-.433-.15,1.766,1.766,0,0,0-.757.205L3.54-2.49a1.9,1.9,0,0,1,.433-.168,1.877,1.877,0,0,1,.472-.061,1.019,1.019,0,0,1,.709.212.887.887,0,0,1,.231.681V0ZM4.17-.286a.823.823,0,0,0,.594-.208.768.768,0,0,0,.216-.581v-.242L4.575-1.3a1.474,1.474,0,0,0-.7.15.453.453,0,0,0-.214.414A.418.418,0,0,0,3.8-.4.552.552,0,0,0,4.17-.286ZM7.947-.73a.67.67,0,0,1-.278.576,1.308,1.308,0,0,1-.781.2,1.7,1.7,0,0,1-.83-.168V-.5a2.007,2.007,0,0,0,.414.154A1.728,1.728,0,0,0,6.9-.286a.966.966,0,0,0,.488-.1A.335.335,0,0,0,7.556-.7a.335.335,0,0,0-.135-.267,2.131,2.131,0,0,0-.529-.262,2.866,2.866,0,0,1-.531-.243A.725.725,0,0,1,6.127-1.7a.614.614,0,0,1-.077-.315.6.6,0,0,1,.266-.516,1.24,1.24,0,0,1,.73-.189,2.136,2.136,0,0,1,.845.176l-.144.33a1.939,1.939,0,0,0-.73-.166.84.84,0,0,0-.435.09.279.279,0,0,0-.146.249.3.3,0,0,0,.055.183.542.542,0,0,0,.177.144,3.956,3.956,0,0,0,.469.2,1.751,1.751,0,0,1,.643.349A.616.616,0,0,1,7.947-.73Zm2.969-.61a1.476,1.476,0,0,1-.33,1.022,1.161,1.161,0,0,1-.911.367A1.206,1.206,0,0,1,9.038-.12,1.112,1.112,0,0,1,8.608-.6a1.685,1.685,0,0,1-.151-.737A1.474,1.474,0,0,1,8.784-2.36a1.157,1.157,0,0,1,.908-.365,1.132,1.132,0,0,1,.892.374A1.47,1.47,0,0,1,10.916-1.34Zm-2.039,0a1.27,1.27,0,0,0,.205.781.712.712,0,0,0,.6.269.717.717,0,0,0,.6-.267A1.264,1.264,0,0,0,10.5-1.34a1.243,1.243,0,0,0-.206-.775A.725.725,0,0,0,9.68-2.38a.713.713,0,0,0-.6.261A1.257,1.257,0,0,0,8.877-1.34Zm5.774.61a.67.67,0,0,1-.278.576,1.308,1.308,0,0,1-.781.2,1.7,1.7,0,0,1-.83-.168V-.5a2.007,2.007,0,0,0,.414.154,1.728,1.728,0,0,0,.426.056.966.966,0,0,0,.488-.1A.335.335,0,0,0,14.26-.7a.335.335,0,0,0-.135-.267,2.131,2.131,0,0,0-.529-.262,2.866,2.866,0,0,1-.531-.243.725.725,0,0,1-.234-.236.614.614,0,0,1-.077-.315.6.6,0,0,1,.266-.516,1.24,1.24,0,0,1,.73-.189,2.136,2.136,0,0,1,.845.176l-.144.33a1.939,1.939,0,0,0-.73-.166.84.84,0,0,0-.435.09.279.279,0,0,0-.146.249.3.3,0,0,0,.055.183.542.542,0,0,0,.177.144,3.956,3.956,0,0,0,.469.2,1.751,1.751,0,0,1,.643.349A.616.616,0,0,1,14.651-.73ZM15.715,0H15.31V-2.676h.405Zm-.439-3.4a.269.269,0,0,1,.068-.2.239.239,0,0,1,.171-.065.239.239,0,0,1,.168.066.264.264,0,0,1,.071.2.268.268,0,0,1-.071.2.236.236,0,0,1-.168.067.234.234,0,0,1-.171-.067A.274.274,0,0,1,15.276-3.4Zm3.489.725v.256l-.5.059a.852.852,0,0,1,.122.223.852.852,0,0,1,.054.311.791.791,0,0,1-.269.627,1.083,1.083,0,0,1-.737.234,1.228,1.228,0,0,1-.225-.02.4.4,0,0,0-.259.344.175.175,0,0,0,.09.162.66.66,0,0,0,.31.052h.474a1.061,1.061,0,0,1,.668.183.636.636,0,0,1,.233.532.76.76,0,0,1-.356.677,1.908,1.908,0,0,1-1.04.233,1.421,1.421,0,0,1-.809-.2A.631.631,0,0,1,16.24.454.62.62,0,0,1,16.4.032a.8.8,0,0,1,.439-.242.424.424,0,0,1-.172-.144.381.381,0,0,1-.07-.227.431.431,0,0,1,.078-.256.821.821,0,0,1,.247-.212.723.723,0,0,1-.338-.291.854.854,0,0,1-.131-.469.866.866,0,0,1,.264-.677,1.077,1.077,0,0,1,.747-.238,1.358,1.358,0,0,1,.378.049ZM16.631.449a.363.363,0,0,0,.183.33,1.011,1.011,0,0,0,.525.112,1.465,1.465,0,0,0,.756-.153A.467.467,0,0,0,18.34.325a.327.327,0,0,0-.134-.3A1.043,1.043,0,0,0,17.7-.061h-.486a.64.64,0,0,0-.43.132A.471.471,0,0,0,16.631.449Zm.22-2.268a.545.545,0,0,0,.159.425.634.634,0,0,0,.442.144.517.517,0,0,0,.593-.576.532.532,0,0,0-.6-.6A.6.6,0,0,0,17-2.275.619.619,0,0,0,16.851-1.819Zm2.844-.857V-.94a.7.7,0,0,0,.149.488.607.607,0,0,0,.466.161.761.761,0,0,0,.614-.229,1.158,1.158,0,0,0,.194-.75V-2.676h.405V0h-.334L21.13-.359h-.022a.808.808,0,0,1-.345.3,1.161,1.161,0,0,1-.5.1,1.023,1.023,0,0,1-.731-.232.987.987,0,0,1-.243-.742v-1.75ZM22.788,0h-.405V-2.676h.405Zm-.439-3.4a.269.269,0,0,1,.068-.2.239.239,0,0,1,.171-.065.239.239,0,0,1,.168.066.264.264,0,0,1,.071.2.268.268,0,0,1-.071.2.236.236,0,0,1-.168.067.234.234,0,0,1-.171-.067A.274.274,0,0,1,22.349-3.4ZM24.778.049a1.229,1.229,0,0,1-.936-.361,1.4,1.4,0,0,1-.343-1,1.551,1.551,0,0,1,.319-1.028,1.058,1.058,0,0,1,.856-.381,1.009,1.009,0,0,1,.8.331,1.268,1.268,0,0,1,.293.873v.256H23.918a1.061,1.061,0,0,0,.238.715.823.823,0,0,0,.636.244,2.155,2.155,0,0,0,.854-.181v.361a2.145,2.145,0,0,1-.406.133A2.284,2.284,0,0,1,24.778.049Zm-.11-2.434a.662.662,0,0,0-.514.21.968.968,0,0,0-.226.581h1.4a.891.891,0,0,0-.171-.587A.6.6,0,0,0,24.668-2.385ZM28.284,0V-1.731a.7.7,0,0,0-.149-.488.607.607,0,0,0-.466-.161.769.769,0,0,0-.615.227,1.146,1.146,0,0,0-.2.75V0h-.405V-2.676h.33l.066.366h.02a.828.828,0,0,1,.349-.306,1.134,1.134,0,0,1,.5-.109,1.016,1.016,0,0,1,.728.233.992.992,0,0,1,.244.746V0Zm2.1-.286A1.324,1.324,0,0,0,30.593-.3a1.343,1.343,0,0,0,.159-.033v.31a.741.741,0,0,1-.194.052,1.458,1.458,0,0,1-.231.021q-.776,0-.776-.818V-2.361h-.383v-.2l.383-.168.171-.571h.234v.62h.776v.315h-.776V-.786a.542.542,0,0,0,.115.371A.4.4,0,0,0,30.386-.286Zm2.031.334a1.229,1.229,0,0,1-.936-.361,1.4,1.4,0,0,1-.343-1,1.551,1.551,0,0,1,.319-1.028,1.058,1.058,0,0,1,.856-.381,1.009,1.009,0,0,1,.8.331,1.268,1.268,0,0,1,.293.873v.256H31.558a1.061,1.061,0,0,0,.238.715.823.823,0,0,0,.636.244,2.155,2.155,0,0,0,.854-.181v.361a2.145,2.145,0,0,1-.406.133A2.284,2.284,0,0,1,32.417.049Zm-.11-2.434a.662.662,0,0,0-.514.21.968.968,0,0,0-.226.581h1.4a.891.891,0,0,0-.171-.587A.6.6,0,0,0,32.307-2.385ZM34.033-.259a.364.364,0,0,1,.074-.248.27.27,0,0,1,.214-.084.289.289,0,0,1,.221.084.349.349,0,0,1,.079.248.342.342,0,0,1-.081.244.287.287,0,0,1-.22.085.289.289,0,0,1-.206-.077A.334.334,0,0,1,34.033-.259Zm0-2.156q0-.33.288-.33t.3.33a.342.342,0,0,1-.081.244.287.287,0,0,1-.22.085.289.289,0,0,1-.206-.077A.334.334,0,0,1,34.033-2.415Zm5.012-.115a1,1,0,0,1-.37.834,1.676,1.676,0,0,1-1.058.292H37.2V0h-.415V-3.569h.925Q39.045-3.569,39.045-2.529ZM37.2-1.76h.374a1.388,1.388,0,0,0,.8-.178.657.657,0,0,0,.247-.571.616.616,0,0,0-.232-.527,1.212,1.212,0,0,0-.723-.173H37.2ZM41.377,0,41.3-.381h-.02a1.126,1.126,0,0,1-.4.341,1.217,1.217,0,0,1-.5.089.894.894,0,0,1-.624-.205.748.748,0,0,1-.226-.583q0-.811,1.3-.85l.454-.015V-1.77a.678.678,0,0,0-.135-.465.557.557,0,0,0-.433-.15,1.766,1.766,0,0,0-.757.205l-.125-.31a1.9,1.9,0,0,1,.433-.168,1.877,1.877,0,0,1,.472-.061,1.019,1.019,0,0,1,.709.212.887.887,0,0,1,.231.681V0Zm-.916-.286a.823.823,0,0,0,.594-.208.768.768,0,0,0,.216-.581v-.242l-.405.017a1.474,1.474,0,0,0-.7.15.453.453,0,0,0-.214.414.418.418,0,0,0,.133.334A.552.552,0,0,0,40.461-.286ZM44.238-.73a.67.67,0,0,1-.278.576,1.308,1.308,0,0,1-.781.2,1.7,1.7,0,0,1-.83-.168V-.5a2.007,2.007,0,0,0,.414.154,1.728,1.728,0,0,0,.426.056.966.966,0,0,0,.488-.1A.335.335,0,0,0,43.848-.7a.335.335,0,0,0-.135-.267,2.131,2.131,0,0,0-.529-.262,2.866,2.866,0,0,1-.531-.243.725.725,0,0,1-.234-.236.614.614,0,0,1-.077-.315.6.6,0,0,1,.266-.516,1.24,1.24,0,0,1,.73-.189,2.136,2.136,0,0,1,.845.176l-.144.33a1.939,1.939,0,0,0-.73-.166.84.84,0,0,0-.435.09.279.279,0,0,0-.146.249.3.3,0,0,0,.055.183.542.542,0,0,0,.177.144,3.955,3.955,0,0,0,.469.2,1.751,1.751,0,0,1,.643.349A.616.616,0,0,1,44.238-.73Zm2.969-.61a1.476,1.476,0,0,1-.33,1.022,1.161,1.161,0,0,1-.911.367A1.206,1.206,0,0,1,45.33-.12,1.112,1.112,0,0,1,44.9-.6a1.685,1.685,0,0,1-.151-.737,1.474,1.474,0,0,1,.327-1.019,1.157,1.157,0,0,1,.908-.365,1.132,1.132,0,0,1,.892.374A1.47,1.47,0,0,1,47.207-1.34Zm-2.039,0a1.27,1.27,0,0,0,.205.781.712.712,0,0,0,.6.269.717.717,0,0,0,.6-.267,1.264,1.264,0,0,0,.206-.782,1.243,1.243,0,0,0-.206-.775.725.725,0,0,0-.609-.265.713.713,0,0,0-.6.261A1.257,1.257,0,0,0,45.168-1.34ZM51.047,0V-1.731a.7.7,0,0,0-.149-.488.607.607,0,0,0-.466-.161.769.769,0,0,0-.615.227,1.146,1.146,0,0,0-.2.75V0h-.405V-2.676h.33l.066.366h.02a.828.828,0,0,1,.349-.306,1.134,1.134,0,0,1,.5-.109,1.016,1.016,0,0,1,.728.233.992.992,0,0,1,.244.746V0Zm1.619-2.676V-.94a.7.7,0,0,0,.149.488.607.607,0,0,0,.466.161A.761.761,0,0,0,53.9-.52a1.158,1.158,0,0,0,.194-.75V-2.676h.405V0H54.16L54.1-.359H54.08a.808.808,0,0,1-.345.3,1.161,1.161,0,0,1-.5.1A1.023,1.023,0,0,1,52.5-.183a.987.987,0,0,1-.243-.742v-1.75Zm.425-.415q.117-.151.253-.366a4.191,4.191,0,0,0,.214-.374h.493v.051a3.609,3.609,0,0,1-.32.391,3.631,3.631,0,0,1-.369.359h-.271ZM58.765,0V-1.741a.723.723,0,0,0-.137-.48.529.529,0,0,0-.425-.16.686.686,0,0,0-.559.217,1.033,1.033,0,0,0-.181.669V0h-.405V-1.741a.723.723,0,0,0-.137-.48.532.532,0,0,0-.427-.16.662.662,0,0,0-.558.228,1.235,1.235,0,0,0-.177.748V0h-.405V-2.676h.33l.066.366h.02a.8.8,0,0,1,.323-.305.988.988,0,0,1,.468-.11.8.8,0,0,1,.82.454h.02a.853.853,0,0,1,.347-.332,1.076,1.076,0,0,1,.518-.122.906.906,0,0,1,.68.233,1.043,1.043,0,0,1,.226.746V0Zm2.371.049A1.229,1.229,0,0,1,60.2-.312a1.4,1.4,0,0,1-.343-1,1.551,1.551,0,0,1,.319-1.028,1.058,1.058,0,0,1,.856-.381,1.009,1.009,0,0,1,.8.331,1.268,1.268,0,0,1,.293.873v.256H60.276a1.061,1.061,0,0,0,.238.715.823.823,0,0,0,.636.244A2.155,2.155,0,0,0,62-.486v.361A2.145,2.145,0,0,1,61.6.009,2.284,2.284,0,0,1,61.135.049Zm-.11-2.434a.662.662,0,0,0-.514.21.968.968,0,0,0-.226.581h1.4a.891.891,0,0,0-.171-.587A.6.6,0,0,0,61.025-2.385Zm3.005-.339a1.586,1.586,0,0,1,.32.029l-.056.376A1.381,1.381,0,0,0,64-2.356a.713.713,0,0,0-.555.264.961.961,0,0,0-.231.657V0H62.81V-2.676h.334l.046.5h.02a1.176,1.176,0,0,1,.359-.4A.808.808,0,0,1,64.031-2.725Zm3.13,1.384a1.476,1.476,0,0,1-.33,1.022,1.161,1.161,0,0,1-.911.367,1.206,1.206,0,0,1-.637-.168,1.112,1.112,0,0,1-.43-.483A1.685,1.685,0,0,1,64.7-1.34a1.474,1.474,0,0,1,.327-1.019,1.157,1.157,0,0,1,.908-.365,1.132,1.132,0,0,1,.892.374A1.47,1.47,0,0,1,67.161-1.34Zm-2.039,0a1.27,1.27,0,0,0,.205.781.712.712,0,0,0,.6.269.717.717,0,0,0,.6-.267,1.264,1.264,0,0,0,.206-.782,1.243,1.243,0,0,0-.206-.775.725.725,0,0,0-.609-.265.713.713,0,0,0-.6.261A1.257,1.257,0,0,0,65.122-1.34ZM71.5-.82h-.53V0h-.388V-.82H68.845v-.354L70.54-3.589h.43v2.4h.53Zm-.918-.369V-2.375q0-.349.024-.789h-.02a3.669,3.669,0,0,1-.22.388L69.25-1.189Z" transform="translate(606 2031)"/><path class="f" d="M1.33.05A.5.5,0,0,1,.96-.09.513.513,0,0,1,.82-.47V-6.55a.493.493,0,0,1,.135-.365A.507.507,0,0,1,1.33-7.05H3.74a2.534,2.534,0,0,1,1.74.55A1.976,1.976,0,0,1,6.1-4.94a2,2,0,0,1-.62,1.56,2.5,2.5,0,0,1-1.74.56H1.85V-.47a.524.524,0,0,1-.135.38A.51.51,0,0,1,1.33.05Zm2.3-3.7q1.48,0,1.48-1.29T3.63-6.22H1.85v2.57ZM9.13-5a1.928,1.928,0,0,1,1.445.49,2.067,2.067,0,0,1,.475,1.49V-.43a.469.469,0,0,1-.13.355.5.5,0,0,1-.36.125.473.473,0,0,1-.35-.13.473.473,0,0,1-.13-.35V-.8a1.407,1.407,0,0,1-.565.645A1.668,1.668,0,0,1,8.64.07a1.981,1.981,0,0,1-.88-.2A1.512,1.512,0,0,1,7.135-.67a1.412,1.412,0,0,1-.225-.78,1.2,1.2,0,0,1,.275-.835,1.64,1.64,0,0,1,.91-.435A9.141,9.141,0,0,1,9.84-2.85h.23v-.29a1.176,1.176,0,0,0-.23-.81A.963.963,0,0,0,9.1-4.2a2.356,2.356,0,0,0-.66.09,4.962,4.962,0,0,0-.68.26.98.98,0,0,1-.38.15.309.309,0,0,1-.245-.11.413.413,0,0,1-.1-.28.434.434,0,0,1,.085-.265A.9.9,0,0,1,7.4-4.58a3.419,3.419,0,0,1,.82-.3A3.824,3.824,0,0,1,9.13-5ZM8.82-.68a1.176,1.176,0,0,0,.9-.375,1.358,1.358,0,0,0,.35-.965v-.26H9.89a7.791,7.791,0,0,0-1.2.07,1.177,1.177,0,0,0-.6.235.612.612,0,0,0-.18.475.752.752,0,0,0,.26.59A.945.945,0,0,0,8.82-.68Zm5.29.75a3.026,3.026,0,0,1-1.67-.42.76.76,0,0,1-.255-.23.5.5,0,0,1-.075-.27.412.412,0,0,1,.09-.27.284.284,0,0,1,.23-.11.986.986,0,0,1,.41.16,4.207,4.207,0,0,0,.585.26,2.185,2.185,0,0,0,.715.1,1.4,1.4,0,0,0,.75-.17.537.537,0,0,0,.27-.48.469.469,0,0,0-.105-.32.89.89,0,0,0-.365-.215,6.227,6.227,0,0,0-.77-.205,2.967,2.967,0,0,1-1.265-.515A1.1,1.1,0,0,1,12.27-3.5a1.289,1.289,0,0,1,.25-.775,1.624,1.624,0,0,1,.69-.535,2.5,2.5,0,0,1,1-.19,2.915,2.915,0,0,1,.78.105,2.2,2.2,0,0,1,.67.3.62.62,0,0,1,.33.51.4.4,0,0,1-.1.27.289.289,0,0,1-.225.11.44.44,0,0,1-.18-.04,2.375,2.375,0,0,1-.24-.13,3.359,3.359,0,0,0-.505-.25,1.647,1.647,0,0,0-.585-.09,1.147,1.147,0,0,0-.675.18.569.569,0,0,0-.255.49.492.492,0,0,0,.235.435,2.881,2.881,0,0,0,.885.3,4.85,4.85,0,0,1,1.05.32,1.244,1.244,0,0,1,.545.445,1.258,1.258,0,0,1,.165.675,1.23,1.23,0,0,1-.545,1.045A2.428,2.428,0,0,1,14.11.07Zm5.22,0a2.514,2.514,0,0,1-1.265-.31,2.092,2.092,0,0,1-.84-.885,2.886,2.886,0,0,1-.3-1.335,2.909,2.909,0,0,1,.3-1.345,2.092,2.092,0,0,1,.84-.885A2.514,2.514,0,0,1,19.33-5a2.514,2.514,0,0,1,1.265.31,2.092,2.092,0,0,1,.84.885,2.909,2.909,0,0,1,.3,1.345,2.886,2.886,0,0,1-.3,1.335,2.092,2.092,0,0,1-.84.885A2.514,2.514,0,0,1,19.33.07Zm0-.8a1.24,1.24,0,0,0,1.025-.44,2.017,2.017,0,0,0,.355-1.29,2,2,0,0,0-.36-1.285,1.237,1.237,0,0,0-1.02-.445,1.237,1.237,0,0,0-1.02.445,2,2,0,0,0-.36,1.285A2.017,2.017,0,0,0,18.3-1.17,1.24,1.24,0,0,0,19.33-.73ZM28.08-5q1.75,0,1.75,1.97v2.6a.46.46,0,0,1-.135.355A.531.531,0,0,1,29.32.05a.5.5,0,0,1-.365-.13.463.463,0,0,1-.135-.35V-2.98a1.394,1.394,0,0,0-.245-.91.947.947,0,0,0-.765-.29,1.306,1.306,0,0,0-.98.38,1.4,1.4,0,0,0-.37,1.02V-.43a.463.463,0,0,1-.135.35.5.5,0,0,1-.365.13.522.522,0,0,1-.37-.13.455.455,0,0,1-.14-.35V-4.5a.451.451,0,0,1,.145-.345.515.515,0,0,1,.365-.135.473.473,0,0,1,.35.13.46.46,0,0,1,.13.34v.41a1.622,1.622,0,0,1,.67-.67A2.024,2.024,0,0,1,28.08-5Zm6.89.02a.5.5,0,0,1,.365.13.476.476,0,0,1,.135.36V-.42a.442.442,0,0,1-.14.34.522.522,0,0,1-.37.13.47.47,0,0,1-.34-.125.443.443,0,0,1-.13-.335V-.79a1.566,1.566,0,0,1-.635.64,1.865,1.865,0,0,1-.9.22q-1.78,0-1.78-1.96v-2.6a.476.476,0,0,1,.135-.36.518.518,0,0,1,.375-.13.5.5,0,0,1,.365.13.476.476,0,0,1,.135.36V-1.9a1.316,1.316,0,0,0,.24.87.922.922,0,0,0,.74.28,1.232,1.232,0,0,0,.945-.38,1.42,1.42,0,0,0,.355-1.01V-4.49a.471.471,0,0,1,.14-.355A.511.511,0,0,1,34.97-4.98Zm-1.43-.56a.279.279,0,0,1-.19.07.276.276,0,0,1-.195-.08.252.252,0,0,1-.085-.19.266.266,0,0,1,.07-.18l1.08-1.41a.57.57,0,0,1,.46-.27.435.435,0,0,1,.32.13.423.423,0,0,1,.13.31.565.565,0,0,1-.24.43ZM42.46-5Q44.1-5,44.1-3.03v2.6a.451.451,0,0,1-.14.355.535.535,0,0,1-.37.125.52.52,0,0,1-.36-.125.451.451,0,0,1-.14-.355V-3.02a1.42,1.42,0,0,0-.22-.885.831.831,0,0,0-.69-.275,1.084,1.084,0,0,0-.87.375,1.528,1.528,0,0,0-.32,1.025V-.43a.451.451,0,0,1-.14.355.535.535,0,0,1-.37.125.52.52,0,0,1-.36-.125.451.451,0,0,1-.14-.355V-3.02a1.42,1.42,0,0,0-.22-.885.831.831,0,0,0-.69-.275,1.1,1.1,0,0,0-.875.375A1.512,1.512,0,0,0,37.87-2.78V-.43a.451.451,0,0,1-.14.355.52.52,0,0,1-.36.125A.539.539,0,0,1,37-.075.443.443,0,0,1,36.86-.43V-4.5a.44.44,0,0,1,.15-.35.531.531,0,0,1,.36-.13.488.488,0,0,1,.345.125.447.447,0,0,1,.135.345v.37a1.53,1.53,0,0,1,.61-.64,1.8,1.8,0,0,1,.9-.22,1.707,1.707,0,0,1,.925.23,1.374,1.374,0,0,1,.545.71,1.668,1.668,0,0,1,.65-.685A1.884,1.884,0,0,1,42.46-5Zm6.82,3.77a.284.284,0,0,1,.23.11.428.428,0,0,1,.09.28.575.575,0,0,1-.36.49,3.172,3.172,0,0,1-.765.31,3.1,3.1,0,0,1-.795.11,2.462,2.462,0,0,1-1.83-.675,2.5,2.5,0,0,1-.67-1.845,2.894,2.894,0,0,1,.3-1.33,2.169,2.169,0,0,1,.83-.9A2.321,2.321,0,0,1,47.52-5a1.986,1.986,0,0,1,1.55.63,2.438,2.438,0,0,1,.57,1.7q0,.4-.36.4H46.19q.1,1.55,1.49,1.55a1.843,1.843,0,0,0,.64-.1,4.654,4.654,0,0,0,.57-.26q.03-.02.165-.085A.546.546,0,0,1,49.28-1.23ZM47.54-4.26a1.22,1.22,0,0,0-.93.37,1.728,1.728,0,0,0-.42,1.04h2.58A1.671,1.671,0,0,0,48.425-3.9,1.106,1.106,0,0,0,47.54-4.26Zm5.75-.72q.48-.03.48.41a.448.448,0,0,1-.11.33.593.593,0,0,1-.38.13l-.3.03a1.294,1.294,0,0,0-.935.44,1.423,1.423,0,0,0-.305.92V-.43a.448.448,0,0,1-.14.36.534.534,0,0,1-.36.12.553.553,0,0,1-.365-.12.44.44,0,0,1-.145-.36V-4.5a.443.443,0,0,1,.145-.355.539.539,0,0,1,.365-.125.474.474,0,0,1,.335.125.447.447,0,0,1,.135.345v.48a1.469,1.469,0,0,1,.58-.67,1.949,1.949,0,0,1,.86-.27ZM56.39.07a2.514,2.514,0,0,1-1.265-.31,2.092,2.092,0,0,1-.84-.885,2.886,2.886,0,0,1-.3-1.335,2.909,2.909,0,0,1,.3-1.345,2.092,2.092,0,0,1,.84-.885A2.514,2.514,0,0,1,56.39-5a2.514,2.514,0,0,1,1.265.31,2.092,2.092,0,0,1,.84.885,2.909,2.909,0,0,1,.3,1.345,2.886,2.886,0,0,1-.3,1.335,2.092,2.092,0,0,1-.84.885A2.514,2.514,0,0,1,56.39.07Zm0-.8a1.24,1.24,0,0,0,1.025-.44,2.017,2.017,0,0,0,.355-1.29,2,2,0,0,0-.36-1.285,1.237,1.237,0,0,0-1.02-.445,1.237,1.237,0,0,0-1.02.445,2,2,0,0,0-.36,1.285,2.017,2.017,0,0,0,.355,1.29A1.24,1.24,0,0,0,56.39-.73Zm9.43-2.89a1.772,1.772,0,0,1,.97.615,1.76,1.76,0,0,1,.33,1.1,1.776,1.776,0,0,1-.645,1.45A2.666,2.666,0,0,1,64.73.07a3.713,3.713,0,0,1-1.245-.21A2.939,2.939,0,0,1,62.48-.72a.493.493,0,0,1-.2-.4.473.473,0,0,1,.1-.305.3.3,0,0,1,.24-.125.624.624,0,0,1,.34.13,3.746,3.746,0,0,0,.845.485,2.4,2.4,0,0,0,.9.165q1.42,0,1.42-1.21a1.057,1.057,0,0,0-.375-.885,1.819,1.819,0,0,0-1.135-.3h-.55a.379.379,0,0,1-.3-.125.432.432,0,0,1-.11-.3.419.419,0,0,1,.11-.285.379.379,0,0,1,.3-.125h.39a1.763,1.763,0,0,0,1.115-.3,1.073,1.073,0,0,0,.385-.9A1.046,1.046,0,0,0,65.635-6a1.258,1.258,0,0,0-.885-.29,2.741,2.741,0,0,0-1.68.65.624.624,0,0,1-.34.13.3.3,0,0,1-.24-.125.473.473,0,0,1-.1-.305.493.493,0,0,1,.2-.4,2.956,2.956,0,0,1,1-.58,3.54,3.54,0,0,1,1.2-.21,2.375,2.375,0,0,1,1.575.49,1.644,1.644,0,0,1,.585,1.33,1.847,1.847,0,0,1-.3,1.045A1.662,1.662,0,0,1,65.82-3.62Z" transform="translate(606 2022)"/><path class="h" d="M11.44-1.232a.985.985,0,0,1,.1.416.8.8,0,0,1-.3.624,1.009,1.009,0,0,1-.68.256.909.909,0,0,1-.48-.136A.907.907,0,0,1,9.728-.5L8.768-2.64H3.136L2.176-.5a.907.907,0,0,1-.352.424.937.937,0,0,1-.5.136A1.019,1.019,0,0,1,.656-.192a.787.787,0,0,1-.3-.624.985.985,0,0,1,.1-.416L4.864-10.72a1.032,1.032,0,0,1,.44-.488,1.26,1.26,0,0,1,.632-.168,1.26,1.26,0,0,1,.632.168,1.032,1.032,0,0,1,.44.488ZM8.064-4.24,5.952-8.992,3.84-4.24ZM6.192-12.224a.568.568,0,0,1-.256.064.494.494,0,0,1-.352-.136.418.418,0,0,1-.144-.312.507.507,0,0,1,.176-.352l1.456-1.5a.928.928,0,0,1,.688-.32.754.754,0,0,1,.552.232.736.736,0,0,1,.232.536.682.682,0,0,1-.136.4A1.141,1.141,0,0,1,8-13.28ZM17.28-7.984a.861.861,0,0,1,.656.176.781.781,0,0,1,.24.624.872.872,0,0,1-.208.64,1.278,1.278,0,0,1-.752.272l-.48.048a1.944,1.944,0,0,0-1.384.64,2.093,2.093,0,0,0-.44,1.36v3.36a.888.888,0,0,1-.288.712A1.064,1.064,0,0,1,13.9.1a1.034,1.034,0,0,1-.712-.248.9.9,0,0,1-.28-.712V-7.056a.856.856,0,0,1,.28-.688,1.032,1.032,0,0,1,.7-.24.962.962,0,0,1,.672.232.85.85,0,0,1,.256.664v.64a2.368,2.368,0,0,1,.9-1.088,2.771,2.771,0,0,1,1.336-.432Zm7.792,5.84a.538.538,0,0,1,.44.208.865.865,0,0,1,.168.56.97.97,0,0,1-.592.832,5.349,5.349,0,0,1-1.232.488,5.079,5.079,0,0,1-1.312.184A4.077,4.077,0,0,1,19.552-.96a3.988,3.988,0,0,1-1.1-2.976,4.566,4.566,0,0,1,.48-2.128A3.49,3.49,0,0,1,20.28-7.5a3.829,3.829,0,0,1,1.976-.512,3.546,3.546,0,0,1,1.84.464A3.146,3.146,0,0,1,25.312-6.24a4.353,4.353,0,0,1,.432,2q0,.688-.608.688h-4.72a2.517,2.517,0,0,0,.624,1.624,2.1,2.1,0,0,0,1.536.52,2.913,2.913,0,0,0,.9-.128,8.923,8.923,0,0,0,.888-.352A1.766,1.766,0,0,1,25.072-2.144ZM22.3-6.608A1.717,1.717,0,0,0,21-6.1a2.417,2.417,0,0,0-.584,1.472h3.616a2.281,2.281,0,0,0-.48-1.48A1.583,1.583,0,0,0,22.3-6.608Zm8.464-1.408a3.259,3.259,0,0,1,2.424.808,3.383,3.383,0,0,1,.792,2.456v3.9a.9.9,0,0,1-.256.68.969.969,0,0,1-.7.248.936.936,0,0,1-.68-.256.894.894,0,0,1-.264-.672V-1.2a2.088,2.088,0,0,1-.856.976,2.568,2.568,0,0,1-1.352.352,3.139,3.139,0,0,1-1.424-.32,2.533,2.533,0,0,1-1.008-.88,2.224,2.224,0,0,1-.368-1.248,1.977,1.977,0,0,1,.44-1.36,2.644,2.644,0,0,1,1.432-.72,13.041,13.041,0,0,1,2.736-.224h.4v-.368a1.638,1.638,0,0,0-.336-1.144,1.43,1.43,0,0,0-1.088-.36,3.452,3.452,0,0,0-.944.136q-.48.136-1.136.392a1.6,1.6,0,0,1-.608.208.6.6,0,0,1-.472-.208.791.791,0,0,1-.184-.544.819.819,0,0,1,.136-.472A1.291,1.291,0,0,1,27.9-7.36a5.215,5.215,0,0,1,1.336-.48A6.893,6.893,0,0,1,30.768-8.016Zm-.5,6.7a1.709,1.709,0,0,0,1.3-.536,1.939,1.939,0,0,0,.5-1.384v-.336h-.288a11.038,11.038,0,0,0-1.664.1,1.616,1.616,0,0,0-.848.336.856.856,0,0,0-.256.656,1.085,1.085,0,0,0,.36.84A1.27,1.27,0,0,0,30.272-1.312ZM46.88-11.36a1.066,1.066,0,0,1,.736.256.856.856,0,0,1,.288.672V-.864a.9.9,0,0,1-.272.688,1.008,1.008,0,0,1-.72.256,1.008,1.008,0,0,1-.72-.256.9.9,0,0,1-.272-.688v-.4A2.5,2.5,0,0,1,44.9-.24a3.066,3.066,0,0,1-1.512.368,3.243,3.243,0,0,1-1.8-.512A3.4,3.4,0,0,1,40.36-1.832a5,5,0,0,1-.44-2.152,4.845,4.845,0,0,1,.44-2.128A3.333,3.333,0,0,1,41.584-7.52a3.309,3.309,0,0,1,1.808-.5,3.131,3.131,0,0,1,1.5.352,2.442,2.442,0,0,1,1.008.992v-3.792a.848.848,0,0,1,.264-.648A1,1,0,0,1,46.88-11.36ZM43.92-1.424A1.779,1.779,0,0,0,45.4-2.08a2.952,2.952,0,0,0,.52-1.872,2.917,2.917,0,0,0-.52-1.864,1.77,1.77,0,0,0-1.464-.648,1.821,1.821,0,0,0-1.488.64,2.823,2.823,0,0,0-.528,1.84A2.989,2.989,0,0,0,42.448-2.1,1.766,1.766,0,0,0,43.92-1.424Zm12.24-.72a.538.538,0,0,1,.44.208.865.865,0,0,1,.168.56.97.97,0,0,1-.592.832,5.349,5.349,0,0,1-1.232.488,5.079,5.079,0,0,1-1.312.184A4.077,4.077,0,0,1,50.64-.96a3.988,3.988,0,0,1-1.1-2.976,4.566,4.566,0,0,1,.48-2.128A3.49,3.49,0,0,1,51.368-7.5a3.829,3.829,0,0,1,1.976-.512,3.546,3.546,0,0,1,1.84.464A3.146,3.146,0,0,1,56.4-6.24a4.354,4.354,0,0,1,.432,2q0,.688-.608.688H51.5a2.517,2.517,0,0,0,.624,1.624,2.1,2.1,0,0,0,1.536.52,2.913,2.913,0,0,0,.9-.128,8.923,8.923,0,0,0,.888-.352A1.766,1.766,0,0,1,56.16-2.144ZM53.392-6.608a1.717,1.717,0,0,0-1.3.512A2.417,2.417,0,0,0,51.5-4.624H55.12a2.281,2.281,0,0,0-.48-1.48A1.583,1.583,0,0,0,53.392-6.608ZM4.992,8.208a1.456,1.456,0,0,0-1.072.448,1.746,1.746,0,0,0-.336,1.152v.368h1.36q.9,0,.9.752t-.9.752H3.584v5.456a.876.876,0,0,1-.28.7,1.055,1.055,0,0,1-.712.24,1.087,1.087,0,0,1-.72-.24.864.864,0,0,1-.288-.7V11.68h-.8q-.9,0-.9-.752t.9-.752h.8v-.112A3.341,3.341,0,0,1,2.376,7.7a3.254,3.254,0,0,1,2.232-.968L5.024,6.7a1.453,1.453,0,0,1,.9.136.645.645,0,0,1,.264.568q0,.688-.784.768Zm5.264,9.92a4.3,4.3,0,0,1-2.1-.5,3.432,3.432,0,0,1-1.4-1.424,4.515,4.515,0,0,1-.5-2.16,4.468,4.468,0,0,1,.5-2.152,3.444,3.444,0,0,1,1.4-1.416,4.3,4.3,0,0,1,2.1-.5,4.3,4.3,0,0,1,2.1.5A3.394,3.394,0,0,1,13.752,11.9a4.527,4.527,0,0,1,.488,2.152,4.575,4.575,0,0,1-.488,2.16,3.382,3.382,0,0,1-1.392,1.424A4.3,4.3,0,0,1,10.256,18.128Zm-.016-1.552a1.793,1.793,0,0,0,1.488-.64,2.973,2.973,0,0,0,.512-1.888,2.979,2.979,0,0,0-.512-1.88,1.765,1.765,0,0,0-1.472-.648,1.788,1.788,0,0,0-1.48.648,2.946,2.946,0,0,0-.52,1.88,2.973,2.973,0,0,0,.512,1.888A1.775,1.775,0,0,0,10.24,16.576Zm10.016-6.56a.861.861,0,0,1,.656.176.781.781,0,0,1,.24.624.872.872,0,0,1-.208.64,1.278,1.278,0,0,1-.752.272l-.48.048a1.944,1.944,0,0,0-1.384.64,2.093,2.093,0,0,0-.44,1.36v3.36a.888.888,0,0,1-.288.712,1.064,1.064,0,0,1-.72.248,1.034,1.034,0,0,1-.712-.248.9.9,0,0,1-.28-.712V10.944a.856.856,0,0,1,.28-.688,1.032,1.032,0,0,1,.7-.24.962.962,0,0,1,.672.232.85.85,0,0,1,.256.664v.64a2.368,2.368,0,0,1,.9-1.088,2.771,2.771,0,0,1,1.336-.432Zm11.056-.032a2.493,2.493,0,0,1,1.96.76,3.634,3.634,0,0,1,.68,2.456v3.936a.9.9,0,0,1-.28.712,1.057,1.057,0,0,1-.728.248,1.034,1.034,0,0,1-.712-.248.9.9,0,0,1-.28-.712V13.2a1.979,1.979,0,0,0-.312-1.256,1.166,1.166,0,0,0-.952-.376,1.567,1.567,0,0,0-1.248.536,2.162,2.162,0,0,0-.464,1.464v3.568a.9.9,0,0,1-.28.712,1.034,1.034,0,0,1-.712.248,1.064,1.064,0,0,1-.72-.248.888.888,0,0,1-.288-.712V13.2a1.979,1.979,0,0,0-.312-1.256,1.166,1.166,0,0,0-.952-.376,1.543,1.543,0,0,0-1.24.536,2.187,2.187,0,0,0-.456,1.464v3.568a.888.888,0,0,1-.288.712,1.064,1.064,0,0,1-.72.248,1.034,1.034,0,0,1-.712-.248.9.9,0,0,1-.28-.712V10.944a.845.845,0,0,1,.288-.688,1.087,1.087,0,0,1,.72-.24.992.992,0,0,1,.68.232.837.837,0,0,1,.264.664V11.3a2.508,2.508,0,0,1,.984-.976,2.91,2.91,0,0,1,1.416-.336,2.292,2.292,0,0,1,2.352,1.472,2.644,2.644,0,0,1,1.04-1.072A3.031,3.031,0,0,1,31.312,9.984Zm10.848.032a1.03,1.03,0,0,1,.736.256.9.9,0,0,1,.272.688v6.208a.868.868,0,0,1-.28.672,1.037,1.037,0,0,1-.728.256.965.965,0,0,1-.688-.24.856.856,0,0,1-.256-.656v-.4a2.549,2.549,0,0,1-.992.984,2.867,2.867,0,0,1-1.408.344q-2.88,0-2.88-3.232V10.96a.9.9,0,0,1,.272-.688,1.008,1.008,0,0,1,.72-.256,1.03,1.03,0,0,1,.736.256.9.9,0,0,1,.272.688v3.952a1.888,1.888,0,0,0,.336,1.232,1.3,1.3,0,0,0,1.056.4,1.722,1.722,0,0,0,1.336-.552,2.087,2.087,0,0,0,.5-1.464V10.96a.9.9,0,0,1,.272-.688A1.008,1.008,0,0,1,42.16,10.016Zm4.08,8.08a1.034,1.034,0,0,1-.712-.248.9.9,0,0,1-.28-.712V7.584a.876.876,0,0,1,.28-.7,1.055,1.055,0,0,1,.712-.24,1.087,1.087,0,0,1,.72.24.864.864,0,0,1,.288.7v9.552a.888.888,0,0,1-.288.712A1.064,1.064,0,0,1,46.24,18.1ZM52.7,9.984a3.259,3.259,0,0,1,2.424.808,3.383,3.383,0,0,1,.792,2.456v3.9a.9.9,0,0,1-.256.68.969.969,0,0,1-.7.248.936.936,0,0,1-.68-.256.894.894,0,0,1-.264-.672V16.8a2.088,2.088,0,0,1-.856.976,2.568,2.568,0,0,1-1.352.352,3.139,3.139,0,0,1-1.424-.32,2.533,2.533,0,0,1-1.008-.88,2.224,2.224,0,0,1-.368-1.248,1.977,1.977,0,0,1,.44-1.36,2.644,2.644,0,0,1,1.432-.72,13.041,13.041,0,0,1,2.736-.224h.4v-.368a1.638,1.638,0,0,0-.336-1.144,1.43,1.43,0,0,0-1.088-.36,3.452,3.452,0,0,0-.944.136q-.48.136-1.136.392a1.6,1.6,0,0,1-.608.208.6.6,0,0,1-.472-.208.791.791,0,0,1-.184-.544.819.819,0,0,1,.136-.472,1.291,1.291,0,0,1,.456-.376,5.215,5.215,0,0,1,1.336-.48A6.893,6.893,0,0,1,52.7,9.984Zm-.5,6.7a1.709,1.709,0,0,0,1.3-.536,1.939,1.939,0,0,0,.5-1.384v-.336h-.288a11.038,11.038,0,0,0-1.664.1,1.616,1.616,0,0,0-.848.336.856.856,0,0,0-.256.656,1.085,1.085,0,0,0,.36.84A1.27,1.27,0,0,0,52.208,16.688ZM62.32,10.016a.861.861,0,0,1,.656.176.781.781,0,0,1,.24.624.872.872,0,0,1-.208.64,1.278,1.278,0,0,1-.752.272l-.48.048a1.944,1.944,0,0,0-1.384.64,2.093,2.093,0,0,0-.44,1.36v3.36a.888.888,0,0,1-.288.712,1.064,1.064,0,0,1-.72.248,1.034,1.034,0,0,1-.712-.248.9.9,0,0,1-.28-.712V10.944a.856.856,0,0,1,.28-.688,1.032,1.032,0,0,1,.7-.24.962.962,0,0,1,.672.232.85.85,0,0,1,.256.664v.64a2.368,2.368,0,0,1,.9-1.088,2.772,2.772,0,0,1,1.336-.432Zm2.752,8.08a1.034,1.034,0,0,1-.712-.248.9.9,0,0,1-.28-.712V10.96a.876.876,0,0,1,.28-.7,1.055,1.055,0,0,1,.712-.24,1.087,1.087,0,0,1,.72.24.864.864,0,0,1,.288.7v6.176a.888.888,0,0,1-.288.712A1.064,1.064,0,0,1,65.072,18.1Zm0-9.5a1.222,1.222,0,0,1-.864-.3,1.008,1.008,0,0,1-.32-.776.983.983,0,0,1,.32-.768,1.428,1.428,0,0,1,1.72,0,.971.971,0,0,1,.328.768,1.008,1.008,0,0,1-.32.776A1.222,1.222,0,0,1,65.072,8.592Zm6.64,9.536a4.3,4.3,0,0,1-2.1-.5,3.432,3.432,0,0,1-1.4-1.424,4.515,4.515,0,0,1-.5-2.16,4.468,4.468,0,0,1,.5-2.152,3.444,3.444,0,0,1,1.4-1.416,4.711,4.711,0,0,1,4.208,0A3.394,3.394,0,0,1,75.208,11.9a4.528,4.528,0,0,1,.488,2.152,4.575,4.575,0,0,1-.488,2.16,3.382,3.382,0,0,1-1.392,1.424A4.3,4.3,0,0,1,71.712,18.128ZM71.7,16.576a1.793,1.793,0,0,0,1.488-.64,2.973,2.973,0,0,0,.512-1.888,2.979,2.979,0,0,0-.512-1.88,1.765,1.765,0,0,0-1.472-.648,1.788,1.788,0,0,0-1.48.648,2.946,2.946,0,0,0-.52,1.88,2.973,2.973,0,0,0,.512,1.888A1.775,1.775,0,0,0,71.7,16.576Z" transform="translate(1001 2169)"/><path class="h" d="M6.96-5.792A2.733,2.733,0,0,1,8.488-4.8a2.864,2.864,0,0,1,.536,1.76A2.747,2.747,0,0,1,7.9-.712a5.074,5.074,0,0,1-3.1.84,5.074,5.074,0,0,1-3.1-.84A2.747,2.747,0,0,1,.576-3.04,2.87,2.87,0,0,1,1.12-4.808a2.68,2.68,0,0,1,1.536-.984,2.777,2.777,0,0,1-1.328-1,2.69,2.69,0,0,1-.48-1.592A2.659,2.659,0,0,1,1.9-10.608a4.626,4.626,0,0,1,2.9-.816,4.626,4.626,0,0,1,2.9.816A2.659,2.659,0,0,1,8.752-8.384a2.753,2.753,0,0,1-.48,1.616A2.584,2.584,0,0,1,6.96-5.792ZM4.8-9.808q-2,0-2,1.632a1.529,1.529,0,0,0,.5,1.24,2.275,2.275,0,0,0,1.5.424,2.275,2.275,0,0,0,1.5-.424,1.529,1.529,0,0,0,.5-1.24Q6.8-9.808,4.8-9.808Zm0,8.32q2.288,0,2.288-1.712T4.8-4.912q-2.288,0-2.288,1.712T4.8-1.488ZM18.448.128a4.146,4.146,0,0,1-2.056-.5,3.381,3.381,0,0,1-1.368-1.408,4.505,4.505,0,0,1-.48-2.128,4.468,4.468,0,0,1,.5-2.152A3.56,3.56,0,0,1,16.464-7.5a4.208,4.208,0,0,1,2.1-.512,4.665,4.665,0,0,1,1.256.176,4.143,4.143,0,0,1,1.112.48.99.99,0,0,1,.512.848.9.9,0,0,1-.168.568.531.531,0,0,1-.44.216.956.956,0,0,1-.368-.08A3.223,3.223,0,0,1,20.08-6a4.3,4.3,0,0,0-.672-.328,2.088,2.088,0,0,0-.736-.12,1.871,1.871,0,0,0-1.528.648,2.855,2.855,0,0,0-.536,1.864,2.827,2.827,0,0,0,.536,1.848,1.871,1.871,0,0,0,1.528.648,1.973,1.973,0,0,0,.712-.12,6.031,6.031,0,0,0,.7-.328A3.168,3.168,0,0,1,20.5-2.1a.923.923,0,0,1,.352-.072.531.531,0,0,1,.432.224.879.879,0,0,1,.176.56.9.9,0,0,1-.12.472,1.081,1.081,0,0,1-.392.36,4.207,4.207,0,0,1-1.152.5A4.953,4.953,0,0,1,18.448.128Zm7.9,0a4.3,4.3,0,0,1-2.1-.5,3.432,3.432,0,0,1-1.4-1.424,4.515,4.515,0,0,1-.5-2.16,4.468,4.468,0,0,1,.5-2.152,3.444,3.444,0,0,1,1.4-1.416,4.3,4.3,0,0,1,2.1-.5,4.3,4.3,0,0,1,2.1.5A3.394,3.394,0,0,1,29.848-6.1a4.527,4.527,0,0,1,.488,2.152,4.575,4.575,0,0,1-.488,2.16A3.382,3.382,0,0,1,28.456-.368,4.3,4.3,0,0,1,26.352.128Zm-.016-1.552a1.793,1.793,0,0,0,1.488-.64,2.973,2.973,0,0,0,.512-1.888,2.979,2.979,0,0,0-.512-1.88,1.765,1.765,0,0,0-1.472-.648,1.788,1.788,0,0,0-1.48.648,2.946,2.946,0,0,0-.52,1.88,2.973,2.973,0,0,0,.512,1.888A1.775,1.775,0,0,0,26.336-1.424ZM32.976.1a1.034,1.034,0,0,1-.712-.248.9.9,0,0,1-.28-.712v-9.552a.876.876,0,0,1,.28-.7,1.055,1.055,0,0,1,.712-.24,1.087,1.087,0,0,1,.72.24.864.864,0,0,1,.288.7V-.864a.888.888,0,0,1-.288.712A1.064,1.064,0,0,1,32.976.1Zm9.248-8.08a1.03,1.03,0,0,1,.736.256.9.9,0,0,1,.272.688V-.832a.868.868,0,0,1-.28.672A1.037,1.037,0,0,1,42.224.1a.965.965,0,0,1-.688-.24A.856.856,0,0,1,41.28-.8v-.4a2.549,2.549,0,0,1-.992.984A2.867,2.867,0,0,1,38.88.128Q36,.128,36-3.1V-7.04a.9.9,0,0,1,.272-.688,1.008,1.008,0,0,1,.72-.256,1.03,1.03,0,0,1,.736.256A.9.9,0,0,1,38-7.04v3.952a1.888,1.888,0,0,0,.336,1.232,1.3,1.3,0,0,0,1.056.4,1.722,1.722,0,0,0,1.336-.552,2.087,2.087,0,0,0,.5-1.464V-7.04a.9.9,0,0,1,.272-.688A1.008,1.008,0,0,1,42.224-7.984Zm12.384-.032a2.493,2.493,0,0,1,1.96.76,3.634,3.634,0,0,1,.68,2.456V-.864a.9.9,0,0,1-.28.712A1.057,1.057,0,0,1,56.24.1a1.034,1.034,0,0,1-.712-.248.9.9,0,0,1-.28-.712V-4.8a1.979,1.979,0,0,0-.312-1.256,1.166,1.166,0,0,0-.952-.376,1.567,1.567,0,0,0-1.248.536,2.162,2.162,0,0,0-.464,1.464V-.864a.9.9,0,0,1-.28.712A1.034,1.034,0,0,1,51.28.1a1.064,1.064,0,0,1-.72-.248.888.888,0,0,1-.288-.712V-4.8a1.979,1.979,0,0,0-.312-1.256,1.166,1.166,0,0,0-.952-.376,1.543,1.543,0,0,0-1.24.536,2.187,2.187,0,0,0-.456,1.464V-.864a.888.888,0,0,1-.288.712A1.064,1.064,0,0,1,46.3.1a1.034,1.034,0,0,1-.712-.248.9.9,0,0,1-.28-.712V-7.056a.845.845,0,0,1,.288-.688,1.087,1.087,0,0,1,.72-.24.992.992,0,0,1,.68.232.837.837,0,0,1,.264.664V-6.7a2.508,2.508,0,0,1,.984-.976,2.909,2.909,0,0,1,1.416-.336,2.292,2.292,0,0,1,2.352,1.472,2.644,2.644,0,0,1,1.04-1.072A3.031,3.031,0,0,1,54.608-8.016Zm9.216,0a2.615,2.615,0,0,1,2.1.8A3.628,3.628,0,0,1,66.608-4.8V-.864a.935.935,0,0,1-.264.7A1,1,0,0,1,65.616.1,1.03,1.03,0,0,1,64.88-.16a.92.92,0,0,1-.272-.7V-4.688a2.074,2.074,0,0,0-.344-1.328,1.322,1.322,0,0,0-1.08-.416,1.826,1.826,0,0,0-1.384.544,2.019,2.019,0,0,0-.52,1.456V-.864a.92.92,0,0,1-.272.7A1.03,1.03,0,0,1,60.272.1a1,1,0,0,1-.728-.256.935.935,0,0,1-.264-.7V-7.056a.88.88,0,0,1,.272-.672,1.03,1.03,0,0,1,.736-.256.953.953,0,0,1,.68.248.848.848,0,0,1,.264.648v.432A2.706,2.706,0,0,1,62.3-7.664,3.226,3.226,0,0,1,63.824-8.016Zm8.208,0a3.259,3.259,0,0,1,2.424.808,3.383,3.383,0,0,1,.792,2.456v3.9a.9.9,0,0,1-.256.68.969.969,0,0,1-.7.248.936.936,0,0,1-.68-.256.894.894,0,0,1-.264-.672V-1.2a2.088,2.088,0,0,1-.856.976,2.568,2.568,0,0,1-1.352.352,3.139,3.139,0,0,1-1.424-.32,2.533,2.533,0,0,1-1.008-.88,2.224,2.224,0,0,1-.368-1.248,1.977,1.977,0,0,1,.44-1.36,2.644,2.644,0,0,1,1.432-.72,13.041,13.041,0,0,1,2.736-.224h.4v-.368a1.638,1.638,0,0,0-.336-1.144A1.43,1.43,0,0,0,71.92-6.5a3.452,3.452,0,0,0-.944.136q-.48.136-1.136.392a1.6,1.6,0,0,1-.608.208.6.6,0,0,1-.472-.208.791.791,0,0,1-.184-.544.819.819,0,0,1,.136-.472,1.291,1.291,0,0,1,.456-.376A5.215,5.215,0,0,1,70.5-7.84,6.893,6.893,0,0,1,72.032-8.016Zm-.5,6.7a1.709,1.709,0,0,0,1.3-.536,1.939,1.939,0,0,0,.5-1.384v-.336h-.288a11.038,11.038,0,0,0-1.664.1,1.615,1.615,0,0,0-.848.336.856.856,0,0,0-.256.656,1.085,1.085,0,0,0,.36.84A1.27,1.27,0,0,0,71.536-1.312ZM80.112.128A5.144,5.144,0,0,1,77.3-.56a.954.954,0,0,1-.512-.864.758.758,0,0,1,.176-.52.554.554,0,0,1,.432-.2,1.767,1.767,0,0,1,.752.256,7,7,0,0,0,.936.368,3.812,3.812,0,0,0,1.08.128,2.054,2.054,0,0,0,1.048-.224.694.694,0,0,0,.376-.624.6.6,0,0,0-.152-.432,1.394,1.394,0,0,0-.544-.3A11.44,11.44,0,0,0,79.7-3.28a4.58,4.58,0,0,1-2.04-.816,1.816,1.816,0,0,1-.616-1.456,2.1,2.1,0,0,1,.416-1.272A2.7,2.7,0,0,1,78.6-7.7a4.168,4.168,0,0,1,1.656-.312,4.963,4.963,0,0,1,1.3.168,3.94,3.94,0,0,1,1.12.488.966.966,0,0,1,.512.848.821.821,0,0,1-.176.536.538.538,0,0,1-.432.216.865.865,0,0,1-.344-.072,4.615,4.615,0,0,1-.424-.216,6.709,6.709,0,0,0-.8-.36,2.5,2.5,0,0,0-.832-.12,1.611,1.611,0,0,0-.936.24.758.758,0,0,0-.344.656.666.666,0,0,0,.352.608,5.041,5.041,0,0,0,1.36.416,7.76,7.76,0,0,1,1.68.512,1.968,1.968,0,0,1,.872.72,2.089,2.089,0,0,1,.264,1.1,2.052,2.052,0,0,1-.9,1.744A4.013,4.013,0,0,1,80.112.128Z" transform="translate(750 2350)"/><path class="h" d="M2.24.1A1.006,1.006,0,0,1,1.5-.184a1.027,1.027,0,0,1-.28-.76V-10.3a.956.956,0,0,1,.264-.72,1,1,0,0,1,.728-.256H6.144a4.07,4.07,0,0,1,2.816.9A3.231,3.231,0,0,1,9.968-7.84,3.256,3.256,0,0,1,8.96-5.3a4.047,4.047,0,0,1-2.816.912H3.28v3.44A1.027,1.027,0,0,1,3-.184,1.027,1.027,0,0,1,2.24.1ZM5.888-5.968q2.128,0,2.128-1.856T5.888-9.68H3.28v3.712Zm8.9-2.048a3.259,3.259,0,0,1,2.424.808A3.383,3.383,0,0,1,18-4.752v3.9a.9.9,0,0,1-.256.68.969.969,0,0,1-.7.248.936.936,0,0,1-.68-.256A.894.894,0,0,1,16.1-.848V-1.2a2.088,2.088,0,0,1-.856.976,2.568,2.568,0,0,1-1.352.352,3.139,3.139,0,0,1-1.424-.32,2.533,2.533,0,0,1-1.008-.88,2.224,2.224,0,0,1-.368-1.248,1.977,1.977,0,0,1,.44-1.36A2.644,2.644,0,0,1,12.96-4.4,13.041,13.041,0,0,1,15.7-4.624h.4v-.368a1.638,1.638,0,0,0-.336-1.144,1.43,1.43,0,0,0-1.088-.36,3.452,3.452,0,0,0-.944.136q-.48.136-1.136.392a1.6,1.6,0,0,1-.608.208.6.6,0,0,1-.472-.208.791.791,0,0,1-.184-.544.819.819,0,0,1,.136-.472,1.291,1.291,0,0,1,.456-.376,5.215,5.215,0,0,1,1.336-.48A6.893,6.893,0,0,1,14.784-8.016Zm-.5,6.7a1.709,1.709,0,0,0,1.3-.536,1.939,1.939,0,0,0,.5-1.384v-.336h-.288a11.038,11.038,0,0,0-1.664.1,1.616,1.616,0,0,0-.848.336.856.856,0,0,0-.256.656,1.085,1.085,0,0,0,.36.84A1.27,1.27,0,0,0,14.288-1.312ZM22.864.128A5.144,5.144,0,0,1,20.048-.56a.954.954,0,0,1-.512-.864.758.758,0,0,1,.176-.52.554.554,0,0,1,.432-.2,1.767,1.767,0,0,1,.752.256,7,7,0,0,0,.936.368,3.812,3.812,0,0,0,1.08.128,2.054,2.054,0,0,0,1.048-.224.694.694,0,0,0,.376-.624.6.6,0,0,0-.152-.432,1.394,1.394,0,0,0-.544-.3,11.44,11.44,0,0,0-1.192-.312,4.58,4.58,0,0,1-2.04-.816,1.816,1.816,0,0,1-.616-1.456,2.1,2.1,0,0,1,.416-1.272,2.7,2.7,0,0,1,1.144-.88,4.168,4.168,0,0,1,1.656-.312,4.963,4.963,0,0,1,1.3.168,3.94,3.94,0,0,1,1.12.488.966.966,0,0,1,.512.848.821.821,0,0,1-.176.536.538.538,0,0,1-.432.216.865.865,0,0,1-.344-.072,4.616,4.616,0,0,1-.424-.216,6.709,6.709,0,0,0-.8-.36,2.5,2.5,0,0,0-.832-.12,1.611,1.611,0,0,0-.936.24.758.758,0,0,0-.344.656A.666.666,0,0,0,22-5.024a5.041,5.041,0,0,0,1.36.416,7.76,7.76,0,0,1,1.68.512,1.968,1.968,0,0,1,.872.72,2.089,2.089,0,0,1,.264,1.1,2.052,2.052,0,0,1-.9,1.744A4.013,4.013,0,0,1,22.864.128Zm8.5,0a4.3,4.3,0,0,1-2.1-.5,3.432,3.432,0,0,1-1.4-1.424,4.515,4.515,0,0,1-.5-2.16,4.468,4.468,0,0,1,.5-2.152,3.444,3.444,0,0,1,1.4-1.416,4.3,4.3,0,0,1,2.1-.5,4.3,4.3,0,0,1,2.1.5A3.394,3.394,0,0,1,34.856-6.1a4.527,4.527,0,0,1,.488,2.152,4.575,4.575,0,0,1-.488,2.16A3.382,3.382,0,0,1,33.464-.368,4.3,4.3,0,0,1,31.36.128Zm-.016-1.552a1.793,1.793,0,0,0,1.488-.64,2.973,2.973,0,0,0,.512-1.888,2.979,2.979,0,0,0-.512-1.88A1.765,1.765,0,0,0,31.36-6.48a1.788,1.788,0,0,0-1.48.648,2.946,2.946,0,0,0-.52,1.88,2.973,2.973,0,0,0,.512,1.888A1.775,1.775,0,0,0,31.344-1.424ZM44.72-8.016a3.259,3.259,0,0,1,2.424.808,3.383,3.383,0,0,1,.792,2.456v3.9a.9.9,0,0,1-.256.68.969.969,0,0,1-.7.248.936.936,0,0,1-.68-.256.894.894,0,0,1-.264-.672V-1.2a2.088,2.088,0,0,1-.856.976,2.568,2.568,0,0,1-1.352.352A3.139,3.139,0,0,1,42.4-.192a2.533,2.533,0,0,1-1.008-.88,2.224,2.224,0,0,1-.368-1.248,1.977,1.977,0,0,1,.44-1.36A2.644,2.644,0,0,1,42.9-4.4a13.041,13.041,0,0,1,2.736-.224h.4v-.368A1.638,1.638,0,0,0,45.7-6.136a1.43,1.43,0,0,0-1.088-.36,3.452,3.452,0,0,0-.944.136q-.48.136-1.136.392a1.6,1.6,0,0,1-.608.208.6.6,0,0,1-.472-.208.791.791,0,0,1-.184-.544.819.819,0,0,1,.136-.472,1.291,1.291,0,0,1,.456-.376,5.215,5.215,0,0,1,1.336-.48A6.893,6.893,0,0,1,44.72-8.016Zm-.5,6.7a1.709,1.709,0,0,0,1.3-.536,1.939,1.939,0,0,0,.5-1.384v-.336h-.288a11.038,11.038,0,0,0-1.664.1,1.616,1.616,0,0,0-.848.336.856.856,0,0,0-.256.656,1.085,1.085,0,0,0,.36.84A1.27,1.27,0,0,0,44.224-1.312ZM5.536,9.984a3.243,3.243,0,0,1,1.8.512,3.4,3.4,0,0,1,1.232,1.448,5,5,0,0,1,.44,2.152,4.845,4.845,0,0,1-.44,2.128,3.333,3.333,0,0,1-1.224,1.408,3.309,3.309,0,0,1-1.808.5,3.1,3.1,0,0,1-1.488-.352A2.47,2.47,0,0,1,3.04,16.8v3.264a.83.83,0,0,1-.272.656,1.048,1.048,0,0,1-.72.24A1.037,1.037,0,0,1,1.32,20.7a.868.868,0,0,1-.28-.672V10.96a.914.914,0,0,1,.264-.688.979.979,0,0,1,.712-.256,1.008,1.008,0,0,1,.72.256.9.9,0,0,1,.272.688v.4a2.455,2.455,0,0,1,1.016-1.016A3.121,3.121,0,0,1,5.536,9.984Zm-.528,6.592a1.793,1.793,0,0,0,1.472-.648A2.829,2.829,0,0,0,7.008,14.1a2.989,2.989,0,0,0-.528-1.888,1.766,1.766,0,0,0-1.472-.672,1.779,1.779,0,0,0-1.48.656,2.952,2.952,0,0,0-.52,1.872,2.923,2.923,0,0,0,.52,1.856A1.779,1.779,0,0,0,5.008,16.576Zm9.04-6.592a3.259,3.259,0,0,1,2.424.808,3.383,3.383,0,0,1,.792,2.456v3.9a.9.9,0,0,1-.256.68.969.969,0,0,1-.7.248.936.936,0,0,1-.68-.256.894.894,0,0,1-.264-.672V16.8a2.088,2.088,0,0,1-.856.976,2.568,2.568,0,0,1-1.352.352,3.139,3.139,0,0,1-1.424-.32,2.533,2.533,0,0,1-1.008-.88,2.224,2.224,0,0,1-.368-1.248,1.977,1.977,0,0,1,.44-1.36,2.644,2.644,0,0,1,1.432-.72,13.041,13.041,0,0,1,2.736-.224h.4v-.368a1.638,1.638,0,0,0-.336-1.144,1.43,1.43,0,0,0-1.088-.36,3.452,3.452,0,0,0-.944.136q-.48.136-1.136.392a1.6,1.6,0,0,1-.608.208.6.6,0,0,1-.472-.208.791.791,0,0,1-.184-.544.819.819,0,0,1,.136-.472,1.291,1.291,0,0,1,.456-.376,5.215,5.215,0,0,1,1.336-.48A6.893,6.893,0,0,1,14.048,9.984Zm-.5,6.7a1.709,1.709,0,0,0,1.3-.536,1.939,1.939,0,0,0,.5-1.384v-.336h-.288a11.038,11.038,0,0,0-1.664.1,1.616,1.616,0,0,0-.848.336.856.856,0,0,0-.256.656,1.085,1.085,0,0,0,.36.84A1.27,1.27,0,0,0,13.552,16.688Zm8.576,1.44a5.144,5.144,0,0,1-2.816-.688.954.954,0,0,1-.512-.864.758.758,0,0,1,.176-.52.554.554,0,0,1,.432-.2,1.767,1.767,0,0,1,.752.256,7,7,0,0,0,.936.368,3.812,3.812,0,0,0,1.08.128,2.054,2.054,0,0,0,1.048-.224.694.694,0,0,0,.376-.624.6.6,0,0,0-.152-.432,1.394,1.394,0,0,0-.544-.3,11.439,11.439,0,0,0-1.192-.312,4.58,4.58,0,0,1-2.04-.816,1.816,1.816,0,0,1-.616-1.456,2.1,2.1,0,0,1,.416-1.272,2.7,2.7,0,0,1,1.144-.88,4.168,4.168,0,0,1,1.656-.312,4.963,4.963,0,0,1,1.3.168,3.94,3.94,0,0,1,1.12.488.966.966,0,0,1,.512.848.821.821,0,0,1-.176.536.538.538,0,0,1-.432.216.865.865,0,0,1-.344-.072,4.616,4.616,0,0,1-.424-.216,6.709,6.709,0,0,0-.8-.36,2.5,2.5,0,0,0-.832-.12,1.611,1.611,0,0,0-.936.24.758.758,0,0,0-.344.656.666.666,0,0,0,.352.608,5.041,5.041,0,0,0,1.36.416,7.76,7.76,0,0,1,1.68.512,1.968,1.968,0,0,1,.872.72,2.089,2.089,0,0,1,.264,1.1,2.052,2.052,0,0,1-.9,1.744A4.013,4.013,0,0,1,22.128,18.128Zm8.5,0a4.3,4.3,0,0,1-2.1-.5,3.432,3.432,0,0,1-1.4-1.424,4.515,4.515,0,0,1-.5-2.16,4.468,4.468,0,0,1,.5-2.152,3.444,3.444,0,0,1,1.4-1.416,4.711,4.711,0,0,1,4.208,0A3.394,3.394,0,0,1,34.12,11.9a4.527,4.527,0,0,1,.488,2.152,4.575,4.575,0,0,1-.488,2.16,3.382,3.382,0,0,1-1.392,1.424A4.3,4.3,0,0,1,30.624,18.128Zm-.016-1.552a1.793,1.793,0,0,0,1.488-.64,2.973,2.973,0,0,0,.512-1.888,2.979,2.979,0,0,0-.512-1.88,1.765,1.765,0,0,0-1.472-.648,1.788,1.788,0,0,0-1.48.648,2.946,2.946,0,0,0-.52,1.88,2.973,2.973,0,0,0,.512,1.888A1.775,1.775,0,0,0,30.608,16.576Z" transform="translate(998 2024.002)"/><path class="h" d="M11.44-1.232a.985.985,0,0,1,.1.416.8.8,0,0,1-.3.624,1.009,1.009,0,0,1-.68.256.909.909,0,0,1-.48-.136A.907.907,0,0,1,9.728-.5L8.768-2.64H3.136L2.176-.5a.907.907,0,0,1-.352.424.937.937,0,0,1-.5.136A1.019,1.019,0,0,1,.656-.192a.787.787,0,0,1-.3-.624.985.985,0,0,1,.1-.416L4.864-10.72a1.032,1.032,0,0,1,.44-.488,1.26,1.26,0,0,1,.632-.168,1.26,1.26,0,0,1,.632.168,1.032,1.032,0,0,1,.44.488ZM8.064-4.24,5.952-8.992,3.84-4.24ZM6.192-12.224a.568.568,0,0,1-.256.064.494.494,0,0,1-.352-.136.418.418,0,0,1-.144-.312.507.507,0,0,1,.176-.352l1.456-1.5a.928.928,0,0,1,.688-.32.754.754,0,0,1,.552.232.736.736,0,0,1,.232.536.682.682,0,0,1-.136.4A1.141,1.141,0,0,1,8-13.28ZM16.384.128a4.146,4.146,0,0,1-2.056-.5A3.381,3.381,0,0,1,12.96-1.776,4.505,4.505,0,0,1,12.48-3.9a4.468,4.468,0,0,1,.5-2.152A3.56,3.56,0,0,1,14.4-7.5a4.208,4.208,0,0,1,2.1-.512,4.665,4.665,0,0,1,1.256.176,4.143,4.143,0,0,1,1.112.48.99.99,0,0,1,.512.848.9.9,0,0,1-.168.568.531.531,0,0,1-.44.216.956.956,0,0,1-.368-.08A3.223,3.223,0,0,1,18.016-6a4.3,4.3,0,0,0-.672-.328,2.088,2.088,0,0,0-.736-.12A1.871,1.871,0,0,0,15.08-5.8a2.855,2.855,0,0,0-.536,1.864,2.827,2.827,0,0,0,.536,1.848,1.871,1.871,0,0,0,1.528.648,1.973,1.973,0,0,0,.712-.12,6.031,6.031,0,0,0,.7-.328,3.168,3.168,0,0,1,.416-.216.923.923,0,0,1,.352-.072.531.531,0,0,1,.432.224.879.879,0,0,1,.176.56.9.9,0,0,1-.12.472,1.081,1.081,0,0,1-.392.36,4.207,4.207,0,0,1-1.152.5A4.953,4.953,0,0,1,16.384.128Zm7.808,0a4.146,4.146,0,0,1-2.056-.5,3.381,3.381,0,0,1-1.368-1.408,4.505,4.505,0,0,1-.48-2.128,4.468,4.468,0,0,1,.5-2.152A3.56,3.56,0,0,1,22.208-7.5a4.208,4.208,0,0,1,2.1-.512,4.665,4.665,0,0,1,1.256.176,4.143,4.143,0,0,1,1.112.48.99.99,0,0,1,.512.848.9.9,0,0,1-.168.568.531.531,0,0,1-.44.216.956.956,0,0,1-.368-.08A3.223,3.223,0,0,1,25.824-6a4.3,4.3,0,0,0-.672-.328,2.088,2.088,0,0,0-.736-.12,1.871,1.871,0,0,0-1.528.648,2.855,2.855,0,0,0-.536,1.864,2.827,2.827,0,0,0,.536,1.848,1.871,1.871,0,0,0,1.528.648,1.973,1.973,0,0,0,.712-.12,6.031,6.031,0,0,0,.7-.328A3.168,3.168,0,0,1,26.24-2.1a.923.923,0,0,1,.352-.072.531.531,0,0,1,.432.224.879.879,0,0,1,.176.56.9.9,0,0,1-.12.472,1.081,1.081,0,0,1-.392.36,4.207,4.207,0,0,1-1.152.5A4.953,4.953,0,0,1,24.192.128ZM29.52.1a1.034,1.034,0,0,1-.712-.248.9.9,0,0,1-.28-.712V-7.04a.876.876,0,0,1,.28-.7,1.055,1.055,0,0,1,.712-.24,1.087,1.087,0,0,1,.72.24.864.864,0,0,1,.288.7V-.864a.888.888,0,0,1-.288.712A1.064,1.064,0,0,1,29.52.1Zm0-9.5a1.222,1.222,0,0,1-.864-.3,1.008,1.008,0,0,1-.32-.776.983.983,0,0,1,.32-.768,1.243,1.243,0,0,1,.864-.288,1.25,1.25,0,0,1,.856.288.971.971,0,0,1,.328.768,1.008,1.008,0,0,1-.32.776A1.222,1.222,0,0,1,29.52-9.408ZM36.16.128a4.3,4.3,0,0,1-2.1-.5,3.432,3.432,0,0,1-1.4-1.424,4.515,4.515,0,0,1-.5-2.16,4.468,4.468,0,0,1,.5-2.152,3.444,3.444,0,0,1,1.4-1.416,4.3,4.3,0,0,1,2.1-.5,4.3,4.3,0,0,1,2.1.5A3.394,3.394,0,0,1,39.656-6.1a4.527,4.527,0,0,1,.488,2.152,4.575,4.575,0,0,1-.488,2.16A3.382,3.382,0,0,1,38.264-.368,4.3,4.3,0,0,1,36.16.128Zm-.016-1.552a1.793,1.793,0,0,0,1.488-.64,2.973,2.973,0,0,0,.512-1.888,2.979,2.979,0,0,0-.512-1.88A1.765,1.765,0,0,0,36.16-6.48a1.788,1.788,0,0,0-1.48.648,2.946,2.946,0,0,0-.52,1.88,2.973,2.973,0,0,0,.512,1.888A1.775,1.775,0,0,0,36.144-1.424ZM46.336-8.016a2.615,2.615,0,0,1,2.1.8A3.628,3.628,0,0,1,49.12-4.8V-.864a.935.935,0,0,1-.264.7A1,1,0,0,1,48.128.1a1.03,1.03,0,0,1-.736-.256.92.92,0,0,1-.272-.7V-4.688a2.074,2.074,0,0,0-.344-1.328,1.322,1.322,0,0,0-1.08-.416,1.826,1.826,0,0,0-1.384.544,2.019,2.019,0,0,0-.52,1.456V-.864a.92.92,0,0,1-.272.7A1.03,1.03,0,0,1,42.784.1a1,1,0,0,1-.728-.256.935.935,0,0,1-.264-.7V-7.056a.88.88,0,0,1,.272-.672,1.03,1.03,0,0,1,.736-.256.953.953,0,0,1,.68.248.848.848,0,0,1,.264.648v.432a2.706,2.706,0,0,1,1.072-1.008A3.226,3.226,0,0,1,46.336-8.016ZM57.344-2.144a.538.538,0,0,1,.44.208.865.865,0,0,1,.168.56.97.97,0,0,1-.592.832,5.349,5.349,0,0,1-1.232.488,5.079,5.079,0,0,1-1.312.184A4.077,4.077,0,0,1,51.824-.96a3.988,3.988,0,0,1-1.1-2.976,4.566,4.566,0,0,1,.48-2.128A3.49,3.49,0,0,1,52.552-7.5a3.829,3.829,0,0,1,1.976-.512,3.546,3.546,0,0,1,1.84.464A3.146,3.146,0,0,1,57.584-6.24a4.354,4.354,0,0,1,.432,2q0,.688-.608.688h-4.72a2.517,2.517,0,0,0,.624,1.624,2.1,2.1,0,0,0,1.536.52,2.913,2.913,0,0,0,.9-.128,8.923,8.923,0,0,0,.888-.352A1.766,1.766,0,0,1,57.344-2.144ZM54.576-6.608a1.717,1.717,0,0,0-1.3.512,2.417,2.417,0,0,0-.584,1.472H56.3a2.281,2.281,0,0,0-.48-1.48A1.583,1.583,0,0,0,54.576-6.608ZM62.48.128A5.144,5.144,0,0,1,59.664-.56a.954.954,0,0,1-.512-.864.758.758,0,0,1,.176-.52.554.554,0,0,1,.432-.2,1.767,1.767,0,0,1,.752.256,7,7,0,0,0,.936.368,3.812,3.812,0,0,0,1.08.128,2.054,2.054,0,0,0,1.048-.224.694.694,0,0,0,.376-.624.6.6,0,0,0-.152-.432,1.394,1.394,0,0,0-.544-.3,11.44,11.44,0,0,0-1.192-.312,4.58,4.58,0,0,1-2.04-.816,1.816,1.816,0,0,1-.616-1.456,2.1,2.1,0,0,1,.416-1.272,2.7,2.7,0,0,1,1.144-.88,4.168,4.168,0,0,1,1.656-.312,4.963,4.963,0,0,1,1.3.168,3.94,3.94,0,0,1,1.12.488.966.966,0,0,1,.512.848.821.821,0,0,1-.176.536.538.538,0,0,1-.432.216.865.865,0,0,1-.344-.072,4.615,4.615,0,0,1-.424-.216,6.709,6.709,0,0,0-.8-.36,2.5,2.5,0,0,0-.832-.12,1.611,1.611,0,0,0-.936.24.758.758,0,0,0-.344.656.666.666,0,0,0,.352.608,5.041,5.041,0,0,0,1.36.416,7.76,7.76,0,0,1,1.68.512,1.968,1.968,0,0,1,.872.72,2.089,2.089,0,0,1,.264,1.1,2.052,2.052,0,0,1-.9,1.744A4.013,4.013,0,0,1,62.48.128Z" transform="translate(1001 2281)"/><g transform="translate(1669.034 2944.287) rotate(180)"><line class="i" x2="200.788" transform="translate(680 687.5) rotate(90)"/><path class="i" d="M0,0V3.033" transform="translate(680 888.287) rotate(-90)"/><path class="i" d="M0,0V3.033" transform="translate(680.001 687.286) rotate(-90)"/></g><g transform="translate(-81.285 3006.018) rotate(-90)"><line class="i" x2="371.786" transform="translate(680 687.5) rotate(90)"/><path class="i" d="M0,0V3.033" transform="translate(680 1059.285) rotate(-90)"/><path class="i" d="M0,0V3.033" transform="translate(680.001 687.286) rotate(-90)"/></g><g transform="translate(1669.034 2731.287) rotate(180)"><line class="i" x2="31.858" transform="translate(680 687.427) rotate(90)"/><path class="i" d="M0,0V3.033" transform="translate(680 719.286) rotate(-90)"/><path class="i" d="M0,0V3.033" transform="translate(680.001 687.286) rotate(-90)"/></g><g transform="translate(1669.034 2972.285) rotate(180)"><line class="i" x2="15.786" transform="translate(680 687.5) rotate(90)"/><path class="i" d="M0,0V3.033" transform="translate(680 703.286) rotate(-90)"/><path class="i" d="M0,0V3.033" transform="translate(680.001 687.286) rotate(-90)"/></g><g transform="translate(0 8)"><rect class="b" width="115" height="14" transform="translate(624 2094)"/><rect class="b" width="115" height="14" transform="translate(624 2181)"/><rect class="b" width="115" height="14" transform="translate(624 2125)"/><rect class="b" width="115" height="14" transform="translate(624 2212)"/><rect class="b" width="115" height="14" transform="translate(755 2094)"/><rect class="b" width="115" height="14" transform="translate(755 2181)"/><rect class="b" width="115" height="14" transform="translate(755 2125)"/><rect class="b" width="115" height="14" transform="translate(755 2212)"/><rect class="b" width="21" height="6" transform="translate(624 2085)"/><rect class="b" width="21" height="6" transform="translate(624 2172)"/><rect class="j" width="115" height="6" transform="translate(624 2072)"/><rect class="j" width="115" height="6" transform="translate(624 2159)"/><rect class="b" width="21" height="6" transform="translate(624 2116)"/><rect class="b" width="21" height="6" transform="translate(624 2203)"/><rect class="b" width="21" height="6" transform="translate(755 2085)"/><rect class="b" width="21" height="6" transform="translate(755 2172)"/><rect class="b" width="21" height="6" transform="translate(755 2116)"/><rect class="b" width="21" height="6" transform="translate(755 2203)"/></g><g transform="translate(3 -76)"><rect class="k" width="372" height="22" transform="translate(975 2395) rotate(180)"/><path class="l" d="M0,22V0" transform="translate(975 2395) rotate(180)"/><path class="l" d="M0,22V0" transform="translate(603.495 2395) rotate(180)"/></g></g></svg>