<svg xmlns="http://www.w3.org/2000/svg" width="712" height="1133" viewBox="0 0 712 1133">
  <g id="Grupo_18086" data-name="Grupo 18086" transform="translate(-513 -554)">
    <path id="Trazado_23782" data-name="Trazado 23782" d="M4,0H708a4,4,0,0,1,4,4V1129a4,4,0,0,1-4,4H4a4,4,0,0,1-4-4V4A4,4,0,0,1,4,0Z" transform="translate(513 554)" fill="#f3f6f9"/>
    <g id="Grupo_17865" data-name="Grupo 17865" transform="translate(19 18)">
      <rect id="Rectángulo_3199" data-name="Rectángulo 3199" width="602" height="1" transform="translate(575 591)" fill="#d1d8e0"/>
      <text id="_1px" data-name="1px" transform="translate(559 597)" fill="#38485c" font-size="16" font-family="OpenSans-Regular, Open Sans"><tspan x="-27.336" y="0">1px</tspan></text>
      <rect id="Rectángulo_3200" data-name="Rectángulo 3200" width="602" height="2" transform="translate(575 636)" fill="#d1d8e0"/>
      <text id="_2px" data-name="2px" transform="translate(559 643)" fill="#38485c" font-size="16" font-family="OpenSans-Regular, Open Sans"><tspan x="-27.336" y="0">2px</tspan></text>
      <rect id="Rectángulo_3201" data-name="Rectángulo 3201" width="602" height="4" transform="translate(575 681)" fill="#d1d8e0"/>
      <text id="_4px" data-name="4px" transform="translate(559 689)" fill="#38485c" font-size="16" font-family="OpenSans-Regular, Open Sans"><tspan x="-27.336" y="0">4px</tspan></text>
      <rect id="Rectángulo_3198" data-name="Rectángulo 3198" width="602.096" height="8" transform="translate(575 725)" fill="#d1d8e0"/>
      <text id="_8px" data-name="8px" transform="translate(559 735)" fill="#38485c" font-size="16" font-family="OpenSans-Regular, Open Sans"><tspan x="-27.336" y="0">8px</tspan></text>
      <rect id="Rectángulo_3202" data-name="Rectángulo 3202" width="602" height="12" transform="translate(575 769)" fill="#d1d8e0"/>
      <text id="_12px" data-name="12px" transform="translate(559 781)" fill="#38485c" font-size="16" font-family="OpenSans-Regular, Open Sans"><tspan x="-36.484" y="0">12px</tspan></text>
      <rect id="Rectángulo_3203" data-name="Rectángulo 3203" width="602" height="16" transform="translate(575 813)" fill="#d1d8e0"/>
      <text id="_16px" data-name="16px" transform="translate(559 827)" fill="#38485c" font-size="16" font-family="OpenSans-Regular, Open Sans"><tspan x="-36.484" y="0">16px</tspan></text>
      <rect id="Rectángulo_3204" data-name="Rectángulo 3204" width="602" height="20" transform="translate(575 857)" fill="#d1d8e0"/>
      <text id="_20px" data-name="20px" transform="translate(559 873)" fill="#38485c" font-size="16" font-family="OpenSans-Regular, Open Sans"><tspan x="-36.484" y="0">20px</tspan></text>
      <rect id="Rectángulo_3205" data-name="Rectángulo 3205" width="602" height="24" transform="translate(575 902)" fill="#d1d8e0"/>
      <text id="_24px" data-name="24px" transform="translate(559 920)" fill="#38485c" font-size="16" font-family="OpenSans-Regular, Open Sans"><tspan x="-36.484" y="0">24px</tspan></text>
      <rect id="Rectángulo_3206" data-name="Rectángulo 3206" width="602" height="32" transform="translate(575 950)" fill="#d1d8e0"/>
      <text id="_32px" data-name="32px" transform="translate(559 972)" fill="#38485c" font-size="16" font-family="OpenSans-Regular, Open Sans"><tspan x="-36.484" y="0">32px</tspan></text>
      <rect id="Rectángulo_3207" data-name="Rectángulo 3207" width="602" height="40" transform="translate(575 1006)" fill="#d1d8e0"/>
      <text id="_40px" data-name="40px" transform="translate(559 1032)" fill="#38485c" font-size="16" font-family="OpenSans-Regular, Open Sans"><tspan x="-36.484" y="0">40px</tspan></text>
      <rect id="Rectángulo_3208" data-name="Rectángulo 3208" width="602" height="48" transform="translate(575 1070)" fill="#d1d8e0"/>
      <text id="_48px" data-name="48px" transform="translate(559 1100)" fill="#38485c" font-size="16" font-family="OpenSans-Regular, Open Sans"><tspan x="-36.484" y="0">48px</tspan></text>
      <rect id="Rectángulo_3209" data-name="Rectángulo 3209" width="602" height="56" transform="translate(575 1142)" fill="#d1d8e0"/>
      <text id="_56px" data-name="56px" transform="translate(559 1176)" fill="#38485c" font-size="16" font-family="OpenSans-Regular, Open Sans"><tspan x="-36.484" y="0">56px</tspan></text>
      <rect id="Rectángulo_3210" data-name="Rectángulo 3210" width="602" height="64" transform="translate(575 1222)" fill="#d1d8e0"/>
      <text id="_64px" data-name="64px" transform="translate(559 1260)" fill="#38485c" font-size="16" font-family="OpenSans-Regular, Open Sans"><tspan x="-36.484" y="0">64px</tspan></text>
      <rect id="Rectángulo_3211" data-name="Rectángulo 3211" width="602" height="72" transform="translate(575 1310)" fill="#d1d8e0"/>
      <text id="_72px" data-name="72px" transform="translate(559 1352)" fill="#38485c" font-size="16" font-family="OpenSans-Regular, Open Sans"><tspan x="-36.484" y="0">72px</tspan></text>
      <rect id="Rectángulo_3212" data-name="Rectángulo 3212" width="602" height="80" transform="translate(575 1406)" fill="#d1d8e0"/>
      <text id="_80px" data-name="80px" transform="translate(559 1452)" fill="#38485c" font-size="16" font-family="OpenSans-Regular, Open Sans"><tspan x="-36.484" y="0">80px</tspan></text>
      <rect id="Rectángulo_3213" data-name="Rectángulo 3213" width="602" height="120" transform="translate(575 1510)" fill="#d1d8e0"/>
      <text id="_120px" data-name="120px" transform="translate(559 1576)" fill="#38485c" font-size="16" font-family="OpenSans-Regular, Open Sans"><tspan x="-45.633" y="0">120px</tspan></text>
    </g>
  </g>
</svg>
