<?xml version="1.0" encoding="utf-8"?>
<!-- Generator: Adobe Illustrator 25.0.0, SVG Export Plug-In . SVG Version: 6.00 Build 0)  -->
<svg version="1.1" xmlns="http://www.w3.org/2000/svg" xmlns:xlink="http://www.w3.org/1999/xlink" x="0px" y="0px"
	 viewBox="0 0 298.47 293.14" style="enable-background:new 0 0 298.47 293.14;" xml:space="preserve">
<style type="text/css">
	.st0{fill:#383838;}
	.st1{fill:#38485C;}
	.st2{fill:#FFFFFF;}
	.st3{fill:none;stroke:#383838;stroke-miterlimit:10;}
	.st4{fill:none;stroke:#383838;stroke-width:3;stroke-miterlimit:10;}
	.st5{fill:#FFFFFF;stroke:#383838;stroke-miterlimit:10;}
</style>
<g id="Capa_1">
	<g>
		<path class="st1" d="M195.19,68.11l9.35,1.33v0.91c0,2.64,2.14,4.78,4.78,4.78h0.9c0.87,0,1.58,0.7,1.58,1.57
			c0,1.13,0.92,2.05,2.05,2.05c0.87,0,1.58,0.71,1.58,1.58v11.11c0,1.01-0.82,1.83-1.83,1.83h-1.79c-1.01,0-1.83,0.82-1.83,1.83
			v27.62c0,2.33,1.16,4.57,3.19,5.72c5.6,3.17,11.33-0.82,11.33-6.13V95.11c0-1.01-0.82-1.83-1.83-1.83h-1.79
			c-1.01,0-1.83-0.82-1.83-1.83V78.76c2,0,3.63-1.63,3.63-3.63V51.55c0-1.01-0.82-1.83-1.83-1.83h-8.16c-0.52,0-0.94,0.42-0.94,0.94
			c0,1.48-1.2,2.69-2.69,2.69h-0.9c-2,0-3.62,1.62-3.63,3.62c0,1.12,0,2.07,0,2.07l-9.59,1.37c-0.86,0.12-1.68,0.54-2.2,1.23
			C190.65,64.44,192.43,67.72,195.19,68.11z M220.86,100.54v21.78c0,2.8-3.19,4.87-6.13,2.77c-0.74-0.53-1.13-1.43-1.13-2.34v-22.2
			c0-2,1.63-3.63,3.63-3.63C219.24,96.91,220.86,98.53,220.86,100.54z M215.42,55.17c0-1,0.81-1.81,1.81-1.81s1.81,0.81,1.81,1.81
			v18.15c0,1-0.81,1.81-1.81,1.81s-1.81-0.81-1.81-1.81V55.17z M208.16,58.8c0-1,0.81-1.81,1.82-1.81s1.81,0.81,1.81,1.81v10.89
			c0,1-0.81,1.81-1.81,1.81s-1.82-0.81-1.82-1.81V58.8z M195.7,63.97l7.31-1.05c0.8-0.11,1.52,0.51,1.52,1.32
			c0,0.81-0.72,1.43-1.52,1.32l-7.31-1.04c-0.14-0.02-0.24-0.13-0.24-0.27C195.46,64.1,195.56,63.99,195.7,63.97z"/>
		<path class="st1" d="M145.19,110.84c24.4,0,44.19-19.78,44.19-44.19s-19.78-44.19-44.19-44.19s-44.19,19.78-44.19,44.19
			S120.79,110.84,145.19,110.84z"/>
		<path class="st1" d="M244.84,261.36l-10.4-58.72l-5.65-31.92c-0.01-0.06-0.03-0.11-0.04-0.17c-0.09-0.48-0.21-0.96-0.31-1.44
			c-0.06-0.31-0.16-0.61-0.23-0.92c-4.87-19.79-18.72-36.24-37.07-43.63c-0.18-0.07-0.35-0.16-0.53-0.23
			c-0.43-0.17-0.88-0.3-1.32-0.46c-4.06-1.48-8.32-2.55-12.74-3.09c-1.34-0.17-2.68-0.28-4.02-0.35c0.11-0.04-13.52-0.07-27.34-0.07
			c-13.82,0-27.45,0.02-27.34,0.07c-1.34,0.07-2.68,0.18-4.02,0.35c-4.43,0.54-8.68,1.61-12.74,3.09c-0.44,0.16-0.89,0.29-1.32,0.46
			c-0.18,0.07-0.35,0.16-0.53,0.23c-18.35,7.39-32.2,23.84-37.07,43.63c-0.07,0.31-0.16,0.62-0.23,0.92
			c-0.1,0.48-0.22,0.96-0.31,1.44c-0.01,0.06-0.03,0.12-0.04,0.17l-5.65,31.92l-10.31,58.19c-1.01,5.7,2.39,11.54,8.03,12.82
			c6,1.36,11.77-2.53,12.9-8.4l11.72-60.84l3.9-20.25c0.78-4.03,4.34-7.18,8.36-6.92c0.69-0.07,1.39-0.08,2.09,0.06
			c0.16,0.16,0.3,0.39,0.46,0.58c0.01,0.01,0.02,0.01,0.03,0.01c0,0.01,0.01,0.03,0.01,0.04c5.23,6.61,6.35,30.36,6.35,30.36
			c0.33,6.46-0.65,30.34-2.15,60.25c-0.16,3.21,2.4,5.91,5.61,5.91h84.52c3.21,0,5.77-2.7,5.61-5.91
			c-1.51-29.91-2.48-53.79-2.15-60.25c0,0,1.12-23.74,6.35-30.36c0-0.01,0-0.03,0.01-0.04c0.01,0,0.02-0.01,0.03-0.01
			c0.15-0.19,0.29-0.42,0.45-0.58c0.7-0.14,1.4-0.14,2.09-0.06c4.02-0.26,7.59,2.89,8.36,6.92l3.9,20.25l11.65,60.49
			c0.95,4.95,5.11,8.85,10.14,9.02C240.86,274.15,246.01,267.97,244.84,261.36z"/>
	</g>
</g>
<g id="Capa_2">
</g>
<g id="Capa_3">
</g>
<g id="Capa_4">
</g>
<g id="Capa_5">
</g>
</svg>
