<?xml version="1.0" encoding="utf-8"?>
<!-- Generator: Adobe Illustrator 25.0.0, SVG Export Plug-In . SVG Version: 6.00 Build 0)  -->
<svg version="1.1" xmlns="http://www.w3.org/2000/svg" xmlns:xlink="http://www.w3.org/1999/xlink" x="0px" y="0px"
	 viewBox="0 0 298.47 293.14" style="enable-background:new 0 0 298.47 293.14;" xml:space="preserve">
<style type="text/css">
	.st0{fill:#383838;}
	.st1{fill:#38485C;}
	.st2{fill:#FFFFFF;}
	.st3{fill:none;stroke:#383838;stroke-miterlimit:10;}
	.st4{fill:none;stroke:#383838;stroke-width:3;stroke-miterlimit:10;}
	.st5{fill:#FFFFFF;stroke:#383838;stroke-miterlimit:10;}
</style>
<g id="Capa_1">
	<g>
		<path class="st1" d="M260.47,261.82l-10.51-59.32l-5.71-32.24c-0.01-0.06-0.03-0.12-0.04-0.18c-0.09-0.49-0.22-0.96-0.32-1.45
			c-0.06-0.31-0.16-0.62-0.23-0.93c-4.92-19.99-18.91-36.61-37.45-44.08c-0.18-0.07-0.35-0.16-0.53-0.23
			c-0.44-0.17-0.89-0.3-1.33-0.47c-4.11-1.49-8.4-2.58-12.87-3.12c-1.36-0.17-2.71-0.28-4.06-0.35c0.11-0.04-13.65-0.07-27.62-0.07
			c-13.96,0-27.73,0.02-27.62,0.07c-1.35,0.07-2.7,0.18-4.06,0.35c-4.47,0.55-15.55,4.23-15.96,4.41c-0.05,0-0.09-0.01-0.14-0.01
			c-8.4-0.25-33.04,3.75-50.31,0.65c-3.79-0.68-13.2-4.51-3.57-8.94c8.86-4.08,26.72-11.01,61.93-12.59
			c2.63-0.12,5.39-0.08,7.74-0.5c-5.03-5.17-8.8-11.56-10.87-18.68c-0.02-0.08-0.03-0.16-0.05-0.24c-3.77,0.33-6.43,0.62-6.43,0.62
			l0.02,0.02c-48.11,3.16-68.73,12.45-78.59,28.39c-4.74,7.67-4.84,15.68-2.16,19.99c3.93,6.31,13.3,10.59,15.55,11.52
			c10.08,4.15,19.96,6.96,30.55,7.99c-0.02,0.04-0.05,0.08-0.07,0.12c1.65,0.08,11.23,4.15,13.83,6.04c3.2,2.8,6.41,5.6,9.61,8.4
			c3.43,3.45,6.16,6.65,7.5,9.95c0.01,0.03,4.39,11.3,4.48,11.45c1.92,9.11,2.43,19.85,2.43,19.85c0.35,6.87-0.76,33.3-2.43,65.79
			c-0.12,2.26,1.68,4.15,3.94,4.15h89.33c2.26,0,4.05-1.9,3.94-4.15c-1.66-32.49-2.78-58.91-2.42-65.79c0,0,1.13-23.99,6.41-30.67
			c0-0.01,0-0.03,0.01-0.04c0.01,0,0.02-0.01,0.03-0.01c0.15-0.19,0.3-0.42,0.46-0.58c0.71-0.14,1.42-0.14,2.11-0.07
			c4.06-0.26,7.67,2.92,8.45,6.99l3.94,20.46l11.77,61.1c0.96,5,5.16,8.94,10.25,9.11C256.45,274.73,261.65,268.49,260.47,261.82z"
			/>
		<path class="st1" d="M134.38,83.01c4.44,0.04,8.44,2.91,9.74,6.91c0.41-0.72,1.16-1.22,2.05-1.22h26.16c1.32,0,2.4,1.07,2.4,2.4
			c0,1.33-1.07,2.4-2.4,2.4h-26.16c-0.61,0-1.16-0.25-1.58-0.62c-0.08,3.24-1.95,6.49-7.95,8.4c-2.3,0.73-5.16,1.29-8.82,1.55
			c8.11,8.34,19.43,13.54,31.99,13.54c24.65,0,44.64-19.98,44.64-44.64s-19.99-44.64-44.64-44.64s-44.64,19.99-44.64,44.64
			c0,4.23,0.63,8.3,1.73,12.18c2.32-0.2,5.06-0.41,7.87-0.58C128.09,83.11,131.48,82.98,134.38,83.01z"/>
		<path class="st1" d="M144.12,89.91c-0.2,0.35-0.35,0.74-0.35,1.18c0,0.71,0.33,1.34,0.82,1.78c0-0.04,0.01-0.08,0.01-0.12
			C144.61,91.75,144.41,90.81,144.12,89.91z"/>
	</g>
</g>
<g id="Capa_2">
</g>
<g id="Capa_3">
</g>
<g id="Capa_4">
</g>
<g id="Capa_5">
</g>
</svg>
