<?xml version="1.0" encoding="utf-8"?>
<!-- Generator: Adobe Illustrator 25.0.0, SVG Export Plug-In . SVG Version: 6.00 Build 0)  -->
<svg version="1.1" xmlns="http://www.w3.org/2000/svg" xmlns:xlink="http://www.w3.org/1999/xlink" x="0px" y="0px"
	 viewBox="0 0 298.47 293.14" style="enable-background:new 0 0 298.47 293.14;" xml:space="preserve">
<style type="text/css">
	.st0{fill:#383838;}
	.st1{fill:#38485C;}
	.st2{fill:#FFFFFF;}
	.st3{fill:none;stroke:#383838;stroke-miterlimit:10;}
	.st4{fill:none;stroke:#383838;stroke-width:3;stroke-miterlimit:10;}
	.st5{fill:#FFFFFF;stroke:#383838;stroke-miterlimit:10;}
</style>
<g id="Capa_1">
	<g>
		<g>
			<g>
				<path class="st1" d="M161.05,49.97c0,5.83-4.72,10.57-10.51,10.57c-5.77,0-10.47-4.59-10.63-10.29
					c-0.75-1.13-1.69-1.76-2.66-1.76c-0.97,0-1.91,0.63-2.66,1.76c-0.16,5.7-4.8,10.29-10.5,10.29c-5.57,0-10.14-4.27-10.6-9.7
					h-1.81c-0.06,0-0.09-0.05-0.14-0.06c0.44,13.83,11.76,24.92,25.7,24.92c14.22,0,25.75-11.53,25.75-25.75c0-0.02,0-0.05,0-0.07
					c-0.07,0.02-0.11,0.07-0.18,0.07H161.05z"/>
				<path class="st1" d="M113.49,49.09c0.45-5.42,5.03-9.7,10.6-9.7c5.07,0,9.31,3.63,10.29,8.44c0.86-0.72,1.83-1.1,2.86-1.1
					c1.03,0,2.01,0.38,2.86,1.1c0.99-4.81,5.29-8.44,10.42-8.44c5.2,0,9.52,3.82,10.36,8.81h1.92c0.04,0,0.06,0.04,0.1,0.04
					c-0.89-13.41-12.02-24.02-25.66-24.02c-13.94,0-25.27,11.09-25.7,24.93c0.05-0.01,0.09-0.06,0.14-0.06H113.49z"/>
			</g>
			<g>
				<path class="st1" d="M197.25,163.72l-6.06-34.21l-3.29-18.6c-0.01-0.03-0.02-0.07-0.02-0.1c-0.05-0.28-0.12-0.56-0.18-0.84
					c-0.04-0.18-0.09-0.36-0.13-0.54c-2.84-11.53-10.91-21.12-21.6-25.42c-0.1-0.04-0.2-0.09-0.31-0.13
					c-0.25-0.1-0.51-0.18-0.77-0.27c-2.37-0.86-4.85-1.49-7.42-1.8c-0.78-0.1-1.56-0.16-2.34-0.2c0.06-0.03-7.87-0.04-15.93-0.04
					c-8.05,0-15.99,0.01-15.93,0.04c-0.78,0.04-1.56,0.11-2.34,0.2c-2.58,0.31-5.06,0.94-7.42,1.8c-0.26,0.09-0.52,0.17-0.77,0.27
					c-0.1,0.04-0.2,0.09-0.31,0.13c-10.69,4.31-18.76,13.89-21.6,25.42c-0.04,0.18-0.09,0.36-0.13,0.54
					c-0.06,0.28-0.13,0.56-0.18,0.84c-0.01,0.04-0.02,0.07-0.02,0.1l-3.29,18.6l-6.06,34.21c-0.37,2.06,0.35,4.04,1.7,5.42l1.61-6.3
					c0.38-1.48,1.88-2.37,3.37-1.99c1.48,0.38,2.37,1.89,1.99,3.37l-1.73,6.75c2.6-0.34,4.79-2.3,5.3-4.98l6.83-35.45l2.27-11.8
					c0.45-2.35,2.53-4.18,4.87-4.03c0.4-0.04,0.81-0.05,1.22,0.04c0.09,0.09,0.18,0.23,0.26,0.34c0.01,0,0.01,0,0.02,0.01
					c0,0.01,0,0.01,0,0.02c3.05,3.85,3.7,17.69,3.7,17.69c0.62,12.17-6.72,130.44-6.72,130.44c0,2.42,0.98,4.62,2.57,6.2
					c0,0,0,0,0,0c1.11,1.11,2.52,1.89,4.09,2.28c0.12,0.03,0.23,0.08,0.36,0.11c0.24,0.05,0.5,0.05,0.75,0.08
					c0.23,0.03,0.46,0.05,0.69,0.07c0.19-0.01,0.38-0.04,0.57-0.06c0.51-0.05,1.02-0.15,1.54-0.29c0.11-0.03,0.22-0.03,0.34-0.06
					c0.13-0.04,0.25-0.11,0.38-0.16c0.17-0.06,0.34-0.13,0.5-0.21c0.33-0.15,0.64-0.32,0.94-0.51c0.17-0.11,0.34-0.2,0.49-0.32
					c0.16-0.11,0.3-0.24,0.44-0.37c1.99-1.7,3.17-4.31,3.17-7.03l13.02-72.99c0.31-1.73,6.68-1.73,6.98,0l13.02,72.99
					c0,2.72,1.18,5.33,3.17,7.03c0.15,0.12,0.29,0.25,0.44,0.37c0.16,0.12,0.33,0.21,0.49,0.32c0.3,0.19,0.61,0.36,0.94,0.51
					c0.17,0.08,0.33,0.15,0.5,0.21c0.13,0.05,0.25,0.12,0.38,0.16c0.11,0.04,0.22,0.03,0.34,0.06c0.52,0.14,1.03,0.24,1.54,0.29
					c0.19,0.02,0.38,0.05,0.57,0.06c0.23-0.02,0.46-0.04,0.69-0.07c0.25-0.03,0.51-0.03,0.75-0.08c0.12-0.02,0.24-0.08,0.36-0.11
					c1.57-0.39,2.98-1.18,4.09-2.28c0,0,0,0,0,0c1.59-1.59,2.57-3.78,2.57-6.2c0,0-7.34-118.27-6.72-130.44
					c0,0,0.65-13.83,3.7-17.69c0-0.01,0-0.01,0-0.02c0.01,0,0.01,0,0.02-0.01c0.09-0.11,0.17-0.24,0.26-0.34
					c0.41-0.08,0.82-0.08,1.22-0.04c2.34-0.15,4.42,1.68,4.87,4.03l2.27,11.8l6.83,35.45c0.61,3.18,3.56,5.36,6.79,5.02
					C195.37,170.61,197.88,167.27,197.25,163.72z"/>
				<path class="st1" d="M86.59,171c-0.46-0.05-0.89-0.15-1.31-0.29L59.46,271.63l25.83-100.92c-0.96-0.32-1.78-0.88-2.45-1.57
					l-26.05,101.8c-0.38,1.48,0.51,2.99,1.99,3.37c0.23,0.06,0.46,0.09,0.69,0.09c1.23,0,2.36-0.83,2.68-2.08l25.94-101.35
					C87.59,171.02,87.1,171.05,86.59,171z"/>
			</g>
		</g>
		<path class="st1" d="M259.1,243.91c-1.54,0-2.79,1.25-2.79,2.79v0.84c0,7.99-6.5,14.49-14.49,14.49h-1.11
			c-2.09-18.08-16.46-32.45-34.54-34.54v-27.33c0-1.54-1.25-2.79-2.79-2.79s-2.79,1.25-2.79,2.79v5.73l-23.33,11.66
			c-0.7,0.35-1.22,0.98-1.44,1.73c-0.22,0.75-0.11,1.56,0.3,2.23l5.79,9.48c0.51,0.83,1.41,1.34,2.38,1.34h15.89
			c0.13,0.08,0.25,0.19,0.4,0.25v34.73c0,1.54,1.25,2.79,2.79,2.79s2.79-1.25,2.79-2.79v-34.17c12.14,1.64,22.25,9.74,26.73,20.73
			c-2.13-1.14-4.56-1.79-7.14-1.79c-8.4,0-15.23,6.83-15.23,15.23c0,1.54,1.25,2.79,2.79,2.79c1.54,0,2.79-1.25,2.79-2.79
			c0-5.32,4.33-9.64,9.64-9.64c5.32,0,9.64,4.32,9.64,9.64c0,1.54,1.25,2.79,2.79,2.79c1.43,0,2.57-1.09,2.73-2.49h0.89
			c11.07,0,20.08-9.01,20.08-20.08v-0.84C261.89,245.16,260.64,243.91,259.1,243.91z"/>
	</g>
</g>
<g id="Capa_2">
</g>
<g id="Capa_3">
</g>
<g id="Capa_4">
</g>
<g id="Capa_5">
</g>
</svg>
