<svg xmlns="http://www.w3.org/2000/svg" xmlns:xlink="http://www.w3.org/1999/xlink" width="760" height="434.91" viewBox="0 0 760 434.91">
  <defs>
    <filter id="Rectángulo_6577" x="67.311" y="0" width="635.244" height="434.91" filterUnits="userSpaceOnUse">
      <feOffset dy="7.72" input="SourceAlpha"/>
      <feGaussianBlur stdDeviation="28.858" result="blur"/>
      <feFlood flood-color="#202933" flood-opacity="0.6"/>
      <feComposite operator="in" in2="blur"/>
      <feComposite in="SourceGraphic"/>
    </filter>
    <filter id="Rectángulo_6582" x="188.5" y="97.162" width="139" height="72" filterUnits="userSpaceOnUse">
      <feOffset dx="7" dy="7" input="SourceAlpha"/>
      <feGaussianBlur stdDeviation="7.5" result="blur-2"/>
      <feFlood flood-opacity="0.149"/>
      <feComposite operator="in" in2="blur-2"/>
      <feComposite in="SourceGraphic"/>
    </filter>
    <filter id="Rectángulo_6583" x="285.5" y="148.162" width="139" height="72" filterUnits="userSpaceOnUse">
      <feOffset dx="7" dy="7" input="SourceAlpha"/>
      <feGaussianBlur stdDeviation="7.5" result="blur-3"/>
      <feFlood flood-opacity="0.149"/>
      <feComposite operator="in" in2="blur-3"/>
      <feComposite in="SourceGraphic"/>
    </filter>
    <filter id="Rectángulo_6584" x="386.5" y="97.162" width="73" height="72" filterUnits="userSpaceOnUse">
      <feOffset dx="7" dy="7" input="SourceAlpha"/>
      <feGaussianBlur stdDeviation="7.5" result="blur-4"/>
      <feFlood flood-opacity="0.071"/>
      <feComposite operator="in" in2="blur-4"/>
      <feComposite in="SourceGraphic"/>
    </filter>
  </defs>
  <g id="Grupo_17880" data-name="Grupo 17880" transform="translate(0 3.662)">
    <path id="Trazado_10882" data-name="Trazado 10882" d="M0,0H380V760H0Z" transform="translate(0 384) rotate(-90)" fill="#f3f6f9"/>
    <g transform="matrix(1, 0, 0, 1, 0, -3.66)" filter="url(#Rectángulo_6577)">
      <rect id="Rectángulo_6577-2" data-name="Rectángulo 6577" width="462.097" height="261.763" transform="translate(153.88 78.85)" fill="#e2e7eb"/>
    </g>
    <rect id="Rectángulo_6578" data-name="Rectángulo 6578" width="519.022" height="303.581" rx="29.554" transform="translate(125.453 33.776)" fill="#f7f9fc"/>
    <rect id="Rectángulo_6579" data-name="Rectángulo 6579" width="94" height="120" rx="12.365" transform="translate(157 86)" fill="#009afd"/>
    <rect id="Rectángulo_6580" data-name="Rectángulo 6580" width="94.09" height="119.824" rx="12.365" transform="translate(253.923 86.45)" fill="#009afd" opacity="0.61"/>
    <rect id="Rectángulo_6581" data-name="Rectángulo 6581" width="94" height="120" rx="12.365" transform="translate(351 86)" fill="#009afd" opacity="0.35"/>
    <g id="Grupo_17870" data-name="Grupo 17870" transform="translate(503.422 50.562)">
      <circle id="Elipse_5" data-name="Elipse 5" cx="8.344" cy="8.344" r="8.344" fill="none" stroke="#009afd" stroke-miterlimit="10" stroke-width="1"/>
      <circle id="Elipse_6" data-name="Elipse 6" cx="8.344" cy="8.344" r="8.344" transform="translate(19.768)" fill="#f3f6f9" stroke="#88bf48" stroke-miterlimit="10" stroke-width="1"/>
      <circle id="Elipse_7" data-name="Elipse 7" cx="8.344" cy="8.344" r="8.344" transform="translate(39.537)" fill="#f3f6f9" stroke="#9a59b5" stroke-miterlimit="10" stroke-width="1"/>
      <circle id="Elipse_8" data-name="Elipse 8" cx="8.344" cy="8.344" r="8.344" transform="translate(59.305)" fill="#f3f6f9" stroke="#f54789" stroke-miterlimit="10" stroke-width="1"/>
      <circle id="Elipse_9" data-name="Elipse 9" cx="8.344" cy="8.344" r="8.344" transform="translate(101.326)" fill="#f3f6f9" stroke="#8a98a8" stroke-miterlimit="10" stroke-width="1"/>
      <line id="Línea_300" data-name="Línea 300" y2="16.689" transform="translate(88.14)" fill="#f3f6f9" stroke="#9eaab8" stroke-miterlimit="10" stroke-width="2.223" opacity="0.2"/>
      <g id="_Text_H6_Selected_On_Surface_High_Emphasis_Left-2" data-name=" Text H6 Selected On Surface High Emphasis Left-2" transform="translate(106.122 5.973)" style="isolation: isolate">
        <g id="Grupo_17865" data-name="Grupo 17865" style="isolation: isolate">
          <path id="Trazado_10865" data-name="Trazado 10865" d="M1519.048,145a.289.289,0,0,1-.207.5h-1.025v1.018a.292.292,0,0,1-.082.21.293.293,0,0,1-.414,0,.291.291,0,0,1-.082-.21V145.5h-1.025a.289.289,0,1,1,0-.578h1.025V143.9a.289.289,0,1,1,.578,0v1.025h1.025A.282.282,0,0,1,1519.048,145Z" transform="translate(-1515.924 -142.399)" fill="#8a98a8"/>
          <path id="Trazado_10866" data-name="Trazado 10866" d="M1528.486,143.311a1.173,1.173,0,0,1,.22.726,1.161,1.161,0,0,1-.44.953,1.84,1.84,0,0,1-1.189.355,2.58,2.58,0,0,1-.822-.131,1.977,1.977,0,0,1-.67-.368.4.4,0,0,1-.151-.309.38.38,0,0,1,.082-.246.242.242,0,0,1,.194-.1.293.293,0,0,1,.118.023c.035.016.083.041.145.076a2.841,2.841,0,0,0,.526.283,1.476,1.476,0,0,0,.545.1,1,1,0,0,0,.644-.174.648.648,0,0,0,.21-.529.606.606,0,0,0-.22-.515,1.122,1.122,0,0,0-.68-.168h-.375a.282.282,0,0,1-.233-.1.378.378,0,0,1,0-.47.287.287,0,0,1,.233-.1h.263q.9,0,.9-.677a.619.619,0,0,0-.191-.486.761.761,0,0,0-.526-.171,1.818,1.818,0,0,0-1.025.381,1.621,1.621,0,0,1-.144.076.292.292,0,0,1-.118.023.242.242,0,0,1-.194-.1.379.379,0,0,1-.082-.246.36.36,0,0,1,.036-.168.534.534,0,0,1,.115-.141,2.111,2.111,0,0,1,.66-.365,2.362,2.362,0,0,1,.785-.135,1.653,1.653,0,0,1,1.088.335,1.1,1.1,0,0,1,.4.894,1.2,1.2,0,0,1-.2.667,1.108,1.108,0,0,1-.542.417A1.1,1.1,0,0,1,1528.486,143.311Z" transform="translate(-1521.61 -140.601)" fill="#8a98a8"/>
        </g>
      </g>
      <g id="_Text_H6_Selected_On_Surface_High_Emphasis_Left-2-2" data-name=" Text H6 Selected On Surface High Emphasis Left-2" transform="translate(6.048 5.989)" style="isolation: isolate">
        <g id="Grupo_17866" data-name="Grupo 17866" style="isolation: isolate">
          <path id="Trazado_10867" data-name="Trazado 10867" d="M1271.207,140.642a.462.462,0,0,1,.3.1.324.324,0,0,1,.131.263.425.425,0,0,1-.039.164l-1.82,3.916a.427.427,0,0,1-.181.194.522.522,0,0,1-.519,0,.429.429,0,0,1-.181-.194l-1.813-3.916a.408.408,0,0,1-.04-.158.327.327,0,0,1,.135-.269.483.483,0,0,1,.305-.1.4.4,0,0,1,.207.056.373.373,0,0,1,.148.167l1.511,3.357,1.511-3.357A.359.359,0,0,1,1271.207,140.642Z" transform="translate(-1267.041 -140.642)" fill="#009afd"/>
        </g>
      </g>
      <g id="_Text_H6_Selected_On_Surface_High_Emphasis_Left-2-3" data-name=" Text H6 Selected On Surface High Emphasis Left-2" transform="translate(25.816 5.995)" style="isolation: isolate">
        <g id="Grupo_17867" data-name="Grupo 17867" style="isolation: isolate">
          <path id="Trazado_10868" data-name="Trazado 10868" d="M1320.8,144.995a.327.327,0,0,1-.121.256.413.413,0,0,1-.279.105.364.364,0,0,1-.342-.23l-.394-.881h-2.313l-.395.881a.372.372,0,0,1-.145.174.386.386,0,0,1-.2.056.417.417,0,0,1-.276-.105.323.323,0,0,1-.125-.256.409.409,0,0,1,.039-.171l1.813-3.9a.422.422,0,0,1,.181-.2.522.522,0,0,1,.519,0,.423.423,0,0,1,.181.2l1.82,3.9A.4.4,0,0,1,1320.8,144.995Zm-1.426-1.406-.867-1.951-.867,1.951Z" transform="translate(-1316.205 -140.658)" fill="#88bf48"/>
        </g>
      </g>
      <g id="_Text_H6_Selected_On_Surface_High_Emphasis_Left-2-4" data-name=" Text H6 Selected On Surface High Emphasis Left-2" transform="translate(46.324 6.009)" style="isolation: isolate">
        <g id="Grupo_17868" data-name="Grupo 17868" style="isolation: isolate">
          <path id="Trazado_10869" data-name="Trazado 10869" d="M1367.322,145.244a.425.425,0,0,1-.115-.309v-3.844a.393.393,0,0,1,.109-.3.41.41,0,0,1,.3-.1h2.307q.4,0,.4.342t-.4.335h-1.88v1.261h1.748q.4,0,.4.342t-.4.335h-1.748v1.63a.43.43,0,0,1-.112.309.4.4,0,0,1-.3.118A.407.407,0,0,1,1367.322,145.244Z" transform="translate(-1367.207 -140.691)" fill="#9a59b5"/>
        </g>
      </g>
      <g id="_Text_H6_Selected_On_Surface_High_Emphasis_Left-2-5" data-name=" Text H6 Selected On Surface High Emphasis Left-2" transform="translate(65.396 5.992)" style="isolation: isolate">
        <g id="Grupo_17869" data-name="Grupo 17869" style="isolation: isolate">
          <path id="Trazado_10870" data-name="Trazado 10870" d="M1419.035,140.765a.42.42,0,0,1,.112.306v3.889a.391.391,0,0,1-.105.289.372.372,0,0,1-.276.105.35.35,0,0,1-.27-.105.4.4,0,0,1-.1-.289v-2.707l-1.117,2.116a.649.649,0,0,1-.171.214.351.351,0,0,1-.217.069.365.365,0,0,1-.217-.066.609.609,0,0,1-.171-.217l-1.123-2.083v2.674a.4.4,0,0,1-.1.286.356.356,0,0,1-.273.109.349.349,0,0,1-.269-.105.406.406,0,0,1-.1-.289v-3.889a.429.429,0,0,1,.108-.306.384.384,0,0,1,.292-.115.443.443,0,0,1,.4.283l1.458,2.779,1.452-2.779a.435.435,0,0,1,.388-.283A.4.4,0,0,1,1419.035,140.765Z" transform="translate(-1414.639 -140.65)" fill="#f54789"/>
        </g>
      </g>
    </g>
    <g transform="matrix(1, 0, 0, 1, 0, -3.66)" filter="url(#Rectángulo_6582)">
      <rect id="Rectángulo_6582-2" data-name="Rectángulo 6582" width="94" height="27" rx="10.149" transform="translate(204 112.66)" fill="#fff"/>
    </g>
    <g transform="matrix(1, 0, 0, 1, 0, -3.66)" filter="url(#Rectángulo_6583)">
      <rect id="Rectángulo_6583-2" data-name="Rectángulo 6583" width="94" height="27" rx="10.149" transform="translate(301 163.66)" fill="#fff"/>
    </g>
    <g transform="matrix(1, 0, 0, 1, 0, -3.66)" filter="url(#Rectángulo_6584)">
      <rect id="Rectángulo_6584-2" data-name="Rectángulo 6584" width="28" height="27" rx="5.681" transform="translate(402 112.66)" fill="#fff"/>
    </g>
    <g id="Grupo_17871" data-name="Grupo 17871" transform="translate(499.803 108.565)">
      <rect id="Rectángulo_6585" data-name="Rectángulo 6585" width="28" height="27" rx="5.681" transform="translate(0.197 0.435)" fill="#dff1fd"/>
      <rect id="Rectángulo_6586" data-name="Rectángulo 6586" width="28" height="27" rx="5.681" transform="translate(31.197 0.435)" fill="#f5d8e3"/>
      <rect id="Rectángulo_6587" data-name="Rectángulo 6587" width="27" height="27" rx="5.681" transform="translate(63.197 0.435)" fill="#dff1fd"/>
      <rect id="Rectángulo_6588" data-name="Rectángulo 6588" width="28" height="28" rx="5.681" transform="translate(0.197 31.435)" fill="#f5d8e3"/>
      <rect id="Rectángulo_6589" data-name="Rectángulo 6589" width="28" height="28" rx="5.681" transform="translate(31.197 31.435)" fill="#e4f2d5"/>
      <rect id="Rectángulo_6590" data-name="Rectángulo 6590" width="27" height="28" rx="5.681" transform="translate(63.197 31.435)" fill="#e4f2d5"/>
    </g>
    <ellipse id="Elipse_10" data-name="Elipse 10" cx="10.5" cy="10" rx="10.5" ry="10" transform="translate(164 254)" fill="#e2e7eb"/>
    <circle id="Elipse_11" data-name="Elipse 11" cx="10" cy="10" r="10" transform="translate(223 254)" fill="#e2e7eb"/>
    <circle id="Elipse_12" data-name="Elipse 12" cx="10" cy="10" r="10" transform="translate(333 254)" fill="#e2e7eb"/>
    <rect id="Rectángulo_6591" data-name="Rectángulo 6591" width="41" height="20" rx="10" transform="translate(267 279)" fill="#e2e7eb"/>
    <rect id="Rectángulo_6592" data-name="Rectángulo 6592" width="41" height="19" rx="9.5" transform="translate(267 255)" fill="#e2e7eb"/>
    <rect id="Rectángulo_6593" data-name="Rectángulo 6593" width="41" height="19" rx="9.5" transform="translate(377 255)" fill="#e2e7eb"/>
    <line id="Línea_301" data-name="Línea 301" x2="36.531" transform="translate(181.002 264.377)" fill="none" stroke="#009afd" stroke-miterlimit="10" stroke-width="1"/>
    <line id="Línea_302" data-name="Línea 302" x2="23.664" transform="translate(239.306 264.377)" fill="none" stroke="#009afd" stroke-miterlimit="10" stroke-width="1"/>
    <line id="Línea_303" data-name="Línea 303" x2="23.321" transform="translate(607.162 229.395)" fill="none" stroke="#5c6a7a" stroke-miterlimit="10" stroke-width="1"/>
    <line id="Línea_304" data-name="Línea 304" x2="24.468" transform="translate(348.273 264.377)" fill="none" stroke="#009afd" stroke-miterlimit="10" stroke-width="1"/>
    <line id="Línea_305" data-name="Línea 305" x2="28.891" transform="translate(554.95 264.377)" fill="none" stroke="#5c6a7a" stroke-miterlimit="10" stroke-width="1"/>
    <line id="Línea_306" data-name="Línea 306" x2="24.468" transform="translate(303.239 264.377)" fill="none" stroke="#009afd" stroke-miterlimit="10" stroke-width="1"/>
    <path id="Trazado_10871" data-name="Trazado 10871" d="M617.8,690.9A38.662,38.662,0,0,1,580,672" transform="translate(-346.785 -401.793)" fill="none" stroke="#009afd" stroke-miterlimit="10" stroke-width="1"/>
    <rect id="Rectángulo_6594" data-name="Rectángulo 6594" width="32" height="32" rx="6.586" transform="translate(520 248)" fill="#f0a25c"/>
    <rect id="Rectángulo_6595" data-name="Rectángulo 6595" width="18" height="18" rx="3.705" transform="translate(587 220)" fill="#f7d1df"/>
    <path id="Rectángulo_6596" data-name="Rectángulo 6596" d="M3.7,0H12a0,0,0,0,1,0,0V18a0,0,0,0,1,0,0H3.7A3.7,3.7,0,0,1,0,14.3V3.7A3.7,3.7,0,0,1,3.7,0Z" transform="translate(633 220)" fill="#8094f8"/>
    <rect id="Rectángulo_6597" data-name="Rectángulo 6597" width="18" height="18" rx="3.705" transform="translate(606 290)" fill="#efd152"/>
    <rect id="Rectángulo_6598" data-name="Rectángulo 6598" width="18" height="18" rx="3.705" transform="translate(587 255)" fill="#a0cf80"/>
    <path id="Trazado_10872" data-name="Trazado 10872" d="M1380.17,604.58s16.323-4.7,16.323-17.077,3.713-17.5,12.559-17.5" transform="translate(-825.212 -340.806)" fill="none" stroke="#5c6a7a" stroke-miterlimit="10" stroke-width="1"/>
    <path id="Trazado_10873" data-name="Trazado 10873" d="M1380.17,658s16.323,4.7,16.323,17.077,3.713,17.5,12.559,17.5h18.9" transform="translate(-825.212 -393.422)" fill="none" stroke="#5c6a7a" stroke-miterlimit="10" stroke-width="1"/>
    <circle id="Elipse_13" data-name="Elipse 13" cx="2.5" cy="2.5" r="2.5" transform="translate(554 262)" fill="#5c6a7a"/>
    <g id="Grupo_17873" data-name="Grupo 17873" transform="translate(441.499 227.326)">
      <path id="Trazado_10874" data-name="Trazado 10874" d="M1107.312,582.084,1098,566l17.651,8.042S1107.312,573.619,1107.312,582.084Z" transform="translate(-1098 -565.74)" fill="#5c6a7a"/>
      <circle id="Elipse_14" data-name="Elipse 14" cx="8.344" cy="8.344" r="8.344" transform="translate(19.58)" fill="#009afd"/>
      <g id="_Text_H6_Selected_On_Surface_High_Emphasis_Left-2-6" data-name=" Text H6 Selected On Surface High Emphasis Left-2" transform="translate(25.628 5.989)" style="isolation: isolate">
        <g id="Grupo_17872" data-name="Grupo 17872" style="isolation: isolate">
          <path id="Trazado_10875" data-name="Trazado 10875" d="M1165.9,580.248a.462.462,0,0,1,.3.105.323.323,0,0,1,.131.263.429.429,0,0,1-.039.164l-1.82,3.916a.43.43,0,0,1-.181.194.524.524,0,0,1-.519,0,.432.432,0,0,1-.181-.194l-1.813-3.916a.417.417,0,0,1-.039-.158.327.327,0,0,1,.135-.269.483.483,0,0,1,.305-.105.4.4,0,0,1,.207.056.372.372,0,0,1,.148.168l1.511,3.357,1.511-3.357A.359.359,0,0,1,1165.9,580.248Z" transform="translate(-1161.736 -580.248)" fill="#f3f6f9"/>
        </g>
      </g>
    </g>
    <g id="Grupo_17875" data-name="Grupo 17875" transform="translate(580.624 117.152)">
      <path id="Trazado_10876" data-name="Trazado 10876" d="M1453.312,308.084,1444,292l17.651,8.042S1453.312,299.618,1453.312,308.084Z" transform="translate(-1444 -291.74)" fill="#5c6a7a"/>
      <circle id="Elipse_15" data-name="Elipse 15" cx="8.344" cy="8.344" r="8.344" transform="translate(19.58)" fill="#9a59b5"/>
      <g id="_Text_H6_Selected_On_Surface_High_Emphasis_Left-2-7" data-name=" Text H6 Selected On Surface High Emphasis Left-2" transform="translate(26.367 6.009)">
        <g id="Grupo_17874" data-name="Grupo 17874" style="isolation: isolate">
          <path id="Trazado_10877" data-name="Trazado 10877" d="M1509.689,310.85a.423.423,0,0,1-.115-.309V306.7a.391.391,0,0,1,.109-.3.411.411,0,0,1,.3-.105h2.306q.4,0,.4.342t-.4.335h-1.879v1.262h1.748q.4,0,.4.342t-.4.335h-1.748v1.629a.43.43,0,0,1-.112.309.4.4,0,0,1-.3.118A.407.407,0,0,1,1509.689,310.85Z" transform="translate(-1509.574 -306.297)" fill="#f3f6f9"/>
        </g>
      </g>
    </g>
    <g id="Grupo_17877" data-name="Grupo 17877" transform="translate(544.436 161.382)">
      <path id="Trazado_10878" data-name="Trazado 10878" d="M1363.312,418.084,1354,402l17.651,8.042S1363.312,409.618,1363.312,418.084Z" transform="translate(-1354 -401.74)" fill="#5c6a7a"/>
      <circle id="Elipse_16" data-name="Elipse 16" cx="8.344" cy="8.344" r="8.344" transform="translate(19.58)" fill="#f54789"/>
      <g id="_Text_H6_Selected_On_Surface_High_Emphasis_Left-2-8" data-name=" Text H6 Selected On Surface High Emphasis Left-2" transform="translate(25.671 5.992)">
        <g id="Grupo_17876" data-name="Grupo 17876" style="isolation: isolate">
          <path id="Trazado_10879" data-name="Trazado 10879" d="M1422.238,416.371a.421.421,0,0,1,.112.306v3.89a.391.391,0,0,1-.105.289.373.373,0,0,1-.276.1.351.351,0,0,1-.269-.1.4.4,0,0,1-.1-.289v-2.707l-1.117,2.116a.649.649,0,0,1-.171.214.35.35,0,0,1-.217.069.362.362,0,0,1-.217-.066.6.6,0,0,1-.171-.217l-1.124-2.083v2.674a.4.4,0,0,1-.1.286.357.357,0,0,1-.273.108.351.351,0,0,1-.269-.1.406.406,0,0,1-.1-.289v-3.89a.427.427,0,0,1,.109-.306.383.383,0,0,1,.292-.115.443.443,0,0,1,.4.283l1.458,2.779,1.452-2.779a.435.435,0,0,1,.388-.283A.4.4,0,0,1,1422.238,416.371Z" transform="translate(-1417.842 -416.256)" fill="#f3f6f9"/>
        </g>
      </g>
    </g>
    <g id="Grupo_17879" data-name="Grupo 17879" transform="translate(273.022 165.001)">
      <path id="Trazado_10880" data-name="Trazado 10880" d="M688.312,427.084,679,411l17.651,8.042S688.312,418.618,688.312,427.084Z" transform="translate(-679 -410.74)" fill="#5c6a7a"/>
      <circle id="Elipse_17" data-name="Elipse 17" cx="8.344" cy="8.344" r="8.344" transform="translate(19.58)" fill="#88bf48"/>
      <g id="_Text_H6_Selected_On_Surface_High_Emphasis_Left-2-9" data-name=" Text H6 Selected On Surface High Emphasis Left-2" transform="translate(25.628 5.996)">
        <g id="Grupo_17878" data-name="Grupo 17878" style="isolation: isolate">
          <path id="Trazado_10881" data-name="Trazado 10881" d="M747.329,429.6a.327.327,0,0,1-.121.256.415.415,0,0,1-.279.1.364.364,0,0,1-.342-.23l-.394-.881h-2.313l-.394.881a.372.372,0,0,1-.145.174.382.382,0,0,1-.2.056.419.419,0,0,1-.276-.1.323.323,0,0,1-.125-.256.406.406,0,0,1,.039-.171l1.813-3.9a.426.426,0,0,1,.181-.2.524.524,0,0,1,.519,0,.425.425,0,0,1,.181.2l1.82,3.9A.406.406,0,0,1,747.329,429.6ZM745.9,428.2l-.867-1.952-.867,1.952Z" transform="translate(-742.736 -425.265)" fill="#f3f6f9"/>
        </g>
      </g>
    </g>
  </g>
</svg>
