<svg width="438" height="44" viewBox="0 0 438 44" fill="none" xmlns="http://www.w3.org/2000/svg">
<rect x="1" y="1" width="37" height="42" rx="9" fill="#007BC7"/>
<path d="M16.79 28C16.574 28 16.406 27.946 16.286 27.838C16.166 27.718 16.106 27.556 16.106 27.352C16.106 27.148 16.166 26.998 16.286 26.902C16.406 26.794 16.574 26.74 16.79 26.74H19.13V16.534H19.904L17.294 18.262C17.138 18.346 16.988 18.382 16.844 18.37C16.712 18.358 16.598 18.31 16.502 18.226C16.418 18.13 16.358 18.022 16.322 17.902C16.286 17.77 16.292 17.638 16.34 17.506C16.388 17.362 16.49 17.242 16.646 17.146L19.13 15.508C19.286 15.412 19.436 15.334 19.58 15.274C19.724 15.214 19.868 15.184 20.012 15.184C20.18 15.184 20.318 15.238 20.426 15.346C20.546 15.442 20.606 15.598 20.606 15.814V26.74H22.766C22.982 26.74 23.15 26.794 23.27 26.902C23.39 26.998 23.45 27.148 23.45 27.352C23.45 27.568 23.39 27.73 23.27 27.838C23.15 27.946 22.982 28 22.766 28H16.79Z" fill="white"/>
<rect x="1" y="1" width="37" height="42" rx="9" stroke="#E6EBF0" stroke-width="2"/>
<rect x="44" y="1" width="37" height="42" rx="9" fill="white"/>
<path d="M59.322 28C59.058 28 58.86 27.94 58.728 27.82C58.608 27.688 58.548 27.514 58.548 27.298C58.548 27.166 58.578 27.04 58.638 26.92C58.71 26.788 58.806 26.656 58.926 26.524L62.958 22.204C63.57 21.544 64.008 20.938 64.272 20.386C64.548 19.822 64.686 19.252 64.686 18.676C64.686 17.956 64.464 17.41 64.02 17.038C63.588 16.654 62.952 16.462 62.112 16.462C61.572 16.462 61.062 16.546 60.582 16.714C60.102 16.882 59.64 17.14 59.196 17.488C59.04 17.608 58.896 17.662 58.764 17.65C58.644 17.638 58.536 17.59 58.44 17.506C58.344 17.422 58.278 17.314 58.242 17.182C58.206 17.05 58.206 16.918 58.242 16.786C58.29 16.654 58.386 16.534 58.53 16.426C58.998 16.042 59.562 15.736 60.222 15.508C60.882 15.268 61.554 15.148 62.238 15.148C63.09 15.148 63.81 15.28 64.398 15.544C64.986 15.808 65.43 16.198 65.73 16.714C66.03 17.218 66.18 17.836 66.18 18.568C66.18 19.072 66.096 19.57 65.928 20.062C65.772 20.542 65.526 21.034 65.19 21.538C64.866 22.042 64.44 22.564 63.912 23.104L60.078 27.154V26.74H66.144C66.372 26.74 66.54 26.794 66.648 26.902C66.768 26.998 66.828 27.148 66.828 27.352C66.828 27.568 66.768 27.73 66.648 27.838C66.54 27.946 66.372 28 66.144 28H59.322Z" fill="#38485C"/>
<rect x="44" y="1" width="37" height="42" rx="9" stroke="#E6EBF0" stroke-width="2"/>
<rect x="87" y="1" width="37" height="42" rx="9" fill="white"/>
<path d="M105.256 28.162C104.56 28.162 103.858 28.06 103.15 27.856C102.454 27.652 101.848 27.352 101.332 26.956C101.176 26.848 101.074 26.728 101.026 26.596C100.978 26.452 100.966 26.32 100.99 26.2C101.026 26.068 101.092 25.96 101.188 25.876C101.284 25.78 101.398 25.726 101.53 25.714C101.674 25.702 101.83 25.75 101.998 25.858C102.526 26.206 103.054 26.458 103.582 26.614C104.11 26.77 104.656 26.848 105.22 26.848C105.832 26.848 106.348 26.758 106.768 26.578C107.188 26.398 107.506 26.134 107.722 25.786C107.938 25.426 108.046 24.988 108.046 24.472C108.046 23.728 107.8 23.164 107.308 22.78C106.816 22.396 106.102 22.204 105.166 22.204H103.888C103.66 22.204 103.486 22.15 103.366 22.042C103.246 21.922 103.186 21.76 103.186 21.556C103.186 21.364 103.246 21.214 103.366 21.106C103.486 20.986 103.66 20.926 103.888 20.926H105.04C105.592 20.926 106.06 20.83 106.444 20.638C106.84 20.446 107.146 20.176 107.362 19.828C107.578 19.468 107.686 19.036 107.686 18.532C107.686 17.86 107.47 17.35 107.038 17.002C106.606 16.642 105.982 16.462 105.166 16.462C104.626 16.462 104.116 16.54 103.636 16.696C103.156 16.852 102.682 17.116 102.214 17.488C102.07 17.596 101.926 17.65 101.782 17.65C101.65 17.638 101.536 17.596 101.44 17.524C101.356 17.44 101.29 17.332 101.242 17.2C101.206 17.068 101.212 16.936 101.26 16.804C101.308 16.66 101.41 16.528 101.566 16.408C102.046 16 102.61 15.688 103.258 15.472C103.906 15.256 104.572 15.148 105.256 15.148C106.072 15.148 106.768 15.28 107.344 15.544C107.932 15.796 108.382 16.168 108.694 16.66C109.006 17.14 109.162 17.722 109.162 18.406C109.162 18.922 109.06 19.396 108.856 19.828C108.664 20.248 108.388 20.608 108.028 20.908C107.68 21.208 107.254 21.424 106.75 21.556V21.358C107.626 21.502 108.304 21.862 108.784 22.438C109.276 23.002 109.522 23.716 109.522 24.58C109.522 25.312 109.348 25.948 109 26.488C108.664 27.016 108.178 27.43 107.542 27.73C106.906 28.018 106.144 28.162 105.256 28.162Z" fill="#38485C"/>
<rect x="87" y="1" width="37" height="42" rx="9" stroke="#E6EBF0" stroke-width="2"/>
<rect x="130" y="1" width="37" height="42" rx="9" fill="white"/>
<path d="M150.524 28.126C150.296 28.126 150.116 28.06 149.984 27.928C149.852 27.796 149.786 27.61 149.786 27.37V25.282H144.62C144.38 25.282 144.188 25.228 144.044 25.12C143.912 25 143.846 24.832 143.846 24.616C143.846 24.484 143.876 24.352 143.936 24.22C143.996 24.076 144.104 23.896 144.26 23.68L149.75 15.688C149.858 15.52 149.978 15.394 150.11 15.31C150.242 15.226 150.398 15.184 150.578 15.184C150.77 15.184 150.932 15.244 151.064 15.364C151.208 15.484 151.28 15.676 151.28 15.94V24.022H152.594C152.822 24.022 152.996 24.076 153.116 24.184C153.236 24.292 153.296 24.448 153.296 24.652C153.296 24.856 153.236 25.012 153.116 25.12C152.996 25.228 152.822 25.282 152.594 25.282H151.28V27.37C151.28 27.61 151.214 27.796 151.082 27.928C150.95 28.06 150.764 28.126 150.524 28.126ZM149.786 24.022V17.038H150.218L145.178 24.418V24.022H149.786Z" fill="#38485C"/>
<rect x="130" y="1" width="37" height="42" rx="9" stroke="#E6EBF0" stroke-width="2"/>
<rect x="173" y="1" width="37" height="42" rx="9" fill="white"/>
<path d="M191.67 28.162C190.986 28.162 190.302 28.06 189.618 27.856C188.946 27.652 188.334 27.334 187.782 26.902C187.638 26.806 187.542 26.692 187.494 26.56C187.446 26.428 187.44 26.296 187.476 26.164C187.512 26.032 187.578 25.924 187.674 25.84C187.77 25.744 187.884 25.69 188.016 25.678C188.16 25.666 188.31 25.714 188.466 25.822C188.958 26.17 189.468 26.428 189.996 26.596C190.524 26.764 191.076 26.848 191.652 26.848C192.24 26.848 192.744 26.74 193.164 26.524C193.596 26.296 193.92 25.984 194.136 25.588C194.364 25.18 194.478 24.706 194.478 24.166C194.478 23.338 194.238 22.66 193.758 22.132C193.278 21.604 192.618 21.34 191.778 21.34C191.262 21.34 190.788 21.436 190.356 21.628C189.924 21.82 189.528 22.126 189.168 22.546C189.084 22.642 188.982 22.726 188.862 22.798C188.754 22.858 188.628 22.888 188.484 22.888C188.28 22.888 188.118 22.834 187.998 22.726C187.89 22.606 187.836 22.45 187.836 22.258V15.994C187.836 15.766 187.896 15.598 188.016 15.49C188.136 15.37 188.304 15.31 188.52 15.31H194.64C194.868 15.31 195.036 15.364 195.144 15.472C195.264 15.58 195.324 15.736 195.324 15.94C195.324 16.144 195.264 16.3 195.144 16.408C195.036 16.516 194.868 16.57 194.64 16.57H189.294V21.628H188.898C189.21 21.124 189.642 20.74 190.194 20.476C190.746 20.2 191.364 20.062 192.048 20.062C192.852 20.062 193.542 20.23 194.118 20.566C194.706 20.902 195.156 21.376 195.468 21.988C195.792 22.588 195.954 23.29 195.954 24.094C195.954 24.886 195.78 25.588 195.432 26.2C195.084 26.812 194.592 27.292 193.956 27.64C193.32 27.988 192.558 28.162 191.67 28.162Z" fill="#38485C"/>
<rect x="173" y="1" width="37" height="42" rx="9" stroke="#E6EBF0" stroke-width="2"/>
<rect x="217" y="2" width="37" height="40" rx="8" fill="white"/>
<path d="M231.07 28.072C230.77 28.072 230.53 27.982 230.35 27.802C230.17 27.61 230.08 27.37 230.08 27.082C230.08 26.794 230.17 26.56 230.35 26.38C230.53 26.188 230.77 26.092 231.07 26.092C231.37 26.092 231.604 26.188 231.772 26.38C231.952 26.56 232.042 26.794 232.042 27.082C232.042 27.37 231.952 27.61 231.772 27.802C231.604 27.982 231.37 28.072 231.07 28.072ZM235.166 28.072C234.866 28.072 234.626 27.982 234.446 27.802C234.266 27.61 234.176 27.37 234.176 27.082C234.176 26.794 234.266 26.56 234.446 26.38C234.626 26.188 234.866 26.092 235.166 26.092C235.466 26.092 235.7 26.188 235.868 26.38C236.048 26.56 236.138 26.794 236.138 27.082C236.138 27.37 236.048 27.61 235.868 27.802C235.7 27.982 235.466 28.072 235.166 28.072ZM239.261 28.072C238.961 28.072 238.721 27.982 238.541 27.802C238.361 27.61 238.271 27.37 238.271 27.082C238.271 26.794 238.361 26.56 238.541 26.38C238.721 26.188 238.961 26.092 239.261 26.092C239.561 26.092 239.795 26.188 239.963 26.38C240.143 26.56 240.233 26.794 240.233 27.082C240.233 27.37 240.143 27.61 239.963 27.802C239.795 27.982 239.561 28.072 239.261 28.072Z" fill="#38485C"/>
<rect x="261" y="1" width="48" height="42" rx="9" fill="white"/>
<path d="M276.79 28C276.574 28 276.406 27.946 276.286 27.838C276.166 27.718 276.106 27.556 276.106 27.352C276.106 27.148 276.166 26.998 276.286 26.902C276.406 26.794 276.574 26.74 276.79 26.74H279.13V16.534H279.904L277.294 18.262C277.138 18.346 276.988 18.382 276.844 18.37C276.712 18.358 276.598 18.31 276.502 18.226C276.418 18.13 276.358 18.022 276.322 17.902C276.286 17.77 276.292 17.638 276.34 17.506C276.388 17.362 276.49 17.242 276.646 17.146L279.13 15.508C279.286 15.412 279.436 15.334 279.58 15.274C279.724 15.214 279.868 15.184 280.012 15.184C280.18 15.184 280.318 15.238 280.426 15.346C280.546 15.442 280.606 15.598 280.606 15.814V26.74H282.766C282.982 26.74 283.15 26.794 283.27 26.902C283.39 26.998 283.45 27.148 283.45 27.352C283.45 27.568 283.39 27.73 283.27 27.838C283.15 27.946 282.982 28 282.766 28H276.79ZM290.193 28.162C288.741 28.162 287.637 27.604 286.881 26.488C286.125 25.372 285.747 23.758 285.747 21.646C285.747 20.23 285.915 19.042 286.251 18.082C286.587 17.11 287.085 16.378 287.745 15.886C288.417 15.394 289.233 15.148 290.193 15.148C291.657 15.148 292.761 15.7 293.505 16.804C294.261 17.896 294.639 19.504 294.639 21.628C294.639 23.044 294.471 24.238 294.135 25.21C293.799 26.182 293.301 26.92 292.641 27.424C291.981 27.916 291.165 28.162 290.193 28.162ZM290.193 26.884C291.201 26.884 291.945 26.458 292.425 25.606C292.917 24.742 293.163 23.416 293.163 21.628C293.163 19.828 292.917 18.514 292.425 17.686C291.945 16.846 291.201 16.426 290.193 16.426C289.197 16.426 288.453 16.846 287.961 17.686C287.469 18.526 287.223 19.84 287.223 21.628C287.223 23.416 287.469 24.742 287.961 25.606C288.453 26.458 289.197 26.884 290.193 26.884Z" fill="#38485C"/>
<rect x="261" y="1" width="48" height="42" rx="9" stroke="#E6EBF0" stroke-width="2"/>
<rect x="315" y="1" width="122" height="42" rx="9" fill="white"/>
<path d="M333.67 28.162C333.106 28.162 332.554 28.114 332.014 28.018C331.474 27.922 330.97 27.784 330.502 27.604C330.046 27.424 329.632 27.196 329.26 26.92C329.116 26.812 329.014 26.692 328.954 26.56C328.906 26.416 328.894 26.278 328.918 26.146C328.954 26.002 329.014 25.882 329.098 25.786C329.194 25.69 329.308 25.636 329.44 25.624C329.572 25.612 329.716 25.654 329.872 25.75C330.412 26.134 330.988 26.416 331.6 26.596C332.212 26.764 332.902 26.848 333.67 26.848C334.75 26.848 335.548 26.65 336.064 26.254C336.592 25.846 336.856 25.312 336.856 24.652C336.856 24.112 336.664 23.692 336.28 23.392C335.908 23.08 335.278 22.834 334.39 22.654L332.518 22.276C331.39 22.036 330.544 21.646 329.98 21.106C329.428 20.554 329.152 19.822 329.152 18.91C329.152 18.346 329.266 17.836 329.494 17.38C329.722 16.912 330.04 16.516 330.448 16.192C330.856 15.856 331.342 15.598 331.906 15.418C332.47 15.238 333.094 15.148 333.778 15.148C334.534 15.148 335.236 15.256 335.884 15.472C336.544 15.676 337.138 15.988 337.666 16.408C337.798 16.516 337.888 16.642 337.936 16.786C337.984 16.918 337.99 17.05 337.954 17.182C337.918 17.302 337.852 17.404 337.756 17.488C337.672 17.572 337.558 17.62 337.414 17.632C337.282 17.644 337.132 17.596 336.964 17.488C336.484 17.128 335.986 16.87 335.47 16.714C334.954 16.546 334.384 16.462 333.76 16.462C333.124 16.462 332.572 16.558 332.104 16.75C331.648 16.942 331.288 17.224 331.024 17.596C330.772 17.956 330.646 18.376 330.646 18.856C330.646 19.432 330.82 19.888 331.168 20.224C331.528 20.56 332.11 20.806 332.914 20.962L334.786 21.358C335.998 21.61 336.892 21.994 337.468 22.51C338.056 23.014 338.35 23.704 338.35 24.58C338.35 25.108 338.242 25.594 338.026 26.038C337.81 26.482 337.498 26.866 337.09 27.19C336.682 27.502 336.19 27.742 335.614 27.91C335.038 28.078 334.39 28.162 333.67 28.162ZM341.162 28.09C340.922 28.09 340.742 28.024 340.622 27.892C340.502 27.748 340.442 27.55 340.442 27.298V19.936C340.442 19.684 340.502 19.492 340.622 19.36C340.742 19.228 340.922 19.162 341.162 19.162C341.39 19.162 341.57 19.228 341.702 19.36C341.834 19.492 341.9 19.684 341.9 19.936V27.298C341.9 27.55 341.834 27.748 341.702 27.892C341.582 28.024 341.402 28.09 341.162 28.09ZM341.162 17.146C340.862 17.146 340.628 17.068 340.46 16.912C340.292 16.744 340.208 16.522 340.208 16.246C340.208 15.958 340.292 15.742 340.46 15.598C340.628 15.442 340.862 15.364 341.162 15.364C341.474 15.364 341.708 15.442 341.864 15.598C342.032 15.742 342.116 15.958 342.116 16.246C342.116 16.522 342.032 16.744 341.864 16.912C341.708 17.068 341.474 17.146 341.162 17.146ZM348.496 31.402C347.86 31.402 347.236 31.324 346.624 31.168C346.024 31.024 345.478 30.79 344.986 30.466C344.842 30.382 344.746 30.28 344.698 30.16C344.662 30.04 344.656 29.92 344.68 29.8C344.704 29.692 344.758 29.59 344.842 29.494C344.926 29.41 345.022 29.356 345.13 29.332C345.25 29.308 345.37 29.326 345.49 29.386C346.018 29.71 346.522 29.932 347.002 30.052C347.482 30.172 347.956 30.232 348.424 30.232C349.276 30.232 349.918 30.004 350.35 29.548C350.794 29.092 351.016 28.432 351.016 27.568V25.534H351.196C351.016 26.23 350.632 26.782 350.044 27.19C349.468 27.598 348.79 27.802 348.01 27.802C347.206 27.802 346.51 27.622 345.922 27.262C345.334 26.89 344.878 26.374 344.554 25.714C344.242 25.054 344.086 24.292 344.086 23.428C344.086 22.78 344.176 22.192 344.356 21.664C344.536 21.124 344.794 20.668 345.13 20.296C345.478 19.912 345.892 19.618 346.372 19.414C346.864 19.198 347.41 19.09 348.01 19.09C348.802 19.09 349.486 19.294 350.062 19.702C350.638 20.098 351.01 20.638 351.178 21.322L350.998 21.538V19.864C350.998 19.624 351.058 19.444 351.178 19.324C351.31 19.192 351.49 19.126 351.718 19.126C351.958 19.126 352.138 19.192 352.258 19.324C352.378 19.444 352.438 19.624 352.438 19.864V27.37C352.438 28.702 352.102 29.704 351.43 30.376C350.77 31.06 349.792 31.402 348.496 31.402ZM348.28 26.614C348.844 26.614 349.33 26.488 349.738 26.236C350.146 25.972 350.458 25.6 350.674 25.12C350.902 24.64 351.016 24.076 351.016 23.428C351.016 22.456 350.77 21.688 350.278 21.124C349.786 20.548 349.12 20.26 348.28 20.26C347.728 20.26 347.248 20.392 346.84 20.656C346.432 20.908 346.114 21.274 345.886 21.754C345.67 22.222 345.562 22.78 345.562 23.428C345.562 24.4 345.808 25.174 346.3 25.75C346.792 26.326 347.452 26.614 348.28 26.614ZM358.269 28.162C357.561 28.162 356.973 28.036 356.505 27.784C356.049 27.52 355.701 27.13 355.461 26.614C355.233 26.098 355.119 25.456 355.119 24.688V19.864C355.119 19.612 355.179 19.426 355.299 19.306C355.431 19.186 355.611 19.126 355.839 19.126C356.079 19.126 356.259 19.186 356.379 19.306C356.511 19.426 356.577 19.612 356.577 19.864V24.67C356.577 25.438 356.733 26.014 357.045 26.398C357.369 26.77 357.873 26.956 358.557 26.956C359.301 26.956 359.907 26.704 360.375 26.2C360.843 25.696 361.077 25.036 361.077 24.22V19.864C361.077 19.612 361.137 19.426 361.257 19.306C361.389 19.186 361.575 19.126 361.815 19.126C362.043 19.126 362.217 19.186 362.337 19.306C362.469 19.426 362.535 19.612 362.535 19.864V27.37C362.535 27.874 362.301 28.126 361.833 28.126C361.605 28.126 361.425 28.06 361.293 27.928C361.173 27.796 361.113 27.61 361.113 27.37V25.732L361.347 25.984C361.107 26.692 360.711 27.232 360.159 27.604C359.619 27.976 358.989 28.162 358.269 28.162ZM365.983 28.09C365.743 28.09 365.563 28.024 365.443 27.892C365.323 27.748 365.263 27.55 365.263 27.298V19.936C365.263 19.684 365.323 19.492 365.443 19.36C365.563 19.228 365.743 19.162 365.983 19.162C366.211 19.162 366.391 19.228 366.523 19.36C366.655 19.492 366.721 19.684 366.721 19.936V27.298C366.721 27.55 366.655 27.748 366.523 27.892C366.403 28.024 366.223 28.09 365.983 28.09ZM365.983 17.146C365.683 17.146 365.449 17.068 365.281 16.912C365.113 16.744 365.029 16.522 365.029 16.246C365.029 15.958 365.113 15.742 365.281 15.598C365.449 15.442 365.683 15.364 365.983 15.364C366.295 15.364 366.529 15.442 366.685 15.598C366.853 15.742 366.937 15.958 366.937 16.246C366.937 16.522 366.853 16.744 366.685 16.912C366.529 17.068 366.295 17.146 365.983 17.146ZM373.388 28.162C372.464 28.162 371.666 27.982 370.994 27.622C370.334 27.25 369.818 26.728 369.446 26.056C369.086 25.384 368.906 24.58 368.906 23.644C368.906 22.732 369.086 21.94 369.446 21.268C369.806 20.584 370.298 20.05 370.922 19.666C371.558 19.282 372.29 19.09 373.118 19.09C373.706 19.09 374.234 19.192 374.702 19.396C375.17 19.588 375.566 19.87 375.89 20.242C376.226 20.614 376.478 21.064 376.646 21.592C376.826 22.12 376.916 22.714 376.916 23.374C376.916 23.566 376.862 23.71 376.754 23.806C376.646 23.89 376.49 23.932 376.286 23.932H370.022V22.978H375.944L375.656 23.212C375.656 22.564 375.56 22.018 375.368 21.574C375.176 21.118 374.894 20.77 374.522 20.53C374.162 20.29 373.706 20.17 373.154 20.17C372.542 20.17 372.02 20.314 371.588 20.602C371.168 20.878 370.85 21.268 370.634 21.772C370.418 22.264 370.31 22.84 370.31 23.5V23.608C370.31 24.712 370.574 25.552 371.102 26.128C371.642 26.704 372.404 26.992 373.388 26.992C373.796 26.992 374.198 26.938 374.594 26.83C375.002 26.722 375.398 26.542 375.782 26.29C375.95 26.182 376.1 26.134 376.232 26.146C376.376 26.146 376.49 26.188 376.574 26.272C376.658 26.344 376.712 26.44 376.736 26.56C376.772 26.668 376.76 26.788 376.7 26.92C376.652 27.052 376.55 27.166 376.394 27.262C375.998 27.55 375.53 27.772 374.99 27.928C374.45 28.084 373.916 28.162 373.388 28.162ZM379.746 28.126C379.506 28.126 379.326 28.06 379.206 27.928C379.086 27.796 379.026 27.61 379.026 27.37V19.864C379.026 19.624 379.086 19.444 379.206 19.324C379.326 19.192 379.5 19.126 379.728 19.126C379.956 19.126 380.13 19.192 380.25 19.324C380.382 19.444 380.448 19.624 380.448 19.864V21.412L380.25 21.196C380.502 20.5 380.91 19.978 381.474 19.63C382.05 19.27 382.71 19.09 383.454 19.09C384.15 19.09 384.726 19.216 385.182 19.468C385.65 19.72 385.998 20.104 386.226 20.62C386.454 21.124 386.568 21.766 386.568 22.546V27.37C386.568 27.61 386.502 27.796 386.37 27.928C386.25 28.06 386.076 28.126 385.848 28.126C385.608 28.126 385.422 28.06 385.29 27.928C385.17 27.796 385.11 27.61 385.11 27.37V22.636C385.11 21.82 384.948 21.226 384.624 20.854C384.312 20.47 383.808 20.278 383.112 20.278C382.308 20.278 381.666 20.53 381.186 21.034C380.718 21.526 380.484 22.186 380.484 23.014V27.37C380.484 27.874 380.238 28.126 379.746 28.126ZM392.767 28.162C392.083 28.162 391.507 28.042 391.039 27.802C390.583 27.55 390.241 27.19 390.013 26.722C389.785 26.242 389.671 25.66 389.671 24.976V20.386H388.465C388.261 20.386 388.105 20.338 387.997 20.242C387.889 20.134 387.835 19.99 387.835 19.81C387.835 19.63 387.889 19.492 387.997 19.396C388.105 19.3 388.261 19.252 388.465 19.252H389.671V17.182C389.671 16.942 389.737 16.762 389.869 16.642C390.001 16.51 390.181 16.444 390.409 16.444C390.637 16.444 390.811 16.51 390.931 16.642C391.063 16.762 391.129 16.942 391.129 17.182V19.252H393.397C393.601 19.252 393.757 19.3 393.865 19.396C393.973 19.492 394.027 19.63 394.027 19.81C394.027 19.99 393.973 20.134 393.865 20.242C393.757 20.338 393.601 20.386 393.397 20.386H391.129V24.832C391.129 25.516 391.273 26.038 391.561 26.398C391.849 26.746 392.317 26.92 392.965 26.92C393.193 26.92 393.385 26.896 393.541 26.848C393.709 26.8 393.847 26.776 393.955 26.776C394.063 26.764 394.153 26.8 394.225 26.884C394.297 26.968 394.333 27.112 394.333 27.316C394.333 27.46 394.303 27.592 394.243 27.712C394.195 27.832 394.105 27.916 393.973 27.964C393.829 28.012 393.637 28.054 393.397 28.09C393.169 28.138 392.959 28.162 392.767 28.162ZM399.404 28.162C398.48 28.162 397.682 27.982 397.01 27.622C396.35 27.25 395.834 26.728 395.462 26.056C395.102 25.384 394.922 24.58 394.922 23.644C394.922 22.732 395.102 21.94 395.462 21.268C395.822 20.584 396.314 20.05 396.938 19.666C397.574 19.282 398.306 19.09 399.134 19.09C399.722 19.09 400.25 19.192 400.718 19.396C401.186 19.588 401.582 19.87 401.906 20.242C402.242 20.614 402.494 21.064 402.662 21.592C402.842 22.12 402.932 22.714 402.932 23.374C402.932 23.566 402.878 23.71 402.77 23.806C402.662 23.89 402.506 23.932 402.302 23.932H396.038V22.978H401.96L401.672 23.212C401.672 22.564 401.576 22.018 401.384 21.574C401.192 21.118 400.91 20.77 400.538 20.53C400.178 20.29 399.722 20.17 399.17 20.17C398.558 20.17 398.036 20.314 397.604 20.602C397.184 20.878 396.866 21.268 396.65 21.772C396.434 22.264 396.326 22.84 396.326 23.5V23.608C396.326 24.712 396.59 25.552 397.118 26.128C397.658 26.704 398.42 26.992 399.404 26.992C399.812 26.992 400.214 26.938 400.61 26.83C401.018 26.722 401.414 26.542 401.798 26.29C401.966 26.182 402.116 26.134 402.248 26.146C402.392 26.146 402.506 26.188 402.59 26.272C402.674 26.344 402.728 26.44 402.752 26.56C402.788 26.668 402.776 26.788 402.716 26.92C402.668 27.052 402.566 27.166 402.41 27.262C402.014 27.55 401.546 27.772 401.006 27.928C400.466 28.084 399.932 28.162 399.404 28.162Z" fill="#38485C"/>
<g clip-path="url(#clip0_1592_1525)">
<path d="M417.29 25.88L421.17 22L417.29 18.12C416.9 17.73 416.9 17.1 417.29 16.71C417.68 16.32 418.31 16.32 418.7 16.71L423.29 21.3C423.68 21.69 423.68 22.32 423.29 22.71L418.7 27.3C418.31 27.69 417.68 27.69 417.29 27.3C416.91 26.91 416.9 26.27 417.29 25.88Z" fill="#38485C"/>
</g>
<rect x="315" y="1" width="122" height="42" rx="9" stroke="#E6EBF0" stroke-width="2"/>
<defs>
<clipPath id="clip0_1592_1525">
<rect width="24" height="24" fill="white" transform="translate(408 10)"/>
</clipPath>
</defs>
</svg>
