<svg xmlns="http://www.w3.org/2000/svg" width="340" height="257" viewBox="0 0 340 257">
  <g id="Grupo_18083" data-name="Grupo 18083" transform="translate(-885 -541)">
    <path id="Trazado_23757" data-name="Trazado 23757" d="M4,0H336a4,4,0,0,1,4,4V253a4,4,0,0,1-4,4H4a4,4,0,0,1-4-4V4A4,4,0,0,1,4,0Z" transform="translate(885 541)" fill="#f3f6f9"/>
    <g id="Trazado_23759" data-name="Trazado 23759" transform="translate(1054 650)" fill="#fff">
      <path d="M 73.99980163574219 75.49960327148438 L 0.5000025629997253 75.49960327148438 L 0.5000025629997253 8.000102043151855 C 0.5000025629997253 3.864531517028809 3.864532470703125 0.5000016093254089 8.000102996826172 0.5000016093254089 L 77.50030517578125 0.5000016093254089 L 77.50030517578125 72 C 77.50030517578125 73.92969512939453 75.92998504638672 75.49960327148438 73.99980163574219 75.49960327148438 Z" stroke="none"/>
      <path d="M 73.99980926513672 74.99960327148438 C 75.65428924560547 74.99960327148438 77.00030517578125 73.65399169921875 77.00030517578125 72 L 77.00030517578125 1.000001668930054 L 8.000097274780273 1.000001668930054 C 4.140230178833008 1.000001668930054 0.9999970197677612 4.14023494720459 0.9999970197677612 8.000102043151855 L 0.9999970197677612 74.99960327148438 L 73.99980926513672 74.99960327148438 M 73.99980926513672 75.99960327148438 L -2.967664840980433e-06 75.99960327148438 L -2.967664840980433e-06 8.000102043151855 C -2.967664840980433e-06 3.582001686096191 3.581996917724609 1.635742137295892e-06 8.000097274780273 1.635742137295892e-06 L 78.00030517578125 1.635742137295892e-06 L 78.00030517578125 72 C 78.00030517578125 74.20860290527344 76.20930480957031 75.99960327148438 73.99980926513672 75.99960327148438 Z" stroke="none" fill="#d1d8e0"/>
    </g>
    <path id="Trazado_23758" data-name="Trazado 23758" d="M1.438,5.578H4.992A6.85,6.85,0,0,1,8.52,6.27a2.407,2.407,0,0,1,1.1,2.2,2.771,2.771,0,0,1-.48,1.68,1.919,1.919,0,0,1-1.277.789v.078a2.516,2.516,0,0,1,1.566.906,2.948,2.948,0,0,1,.48,1.766,2.909,2.909,0,0,1-1.129,2.438A4.882,4.882,0,0,1,5.711,17H1.438ZM3.859,10.1H5.266a2.571,2.571,0,0,0,1.426-.3,1.137,1.137,0,0,0,.441-1.008,1.008,1.008,0,0,0-.48-.941,3.088,3.088,0,0,0-1.52-.285H3.859Zm0,1.922V15H5.438a2.341,2.341,0,0,0,1.477-.383,1.413,1.413,0,0,0,.477-1.172q0-1.422-2.031-1.422Zm10.071.594a3.666,3.666,0,0,0,.426,1.961,1.523,1.523,0,0,0,1.387.664,1.5,1.5,0,0,0,1.371-.66,3.719,3.719,0,0,0,.418-1.965,3.608,3.608,0,0,0-.422-1.945,1.525,1.525,0,0,0-1.383-.648,1.52,1.52,0,0,0-1.375.645A3.6,3.6,0,0,0,13.93,12.617Zm6.039,0a4.694,4.694,0,0,1-1.125,3.336,4.079,4.079,0,0,1-3.133,1.2,4.382,4.382,0,0,1-2.219-.551,3.665,3.665,0,0,1-1.477-1.582,5.316,5.316,0,0,1-.516-2.406,4.668,4.668,0,0,1,1.117-3.328A4.1,4.1,0,0,1,15.759,8.1a4.407,4.407,0,0,1,2.219.547,3.65,3.65,0,0,1,1.477,1.57A5.267,5.267,0,0,1,19.969,12.617ZM26.845,8.1a3.843,3.843,0,0,1,.8.07l-.18,2.234a2.73,2.73,0,0,0-.7-.078,2.527,2.527,0,0,0-1.777.586,2.118,2.118,0,0,0-.637,1.641V17H21.97V8.266h1.8l.352,1.469h.117a3.283,3.283,0,0,1,1.1-1.184A2.707,2.707,0,0,1,26.845,8.1Zm5.188,9.055a2.837,2.837,0,0,1-2.418-1.2,5.5,5.5,0,0,1-.879-3.312A5.5,5.5,0,0,1,29.631,9.3,2.905,2.905,0,0,1,32.1,8.1a2.849,2.849,0,0,1,2.516,1.281h.078a9.741,9.741,0,0,1-.18-1.742v-2.8H36.9V17H35.073l-.461-1.133h-.1A2.727,2.727,0,0,1,32.034,17.156Zm.836-1.9a1.615,1.615,0,0,0,1.34-.531,3.09,3.09,0,0,0,.465-1.8v-.258a3.571,3.571,0,0,0-.434-2.016,1.61,1.61,0,0,0-1.41-.609,1.4,1.4,0,0,0-1.238.676,3.605,3.605,0,0,0-.441,1.965,3.417,3.417,0,0,0,.445,1.934A1.455,1.455,0,0,0,32.869,15.258ZM43.042,9.8a1.511,1.511,0,0,0-1.187.48,2.224,2.224,0,0,0-.492,1.363h3.344a1.986,1.986,0,0,0-.461-1.363A1.561,1.561,0,0,0,43.042,9.8Zm.336,7.359a4.508,4.508,0,0,1-3.3-1.164,4.408,4.408,0,0,1-1.187-3.3,4.848,4.848,0,0,1,1.1-3.395,3.908,3.908,0,0,1,3.035-1.2,3.847,3.847,0,0,1,2.883,1.055A3.99,3.99,0,0,1,46.94,12.07v1.156H41.308a2.294,2.294,0,0,0,.6,1.586,2.117,2.117,0,0,0,1.578.57,6.551,6.551,0,0,0,1.492-.164,7.466,7.466,0,0,0,1.469-.523v1.844A5.6,5.6,0,0,1,45.112,17,8.423,8.423,0,0,1,43.378,17.156ZM53.785,8.1a3.843,3.843,0,0,1,.8.07l-.18,2.234a2.73,2.73,0,0,0-.7-.078,2.527,2.527,0,0,0-1.777.586,2.118,2.118,0,0,0-.637,1.641V17H48.91V8.266h1.8l.352,1.469h.117a3.283,3.283,0,0,1,1.1-1.184A2.707,2.707,0,0,1,53.785,8.1Zm11.486,0a3.843,3.843,0,0,1,.8.07l-.18,2.234a2.73,2.73,0,0,0-.7-.078,2.527,2.527,0,0,0-1.777.586,2.118,2.118,0,0,0-.637,1.641V17H60.4V8.266h1.8l.352,1.469h.117a3.283,3.283,0,0,1,1.1-1.184A2.707,2.707,0,0,1,65.271,8.1Zm6.04,1.7a1.511,1.511,0,0,0-1.187.48,2.224,2.224,0,0,0-.492,1.363h3.344a1.986,1.986,0,0,0-.461-1.363A1.561,1.561,0,0,0,71.311,9.8Zm.336,7.359a4.508,4.508,0,0,1-3.3-1.164,4.408,4.408,0,0,1-1.187-3.3A4.848,4.848,0,0,1,68.26,9.3,3.909,3.909,0,0,1,71.3,8.1a3.847,3.847,0,0,1,2.883,1.055,3.99,3.99,0,0,1,1.031,2.914v1.156H69.576a2.294,2.294,0,0,0,.6,1.586,2.117,2.117,0,0,0,1.578.57,6.551,6.551,0,0,0,1.492-.164,7.466,7.466,0,0,0,1.469-.523v1.844A5.6,5.6,0,0,1,73.381,17,8.423,8.423,0,0,1,71.647,17.156Zm8.3,0a2.837,2.837,0,0,1-2.418-1.2,5.5,5.5,0,0,1-.879-3.312A5.5,5.5,0,0,1,77.542,9.3a2.905,2.905,0,0,1,2.465-1.2,2.849,2.849,0,0,1,2.516,1.281H82.6a9.742,9.742,0,0,1-.18-1.742v-2.8h2.391V17H82.983l-.461-1.133h-.1A2.727,2.727,0,0,1,79.944,17.156Zm.836-1.9a1.615,1.615,0,0,0,1.34-.531,3.09,3.09,0,0,0,.465-1.8v-.258a3.571,3.571,0,0,0-.434-2.016,1.61,1.61,0,0,0-1.41-.609,1.4,1.4,0,0,0-1.238.676,3.605,3.605,0,0,0-.441,1.965,3.417,3.417,0,0,0,.445,1.934A1.455,1.455,0,0,0,80.78,15.258Zm8.454-2.641a3.666,3.666,0,0,0,.426,1.961,1.523,1.523,0,0,0,1.387.664,1.5,1.5,0,0,0,1.371-.66,3.719,3.719,0,0,0,.418-1.965,3.608,3.608,0,0,0-.422-1.945,1.794,1.794,0,0,0-2.758,0A3.6,3.6,0,0,0,89.234,12.617Zm6.039,0a4.694,4.694,0,0,1-1.125,3.336,4.079,4.079,0,0,1-3.133,1.2,4.382,4.382,0,0,1-2.219-.551,3.665,3.665,0,0,1-1.477-1.582,5.316,5.316,0,0,1-.516-2.406,4.668,4.668,0,0,1,1.117-3.328A4.1,4.1,0,0,1,91.062,8.1a4.407,4.407,0,0,1,2.219.547,3.65,3.65,0,0,1,1.477,1.57A5.267,5.267,0,0,1,95.273,12.617ZM105.336,17h-2.383V11.9a2.45,2.45,0,0,0-.336-1.418,1.222,1.222,0,0,0-1.07-.473,1.609,1.609,0,0,0-1.445.668,4.143,4.143,0,0,0-.445,2.215V17H97.274V8.266h1.82l.32,1.117h.133a2.518,2.518,0,0,1,1.1-.957,3.738,3.738,0,0,1,1.59-.324,3.055,3.055,0,0,1,2.313.824,3.308,3.308,0,0,1,.789,2.379Zm5.251.156a2.837,2.837,0,0,1-2.418-1.2,5.5,5.5,0,0,1-.879-3.312,5.5,5.5,0,0,1,.895-3.348,2.905,2.905,0,0,1,2.465-1.2,2.849,2.849,0,0,1,2.516,1.281h.078a9.742,9.742,0,0,1-.18-1.742v-2.8h2.391V17h-1.828l-.461-1.133h-.1A2.727,2.727,0,0,1,110.587,17.156Zm.836-1.9a1.615,1.615,0,0,0,1.34-.531,3.09,3.09,0,0,0,.465-1.8v-.258a3.571,3.571,0,0,0-.434-2.016,1.61,1.61,0,0,0-1.41-.609,1.4,1.4,0,0,0-1.238.676,3.605,3.605,0,0,0-.441,1.965,3.417,3.417,0,0,0,.445,1.934A1.455,1.455,0,0,0,111.423,15.258ZM121.6,9.8a1.511,1.511,0,0,0-1.187.48,2.224,2.224,0,0,0-.492,1.363h3.344a1.986,1.986,0,0,0-.461-1.363A1.561,1.561,0,0,0,121.6,9.8Zm.336,7.359a4.508,4.508,0,0,1-3.3-1.164,4.408,4.408,0,0,1-1.187-3.3,4.848,4.848,0,0,1,1.1-3.395,3.909,3.909,0,0,1,3.035-1.2,3.847,3.847,0,0,1,2.883,1.055,3.99,3.99,0,0,1,1.031,2.914v1.156h-5.633a2.294,2.294,0,0,0,.6,1.586,2.117,2.117,0,0,0,1.578.57,6.551,6.551,0,0,0,1.492-.164A7.466,7.466,0,0,0,125,14.7v1.844a5.6,5.6,0,0,1-1.336.465A8.423,8.423,0,0,1,121.932,17.156ZM133.01,17l-.461-1.187h-.062a3.519,3.519,0,0,1-1.238,1.051,4,4,0,0,1-1.66.293,2.684,2.684,0,0,1-1.98-.719,2.76,2.76,0,0,1-.723-2.047,2.3,2.3,0,0,1,.973-2.051,5.636,5.636,0,0,1,2.934-.73l1.516-.047V11.18a1.188,1.188,0,0,0-1.359-1.328,6.2,6.2,0,0,0-2.461.633L127.7,8.875a7.1,7.1,0,0,1,3.344-.789,4.165,4.165,0,0,1,2.7.766,2.83,2.83,0,0,1,.938,2.328V17Zm-.7-4.047-.922.031a2.952,2.952,0,0,0-1.547.375,1.178,1.178,0,0,0-.508,1.047q0,1.008,1.156,1.008a1.831,1.831,0,0,0,1.324-.477,1.674,1.674,0,0,0,.5-1.266Zm7.618,4.2a2.837,2.837,0,0,1-2.418-1.2,5.5,5.5,0,0,1-.879-3.312,5.5,5.5,0,0,1,.895-3.348,2.905,2.905,0,0,1,2.465-1.2A2.849,2.849,0,0,1,142.5,9.383h.078a9.741,9.741,0,0,1-.18-1.742v-2.8h2.391V17h-1.828l-.461-1.133h-.1A2.727,2.727,0,0,1,139.925,17.156Zm.836-1.9a1.615,1.615,0,0,0,1.34-.531,3.09,3.09,0,0,0,.465-1.8v-.258a3.571,3.571,0,0,0-.434-2.016,1.61,1.61,0,0,0-1.41-.609,1.4,1.4,0,0,0-1.238.676,3.605,3.605,0,0,0-.441,1.965,3.417,3.417,0,0,0,.445,1.934A1.455,1.455,0,0,0,140.761,15.258Zm8.454-2.641a3.666,3.666,0,0,0,.426,1.961,1.523,1.523,0,0,0,1.387.664,1.5,1.5,0,0,0,1.371-.66,3.719,3.719,0,0,0,.418-1.965,3.608,3.608,0,0,0-.422-1.945,1.794,1.794,0,0,0-2.758,0A3.6,3.6,0,0,0,149.215,12.617Zm6.039,0a4.694,4.694,0,0,1-1.125,3.336,4.079,4.079,0,0,1-3.133,1.2,4.382,4.382,0,0,1-2.219-.551,3.665,3.665,0,0,1-1.477-1.582,5.316,5.316,0,0,1-.516-2.406A4.668,4.668,0,0,1,147.9,9.289,4.1,4.1,0,0,1,151.043,8.1a4.407,4.407,0,0,1,2.219.547,3.65,3.65,0,0,1,1.477,1.57A5.267,5.267,0,0,1,155.254,12.617Zm1.665,3.266a1.31,1.31,0,0,1,.352-.992,1.426,1.426,0,0,1,1.023-.336,1.385,1.385,0,0,1,1,.344,1.518,1.518,0,0,1,0,1.957,1.36,1.36,0,0,1-1,.355,1.4,1.4,0,0,1-1.016-.348A1.3,1.3,0,0,1,156.919,15.883Zm0-6.453a1.31,1.31,0,0,1,.352-.992,1.426,1.426,0,0,1,1.023-.336,1.385,1.385,0,0,1,1,.344,1.306,1.306,0,0,1,.355.984,1.293,1.293,0,0,1-.363.98,1.381,1.381,0,0,1-1,.348,1.411,1.411,0,0,1-1.016-.344A1.3,1.3,0,0,1,156.919,9.43Z" transform="translate(963 742)" fill="#505e70"/>
    <g id="Trazado_23760" data-name="Trazado 23760" transform="translate(978 575)" fill="none">
      <path d="M4,0H150a4,4,0,0,1,4,4V147a4,4,0,0,1-4,4H4a4,4,0,0,1-4-4V4A4,4,0,0,1,4,0Z" stroke="none"/>
      <path d="M 4 1 C 2.345794677734375 1 1 2.345794677734375 1 4 L 1 147 C 1 148.6542053222656 2.345794677734375 150 4 150 L 150 150 C 151.6542053222656 150 153 148.6542053222656 153 147 L 153 4 C 153 2.345794677734375 151.6542053222656 1 150 1 L 4 1 M 4 0 L 150 0 C 152.2091369628906 0 154 1.790863037109375 154 4 L 154 147 C 154 149.2091369628906 152.2091369628906 151 150 151 L 4 151 C 1.790863037109375 151 0 149.2091369628906 0 147 L 0 4 C 0 1.790863037109375 1.790863037109375 0 4 0 Z" stroke="none" fill="#d1d8e0"/>
    </g>
  </g>
</svg>
