<svg xmlns="http://www.w3.org/2000/svg" width="340" height="257" viewBox="0 0 340 257"><defs><style>.a{fill:#f3f6f9;}.b{fill:#fff;}.c{fill:#505e70;font-size:16px;font-family:OpenSans-Bold, Open Sans;letter-spacing:0.002em;font-weight:700;}.d{font-family:OpenSans-Regular, Open Sans;font-weight:400;}.e,.h{fill:none;}.e{stroke:#d1d8e0;}.f,.g{stroke:none;}.g{fill:#e6ebf0;}</style></defs><g transform="translate(-885 -822)"><g transform="translate(0 199)"><rect class="a" width="340" height="257" rx="4" transform="translate(885 623)"/><g class="b" transform="translate(1055 732)"><path class="f" d="M 72.99990081787109 76.49950408935547 L 0.5000022053718567 76.49950408935547 L 0.5000022053718567 4.000502109527588 C 0.5000022053718567 2.070322036743164 2.070322275161743 0.5000020265579224 4.000502109527588 0.5000020265579224 L 76.50040435791016 0.5000020265579224 L 76.50040435791016 72.99990081787109 C 76.50040435791016 74.92958831787109 74.93008422851563 76.49950408935547 72.99990081787109 76.49950408935547 Z"/><path class="g" d="M 72.99990081787109 75.99950408935547 C 74.65438079833984 75.99950408935547 76.00040435791016 74.65390014648438 76.00040435791016 72.99990844726563 L 76.00040435791016 0.9999964833259583 L 4.000502109527588 0.9999964833259583 C 2.346024513244629 0.9999964833259583 1.000002145767212 2.34601879119873 1.000002145767212 4.000496387481689 L 1.000002145767212 75.99950408935547 L 72.99990081787109 75.99950408935547 M 72.99990081787109 76.99950408935547 L 2.178955128329108e-06 76.99950408935547 L 2.178955128329108e-06 4.000496387481689 C 2.178955128329108e-06 1.790996432304382 1.791002154350281 -3.510877832013648e-06 4.000502109527588 -3.510877832013648e-06 L 77.00040435791016 -3.510877832013648e-06 L 77.00040435791016 72.99990844726563 C 77.00040435791016 75.20851135253906 75.20940399169922 76.99950408935547 72.99990081787109 76.99950408935547 Z"/></g><text class="c" transform="translate(962 824)"><tspan x="0" y="17">Border redondeado:</tspan><tspan class="d" y="17"> </tspan></text><g class="e" transform="translate(978 657)"><rect class="f" width="154" height="151" rx="4"/><rect class="h" x="0.5" y="0.5" width="153" height="150" rx="3.5"/></g></g></g></svg>