<?xml version="1.0" encoding="utf-8"?>
<!-- Generator: Adobe Illustrator 25.0.0, SVG Export Plug-In . SVG Version: 6.00 Build 0)  -->
<svg version="1.1" xmlns="http://www.w3.org/2000/svg" xmlns:xlink="http://www.w3.org/1999/xlink" x="0px" y="0px"
	 viewBox="0 0 298.47 293.14" style="enable-background:new 0 0 298.47 293.14;" xml:space="preserve">
<style type="text/css">
	.st0{fill:#383838;}
	.st1{fill:#38485C;}
	.st2{fill:#FFFFFF;}
	.st3{fill:none;stroke:#383838;stroke-miterlimit:10;}
	.st4{fill:none;stroke:#383838;stroke-width:3;stroke-miterlimit:10;}
	.st5{fill:#FFFFFF;stroke:#383838;stroke-miterlimit:10;}
</style>
<g id="Capa_1">
	<g>
		<path class="st1" d="M240.52,257.49l-16.05-90.63c-0.01-0.06-0.03-0.12-0.04-0.17c-0.09-0.48-0.21-0.96-0.31-1.44
			c-5.13-25.09-25.16-45.23-50.66-48.34c-1.34-0.16-2.68-0.28-4.02-0.34c0.11-0.05-13.96-0.07-28.01-0.07
			c-14.01,0-27.99,0.02-27.88,0.07c-1.34,0.06-2.68,0.18-4.02,0.34c-4.42,0.54-8.68,1.62-12.74,3.09c-0.44,0.16-0.89,0.29-1.32,0.46
			c-0.18,0.07-0.35,0.16-0.53,0.23c-18.84,7.59-33.02,24.71-37.52,45.21l-5.97,27.21c-0.59,2.71-0.19,5.37,0.93,7.63
			c1.88,3.8,5.78,6.49,10.43,6.49h3.35c2.3,0,4.01-0.69,5.32-1.86c2.01-1.81,3.48-8.28,3.48-8.28l5.07-17.71
			c0.54-4.12,4.47-6.72,8.3-5.93c5.66,5.66,6.84,30.98,6.84,30.98c0.33,6.53-0.67,30.86-2.2,61.22c-0.12,2.39,1.78,4.39,4.17,4.39
			h87.2c3.21,0,5.76-2.69,5.6-5.9c-1.49-29.66-2.45-53.3-2.13-59.72c0,0,3.28-19.88,5.13-30.39c0.33-0.17,0.67-0.26,1-0.38
			c0.51-0.19,1.08-0.29,1.7-0.32c4.01-0.19,7.45,2.87,8.21,6.81l15.57,80.88c0.95,4.95,5.11,8.85,10.14,9.02
			C236.54,270.27,241.69,264.09,240.52,257.49z"/>
		<path class="st1" d="M140.19,106.64c28.9,3.64,53.2-20.66,49.56-49.56c-2.48-19.69-18.38-35.6-38.07-38.08
			c-28.9-3.65-53.21,20.66-49.57,49.56C104.6,88.26,120.5,104.16,140.19,106.64z"/>
	</g>
</g>
<g id="Capa_2">
</g>
<g id="Capa_3">
</g>
<g id="Capa_4">
</g>
<g id="Capa_5">
</g>
</svg>
