<svg xmlns="http://www.w3.org/2000/svg" xmlns:xlink="http://www.w3.org/1999/xlink" width="340" height="170" viewBox="0 0 340 170">
  <defs>
    <clipPath id="clip-path">
      <path id="Rectángulo_6543" data-name="Rectángulo 6543" d="M8,0H332a8,8,0,0,1,8,8V170a0,0,0,0,1,0,0H0a0,0,0,0,1,0,0V8A8,8,0,0,1,8,0Z" transform="translate(476 173)" fill="#f3f3f3"/>
    </clipPath>
  </defs>
  <g id="Enmascarar_grupo_48" data-name="Enmascarar grupo 48" transform="translate(-476 -173)" clip-path="url(#clip-path)">
    <g id="Grupo_17752" data-name="Grupo 17752" transform="translate(-148 -240)">
      <path id="Rectángulo_6554" data-name="Rectángulo 6554" d="M8,0H332a8,8,0,0,1,8,8V170a0,0,0,0,1,0,0H0a0,0,0,0,1,0,0V8A8,8,0,0,1,8,0Z" transform="translate(624 413)" fill="#f3f6f9"/>
      <g id="Children_preparing_their_backpack-cuate_1_" data-name="Children preparing their backpack-cuate (1)" transform="translate(649 301.532)">
        <g id="freepik--Shadow--inject-65" transform="translate(-96.867 222.455)" opacity="0.3">
          <ellipse id="Elipse_2" data-name="Elipse 2" cx="241.371" cy="48.251" rx="241.371" ry="48.251" fill="#ebebeb"/>
        </g>
        <g id="freepik--school-supplies--inject-65" transform="translate(-85.842 210.277)" opacity="0.7">
          <path id="Trazado_328" data-name="Trazado 328" d="M137.94,414.321l53.6-10.031,23.517,14.894-52.691,13.405Z" transform="translate(-48.94 -399.398)" fill="#007bc7"/>
          <path id="Trazado_329" data-name="Trazado 329" d="M144.46,414.316,166.816,431.1l49.377-12.53L193.45,404.29s-14.582.85-15.251,1.006-7.241,2.343-7.241,2.343-9.051.9-9.664,1.061S144.46,414.316,144.46,414.316Z" transform="translate(-52.182 -399.398)" fill="#fff"/>
          <path id="Trazado_330" data-name="Trazado 330" d="M197.16,411q2.725,2.061,5.425,4.163l5.39,4.214,5.35,4.264q2.67,2.142,5.31,4.314-2.73-2.067-5.43-4.163l-5.385-4.244-5.35-4.259Q199.8,413.152,197.16,411Z" transform="translate(-78.383 -402.734)" fill="#dbdbdb"/>
          <path id="Trazado_331" data-name="Trazado 331" d="M154.75,419.186q2.59-.98,5.194-1.906c1.74-.623,3.48-1.222,5.229-1.82l1.312-.427c.226-.07.437-.141.674-.2s.458-.07.684-.111l2.74-.392q2.745-.382,5.491-.729-2.73.5-5.456.92l-2.73.427c-.226.04-.458.065-.679.111s-.432.136-.649.2l-1.312.443-5.239,1.76Q157.39,418.327,154.75,419.186Z" transform="translate(-57.298 -404.026)" fill="#dbdbdb"/>
          <path id="Trazado_332" data-name="Trazado 332" d="M157.86,421.336q2.584-1.006,5.194-1.906c1.74-.623,3.48-1.222,5.229-1.82l1.312-.427c.226-.07.437-.141.674-.2a6.866,6.866,0,0,1,.684-.106l2.74-.4q2.745-.382,5.491-.729-2.73.5-5.456.92L171,417.1c-.221.04-.458.065-.679.111s-.432.136-.649.2l-1.312.443-5.239,1.76Q160.495,420.5,157.86,421.336Z" transform="translate(-58.844 -405.095)" fill="#dbdbdb"/>
          <path id="Trazado_333" data-name="Trazado 333" d="M161,423.551q2.514-.955,5.079-1.865c1.695-.608,3.4-1.192,5.1-1.78l1.287-.422a8.343,8.343,0,0,1,1.317-.357c.9-.141,1.785-.277,2.675-.4q2.685-.377,5.365-.689-2.66.453-5.335.88l-2.665.432a7.868,7.868,0,0,0-1.282.362l-1.282.432-5.124,1.72Q163.559,422.731,161,423.551Z" transform="translate(-60.405 -406.234)" fill="#dbdbdb"/>
          <path id="Trazado_334" data-name="Trazado 334" d="M164.08,425.756q2.514-.94,5-1.835c1.674-.6,3.354-1.177,5.028-1.755.85-.277,1.669-.583,2.559-.8s1.755-.276,2.635-.4q2.64-.362,5.29-.674-2.625.452-5.26.875c-.875.146-1.755.272-2.625.427a20.025,20.025,0,0,0-2.514.8l-5.028,1.7Q166.624,424.941,164.08,425.756Z" transform="translate(-61.936 -407.352)" fill="#dbdbdb"/>
          <path id="Trazado_335" data-name="Trazado 335" d="M167.19,427.916q2.514-.935,4.988-1.83c1.664-.6,3.339-1.172,5.028-1.75.845-.277,1.664-.573,2.549-.8.88-.146,1.75-.276,2.63-.4,1.75-.246,3.52-.468,5.265-.674q-2.62.453-5.234.87c-.875.146-1.755.271-2.62.432a20.593,20.593,0,0,0-2.514.81l-5.028,1.689Q169.719,427.106,167.19,427.916Z" transform="translate(-63.482 -408.431)" fill="#dbdbdb"/>
          <path id="Trazado_336" data-name="Trazado 336" d="M170.3,430.076q2.484-.935,4.973-1.825c1.659-.6,3.329-1.167,5-1.745.84-.277,1.659-.568,2.514-.8.88-.151,1.75-.277,2.625-.4q2.62-.372,5.249-.674-2.61.453-5.219.87c-.87.146-1.75.272-2.61.427-.825.231-1.664.543-2.514.815l-5.028,1.69Q172.824,429.271,170.3,430.076Z" transform="translate(-65.029 -409.51)" fill="#dbdbdb"/>
          <path id="Trazado_337" data-name="Trazado 337" d="M173.42,432.265q2.444-.92,4.9-1.8c1.639-.593,3.288-1.156,4.933-1.725.825-.282,1.644-.558,2.514-.8a20.213,20.213,0,0,1,2.59-.417q2.59-.357,5.184-.659c-1.72.3-3.434.583-5.154.865-.855.146-1.735.251-2.564.437s-1.644.543-2.469.815l-4.953,1.664C176.729,431.194,175.074,431.732,173.42,432.265Z" transform="translate(-66.58 -410.619)" fill="#dbdbdb"/>
          <path id="Trazado_338" data-name="Trazado 338" d="M176.53,434.415q2.444-.92,4.9-1.8c1.639-.593,3.288-1.151,4.933-1.725.83-.277,1.644-.553,2.514-.8a19.381,19.381,0,0,1,2.59-.417q2.59-.352,5.184-.659c-1.715.3-3.434.583-5.154.865-.855.146-1.735.251-2.564.438s-1.644.543-2.469.814l-4.953,1.664Q179.009,433.621,176.53,434.415Z" transform="translate(-68.126 -411.688)" fill="#dbdbdb"/>
          <path id="Trazado_339" data-name="Trazado 339" d="M179.06,436.691c1.654-.623,3.314-1.242,4.978-1.835s3.334-1.177,5-1.76q1.252-.432,2.514-.83a11.187,11.187,0,0,1,1.317-.241l1.312-.191q2.625-.372,5.26-.674c-1.745.307-3.485.593-5.229.875-.865.151-1.765.251-2.595.458s-1.674.563-2.514.84l-5.028,1.7Q181.584,435.877,179.06,436.691Z" transform="translate(-69.384 -412.757)" fill="#dbdbdb"/>
          <path id="Trazado_340" data-name="Trazado 340" d="M182.18,438.886q2.464-.94,4.958-1.845c1.654-.6,3.319-1.182,4.983-1.765.835-.292,1.669-.568,2.514-.835a9.456,9.456,0,0,1,1.317-.246l1.307-.2c1.745-.241,3.52-.468,5.249-.669-1.74.307-3.48.588-5.219.875l-1.3.206a9.335,9.335,0,0,0-1.282.256c-.835.267-1.664.563-2.514.84l-5.028,1.71Q184.694,438.072,182.18,438.886Z" transform="translate(-70.935 -413.836)" fill="#dbdbdb"/>
          <path id="Trazado_341" data-name="Trazado 341" d="M185.29,441.241q2.393-.935,4.8-1.835c1.6-.6,3.223-1.177,4.837-1.76q1.207-.432,2.429-.84c.206-.065.407-.136.629-.191s.427-.08.639-.116l1.272-.191q2.549-.362,5.1-.649c-1.689.3-3.379.578-5.073.86l-1.267.206c-.211.035-.422.065-.624.116s-.4.126-.6.191l-2.424.845-4.837,1.7C188.538,440.145,186.914,440.693,185.29,441.241Z" transform="translate(-72.481 -414.994)" fill="#dbdbdb"/>
          <path id="Trazado_342" data-name="Trazado 342" d="M188.4,443.42c1.624-.558,3.248-1.111,4.882-1.644s3.268-1.056,4.908-1.574c.82-.256,1.629-.5,2.479-.734l2.514-.5c1.684-.332,3.374-.654,5.063-.955-1.669.407-3.344.789-5.028,1.162l-2.514.543c-.815.211-1.639.5-2.459.729l-4.923,1.508Q190.874,442.7,188.4,443.42Z" transform="translate(-74.028 -416.162)" fill="#dbdbdb"/>
          <path id="Trazado_343" data-name="Trazado 343" d="M236.5,432.235q2.268-.89,4.586-1.644c.387-.126.774-.256,1.167-.367a9.143,9.143,0,0,1,1.2-.271l2.393-.458,4.787-.885,4.8-.85-4.767,1.006-4.777.96-2.388.468-.6.116c-.186.045-.382.106-.573.161l-1.167.357C239.612,431.3,238.059,431.788,236.5,432.235Z" transform="translate(-97.942 -411.066)" fill="#dbdbdb"/>
          <path id="Trazado_344" data-name="Trazado 344" d="M233.52,429.9c1.509-.5,3.017-.95,4.525-1.363.759-.206,1.508-.432,2.3-.578l2.313-.458,4.626-.89c1.544-.3,3.092-.568,4.641-.855-1.539.332-3.072.684-4.611,1.006l-4.616.966-2.313.468c-.754.161-1.508.377-2.278.568C236.577,429.149,235.054,429.526,233.52,429.9Z" transform="translate(-96.46 -410.072)" fill="#dbdbdb"/>
          <path id="Trazado_345" data-name="Trazado 345" d="M230.64,427.806c1.508-.478,2.982-.935,4.485-1.343.759-.206,1.508-.422,2.273-.593l2.313-.392,4.621-.749c1.539-.251,3.087-.473,4.631-.709-1.539.287-3.067.588-4.606.86l-4.606.82-2.3.407-2.263.573C233.677,427.082,232.164,427.454,230.64,427.806Z" transform="translate(-95.028 -409.207)" fill="#dbdbdb"/>
          <path id="Trazado_346" data-name="Trazado 346" d="M228.16,426.116c1.438-.629,2.911-1.177,4.4-1.68a6,6,0,0,1,1.156-.292l1.167-.171,2.333-.322q4.661-.634,9.337-1.192c-3.1.5-6.2.95-9.307,1.408l-2.328.337-1.161.171a6.809,6.809,0,0,0-1.121.292C231.147,425.145,229.668,425.668,228.16,426.116Z" transform="translate(-93.795 -408.431)" fill="#dbdbdb"/>
          <path id="Trazado_347" data-name="Trazado 347" d="M191.51,446.54q2.484-.784,4.978-1.508c1.659-.5,3.334-.975,5-1.458.84-.241,1.664-.473,2.514-.684l2.514-.573c1.695-.367,3.394-.729,5.1-1.066q-2.514.659-5.053,1.267l-2.514.6c-.83.211-1.664.468-2.514.694l-5.028,1.4C194.864,445.65,193.189,446.1,191.51,446.54Z" transform="translate(-75.574 -417.773)" fill="#dbdbdb"/>
          <path id="Trazado_348" data-name="Trazado 348" d="M238.67,434.427q2.514-.734,5.028-1.423c1.674-.468,3.364-.905,5.028-1.358.845-.221,1.684-.432,2.544-.634l2.559-.5q2.564-.5,5.134-.96c-1.695.407-3.394.789-5.094,1.167l-2.554.543c-.84.2-1.684.432-2.514.644l-5.063,1.292Q241.209,433.8,238.67,434.427Z" transform="translate(-99.021 -411.956)" fill="#dbdbdb"/>
          <path id="Trazado_349" data-name="Trazado 349" d="M205.17,410.261l9.715,7.864s3.253-1.353,4.425-1.634c1.508-.352,5.772-1.031,5.772-1.031l-9.634-7.08s-4.852.357-5.958.533a41.27,41.27,0,0,0-4.319,1.348Z" transform="translate(-82.365 -401.431)" fill="#dbdbdb"/>
          <path id="Trazado_350" data-name="Trazado 350" d="M247,420.88c1.162-.246,2.338-.412,3.52-.563s2.363-.266,3.555-.317c-1.167.246-2.343.412-3.52.563S248.182,420.83,247,420.88Z" transform="translate(-103.162 -407.208)" fill="#dbdbdb"/>
          <path id="Trazado_351" data-name="Trazado 351" d="M244.14,418.6c1.156-.246,2.333-.412,3.52-.563s2.363-.267,3.555-.317c-1.167.246-2.338.412-3.52.563S245.337,418.55,244.14,418.6Z" transform="translate(-101.74 -406.075)" fill="#dbdbdb"/>
          <path id="Trazado_352" data-name="Trazado 352" d="M241.3,416.32c1.162-.241,2.338-.412,3.52-.563s2.368-.266,3.56-.317c-1.167.246-2.343.412-3.52.563S242.5,416.27,241.3,416.32Z" transform="translate(-100.328 -404.941)" fill="#dbdbdb"/>
          <path id="Trazado_353" data-name="Trazado 353" d="M238.46,414.04c1.162-.241,2.338-.412,3.52-.563s2.363-.266,3.555-.317c-1.167.246-2.338.412-3.52.563S239.657,413.99,238.46,414.04Z" transform="translate(-98.916 -403.807)" fill="#dbdbdb"/>
          <path id="Trazado_354" data-name="Trazado 354" d="M235.22,412.03c1.156-.246,2.333-.412,3.52-.563s2.363-.267,3.555-.317c-1.167.246-2.338.412-3.52.563S236.417,411.98,235.22,412.03Z" transform="translate(-97.305 -402.808)" fill="#dbdbdb"/>
          <path id="Trazado_355" data-name="Trazado 355" d="M232.2,409.75c1.162-.241,2.338-.412,3.52-.563s2.363-.266,3.555-.317c-1.167.246-2.338.412-3.52.563S233.4,409.7,232.2,409.75Z" transform="translate(-95.804 -401.675)" fill="#dbdbdb"/>
          <path id="Trazado_356" data-name="Trazado 356" d="M228.89,407.515c1.162-.241,2.338-.412,3.52-.563s2.363-.267,3.555-.312c-1.167.241-2.343.412-3.52.563S230.087,407.465,228.89,407.515Z" transform="translate(-94.158 -400.566)" fill="#dbdbdb"/>
          <path id="Trazado_357" data-name="Trazado 357" d="M283.967,412.418s3.917.04,3.676-3.253-4.1-2.554-4.1-2.554Z" transform="translate(-121.329 -400.516)" fill="#dd6a57"/>
          <path id="Trazado_358" data-name="Trazado 358" d="M229.3,409.094l.427,5.808,27.429-2.444-.427-5.808Z" transform="translate(-94.362 -400.571)" fill="#455a64"/>
          <path id="Trazado_359" data-name="Trazado 359" d="M281.9,405.756l.5,6.778,1.091-.1-.5-6.778Z" transform="translate(-120.514 -400.079)" fill="#263238"/>
          <path id="Trazado_360" data-name="Trazado 360" d="M279.5,405.966l.5,6.783,1.086-.1-.5-6.778Z" transform="translate(-119.32 -400.183)" fill="#263238"/>
          <path id="Trazado_361" data-name="Trazado 361" d="M225.054,411.51l-3.228,2.484-1.066.815,1.177.629,3.545,1.886.639-.649s-.714-.5-.724-.5l.639-.649s-.714-.5-.724-.5l.639-.634-.724-.528.639-.633-.724-.528.639-.639Z" transform="translate(-90.116 -402.987)" fill="#fff"/>
          <path id="Trazado_362" data-name="Trazado 362" d="M221.826,416.45l-1.066.815,1.172.628Z" transform="translate(-90.116 -405.443)" fill="#37474f"/>
          <path id="Trazado_363" data-name="Trazado 363" d="M232.88,412.4c1.881-.3,3.761-.5,5.647-.744s3.771-.382,5.662-.573,3.776-.317,5.672-.437,3.786-.226,5.687-.261c-1.876.3-3.761.5-5.647.744s-3.771.382-5.657.573-3.781.317-5.677.432S234.781,412.356,232.88,412.4Z" transform="translate(-96.142 -402.425)" fill="#263238"/>
          <path id="Trazado_364" data-name="Trazado 364" d="M233.34,417.581c1.876-.3,3.756-.528,5.642-.744s3.776-.382,5.662-.578,3.781-.317,5.672-.432,3.786-.226,5.687-.267c-1.876.3-3.761.528-5.642.744s-3.776.382-5.662.578-3.781.312-5.672.432S235.236,417.541,233.34,417.581Z" transform="translate(-96.371 -405.001)" fill="#263238"/>
          <rect id="Rectángulo_6555" data-name="Rectángulo 6555" width="54.099" height="7.824" transform="translate(320.841 15.391)" fill="#007bc7"/>
          <rect id="Rectángulo_6556" data-name="Rectángulo 6556" width="5.285" height="7.824" transform="translate(324.205 15.391)" fill="#37474f"/>
          <rect id="Rectángulo_6557" data-name="Rectángulo 6557" width="2.207" height="7.824" transform="translate(331.45 15.391)" fill="#37474f"/>
          <rect id="Rectángulo_6558" data-name="Rectángulo 6558" width="5.285" height="7.824" transform="translate(363.284 15.391)" fill="#37474f"/>
          <rect id="Rectángulo_6559" data-name="Rectángulo 6559" width="37.526" height="7.965" transform="translate(317.698 7.427)" fill="#263238"/>
          <rect id="Rectángulo_6560" data-name="Rectángulo 6560" width="16.191" height="7.965" transform="translate(355.219 7.427)" fill="#263238"/>
          <rect id="Rectángulo_6561" data-name="Rectángulo 6561" width="37.526" height="6.31" transform="translate(317.698 8.251)" fill="#fff"/>
          <path id="Trazado_365" data-name="Trazado 365" d="M319.17,413.426q4.38-.07,8.769-.1l8.774-.03,8.774.03q4.39,0,8.774.1-4.38.075-8.774.1l-8.774.025-8.774-.03Q323.56,413.5,319.17,413.426Z" transform="translate(0.957 -403.877)" fill="#dbdbdb"/>
          <path id="Trazado_366" data-name="Trazado 366" d="M319.17,415.876q4.38-.075,8.769-.1l8.774-.025,8.774.025q4.39.03,8.774.1-4.38.07-8.774.1l-8.774.025-8.774-.025Q323.56,415.951,319.17,415.876Z" transform="translate(0.957 -405.095)" fill="#dbdbdb"/>
          <path id="Trazado_367" data-name="Trazado 367" d="M319.17,418.356q4.38-.07,8.769-.1l8.774-.03,8.774.03q4.39,0,8.774.1-4.38.065-8.774.1l-8.774.03-8.774-.03Q323.56,418.431,319.17,418.356Z" transform="translate(0.957 -406.328)" fill="#dbdbdb"/>
          <path id="Trazado_368" data-name="Trazado 368" d="M319.17,420.816q4.38-.065,8.769-.1l8.774-.03,8.774.03q4.39,0,8.774.1-4.38.065-8.774.1l-8.774.03-8.774-.03Q323.56,420.891,319.17,420.816Z" transform="translate(0.957 -407.551)" fill="#dbdbdb"/>
          <rect id="Rectángulo_6562" data-name="Rectángulo 6562" width="49.438" height="7.457" transform="translate(321.047)" fill="#c7c7c7"/>
          <rect id="Rectángulo_6563" data-name="Rectángulo 6563" width="19.017" height="4.475" transform="translate(325.698 1.524)" fill="#fff"/>
        </g>
        <g id="freepik--Shadow--inject-65-2" data-name="freepik--Shadow--inject-65" transform="translate(37.81 252.785)">
          <ellipse id="Elipse_2-2" data-name="Elipse 2" cx="106.694" cy="20.284" rx="106.694" ry="20.284" fill="#ebebeb"/>
        </g>
        <g id="freepik--Character--inject-65" transform="translate(44.989 124.468)">
          <path id="Trazado_216" data-name="Trazado 216" d="M74.219,344.373c-.1,1.634,4.581,2.011,6.507.92a44.485,44.485,0,0,0,4.42-3.771c4.6-4.224,10.957-10.393,10.957-10.393l4.832,2.067,19.716,7.19,13.234-25.553s-11.414-4.581-22.26-8.674c-1.669-.629-3.314-1.237-4.913-1.825l-.3-.111c-7.276-2.645-13.3-4.636-13.908-4.194C90.872,301.211,74.309,342.724,74.219,344.373Z" transform="translate(-63.09 -211.722)" fill="#d3766a"/>
          <path id="Trazado_217" data-name="Trazado 217" d="M111.427,306.073c-2.132,5.491-7.935,20.44-10.559,27.082l-4.732-2.011s-6.366,6.16-10.941,10.383a45.088,45.088,0,0,1-4.42,3.771c-1.926,1.091-6.6.709-6.507-.925s16.654-43.162,18.288-44.344c.6-.442,6.632,1.549,13.908,4.194l.3.111C108.264,304.9,109.833,305.475,111.427,306.073Z" transform="translate(-63.115 -211.722)" fill="#ebebeb"/>
          <path id="Trazado_218" data-name="Trazado 218" d="M73.279,344.7c.1-1.669,16.975-43.876,18.635-45.078.629-.463,6.919,1.639,14.446,4.39l-10.8,27.243s-13.692,13.275-15.653,14.4S73.183,346.379,73.279,344.7Z" transform="translate(-62.622 -211.521)" fill="#007bc7"/>
          <path id="Trazado_219" data-name="Trazado 219" d="M76.991,347.213c3.017-7,14.451-35.545,16.89-42.7,0-.055,0-.07-.045,0-3.128,6.879-14.346,35.509-16.96,42.67C76.82,347.319,76.93,347.359,76.991,347.213Z" transform="translate(-64.404 -213.959)" fill="#263238"/>
          <path id="Trazado_220" data-name="Trazado 220" d="M88.442,379.075a6.12,6.12,0,0,0-.035-4.923,5.938,5.938,0,0,0-3.148-3.092c-.04,0-.075.065-.03.085a7.08,7.08,0,0,1,3.123,7.93.05.05,0,0,0,.09,0Z" transform="translate(-68.554 -247.068)" fill="#263238"/>
          <path id="Trazado_221" data-name="Trazado 221" d="M113.636,358.375c1.172-2.816,1.483-6.5-.131-9.187-.06-.1-.206,0-.2.091a42.127,42.127,0,0,1-.04,9.005.191.191,0,0,0,.367.091Z" transform="translate(-82.505 -236.173)" fill="#263238"/>
          <path id="Trazado_222" data-name="Trazado 222" d="M110.206,362.045c1.172-2.816,1.508-6.5-.126-9.187-.06-.1-.211,0-.2.091a42.126,42.126,0,0,1-.04,9.006.191.191,0,0,0,.367.09Z" transform="translate(-80.8 -237.998)" fill="#263238"/>
          <path id="Trazado_223" data-name="Trazado 223" d="M106.776,365.715c1.172-2.816,1.508-6.5-.126-9.187-.065-.1-.211,0-.2.09a42.128,42.128,0,0,1-.04,9.006.191.191,0,0,0,.367.091Z" transform="translate(-79.094 -239.822)" fill="#263238"/>
          <path id="Trazado_224" data-name="Trazado 224" d="M103.346,369.385c1.172-2.816,1.508-6.5-.131-9.187-.06-.1-.206,0-.2.091a42.126,42.126,0,0,1-.04,9.006.191.191,0,0,0,.367.09Z" transform="translate(-77.389 -241.647)" fill="#263238"/>
          <path id="Trazado_225" data-name="Trazado 225" d="M117.551,309.95c1.262-3.178-3.681-5.144-4.943-1.961S116.289,313.138,117.551,309.95Z" transform="translate(-82.075 -214.905)" fill="#263238"/>
          <path id="Trazado_226" data-name="Trazado 226" d="M120.339,369.62c1.765-.955,1.322-3.228.442-4.606a16.01,16.01,0,0,0-6.215-5.466.075.075,0,0,0-.116.055c-.226,0-.5.151-.432.417.588,2.574.9,5.4,2.263,7.713C117.076,369.087,118.675,370.53,120.339,369.62Zm-4.631-5.878c-.317-1.262-.573-2.514-.94-3.771a46.538,46.538,0,0,1,3.555,3.273,16.972,16.972,0,0,1,1.508,1.8c.689,1.006,1.946,4.716-1.247,3.766C116.815,368.282,116.091,365.24,115.708,363.742Z" transform="translate(-82.873 -241.338)" fill="#263238"/>
          <path id="Trazado_227" data-name="Trazado 227" d="M116.374,342.59c-1.363,2.313-1.679,5.139-2.273,7.713-.06.266.206.437.432.417a.08.08,0,0,0,.116.055,16,16,0,0,0,6.22-5.456c.885-1.378,1.327-3.645-.432-4.606C118.773,339.8,117.174,341.218,116.374,342.59Zm2.3-1.066c3.193-.945,1.931,2.781,1.242,3.771a17.654,17.654,0,0,1-1.508,1.8c-1.1,1.187-2.353,2.2-3.56,3.263.367-1.242.624-2.514.95-3.766C116.183,345.084,116.907,342.047,118.672,341.524Z" transform="translate(-82.915 -231.837)" fill="#263238"/>
          <path id="Trazado_228" data-name="Trazado 228" d="M117.527,304.017l-2.942,7.417L95.74,315.778c3.806-9.237,6.627-15.633,7.341-16.151C103.71,299.165,110,301.292,117.527,304.017Z" transform="translate(-73.79 -211.522)" opacity="0.1"/>
          <path id="Trazado_229" data-name="Trazado 229" d="M149.83,340.086s36.45,8.256,62.059,6.864q2.66-.146,5.149-.437c9.051-1.071,12.6-18.177,9.051-23.633-3.645-5.6-16.729-12.988-23.758-17.7a9.583,9.583,0,0,1-3.188-4.365H173.367s-5.617,6.386-2.771,11.359a1.371,1.371,0,0,0,.161.246l-8.271-2.992Z" transform="translate(-100.683 -212.141)" fill="#263238"/>
          <path id="Trazado_230" data-name="Trazado 230" d="M166.163,338.024c1.946-4.445,4.093-8.794,6.079-13.219.035-.086.171-.04.136.045-1.866,4.46-3.58,8.975-5.531,13.405s-4.063,8.8-6.109,13.2c-.055.111-.236.055-.186-.06C162.437,346.939,164.227,342.479,166.163,338.024Z" transform="translate(-106.009 -224.048)" fill="#455a64"/>
          <path id="Trazado_231" data-name="Trazado 231" d="M53,361.155c-.1,1.634,4.581,2.011,6.507.925A45.257,45.257,0,0,0,63.93,358.3c4.6-4.219,10.951-10.393,10.951-10.393l4.832,2.067,19.716,7.19,13.234-25.553s-11.414-4.581-22.26-8.674c-1.669-.629-3.314-1.237-4.913-1.825l-.3-.111c-7.261-2.62-13.29-4.631-13.893-4.193C69.667,317.992,53.1,359.51,53,361.155Z" transform="translate(-52.54 -220.067)" fill="#d3766a"/>
          <path id="Trazado_232" data-name="Trazado 232" d="M90.222,322.853c-2.132,5.491-7.935,20.44-10.559,27.082l-4.732-2.011s-6.376,6.16-10.977,10.383a45.1,45.1,0,0,1-4.42,3.771c-1.926,1.091-6.6.709-6.507-.925s16.654-43.162,18.288-44.344c.6-.443,6.632,1.549,13.908,4.194l.3.111C87.05,321.681,88.618,322.255,90.222,322.853Z" transform="translate(-52.555 -220.065)" fill="#ebebeb"/>
          <path id="Trazado_233" data-name="Trazado 233" d="M52.089,361.485c.1-1.669,16.975-43.876,18.635-45.078.629-.463,6.919,1.639,14.446,4.39l-10.8,27.243S60.682,361.309,58.716,362.43,51.993,363.159,52.089,361.485Z" transform="translate(-52.087 -219.864)" fill="#007bc7"/>
          <path id="Trazado_234" data-name="Trazado 234" d="M55.8,363.994c3.017-7,14.456-35.545,16.89-42.695,0-.06,0-.075-.045,0-3.128,6.864-14.346,35.489-16.96,42.65C55.63,364.1,55.74,364.145,55.8,363.994Z" transform="translate(-53.869 -222.303)" fill="#263238"/>
          <path id="Trazado_235" data-name="Trazado 235" d="M67.254,395.9a6.129,6.129,0,0,0-.035-4.928,5.913,5.913,0,0,0-3.148-3.087c-.04,0-.07.06-.03.086a7.065,7.065,0,0,1,3.123,7.894.05.05,0,0,0,.09.035Z" transform="translate(-58.021 -255.43)" fill="#263238"/>
          <path id="Trazado_236" data-name="Trazado 236" d="M92.456,375.155c1.172-2.816,1.508-6.5-.131-9.187-.06-.1-.206,0-.2.09a42.127,42.127,0,0,1-.04,9.006.191.191,0,0,0,.367.09Z" transform="translate(-71.975 -244.516)" fill="#263238"/>
          <path id="Trazado_237" data-name="Trazado 237" d="M89.016,378.875c1.172-2.816,1.508-6.5-.126-9.187-.06-.1-.211,0-.2.091a42.127,42.127,0,0,1-.04,9.006.191.191,0,0,0,.367.091Z" transform="translate(-70.264 -246.365)" fill="#263238"/>
          <path id="Trazado_238" data-name="Trazado 238" d="M85.636,382.5c1.172-2.816,1.508-6.5-.126-9.187-.065-.1-.211,0-.2.091a42.126,42.126,0,0,1-.04,9.006.191.191,0,0,0,.367.09Z" transform="translate(-68.584 -248.165)" fill="#263238"/>
          <path id="Trazado_239" data-name="Trazado 239" d="M82.156,386.165c1.172-2.816,1.508-6.5-.131-9.187-.06-.1-.206,0-.2.09a42.127,42.127,0,0,1-.04,9.006.191.191,0,0,0,.367.09Z" transform="translate(-66.854 -249.99)" fill="#263238"/>
          <path id="Trazado_240" data-name="Trazado 240" d="M96.361,326.728c1.282-3.153-3.681-5.164-4.943-1.956S95.1,329.916,96.361,326.728Z" transform="translate(-71.54 -223.246)" fill="#263238"/>
          <path id="Trazado_241" data-name="Trazado 241" d="M99.149,386.408c1.765-.96,1.322-3.228.442-4.606a16.026,16.026,0,0,0-6.215-5.471.08.08,0,0,0-.116.055c-.226,0-.5.151-.432.417.588,2.574.9,5.4,2.263,7.718C95.886,385.875,97.485,387.313,99.149,386.408Zm-4.631-5.883c-.317-1.257-.573-2.514-.94-3.771,1.207,1.071,2.459,2.082,3.56,3.273a17.552,17.552,0,0,1,1.508,1.8c.689,1.006,1.946,4.716-1.247,3.766C95.625,385.065,94.921,382.023,94.518,380.525Z" transform="translate(-72.337 -249.684)" fill="#263238"/>
          <path id="Trazado_242" data-name="Trazado 242" d="M95.184,359.379c-1.363,2.318-1.679,5.139-2.273,7.713-.06.266.206.437.432.417a.075.075,0,0,0,.116.055,16.01,16.01,0,0,0,6.225-5.456c.88-1.378,1.322-3.645-.437-4.606C97.583,356.608,95.969,358.031,95.184,359.379Zm2.3-1.066c3.193-.94,1.931,2.781,1.242,3.771a17.659,17.659,0,0,1-1.508,1.8c-1.1,1.187-2.348,2.2-3.56,3.268.367-1.247.629-2.514.95-3.771.387-1.5,1.111-4.54,2.871-5.063Z" transform="translate(-72.38 -240.189)" fill="#263238"/>
          <path id="Trazado_243" data-name="Trazado 243" d="M175.3,300.81H134.3s-5.164,12.973-2.318,17.956S163.825,330.4,163.825,330.4l-39.959-14.366L111.22,346.708s43.8,9.277,69.339,6.195c9.584-1.156,15.894-16.98,12.209-22.381-5.1-7.472-22.461-19.927-22.461-19.927Z" transform="translate(-81.487 -212.141)" fill="#263238"/>
          <path id="Trazado_244" data-name="Trazado 244" d="M182.716,348.539q2.625.92,5.265,1.81c1.82.618,3.635,1.332,5.5,1.82.09,0,.045.171-.04.136-1.609-.568-3.278-.965-4.908-1.463s-3.188-1.006-4.777-1.508l-2.052-.689.417.277c.634.407,1.267.815,1.891,1.237,1.282.865,2.484,1.9,3.826,2.67.085.05,0,.181-.075.126-1.282-.875-2.715-1.508-4.023-2.343-.639-.4-1.262-.815-1.886-1.242a12.654,12.654,0,0,1-1.659-1.232c-2.011-.679-4.023-1.368-6.034-2.087-6.285-2.263-14.974-6.275-21.053-9.051-.342-.151-1.006-.7.458-.131C159.41,339.171,174.007,345.507,182.716,348.539Z" transform="translate(-102.087 -229.942)" fill="#37474f"/>
          <path id="Trazado_245" data-name="Trazado 245" d="M228.46,320.238a179.828,179.828,0,0,1,15.935,12.535,35.437,35.437,0,0,1,6.2,6.315,10.41,10.41,0,0,1,1.619,3.64,9.971,9.971,0,0,1-.221,4.571,29.48,29.48,0,0,1-4.727,9.554c-.055.075-.181,0-.126-.075a27.193,27.193,0,0,0,3.992-8.357,11.872,11.872,0,0,0,.568-5.028,9.449,9.449,0,0,0-1.508-3.711,33.391,33.391,0,0,0-5.958-6.19c-2.409-2.152-4.857-4.269-7.381-6.285-2.836-2.263-5.7-4.5-8.613-6.657C228.038,320.429,228.244,320.1,228.46,320.238Z" transform="translate(-139.625 -221.784)" fill="#37474f"/>
          <path id="Trazado_246" data-name="Trazado 246" d="M228.512,311.771c.161-.332.327-.659.5-1.006.347-.679.709-1.348,1.076-2.011.754-1.358,1.6-2.65,2.4-3.977.05-.08.166,0,.126.075-.679,1.373-1.287,2.776-2.011,4.128-.347.654-.7,1.3-1.061,1.936l-.553.955a3.056,3.056,0,0,1-.649.935c-.08.06-.221.025-.211-.1a2.7,2.7,0,0,1,.382-.94Z" transform="translate(-139.611 -214.097)" fill="#37474f"/>
          <path id="Trazado_247" data-name="Trazado 247" d="M126.158,350.666c1.946-4.44,4.093-8.789,6.079-13.219.035-.08.171-.04.136.05-1.865,4.455-3.58,8.975-5.531,13.4s-4.058,8.8-6.1,13.2c-.055.111-.236.055-.186-.065C122.432,359.587,124.222,355.1,126.158,350.666Z" transform="translate(-86.122 -230.335)" fill="#37474f"/>
          <path id="Trazado_248" data-name="Trazado 248" d="M185.487,303.464c-.7,1.006-1.287,2.107-1.931,3.148a9.766,9.766,0,0,1-2.057,2.564,9.449,9.449,0,0,1-6.1,1.689,35.233,35.233,0,0,1-4.3-.357.055.055,0,0,0,0,.106c.649.156,1.287.352,1.936.5s1.3.266,1.961.352a10.849,10.849,0,0,0,3.605-.085,7.859,7.859,0,0,0,3.017-1.287,7.639,7.639,0,0,0,2.182-2.62c.322-.593,1.584-3.2,1.87-3.917a.1.1,0,0,0-.186-.1Z" transform="translate(-111.239 -213.432)" fill="#37474f"/>
          <path id="Trazado_249" data-name="Trazado 249" d="M225.142,207.935c.7,7.246,3.776,30.124,10.916,37.209,4.807,4.787,23.955,6.386,31.894,8.216,2.444.563,6.5-20.912,3.922-21.657-6.079-1.745-23.205-1.277-24.794-2.514S238.029,213.4,232.3,204.767C228.873,199.633,224.262,198.733,225.142,207.935Z" transform="translate(-138.071 -162.489)" fill="#d3766a"/>
          <path id="Trazado_250" data-name="Trazado 250" d="M309.229,261.13c11.836.533,23,7.477,24.638,9.051,1.388,1.343,2.092,2.046,2.092,2.046,2.514,2.358,2.489,4.415,2.489,4.415s3.736,1.861,2.987,4.3c-.835,2.745-5.918-.407-9.775-.432-8.835-.06-21.41,2.328-23.96,2.564Z" transform="translate(-179.172 -192.413)" fill="#d3766a"/>
          <path id="Trazado_251" data-name="Trazado 251" d="M336.9,286.268a56.036,56.036,0,0,1,7.733.5,56.987,56.987,0,0,1,8.186,2.248.07.07,0,0,0,.05-.131,30.119,30.119,0,0,0-15.97-2.846C336.779,286.052,336.774,286.263,336.9,286.268Z" transform="translate(-193.644 -204.73)" fill="#263238"/>
          <path id="Trazado_252" data-name="Trazado 252" d="M335.421,275.751a41.836,41.836,0,0,1,14.225,3.7s.045-.03,0-.045a27.047,27.047,0,0,0-14.215-3.907C335.29,275.5,335.255,275.751,335.421,275.751Z" transform="translate(-192.899 -199.557)" fill="#263238"/>
          <path id="Trazado_253" data-name="Trazado 253" d="M320.99,300.89c-1.156.448-.925,1.056,1.177,1.695s10.982,1.4,10.454,4.47-13.028,1.83-16.447.5a58.768,58.768,0,0,1-8.493-4.7C310.164,302.6,316.127,301.448,320.99,300.89Z" transform="translate(-179.162 -212.181)" fill="#d3766a"/>
          <path id="Trazado_254" data-name="Trazado 254" d="M226.734,229.794l15.351-10.056s-4.148-7.542-8.548-14.1-10.182-8.121-9.86,3.444a90.3,90.3,0,0,0,3.057,20.716Z" transform="translate(-137.391 -162.289)" fill="#007bc7"/>
          <path id="Trazado_255" data-name="Trazado 255" d="M242.861,233.316c-2.308,1.272-4.525,2.74-6.708,4.209-1.076.724-2.147,1.453-3.2,2.207s-2.142,1.619-3.243,2.383a.04.04,0,0,0,.045.065c1.126-.724,2.3-1.373,3.439-2.087s2.182-1.4,3.263-2.122c2.187-1.463,4.39-2.952,6.441-4.6a.035.035,0,1,0-.035-.055Z" transform="translate(-140.39 -178.577)" fill="#263238"/>
          <path id="Trazado_256" data-name="Trazado 256" d="M239.385,221.488l-12.611,8.276a90.3,90.3,0,0,1-3.017-20.736c-.161-5.853,1.242-8.347,3.238-8.548C229.832,205.634,235.85,215.56,239.385,221.488Z" transform="translate(-137.431 -162.259)" fill="#263238"/>
          <path id="Trazado_257" data-name="Trazado 257" d="M203.974,254.227c-.81.674-25.222-1.106-40.543-2.393-7.009-.6-12.108-1.086-12.178-1.192-.563-.9,12.852-41.915,28.892-52.248,5.707-3.671,12.973.357,13.687,1.383C198.544,206.554,204.708,253.6,203.974,254.227Z" transform="translate(-101.382 -160.469)" fill="#007bc7"/>
          <path id="Trazado_258" data-name="Trazado 258" d="M246.066,237.98c-.166-1.473-.367-2.947-.6-4.41-.292-1.835-2.514-10.806-3.052-12.425a.025.025,0,1,0-.05,0c1.337,5.793,2.288,10.464,3.173,16.347.246,1.654.528,3.3.769,4.953,0,.045.08.05.075,0C246.312,240.961,246.237,239.463,246.066,237.98Z" transform="translate(-146.686 -172.521)" fill="#263238"/>
          <path id="Trazado_259" data-name="Trazado 259" d="M204.745,296.206l-51.615-3.575c.327-1.051.734-2.288,1.222-3.671l49.981,3.459C204.5,293.853,204.639,295.125,204.745,296.206Z" transform="translate(-102.323 -206.25)" fill="#263238"/>
          <path id="Trazado_260" data-name="Trazado 260" d="M206.129,283.509l-48.709-3.369c.422-1.156.89-2.383,1.393-3.661l46.823,3.243C205.812,281.046,205.983,282.313,206.129,283.509Z" transform="translate(-104.456 -200.045)" fill="#263238"/>
          <path id="Trazado_261" data-name="Trazado 261" d="M224.267,197.345c-2.891.463-7.442-4.249-9.1-7.909a57.128,57.128,0,0,1,1.006-5.858c.317-1.871.629-3.967.774-5.9l11.9,3.857a30.211,30.211,0,0,0-1.73,7.331,4.2,4.2,0,0,0,0,.8.921.921,0,0,1,0,.131C227.259,191.322,227.063,196.9,224.267,197.345Z" transform="translate(-133.159 -150.924)" fill="#d3766a"/>
          <path id="Trazado_262" data-name="Trazado 262" d="M229.608,189.891v.136c-8.08-1.046-9.332-8.694-9.5-11.887l11.2,3.62a30.28,30.28,0,0,0-1.73,7.336A3.754,3.754,0,0,0,229.608,189.891Z" transform="translate(-135.624 -151.153)" fill="#263238"/>
          <path id="Trazado_263" data-name="Trazado 263" d="M217.041,136.545c-2.544,4.722-3.017,17.73-.1,21.692,4.244,5.742,12.646,7.9,17.89,2.464,5.089-5.265,5.476-21.717,2.072-25.468C231.894,129.712,220.807,129.591,217.041,136.545Z" transform="translate(-133.053 -127.815)" fill="#d3766a"/>
          <path id="Trazado_264" data-name="Trazado 264" d="M214.494,145.351c2.6,0,3.188-4.279,3.188-4.279s3.1-.573,4.882-6.331c0,0,1.669,5.1,12.47,5.2a6.864,6.864,0,0,0,.573-5.561,38.465,38.465,0,0,1,1.941,6.064s3.7-8.513-3.444-12.611c-2.841-1.629-7.437-1.971-14.823.553,0,0-.789-4.324-1.659-3.887s.166,4.525.166,4.525-2.921-1.343-3.52-.769c-.5.5,2.323,1.644,2.323,1.644a6.09,6.09,0,0,0-4.782,6.356C211.874,141.278,213.207,145.351,214.494,145.351Z" transform="translate(-131.497 -124.468)" fill="#263238"/>
          <path id="Trazado_265" data-name="Trazado 265" d="M242.666,146.617a9.579,9.579,0,0,1-4.153-.332,10.363,10.363,0,0,1-3.248-1.825,9.493,9.493,0,0,1-2.278-2.851,11.828,11.828,0,0,1-1.006-3.847.073.073,0,0,0-.146,0,7.456,7.456,0,0,0,.543,3.937,7.934,7.934,0,0,0,2.308,3.248,7.829,7.829,0,0,0,3.384,1.674,13.717,13.717,0,0,0,4.581.156C242.762,146.753,242.757,146.612,242.666,146.617Z" transform="translate(-141.421 -131.044)" fill="#263238"/>
          <path id="Trazado_266" data-name="Trazado 266" d="M216.59,135.266a5.556,5.556,0,0,0-6.235,3.917,10.3,10.3,0,0,0,.045,4.681,19.209,19.209,0,0,0,1.684,4.631c.04.08.166,0,.126-.075a14.783,14.783,0,0,1-1.282-4.324,13.661,13.661,0,0,1-.126-4.314,5.335,5.335,0,0,1,5.788-4.359.08.08,0,0,0,0-.156Z" transform="translate(-130.651 -129.8)" fill="#263238"/>
          <path id="Trazado_267" data-name="Trazado 267" d="M234.355,126.623a21.676,21.676,0,0,0-5.461,1.242,15.663,15.663,0,0,0-4.706,2.444.073.073,0,0,0,.08.121,28.329,28.329,0,0,1,9.679-3.017c3.107-.463,6.652,0,8.618,2.73a.042.042,0,1,0,.07-.045C240.932,127.266,237.453,126.381,234.355,126.623Z" transform="translate(-137.636 -125.521)" fill="#263238"/>
          <path id="Trazado_268" data-name="Trazado 268" d="M240.654,164.463c-1.624-.176-1.86,3.092-.352,3.253S242.022,164.609,240.654,164.463Z" transform="translate(-145.162 -144.349)" fill="#263238"/>
          <path id="Trazado_269" data-name="Trazado 269" d="M255.288,166c1.634.111,1.287,3.369-.226,3.263S253.921,165.887,255.288,166Z" transform="translate(-152.515 -145.114)" fill="#263238"/>
          <path id="Trazado_270" data-name="Trazado 270" d="M240.166,158.367a9.712,9.712,0,0,0,1.076-.151,1.77,1.77,0,0,0,1.071-.367.568.568,0,0,0,.045-.684,1.393,1.393,0,0,0-1.348-.412,2.011,2.011,0,0,0-1.327.634.6.6,0,0,0,.483.98Z" transform="translate(-145.287 -140.5)" fill="#263238"/>
          <path id="Trazado_271" data-name="Trazado 271" d="M257.289,160.158a10.338,10.338,0,0,1-1.031-.347,1.755,1.755,0,0,1-1.006-.558.563.563,0,0,1,.08-.679,1.393,1.393,0,0,1,1.4-.161,2.056,2.056,0,0,1,1.192.865.6.6,0,0,1-.634.88Z" transform="translate(-153.057 -141.286)" fill="#263238"/>
          <path id="Trazado_272" data-name="Trazado 272" d="M239.913,181.743c.136.312.241.7.568.87a2.675,2.675,0,0,0,1.111.171.035.035,0,0,1,0,.065,1.378,1.378,0,0,1-1.4.03,1.076,1.076,0,0,1-.4-1.131C239.812,181.688,239.877,181.7,239.913,181.743Z" transform="translate(-145.39 -152.926)" fill="#263238"/>
          <path id="Trazado_273" data-name="Trazado 273" d="M246.142,170.331s-.03,1.508-.136,2.207c0,.065-.186.07-.422.045h-.03a3.339,3.339,0,0,1-3.017-1.735.075.075,0,0,1,.121-.08,5.074,5.074,0,0,0,2.886,1.338c.08-.186-.035-2.615.07-2.574.453.146,1.237.5,1.508.6.035-1.006,0-3.766.085-5.531a.093.093,0,0,1,.186,0,47.216,47.216,0,0,1,.347,6.27A5.076,5.076,0,0,1,246.142,170.331Z" transform="translate(-146.772 -144.38)" fill="#263238"/>
          <path id="Trazado_274" data-name="Trazado 274" d="M244.982,178.388a4.133,4.133,0,0,1-1.725,1.161,1.87,1.87,0,0,1-1.126,0c-.794-.266-.764-1.006-.573-1.639a4.525,4.525,0,0,1,.427-.95A5.315,5.315,0,0,0,244.982,178.388Z" transform="translate(-146.232 -150.566)" fill="#263238"/>
          <path id="Trazado_275" data-name="Trazado 275" d="M243.258,180.489a1.871,1.871,0,0,1-1.126,0c-.794-.267-.764-1.006-.573-1.639A1.908,1.908,0,0,1,243.258,180.489Z" transform="translate(-146.232 -151.506)" fill="#ff9bbc"/>
          <path id="Trazado_276" data-name="Trazado 276" d="M213.764,161.346s-2.087-4.525-4.1-3.862-.94,6.894,1.061,8.08a2.217,2.217,0,0,0,3.133-.644Z" transform="translate(-129.897 -140.85)" fill="#d3766a"/>
          <path id="Trazado_277" data-name="Trazado 277" d="M211.412,161.08a.03.03,0,0,0,0,.055,5.618,5.618,0,0,1,2.228,3.967,1.228,1.228,0,0,0-1.745-.659c-.045,0,0,.09.025.09a1.363,1.363,0,0,1,1.393.734,6.732,6.732,0,0,1,.5,1.322c.045.146.3.121.277-.045a.086.086,0,0,0,0-.035C214.444,164.6,213.433,161.648,211.412,161.08Z" transform="translate(-131.291 -142.671)" fill="#263238"/>
          <path id="Trazado_278" data-name="Trazado 278" d="M312.551,233.381l-33.111,2.891,1.951-42.906,33.116-2.9Z" transform="translate(-165.122 -157.283)" fill="#ebebeb"/>
          <path id="Trazado_279" data-name="Trazado 279" d="M317.061,232.981l-33.111,2.9,1.951-42.911,33.111-2.9Z" transform="translate(-167.364 -157.084)" fill="#c7c7c7"/>
          <path id="Trazado_280" data-name="Trazado 280" d="M292.5,193.746a2.162,2.162,0,0,1-.87,1.815c-.261.2-.5-.2-.216-.387a1.584,1.584,0,0,0,.613-1.151,1.85,1.85,0,0,0,0-.236,1.644,1.644,0,0,0-.211-.794.674.674,0,0,0-.277-.266.071.071,0,0,1-.025,0H291.4a.362.362,0,0,0-.226.035.709.709,0,0,0-.3.271,1.469,1.469,0,0,0-.186.463,2.066,2.066,0,0,0-.07.251v.06a.161.161,0,0,0,0,.085.186.186,0,0,0,0,.055l-.468.04a2.659,2.659,0,0,1,.186-.84,1.342,1.342,0,0,1,1.006-.9.965.965,0,0,1,.955.6A1.951,1.951,0,0,1,292.5,193.746Z" transform="translate(-170.446 -158.166)" fill="#a6a6a6"/>
          <path id="Trazado_281" data-name="Trazado 281" d="M297.678,193.3a2.167,2.167,0,0,1-.865,1.815c-.261.2-.478-.2-.216-.387a1.609,1.609,0,0,0,.613-1.151v-.236a1.639,1.639,0,0,0-.206-.794.754.754,0,0,0-.277-.272h-.076a.211.211,0,0,1-.065,0,.387.387,0,0,0-.226.04.679.679,0,0,0-.3.272,1.478,1.478,0,0,0-.191.463,2.047,2.047,0,0,0-.065.251v.055a.575.575,0,0,0,0,.091v.055l-.473.04a2.816,2.816,0,0,1,.191-.84,1.327,1.327,0,0,1,1.006-.9.965.965,0,0,1,.955.6,1.89,1.89,0,0,1,.2.9Z" transform="translate(-173.022 -157.942)" fill="#a6a6a6"/>
          <path id="Trazado_282" data-name="Trazado 282" d="M302.838,192.846a2.182,2.182,0,0,1-.87,1.815c-.261.191-.5-.206-.216-.387a1.6,1.6,0,0,0,.613-1.151,1.238,1.238,0,0,0,0-.236,1.584,1.584,0,0,0-.206-.794.719.719,0,0,0-.277-.272.076.076,0,0,1-.03,0h-.091a.4.4,0,0,0-.226.04.709.709,0,0,0-.3.272,1.479,1.479,0,0,0-.191.463,2.051,2.051,0,0,0-.065.251v.055a.276.276,0,0,0,0,.09.187.187,0,0,0,0,.055l-.468.04a2.661,2.661,0,0,1,.186-.84,1.342,1.342,0,0,1,1.006-.9.965.965,0,0,1,.955.6A1.952,1.952,0,0,1,302.838,192.846Z" transform="translate(-175.597 -157.718)" fill="#a6a6a6"/>
          <path id="Trazado_283" data-name="Trazado 283" d="M307.963,192.4a2.157,2.157,0,0,1-.87,1.815c-.261.191-.478-.206-.216-.387a1.609,1.609,0,0,0,.619-1.151c0-.075,0-.161,0-.236a1.639,1.639,0,0,0-.206-.794.729.729,0,0,0-.282-.272h-.136a.388.388,0,0,0-.226.04.679.679,0,0,0-.3.272,1.369,1.369,0,0,0-.191.463c-.03.075-.045.166-.07.251v.055a.273.273,0,0,0,0,.086v.06l-.473.04a2.817,2.817,0,0,1,.191-.84,1.328,1.328,0,0,1,1.006-.9.975.975,0,0,1,.96.593A1.98,1.98,0,0,1,307.963,192.4Z" transform="translate(-178.133 -157.495)" fill="#a6a6a6"/>
          <path id="Trazado_284" data-name="Trazado 284" d="M313.128,191.947a2.182,2.182,0,0,1-.87,1.815c-.261.191-.5-.206-.216-.387a1.619,1.619,0,0,0,.613-1.151,1.867,1.867,0,0,0,0-.236,1.584,1.584,0,0,0-.206-.794.718.718,0,0,0-.277-.272h-.141a.387.387,0,0,0-.226.04.679.679,0,0,0-.3.272,1.478,1.478,0,0,0-.191.463,1.835,1.835,0,0,0-.065.251V192a.261.261,0,0,0,0,.085v.06l-.468.04a2.629,2.629,0,0,1,.186-.84,1.337,1.337,0,0,1,1.006-.9.97.97,0,0,1,.955.593A2.011,2.011,0,0,1,313.128,191.947Z" transform="translate(-180.703 -157.271)" fill="#a6a6a6"/>
          <path id="Trazado_285" data-name="Trazado 285" d="M318.268,191.462a2.167,2.167,0,0,1-.87,1.815c-.261.191-.478-.206-.216-.387a1.6,1.6,0,0,0,.613-1.151,1.856,1.856,0,0,0,0-.236,1.573,1.573,0,0,0-.211-.794.654.654,0,0,0-.277-.271h-.136a.387.387,0,0,0-.226.04.694.694,0,0,0-.307.272,1.469,1.469,0,0,0-.186.463,1.658,1.658,0,0,0-.07.251h0a.273.273,0,0,0,0,.085v.06l-.473.04a2.772,2.772,0,0,1,.186-.84,1.343,1.343,0,0,1,1.006-.9.97.97,0,0,1,.955.593A2.011,2.011,0,0,1,318.268,191.462Z" transform="translate(-183.254 -157.002)" fill="#a6a6a6"/>
          <path id="Trazado_286" data-name="Trazado 286" d="M323.433,191.043a2.182,2.182,0,0,1-.87,1.815c-.261.191-.478-.206-.216-.387a1.619,1.619,0,0,0,.613-1.151,1.856,1.856,0,0,0,0-.236,1.573,1.573,0,0,0-.206-.794.719.719,0,0,0-.276-.272h-.141a.387.387,0,0,0-.226.04.654.654,0,0,0-.3.272,1.479,1.479,0,0,0-.191.463,1.662,1.662,0,0,0-.065.251v.055a.624.624,0,0,0,0,.085v.06l-.473.04a2.781,2.781,0,0,1,.191-.84,1.343,1.343,0,0,1,1.006-.905,1.006,1.006,0,0,1,.955.6A2.011,2.011,0,0,1,323.433,191.043Z" transform="translate(-185.824 -156.82)" fill="#a6a6a6"/>
          <path id="Trazado_287" data-name="Trazado 287" d="M328.583,190.568a2.187,2.187,0,0,1-.87,1.82c-.261.191-.478-.206-.216-.387a1.6,1.6,0,0,0,.613-1.151,1.839,1.839,0,0,0,0-.236,1.664,1.664,0,0,0-.211-.8.7.7,0,0,0-.277-.287h-.141a.4.4,0,0,0-.226.04.679.679,0,0,0-.3.272,1.359,1.359,0,0,0-.186.463,1.654,1.654,0,0,0-.07.251v.055a.17.17,0,0,0,0,.085v.055l-.468.045a2.63,2.63,0,0,1,.186-.84,1.358,1.358,0,0,1,1.006-.905,1.006,1.006,0,0,1,.955.6A1.981,1.981,0,0,1,328.583,190.568Z" transform="translate(-188.385 -156.576)" fill="#a6a6a6"/>
          <path id="Trazado_288" data-name="Trazado 288" d="M333.733,190.138a2.167,2.167,0,0,1-.865,1.82c-.262.191-.478-.206-.216-.392a1.6,1.6,0,0,0,.613-1.146v-.236a1.66,1.66,0,0,0-.206-.8.719.719,0,0,0-.282-.267h-.136a.387.387,0,0,0-.226.04.653.653,0,0,0-.3.272,1.509,1.509,0,0,0-.191.458c-.03.08-.045.166-.07.256v.055a.5.5,0,0,0,0,.085v.055l-.473.045a2.781,2.781,0,0,1,.191-.84,1.343,1.343,0,0,1,1.006-.905,1.006,1.006,0,0,1,.955.6A1.906,1.906,0,0,1,333.733,190.138Z" transform="translate(-190.945 -156.372)" fill="#a6a6a6"/>
          <path id="Trazado_289" data-name="Trazado 289" d="M338.878,189.688a2.172,2.172,0,0,1-.87,1.815c-.261.2-.478-.2-.216-.387a1.6,1.6,0,0,0,.613-1.146,1.288,1.288,0,0,0,0-.241,1.6,1.6,0,0,0-.206-.794.74.74,0,0,0-.277-.266h-.03a.236.236,0,0,0-.045,0h-.085a.4.4,0,0,0-.226.04.679.679,0,0,0-.3.272,1.509,1.509,0,0,0-.191.458,1.913,1.913,0,0,0-.065.256v.055a.253.253,0,0,0,0,.085v.055l-.468.045a2.628,2.628,0,0,1,.186-.84,1.348,1.348,0,0,1,1.006-.905,1.006,1.006,0,0,1,.955.6A1.967,1.967,0,0,1,338.878,189.688Z" transform="translate(-193.495 -156.148)" fill="#a6a6a6"/>
          <path id="Trazado_290" data-name="Trazado 290" d="M344.038,189.237a2.157,2.157,0,0,1-.87,1.815c-.261.2-.478-.2-.216-.387a1.584,1.584,0,0,0,.613-1.151,1.839,1.839,0,0,0,0-.236,1.655,1.655,0,0,0-.206-.794.719.719,0,0,0-.282-.267h-.136a.387.387,0,0,0-.226.035.7.7,0,0,0-.307.277,1.508,1.508,0,0,0-.186.458,2.058,2.058,0,0,0-.07.251v.06a.254.254,0,0,0,0,.085v.055l-.473.04a2.641,2.641,0,0,1,.191-.835,1.337,1.337,0,0,1,1.006-.905.975.975,0,0,1,.955.6A1.911,1.911,0,0,1,344.038,189.237Z" transform="translate(-196.066 -155.924)" fill="#a6a6a6"/>
          <path id="Trazado_291" data-name="Trazado 291" d="M349.208,188.787a2.177,2.177,0,0,1-.87,1.815c-.261.2-.478-.2-.216-.387a1.6,1.6,0,0,0,.613-1.151,1.85,1.85,0,0,0,0-.236,1.6,1.6,0,0,0-.206-.794.739.739,0,0,0-.277-.266h-.075a.271.271,0,0,1-.065,0,.352.352,0,0,0-.226.035.694.694,0,0,0-.3.277,1.453,1.453,0,0,0-.191.458,2.04,2.04,0,0,0-.065.251v.06a.251.251,0,0,0,0,.085s0,.04,0,.055l-.468.04a2.69,2.69,0,0,1,.186-.84,1.343,1.343,0,0,1,1.006-.9.97.97,0,0,1,.955.6A1.966,1.966,0,0,1,349.208,188.787Z" transform="translate(-198.641 -155.7)" fill="#a6a6a6"/>
          <path id="Trazado_292" data-name="Trazado 292" d="M198.512,217.566c8.548,23.809,17.79,29.636,23.286,29.968,12.168.734,32.347-7.075,37.6-10.559,2.288-1.508-7.894-19.816-10.8-20.239s-22.868,11.565-24.965,10.911c-.86-.272-8.332-6.5-15.4-14.22C200.609,205.1,194.117,205.337,198.512,217.566Z" transform="translate(-124.178 -165.849)" fill="#d3766a"/>
          <path id="Trazado_293" data-name="Trazado 293" d="M321.919,217.6a3.543,3.543,0,0,1-.578,4,5.25,5.25,0,0,1,2.328,2.7c.679,2.057-2.248,4.023-2.248,4.023a6.482,6.482,0,0,1,2.011,3.243c.448,2.011-2.223,4.43-2.223,4.43a5.667,5.667,0,0,1-.03,3.962c-1.438,3.349-6.939,4.2-10.429,4.777s-13.933-1.056-15.955-1.167L290.9,221.2s14.919-7.039,19.107-7.135C313.577,213.969,320.587,215.186,321.919,217.6Z" transform="translate(-170.819 -169.011)" fill="#d3766a"/>
          <path id="Trazado_294" data-name="Trazado 294" d="M339.63,227.879c-3.786-.82-7.6-.473-11.434-.342a.065.065,0,0,0,0,.131c3.811-.171,7.6.412,11.409.392a.091.091,0,0,0,.025-.181Z" transform="translate(-189.329 -175.619)" fill="#263238"/>
          <path id="Trazado_295" data-name="Trazado 295" d="M340.433,241.791a10.086,10.086,0,0,0-2.64.035q-1.4.121-2.791.282c-1.86.221-3.711.478-5.556.794-.086,0-.086.141,0,.131,1.85-.211,3.706-.4,5.571-.533q1.393-.106,2.791-.181a12.1,12.1,0,0,0,2.63-.272.136.136,0,0,0-.005-.256Z" transform="translate(-189.952 -182.763)" fill="#263238"/>
          <path id="Trazado_296" data-name="Trazado 296" d="M341.055,257.622a7.143,7.143,0,0,0-2.373.161c-.845.121-1.695.231-2.539.337-1.689.216-3.384.427-5.084.583-.085,0-.08.141,0,.136,1.73-.151,3.454-.277,5.184-.442.845-.081,1.694-.166,2.539-.257a6.566,6.566,0,0,0,2.278-.432.045.045,0,0,0-.005-.086Z" transform="translate(-190.754 -190.64)" fill="#263238"/>
          <path id="Trazado_297" data-name="Trazado 297" d="M252.93,282.739c1.674-.211,3.329-.468,4.983-.754s3.3-.6,4.933-.975,3.268-.744,4.892-1.167,3.233-.89,4.857-1.343c-.779.322-1.559.634-2.353.92s-1.589.553-2.4.794c-1.6.5-3.243.92-4.887,1.287s-3.314.649-4.983.86A41.281,41.281,0,0,1,252.93,282.739Z" transform="translate(-151.941 -201.049)" fill="#263238"/>
          <path id="Trazado_298" data-name="Trazado 298" d="M248.23,244.55a2.052,2.052,0,0,0,.82.417,2.112,2.112,0,0,0,.885-.1c.6-.161,1.2-.352,1.78-.573s1.162-.468,1.74-.724,1.136-.538,1.715-.81a11.992,11.992,0,0,1-1.584,1.071,12.179,12.179,0,0,1-1.74.815,9.371,9.371,0,0,1-1.855.5,3.931,3.931,0,0,1-.5.05,1.1,1.1,0,0,1-.5-.055A1.85,1.85,0,0,1,248.23,244.55Z" transform="translate(-149.605 -183.28)" fill="#263238"/>
          <path id="Trazado_299" data-name="Trazado 299" d="M205.653,235.78,217.9,222.093s-5.943-6.2-11.872-11.454-11.927-5.229-8.639,5.863a90.388,90.388,0,0,0,8.266,19.278Z" transform="translate(-123.862 -165.62)" fill="#007bc7"/>
          <path id="Trazado_300" data-name="Trazado 300" d="M223.412,233.1c-1.976,1.74-3.821,3.656-5.637,5.556-.9.94-1.785,1.891-2.65,2.851s-1.745,2.046-2.65,3.017c-.035.035,0,.085.055.05.945-.95,1.951-1.84,2.906-2.781s1.83-1.84,2.73-2.781c1.82-1.9,3.645-3.826,5.295-5.883a.035.035,0,0,0-.05-.03Z" transform="translate(-131.822 -178.474)" fill="#263238"/>
          <path id="Trazado_301" data-name="Trazado 301" d="M207.945,246.879a7.729,7.729,0,0,0-.664.7c-.965-2.052-2.011-4.063-3.017-6.094-1.061-2.142-2.082-4.3-3.017-6.507-.5-1.252-1.006-2.514-1.549-3.756-.025-.05-.106-.03-.091.025.372,1.192.789,2.368,1.237,3.52-.05-.075-.1-.146-.146-.221-.256-.4-.5-.8-.754-1.212-.035-.06-.116,0-.091.055a9.475,9.475,0,0,0,.96,1.649c.091.126.186.246.282.367h0c.342.86.694,1.72,1.056,2.569.945,2.2,1.936,4.37,3.067,6.476.654,1.207,1.951,3.7,1.921,3.625s.8-1.106.8-1.167S207.975,246.874,207.945,246.879Z" transform="translate(-125.43 -177.529)" fill="#263238"/>
          <path id="Trazado_302" data-name="Trazado 302" d="M230.975,228.194c-.221-.211-.674-.634-1.2-1.116a1.2,1.2,0,0,0-.085-.161c-.065-.1-.136-.191-.2-.282a5.241,5.241,0,0,0-.427-.5,6.778,6.778,0,0,0-.915-.945s-.03,0,0,0c.282.342.563.684.825,1.046.055.08.121.161.181.241-.764-.694-1.554-1.4-1.976-1.745-.04-.035-.091.025-.055.055.568.5,5.984,5.9,5.989,5.953a2.8,2.8,0,0,1-.357.478c-.055.065-.04.181.075.075a6.215,6.215,0,0,0,.6-.573A27.374,27.374,0,0,0,230.975,228.194Z" transform="translate(-139.103 -174.31)" fill="#263238"/>
        </g>
        <g id="freepik--Backpack--inject-65" transform="translate(161.097 186.196)">
          <path id="Trazado_303" data-name="Trazado 303" d="M293.457,284.388c4.078-3.655,17.493-7.427,20.565-6.562s27.63,19.243,33.89,33.689c1.448,3.344,3.359,25.75,1.9,27.2s-33.558,4.158-35.791,4.445-2.439-27.072-3.671-30.642S289.4,288.054,293.457,284.388Z" transform="translate(-287.926 -262.38)" fill="#37474f"/>
          <path id="Trazado_304" data-name="Trazado 304" d="M309.091,314.059c-1.348-4.676-20.349-22.225-20.244-28.978,0-.915,2.564-2.414,3.344-2.74,1.6-.674,3.228-1.287,4.872-1.835s3.319-1.006,5-1.473c.84-.221,1.684-.412,2.514-.593a23.875,23.875,0,0,1,2.579-.458,9.049,9.049,0,0,1,1.508-.03,5.028,5.028,0,0,1,1.343.216,20.26,20.26,0,0,1,2.735,1.649c.045.03.1-.04.055-.075-1.232-1.006-3.087-2.383-4.727-2.484a10.831,10.831,0,0,0-2.67.277c-.89.171-1.78.367-2.66.578a60.913,60.913,0,0,0-10.429,3.49,22.123,22.123,0,0,0-2.574,1.423c-2.72,1.644-7.648,8.126-6.592,10.524,1.373,3.123,13.742,17.212,13.918,22.366,0,0-3.952,2.4-4.641,3.776s-4.38,19.932-3.263,21.647,24.789,2.308,24.789,2.308Z" transform="translate(-283 -262.158)" fill="#455a64"/>
          <path id="Trazado_305" data-name="Trazado 305" d="M318.3,280.331a12.249,12.249,0,0,0-3.52-2.152,6.341,6.341,0,0,0-1.815-.151,51.012,51.012,0,0,0-6.476,1.508c-2.011.563-11.384,3.686-11.952,5.566-.5,1.2,1.483,5.325,1.906,6.034,1.252,2.046,2.7,3.992,4.138,5.9s3.017,3.847,4.6,5.7,3.173,3.57,4.787,5.335c.83.91,1.644,1.815,2.429,2.771a15.041,15.041,0,0,1,2.152,3.087c.06.136.3.03.241-.111a15.025,15.025,0,0,0-3.369-5.566c-1.478-1.775-3.107-3.424-4.626-5.164-3.168-3.625-6.195-7.4-9.011-11.309-.92-1.272-2.987-5.219-2.383-6.708.553-1.368,8.724-4.269,10.559-4.8,1.981-.578,3.977-1.136,5.989-1.594a8.043,8.043,0,0,1,1.73-.272c1.358,0,3.661,1.388,4.525,2.1C318.263,280.562,318.4,280.417,318.3,280.331Z" transform="translate(-288.697 -262.537)" fill="#263238"/>
          <path id="Trazado_306" data-name="Trazado 306" d="M338.287,335.8c-1.267-.774-1.483-14.728-3.52-29.325-1.091-7.754,3.52-39.034,6.034-41.352,3.882-3.59,28.158-4.3,31.054-1.006s13.315,63.652,10.4,67.6S340.188,336.955,338.287,335.8Z" transform="translate(-308.656 -254.572)" fill="#455a64"/>
          <path id="Trazado_307" data-name="Trazado 307" d="M340.122,269.221a25.478,25.478,0,0,0-1.393,3.57c-.362,1.232-.669,2.479-1.006,3.726-.634,2.564-1.232,5.149-1.659,7.759q-1.3,7.97-1.825,16.025-.143,2.263-.176,4.525v2.217a10.339,10.339,0,0,0,.161,2.233c0,.04.065.03.075,0a9.863,9.863,0,0,0,.256-1.931q.09-1.006.166-1.976c.106-1.338.216-2.675.322-4.023q.332-3.972.774-7.935t1.061-7.9c.407-2.615.774-5.234,1.237-7.844a61.59,61.59,0,0,1,2.177-8.352A.1.1,0,0,0,340.122,269.221Z" transform="translate(-308.384 -258.14)" fill="#263238"/>
          <path id="Trazado_308" data-name="Trazado 308" d="M333.856,347.33l-1.564.221-.322,4.053,3.067-.236Zm-.4,3.63c-.473.03-.875-.151-.895-.417s.347-.5.825-.538.875.146.9.407S333.936,350.92,333.453,350.96Z" transform="translate(-307.347 -296.998)" fill="#263238"/>
          <path id="Trazado_309" data-name="Trazado 309" d="M392.393,331.691c-2.011,2.715-27.364,5.214-33.533,4.46-2.469-4.928-3.394-28.254-3.7-31.085-.81-7.512,2.313-37.164,3.2-38.853s6.4-4.063,11.4-4.214c5.808,0,10.982.689,12.234,2.092C384.916,267.355,395.309,327.744,392.393,331.691Z" transform="translate(-318.81 -254.574)" fill="#37474f"/>
          <path id="Trazado_310" data-name="Trazado 310" d="M386.1,275c-3.017,0-6,0-9.006.121s-6,.287-9,.5c-1.7.111-3.419.221-5.119.417a.04.04,0,1,0,0,.08c3.017,0,6-.136,9-.256s6-.206,9-.407c1.71-.121,3.414-.256,5.124-.367C386.17,275.075,386.17,275,386.1,275Z" transform="translate(-322.744 -261.037)" fill="#263238"/>
          <path id="Trazado_311" data-name="Trazado 311" d="M386.012,291.39c-1.715,0-3.429.065-5.139.121s-3.349.075-5.028.131q-5.084.161-10.157.443c-1.921.106-3.847.241-5.767.3a.04.04,0,0,0,0,.08c1.715-.04,3.434,0,5.149,0s3.344-.04,5.028-.09c3.389-.1,6.768-.267,10.157-.463,1.921-.116,3.847-.211,5.762-.407a.055.055,0,0,0-.005-.111Z" transform="translate(-321.223 -269.186)" fill="#263238"/>
          <path id="Trazado_312" data-name="Trazado 312" d="M387.706,306c-7.09.6-14.18,1.151-21.259,1.81l-2.987.282c-1.006.1-2.011.231-2.987.327-.05,0-.05.08,0,.075.915-.03,1.83-.025,2.745-.065s1.745-.075,2.615-.126c1.765-.1,3.52-.221,5.29-.362,3.55-.292,7.1-.583,10.63-1.046,1.986-.266,3.972-.5,5.953-.794C387.766,306.111,387.766,306,387.706,306Z" transform="translate(-321.499 -276.45)" fill="#263238"/>
          <path id="Trazado_313" data-name="Trazado 313" d="M389.167,326.3c-2.046.086-4.093.261-6.139.387s-4.023.307-6,.5c-4.023.357-8.01.759-12.012,1.177-2.293.236-4.591.478-6.879.739-.05,0-.05.086,0,.08,8.045-.5,16.12-1.162,24.136-1.986,1.126-.116,2.253-.271,3.379-.392s2.338-.246,3.52-.4C389.222,326.375,389.222,326.3,389.167,326.3Z" transform="translate(-320.335 -286.542)" fill="#263238"/>
          <path id="Trazado_314" data-name="Trazado 314" d="M389.467,343.92c-4.148.412-8.307.83-12.445,1.307s-8.342,1.006-12.5,1.594c-2.343.327-4.681.719-7.039,1.006-.05,0-.05.086,0,.08,2.072-.241,4.148-.407,6.225-.623s4.148-.448,6.22-.689q6.26-.754,12.5-1.644c2.338-.337,4.686-.644,7.04-1.006C389.5,343.96,389.5,343.915,389.467,343.92Z" transform="translate(-320.012 -295.302)" fill="#263238"/>
          <path id="Trazado_315" data-name="Trazado 315" d="M392.375,363.16c-4.339.322-8.684.674-13.013,1.131s-8.669.97-12.988,1.559c-1.2.161-2.4.337-3.6.5l-1.86.277c-.623.1-1.237.246-1.86.332-.05,0-.05.085,0,.08.538-.07,1.081-.075,1.619-.136l1.614-.171,3.288-.357q3.238-.352,6.466-.729,6.5-.754,12.993-1.554l7.346-.9C392.41,363.205,392.41,363.16,392.375,363.16Z" transform="translate(-320.793 -304.868)" fill="#263238"/>
          <path id="Trazado_316" data-name="Trazado 316" d="M394.042,380.91c-2.067.276-4.138.573-6.2.84s-4.143.5-6.21.8q-6.17.915-12.334,1.921c-2.3.372-4.611.729-6.909,1.156-.055,0-.04.111,0,.1,4.148-.453,8.281-1.066,12.415-1.644s8.226-1.2,12.329-1.886c2.308-.387,4.616-.739,6.924-1.111C394.153,381.05,394.133,380.9,394.042,380.91Z" transform="translate(-322.45 -313.693)" fill="#263238"/>
          <path id="Trazado_317" data-name="Trazado 317" d="M375.529,257.559c-.09.211-3.369.458-3.369.216s1.679-6.537,2.288-7.311,6-3.52,7.04-3.208,5.028,2.705,5.068,3.485-.367,6.426-.613,6.572a11.217,11.217,0,0,1-3.1.1c-.121-.146.955-6.7.88-6.808a54.42,54.42,0,0,0-6.341,0C377.208,250.74,375.65,257.262,375.529,257.559Z" transform="translate(-327.328 -247.231)" fill="#37474f"/>
          <path id="Trazado_318" data-name="Trazado 318" d="M378.9,253.94a10.01,10.01,0,0,0-.468,1.539l-3.218.191c.1-.282.181-.548.272-.784a2.4,2.4,0,0,1,.5-.774A12.5,12.5,0,0,1,378.9,253.94Z" transform="translate(-328.845 -250.567)" fill="#263238"/>
          <path id="Trazado_319" data-name="Trazado 319" d="M397.792,254.956v.035a4.5,4.5,0,0,1-.04.714l-2.942-.382c.111-.81.191-1.393.171-1.423a11.741,11.741,0,0,1,2.65.181A2.011,2.011,0,0,1,397.792,254.956Z" transform="translate(-338.589 -250.547)" fill="#263238"/>
          <path id="Trazado_320" data-name="Trazado 320" d="M367.3,267.781c-.347-.729,4.083-1.317,5.933-1.006s12.485,23.266,12.485,38.215c0,15.085-3.786,32.5-4.6,33.237s-8.367.981-8.548,0,3.414-21.863,3.329-33.75C375.874,298.267,372.485,278.733,367.3,267.781Z" transform="translate(-324.903 -256.906)" fill="#263238"/>
          <path id="Trazado_321" data-name="Trazado 321" d="M396.977,266.416c-.342-.729,3.168-.689,5.028-.382s17.01,27.595,17.01,42.534c0,15.085-7.341,25.548-8.146,26.288s-6.728,2.052-6.894,1.071,6.114-14.8,6.26-26.68C410.312,300.236,402.141,277.388,396.977,266.416Z" transform="translate(-339.655 -256.476)" fill="#263238"/>
          <path id="Trazado_322" data-name="Trazado 322" d="M313.542,370.534c-.05-1.7-.191-3.394-.367-5.089s-.352-3.424-.613-5.124c-.287-1.866-.6-3.741-1.046-5.571h-.045c.5,3.364,1.006,6.713,1.3,10.1.146,1.715.2,3.434.282,5.149s.131,3.359.136,5.028c0,1.911.06,3.842-.045,5.752,0,.05.075.045.075,0,.121-1.72.3-3.434.342-5.159S313.592,372.233,313.542,370.534Z" transform="translate(-297.155 -300.687)" fill="#263238"/>
          <path id="Trazado_323" data-name="Trazado 323" d="M333.78,352.852c-.623.166-1.217.407-1.83.6s-1.232.372-1.85.533c-1.242.327-2.514.6-3.776.8a41.046,41.046,0,0,1-7.774.473q-1.071-.03-2.142-.136c-.759-.075-1.508-.121-2.283-.261-.05,0-.07.065,0,.075.669.141,1.317.322,2.011.432s1.267.191,1.9.261a27.513,27.513,0,0,0,3.912.186,31.717,31.717,0,0,0,7.789-1.212c.724-.206,1.443-.448,2.152-.714a13.367,13.367,0,0,0,2.011-.86.111.111,0,1,0-.121-.186Z" transform="translate(-298.452 -299.735)" fill="#263238"/>
        </g>
        <text id="_" data-name="+ + + + + + +" transform="translate(222 154.468)" fill="#505e70" font-size="20" font-family="Nunito-Bold, Nunito" font-weight="700" opacity="0.2"><tspan x="0" y="0">+ + + + + + +</tspan></text>
        <text id="_48" data-name="48" transform="translate(-67 184.468)" fill="#505e70" font-size="130" font-family="Nunito-Bold, Nunito" font-weight="700" opacity="0.07"><tspan x="0" y="0">48</tspan></text>
      </g>
    </g>
  </g>
</svg>
