<svg xmlns="http://www.w3.org/2000/svg" width="340" height="302" viewBox="0 0 340 302"><defs><style>.a{fill:#f3f6f9;}.b,.c,.d,.e{fill:#38485c;}.b{font-size:13px;letter-spacing:0.002em;}.b,.d,.e{font-family:OpenSans-Regular, Open Sans;}.c{font-size:51px;font-family:Nunito-Bold, Nunito;font-weight:700;letter-spacing:-0.002em;}.d{font-size:22px;letter-spacing:-0.001em;}.e{font-size:16px;}.f{fill:#26874a;}</style></defs><g transform="translate(9509 6432)"><rect class="a" width="340" height="302" rx="8" transform="translate(-9509 -6432)"/><g transform="translate(-9476.566 -6411)"><text class="b" transform="translate(-0.433)"><tspan x="0" y="14">OVERLINE</tspan></text><text class="c" transform="translate(-0.433 22)"><tspan x="0" y="52">Heading 1</tspan></text><text class="d" transform="translate(-0.433 92)"><tspan x="0" y="24">Lorem ipsum dolor sit </tspan><tspan x="0" y="56">amet, consetetur </tspan></text><text class="e" transform="translate(-0.433 166)"><tspan x="0" y="17">Lorem ipsum dolor sit amet, </tspan><tspan x="0" y="41">consetetur sadipscing elitr, sed diam </tspan><tspan x="0" y="65">nonumy eirmod tempor invidunt ut </tspan><tspan x="0" y="89">labore et dolore magna aliquyam </tspan></text></g><path class="f" d="M8,0H8A0,0,0,0,1,8,0V302a0,0,0,0,1,0,0H8a8,8,0,0,1-8-8V8A8,8,0,0,1,8,0Z" transform="translate(-9509 -6432)"/></g></svg>