<svg xmlns="http://www.w3.org/2000/svg" width="340" height="181" viewBox="0 0 340 181"><defs><style>.a{fill:#f3f6f9;}.b,.c,.d{fill:#38485c;}.b{font-size:13px;letter-spacing:0.552em;}.b,.d{font-family:OpenSans-Regular, Open Sans;}.c{font-size:51px;font-family:Nunito-Bold, Nunito;font-weight:700;letter-spacing:-0.097em;}.d{font-size:9px;letter-spacing:-0.001em;}.e{fill:#c93b3b;}</style></defs><g transform="translate(9509 5622)"><rect class="a" width="340" height="181" rx="8" transform="translate(-9509 -5622)"/><g transform="translate(-9476.566 -5602)"><text class="b" transform="translate(-0.433)"><tspan x="0" y="14">OVERLINE</tspan></text><text class="c" transform="translate(-0.433 22)"><tspan x="0" y="52">Heading 1</tspan></text><text class="d" transform="translate(-0.433 92)"><tspan x="0" y="10">Lorem ipsum dolor sit amet, consetetur sadipscing elitr, sed diam </tspan><tspan x="0" y="28">nonumy eirmod tempor invidunt ut labore et dolore magna </tspan><tspan x="0" y="46">aliquyam erat, sed diam voluptua. </tspan></text></g><path class="e" d="M8,0H8A0,0,0,0,1,8,0V181a0,0,0,0,1,0,0H8a8,8,0,0,1-8-8V8A8,8,0,0,1,8,0Z" transform="translate(-9509 -5622)"/></g></svg>