<svg xmlns="http://www.w3.org/2000/svg" width="340" height="306" viewBox="0 0 340 306"><defs><style>.a{fill:#f3f6f9;}.b,.c,.d,.e{fill:#38485c;}.b{font-size:13px;letter-spacing:0.002em;}.b,.d,.e{font-family:OpenSans-Regular, Open Sans;}.c{font-size:51px;font-family:Nunito-Bold, Nunito;font-weight:700;letter-spacing:-0.002em;}.d{font-size:22px;letter-spacing:-0.001em;}.e{font-size:16px;}.f{fill:#c93b3b;}</style></defs><g transform="translate(9509 4703)"><rect class="a" width="340" height="306" rx="8" transform="translate(-9509 -4703)"/><text class="b" transform="translate(-9369 -4682)"><tspan x="0.143" y="14">OVERLINE</tspan></text><text class="c" transform="translate(-9477 -4660)"><tspan x="17.206" y="52">Heading 1</tspan></text><text class="d" transform="translate(-9477 -4590)"><tspan x="22.586" y="24">Lorem ipsum dolor sit </tspan><tspan x="48.13" y="56">amet, consetetur </tspan></text><text class="e" transform="translate(-9477 -4516)"><tspan x="32.73" y="17">Lorem ipsum dolor sit amet, </tspan><tspan x="1.875" y="41">consetetur sadipscing elitr, sed diam </tspan><tspan x="5.699" y="65">nonumy eirmod tempor invidunt ut </tspan><tspan x="14.207" y="89">labore et dolore magna aliquyam </tspan></text><path class="f" d="M8,0H8A0,0,0,0,1,8,0V306a0,0,0,0,1,0,0H8a8,8,0,0,1-8-8V8A8,8,0,0,1,8,0Z" transform="translate(-9509 -4703)"/></g></svg>