<svg xmlns="http://www.w3.org/2000/svg" width="340" height="340" viewBox="0 0 340 340">
  <g id="Grupo_18101" data-name="Grupo 18101" transform="translate(-513 -596)">
    <path id="Trazado_23816" data-name="Trazado 23816" d="M8,0H332a8,8,0,0,1,8,8V332a8,8,0,0,1-8,8H8a8,8,0,0,1-8-8V8A8,8,0,0,1,8,0Z" transform="translate(513 596)" fill="#f3f6f9"/>
    <path id="Trazado_23817" data-name="Trazado 23817" d="M132.99-14.322a11.455,11.455,0,0,1,1.116,4.836,9.245,9.245,0,0,1-3.441,7.254A11.733,11.733,0,0,1,122.76.744a10.568,10.568,0,0,1-5.58-1.581,10.549,10.549,0,0,1-4.092-4.929L101.928-30.69H36.456L25.3-5.766A10.549,10.549,0,0,1,21.2-.837,10.9,10.9,0,0,1,15.438.744,11.847,11.847,0,0,1,7.626-2.232,9.152,9.152,0,0,1,4.092-9.486a11.455,11.455,0,0,1,1.116-4.836l51.336-110.3a12,12,0,0,1,5.115-5.673,14.649,14.649,0,0,1,7.347-1.953,14.649,14.649,0,0,1,7.347,1.953,12,12,0,0,1,5.115,5.673ZM44.64-49.29h49.1L69.192-104.532ZM226.734-92.814a11.715,11.715,0,0,1,8.37,2.976,10.46,10.46,0,0,1,3.162,8V-8.37q0,21.39-11.9,32.364T191.208,34.968q-20.274,0-33.852-7.626-6.882-4.092-6.882-9.858a10.061,10.061,0,0,1,1.953-6.51,6.259,6.259,0,0,1,5.115-2.418,12.937,12.937,0,0,1,4.092.837q2.418.837,5.022,1.953a106.627,106.627,0,0,0,12,4.278,45.2,45.2,0,0,0,12.183,1.488Q215.2,17.112,215.2-6.7V-18.6A28.4,28.4,0,0,1,203.3-6.789,37.222,37.222,0,0,1,185.442-2.6a39.418,39.418,0,0,1-21.111-5.673,38.986,38.986,0,0,1-14.415-15.9A51.373,51.373,0,0,1,144.708-47.8a52.739,52.739,0,0,1,5.115-23.715,38.031,38.031,0,0,1,14.415-16,39.9,39.9,0,0,1,21.2-5.673A37.222,37.222,0,0,1,203.3-89,28.4,28.4,0,0,1,215.2-77.19v-4.836a10.231,10.231,0,0,1,3.162-7.812A11.715,11.715,0,0,1,226.734-92.814ZM191.58-20.646q11.16,0,17.391-7.254T215.2-47.8q0-12.834-6.231-20.088T191.58-75.144q-10.974,0-17.3,7.254T167.958-47.8q0,12.648,6.324,19.9T191.58-20.646Z" transform="translate(558 827)" fill="#38485c"/>
  </g>
</svg>
