<svg xmlns="http://www.w3.org/2000/svg" width="340" height="340" viewBox="0 0 340 340"><defs><style>.a{fill:#f3f6f9;}.b{fill:#505e70;}.c{fill:#fff;stroke:#505e70;}.d{stroke:none;}.e{fill:none;}</style></defs><g transform="translate(-885 -596)"><rect class="a" width="340" height="340" rx="4" transform="translate(885 596)"/><g transform="translate(963 674.467)"><rect class="b" width="12" height="13" transform="translate(0 -0.467)"/><g class="c" transform="translate(0 49.533)"><rect class="d" width="12" height="12"/><rect class="e" x="0.5" y="0.5" width="11" height="11"/></g><g class="c" transform="translate(0 98.533)"><rect class="d" width="12" height="12"/><rect class="e" x="0.5" y="0.5" width="11" height="11"/></g><g class="c" transform="translate(0 147.533)"><rect class="d" width="12" height="12"/><rect class="e" x="0.5" y="0.5" width="11" height="11"/></g><g class="c" transform="translate(0 24.533)"><rect class="d" width="12" height="12"/><rect class="e" x="0.5" y="0.5" width="11" height="11"/></g><g class="c" transform="translate(0 73.533)"><rect class="d" width="12" height="12"/><rect class="e" x="0.5" y="0.5" width="11" height="11"/></g><g class="c" transform="translate(0 122.533)"><rect class="d" width="12" height="12"/><rect class="e" x="0.5" y="0.5" width="11" height="11"/></g><g class="c" transform="translate(0 171.533)"><rect class="d" width="12" height="12"/><rect class="e" x="0.5" y="0.5" width="11" height="11"/></g><g class="c" transform="translate(98 -0.467)"><rect class="d" width="12" height="13"/><rect class="e" x="0.5" y="0.5" width="11" height="12"/></g><g class="c" transform="translate(98 49.533)"><rect class="d" width="12" height="12"/><rect class="e" x="0.5" y="0.5" width="11" height="11"/></g><g class="c" transform="translate(98 98.533)"><rect class="d" width="12" height="12"/><rect class="e" x="0.5" y="0.5" width="11" height="11"/></g><g class="c" transform="translate(98 147.533)"><rect class="d" width="12" height="12"/><rect class="e" x="0.5" y="0.5" width="11" height="11"/></g><g class="c" transform="translate(98 24.533)"><rect class="d" width="12" height="12"/><rect class="e" x="0.5" y="0.5" width="11" height="11"/></g><g class="c" transform="translate(98 73.533)"><rect class="d" width="12" height="12"/><rect class="e" x="0.5" y="0.5" width="11" height="11"/></g><g class="c" transform="translate(98 122.533)"><rect class="d" width="12" height="12"/><rect class="e" x="0.5" y="0.5" width="11" height="11"/></g><g class="c" transform="translate(98 171.533)"><rect class="d" width="12" height="12"/><rect class="e" x="0.5" y="0.5" width="11" height="11"/></g><g class="c" transform="translate(49 -0.467)"><rect class="d" width="12" height="13"/><rect class="e" x="0.5" y="0.5" width="11" height="12"/></g><g class="c" transform="translate(49 49.533)"><rect class="d" width="12" height="12"/><rect class="e" x="0.5" y="0.5" width="11" height="11"/></g><g class="c" transform="translate(49 98.533)"><rect class="d" width="12" height="12"/><rect class="e" x="0.5" y="0.5" width="11" height="11"/></g><g class="c" transform="translate(49 147.533)"><rect class="d" width="12" height="12"/><rect class="e" x="0.5" y="0.5" width="11" height="11"/></g><g class="c" transform="translate(49 24.533)"><rect class="d" width="12" height="12"/><rect class="e" x="0.5" y="0.5" width="11" height="11"/></g><g class="c" transform="translate(49 73.533)"><rect class="d" width="12" height="12"/><rect class="e" x="0.5" y="0.5" width="11" height="11"/></g><g class="c" transform="translate(49 122.533)"><rect class="d" width="12" height="12"/><rect class="e" x="0.5" y="0.5" width="11" height="11"/></g><g class="c" transform="translate(49 171.533)"><rect class="d" width="12" height="12"/><rect class="e" x="0.5" y="0.5" width="11" height="11"/></g><g class="c" transform="translate(147 -0.467)"><rect class="d" width="12" height="13"/><rect class="e" x="0.5" y="0.5" width="11" height="12"/></g><g class="c" transform="translate(147 49.533)"><rect class="d" width="12" height="12"/><rect class="e" x="0.5" y="0.5" width="11" height="11"/></g><g class="c" transform="translate(147 98.533)"><rect class="d" width="12" height="12"/><rect class="e" x="0.5" y="0.5" width="11" height="11"/></g><g class="c" transform="translate(147 147.533)"><rect class="d" width="12" height="12"/><rect class="e" x="0.5" y="0.5" width="11" height="11"/></g><g class="c" transform="translate(147 24.533)"><rect class="d" width="12" height="12"/><rect class="e" x="0.5" y="0.5" width="11" height="11"/></g><g class="c" transform="translate(147 73.533)"><rect class="d" width="12" height="12"/><rect class="e" x="0.5" y="0.5" width="11" height="11"/></g><g class="c" transform="translate(147 122.533)"><rect class="d" width="12" height="12"/><rect class="e" x="0.5" y="0.5" width="11" height="11"/></g><g class="c" transform="translate(147 171.533)"><rect class="d" width="12" height="12"/><rect class="e" x="0.5" y="0.5" width="11" height="11"/></g><g class="c" transform="translate(25 -0.467)"><rect class="d" width="12" height="13"/><rect class="e" x="0.5" y="0.5" width="11" height="12"/></g><g class="c" transform="translate(25 49.533)"><rect class="d" width="12" height="12"/><rect class="e" x="0.5" y="0.5" width="11" height="11"/></g><g class="c" transform="translate(25 98.533)"><rect class="d" width="12" height="12"/><rect class="e" x="0.5" y="0.5" width="11" height="11"/></g><g class="c" transform="translate(25 147.533)"><rect class="d" width="12" height="12"/><rect class="e" x="0.5" y="0.5" width="11" height="11"/></g><g class="c" transform="translate(25 24.533)"><rect class="d" width="12" height="12"/><rect class="e" x="0.5" y="0.5" width="11" height="11"/></g><g class="c" transform="translate(25 73.533)"><rect class="d" width="12" height="12"/><rect class="e" x="0.5" y="0.5" width="11" height="11"/></g><g class="c" transform="translate(25 122.533)"><rect class="d" width="12" height="12"/><rect class="e" x="0.5" y="0.5" width="11" height="11"/></g><g class="c" transform="translate(25 171.533)"><rect class="d" width="12" height="12"/><rect class="e" x="0.5" y="0.5" width="11" height="11"/></g><g class="c" transform="translate(123 -0.467)"><rect class="d" width="12" height="13"/><rect class="e" x="0.5" y="0.5" width="11" height="12"/></g><g class="c" transform="translate(123 49.533)"><rect class="d" width="12" height="12"/><rect class="e" x="0.5" y="0.5" width="11" height="11"/></g><g class="c" transform="translate(123 98.533)"><rect class="d" width="12" height="12"/><rect class="e" x="0.5" y="0.5" width="11" height="11"/></g><g class="c" transform="translate(123 147.533)"><rect class="d" width="12" height="12"/><rect class="e" x="0.5" y="0.5" width="11" height="11"/></g><g class="c" transform="translate(123 24.533)"><rect class="d" width="12" height="12"/><rect class="e" x="0.5" y="0.5" width="11" height="11"/></g><g class="c" transform="translate(123 73.533)"><rect class="d" width="12" height="12"/><rect class="e" x="0.5" y="0.5" width="11" height="11"/></g><g class="c" transform="translate(123 122.533)"><rect class="d" width="12" height="12"/><rect class="e" x="0.5" y="0.5" width="11" height="11"/></g><g class="c" transform="translate(123 171.533)"><rect class="d" width="12" height="12"/><rect class="e" x="0.5" y="0.5" width="11" height="11"/></g><g class="c" transform="translate(74 -0.467)"><rect class="d" width="12" height="13"/><rect class="e" x="0.5" y="0.5" width="11" height="12"/></g><g class="c" transform="translate(74 49.533)"><rect class="d" width="12" height="12"/><rect class="e" x="0.5" y="0.5" width="11" height="11"/></g><g class="c" transform="translate(74 98.533)"><rect class="d" width="12" height="12"/><rect class="e" x="0.5" y="0.5" width="11" height="11"/></g><g class="c" transform="translate(74 147.533)"><rect class="d" width="12" height="12"/><rect class="e" x="0.5" y="0.5" width="11" height="11"/></g><g class="c" transform="translate(74 24.533)"><rect class="d" width="12" height="12"/><rect class="e" x="0.5" y="0.5" width="11" height="11"/></g><g class="c" transform="translate(74 73.533)"><rect class="d" width="12" height="12"/><rect class="e" x="0.5" y="0.5" width="11" height="11"/></g><g class="c" transform="translate(74 122.533)"><rect class="d" width="12" height="12"/><rect class="e" x="0.5" y="0.5" width="11" height="11"/></g><g class="c" transform="translate(74 171.533)"><rect class="d" width="12" height="12"/><rect class="e" x="0.5" y="0.5" width="11" height="11"/></g><g class="c" transform="translate(172 -0.467)"><rect class="d" width="12" height="13"/><rect class="e" x="0.5" y="0.5" width="11" height="12"/></g><g class="c" transform="translate(172 49.533)"><rect class="d" width="12" height="12"/><rect class="e" x="0.5" y="0.5" width="11" height="11"/></g><g class="c" transform="translate(172 98.533)"><rect class="d" width="12" height="12"/><rect class="e" x="0.5" y="0.5" width="11" height="11"/></g><g class="c" transform="translate(172 147.533)"><rect class="d" width="12" height="12"/><rect class="e" x="0.5" y="0.5" width="11" height="11"/></g><g class="c" transform="translate(172 24.533)"><rect class="d" width="12" height="12"/><rect class="e" x="0.5" y="0.5" width="11" height="11"/></g><g class="c" transform="translate(172 73.533)"><rect class="d" width="12" height="12"/><rect class="e" x="0.5" y="0.5" width="11" height="11"/></g><g class="c" transform="translate(172 122.533)"><rect class="d" width="12" height="12"/><rect class="e" x="0.5" y="0.5" width="11" height="11"/></g><g class="c" transform="translate(172 171.533)"><rect class="d" width="12" height="12"/><rect class="e" x="0.5" y="0.5" width="11" height="11"/></g></g></g></svg>