<svg xmlns="http://www.w3.org/2000/svg" width="340" height="170" viewBox="0 0 340 170"><defs><style>.a{fill:#f3f6f9;}.b,.d{fill:#d1d8e0;}.b,.e{stroke:#38485c;stroke-dasharray:5 2;}.c{fill:#fff;}.e{fill:#9eaab8;}</style></defs><g transform="translate(-885 -4959)"><rect class="a" width="340" height="170" rx="8" transform="translate(885 4959)"/><path class="b" transform="translate(978.711 5004.09)"/><path class="b" transform="translate(1131.812 5004.265) rotate(90)"/><rect class="c" width="254.303" height="121.61" transform="translate(925.444 4983)"/><rect class="d" width="17" height="122" transform="translate(929 4983)"/><rect class="d" width="17" height="122" transform="translate(950 4983)"/><rect class="d" width="17" height="122" transform="translate(971 4983)"/><rect class="d" width="17" height="122" transform="translate(992 4983)"/><rect class="d" width="17" height="122" transform="translate(1013 4983)"/><rect class="d" width="17" height="122" transform="translate(1034 4983)"/><rect class="d" width="17" height="122" transform="translate(1055 4983)"/><rect class="d" width="17" height="122" transform="translate(1076 4983)"/><rect class="d" width="17" height="122" transform="translate(1097 4983)"/><rect class="d" width="17" height="122" transform="translate(1118 4983)"/><rect class="d" width="17" height="122" transform="translate(1139 4983)"/><rect class="d" width="17" height="122" transform="translate(1160 4983)"/><g transform="translate(925 4983)"><path class="e" d="M0,122V0" transform="translate(254.747 0.09)"/><path class="e" d="M0,122V0" transform="translate(0 0.09)"/><path class="e" d="M0,254.558V0" transform="translate(254.559 122.094) rotate(90)"/><path class="e" d="M0,254.558V0" transform="translate(254.559) rotate(90)"/></g></g></svg>