<svg xmlns="http://www.w3.org/2000/svg" width="712" height="356" viewBox="0 0 712 356"><defs><style>.a{fill:#f3f6f9;}.b{fill:#fff;}.c,.d{fill:#d1d8e0;}.c{stroke:#38485c;stroke-dasharray:5 2;}.e{fill:#38485c;}</style></defs><g transform="translate(-885 -6057)"><rect class="a" width="712" height="356" rx="8" transform="translate(885 6057)"/><rect class="b" width="633.052" height="254.666" rx="4" transform="translate(924.788 6107.259)"/><g transform="translate(981.329 6107.259)"><path class="c" transform="translate(104.101 0.188)"/><path class="c" transform="translate(424.712 0.554) rotate(90)"/><rect class="d" width="36" height="256" transform="translate(-0.329 -0.259)"/><rect class="d" width="36" height="256" transform="translate(43.671 -0.259)"/><rect class="d" width="36" height="256" transform="translate(87.671 -0.259)"/><rect class="d" width="36" height="256" transform="translate(131.671 -0.259)"/><rect class="d" width="36" height="256" transform="translate(175.671 -0.259)"/><rect class="d" width="36" height="256" transform="translate(219.671 -0.259)"/><rect class="d" width="36" height="256" transform="translate(263.671 -0.259)"/><rect class="d" width="36" height="256" transform="translate(307.671 -0.259)"/><rect class="d" width="36" height="256" transform="translate(351.671 -0.259)"/><rect class="d" width="36" height="256" transform="translate(395.671 -0.259)"/><rect class="d" width="36" height="256" transform="translate(439.671 -0.259)"/><rect class="d" width="36" height="256" transform="translate(483.671 -0.259)"/></g><g transform="translate(981.329 6115.635)"><rect class="e" width="344" height="50" transform="translate(-0.329 0.365)"/><rect class="e" width="168" height="50" transform="translate(351.671 0.365)"/></g><g transform="translate(981.329 6178.459)"><rect class="e" width="168" height="51" transform="translate(-0.329 -0.459)"/><rect class="e" width="344" height="51" transform="translate(175.671 -0.459)"/></g><g transform="translate(981.329 6304.106)"><rect class="e" width="168" height="50" transform="translate(-0.329 -0.106)"/><rect class="e" width="168" height="50" transform="translate(175.671 -0.106)"/><rect class="e" width="168" height="50" transform="translate(351.671 -0.106)"/></g><g transform="translate(981.329 6241.282)"><rect class="e" width="124" height="51" transform="translate(-0.329 -0.282)"/><rect class="e" width="124" height="51" transform="translate(131.671 -0.282)"/><rect class="e" width="124" height="51" transform="translate(263.671 -0.282)"/><rect class="e" width="124" height="51" transform="translate(395.671 -0.282)"/></g></g></svg>