<svg xmlns="http://www.w3.org/2000/svg" xmlns:xlink="http://www.w3.org/1999/xlink" width="712" height="367" viewBox="0 0 712 367"><defs><style>.a{fill:#f3f6f9;}.b,.g{fill:#007bc7;}.b,.d{opacity:0.24;}.c,.e,.f{fill:none;}.c{stroke:#007bc7;}.c,.e{stroke-dasharray:5 2;}.d,.j{fill:#38485c;}.e{stroke:#38485c;}.h{fill:#fff;}.i{fill:#e6ebf0;}.k{filter:url(#c);}.l{filter:url(#a);}</style><filter id="a" x="104" y="11" width="261" height="207" filterUnits="userSpaceOnUse"><feOffset input="SourceAlpha"/><feGaussianBlur stdDeviation="6" result="b"/><feFlood flood-color="#38485c" flood-opacity="0.161"/><feComposite operator="in" in2="b"/><feComposite in="SourceGraphic"/></filter><filter id="c" x="348" y="11" width="261" height="207" filterUnits="userSpaceOnUse"><feOffset input="SourceAlpha"/><feGaussianBlur stdDeviation="6" result="d"/><feFlood flood-color="#38485c" flood-opacity="0.161"/><feComposite operator="in" in2="d"/><feComposite in="SourceGraphic"/></filter></defs><g transform="translate(-513 -1490)"><path class="a" d="M4,0H708c2.209,0,4,1.3,4,2.907V364.093c0,1.605-1.791,2.907-4,2.907H4c-2.209,0-4-1.3-4-2.907V2.907C0,1.3,1.791,0,4,0Z" transform="translate(513 1490)"/><g transform="translate(715.86 1770) rotate(90)"><rect class="b" width="10" height="32" transform="translate(32 -0.14) rotate(90)"/><path class="c" d="M0,32V0" transform="translate(32 9.814) rotate(90)"/><path class="c" d="M0,32V0" transform="translate(32 0.093) rotate(90)"/></g><g transform="translate(750.86 1770) rotate(90)"><rect class="b" width="10" height="32" transform="translate(32 -0.14) rotate(90)"/><path class="c" d="M0,32V0" transform="translate(32 9.814) rotate(90)"/><path class="c" d="M0,32V0" transform="translate(32 0.093) rotate(90)"/></g><g transform="translate(784.86 1770) rotate(90)"><rect class="b" width="10" height="32" transform="translate(32 -0.14) rotate(90)"/><path class="c" d="M0,32V0" transform="translate(32 9.814) rotate(90)"/><path class="c" d="M0,32V0" transform="translate(32 0.093) rotate(90)"/></g><g transform="translate(819.86 1770) rotate(90)"><rect class="b" width="10" height="32" transform="translate(32 -0.14) rotate(90)"/><path class="c" d="M0,32V0" transform="translate(32 9.814) rotate(90)"/><path class="c" d="M0,32V0" transform="translate(32 0.093) rotate(90)"/></g><g transform="translate(853.86 1770) rotate(90)"><rect class="b" width="10" height="32" transform="translate(32 -0.14) rotate(90)"/><path class="c" d="M0,32V0" transform="translate(32 9.814) rotate(90)"/><path class="c" d="M0,32V0" transform="translate(32 0.093) rotate(90)"/></g><g transform="translate(887.86 1770) rotate(90)"><rect class="b" width="10" height="32" transform="translate(32 -0.14) rotate(90)"/><path class="c" d="M0,32V0" transform="translate(32 9.814) rotate(90)"/><path class="c" d="M0,32V0" transform="translate(32 0.093) rotate(90)"/></g><g transform="translate(921.86 1770) rotate(90)"><rect class="b" width="10" height="32" transform="translate(32 -0.14) rotate(90)"/><path class="c" d="M0,32V0" transform="translate(32 9.814) rotate(90)"/><path class="c" d="M0,32V0" transform="translate(32 0.093) rotate(90)"/></g><g transform="translate(955.86 1770) rotate(90)"><rect class="b" width="10" height="32" transform="translate(32 -0.14) rotate(90)"/><path class="c" d="M0,32V0" transform="translate(32 9.814) rotate(90)"/><path class="c" d="M0,32V0" transform="translate(32 0.093) rotate(90)"/></g><g transform="translate(990.86 1770) rotate(90)"><rect class="b" width="10" height="32" transform="translate(32 -0.14) rotate(90)"/><path class="c" d="M0,32V0" transform="translate(32 9.814) rotate(90)"/><path class="c" d="M0,32V0" transform="translate(32 0.093) rotate(90)"/></g><g transform="translate(1023.86 1770) rotate(90)"><rect class="b" width="10" height="32" transform="translate(32 -0.14) rotate(90)"/><path class="c" d="M0,32V0" transform="translate(32 9.814) rotate(90)"/><path class="c" d="M0,32V0" transform="translate(32 0.093) rotate(90)"/></g><g transform="translate(635.048 1690)"><rect class="d" width="80" height="32" transform="translate(31.952) rotate(90)"/><path class="e" d="M0,31.977V0" transform="translate(31.952 79.702) rotate(90)"/><path class="e" d="M0,31.977V0" transform="translate(31.952) rotate(90)"/></g><g transform="translate(0 40)"><g transform="translate(644 1373)"><path class="f" d="M0,0H99.172V25.844H0Z" transform="translate(480 387.844) rotate(180)"/><path class="g" d="M8.016-3.039A2.8,2.8,0,0,1,6.922-.687,4.743,4.743,0,0,1,3.953.156,7.436,7.436,0,0,1,.828-.367V-1.648a8.227,8.227,0,0,0,1.531.469A8.056,8.056,0,0,0,4-1.008a3.31,3.31,0,0,0,2-.5,1.654,1.654,0,0,0,.672-1.4,1.8,1.8,0,0,0-.238-.973,2.214,2.214,0,0,0-.8-.7,11.148,11.148,0,0,0-1.7-.727A5.424,5.424,0,0,1,1.66-6.664,2.984,2.984,0,0,1,.977-8.7a2.536,2.536,0,0,1,.992-2.1,4.123,4.123,0,0,1,2.625-.781,7.736,7.736,0,0,1,3.133.625L7.313-9.8a7.08,7.08,0,0,0-2.75-.594,2.661,2.661,0,0,0-1.648.453A1.493,1.493,0,0,0,2.32-8.687a1.928,1.928,0,0,0,.219.973,2.06,2.06,0,0,0,.738.7,9.173,9.173,0,0,0,1.59.7A6.294,6.294,0,0,1,7.34-4.945,2.7,2.7,0,0,1,8.016-3.039ZM11.453,0h-1.3V-8.562h1.3ZM10.047-10.883a.861.861,0,0,1,.219-.652.764.764,0,0,1,.547-.207.764.764,0,0,1,.539.211.846.846,0,0,1,.227.648.859.859,0,0,1-.227.652.757.757,0,0,1-.539.215.749.749,0,0,1-.547-.215A.877.877,0,0,1,10.047-10.883Zm11.164,2.32v.82l-1.586.188a2.726,2.726,0,0,1,.391.715,2.727,2.727,0,0,1,.172,1,2.531,2.531,0,0,1-.859,2.008,3.467,3.467,0,0,1-2.359.75,3.929,3.929,0,0,1-.719-.062,1.276,1.276,0,0,0-.828,1.1.56.56,0,0,0,.289.52,2.112,2.112,0,0,0,.992.168h1.516a3.394,3.394,0,0,1,2.137.586A2.036,2.036,0,0,1,21.1.93,2.431,2.431,0,0,1,19.961,3.1a6.1,6.1,0,0,1-3.328.746,4.547,4.547,0,0,1-2.59-.625,2.018,2.018,0,0,1-.91-1.766A1.983,1.983,0,0,1,13.633.1a2.546,2.546,0,0,1,1.406-.773,1.357,1.357,0,0,1-.551-.461,1.22,1.22,0,0,1-.223-.727,1.379,1.379,0,0,1,.25-.82,2.628,2.628,0,0,1,.789-.68,2.313,2.313,0,0,1-1.082-.93,2.732,2.732,0,0,1-.418-1.5,2.771,2.771,0,0,1,.844-2.168,3.445,3.445,0,0,1,2.391-.762,4.347,4.347,0,0,1,1.211.156Zm-6.828,10a1.162,1.162,0,0,0,.586,1.055,3.234,3.234,0,0,0,1.68.359,4.687,4.687,0,0,0,2.418-.488,1.5,1.5,0,0,0,.785-1.324,1.048,1.048,0,0,0-.43-.965A3.337,3.337,0,0,0,17.8-.2H16.25a2.048,2.048,0,0,0-1.375.422A1.507,1.507,0,0,0,14.383,1.438Zm.7-7.258a1.743,1.743,0,0,0,.508,1.359A2.028,2.028,0,0,0,17.008-4a1.654,1.654,0,0,0,1.9-1.844,1.7,1.7,0,0,0-1.922-1.93,1.9,1.9,0,0,0-1.406.492A1.982,1.982,0,0,0,15.086-5.82Zm9.1-2.742v5.555a2.235,2.235,0,0,0,.477,1.563,1.941,1.941,0,0,0,1.492.516,2.435,2.435,0,0,0,1.965-.734,3.7,3.7,0,0,0,.621-2.4v-4.5h1.3V0h-1.07l-.187-1.148h-.07a2.585,2.585,0,0,1-1.105.969,3.716,3.716,0,0,1-1.613.336,3.273,3.273,0,0,1-2.34-.742,3.159,3.159,0,0,1-.777-2.375v-5.6ZM34.086,0h-1.3V-8.562h1.3ZM32.68-10.883a.861.861,0,0,1,.219-.652.764.764,0,0,1,.547-.207.764.764,0,0,1,.539.211.846.846,0,0,1,.227.648.859.859,0,0,1-.227.652.757.757,0,0,1-.539.215.749.749,0,0,1-.547-.215A.877.877,0,0,1,32.68-10.883ZM40.453.156a3.934,3.934,0,0,1-3-1.156,4.476,4.476,0,0,1-1.1-3.211A4.964,4.964,0,0,1,37.379-7.5a3.387,3.387,0,0,1,2.738-1.219A3.229,3.229,0,0,1,42.664-7.66,4.057,4.057,0,0,1,43.6-4.867v.82H37.7a3.394,3.394,0,0,0,.762,2.289A2.634,2.634,0,0,0,40.5-.977a6.9,6.9,0,0,0,2.734-.578V-.4a6.863,6.863,0,0,1-1.3.426A7.31,7.31,0,0,1,40.453.156ZM40.1-7.633a2.118,2.118,0,0,0-1.645.672A3.1,3.1,0,0,0,37.734-5.1h4.477a2.851,2.851,0,0,0-.547-1.879A1.925,1.925,0,0,0,40.1-7.633ZM51.672,0V-5.539A2.235,2.235,0,0,0,51.2-7.1,1.941,1.941,0,0,0,49.7-7.617a2.461,2.461,0,0,0-1.969.727,3.668,3.668,0,0,0-.625,2.4V0h-1.3V-8.562h1.055l.211,1.172h.063a2.648,2.648,0,0,1,1.117-.98,3.63,3.63,0,0,1,1.6-.348,3.252,3.252,0,0,1,2.328.746,3.175,3.175,0,0,1,.781,2.387V0ZM58.4-.914a4.236,4.236,0,0,0,.664-.051,4.3,4.3,0,0,0,.508-.105v.992a2.371,2.371,0,0,1-.621.168,4.664,4.664,0,0,1-.738.066q-2.484,0-2.484-2.617V-7.555H54.5V-8.18l1.227-.539.547-1.828h.75v1.984h2.484v1.008H57.023v5.039a1.734,1.734,0,0,0,.367,1.188A1.278,1.278,0,0,0,58.4-.914ZM64.9.156A3.934,3.934,0,0,1,61.9-1a4.476,4.476,0,0,1-1.1-3.211A4.964,4.964,0,0,1,61.824-7.5a3.387,3.387,0,0,1,2.738-1.219A3.229,3.229,0,0,1,67.109-7.66a4.057,4.057,0,0,1,.938,2.793v.82h-5.9a3.394,3.394,0,0,0,.762,2.289,2.634,2.634,0,0,0,2.035.781,6.9,6.9,0,0,0,2.734-.578V-.4a6.863,6.863,0,0,1-1.3.426A7.31,7.31,0,0,1,64.9.156Zm-.352-7.789a2.118,2.118,0,0,0-1.645.672A3.1,3.1,0,0,0,62.18-5.1h4.477a2.851,2.851,0,0,0-.547-1.879A1.925,1.925,0,0,0,64.547-7.633Z" transform="translate(388 379)"/><path class="g" d="M5.707,0,0,5.707l5.707,5.707L7.121,10,2.828,5.707,7.121,1.414Z" transform="translate(472 378.414) rotate(180)"/></g></g><g transform="translate(0 40)"><g transform="translate(647 1373)"><rect class="f" width="24" height="24" transform="translate(343 361)"/><path class="g" d="M-8.234-4.883A8.08,8.08,0,0,1-6.926-9.918a4.621,4.621,0,0,1,3.871-1.668,5.158,5.158,0,0,1,1.391.148v1.117a4.449,4.449,0,0,0-1.375-.2,3.469,3.469,0,0,0-2.8,1.145,5.868,5.868,0,0,0-1.062,3.6h.094A2.991,2.991,0,0,1-4.094-7.117a3.193,3.193,0,0,1,2.426.93A3.5,3.5,0,0,1-.781-3.664a3.891,3.891,0,0,1-.973,2.8A3.462,3.462,0,0,1-4.383.156,3.379,3.379,0,0,1-7.2-1.176,5.893,5.893,0,0,1-8.234-4.883ZM-4.4-.945a2.17,2.17,0,0,0,1.723-.7,2.972,2.972,0,0,0,.613-2.02,2.6,2.6,0,0,0-.57-1.781,2.148,2.148,0,0,0-1.7-.648A2.873,2.873,0,0,0-5.625-5.8a2.386,2.386,0,0,0-.934.8,1.842,1.842,0,0,0-.348,1.055,3.616,3.616,0,0,0,.313,1.5,2.643,2.643,0,0,0,.887,1.1A2.21,2.21,0,0,0-4.4-.945ZM8.352-5.727A8.341,8.341,0,0,1,7.418-1.3,3.154,3.154,0,0,1,4.563.156a3.128,3.128,0,0,1-2.8-1.5A8.175,8.175,0,0,1,.8-5.727a8.338,8.338,0,0,1,.93-4.43A3.14,3.14,0,0,1,4.563-11.6a3.145,3.145,0,0,1,2.824,1.508A8.141,8.141,0,0,1,8.352-5.727Zm-6.242,0A8.365,8.365,0,0,0,2.7-2.1,1.96,1.96,0,0,0,4.563-.961,1.961,1.961,0,0,0,6.441-2.113a8.43,8.43,0,0,0,.582-3.613,8.374,8.374,0,0,0-.582-3.605,1.962,1.962,0,0,0-1.879-1.145A1.961,1.961,0,0,0,2.7-9.348,8.309,8.309,0,0,0,2.109-5.727Z" transform="translate(355 379)"/></g></g><g transform="translate(0 40)"><g transform="translate(613 1373)"><path class="f" d="M0,0H24V24H0Z" transform="translate(343 361)"/><path class="g" d="M-5.2-.828a1.164,1.164,0,0,1,.238-.793.864.864,0,0,1,.684-.27.924.924,0,0,1,.707.27,1.116,1.116,0,0,1,.254.793,1.1,1.1,0,0,1-.258.781.92.92,0,0,1-.7.273.926.926,0,0,1-.66-.246A1.07,1.07,0,0,1-5.2-.828Zm4.258,0A1.164,1.164,0,0,1-.7-1.621a.864.864,0,0,1,.684-.27.924.924,0,0,1,.707.27,1.116,1.116,0,0,1,.254.793,1.1,1.1,0,0,1-.258.781.92.92,0,0,1-.7.273A.926.926,0,0,1-.68-.02,1.07,1.07,0,0,1-.941-.828Zm4.258,0a1.164,1.164,0,0,1,.238-.793.864.864,0,0,1,.684-.27.924.924,0,0,1,.707.27A1.116,1.116,0,0,1,5.2-.828a1.1,1.1,0,0,1-.258.781.92.92,0,0,1-.7.273.926.926,0,0,1-.66-.246A1.07,1.07,0,0,1,3.316-.828Z" transform="translate(355 379)"/></g></g><g transform="translate(0 40)"><g transform="translate(579 1373)"><rect class="f" width="24" height="24" transform="translate(343 361)"/><path class="g" d="M-2.348,0,2.387-10.227H-3.84v-1.2h7.6v1.039L-.91,0Z" transform="translate(355 379)"/></g></g><g transform="translate(0 40)"><g transform="translate(545 1373)"><rect class="f" width="24" height="24" transform="translate(343 361)"/><path class="g" d="M-3.66-4.883A8.08,8.08,0,0,1-2.352-9.918,4.621,4.621,0,0,1,1.52-11.586a5.158,5.158,0,0,1,1.391.148v1.117a4.449,4.449,0,0,0-1.375-.2,3.469,3.469,0,0,0-2.8,1.145,5.868,5.868,0,0,0-1.062,3.6h.094A2.991,2.991,0,0,1,.48-7.117a3.193,3.193,0,0,1,2.426.93,3.5,3.5,0,0,1,.887,2.523,3.891,3.891,0,0,1-.973,2.8A3.462,3.462,0,0,1,.191.156,3.379,3.379,0,0,1-2.621-1.176,5.893,5.893,0,0,1-3.66-4.883ZM.176-.945a2.17,2.17,0,0,0,1.723-.7,2.972,2.972,0,0,0,.613-2.02,2.6,2.6,0,0,0-.57-1.781,2.148,2.148,0,0,0-1.7-.648A2.873,2.873,0,0,0-1.051-5.8a2.386,2.386,0,0,0-.934.8,1.842,1.842,0,0,0-.348,1.055,3.616,3.616,0,0,0,.313,1.5,2.643,2.643,0,0,0,.887,1.1A2.21,2.21,0,0,0,.176-.945Z" transform="translate(355 379)"/></g></g><g transform="translate(0 40)"><g transform="translate(511 1373)"><rect class="f" width="24" height="24" transform="translate(343 361)"/><path class="g" d="M-.223-6.977a4.2,4.2,0,0,1,2.84.895A3.068,3.068,0,0,1,3.652-3.633,3.537,3.537,0,0,1,2.523-.852,4.509,4.509,0,0,1-.59.156,5.729,5.729,0,0,1-3.535-.461v-1.25a4.476,4.476,0,0,0,1.359.551,6.708,6.708,0,0,0,1.6.2,3.2,3.2,0,0,0,2.137-.648,2.326,2.326,0,0,0,.762-1.875q0-2.391-2.93-2.391a11.664,11.664,0,0,0-1.984.227l-.672-.43.43-5.344h5.68v1.2h-4.57L-2.012-6.8A9.1,9.1,0,0,1-.223-6.977Z" transform="translate(355 379)"/></g></g><g transform="translate(0 40)"><g transform="translate(477 1373)"><rect class="f" width="24" height="24" transform="translate(343 361)"/><path class="g" d="M4.254-2.625h-1.7V0H1.316V-2.625H-4.238V-3.758l5.422-7.727H2.559V-3.8h1.7ZM1.316-3.8V-7.6q0-1.117.078-2.523H1.332a11.739,11.739,0,0,1-.7,1.242L-2.941-3.8Z" transform="translate(355 379)"/></g></g><g transform="translate(0 40)"><g transform="translate(479 1373)"><rect class="f" width="24" height="24" transform="translate(306 361)"/><path class="g" d="M3.285-8.734a2.6,2.6,0,0,1-.613,1.789,3.07,3.07,0,0,1-1.738.93v.063a3.269,3.269,0,0,1,2.039.875,2.575,2.575,0,0,1,.664,1.844A2.991,2.991,0,0,1,2.5-.723,5.152,5.152,0,0,1-.715.156,9.328,9.328,0,0,1-2.375.02,5.682,5.682,0,0,1-3.84-.461V-1.7a7.123,7.123,0,0,0,1.582.559,7.165,7.165,0,0,0,1.59.191q2.961,0,2.961-2.32,0-2.078-3.266-2.078H-2.1V-6.461H-.957a3.434,3.434,0,0,0,2.117-.59,1.935,1.935,0,0,0,.781-1.637A1.613,1.613,0,0,0,1.367-10a2.366,2.366,0,0,0-1.559-.477,4.809,4.809,0,0,0-1.414.2,6.328,6.328,0,0,0-1.516.75l-.656-.875a5.471,5.471,0,0,1,1.621-.871,5.892,5.892,0,0,1,1.934-.316,3.951,3.951,0,0,1,2.586.762A2.565,2.565,0,0,1,3.285-8.734Z" transform="translate(318 379)"/></g></g><g transform="translate(0 40)"><g transform="translate(481 1373)"><rect class="g" width="24" height="24" rx="4" transform="translate(270 361)"/><path class="h" d="M3.715,0H-3.793V-1.117L-.785-4.141A22.149,22.149,0,0,0,1.027-6.125a5.064,5.064,0,0,0,.656-1.156A3.312,3.312,0,0,0,1.9-8.492a1.92,1.92,0,0,0-.555-1.449,2.125,2.125,0,0,0-1.539-.535,3.87,3.87,0,0,0-1.348.234,5.372,5.372,0,0,0-1.418.852l-.687-.883A5.265,5.265,0,0,1-.207-11.586a3.632,3.632,0,0,1,2.523.824A2.835,2.835,0,0,1,3.23-8.547,4.277,4.277,0,0,1,2.621-6.4,13.64,13.64,0,0,1,.34-3.711l-2.5,2.445V-1.2H3.715Z" transform="translate(282 379)"/></g></g><g transform="translate(0 40)"><g transform="translate(483 1373)"><rect class="f" width="24" height="24" transform="translate(233 361)"/><path class="g" d="M1.012,0H-.254V-8.141q0-1.016.063-1.922-.164.164-.367.344T-2.418-8.2l-.687-.891,3.023-2.336H1.012Z" transform="translate(245 379)"/></g></g><g transform="translate(0 40)"><g transform="translate(475 1373)"><rect class="f" width="92.117" height="22.156" transform="translate(139 362)"/><path class="g" d="M13.293,6.293,7.586,12l5.707,5.707,1.414-1.414L10.414,12l4.293-4.293Z" transform="translate(139.414 360.707)"/><path class="g" d="M8.75,0,7.328-3.633H2.75L1.344,0H0L4.516-11.469H5.633L10.125,0ZM6.914-4.828,5.586-8.367q-.258-.672-.531-1.648a14.8,14.8,0,0,1-.492,1.648L3.219-4.828ZM17.359,0V-5.539A2.235,2.235,0,0,0,16.883-7.1a1.941,1.941,0,0,0-1.492-.516,2.461,2.461,0,0,0-1.969.727,3.668,3.668,0,0,0-.625,2.4V0H11.5V-8.562h1.055l.211,1.172h.063a2.648,2.648,0,0,1,1.117-.98,3.63,3.63,0,0,1,1.6-.348,3.252,3.252,0,0,1,2.328.746,3.175,3.175,0,0,1,.781,2.387V0Zm6.727-.914a4.236,4.236,0,0,0,.664-.051,4.3,4.3,0,0,0,.508-.105v.992a2.371,2.371,0,0,1-.621.168A4.664,4.664,0,0,1,23.9.156q-2.484,0-2.484-2.617V-7.555H20.188V-8.18l1.227-.539.547-1.828h.75v1.984H25.2v1.008H22.711v5.039a1.734,1.734,0,0,0,.367,1.188A1.278,1.278,0,0,0,24.086-.914Zm6.5,1.07A3.934,3.934,0,0,1,27.59-1a4.476,4.476,0,0,1-1.1-3.211A4.964,4.964,0,0,1,27.512-7.5,3.387,3.387,0,0,1,30.25-8.719,3.229,3.229,0,0,1,32.8-7.66a4.057,4.057,0,0,1,.938,2.793v.82h-5.9A3.394,3.394,0,0,0,28.6-1.758a2.635,2.635,0,0,0,2.035.781,6.9,6.9,0,0,0,2.734-.578V-.4a6.863,6.863,0,0,1-1.3.426A7.31,7.31,0,0,1,30.586.156Zm-.352-7.789a2.118,2.118,0,0,0-1.645.672A3.1,3.1,0,0,0,27.867-5.1h4.477A2.851,2.851,0,0,0,31.8-6.98,1.925,1.925,0,0,0,30.234-7.633Zm9.617-1.086a5.075,5.075,0,0,1,1.023.094l-.18,1.2a4.418,4.418,0,0,0-.937-.117A2.282,2.282,0,0,0,37.98-6.7a3.077,3.077,0,0,0-.738,2.1V0h-1.3V-8.562h1.07l.148,1.586h.063a3.764,3.764,0,0,1,1.148-1.289A2.585,2.585,0,0,1,39.852-8.719ZM43.773,0h-1.3V-8.562h1.3ZM42.367-10.883a.861.861,0,0,1,.219-.652.764.764,0,0,1,.547-.207.764.764,0,0,1,.539.211.846.846,0,0,1,.227.648.859.859,0,0,1-.227.652.757.757,0,0,1-.539.215.749.749,0,0,1-.547-.215A.877.877,0,0,1,42.367-10.883ZM53.914-4.289a4.724,4.724,0,0,1-1.055,3.27A3.714,3.714,0,0,1,49.945.156a3.86,3.86,0,0,1-2.039-.539A3.558,3.558,0,0,1,46.531-1.93a5.391,5.391,0,0,1-.484-2.359,4.716,4.716,0,0,1,1.047-3.262A3.7,3.7,0,0,1,50-8.719a3.622,3.622,0,0,1,2.855,1.2A4.7,4.7,0,0,1,53.914-4.289Zm-6.523,0a4.064,4.064,0,0,0,.656,2.5,2.278,2.278,0,0,0,1.93.859,2.293,2.293,0,0,0,1.934-.855,4.043,4.043,0,0,0,.66-2.5,3.978,3.978,0,0,0-.66-2.48,2.32,2.32,0,0,0-1.949-.848,2.283,2.283,0,0,0-1.922.836A4.023,4.023,0,0,0,47.391-4.289Zm12.7-4.43a5.075,5.075,0,0,1,1.023.094l-.18,1.2A4.418,4.418,0,0,0,60-7.539a2.282,2.282,0,0,0-1.777.844,3.077,3.077,0,0,0-.738,2.1V0h-1.3V-8.562h1.07l.148,1.586h.063a3.764,3.764,0,0,1,1.148-1.289A2.585,2.585,0,0,1,60.094-8.719Z" transform="translate(162 379)"/></g></g><g transform="translate(122 -2089)"><g class="l" transform="matrix(1, 0, 0, 1, 391, 3579)"><rect class="h" width="225" height="171" rx="4" transform="translate(122 29)"/></g><rect class="i" width="201" height="96" transform="translate(525 3620)"/><rect class="i" width="201" height="14" transform="translate(525 3722)"/><rect class="i" width="201" height="6" transform="translate(525 3742)"/><rect class="i" width="201" height="6" transform="translate(525 3750)"/><rect class="i" width="201" height="6" transform="translate(525 3758)"/><g class="k" transform="matrix(1, 0, 0, 1, 391, 3579)"><rect class="h" width="225" height="171" rx="4" transform="translate(366 29)"/></g><rect class="i" width="201" height="96" transform="translate(769 3620)"/><rect class="i" width="201" height="14" transform="translate(769 3722)"/><rect class="i" width="201" height="6" transform="translate(769 3742)"/><rect class="i" width="201" height="6" transform="translate(769 3750)"/><rect class="i" width="201" height="6" transform="translate(769 3758)"/></g><path class="j" d="M-10.544-1.664q.96,0,.96.816,0,.848-.96.848h-5.408q-.976,0-.976-.848,0-.816.976-.816h1.664v-7.3l-1.536.944a.827.827,0,0,1-.4.128.7.7,0,0,1-.568-.288,1,1,0,0,1-.232-.64.8.8,0,0,1,.416-.72l2.48-1.536a1.782,1.782,0,0,1,.912-.288.973.973,0,0,1,.72.272,1.016,1.016,0,0,1,.272.752v8.672ZM-4.176.144a3.522,3.522,0,0,1-3.056-1.48A7.383,7.383,0,0,1-8.288-5.648a7.35,7.35,0,0,1,1.056-4.3,3.522,3.522,0,0,1,3.056-1.48A3.522,3.522,0,0,1-1.12-9.944a7.35,7.35,0,0,1,1.056,4.3,7.389,7.389,0,0,1-1.056,4.3A3.515,3.515,0,0,1-4.176.144Zm0-1.616a1.656,1.656,0,0,0,1.584-1,7.563,7.563,0,0,0,.5-3.176,7.5,7.5,0,0,0-.5-3.176,1.658,1.658,0,0,0-1.584-.984,1.657,1.657,0,0,0-1.584.992,7.5,7.5,0,0,0-.5,3.168,7.563,7.563,0,0,0,.5,3.176A1.656,1.656,0,0,0-4.176-1.472ZM6.144-8.016a3.243,3.243,0,0,1,1.8.512A3.4,3.4,0,0,1,9.176-6.056,5,5,0,0,1,9.616-3.9a4.845,4.845,0,0,1-.44,2.128A3.333,3.333,0,0,1,7.952-.368a3.309,3.309,0,0,1-1.808.5A3.1,3.1,0,0,1,4.656-.224,2.47,2.47,0,0,1,3.648-1.2V2.064a.83.83,0,0,1-.272.656,1.048,1.048,0,0,1-.72.24A1.037,1.037,0,0,1,1.928,2.7a.868.868,0,0,1-.28-.672V-7.04a.914.914,0,0,1,.264-.688.979.979,0,0,1,.712-.256,1.008,1.008,0,0,1,.72.256.9.9,0,0,1,.272.688v.4A2.455,2.455,0,0,1,4.632-7.656,3.121,3.121,0,0,1,6.144-8.016ZM5.616-1.424a1.793,1.793,0,0,0,1.472-.648A2.829,2.829,0,0,0,7.616-3.9a2.989,2.989,0,0,0-.528-1.888,1.766,1.766,0,0,0-1.472-.672,1.779,1.779,0,0,0-1.48.656,2.952,2.952,0,0,0-.52,1.872,2.923,2.923,0,0,0,.52,1.856A1.779,1.779,0,0,0,5.616-1.424Zm12.256-.048a.9.9,0,0,1,.288.656.885.885,0,0,1-.272.632.864.864,0,0,1-.64.28A.878.878,0,0,1,16.56-.24L14.3-2.736,12.048-.24a.928.928,0,0,1-.688.32.858.858,0,0,1-.624-.272.858.858,0,0,1-.272-.624.9.9,0,0,1,.288-.656l2.336-2.544-2.208-2.4a.9.9,0,0,1-.288-.656.85.85,0,0,1,.272-.632.871.871,0,0,1,.624-.264.928.928,0,0,1,.688.32L14.3-5.312l2.128-2.336a.928.928,0,0,1,.688-.32.862.862,0,0,1,.632.264.862.862,0,0,1,.264.632.9.9,0,0,1-.288.656l-2.208,2.4Z" transform="translate(711 1822)"/><path class="j" d="M-11.6-5.792a2.733,2.733,0,0,1,1.528.992,2.864,2.864,0,0,1,.536,1.76,2.747,2.747,0,0,1-1.12,2.328,5.074,5.074,0,0,1-3.1.84,5.074,5.074,0,0,1-3.1-.84,2.747,2.747,0,0,1-1.12-2.328,2.87,2.87,0,0,1,.544-1.768A2.68,2.68,0,0,1-15.9-5.792a2.777,2.777,0,0,1-1.328-1,2.69,2.69,0,0,1-.48-1.592,2.659,2.659,0,0,1,1.056-2.224,4.626,4.626,0,0,1,2.9-.816,4.626,4.626,0,0,1,2.9.816A2.659,2.659,0,0,1-9.808-8.384a2.753,2.753,0,0,1-.48,1.616A2.584,2.584,0,0,1-11.6-5.792Zm-2.16-4.016q-2,0-2,1.632a1.529,1.529,0,0,0,.5,1.24,2.275,2.275,0,0,0,1.5.424,2.275,2.275,0,0,0,1.5-.424,1.529,1.529,0,0,0,.5-1.24Q-11.76-9.808-13.76-9.808Zm0,8.32q2.288,0,2.288-1.712T-13.76-4.912q-2.288,0-2.288,1.712T-13.76-1.488ZM-4.176.144a3.522,3.522,0,0,1-3.056-1.48A7.383,7.383,0,0,1-8.288-5.648a7.35,7.35,0,0,1,1.056-4.3,3.522,3.522,0,0,1,3.056-1.48A3.522,3.522,0,0,1-1.12-9.944a7.35,7.35,0,0,1,1.056,4.3,7.389,7.389,0,0,1-1.056,4.3A3.515,3.515,0,0,1-4.176.144Zm0-1.616a1.656,1.656,0,0,0,1.584-1,7.563,7.563,0,0,0,.5-3.176,7.5,7.5,0,0,0-.5-3.176,1.658,1.658,0,0,0-1.584-.984,1.657,1.657,0,0,0-1.584.992,7.5,7.5,0,0,0-.5,3.168,7.563,7.563,0,0,0,.5,3.176A1.656,1.656,0,0,0-4.176-1.472ZM6.144-8.016a3.243,3.243,0,0,1,1.8.512A3.4,3.4,0,0,1,9.176-6.056,5,5,0,0,1,9.616-3.9a4.845,4.845,0,0,1-.44,2.128A3.333,3.333,0,0,1,7.952-.368a3.309,3.309,0,0,1-1.808.5A3.1,3.1,0,0,1,4.656-.224,2.47,2.47,0,0,1,3.648-1.2V2.064a.83.83,0,0,1-.272.656,1.048,1.048,0,0,1-.72.24A1.037,1.037,0,0,1,1.928,2.7a.868.868,0,0,1-.28-.672V-7.04a.914.914,0,0,1,.264-.688.979.979,0,0,1,.712-.256,1.008,1.008,0,0,1,.72.256.9.9,0,0,1,.272.688v.4A2.455,2.455,0,0,1,4.632-7.656,3.121,3.121,0,0,1,6.144-8.016ZM5.616-1.424a1.793,1.793,0,0,0,1.472-.648A2.829,2.829,0,0,0,7.616-3.9a2.989,2.989,0,0,0-.528-1.888,1.766,1.766,0,0,0-1.472-.672,1.779,1.779,0,0,0-1.48.656,2.952,2.952,0,0,0-.52,1.872,2.923,2.923,0,0,0,.52,1.856A1.779,1.779,0,0,0,5.616-1.424Zm12.256-.048a.9.9,0,0,1,.288.656.885.885,0,0,1-.272.632.864.864,0,0,1-.64.28A.878.878,0,0,1,16.56-.24L14.3-2.736,12.048-.24a.928.928,0,0,1-.688.32.858.858,0,0,1-.624-.272.858.858,0,0,1-.272-.624.9.9,0,0,1,.288-.656l2.336-2.544-2.208-2.4a.9.9,0,0,1-.288-.656.85.85,0,0,1,.272-.632.871.871,0,0,1,.624-.264.928.928,0,0,1,.688.32L14.3-5.312l2.128-2.336a.928.928,0,0,1,.688-.32.862.862,0,0,1,.632.264.862.862,0,0,1,.264.632.9.9,0,0,1-.288.656l-2.208,2.4Z" transform="translate(608 1735)"/></g></svg>