<svg xmlns="http://www.w3.org/2000/svg" width="712" height="382" viewBox="0 0 712 382">
  <g id="Group_32462" data-name="Group 32462" transform="translate(1436 19752)">
    <rect id="Rectangle_26471" data-name="Rectangle 26471" width="712" height="382" rx="8" transform="translate(-1436 -19752)" fill="#fff"/>
    <path id="Rectangle_26471_-_Outline" data-name="Rectangle 26471 - Outline" d="M8,2A6.007,6.007,0,0,0,2,8V374a6.007,6.007,0,0,0,6,6H704a6.007,6.007,0,0,0,6-6V8a6.007,6.007,0,0,0-6-6H8M8,0H704a8,8,0,0,1,8,8V374a8,8,0,0,1-8,8H8a8,8,0,0,1-8-8V8A8,8,0,0,1,8,0Z" transform="translate(-1436 -19752)" fill="#38485c"/>
    <g id="Paginado_-_Individual" data-name="Paginado - Individual" transform="translate(-961 -19458)">
      <rect id="Rectangle_24319" data-name="Rectangle 24319" width="125.836" height="40" rx="8" fill="#fff"/>
      <path id="Rectangle_24319_-_Outline" data-name="Rectangle 24319 - Outline" d="M8,0A8,8,0,0,0,0,8V32a8,8,0,0,0,8,8H117.836a8,8,0,0,0,8-8V8a8,8,0,0,0-8-8H8M8-2H117.836a10.011,10.011,0,0,1,10,10V32a10.011,10.011,0,0,1-10,10H8A10.011,10.011,0,0,1-2,32V8A10.011,10.011,0,0,1,8-2Z" fill="#e6ebf0"/>
      <g id="Group_32062" data-name="Group 32062" transform="translate(-513 -444)">
        <g id="chevron_right" transform="translate(602.836 452)">
          <rect id="Rectangle_32" data-name="Rectangle 32" width="24" height="24" fill="none"/>
          <path id="Path_13167" data-name="Path 13167" d="M9,102.711a1,1,0,0,0,0,1.41L12.88,108,9,111.881a1,1,0,0,0,1.41,1.41L15,108.7a1,1,0,0,0,0-1.41l-4.59-4.59A1,1,0,0,0,9,102.711Z" transform="translate(0 -96)" fill="#38485c"/>
        </g>
        <g id="Group_28115" data-name="Group 28115" transform="translate(369.5 196)">
          <path id="Path_31932" data-name="Path 31932" d="M5.616.144a8.224,8.224,0,0,1-2.583-.4A5.281,5.281,0,0,1,1.062-1.35a.826.826,0,0,1-.27-.63.707.707,0,0,1,.144-.441.421.421,0,0,1,.342-.189.87.87,0,0,1,.5.2A6.067,6.067,0,0,0,5.6-1.116,4.039,4.039,0,0,0,7.974-1.71,1.958,1.958,0,0,0,8.8-3.4a1.358,1.358,0,0,0-.4-1.017A2.858,2.858,0,0,0,7.362-5.04a15.675,15.675,0,0,0-1.746-.486,17.018,17.018,0,0,1-2.421-.72,3.769,3.769,0,0,1-1.53-1.08A2.773,2.773,0,0,1,1.08-9.162a3.264,3.264,0,0,1,.585-1.917,3.787,3.787,0,0,1,1.638-1.3,5.961,5.961,0,0,1,2.4-.459,6.965,6.965,0,0,1,2.349.387A4.943,4.943,0,0,1,9.882-11.34a.877.877,0,0,1,.288.63.707.707,0,0,1-.144.441.421.421,0,0,1-.342.189,1.1,1.1,0,0,1-.522-.2,6.119,6.119,0,0,0-1.638-1.008,5.114,5.114,0,0,0-1.818-.288,3.8,3.8,0,0,0-2.322.621,2.047,2.047,0,0,0-.828,1.737,1.6,1.6,0,0,0,.729,1.431,7.353,7.353,0,0,0,2.241.837q1.638.4,2.574.729a3.854,3.854,0,0,1,1.557,1,2.508,2.508,0,0,1,.621,1.782,3.114,3.114,0,0,1-.585,1.872A3.8,3.8,0,0,1,8.046-.306,6.18,6.18,0,0,1,5.616.144ZM13.194.09A.757.757,0,0,1,12.663-.1a.683.683,0,0,1-.207-.531v-7.6a.683.683,0,0,1,.207-.531.757.757,0,0,1,.531-.189.725.725,0,0,1,.522.189.7.7,0,0,1,.2.531v7.6a.694.694,0,0,1-.2.54A.746.746,0,0,1,13.194.09Zm0-10.926a.988.988,0,0,1-.7-.252.868.868,0,0,1-.27-.666.847.847,0,0,1,.27-.648.988.988,0,0,1,.7-.252.988.988,0,0,1,.7.252.847.847,0,0,1,.27.648.868.868,0,0,1-.27.666A.988.988,0,0,1,13.194-10.836Zm10.548,1.89a.73.73,0,0,1,.54.2.706.706,0,0,1,.2.522V-.594a4,4,0,0,1-1.008,2.961,4.076,4.076,0,0,1-2.988,1,6.208,6.208,0,0,1-3.2-.756q-.648-.36-.648-.828a.625.625,0,0,1,.135-.414.435.435,0,0,1,.351-.162,1.747,1.747,0,0,1,.648.252,8.321,8.321,0,0,0,1.242.522,4.76,4.76,0,0,0,1.458.2A2.55,2.55,0,0,0,22.392,1.5,2.738,2.738,0,0,0,23.04-.468V-2.016a2.746,2.746,0,0,1-1.161,1.3,3.639,3.639,0,0,1-1.845.45,3.863,3.863,0,0,1-2.043-.54A3.651,3.651,0,0,1,16.6-2.34a5.047,5.047,0,0,1-.5-2.286,5.047,5.047,0,0,1,.5-2.286,3.651,3.651,0,0,1,1.386-1.53,3.863,3.863,0,0,1,2.043-.54,3.553,3.553,0,0,1,1.818.45,2.877,2.877,0,0,1,1.17,1.278v-.972a.725.725,0,0,1,.189-.522A.7.7,0,0,1,23.742-8.946Zm-3.42,7.47a2.474,2.474,0,0,0,1.98-.837,3.433,3.433,0,0,0,.72-2.313,3.433,3.433,0,0,0-.711-2.3,2.468,2.468,0,0,0-1.989-.837,2.522,2.522,0,0,0-2.007.837,3.376,3.376,0,0,0-.729,2.3,3.4,3.4,0,0,0,.729,2.313A2.522,2.522,0,0,0,20.322-1.476ZM33.84-8.946a.7.7,0,0,1,.531.2.725.725,0,0,1,.189.522V-.612a.7.7,0,0,1-.189.5.7.7,0,0,1-.531.2A.693.693,0,0,1,33.327-.1a.669.669,0,0,1-.189-.495v-.9A2.853,2.853,0,0,1,31.977-.288a3.413,3.413,0,0,1-1.683.414,3.024,3.024,0,0,1-2.358-.873,3.728,3.728,0,0,1-.792-2.583v-4.9a.706.706,0,0,1,.2-.522.73.73,0,0,1,.54-.2.7.7,0,0,1,.531.2.725.725,0,0,1,.189.522v4.86a2.615,2.615,0,0,0,.468,1.719,1.836,1.836,0,0,0,1.476.549A2.425,2.425,0,0,0,32.4-1.845a2.761,2.761,0,0,0,.7-1.971v-4.41a.706.706,0,0,1,.2-.522A.73.73,0,0,1,33.84-8.946ZM38.016.09A.757.757,0,0,1,37.485-.1a.683.683,0,0,1-.207-.531v-7.6a.683.683,0,0,1,.207-.531.757.757,0,0,1,.531-.189.725.725,0,0,1,.522.189.7.7,0,0,1,.2.531v7.6a.694.694,0,0,1-.2.54A.746.746,0,0,1,38.016.09Zm0-10.926a.988.988,0,0,1-.7-.252.868.868,0,0,1-.27-.666.847.847,0,0,1,.27-.648.988.988,0,0,1,.7-.252.988.988,0,0,1,.7.252.847.847,0,0,1,.27.648.868.868,0,0,1-.27.666A.988.988,0,0,1,38.016-10.836Zm10.224,8.8a.443.443,0,0,1,.342.162.6.6,0,0,1,.144.414q0,.45-.63.828a5.449,5.449,0,0,1-1.368.567,5.519,5.519,0,0,1-1.4.189A4.287,4.287,0,0,1,42.111-1.08a4.56,4.56,0,0,1-1.179-3.33A5.227,5.227,0,0,1,41.454-6.8a3.9,3.9,0,0,1,1.467-1.611,4.05,4.05,0,0,1,2.151-.576A3.481,3.481,0,0,1,47.79-7.866,4.343,4.343,0,0,1,48.8-4.842a.775.775,0,0,1-.144.522.6.6,0,0,1-.468.162h-5.8q.162,3.1,2.934,3.1a3.439,3.439,0,0,0,1.206-.189,7.841,7.841,0,0,0,1.08-.513A1.712,1.712,0,0,1,48.24-2.034ZM45.09-7.848a2.442,2.442,0,0,0-1.845.72,3.29,3.29,0,0,0-.819,2.034H47.52a3.118,3.118,0,0,0-.666-2.043A2.234,2.234,0,0,0,45.09-7.848ZM55.35-8.982q3.15,0,3.15,3.474V-.63a.718.718,0,0,1-.189.531A.718.718,0,0,1,57.78.09.75.75,0,0,1,57.24-.1a.7.7,0,0,1-.2-.531V-5.418A2.717,2.717,0,0,0,56.565-7.2a1.9,1.9,0,0,0-1.521-.558,2.568,2.568,0,0,0-1.926.738,2.738,2.738,0,0,0-.72,2V-.63a.718.718,0,0,1-.189.531.718.718,0,0,1-.531.189.75.75,0,0,1-.54-.189.7.7,0,0,1-.2-.531v-7.6a.706.706,0,0,1,.2-.522.73.73,0,0,1,.54-.2.676.676,0,0,1,.513.2.7.7,0,0,1,.189.5v.918a2.952,2.952,0,0,1,1.206-1.233A3.618,3.618,0,0,1,55.35-8.982Zm9.864,7.92q.63.054.63.576a.518.518,0,0,1-.225.459,1.054,1.054,0,0,1-.675.117L64.458.054A3.054,3.054,0,0,1,62.334-.81,3.316,3.316,0,0,1,61.65-3.1V-7.614H60.444a.69.69,0,0,1-.477-.153.517.517,0,0,1-.171-.405.567.567,0,0,1,.171-.432.666.666,0,0,1,.477-.162H61.65V-10.8a.7.7,0,0,1,.2-.531.75.75,0,0,1,.54-.189.725.725,0,0,1,.522.189.7.7,0,0,1,.2.531v2.034h2a.64.64,0,0,1,.459.162.567.567,0,0,1,.171.432.517.517,0,0,1-.171.405.663.663,0,0,1-.459.153h-2v4.59a2.081,2.081,0,0,0,.405,1.431,1.736,1.736,0,0,0,1.215.5Zm8.856-.972a.443.443,0,0,1,.342.162.6.6,0,0,1,.144.414q0,.45-.63.828a5.449,5.449,0,0,1-1.368.567,5.519,5.519,0,0,1-1.4.189A4.287,4.287,0,0,1,67.941-1.08a4.56,4.56,0,0,1-1.179-3.33A5.227,5.227,0,0,1,67.284-6.8a3.9,3.9,0,0,1,1.467-1.611A4.05,4.05,0,0,1,70.9-8.982,3.481,3.481,0,0,1,73.62-7.866a4.343,4.343,0,0,1,1.008,3.024.775.775,0,0,1-.144.522.6.6,0,0,1-.468.162h-5.8q.162,3.1,2.934,3.1a3.439,3.439,0,0,0,1.206-.189,7.841,7.841,0,0,0,1.08-.513A1.712,1.712,0,0,1,74.07-2.034ZM70.92-7.848a2.442,2.442,0,0,0-1.845.72,3.29,3.29,0,0,0-.819,2.034H73.35a3.118,3.118,0,0,0-.666-2.043A2.234,2.234,0,0,0,70.92-7.848Z" transform="translate(154.708 274)" fill="#38485c"/>
        </g>
      </g>
    </g>
    <g id="Paginado_-_Individual-2" data-name="Paginado - Individual" transform="translate(-1015 -19458)">
      <rect id="Rectangle_24319-2" data-name="Rectangle 24319" width="42.018" height="28.96" rx="8" transform="translate(2.214 5.166)" fill="#fff"/>
      <path id="Rectangle_24319_-_Outline-2" data-name="Rectangle 24319 - Outline" d="M8,0A8,8,0,0,0,0,8V20.96a8,8,0,0,0,8,8H34.018a8,8,0,0,0,8-8V8a8,8,0,0,0-8-8H8M8-2H34.018a10.011,10.011,0,0,1,10,10V20.96a10.011,10.011,0,0,1-10,10H8a10.011,10.011,0,0,1-10-10V8A10.011,10.011,0,0,1,8-2Z" transform="translate(2.214 5.166)" fill="#e6ebf0"/>
      <path id="_Text_Body_1_Selected_On_Surface_Medium_Emphasis_Left_" data-name="✱ / Text / Body 1 / Selected / On Surface / Medium Emphasis / Left " d="M8.856-1.242a.727.727,0,0,1,.5.162.574.574,0,0,1,.18.45.614.614,0,0,1-.171.468A.721.721,0,0,1,8.856,0H2.9a.721.721,0,0,1-.513-.162A.614.614,0,0,1,2.214-.63a.574.574,0,0,1,.18-.45.727.727,0,0,1,.5-.162H5.13V-10.89L3.168-9.612a.54.54,0,0,1-.288.09.556.556,0,0,1-.441-.234.787.787,0,0,1-.189-.5.57.57,0,0,1,.288-.54l2.736-1.782a1.146,1.146,0,0,1,.63-.2.683.683,0,0,1,.5.2.755.755,0,0,1,.2.558V-1.242Zm9.018-5.274A3.215,3.215,0,0,1,19.629-5.4a3.144,3.144,0,0,1,.6,1.962,3.253,3.253,0,0,1-1.116,2.61,4.529,4.529,0,0,1-3.042.954,6.41,6.41,0,0,1-2.241-.4,5.357,5.357,0,0,1-1.809-1.08.821.821,0,0,1-.288-.612.7.7,0,0,1,.144-.45.427.427,0,0,1,.342-.18.815.815,0,0,1,.5.2,6.166,6.166,0,0,0,1.62.972,4.7,4.7,0,0,0,1.71.306,2.971,2.971,0,0,0,2.025-.612,2.229,2.229,0,0,0,.693-1.764q0-2.322-2.916-2.322H14.9A.588.588,0,0,1,14.445-6a.637.637,0,0,1-.171-.441.605.605,0,0,1,.171-.432.6.6,0,0,1,.459-.18h.666a3.321,3.321,0,0,0,2.16-.621,2.185,2.185,0,0,0,.756-1.791,2.006,2.006,0,0,0-.612-1.575,2.5,2.5,0,0,0-1.728-.549,4.394,4.394,0,0,0-1.638.315,6.061,6.061,0,0,0-1.584.963.815.815,0,0,1-.5.2.427.427,0,0,1-.342-.18.7.7,0,0,1-.144-.45.821.821,0,0,1,.288-.612,5.39,5.39,0,0,1,1.791-1.08,6.114,6.114,0,0,1,2.169-.4,4.073,4.073,0,0,1,2.745.873,2.938,2.938,0,0,1,1.017,2.349A3.361,3.361,0,0,1,19.4-7.7,3.055,3.055,0,0,1,17.874-6.516Z" transform="translate(12 26)" fill="#38485c"/>
    </g>
    <g id="Paginado_-_Individual-3" data-name="Paginado - Individual" transform="translate(-1069 -19458)">
      <rect id="Rectangle_24319-3" data-name="Rectangle 24319" width="42.396" height="28.834" rx="8" transform="translate(2.214 5.166)" fill="#fff"/>
      <path id="Rectangle_24319_-_Outline-3" data-name="Rectangle 24319 - Outline" d="M8,0A8,8,0,0,0,0,8V20.834a8,8,0,0,0,8,8H34.4a8,8,0,0,0,8-8V8a8,8,0,0,0-8-8H8M8-2H34.4a10.011,10.011,0,0,1,10,10V20.834a10.011,10.011,0,0,1-10,10H8a10.011,10.011,0,0,1-10-10V8A10.011,10.011,0,0,1,8-2Z" transform="translate(2.214 5.166)" fill="#e6ebf0"/>
      <path id="_Text_Body_1_Selected_On_Surface_Medium_Emphasis_Left_2" data-name="✱ / Text / Body 1 / Selected / On Surface / Medium Emphasis / Left " d="M8.856-1.242a.727.727,0,0,1,.5.162.574.574,0,0,1,.18.45.614.614,0,0,1-.171.468A.721.721,0,0,1,8.856,0H2.9a.721.721,0,0,1-.513-.162A.614.614,0,0,1,2.214-.63a.574.574,0,0,1,.18-.45.727.727,0,0,1,.5-.162H5.13V-10.89L3.168-9.612a.54.54,0,0,1-.288.09.556.556,0,0,1-.441-.234.787.787,0,0,1-.189-.5.57.57,0,0,1,.288-.54l2.736-1.782a1.146,1.146,0,0,1,.63-.2.683.683,0,0,1,.5.2.755.755,0,0,1,.2.558V-1.242Zm11.07,0a.727.727,0,0,1,.5.162.574.574,0,0,1,.18.45q0,.63-.684.63H12.87a.7.7,0,0,1-.5-.189.611.611,0,0,1-.2-.459.813.813,0,0,1,.252-.594l4.338-4.77a8.817,8.817,0,0,0,1.305-1.809,3.54,3.54,0,0,0,.4-1.611,2.075,2.075,0,0,0-.6-1.6,2.412,2.412,0,0,0-1.7-.558,4.44,4.44,0,0,0-1.656.315,6.061,6.061,0,0,0-1.584.963.83.83,0,0,1-.5.216.421.421,0,0,1-.342-.189.735.735,0,0,1-.144-.459.751.751,0,0,1,.288-.612,5.373,5.373,0,0,1,1.8-1.08,6.187,6.187,0,0,1,2.178-.4,3.965,3.965,0,0,1,2.727.9A3.081,3.081,0,0,1,19.944-9.5a4.72,4.72,0,0,1-.5,2.106,10.087,10.087,0,0,1-1.629,2.25l-3.6,3.906Z" transform="translate(12 26)" fill="#38485c"/>
    </g>
    <g id="Paginado_-_Individual-4" data-name="Paginado - Individual" transform="translate(-1113 -19458)">
      <rect id="Rectangle_24319-4" data-name="Rectangle 24319" width="34.188" height="18.034" rx="8" transform="translate(1.062 16.056)" fill="#fff"/>
      <path id="Rectangle_24319_-_Outline-4" data-name="Rectangle 24319 - Outline" d="M8,0A8,8,0,0,0,0,8v2.034a8,8,0,0,0,8,8H26.188a8,8,0,0,0,8-8V8a8,8,0,0,0-8-8H8M8-2H26.188a10.011,10.011,0,0,1,10,10v2.034a10.011,10.011,0,0,1-10,10H8a10.011,10.011,0,0,1-10-10V8A10.011,10.011,0,0,1,8-2Z" transform="translate(1.062 16.056)" fill="#e6ebf0"/>
      <path id="_Text_Body_1_Selected_On_Surface_Medium_Emphasis_Left_3" data-name="✱ / Text / Body 1 / Selected / On Surface / Medium Emphasis / Left " d="M2.07.09a.994.994,0,0,1-.72-.279.969.969,0,0,1-.288-.729,1,1,0,0,1,.288-.738.977.977,0,0,1,.72-.288.926.926,0,0,1,.693.288,1.017,1.017,0,0,1,.279.738.986.986,0,0,1-.279.729A.941.941,0,0,1,2.07.09Zm4.1,0a.994.994,0,0,1-.72-.279.969.969,0,0,1-.288-.729,1,1,0,0,1,.288-.738.977.977,0,0,1,.72-.288.926.926,0,0,1,.693.288,1.017,1.017,0,0,1,.279.738.986.986,0,0,1-.279.729A.941.941,0,0,1,6.174.09Zm4.1,0a.994.994,0,0,1-.72-.279A.969.969,0,0,1,9.27-.918a1,1,0,0,1,.288-.738.977.977,0,0,1,.72-.288.926.926,0,0,1,.693.288,1.017,1.017,0,0,1,.279.738.986.986,0,0,1-.279.729A.941.941,0,0,1,10.278.09Z" transform="translate(12 26)" fill="#38485c"/>
    </g>
    <g id="Paginado_-_Individual-5" data-name="Paginado - Individual" transform="translate(-1156 -19458)">
      <rect id="Rectangle_24319-5" data-name="Rectangle 24319" width="32.676" height="28.834" rx="8" transform="translate(1.152 5.166)" fill="#007bc7"/>
      <path id="Rectangle_24319_-_Outline-5" data-name="Rectangle 24319 - Outline" d="M8,0A8,8,0,0,0,0,8V20.834a8,8,0,0,0,8,8H24.676a8,8,0,0,0,8-8V8a8,8,0,0,0-8-8H8M8-2H24.676a10.011,10.011,0,0,1,10,10V20.834a10.011,10.011,0,0,1-10,10H8a10.011,10.011,0,0,1-10-10V8A10.011,10.011,0,0,1,8-2Z" transform="translate(1.152 5.166)" fill="#e6ebf0"/>
      <path id="_Text_Body_1_Selected_On_Surface_Medium_Emphasis_Left_4" data-name="✱ / Text / Body 1 / Selected / On Surface / Medium Emphasis / Left " d="M9.144-1.242a.727.727,0,0,1,.5.162.574.574,0,0,1,.18.45q0,.63-.684.63H2.088a.7.7,0,0,1-.5-.189.611.611,0,0,1-.2-.459.813.813,0,0,1,.252-.594l4.338-4.77A8.817,8.817,0,0,0,7.281-7.821a3.54,3.54,0,0,0,.4-1.611,2.075,2.075,0,0,0-.6-1.6,2.412,2.412,0,0,0-1.7-.558,4.44,4.44,0,0,0-1.656.315,6.061,6.061,0,0,0-1.584.963.83.83,0,0,1-.5.216.421.421,0,0,1-.342-.189.735.735,0,0,1-.144-.459.751.751,0,0,1,.288-.612,5.373,5.373,0,0,1,1.8-1.08,6.187,6.187,0,0,1,2.178-.4,3.965,3.965,0,0,1,2.727.9A3.081,3.081,0,0,1,9.162-9.5,4.72,4.72,0,0,1,8.667-7.4a10.087,10.087,0,0,1-1.629,2.25l-3.6,3.906Z" transform="translate(12 26)" fill="#fff"/>
    </g>
    <g id="Paginado_-_Individual-6" data-name="Paginado - Individual" transform="translate(-1199 -19458)">
      <rect id="Rectangle_24319-6" data-name="Rectangle 24319" width="31.326" height="28.78" rx="8" transform="translate(2.214 5.22)" fill="#fff"/>
      <path id="Rectangle_24319_-_Outline-6" data-name="Rectangle 24319 - Outline" d="M8,0A8,8,0,0,0,0,8V20.78a8,8,0,0,0,8,8H23.326a8,8,0,0,0,8-8V8a8,8,0,0,0-8-8H8M8-2H23.326a10.011,10.011,0,0,1,10,10V20.78a10.011,10.011,0,0,1-10,10H8a10.011,10.011,0,0,1-10-10V8A10.011,10.011,0,0,1,8-2Z" transform="translate(2.214 5.22)" fill="#e6ebf0"/>
      <path id="_Text_Body_1_Selected_On_Surface_Medium_Emphasis_Left_5" data-name="✱ / Text / Body 1 / Selected / On Surface / Medium Emphasis / Left " d="M8.856-1.242a.727.727,0,0,1,.5.162.574.574,0,0,1,.18.45.614.614,0,0,1-.171.468A.721.721,0,0,1,8.856,0H2.9a.721.721,0,0,1-.513-.162A.614.614,0,0,1,2.214-.63a.574.574,0,0,1,.18-.45.727.727,0,0,1,.5-.162H5.13V-10.89L3.168-9.612a.54.54,0,0,1-.288.09.556.556,0,0,1-.441-.234.787.787,0,0,1-.189-.5.57.57,0,0,1,.288-.54l2.736-1.782a1.146,1.146,0,0,1,.63-.2.683.683,0,0,1,.5.2.755.755,0,0,1,.2.558V-1.242Z" transform="translate(12 26)" fill="#38485c"/>
    </g>
    <g id="Paginado_-_Individual-7" data-name="Paginado - Individual" transform="translate(-1325 -19458)">
      <rect id="Rectangle_24319-7" data-name="Rectangle 24319" width="117.358" height="40" rx="8" fill="#fff"/>
      <path id="Rectangle_24319_-_Outline-7" data-name="Rectangle 24319 - Outline" d="M8,0A8,8,0,0,0,0,8V32a8,8,0,0,0,8,8H109.358a8,8,0,0,0,8-8V8a8,8,0,0,0-8-8H8M8-2H109.358a10.011,10.011,0,0,1,10,10V32a10.011,10.011,0,0,1-10,10H8A10.011,10.011,0,0,1-2,32V8A10.011,10.011,0,0,1,8-2Z" fill="#e6ebf0"/>
      <g id="Group_32060" data-name="Group 32060" transform="translate(-513 -444)">
        <g id="Group_28115-2" data-name="Group 28115" transform="translate(400 196)">
          <path id="Path_31931" data-name="Path 31931" d="M12.492-.846a.675.675,0,0,1,.072.306.572.572,0,0,1-.207.45.729.729,0,0,1-.5.18.637.637,0,0,1-.63-.432L9.954-3.258H3.168L1.872-.342a.637.637,0,0,1-.63.432A.742.742,0,0,1,.738-.1.588.588,0,0,1,.522-.558.639.639,0,0,1,.594-.846L5.742-12.294a.776.776,0,0,1,.324-.378.913.913,0,0,1,.468-.126.9.9,0,0,1,.486.135.841.841,0,0,1,.324.369ZM9.414-4.482,6.552-10.944,3.708-4.482Zm9.432-4.5Q22-8.982,22-5.508V-.63a.718.718,0,0,1-.189.531.718.718,0,0,1-.531.189.75.75,0,0,1-.54-.189.7.7,0,0,1-.2-.531V-5.418A2.717,2.717,0,0,0,20.061-7.2a1.9,1.9,0,0,0-1.521-.558,2.568,2.568,0,0,0-1.926.738,2.738,2.738,0,0,0-.72,2V-.63A.718.718,0,0,1,15.7-.1a.718.718,0,0,1-.531.189.75.75,0,0,1-.54-.189.7.7,0,0,1-.2-.531v-7.6a.706.706,0,0,1,.2-.522.73.73,0,0,1,.54-.2.676.676,0,0,1,.513.2.7.7,0,0,1,.189.5v.918a2.952,2.952,0,0,1,1.206-1.233A3.618,3.618,0,0,1,18.846-8.982Zm9.864,7.92q.63.054.63.576a.518.518,0,0,1-.225.459A1.054,1.054,0,0,1,28.44.09L27.954.054A3.054,3.054,0,0,1,25.83-.81,3.316,3.316,0,0,1,25.146-3.1V-7.614H23.94a.69.69,0,0,1-.477-.153.517.517,0,0,1-.171-.405.567.567,0,0,1,.171-.432.666.666,0,0,1,.477-.162h1.206V-10.8a.7.7,0,0,1,.2-.531.75.75,0,0,1,.54-.189.725.725,0,0,1,.522.189.7.7,0,0,1,.2.531v2.034h2a.64.64,0,0,1,.459.162.567.567,0,0,1,.171.432.517.517,0,0,1-.171.405.663.663,0,0,1-.459.153h-2v4.59a2.081,2.081,0,0,0,.4,1.431,1.736,1.736,0,0,0,1.215.5Zm8.856-.972a.443.443,0,0,1,.342.162.6.6,0,0,1,.144.414q0,.45-.63.828a5.449,5.449,0,0,1-1.368.567,5.519,5.519,0,0,1-1.4.189A4.287,4.287,0,0,1,31.437-1.08a4.56,4.56,0,0,1-1.179-3.33A5.227,5.227,0,0,1,30.78-6.8a3.9,3.9,0,0,1,1.467-1.611A4.05,4.05,0,0,1,34.4-8.982a3.481,3.481,0,0,1,2.718,1.116,4.343,4.343,0,0,1,1.008,3.024.775.775,0,0,1-.144.522.6.6,0,0,1-.468.162h-5.8q.162,3.1,2.934,3.1a3.439,3.439,0,0,0,1.206-.189,7.841,7.841,0,0,0,1.08-.513A1.712,1.712,0,0,1,37.566-2.034Zm-3.15-5.814a2.442,2.442,0,0,0-1.845.72,3.29,3.29,0,0,0-.819,2.034h5.094a3.118,3.118,0,0,0-.666-2.043A2.234,2.234,0,0,0,34.416-7.848ZM44.6-8.946q.756-.054.756.612a.64.64,0,0,1-.162.459.861.861,0,0,1-.558.207l-.54.054a2.427,2.427,0,0,0-1.791.855A2.763,2.763,0,0,0,41.724-5V-.63a.694.694,0,0,1-.2.54A.746.746,0,0,1,41,.09.757.757,0,0,1,40.473-.1a.683.683,0,0,1-.207-.531v-7.6a.668.668,0,0,1,.216-.531A.765.765,0,0,1,41-8.946a.677.677,0,0,1,.486.189.676.676,0,0,1,.2.513v1.008a2.733,2.733,0,0,1,1.071-1.206,3.624,3.624,0,0,1,1.593-.486ZM47.358.09A.757.757,0,0,1,46.827-.1.683.683,0,0,1,46.62-.63v-7.6a.683.683,0,0,1,.207-.531.757.757,0,0,1,.531-.189.725.725,0,0,1,.522.189.7.7,0,0,1,.2.531v7.6a.694.694,0,0,1-.2.54A.746.746,0,0,1,47.358.09Zm0-10.926a.988.988,0,0,1-.7-.252.868.868,0,0,1-.27-.666.847.847,0,0,1,.27-.648.988.988,0,0,1,.7-.252.988.988,0,0,1,.7.252.847.847,0,0,1,.27.648.868.868,0,0,1-.27.666A.988.988,0,0,1,47.358-10.836ZM54.432.126a4.22,4.22,0,0,1-2.187-.558,3.719,3.719,0,0,1-1.458-1.593,5.346,5.346,0,0,1-.513-2.4,5.346,5.346,0,0,1,.513-2.4,3.719,3.719,0,0,1,1.458-1.593,4.22,4.22,0,0,1,2.187-.558,4.269,4.269,0,0,1,2.2.558A3.7,3.7,0,0,1,58.1-6.831a5.346,5.346,0,0,1,.513,2.4,5.346,5.346,0,0,1-.513,2.4A3.7,3.7,0,0,1,56.628-.432,4.269,4.269,0,0,1,54.432.126Zm0-1.206a2.412,2.412,0,0,0,1.989-.855,3.882,3.882,0,0,0,.693-2.493,3.859,3.859,0,0,0-.7-2.475,2.4,2.4,0,0,0-1.98-.873,2.4,2.4,0,0,0-1.98.873,3.859,3.859,0,0,0-.7,2.475,3.888,3.888,0,0,0,.693,2.484A2.4,2.4,0,0,0,54.432-1.08ZM65.124-8.946q.756-.054.756.612a.64.64,0,0,1-.162.459.861.861,0,0,1-.558.207l-.54.054a2.427,2.427,0,0,0-1.791.855A2.763,2.763,0,0,0,62.244-5V-.63a.694.694,0,0,1-.2.54.746.746,0,0,1-.522.18A.757.757,0,0,1,60.993-.1a.683.683,0,0,1-.207-.531v-7.6A.668.668,0,0,1,61-8.757a.765.765,0,0,1,.522-.189.677.677,0,0,1,.486.189.676.676,0,0,1,.2.513v1.008a2.733,2.733,0,0,1,1.071-1.206,3.624,3.624,0,0,1,1.593-.486Z" transform="translate(152.478 274)" fill="#38485c"/>
        </g>
        <g id="chevron_right-2" data-name="chevron_right" transform="translate(549 476) rotate(180)">
          <rect id="Rectangle_32-2" data-name="Rectangle 32" width="24" height="24" fill="none"/>
          <path id="Path_13167-2" data-name="Path 13167" d="M9,102.711a1,1,0,0,0,0,1.41L12.88,108,9,111.881a1,1,0,0,0,1.41,1.41L15,108.7a1,1,0,0,0,0-1.41l-4.59-4.59A1,1,0,0,0,9,102.711Z" transform="translate(0 -96)" fill="#38485c"/>
        </g>
      </g>
    </g>
    <g id="Group_18292" data-name="Group 18292" transform="translate(-1298.952 -19538)">
      <rect id="Rectangle_3425" data-name="Rectangle 3425" width="80" height="439" transform="translate(438.952) rotate(90)" fill="#e6ebf0" opacity="0.24"/>
      <path id="Path_4669" data-name="Path 4669" d="M.5,438.686h-1v-5h1Zm0-7h-1v-5h1Zm0-7h-1v-5h1Zm0-7h-1v-5h1Zm0-7h-1v-5h1Zm0-7h-1v-5h1Zm0-7h-1v-5h1Zm0-7h-1v-5h1Zm0-7h-1v-5h1Zm0-7h-1v-5h1Zm0-7h-1v-5h1Zm0-7h-1v-5h1Zm0-7h-1v-5h1Zm0-7h-1v-5h1Zm0-7h-1v-5h1Zm0-7h-1v-5h1Zm0-7h-1v-5h1Zm0-7h-1v-5h1Zm0-7h-1v-5h1Zm0-7h-1v-5h1Zm0-7h-1v-5h1Zm0-7h-1v-5h1Zm0-7h-1v-5h1Zm0-7h-1v-5h1Zm0-7h-1v-5h1Zm0-7h-1v-5h1Zm0-7h-1v-5h1Zm0-7h-1v-5h1Zm0-7h-1v-5h1Zm0-7h-1v-5h1Zm0-7h-1v-5h1Zm0-7h-1v-5h1Zm0-7h-1v-5h1Zm0-7h-1v-5h1Zm0-7h-1v-5h1Zm0-7h-1v-5h1Zm0-7h-1v-5h1Zm0-7h-1v-5h1Zm0-7h-1v-5h1Zm0-7h-1v-5h1Zm0-7h-1v-5h1Zm0-7h-1v-5h1Zm0-7h-1v-5h1Zm0-7h-1v-5h1Zm0-7h-1v-5h1Zm0-7h-1v-5h1Zm0-7h-1v-5h1Zm0-7h-1v-5h1Zm0-7h-1v-5h1Zm0-7h-1v-5h1Zm0-7h-1v-5h1Zm0-7h-1v-5h1Zm0-7h-1v-5h1Zm0-7h-1v-5h1Zm0-7h-1v-5h1Zm0-7h-1v-5h1Zm0-7h-1v-5h1Zm0-7h-1v-5h1Zm0-7h-1v-5h1Zm0-7h-1v-5h1Zm0-7h-1v-5h1Zm0-7h-1v-5h1Zm0-7h-1V0h1Z" transform="translate(438.952 79.702) rotate(90)" fill="#38485c"/>
      <path id="Path_4670" data-name="Path 4670" d="M.5,438.686h-1v-5h1Zm0-7h-1v-5h1Zm0-7h-1v-5h1Zm0-7h-1v-5h1Zm0-7h-1v-5h1Zm0-7h-1v-5h1Zm0-7h-1v-5h1Zm0-7h-1v-5h1Zm0-7h-1v-5h1Zm0-7h-1v-5h1Zm0-7h-1v-5h1Zm0-7h-1v-5h1Zm0-7h-1v-5h1Zm0-7h-1v-5h1Zm0-7h-1v-5h1Zm0-7h-1v-5h1Zm0-7h-1v-5h1Zm0-7h-1v-5h1Zm0-7h-1v-5h1Zm0-7h-1v-5h1Zm0-7h-1v-5h1Zm0-7h-1v-5h1Zm0-7h-1v-5h1Zm0-7h-1v-5h1Zm0-7h-1v-5h1Zm0-7h-1v-5h1Zm0-7h-1v-5h1Zm0-7h-1v-5h1Zm0-7h-1v-5h1Zm0-7h-1v-5h1Zm0-7h-1v-5h1Zm0-7h-1v-5h1Zm0-7h-1v-5h1Zm0-7h-1v-5h1Zm0-7h-1v-5h1Zm0-7h-1v-5h1Zm0-7h-1v-5h1Zm0-7h-1v-5h1Zm0-7h-1v-5h1Zm0-7h-1v-5h1Zm0-7h-1v-5h1Zm0-7h-1v-5h1Zm0-7h-1v-5h1Zm0-7h-1v-5h1Zm0-7h-1v-5h1Zm0-7h-1v-5h1Zm0-7h-1v-5h1Zm0-7h-1v-5h1Zm0-7h-1v-5h1Zm0-7h-1v-5h1Zm0-7h-1v-5h1Zm0-7h-1v-5h1Zm0-7h-1v-5h1Zm0-7h-1v-5h1Zm0-7h-1v-5h1Zm0-7h-1v-5h1Zm0-7h-1v-5h1Zm0-7h-1v-5h1Zm0-7h-1v-5h1Zm0-7h-1v-5h1Zm0-7h-1v-5h1Zm0-7h-1v-5h1Zm0-7h-1V0h1Z" transform="translate(438.952) rotate(90)" fill="#38485c"/>
    </g>
    <path id="Path_26556" data-name="Path 26556" d="M-11.6-5.792a2.733,2.733,0,0,1,1.528.992,2.864,2.864,0,0,1,.536,1.76,2.747,2.747,0,0,1-1.12,2.328,5.074,5.074,0,0,1-3.1.84,5.074,5.074,0,0,1-3.1-.84,2.747,2.747,0,0,1-1.12-2.328,2.87,2.87,0,0,1,.544-1.768A2.68,2.68,0,0,1-15.9-5.792a2.777,2.777,0,0,1-1.328-1,2.69,2.69,0,0,1-.48-1.592,2.659,2.659,0,0,1,1.056-2.224,4.626,4.626,0,0,1,2.9-.816,4.626,4.626,0,0,1,2.9.816A2.659,2.659,0,0,1-9.808-8.384a2.753,2.753,0,0,1-.48,1.616A2.584,2.584,0,0,1-11.6-5.792Zm-2.16-4.016q-2,0-2,1.632a1.529,1.529,0,0,0,.5,1.24,2.275,2.275,0,0,0,1.5.424,2.275,2.275,0,0,0,1.5-.424,1.529,1.529,0,0,0,.5-1.24Q-11.76-9.808-13.76-9.808Zm0,8.32q2.288,0,2.288-1.712T-13.76-4.912q-2.288,0-2.288,1.712T-13.76-1.488ZM-4.176.144a3.522,3.522,0,0,1-3.056-1.48A7.383,7.383,0,0,1-8.288-5.648a7.35,7.35,0,0,1,1.056-4.3,3.522,3.522,0,0,1,3.056-1.48A3.522,3.522,0,0,1-1.12-9.944a7.35,7.35,0,0,1,1.056,4.3,7.389,7.389,0,0,1-1.056,4.3A3.515,3.515,0,0,1-4.176.144Zm0-1.616a1.656,1.656,0,0,0,1.584-1,7.563,7.563,0,0,0,.5-3.176,7.5,7.5,0,0,0-.5-3.176,1.658,1.658,0,0,0-1.584-.984,1.657,1.657,0,0,0-1.584.992,7.5,7.5,0,0,0-.5,3.168,7.563,7.563,0,0,0,.5,3.176A1.656,1.656,0,0,0-4.176-1.472ZM6.144-8.016a3.243,3.243,0,0,1,1.8.512A3.4,3.4,0,0,1,9.176-6.056,5,5,0,0,1,9.616-3.9a4.845,4.845,0,0,1-.44,2.128A3.333,3.333,0,0,1,7.952-.368a3.309,3.309,0,0,1-1.808.5A3.1,3.1,0,0,1,4.656-.224,2.47,2.47,0,0,1,3.648-1.2V2.064a.83.83,0,0,1-.272.656,1.048,1.048,0,0,1-.72.24A1.037,1.037,0,0,1,1.928,2.7a.868.868,0,0,1-.28-.672V-7.04a.914.914,0,0,1,.264-.688.979.979,0,0,1,.712-.256,1.008,1.008,0,0,1,.72.256.9.9,0,0,1,.272.688v.4A2.455,2.455,0,0,1,4.632-7.656,3.121,3.121,0,0,1,6.144-8.016ZM5.616-1.424a3.271,3.271,0,0,0,1.472-.648A2.829,2.829,0,0,0,7.616-3.9a2.989,2.989,0,0,0-.528-1.888,1.766,1.766,0,0,0-1.472-.672,1.779,1.779,0,0,0-1.48.656,2.952,2.952,0,0,0-.52,1.872,2.923,2.923,0,0,0,.52,1.856A3.246,3.246,0,0,0,5.616-1.424Zm12.256-.048a.9.9,0,0,1,.288.656.885.885,0,0,1-.272.632.864.864,0,0,1-.64.28A.878.878,0,0,1,16.56-.24L14.3-2.736,12.048-.24a.928.928,0,0,1-.688.32.858.858,0,0,1-.624-.272.858.858,0,0,1-.272-.624.9.9,0,0,1,.288-.656l2.336-2.544-2.208-2.4a.9.9,0,0,1-.288-.656.85.85,0,0,1,.272-.632.871.871,0,0,1,.624-.264.928.928,0,0,1,.688.32L14.3-5.312l2.128-2.336a.928.928,0,0,1,.688-.32.862.862,0,0,1,.632.264.862.862,0,0,1,.264.632.9.9,0,0,1-.288.656l-2.208,2.4Z" transform="translate(-1080.016 -19493.576)" fill="#38485c"/>
    <g id="Group_32394" data-name="Group 32394" transform="translate(-1934.001 -20957)">
      <g id="Group_32346" data-name="Group 32346" transform="translate(635 1252.514)">
        <rect id="Rectangle_4827" data-name="Rectangle 4827" width="207" height="166" rx="4" transform="translate(0.001 0.486)" fill="#fff"/>
        <path id="Rectangle_4827_-_Outline" data-name="Rectangle 4827 - Outline" d="M4,1A3,3,0,0,0,1,4V162a3,3,0,0,0,3,3H203a3,3,0,0,0,3-3V4a3,3,0,0,0-3-3H4M4,0H203a4,4,0,0,1,4,4V162a4,4,0,0,1-4,4H4a4,4,0,0,1-4-4V4A4,4,0,0,1,4,0Z" transform="translate(0.001 0.486)" fill="#d1d8df"/>
        <rect id="Rectangle_4828" data-name="Rectangle 4828" width="185" height="90" transform="translate(11.001 9.486)" fill="#e6ebf0"/>
        <rect id="Rectangle_4830" data-name="Rectangle 4830" width="185" height="24" transform="translate(11.001 104.486)" fill="#d1d8df"/>
        <rect id="Rectangle_4831" data-name="Rectangle 4831" width="185" height="6" transform="translate(11.001 133.486)" fill="#e6ebf0"/>
        <rect id="Rectangle_8714" data-name="Rectangle 8714" width="185" height="6" transform="translate(11.001 141.486)" fill="#e6ebf0"/>
        <rect id="Rectangle_8715" data-name="Rectangle 8715" width="185" height="5" transform="translate(11.001 149.486)" fill="#e6ebf0"/>
        <path id="bxs-image-alt" d="M6.7,36.271H32.574a3.7,3.7,0,0,0,3.7-3.7V6.7a3.7,3.7,0,0,0-3.7-3.7H6.7A3.7,3.7,0,0,0,3,6.7V32.574A3.7,3.7,0,0,0,6.7,36.271Zm5.545-12.939L16.61,27.7l6.723-9.913,9.242,12.939H6.7Z" transform="translate(82.95 35.025)" fill="#9eaab8" opacity="0.51"/>
      </g>
      <g id="Group_32393" data-name="Group 32393" transform="translate(867 1252.514)">
        <rect id="Rectangle_4827-2" data-name="Rectangle 4827" width="207" height="166" rx="4" transform="translate(0.001 0.486)" fill="#fff"/>
        <path id="Rectangle_4827_-_Outline-2" data-name="Rectangle 4827 - Outline" d="M4,1A3,3,0,0,0,1,4V162a3,3,0,0,0,3,3H203a3,3,0,0,0,3-3V4a3,3,0,0,0-3-3H4M4,0H203a4,4,0,0,1,4,4V162a4,4,0,0,1-4,4H4a4,4,0,0,1-4-4V4A4,4,0,0,1,4,0Z" transform="translate(0.001 0.486)" fill="#d1d8df"/>
        <rect id="Rectangle_4828-2" data-name="Rectangle 4828" width="185" height="90" transform="translate(11.001 9.486)" fill="#e6ebf0"/>
        <rect id="Rectangle_4830-2" data-name="Rectangle 4830" width="185" height="24" transform="translate(11.001 104.486)" fill="#d1d8df"/>
        <rect id="Rectangle_4831-2" data-name="Rectangle 4831" width="185" height="6" transform="translate(11.001 133.486)" fill="#e6ebf0"/>
        <rect id="Rectangle_8714-2" data-name="Rectangle 8714" width="185" height="6" transform="translate(11.001 141.486)" fill="#e6ebf0"/>
        <rect id="Rectangle_8715-2" data-name="Rectangle 8715" width="185" height="5" transform="translate(11.001 149.486)" fill="#e6ebf0"/>
        <path id="bxs-image-alt-2" data-name="bxs-image-alt" d="M6.7,36.271H32.574a3.7,3.7,0,0,0,3.7-3.7V6.7a3.7,3.7,0,0,0-3.7-3.7H6.7A3.7,3.7,0,0,0,3,6.7V32.574A3.7,3.7,0,0,0,6.7,36.271Zm5.545-12.939L16.61,27.7l6.723-9.913,9.242,12.939H6.7Z" transform="translate(82.95 35.025)" fill="#9eaab8" opacity="0.51"/>
      </g>
    </g>
  </g>
</svg>
