<svg xmlns="http://www.w3.org/2000/svg" width="712" height="382" viewBox="0 0 712 382">
  <g id="Grupo_32395" data-name="Grupo 32395" transform="translate(-513 -1205)">
    <g id="Rectángulo_26471" data-name="Rectángulo 26471" transform="translate(513 1205)" fill="#fff" stroke="#38485c" stroke-width="2">
      <rect width="712" height="382" rx="8" stroke="none"/>
      <rect x="1" y="1" width="710" height="380" rx="7" fill="none"/>
    </g>
    <g id="Paginado_-_Completo" data-name="Paginado - Completo" transform="translate(624 1499)">
      <g id="Paginado_-_Individual" data-name="Paginado - Individual" transform="translate(364)">
        <g id="Rectángulo_24319" data-name="Rectángulo 24319" fill="#fff" stroke="#e6ebf0" stroke-width="2">
          <rect width="127" height="40" rx="8" stroke="none"/>
          <rect x="-1" y="-1" width="129" height="42" rx="9" fill="none"/>
        </g>
        <g id="Grupo_32062" data-name="Grupo 32062" transform="translate(-513 -444)">
          <g id="chevron_right" transform="translate(604 452)">
            <rect id="Rectángulo_32" data-name="Rectángulo 32" width="24" height="24" fill="none"/>
            <path id="Trazado_13167" data-name="Trazado 13167" d="M9,102.711a1,1,0,0,0,0,1.41L12.88,108,9,111.881a1,1,0,0,0,1.41,1.41L15,108.7a1,1,0,0,0,0-1.41l-4.59-4.59A1,1,0,0,0,9,102.711Z" transform="translate(0 -96)" fill="#38485c"/>
          </g>
          <g id="Grupo_28115" data-name="Grupo 28115" transform="translate(369.5 196)">
            <text id="Siguiente" transform="translate(155.5 274)" fill="#38485c" font-size="18" font-family="Nunito-Regular, Nunito"><tspan x="0" y="0">Siguiente</tspan></text>
          </g>
        </g>
      </g>
      <g id="Paginado_-_Individual-2" data-name="Paginado - Individual" transform="translate(310)">
        <g id="Rectángulo_24319-2" data-name="Rectángulo 24319" fill="#fff" stroke="#e6ebf0" stroke-width="2">
          <rect width="46" height="40" rx="8" stroke="none"/>
          <rect x="-1" y="-1" width="48" height="42" rx="9" fill="none"/>
        </g>
        <text id="_Text_Body_1_Selected_On_Surface_Medium_Emphasis_Left_" data-name="✱ / Text / Body 1 / Selected / On Surface / Medium Emphasis / Left " transform="translate(12 26)" fill="#38485c" font-size="18" font-family="Nunito-Regular, Nunito" letter-spacing="-0.001em"><tspan x="0" y="0">13</tspan></text>
      </g>
      <g id="Paginado_-_Individual-3" data-name="Paginado - Individual" transform="translate(256)">
        <g id="Rectángulo_24319-3" data-name="Rectángulo 24319" fill="#fff" stroke="#e6ebf0" stroke-width="2">
          <rect width="46" height="40" rx="8" stroke="none"/>
          <rect x="-1" y="-1" width="48" height="42" rx="9" fill="none"/>
        </g>
        <text id="_Text_Body_1_Selected_On_Surface_Medium_Emphasis_Left_2" data-name="✱ / Text / Body 1 / Selected / On Surface / Medium Emphasis / Left " transform="translate(12 26)" fill="#38485c" font-size="18" font-family="Nunito-Regular, Nunito" letter-spacing="-0.001em"><tspan x="0" y="0">12</tspan></text>
      </g>
      <g id="Paginado_-_Individual-4" data-name="Paginado - Individual" transform="translate(212)">
        <g id="Rectángulo_24319-4" data-name="Rectángulo 24319" fill="#fff" stroke="#e6ebf0" stroke-width="2">
          <rect width="36" height="40" rx="8" stroke="none"/>
          <rect x="-1" y="-1" width="38" height="42" rx="9" fill="none"/>
        </g>
        <text id="_Text_Body_1_Selected_On_Surface_Medium_Emphasis_Left_3" data-name="✱ / Text / Body 1 / Selected / On Surface / Medium Emphasis / Left " transform="translate(12 26)" fill="#38485c" font-size="18" font-family="Nunito-Regular, Nunito" letter-spacing="-0.001em"><tspan x="0" y="0">...</tspan></text>
      </g>
      <g id="Paginado_-_Individual-5" data-name="Paginado - Individual" transform="translate(169)">
        <g id="Rectángulo_24319-5" data-name="Rectángulo 24319" fill="#007bc7" stroke="#e6ebf0" stroke-width="2">
          <rect width="35" height="40" rx="8" stroke="none"/>
          <rect x="-1" y="-1" width="37" height="42" rx="9" fill="none"/>
        </g>
        <text id="_Text_Body_1_Selected_On_Surface_Medium_Emphasis_Left_4" data-name="✱ / Text / Body 1 / Selected / On Surface / Medium Emphasis / Left " transform="translate(12 26)" fill="#fff" font-size="18" font-family="Nunito-Regular, Nunito" letter-spacing="-0.001em"><tspan x="0" y="0">2</tspan></text>
      </g>
      <g id="Paginado_-_Individual-6" data-name="Paginado - Individual" transform="translate(126)">
        <g id="Rectángulo_24319-6" data-name="Rectángulo 24319" fill="#fff" stroke="#e6ebf0" stroke-width="2">
          <rect width="35" height="40" rx="8" stroke="none"/>
          <rect x="-1" y="-1" width="37" height="42" rx="9" fill="none"/>
        </g>
        <text id="_Text_Body_1_Selected_On_Surface_Medium_Emphasis_Left_5" data-name="✱ / Text / Body 1 / Selected / On Surface / Medium Emphasis / Left " transform="translate(12 26)" fill="#38485c" font-size="18" font-family="Nunito-Regular, Nunito" letter-spacing="-0.001em"><tspan x="0" y="0">1</tspan></text>
      </g>
      <g id="Paginado_-_Individual-7" data-name="Paginado - Individual">
        <g id="Rectángulo_24319-7" data-name="Rectángulo 24319" fill="#fff" stroke="#e6ebf0" stroke-width="2">
          <rect width="118" height="40" rx="8" stroke="none"/>
          <rect x="-1" y="-1" width="120" height="42" rx="9" fill="none"/>
        </g>
        <g id="Grupo_32060" data-name="Grupo 32060" transform="translate(-513 -444)">
          <g id="Grupo_28115-2" data-name="Grupo 28115" transform="translate(400 196)">
            <text id="Anterior" transform="translate(153 274)" fill="#38485c" font-size="18" font-family="Nunito-Regular, Nunito"><tspan x="0" y="0">Anterior</tspan></text>
          </g>
          <g id="chevron_right-2" data-name="chevron_right" transform="translate(549 476) rotate(180)">
            <rect id="Rectángulo_32-2" data-name="Rectángulo 32" width="24" height="24" fill="none"/>
            <path id="Trazado_13167-2" data-name="Trazado 13167" d="M9,102.711a1,1,0,0,0,0,1.41L12.88,108,9,111.881a1,1,0,0,0,1.41,1.41L15,108.7a1,1,0,0,0,0-1.41l-4.59-4.59A1,1,0,0,0,9,102.711Z" transform="translate(0 -96)" fill="#38485c"/>
          </g>
        </g>
      </g>
    </g>
    <g id="Grupo_18292" data-name="Grupo 18292" transform="translate(650.048 1419)">
      <rect id="Rectángulo_3425" data-name="Rectángulo 3425" width="80" height="439" transform="translate(438.952) rotate(90)" fill="#e6ebf0" opacity="0.24"/>
      <path id="Trazado_4669" data-name="Trazado 4669" d="M0,438.686V0" transform="translate(438.952 79.702) rotate(90)" fill="none" stroke="#38485c" stroke-width="1" stroke-dasharray="5 2"/>
      <path id="Trazado_4670" data-name="Trazado 4670" d="M0,438.686V0" transform="translate(438.952) rotate(90)" fill="none" stroke="#38485c" stroke-width="1" stroke-dasharray="5 2"/>
    </g>
    <path id="Trazado_26556" data-name="Trazado 26556" d="M-11.6-5.792a2.733,2.733,0,0,1,1.528.992,2.864,2.864,0,0,1,.536,1.76,2.747,2.747,0,0,1-1.12,2.328,5.074,5.074,0,0,1-3.1.84,5.074,5.074,0,0,1-3.1-.84,2.747,2.747,0,0,1-1.12-2.328,2.87,2.87,0,0,1,.544-1.768A2.68,2.68,0,0,1-15.9-5.792a2.777,2.777,0,0,1-1.328-1,2.69,2.69,0,0,1-.48-1.592,2.659,2.659,0,0,1,1.056-2.224,4.626,4.626,0,0,1,2.9-.816,4.626,4.626,0,0,1,2.9.816A2.659,2.659,0,0,1-9.808-8.384a2.753,2.753,0,0,1-.48,1.616A2.584,2.584,0,0,1-11.6-5.792Zm-2.16-4.016q-2,0-2,1.632a1.529,1.529,0,0,0,.5,1.24,2.275,2.275,0,0,0,1.5.424,2.275,2.275,0,0,0,1.5-.424,1.529,1.529,0,0,0,.5-1.24Q-11.76-9.808-13.76-9.808Zm0,8.32q2.288,0,2.288-1.712T-13.76-4.912q-2.288,0-2.288,1.712T-13.76-1.488ZM-4.176.144a3.522,3.522,0,0,1-3.056-1.48A7.383,7.383,0,0,1-8.288-5.648a7.35,7.35,0,0,1,1.056-4.3,3.522,3.522,0,0,1,3.056-1.48A3.522,3.522,0,0,1-1.12-9.944a7.35,7.35,0,0,1,1.056,4.3,7.389,7.389,0,0,1-1.056,4.3A3.515,3.515,0,0,1-4.176.144Zm0-1.616a1.656,1.656,0,0,0,1.584-1,7.563,7.563,0,0,0,.5-3.176,7.5,7.5,0,0,0-.5-3.176,1.658,1.658,0,0,0-1.584-.984,1.657,1.657,0,0,0-1.584.992,7.5,7.5,0,0,0-.5,3.168,7.563,7.563,0,0,0,.5,3.176A1.656,1.656,0,0,0-4.176-1.472ZM6.144-8.016a3.243,3.243,0,0,1,1.8.512A3.4,3.4,0,0,1,9.176-6.056,5,5,0,0,1,9.616-3.9a4.845,4.845,0,0,1-.44,2.128A3.333,3.333,0,0,1,7.952-.368a3.309,3.309,0,0,1-1.808.5A3.1,3.1,0,0,1,4.656-.224,2.47,2.47,0,0,1,3.648-1.2V2.064a.83.83,0,0,1-.272.656,1.048,1.048,0,0,1-.72.24A1.037,1.037,0,0,1,1.928,2.7a.868.868,0,0,1-.28-.672V-7.04a.914.914,0,0,1,.264-.688.979.979,0,0,1,.712-.256,1.008,1.008,0,0,1,.72.256.9.9,0,0,1,.272.688v.4A2.455,2.455,0,0,1,4.632-7.656,3.121,3.121,0,0,1,6.144-8.016ZM5.616-1.424a1.793,1.793,0,0,0,1.472-.648A2.829,2.829,0,0,0,7.616-3.9a2.989,2.989,0,0,0-.528-1.888,1.766,1.766,0,0,0-1.472-.672,1.779,1.779,0,0,0-1.48.656,2.952,2.952,0,0,0-.52,1.872,2.923,2.923,0,0,0,.52,1.856A1.779,1.779,0,0,0,5.616-1.424Zm12.256-.048a.9.9,0,0,1,.288.656.885.885,0,0,1-.272.632.864.864,0,0,1-.64.28A.878.878,0,0,1,16.56-.24L14.3-2.736,12.048-.24a.928.928,0,0,1-.688.32.858.858,0,0,1-.624-.272.858.858,0,0,1-.272-.624.9.9,0,0,1,.288-.656l2.336-2.544-2.208-2.4a.9.9,0,0,1-.288-.656.85.85,0,0,1,.272-.632.871.871,0,0,1,.624-.264.928.928,0,0,1,.688.32L14.3-5.312l2.128-2.336a.928.928,0,0,1,.688-.32.862.862,0,0,1,.632.264.862.862,0,0,1,.264.632.9.9,0,0,1-.288.656l-2.208,2.4Z" transform="translate(868.984 1463.424)" fill="#38485c"/>
    <g id="Grupo_32394" data-name="Grupo 32394" transform="translate(14.999)">
      <g id="Grupo_32346" data-name="Grupo 32346" transform="translate(635 1252.514)">
        <g id="Rectángulo_4827" data-name="Rectángulo 4827" transform="translate(0.001 0.486)" fill="#fff" stroke="#d1d8df" stroke-width="1">
          <rect width="207" height="166" rx="4" stroke="none"/>
          <rect x="0.5" y="0.5" width="206" height="165" rx="3.5" fill="none"/>
        </g>
        <rect id="Rectángulo_4828" data-name="Rectángulo 4828" width="185" height="90" transform="translate(11.001 9.486)" fill="#e6ebf0"/>
        <rect id="Rectángulo_4830" data-name="Rectángulo 4830" width="185" height="24" transform="translate(11.001 104.486)" fill="#d1d8df"/>
        <rect id="Rectángulo_4831" data-name="Rectángulo 4831" width="185" height="6" transform="translate(11.001 133.486)" fill="#e6ebf0"/>
        <rect id="Rectángulo_8714" data-name="Rectángulo 8714" width="185" height="6" transform="translate(11.001 141.486)" fill="#e6ebf0"/>
        <rect id="Rectángulo_8715" data-name="Rectángulo 8715" width="185" height="5" transform="translate(11.001 149.486)" fill="#e6ebf0"/>
        <path id="bxs-image-alt" d="M6.7,36.271H32.574a3.7,3.7,0,0,0,3.7-3.7V6.7a3.7,3.7,0,0,0-3.7-3.7H6.7A3.7,3.7,0,0,0,3,6.7V32.574A3.7,3.7,0,0,0,6.7,36.271Zm5.545-12.939L16.61,27.7l6.723-9.913,9.242,12.939H6.7Z" transform="translate(82.95 35.025)" fill="#9eaab8" opacity="0.51"/>
      </g>
      <g id="Grupo_32393" data-name="Grupo 32393" transform="translate(867 1252.514)">
        <g id="Rectángulo_4827-2" data-name="Rectángulo 4827" transform="translate(0.001 0.486)" fill="#fff" stroke="#d1d8df" stroke-width="1">
          <rect width="207" height="166" rx="4" stroke="none"/>
          <rect x="0.5" y="0.5" width="206" height="165" rx="3.5" fill="none"/>
        </g>
        <rect id="Rectángulo_4828-2" data-name="Rectángulo 4828" width="185" height="90" transform="translate(11.001 9.486)" fill="#e6ebf0"/>
        <rect id="Rectángulo_4830-2" data-name="Rectángulo 4830" width="185" height="24" transform="translate(11.001 104.486)" fill="#d1d8df"/>
        <rect id="Rectángulo_4831-2" data-name="Rectángulo 4831" width="185" height="6" transform="translate(11.001 133.486)" fill="#e6ebf0"/>
        <rect id="Rectángulo_8714-2" data-name="Rectángulo 8714" width="185" height="6" transform="translate(11.001 141.486)" fill="#e6ebf0"/>
        <rect id="Rectángulo_8715-2" data-name="Rectángulo 8715" width="185" height="5" transform="translate(11.001 149.486)" fill="#e6ebf0"/>
        <path id="bxs-image-alt-2" data-name="bxs-image-alt" d="M6.7,36.271H32.574a3.7,3.7,0,0,0,3.7-3.7V6.7a3.7,3.7,0,0,0-3.7-3.7H6.7A3.7,3.7,0,0,0,3,6.7V32.574A3.7,3.7,0,0,0,6.7,36.271Zm5.545-12.939L16.61,27.7l6.723-9.913,9.242,12.939H6.7Z" transform="translate(82.95 35.025)" fill="#9eaab8" opacity="0.51"/>
      </g>
    </g>
  </g>
</svg>
