<svg width="429" height="44" viewBox="0 0 429 44" fill="none" xmlns="http://www.w3.org/2000/svg">
<rect x="1" y="1" width="113" height="42" rx="9" fill="white"/>
<g clip-path="url(#clip0_1592_1526)">
<path d="M20.71 25.88L16.83 22L20.71 18.12C21.1 17.73 21.1 17.1 20.71 16.71C20.32 16.32 19.69 16.32 19.3 16.71L14.71 21.3C14.32 21.69 14.32 22.32 14.71 22.71L19.3 27.3C19.69 27.69 20.32 27.69 20.71 27.3C21.09 26.91 21.1 26.27 20.71 25.88Z" fill="#38485C"/>
</g>
<path d="M35.296 28.126C35.104 28.126 34.948 28.084 34.828 28C34.72 27.904 34.654 27.784 34.63 27.64C34.618 27.484 34.654 27.31 34.738 27.118L39.688 15.85C39.796 15.61 39.922 15.442 40.066 15.346C40.222 15.238 40.39 15.184 40.57 15.184C40.75 15.184 40.912 15.238 41.056 15.346C41.212 15.442 41.338 15.61 41.434 15.85L46.402 27.118C46.498 27.31 46.534 27.484 46.51 27.64C46.498 27.796 46.438 27.916 46.33 28C46.222 28.084 46.072 28.126 45.88 28.126C45.664 28.126 45.49 28.072 45.358 27.964C45.226 27.844 45.118 27.676 45.034 27.46L43.702 24.382L44.422 24.76H36.682L37.42 24.382L36.106 27.46C35.998 27.688 35.884 27.856 35.764 27.964C35.644 28.072 35.488 28.126 35.296 28.126ZM40.552 17.038L37.654 23.86L37.222 23.518H43.882L43.486 23.86L40.588 17.038H40.552ZM49.2013 28.126C48.9613 28.126 48.7813 28.06 48.6613 27.928C48.5413 27.796 48.4813 27.61 48.4813 27.37V19.864C48.4813 19.624 48.5413 19.444 48.6613 19.324C48.7813 19.192 48.9553 19.126 49.1833 19.126C49.4113 19.126 49.5853 19.192 49.7053 19.324C49.8373 19.444 49.9033 19.624 49.9033 19.864V21.412L49.7053 21.196C49.9573 20.5 50.3653 19.978 50.9293 19.63C51.5053 19.27 52.1653 19.09 52.9093 19.09C53.6053 19.09 54.1813 19.216 54.6373 19.468C55.1053 19.72 55.4533 20.104 55.6813 20.62C55.9093 21.124 56.0233 21.766 56.0233 22.546V27.37C56.0233 27.61 55.9573 27.796 55.8253 27.928C55.7053 28.06 55.5313 28.126 55.3033 28.126C55.0633 28.126 54.8773 28.06 54.7453 27.928C54.6253 27.796 54.5653 27.61 54.5653 27.37V22.636C54.5653 21.82 54.4033 21.226 54.0793 20.854C53.7673 20.47 53.2633 20.278 52.5673 20.278C51.7633 20.278 51.1213 20.53 50.6413 21.034C50.1733 21.526 49.9393 22.186 49.9393 23.014V27.37C49.9393 27.874 49.6933 28.126 49.2013 28.126ZM62.2218 28.162C61.5378 28.162 60.9618 28.042 60.4938 27.802C60.0378 27.55 59.6958 27.19 59.4678 26.722C59.2398 26.242 59.1258 25.66 59.1258 24.976V20.386H57.9198C57.7158 20.386 57.5598 20.338 57.4518 20.242C57.3438 20.134 57.2897 19.99 57.2897 19.81C57.2897 19.63 57.3438 19.492 57.4518 19.396C57.5598 19.3 57.7158 19.252 57.9198 19.252H59.1258V17.182C59.1258 16.942 59.1918 16.762 59.3238 16.642C59.4558 16.51 59.6358 16.444 59.8638 16.444C60.0918 16.444 60.2658 16.51 60.3858 16.642C60.5178 16.762 60.5838 16.942 60.5838 17.182V19.252H62.8518C63.0558 19.252 63.2118 19.3 63.3198 19.396C63.4278 19.492 63.4818 19.63 63.4818 19.81C63.4818 19.99 63.4278 20.134 63.3198 20.242C63.2118 20.338 63.0558 20.386 62.8518 20.386H60.5838V24.832C60.5838 25.516 60.7278 26.038 61.0158 26.398C61.3038 26.746 61.7718 26.92 62.4198 26.92C62.6478 26.92 62.8398 26.896 62.9958 26.848C63.1638 26.8 63.3018 26.776 63.4098 26.776C63.5178 26.764 63.6078 26.8 63.6798 26.884C63.7518 26.968 63.7878 27.112 63.7878 27.316C63.7878 27.46 63.7578 27.592 63.6978 27.712C63.6498 27.832 63.5598 27.916 63.4278 27.964C63.2838 28.012 63.0918 28.054 62.8518 28.09C62.6238 28.138 62.4138 28.162 62.2218 28.162ZM68.8588 28.162C67.9348 28.162 67.1368 27.982 66.4648 27.622C65.8048 27.25 65.2888 26.728 64.9168 26.056C64.5568 25.384 64.3768 24.58 64.3768 23.644C64.3768 22.732 64.5568 21.94 64.9168 21.268C65.2768 20.584 65.7688 20.05 66.3928 19.666C67.0288 19.282 67.7608 19.09 68.5888 19.09C69.1768 19.09 69.7048 19.192 70.1728 19.396C70.6408 19.588 71.0368 19.87 71.3608 20.242C71.6968 20.614 71.9488 21.064 72.1168 21.592C72.2968 22.12 72.3868 22.714 72.3868 23.374C72.3868 23.566 72.3328 23.71 72.2248 23.806C72.1168 23.89 71.9608 23.932 71.7568 23.932H65.4928V22.978H71.4148L71.1268 23.212C71.1268 22.564 71.0308 22.018 70.8388 21.574C70.6468 21.118 70.3648 20.77 69.9928 20.53C69.6328 20.29 69.1768 20.17 68.6248 20.17C68.0128 20.17 67.4908 20.314 67.0588 20.602C66.6388 20.878 66.3208 21.268 66.1048 21.772C65.8888 22.264 65.7808 22.84 65.7808 23.5V23.608C65.7808 24.712 66.0448 25.552 66.5728 26.128C67.1128 26.704 67.8748 26.992 68.8588 26.992C69.2668 26.992 69.6688 26.938 70.0648 26.83C70.4728 26.722 70.8688 26.542 71.2528 26.29C71.4208 26.182 71.5708 26.134 71.7028 26.146C71.8468 26.146 71.9608 26.188 72.0448 26.272C72.1288 26.344 72.1828 26.44 72.2068 26.56C72.2428 26.668 72.2308 26.788 72.1708 26.92C72.1228 27.052 72.0208 27.166 71.8648 27.262C71.4688 27.55 71.0008 27.772 70.4608 27.928C69.9208 28.084 69.3868 28.162 68.8588 28.162ZM75.2349 28.126C74.9949 28.126 74.8089 28.06 74.6769 27.928C74.5569 27.796 74.4969 27.61 74.4969 27.37V19.864C74.4969 19.624 74.5569 19.444 74.6769 19.324C74.7969 19.192 74.9709 19.126 75.1989 19.126C75.4269 19.126 75.6009 19.192 75.7209 19.324C75.8529 19.444 75.9189 19.624 75.9189 19.864V21.322H75.7389C75.9309 20.614 76.2969 20.068 76.8369 19.684C77.3769 19.3 78.0429 19.096 78.8349 19.072C79.0149 19.06 79.1589 19.102 79.2669 19.198C79.3749 19.282 79.4349 19.432 79.4469 19.648C79.4589 19.852 79.4109 20.014 79.3029 20.134C79.1949 20.254 79.0269 20.326 78.7989 20.35L78.5109 20.386C77.6949 20.458 77.0649 20.722 76.6209 21.178C76.1889 21.622 75.9729 22.234 75.9729 23.014V27.37C75.9729 27.61 75.9069 27.796 75.7749 27.928C75.6549 28.06 75.4749 28.126 75.2349 28.126ZM81.6681 28.09C81.4281 28.09 81.2481 28.024 81.1281 27.892C81.0081 27.748 80.9481 27.55 80.9481 27.298V19.936C80.9481 19.684 81.0081 19.492 81.1281 19.36C81.2481 19.228 81.4281 19.162 81.6681 19.162C81.8961 19.162 82.0761 19.228 82.2081 19.36C82.3401 19.492 82.4061 19.684 82.4061 19.936V27.298C82.4061 27.55 82.3401 27.748 82.2081 27.892C82.0881 28.024 81.9081 28.09 81.6681 28.09ZM81.6681 17.146C81.3681 17.146 81.1341 17.068 80.9661 16.912C80.7981 16.744 80.7141 16.522 80.7141 16.246C80.7141 15.958 80.7981 15.742 80.9661 15.598C81.1341 15.442 81.3681 15.364 81.6681 15.364C81.9801 15.364 82.2141 15.442 82.3701 15.598C82.5381 15.742 82.6221 15.958 82.6221 16.246C82.6221 16.522 82.5381 16.744 82.3701 16.912C82.2141 17.068 81.9801 17.146 81.6681 17.146ZM88.7677 28.162C87.9157 28.162 87.1777 27.976 86.5537 27.604C85.9297 27.232 85.4437 26.71 85.0957 26.038C84.7597 25.354 84.5917 24.55 84.5917 23.626C84.5917 22.93 84.6877 22.306 84.8797 21.754C85.0717 21.19 85.3537 20.71 85.7257 20.314C86.0977 19.918 86.5357 19.618 87.0397 19.414C87.5557 19.198 88.1317 19.09 88.7677 19.09C89.6197 19.09 90.3577 19.276 90.9817 19.648C91.6057 20.02 92.0857 20.548 92.4217 21.232C92.7697 21.904 92.9437 22.702 92.9437 23.626C92.9437 24.322 92.8477 24.946 92.6557 25.498C92.4637 26.05 92.1817 26.53 91.8097 26.938C91.4377 27.334 90.9937 27.64 90.4777 27.856C89.9737 28.06 89.4037 28.162 88.7677 28.162ZM88.7677 26.992C89.3077 26.992 89.7817 26.86 90.1897 26.596C90.5977 26.332 90.9097 25.948 91.1257 25.444C91.3537 24.94 91.4677 24.334 91.4677 23.626C91.4677 22.534 91.2217 21.7 90.7297 21.124C90.2497 20.548 89.5957 20.26 88.7677 20.26C88.2157 20.26 87.7357 20.392 87.3277 20.656C86.9317 20.908 86.6197 21.286 86.3917 21.79C86.1757 22.282 86.0677 22.894 86.0677 23.626C86.0677 24.706 86.3137 25.54 86.8057 26.128C87.2977 26.704 87.9517 26.992 88.7677 26.992ZM95.8716 28.126C95.6316 28.126 95.4456 28.06 95.3136 27.928C95.1936 27.796 95.1336 27.61 95.1336 27.37V19.864C95.1336 19.624 95.1936 19.444 95.3136 19.324C95.4336 19.192 95.6076 19.126 95.8356 19.126C96.0636 19.126 96.2376 19.192 96.3576 19.324C96.4896 19.444 96.5556 19.624 96.5556 19.864V21.322H96.3756C96.5676 20.614 96.9336 20.068 97.4736 19.684C98.0136 19.3 98.6796 19.096 99.4716 19.072C99.6516 19.06 99.7956 19.102 99.9036 19.198C100.012 19.282 100.072 19.432 100.084 19.648C100.096 19.852 100.048 20.014 99.9396 20.134C99.8316 20.254 99.6636 20.326 99.4356 20.35L99.1476 20.386C98.3316 20.458 97.7016 20.722 97.2576 21.178C96.8256 21.622 96.6096 22.234 96.6096 23.014V27.37C96.6096 27.61 96.5436 27.796 96.4116 27.928C96.2916 28.06 96.1116 28.126 95.8716 28.126Z" fill="#38485C"/>
<rect x="1" y="1" width="113" height="42" rx="9" stroke="#E6EBF0" stroke-width="2"/>
<rect x="120" y="1" width="37" height="42" rx="9" fill="white"/>
<path d="M135.79 28C135.574 28 135.406 27.946 135.286 27.838C135.166 27.718 135.106 27.556 135.106 27.352C135.106 27.148 135.166 26.998 135.286 26.902C135.406 26.794 135.574 26.74 135.79 26.74H138.13V16.534H138.904L136.294 18.262C136.138 18.346 135.988 18.382 135.844 18.37C135.712 18.358 135.598 18.31 135.502 18.226C135.418 18.13 135.358 18.022 135.322 17.902C135.286 17.77 135.292 17.638 135.34 17.506C135.388 17.362 135.49 17.242 135.646 17.146L138.13 15.508C138.286 15.412 138.436 15.334 138.58 15.274C138.724 15.214 138.868 15.184 139.012 15.184C139.18 15.184 139.318 15.238 139.426 15.346C139.546 15.442 139.606 15.598 139.606 15.814V26.74H141.766C141.982 26.74 142.15 26.794 142.27 26.902C142.39 26.998 142.45 27.148 142.45 27.352C142.45 27.568 142.39 27.73 142.27 27.838C142.15 27.946 141.982 28 141.766 28H135.79Z" fill="#38485C"/>
<rect x="120" y="1" width="37" height="42" rx="9" stroke="#E6EBF0" stroke-width="2"/>
<rect x="164" y="2" width="37" height="40" rx="8" fill="white"/>
<path d="M178.07 28.072C177.77 28.072 177.53 27.982 177.35 27.802C177.17 27.61 177.08 27.37 177.08 27.082C177.08 26.794 177.17 26.56 177.35 26.38C177.53 26.188 177.77 26.092 178.07 26.092C178.37 26.092 178.604 26.188 178.772 26.38C178.952 26.56 179.042 26.794 179.042 27.082C179.042 27.37 178.952 27.61 178.772 27.802C178.604 27.982 178.37 28.072 178.07 28.072ZM182.166 28.072C181.866 28.072 181.626 27.982 181.446 27.802C181.266 27.61 181.176 27.37 181.176 27.082C181.176 26.794 181.266 26.56 181.446 26.38C181.626 26.188 181.866 26.092 182.166 26.092C182.466 26.092 182.7 26.188 182.868 26.38C183.048 26.56 183.138 26.794 183.138 27.082C183.138 27.37 183.048 27.61 182.868 27.802C182.7 27.982 182.466 28.072 182.166 28.072ZM186.261 28.072C185.961 28.072 185.721 27.982 185.541 27.802C185.361 27.61 185.271 27.37 185.271 27.082C185.271 26.794 185.361 26.56 185.541 26.38C185.721 26.188 185.961 26.092 186.261 26.092C186.561 26.092 186.795 26.188 186.963 26.38C187.143 26.56 187.233 26.794 187.233 27.082C187.233 27.37 187.143 27.61 186.963 27.802C186.795 27.982 186.561 28.072 186.261 28.072Z" fill="#38485C"/>
<rect x="208" y="1" width="37" height="42" rx="9" fill="white"/>
<path d="M226.832 28.162C225.836 28.162 224.984 27.922 224.276 27.442C223.58 26.95 223.052 26.242 222.692 25.318C222.332 24.394 222.152 23.278 222.152 21.97C222.152 20.866 222.266 19.894 222.494 19.054C222.722 18.214 223.058 17.506 223.502 16.93C223.946 16.342 224.486 15.898 225.122 15.598C225.758 15.298 226.478 15.148 227.282 15.148C227.834 15.148 228.398 15.256 228.974 15.472C229.562 15.688 230.078 15.994 230.522 16.39C230.654 16.486 230.732 16.606 230.756 16.75C230.792 16.882 230.792 17.014 230.756 17.146C230.72 17.266 230.654 17.368 230.558 17.452C230.474 17.536 230.366 17.584 230.234 17.596C230.102 17.596 229.964 17.542 229.82 17.434C229.412 17.086 228.992 16.84 228.56 16.696C228.128 16.54 227.69 16.462 227.246 16.462C226.466 16.462 225.8 16.654 225.248 17.038C224.708 17.422 224.294 18.004 224.006 18.784C223.73 19.552 223.592 20.518 223.592 21.682V23.356H223.43C223.502 22.672 223.7 22.084 224.024 21.592C224.36 21.088 224.786 20.704 225.302 20.44C225.818 20.176 226.4 20.044 227.048 20.044C227.792 20.044 228.452 20.212 229.028 20.548C229.604 20.884 230.054 21.358 230.378 21.97C230.702 22.57 230.864 23.26 230.864 24.04C230.864 24.832 230.696 25.54 230.36 26.164C230.024 26.788 229.55 27.28 228.938 27.64C228.326 27.988 227.624 28.162 226.832 28.162ZM226.742 26.902C227.27 26.902 227.738 26.788 228.146 26.56C228.554 26.32 228.872 25.99 229.1 25.57C229.328 25.138 229.442 24.646 229.442 24.094C229.442 23.542 229.328 23.056 229.1 22.636C228.872 22.216 228.554 21.886 228.146 21.646C227.738 21.406 227.27 21.286 226.742 21.286C226.214 21.286 225.746 21.406 225.338 21.646C224.93 21.886 224.612 22.216 224.384 22.636C224.156 23.056 224.042 23.542 224.042 24.094C224.042 24.646 224.156 25.138 224.384 25.57C224.612 25.99 224.93 26.32 225.338 26.56C225.746 26.788 226.214 26.902 226.742 26.902Z" fill="#38485C"/>
<rect x="208" y="1" width="37" height="42" rx="9" stroke="#E6EBF0" stroke-width="2"/>
<rect x="251" y="1" width="37" height="42" rx="9" fill="white"/>
<path d="M267.024 28.126C266.856 28.126 266.712 28.084 266.592 28C266.472 27.916 266.394 27.802 266.358 27.658C266.334 27.502 266.37 27.334 266.466 27.154L272.244 15.94V16.588H265.764C265.548 16.588 265.38 16.534 265.26 16.426C265.14 16.306 265.08 16.144 265.08 15.94C265.08 15.736 265.14 15.58 265.26 15.472C265.38 15.364 265.548 15.31 265.764 15.31H272.91C273.126 15.31 273.3 15.364 273.432 15.472C273.564 15.58 273.63 15.736 273.63 15.94C273.63 16.108 273.606 16.258 273.558 16.39C273.522 16.51 273.468 16.648 273.396 16.804L267.852 27.622C267.768 27.79 267.66 27.916 267.528 28C267.396 28.084 267.228 28.126 267.024 28.126Z" fill="#38485C"/>
<rect x="251" y="1" width="37" height="42" rx="9" stroke="#E6EBF0" stroke-width="2"/>
<rect x="294" y="1" width="37" height="42" rx="9" fill="white"/>
<path d="M312.4 28.162C311.452 28.162 310.636 28.024 309.952 27.748C309.28 27.472 308.764 27.07 308.404 26.542C308.056 26.014 307.882 25.378 307.882 24.634C307.882 24.046 308.002 23.524 308.242 23.068C308.482 22.6 308.818 22.222 309.25 21.934C309.682 21.646 310.18 21.466 310.744 21.394V21.664C309.964 21.496 309.34 21.13 308.872 20.566C308.416 19.99 308.188 19.312 308.188 18.532C308.188 17.812 308.356 17.206 308.692 16.714C309.04 16.21 309.532 15.826 310.168 15.562C310.804 15.286 311.548 15.148 312.4 15.148C313.264 15.148 314.008 15.286 314.632 15.562C315.268 15.826 315.76 16.21 316.108 16.714C316.456 17.206 316.63 17.812 316.63 18.532C316.63 19.048 316.522 19.528 316.306 19.972C316.102 20.404 315.808 20.764 315.424 21.052C315.04 21.34 314.59 21.538 314.074 21.646V21.394C314.926 21.514 315.61 21.868 316.126 22.456C316.654 23.032 316.918 23.758 316.918 24.634C316.918 25.378 316.738 26.014 316.378 26.542C316.03 27.07 315.514 27.472 314.83 27.748C314.158 28.024 313.348 28.162 312.4 28.162ZM312.4 26.938C313.42 26.938 314.188 26.74 314.704 26.344C315.232 25.948 315.496 25.348 315.496 24.544C315.496 23.752 315.232 23.164 314.704 22.78C314.188 22.384 313.42 22.186 312.4 22.186C311.392 22.186 310.624 22.384 310.096 22.78C309.568 23.164 309.304 23.752 309.304 24.544C309.304 25.348 309.568 25.948 310.096 26.344C310.624 26.74 311.392 26.938 312.4 26.938ZM312.4 20.962C312.988 20.962 313.486 20.872 313.894 20.692C314.314 20.5 314.638 20.23 314.866 19.882C315.094 19.534 315.208 19.126 315.208 18.658C315.208 17.938 314.956 17.38 314.452 16.984C313.96 16.576 313.276 16.372 312.4 16.372C311.524 16.372 310.84 16.576 310.348 16.984C309.856 17.38 309.61 17.938 309.61 18.658C309.61 19.378 309.856 19.942 310.348 20.35C310.84 20.758 311.524 20.962 312.4 20.962Z" fill="#38485C"/>
<rect x="294" y="1" width="37" height="42" rx="9" stroke="#E6EBF0" stroke-width="2"/>
<rect x="337" y="1" width="37" height="42" rx="9" fill="white"/>
<path d="M354.518 28.162C353.978 28.162 353.414 28.054 352.826 27.838C352.238 27.622 351.722 27.31 351.278 26.902C351.146 26.806 351.062 26.692 351.026 26.56C351.002 26.428 351.008 26.302 351.044 26.182C351.08 26.05 351.14 25.942 351.224 25.858C351.32 25.762 351.434 25.714 351.566 25.714C351.698 25.702 351.836 25.75 351.98 25.858C352.388 26.206 352.808 26.458 353.24 26.614C353.672 26.77 354.11 26.848 354.554 26.848C355.334 26.848 355.994 26.656 356.534 26.272C357.086 25.888 357.5 25.306 357.776 24.526C358.064 23.746 358.208 22.78 358.208 21.628V19.954H358.37C358.298 20.626 358.094 21.214 357.758 21.718C357.434 22.222 357.014 22.606 356.498 22.87C355.982 23.134 355.4 23.266 354.752 23.266C354.008 23.266 353.348 23.098 352.772 22.762C352.196 22.426 351.746 21.952 351.422 21.34C351.098 20.728 350.936 20.038 350.936 19.27C350.936 18.466 351.104 17.758 351.44 17.146C351.788 16.522 352.262 16.036 352.862 15.688C353.474 15.328 354.176 15.148 354.968 15.148C355.964 15.148 356.81 15.394 357.506 15.886C358.214 16.366 358.748 17.068 359.108 17.992C359.468 18.916 359.648 20.032 359.648 21.34C359.648 22.444 359.534 23.416 359.306 24.256C359.078 25.096 358.742 25.81 358.298 26.398C357.854 26.974 357.314 27.412 356.678 27.712C356.042 28.012 355.322 28.162 354.518 28.162ZM355.058 22.024C355.598 22.024 356.072 21.904 356.48 21.664C356.888 21.424 357.206 21.094 357.434 20.674C357.662 20.242 357.776 19.75 357.776 19.198C357.776 18.646 357.662 18.16 357.434 17.74C357.206 17.32 356.888 16.99 356.48 16.75C356.072 16.51 355.598 16.39 355.058 16.39C354.53 16.39 354.062 16.51 353.654 16.75C353.258 16.99 352.94 17.32 352.7 17.74C352.472 18.16 352.358 18.646 352.358 19.198C352.358 19.75 352.472 20.242 352.7 20.674C352.94 21.094 353.258 21.424 353.654 21.664C354.062 21.904 354.53 22.024 355.058 22.024Z" fill="#38485C"/>
<rect x="337" y="1" width="37" height="42" rx="9" stroke="#E6EBF0" stroke-width="2"/>
<rect x="380" y="1" width="48" height="42" rx="9" fill="#007BC7"/>
<path d="M395.79 28C395.574 28 395.406 27.946 395.286 27.838C395.166 27.718 395.106 27.556 395.106 27.352C395.106 27.148 395.166 26.998 395.286 26.902C395.406 26.794 395.574 26.74 395.79 26.74H398.13V16.534H398.904L396.294 18.262C396.138 18.346 395.988 18.382 395.844 18.37C395.712 18.358 395.598 18.31 395.502 18.226C395.418 18.13 395.358 18.022 395.322 17.902C395.286 17.77 395.292 17.638 395.34 17.506C395.388 17.362 395.49 17.242 395.646 17.146L398.13 15.508C398.286 15.412 398.436 15.334 398.58 15.274C398.724 15.214 398.868 15.184 399.012 15.184C399.18 15.184 399.318 15.238 399.426 15.346C399.546 15.442 399.606 15.598 399.606 15.814V26.74H401.766C401.982 26.74 402.15 26.794 402.27 26.902C402.39 26.998 402.45 27.148 402.45 27.352C402.45 27.568 402.39 27.73 402.27 27.838C402.15 27.946 401.982 28 401.766 28H395.79ZM409.193 28.162C407.741 28.162 406.637 27.604 405.881 26.488C405.125 25.372 404.747 23.758 404.747 21.646C404.747 20.23 404.915 19.042 405.251 18.082C405.587 17.11 406.085 16.378 406.745 15.886C407.417 15.394 408.233 15.148 409.193 15.148C410.657 15.148 411.761 15.7 412.505 16.804C413.261 17.896 413.639 19.504 413.639 21.628C413.639 23.044 413.471 24.238 413.135 25.21C412.799 26.182 412.301 26.92 411.641 27.424C410.981 27.916 410.165 28.162 409.193 28.162ZM409.193 26.884C410.201 26.884 410.945 26.458 411.425 25.606C411.917 24.742 412.163 23.416 412.163 21.628C412.163 19.828 411.917 18.514 411.425 17.686C410.945 16.846 410.201 16.426 409.193 16.426C408.197 16.426 407.453 16.846 406.961 17.686C406.469 18.526 406.223 19.84 406.223 21.628C406.223 23.416 406.469 24.742 406.961 25.606C407.453 26.458 408.197 26.884 409.193 26.884Z" fill="white"/>
<rect x="380" y="1" width="48" height="42" rx="9" stroke="#E6EBF0" stroke-width="2"/>
<defs>
<clipPath id="clip0_1592_1526">
<rect width="24" height="24" fill="white" transform="translate(6 10)"/>
</clipPath>
</defs>
</svg>
