<svg width="438" height="100" viewBox="0 0 438 100" fill="none" xmlns="http://www.w3.org/2000/svg">
<rect x="1" y="1" width="37" height="42" rx="9" fill="#007BC7"/>
<path d="M16.79 28C16.574 28 16.406 27.946 16.286 27.838C16.166 27.718 16.106 27.556 16.106 27.352C16.106 27.148 16.166 26.998 16.286 26.902C16.406 26.794 16.574 26.74 16.79 26.74H19.13V16.534H19.904L17.294 18.262C17.138 18.346 16.988 18.382 16.844 18.37C16.712 18.358 16.598 18.31 16.502 18.226C16.418 18.13 16.358 18.022 16.322 17.902C16.286 17.77 16.292 17.638 16.34 17.506C16.388 17.362 16.49 17.242 16.646 17.146L19.13 15.508C19.286 15.412 19.436 15.334 19.58 15.274C19.724 15.214 19.868 15.184 20.012 15.184C20.18 15.184 20.318 15.238 20.426 15.346C20.546 15.442 20.606 15.598 20.606 15.814V26.74H22.766C22.982 26.74 23.15 26.794 23.27 26.902C23.39 26.998 23.45 27.148 23.45 27.352C23.45 27.568 23.39 27.73 23.27 27.838C23.15 27.946 22.982 28 22.766 28H16.79Z" fill="white"/>
<rect x="1" y="1" width="37" height="42" rx="9" stroke="#E6EBF0" stroke-width="2"/>
<rect x="44" y="1" width="37" height="42" rx="9" fill="white"/>
<path d="M59.322 28C59.058 28 58.86 27.94 58.728 27.82C58.608 27.688 58.548 27.514 58.548 27.298C58.548 27.166 58.578 27.04 58.638 26.92C58.71 26.788 58.806 26.656 58.926 26.524L62.958 22.204C63.57 21.544 64.008 20.938 64.272 20.386C64.548 19.822 64.686 19.252 64.686 18.676C64.686 17.956 64.464 17.41 64.02 17.038C63.588 16.654 62.952 16.462 62.112 16.462C61.572 16.462 61.062 16.546 60.582 16.714C60.102 16.882 59.64 17.14 59.196 17.488C59.04 17.608 58.896 17.662 58.764 17.65C58.644 17.638 58.536 17.59 58.44 17.506C58.344 17.422 58.278 17.314 58.242 17.182C58.206 17.05 58.206 16.918 58.242 16.786C58.29 16.654 58.386 16.534 58.53 16.426C58.998 16.042 59.562 15.736 60.222 15.508C60.882 15.268 61.554 15.148 62.238 15.148C63.09 15.148 63.81 15.28 64.398 15.544C64.986 15.808 65.43 16.198 65.73 16.714C66.03 17.218 66.18 17.836 66.18 18.568C66.18 19.072 66.096 19.57 65.928 20.062C65.772 20.542 65.526 21.034 65.19 21.538C64.866 22.042 64.44 22.564 63.912 23.104L60.078 27.154V26.74H66.144C66.372 26.74 66.54 26.794 66.648 26.902C66.768 26.998 66.828 27.148 66.828 27.352C66.828 27.568 66.768 27.73 66.648 27.838C66.54 27.946 66.372 28 66.144 28H59.322Z" fill="#38485C"/>
<rect x="44" y="1" width="37" height="42" rx="9" stroke="#E6EBF0" stroke-width="2"/>
<rect x="87" y="1" width="37" height="42" rx="9" fill="white"/>
<path d="M105.256 28.162C104.56 28.162 103.858 28.06 103.15 27.856C102.454 27.652 101.848 27.352 101.332 26.956C101.176 26.848 101.074 26.728 101.026 26.596C100.978 26.452 100.966 26.32 100.99 26.2C101.026 26.068 101.092 25.96 101.188 25.876C101.284 25.78 101.398 25.726 101.53 25.714C101.674 25.702 101.83 25.75 101.998 25.858C102.526 26.206 103.054 26.458 103.582 26.614C104.11 26.77 104.656 26.848 105.22 26.848C105.832 26.848 106.348 26.758 106.768 26.578C107.188 26.398 107.506 26.134 107.722 25.786C107.938 25.426 108.046 24.988 108.046 24.472C108.046 23.728 107.8 23.164 107.308 22.78C106.816 22.396 106.102 22.204 105.166 22.204H103.888C103.66 22.204 103.486 22.15 103.366 22.042C103.246 21.922 103.186 21.76 103.186 21.556C103.186 21.364 103.246 21.214 103.366 21.106C103.486 20.986 103.66 20.926 103.888 20.926H105.04C105.592 20.926 106.06 20.83 106.444 20.638C106.84 20.446 107.146 20.176 107.362 19.828C107.578 19.468 107.686 19.036 107.686 18.532C107.686 17.86 107.47 17.35 107.038 17.002C106.606 16.642 105.982 16.462 105.166 16.462C104.626 16.462 104.116 16.54 103.636 16.696C103.156 16.852 102.682 17.116 102.214 17.488C102.07 17.596 101.926 17.65 101.782 17.65C101.65 17.638 101.536 17.596 101.44 17.524C101.356 17.44 101.29 17.332 101.242 17.2C101.206 17.068 101.212 16.936 101.26 16.804C101.308 16.66 101.41 16.528 101.566 16.408C102.046 16 102.61 15.688 103.258 15.472C103.906 15.256 104.572 15.148 105.256 15.148C106.072 15.148 106.768 15.28 107.344 15.544C107.932 15.796 108.382 16.168 108.694 16.66C109.006 17.14 109.162 17.722 109.162 18.406C109.162 18.922 109.06 19.396 108.856 19.828C108.664 20.248 108.388 20.608 108.028 20.908C107.68 21.208 107.254 21.424 106.75 21.556V21.358C107.626 21.502 108.304 21.862 108.784 22.438C109.276 23.002 109.522 23.716 109.522 24.58C109.522 25.312 109.348 25.948 109 26.488C108.664 27.016 108.178 27.43 107.542 27.73C106.906 28.018 106.144 28.162 105.256 28.162Z" fill="#38485C"/>
<rect x="87" y="1" width="37" height="42" rx="9" stroke="#E6EBF0" stroke-width="2"/>
<rect x="130" y="1" width="37" height="42" rx="9" fill="white"/>
<path d="M150.524 28.126C150.296 28.126 150.116 28.06 149.984 27.928C149.852 27.796 149.786 27.61 149.786 27.37V25.282H144.62C144.38 25.282 144.188 25.228 144.044 25.12C143.912 25 143.846 24.832 143.846 24.616C143.846 24.484 143.876 24.352 143.936 24.22C143.996 24.076 144.104 23.896 144.26 23.68L149.75 15.688C149.858 15.52 149.978 15.394 150.11 15.31C150.242 15.226 150.398 15.184 150.578 15.184C150.77 15.184 150.932 15.244 151.064 15.364C151.208 15.484 151.28 15.676 151.28 15.94V24.022H152.594C152.822 24.022 152.996 24.076 153.116 24.184C153.236 24.292 153.296 24.448 153.296 24.652C153.296 24.856 153.236 25.012 153.116 25.12C152.996 25.228 152.822 25.282 152.594 25.282H151.28V27.37C151.28 27.61 151.214 27.796 151.082 27.928C150.95 28.06 150.764 28.126 150.524 28.126ZM149.786 24.022V17.038H150.218L145.178 24.418V24.022H149.786Z" fill="#38485C"/>
<rect x="130" y="1" width="37" height="42" rx="9" stroke="#E6EBF0" stroke-width="2"/>
<rect x="173" y="1" width="37" height="42" rx="9" fill="white"/>
<path d="M191.67 28.162C190.986 28.162 190.302 28.06 189.618 27.856C188.946 27.652 188.334 27.334 187.782 26.902C187.638 26.806 187.542 26.692 187.494 26.56C187.446 26.428 187.44 26.296 187.476 26.164C187.512 26.032 187.578 25.924 187.674 25.84C187.77 25.744 187.884 25.69 188.016 25.678C188.16 25.666 188.31 25.714 188.466 25.822C188.958 26.17 189.468 26.428 189.996 26.596C190.524 26.764 191.076 26.848 191.652 26.848C192.24 26.848 192.744 26.74 193.164 26.524C193.596 26.296 193.92 25.984 194.136 25.588C194.364 25.18 194.478 24.706 194.478 24.166C194.478 23.338 194.238 22.66 193.758 22.132C193.278 21.604 192.618 21.34 191.778 21.34C191.262 21.34 190.788 21.436 190.356 21.628C189.924 21.82 189.528 22.126 189.168 22.546C189.084 22.642 188.982 22.726 188.862 22.798C188.754 22.858 188.628 22.888 188.484 22.888C188.28 22.888 188.118 22.834 187.998 22.726C187.89 22.606 187.836 22.45 187.836 22.258V15.994C187.836 15.766 187.896 15.598 188.016 15.49C188.136 15.37 188.304 15.31 188.52 15.31H194.64C194.868 15.31 195.036 15.364 195.144 15.472C195.264 15.58 195.324 15.736 195.324 15.94C195.324 16.144 195.264 16.3 195.144 16.408C195.036 16.516 194.868 16.57 194.64 16.57H189.294V21.628H188.898C189.21 21.124 189.642 20.74 190.194 20.476C190.746 20.2 191.364 20.062 192.048 20.062C192.852 20.062 193.542 20.23 194.118 20.566C194.706 20.902 195.156 21.376 195.468 21.988C195.792 22.588 195.954 23.29 195.954 24.094C195.954 24.886 195.78 25.588 195.432 26.2C195.084 26.812 194.592 27.292 193.956 27.64C193.32 27.988 192.558 28.162 191.67 28.162Z" fill="#38485C"/>
<rect x="173" y="1" width="37" height="42" rx="9" stroke="#E6EBF0" stroke-width="2"/>
<rect x="217" y="2" width="37" height="40" rx="8" fill="#F3F6F9"/>
<path d="M231.07 28.072C230.77 28.072 230.53 27.982 230.35 27.802C230.17 27.61 230.08 27.37 230.08 27.082C230.08 26.794 230.17 26.56 230.35 26.38C230.53 26.188 230.77 26.092 231.07 26.092C231.37 26.092 231.604 26.188 231.772 26.38C231.952 26.56 232.042 26.794 232.042 27.082C232.042 27.37 231.952 27.61 231.772 27.802C231.604 27.982 231.37 28.072 231.07 28.072ZM235.166 28.072C234.866 28.072 234.626 27.982 234.446 27.802C234.266 27.61 234.176 27.37 234.176 27.082C234.176 26.794 234.266 26.56 234.446 26.38C234.626 26.188 234.866 26.092 235.166 26.092C235.466 26.092 235.7 26.188 235.868 26.38C236.048 26.56 236.138 26.794 236.138 27.082C236.138 27.37 236.048 27.61 235.868 27.802C235.7 27.982 235.466 28.072 235.166 28.072ZM239.261 28.072C238.961 28.072 238.721 27.982 238.541 27.802C238.361 27.61 238.271 27.37 238.271 27.082C238.271 26.794 238.361 26.56 238.541 26.38C238.721 26.188 238.961 26.092 239.261 26.092C239.561 26.092 239.795 26.188 239.963 26.38C240.143 26.56 240.233 26.794 240.233 27.082C240.233 27.37 240.143 27.61 239.963 27.802C239.795 27.982 239.561 28.072 239.261 28.072Z" fill="#38485C"/>
<rect x="261" y="1" width="48" height="42" rx="9" fill="white"/>
<path d="M276.79 28C276.574 28 276.406 27.946 276.286 27.838C276.166 27.718 276.106 27.556 276.106 27.352C276.106 27.148 276.166 26.998 276.286 26.902C276.406 26.794 276.574 26.74 276.79 26.74H279.13V16.534H279.904L277.294 18.262C277.138 18.346 276.988 18.382 276.844 18.37C276.712 18.358 276.598 18.31 276.502 18.226C276.418 18.13 276.358 18.022 276.322 17.902C276.286 17.77 276.292 17.638 276.34 17.506C276.388 17.362 276.49 17.242 276.646 17.146L279.13 15.508C279.286 15.412 279.436 15.334 279.58 15.274C279.724 15.214 279.868 15.184 280.012 15.184C280.18 15.184 280.318 15.238 280.426 15.346C280.546 15.442 280.606 15.598 280.606 15.814V26.74H282.766C282.982 26.74 283.15 26.794 283.27 26.902C283.39 26.998 283.45 27.148 283.45 27.352C283.45 27.568 283.39 27.73 283.27 27.838C283.15 27.946 282.982 28 282.766 28H276.79ZM290.193 28.162C288.741 28.162 287.637 27.604 286.881 26.488C286.125 25.372 285.747 23.758 285.747 21.646C285.747 20.23 285.915 19.042 286.251 18.082C286.587 17.11 287.085 16.378 287.745 15.886C288.417 15.394 289.233 15.148 290.193 15.148C291.657 15.148 292.761 15.7 293.505 16.804C294.261 17.896 294.639 19.504 294.639 21.628C294.639 23.044 294.471 24.238 294.135 25.21C293.799 26.182 293.301 26.92 292.641 27.424C291.981 27.916 291.165 28.162 290.193 28.162ZM290.193 26.884C291.201 26.884 291.945 26.458 292.425 25.606C292.917 24.742 293.163 23.416 293.163 21.628C293.163 19.828 292.917 18.514 292.425 17.686C291.945 16.846 291.201 16.426 290.193 16.426C289.197 16.426 288.453 16.846 287.961 17.686C287.469 18.526 287.223 19.84 287.223 21.628C287.223 23.416 287.469 24.742 287.961 25.606C288.453 26.458 289.197 26.884 290.193 26.884Z" fill="#38485C"/>
<rect x="261" y="1" width="48" height="42" rx="9" stroke="#E6EBF0" stroke-width="2"/>
<rect x="315" y="1" width="122" height="42" rx="9" fill="white"/>
<path d="M333.67 28.162C333.106 28.162 332.554 28.114 332.014 28.018C331.474 27.922 330.97 27.784 330.502 27.604C330.046 27.424 329.632 27.196 329.26 26.92C329.116 26.812 329.014 26.692 328.954 26.56C328.906 26.416 328.894 26.278 328.918 26.146C328.954 26.002 329.014 25.882 329.098 25.786C329.194 25.69 329.308 25.636 329.44 25.624C329.572 25.612 329.716 25.654 329.872 25.75C330.412 26.134 330.988 26.416 331.6 26.596C332.212 26.764 332.902 26.848 333.67 26.848C334.75 26.848 335.548 26.65 336.064 26.254C336.592 25.846 336.856 25.312 336.856 24.652C336.856 24.112 336.664 23.692 336.28 23.392C335.908 23.08 335.278 22.834 334.39 22.654L332.518 22.276C331.39 22.036 330.544 21.646 329.98 21.106C329.428 20.554 329.152 19.822 329.152 18.91C329.152 18.346 329.266 17.836 329.494 17.38C329.722 16.912 330.04 16.516 330.448 16.192C330.856 15.856 331.342 15.598 331.906 15.418C332.47 15.238 333.094 15.148 333.778 15.148C334.534 15.148 335.236 15.256 335.884 15.472C336.544 15.676 337.138 15.988 337.666 16.408C337.798 16.516 337.888 16.642 337.936 16.786C337.984 16.918 337.99 17.05 337.954 17.182C337.918 17.302 337.852 17.404 337.756 17.488C337.672 17.572 337.558 17.62 337.414 17.632C337.282 17.644 337.132 17.596 336.964 17.488C336.484 17.128 335.986 16.87 335.47 16.714C334.954 16.546 334.384 16.462 333.76 16.462C333.124 16.462 332.572 16.558 332.104 16.75C331.648 16.942 331.288 17.224 331.024 17.596C330.772 17.956 330.646 18.376 330.646 18.856C330.646 19.432 330.82 19.888 331.168 20.224C331.528 20.56 332.11 20.806 332.914 20.962L334.786 21.358C335.998 21.61 336.892 21.994 337.468 22.51C338.056 23.014 338.35 23.704 338.35 24.58C338.35 25.108 338.242 25.594 338.026 26.038C337.81 26.482 337.498 26.866 337.09 27.19C336.682 27.502 336.19 27.742 335.614 27.91C335.038 28.078 334.39 28.162 333.67 28.162ZM341.162 28.09C340.922 28.09 340.742 28.024 340.622 27.892C340.502 27.748 340.442 27.55 340.442 27.298V19.936C340.442 19.684 340.502 19.492 340.622 19.36C340.742 19.228 340.922 19.162 341.162 19.162C341.39 19.162 341.57 19.228 341.702 19.36C341.834 19.492 341.9 19.684 341.9 19.936V27.298C341.9 27.55 341.834 27.748 341.702 27.892C341.582 28.024 341.402 28.09 341.162 28.09ZM341.162 17.146C340.862 17.146 340.628 17.068 340.46 16.912C340.292 16.744 340.208 16.522 340.208 16.246C340.208 15.958 340.292 15.742 340.46 15.598C340.628 15.442 340.862 15.364 341.162 15.364C341.474 15.364 341.708 15.442 341.864 15.598C342.032 15.742 342.116 15.958 342.116 16.246C342.116 16.522 342.032 16.744 341.864 16.912C341.708 17.068 341.474 17.146 341.162 17.146ZM348.496 31.402C347.86 31.402 347.236 31.324 346.624 31.168C346.024 31.024 345.478 30.79 344.986 30.466C344.842 30.382 344.746 30.28 344.698 30.16C344.662 30.04 344.656 29.92 344.68 29.8C344.704 29.692 344.758 29.59 344.842 29.494C344.926 29.41 345.022 29.356 345.13 29.332C345.25 29.308 345.37 29.326 345.49 29.386C346.018 29.71 346.522 29.932 347.002 30.052C347.482 30.172 347.956 30.232 348.424 30.232C349.276 30.232 349.918 30.004 350.35 29.548C350.794 29.092 351.016 28.432 351.016 27.568V25.534H351.196C351.016 26.23 350.632 26.782 350.044 27.19C349.468 27.598 348.79 27.802 348.01 27.802C347.206 27.802 346.51 27.622 345.922 27.262C345.334 26.89 344.878 26.374 344.554 25.714C344.242 25.054 344.086 24.292 344.086 23.428C344.086 22.78 344.176 22.192 344.356 21.664C344.536 21.124 344.794 20.668 345.13 20.296C345.478 19.912 345.892 19.618 346.372 19.414C346.864 19.198 347.41 19.09 348.01 19.09C348.802 19.09 349.486 19.294 350.062 19.702C350.638 20.098 351.01 20.638 351.178 21.322L350.998 21.538V19.864C350.998 19.624 351.058 19.444 351.178 19.324C351.31 19.192 351.49 19.126 351.718 19.126C351.958 19.126 352.138 19.192 352.258 19.324C352.378 19.444 352.438 19.624 352.438 19.864V27.37C352.438 28.702 352.102 29.704 351.43 30.376C350.77 31.06 349.792 31.402 348.496 31.402ZM348.28 26.614C348.844 26.614 349.33 26.488 349.738 26.236C350.146 25.972 350.458 25.6 350.674 25.12C350.902 24.64 351.016 24.076 351.016 23.428C351.016 22.456 350.77 21.688 350.278 21.124C349.786 20.548 349.12 20.26 348.28 20.26C347.728 20.26 347.248 20.392 346.84 20.656C346.432 20.908 346.114 21.274 345.886 21.754C345.67 22.222 345.562 22.78 345.562 23.428C345.562 24.4 345.808 25.174 346.3 25.75C346.792 26.326 347.452 26.614 348.28 26.614ZM358.269 28.162C357.561 28.162 356.973 28.036 356.505 27.784C356.049 27.52 355.701 27.13 355.461 26.614C355.233 26.098 355.119 25.456 355.119 24.688V19.864C355.119 19.612 355.179 19.426 355.299 19.306C355.431 19.186 355.611 19.126 355.839 19.126C356.079 19.126 356.259 19.186 356.379 19.306C356.511 19.426 356.577 19.612 356.577 19.864V24.67C356.577 25.438 356.733 26.014 357.045 26.398C357.369 26.77 357.873 26.956 358.557 26.956C359.301 26.956 359.907 26.704 360.375 26.2C360.843 25.696 361.077 25.036 361.077 24.22V19.864C361.077 19.612 361.137 19.426 361.257 19.306C361.389 19.186 361.575 19.126 361.815 19.126C362.043 19.126 362.217 19.186 362.337 19.306C362.469 19.426 362.535 19.612 362.535 19.864V27.37C362.535 27.874 362.301 28.126 361.833 28.126C361.605 28.126 361.425 28.06 361.293 27.928C361.173 27.796 361.113 27.61 361.113 27.37V25.732L361.347 25.984C361.107 26.692 360.711 27.232 360.159 27.604C359.619 27.976 358.989 28.162 358.269 28.162ZM365.983 28.09C365.743 28.09 365.563 28.024 365.443 27.892C365.323 27.748 365.263 27.55 365.263 27.298V19.936C365.263 19.684 365.323 19.492 365.443 19.36C365.563 19.228 365.743 19.162 365.983 19.162C366.211 19.162 366.391 19.228 366.523 19.36C366.655 19.492 366.721 19.684 366.721 19.936V27.298C366.721 27.55 366.655 27.748 366.523 27.892C366.403 28.024 366.223 28.09 365.983 28.09ZM365.983 17.146C365.683 17.146 365.449 17.068 365.281 16.912C365.113 16.744 365.029 16.522 365.029 16.246C365.029 15.958 365.113 15.742 365.281 15.598C365.449 15.442 365.683 15.364 365.983 15.364C366.295 15.364 366.529 15.442 366.685 15.598C366.853 15.742 366.937 15.958 366.937 16.246C366.937 16.522 366.853 16.744 366.685 16.912C366.529 17.068 366.295 17.146 365.983 17.146ZM373.388 28.162C372.464 28.162 371.666 27.982 370.994 27.622C370.334 27.25 369.818 26.728 369.446 26.056C369.086 25.384 368.906 24.58 368.906 23.644C368.906 22.732 369.086 21.94 369.446 21.268C369.806 20.584 370.298 20.05 370.922 19.666C371.558 19.282 372.29 19.09 373.118 19.09C373.706 19.09 374.234 19.192 374.702 19.396C375.17 19.588 375.566 19.87 375.89 20.242C376.226 20.614 376.478 21.064 376.646 21.592C376.826 22.12 376.916 22.714 376.916 23.374C376.916 23.566 376.862 23.71 376.754 23.806C376.646 23.89 376.49 23.932 376.286 23.932H370.022V22.978H375.944L375.656 23.212C375.656 22.564 375.56 22.018 375.368 21.574C375.176 21.118 374.894 20.77 374.522 20.53C374.162 20.29 373.706 20.17 373.154 20.17C372.542 20.17 372.02 20.314 371.588 20.602C371.168 20.878 370.85 21.268 370.634 21.772C370.418 22.264 370.31 22.84 370.31 23.5V23.608C370.31 24.712 370.574 25.552 371.102 26.128C371.642 26.704 372.404 26.992 373.388 26.992C373.796 26.992 374.198 26.938 374.594 26.83C375.002 26.722 375.398 26.542 375.782 26.29C375.95 26.182 376.1 26.134 376.232 26.146C376.376 26.146 376.49 26.188 376.574 26.272C376.658 26.344 376.712 26.44 376.736 26.56C376.772 26.668 376.76 26.788 376.7 26.92C376.652 27.052 376.55 27.166 376.394 27.262C375.998 27.55 375.53 27.772 374.99 27.928C374.45 28.084 373.916 28.162 373.388 28.162ZM379.746 28.126C379.506 28.126 379.326 28.06 379.206 27.928C379.086 27.796 379.026 27.61 379.026 27.37V19.864C379.026 19.624 379.086 19.444 379.206 19.324C379.326 19.192 379.5 19.126 379.728 19.126C379.956 19.126 380.13 19.192 380.25 19.324C380.382 19.444 380.448 19.624 380.448 19.864V21.412L380.25 21.196C380.502 20.5 380.91 19.978 381.474 19.63C382.05 19.27 382.71 19.09 383.454 19.09C384.15 19.09 384.726 19.216 385.182 19.468C385.65 19.72 385.998 20.104 386.226 20.62C386.454 21.124 386.568 21.766 386.568 22.546V27.37C386.568 27.61 386.502 27.796 386.37 27.928C386.25 28.06 386.076 28.126 385.848 28.126C385.608 28.126 385.422 28.06 385.29 27.928C385.17 27.796 385.11 27.61 385.11 27.37V22.636C385.11 21.82 384.948 21.226 384.624 20.854C384.312 20.47 383.808 20.278 383.112 20.278C382.308 20.278 381.666 20.53 381.186 21.034C380.718 21.526 380.484 22.186 380.484 23.014V27.37C380.484 27.874 380.238 28.126 379.746 28.126ZM392.767 28.162C392.083 28.162 391.507 28.042 391.039 27.802C390.583 27.55 390.241 27.19 390.013 26.722C389.785 26.242 389.671 25.66 389.671 24.976V20.386H388.465C388.261 20.386 388.105 20.338 387.997 20.242C387.889 20.134 387.835 19.99 387.835 19.81C387.835 19.63 387.889 19.492 387.997 19.396C388.105 19.3 388.261 19.252 388.465 19.252H389.671V17.182C389.671 16.942 389.737 16.762 389.869 16.642C390.001 16.51 390.181 16.444 390.409 16.444C390.637 16.444 390.811 16.51 390.931 16.642C391.063 16.762 391.129 16.942 391.129 17.182V19.252H393.397C393.601 19.252 393.757 19.3 393.865 19.396C393.973 19.492 394.027 19.63 394.027 19.81C394.027 19.99 393.973 20.134 393.865 20.242C393.757 20.338 393.601 20.386 393.397 20.386H391.129V24.832C391.129 25.516 391.273 26.038 391.561 26.398C391.849 26.746 392.317 26.92 392.965 26.92C393.193 26.92 393.385 26.896 393.541 26.848C393.709 26.8 393.847 26.776 393.955 26.776C394.063 26.764 394.153 26.8 394.225 26.884C394.297 26.968 394.333 27.112 394.333 27.316C394.333 27.46 394.303 27.592 394.243 27.712C394.195 27.832 394.105 27.916 393.973 27.964C393.829 28.012 393.637 28.054 393.397 28.09C393.169 28.138 392.959 28.162 392.767 28.162ZM399.404 28.162C398.48 28.162 397.682 27.982 397.01 27.622C396.35 27.25 395.834 26.728 395.462 26.056C395.102 25.384 394.922 24.58 394.922 23.644C394.922 22.732 395.102 21.94 395.462 21.268C395.822 20.584 396.314 20.05 396.938 19.666C397.574 19.282 398.306 19.09 399.134 19.09C399.722 19.09 400.25 19.192 400.718 19.396C401.186 19.588 401.582 19.87 401.906 20.242C402.242 20.614 402.494 21.064 402.662 21.592C402.842 22.12 402.932 22.714 402.932 23.374C402.932 23.566 402.878 23.71 402.77 23.806C402.662 23.89 402.506 23.932 402.302 23.932H396.038V22.978H401.96L401.672 23.212C401.672 22.564 401.576 22.018 401.384 21.574C401.192 21.118 400.91 20.77 400.538 20.53C400.178 20.29 399.722 20.17 399.17 20.17C398.558 20.17 398.036 20.314 397.604 20.602C397.184 20.878 396.866 21.268 396.65 21.772C396.434 22.264 396.326 22.84 396.326 23.5V23.608C396.326 24.712 396.59 25.552 397.118 26.128C397.658 26.704 398.42 26.992 399.404 26.992C399.812 26.992 400.214 26.938 400.61 26.83C401.018 26.722 401.414 26.542 401.798 26.29C401.966 26.182 402.116 26.134 402.248 26.146C402.392 26.146 402.506 26.188 402.59 26.272C402.674 26.344 402.728 26.44 402.752 26.56C402.788 26.668 402.776 26.788 402.716 26.92C402.668 27.052 402.566 27.166 402.41 27.262C402.014 27.55 401.546 27.772 401.006 27.928C400.466 28.084 399.932 28.162 399.404 28.162Z" fill="#38485C"/>
<g clip-path="url(#clip0_1592_1421)">
<path d="M417.29 25.88L421.17 22L417.29 18.12C416.9 17.73 416.9 17.1 417.29 16.71C417.68 16.32 418.31 16.32 418.7 16.71L423.29 21.3C423.68 21.69 423.68 22.32 423.29 22.71L418.7 27.3C418.31 27.69 417.68 27.69 417.29 27.3C416.91 26.91 416.9 26.27 417.29 25.88Z" fill="#38485C"/>
</g>
<rect x="315" y="1" width="122" height="42" rx="9" stroke="#E6EBF0" stroke-width="2"/>
<rect x="1" y="57" width="113" height="42" rx="9" fill="white"/>
<g clip-path="url(#clip1_1592_1421)">
<path d="M20.71 81.88L16.83 78L20.71 74.12C21.1 73.73 21.1 73.1 20.71 72.71C20.32 72.32 19.69 72.32 19.3 72.71L14.71 77.3C14.32 77.69 14.32 78.32 14.71 78.71L19.3 83.3C19.69 83.69 20.32 83.69 20.71 83.3C21.09 82.91 21.1 82.27 20.71 81.88Z" fill="#38485C"/>
</g>
<path d="M35.296 84.126C35.104 84.126 34.948 84.084 34.828 84C34.72 83.904 34.654 83.784 34.63 83.64C34.618 83.484 34.654 83.31 34.738 83.118L39.688 71.85C39.796 71.61 39.922 71.442 40.066 71.346C40.222 71.238 40.39 71.184 40.57 71.184C40.75 71.184 40.912 71.238 41.056 71.346C41.212 71.442 41.338 71.61 41.434 71.85L46.402 83.118C46.498 83.31 46.534 83.484 46.51 83.64C46.498 83.796 46.438 83.916 46.33 84C46.222 84.084 46.072 84.126 45.88 84.126C45.664 84.126 45.49 84.072 45.358 83.964C45.226 83.844 45.118 83.676 45.034 83.46L43.702 80.382L44.422 80.76H36.682L37.42 80.382L36.106 83.46C35.998 83.688 35.884 83.856 35.764 83.964C35.644 84.072 35.488 84.126 35.296 84.126ZM40.552 73.038L37.654 79.86L37.222 79.518H43.882L43.486 79.86L40.588 73.038H40.552ZM49.2013 84.126C48.9613 84.126 48.7813 84.06 48.6613 83.928C48.5413 83.796 48.4813 83.61 48.4813 83.37V75.864C48.4813 75.624 48.5413 75.444 48.6613 75.324C48.7813 75.192 48.9553 75.126 49.1833 75.126C49.4113 75.126 49.5853 75.192 49.7053 75.324C49.8373 75.444 49.9033 75.624 49.9033 75.864V77.412L49.7053 77.196C49.9573 76.5 50.3653 75.978 50.9293 75.63C51.5053 75.27 52.1653 75.09 52.9093 75.09C53.6053 75.09 54.1813 75.216 54.6373 75.468C55.1053 75.72 55.4533 76.104 55.6813 76.62C55.9093 77.124 56.0233 77.766 56.0233 78.546V83.37C56.0233 83.61 55.9573 83.796 55.8253 83.928C55.7053 84.06 55.5313 84.126 55.3033 84.126C55.0633 84.126 54.8773 84.06 54.7453 83.928C54.6253 83.796 54.5653 83.61 54.5653 83.37V78.636C54.5653 77.82 54.4033 77.226 54.0793 76.854C53.7673 76.47 53.2633 76.278 52.5673 76.278C51.7633 76.278 51.1213 76.53 50.6413 77.034C50.1733 77.526 49.9393 78.186 49.9393 79.014V83.37C49.9393 83.874 49.6933 84.126 49.2013 84.126ZM62.2218 84.162C61.5378 84.162 60.9618 84.042 60.4938 83.802C60.0378 83.55 59.6958 83.19 59.4678 82.722C59.2398 82.242 59.1258 81.66 59.1258 80.976V76.386H57.9198C57.7158 76.386 57.5598 76.338 57.4518 76.242C57.3438 76.134 57.2897 75.99 57.2897 75.81C57.2897 75.63 57.3438 75.492 57.4518 75.396C57.5598 75.3 57.7158 75.252 57.9198 75.252H59.1258V73.182C59.1258 72.942 59.1918 72.762 59.3238 72.642C59.4558 72.51 59.6358 72.444 59.8638 72.444C60.0918 72.444 60.2658 72.51 60.3858 72.642C60.5178 72.762 60.5838 72.942 60.5838 73.182V75.252H62.8518C63.0558 75.252 63.2118 75.3 63.3198 75.396C63.4278 75.492 63.4818 75.63 63.4818 75.81C63.4818 75.99 63.4278 76.134 63.3198 76.242C63.2118 76.338 63.0558 76.386 62.8518 76.386H60.5838V80.832C60.5838 81.516 60.7278 82.038 61.0158 82.398C61.3038 82.746 61.7718 82.92 62.4198 82.92C62.6478 82.92 62.8398 82.896 62.9958 82.848C63.1638 82.8 63.3018 82.776 63.4098 82.776C63.5178 82.764 63.6078 82.8 63.6798 82.884C63.7518 82.968 63.7878 83.112 63.7878 83.316C63.7878 83.46 63.7578 83.592 63.6978 83.712C63.6498 83.832 63.5598 83.916 63.4278 83.964C63.2838 84.012 63.0918 84.054 62.8518 84.09C62.6238 84.138 62.4138 84.162 62.2218 84.162ZM68.8588 84.162C67.9348 84.162 67.1368 83.982 66.4648 83.622C65.8048 83.25 65.2888 82.728 64.9168 82.056C64.5568 81.384 64.3768 80.58 64.3768 79.644C64.3768 78.732 64.5568 77.94 64.9168 77.268C65.2768 76.584 65.7688 76.05 66.3928 75.666C67.0288 75.282 67.7608 75.09 68.5888 75.09C69.1768 75.09 69.7048 75.192 70.1728 75.396C70.6408 75.588 71.0368 75.87 71.3608 76.242C71.6968 76.614 71.9488 77.064 72.1168 77.592C72.2968 78.12 72.3868 78.714 72.3868 79.374C72.3868 79.566 72.3328 79.71 72.2248 79.806C72.1168 79.89 71.9608 79.932 71.7568 79.932H65.4928V78.978H71.4148L71.1268 79.212C71.1268 78.564 71.0308 78.018 70.8388 77.574C70.6468 77.118 70.3648 76.77 69.9928 76.53C69.6328 76.29 69.1768 76.17 68.6248 76.17C68.0128 76.17 67.4908 76.314 67.0588 76.602C66.6388 76.878 66.3208 77.268 66.1048 77.772C65.8888 78.264 65.7808 78.84 65.7808 79.5V79.608C65.7808 80.712 66.0448 81.552 66.5728 82.128C67.1128 82.704 67.8748 82.992 68.8588 82.992C69.2668 82.992 69.6688 82.938 70.0648 82.83C70.4728 82.722 70.8688 82.542 71.2528 82.29C71.4208 82.182 71.5708 82.134 71.7028 82.146C71.8468 82.146 71.9608 82.188 72.0448 82.272C72.1288 82.344 72.1828 82.44 72.2068 82.56C72.2428 82.668 72.2308 82.788 72.1708 82.92C72.1228 83.052 72.0208 83.166 71.8648 83.262C71.4688 83.55 71.0008 83.772 70.4608 83.928C69.9208 84.084 69.3868 84.162 68.8588 84.162ZM75.2349 84.126C74.9949 84.126 74.8089 84.06 74.6769 83.928C74.5569 83.796 74.4969 83.61 74.4969 83.37V75.864C74.4969 75.624 74.5569 75.444 74.6769 75.324C74.7969 75.192 74.9709 75.126 75.1989 75.126C75.4269 75.126 75.6009 75.192 75.7209 75.324C75.8529 75.444 75.9189 75.624 75.9189 75.864V77.322H75.7389C75.9309 76.614 76.2969 76.068 76.8369 75.684C77.3769 75.3 78.0429 75.096 78.8349 75.072C79.0149 75.06 79.1589 75.102 79.2669 75.198C79.3749 75.282 79.4349 75.432 79.4469 75.648C79.4589 75.852 79.4109 76.014 79.3029 76.134C79.1949 76.254 79.0269 76.326 78.7989 76.35L78.5109 76.386C77.6949 76.458 77.0649 76.722 76.6209 77.178C76.1889 77.622 75.9729 78.234 75.9729 79.014V83.37C75.9729 83.61 75.9069 83.796 75.7749 83.928C75.6549 84.06 75.4749 84.126 75.2349 84.126ZM81.6681 84.09C81.4281 84.09 81.2481 84.024 81.1281 83.892C81.0081 83.748 80.9481 83.55 80.9481 83.298V75.936C80.9481 75.684 81.0081 75.492 81.1281 75.36C81.2481 75.228 81.4281 75.162 81.6681 75.162C81.8961 75.162 82.0761 75.228 82.2081 75.36C82.3401 75.492 82.4061 75.684 82.4061 75.936V83.298C82.4061 83.55 82.3401 83.748 82.2081 83.892C82.0881 84.024 81.9081 84.09 81.6681 84.09ZM81.6681 73.146C81.3681 73.146 81.1341 73.068 80.9661 72.912C80.7981 72.744 80.7141 72.522 80.7141 72.246C80.7141 71.958 80.7981 71.742 80.9661 71.598C81.1341 71.442 81.3681 71.364 81.6681 71.364C81.9801 71.364 82.2141 71.442 82.3701 71.598C82.5381 71.742 82.6221 71.958 82.6221 72.246C82.6221 72.522 82.5381 72.744 82.3701 72.912C82.2141 73.068 81.9801 73.146 81.6681 73.146ZM88.7677 84.162C87.9157 84.162 87.1777 83.976 86.5537 83.604C85.9297 83.232 85.4437 82.71 85.0957 82.038C84.7597 81.354 84.5917 80.55 84.5917 79.626C84.5917 78.93 84.6877 78.306 84.8797 77.754C85.0717 77.19 85.3537 76.71 85.7257 76.314C86.0977 75.918 86.5357 75.618 87.0397 75.414C87.5557 75.198 88.1317 75.09 88.7677 75.09C89.6197 75.09 90.3577 75.276 90.9817 75.648C91.6057 76.02 92.0857 76.548 92.4217 77.232C92.7697 77.904 92.9437 78.702 92.9437 79.626C92.9437 80.322 92.8477 80.946 92.6557 81.498C92.4637 82.05 92.1817 82.53 91.8097 82.938C91.4377 83.334 90.9937 83.64 90.4777 83.856C89.9737 84.06 89.4037 84.162 88.7677 84.162ZM88.7677 82.992C89.3077 82.992 89.7817 82.86 90.1897 82.596C90.5977 82.332 90.9097 81.948 91.1257 81.444C91.3537 80.94 91.4677 80.334 91.4677 79.626C91.4677 78.534 91.2217 77.7 90.7297 77.124C90.2497 76.548 89.5957 76.26 88.7677 76.26C88.2157 76.26 87.7357 76.392 87.3277 76.656C86.9317 76.908 86.6197 77.286 86.3917 77.79C86.1757 78.282 86.0677 78.894 86.0677 79.626C86.0677 80.706 86.3137 81.54 86.8057 82.128C87.2977 82.704 87.9517 82.992 88.7677 82.992ZM95.8716 84.126C95.6316 84.126 95.4456 84.06 95.3136 83.928C95.1936 83.796 95.1336 83.61 95.1336 83.37V75.864C95.1336 75.624 95.1936 75.444 95.3136 75.324C95.4336 75.192 95.6076 75.126 95.8356 75.126C96.0636 75.126 96.2376 75.192 96.3576 75.324C96.4896 75.444 96.5556 75.624 96.5556 75.864V77.322H96.3756C96.5676 76.614 96.9336 76.068 97.4736 75.684C98.0136 75.3 98.6796 75.096 99.4716 75.072C99.6516 75.06 99.7956 75.102 99.9036 75.198C100.012 75.282 100.072 75.432 100.084 75.648C100.096 75.852 100.048 76.014 99.9396 76.134C99.8316 76.254 99.6636 76.326 99.4356 76.35L99.1476 76.386C98.3316 76.458 97.7016 76.722 97.2576 77.178C96.8256 77.622 96.6096 78.234 96.6096 79.014V83.37C96.6096 83.61 96.5436 83.796 96.4116 83.928C96.2916 84.06 96.1116 84.126 95.8716 84.126Z" fill="#38485C"/>
<rect x="1" y="57" width="113" height="42" rx="9" stroke="#E6EBF0" stroke-width="2"/>
<rect x="120" y="57" width="37" height="42" rx="9" fill="white"/>
<path d="M135.79 84C135.574 84 135.406 83.946 135.286 83.838C135.166 83.718 135.106 83.556 135.106 83.352C135.106 83.148 135.166 82.998 135.286 82.902C135.406 82.794 135.574 82.74 135.79 82.74H138.13V72.534H138.904L136.294 74.262C136.138 74.346 135.988 74.382 135.844 74.37C135.712 74.358 135.598 74.31 135.502 74.226C135.418 74.13 135.358 74.022 135.322 73.902C135.286 73.77 135.292 73.638 135.34 73.506C135.388 73.362 135.49 73.242 135.646 73.146L138.13 71.508C138.286 71.412 138.436 71.334 138.58 71.274C138.724 71.214 138.868 71.184 139.012 71.184C139.18 71.184 139.318 71.238 139.426 71.346C139.546 71.442 139.606 71.598 139.606 71.814V82.74H141.766C141.982 82.74 142.15 82.794 142.27 82.902C142.39 82.998 142.45 83.148 142.45 83.352C142.45 83.568 142.39 83.73 142.27 83.838C142.15 83.946 141.982 84 141.766 84H135.79Z" fill="#38485C"/>
<rect x="120" y="57" width="37" height="42" rx="9" stroke="#E6EBF0" stroke-width="2"/>
<rect x="164" y="58" width="37" height="40" rx="8" fill="#F3F6F9"/>
<path d="M178.07 84.072C177.77 84.072 177.53 83.982 177.35 83.802C177.17 83.61 177.08 83.37 177.08 83.082C177.08 82.794 177.17 82.56 177.35 82.38C177.53 82.188 177.77 82.092 178.07 82.092C178.37 82.092 178.604 82.188 178.772 82.38C178.952 82.56 179.042 82.794 179.042 83.082C179.042 83.37 178.952 83.61 178.772 83.802C178.604 83.982 178.37 84.072 178.07 84.072ZM182.166 84.072C181.866 84.072 181.626 83.982 181.446 83.802C181.266 83.61 181.176 83.37 181.176 83.082C181.176 82.794 181.266 82.56 181.446 82.38C181.626 82.188 181.866 82.092 182.166 82.092C182.466 82.092 182.7 82.188 182.868 82.38C183.048 82.56 183.138 82.794 183.138 83.082C183.138 83.37 183.048 83.61 182.868 83.802C182.7 83.982 182.466 84.072 182.166 84.072ZM186.261 84.072C185.961 84.072 185.721 83.982 185.541 83.802C185.361 83.61 185.271 83.37 185.271 83.082C185.271 82.794 185.361 82.56 185.541 82.38C185.721 82.188 185.961 82.092 186.261 82.092C186.561 82.092 186.795 82.188 186.963 82.38C187.143 82.56 187.233 82.794 187.233 83.082C187.233 83.37 187.143 83.61 186.963 83.802C186.795 83.982 186.561 84.072 186.261 84.072Z" fill="#38485C"/>
<rect x="208" y="57" width="37" height="42" rx="9" fill="white"/>
<path d="M226.832 84.162C225.836 84.162 224.984 83.922 224.276 83.442C223.58 82.95 223.052 82.242 222.692 81.318C222.332 80.394 222.152 79.278 222.152 77.97C222.152 76.866 222.266 75.894 222.494 75.054C222.722 74.214 223.058 73.506 223.502 72.93C223.946 72.342 224.486 71.898 225.122 71.598C225.758 71.298 226.478 71.148 227.282 71.148C227.834 71.148 228.398 71.256 228.974 71.472C229.562 71.688 230.078 71.994 230.522 72.39C230.654 72.486 230.732 72.606 230.756 72.75C230.792 72.882 230.792 73.014 230.756 73.146C230.72 73.266 230.654 73.368 230.558 73.452C230.474 73.536 230.366 73.584 230.234 73.596C230.102 73.596 229.964 73.542 229.82 73.434C229.412 73.086 228.992 72.84 228.56 72.696C228.128 72.54 227.69 72.462 227.246 72.462C226.466 72.462 225.8 72.654 225.248 73.038C224.708 73.422 224.294 74.004 224.006 74.784C223.73 75.552 223.592 76.518 223.592 77.682V79.356H223.43C223.502 78.672 223.7 78.084 224.024 77.592C224.36 77.088 224.786 76.704 225.302 76.44C225.818 76.176 226.4 76.044 227.048 76.044C227.792 76.044 228.452 76.212 229.028 76.548C229.604 76.884 230.054 77.358 230.378 77.97C230.702 78.57 230.864 79.26 230.864 80.04C230.864 80.832 230.696 81.54 230.36 82.164C230.024 82.788 229.55 83.28 228.938 83.64C228.326 83.988 227.624 84.162 226.832 84.162ZM226.742 82.902C227.27 82.902 227.738 82.788 228.146 82.56C228.554 82.32 228.872 81.99 229.1 81.57C229.328 81.138 229.442 80.646 229.442 80.094C229.442 79.542 229.328 79.056 229.1 78.636C228.872 78.216 228.554 77.886 228.146 77.646C227.738 77.406 227.27 77.286 226.742 77.286C226.214 77.286 225.746 77.406 225.338 77.646C224.93 77.886 224.612 78.216 224.384 78.636C224.156 79.056 224.042 79.542 224.042 80.094C224.042 80.646 224.156 81.138 224.384 81.57C224.612 81.99 224.93 82.32 225.338 82.56C225.746 82.788 226.214 82.902 226.742 82.902Z" fill="#38485C"/>
<rect x="208" y="57" width="37" height="42" rx="9" stroke="#E6EBF0" stroke-width="2"/>
<rect x="251" y="57" width="37" height="42" rx="9" fill="white"/>
<path d="M267.024 84.126C266.856 84.126 266.712 84.084 266.592 84C266.472 83.916 266.394 83.802 266.358 83.658C266.334 83.502 266.37 83.334 266.466 83.154L272.244 71.94V72.588H265.764C265.548 72.588 265.38 72.534 265.26 72.426C265.14 72.306 265.08 72.144 265.08 71.94C265.08 71.736 265.14 71.58 265.26 71.472C265.38 71.364 265.548 71.31 265.764 71.31H272.91C273.126 71.31 273.3 71.364 273.432 71.472C273.564 71.58 273.63 71.736 273.63 71.94C273.63 72.108 273.606 72.258 273.558 72.39C273.522 72.51 273.468 72.648 273.396 72.804L267.852 83.622C267.768 83.79 267.66 83.916 267.528 84C267.396 84.084 267.228 84.126 267.024 84.126Z" fill="#38485C"/>
<rect x="251" y="57" width="37" height="42" rx="9" stroke="#E6EBF0" stroke-width="2"/>
<rect x="294" y="57" width="37" height="42" rx="9" fill="white"/>
<path d="M312.4 84.162C311.452 84.162 310.636 84.024 309.952 83.748C309.28 83.472 308.764 83.07 308.404 82.542C308.056 82.014 307.882 81.378 307.882 80.634C307.882 80.046 308.002 79.524 308.242 79.068C308.482 78.6 308.818 78.222 309.25 77.934C309.682 77.646 310.18 77.466 310.744 77.394V77.664C309.964 77.496 309.34 77.13 308.872 76.566C308.416 75.99 308.188 75.312 308.188 74.532C308.188 73.812 308.356 73.206 308.692 72.714C309.04 72.21 309.532 71.826 310.168 71.562C310.804 71.286 311.548 71.148 312.4 71.148C313.264 71.148 314.008 71.286 314.632 71.562C315.268 71.826 315.76 72.21 316.108 72.714C316.456 73.206 316.63 73.812 316.63 74.532C316.63 75.048 316.522 75.528 316.306 75.972C316.102 76.404 315.808 76.764 315.424 77.052C315.04 77.34 314.59 77.538 314.074 77.646V77.394C314.926 77.514 315.61 77.868 316.126 78.456C316.654 79.032 316.918 79.758 316.918 80.634C316.918 81.378 316.738 82.014 316.378 82.542C316.03 83.07 315.514 83.472 314.83 83.748C314.158 84.024 313.348 84.162 312.4 84.162ZM312.4 82.938C313.42 82.938 314.188 82.74 314.704 82.344C315.232 81.948 315.496 81.348 315.496 80.544C315.496 79.752 315.232 79.164 314.704 78.78C314.188 78.384 313.42 78.186 312.4 78.186C311.392 78.186 310.624 78.384 310.096 78.78C309.568 79.164 309.304 79.752 309.304 80.544C309.304 81.348 309.568 81.948 310.096 82.344C310.624 82.74 311.392 82.938 312.4 82.938ZM312.4 76.962C312.988 76.962 313.486 76.872 313.894 76.692C314.314 76.5 314.638 76.23 314.866 75.882C315.094 75.534 315.208 75.126 315.208 74.658C315.208 73.938 314.956 73.38 314.452 72.984C313.96 72.576 313.276 72.372 312.4 72.372C311.524 72.372 310.84 72.576 310.348 72.984C309.856 73.38 309.61 73.938 309.61 74.658C309.61 75.378 309.856 75.942 310.348 76.35C310.84 76.758 311.524 76.962 312.4 76.962Z" fill="#38485C"/>
<rect x="294" y="57" width="37" height="42" rx="9" stroke="#E6EBF0" stroke-width="2"/>
<rect x="337" y="57" width="37" height="42" rx="9" fill="white"/>
<path d="M354.518 84.162C353.978 84.162 353.414 84.054 352.826 83.838C352.238 83.622 351.722 83.31 351.278 82.902C351.146 82.806 351.062 82.692 351.026 82.56C351.002 82.428 351.008 82.302 351.044 82.182C351.08 82.05 351.14 81.942 351.224 81.858C351.32 81.762 351.434 81.714 351.566 81.714C351.698 81.702 351.836 81.75 351.98 81.858C352.388 82.206 352.808 82.458 353.24 82.614C353.672 82.77 354.11 82.848 354.554 82.848C355.334 82.848 355.994 82.656 356.534 82.272C357.086 81.888 357.5 81.306 357.776 80.526C358.064 79.746 358.208 78.78 358.208 77.628V75.954H358.37C358.298 76.626 358.094 77.214 357.758 77.718C357.434 78.222 357.014 78.606 356.498 78.87C355.982 79.134 355.4 79.266 354.752 79.266C354.008 79.266 353.348 79.098 352.772 78.762C352.196 78.426 351.746 77.952 351.422 77.34C351.098 76.728 350.936 76.038 350.936 75.27C350.936 74.466 351.104 73.758 351.44 73.146C351.788 72.522 352.262 72.036 352.862 71.688C353.474 71.328 354.176 71.148 354.968 71.148C355.964 71.148 356.81 71.394 357.506 71.886C358.214 72.366 358.748 73.068 359.108 73.992C359.468 74.916 359.648 76.032 359.648 77.34C359.648 78.444 359.534 79.416 359.306 80.256C359.078 81.096 358.742 81.81 358.298 82.398C357.854 82.974 357.314 83.412 356.678 83.712C356.042 84.012 355.322 84.162 354.518 84.162ZM355.058 78.024C355.598 78.024 356.072 77.904 356.48 77.664C356.888 77.424 357.206 77.094 357.434 76.674C357.662 76.242 357.776 75.75 357.776 75.198C357.776 74.646 357.662 74.16 357.434 73.74C357.206 73.32 356.888 72.99 356.48 72.75C356.072 72.51 355.598 72.39 355.058 72.39C354.53 72.39 354.062 72.51 353.654 72.75C353.258 72.99 352.94 73.32 352.7 73.74C352.472 74.16 352.358 74.646 352.358 75.198C352.358 75.75 352.472 76.242 352.7 76.674C352.94 77.094 353.258 77.424 353.654 77.664C354.062 77.904 354.53 78.024 355.058 78.024Z" fill="#38485C"/>
<rect x="337" y="57" width="37" height="42" rx="9" stroke="#E6EBF0" stroke-width="2"/>
<rect x="380" y="57" width="48" height="42" rx="9" fill="#007BC7"/>
<path d="M395.79 84C395.574 84 395.406 83.946 395.286 83.838C395.166 83.718 395.106 83.556 395.106 83.352C395.106 83.148 395.166 82.998 395.286 82.902C395.406 82.794 395.574 82.74 395.79 82.74H398.13V72.534H398.904L396.294 74.262C396.138 74.346 395.988 74.382 395.844 74.37C395.712 74.358 395.598 74.31 395.502 74.226C395.418 74.13 395.358 74.022 395.322 73.902C395.286 73.77 395.292 73.638 395.34 73.506C395.388 73.362 395.49 73.242 395.646 73.146L398.13 71.508C398.286 71.412 398.436 71.334 398.58 71.274C398.724 71.214 398.868 71.184 399.012 71.184C399.18 71.184 399.318 71.238 399.426 71.346C399.546 71.442 399.606 71.598 399.606 71.814V82.74H401.766C401.982 82.74 402.15 82.794 402.27 82.902C402.39 82.998 402.45 83.148 402.45 83.352C402.45 83.568 402.39 83.73 402.27 83.838C402.15 83.946 401.982 84 401.766 84H395.79ZM409.193 84.162C407.741 84.162 406.637 83.604 405.881 82.488C405.125 81.372 404.747 79.758 404.747 77.646C404.747 76.23 404.915 75.042 405.251 74.082C405.587 73.11 406.085 72.378 406.745 71.886C407.417 71.394 408.233 71.148 409.193 71.148C410.657 71.148 411.761 71.7 412.505 72.804C413.261 73.896 413.639 75.504 413.639 77.628C413.639 79.044 413.471 80.238 413.135 81.21C412.799 82.182 412.301 82.92 411.641 83.424C410.981 83.916 410.165 84.162 409.193 84.162ZM409.193 82.884C410.201 82.884 410.945 82.458 411.425 81.606C411.917 80.742 412.163 79.416 412.163 77.628C412.163 75.828 411.917 74.514 411.425 73.686C410.945 72.846 410.201 72.426 409.193 72.426C408.197 72.426 407.453 72.846 406.961 73.686C406.469 74.526 406.223 75.84 406.223 77.628C406.223 79.416 406.469 80.742 406.961 81.606C407.453 82.458 408.197 82.884 409.193 82.884Z" fill="white"/>
<rect x="380" y="57" width="48" height="42" rx="9" stroke="#E6EBF0" stroke-width="2"/>
<defs>
<clipPath id="clip0_1592_1421">
<rect width="24" height="24" fill="white" transform="translate(408 10)"/>
</clipPath>
<clipPath id="clip1_1592_1421">
<rect width="24" height="24" fill="white" transform="translate(6 66)"/>
</clipPath>
</defs>
</svg>
