<svg width="712" height="160" viewBox="0 0 712 160" fill="none" xmlns="http://www.w3.org/2000/svg">
<rect x="1" y="1" width="710" height="158" rx="7" fill="#F3F6F9" stroke="#D1D8E0" stroke-width="2"/>
<rect x="112" y="59" width="116" height="42" rx="9" fill="white"/>
<g clip-path="url(#clip0_176_1609)">
<rect width="24" height="24" transform="translate(121 68)" fill="white"/>
<path d="M135.71 83.88L131.83 80L135.71 76.12C136.1 75.73 136.1 75.1 135.71 74.71C135.32 74.32 134.69 74.32 134.3 74.71L129.71 79.3C129.32 79.69 129.32 80.32 129.71 80.71L134.3 85.3C134.69 85.69 135.32 85.69 135.71 85.3C136.09 84.91 136.1 84.27 135.71 83.88Z" fill="white"/>
</g>
<path d="M161.492 85.154C161.54 85.25 161.564 85.352 161.564 85.46C161.564 85.64 161.492 85.79 161.348 85.91C161.216 86.03 161.054 86.09 160.862 86.09C160.562 86.09 160.352 85.946 160.232 85.658L158.954 82.742H152.168L150.872 85.658C150.752 85.946 150.542 86.09 150.242 86.09C150.05 86.09 149.882 86.03 149.738 85.91C149.594 85.778 149.522 85.622 149.522 85.442C149.522 85.346 149.546 85.25 149.594 85.154L154.742 73.706C154.814 73.538 154.922 73.412 155.066 73.328C155.21 73.244 155.366 73.202 155.534 73.202C155.714 73.202 155.876 73.25 156.02 73.346C156.164 73.43 156.272 73.55 156.344 73.706L161.492 85.154ZM152.708 81.518H158.414L155.552 75.056L152.708 81.518ZM167.838 77.018C169.938 77.018 170.988 78.176 170.988 80.492V85.37C170.988 85.598 170.922 85.778 170.79 85.91C170.67 86.03 170.496 86.09 170.268 86.09C170.04 86.09 169.86 86.03 169.728 85.91C169.596 85.778 169.53 85.598 169.53 85.37V80.582C169.53 79.766 169.368 79.172 169.044 78.8C168.732 78.428 168.228 78.242 167.532 78.242C166.728 78.242 166.086 78.488 165.606 78.98C165.126 79.472 164.886 80.138 164.886 80.978V85.37C164.886 85.598 164.82 85.778 164.688 85.91C164.568 86.03 164.394 86.09 164.166 86.09C163.938 86.09 163.758 86.03 163.626 85.91C163.494 85.778 163.428 85.598 163.428 85.37V77.774C163.428 77.558 163.494 77.384 163.626 77.252C163.758 77.12 163.938 77.054 164.166 77.054C164.382 77.054 164.55 77.12 164.67 77.252C164.802 77.384 164.868 77.552 164.868 77.756V78.674C165.156 78.134 165.558 77.726 166.074 77.45C166.59 77.162 167.178 77.018 167.838 77.018ZM177.709 84.938C178.129 84.974 178.339 85.166 178.339 85.514C178.339 85.718 178.261 85.874 178.105 85.982C177.961 86.078 177.739 86.114 177.439 86.09L176.953 86.054C175.993 85.982 175.285 85.694 174.829 85.19C174.373 84.686 174.145 83.924 174.145 82.904V78.386H172.939C172.735 78.386 172.573 78.338 172.453 78.242C172.345 78.134 172.291 77.996 172.291 77.828C172.291 77.648 172.345 77.504 172.453 77.396C172.573 77.288 172.735 77.234 172.939 77.234H174.145V75.2C174.145 74.972 174.211 74.798 174.343 74.678C174.475 74.546 174.655 74.48 174.883 74.48C175.099 74.48 175.273 74.546 175.405 74.678C175.537 74.798 175.603 74.972 175.603 75.2V77.234H177.601C177.793 77.234 177.943 77.288 178.051 77.396C178.171 77.504 178.231 77.648 178.231 77.828C178.231 77.996 178.171 78.134 178.051 78.242C177.943 78.338 177.793 78.386 177.601 78.386H175.603V82.976C175.603 83.636 175.735 84.116 175.999 84.416C176.275 84.704 176.683 84.866 177.223 84.902L177.709 84.938ZM186.562 83.966C186.694 83.966 186.808 84.02 186.904 84.128C187 84.236 187.048 84.374 187.048 84.542C187.048 84.842 186.838 85.118 186.418 85.37C185.986 85.622 185.53 85.814 185.05 85.946C184.57 86.066 184.102 86.126 183.646 86.126C182.29 86.126 181.216 85.724 180.424 84.92C179.644 84.116 179.254 83.006 179.254 81.59C179.254 80.69 179.428 79.898 179.776 79.214C180.124 78.518 180.61 77.978 181.234 77.594C181.87 77.21 182.59 77.018 183.394 77.018C184.534 77.018 185.44 77.39 186.112 78.134C186.784 78.878 187.12 79.886 187.12 81.158C187.12 81.398 187.072 81.572 186.976 81.68C186.88 81.788 186.724 81.842 186.508 81.842H180.712C180.82 83.906 181.798 84.938 183.646 84.938C184.114 84.938 184.516 84.878 184.852 84.758C185.188 84.626 185.548 84.452 185.932 84.236C186.244 84.056 186.454 83.966 186.562 83.966ZM183.412 78.152C182.644 78.152 182.026 78.392 181.558 78.872C181.102 79.352 180.832 80.03 180.748 80.906H185.842C185.818 80.018 185.596 79.34 185.176 78.872C184.756 78.392 184.168 78.152 183.412 78.152ZM193.606 77.054C194.11 77.018 194.362 77.222 194.362 77.666C194.362 77.858 194.308 78.014 194.2 78.134C194.092 78.242 193.906 78.308 193.642 78.332L193.102 78.386C192.298 78.458 191.698 78.746 191.302 79.25C190.918 79.742 190.726 80.324 190.726 80.996V85.37C190.726 85.61 190.66 85.79 190.528 85.91C190.396 86.03 190.222 86.09 190.006 86.09C189.79 86.09 189.61 86.03 189.466 85.91C189.334 85.778 189.268 85.598 189.268 85.37V77.774C189.268 77.546 189.34 77.372 189.484 77.252C189.628 77.12 189.802 77.054 190.006 77.054C190.198 77.054 190.36 77.12 190.492 77.252C190.624 77.372 190.69 77.54 190.69 77.756V78.764C190.942 78.236 191.296 77.834 191.752 77.558C192.22 77.282 192.754 77.12 193.354 77.072L193.606 77.054ZM196.352 86.09C196.136 86.09 195.956 86.03 195.812 85.91C195.68 85.778 195.614 85.598 195.614 85.37V77.774C195.614 77.546 195.68 77.372 195.812 77.252C195.956 77.12 196.136 77.054 196.352 77.054C196.568 77.054 196.742 77.12 196.874 77.252C197.006 77.372 197.072 77.546 197.072 77.774V85.37C197.072 85.61 197.006 85.79 196.874 85.91C196.742 86.03 196.568 86.09 196.352 86.09ZM196.352 75.164C196.064 75.164 195.83 75.08 195.65 74.912C195.47 74.744 195.38 74.522 195.38 74.246C195.38 73.982 195.47 73.766 195.65 73.598C195.83 73.43 196.064 73.346 196.352 73.346C196.64 73.346 196.874 73.43 197.054 73.598C197.234 73.766 197.324 73.982 197.324 74.246C197.324 74.522 197.234 74.744 197.054 74.912C196.874 75.08 196.64 75.164 196.352 75.164ZM203.433 86.126C202.605 86.126 201.873 85.94 201.237 85.568C200.613 85.196 200.127 84.668 199.779 83.984C199.443 83.288 199.275 82.484 199.275 81.572C199.275 80.66 199.443 79.862 199.779 79.178C200.127 78.482 200.613 77.948 201.237 77.576C201.873 77.204 202.605 77.018 203.433 77.018C204.261 77.018 204.993 77.204 205.629 77.576C206.265 77.948 206.751 78.482 207.087 79.178C207.435 79.862 207.609 80.66 207.609 81.572C207.609 82.484 207.435 83.288 207.087 83.984C206.751 84.668 206.265 85.196 205.629 85.568C204.993 85.94 204.261 86.126 203.433 86.126ZM203.433 84.92C204.297 84.92 204.957 84.638 205.413 84.074C205.881 83.498 206.115 82.664 206.115 81.572C206.115 80.504 205.881 79.682 205.413 79.106C204.945 78.518 204.285 78.224 203.433 78.224C202.581 78.224 201.921 78.518 201.453 79.106C200.985 79.682 200.751 80.504 200.751 81.572C200.751 82.652 200.979 83.48 201.435 84.056C201.903 84.632 202.569 84.92 203.433 84.92ZM214.12 77.054C214.624 77.018 214.876 77.222 214.876 77.666C214.876 77.858 214.822 78.014 214.714 78.134C214.606 78.242 214.42 78.308 214.156 78.332L213.616 78.386C212.812 78.458 212.212 78.746 211.816 79.25C211.432 79.742 211.24 80.324 211.24 80.996V85.37C211.24 85.61 211.174 85.79 211.042 85.91C210.91 86.03 210.736 86.09 210.52 86.09C210.304 86.09 210.124 86.03 209.98 85.91C209.848 85.778 209.782 85.598 209.782 85.37V77.774C209.782 77.546 209.854 77.372 209.998 77.252C210.142 77.12 210.316 77.054 210.52 77.054C210.712 77.054 210.874 77.12 211.006 77.252C211.138 77.372 211.204 77.54 211.204 77.756V78.764C211.456 78.236 211.81 77.834 212.266 77.558C212.734 77.282 213.268 77.12 213.868 77.072L214.12 77.054Z" fill="white"/>
<rect x="112" y="59" width="116" height="42" rx="9" stroke="#E6EBF0" stroke-width="2"/>
<rect x="234" y="59" width="37" height="42" rx="9" fill="white"/>
<path d="M255.856 84.758C256.072 84.758 256.24 84.812 256.36 84.92C256.48 85.028 256.54 85.178 256.54 85.37C256.54 85.574 256.48 85.73 256.36 85.838C256.252 85.946 256.084 86 255.856 86H249.898C249.67 86 249.496 85.946 249.376 85.838C249.268 85.73 249.214 85.574 249.214 85.37C249.214 85.178 249.274 85.028 249.394 84.92C249.514 84.812 249.682 84.758 249.898 84.758H252.13V75.11L250.168 76.388C250.072 76.448 249.976 76.478 249.88 76.478C249.712 76.478 249.562 76.4 249.43 76.244C249.31 76.088 249.25 75.92 249.25 75.74C249.25 75.488 249.346 75.308 249.538 75.2L252.274 73.418C252.478 73.286 252.688 73.22 252.904 73.22C253.108 73.22 253.276 73.286 253.408 73.418C253.54 73.55 253.606 73.736 253.606 73.976V84.758H255.856Z" fill="white"/>
<rect x="234" y="59" width="37" height="42" rx="9" stroke="#E6EBF0" stroke-width="2"/>
<rect x="277" y="59" width="37" height="42" rx="9" fill="#007BC7"/>
<path d="M299.144 84.758C299.36 84.758 299.528 84.812 299.648 84.92C299.768 85.028 299.828 85.178 299.828 85.37C299.828 85.79 299.6 86 299.144 86H292.088C291.884 86 291.716 85.94 291.584 85.82C291.452 85.688 291.386 85.532 291.386 85.352C291.386 85.124 291.47 84.926 291.638 84.758L295.976 79.988C296.576 79.316 297.008 78.716 297.272 78.188C297.548 77.648 297.686 77.108 297.686 76.568C297.686 75.872 297.482 75.338 297.074 74.966C296.678 74.594 296.114 74.408 295.382 74.408C294.806 74.408 294.254 74.516 293.726 74.732C293.198 74.936 292.67 75.254 292.142 75.686C291.962 75.83 291.794 75.902 291.638 75.902C291.506 75.902 291.392 75.842 291.296 75.722C291.2 75.59 291.152 75.434 291.152 75.254C291.152 75.002 291.248 74.798 291.44 74.642C291.932 74.186 292.532 73.826 293.24 73.562C293.948 73.298 294.674 73.166 295.418 73.166C296.558 73.166 297.464 73.466 298.136 74.066C298.82 74.666 299.162 75.476 299.162 76.496C299.162 77.228 298.994 77.93 298.658 78.602C298.334 79.274 297.794 80.024 297.038 80.852L293.438 84.758H299.144Z" fill="#007BC7"/>
<rect x="277" y="59" width="37" height="42" rx="9" stroke="#E6EBF0" stroke-width="2"/>
<rect x="320" y="59" width="39" height="42" rx="9" fill="white"/>
<path d="M335.07 86.09C334.782 86.09 334.542 86 334.35 85.82C334.158 85.628 334.062 85.382 334.062 85.082C334.062 84.782 334.158 84.536 334.35 84.344C334.542 84.152 334.782 84.056 335.07 84.056C335.346 84.056 335.574 84.152 335.754 84.344C335.946 84.536 336.042 84.782 336.042 85.082C336.042 85.382 335.946 85.628 335.754 85.82C335.574 86 335.346 86.09 335.07 86.09ZM339.183 86.09C338.895 86.09 338.655 86 338.463 85.82C338.271 85.628 338.175 85.382 338.175 85.082C338.175 84.782 338.271 84.536 338.463 84.344C338.655 84.152 338.895 84.056 339.183 84.056C339.459 84.056 339.687 84.152 339.867 84.344C340.059 84.536 340.155 84.782 340.155 85.082C340.155 85.382 340.059 85.628 339.867 85.82C339.687 86 339.459 86.09 339.183 86.09ZM343.297 86.09C343.009 86.09 342.769 86 342.577 85.82C342.385 85.628 342.289 85.382 342.289 85.082C342.289 84.782 342.385 84.536 342.577 84.344C342.769 84.152 343.009 84.056 343.297 84.056C343.573 84.056 343.801 84.152 343.981 84.344C344.173 84.536 344.269 84.782 344.269 85.082C344.269 85.382 344.173 85.628 343.981 85.82C343.801 86 343.573 86.09 343.297 86.09Z" fill="white"/>
<rect x="320" y="59" width="39" height="42" rx="9" stroke="#E6EBF0" stroke-width="2"/>
<rect x="365" y="59" width="48" height="42" rx="9" fill="white"/>
<path d="M386.856 84.758C387.072 84.758 387.24 84.812 387.36 84.92C387.48 85.028 387.54 85.178 387.54 85.37C387.54 85.574 387.48 85.73 387.36 85.838C387.252 85.946 387.084 86 386.856 86H380.898C380.67 86 380.496 85.946 380.376 85.838C380.268 85.73 380.214 85.574 380.214 85.37C380.214 85.178 380.274 85.028 380.394 84.92C380.514 84.812 380.682 84.758 380.898 84.758H383.13V75.11L381.168 76.388C381.072 76.448 380.976 76.478 380.88 76.478C380.712 76.478 380.562 76.4 380.43 76.244C380.31 76.088 380.25 75.92 380.25 75.74C380.25 75.488 380.346 75.308 380.538 75.2L383.274 73.418C383.478 73.286 383.688 73.22 383.904 73.22C384.108 73.22 384.276 73.286 384.408 73.418C384.54 73.55 384.606 73.736 384.606 73.976V84.758H386.856ZM397.937 84.758C398.153 84.758 398.321 84.812 398.441 84.92C398.561 85.028 398.621 85.178 398.621 85.37C398.621 85.79 398.393 86 397.937 86H390.881C390.677 86 390.509 85.94 390.377 85.82C390.245 85.688 390.179 85.532 390.179 85.352C390.179 85.124 390.263 84.926 390.431 84.758L394.769 79.988C395.369 79.316 395.801 78.716 396.065 78.188C396.341 77.648 396.479 77.108 396.479 76.568C396.479 75.872 396.275 75.338 395.867 74.966C395.471 74.594 394.907 74.408 394.175 74.408C393.599 74.408 393.047 74.516 392.519 74.732C391.991 74.936 391.463 75.254 390.935 75.686C390.755 75.83 390.587 75.902 390.431 75.902C390.299 75.902 390.185 75.842 390.089 75.722C389.993 75.59 389.945 75.434 389.945 75.254C389.945 75.002 390.041 74.798 390.233 74.642C390.725 74.186 391.325 73.826 392.033 73.562C392.741 73.298 393.467 73.166 394.211 73.166C395.351 73.166 396.257 73.466 396.929 74.066C397.613 74.666 397.955 75.476 397.955 76.496C397.955 77.228 397.787 77.93 397.451 78.602C397.127 79.274 396.587 80.024 395.831 80.852L392.231 84.758H397.937Z" fill="white"/>
<rect x="365" y="59" width="48" height="42" rx="9" stroke="#E6EBF0" stroke-width="2"/>
<rect x="419" y="59" width="48" height="42" rx="9" fill="white"/>
<path d="M440.856 84.758C441.072 84.758 441.24 84.812 441.36 84.92C441.48 85.028 441.54 85.178 441.54 85.37C441.54 85.574 441.48 85.73 441.36 85.838C441.252 85.946 441.084 86 440.856 86H434.898C434.67 86 434.496 85.946 434.376 85.838C434.268 85.73 434.214 85.574 434.214 85.37C434.214 85.178 434.274 85.028 434.394 84.92C434.514 84.812 434.682 84.758 434.898 84.758H437.13V75.11L435.168 76.388C435.072 76.448 434.976 76.478 434.88 76.478C434.712 76.478 434.562 76.4 434.43 76.244C434.31 76.088 434.25 75.92 434.25 75.74C434.25 75.488 434.346 75.308 434.538 75.2L437.274 73.418C437.478 73.286 437.688 73.22 437.904 73.22C438.108 73.22 438.276 73.286 438.408 73.418C438.54 73.55 438.606 73.736 438.606 73.976V84.758H440.856ZM449.885 79.484C450.653 79.7 451.235 80.072 451.631 80.6C452.039 81.128 452.243 81.782 452.243 82.562C452.243 83.666 451.871 84.536 451.127 85.172C450.383 85.808 449.369 86.126 448.085 86.126C447.305 86.126 446.555 85.994 445.835 85.73C445.127 85.466 444.527 85.106 444.035 84.65C443.843 84.47 443.747 84.266 443.747 84.038C443.747 83.858 443.795 83.708 443.891 83.588C443.987 83.468 444.101 83.408 444.233 83.408C444.401 83.408 444.569 83.474 444.737 83.606C445.289 84.05 445.829 84.374 446.357 84.578C446.885 84.782 447.455 84.884 448.067 84.884C448.955 84.884 449.627 84.68 450.083 84.272C450.551 83.864 450.785 83.276 450.785 82.508C450.785 80.96 449.813 80.186 447.869 80.186H446.915C446.723 80.186 446.567 80.126 446.447 80.006C446.339 79.874 446.285 79.724 446.285 79.556C446.285 79.388 446.339 79.244 446.447 79.124C446.567 79.004 446.723 78.944 446.915 78.944H447.581C448.517 78.944 449.237 78.74 449.741 78.332C450.245 77.912 450.497 77.312 450.497 76.532C450.497 75.848 450.293 75.326 449.885 74.966C449.477 74.594 448.901 74.408 448.157 74.408C447.593 74.408 447.047 74.516 446.519 74.732C445.991 74.936 445.463 75.254 444.935 75.686C444.767 75.818 444.599 75.884 444.431 75.884C444.299 75.884 444.185 75.824 444.089 75.704C443.993 75.584 443.945 75.434 443.945 75.254C443.945 75.026 444.041 74.822 444.233 74.642C444.725 74.186 445.319 73.826 446.015 73.562C446.723 73.298 447.449 73.166 448.193 73.166C449.345 73.166 450.263 73.46 450.947 74.048C451.631 74.636 451.967 75.428 451.955 76.424C451.943 77.144 451.751 77.774 451.379 78.314C451.019 78.854 450.521 79.244 449.885 79.484Z" fill="white"/>
<rect x="419" y="59" width="48" height="42" rx="9" stroke="#E6EBF0" stroke-width="2"/>
<rect x="473" y="59" width="126" height="42" rx="9" fill="white"/>
<path d="M491.616 86.144C490.716 86.144 489.852 86.012 489.024 85.748C488.208 85.472 487.554 85.106 487.062 84.65C486.882 84.482 486.792 84.272 486.792 84.02C486.792 83.852 486.84 83.708 486.936 83.588C487.032 83.456 487.146 83.39 487.278 83.39C487.434 83.39 487.602 83.456 487.782 83.588C488.898 84.452 490.17 84.884 491.598 84.884C492.63 84.884 493.422 84.686 493.974 84.29C494.526 83.894 494.802 83.33 494.802 82.598C494.802 82.178 494.67 81.842 494.406 81.59C494.142 81.326 493.794 81.116 493.362 80.96C492.93 80.804 492.348 80.642 491.616 80.474C490.632 80.246 489.822 80.006 489.186 79.754C488.562 79.502 488.052 79.142 487.656 78.674C487.272 78.206 487.08 77.594 487.08 76.838C487.08 76.118 487.272 75.482 487.656 74.93C488.052 74.366 488.598 73.934 489.294 73.634C490.002 73.322 490.806 73.166 491.706 73.166C492.546 73.166 493.326 73.298 494.046 73.562C494.778 73.814 495.39 74.18 495.882 74.66C496.074 74.852 496.17 75.062 496.17 75.29C496.17 75.458 496.122 75.608 496.026 75.74C495.93 75.86 495.816 75.92 495.684 75.92C495.552 75.92 495.378 75.854 495.162 75.722C494.574 75.242 494.028 74.906 493.524 74.714C493.02 74.522 492.414 74.426 491.706 74.426C490.71 74.426 489.936 74.636 489.384 75.056C488.832 75.464 488.556 76.04 488.556 76.784C488.556 77.42 488.796 77.9 489.276 78.224C489.768 78.536 490.518 78.812 491.526 79.052C492.618 79.316 493.476 79.562 494.1 79.79C494.724 80.006 495.24 80.336 495.648 80.78C496.068 81.224 496.278 81.818 496.278 82.562C496.278 83.27 496.08 83.894 495.684 84.434C495.3 84.974 494.754 85.394 494.046 85.694C493.338 85.994 492.528 86.144 491.616 86.144ZM499.197 86.09C498.981 86.09 498.801 86.03 498.657 85.91C498.525 85.778 498.459 85.598 498.459 85.37V77.774C498.459 77.546 498.525 77.372 498.657 77.252C498.801 77.12 498.981 77.054 499.197 77.054C499.413 77.054 499.587 77.12 499.719 77.252C499.851 77.372 499.917 77.546 499.917 77.774V85.37C499.917 85.61 499.851 85.79 499.719 85.91C499.587 86.03 499.413 86.09 499.197 86.09ZM499.197 75.164C498.909 75.164 498.675 75.08 498.495 74.912C498.315 74.744 498.225 74.522 498.225 74.246C498.225 73.982 498.315 73.766 498.495 73.598C498.675 73.43 498.909 73.346 499.197 73.346C499.485 73.346 499.719 73.43 499.899 73.598C500.079 73.766 500.169 73.982 500.169 74.246C500.169 74.522 500.079 74.744 499.899 74.912C499.719 75.08 499.485 75.164 499.197 75.164ZM509.753 77.054C509.981 77.054 510.161 77.12 510.293 77.252C510.425 77.384 510.491 77.558 510.491 77.774V85.406C510.491 86.714 510.155 87.698 509.483 88.358C508.811 89.03 507.815 89.366 506.495 89.366C505.211 89.366 504.143 89.114 503.291 88.61C502.859 88.37 502.643 88.094 502.643 87.782C502.643 87.614 502.685 87.476 502.769 87.368C502.865 87.26 502.985 87.206 503.129 87.206C503.249 87.206 503.465 87.29 503.777 87.458C504.197 87.674 504.611 87.848 505.019 87.98C505.427 88.112 505.913 88.178 506.477 88.178C507.329 88.178 507.971 87.95 508.403 87.494C508.835 87.05 509.051 86.396 509.051 85.532V83.984C508.799 84.548 508.409 84.98 507.881 85.28C507.365 85.58 506.753 85.73 506.045 85.73C505.277 85.73 504.593 85.55 503.993 85.19C503.405 84.83 502.943 84.32 502.607 83.66C502.283 83 502.121 82.238 502.121 81.374C502.121 80.51 502.283 79.748 502.607 79.088C502.943 78.428 503.405 77.918 503.993 77.558C504.593 77.198 505.277 77.018 506.045 77.018C506.741 77.018 507.347 77.168 507.863 77.468C508.379 77.768 508.769 78.194 509.033 78.746V77.774C509.033 77.558 509.093 77.384 509.213 77.252C509.345 77.12 509.525 77.054 509.753 77.054ZM506.333 84.524C507.173 84.524 507.833 84.248 508.313 83.696C508.793 83.132 509.033 82.358 509.033 81.374C509.033 80.402 508.793 79.64 508.313 79.088C507.845 78.524 507.185 78.242 506.333 78.242C505.481 78.242 504.809 78.524 504.317 79.088C503.837 79.64 503.597 80.402 503.597 81.374C503.597 82.358 503.837 83.132 504.317 83.696C504.809 84.248 505.481 84.524 506.333 84.524ZM519.85 77.054C520.078 77.054 520.252 77.12 520.372 77.252C520.504 77.384 520.57 77.558 520.57 77.774V85.388C520.57 85.592 520.504 85.76 520.372 85.892C520.252 86.024 520.078 86.09 519.85 86.09C519.634 86.09 519.46 86.03 519.328 85.91C519.208 85.778 519.148 85.61 519.148 85.406V84.506C518.872 85.034 518.482 85.436 517.978 85.712C517.486 85.988 516.928 86.126 516.304 86.126C515.26 86.126 514.474 85.838 513.946 85.262C513.418 84.674 513.154 83.81 513.154 82.67V77.774C513.154 77.558 513.22 77.384 513.352 77.252C513.484 77.12 513.664 77.054 513.892 77.054C514.12 77.054 514.294 77.12 514.414 77.252C514.546 77.384 514.612 77.558 514.612 77.774V82.634C514.612 83.414 514.768 83.99 515.08 84.362C515.392 84.722 515.884 84.902 516.556 84.902C517.324 84.902 517.942 84.656 518.41 84.164C518.878 83.66 519.112 83 519.112 82.184V77.774C519.112 77.558 519.178 77.384 519.31 77.252C519.442 77.12 519.622 77.054 519.85 77.054ZM524.018 86.09C523.802 86.09 523.622 86.03 523.478 85.91C523.346 85.778 523.28 85.598 523.28 85.37V77.774C523.28 77.546 523.346 77.372 523.478 77.252C523.622 77.12 523.802 77.054 524.018 77.054C524.234 77.054 524.408 77.12 524.54 77.252C524.672 77.372 524.738 77.546 524.738 77.774V85.37C524.738 85.61 524.672 85.79 524.54 85.91C524.408 86.03 524.234 86.09 524.018 86.09ZM524.018 75.164C523.73 75.164 523.496 75.08 523.316 74.912C523.136 74.744 523.046 74.522 523.046 74.246C523.046 73.982 523.136 73.766 523.316 73.598C523.496 73.43 523.73 73.346 524.018 73.346C524.306 73.346 524.54 73.43 524.72 73.598C524.9 73.766 524.99 73.982 524.99 74.246C524.99 74.522 524.9 74.744 524.72 74.912C524.54 75.08 524.306 75.164 524.018 75.164ZM534.249 83.966C534.381 83.966 534.495 84.02 534.591 84.128C534.687 84.236 534.735 84.374 534.735 84.542C534.735 84.842 534.525 85.118 534.105 85.37C533.673 85.622 533.217 85.814 532.737 85.946C532.257 86.066 531.789 86.126 531.333 86.126C529.977 86.126 528.903 85.724 528.111 84.92C527.331 84.116 526.941 83.006 526.941 81.59C526.941 80.69 527.115 79.898 527.463 79.214C527.811 78.518 528.297 77.978 528.921 77.594C529.557 77.21 530.277 77.018 531.081 77.018C532.221 77.018 533.127 77.39 533.799 78.134C534.471 78.878 534.807 79.886 534.807 81.158C534.807 81.398 534.759 81.572 534.663 81.68C534.567 81.788 534.411 81.842 534.195 81.842H528.399C528.507 83.906 529.485 84.938 531.333 84.938C531.801 84.938 532.203 84.878 532.539 84.758C532.875 84.626 533.235 84.452 533.619 84.236C533.931 84.056 534.141 83.966 534.249 83.966ZM531.099 78.152C530.331 78.152 529.713 78.392 529.245 78.872C528.789 79.352 528.519 80.03 528.435 80.906H533.529C533.505 80.018 533.283 79.34 532.863 78.872C532.443 78.392 531.855 78.152 531.099 78.152ZM541.365 77.018C543.465 77.018 544.515 78.176 544.515 80.492V85.37C544.515 85.598 544.449 85.778 544.317 85.91C544.197 86.03 544.023 86.09 543.795 86.09C543.567 86.09 543.387 86.03 543.255 85.91C543.123 85.778 543.057 85.598 543.057 85.37V80.582C543.057 79.766 542.895 79.172 542.571 78.8C542.259 78.428 541.755 78.242 541.059 78.242C540.255 78.242 539.613 78.488 539.133 78.98C538.653 79.472 538.413 80.138 538.413 80.978V85.37C538.413 85.598 538.347 85.778 538.215 85.91C538.095 86.03 537.921 86.09 537.693 86.09C537.465 86.09 537.285 86.03 537.153 85.91C537.021 85.778 536.955 85.598 536.955 85.37V77.774C536.955 77.558 537.021 77.384 537.153 77.252C537.285 77.12 537.465 77.054 537.693 77.054C537.909 77.054 538.077 77.12 538.197 77.252C538.329 77.384 538.395 77.552 538.395 77.756V78.674C538.683 78.134 539.085 77.726 539.601 77.45C540.117 77.162 540.705 77.018 541.365 77.018ZM551.236 84.938C551.656 84.974 551.866 85.166 551.866 85.514C551.866 85.718 551.788 85.874 551.632 85.982C551.488 86.078 551.266 86.114 550.966 86.09L550.48 86.054C549.52 85.982 548.812 85.694 548.356 85.19C547.9 84.686 547.672 83.924 547.672 82.904V78.386H546.466C546.262 78.386 546.1 78.338 545.98 78.242C545.872 78.134 545.818 77.996 545.818 77.828C545.818 77.648 545.872 77.504 545.98 77.396C546.1 77.288 546.262 77.234 546.466 77.234H547.672V75.2C547.672 74.972 547.738 74.798 547.87 74.678C548.002 74.546 548.182 74.48 548.41 74.48C548.626 74.48 548.8 74.546 548.932 74.678C549.064 74.798 549.13 74.972 549.13 75.2V77.234H551.128C551.32 77.234 551.47 77.288 551.578 77.396C551.698 77.504 551.758 77.648 551.758 77.828C551.758 77.996 551.698 78.134 551.578 78.242C551.47 78.338 551.32 78.386 551.128 78.386H549.13V82.976C549.13 83.636 549.262 84.116 549.526 84.416C549.802 84.704 550.21 84.866 550.75 84.902L551.236 84.938ZM560.089 83.966C560.221 83.966 560.335 84.02 560.431 84.128C560.527 84.236 560.575 84.374 560.575 84.542C560.575 84.842 560.365 85.118 559.945 85.37C559.513 85.622 559.057 85.814 558.577 85.946C558.097 86.066 557.629 86.126 557.173 86.126C555.817 86.126 554.743 85.724 553.951 84.92C553.171 84.116 552.781 83.006 552.781 81.59C552.781 80.69 552.955 79.898 553.303 79.214C553.651 78.518 554.137 77.978 554.761 77.594C555.397 77.21 556.117 77.018 556.921 77.018C558.061 77.018 558.967 77.39 559.639 78.134C560.311 78.878 560.647 79.886 560.647 81.158C560.647 81.398 560.599 81.572 560.503 81.68C560.407 81.788 560.251 81.842 560.035 81.842H554.239C554.347 83.906 555.325 84.938 557.173 84.938C557.641 84.938 558.043 84.878 558.379 84.758C558.715 84.626 559.075 84.452 559.459 84.236C559.771 84.056 559.981 83.966 560.089 83.966ZM556.939 78.152C556.171 78.152 555.553 78.392 555.085 78.872C554.629 79.352 554.359 80.03 554.275 80.906H559.369C559.345 80.018 559.123 79.34 558.703 78.872C558.283 78.392 557.695 78.152 556.939 78.152Z" fill="white"/>
<g clip-path="url(#clip1_176_1609)">
<path d="M575.29 83.88L579.17 80L575.29 76.12C574.9 75.73 574.9 75.1 575.29 74.71C575.68 74.32 576.31 74.32 576.7 74.71L581.29 79.3C581.68 79.69 581.68 80.32 581.29 80.71L576.7 85.3C576.31 85.69 575.68 85.69 575.29 85.3C574.91 84.91 574.9 84.27 575.29 83.88Z" fill="white"/>
</g>
<rect x="473" y="59" width="126" height="42" rx="9" stroke="#E6EBF0" stroke-width="2"/>
<line x1="359" y1="30" x2="359" y2="131" stroke="#007BC7" stroke-width="2" stroke-dasharray="4 4"/>
<defs>
<clipPath id="clip0_176_1609">
<rect width="24" height="24" fill="white" transform="translate(121 68)"/>
</clipPath>
<clipPath id="clip1_176_1609">
<rect width="24" height="24" fill="white" transform="translate(566 68)"/>
</clipPath>
</defs>
</svg>
