<svg width="147" height="40" viewBox="0 0 147 40" fill="none" xmlns="http://www.w3.org/2000/svg">
<rect width="147" height="40" rx="8" fill="#5C6A7A"/>
<path d="M17.512 26.144C17.224 26.144 16.99 26.078 16.81 25.946C16.642 25.814 16.54 25.64 16.504 25.424C16.468 25.196 16.51 24.944 16.63 24.668L21.382 14.138C21.538 13.79 21.724 13.544 21.94 13.4C22.168 13.244 22.426 13.166 22.714 13.166C22.99 13.166 23.236 13.244 23.452 13.4C23.68 13.544 23.872 13.79 24.028 14.138L28.798 24.668C28.93 24.944 28.978 25.196 28.942 25.424C28.906 25.652 28.804 25.832 28.636 25.964C28.468 26.084 28.246 26.144 27.97 26.144C27.634 26.144 27.37 26.066 27.178 25.91C26.998 25.742 26.836 25.49 26.692 25.154L25.522 22.436L26.494 23.066H18.898L19.87 22.436L18.718 25.154C18.562 25.502 18.4 25.754 18.232 25.91C18.064 26.066 17.824 26.144 17.512 26.144ZM22.678 15.812L20.158 21.806L19.69 21.23H25.702L25.252 21.806L22.714 15.812H22.678ZM31.6805 29.384C31.3205 29.384 31.0445 29.288 30.8525 29.096C30.6605 28.904 30.5645 28.622 30.5645 28.25V18.188C30.5645 17.816 30.6605 17.534 30.8525 17.342C31.0445 17.15 31.3145 17.054 31.6625 17.054C32.0225 17.054 32.2985 17.15 32.4905 17.342C32.6825 17.534 32.7785 17.816 32.7785 18.188V19.592L32.5805 19.052C32.7605 18.44 33.1265 17.948 33.6785 17.576C34.2425 17.204 34.8965 17.018 35.6405 17.018C36.4085 17.018 37.0805 17.204 37.6565 17.576C38.2445 17.948 38.7005 18.476 39.0245 19.16C39.3485 19.832 39.5105 20.642 39.5105 21.59C39.5105 22.526 39.3485 23.342 39.0245 24.038C38.7005 24.722 38.2505 25.25 37.6745 25.622C37.0985 25.994 36.4205 26.18 35.6405 26.18C34.9085 26.18 34.2665 26 33.7145 25.64C33.1625 25.268 32.7905 24.788 32.5985 24.2H32.8145V28.25C32.8145 28.622 32.7125 28.904 32.5085 29.096C32.3165 29.288 32.0405 29.384 31.6805 29.384ZM35.0105 24.47C35.4545 24.47 35.8445 24.362 36.1805 24.146C36.5165 23.93 36.7745 23.612 36.9545 23.192C37.1465 22.76 37.2425 22.226 37.2425 21.59C37.2425 20.63 37.0385 19.916 36.6305 19.448C36.2225 18.968 35.6825 18.728 35.0105 18.728C34.5665 18.728 34.1765 18.836 33.8405 19.052C33.5045 19.256 33.2405 19.574 33.0485 20.006C32.8685 20.426 32.7785 20.954 32.7785 21.59C32.7785 22.538 32.9825 23.258 33.3905 23.75C33.7985 24.23 34.3385 24.47 35.0105 24.47ZM44.3635 26.18C43.3675 26.18 42.6175 25.898 42.1135 25.334C41.6095 24.758 41.3575 23.918 41.3575 22.814V14.3C41.3575 13.928 41.4535 13.646 41.6455 13.454C41.8375 13.262 42.1135 13.166 42.4735 13.166C42.8335 13.166 43.1095 13.262 43.3015 13.454C43.5055 13.646 43.6075 13.928 43.6075 14.3V22.706C43.6075 23.258 43.7215 23.666 43.9495 23.93C44.1895 24.194 44.5255 24.326 44.9575 24.326C45.0535 24.326 45.1435 24.326 45.2275 24.326C45.3115 24.314 45.3955 24.302 45.4795 24.29C45.6475 24.266 45.7615 24.314 45.8215 24.434C45.8815 24.542 45.9115 24.77 45.9115 25.118C45.9115 25.418 45.8515 25.652 45.7315 25.82C45.6115 25.988 45.4135 26.09 45.1375 26.126C45.0175 26.138 44.8915 26.15 44.7595 26.162C44.6275 26.174 44.4955 26.18 44.3635 26.18ZM48.2215 26.126C47.8615 26.126 47.5855 26.018 47.3935 25.802C47.2015 25.586 47.1055 25.286 47.1055 24.902V18.296C47.1055 17.9 47.2015 17.6 47.3935 17.396C47.5855 17.18 47.8615 17.072 48.2215 17.072C48.5815 17.072 48.8575 17.18 49.0495 17.396C49.2535 17.6 49.3555 17.9 49.3555 18.296V24.902C49.3555 25.286 49.2595 25.586 49.0675 25.802C48.8755 26.018 48.5935 26.126 48.2215 26.126ZM48.2215 15.398C47.8015 15.398 47.4715 15.296 47.2315 15.092C47.0035 14.876 46.8895 14.582 46.8895 14.21C46.8895 13.826 47.0035 13.532 47.2315 13.328C47.4715 13.124 47.8015 13.022 48.2215 13.022C48.6535 13.022 48.9835 13.124 49.2115 13.328C49.4395 13.532 49.5535 13.826 49.5535 14.21C49.5535 14.582 49.4395 14.876 49.2115 15.092C48.9835 15.296 48.6535 15.398 48.2215 15.398ZM55.7614 26.18C54.8374 26.18 54.0334 25.994 53.3494 25.622C52.6654 25.238 52.1374 24.698 51.7654 24.002C51.3934 23.306 51.2074 22.49 51.2074 21.554C51.2074 20.846 51.3094 20.216 51.5134 19.664C51.7294 19.1 52.0354 18.626 52.4314 18.242C52.8274 17.846 53.3074 17.546 53.8714 17.342C54.4354 17.126 55.0654 17.018 55.7614 17.018C56.1574 17.018 56.5834 17.072 57.0394 17.18C57.5074 17.288 57.9454 17.468 58.3534 17.72C58.5454 17.84 58.6714 17.984 58.7314 18.152C58.7914 18.32 58.8034 18.494 58.7674 18.674C58.7314 18.842 58.6534 18.992 58.5334 19.124C58.4254 19.244 58.2874 19.322 58.1194 19.358C57.9514 19.382 57.7654 19.34 57.5614 19.232C57.2974 19.076 57.0274 18.962 56.7514 18.89C56.4754 18.806 56.2114 18.764 55.9594 18.764C55.5634 18.764 55.2154 18.83 54.9154 18.962C54.6154 19.082 54.3574 19.262 54.1414 19.502C53.9374 19.73 53.7814 20.018 53.6734 20.366C53.5654 20.714 53.5114 21.116 53.5114 21.572C53.5114 22.46 53.7214 23.162 54.1414 23.678C54.5734 24.182 55.1794 24.434 55.9594 24.434C56.2114 24.434 56.4694 24.398 56.7334 24.326C57.0094 24.254 57.2854 24.14 57.5614 23.984C57.7654 23.876 57.9454 23.84 58.1014 23.876C58.2694 23.912 58.4074 23.996 58.5154 24.128C58.6234 24.248 58.6894 24.398 58.7134 24.578C58.7374 24.746 58.7134 24.914 58.6414 25.082C58.5814 25.25 58.4614 25.388 58.2814 25.496C57.8854 25.736 57.4654 25.91 57.0214 26.018C56.5774 26.126 56.1574 26.18 55.7614 26.18ZM63.0289 26.18C62.3929 26.18 61.8229 26.06 61.3189 25.82C60.8269 25.568 60.4369 25.232 60.1489 24.812C59.8729 24.392 59.7349 23.918 59.7349 23.39C59.7349 22.742 59.9029 22.232 60.2389 21.86C60.5749 21.476 61.1209 21.2 61.8769 21.032C62.6329 20.864 63.6469 20.78 64.9189 20.78H65.8189V22.076H64.9369C64.1929 22.076 63.5989 22.112 63.1549 22.184C62.7109 22.256 62.3929 22.382 62.2009 22.562C62.0209 22.73 61.9309 22.97 61.9309 23.282C61.9309 23.678 62.0689 24.002 62.3449 24.254C62.6209 24.506 63.0049 24.632 63.4969 24.632C63.8929 24.632 64.2409 24.542 64.5409 24.362C64.8529 24.17 65.0989 23.912 65.2789 23.588C65.4589 23.264 65.5489 22.892 65.5489 22.472V20.402C65.5489 19.802 65.4169 19.37 65.1529 19.106C64.8889 18.842 64.4449 18.71 63.8209 18.71C63.4729 18.71 63.0949 18.752 62.6869 18.836C62.2909 18.92 61.8709 19.064 61.4269 19.268C61.1989 19.376 60.9949 19.406 60.8149 19.358C60.6469 19.31 60.5149 19.214 60.4189 19.07C60.3229 18.914 60.2749 18.746 60.2749 18.566C60.2749 18.386 60.3229 18.212 60.4189 18.044C60.5149 17.864 60.6769 17.732 60.9049 17.648C61.4569 17.42 61.9849 17.258 62.4889 17.162C63.0049 17.066 63.4729 17.018 63.8929 17.018C64.7569 17.018 65.4649 17.15 66.0169 17.414C66.5809 17.678 67.0009 18.08 67.2769 18.62C67.5529 19.148 67.6909 19.832 67.6909 20.672V24.992C67.6909 25.364 67.6009 25.652 67.4209 25.856C67.2409 26.048 66.9829 26.144 66.6469 26.144C66.3109 26.144 66.0469 26.048 65.8549 25.856C65.6749 25.652 65.5849 25.364 65.5849 24.992V24.128H65.7289C65.6449 24.548 65.4769 24.914 65.2249 25.226C64.9849 25.526 64.6789 25.76 64.3069 25.928C63.9349 26.096 63.5089 26.18 63.0289 26.18ZM71.1267 26.144C70.7547 26.144 70.4667 26.048 70.2627 25.856C70.0707 25.652 69.9747 25.364 69.9747 24.992V18.188C69.9747 17.816 70.0707 17.534 70.2627 17.342C70.4547 17.15 70.7247 17.054 71.0727 17.054C71.4207 17.054 71.6907 17.15 71.8827 17.342C72.0747 17.534 72.1707 17.816 72.1707 18.188V19.322H71.9907C72.1587 18.602 72.4887 18.056 72.9807 17.684C73.4727 17.312 74.1267 17.09 74.9427 17.018C75.1947 16.994 75.3927 17.06 75.5367 17.216C75.6927 17.36 75.7827 17.588 75.8067 17.9C75.8307 18.2 75.7587 18.446 75.5907 18.638C75.4347 18.818 75.1947 18.926 74.8707 18.962L74.4747 18.998C73.7427 19.07 73.1907 19.298 72.8187 19.682C72.4467 20.054 72.2607 20.582 72.2607 21.266V24.992C72.2607 25.364 72.1647 25.652 71.9727 25.856C71.7807 26.048 71.4987 26.144 71.1267 26.144ZM83.6382 26.144C83.2782 26.144 82.9962 26.048 82.7922 25.856C82.6002 25.652 82.5042 25.364 82.5042 24.992V18.89H81.6762C81.3882 18.89 81.1662 18.818 81.0102 18.674C80.8542 18.518 80.7762 18.308 80.7762 18.044C80.7762 17.768 80.8542 17.558 81.0102 17.414C81.1662 17.27 81.3882 17.198 81.6762 17.198H83.1522L82.5042 17.792V17.18C82.5042 15.968 82.8102 15.05 83.4222 14.426C84.0342 13.802 84.9222 13.43 86.0862 13.31L86.6262 13.256C86.9022 13.232 87.1182 13.268 87.2742 13.364C87.4422 13.46 87.5502 13.592 87.5982 13.76C87.6582 13.916 87.6702 14.084 87.6342 14.264C87.5982 14.432 87.5262 14.582 87.4182 14.714C87.3102 14.834 87.1722 14.9 87.0042 14.912L86.5722 14.948C85.9362 14.996 85.4742 15.17 85.1862 15.47C84.8982 15.77 84.7542 16.22 84.7542 16.82V17.486L84.4662 17.198H89.4522C89.8122 17.198 90.0882 17.306 90.2802 17.522C90.4722 17.726 90.5682 18.02 90.5682 18.404V24.902C90.5682 25.286 90.4722 25.586 90.2802 25.802C90.1002 26.018 89.8242 26.126 89.4522 26.126C89.0922 26.126 88.8102 26.018 88.6062 25.802C88.4142 25.586 88.3182 25.286 88.3182 24.902V18.89H84.7542V24.992C84.7542 25.76 84.3822 26.144 83.6382 26.144ZM89.4882 15.398C89.0802 15.398 88.7622 15.296 88.5342 15.092C88.3182 14.876 88.2102 14.582 88.2102 14.21C88.2102 13.826 88.3182 13.532 88.5342 13.328C88.7622 13.124 89.0802 13.022 89.4882 13.022C89.9082 13.022 90.2262 13.124 90.4422 13.328C90.6702 13.532 90.7842 13.826 90.7842 14.21C90.7842 14.582 90.6702 14.876 90.4422 15.092C90.2262 15.296 89.9082 15.398 89.4882 15.398ZM95.9201 26.18C94.9241 26.18 94.1741 25.898 93.6701 25.334C93.1661 24.758 92.9141 23.918 92.9141 22.814V14.3C92.9141 13.928 93.0101 13.646 93.2021 13.454C93.3941 13.262 93.6701 13.166 94.0301 13.166C94.3901 13.166 94.6661 13.262 94.8581 13.454C95.0621 13.646 95.1641 13.928 95.1641 14.3V22.706C95.1641 23.258 95.2781 23.666 95.5061 23.93C95.7461 24.194 96.0821 24.326 96.5141 24.326C96.6101 24.326 96.7001 24.326 96.7841 24.326C96.8681 24.314 96.9521 24.302 97.0361 24.29C97.2041 24.266 97.3181 24.314 97.3781 24.434C97.4381 24.542 97.4681 24.77 97.4681 25.118C97.4681 25.418 97.4081 25.652 97.2881 25.82C97.1681 25.988 96.9701 26.09 96.6941 26.126C96.5741 26.138 96.4481 26.15 96.3161 26.162C96.1841 26.174 96.0521 26.18 95.9201 26.18ZM102.466 26.18C101.686 26.18 101.032 26.048 100.504 25.784C99.9877 25.52 99.6037 25.136 99.3517 24.632C99.0997 24.116 98.9737 23.48 98.9737 22.724V18.89H98.0377C97.7497 18.89 97.5277 18.818 97.3717 18.674C97.2157 18.518 97.1377 18.308 97.1377 18.044C97.1377 17.768 97.2157 17.558 97.3717 17.414C97.5277 17.27 97.7497 17.198 98.0377 17.198H98.9737V15.56C98.9737 15.188 99.0697 14.906 99.2617 14.714C99.4657 14.522 99.7477 14.426 100.108 14.426C100.468 14.426 100.744 14.522 100.936 14.714C101.128 14.906 101.224 15.188 101.224 15.56V17.198H103.132C103.42 17.198 103.642 17.27 103.798 17.414C103.954 17.558 104.032 17.768 104.032 18.044C104.032 18.308 103.954 18.518 103.798 18.674C103.642 18.818 103.42 18.89 103.132 18.89H101.224V22.598C101.224 23.174 101.35 23.606 101.602 23.894C101.854 24.182 102.262 24.326 102.826 24.326C103.03 24.326 103.21 24.308 103.366 24.272C103.522 24.236 103.66 24.212 103.78 24.2C103.924 24.188 104.044 24.236 104.14 24.344C104.236 24.44 104.284 24.644 104.284 24.956C104.284 25.196 104.242 25.412 104.158 25.604C104.086 25.784 103.948 25.91 103.744 25.982C103.588 26.03 103.384 26.072 103.132 26.108C102.88 26.156 102.658 26.18 102.466 26.18ZM106.494 26.144C106.122 26.144 105.834 26.048 105.63 25.856C105.438 25.652 105.342 25.364 105.342 24.992V18.188C105.342 17.816 105.438 17.534 105.63 17.342C105.822 17.15 106.092 17.054 106.44 17.054C106.788 17.054 107.058 17.15 107.25 17.342C107.442 17.534 107.538 17.816 107.538 18.188V19.322H107.358C107.526 18.602 107.856 18.056 108.348 17.684C108.84 17.312 109.494 17.09 110.31 17.018C110.562 16.994 110.76 17.06 110.904 17.216C111.06 17.36 111.15 17.588 111.174 17.9C111.198 18.2 111.126 18.446 110.958 18.638C110.802 18.818 110.562 18.926 110.238 18.962L109.842 18.998C109.11 19.07 108.558 19.298 108.186 19.682C107.814 20.054 107.628 20.582 107.628 21.266V24.992C107.628 25.364 107.532 25.652 107.34 25.856C107.148 26.048 106.866 26.144 106.494 26.144ZM116.264 26.18C115.352 26.18 114.56 25.994 113.888 25.622C113.216 25.25 112.694 24.722 112.322 24.038C111.95 23.342 111.764 22.526 111.764 21.59C111.764 20.882 111.866 20.252 112.07 19.7C112.286 19.136 112.592 18.656 112.988 18.26C113.384 17.852 113.858 17.546 114.41 17.342C114.962 17.126 115.58 17.018 116.264 17.018C117.176 17.018 117.968 17.204 118.64 17.576C119.312 17.948 119.834 18.476 120.206 19.16C120.578 19.844 120.764 20.654 120.764 21.59C120.764 22.298 120.656 22.934 120.44 23.498C120.236 24.062 119.936 24.548 119.54 24.956C119.144 25.352 118.67 25.658 118.118 25.874C117.566 26.078 116.948 26.18 116.264 26.18ZM116.264 24.47C116.708 24.47 117.098 24.362 117.434 24.146C117.77 23.93 118.028 23.612 118.208 23.192C118.4 22.76 118.496 22.226 118.496 21.59C118.496 20.63 118.292 19.916 117.884 19.448C117.476 18.968 116.936 18.728 116.264 18.728C115.82 18.728 115.43 18.836 115.094 19.052C114.758 19.256 114.494 19.574 114.302 20.006C114.122 20.426 114.032 20.954 114.032 21.59C114.032 22.538 114.236 23.258 114.644 23.75C115.052 24.23 115.592 24.47 116.264 24.47ZM125.843 26.18C125.327 26.18 124.781 26.126 124.205 26.018C123.629 25.91 123.113 25.724 122.657 25.46C122.465 25.34 122.327 25.202 122.243 25.046C122.171 24.878 122.141 24.716 122.153 24.56C122.177 24.392 122.237 24.248 122.333 24.128C122.441 24.008 122.573 23.93 122.729 23.894C122.897 23.858 123.077 23.888 123.269 23.984C123.749 24.212 124.199 24.374 124.619 24.47C125.039 24.554 125.453 24.596 125.861 24.596C126.437 24.596 126.863 24.5 127.139 24.308C127.427 24.104 127.571 23.84 127.571 23.516C127.571 23.24 127.475 23.03 127.283 22.886C127.103 22.73 126.827 22.616 126.455 22.544L124.655 22.202C123.911 22.058 123.341 21.788 122.945 21.392C122.561 20.984 122.369 20.462 122.369 19.826C122.369 19.25 122.525 18.752 122.837 18.332C123.161 17.912 123.605 17.588 124.169 17.36C124.733 17.132 125.381 17.018 126.113 17.018C126.641 17.018 127.133 17.078 127.589 17.198C128.057 17.306 128.507 17.48 128.939 17.72C129.119 17.816 129.239 17.942 129.299 18.098C129.371 18.254 129.389 18.416 129.353 18.584C129.317 18.74 129.245 18.884 129.137 19.016C129.029 19.136 128.891 19.214 128.723 19.25C128.567 19.274 128.387 19.238 128.183 19.142C127.811 18.95 127.451 18.812 127.103 18.728C126.767 18.644 126.443 18.602 126.131 18.602C125.543 18.602 125.105 18.704 124.817 18.908C124.541 19.112 124.403 19.382 124.403 19.718C124.403 19.97 124.487 20.18 124.655 20.348C124.823 20.516 125.081 20.63 125.429 20.69L127.229 21.032C128.009 21.176 128.597 21.44 128.993 21.824C129.401 22.208 129.605 22.724 129.605 23.372C129.605 24.248 129.263 24.938 128.579 25.442C127.895 25.934 126.983 26.18 125.843 26.18Z" fill="white"/>
</svg>
