<svg width="204" height="44" viewBox="0 0 204 44" fill="none" xmlns="http://www.w3.org/2000/svg">
<rect x="1" y="1" width="202" height="42" rx="9" fill="white"/>
<path d="M15.296 28.126C15.104 28.126 14.948 28.084 14.828 28C14.72 27.904 14.654 27.784 14.63 27.64C14.618 27.484 14.654 27.31 14.738 27.118L19.688 15.85C19.796 15.61 19.922 15.442 20.066 15.346C20.222 15.238 20.39 15.184 20.57 15.184C20.75 15.184 20.912 15.238 21.056 15.346C21.212 15.442 21.338 15.61 21.434 15.85L26.402 27.118C26.498 27.31 26.534 27.484 26.51 27.64C26.498 27.796 26.438 27.916 26.33 28C26.222 28.084 26.072 28.126 25.88 28.126C25.664 28.126 25.49 28.072 25.358 27.964C25.226 27.844 25.118 27.676 25.034 27.46L23.702 24.382L24.422 24.76H16.682L17.42 24.382L16.106 27.46C15.998 27.688 15.884 27.856 15.764 27.964C15.644 28.072 15.488 28.126 15.296 28.126ZM20.552 17.038L17.654 23.86L17.222 23.518H23.882L23.486 23.86L20.588 17.038H20.552ZM32.1014 28.162C31.2254 28.162 30.4694 27.97 29.8334 27.586C29.1974 27.202 28.7054 26.668 28.3574 25.984C28.0214 25.288 27.8534 24.484 27.8534 23.572C27.8534 22.876 27.9494 22.252 28.1414 21.7C28.3334 21.148 28.6154 20.68 28.9874 20.296C29.3594 19.9 29.8034 19.6 30.3194 19.396C30.8474 19.192 31.4414 19.09 32.1014 19.09C32.5334 19.09 32.9834 19.156 33.4514 19.288C33.9194 19.42 34.3454 19.648 34.7294 19.972C34.8494 20.056 34.9274 20.158 34.9634 20.278C34.9994 20.398 34.9994 20.518 34.9634 20.638C34.9274 20.746 34.8674 20.842 34.7834 20.926C34.6994 20.998 34.5914 21.04 34.4594 21.052C34.3394 21.064 34.2134 21.022 34.0814 20.926C33.7694 20.686 33.4514 20.518 33.1274 20.422C32.8034 20.326 32.4914 20.278 32.1914 20.278C31.7234 20.278 31.3154 20.356 30.9674 20.512C30.6194 20.656 30.3254 20.866 30.0854 21.142C29.8454 21.418 29.6594 21.76 29.5274 22.168C29.4074 22.576 29.3474 23.05 29.3474 23.59C29.3474 24.634 29.5934 25.462 30.0854 26.074C30.5774 26.674 31.2794 26.974 32.1914 26.974C32.4914 26.974 32.7974 26.926 33.1094 26.83C33.4334 26.734 33.7574 26.566 34.0814 26.326C34.2134 26.23 34.3394 26.188 34.4594 26.2C34.5794 26.212 34.6814 26.26 34.7654 26.344C34.8494 26.416 34.9034 26.512 34.9274 26.632C34.9634 26.752 34.9634 26.872 34.9274 26.992C34.8914 27.1 34.8134 27.196 34.6934 27.28C34.3094 27.592 33.8894 27.82 33.4334 27.964C32.9774 28.096 32.5334 28.162 32.1014 28.162ZM40.2354 28.162C39.5514 28.162 38.9754 28.042 38.5074 27.802C38.0514 27.55 37.7094 27.19 37.4814 26.722C37.2534 26.242 37.1394 25.66 37.1394 24.976V20.386H35.9334C35.7294 20.386 35.5734 20.338 35.4654 20.242C35.3574 20.134 35.3034 19.99 35.3034 19.81C35.3034 19.63 35.3574 19.492 35.4654 19.396C35.5734 19.3 35.7294 19.252 35.9334 19.252H37.1394V17.182C37.1394 16.942 37.2054 16.762 37.3374 16.642C37.4694 16.51 37.6494 16.444 37.8774 16.444C38.1054 16.444 38.2794 16.51 38.3994 16.642C38.5314 16.762 38.5974 16.942 38.5974 17.182V19.252H40.8654C41.0694 19.252 41.2254 19.3 41.3334 19.396C41.4414 19.492 41.4954 19.63 41.4954 19.81C41.4954 19.99 41.4414 20.134 41.3334 20.242C41.2254 20.338 41.0694 20.386 40.8654 20.386H38.5974V24.832C38.5974 25.516 38.7414 26.038 39.0294 26.398C39.3174 26.746 39.7854 26.92 40.4334 26.92C40.6614 26.92 40.8534 26.896 41.0094 26.848C41.1774 26.8 41.3154 26.776 41.4234 26.776C41.5314 26.764 41.6214 26.8 41.6934 26.884C41.7654 26.968 41.8014 27.112 41.8014 27.316C41.8014 27.46 41.7714 27.592 41.7114 27.712C41.6634 27.832 41.5734 27.916 41.4414 27.964C41.2974 28.012 41.1054 28.054 40.8654 28.09C40.6374 28.138 40.4274 28.162 40.2354 28.162ZM43.8439 28.09C43.6039 28.09 43.4239 28.024 43.3039 27.892C43.1839 27.748 43.1239 27.55 43.1239 27.298V19.936C43.1239 19.684 43.1839 19.492 43.3039 19.36C43.4239 19.228 43.6039 19.162 43.8439 19.162C44.0719 19.162 44.2519 19.228 44.3839 19.36C44.5159 19.492 44.5819 19.684 44.5819 19.936V27.298C44.5819 27.55 44.5159 27.748 44.3839 27.892C44.2639 28.024 44.0839 28.09 43.8439 28.09ZM43.8439 17.146C43.5439 17.146 43.3099 17.068 43.1419 16.912C42.9739 16.744 42.8899 16.522 42.8899 16.246C42.8899 15.958 42.9739 15.742 43.1419 15.598C43.3099 15.442 43.5439 15.364 43.8439 15.364C44.1559 15.364 44.3899 15.442 44.5459 15.598C44.7139 15.742 44.7979 15.958 44.7979 16.246C44.7979 16.522 44.7139 16.744 44.5459 16.912C44.3899 17.068 44.1559 17.146 43.8439 17.146ZM50.5655 28.126C50.3615 28.126 50.1815 28.072 50.0255 27.964C49.8695 27.844 49.7375 27.664 49.6295 27.424L46.5155 20.152C46.4315 19.972 46.4015 19.804 46.4255 19.648C46.4495 19.492 46.5215 19.366 46.6415 19.27C46.7615 19.174 46.9295 19.126 47.1455 19.126C47.3375 19.126 47.4875 19.168 47.5955 19.252C47.7035 19.336 47.7995 19.486 47.8835 19.702L50.8355 26.92H50.3495L53.3555 19.702C53.4395 19.486 53.5355 19.336 53.6435 19.252C53.7515 19.168 53.9075 19.126 54.1115 19.126C54.3035 19.126 54.4475 19.174 54.5435 19.27C54.6515 19.366 54.7115 19.492 54.7235 19.648C54.7475 19.792 54.7235 19.954 54.6515 20.134L51.5015 27.424C51.4175 27.664 51.2915 27.844 51.1235 27.964C50.9675 28.072 50.7815 28.126 50.5655 28.126ZM57.2911 28.09C57.0511 28.09 56.8711 28.024 56.7511 27.892C56.6311 27.748 56.5711 27.55 56.5711 27.298V19.936C56.5711 19.684 56.6311 19.492 56.7511 19.36C56.8711 19.228 57.0511 19.162 57.2911 19.162C57.5191 19.162 57.6991 19.228 57.8311 19.36C57.9631 19.492 58.0291 19.684 58.0291 19.936V27.298C58.0291 27.55 57.9631 27.748 57.8311 27.892C57.7111 28.024 57.5311 28.09 57.2911 28.09ZM57.2911 17.146C56.9911 17.146 56.7571 17.068 56.5891 16.912C56.4211 16.744 56.3371 16.522 56.3371 16.246C56.3371 15.958 56.4211 15.742 56.5891 15.598C56.7571 15.442 56.9911 15.364 57.2911 15.364C57.6031 15.364 57.8371 15.442 57.9931 15.598C58.1611 15.742 58.2451 15.958 58.2451 16.246C58.2451 16.522 58.1611 16.744 57.9931 16.912C57.8371 17.068 57.6031 17.146 57.2911 17.146ZM64.0847 28.162C63.3047 28.162 62.6207 27.976 62.0327 27.604C61.4567 27.232 61.0067 26.71 60.6827 26.038C60.3707 25.354 60.2147 24.55 60.2147 23.626C60.2147 22.69 60.3707 21.886 60.6827 21.214C61.0067 20.53 61.4567 20.008 62.0327 19.648C62.6207 19.276 63.3047 19.09 64.0847 19.09C64.8767 19.09 65.5547 19.288 66.1187 19.684C66.6827 20.08 67.0607 20.614 67.2527 21.286H67.0547V15.922C67.0547 15.682 67.1147 15.502 67.2347 15.382C67.3667 15.25 67.5527 15.184 67.7927 15.184C68.0207 15.184 68.1947 15.25 68.3147 15.382C68.4467 15.502 68.5127 15.682 68.5127 15.922V27.37C68.5127 27.61 68.4527 27.796 68.3327 27.928C68.2127 28.06 68.0327 28.126 67.7927 28.126C67.5647 28.126 67.3847 28.06 67.2527 27.928C67.1327 27.796 67.0727 27.61 67.0727 27.37V25.66L67.2707 25.912C67.0787 26.596 66.6947 27.142 66.1187 27.55C65.5547 27.958 64.8767 28.162 64.0847 28.162ZM64.3907 26.992C64.9307 26.992 65.4047 26.86 65.8127 26.596C66.2207 26.332 66.5327 25.948 66.7487 25.444C66.9767 24.94 67.0907 24.334 67.0907 23.626C67.0907 22.534 66.8447 21.7 66.3527 21.124C65.8727 20.548 65.2187 20.26 64.3907 20.26C63.8387 20.26 63.3587 20.392 62.9507 20.656C62.5547 20.908 62.2427 21.286 62.0147 21.79C61.7987 22.282 61.6907 22.894 61.6907 23.626C61.6907 24.706 61.9367 25.54 62.4287 26.128C62.9207 26.704 63.5747 26.992 64.3907 26.992ZM74.0029 28.162C73.4029 28.162 72.8629 28.048 72.3829 27.82C71.9149 27.58 71.5429 27.256 71.2669 26.848C70.9909 26.44 70.8529 25.984 70.8529 25.48C70.8529 24.832 71.0149 24.322 71.3389 23.95C71.6749 23.578 72.2209 23.314 72.9769 23.158C73.7449 23.002 74.7889 22.924 76.1089 22.924H76.9189V23.878H76.1269C75.1549 23.878 74.3869 23.926 73.8229 24.022C73.2709 24.106 72.8809 24.256 72.6529 24.472C72.4369 24.688 72.3289 24.994 72.3289 25.39C72.3289 25.882 72.4969 26.284 72.8329 26.596C73.1809 26.908 73.6489 27.064 74.2369 27.064C74.7169 27.064 75.1369 26.95 75.4969 26.722C75.8689 26.494 76.1569 26.182 76.3609 25.786C76.5769 25.39 76.6849 24.934 76.6849 24.418V22.366C76.6849 21.622 76.5349 21.088 76.2349 20.764C75.9349 20.428 75.4429 20.26 74.7589 20.26C74.3389 20.26 73.9189 20.314 73.4989 20.422C73.0789 20.53 72.6349 20.704 72.1669 20.944C71.9989 21.028 71.8549 21.058 71.7349 21.034C71.6149 20.998 71.5189 20.932 71.4469 20.836C71.3749 20.74 71.3329 20.632 71.3209 20.512C71.3089 20.38 71.3329 20.254 71.3929 20.134C71.4649 20.014 71.5729 19.918 71.7169 19.846C72.2449 19.582 72.7669 19.39 73.2829 19.27C73.7989 19.15 74.2909 19.09 74.7589 19.09C75.5149 19.09 76.1389 19.216 76.6309 19.468C77.1229 19.708 77.4889 20.08 77.7289 20.584C77.9689 21.076 78.0889 21.712 78.0889 22.492V27.37C78.0889 27.61 78.0289 27.796 77.9089 27.928C77.8009 28.06 77.6389 28.126 77.4229 28.126C77.1949 28.126 77.0209 28.06 76.9009 27.928C76.7809 27.796 76.7209 27.61 76.7209 27.37V25.966H76.8829C76.7869 26.422 76.6009 26.812 76.3249 27.136C76.0609 27.46 75.7309 27.712 75.3349 27.892C74.9389 28.072 74.4949 28.162 74.0029 28.162ZM84.1238 28.162C83.3438 28.162 82.6598 27.976 82.0718 27.604C81.4958 27.232 81.0458 26.71 80.7218 26.038C80.4098 25.354 80.2538 24.55 80.2538 23.626C80.2538 22.69 80.4098 21.886 80.7218 21.214C81.0458 20.53 81.4958 20.008 82.0718 19.648C82.6598 19.276 83.3438 19.09 84.1238 19.09C84.9158 19.09 85.5938 19.288 86.1578 19.684C86.7218 20.08 87.0998 20.614 87.2918 21.286H87.0938V15.922C87.0938 15.682 87.1538 15.502 87.2738 15.382C87.4058 15.25 87.5918 15.184 87.8318 15.184C88.0598 15.184 88.2338 15.25 88.3538 15.382C88.4858 15.502 88.5518 15.682 88.5518 15.922V27.37C88.5518 27.61 88.4918 27.796 88.3718 27.928C88.2518 28.06 88.0718 28.126 87.8318 28.126C87.6038 28.126 87.4238 28.06 87.2918 27.928C87.1718 27.796 87.1118 27.61 87.1118 27.37V25.66L87.3098 25.912C87.1178 26.596 86.7338 27.142 86.1578 27.55C85.5938 27.958 84.9158 28.162 84.1238 28.162ZM84.4298 26.992C84.9698 26.992 85.4438 26.86 85.8518 26.596C86.2598 26.332 86.5718 25.948 86.7878 25.444C87.0158 24.94 87.1298 24.334 87.1298 23.626C87.1298 22.534 86.8838 21.7 86.3918 21.124C85.9118 20.548 85.2578 20.26 84.4298 20.26C83.8778 20.26 83.3978 20.392 82.9898 20.656C82.5938 20.908 82.2818 21.286 82.0538 21.79C81.8378 22.282 81.7298 22.894 81.7298 23.626C81.7298 24.706 81.9758 25.54 82.4678 26.128C82.9598 26.704 83.6138 26.992 84.4298 26.992Z" fill="#007BC7"/>
<path d="M143.171 30.042C142.499 28.806 142.007 27.54 141.695 26.244C141.383 24.936 141.227 23.61 141.227 22.266C141.227 21.366 141.293 20.478 141.425 19.602C141.569 18.726 141.785 17.862 142.073 17.01C142.361 16.158 142.727 15.318 143.171 14.49C143.255 14.334 143.369 14.238 143.513 14.202C143.669 14.166 143.813 14.178 143.945 14.238C144.089 14.286 144.191 14.388 144.251 14.544C144.311 14.688 144.299 14.874 144.215 15.102C143.903 15.894 143.639 16.686 143.423 17.478C143.207 18.27 143.045 19.062 142.937 19.854C142.829 20.646 142.775 21.45 142.775 22.266C142.775 23.082 142.829 23.886 142.937 24.678C143.057 25.47 143.225 26.256 143.441 27.036C143.657 27.828 143.915 28.626 144.215 29.43C144.311 29.658 144.323 29.844 144.251 29.988C144.191 30.144 144.089 30.246 143.945 30.294C143.813 30.354 143.669 30.366 143.513 30.33C143.369 30.294 143.255 30.198 143.171 30.042ZM147.426 27C147.162 27 146.964 26.94 146.832 26.82C146.712 26.688 146.652 26.514 146.652 26.298C146.652 26.166 146.682 26.04 146.742 25.92C146.814 25.788 146.91 25.656 147.03 25.524L151.062 21.204C151.674 20.544 152.112 19.938 152.376 19.386C152.652 18.822 152.79 18.252 152.79 17.676C152.79 16.956 152.568 16.41 152.124 16.038C151.692 15.654 151.056 15.462 150.216 15.462C149.676 15.462 149.166 15.546 148.686 15.714C148.206 15.882 147.744 16.14 147.3 16.488C147.144 16.608 147 16.662 146.868 16.65C146.748 16.638 146.64 16.59 146.544 16.506C146.448 16.422 146.382 16.314 146.346 16.182C146.31 16.05 146.31 15.918 146.346 15.786C146.394 15.654 146.49 15.534 146.634 15.426C147.102 15.042 147.666 14.736 148.326 14.508C148.986 14.268 149.658 14.148 150.342 14.148C151.194 14.148 151.914 14.28 152.502 14.544C153.09 14.808 153.534 15.198 153.834 15.714C154.134 16.218 154.284 16.836 154.284 17.568C154.284 18.072 154.2 18.57 154.032 19.062C153.876 19.542 153.63 20.034 153.294 20.538C152.97 21.042 152.544 21.564 152.016 22.104L148.182 26.154V25.74H154.248C154.476 25.74 154.644 25.794 154.752 25.902C154.872 25.998 154.932 26.148 154.932 26.352C154.932 26.568 154.872 26.73 154.752 26.838C154.644 26.946 154.476 27 154.248 27H147.426ZM157.84 30.042C157.744 30.198 157.624 30.294 157.48 30.33C157.336 30.366 157.192 30.354 157.048 30.294C156.904 30.234 156.802 30.132 156.742 29.988C156.682 29.844 156.694 29.658 156.778 29.43C157.102 28.626 157.366 27.828 157.57 27.036C157.786 26.256 157.948 25.47 158.056 24.678C158.164 23.886 158.218 23.082 158.218 22.266C158.218 21.45 158.158 20.646 158.038 19.854C157.93 19.062 157.768 18.276 157.552 17.496C157.348 16.704 157.09 15.906 156.778 15.102C156.694 14.874 156.682 14.688 156.742 14.544C156.814 14.388 156.916 14.286 157.048 14.238C157.18 14.178 157.318 14.166 157.462 14.202C157.618 14.238 157.744 14.334 157.84 14.49C158.5 15.714 158.986 16.98 159.298 18.288C159.61 19.596 159.766 20.922 159.766 22.266C159.766 23.166 159.694 24.06 159.55 24.948C159.418 25.824 159.208 26.688 158.92 27.54C158.644 28.392 158.284 29.226 157.84 30.042Z" fill="#007BC7"/>
<g clip-path="url(#clip0_3847_9387)">
<path d="M174.12 19.2901L178 23.1701L181.88 19.2901C182.27 18.9001 182.9 18.9001 183.29 19.2901C183.68 19.6801 183.68 20.3101 183.29 20.7001L178.7 25.2901C178.31 25.6801 177.68 25.6801 177.29 25.2901L172.7 20.7001C172.31 20.3101 172.31 19.6801 172.7 19.2901C173.09 18.9101 173.73 18.9001 174.12 19.2901Z" fill="#38485C"/>
</g>
<rect x="1" y="1" width="202" height="42" rx="9" stroke="#E6EBF0" stroke-width="2"/>
<defs>
<clipPath id="clip0_3847_9387">
<rect width="24" height="24" fill="white" transform="translate(166 10)"/>
</clipPath>
</defs>
</svg>
