<svg xmlns="http://www.w3.org/2000/svg" xmlns:xlink="http://www.w3.org/1999/xlink" width="712" height="266" viewBox="0 0 712 266">
  <defs>
    <filter id="Rectángulo_18324" x="55.781" y="118.5" width="294" height="106" filterUnits="userSpaceOnUse">
      <feOffset input="SourceAlpha"/>
      <feGaussianBlur stdDeviation="6" result="blur"/>
      <feFlood flood-color="#38485c" flood-opacity="0.161"/>
      <feComposite operator="in" in2="blur"/>
      <feComposite in="SourceGraphic"/>
    </filter>
  </defs>
  <g id="Grupo_21068" data-name="Grupo 21068" transform="translate(-513 -2322)">
    <rect id="Rectángulo_18318" data-name="Rectángulo 18318" width="712" height="266" rx="8" transform="translate(513 2322)" fill="#f3f6f9"/>
    <g id="V2-Header-Sin_Loguear-Desktop" transform="translate(-449.096 2382.5)">
      <g id="V2-Desplegable-Grande" transform="translate(1154.66 16.795)">
        <g id="Rectángulo_18322" data-name="Rectángulo 18322" transform="translate(0 0.103)" fill="#f3f6f9" stroke="#005387" stroke-width="2">
          <rect width="131.218" height="50" rx="8" stroke="none"/>
          <rect x="-1" y="-1" width="133.218" height="52" rx="9" fill="none"/>
        </g>
        <g id="Grupo_20866" data-name="Grupo 20866" transform="translate(85.082 6)" opacity="0.24">
          <rect id="Rectángulo_18323" data-name="Rectángulo 18323" width="38" height="38" rx="8" transform="translate(0.136 0.205)" fill="#e0e0e0"/>
          <g id="person_black_24dp" transform="translate(8.561 8.562)">
            <path id="Trazado_27802" data-name="Trazado 27802" d="M0,0H21.007V21.007H0Z" fill="none"/>
            <path id="Trazado_27803" data-name="Trazado 27803" d="M11,11A3.5,3.5,0,1,0,7.5,7.5,3.5,3.5,0,0,0,11,11Zm0,1.751c-2.337,0-7,1.173-7,3.5V18H18V16.254C18,13.926,13.339,12.753,11,12.753Z" transform="translate(-0.499 -0.499)" fill="#38485c"/>
          </g>
        </g>
        <g id="Grupo_20867" data-name="Grupo 20867" transform="translate(-9673.979 18.539)" opacity="0.24">
          <path id="Trazado_27804" data-name="Trazado 27804" d="M-54.553.811l-4.1-10.8h-.066q.116,1.283.116,3.049V.811h-1.3V-11.368h2.118l3.831,10.046h.066l3.864-10.046h2.1V.811h-1.407V-7.036q0-1.349.116-2.932h-.066L-53.419.811Zm11.113,0h-1.374v-9.13h1.374Zm-1.489-11.6a.922.922,0,0,1,.232-.7.807.807,0,0,1,.579-.221.806.806,0,0,1,.571.225.905.905,0,0,1,.24.691.92.92,0,0,1-.24.7.8.8,0,0,1-.571.229A.791.791,0,0,1-44.7-10.1.939.939,0,0,1-44.929-10.793ZM-31.9.978A3.9,3.9,0,0,1-33.523.649,3.047,3.047,0,0,1-34.751-.363h-.1a12.327,12.327,0,0,1,.1,1.516V4.91h-1.374V-8.319h1.117l.19,1.25h.066a3.2,3.2,0,0,1,1.233-1.083A3.727,3.727,0,0,1-31.9-8.485,3.343,3.343,0,0,1-29.12-7.244a5.491,5.491,0,0,1,.981,3.482,5.458,5.458,0,0,1-1,3.494A3.348,3.348,0,0,1-31.9.978Zm-.2-8.288a2.426,2.426,0,0,0-2.011.775,4.006,4.006,0,0,0-.637,2.466v.308a4.593,4.593,0,0,0,.637,2.753A2.416,2.416,0,0,0-32.07-.18a2.121,2.121,0,0,0,1.841-.958,4.566,4.566,0,0,0,.666-2.641,4.394,4.394,0,0,0-.666-2.62A2.186,2.186,0,0,0-32.1-7.311ZM-21.909.978A4.152,4.152,0,0,1-25.082-.255a4.792,4.792,0,0,1-1.163-3.424,5.317,5.317,0,0,1,1.08-3.507,3.577,3.577,0,0,1,2.9-1.3,3.409,3.409,0,0,1,2.7,1.129,4.344,4.344,0,0,1,.993,2.978V-3.5h-6.247a3.634,3.634,0,0,0,.807,2.441,2.78,2.78,0,0,0,2.156.833,7.263,7.263,0,0,0,2.9-.616V.386A7.235,7.235,0,0,1-20.341.84,7.692,7.692,0,0,1-21.909.978Zm-.372-8.305a2.236,2.236,0,0,0-1.742.716,3.314,3.314,0,0,0-.765,1.983h4.741a3.054,3.054,0,0,0-.579-2A2.032,2.032,0,0,0-22.281-7.327ZM-12.1-8.485a5.34,5.34,0,0,1,1.084.1L-11.2-7.1a4.649,4.649,0,0,0-.993-.125,2.411,2.411,0,0,0-1.882.9,3.294,3.294,0,0,0-.782,2.241v4.9h-1.374v-9.13H-15.1l.157,1.691h.066A4,4,0,0,1-13.659-8,2.725,2.725,0,0,1-12.1-8.485Zm6.868,1.241H-7.536V.811H-8.91V-7.244h-1.622v-.625l1.622-.5v-.508q0-3.365,2.921-3.365a5.974,5.974,0,0,1,1.688.292l-.356,1.108A4.517,4.517,0,0,0-6.013-11.1a1.318,1.318,0,0,0-1.15.521,2.921,2.921,0,0,0-.372,1.67v.591h2.309ZM-2.2.811H-3.572v-9.13H-2.2Zm-1.489-11.6a.922.922,0,0,1,.232-.7.807.807,0,0,1,.579-.221.806.806,0,0,1,.571.225.905.905,0,0,1,.24.691.92.92,0,0,1-.24.7.8.8,0,0,1-.571.229.791.791,0,0,1-.579-.229A.939.939,0,0,1-3.688-10.793ZM2.087.811H.714V-12.151H2.087Z" transform="translate(9745.885 12.242)" fill="#38485c"/>
        </g>
      </g>
      <g transform="matrix(1, 0, 0, 1, 962.1, -60.5)" filter="url(#Rectángulo_18324)">
        <rect id="Rectángulo_18324-2" data-name="Rectángulo 18324" width="258" height="70" rx="8" transform="translate(73.78 136.5)" fill="#fff"/>
      </g>
    </g>
    <g id="V2-Header-Sin_Loguear-Desktop-2" data-name="V2-Header-Sin_Loguear-Desktop" transform="translate(-179.486 2382.5)">
      <g id="V2-Desplegable-Grande-2" data-name="V2-Desplegable-Grande" transform="translate(1154.66 16.795)">
        <g id="Rectángulo_18322-2" data-name="Rectángulo 18322" transform="translate(0 0.103)" fill="#f3f6f9" stroke="#005387" stroke-width="2">
          <rect width="131.218" height="50" rx="8" stroke="none"/>
          <rect x="-1" y="-1" width="133.218" height="52" rx="9" fill="none"/>
        </g>
        <g id="Grupo_20866-2" data-name="Grupo 20866" transform="translate(85.082 6)" opacity="0.24">
          <rect id="Rectángulo_18323-2" data-name="Rectángulo 18323" width="38" height="38" rx="8" transform="translate(0.136 0.205)" fill="#e0e0e0"/>
          <g id="person_black_24dp-2" data-name="person_black_24dp" transform="translate(8.561 8.562)">
            <path id="Trazado_27802-2" data-name="Trazado 27802" d="M0,0H21.007V21.007H0Z" fill="none"/>
            <path id="Trazado_27803-2" data-name="Trazado 27803" d="M11,11A3.5,3.5,0,1,0,7.5,7.5,3.5,3.5,0,0,0,11,11Zm0,1.751c-2.337,0-7,1.173-7,3.5V18H18V16.254C18,13.926,13.339,12.753,11,12.753Z" transform="translate(-0.499 -0.499)" fill="#38485c"/>
          </g>
        </g>
        <g id="Grupo_20867-2" data-name="Grupo 20867" transform="translate(-9673.979 18.539)" opacity="0.24">
          <path id="Trazado_27804-2" data-name="Trazado 27804" d="M-54.553.811l-4.1-10.8h-.066q.116,1.283.116,3.049V.811h-1.3V-11.368h2.118l3.831,10.046h.066l3.864-10.046h2.1V.811h-1.407V-7.036q0-1.349.116-2.932h-.066L-53.419.811Zm11.113,0h-1.374v-9.13h1.374Zm-1.489-11.6a.922.922,0,0,1,.232-.7.807.807,0,0,1,.579-.221.806.806,0,0,1,.571.225.905.905,0,0,1,.24.691.92.92,0,0,1-.24.7.8.8,0,0,1-.571.229A.791.791,0,0,1-44.7-10.1.939.939,0,0,1-44.929-10.793ZM-31.9.978A3.9,3.9,0,0,1-33.523.649,3.047,3.047,0,0,1-34.751-.363h-.1a12.327,12.327,0,0,1,.1,1.516V4.91h-1.374V-8.319h1.117l.19,1.25h.066a3.2,3.2,0,0,1,1.233-1.083A3.727,3.727,0,0,1-31.9-8.485,3.343,3.343,0,0,1-29.12-7.244a5.491,5.491,0,0,1,.981,3.482,5.458,5.458,0,0,1-1,3.494A3.348,3.348,0,0,1-31.9.978Zm-.2-8.288a2.426,2.426,0,0,0-2.011.775,4.006,4.006,0,0,0-.637,2.466v.308a4.593,4.593,0,0,0,.637,2.753A2.416,2.416,0,0,0-32.07-.18a2.121,2.121,0,0,0,1.841-.958,4.566,4.566,0,0,0,.666-2.641,4.394,4.394,0,0,0-.666-2.62A2.186,2.186,0,0,0-32.1-7.311ZM-21.909.978A4.152,4.152,0,0,1-25.082-.255a4.792,4.792,0,0,1-1.163-3.424,5.317,5.317,0,0,1,1.08-3.507,3.577,3.577,0,0,1,2.9-1.3,3.409,3.409,0,0,1,2.7,1.129,4.344,4.344,0,0,1,.993,2.978V-3.5h-6.247a3.634,3.634,0,0,0,.807,2.441,2.78,2.78,0,0,0,2.156.833,7.263,7.263,0,0,0,2.9-.616V.386A7.235,7.235,0,0,1-20.341.84,7.692,7.692,0,0,1-21.909.978Zm-.372-8.305a2.236,2.236,0,0,0-1.742.716,3.314,3.314,0,0,0-.765,1.983h4.741a3.054,3.054,0,0,0-.579-2A2.032,2.032,0,0,0-22.281-7.327ZM-12.1-8.485a5.34,5.34,0,0,1,1.084.1L-11.2-7.1a4.649,4.649,0,0,0-.993-.125,2.411,2.411,0,0,0-1.882.9,3.294,3.294,0,0,0-.782,2.241v4.9h-1.374v-9.13H-15.1l.157,1.691h.066A4,4,0,0,1-13.659-8,2.725,2.725,0,0,1-12.1-8.485Zm6.868,1.241H-7.536V.811H-8.91V-7.244h-1.622v-.625l1.622-.5v-.508q0-3.365,2.921-3.365a5.974,5.974,0,0,1,1.688.292l-.356,1.108A4.517,4.517,0,0,0-6.013-11.1a1.318,1.318,0,0,0-1.15.521,2.921,2.921,0,0,0-.372,1.67v.591h2.309ZM-2.2.811H-3.572v-9.13H-2.2Zm-1.489-11.6a.922.922,0,0,1,.232-.7.807.807,0,0,1,.579-.221.806.806,0,0,1,.571.225.905.905,0,0,1,.24.691.92.92,0,0,1-.24.7.8.8,0,0,1-.571.229.791.791,0,0,1-.579-.229A.939.939,0,0,1-3.688-10.793ZM2.087.811H.714V-12.151H2.087Z" transform="translate(9745.885 12.242)" fill="#38485c"/>
        </g>
      </g>
    </g>
    <g id="Grupo_21031" data-name="Grupo 21031" transform="translate(1106.663 2397.702) rotate(90)">
      <rect id="Rectángulo_3425" data-name="Rectángulo 3425" width="7.909" height="53.484" transform="translate(53.484 0.091) rotate(90)" fill="#007bc7" opacity="0.24"/>
      <path id="Trazado_4669" data-name="Trazado 4669" d="M0,53.625V0" transform="translate(53.625 7.962) rotate(90)" fill="none" stroke="#007bc7" stroke-width="1" stroke-dasharray="5 2"/>
      <path id="Trazado_4670" data-name="Trazado 4670" d="M0,53.625V0" transform="translate(53.625) rotate(90)" fill="none" stroke="#007bc7" stroke-width="1" stroke-dasharray="5 2"/>
    </g>
    <g id="Grupo_21029" data-name="Grupo 21029" transform="translate(983.162 2397.702) rotate(90)">
      <rect id="Rectángulo_3425-2" data-name="Rectángulo 3425" width="8.897" height="53.484" transform="translate(53.484 0.103) rotate(90)" fill="#007bc7" opacity="0.24"/>
      <path id="Trazado_4669-2" data-name="Trazado 4669" d="M0,53.625V0" transform="translate(53.625 8.958) rotate(90)" fill="none" stroke="#007bc7" stroke-width="1" stroke-dasharray="5 2"/>
      <path id="Trazado_4670-2" data-name="Trazado 4670" d="M0,53.625V0" transform="translate(53.625) rotate(90)" fill="none" stroke="#007bc7" stroke-width="1" stroke-dasharray="5 2"/>
    </g>
    <g id="Grupo_21030" data-name="Grupo 21030" transform="translate(1060.096 2397.702) rotate(90)">
      <rect id="Rectángulo_3425-3" data-name="Rectángulo 3425" width="3.954" height="53.484" transform="translate(53.484 0.046) rotate(90)" fill="#007bc7" opacity="0.24"/>
      <path id="Trazado_4669-3" data-name="Trazado 4669" d="M0,53.625V0" transform="translate(53.625 3.981) rotate(90)" fill="none" stroke="#007bc7" stroke-width="1" stroke-dasharray="5 2"/>
      <path id="Trazado_4670-3" data-name="Trazado 4670" d="M0,53.625V0" transform="translate(53.625) rotate(90)" fill="none" stroke="#007bc7" stroke-width="1" stroke-dasharray="5 2"/>
    </g>
    <path id="Trazado_27896" data-name="Trazado 27896" d="M-20.608-5.792A2.733,2.733,0,0,1-19.08-4.8a2.864,2.864,0,0,1,.536,1.76,2.747,2.747,0,0,1-1.12,2.328,5.074,5.074,0,0,1-3.1.84,5.074,5.074,0,0,1-3.1-.84,2.747,2.747,0,0,1-1.12-2.328,2.87,2.87,0,0,1,.544-1.768,2.68,2.68,0,0,1,1.536-.984,2.777,2.777,0,0,1-1.328-1,2.69,2.69,0,0,1-.48-1.592,2.659,2.659,0,0,1,1.056-2.224,4.626,4.626,0,0,1,2.9-.816,4.626,4.626,0,0,1,2.9.816,2.659,2.659,0,0,1,1.056,2.224,2.753,2.753,0,0,1-.48,1.616A2.584,2.584,0,0,1-20.608-5.792Zm-2.16-4.016q-2,0-2,1.632a1.529,1.529,0,0,0,.5,1.24,2.275,2.275,0,0,0,1.5.424,2.275,2.275,0,0,0,1.5-.424,1.529,1.529,0,0,0,.5-1.24Q-20.768-9.808-22.768-9.808Zm0,8.32q2.288,0,2.288-1.712t-2.288-1.712q-2.288,0-2.288,1.712T-22.768-1.488Zm10.336-6.528a3.243,3.243,0,0,1,1.8.512A3.4,3.4,0,0,1-9.4-6.056,5,5,0,0,1-8.96-3.9,4.845,4.845,0,0,1-9.4-1.776,3.333,3.333,0,0,1-10.624-.368a3.309,3.309,0,0,1-1.808.5A3.1,3.1,0,0,1-13.92-.224,2.47,2.47,0,0,1-14.928-1.2V2.064a.83.83,0,0,1-.272.656,1.048,1.048,0,0,1-.72.24,1.037,1.037,0,0,1-.728-.256.868.868,0,0,1-.28-.672V-7.04a.914.914,0,0,1,.264-.688.979.979,0,0,1,.712-.256,1.008,1.008,0,0,1,.72.256.9.9,0,0,1,.272.688v.4a2.455,2.455,0,0,1,1.016-1.016A3.121,3.121,0,0,1-12.432-8.016Zm-.528,6.592a1.793,1.793,0,0,0,1.472-.648A2.829,2.829,0,0,0-10.96-3.9a2.989,2.989,0,0,0-.528-1.888,1.766,1.766,0,0,0-1.472-.672,1.779,1.779,0,0,0-1.48.656,2.952,2.952,0,0,0-.52,1.872,2.923,2.923,0,0,0,.52,1.856A1.779,1.779,0,0,0-12.96-1.424ZM-.688-1.472A.9.9,0,0,1-.4-.816a.885.885,0,0,1-.272.632.864.864,0,0,1-.64.28A.878.878,0,0,1-2-.24l-2.256-2.5L-6.512-.24A.928.928,0,0,1-7.2.08a.858.858,0,0,1-.624-.272A.858.858,0,0,1-8.1-.816a.9.9,0,0,1,.288-.656l2.336-2.544-2.208-2.4a.9.9,0,0,1-.288-.656A.85.85,0,0,1-7.7-7.7a.871.871,0,0,1,.624-.264.928.928,0,0,1,.688.32l2.128,2.336,2.128-2.336a.928.928,0,0,1,.688-.32A.862.862,0,0,1-.808-7.7a.862.862,0,0,1,.264.632.9.9,0,0,1-.288.656l-2.208,2.4Z" transform="translate(899.992 2459.232)" fill="#38485c"/>
    <path id="Trazado_27895" data-name="Trazado 27895" d="M-20.608-5.792A2.733,2.733,0,0,1-19.08-4.8a2.864,2.864,0,0,1,.536,1.76,2.747,2.747,0,0,1-1.12,2.328,5.074,5.074,0,0,1-3.1.84,5.074,5.074,0,0,1-3.1-.84,2.747,2.747,0,0,1-1.12-2.328,2.87,2.87,0,0,1,.544-1.768,2.68,2.68,0,0,1,1.536-.984,2.777,2.777,0,0,1-1.328-1,2.69,2.69,0,0,1-.48-1.592,2.659,2.659,0,0,1,1.056-2.224,4.626,4.626,0,0,1,2.9-.816,4.626,4.626,0,0,1,2.9.816,2.659,2.659,0,0,1,1.056,2.224,2.753,2.753,0,0,1-.48,1.616A2.584,2.584,0,0,1-20.608-5.792Zm-2.16-4.016q-2,0-2,1.632a1.529,1.529,0,0,0,.5,1.24,2.275,2.275,0,0,0,1.5.424,2.275,2.275,0,0,0,1.5-.424,1.529,1.529,0,0,0,.5-1.24Q-20.768-9.808-22.768-9.808Zm0,8.32q2.288,0,2.288-1.712t-2.288-1.712q-2.288,0-2.288,1.712T-22.768-1.488Zm10.336-6.528a3.243,3.243,0,0,1,1.8.512A3.4,3.4,0,0,1-9.4-6.056,5,5,0,0,1-8.96-3.9,4.845,4.845,0,0,1-9.4-1.776,3.333,3.333,0,0,1-10.624-.368a3.309,3.309,0,0,1-1.808.5A3.1,3.1,0,0,1-13.92-.224,2.47,2.47,0,0,1-14.928-1.2V2.064a.83.83,0,0,1-.272.656,1.048,1.048,0,0,1-.72.24,1.037,1.037,0,0,1-.728-.256.868.868,0,0,1-.28-.672V-7.04a.914.914,0,0,1,.264-.688.979.979,0,0,1,.712-.256,1.008,1.008,0,0,1,.72.256.9.9,0,0,1,.272.688v.4a2.455,2.455,0,0,1,1.016-1.016A3.121,3.121,0,0,1-12.432-8.016Zm-.528,6.592a1.793,1.793,0,0,0,1.472-.648A2.829,2.829,0,0,0-10.96-3.9a2.989,2.989,0,0,0-.528-1.888,1.766,1.766,0,0,0-1.472-.672,1.779,1.779,0,0,0-1.48.656,2.952,2.952,0,0,0-.52,1.872,2.923,2.923,0,0,0,.52,1.856A1.779,1.779,0,0,0-12.96-1.424ZM-.688-1.472A.9.9,0,0,1-.4-.816a.885.885,0,0,1-.272.632.864.864,0,0,1-.64.28A.878.878,0,0,1-2-.24l-2.256-2.5L-6.512-.24A.928.928,0,0,1-7.2.08a.858.858,0,0,1-.624-.272A.858.858,0,0,1-8.1-.816a.9.9,0,0,1,.288-.656l2.336-2.544-2.208-2.4a.9.9,0,0,1-.288-.656A.85.85,0,0,1-7.7-7.7a.871.871,0,0,1,.624-.264.928.928,0,0,1,.688.32l2.128,2.336,2.128-2.336a.928.928,0,0,1,.688-.32A.862.862,0,0,1-.808-7.7a.862.862,0,0,1,.264.632.9.9,0,0,1-.288.656l-2.208,2.4Z" transform="translate(1107.063 2389.924)" fill="#38485c"/>
    <path id="Trazado_27897" data-name="Trazado 27897" d="M-20.608-5.792A2.733,2.733,0,0,1-19.08-4.8a2.864,2.864,0,0,1,.536,1.76,2.747,2.747,0,0,1-1.12,2.328,5.074,5.074,0,0,1-3.1.84,5.074,5.074,0,0,1-3.1-.84,2.747,2.747,0,0,1-1.12-2.328,2.87,2.87,0,0,1,.544-1.768,2.68,2.68,0,0,1,1.536-.984,2.777,2.777,0,0,1-1.328-1,2.69,2.69,0,0,1-.48-1.592,2.659,2.659,0,0,1,1.056-2.224,4.626,4.626,0,0,1,2.9-.816,4.626,4.626,0,0,1,2.9.816,2.659,2.659,0,0,1,1.056,2.224,2.753,2.753,0,0,1-.48,1.616A2.584,2.584,0,0,1-20.608-5.792Zm-2.16-4.016q-2,0-2,1.632a1.529,1.529,0,0,0,.5,1.24,2.275,2.275,0,0,0,1.5.424,2.275,2.275,0,0,0,1.5-.424,1.529,1.529,0,0,0,.5-1.24Q-20.768-9.808-22.768-9.808Zm0,8.32q2.288,0,2.288-1.712t-2.288-1.712q-2.288,0-2.288,1.712T-22.768-1.488Zm10.336-6.528a3.243,3.243,0,0,1,1.8.512A3.4,3.4,0,0,1-9.4-6.056,5,5,0,0,1-8.96-3.9,4.845,4.845,0,0,1-9.4-1.776,3.333,3.333,0,0,1-10.624-.368a3.309,3.309,0,0,1-1.808.5A3.1,3.1,0,0,1-13.92-.224,2.47,2.47,0,0,1-14.928-1.2V2.064a.83.83,0,0,1-.272.656,1.048,1.048,0,0,1-.72.24,1.037,1.037,0,0,1-.728-.256.868.868,0,0,1-.28-.672V-7.04a.914.914,0,0,1,.264-.688.979.979,0,0,1,.712-.256,1.008,1.008,0,0,1,.72.256.9.9,0,0,1,.272.688v.4a2.455,2.455,0,0,1,1.016-1.016A3.121,3.121,0,0,1-12.432-8.016Zm-.528,6.592a1.793,1.793,0,0,0,1.472-.648A2.829,2.829,0,0,0-10.96-3.9a2.989,2.989,0,0,0-.528-1.888,1.766,1.766,0,0,0-1.472-.672,1.779,1.779,0,0,0-1.48.656,2.952,2.952,0,0,0-.52,1.872,2.923,2.923,0,0,0,.52,1.856A1.779,1.779,0,0,0-12.96-1.424ZM-.688-1.472A.9.9,0,0,1-.4-.816a.885.885,0,0,1-.272.632.864.864,0,0,1-.64.28A.878.878,0,0,1-2-.24l-2.256-2.5L-6.512-.24A.928.928,0,0,1-7.2.08a.858.858,0,0,1-.624-.272A.858.858,0,0,1-8.1-.816a.9.9,0,0,1,.288-.656l2.336-2.544-2.208-2.4a.9.9,0,0,1-.288-.656A.85.85,0,0,1-7.7-7.7a.871.871,0,0,1,.624-.264.928.928,0,0,1,.688.32l2.128,2.336,2.128-2.336a.928.928,0,0,1,.688-.32A.862.862,0,0,1-.808-7.7a.862.862,0,0,1,.264.632.9.9,0,0,1-.288.656l-2.208,2.4Z" transform="translate(992.358 2389.924)" fill="#38485c"/>
    <g id="Grupo_20874" data-name="Grupo 20874" transform="translate(704.552 2398.5)">
      <rect id="Rectángulo_3425-4" data-name="Rectángulo 3425" width="6" height="132" transform="translate(132.229) rotate(90)" fill="#38485c" opacity="0.24"/>
      <path id="Trazado_4669-4" data-name="Trazado 4669" d="M0,132.071V0" transform="translate(132.5 5.819) rotate(90)" fill="none" stroke="#38485c" stroke-width="1" stroke-dasharray="5 2"/>
      <path id="Trazado_4670-4" data-name="Trazado 4670" d="M0,132.071V0" transform="translate(132.5) rotate(90)" fill="none" stroke="#38485c" stroke-width="1" stroke-dasharray="5 2"/>
    </g>
    <g id="Grupo_20875" data-name="Grupo 20875" transform="translate(704.552 2444.5)">
      <rect id="Rectángulo_3425-5" data-name="Rectángulo 3425" width="6" height="132" transform="translate(132.229) rotate(90)" fill="#38485c" opacity="0.24"/>
      <path id="Trazado_4669-5" data-name="Trazado 4669" d="M0,132.071V0" transform="translate(132.5 5.819) rotate(90)" fill="none" stroke="#38485c" stroke-width="1" stroke-dasharray="5 2"/>
      <path id="Trazado_4670-5" data-name="Trazado 4670" d="M0,132.071V0" transform="translate(132.5) rotate(90)" fill="none" stroke="#38485c" stroke-width="1" stroke-dasharray="5 2"/>
    </g>
    <path id="Trazado_27814" data-name="Trazado 27814" d="M15.072-7.232a3.5,3.5,0,0,1,1.792.456A3.181,3.181,0,0,1,18.088-5.5a3.929,3.929,0,0,1,.44,1.88,3.855,3.855,0,0,1-.488,1.944A3.479,3.479,0,0,1,16.7-.336a3.906,3.906,0,0,1-1.944.48,3.989,3.989,0,0,1-3.3-1.448,6.474,6.474,0,0,1-1.16-4.136,8.527,8.527,0,0,1,.544-3.192,4.529,4.529,0,0,1,1.56-2.072,4.03,4.03,0,0,1,2.392-.72,5.426,5.426,0,0,1,1.832.328,4.773,4.773,0,0,1,1.56.888,1.2,1.2,0,0,1,.3.344.87.87,0,0,1,.088.408.926.926,0,0,1-.2.6.592.592,0,0,1-.472.248.831.831,0,0,1-.3-.056,2.284,2.284,0,0,1-.352-.184,4.3,4.3,0,0,0-2.368-.928,2.071,2.071,0,0,0-1.84,1.08,5.933,5.933,0,0,0-.7,3.032,2.745,2.745,0,0,1,1.1-1.144A3.241,3.241,0,0,1,15.072-7.232ZM14.64-1.488a1.83,1.83,0,0,0,1.408-.568,2.109,2.109,0,0,0,.528-1.5,2.08,2.08,0,0,0-.528-1.488A1.844,1.844,0,0,0,14.64-5.6a1.928,1.928,0,0,0-1.448.568,2.034,2.034,0,0,0-.552,1.48,2.055,2.055,0,0,0,.552,1.5A1.928,1.928,0,0,0,14.64-1.488ZM24.7-8.016a3.243,3.243,0,0,1,1.8.512,3.4,3.4,0,0,1,1.232,1.448,5,5,0,0,1,.44,2.152,4.845,4.845,0,0,1-.44,2.128A3.333,3.333,0,0,1,26.512-.368a3.309,3.309,0,0,1-1.808.5,3.1,3.1,0,0,1-1.488-.352A2.47,2.47,0,0,1,22.208-1.2V2.064a.83.83,0,0,1-.272.656,1.048,1.048,0,0,1-.72.24,1.037,1.037,0,0,1-.728-.256.868.868,0,0,1-.28-.672V-7.04a.914.914,0,0,1,.264-.688.979.979,0,0,1,.712-.256,1.008,1.008,0,0,1,.72.256.9.9,0,0,1,.272.688v.4a2.455,2.455,0,0,1,1.016-1.016A3.121,3.121,0,0,1,24.7-8.016Zm-.528,6.592a1.793,1.793,0,0,0,1.472-.648A2.829,2.829,0,0,0,26.176-3.9a2.989,2.989,0,0,0-.528-1.888,1.766,1.766,0,0,0-1.472-.672,1.779,1.779,0,0,0-1.48.656,2.952,2.952,0,0,0-.52,1.872A2.923,2.923,0,0,0,22.7-2.08,1.779,1.779,0,0,0,24.176-1.424Zm12.256-.048a.9.9,0,0,1,.288.656.885.885,0,0,1-.272.632.864.864,0,0,1-.64.28A.878.878,0,0,1,35.12-.24l-2.256-2.5L30.608-.24a.928.928,0,0,1-.688.32A.858.858,0,0,1,29.3-.192a.858.858,0,0,1-.272-.624.9.9,0,0,1,.288-.656l2.336-2.544-2.208-2.4a.9.9,0,0,1-.288-.656.85.85,0,0,1,.272-.632.871.871,0,0,1,.624-.264.928.928,0,0,1,.688.32l2.128,2.336,2.128-2.336a.928.928,0,0,1,.688-.32.862.862,0,0,1,.632.264.862.862,0,0,1,.264.632.9.9,0,0,1-.288.656l-2.208,2.4Z" transform="translate(656.597 2409.125)" fill="#38485c"/>
    <path id="Trazado_27815" data-name="Trazado 27815" d="M15.072-7.232a3.5,3.5,0,0,1,1.792.456A3.181,3.181,0,0,1,18.088-5.5a3.929,3.929,0,0,1,.44,1.88,3.855,3.855,0,0,1-.488,1.944A3.479,3.479,0,0,1,16.7-.336a3.906,3.906,0,0,1-1.944.48,3.989,3.989,0,0,1-3.3-1.448,6.474,6.474,0,0,1-1.16-4.136,8.527,8.527,0,0,1,.544-3.192,4.529,4.529,0,0,1,1.56-2.072,4.03,4.03,0,0,1,2.392-.72,5.426,5.426,0,0,1,1.832.328,4.773,4.773,0,0,1,1.56.888,1.2,1.2,0,0,1,.3.344.87.87,0,0,1,.088.408.926.926,0,0,1-.2.6.592.592,0,0,1-.472.248.831.831,0,0,1-.3-.056,2.284,2.284,0,0,1-.352-.184,4.3,4.3,0,0,0-2.368-.928,2.071,2.071,0,0,0-1.84,1.08,5.933,5.933,0,0,0-.7,3.032,2.745,2.745,0,0,1,1.1-1.144A3.241,3.241,0,0,1,15.072-7.232ZM14.64-1.488a1.83,1.83,0,0,0,1.408-.568,2.109,2.109,0,0,0,.528-1.5,2.08,2.08,0,0,0-.528-1.488A1.844,1.844,0,0,0,14.64-5.6a1.928,1.928,0,0,0-1.448.568,2.034,2.034,0,0,0-.552,1.48,2.055,2.055,0,0,0,.552,1.5A1.928,1.928,0,0,0,14.64-1.488ZM24.7-8.016a3.243,3.243,0,0,1,1.8.512,3.4,3.4,0,0,1,1.232,1.448,5,5,0,0,1,.44,2.152,4.845,4.845,0,0,1-.44,2.128A3.333,3.333,0,0,1,26.512-.368a3.309,3.309,0,0,1-1.808.5,3.1,3.1,0,0,1-1.488-.352A2.47,2.47,0,0,1,22.208-1.2V2.064a.83.83,0,0,1-.272.656,1.048,1.048,0,0,1-.72.24,1.037,1.037,0,0,1-.728-.256.868.868,0,0,1-.28-.672V-7.04a.914.914,0,0,1,.264-.688.979.979,0,0,1,.712-.256,1.008,1.008,0,0,1,.72.256.9.9,0,0,1,.272.688v.4a2.455,2.455,0,0,1,1.016-1.016A3.121,3.121,0,0,1,24.7-8.016Zm-.528,6.592a1.793,1.793,0,0,0,1.472-.648A2.829,2.829,0,0,0,26.176-3.9a2.989,2.989,0,0,0-.528-1.888,1.766,1.766,0,0,0-1.472-.672,1.779,1.779,0,0,0-1.48.656,2.952,2.952,0,0,0-.52,1.872A2.923,2.923,0,0,0,22.7-2.08,1.779,1.779,0,0,0,24.176-1.424Zm12.256-.048a.9.9,0,0,1,.288.656.885.885,0,0,1-.272.632.864.864,0,0,1-.64.28A.878.878,0,0,1,35.12-.24l-2.256-2.5L30.608-.24a.928.928,0,0,1-.688.32A.858.858,0,0,1,29.3-.192a.858.858,0,0,1-.272-.624.9.9,0,0,1,.288-.656l2.336-2.544-2.208-2.4a.9.9,0,0,1-.288-.656.85.85,0,0,1,.272-.632.871.871,0,0,1,.624-.264.928.928,0,0,1,.688.32l2.128,2.336,2.128-2.336a.928.928,0,0,1,.688-.32.862.862,0,0,1,.632.264.862.862,0,0,1,.264.632.9.9,0,0,1-.288.656l-2.208,2.4Z" transform="translate(656.597 2448.367)" fill="#38485c"/>
    <g id="Grupo_19575" data-name="Grupo 19575" transform="translate(571.324 2451.327)">
      <rect id="Rectángulo_3425-6" data-name="Rectángulo 3425" width="7" height="293" transform="translate(293 0.173) rotate(90)" fill="#38485c" opacity="0.24"/>
      <path id="Trazado_4669-6" data-name="Trazado 4669" d="M0,291.948V0" transform="translate(292.897 6.957) rotate(90)" fill="none" stroke="#38485c" stroke-width="1" stroke-dasharray="5 2"/>
      <path id="Trazado_4670-6" data-name="Trazado 4670" d="M0,291.948V0" transform="translate(292.897) rotate(90)" fill="none" stroke="#38485c" stroke-width="1" stroke-dasharray="5 2"/>
    </g>
    <rect id="Rectángulo_18477" data-name="Rectángulo 18477" width="177" height="24" transform="translate(610.324 2481)" fill="#f5f9fc"/>
    <rect id="Rectángulo_18478" data-name="Rectángulo 18478" width="24" height="24" transform="translate(797.324 2481)" fill="#f5f9fc"/>
    <path id="Trazado_27898" data-name="Trazado 27898" d="M8.4-3.808a1.074,1.074,0,0,1,.72.208.741.741,0,0,1,.24.592q0,.8-.96.8H7.584V-.944a1.021,1.021,0,0,1-.28.768A1,1,0,0,1,6.576.1a1,1,0,0,1-.728-.272,1.021,1.021,0,0,1-.28-.768V-2.208H1.376A.892.892,0,0,1,.7-2.456a.851.851,0,0,1-.24-.616A1.234,1.234,0,0,1,.72-3.808l4.944-7.1a1.079,1.079,0,0,1,.4-.344,1.1,1.1,0,0,1,.5-.12,1.044,1.044,0,0,1,.72.272.977.977,0,0,1,.3.768v6.528Zm-2.832,0v-4.3l-2.976,4.3ZM15.12-8.016a3.243,3.243,0,0,1,1.8.512,3.4,3.4,0,0,1,1.232,1.448,5,5,0,0,1,.44,2.152,4.845,4.845,0,0,1-.44,2.128A3.333,3.333,0,0,1,16.928-.368a3.309,3.309,0,0,1-1.808.5,3.1,3.1,0,0,1-1.488-.352A2.47,2.47,0,0,1,12.624-1.2V2.064a.83.83,0,0,1-.272.656,1.048,1.048,0,0,1-.72.24A1.037,1.037,0,0,1,10.9,2.7a.868.868,0,0,1-.28-.672V-7.04a.914.914,0,0,1,.264-.688.979.979,0,0,1,.712-.256,1.008,1.008,0,0,1,.72.256.9.9,0,0,1,.272.688v.4a2.455,2.455,0,0,1,1.016-1.016A3.121,3.121,0,0,1,15.12-8.016Zm-.528,6.592a1.793,1.793,0,0,0,1.472-.648A2.829,2.829,0,0,0,16.592-3.9a2.989,2.989,0,0,0-.528-1.888,1.766,1.766,0,0,0-1.472-.672,1.779,1.779,0,0,0-1.48.656,2.952,2.952,0,0,0-.52,1.872,2.923,2.923,0,0,0,.52,1.856A1.779,1.779,0,0,0,14.592-1.424Zm12.256-.048a.9.9,0,0,1,.288.656.885.885,0,0,1-.272.632.864.864,0,0,1-.64.28.878.878,0,0,1-.688-.336l-2.256-2.5L21.024-.24a.928.928,0,0,1-.688.32.858.858,0,0,1-.624-.272.858.858,0,0,1-.272-.624.9.9,0,0,1,.288-.656l2.336-2.544-2.208-2.4a.9.9,0,0,1-.288-.656A.85.85,0,0,1,19.84-7.7a.871.871,0,0,1,.624-.264.928.928,0,0,1,.688.32L23.28-5.312l2.128-2.336a.928.928,0,0,1,.688-.32.862.862,0,0,1,.632.264.862.862,0,0,1,.264.632.9.9,0,0,1-.288.656L24.5-4.016Z" transform="translate(1040.319 2389.876)" fill="#38485c"/>
  </g>
</svg>
