<svg width="344" height="52" viewBox="0 0 344 52" fill="none" xmlns="http://www.w3.org/2000/svg">
<rect x="1" y="1" width="342" height="50" rx="9" fill="white"/>
<path d="M16.376 32C16.112 32 15.908 31.934 15.764 31.802C15.632 31.658 15.566 31.454 15.566 31.19V20.12C15.566 19.856 15.632 19.658 15.764 19.526C15.908 19.382 16.112 19.31 16.376 19.31H19.85C21.902 19.31 23.486 19.85 24.602 20.93C25.718 22.01 26.276 23.582 26.276 25.646C26.276 26.678 26.132 27.59 25.844 28.382C25.568 29.162 25.154 29.822 24.602 30.362C24.05 30.902 23.378 31.31 22.586 31.586C21.794 31.862 20.882 32 19.85 32H16.376ZM17.042 30.74H19.742C20.582 30.74 21.308 30.632 21.92 30.416C22.544 30.2 23.06 29.882 23.468 29.462C23.888 29.042 24.2 28.514 24.404 27.878C24.608 27.23 24.71 26.486 24.71 25.646C24.71 23.954 24.296 22.688 23.468 21.848C22.64 20.996 21.398 20.57 19.742 20.57H17.042V30.74ZM32.6694 32.162C31.7454 32.162 30.9474 31.982 30.2754 31.622C29.6154 31.25 29.0994 30.728 28.7274 30.056C28.3674 29.384 28.1874 28.58 28.1874 27.644C28.1874 26.732 28.3674 25.94 28.7274 25.268C29.0874 24.584 29.5794 24.05 30.2034 23.666C30.8394 23.282 31.5714 23.09 32.3994 23.09C32.9874 23.09 33.5154 23.192 33.9834 23.396C34.4514 23.588 34.8474 23.87 35.1714 24.242C35.5074 24.614 35.7594 25.064 35.9274 25.592C36.1074 26.12 36.1974 26.714 36.1974 27.374C36.1974 27.566 36.1434 27.71 36.0354 27.806C35.9274 27.89 35.7714 27.932 35.5674 27.932H29.3034V26.978H35.2254L34.9374 27.212C34.9374 26.564 34.8414 26.018 34.6494 25.574C34.4574 25.118 34.1754 24.77 33.8034 24.53C33.4434 24.29 32.9874 24.17 32.4354 24.17C31.8234 24.17 31.3014 24.314 30.8694 24.602C30.4494 24.878 30.1314 25.268 29.9154 25.772C29.6994 26.264 29.5914 26.84 29.5914 27.5V27.608C29.5914 28.712 29.8554 29.552 30.3834 30.128C30.9234 30.704 31.6854 30.992 32.6694 30.992C33.0774 30.992 33.4794 30.938 33.8754 30.83C34.2834 30.722 34.6794 30.542 35.0634 30.29C35.2314 30.182 35.3814 30.134 35.5134 30.146C35.6574 30.146 35.7714 30.188 35.8554 30.272C35.9394 30.344 35.9934 30.44 36.0174 30.56C36.0534 30.668 36.0414 30.788 35.9814 30.92C35.9334 31.052 35.8314 31.166 35.6754 31.262C35.2794 31.55 34.8114 31.772 34.2714 31.928C33.7314 32.084 33.1974 32.162 32.6694 32.162ZM41.2595 32.162C40.7195 32.162 40.1735 32.096 39.6215 31.964C39.0815 31.832 38.5775 31.604 38.1095 31.28C37.9895 31.196 37.9055 31.1 37.8575 30.992C37.8095 30.872 37.7915 30.758 37.8035 30.65C37.8275 30.53 37.8755 30.428 37.9475 30.344C38.0315 30.26 38.1275 30.212 38.2355 30.2C38.3555 30.176 38.4875 30.2 38.6315 30.272C39.0995 30.56 39.5495 30.764 39.9815 30.884C40.4255 30.992 40.8635 31.046 41.2955 31.046C41.9795 31.046 42.4955 30.92 42.8435 30.668C43.1915 30.416 43.3655 30.074 43.3655 29.642C43.3655 29.306 43.2515 29.042 43.0235 28.85C42.7955 28.646 42.4355 28.49 41.9435 28.382L40.3055 28.022C39.5495 27.866 38.9855 27.596 38.6135 27.212C38.2535 26.828 38.0735 26.33 38.0735 25.718C38.0735 25.178 38.2115 24.716 38.4875 24.332C38.7755 23.936 39.1775 23.63 39.6935 23.414C40.2095 23.198 40.8095 23.09 41.4935 23.09C42.0215 23.09 42.5195 23.162 42.9875 23.306C43.4675 23.438 43.8995 23.654 44.2835 23.954C44.4035 24.038 44.4815 24.14 44.5175 24.26C44.5655 24.368 44.5715 24.482 44.5355 24.602C44.5115 24.71 44.4575 24.806 44.3735 24.89C44.2895 24.962 44.1875 25.004 44.0675 25.016C43.9475 25.028 43.8215 24.992 43.6895 24.908C43.3295 24.668 42.9635 24.494 42.5915 24.386C42.2195 24.266 41.8535 24.206 41.4935 24.206C40.8215 24.206 40.3115 24.338 39.9635 24.602C39.6155 24.866 39.4415 25.214 39.4415 25.646C39.4415 25.982 39.5495 26.258 39.7655 26.474C39.9815 26.69 40.3175 26.846 40.7735 26.942L42.4115 27.284C43.1915 27.452 43.7735 27.722 44.1575 28.094C44.5535 28.454 44.7515 28.946 44.7515 29.57C44.7515 30.362 44.4335 30.992 43.7975 31.46C43.1615 31.928 42.3155 32.162 41.2595 32.162ZM47.6935 35.366C47.4535 35.366 47.2735 35.3 47.1535 35.168C47.0335 35.048 46.9735 34.868 46.9735 34.628V23.864C46.9735 23.624 47.0335 23.444 47.1535 23.324C47.2735 23.192 47.4475 23.126 47.6755 23.126C47.9155 23.126 48.0955 23.192 48.2155 23.324C48.3475 23.444 48.4135 23.624 48.4135 23.864V25.574L48.2155 25.322C48.4075 24.638 48.7855 24.098 49.3495 23.702C49.9255 23.294 50.6095 23.09 51.4015 23.09C52.1815 23.09 52.8595 23.276 53.4355 23.648C54.0235 24.008 54.4735 24.53 54.7855 25.214C55.1095 25.886 55.2715 26.69 55.2715 27.626C55.2715 28.55 55.1095 29.354 54.7855 30.038C54.4735 30.71 54.0295 31.232 53.4535 31.604C52.8775 31.976 52.1935 32.162 51.4015 32.162C50.6095 32.162 49.9315 31.964 49.3675 31.568C48.8035 31.16 48.4195 30.62 48.2155 29.948H48.4315V34.628C48.4315 34.868 48.3655 35.048 48.2335 35.168C48.1015 35.3 47.9215 35.366 47.6935 35.366ZM51.0955 30.992C51.6475 30.992 52.1215 30.86 52.5175 30.596C52.9255 30.332 53.2375 29.948 53.4535 29.444C53.6815 28.94 53.7955 28.334 53.7955 27.626C53.7955 26.534 53.5495 25.7 53.0575 25.124C52.5775 24.548 51.9235 24.26 51.0955 24.26C50.5555 24.26 50.0815 24.392 49.6735 24.656C49.2655 24.908 48.9475 25.286 48.7195 25.79C48.5035 26.282 48.3955 26.894 48.3955 27.626C48.3955 28.706 48.6415 29.54 49.1335 30.128C49.6255 30.704 50.2795 30.992 51.0955 30.992ZM60.1316 32.162C59.2676 32.162 58.6076 31.898 58.1516 31.37C57.6956 30.842 57.4676 30.086 57.4676 29.102V19.922C57.4676 19.682 57.5276 19.502 57.6476 19.382C57.7676 19.25 57.9476 19.184 58.1876 19.184C58.4156 19.184 58.5956 19.25 58.7276 19.382C58.8596 19.502 58.9256 19.682 58.9256 19.922V28.994C58.9256 29.642 59.0516 30.128 59.3036 30.452C59.5676 30.764 59.9516 30.92 60.4556 30.92C60.5636 30.92 60.6596 30.914 60.7436 30.902C60.8276 30.89 60.9116 30.884 60.9956 30.884C61.1276 30.872 61.2176 30.902 61.2656 30.974C61.3256 31.046 61.3556 31.19 61.3556 31.406C61.3556 31.622 61.3076 31.784 61.2116 31.892C61.1156 32 60.9596 32.072 60.7436 32.108C60.6476 32.12 60.5456 32.132 60.4376 32.144C60.3296 32.156 60.2276 32.162 60.1316 32.162ZM66.6479 32.162C65.7239 32.162 64.9259 31.982 64.2539 31.622C63.5939 31.25 63.0779 30.728 62.7059 30.056C62.3459 29.384 62.1659 28.58 62.1659 27.644C62.1659 26.732 62.3459 25.94 62.7059 25.268C63.0659 24.584 63.5579 24.05 64.1819 23.666C64.8179 23.282 65.5499 23.09 66.3779 23.09C66.9659 23.09 67.4939 23.192 67.9619 23.396C68.4299 23.588 68.8259 23.87 69.1499 24.242C69.4859 24.614 69.7379 25.064 69.9059 25.592C70.0859 26.12 70.1759 26.714 70.1759 27.374C70.1759 27.566 70.1219 27.71 70.0139 27.806C69.9059 27.89 69.7499 27.932 69.5459 27.932H63.2819V26.978H69.2039L68.9159 27.212C68.9159 26.564 68.8199 26.018 68.6279 25.574C68.4359 25.118 68.1539 24.77 67.7819 24.53C67.4219 24.29 66.9659 24.17 66.4139 24.17C65.8019 24.17 65.2799 24.314 64.8479 24.602C64.4279 24.878 64.1099 25.268 63.8939 25.772C63.6779 26.264 63.5699 26.84 63.5699 27.5V27.608C63.5699 28.712 63.8339 29.552 64.3619 30.128C64.9019 30.704 65.6639 30.992 66.6479 30.992C67.0559 30.992 67.4579 30.938 67.8539 30.83C68.2619 30.722 68.6579 30.542 69.0419 30.29C69.2099 30.182 69.3599 30.134 69.4919 30.146C69.6359 30.146 69.7499 30.188 69.8339 30.272C69.9179 30.344 69.9719 30.44 69.9959 30.56C70.0319 30.668 70.0199 30.788 69.9599 30.92C69.9119 31.052 69.8099 31.166 69.6539 31.262C69.2579 31.55 68.7899 31.772 68.2499 31.928C67.7099 32.084 67.1759 32.162 66.6479 32.162ZM76.156 35.402C75.52 35.402 74.896 35.324 74.284 35.168C73.684 35.024 73.138 34.79 72.646 34.466C72.502 34.382 72.406 34.28 72.358 34.16C72.322 34.04 72.316 33.92 72.34 33.8C72.364 33.692 72.418 33.59 72.502 33.494C72.586 33.41 72.682 33.356 72.79 33.332C72.91 33.308 73.03 33.326 73.15 33.386C73.678 33.71 74.182 33.932 74.662 34.052C75.142 34.172 75.616 34.232 76.084 34.232C76.936 34.232 77.578 34.004 78.01 33.548C78.454 33.092 78.676 32.432 78.676 31.568V29.534H78.856C78.676 30.23 78.292 30.782 77.704 31.19C77.128 31.598 76.45 31.802 75.67 31.802C74.866 31.802 74.17 31.622 73.582 31.262C72.994 30.89 72.538 30.374 72.214 29.714C71.902 29.054 71.746 28.292 71.746 27.428C71.746 26.78 71.836 26.192 72.016 25.664C72.196 25.124 72.454 24.668 72.79 24.296C73.138 23.912 73.552 23.618 74.032 23.414C74.524 23.198 75.07 23.09 75.67 23.09C76.462 23.09 77.146 23.294 77.722 23.702C78.298 24.098 78.67 24.638 78.838 25.322L78.658 25.538V23.864C78.658 23.624 78.718 23.444 78.838 23.324C78.97 23.192 79.15 23.126 79.378 23.126C79.618 23.126 79.798 23.192 79.918 23.324C80.038 23.444 80.098 23.624 80.098 23.864V31.37C80.098 32.702 79.762 33.704 79.09 34.376C78.43 35.06 77.452 35.402 76.156 35.402ZM75.94 30.614C76.504 30.614 76.99 30.488 77.398 30.236C77.806 29.972 78.118 29.6 78.334 29.12C78.562 28.64 78.676 28.076 78.676 27.428C78.676 26.456 78.43 25.688 77.938 25.124C77.446 24.548 76.78 24.26 75.94 24.26C75.388 24.26 74.908 24.392 74.5 24.656C74.092 24.908 73.774 25.274 73.546 25.754C73.33 26.222 73.222 26.78 73.222 27.428C73.222 28.4 73.468 29.174 73.96 29.75C74.452 30.326 75.112 30.614 75.94 30.614ZM85.5868 32.162C84.9868 32.162 84.4468 32.048 83.9668 31.82C83.4988 31.58 83.1268 31.256 82.8508 30.848C82.5748 30.44 82.4368 29.984 82.4368 29.48C82.4368 28.832 82.5988 28.322 82.9228 27.95C83.2588 27.578 83.8048 27.314 84.5608 27.158C85.3288 27.002 86.3728 26.924 87.6928 26.924H88.5028V27.878H87.7108C86.7388 27.878 85.9708 27.926 85.4068 28.022C84.8548 28.106 84.4648 28.256 84.2368 28.472C84.0208 28.688 83.9128 28.994 83.9128 29.39C83.9128 29.882 84.0808 30.284 84.4168 30.596C84.7648 30.908 85.2328 31.064 85.8208 31.064C86.3008 31.064 86.7208 30.95 87.0808 30.722C87.4528 30.494 87.7408 30.182 87.9448 29.786C88.1608 29.39 88.2688 28.934 88.2688 28.418V26.366C88.2688 25.622 88.1188 25.088 87.8188 24.764C87.5188 24.428 87.0268 24.26 86.3428 24.26C85.9228 24.26 85.5028 24.314 85.0828 24.422C84.6628 24.53 84.2188 24.704 83.7508 24.944C83.5828 25.028 83.4388 25.058 83.3188 25.034C83.1988 24.998 83.1028 24.932 83.0308 24.836C82.9588 24.74 82.9168 24.632 82.9048 24.512C82.8928 24.38 82.9168 24.254 82.9768 24.134C83.0488 24.014 83.1568 23.918 83.3008 23.846C83.8288 23.582 84.3508 23.39 84.8668 23.27C85.3828 23.15 85.8748 23.09 86.3428 23.09C87.0988 23.09 87.7228 23.216 88.2148 23.468C88.7068 23.708 89.0728 24.08 89.3128 24.584C89.5528 25.076 89.6728 25.712 89.6728 26.492V31.37C89.6728 31.61 89.6128 31.796 89.4928 31.928C89.3848 32.06 89.2228 32.126 89.0068 32.126C88.7788 32.126 88.6048 32.06 88.4848 31.928C88.3648 31.796 88.3048 31.61 88.3048 31.37V29.966H88.4668C88.3708 30.422 88.1848 30.812 87.9088 31.136C87.6448 31.46 87.3148 31.712 86.9188 31.892C86.5228 32.072 86.0788 32.162 85.5868 32.162ZM96.8058 32.162C96.0138 32.162 95.3298 31.958 94.7538 31.55C94.1898 31.142 93.8118 30.596 93.6198 29.912L93.8178 29.714V31.37C93.8178 31.61 93.7518 31.796 93.6198 31.928C93.4998 32.06 93.3258 32.126 93.0978 32.126C92.8578 32.126 92.6778 32.06 92.5578 31.928C92.4378 31.796 92.3778 31.61 92.3778 31.37V19.922C92.3778 19.682 92.4378 19.502 92.5578 19.382C92.6778 19.25 92.8578 19.184 93.0978 19.184C93.3258 19.184 93.5058 19.25 93.6378 19.382C93.7698 19.502 93.8358 19.682 93.8358 19.922V25.286H93.6198C93.8238 24.614 94.2078 24.08 94.7718 23.684C95.3358 23.288 96.0138 23.09 96.8058 23.09C97.5978 23.09 98.2818 23.276 98.8578 23.648C99.4338 24.008 99.8778 24.53 100.19 25.214C100.514 25.886 100.676 26.69 100.676 27.626C100.676 28.55 100.514 29.354 100.19 30.038C99.8778 30.71 99.4278 31.232 98.8398 31.604C98.2638 31.976 97.5858 32.162 96.8058 32.162ZM96.4998 30.992C97.0518 30.992 97.5258 30.86 97.9218 30.596C98.3298 30.332 98.6418 29.948 98.8578 29.444C99.0858 28.94 99.1998 28.334 99.1998 27.626C99.1998 26.534 98.9538 25.7 98.4618 25.124C97.9818 24.548 97.3278 24.26 96.4998 24.26C95.9598 24.26 95.4858 24.392 95.0778 24.656C94.6698 24.908 94.3518 25.286 94.1238 25.79C93.9078 26.282 93.7998 26.894 93.7998 27.626C93.7998 28.706 94.0458 29.54 94.5378 30.128C95.0298 30.704 95.6838 30.992 96.4998 30.992ZM105.536 32.162C104.672 32.162 104.012 31.898 103.556 31.37C103.1 30.842 102.872 30.086 102.872 29.102V19.922C102.872 19.682 102.932 19.502 103.052 19.382C103.172 19.25 103.352 19.184 103.592 19.184C103.82 19.184 104 19.25 104.132 19.382C104.264 19.502 104.33 19.682 104.33 19.922V28.994C104.33 29.642 104.456 30.128 104.708 30.452C104.972 30.764 105.356 30.92 105.86 30.92C105.968 30.92 106.064 30.914 106.148 30.902C106.232 30.89 106.316 30.884 106.4 30.884C106.532 30.872 106.622 30.902 106.67 30.974C106.73 31.046 106.76 31.19 106.76 31.406C106.76 31.622 106.712 31.784 106.616 31.892C106.52 32 106.364 32.072 106.148 32.108C106.052 32.12 105.95 32.132 105.842 32.144C105.734 32.156 105.632 32.162 105.536 32.162ZM112.052 32.162C111.128 32.162 110.33 31.982 109.658 31.622C108.998 31.25 108.482 30.728 108.11 30.056C107.75 29.384 107.57 28.58 107.57 27.644C107.57 26.732 107.75 25.94 108.11 25.268C108.47 24.584 108.962 24.05 109.586 23.666C110.222 23.282 110.954 23.09 111.782 23.09C112.37 23.09 112.898 23.192 113.366 23.396C113.834 23.588 114.23 23.87 114.554 24.242C114.89 24.614 115.142 25.064 115.31 25.592C115.49 26.12 115.58 26.714 115.58 27.374C115.58 27.566 115.526 27.71 115.418 27.806C115.31 27.89 115.154 27.932 114.95 27.932H108.686V26.978H114.608L114.32 27.212C114.32 26.564 114.224 26.018 114.032 25.574C113.84 25.118 113.558 24.77 113.186 24.53C112.826 24.29 112.37 24.17 111.818 24.17C111.206 24.17 110.684 24.314 110.252 24.602C109.832 24.878 109.514 25.268 109.298 25.772C109.082 26.264 108.974 26.84 108.974 27.5V27.608C108.974 28.712 109.238 29.552 109.766 30.128C110.306 30.704 111.068 30.992 112.052 30.992C112.46 30.992 112.862 30.938 113.258 30.83C113.666 30.722 114.062 30.542 114.446 30.29C114.614 30.182 114.764 30.134 114.896 30.146C115.04 30.146 115.154 30.188 115.238 30.272C115.322 30.344 115.376 30.44 115.4 30.56C115.436 30.668 115.424 30.788 115.364 30.92C115.316 31.052 115.214 31.166 115.058 31.262C114.662 31.55 114.194 31.772 113.654 31.928C113.114 32.084 112.58 32.162 112.052 32.162Z" fill="#38485C"/>
<g clip-path="url(#clip0_3847_9297)">
<path d="M314.12 23.29L318 27.17L321.88 23.29C322.27 22.9 322.9 22.9 323.29 23.29C323.68 23.68 323.68 24.31 323.29 24.7L318.7 29.29C318.31 29.68 317.68 29.68 317.29 29.29L312.7 24.7C312.31 24.31 312.31 23.68 312.7 23.29C313.09 22.91 313.73 22.9 314.12 23.29Z" fill="#38485C"/>
</g>
<rect x="1" y="1" width="342" height="50" rx="9" stroke="#E6EBF0" stroke-width="2"/>
<defs>
<clipPath id="clip0_3847_9297">
<rect width="24" height="24" fill="white" transform="translate(306 14)"/>
</clipPath>
</defs>
</svg>
