<svg width="344" height="52" viewBox="0 0 344 52" fill="none" xmlns="http://www.w3.org/2000/svg">
<rect x="1" y="1" width="342" height="50" rx="9" fill="white"/>
<path d="M26 26C28.21 26 30 24.21 30 22C30 19.79 28.21 18 26 18C23.79 18 22 19.79 22 22C22 24.21 23.79 26 26 26ZM26 28C23.33 28 18 29.34 18 32V34H34V32C34 29.34 28.67 28 26 28Z" fill="#38485C"/>
<path d="M44.376 32C44.112 32 43.908 31.934 43.764 31.802C43.632 31.658 43.566 31.454 43.566 31.19V20.12C43.566 19.856 43.632 19.658 43.764 19.526C43.908 19.382 44.112 19.31 44.376 19.31H47.85C49.902 19.31 51.486 19.85 52.602 20.93C53.718 22.01 54.276 23.582 54.276 25.646C54.276 26.678 54.132 27.59 53.844 28.382C53.568 29.162 53.154 29.822 52.602 30.362C52.05 30.902 51.378 31.31 50.586 31.586C49.794 31.862 48.882 32 47.85 32H44.376ZM45.042 30.74H47.742C48.582 30.74 49.308 30.632 49.92 30.416C50.544 30.2 51.06 29.882 51.468 29.462C51.888 29.042 52.2 28.514 52.404 27.878C52.608 27.23 52.71 26.486 52.71 25.646C52.71 23.954 52.296 22.688 51.468 21.848C50.64 20.996 49.398 20.57 47.742 20.57H45.042V30.74ZM60.6694 32.162C59.7454 32.162 58.9474 31.982 58.2754 31.622C57.6154 31.25 57.0994 30.728 56.7274 30.056C56.3674 29.384 56.1874 28.58 56.1874 27.644C56.1874 26.732 56.3674 25.94 56.7274 25.268C57.0874 24.584 57.5794 24.05 58.2034 23.666C58.8394 23.282 59.5714 23.09 60.3994 23.09C60.9874 23.09 61.5154 23.192 61.9834 23.396C62.4514 23.588 62.8474 23.87 63.1714 24.242C63.5074 24.614 63.7594 25.064 63.9274 25.592C64.1074 26.12 64.1974 26.714 64.1974 27.374C64.1974 27.566 64.1434 27.71 64.0354 27.806C63.9274 27.89 63.7714 27.932 63.5674 27.932H57.3034V26.978H63.2254L62.9374 27.212C62.9374 26.564 62.8414 26.018 62.6494 25.574C62.4574 25.118 62.1754 24.77 61.8034 24.53C61.4434 24.29 60.9874 24.17 60.4354 24.17C59.8234 24.17 59.3014 24.314 58.8694 24.602C58.4494 24.878 58.1314 25.268 57.9154 25.772C57.6994 26.264 57.5914 26.84 57.5914 27.5V27.608C57.5914 28.712 57.8554 29.552 58.3834 30.128C58.9234 30.704 59.6854 30.992 60.6694 30.992C61.0774 30.992 61.4794 30.938 61.8754 30.83C62.2834 30.722 62.6794 30.542 63.0634 30.29C63.2314 30.182 63.3814 30.134 63.5134 30.146C63.6574 30.146 63.7714 30.188 63.8554 30.272C63.9394 30.344 63.9934 30.44 64.0174 30.56C64.0534 30.668 64.0414 30.788 63.9814 30.92C63.9334 31.052 63.8314 31.166 63.6754 31.262C63.2794 31.55 62.8114 31.772 62.2714 31.928C61.7314 32.084 61.1974 32.162 60.6694 32.162ZM69.2595 32.162C68.7195 32.162 68.1735 32.096 67.6215 31.964C67.0815 31.832 66.5775 31.604 66.1095 31.28C65.9895 31.196 65.9055 31.1 65.8575 30.992C65.8095 30.872 65.7915 30.758 65.8035 30.65C65.8275 30.53 65.8755 30.428 65.9475 30.344C66.0315 30.26 66.1275 30.212 66.2355 30.2C66.3555 30.176 66.4875 30.2 66.6315 30.272C67.0995 30.56 67.5495 30.764 67.9815 30.884C68.4255 30.992 68.8635 31.046 69.2955 31.046C69.9795 31.046 70.4955 30.92 70.8435 30.668C71.1915 30.416 71.3655 30.074 71.3655 29.642C71.3655 29.306 71.2515 29.042 71.0235 28.85C70.7955 28.646 70.4355 28.49 69.9435 28.382L68.3055 28.022C67.5495 27.866 66.9855 27.596 66.6135 27.212C66.2535 26.828 66.0735 26.33 66.0735 25.718C66.0735 25.178 66.2115 24.716 66.4875 24.332C66.7755 23.936 67.1775 23.63 67.6935 23.414C68.2095 23.198 68.8095 23.09 69.4935 23.09C70.0215 23.09 70.5195 23.162 70.9875 23.306C71.4675 23.438 71.8995 23.654 72.2835 23.954C72.4035 24.038 72.4815 24.14 72.5175 24.26C72.5655 24.368 72.5715 24.482 72.5355 24.602C72.5115 24.71 72.4575 24.806 72.3735 24.89C72.2895 24.962 72.1875 25.004 72.0675 25.016C71.9475 25.028 71.8215 24.992 71.6895 24.908C71.3295 24.668 70.9635 24.494 70.5915 24.386C70.2195 24.266 69.8535 24.206 69.4935 24.206C68.8215 24.206 68.3115 24.338 67.9635 24.602C67.6155 24.866 67.4415 25.214 67.4415 25.646C67.4415 25.982 67.5495 26.258 67.7655 26.474C67.9815 26.69 68.3175 26.846 68.7735 26.942L70.4115 27.284C71.1915 27.452 71.7735 27.722 72.1575 28.094C72.5535 28.454 72.7515 28.946 72.7515 29.57C72.7515 30.362 72.4335 30.992 71.7975 31.46C71.1615 31.928 70.3155 32.162 69.2595 32.162ZM75.6935 35.366C75.4535 35.366 75.2735 35.3 75.1535 35.168C75.0335 35.048 74.9735 34.868 74.9735 34.628V23.864C74.9735 23.624 75.0335 23.444 75.1535 23.324C75.2735 23.192 75.4475 23.126 75.6755 23.126C75.9155 23.126 76.0955 23.192 76.2155 23.324C76.3475 23.444 76.4135 23.624 76.4135 23.864V25.574L76.2155 25.322C76.4075 24.638 76.7855 24.098 77.3495 23.702C77.9255 23.294 78.6095 23.09 79.4015 23.09C80.1815 23.09 80.8595 23.276 81.4355 23.648C82.0235 24.008 82.4735 24.53 82.7855 25.214C83.1095 25.886 83.2715 26.69 83.2715 27.626C83.2715 28.55 83.1095 29.354 82.7855 30.038C82.4735 30.71 82.0295 31.232 81.4535 31.604C80.8775 31.976 80.1935 32.162 79.4015 32.162C78.6095 32.162 77.9315 31.964 77.3675 31.568C76.8035 31.16 76.4195 30.62 76.2155 29.948H76.4315V34.628C76.4315 34.868 76.3655 35.048 76.2335 35.168C76.1015 35.3 75.9215 35.366 75.6935 35.366ZM79.0955 30.992C79.6475 30.992 80.1215 30.86 80.5175 30.596C80.9255 30.332 81.2375 29.948 81.4535 29.444C81.6815 28.94 81.7955 28.334 81.7955 27.626C81.7955 26.534 81.5495 25.7 81.0575 25.124C80.5775 24.548 79.9235 24.26 79.0955 24.26C78.5555 24.26 78.0815 24.392 77.6735 24.656C77.2655 24.908 76.9475 25.286 76.7195 25.79C76.5035 26.282 76.3955 26.894 76.3955 27.626C76.3955 28.706 76.6415 29.54 77.1335 30.128C77.6255 30.704 78.2795 30.992 79.0955 30.992ZM88.1316 32.162C87.2676 32.162 86.6076 31.898 86.1516 31.37C85.6956 30.842 85.4676 30.086 85.4676 29.102V19.922C85.4676 19.682 85.5276 19.502 85.6476 19.382C85.7676 19.25 85.9476 19.184 86.1876 19.184C86.4156 19.184 86.5956 19.25 86.7276 19.382C86.8596 19.502 86.9256 19.682 86.9256 19.922V28.994C86.9256 29.642 87.0516 30.128 87.3036 30.452C87.5676 30.764 87.9516 30.92 88.4556 30.92C88.5636 30.92 88.6596 30.914 88.7436 30.902C88.8276 30.89 88.9116 30.884 88.9956 30.884C89.1276 30.872 89.2176 30.902 89.2656 30.974C89.3256 31.046 89.3556 31.19 89.3556 31.406C89.3556 31.622 89.3076 31.784 89.2116 31.892C89.1156 32 88.9596 32.072 88.7436 32.108C88.6476 32.12 88.5456 32.132 88.4376 32.144C88.3296 32.156 88.2276 32.162 88.1316 32.162ZM94.6479 32.162C93.7239 32.162 92.9259 31.982 92.2539 31.622C91.5939 31.25 91.0779 30.728 90.7059 30.056C90.3459 29.384 90.1659 28.58 90.1659 27.644C90.1659 26.732 90.3459 25.94 90.7059 25.268C91.0659 24.584 91.5579 24.05 92.1819 23.666C92.8179 23.282 93.5499 23.09 94.3779 23.09C94.9659 23.09 95.4939 23.192 95.9619 23.396C96.4299 23.588 96.8259 23.87 97.1499 24.242C97.4859 24.614 97.7379 25.064 97.9059 25.592C98.0859 26.12 98.1759 26.714 98.1759 27.374C98.1759 27.566 98.1219 27.71 98.0139 27.806C97.9059 27.89 97.7499 27.932 97.5459 27.932H91.2819V26.978H97.2039L96.9159 27.212C96.9159 26.564 96.8199 26.018 96.6279 25.574C96.4359 25.118 96.1539 24.77 95.7819 24.53C95.4219 24.29 94.9659 24.17 94.4139 24.17C93.8019 24.17 93.2799 24.314 92.8479 24.602C92.4279 24.878 92.1099 25.268 91.8939 25.772C91.6779 26.264 91.5699 26.84 91.5699 27.5V27.608C91.5699 28.712 91.8339 29.552 92.3619 30.128C92.9019 30.704 93.6639 30.992 94.6479 30.992C95.0559 30.992 95.4579 30.938 95.8539 30.83C96.2619 30.722 96.6579 30.542 97.0419 30.29C97.2099 30.182 97.3599 30.134 97.4919 30.146C97.6359 30.146 97.7499 30.188 97.8339 30.272C97.9179 30.344 97.9719 30.44 97.9959 30.56C98.0319 30.668 98.0199 30.788 97.9599 30.92C97.9119 31.052 97.8099 31.166 97.6539 31.262C97.2579 31.55 96.7899 31.772 96.2499 31.928C95.7099 32.084 95.1759 32.162 94.6479 32.162ZM104.156 35.402C103.52 35.402 102.896 35.324 102.284 35.168C101.684 35.024 101.138 34.79 100.646 34.466C100.502 34.382 100.406 34.28 100.358 34.16C100.322 34.04 100.316 33.92 100.34 33.8C100.364 33.692 100.418 33.59 100.502 33.494C100.586 33.41 100.682 33.356 100.79 33.332C100.91 33.308 101.03 33.326 101.15 33.386C101.678 33.71 102.182 33.932 102.662 34.052C103.142 34.172 103.616 34.232 104.084 34.232C104.936 34.232 105.578 34.004 106.01 33.548C106.454 33.092 106.676 32.432 106.676 31.568V29.534H106.856C106.676 30.23 106.292 30.782 105.704 31.19C105.128 31.598 104.45 31.802 103.67 31.802C102.866 31.802 102.17 31.622 101.582 31.262C100.994 30.89 100.538 30.374 100.214 29.714C99.902 29.054 99.746 28.292 99.746 27.428C99.746 26.78 99.836 26.192 100.016 25.664C100.196 25.124 100.454 24.668 100.79 24.296C101.138 23.912 101.552 23.618 102.032 23.414C102.524 23.198 103.07 23.09 103.67 23.09C104.462 23.09 105.146 23.294 105.722 23.702C106.298 24.098 106.67 24.638 106.838 25.322L106.658 25.538V23.864C106.658 23.624 106.718 23.444 106.838 23.324C106.97 23.192 107.15 23.126 107.378 23.126C107.618 23.126 107.798 23.192 107.918 23.324C108.038 23.444 108.098 23.624 108.098 23.864V31.37C108.098 32.702 107.762 33.704 107.09 34.376C106.43 35.06 105.452 35.402 104.156 35.402ZM103.94 30.614C104.504 30.614 104.99 30.488 105.398 30.236C105.806 29.972 106.118 29.6 106.334 29.12C106.562 28.64 106.676 28.076 106.676 27.428C106.676 26.456 106.43 25.688 105.938 25.124C105.446 24.548 104.78 24.26 103.94 24.26C103.388 24.26 102.908 24.392 102.5 24.656C102.092 24.908 101.774 25.274 101.546 25.754C101.33 26.222 101.222 26.78 101.222 27.428C101.222 28.4 101.468 29.174 101.96 29.75C102.452 30.326 103.112 30.614 103.94 30.614ZM113.587 32.162C112.987 32.162 112.447 32.048 111.967 31.82C111.499 31.58 111.127 31.256 110.851 30.848C110.575 30.44 110.437 29.984 110.437 29.48C110.437 28.832 110.599 28.322 110.923 27.95C111.259 27.578 111.805 27.314 112.561 27.158C113.329 27.002 114.373 26.924 115.693 26.924H116.503V27.878H115.711C114.739 27.878 113.971 27.926 113.407 28.022C112.855 28.106 112.465 28.256 112.237 28.472C112.021 28.688 111.913 28.994 111.913 29.39C111.913 29.882 112.081 30.284 112.417 30.596C112.765 30.908 113.233 31.064 113.821 31.064C114.301 31.064 114.721 30.95 115.081 30.722C115.453 30.494 115.741 30.182 115.945 29.786C116.161 29.39 116.269 28.934 116.269 28.418V26.366C116.269 25.622 116.119 25.088 115.819 24.764C115.519 24.428 115.027 24.26 114.343 24.26C113.923 24.26 113.503 24.314 113.083 24.422C112.663 24.53 112.219 24.704 111.751 24.944C111.583 25.028 111.439 25.058 111.319 25.034C111.199 24.998 111.103 24.932 111.031 24.836C110.959 24.74 110.917 24.632 110.905 24.512C110.893 24.38 110.917 24.254 110.977 24.134C111.049 24.014 111.157 23.918 111.301 23.846C111.829 23.582 112.351 23.39 112.867 23.27C113.383 23.15 113.875 23.09 114.343 23.09C115.099 23.09 115.723 23.216 116.215 23.468C116.707 23.708 117.073 24.08 117.313 24.584C117.553 25.076 117.673 25.712 117.673 26.492V31.37C117.673 31.61 117.613 31.796 117.493 31.928C117.385 32.06 117.223 32.126 117.007 32.126C116.779 32.126 116.605 32.06 116.485 31.928C116.365 31.796 116.305 31.61 116.305 31.37V29.966H116.467C116.371 30.422 116.185 30.812 115.909 31.136C115.645 31.46 115.315 31.712 114.919 31.892C114.523 32.072 114.079 32.162 113.587 32.162ZM124.806 32.162C124.014 32.162 123.33 31.958 122.754 31.55C122.19 31.142 121.812 30.596 121.62 29.912L121.818 29.714V31.37C121.818 31.61 121.752 31.796 121.62 31.928C121.5 32.06 121.326 32.126 121.098 32.126C120.858 32.126 120.678 32.06 120.558 31.928C120.438 31.796 120.378 31.61 120.378 31.37V19.922C120.378 19.682 120.438 19.502 120.558 19.382C120.678 19.25 120.858 19.184 121.098 19.184C121.326 19.184 121.506 19.25 121.638 19.382C121.77 19.502 121.836 19.682 121.836 19.922V25.286H121.62C121.824 24.614 122.208 24.08 122.772 23.684C123.336 23.288 124.014 23.09 124.806 23.09C125.598 23.09 126.282 23.276 126.858 23.648C127.434 24.008 127.878 24.53 128.19 25.214C128.514 25.886 128.676 26.69 128.676 27.626C128.676 28.55 128.514 29.354 128.19 30.038C127.878 30.71 127.428 31.232 126.84 31.604C126.264 31.976 125.586 32.162 124.806 32.162ZM124.5 30.992C125.052 30.992 125.526 30.86 125.922 30.596C126.33 30.332 126.642 29.948 126.858 29.444C127.086 28.94 127.2 28.334 127.2 27.626C127.2 26.534 126.954 25.7 126.462 25.124C125.982 24.548 125.328 24.26 124.5 24.26C123.96 24.26 123.486 24.392 123.078 24.656C122.67 24.908 122.352 25.286 122.124 25.79C121.908 26.282 121.8 26.894 121.8 27.626C121.8 28.706 122.046 29.54 122.538 30.128C123.03 30.704 123.684 30.992 124.5 30.992ZM133.536 32.162C132.672 32.162 132.012 31.898 131.556 31.37C131.1 30.842 130.872 30.086 130.872 29.102V19.922C130.872 19.682 130.932 19.502 131.052 19.382C131.172 19.25 131.352 19.184 131.592 19.184C131.82 19.184 132 19.25 132.132 19.382C132.264 19.502 132.33 19.682 132.33 19.922V28.994C132.33 29.642 132.456 30.128 132.708 30.452C132.972 30.764 133.356 30.92 133.86 30.92C133.968 30.92 134.064 30.914 134.148 30.902C134.232 30.89 134.316 30.884 134.4 30.884C134.532 30.872 134.622 30.902 134.67 30.974C134.73 31.046 134.76 31.19 134.76 31.406C134.76 31.622 134.712 31.784 134.616 31.892C134.52 32 134.364 32.072 134.148 32.108C134.052 32.12 133.95 32.132 133.842 32.144C133.734 32.156 133.632 32.162 133.536 32.162ZM140.052 32.162C139.128 32.162 138.33 31.982 137.658 31.622C136.998 31.25 136.482 30.728 136.11 30.056C135.75 29.384 135.57 28.58 135.57 27.644C135.57 26.732 135.75 25.94 136.11 25.268C136.47 24.584 136.962 24.05 137.586 23.666C138.222 23.282 138.954 23.09 139.782 23.09C140.37 23.09 140.898 23.192 141.366 23.396C141.834 23.588 142.23 23.87 142.554 24.242C142.89 24.614 143.142 25.064 143.31 25.592C143.49 26.12 143.58 26.714 143.58 27.374C143.58 27.566 143.526 27.71 143.418 27.806C143.31 27.89 143.154 27.932 142.95 27.932H136.686V26.978H142.608L142.32 27.212C142.32 26.564 142.224 26.018 142.032 25.574C141.84 25.118 141.558 24.77 141.186 24.53C140.826 24.29 140.37 24.17 139.818 24.17C139.206 24.17 138.684 24.314 138.252 24.602C137.832 24.878 137.514 25.268 137.298 25.772C137.082 26.264 136.974 26.84 136.974 27.5V27.608C136.974 28.712 137.238 29.552 137.766 30.128C138.306 30.704 139.068 30.992 140.052 30.992C140.46 30.992 140.862 30.938 141.258 30.83C141.666 30.722 142.062 30.542 142.446 30.29C142.614 30.182 142.764 30.134 142.896 30.146C143.04 30.146 143.154 30.188 143.238 30.272C143.322 30.344 143.376 30.44 143.4 30.56C143.436 30.668 143.424 30.788 143.364 30.92C143.316 31.052 143.214 31.166 143.058 31.262C142.662 31.55 142.194 31.772 141.654 31.928C141.114 32.084 140.58 32.162 140.052 32.162Z" fill="#38485C"/>
<g clip-path="url(#clip0_3847_9353)">
<path d="M314.12 23.29L318 27.17L321.88 23.29C322.27 22.9 322.9 22.9 323.29 23.29C323.68 23.68 323.68 24.31 323.29 24.7L318.7 29.29C318.31 29.68 317.68 29.68 317.29 29.29L312.7 24.7C312.31 24.31 312.31 23.68 312.7 23.29C313.09 22.91 313.73 22.9 314.12 23.29V23.29Z" fill="#38485C"/>
</g>
<rect x="1" y="1" width="342" height="50" rx="9" stroke="#E6EBF0" stroke-width="2"/>
<defs>
<clipPath id="clip0_3847_9353">
<rect width="24" height="24" fill="white" transform="translate(306 14)"/>
</clipPath>
</defs>
</svg>
