<svg width="344" height="213" viewBox="0 0 344 213" fill="none" xmlns="http://www.w3.org/2000/svg">
<rect x="1" y="1" width="342" height="50" rx="9" fill="#007BC7"/>
<path d="M16.286 32.126C16.07 32.126 15.902 32.066 15.782 31.946C15.662 31.814 15.602 31.634 15.602 31.406V19.904C15.602 19.664 15.662 19.484 15.782 19.364C15.902 19.244 16.07 19.184 16.286 19.184C16.478 19.184 16.628 19.226 16.736 19.31C16.856 19.382 16.964 19.508 17.06 19.688L21.992 28.976H21.452L26.366 19.688C26.462 19.508 26.564 19.382 26.672 19.31C26.78 19.226 26.936 19.184 27.14 19.184C27.344 19.184 27.506 19.244 27.626 19.364C27.746 19.484 27.806 19.664 27.806 19.904V31.406C27.806 31.634 27.746 31.814 27.626 31.946C27.518 32.066 27.35 32.126 27.122 32.126C26.906 32.126 26.738 32.066 26.618 31.946C26.498 31.814 26.438 31.634 26.438 31.406V21.29H26.87L22.37 29.732C22.286 29.888 22.196 30.002 22.1 30.074C22.016 30.134 21.89 30.164 21.722 30.164C21.554 30.164 21.422 30.128 21.326 30.056C21.23 29.984 21.146 29.876 21.074 29.732L16.52 21.272H16.952V31.406C16.952 31.634 16.892 31.814 16.772 31.946C16.664 32.066 16.502 32.126 16.286 32.126ZM34.4024 32.162C33.5504 32.162 32.8124 31.976 32.1884 31.604C31.5644 31.232 31.0784 30.71 30.7304 30.038C30.3944 29.354 30.2264 28.55 30.2264 27.626C30.2264 26.93 30.3224 26.306 30.5144 25.754C30.7064 25.19 30.9884 24.71 31.3604 24.314C31.7324 23.918 32.1704 23.618 32.6744 23.414C33.1904 23.198 33.7664 23.09 34.4024 23.09C35.2544 23.09 35.9924 23.276 36.6164 23.648C37.2404 24.02 37.7204 24.548 38.0564 25.232C38.4044 25.904 38.5784 26.702 38.5784 27.626C38.5784 28.322 38.4824 28.946 38.2904 29.498C38.0984 30.05 37.8164 30.53 37.4444 30.938C37.0724 31.334 36.6284 31.64 36.1124 31.856C35.6084 32.06 35.0384 32.162 34.4024 32.162ZM34.4024 30.992C34.9424 30.992 35.4164 30.86 35.8244 30.596C36.2324 30.332 36.5444 29.948 36.7604 29.444C36.9884 28.94 37.1024 28.334 37.1024 27.626C37.1024 26.534 36.8564 25.7 36.3644 25.124C35.8844 24.548 35.2304 24.26 34.4024 24.26C33.8504 24.26 33.3704 24.392 32.9624 24.656C32.5664 24.908 32.2544 25.286 32.0264 25.79C31.8104 26.282 31.7024 26.894 31.7024 27.626C31.7024 28.706 31.9484 29.54 32.4404 30.128C32.9324 30.704 33.5864 30.992 34.4024 30.992ZM44.0984 32.162C43.3184 32.162 42.6344 31.976 42.0464 31.604C41.4704 31.232 41.0204 30.71 40.6964 30.038C40.3844 29.354 40.2284 28.55 40.2284 27.626C40.2284 26.69 40.3844 25.886 40.6964 25.214C41.0204 24.53 41.4704 24.008 42.0464 23.648C42.6344 23.276 43.3184 23.09 44.0984 23.09C44.8904 23.09 45.5684 23.288 46.1324 23.684C46.6964 24.08 47.0744 24.614 47.2664 25.286H47.0684V19.922C47.0684 19.682 47.1284 19.502 47.2484 19.382C47.3804 19.25 47.5664 19.184 47.8064 19.184C48.0344 19.184 48.2084 19.25 48.3284 19.382C48.4604 19.502 48.5264 19.682 48.5264 19.922V31.37C48.5264 31.61 48.4664 31.796 48.3464 31.928C48.2264 32.06 48.0464 32.126 47.8064 32.126C47.5784 32.126 47.3984 32.06 47.2664 31.928C47.1464 31.796 47.0864 31.61 47.0864 31.37V29.66L47.2844 29.912C47.0924 30.596 46.7084 31.142 46.1324 31.55C45.5684 31.958 44.8904 32.162 44.0984 32.162ZM44.4044 30.992C44.9444 30.992 45.4184 30.86 45.8264 30.596C46.2344 30.332 46.5464 29.948 46.7624 29.444C46.9904 28.94 47.1044 28.334 47.1044 27.626C47.1044 26.534 46.8584 25.7 46.3664 25.124C45.8864 24.548 45.2324 24.26 44.4044 24.26C43.8524 24.26 43.3724 24.392 42.9644 24.656C42.5684 24.908 42.2564 25.286 42.0284 25.79C41.8124 26.282 41.7044 26.894 41.7044 27.626C41.7044 28.706 41.9504 29.54 42.4424 30.128C42.9344 30.704 43.5884 30.992 44.4044 30.992ZM54.0165 32.162C53.4165 32.162 52.8765 32.048 52.3965 31.82C51.9285 31.58 51.5565 31.256 51.2805 30.848C51.0045 30.44 50.8665 29.984 50.8665 29.48C50.8665 28.832 51.0285 28.322 51.3525 27.95C51.6885 27.578 52.2345 27.314 52.9905 27.158C53.7585 27.002 54.8025 26.924 56.1225 26.924H56.9325V27.878H56.1405C55.1685 27.878 54.4005 27.926 53.8365 28.022C53.2845 28.106 52.8945 28.256 52.6665 28.472C52.4505 28.688 52.3425 28.994 52.3425 29.39C52.3425 29.882 52.5105 30.284 52.8465 30.596C53.1945 30.908 53.6625 31.064 54.2505 31.064C54.7305 31.064 55.1505 30.95 55.5105 30.722C55.8825 30.494 56.1705 30.182 56.3745 29.786C56.5905 29.39 56.6985 28.934 56.6985 28.418V26.366C56.6985 25.622 56.5485 25.088 56.2485 24.764C55.9485 24.428 55.4565 24.26 54.7725 24.26C54.3525 24.26 53.9325 24.314 53.5125 24.422C53.0925 24.53 52.6485 24.704 52.1805 24.944C52.0125 25.028 51.8685 25.058 51.7485 25.034C51.6285 24.998 51.5325 24.932 51.4605 24.836C51.3885 24.74 51.3465 24.632 51.3345 24.512C51.3225 24.38 51.3465 24.254 51.4065 24.134C51.4785 24.014 51.5865 23.918 51.7305 23.846C52.2585 23.582 52.7805 23.39 53.2965 23.27C53.8125 23.15 54.3045 23.09 54.7725 23.09C55.5285 23.09 56.1525 23.216 56.6445 23.468C57.1365 23.708 57.5025 24.08 57.7425 24.584C57.9825 25.076 58.1025 25.712 58.1025 26.492V31.37C58.1025 31.61 58.0425 31.796 57.9225 31.928C57.8145 32.06 57.6525 32.126 57.4365 32.126C57.2085 32.126 57.0345 32.06 56.9145 31.928C56.7945 31.796 56.7345 31.61 56.7345 31.37V29.966H56.8965C56.8005 30.422 56.6145 30.812 56.3385 31.136C56.0745 31.46 55.7445 31.712 55.3485 31.892C54.9525 32.072 54.5085 32.162 54.0165 32.162ZM63.4715 32.162C62.6075 32.162 61.9475 31.898 61.4915 31.37C61.0355 30.842 60.8075 30.086 60.8075 29.102V19.922C60.8075 19.682 60.8675 19.502 60.9875 19.382C61.1075 19.25 61.2875 19.184 61.5275 19.184C61.7555 19.184 61.9355 19.25 62.0675 19.382C62.1995 19.502 62.2655 19.682 62.2655 19.922V28.994C62.2655 29.642 62.3915 30.128 62.6435 30.452C62.9075 30.764 63.2915 30.92 63.7955 30.92C63.9035 30.92 63.9995 30.914 64.0835 30.902C64.1675 30.89 64.2515 30.884 64.3355 30.884C64.4675 30.872 64.5575 30.902 64.6055 30.974C64.6655 31.046 64.6955 31.19 64.6955 31.406C64.6955 31.622 64.6475 31.784 64.5515 31.892C64.4555 32 64.2995 32.072 64.0835 32.108C63.9875 32.12 63.8855 32.132 63.7775 32.144C63.6695 32.156 63.5675 32.162 63.4715 32.162ZM66.8536 32.09C66.6136 32.09 66.4336 32.024 66.3136 31.892C66.1936 31.748 66.1336 31.55 66.1336 31.298V23.936C66.1336 23.684 66.1936 23.492 66.3136 23.36C66.4336 23.228 66.6136 23.162 66.8536 23.162C67.0816 23.162 67.2616 23.228 67.3936 23.36C67.5256 23.492 67.5916 23.684 67.5916 23.936V31.298C67.5916 31.55 67.5256 31.748 67.3936 31.892C67.2736 32.024 67.0936 32.09 66.8536 32.09ZM66.8536 21.146C66.5536 21.146 66.3196 21.068 66.1516 20.912C65.9836 20.744 65.8996 20.522 65.8996 20.246C65.8996 19.958 65.9836 19.742 66.1516 19.598C66.3196 19.442 66.5536 19.364 66.8536 19.364C67.1656 19.364 67.3996 19.442 67.5556 19.598C67.7236 19.742 67.8076 19.958 67.8076 20.246C67.8076 20.522 67.7236 20.744 67.5556 20.912C67.3996 21.068 67.1656 21.146 66.8536 21.146ZM73.6472 32.162C72.8672 32.162 72.1832 31.976 71.5952 31.604C71.0192 31.232 70.5692 30.71 70.2452 30.038C69.9332 29.354 69.7772 28.55 69.7772 27.626C69.7772 26.69 69.9332 25.886 70.2452 25.214C70.5692 24.53 71.0192 24.008 71.5952 23.648C72.1832 23.276 72.8672 23.09 73.6472 23.09C74.4392 23.09 75.1172 23.288 75.6812 23.684C76.2452 24.08 76.6232 24.614 76.8152 25.286H76.6172V19.922C76.6172 19.682 76.6772 19.502 76.7972 19.382C76.9292 19.25 77.1152 19.184 77.3552 19.184C77.5832 19.184 77.7572 19.25 77.8772 19.382C78.0092 19.502 78.0752 19.682 78.0752 19.922V31.37C78.0752 31.61 78.0152 31.796 77.8952 31.928C77.7752 32.06 77.5952 32.126 77.3552 32.126C77.1272 32.126 76.9472 32.06 76.8152 31.928C76.6952 31.796 76.6352 31.61 76.6352 31.37V29.66L76.8332 29.912C76.6412 30.596 76.2572 31.142 75.6812 31.55C75.1172 31.958 74.4392 32.162 73.6472 32.162ZM73.9532 30.992C74.4932 30.992 74.9672 30.86 75.3752 30.596C75.7832 30.332 76.0952 29.948 76.3112 29.444C76.5392 28.94 76.6532 28.334 76.6532 27.626C76.6532 26.534 76.4072 25.7 75.9152 25.124C75.4352 24.548 74.7812 24.26 73.9532 24.26C73.4012 24.26 72.9212 24.392 72.5132 24.656C72.1172 24.908 71.8052 25.286 71.5772 25.79C71.3612 26.282 71.2532 26.894 71.2532 27.626C71.2532 28.706 71.4992 29.54 71.9912 30.128C72.4832 30.704 73.1372 30.992 73.9532 30.992ZM83.5654 32.162C82.9654 32.162 82.4254 32.048 81.9454 31.82C81.4774 31.58 81.1054 31.256 80.8294 30.848C80.5534 30.44 80.4154 29.984 80.4154 29.48C80.4154 28.832 80.5774 28.322 80.9014 27.95C81.2374 27.578 81.7834 27.314 82.5394 27.158C83.3074 27.002 84.3514 26.924 85.6714 26.924H86.4814V27.878H85.6894C84.7174 27.878 83.9494 27.926 83.3854 28.022C82.8334 28.106 82.4434 28.256 82.2154 28.472C81.9994 28.688 81.8914 28.994 81.8914 29.39C81.8914 29.882 82.0594 30.284 82.3954 30.596C82.7434 30.908 83.2114 31.064 83.7994 31.064C84.2794 31.064 84.6994 30.95 85.0594 30.722C85.4314 30.494 85.7194 30.182 85.9234 29.786C86.1394 29.39 86.2474 28.934 86.2474 28.418V26.366C86.2474 25.622 86.0974 25.088 85.7974 24.764C85.4974 24.428 85.0054 24.26 84.3214 24.26C83.9014 24.26 83.4814 24.314 83.0614 24.422C82.6414 24.53 82.1974 24.704 81.7294 24.944C81.5614 25.028 81.4174 25.058 81.2974 25.034C81.1774 24.998 81.0814 24.932 81.0094 24.836C80.9374 24.74 80.8954 24.632 80.8834 24.512C80.8714 24.38 80.8954 24.254 80.9554 24.134C81.0274 24.014 81.1354 23.918 81.2794 23.846C81.8074 23.582 82.3294 23.39 82.8454 23.27C83.3614 23.15 83.8534 23.09 84.3214 23.09C85.0774 23.09 85.7014 23.216 86.1934 23.468C86.6854 23.708 87.0514 24.08 87.2914 24.584C87.5314 25.076 87.6514 25.712 87.6514 26.492V31.37C87.6514 31.61 87.5914 31.796 87.4714 31.928C87.3634 32.06 87.2014 32.126 86.9854 32.126C86.7574 32.126 86.5834 32.06 86.4634 31.928C86.3434 31.796 86.2834 31.61 86.2834 31.37V29.966H86.4454C86.3494 30.422 86.1634 30.812 85.8874 31.136C85.6234 31.46 85.2934 31.712 84.8974 31.892C84.5014 32.072 84.0574 32.162 83.5654 32.162ZM93.6863 32.162C92.9063 32.162 92.2223 31.976 91.6343 31.604C91.0583 31.232 90.6083 30.71 90.2843 30.038C89.9723 29.354 89.8163 28.55 89.8163 27.626C89.8163 26.69 89.9723 25.886 90.2843 25.214C90.6083 24.53 91.0583 24.008 91.6343 23.648C92.2223 23.276 92.9063 23.09 93.6863 23.09C94.4783 23.09 95.1563 23.288 95.7203 23.684C96.2843 24.08 96.6623 24.614 96.8543 25.286H96.6563V19.922C96.6563 19.682 96.7163 19.502 96.8363 19.382C96.9683 19.25 97.1543 19.184 97.3943 19.184C97.6223 19.184 97.7963 19.25 97.9163 19.382C98.0483 19.502 98.1143 19.682 98.1143 19.922V31.37C98.1143 31.61 98.0543 31.796 97.9343 31.928C97.8143 32.06 97.6343 32.126 97.3943 32.126C97.1663 32.126 96.9863 32.06 96.8543 31.928C96.7343 31.796 96.6743 31.61 96.6743 31.37V29.66L96.8723 29.912C96.6803 30.596 96.2963 31.142 95.7203 31.55C95.1563 31.958 94.4783 32.162 93.6863 32.162ZM93.9923 30.992C94.5323 30.992 95.0063 30.86 95.4143 30.596C95.8223 30.332 96.1343 29.948 96.3503 29.444C96.5783 28.94 96.6923 28.334 96.6923 27.626C96.6923 26.534 96.4463 25.7 95.9543 25.124C95.4743 24.548 94.8203 24.26 93.9923 24.26C93.4403 24.26 92.9603 24.392 92.5523 24.656C92.1563 24.908 91.8443 25.286 91.6163 25.79C91.4003 26.282 91.2923 26.894 91.2923 27.626C91.2923 28.706 91.5383 29.54 92.0303 30.128C92.5223 30.704 93.1763 30.992 93.9923 30.992Z" fill="white"/>
<g clip-path="url(#clip0_3847_9354)">
<path d="M314.12 23.29L318 27.17L321.88 23.29C322.27 22.9 322.9 22.9 323.29 23.29C323.68 23.68 323.68 24.31 323.29 24.7L318.7 29.29C318.31 29.68 317.68 29.68 317.29 29.29L312.7 24.7C312.31 24.31 312.31 23.68 312.7 23.29C313.09 22.91 313.73 22.9 314.12 23.29Z" fill="white"/>
</g>
<rect x="1" y="1" width="342" height="50" rx="9" stroke="#E6EBF0" stroke-width="2"/>
<rect x="1.5" y="57.5" width="341" height="155" rx="8.5" fill="white"/>
<path d="M2 66C2 61.5817 5.58172 58 10 58H334C338.418 58 342 61.5817 342 66V98C342 102.418 338.418 106 334 106H10C5.58172 106 2 102.418 2 98V66Z" fill="white"/>
<path d="M23.5391 76.5781L19.4375 88H18.1016L14 76.5781H15.3906L18.0625 84.1016C18.1719 84.4036 18.2682 84.6927 18.3516 84.9688C18.4401 85.2448 18.5182 85.5104 18.5859 85.7656C18.6536 86.0208 18.7135 86.2682 18.7656 86.5078C18.8177 86.2682 18.8776 86.0208 18.9453 85.7656C19.013 85.5052 19.0911 85.237 19.1797 84.9609C19.2682 84.6797 19.3672 84.3854 19.4766 84.0781L22.1328 76.5781H23.5391ZM26.2109 79.4375V88H24.9141V79.4375H26.2109ZM25.5781 76.2344C25.7917 76.2344 25.974 76.3047 26.125 76.4453C26.2812 76.5807 26.3594 76.7943 26.3594 77.0859C26.3594 77.3724 26.2812 77.5859 26.125 77.7266C25.974 77.8672 25.7917 77.9375 25.5781 77.9375C25.3542 77.9375 25.1667 77.8672 25.0156 77.7266C24.8698 77.5859 24.7969 77.3724 24.7969 77.0859C24.7969 76.7943 24.8698 76.5807 25.0156 76.4453C25.1667 76.3047 25.3542 76.2344 25.5781 76.2344ZM32.8516 79.2812C33.0234 79.2812 33.2031 79.2917 33.3906 79.3125C33.5781 79.3281 33.7448 79.3516 33.8906 79.3828L33.7266 80.5859C33.5859 80.5495 33.4297 80.5208 33.2578 80.5C33.0859 80.4792 32.9245 80.4688 32.7734 80.4688C32.4297 80.4688 32.1042 80.5391 31.7969 80.6797C31.4948 80.8151 31.2292 81.013 31 81.2734C30.7708 81.5286 30.5911 81.8385 30.4609 82.2031C30.3307 82.5625 30.2656 82.9635 30.2656 83.4062V88H28.9609V79.4375H30.0391L30.1797 81.0156H30.2344C30.4115 80.6979 30.625 80.4089 30.875 80.1484C31.125 79.8828 31.4141 79.6719 31.7422 79.5156C32.0755 79.3594 32.4453 79.2812 32.8516 79.2812ZM38.2734 87.0938C38.487 87.0938 38.7057 87.0755 38.9297 87.0391C39.1536 87.0026 39.3359 86.9583 39.4766 86.9062V87.9141C39.3255 87.9818 39.1146 88.0391 38.8438 88.0859C38.5781 88.1328 38.3177 88.1562 38.0625 88.1562C37.6094 88.1562 37.1979 88.0781 36.8281 87.9219C36.4583 87.7604 36.1615 87.4896 35.9375 87.1094C35.7188 86.7292 35.6094 86.2031 35.6094 85.5312V80.4531H34.3906V79.8203L35.6172 79.3125L36.1328 77.4531H36.9141V79.4375H39.4219V80.4531H36.9141V85.4922C36.9141 86.0286 37.0365 86.4297 37.2812 86.6953C37.5312 86.9609 37.862 87.0938 38.2734 87.0938ZM48.2812 79.4375V88H47.2188L47.0312 86.7969H46.9609C46.7839 87.0938 46.5547 87.3438 46.2734 87.5469C45.9922 87.75 45.6745 87.901 45.3203 88C44.9714 88.1042 44.599 88.1562 44.2031 88.1562C43.526 88.1562 42.9583 88.0469 42.5 87.8281C42.0417 87.6094 41.6953 87.2708 41.4609 86.8125C41.2318 86.3542 41.1172 85.7656 41.1172 85.0469V79.4375H42.4297V84.9531C42.4297 85.6667 42.5911 86.2005 42.9141 86.5547C43.237 86.9036 43.7292 87.0781 44.3906 87.0781C45.026 87.0781 45.5312 86.9583 45.9062 86.7188C46.2865 86.4792 46.5599 86.1276 46.7266 85.6641C46.8932 85.1953 46.9766 84.6224 46.9766 83.9453V79.4375H48.2812ZM54.2266 79.2969C55.2474 79.2969 56.0052 79.526 56.5 79.9844C56.9948 80.4427 57.2422 81.1745 57.2422 82.1797V88H56.2969L56.0469 86.7344H55.9844C55.7448 87.0469 55.4948 87.3099 55.2344 87.5234C54.974 87.7318 54.6719 87.8906 54.3281 88C53.9896 88.1042 53.5729 88.1562 53.0781 88.1562C52.5573 88.1562 52.0938 88.0651 51.6875 87.8828C51.2865 87.7005 50.9688 87.4245 50.7344 87.0547C50.5052 86.6849 50.3906 86.2161 50.3906 85.6484C50.3906 84.7943 50.7292 84.138 51.4062 83.6797C52.0833 83.2214 53.1146 82.9714 54.5 82.9297L55.9766 82.8672V82.3438C55.9766 81.6042 55.8177 81.0859 55.5 80.7891C55.1823 80.4922 54.7344 80.3438 54.1562 80.3438C53.7083 80.3438 53.2812 80.4089 52.875 80.5391C52.4688 80.6693 52.0833 80.8229 51.7188 81L51.3203 80.0156C51.7057 79.8177 52.1484 79.6484 52.6484 79.5078C53.1484 79.3672 53.6745 79.2969 54.2266 79.2969ZM55.9609 83.7812L54.6562 83.8359C53.5885 83.8776 52.8359 84.0521 52.3984 84.3594C51.9609 84.6667 51.7422 85.1016 51.7422 85.6641C51.7422 86.1536 51.8906 86.5156 52.1875 86.75C52.4844 86.9844 52.8776 87.1016 53.3672 87.1016C54.1276 87.1016 54.75 86.8906 55.2344 86.4688C55.7188 86.0469 55.9609 85.4141 55.9609 84.5703V83.7812ZM61.2188 88H59.9141V75.8438H61.2188V88Z" fill="#38485C"/>
<path d="M2 119C2 114.582 5.58172 111 10 111H334C338.418 111 342 114.582 342 119V151C342 155.418 338.418 159 334 159H10C5.58172 159 2 155.418 2 151V119Z" fill="#007BC7"/>
<path d="M18.5469 129.578C20.0208 129.578 21.0964 129.867 21.7734 130.445C22.4557 131.018 22.7969 131.841 22.7969 132.914C22.7969 133.398 22.7161 133.859 22.5547 134.297C22.3984 134.729 22.1432 135.112 21.7891 135.445C21.4349 135.773 20.9688 136.034 20.3906 136.227C19.8177 136.414 19.1146 136.508 18.2812 136.508H16.8906V141H15.5625V129.578H18.5469ZM18.4219 130.711H16.8906V135.367H18.1328C18.862 135.367 19.4688 135.289 19.9531 135.133C20.4427 134.977 20.8099 134.724 21.0547 134.375C21.2995 134.021 21.4219 133.552 21.4219 132.969C21.4219 132.208 21.1797 131.643 20.6953 131.273C20.2109 130.898 19.4531 130.711 18.4219 130.711ZM28.8828 132.281C29.0547 132.281 29.2344 132.292 29.4219 132.312C29.6094 132.328 29.776 132.352 29.9219 132.383L29.7578 133.586C29.6172 133.549 29.4609 133.521 29.2891 133.5C29.1172 133.479 28.9557 133.469 28.8047 133.469C28.4609 133.469 28.1354 133.539 27.8281 133.68C27.526 133.815 27.2604 134.013 27.0312 134.273C26.8021 134.529 26.6224 134.839 26.4922 135.203C26.362 135.562 26.2969 135.964 26.2969 136.406V141H24.9922V132.438H26.0703L26.2109 134.016H26.2656C26.4427 133.698 26.6562 133.409 26.9062 133.148C27.1562 132.883 27.4453 132.672 27.7734 132.516C28.1068 132.359 28.4766 132.281 28.8828 132.281ZM34.8359 132.281C35.5651 132.281 36.1901 132.443 36.7109 132.766C37.2318 133.089 37.6302 133.542 37.9062 134.125C38.1823 134.703 38.3203 135.38 38.3203 136.156V136.961H32.4062C32.4219 137.966 32.6719 138.732 33.1562 139.258C33.6406 139.784 34.3229 140.047 35.2031 140.047C35.7448 140.047 36.224 139.997 36.6406 139.898C37.0573 139.799 37.4896 139.654 37.9375 139.461V140.602C37.5052 140.794 37.0755 140.935 36.6484 141.023C36.2266 141.112 35.7266 141.156 35.1484 141.156C34.3255 141.156 33.6068 140.99 32.9922 140.656C32.3828 140.318 31.9089 139.823 31.5703 139.172C31.2318 138.521 31.0625 137.724 31.0625 136.781C31.0625 135.859 31.2161 135.062 31.5234 134.391C31.8359 133.714 32.2734 133.193 32.8359 132.828C33.4036 132.464 34.0703 132.281 34.8359 132.281ZM34.8203 133.344C34.1276 133.344 33.5755 133.57 33.1641 134.023C32.7526 134.477 32.5078 135.109 32.4297 135.922H36.9609C36.9557 135.411 36.875 134.964 36.7188 134.578C36.5677 134.188 36.3359 133.885 36.0234 133.672C35.7109 133.453 35.3099 133.344 34.8203 133.344ZM46.0625 138.656C46.0625 139.203 45.9245 139.664 45.6484 140.039C45.3776 140.409 44.987 140.688 44.4766 140.875C43.9714 141.062 43.3672 141.156 42.6641 141.156C42.0651 141.156 41.5469 141.109 41.1094 141.016C40.6719 140.922 40.2891 140.789 39.9609 140.617V139.422C40.3099 139.594 40.7266 139.75 41.2109 139.891C41.6953 140.031 42.1901 140.102 42.6953 140.102C43.4349 140.102 43.9714 139.982 44.3047 139.742C44.638 139.503 44.8047 139.177 44.8047 138.766C44.8047 138.531 44.737 138.326 44.6016 138.148C44.4714 137.966 44.25 137.792 43.9375 137.625C43.625 137.453 43.1927 137.266 42.6406 137.062C42.0938 136.854 41.6198 136.648 41.2188 136.445C40.8229 136.237 40.5156 135.984 40.2969 135.688C40.0833 135.391 39.9766 135.005 39.9766 134.531C39.9766 133.807 40.2682 133.253 40.8516 132.867C41.4401 132.477 42.2109 132.281 43.1641 132.281C43.6797 132.281 44.1615 132.333 44.6094 132.438C45.0625 132.536 45.4844 132.672 45.875 132.844L45.4375 133.883C45.0833 133.732 44.7057 133.604 44.3047 133.5C43.9036 133.396 43.4948 133.344 43.0781 133.344C42.4792 133.344 42.0182 133.443 41.6953 133.641C41.3776 133.839 41.2188 134.109 41.2188 134.453C41.2188 134.719 41.2917 134.938 41.4375 135.109C41.5885 135.281 41.8281 135.443 42.1562 135.594C42.4844 135.745 42.9167 135.922 43.4531 136.125C43.9896 136.323 44.4531 136.529 44.8438 136.742C45.2344 136.951 45.5339 137.206 45.7422 137.508C45.9557 137.805 46.0625 138.188 46.0625 138.656ZM51.4453 132.281C52.1745 132.281 52.7995 132.443 53.3203 132.766C53.8411 133.089 54.2396 133.542 54.5156 134.125C54.7917 134.703 54.9297 135.38 54.9297 136.156V136.961H49.0156C49.0312 137.966 49.2812 138.732 49.7656 139.258C50.25 139.784 50.9323 140.047 51.8125 140.047C52.3542 140.047 52.8333 139.997 53.25 139.898C53.6667 139.799 54.099 139.654 54.5469 139.461V140.602C54.1146 140.794 53.6849 140.935 53.2578 141.023C52.8359 141.112 52.3359 141.156 51.7578 141.156C50.9349 141.156 50.2161 140.99 49.6016 140.656C48.9922 140.318 48.5182 139.823 48.1797 139.172C47.8411 138.521 47.6719 137.724 47.6719 136.781C47.6719 135.859 47.8255 135.062 48.1328 134.391C48.4453 133.714 48.8828 133.193 49.4453 132.828C50.013 132.464 50.6797 132.281 51.4453 132.281ZM51.4297 133.344C50.737 133.344 50.1849 133.57 49.7734 134.023C49.362 134.477 49.1172 135.109 49.0391 135.922H53.5703C53.5651 135.411 53.4844 134.964 53.3281 134.578C53.1771 134.188 52.9453 133.885 52.6328 133.672C52.3203 133.453 51.9193 133.344 51.4297 133.344ZM61.1875 132.281C62.2031 132.281 62.9714 132.531 63.4922 133.031C64.013 133.526 64.2734 134.323 64.2734 135.422V141H62.9922V135.508C62.9922 134.794 62.8281 134.26 62.5 133.906C62.1771 133.552 61.6797 133.375 61.0078 133.375C60.0599 133.375 59.3932 133.643 59.0078 134.18C58.6224 134.716 58.4297 135.495 58.4297 136.516V141H57.1328V132.438H58.1797L58.375 133.672H58.4453C58.6276 133.37 58.8594 133.117 59.1406 132.914C59.4219 132.706 59.737 132.549 60.0859 132.445C60.4349 132.336 60.8021 132.281 61.1875 132.281ZM70.375 141.156C69.6042 141.156 68.9245 140.997 68.3359 140.68C67.7474 140.362 67.2891 139.878 66.9609 139.227C66.6328 138.576 66.4688 137.755 66.4688 136.766C66.4688 135.729 66.6406 134.883 66.9844 134.227C67.3333 133.565 67.8125 133.076 68.4219 132.758C69.0312 132.44 69.724 132.281 70.5 132.281C70.9271 132.281 71.3385 132.326 71.7344 132.414C72.1354 132.497 72.4635 132.604 72.7188 132.734L72.3281 133.82C72.0677 133.716 71.7656 133.622 71.4219 133.539C71.0833 133.456 70.7656 133.414 70.4688 133.414C69.875 133.414 69.3802 133.542 68.9844 133.797C68.5938 134.052 68.2995 134.427 68.1016 134.922C67.9089 135.417 67.8125 136.026 67.8125 136.75C67.8125 137.443 67.9062 138.034 68.0938 138.523C68.2865 139.013 68.5703 139.388 68.9453 139.648C69.3255 139.904 69.7995 140.031 70.3672 140.031C70.8203 140.031 71.2292 139.984 71.5938 139.891C71.9583 139.792 72.2891 139.677 72.5859 139.547V140.703C72.2995 140.849 71.9792 140.961 71.625 141.039C71.276 141.117 70.8594 141.156 70.375 141.156ZM75.9141 132.438V141H74.6172V132.438H75.9141ZM75.2812 129.234C75.4948 129.234 75.6771 129.305 75.8281 129.445C75.9844 129.581 76.0625 129.794 76.0625 130.086C76.0625 130.372 75.9844 130.586 75.8281 130.727C75.6771 130.867 75.4948 130.938 75.2812 130.938C75.0573 130.938 74.8698 130.867 74.7188 130.727C74.5729 130.586 74.5 130.372 74.5 130.086C74.5 129.794 74.5729 129.581 74.7188 129.445C74.8698 129.305 75.0573 129.234 75.2812 129.234ZM81.8672 132.297C82.888 132.297 83.6458 132.526 84.1406 132.984C84.6354 133.443 84.8828 134.174 84.8828 135.18V141H83.9375L83.6875 139.734H83.625C83.3854 140.047 83.1354 140.31 82.875 140.523C82.6146 140.732 82.3125 140.891 81.9688 141C81.6302 141.104 81.2135 141.156 80.7188 141.156C80.1979 141.156 79.7344 141.065 79.3281 140.883C78.9271 140.701 78.6094 140.424 78.375 140.055C78.1458 139.685 78.0312 139.216 78.0312 138.648C78.0312 137.794 78.3698 137.138 79.0469 136.68C79.724 136.221 80.7552 135.971 82.1406 135.93L83.6172 135.867V135.344C83.6172 134.604 83.4583 134.086 83.1406 133.789C82.8229 133.492 82.375 133.344 81.7969 133.344C81.349 133.344 80.9219 133.409 80.5156 133.539C80.1094 133.669 79.724 133.823 79.3594 134L78.9609 133.016C79.3464 132.818 79.7891 132.648 80.2891 132.508C80.7891 132.367 81.3151 132.297 81.8672 132.297ZM83.6016 136.781L82.2969 136.836C81.2292 136.878 80.4766 137.052 80.0391 137.359C79.6016 137.667 79.3828 138.102 79.3828 138.664C79.3828 139.154 79.5312 139.516 79.8281 139.75C80.125 139.984 80.5182 140.102 81.0078 140.102C81.7682 140.102 82.3906 139.891 82.875 139.469C83.3594 139.047 83.6016 138.414 83.6016 137.57V136.781ZM88.8594 141H87.5547V128.844H88.8594V141Z" fill="white"/>
<g clip-path="url(#clip1_3847_9354)">
<path d="M315 139.2L311.5 135.7C311.11 135.31 310.49 135.31 310.1 135.7C309.71 136.09 309.71 136.71 310.1 137.1L314.29 141.29C314.68 141.68 315.31 141.68 315.7 141.29L326.3 130.7C326.69 130.31 326.69 129.69 326.3 129.3C325.91 128.91 325.29 128.91 324.9 129.3L315 139.2Z" fill="white"/>
</g>
<path d="M2 172C2 167.582 5.58172 164 10 164H334C338.418 164 342 167.582 342 172V204C342 208.418 338.418 212 334 212H10C5.58172 212 2 208.418 2 204V172Z" fill="white"/>
<path d="M24.2188 194H22.8906V188.617H16.8906V194H15.5625V182.578H16.8906V187.445H22.8906V182.578H24.2188V194ZM28.4609 194H27.1641V185.438H28.4609V194ZM30.0781 181.742V181.898C29.974 182.049 29.8307 182.232 29.6484 182.445C29.4714 182.654 29.2734 182.875 29.0547 183.109C28.8359 183.339 28.6146 183.557 28.3906 183.766C28.1719 183.974 27.9688 184.154 27.7812 184.305H26.9141V184.117C27.0807 183.919 27.263 183.682 27.4609 183.406C27.6589 183.125 27.8516 182.839 28.0391 182.547C28.2266 182.25 28.3828 181.982 28.5078 181.742H30.0781ZM32.5078 181.844V184.883C32.5078 185.232 32.4974 185.57 32.4766 185.898C32.4609 186.227 32.4479 186.482 32.4375 186.664H32.5078C32.7422 186.279 33.0807 185.953 33.5234 185.688C33.9661 185.422 34.5312 185.289 35.2188 185.289C36.2917 185.289 37.1458 185.661 37.7812 186.406C38.4219 187.146 38.7422 188.247 38.7422 189.711C38.7422 190.674 38.5964 191.487 38.3047 192.148C38.013 192.81 37.6016 193.31 37.0703 193.648C36.5391 193.987 35.9115 194.156 35.1875 194.156C34.5104 194.156 33.9531 194.031 33.5156 193.781C33.0833 193.526 32.75 193.216 32.5156 192.852H32.4141L32.1484 194H31.2109V181.844H32.5078ZM35.0078 186.375C34.388 186.375 33.8958 186.497 33.5312 186.742C33.1667 186.982 32.9036 187.346 32.7422 187.836C32.5859 188.32 32.5078 188.935 32.5078 189.68V189.75C32.5078 190.828 32.6875 191.654 33.0469 192.227C33.4062 192.794 34.0599 193.078 35.0078 193.078C35.8047 193.078 36.401 192.786 36.7969 192.203C37.1979 191.62 37.3984 190.786 37.3984 189.703C37.3984 188.599 37.2005 187.768 36.8047 187.211C36.4141 186.654 35.8151 186.375 35.0078 186.375ZM44.8984 185.281C45.0703 185.281 45.25 185.292 45.4375 185.312C45.625 185.328 45.7917 185.352 45.9375 185.383L45.7734 186.586C45.6328 186.549 45.4766 186.521 45.3047 186.5C45.1328 186.479 44.9714 186.469 44.8203 186.469C44.4766 186.469 44.151 186.539 43.8438 186.68C43.5417 186.815 43.276 187.013 43.0469 187.273C42.8177 187.529 42.638 187.839 42.5078 188.203C42.3776 188.562 42.3125 188.964 42.3125 189.406V194H41.0078V185.438H42.0859L42.2266 187.016H42.2812C42.4583 186.698 42.6719 186.409 42.9219 186.148C43.1719 185.883 43.4609 185.672 43.7891 185.516C44.1224 185.359 44.4922 185.281 44.8984 185.281ZM48.8516 185.438V194H47.5547V185.438H48.8516ZM48.2188 182.234C48.4323 182.234 48.6146 182.305 48.7656 182.445C48.9219 182.581 49 182.794 49 183.086C49 183.372 48.9219 183.586 48.7656 183.727C48.6146 183.867 48.4323 183.938 48.2188 183.938C47.9948 183.938 47.8073 183.867 47.6562 183.727C47.5104 183.586 47.4375 183.372 47.4375 183.086C47.4375 182.794 47.5104 182.581 47.6562 182.445C47.8073 182.305 47.9948 182.234 48.2188 182.234ZM54.6484 194.156C53.5651 194.156 52.7057 193.786 52.0703 193.047C51.4401 192.307 51.125 191.208 51.125 189.75C51.125 188.276 51.4479 187.164 52.0938 186.414C52.7396 185.659 53.599 185.281 54.6719 185.281C55.125 185.281 55.5208 185.341 55.8594 185.461C56.1979 185.581 56.4896 185.742 56.7344 185.945C56.9792 186.143 57.1849 186.37 57.3516 186.625H57.4453C57.4245 186.464 57.4036 186.242 57.3828 185.961C57.362 185.68 57.3516 185.451 57.3516 185.273V181.844H58.6484V194H57.6016L57.4062 192.781H57.3516C57.1901 193.036 56.9844 193.268 56.7344 193.477C56.4896 193.685 56.1953 193.852 55.8516 193.977C55.513 194.096 55.112 194.156 54.6484 194.156ZM54.8516 193.078C55.7682 193.078 56.4167 192.818 56.7969 192.297C57.1771 191.776 57.3672 191.003 57.3672 189.977V189.742C57.3672 188.654 57.1849 187.818 56.8203 187.234C56.4609 186.651 55.8047 186.359 54.8516 186.359C54.0547 186.359 53.4583 186.667 53.0625 187.281C52.6667 187.891 52.4688 188.724 52.4688 189.781C52.4688 190.833 52.6641 191.646 53.0547 192.219C53.4505 192.792 54.0495 193.078 54.8516 193.078ZM64.6016 185.297C65.6224 185.297 66.3802 185.526 66.875 185.984C67.3698 186.443 67.6172 187.174 67.6172 188.18V194H66.6719L66.4219 192.734H66.3594C66.1198 193.047 65.8698 193.31 65.6094 193.523C65.349 193.732 65.0469 193.891 64.7031 194C64.3646 194.104 63.9479 194.156 63.4531 194.156C62.9323 194.156 62.4688 194.065 62.0625 193.883C61.6615 193.701 61.3438 193.424 61.1094 193.055C60.8802 192.685 60.7656 192.216 60.7656 191.648C60.7656 190.794 61.1042 190.138 61.7812 189.68C62.4583 189.221 63.4896 188.971 64.875 188.93L66.3516 188.867V188.344C66.3516 187.604 66.1927 187.086 65.875 186.789C65.5573 186.492 65.1094 186.344 64.5312 186.344C64.0833 186.344 63.6562 186.409 63.25 186.539C62.8438 186.669 62.4583 186.823 62.0938 187L61.6953 186.016C62.0807 185.818 62.5234 185.648 63.0234 185.508C63.5234 185.367 64.0495 185.297 64.6016 185.297ZM66.3359 189.781L65.0312 189.836C63.9635 189.878 63.2109 190.052 62.7734 190.359C62.3359 190.667 62.1172 191.102 62.1172 191.664C62.1172 192.154 62.2656 192.516 62.5625 192.75C62.8594 192.984 63.2526 193.102 63.7422 193.102C64.5026 193.102 65.125 192.891 65.6094 192.469C66.0938 192.047 66.3359 191.414 66.3359 190.57V189.781Z" fill="#38485C"/>
<rect x="1.5" y="57.5" width="341" height="155" rx="8.5" stroke="#E6EBF0"/>
<defs>
<clipPath id="clip0_3847_9354">
<rect width="24" height="24" fill="white" transform="translate(306 14)"/>
</clipPath>
<clipPath id="clip1_3847_9354">
<rect width="24" height="24" fill="white" transform="translate(306 123)"/>
</clipPath>
</defs>
</svg>
