<svg width="344" height="319" viewBox="0 0 344 319" fill="none" xmlns="http://www.w3.org/2000/svg">
<rect x="1" y="1" width="342" height="50" rx="9" fill="#007BC7"/>
<g clip-path="url(#clip0_3847_9358)">
<path d="M34 17H33V16C33 15.45 32.55 15 32 15C31.45 15 31 15.45 31 16V17H21V16C21 15.45 20.55 15 20 15C19.45 15 19 15.45 19 16V17H18C16.9 17 16 17.9 16 19V35C16 36.1 16.9 37 18 37H34C35.1 37 36 36.1 36 35V19C36 17.9 35.1 17 34 17ZM33 35H19C18.45 35 18 34.55 18 34V22H34V34C34 34.55 33.55 35 33 35Z" fill="white"/>
</g>
<path d="M44.376 32C44.112 32 43.908 31.934 43.764 31.802C43.632 31.658 43.566 31.454 43.566 31.19V20.12C43.566 19.856 43.632 19.658 43.764 19.526C43.908 19.382 44.112 19.31 44.376 19.31H47.85C49.902 19.31 51.486 19.85 52.602 20.93C53.718 22.01 54.276 23.582 54.276 25.646C54.276 26.678 54.132 27.59 53.844 28.382C53.568 29.162 53.154 29.822 52.602 30.362C52.05 30.902 51.378 31.31 50.586 31.586C49.794 31.862 48.882 32 47.85 32H44.376ZM45.042 30.74H47.742C48.582 30.74 49.308 30.632 49.92 30.416C50.544 30.2 51.06 29.882 51.468 29.462C51.888 29.042 52.2 28.514 52.404 27.878C52.608 27.23 52.71 26.486 52.71 25.646C52.71 23.954 52.296 22.688 51.468 21.848C50.64 20.996 49.398 20.57 47.742 20.57H45.042V30.74ZM57.4474 32.09C57.2074 32.09 57.0274 32.024 56.9074 31.892C56.7874 31.748 56.7274 31.55 56.7274 31.298V23.936C56.7274 23.684 56.7874 23.492 56.9074 23.36C57.0274 23.228 57.2074 23.162 57.4474 23.162C57.6754 23.162 57.8554 23.228 57.9874 23.36C58.1194 23.492 58.1854 23.684 58.1854 23.936V31.298C58.1854 31.55 58.1194 31.748 57.9874 31.892C57.8674 32.024 57.6874 32.09 57.4474 32.09ZM58.0414 21.992C57.9574 22.112 57.8554 22.184 57.7354 22.208C57.6154 22.22 57.5014 22.202 57.3934 22.154C57.2854 22.094 57.2074 22.01 57.1594 21.902C57.1114 21.794 57.1234 21.668 57.1954 21.524L58.7074 18.59C58.7914 18.422 58.8994 18.314 59.0314 18.266C59.1634 18.218 59.2954 18.212 59.4274 18.248C59.5714 18.272 59.6914 18.332 59.7874 18.428C59.8834 18.524 59.9374 18.638 59.9494 18.77C59.9734 18.902 59.9374 19.04 59.8414 19.184L58.0414 21.992ZM63.665 32.162C63.065 32.162 62.525 32.048 62.045 31.82C61.577 31.58 61.205 31.256 60.929 30.848C60.653 30.44 60.515 29.984 60.515 29.48C60.515 28.832 60.677 28.322 61.001 27.95C61.337 27.578 61.883 27.314 62.639 27.158C63.407 27.002 64.451 26.924 65.771 26.924H66.581V27.878H65.789C64.817 27.878 64.049 27.926 63.485 28.022C62.933 28.106 62.543 28.256 62.315 28.472C62.099 28.688 61.991 28.994 61.991 29.39C61.991 29.882 62.159 30.284 62.495 30.596C62.843 30.908 63.311 31.064 63.899 31.064C64.379 31.064 64.799 30.95 65.159 30.722C65.531 30.494 65.819 30.182 66.023 29.786C66.239 29.39 66.347 28.934 66.347 28.418V26.366C66.347 25.622 66.197 25.088 65.897 24.764C65.597 24.428 65.105 24.26 64.421 24.26C64.001 24.26 63.581 24.314 63.161 24.422C62.741 24.53 62.297 24.704 61.829 24.944C61.661 25.028 61.517 25.058 61.397 25.034C61.277 24.998 61.181 24.932 61.109 24.836C61.037 24.74 60.995 24.632 60.983 24.512C60.971 24.38 60.995 24.254 61.055 24.134C61.127 24.014 61.235 23.918 61.379 23.846C61.907 23.582 62.429 23.39 62.945 23.27C63.461 23.15 63.953 23.09 64.421 23.09C65.177 23.09 65.801 23.216 66.293 23.468C66.785 23.708 67.151 24.08 67.391 24.584C67.631 25.076 67.751 25.712 67.751 26.492V31.37C67.751 31.61 67.691 31.796 67.571 31.928C67.463 32.06 67.301 32.126 67.085 32.126C66.857 32.126 66.683 32.06 66.563 31.928C66.443 31.796 66.383 31.61 66.383 31.37V29.966H66.545C66.449 30.422 66.263 30.812 65.987 31.136C65.723 31.46 65.393 31.712 64.997 31.892C64.601 32.072 64.157 32.162 63.665 32.162ZM73.4079 32.162C72.8679 32.162 72.3219 32.096 71.7699 31.964C71.2299 31.832 70.7259 31.604 70.2579 31.28C70.1379 31.196 70.0539 31.1 70.0059 30.992C69.9579 30.872 69.9399 30.758 69.9519 30.65C69.9759 30.53 70.0239 30.428 70.0959 30.344C70.1799 30.26 70.2759 30.212 70.3839 30.2C70.5039 30.176 70.6359 30.2 70.7799 30.272C71.2479 30.56 71.6979 30.764 72.1299 30.884C72.5739 30.992 73.0119 31.046 73.4439 31.046C74.1279 31.046 74.6439 30.92 74.9919 30.668C75.3399 30.416 75.5139 30.074 75.5139 29.642C75.5139 29.306 75.3999 29.042 75.1719 28.85C74.9439 28.646 74.5839 28.49 74.0919 28.382L72.4539 28.022C71.6979 27.866 71.1339 27.596 70.7619 27.212C70.4019 26.828 70.2219 26.33 70.2219 25.718C70.2219 25.178 70.3599 24.716 70.6359 24.332C70.9239 23.936 71.3259 23.63 71.8419 23.414C72.3579 23.198 72.9579 23.09 73.6419 23.09C74.1699 23.09 74.6679 23.162 75.1359 23.306C75.6159 23.438 76.0479 23.654 76.4319 23.954C76.5519 24.038 76.6299 24.14 76.6659 24.26C76.7139 24.368 76.7199 24.482 76.6839 24.602C76.6599 24.71 76.6059 24.806 76.5219 24.89C76.4379 24.962 76.3359 25.004 76.2159 25.016C76.0959 25.028 75.9699 24.992 75.8379 24.908C75.4779 24.668 75.1119 24.494 74.7399 24.386C74.3679 24.266 74.0019 24.206 73.6419 24.206C72.9699 24.206 72.4599 24.338 72.1119 24.602C71.7639 24.866 71.5899 25.214 71.5899 25.646C71.5899 25.982 71.6979 26.258 71.9139 26.474C72.1299 26.69 72.4659 26.846 72.9219 26.942L74.5599 27.284C75.3399 27.452 75.9219 27.722 76.3059 28.094C76.7019 28.454 76.8999 28.946 76.8999 29.57C76.8999 30.362 76.5819 30.992 75.9459 31.46C75.3099 31.928 74.4639 32.162 73.4079 32.162ZM87.0925 32.162C86.3125 32.162 85.6285 31.976 85.0405 31.604C84.4645 31.232 84.0145 30.71 83.6905 30.038C83.3785 29.354 83.2225 28.55 83.2225 27.626C83.2225 26.69 83.3785 25.886 83.6905 25.214C84.0145 24.53 84.4645 24.008 85.0405 23.648C85.6285 23.276 86.3125 23.09 87.0925 23.09C87.8845 23.09 88.5625 23.288 89.1265 23.684C89.6905 24.08 90.0685 24.614 90.2605 25.286H90.0625V19.922C90.0625 19.682 90.1225 19.502 90.2425 19.382C90.3745 19.25 90.5605 19.184 90.8005 19.184C91.0285 19.184 91.2025 19.25 91.3225 19.382C91.4545 19.502 91.5205 19.682 91.5205 19.922V31.37C91.5205 31.61 91.4605 31.796 91.3405 31.928C91.2205 32.06 91.0405 32.126 90.8005 32.126C90.5725 32.126 90.3925 32.06 90.2605 31.928C90.1405 31.796 90.0805 31.61 90.0805 31.37V29.66L90.2785 29.912C90.0865 30.596 89.7025 31.142 89.1265 31.55C88.5625 31.958 87.8845 32.162 87.0925 32.162ZM87.3985 30.992C87.9385 30.992 88.4125 30.86 88.8205 30.596C89.2285 30.332 89.5405 29.948 89.7565 29.444C89.9845 28.94 90.0985 28.334 90.0985 27.626C90.0985 26.534 89.8525 25.7 89.3605 25.124C88.8805 24.548 88.2265 24.26 87.3985 24.26C86.8465 24.26 86.3665 24.392 85.9585 24.656C85.5625 24.908 85.2505 25.286 85.0225 25.79C84.8065 26.282 84.6985 26.894 84.6985 27.626C84.6985 28.706 84.9445 29.54 85.4365 30.128C85.9285 30.704 86.5825 30.992 87.3985 30.992ZM94.9767 32.09C94.7367 32.09 94.5567 32.024 94.4367 31.892C94.3167 31.748 94.2567 31.55 94.2567 31.298V23.936C94.2567 23.684 94.3167 23.492 94.4367 23.36C94.5567 23.228 94.7367 23.162 94.9767 23.162C95.2047 23.162 95.3847 23.228 95.5167 23.36C95.6487 23.492 95.7147 23.684 95.7147 23.936V31.298C95.7147 31.55 95.6487 31.748 95.5167 31.892C95.3967 32.024 95.2167 32.09 94.9767 32.09ZM94.9767 21.146C94.6767 21.146 94.4427 21.068 94.2747 20.912C94.1067 20.744 94.0227 20.522 94.0227 20.246C94.0227 19.958 94.1067 19.742 94.2747 19.598C94.4427 19.442 94.6767 19.364 94.9767 19.364C95.2887 19.364 95.5227 19.442 95.6787 19.598C95.8467 19.742 95.9307 19.958 95.9307 20.246C95.9307 20.522 95.8467 20.744 95.6787 20.912C95.5227 21.068 95.2887 21.146 94.9767 21.146ZM101.392 32.162C100.852 32.162 100.306 32.096 99.7543 31.964C99.2143 31.832 98.7103 31.604 98.2423 31.28C98.1223 31.196 98.0383 31.1 97.9903 30.992C97.9423 30.872 97.9243 30.758 97.9363 30.65C97.9603 30.53 98.0083 30.428 98.0803 30.344C98.1643 30.26 98.2603 30.212 98.3683 30.2C98.4883 30.176 98.6203 30.2 98.7643 30.272C99.2323 30.56 99.6823 30.764 100.114 30.884C100.558 30.992 100.996 31.046 101.428 31.046C102.112 31.046 102.628 30.92 102.976 30.668C103.324 30.416 103.498 30.074 103.498 29.642C103.498 29.306 103.384 29.042 103.156 28.85C102.928 28.646 102.568 28.49 102.076 28.382L100.438 28.022C99.6823 27.866 99.1183 27.596 98.7463 27.212C98.3863 26.828 98.2063 26.33 98.2063 25.718C98.2063 25.178 98.3443 24.716 98.6203 24.332C98.9083 23.936 99.3103 23.63 99.8263 23.414C100.342 23.198 100.942 23.09 101.626 23.09C102.154 23.09 102.652 23.162 103.12 23.306C103.6 23.438 104.032 23.654 104.416 23.954C104.536 24.038 104.614 24.14 104.65 24.26C104.698 24.368 104.704 24.482 104.668 24.602C104.644 24.71 104.59 24.806 104.506 24.89C104.422 24.962 104.32 25.004 104.2 25.016C104.08 25.028 103.954 24.992 103.822 24.908C103.462 24.668 103.096 24.494 102.724 24.386C102.352 24.266 101.986 24.206 101.626 24.206C100.954 24.206 100.444 24.338 100.096 24.602C99.7483 24.866 99.5743 25.214 99.5743 25.646C99.5743 25.982 99.6823 26.258 99.8983 26.474C100.114 26.69 100.45 26.846 100.906 26.942L102.544 27.284C103.324 27.452 103.906 27.722 104.29 28.094C104.686 28.454 104.884 28.946 104.884 29.57C104.884 30.362 104.566 30.992 103.93 31.46C103.294 31.928 102.448 32.162 101.392 32.162ZM107.826 35.366C107.586 35.366 107.406 35.3 107.286 35.168C107.166 35.048 107.106 34.868 107.106 34.628V23.864C107.106 23.624 107.166 23.444 107.286 23.324C107.406 23.192 107.58 23.126 107.808 23.126C108.048 23.126 108.228 23.192 108.348 23.324C108.48 23.444 108.546 23.624 108.546 23.864V25.574L108.348 25.322C108.54 24.638 108.918 24.098 109.482 23.702C110.058 23.294 110.742 23.09 111.534 23.09C112.314 23.09 112.992 23.276 113.568 23.648C114.156 24.008 114.606 24.53 114.918 25.214C115.242 25.886 115.404 26.69 115.404 27.626C115.404 28.55 115.242 29.354 114.918 30.038C114.606 30.71 114.162 31.232 113.586 31.604C113.01 31.976 112.326 32.162 111.534 32.162C110.742 32.162 110.064 31.964 109.5 31.568C108.936 31.16 108.552 30.62 108.348 29.948H108.564V34.628C108.564 34.868 108.498 35.048 108.366 35.168C108.234 35.3 108.054 35.366 107.826 35.366ZM111.228 30.992C111.78 30.992 112.254 30.86 112.65 30.596C113.058 30.332 113.37 29.948 113.586 29.444C113.814 28.94 113.928 28.334 113.928 27.626C113.928 26.534 113.682 25.7 113.19 25.124C112.71 24.548 112.056 24.26 111.228 24.26C110.688 24.26 110.214 24.392 109.806 24.656C109.398 24.908 109.08 25.286 108.852 25.79C108.636 26.282 108.528 26.894 108.528 27.626C108.528 28.706 108.774 29.54 109.266 30.128C109.758 30.704 110.412 30.992 111.228 30.992ZM121.236 32.162C120.384 32.162 119.646 31.976 119.022 31.604C118.398 31.232 117.912 30.71 117.564 30.038C117.228 29.354 117.06 28.55 117.06 27.626C117.06 26.93 117.156 26.306 117.348 25.754C117.54 25.19 117.822 24.71 118.194 24.314C118.566 23.918 119.004 23.618 119.508 23.414C120.024 23.198 120.6 23.09 121.236 23.09C122.088 23.09 122.826 23.276 123.45 23.648C124.074 24.02 124.554 24.548 124.89 25.232C125.238 25.904 125.412 26.702 125.412 27.626C125.412 28.322 125.316 28.946 125.124 29.498C124.932 30.05 124.65 30.53 124.278 30.938C123.906 31.334 123.462 31.64 122.946 31.856C122.442 32.06 121.872 32.162 121.236 32.162ZM121.236 30.992C121.776 30.992 122.25 30.86 122.658 30.596C123.066 30.332 123.378 29.948 123.594 29.444C123.822 28.94 123.936 28.334 123.936 27.626C123.936 26.534 123.69 25.7 123.198 25.124C122.718 24.548 122.064 24.26 121.236 24.26C120.684 24.26 120.204 24.392 119.796 24.656C119.4 24.908 119.088 25.286 118.86 25.79C118.644 26.282 118.536 26.894 118.536 27.626C118.536 28.706 118.782 29.54 119.274 30.128C119.766 30.704 120.42 30.992 121.236 30.992ZM128.322 32.126C128.082 32.126 127.902 32.06 127.782 31.928C127.662 31.796 127.602 31.61 127.602 31.37V23.864C127.602 23.624 127.662 23.444 127.782 23.324C127.902 23.192 128.076 23.126 128.304 23.126C128.532 23.126 128.706 23.192 128.826 23.324C128.958 23.444 129.024 23.624 129.024 23.864V25.412L128.826 25.196C129.078 24.5 129.486 23.978 130.05 23.63C130.626 23.27 131.286 23.09 132.03 23.09C132.726 23.09 133.302 23.216 133.758 23.468C134.226 23.72 134.574 24.104 134.802 24.62C135.03 25.124 135.144 25.766 135.144 26.546V31.37C135.144 31.61 135.078 31.796 134.946 31.928C134.826 32.06 134.652 32.126 134.424 32.126C134.184 32.126 133.998 32.06 133.866 31.928C133.746 31.796 133.686 31.61 133.686 31.37V26.636C133.686 25.82 133.524 25.226 133.2 24.854C132.888 24.47 132.384 24.278 131.688 24.278C130.884 24.278 130.242 24.53 129.762 25.034C129.294 25.526 129.06 26.186 129.06 27.014V31.37C129.06 31.874 128.814 32.126 128.322 32.126ZM138.553 32.09C138.313 32.09 138.133 32.024 138.013 31.892C137.893 31.748 137.833 31.55 137.833 31.298V23.936C137.833 23.684 137.893 23.492 138.013 23.36C138.133 23.228 138.313 23.162 138.553 23.162C138.781 23.162 138.961 23.228 139.093 23.36C139.225 23.492 139.291 23.684 139.291 23.936V31.298C139.291 31.55 139.225 31.748 139.093 31.892C138.973 32.024 138.793 32.09 138.553 32.09ZM138.553 21.146C138.253 21.146 138.019 21.068 137.851 20.912C137.683 20.744 137.599 20.522 137.599 20.246C137.599 19.958 137.683 19.742 137.851 19.598C138.019 19.442 138.253 19.364 138.553 19.364C138.865 19.364 139.099 19.442 139.255 19.598C139.423 19.742 139.507 19.958 139.507 20.246C139.507 20.522 139.423 20.744 139.255 20.912C139.099 21.068 138.865 21.146 138.553 21.146ZM146.444 32.162C145.652 32.162 144.968 31.958 144.392 31.55C143.828 31.142 143.45 30.596 143.258 29.912L143.456 29.714V31.37C143.456 31.61 143.39 31.796 143.258 31.928C143.138 32.06 142.964 32.126 142.736 32.126C142.496 32.126 142.316 32.06 142.196 31.928C142.076 31.796 142.016 31.61 142.016 31.37V19.922C142.016 19.682 142.076 19.502 142.196 19.382C142.316 19.25 142.496 19.184 142.736 19.184C142.964 19.184 143.144 19.25 143.276 19.382C143.408 19.502 143.474 19.682 143.474 19.922V25.286H143.258C143.462 24.614 143.846 24.08 144.41 23.684C144.974 23.288 145.652 23.09 146.444 23.09C147.236 23.09 147.92 23.276 148.496 23.648C149.072 24.008 149.516 24.53 149.828 25.214C150.152 25.886 150.314 26.69 150.314 27.626C150.314 28.55 150.152 29.354 149.828 30.038C149.516 30.71 149.066 31.232 148.478 31.604C147.902 31.976 147.224 32.162 146.444 32.162ZM146.138 30.992C146.69 30.992 147.164 30.86 147.56 30.596C147.968 30.332 148.28 29.948 148.496 29.444C148.724 28.94 148.838 28.334 148.838 27.626C148.838 26.534 148.592 25.7 148.1 25.124C147.62 24.548 146.966 24.26 146.138 24.26C145.598 24.26 145.124 24.392 144.716 24.656C144.308 24.908 143.99 25.286 143.762 25.79C143.546 26.282 143.438 26.894 143.438 27.626C143.438 28.706 143.684 29.54 144.176 30.128C144.668 30.704 145.322 30.992 146.138 30.992ZM155.175 32.162C154.311 32.162 153.651 31.898 153.195 31.37C152.739 30.842 152.511 30.086 152.511 29.102V19.922C152.511 19.682 152.571 19.502 152.691 19.382C152.811 19.25 152.991 19.184 153.231 19.184C153.459 19.184 153.639 19.25 153.771 19.382C153.903 19.502 153.969 19.682 153.969 19.922V28.994C153.969 29.642 154.095 30.128 154.347 30.452C154.611 30.764 154.995 30.92 155.499 30.92C155.607 30.92 155.703 30.914 155.787 30.902C155.871 30.89 155.955 30.884 156.039 30.884C156.171 30.872 156.261 30.902 156.309 30.974C156.369 31.046 156.399 31.19 156.399 31.406C156.399 31.622 156.351 31.784 156.255 31.892C156.159 32 156.003 32.072 155.787 32.108C155.691 32.12 155.589 32.132 155.481 32.144C155.373 32.156 155.271 32.162 155.175 32.162ZM161.691 32.162C160.767 32.162 159.969 31.982 159.297 31.622C158.637 31.25 158.121 30.728 157.749 30.056C157.389 29.384 157.209 28.58 157.209 27.644C157.209 26.732 157.389 25.94 157.749 25.268C158.109 24.584 158.601 24.05 159.225 23.666C159.861 23.282 160.593 23.09 161.421 23.09C162.009 23.09 162.537 23.192 163.005 23.396C163.473 23.588 163.869 23.87 164.193 24.242C164.529 24.614 164.781 25.064 164.949 25.592C165.129 26.12 165.219 26.714 165.219 27.374C165.219 27.566 165.165 27.71 165.057 27.806C164.949 27.89 164.793 27.932 164.589 27.932H158.325V26.978H164.247L163.959 27.212C163.959 26.564 163.863 26.018 163.671 25.574C163.479 25.118 163.197 24.77 162.825 24.53C162.465 24.29 162.009 24.17 161.457 24.17C160.845 24.17 160.323 24.314 159.891 24.602C159.471 24.878 159.153 25.268 158.937 25.772C158.721 26.264 158.613 26.84 158.613 27.5V27.608C158.613 28.712 158.877 29.552 159.405 30.128C159.945 30.704 160.707 30.992 161.691 30.992C162.099 30.992 162.501 30.938 162.897 30.83C163.305 30.722 163.701 30.542 164.085 30.29C164.253 30.182 164.403 30.134 164.535 30.146C164.679 30.146 164.793 30.188 164.877 30.272C164.961 30.344 165.015 30.44 165.039 30.56C165.075 30.668 165.063 30.788 165.003 30.92C164.955 31.052 164.853 31.166 164.697 31.262C164.301 31.55 163.833 31.772 163.293 31.928C162.753 32.084 162.219 32.162 161.691 32.162ZM170.281 32.162C169.741 32.162 169.195 32.096 168.643 31.964C168.103 31.832 167.599 31.604 167.131 31.28C167.011 31.196 166.927 31.1 166.879 30.992C166.831 30.872 166.813 30.758 166.825 30.65C166.849 30.53 166.897 30.428 166.969 30.344C167.053 30.26 167.149 30.212 167.257 30.2C167.377 30.176 167.509 30.2 167.653 30.272C168.121 30.56 168.571 30.764 169.003 30.884C169.447 30.992 169.885 31.046 170.317 31.046C171.001 31.046 171.517 30.92 171.865 30.668C172.213 30.416 172.387 30.074 172.387 29.642C172.387 29.306 172.273 29.042 172.045 28.85C171.817 28.646 171.457 28.49 170.965 28.382L169.327 28.022C168.571 27.866 168.007 27.596 167.635 27.212C167.275 26.828 167.095 26.33 167.095 25.718C167.095 25.178 167.233 24.716 167.509 24.332C167.797 23.936 168.199 23.63 168.715 23.414C169.231 23.198 169.831 23.09 170.515 23.09C171.043 23.09 171.541 23.162 172.009 23.306C172.489 23.438 172.921 23.654 173.305 23.954C173.425 24.038 173.503 24.14 173.539 24.26C173.587 24.368 173.593 24.482 173.557 24.602C173.533 24.71 173.479 24.806 173.395 24.89C173.311 24.962 173.209 25.004 173.089 25.016C172.969 25.028 172.843 24.992 172.711 24.908C172.351 24.668 171.985 24.494 171.613 24.386C171.241 24.266 170.875 24.206 170.515 24.206C169.843 24.206 169.333 24.338 168.985 24.602C168.637 24.866 168.463 25.214 168.463 25.646C168.463 25.982 168.571 26.258 168.787 26.474C169.003 26.69 169.339 26.846 169.795 26.942L171.433 27.284C172.213 27.452 172.795 27.722 173.179 28.094C173.575 28.454 173.773 28.946 173.773 29.57C173.773 30.362 173.455 30.992 172.819 31.46C172.183 31.928 171.337 32.162 170.281 32.162Z" fill="white"/>
<g clip-path="url(#clip1_3847_9358)">
<path d="M314.12 23.2901L318 27.1701L321.88 23.2901C322.27 22.9001 322.9 22.9001 323.29 23.2901C323.68 23.6801 323.68 24.3101 323.29 24.7001L318.7 29.2901C318.31 29.6801 317.68 29.6801 317.29 29.2901L312.7 24.7001C312.31 24.3101 312.31 23.6801 312.7 23.2901C313.09 22.9101 313.73 22.9001 314.12 23.2901Z" fill="white"/>
</g>
<rect x="1" y="1" width="342" height="50" rx="9" stroke="#E6EBF0" stroke-width="2"/>
<rect x="1.5" y="57.5" width="341" height="261" rx="8.5" fill="white"/>
<path d="M2 66C2 61.5817 5.58172 58 10 58H334C338.418 58 342 61.5817 342 66V98C342 102.418 338.418 106 334 106H10C5.58172 106 2 102.418 2 98V66Z" fill="white"/>
<g clip-path="url(#clip2_3847_9358)">
<path d="M32 89H20C19.45 89 19 88.55 19 88V76C19 75.45 19.45 75 20 75H32C32.55 75 33 75.45 33 76V88C33 88.55 32.55 89 32 89ZM33 73H19C17.9 73 17 73.9 17 75V89C17 90.1 17.9 91 19 91H33C34.1 91 35 90.1 35 89V75C35 73.9 34.1 73 33 73Z" fill="#38485C"/>
</g>
<path d="M51.5625 88V76.5781H52.8906V86.8125H57.9609V88H51.5625ZM66.7969 79.4375V88H65.7344L65.5469 86.7969H65.4766C65.2995 87.0938 65.0703 87.3438 64.7891 87.5469C64.5078 87.75 64.1901 87.901 63.8359 88C63.487 88.1042 63.1146 88.1562 62.7188 88.1562C62.0417 88.1562 61.474 88.0469 61.0156 87.8281C60.5573 87.6094 60.2109 87.2708 59.9766 86.8125C59.7474 86.3542 59.6328 85.7656 59.6328 85.0469V79.4375H60.9453V84.9531C60.9453 85.6667 61.1068 86.2005 61.4297 86.5547C61.7526 86.9036 62.2448 87.0781 62.9062 87.0781C63.5417 87.0781 64.0469 86.9583 64.4219 86.7188C64.8021 86.4792 65.0755 86.1276 65.2422 85.6641C65.4089 85.1953 65.4922 84.6224 65.4922 83.9453V79.4375H66.7969ZM73.5938 79.2812C74.6094 79.2812 75.3776 79.5312 75.8984 80.0312C76.4193 80.526 76.6797 81.3229 76.6797 82.4219V88H75.3984V82.5078C75.3984 81.7943 75.2344 81.2604 74.9062 80.9062C74.5833 80.5521 74.0859 80.375 73.4141 80.375C72.4661 80.375 71.7995 80.6432 71.4141 81.1797C71.0286 81.7161 70.8359 82.4948 70.8359 83.5156V88H69.5391V79.4375H70.5859L70.7812 80.6719H70.8516C71.0339 80.3698 71.2656 80.1172 71.5469 79.9141C71.8281 79.7057 72.1432 79.5495 72.4922 79.4453C72.8411 79.3359 73.2083 79.2812 73.5938 79.2812ZM82.6484 79.2812C83.3776 79.2812 84.0026 79.4427 84.5234 79.7656C85.0443 80.0885 85.4427 80.5417 85.7188 81.125C85.9948 81.7031 86.1328 82.3802 86.1328 83.1562V83.9609H80.2188C80.2344 84.9661 80.4844 85.7318 80.9688 86.2578C81.4531 86.7839 82.1354 87.0469 83.0156 87.0469C83.5573 87.0469 84.0365 86.9974 84.4531 86.8984C84.8698 86.7995 85.3021 86.6536 85.75 86.4609V87.6016C85.3177 87.7943 84.888 87.9349 84.4609 88.0234C84.0391 88.112 83.5391 88.1562 82.9609 88.1562C82.138 88.1562 81.4193 87.9896 80.8047 87.6562C80.1953 87.3177 79.7214 86.8229 79.3828 86.1719C79.0443 85.5208 78.875 84.724 78.875 83.7812C78.875 82.8594 79.0286 82.0625 79.3359 81.3906C79.6484 80.7135 80.0859 80.1927 80.6484 79.8281C81.2161 79.4635 81.8828 79.2812 82.6484 79.2812ZM82.6328 80.3438C81.9401 80.3438 81.388 80.5703 80.9766 81.0234C80.5651 81.4766 80.3203 82.1094 80.2422 82.9219H84.7734C84.7682 82.4115 84.6875 81.9635 84.5312 81.5781C84.3802 81.1875 84.1484 80.8854 83.8359 80.6719C83.5234 80.4531 83.1224 80.3438 82.6328 80.3438ZM93.875 85.6562C93.875 86.2031 93.737 86.6641 93.4609 87.0391C93.1901 87.4089 92.7995 87.6875 92.2891 87.875C91.7839 88.0625 91.1797 88.1562 90.4766 88.1562C89.8776 88.1562 89.3594 88.1094 88.9219 88.0156C88.4844 87.9219 88.1016 87.7891 87.7734 87.6172V86.4219C88.1224 86.5938 88.5391 86.75 89.0234 86.8906C89.5078 87.0312 90.0026 87.1016 90.5078 87.1016C91.2474 87.1016 91.7839 86.9818 92.1172 86.7422C92.4505 86.5026 92.6172 86.1771 92.6172 85.7656C92.6172 85.5312 92.5495 85.3255 92.4141 85.1484C92.2839 84.9661 92.0625 84.7917 91.75 84.625C91.4375 84.4531 91.0052 84.2656 90.4531 84.0625C89.9062 83.8542 89.4323 83.6484 89.0312 83.4453C88.6354 83.237 88.3281 82.9844 88.1094 82.6875C87.8958 82.3906 87.7891 82.0052 87.7891 81.5312C87.7891 80.8073 88.0807 80.2526 88.6641 79.8672C89.2526 79.4766 90.0234 79.2812 90.9766 79.2812C91.4922 79.2812 91.974 79.3333 92.4219 79.4375C92.875 79.5365 93.2969 79.6719 93.6875 79.8438L93.25 80.8828C92.8958 80.7318 92.5182 80.6042 92.1172 80.5C91.7161 80.3958 91.3073 80.3438 90.8906 80.3438C90.2917 80.3438 89.8307 80.4427 89.5078 80.6406C89.1901 80.8385 89.0312 81.1094 89.0312 81.4531C89.0312 81.7188 89.1042 81.9375 89.25 82.1094C89.401 82.2812 89.6406 82.4427 89.9688 82.5938C90.2969 82.7448 90.7292 82.9219 91.2656 83.125C91.8021 83.3229 92.2656 83.5286 92.6562 83.7422C93.0469 83.9505 93.3464 84.2057 93.5547 84.5078C93.7682 84.8047 93.875 85.1875 93.875 85.6562Z" fill="#38485C"/>
<path d="M2 119C2 114.582 5.58172 111 10 111H334C338.418 111 342 114.582 342 119V151C342 155.418 338.418 159 334 159H10C5.58172 159 2 155.418 2 151V119Z" fill="#007BC7"/>
<g clip-path="url(#clip3_3847_9358)">
<path d="M33 126H19C17.9 126 17 126.9 17 128V142C17 143.1 17.9 144 19 144H33C34.1 144 35 143.1 35 142V128C35 126.9 34.1 126 33 126ZM24.71 139.29C24.32 139.68 23.69 139.68 23.3 139.29L19.71 135.7C19.32 135.31 19.32 134.68 19.71 134.29C20.1 133.9 20.73 133.9 21.12 134.29L24 137.17L30.88 130.29C31.27 129.9 31.9 129.9 32.29 130.29C32.68 130.68 32.68 131.31 32.29 131.7L24.71 139.29Z" fill="white"/>
</g>
<path d="M56.5859 141L52.75 130.891H52.6875C52.7083 131.104 52.7266 131.365 52.7422 131.672C52.7578 131.979 52.7708 132.315 52.7812 132.68C52.7917 133.039 52.7969 133.406 52.7969 133.781V141H51.5625V129.578H53.5312L57.1484 139.078H57.2031L60.875 129.578H62.8281V141H61.5156V133.688C61.5156 133.349 61.5208 133.01 61.5312 132.672C61.5417 132.328 61.5547 132.005 61.5703 131.703C61.5859 131.396 61.6016 131.13 61.6172 130.906H61.5547L57.6719 141H56.5859ZM68.9609 132.297C69.9818 132.297 70.7396 132.526 71.2344 132.984C71.7292 133.443 71.9766 134.174 71.9766 135.18V141H71.0312L70.7812 139.734H70.7188C70.4792 140.047 70.2292 140.31 69.9688 140.523C69.7083 140.732 69.4062 140.891 69.0625 141C68.724 141.104 68.3073 141.156 67.8125 141.156C67.2917 141.156 66.8281 141.065 66.4219 140.883C66.0208 140.701 65.7031 140.424 65.4688 140.055C65.2396 139.685 65.125 139.216 65.125 138.648C65.125 137.794 65.4635 137.138 66.1406 136.68C66.8177 136.221 67.849 135.971 69.2344 135.93L70.7109 135.867V135.344C70.7109 134.604 70.5521 134.086 70.2344 133.789C69.9167 133.492 69.4688 133.344 68.8906 133.344C68.4427 133.344 68.0156 133.409 67.6094 133.539C67.2031 133.669 66.8177 133.823 66.4531 134L66.0547 133.016C66.4401 132.818 66.8828 132.648 67.3828 132.508C67.8828 132.367 68.4089 132.297 68.9609 132.297ZM70.6953 136.781L69.3906 136.836C68.3229 136.878 67.5703 137.052 67.1328 137.359C66.6953 137.667 66.4766 138.102 66.4766 138.664C66.4766 139.154 66.625 139.516 66.9219 139.75C67.2188 139.984 67.612 140.102 68.1016 140.102C68.862 140.102 69.4844 139.891 69.9688 139.469C70.4531 139.047 70.6953 138.414 70.6953 137.57V136.781ZM78.5391 132.281C78.7109 132.281 78.8906 132.292 79.0781 132.312C79.2656 132.328 79.4323 132.352 79.5781 132.383L79.4141 133.586C79.2734 133.549 79.1172 133.521 78.9453 133.5C78.7734 133.479 78.612 133.469 78.4609 133.469C78.1172 133.469 77.7917 133.539 77.4844 133.68C77.1823 133.815 76.9167 134.013 76.6875 134.273C76.4583 134.529 76.2786 134.839 76.1484 135.203C76.0182 135.562 75.9531 135.964 75.9531 136.406V141H74.6484V132.438H75.7266L75.8672 134.016H75.9219C76.099 133.698 76.3125 133.409 76.5625 133.148C76.8125 132.883 77.1016 132.672 77.4297 132.516C77.763 132.359 78.1328 132.281 78.5391 132.281ZM83.9609 140.094C84.1745 140.094 84.3932 140.076 84.6172 140.039C84.8411 140.003 85.0234 139.958 85.1641 139.906V140.914C85.013 140.982 84.8021 141.039 84.5312 141.086C84.2656 141.133 84.0052 141.156 83.75 141.156C83.2969 141.156 82.8854 141.078 82.5156 140.922C82.1458 140.76 81.849 140.49 81.625 140.109C81.4062 139.729 81.2969 139.203 81.2969 138.531V133.453H80.0781V132.82L81.3047 132.312L81.8203 130.453H82.6016V132.438H85.1094V133.453H82.6016V138.492C82.6016 139.029 82.724 139.43 82.9688 139.695C83.2188 139.961 83.5495 140.094 83.9609 140.094ZM90.1953 132.281C90.9245 132.281 91.5495 132.443 92.0703 132.766C92.5911 133.089 92.9896 133.542 93.2656 134.125C93.5417 134.703 93.6797 135.38 93.6797 136.156V136.961H87.7656C87.7812 137.966 88.0312 138.732 88.5156 139.258C89 139.784 89.6823 140.047 90.5625 140.047C91.1042 140.047 91.5833 139.997 92 139.898C92.4167 139.799 92.849 139.654 93.2969 139.461V140.602C92.8646 140.794 92.4349 140.935 92.0078 141.023C91.5859 141.112 91.0859 141.156 90.5078 141.156C89.6849 141.156 88.9661 140.99 88.3516 140.656C87.7422 140.318 87.2682 139.823 86.9297 139.172C86.5911 138.521 86.4219 137.724 86.4219 136.781C86.4219 135.859 86.5755 135.062 86.8828 134.391C87.1953 133.714 87.6328 133.193 88.1953 132.828C88.763 132.464 89.4297 132.281 90.1953 132.281ZM90.1797 133.344C89.487 133.344 88.9349 133.57 88.5234 134.023C88.112 134.477 87.8672 135.109 87.7891 135.922H92.3203C92.3151 135.411 92.2344 134.964 92.0781 134.578C91.9271 134.188 91.6953 133.885 91.3828 133.672C91.0703 133.453 90.6693 133.344 90.1797 133.344ZM101.422 138.656C101.422 139.203 101.284 139.664 101.008 140.039C100.737 140.409 100.346 140.688 99.8359 140.875C99.3307 141.062 98.7266 141.156 98.0234 141.156C97.4245 141.156 96.9062 141.109 96.4688 141.016C96.0312 140.922 95.6484 140.789 95.3203 140.617V139.422C95.6693 139.594 96.0859 139.75 96.5703 139.891C97.0547 140.031 97.5495 140.102 98.0547 140.102C98.7943 140.102 99.3307 139.982 99.6641 139.742C99.9974 139.503 100.164 139.177 100.164 138.766C100.164 138.531 100.096 138.326 99.9609 138.148C99.8307 137.966 99.6094 137.792 99.2969 137.625C98.9844 137.453 98.5521 137.266 98 137.062C97.4531 136.854 96.9792 136.648 96.5781 136.445C96.1823 136.237 95.875 135.984 95.6562 135.688C95.4427 135.391 95.3359 135.005 95.3359 134.531C95.3359 133.807 95.6276 133.253 96.2109 132.867C96.7995 132.477 97.5703 132.281 98.5234 132.281C99.0391 132.281 99.5208 132.333 99.9688 132.438C100.422 132.536 100.844 132.672 101.234 132.844L100.797 133.883C100.443 133.732 100.065 133.604 99.6641 133.5C99.263 133.396 98.8542 133.344 98.4375 133.344C97.8385 133.344 97.3776 133.443 97.0547 133.641C96.737 133.839 96.5781 134.109 96.5781 134.453C96.5781 134.719 96.651 134.938 96.7969 135.109C96.9479 135.281 97.1875 135.443 97.5156 135.594C97.8438 135.745 98.276 135.922 98.8125 136.125C99.349 136.323 99.8125 136.529 100.203 136.742C100.594 136.951 100.893 137.206 101.102 137.508C101.315 137.805 101.422 138.188 101.422 138.656Z" fill="white"/>
<path d="M2 172C2 167.582 5.58172 164 10 164H334C338.418 164 342 167.582 342 172V204C342 208.418 338.418 212 334 212H10C5.58172 212 2 208.418 2 204V172Z" fill="white"/>
<g clip-path="url(#clip4_3847_9358)">
<path d="M32 195H20C19.45 195 19 194.55 19 194V182C19 181.45 19.45 181 20 181H32C32.55 181 33 181.45 33 182V194C33 194.55 32.55 195 32 195ZM33 179H19C17.9 179 17 179.9 17 181V195C17 196.1 17.9 197 19 197H33C34.1 197 35 196.1 35 195V181C35 179.9 34.1 179 33 179Z" fill="#38485C"/>
</g>
<path d="M56.5859 194L52.75 183.891H52.6875C52.7083 184.104 52.7266 184.365 52.7422 184.672C52.7578 184.979 52.7708 185.315 52.7812 185.68C52.7917 186.039 52.7969 186.406 52.7969 186.781V194H51.5625V182.578H53.5312L57.1484 192.078H57.2031L60.875 182.578H62.8281V194H61.5156V186.688C61.5156 186.349 61.5208 186.01 61.5312 185.672C61.5417 185.328 61.5547 185.005 61.5703 184.703C61.5859 184.396 61.6016 184.13 61.6172 183.906H61.5547L57.6719 194H56.5859ZM67.0547 185.438V194H65.7578V185.438H67.0547ZM66.4219 182.234C66.6354 182.234 66.8177 182.305 66.9688 182.445C67.125 182.581 67.2031 182.794 67.2031 183.086C67.2031 183.372 67.125 183.586 66.9688 183.727C66.8177 183.867 66.6354 183.938 66.4219 183.938C66.1979 183.938 66.0104 183.867 65.8594 183.727C65.7135 183.586 65.6406 183.372 65.6406 183.086C65.6406 182.794 65.7135 182.581 65.8594 182.445C66.0104 182.305 66.1979 182.234 66.4219 182.234ZM73.1016 185.281C73.8307 185.281 74.4557 185.443 74.9766 185.766C75.4974 186.089 75.8958 186.542 76.1719 187.125C76.4479 187.703 76.5859 188.38 76.5859 189.156V189.961H70.6719C70.6875 190.966 70.9375 191.732 71.4219 192.258C71.9062 192.784 72.5885 193.047 73.4688 193.047C74.0104 193.047 74.4896 192.997 74.9062 192.898C75.3229 192.799 75.7552 192.654 76.2031 192.461V193.602C75.7708 193.794 75.3411 193.935 74.9141 194.023C74.4922 194.112 73.9922 194.156 73.4141 194.156C72.5911 194.156 71.8724 193.99 71.2578 193.656C70.6484 193.318 70.1745 192.823 69.8359 192.172C69.4974 191.521 69.3281 190.724 69.3281 189.781C69.3281 188.859 69.4818 188.062 69.7891 187.391C70.1016 186.714 70.5391 186.193 71.1016 185.828C71.6693 185.464 72.3359 185.281 73.1016 185.281ZM73.0859 186.344C72.3932 186.344 71.8411 186.57 71.4297 187.023C71.0182 187.477 70.7734 188.109 70.6953 188.922H75.2266C75.2214 188.411 75.1406 187.964 74.9844 187.578C74.8333 187.188 74.6016 186.885 74.2891 186.672C73.9766 186.453 73.5755 186.344 73.0859 186.344ZM75.25 181.742V181.898C75.1458 182.049 75.0026 182.232 74.8203 182.445C74.6432 182.654 74.4453 182.875 74.2266 183.109C74.0078 183.339 73.7865 183.557 73.5625 183.766C73.3438 183.974 73.1406 184.154 72.9531 184.305H72.0859V184.117C72.2526 183.919 72.4349 183.682 72.6328 183.406C72.8307 183.125 73.0234 182.839 73.2109 182.547C73.3984 182.25 73.5547 181.982 73.6797 181.742H75.25ZM82.6797 185.281C82.8516 185.281 83.0312 185.292 83.2188 185.312C83.4062 185.328 83.5729 185.352 83.7188 185.383L83.5547 186.586C83.4141 186.549 83.2578 186.521 83.0859 186.5C82.9141 186.479 82.7526 186.469 82.6016 186.469C82.2578 186.469 81.9323 186.539 81.625 186.68C81.3229 186.815 81.0573 187.013 80.8281 187.273C80.599 187.529 80.4193 187.839 80.2891 188.203C80.1589 188.562 80.0938 188.964 80.0938 189.406V194H78.7891V185.438H79.8672L80.0078 187.016H80.0625C80.2396 186.698 80.4531 186.409 80.7031 186.148C80.9531 185.883 81.2422 185.672 81.5703 185.516C81.9036 185.359 82.2734 185.281 82.6797 185.281ZM88.7656 194.156C87.9948 194.156 87.3151 193.997 86.7266 193.68C86.138 193.362 85.6797 192.878 85.3516 192.227C85.0234 191.576 84.8594 190.755 84.8594 189.766C84.8594 188.729 85.0312 187.883 85.375 187.227C85.724 186.565 86.2031 186.076 86.8125 185.758C87.4219 185.44 88.1146 185.281 88.8906 185.281C89.3177 185.281 89.7292 185.326 90.125 185.414C90.526 185.497 90.8542 185.604 91.1094 185.734L90.7188 186.82C90.4583 186.716 90.1562 186.622 89.8125 186.539C89.474 186.456 89.1562 186.414 88.8594 186.414C88.2656 186.414 87.7708 186.542 87.375 186.797C86.9844 187.052 86.6901 187.427 86.4922 187.922C86.2995 188.417 86.2031 189.026 86.2031 189.75C86.2031 190.443 86.2969 191.034 86.4844 191.523C86.6771 192.013 86.9609 192.388 87.3359 192.648C87.7161 192.904 88.1901 193.031 88.7578 193.031C89.2109 193.031 89.6198 192.984 89.9844 192.891C90.349 192.792 90.6797 192.677 90.9766 192.547V193.703C90.6901 193.849 90.3698 193.961 90.0156 194.039C89.6667 194.117 89.25 194.156 88.7656 194.156ZM100.391 189.703C100.391 190.406 100.299 191.034 100.117 191.586C99.9349 192.138 99.6719 192.604 99.3281 192.984C98.9844 193.365 98.5677 193.656 98.0781 193.859C97.5938 194.057 97.0443 194.156 96.4297 194.156C95.8568 194.156 95.3307 194.057 94.8516 193.859C94.3776 193.656 93.9661 193.365 93.6172 192.984C93.2734 192.604 93.0052 192.138 92.8125 191.586C92.625 191.034 92.5312 190.406 92.5312 189.703C92.5312 188.766 92.6901 187.969 93.0078 187.312C93.3255 186.651 93.7786 186.148 94.3672 185.805C94.9609 185.456 95.6667 185.281 96.4844 185.281C97.2656 185.281 97.9479 185.456 98.5312 185.805C99.1198 186.154 99.5755 186.659 99.8984 187.32C100.227 187.977 100.391 188.771 100.391 189.703ZM93.875 189.703C93.875 190.391 93.9661 190.987 94.1484 191.492C94.3307 191.997 94.612 192.388 94.9922 192.664C95.3724 192.94 95.862 193.078 96.4609 193.078C97.0547 193.078 97.5417 192.94 97.9219 192.664C98.3073 192.388 98.5911 191.997 98.7734 191.492C98.9557 190.987 99.0469 190.391 99.0469 189.703C99.0469 189.021 98.9557 188.432 98.7734 187.938C98.5911 187.438 98.3099 187.052 97.9297 186.781C97.5495 186.51 97.0573 186.375 96.4531 186.375C95.5625 186.375 94.9089 186.669 94.4922 187.258C94.0807 187.846 93.875 188.661 93.875 189.703ZM103.938 194H102.633V181.844H103.938V194ZM109.977 185.281C110.706 185.281 111.331 185.443 111.852 185.766C112.372 186.089 112.771 186.542 113.047 187.125C113.323 187.703 113.461 188.38 113.461 189.156V189.961H107.547C107.562 190.966 107.812 191.732 108.297 192.258C108.781 192.784 109.464 193.047 110.344 193.047C110.885 193.047 111.365 192.997 111.781 192.898C112.198 192.799 112.63 192.654 113.078 192.461V193.602C112.646 193.794 112.216 193.935 111.789 194.023C111.367 194.112 110.867 194.156 110.289 194.156C109.466 194.156 108.747 193.99 108.133 193.656C107.523 193.318 107.049 192.823 106.711 192.172C106.372 191.521 106.203 190.724 106.203 189.781C106.203 188.859 106.357 188.062 106.664 187.391C106.977 186.714 107.414 186.193 107.977 185.828C108.544 185.464 109.211 185.281 109.977 185.281ZM109.961 186.344C109.268 186.344 108.716 186.57 108.305 187.023C107.893 187.477 107.648 188.109 107.57 188.922H112.102C112.096 188.411 112.016 187.964 111.859 187.578C111.708 187.188 111.477 186.885 111.164 186.672C110.852 186.453 110.451 186.344 109.961 186.344ZM121.203 191.656C121.203 192.203 121.065 192.664 120.789 193.039C120.518 193.409 120.128 193.688 119.617 193.875C119.112 194.062 118.508 194.156 117.805 194.156C117.206 194.156 116.688 194.109 116.25 194.016C115.812 193.922 115.43 193.789 115.102 193.617V192.422C115.451 192.594 115.867 192.75 116.352 192.891C116.836 193.031 117.331 193.102 117.836 193.102C118.576 193.102 119.112 192.982 119.445 192.742C119.779 192.503 119.945 192.177 119.945 191.766C119.945 191.531 119.878 191.326 119.742 191.148C119.612 190.966 119.391 190.792 119.078 190.625C118.766 190.453 118.333 190.266 117.781 190.062C117.234 189.854 116.76 189.648 116.359 189.445C115.964 189.237 115.656 188.984 115.438 188.688C115.224 188.391 115.117 188.005 115.117 187.531C115.117 186.807 115.409 186.253 115.992 185.867C116.581 185.477 117.352 185.281 118.305 185.281C118.82 185.281 119.302 185.333 119.75 185.438C120.203 185.536 120.625 185.672 121.016 185.844L120.578 186.883C120.224 186.732 119.846 186.604 119.445 186.5C119.044 186.396 118.635 186.344 118.219 186.344C117.62 186.344 117.159 186.443 116.836 186.641C116.518 186.839 116.359 187.109 116.359 187.453C116.359 187.719 116.432 187.938 116.578 188.109C116.729 188.281 116.969 188.443 117.297 188.594C117.625 188.745 118.057 188.922 118.594 189.125C119.13 189.323 119.594 189.529 119.984 189.742C120.375 189.951 120.674 190.206 120.883 190.508C121.096 190.805 121.203 191.188 121.203 191.656Z" fill="#38485C"/>
<path d="M2 225C2 220.582 5.58172 217 10 217H334C338.418 217 342 220.582 342 225V257C342 261.418 338.418 265 334 265H10C5.58172 265 2 261.418 2 257V225Z" fill="#007BC7"/>
<g clip-path="url(#clip5_3847_9358)">
<path d="M33 232H19C17.9 232 17 232.9 17 234V248C17 249.1 17.9 250 19 250H33C34.1 250 35 249.1 35 248V234C35 232.9 34.1 232 33 232ZM24.71 245.29C24.32 245.68 23.69 245.68 23.3 245.29L19.71 241.7C19.32 241.31 19.32 240.68 19.71 240.29C20.1 239.9 20.73 239.9 21.12 240.29L24 243.17L30.88 236.29C31.27 235.9 31.9 235.9 32.29 236.29C32.68 236.68 32.68 237.31 32.29 237.7L24.71 245.29Z" fill="white"/>
</g>
<path d="M49.9141 250.008C49.6536 250.008 49.4245 249.99 49.2266 249.953C49.0286 249.917 48.8594 249.867 48.7188 249.805V248.672C48.8854 248.724 49.0651 248.763 49.2578 248.789C49.4505 248.82 49.6589 248.836 49.8828 248.836C50.1745 248.836 50.4427 248.779 50.6875 248.664C50.9323 248.549 51.1276 248.354 51.2734 248.078C51.4193 247.802 51.4922 247.422 51.4922 246.938V235.578H52.8281V246.836C52.8281 247.549 52.7083 248.141 52.4688 248.609C52.2344 249.078 51.8984 249.427 51.4609 249.656C51.0286 249.891 50.513 250.008 49.9141 250.008ZM62.7344 238.438V247H61.6719L61.4844 245.797H61.4141C61.237 246.094 61.0078 246.344 60.7266 246.547C60.4453 246.75 60.1276 246.901 59.7734 247C59.4245 247.104 59.0521 247.156 58.6562 247.156C57.9792 247.156 57.4115 247.047 56.9531 246.828C56.4948 246.609 56.1484 246.271 55.9141 245.812C55.6849 245.354 55.5703 244.766 55.5703 244.047V238.438H56.8828V243.953C56.8828 244.667 57.0443 245.201 57.3672 245.555C57.6901 245.904 58.1823 246.078 58.8438 246.078C59.4792 246.078 59.9844 245.958 60.3594 245.719C60.7396 245.479 61.013 245.128 61.1797 244.664C61.3464 244.195 61.4297 243.622 61.4297 242.945V238.438H62.7344ZM68.7734 238.281C69.5026 238.281 70.1276 238.443 70.6484 238.766C71.1693 239.089 71.5677 239.542 71.8438 240.125C72.1198 240.703 72.2578 241.38 72.2578 242.156V242.961H66.3438C66.3594 243.966 66.6094 244.732 67.0938 245.258C67.5781 245.784 68.2604 246.047 69.1406 246.047C69.6823 246.047 70.1615 245.997 70.5781 245.898C70.9948 245.799 71.4271 245.654 71.875 245.461V246.602C71.4427 246.794 71.013 246.935 70.5859 247.023C70.1641 247.112 69.6641 247.156 69.0859 247.156C68.263 247.156 67.5443 246.99 66.9297 246.656C66.3203 246.318 65.8464 245.823 65.5078 245.172C65.1693 244.521 65 243.724 65 242.781C65 241.859 65.1536 241.062 65.4609 240.391C65.7734 239.714 66.2109 239.193 66.7734 238.828C67.3411 238.464 68.0078 238.281 68.7734 238.281ZM68.7578 239.344C68.0651 239.344 67.513 239.57 67.1016 240.023C66.6901 240.477 66.4453 241.109 66.3672 241.922H70.8984C70.8932 241.411 70.8125 240.964 70.6562 240.578C70.5052 240.188 70.2734 239.885 69.9609 239.672C69.6484 239.453 69.2474 239.344 68.7578 239.344ZM76.3438 247L73.0938 238.438H74.4844L76.3672 243.617C76.4974 243.971 76.6302 244.362 76.7656 244.789C76.901 245.216 76.9948 245.56 77.0469 245.82H77.1016C77.1641 245.56 77.2682 245.216 77.4141 244.789C77.5599 244.357 77.6927 243.966 77.8125 243.617L79.6953 238.438H81.0859L77.8281 247H76.3438ZM85.7578 238.281C86.487 238.281 87.112 238.443 87.6328 238.766C88.1536 239.089 88.5521 239.542 88.8281 240.125C89.1042 240.703 89.2422 241.38 89.2422 242.156V242.961H83.3281C83.3438 243.966 83.5938 244.732 84.0781 245.258C84.5625 245.784 85.2448 246.047 86.125 246.047C86.6667 246.047 87.1458 245.997 87.5625 245.898C87.9792 245.799 88.4115 245.654 88.8594 245.461V246.602C88.4271 246.794 87.9974 246.935 87.5703 247.023C87.1484 247.112 86.6484 247.156 86.0703 247.156C85.2474 247.156 84.5286 246.99 83.9141 246.656C83.3047 246.318 82.8307 245.823 82.4922 245.172C82.1536 244.521 81.9844 243.724 81.9844 242.781C81.9844 241.859 82.138 241.062 82.4453 240.391C82.7578 239.714 83.1953 239.193 83.7578 238.828C84.3255 238.464 84.9922 238.281 85.7578 238.281ZM85.7422 239.344C85.0495 239.344 84.4974 239.57 84.0859 240.023C83.6745 240.477 83.4297 241.109 83.3516 241.922H87.8828C87.8776 241.411 87.7969 240.964 87.6406 240.578C87.4896 240.188 87.2578 239.885 86.9453 239.672C86.6328 239.453 86.2318 239.344 85.7422 239.344ZM96.9844 244.656C96.9844 245.203 96.8464 245.664 96.5703 246.039C96.2995 246.409 95.9089 246.688 95.3984 246.875C94.8932 247.062 94.2891 247.156 93.5859 247.156C92.987 247.156 92.4688 247.109 92.0312 247.016C91.5938 246.922 91.2109 246.789 90.8828 246.617V245.422C91.2318 245.594 91.6484 245.75 92.1328 245.891C92.6172 246.031 93.112 246.102 93.6172 246.102C94.3568 246.102 94.8932 245.982 95.2266 245.742C95.5599 245.503 95.7266 245.177 95.7266 244.766C95.7266 244.531 95.6589 244.326 95.5234 244.148C95.3932 243.966 95.1719 243.792 94.8594 243.625C94.5469 243.453 94.1146 243.266 93.5625 243.062C93.0156 242.854 92.5417 242.648 92.1406 242.445C91.7448 242.237 91.4375 241.984 91.2188 241.688C91.0052 241.391 90.8984 241.005 90.8984 240.531C90.8984 239.807 91.1901 239.253 91.7734 238.867C92.362 238.477 93.1328 238.281 94.0859 238.281C94.6016 238.281 95.0833 238.333 95.5312 238.438C95.9844 238.536 96.4062 238.672 96.7969 238.844L96.3594 239.883C96.0052 239.732 95.6276 239.604 95.2266 239.5C94.8255 239.396 94.4167 239.344 94 239.344C93.401 239.344 92.9401 239.443 92.6172 239.641C92.2995 239.839 92.1406 240.109 92.1406 240.453C92.1406 240.719 92.2135 240.938 92.3594 241.109C92.5104 241.281 92.75 241.443 93.0781 241.594C93.4062 241.745 93.8385 241.922 94.375 242.125C94.9115 242.323 95.375 242.529 95.7656 242.742C96.1562 242.951 96.4557 243.206 96.6641 243.508C96.8776 243.805 96.9844 244.188 96.9844 244.656Z" fill="white"/>
<path d="M2 278C2 273.582 5.58172 270 10 270H334C338.418 270 342 273.582 342 278V310C342 314.418 338.418 318 334 318H10C5.58172 318 2 314.418 2 310V278Z" fill="white"/>
<g clip-path="url(#clip6_3847_9358)">
<path d="M32 301H20C19.45 301 19 300.55 19 300V288C19 287.45 19.45 287 20 287H32C32.55 287 33 287.45 33 288V300C33 300.55 32.55 301 32 301ZM33 285H19C17.9 285 17 285.9 17 287V301C17 302.1 17.9 303 19 303H33C34.1 303 35 302.1 35 301V287C35 285.9 34.1 285 33 285Z" fill="#38485C"/>
</g>
<path d="M59.5391 288.578L55.4375 300H54.1016L50 288.578H51.3906L54.0625 296.102C54.1719 296.404 54.2682 296.693 54.3516 296.969C54.4401 297.245 54.5182 297.51 54.5859 297.766C54.6536 298.021 54.7135 298.268 54.7656 298.508C54.8177 298.268 54.8776 298.021 54.9453 297.766C55.013 297.505 55.0911 297.237 55.1797 296.961C55.2682 296.68 55.3672 296.385 55.4766 296.078L58.1328 288.578H59.5391ZM62.2109 291.438V300H60.9141V291.438H62.2109ZM61.5781 288.234C61.7917 288.234 61.974 288.305 62.125 288.445C62.2812 288.581 62.3594 288.794 62.3594 289.086C62.3594 289.372 62.2812 289.586 62.125 289.727C61.974 289.867 61.7917 289.938 61.5781 289.938C61.3542 289.938 61.1667 289.867 61.0156 289.727C60.8698 289.586 60.7969 289.372 60.7969 289.086C60.7969 288.794 60.8698 288.581 61.0156 288.445C61.1667 288.305 61.3542 288.234 61.5781 288.234ZM68.2578 291.281C68.987 291.281 69.612 291.443 70.1328 291.766C70.6536 292.089 71.0521 292.542 71.3281 293.125C71.6042 293.703 71.7422 294.38 71.7422 295.156V295.961H65.8281C65.8438 296.966 66.0938 297.732 66.5781 298.258C67.0625 298.784 67.7448 299.047 68.625 299.047C69.1667 299.047 69.6458 298.997 70.0625 298.898C70.4792 298.799 70.9115 298.654 71.3594 298.461V299.602C70.9271 299.794 70.4974 299.935 70.0703 300.023C69.6484 300.112 69.1484 300.156 68.5703 300.156C67.7474 300.156 67.0286 299.99 66.4141 299.656C65.8047 299.318 65.3307 298.823 64.9922 298.172C64.6536 297.521 64.4844 296.724 64.4844 295.781C64.4844 294.859 64.638 294.062 64.9453 293.391C65.2578 292.714 65.6953 292.193 66.2578 291.828C66.8255 291.464 67.4922 291.281 68.2578 291.281ZM68.2422 292.344C67.5495 292.344 66.9974 292.57 66.5859 293.023C66.1745 293.477 65.9297 294.109 65.8516 294.922H70.3828C70.3776 294.411 70.2969 293.964 70.1406 293.578C69.9896 293.188 69.7578 292.885 69.4453 292.672C69.1328 292.453 68.7318 292.344 68.2422 292.344ZM77.8359 291.281C78.0078 291.281 78.1875 291.292 78.375 291.312C78.5625 291.328 78.7292 291.352 78.875 291.383L78.7109 292.586C78.5703 292.549 78.4141 292.521 78.2422 292.5C78.0703 292.479 77.9089 292.469 77.7578 292.469C77.4141 292.469 77.0885 292.539 76.7812 292.68C76.4792 292.815 76.2135 293.013 75.9844 293.273C75.7552 293.529 75.5755 293.839 75.4453 294.203C75.3151 294.562 75.25 294.964 75.25 295.406V300H73.9453V291.438H75.0234L75.1641 293.016H75.2188C75.3958 292.698 75.6094 292.409 75.8594 292.148C76.1094 291.883 76.3984 291.672 76.7266 291.516C77.0599 291.359 77.4297 291.281 77.8359 291.281ZM84.5469 291.281C85.5625 291.281 86.3307 291.531 86.8516 292.031C87.3724 292.526 87.6328 293.323 87.6328 294.422V300H86.3516V294.508C86.3516 293.794 86.1875 293.26 85.8594 292.906C85.5365 292.552 85.0391 292.375 84.3672 292.375C83.4193 292.375 82.7526 292.643 82.3672 293.18C81.9818 293.716 81.7891 294.495 81.7891 295.516V300H80.4922V291.438H81.5391L81.7344 292.672H81.8047C81.987 292.37 82.2188 292.117 82.5 291.914C82.7812 291.706 83.0964 291.549 83.4453 291.445C83.7943 291.336 84.1615 291.281 84.5469 291.281ZM93.6016 291.281C94.3307 291.281 94.9557 291.443 95.4766 291.766C95.9974 292.089 96.3958 292.542 96.6719 293.125C96.9479 293.703 97.0859 294.38 97.0859 295.156V295.961H91.1719C91.1875 296.966 91.4375 297.732 91.9219 298.258C92.4062 298.784 93.0885 299.047 93.9688 299.047C94.5104 299.047 94.9896 298.997 95.4062 298.898C95.8229 298.799 96.2552 298.654 96.7031 298.461V299.602C96.2708 299.794 95.8411 299.935 95.4141 300.023C94.9922 300.112 94.4922 300.156 93.9141 300.156C93.0911 300.156 92.3724 299.99 91.7578 299.656C91.1484 299.318 90.6745 298.823 90.3359 298.172C89.9974 297.521 89.8281 296.724 89.8281 295.781C89.8281 294.859 89.9818 294.062 90.2891 293.391C90.6016 292.714 91.0391 292.193 91.6016 291.828C92.1693 291.464 92.8359 291.281 93.6016 291.281ZM93.5859 292.344C92.8932 292.344 92.3411 292.57 91.9297 293.023C91.5182 293.477 91.2734 294.109 91.1953 294.922H95.7266C95.7214 294.411 95.6406 293.964 95.4844 293.578C95.3333 293.188 95.1016 292.885 94.7891 292.672C94.4766 292.453 94.0755 292.344 93.5859 292.344ZM104.828 297.656C104.828 298.203 104.69 298.664 104.414 299.039C104.143 299.409 103.753 299.688 103.242 299.875C102.737 300.062 102.133 300.156 101.43 300.156C100.831 300.156 100.312 300.109 99.875 300.016C99.4375 299.922 99.0547 299.789 98.7266 299.617V298.422C99.0755 298.594 99.4922 298.75 99.9766 298.891C100.461 299.031 100.956 299.102 101.461 299.102C102.201 299.102 102.737 298.982 103.07 298.742C103.404 298.503 103.57 298.177 103.57 297.766C103.57 297.531 103.503 297.326 103.367 297.148C103.237 296.966 103.016 296.792 102.703 296.625C102.391 296.453 101.958 296.266 101.406 296.062C100.859 295.854 100.385 295.648 99.9844 295.445C99.5885 295.237 99.2812 294.984 99.0625 294.688C98.849 294.391 98.7422 294.005 98.7422 293.531C98.7422 292.807 99.0339 292.253 99.6172 291.867C100.206 291.477 100.977 291.281 101.93 291.281C102.445 291.281 102.927 291.333 103.375 291.438C103.828 291.536 104.25 291.672 104.641 291.844L104.203 292.883C103.849 292.732 103.471 292.604 103.07 292.5C102.669 292.396 102.26 292.344 101.844 292.344C101.245 292.344 100.784 292.443 100.461 292.641C100.143 292.839 99.9844 293.109 99.9844 293.453C99.9844 293.719 100.057 293.938 100.203 294.109C100.354 294.281 100.594 294.443 100.922 294.594C101.25 294.745 101.682 294.922 102.219 295.125C102.755 295.323 103.219 295.529 103.609 295.742C104 295.951 104.299 296.206 104.508 296.508C104.721 296.805 104.828 297.188 104.828 297.656Z" fill="#38485C"/>
<rect x="1.5" y="57.5" width="341" height="261" rx="8.5" stroke="#E6EBF0"/>
<defs>
<clipPath id="clip0_3847_9358">
<rect width="24" height="24" fill="white" transform="translate(14 14)"/>
</clipPath>
<clipPath id="clip1_3847_9358">
<rect width="24" height="24" fill="white" transform="translate(306 14)"/>
</clipPath>
<clipPath id="clip2_3847_9358">
<rect width="24" height="24" fill="white" transform="translate(14 70)"/>
</clipPath>
<clipPath id="clip3_3847_9358">
<rect width="24" height="24" fill="white" transform="translate(14 123)"/>
</clipPath>
<clipPath id="clip4_3847_9358">
<rect width="24" height="24" fill="white" transform="translate(14 176)"/>
</clipPath>
<clipPath id="clip5_3847_9358">
<rect width="24" height="24" fill="white" transform="translate(14 229)"/>
</clipPath>
<clipPath id="clip6_3847_9358">
<rect width="24" height="24" fill="white" transform="translate(14 282)"/>
</clipPath>
</defs>
</svg>
