<svg width="344" height="52" viewBox="0 0 344 52" fill="none" xmlns="http://www.w3.org/2000/svg">
<rect x="1" y="1" width="342" height="50" rx="9" fill="white"/>
<g clip-path="url(#clip0_3847_9359)">
<path d="M34 17H33V16C33 15.45 32.55 15 32 15C31.45 15 31 15.45 31 16V17H21V16C21 15.45 20.55 15 20 15C19.45 15 19 15.45 19 16V17H18C16.9 17 16 17.9 16 19V35C16 36.1 16.9 37 18 37H34C35.1 37 36 36.1 36 35V19C36 17.9 35.1 17 34 17ZM33 35H19C18.45 35 18 34.55 18 34V22H34V34C34 34.55 33.55 35 33 35Z" fill="#007BC7"/>
</g>
<path d="M44.376 32C44.112 32 43.908 31.934 43.764 31.802C43.632 31.658 43.566 31.454 43.566 31.19V20.12C43.566 19.856 43.632 19.658 43.764 19.526C43.908 19.382 44.112 19.31 44.376 19.31H47.85C49.902 19.31 51.486 19.85 52.602 20.93C53.718 22.01 54.276 23.582 54.276 25.646C54.276 26.678 54.132 27.59 53.844 28.382C53.568 29.162 53.154 29.822 52.602 30.362C52.05 30.902 51.378 31.31 50.586 31.586C49.794 31.862 48.882 32 47.85 32H44.376ZM45.042 30.74H47.742C48.582 30.74 49.308 30.632 49.92 30.416C50.544 30.2 51.06 29.882 51.468 29.462C51.888 29.042 52.2 28.514 52.404 27.878C52.608 27.23 52.71 26.486 52.71 25.646C52.71 23.954 52.296 22.688 51.468 21.848C50.64 20.996 49.398 20.57 47.742 20.57H45.042V30.74ZM57.4474 32.09C57.2074 32.09 57.0274 32.024 56.9074 31.892C56.7874 31.748 56.7274 31.55 56.7274 31.298V23.936C56.7274 23.684 56.7874 23.492 56.9074 23.36C57.0274 23.228 57.2074 23.162 57.4474 23.162C57.6754 23.162 57.8554 23.228 57.9874 23.36C58.1194 23.492 58.1854 23.684 58.1854 23.936V31.298C58.1854 31.55 58.1194 31.748 57.9874 31.892C57.8674 32.024 57.6874 32.09 57.4474 32.09ZM58.0414 21.992C57.9574 22.112 57.8554 22.184 57.7354 22.208C57.6154 22.22 57.5014 22.202 57.3934 22.154C57.2854 22.094 57.2074 22.01 57.1594 21.902C57.1114 21.794 57.1234 21.668 57.1954 21.524L58.7074 18.59C58.7914 18.422 58.8994 18.314 59.0314 18.266C59.1634 18.218 59.2954 18.212 59.4274 18.248C59.5714 18.272 59.6914 18.332 59.7874 18.428C59.8834 18.524 59.9374 18.638 59.9494 18.77C59.9734 18.902 59.9374 19.04 59.8414 19.184L58.0414 21.992ZM63.665 32.162C63.065 32.162 62.525 32.048 62.045 31.82C61.577 31.58 61.205 31.256 60.929 30.848C60.653 30.44 60.515 29.984 60.515 29.48C60.515 28.832 60.677 28.322 61.001 27.95C61.337 27.578 61.883 27.314 62.639 27.158C63.407 27.002 64.451 26.924 65.771 26.924H66.581V27.878H65.789C64.817 27.878 64.049 27.926 63.485 28.022C62.933 28.106 62.543 28.256 62.315 28.472C62.099 28.688 61.991 28.994 61.991 29.39C61.991 29.882 62.159 30.284 62.495 30.596C62.843 30.908 63.311 31.064 63.899 31.064C64.379 31.064 64.799 30.95 65.159 30.722C65.531 30.494 65.819 30.182 66.023 29.786C66.239 29.39 66.347 28.934 66.347 28.418V26.366C66.347 25.622 66.197 25.088 65.897 24.764C65.597 24.428 65.105 24.26 64.421 24.26C64.001 24.26 63.581 24.314 63.161 24.422C62.741 24.53 62.297 24.704 61.829 24.944C61.661 25.028 61.517 25.058 61.397 25.034C61.277 24.998 61.181 24.932 61.109 24.836C61.037 24.74 60.995 24.632 60.983 24.512C60.971 24.38 60.995 24.254 61.055 24.134C61.127 24.014 61.235 23.918 61.379 23.846C61.907 23.582 62.429 23.39 62.945 23.27C63.461 23.15 63.953 23.09 64.421 23.09C65.177 23.09 65.801 23.216 66.293 23.468C66.785 23.708 67.151 24.08 67.391 24.584C67.631 25.076 67.751 25.712 67.751 26.492V31.37C67.751 31.61 67.691 31.796 67.571 31.928C67.463 32.06 67.301 32.126 67.085 32.126C66.857 32.126 66.683 32.06 66.563 31.928C66.443 31.796 66.383 31.61 66.383 31.37V29.966H66.545C66.449 30.422 66.263 30.812 65.987 31.136C65.723 31.46 65.393 31.712 64.997 31.892C64.601 32.072 64.157 32.162 63.665 32.162ZM73.4079 32.162C72.8679 32.162 72.3219 32.096 71.7699 31.964C71.2299 31.832 70.7259 31.604 70.2579 31.28C70.1379 31.196 70.0539 31.1 70.0059 30.992C69.9579 30.872 69.9399 30.758 69.9519 30.65C69.9759 30.53 70.0239 30.428 70.0959 30.344C70.1799 30.26 70.2759 30.212 70.3839 30.2C70.5039 30.176 70.6359 30.2 70.7799 30.272C71.2479 30.56 71.6979 30.764 72.1299 30.884C72.5739 30.992 73.0119 31.046 73.4439 31.046C74.1279 31.046 74.6439 30.92 74.9919 30.668C75.3399 30.416 75.5139 30.074 75.5139 29.642C75.5139 29.306 75.3999 29.042 75.1719 28.85C74.9439 28.646 74.5839 28.49 74.0919 28.382L72.4539 28.022C71.6979 27.866 71.1339 27.596 70.7619 27.212C70.4019 26.828 70.2219 26.33 70.2219 25.718C70.2219 25.178 70.3599 24.716 70.6359 24.332C70.9239 23.936 71.3259 23.63 71.8419 23.414C72.3579 23.198 72.9579 23.09 73.6419 23.09C74.1699 23.09 74.6679 23.162 75.1359 23.306C75.6159 23.438 76.0479 23.654 76.4319 23.954C76.5519 24.038 76.6299 24.14 76.6659 24.26C76.7139 24.368 76.7199 24.482 76.6839 24.602C76.6599 24.71 76.6059 24.806 76.5219 24.89C76.4379 24.962 76.3359 25.004 76.2159 25.016C76.0959 25.028 75.9699 24.992 75.8379 24.908C75.4779 24.668 75.1119 24.494 74.7399 24.386C74.3679 24.266 74.0019 24.206 73.6419 24.206C72.9699 24.206 72.4599 24.338 72.1119 24.602C71.7639 24.866 71.5899 25.214 71.5899 25.646C71.5899 25.982 71.6979 26.258 71.9139 26.474C72.1299 26.69 72.4659 26.846 72.9219 26.942L74.5599 27.284C75.3399 27.452 75.9219 27.722 76.3059 28.094C76.7019 28.454 76.8999 28.946 76.8999 29.57C76.8999 30.362 76.5819 30.992 75.9459 31.46C75.3099 31.928 74.4639 32.162 73.4079 32.162ZM87.0925 32.162C86.3125 32.162 85.6285 31.976 85.0405 31.604C84.4645 31.232 84.0145 30.71 83.6905 30.038C83.3785 29.354 83.2225 28.55 83.2225 27.626C83.2225 26.69 83.3785 25.886 83.6905 25.214C84.0145 24.53 84.4645 24.008 85.0405 23.648C85.6285 23.276 86.3125 23.09 87.0925 23.09C87.8845 23.09 88.5625 23.288 89.1265 23.684C89.6905 24.08 90.0685 24.614 90.2605 25.286H90.0625V19.922C90.0625 19.682 90.1225 19.502 90.2425 19.382C90.3745 19.25 90.5605 19.184 90.8005 19.184C91.0285 19.184 91.2025 19.25 91.3225 19.382C91.4545 19.502 91.5205 19.682 91.5205 19.922V31.37C91.5205 31.61 91.4605 31.796 91.3405 31.928C91.2205 32.06 91.0405 32.126 90.8005 32.126C90.5725 32.126 90.3925 32.06 90.2605 31.928C90.1405 31.796 90.0805 31.61 90.0805 31.37V29.66L90.2785 29.912C90.0865 30.596 89.7025 31.142 89.1265 31.55C88.5625 31.958 87.8845 32.162 87.0925 32.162ZM87.3985 30.992C87.9385 30.992 88.4125 30.86 88.8205 30.596C89.2285 30.332 89.5405 29.948 89.7565 29.444C89.9845 28.94 90.0985 28.334 90.0985 27.626C90.0985 26.534 89.8525 25.7 89.3605 25.124C88.8805 24.548 88.2265 24.26 87.3985 24.26C86.8465 24.26 86.3665 24.392 85.9585 24.656C85.5625 24.908 85.2505 25.286 85.0225 25.79C84.8065 26.282 84.6985 26.894 84.6985 27.626C84.6985 28.706 84.9445 29.54 85.4365 30.128C85.9285 30.704 86.5825 30.992 87.3985 30.992ZM94.9767 32.09C94.7367 32.09 94.5567 32.024 94.4367 31.892C94.3167 31.748 94.2567 31.55 94.2567 31.298V23.936C94.2567 23.684 94.3167 23.492 94.4367 23.36C94.5567 23.228 94.7367 23.162 94.9767 23.162C95.2047 23.162 95.3847 23.228 95.5167 23.36C95.6487 23.492 95.7147 23.684 95.7147 23.936V31.298C95.7147 31.55 95.6487 31.748 95.5167 31.892C95.3967 32.024 95.2167 32.09 94.9767 32.09ZM94.9767 21.146C94.6767 21.146 94.4427 21.068 94.2747 20.912C94.1067 20.744 94.0227 20.522 94.0227 20.246C94.0227 19.958 94.1067 19.742 94.2747 19.598C94.4427 19.442 94.6767 19.364 94.9767 19.364C95.2887 19.364 95.5227 19.442 95.6787 19.598C95.8467 19.742 95.9307 19.958 95.9307 20.246C95.9307 20.522 95.8467 20.744 95.6787 20.912C95.5227 21.068 95.2887 21.146 94.9767 21.146ZM101.392 32.162C100.852 32.162 100.306 32.096 99.7543 31.964C99.2143 31.832 98.7103 31.604 98.2423 31.28C98.1223 31.196 98.0383 31.1 97.9903 30.992C97.9423 30.872 97.9243 30.758 97.9363 30.65C97.9603 30.53 98.0083 30.428 98.0803 30.344C98.1643 30.26 98.2603 30.212 98.3683 30.2C98.4883 30.176 98.6203 30.2 98.7643 30.272C99.2323 30.56 99.6823 30.764 100.114 30.884C100.558 30.992 100.996 31.046 101.428 31.046C102.112 31.046 102.628 30.92 102.976 30.668C103.324 30.416 103.498 30.074 103.498 29.642C103.498 29.306 103.384 29.042 103.156 28.85C102.928 28.646 102.568 28.49 102.076 28.382L100.438 28.022C99.6823 27.866 99.1183 27.596 98.7463 27.212C98.3863 26.828 98.2063 26.33 98.2063 25.718C98.2063 25.178 98.3443 24.716 98.6203 24.332C98.9083 23.936 99.3103 23.63 99.8263 23.414C100.342 23.198 100.942 23.09 101.626 23.09C102.154 23.09 102.652 23.162 103.12 23.306C103.6 23.438 104.032 23.654 104.416 23.954C104.536 24.038 104.614 24.14 104.65 24.26C104.698 24.368 104.704 24.482 104.668 24.602C104.644 24.71 104.59 24.806 104.506 24.89C104.422 24.962 104.32 25.004 104.2 25.016C104.08 25.028 103.954 24.992 103.822 24.908C103.462 24.668 103.096 24.494 102.724 24.386C102.352 24.266 101.986 24.206 101.626 24.206C100.954 24.206 100.444 24.338 100.096 24.602C99.7483 24.866 99.5743 25.214 99.5743 25.646C99.5743 25.982 99.6823 26.258 99.8983 26.474C100.114 26.69 100.45 26.846 100.906 26.942L102.544 27.284C103.324 27.452 103.906 27.722 104.29 28.094C104.686 28.454 104.884 28.946 104.884 29.57C104.884 30.362 104.566 30.992 103.93 31.46C103.294 31.928 102.448 32.162 101.392 32.162ZM107.826 35.366C107.586 35.366 107.406 35.3 107.286 35.168C107.166 35.048 107.106 34.868 107.106 34.628V23.864C107.106 23.624 107.166 23.444 107.286 23.324C107.406 23.192 107.58 23.126 107.808 23.126C108.048 23.126 108.228 23.192 108.348 23.324C108.48 23.444 108.546 23.624 108.546 23.864V25.574L108.348 25.322C108.54 24.638 108.918 24.098 109.482 23.702C110.058 23.294 110.742 23.09 111.534 23.09C112.314 23.09 112.992 23.276 113.568 23.648C114.156 24.008 114.606 24.53 114.918 25.214C115.242 25.886 115.404 26.69 115.404 27.626C115.404 28.55 115.242 29.354 114.918 30.038C114.606 30.71 114.162 31.232 113.586 31.604C113.01 31.976 112.326 32.162 111.534 32.162C110.742 32.162 110.064 31.964 109.5 31.568C108.936 31.16 108.552 30.62 108.348 29.948H108.564V34.628C108.564 34.868 108.498 35.048 108.366 35.168C108.234 35.3 108.054 35.366 107.826 35.366ZM111.228 30.992C111.78 30.992 112.254 30.86 112.65 30.596C113.058 30.332 113.37 29.948 113.586 29.444C113.814 28.94 113.928 28.334 113.928 27.626C113.928 26.534 113.682 25.7 113.19 25.124C112.71 24.548 112.056 24.26 111.228 24.26C110.688 24.26 110.214 24.392 109.806 24.656C109.398 24.908 109.08 25.286 108.852 25.79C108.636 26.282 108.528 26.894 108.528 27.626C108.528 28.706 108.774 29.54 109.266 30.128C109.758 30.704 110.412 30.992 111.228 30.992ZM121.236 32.162C120.384 32.162 119.646 31.976 119.022 31.604C118.398 31.232 117.912 30.71 117.564 30.038C117.228 29.354 117.06 28.55 117.06 27.626C117.06 26.93 117.156 26.306 117.348 25.754C117.54 25.19 117.822 24.71 118.194 24.314C118.566 23.918 119.004 23.618 119.508 23.414C120.024 23.198 120.6 23.09 121.236 23.09C122.088 23.09 122.826 23.276 123.45 23.648C124.074 24.02 124.554 24.548 124.89 25.232C125.238 25.904 125.412 26.702 125.412 27.626C125.412 28.322 125.316 28.946 125.124 29.498C124.932 30.05 124.65 30.53 124.278 30.938C123.906 31.334 123.462 31.64 122.946 31.856C122.442 32.06 121.872 32.162 121.236 32.162ZM121.236 30.992C121.776 30.992 122.25 30.86 122.658 30.596C123.066 30.332 123.378 29.948 123.594 29.444C123.822 28.94 123.936 28.334 123.936 27.626C123.936 26.534 123.69 25.7 123.198 25.124C122.718 24.548 122.064 24.26 121.236 24.26C120.684 24.26 120.204 24.392 119.796 24.656C119.4 24.908 119.088 25.286 118.86 25.79C118.644 26.282 118.536 26.894 118.536 27.626C118.536 28.706 118.782 29.54 119.274 30.128C119.766 30.704 120.42 30.992 121.236 30.992ZM128.322 32.126C128.082 32.126 127.902 32.06 127.782 31.928C127.662 31.796 127.602 31.61 127.602 31.37V23.864C127.602 23.624 127.662 23.444 127.782 23.324C127.902 23.192 128.076 23.126 128.304 23.126C128.532 23.126 128.706 23.192 128.826 23.324C128.958 23.444 129.024 23.624 129.024 23.864V25.412L128.826 25.196C129.078 24.5 129.486 23.978 130.05 23.63C130.626 23.27 131.286 23.09 132.03 23.09C132.726 23.09 133.302 23.216 133.758 23.468C134.226 23.72 134.574 24.104 134.802 24.62C135.03 25.124 135.144 25.766 135.144 26.546V31.37C135.144 31.61 135.078 31.796 134.946 31.928C134.826 32.06 134.652 32.126 134.424 32.126C134.184 32.126 133.998 32.06 133.866 31.928C133.746 31.796 133.686 31.61 133.686 31.37V26.636C133.686 25.82 133.524 25.226 133.2 24.854C132.888 24.47 132.384 24.278 131.688 24.278C130.884 24.278 130.242 24.53 129.762 25.034C129.294 25.526 129.06 26.186 129.06 27.014V31.37C129.06 31.874 128.814 32.126 128.322 32.126ZM138.553 32.09C138.313 32.09 138.133 32.024 138.013 31.892C137.893 31.748 137.833 31.55 137.833 31.298V23.936C137.833 23.684 137.893 23.492 138.013 23.36C138.133 23.228 138.313 23.162 138.553 23.162C138.781 23.162 138.961 23.228 139.093 23.36C139.225 23.492 139.291 23.684 139.291 23.936V31.298C139.291 31.55 139.225 31.748 139.093 31.892C138.973 32.024 138.793 32.09 138.553 32.09ZM138.553 21.146C138.253 21.146 138.019 21.068 137.851 20.912C137.683 20.744 137.599 20.522 137.599 20.246C137.599 19.958 137.683 19.742 137.851 19.598C138.019 19.442 138.253 19.364 138.553 19.364C138.865 19.364 139.099 19.442 139.255 19.598C139.423 19.742 139.507 19.958 139.507 20.246C139.507 20.522 139.423 20.744 139.255 20.912C139.099 21.068 138.865 21.146 138.553 21.146ZM146.444 32.162C145.652 32.162 144.968 31.958 144.392 31.55C143.828 31.142 143.45 30.596 143.258 29.912L143.456 29.714V31.37C143.456 31.61 143.39 31.796 143.258 31.928C143.138 32.06 142.964 32.126 142.736 32.126C142.496 32.126 142.316 32.06 142.196 31.928C142.076 31.796 142.016 31.61 142.016 31.37V19.922C142.016 19.682 142.076 19.502 142.196 19.382C142.316 19.25 142.496 19.184 142.736 19.184C142.964 19.184 143.144 19.25 143.276 19.382C143.408 19.502 143.474 19.682 143.474 19.922V25.286H143.258C143.462 24.614 143.846 24.08 144.41 23.684C144.974 23.288 145.652 23.09 146.444 23.09C147.236 23.09 147.92 23.276 148.496 23.648C149.072 24.008 149.516 24.53 149.828 25.214C150.152 25.886 150.314 26.69 150.314 27.626C150.314 28.55 150.152 29.354 149.828 30.038C149.516 30.71 149.066 31.232 148.478 31.604C147.902 31.976 147.224 32.162 146.444 32.162ZM146.138 30.992C146.69 30.992 147.164 30.86 147.56 30.596C147.968 30.332 148.28 29.948 148.496 29.444C148.724 28.94 148.838 28.334 148.838 27.626C148.838 26.534 148.592 25.7 148.1 25.124C147.62 24.548 146.966 24.26 146.138 24.26C145.598 24.26 145.124 24.392 144.716 24.656C144.308 24.908 143.99 25.286 143.762 25.79C143.546 26.282 143.438 26.894 143.438 27.626C143.438 28.706 143.684 29.54 144.176 30.128C144.668 30.704 145.322 30.992 146.138 30.992ZM155.175 32.162C154.311 32.162 153.651 31.898 153.195 31.37C152.739 30.842 152.511 30.086 152.511 29.102V19.922C152.511 19.682 152.571 19.502 152.691 19.382C152.811 19.25 152.991 19.184 153.231 19.184C153.459 19.184 153.639 19.25 153.771 19.382C153.903 19.502 153.969 19.682 153.969 19.922V28.994C153.969 29.642 154.095 30.128 154.347 30.452C154.611 30.764 154.995 30.92 155.499 30.92C155.607 30.92 155.703 30.914 155.787 30.902C155.871 30.89 155.955 30.884 156.039 30.884C156.171 30.872 156.261 30.902 156.309 30.974C156.369 31.046 156.399 31.19 156.399 31.406C156.399 31.622 156.351 31.784 156.255 31.892C156.159 32 156.003 32.072 155.787 32.108C155.691 32.12 155.589 32.132 155.481 32.144C155.373 32.156 155.271 32.162 155.175 32.162ZM161.691 32.162C160.767 32.162 159.969 31.982 159.297 31.622C158.637 31.25 158.121 30.728 157.749 30.056C157.389 29.384 157.209 28.58 157.209 27.644C157.209 26.732 157.389 25.94 157.749 25.268C158.109 24.584 158.601 24.05 159.225 23.666C159.861 23.282 160.593 23.09 161.421 23.09C162.009 23.09 162.537 23.192 163.005 23.396C163.473 23.588 163.869 23.87 164.193 24.242C164.529 24.614 164.781 25.064 164.949 25.592C165.129 26.12 165.219 26.714 165.219 27.374C165.219 27.566 165.165 27.71 165.057 27.806C164.949 27.89 164.793 27.932 164.589 27.932H158.325V26.978H164.247L163.959 27.212C163.959 26.564 163.863 26.018 163.671 25.574C163.479 25.118 163.197 24.77 162.825 24.53C162.465 24.29 162.009 24.17 161.457 24.17C160.845 24.17 160.323 24.314 159.891 24.602C159.471 24.878 159.153 25.268 158.937 25.772C158.721 26.264 158.613 26.84 158.613 27.5V27.608C158.613 28.712 158.877 29.552 159.405 30.128C159.945 30.704 160.707 30.992 161.691 30.992C162.099 30.992 162.501 30.938 162.897 30.83C163.305 30.722 163.701 30.542 164.085 30.29C164.253 30.182 164.403 30.134 164.535 30.146C164.679 30.146 164.793 30.188 164.877 30.272C164.961 30.344 165.015 30.44 165.039 30.56C165.075 30.668 165.063 30.788 165.003 30.92C164.955 31.052 164.853 31.166 164.697 31.262C164.301 31.55 163.833 31.772 163.293 31.928C162.753 32.084 162.219 32.162 161.691 32.162ZM170.281 32.162C169.741 32.162 169.195 32.096 168.643 31.964C168.103 31.832 167.599 31.604 167.131 31.28C167.011 31.196 166.927 31.1 166.879 30.992C166.831 30.872 166.813 30.758 166.825 30.65C166.849 30.53 166.897 30.428 166.969 30.344C167.053 30.26 167.149 30.212 167.257 30.2C167.377 30.176 167.509 30.2 167.653 30.272C168.121 30.56 168.571 30.764 169.003 30.884C169.447 30.992 169.885 31.046 170.317 31.046C171.001 31.046 171.517 30.92 171.865 30.668C172.213 30.416 172.387 30.074 172.387 29.642C172.387 29.306 172.273 29.042 172.045 28.85C171.817 28.646 171.457 28.49 170.965 28.382L169.327 28.022C168.571 27.866 168.007 27.596 167.635 27.212C167.275 26.828 167.095 26.33 167.095 25.718C167.095 25.178 167.233 24.716 167.509 24.332C167.797 23.936 168.199 23.63 168.715 23.414C169.231 23.198 169.831 23.09 170.515 23.09C171.043 23.09 171.541 23.162 172.009 23.306C172.489 23.438 172.921 23.654 173.305 23.954C173.425 24.038 173.503 24.14 173.539 24.26C173.587 24.368 173.593 24.482 173.557 24.602C173.533 24.71 173.479 24.806 173.395 24.89C173.311 24.962 173.209 25.004 173.089 25.016C172.969 25.028 172.843 24.992 172.711 24.908C172.351 24.668 171.985 24.494 171.613 24.386C171.241 24.266 170.875 24.206 170.515 24.206C169.843 24.206 169.333 24.338 168.985 24.602C168.637 24.866 168.463 25.214 168.463 25.646C168.463 25.982 168.571 26.258 168.787 26.474C169.003 26.69 169.339 26.846 169.795 26.942L171.433 27.284C172.213 27.452 172.795 27.722 173.179 28.094C173.575 28.454 173.773 28.946 173.773 29.57C173.773 30.362 173.455 30.992 172.819 31.46C172.183 31.928 171.337 32.162 170.281 32.162Z" fill="#007BC7"/>
<path d="M283.171 34.042C282.499 32.806 282.007 31.54 281.695 30.244C281.383 28.936 281.227 27.61 281.227 26.266C281.227 25.366 281.293 24.478 281.425 23.602C281.569 22.726 281.785 21.862 282.073 21.01C282.361 20.158 282.727 19.318 283.171 18.49C283.255 18.334 283.369 18.238 283.513 18.202C283.669 18.166 283.813 18.178 283.945 18.238C284.089 18.286 284.191 18.388 284.251 18.544C284.311 18.688 284.299 18.874 284.215 19.102C283.903 19.894 283.639 20.686 283.423 21.478C283.207 22.27 283.045 23.062 282.937 23.854C282.829 24.646 282.775 25.45 282.775 26.266C282.775 27.082 282.829 27.886 282.937 28.678C283.057 29.47 283.225 30.256 283.441 31.036C283.657 31.828 283.915 32.626 284.215 33.43C284.311 33.658 284.323 33.844 284.251 33.988C284.191 34.144 284.089 34.246 283.945 34.294C283.813 34.354 283.669 34.366 283.513 34.33C283.369 34.294 283.255 34.198 283.171 34.042ZM287.426 31C287.162 31 286.964 30.94 286.832 30.82C286.712 30.688 286.652 30.514 286.652 30.298C286.652 30.166 286.682 30.04 286.742 29.92C286.814 29.788 286.91 29.656 287.03 29.524L291.062 25.204C291.674 24.544 292.112 23.938 292.376 23.386C292.652 22.822 292.79 22.252 292.79 21.676C292.79 20.956 292.568 20.41 292.124 20.038C291.692 19.654 291.056 19.462 290.216 19.462C289.676 19.462 289.166 19.546 288.686 19.714C288.206 19.882 287.744 20.14 287.3 20.488C287.144 20.608 287 20.662 286.868 20.65C286.748 20.638 286.64 20.59 286.544 20.506C286.448 20.422 286.382 20.314 286.346 20.182C286.31 20.05 286.31 19.918 286.346 19.786C286.394 19.654 286.49 19.534 286.634 19.426C287.102 19.042 287.666 18.736 288.326 18.508C288.986 18.268 289.658 18.148 290.342 18.148C291.194 18.148 291.914 18.28 292.502 18.544C293.09 18.808 293.534 19.198 293.834 19.714C294.134 20.218 294.284 20.836 294.284 21.568C294.284 22.072 294.2 22.57 294.032 23.062C293.876 23.542 293.63 24.034 293.294 24.538C292.97 25.042 292.544 25.564 292.016 26.104L288.182 30.154V29.74H294.248C294.476 29.74 294.644 29.794 294.752 29.902C294.872 29.998 294.932 30.148 294.932 30.352C294.932 30.568 294.872 30.73 294.752 30.838C294.644 30.946 294.476 31 294.248 31H287.426ZM297.84 34.042C297.744 34.198 297.624 34.294 297.48 34.33C297.336 34.366 297.192 34.354 297.048 34.294C296.904 34.234 296.802 34.132 296.742 33.988C296.682 33.844 296.694 33.658 296.778 33.43C297.102 32.626 297.366 31.828 297.57 31.036C297.786 30.256 297.948 29.47 298.056 28.678C298.164 27.886 298.218 27.082 298.218 26.266C298.218 25.45 298.158 24.646 298.038 23.854C297.93 23.062 297.768 22.276 297.552 21.496C297.348 20.704 297.09 19.906 296.778 19.102C296.694 18.874 296.682 18.688 296.742 18.544C296.814 18.388 296.916 18.286 297.048 18.238C297.18 18.178 297.318 18.166 297.462 18.202C297.618 18.238 297.744 18.334 297.84 18.49C298.5 19.714 298.986 20.98 299.298 22.288C299.61 23.596 299.766 24.922 299.766 26.266C299.766 27.166 299.694 28.06 299.55 28.948C299.418 29.824 299.208 30.688 298.92 31.54C298.644 32.392 298.284 33.226 297.84 34.042Z" fill="#007BC7"/>
<g clip-path="url(#clip1_3847_9359)">
<path d="M314.12 23.2901L318 27.1701L321.88 23.2901C322.27 22.9001 322.9 22.9001 323.29 23.2901C323.68 23.6801 323.68 24.3101 323.29 24.7001L318.7 29.2901C318.31 29.6801 317.68 29.6801 317.29 29.2901L312.7 24.7001C312.31 24.3101 312.31 23.6801 312.7 23.2901C313.09 22.9101 313.73 22.9001 314.12 23.2901Z" fill="#38485C"/>
</g>
<rect x="1" y="1" width="342" height="50" rx="9" stroke="#E6EBF0" stroke-width="2"/>
<defs>
<clipPath id="clip0_3847_9359">
<rect width="24" height="24" fill="white" transform="translate(14 14)"/>
</clipPath>
<clipPath id="clip1_3847_9359">
<rect width="24" height="24" fill="white" transform="translate(306 14)"/>
</clipPath>
</defs>
</svg>
