<svg width="344" height="52" viewBox="0 0 344 52" fill="none" xmlns="http://www.w3.org/2000/svg">
<rect x="1" y="1" width="342" height="50" rx="9" fill="white"/>
<path d="M16.304 32.126C16.064 32.126 15.878 32.06 15.746 31.928C15.626 31.784 15.566 31.592 15.566 31.352V20.066C15.566 19.814 15.632 19.628 15.764 19.508C15.896 19.376 16.082 19.31 16.322 19.31H20.588C21.944 19.31 22.988 19.646 23.72 20.318C24.452 20.978 24.818 21.914 24.818 23.126C24.818 24.326 24.452 25.262 23.72 25.934C22.988 26.606 21.944 26.942 20.588 26.942H17.042V31.352C17.042 31.592 16.982 31.784 16.862 31.928C16.742 32.06 16.556 32.126 16.304 32.126ZM17.042 25.7H20.408C21.38 25.7 22.112 25.484 22.604 25.052C23.108 24.608 23.36 23.966 23.36 23.126C23.36 22.274 23.108 21.632 22.604 21.2C22.112 20.756 21.38 20.534 20.408 20.534H17.042V25.7ZM27.3208 32.126C27.0808 32.126 26.8948 32.06 26.7628 31.928C26.6428 31.796 26.5828 31.61 26.5828 31.37V23.864C26.5828 23.624 26.6428 23.444 26.7628 23.324C26.8828 23.192 27.0568 23.126 27.2848 23.126C27.5128 23.126 27.6868 23.192 27.8068 23.324C27.9388 23.444 28.0048 23.624 28.0048 23.864V25.322H27.8248C28.0168 24.614 28.3828 24.068 28.9228 23.684C29.4628 23.3 30.1288 23.096 30.9208 23.072C31.1008 23.06 31.2448 23.102 31.3528 23.198C31.4608 23.282 31.5208 23.432 31.5328 23.648C31.5448 23.852 31.4968 24.014 31.3888 24.134C31.2808 24.254 31.1128 24.326 30.8848 24.35L30.5968 24.386C29.7808 24.458 29.1508 24.722 28.7068 25.178C28.2748 25.622 28.0588 26.234 28.0588 27.014V31.37C28.0588 31.61 27.9928 31.796 27.8608 31.928C27.7408 32.06 27.5608 32.126 27.3208 32.126ZM36.8705 32.162C35.9465 32.162 35.1485 31.982 34.4765 31.622C33.8165 31.25 33.3005 30.728 32.9285 30.056C32.5685 29.384 32.3885 28.58 32.3885 27.644C32.3885 26.732 32.5685 25.94 32.9285 25.268C33.2885 24.584 33.7805 24.05 34.4045 23.666C35.0405 23.282 35.7725 23.09 36.6005 23.09C37.1885 23.09 37.7165 23.192 38.1845 23.396C38.6525 23.588 39.0485 23.87 39.3725 24.242C39.7085 24.614 39.9605 25.064 40.1285 25.592C40.3085 26.12 40.3985 26.714 40.3985 27.374C40.3985 27.566 40.3445 27.71 40.2365 27.806C40.1285 27.89 39.9725 27.932 39.7685 27.932H33.5045V26.978H39.4265L39.1385 27.212C39.1385 26.564 39.0425 26.018 38.8505 25.574C38.6585 25.118 38.3765 24.77 38.0045 24.53C37.6445 24.29 37.1885 24.17 36.6365 24.17C36.0245 24.17 35.5025 24.314 35.0705 24.602C34.6505 24.878 34.3325 25.268 34.1165 25.772C33.9005 26.264 33.7925 26.84 33.7925 27.5V27.608C33.7925 28.712 34.0565 29.552 34.5845 30.128C35.1245 30.704 35.8865 30.992 36.8705 30.992C37.2785 30.992 37.6805 30.938 38.0765 30.83C38.4845 30.722 38.8805 30.542 39.2645 30.29C39.4325 30.182 39.5825 30.134 39.7145 30.146C39.8585 30.146 39.9725 30.188 40.0565 30.272C40.1405 30.344 40.1945 30.44 40.2185 30.56C40.2545 30.668 40.2425 30.788 40.1825 30.92C40.1345 31.052 40.0325 31.166 39.8765 31.262C39.4805 31.55 39.0125 31.772 38.4725 31.928C37.9325 32.084 37.3985 32.162 36.8705 32.162ZM45.4606 32.162C44.9206 32.162 44.3746 32.096 43.8226 31.964C43.2826 31.832 42.7786 31.604 42.3106 31.28C42.1906 31.196 42.1066 31.1 42.0586 30.992C42.0106 30.872 41.9926 30.758 42.0046 30.65C42.0286 30.53 42.0766 30.428 42.1486 30.344C42.2326 30.26 42.3286 30.212 42.4366 30.2C42.5566 30.176 42.6886 30.2 42.8326 30.272C43.3006 30.56 43.7506 30.764 44.1826 30.884C44.6266 30.992 45.0646 31.046 45.4966 31.046C46.1806 31.046 46.6966 30.92 47.0446 30.668C47.3926 30.416 47.5666 30.074 47.5666 29.642C47.5666 29.306 47.4526 29.042 47.2246 28.85C46.9966 28.646 46.6366 28.49 46.1446 28.382L44.5066 28.022C43.7506 27.866 43.1866 27.596 42.8146 27.212C42.4546 26.828 42.2746 26.33 42.2746 25.718C42.2746 25.178 42.4126 24.716 42.6886 24.332C42.9766 23.936 43.3786 23.63 43.8946 23.414C44.4106 23.198 45.0106 23.09 45.6946 23.09C46.2226 23.09 46.7206 23.162 47.1886 23.306C47.6686 23.438 48.1006 23.654 48.4846 23.954C48.6046 24.038 48.6826 24.14 48.7186 24.26C48.7666 24.368 48.7726 24.482 48.7366 24.602C48.7126 24.71 48.6586 24.806 48.5746 24.89C48.4906 24.962 48.3886 25.004 48.2686 25.016C48.1486 25.028 48.0226 24.992 47.8906 24.908C47.5306 24.668 47.1646 24.494 46.7926 24.386C46.4206 24.266 46.0546 24.206 45.6946 24.206C45.0226 24.206 44.5126 24.338 44.1646 24.602C43.8166 24.866 43.6426 25.214 43.6426 25.646C43.6426 25.982 43.7506 26.258 43.9666 26.474C44.1826 26.69 44.5186 26.846 44.9746 26.942L46.6126 27.284C47.3926 27.452 47.9746 27.722 48.3586 28.094C48.7546 28.454 48.9526 28.946 48.9526 29.57C48.9526 30.362 48.6346 30.992 47.9986 31.46C47.3626 31.928 46.5166 32.162 45.4606 32.162ZM55.1166 32.162C54.1926 32.162 53.3946 31.982 52.7226 31.622C52.0626 31.25 51.5466 30.728 51.1746 30.056C50.8146 29.384 50.6346 28.58 50.6346 27.644C50.6346 26.732 50.8146 25.94 51.1746 25.268C51.5346 24.584 52.0266 24.05 52.6506 23.666C53.2866 23.282 54.0186 23.09 54.8466 23.09C55.4346 23.09 55.9626 23.192 56.4306 23.396C56.8986 23.588 57.2946 23.87 57.6186 24.242C57.9546 24.614 58.2066 25.064 58.3746 25.592C58.5546 26.12 58.6446 26.714 58.6446 27.374C58.6446 27.566 58.5906 27.71 58.4826 27.806C58.3746 27.89 58.2186 27.932 58.0146 27.932H51.7506V26.978H57.6726L57.3846 27.212C57.3846 26.564 57.2886 26.018 57.0966 25.574C56.9046 25.118 56.6226 24.77 56.2506 24.53C55.8906 24.29 55.4346 24.17 54.8826 24.17C54.2706 24.17 53.7486 24.314 53.3166 24.602C52.8966 24.878 52.5786 25.268 52.3626 25.772C52.1466 26.264 52.0386 26.84 52.0386 27.5V27.608C52.0386 28.712 52.3026 29.552 52.8306 30.128C53.3706 30.704 54.1326 30.992 55.1166 30.992C55.5246 30.992 55.9266 30.938 56.3226 30.83C56.7306 30.722 57.1266 30.542 57.5106 30.29C57.6786 30.182 57.8286 30.134 57.9606 30.146C58.1046 30.146 58.2186 30.188 58.3026 30.272C58.3866 30.344 58.4406 30.44 58.4646 30.56C58.5006 30.668 58.4886 30.788 58.4286 30.92C58.3806 31.052 58.2786 31.166 58.1226 31.262C57.7266 31.55 57.2586 31.772 56.7186 31.928C56.1786 32.084 55.6446 32.162 55.1166 32.162ZM61.4747 32.126C61.2347 32.126 61.0547 32.06 60.9347 31.928C60.8147 31.796 60.7547 31.61 60.7547 31.37V23.864C60.7547 23.624 60.8147 23.444 60.9347 23.324C61.0547 23.192 61.2287 23.126 61.4567 23.126C61.6847 23.126 61.8587 23.192 61.9787 23.324C62.1107 23.444 62.1767 23.624 62.1767 23.864V25.412L61.9787 25.196C62.2307 24.5 62.6387 23.978 63.2027 23.63C63.7787 23.27 64.4387 23.09 65.1827 23.09C65.8787 23.09 66.4547 23.216 66.9107 23.468C67.3787 23.72 67.7267 24.104 67.9547 24.62C68.1827 25.124 68.2967 25.766 68.2967 26.546V31.37C68.2967 31.61 68.2307 31.796 68.0987 31.928C67.9787 32.06 67.8047 32.126 67.5767 32.126C67.3367 32.126 67.1507 32.06 67.0187 31.928C66.8987 31.796 66.8387 31.61 66.8387 31.37V26.636C66.8387 25.82 66.6767 25.226 66.3527 24.854C66.0407 24.47 65.5367 24.278 64.8407 24.278C64.0367 24.278 63.3947 24.53 62.9147 25.034C62.4467 25.526 62.2127 26.186 62.2127 27.014V31.37C62.2127 31.874 61.9667 32.126 61.4747 32.126ZM74.6932 32.162C73.8172 32.162 73.0612 31.97 72.4252 31.586C71.7892 31.202 71.2972 30.668 70.9492 29.984C70.6132 29.288 70.4452 28.484 70.4452 27.572C70.4452 26.876 70.5412 26.252 70.7332 25.7C70.9252 25.148 71.2072 24.68 71.5792 24.296C71.9512 23.9 72.3952 23.6 72.9112 23.396C73.4392 23.192 74.0332 23.09 74.6932 23.09C75.1252 23.09 75.5752 23.156 76.0432 23.288C76.5112 23.42 76.9372 23.648 77.3212 23.972C77.4412 24.056 77.5192 24.158 77.5552 24.278C77.5912 24.398 77.5912 24.518 77.5552 24.638C77.5192 24.746 77.4592 24.842 77.3752 24.926C77.2912 24.998 77.1832 25.04 77.0512 25.052C76.9312 25.064 76.8052 25.022 76.6732 24.926C76.3612 24.686 76.0432 24.518 75.7192 24.422C75.3952 24.326 75.0832 24.278 74.7832 24.278C74.3152 24.278 73.9072 24.356 73.5592 24.512C73.2112 24.656 72.9172 24.866 72.6772 25.142C72.4372 25.418 72.2512 25.76 72.1192 26.168C71.9992 26.576 71.9392 27.05 71.9392 27.59C71.9392 28.634 72.1852 29.462 72.6772 30.074C73.1692 30.674 73.8712 30.974 74.7832 30.974C75.0832 30.974 75.3892 30.926 75.7012 30.83C76.0252 30.734 76.3492 30.566 76.6732 30.326C76.8052 30.23 76.9312 30.188 77.0512 30.2C77.1712 30.212 77.2732 30.26 77.3572 30.344C77.4412 30.416 77.4952 30.512 77.5192 30.632C77.5552 30.752 77.5552 30.872 77.5192 30.992C77.4832 31.1 77.4052 31.196 77.2852 31.28C76.9012 31.592 76.4812 31.82 76.0252 31.964C75.5692 32.096 75.1252 32.162 74.6932 32.162ZM80.0372 32.09C79.7972 32.09 79.6172 32.024 79.4972 31.892C79.3772 31.748 79.3172 31.55 79.3172 31.298V23.936C79.3172 23.684 79.3772 23.492 79.4972 23.36C79.6172 23.228 79.7972 23.162 80.0372 23.162C80.2652 23.162 80.4452 23.228 80.5772 23.36C80.7092 23.492 80.7752 23.684 80.7752 23.936V31.298C80.7752 31.55 80.7092 31.748 80.5772 31.892C80.4572 32.024 80.2772 32.09 80.0372 32.09ZM80.0372 21.146C79.7372 21.146 79.5032 21.068 79.3352 20.912C79.1672 20.744 79.0832 20.522 79.0832 20.246C79.0832 19.958 79.1672 19.742 79.3352 19.598C79.5032 19.442 79.7372 19.364 80.0372 19.364C80.3492 19.364 80.5832 19.442 80.7392 19.598C80.9072 19.742 80.9912 19.958 80.9912 20.246C80.9912 20.522 80.9072 20.744 80.7392 20.912C80.5832 21.068 80.3492 21.146 80.0372 21.146ZM86.2548 32.162C85.6548 32.162 85.1148 32.048 84.6348 31.82C84.1668 31.58 83.7948 31.256 83.5188 30.848C83.2428 30.44 83.1048 29.984 83.1048 29.48C83.1048 28.832 83.2668 28.322 83.5908 27.95C83.9268 27.578 84.4728 27.314 85.2288 27.158C85.9968 27.002 87.0408 26.924 88.3608 26.924H89.1708V27.878H88.3788C87.4068 27.878 86.6388 27.926 86.0748 28.022C85.5228 28.106 85.1328 28.256 84.9048 28.472C84.6888 28.688 84.5808 28.994 84.5808 29.39C84.5808 29.882 84.7488 30.284 85.0848 30.596C85.4328 30.908 85.9008 31.064 86.4888 31.064C86.9688 31.064 87.3888 30.95 87.7488 30.722C88.1208 30.494 88.4088 30.182 88.6128 29.786C88.8288 29.39 88.9368 28.934 88.9368 28.418V26.366C88.9368 25.622 88.7868 25.088 88.4868 24.764C88.1868 24.428 87.6948 24.26 87.0108 24.26C86.5908 24.26 86.1708 24.314 85.7508 24.422C85.3308 24.53 84.8868 24.704 84.4188 24.944C84.2508 25.028 84.1068 25.058 83.9868 25.034C83.8668 24.998 83.7708 24.932 83.6988 24.836C83.6268 24.74 83.5848 24.632 83.5728 24.512C83.5608 24.38 83.5848 24.254 83.6448 24.134C83.7168 24.014 83.8248 23.918 83.9688 23.846C84.4968 23.582 85.0188 23.39 85.5348 23.27C86.0508 23.15 86.5428 23.09 87.0108 23.09C87.7668 23.09 88.3908 23.216 88.8828 23.468C89.3748 23.708 89.7408 24.08 89.9808 24.584C90.2208 25.076 90.3408 25.712 90.3408 26.492V31.37C90.3408 31.61 90.2808 31.796 90.1608 31.928C90.0528 32.06 89.8908 32.126 89.6748 32.126C89.4468 32.126 89.2728 32.06 89.1528 31.928C89.0328 31.796 88.9728 31.61 88.9728 31.37V29.966H89.1348C89.0388 30.422 88.8528 30.812 88.5768 31.136C88.3128 31.46 87.9828 31.712 87.5868 31.892C87.1908 32.072 86.7468 32.162 86.2548 32.162ZM95.7097 32.162C94.8457 32.162 94.1857 31.898 93.7297 31.37C93.2737 30.842 93.0457 30.086 93.0457 29.102V19.922C93.0457 19.682 93.1057 19.502 93.2257 19.382C93.3457 19.25 93.5257 19.184 93.7657 19.184C93.9937 19.184 94.1737 19.25 94.3057 19.382C94.4377 19.502 94.5037 19.682 94.5037 19.922V28.994C94.5037 29.642 94.6297 30.128 94.8817 30.452C95.1457 30.764 95.5297 30.92 96.0337 30.92C96.1417 30.92 96.2377 30.914 96.3217 30.902C96.4057 30.89 96.4897 30.884 96.5737 30.884C96.7057 30.872 96.7957 30.902 96.8437 30.974C96.9037 31.046 96.9337 31.19 96.9337 31.406C96.9337 31.622 96.8857 31.784 96.7897 31.892C96.6937 32 96.5377 32.072 96.3217 32.108C96.2257 32.12 96.1237 32.132 96.0157 32.144C95.9077 32.156 95.8057 32.162 95.7097 32.162Z" fill="#007BC7"/>
<g clip-path="url(#clip0_3847_9386)">
<path d="M314.12 23.29L318 27.17L321.88 23.29C322.27 22.9 322.9 22.9 323.29 23.29C323.68 23.68 323.68 24.31 323.29 24.7L318.7 29.29C318.31 29.68 317.68 29.68 317.29 29.29L312.7 24.7C312.31 24.31 312.31 23.68 312.7 23.29C313.09 22.91 313.73 22.9 314.12 23.29Z" fill="#38485C"/>
</g>
<rect x="1" y="1" width="342" height="50" rx="9" stroke="#E6EBF0" stroke-width="2"/>
<defs>
<clipPath id="clip0_3847_9386">
<rect width="24" height="24" fill="white" transform="translate(306 14)"/>
</clipPath>
</defs>
</svg>
