<svg xmlns="http://www.w3.org/2000/svg" width="712" height="192" viewBox="0 0 712 192">
  <g id="Group_32424" data-name="Group 32424" transform="translate(-513 -1305)">
    <rect id="Rectangle_26393" data-name="Rectangle 26393" width="712" height="192" rx="8" transform="translate(513 1305)" fill="#fff"/>
    <path id="Rectangle_26393_-_Outline" data-name="Rectangle 26393 - Outline" d="M8,2A6.007,6.007,0,0,0,2,8V184a6.007,6.007,0,0,0,6,6H704a6.007,6.007,0,0,0,6-6V8a6.007,6.007,0,0,0-6-6H8M8,0H704a8,8,0,0,1,8,8V184a8,8,0,0,1-8,8H8a8,8,0,0,1-8-8V8A8,8,0,0,1,8,0Z" transform="translate(513 1305)" fill="#38485c"/>
    <g id="Group_32212" data-name="Group 32212" transform="translate(404 1062)">
      <g id="Desplegable_-_Borde_-_L" data-name="Desplegable - Borde - L" transform="translate(613.302 315)">
        <rect id="Rectangle_26341" data-name="Rectangle 26341" width="149.434" height="48" rx="8" fill="#fff"/>
        <path id="Rectangle_26341_-_Outline" data-name="Rectangle 26341 - Outline" d="M8,0A8,8,0,0,0,0,8V40a8,8,0,0,0,8,8H141.434a8,8,0,0,0,8-8V8a8,8,0,0,0-8-8H8M8-2H141.434a10.011,10.011,0,0,1,10,10V40a10.011,10.011,0,0,1-10,10H8A10.011,10.011,0,0,1-2,40V8A10.011,10.011,0,0,1,8-2Z" fill="#e6ebf0"/>
        <g id="Group_32051" data-name="Group 32051" transform="translate(-513 -310)">
          <g id="chevron_right" transform="translate(650.434 322) rotate(90)">
            <rect id="Rectangle_32" data-name="Rectangle 32" width="24" height="24" fill="none"/>
            <path id="Path_13167" data-name="Path 13167" d="M9,102.711a1,1,0,0,0,0,1.41L12.88,108,9,111.881a1,1,0,0,0,1.41,1.41L15,108.7a1,1,0,0,0,0-1.41l-4.59-4.59A1,1,0,0,0,9,102.711Z" transform="translate(0 -96)" fill="#38485c"/>
          </g>
          <path id="Path_31924" data-name="Path 31924" d="M2.322,0a.761.761,0,0,1-.549-.2A.689.689,0,0,1,1.566-.72V-11.97a.689.689,0,0,1,.207-.522.761.761,0,0,1,.549-.2h3.51a6.407,6.407,0,0,1,4.707,1.647A6.3,6.3,0,0,1,12.2-6.354a6.314,6.314,0,0,1-1.674,4.7A6.392,6.392,0,0,1,5.832,0Zm3.42-1.26q4.932,0,4.932-5.094,0-5.076-4.932-5.076h-2.7V-1.26Zm15.7-.774a.443.443,0,0,1,.342.162.6.6,0,0,1,.144.414q0,.45-.63.828a5.449,5.449,0,0,1-1.368.567,5.519,5.519,0,0,1-1.4.189A4.287,4.287,0,0,1,15.309-1.08,4.56,4.56,0,0,1,14.13-4.41,5.227,5.227,0,0,1,14.652-6.8a3.9,3.9,0,0,1,1.467-1.611,4.05,4.05,0,0,1,2.151-.576,3.481,3.481,0,0,1,2.718,1.116A4.343,4.343,0,0,1,22-4.842a.775.775,0,0,1-.144.522.6.6,0,0,1-.468.162h-5.8q.162,3.1,2.934,3.1a3.439,3.439,0,0,0,1.206-.189,7.841,7.841,0,0,0,1.08-.513A1.712,1.712,0,0,1,21.438-2.034Zm-3.15-5.814a2.442,2.442,0,0,0-1.845.72,3.29,3.29,0,0,0-.819,2.034h5.094a3.118,3.118,0,0,0-.666-2.043A2.234,2.234,0,0,0,18.288-7.848ZM27.09.126a6.124,6.124,0,0,1-1.575-.2A4.8,4.8,0,0,1,24.192-.63a1.771,1.771,0,0,1-.459-.4.769.769,0,0,1-.135-.459.563.563,0,0,1,.135-.387.446.446,0,0,1,.351-.153,1.343,1.343,0,0,1,.63.27,5.992,5.992,0,0,0,1.071.513,3.985,3.985,0,0,0,1.323.189A2.822,2.822,0,0,0,28.62-1.4a1.1,1.1,0,0,0,.54-.99.98.98,0,0,0-.2-.639,1.638,1.638,0,0,0-.684-.432,9.715,9.715,0,0,0-1.422-.387,5.344,5.344,0,0,1-2.268-.918A1.94,1.94,0,0,1,23.9-6.336,2.265,2.265,0,0,1,24.336-7.7a2.907,2.907,0,0,1,1.2-.936,4.214,4.214,0,0,1,1.737-.342,4.891,4.891,0,0,1,1.359.189,4.041,4.041,0,0,1,1.161.531,1.17,1.17,0,0,1,.612.9.575.575,0,0,1-.144.4.443.443,0,0,1-.342.162,1.345,1.345,0,0,1-.648-.306,5.7,5.7,0,0,0-.954-.5,3.019,3.019,0,0,0-1.116-.18,2.238,2.238,0,0,0-1.359.378,1.191,1.191,0,0,0-.513,1.008,1.012,1.012,0,0,0,.189.639,1.563,1.563,0,0,0,.63.432,7.352,7.352,0,0,0,1.269.369,9.067,9.067,0,0,1,1.9.594,2.207,2.207,0,0,1,.963.792,2.234,2.234,0,0,1,.288,1.188A2.154,2.154,0,0,1,29.61-.567,4.193,4.193,0,0,1,27.09.126Zm10.1-9.108a3.636,3.636,0,0,1,2.034.576A3.8,3.8,0,0,1,40.59-6.8a5.6,5.6,0,0,1,.486,2.4,5.477,5.477,0,0,1-.486,2.385A3.722,3.722,0,0,1,39.231-.432a3.711,3.711,0,0,1-2.043.558A3.467,3.467,0,0,1,35.4-.324,2.893,2.893,0,0,1,34.236-1.6v4.23a.693.693,0,0,1-.189.513.718.718,0,0,1-.531.189.73.73,0,0,1-.54-.2.683.683,0,0,1-.2-.5V-8.226a.706.706,0,0,1,.2-.522.73.73,0,0,1,.54-.2.7.7,0,0,1,.531.2.725.725,0,0,1,.189.522v.972A2.893,2.893,0,0,1,35.4-8.532,3.467,3.467,0,0,1,37.188-8.982ZM36.9-1.08a2.407,2.407,0,0,0,1.98-.864,3.789,3.789,0,0,0,.7-2.448,3.905,3.905,0,0,0-.7-2.475,2.376,2.376,0,0,0-1.98-.891,2.381,2.381,0,0,0-1.971.864,3.856,3.856,0,0,0-.693,2.466,3.9,3.9,0,0,0,.693,2.475A2.37,2.37,0,0,0,36.9-1.08ZM43.992.09A.757.757,0,0,1,43.461-.1a.683.683,0,0,1-.207-.531V-12.06a.683.683,0,0,1,.207-.531.757.757,0,0,1,.531-.189.732.732,0,0,1,.513.189.683.683,0,0,1,.207.531V-.63a.683.683,0,0,1-.207.531A.732.732,0,0,1,43.992.09ZM54.216-2.034a.443.443,0,0,1,.342.162.6.6,0,0,1,.144.414q0,.45-.63.828A5.449,5.449,0,0,1,52.7-.063a5.519,5.519,0,0,1-1.4.189A4.287,4.287,0,0,1,48.087-1.08a4.56,4.56,0,0,1-1.179-3.33A5.227,5.227,0,0,1,47.43-6.8,3.9,3.9,0,0,1,48.9-8.406a4.05,4.05,0,0,1,2.151-.576,3.481,3.481,0,0,1,2.718,1.116,4.343,4.343,0,0,1,1.008,3.024.775.775,0,0,1-.144.522.6.6,0,0,1-.468.162h-5.8q.162,3.1,2.934,3.1a3.439,3.439,0,0,0,1.206-.189,7.841,7.841,0,0,0,1.08-.513A1.712,1.712,0,0,1,54.216-2.034Zm-3.15-5.814a2.442,2.442,0,0,0-1.845.72A3.29,3.29,0,0,0,48.4-5.094H53.5a3.118,3.118,0,0,0-.666-2.043A2.234,2.234,0,0,0,51.066-7.848Zm12.96-1.1a.73.73,0,0,1,.54.2.706.706,0,0,1,.2.522V-.594a4,4,0,0,1-1.008,2.961,4.076,4.076,0,0,1-2.988,1,6.208,6.208,0,0,1-3.2-.756q-.648-.36-.648-.828a.625.625,0,0,1,.135-.414.435.435,0,0,1,.351-.162,1.747,1.747,0,0,1,.648.252,8.321,8.321,0,0,0,1.242.522,4.76,4.76,0,0,0,1.458.2A2.55,2.55,0,0,0,62.676,1.5a2.738,2.738,0,0,0,.648-1.971V-2.016a2.746,2.746,0,0,1-1.161,1.3,3.639,3.639,0,0,1-1.845.45,3.863,3.863,0,0,1-2.043-.54,3.651,3.651,0,0,1-1.386-1.53,5.047,5.047,0,0,1-.495-2.286,5.047,5.047,0,0,1,.495-2.286,3.651,3.651,0,0,1,1.386-1.53,3.863,3.863,0,0,1,2.043-.54,3.553,3.553,0,0,1,1.818.45,2.877,2.877,0,0,1,1.17,1.278v-.972a.725.725,0,0,1,.189-.522A.7.7,0,0,1,64.026-8.946Zm-3.42,7.47a2.474,2.474,0,0,0,1.98-.837,3.433,3.433,0,0,0,.72-2.313,3.433,3.433,0,0,0-.711-2.3,2.468,2.468,0,0,0-1.989-.837,2.522,2.522,0,0,0-2.007.837,3.376,3.376,0,0,0-.729,2.3A3.4,3.4,0,0,0,58.6-2.313,2.522,2.522,0,0,0,60.606-1.476Zm10.44-7.506q3.294,0,3.294,3.456v4.9a.725.725,0,0,1-.189.522.676.676,0,0,1-.513.2.706.706,0,0,1-.522-.2.706.706,0,0,1-.2-.522v-.864A2.575,2.575,0,0,1,71.874-.3a3.077,3.077,0,0,1-1.62.423A3.545,3.545,0,0,1,68.7-.216a2.782,2.782,0,0,1-1.125-.954,2.358,2.358,0,0,1-.414-1.35,2.192,2.192,0,0,1,.5-1.539,3.058,3.058,0,0,1,1.656-.792,16.362,16.362,0,0,1,3.2-.243h.4v-.594a2.367,2.367,0,0,0-.441-1.584,1.811,1.811,0,0,0-1.431-.5,5.287,5.287,0,0,0-2.484.666,1.643,1.643,0,0,1-.684.306.462.462,0,0,1-.36-.162.6.6,0,0,1-.144-.414.68.68,0,0,1,.153-.441,1.792,1.792,0,0,1,.495-.387,5.792,5.792,0,0,1,1.431-.567A6.346,6.346,0,0,1,71.046-8.982Zm-.594,7.956a2.339,2.339,0,0,0,1.773-.729,2.619,2.619,0,0,0,.693-1.881v-.522h-.324a16.111,16.111,0,0,0-2.412.135A2.344,2.344,0,0,0,69-3.573a1.181,1.181,0,0,0-.351.927,1.49,1.49,0,0,0,.513,1.161A1.858,1.858,0,0,0,70.452-1.026ZM81.414-8.982a3.723,3.723,0,0,1,2.034.558A3.691,3.691,0,0,1,84.816-6.84,5.492,5.492,0,0,1,85.3-4.464a5.6,5.6,0,0,1-.486,2.4A3.8,3.8,0,0,1,83.448-.45a3.636,3.636,0,0,1-2.034.576,3.467,3.467,0,0,1-1.791-.45A2.893,2.893,0,0,1,78.462-1.6V-.63a.725.725,0,0,1-.189.522.7.7,0,0,1-.531.2.73.73,0,0,1-.54-.2A.706.706,0,0,1,77-.63V-12.078a.683.683,0,0,1,.2-.5.73.73,0,0,1,.54-.2.718.718,0,0,1,.531.189.693.693,0,0,1,.189.513v4.824a2.893,2.893,0,0,1,1.161-1.278A3.467,3.467,0,0,1,81.414-8.982Zm-.288,7.9a2.376,2.376,0,0,0,1.98-.891,3.937,3.937,0,0,0,.7-2.493,3.758,3.758,0,0,0-.7-2.43,2.407,2.407,0,0,0-1.98-.864,2.381,2.381,0,0,0-1.971.864,3.856,3.856,0,0,0-.693,2.466,3.9,3.9,0,0,0,.693,2.475A2.371,2.371,0,0,0,81.126-1.08ZM88.218.09A.757.757,0,0,1,87.687-.1.683.683,0,0,1,87.48-.63V-12.06a.683.683,0,0,1,.207-.531.757.757,0,0,1,.531-.189.732.732,0,0,1,.513.189.683.683,0,0,1,.207.531V-.63a.683.683,0,0,1-.207.531A.732.732,0,0,1,88.218.09ZM98.442-2.034a.443.443,0,0,1,.342.162.6.6,0,0,1,.144.414q0,.45-.63.828a5.449,5.449,0,0,1-1.368.567,5.519,5.519,0,0,1-1.4.189A4.287,4.287,0,0,1,92.313-1.08a4.56,4.56,0,0,1-1.179-3.33A5.227,5.227,0,0,1,91.656-6.8a3.9,3.9,0,0,1,1.467-1.611,4.05,4.05,0,0,1,2.151-.576,3.481,3.481,0,0,1,2.718,1.116A4.343,4.343,0,0,1,99-4.842a.775.775,0,0,1-.144.522.6.6,0,0,1-.468.162h-5.8q.162,3.1,2.934,3.1a3.439,3.439,0,0,0,1.206-.189,7.841,7.841,0,0,0,1.08-.513A1.712,1.712,0,0,1,98.442-2.034Zm-3.15-5.814a2.442,2.442,0,0,0-1.845.72,3.29,3.29,0,0,0-.819,2.034h5.094a3.118,3.118,0,0,0-.666-2.043A2.234,2.234,0,0,0,95.292-7.848Z" transform="translate(523.434 340)" fill="#38485c"/>
        </g>
      </g>
      <g id="Desplegable_-_Borde_-_L-2" data-name="Desplegable - Borde - L" transform="translate(455.868 315)">
        <rect id="Rectangle_26341-2" data-name="Rectangle 26341" width="149.434" height="48" rx="8" fill="#fff"/>
        <path id="Rectangle_26341_-_Outline-2" data-name="Rectangle 26341 - Outline" d="M8,0A8,8,0,0,0,0,8V40a8,8,0,0,0,8,8H141.434a8,8,0,0,0,8-8V8a8,8,0,0,0-8-8H8M8-2H141.434a10.011,10.011,0,0,1,10,10V40a10.011,10.011,0,0,1-10,10H8A10.011,10.011,0,0,1-2,40V8A10.011,10.011,0,0,1,8-2Z" fill="#e6ebf0"/>
        <g id="Group_32051-2" data-name="Group 32051" transform="translate(-513 -310)">
          <g id="chevron_right-2" data-name="chevron_right" transform="translate(650.434 322) rotate(90)">
            <rect id="Rectangle_32-2" data-name="Rectangle 32" width="24" height="24" fill="none"/>
            <path id="Path_13167-2" data-name="Path 13167" d="M9,102.711a1,1,0,0,0,0,1.41L12.88,108,9,111.881a1,1,0,0,0,1.41,1.41L15,108.7a1,1,0,0,0,0-1.41l-4.59-4.59A1,1,0,0,0,9,102.711Z" transform="translate(0 -96)" fill="#38485c"/>
          </g>
          <path id="Path_31923" data-name="Path 31923" d="M2.322,0a.761.761,0,0,1-.549-.2A.689.689,0,0,1,1.566-.72V-11.97a.689.689,0,0,1,.207-.522.761.761,0,0,1,.549-.2h3.51a6.407,6.407,0,0,1,4.707,1.647A6.3,6.3,0,0,1,12.2-6.354a6.314,6.314,0,0,1-1.674,4.7A6.392,6.392,0,0,1,5.832,0Zm3.42-1.26q4.932,0,4.932-5.094,0-5.076-4.932-5.076h-2.7V-1.26Zm15.7-.774a.443.443,0,0,1,.342.162.6.6,0,0,1,.144.414q0,.45-.63.828a5.449,5.449,0,0,1-1.368.567,5.519,5.519,0,0,1-1.4.189A4.287,4.287,0,0,1,15.309-1.08,4.56,4.56,0,0,1,14.13-4.41,5.227,5.227,0,0,1,14.652-6.8a3.9,3.9,0,0,1,1.467-1.611,4.05,4.05,0,0,1,2.151-.576,3.481,3.481,0,0,1,2.718,1.116A4.343,4.343,0,0,1,22-4.842a.775.775,0,0,1-.144.522.6.6,0,0,1-.468.162h-5.8q.162,3.1,2.934,3.1a3.439,3.439,0,0,0,1.206-.189,7.841,7.841,0,0,0,1.08-.513A1.712,1.712,0,0,1,21.438-2.034Zm-3.15-5.814a2.442,2.442,0,0,0-1.845.72,3.29,3.29,0,0,0-.819,2.034h5.094a3.118,3.118,0,0,0-.666-2.043A2.234,2.234,0,0,0,18.288-7.848ZM27.09.126a6.124,6.124,0,0,1-1.575-.2A4.8,4.8,0,0,1,24.192-.63a1.771,1.771,0,0,1-.459-.4.769.769,0,0,1-.135-.459.563.563,0,0,1,.135-.387.446.446,0,0,1,.351-.153,1.343,1.343,0,0,1,.63.27,5.992,5.992,0,0,0,1.071.513,3.985,3.985,0,0,0,1.323.189A2.822,2.822,0,0,0,28.62-1.4a1.1,1.1,0,0,0,.54-.99.98.98,0,0,0-.2-.639,1.638,1.638,0,0,0-.684-.432,9.715,9.715,0,0,0-1.422-.387,5.344,5.344,0,0,1-2.268-.918A1.94,1.94,0,0,1,23.9-6.336,2.265,2.265,0,0,1,24.336-7.7a2.907,2.907,0,0,1,1.2-.936,4.214,4.214,0,0,1,1.737-.342,4.891,4.891,0,0,1,1.359.189,4.041,4.041,0,0,1,1.161.531,1.17,1.17,0,0,1,.612.9.575.575,0,0,1-.144.4.443.443,0,0,1-.342.162,1.345,1.345,0,0,1-.648-.306,5.7,5.7,0,0,0-.954-.5,3.019,3.019,0,0,0-1.116-.18,2.238,2.238,0,0,0-1.359.378,1.191,1.191,0,0,0-.513,1.008,1.012,1.012,0,0,0,.189.639,1.563,1.563,0,0,0,.63.432,7.352,7.352,0,0,0,1.269.369,9.067,9.067,0,0,1,1.9.594,2.207,2.207,0,0,1,.963.792,2.234,2.234,0,0,1,.288,1.188A2.154,2.154,0,0,1,29.61-.567,4.193,4.193,0,0,1,27.09.126Zm10.1-9.108a3.636,3.636,0,0,1,2.034.576A3.8,3.8,0,0,1,40.59-6.8a5.6,5.6,0,0,1,.486,2.4,5.477,5.477,0,0,1-.486,2.385A3.722,3.722,0,0,1,39.231-.432a3.711,3.711,0,0,1-2.043.558A3.467,3.467,0,0,1,35.4-.324,2.893,2.893,0,0,1,34.236-1.6v4.23a.693.693,0,0,1-.189.513.718.718,0,0,1-.531.189.73.73,0,0,1-.54-.2.683.683,0,0,1-.2-.5V-8.226a.706.706,0,0,1,.2-.522.73.73,0,0,1,.54-.2.7.7,0,0,1,.531.2.725.725,0,0,1,.189.522v.972A2.893,2.893,0,0,1,35.4-8.532,3.467,3.467,0,0,1,37.188-8.982ZM36.9-1.08a2.407,2.407,0,0,0,1.98-.864,3.789,3.789,0,0,0,.7-2.448,3.905,3.905,0,0,0-.7-2.475,2.376,2.376,0,0,0-1.98-.891,2.381,2.381,0,0,0-1.971.864,3.856,3.856,0,0,0-.693,2.466,3.9,3.9,0,0,0,.693,2.475A2.37,2.37,0,0,0,36.9-1.08ZM43.992.09A.757.757,0,0,1,43.461-.1a.683.683,0,0,1-.207-.531V-12.06a.683.683,0,0,1,.207-.531.757.757,0,0,1,.531-.189.732.732,0,0,1,.513.189.683.683,0,0,1,.207.531V-.63a.683.683,0,0,1-.207.531A.732.732,0,0,1,43.992.09ZM54.216-2.034a.443.443,0,0,1,.342.162.6.6,0,0,1,.144.414q0,.45-.63.828A5.449,5.449,0,0,1,52.7-.063a5.519,5.519,0,0,1-1.4.189A4.287,4.287,0,0,1,48.087-1.08a4.56,4.56,0,0,1-1.179-3.33A5.227,5.227,0,0,1,47.43-6.8,3.9,3.9,0,0,1,48.9-8.406a4.05,4.05,0,0,1,2.151-.576,3.481,3.481,0,0,1,2.718,1.116,4.343,4.343,0,0,1,1.008,3.024.775.775,0,0,1-.144.522.6.6,0,0,1-.468.162h-5.8q.162,3.1,2.934,3.1a3.439,3.439,0,0,0,1.206-.189,7.841,7.841,0,0,0,1.08-.513A1.712,1.712,0,0,1,54.216-2.034Zm-3.15-5.814a2.442,2.442,0,0,0-1.845.72A3.29,3.29,0,0,0,48.4-5.094H53.5a3.118,3.118,0,0,0-.666-2.043A2.234,2.234,0,0,0,51.066-7.848Zm12.96-1.1a.73.73,0,0,1,.54.2.706.706,0,0,1,.2.522V-.594a4,4,0,0,1-1.008,2.961,4.076,4.076,0,0,1-2.988,1,6.208,6.208,0,0,1-3.2-.756q-.648-.36-.648-.828a.625.625,0,0,1,.135-.414.435.435,0,0,1,.351-.162,1.747,1.747,0,0,1,.648.252,8.321,8.321,0,0,0,1.242.522,4.76,4.76,0,0,0,1.458.2A2.55,2.55,0,0,0,62.676,1.5a2.738,2.738,0,0,0,.648-1.971V-2.016a2.746,2.746,0,0,1-1.161,1.3,3.639,3.639,0,0,1-1.845.45,3.863,3.863,0,0,1-2.043-.54,3.651,3.651,0,0,1-1.386-1.53,5.047,5.047,0,0,1-.495-2.286,5.047,5.047,0,0,1,.495-2.286,3.651,3.651,0,0,1,1.386-1.53,3.863,3.863,0,0,1,2.043-.54,3.553,3.553,0,0,1,1.818.45,2.877,2.877,0,0,1,1.17,1.278v-.972a.725.725,0,0,1,.189-.522A.7.7,0,0,1,64.026-8.946Zm-3.42,7.47a2.474,2.474,0,0,0,1.98-.837,3.433,3.433,0,0,0,.72-2.313,3.433,3.433,0,0,0-.711-2.3,2.468,2.468,0,0,0-1.989-.837,2.522,2.522,0,0,0-2.007.837,3.376,3.376,0,0,0-.729,2.3A3.4,3.4,0,0,0,58.6-2.313,2.522,2.522,0,0,0,60.606-1.476Zm10.44-7.506q3.294,0,3.294,3.456v4.9a.725.725,0,0,1-.189.522.676.676,0,0,1-.513.2.706.706,0,0,1-.522-.2.706.706,0,0,1-.2-.522v-.864A2.575,2.575,0,0,1,71.874-.3a3.077,3.077,0,0,1-1.62.423A3.545,3.545,0,0,1,68.7-.216a2.782,2.782,0,0,1-1.125-.954,2.358,2.358,0,0,1-.414-1.35,2.192,2.192,0,0,1,.5-1.539,3.058,3.058,0,0,1,1.656-.792,16.362,16.362,0,0,1,3.2-.243h.4v-.594a2.367,2.367,0,0,0-.441-1.584,1.811,1.811,0,0,0-1.431-.5,5.287,5.287,0,0,0-2.484.666,1.643,1.643,0,0,1-.684.306.462.462,0,0,1-.36-.162.6.6,0,0,1-.144-.414.68.68,0,0,1,.153-.441,1.792,1.792,0,0,1,.495-.387,5.792,5.792,0,0,1,1.431-.567A6.346,6.346,0,0,1,71.046-8.982Zm-.594,7.956a2.339,2.339,0,0,0,1.773-.729,2.619,2.619,0,0,0,.693-1.881v-.522h-.324a16.111,16.111,0,0,0-2.412.135A2.344,2.344,0,0,0,69-3.573a1.181,1.181,0,0,0-.351.927,1.49,1.49,0,0,0,.513,1.161A1.858,1.858,0,0,0,70.452-1.026ZM81.414-8.982a3.723,3.723,0,0,1,2.034.558A3.691,3.691,0,0,1,84.816-6.84,5.492,5.492,0,0,1,85.3-4.464a5.6,5.6,0,0,1-.486,2.4A3.8,3.8,0,0,1,83.448-.45a3.636,3.636,0,0,1-2.034.576,3.467,3.467,0,0,1-1.791-.45A2.893,2.893,0,0,1,78.462-1.6V-.63a.725.725,0,0,1-.189.522.7.7,0,0,1-.531.2.73.73,0,0,1-.54-.2A.706.706,0,0,1,77-.63V-12.078a.683.683,0,0,1,.2-.5.73.73,0,0,1,.54-.2.718.718,0,0,1,.531.189.693.693,0,0,1,.189.513v4.824a2.893,2.893,0,0,1,1.161-1.278A3.467,3.467,0,0,1,81.414-8.982Zm-.288,7.9a2.376,2.376,0,0,0,1.98-.891,3.937,3.937,0,0,0,.7-2.493,3.758,3.758,0,0,0-.7-2.43,2.407,2.407,0,0,0-1.98-.864,2.381,2.381,0,0,0-1.971.864,3.856,3.856,0,0,0-.693,2.466,3.9,3.9,0,0,0,.693,2.475A2.371,2.371,0,0,0,81.126-1.08ZM88.218.09A.757.757,0,0,1,87.687-.1.683.683,0,0,1,87.48-.63V-12.06a.683.683,0,0,1,.207-.531.757.757,0,0,1,.531-.189.732.732,0,0,1,.513.189.683.683,0,0,1,.207.531V-.63a.683.683,0,0,1-.207.531A.732.732,0,0,1,88.218.09ZM98.442-2.034a.443.443,0,0,1,.342.162.6.6,0,0,1,.144.414q0,.45-.63.828a5.449,5.449,0,0,1-1.368.567,5.519,5.519,0,0,1-1.4.189A4.287,4.287,0,0,1,92.313-1.08a4.56,4.56,0,0,1-1.179-3.33A5.227,5.227,0,0,1,91.656-6.8a3.9,3.9,0,0,1,1.467-1.611,4.05,4.05,0,0,1,2.151-.576,3.481,3.481,0,0,1,2.718,1.116A4.343,4.343,0,0,1,99-4.842a.775.775,0,0,1-.144.522.6.6,0,0,1-.468.162h-5.8q.162,3.1,2.934,3.1a3.439,3.439,0,0,0,1.206-.189,7.841,7.841,0,0,0,1.08-.513A1.712,1.712,0,0,1,98.442-2.034Zm-3.15-5.814a2.442,2.442,0,0,0-1.845.72,3.29,3.29,0,0,0-.819,2.034h5.094a3.118,3.118,0,0,0-.666-2.043A2.234,2.234,0,0,0,95.292-7.848Z" transform="translate(523.434 340)" fill="#38485c"/>
        </g>
      </g>
      <g id="Desplegable_-_Borde_-_L-3" data-name="Desplegable - Borde - L" transform="translate(298.434 315)">
        <rect id="Rectangle_26341-3" data-name="Rectangle 26341" width="149.434" height="48" rx="8" fill="#fff"/>
        <path id="Rectangle_26341_-_Outline-3" data-name="Rectangle 26341 - Outline" d="M8,0A8,8,0,0,0,0,8V40a8,8,0,0,0,8,8H141.434a8,8,0,0,0,8-8V8a8,8,0,0,0-8-8H8M8-2H141.434a10.011,10.011,0,0,1,10,10V40a10.011,10.011,0,0,1-10,10H8A10.011,10.011,0,0,1-2,40V8A10.011,10.011,0,0,1,8-2Z" fill="#e6ebf0"/>
        <g id="Group_32051-3" data-name="Group 32051" transform="translate(-513 -310)">
          <g id="chevron_right-3" data-name="chevron_right" transform="translate(650.434 322) rotate(90)">
            <rect id="Rectangle_32-3" data-name="Rectangle 32" width="24" height="24" fill="none"/>
            <path id="Path_13167-3" data-name="Path 13167" d="M9,102.711a1,1,0,0,0,0,1.41L12.88,108,9,111.881a1,1,0,0,0,1.41,1.41L15,108.7a1,1,0,0,0,0-1.41l-4.59-4.59A1,1,0,0,0,9,102.711Z" transform="translate(0 -96)" fill="#38485c"/>
          </g>
          <path id="Path_31922" data-name="Path 31922" d="M2.322,0a.761.761,0,0,1-.549-.2A.689.689,0,0,1,1.566-.72V-11.97a.689.689,0,0,1,.207-.522.761.761,0,0,1,.549-.2h3.51a6.407,6.407,0,0,1,4.707,1.647A6.3,6.3,0,0,1,12.2-6.354a6.314,6.314,0,0,1-1.674,4.7A6.392,6.392,0,0,1,5.832,0Zm3.42-1.26q4.932,0,4.932-5.094,0-5.076-4.932-5.076h-2.7V-1.26Zm15.7-.774a.443.443,0,0,1,.342.162.6.6,0,0,1,.144.414q0,.45-.63.828a5.449,5.449,0,0,1-1.368.567,5.519,5.519,0,0,1-1.4.189A4.287,4.287,0,0,1,15.309-1.08,4.56,4.56,0,0,1,14.13-4.41,5.227,5.227,0,0,1,14.652-6.8a3.9,3.9,0,0,1,1.467-1.611,4.05,4.05,0,0,1,2.151-.576,3.481,3.481,0,0,1,2.718,1.116A4.343,4.343,0,0,1,22-4.842a.775.775,0,0,1-.144.522.6.6,0,0,1-.468.162h-5.8q.162,3.1,2.934,3.1a3.439,3.439,0,0,0,1.206-.189,7.841,7.841,0,0,0,1.08-.513A1.712,1.712,0,0,1,21.438-2.034Zm-3.15-5.814a2.442,2.442,0,0,0-1.845.72,3.29,3.29,0,0,0-.819,2.034h5.094a3.118,3.118,0,0,0-.666-2.043A2.234,2.234,0,0,0,18.288-7.848ZM27.09.126a6.124,6.124,0,0,1-1.575-.2A4.8,4.8,0,0,1,24.192-.63a1.771,1.771,0,0,1-.459-.4.769.769,0,0,1-.135-.459.563.563,0,0,1,.135-.387.446.446,0,0,1,.351-.153,1.343,1.343,0,0,1,.63.27,5.992,5.992,0,0,0,1.071.513,3.985,3.985,0,0,0,1.323.189A2.822,2.822,0,0,0,28.62-1.4a1.1,1.1,0,0,0,.54-.99.98.98,0,0,0-.2-.639,1.638,1.638,0,0,0-.684-.432,9.715,9.715,0,0,0-1.422-.387,5.344,5.344,0,0,1-2.268-.918A1.94,1.94,0,0,1,23.9-6.336,2.265,2.265,0,0,1,24.336-7.7a2.907,2.907,0,0,1,1.2-.936,4.214,4.214,0,0,1,1.737-.342,4.891,4.891,0,0,1,1.359.189,4.041,4.041,0,0,1,1.161.531,1.17,1.17,0,0,1,.612.9.575.575,0,0,1-.144.4.443.443,0,0,1-.342.162,1.345,1.345,0,0,1-.648-.306,5.7,5.7,0,0,0-.954-.5,3.019,3.019,0,0,0-1.116-.18,2.238,2.238,0,0,0-1.359.378,1.191,1.191,0,0,0-.513,1.008,1.012,1.012,0,0,0,.189.639,1.563,1.563,0,0,0,.63.432,7.352,7.352,0,0,0,1.269.369,9.067,9.067,0,0,1,1.9.594,2.207,2.207,0,0,1,.963.792,2.234,2.234,0,0,1,.288,1.188A2.154,2.154,0,0,1,29.61-.567,4.193,4.193,0,0,1,27.09.126Zm10.1-9.108a3.636,3.636,0,0,1,2.034.576A3.8,3.8,0,0,1,40.59-6.8a5.6,5.6,0,0,1,.486,2.4,5.477,5.477,0,0,1-.486,2.385A3.722,3.722,0,0,1,39.231-.432a3.711,3.711,0,0,1-2.043.558A3.467,3.467,0,0,1,35.4-.324,2.893,2.893,0,0,1,34.236-1.6v4.23a.693.693,0,0,1-.189.513.718.718,0,0,1-.531.189.73.73,0,0,1-.54-.2.683.683,0,0,1-.2-.5V-8.226a.706.706,0,0,1,.2-.522.73.73,0,0,1,.54-.2.7.7,0,0,1,.531.2.725.725,0,0,1,.189.522v.972A2.893,2.893,0,0,1,35.4-8.532,3.467,3.467,0,0,1,37.188-8.982ZM36.9-1.08a2.407,2.407,0,0,0,1.98-.864,3.789,3.789,0,0,0,.7-2.448,3.905,3.905,0,0,0-.7-2.475,2.376,2.376,0,0,0-1.98-.891,2.381,2.381,0,0,0-1.971.864,3.856,3.856,0,0,0-.693,2.466,3.9,3.9,0,0,0,.693,2.475A2.37,2.37,0,0,0,36.9-1.08ZM43.992.09A.757.757,0,0,1,43.461-.1a.683.683,0,0,1-.207-.531V-12.06a.683.683,0,0,1,.207-.531.757.757,0,0,1,.531-.189.732.732,0,0,1,.513.189.683.683,0,0,1,.207.531V-.63a.683.683,0,0,1-.207.531A.732.732,0,0,1,43.992.09ZM54.216-2.034a.443.443,0,0,1,.342.162.6.6,0,0,1,.144.414q0,.45-.63.828A5.449,5.449,0,0,1,52.7-.063a5.519,5.519,0,0,1-1.4.189A4.287,4.287,0,0,1,48.087-1.08a4.56,4.56,0,0,1-1.179-3.33A5.227,5.227,0,0,1,47.43-6.8,3.9,3.9,0,0,1,48.9-8.406a4.05,4.05,0,0,1,2.151-.576,3.481,3.481,0,0,1,2.718,1.116,4.343,4.343,0,0,1,1.008,3.024.775.775,0,0,1-.144.522.6.6,0,0,1-.468.162h-5.8q.162,3.1,2.934,3.1a3.439,3.439,0,0,0,1.206-.189,7.841,7.841,0,0,0,1.08-.513A1.712,1.712,0,0,1,54.216-2.034Zm-3.15-5.814a2.442,2.442,0,0,0-1.845.72A3.29,3.29,0,0,0,48.4-5.094H53.5a3.118,3.118,0,0,0-.666-2.043A2.234,2.234,0,0,0,51.066-7.848Zm12.96-1.1a.73.73,0,0,1,.54.2.706.706,0,0,1,.2.522V-.594a4,4,0,0,1-1.008,2.961,4.076,4.076,0,0,1-2.988,1,6.208,6.208,0,0,1-3.2-.756q-.648-.36-.648-.828a.625.625,0,0,1,.135-.414.435.435,0,0,1,.351-.162,1.747,1.747,0,0,1,.648.252,8.321,8.321,0,0,0,1.242.522,4.76,4.76,0,0,0,1.458.2A2.55,2.55,0,0,0,62.676,1.5a2.738,2.738,0,0,0,.648-1.971V-2.016a2.746,2.746,0,0,1-1.161,1.3,3.639,3.639,0,0,1-1.845.45,3.863,3.863,0,0,1-2.043-.54,3.651,3.651,0,0,1-1.386-1.53,5.047,5.047,0,0,1-.495-2.286,5.047,5.047,0,0,1,.495-2.286,3.651,3.651,0,0,1,1.386-1.53,3.863,3.863,0,0,1,2.043-.54,3.553,3.553,0,0,1,1.818.45,2.877,2.877,0,0,1,1.17,1.278v-.972a.725.725,0,0,1,.189-.522A.7.7,0,0,1,64.026-8.946Zm-3.42,7.47a2.474,2.474,0,0,0,1.98-.837,3.433,3.433,0,0,0,.72-2.313,3.433,3.433,0,0,0-.711-2.3,2.468,2.468,0,0,0-1.989-.837,2.522,2.522,0,0,0-2.007.837,3.376,3.376,0,0,0-.729,2.3A3.4,3.4,0,0,0,58.6-2.313,2.522,2.522,0,0,0,60.606-1.476Zm10.44-7.506q3.294,0,3.294,3.456v4.9a.725.725,0,0,1-.189.522.676.676,0,0,1-.513.2.706.706,0,0,1-.522-.2.706.706,0,0,1-.2-.522v-.864A2.575,2.575,0,0,1,71.874-.3a3.077,3.077,0,0,1-1.62.423A3.545,3.545,0,0,1,68.7-.216a2.782,2.782,0,0,1-1.125-.954,2.358,2.358,0,0,1-.414-1.35,2.192,2.192,0,0,1,.5-1.539,3.058,3.058,0,0,1,1.656-.792,16.362,16.362,0,0,1,3.2-.243h.4v-.594a2.367,2.367,0,0,0-.441-1.584,1.811,1.811,0,0,0-1.431-.5,5.287,5.287,0,0,0-2.484.666,1.643,1.643,0,0,1-.684.306.462.462,0,0,1-.36-.162.6.6,0,0,1-.144-.414.68.68,0,0,1,.153-.441,1.792,1.792,0,0,1,.495-.387,5.792,5.792,0,0,1,1.431-.567A6.346,6.346,0,0,1,71.046-8.982Zm-.594,7.956a2.339,2.339,0,0,0,1.773-.729,2.619,2.619,0,0,0,.693-1.881v-.522h-.324a16.111,16.111,0,0,0-2.412.135A2.344,2.344,0,0,0,69-3.573a1.181,1.181,0,0,0-.351.927,1.49,1.49,0,0,0,.513,1.161A1.858,1.858,0,0,0,70.452-1.026ZM81.414-8.982a3.723,3.723,0,0,1,2.034.558A3.691,3.691,0,0,1,84.816-6.84,5.492,5.492,0,0,1,85.3-4.464a5.6,5.6,0,0,1-.486,2.4A3.8,3.8,0,0,1,83.448-.45a3.636,3.636,0,0,1-2.034.576,3.467,3.467,0,0,1-1.791-.45A2.893,2.893,0,0,1,78.462-1.6V-.63a.725.725,0,0,1-.189.522.7.7,0,0,1-.531.2.73.73,0,0,1-.54-.2A.706.706,0,0,1,77-.63V-12.078a.683.683,0,0,1,.2-.5.73.73,0,0,1,.54-.2.718.718,0,0,1,.531.189.693.693,0,0,1,.189.513v4.824a2.893,2.893,0,0,1,1.161-1.278A3.467,3.467,0,0,1,81.414-8.982Zm-.288,7.9a2.376,2.376,0,0,0,1.98-.891,3.937,3.937,0,0,0,.7-2.493,3.758,3.758,0,0,0-.7-2.43,2.407,2.407,0,0,0-1.98-.864,2.381,2.381,0,0,0-1.971.864,3.856,3.856,0,0,0-.693,2.466,3.9,3.9,0,0,0,.693,2.475A2.371,2.371,0,0,0,81.126-1.08ZM88.218.09A.757.757,0,0,1,87.687-.1.683.683,0,0,1,87.48-.63V-12.06a.683.683,0,0,1,.207-.531.757.757,0,0,1,.531-.189.732.732,0,0,1,.513.189.683.683,0,0,1,.207.531V-.63a.683.683,0,0,1-.207.531A.732.732,0,0,1,88.218.09ZM98.442-2.034a.443.443,0,0,1,.342.162.6.6,0,0,1,.144.414q0,.45-.63.828a5.449,5.449,0,0,1-1.368.567,5.519,5.519,0,0,1-1.4.189A4.287,4.287,0,0,1,92.313-1.08a4.56,4.56,0,0,1-1.179-3.33A5.227,5.227,0,0,1,91.656-6.8a3.9,3.9,0,0,1,1.467-1.611,4.05,4.05,0,0,1,2.151-.576,3.481,3.481,0,0,1,2.718,1.116A4.343,4.343,0,0,1,99-4.842a.775.775,0,0,1-.144.522.6.6,0,0,1-.468.162h-5.8q.162,3.1,2.934,3.1a3.439,3.439,0,0,0,1.206-.189,7.841,7.841,0,0,0,1.08-.513A1.712,1.712,0,0,1,98.442-2.034Zm-3.15-5.814a2.442,2.442,0,0,0-1.845.72,3.29,3.29,0,0,0-.819,2.034h5.094a3.118,3.118,0,0,0-.666-2.043A2.234,2.234,0,0,0,95.292-7.848Z" transform="translate(523.434 340)" fill="#38485c"/>
        </g>
      </g>
      <g id="Desplegable_-_Borde_-_L-4" data-name="Desplegable - Borde - L" transform="translate(141 315)">
        <rect id="Rectangle_26341-4" data-name="Rectangle 26341" width="149.434" height="48" rx="8" fill="#fff"/>
        <path id="Rectangle_26341_-_Outline-4" data-name="Rectangle 26341 - Outline" d="M8,0A8,8,0,0,0,0,8V40a8,8,0,0,0,8,8H141.434a8,8,0,0,0,8-8V8a8,8,0,0,0-8-8H8M8-2H141.434a10.011,10.011,0,0,1,10,10V40a10.011,10.011,0,0,1-10,10H8A10.011,10.011,0,0,1-2,40V8A10.011,10.011,0,0,1,8-2Z" fill="#e6ebf0"/>
        <g id="Group_32051-4" data-name="Group 32051" transform="translate(-513 -310)">
          <g id="chevron_right-4" data-name="chevron_right" transform="translate(650.434 322) rotate(90)">
            <rect id="Rectangle_32-4" data-name="Rectangle 32" width="24" height="24" fill="none"/>
            <path id="Path_13167-4" data-name="Path 13167" d="M9,102.711a1,1,0,0,0,0,1.41L12.88,108,9,111.881a1,1,0,0,0,1.41,1.41L15,108.7a1,1,0,0,0,0-1.41l-4.59-4.59A1,1,0,0,0,9,102.711Z" transform="translate(0 -96)" fill="#38485c"/>
          </g>
          <path id="Path_31921" data-name="Path 31921" d="M2.322,0a.761.761,0,0,1-.549-.2A.689.689,0,0,1,1.566-.72V-11.97a.689.689,0,0,1,.207-.522.761.761,0,0,1,.549-.2h3.51a6.407,6.407,0,0,1,4.707,1.647A6.3,6.3,0,0,1,12.2-6.354a6.314,6.314,0,0,1-1.674,4.7A6.392,6.392,0,0,1,5.832,0Zm3.42-1.26q4.932,0,4.932-5.094,0-5.076-4.932-5.076h-2.7V-1.26Zm15.7-.774a.443.443,0,0,1,.342.162.6.6,0,0,1,.144.414q0,.45-.63.828a5.449,5.449,0,0,1-1.368.567,5.519,5.519,0,0,1-1.4.189A4.287,4.287,0,0,1,15.309-1.08,4.56,4.56,0,0,1,14.13-4.41,5.227,5.227,0,0,1,14.652-6.8a3.9,3.9,0,0,1,1.467-1.611,4.05,4.05,0,0,1,2.151-.576,3.481,3.481,0,0,1,2.718,1.116A4.343,4.343,0,0,1,22-4.842a.775.775,0,0,1-.144.522.6.6,0,0,1-.468.162h-5.8q.162,3.1,2.934,3.1a3.439,3.439,0,0,0,1.206-.189,7.841,7.841,0,0,0,1.08-.513A1.712,1.712,0,0,1,21.438-2.034Zm-3.15-5.814a2.442,2.442,0,0,0-1.845.72,3.29,3.29,0,0,0-.819,2.034h5.094a3.118,3.118,0,0,0-.666-2.043A2.234,2.234,0,0,0,18.288-7.848ZM27.09.126a6.124,6.124,0,0,1-1.575-.2A4.8,4.8,0,0,1,24.192-.63a1.771,1.771,0,0,1-.459-.4.769.769,0,0,1-.135-.459.563.563,0,0,1,.135-.387.446.446,0,0,1,.351-.153,1.343,1.343,0,0,1,.63.27,5.992,5.992,0,0,0,1.071.513,3.985,3.985,0,0,0,1.323.189A2.822,2.822,0,0,0,28.62-1.4a1.1,1.1,0,0,0,.54-.99.98.98,0,0,0-.2-.639,1.638,1.638,0,0,0-.684-.432,9.715,9.715,0,0,0-1.422-.387,5.344,5.344,0,0,1-2.268-.918A1.94,1.94,0,0,1,23.9-6.336,2.265,2.265,0,0,1,24.336-7.7a2.907,2.907,0,0,1,1.2-.936,4.214,4.214,0,0,1,1.737-.342,4.891,4.891,0,0,1,1.359.189,4.041,4.041,0,0,1,1.161.531,1.17,1.17,0,0,1,.612.9.575.575,0,0,1-.144.4.443.443,0,0,1-.342.162,1.345,1.345,0,0,1-.648-.306,5.7,5.7,0,0,0-.954-.5,3.019,3.019,0,0,0-1.116-.18,2.238,2.238,0,0,0-1.359.378,1.191,1.191,0,0,0-.513,1.008,1.012,1.012,0,0,0,.189.639,1.563,1.563,0,0,0,.63.432,7.352,7.352,0,0,0,1.269.369,9.067,9.067,0,0,1,1.9.594,2.207,2.207,0,0,1,.963.792,2.234,2.234,0,0,1,.288,1.188A2.154,2.154,0,0,1,29.61-.567,4.193,4.193,0,0,1,27.09.126Zm10.1-9.108a3.636,3.636,0,0,1,2.034.576A3.8,3.8,0,0,1,40.59-6.8a5.6,5.6,0,0,1,.486,2.4,5.477,5.477,0,0,1-.486,2.385A3.722,3.722,0,0,1,39.231-.432a3.711,3.711,0,0,1-2.043.558A3.467,3.467,0,0,1,35.4-.324,2.893,2.893,0,0,1,34.236-1.6v4.23a.693.693,0,0,1-.189.513.718.718,0,0,1-.531.189.73.73,0,0,1-.54-.2.683.683,0,0,1-.2-.5V-8.226a.706.706,0,0,1,.2-.522.73.73,0,0,1,.54-.2.7.7,0,0,1,.531.2.725.725,0,0,1,.189.522v.972A2.893,2.893,0,0,1,35.4-8.532,3.467,3.467,0,0,1,37.188-8.982ZM36.9-1.08a2.407,2.407,0,0,0,1.98-.864,3.789,3.789,0,0,0,.7-2.448,3.905,3.905,0,0,0-.7-2.475,2.376,2.376,0,0,0-1.98-.891,2.381,2.381,0,0,0-1.971.864,3.856,3.856,0,0,0-.693,2.466,3.9,3.9,0,0,0,.693,2.475A2.37,2.37,0,0,0,36.9-1.08ZM43.992.09A.757.757,0,0,1,43.461-.1a.683.683,0,0,1-.207-.531V-12.06a.683.683,0,0,1,.207-.531.757.757,0,0,1,.531-.189.732.732,0,0,1,.513.189.683.683,0,0,1,.207.531V-.63a.683.683,0,0,1-.207.531A.732.732,0,0,1,43.992.09ZM54.216-2.034a.443.443,0,0,1,.342.162.6.6,0,0,1,.144.414q0,.45-.63.828A5.449,5.449,0,0,1,52.7-.063a5.519,5.519,0,0,1-1.4.189A4.287,4.287,0,0,1,48.087-1.08a4.56,4.56,0,0,1-1.179-3.33A5.227,5.227,0,0,1,47.43-6.8,3.9,3.9,0,0,1,48.9-8.406a4.05,4.05,0,0,1,2.151-.576,3.481,3.481,0,0,1,2.718,1.116,4.343,4.343,0,0,1,1.008,3.024.775.775,0,0,1-.144.522.6.6,0,0,1-.468.162h-5.8q.162,3.1,2.934,3.1a3.439,3.439,0,0,0,1.206-.189,7.841,7.841,0,0,0,1.08-.513A1.712,1.712,0,0,1,54.216-2.034Zm-3.15-5.814a2.442,2.442,0,0,0-1.845.72A3.29,3.29,0,0,0,48.4-5.094H53.5a3.118,3.118,0,0,0-.666-2.043A2.234,2.234,0,0,0,51.066-7.848Zm12.96-1.1a.73.73,0,0,1,.54.2.706.706,0,0,1,.2.522V-.594a4,4,0,0,1-1.008,2.961,4.076,4.076,0,0,1-2.988,1,6.208,6.208,0,0,1-3.2-.756q-.648-.36-.648-.828a.625.625,0,0,1,.135-.414.435.435,0,0,1,.351-.162,1.747,1.747,0,0,1,.648.252,8.321,8.321,0,0,0,1.242.522,4.76,4.76,0,0,0,1.458.2A2.55,2.55,0,0,0,62.676,1.5a2.738,2.738,0,0,0,.648-1.971V-2.016a2.746,2.746,0,0,1-1.161,1.3,3.639,3.639,0,0,1-1.845.45,3.863,3.863,0,0,1-2.043-.54,3.651,3.651,0,0,1-1.386-1.53,5.047,5.047,0,0,1-.495-2.286,5.047,5.047,0,0,1,.495-2.286,3.651,3.651,0,0,1,1.386-1.53,3.863,3.863,0,0,1,2.043-.54,3.553,3.553,0,0,1,1.818.45,2.877,2.877,0,0,1,1.17,1.278v-.972a.725.725,0,0,1,.189-.522A.7.7,0,0,1,64.026-8.946Zm-3.42,7.47a2.474,2.474,0,0,0,1.98-.837,3.433,3.433,0,0,0,.72-2.313,3.433,3.433,0,0,0-.711-2.3,2.468,2.468,0,0,0-1.989-.837,2.522,2.522,0,0,0-2.007.837,3.376,3.376,0,0,0-.729,2.3A3.4,3.4,0,0,0,58.6-2.313,2.522,2.522,0,0,0,60.606-1.476Zm10.44-7.506q3.294,0,3.294,3.456v4.9a.725.725,0,0,1-.189.522.676.676,0,0,1-.513.2.706.706,0,0,1-.522-.2.706.706,0,0,1-.2-.522v-.864A2.575,2.575,0,0,1,71.874-.3a3.077,3.077,0,0,1-1.62.423A3.545,3.545,0,0,1,68.7-.216a2.782,2.782,0,0,1-1.125-.954,2.358,2.358,0,0,1-.414-1.35,2.192,2.192,0,0,1,.5-1.539,3.058,3.058,0,0,1,1.656-.792,16.362,16.362,0,0,1,3.2-.243h.4v-.594a2.367,2.367,0,0,0-.441-1.584,1.811,1.811,0,0,0-1.431-.5,5.287,5.287,0,0,0-2.484.666,1.643,1.643,0,0,1-.684.306.462.462,0,0,1-.36-.162.6.6,0,0,1-.144-.414.68.68,0,0,1,.153-.441,1.792,1.792,0,0,1,.495-.387,5.792,5.792,0,0,1,1.431-.567A6.346,6.346,0,0,1,71.046-8.982Zm-.594,7.956a2.339,2.339,0,0,0,1.773-.729,2.619,2.619,0,0,0,.693-1.881v-.522h-.324a16.111,16.111,0,0,0-2.412.135A2.344,2.344,0,0,0,69-3.573a1.181,1.181,0,0,0-.351.927,1.49,1.49,0,0,0,.513,1.161A1.858,1.858,0,0,0,70.452-1.026ZM81.414-8.982a3.723,3.723,0,0,1,2.034.558A3.691,3.691,0,0,1,84.816-6.84,5.492,5.492,0,0,1,85.3-4.464a5.6,5.6,0,0,1-.486,2.4A3.8,3.8,0,0,1,83.448-.45a3.636,3.636,0,0,1-2.034.576,3.467,3.467,0,0,1-1.791-.45A2.893,2.893,0,0,1,78.462-1.6V-.63a.725.725,0,0,1-.189.522.7.7,0,0,1-.531.2.73.73,0,0,1-.54-.2A.706.706,0,0,1,77-.63V-12.078a.683.683,0,0,1,.2-.5.73.73,0,0,1,.54-.2.718.718,0,0,1,.531.189.693.693,0,0,1,.189.513v4.824a2.893,2.893,0,0,1,1.161-1.278A3.467,3.467,0,0,1,81.414-8.982Zm-.288,7.9a2.376,2.376,0,0,0,1.98-.891,3.937,3.937,0,0,0,.7-2.493,3.758,3.758,0,0,0-.7-2.43,2.407,2.407,0,0,0-1.98-.864,2.381,2.381,0,0,0-1.971.864,3.856,3.856,0,0,0-.693,2.466,3.9,3.9,0,0,0,.693,2.475A2.371,2.371,0,0,0,81.126-1.08ZM88.218.09A.757.757,0,0,1,87.687-.1.683.683,0,0,1,87.48-.63V-12.06a.683.683,0,0,1,.207-.531.757.757,0,0,1,.531-.189.732.732,0,0,1,.513.189.683.683,0,0,1,.207.531V-.63a.683.683,0,0,1-.207.531A.732.732,0,0,1,88.218.09ZM98.442-2.034a.443.443,0,0,1,.342.162.6.6,0,0,1,.144.414q0,.45-.63.828a5.449,5.449,0,0,1-1.368.567,5.519,5.519,0,0,1-1.4.189A4.287,4.287,0,0,1,92.313-1.08a4.56,4.56,0,0,1-1.179-3.33A5.227,5.227,0,0,1,91.656-6.8a3.9,3.9,0,0,1,1.467-1.611,4.05,4.05,0,0,1,2.151-.576,3.481,3.481,0,0,1,2.718,1.116A4.343,4.343,0,0,1,99-4.842a.775.775,0,0,1-.144.522.6.6,0,0,1-.468.162h-5.8q.162,3.1,2.934,3.1a3.439,3.439,0,0,0,1.206-.189,7.841,7.841,0,0,0,1.08-.513A1.712,1.712,0,0,1,98.442-2.034Zm-3.15-5.814a2.442,2.442,0,0,0-1.845.72,3.29,3.29,0,0,0-.819,2.034h5.094a3.118,3.118,0,0,0-.666-2.043A2.234,2.234,0,0,0,95.292-7.848Z" transform="translate(523.434 340)" fill="#38485c"/>
        </g>
      </g>
    </g>
  </g>
</svg>
