<svg xmlns="http://www.w3.org/2000/svg" xmlns:xlink="http://www.w3.org/1999/xlink" width="710" height="280" viewBox="0 0 710 280">
  <defs>
    <filter id="Rectángulo_17601" x="12" y="62" width="376" height="198" filterUnits="userSpaceOnUse">
      <feOffset input="SourceAlpha"/>
      <feGaussianBlur stdDeviation="6" result="blur"/>
      <feFlood flood-color="#38485c" flood-opacity="0.161"/>
      <feComposite operator="in" in2="blur"/>
      <feComposite in="SourceGraphic"/>
    </filter>
  </defs>
  <g id="Grupo_21067" data-name="Grupo 21067" transform="translate(-515 -1842)">
    <rect id="Rectángulo_17727" data-name="Rectángulo 17727" width="710" height="280" rx="8" transform="translate(515 1842)" fill="#f3f6f9"/>
    <rect id="Rectángulo_17606" data-name="Rectángulo 17606" width="114" height="32" rx="8" transform="translate(639 1882)" fill="#fff"/>
    <g id="keyboard_arrow_down_black_24dp" transform="translate(725 1886)">
      <path id="Trazado_26548" data-name="Trazado 26548" d="M0,0H24V24H0Z" fill="none"/>
      <path id="Trazado_26549" data-name="Trazado 26549" d="M7.41,8.59,12,13.17l4.59-4.58L18,10l-6,6L6,10Z" fill="#38485c"/>
    </g>
    <path id="Trazado_27837" data-name="Trazado 27837" d="M11.484-5.727A6.288,6.288,0,0,1,10.1-1.414,4.875,4.875,0,0,1,6.242.156,4.937,4.937,0,0,1,2.348-1.387,6.339,6.339,0,0,1,.977-5.742a6.26,6.26,0,0,1,1.375-4.324A4.972,4.972,0,0,1,6.258-11.6,4.866,4.866,0,0,1,10.1-10.039,6.281,6.281,0,0,1,11.484-5.727Zm-9.1,0a5.421,5.421,0,0,0,.988,3.52,3.507,3.507,0,0,0,2.871,1.2A3.473,3.473,0,0,0,9.109-2.2a5.5,5.5,0,0,0,.969-3.523,5.453,5.453,0,0,0-.965-3.5,3.457,3.457,0,0,0-2.855-1.191,3.525,3.525,0,0,0-2.887,1.2A5.365,5.365,0,0,0,2.383-5.727ZM16.6-.914a4.236,4.236,0,0,0,.664-.051,4.3,4.3,0,0,0,.508-.105v.992a2.371,2.371,0,0,1-.621.168,4.664,4.664,0,0,1-.738.066q-2.484,0-2.484-2.617V-7.555H12.7V-8.18l1.227-.539.547-1.828h.75v1.984h2.484v1.008H15.227v5.039a1.734,1.734,0,0,0,.367,1.188A1.278,1.278,0,0,0,16.6-.914Zm6.789-7.8a5.075,5.075,0,0,1,1.023.094l-.18,1.2a4.418,4.418,0,0,0-.937-.117A2.282,2.282,0,0,0,21.52-6.7a3.077,3.077,0,0,0-.738,2.1V0h-1.3V-8.562h1.07L20.7-6.977h.063a3.764,3.764,0,0,1,1.148-1.289A2.585,2.585,0,0,1,23.391-8.719Zm10.016,4.43a4.724,4.724,0,0,1-1.055,3.27A3.714,3.714,0,0,1,29.438.156,3.86,3.86,0,0,1,27.4-.383,3.558,3.558,0,0,1,26.023-1.93a5.391,5.391,0,0,1-.484-2.359,4.716,4.716,0,0,1,1.047-3.262,3.7,3.7,0,0,1,2.906-1.168,3.622,3.622,0,0,1,2.855,1.2A4.7,4.7,0,0,1,33.406-4.289Zm-6.523,0a4.064,4.064,0,0,0,.656,2.5,2.278,2.278,0,0,0,1.93.859A2.293,2.293,0,0,0,31.4-1.785a4.043,4.043,0,0,0,.66-2.5,3.978,3.978,0,0,0-.66-2.48,2.32,2.32,0,0,0-1.949-.848,2.283,2.283,0,0,0-1.922.836A4.023,4.023,0,0,0,26.883-4.289ZM43.7-7.555h-2.18V0h-1.3V-7.555H38.688v-.586l1.531-.469v-.477q0-3.156,2.758-3.156a5.675,5.675,0,0,1,1.594.273l-.336,1.039a4.29,4.29,0,0,0-1.281-.242,1.248,1.248,0,0,0-1.086.488,2.725,2.725,0,0,0-.352,1.566v.555H43.7ZM46.555,0h-1.3V-8.562h1.3ZM45.148-10.883a.861.861,0,0,1,.219-.652.764.764,0,0,1,.547-.207.764.764,0,0,1,.539.211.846.846,0,0,1,.227.648.859.859,0,0,1-.227.652.757.757,0,0,1-.539.215.749.749,0,0,1-.547-.215A.877.877,0,0,1,45.148-10.883ZM50.6,0H49.3V-12.156h1.3Zm5.516-.914a4.236,4.236,0,0,0,.664-.051,4.3,4.3,0,0,0,.508-.105v.992a2.371,2.371,0,0,1-.621.168,4.664,4.664,0,0,1-.738.066q-2.484,0-2.484-2.617V-7.555H52.219V-8.18l1.227-.539.547-1.828h.75v1.984h2.484v1.008H54.742v5.039a1.734,1.734,0,0,0,.367,1.188A1.278,1.278,0,0,0,56.117-.914Zm6.789-7.8a5.075,5.075,0,0,1,1.023.094l-.18,1.2a4.418,4.418,0,0,0-.937-.117,2.282,2.282,0,0,0-1.777.844,3.077,3.077,0,0,0-.738,2.1V0H59V-8.562h1.07l.148,1.586h.063A3.764,3.764,0,0,1,61.43-8.266,2.585,2.585,0,0,1,62.906-8.719Zm10.016,4.43a4.724,4.724,0,0,1-1.055,3.27A3.714,3.714,0,0,1,68.953.156a3.86,3.86,0,0,1-2.039-.539A3.558,3.558,0,0,1,65.539-1.93a5.391,5.391,0,0,1-.484-2.359A4.716,4.716,0,0,1,66.1-7.551a3.7,3.7,0,0,1,2.906-1.168,3.622,3.622,0,0,1,2.855,1.2A4.7,4.7,0,0,1,72.922-4.289Zm-6.523,0a4.064,4.064,0,0,0,.656,2.5,2.278,2.278,0,0,0,1.93.859,2.293,2.293,0,0,0,1.934-.855,4.043,4.043,0,0,0,.66-2.5,3.978,3.978,0,0,0-.66-2.48,2.32,2.32,0,0,0-1.949-.848,2.283,2.283,0,0,0-1.922.836A4.023,4.023,0,0,0,66.4-4.289Z" transform="translate(647 1904)" fill="#38485c"/>
    <rect id="Rectángulo_17606-2" data-name="Rectángulo 17606" width="114" height="32" rx="8" transform="translate(769 1882)" fill="#fff"/>
    <g id="keyboard_arrow_down_black_24dp-2" data-name="keyboard_arrow_down_black_24dp" transform="translate(855 1886)">
      <path id="Trazado_26548-2" data-name="Trazado 26548" d="M0,0H24V24H0Z" fill="none"/>
      <path id="Trazado_26549-2" data-name="Trazado 26549" d="M7.41,8.59,12,13.17l4.59-4.58L18,10l-6,6L6,10Z" fill="#38485c"/>
    </g>
    <path id="Trazado_27838" data-name="Trazado 27838" d="M11.484-5.727A6.288,6.288,0,0,1,10.1-1.414,4.875,4.875,0,0,1,6.242.156,4.937,4.937,0,0,1,2.348-1.387,6.339,6.339,0,0,1,.977-5.742a6.26,6.26,0,0,1,1.375-4.324A4.972,4.972,0,0,1,6.258-11.6,4.866,4.866,0,0,1,10.1-10.039,6.281,6.281,0,0,1,11.484-5.727Zm-9.1,0a5.421,5.421,0,0,0,.988,3.52,3.507,3.507,0,0,0,2.871,1.2A3.473,3.473,0,0,0,9.109-2.2a5.5,5.5,0,0,0,.969-3.523,5.453,5.453,0,0,0-.965-3.5,3.457,3.457,0,0,0-2.855-1.191,3.525,3.525,0,0,0-2.887,1.2A5.365,5.365,0,0,0,2.383-5.727ZM16.6-.914a4.236,4.236,0,0,0,.664-.051,4.3,4.3,0,0,0,.508-.105v.992a2.371,2.371,0,0,1-.621.168,4.664,4.664,0,0,1-.738.066q-2.484,0-2.484-2.617V-7.555H12.7V-8.18l1.227-.539.547-1.828h.75v1.984h2.484v1.008H15.227v5.039a1.734,1.734,0,0,0,.367,1.188A1.278,1.278,0,0,0,16.6-.914Zm6.789-7.8a5.075,5.075,0,0,1,1.023.094l-.18,1.2a4.418,4.418,0,0,0-.937-.117A2.282,2.282,0,0,0,21.52-6.7a3.077,3.077,0,0,0-.738,2.1V0h-1.3V-8.562h1.07L20.7-6.977h.063a3.764,3.764,0,0,1,1.148-1.289A2.585,2.585,0,0,1,23.391-8.719Zm10.016,4.43a4.724,4.724,0,0,1-1.055,3.27A3.714,3.714,0,0,1,29.438.156,3.86,3.86,0,0,1,27.4-.383,3.558,3.558,0,0,1,26.023-1.93a5.391,5.391,0,0,1-.484-2.359,4.716,4.716,0,0,1,1.047-3.262,3.7,3.7,0,0,1,2.906-1.168,3.622,3.622,0,0,1,2.855,1.2A4.7,4.7,0,0,1,33.406-4.289Zm-6.523,0a4.064,4.064,0,0,0,.656,2.5,2.278,2.278,0,0,0,1.93.859A2.293,2.293,0,0,0,31.4-1.785a4.043,4.043,0,0,0,.66-2.5,3.978,3.978,0,0,0-.66-2.48,2.32,2.32,0,0,0-1.949-.848,2.283,2.283,0,0,0-1.922.836A4.023,4.023,0,0,0,26.883-4.289ZM43.7-7.555h-2.18V0h-1.3V-7.555H38.688v-.586l1.531-.469v-.477q0-3.156,2.758-3.156a5.675,5.675,0,0,1,1.594.273l-.336,1.039a4.29,4.29,0,0,0-1.281-.242,1.248,1.248,0,0,0-1.086.488,2.725,2.725,0,0,0-.352,1.566v.555H43.7ZM46.555,0h-1.3V-8.562h1.3ZM45.148-10.883a.861.861,0,0,1,.219-.652.764.764,0,0,1,.547-.207.764.764,0,0,1,.539.211.846.846,0,0,1,.227.648.859.859,0,0,1-.227.652.757.757,0,0,1-.539.215.749.749,0,0,1-.547-.215A.877.877,0,0,1,45.148-10.883ZM50.6,0H49.3V-12.156h1.3Zm5.516-.914a4.236,4.236,0,0,0,.664-.051,4.3,4.3,0,0,0,.508-.105v.992a2.371,2.371,0,0,1-.621.168,4.664,4.664,0,0,1-.738.066q-2.484,0-2.484-2.617V-7.555H52.219V-8.18l1.227-.539.547-1.828h.75v1.984h2.484v1.008H54.742v5.039a1.734,1.734,0,0,0,.367,1.188A1.278,1.278,0,0,0,56.117-.914Zm6.789-7.8a5.075,5.075,0,0,1,1.023.094l-.18,1.2a4.418,4.418,0,0,0-.937-.117,2.282,2.282,0,0,0-1.777.844,3.077,3.077,0,0,0-.738,2.1V0H59V-8.562h1.07l.148,1.586h.063A3.764,3.764,0,0,1,61.43-8.266,2.585,2.585,0,0,1,62.906-8.719Zm10.016,4.43a4.724,4.724,0,0,1-1.055,3.27A3.714,3.714,0,0,1,68.953.156a3.86,3.86,0,0,1-2.039-.539A3.558,3.558,0,0,1,65.539-1.93a5.391,5.391,0,0,1-.484-2.359A4.716,4.716,0,0,1,66.1-7.551a3.7,3.7,0,0,1,2.906-1.168,3.622,3.622,0,0,1,2.855,1.2A4.7,4.7,0,0,1,72.922-4.289Zm-6.523,0a4.064,4.064,0,0,0,.656,2.5,2.278,2.278,0,0,0,1.93.859,2.293,2.293,0,0,0,1.934-.855,4.043,4.043,0,0,0,.66-2.5,3.978,3.978,0,0,0-.66-2.48,2.32,2.32,0,0,0-1.949-.848,2.283,2.283,0,0,0-1.922.836A4.023,4.023,0,0,0,66.4-4.289Z" transform="translate(777 1904)" fill="#38485c"/>
    <path id="Trazado_27749" data-name="Trazado 27749" d="M8,0H70a8,8,0,0,1,8,8V24a8,8,0,0,1-8,8H8a8,8,0,0,1-8-8V8A8,8,0,0,1,8,0Z" transform="translate(545 1882)" fill="#f4f6f9" stroke="#005387" stroke-width="2"/>
    <g id="keyboard_arrow_down_black_24dp-3" data-name="keyboard_arrow_down_black_24dp" transform="translate(595 1886)">
      <path id="Trazado_26548-3" data-name="Trazado 26548" d="M0,0H24V24H0Z" fill="none"/>
      <path id="Trazado_26549-3" data-name="Trazado 26549" d="M7.41,8.59,12,13.17l4.59-4.58L18,10l-6,6L6,10Z" fill="#38485c"/>
    </g>
    <path id="Trazado_27833" data-name="Trazado 27833" d="M2.9,0H1.57V-11.422H7.938v1.18H2.9v4.18H7.633v1.18H2.9ZM10.93,0h-1.3V-8.562h1.3ZM9.523-10.883a.861.861,0,0,1,.219-.652.764.764,0,0,1,.547-.207.764.764,0,0,1,.539.211.846.846,0,0,1,.227.648.859.859,0,0,1-.227.652.757.757,0,0,1-.539.215.749.749,0,0,1-.547-.215A.877.877,0,0,1,9.523-10.883ZM14.977,0h-1.3V-12.156h1.3Zm5.516-.914a4.236,4.236,0,0,0,.664-.051,4.3,4.3,0,0,0,.508-.105v.992a2.371,2.371,0,0,1-.621.168A4.664,4.664,0,0,1,20.3.156q-2.484,0-2.484-2.617V-7.555H16.594V-8.18l1.227-.539.547-1.828h.75v1.984H21.6v1.008H19.117v5.039a1.734,1.734,0,0,0,.367,1.188A1.278,1.278,0,0,0,20.492-.914Zm6.789-7.8a5.075,5.075,0,0,1,1.023.094l-.18,1.2a4.418,4.418,0,0,0-.937-.117A2.282,2.282,0,0,0,25.41-6.7a3.077,3.077,0,0,0-.738,2.1V0h-1.3V-8.562h1.07l.148,1.586h.063A3.764,3.764,0,0,1,25.8-8.266,2.585,2.585,0,0,1,27.281-8.719ZM37.3-4.289a4.724,4.724,0,0,1-1.055,3.27A3.714,3.714,0,0,1,33.328.156a3.86,3.86,0,0,1-2.039-.539A3.558,3.558,0,0,1,29.914-1.93a5.391,5.391,0,0,1-.484-2.359,4.716,4.716,0,0,1,1.047-3.262,3.7,3.7,0,0,1,2.906-1.168,3.622,3.622,0,0,1,2.855,1.2A4.7,4.7,0,0,1,37.3-4.289Zm-6.523,0a4.064,4.064,0,0,0,.656,2.5,2.278,2.278,0,0,0,1.93.859,2.293,2.293,0,0,0,1.934-.855,4.043,4.043,0,0,0,.66-2.5,3.978,3.978,0,0,0-.66-2.48,2.32,2.32,0,0,0-1.949-.848,2.283,2.283,0,0,0-1.922.836A4.023,4.023,0,0,0,30.773-4.289Z" transform="translate(553 1904)" fill="#38485c"/>
    <g transform="matrix(1, 0, 0, 1, 515, 1842)" filter="url(#Rectángulo_17601)">
      <rect id="Rectángulo_17601-2" data-name="Rectángulo 17601" width="340" height="162" rx="8" transform="translate(30 80)" fill="#fff"/>
    </g>
    <rect id="Rectángulo_17144" data-name="Rectángulo 17144" width="324" height="46" rx="4" transform="translate(553 1930)" fill="#fff"/>
    <path id="Trazado_27834" data-name="Trazado 27834" d="M11.484,11.273A6.288,6.288,0,0,1,10.1,15.586a4.875,4.875,0,0,1-3.855,1.57,4.937,4.937,0,0,1-3.895-1.543A6.339,6.339,0,0,1,.977,11.258,6.26,6.26,0,0,1,2.352,6.934,4.972,4.972,0,0,1,6.258,5.4,4.866,4.866,0,0,1,10.1,6.961,6.281,6.281,0,0,1,11.484,11.273Zm-9.1,0a5.421,5.421,0,0,0,.988,3.52,3.507,3.507,0,0,0,2.871,1.2,3.473,3.473,0,0,0,2.867-1.2,5.5,5.5,0,0,0,.969-3.523,5.453,5.453,0,0,0-.965-3.5A3.457,3.457,0,0,0,6.258,6.586a3.525,3.525,0,0,0-2.887,1.2A5.365,5.365,0,0,0,2.383,11.273ZM17.82,17.156a3.706,3.706,0,0,1-1.527-.309,2.872,2.872,0,0,1-1.16-.949h-.094a11.485,11.485,0,0,1,.094,1.422v3.523h-1.3V8.438h1.055l.18,1.172h.063A3.012,3.012,0,0,1,16.3,8.594a3.539,3.539,0,0,1,1.523-.312,3.165,3.165,0,0,1,2.629,1.164,5.125,5.125,0,0,1,.926,3.266,5.1,5.1,0,0,1-.941,3.277A3.17,3.17,0,0,1,17.82,17.156Zm-.187-7.773a2.3,2.3,0,0,0-1.9.727,3.739,3.739,0,0,0-.6,2.313v.289a4.285,4.285,0,0,0,.6,2.582,2.288,2.288,0,0,0,1.93.777,2.007,2.007,0,0,0,1.738-.9,4.26,4.26,0,0,0,.629-2.477,4.1,4.1,0,0,0-.629-2.457A2.069,2.069,0,0,0,17.633,9.383Zm9.43,7.773a3.654,3.654,0,0,1-2.879-1.145,4.707,4.707,0,0,1-1.02-3.238A4.853,4.853,0,0,1,24.2,9.453a3.727,3.727,0,0,1,2.949-1.172,5.852,5.852,0,0,1,1.234.133,4.066,4.066,0,0,1,.969.313l-.4,1.1a6.1,6.1,0,0,0-.937-.285,4.186,4.186,0,0,0-.9-.113q-2.609,0-2.609,3.328a3.963,3.963,0,0,0,.637,2.422,2.215,2.215,0,0,0,1.887.844,5.769,5.769,0,0,0,2.2-.461v1.148A4.679,4.679,0,0,1,27.063,17.156ZM32.555,17h-1.3V8.438h1.3ZM31.148,6.117a.861.861,0,0,1,.219-.652.81.81,0,0,1,1.086,0,.846.846,0,0,1,.227.648.859.859,0,0,1-.227.652.794.794,0,0,1-1.086,0A.877.877,0,0,1,31.148,6.117ZM42.7,12.711a4.724,4.724,0,0,1-1.055,3.27,3.714,3.714,0,0,1-2.914,1.176,3.86,3.86,0,0,1-2.039-.539,3.558,3.558,0,0,1-1.375-1.547,5.391,5.391,0,0,1-.484-2.359,4.716,4.716,0,0,1,1.047-3.262,3.7,3.7,0,0,1,2.906-1.168,3.622,3.622,0,0,1,2.855,1.2A4.7,4.7,0,0,1,42.7,12.711Zm-6.523,0a4.064,4.064,0,0,0,.656,2.5,2.6,2.6,0,0,0,3.863,0,4.043,4.043,0,0,0,.66-2.5,3.978,3.978,0,0,0-.66-2.48,2.32,2.32,0,0,0-1.949-.848,2.283,2.283,0,0,0-1.922.836A4.023,4.023,0,0,0,36.172,12.711Zm1.5-5.6q.375-.484.809-1.172a13.412,13.412,0,0,0,.684-1.2h1.578v.164a11.549,11.549,0,0,1-1.023,1.25A11.62,11.62,0,0,1,38.539,7.3h-.867ZM50.828,17V11.461A2.235,2.235,0,0,0,50.352,9.9a1.941,1.941,0,0,0-1.492-.516,2.461,2.461,0,0,0-1.969.727,3.668,3.668,0,0,0-.625,2.4V17h-1.3V8.438h1.055l.211,1.172H46.3a2.648,2.648,0,0,1,1.117-.98,3.63,3.63,0,0,1,1.6-.348,3.252,3.252,0,0,1,2.328.746,3.175,3.175,0,0,1,.781,2.387V17Zm12.328,0H61.891V8.859q0-1.016.063-1.922-.164.164-.367.344T59.727,8.8l-.687-.891,3.023-2.336h1.094Z" transform="translate(561 1941.999)" fill="#38485c"/>
    <g id="highlight_off_black_24dp" transform="translate(845 1941)">
      <path id="Trazado_26546" data-name="Trazado 26546" d="M0,0H24V24H0Z" fill="none"/>
      <path id="Trazado_26547" data-name="Trazado 26547" d="M14.59,8,12,10.59,9.41,8,8,9.41,10.59,12,8,14.59,9.41,16,12,13.41,14.59,16,16,14.59,13.41,12,16,9.41ZM12,2A10,10,0,1,0,22,12,9.991,9.991,0,0,0,12,2Zm0,18a8,8,0,1,1,8-8A8.011,8.011,0,0,1,12,20Z" fill="none"/>
    </g>
    <rect id="Rectángulo_17144-2" data-name="Rectángulo 17144" width="324" height="46" rx="4" transform="translate(553 1980)" fill="#fff"/>
    <path id="Trazado_27835" data-name="Trazado 27835" d="M11.484,11.273A6.288,6.288,0,0,1,10.1,15.586a4.875,4.875,0,0,1-3.855,1.57,4.937,4.937,0,0,1-3.895-1.543A6.339,6.339,0,0,1,.977,11.258,6.26,6.26,0,0,1,2.352,6.934,4.972,4.972,0,0,1,6.258,5.4,4.866,4.866,0,0,1,10.1,6.961,6.281,6.281,0,0,1,11.484,11.273Zm-9.1,0a5.421,5.421,0,0,0,.988,3.52,3.507,3.507,0,0,0,2.871,1.2,3.473,3.473,0,0,0,2.867-1.2,5.5,5.5,0,0,0,.969-3.523,5.453,5.453,0,0,0-.965-3.5A3.457,3.457,0,0,0,6.258,6.586a3.525,3.525,0,0,0-2.887,1.2A5.365,5.365,0,0,0,2.383,11.273ZM17.82,17.156a3.706,3.706,0,0,1-1.527-.309,2.872,2.872,0,0,1-1.16-.949h-.094a11.485,11.485,0,0,1,.094,1.422v3.523h-1.3V8.438h1.055l.18,1.172h.063A3.012,3.012,0,0,1,16.3,8.594a3.539,3.539,0,0,1,1.523-.312,3.165,3.165,0,0,1,2.629,1.164,5.125,5.125,0,0,1,.926,3.266,5.1,5.1,0,0,1-.941,3.277A3.17,3.17,0,0,1,17.82,17.156Zm-.187-7.773a2.3,2.3,0,0,0-1.9.727,3.739,3.739,0,0,0-.6,2.313v.289a4.285,4.285,0,0,0,.6,2.582,2.288,2.288,0,0,0,1.93.777,2.007,2.007,0,0,0,1.738-.9,4.26,4.26,0,0,0,.629-2.477,4.1,4.1,0,0,0-.629-2.457A2.069,2.069,0,0,0,17.633,9.383Zm9.43,7.773a3.654,3.654,0,0,1-2.879-1.145,4.707,4.707,0,0,1-1.02-3.238A4.853,4.853,0,0,1,24.2,9.453a3.727,3.727,0,0,1,2.949-1.172,5.852,5.852,0,0,1,1.234.133,4.066,4.066,0,0,1,.969.313l-.4,1.1a6.1,6.1,0,0,0-.937-.285,4.186,4.186,0,0,0-.9-.113q-2.609,0-2.609,3.328a3.963,3.963,0,0,0,.637,2.422,2.215,2.215,0,0,0,1.887.844,5.769,5.769,0,0,0,2.2-.461v1.148A4.679,4.679,0,0,1,27.063,17.156ZM32.555,17h-1.3V8.438h1.3ZM31.148,6.117a.861.861,0,0,1,.219-.652.81.81,0,0,1,1.086,0,.846.846,0,0,1,.227.648.859.859,0,0,1-.227.652.794.794,0,0,1-1.086,0A.877.877,0,0,1,31.148,6.117ZM42.7,12.711a4.724,4.724,0,0,1-1.055,3.27,3.714,3.714,0,0,1-2.914,1.176,3.86,3.86,0,0,1-2.039-.539,3.558,3.558,0,0,1-1.375-1.547,5.391,5.391,0,0,1-.484-2.359,4.716,4.716,0,0,1,1.047-3.262,3.7,3.7,0,0,1,2.906-1.168,3.622,3.622,0,0,1,2.855,1.2A4.7,4.7,0,0,1,42.7,12.711Zm-6.523,0a4.064,4.064,0,0,0,.656,2.5,2.6,2.6,0,0,0,3.863,0,4.043,4.043,0,0,0,.66-2.5,3.978,3.978,0,0,0-.66-2.48,2.32,2.32,0,0,0-1.949-.848,2.283,2.283,0,0,0-1.922.836A4.023,4.023,0,0,0,36.172,12.711Zm1.5-5.6q.375-.484.809-1.172a13.412,13.412,0,0,0,.684-1.2h1.578v.164a11.549,11.549,0,0,1-1.023,1.25A11.62,11.62,0,0,1,38.539,7.3h-.867ZM50.828,17V11.461A2.235,2.235,0,0,0,50.352,9.9a1.941,1.941,0,0,0-1.492-.516,2.461,2.461,0,0,0-1.969.727,3.668,3.668,0,0,0-.625,2.4V17h-1.3V8.438h1.055l.211,1.172H46.3a2.648,2.648,0,0,1,1.117-.98,3.63,3.63,0,0,1,1.6-.348,3.252,3.252,0,0,1,2.328.746,3.175,3.175,0,0,1,.781,2.387V17Zm15.031,0H58.352V15.883l3.008-3.023a22.149,22.149,0,0,0,1.813-1.984,5.064,5.064,0,0,0,.656-1.156,3.312,3.312,0,0,0,.219-1.211,1.92,1.92,0,0,0-.555-1.449,2.125,2.125,0,0,0-1.539-.535,3.87,3.87,0,0,0-1.348.234,5.372,5.372,0,0,0-1.418.852L58.5,6.727a5.265,5.265,0,0,1,3.438-1.312,3.632,3.632,0,0,1,2.523.824,2.835,2.835,0,0,1,.914,2.215,4.277,4.277,0,0,1-.609,2.148,13.64,13.64,0,0,1-2.281,2.688l-2.5,2.445V15.8h5.875Z" transform="translate(561 1991.999)" fill="#38485c"/>
    <g id="highlight_off_black_24dp-2" data-name="highlight_off_black_24dp" transform="translate(845 1991)">
      <path id="Trazado_26546-2" data-name="Trazado 26546" d="M0,0H24V24H0Z" fill="none"/>
      <path id="Trazado_26547-2" data-name="Trazado 26547" d="M14.59,8,12,10.59,9.41,8,8,9.41,10.59,12,8,14.59,9.41,16,12,13.41,14.59,16,16,14.59,13.41,12,16,9.41ZM12,2A10,10,0,1,0,22,12,9.991,9.991,0,0,0,12,2Zm0,18a8,8,0,1,1,8-8A8.011,8.011,0,0,1,12,20Z" fill="none"/>
    </g>
    <rect id="Rectángulo_17144-3" data-name="Rectángulo 17144" width="324" height="46" rx="4" transform="translate(553 2030)" fill="#fff"/>
    <path id="Trazado_27836" data-name="Trazado 27836" d="M11.484,11.273A6.288,6.288,0,0,1,10.1,15.586a4.875,4.875,0,0,1-3.855,1.57,4.937,4.937,0,0,1-3.895-1.543A6.339,6.339,0,0,1,.977,11.258,6.26,6.26,0,0,1,2.352,6.934,4.972,4.972,0,0,1,6.258,5.4,4.866,4.866,0,0,1,10.1,6.961,6.281,6.281,0,0,1,11.484,11.273Zm-9.1,0a5.421,5.421,0,0,0,.988,3.52,3.507,3.507,0,0,0,2.871,1.2,3.473,3.473,0,0,0,2.867-1.2,5.5,5.5,0,0,0,.969-3.523,5.453,5.453,0,0,0-.965-3.5A3.457,3.457,0,0,0,6.258,6.586a3.525,3.525,0,0,0-2.887,1.2A5.365,5.365,0,0,0,2.383,11.273ZM17.82,17.156a3.706,3.706,0,0,1-1.527-.309,2.872,2.872,0,0,1-1.16-.949h-.094a11.485,11.485,0,0,1,.094,1.422v3.523h-1.3V8.438h1.055l.18,1.172h.063A3.012,3.012,0,0,1,16.3,8.594a3.539,3.539,0,0,1,1.523-.312,3.165,3.165,0,0,1,2.629,1.164,5.125,5.125,0,0,1,.926,3.266,5.1,5.1,0,0,1-.941,3.277A3.17,3.17,0,0,1,17.82,17.156Zm-.187-7.773a2.3,2.3,0,0,0-1.9.727,3.739,3.739,0,0,0-.6,2.313v.289a4.285,4.285,0,0,0,.6,2.582,2.288,2.288,0,0,0,1.93.777,2.007,2.007,0,0,0,1.738-.9,4.26,4.26,0,0,0,.629-2.477,4.1,4.1,0,0,0-.629-2.457A2.069,2.069,0,0,0,17.633,9.383Zm9.43,7.773a3.654,3.654,0,0,1-2.879-1.145,4.707,4.707,0,0,1-1.02-3.238A4.853,4.853,0,0,1,24.2,9.453a3.727,3.727,0,0,1,2.949-1.172,5.852,5.852,0,0,1,1.234.133,4.066,4.066,0,0,1,.969.313l-.4,1.1a6.1,6.1,0,0,0-.937-.285,4.186,4.186,0,0,0-.9-.113q-2.609,0-2.609,3.328a3.963,3.963,0,0,0,.637,2.422,2.215,2.215,0,0,0,1.887.844,5.769,5.769,0,0,0,2.2-.461v1.148A4.679,4.679,0,0,1,27.063,17.156ZM32.555,17h-1.3V8.438h1.3ZM31.148,6.117a.861.861,0,0,1,.219-.652.81.81,0,0,1,1.086,0,.846.846,0,0,1,.227.648.859.859,0,0,1-.227.652.794.794,0,0,1-1.086,0A.877.877,0,0,1,31.148,6.117ZM42.7,12.711a4.724,4.724,0,0,1-1.055,3.27,3.714,3.714,0,0,1-2.914,1.176,3.86,3.86,0,0,1-2.039-.539,3.558,3.558,0,0,1-1.375-1.547,5.391,5.391,0,0,1-.484-2.359,4.716,4.716,0,0,1,1.047-3.262,3.7,3.7,0,0,1,2.906-1.168,3.622,3.622,0,0,1,2.855,1.2A4.7,4.7,0,0,1,42.7,12.711Zm-6.523,0a4.064,4.064,0,0,0,.656,2.5,2.6,2.6,0,0,0,3.863,0,4.043,4.043,0,0,0,.66-2.5,3.978,3.978,0,0,0-.66-2.48,2.32,2.32,0,0,0-1.949-.848,2.283,2.283,0,0,0-1.922.836A4.023,4.023,0,0,0,36.172,12.711Zm1.5-5.6q.375-.484.809-1.172a13.412,13.412,0,0,0,.684-1.2h1.578v.164a11.549,11.549,0,0,1-1.023,1.25A11.62,11.62,0,0,1,38.539,7.3h-.867ZM50.828,17V11.461A2.235,2.235,0,0,0,50.352,9.9a1.941,1.941,0,0,0-1.492-.516,2.461,2.461,0,0,0-1.969.727,3.668,3.668,0,0,0-.625,2.4V17h-1.3V8.438h1.055l.211,1.172H46.3a2.648,2.648,0,0,1,1.117-.98,3.63,3.63,0,0,1,1.6-.348,3.252,3.252,0,0,1,2.328.746,3.175,3.175,0,0,1,.781,2.387V17Zm14.6-8.734a2.6,2.6,0,0,1-.613,1.789,3.07,3.07,0,0,1-1.738.93v.063a3.269,3.269,0,0,1,2.039.875,2.575,2.575,0,0,1,.664,1.844,2.991,2.991,0,0,1-1.133,2.512,5.152,5.152,0,0,1-3.219.879,9.328,9.328,0,0,1-1.66-.137,5.682,5.682,0,0,1-1.465-.48V15.3a7.481,7.481,0,0,0,3.172.75q2.961,0,2.961-2.32,0-2.078-3.266-2.078H60.047V10.539h1.141a3.434,3.434,0,0,0,2.117-.59,1.935,1.935,0,0,0,.781-1.637A1.613,1.613,0,0,0,63.512,7a2.366,2.366,0,0,0-1.559-.477,4.809,4.809,0,0,0-1.414.2,6.328,6.328,0,0,0-1.516.75L58.367,6.6a5.471,5.471,0,0,1,1.621-.871,5.892,5.892,0,0,1,1.934-.316,3.951,3.951,0,0,1,2.586.762A2.565,2.565,0,0,1,65.43,8.266Z" transform="translate(561 2041.999)" fill="#38485c"/>
    <g id="highlight_off_black_24dp-3" data-name="highlight_off_black_24dp" transform="translate(845 2041)">
      <path id="Trazado_26546-3" data-name="Trazado 26546" d="M0,0H24V24H0Z" fill="none"/>
      <path id="Trazado_26547-3" data-name="Trazado 26547" d="M14.59,8,12,10.59,9.41,8,8,9.41,10.59,12,8,14.59,9.41,16,12,13.41,14.59,16,16,14.59,13.41,12,16,9.41ZM12,2A10,10,0,1,0,22,12,9.991,9.991,0,0,0,12,2Zm0,18a8,8,0,1,1,8-8A8.011,8.011,0,0,1,12,20Z" fill="none"/>
    </g>
  </g>
</svg>
