<svg xmlns="http://www.w3.org/2000/svg" xmlns:xlink="http://www.w3.org/1999/xlink" width="712" height="242" viewBox="0 0 712 242">
  <defs>
    <clipPath id="clip-path">
      <rect id="Rectángulo_18316" data-name="Rectángulo 18316" width="712" height="242" transform="translate(513 1350)" fill="#fff" stroke="#707070" stroke-width="1"/>
    </clipPath>
    <filter id="Rectángulo_3211" x="-27" y="-6" width="779" height="102" filterUnits="userSpaceOnUse">
      <feOffset dy="3" input="SourceAlpha"/>
      <feGaussianBlur stdDeviation="3" result="blur"/>
      <feFlood flood-opacity="0.161"/>
      <feComposite operator="in" in2="blur"/>
      <feComposite in="SourceGraphic"/>
    </filter>
    <filter id="Rectángulo_18314" x="296" y="58" width="294" height="157" filterUnits="userSpaceOnUse">
      <feOffset input="SourceAlpha"/>
      <feGaussianBlur stdDeviation="6" result="blur-2"/>
      <feFlood flood-color="#38485c" flood-opacity="0.161"/>
      <feComposite operator="in" in2="blur-2"/>
      <feComposite in="SourceGraphic"/>
    </filter>
    <linearGradient id="linear-gradient" x1="0.5" x2="0.5" y2="1" gradientUnits="objectBoundingBox">
      <stop offset="0" stop-color="#d8f7fa" stop-opacity="0"/>
      <stop offset="1" stop-color="#d8f7fa"/>
    </linearGradient>
  </defs>
  <g id="Grupo_21066" data-name="Grupo 21066" transform="translate(-513 -1196)">
    <g id="Enmascarar_grupo_48" data-name="Enmascarar grupo 48" transform="translate(0 -154)" clip-path="url(#clip-path)">
      <g id="Grupo_20858" data-name="Grupo 20858">
        <rect id="Rectángulo_17599" data-name="Rectángulo 17599" width="712" height="392" transform="translate(513 1350)" fill="#f3f6f9"/>
        <g id="V2-Header-Sin_Loguear-Desktop" transform="translate(-208.878 1350)">
          <g transform="matrix(1, 0, 0, 1, 721.88, 0)" filter="url(#Rectángulo_3211)">
            <rect id="Rectángulo_3211-2" data-name="Rectángulo 3211" width="761" height="84" transform="translate(-18)" fill="#fff"/>
          </g>
          <g id="V2-Buscador" transform="translate(782.618 16.795)">
            <g id="Grupo_19419" data-name="Grupo 19419" transform="translate(-62 -58)">
              <rect id="Rectángulo_6037" data-name="Rectángulo 6037" width="355.247" height="49.192" rx="4" transform="translate(62 58)" fill="#f3f6f9"/>
              <rect id="Rectángulo_17663" data-name="Rectángulo 17663" width="355.247" height="49.192" rx="4" transform="translate(62 58)" fill="none"/>
            </g>
            <path id="Trazado_27797" data-name="Trazado 27797" d="M1.57,5.578h3.4a6.16,6.16,0,0,1,3.467.753A2.709,2.709,0,0,1,9.51,8.713a2.842,2.842,0,0,1-.6,1.857,2.833,2.833,0,0,1-1.742.948v.087q2.742.494,2.742,3.031a3.332,3.332,0,0,1-1.091,2.65,4.49,4.49,0,0,1-3.051.953H1.57ZM2.97,11H5.276a3.607,3.607,0,0,0,2.133-.489A1.934,1.934,0,0,0,8.06,8.86a1.7,1.7,0,0,0-.725-1.537,4.343,4.343,0,0,0-2.306-.472H2.97Zm0,1.247v4.737H5.482a3.447,3.447,0,0,0,2.195-.593,2.243,2.243,0,0,0,.737-1.857A2.007,2.007,0,0,0,7.661,12.8a3.872,3.872,0,0,0-2.294-.554Zm10.608-3.5V14.9a2.563,2.563,0,0,0,.5,1.732,1.989,1.989,0,0,0,1.573.572,2.5,2.5,0,0,0,2.071-.814,4.263,4.263,0,0,0,.655-2.658V8.748h1.367v9.491H18.618l-.2-1.273h-.074a2.773,2.773,0,0,1-1.165,1.074,3.755,3.755,0,0,1-1.7.372,3.343,3.343,0,0,1-2.467-.823,3.615,3.615,0,0,1-.819-2.632V8.748Zm14.89,6.9a2.422,2.422,0,0,1-.939,2.044,4.252,4.252,0,0,1-2.635.719,5.5,5.5,0,0,1-2.8-.6V16.48a6.566,6.566,0,0,0,1.4.546,5.561,5.561,0,0,0,1.437.2,3.127,3.127,0,0,0,1.647-.359,1.273,1.273,0,0,0,.119-2.044,7.064,7.064,0,0,0-1.783-.931,9.457,9.457,0,0,1-1.791-.862,2.516,2.516,0,0,1-.791-.836,2.269,2.269,0,0,1-.259-1.117,2.164,2.164,0,0,1,.9-1.831,4.029,4.029,0,0,1,2.462-.671,6.9,6.9,0,0,1,2.85.623l-.486,1.169a6.273,6.273,0,0,0-2.462-.589,2.719,2.719,0,0,0-1.466.32,1,1,0,0,0-.494.883,1.115,1.115,0,0,0,.185.649,1.852,1.852,0,0,0,.6.511,13,13,0,0,0,1.581.7,5.835,5.835,0,0,1,2.17,1.238A2.248,2.248,0,0,1,28.468,15.649ZM34.3,18.412a3.759,3.759,0,0,1-3.035-1.269,5.4,5.4,0,0,1-1.075-3.589,5.565,5.565,0,0,1,1.091-3.68,3.834,3.834,0,0,1,3.109-1.3,5.88,5.88,0,0,1,1.3.147,4.141,4.141,0,0,1,1.021.346l-.42,1.221a6.2,6.2,0,0,0-.988-.316,4.208,4.208,0,0,0-.947-.126q-2.751,0-2.751,3.689a4.562,4.562,0,0,0,.671,2.684,2.29,2.29,0,0,0,1.989.935,5.827,5.827,0,0,0,2.314-.511v1.273A4.729,4.729,0,0,1,34.3,18.412Zm9.973-.173L44,16.887h-.066A3.852,3.852,0,0,1,42.588,18.1a3.928,3.928,0,0,1-1.676.316,2.922,2.922,0,0,1-2.1-.727,2.726,2.726,0,0,1-.762-2.07q0-2.875,4.373-3.014l1.532-.052V11.96a2.492,2.492,0,0,0-.457-1.65,1.827,1.827,0,0,0-1.462-.533,5.73,5.73,0,0,0-2.553.727l-.42-1.1a6.24,6.24,0,0,1,1.462-.6,6.04,6.04,0,0,1,1.594-.216,3.326,3.326,0,0,1,2.392.753,3.243,3.243,0,0,1,.778,2.416v6.477Zm-3.088-1.013a2.7,2.7,0,0,0,2.005-.736,2.8,2.8,0,0,0,.729-2.061v-.857l-1.367.061a4.774,4.774,0,0,0-2.351.533,1.63,1.63,0,0,0-.721,1.468,1.52,1.52,0,0,0,.449,1.186A1.8,1.8,0,0,0,41.184,17.225ZM52.22,8.574a5.1,5.1,0,0,1,1.079.1l-.189,1.334a4.441,4.441,0,0,0-.988-.13,2.361,2.361,0,0,0-1.874.935,3.519,3.519,0,0,0-.778,2.329v5.092H48.1V8.748H49.23l.156,1.758h.066a4.109,4.109,0,0,1,1.211-1.429A2.632,2.632,0,0,1,52.22,8.574Zm2.57,8.746a1.335,1.335,0,0,1,.251-.879.889.889,0,0,1,.721-.3.949.949,0,0,1,.745.3,1.278,1.278,0,0,1,.268.879,1.254,1.254,0,0,1-.272.866,1.041,1.041,0,0,1-1.437.03A1.224,1.224,0,0,1,54.79,17.32Zm4.365,0a1.335,1.335,0,0,1,.251-.879.889.889,0,0,1,.721-.3.949.949,0,0,1,.745.3,1.278,1.278,0,0,1,.268.879,1.254,1.254,0,0,1-.272.866,1.041,1.041,0,0,1-1.437.03A1.224,1.224,0,0,1,59.154,17.32Zm4.373,0a1.335,1.335,0,0,1,.251-.879.889.889,0,0,1,.721-.3.949.949,0,0,1,.745.3,1.278,1.278,0,0,1,.268.879,1.254,1.254,0,0,1-.272.866,1.041,1.041,0,0,1-1.437.03A1.224,1.224,0,0,1,63.528,17.32Z" transform="translate(14.43 13.605)" fill="#8a98a8"/>
            <g id="arrow_drop_down_circle_black_24dp" transform="translate(320.055 13)">
              <path id="Trazado_27634" data-name="Trazado 27634" d="M0,0H23.192V23.192H0Z" transform="translate(0)" fill="none"/>
              <path id="bx-search" d="M10.433,18.867A8.383,8.383,0,0,0,15.6,17.087l4.634,4.634,1.491-1.491L17.086,15.6a8.423,8.423,0,1,0-6.653,3.27Zm0-14.758a6.325,6.325,0,1,1-6.325,6.325A6.331,6.331,0,0,1,10.433,4.108Z" transform="translate(-0.264 -0.265)" fill="#38485c"/>
            </g>
          </g>
          <g id="V2-Desplegable-Grande" transform="translate(1154.66 16.795)">
            <g id="Rectángulo_17142" data-name="Rectángulo 17142" transform="translate(0 0.103)" fill="#f3f6f9" stroke="#005387" stroke-width="2">
              <rect width="131.218" height="50" rx="8" stroke="none"/>
              <rect x="-1" y="-1" width="133.218" height="52" rx="9" fill="none"/>
            </g>
            <g id="Grupo_19561" data-name="Grupo 19561" transform="translate(85.082 6)">
              <rect id="Rectángulo_17702" data-name="Rectángulo 17702" width="38" height="38" rx="8" transform="translate(0.136 0.205)" fill="#e0e0e0"/>
              <g id="person_black_24dp" transform="translate(8.561 8.562)">
                <path id="Trazado_27637" data-name="Trazado 27637" d="M0,0H21.007V21.007H0Z" fill="none"/>
                <path id="Trazado_27638" data-name="Trazado 27638" d="M11,11A3.5,3.5,0,1,0,7.5,7.5,3.5,3.5,0,0,0,11,11Zm0,1.751c-2.337,0-7,1.173-7,3.5V18H18V16.254C18,13.926,13.339,12.753,11,12.753Z" transform="translate(-0.499 -0.499)" fill="#38485c"/>
              </g>
            </g>
            <g id="Grupo_19155" data-name="Grupo 19155" transform="translate(-9673.979 18.539)">
              <path id="Trazado_27796" data-name="Trazado 27796" d="M-54.553.811l-4.1-10.8h-.066q.116,1.283.116,3.049V.811h-1.3V-11.368h2.118l3.831,10.046h.066l3.864-10.046h2.1V.811h-1.407V-7.036q0-1.349.116-2.932h-.066L-53.419.811Zm11.113,0h-1.374v-9.13h1.374Zm-1.489-11.6a.922.922,0,0,1,.232-.7.807.807,0,0,1,.579-.221.806.806,0,0,1,.571.225.905.905,0,0,1,.24.691.92.92,0,0,1-.24.7.8.8,0,0,1-.571.229A.791.791,0,0,1-44.7-10.1.939.939,0,0,1-44.929-10.793ZM-31.9.978A3.9,3.9,0,0,1-33.523.649,3.047,3.047,0,0,1-34.751-.363h-.1a12.327,12.327,0,0,1,.1,1.516V4.91h-1.374V-8.319h1.117l.19,1.25h.066a3.2,3.2,0,0,1,1.233-1.083A3.727,3.727,0,0,1-31.9-8.485,3.343,3.343,0,0,1-29.12-7.244a5.491,5.491,0,0,1,.981,3.482,5.458,5.458,0,0,1-1,3.494A3.348,3.348,0,0,1-31.9.978Zm-.2-8.288a2.426,2.426,0,0,0-2.011.775,4.006,4.006,0,0,0-.637,2.466v.308a4.593,4.593,0,0,0,.637,2.753A2.416,2.416,0,0,0-32.07-.18a2.121,2.121,0,0,0,1.841-.958,4.566,4.566,0,0,0,.666-2.641,4.394,4.394,0,0,0-.666-2.62A2.186,2.186,0,0,0-32.1-7.311ZM-21.909.978A4.152,4.152,0,0,1-25.082-.255a4.792,4.792,0,0,1-1.163-3.424,5.317,5.317,0,0,1,1.08-3.507,3.577,3.577,0,0,1,2.9-1.3,3.409,3.409,0,0,1,2.7,1.129,4.344,4.344,0,0,1,.993,2.978V-3.5h-6.247a3.634,3.634,0,0,0,.807,2.441,2.78,2.78,0,0,0,2.156.833,7.263,7.263,0,0,0,2.9-.616V.386A7.235,7.235,0,0,1-20.341.84,7.692,7.692,0,0,1-21.909.978Zm-.372-8.305a2.236,2.236,0,0,0-1.742.716,3.314,3.314,0,0,0-.765,1.983h4.741a3.054,3.054,0,0,0-.579-2A2.032,2.032,0,0,0-22.281-7.327ZM-12.1-8.485a5.34,5.34,0,0,1,1.084.1L-11.2-7.1a4.649,4.649,0,0,0-.993-.125,2.411,2.411,0,0,0-1.882.9,3.294,3.294,0,0,0-.782,2.241v4.9h-1.374v-9.13H-15.1l.157,1.691h.066A4,4,0,0,1-13.659-8,2.725,2.725,0,0,1-12.1-8.485Zm6.868,1.241H-7.536V.811H-8.91V-7.244h-1.622v-.625l1.622-.5v-.508q0-3.365,2.921-3.365a5.974,5.974,0,0,1,1.688.292l-.356,1.108A4.517,4.517,0,0,0-6.013-11.1a1.318,1.318,0,0,0-1.15.521,2.921,2.921,0,0,0-.372,1.67v.591h2.309ZM-2.2.811H-3.572v-9.13H-2.2Zm-1.489-11.6a.922.922,0,0,1,.232-.7.807.807,0,0,1,.579-.221.806.806,0,0,1,.571.225.905.905,0,0,1,.24.691.92.92,0,0,1-.24.7.8.8,0,0,1-.571.229.791.791,0,0,1-.579-.229A.939.939,0,0,1-3.688-10.793ZM2.087.811H.714V-12.151H2.087Z" transform="translate(9745.885 12.242)" fill="#38485c"/>
            </g>
          </g>
          <g transform="matrix(1, 0, 0, 1, 721.88, 0)" filter="url(#Rectángulo_18314)">
            <rect id="Rectángulo_18314-2" data-name="Rectángulo 18314" width="258" height="121" rx="8" transform="translate(314 76)" fill="#fff"/>
          </g>
          <g id="Grupo_20658" data-name="Grupo 20658" transform="translate(1049.059 -131.211)">
            <g id="V2-Acceso-Pequeño" transform="translate(0 269.019)">
              <rect id="Rectángulo_17144" data-name="Rectángulo 17144" width="232.613" height="50.385" rx="8" transform="translate(0 1.193)" fill="#fff"/>
              <g id="Navegación_Chevron_derecho" data-name="Navegación / Chevron derecho" transform="translate(195.276 13.193)">
                <path id="Trazado_33" data-name="Trazado 33" d="M0,0H25.337V26.385H0Z" fill="none"/>
                <path id="Trazado_34" data-name="Trazado 34" d="M9.306,6.739a1.127,1.127,0,0,0,0,1.55l4.1,4.266-4.1,4.266a1.127,1.127,0,0,0,0,1.55,1.022,1.022,0,0,0,1.489,0l4.846-5.046a1.127,1.127,0,0,0,0-1.55L10.795,6.728A1.031,1.031,0,0,0,9.306,6.739Z" transform="translate(0.501 0.638)" fill="#007bc7"/>
              </g>
              <path id="Trazado_27798" data-name="Trazado 27798" d="M4.844,12.343v.438a3.876,3.876,0,0,1-.309,1.683,4.7,4.7,0,0,1-1.109,1.357,13.582,13.582,0,0,0-1.25,1.233,2.064,2.064,0,0,0-.355.653,2.757,2.757,0,0,0-.1.812,1.708,1.708,0,0,0,.544,1.344,2.254,2.254,0,0,0,1.551.485,4.991,4.991,0,0,0,1.278-.163,7.359,7.359,0,0,0,1.427-.575L7,20.769a7.141,7.141,0,0,1-3.258.825,3.55,3.55,0,0,1-2.458-.8A2.877,2.877,0,0,1,.4,18.536a3.458,3.458,0,0,1,.144-1.052,3.144,3.144,0,0,1,.408-.833,4.8,4.8,0,0,1,.631-.734q.367-.352.812-.756a5.347,5.347,0,0,0,1.1-1.254,2.731,2.731,0,0,0,.268-1.3v-.266Zm.4-2.568q0,1.16-1,1.16a.927.927,0,0,1-.742-.3,1.286,1.286,0,0,1-.256-.863,1.239,1.239,0,0,1,.272-.855.925.925,0,0,1,.726-.3.99.99,0,0,1,.709.275A1.176,1.176,0,0,1,5.248,9.775Zm14.1,2.147a7.86,7.86,0,0,1-.932,4.011A4.683,4.683,0,0,1,15.789,18.1l2.87,3.109H16.622l-2.351-2.834-.454.017a5.109,5.109,0,0,1-4.112-1.7,7.161,7.161,0,0,1-1.447-4.788A7.07,7.07,0,0,1,9.71,7.151a5.144,5.144,0,0,1,4.124-1.688,5.038,5.038,0,0,1,4.058,1.718A7.093,7.093,0,0,1,19.352,11.923Zm-9.609,0a6.137,6.137,0,0,0,1.043,3.869,3.635,3.635,0,0,0,3.031,1.318A3.6,3.6,0,0,0,16.845,15.8a6.224,6.224,0,0,0,1.023-3.874,6.174,6.174,0,0,0-1.019-3.844,3.585,3.585,0,0,0-3.015-1.31,3.654,3.654,0,0,0-3.048,1.318A6.073,6.073,0,0,0,9.743,11.923ZM23.121,8.8v6.107a2.525,2.525,0,0,0,.5,1.718A2,2,0,0,0,25.2,17.2a2.517,2.517,0,0,0,2.074-.807,4.2,4.2,0,0,0,.656-2.637V8.8H29.3v9.413h-1.13l-.2-1.263H27.9a2.767,2.767,0,0,1-1.167,1.065,3.791,3.791,0,0,1-1.7.369,3.368,3.368,0,0,1-2.47-.816,3.563,3.563,0,0,1-.821-2.611V8.8Zm12.9,9.585a4.067,4.067,0,0,1-3.163-1.271,5.047,5.047,0,0,1-1.159-3.53,5.611,5.611,0,0,1,1.076-3.616,3.516,3.516,0,0,1,2.891-1.34A3.346,3.346,0,0,1,38.355,9.8a4.578,4.578,0,0,1,.99,3.071v.9H33.118a3.83,3.83,0,0,0,.8,2.517,2.724,2.724,0,0,0,2.149.859,7.035,7.035,0,0,0,2.887-.636V17.78a7.043,7.043,0,0,1-1.373.468A7.42,7.42,0,0,1,36.021,18.39ZM35.65,9.827a2.193,2.193,0,0,0-1.736.739,3.484,3.484,0,0,0-.763,2.044h4.726a3.226,3.226,0,0,0-.577-2.066A2,2,0,0,0,35.65,9.827ZM34.635,7.345q.4-.533.854-1.288a14.917,14.917,0,0,0,.722-1.314h1.666v.18A12.611,12.611,0,0,1,36.8,6.3a12.51,12.51,0,0,1-1.245,1.263h-.916ZM49.886,18.39a4.067,4.067,0,0,1-3.163-1.271,5.047,5.047,0,0,1-1.159-3.53A5.611,5.611,0,0,1,46.64,9.973a3.516,3.516,0,0,1,2.891-1.34A3.346,3.346,0,0,1,52.22,9.8a4.578,4.578,0,0,1,.99,3.071v.9H46.982a3.83,3.83,0,0,0,.8,2.517,2.724,2.724,0,0,0,2.149.859,7.035,7.035,0,0,0,2.887-.636V17.78a7.043,7.043,0,0,1-1.373.468A7.42,7.42,0,0,1,49.886,18.39Zm-.371-8.563a2.193,2.193,0,0,0-1.736.739,3.484,3.484,0,0,0-.763,2.044h4.726a3.226,3.226,0,0,0-.577-2.066A2,2,0,0,0,49.514,9.827Zm11.86,5.823a2.393,2.393,0,0,1-.94,2.027,4.288,4.288,0,0,1-2.639.713,5.548,5.548,0,0,1-2.8-.593V16.475a6.614,6.614,0,0,0,1.4.541,5.62,5.62,0,0,0,1.439.2,3.156,3.156,0,0,0,1.65-.356,1.256,1.256,0,0,0,.12-2.027,7.1,7.1,0,0,0-1.786-.923,9.51,9.51,0,0,1-1.794-.855,2.506,2.506,0,0,1-.792-.829,2.233,2.233,0,0,1-.26-1.108,2.139,2.139,0,0,1,.9-1.817,4.064,4.064,0,0,1,2.466-.666,6.971,6.971,0,0,1,2.854.618l-.487,1.16a6.333,6.333,0,0,0-2.466-.584,2.744,2.744,0,0,0-1.468.318.99.99,0,0,0-.495.876,1.1,1.1,0,0,0,.186.644,1.85,1.85,0,0,0,.6.507,13.085,13.085,0,0,0,1.584.7A5.856,5.856,0,0,1,60.81,14.1,2.217,2.217,0,0,1,61.375,15.65Zm7.794-9.989-.33,4.535h-.866l-.338-4.535Zm3.043,0L71.874,10.2h-.858l-.338-4.535ZM80.3,18.218,76.213,7.087h-.066q.115,1.323.115,3.144v7.988H74.967V5.661h2.111L80.9,16.019h.066L84.815,5.661H86.91V18.218h-1.4V10.127q0-1.391.115-3.023h-.066L81.434,18.218Zm11.077,0H90.011V8.8h1.369ZM89.9,6.254a.971.971,0,0,1,.231-.717.83.83,0,0,1,1.146,0,.953.953,0,0,1,.239.713.968.968,0,0,1-.239.717.782.782,0,0,1-.569.236.774.774,0,0,1-.577-.236A.989.989,0,0,1,89.9,6.254ZM102.878,18.39a3.779,3.779,0,0,1-1.612-.339,3.061,3.061,0,0,1-1.225-1.044h-.1a13.14,13.14,0,0,1,.1,1.563v3.874H98.672V8.8h1.113l.19,1.288h.066a3.221,3.221,0,0,1,1.229-1.117,3.61,3.61,0,0,1,1.608-.344,3.287,3.287,0,0,1,2.775,1.28,5.8,5.8,0,0,1,.977,3.59,5.766,5.766,0,0,1-.994,3.6A3.293,3.293,0,0,1,102.878,18.39Zm-.2-8.546a2.378,2.378,0,0,0-2,.8,4.237,4.237,0,0,0-.635,2.542V13.5a4.864,4.864,0,0,0,.635,2.839,2.371,2.371,0,0,0,2.037.855,2.1,2.1,0,0,0,1.835-.988,4.832,4.832,0,0,0,.664-2.723,4.65,4.65,0,0,0-.664-2.7A2.155,2.155,0,0,0,102.68,9.844Zm10.161,8.546a4.067,4.067,0,0,1-3.163-1.271,5.047,5.047,0,0,1-1.159-3.53A5.611,5.611,0,0,1,109.6,9.973a3.516,3.516,0,0,1,2.891-1.34A3.346,3.346,0,0,1,115.176,9.8a4.578,4.578,0,0,1,.99,3.071v.9h-6.227a3.83,3.83,0,0,0,.8,2.517,2.724,2.724,0,0,0,2.149.859,7.035,7.035,0,0,0,2.887-.636V17.78a7.044,7.044,0,0,1-1.373.468A7.42,7.42,0,0,1,112.842,18.39Zm-.371-8.563a2.193,2.193,0,0,0-1.736.739,3.484,3.484,0,0,0-.763,2.044H114.7a3.226,3.226,0,0,0-.577-2.066A2,2,0,0,0,112.47,9.827Zm10.153-1.194a5.151,5.151,0,0,1,1.08.1l-.19,1.323a4.488,4.488,0,0,0-.99-.129,2.373,2.373,0,0,0-1.876.928,3.469,3.469,0,0,0-.779,2.31v5.05H118.5V8.8h1.13l.157,1.744h.066a4.086,4.086,0,0,1,1.212-1.417A2.654,2.654,0,0,1,122.623,8.633Zm6.846,1.28h-2.3v8.305H125.8V9.913h-1.617V9.269l1.617-.515V8.229q0-3.47,2.911-3.47a5.776,5.776,0,0,1,1.683.3L130.038,6.2a4.369,4.369,0,0,0-1.353-.266,1.3,1.3,0,0,0-1.146.537,3.1,3.1,0,0,0-.371,1.722V8.8h2.3Zm3.019,8.305h-1.369V8.8h1.369ZM131,6.254a.971.971,0,0,1,.231-.717.83.83,0,0,1,1.146,0,.953.953,0,0,1,.239.713.968.968,0,0,1-.239.717.782.782,0,0,1-.569.236.774.774,0,0,1-.577-.236A.989.989,0,0,1,131,6.254Zm5.757,11.964h-1.369V4.854h1.369Zm4.083-12.557-.33,4.535h-.866l-.338-4.535Zm3.043,0-.338,4.535h-.858l-.338-4.535Zm3.481,9.1v-.464a3.986,3.986,0,0,1,.3-1.653,4.393,4.393,0,0,1,1.105-1.37,7.636,7.636,0,0,0,1.415-1.486,2.333,2.333,0,0,0,.293-1.2,1.709,1.709,0,0,0-.54-1.353,2.278,2.278,0,0,0-1.555-.477,5.085,5.085,0,0,0-1.27.159,6.725,6.725,0,0,0-1.419.58l-.487-1.16a6.712,6.712,0,0,1,3.258-.85,3.476,3.476,0,0,1,2.45.807,2.944,2.944,0,0,1,.874,2.276,3.451,3.451,0,0,1-.161,1.1,3.283,3.283,0,0,1-.474.9,11.624,11.624,0,0,1-1.353,1.37,5.225,5.225,0,0,0-1.1,1.228,2.721,2.721,0,0,0-.268,1.306v.283Zm-.4,2.551q0-1.168.99-1.168a.923.923,0,0,1,.738.3,1.289,1.289,0,0,1,.26.867,1.265,1.265,0,0,1-.264.855.919.919,0,0,1-.734.3.98.98,0,0,1-.709-.271A1.2,1.2,0,0,1,146.963,17.308Z" transform="translate(11.602 14.763)" fill="#007bc7"/>
            </g>
            <g id="V2-Acceso-Pequeño-2" data-name="V2-Acceso-Pequeño" transform="translate(1.23 215.044)">
              <rect id="Rectángulo_17144-2" data-name="Rectángulo 17144" width="231.588" height="50" rx="8" transform="translate(0 0.929)" fill="#fff"/>
              <g id="Acciones_Ingresar" data-name="Acciones / Ingresar" transform="translate(194.045 13.193)">
                <g id="Grupo_7" data-name="Grupo 7">
                  <rect id="Rectángulo_3" data-name="Rectángulo 3" width="26" height="26" transform="translate(-0.457 -0.024)" fill="none"/>
                  <rect id="Rectángulo_4" data-name="Rectángulo 4" width="26" height="26" transform="translate(-0.457 -0.024)" fill="none"/>
                </g>
                <g id="Grupo_8" data-name="Grupo 8" transform="translate(2.112 3.298)">
                  <path id="Trazado_84" data-name="Trazado 84" d="M10.763,8.167h0a1.113,1.113,0,0,0,0,1.539L12.769,11.8H3.056A1.081,1.081,0,0,0,2,12.894H2a1.081,1.081,0,0,0,1.056,1.1h9.713l-2.006,2.089a1.113,1.113,0,0,0,0,1.539h0a1.01,1.01,0,0,0,1.478,0l3.79-3.947a1.127,1.127,0,0,0,0-1.55l-3.79-3.958A1.01,1.01,0,0,0,10.763,8.167ZM21,20.59h-7.39a1.081,1.081,0,0,0-1.056,1.1h0a1.081,1.081,0,0,0,1.056,1.1H21a2.163,2.163,0,0,0,2.112-2.2V5.2A2.163,2.163,0,0,0,21,3h-7.39a1.081,1.081,0,0,0-1.056,1.1h0a1.081,1.081,0,0,0,1.056,1.1H21Z" transform="translate(-2 -3)" fill="#007bc7"/>
                </g>
              </g>
              <path id="Trazado_27799" data-name="Trazado 27799" d="M1.57,18.218V5.661h1.4V18.218Zm10.69,0v-6.09a2.525,2.525,0,0,0-.5-1.718,2,2,0,0,0-1.575-.567,2.543,2.543,0,0,0-2.079.8,4.156,4.156,0,0,0-.66,2.637v4.939H6.074V8.8H7.187l.223,1.288h.066A2.835,2.835,0,0,1,8.655,9.015a3.705,3.705,0,0,1,1.691-.382,3.348,3.348,0,0,1,2.458.82,3.581,3.581,0,0,1,.825,2.624v6.141Zm5.551,0H16.442V8.8h1.369ZM16.326,6.254a.971.971,0,0,1,.231-.717.83.83,0,0,1,1.146,0,.953.953,0,0,1,.239.713.968.968,0,0,1-.239.717.782.782,0,0,1-.569.236.774.774,0,0,1-.577-.236A.989.989,0,0,1,16.326,6.254Zm8,12.136a3.782,3.782,0,0,1-3.039-1.258,5.316,5.316,0,0,1-1.076-3.56A5.483,5.483,0,0,1,21.3,9.921a3.858,3.858,0,0,1,3.114-1.288,5.944,5.944,0,0,1,1.3.146,4.175,4.175,0,0,1,1.023.344l-.421,1.211a6.25,6.25,0,0,0-.99-.313,4.253,4.253,0,0,0-.949-.125q-2.755,0-2.755,3.659a4.492,4.492,0,0,0,.672,2.663,2.3,2.3,0,0,0,1.992.928,5.884,5.884,0,0,0,2.318-.507V17.9A4.775,4.775,0,0,1,24.327,18.39Zm5.8-.172H28.756V8.8h1.369ZM28.641,6.254a.971.971,0,0,1,.231-.717.83.83,0,0,1,1.146,0,.952.952,0,0,1,.239.713.968.968,0,0,1-.239.717.782.782,0,0,1-.569.236.774.774,0,0,1-.577-.236A.989.989,0,0,1,28.641,6.254Zm9.947,11.964-.272-1.34H38.25a3.846,3.846,0,0,1-1.349,1.2,3.967,3.967,0,0,1-1.678.313,2.944,2.944,0,0,1-2.107-.721,2.69,2.69,0,0,1-.763-2.053q0-2.852,4.38-2.989l1.534-.052v-.584a2.455,2.455,0,0,0-.458-1.636,1.84,1.84,0,0,0-1.464-.528,5.781,5.781,0,0,0-2.557.721l-.421-1.091a6.283,6.283,0,0,1,1.464-.593,6.1,6.1,0,0,1,1.6-.215,3.352,3.352,0,0,1,2.4.747,3.2,3.2,0,0,1,.779,2.4v6.425Zm-3.093-1a2.714,2.714,0,0,0,2.008-.73,2.764,2.764,0,0,0,.73-2.044v-.85l-1.369.06a4.818,4.818,0,0,0-2.355.528,1.612,1.612,0,0,0-.722,1.456,1.5,1.5,0,0,0,.45,1.177A1.817,1.817,0,0,0,35.495,17.213Zm11.053-8.58a5.152,5.152,0,0,1,1.081.1l-.19,1.323a4.488,4.488,0,0,0-.99-.129,2.373,2.373,0,0,0-1.876.928,3.469,3.469,0,0,0-.779,2.31v5.05H42.423V8.8h1.13l.157,1.744h.066a4.086,4.086,0,0,1,1.212-1.417A2.654,2.654,0,0,1,46.547,8.633ZM59.538,15.65a2.393,2.393,0,0,1-.94,2.027,4.289,4.289,0,0,1-2.639.713,5.549,5.549,0,0,1-2.8-.593V16.475a6.614,6.614,0,0,0,1.4.541,5.62,5.62,0,0,0,1.439.2,3.157,3.157,0,0,0,1.65-.356,1.256,1.256,0,0,0,.12-2.027,7.1,7.1,0,0,0-1.786-.923,9.51,9.51,0,0,1-1.794-.855,2.506,2.506,0,0,1-.792-.829,2.233,2.233,0,0,1-.26-1.108,2.139,2.139,0,0,1,.9-1.817,4.064,4.064,0,0,1,2.466-.666,6.971,6.971,0,0,1,2.854.618l-.487,1.16A6.333,6.333,0,0,0,56.4,9.827a2.744,2.744,0,0,0-1.468.318.99.99,0,0,0-.495.876,1.1,1.1,0,0,0,.186.644,1.85,1.85,0,0,0,.6.507,13.086,13.086,0,0,0,1.584.7A5.856,5.856,0,0,1,58.973,14.1,2.217,2.217,0,0,1,59.538,15.65Zm6.046,2.74a4.067,4.067,0,0,1-3.163-1.271,5.047,5.047,0,0,1-1.159-3.53,5.61,5.61,0,0,1,1.076-3.616,3.516,3.516,0,0,1,2.891-1.34A3.346,3.346,0,0,1,67.918,9.8a4.578,4.578,0,0,1,.99,3.071v.9H62.681a3.83,3.83,0,0,0,.8,2.517,2.724,2.724,0,0,0,2.149.859,7.035,7.035,0,0,0,2.887-.636V17.78a7.044,7.044,0,0,1-1.373.468A7.42,7.42,0,0,1,65.584,18.39Zm-.371-8.563a2.193,2.193,0,0,0-1.736.739,3.484,3.484,0,0,0-.763,2.044H67.44a3.226,3.226,0,0,0-.577-2.066A2,2,0,0,0,65.213,9.827ZM77.074,15.65a2.393,2.393,0,0,1-.94,2.027,4.289,4.289,0,0,1-2.639.713,5.549,5.549,0,0,1-2.8-.593V16.475a6.615,6.615,0,0,0,1.4.541,5.62,5.62,0,0,0,1.439.2,3.157,3.157,0,0,0,1.65-.356,1.256,1.256,0,0,0,.12-2.027,7.1,7.1,0,0,0-1.786-.923,9.51,9.51,0,0,1-1.794-.855,2.506,2.506,0,0,1-.792-.829,2.233,2.233,0,0,1-.26-1.108,2.139,2.139,0,0,1,.9-1.817,4.064,4.064,0,0,1,2.466-.666,6.971,6.971,0,0,1,2.854.618l-.487,1.16a6.333,6.333,0,0,0-2.466-.584,2.744,2.744,0,0,0-1.468.318.99.99,0,0,0-.495.876,1.1,1.1,0,0,0,.186.644,1.85,1.85,0,0,0,.6.507,13.086,13.086,0,0,0,1.584.7A5.856,5.856,0,0,1,76.509,14.1,2.217,2.217,0,0,1,77.074,15.65Zm3.6,2.568H79.3V8.8H80.67ZM79.185,6.254a.971.971,0,0,1,.231-.717.83.83,0,0,1,1.146,0,.953.953,0,0,1,.239.713.968.968,0,0,1-.239.717.782.782,0,0,1-.569.236.774.774,0,0,1-.577-.236A.989.989,0,0,1,79.185,6.254ZM91.376,13.5A5.333,5.333,0,0,1,90.263,17.1a3.845,3.845,0,0,1-3.077,1.293,3.951,3.951,0,0,1-2.153-.593,3.863,3.863,0,0,1-1.452-1.7A6.136,6.136,0,0,1,83.07,13.5a5.325,5.325,0,0,1,1.105-3.586,3.833,3.833,0,0,1,3.068-1.284,3.754,3.754,0,0,1,3.015,1.314A5.309,5.309,0,0,1,91.376,13.5Zm-6.887,0a4.606,4.606,0,0,0,.693,2.748,2.677,2.677,0,0,0,4.079,0,4.582,4.582,0,0,0,.7-2.753,4.508,4.508,0,0,0-.7-2.727A2.408,2.408,0,0,0,87.2,9.844a2.37,2.37,0,0,0-2.029.919A4.56,4.56,0,0,0,84.489,13.5Zm1.584-6.158q.4-.533.854-1.288a14.914,14.914,0,0,0,.722-1.314h1.666v.18A12.611,12.611,0,0,1,88.234,6.3a12.508,12.508,0,0,1-1.245,1.263h-.916Zm13.89,10.874v-6.09a2.525,2.525,0,0,0-.5-1.718,2,2,0,0,0-1.575-.567,2.543,2.543,0,0,0-2.079.8,4.156,4.156,0,0,0-.66,2.637v4.939H93.776V8.8H94.89l.223,1.288h.066a2.835,2.835,0,0,1,1.179-1.078,3.705,3.705,0,0,1,1.691-.382,3.348,3.348,0,0,1,2.458.82,3.581,3.581,0,0,1,.825,2.624v6.141Z" transform="translate(10.43 14.763)" fill="#007bc7"/>
            </g>
          </g>
        </g>
      </g>
    </g>
    <rect id="Rectángulo_18317" data-name="Rectángulo 18317" width="242" height="61" transform="translate(574 1196) rotate(90)" fill="url(#linear-gradient)"/>
  </g>
</svg>
