<svg width="340" height="48" viewBox="0 0 340 48" fill="none" xmlns="http://www.w3.org/2000/svg">
<rect width="340" height="48" rx="8" fill="white"/>
<path d="M14.376 30C14.112 30 13.908 29.934 13.764 29.802C13.632 29.658 13.566 29.454 13.566 29.19V18.12C13.566 17.856 13.632 17.658 13.764 17.526C13.908 17.382 14.112 17.31 14.376 17.31H17.85C19.902 17.31 21.486 17.85 22.602 18.93C23.718 20.01 24.276 21.582 24.276 23.646C24.276 24.678 24.132 25.59 23.844 26.382C23.568 27.162 23.154 27.822 22.602 28.362C22.05 28.902 21.378 29.31 20.586 29.586C19.794 29.862 18.882 30 17.85 30H14.376ZM15.042 28.74H17.742C18.582 28.74 19.308 28.632 19.92 28.416C20.544 28.2 21.06 27.882 21.468 27.462C21.888 27.042 22.2 26.514 22.404 25.878C22.608 25.23 22.71 24.486 22.71 23.646C22.71 21.954 22.296 20.688 21.468 19.848C20.64 18.996 19.398 18.57 17.742 18.57H15.042V28.74ZM30.6694 30.162C29.7454 30.162 28.9474 29.982 28.2754 29.622C27.6154 29.25 27.0994 28.728 26.7274 28.056C26.3674 27.384 26.1874 26.58 26.1874 25.644C26.1874 24.732 26.3674 23.94 26.7274 23.268C27.0874 22.584 27.5794 22.05 28.2034 21.666C28.8394 21.282 29.5714 21.09 30.3994 21.09C30.9874 21.09 31.5154 21.192 31.9834 21.396C32.4514 21.588 32.8474 21.87 33.1714 22.242C33.5074 22.614 33.7594 23.064 33.9274 23.592C34.1074 24.12 34.1974 24.714 34.1974 25.374C34.1974 25.566 34.1434 25.71 34.0354 25.806C33.9274 25.89 33.7714 25.932 33.5674 25.932H27.3034V24.978H33.2254L32.9374 25.212C32.9374 24.564 32.8414 24.018 32.6494 23.574C32.4574 23.118 32.1754 22.77 31.8034 22.53C31.4434 22.29 30.9874 22.17 30.4354 22.17C29.8234 22.17 29.3014 22.314 28.8694 22.602C28.4494 22.878 28.1314 23.268 27.9154 23.772C27.6994 24.264 27.5914 24.84 27.5914 25.5V25.608C27.5914 26.712 27.8554 27.552 28.3834 28.128C28.9234 28.704 29.6854 28.992 30.6694 28.992C31.0774 28.992 31.4794 28.938 31.8754 28.83C32.2834 28.722 32.6794 28.542 33.0634 28.29C33.2314 28.182 33.3814 28.134 33.5134 28.146C33.6574 28.146 33.7714 28.188 33.8554 28.272C33.9394 28.344 33.9934 28.44 34.0174 28.56C34.0534 28.668 34.0414 28.788 33.9814 28.92C33.9334 29.052 33.8314 29.166 33.6754 29.262C33.2794 29.55 32.8114 29.772 32.2714 29.928C31.7314 30.084 31.1974 30.162 30.6694 30.162ZM39.2595 30.162C38.7195 30.162 38.1735 30.096 37.6215 29.964C37.0815 29.832 36.5775 29.604 36.1095 29.28C35.9895 29.196 35.9055 29.1 35.8575 28.992C35.8095 28.872 35.7915 28.758 35.8035 28.65C35.8275 28.53 35.8755 28.428 35.9475 28.344C36.0315 28.26 36.1275 28.212 36.2355 28.2C36.3555 28.176 36.4875 28.2 36.6315 28.272C37.0995 28.56 37.5495 28.764 37.9815 28.884C38.4255 28.992 38.8635 29.046 39.2955 29.046C39.9795 29.046 40.4955 28.92 40.8435 28.668C41.1915 28.416 41.3655 28.074 41.3655 27.642C41.3655 27.306 41.2515 27.042 41.0235 26.85C40.7955 26.646 40.4355 26.49 39.9435 26.382L38.3055 26.022C37.5495 25.866 36.9855 25.596 36.6135 25.212C36.2535 24.828 36.0735 24.33 36.0735 23.718C36.0735 23.178 36.2115 22.716 36.4875 22.332C36.7755 21.936 37.1775 21.63 37.6935 21.414C38.2095 21.198 38.8095 21.09 39.4935 21.09C40.0215 21.09 40.5195 21.162 40.9875 21.306C41.4675 21.438 41.8995 21.654 42.2835 21.954C42.4035 22.038 42.4815 22.14 42.5175 22.26C42.5655 22.368 42.5715 22.482 42.5355 22.602C42.5115 22.71 42.4575 22.806 42.3735 22.89C42.2895 22.962 42.1875 23.004 42.0675 23.016C41.9475 23.028 41.8215 22.992 41.6895 22.908C41.3295 22.668 40.9635 22.494 40.5915 22.386C40.2195 22.266 39.8535 22.206 39.4935 22.206C38.8215 22.206 38.3115 22.338 37.9635 22.602C37.6155 22.866 37.4415 23.214 37.4415 23.646C37.4415 23.982 37.5495 24.258 37.7655 24.474C37.9815 24.69 38.3175 24.846 38.7735 24.942L40.4115 25.284C41.1915 25.452 41.7735 25.722 42.1575 26.094C42.5535 26.454 42.7515 26.946 42.7515 27.57C42.7515 28.362 42.4335 28.992 41.7975 29.46C41.1615 29.928 40.3155 30.162 39.2595 30.162ZM45.6935 33.366C45.4535 33.366 45.2735 33.3 45.1535 33.168C45.0335 33.048 44.9735 32.868 44.9735 32.628V21.864C44.9735 21.624 45.0335 21.444 45.1535 21.324C45.2735 21.192 45.4475 21.126 45.6755 21.126C45.9155 21.126 46.0955 21.192 46.2155 21.324C46.3475 21.444 46.4135 21.624 46.4135 21.864V23.574L46.2155 23.322C46.4075 22.638 46.7855 22.098 47.3495 21.702C47.9255 21.294 48.6095 21.09 49.4015 21.09C50.1815 21.09 50.8595 21.276 51.4355 21.648C52.0235 22.008 52.4735 22.53 52.7855 23.214C53.1095 23.886 53.2715 24.69 53.2715 25.626C53.2715 26.55 53.1095 27.354 52.7855 28.038C52.4735 28.71 52.0295 29.232 51.4535 29.604C50.8775 29.976 50.1935 30.162 49.4015 30.162C48.6095 30.162 47.9315 29.964 47.3675 29.568C46.8035 29.16 46.4195 28.62 46.2155 27.948H46.4315V32.628C46.4315 32.868 46.3655 33.048 46.2335 33.168C46.1015 33.3 45.9215 33.366 45.6935 33.366ZM49.0955 28.992C49.6475 28.992 50.1215 28.86 50.5175 28.596C50.9255 28.332 51.2375 27.948 51.4535 27.444C51.6815 26.94 51.7955 26.334 51.7955 25.626C51.7955 24.534 51.5495 23.7 51.0575 23.124C50.5775 22.548 49.9235 22.26 49.0955 22.26C48.5555 22.26 48.0815 22.392 47.6735 22.656C47.2655 22.908 46.9475 23.286 46.7195 23.79C46.5035 24.282 46.3955 24.894 46.3955 25.626C46.3955 26.706 46.6415 27.54 47.1335 28.128C47.6255 28.704 48.2795 28.992 49.0955 28.992ZM58.1316 30.162C57.2676 30.162 56.6076 29.898 56.1516 29.37C55.6956 28.842 55.4676 28.086 55.4676 27.102V17.922C55.4676 17.682 55.5276 17.502 55.6476 17.382C55.7676 17.25 55.9476 17.184 56.1876 17.184C56.4156 17.184 56.5956 17.25 56.7276 17.382C56.8596 17.502 56.9256 17.682 56.9256 17.922V26.994C56.9256 27.642 57.0516 28.128 57.3036 28.452C57.5676 28.764 57.9516 28.92 58.4556 28.92C58.5636 28.92 58.6596 28.914 58.7436 28.902C58.8276 28.89 58.9116 28.884 58.9956 28.884C59.1276 28.872 59.2176 28.902 59.2656 28.974C59.3256 29.046 59.3556 29.19 59.3556 29.406C59.3556 29.622 59.3076 29.784 59.2116 29.892C59.1156 30 58.9596 30.072 58.7436 30.108C58.6476 30.12 58.5456 30.132 58.4376 30.144C58.3296 30.156 58.2276 30.162 58.1316 30.162ZM64.6479 30.162C63.7239 30.162 62.9259 29.982 62.2539 29.622C61.5939 29.25 61.0779 28.728 60.7059 28.056C60.3459 27.384 60.1659 26.58 60.1659 25.644C60.1659 24.732 60.3459 23.94 60.7059 23.268C61.0659 22.584 61.5579 22.05 62.1819 21.666C62.8179 21.282 63.5499 21.09 64.3779 21.09C64.9659 21.09 65.4939 21.192 65.9619 21.396C66.4299 21.588 66.8259 21.87 67.1499 22.242C67.4859 22.614 67.7379 23.064 67.9059 23.592C68.0859 24.12 68.1759 24.714 68.1759 25.374C68.1759 25.566 68.1219 25.71 68.0139 25.806C67.9059 25.89 67.7499 25.932 67.5459 25.932H61.2819V24.978H67.2039L66.9159 25.212C66.9159 24.564 66.8199 24.018 66.6279 23.574C66.4359 23.118 66.1539 22.77 65.7819 22.53C65.4219 22.29 64.9659 22.17 64.4139 22.17C63.8019 22.17 63.2799 22.314 62.8479 22.602C62.4279 22.878 62.1099 23.268 61.8939 23.772C61.6779 24.264 61.5699 24.84 61.5699 25.5V25.608C61.5699 26.712 61.8339 27.552 62.3619 28.128C62.9019 28.704 63.6639 28.992 64.6479 28.992C65.0559 28.992 65.4579 28.938 65.8539 28.83C66.2619 28.722 66.6579 28.542 67.0419 28.29C67.2099 28.182 67.3599 28.134 67.4919 28.146C67.6359 28.146 67.7499 28.188 67.8339 28.272C67.9179 28.344 67.9719 28.44 67.9959 28.56C68.0319 28.668 68.0199 28.788 67.9599 28.92C67.9119 29.052 67.8099 29.166 67.6539 29.262C67.2579 29.55 66.7899 29.772 66.2499 29.928C65.7099 30.084 65.1759 30.162 64.6479 30.162ZM74.156 33.402C73.52 33.402 72.896 33.324 72.284 33.168C71.684 33.024 71.138 32.79 70.646 32.466C70.502 32.382 70.406 32.28 70.358 32.16C70.322 32.04 70.316 31.92 70.34 31.8C70.364 31.692 70.418 31.59 70.502 31.494C70.586 31.41 70.682 31.356 70.79 31.332C70.91 31.308 71.03 31.326 71.15 31.386C71.678 31.71 72.182 31.932 72.662 32.052C73.142 32.172 73.616 32.232 74.084 32.232C74.936 32.232 75.578 32.004 76.01 31.548C76.454 31.092 76.676 30.432 76.676 29.568V27.534H76.856C76.676 28.23 76.292 28.782 75.704 29.19C75.128 29.598 74.45 29.802 73.67 29.802C72.866 29.802 72.17 29.622 71.582 29.262C70.994 28.89 70.538 28.374 70.214 27.714C69.902 27.054 69.746 26.292 69.746 25.428C69.746 24.78 69.836 24.192 70.016 23.664C70.196 23.124 70.454 22.668 70.79 22.296C71.138 21.912 71.552 21.618 72.032 21.414C72.524 21.198 73.07 21.09 73.67 21.09C74.462 21.09 75.146 21.294 75.722 21.702C76.298 22.098 76.67 22.638 76.838 23.322L76.658 23.538V21.864C76.658 21.624 76.718 21.444 76.838 21.324C76.97 21.192 77.15 21.126 77.378 21.126C77.618 21.126 77.798 21.192 77.918 21.324C78.038 21.444 78.098 21.624 78.098 21.864V29.37C78.098 30.702 77.762 31.704 77.09 32.376C76.43 33.06 75.452 33.402 74.156 33.402ZM73.94 28.614C74.504 28.614 74.99 28.488 75.398 28.236C75.806 27.972 76.118 27.6 76.334 27.12C76.562 26.64 76.676 26.076 76.676 25.428C76.676 24.456 76.43 23.688 75.938 23.124C75.446 22.548 74.78 22.26 73.94 22.26C73.388 22.26 72.908 22.392 72.5 22.656C72.092 22.908 71.774 23.274 71.546 23.754C71.33 24.222 71.222 24.78 71.222 25.428C71.222 26.4 71.468 27.174 71.96 27.75C72.452 28.326 73.112 28.614 73.94 28.614ZM83.5868 30.162C82.9868 30.162 82.4468 30.048 81.9668 29.82C81.4988 29.58 81.1268 29.256 80.8508 28.848C80.5748 28.44 80.4368 27.984 80.4368 27.48C80.4368 26.832 80.5988 26.322 80.9228 25.95C81.2588 25.578 81.8048 25.314 82.5608 25.158C83.3288 25.002 84.3728 24.924 85.6928 24.924H86.5028V25.878H85.7108C84.7388 25.878 83.9708 25.926 83.4068 26.022C82.8548 26.106 82.4648 26.256 82.2368 26.472C82.0208 26.688 81.9128 26.994 81.9128 27.39C81.9128 27.882 82.0808 28.284 82.4168 28.596C82.7648 28.908 83.2328 29.064 83.8208 29.064C84.3008 29.064 84.7208 28.95 85.0808 28.722C85.4528 28.494 85.7408 28.182 85.9448 27.786C86.1608 27.39 86.2688 26.934 86.2688 26.418V24.366C86.2688 23.622 86.1188 23.088 85.8188 22.764C85.5188 22.428 85.0268 22.26 84.3428 22.26C83.9228 22.26 83.5028 22.314 83.0828 22.422C82.6628 22.53 82.2188 22.704 81.7508 22.944C81.5828 23.028 81.4388 23.058 81.3188 23.034C81.1988 22.998 81.1028 22.932 81.0308 22.836C80.9588 22.74 80.9168 22.632 80.9048 22.512C80.8928 22.38 80.9168 22.254 80.9768 22.134C81.0488 22.014 81.1568 21.918 81.3008 21.846C81.8288 21.582 82.3508 21.39 82.8668 21.27C83.3828 21.15 83.8748 21.09 84.3428 21.09C85.0988 21.09 85.7228 21.216 86.2148 21.468C86.7068 21.708 87.0728 22.08 87.3128 22.584C87.5528 23.076 87.6728 23.712 87.6728 24.492V29.37C87.6728 29.61 87.6128 29.796 87.4928 29.928C87.3848 30.06 87.2228 30.126 87.0068 30.126C86.7788 30.126 86.6048 30.06 86.4848 29.928C86.3648 29.796 86.3048 29.61 86.3048 29.37V27.966H86.4668C86.3708 28.422 86.1848 28.812 85.9088 29.136C85.6448 29.46 85.3148 29.712 84.9188 29.892C84.5228 30.072 84.0788 30.162 83.5868 30.162ZM94.8058 30.162C94.0138 30.162 93.3298 29.958 92.7538 29.55C92.1898 29.142 91.8118 28.596 91.6198 27.912L91.8178 27.714V29.37C91.8178 29.61 91.7518 29.796 91.6198 29.928C91.4998 30.06 91.3258 30.126 91.0978 30.126C90.8578 30.126 90.6778 30.06 90.5578 29.928C90.4378 29.796 90.3778 29.61 90.3778 29.37V17.922C90.3778 17.682 90.4378 17.502 90.5578 17.382C90.6778 17.25 90.8578 17.184 91.0978 17.184C91.3258 17.184 91.5058 17.25 91.6378 17.382C91.7698 17.502 91.8358 17.682 91.8358 17.922V23.286H91.6198C91.8238 22.614 92.2078 22.08 92.7718 21.684C93.3358 21.288 94.0138 21.09 94.8058 21.09C95.5978 21.09 96.2818 21.276 96.8578 21.648C97.4338 22.008 97.8778 22.53 98.1898 23.214C98.5138 23.886 98.6758 24.69 98.6758 25.626C98.6758 26.55 98.5138 27.354 98.1898 28.038C97.8778 28.71 97.4278 29.232 96.8398 29.604C96.2638 29.976 95.5858 30.162 94.8058 30.162ZM94.4998 28.992C95.0518 28.992 95.5258 28.86 95.9218 28.596C96.3298 28.332 96.6418 27.948 96.8578 27.444C97.0858 26.94 97.1998 26.334 97.1998 25.626C97.1998 24.534 96.9538 23.7 96.4618 23.124C95.9818 22.548 95.3278 22.26 94.4998 22.26C93.9598 22.26 93.4858 22.392 93.0778 22.656C92.6698 22.908 92.3518 23.286 92.1238 23.79C91.9078 24.282 91.7998 24.894 91.7998 25.626C91.7998 26.706 92.0458 27.54 92.5378 28.128C93.0298 28.704 93.6838 28.992 94.4998 28.992ZM103.536 30.162C102.672 30.162 102.012 29.898 101.556 29.37C101.1 28.842 100.872 28.086 100.872 27.102V17.922C100.872 17.682 100.932 17.502 101.052 17.382C101.172 17.25 101.352 17.184 101.592 17.184C101.82 17.184 102 17.25 102.132 17.382C102.264 17.502 102.33 17.682 102.33 17.922V26.994C102.33 27.642 102.456 28.128 102.708 28.452C102.972 28.764 103.356 28.92 103.86 28.92C103.968 28.92 104.064 28.914 104.148 28.902C104.232 28.89 104.316 28.884 104.4 28.884C104.532 28.872 104.622 28.902 104.67 28.974C104.73 29.046 104.76 29.19 104.76 29.406C104.76 29.622 104.712 29.784 104.616 29.892C104.52 30 104.364 30.072 104.148 30.108C104.052 30.12 103.95 30.132 103.842 30.144C103.734 30.156 103.632 30.162 103.536 30.162ZM110.052 30.162C109.128 30.162 108.33 29.982 107.658 29.622C106.998 29.25 106.482 28.728 106.11 28.056C105.75 27.384 105.57 26.58 105.57 25.644C105.57 24.732 105.75 23.94 106.11 23.268C106.47 22.584 106.962 22.05 107.586 21.666C108.222 21.282 108.954 21.09 109.782 21.09C110.37 21.09 110.898 21.192 111.366 21.396C111.834 21.588 112.23 21.87 112.554 22.242C112.89 22.614 113.142 23.064 113.31 23.592C113.49 24.12 113.58 24.714 113.58 25.374C113.58 25.566 113.526 25.71 113.418 25.806C113.31 25.89 113.154 25.932 112.95 25.932H106.686V24.978H112.608L112.32 25.212C112.32 24.564 112.224 24.018 112.032 23.574C111.84 23.118 111.558 22.77 111.186 22.53C110.826 22.29 110.37 22.17 109.818 22.17C109.206 22.17 108.684 22.314 108.252 22.602C107.832 22.878 107.514 23.268 107.298 23.772C107.082 24.264 106.974 24.84 106.974 25.5V25.608C106.974 26.712 107.238 27.552 107.766 28.128C108.306 28.704 109.068 28.992 110.052 28.992C110.46 28.992 110.862 28.938 111.258 28.83C111.666 28.722 112.062 28.542 112.446 28.29C112.614 28.182 112.764 28.134 112.896 28.146C113.04 28.146 113.154 28.188 113.238 28.272C113.322 28.344 113.376 28.44 113.4 28.56C113.436 28.668 113.424 28.788 113.364 28.92C113.316 29.052 113.214 29.166 113.058 29.262C112.662 29.55 112.194 29.772 111.654 29.928C111.114 30.084 110.58 30.162 110.052 30.162Z" fill="#38485C"/>
<g clip-path="url(#clip0_3847_9296)">
<path d="M312.12 21.29L316 25.17L319.88 21.29C320.27 20.9 320.9 20.9 321.29 21.29C321.68 21.68 321.68 22.31 321.29 22.7L316.7 27.29C316.31 27.68 315.68 27.68 315.29 27.29L310.7 22.7C310.31 22.31 310.31 21.68 310.7 21.29C311.09 20.91 311.73 20.9 312.12 21.29Z" fill="#38485C"/>
</g>
<defs>
<clipPath id="clip0_3847_9296">
<rect width="24" height="24" fill="white" transform="translate(304 12)"/>
</clipPath>
</defs>
</svg>
