<svg width="479" height="265" viewBox="0 0 479 265" fill="none" xmlns="http://www.w3.org/2000/svg">
<rect x="1" y="1" width="477" height="263" rx="7" fill="white" stroke="#D1D8E0" stroke-width="2"/>
<rect x="38" y="33" width="340" height="48" rx="3" fill="#E6EBF0"/>
<rect x="50" y="49" width="196" height="16" rx="3" fill="#9EAAB8"/>
<rect x="38" y="89" width="340" height="144" rx="3" fill="#E6EBF0"/>
<line x1="384" y1="33" x2="384" y2="81" stroke="#007BC7" stroke-width="2" stroke-dasharray="7 3"/>
<line x1="384" y1="137" x2="384" y2="185" stroke="#007BC7" stroke-width="2" stroke-dasharray="7 3"/>
<rect x="38" y="137" width="340" height="48" rx="3" fill="#9EAAB8"/>
<rect x="50" y="105" width="196" height="16" rx="3" fill="#9EAAB8"/>
<rect x="50" y="201" width="196" height="16" rx="3" fill="#9EAAB8"/>
<rect x="50" y="153" width="196" height="16" rx="3" fill="#D1D8E0"/>
<g clip-path="url(#clip0_3847_9361)">
<path d="M351 165.2L347.5 161.7C347.11 161.31 346.49 161.31 346.1 161.7C345.71 162.09 345.71 162.71 346.1 163.1L350.29 167.29C350.68 167.68 351.31 167.68 351.7 167.29L362.3 156.7C362.69 156.31 362.69 155.69 362.3 155.3C361.91 154.91 361.29 154.91 360.9 155.3L351 165.2Z" fill="white"/>
</g>
<path d="M402.847 63.152C402.467 63.152 402.169 63.0507 401.954 62.848C401.739 62.6327 401.631 62.3287 401.631 61.936V60.454H396.938C396.545 60.454 396.229 60.3717 395.988 60.207C395.76 60.0423 395.646 59.7827 395.646 59.428C395.646 59.2253 395.697 59.0037 395.798 58.763C395.912 58.5223 396.108 58.2057 396.387 57.813L401.593 50.27C401.77 50.004 401.967 49.8013 402.182 49.662C402.397 49.5227 402.644 49.453 402.923 49.453C403.252 49.453 403.525 49.5543 403.74 49.757C403.955 49.947 404.063 50.251 404.063 50.669V58.44H404.994C405.361 58.44 405.634 58.5287 405.811 58.706C406.001 58.8707 406.096 59.1177 406.096 59.447C406.096 59.7763 406.001 60.0297 405.811 60.207C405.634 60.3717 405.361 60.454 404.994 60.454H404.063V61.936C404.063 62.3287 403.955 62.6327 403.74 62.848C403.525 63.0507 403.227 63.152 402.847 63.152ZM401.631 58.44V52.512H402.182L397.698 59.086V58.44H401.631ZM412.093 63.19C411.054 63.19 410.161 63.0443 409.414 62.753C408.679 62.449 408.109 62.012 407.704 61.442C407.311 60.872 407.115 60.188 407.115 59.39C407.115 58.7567 407.241 58.1993 407.495 57.718C407.761 57.224 408.122 56.825 408.578 56.521C409.034 56.217 409.553 56.027 410.136 55.951V56.35C409.325 56.1727 408.673 55.7863 408.179 55.191C407.697 54.583 407.457 53.861 407.457 53.025C407.457 52.265 407.647 51.619 408.027 51.087C408.407 50.5423 408.945 50.1307 409.642 49.852C410.338 49.5607 411.155 49.415 412.093 49.415C413.043 49.415 413.866 49.5607 414.563 49.852C415.259 50.1307 415.798 50.5423 416.178 51.087C416.558 51.619 416.748 52.265 416.748 53.025C416.748 53.5823 416.634 54.0953 416.406 54.564C416.19 55.0327 415.88 55.419 415.475 55.723C415.082 56.027 414.62 56.2297 414.088 56.331V55.951C414.974 56.0777 415.69 56.4513 416.235 57.072C416.792 57.68 417.071 58.4527 417.071 59.39C417.071 60.188 416.868 60.872 416.463 61.442C416.07 62.012 415.5 62.449 414.753 62.753C414.018 63.0443 413.131 63.19 412.093 63.19ZM412.093 61.29C412.992 61.29 413.67 61.119 414.126 60.777C414.582 60.4223 414.81 59.903 414.81 59.219C414.81 58.535 414.582 58.022 414.126 57.68C413.67 57.338 412.992 57.167 412.093 57.167C411.206 57.167 410.528 57.338 410.06 57.68C409.604 58.022 409.376 58.535 409.376 59.219C409.376 59.903 409.604 60.4223 410.06 60.777C410.528 61.119 411.206 61.29 412.093 61.29ZM412.093 55.267C412.599 55.267 413.03 55.191 413.385 55.039C413.739 54.8743 414.012 54.64 414.202 54.336C414.392 54.032 414.487 53.6773 414.487 53.272C414.487 52.664 414.271 52.189 413.841 51.847C413.423 51.4923 412.84 51.315 412.093 51.315C411.345 51.315 410.763 51.4923 410.345 51.847C409.927 52.189 409.718 52.664 409.718 53.272C409.718 53.8927 409.927 54.3803 410.345 54.735C410.763 55.0897 411.345 55.267 412.093 55.267ZM420.198 66.572C419.818 66.572 419.527 66.4707 419.324 66.268C419.121 66.0653 419.02 65.7677 419.02 65.375V54.754C419.02 54.3613 419.121 54.0637 419.324 53.861C419.527 53.6583 419.812 53.557 420.179 53.557C420.559 53.557 420.85 53.6583 421.053 53.861C421.256 54.0637 421.357 54.3613 421.357 54.754V56.236L421.148 55.666C421.338 55.02 421.724 54.5007 422.307 54.108C422.902 53.7153 423.593 53.519 424.378 53.519C425.189 53.519 425.898 53.7153 426.506 54.108C427.127 54.5007 427.608 55.058 427.95 55.78C428.292 56.4893 428.463 57.3443 428.463 58.345C428.463 59.333 428.292 60.1943 427.95 60.929C427.608 61.651 427.133 62.2083 426.525 62.601C425.917 62.9937 425.201 63.19 424.378 63.19C423.605 63.19 422.928 63 422.345 62.62C421.762 62.2273 421.37 61.7207 421.167 61.1H421.395V65.375C421.395 65.7677 421.287 66.0653 421.072 66.268C420.869 66.4707 420.578 66.572 420.198 66.572ZM423.713 61.385C424.182 61.385 424.593 61.271 424.948 61.043C425.303 60.815 425.575 60.4793 425.765 60.036C425.968 59.58 426.069 59.0163 426.069 58.345C426.069 57.3317 425.854 56.578 425.423 56.084C424.992 55.5773 424.422 55.324 423.713 55.324C423.244 55.324 422.833 55.438 422.478 55.666C422.123 55.8813 421.845 56.217 421.642 56.673C421.452 57.1163 421.357 57.6737 421.357 58.345C421.357 59.3457 421.572 60.1057 422.003 60.625C422.434 61.1317 423.004 61.385 423.713 61.385ZM430.818 63.095C430.539 63.095 430.305 63.019 430.115 62.867C429.937 62.7023 429.842 62.4933 429.83 62.24C429.83 61.9867 429.937 61.7207 430.153 61.442L433.231 57.642V58.763L430.343 55.21C430.115 54.9313 430.007 54.6653 430.02 54.412C430.032 54.1587 430.127 53.956 430.305 53.804C430.495 53.6393 430.729 53.557 431.008 53.557C431.299 53.557 431.54 53.6077 431.73 53.709C431.932 53.8103 432.116 53.9687 432.281 54.184L434.561 57.11H433.725L436.024 54.184C436.201 53.9687 436.385 53.8103 436.575 53.709C436.765 53.6077 436.999 53.557 437.278 53.557C437.569 53.557 437.803 53.6393 437.981 53.804C438.158 53.9687 438.247 54.1777 438.247 54.431C438.259 54.6843 438.152 54.9503 437.924 55.229L435.055 58.744V57.68L438.133 61.442C438.361 61.708 438.468 61.9677 438.456 62.221C438.443 62.4743 438.342 62.6833 438.152 62.848C437.974 63.0127 437.74 63.095 437.449 63.095C437.17 63.095 436.936 63.0443 436.746 62.943C436.556 62.8417 436.372 62.6833 436.195 62.468L433.725 59.352H434.523L432.072 62.468C431.907 62.6707 431.73 62.829 431.54 62.943C431.35 63.0443 431.109 63.095 430.818 63.095Z" fill="#007BC7"/>
<path d="M402.847 167.152C402.467 167.152 402.169 167.051 401.954 166.848C401.739 166.633 401.631 166.329 401.631 165.936V164.454H396.938C396.545 164.454 396.229 164.372 395.988 164.207C395.76 164.042 395.646 163.783 395.646 163.428C395.646 163.225 395.697 163.004 395.798 162.763C395.912 162.522 396.108 162.206 396.387 161.813L401.593 154.27C401.77 154.004 401.967 153.801 402.182 153.662C402.397 153.523 402.644 153.453 402.923 153.453C403.252 153.453 403.525 153.554 403.74 153.757C403.955 153.947 404.063 154.251 404.063 154.669V162.44H404.994C405.361 162.44 405.634 162.529 405.811 162.706C406.001 162.871 406.096 163.118 406.096 163.447C406.096 163.776 406.001 164.03 405.811 164.207C405.634 164.372 405.361 164.454 404.994 164.454H404.063V165.936C404.063 166.329 403.955 166.633 403.74 166.848C403.525 167.051 403.227 167.152 402.847 167.152ZM401.631 162.44V156.512H402.182L397.698 163.086V162.44H401.631ZM412.093 167.19C411.054 167.19 410.161 167.044 409.414 166.753C408.679 166.449 408.109 166.012 407.704 165.442C407.311 164.872 407.115 164.188 407.115 163.39C407.115 162.757 407.241 162.199 407.495 161.718C407.761 161.224 408.122 160.825 408.578 160.521C409.034 160.217 409.553 160.027 410.136 159.951V160.35C409.325 160.173 408.673 159.786 408.179 159.191C407.697 158.583 407.457 157.861 407.457 157.025C407.457 156.265 407.647 155.619 408.027 155.087C408.407 154.542 408.945 154.131 409.642 153.852C410.338 153.561 411.155 153.415 412.093 153.415C413.043 153.415 413.866 153.561 414.563 153.852C415.259 154.131 415.798 154.542 416.178 155.087C416.558 155.619 416.748 156.265 416.748 157.025C416.748 157.582 416.634 158.095 416.406 158.564C416.19 159.033 415.88 159.419 415.475 159.723C415.082 160.027 414.62 160.23 414.088 160.331V159.951C414.974 160.078 415.69 160.451 416.235 161.072C416.792 161.68 417.071 162.453 417.071 163.39C417.071 164.188 416.868 164.872 416.463 165.442C416.07 166.012 415.5 166.449 414.753 166.753C414.018 167.044 413.131 167.19 412.093 167.19ZM412.093 165.29C412.992 165.29 413.67 165.119 414.126 164.777C414.582 164.422 414.81 163.903 414.81 163.219C414.81 162.535 414.582 162.022 414.126 161.68C413.67 161.338 412.992 161.167 412.093 161.167C411.206 161.167 410.528 161.338 410.06 161.68C409.604 162.022 409.376 162.535 409.376 163.219C409.376 163.903 409.604 164.422 410.06 164.777C410.528 165.119 411.206 165.29 412.093 165.29ZM412.093 159.267C412.599 159.267 413.03 159.191 413.385 159.039C413.739 158.874 414.012 158.64 414.202 158.336C414.392 158.032 414.487 157.677 414.487 157.272C414.487 156.664 414.271 156.189 413.841 155.847C413.423 155.492 412.84 155.315 412.093 155.315C411.345 155.315 410.763 155.492 410.345 155.847C409.927 156.189 409.718 156.664 409.718 157.272C409.718 157.893 409.927 158.38 410.345 158.735C410.763 159.09 411.345 159.267 412.093 159.267ZM420.198 170.572C419.818 170.572 419.527 170.471 419.324 170.268C419.121 170.065 419.02 169.768 419.02 169.375V158.754C419.02 158.361 419.121 158.064 419.324 157.861C419.527 157.658 419.812 157.557 420.179 157.557C420.559 157.557 420.85 157.658 421.053 157.861C421.256 158.064 421.357 158.361 421.357 158.754V160.236L421.148 159.666C421.338 159.02 421.724 158.501 422.307 158.108C422.902 157.715 423.593 157.519 424.378 157.519C425.189 157.519 425.898 157.715 426.506 158.108C427.127 158.501 427.608 159.058 427.95 159.78C428.292 160.489 428.463 161.344 428.463 162.345C428.463 163.333 428.292 164.194 427.95 164.929C427.608 165.651 427.133 166.208 426.525 166.601C425.917 166.994 425.201 167.19 424.378 167.19C423.605 167.19 422.928 167 422.345 166.62C421.762 166.227 421.37 165.721 421.167 165.1H421.395V169.375C421.395 169.768 421.287 170.065 421.072 170.268C420.869 170.471 420.578 170.572 420.198 170.572ZM423.713 165.385C424.182 165.385 424.593 165.271 424.948 165.043C425.303 164.815 425.575 164.479 425.765 164.036C425.968 163.58 426.069 163.016 426.069 162.345C426.069 161.332 425.854 160.578 425.423 160.084C424.992 159.577 424.422 159.324 423.713 159.324C423.244 159.324 422.833 159.438 422.478 159.666C422.123 159.881 421.845 160.217 421.642 160.673C421.452 161.116 421.357 161.674 421.357 162.345C421.357 163.346 421.572 164.106 422.003 164.625C422.434 165.132 423.004 165.385 423.713 165.385ZM430.818 167.095C430.539 167.095 430.305 167.019 430.115 166.867C429.937 166.702 429.842 166.493 429.83 166.24C429.83 165.987 429.937 165.721 430.153 165.442L433.231 161.642V162.763L430.343 159.21C430.115 158.931 430.007 158.665 430.02 158.412C430.032 158.159 430.127 157.956 430.305 157.804C430.495 157.639 430.729 157.557 431.008 157.557C431.299 157.557 431.54 157.608 431.73 157.709C431.932 157.81 432.116 157.969 432.281 158.184L434.561 161.11H433.725L436.024 158.184C436.201 157.969 436.385 157.81 436.575 157.709C436.765 157.608 436.999 157.557 437.278 157.557C437.569 157.557 437.803 157.639 437.981 157.804C438.158 157.969 438.247 158.178 438.247 158.431C438.259 158.684 438.152 158.95 437.924 159.229L435.055 162.744V161.68L438.133 165.442C438.361 165.708 438.468 165.968 438.456 166.221C438.443 166.474 438.342 166.683 438.152 166.848C437.974 167.013 437.74 167.095 437.449 167.095C437.17 167.095 436.936 167.044 436.746 166.943C436.556 166.842 436.372 166.683 436.195 166.468L433.725 163.352H434.523L432.072 166.468C431.907 166.671 431.73 166.829 431.54 166.943C431.35 167.044 431.109 167.095 430.818 167.095Z" fill="#007BC7"/>
<defs>
<clipPath id="clip0_3847_9361">
<rect width="24" height="24" fill="white" transform="translate(342 149)"/>
</clipPath>
</defs>
</svg>
