<svg width="214" height="52" viewBox="0 0 214 52" fill="none" xmlns="http://www.w3.org/2000/svg">
<rect x="1" y="1" width="212" height="50" rx="9" fill="white"/>
<path d="M19.418 32.126C19.19 32.126 19.01 32.06 18.878 31.928C18.746 31.784 18.68 31.592 18.68 31.352V20.588H14.63C14.414 20.588 14.246 20.528 14.126 20.408C14.006 20.288 13.946 20.132 13.946 19.94C13.946 19.736 14.006 19.58 14.126 19.472C14.246 19.364 14.414 19.31 14.63 19.31H24.224C24.44 19.31 24.608 19.364 24.728 19.472C24.848 19.58 24.908 19.736 24.908 19.94C24.908 20.144 24.848 20.306 24.728 20.426C24.608 20.534 24.44 20.588 24.224 20.588H20.174V31.352C20.174 31.592 20.108 31.784 19.976 31.928C19.856 32.06 19.67 32.126 19.418 32.126ZM27.3732 32.09C27.1332 32.09 26.9532 32.024 26.8332 31.892C26.7132 31.748 26.6532 31.55 26.6532 31.298V23.936C26.6532 23.684 26.7132 23.492 26.8332 23.36C26.9532 23.228 27.1332 23.162 27.3732 23.162C27.6012 23.162 27.7812 23.228 27.9132 23.36C28.0452 23.492 28.1112 23.684 28.1112 23.936V31.298C28.1112 31.55 28.0452 31.748 27.9132 31.892C27.7932 32.024 27.6132 32.09 27.3732 32.09ZM27.3732 21.146C27.0732 21.146 26.8392 21.068 26.6712 20.912C26.5032 20.744 26.4192 20.522 26.4192 20.246C26.4192 19.958 26.5032 19.742 26.6712 19.598C26.8392 19.442 27.0732 19.364 27.3732 19.364C27.6852 19.364 27.9192 19.442 28.0752 19.598C28.2432 19.742 28.3272 19.958 28.3272 20.246C28.3272 20.522 28.2432 20.744 28.0752 20.912C27.9192 21.068 27.6852 21.146 27.3732 21.146ZM31.5568 35.366C31.3168 35.366 31.1368 35.3 31.0168 35.168C30.8968 35.048 30.8368 34.868 30.8368 34.628V23.864C30.8368 23.624 30.8968 23.444 31.0168 23.324C31.1368 23.192 31.3108 23.126 31.5388 23.126C31.7788 23.126 31.9588 23.192 32.0788 23.324C32.2108 23.444 32.2768 23.624 32.2768 23.864V25.574L32.0788 25.322C32.2708 24.638 32.6488 24.098 33.2128 23.702C33.7888 23.294 34.4728 23.09 35.2648 23.09C36.0448 23.09 36.7228 23.276 37.2988 23.648C37.8868 24.008 38.3368 24.53 38.6488 25.214C38.9728 25.886 39.1348 26.69 39.1348 27.626C39.1348 28.55 38.9728 29.354 38.6488 30.038C38.3368 30.71 37.8928 31.232 37.3168 31.604C36.7408 31.976 36.0568 32.162 35.2648 32.162C34.4728 32.162 33.7948 31.964 33.2308 31.568C32.6668 31.16 32.2828 30.62 32.0788 29.948H32.2948V34.628C32.2948 34.868 32.2288 35.048 32.0968 35.168C31.9648 35.3 31.7848 35.366 31.5568 35.366ZM34.9588 30.992C35.5108 30.992 35.9848 30.86 36.3808 30.596C36.7888 30.332 37.1008 29.948 37.3168 29.444C37.5448 28.94 37.6588 28.334 37.6588 27.626C37.6588 26.534 37.4128 25.7 36.9208 25.124C36.4408 24.548 35.7868 24.26 34.9588 24.26C34.4188 24.26 33.9448 24.392 33.5368 24.656C33.1288 24.908 32.8108 25.286 32.5828 25.79C32.3668 26.282 32.2588 26.894 32.2588 27.626C32.2588 28.706 32.5048 29.54 32.9968 30.128C33.4888 30.704 34.1428 30.992 34.9588 30.992ZM44.9669 32.162C44.1149 32.162 43.3769 31.976 42.7529 31.604C42.1289 31.232 41.6429 30.71 41.2949 30.038C40.9589 29.354 40.7909 28.55 40.7909 27.626C40.7909 26.93 40.8869 26.306 41.0789 25.754C41.2709 25.19 41.5529 24.71 41.9249 24.314C42.2969 23.918 42.7349 23.618 43.2389 23.414C43.7549 23.198 44.3309 23.09 44.9669 23.09C45.8189 23.09 46.5569 23.276 47.1809 23.648C47.8049 24.02 48.2849 24.548 48.6209 25.232C48.9689 25.904 49.1429 26.702 49.1429 27.626C49.1429 28.322 49.0469 28.946 48.8549 29.498C48.6629 30.05 48.3809 30.53 48.0089 30.938C47.6369 31.334 47.1929 31.64 46.6769 31.856C46.1729 32.06 45.6029 32.162 44.9669 32.162ZM44.9669 30.992C45.5069 30.992 45.9809 30.86 46.3889 30.596C46.7969 30.332 47.1089 29.948 47.3249 29.444C47.5529 28.94 47.6669 28.334 47.6669 27.626C47.6669 26.534 47.4209 25.7 46.9289 25.124C46.4489 24.548 45.7949 24.26 44.9669 24.26C44.4149 24.26 43.9349 24.392 43.5269 24.656C43.1309 24.908 42.8189 25.286 42.5909 25.79C42.3749 26.282 42.2669 26.894 42.2669 27.626C42.2669 28.706 42.5129 29.54 43.0049 30.128C43.4969 30.704 44.1509 30.992 44.9669 30.992ZM59.3035 32.162C58.5235 32.162 57.8395 31.976 57.2515 31.604C56.6755 31.232 56.2255 30.71 55.9015 30.038C55.5895 29.354 55.4335 28.55 55.4335 27.626C55.4335 26.69 55.5895 25.886 55.9015 25.214C56.2255 24.53 56.6755 24.008 57.2515 23.648C57.8395 23.276 58.5235 23.09 59.3035 23.09C60.0955 23.09 60.7735 23.288 61.3375 23.684C61.9015 24.08 62.2795 24.614 62.4715 25.286H62.2735V19.922C62.2735 19.682 62.3335 19.502 62.4535 19.382C62.5855 19.25 62.7715 19.184 63.0115 19.184C63.2395 19.184 63.4135 19.25 63.5335 19.382C63.6655 19.502 63.7315 19.682 63.7315 19.922V31.37C63.7315 31.61 63.6715 31.796 63.5515 31.928C63.4315 32.06 63.2515 32.126 63.0115 32.126C62.7835 32.126 62.6035 32.06 62.4715 31.928C62.3515 31.796 62.2915 31.61 62.2915 31.37V29.66L62.4895 29.912C62.2975 30.596 61.9135 31.142 61.3375 31.55C60.7735 31.958 60.0955 32.162 59.3035 32.162ZM59.6095 30.992C60.1495 30.992 60.6235 30.86 61.0315 30.596C61.4395 30.332 61.7515 29.948 61.9675 29.444C62.1955 28.94 62.3095 28.334 62.3095 27.626C62.3095 26.534 62.0635 25.7 61.5715 25.124C61.0915 24.548 60.4375 24.26 59.6095 24.26C59.0575 24.26 58.5775 24.392 58.1695 24.656C57.7735 24.908 57.4615 25.286 57.2335 25.79C57.0175 26.282 56.9095 26.894 56.9095 27.626C56.9095 28.706 57.1555 29.54 57.6475 30.128C58.1395 30.704 58.7935 30.992 59.6095 30.992ZM70.4096 32.162C69.4856 32.162 68.6876 31.982 68.0156 31.622C67.3556 31.25 66.8396 30.728 66.4676 30.056C66.1076 29.384 65.9276 28.58 65.9276 27.644C65.9276 26.732 66.1076 25.94 66.4676 25.268C66.8276 24.584 67.3196 24.05 67.9436 23.666C68.5796 23.282 69.3116 23.09 70.1396 23.09C70.7276 23.09 71.2556 23.192 71.7236 23.396C72.1916 23.588 72.5876 23.87 72.9116 24.242C73.2476 24.614 73.4996 25.064 73.6676 25.592C73.8476 26.12 73.9376 26.714 73.9376 27.374C73.9376 27.566 73.8836 27.71 73.7756 27.806C73.6676 27.89 73.5116 27.932 73.3076 27.932H67.0436V26.978H72.9656L72.6776 27.212C72.6776 26.564 72.5816 26.018 72.3896 25.574C72.1976 25.118 71.9156 24.77 71.5436 24.53C71.1836 24.29 70.7276 24.17 70.1756 24.17C69.5636 24.17 69.0416 24.314 68.6096 24.602C68.1896 24.878 67.8716 25.268 67.6556 25.772C67.4396 26.264 67.3316 26.84 67.3316 27.5V27.608C67.3316 28.712 67.5956 29.552 68.1236 30.128C68.6636 30.704 69.4256 30.992 70.4096 30.992C70.8176 30.992 71.2196 30.938 71.6156 30.83C72.0236 30.722 72.4196 30.542 72.8036 30.29C72.9716 30.182 73.1216 30.134 73.2536 30.146C73.3976 30.146 73.5116 30.188 73.5956 30.272C73.6796 30.344 73.7336 30.44 73.7576 30.56C73.7936 30.668 73.7816 30.788 73.7216 30.92C73.6736 31.052 73.5716 31.166 73.4156 31.262C73.0196 31.55 72.5516 31.772 72.0116 31.928C71.4716 32.084 70.9376 32.162 70.4096 32.162ZM81.8763 32.126C81.6483 32.126 81.4683 32.06 81.3363 31.928C81.2163 31.796 81.1563 31.61 81.1563 31.37V24.386H80.0043C79.8123 24.386 79.6563 24.338 79.5363 24.242C79.4283 24.134 79.3743 23.99 79.3743 23.81C79.3743 23.63 79.4283 23.492 79.5363 23.396C79.6563 23.3 79.8123 23.252 80.0043 23.252H81.5523L81.1563 23.63V22.946C81.1563 21.806 81.4323 20.936 81.9843 20.336C82.5483 19.736 83.3703 19.388 84.4503 19.292L84.9723 19.238C85.1403 19.226 85.2723 19.256 85.3683 19.328C85.4763 19.4 85.5423 19.49 85.5663 19.598C85.6023 19.706 85.6083 19.82 85.5843 19.94C85.5603 20.048 85.5063 20.144 85.4223 20.228C85.3383 20.312 85.2363 20.36 85.1163 20.372L84.7023 20.408C83.9703 20.468 83.4363 20.69 83.1003 21.074C82.7763 21.458 82.6143 22.022 82.6143 22.766V23.522L82.3983 23.252H84.5583C84.7623 23.252 84.9183 23.3 85.0263 23.396C85.1343 23.492 85.1883 23.63 85.1883 23.81C85.1883 23.99 85.1343 24.134 85.0263 24.242C84.9183 24.338 84.7623 24.386 84.5583 24.386H82.6143V31.37C82.6143 31.874 82.3683 32.126 81.8763 32.126ZM90.0724 32.162C89.2204 32.162 88.4824 31.976 87.8584 31.604C87.2344 31.232 86.7484 30.71 86.4004 30.038C86.0644 29.354 85.8964 28.55 85.8964 27.626C85.8964 26.93 85.9924 26.306 86.1844 25.754C86.3764 25.19 86.6584 24.71 87.0304 24.314C87.4024 23.918 87.8404 23.618 88.3444 23.414C88.8604 23.198 89.4364 23.09 90.0724 23.09C90.9244 23.09 91.6624 23.276 92.2864 23.648C92.9104 24.02 93.3904 24.548 93.7264 25.232C94.0744 25.904 94.2484 26.702 94.2484 27.626C94.2484 28.322 94.1524 28.946 93.9604 29.498C93.7684 30.05 93.4864 30.53 93.1144 30.938C92.7424 31.334 92.2984 31.64 91.7824 31.856C91.2784 32.06 90.7084 32.162 90.0724 32.162ZM90.0724 30.992C90.6124 30.992 91.0864 30.86 91.4944 30.596C91.9024 30.332 92.2144 29.948 92.4304 29.444C92.6584 28.94 92.7724 28.334 92.7724 27.626C92.7724 26.534 92.5264 25.7 92.0344 25.124C91.5544 24.548 90.9004 24.26 90.0724 24.26C89.5204 24.26 89.0404 24.392 88.6324 24.656C88.2364 24.908 87.9244 25.286 87.6964 25.79C87.4804 26.282 87.3724 26.894 87.3724 27.626C87.3724 28.706 87.6184 29.54 88.1104 30.128C88.6024 30.704 89.2564 30.992 90.0724 30.992ZM97.1763 32.126C96.9363 32.126 96.7503 32.06 96.6183 31.928C96.4983 31.796 96.4383 31.61 96.4383 31.37V23.864C96.4383 23.624 96.4983 23.444 96.6183 23.324C96.7383 23.192 96.9123 23.126 97.1403 23.126C97.3683 23.126 97.5423 23.192 97.6623 23.324C97.7943 23.444 97.8603 23.624 97.8603 23.864V25.322H97.6803C97.8723 24.614 98.2383 24.068 98.7783 23.684C99.3183 23.3 99.9843 23.096 100.776 23.072C100.956 23.06 101.1 23.102 101.208 23.198C101.316 23.282 101.376 23.432 101.388 23.648C101.4 23.852 101.352 24.014 101.244 24.134C101.136 24.254 100.968 24.326 100.74 24.35L100.452 24.386C99.6363 24.458 99.0063 24.722 98.5623 25.178C98.1303 25.622 97.9143 26.234 97.9143 27.014V31.37C97.9143 31.61 97.8483 31.796 97.7163 31.928C97.5963 32.06 97.4163 32.126 97.1763 32.126ZM103.645 32.126C103.405 32.126 103.225 32.06 103.105 31.928C102.985 31.796 102.925 31.61 102.925 31.37V23.864C102.925 23.624 102.985 23.444 103.105 23.324C103.225 23.192 103.399 23.126 103.627 23.126C103.855 23.126 104.029 23.192 104.149 23.324C104.281 23.444 104.347 23.624 104.347 23.864V25.448L104.149 25.196C104.377 24.524 104.743 24.008 105.247 23.648C105.763 23.276 106.375 23.09 107.083 23.09C107.827 23.09 108.427 23.27 108.883 23.63C109.351 23.978 109.663 24.524 109.819 25.268H109.549C109.765 24.596 110.149 24.068 110.701 23.684C111.265 23.288 111.919 23.09 112.663 23.09C113.323 23.09 113.863 23.216 114.283 23.468C114.715 23.72 115.039 24.104 115.255 24.62C115.471 25.124 115.579 25.766 115.579 26.546V31.37C115.579 31.61 115.513 31.796 115.381 31.928C115.261 32.06 115.081 32.126 114.841 32.126C114.613 32.126 114.433 32.06 114.301 31.928C114.181 31.796 114.121 31.61 114.121 31.37V26.618C114.121 25.814 113.983 25.226 113.707 24.854C113.431 24.47 112.963 24.278 112.303 24.278C111.583 24.278 111.013 24.53 110.593 25.034C110.185 25.526 109.981 26.198 109.981 27.05V31.37C109.981 31.61 109.915 31.796 109.783 31.928C109.663 32.06 109.483 32.126 109.243 32.126C109.015 32.126 108.835 32.06 108.703 31.928C108.583 31.796 108.523 31.61 108.523 31.37V26.618C108.523 25.814 108.379 25.226 108.091 24.854C107.815 24.47 107.353 24.278 106.705 24.278C105.985 24.278 105.415 24.53 104.995 25.034C104.587 25.526 104.383 26.198 104.383 27.05V31.37C104.383 31.874 104.137 32.126 103.645 32.126ZM121.06 32.162C120.46 32.162 119.92 32.048 119.44 31.82C118.972 31.58 118.6 31.256 118.324 30.848C118.048 30.44 117.91 29.984 117.91 29.48C117.91 28.832 118.072 28.322 118.396 27.95C118.732 27.578 119.278 27.314 120.034 27.158C120.802 27.002 121.846 26.924 123.166 26.924H123.976V27.878H123.184C122.212 27.878 121.444 27.926 120.88 28.022C120.328 28.106 119.938 28.256 119.71 28.472C119.494 28.688 119.386 28.994 119.386 29.39C119.386 29.882 119.554 30.284 119.89 30.596C120.238 30.908 120.706 31.064 121.294 31.064C121.774 31.064 122.194 30.95 122.554 30.722C122.926 30.494 123.214 30.182 123.418 29.786C123.634 29.39 123.742 28.934 123.742 28.418V26.366C123.742 25.622 123.592 25.088 123.292 24.764C122.992 24.428 122.5 24.26 121.816 24.26C121.396 24.26 120.976 24.314 120.556 24.422C120.136 24.53 119.692 24.704 119.224 24.944C119.056 25.028 118.912 25.058 118.792 25.034C118.672 24.998 118.576 24.932 118.504 24.836C118.432 24.74 118.39 24.632 118.378 24.512C118.366 24.38 118.39 24.254 118.45 24.134C118.522 24.014 118.63 23.918 118.774 23.846C119.302 23.582 119.824 23.39 120.34 23.27C120.856 23.15 121.348 23.09 121.816 23.09C122.572 23.09 123.196 23.216 123.688 23.468C124.18 23.708 124.546 24.08 124.786 24.584C125.026 25.076 125.146 25.712 125.146 26.492V31.37C125.146 31.61 125.086 31.796 124.966 31.928C124.858 32.06 124.696 32.126 124.48 32.126C124.252 32.126 124.078 32.06 123.958 31.928C123.838 31.796 123.778 31.61 123.778 31.37V29.966H123.94C123.844 30.422 123.658 30.812 123.382 31.136C123.118 31.46 122.788 31.712 122.392 31.892C121.996 32.072 121.552 32.162 121.06 32.162ZM131.558 32.162C130.682 32.162 129.926 31.97 129.29 31.586C128.654 31.202 128.162 30.668 127.814 29.984C127.478 29.288 127.31 28.484 127.31 27.572C127.31 26.876 127.406 26.252 127.598 25.7C127.79 25.148 128.072 24.68 128.444 24.296C128.816 23.9 129.26 23.6 129.776 23.396C130.304 23.192 130.898 23.09 131.558 23.09C131.99 23.09 132.44 23.156 132.908 23.288C133.376 23.42 133.802 23.648 134.186 23.972C134.306 24.056 134.384 24.158 134.42 24.278C134.456 24.398 134.456 24.518 134.42 24.638C134.384 24.746 134.324 24.842 134.24 24.926C134.156 24.998 134.048 25.04 133.916 25.052C133.796 25.064 133.67 25.022 133.538 24.926C133.226 24.686 132.908 24.518 132.584 24.422C132.26 24.326 131.948 24.278 131.648 24.278C131.18 24.278 130.772 24.356 130.424 24.512C130.076 24.656 129.782 24.866 129.542 25.142C129.302 25.418 129.116 25.76 128.984 26.168C128.864 26.576 128.804 27.05 128.804 27.59C128.804 28.634 129.05 29.462 129.542 30.074C130.034 30.674 130.736 30.974 131.648 30.974C131.948 30.974 132.254 30.926 132.566 30.83C132.89 30.734 133.214 30.566 133.538 30.326C133.67 30.23 133.796 30.188 133.916 30.2C134.036 30.212 134.138 30.26 134.222 30.344C134.306 30.416 134.36 30.512 134.384 30.632C134.42 30.752 134.42 30.872 134.384 30.992C134.348 31.1 134.27 31.196 134.15 31.28C133.766 31.592 133.346 31.82 132.89 31.964C132.434 32.096 131.99 32.162 131.558 32.162ZM136.902 32.09C136.662 32.09 136.482 32.024 136.362 31.892C136.242 31.748 136.182 31.55 136.182 31.298V23.936C136.182 23.684 136.242 23.492 136.362 23.36C136.482 23.228 136.662 23.162 136.902 23.162C137.13 23.162 137.31 23.228 137.442 23.36C137.574 23.492 137.64 23.684 137.64 23.936V31.298C137.64 31.55 137.574 31.748 137.442 31.892C137.322 32.024 137.142 32.09 136.902 32.09ZM136.902 21.146C136.602 21.146 136.368 21.068 136.2 20.912C136.032 20.744 135.948 20.522 135.948 20.246C135.948 19.958 136.032 19.742 136.2 19.598C136.368 19.442 136.602 19.364 136.902 19.364C137.214 19.364 137.448 19.442 137.604 19.598C137.772 19.742 137.856 19.958 137.856 20.246C137.856 20.522 137.772 20.744 137.604 20.912C137.448 21.068 137.214 21.146 136.902 21.146ZM144.002 32.162C143.15 32.162 142.412 31.976 141.788 31.604C141.164 31.232 140.678 30.71 140.33 30.038C139.994 29.354 139.826 28.55 139.826 27.626C139.826 26.93 139.922 26.306 140.114 25.754C140.306 25.19 140.588 24.71 140.96 24.314C141.332 23.918 141.77 23.618 142.274 23.414C142.79 23.198 143.366 23.09 144.002 23.09C144.854 23.09 145.592 23.276 146.216 23.648C146.84 24.02 147.32 24.548 147.656 25.232C148.004 25.904 148.178 26.702 148.178 27.626C148.178 28.322 148.082 28.946 147.89 29.498C147.698 30.05 147.416 30.53 147.044 30.938C146.672 31.334 146.228 31.64 145.712 31.856C145.208 32.06 144.638 32.162 144.002 32.162ZM144.002 30.992C144.542 30.992 145.016 30.86 145.424 30.596C145.832 30.332 146.144 29.948 146.36 29.444C146.588 28.94 146.702 28.334 146.702 27.626C146.702 26.534 146.456 25.7 145.964 25.124C145.484 24.548 144.83 24.26 144.002 24.26C143.45 24.26 142.97 24.392 142.562 24.656C142.166 24.908 141.854 25.286 141.626 25.79C141.41 26.282 141.302 26.894 141.302 27.626C141.302 28.706 141.548 29.54 142.04 30.128C142.532 30.704 143.186 30.992 144.002 30.992ZM144.596 21.992C144.512 22.112 144.41 22.184 144.29 22.208C144.17 22.22 144.056 22.202 143.948 22.154C143.84 22.094 143.762 22.01 143.714 21.902C143.666 21.794 143.678 21.668 143.75 21.524L145.262 18.59C145.346 18.422 145.454 18.314 145.586 18.266C145.718 18.218 145.85 18.212 145.982 18.248C146.126 18.272 146.246 18.332 146.342 18.428C146.438 18.524 146.492 18.638 146.504 18.77C146.528 18.902 146.492 19.04 146.396 19.184L144.596 21.992ZM151.088 32.126C150.848 32.126 150.668 32.06 150.548 31.928C150.428 31.796 150.368 31.61 150.368 31.37V23.864C150.368 23.624 150.428 23.444 150.548 23.324C150.668 23.192 150.842 23.126 151.07 23.126C151.298 23.126 151.472 23.192 151.592 23.324C151.724 23.444 151.79 23.624 151.79 23.864V25.412L151.592 25.196C151.844 24.5 152.252 23.978 152.816 23.63C153.392 23.27 154.052 23.09 154.796 23.09C155.492 23.09 156.068 23.216 156.524 23.468C156.992 23.72 157.34 24.104 157.568 24.62C157.796 25.124 157.91 25.766 157.91 26.546V31.37C157.91 31.61 157.844 31.796 157.712 31.928C157.592 32.06 157.418 32.126 157.19 32.126C156.95 32.126 156.764 32.06 156.632 31.928C156.512 31.796 156.452 31.61 156.452 31.37V26.636C156.452 25.82 156.29 25.226 155.966 24.854C155.654 24.47 155.15 24.278 154.454 24.278C153.65 24.278 153.008 24.53 152.528 25.034C152.06 25.526 151.826 26.186 151.826 27.014V31.37C151.826 31.874 151.58 32.126 151.088 32.126Z" fill="#38485C"/>
<g clip-path="url(#clip0_3937_9326)">
<path d="M184.12 23.2901L188 27.1701L191.88 23.2901C192.27 22.9001 192.9 22.9001 193.29 23.2901C193.68 23.6801 193.68 24.3101 193.29 24.7001L188.7 29.2901C188.31 29.6801 187.68 29.6801 187.29 29.2901L182.7 24.7001C182.31 24.3101 182.31 23.6801 182.7 23.2901C183.09 22.9101 183.73 22.9001 184.12 23.2901Z" fill="#38485C"/>
</g>
<rect x="1" y="1" width="212" height="50" rx="9" stroke="#E6EBF0" stroke-width="2"/>
<defs>
<clipPath id="clip0_3937_9326">
<rect width="24" height="24" fill="white" transform="translate(176 14)"/>
</clipPath>
</defs>
</svg>
