<svg width="344" height="52" viewBox="0 0 344 52" fill="none" xmlns="http://www.w3.org/2000/svg">
<rect x="1" y="1" width="342" height="50" rx="9" fill="white"/>
<path d="M19.418 32.126C19.19 32.126 19.01 32.06 18.878 31.928C18.746 31.784 18.68 31.592 18.68 31.352V20.588H14.63C14.414 20.588 14.246 20.528 14.126 20.408C14.006 20.288 13.946 20.132 13.946 19.94C13.946 19.736 14.006 19.58 14.126 19.472C14.246 19.364 14.414 19.31 14.63 19.31H24.224C24.44 19.31 24.608 19.364 24.728 19.472C24.848 19.58 24.908 19.736 24.908 19.94C24.908 20.144 24.848 20.306 24.728 20.426C24.608 20.534 24.44 20.588 24.224 20.588H20.174V31.352C20.174 31.592 20.108 31.784 19.976 31.928C19.856 32.06 19.67 32.126 19.418 32.126ZM27.3732 32.09C27.1332 32.09 26.9532 32.024 26.8332 31.892C26.7132 31.748 26.6532 31.55 26.6532 31.298V23.936C26.6532 23.684 26.7132 23.492 26.8332 23.36C26.9532 23.228 27.1332 23.162 27.3732 23.162C27.6012 23.162 27.7812 23.228 27.9132 23.36C28.0452 23.492 28.1112 23.684 28.1112 23.936V31.298C28.1112 31.55 28.0452 31.748 27.9132 31.892C27.7932 32.024 27.6132 32.09 27.3732 32.09ZM27.3732 21.146C27.0732 21.146 26.8392 21.068 26.6712 20.912C26.5032 20.744 26.4192 20.522 26.4192 20.246C26.4192 19.958 26.5032 19.742 26.6712 19.598C26.8392 19.442 27.0732 19.364 27.3732 19.364C27.6852 19.364 27.9192 19.442 28.0752 19.598C28.2432 19.742 28.3272 19.958 28.3272 20.246C28.3272 20.522 28.2432 20.744 28.0752 20.912C27.9192 21.068 27.6852 21.146 27.3732 21.146ZM31.5568 35.366C31.3168 35.366 31.1368 35.3 31.0168 35.168C30.8968 35.048 30.8368 34.868 30.8368 34.628V23.864C30.8368 23.624 30.8968 23.444 31.0168 23.324C31.1368 23.192 31.3108 23.126 31.5388 23.126C31.7788 23.126 31.9588 23.192 32.0788 23.324C32.2108 23.444 32.2768 23.624 32.2768 23.864V25.574L32.0788 25.322C32.2708 24.638 32.6488 24.098 33.2128 23.702C33.7888 23.294 34.4728 23.09 35.2648 23.09C36.0448 23.09 36.7228 23.276 37.2988 23.648C37.8868 24.008 38.3368 24.53 38.6488 25.214C38.9728 25.886 39.1348 26.69 39.1348 27.626C39.1348 28.55 38.9728 29.354 38.6488 30.038C38.3368 30.71 37.8928 31.232 37.3168 31.604C36.7408 31.976 36.0568 32.162 35.2648 32.162C34.4728 32.162 33.7948 31.964 33.2308 31.568C32.6668 31.16 32.2828 30.62 32.0788 29.948H32.2948V34.628C32.2948 34.868 32.2288 35.048 32.0968 35.168C31.9648 35.3 31.7848 35.366 31.5568 35.366ZM34.9588 30.992C35.5108 30.992 35.9848 30.86 36.3808 30.596C36.7888 30.332 37.1008 29.948 37.3168 29.444C37.5448 28.94 37.6588 28.334 37.6588 27.626C37.6588 26.534 37.4128 25.7 36.9208 25.124C36.4408 24.548 35.7868 24.26 34.9588 24.26C34.4188 24.26 33.9448 24.392 33.5368 24.656C33.1288 24.908 32.8108 25.286 32.5828 25.79C32.3668 26.282 32.2588 26.894 32.2588 27.626C32.2588 28.706 32.5048 29.54 32.9968 30.128C33.4888 30.704 34.1428 30.992 34.9588 30.992ZM44.9669 32.162C44.1149 32.162 43.3769 31.976 42.7529 31.604C42.1289 31.232 41.6429 30.71 41.2949 30.038C40.9589 29.354 40.7909 28.55 40.7909 27.626C40.7909 26.93 40.8869 26.306 41.0789 25.754C41.2709 25.19 41.5529 24.71 41.9249 24.314C42.2969 23.918 42.7349 23.618 43.2389 23.414C43.7549 23.198 44.3309 23.09 44.9669 23.09C45.8189 23.09 46.5569 23.276 47.1809 23.648C47.8049 24.02 48.2849 24.548 48.6209 25.232C48.9689 25.904 49.1429 26.702 49.1429 27.626C49.1429 28.322 49.0469 28.946 48.8549 29.498C48.6629 30.05 48.3809 30.53 48.0089 30.938C47.6369 31.334 47.1929 31.64 46.6769 31.856C46.1729 32.06 45.6029 32.162 44.9669 32.162ZM44.9669 30.992C45.5069 30.992 45.9809 30.86 46.3889 30.596C46.7969 30.332 47.1089 29.948 47.3249 29.444C47.5529 28.94 47.6669 28.334 47.6669 27.626C47.6669 26.534 47.4209 25.7 46.9289 25.124C46.4489 24.548 45.7949 24.26 44.9669 24.26C44.4149 24.26 43.9349 24.392 43.5269 24.656C43.1309 24.908 42.8189 25.286 42.5909 25.79C42.3749 26.282 42.2669 26.894 42.2669 27.626C42.2669 28.706 42.5129 29.54 43.0049 30.128C43.4969 30.704 44.1509 30.992 44.9669 30.992ZM54.2848 32.162C53.7448 32.162 53.1988 32.096 52.6468 31.964C52.1068 31.832 51.6028 31.604 51.1348 31.28C51.0148 31.196 50.9308 31.1 50.8828 30.992C50.8348 30.872 50.8168 30.758 50.8288 30.65C50.8528 30.53 50.9008 30.428 50.9728 30.344C51.0568 30.26 51.1528 30.212 51.2608 30.2C51.3808 30.176 51.5128 30.2 51.6568 30.272C52.1248 30.56 52.5748 30.764 53.0068 30.884C53.4508 30.992 53.8888 31.046 54.3208 31.046C55.0048 31.046 55.5208 30.92 55.8688 30.668C56.2168 30.416 56.3908 30.074 56.3908 29.642C56.3908 29.306 56.2768 29.042 56.0488 28.85C55.8208 28.646 55.4608 28.49 54.9688 28.382L53.3308 28.022C52.5748 27.866 52.0108 27.596 51.6388 27.212C51.2788 26.828 51.0988 26.33 51.0988 25.718C51.0988 25.178 51.2368 24.716 51.5128 24.332C51.8008 23.936 52.2028 23.63 52.7188 23.414C53.2348 23.198 53.8348 23.09 54.5188 23.09C55.0468 23.09 55.5448 23.162 56.0128 23.306C56.4928 23.438 56.9248 23.654 57.3088 23.954C57.4288 24.038 57.5068 24.14 57.5428 24.26C57.5908 24.368 57.5968 24.482 57.5608 24.602C57.5368 24.71 57.4828 24.806 57.3988 24.89C57.3148 24.962 57.2128 25.004 57.0928 25.016C56.9728 25.028 56.8468 24.992 56.7148 24.908C56.3548 24.668 55.9888 24.494 55.6168 24.386C55.2448 24.266 54.8788 24.206 54.5188 24.206C53.8468 24.206 53.3368 24.338 52.9888 24.602C52.6408 24.866 52.4668 25.214 52.4668 25.646C52.4668 25.982 52.5748 26.258 52.7908 26.474C53.0068 26.69 53.3428 26.846 53.7988 26.942L55.4368 27.284C56.2168 27.452 56.7988 27.722 57.1828 28.094C57.5788 28.454 57.7768 28.946 57.7768 29.57C57.7768 30.362 57.4588 30.992 56.8228 31.46C56.1868 31.928 55.3408 32.162 54.2848 32.162ZM67.9695 32.162C67.1895 32.162 66.5055 31.976 65.9175 31.604C65.3415 31.232 64.8915 30.71 64.5675 30.038C64.2555 29.354 64.0995 28.55 64.0995 27.626C64.0995 26.69 64.2555 25.886 64.5675 25.214C64.8915 24.53 65.3415 24.008 65.9175 23.648C66.5055 23.276 67.1895 23.09 67.9695 23.09C68.7615 23.09 69.4395 23.288 70.0035 23.684C70.5675 24.08 70.9455 24.614 71.1375 25.286H70.9395V19.922C70.9395 19.682 70.9995 19.502 71.1195 19.382C71.2515 19.25 71.4375 19.184 71.6775 19.184C71.9055 19.184 72.0795 19.25 72.1995 19.382C72.3315 19.502 72.3975 19.682 72.3975 19.922V31.37C72.3975 31.61 72.3375 31.796 72.2175 31.928C72.0975 32.06 71.9175 32.126 71.6775 32.126C71.4495 32.126 71.2695 32.06 71.1375 31.928C71.0175 31.796 70.9575 31.61 70.9575 31.37V29.66L71.1555 29.912C70.9635 30.596 70.5795 31.142 70.0035 31.55C69.4395 31.958 68.7615 32.162 67.9695 32.162ZM68.2755 30.992C68.8155 30.992 69.2895 30.86 69.6975 30.596C70.1055 30.332 70.4175 29.948 70.6335 29.444C70.8615 28.94 70.9755 28.334 70.9755 27.626C70.9755 26.534 70.7295 25.7 70.2375 25.124C69.7575 24.548 69.1035 24.26 68.2755 24.26C67.7235 24.26 67.2435 24.392 66.8355 24.656C66.4395 24.908 66.1275 25.286 65.8995 25.79C65.6835 26.282 65.5755 26.894 65.5755 27.626C65.5755 28.706 65.8215 29.54 66.3135 30.128C66.8055 30.704 67.4595 30.992 68.2755 30.992ZM79.0756 32.162C78.1516 32.162 77.3536 31.982 76.6816 31.622C76.0216 31.25 75.5056 30.728 75.1336 30.056C74.7736 29.384 74.5936 28.58 74.5936 27.644C74.5936 26.732 74.7736 25.94 75.1336 25.268C75.4936 24.584 75.9856 24.05 76.6096 23.666C77.2456 23.282 77.9776 23.09 78.8056 23.09C79.3936 23.09 79.9216 23.192 80.3896 23.396C80.8576 23.588 81.2536 23.87 81.5776 24.242C81.9136 24.614 82.1656 25.064 82.3336 25.592C82.5136 26.12 82.6036 26.714 82.6036 27.374C82.6036 27.566 82.5496 27.71 82.4416 27.806C82.3336 27.89 82.1776 27.932 81.9736 27.932H75.7096V26.978H81.6316L81.3436 27.212C81.3436 26.564 81.2476 26.018 81.0556 25.574C80.8636 25.118 80.5816 24.77 80.2096 24.53C79.8496 24.29 79.3936 24.17 78.8416 24.17C78.2296 24.17 77.7076 24.314 77.2756 24.602C76.8556 24.878 76.5376 25.268 76.3216 25.772C76.1056 26.264 75.9976 26.84 75.9976 27.5V27.608C75.9976 28.712 76.2616 29.552 76.7896 30.128C77.3296 30.704 78.0916 30.992 79.0756 30.992C79.4836 30.992 79.8856 30.938 80.2816 30.83C80.6896 30.722 81.0856 30.542 81.4696 30.29C81.6376 30.182 81.7876 30.134 81.9196 30.146C82.0636 30.146 82.1776 30.188 82.2616 30.272C82.3456 30.344 82.3996 30.44 82.4236 30.56C82.4596 30.668 82.4476 30.788 82.3876 30.92C82.3396 31.052 82.2376 31.166 82.0816 31.262C81.6856 31.55 81.2176 31.772 80.6776 31.928C80.1376 32.084 79.6036 32.162 79.0756 32.162ZM92.8643 32.162C92.1803 32.162 91.6043 32.042 91.1363 31.802C90.6803 31.55 90.3383 31.19 90.1103 30.722C89.8823 30.242 89.7683 29.66 89.7683 28.976V24.386H88.5623C88.3583 24.386 88.2023 24.338 88.0943 24.242C87.9863 24.134 87.9323 23.99 87.9323 23.81C87.9323 23.63 87.9863 23.492 88.0943 23.396C88.2023 23.3 88.3583 23.252 88.5623 23.252H89.7683V21.182C89.7683 20.942 89.8343 20.762 89.9663 20.642C90.0983 20.51 90.2783 20.444 90.5063 20.444C90.7343 20.444 90.9083 20.51 91.0283 20.642C91.1603 20.762 91.2263 20.942 91.2263 21.182V23.252H93.4943C93.6983 23.252 93.8543 23.3 93.9623 23.396C94.0703 23.492 94.1243 23.63 94.1243 23.81C94.1243 23.99 94.0703 24.134 93.9623 24.242C93.8543 24.338 93.6983 24.386 93.4943 24.386H91.2263V28.832C91.2263 29.516 91.3703 30.038 91.6583 30.398C91.9463 30.746 92.4143 30.92 93.0623 30.92C93.2903 30.92 93.4823 30.896 93.6383 30.848C93.8063 30.8 93.9443 30.776 94.0523 30.776C94.1603 30.764 94.2503 30.8 94.3223 30.884C94.3943 30.968 94.4303 31.112 94.4303 31.316C94.4303 31.46 94.4003 31.592 94.3403 31.712C94.2923 31.832 94.2023 31.916 94.0703 31.964C93.9263 32.012 93.7343 32.054 93.4943 32.09C93.2663 32.138 93.0563 32.162 92.8643 32.162ZM96.3853 32.126C96.1453 32.126 95.9593 32.06 95.8273 31.928C95.7073 31.796 95.6473 31.61 95.6473 31.37V23.864C95.6473 23.624 95.7073 23.444 95.8273 23.324C95.9473 23.192 96.1213 23.126 96.3493 23.126C96.5773 23.126 96.7513 23.192 96.8713 23.324C97.0033 23.444 97.0693 23.624 97.0693 23.864V25.322H96.8893C97.0813 24.614 97.4473 24.068 97.9873 23.684C98.5273 23.3 99.1933 23.096 99.9853 23.072C100.165 23.06 100.309 23.102 100.417 23.198C100.525 23.282 100.585 23.432 100.597 23.648C100.609 23.852 100.561 24.014 100.453 24.134C100.345 24.254 100.177 24.326 99.9493 24.35L99.6613 24.386C98.8453 24.458 98.2153 24.722 97.7713 25.178C97.3393 25.622 97.1233 26.234 97.1233 27.014V31.37C97.1233 31.61 97.0573 31.796 96.9253 31.928C96.8053 32.06 96.6253 32.126 96.3853 32.126ZM104.765 32.162C104.165 32.162 103.625 32.048 103.145 31.82C102.677 31.58 102.305 31.256 102.029 30.848C101.753 30.44 101.615 29.984 101.615 29.48C101.615 28.832 101.777 28.322 102.101 27.95C102.437 27.578 102.983 27.314 103.739 27.158C104.507 27.002 105.551 26.924 106.871 26.924H107.681V27.878H106.889C105.917 27.878 105.149 27.926 104.585 28.022C104.033 28.106 103.643 28.256 103.415 28.472C103.199 28.688 103.091 28.994 103.091 29.39C103.091 29.882 103.259 30.284 103.595 30.596C103.943 30.908 104.411 31.064 104.999 31.064C105.479 31.064 105.899 30.95 106.259 30.722C106.631 30.494 106.919 30.182 107.123 29.786C107.339 29.39 107.447 28.934 107.447 28.418V26.366C107.447 25.622 107.297 25.088 106.997 24.764C106.697 24.428 106.205 24.26 105.521 24.26C105.101 24.26 104.681 24.314 104.261 24.422C103.841 24.53 103.397 24.704 102.929 24.944C102.761 25.028 102.617 25.058 102.497 25.034C102.377 24.998 102.281 24.932 102.209 24.836C102.137 24.74 102.095 24.632 102.083 24.512C102.071 24.38 102.095 24.254 102.155 24.134C102.227 24.014 102.335 23.918 102.479 23.846C103.007 23.582 103.529 23.39 104.045 23.27C104.561 23.15 105.053 23.09 105.521 23.09C106.277 23.09 106.901 23.216 107.393 23.468C107.885 23.708 108.251 24.08 108.491 24.584C108.731 25.076 108.851 25.712 108.851 26.492V31.37C108.851 31.61 108.791 31.796 108.671 31.928C108.563 32.06 108.401 32.126 108.185 32.126C107.957 32.126 107.783 32.06 107.663 31.928C107.543 31.796 107.483 31.61 107.483 31.37V29.966H107.645C107.549 30.422 107.363 30.812 107.087 31.136C106.823 31.46 106.493 31.712 106.097 31.892C105.701 32.072 105.257 32.162 104.765 32.162ZM115.984 32.162C115.192 32.162 114.508 31.958 113.932 31.55C113.368 31.142 112.99 30.596 112.798 29.912L112.996 29.714V31.37C112.996 31.61 112.93 31.796 112.798 31.928C112.678 32.06 112.504 32.126 112.276 32.126C112.036 32.126 111.856 32.06 111.736 31.928C111.616 31.796 111.556 31.61 111.556 31.37V19.922C111.556 19.682 111.616 19.502 111.736 19.382C111.856 19.25 112.036 19.184 112.276 19.184C112.504 19.184 112.684 19.25 112.816 19.382C112.948 19.502 113.014 19.682 113.014 19.922V25.286H112.798C113.002 24.614 113.386 24.08 113.95 23.684C114.514 23.288 115.192 23.09 115.984 23.09C116.776 23.09 117.46 23.276 118.036 23.648C118.612 24.008 119.056 24.53 119.368 25.214C119.692 25.886 119.854 26.69 119.854 27.626C119.854 28.55 119.692 29.354 119.368 30.038C119.056 30.71 118.606 31.232 118.018 31.604C117.442 31.976 116.764 32.162 115.984 32.162ZM115.678 30.992C116.23 30.992 116.704 30.86 117.1 30.596C117.508 30.332 117.82 29.948 118.036 29.444C118.264 28.94 118.378 28.334 118.378 27.626C118.378 26.534 118.132 25.7 117.64 25.124C117.16 24.548 116.506 24.26 115.678 24.26C115.138 24.26 114.664 24.392 114.256 24.656C113.848 24.908 113.53 25.286 113.302 25.79C113.086 26.282 112.978 26.894 112.978 27.626C112.978 28.706 113.224 29.54 113.716 30.128C114.208 30.704 114.862 30.992 115.678 30.992ZM124.804 32.162C124.204 32.162 123.664 32.048 123.184 31.82C122.716 31.58 122.344 31.256 122.068 30.848C121.792 30.44 121.654 29.984 121.654 29.48C121.654 28.832 121.816 28.322 122.14 27.95C122.476 27.578 123.022 27.314 123.778 27.158C124.546 27.002 125.59 26.924 126.91 26.924H127.72V27.878H126.928C125.956 27.878 125.188 27.926 124.624 28.022C124.072 28.106 123.682 28.256 123.454 28.472C123.238 28.688 123.13 28.994 123.13 29.39C123.13 29.882 123.298 30.284 123.634 30.596C123.982 30.908 124.45 31.064 125.038 31.064C125.518 31.064 125.938 30.95 126.298 30.722C126.67 30.494 126.958 30.182 127.162 29.786C127.378 29.39 127.486 28.934 127.486 28.418V26.366C127.486 25.622 127.336 25.088 127.036 24.764C126.736 24.428 126.244 24.26 125.56 24.26C125.14 24.26 124.72 24.314 124.3 24.422C123.88 24.53 123.436 24.704 122.968 24.944C122.8 25.028 122.656 25.058 122.536 25.034C122.416 24.998 122.32 24.932 122.248 24.836C122.176 24.74 122.134 24.632 122.122 24.512C122.11 24.38 122.134 24.254 122.194 24.134C122.266 24.014 122.374 23.918 122.518 23.846C123.046 23.582 123.568 23.39 124.084 23.27C124.6 23.15 125.092 23.09 125.56 23.09C126.316 23.09 126.94 23.216 127.432 23.468C127.924 23.708 128.29 24.08 128.53 24.584C128.77 25.076 128.89 25.712 128.89 26.492V31.37C128.89 31.61 128.83 31.796 128.71 31.928C128.602 32.06 128.44 32.126 128.224 32.126C127.996 32.126 127.822 32.06 127.702 31.928C127.582 31.796 127.522 31.61 127.522 31.37V29.966H127.684C127.588 30.422 127.402 30.812 127.126 31.136C126.862 31.46 126.532 31.712 126.136 31.892C125.74 32.072 125.296 32.162 124.804 32.162ZM129.921 35.438C129.741 35.45 129.597 35.42 129.489 35.348C129.369 35.276 129.291 35.18 129.255 35.06C129.207 34.952 129.195 34.838 129.219 34.718C129.231 34.61 129.279 34.514 129.363 34.43C129.447 34.346 129.561 34.304 129.705 34.304C130.365 34.268 130.851 34.088 131.163 33.764C131.487 33.452 131.649 32.954 131.649 32.27V23.864C131.649 23.624 131.709 23.444 131.829 23.324C131.961 23.192 132.147 23.126 132.387 23.126C132.615 23.126 132.789 23.192 132.909 23.324C133.041 23.444 133.107 23.624 133.107 23.864V32.162C133.107 32.894 132.981 33.494 132.729 33.962C132.489 34.442 132.135 34.796 131.667 35.024C131.199 35.264 130.617 35.402 129.921 35.438ZM132.369 21.146C132.069 21.146 131.835 21.068 131.667 20.912C131.499 20.744 131.415 20.522 131.415 20.246C131.415 19.958 131.499 19.742 131.667 19.598C131.835 19.442 132.069 19.364 132.369 19.364C132.681 19.364 132.921 19.442 133.089 19.598C133.257 19.742 133.341 19.958 133.341 20.246C133.341 20.522 133.257 20.744 133.089 20.912C132.921 21.068 132.681 21.146 132.369 21.146ZM139.484 32.162C138.632 32.162 137.894 31.976 137.27 31.604C136.646 31.232 136.16 30.71 135.812 30.038C135.476 29.354 135.308 28.55 135.308 27.626C135.308 26.93 135.404 26.306 135.596 25.754C135.788 25.19 136.07 24.71 136.442 24.314C136.814 23.918 137.252 23.618 137.756 23.414C138.272 23.198 138.848 23.09 139.484 23.09C140.336 23.09 141.074 23.276 141.698 23.648C142.322 24.02 142.802 24.548 143.138 25.232C143.486 25.904 143.66 26.702 143.66 27.626C143.66 28.322 143.564 28.946 143.372 29.498C143.18 30.05 142.898 30.53 142.526 30.938C142.154 31.334 141.71 31.64 141.194 31.856C140.69 32.06 140.12 32.162 139.484 32.162ZM139.484 30.992C140.024 30.992 140.498 30.86 140.906 30.596C141.314 30.332 141.626 29.948 141.842 29.444C142.07 28.94 142.184 28.334 142.184 27.626C142.184 26.534 141.938 25.7 141.446 25.124C140.966 24.548 140.312 24.26 139.484 24.26C138.932 24.26 138.452 24.392 138.044 24.656C137.648 24.908 137.336 25.286 137.108 25.79C136.892 26.282 136.784 26.894 136.784 27.626C136.784 28.706 137.03 29.54 137.522 30.128C138.014 30.704 138.668 30.992 139.484 30.992ZM148.802 32.162C148.262 32.162 147.716 32.096 147.164 31.964C146.624 31.832 146.12 31.604 145.652 31.28C145.532 31.196 145.448 31.1 145.4 30.992C145.352 30.872 145.334 30.758 145.346 30.65C145.37 30.53 145.418 30.428 145.49 30.344C145.574 30.26 145.67 30.212 145.778 30.2C145.898 30.176 146.03 30.2 146.174 30.272C146.642 30.56 147.092 30.764 147.524 30.884C147.968 30.992 148.406 31.046 148.838 31.046C149.522 31.046 150.038 30.92 150.386 30.668C150.734 30.416 150.908 30.074 150.908 29.642C150.908 29.306 150.794 29.042 150.566 28.85C150.338 28.646 149.978 28.49 149.486 28.382L147.848 28.022C147.092 27.866 146.528 27.596 146.156 27.212C145.796 26.828 145.616 26.33 145.616 25.718C145.616 25.178 145.754 24.716 146.03 24.332C146.318 23.936 146.72 23.63 147.236 23.414C147.752 23.198 148.352 23.09 149.036 23.09C149.564 23.09 150.062 23.162 150.53 23.306C151.01 23.438 151.442 23.654 151.826 23.954C151.946 24.038 152.024 24.14 152.06 24.26C152.108 24.368 152.114 24.482 152.078 24.602C152.054 24.71 152 24.806 151.916 24.89C151.832 24.962 151.73 25.004 151.61 25.016C151.49 25.028 151.364 24.992 151.232 24.908C150.872 24.668 150.506 24.494 150.134 24.386C149.762 24.266 149.396 24.206 149.036 24.206C148.364 24.206 147.854 24.338 147.506 24.602C147.158 24.866 146.984 25.214 146.984 25.646C146.984 25.982 147.092 26.258 147.308 26.474C147.524 26.69 147.86 26.846 148.316 26.942L149.954 27.284C150.734 27.452 151.316 27.722 151.7 28.094C152.096 28.454 152.294 28.946 152.294 29.57C152.294 30.362 151.976 30.992 151.34 31.46C150.704 31.928 149.858 32.162 148.802 32.162ZM162.109 32.162C161.569 32.162 161.023 32.096 160.471 31.964C159.931 31.832 159.427 31.604 158.959 31.28C158.839 31.196 158.755 31.1 158.707 30.992C158.659 30.872 158.641 30.758 158.653 30.65C158.677 30.53 158.725 30.428 158.797 30.344C158.881 30.26 158.977 30.212 159.085 30.2C159.205 30.176 159.337 30.2 159.481 30.272C159.949 30.56 160.399 30.764 160.831 30.884C161.275 30.992 161.713 31.046 162.145 31.046C162.829 31.046 163.345 30.92 163.693 30.668C164.041 30.416 164.215 30.074 164.215 29.642C164.215 29.306 164.101 29.042 163.873 28.85C163.645 28.646 163.285 28.49 162.793 28.382L161.155 28.022C160.399 27.866 159.835 27.596 159.463 27.212C159.103 26.828 158.923 26.33 158.923 25.718C158.923 25.178 159.061 24.716 159.337 24.332C159.625 23.936 160.027 23.63 160.543 23.414C161.059 23.198 161.659 23.09 162.343 23.09C162.871 23.09 163.369 23.162 163.837 23.306C164.317 23.438 164.749 23.654 165.133 23.954C165.253 24.038 165.331 24.14 165.367 24.26C165.415 24.368 165.421 24.482 165.385 24.602C165.361 24.71 165.307 24.806 165.223 24.89C165.139 24.962 165.037 25.004 164.917 25.016C164.797 25.028 164.671 24.992 164.539 24.908C164.179 24.668 163.813 24.494 163.441 24.386C163.069 24.266 162.703 24.206 162.343 24.206C161.671 24.206 161.161 24.338 160.813 24.602C160.465 24.866 160.291 25.214 160.291 25.646C160.291 25.982 160.399 26.258 160.615 26.474C160.831 26.69 161.167 26.846 161.623 26.942L163.261 27.284C164.041 27.452 164.623 27.722 165.007 28.094C165.403 28.454 165.601 28.946 165.601 29.57C165.601 30.362 165.283 30.992 164.647 31.46C164.011 31.928 163.165 32.162 162.109 32.162ZM171.765 32.162C170.841 32.162 170.043 31.982 169.371 31.622C168.711 31.25 168.195 30.728 167.823 30.056C167.463 29.384 167.283 28.58 167.283 27.644C167.283 26.732 167.463 25.94 167.823 25.268C168.183 24.584 168.675 24.05 169.299 23.666C169.935 23.282 170.667 23.09 171.495 23.09C172.083 23.09 172.611 23.192 173.079 23.396C173.547 23.588 173.943 23.87 174.267 24.242C174.603 24.614 174.855 25.064 175.023 25.592C175.203 26.12 175.293 26.714 175.293 27.374C175.293 27.566 175.239 27.71 175.131 27.806C175.023 27.89 174.867 27.932 174.663 27.932H168.399V26.978H174.321L174.033 27.212C174.033 26.564 173.937 26.018 173.745 25.574C173.553 25.118 173.271 24.77 172.899 24.53C172.539 24.29 172.083 24.17 171.531 24.17C170.919 24.17 170.397 24.314 169.965 24.602C169.545 24.878 169.227 25.268 169.011 25.772C168.795 26.264 168.687 26.84 168.687 27.5V27.608C168.687 28.712 168.951 29.552 169.479 30.128C170.019 30.704 170.781 30.992 171.765 30.992C172.173 30.992 172.575 30.938 172.971 30.83C173.379 30.722 173.775 30.542 174.159 30.29C174.327 30.182 174.477 30.134 174.609 30.146C174.753 30.146 174.867 30.188 174.951 30.272C175.035 30.344 175.089 30.44 175.113 30.56C175.149 30.668 175.137 30.788 175.077 30.92C175.029 31.052 174.927 31.166 174.771 31.262C174.375 31.55 173.907 31.772 173.367 31.928C172.827 32.084 172.293 32.162 171.765 32.162ZM181.273 35.402C180.637 35.402 180.013 35.324 179.401 35.168C178.801 35.024 178.255 34.79 177.763 34.466C177.619 34.382 177.523 34.28 177.475 34.16C177.439 34.04 177.433 33.92 177.457 33.8C177.481 33.692 177.535 33.59 177.619 33.494C177.703 33.41 177.799 33.356 177.907 33.332C178.027 33.308 178.147 33.326 178.267 33.386C178.795 33.71 179.299 33.932 179.779 34.052C180.259 34.172 180.733 34.232 181.201 34.232C182.053 34.232 182.695 34.004 183.127 33.548C183.571 33.092 183.793 32.432 183.793 31.568V29.534H183.973C183.793 30.23 183.409 30.782 182.821 31.19C182.245 31.598 181.567 31.802 180.787 31.802C179.983 31.802 179.287 31.622 178.699 31.262C178.111 30.89 177.655 30.374 177.331 29.714C177.019 29.054 176.863 28.292 176.863 27.428C176.863 26.78 176.953 26.192 177.133 25.664C177.313 25.124 177.571 24.668 177.907 24.296C178.255 23.912 178.669 23.618 179.149 23.414C179.641 23.198 180.187 23.09 180.787 23.09C181.579 23.09 182.263 23.294 182.839 23.702C183.415 24.098 183.787 24.638 183.955 25.322L183.775 25.538V23.864C183.775 23.624 183.835 23.444 183.955 23.324C184.087 23.192 184.267 23.126 184.495 23.126C184.735 23.126 184.915 23.192 185.035 23.324C185.155 23.444 185.215 23.624 185.215 23.864V31.37C185.215 32.702 184.879 33.704 184.207 34.376C183.547 35.06 182.569 35.402 181.273 35.402ZM181.057 30.614C181.621 30.614 182.107 30.488 182.515 30.236C182.923 29.972 183.235 29.6 183.451 29.12C183.679 28.64 183.793 28.076 183.793 27.428C183.793 26.456 183.547 25.688 183.055 25.124C182.563 24.548 181.897 24.26 181.057 24.26C180.505 24.26 180.025 24.392 179.617 24.656C179.209 24.908 178.891 25.274 178.663 25.754C178.447 26.222 178.339 26.78 178.339 27.428C178.339 28.4 178.585 29.174 179.077 29.75C179.569 30.326 180.229 30.614 181.057 30.614ZM191.046 32.162C190.338 32.162 189.75 32.036 189.282 31.784C188.826 31.52 188.478 31.13 188.238 30.614C188.01 30.098 187.896 29.456 187.896 28.688V23.864C187.896 23.612 187.956 23.426 188.076 23.306C188.208 23.186 188.388 23.126 188.616 23.126C188.856 23.126 189.036 23.186 189.156 23.306C189.288 23.426 189.354 23.612 189.354 23.864V28.67C189.354 29.438 189.51 30.014 189.822 30.398C190.146 30.77 190.65 30.956 191.334 30.956C192.078 30.956 192.684 30.704 193.152 30.2C193.62 29.696 193.854 29.036 193.854 28.22V23.864C193.854 23.612 193.914 23.426 194.034 23.306C194.166 23.186 194.352 23.126 194.592 23.126C194.82 23.126 194.994 23.186 195.114 23.306C195.246 23.426 195.312 23.612 195.312 23.864V31.37C195.312 31.874 195.078 32.126 194.61 32.126C194.382 32.126 194.202 32.06 194.07 31.928C193.95 31.796 193.89 31.61 193.89 31.37V29.732L194.124 29.984C193.884 30.692 193.488 31.232 192.936 31.604C192.396 31.976 191.766 32.162 191.046 32.162ZM192.234 21.974C192.15 22.094 192.048 22.166 191.928 22.19C191.808 22.202 191.694 22.184 191.586 22.136C191.478 22.076 191.4 21.992 191.352 21.884C191.304 21.776 191.316 21.65 191.388 21.506L192.9 18.572C192.984 18.404 193.092 18.296 193.224 18.248C193.356 18.2 193.488 18.194 193.62 18.23C193.764 18.254 193.884 18.314 193.98 18.41C194.076 18.506 194.13 18.62 194.142 18.752C194.166 18.884 194.13 19.022 194.034 19.166L192.234 21.974ZM198.76 32.126C198.52 32.126 198.34 32.06 198.22 31.928C198.1 31.796 198.04 31.61 198.04 31.37V23.864C198.04 23.624 198.1 23.444 198.22 23.324C198.34 23.192 198.514 23.126 198.742 23.126C198.97 23.126 199.144 23.192 199.264 23.324C199.396 23.444 199.462 23.624 199.462 23.864V25.412L199.264 25.196C199.516 24.5 199.924 23.978 200.488 23.63C201.064 23.27 201.724 23.09 202.468 23.09C203.164 23.09 203.74 23.216 204.196 23.468C204.664 23.72 205.012 24.104 205.24 24.62C205.468 25.124 205.582 25.766 205.582 26.546V31.37C205.582 31.61 205.516 31.796 205.384 31.928C205.264 32.06 205.09 32.126 204.862 32.126C204.622 32.126 204.436 32.06 204.304 31.928C204.184 31.796 204.124 31.61 204.124 31.37V26.636C204.124 25.82 203.962 25.226 203.638 24.854C203.326 24.47 202.822 24.278 202.126 24.278C201.322 24.278 200.68 24.53 200.2 25.034C199.732 25.526 199.498 26.186 199.498 27.014V31.37C199.498 31.874 199.252 32.126 198.76 32.126ZM216.421 32.162C215.737 32.162 215.161 32.042 214.693 31.802C214.237 31.55 213.895 31.19 213.667 30.722C213.439 30.242 213.325 29.66 213.325 28.976V24.386H212.119C211.915 24.386 211.759 24.338 211.651 24.242C211.543 24.134 211.489 23.99 211.489 23.81C211.489 23.63 211.543 23.492 211.651 23.396C211.759 23.3 211.915 23.252 212.119 23.252H213.325V21.182C213.325 20.942 213.391 20.762 213.523 20.642C213.655 20.51 213.835 20.444 214.063 20.444C214.291 20.444 214.465 20.51 214.585 20.642C214.717 20.762 214.783 20.942 214.783 21.182V23.252H217.051C217.255 23.252 217.411 23.3 217.519 23.396C217.627 23.492 217.681 23.63 217.681 23.81C217.681 23.99 217.627 24.134 217.519 24.242C217.411 24.338 217.255 24.386 217.051 24.386H214.783V28.832C214.783 29.516 214.927 30.038 215.215 30.398C215.503 30.746 215.971 30.92 216.619 30.92C216.847 30.92 217.039 30.896 217.195 30.848C217.363 30.8 217.501 30.776 217.609 30.776C217.717 30.764 217.807 30.8 217.879 30.884C217.951 30.968 217.987 31.112 217.987 31.316C217.987 31.46 217.957 31.592 217.897 31.712C217.849 31.832 217.759 31.916 217.627 31.964C217.483 32.012 217.291 32.054 217.051 32.09C216.823 32.138 216.613 32.162 216.421 32.162ZM222.3 32.162C221.592 32.162 221.004 32.036 220.536 31.784C220.08 31.52 219.732 31.13 219.492 30.614C219.264 30.098 219.15 29.456 219.15 28.688V23.864C219.15 23.612 219.21 23.426 219.33 23.306C219.462 23.186 219.642 23.126 219.87 23.126C220.11 23.126 220.29 23.186 220.41 23.306C220.542 23.426 220.608 23.612 220.608 23.864V28.67C220.608 29.438 220.764 30.014 221.076 30.398C221.4 30.77 221.904 30.956 222.588 30.956C223.332 30.956 223.938 30.704 224.406 30.2C224.874 29.696 225.108 29.036 225.108 28.22V23.864C225.108 23.612 225.168 23.426 225.288 23.306C225.42 23.186 225.606 23.126 225.846 23.126C226.074 23.126 226.248 23.186 226.368 23.306C226.5 23.426 226.566 23.612 226.566 23.864V31.37C226.566 31.874 226.332 32.126 225.864 32.126C225.636 32.126 225.456 32.06 225.324 31.928C225.204 31.796 225.144 31.61 225.144 31.37V29.732L225.378 29.984C225.138 30.692 224.742 31.232 224.19 31.604C223.65 31.976 223.02 32.162 222.3 32.162ZM232.246 32.162C231.706 32.162 231.16 32.096 230.608 31.964C230.068 31.832 229.564 31.604 229.096 31.28C228.976 31.196 228.892 31.1 228.844 30.992C228.796 30.872 228.778 30.758 228.79 30.65C228.814 30.53 228.862 30.428 228.934 30.344C229.018 30.26 229.114 30.212 229.222 30.2C229.342 30.176 229.474 30.2 229.618 30.272C230.086 30.56 230.536 30.764 230.968 30.884C231.412 30.992 231.85 31.046 232.282 31.046C232.966 31.046 233.482 30.92 233.83 30.668C234.178 30.416 234.352 30.074 234.352 29.642C234.352 29.306 234.238 29.042 234.01 28.85C233.782 28.646 233.422 28.49 232.93 28.382L231.292 28.022C230.536 27.866 229.972 27.596 229.6 27.212C229.24 26.828 229.06 26.33 229.06 25.718C229.06 25.178 229.198 24.716 229.474 24.332C229.762 23.936 230.164 23.63 230.68 23.414C231.196 23.198 231.796 23.09 232.48 23.09C233.008 23.09 233.506 23.162 233.974 23.306C234.454 23.438 234.886 23.654 235.27 23.954C235.39 24.038 235.468 24.14 235.504 24.26C235.552 24.368 235.558 24.482 235.522 24.602C235.498 24.71 235.444 24.806 235.36 24.89C235.276 24.962 235.174 25.004 235.054 25.016C234.934 25.028 234.808 24.992 234.676 24.908C234.316 24.668 233.95 24.494 233.578 24.386C233.206 24.266 232.84 24.206 232.48 24.206C231.808 24.206 231.298 24.338 230.95 24.602C230.602 24.866 230.428 25.214 230.428 25.646C230.428 25.982 230.536 26.258 230.752 26.474C230.968 26.69 231.304 26.846 231.76 26.942L233.398 27.284C234.178 27.452 234.76 27.722 235.144 28.094C235.54 28.454 235.738 28.946 235.738 29.57C235.738 30.362 235.42 30.992 234.784 31.46C234.148 31.928 233.302 32.162 232.246 32.162ZM243.32 35.366C243.08 35.366 242.9 35.3 242.78 35.168C242.66 35.048 242.6 34.868 242.6 34.628V23.864C242.6 23.624 242.66 23.444 242.78 23.324C242.9 23.192 243.074 23.126 243.302 23.126C243.542 23.126 243.722 23.192 243.842 23.324C243.974 23.444 244.04 23.624 244.04 23.864V25.574L243.842 25.322C244.034 24.638 244.412 24.098 244.976 23.702C245.552 23.294 246.236 23.09 247.028 23.09C247.808 23.09 248.486 23.276 249.062 23.648C249.65 24.008 250.1 24.53 250.412 25.214C250.736 25.886 250.898 26.69 250.898 27.626C250.898 28.55 250.736 29.354 250.412 30.038C250.1 30.71 249.656 31.232 249.08 31.604C248.504 31.976 247.82 32.162 247.028 32.162C246.236 32.162 245.558 31.964 244.994 31.568C244.43 31.16 244.046 30.62 243.842 29.948H244.058V34.628C244.058 34.868 243.992 35.048 243.86 35.168C243.728 35.3 243.548 35.366 243.32 35.366ZM246.722 30.992C247.274 30.992 247.748 30.86 248.144 30.596C248.552 30.332 248.864 29.948 249.08 29.444C249.308 28.94 249.422 28.334 249.422 27.626C249.422 26.534 249.176 25.7 248.684 25.124C248.204 24.548 247.55 24.26 246.722 24.26C246.182 24.26 245.708 24.392 245.3 24.656C244.892 24.908 244.574 25.286 244.346 25.79C244.13 26.282 244.022 26.894 244.022 27.626C244.022 28.706 244.268 29.54 244.76 30.128C245.252 30.704 245.906 30.992 246.722 30.992ZM253.833 32.126C253.593 32.126 253.407 32.06 253.275 31.928C253.155 31.796 253.095 31.61 253.095 31.37V23.864C253.095 23.624 253.155 23.444 253.275 23.324C253.395 23.192 253.569 23.126 253.797 23.126C254.025 23.126 254.199 23.192 254.319 23.324C254.451 23.444 254.517 23.624 254.517 23.864V25.322H254.337C254.529 24.614 254.895 24.068 255.435 23.684C255.975 23.3 256.641 23.096 257.433 23.072C257.613 23.06 257.757 23.102 257.865 23.198C257.973 23.282 258.033 23.432 258.045 23.648C258.057 23.852 258.009 24.014 257.901 24.134C257.793 24.254 257.625 24.326 257.397 24.35L257.109 24.386C256.293 24.458 255.663 24.722 255.219 25.178C254.787 25.622 254.571 26.234 254.571 27.014V31.37C254.571 31.61 254.505 31.796 254.373 31.928C254.253 32.06 254.073 32.126 253.833 32.126ZM263.382 32.162C262.458 32.162 261.66 31.982 260.988 31.622C260.328 31.25 259.812 30.728 259.44 30.056C259.08 29.384 258.9 28.58 258.9 27.644C258.9 26.732 259.08 25.94 259.44 25.268C259.8 24.584 260.292 24.05 260.916 23.666C261.552 23.282 262.284 23.09 263.112 23.09C263.7 23.09 264.228 23.192 264.696 23.396C265.164 23.588 265.56 23.87 265.884 24.242C266.22 24.614 266.472 25.064 266.64 25.592C266.82 26.12 266.91 26.714 266.91 27.374C266.91 27.566 266.856 27.71 266.748 27.806C266.64 27.89 266.484 27.932 266.28 27.932H260.016V26.978H265.938L265.65 27.212C265.65 26.564 265.554 26.018 265.362 25.574C265.17 25.118 264.888 24.77 264.516 24.53C264.156 24.29 263.7 24.17 263.148 24.17C262.536 24.17 262.014 24.314 261.582 24.602C261.162 24.878 260.844 25.268 260.628 25.772C260.412 26.264 260.304 26.84 260.304 27.5V27.608C260.304 28.712 260.568 29.552 261.096 30.128C261.636 30.704 262.398 30.992 263.382 30.992C263.79 30.992 264.192 30.938 264.588 30.83C264.996 30.722 265.392 30.542 265.776 30.29C265.944 30.182 266.094 30.134 266.226 30.146C266.37 30.146 266.484 30.188 266.568 30.272C266.652 30.344 266.706 30.44 266.73 30.56C266.766 30.668 266.754 30.788 266.694 30.92C266.646 31.052 266.544 31.166 266.388 31.262C265.992 31.55 265.524 31.772 264.984 31.928C264.444 32.084 263.91 32.162 263.382 32.162ZM270.208 32.126C269.98 32.126 269.8 32.06 269.668 31.928C269.548 31.796 269.488 31.61 269.488 31.37V24.386H268.336C268.144 24.386 267.988 24.338 267.868 24.242C267.76 24.134 267.706 23.99 267.706 23.81C267.706 23.63 267.76 23.492 267.868 23.396C267.988 23.3 268.144 23.252 268.336 23.252H269.884L269.488 23.63V22.946C269.488 21.806 269.764 20.936 270.316 20.336C270.88 19.736 271.702 19.388 272.782 19.292L273.304 19.238C273.472 19.226 273.604 19.256 273.7 19.328C273.808 19.4 273.874 19.49 273.898 19.598C273.934 19.706 273.94 19.82 273.916 19.94C273.892 20.048 273.838 20.144 273.754 20.228C273.67 20.312 273.568 20.36 273.448 20.372L273.034 20.408C272.302 20.468 271.768 20.69 271.432 21.074C271.108 21.458 270.946 22.022 270.946 22.766V23.522L270.73 23.252H272.89C273.094 23.252 273.25 23.3 273.358 23.396C273.466 23.492 273.52 23.63 273.52 23.81C273.52 23.99 273.466 24.134 273.358 24.242C273.25 24.338 273.094 24.386 272.89 24.386H270.946V31.37C270.946 31.874 270.7 32.126 270.208 32.126ZM278.71 32.162C277.786 32.162 276.988 31.982 276.316 31.622C275.656 31.25 275.14 30.728 274.768 30.056C274.408 29.384 274.228 28.58 274.228 27.644C274.228 26.732 274.408 25.94 274.768 25.268C275.128 24.584 275.62 24.05 276.244 23.666C276.88 23.282 277.612 23.09 278.44 23.09C279.028 23.09 279.556 23.192 280.024 23.396C280.492 23.588 280.888 23.87 281.212 24.242C281.548 24.614 281.8 25.064 281.968 25.592C282.148 26.12 282.238 26.714 282.238 27.374C282.238 27.566 282.184 27.71 282.076 27.806C281.968 27.89 281.812 27.932 281.608 27.932H275.344V26.978H281.266L280.978 27.212C280.978 26.564 280.882 26.018 280.69 25.574C280.498 25.118 280.216 24.77 279.844 24.53C279.484 24.29 279.028 24.17 278.476 24.17C277.864 24.17 277.342 24.314 276.91 24.602C276.49 24.878 276.172 25.268 275.956 25.772C275.74 26.264 275.632 26.84 275.632 27.5V27.608C275.632 28.712 275.896 29.552 276.424 30.128C276.964 30.704 277.726 30.992 278.71 30.992C279.118 30.992 279.52 30.938 279.916 30.83C280.324 30.722 280.72 30.542 281.104 30.29C281.272 30.182 281.422 30.134 281.554 30.146C281.698 30.146 281.812 30.188 281.896 30.272C281.98 30.344 282.034 30.44 282.058 30.56C282.094 30.668 282.082 30.788 282.022 30.92C281.974 31.052 281.872 31.166 281.716 31.262C281.32 31.55 280.852 31.772 280.312 31.928C279.772 32.084 279.238 32.162 278.71 32.162ZM285.086 32.126C284.846 32.126 284.66 32.06 284.528 31.928C284.408 31.796 284.348 31.61 284.348 31.37V23.864C284.348 23.624 284.408 23.444 284.528 23.324C284.648 23.192 284.822 23.126 285.05 23.126C285.278 23.126 285.452 23.192 285.572 23.324C285.704 23.444 285.77 23.624 285.77 23.864V25.322H285.59C285.782 24.614 286.148 24.068 286.688 23.684C287.228 23.3 287.894 23.096 288.686 23.072C288.866 23.06 289.01 23.102 289.118 23.198C289.226 23.282 289.286 23.432 289.298 23.648C289.31 23.852 289.262 24.014 289.154 24.134C289.046 24.254 288.878 24.326 288.65 24.35L288.362 24.386C287.546 24.458 286.916 24.722 286.472 25.178C286.04 25.622 285.824 26.234 285.824 27.014V31.37C285.824 31.61 285.758 31.796 285.626 31.928C285.506 32.06 285.326 32.126 285.086 32.126ZM295.518 32.072C295.218 32.072 294.978 31.982 294.798 31.802C294.618 31.61 294.528 31.37 294.528 31.082C294.528 30.794 294.618 30.56 294.798 30.38C294.978 30.188 295.218 30.092 295.518 30.092C295.818 30.092 296.052 30.188 296.22 30.38C296.4 30.56 296.49 30.794 296.49 31.082C296.49 31.37 296.4 31.61 296.22 31.802C296.052 31.982 295.818 32.072 295.518 32.072ZM299.64 32.072C299.34 32.072 299.1 31.982 298.92 31.802C298.74 31.61 298.65 31.37 298.65 31.082C298.65 30.794 298.74 30.56 298.92 30.38C299.1 30.188 299.34 30.092 299.64 30.092C299.94 30.092 300.174 30.188 300.342 30.38C300.522 30.56 300.612 30.794 300.612 31.082C300.612 31.37 300.522 31.61 300.342 31.802C300.174 31.982 299.94 32.072 299.64 32.072ZM291.396 32.072C291.096 32.072 290.856 31.982 290.676 31.802C290.496 31.61 290.406 31.37 290.406 31.082C290.406 30.794 290.496 30.56 290.676 30.38C290.856 30.188 291.096 30.092 291.396 30.092C291.696 30.092 291.93 30.188 292.098 30.38C292.278 30.56 292.368 30.794 292.368 31.082C292.368 31.37 292.278 31.61 292.098 31.802C291.93 31.982 291.696 32.072 291.396 32.072Z" fill="#38485C"/>
<g clip-path="url(#clip0_3937_9333)">
<path d="M314.12 23.2901L318 27.1701L321.88 23.2901C322.27 22.9001 322.9 22.9001 323.29 23.2901C323.68 23.6801 323.68 24.3101 323.29 24.7001L318.7 29.2901C318.31 29.6801 317.68 29.6801 317.29 29.2901L312.7 24.7001C312.31 24.3101 312.31 23.6801 312.7 23.2901C313.09 22.9101 313.73 22.9001 314.12 23.2901Z" fill="#38485C"/>
</g>
<rect x="1" y="1" width="342" height="50" rx="9" stroke="#E6EBF0" stroke-width="2"/>
<defs>
<clipPath id="clip0_3937_9333">
<rect width="24" height="24" fill="white" transform="translate(306 14)"/>
</clipPath>
</defs>
</svg>
