<?xml version="1.0" encoding="utf-8"?>
<!-- Generator: Adobe Illustrator 25.0.0, SVG Export Plug-In . SVG Version: 6.00 Build 0)  -->
<svg version="1.1" xmlns="http://www.w3.org/2000/svg" xmlns:xlink="http://www.w3.org/1999/xlink" x="0px" y="0px"
	 viewBox="0 0 298.47 293.14" style="enable-background:new 0 0 298.47 293.14;" xml:space="preserve">
<style type="text/css">
	.st0{fill:#383838;}
	.st1{fill:#38485C;}
	.st2{fill:#FFFFFF;}
	.st3{fill:none;stroke:#383838;stroke-miterlimit:10;}
	.st4{fill:none;stroke:#383838;stroke-width:3;stroke-miterlimit:10;}
	.st5{fill:#FFFFFF;stroke:#383838;stroke-miterlimit:10;}
</style>
<g id="Capa_1">
	<g>
		<path class="st1" d="M215.17,116.33c0.17-2.98,0.26-6.09,0.26-9.36c0.01-26.95-14.11-44.76-40.34-51.9
			c-0.15-0.02-0.3-0.05-0.46-0.08l-0.05-0.03c-9.49-2.39-19.24-3.54-29.03-3.43c-9.79-0.11-19.54,1.03-29.03,3.43l-0.05,0.03
			c-0.11,0.03-0.22,0.04-0.33,0.06c-26.17,7.65-40.47,24.94-40.47,51.91c0,3.27,0.09,6.39,0.26,9.36c4.51-0.63,9.1,0.17,13.13,2.29
			c0.48-0.6,1.02-1.13,1.61-1.61c2.31-1.74,7.12-4.63,13.77-8.63c11.88-6.86,23.4-14.31,34.53-22.32c3.87-2.99,9.28-2.99,13.15,0
			c11.13,8.01,22.66,15.46,34.53,22.32c6.66,4,11.46,6.89,13.69,8.56c0.63,0.5,1.2,1.07,1.7,1.7
			C206.06,116.5,210.65,115.7,215.17,116.33z"/>
		<path class="st1" d="M172.42,43.46c0-10.35-12.06-18.82-26.88-18.82c-14.82,0-26.88,8.46-26.88,18.82
			c8.84-1.86,17.85-2.76,26.88-2.69C154.57,40.7,163.58,41.6,172.42,43.46z"/>
		<path class="st1" d="M204.68,129.69v26.75c0.18-0.16,0.39-0.28,0.57-0.45c4.92-4.91,8.18-11.24,9.31-18.1
			c0.95-3.45,1.14-7.08,0.54-10.61C211.44,126.32,207.55,127.22,204.68,129.69z"/>
		<path class="st1" d="M172.42,231.54v-9.48c-6.98,7.48-16.65,11.89-26.88,12.26c-10.23-0.37-19.89-4.78-26.88-12.26v9.39
			l27.77,18.51L172.42,231.54z"/>
		<polygon class="st1" points="109.82,249.2 128.1,262.93 137.03,256.61 114.77,241.77 		"/>
		<path class="st1" d="M139.97,267.13c2.12,3.64,5.26,6.59,9.04,8.46l32.25-26.36l-4.87-7.3L139.97,267.13z"/>
		<path class="st1" d="M75.98,127.27c-0.6,3.53-0.41,7.14,0.54,10.58c1.13,6.86,4.38,13.19,9.3,18.1c0.18,0.18,0.4,0.3,0.59,0.47
			v-26.75C83.54,127.22,79.64,126.32,75.98,127.27z"/>
		<path class="st1" d="M181.11,117.56c-12.24-7.07-24.11-14.75-35.57-23.03c-11.46,8.28-23.33,15.96-35.57,23.03
			c-5.92,3.54-10.97,6.6-12.75,7.93c-0.04,0.22-0.07,0.44-0.06,0.66v30.93c0,2.58,0.42,5.15,1.24,7.6
			c3.38,10.13,7.64,19.93,12.74,29.31c7.49,13.49,19.53,29.57,34.41,29.57c14.88,0,26.92-16.08,34.41-29.57
			c5.1-9.38,9.36-19.18,12.74-29.31c0.82-2.45,1.24-5.02,1.24-7.6v-30.93c0.01-0.28-0.05-0.55-0.2-0.78
			C192.11,124.17,187.01,121.1,181.11,117.56z M136.57,152.91l-36.28-4.03l36.28-4.03c2.23,0,4.03,1.8,4.03,4.03
			C140.6,151.11,138.79,152.91,136.57,152.91z M152.67,152.91c-2.23,0-4.03-1.8-4.03-4.03c0-2.23,1.8-4.03,4.03-4.03l36.28,4.03
			L152.67,152.91z"/>
	</g>
</g>
<g id="Capa_2">
</g>
<g id="Capa_3">
</g>
<g id="Capa_4">
</g>
<g id="Capa_5">
</g>
</svg>
