<svg width="584" height="294" viewBox="0 0 584 294" fill="none" xmlns="http://www.w3.org/2000/svg">
<g clip-path="url(#clip0_6382_928)">
<mask id="path-1-inside-1_6382_928" fill="white">
<path d="M0.5 12.9634C0.5 6.33596 5.87258 0.963379 12.5 0.963379H571.5C578.127 0.963379 583.5 6.33596 583.5 12.9634V293.744H0.5V12.9634Z"/>
</mask>
<path d="M0.5 12.9634C0.5 6.33596 5.87258 0.963379 12.5 0.963379H571.5C578.127 0.963379 583.5 6.33596 583.5 12.9634V293.744H0.5V12.9634Z" fill="white"/>
<line x1="60.6782" y1="76.9682" x2="205.788" y2="76.9682" stroke="#E6EBF0" stroke-width="0.426793"/>
<rect x="60.6782" y="84.0103" width="102.004" height="4.26794" rx="2.13397" fill="#D1D8E0"/>
<rect x="60.6785" y="93.3998" width="72.9817" height="4.26794" rx="2.13397" fill="#D1D8E0"/>
<rect x="60.6785" y="102.789" width="111.82" height="4.26794" rx="2.13397" fill="#D1D8E0"/>
<rect x="60.6785" y="112.179" width="58.8975" height="4.26794" rx="2.13397" fill="#D1D8E0"/>
<rect x="60.6785" y="-15.0059" width="145.11" height="17.9253" rx="1.70717" fill="#F5F9FC"/>
<rect x="60.6785" y="7.1875" width="145.11" height="17.9253" rx="1.70717" fill="#F3F6F9"/>
<rect x="60.6785" y="29.3807" width="145.11" height="18.7789" rx="1.70717" fill="#F5F9FC"/>
<rect x="60.6785" y="52.4275" width="145.11" height="18.7789" rx="1.70717" fill="#F3F6F9"/>
<line x1="219.445" y1="76.9682" x2="364.555" y2="76.9682" stroke="#E6EBF0" stroke-width="0.426793"/>
<rect x="219.445" y="84.0103" width="102.004" height="4.26794" rx="2.13397" fill="#D1D8E0"/>
<rect x="219.445" y="93.3998" width="72.9817" height="4.26794" rx="2.13397" fill="#D1D8E0"/>
<rect x="219.445" y="102.789" width="111.82" height="4.26794" rx="2.13397" fill="#D1D8E0"/>
<rect x="219.445" y="112.179" width="58.8975" height="4.26794" rx="2.13397" fill="#D1D8E0"/>
<rect x="219.445" y="-15.0059" width="145.11" height="17.9253" rx="1.70717" fill="#F5F9FC"/>
<rect x="219.445" y="7.1875" width="145.11" height="17.9253" rx="1.70717" fill="#F3F6F9"/>
<rect x="219.445" y="29.3807" width="145.11" height="18.7789" rx="1.70717" fill="#F5F9FC"/>
<rect x="219.445" y="52.4275" width="145.11" height="18.7789" rx="1.70717" fill="#F3F6F9"/>
<line x1="378.212" y1="76.968" x2="523.322" y2="76.968" stroke="#E6EBF0" stroke-width="0.426793"/>
<rect x="378.212" y="84.01" width="102.004" height="4.26794" rx="2.13397" fill="#D1D8E0"/>
<rect x="378.212" y="93.3994" width="72.9817" height="4.26794" rx="2.13397" fill="#D1D8E0"/>
<rect x="378.212" y="102.789" width="111.82" height="4.26794" rx="2.13397" fill="#D1D8E0"/>
<rect x="378.212" y="112.178" width="58.8975" height="4.26794" rx="2.13397" fill="#D1D8E0"/>
<rect x="378.212" y="-15.006" width="145.11" height="17.9253" rx="1.70717" fill="#F5F9FC"/>
<rect x="378.212" y="7.18738" width="145.11" height="17.9253" rx="1.70717" fill="#F3F6F9"/>
<rect x="378.212" y="29.3806" width="145.11" height="18.7789" rx="1.70717" fill="#F5F9FC"/>
<rect x="378.212" y="52.4274" width="145.11" height="18.7789" rx="1.70717" fill="#F3F6F9"/>
<line x1="60.6782" y1="160.151" x2="205.788" y2="160.151" stroke="#E6EBF0" stroke-width="0.426793"/>
<rect x="60.678" y="145" width="53.776" height="6.8287" rx="3.41435" fill="#D1D8E0"/>
<rect x="174.632" y="145" width="31.1559" height="6.8287" rx="3.41435" fill="#D1D8E0"/>
<rect x="60.6782" y="168.901" width="145.11" height="18.7789" rx="1.70717" fill="#F5F9FC"/>
<rect x="60.6785" y="191.947" width="145.11" height="18.7789" rx="1.70717" fill="#F3F6F9"/>
<rect x="60.6785" y="214.994" width="145.11" height="17.9253" rx="1.70717" fill="#F5F9FC"/>
<rect x="60.6785" y="237.188" width="145.11" height="17.9253" rx="1.70717" fill="#F3F6F9"/>
<rect x="60.6785" y="259.381" width="145.11" height="18.7789" rx="1.70717" fill="#F5F9FC"/>
<rect x="60.6785" y="282.427" width="145.11" height="18.7789" rx="1.70717" fill="#F3F6F9"/>
<line x1="219.445" y1="160.151" x2="364.555" y2="160.151" stroke="#E6EBF0" stroke-width="0.426793"/>
<rect x="219.445" y="145" width="53.776" height="6.8287" rx="3.41435" fill="#D1D8E0"/>
<rect x="333.398" y="145" width="31.1559" height="6.8287" rx="3.41435" fill="#D1D8E0"/>
<rect x="219.445" y="168.901" width="145.11" height="18.7789" rx="1.70717" fill="#F5F9FC"/>
<rect x="219.445" y="191.947" width="145.11" height="18.7789" rx="1.70717" fill="#F3F6F9"/>
<rect x="219.445" y="214.994" width="145.11" height="17.9253" rx="1.70717" fill="#F5F9FC"/>
<rect x="219.445" y="237.188" width="145.11" height="17.9253" rx="1.70717" fill="#F3F6F9"/>
<rect x="219.445" y="259.381" width="145.11" height="18.7789" rx="1.70717" fill="#F5F9FC"/>
<rect x="219.445" y="282.427" width="145.11" height="18.7789" rx="1.70717" fill="#F3F6F9"/>
<line x1="378.212" y1="160.151" x2="523.322" y2="160.151" stroke="#E6EBF0" stroke-width="0.426793"/>
<rect x="378.212" y="145" width="53.776" height="6.8287" rx="3.41435" fill="#D1D8E0"/>
<rect x="492.165" y="145" width="31.1559" height="6.8287" rx="3.41435" fill="#D1D8E0"/>
<rect x="378.212" y="168.9" width="145.11" height="18.7789" rx="1.70717" fill="#F5F9FC"/>
<rect x="378.212" y="191.947" width="145.11" height="18.7789" rx="1.70717" fill="#F3F6F9"/>
<rect x="378.212" y="214.994" width="145.11" height="17.9253" rx="1.70717" fill="#F5F9FC"/>
<rect x="378.212" y="237.187" width="145.11" height="17.9253" rx="1.70717" fill="#F3F6F9"/>
<rect x="378.212" y="259.381" width="145.11" height="18.7789" rx="1.70717" fill="#F5F9FC"/>
<rect x="378.212" y="282.427" width="145.11" height="18.7789" rx="1.70717" fill="#F3F6F9"/>
<rect width="462.644" height="28.5534" transform="translate(60.678 116.447)" fill="#007BC7" fill-opacity="0.1"/>
<path d="M60.678 116.447H523.322" stroke="#007BC7" stroke-dasharray="1 1"/>
<path d="M60.678 145H523.322" stroke="#007BC7" stroke-dasharray="1 1"/>
<path d="M530.322 116.447V145" stroke="#007BC7"/>
<path d="M527.322 116.447H533.322" stroke="#007BC7"/>
<path d="M527.322 145H533.322" stroke="#007BC7"/>
<rect x="537.322" y="123.223" width="18" height="15" rx="3.5" fill="#007BC7"/>
<path d="M543.525 134.313C543.086 134.313 542.694 134.237 542.349 134.086C542.006 133.935 541.734 133.725 541.534 133.456C541.336 133.186 541.229 132.873 541.214 132.517H542.218C542.23 132.711 542.295 132.879 542.413 133.022C542.532 133.162 542.687 133.271 542.879 133.348C543.071 133.424 543.284 133.463 543.518 133.463C543.776 133.463 544.004 133.418 544.202 133.329C544.403 133.239 544.559 133.114 544.672 132.955C544.785 132.793 544.842 132.606 544.842 132.395C544.842 132.176 544.785 131.983 544.672 131.817C544.561 131.648 544.398 131.516 544.183 131.42C543.97 131.325 543.712 131.277 543.41 131.277H542.857V130.471H543.41C543.653 130.471 543.866 130.428 544.049 130.34C544.234 130.253 544.379 130.131 544.484 129.976C544.588 129.818 544.64 129.634 544.64 129.423C544.64 129.221 544.594 129.045 544.503 128.896C544.413 128.744 544.286 128.626 544.119 128.541C543.955 128.456 543.761 128.413 543.538 128.413C543.325 128.413 543.125 128.452 542.94 128.531C542.757 128.608 542.608 128.719 542.493 128.864C542.377 129.006 542.316 129.178 542.307 129.378H541.352C541.362 129.025 541.467 128.713 541.665 128.445C541.865 128.177 542.129 127.967 542.457 127.815C542.786 127.664 543.15 127.588 543.55 127.588C543.97 127.588 544.332 127.67 544.637 127.835C544.944 127.996 545.18 128.213 545.347 128.483C545.515 128.754 545.598 129.05 545.596 129.372C545.598 129.738 545.496 130.049 545.289 130.305C545.085 130.561 544.812 130.732 544.471 130.82V130.871C544.906 130.937 545.242 131.109 545.481 131.389C545.722 131.668 545.841 132.014 545.839 132.427C545.841 132.787 545.741 133.11 545.538 133.396C545.338 133.681 545.064 133.906 544.717 134.07C544.37 134.232 543.972 134.313 543.525 134.313ZM547.137 134.223V133.507L549.352 131.213C549.588 130.963 549.783 130.745 549.937 130.558C550.092 130.368 550.208 130.188 550.285 130.017C550.362 129.847 550.4 129.666 550.4 129.474C550.4 129.257 550.349 129.069 550.247 128.912C550.144 128.752 550.005 128.629 549.828 128.544C549.651 128.457 549.452 128.413 549.23 128.413C548.996 128.413 548.791 128.461 548.617 128.557C548.442 128.653 548.308 128.788 548.214 128.963C548.12 129.137 548.073 129.342 548.073 129.576H547.13C547.13 129.178 547.222 128.83 547.405 128.531C547.589 128.233 547.84 128.002 548.16 127.838C548.479 127.672 548.842 127.588 549.249 127.588C549.661 127.588 550.023 127.67 550.336 127.835C550.651 127.996 550.898 128.218 551.074 128.499C551.251 128.778 551.34 129.094 551.34 129.445C551.34 129.688 551.294 129.926 551.202 130.158C551.113 130.39 550.956 130.649 550.732 130.935C550.509 131.218 550.198 131.562 549.799 131.967L548.498 133.329V133.376H551.445V134.223H547.137Z" fill="white"/>
</g>
<path d="M-7.5 12.9634C-7.5 1.91768 1.45431 -7.03662 12.5 -7.03662H571.5C582.546 -7.03662 591.5 1.91768 591.5 12.9634H575.5C575.5 10.7542 573.709 8.96338 571.5 8.96338H12.5C10.2909 8.96338 8.5 10.7542 8.5 12.9634H-7.5ZM583.5 293.744H0.5H583.5ZM-7.5 293.744V12.9634C-7.5 1.91768 1.45431 -7.03662 12.5 -7.03662V8.96338C10.2909 8.96338 8.5 10.7542 8.5 12.9634V293.744H-7.5ZM571.5 -7.03662C582.546 -7.03662 591.5 1.91768 591.5 12.9634V293.744H575.5V12.9634C575.5 10.7542 573.709 8.96338 571.5 8.96338V-7.03662Z" fill="#505E70" mask="url(#path-1-inside-1_6382_928)"/>
<defs>
<clipPath id="clip0_6382_928">
<path d="M0.5 12.9634C0.5 6.33596 5.87258 0.963379 12.5 0.963379H571.5C578.127 0.963379 583.5 6.33596 583.5 12.9634V293.744H0.5V12.9634Z" fill="white"/>
</clipPath>
</defs>
</svg>
