<svg xmlns="http://www.w3.org/2000/svg" width="712" height="320" viewBox="0 0 712 320">
  <defs>
    <style>
      .cls-1 {
        fill: #f3f6f9;
      }

      .cls-11, .cls-2, .cls-3 {
        fill: none;
      }

      .cls-2, .cls-4, .cls-9 {
        stroke: #38485c;
      }

      .cls-2 {
        stroke-linecap: round;
      }

      .cls-3 {
        stroke: #e6ebf0;
      }

      .cls-3, .cls-4 {
        stroke-width: 2px;
      }

      .cls-4, .cls-6, .cls-7 {
        fill: #38485c;
      }

      .cls-5 {
        fill: #e6ebf0;
      }

      .cls-12, .cls-7 {
        opacity: 0.5;
      }

      .cls-8 {
        fill: rgba(158,170,184,0.24);
        stroke: #9eaab8;
      }

      .cls-8, .cls-9 {
        stroke-dasharray: 5 2;
      }

      .cls-9 {
        fill: rgba(56,72,92,0.25);
      }

      .cls-10 {
        fill: #9eaab8;
      }

      .cls-12 {
        fill: #007bc7;
      }

      .cls-13 {
        stroke: none;
      }
    </style>
  </defs>
  <g id="Grupo_18235" data-name="Grupo 18235" transform="translate(-513 -608)">
    <g id="Grupo_18103" data-name="Grupo 18103" transform="translate(13 -8)">
      <path id="Trazado_20235" data-name="Trazado 20235" class="cls-1" d="M4,0H708c2.209,0,4,1.135,4,2.535V317.465c0,1.4-1.791,2.535-4,2.535H4c-2.209,0-4-1.135-4-2.535V2.535C0,1.135,1.791,0,4,0Z" transform="translate(500 616)"/>
      <g id="Grupo_18101" data-name="Grupo 18101" transform="translate(593.456 683.286)">
        <g id="Grupo_17672" data-name="Grupo 17672" transform="translate(391.51 68.401) rotate(-90)">
          <line id="Línea_114" data-name="Línea 114" class="cls-2" x2="37.787" transform="translate(0.213 3.034)"/>
          <path id="Trazado_4671" data-name="Trazado 4671" class="cls-2" d="M0,0V3.033" transform="translate(38 3.034) rotate(180)"/>
          <path id="Trazado_20265" data-name="Trazado 20265" class="cls-2" d="M0,0V3.033" transform="translate(0 3.033) rotate(180)"/>
        </g>
        <g id="Grupo_18084" data-name="Grupo 18084" transform="translate(391.51 22.401) rotate(-90)">
          <line id="Línea_114-2" data-name="Línea 114" class="cls-2" x2="21.787" transform="translate(0.213 3.034)"/>
          <path id="Trazado_4671-2" data-name="Trazado 4671" class="cls-2" d="M0,0V3.033" transform="translate(22 3.034) rotate(180)"/>
          <path id="Trazado_20265-2" data-name="Trazado 20265" class="cls-2" d="M0,0V3.033" transform="translate(0 3.033) rotate(180)"/>
        </g>
        <g id="Grupo_18100" data-name="Grupo 18100" transform="translate(391.51 191.401) rotate(-90)">
          <line id="Línea_114-3" data-name="Línea 114" class="cls-2" x2="21.787" transform="translate(0.213 3.034)"/>
          <path id="Trazado_4671-3" data-name="Trazado 4671" class="cls-2" d="M0,0V3.033" transform="translate(22 3.034) rotate(180)"/>
          <path id="Trazado_20265-3" data-name="Trazado 20265" class="cls-2" d="M0,0V3.033" transform="translate(0 3.033) rotate(180)"/>
        </g>
        <g id="Grupo_18086" data-name="Grupo 18086" transform="translate(143.578 3.401) rotate(90)">
          <line id="Línea_114-4" data-name="Línea 114" class="cls-2" x2="15.287" transform="translate(0.213 3.034)"/>
          <path id="Trazado_4671-4" data-name="Trazado 4671" class="cls-2" d="M0,0V3.033" transform="translate(15.5 3.034) rotate(180)"/>
          <path id="Trazado_20265-4" data-name="Trazado 20265" class="cls-2" d="M0,0V3.033" transform="translate(0 3.033) rotate(180)"/>
        </g>
        <g id="Grupo_18102" data-name="Grupo 18102" transform="translate(143.578 91.401) rotate(90)">
          <line id="Línea_114-5" data-name="Línea 114" class="cls-2" x2="7.287" transform="translate(0.213 3.034)"/>
          <path id="Trazado_4671-5" data-name="Trazado 4671" class="cls-2" d="M0,0V3.033" transform="translate(7.5 3.034) rotate(180)"/>
          <path id="Trazado_20265-5" data-name="Trazado 20265" class="cls-2" d="M0,0V3.033" transform="translate(0 3.033) rotate(180)"/>
        </g>
        <path id="Trazado_20202" data-name="Trazado 20202" class="cls-3" d="M0,0H89.629" transform="translate(188.044 42.371) rotate(90)"/>
        <path id="Trazado_20203" data-name="Trazado 20203" class="cls-4" d="M0,0H42.523" transform="translate(188.044 18.901) rotate(90)"/>
        <circle id="Elipse_866" data-name="Elipse 866" class="cls-5" cx="4" cy="4" r="4" transform="translate(192.044 127.901) rotate(90)"/>
        <circle id="Elipse_864" data-name="Elipse 864" class="cls-5" cx="4" cy="4" r="4" transform="translate(192.044 90.901) rotate(90)"/>
        <circle id="Elipse_862" data-name="Elipse 862" class="cls-6" cx="8" cy="8" r="8" transform="translate(196.044 2.901) rotate(90)"/>
        <path id="Trazado_20280" data-name="Trazado 20280" class="cls-6" d="M11.44-1.232a.985.985,0,0,1,.1.416.8.8,0,0,1-.3.624,1.009,1.009,0,0,1-.68.256.909.909,0,0,1-.48-.136A.907.907,0,0,1,9.728-.5L8.768-2.64H3.136L2.176-.5a.907.907,0,0,1-.352.424.937.937,0,0,1-.5.136A1.019,1.019,0,0,1,.656-.192a.787.787,0,0,1-.3-.624.985.985,0,0,1,.1-.416L4.864-10.72a1.032,1.032,0,0,1,.44-.488,1.26,1.26,0,0,1,.632-.168,1.26,1.26,0,0,1,.632.168,1.032,1.032,0,0,1,.44.488ZM3.84-4.24H8.064L5.952-8.992Zm2.352-7.984a.568.568,0,0,1-.256.064.494.494,0,0,1-.352-.136.418.418,0,0,1-.144-.312.507.507,0,0,1,.176-.352l1.456-1.5a.928.928,0,0,1,.688-.32.754.754,0,0,1,.552.232.736.736,0,0,1,.232.536.682.682,0,0,1-.136.4A1.141,1.141,0,0,1,8-13.28Zm11.072,4.24a.861.861,0,0,1,.656.176.781.781,0,0,1,.24.624.872.872,0,0,1-.208.64,1.278,1.278,0,0,1-.752.272l-.48.048a1.944,1.944,0,0,0-1.384.64,2.093,2.093,0,0,0-.44,1.36v3.36a.888.888,0,0,1-.288.712,1.064,1.064,0,0,1-.72.248,1.034,1.034,0,0,1-.712-.248.9.9,0,0,1-.28-.712V-7.056a.856.856,0,0,1,.28-.688,1.032,1.032,0,0,1,.7-.24.962.962,0,0,1,.672.232.85.85,0,0,1,.256.664v.64a2.368,2.368,0,0,1,.9-1.088,2.771,2.771,0,0,1,1.336-.432Zm7.776,5.84a.538.538,0,0,1,.44.208.865.865,0,0,1,.168.56.97.97,0,0,1-.592.832,5.349,5.349,0,0,1-1.232.488,5.079,5.079,0,0,1-1.312.184A4.077,4.077,0,0,1,19.52-.96a3.988,3.988,0,0,1-1.1-2.976,4.566,4.566,0,0,1,.48-2.128A3.49,3.49,0,0,1,20.248-7.5a3.829,3.829,0,0,1,1.976-.512,3.546,3.546,0,0,1,1.84.464A3.146,3.146,0,0,1,25.28-6.24a4.353,4.353,0,0,1,.432,2q0,.688-.608.688h-4.72a2.517,2.517,0,0,0,.624,1.624,2.1,2.1,0,0,0,1.536.52,2.913,2.913,0,0,0,.9-.128,8.923,8.923,0,0,0,.888-.352A1.766,1.766,0,0,1,25.04-2.144ZM22.272-6.608a1.717,1.717,0,0,0-1.3.512,2.417,2.417,0,0,0-.584,1.472H24a2.281,2.281,0,0,0-.48-1.48A1.583,1.583,0,0,0,22.272-6.608ZM30.72-8.016a3.259,3.259,0,0,1,2.424.808,3.383,3.383,0,0,1,.792,2.456v3.9a.9.9,0,0,1-.256.68.969.969,0,0,1-.7.248.936.936,0,0,1-.68-.256.894.894,0,0,1-.264-.672V-1.2a2.088,2.088,0,0,1-.856.976,2.568,2.568,0,0,1-1.352.352A3.139,3.139,0,0,1,28.4-.192a2.533,2.533,0,0,1-1.008-.88,2.224,2.224,0,0,1-.368-1.248,1.977,1.977,0,0,1,.44-1.36A2.644,2.644,0,0,1,28.9-4.4a13.041,13.041,0,0,1,2.736-.224h.4v-.368A1.638,1.638,0,0,0,31.7-6.136a1.43,1.43,0,0,0-1.088-.36,3.452,3.452,0,0,0-.944.136q-.48.136-1.136.392a1.6,1.6,0,0,1-.608.208.6.6,0,0,1-.472-.208.791.791,0,0,1-.184-.544.819.819,0,0,1,.136-.472,1.291,1.291,0,0,1,.456-.376,5.215,5.215,0,0,1,1.336-.48A6.893,6.893,0,0,1,30.72-8.016Zm-.5,6.7a1.709,1.709,0,0,0,1.3-.536,1.939,1.939,0,0,0,.5-1.384v-.336h-.288a11.038,11.038,0,0,0-1.664.1,1.616,1.616,0,0,0-.848.336.856.856,0,0,0-.256.656,1.085,1.085,0,0,0,.36.84A1.27,1.27,0,0,0,30.224-1.312ZM46.8-11.36a1.066,1.066,0,0,1,.736.256.856.856,0,0,1,.288.672V-.864a.9.9,0,0,1-.272.688,1.008,1.008,0,0,1-.72.256,1.008,1.008,0,0,1-.72-.256.9.9,0,0,1-.272-.688v-.4A2.5,2.5,0,0,1,44.824-.24a3.066,3.066,0,0,1-1.512.368,3.243,3.243,0,0,1-1.8-.512A3.4,3.4,0,0,1,40.28-1.832a5,5,0,0,1-.44-2.152,4.845,4.845,0,0,1,.44-2.128A3.333,3.333,0,0,1,41.5-7.52a3.309,3.309,0,0,1,1.808-.5,3.131,3.131,0,0,1,1.5.352,2.442,2.442,0,0,1,1.008.992v-3.792a.848.848,0,0,1,.264-.648A1,1,0,0,1,46.8-11.36ZM43.84-1.424a1.779,1.779,0,0,0,1.48-.656,2.952,2.952,0,0,0,.52-1.872,2.917,2.917,0,0,0-.52-1.864,1.77,1.77,0,0,0-1.464-.648,1.821,1.821,0,0,0-1.488.64,2.823,2.823,0,0,0-.528,1.84A2.989,2.989,0,0,0,42.368-2.1,1.766,1.766,0,0,0,43.84-1.424Zm12.224-.72a.538.538,0,0,1,.44.208.865.865,0,0,1,.168.56.97.97,0,0,1-.592.832,5.349,5.349,0,0,1-1.232.488,5.079,5.079,0,0,1-1.312.184A4.077,4.077,0,0,1,50.544-.96a3.988,3.988,0,0,1-1.1-2.976,4.566,4.566,0,0,1,.48-2.128A3.49,3.49,0,0,1,51.272-7.5a3.829,3.829,0,0,1,1.976-.512,3.546,3.546,0,0,1,1.84.464A3.146,3.146,0,0,1,56.3-6.24a4.354,4.354,0,0,1,.432,2q0,.688-.608.688h-4.72a2.517,2.517,0,0,0,.624,1.624,2.1,2.1,0,0,0,1.536.52,2.913,2.913,0,0,0,.9-.128,8.923,8.923,0,0,0,.888-.352A1.766,1.766,0,0,1,56.064-2.144ZM53.3-6.608a1.717,1.717,0,0,0-1.3.512,2.417,2.417,0,0,0-.584,1.472h3.616a2.281,2.281,0,0,0-.48-1.48A1.583,1.583,0,0,0,53.3-6.608Zm13.44,5.216q.8.048.8.72a.651.651,0,0,1-.312.584,1.489,1.489,0,0,1-.888.168L65.9.048a2.574,2.574,0,0,1-2.688-2.88V-6.32h-.8a1.016,1.016,0,0,1-.664-.192.685.685,0,0,1-.232-.56.685.685,0,0,1,.232-.56,1.016,1.016,0,0,1,.664-.192h.8V-9.3a.9.9,0,0,1,.272-.688,1.03,1.03,0,0,1,.736-.256,1.008,1.008,0,0,1,.72.256.9.9,0,0,1,.272.688v1.472h1.36a1.016,1.016,0,0,1,.664.192.685.685,0,0,1,.232.56.685.685,0,0,1-.232.56,1.016,1.016,0,0,1-.664.192h-1.36v3.632q0,1.184,1.088,1.264ZM69.552.1a1.034,1.034,0,0,1-.712-.248.9.9,0,0,1-.28-.712V-7.04a.876.876,0,0,1,.28-.7,1.055,1.055,0,0,1,.712-.24,1.087,1.087,0,0,1,.72.24.864.864,0,0,1,.288.7V-.864a.888.888,0,0,1-.288.712A1.064,1.064,0,0,1,69.552.1Zm.4-8.992a.6.6,0,0,1-.352.128.511.511,0,0,1-.376-.152.492.492,0,0,1-.152-.36.6.6,0,0,1,.128-.352L70.752-11.7a1.059,1.059,0,0,1,.848-.48.817.817,0,0,1,.6.248.8.8,0,0,1,.248.584.936.936,0,0,1-.432.768Zm7.056,7.5q.8.048.8.72a.651.651,0,0,1-.312.584,1.489,1.489,0,0,1-.888.168L76.176.048a2.574,2.574,0,0,1-2.688-2.88V-6.32h-.8a1.016,1.016,0,0,1-.664-.192.685.685,0,0,1-.232-.56.685.685,0,0,1,.232-.56,1.016,1.016,0,0,1,.664-.192h.8V-9.3a.9.9,0,0,1,.272-.688,1.03,1.03,0,0,1,.736-.256,1.008,1.008,0,0,1,.72.256.9.9,0,0,1,.272.688v1.472h1.36a1.016,1.016,0,0,1,.664.192.685.685,0,0,1,.232.56.685.685,0,0,1-.232.56,1.016,1.016,0,0,1-.664.192h-1.36v3.632q0,1.184,1.088,1.264Zm8-6.592a1.03,1.03,0,0,1,.736.256.9.9,0,0,1,.272.688V-.832a.868.868,0,0,1-.28.672A1.037,1.037,0,0,1,85.008.1a.965.965,0,0,1-.688-.24A.856.856,0,0,1,84.064-.8v-.4a2.549,2.549,0,0,1-.992.984,2.867,2.867,0,0,1-1.408.344q-2.88,0-2.88-3.232V-7.04a.9.9,0,0,1,.272-.688,1.008,1.008,0,0,1,.72-.256,1.03,1.03,0,0,1,.736.256.9.9,0,0,1,.272.688v3.952a1.888,1.888,0,0,0,.336,1.232,1.3,1.3,0,0,0,1.056.4,1.722,1.722,0,0,0,1.336-.552,2.087,2.087,0,0,0,.5-1.464V-7.04a.9.9,0,0,1,.272-.688A1.008,1.008,0,0,1,85.008-7.984ZM89.072.1a1.034,1.034,0,0,1-.712-.248.9.9,0,0,1-.28-.712v-9.552a.876.876,0,0,1,.28-.7,1.055,1.055,0,0,1,.712-.24,1.087,1.087,0,0,1,.72.24.864.864,0,0,1,.288.7V-.864a.888.888,0,0,1-.288.712A1.064,1.064,0,0,1,89.072.1ZM95.7.128a4.3,4.3,0,0,1-2.1-.5,3.432,3.432,0,0,1-1.4-1.424,4.515,4.515,0,0,1-.5-2.16,4.468,4.468,0,0,1,.5-2.152,3.444,3.444,0,0,1,1.4-1.416,4.3,4.3,0,0,1,2.1-.5,4.3,4.3,0,0,1,2.1.5A3.394,3.394,0,0,1,99.192-6.1a4.528,4.528,0,0,1,.488,2.152,4.575,4.575,0,0,1-.488,2.16A3.382,3.382,0,0,1,97.8-.368,4.3,4.3,0,0,1,95.7.128ZM95.68-1.424a1.793,1.793,0,0,0,1.488-.64,2.973,2.973,0,0,0,.512-1.888,2.979,2.979,0,0,0-.512-1.88A1.765,1.765,0,0,0,95.7-6.48a1.788,1.788,0,0,0-1.48.648,2.946,2.946,0,0,0-.52,1.88,2.973,2.973,0,0,0,.512,1.888A1.775,1.775,0,0,0,95.68-1.424Z" transform="translate(410.544 16.401)"/>
        <path id="Trazado_20281" data-name="Trazado 20281" class="cls-6" d="M-107.968.1a1.006,1.006,0,0,1-.744-.28,1.027,1.027,0,0,1-.28-.76V-10.3a.956.956,0,0,1,.264-.72A1,1,0,0,1-108-11.28h3.936a4.07,4.07,0,0,1,2.816.9A3.231,3.231,0,0,1-100.24-7.84,3.256,3.256,0,0,1-101.248-5.3a4.047,4.047,0,0,1-2.816.912h-2.864v3.44a1.027,1.027,0,0,1-.28.76A1.027,1.027,0,0,1-107.968.1Zm3.648-6.064q2.128,0,2.128-1.856T-104.32-9.68h-2.608v3.712Zm8.976,6.1a4.3,4.3,0,0,1-2.1-.5,3.432,3.432,0,0,1-1.4-1.424,4.515,4.515,0,0,1-.5-2.16,4.468,4.468,0,0,1,.5-2.152,3.444,3.444,0,0,1,1.4-1.416,4.3,4.3,0,0,1,2.1-.5,4.3,4.3,0,0,1,2.1.5A3.394,3.394,0,0,1-91.848-6.1a4.528,4.528,0,0,1,.488,2.152,4.575,4.575,0,0,1-.488,2.16A3.382,3.382,0,0,1-93.24-.368,4.3,4.3,0,0,1-95.344.128Zm-.016-1.552a1.793,1.793,0,0,0,1.488-.64,2.973,2.973,0,0,0,.512-1.888,2.979,2.979,0,0,0-.512-1.88,1.765,1.765,0,0,0-1.472-.648,1.788,1.788,0,0,0-1.48.648,2.946,2.946,0,0,0-.52,1.88,2.973,2.973,0,0,0,.512,1.888A1.775,1.775,0,0,0-95.36-1.424ZM-86.9.128A5.144,5.144,0,0,1-89.712-.56a.954.954,0,0,1-.512-.864.758.758,0,0,1,.176-.52.554.554,0,0,1,.432-.2,1.767,1.767,0,0,1,.752.256,7,7,0,0,0,.936.368,3.812,3.812,0,0,0,1.08.128A2.054,2.054,0,0,0-85.8-1.616a.694.694,0,0,0,.376-.624.6.6,0,0,0-.152-.432,1.394,1.394,0,0,0-.544-.3,11.44,11.44,0,0,0-1.192-.312,4.58,4.58,0,0,1-2.04-.816,1.816,1.816,0,0,1-.616-1.456,2.1,2.1,0,0,1,.416-1.272,2.7,2.7,0,0,1,1.144-.88,4.168,4.168,0,0,1,1.656-.312,4.963,4.963,0,0,1,1.3.168,3.94,3.94,0,0,1,1.12.488.966.966,0,0,1,.512.848A.821.821,0,0,1-84-5.976a.538.538,0,0,1-.432.216.865.865,0,0,1-.344-.072,4.615,4.615,0,0,1-.424-.216,6.709,6.709,0,0,0-.8-.36,2.5,2.5,0,0,0-.832-.12,1.611,1.611,0,0,0-.936.24.758.758,0,0,0-.344.656.666.666,0,0,0,.352.608,5.041,5.041,0,0,0,1.36.416,7.759,7.759,0,0,1,1.68.512,1.968,1.968,0,0,1,.872.72,2.089,2.089,0,0,1,.264,1.1,2.052,2.052,0,0,1-.9,1.744A4.013,4.013,0,0,1-86.9.128Zm5.9-.032A1.034,1.034,0,0,1-81.7-.152a.9.9,0,0,1-.28-.712V-7.04a.876.876,0,0,1,.28-.7,1.055,1.055,0,0,1,.712-.24,1.087,1.087,0,0,1,.72.24.864.864,0,0,1,.288.7V-.864a.888.888,0,0,1-.288.712A1.064,1.064,0,0,1-80.992.1Zm0-9.5a1.222,1.222,0,0,1-.864-.3,1.008,1.008,0,0,1-.32-.776.983.983,0,0,1,.32-.768,1.243,1.243,0,0,1,.864-.288,1.25,1.25,0,0,1,.856.288.971.971,0,0,1,.328.768,1.008,1.008,0,0,1-.32.776A1.222,1.222,0,0,1-80.992-9.408ZM-74.464.128a4.146,4.146,0,0,1-2.056-.5,3.381,3.381,0,0,1-1.368-1.408,4.505,4.505,0,0,1-.48-2.128,4.468,4.468,0,0,1,.5-2.152A3.56,3.56,0,0,1-76.448-7.5a4.208,4.208,0,0,1,2.1-.512A4.665,4.665,0,0,1-73.1-7.84a4.143,4.143,0,0,1,1.112.48.99.99,0,0,1,.512.848.9.9,0,0,1-.168.568.531.531,0,0,1-.44.216.956.956,0,0,1-.368-.08A3.223,3.223,0,0,1-72.832-6a4.3,4.3,0,0,0-.672-.328,2.088,2.088,0,0,0-.736-.12,1.871,1.871,0,0,0-1.528.648A2.855,2.855,0,0,0-76.3-3.936a2.827,2.827,0,0,0,.536,1.848,1.871,1.871,0,0,0,1.528.648,1.973,1.973,0,0,0,.712-.12,6.031,6.031,0,0,0,.7-.328,3.168,3.168,0,0,1,.416-.216.923.923,0,0,1,.352-.072.531.531,0,0,1,.432.224.879.879,0,0,1,.176.56.9.9,0,0,1-.12.472,1.081,1.081,0,0,1-.392.36,4.207,4.207,0,0,1-1.152.5A4.953,4.953,0,0,1-74.464.128ZM-69.152.1a1.034,1.034,0,0,1-.712-.248.9.9,0,0,1-.28-.712V-7.04a.876.876,0,0,1,.28-.7,1.055,1.055,0,0,1,.712-.24,1.087,1.087,0,0,1,.72.24.864.864,0,0,1,.288.7V-.864a.888.888,0,0,1-.288.712A1.064,1.064,0,0,1-69.152.1Zm0-9.5a1.222,1.222,0,0,1-.864-.3,1.008,1.008,0,0,1-.32-.776.983.983,0,0,1,.32-.768,1.243,1.243,0,0,1,.864-.288,1.25,1.25,0,0,1,.856.288.971.971,0,0,1,.328.768,1.008,1.008,0,0,1-.32.776A1.222,1.222,0,0,1-69.152-9.408ZM-62.528.128a4.3,4.3,0,0,1-2.1-.5,3.432,3.432,0,0,1-1.4-1.424,4.515,4.515,0,0,1-.5-2.16,4.468,4.468,0,0,1,.5-2.152,3.444,3.444,0,0,1,1.4-1.416,4.3,4.3,0,0,1,2.1-.5,4.3,4.3,0,0,1,2.1.5A3.394,3.394,0,0,1-59.032-6.1a4.527,4.527,0,0,1,.488,2.152,4.575,4.575,0,0,1-.488,2.16A3.382,3.382,0,0,1-60.424-.368,4.3,4.3,0,0,1-62.528.128Zm-.016-1.552a1.793,1.793,0,0,0,1.488-.64,2.973,2.973,0,0,0,.512-1.888,2.979,2.979,0,0,0-.512-1.88,1.765,1.765,0,0,0-1.472-.648,1.788,1.788,0,0,0-1.48.648,2.946,2.946,0,0,0-.52,1.88,2.973,2.973,0,0,0,.512,1.888A1.775,1.775,0,0,0-62.544-1.424Zm.416-7.472a.6.6,0,0,1-.352.128.511.511,0,0,1-.376-.152.492.492,0,0,1-.152-.36.6.6,0,0,1,.128-.352l1.552-2.064a1.059,1.059,0,0,1,.848-.48.817.817,0,0,1,.6.248.8.8,0,0,1,.248.584.936.936,0,0,1-.432.768Zm9.76.88a2.615,2.615,0,0,1,2.1.8A3.628,3.628,0,0,1-49.584-4.8V-.864a.935.935,0,0,1-.264.7A1,1,0,0,1-50.576.1a1.03,1.03,0,0,1-.736-.256.92.92,0,0,1-.272-.7V-4.688a2.074,2.074,0,0,0-.344-1.328,1.322,1.322,0,0,0-1.08-.416,1.826,1.826,0,0,0-1.384.544,2.019,2.019,0,0,0-.52,1.456V-.864a.92.92,0,0,1-.272.7A1.03,1.03,0,0,1-55.92.1a1,1,0,0,1-.728-.256.935.935,0,0,1-.264-.7V-7.056a.88.88,0,0,1,.272-.672,1.03,1.03,0,0,1,.736-.256.953.953,0,0,1,.68.248.848.848,0,0,1,.264.648v.432a2.706,2.706,0,0,1,1.072-1.008A3.226,3.226,0,0,1-52.368-8.016Zm12.512,0a3.259,3.259,0,0,1,2.424.808,3.383,3.383,0,0,1,.792,2.456v3.9a.9.9,0,0,1-.256.68.969.969,0,0,1-.7.248.936.936,0,0,1-.68-.256.894.894,0,0,1-.264-.672V-1.2a2.088,2.088,0,0,1-.856.976,2.568,2.568,0,0,1-1.352.352,3.139,3.139,0,0,1-1.424-.32,2.533,2.533,0,0,1-1.008-.88,2.224,2.224,0,0,1-.368-1.248,1.977,1.977,0,0,1,.44-1.36A2.644,2.644,0,0,1-41.68-4.4a13.041,13.041,0,0,1,2.736-.224h.4v-.368a1.638,1.638,0,0,0-.336-1.144,1.43,1.43,0,0,0-1.088-.36,3.452,3.452,0,0,0-.944.136q-.48.136-1.136.392a1.6,1.6,0,0,1-.608.208.6.6,0,0,1-.472-.208.791.791,0,0,1-.184-.544.819.819,0,0,1,.136-.472,1.291,1.291,0,0,1,.456-.376,5.215,5.215,0,0,1,1.336-.48A6.893,6.893,0,0,1-39.856-8.016Zm-.5,6.7a1.709,1.709,0,0,0,1.3-.536,1.939,1.939,0,0,0,.5-1.384v-.336h-.288a11.038,11.038,0,0,0-1.664.1,1.616,1.616,0,0,0-.848.336.856.856,0,0,0-.256.656,1.085,1.085,0,0,0,.36.84A1.27,1.27,0,0,0-40.352-1.312Zm9.2,1.44a4.146,4.146,0,0,1-2.056-.5,3.381,3.381,0,0,1-1.368-1.408,4.505,4.505,0,0,1-.48-2.128,4.468,4.468,0,0,1,.5-2.152A3.56,3.56,0,0,1-33.136-7.5a4.208,4.208,0,0,1,2.1-.512,4.665,4.665,0,0,1,1.256.176,4.143,4.143,0,0,1,1.112.48.99.99,0,0,1,.512.848.9.9,0,0,1-.168.568.531.531,0,0,1-.44.216.956.956,0,0,1-.368-.08A3.223,3.223,0,0,1-29.52-6a4.3,4.3,0,0,0-.672-.328,2.088,2.088,0,0,0-.736-.12,1.871,1.871,0,0,0-1.528.648,2.855,2.855,0,0,0-.536,1.864,2.827,2.827,0,0,0,.536,1.848,1.871,1.871,0,0,0,1.528.648,1.973,1.973,0,0,0,.712-.12,6.031,6.031,0,0,0,.7-.328A3.168,3.168,0,0,1-29.1-2.1a.923.923,0,0,1,.352-.072.531.531,0,0,1,.432.224.879.879,0,0,1,.176.56.9.9,0,0,1-.12.472,1.081,1.081,0,0,1-.392.36,4.207,4.207,0,0,1-1.152.5A4.953,4.953,0,0,1-31.152.128Zm8.432-1.52q.8.048.8.72a.651.651,0,0,1-.312.584A1.489,1.489,0,0,1-23.12.08l-.432-.032a2.574,2.574,0,0,1-2.688-2.88V-6.32h-.8a1.016,1.016,0,0,1-.664-.192.685.685,0,0,1-.232-.56.685.685,0,0,1,.232-.56,1.016,1.016,0,0,1,.664-.192h.8V-9.3a.9.9,0,0,1,.272-.688,1.03,1.03,0,0,1,.736-.256,1.008,1.008,0,0,1,.72.256.9.9,0,0,1,.272.688v1.472h1.36a1.016,1.016,0,0,1,.664.192.685.685,0,0,1,.232.56.685.685,0,0,1-.232.56,1.016,1.016,0,0,1-.664.192h-1.36v3.632q0,1.184,1.088,1.264Zm8-6.592a1.03,1.03,0,0,1,.736.256.9.9,0,0,1,.272.688V-.832a.868.868,0,0,1-.28.672A1.037,1.037,0,0,1-14.72.1a.965.965,0,0,1-.688-.24A.856.856,0,0,1-15.664-.8v-.4a2.549,2.549,0,0,1-.992.984,2.867,2.867,0,0,1-1.408.344q-2.88,0-2.88-3.232V-7.04a.9.9,0,0,1,.272-.688,1.008,1.008,0,0,1,.72-.256,1.03,1.03,0,0,1,.736.256.9.9,0,0,1,.272.688v3.952a1.888,1.888,0,0,0,.336,1.232,1.3,1.3,0,0,0,1.056.4,1.722,1.722,0,0,0,1.336-.552,2.087,2.087,0,0,0,.5-1.464V-7.04a.9.9,0,0,1,.272-.688A1.008,1.008,0,0,1-14.72-7.984Zm6.464-.032a3.259,3.259,0,0,1,2.424.808A3.383,3.383,0,0,1-5.04-4.752v3.9a.9.9,0,0,1-.256.68A.969.969,0,0,1-6,.08a.936.936,0,0,1-.68-.256.894.894,0,0,1-.264-.672V-1.2A2.088,2.088,0,0,1-7.8-.224,2.568,2.568,0,0,1-9.152.128a3.139,3.139,0,0,1-1.424-.32,2.533,2.533,0,0,1-1.008-.88,2.224,2.224,0,0,1-.368-1.248,1.977,1.977,0,0,1,.44-1.36A2.644,2.644,0,0,1-10.08-4.4a13.041,13.041,0,0,1,2.736-.224h.4v-.368A1.638,1.638,0,0,0-7.28-6.136,1.43,1.43,0,0,0-8.368-6.5a3.452,3.452,0,0,0-.944.136q-.48.136-1.136.392a1.6,1.6,0,0,1-.608.208.6.6,0,0,1-.472-.208.791.791,0,0,1-.184-.544.819.819,0,0,1,.136-.472,1.291,1.291,0,0,1,.456-.376,5.215,5.215,0,0,1,1.336-.48A6.893,6.893,0,0,1-8.256-8.016Zm-.5,6.7a1.709,1.709,0,0,0,1.3-.536,1.939,1.939,0,0,0,.5-1.384v-.336h-.288a11.038,11.038,0,0,0-1.664.1,1.616,1.616,0,0,0-.848.336A.856.856,0,0,0-10-2.48a1.085,1.085,0,0,0,.36.84A1.27,1.27,0,0,0-8.752-1.312ZM-2.032.1a1.034,1.034,0,0,1-.712-.248.9.9,0,0,1-.28-.712v-9.552a.876.876,0,0,1,.28-.7,1.055,1.055,0,0,1,.712-.24,1.087,1.087,0,0,1,.72.24.864.864,0,0,1,.288.7V-.864a.888.888,0,0,1-.288.712A1.064,1.064,0,0,1-2.032.1Z" transform="translate(124.544 17.401)"/>
        <path id="Trazado_20282" data-name="Trazado 20282" class="cls-6" d="M-123.52.1a1.006,1.006,0,0,1-.744-.28,1.027,1.027,0,0,1-.28-.76V-10.3a.956.956,0,0,1,.264-.72,1,1,0,0,1,.728-.256h3.936a4.07,4.07,0,0,1,2.816.9,3.231,3.231,0,0,1,1.008,2.536A3.256,3.256,0,0,1-116.8-5.3a4.047,4.047,0,0,1-2.816.912h-2.864v3.44a1.027,1.027,0,0,1-.28.76A1.027,1.027,0,0,1-123.52.1Zm3.648-6.064q2.128,0,2.128-1.856t-2.128-1.856h-2.608v3.712Zm9.9-2.016a.861.861,0,0,1,.656.176.781.781,0,0,1,.24.624.872.872,0,0,1-.208.64,1.278,1.278,0,0,1-.752.272l-.48.048a1.944,1.944,0,0,0-1.384.64,2.093,2.093,0,0,0-.44,1.36v3.36a.888.888,0,0,1-.288.712,1.064,1.064,0,0,1-.72.248,1.034,1.034,0,0,1-.712-.248.9.9,0,0,1-.28-.712V-7.056a.856.856,0,0,1,.28-.688,1.032,1.032,0,0,1,.7-.24.962.962,0,0,1,.672.232.85.85,0,0,1,.256.664v.64a2.368,2.368,0,0,1,.9-1.088,2.771,2.771,0,0,1,1.336-.432Zm5.152,8.112a4.3,4.3,0,0,1-2.1-.5,3.432,3.432,0,0,1-1.4-1.424,4.515,4.515,0,0,1-.5-2.16,4.468,4.468,0,0,1,.5-2.152,3.444,3.444,0,0,1,1.4-1.416,4.3,4.3,0,0,1,2.1-.5,4.3,4.3,0,0,1,2.1.5A3.394,3.394,0,0,1-101.32-6.1a4.528,4.528,0,0,1,.488,2.152,4.575,4.575,0,0,1-.488,2.16,3.382,3.382,0,0,1-1.392,1.424A4.3,4.3,0,0,1-104.816.128Zm-.016-1.552a1.793,1.793,0,0,0,1.488-.64,2.973,2.973,0,0,0,.512-1.888,2.979,2.979,0,0,0-.512-1.88,1.765,1.765,0,0,0-1.472-.648,1.788,1.788,0,0,0-1.48.648,2.946,2.946,0,0,0-.52,1.88,2.973,2.973,0,0,0,.512,1.888A1.775,1.775,0,0,0-104.832-1.424Zm.416-7.472a.6.6,0,0,1-.352.128.511.511,0,0,1-.376-.152.492.492,0,0,1-.152-.36.6.6,0,0,1,.128-.352l1.552-2.064a1.059,1.059,0,0,1,.848-.48.817.817,0,0,1,.6.248.8.8,0,0,1,.248.584.936.936,0,0,1-.432.768Zm11.84,7.424a.9.9,0,0,1,.288.656.885.885,0,0,1-.272.632A.864.864,0,0,1-93.2.1a.878.878,0,0,1-.688-.336l-2.256-2.5L-98.4-.24a.928.928,0,0,1-.688.32.858.858,0,0,1-.624-.272.858.858,0,0,1-.272-.624.9.9,0,0,1,.288-.656l2.336-2.544-2.208-2.4a.9.9,0,0,1-.288-.656.85.85,0,0,1,.272-.632.871.871,0,0,1,.624-.264.928.928,0,0,1,.688.32l2.128,2.336,2.128-2.336a.928.928,0,0,1,.688-.32A.862.862,0,0,1-92.7-7.7a.862.862,0,0,1,.264.632.9.9,0,0,1-.288.656l-2.208,2.4ZM-89.872.1a1.034,1.034,0,0,1-.712-.248.9.9,0,0,1-.28-.712V-7.04a.876.876,0,0,1,.28-.7,1.055,1.055,0,0,1,.712-.24,1.087,1.087,0,0,1,.72.24.864.864,0,0,1,.288.7V-.864a.888.888,0,0,1-.288.712A1.064,1.064,0,0,1-89.872.1Zm0-9.5a1.222,1.222,0,0,1-.864-.3,1.008,1.008,0,0,1-.32-.776.983.983,0,0,1,.32-.768,1.243,1.243,0,0,1,.864-.288,1.25,1.25,0,0,1,.856.288.971.971,0,0,1,.328.768,1.008,1.008,0,0,1-.32.776A1.222,1.222,0,0,1-89.872-9.408ZM-77.52-8.016a2.493,2.493,0,0,1,1.96.76A3.634,3.634,0,0,1-74.88-4.8V-.864a.9.9,0,0,1-.28.712A1.057,1.057,0,0,1-75.888.1,1.034,1.034,0,0,1-76.6-.152a.9.9,0,0,1-.28-.712V-4.8a1.979,1.979,0,0,0-.312-1.256,1.166,1.166,0,0,0-.952-.376,1.567,1.567,0,0,0-1.248.536,2.162,2.162,0,0,0-.464,1.464V-.864a.9.9,0,0,1-.28.712A1.034,1.034,0,0,1-80.848.1a1.064,1.064,0,0,1-.72-.248.888.888,0,0,1-.288-.712V-4.8a1.979,1.979,0,0,0-.312-1.256,1.166,1.166,0,0,0-.952-.376,1.543,1.543,0,0,0-1.24.536,2.187,2.187,0,0,0-.456,1.464V-.864a.888.888,0,0,1-.288.712,1.064,1.064,0,0,1-.72.248,1.034,1.034,0,0,1-.712-.248.9.9,0,0,1-.28-.712V-7.056a.845.845,0,0,1,.288-.688,1.087,1.087,0,0,1,.72-.24.992.992,0,0,1,.68.232.837.837,0,0,1,.264.664V-6.7a2.508,2.508,0,0,1,.984-.976,2.91,2.91,0,0,1,1.416-.336,2.292,2.292,0,0,1,2.352,1.472,2.644,2.644,0,0,1,1.04-1.072A3.031,3.031,0,0,1-77.52-8.016Zm8.048,0a3.259,3.259,0,0,1,2.424.808,3.383,3.383,0,0,1,.792,2.456v3.9a.9.9,0,0,1-.256.68.969.969,0,0,1-.7.248.936.936,0,0,1-.68-.256.894.894,0,0,1-.264-.672V-1.2a2.088,2.088,0,0,1-.856.976,2.568,2.568,0,0,1-1.352.352,3.139,3.139,0,0,1-1.424-.32,2.533,2.533,0,0,1-1.008-.88,2.224,2.224,0,0,1-.368-1.248,1.977,1.977,0,0,1,.44-1.36A2.644,2.644,0,0,1-71.3-4.4a13.041,13.041,0,0,1,2.736-.224h.4v-.368A1.638,1.638,0,0,0-68.5-6.136a1.43,1.43,0,0,0-1.088-.36,3.452,3.452,0,0,0-.944.136q-.48.136-1.136.392a1.6,1.6,0,0,1-.608.208.6.6,0,0,1-.472-.208.791.791,0,0,1-.184-.544.819.819,0,0,1,.136-.472,1.291,1.291,0,0,1,.456-.376A5.215,5.215,0,0,1-71-7.84,6.893,6.893,0,0,1-69.472-8.016Zm-.5,6.7a1.709,1.709,0,0,0,1.3-.536,1.939,1.939,0,0,0,.5-1.384v-.336h-.288a11.038,11.038,0,0,0-1.664.1,1.615,1.615,0,0,0-.848.336.856.856,0,0,0-.256.656,1.085,1.085,0,0,0,.36.84A1.27,1.27,0,0,0-69.968-1.312Zm14.544-6.7a3.243,3.243,0,0,1,1.8.512,3.4,3.4,0,0,1,1.232,1.448,5,5,0,0,1,.44,2.152,4.845,4.845,0,0,1-.44,2.128A3.333,3.333,0,0,1-53.616-.368a3.309,3.309,0,0,1-1.808.5,3.1,3.1,0,0,1-1.488-.352A2.47,2.47,0,0,1-57.92-1.2V2.064a.83.83,0,0,1-.272.656,1.048,1.048,0,0,1-.72.24A1.037,1.037,0,0,1-59.64,2.7a.868.868,0,0,1-.28-.672V-7.04a.914.914,0,0,1,.264-.688.979.979,0,0,1,.712-.256,1.008,1.008,0,0,1,.72.256.9.9,0,0,1,.272.688v.4a2.455,2.455,0,0,1,1.016-1.016A3.121,3.121,0,0,1-55.424-8.016Zm-.528,6.592a1.793,1.793,0,0,0,1.472-.648A2.829,2.829,0,0,0-53.952-3.9a2.989,2.989,0,0,0-.528-1.888,1.766,1.766,0,0,0-1.472-.672,1.779,1.779,0,0,0-1.48.656,2.952,2.952,0,0,0-.52,1.872,2.923,2.923,0,0,0,.52,1.856A1.779,1.779,0,0,0-55.952-1.424Zm9.2,1.552a4.3,4.3,0,0,1-2.1-.5,3.432,3.432,0,0,1-1.4-1.424,4.515,4.515,0,0,1-.5-2.16,4.468,4.468,0,0,1,.5-2.152,3.444,3.444,0,0,1,1.4-1.416,4.3,4.3,0,0,1,2.1-.5,4.3,4.3,0,0,1,2.1.5A3.394,3.394,0,0,1-43.256-6.1a4.527,4.527,0,0,1,.488,2.152,4.575,4.575,0,0,1-.488,2.16A3.382,3.382,0,0,1-44.648-.368,4.3,4.3,0,0,1-46.752.128Zm-.016-1.552a1.793,1.793,0,0,0,1.488-.64,2.973,2.973,0,0,0,.512-1.888,2.979,2.979,0,0,0-.512-1.88,1.765,1.765,0,0,0-1.472-.648,1.788,1.788,0,0,0-1.48.648,2.946,2.946,0,0,0-.52,1.88,2.973,2.973,0,0,0,.512,1.888A1.775,1.775,0,0,0-46.768-1.424ZM-38.3.128A5.144,5.144,0,0,1-41.12-.56a.954.954,0,0,1-.512-.864.758.758,0,0,1,.176-.52.554.554,0,0,1,.432-.2,1.767,1.767,0,0,1,.752.256,7,7,0,0,0,.936.368,3.812,3.812,0,0,0,1.08.128,2.054,2.054,0,0,0,1.048-.224.694.694,0,0,0,.376-.624.6.6,0,0,0-.152-.432,1.394,1.394,0,0,0-.544-.3A11.44,11.44,0,0,0-38.72-3.28,4.58,4.58,0,0,1-40.76-4.1a1.816,1.816,0,0,1-.616-1.456,2.1,2.1,0,0,1,.416-1.272,2.7,2.7,0,0,1,1.144-.88,4.168,4.168,0,0,1,1.656-.312,4.963,4.963,0,0,1,1.3.168,3.94,3.94,0,0,1,1.12.488.966.966,0,0,1,.512.848.821.821,0,0,1-.176.536.538.538,0,0,1-.432.216.865.865,0,0,1-.344-.072,4.616,4.616,0,0,1-.424-.216,6.709,6.709,0,0,0-.8-.36,2.5,2.5,0,0,0-.832-.12,1.611,1.611,0,0,0-.936.24.758.758,0,0,0-.344.656.666.666,0,0,0,.352.608,5.041,5.041,0,0,0,1.36.416,7.76,7.76,0,0,1,1.68.512,1.968,1.968,0,0,1,.872.72,2.089,2.089,0,0,1,.264,1.1,2.052,2.052,0,0,1-.9,1.744A4.013,4.013,0,0,1-38.3.128ZM-32.4.1a1.034,1.034,0,0,1-.712-.248.9.9,0,0,1-.28-.712V-7.04a.876.876,0,0,1,.28-.7,1.055,1.055,0,0,1,.712-.24,1.087,1.087,0,0,1,.72.24.864.864,0,0,1,.288.7V-.864a.888.888,0,0,1-.288.712A1.064,1.064,0,0,1-32.4.1Zm0-9.5a1.222,1.222,0,0,1-.864-.3,1.008,1.008,0,0,1-.32-.776.983.983,0,0,1,.32-.768,1.243,1.243,0,0,1,.864-.288,1.25,1.25,0,0,1,.856.288.971.971,0,0,1,.328.768,1.008,1.008,0,0,1-.32.776A1.222,1.222,0,0,1-32.4-9.408ZM-25.872.128a4.146,4.146,0,0,1-2.056-.5A3.381,3.381,0,0,1-29.3-1.776a4.505,4.505,0,0,1-.48-2.128,4.468,4.468,0,0,1,.5-2.152A3.56,3.56,0,0,1-27.856-7.5a4.208,4.208,0,0,1,2.1-.512A4.665,4.665,0,0,1-24.5-7.84a4.143,4.143,0,0,1,1.112.48.99.99,0,0,1,.512.848.9.9,0,0,1-.168.568.531.531,0,0,1-.44.216.956.956,0,0,1-.368-.08A3.223,3.223,0,0,1-24.24-6a4.3,4.3,0,0,0-.672-.328,2.088,2.088,0,0,0-.736-.12,1.871,1.871,0,0,0-1.528.648,2.855,2.855,0,0,0-.536,1.864,2.827,2.827,0,0,0,.536,1.848,1.871,1.871,0,0,0,1.528.648,1.973,1.973,0,0,0,.712-.12,6.031,6.031,0,0,0,.7-.328,3.168,3.168,0,0,1,.416-.216.923.923,0,0,1,.352-.072.531.531,0,0,1,.432.224.879.879,0,0,1,.176.56.9.9,0,0,1-.12.472,1.081,1.081,0,0,1-.392.36,4.207,4.207,0,0,1-1.152.5A4.953,4.953,0,0,1-25.872.128ZM-20.56.1a1.034,1.034,0,0,1-.712-.248.9.9,0,0,1-.28-.712V-7.04a.876.876,0,0,1,.28-.7,1.055,1.055,0,0,1,.712-.24,1.087,1.087,0,0,1,.72.24.864.864,0,0,1,.288.7V-.864a.888.888,0,0,1-.288.712A1.064,1.064,0,0,1-20.56.1Zm0-9.5a1.222,1.222,0,0,1-.864-.3,1.008,1.008,0,0,1-.32-.776.983.983,0,0,1,.32-.768,1.243,1.243,0,0,1,.864-.288,1.25,1.25,0,0,1,.856.288.971.971,0,0,1,.328.768,1.008,1.008,0,0,1-.32.776A1.222,1.222,0,0,1-20.56-9.408ZM-13.936.128a4.3,4.3,0,0,1-2.1-.5,3.432,3.432,0,0,1-1.4-1.424,4.515,4.515,0,0,1-.5-2.16,4.468,4.468,0,0,1,.5-2.152,3.444,3.444,0,0,1,1.4-1.416,4.3,4.3,0,0,1,2.1-.5,4.3,4.3,0,0,1,2.1.5A3.394,3.394,0,0,1-10.44-6.1a4.527,4.527,0,0,1,.488,2.152,4.575,4.575,0,0,1-.488,2.16A3.382,3.382,0,0,1-11.832-.368,4.3,4.3,0,0,1-13.936.128Zm-.016-1.552a1.793,1.793,0,0,0,1.488-.64,2.973,2.973,0,0,0,.512-1.888,2.979,2.979,0,0,0-.512-1.88,1.765,1.765,0,0,0-1.472-.648,1.788,1.788,0,0,0-1.48.648,2.946,2.946,0,0,0-.52,1.88,2.973,2.973,0,0,0,.512,1.888A1.775,1.775,0,0,0-13.952-1.424Zm.416-7.472a.6.6,0,0,1-.352.128.511.511,0,0,1-.376-.152.492.492,0,0,1-.152-.36.6.6,0,0,1,.128-.352l1.552-2.064a1.059,1.059,0,0,1,.848-.48.817.817,0,0,1,.6.248.8.8,0,0,1,.248.584.936.936,0,0,1-.432.768Zm9.76.88a2.615,2.615,0,0,1,2.1.8A3.628,3.628,0,0,1-.992-4.8V-.864a.935.935,0,0,1-.264.7A1,1,0,0,1-1.984.1,1.03,1.03,0,0,1-2.72-.16a.92.92,0,0,1-.272-.7V-4.688a2.074,2.074,0,0,0-.344-1.328,1.322,1.322,0,0,0-1.08-.416A1.826,1.826,0,0,0-5.8-5.888a2.019,2.019,0,0,0-.52,1.456V-.864a.92.92,0,0,1-.272.7A1.03,1.03,0,0,1-7.328.1,1,1,0,0,1-8.056-.16a.935.935,0,0,1-.264-.7V-7.056a.88.88,0,0,1,.272-.672,1.03,1.03,0,0,1,.736-.256.953.953,0,0,1,.68.248.848.848,0,0,1,.264.648v.432A2.706,2.706,0,0,1-5.3-7.664,3.226,3.226,0,0,1-3.776-8.016Z" transform="translate(124.544 100.401)"/>
        <path id="Trazado_20279" data-name="Trazado 20279" class="cls-6" d="M11.44-1.232a.985.985,0,0,1,.1.416.8.8,0,0,1-.3.624,1.009,1.009,0,0,1-.68.256.909.909,0,0,1-.48-.136A.907.907,0,0,1,9.728-.5L8.768-2.64H3.136L2.176-.5a.907.907,0,0,1-.352.424.937.937,0,0,1-.5.136A1.019,1.019,0,0,1,.656-.192a.787.787,0,0,1-.3-.624.985.985,0,0,1,.1-.416L4.864-10.72a1.032,1.032,0,0,1,.44-.488,1.26,1.26,0,0,1,.632-.168,1.26,1.26,0,0,1,.632.168,1.032,1.032,0,0,1,.44.488ZM3.84-4.24H8.064L5.952-8.992Zm2.352-7.984a.568.568,0,0,1-.256.064.494.494,0,0,1-.352-.136.418.418,0,0,1-.144-.312.507.507,0,0,1,.176-.352l1.456-1.5a.928.928,0,0,1,.688-.32.754.754,0,0,1,.552.232.736.736,0,0,1,.232.536.682.682,0,0,1-.136.4A1.141,1.141,0,0,1,8-13.28Zm11.072,4.24a.861.861,0,0,1,.656.176.781.781,0,0,1,.24.624.872.872,0,0,1-.208.64,1.278,1.278,0,0,1-.752.272l-.48.048a1.944,1.944,0,0,0-1.384.64,2.093,2.093,0,0,0-.44,1.36v3.36a.888.888,0,0,1-.288.712,1.064,1.064,0,0,1-.72.248,1.034,1.034,0,0,1-.712-.248.9.9,0,0,1-.28-.712V-7.056a.856.856,0,0,1,.28-.688,1.032,1.032,0,0,1,.7-.24.962.962,0,0,1,.672.232.85.85,0,0,1,.256.664v.64a2.368,2.368,0,0,1,.9-1.088,2.771,2.771,0,0,1,1.336-.432Zm7.776,5.84a.538.538,0,0,1,.44.208.865.865,0,0,1,.168.56.97.97,0,0,1-.592.832,5.349,5.349,0,0,1-1.232.488,5.079,5.079,0,0,1-1.312.184A4.077,4.077,0,0,1,19.52-.96a3.988,3.988,0,0,1-1.1-2.976,4.566,4.566,0,0,1,.48-2.128A3.49,3.49,0,0,1,20.248-7.5a3.829,3.829,0,0,1,1.976-.512,3.546,3.546,0,0,1,1.84.464A3.146,3.146,0,0,1,25.28-6.24a4.353,4.353,0,0,1,.432,2q0,.688-.608.688h-4.72a2.517,2.517,0,0,0,.624,1.624,2.1,2.1,0,0,0,1.536.52,2.913,2.913,0,0,0,.9-.128,8.923,8.923,0,0,0,.888-.352A1.766,1.766,0,0,1,25.04-2.144ZM22.272-6.608a1.717,1.717,0,0,0-1.3.512,2.417,2.417,0,0,0-.584,1.472H24a2.281,2.281,0,0,0-.48-1.48A1.583,1.583,0,0,0,22.272-6.608ZM30.72-8.016a3.259,3.259,0,0,1,2.424.808,3.383,3.383,0,0,1,.792,2.456v3.9a.9.9,0,0,1-.256.68.969.969,0,0,1-.7.248.936.936,0,0,1-.68-.256.894.894,0,0,1-.264-.672V-1.2a2.088,2.088,0,0,1-.856.976,2.568,2.568,0,0,1-1.352.352A3.139,3.139,0,0,1,28.4-.192a2.533,2.533,0,0,1-1.008-.88,2.224,2.224,0,0,1-.368-1.248,1.977,1.977,0,0,1,.44-1.36A2.644,2.644,0,0,1,28.9-4.4a13.041,13.041,0,0,1,2.736-.224h.4v-.368A1.638,1.638,0,0,0,31.7-6.136a1.43,1.43,0,0,0-1.088-.36,3.452,3.452,0,0,0-.944.136q-.48.136-1.136.392a1.6,1.6,0,0,1-.608.208.6.6,0,0,1-.472-.208.791.791,0,0,1-.184-.544.819.819,0,0,1,.136-.472,1.291,1.291,0,0,1,.456-.376,5.215,5.215,0,0,1,1.336-.48A6.893,6.893,0,0,1,30.72-8.016Zm-.5,6.7a1.709,1.709,0,0,0,1.3-.536,1.939,1.939,0,0,0,.5-1.384v-.336h-.288a11.038,11.038,0,0,0-1.664.1,1.616,1.616,0,0,0-.848.336.856.856,0,0,0-.256.656,1.085,1.085,0,0,0,.36.84A1.27,1.27,0,0,0,30.224-1.312ZM46.8-11.36a1.066,1.066,0,0,1,.736.256.856.856,0,0,1,.288.672V-.864a.9.9,0,0,1-.272.688,1.008,1.008,0,0,1-.72.256,1.008,1.008,0,0,1-.72-.256.9.9,0,0,1-.272-.688v-.4A2.5,2.5,0,0,1,44.824-.24a3.066,3.066,0,0,1-1.512.368,3.243,3.243,0,0,1-1.8-.512A3.4,3.4,0,0,1,40.28-1.832a5,5,0,0,1-.44-2.152,4.845,4.845,0,0,1,.44-2.128A3.333,3.333,0,0,1,41.5-7.52a3.309,3.309,0,0,1,1.808-.5,3.131,3.131,0,0,1,1.5.352,2.442,2.442,0,0,1,1.008.992v-3.792a.848.848,0,0,1,.264-.648A1,1,0,0,1,46.8-11.36ZM43.84-1.424a1.779,1.779,0,0,0,1.48-.656,2.952,2.952,0,0,0,.52-1.872,2.917,2.917,0,0,0-.52-1.864,1.77,1.77,0,0,0-1.464-.648,1.821,1.821,0,0,0-1.488.64,2.823,2.823,0,0,0-.528,1.84A2.989,2.989,0,0,0,42.368-2.1,1.766,1.766,0,0,0,43.84-1.424Zm12.224-.72a.538.538,0,0,1,.44.208.865.865,0,0,1,.168.56.97.97,0,0,1-.592.832,5.349,5.349,0,0,1-1.232.488,5.079,5.079,0,0,1-1.312.184A4.077,4.077,0,0,1,50.544-.96a3.988,3.988,0,0,1-1.1-2.976,4.566,4.566,0,0,1,.48-2.128A3.49,3.49,0,0,1,51.272-7.5a3.829,3.829,0,0,1,1.976-.512,3.546,3.546,0,0,1,1.84.464A3.146,3.146,0,0,1,56.3-6.24a4.354,4.354,0,0,1,.432,2q0,.688-.608.688h-4.72a2.517,2.517,0,0,0,.624,1.624,2.1,2.1,0,0,0,1.536.52,2.913,2.913,0,0,0,.9-.128,8.923,8.923,0,0,0,.888-.352A1.766,1.766,0,0,1,56.064-2.144ZM53.3-6.608a1.717,1.717,0,0,0-1.3.512,2.417,2.417,0,0,0-.584,1.472h3.616a2.281,2.281,0,0,0-.48-1.48A1.583,1.583,0,0,0,53.3-6.608ZM69.2-11.36a1.067,1.067,0,0,1,.736.256.856.856,0,0,1,.288.672V-.864a.9.9,0,0,1-.272.688,1.008,1.008,0,0,1-.72.256,1.008,1.008,0,0,1-.72-.256.9.9,0,0,1-.272-.688v-.4A2.5,2.5,0,0,1,67.224-.24a3.066,3.066,0,0,1-1.512.368,3.243,3.243,0,0,1-1.8-.512A3.4,3.4,0,0,1,62.68-1.832a5,5,0,0,1-.44-2.152,4.845,4.845,0,0,1,.44-2.128A3.333,3.333,0,0,1,63.9-7.52a3.309,3.309,0,0,1,1.808-.5,3.131,3.131,0,0,1,1.5.352,2.442,2.442,0,0,1,1.008.992v-3.792a.848.848,0,0,1,.264-.648A1,1,0,0,1,69.2-11.36ZM66.24-1.424a1.779,1.779,0,0,0,1.48-.656,2.952,2.952,0,0,0,.52-1.872,2.917,2.917,0,0,0-.52-1.864,1.77,1.77,0,0,0-1.464-.648,1.821,1.821,0,0,0-1.488.64,2.823,2.823,0,0,0-.528,1.84A2.989,2.989,0,0,0,64.768-2.1,1.766,1.766,0,0,0,66.24-1.424Zm12.224-.72a.538.538,0,0,1,.44.208.866.866,0,0,1,.168.56.97.97,0,0,1-.592.832,5.349,5.349,0,0,1-1.232.488,5.079,5.079,0,0,1-1.312.184A4.077,4.077,0,0,1,72.944-.96a3.988,3.988,0,0,1-1.1-2.976,4.566,4.566,0,0,1,.48-2.128A3.49,3.49,0,0,1,73.672-7.5a3.829,3.829,0,0,1,1.976-.512,3.546,3.546,0,0,1,1.84.464A3.146,3.146,0,0,1,78.7-6.24a4.353,4.353,0,0,1,.432,2q0,.688-.608.688h-4.72a2.517,2.517,0,0,0,.624,1.624,2.1,2.1,0,0,0,1.536.52,2.913,2.913,0,0,0,.9-.128,8.923,8.923,0,0,0,.888-.352A1.766,1.766,0,0,1,78.464-2.144ZM75.7-6.608a1.717,1.717,0,0,0-1.3.512,2.417,2.417,0,0,0-.584,1.472h3.616a2.281,2.281,0,0,0-.48-1.48A1.583,1.583,0,0,0,75.7-6.608ZM84.7-1.392q.8.048.8.72a.651.651,0,0,1-.312.584A1.489,1.489,0,0,1,84.3.08L83.872.048a2.574,2.574,0,0,1-2.688-2.88V-6.32h-.8a1.016,1.016,0,0,1-.664-.192.685.685,0,0,1-.232-.56.685.685,0,0,1,.232-.56,1.016,1.016,0,0,1,.664-.192h.8V-9.3a.9.9,0,0,1,.272-.688,1.03,1.03,0,0,1,.736-.256,1.008,1.008,0,0,1,.72.256.9.9,0,0,1,.272.688v1.472h1.36a1.016,1.016,0,0,1,.664.192.685.685,0,0,1,.232.56.685.685,0,0,1-.232.56,1.016,1.016,0,0,1-.664.192h-1.36v3.632q0,1.184,1.088,1.264ZM89.92-8.016a3.259,3.259,0,0,1,2.424.808,3.383,3.383,0,0,1,.792,2.456v3.9a.9.9,0,0,1-.256.68.969.969,0,0,1-.7.248.936.936,0,0,1-.68-.256.894.894,0,0,1-.264-.672V-1.2a2.088,2.088,0,0,1-.856.976,2.568,2.568,0,0,1-1.352.352A3.139,3.139,0,0,1,87.6-.192a2.533,2.533,0,0,1-1.008-.88,2.224,2.224,0,0,1-.368-1.248,1.977,1.977,0,0,1,.44-1.36A2.644,2.644,0,0,1,88.1-4.4a13.041,13.041,0,0,1,2.736-.224h.4v-.368A1.638,1.638,0,0,0,90.9-6.136a1.43,1.43,0,0,0-1.088-.36,3.452,3.452,0,0,0-.944.136q-.48.136-1.136.392a1.6,1.6,0,0,1-.608.208.6.6,0,0,1-.472-.208.791.791,0,0,1-.184-.544.819.819,0,0,1,.136-.472,1.291,1.291,0,0,1,.456-.376,5.215,5.215,0,0,1,1.336-.48A6.893,6.893,0,0,1,89.92-8.016Zm-.5,6.7a1.709,1.709,0,0,0,1.3-.536,1.939,1.939,0,0,0,.5-1.384v-.336h-.288a11.038,11.038,0,0,0-1.664.1,1.615,1.615,0,0,0-.848.336.856.856,0,0,0-.256.656,1.085,1.085,0,0,0,.36.84A1.27,1.27,0,0,0,89.424-1.312ZM96.144.1a1.034,1.034,0,0,1-.712-.248.9.9,0,0,1-.28-.712v-9.552a.876.876,0,0,1,.28-.7,1.055,1.055,0,0,1,.712-.24,1.087,1.087,0,0,1,.72.24.864.864,0,0,1,.288.7V-.864a.888.888,0,0,1-.288.712A1.064,1.064,0,0,1,96.144.1Zm4.048,0a1.034,1.034,0,0,1-.712-.248.9.9,0,0,1-.28-.712v-9.552a.876.876,0,0,1,.28-.7,1.055,1.055,0,0,1,.712-.24,1.087,1.087,0,0,1,.72.24.864.864,0,0,1,.288.7V-.864a.888.888,0,0,1-.288.712A1.064,1.064,0,0,1,100.192.1Zm9.248-2.24a.538.538,0,0,1,.44.208.865.865,0,0,1,.168.56.97.97,0,0,1-.592.832,5.349,5.349,0,0,1-1.232.488,5.079,5.079,0,0,1-1.312.184A4.077,4.077,0,0,1,103.92-.96a3.988,3.988,0,0,1-1.1-2.976,4.566,4.566,0,0,1,.48-2.128,3.49,3.49,0,0,1,1.352-1.44,3.829,3.829,0,0,1,1.976-.512,3.546,3.546,0,0,1,1.84.464A3.146,3.146,0,0,1,109.68-6.24a4.353,4.353,0,0,1,.432,2q0,.688-.608.688h-4.72a2.517,2.517,0,0,0,.624,1.624,2.1,2.1,0,0,0,1.536.52,2.913,2.913,0,0,0,.9-.128,8.923,8.923,0,0,0,.888-.352A1.766,1.766,0,0,1,109.44-2.144Zm-2.768-4.464a1.717,1.717,0,0,0-1.3.512,2.417,2.417,0,0,0-.584,1.472H108.4a2.281,2.281,0,0,0-.48-1.48A1.583,1.583,0,0,0,106.672-6.608Z" transform="translate(410.544 54.401)"/>
        <path id="Trazado_20278" data-name="Trazado 20278" class="cls-6" d="M11.44-1.232a.985.985,0,0,1,.1.416.8.8,0,0,1-.3.624,1.009,1.009,0,0,1-.68.256.909.909,0,0,1-.48-.136A.907.907,0,0,1,9.728-.5L8.768-2.64H3.136L2.176-.5a.907.907,0,0,1-.352.424.937.937,0,0,1-.5.136A1.019,1.019,0,0,1,.656-.192a.787.787,0,0,1-.3-.624.985.985,0,0,1,.1-.416L4.864-10.72a1.032,1.032,0,0,1,.44-.488,1.26,1.26,0,0,1,.632-.168,1.26,1.26,0,0,1,.632.168,1.032,1.032,0,0,1,.44.488ZM3.84-4.24H8.064L5.952-8.992Zm2.352-7.984a.568.568,0,0,1-.256.064.494.494,0,0,1-.352-.136.418.418,0,0,1-.144-.312.507.507,0,0,1,.176-.352l1.456-1.5a.928.928,0,0,1,.688-.32.754.754,0,0,1,.552.232.736.736,0,0,1,.232.536.682.682,0,0,1-.136.4A1.141,1.141,0,0,1,8-13.28Zm11.072,4.24a.861.861,0,0,1,.656.176.781.781,0,0,1,.24.624.872.872,0,0,1-.208.64,1.278,1.278,0,0,1-.752.272l-.48.048a1.944,1.944,0,0,0-1.384.64,2.093,2.093,0,0,0-.44,1.36v3.36a.888.888,0,0,1-.288.712,1.064,1.064,0,0,1-.72.248,1.034,1.034,0,0,1-.712-.248.9.9,0,0,1-.28-.712V-7.056a.856.856,0,0,1,.28-.688,1.032,1.032,0,0,1,.7-.24.962.962,0,0,1,.672.232.85.85,0,0,1,.256.664v.64a2.368,2.368,0,0,1,.9-1.088,2.771,2.771,0,0,1,1.336-.432Zm7.776,5.84a.538.538,0,0,1,.44.208.865.865,0,0,1,.168.56.97.97,0,0,1-.592.832,5.349,5.349,0,0,1-1.232.488,5.079,5.079,0,0,1-1.312.184A4.077,4.077,0,0,1,19.52-.96a3.988,3.988,0,0,1-1.1-2.976,4.566,4.566,0,0,1,.48-2.128A3.49,3.49,0,0,1,20.248-7.5a3.829,3.829,0,0,1,1.976-.512,3.546,3.546,0,0,1,1.84.464A3.146,3.146,0,0,1,25.28-6.24a4.353,4.353,0,0,1,.432,2q0,.688-.608.688h-4.72a2.517,2.517,0,0,0,.624,1.624,2.1,2.1,0,0,0,1.536.52,2.913,2.913,0,0,0,.9-.128,8.923,8.923,0,0,0,.888-.352A1.766,1.766,0,0,1,25.04-2.144ZM22.272-6.608a1.717,1.717,0,0,0-1.3.512,2.417,2.417,0,0,0-.584,1.472H24a2.281,2.281,0,0,0-.48-1.48A1.583,1.583,0,0,0,22.272-6.608ZM30.72-8.016a3.259,3.259,0,0,1,2.424.808,3.383,3.383,0,0,1,.792,2.456v3.9a.9.9,0,0,1-.256.68.969.969,0,0,1-.7.248.936.936,0,0,1-.68-.256.894.894,0,0,1-.264-.672V-1.2a2.088,2.088,0,0,1-.856.976,2.568,2.568,0,0,1-1.352.352A3.139,3.139,0,0,1,28.4-.192a2.533,2.533,0,0,1-1.008-.88,2.224,2.224,0,0,1-.368-1.248,1.977,1.977,0,0,1,.44-1.36A2.644,2.644,0,0,1,28.9-4.4a13.041,13.041,0,0,1,2.736-.224h.4v-.368A1.638,1.638,0,0,0,31.7-6.136a1.43,1.43,0,0,0-1.088-.36,3.452,3.452,0,0,0-.944.136q-.48.136-1.136.392a1.6,1.6,0,0,1-.608.208.6.6,0,0,1-.472-.208.791.791,0,0,1-.184-.544.819.819,0,0,1,.136-.472,1.291,1.291,0,0,1,.456-.376,5.215,5.215,0,0,1,1.336-.48A6.893,6.893,0,0,1,30.72-8.016Zm-.5,6.7a1.709,1.709,0,0,0,1.3-.536,1.939,1.939,0,0,0,.5-1.384v-.336h-.288a11.038,11.038,0,0,0-1.664.1,1.616,1.616,0,0,0-.848.336.856.856,0,0,0-.256.656,1.085,1.085,0,0,0,.36.84A1.27,1.27,0,0,0,30.224-1.312ZM46.8-11.36a1.066,1.066,0,0,1,.736.256.856.856,0,0,1,.288.672V-.864a.9.9,0,0,1-.272.688,1.008,1.008,0,0,1-.72.256,1.008,1.008,0,0,1-.72-.256.9.9,0,0,1-.272-.688v-.4A2.5,2.5,0,0,1,44.824-.24a3.066,3.066,0,0,1-1.512.368,3.243,3.243,0,0,1-1.8-.512A3.4,3.4,0,0,1,40.28-1.832a5,5,0,0,1-.44-2.152,4.845,4.845,0,0,1,.44-2.128A3.333,3.333,0,0,1,41.5-7.52a3.309,3.309,0,0,1,1.808-.5,3.131,3.131,0,0,1,1.5.352,2.442,2.442,0,0,1,1.008.992v-3.792a.848.848,0,0,1,.264-.648A1,1,0,0,1,46.8-11.36ZM43.84-1.424a1.779,1.779,0,0,0,1.48-.656,2.952,2.952,0,0,0,.52-1.872,2.917,2.917,0,0,0-.52-1.864,1.77,1.77,0,0,0-1.464-.648,1.821,1.821,0,0,0-1.488.64,2.823,2.823,0,0,0-.528,1.84A2.989,2.989,0,0,0,42.368-2.1,1.766,1.766,0,0,0,43.84-1.424Zm12.224-.72a.538.538,0,0,1,.44.208.865.865,0,0,1,.168.56.97.97,0,0,1-.592.832,5.349,5.349,0,0,1-1.232.488,5.079,5.079,0,0,1-1.312.184A4.077,4.077,0,0,1,50.544-.96a3.988,3.988,0,0,1-1.1-2.976,4.566,4.566,0,0,1,.48-2.128A3.49,3.49,0,0,1,51.272-7.5a3.829,3.829,0,0,1,1.976-.512,3.546,3.546,0,0,1,1.84.464A3.146,3.146,0,0,1,56.3-6.24a4.354,4.354,0,0,1,.432,2q0,.688-.608.688h-4.72a2.517,2.517,0,0,0,.624,1.624,2.1,2.1,0,0,0,1.536.52,2.913,2.913,0,0,0,.9-.128,8.923,8.923,0,0,0,.888-.352A1.766,1.766,0,0,1,56.064-2.144ZM53.3-6.608a1.717,1.717,0,0,0-1.3.512,2.417,2.417,0,0,0-.584,1.472h3.616a2.281,2.281,0,0,0-.48-1.48A1.583,1.583,0,0,0,53.3-6.608ZM63.664.1a1.034,1.034,0,0,1-.712-.248.9.9,0,0,1-.28-.712V-7.04a.876.876,0,0,1,.28-.7,1.055,1.055,0,0,1,.712-.24,1.087,1.087,0,0,1,.72.24.864.864,0,0,1,.288.7V-.864a.888.888,0,0,1-.288.712A1.064,1.064,0,0,1,63.664.1Zm0-9.5a1.222,1.222,0,0,1-.864-.3,1.008,1.008,0,0,1-.32-.776.983.983,0,0,1,.32-.768,1.243,1.243,0,0,1,.864-.288,1.25,1.25,0,0,1,.856.288.971.971,0,0,1,.328.768,1.008,1.008,0,0,1-.32.776A1.222,1.222,0,0,1,63.664-9.408Zm7.6,1.392a2.615,2.615,0,0,1,2.1.8A3.628,3.628,0,0,1,74.048-4.8V-.864a.935.935,0,0,1-.264.7A1,1,0,0,1,73.056.1,1.03,1.03,0,0,1,72.32-.16a.92.92,0,0,1-.272-.7V-4.688A2.074,2.074,0,0,0,71.7-6.016a1.322,1.322,0,0,0-1.08-.416,1.826,1.826,0,0,0-1.384.544,2.019,2.019,0,0,0-.52,1.456V-.864a.92.92,0,0,1-.272.7A1.03,1.03,0,0,1,67.712.1a1,1,0,0,1-.728-.256.935.935,0,0,1-.264-.7V-7.056a.88.88,0,0,1,.272-.672,1.03,1.03,0,0,1,.736-.256.953.953,0,0,1,.68.248.848.848,0,0,1,.264.648v.432a2.706,2.706,0,0,1,1.072-1.008A3.226,3.226,0,0,1,71.264-8.016Zm8.864,6.624q.8.048.8.72a.651.651,0,0,1-.312.584,1.489,1.489,0,0,1-.888.168L79.3.048a2.574,2.574,0,0,1-2.688-2.88V-6.32h-.8a1.016,1.016,0,0,1-.664-.192.685.685,0,0,1-.232-.56.685.685,0,0,1,.232-.56,1.016,1.016,0,0,1,.664-.192h.8V-9.3a.9.9,0,0,1,.272-.688,1.03,1.03,0,0,1,.736-.256,1.008,1.008,0,0,1,.72.256.9.9,0,0,1,.272.688v1.472h1.36a1.016,1.016,0,0,1,.664.192.685.685,0,0,1,.232.56.685.685,0,0,1-.232.56,1.016,1.016,0,0,1-.664.192h-1.36v3.632q0,1.184,1.088,1.264Zm8.016-.752a.538.538,0,0,1,.44.208.865.865,0,0,1,.168.56.97.97,0,0,1-.592.832,5.349,5.349,0,0,1-1.232.488,5.079,5.079,0,0,1-1.312.184A4.077,4.077,0,0,1,82.624-.96a3.988,3.988,0,0,1-1.1-2.976A4.566,4.566,0,0,1,82-6.064,3.49,3.49,0,0,1,83.352-7.5a3.829,3.829,0,0,1,1.976-.512,3.546,3.546,0,0,1,1.84.464A3.146,3.146,0,0,1,88.384-6.24a4.353,4.353,0,0,1,.432,2q0,.688-.608.688h-4.72a2.517,2.517,0,0,0,.624,1.624,2.1,2.1,0,0,0,1.536.52,2.913,2.913,0,0,0,.9-.128,8.923,8.923,0,0,0,.888-.352A1.766,1.766,0,0,1,88.144-2.144ZM85.376-6.608a1.717,1.717,0,0,0-1.3.512,2.417,2.417,0,0,0-.584,1.472H87.1a2.281,2.281,0,0,0-.48-1.48A1.583,1.583,0,0,0,85.376-6.608ZM94.8-7.984a.861.861,0,0,1,.656.176.781.781,0,0,1,.24.624.872.872,0,0,1-.208.64,1.278,1.278,0,0,1-.752.272l-.48.048a1.944,1.944,0,0,0-1.384.64,2.093,2.093,0,0,0-.44,1.36v3.36a.888.888,0,0,1-.288.712,1.064,1.064,0,0,1-.72.248,1.034,1.034,0,0,1-.712-.248.9.9,0,0,1-.28-.712V-7.056a.856.856,0,0,1,.28-.688,1.032,1.032,0,0,1,.7-.24.962.962,0,0,1,.672.232.85.85,0,0,1,.256.664v.64a2.368,2.368,0,0,1,.9-1.088,2.771,2.771,0,0,1,1.336-.432Zm5.1-.032a3.259,3.259,0,0,1,2.424.808,3.383,3.383,0,0,1,.792,2.456v3.9a.9.9,0,0,1-.256.68.969.969,0,0,1-.7.248.936.936,0,0,1-.68-.256.894.894,0,0,1-.264-.672V-1.2a2.088,2.088,0,0,1-.856.976,2.568,2.568,0,0,1-1.352.352,3.139,3.139,0,0,1-1.424-.32,2.533,2.533,0,0,1-1.008-.88,2.224,2.224,0,0,1-.368-1.248,1.977,1.977,0,0,1,.44-1.36A2.644,2.644,0,0,1,98.08-4.4a13.041,13.041,0,0,1,2.736-.224h.4v-.368a1.638,1.638,0,0,0-.336-1.144,1.43,1.43,0,0,0-1.088-.36,3.452,3.452,0,0,0-.944.136q-.48.136-1.136.392a1.6,1.6,0,0,1-.608.208.6.6,0,0,1-.472-.208.791.791,0,0,1-.184-.544.819.819,0,0,1,.136-.472,1.291,1.291,0,0,1,.456-.376,5.215,5.215,0,0,1,1.336-.48A6.893,6.893,0,0,1,99.9-8.016Zm-.5,6.7a1.709,1.709,0,0,0,1.3-.536,1.939,1.939,0,0,0,.5-1.384v-.336h-.288a11.038,11.038,0,0,0-1.664.1,1.615,1.615,0,0,0-.848.336.856.856,0,0,0-.256.656,1.085,1.085,0,0,0,.36.84A1.27,1.27,0,0,0,99.408-1.312Zm9.2,1.44a4.146,4.146,0,0,1-2.056-.5,3.381,3.381,0,0,1-1.368-1.408A4.505,4.505,0,0,1,104.7-3.9a4.468,4.468,0,0,1,.5-2.152A3.56,3.56,0,0,1,106.624-7.5a4.208,4.208,0,0,1,2.1-.512,4.665,4.665,0,0,1,1.256.176,4.143,4.143,0,0,1,1.112.48.99.99,0,0,1,.512.848.9.9,0,0,1-.168.568.531.531,0,0,1-.44.216.956.956,0,0,1-.368-.08A3.223,3.223,0,0,1,110.24-6a4.3,4.3,0,0,0-.672-.328,2.088,2.088,0,0,0-.736-.12A1.871,1.871,0,0,0,107.3-5.8a2.855,2.855,0,0,0-.536,1.864,2.827,2.827,0,0,0,.536,1.848,1.871,1.871,0,0,0,1.528.648,1.973,1.973,0,0,0,.712-.12,6.031,6.031,0,0,0,.7-.328,3.168,3.168,0,0,1,.416-.216.923.923,0,0,1,.352-.072.531.531,0,0,1,.432.224.879.879,0,0,1,.176.56.9.9,0,0,1-.12.472,1.081,1.081,0,0,1-.392.36,4.207,4.207,0,0,1-1.152.5A4.953,4.953,0,0,1,108.608.128Zm7.792,0a4.146,4.146,0,0,1-2.056-.5,3.381,3.381,0,0,1-1.368-1.408A4.505,4.505,0,0,1,112.5-3.9a4.468,4.468,0,0,1,.5-2.152A3.56,3.56,0,0,1,114.416-7.5a4.208,4.208,0,0,1,2.1-.512,4.665,4.665,0,0,1,1.256.176,4.143,4.143,0,0,1,1.112.48.99.99,0,0,1,.512.848.9.9,0,0,1-.168.568.531.531,0,0,1-.44.216.956.956,0,0,1-.368-.08A3.223,3.223,0,0,1,118.032-6a4.3,4.3,0,0,0-.672-.328,2.088,2.088,0,0,0-.736-.12A1.871,1.871,0,0,0,115.1-5.8a2.855,2.855,0,0,0-.536,1.864,2.827,2.827,0,0,0,.536,1.848,1.871,1.871,0,0,0,1.528.648,1.973,1.973,0,0,0,.712-.12,6.031,6.031,0,0,0,.7-.328,3.168,3.168,0,0,1,.416-.216.923.923,0,0,1,.352-.072.531.531,0,0,1,.432.224.879.879,0,0,1,.176.56.9.9,0,0,1-.12.472,1.081,1.081,0,0,1-.392.36,4.207,4.207,0,0,1-1.152.5A4.953,4.953,0,0,1,116.4.128ZM121.712.1A1.034,1.034,0,0,1,121-.152a.9.9,0,0,1-.28-.712V-7.04a.876.876,0,0,1,.28-.7,1.055,1.055,0,0,1,.712-.24,1.087,1.087,0,0,1,.72.24.864.864,0,0,1,.288.7V-.864a.888.888,0,0,1-.288.712A1.064,1.064,0,0,1,121.712.1Zm0-9.5a1.222,1.222,0,0,1-.864-.3,1.008,1.008,0,0,1-.32-.776.983.983,0,0,1,.32-.768,1.243,1.243,0,0,1,.864-.288,1.25,1.25,0,0,1,.856.288.971.971,0,0,1,.328.768,1.008,1.008,0,0,1-.32.776A1.222,1.222,0,0,1,121.712-9.408ZM128.336.128a4.3,4.3,0,0,1-2.1-.5,3.432,3.432,0,0,1-1.4-1.424,4.515,4.515,0,0,1-.5-2.16,4.468,4.468,0,0,1,.5-2.152,3.444,3.444,0,0,1,1.4-1.416,4.3,4.3,0,0,1,2.1-.5,4.3,4.3,0,0,1,2.1.5A3.394,3.394,0,0,1,131.832-6.1a4.527,4.527,0,0,1,.488,2.152,4.575,4.575,0,0,1-.488,2.16A3.382,3.382,0,0,1,130.44-.368,4.3,4.3,0,0,1,128.336.128Zm-.016-1.552a1.793,1.793,0,0,0,1.488-.64,2.973,2.973,0,0,0,.512-1.888,2.979,2.979,0,0,0-.512-1.88,1.765,1.765,0,0,0-1.472-.648,1.788,1.788,0,0,0-1.48.648,2.946,2.946,0,0,0-.52,1.88,2.973,2.973,0,0,0,.512,1.888A1.775,1.775,0,0,0,128.32-1.424Zm.416-7.472a.6.6,0,0,1-.352.128.511.511,0,0,1-.376-.152.492.492,0,0,1-.152-.36.6.6,0,0,1,.128-.352l1.552-2.064a1.059,1.059,0,0,1,.848-.48.817.817,0,0,1,.6.248.8.8,0,0,1,.248.584.936.936,0,0,1-.432.768Zm9.76.88a2.615,2.615,0,0,1,2.1.8A3.628,3.628,0,0,1,141.28-4.8V-.864a.935.935,0,0,1-.264.7,1,1,0,0,1-.728.256,1.03,1.03,0,0,1-.736-.256.92.92,0,0,1-.272-.7V-4.688a2.074,2.074,0,0,0-.344-1.328,1.322,1.322,0,0,0-1.08-.416,1.826,1.826,0,0,0-1.384.544,2.019,2.019,0,0,0-.52,1.456V-.864a.92.92,0,0,1-.272.7,1.03,1.03,0,0,1-.736.256,1,1,0,0,1-.728-.256.935.935,0,0,1-.264-.7V-7.056a.88.88,0,0,1,.272-.672,1.03,1.03,0,0,1,.736-.256.953.953,0,0,1,.68.248.848.848,0,0,1,.264.648v.432a2.706,2.706,0,0,1,1.072-1.008A3.226,3.226,0,0,1,138.5-8.016Z" transform="translate(410.544 185.401)"/>
        <path id="Trazado_20306" data-name="Trazado 20306" class="cls-7" d="M8.684-4.729A4.685,4.685,0,0,1,7.436-1.216,4.935,4.935,0,0,1,3.847,0H1.276V-9.28H4.12a4.548,4.548,0,0,1,3.364,1.2A4.531,4.531,0,0,1,8.684-4.729Zm-1.143.038A3.736,3.736,0,0,0,6.63-7.427a3.65,3.65,0,0,0-2.707-.92H2.355V-.933H3.669a4,4,0,0,0,2.9-.949A3.757,3.757,0,0,0,7.541-4.691ZM13.533.127A3.2,3.2,0,0,1,11.1-.812a3.637,3.637,0,0,1-.892-2.609,4.033,4.033,0,0,1,.828-2.672,2.752,2.752,0,0,1,2.225-.99,2.624,2.624,0,0,1,2.069.86,3.3,3.3,0,0,1,.762,2.269v.667H11.3a2.758,2.758,0,0,0,.619,1.86,2.141,2.141,0,0,0,1.654.635,5.6,5.6,0,0,0,2.222-.47v.939a5.576,5.576,0,0,1-1.057.346A5.939,5.939,0,0,1,13.533.127ZM13.248-6.2a1.721,1.721,0,0,0-1.336.546,2.516,2.516,0,0,0-.587,1.511h3.637a2.317,2.317,0,0,0-.444-1.527A1.564,1.564,0,0,0,13.248-6.2Zm9.128,4.3a1.743,1.743,0,0,1-.724,1.5,3.4,3.4,0,0,1-2.031.527,4.417,4.417,0,0,1-2.158-.438v-.978a5.219,5.219,0,0,0,1.076.4,4.493,4.493,0,0,0,1.108.146,2.512,2.512,0,0,0,1.27-.263.871.871,0,0,0,.444-.8.872.872,0,0,0-.352-.7,5.542,5.542,0,0,0-1.374-.682,7.452,7.452,0,0,1-1.381-.632,1.886,1.886,0,0,1-.609-.613,1.6,1.6,0,0,1-.2-.819,1.561,1.561,0,0,1,.692-1.343,3.224,3.224,0,0,1,1.9-.492,5.553,5.553,0,0,1,2.2.457l-.375.857a5.041,5.041,0,0,0-1.9-.432,2.184,2.184,0,0,0-1.13.235.726.726,0,0,0-.381.647.789.789,0,0,0,.143.476,1.409,1.409,0,0,0,.46.375,10.284,10.284,0,0,0,1.219.514,4.553,4.553,0,0,1,1.673.908A1.6,1.6,0,0,1,22.375-1.9ZM26.87.127A2.969,2.969,0,0,1,24.531-.8,3.824,3.824,0,0,1,23.7-3.434a3.943,3.943,0,0,1,.841-2.7,3.028,3.028,0,0,1,2.4-.952,4.755,4.755,0,0,1,1,.108,3.3,3.3,0,0,1,.787.254l-.324.9a4.955,4.955,0,0,0-.762-.232,3.4,3.4,0,0,0-.73-.092q-2.12,0-2.12,2.7a3.22,3.22,0,0,0,.517,1.968,1.8,1.8,0,0,0,1.533.686,4.687,4.687,0,0,0,1.784-.375v.933A3.8,3.8,0,0,1,26.87.127Zm6.583-7.211a4.123,4.123,0,0,1,.832.076l-.146.978a3.589,3.589,0,0,0-.762-.1,1.854,1.854,0,0,0-1.444.686,2.5,2.5,0,0,0-.6,1.708V0H30.278V-6.957h.87l.121,1.289h.051a3.058,3.058,0,0,1,.933-1.047A2.1,2.1,0,0,1,33.452-7.084ZM36.639,0H35.585V-6.957h1.054ZM35.5-8.842a.7.7,0,0,1,.178-.53.621.621,0,0,1,.444-.168.621.621,0,0,1,.438.171.687.687,0,0,1,.184.527.7.7,0,0,1-.184.53.615.615,0,0,1-.438.175.609.609,0,0,1-.444-.175A.713.713,0,0,1,35.5-8.842ZM42.11.127a3.011,3.011,0,0,1-1.241-.251A2.334,2.334,0,0,1,39.927-.9h-.076A9.332,9.332,0,0,1,39.927.26V3.123H38.873V-6.957h.857L39.876-6h.051a2.447,2.447,0,0,1,.946-.825,2.875,2.875,0,0,1,1.238-.254,2.571,2.571,0,0,1,2.136.946A4.164,4.164,0,0,1,45-3.485a4.14,4.14,0,0,1-.765,2.663A2.576,2.576,0,0,1,42.11.127Zm-.152-6.316a1.867,1.867,0,0,0-1.542.59,3.038,3.038,0,0,0-.489,1.879v.235a3.482,3.482,0,0,0,.489,2.1,1.859,1.859,0,0,0,1.568.632,1.63,1.63,0,0,0,1.412-.73A3.461,3.461,0,0,0,43.907-3.5a3.332,3.332,0,0,0-.511-2A1.681,1.681,0,0,0,41.958-6.189ZM49.62.127A2.969,2.969,0,0,1,47.281-.8a3.824,3.824,0,0,1-.828-2.631,3.943,3.943,0,0,1,.841-2.7,3.028,3.028,0,0,1,2.4-.952,4.755,4.755,0,0,1,1,.108,3.3,3.3,0,0,1,.787.254l-.324.9a4.955,4.955,0,0,0-.762-.232,3.4,3.4,0,0,0-.73-.092q-2.12,0-2.12,2.7a3.22,3.22,0,0,0,.517,1.968,1.8,1.8,0,0,0,1.533.686,4.687,4.687,0,0,0,1.784-.375v.933A3.8,3.8,0,0,1,49.62.127ZM54.082,0H53.028V-6.957h1.054ZM52.939-8.842a.7.7,0,0,1,.178-.53.621.621,0,0,1,.444-.168A.621.621,0,0,1,54-9.369a.687.687,0,0,1,.184.527.7.7,0,0,1-.184.53.615.615,0,0,1-.438.175.609.609,0,0,1-.444-.175A.713.713,0,0,1,52.939-8.842Zm9.382,5.357a3.838,3.838,0,0,1-.857,2.656A3.018,3.018,0,0,1,59.1.127,3.136,3.136,0,0,1,57.44-.311a2.891,2.891,0,0,1-1.117-1.257,4.38,4.38,0,0,1-.394-1.917,3.832,3.832,0,0,1,.851-2.65,3.008,3.008,0,0,1,2.361-.949,2.943,2.943,0,0,1,2.32.971A3.821,3.821,0,0,1,62.321-3.485Zm-5.3,0a3.3,3.3,0,0,0,.533,2.031,1.851,1.851,0,0,0,1.568.7,1.863,1.863,0,0,0,1.571-.7,3.285,3.285,0,0,0,.536-2.034A3.232,3.232,0,0,0,60.693-5.5a1.885,1.885,0,0,0-1.584-.689,1.855,1.855,0,0,0-1.562.679A3.269,3.269,0,0,0,57.021-3.485ZM58.24-8.036q.3-.394.657-.952a10.9,10.9,0,0,0,.555-.971h1.282v.133A9.384,9.384,0,0,1,59.9-8.811a9.441,9.441,0,0,1-.958.933h-.7ZM68.929,0V-4.5a1.816,1.816,0,0,0-.387-1.27,1.577,1.577,0,0,0-1.212-.419,2,2,0,0,0-1.6.59,2.98,2.98,0,0,0-.508,1.949V0H64.168V-6.957h.857L65.2-6h.051a2.152,2.152,0,0,1,.908-.8,2.949,2.949,0,0,1,1.3-.282,2.643,2.643,0,0,1,1.892.606,2.58,2.58,0,0,1,.635,1.939V0ZM80.26-.933H80.2A2.476,2.476,0,0,1,78.019.127,2.583,2.583,0,0,1,75.9-.806a4.107,4.107,0,0,1-.759-2.653A4.177,4.177,0,0,1,75.9-6.132a2.563,2.563,0,0,1,2.12-.952A2.53,2.53,0,0,1,80.19-6.056h.083l-.044-.5L80.2-7.046V-9.877h1.054V0H80.4Zm-2.107.178a1.918,1.918,0,0,0,1.565-.587A2.967,2.967,0,0,0,80.2-3.237v-.222a3.491,3.491,0,0,0-.492-2.111A1.868,1.868,0,0,0,78.14-6.2a1.613,1.613,0,0,0-1.419.72,3.582,3.582,0,0,0-.492,2.034,3.434,3.434,0,0,0,.489,2.012A1.655,1.655,0,0,0,78.152-.755ZM86.43.127A3.2,3.2,0,0,1,84-.812,3.637,3.637,0,0,1,83.1-3.421a4.033,4.033,0,0,1,.828-2.672,2.752,2.752,0,0,1,2.225-.99,2.624,2.624,0,0,1,2.069.86,3.3,3.3,0,0,1,.762,2.269v.667H84.2a2.758,2.758,0,0,0,.619,1.86,2.141,2.141,0,0,0,1.654.635,5.6,5.6,0,0,0,2.222-.47v.939a5.576,5.576,0,0,1-1.057.346A5.939,5.939,0,0,1,86.43.127ZM86.144-6.2a1.721,1.721,0,0,0-1.336.546,2.516,2.516,0,0,0-.587,1.511h3.637a2.317,2.317,0,0,0-.444-1.527A1.564,1.564,0,0,0,86.144-6.2ZM91.838,0H90.784V-9.877h1.054Zm8.55.127a3.2,3.2,0,0,1-2.434-.939,3.637,3.637,0,0,1-.892-2.609,4.033,4.033,0,0,1,.828-2.672,2.752,2.752,0,0,1,2.225-.99,2.624,2.624,0,0,1,2.069.86,3.3,3.3,0,0,1,.762,2.269v.667H98.154a2.758,2.758,0,0,0,.619,1.86,2.141,2.141,0,0,0,1.654.635,5.6,5.6,0,0,0,2.222-.47v.939a5.576,5.576,0,0,1-1.057.346A5.939,5.939,0,0,1,100.388.127ZM100.1-6.2a1.721,1.721,0,0,0-1.336.546,2.516,2.516,0,0,0-.587,1.511h3.637a2.317,2.317,0,0,0-.444-1.527A1.564,1.564,0,0,0,100.1-6.2Zm9.128,4.3a1.743,1.743,0,0,1-.724,1.5,3.4,3.4,0,0,1-2.031.527,4.417,4.417,0,0,1-2.158-.438v-.978a5.219,5.219,0,0,0,1.076.4,4.493,4.493,0,0,0,1.108.146,2.512,2.512,0,0,0,1.27-.263.871.871,0,0,0,.444-.8.872.872,0,0,0-.352-.7,5.542,5.542,0,0,0-1.374-.682,7.452,7.452,0,0,1-1.381-.632,1.886,1.886,0,0,1-.609-.613,1.6,1.6,0,0,1-.2-.819,1.561,1.561,0,0,1,.692-1.343,3.224,3.224,0,0,1,1.9-.492,5.553,5.553,0,0,1,2.2.457l-.375.857a5.041,5.041,0,0,0-1.9-.432,2.184,2.184,0,0,0-1.13.235.726.726,0,0,0-.381.647.789.789,0,0,0,.143.476,1.409,1.409,0,0,0,.46.375,10.284,10.284,0,0,0,1.219.514,4.553,4.553,0,0,1,1.673.908A1.6,1.6,0,0,1,109.23-1.9Zm3.961,1.155a3.442,3.442,0,0,0,.54-.041,3.493,3.493,0,0,0,.413-.086v.806a1.926,1.926,0,0,1-.5.136,3.79,3.79,0,0,1-.6.054q-2.019,0-2.019-2.126V-6.138h-1v-.508l1-.438.444-1.485h.609v1.612h2.019v.819h-2.019v4.094a1.408,1.408,0,0,0,.3.965A1.038,1.038,0,0,0,113.191-.743ZM119.812,0,119.6-.99h-.051a2.928,2.928,0,0,1-1.038.885,3.163,3.163,0,0,1-1.292.232A2.324,2.324,0,0,1,115.6-.406a1.945,1.945,0,0,1-.587-1.517q0-2.107,3.371-2.209l1.181-.038V-4.6a1.764,1.764,0,0,0-.352-1.209,1.449,1.449,0,0,0-1.127-.39,4.591,4.591,0,0,0-1.968.533l-.324-.806a4.952,4.952,0,0,1,1.127-.438,4.88,4.88,0,0,1,1.228-.159,2.65,2.65,0,0,1,1.844.552,2.305,2.305,0,0,1,.6,1.771V0Zm-2.38-.743a2.139,2.139,0,0,0,1.546-.54,2,2,0,0,0,.562-1.511v-.628l-1.054.044a3.833,3.833,0,0,0-1.812.39,1.177,1.177,0,0,0-.555,1.076,1.086,1.086,0,0,0,.346.87A1.436,1.436,0,0,0,117.432-.743ZM127.5-.933h-.057a2.476,2.476,0,0,1-2.184,1.06,2.583,2.583,0,0,1-2.123-.933,4.107,4.107,0,0,1-.759-2.653,4.177,4.177,0,0,1,.762-2.672,2.563,2.563,0,0,1,2.12-.952,2.53,2.53,0,0,1,2.171,1.028h.083l-.044-.5-.025-.489V-9.877H128.5V0h-.857Zm-2.107.178a1.918,1.918,0,0,0,1.565-.587,2.967,2.967,0,0,0,.486-1.895v-.222a3.491,3.491,0,0,0-.492-2.111,1.868,1.868,0,0,0-1.571-.632,1.613,1.613,0,0,0-1.419.72,3.582,3.582,0,0,0-.492,2.034,3.434,3.434,0,0,0,.489,2.012A1.655,1.655,0,0,0,125.392-.755Zm11.343-2.729a3.838,3.838,0,0,1-.857,2.656,3.018,3.018,0,0,1-2.368.955,3.136,3.136,0,0,1-1.657-.438,2.891,2.891,0,0,1-1.117-1.257,4.38,4.38,0,0,1-.394-1.917,3.832,3.832,0,0,1,.851-2.65,3.008,3.008,0,0,1,2.361-.949,2.943,2.943,0,0,1,2.32.971A3.821,3.821,0,0,1,136.735-3.485Zm-5.3,0a3.3,3.3,0,0,0,.533,2.031,1.851,1.851,0,0,0,1.568.7,1.863,1.863,0,0,0,1.571-.7,3.285,3.285,0,0,0,.536-2.034,3.232,3.232,0,0,0-.536-2.015,1.885,1.885,0,0,0-1.584-.689,1.855,1.855,0,0,0-1.562.679A3.269,3.269,0,0,0,131.435-3.485ZM6.786,15.347a6.777,6.777,0,0,1-.759,3.593,2.563,2.563,0,0,1-2.32,1.187,2.541,2.541,0,0,1-2.279-1.216,6.643,6.643,0,0,1-.781-3.564,6.775,6.775,0,0,1,.755-3.6,2.551,2.551,0,0,1,2.3-1.174A2.555,2.555,0,0,1,6,11.8,6.614,6.614,0,0,1,6.786,15.347Zm-5.072,0A6.8,6.8,0,0,0,2.19,18.3a1.592,1.592,0,0,0,1.517.924,1.593,1.593,0,0,0,1.527-.936,6.849,6.849,0,0,0,.473-2.936,6.8,6.8,0,0,0-.473-2.929,1.594,1.594,0,0,0-1.527-.93,1.593,1.593,0,0,0-1.517.917A6.751,6.751,0,0,0,1.714,15.347ZM11.972,20H10.943V13.386q0-.825.051-1.562-.133.133-.3.279T9.185,13.341l-.559-.724,2.457-1.9h.889Zm7.535-9.28L16.047,20H14.993l3.459-9.28Zm6.919,4.627a6.777,6.777,0,0,1-.759,3.593,2.563,2.563,0,0,1-2.32,1.187,2.541,2.541,0,0,1-2.279-1.216,6.643,6.643,0,0,1-.781-3.564,6.775,6.775,0,0,1,.755-3.6,2.551,2.551,0,0,1,2.3-1.174A2.555,2.555,0,0,1,25.641,11.8,6.614,6.614,0,0,1,26.425,15.347Zm-5.072,0A6.8,6.8,0,0,0,21.83,18.3a1.71,1.71,0,0,0,3.044-.013,6.849,6.849,0,0,0,.473-2.936,6.8,6.8,0,0,0-.473-2.929,1.716,1.716,0,0,0-3.044-.013A6.751,6.751,0,0,0,21.354,15.347Zm9.255-1.016a3.412,3.412,0,0,1,2.307.727,2.493,2.493,0,0,1,.841,1.99,2.874,2.874,0,0,1-.917,2.26,3.664,3.664,0,0,1-2.53.819,4.655,4.655,0,0,1-2.393-.5V18.61a3.637,3.637,0,0,0,1.1.448,5.451,5.451,0,0,0,1.3.162,2.6,2.6,0,0,0,1.736-.527,1.89,1.89,0,0,0,.619-1.523q0-1.942-2.38-1.942a9.477,9.477,0,0,0-1.612.184l-.546-.349.349-4.342H33.1v.971H29.39l-.235,2.787A7.4,7.4,0,0,1,30.608,14.332Zm8.538-3.612L35.687,20H34.633l3.459-9.28ZM46.014,20h-6.1v-.908l2.444-2.457a18,18,0,0,0,1.473-1.612,4.115,4.115,0,0,0,.533-.939,2.691,2.691,0,0,0,.178-.984,1.56,1.56,0,0,0-.451-1.177,1.726,1.726,0,0,0-1.25-.435,3.144,3.144,0,0,0-1.095.19,4.365,4.365,0,0,0-1.152.692l-.559-.717a4.278,4.278,0,0,1,2.793-1.066,2.951,2.951,0,0,1,2.05.67,2.3,2.3,0,0,1,.743,1.8,3.475,3.475,0,0,1-.5,1.746,11.083,11.083,0,0,1-1.854,2.184l-2.031,1.987v.051h4.773ZM53.5,15.347a6.777,6.777,0,0,1-.759,3.593,2.8,2.8,0,0,1-4.6-.029,6.643,6.643,0,0,1-.781-3.564,6.775,6.775,0,0,1,.755-3.6,2.8,2.8,0,0,1,4.6.051A6.614,6.614,0,0,1,53.5,15.347Zm-5.072,0A6.8,6.8,0,0,0,48.9,18.3a1.71,1.71,0,0,0,3.044-.013,6.849,6.849,0,0,0,.473-2.936,6.8,6.8,0,0,0-.473-2.929,1.716,1.716,0,0,0-3.044-.013A6.751,6.751,0,0,0,48.426,15.347ZM60.88,20h-6.1v-.908l2.444-2.457A18,18,0,0,0,58.7,15.023a4.115,4.115,0,0,0,.533-.939,2.691,2.691,0,0,0,.178-.984,1.56,1.56,0,0,0-.451-1.177,1.726,1.726,0,0,0-1.25-.435,3.144,3.144,0,0,0-1.095.19,4.365,4.365,0,0,0-1.152.692l-.559-.717a4.278,4.278,0,0,1,2.793-1.066,2.951,2.951,0,0,1,2.05.67,2.3,2.3,0,0,1,.743,1.8,3.475,3.475,0,0,1-.5,1.746,11.083,11.083,0,0,1-1.854,2.184l-2.031,1.987v.051H60.88Zm7.484-4.653a6.777,6.777,0,0,1-.759,3.593,2.8,2.8,0,0,1-4.6-.029,6.643,6.643,0,0,1-.781-3.564,6.775,6.775,0,0,1,.755-3.6,2.8,2.8,0,0,1,4.6.051A6.614,6.614,0,0,1,68.364,15.347Zm-5.072,0a6.8,6.8,0,0,0,.476,2.948,1.71,1.71,0,0,0,3.044-.013,6.849,6.849,0,0,0,.473-2.936,6.8,6.8,0,0,0-.473-2.929,1.716,1.716,0,0,0-3.044-.013A6.751,6.751,0,0,0,63.292,15.347ZM72.922,17v-.965h3.117V17Zm11.565,3H83.459V13.386q0-.825.051-1.562-.133.133-.3.279T81.7,13.341l-.559-.724,2.457-1.9h.889Zm9.68-4.653a6.777,6.777,0,0,1-.759,3.593,2.8,2.8,0,0,1-4.6-.029,6.643,6.643,0,0,1-.781-3.564,6.775,6.775,0,0,1,.755-3.6,2.8,2.8,0,0,1,4.6.051A6.614,6.614,0,0,1,94.167,15.347Zm-5.072,0a6.8,6.8,0,0,0,.476,2.948,1.71,1.71,0,0,0,3.044-.013,6.849,6.849,0,0,0,.473-2.936,6.8,6.8,0,0,0-.473-2.929,1.716,1.716,0,0,0-3.044-.013A6.751,6.751,0,0,0,89.1,15.347Zm6.684,3.98a.945.945,0,0,1,.194-.644.7.7,0,0,1,.555-.219.751.751,0,0,1,.574.219.907.907,0,0,1,.206.644.89.89,0,0,1-.209.635.833.833,0,0,1-1.108.022A.869.869,0,0,1,95.78,19.327Zm0-5.6q0-.857.749-.857.781,0,.781.857a.89.89,0,0,1-.209.635.833.833,0,0,1-1.108.022A.869.869,0,0,1,95.78,13.722Zm9.28,1.625a6.777,6.777,0,0,1-.759,3.593,2.8,2.8,0,0,1-4.6-.029,6.643,6.643,0,0,1-.781-3.564,6.775,6.775,0,0,1,.755-3.6,2.8,2.8,0,0,1,4.6.051A6.614,6.614,0,0,1,105.06,15.347Zm-5.072,0a6.8,6.8,0,0,0,.476,2.948,1.71,1.71,0,0,0,3.044-.013,6.849,6.849,0,0,0,.473-2.936,6.8,6.8,0,0,0-.473-2.929,1.716,1.716,0,0,0-3.044-.013A6.751,6.751,0,0,0,99.988,15.347Zm12.5,0a6.777,6.777,0,0,1-.759,3.593,2.8,2.8,0,0,1-4.6-.029,6.643,6.643,0,0,1-.781-3.564,6.775,6.775,0,0,1,.755-3.6,2.8,2.8,0,0,1,4.6.051A6.614,6.614,0,0,1,112.493,15.347Zm-5.072,0A6.8,6.8,0,0,0,107.9,18.3a1.71,1.71,0,0,0,3.044-.013,6.849,6.849,0,0,0,.473-2.936,6.8,6.8,0,0,0-.473-2.929,1.716,1.716,0,0,0-3.044-.013A6.751,6.751,0,0,0,107.421,15.347ZM122.4,20V15.5a1.816,1.816,0,0,0-.387-1.27,1.577,1.577,0,0,0-1.212-.419,1.987,1.987,0,0,0-1.6.6,3.022,3.022,0,0,0-.5,1.955V20h-1.054V10.123h1.054v2.99a6.515,6.515,0,0,1-.051.9h.063a2.149,2.149,0,0,1,.885-.79,2.879,2.879,0,0,1,1.311-.289,2.684,2.684,0,0,1,1.914.606,2.553,2.553,0,0,1,.638,1.927V20Zm7.706-1.9a1.743,1.743,0,0,1-.724,1.5,3.4,3.4,0,0,1-2.031.527,4.417,4.417,0,0,1-2.158-.438v-.978a5.219,5.219,0,0,0,1.076.4,4.493,4.493,0,0,0,1.108.146,2.512,2.512,0,0,0,1.27-.263.907.907,0,0,0,.092-1.5,5.541,5.541,0,0,0-1.374-.682,7.452,7.452,0,0,1-1.381-.632,1.886,1.886,0,0,1-.609-.613,1.6,1.6,0,0,1-.2-.819,1.561,1.561,0,0,1,.692-1.343,3.224,3.224,0,0,1,1.9-.492,5.553,5.553,0,0,1,2.2.457l-.375.857a5.041,5.041,0,0,0-1.9-.432,2.184,2.184,0,0,0-1.13.235.726.726,0,0,0-.381.647.789.789,0,0,0,.143.476,1.409,1.409,0,0,0,.46.375,10.284,10.284,0,0,0,1.219.514,4.553,4.553,0,0,1,1.673.908A1.6,1.6,0,0,1,130.1,18.1Z" transform="translate(223.044 43.599)"/>
        <path id="Trazado_20307" data-name="Trazado 20307" class="cls-7" d="M7.969,0H1.508V-11.422H7.969v1.578H3.375v3.109h4.3v1.563h-4.3v3.586H7.969Zm8.078-2.461A2.261,2.261,0,0,1,15.125-.52a4.414,4.414,0,0,1-2.641.676A6.237,6.237,0,0,1,9.711-.367V-1.953a6.809,6.809,0,0,0,2.836.7q1.7,0,1.7-1.023a.811.811,0,0,0-.187-.547,2.219,2.219,0,0,0-.617-.453,10.621,10.621,0,0,0-1.2-.531,5.529,5.529,0,0,1-2.02-1.156,2.139,2.139,0,0,1-.527-1.5,1.97,1.97,0,0,1,.895-1.723A4.245,4.245,0,0,1,13.023-8.8a6.893,6.893,0,0,1,2.883.617L15.313-6.8a6.412,6.412,0,0,0-2.352-.578q-1.453,0-1.453.828a.833.833,0,0,0,.379.688,8.333,8.333,0,0,0,1.652.773,7.553,7.553,0,0,1,1.555.758,2.265,2.265,0,0,1,.719.793A2.3,2.3,0,0,1,16.047-2.461Zm5.2,1.133a4.465,4.465,0,0,0,1.344-.211V-.156a3.706,3.706,0,0,1-.785.223,5.409,5.409,0,0,1-1,.09Q18.2.156,18.2-2.594V-7.25h-1.18v-.812l1.266-.672.625-1.828h1.133v1.922h2.461V-7.25H20.047v4.625a1.3,1.3,0,0,0,.332.98A1.21,1.21,0,0,0,21.25-1.328ZM29.727,0l-.367-1.2H29.3A3.54,3.54,0,0,1,28.039-.129a3.978,3.978,0,0,1-1.625.285,2.75,2.75,0,0,1-1.988-.687,2.573,2.573,0,0,1-.715-1.945A2.284,2.284,0,0,1,24.7-4.492a5.721,5.721,0,0,1,3.023-.742l1.492-.047v-.461a1.747,1.747,0,0,0-.387-1.238,1.577,1.577,0,0,0-1.2-.41,4.147,4.147,0,0,0-1.273.2,9.61,9.61,0,0,0-1.172.461l-.594-1.312a6.39,6.39,0,0,1,1.539-.559A7.083,7.083,0,0,1,27.711-8.8a3.738,3.738,0,0,1,2.488.719,2.814,2.814,0,0,1,.84,2.258V0ZM26.992-1.25A2.274,2.274,0,0,0,28.6-1.809,2.025,2.025,0,0,0,29.2-3.375v-.75l-1.109.047a3.8,3.8,0,0,0-1.887.434,1.317,1.317,0,0,0-.59,1.184,1.155,1.155,0,0,0,.344.895A1.477,1.477,0,0,0,26.992-1.25ZM36.516.156a3.01,3.01,0,0,1-2.523-1.172A5.267,5.267,0,0,1,33.086-4.3,5.284,5.284,0,0,1,34-7.613,3.038,3.038,0,0,1,36.547-8.8a2.979,2.979,0,0,1,2.594,1.258h.094A11.005,11.005,0,0,1,39.1-9.008v-3.148h1.844V0H39.508l-.32-1.133H39.1A2.935,2.935,0,0,1,36.516.156Zm.492-1.484a2,2,0,0,0,1.648-.637,3.352,3.352,0,0,0,.531-2.066v-.258a3.873,3.873,0,0,0-.531-2.32A1.971,1.971,0,0,0,36.992-7.3a1.688,1.688,0,0,0-1.492.785,4.024,4.024,0,0,0-.523,2.238,3.923,3.923,0,0,0,.508,2.191A1.714,1.714,0,0,0,37.008-1.328ZM51.234-4.336a4.716,4.716,0,0,1-1.086,3.3A3.891,3.891,0,0,1,47.125.156a4.143,4.143,0,0,1-2.141-.547,3.61,3.61,0,0,1-1.43-1.57,5.348,5.348,0,0,1-.5-2.375,4.684,4.684,0,0,1,1.078-3.281A3.909,3.909,0,0,1,47.172-8.8,3.807,3.807,0,0,1,50.141-7.59,4.662,4.662,0,0,1,51.234-4.336Zm-6.289,0q0,2.992,2.211,2.992,2.187,0,2.188-2.992,0-2.961-2.2-2.961a1.879,1.879,0,0,0-1.676.766A3.9,3.9,0,0,0,44.945-4.336ZM62.906,0l-.367-1.2h-.062A3.54,3.54,0,0,1,61.219-.129a3.978,3.978,0,0,1-1.625.285,2.75,2.75,0,0,1-1.988-.687,2.573,2.573,0,0,1-.715-1.945,2.284,2.284,0,0,1,.992-2.016,5.721,5.721,0,0,1,3.023-.742L62.4-5.281v-.461a1.747,1.747,0,0,0-.387-1.238,1.577,1.577,0,0,0-1.2-.41,4.147,4.147,0,0,0-1.273.2,9.61,9.61,0,0,0-1.172.461l-.594-1.312a6.39,6.39,0,0,1,1.539-.559A7.083,7.083,0,0,1,60.891-8.8a3.738,3.738,0,0,1,2.488.719,2.814,2.814,0,0,1,.84,2.258V0ZM60.172-1.25a2.274,2.274,0,0,0,1.605-.559,2.025,2.025,0,0,0,.605-1.566v-.75l-1.109.047a3.8,3.8,0,0,0-1.887.434,1.317,1.317,0,0,0-.59,1.184,1.155,1.155,0,0,0,.344.895A1.477,1.477,0,0,0,60.172-1.25ZM70.266.156a3.783,3.783,0,0,1-2.98-1.145,4.782,4.782,0,0,1-1.02-3.285,4.809,4.809,0,0,1,1.066-3.352A3.956,3.956,0,0,1,70.414-8.8a5.776,5.776,0,0,1,2.461.508L72.32-6.812A5.56,5.56,0,0,0,70.4-7.266q-2.242,0-2.242,2.977a3.565,3.565,0,0,0,.559,2.184,1.934,1.934,0,0,0,1.637.73,4.7,4.7,0,0,0,2.32-.609v1.6a3.626,3.626,0,0,1-1.051.414A6.305,6.305,0,0,1,70.266.156Zm7.656-1.484a4.465,4.465,0,0,0,1.344-.211V-.156a3.706,3.706,0,0,1-.785.223,5.409,5.409,0,0,1-1,.09q-2.609,0-2.609-2.75V-7.25H73.7v-.812l1.266-.672.625-1.828h1.133v1.922H79.18V-7.25H76.719v4.625a1.3,1.3,0,0,0,.332.98A1.21,1.21,0,0,0,77.922-1.328ZM87.086,0l-.258-1.133h-.094a2.6,2.6,0,0,1-1.09.945,3.644,3.644,0,0,1-1.613.344,3.167,3.167,0,0,1-2.344-.781,3.239,3.239,0,0,1-.773-2.367V-8.641h1.852v5.328a2.311,2.311,0,0,0,.406,1.488,1.551,1.551,0,0,0,1.273.5,2.028,2.028,0,0,0,1.7-.691,3.81,3.81,0,0,0,.543-2.316v-4.3h1.844V0Zm9.469,0-.367-1.2h-.062A3.54,3.54,0,0,1,94.867-.129a3.978,3.978,0,0,1-1.625.285,2.75,2.75,0,0,1-1.988-.687,2.573,2.573,0,0,1-.715-1.945,2.284,2.284,0,0,1,.992-2.016,5.721,5.721,0,0,1,3.023-.742l1.492-.047v-.461A1.747,1.747,0,0,0,95.66-6.98a1.577,1.577,0,0,0-1.2-.41,4.147,4.147,0,0,0-1.273.2,9.61,9.61,0,0,0-1.172.461l-.594-1.312a6.39,6.39,0,0,1,1.539-.559A7.083,7.083,0,0,1,94.539-8.8a3.738,3.738,0,0,1,2.488.719,2.814,2.814,0,0,1,.84,2.258V0ZM93.82-1.25a2.274,2.274,0,0,0,1.605-.559,2.025,2.025,0,0,0,.605-1.566v-.75l-1.109.047a3.8,3.8,0,0,0-1.887.434,1.317,1.317,0,0,0-.59,1.184,1.155,1.155,0,0,0,.344.895A1.477,1.477,0,0,0,93.82-1.25ZM102.266,0H100.43V-12.156h1.836Z" transform="translate(223.044 16.599)"/>
        <g id="Rectángulo_8936" data-name="Rectángulo 8936" class="cls-8" transform="translate(220.445 69) rotate(-90)">
          <rect class="cls-13" width="39" height="143"/>
          <rect class="cls-11" x="0.5" y="0.5" width="38" height="142"/>
        </g>
        <g id="Rectángulo_8937" data-name="Rectángulo 8937" class="cls-9" transform="translate(220.445 22) rotate(-90)">
          <rect class="cls-13" width="22" height="143"/>
          <rect class="cls-11" x="0.5" y="0.5" width="21" height="142"/>
        </g>
        <path id="Trazado_20308" data-name="Trazado 20308" class="cls-10" d="M5.086,0H3.758V-10.242H.141v-1.18H8.7v1.18H5.086Zm8.758.156a3.934,3.934,0,0,1-3-1.156,4.476,4.476,0,0,1-1.1-3.211A4.964,4.964,0,0,1,10.77-7.5a3.387,3.387,0,0,1,2.738-1.219A3.229,3.229,0,0,1,16.055-7.66a4.057,4.057,0,0,1,.938,2.793v.82h-5.9a3.394,3.394,0,0,0,.762,2.289,2.634,2.634,0,0,0,2.035.781,6.9,6.9,0,0,0,2.734-.578V-.4a6.863,6.863,0,0,1-1.3.426A7.31,7.31,0,0,1,13.844.156Zm-.352-7.789a2.118,2.118,0,0,0-1.645.672A3.1,3.1,0,0,0,11.125-5.1H15.6a2.851,2.851,0,0,0-.547-1.879A1.925,1.925,0,0,0,13.492-7.633Zm9.617-1.086a5.075,5.075,0,0,1,1.023.094l-.18,1.2a4.418,4.418,0,0,0-.937-.117,2.282,2.282,0,0,0-1.777.844,3.077,3.077,0,0,0-.738,2.1V0H19.2V-8.562h1.07l.148,1.586h.063a3.764,3.764,0,0,1,1.148-1.289A2.585,2.585,0,0,1,23.109-8.719ZM29.156.156A3.654,3.654,0,0,1,26.277-.988a4.707,4.707,0,0,1-1.02-3.238,4.853,4.853,0,0,1,1.035-3.32,3.727,3.727,0,0,1,2.949-1.172,5.852,5.852,0,0,1,1.234.133,4.066,4.066,0,0,1,.969.313l-.4,1.1a6.1,6.1,0,0,0-.937-.285,4.186,4.186,0,0,0-.9-.113Q26.6-7.57,26.6-4.242a3.963,3.963,0,0,0,.637,2.422,2.215,2.215,0,0,0,1.887.844,5.769,5.769,0,0,0,2.2-.461V-.289A4.679,4.679,0,0,1,29.156.156Zm7.813,0a3.934,3.934,0,0,1-3-1.156,4.476,4.476,0,0,1-1.1-3.211A4.964,4.964,0,0,1,33.895-7.5a3.387,3.387,0,0,1,2.738-1.219A3.229,3.229,0,0,1,39.18-7.66a4.057,4.057,0,0,1,.938,2.793v.82h-5.9a3.394,3.394,0,0,0,.762,2.289,2.634,2.634,0,0,0,2.035.781,6.9,6.9,0,0,0,2.734-.578V-.4a6.863,6.863,0,0,1-1.3.426A7.31,7.31,0,0,1,36.969.156Zm-.352-7.789a2.118,2.118,0,0,0-1.645.672A3.1,3.1,0,0,0,34.25-5.1h4.477A2.851,2.851,0,0,0,38.18-6.98,1.925,1.925,0,0,0,36.617-7.633Zm9.617-1.086a5.075,5.075,0,0,1,1.023.094l-.18,1.2a4.418,4.418,0,0,0-.937-.117,2.282,2.282,0,0,0-1.777.844,3.077,3.077,0,0,0-.738,2.1V0h-1.3V-8.562H43.4l.148,1.586h.063a3.764,3.764,0,0,1,1.148-1.289A2.585,2.585,0,0,1,46.234-8.719ZM56.633.156a3.934,3.934,0,0,1-3-1.156,4.476,4.476,0,0,1-1.1-3.211A4.964,4.964,0,0,1,53.559-7.5,3.387,3.387,0,0,1,56.3-8.719,3.229,3.229,0,0,1,58.844-7.66a4.057,4.057,0,0,1,.938,2.793v.82h-5.9a3.394,3.394,0,0,0,.762,2.289,2.634,2.634,0,0,0,2.035.781,6.9,6.9,0,0,0,2.734-.578V-.4a6.863,6.863,0,0,1-1.3.426A7.31,7.31,0,0,1,56.633.156Zm-.352-7.789a2.118,2.118,0,0,0-1.645.672A3.1,3.1,0,0,0,53.914-5.1h4.477a2.851,2.851,0,0,0-.547-1.879A1.925,1.925,0,0,0,56.281-7.633Zm11.234,5.3a2.145,2.145,0,0,1-.891,1.844,4.186,4.186,0,0,1-2.5.648,5.436,5.436,0,0,1-2.656-.539v-1.2a6.424,6.424,0,0,0,1.324.492,5.53,5.53,0,0,0,1.363.18,3.092,3.092,0,0,0,1.563-.324,1.072,1.072,0,0,0,.547-.988,1.073,1.073,0,0,0-.434-.855,6.82,6.82,0,0,0-1.691-.84,9.172,9.172,0,0,1-1.7-.777,2.321,2.321,0,0,1-.75-.754,1.966,1.966,0,0,1-.246-1.008A1.921,1.921,0,0,1,62.3-8.113a3.968,3.968,0,0,1,2.336-.605,6.835,6.835,0,0,1,2.7.563L66.875-7.1a6.2,6.2,0,0,0-2.336-.531,2.688,2.688,0,0,0-1.391.289.894.894,0,0,0-.469.8.971.971,0,0,0,.176.586,1.735,1.735,0,0,0,.566.461,12.658,12.658,0,0,0,1.5.633A5.6,5.6,0,0,1,66.98-3.75,1.97,1.97,0,0,1,67.516-2.336ZM72.391-.914a4.236,4.236,0,0,0,.664-.051,4.3,4.3,0,0,0,.508-.105v.992a2.371,2.371,0,0,1-.621.168A4.664,4.664,0,0,1,72.2.156q-2.484,0-2.484-2.617V-7.555H68.492V-8.18l1.227-.539.547-1.828h.75v1.984H73.5v1.008H71.016v5.039a1.734,1.734,0,0,0,.367,1.188A1.278,1.278,0,0,0,72.391-.914ZM80.539,0l-.258-1.219h-.062a3.6,3.6,0,0,1-1.277,1.09,3.893,3.893,0,0,1-1.59.285,2.86,2.86,0,0,1-2-.656,2.394,2.394,0,0,1-.723-1.867q0-2.594,4.148-2.719l1.453-.047v-.531A2.171,2.171,0,0,0,79.8-7.152a1.783,1.783,0,0,0-1.387-.48,5.65,5.65,0,0,0-2.422.656l-.4-.992a6.094,6.094,0,0,1,1.387-.539,6.006,6.006,0,0,1,1.512-.2,3.262,3.262,0,0,1,2.27.68,2.837,2.837,0,0,1,.738,2.18V0Zm-2.93-.914a2.632,2.632,0,0,0,1.9-.664A2.457,2.457,0,0,0,80.2-3.437v-.773l-1.3.055a4.717,4.717,0,0,0-2.23.48,1.449,1.449,0,0,0-.684,1.324,1.336,1.336,0,0,0,.426,1.07A1.767,1.767,0,0,0,77.609-.914ZM90-1.148h-.07a3.047,3.047,0,0,1-2.687,1.3A3.179,3.179,0,0,1,84.629-.992,5.055,5.055,0,0,1,83.7-4.258a5.141,5.141,0,0,1,.938-3.289,3.155,3.155,0,0,1,2.609-1.172,3.114,3.114,0,0,1,2.672,1.266h.1l-.055-.617-.031-.6v-3.484h1.3V0H90.172ZM87.406-.93a2.361,2.361,0,0,0,1.926-.723,3.652,3.652,0,0,0,.6-2.332v-.273a4.3,4.3,0,0,0-.605-2.6,2.3,2.3,0,0,0-1.934-.777,1.985,1.985,0,0,0-1.746.887,4.409,4.409,0,0,0-.605,2.5,4.227,4.227,0,0,0,.6,2.477A2.037,2.037,0,0,0,87.406-.93Zm13.961-3.359a4.724,4.724,0,0,1-1.055,3.27A3.714,3.714,0,0,1,97.4.156a3.86,3.86,0,0,1-2.039-.539A3.558,3.558,0,0,1,93.984-1.93,5.391,5.391,0,0,1,93.5-4.289a4.716,4.716,0,0,1,1.047-3.262,3.7,3.7,0,0,1,2.906-1.168,3.622,3.622,0,0,1,2.855,1.2A4.7,4.7,0,0,1,101.367-4.289Zm-6.523,0a4.064,4.064,0,0,0,.656,2.5,2.278,2.278,0,0,0,1.93.859,2.293,2.293,0,0,0,1.934-.855,4.043,4.043,0,0,0,.66-2.5,3.978,3.978,0,0,0-.66-2.48,2.32,2.32,0,0,0-1.949-.848,2.283,2.283,0,0,0-1.922.836A4.023,4.023,0,0,0,94.844-4.289Z" transform="translate(224.044 138.599)"/>
        <path id="Trazado_20309" data-name="Trazado 20309" class="cls-10" d="M8.016-3.039A2.8,2.8,0,0,1,6.922-.687,4.743,4.743,0,0,1,3.953.156,7.436,7.436,0,0,1,.828-.367V-1.648a8.227,8.227,0,0,0,1.531.469A8.056,8.056,0,0,0,4-1.008a3.31,3.31,0,0,0,2-.5,1.654,1.654,0,0,0,.672-1.4,1.8,1.8,0,0,0-.238-.973,2.214,2.214,0,0,0-.8-.7,11.148,11.148,0,0,0-1.7-.727A5.424,5.424,0,0,1,1.66-6.664,2.984,2.984,0,0,1,.977-8.7a2.536,2.536,0,0,1,.992-2.1,4.123,4.123,0,0,1,2.625-.781,7.736,7.736,0,0,1,3.133.625L7.313-9.8a7.08,7.08,0,0,0-2.75-.594,2.661,2.661,0,0,0-1.648.453A1.493,1.493,0,0,0,2.32-8.687a1.928,1.928,0,0,0,.219.973,2.06,2.06,0,0,0,.738.7,9.173,9.173,0,0,0,1.59.7A6.294,6.294,0,0,1,7.34-4.945,2.7,2.7,0,0,1,8.016-3.039Zm5.758,3.2a3.934,3.934,0,0,1-3-1.156,4.476,4.476,0,0,1-1.1-3.211A4.964,4.964,0,0,1,10.7-7.5a3.387,3.387,0,0,1,2.738-1.219A3.229,3.229,0,0,1,15.984-7.66a4.057,4.057,0,0,1,.938,2.793v.82h-5.9a3.394,3.394,0,0,0,.762,2.289,2.634,2.634,0,0,0,2.035.781,6.9,6.9,0,0,0,2.734-.578V-.4a6.863,6.863,0,0,1-1.3.426A7.31,7.31,0,0,1,13.773.156Zm-.352-7.789a2.118,2.118,0,0,0-1.645.672A3.1,3.1,0,0,0,11.055-5.1h4.477a2.851,2.851,0,0,0-.547-1.879A1.925,1.925,0,0,0,13.422-7.633Zm12.719-.93v.82l-1.586.188a2.726,2.726,0,0,1,.391.715,2.727,2.727,0,0,1,.172,1,2.531,2.531,0,0,1-.859,2.008,3.467,3.467,0,0,1-2.359.75,3.929,3.929,0,0,1-.719-.062,1.276,1.276,0,0,0-.828,1.1.56.56,0,0,0,.289.52,2.112,2.112,0,0,0,.992.168h1.516a3.394,3.394,0,0,1,2.137.586,2.036,2.036,0,0,1,.746,1.7A2.431,2.431,0,0,1,24.891,3.1a6.1,6.1,0,0,1-3.328.746,4.547,4.547,0,0,1-2.59-.625,2.018,2.018,0,0,1-.91-1.766A1.983,1.983,0,0,1,18.563.1a2.546,2.546,0,0,1,1.406-.773,1.357,1.357,0,0,1-.551-.461,1.22,1.22,0,0,1-.223-.727,1.379,1.379,0,0,1,.25-.82,2.628,2.628,0,0,1,.789-.68,2.313,2.313,0,0,1-1.082-.93,2.732,2.732,0,0,1-.418-1.5,2.771,2.771,0,0,1,.844-2.168,3.445,3.445,0,0,1,2.391-.762,4.347,4.347,0,0,1,1.211.156Zm-6.828,10A1.162,1.162,0,0,0,19.9,2.492a3.234,3.234,0,0,0,1.68.359A4.687,4.687,0,0,0,24,2.363a1.5,1.5,0,0,0,.785-1.324,1.048,1.048,0,0,0-.43-.965A3.337,3.337,0,0,0,22.734-.2H21.18A2.048,2.048,0,0,0,19.8.227,1.507,1.507,0,0,0,19.313,1.438Zm.7-7.258a1.743,1.743,0,0,0,.508,1.359A2.028,2.028,0,0,0,21.938-4a1.654,1.654,0,0,0,1.9-1.844,1.7,1.7,0,0,0-1.922-1.93,1.9,1.9,0,0,0-1.406.492A1.982,1.982,0,0,0,20.016-5.82Zm9.1-2.742v5.555a2.235,2.235,0,0,0,.477,1.563,1.941,1.941,0,0,0,1.492.516,2.435,2.435,0,0,0,1.965-.734,3.7,3.7,0,0,0,.621-2.4v-4.5h1.3V0H33.9l-.187-1.148h-.07a2.585,2.585,0,0,1-1.105.969,3.716,3.716,0,0,1-1.613.336,3.273,3.273,0,0,1-2.34-.742A3.159,3.159,0,0,1,27.8-2.961v-5.6ZM43.578,0V-5.539A2.235,2.235,0,0,0,43.1-7.1a1.941,1.941,0,0,0-1.492-.516,2.461,2.461,0,0,0-1.969.727,3.668,3.668,0,0,0-.625,2.4V0h-1.3V-8.562h1.055l.211,1.172h.063a2.648,2.648,0,0,1,1.117-.98,3.63,3.63,0,0,1,1.6-.348,3.252,3.252,0,0,1,2.328.746,3.175,3.175,0,0,1,.781,2.387V0Zm9.789-1.148H53.3a3.047,3.047,0,0,1-2.687,1.3A3.179,3.179,0,0,1,48-.992a5.055,5.055,0,0,1-.934-3.266A5.141,5.141,0,0,1,48-7.547a3.155,3.155,0,0,1,2.609-1.172,3.114,3.114,0,0,1,2.672,1.266h.1l-.055-.617-.031-.6v-3.484h1.3V0H53.539ZM50.773-.93A2.361,2.361,0,0,0,52.7-1.652a3.652,3.652,0,0,0,.6-2.332v-.273a4.3,4.3,0,0,0-.605-2.6,2.3,2.3,0,0,0-1.934-.777,1.985,1.985,0,0,0-1.746.887,4.409,4.409,0,0,0-.605,2.5,4.227,4.227,0,0,0,.6,2.477A2.037,2.037,0,0,0,50.773-.93ZM64.734-4.289A4.724,4.724,0,0,1,63.68-1.02,3.714,3.714,0,0,1,60.766.156a3.86,3.86,0,0,1-2.039-.539A3.558,3.558,0,0,1,57.352-1.93a5.391,5.391,0,0,1-.484-2.359,4.716,4.716,0,0,1,1.047-3.262A3.7,3.7,0,0,1,60.82-8.719a3.622,3.622,0,0,1,2.855,1.2A4.7,4.7,0,0,1,64.734-4.289Zm-6.523,0a4.064,4.064,0,0,0,.656,2.5A2.278,2.278,0,0,0,60.8-.93a2.293,2.293,0,0,0,1.934-.855,4.043,4.043,0,0,0,.66-2.5,3.978,3.978,0,0,0-.66-2.48,2.32,2.32,0,0,0-1.949-.848,2.283,2.283,0,0,0-1.922.836A4.023,4.023,0,0,0,58.211-4.289ZM74.781.156a3.934,3.934,0,0,1-3-1.156,4.476,4.476,0,0,1-1.1-3.211A4.964,4.964,0,0,1,71.707-7.5a3.387,3.387,0,0,1,2.738-1.219A3.229,3.229,0,0,1,76.992-7.66a4.057,4.057,0,0,1,.938,2.793v.82h-5.9a3.394,3.394,0,0,0,.762,2.289,2.635,2.635,0,0,0,2.035.781,6.9,6.9,0,0,0,2.734-.578V-.4a6.863,6.863,0,0,1-1.3.426A7.31,7.31,0,0,1,74.781.156ZM74.43-7.633a2.118,2.118,0,0,0-1.645.672A3.1,3.1,0,0,0,72.063-5.1h4.477a2.851,2.851,0,0,0-.547-1.879A1.925,1.925,0,0,0,74.43-7.633Zm11.234,5.3a2.145,2.145,0,0,1-.891,1.844,4.186,4.186,0,0,1-2.5.648,5.436,5.436,0,0,1-2.656-.539v-1.2a6.424,6.424,0,0,0,1.324.492,5.53,5.53,0,0,0,1.363.18,3.092,3.092,0,0,0,1.563-.324,1.072,1.072,0,0,0,.547-.988,1.073,1.073,0,0,0-.434-.855,6.82,6.82,0,0,0-1.691-.84,9.172,9.172,0,0,1-1.7-.777,2.321,2.321,0,0,1-.75-.754,1.966,1.966,0,0,1-.246-1.008,1.921,1.921,0,0,1,.852-1.652,3.968,3.968,0,0,1,2.336-.605,6.835,6.835,0,0,1,2.7.563L85.023-7.1a6.2,6.2,0,0,0-2.336-.531,2.687,2.687,0,0,0-1.391.289.894.894,0,0,0-.469.8A.971.971,0,0,0,81-5.961a1.735,1.735,0,0,0,.566.461,12.657,12.657,0,0,0,1.5.633A5.6,5.6,0,0,1,85.129-3.75,1.97,1.97,0,0,1,85.664-2.336ZM90.539-.914A4.236,4.236,0,0,0,91.2-.965a4.3,4.3,0,0,0,.508-.105v.992A2.371,2.371,0,0,1,91.09.09a4.664,4.664,0,0,1-.738.066q-2.484,0-2.484-2.617V-7.555H86.641V-8.18l1.227-.539.547-1.828h.75v1.984h2.484v1.008H89.164v5.039a1.734,1.734,0,0,0,.367,1.188A1.278,1.278,0,0,0,90.539-.914ZM98.688,0,98.43-1.219h-.062A3.6,3.6,0,0,1,97.09-.129,3.893,3.893,0,0,1,95.5.156a2.86,2.86,0,0,1-2-.656,2.394,2.394,0,0,1-.723-1.867q0-2.594,4.148-2.719l1.453-.047v-.531a2.171,2.171,0,0,0-.434-1.488,1.783,1.783,0,0,0-1.387-.48,5.65,5.65,0,0,0-2.422.656l-.4-.992a6.094,6.094,0,0,1,1.387-.539,6.006,6.006,0,0,1,1.512-.2,3.262,3.262,0,0,1,2.27.68,2.837,2.837,0,0,1,.738,2.18V0Zm-2.93-.914a2.632,2.632,0,0,0,1.9-.664,2.457,2.457,0,0,0,.691-1.859v-.773l-1.3.055a4.717,4.717,0,0,0-2.23.48,1.449,1.449,0,0,0-.684,1.324,1.336,1.336,0,0,0,.426,1.07A1.767,1.767,0,0,0,95.758-.914Zm12.391-.234h-.07a3.047,3.047,0,0,1-2.687,1.3,3.179,3.179,0,0,1-2.613-1.148,5.055,5.055,0,0,1-.934-3.266,5.141,5.141,0,0,1,.938-3.289,3.155,3.155,0,0,1,2.609-1.172,3.114,3.114,0,0,1,2.672,1.266h.1l-.055-.617-.031-.6v-3.484h1.3V0H108.32Zm-2.594.219a2.361,2.361,0,0,0,1.926-.723,3.652,3.652,0,0,0,.6-2.332v-.273a4.3,4.3,0,0,0-.605-2.6,2.3,2.3,0,0,0-1.934-.777,1.985,1.985,0,0,0-1.746.887,4.409,4.409,0,0,0-.605,2.5,4.227,4.227,0,0,0,.6,2.477A2.037,2.037,0,0,0,105.555-.93Zm13.961-3.359a4.724,4.724,0,0,1-1.055,3.27A3.714,3.714,0,0,1,115.547.156a3.86,3.86,0,0,1-2.039-.539,3.558,3.558,0,0,1-1.375-1.547,5.391,5.391,0,0,1-.484-2.359A4.716,4.716,0,0,1,112.7-7.551,3.7,3.7,0,0,1,115.6-8.719a3.622,3.622,0,0,1,2.855,1.2A4.7,4.7,0,0,1,119.516-4.289Zm-6.523,0a4.064,4.064,0,0,0,.656,2.5,2.278,2.278,0,0,0,1.93.859,2.293,2.293,0,0,0,1.934-.855,4.043,4.043,0,0,0,.66-2.5,3.978,3.978,0,0,0-.66-2.48,2.32,2.32,0,0,0-1.949-.848,2.283,2.283,0,0,0-1.922.836A4.023,4.023,0,0,0,112.992-4.289Z" transform="translate(224.044 100.599)"/>
        <g id="Rectángulo_8938" data-name="Rectángulo 8938" class="cls-8" transform="translate(220.445 106) rotate(-90)">
          <rect class="cls-13" width="22" height="143"/>
          <rect class="cls-11" x="0.5" y="0.5" width="21" height="142"/>
        </g>
        <g id="Rectángulo_8939" data-name="Rectángulo 8939" class="cls-8" transform="translate(220.445 143) rotate(-90)">
          <rect class="cls-13" width="22" height="143"/>
          <rect class="cls-11" x="0.5" y="0.5" width="21" height="142"/>
        </g>
        <path id="Trazado_20335" data-name="Trazado 20335" class="cls-11" d="M4,0H89a4,4,0,0,1,4,4V18a4,4,0,0,1-4,4H4a4,4,0,0,1-4-4V4A4,4,0,0,1,4,0Z" transform="translate(238.044 173.714)"/>
        <path id="Trazado_20336" data-name="Trazado 20336" class="cls-12" d="M6.577-.409,2.739-10.2H2.677q.108,1.163.108,2.764V-.409H1.57V-11.45H3.551L7.134-2.342H7.2L10.81-11.45h1.966V-.409H11.46V-7.523q0-1.223.108-2.658h-.062L7.637-.409Zm14.324,0-.255-1.178h-.062A3.549,3.549,0,0,1,19.319-.533a3.941,3.941,0,0,1-1.575.276,2.878,2.878,0,0,1-1.977-.634,2.285,2.285,0,0,1-.716-1.8q0-2.507,4.109-2.628L20.6-5.37v-.514a2.064,2.064,0,0,0-.429-1.439A1.792,1.792,0,0,0,18.8-7.787a5.705,5.705,0,0,0-2.4.634L16-8.112a6.127,6.127,0,0,1,1.374-.521,6.088,6.088,0,0,1,1.5-.189,3.285,3.285,0,0,1,2.248.657,2.7,2.7,0,0,1,.731,2.107V-.409ZM18-1.292a2.646,2.646,0,0,0,1.884-.642,2.343,2.343,0,0,0,.685-1.8v-.748l-1.285.053a4.768,4.768,0,0,0-2.209.464,1.392,1.392,0,0,0-.677,1.28,1.276,1.276,0,0,0,.422,1.035A1.78,1.78,0,0,0,18-1.292ZM17.7-9.97q.371-.468.8-1.133a12.885,12.885,0,0,0,.677-1.155h1.563v.159a11.222,11.222,0,0,1-1.014,1.208,11.388,11.388,0,0,1-1.169,1.11H17.7Zm12.273,7.3a2.056,2.056,0,0,1-.882,1.782,4.224,4.224,0,0,1-2.476.627,5.5,5.5,0,0,1-2.631-.521V-1.942a6.463,6.463,0,0,0,1.312.476,5.605,5.605,0,0,0,1.35.174,3.126,3.126,0,0,0,1.548-.313,1.031,1.031,0,0,0,.542-.955,1.029,1.029,0,0,0-.429-.827A6.82,6.82,0,0,0,26.628-4.2a9.191,9.191,0,0,1-1.683-.751A2.271,2.271,0,0,1,24.2-5.68a1.864,1.864,0,0,1-.244-.974,1.844,1.844,0,0,1,.844-1.6,4,4,0,0,1,2.314-.585,6.914,6.914,0,0,1,2.678.544l-.457,1.02a6.274,6.274,0,0,0-2.314-.514,2.717,2.717,0,0,0-1.377.279.861.861,0,0,0-.464.77.922.922,0,0,0,.174.566,1.71,1.71,0,0,0,.561.446,12.706,12.706,0,0,0,1.486.612,5.59,5.59,0,0,1,2.039,1.08A1.879,1.879,0,0,1,29.971-2.667ZM41.95-1.519h-.07A3.044,3.044,0,0,1,39.219-.258a3.183,3.183,0,0,1-2.589-1.11,4.8,4.8,0,0,1-.925-3.157A4.884,4.884,0,0,1,36.634-7.7a3.157,3.157,0,0,1,2.585-1.133,3.113,3.113,0,0,1,2.647,1.223h.1l-.054-.6-.031-.581V-12.16h1.285V-.409H42.121Zm-2.569.211a2.37,2.37,0,0,0,1.908-.7,3.467,3.467,0,0,0,.592-2.254v-.264a4.076,4.076,0,0,0-.6-2.511,2.3,2.3,0,0,0-1.915-.751,1.981,1.981,0,0,0-1.73.857,4.182,4.182,0,0,0-.6,2.42,4.01,4.01,0,0,0,.6,2.394A2.036,2.036,0,0,0,39.381-1.308ZM49.472-.258A3.949,3.949,0,0,1,46.5-1.375a4.264,4.264,0,0,1-1.087-3.1,4.721,4.721,0,0,1,1.01-3.179A3.391,3.391,0,0,1,49.14-8.837a3.237,3.237,0,0,1,2.523,1.023,3.863,3.863,0,0,1,.929,2.7v.793H46.748A3.232,3.232,0,0,0,47.5-2.108a2.644,2.644,0,0,0,2.016.755,6.976,6.976,0,0,0,2.709-.559V-.794a6.918,6.918,0,0,1-1.288.412A7.415,7.415,0,0,1,49.472-.258Zm-.348-7.529a2.124,2.124,0,0,0-1.629.649,2.954,2.954,0,0,0-.716,1.8h4.434a2.71,2.71,0,0,0-.542-1.816A1.929,1.929,0,0,0,49.124-7.787Zm8.4,6.495a4.3,4.3,0,0,0,.658-.049,4.35,4.35,0,0,0,.5-.1v.959a2.394,2.394,0,0,1-.615.162,4.731,4.731,0,0,1-.731.064,2.206,2.206,0,0,1-2.461-2.53V-7.712H53.659v-.6l1.215-.521.542-1.767h.743v1.918h2.461v.974H56.158v4.871a1.649,1.649,0,0,0,.364,1.148A1.281,1.281,0,0,0,57.52-1.292Zm8.071.884-.255-1.178h-.062A3.549,3.549,0,0,1,64.009-.533a3.941,3.941,0,0,1-1.575.276,2.878,2.878,0,0,1-1.977-.634,2.285,2.285,0,0,1-.716-1.8q0-2.507,4.109-2.628L65.29-5.37v-.514a2.064,2.064,0,0,0-.429-1.439,1.792,1.792,0,0,0-1.374-.464,5.705,5.705,0,0,0-2.4.634l-.395-.959a6.127,6.127,0,0,1,1.374-.521,6.088,6.088,0,0,1,1.5-.189,3.285,3.285,0,0,1,2.248.657,2.7,2.7,0,0,1,.731,2.107V-.409Zm-2.9-.884a2.646,2.646,0,0,0,1.884-.642,2.343,2.343,0,0,0,.685-1.8v-.748l-1.285.053a4.768,4.768,0,0,0-2.209.464,1.392,1.392,0,0,0-.677,1.28,1.276,1.276,0,0,0,.422,1.035A1.78,1.78,0,0,0,62.69-1.292Zm7.785.884H69.19V-12.16h1.285Zm4.009,0H73.2V-12.16h1.285Zm6.307.151a3.949,3.949,0,0,1-2.968-1.118,4.264,4.264,0,0,1-1.087-3.1,4.721,4.721,0,0,1,1.01-3.179,3.391,3.391,0,0,1,2.712-1.178A3.237,3.237,0,0,1,82.98-7.814a3.863,3.863,0,0,1,.929,2.7v.793H78.066a3.232,3.232,0,0,0,.755,2.213,2.644,2.644,0,0,0,2.016.755,6.976,6.976,0,0,0,2.709-.559V-.794a6.918,6.918,0,0,1-1.288.412A7.415,7.415,0,0,1,80.79-.258Zm-.348-7.529a2.124,2.124,0,0,0-1.629.649,2.954,2.954,0,0,0-.716,1.8h4.434a2.71,2.71,0,0,0-.542-1.816A1.929,1.929,0,0,0,80.442-7.787ZM91.57-2.667a2.056,2.056,0,0,1-.882,1.782,4.224,4.224,0,0,1-2.476.627,5.5,5.5,0,0,1-2.631-.521V-1.942a6.463,6.463,0,0,0,1.312.476,5.605,5.605,0,0,0,1.35.174,3.126,3.126,0,0,0,1.548-.313,1.031,1.031,0,0,0,.542-.955,1.029,1.029,0,0,0-.429-.827A6.82,6.82,0,0,0,88.227-4.2a9.191,9.191,0,0,1-1.683-.751A2.271,2.271,0,0,1,85.8-5.68a1.864,1.864,0,0,1-.244-.974,1.844,1.844,0,0,1,.844-1.6,4,4,0,0,1,2.314-.585,6.914,6.914,0,0,1,2.678.544l-.457,1.02a6.274,6.274,0,0,0-2.314-.514,2.717,2.717,0,0,0-1.377.279.861.861,0,0,0-.464.77.922.922,0,0,0,.174.566,1.71,1.71,0,0,0,.561.446A12.705,12.705,0,0,0,89-5.114a5.59,5.59,0,0,1,2.039,1.08A1.879,1.879,0,0,1,91.57-2.667Z" transform="translate(223.044 186.714)"/>
      </g>
    </g>
  </g>
</svg>
