<svg width="710" height="435" viewBox="0 0 710 435" fill="none" xmlns="http://www.w3.org/2000/svg">
<rect x="1" y="1" width="708" height="433" rx="7" fill="#F3F6F9" stroke="#D1D8E0" stroke-width="2"/>
<path d="M82.9631 75C82.4079 75 81.9675 74.8468 81.6421 74.5405C81.3357 74.2342 81.1826 73.8034 81.1826 73.2482V56.5056C81.1826 55.9504 81.3357 55.5196 81.6421 55.2133C81.9675 54.907 82.4079 54.7538 82.9631 54.7538H93.3303C93.8855 54.7538 94.3163 54.8782 94.6226 55.1271C94.9289 55.376 95.0821 55.7302 95.0821 56.1897C95.0821 56.6683 94.9289 57.0417 94.6226 57.3097C94.3163 57.5586 93.8855 57.683 93.3303 57.683H84.801V63.2543H92.7559C93.3111 63.2543 93.7419 63.3788 94.0482 63.6277C94.3546 63.8766 94.5077 64.2403 94.5077 64.7189C94.5077 65.1784 94.3546 65.5326 94.0482 65.7815C93.7419 66.0304 93.3111 66.1548 92.7559 66.1548H84.801V72.0708H93.3303C93.8855 72.0708 94.3163 72.2048 94.6226 72.4728C94.9289 72.7217 95.0821 73.0855 95.0821 73.5641C95.0821 74.0236 94.9289 74.3778 94.6226 74.6267C94.3163 74.8756 93.8855 75 93.3303 75H82.9631ZM95.1932 80.2267C94.5039 80.265 93.9774 80.1692 93.6137 79.9395C93.2308 79.7098 93.0393 79.3556 93.0393 78.8769C93.0393 78.092 93.5179 77.6612 94.4752 77.5846L95.2506 77.5272C95.9015 77.4889 96.3897 77.2879 96.7152 76.9241C97.0407 76.5603 97.2034 76.0051 97.2034 75.2585V62.3641C97.2034 61.8089 97.3661 61.3877 97.6916 61.1005C98.0362 60.8133 98.467 60.6697 98.9839 60.6697C99.5009 60.6697 99.9316 60.8133 100.276 61.1005C100.621 61.3877 100.793 61.8089 100.793 62.3641V75C100.793 78.2164 99.185 79.9395 95.9685 80.1692L95.1932 80.2267ZM98.9552 58.1138C98.3043 58.1138 97.7873 57.9415 97.4044 57.5969C97.0215 57.2331 96.8301 56.7641 96.8301 56.1897C96.8301 55.6153 97.0215 55.1558 97.4044 54.8112C97.7873 54.4666 98.3043 54.2943 98.9552 54.2943C99.587 54.2943 100.094 54.4666 100.477 54.8112C100.879 55.1558 101.08 55.6153 101.08 56.1897C101.08 56.7641 100.889 57.2331 100.506 57.5969C100.123 57.9415 99.6062 58.1138 98.9552 58.1138ZM115.035 71.1518C115.36 71.1518 115.619 71.2762 115.81 71.5251C116.021 71.774 116.126 72.1091 116.126 72.5302C116.126 73.1238 115.772 73.6215 115.063 74.0236C114.412 74.3873 113.675 74.6841 112.852 74.9138C112.029 75.1244 111.244 75.2297 110.497 75.2297C108.238 75.2297 106.448 74.5788 105.127 73.2769C103.806 71.975 103.145 70.1945 103.145 67.9354C103.145 66.4995 103.433 65.2263 104.007 64.1159C104.581 63.0054 105.385 62.1439 106.419 61.5312C107.472 60.9186 108.659 60.6123 109.98 60.6123C111.244 60.6123 112.345 60.8899 113.283 61.4451C114.221 62.0003 114.948 62.7853 115.465 63.8C115.982 64.8147 116.241 66.0113 116.241 67.3897C116.241 68.213 115.877 68.6246 115.149 68.6246H106.678C106.793 69.9456 107.166 70.922 107.798 71.5538C108.429 72.1665 109.348 72.4728 110.555 72.4728C111.167 72.4728 111.703 72.3962 112.163 72.2431C112.641 72.0899 113.178 71.8793 113.771 71.6113C114.345 71.3049 114.767 71.1518 115.035 71.1518ZM110.066 63.1395C109.09 63.1395 108.305 63.4458 107.712 64.0584C107.137 64.6711 106.793 65.5518 106.678 66.7005H113.168C113.13 65.5326 112.842 64.6519 112.306 64.0584C111.77 63.4458 111.024 63.1395 110.066 63.1395ZM135.288 60.6123C136.82 60.6123 137.987 61.0718 138.792 61.9907C139.615 62.8906 140.026 64.3552 140.026 66.3846V73.4492C140.026 74.0044 139.854 74.4352 139.51 74.7415C139.184 75.0287 138.753 75.1723 138.217 75.1723C137.7 75.1723 137.27 75.0287 136.925 74.7415C136.599 74.4352 136.437 74.0044 136.437 73.4492V66.3846C136.437 65.3316 136.245 64.5849 135.862 64.1446C135.499 63.6851 134.934 63.4554 134.168 63.4554C133.23 63.4554 132.483 63.7808 131.928 64.4318C131.373 65.0636 131.095 65.9347 131.095 67.0451V73.4492C131.095 74.0044 130.923 74.4352 130.578 74.7415C130.253 75.0287 129.832 75.1723 129.315 75.1723C128.798 75.1723 128.367 75.0287 128.022 74.7415C127.678 74.4352 127.505 74.0044 127.505 73.4492V66.3846C127.505 65.3316 127.314 64.5849 126.931 64.1446C126.567 63.6851 126.003 63.4554 125.237 63.4554C124.299 63.4554 123.552 63.7808 122.997 64.4318C122.461 65.0636 122.193 65.9347 122.193 67.0451V73.4492C122.193 74.0044 122.02 74.4352 121.676 74.7415C121.331 75.0287 120.9 75.1723 120.383 75.1723C119.866 75.1723 119.436 75.0287 119.091 74.7415C118.766 74.4352 118.603 74.0044 118.603 73.4492V62.3354C118.603 61.7993 118.775 61.3877 119.12 61.1005C119.464 60.8133 119.895 60.6697 120.412 60.6697C120.91 60.6697 121.312 60.8133 121.618 61.1005C121.944 61.3685 122.106 61.761 122.106 62.2779V62.9671C122.547 62.2013 123.131 61.6174 123.858 61.2153C124.605 60.8133 125.457 60.6123 126.414 60.6123C128.52 60.6123 129.927 61.493 130.636 63.2543C131.057 62.4502 131.679 61.8089 132.502 61.3302C133.326 60.8516 134.254 60.6123 135.288 60.6123ZM151.17 60.6123C152.377 60.6123 153.449 60.9186 154.387 61.5312C155.344 62.1439 156.081 63.015 156.598 64.1446C157.134 65.255 157.402 66.5378 157.402 67.9928C157.402 69.4478 157.134 70.721 156.598 71.8123C156.081 72.9036 155.354 73.746 154.416 74.3395C153.477 74.933 152.396 75.2297 151.17 75.2297C150.175 75.2297 149.285 75.0191 148.5 74.5979C147.715 74.1767 147.112 73.5928 146.69 72.8461V78.7046C146.69 79.2024 146.528 79.5949 146.202 79.8821C145.877 80.1692 145.446 80.3128 144.91 80.3128C144.374 80.3128 143.933 80.1597 143.589 79.8533C143.263 79.547 143.101 79.145 143.101 78.6472V62.3641C143.101 61.8471 143.254 61.4355 143.56 61.1292C143.886 60.8229 144.316 60.6697 144.852 60.6697C145.389 60.6697 145.819 60.8229 146.145 61.1292C146.47 61.4355 146.633 61.8471 146.633 62.3641V63.082C147.054 62.2971 147.657 61.694 148.442 61.2728C149.246 60.8324 150.156 60.6123 151.17 60.6123ZM150.223 72.4441C151.352 72.4441 152.233 72.0612 152.865 71.2954C153.497 70.5104 153.812 69.4096 153.812 67.9928C153.812 66.5378 153.497 65.4082 152.865 64.6041C152.233 63.8 151.352 63.3979 150.223 63.3979C149.074 63.3979 148.184 63.7904 147.552 64.5754C146.939 65.3603 146.633 66.4803 146.633 67.9354C146.633 69.3713 146.939 70.4817 147.552 71.2667C148.184 72.0516 149.074 72.4441 150.223 72.4441ZM161.554 75.1723C161.038 75.1723 160.607 75.0287 160.262 74.7415C159.937 74.4352 159.774 74.0044 159.774 73.4492V56.3046C159.774 55.7494 159.937 55.3282 160.262 55.041C160.607 54.7538 161.038 54.6102 161.554 54.6102C162.071 54.6102 162.502 54.7538 162.847 55.041C163.191 55.3282 163.364 55.7494 163.364 56.3046V73.4492C163.364 74.0044 163.191 74.4352 162.847 74.7415C162.502 75.0287 162.071 75.1723 161.554 75.1723ZM172.895 75.2297C171.459 75.2297 170.196 74.933 169.105 74.3395C168.032 73.746 167.2 72.894 166.606 71.7836C166.013 70.6732 165.716 69.3808 165.716 67.9066C165.716 66.4325 166.013 65.1497 166.606 64.0584C167.2 62.948 168.032 62.096 169.105 61.5025C170.196 60.909 171.459 60.6123 172.895 60.6123C174.331 60.6123 175.585 60.909 176.657 61.5025C177.749 62.096 178.582 62.948 179.156 64.0584C179.749 65.1497 180.046 66.4325 180.046 67.9066C180.046 69.3808 179.749 70.6732 179.156 71.7836C178.582 72.894 177.749 73.746 176.657 74.3395C175.585 74.933 174.331 75.2297 172.895 75.2297ZM172.867 72.4441C174.035 72.4441 174.925 72.0612 175.537 71.2954C176.15 70.5296 176.456 69.4 176.456 67.9066C176.456 66.4325 176.15 65.3125 175.537 64.5466C174.925 63.7617 174.044 63.3692 172.895 63.3692C171.747 63.3692 170.856 63.7617 170.225 64.5466C169.612 65.3125 169.306 66.4325 169.306 67.9066C169.306 69.4 169.612 70.5296 170.225 71.2954C170.837 72.0612 171.718 72.4441 172.867 72.4441ZM201.374 54.6102C201.911 54.6102 202.351 54.7634 202.695 55.0697C203.04 55.376 203.212 55.7781 203.212 56.2758V73.4492C203.212 73.9662 203.05 74.3778 202.724 74.6841C202.399 74.9904 201.968 75.1436 201.432 75.1436C200.896 75.1436 200.465 74.9904 200.14 74.6841C199.814 74.3778 199.651 73.9662 199.651 73.4492V72.7313C199.23 73.5162 198.618 74.1289 197.813 74.5692C197.028 75.0096 196.129 75.2297 195.114 75.2297C193.908 75.2297 192.826 74.9234 191.869 74.3108C190.931 73.6981 190.194 72.8366 189.657 71.7261C189.141 70.5966 188.882 69.3043 188.882 67.8492C188.882 66.3942 189.141 65.121 189.657 64.0297C190.194 62.9384 190.931 62.096 191.869 61.5025C192.807 60.909 193.889 60.6123 195.114 60.6123C196.129 60.6123 197.028 60.8229 197.813 61.2441C198.598 61.6653 199.201 62.2588 199.623 63.0246V56.2184C199.623 55.7398 199.776 55.3569 200.082 55.0697C200.408 54.7634 200.838 54.6102 201.374 54.6102ZM196.062 72.4441C197.21 72.4441 198.091 72.0516 198.704 71.2667C199.335 70.4817 199.651 69.3617 199.651 67.9066C199.651 66.4516 199.335 65.3412 198.704 64.5754C198.091 63.7904 197.22 63.3979 196.09 63.3979C194.942 63.3979 194.051 63.7808 193.42 64.5466C192.788 65.3125 192.472 66.4133 192.472 67.8492C192.472 69.3043 192.788 70.4338 193.42 71.2379C194.051 72.042 194.932 72.4441 196.062 72.4441ZM217.445 71.1518C217.77 71.1518 218.029 71.2762 218.22 71.5251C218.431 71.774 218.536 72.1091 218.536 72.5302C218.536 73.1238 218.182 73.6215 217.473 74.0236C216.822 74.3873 216.085 74.6841 215.262 74.9138C214.439 75.1244 213.654 75.2297 212.907 75.2297C210.648 75.2297 208.858 74.5788 207.537 73.2769C206.216 71.975 205.555 70.1945 205.555 67.9354C205.555 66.4995 205.843 65.2263 206.417 64.1159C206.991 63.0054 207.795 62.1439 208.829 61.5312C209.882 60.9186 211.069 60.6123 212.39 60.6123C213.654 60.6123 214.755 60.8899 215.693 61.4451C216.631 62.0003 217.358 62.7853 217.875 63.8C218.392 64.8147 218.651 66.0113 218.651 67.3897C218.651 68.213 218.287 68.6246 217.56 68.6246H209.088C209.203 69.9456 209.576 70.922 210.208 71.5538C210.84 72.1665 211.758 72.4728 212.965 72.4728C213.577 72.4728 214.113 72.3962 214.573 72.2431C215.051 72.0899 215.588 71.8793 216.181 71.6113C216.755 71.3049 217.177 71.1518 217.445 71.1518ZM212.476 63.1395C211.5 63.1395 210.715 63.4458 210.122 64.0584C209.547 64.6711 209.203 65.5518 209.088 66.7005H215.578C215.54 65.5326 215.253 64.6519 214.716 64.0584C214.18 63.4458 213.434 63.1395 212.476 63.1395ZM239.32 60.6697C239.875 60.6697 240.316 60.8229 240.641 61.1292C240.967 61.4355 241.129 61.8471 241.129 62.3641V73.5067C241.129 74.0044 240.957 74.4065 240.612 74.7128C240.287 75.0191 239.856 75.1723 239.32 75.1723C238.803 75.1723 238.392 75.0287 238.085 74.7415C237.779 74.4544 237.626 74.0619 237.626 73.5641V72.8461C237.185 73.612 236.592 74.2055 235.845 74.6267C235.099 75.0287 234.256 75.2297 233.318 75.2297C229.872 75.2297 228.149 73.2961 228.149 69.4287V62.3641C228.149 61.8471 228.312 61.4355 228.637 61.1292C228.963 60.8229 229.393 60.6697 229.929 60.6697C230.485 60.6697 230.925 60.8229 231.25 61.1292C231.576 61.4355 231.739 61.8471 231.739 62.3641V69.4574C231.739 70.453 231.94 71.1901 232.342 71.6687C232.744 72.1473 233.376 72.3867 234.237 72.3867C235.233 72.3867 236.027 72.0612 236.621 71.4102C237.233 70.7402 237.54 69.8595 237.54 68.7682V62.3641C237.54 61.8471 237.702 61.4355 238.028 61.1292C238.353 60.8229 238.784 60.6697 239.32 60.6697ZM252.447 60.6123C254.132 60.6123 255.386 61.0909 256.209 62.0482C257.033 63.0054 257.444 64.4509 257.444 66.3846V73.4492C257.444 73.9853 257.281 74.4065 256.956 74.7128C256.65 75.0191 256.219 75.1723 255.664 75.1723C255.108 75.1723 254.668 75.0191 254.343 74.7128C254.017 74.4065 253.854 73.9853 253.854 73.4492V66.5856C253.854 65.4943 253.644 64.6998 253.223 64.202C252.821 63.7042 252.179 63.4554 251.298 63.4554C250.265 63.4554 249.432 63.7808 248.8 64.4318C248.187 65.0827 247.881 65.9538 247.881 67.0451V73.4492C247.881 73.9853 247.718 74.4065 247.393 74.7128C247.067 75.0191 246.627 75.1723 246.072 75.1723C245.517 75.1723 245.076 75.0191 244.751 74.7128C244.444 74.4065 244.291 73.9853 244.291 73.4492V62.3354C244.291 61.8376 244.454 61.4355 244.779 61.1292C245.105 60.8229 245.545 60.6697 246.101 60.6697C246.598 60.6697 247 60.8229 247.307 61.1292C247.632 61.4164 247.795 61.7993 247.795 62.2779V63.0533C248.274 62.2683 248.915 61.6653 249.719 61.2441C250.523 60.8229 251.433 60.6123 252.447 60.6123ZM275.032 72.5015C275.99 72.559 276.468 72.9897 276.468 73.7938C276.468 74.2533 276.277 74.6075 275.894 74.8564C275.53 75.0862 275.004 75.1819 274.314 75.1436L273.539 75.0862C270.323 74.8564 268.714 73.1333 268.714 69.9169V63.6564H267.279C266.762 63.6564 266.36 63.5415 266.072 63.3118C265.804 63.082 265.67 62.747 265.67 62.3066C265.67 61.8663 265.804 61.5312 266.072 61.3015C266.36 61.0718 266.762 60.9569 267.279 60.9569H268.714V58.3148C268.714 57.7979 268.877 57.3863 269.203 57.08C269.528 56.7736 269.968 56.6205 270.524 56.6205C271.06 56.6205 271.49 56.7736 271.816 57.08C272.141 57.3863 272.304 57.7979 272.304 58.3148V60.9569H274.745C275.262 60.9569 275.655 61.0718 275.923 61.3015C276.21 61.5312 276.353 61.8663 276.353 62.3066C276.353 62.747 276.21 63.082 275.923 63.3118C275.655 63.5415 275.262 63.6564 274.745 63.6564H272.304V70.1754C272.304 71.5921 272.955 72.3484 274.257 72.4441L275.032 72.5015ZM279.545 75.1723C279.028 75.1723 278.597 75.0287 278.253 74.7415C277.927 74.4352 277.765 74.0044 277.765 73.4492V62.3641C277.765 61.8089 277.927 61.3877 278.253 61.1005C278.597 60.8133 279.028 60.6697 279.545 60.6697C280.062 60.6697 280.493 60.8133 280.837 61.1005C281.182 61.3877 281.354 61.8089 281.354 62.3641V73.4492C281.354 74.0044 281.182 74.4352 280.837 74.7415C280.493 75.0287 280.062 75.1723 279.545 75.1723ZM280.263 59.0328C280.052 59.1859 279.842 59.2625 279.631 59.2625C279.363 59.2625 279.134 59.1764 278.942 59.0041C278.77 58.8126 278.684 58.5924 278.684 58.3435C278.684 58.1329 278.76 57.9223 278.913 57.7117L281.699 54.0071C282.139 53.4328 282.647 53.1456 283.221 53.1456C283.642 53.1456 283.996 53.2987 284.284 53.6051C284.59 53.8923 284.743 54.2369 284.743 54.6389C284.743 55.175 284.485 55.6345 283.968 56.0174L280.263 59.0328ZM291.776 72.5015C292.734 72.559 293.212 72.9897 293.212 73.7938C293.212 74.2533 293.021 74.6075 292.638 74.8564C292.274 75.0862 291.748 75.1819 291.058 75.1436L290.283 75.0862C287.067 74.8564 285.458 73.1333 285.458 69.9169V63.6564H284.022C283.506 63.6564 283.103 63.5415 282.816 63.3118C282.548 63.082 282.414 62.747 282.414 62.3066C282.414 61.8663 282.548 61.5312 282.816 61.3015C283.103 61.0718 283.506 60.9569 284.022 60.9569H285.458V58.3148C285.458 57.7979 285.621 57.3863 285.947 57.08C286.272 56.7736 286.712 56.6205 287.268 56.6205C287.804 56.6205 288.234 56.7736 288.56 57.08C288.885 57.3863 289.048 57.7979 289.048 58.3148V60.9569H291.489C292.006 60.9569 292.399 61.0718 292.667 61.3015C292.954 61.5312 293.097 61.8663 293.097 62.3066C293.097 62.747 292.954 63.082 292.667 63.3118C292.399 63.5415 292.006 63.6564 291.489 63.6564H289.048V70.1754C289.048 71.5921 289.699 72.3484 291.001 72.4441L291.776 72.5015ZM305.594 60.6697C306.149 60.6697 306.589 60.8229 306.915 61.1292C307.24 61.4355 307.403 61.8471 307.403 62.3641V73.5067C307.403 74.0044 307.231 74.4065 306.886 74.7128C306.561 75.0191 306.13 75.1723 305.594 75.1723C305.077 75.1723 304.665 75.0287 304.359 74.7415C304.053 74.4544 303.899 74.0619 303.899 73.5641V72.8461C303.459 73.612 302.866 74.2055 302.119 74.6267C301.372 75.0287 300.53 75.2297 299.592 75.2297C296.145 75.2297 294.422 73.2961 294.422 69.4287V62.3641C294.422 61.8471 294.585 61.4355 294.911 61.1292C295.236 60.8229 295.667 60.6697 296.203 60.6697C296.758 60.6697 297.198 60.8229 297.524 61.1292C297.849 61.4355 298.012 61.8471 298.012 62.3641V69.4574C298.012 70.453 298.213 71.1901 298.615 71.6687C299.017 72.1473 299.649 72.3867 300.511 72.3867C301.506 72.3867 302.301 72.0612 302.894 71.4102C303.507 70.7402 303.813 69.8595 303.813 68.7682V62.3641C303.813 61.8471 303.976 61.4355 304.301 61.1292C304.627 60.8229 305.058 60.6697 305.594 60.6697ZM312.345 75.1723C311.828 75.1723 311.398 75.0287 311.053 74.7415C310.728 74.4352 310.565 74.0044 310.565 73.4492V56.3046C310.565 55.7494 310.728 55.3282 311.053 55.041C311.398 54.7538 311.828 54.6102 312.345 54.6102C312.862 54.6102 313.293 54.7538 313.638 55.041C313.982 55.3282 314.155 55.7494 314.155 56.3046V73.4492C314.155 74.0044 313.982 74.4352 313.638 74.7415C313.293 75.0287 312.862 75.1723 312.345 75.1723ZM323.686 75.2297C322.25 75.2297 320.987 74.933 319.896 74.3395C318.823 73.746 317.991 72.894 317.397 71.7836C316.804 70.6732 316.507 69.3808 316.507 67.9066C316.507 66.4325 316.804 65.1497 317.397 64.0584C317.991 62.948 318.823 62.096 319.896 61.5025C320.987 60.909 322.25 60.6123 323.686 60.6123C325.122 60.6123 326.376 60.909 327.448 61.5025C328.54 62.096 329.372 62.948 329.947 64.0584C330.54 65.1497 330.837 66.4325 330.837 67.9066C330.837 69.3808 330.54 70.6732 329.947 71.7836C329.372 72.894 328.54 73.746 327.448 74.3395C326.376 74.933 325.122 75.2297 323.686 75.2297ZM323.658 72.4441C324.825 72.4441 325.716 72.0612 326.328 71.2954C326.941 70.5296 327.247 69.4 327.247 67.9066C327.247 66.4325 326.941 65.3125 326.328 64.5466C325.716 63.7617 324.835 63.3692 323.686 63.3692C322.538 63.3692 321.647 63.7617 321.016 64.5466C320.403 65.3125 320.097 66.4325 320.097 67.9066C320.097 69.4 320.403 70.5296 321.016 71.2954C321.628 72.0612 322.509 72.4441 323.658 72.4441Z" fill="#38485C"/>
<path d="M89.6875 113.18C89.6875 115.065 89.1745 116.508 88.1484 117.508C87.1276 118.503 85.6562 119 83.7344 119H80.5703V107.578H84.0703C85.8464 107.578 87.2266 108.07 88.2109 109.055C89.1953 110.039 89.6875 111.414 89.6875 113.18ZM88.2812 113.227C88.2812 111.737 87.9062 110.615 87.1562 109.859C86.4115 109.104 85.3021 108.727 83.8281 108.727H81.8984V117.852H83.5156C85.099 117.852 86.2891 117.464 87.0859 116.688C87.8828 115.906 88.2812 114.753 88.2812 113.227ZM95.6641 119.156C94.3984 119.156 93.3984 118.771 92.6641 118C91.9349 117.229 91.5703 116.159 91.5703 114.789C91.5703 113.409 91.9089 112.312 92.5859 111.5C93.2682 110.688 94.1823 110.281 95.3281 110.281C96.401 110.281 97.25 110.635 97.875 111.344C98.5 112.047 98.8125 112.977 98.8125 114.133V114.953H92.9141C92.9401 115.958 93.1927 116.721 93.6719 117.242C94.1562 117.763 94.8359 118.023 95.7109 118.023C96.6328 118.023 97.5443 117.831 98.4453 117.445V118.602C97.987 118.799 97.5521 118.94 97.1406 119.023C96.7344 119.112 96.2422 119.156 95.6641 119.156ZM95.3125 111.367C94.625 111.367 94.0755 111.591 93.6641 112.039C93.2578 112.487 93.0182 113.107 92.9453 113.898H97.4219C97.4219 113.081 97.2396 112.456 96.875 112.023C96.5104 111.586 95.9896 111.367 95.3125 111.367ZM106.555 116.664C106.555 117.461 106.258 118.076 105.664 118.508C105.07 118.94 104.237 119.156 103.164 119.156C102.029 119.156 101.143 118.977 100.508 118.617V117.414C100.919 117.622 101.359 117.786 101.828 117.906C102.302 118.026 102.758 118.086 103.195 118.086C103.872 118.086 104.393 117.979 104.758 117.766C105.122 117.547 105.305 117.216 105.305 116.773C105.305 116.44 105.159 116.156 104.867 115.922C104.581 115.682 104.018 115.401 103.18 115.078C102.383 114.781 101.815 114.523 101.477 114.305C101.143 114.081 100.893 113.828 100.727 113.547C100.565 113.266 100.484 112.93 100.484 112.539C100.484 111.841 100.768 111.292 101.336 110.891C101.904 110.484 102.682 110.281 103.672 110.281C104.594 110.281 105.495 110.469 106.375 110.844L105.914 111.898C105.055 111.544 104.276 111.367 103.578 111.367C102.964 111.367 102.5 111.464 102.188 111.656C101.875 111.849 101.719 112.115 101.719 112.453C101.719 112.682 101.776 112.878 101.891 113.039C102.01 113.201 102.201 113.354 102.461 113.5C102.721 113.646 103.221 113.857 103.961 114.133C104.977 114.503 105.661 114.875 106.016 115.25C106.375 115.625 106.555 116.096 106.555 116.664ZM112.094 119.156C110.854 119.156 109.893 118.776 109.211 118.016C108.534 117.25 108.195 116.169 108.195 114.773C108.195 113.341 108.539 112.234 109.227 111.453C109.919 110.672 110.904 110.281 112.18 110.281C112.591 110.281 113.003 110.326 113.414 110.414C113.826 110.503 114.148 110.607 114.383 110.727L113.984 111.828C113.698 111.714 113.385 111.62 113.047 111.547C112.708 111.469 112.409 111.43 112.148 111.43C110.409 111.43 109.539 112.539 109.539 114.758C109.539 115.81 109.75 116.617 110.172 117.18C110.599 117.742 111.229 118.023 112.062 118.023C112.776 118.023 113.508 117.87 114.258 117.562V118.711C113.685 119.008 112.964 119.156 112.094 119.156ZM120.203 110.281C120.583 110.281 120.924 110.312 121.227 110.375L121.047 111.578C120.693 111.5 120.38 111.461 120.109 111.461C119.417 111.461 118.823 111.742 118.328 112.305C117.839 112.867 117.594 113.568 117.594 114.406V119H116.297V110.438H117.367L117.516 112.023H117.578C117.896 111.466 118.279 111.036 118.727 110.734C119.174 110.432 119.667 110.281 120.203 110.281ZM124.125 119H122.828V110.438H124.125V119ZM122.719 108.117C122.719 107.82 122.792 107.604 122.938 107.469C123.083 107.328 123.266 107.258 123.484 107.258C123.693 107.258 123.872 107.328 124.023 107.469C124.174 107.609 124.25 107.826 124.25 108.117C124.25 108.409 124.174 108.628 124.023 108.773C123.872 108.914 123.693 108.984 123.484 108.984C123.266 108.984 123.083 108.914 122.938 108.773C122.792 108.628 122.719 108.409 122.719 108.117ZM130.859 119.156C130.302 119.156 129.792 119.055 129.328 118.852C128.87 118.643 128.484 118.326 128.172 117.898H128.078C128.141 118.398 128.172 118.872 128.172 119.32V122.844H126.875V110.438H127.93L128.109 111.609H128.172C128.505 111.141 128.893 110.802 129.336 110.594C129.779 110.385 130.286 110.281 130.859 110.281C131.995 110.281 132.87 110.669 133.484 111.445C134.104 112.221 134.414 113.31 134.414 114.711C134.414 116.117 134.099 117.211 133.469 117.992C132.844 118.768 131.974 119.156 130.859 119.156ZM130.672 111.383C129.797 111.383 129.164 111.625 128.773 112.109C128.383 112.594 128.182 113.365 128.172 114.422V114.711C128.172 115.914 128.372 116.776 128.773 117.297C129.174 117.812 129.818 118.07 130.703 118.07C131.443 118.07 132.021 117.771 132.438 117.172C132.859 116.573 133.07 115.747 133.07 114.695C133.07 113.628 132.859 112.81 132.438 112.242C132.021 111.669 131.432 111.383 130.672 111.383ZM140.109 119.156C138.87 119.156 137.909 118.776 137.227 118.016C136.549 117.25 136.211 116.169 136.211 114.773C136.211 113.341 136.555 112.234 137.242 111.453C137.935 110.672 138.919 110.281 140.195 110.281C140.607 110.281 141.018 110.326 141.43 110.414C141.841 110.503 142.164 110.607 142.398 110.727L142 111.828C141.714 111.714 141.401 111.62 141.062 111.547C140.724 111.469 140.424 111.43 140.164 111.43C138.424 111.43 137.555 112.539 137.555 114.758C137.555 115.81 137.766 116.617 138.188 117.18C138.615 117.742 139.245 118.023 140.078 118.023C140.792 118.023 141.523 117.87 142.273 117.562V118.711C141.701 119.008 140.979 119.156 140.109 119.156ZM145.609 119H144.312V110.438H145.609V119ZM144.203 108.117C144.203 107.82 144.276 107.604 144.422 107.469C144.568 107.328 144.75 107.258 144.969 107.258C145.177 107.258 145.357 107.328 145.508 107.469C145.659 107.609 145.734 107.826 145.734 108.117C145.734 108.409 145.659 108.628 145.508 108.773C145.357 108.914 145.177 108.984 144.969 108.984C144.75 108.984 144.568 108.914 144.422 108.773C144.276 108.628 144.203 108.409 144.203 108.117ZM155.75 114.711C155.75 116.107 155.398 117.198 154.695 117.984C153.992 118.766 153.021 119.156 151.781 119.156C151.016 119.156 150.336 118.977 149.742 118.617C149.148 118.258 148.69 117.742 148.367 117.07C148.044 116.398 147.883 115.612 147.883 114.711C147.883 113.315 148.232 112.229 148.93 111.453C149.628 110.672 150.596 110.281 151.836 110.281C153.034 110.281 153.984 110.68 154.688 111.477C155.396 112.273 155.75 113.352 155.75 114.711ZM149.227 114.711C149.227 115.805 149.445 116.638 149.883 117.211C150.32 117.784 150.964 118.07 151.812 118.07C152.661 118.07 153.305 117.786 153.742 117.219C154.185 116.646 154.406 115.81 154.406 114.711C154.406 113.622 154.185 112.797 153.742 112.234C153.305 111.667 152.656 111.383 151.797 111.383C150.948 111.383 150.307 111.661 149.875 112.219C149.443 112.776 149.227 113.607 149.227 114.711ZM150.727 109.109C150.977 108.786 151.245 108.396 151.531 107.938C151.823 107.479 152.052 107.081 152.219 106.742H153.797V106.906C153.568 107.245 153.227 107.661 152.773 108.156C152.32 108.651 151.927 109.034 151.594 109.305H150.727V109.109ZM163.891 119V113.461C163.891 112.763 163.732 112.242 163.414 111.898C163.096 111.555 162.599 111.383 161.922 111.383C161.026 111.383 160.37 111.625 159.953 112.109C159.536 112.594 159.328 113.393 159.328 114.508V119H158.031V110.438H159.086L159.297 111.609H159.359C159.625 111.188 159.997 110.862 160.477 110.633C160.956 110.398 161.49 110.281 162.078 110.281C163.109 110.281 163.885 110.531 164.406 111.031C164.927 111.526 165.188 112.32 165.188 113.414V119H163.891Z" fill="#38485C"/>
<rect x="79" y="133" width="552" height="4" rx="2" fill="#E6EBF0"/>
<rect x="79" y="133" width="143.494" height="4" rx="2" fill="#26874A"/>
<rect x="79.3876" y="161.747" width="551.225" height="224.079" rx="5.81461" fill="white"/>
<path d="M99.669 194.055C99.3842 194.055 99.1534 193.971 98.9767 193.804C98.8097 193.628 98.7262 193.392 98.7262 193.097V184.48C98.7262 184.195 98.8048 183.974 98.9619 183.817C99.1289 183.66 99.3547 183.581 99.6395 183.581H103.263C104.373 183.581 105.237 183.861 105.856 184.421C106.474 184.971 106.784 185.747 106.784 186.748C106.784 187.75 106.474 188.531 105.856 189.091C105.237 189.65 104.373 189.93 103.263 189.93H100.626V193.097C100.626 193.392 100.538 193.628 100.361 193.804C100.194 193.971 99.9636 194.055 99.669 194.055ZM103.028 188.472C104.334 188.472 104.987 187.902 104.987 186.763C104.987 185.624 104.334 185.054 103.028 185.054H100.626V188.472H103.028ZM111.077 186.586C112.079 186.586 112.82 186.837 113.301 187.338C113.792 187.829 114.038 188.58 114.038 189.591V193.186C114.038 193.451 113.959 193.662 113.802 193.819C113.645 193.966 113.429 194.04 113.154 194.04C112.899 194.04 112.688 193.961 112.521 193.804C112.364 193.647 112.285 193.441 112.285 193.186V192.862C112.118 193.245 111.853 193.544 111.49 193.76C111.136 193.976 110.724 194.084 110.252 194.084C109.771 194.084 109.334 193.986 108.941 193.79C108.548 193.593 108.239 193.323 108.013 192.979C107.787 192.636 107.674 192.253 107.674 191.83C107.674 191.3 107.807 190.883 108.072 190.578C108.347 190.274 108.789 190.053 109.398 189.915C110.007 189.778 110.846 189.709 111.917 189.709H112.285V189.37C112.285 188.889 112.182 188.541 111.976 188.325C111.769 188.099 111.435 187.986 110.974 187.986C110.689 187.986 110.399 188.03 110.105 188.118C109.81 188.197 109.462 188.315 109.059 188.472C108.804 188.6 108.617 188.663 108.499 188.663C108.322 188.663 108.175 188.6 108.057 188.472C107.949 188.344 107.895 188.177 107.895 187.971C107.895 187.804 107.935 187.662 108.013 187.544C108.102 187.416 108.244 187.298 108.44 187.19C108.784 187.004 109.192 186.856 109.663 186.748C110.144 186.64 110.616 186.586 111.077 186.586ZM110.62 192.758C111.111 192.758 111.509 192.596 111.814 192.272C112.128 191.938 112.285 191.511 112.285 190.991V190.681H112.02C111.362 190.681 110.851 190.711 110.488 190.77C110.124 190.829 109.864 190.932 109.707 191.079C109.55 191.226 109.471 191.428 109.471 191.683C109.471 191.997 109.579 192.258 109.796 192.464C110.021 192.66 110.296 192.758 110.62 192.758ZM118.369 194.084C117.299 194.084 116.435 193.873 115.777 193.451C115.462 193.264 115.305 192.999 115.305 192.655C115.305 192.459 115.359 192.302 115.467 192.184C115.575 192.056 115.708 191.992 115.865 191.992C116.032 191.992 116.263 192.071 116.557 192.228C116.872 192.375 117.156 192.488 117.412 192.567C117.677 192.645 118.011 192.685 118.413 192.685C118.826 192.685 119.145 192.616 119.371 192.479C119.607 192.341 119.724 192.15 119.724 191.904C119.724 191.737 119.675 191.605 119.577 191.506C119.489 191.408 119.322 191.32 119.076 191.241C118.841 191.153 118.477 191.055 117.986 190.947C117.112 190.77 116.484 190.519 116.101 190.195C115.728 189.871 115.541 189.424 115.541 188.855C115.541 188.423 115.669 188.035 115.924 187.691C116.179 187.338 116.528 187.068 116.97 186.881C117.422 186.685 117.932 186.586 118.502 186.586C118.914 186.586 119.312 186.64 119.695 186.748C120.078 186.847 120.422 186.994 120.726 187.19C121.04 187.387 121.197 187.647 121.197 187.971C121.197 188.167 121.143 188.334 121.035 188.472C120.927 188.6 120.795 188.663 120.638 188.663C120.53 188.663 120.422 188.644 120.314 188.604C120.215 188.555 120.088 188.487 119.931 188.398C119.646 188.251 119.4 188.143 119.194 188.074C118.988 187.996 118.733 187.956 118.428 187.956C118.065 187.956 117.775 188.03 117.559 188.177C117.353 188.325 117.25 188.526 117.25 188.781C117.25 189.027 117.358 189.213 117.574 189.341C117.79 189.469 118.207 189.596 118.826 189.724C119.484 189.861 119.999 190.019 120.372 190.195C120.746 190.372 121.011 190.593 121.168 190.858C121.335 191.123 121.418 191.462 121.418 191.875C121.418 192.542 121.138 193.078 120.579 193.48C120.029 193.883 119.292 194.084 118.369 194.084ZM126.049 194.084C125.312 194.084 124.664 193.932 124.104 193.628C123.555 193.323 123.127 192.886 122.823 192.317C122.518 191.747 122.366 191.084 122.366 190.328C122.366 189.572 122.518 188.914 122.823 188.354C123.127 187.784 123.555 187.347 124.104 187.043C124.664 186.739 125.312 186.586 126.049 186.586C126.785 186.586 127.429 186.739 127.979 187.043C128.538 187.347 128.965 187.784 129.26 188.354C129.564 188.914 129.717 189.572 129.717 190.328C129.717 191.084 129.564 191.747 129.26 192.317C128.965 192.886 128.538 193.323 127.979 193.628C127.429 193.932 126.785 194.084 126.049 194.084ZM126.034 192.655C126.633 192.655 127.09 192.459 127.404 192.066C127.718 191.673 127.875 191.094 127.875 190.328C127.875 189.572 127.718 188.997 127.404 188.604C127.09 188.202 126.638 188.001 126.049 188.001C125.46 188.001 125.003 188.202 124.679 188.604C124.365 188.997 124.208 189.572 124.208 190.328C124.208 191.094 124.365 191.673 124.679 192.066C124.993 192.459 125.445 192.655 126.034 192.655ZM133.697 194.084C132.626 194.084 131.762 193.873 131.104 193.451C130.79 193.264 130.633 192.999 130.633 192.655C130.633 192.459 130.687 192.302 130.795 192.184C130.903 192.056 131.035 191.992 131.193 191.992C131.36 191.992 131.59 192.071 131.885 192.228C132.199 192.375 132.484 192.488 132.739 192.567C133.004 192.645 133.338 192.685 133.741 192.685C134.153 192.685 134.473 192.616 134.698 192.479C134.934 192.341 135.052 192.15 135.052 191.904C135.052 191.737 135.003 191.605 134.905 191.506C134.816 191.408 134.649 191.32 134.404 191.241C134.168 191.153 133.805 191.055 133.314 190.947C132.44 190.77 131.811 190.519 131.428 190.195C131.055 189.871 130.869 189.424 130.869 188.855C130.869 188.423 130.996 188.035 131.252 187.691C131.507 187.338 131.855 187.068 132.297 186.881C132.749 186.685 133.26 186.586 133.829 186.586C134.242 186.586 134.64 186.64 135.022 186.748C135.405 186.847 135.749 186.994 136.054 187.19C136.368 187.387 136.525 187.647 136.525 187.971C136.525 188.167 136.471 188.334 136.363 188.472C136.255 188.6 136.122 188.663 135.965 188.663C135.857 188.663 135.749 188.644 135.641 188.604C135.543 188.555 135.415 188.487 135.258 188.398C134.973 188.251 134.728 188.143 134.522 188.074C134.315 187.996 134.06 187.956 133.756 187.956C133.392 187.956 133.103 188.03 132.887 188.177C132.68 188.325 132.577 188.526 132.577 188.781C132.577 189.027 132.685 189.213 132.901 189.341C133.117 189.469 133.535 189.596 134.153 189.724C134.811 189.861 135.327 190.019 135.7 190.195C136.073 190.372 136.338 190.593 136.496 190.858C136.662 191.123 136.746 191.462 136.746 191.875C136.746 192.542 136.466 193.078 135.906 193.48C135.356 193.883 134.62 194.084 133.697 194.084ZM147.953 183.508C148.228 183.508 148.454 183.586 148.631 183.743C148.808 183.901 148.896 184.107 148.896 184.362V193.171C148.896 193.436 148.813 193.647 148.646 193.804C148.479 193.961 148.258 194.04 147.983 194.04C147.708 194.04 147.487 193.961 147.32 193.804C147.153 193.647 147.069 193.436 147.069 193.171V192.803C146.853 193.205 146.539 193.519 146.127 193.745C145.724 193.971 145.263 194.084 144.742 194.084C144.123 194.084 143.569 193.927 143.078 193.613C142.596 193.299 142.218 192.857 141.943 192.287C141.678 191.708 141.546 191.045 141.546 190.298C141.546 189.552 141.678 188.899 141.943 188.339C142.218 187.78 142.596 187.347 143.078 187.043C143.559 186.739 144.114 186.586 144.742 186.586C145.263 186.586 145.724 186.694 146.127 186.91C146.529 187.127 146.839 187.431 147.055 187.824V184.333C147.055 184.087 147.133 183.891 147.29 183.743C147.457 183.586 147.678 183.508 147.953 183.508ZM145.228 192.655C145.817 192.655 146.269 192.454 146.583 192.051C146.907 191.649 147.069 191.074 147.069 190.328C147.069 189.582 146.907 189.012 146.583 188.619C146.269 188.217 145.822 188.015 145.243 188.015C144.654 188.015 144.197 188.212 143.873 188.604C143.549 188.997 143.387 189.562 143.387 190.298C143.387 191.045 143.549 191.624 143.873 192.037C144.197 192.449 144.649 192.655 145.228 192.655ZM156.344 191.992C156.51 191.992 156.643 192.056 156.741 192.184C156.849 192.312 156.903 192.483 156.903 192.699C156.903 193.004 156.722 193.259 156.358 193.465C156.024 193.652 155.646 193.804 155.224 193.922C154.802 194.03 154.399 194.084 154.016 194.084C152.857 194.084 151.939 193.75 151.262 193.082C150.584 192.415 150.245 191.501 150.245 190.343C150.245 189.606 150.392 188.953 150.687 188.384C150.982 187.814 151.394 187.372 151.924 187.058C152.465 186.744 153.073 186.586 153.751 186.586C154.399 186.586 154.964 186.729 155.445 187.014C155.926 187.298 156.299 187.701 156.564 188.221C156.83 188.742 156.962 189.356 156.962 190.063C156.962 190.485 156.776 190.696 156.402 190.696H152.057C152.116 191.374 152.307 191.875 152.631 192.199C152.956 192.513 153.427 192.67 154.046 192.67C154.36 192.67 154.635 192.631 154.87 192.552C155.116 192.474 155.391 192.366 155.695 192.228C155.99 192.071 156.206 191.992 156.344 191.992ZM153.795 187.883C153.294 187.883 152.892 188.04 152.587 188.354C152.293 188.668 152.116 189.12 152.057 189.709H155.386C155.366 189.11 155.219 188.658 154.944 188.354C154.669 188.04 154.286 187.883 153.795 187.883ZM159.234 194.055C158.969 194.055 158.748 193.981 158.571 193.834C158.405 193.677 158.321 193.456 158.321 193.171V184.377C158.321 184.092 158.405 183.876 158.571 183.729C158.748 183.581 158.969 183.508 159.234 183.508C159.499 183.508 159.72 183.581 159.897 183.729C160.074 183.876 160.162 184.092 160.162 184.377V193.171C160.162 193.456 160.074 193.677 159.897 193.834C159.72 193.981 159.499 194.055 159.234 194.055ZM169.507 192.685C169.998 192.714 170.244 192.935 170.244 193.348C170.244 193.583 170.145 193.765 169.949 193.893C169.762 194.01 169.492 194.06 169.139 194.04L168.741 194.01C167.091 193.893 166.266 193.009 166.266 191.359V188.148H165.53C165.265 188.148 165.059 188.089 164.911 187.971C164.774 187.853 164.705 187.681 164.705 187.455C164.705 187.23 164.774 187.058 164.911 186.94C165.059 186.822 165.265 186.763 165.53 186.763H166.266V185.408C166.266 185.143 166.35 184.932 166.517 184.775C166.684 184.617 166.91 184.539 167.194 184.539C167.469 184.539 167.69 184.617 167.857 184.775C168.024 184.932 168.108 185.143 168.108 185.408V186.763H169.36C169.625 186.763 169.826 186.822 169.964 186.94C170.111 187.058 170.185 187.23 170.185 187.455C170.185 187.681 170.111 187.853 169.964 187.971C169.826 188.089 169.625 188.148 169.36 188.148H168.108V191.492C168.108 192.218 168.442 192.606 169.109 192.655L169.507 192.685ZM175.077 186.616C175.333 186.596 175.534 186.65 175.681 186.778C175.829 186.906 175.902 187.097 175.902 187.352C175.902 187.618 175.838 187.814 175.711 187.942C175.583 188.069 175.352 188.153 175.018 188.192L174.576 188.236C173.997 188.295 173.57 188.492 173.295 188.825C173.03 189.159 172.897 189.577 172.897 190.077V193.171C172.897 193.456 172.809 193.677 172.632 193.834C172.455 193.981 172.234 194.055 171.969 194.055C171.704 194.055 171.483 193.981 171.306 193.834C171.139 193.677 171.056 193.456 171.056 193.171V187.47C171.056 187.195 171.139 186.984 171.306 186.837C171.483 186.69 171.699 186.616 171.954 186.616C172.21 186.616 172.416 186.69 172.573 186.837C172.73 186.974 172.809 187.176 172.809 187.441V188.03C172.995 187.598 173.27 187.264 173.634 187.028C174.007 186.793 174.419 186.66 174.871 186.631L175.077 186.616ZM179.642 186.586C180.643 186.586 181.385 186.837 181.866 187.338C182.357 187.829 182.602 188.58 182.602 189.591V193.186C182.602 193.451 182.524 193.662 182.367 193.819C182.21 193.966 181.994 194.04 181.719 194.04C181.463 194.04 181.252 193.961 181.085 193.804C180.928 193.647 180.849 193.441 180.849 193.186V192.862C180.683 193.245 180.417 193.544 180.054 193.76C179.701 193.976 179.288 194.084 178.817 194.084C178.336 194.084 177.899 193.986 177.506 193.79C177.113 193.593 176.804 193.323 176.578 192.979C176.352 192.636 176.239 192.253 176.239 191.83C176.239 191.3 176.371 190.883 176.637 190.578C176.912 190.274 177.353 190.053 177.962 189.915C178.571 189.778 179.411 189.709 180.481 189.709H180.849V189.37C180.849 188.889 180.746 188.541 180.54 188.325C180.334 188.099 180 187.986 179.538 187.986C179.254 187.986 178.964 188.03 178.669 188.118C178.375 188.197 178.026 188.315 177.624 188.472C177.368 188.6 177.182 188.663 177.064 188.663C176.887 188.663 176.74 188.6 176.622 188.472C176.514 188.344 176.46 188.177 176.46 187.971C176.46 187.804 176.499 187.662 176.578 187.544C176.666 187.416 176.808 187.298 177.005 187.19C177.349 187.004 177.756 186.856 178.227 186.748C178.709 186.64 179.18 186.586 179.642 186.586ZM179.185 192.758C179.676 192.758 180.074 192.596 180.378 192.272C180.692 191.938 180.849 191.511 180.849 190.991V190.681H180.584C179.926 190.681 179.416 190.711 179.052 190.77C178.689 190.829 178.429 190.932 178.272 191.079C178.115 191.226 178.036 191.428 178.036 191.683C178.036 191.997 178.144 192.258 178.36 192.464C178.586 192.66 178.861 192.758 179.185 192.758ZM180.01 185.776C179.902 185.855 179.794 185.894 179.686 185.894C179.548 185.894 179.43 185.85 179.332 185.762C179.244 185.663 179.2 185.55 179.2 185.423C179.2 185.315 179.239 185.207 179.318 185.099L180.746 183.198C180.972 182.904 181.232 182.757 181.527 182.757C181.743 182.757 181.925 182.835 182.072 182.992C182.229 183.14 182.308 183.316 182.308 183.522C182.308 183.797 182.175 184.033 181.91 184.23L180.01 185.776ZM192.885 186.586C193.67 186.586 194.269 186.822 194.682 187.293C195.104 187.755 195.315 188.506 195.315 189.547V193.171C195.315 193.456 195.227 193.677 195.05 193.834C194.883 193.981 194.662 194.055 194.387 194.055C194.122 194.055 193.901 193.981 193.724 193.834C193.557 193.677 193.474 193.456 193.474 193.171V189.547C193.474 189.007 193.376 188.624 193.179 188.398C192.993 188.163 192.703 188.045 192.31 188.045C191.829 188.045 191.446 188.212 191.161 188.546C190.877 188.87 190.734 189.316 190.734 189.886V193.171C190.734 193.456 190.646 193.677 190.469 193.834C190.302 193.981 190.086 194.055 189.821 194.055C189.556 194.055 189.335 193.981 189.158 193.834C188.981 193.677 188.893 193.456 188.893 193.171V189.547C188.893 189.007 188.795 188.624 188.598 188.398C188.412 188.163 188.122 188.045 187.729 188.045C187.248 188.045 186.865 188.212 186.58 188.546C186.305 188.87 186.168 189.316 186.168 189.886V193.171C186.168 193.456 186.079 193.677 185.903 193.834C185.726 193.981 185.505 194.055 185.24 194.055C184.975 194.055 184.754 193.981 184.577 193.834C184.41 193.677 184.326 193.456 184.326 193.171V187.47C184.326 187.195 184.415 186.984 184.592 186.837C184.768 186.69 184.989 186.616 185.254 186.616C185.51 186.616 185.716 186.69 185.873 186.837C186.04 186.974 186.124 187.176 186.124 187.441V187.794C186.349 187.401 186.649 187.102 187.022 186.896C187.405 186.69 187.842 186.586 188.333 186.586C189.413 186.586 190.135 187.038 190.498 187.942C190.714 187.529 191.034 187.2 191.456 186.955C191.878 186.709 192.354 186.586 192.885 186.586ZM197.953 194.055C197.688 194.055 197.467 193.981 197.29 193.834C197.123 193.677 197.039 193.456 197.039 193.171V187.485C197.039 187.2 197.123 186.984 197.29 186.837C197.467 186.69 197.688 186.616 197.953 186.616C198.218 186.616 198.439 186.69 198.616 186.837C198.792 186.984 198.881 187.2 198.881 187.485V193.171C198.881 193.456 198.792 193.677 198.616 193.834C198.439 193.981 198.218 194.055 197.953 194.055ZM197.953 185.305C197.619 185.305 197.354 185.216 197.157 185.04C196.961 184.853 196.863 184.613 196.863 184.318C196.863 184.023 196.961 183.788 197.157 183.611C197.354 183.434 197.619 183.346 197.953 183.346C198.277 183.346 198.537 183.434 198.733 183.611C198.94 183.788 199.043 184.023 199.043 184.318C199.043 184.613 198.945 184.853 198.748 185.04C198.552 185.216 198.287 185.305 197.953 185.305ZM204.374 192.685C204.865 192.714 205.11 192.935 205.11 193.348C205.11 193.583 205.012 193.765 204.816 193.893C204.629 194.01 204.359 194.06 204.005 194.04L203.608 194.01C201.958 193.893 201.133 193.009 201.133 191.359V188.148H200.397C200.131 188.148 199.925 188.089 199.778 187.971C199.64 187.853 199.572 187.681 199.572 187.455C199.572 187.23 199.64 187.058 199.778 186.94C199.925 186.822 200.131 186.763 200.397 186.763H201.133V185.408C201.133 185.143 201.217 184.932 201.383 184.775C201.55 184.617 201.776 184.539 202.061 184.539C202.336 184.539 202.557 184.617 202.724 184.775C202.891 184.932 202.974 185.143 202.974 185.408V186.763H204.226C204.492 186.763 204.693 186.822 204.83 186.94C204.978 187.058 205.051 187.23 205.051 187.455C205.051 187.681 204.978 187.853 204.83 187.971C204.693 188.089 204.492 188.148 204.226 188.148H202.974V191.492C202.974 192.218 203.308 192.606 203.976 192.655L204.374 192.685ZM211.623 191.992C211.79 191.992 211.923 192.056 212.021 192.184C212.129 192.312 212.183 192.483 212.183 192.699C212.183 193.004 212.001 193.259 211.638 193.465C211.304 193.652 210.926 193.804 210.504 193.922C210.081 194.03 209.679 194.084 209.296 194.084C208.137 194.084 207.219 193.75 206.541 193.082C205.864 192.415 205.525 191.501 205.525 190.343C205.525 189.606 205.672 188.953 205.967 188.384C206.261 187.814 206.674 187.372 207.204 187.058C207.744 186.744 208.353 186.586 209.031 186.586C209.679 186.586 210.243 186.729 210.725 187.014C211.206 187.298 211.579 187.701 211.844 188.221C212.109 188.742 212.242 189.356 212.242 190.063C212.242 190.485 212.055 190.696 211.682 190.696H207.337C207.396 191.374 207.587 191.875 207.911 192.199C208.235 192.513 208.707 192.67 209.325 192.67C209.639 192.67 209.914 192.631 210.15 192.552C210.396 192.474 210.671 192.366 210.975 192.228C211.27 192.071 211.486 191.992 211.623 191.992ZM209.075 187.883C208.574 187.883 208.171 188.04 207.867 188.354C207.572 188.668 207.396 189.12 207.337 189.709H210.666C210.646 189.11 210.499 188.658 210.224 188.354C209.949 188.04 209.566 187.883 209.075 187.883Z" fill="#38485C"/>
<path d="M612.393 216.798H97.6067V218.348H612.393V216.798Z" fill="#E6EBF0" mask="url(#path-7-inside-1_789_1926)"/>
<path d="M106.91 237.927C102.631 237.927 99.1573 241.4 99.1573 245.68C99.1573 249.959 102.631 253.433 106.91 253.433C111.19 253.433 114.663 249.959 114.663 245.68C114.663 241.4 111.19 237.927 106.91 237.927ZM104.809 249.006L102.026 246.223C101.954 246.151 101.897 246.066 101.858 245.972C101.819 245.878 101.799 245.778 101.799 245.676C101.799 245.574 101.819 245.474 101.858 245.38C101.897 245.286 101.954 245.201 102.026 245.129C102.098 245.058 102.183 245.001 102.277 244.962C102.37 244.923 102.471 244.903 102.572 244.903C102.674 244.903 102.774 244.923 102.868 244.962C102.962 245.001 103.047 245.058 103.119 245.129L105.36 247.362L110.693 242.028C110.838 241.883 111.035 241.802 111.24 241.802C111.445 241.802 111.642 241.883 111.787 242.028C111.932 242.173 112.013 242.37 112.013 242.575C112.013 242.78 111.932 242.976 111.787 243.121L105.902 249.006C105.831 249.078 105.745 249.135 105.652 249.174C105.558 249.213 105.457 249.233 105.356 249.233C105.254 249.233 105.154 249.213 105.06 249.174C104.966 249.135 104.881 249.078 104.809 249.006Z" fill="#26874A"/>
<path d="M129.248 243.905C129.248 244.801 128.941 245.492 128.327 245.976C127.718 246.457 126.843 246.697 125.705 246.697H124.663V250.18H123.633V241.325H125.929C128.142 241.325 129.248 242.185 129.248 243.905ZM124.663 245.813H125.59C126.502 245.813 127.162 245.665 127.57 245.371C127.978 245.076 128.182 244.603 128.182 243.953C128.182 243.368 127.99 242.932 127.606 242.645C127.223 242.358 126.625 242.215 125.814 242.215H124.663V245.813ZM133.984 243.42C134.279 243.42 134.544 243.445 134.778 243.493L134.639 244.426C134.364 244.365 134.122 244.335 133.912 244.335C133.375 244.335 132.914 244.553 132.531 244.989C132.151 245.425 131.961 245.968 131.961 246.618V250.18H130.956V243.541H131.786L131.901 244.771H131.949C132.196 244.339 132.492 244.006 132.84 243.772C133.187 243.537 133.568 243.42 133.984 243.42ZM137.025 250.18H136.019V243.541H137.025V250.18ZM135.935 241.743C135.935 241.512 135.991 241.345 136.104 241.24C136.217 241.131 136.359 241.076 136.528 241.076C136.69 241.076 136.829 241.131 136.946 241.24C137.063 241.349 137.122 241.516 137.122 241.743C137.122 241.969 137.063 242.138 136.946 242.251C136.829 242.36 136.69 242.415 136.528 242.415C136.359 242.415 136.217 242.36 136.104 242.251C135.991 242.138 135.935 241.969 135.935 241.743ZM147.618 250.18V245.861C147.618 245.332 147.505 244.937 147.279 244.674C147.053 244.408 146.702 244.274 146.225 244.274C145.599 244.274 145.137 244.454 144.838 244.813C144.539 245.173 144.39 245.726 144.39 246.473V250.18H143.385V245.861C143.385 245.332 143.272 244.937 143.045 244.674C142.819 244.408 142.466 244.274 141.986 244.274C141.356 244.274 140.893 244.464 140.598 244.844C140.308 245.219 140.162 245.837 140.162 246.697V250.18H139.157V243.541H139.975L140.138 244.45H140.187C140.376 244.127 140.643 243.875 140.986 243.693C141.333 243.511 141.721 243.42 142.149 243.42C143.187 243.42 143.865 243.796 144.184 244.547H144.233C144.43 244.2 144.717 243.925 145.093 243.723C145.468 243.521 145.896 243.42 146.377 243.42C147.128 243.42 147.689 243.614 148.061 244.002C148.436 244.385 148.624 245.001 148.624 245.849V250.18H147.618ZM153.506 250.301C152.524 250.301 151.749 250.002 151.18 249.405C150.615 248.807 150.332 247.977 150.332 246.915C150.332 245.845 150.594 244.995 151.119 244.365C151.648 243.735 152.357 243.42 153.245 243.42C154.077 243.42 154.735 243.695 155.22 244.244C155.704 244.789 155.947 245.51 155.947 246.406V247.042H151.374C151.394 247.822 151.59 248.413 151.961 248.817C152.337 249.221 152.864 249.423 153.542 249.423C154.257 249.423 154.963 249.273 155.662 248.974V249.871C155.307 250.024 154.969 250.133 154.65 250.198C154.335 250.267 153.954 250.301 153.506 250.301ZM153.233 244.262C152.7 244.262 152.274 244.436 151.955 244.783C151.64 245.13 151.454 245.611 151.398 246.225H154.869C154.869 245.591 154.727 245.106 154.445 244.771C154.162 244.432 153.758 244.262 153.233 244.262ZM160.695 243.42C160.99 243.42 161.254 243.445 161.489 243.493L161.349 244.426C161.075 244.365 160.833 244.335 160.623 244.335C160.085 244.335 159.625 244.553 159.242 244.989C158.862 245.425 158.672 245.968 158.672 246.618V250.18H157.667V243.541H158.497L158.612 244.771H158.66C158.906 244.339 159.203 244.006 159.55 243.772C159.898 243.537 160.279 243.42 160.695 243.42ZM169.042 250.301C168.61 250.301 168.214 250.222 167.854 250.065C167.499 249.903 167.2 249.657 166.958 249.326H166.885C166.934 249.713 166.958 250.081 166.958 250.428V253.16H165.953V243.541H166.77L166.91 244.45H166.958C167.216 244.087 167.517 243.824 167.861 243.663C168.204 243.501 168.597 243.42 169.042 243.42C169.922 243.42 170.6 243.721 171.077 244.323C171.557 244.924 171.797 245.768 171.797 246.855C171.797 247.945 171.553 248.793 171.065 249.398C170.58 250 169.906 250.301 169.042 250.301ZM168.896 244.274C168.218 244.274 167.727 244.462 167.424 244.838C167.122 245.213 166.966 245.811 166.958 246.63V246.855C166.958 247.787 167.113 248.456 167.424 248.859C167.735 249.259 168.234 249.459 168.92 249.459C169.494 249.459 169.942 249.227 170.265 248.762C170.592 248.298 170.756 247.658 170.756 246.842C170.756 246.015 170.592 245.381 170.265 244.941C169.942 244.496 169.486 244.274 168.896 244.274ZM177.642 250.18L177.443 249.235H177.394C177.063 249.651 176.732 249.933 176.401 250.083C176.074 250.228 175.664 250.301 175.171 250.301C174.513 250.301 173.996 250.131 173.621 249.792C173.249 249.453 173.063 248.97 173.063 248.345C173.063 247.004 174.135 246.301 176.28 246.237L177.406 246.2V245.789C177.406 245.268 177.293 244.884 177.067 244.638C176.845 244.387 176.488 244.262 175.995 244.262C175.442 244.262 174.816 244.432 174.117 244.771L173.808 244.002C174.135 243.824 174.493 243.685 174.88 243.584C175.272 243.483 175.664 243.432 176.055 243.432C176.847 243.432 177.432 243.608 177.812 243.959C178.196 244.311 178.387 244.874 178.387 245.649V250.18H177.642ZM175.371 249.471C175.997 249.471 176.488 249.3 176.843 248.956C177.202 248.613 177.382 248.133 177.382 247.515V246.915L176.376 246.958C175.577 246.986 175 247.111 174.644 247.333C174.293 247.551 174.117 247.892 174.117 248.357C174.117 248.72 174.226 248.997 174.444 249.186C174.666 249.376 174.975 249.471 175.371 249.471ZM184.747 248.369C184.747 248.987 184.517 249.463 184.057 249.798C183.596 250.133 182.95 250.301 182.118 250.301C181.238 250.301 180.552 250.162 180.059 249.883V248.95C180.378 249.112 180.719 249.239 181.083 249.332C181.45 249.425 181.803 249.471 182.143 249.471C182.668 249.471 183.071 249.388 183.354 249.223C183.637 249.053 183.778 248.797 183.778 248.454C183.778 248.195 183.665 247.975 183.439 247.793C183.217 247.608 182.781 247.39 182.131 247.139C181.513 246.909 181.073 246.709 180.81 246.54C180.552 246.366 180.358 246.17 180.229 245.952C180.103 245.734 180.041 245.474 180.041 245.171C180.041 244.63 180.261 244.204 180.701 243.893C181.141 243.578 181.745 243.42 182.512 243.42C183.227 243.42 183.925 243.566 184.608 243.856L184.25 244.674C183.584 244.4 182.981 244.262 182.439 244.262C181.963 244.262 181.604 244.337 181.361 244.486C181.119 244.636 180.998 244.842 180.998 245.104C180.998 245.282 181.042 245.433 181.131 245.558C181.224 245.684 181.371 245.803 181.573 245.916C181.775 246.029 182.163 246.192 182.736 246.406C183.524 246.693 184.055 246.982 184.329 247.273C184.608 247.563 184.747 247.929 184.747 248.369ZM192.118 246.855C192.118 247.937 191.846 248.783 191.301 249.392C190.756 249.998 190.002 250.301 189.041 250.301C188.448 250.301 187.921 250.162 187.461 249.883C187 249.604 186.645 249.205 186.395 248.684C186.144 248.163 186.019 247.553 186.019 246.855C186.019 245.772 186.29 244.931 186.831 244.329C187.372 243.723 188.123 243.42 189.084 243.42C190.013 243.42 190.749 243.729 191.295 244.347C191.844 244.965 192.118 245.801 192.118 246.855ZM187.061 246.855C187.061 247.703 187.23 248.349 187.57 248.793C187.909 249.237 188.407 249.459 189.066 249.459C189.724 249.459 190.223 249.239 190.562 248.799C190.905 248.355 191.077 247.707 191.077 246.855C191.077 246.011 190.905 245.371 190.562 244.935C190.223 244.494 189.72 244.274 189.054 244.274C188.395 244.274 187.899 244.49 187.564 244.922C187.228 245.354 187.061 245.999 187.061 246.855ZM201.628 249.289H201.573C201.109 249.964 200.414 250.301 199.49 250.301C198.621 250.301 197.945 250.004 197.46 249.411C196.98 248.817 196.74 247.973 196.74 246.879C196.74 245.785 196.982 244.935 197.467 244.329C197.951 243.723 198.625 243.42 199.49 243.42C200.39 243.42 201.08 243.747 201.561 244.402H201.64L201.597 243.923L201.573 243.457V240.755H202.579V250.18H201.761L201.628 249.289ZM199.617 249.459C200.303 249.459 200.8 249.273 201.107 248.902C201.418 248.526 201.573 247.923 201.573 247.091V246.879C201.573 245.938 201.416 245.268 201.101 244.868C200.79 244.464 200.291 244.262 199.605 244.262C199.015 244.262 198.563 244.492 198.248 244.953C197.937 245.409 197.782 246.055 197.782 246.891C197.782 247.739 197.937 248.379 198.248 248.811C198.559 249.243 199.015 249.459 199.617 249.459ZM207.521 250.301C206.54 250.301 205.764 250.002 205.195 249.405C204.63 248.807 204.347 247.977 204.347 246.915C204.347 245.845 204.61 244.995 205.135 244.365C205.664 243.735 206.372 243.42 207.261 243.42C208.092 243.42 208.751 243.695 209.235 244.244C209.72 244.789 209.962 245.51 209.962 246.406V247.042H205.389C205.409 247.822 205.605 248.413 205.976 248.817C206.352 249.221 206.879 249.423 207.557 249.423C208.272 249.423 208.979 249.273 209.677 248.974V249.871C209.322 250.024 208.985 250.133 208.666 250.198C208.351 250.267 207.969 250.301 207.521 250.301ZM207.248 244.262C206.715 244.262 206.289 244.436 205.97 244.783C205.655 245.13 205.47 245.611 205.413 246.225H208.884C208.884 245.591 208.742 245.106 208.46 244.771C208.177 244.432 207.773 244.262 207.248 244.262ZM215.849 243.541V247.848C215.849 248.389 215.972 248.793 216.219 249.059C216.465 249.326 216.851 249.459 217.376 249.459C218.07 249.459 218.577 249.269 218.896 248.89C219.219 248.51 219.38 247.89 219.38 247.03V243.541H220.386V250.18H219.556L219.411 249.289H219.356C219.15 249.617 218.863 249.867 218.496 250.041C218.133 250.214 217.717 250.301 217.248 250.301C216.441 250.301 215.835 250.109 215.431 249.726C215.032 249.342 214.832 248.728 214.832 247.884V243.541H215.849ZM227.067 250.18V245.885C227.067 245.344 226.943 244.941 226.697 244.674C226.451 244.408 226.065 244.274 225.54 244.274C224.846 244.274 224.337 244.462 224.014 244.838C223.691 245.213 223.529 245.833 223.529 246.697V250.18H222.524V243.541H223.342L223.505 244.45H223.554C223.759 244.123 224.048 243.871 224.42 243.693C224.791 243.511 225.205 243.42 225.661 243.42C226.461 243.42 227.062 243.614 227.466 244.002C227.87 244.385 228.072 245.001 228.072 245.849V250.18H227.067ZM235.51 249.471C235.687 249.471 235.859 249.459 236.025 249.435C236.19 249.407 236.321 249.378 236.418 249.35V250.119C236.309 250.172 236.148 250.214 235.934 250.246C235.724 250.283 235.534 250.301 235.364 250.301C234.08 250.301 233.438 249.625 233.438 248.272V244.323H232.487V243.838L233.438 243.42L233.862 242.003H234.444V243.541H236.37V244.323H234.444V248.229C234.444 248.629 234.539 248.936 234.728 249.15C234.918 249.364 235.179 249.471 235.51 249.471ZM240.779 243.42C241.074 243.42 241.339 243.445 241.573 243.493L241.433 244.426C241.159 244.365 240.917 244.335 240.707 244.335C240.17 244.335 239.709 244.553 239.326 244.989C238.946 245.425 238.756 245.968 238.756 246.618V250.18H237.751V243.541H238.581L238.696 244.771H238.744C238.991 244.339 239.287 244.006 239.635 243.772C239.982 243.537 240.363 243.42 240.779 243.42ZM246.897 250.18L246.697 249.235H246.648C246.317 249.651 245.986 249.933 245.655 250.083C245.328 250.228 244.918 250.301 244.426 250.301C243.767 250.301 243.251 250.131 242.875 249.792C242.504 249.453 242.318 248.97 242.318 248.345C242.318 247.004 243.39 246.301 245.534 246.237L246.661 246.2V245.789C246.661 245.268 246.547 244.884 246.321 244.638C246.099 244.387 245.742 244.262 245.249 244.262C244.696 244.262 244.07 244.432 243.372 244.771L243.063 244.002C243.39 243.824 243.747 243.685 244.135 243.584C244.527 243.483 244.918 243.432 245.31 243.432C246.101 243.432 246.687 243.608 247.066 243.959C247.45 244.311 247.642 244.874 247.642 245.649V250.18H246.897ZM244.625 249.471C245.251 249.471 245.742 249.3 246.097 248.956C246.457 248.613 246.636 248.133 246.636 247.515V246.915L245.631 246.958C244.831 246.986 244.254 247.111 243.899 247.333C243.547 247.551 243.372 247.892 243.372 248.357C243.372 248.72 243.481 248.997 243.699 249.186C243.921 249.376 244.23 249.471 244.625 249.471ZM244.389 242.512C244.583 242.261 244.791 241.959 245.013 241.603C245.239 241.248 245.417 240.939 245.546 240.677H246.77V240.804C246.592 241.066 246.327 241.389 245.976 241.773C245.625 242.156 245.32 242.453 245.062 242.663H244.389V242.512ZM258.181 250.18V245.861C258.181 245.332 258.068 244.937 257.842 244.674C257.615 244.408 257.264 244.274 256.788 244.274C256.162 244.274 255.699 244.454 255.401 244.813C255.102 245.173 254.952 245.726 254.952 246.473V250.18H253.947V245.861C253.947 245.332 253.834 244.937 253.608 244.674C253.382 244.408 253.028 244.274 252.548 244.274C251.918 244.274 251.456 244.464 251.161 244.844C250.87 245.219 250.725 245.837 250.725 246.697V250.18H249.719V243.541H250.537L250.7 244.45H250.749C250.939 244.127 251.205 243.875 251.548 243.693C251.896 243.511 252.283 243.42 252.711 243.42C253.749 243.42 254.427 243.796 254.746 244.547H254.795C254.993 244.2 255.279 243.925 255.655 243.723C256.031 243.521 256.459 243.42 256.939 243.42C257.69 243.42 258.251 243.614 258.623 244.002C258.998 244.385 259.186 245.001 259.186 245.849V250.18H258.181ZM262.269 250.18H261.264V243.541H262.269V250.18ZM261.179 241.743C261.179 241.512 261.235 241.345 261.348 241.24C261.462 241.131 261.603 241.076 261.772 241.076C261.934 241.076 262.073 241.131 262.19 241.24C262.307 241.349 262.366 241.516 262.366 241.743C262.366 241.969 262.307 242.138 262.19 242.251C262.073 242.36 261.934 242.415 261.772 242.415C261.603 242.415 261.462 242.36 261.348 242.251C261.235 242.138 261.179 241.969 261.179 241.743ZM266.545 249.471C266.723 249.471 266.895 249.459 267.06 249.435C267.226 249.407 267.357 249.378 267.454 249.35V250.119C267.345 250.172 267.183 250.214 266.969 250.246C266.759 250.283 266.57 250.301 266.4 250.301C265.116 250.301 264.474 249.625 264.474 248.272V244.323H263.523V243.838L264.474 243.42L264.898 242.003H265.479V243.541H267.405V244.323H265.479V248.229C265.479 248.629 265.574 248.936 265.764 249.15C265.954 249.364 266.214 249.471 266.545 249.471ZM271.591 250.301C270.609 250.301 269.834 250.002 269.265 249.405C268.7 248.807 268.417 247.977 268.417 246.915C268.417 245.845 268.679 244.995 269.204 244.365C269.733 243.735 270.442 243.42 271.33 243.42C272.162 243.42 272.82 243.695 273.305 244.244C273.789 244.789 274.032 245.51 274.032 246.406V247.042H269.459C269.479 247.822 269.675 248.413 270.046 248.817C270.422 249.221 270.949 249.423 271.627 249.423C272.342 249.423 273.048 249.273 273.747 248.974V249.871C273.392 250.024 273.054 250.133 272.735 250.198C272.42 250.267 272.039 250.301 271.591 250.301ZM271.318 244.262C270.785 244.262 270.359 244.436 270.04 244.783C269.725 245.13 269.539 245.611 269.483 246.225H272.953C272.953 245.591 272.812 245.106 272.529 244.771C272.247 244.432 271.843 244.262 271.318 244.262Z" fill="#38485C"/>
<path d="M600.764 241.579C600.62 241.725 600.539 241.921 600.539 242.126C600.539 242.331 600.62 242.527 600.764 242.672L603.772 245.68L600.764 248.689C600.637 248.837 600.571 249.028 600.578 249.223C600.586 249.418 600.667 249.603 600.805 249.741C600.943 249.879 601.128 249.96 601.323 249.968C601.518 249.975 601.709 249.909 601.857 249.782L605.416 246.223C605.56 246.077 605.641 245.881 605.641 245.676C605.641 245.471 605.56 245.275 605.416 245.129L601.857 241.571C601.711 241.428 601.514 241.348 601.309 241.35C601.104 241.351 600.908 241.434 600.764 241.579Z" fill="#38485C"/>
<path d="M612.393 273.011H97.6067V274.562H612.393V273.011Z" fill="#E6EBF0" mask="url(#path-10-inside-2_789_1926)"/>
<path d="M103.034 303.056C103.357 303.056 103.631 302.943 103.857 302.717C104.083 302.491 104.197 302.216 104.197 301.893C104.197 301.57 104.083 301.296 103.857 301.07C103.631 300.844 103.357 300.73 103.034 300.73C102.711 300.73 102.436 300.844 102.21 301.07C101.984 301.296 101.871 301.57 101.871 301.893C101.871 302.216 101.984 302.491 102.21 302.717C102.436 302.943 102.711 303.056 103.034 303.056ZM106.91 303.056C107.233 303.056 107.508 302.943 107.733 302.717C107.96 302.491 108.073 302.216 108.073 301.893C108.073 301.57 107.96 301.296 107.733 301.07C107.508 300.844 107.233 300.73 106.91 300.73C106.587 300.73 106.313 300.844 106.087 301.07C105.86 301.296 105.747 301.57 105.747 301.893C105.747 302.216 105.86 302.491 106.087 302.717C106.313 302.943 106.587 303.056 106.91 303.056ZM110.787 303.056C111.11 303.056 111.384 302.943 111.61 302.717C111.836 302.491 111.949 302.216 111.949 301.893C111.949 301.57 111.836 301.296 111.61 301.07C111.384 300.844 111.11 300.73 110.787 300.73C110.463 300.73 110.189 300.844 109.963 301.07C109.737 301.296 109.624 301.57 109.624 301.893C109.624 302.216 109.737 302.491 109.963 302.717C110.189 302.943 110.463 303.056 110.787 303.056ZM106.91 309.646C105.838 309.646 104.83 309.442 103.887 309.035C102.943 308.628 102.123 308.076 101.425 307.378C100.727 306.681 100.175 305.86 99.7682 304.917C99.3609 303.974 99.1573 302.966 99.1573 301.893C99.1573 300.821 99.3609 299.813 99.7682 298.87C100.175 297.926 100.727 297.106 101.425 296.408C102.123 295.71 102.943 295.158 103.887 294.751C104.83 294.344 105.838 294.14 106.91 294.14C107.983 294.14 108.99 294.344 109.934 294.751C110.877 295.158 111.697 295.71 112.395 296.408C113.093 297.106 113.645 297.926 114.052 298.87C114.459 299.813 114.663 300.821 114.663 301.893C114.663 302.966 114.459 303.974 114.052 304.917C113.645 305.86 113.093 306.681 112.395 307.378C111.697 308.076 110.877 308.628 109.934 309.035C108.99 309.442 107.983 309.646 106.91 309.646Z" fill="#007BC7"/>
<path d="M128.63 304.037C128.63 304.816 128.347 305.424 127.782 305.86C127.217 306.296 126.45 306.514 125.481 306.514C124.431 306.514 123.623 306.379 123.058 306.109V305.115C123.421 305.269 123.817 305.39 124.245 305.479C124.673 305.567 125.097 305.612 125.517 305.612C126.203 305.612 126.72 305.483 127.067 305.224C127.415 304.962 127.588 304.598 127.588 304.134C127.588 303.827 127.526 303.577 127.401 303.383C127.279 303.185 127.073 303.003 126.783 302.838C126.496 302.672 126.058 302.485 125.468 302.275C124.645 301.98 124.055 301.631 123.7 301.227C123.348 300.823 123.173 300.296 123.173 299.646C123.173 298.963 123.429 298.42 123.942 298.017C124.455 297.613 125.133 297.411 125.977 297.411C126.857 297.411 127.667 297.572 128.406 297.895L128.085 298.792C127.354 298.485 126.643 298.332 125.953 298.332C125.408 298.332 124.982 298.449 124.675 298.683C124.368 298.917 124.215 299.242 124.215 299.658C124.215 299.965 124.271 300.217 124.384 300.415C124.497 300.609 124.687 300.789 124.954 300.954C125.224 301.116 125.636 301.295 126.189 301.493C127.118 301.824 127.756 302.18 128.103 302.559C128.454 302.939 128.63 303.431 128.63 304.037ZM133.094 306.514C132.113 306.514 131.338 306.216 130.768 305.618C130.203 305.02 129.92 304.191 129.92 303.129C129.92 302.059 130.183 301.209 130.708 300.579C131.237 299.949 131.945 299.634 132.834 299.634C133.665 299.634 134.324 299.908 134.808 300.458C135.293 301.003 135.535 301.723 135.535 302.62V303.256H130.962C130.982 304.035 131.178 304.627 131.55 305.03C131.925 305.434 132.452 305.636 133.13 305.636C133.845 305.636 134.552 305.487 135.25 305.188V306.084C134.895 306.238 134.558 306.347 134.239 306.411C133.924 306.48 133.542 306.514 133.094 306.514ZM132.821 300.476C132.288 300.476 131.862 300.649 131.543 300.997C131.228 301.344 131.043 301.824 130.986 302.438H134.457C134.457 301.804 134.315 301.32 134.033 300.984C133.75 300.645 133.346 300.476 132.821 300.476ZM142.688 299.755V300.391L141.459 300.536C141.572 300.678 141.673 300.863 141.761 301.093C141.85 301.32 141.895 301.576 141.895 301.863C141.895 302.513 141.673 303.032 141.228 303.419C140.784 303.807 140.175 304.001 139.399 304.001C139.201 304.001 139.016 303.985 138.842 303.952C138.414 304.178 138.2 304.463 138.2 304.806C138.2 304.988 138.275 305.123 138.424 305.212C138.573 305.297 138.83 305.339 139.193 305.339H140.368C141.087 305.339 141.638 305.491 142.022 305.794C142.409 306.096 142.603 306.537 142.603 307.114C142.603 307.849 142.309 308.408 141.719 308.792C141.129 309.179 140.269 309.373 139.139 309.373C138.271 309.373 137.6 309.212 137.128 308.889C136.659 308.566 136.425 308.109 136.425 307.52C136.425 307.116 136.555 306.767 136.813 306.472C137.071 306.177 137.435 305.977 137.903 305.872C137.734 305.796 137.59 305.677 137.473 305.515C137.36 305.353 137.304 305.166 137.304 304.952C137.304 304.709 137.368 304.497 137.497 304.316C137.627 304.134 137.83 303.958 138.109 303.789C137.766 303.647 137.485 303.407 137.267 303.068C137.053 302.729 136.946 302.341 136.946 301.905C136.946 301.178 137.164 300.619 137.6 300.227C138.036 299.832 138.654 299.634 139.454 299.634C139.801 299.634 140.114 299.674 140.393 299.755H142.688ZM137.394 307.508C137.394 307.867 137.546 308.14 137.849 308.325C138.152 308.511 138.586 308.604 139.151 308.604C139.995 308.604 140.619 308.477 141.022 308.222C141.43 307.972 141.634 307.631 141.634 307.199C141.634 306.839 141.523 306.589 141.301 306.448C141.079 306.31 140.661 306.242 140.047 306.242H138.842C138.386 306.242 138.03 306.351 137.776 306.569C137.522 306.787 137.394 307.1 137.394 307.508ZM137.94 301.881C137.94 302.345 138.071 302.697 138.333 302.935C138.596 303.173 138.961 303.292 139.43 303.292C140.411 303.292 140.901 302.816 140.901 301.863C140.901 300.865 140.405 300.367 139.411 300.367C138.939 300.367 138.575 300.494 138.321 300.748C138.067 301.003 137.94 301.38 137.94 301.881ZM144.996 299.755V304.061C144.996 304.602 145.119 305.006 145.365 305.273C145.612 305.539 145.997 305.672 146.522 305.672C147.217 305.672 147.723 305.483 148.042 305.103C148.365 304.724 148.527 304.104 148.527 303.244V299.755H149.532V306.393H148.703L148.557 305.503H148.503C148.297 305.83 148.01 306.08 147.643 306.254C147.279 306.428 146.863 306.514 146.395 306.514C145.587 306.514 144.982 306.323 144.578 305.939C144.178 305.555 143.978 304.942 143.978 304.098V299.755H144.996ZM156.213 306.393V302.099C156.213 301.558 156.09 301.154 155.844 300.888C155.597 300.621 155.212 300.488 154.687 300.488C153.992 300.488 153.483 300.676 153.16 301.051C152.837 301.427 152.676 302.046 152.676 302.911V306.393H151.67V299.755H152.488L152.652 300.663H152.7C152.906 300.336 153.195 300.084 153.566 299.906C153.938 299.725 154.352 299.634 154.808 299.634C155.607 299.634 156.209 299.828 156.613 300.215C157.017 300.599 157.219 301.215 157.219 302.063V306.393H156.213ZM163.808 305.503H163.754C163.29 306.177 162.595 306.514 161.67 306.514C160.802 306.514 160.126 306.218 159.641 305.624C159.161 305.03 158.921 304.187 158.921 303.092C158.921 301.998 159.163 301.148 159.647 300.542C160.132 299.937 160.806 299.634 161.67 299.634C162.571 299.634 163.261 299.961 163.742 300.615H163.821L163.778 300.136L163.754 299.67V296.969H164.759V306.393H163.942L163.808 305.503ZM161.798 305.672C162.484 305.672 162.981 305.487 163.288 305.115C163.598 304.74 163.754 304.136 163.754 303.304V303.092C163.754 302.151 163.596 301.481 163.282 301.081C162.971 300.678 162.472 300.476 161.785 300.476C161.196 300.476 160.744 300.706 160.429 301.166C160.118 301.622 159.962 302.269 159.962 303.104C159.962 303.952 160.118 304.592 160.429 305.024C160.74 305.456 161.196 305.672 161.798 305.672ZM172.627 303.068C172.627 304.15 172.355 304.996 171.81 305.606C171.264 306.212 170.511 306.514 169.55 306.514C168.957 306.514 168.43 306.375 167.97 306.096C167.509 305.818 167.154 305.418 166.904 304.897C166.653 304.376 166.528 303.767 166.528 303.068C166.528 301.986 166.799 301.144 167.34 300.542C167.881 299.937 168.632 299.634 169.593 299.634C170.522 299.634 171.258 299.943 171.804 300.56C172.353 301.178 172.627 302.014 172.627 303.068ZM167.57 303.068C167.57 303.916 167.739 304.562 168.079 305.006C168.418 305.45 168.916 305.672 169.575 305.672C170.233 305.672 170.731 305.452 171.071 305.012C171.414 304.568 171.585 303.92 171.585 303.068C171.585 302.224 171.414 301.584 171.071 301.148C170.731 300.708 170.229 300.488 169.562 300.488C168.904 300.488 168.408 300.704 168.073 301.136C167.737 301.568 167.57 302.212 167.57 303.068ZM180.707 306.514C180.275 306.514 179.879 306.436 179.52 306.278C179.165 306.117 178.866 305.87 178.624 305.539H178.551C178.599 305.927 178.624 306.294 178.624 306.642V309.373H177.618V299.755H178.436L178.575 300.663H178.624C178.882 300.3 179.183 300.038 179.526 299.876C179.869 299.715 180.263 299.634 180.707 299.634C181.587 299.634 182.266 299.935 182.742 300.536C183.223 301.138 183.463 301.982 183.463 303.068C183.463 304.158 183.219 305.006 182.73 305.612C182.246 306.214 181.571 306.514 180.707 306.514ZM180.562 300.488C179.883 300.488 179.393 300.676 179.09 301.051C178.787 301.427 178.632 302.024 178.624 302.844V303.068C178.624 304.001 178.779 304.669 179.09 305.073C179.401 305.473 179.9 305.672 180.586 305.672C181.159 305.672 181.608 305.44 181.931 304.976C182.258 304.512 182.421 303.872 182.421 303.056C182.421 302.228 182.258 301.594 181.931 301.154C181.608 300.71 181.151 300.488 180.562 300.488ZM189.308 306.393L189.108 305.448H189.06C188.728 305.864 188.397 306.147 188.066 306.296C187.739 306.442 187.329 306.514 186.837 306.514C186.179 306.514 185.662 306.345 185.286 306.006C184.915 305.666 184.729 305.184 184.729 304.558C184.729 303.217 185.801 302.515 187.945 302.45L189.072 302.414V302.002C189.072 301.481 188.959 301.098 188.733 300.851C188.51 300.601 188.153 300.476 187.66 300.476C187.107 300.476 186.481 300.645 185.783 300.984L185.474 300.215C185.801 300.038 186.158 299.898 186.546 299.797C186.938 299.696 187.329 299.646 187.721 299.646C188.512 299.646 189.098 299.822 189.478 300.173C189.861 300.524 190.053 301.087 190.053 301.863V306.393H189.308ZM187.037 305.685C187.662 305.685 188.153 305.513 188.508 305.17C188.868 304.827 189.047 304.346 189.047 303.728V303.129L188.042 303.171C187.243 303.199 186.665 303.324 186.31 303.547C185.958 303.765 185.783 304.106 185.783 304.57C185.783 304.934 185.892 305.21 186.11 305.4C186.332 305.59 186.641 305.685 187.037 305.685ZM196.413 304.582C196.413 305.2 196.182 305.677 195.722 306.012C195.262 306.347 194.616 306.514 193.784 306.514C192.904 306.514 192.217 306.375 191.725 306.096V305.164C192.044 305.325 192.385 305.452 192.748 305.545C193.116 305.638 193.469 305.685 193.808 305.685C194.333 305.685 194.737 305.602 195.02 305.436C195.302 305.267 195.444 305.01 195.444 304.667C195.444 304.409 195.33 304.189 195.104 304.007C194.882 303.821 194.446 303.603 193.796 303.353C193.178 303.123 192.738 302.923 192.476 302.753C192.217 302.579 192.023 302.384 191.894 302.166C191.769 301.947 191.706 301.687 191.706 301.384C191.706 300.843 191.927 300.417 192.367 300.106C192.807 299.791 193.41 299.634 194.178 299.634C194.892 299.634 195.591 299.779 196.273 300.07L195.916 300.888C195.25 300.613 194.646 300.476 194.105 300.476C193.629 300.476 193.269 300.55 193.027 300.7C192.785 300.849 192.663 301.055 192.663 301.318C192.663 301.495 192.708 301.647 192.797 301.772C192.89 301.897 193.037 302.016 193.239 302.129C193.441 302.242 193.828 302.406 194.402 302.62C195.189 302.907 195.72 303.195 195.995 303.486C196.273 303.777 196.413 304.142 196.413 304.582ZM203.784 303.068C203.784 304.15 203.511 304.996 202.966 305.606C202.421 306.212 201.668 306.514 200.707 306.514C200.113 306.514 199.586 306.375 199.126 306.096C198.666 305.818 198.31 305.418 198.06 304.897C197.81 304.376 197.685 303.767 197.685 303.068C197.685 301.986 197.955 301.144 198.496 300.542C199.037 299.937 199.788 299.634 200.749 299.634C201.678 299.634 202.415 299.943 202.96 300.56C203.509 301.178 203.784 302.014 203.784 303.068ZM198.726 303.068C198.726 303.916 198.896 304.562 199.235 305.006C199.574 305.45 200.073 305.672 200.731 305.672C201.389 305.672 201.888 305.452 202.227 305.012C202.57 304.568 202.742 303.92 202.742 303.068C202.742 302.224 202.57 301.584 202.227 301.148C201.888 300.708 201.385 300.488 200.719 300.488C200.061 300.488 199.564 300.704 199.229 301.136C198.894 301.568 198.726 302.212 198.726 303.068ZM213.293 305.503H213.239C212.774 306.177 212.08 306.514 211.155 306.514C210.287 306.514 209.611 306.218 209.126 305.624C208.646 305.03 208.405 304.187 208.405 303.092C208.405 301.998 208.648 301.148 209.132 300.542C209.617 299.937 210.291 299.634 211.155 299.634C212.056 299.634 212.746 299.961 213.227 300.615H213.305L213.263 300.136L213.239 299.67V296.969H214.244V306.393H213.426L213.293 305.503ZM211.282 305.672C211.969 305.672 212.465 305.487 212.772 305.115C213.083 304.74 213.239 304.136 213.239 303.304V303.092C213.239 302.151 213.081 301.481 212.766 301.081C212.455 300.678 211.957 300.476 211.27 300.476C210.681 300.476 210.228 300.706 209.913 301.166C209.603 301.622 209.447 302.269 209.447 303.104C209.447 303.952 209.603 304.592 209.913 305.024C210.224 305.456 210.681 305.672 211.282 305.672ZM219.187 306.514C218.205 306.514 217.43 306.216 216.861 305.618C216.295 305.02 216.013 304.191 216.013 303.129C216.013 302.059 216.275 301.209 216.8 300.579C217.329 299.949 218.038 299.634 218.926 299.634C219.758 299.634 220.416 299.908 220.901 300.458C221.385 301.003 221.627 301.723 221.627 302.62V303.256H217.055C217.075 304.035 217.271 304.627 217.642 305.03C218.018 305.434 218.544 305.636 219.223 305.636C219.938 305.636 220.644 305.487 221.343 305.188V306.084C220.987 306.238 220.65 306.347 220.331 306.411C220.016 306.48 219.635 306.514 219.187 306.514ZM218.914 300.476C218.381 300.476 217.955 300.649 217.636 300.997C217.321 301.344 217.135 301.824 217.079 302.438H220.549C220.549 301.804 220.408 301.32 220.125 300.984C219.843 300.645 219.439 300.476 218.914 300.476ZM227.515 299.755V304.061C227.515 304.602 227.638 305.006 227.884 305.273C228.131 305.539 228.516 305.672 229.041 305.672C229.736 305.672 230.242 305.483 230.561 305.103C230.884 304.724 231.046 304.104 231.046 303.244V299.755H232.051V306.393H231.222L231.076 305.503H231.022C230.816 305.83 230.529 306.08 230.162 306.254C229.798 306.428 229.382 306.514 228.914 306.514C228.106 306.514 227.501 306.323 227.097 305.939C226.697 305.555 226.497 304.942 226.497 304.098V299.755H227.515ZM238.732 306.393V302.099C238.732 301.558 238.609 301.154 238.363 300.888C238.116 300.621 237.731 300.488 237.206 300.488C236.511 300.488 236.002 300.676 235.679 301.051C235.356 301.427 235.195 302.046 235.195 302.911V306.393H234.189V299.755H235.007L235.171 300.663H235.219C235.425 300.336 235.714 300.084 236.085 299.906C236.457 299.725 236.871 299.634 237.327 299.634C238.126 299.634 238.728 299.828 239.132 300.215C239.536 300.599 239.738 301.215 239.738 302.063V306.393H238.732ZM247.175 305.685C247.353 305.685 247.525 305.672 247.69 305.648C247.856 305.62 247.987 305.592 248.084 305.563V306.333C247.975 306.385 247.813 306.428 247.599 306.46C247.389 306.496 247.2 306.514 247.03 306.514C245.746 306.514 245.104 305.838 245.104 304.485V300.536H244.153V300.052L245.104 299.634L245.528 298.216H246.109V299.755H248.035V300.536H246.109V304.443C246.109 304.843 246.204 305.15 246.394 305.364C246.584 305.578 246.844 305.685 247.175 305.685ZM252.445 299.634C252.74 299.634 253.004 299.658 253.238 299.706L253.099 300.639C252.824 300.579 252.582 300.548 252.372 300.548C251.835 300.548 251.375 300.766 250.991 301.203C250.612 301.639 250.422 302.182 250.422 302.832V306.393H249.416V299.755H250.246L250.361 300.984H250.41C250.656 300.552 250.953 300.219 251.3 299.985C251.647 299.751 252.029 299.634 252.445 299.634ZM258.562 306.393L258.362 305.448H258.314C257.983 305.864 257.652 306.147 257.321 306.296C256.994 306.442 256.584 306.514 256.091 306.514C255.433 306.514 254.916 306.345 254.541 306.006C254.169 305.666 253.983 305.184 253.983 304.558C253.983 303.217 255.055 302.515 257.2 302.45L258.326 302.414V302.002C258.326 301.481 258.213 301.098 257.987 300.851C257.765 300.601 257.407 300.476 256.915 300.476C256.362 300.476 255.736 300.645 255.037 300.984L254.728 300.215C255.055 300.038 255.413 299.898 255.8 299.797C256.192 299.696 256.584 299.646 256.975 299.646C257.767 299.646 258.352 299.822 258.732 300.173C259.116 300.524 259.307 301.087 259.307 301.863V306.393H258.562ZM256.291 305.685C256.917 305.685 257.407 305.513 257.763 305.17C258.122 304.827 258.302 304.346 258.302 303.728V303.129L257.296 303.171C256.497 303.199 255.92 303.324 255.564 303.547C255.213 303.765 255.037 304.106 255.037 304.57C255.037 304.934 255.146 305.21 255.364 305.4C255.586 305.59 255.895 305.685 256.291 305.685ZM256.055 298.725C256.249 298.475 256.457 298.172 256.679 297.817C256.905 297.461 257.082 297.152 257.212 296.89H258.435V297.017C258.257 297.28 257.993 297.603 257.642 297.986C257.29 298.37 256.986 298.667 256.727 298.877H256.055V298.725ZM269.846 306.393V302.075C269.846 301.546 269.733 301.15 269.507 300.888C269.281 300.621 268.93 300.488 268.453 300.488C267.827 300.488 267.365 300.667 267.066 301.027C266.767 301.386 266.618 301.939 266.618 302.686V306.393H265.613V302.075C265.613 301.546 265.499 301.15 265.273 300.888C265.047 300.621 264.694 300.488 264.213 300.488C263.583 300.488 263.121 300.678 262.826 301.057C262.536 301.433 262.39 302.05 262.39 302.911V306.393H261.385V299.755H262.203L262.366 300.663H262.415C262.604 300.34 262.871 300.088 263.214 299.906C263.561 299.725 263.949 299.634 264.377 299.634C265.415 299.634 266.093 300.009 266.412 300.76H266.46C266.658 300.413 266.945 300.139 267.321 299.937C267.696 299.735 268.124 299.634 268.605 299.634C269.356 299.634 269.917 299.828 270.288 300.215C270.664 300.599 270.852 301.215 270.852 302.063V306.393H269.846ZM273.935 306.393H272.929V299.755H273.935V306.393ZM272.844 297.956C272.844 297.726 272.901 297.558 273.014 297.453C273.127 297.344 273.268 297.29 273.438 297.29C273.6 297.29 273.739 297.344 273.856 297.453C273.973 297.562 274.032 297.73 274.032 297.956C274.032 298.182 273.973 298.352 273.856 298.465C273.739 298.574 273.6 298.628 273.438 298.628C273.268 298.628 273.127 298.574 273.014 298.465C272.901 298.352 272.844 298.182 272.844 297.956ZM278.211 305.685C278.389 305.685 278.56 305.672 278.726 305.648C278.891 305.62 279.022 305.592 279.119 305.563V306.333C279.01 306.385 278.849 306.428 278.635 306.46C278.425 306.496 278.235 306.514 278.065 306.514C276.781 306.514 276.139 305.838 276.139 304.485V300.536H275.188V300.052L276.139 299.634L276.563 298.216H277.145V299.755H279.071V300.536H277.145V304.443C277.145 304.843 277.24 305.15 277.43 305.364C277.619 305.578 277.88 305.685 278.211 305.685ZM283.256 306.514C282.275 306.514 281.5 306.216 280.93 305.618C280.365 305.02 280.082 304.191 280.082 303.129C280.082 302.059 280.345 301.209 280.87 300.579C281.399 299.949 282.107 299.634 282.996 299.634C283.828 299.634 284.486 299.908 284.97 300.458C285.455 301.003 285.697 301.723 285.697 302.62V303.256H281.124C281.144 304.035 281.34 304.627 281.712 305.03C282.087 305.434 282.614 305.636 283.293 305.636C284.007 305.636 284.714 305.487 285.412 305.188V306.084C285.057 306.238 284.72 306.347 284.401 306.411C284.086 306.48 283.704 306.514 283.256 306.514ZM282.984 300.476C282.451 300.476 282.025 300.649 281.706 300.997C281.391 301.344 281.205 301.824 281.148 302.438H284.619C284.619 301.804 284.478 301.32 284.195 300.984C283.912 300.645 283.509 300.476 282.984 300.476Z" fill="#38485C"/>
<path d="M600.764 297.793C600.62 297.938 600.539 298.134 600.539 298.339C600.539 298.544 600.62 298.741 600.764 298.886L603.772 301.893L600.764 304.902C600.637 305.05 600.571 305.241 600.578 305.436C600.586 305.631 600.667 305.816 600.805 305.955C600.943 306.093 601.128 306.174 601.323 306.181C601.518 306.189 601.709 306.122 601.857 305.995L605.416 302.436C605.56 302.291 605.641 302.094 605.641 301.889C605.641 301.684 605.56 301.488 605.416 301.343L601.857 297.784C601.711 297.641 601.514 297.561 601.309 297.563C601.104 297.565 600.908 297.647 600.764 297.793Z" fill="#38485C"/>
<path d="M612.393 329.225H97.6067V330.775H612.393V329.225Z" fill="#E6EBF0" mask="url(#path-16-inside-3_789_1926)"/>
<path d="M109.469 361.751L110.554 360.665L107.685 357.797V354.23H106.135V358.417L109.469 361.751ZM106.91 365.86C105.838 365.86 104.83 365.656 103.887 365.249C102.943 364.842 102.123 364.29 101.425 363.592C100.727 362.894 100.175 362.074 99.7682 361.13C99.3609 360.187 99.1573 359.179 99.1573 358.107C99.1573 357.034 99.3609 356.026 99.7682 355.083C100.175 354.14 100.727 353.319 101.425 352.622C102.123 351.924 102.943 351.371 103.887 350.964C104.83 350.557 105.838 350.354 106.91 350.354C107.983 350.354 108.99 350.557 109.934 350.964C110.877 351.371 111.697 351.924 112.395 352.622C113.093 353.319 113.645 354.14 114.052 355.083C114.459 356.026 114.663 357.034 114.663 358.107C114.663 359.179 114.459 360.187 114.052 361.13C113.645 362.074 113.093 362.894 112.395 363.592C111.697 364.29 110.877 364.842 109.934 365.249C108.99 365.656 107.983 365.86 106.91 365.86Z" fill="#9EAAB8"/>
<path d="M126.359 362.607H125.329V354.666H122.525V353.752H129.163V354.666H126.359V362.607ZM133.155 362.728C132.173 362.728 131.398 362.429 130.829 361.831C130.263 361.234 129.981 360.404 129.981 359.342C129.981 358.272 130.243 357.422 130.768 356.792C131.297 356.162 132.006 355.847 132.894 355.847C133.726 355.847 134.384 356.122 134.869 356.671C135.353 357.216 135.596 357.937 135.596 358.833V359.469H131.023C131.043 360.249 131.239 360.84 131.61 361.244C131.986 361.648 132.513 361.85 133.191 361.85C133.906 361.85 134.612 361.7 135.311 361.401V362.298C134.955 362.451 134.618 362.56 134.299 362.625C133.984 362.694 133.603 362.728 133.155 362.728ZM132.882 356.689C132.349 356.689 131.923 356.863 131.604 357.21C131.289 357.557 131.103 358.038 131.047 358.652H134.517C134.517 358.018 134.376 357.533 134.093 357.198C133.811 356.859 133.407 356.689 132.882 356.689ZM140.344 355.847C140.639 355.847 140.903 355.871 141.138 355.92L140.998 356.853C140.724 356.792 140.481 356.762 140.271 356.762C139.734 356.762 139.274 356.98 138.89 357.416C138.511 357.852 138.321 358.395 138.321 359.045V362.607H137.316V355.968H138.145L138.261 357.198H138.309C138.555 356.766 138.852 356.433 139.199 356.199C139.547 355.964 139.928 355.847 140.344 355.847ZM145.032 362.728C144.071 362.728 143.326 362.433 142.797 361.844C142.272 361.25 142.01 360.412 142.01 359.33C142.01 358.219 142.276 357.361 142.809 356.756C143.346 356.15 144.109 355.847 145.099 355.847C145.418 355.847 145.737 355.882 146.056 355.95C146.375 356.019 146.625 356.1 146.807 356.192L146.498 357.046C146.276 356.958 146.034 356.885 145.771 356.828C145.509 356.768 145.276 356.738 145.075 356.738C143.726 356.738 143.052 357.598 143.052 359.318C143.052 360.133 143.215 360.759 143.542 361.195C143.873 361.632 144.362 361.85 145.008 361.85C145.561 361.85 146.128 361.73 146.71 361.492V362.383C146.266 362.613 145.706 362.728 145.032 362.728ZM151.095 362.728C150.114 362.728 149.339 362.429 148.769 361.831C148.204 361.234 147.921 360.404 147.921 359.342C147.921 358.272 148.184 357.422 148.709 356.792C149.238 356.162 149.946 355.847 150.835 355.847C151.666 355.847 152.325 356.122 152.809 356.671C153.294 357.216 153.536 357.937 153.536 358.833V359.469H148.963C148.983 360.249 149.179 360.84 149.551 361.244C149.926 361.648 150.453 361.85 151.131 361.85C151.846 361.85 152.553 361.7 153.251 361.401V362.298C152.896 362.451 152.559 362.56 152.24 362.625C151.925 362.694 151.543 362.728 151.095 362.728ZM150.823 356.689C150.29 356.689 149.863 356.863 149.545 357.21C149.23 357.557 149.044 358.038 148.987 358.652H152.458C152.458 358.018 152.317 357.533 152.034 357.198C151.751 356.859 151.347 356.689 150.823 356.689ZM158.285 355.847C158.579 355.847 158.844 355.871 159.078 355.92L158.939 356.853C158.664 356.792 158.422 356.762 158.212 356.762C157.675 356.762 157.215 356.98 156.831 357.416C156.451 357.852 156.262 358.395 156.262 359.045V362.607H155.256V355.968H156.086L156.201 357.198H156.249C156.496 356.766 156.793 356.433 157.14 356.199C157.487 355.964 157.869 355.847 158.285 355.847ZM166.631 362.728C166.199 362.728 165.803 362.649 165.444 362.492C165.088 362.33 164.79 362.084 164.547 361.753H164.475C164.523 362.14 164.547 362.508 164.547 362.855V365.587H163.542V355.968H164.36L164.499 356.877H164.547C164.806 356.513 165.107 356.251 165.45 356.089C165.793 355.928 166.187 355.847 166.631 355.847C167.511 355.847 168.19 356.148 168.666 356.75C169.147 357.351 169.387 358.195 169.387 359.281C169.387 360.372 169.143 361.22 168.654 361.825C168.169 362.427 167.495 362.728 166.631 362.728ZM166.486 356.701C165.807 356.701 165.317 356.889 165.014 357.265C164.711 357.64 164.555 358.238 164.547 359.057V359.281C164.547 360.214 164.703 360.882 165.014 361.286C165.325 361.686 165.823 361.886 166.51 361.886C167.083 361.886 167.531 361.654 167.854 361.189C168.182 360.725 168.345 360.085 168.345 359.269C168.345 358.442 168.182 357.808 167.854 357.367C167.531 356.923 167.075 356.701 166.486 356.701ZM175.232 362.607L175.032 361.662H174.983C174.652 362.078 174.321 362.36 173.99 362.51C173.663 362.655 173.253 362.728 172.761 362.728C172.102 362.728 171.585 362.558 171.21 362.219C170.838 361.88 170.653 361.397 170.653 360.771C170.653 359.431 171.725 358.728 173.869 358.664L174.996 358.627V358.215C174.996 357.695 174.882 357.311 174.656 357.065C174.434 356.814 174.077 356.689 173.584 356.689C173.031 356.689 172.405 356.859 171.707 357.198L171.398 356.429C171.725 356.251 172.082 356.112 172.47 356.011C172.861 355.91 173.253 355.859 173.645 355.859C174.436 355.859 175.022 356.035 175.401 356.386C175.785 356.738 175.977 357.301 175.977 358.076V362.607H175.232ZM172.96 361.898C173.586 361.898 174.077 361.726 174.432 361.383C174.792 361.04 174.971 360.559 174.971 359.942V359.342L173.966 359.384C173.166 359.413 172.589 359.538 172.234 359.76C171.882 359.978 171.707 360.319 171.707 360.784C171.707 361.147 171.816 361.424 172.034 361.613C172.256 361.803 172.565 361.898 172.96 361.898ZM182.336 360.796C182.336 361.413 182.106 361.89 181.646 362.225C181.186 362.56 180.54 362.728 179.708 362.728C178.828 362.728 178.141 362.589 177.648 362.31V361.377C177.967 361.539 178.309 361.666 178.672 361.759C179.039 361.852 179.393 361.898 179.732 361.898C180.257 361.898 180.661 361.815 180.943 361.65C181.226 361.48 181.367 361.224 181.367 360.88C181.367 360.622 181.254 360.402 181.028 360.22C180.806 360.035 180.37 359.816 179.72 359.566C179.102 359.336 178.662 359.136 178.399 358.967C178.141 358.793 177.947 358.597 177.818 358.379C177.693 358.161 177.63 357.9 177.63 357.598C177.63 357.057 177.85 356.631 178.29 356.32C178.731 356.005 179.334 355.847 180.101 355.847C180.816 355.847 181.515 355.993 182.197 356.283L181.84 357.101C181.174 356.826 180.57 356.689 180.029 356.689C179.552 356.689 179.193 356.764 178.951 356.913C178.708 357.063 178.587 357.269 178.587 357.531C178.587 357.709 178.632 357.86 178.721 357.985C178.813 358.11 178.961 358.23 179.163 358.343C179.365 358.456 179.752 358.619 180.326 358.833C181.113 359.12 181.644 359.409 181.919 359.699C182.197 359.99 182.336 360.356 182.336 360.796ZM189.708 359.281C189.708 360.364 189.435 361.21 188.89 361.819C188.345 362.425 187.592 362.728 186.631 362.728C186.037 362.728 185.51 362.589 185.05 362.31C184.59 362.031 184.234 361.632 183.984 361.111C183.734 360.59 183.608 359.98 183.608 359.281C183.608 358.199 183.879 357.357 184.42 356.756C184.961 356.15 185.712 355.847 186.673 355.847C187.602 355.847 188.339 356.156 188.884 356.774C189.433 357.392 189.708 358.228 189.708 359.281ZM184.65 359.281C184.65 360.129 184.82 360.775 185.159 361.22C185.498 361.664 185.997 361.886 186.655 361.886C187.313 361.886 187.812 361.666 188.151 361.226C188.494 360.782 188.666 360.133 188.666 359.281C188.666 358.438 188.494 357.798 188.151 357.361C187.812 356.921 187.309 356.701 186.643 356.701C185.985 356.701 185.488 356.917 185.153 357.349C184.818 357.781 184.65 358.425 184.65 359.281ZM199.217 361.716H199.162C198.698 362.391 198.004 362.728 197.079 362.728C196.211 362.728 195.534 362.431 195.05 361.837C194.569 361.244 194.329 360.4 194.329 359.306C194.329 358.211 194.571 357.361 195.056 356.756C195.54 356.15 196.215 355.847 197.079 355.847C197.979 355.847 198.67 356.174 199.15 356.828H199.229L199.187 356.35L199.162 355.884V353.182H200.168V362.607H199.35L199.217 361.716ZM197.206 361.886C197.893 361.886 198.389 361.7 198.696 361.329C199.007 360.953 199.162 360.349 199.162 359.518V359.306C199.162 358.365 199.005 357.695 198.69 357.295C198.379 356.891 197.88 356.689 197.194 356.689C196.604 356.689 196.152 356.919 195.837 357.38C195.526 357.836 195.371 358.482 195.371 359.318C195.371 360.166 195.526 360.806 195.837 361.238C196.148 361.67 196.604 361.886 197.206 361.886ZM205.11 362.728C204.129 362.728 203.354 362.429 202.784 361.831C202.219 361.234 201.937 360.404 201.937 359.342C201.937 358.272 202.199 357.422 202.724 356.792C203.253 356.162 203.962 355.847 204.85 355.847C205.682 355.847 206.34 356.122 206.824 356.671C207.309 357.216 207.551 357.937 207.551 358.833V359.469H202.978C202.999 360.249 203.194 360.84 203.566 361.244C203.941 361.648 204.468 361.85 205.147 361.85C205.861 361.85 206.568 361.7 207.267 361.401V362.298C206.911 362.451 206.574 362.56 206.255 362.625C205.94 362.694 205.559 362.728 205.11 362.728ZM204.838 356.689C204.305 356.689 203.879 356.863 203.56 357.21C203.245 357.557 203.059 358.038 203.003 358.652H206.473C206.473 358.018 206.332 357.533 206.049 357.198C205.767 356.859 205.363 356.689 204.838 356.689ZM213.439 355.968V360.275C213.439 360.816 213.562 361.22 213.808 361.486C214.054 361.753 214.44 361.886 214.965 361.886C215.659 361.886 216.166 361.696 216.485 361.317C216.808 360.937 216.97 360.317 216.97 359.457V355.968H217.975V362.607H217.145L217 361.716H216.945C216.74 362.043 216.453 362.294 216.085 362.467C215.722 362.641 215.306 362.728 214.838 362.728C214.03 362.728 213.424 362.536 213.021 362.152C212.621 361.769 212.421 361.155 212.421 360.311V355.968H213.439ZM224.656 362.607V358.312C224.656 357.771 224.533 357.367 224.286 357.101C224.04 356.834 223.654 356.701 223.13 356.701C222.435 356.701 221.926 356.889 221.603 357.265C221.28 357.64 221.119 358.26 221.119 359.124V362.607H220.113V355.968H220.931L221.094 356.877H221.143C221.349 356.55 221.638 356.297 222.009 356.12C222.381 355.938 222.794 355.847 223.251 355.847C224.05 355.847 224.652 356.041 225.056 356.429C225.459 356.812 225.661 357.428 225.661 358.276V362.607H224.656ZM233.099 361.898C233.277 361.898 233.448 361.886 233.614 361.862C233.78 361.833 233.911 361.805 234.008 361.777V362.546C233.899 362.599 233.737 362.641 233.523 362.673C233.313 362.71 233.123 362.728 232.954 362.728C231.67 362.728 231.028 362.051 231.028 360.699V356.75H230.077V356.265L231.028 355.847L231.452 354.43H232.033V355.968H233.959V356.75H232.033V360.656C232.033 361.056 232.128 361.363 232.318 361.577C232.508 361.791 232.768 361.898 233.099 361.898ZM238.369 355.847C238.663 355.847 238.928 355.871 239.162 355.92L239.023 356.853C238.748 356.792 238.506 356.762 238.296 356.762C237.759 356.762 237.299 356.98 236.915 357.416C236.535 357.852 236.346 358.395 236.346 359.045V362.607H235.34V355.968H236.17L236.285 357.198H236.334C236.58 356.766 236.877 356.433 237.224 356.199C237.571 355.964 237.953 355.847 238.369 355.847ZM244.486 362.607L244.286 361.662H244.238C243.907 362.078 243.576 362.36 243.244 362.51C242.917 362.655 242.508 362.728 242.015 362.728C241.357 362.728 240.84 362.558 240.464 362.219C240.093 361.88 239.907 361.397 239.907 360.771C239.907 359.431 240.979 358.728 243.123 358.664L244.25 358.627V358.215C244.25 357.695 244.137 357.311 243.911 357.065C243.689 356.814 243.331 356.689 242.839 356.689C242.285 356.689 241.66 356.859 240.961 357.198L240.652 356.429C240.979 356.251 241.337 356.112 241.724 356.011C242.116 355.91 242.508 355.859 242.899 355.859C243.691 355.859 244.276 356.035 244.656 356.386C245.039 356.738 245.231 357.301 245.231 358.076V362.607H244.486ZM242.215 361.898C242.841 361.898 243.331 361.726 243.687 361.383C244.046 361.04 244.226 360.559 244.226 359.942V359.342L243.22 359.384C242.421 359.413 241.843 359.538 241.488 359.76C241.137 359.978 240.961 360.319 240.961 360.784C240.961 361.147 241.07 361.424 241.288 361.613C241.51 361.803 241.819 361.898 242.215 361.898ZM241.979 354.939C242.172 354.688 242.38 354.385 242.602 354.03C242.829 353.675 243.006 353.366 243.135 353.103H244.359V353.231C244.181 353.493 243.917 353.816 243.565 354.2C243.214 354.583 242.909 354.88 242.651 355.09H241.979V354.939ZM255.77 362.607V358.288C255.77 357.759 255.657 357.363 255.431 357.101C255.205 356.834 254.853 356.701 254.377 356.701C253.751 356.701 253.289 356.881 252.99 357.24C252.691 357.6 252.542 358.153 252.542 358.9V362.607H251.536V358.288C251.536 357.759 251.423 357.363 251.197 357.101C250.971 356.834 250.618 356.701 250.137 356.701C249.507 356.701 249.045 356.891 248.75 357.271C248.459 357.646 248.314 358.264 248.314 359.124V362.607H247.309V355.968H248.126L248.29 356.877H248.338C248.528 356.554 248.795 356.301 249.138 356.12C249.485 355.938 249.873 355.847 250.301 355.847C251.338 355.847 252.017 356.223 252.336 356.974H252.384C252.582 356.627 252.869 356.352 253.244 356.15C253.62 355.948 254.048 355.847 254.528 355.847C255.279 355.847 255.841 356.041 256.212 356.429C256.588 356.812 256.776 357.428 256.776 358.276V362.607H255.77ZM259.858 362.607H258.853V355.968H259.858V362.607ZM258.768 354.169C258.768 353.939 258.825 353.772 258.938 353.667C259.051 353.558 259.192 353.503 259.362 353.503C259.523 353.503 259.663 353.558 259.78 353.667C259.897 353.776 259.955 353.943 259.955 354.169C259.955 354.396 259.897 354.565 259.78 354.678C259.663 354.787 259.523 354.842 259.362 354.842C259.192 354.842 259.051 354.787 258.938 354.678C258.825 354.565 258.768 354.396 258.768 354.169ZM264.135 361.898C264.312 361.898 264.484 361.886 264.649 361.862C264.815 361.833 264.946 361.805 265.043 361.777V362.546C264.934 362.599 264.773 362.641 264.559 362.673C264.349 362.71 264.159 362.728 263.989 362.728C262.705 362.728 262.063 362.051 262.063 360.699V356.75H261.112V356.265L262.063 355.847L262.487 354.43H263.069V355.968H264.995V356.75H263.069V360.656C263.069 361.056 263.164 361.363 263.353 361.577C263.543 361.791 263.804 361.898 264.135 361.898ZM269.18 362.728C268.199 362.728 267.424 362.429 266.854 361.831C266.289 361.234 266.006 360.404 266.006 359.342C266.006 358.272 266.269 357.422 266.794 356.792C267.323 356.162 268.031 355.847 268.92 355.847C269.751 355.847 270.41 356.122 270.894 356.671C271.379 357.216 271.621 357.937 271.621 358.833V359.469H267.048C267.068 360.249 267.264 360.84 267.636 361.244C268.011 361.648 268.538 361.85 269.216 361.85C269.931 361.85 270.638 361.7 271.336 361.401V362.298C270.981 362.451 270.644 362.56 270.325 362.625C270.01 362.694 269.628 362.728 269.18 362.728ZM268.907 356.689C268.374 356.689 267.948 356.863 267.629 357.21C267.315 357.557 267.129 358.038 267.072 358.652H270.543C270.543 358.018 270.401 357.533 270.119 357.198C269.836 356.859 269.432 356.689 268.907 356.689Z" fill="#9EAAB8"/>
<path d="M600.764 354.006C600.62 354.152 600.539 354.348 600.539 354.553C600.539 354.758 600.62 354.954 600.764 355.099L603.772 358.107L600.764 361.116C600.637 361.264 600.571 361.455 600.578 361.65C600.586 361.845 600.667 362.03 600.805 362.168C600.943 362.306 601.128 362.387 601.323 362.395C601.518 362.402 601.709 362.336 601.857 362.209L605.416 358.649C605.56 358.504 605.641 358.308 605.641 358.103C605.641 357.898 605.56 357.702 605.416 357.556L601.857 353.998C601.711 353.854 601.514 353.775 601.309 353.777C601.104 353.778 600.908 353.861 600.764 354.006Z" fill="#9EAAB8"/>
<path d="M612.393 385.438H97.6067V386.989H612.393V385.438Z" fill="#E6EBF0" mask="url(#path-22-inside-4_789_1926)"/>
<rect x="79.3876" y="161.747" width="551.225" height="224.079" rx="5.81461" stroke="#E6EBF0" stroke-width="0.775281"/>
<line x1="80" y1="82.6344" x2="80" y2="188.281" stroke="#007BC7" stroke-width="2" stroke-dasharray="4 4"/>
</svg>
