<svg xmlns="http://www.w3.org/2000/svg" width="712" height="264" viewBox="0 0 712 264"><defs><style>.a{fill:#f3f6f9;}.b,.d{fill:#e6ebf0;}.c{fill:#38485c;}.d,.e{stroke:#38485c;}.e,.h{fill:none;}.e{stroke-linecap:round;}.f{fill:rgba(158,170,184,0.24);stroke:#9eaab8;stroke-dasharray:5 5;}.g{stroke:none;}</style></defs><g transform="translate(-513 -602)"><path class="a" d="M4,0H708c2.209,0,4,.936,4,2.091V261.909c0,1.155-1.791,2.091-4,2.091H4c-2.209,0-4-.936-4-2.091V2.091C0,.936,1.791,0,4,0Z" transform="translate(513 602)"/><path class="b" d="M0,0H638.985V184H0Z" transform="translate(550.007 642)"/><path class="c" d="M7.16-6.576A2.6,2.6,0,0,1,6.2-4.408a4.356,4.356,0,0,1-2.752.759H2.355V0H1.276V-9.28H3.682Q7.16-9.28,7.16-6.576Zm-4.805,2h.971A3.609,3.609,0,0,0,5.4-5.04a1.708,1.708,0,0,0,.641-1.485A1.6,1.6,0,0,0,5.44-7.9a3.15,3.15,0,0,0-1.879-.451H2.355ZM13.222,0l-.209-.99h-.051A2.927,2.927,0,0,1,11.924-.1a3.163,3.163,0,0,1-1.292.232A2.324,2.324,0,0,1,9.01-.406a1.945,1.945,0,0,1-.587-1.517q0-2.107,3.371-2.209l1.181-.038V-4.6a1.764,1.764,0,0,0-.352-1.209A1.449,1.449,0,0,0,11.5-6.2a4.591,4.591,0,0,0-1.968.533L9.2-6.475a4.952,4.952,0,0,1,1.127-.438,4.88,4.88,0,0,1,1.228-.159,2.65,2.65,0,0,1,1.844.552A2.305,2.305,0,0,1,14-4.748V0Zm-2.38-.743a2.139,2.139,0,0,0,1.546-.54,2,2,0,0,0,.562-1.511v-.628L11.9-3.377a3.833,3.833,0,0,0-1.812.39,1.177,1.177,0,0,0-.555,1.076,1.086,1.086,0,0,0,.346.87A1.436,1.436,0,0,0,10.842-.743ZM20.662-1.9a1.743,1.743,0,0,1-.724,1.5,3.4,3.4,0,0,1-2.031.527,4.417,4.417,0,0,1-2.158-.438v-.978a5.219,5.219,0,0,0,1.076.4,4.493,4.493,0,0,0,1.108.146,2.512,2.512,0,0,0,1.27-.263.871.871,0,0,0,.444-.8.872.872,0,0,0-.352-.7,5.542,5.542,0,0,0-1.374-.682,7.452,7.452,0,0,1-1.381-.632,1.886,1.886,0,0,1-.609-.613,1.6,1.6,0,0,1-.2-.819,1.561,1.561,0,0,1,.692-1.343,3.224,3.224,0,0,1,1.9-.492,5.553,5.553,0,0,1,2.2.457l-.375.857a5.041,5.041,0,0,0-1.9-.432,2.184,2.184,0,0,0-1.13.235.726.726,0,0,0-.381.647.789.789,0,0,0,.143.476,1.409,1.409,0,0,0,.46.375,10.284,10.284,0,0,0,1.219.514,4.553,4.553,0,0,1,1.673.908A1.6,1.6,0,0,1,20.662-1.9ZM28.38-3.485a3.838,3.838,0,0,1-.857,2.656,3.018,3.018,0,0,1-2.368.955A3.136,3.136,0,0,1,23.5-.311a2.891,2.891,0,0,1-1.117-1.257,4.38,4.38,0,0,1-.394-1.917,3.832,3.832,0,0,1,.851-2.65A3.008,3.008,0,0,1,25.2-7.084a2.943,2.943,0,0,1,2.32.971A3.821,3.821,0,0,1,28.38-3.485Zm-5.3,0a3.3,3.3,0,0,0,.533,2.031,1.851,1.851,0,0,0,1.568.7,1.863,1.863,0,0,0,1.571-.7,3.285,3.285,0,0,0,.536-2.034A3.232,3.232,0,0,0,26.752-5.5a1.885,1.885,0,0,0-1.584-.689,1.855,1.855,0,0,0-1.562.679A3.269,3.269,0,0,0,23.08-3.485ZM37.026,0H36V-6.614q0-.825.051-1.562-.133.133-.3.279T34.239-6.659l-.559-.724,2.457-1.9h.889ZM49.15-.933h-.057A2.476,2.476,0,0,1,46.909.127a2.583,2.583,0,0,1-2.123-.933,4.107,4.107,0,0,1-.759-2.653,4.177,4.177,0,0,1,.762-2.672,2.563,2.563,0,0,1,2.12-.952A2.53,2.53,0,0,1,49.08-6.056h.083l-.044-.5-.025-.489V-9.877h1.054V0H49.29Zm-2.107.178a1.918,1.918,0,0,0,1.565-.587,2.967,2.967,0,0,0,.486-1.895v-.222A3.491,3.491,0,0,0,48.6-5.57,1.868,1.868,0,0,0,47.03-6.2a1.613,1.613,0,0,0-1.419.72,3.582,3.582,0,0,0-.492,2.034,3.434,3.434,0,0,0,.489,2.012A1.655,1.655,0,0,0,47.042-.755ZM55.32.127a3.2,3.2,0,0,1-2.434-.939,3.637,3.637,0,0,1-.892-2.609,4.033,4.033,0,0,1,.828-2.672,2.752,2.752,0,0,1,2.225-.99,2.624,2.624,0,0,1,2.069.86,3.3,3.3,0,0,1,.762,2.269v.667H53.085a2.758,2.758,0,0,0,.619,1.86,2.141,2.141,0,0,0,1.654.635,5.6,5.6,0,0,0,2.222-.47v.939a5.576,5.576,0,0,1-1.057.346A5.939,5.939,0,0,1,55.32.127ZM55.034-6.2a1.721,1.721,0,0,0-1.336.546,2.516,2.516,0,0,0-.587,1.511h3.637A2.317,2.317,0,0,0,56.3-5.672,1.564,1.564,0,0,0,55.034-6.2ZM68.669,0h-6.1V-.908l2.444-2.457a18,18,0,0,0,1.473-1.612,4.115,4.115,0,0,0,.533-.939A2.691,2.691,0,0,0,67.2-6.9a1.56,1.56,0,0,0-.451-1.177,1.726,1.726,0,0,0-1.25-.435,3.144,3.144,0,0,0-1.095.19,4.365,4.365,0,0,0-1.152.692l-.559-.717a4.278,4.278,0,0,1,2.793-1.066,2.951,2.951,0,0,1,2.05.67,2.3,2.3,0,0,1,.743,1.8,3.475,3.475,0,0,1-.5,1.746,11.083,11.083,0,0,1-1.854,2.184L63.9-1.028v.051h4.773Z" transform="translate(758 754)"/><g class="d" transform="translate(732 744)"><circle class="g" cx="5" cy="5" r="5"/><circle class="h" cx="5" cy="5" r="4.5"/></g><circle class="c" cx="5" cy="5" r="5" transform="translate(716 744)"/><path class="c" d="M8.813-8.094A3.2,3.2,0,0,1,7.629-5.426a5.362,5.362,0,0,1-3.387.934H2.9V0H1.57V-11.422H4.531Q8.812-11.422,8.813-8.094ZM2.9-5.633h1.2A4.442,4.442,0,0,0,6.648-6.2a2.1,2.1,0,0,0,.789-1.828A1.971,1.971,0,0,0,6.7-9.719a3.877,3.877,0,0,0-2.312-.555H2.9ZM16.273,0l-.258-1.219h-.062a3.6,3.6,0,0,1-1.277,1.09,3.893,3.893,0,0,1-1.59.285,2.86,2.86,0,0,1-2-.656,2.394,2.394,0,0,1-.723-1.867q0-2.594,4.148-2.719l1.453-.047v-.531a2.171,2.171,0,0,0-.434-1.488,1.783,1.783,0,0,0-1.387-.48,5.65,5.65,0,0,0-2.422.656l-.4-.992a6.094,6.094,0,0,1,1.387-.539,6.006,6.006,0,0,1,1.512-.2,3.262,3.262,0,0,1,2.27.68,2.837,2.837,0,0,1,.738,2.18V0Zm-2.93-.914a2.632,2.632,0,0,0,1.9-.664,2.457,2.457,0,0,0,.691-1.859v-.773l-1.3.055a4.717,4.717,0,0,0-2.23.48,1.449,1.449,0,0,0-.684,1.324,1.336,1.336,0,0,0,.426,1.07A1.767,1.767,0,0,0,13.344-.914ZM25.43-2.336a2.145,2.145,0,0,1-.891,1.844,4.186,4.186,0,0,1-2.5.648,5.436,5.436,0,0,1-2.656-.539v-1.2a6.424,6.424,0,0,0,1.324.492,5.53,5.53,0,0,0,1.363.18,3.092,3.092,0,0,0,1.563-.324,1.072,1.072,0,0,0,.547-.988,1.073,1.073,0,0,0-.434-.855,6.82,6.82,0,0,0-1.691-.84,9.172,9.172,0,0,1-1.7-.777,2.321,2.321,0,0,1-.75-.754,1.966,1.966,0,0,1-.246-1.008,1.921,1.921,0,0,1,.852-1.652,3.968,3.968,0,0,1,2.336-.605,6.835,6.835,0,0,1,2.7.563L24.789-7.1a6.2,6.2,0,0,0-2.336-.531,2.687,2.687,0,0,0-1.391.289.894.894,0,0,0-.469.8.971.971,0,0,0,.176.586,1.735,1.735,0,0,0,.566.461,12.658,12.658,0,0,0,1.5.633A5.6,5.6,0,0,1,24.895-3.75,1.97,1.97,0,0,1,25.43-2.336Zm9.5-1.953a4.724,4.724,0,0,1-1.055,3.27A3.714,3.714,0,0,1,30.961.156a3.86,3.86,0,0,1-2.039-.539A3.558,3.558,0,0,1,27.547-1.93a5.391,5.391,0,0,1-.484-2.359,4.716,4.716,0,0,1,1.047-3.262,3.7,3.7,0,0,1,2.906-1.168,3.622,3.622,0,0,1,2.855,1.2A4.7,4.7,0,0,1,34.93-4.289Zm-6.523,0a4.064,4.064,0,0,0,.656,2.5,2.278,2.278,0,0,0,1.93.859,2.293,2.293,0,0,0,1.934-.855,4.043,4.043,0,0,0,.66-2.5,3.978,3.978,0,0,0-.66-2.48,2.32,2.32,0,0,0-1.949-.848,2.283,2.283,0,0,0-1.922.836A4.023,4.023,0,0,0,28.406-4.289ZM46.883-2.336a2.145,2.145,0,0,1-.891,1.844,4.186,4.186,0,0,1-2.5.648,5.436,5.436,0,0,1-2.656-.539v-1.2a6.424,6.424,0,0,0,1.324.492,5.53,5.53,0,0,0,1.363.18,3.092,3.092,0,0,0,1.563-.324,1.072,1.072,0,0,0,.547-.988,1.073,1.073,0,0,0-.434-.855,6.82,6.82,0,0,0-1.691-.84,9.172,9.172,0,0,1-1.7-.777,2.321,2.321,0,0,1-.75-.754,1.966,1.966,0,0,1-.246-1.008,1.921,1.921,0,0,1,.852-1.652A3.968,3.968,0,0,1,44-8.719a6.835,6.835,0,0,1,2.7.563L46.242-7.1a6.2,6.2,0,0,0-2.336-.531,2.688,2.688,0,0,0-1.391.289.894.894,0,0,0-.469.8.971.971,0,0,0,.176.586,1.735,1.735,0,0,0,.566.461,12.658,12.658,0,0,0,1.5.633A5.6,5.6,0,0,1,46.348-3.75,1.97,1.97,0,0,1,46.883-2.336ZM50.289,0h-1.3V-8.562h1.3ZM48.883-10.883a.861.861,0,0,1,.219-.652.764.764,0,0,1,.547-.207.764.764,0,0,1,.539.211.846.846,0,0,1,.227.648.859.859,0,0,1-.227.652.757.757,0,0,1-.539.215.749.749,0,0,1-.547-.215A.877.877,0,0,1,48.883-10.883Zm11.164,2.32v.82l-1.586.188a2.726,2.726,0,0,1,.391.715,2.727,2.727,0,0,1,.172,1,2.531,2.531,0,0,1-.859,2.008,3.467,3.467,0,0,1-2.359.75,3.929,3.929,0,0,1-.719-.062,1.276,1.276,0,0,0-.828,1.1.56.56,0,0,0,.289.52,2.112,2.112,0,0,0,.992.168h1.516a3.394,3.394,0,0,1,2.137.586,2.036,2.036,0,0,1,.746,1.7A2.431,2.431,0,0,1,58.8,3.1a6.1,6.1,0,0,1-3.328.746,4.547,4.547,0,0,1-2.59-.625,2.018,2.018,0,0,1-.91-1.766A1.983,1.983,0,0,1,52.469.1a2.546,2.546,0,0,1,1.406-.773,1.357,1.357,0,0,1-.551-.461,1.22,1.22,0,0,1-.223-.727,1.379,1.379,0,0,1,.25-.82,2.628,2.628,0,0,1,.789-.68,2.313,2.313,0,0,1-1.082-.93,2.732,2.732,0,0,1-.418-1.5,2.771,2.771,0,0,1,.844-2.168,3.445,3.445,0,0,1,2.391-.762,4.347,4.347,0,0,1,1.211.156Zm-6.828,10A1.162,1.162,0,0,0,53.8,2.492a3.234,3.234,0,0,0,1.68.359A4.687,4.687,0,0,0,57.9,2.363a1.5,1.5,0,0,0,.785-1.324,1.048,1.048,0,0,0-.43-.965A3.337,3.337,0,0,0,56.641-.2H55.086a2.048,2.048,0,0,0-1.375.422A1.507,1.507,0,0,0,53.219,1.438Zm.7-7.258a1.743,1.743,0,0,0,.508,1.359A2.028,2.028,0,0,0,55.844-4a1.654,1.654,0,0,0,1.9-1.844,1.7,1.7,0,0,0-1.922-1.93,1.9,1.9,0,0,0-1.406.492A1.982,1.982,0,0,0,53.922-5.82Zm9.1-2.742v5.555A2.235,2.235,0,0,0,63.5-1.445a1.941,1.941,0,0,0,1.492.516,2.435,2.435,0,0,0,1.965-.734,3.7,3.7,0,0,0,.621-2.4v-4.5h1.3V0H67.8l-.187-1.148h-.07a2.585,2.585,0,0,1-1.105.969,3.716,3.716,0,0,1-1.613.336,3.273,3.273,0,0,1-2.34-.742,3.159,3.159,0,0,1-.777-2.375v-5.6ZM72.922,0h-1.3V-8.562h1.3ZM71.516-10.883a.861.861,0,0,1,.219-.652.764.764,0,0,1,.547-.207.764.764,0,0,1,.539.211.846.846,0,0,1,.227.648.859.859,0,0,1-.227.652.757.757,0,0,1-.539.215.749.749,0,0,1-.547-.215A.877.877,0,0,1,71.516-10.883ZM79.289.156a3.934,3.934,0,0,1-3-1.156,4.476,4.476,0,0,1-1.1-3.211A4.964,4.964,0,0,1,76.215-7.5a3.387,3.387,0,0,1,2.738-1.219A3.229,3.229,0,0,1,81.5-7.66a4.057,4.057,0,0,1,.938,2.793v.82h-5.9A3.394,3.394,0,0,0,77.3-1.758a2.635,2.635,0,0,0,2.035.781,6.9,6.9,0,0,0,2.734-.578V-.4a6.863,6.863,0,0,1-1.3.426A7.31,7.31,0,0,1,79.289.156Zm-.352-7.789a2.118,2.118,0,0,0-1.645.672A3.1,3.1,0,0,0,76.57-5.1h4.477A2.851,2.851,0,0,0,80.5-6.98,1.925,1.925,0,0,0,78.938-7.633ZM90.508,0V-5.539A2.235,2.235,0,0,0,90.031-7.1a1.941,1.941,0,0,0-1.492-.516,2.461,2.461,0,0,0-1.969.727,3.668,3.668,0,0,0-.625,2.4V0h-1.3V-8.562H85.7l.211,1.172h.063a2.648,2.648,0,0,1,1.117-.98,3.63,3.63,0,0,1,1.6-.348,3.252,3.252,0,0,1,2.328.746A3.175,3.175,0,0,1,91.8-5.586V0Zm6.727-.914A4.236,4.236,0,0,0,97.9-.965a4.3,4.3,0,0,0,.508-.105v.992a2.371,2.371,0,0,1-.621.168,4.664,4.664,0,0,1-.738.066q-2.484,0-2.484-2.617V-7.555H93.336V-8.18l1.227-.539.547-1.828h.75v1.984h2.484v1.008H95.859v5.039a1.734,1.734,0,0,0,.367,1.188A1.278,1.278,0,0,0,97.234-.914Zm6.5,1.07a3.934,3.934,0,0,1-3-1.156,4.476,4.476,0,0,1-1.1-3.211A4.964,4.964,0,0,1,100.66-7.5,3.387,3.387,0,0,1,103.4-8.719a3.229,3.229,0,0,1,2.547,1.059,4.057,4.057,0,0,1,.938,2.793v.82h-5.9a3.394,3.394,0,0,0,.762,2.289,2.635,2.635,0,0,0,2.035.781,6.9,6.9,0,0,0,2.734-.578V-.4a6.863,6.863,0,0,1-1.3.426A7.31,7.31,0,0,1,103.734.156Zm-.352-7.789a2.118,2.118,0,0,0-1.645.672,3.1,3.1,0,0,0-.723,1.859h4.477a2.851,2.851,0,0,0-.547-1.879A1.925,1.925,0,0,0,103.383-7.633Zm5.523,6.8a1.164,1.164,0,0,1,.238-.793.864.864,0,0,1,.684-.27.924.924,0,0,1,.707.27,1.116,1.116,0,0,1,.254.793,1.1,1.1,0,0,1-.258.781.92.92,0,0,1-.7.273.926.926,0,0,1-.66-.246A1.07,1.07,0,0,1,108.906-.828Zm0-6.9q0-1.055.922-1.055.961,0,.961,1.055a1.1,1.1,0,0,1-.258.781.92.92,0,0,1-.7.273.926.926,0,0,1-.66-.246A1.07,1.07,0,0,1,108.906-7.727ZM126.625,0h-1.516l-6.242-9.586H118.8q.125,1.688.125,3.094V0H117.7V-11.422h1.5l6.227,9.547h.063q-.016-.211-.07-1.355t-.039-1.637v-6.555h1.242Zm10.336-4.289a4.724,4.724,0,0,1-1.055,3.27A3.714,3.714,0,0,1,132.992.156a3.86,3.86,0,0,1-2.039-.539,3.558,3.558,0,0,1-1.375-1.547,5.391,5.391,0,0,1-.484-2.359,4.716,4.716,0,0,1,1.047-3.262,3.7,3.7,0,0,1,2.906-1.168,3.622,3.622,0,0,1,2.855,1.2A4.7,4.7,0,0,1,136.961-4.289Zm-6.523,0a4.064,4.064,0,0,0,.656,2.5,2.278,2.278,0,0,0,1.93.859,2.293,2.293,0,0,0,1.934-.855,4.043,4.043,0,0,0,.66-2.5,3.978,3.978,0,0,0-.66-2.48,2.32,2.32,0,0,0-1.949-.848,2.283,2.283,0,0,0-1.922.836A4.023,4.023,0,0,0,130.438-4.289ZM150.148,0V-5.57a2.312,2.312,0,0,0-.437-1.535,1.692,1.692,0,0,0-1.359-.512,2.195,2.195,0,0,0-1.789.7,3.3,3.3,0,0,0-.578,2.141V0h-1.3V-5.57a2.312,2.312,0,0,0-.437-1.535,1.7,1.7,0,0,0-1.367-.512,2.118,2.118,0,0,0-1.785.73,3.953,3.953,0,0,0-.566,2.395V0h-1.3V-8.562h1.055l.211,1.172h.063a2.549,2.549,0,0,1,1.035-.977,3.163,3.163,0,0,1,1.5-.352,2.544,2.544,0,0,1,2.625,1.453h.063a2.73,2.73,0,0,1,1.109-1.062,3.442,3.442,0,0,1,1.656-.391,2.9,2.9,0,0,1,2.176.746,3.338,3.338,0,0,1,.723,2.387V0ZM158.1-8.7a3.183,3.183,0,0,1,2.621,1.152,5.058,5.058,0,0,1,.934,3.262,5.1,5.1,0,0,1-.941,3.277A3.17,3.17,0,0,1,158.1.156a3.706,3.706,0,0,1-1.527-.309,2.872,2.872,0,0,1-1.16-.949h-.094L155.047,0h-.93V-12.156h1.3V-9.2q0,.992-.062,1.781h.063A3.079,3.079,0,0,1,158.1-8.7Zm-.187,1.086A2.264,2.264,0,0,0,156-6.855a4.3,4.3,0,0,0-.586,2.566,4.285,4.285,0,0,0,.6,2.582,2.288,2.288,0,0,0,1.93.777,2,2,0,0,0,1.781-.871,4.477,4.477,0,0,0,.586-2.5,4.3,4.3,0,0,0-.586-2.492A2.076,2.076,0,0,0,157.914-7.617Zm9.914-1.1a5.075,5.075,0,0,1,1.023.094l-.18,1.2a4.418,4.418,0,0,0-.937-.117,2.282,2.282,0,0,0-1.777.844,3.077,3.077,0,0,0-.738,2.1V0h-1.3V-8.562h1.07l.148,1.586h.063a3.764,3.764,0,0,1,1.148-1.289A2.585,2.585,0,0,1,167.828-8.719ZM174.07.156a3.934,3.934,0,0,1-3-1.156,4.476,4.476,0,0,1-1.1-3.211A4.964,4.964,0,0,1,171-7.5a3.387,3.387,0,0,1,2.738-1.219,3.229,3.229,0,0,1,2.547,1.059,4.057,4.057,0,0,1,.938,2.793v.82h-5.9a3.394,3.394,0,0,0,.762,2.289,2.634,2.634,0,0,0,2.035.781,6.9,6.9,0,0,0,2.734-.578V-.4a6.863,6.863,0,0,1-1.3.426A7.31,7.31,0,0,1,174.07.156Zm-.352-7.789a2.118,2.118,0,0,0-1.645.672,3.1,3.1,0,0,0-.723,1.859h4.477a2.851,2.851,0,0,0-.547-1.879A1.925,1.925,0,0,0,173.719-7.633Zm15.7,6.484h-.07a3.047,3.047,0,0,1-2.687,1.3,3.179,3.179,0,0,1-2.613-1.148,5.055,5.055,0,0,1-.934-3.266,5.141,5.141,0,0,1,.938-3.289,3.155,3.155,0,0,1,2.609-1.172,3.114,3.114,0,0,1,2.672,1.266h.1l-.055-.617-.031-.6v-3.484h1.3V0h-1.055ZM186.82-.93a2.361,2.361,0,0,0,1.926-.723,3.652,3.652,0,0,0,.6-2.332v-.273a4.3,4.3,0,0,0-.605-2.6,2.3,2.3,0,0,0-1.934-.777,1.985,1.985,0,0,0-1.746.887,4.409,4.409,0,0,0-.605,2.5,4.227,4.227,0,0,0,.6,2.477A2.037,2.037,0,0,0,186.82-.93ZM197.008.156a3.934,3.934,0,0,1-3-1.156,4.476,4.476,0,0,1-1.1-3.211,4.964,4.964,0,0,1,1.02-3.289,3.387,3.387,0,0,1,2.738-1.219,3.229,3.229,0,0,1,2.547,1.059,4.057,4.057,0,0,1,.938,2.793v.82h-5.9a3.394,3.394,0,0,0,.762,2.289,2.634,2.634,0,0,0,2.035.781,6.9,6.9,0,0,0,2.734-.578V-.4a6.863,6.863,0,0,1-1.3.426A7.31,7.31,0,0,1,197.008.156Zm-.352-7.789a2.118,2.118,0,0,0-1.645.672,3.1,3.1,0,0,0-.723,1.859h4.477a2.851,2.851,0,0,0-.547-1.879A1.925,1.925,0,0,0,196.656-7.633ZM203.664,0h-1.3V-12.156h1.3Zm10.891.156a3.706,3.706,0,0,1-1.527-.309,2.872,2.872,0,0,1-1.16-.949h-.094A11.485,11.485,0,0,1,211.867.32V3.844h-1.3V-8.562h1.055l.18,1.172h.063a3.012,3.012,0,0,1,1.164-1.016,3.539,3.539,0,0,1,1.523-.312,3.165,3.165,0,0,1,2.629,1.164,5.125,5.125,0,0,1,.926,3.266,5.1,5.1,0,0,1-.941,3.277A3.17,3.17,0,0,1,214.555.156Zm-.187-7.773a2.3,2.3,0,0,0-1.9.727,3.739,3.739,0,0,0-.6,2.313v.289a4.285,4.285,0,0,0,.6,2.582,2.288,2.288,0,0,0,1.93.777,2.007,2.007,0,0,0,1.738-.9,4.26,4.26,0,0,0,.629-2.477,4.1,4.1,0,0,0-.629-2.457A2.069,2.069,0,0,0,214.367-7.617ZM225.641,0l-.258-1.219h-.062a3.6,3.6,0,0,1-1.277,1.09,3.893,3.893,0,0,1-1.59.285,2.86,2.86,0,0,1-2-.656,2.394,2.394,0,0,1-.723-1.867q0-2.594,4.148-2.719l1.453-.047v-.531a2.171,2.171,0,0,0-.434-1.488,1.783,1.783,0,0,0-1.387-.48,5.65,5.65,0,0,0-2.422.656l-.4-.992a6.094,6.094,0,0,1,1.387-.539,6.006,6.006,0,0,1,1.512-.2,3.262,3.262,0,0,1,2.27.68,2.837,2.837,0,0,1,.738,2.18V0Zm-2.93-.914a2.632,2.632,0,0,0,1.9-.664,2.457,2.457,0,0,0,.691-1.859v-.773l-1.3.055a4.717,4.717,0,0,0-2.23.48,1.449,1.449,0,0,0-.684,1.324,1.336,1.336,0,0,0,.426,1.07A1.767,1.767,0,0,0,222.711-.914ZM234.8-2.336a2.145,2.145,0,0,1-.891,1.844,4.186,4.186,0,0,1-2.5.648,5.436,5.436,0,0,1-2.656-.539v-1.2a6.423,6.423,0,0,0,1.324.492,5.53,5.53,0,0,0,1.363.18A3.092,3.092,0,0,0,233-1.238a1.072,1.072,0,0,0,.547-.988,1.073,1.073,0,0,0-.434-.855,6.82,6.82,0,0,0-1.691-.84,9.172,9.172,0,0,1-1.7-.777,2.321,2.321,0,0,1-.75-.754,1.966,1.966,0,0,1-.246-1.008,1.921,1.921,0,0,1,.852-1.652,3.968,3.968,0,0,1,2.336-.605,6.835,6.835,0,0,1,2.7.563L234.156-7.1a6.2,6.2,0,0,0-2.336-.531,2.688,2.688,0,0,0-1.391.289.894.894,0,0,0-.469.8.971.971,0,0,0,.176.586,1.735,1.735,0,0,0,.566.461,12.658,12.658,0,0,0,1.5.633,5.6,5.6,0,0,1,2.059,1.117A1.97,1.97,0,0,1,234.8-2.336Zm9.5-1.953a4.724,4.724,0,0,1-1.055,3.27A3.714,3.714,0,0,1,240.328.156a3.86,3.86,0,0,1-2.039-.539,3.558,3.558,0,0,1-1.375-1.547,5.391,5.391,0,0,1-.484-2.359,4.716,4.716,0,0,1,1.047-3.262,3.7,3.7,0,0,1,2.906-1.168,3.622,3.622,0,0,1,2.855,1.2A4.7,4.7,0,0,1,244.3-4.289Zm-6.523,0a4.064,4.064,0,0,0,.656,2.5,2.278,2.278,0,0,0,1.93.859,2.293,2.293,0,0,0,1.934-.855,4.043,4.043,0,0,0,.66-2.5,3.978,3.978,0,0,0-.66-2.48,2.32,2.32,0,0,0-1.949-.848,2.283,2.283,0,0,0-1.922.836A4.023,4.023,0,0,0,237.773-4.289Z" transform="translate(716 723)"/><path class="c" d="M3.724.14A1.4,1.4,0,0,1,2.688-.252,1.438,1.438,0,0,1,2.3-1.316V-18.34a1.381,1.381,0,0,1,.378-1.022,1.419,1.419,0,0,1,1.05-.378h6.748a7.1,7.1,0,0,1,4.872,1.54,5.532,5.532,0,0,1,1.736,4.368,5.586,5.586,0,0,1-1.736,4.368A7.012,7.012,0,0,1,10.472-7.9H5.18v6.58A1.468,1.468,0,0,1,4.8-.252,1.428,1.428,0,0,1,3.724.14Zm6.44-10.36q4.144,0,4.144-3.612,0-3.584-4.144-3.584H5.18v7.2ZM25.564-14a5.4,5.4,0,0,1,4.046,1.372,5.787,5.787,0,0,1,1.33,4.172V-1.2a1.314,1.314,0,0,1-.364.994,1.394,1.394,0,0,1-1.008.35,1.324,1.324,0,0,1-.98-.364,1.324,1.324,0,0,1-.364-.98V-2.24A3.939,3.939,0,0,1,26.642-.434a4.67,4.67,0,0,1-2.45.63A5.547,5.547,0,0,1,21.728-.35a4.232,4.232,0,0,1-1.75-1.526,3.954,3.954,0,0,1-.63-2.184,3.363,3.363,0,0,1,.77-2.338,4.592,4.592,0,0,1,2.548-1.218,25.594,25.594,0,0,1,4.886-.364H28.2v-.812a3.292,3.292,0,0,0-.644-2.268,2.7,2.7,0,0,0-2.072-.7,6.6,6.6,0,0,0-1.848.252,13.894,13.894,0,0,0-1.9.728,2.745,2.745,0,0,1-1.064.42.865.865,0,0,1-.686-.308,1.157,1.157,0,0,1-.266-.784,1.215,1.215,0,0,1,.238-.742,2.507,2.507,0,0,1,.77-.63,9.573,9.573,0,0,1,2.3-.854A10.708,10.708,0,0,1,25.564-14ZM24.7-1.9a3.293,3.293,0,0,0,2.52-1.05,3.8,3.8,0,0,0,.98-2.7v-.728h-.5a21.814,21.814,0,0,0-3.36.2,3.3,3.3,0,0,0-1.68.658,1.714,1.714,0,0,0-.5,1.33,2.106,2.106,0,0,0,.728,1.652A2.646,2.646,0,0,0,24.7-1.9ZM39.508.2A8.473,8.473,0,0,1,34.832-.98a2.128,2.128,0,0,1-.714-.644,1.4,1.4,0,0,1-.21-.756,1.155,1.155,0,0,1,.252-.756.8.8,0,0,1,.644-.308A2.761,2.761,0,0,1,35.952-3a11.779,11.779,0,0,0,1.638.728,6.119,6.119,0,0,0,2,.28,3.931,3.931,0,0,0,2.1-.476,1.5,1.5,0,0,0,.756-1.344,1.312,1.312,0,0,0-.294-.9,2.493,2.493,0,0,0-1.022-.6,17.436,17.436,0,0,0-2.156-.574,8.307,8.307,0,0,1-3.542-1.442A3.072,3.072,0,0,1,34.356-9.8a3.609,3.609,0,0,1,.7-2.17,4.546,4.546,0,0,1,1.932-1.5,7,7,0,0,1,2.8-.532,8.162,8.162,0,0,1,2.184.294,6.169,6.169,0,0,1,1.876.854,1.736,1.736,0,0,1,.924,1.428,1.116,1.116,0,0,1-.266.756.808.808,0,0,1-.63.308,1.232,1.232,0,0,1-.5-.112,6.651,6.651,0,0,1-.672-.364,9.4,9.4,0,0,0-1.414-.7,4.613,4.613,0,0,0-1.638-.252,3.213,3.213,0,0,0-1.89.5,1.593,1.593,0,0,0-.714,1.372A1.379,1.379,0,0,0,37.7-8.694a8.067,8.067,0,0,0,2.478.826,13.579,13.579,0,0,1,2.94.9,3.484,3.484,0,0,1,1.526,1.246,3.522,3.522,0,0,1,.462,1.89A3.445,3.445,0,0,1,43.582-.91,6.8,6.8,0,0,1,39.508.2ZM54.124.2a7.04,7.04,0,0,1-3.542-.868A5.857,5.857,0,0,1,48.23-3.15,8.08,8.08,0,0,1,47.4-6.888a8.144,8.144,0,0,1,.826-3.766,5.857,5.857,0,0,1,2.352-2.478A7.04,7.04,0,0,1,54.124-14a7.04,7.04,0,0,1,3.542.868,5.857,5.857,0,0,1,2.352,2.478,8.144,8.144,0,0,1,.826,3.766,8.08,8.08,0,0,1-.826,3.738A5.857,5.857,0,0,1,57.666-.672,7.04,7.04,0,0,1,54.124.2Zm0-2.24a3.473,3.473,0,0,0,2.87-1.232,5.648,5.648,0,0,0,.994-3.612,5.6,5.6,0,0,0-1.008-3.6,3.464,3.464,0,0,0-2.856-1.246,3.464,3.464,0,0,0-2.856,1.246,5.6,5.6,0,0,0-1.008,3.6,5.648,5.648,0,0,0,.994,3.612A3.473,3.473,0,0,0,54.124-2.044ZM77-14a5.4,5.4,0,0,1,4.046,1.372,5.787,5.787,0,0,1,1.33,4.172V-1.2a1.314,1.314,0,0,1-.364.994A1.394,1.394,0,0,1,81,.14a1.324,1.324,0,0,1-.98-.364,1.324,1.324,0,0,1-.364-.98V-2.24A3.939,3.939,0,0,1,78.078-.434a4.67,4.67,0,0,1-2.45.63A5.547,5.547,0,0,1,73.164-.35a4.232,4.232,0,0,1-1.75-1.526,3.954,3.954,0,0,1-.63-2.184,3.363,3.363,0,0,1,.77-2.338A4.592,4.592,0,0,1,74.1-7.616a25.594,25.594,0,0,1,4.886-.364h.644v-.812a3.292,3.292,0,0,0-.644-2.268,2.7,2.7,0,0,0-2.072-.7,6.6,6.6,0,0,0-1.848.252,13.894,13.894,0,0,0-1.9.728,2.745,2.745,0,0,1-1.064.42.865.865,0,0,1-.686-.308,1.157,1.157,0,0,1-.266-.784,1.215,1.215,0,0,1,.238-.742,2.507,2.507,0,0,1,.77-.63,9.573,9.573,0,0,1,2.3-.854A10.708,10.708,0,0,1,77-14ZM76.132-1.9a3.293,3.293,0,0,0,2.52-1.05,3.8,3.8,0,0,0,.98-2.7v-.728h-.5a21.814,21.814,0,0,0-3.36.2,3.3,3.3,0,0,0-1.68.658,1.714,1.714,0,0,0-.5,1.33,2.106,2.106,0,0,0,.728,1.652A2.646,2.646,0,0,0,76.132-1.9ZM92.036.2A6.828,6.828,0,0,1,88.55-.672a5.927,5.927,0,0,1-2.324-2.464,7.93,7.93,0,0,1-.826-3.7,7.944,7.944,0,0,1,.854-3.752,6.173,6.173,0,0,1,2.394-2.52,6.886,6.886,0,0,1,3.528-.9,7.768,7.768,0,0,1,2.142.308,7.322,7.322,0,0,1,1.918.84,1.742,1.742,0,0,1,.9,1.428,1.255,1.255,0,0,1-.252.8.783.783,0,0,1-.644.322,1.118,1.118,0,0,1-.5-.126,7.267,7.267,0,0,1-.644-.378,7.717,7.717,0,0,0-1.3-.686,3.921,3.921,0,0,0-1.442-.238,3.6,3.6,0,0,0-2.954,1.288A5.522,5.522,0,0,0,88.34-6.86a5.4,5.4,0,0,0,1.036,3.542,3.609,3.609,0,0,0,2.94,1.246A4.053,4.053,0,0,0,93.8-2.324,7.983,7.983,0,0,0,95.116-3a5.011,5.011,0,0,1,.616-.336,1.37,1.37,0,0,1,.56-.14.783.783,0,0,1,.644.322,1.255,1.255,0,0,1,.252.8,1.28,1.28,0,0,1-.21.714,2.485,2.485,0,0,1-.714.658,6.717,6.717,0,0,1-1.96.868A8.516,8.516,0,0,1,92.036.2ZM106.4-2.016a1.4,1.4,0,0,1,.882.322,1,1,0,0,1,.266.742.967.967,0,0,1-.434.854A2.027,2.027,0,0,1,105.84.14l-.756-.056A4.9,4.9,0,0,1,101.7-1.3a5.146,5.146,0,0,1-1.12-3.6v-6.58H98.9q-1.232,0-1.232-1.092a1.027,1.027,0,0,1,.322-.8,1.3,1.3,0,0,1,.91-.294h1.68v-2.884a1.334,1.334,0,0,1,.378-1.008,1.411,1.411,0,0,1,1.022-.364,1.462,1.462,0,0,1,1.036.364,1.308,1.308,0,0,1,.392,1.008v2.884h2.772a1.3,1.3,0,0,1,.91.294,1.027,1.027,0,0,1,.322.8,1.018,1.018,0,0,1-.322.812,1.344,1.344,0,0,1-.91.28H103.4V-4.7a2.86,2.86,0,0,0,.546,1.932,2.363,2.363,0,0,0,1.666.7Zm13.72-11.928a1.411,1.411,0,0,1,1.022.364,1.334,1.334,0,0,1,.378,1.008v11.4a1.239,1.239,0,0,1-.392.952,1.462,1.462,0,0,1-1.036.364,1.316,1.316,0,0,1-.952-.35,1.241,1.241,0,0,1-.364-.938V-2.212A4.385,4.385,0,0,1,117-.42,5.221,5.221,0,0,1,114.464.2q-4.984,0-4.984-5.488v-7.28a1.334,1.334,0,0,1,.378-1.008,1.451,1.451,0,0,1,1.05-.364,1.411,1.411,0,0,1,1.022.364,1.334,1.334,0,0,1,.378,1.008V-5.32a3.686,3.686,0,0,0,.672,2.436,2.582,2.582,0,0,0,2.072.784A3.449,3.449,0,0,0,117.7-3.164a3.976,3.976,0,0,0,.994-2.828v-6.58a1.318,1.318,0,0,1,.392-.994A1.43,1.43,0,0,1,120.12-13.944ZM131.152-14a5.4,5.4,0,0,1,4.046,1.372,5.787,5.787,0,0,1,1.33,4.172V-1.2a1.314,1.314,0,0,1-.364.994,1.394,1.394,0,0,1-1.008.35,1.324,1.324,0,0,1-.98-.364,1.324,1.324,0,0,1-.364-.98V-2.24A3.939,3.939,0,0,1,132.23-.434a4.67,4.67,0,0,1-2.45.63,5.547,5.547,0,0,1-2.464-.546,4.232,4.232,0,0,1-1.75-1.526,3.954,3.954,0,0,1-.63-2.184,3.363,3.363,0,0,1,.77-2.338,4.592,4.592,0,0,1,2.548-1.218,25.594,25.594,0,0,1,4.886-.364h.644v-.812a3.292,3.292,0,0,0-.644-2.268,2.7,2.7,0,0,0-2.072-.7,6.6,6.6,0,0,0-1.848.252,13.894,13.894,0,0,0-1.9.728,2.745,2.745,0,0,1-1.064.42.865.865,0,0,1-.686-.308,1.157,1.157,0,0,1-.266-.784,1.215,1.215,0,0,1,.238-.742,2.507,2.507,0,0,1,.77-.63,9.573,9.573,0,0,1,2.3-.854A10.708,10.708,0,0,1,131.152-14Zm-.868,12.1a3.293,3.293,0,0,0,2.52-1.05,3.8,3.8,0,0,0,.98-2.7v-.728h-.5a21.814,21.814,0,0,0-3.36.2,3.3,3.3,0,0,0-1.68.658,1.714,1.714,0,0,0-.5,1.33,2.106,2.106,0,0,0,.728,1.652A2.646,2.646,0,0,0,130.284-1.9ZM141.764.14A1.549,1.549,0,0,1,140.742-.2a1.233,1.233,0,0,1-.406-1.008v-17.3a1.276,1.276,0,0,1,.406-1.022,1.51,1.51,0,0,1,1.022-.35,1.457,1.457,0,0,1,1.008.35,1.3,1.3,0,0,1,.392,1.022V-1.2A1.255,1.255,0,0,1,142.772-.2,1.494,1.494,0,0,1,141.764.14Z" transform="translate(716 694)"/><path class="c" d="M11.44-1.232a.985.985,0,0,1,.1.416.8.8,0,0,1-.3.624,1.009,1.009,0,0,1-.68.256.909.909,0,0,1-.48-.136A.907.907,0,0,1,9.728-.5L8.768-2.64H3.136L2.176-.5a.907.907,0,0,1-.352.424.937.937,0,0,1-.5.136A1.019,1.019,0,0,1,.656-.192a.787.787,0,0,1-.3-.624.985.985,0,0,1,.1-.416L4.864-10.72a1.032,1.032,0,0,1,.44-.488,1.26,1.26,0,0,1,.632-.168,1.26,1.26,0,0,1,.632.168,1.032,1.032,0,0,1,.44.488ZM8.064-4.24,5.952-8.992,3.84-4.24ZM6.192-12.224a.568.568,0,0,1-.256.064.494.494,0,0,1-.352-.136.418.418,0,0,1-.144-.312.507.507,0,0,1,.176-.352l1.456-1.5a.928.928,0,0,1,.688-.32.754.754,0,0,1,.552.232.736.736,0,0,1,.232.536.682.682,0,0,1-.136.4A1.141,1.141,0,0,1,8-13.28ZM17.28-7.984a.861.861,0,0,1,.656.176.781.781,0,0,1,.24.624.872.872,0,0,1-.208.64,1.278,1.278,0,0,1-.752.272l-.48.048a1.944,1.944,0,0,0-1.384.64,2.093,2.093,0,0,0-.44,1.36v3.36a.888.888,0,0,1-.288.712A1.064,1.064,0,0,1,13.9.1a1.034,1.034,0,0,1-.712-.248.9.9,0,0,1-.28-.712V-7.056a.856.856,0,0,1,.28-.688,1.032,1.032,0,0,1,.7-.24.962.962,0,0,1,.672.232.85.85,0,0,1,.256.664v.64a2.368,2.368,0,0,1,.9-1.088,2.771,2.771,0,0,1,1.336-.432Zm7.792,5.84a.538.538,0,0,1,.44.208.865.865,0,0,1,.168.56.97.97,0,0,1-.592.832,5.349,5.349,0,0,1-1.232.488,5.079,5.079,0,0,1-1.312.184A4.077,4.077,0,0,1,19.552-.96a3.988,3.988,0,0,1-1.1-2.976,4.566,4.566,0,0,1,.48-2.128A3.49,3.49,0,0,1,20.28-7.5a3.829,3.829,0,0,1,1.976-.512,3.546,3.546,0,0,1,1.84.464A3.146,3.146,0,0,1,25.312-6.24a4.353,4.353,0,0,1,.432,2q0,.688-.608.688h-4.72a2.517,2.517,0,0,0,.624,1.624,2.1,2.1,0,0,0,1.536.52,2.913,2.913,0,0,0,.9-.128,8.923,8.923,0,0,0,.888-.352A1.766,1.766,0,0,1,25.072-2.144ZM22.3-6.608A1.717,1.717,0,0,0,21-6.1a2.417,2.417,0,0,0-.584,1.472h3.616a2.281,2.281,0,0,0-.48-1.48A1.583,1.583,0,0,0,22.3-6.608Zm8.464-1.408a3.259,3.259,0,0,1,2.424.808,3.383,3.383,0,0,1,.792,2.456v3.9a.9.9,0,0,1-.256.68.969.969,0,0,1-.7.248.936.936,0,0,1-.68-.256.894.894,0,0,1-.264-.672V-1.2a2.088,2.088,0,0,1-.856.976,2.568,2.568,0,0,1-1.352.352,3.139,3.139,0,0,1-1.424-.32,2.533,2.533,0,0,1-1.008-.88,2.224,2.224,0,0,1-.368-1.248,1.977,1.977,0,0,1,.44-1.36,2.644,2.644,0,0,1,1.432-.72,13.041,13.041,0,0,1,2.736-.224h.4v-.368a1.638,1.638,0,0,0-.336-1.144,1.43,1.43,0,0,0-1.088-.36,3.452,3.452,0,0,0-.944.136q-.48.136-1.136.392a1.6,1.6,0,0,1-.608.208.6.6,0,0,1-.472-.208.791.791,0,0,1-.184-.544.819.819,0,0,1,.136-.472A1.291,1.291,0,0,1,27.9-7.36a5.215,5.215,0,0,1,1.336-.48A6.893,6.893,0,0,1,30.768-8.016Zm-.5,6.7a1.709,1.709,0,0,0,1.3-.536,1.939,1.939,0,0,0,.5-1.384v-.336h-.288a11.038,11.038,0,0,0-1.664.1,1.616,1.616,0,0,0-.848.336.856.856,0,0,0-.256.656,1.085,1.085,0,0,0,.36.84A1.27,1.27,0,0,0,30.272-1.312ZM46.88-11.36a1.066,1.066,0,0,1,.736.256.856.856,0,0,1,.288.672V-.864a.9.9,0,0,1-.272.688,1.008,1.008,0,0,1-.72.256,1.008,1.008,0,0,1-.72-.256.9.9,0,0,1-.272-.688v-.4A2.5,2.5,0,0,1,44.9-.24a3.066,3.066,0,0,1-1.512.368,3.243,3.243,0,0,1-1.8-.512A3.4,3.4,0,0,1,40.36-1.832a5,5,0,0,1-.44-2.152,4.845,4.845,0,0,1,.44-2.128A3.333,3.333,0,0,1,41.584-7.52a3.309,3.309,0,0,1,1.808-.5,3.131,3.131,0,0,1,1.5.352,2.442,2.442,0,0,1,1.008.992v-3.792a.848.848,0,0,1,.264-.648A1,1,0,0,1,46.88-11.36ZM43.92-1.424A1.779,1.779,0,0,0,45.4-2.08a2.952,2.952,0,0,0,.52-1.872,2.917,2.917,0,0,0-.52-1.864,1.77,1.77,0,0,0-1.464-.648,1.821,1.821,0,0,0-1.488.64,2.823,2.823,0,0,0-.528,1.84A2.989,2.989,0,0,0,42.448-2.1,1.766,1.766,0,0,0,43.92-1.424Zm12.24-.72a.538.538,0,0,1,.44.208.865.865,0,0,1,.168.56.97.97,0,0,1-.592.832,5.349,5.349,0,0,1-1.232.488,5.079,5.079,0,0,1-1.312.184A4.077,4.077,0,0,1,50.64-.96a3.988,3.988,0,0,1-1.1-2.976,4.566,4.566,0,0,1,.48-2.128A3.49,3.49,0,0,1,51.368-7.5a3.829,3.829,0,0,1,1.976-.512,3.546,3.546,0,0,1,1.84.464A3.146,3.146,0,0,1,56.4-6.24a4.354,4.354,0,0,1,.432,2q0,.688-.608.688H51.5a2.517,2.517,0,0,0,.624,1.624,2.1,2.1,0,0,0,1.536.52,2.913,2.913,0,0,0,.9-.128,8.923,8.923,0,0,0,.888-.352A1.766,1.766,0,0,1,56.16-2.144ZM53.392-6.608a1.717,1.717,0,0,0-1.3.512A2.417,2.417,0,0,0,51.5-4.624H55.12a2.281,2.281,0,0,0-.48-1.48A1.583,1.583,0,0,0,53.392-6.608ZM66.864-1.392q.8.048.8.72a.651.651,0,0,1-.312.584,1.489,1.489,0,0,1-.888.168L66.032.048a2.574,2.574,0,0,1-2.688-2.88V-6.32h-.8a1.016,1.016,0,0,1-.664-.192.685.685,0,0,1-.232-.56.685.685,0,0,1,.232-.56,1.016,1.016,0,0,1,.664-.192h.8V-9.3a.9.9,0,0,1,.272-.688,1.03,1.03,0,0,1,.736-.256,1.008,1.008,0,0,1,.72.256.9.9,0,0,1,.272.688v1.472H66.7a1.016,1.016,0,0,1,.664.192.685.685,0,0,1,.232.56.685.685,0,0,1-.232.56,1.016,1.016,0,0,1-.664.192h-1.36v3.632q0,1.184,1.088,1.264ZM69.7.1a1.034,1.034,0,0,1-.712-.248.9.9,0,0,1-.28-.712V-7.04a.876.876,0,0,1,.28-.7,1.055,1.055,0,0,1,.712-.24,1.087,1.087,0,0,1,.72.24.864.864,0,0,1,.288.7V-.864a.888.888,0,0,1-.288.712A1.064,1.064,0,0,1,69.7.1Zm0-9.5a1.222,1.222,0,0,1-.864-.3,1.008,1.008,0,0,1-.32-.776.983.983,0,0,1,.32-.768,1.243,1.243,0,0,1,.864-.288,1.25,1.25,0,0,1,.856.288.971.971,0,0,1,.328.768,1.008,1.008,0,0,1-.32.776A1.222,1.222,0,0,1,69.7-9.408Zm7.136,8.016q.8.048.8.72a.651.651,0,0,1-.312.584,1.489,1.489,0,0,1-.888.168L76,.048a2.574,2.574,0,0,1-2.688-2.88V-6.32h-.8a1.016,1.016,0,0,1-.664-.192.685.685,0,0,1-.232-.56.685.685,0,0,1,.232-.56,1.016,1.016,0,0,1,.664-.192h.8V-9.3a.9.9,0,0,1,.272-.688,1.03,1.03,0,0,1,.736-.256,1.008,1.008,0,0,1,.72.256.9.9,0,0,1,.272.688v1.472h1.36a1.016,1.016,0,0,1,.664.192.685.685,0,0,1,.232.56.685.685,0,0,1-.232.56,1.016,1.016,0,0,1-.664.192h-1.36v3.632q0,1.184,1.088,1.264Zm8.016-6.592a1.03,1.03,0,0,1,.736.256.9.9,0,0,1,.272.688V-.832a.868.868,0,0,1-.28.672A1.037,1.037,0,0,1,84.848.1a.965.965,0,0,1-.688-.24A.856.856,0,0,1,83.9-.8v-.4a2.549,2.549,0,0,1-.992.984A2.867,2.867,0,0,1,81.5.128q-2.88,0-2.88-3.232V-7.04a.9.9,0,0,1,.272-.688,1.008,1.008,0,0,1,.72-.256,1.03,1.03,0,0,1,.736.256.9.9,0,0,1,.272.688v3.952a1.888,1.888,0,0,0,.336,1.232,1.3,1.3,0,0,0,1.056.4,1.722,1.722,0,0,0,1.336-.552,2.087,2.087,0,0,0,.5-1.464V-7.04a.9.9,0,0,1,.272-.688A1.008,1.008,0,0,1,84.848-7.984ZM88.928.1a1.034,1.034,0,0,1-.712-.248.9.9,0,0,1-.28-.712v-9.552a.876.876,0,0,1,.28-.7,1.055,1.055,0,0,1,.712-.24,1.087,1.087,0,0,1,.72.24.864.864,0,0,1,.288.7V-.864a.888.888,0,0,1-.288.712A1.064,1.064,0,0,1,88.928.1Zm6.64.032a4.3,4.3,0,0,1-2.1-.5,3.432,3.432,0,0,1-1.4-1.424,4.515,4.515,0,0,1-.5-2.16,4.468,4.468,0,0,1,.5-2.152,3.444,3.444,0,0,1,1.4-1.416,4.3,4.3,0,0,1,2.1-.5,4.3,4.3,0,0,1,2.1.5A3.394,3.394,0,0,1,99.064-6.1a4.528,4.528,0,0,1,.488,2.152,4.575,4.575,0,0,1-.488,2.16A3.382,3.382,0,0,1,97.672-.368,4.3,4.3,0,0,1,95.568.128Zm-.016-1.552a1.793,1.793,0,0,0,1.488-.64,2.973,2.973,0,0,0,.512-1.888,2.979,2.979,0,0,0-.512-1.88,1.765,1.765,0,0,0-1.472-.648,1.788,1.788,0,0,0-1.48.648,2.946,2.946,0,0,0-.52,1.88,2.973,2.973,0,0,0,.512,1.888A1.775,1.775,0,0,0,95.552-1.424Z" transform="translate(581 686)"/><path class="c" d="M11.44-1.232a.985.985,0,0,1,.1.416.8.8,0,0,1-.3.624,1.009,1.009,0,0,1-.68.256.909.909,0,0,1-.48-.136A.907.907,0,0,1,9.728-.5L8.768-2.64H3.136L2.176-.5a.907.907,0,0,1-.352.424.937.937,0,0,1-.5.136A1.019,1.019,0,0,1,.656-.192a.787.787,0,0,1-.3-.624.985.985,0,0,1,.1-.416L4.864-10.72a1.032,1.032,0,0,1,.44-.488,1.26,1.26,0,0,1,.632-.168,1.26,1.26,0,0,1,.632.168,1.032,1.032,0,0,1,.44.488ZM8.064-4.24,5.952-8.992,3.84-4.24ZM6.192-12.224a.568.568,0,0,1-.256.064.494.494,0,0,1-.352-.136.418.418,0,0,1-.144-.312.507.507,0,0,1,.176-.352l1.456-1.5a.928.928,0,0,1,.688-.32.754.754,0,0,1,.552.232.736.736,0,0,1,.232.536.682.682,0,0,1-.136.4A1.141,1.141,0,0,1,8-13.28ZM17.28-7.984a.861.861,0,0,1,.656.176.781.781,0,0,1,.24.624.872.872,0,0,1-.208.64,1.278,1.278,0,0,1-.752.272l-.48.048a1.944,1.944,0,0,0-1.384.64,2.093,2.093,0,0,0-.44,1.36v3.36a.888.888,0,0,1-.288.712A1.064,1.064,0,0,1,13.9.1a1.034,1.034,0,0,1-.712-.248.9.9,0,0,1-.28-.712V-7.056a.856.856,0,0,1,.28-.688,1.032,1.032,0,0,1,.7-.24.962.962,0,0,1,.672.232.85.85,0,0,1,.256.664v.64a2.368,2.368,0,0,1,.9-1.088,2.771,2.771,0,0,1,1.336-.432Zm7.792,5.84a.538.538,0,0,1,.44.208.865.865,0,0,1,.168.56.97.97,0,0,1-.592.832,5.349,5.349,0,0,1-1.232.488,5.079,5.079,0,0,1-1.312.184A4.077,4.077,0,0,1,19.552-.96a3.988,3.988,0,0,1-1.1-2.976,4.566,4.566,0,0,1,.48-2.128A3.49,3.49,0,0,1,20.28-7.5a3.829,3.829,0,0,1,1.976-.512,3.546,3.546,0,0,1,1.84.464A3.146,3.146,0,0,1,25.312-6.24a4.353,4.353,0,0,1,.432,2q0,.688-.608.688h-4.72a2.517,2.517,0,0,0,.624,1.624,2.1,2.1,0,0,0,1.536.52,2.913,2.913,0,0,0,.9-.128,8.923,8.923,0,0,0,.888-.352A1.766,1.766,0,0,1,25.072-2.144ZM22.3-6.608A1.717,1.717,0,0,0,21-6.1a2.417,2.417,0,0,0-.584,1.472h3.616a2.281,2.281,0,0,0-.48-1.48A1.583,1.583,0,0,0,22.3-6.608Zm8.464-1.408a3.259,3.259,0,0,1,2.424.808,3.383,3.383,0,0,1,.792,2.456v3.9a.9.9,0,0,1-.256.68.969.969,0,0,1-.7.248.936.936,0,0,1-.68-.256.894.894,0,0,1-.264-.672V-1.2a2.088,2.088,0,0,1-.856.976,2.568,2.568,0,0,1-1.352.352,3.139,3.139,0,0,1-1.424-.32,2.533,2.533,0,0,1-1.008-.88,2.224,2.224,0,0,1-.368-1.248,1.977,1.977,0,0,1,.44-1.36,2.644,2.644,0,0,1,1.432-.72,13.041,13.041,0,0,1,2.736-.224h.4v-.368a1.638,1.638,0,0,0-.336-1.144,1.43,1.43,0,0,0-1.088-.36,3.452,3.452,0,0,0-.944.136q-.48.136-1.136.392a1.6,1.6,0,0,1-.608.208.6.6,0,0,1-.472-.208.791.791,0,0,1-.184-.544.819.819,0,0,1,.136-.472A1.291,1.291,0,0,1,27.9-7.36a5.215,5.215,0,0,1,1.336-.48A6.893,6.893,0,0,1,30.768-8.016Zm-.5,6.7a1.709,1.709,0,0,0,1.3-.536,1.939,1.939,0,0,0,.5-1.384v-.336h-.288a11.038,11.038,0,0,0-1.664.1,1.616,1.616,0,0,0-.848.336.856.856,0,0,0-.256.656,1.085,1.085,0,0,0,.36.84A1.27,1.27,0,0,0,30.272-1.312ZM46.88-11.36a1.066,1.066,0,0,1,.736.256.856.856,0,0,1,.288.672V-.864a.9.9,0,0,1-.272.688,1.008,1.008,0,0,1-.72.256,1.008,1.008,0,0,1-.72-.256.9.9,0,0,1-.272-.688v-.4A2.5,2.5,0,0,1,44.9-.24a3.066,3.066,0,0,1-1.512.368,3.243,3.243,0,0,1-1.8-.512A3.4,3.4,0,0,1,40.36-1.832a5,5,0,0,1-.44-2.152,4.845,4.845,0,0,1,.44-2.128A3.333,3.333,0,0,1,41.584-7.52a3.309,3.309,0,0,1,1.808-.5,3.131,3.131,0,0,1,1.5.352,2.442,2.442,0,0,1,1.008.992v-3.792a.848.848,0,0,1,.264-.648A1,1,0,0,1,46.88-11.36ZM43.92-1.424A1.779,1.779,0,0,0,45.4-2.08a2.952,2.952,0,0,0,.52-1.872,2.917,2.917,0,0,0-.52-1.864,1.77,1.77,0,0,0-1.464-.648,1.821,1.821,0,0,0-1.488.64,2.823,2.823,0,0,0-.528,1.84A2.989,2.989,0,0,0,42.448-2.1,1.766,1.766,0,0,0,43.92-1.424Zm12.24-.72a.538.538,0,0,1,.44.208.865.865,0,0,1,.168.56.97.97,0,0,1-.592.832,5.349,5.349,0,0,1-1.232.488,5.079,5.079,0,0,1-1.312.184A4.077,4.077,0,0,1,50.64-.96a3.988,3.988,0,0,1-1.1-2.976,4.566,4.566,0,0,1,.48-2.128A3.49,3.49,0,0,1,51.368-7.5a3.829,3.829,0,0,1,1.976-.512,3.546,3.546,0,0,1,1.84.464A3.146,3.146,0,0,1,56.4-6.24a4.354,4.354,0,0,1,.432,2q0,.688-.608.688H51.5a2.517,2.517,0,0,0,.624,1.624,2.1,2.1,0,0,0,1.536.52,2.913,2.913,0,0,0,.9-.128,8.923,8.923,0,0,0,.888-.352A1.766,1.766,0,0,1,56.16-2.144ZM53.392-6.608a1.717,1.717,0,0,0-1.3.512A2.417,2.417,0,0,0,51.5-4.624H55.12a2.281,2.281,0,0,0-.48-1.48A1.583,1.583,0,0,0,53.392-6.608ZM61.3.128A5.144,5.144,0,0,1,58.48-.56a.954.954,0,0,1-.512-.864.758.758,0,0,1,.176-.52.554.554,0,0,1,.432-.2,1.767,1.767,0,0,1,.752.256,7,7,0,0,0,.936.368,3.812,3.812,0,0,0,1.08.128,2.054,2.054,0,0,0,1.048-.224.694.694,0,0,0,.376-.624.6.6,0,0,0-.152-.432,1.394,1.394,0,0,0-.544-.3A11.44,11.44,0,0,0,60.88-3.28,4.58,4.58,0,0,1,58.84-4.1a1.816,1.816,0,0,1-.616-1.456,2.1,2.1,0,0,1,.416-1.272,2.7,2.7,0,0,1,1.144-.88,4.168,4.168,0,0,1,1.656-.312,4.963,4.963,0,0,1,1.3.168,3.94,3.94,0,0,1,1.12.488.966.966,0,0,1,.512.848.821.821,0,0,1-.176.536.538.538,0,0,1-.432.216.865.865,0,0,1-.344-.072,4.616,4.616,0,0,1-.424-.216,6.709,6.709,0,0,0-.8-.36,2.5,2.5,0,0,0-.832-.12,1.611,1.611,0,0,0-.936.24.758.758,0,0,0-.344.656.666.666,0,0,0,.352.608,5.041,5.041,0,0,0,1.36.416,7.76,7.76,0,0,1,1.68.512,1.968,1.968,0,0,1,.872.72,2.089,2.089,0,0,1,.264,1.1,2.052,2.052,0,0,1-.9,1.744A4.013,4.013,0,0,1,61.3.128Zm8.4,0a4.146,4.146,0,0,1-2.056-.5,3.381,3.381,0,0,1-1.368-1.408,4.505,4.505,0,0,1-.48-2.128,4.468,4.468,0,0,1,.5-2.152A3.56,3.56,0,0,1,67.712-7.5a4.208,4.208,0,0,1,2.1-.512,4.665,4.665,0,0,1,1.256.176,4.143,4.143,0,0,1,1.112.48.99.99,0,0,1,.512.848.9.9,0,0,1-.168.568.531.531,0,0,1-.44.216.956.956,0,0,1-.368-.08A3.223,3.223,0,0,1,71.328-6a4.3,4.3,0,0,0-.672-.328,2.088,2.088,0,0,0-.736-.12,1.871,1.871,0,0,0-1.528.648,2.855,2.855,0,0,0-.536,1.864,2.827,2.827,0,0,0,.536,1.848,1.871,1.871,0,0,0,1.528.648,1.973,1.973,0,0,0,.712-.12,6.031,6.031,0,0,0,.7-.328,3.168,3.168,0,0,1,.416-.216.923.923,0,0,1,.352-.072.531.531,0,0,1,.432.224.879.879,0,0,1,.176.56.9.9,0,0,1-.12.472,1.081,1.081,0,0,1-.392.36,4.207,4.207,0,0,1-1.152.5A4.953,4.953,0,0,1,69.7.128Zm8.7-8.112a.861.861,0,0,1,.656.176.781.781,0,0,1,.24.624.872.872,0,0,1-.208.64,1.278,1.278,0,0,1-.752.272l-.48.048a1.944,1.944,0,0,0-1.384.64,2.093,2.093,0,0,0-.44,1.36v3.36a.888.888,0,0,1-.288.712,1.064,1.064,0,0,1-.72.248,1.034,1.034,0,0,1-.712-.248.9.9,0,0,1-.28-.712V-7.056a.856.856,0,0,1,.28-.688,1.032,1.032,0,0,1,.7-.24.962.962,0,0,1,.672.232.85.85,0,0,1,.256.664v.64a2.368,2.368,0,0,1,.9-1.088,2.771,2.771,0,0,1,1.336-.432ZM81.152.1a1.034,1.034,0,0,1-.712-.248.9.9,0,0,1-.28-.712V-7.04a.876.876,0,0,1,.28-.7,1.055,1.055,0,0,1,.712-.24,1.087,1.087,0,0,1,.72.24.864.864,0,0,1,.288.7V-.864a.888.888,0,0,1-.288.712A1.064,1.064,0,0,1,81.152.1Zm0-9.5a1.222,1.222,0,0,1-.864-.3,1.008,1.008,0,0,1-.32-.776.983.983,0,0,1,.32-.768,1.243,1.243,0,0,1,.864-.288,1.25,1.25,0,0,1,.856.288.971.971,0,0,1,.328.768,1.008,1.008,0,0,1-.32.776A1.222,1.222,0,0,1,81.152-9.408ZM88.72-8.016a3.243,3.243,0,0,1,1.8.512,3.4,3.4,0,0,1,1.232,1.448,5,5,0,0,1,.44,2.152,4.845,4.845,0,0,1-.44,2.128A3.333,3.333,0,0,1,90.528-.368a3.309,3.309,0,0,1-1.808.5,3.1,3.1,0,0,1-1.488-.352A2.47,2.47,0,0,1,86.224-1.2V2.064a.83.83,0,0,1-.272.656,1.048,1.048,0,0,1-.72.24A1.037,1.037,0,0,1,84.5,2.7a.868.868,0,0,1-.28-.672V-7.04a.914.914,0,0,1,.264-.688.979.979,0,0,1,.712-.256,1.008,1.008,0,0,1,.72.256.9.9,0,0,1,.272.688v.4a2.455,2.455,0,0,1,1.016-1.016A3.121,3.121,0,0,1,88.72-8.016Zm-.528,6.592a1.793,1.793,0,0,0,1.472-.648A2.829,2.829,0,0,0,90.192-3.9a2.989,2.989,0,0,0-.528-1.888,1.766,1.766,0,0,0-1.472-.672,1.779,1.779,0,0,0-1.48.656,2.952,2.952,0,0,0-.52,1.872,2.923,2.923,0,0,0,.52,1.856A1.779,1.779,0,0,0,88.192-1.424Zm9.664.032q.8.048.8.72a.651.651,0,0,1-.312.584,1.489,1.489,0,0,1-.888.168L97.024.048a2.574,2.574,0,0,1-2.688-2.88V-6.32h-.8a1.016,1.016,0,0,1-.664-.192.685.685,0,0,1-.232-.56.685.685,0,0,1,.232-.56,1.016,1.016,0,0,1,.664-.192h.8V-9.3a.9.9,0,0,1,.272-.688,1.03,1.03,0,0,1,.736-.256,1.008,1.008,0,0,1,.72.256.9.9,0,0,1,.272.688v1.472H97.7a1.016,1.016,0,0,1,.664.192.685.685,0,0,1,.232.56.685.685,0,0,1-.232.56,1.016,1.016,0,0,1-.664.192h-1.36v3.632q0,1.184,1.088,1.264ZM100.688.1a1.034,1.034,0,0,1-.712-.248.9.9,0,0,1-.28-.712V-7.04a.876.876,0,0,1,.28-.7,1.055,1.055,0,0,1,.712-.24,1.087,1.087,0,0,1,.72.24.864.864,0,0,1,.288.7V-.864a.888.888,0,0,1-.288.712A1.064,1.064,0,0,1,100.688.1Zm0-9.5a1.222,1.222,0,0,1-.864-.3,1.008,1.008,0,0,1-.32-.776.983.983,0,0,1,.32-.768,1.243,1.243,0,0,1,.864-.288,1.25,1.25,0,0,1,.856.288.971.971,0,0,1,.328.768,1.008,1.008,0,0,1-.32.776A1.222,1.222,0,0,1,100.688-9.408Zm8.528,2a.979.979,0,0,1,.344-.432.834.834,0,0,1,.472-.144,1.007,1.007,0,0,1,.664.248.772.772,0,0,1,.3.616.852.852,0,0,1-.1.384l-2.96,6.192a1.053,1.053,0,0,1-.408.464,1.105,1.105,0,0,1-.584.16,1.161,1.161,0,0,1-.584-.16,1.025,1.025,0,0,1-.424-.464L102.96-6.736a.812.812,0,0,1-.08-.368.78.78,0,0,1,.312-.624,1.091,1.091,0,0,1,.712-.256.892.892,0,0,1,.848.56l2.24,4.944Zm6.24-.608a3.259,3.259,0,0,1,2.424.808,3.383,3.383,0,0,1,.792,2.456v3.9a.9.9,0,0,1-.256.68.969.969,0,0,1-.7.248.936.936,0,0,1-.68-.256.894.894,0,0,1-.264-.672V-1.2a2.088,2.088,0,0,1-.856.976,2.568,2.568,0,0,1-1.352.352,3.139,3.139,0,0,1-1.424-.32,2.533,2.533,0,0,1-1.008-.88,2.224,2.224,0,0,1-.368-1.248,1.977,1.977,0,0,1,.44-1.36,2.644,2.644,0,0,1,1.432-.72,13.041,13.041,0,0,1,2.736-.224h.4v-.368a1.638,1.638,0,0,0-.336-1.144,1.43,1.43,0,0,0-1.088-.36,3.452,3.452,0,0,0-.944.136q-.48.136-1.136.392a1.6,1.6,0,0,1-.608.208.6.6,0,0,1-.472-.208A.791.791,0,0,1,112-6.512a.819.819,0,0,1,.136-.472,1.291,1.291,0,0,1,.456-.376,5.215,5.215,0,0,1,1.336-.48A6.893,6.893,0,0,1,115.456-8.016Zm-.5,6.7a1.709,1.709,0,0,0,1.3-.536,1.939,1.939,0,0,0,.5-1.384v-.336h-.288a11.038,11.038,0,0,0-1.664.1,1.615,1.615,0,0,0-.848.336.856.856,0,0,0-.256.656,1.085,1.085,0,0,0,.36.84A1.27,1.27,0,0,0,114.96-1.312ZM3.872,18.128a5.144,5.144,0,0,1-2.816-.688.954.954,0,0,1-.512-.864.758.758,0,0,1,.176-.52.554.554,0,0,1,.432-.2,1.767,1.767,0,0,1,.752.256,7,7,0,0,0,.936.368,3.812,3.812,0,0,0,1.08.128,2.054,2.054,0,0,0,1.048-.224.694.694,0,0,0,.376-.624.6.6,0,0,0-.152-.432,1.394,1.394,0,0,0-.544-.3,11.44,11.44,0,0,0-1.192-.312,4.58,4.58,0,0,1-2.04-.816A1.816,1.816,0,0,1,.8,12.448a2.1,2.1,0,0,1,.416-1.272A2.7,2.7,0,0,1,2.36,10.3a4.168,4.168,0,0,1,1.656-.312,4.963,4.963,0,0,1,1.3.168,3.94,3.94,0,0,1,1.12.488.966.966,0,0,1,.512.848.821.821,0,0,1-.176.536.538.538,0,0,1-.432.216.865.865,0,0,1-.344-.072,4.616,4.616,0,0,1-.424-.216,6.709,6.709,0,0,0-.8-.36,2.5,2.5,0,0,0-.832-.12,1.611,1.611,0,0,0-.936.24.758.758,0,0,0-.344.656.666.666,0,0,0,.352.608,5.041,5.041,0,0,0,1.36.416,7.76,7.76,0,0,1,1.68.512,1.968,1.968,0,0,1,.872.72,2.089,2.089,0,0,1,.264,1.1,2.052,2.052,0,0,1-.9,1.744A4.013,4.013,0,0,1,3.872,18.128Zm5.92-.032a1.034,1.034,0,0,1-.712-.248.9.9,0,0,1-.28-.712V10.96a.876.876,0,0,1,.28-.7,1.055,1.055,0,0,1,.712-.24,1.087,1.087,0,0,1,.72.24.864.864,0,0,1,.288.7v6.176a.888.888,0,0,1-.288.712A1.064,1.064,0,0,1,9.792,18.1Zm0-9.5a1.222,1.222,0,0,1-.864-.3,1.008,1.008,0,0,1-.32-.776.983.983,0,0,1,.32-.768,1.243,1.243,0,0,1,.864-.288,1.25,1.25,0,0,1,.856.288.971.971,0,0,1,.328.768,1.008,1.008,0,0,1-.32.776A1.222,1.222,0,0,1,9.792,8.592Zm9.7,1.424a1.008,1.008,0,0,1,.72.256.9.9,0,0,1,.272.688v6.32a3.6,3.6,0,0,1-1.024,2.784,4.317,4.317,0,0,1-3.024.944,5.88,5.88,0,0,1-2.912-.656,1,1,0,0,1-.592-.848.865.865,0,0,1,.168-.56.538.538,0,0,1,.44-.208,1.113,1.113,0,0,1,.352.072q.208.072.432.168a9.172,9.172,0,0,0,1.032.368,3.888,3.888,0,0,0,1.048.128,1.832,1.832,0,0,0,2.1-2.048V16.4a2.443,2.443,0,0,1-1.024,1.016,3.2,3.2,0,0,1-1.536.36,3.391,3.391,0,0,1-1.816-.488,3.354,3.354,0,0,1-1.24-1.368,4.419,4.419,0,0,1-.448-2.032,4.537,4.537,0,0,1,.44-2.04,3.271,3.271,0,0,1,1.24-1.376,3.432,3.432,0,0,1,1.824-.488,3.2,3.2,0,0,1,1.536.36A2.443,2.443,0,0,1,18.5,11.36v-.416a.88.88,0,0,1,.272-.672A1.008,1.008,0,0,1,19.488,10.016Zm-3.024,6.208a1.866,1.866,0,0,0,1.5-.624,2.542,2.542,0,0,0,.536-1.712,2.568,2.568,0,0,0-.536-1.728,1.866,1.866,0,0,0-1.5-.624,1.872,1.872,0,0,0-1.488.624,2.543,2.543,0,0,0-.544,1.728,2.517,2.517,0,0,0,.544,1.712A1.872,1.872,0,0,0,16.464,16.224ZM28.72,10.016a1.03,1.03,0,0,1,.736.256.9.9,0,0,1,.272.688v6.208a.868.868,0,0,1-.28.672,1.037,1.037,0,0,1-.728.256.965.965,0,0,1-.688-.24.856.856,0,0,1-.256-.656v-.4a2.549,2.549,0,0,1-.992.984,2.867,2.867,0,0,1-1.408.344q-2.88,0-2.88-3.232V10.96a.9.9,0,0,1,.272-.688,1.008,1.008,0,0,1,.72-.256,1.03,1.03,0,0,1,.736.256.9.9,0,0,1,.272.688v3.952a1.888,1.888,0,0,0,.336,1.232,1.3,1.3,0,0,0,1.056.4,1.722,1.722,0,0,0,1.336-.552,2.087,2.087,0,0,0,.5-1.464V10.96A.9.9,0,0,1,28,10.272,1.008,1.008,0,0,1,28.72,10.016ZM32.8,18.1a1.034,1.034,0,0,1-.712-.248.9.9,0,0,1-.28-.712V10.96a.876.876,0,0,1,.28-.7,1.055,1.055,0,0,1,.712-.24,1.087,1.087,0,0,1,.72.24.864.864,0,0,1,.288.7v6.176a.888.888,0,0,1-.288.712A1.064,1.064,0,0,1,32.8,18.1Zm0-9.5a1.222,1.222,0,0,1-.864-.3,1.008,1.008,0,0,1-.32-.776.983.983,0,0,1,.32-.768,1.428,1.428,0,0,1,1.72,0,.971.971,0,0,1,.328.768,1.008,1.008,0,0,1-.32.776A1.222,1.222,0,0,1,32.8,8.592Zm9.264,7.264a.538.538,0,0,1,.44.208.865.865,0,0,1,.168.56.97.97,0,0,1-.592.832,5.349,5.349,0,0,1-1.232.488,5.079,5.079,0,0,1-1.312.184,4.077,4.077,0,0,1-2.992-1.088,3.988,3.988,0,0,1-1.1-2.976,4.566,4.566,0,0,1,.48-2.128,3.49,3.49,0,0,1,1.352-1.44,3.829,3.829,0,0,1,1.976-.512,3.546,3.546,0,0,1,1.84.464A3.146,3.146,0,0,1,42.3,11.76a4.354,4.354,0,0,1,.432,2q0,.688-.608.688h-4.72a2.517,2.517,0,0,0,.624,1.624,2.1,2.1,0,0,0,1.536.52,2.913,2.913,0,0,0,.9-.128,8.923,8.923,0,0,0,.888-.352A1.766,1.766,0,0,1,42.064,15.856ZM39.3,11.392a1.717,1.717,0,0,0-1.3.512,2.417,2.417,0,0,0-.584,1.472h3.616a2.281,2.281,0,0,0-.48-1.48A1.583,1.583,0,0,0,39.3,11.392Zm9.616-1.408a2.615,2.615,0,0,1,2.1.8A3.628,3.628,0,0,1,51.7,13.2v3.936a.935.935,0,0,1-.264.7,1,1,0,0,1-.728.256,1.03,1.03,0,0,1-.736-.256.92.92,0,0,1-.272-.7V13.312a2.074,2.074,0,0,0-.344-1.328,1.322,1.322,0,0,0-1.08-.416,1.826,1.826,0,0,0-1.384.544,2.019,2.019,0,0,0-.52,1.456v3.568a.92.92,0,0,1-.272.7,1.03,1.03,0,0,1-.736.256,1,1,0,0,1-.728-.256.935.935,0,0,1-.264-.7V10.944a.88.88,0,0,1,.272-.672,1.03,1.03,0,0,1,.736-.256.953.953,0,0,1,.68.248.848.848,0,0,1,.264.648v.432a2.706,2.706,0,0,1,1.072-1.008A3.226,3.226,0,0,1,48.912,9.984Zm8.88,6.624q.8.048.8.72a.651.651,0,0,1-.312.584,1.489,1.489,0,0,1-.888.168l-.432-.032a2.574,2.574,0,0,1-2.688-2.88V11.68h-.8a1.016,1.016,0,0,1-.664-.192.792.792,0,0,1,0-1.12,1.016,1.016,0,0,1,.664-.192h.8V8.7a.9.9,0,0,1,.272-.688,1.03,1.03,0,0,1,.736-.256,1.008,1.008,0,0,1,.72.256.9.9,0,0,1,.272.688v1.472h1.36a1.016,1.016,0,0,1,.664.192.792.792,0,0,1,0,1.12,1.016,1.016,0,0,1-.664.192h-1.36v3.632q0,1.184,1.088,1.264Zm8.032-.752a.538.538,0,0,1,.44.208.866.866,0,0,1,.168.56.97.97,0,0,1-.592.832,5.349,5.349,0,0,1-1.232.488,5.079,5.079,0,0,1-1.312.184A4.077,4.077,0,0,1,60.3,17.04a3.988,3.988,0,0,1-1.1-2.976,4.566,4.566,0,0,1,.48-2.128,3.49,3.49,0,0,1,1.352-1.44,3.829,3.829,0,0,1,1.976-.512,3.546,3.546,0,0,1,1.84.464,3.146,3.146,0,0,1,1.216,1.312,4.353,4.353,0,0,1,.432,2q0,.688-.608.688h-4.72a2.517,2.517,0,0,0,.624,1.624,2.1,2.1,0,0,0,1.536.52,2.913,2.913,0,0,0,.9-.128,8.923,8.923,0,0,0,.888-.352A1.766,1.766,0,0,1,65.824,15.856Zm-2.768-4.464a1.717,1.717,0,0,0-1.3.512,2.417,2.417,0,0,0-.584,1.472h3.616a2.281,2.281,0,0,0-.48-1.48A1.583,1.583,0,0,0,63.056,11.392Z" transform="translate(996 722)"/><path class="c" d="M-23.536-1.232a.985.985,0,0,1,.1.416.8.8,0,0,1-.3.624,1.009,1.009,0,0,1-.68.256.909.909,0,0,1-.48-.136A.907.907,0,0,1-25.248-.5l-.96-2.144H-31.84L-32.8-.5a.907.907,0,0,1-.352.424.937.937,0,0,1-.5.136,1.019,1.019,0,0,1-.672-.256.787.787,0,0,1-.3-.624.985.985,0,0,1,.1-.416l4.416-9.488a1.032,1.032,0,0,1,.44-.488,1.26,1.26,0,0,1,.632-.168,1.26,1.26,0,0,1,.632.168,1.032,1.032,0,0,1,.44.488ZM-26.912-4.24l-2.112-4.752L-31.136-4.24Zm-1.872-7.984a.568.568,0,0,1-.256.064.494.494,0,0,1-.352-.136.418.418,0,0,1-.144-.312.507.507,0,0,1,.176-.352l1.456-1.5a.928.928,0,0,1,.688-.32.754.754,0,0,1,.552.232.736.736,0,0,1,.232.536.682.682,0,0,1-.136.4,1.141,1.141,0,0,1-.408.336ZM-17.7-7.984a.861.861,0,0,1,.656.176.781.781,0,0,1,.24.624.872.872,0,0,1-.208.64,1.278,1.278,0,0,1-.752.272l-.48.048a1.944,1.944,0,0,0-1.384.64,2.093,2.093,0,0,0-.44,1.36v3.36a.888.888,0,0,1-.288.712,1.064,1.064,0,0,1-.72.248,1.034,1.034,0,0,1-.712-.248.9.9,0,0,1-.28-.712V-7.056a.856.856,0,0,1,.28-.688,1.032,1.032,0,0,1,.7-.24.962.962,0,0,1,.672.232.85.85,0,0,1,.256.664v.64a2.368,2.368,0,0,1,.9-1.088,2.771,2.771,0,0,1,1.336-.432ZM-9.9-2.144a.538.538,0,0,1,.44.208.865.865,0,0,1,.168.56.97.97,0,0,1-.592.832,5.349,5.349,0,0,1-1.232.488,5.079,5.079,0,0,1-1.312.184A4.077,4.077,0,0,1-15.424-.96a3.988,3.988,0,0,1-1.1-2.976,4.566,4.566,0,0,1,.48-2.128A3.49,3.49,0,0,1-14.7-7.5a3.829,3.829,0,0,1,1.976-.512,3.546,3.546,0,0,1,1.84.464A3.146,3.146,0,0,1-9.664-6.24a4.353,4.353,0,0,1,.432,2q0,.688-.608.688h-4.72a2.517,2.517,0,0,0,.624,1.624,2.1,2.1,0,0,0,1.536.52,2.913,2.913,0,0,0,.9-.128,8.923,8.923,0,0,0,.888-.352A1.766,1.766,0,0,1-9.9-2.144Zm-2.768-4.464a1.717,1.717,0,0,0-1.3.512,2.417,2.417,0,0,0-.584,1.472h3.616a2.281,2.281,0,0,0-.48-1.48A1.583,1.583,0,0,0-12.672-6.608Zm8.464-1.408a3.259,3.259,0,0,1,2.424.808A3.383,3.383,0,0,1-.992-4.752v3.9a.9.9,0,0,1-.256.68.969.969,0,0,1-.7.248.936.936,0,0,1-.68-.256A.894.894,0,0,1-2.9-.848V-1.2a2.088,2.088,0,0,1-.856.976A2.568,2.568,0,0,1-5.1.128a3.139,3.139,0,0,1-1.424-.32,2.533,2.533,0,0,1-1.008-.88A2.224,2.224,0,0,1-7.9-2.32a1.977,1.977,0,0,1,.44-1.36A2.644,2.644,0,0,1-6.032-4.4,13.041,13.041,0,0,1-3.3-4.624h.4v-.368a1.638,1.638,0,0,0-.336-1.144A1.43,1.43,0,0,0-4.32-6.5a3.452,3.452,0,0,0-.944.136q-.48.136-1.136.392a1.6,1.6,0,0,1-.608.208.6.6,0,0,1-.472-.208.791.791,0,0,1-.184-.544.819.819,0,0,1,.136-.472,1.291,1.291,0,0,1,.456-.376,5.215,5.215,0,0,1,1.336-.48A6.893,6.893,0,0,1-4.208-8.016Zm-.5,6.7a1.709,1.709,0,0,0,1.3-.536,1.939,1.939,0,0,0,.5-1.384v-.336h-.288a11.038,11.038,0,0,0-1.664.1,1.616,1.616,0,0,0-.848.336.856.856,0,0,0-.256.656,1.085,1.085,0,0,0,.36.84A1.27,1.27,0,0,0-4.7-1.312Zm-95.5,11.328a.861.861,0,0,1,.656.176.781.781,0,0,1,.24.624.872.872,0,0,1-.208.64,1.278,1.278,0,0,1-.752.272l-.48.048a1.944,1.944,0,0,0-1.384.64,2.093,2.093,0,0,0-.44,1.36v3.36a.888.888,0,0,1-.288.712,1.064,1.064,0,0,1-.72.248,1.034,1.034,0,0,1-.712-.248.9.9,0,0,1-.28-.712V10.944a.856.856,0,0,1,.28-.688,1.032,1.032,0,0,1,.7-.24.962.962,0,0,1,.672.232.85.85,0,0,1,.256.664v.64a2.368,2.368,0,0,1,.9-1.088,2.771,2.771,0,0,1,1.336-.432Zm7.792,5.84a.538.538,0,0,1,.44.208.866.866,0,0,1,.168.56.97.97,0,0,1-.592.832,5.349,5.349,0,0,1-1.232.488,5.079,5.079,0,0,1-1.312.184,4.077,4.077,0,0,1-2.992-1.088,3.988,3.988,0,0,1-1.1-2.976,4.566,4.566,0,0,1,.48-2.128,3.49,3.49,0,0,1,1.352-1.44,3.829,3.829,0,0,1,1.976-.512,3.546,3.546,0,0,1,1.84.464,3.146,3.146,0,0,1,1.216,1.312,4.353,4.353,0,0,1,.432,2q0,.688-.608.688h-4.72a2.517,2.517,0,0,0,.624,1.624,2.1,2.1,0,0,0,1.536.52,2.913,2.913,0,0,0,.9-.128,8.923,8.923,0,0,0,.888-.352A1.766,1.766,0,0,1-92.416,15.856Zm-2.768-4.464a1.717,1.717,0,0,0-1.3.512,2.417,2.417,0,0,0-.584,1.472h3.616a2.281,2.281,0,0,0-.48-1.48A1.583,1.583,0,0,0-95.184,11.392Zm9.568-1.408a3.243,3.243,0,0,1,1.8.512,3.4,3.4,0,0,1,1.232,1.448,5,5,0,0,1,.44,2.152,4.845,4.845,0,0,1-.44,2.128,3.333,3.333,0,0,1-1.224,1.408,3.309,3.309,0,0,1-1.808.5,3.1,3.1,0,0,1-1.488-.352,2.47,2.47,0,0,1-1.008-.976v3.264a.83.83,0,0,1-.272.656,1.048,1.048,0,0,1-.72.24,1.037,1.037,0,0,1-.728-.256.868.868,0,0,1-.28-.672V10.96a.914.914,0,0,1,.264-.688.979.979,0,0,1,.712-.256,1.008,1.008,0,0,1,.72.256.9.9,0,0,1,.272.688v.4a2.455,2.455,0,0,1,1.016-1.016A3.121,3.121,0,0,1-85.616,9.984Zm-.528,6.592a1.793,1.793,0,0,0,1.472-.648,2.829,2.829,0,0,0,.528-1.832,2.989,2.989,0,0,0-.528-1.888,1.766,1.766,0,0,0-1.472-.672,1.779,1.779,0,0,0-1.48.656,2.952,2.952,0,0,0-.52,1.872,2.923,2.923,0,0,0,.52,1.856A1.779,1.779,0,0,0-86.144,16.576Zm10.016-6.56a.861.861,0,0,1,.656.176.781.781,0,0,1,.24.624.872.872,0,0,1-.208.64,1.278,1.278,0,0,1-.752.272l-.48.048a1.944,1.944,0,0,0-1.384.64,2.093,2.093,0,0,0-.44,1.36v3.36a.888.888,0,0,1-.288.712,1.064,1.064,0,0,1-.72.248,1.034,1.034,0,0,1-.712-.248.9.9,0,0,1-.28-.712V10.944a.856.856,0,0,1,.28-.688,1.032,1.032,0,0,1,.7-.24.962.962,0,0,1,.672.232.85.85,0,0,1,.256.664v.64a2.368,2.368,0,0,1,.9-1.088,2.771,2.771,0,0,1,1.336-.432Zm7.792,5.84a.538.538,0,0,1,.44.208.866.866,0,0,1,.168.56.97.97,0,0,1-.592.832,5.349,5.349,0,0,1-1.232.488,5.079,5.079,0,0,1-1.312.184,4.077,4.077,0,0,1-2.992-1.088,3.988,3.988,0,0,1-1.1-2.976,4.566,4.566,0,0,1,.48-2.128,3.49,3.49,0,0,1,1.352-1.44,3.829,3.829,0,0,1,1.976-.512,3.546,3.546,0,0,1,1.84.464A3.146,3.146,0,0,1-68.1,11.76a4.353,4.353,0,0,1,.432,2q0,.688-.608.688h-4.72a2.517,2.517,0,0,0,.624,1.624,2.1,2.1,0,0,0,1.536.52,2.913,2.913,0,0,0,.9-.128,8.923,8.923,0,0,0,.888-.352A1.766,1.766,0,0,1-68.336,15.856ZM-71.1,11.392a1.717,1.717,0,0,0-1.3.512,2.417,2.417,0,0,0-.584,1.472h3.616a2.281,2.281,0,0,0-.48-1.48A1.583,1.583,0,0,0-71.1,11.392Zm7.9,6.736a5.144,5.144,0,0,1-2.816-.688.954.954,0,0,1-.512-.864.758.758,0,0,1,.176-.52.554.554,0,0,1,.432-.2,1.767,1.767,0,0,1,.752.256,7,7,0,0,0,.936.368,3.812,3.812,0,0,0,1.08.128,2.054,2.054,0,0,0,1.048-.224.694.694,0,0,0,.376-.624.6.6,0,0,0-.152-.432,1.394,1.394,0,0,0-.544-.3,11.439,11.439,0,0,0-1.192-.312,4.58,4.58,0,0,1-2.04-.816,1.816,1.816,0,0,1-.616-1.456,2.1,2.1,0,0,1,.416-1.272,2.7,2.7,0,0,1,1.144-.88,4.168,4.168,0,0,1,1.656-.312,4.963,4.963,0,0,1,1.3.168,3.94,3.94,0,0,1,1.12.488.966.966,0,0,1,.512.848.821.821,0,0,1-.176.536.538.538,0,0,1-.432.216.865.865,0,0,1-.344-.072,4.616,4.616,0,0,1-.424-.216,6.709,6.709,0,0,0-.8-.36,2.5,2.5,0,0,0-.832-.12,1.611,1.611,0,0,0-.936.24.758.758,0,0,0-.344.656.666.666,0,0,0,.352.608,5.041,5.041,0,0,0,1.36.416,7.76,7.76,0,0,1,1.68.512,1.968,1.968,0,0,1,.872.72,2.089,2.089,0,0,1,.264,1.1,2.052,2.052,0,0,1-.9,1.744A4.013,4.013,0,0,1-63.2,18.128Zm11.12-2.272a.538.538,0,0,1,.44.208.865.865,0,0,1,.168.56.97.97,0,0,1-.592.832,5.349,5.349,0,0,1-1.232.488,5.079,5.079,0,0,1-1.312.184A4.077,4.077,0,0,1-57.6,17.04a3.988,3.988,0,0,1-1.1-2.976,4.566,4.566,0,0,1,.48-2.128,3.49,3.49,0,0,1,1.352-1.44A3.829,3.829,0,0,1-54.9,9.984a3.546,3.546,0,0,1,1.84.464A3.146,3.146,0,0,1-51.84,11.76a4.354,4.354,0,0,1,.432,2q0,.688-.608.688h-4.72a2.517,2.517,0,0,0,.624,1.624,2.1,2.1,0,0,0,1.536.52,2.913,2.913,0,0,0,.9-.128,8.923,8.923,0,0,0,.888-.352A1.766,1.766,0,0,1-52.08,15.856Zm-2.768-4.464a1.717,1.717,0,0,0-1.3.512,2.417,2.417,0,0,0-.584,1.472h3.616a2.281,2.281,0,0,0-.48-1.48A1.583,1.583,0,0,0-54.848,11.392Zm9.616-1.408a2.615,2.615,0,0,1,2.1.8,3.628,3.628,0,0,1,.688,2.416v3.936a.935.935,0,0,1-.264.7,1,1,0,0,1-.728.256,1.03,1.03,0,0,1-.736-.256.92.92,0,0,1-.272-.7V13.312a2.074,2.074,0,0,0-.344-1.328,1.322,1.322,0,0,0-1.08-.416,1.826,1.826,0,0,0-1.384.544,2.019,2.019,0,0,0-.52,1.456v3.568a.92.92,0,0,1-.272.7,1.03,1.03,0,0,1-.736.256,1,1,0,0,1-.728-.256.935.935,0,0,1-.264-.7V10.944a.88.88,0,0,1,.272-.672,1.03,1.03,0,0,1,.736-.256.953.953,0,0,1,.68.248.848.848,0,0,1,.264.648v.432a2.706,2.706,0,0,1,1.072-1.008A3.226,3.226,0,0,1-45.232,9.984Zm8.88,6.624q.8.048.8.72a.651.651,0,0,1-.312.584,1.489,1.489,0,0,1-.888.168l-.432-.032a2.574,2.574,0,0,1-2.688-2.88V11.68h-.8a1.016,1.016,0,0,1-.664-.192.685.685,0,0,1-.232-.56.685.685,0,0,1,.232-.56,1.016,1.016,0,0,1,.664-.192h.8V8.7a.9.9,0,0,1,.272-.688,1.03,1.03,0,0,1,.736-.256,1.008,1.008,0,0,1,.72.256.9.9,0,0,1,.272.688v1.472h1.36a1.016,1.016,0,0,1,.664.192.685.685,0,0,1,.232.56.685.685,0,0,1-.232.56,1.016,1.016,0,0,1-.664.192h-1.36v3.632q0,1.184,1.088,1.264Zm5.232-6.624a3.259,3.259,0,0,1,2.424.808,3.383,3.383,0,0,1,.792,2.456v3.9a.9.9,0,0,1-.256.68.969.969,0,0,1-.7.248.936.936,0,0,1-.68-.256.894.894,0,0,1-.264-.672V16.8a2.088,2.088,0,0,1-.856.976,2.568,2.568,0,0,1-1.352.352,3.139,3.139,0,0,1-1.424-.32,2.533,2.533,0,0,1-1.008-.88,2.224,2.224,0,0,1-.368-1.248,1.977,1.977,0,0,1,.44-1.36,2.644,2.644,0,0,1,1.432-.72,13.041,13.041,0,0,1,2.736-.224h.4v-.368a1.638,1.638,0,0,0-.336-1.144,1.43,1.43,0,0,0-1.088-.36,3.452,3.452,0,0,0-.944.136q-.48.136-1.136.392a1.6,1.6,0,0,1-.608.208.6.6,0,0,1-.472-.208.791.791,0,0,1-.184-.544.819.819,0,0,1,.136-.472,1.291,1.291,0,0,1,.456-.376,5.215,5.215,0,0,1,1.336-.48A6.893,6.893,0,0,1-31.12,9.984Zm-.5,6.7a1.709,1.709,0,0,0,1.3-.536,1.939,1.939,0,0,0,.5-1.384v-.336H-30.1a11.038,11.038,0,0,0-1.664.1,1.616,1.616,0,0,0-.848.336.856.856,0,0,0-.256.656,1.085,1.085,0,0,0,.36.84A1.27,1.27,0,0,0-31.616,16.688Zm9.808-.08q.8.048.8.72a.651.651,0,0,1-.312.584,1.489,1.489,0,0,1-.888.168l-.432-.032a2.574,2.574,0,0,1-2.688-2.88V11.68h-.8a1.016,1.016,0,0,1-.664-.192.685.685,0,0,1-.232-.56.685.685,0,0,1,.232-.56,1.016,1.016,0,0,1,.664-.192h.8V8.7a.9.9,0,0,1,.272-.688,1.03,1.03,0,0,1,.736-.256,1.008,1.008,0,0,1,.72.256.9.9,0,0,1,.272.688v1.472h1.36a1.016,1.016,0,0,1,.664.192.685.685,0,0,1,.232.56.685.685,0,0,1-.232.56,1.016,1.016,0,0,1-.664.192h-1.36v3.632q0,1.184,1.088,1.264Zm2.832,1.488a1.034,1.034,0,0,1-.712-.248.9.9,0,0,1-.28-.712V10.96a.876.876,0,0,1,.28-.7,1.055,1.055,0,0,1,.712-.24,1.087,1.087,0,0,1,.72.24.864.864,0,0,1,.288.7v6.176a.888.888,0,0,1-.288.712A1.064,1.064,0,0,1-18.976,18.1Zm0-9.5a1.222,1.222,0,0,1-.864-.3,1.008,1.008,0,0,1-.32-.776.983.983,0,0,1,.32-.768,1.243,1.243,0,0,1,.864-.288,1.25,1.25,0,0,1,.856.288.971.971,0,0,1,.328.768,1.008,1.008,0,0,1-.32.776A1.222,1.222,0,0,1-18.976,8.592Zm8.528,2a.979.979,0,0,1,.344-.432.834.834,0,0,1,.472-.144,1.007,1.007,0,0,1,.664.248.772.772,0,0,1,.3.616.852.852,0,0,1-.1.384l-2.96,6.192a1.053,1.053,0,0,1-.408.464,1.105,1.105,0,0,1-.584.16,1.161,1.161,0,0,1-.584-.16,1.025,1.025,0,0,1-.424-.464L-16.7,11.264a.812.812,0,0,1-.08-.368.78.78,0,0,1,.312-.624,1.091,1.091,0,0,1,.712-.256.892.892,0,0,1,.848.56l2.24,4.944Zm6.24-.608a3.259,3.259,0,0,1,2.424.808,3.383,3.383,0,0,1,.792,2.456v3.9a.9.9,0,0,1-.256.68.969.969,0,0,1-.7.248.936.936,0,0,1-.68-.256.894.894,0,0,1-.264-.672V16.8a2.088,2.088,0,0,1-.856.976,2.568,2.568,0,0,1-1.352.352,3.139,3.139,0,0,1-1.424-.32,2.533,2.533,0,0,1-1.008-.88A2.224,2.224,0,0,1-7.9,15.68a1.977,1.977,0,0,1,.44-1.36,2.644,2.644,0,0,1,1.432-.72A13.041,13.041,0,0,1-3.3,13.376h.4v-.368a1.638,1.638,0,0,0-.336-1.144A1.43,1.43,0,0,0-4.32,11.5a3.452,3.452,0,0,0-.944.136q-.48.136-1.136.392a1.6,1.6,0,0,1-.608.208.6.6,0,0,1-.472-.208.791.791,0,0,1-.184-.544.819.819,0,0,1,.136-.472,1.291,1.291,0,0,1,.456-.376,5.215,5.215,0,0,1,1.336-.48A6.893,6.893,0,0,1-4.208,9.984Zm-.5,6.7a1.709,1.709,0,0,0,1.3-.536,1.939,1.939,0,0,0,.5-1.384v-.336h-.288a11.038,11.038,0,0,0-1.664.1,1.616,1.616,0,0,0-.848.336.856.856,0,0,0-.256.656,1.085,1.085,0,0,0,.36.84A1.27,1.27,0,0,0-4.7,16.688Z" transform="translate(681 754)"/><path class="c" d="M2.24.1A1.006,1.006,0,0,1,1.5-.184a1.027,1.027,0,0,1-.28-.76V-10.3a.956.956,0,0,1,.264-.72,1,1,0,0,1,.728-.256H6.144a4.07,4.07,0,0,1,2.816.9A3.231,3.231,0,0,1,9.968-7.84,3.256,3.256,0,0,1,8.96-5.3a4.047,4.047,0,0,1-2.816.912H3.28v3.44A1.027,1.027,0,0,1,3-.184,1.027,1.027,0,0,1,2.24.1ZM5.888-5.968q2.128,0,2.128-1.856T5.888-9.68H3.28v3.712Zm8.9-2.048a3.259,3.259,0,0,1,2.424.808A3.383,3.383,0,0,1,18-4.752v3.9a.9.9,0,0,1-.256.68.969.969,0,0,1-.7.248.936.936,0,0,1-.68-.256A.894.894,0,0,1,16.1-.848V-1.2a2.088,2.088,0,0,1-.856.976,2.568,2.568,0,0,1-1.352.352,3.139,3.139,0,0,1-1.424-.32,2.533,2.533,0,0,1-1.008-.88,2.224,2.224,0,0,1-.368-1.248,1.977,1.977,0,0,1,.44-1.36A2.644,2.644,0,0,1,12.96-4.4,13.041,13.041,0,0,1,15.7-4.624h.4v-.368a1.638,1.638,0,0,0-.336-1.144,1.43,1.43,0,0,0-1.088-.36,3.452,3.452,0,0,0-.944.136q-.48.136-1.136.392a1.6,1.6,0,0,1-.608.208.6.6,0,0,1-.472-.208.791.791,0,0,1-.184-.544.819.819,0,0,1,.136-.472,1.291,1.291,0,0,1,.456-.376,5.215,5.215,0,0,1,1.336-.48A6.893,6.893,0,0,1,14.784-8.016Zm-.5,6.7a1.709,1.709,0,0,0,1.3-.536,1.939,1.939,0,0,0,.5-1.384v-.336h-.288a11.038,11.038,0,0,0-1.664.1,1.616,1.616,0,0,0-.848.336.856.856,0,0,0-.256.656,1.085,1.085,0,0,0,.36.84A1.27,1.27,0,0,0,14.288-1.312ZM22.864.128A5.144,5.144,0,0,1,20.048-.56a.954.954,0,0,1-.512-.864.758.758,0,0,1,.176-.52.554.554,0,0,1,.432-.2,1.767,1.767,0,0,1,.752.256,7,7,0,0,0,.936.368,3.812,3.812,0,0,0,1.08.128,2.054,2.054,0,0,0,1.048-.224.694.694,0,0,0,.376-.624.6.6,0,0,0-.152-.432,1.394,1.394,0,0,0-.544-.3,11.44,11.44,0,0,0-1.192-.312,4.58,4.58,0,0,1-2.04-.816,1.816,1.816,0,0,1-.616-1.456,2.1,2.1,0,0,1,.416-1.272,2.7,2.7,0,0,1,1.144-.88,4.168,4.168,0,0,1,1.656-.312,4.963,4.963,0,0,1,1.3.168,3.94,3.94,0,0,1,1.12.488.966.966,0,0,1,.512.848.821.821,0,0,1-.176.536.538.538,0,0,1-.432.216.865.865,0,0,1-.344-.072,4.616,4.616,0,0,1-.424-.216,6.709,6.709,0,0,0-.8-.36,2.5,2.5,0,0,0-.832-.12,1.611,1.611,0,0,0-.936.24.758.758,0,0,0-.344.656A.666.666,0,0,0,22-5.024a5.041,5.041,0,0,0,1.36.416,7.76,7.76,0,0,1,1.68.512,1.968,1.968,0,0,1,.872.72,2.089,2.089,0,0,1,.264,1.1,2.052,2.052,0,0,1-.9,1.744A4.013,4.013,0,0,1,22.864.128Zm8.5,0a4.3,4.3,0,0,1-2.1-.5,3.432,3.432,0,0,1-1.4-1.424,4.515,4.515,0,0,1-.5-2.16,4.468,4.468,0,0,1,.5-2.152,3.444,3.444,0,0,1,1.4-1.416,4.3,4.3,0,0,1,2.1-.5,4.3,4.3,0,0,1,2.1.5A3.394,3.394,0,0,1,34.856-6.1a4.527,4.527,0,0,1,.488,2.152,4.575,4.575,0,0,1-.488,2.16A3.382,3.382,0,0,1,33.464-.368,4.3,4.3,0,0,1,31.36.128Zm-.016-1.552a1.793,1.793,0,0,0,1.488-.64,2.973,2.973,0,0,0,.512-1.888,2.979,2.979,0,0,0-.512-1.88A1.765,1.765,0,0,0,31.36-6.48a1.788,1.788,0,0,0-1.48.648,2.946,2.946,0,0,0-.52,1.88,2.973,2.973,0,0,0,.512,1.888A1.775,1.775,0,0,0,31.344-1.424ZM39.824.128A5.144,5.144,0,0,1,37.008-.56a.954.954,0,0,1-.512-.864.758.758,0,0,1,.176-.52.554.554,0,0,1,.432-.2,1.767,1.767,0,0,1,.752.256,7,7,0,0,0,.936.368,3.812,3.812,0,0,0,1.08.128,2.054,2.054,0,0,0,1.048-.224A.694.694,0,0,0,41.3-2.24a.6.6,0,0,0-.152-.432,1.394,1.394,0,0,0-.544-.3,11.44,11.44,0,0,0-1.192-.312,4.58,4.58,0,0,1-2.04-.816,1.816,1.816,0,0,1-.616-1.456,2.1,2.1,0,0,1,.416-1.272,2.7,2.7,0,0,1,1.144-.88,4.168,4.168,0,0,1,1.656-.312,4.963,4.963,0,0,1,1.3.168,3.94,3.94,0,0,1,1.12.488.966.966,0,0,1,.512.848.821.821,0,0,1-.176.536.538.538,0,0,1-.432.216.865.865,0,0,1-.344-.072,4.616,4.616,0,0,1-.424-.216,6.709,6.709,0,0,0-.8-.36,2.5,2.5,0,0,0-.832-.12,1.611,1.611,0,0,0-.936.24.758.758,0,0,0-.344.656.666.666,0,0,0,.352.608,5.041,5.041,0,0,0,1.36.416A7.76,7.76,0,0,1,42-4.1a1.968,1.968,0,0,1,.872.72,2.089,2.089,0,0,1,.264,1.1,2.052,2.052,0,0,1-.9,1.744A4.013,4.013,0,0,1,39.824.128ZM53.04-9.792a1.456,1.456,0,0,0-1.072.448,1.746,1.746,0,0,0-.336,1.152v.368h1.36q.9,0,.9.752t-.9.752h-1.36V-.864a.876.876,0,0,1-.28.7,1.055,1.055,0,0,1-.712.24,1.087,1.087,0,0,1-.72-.24.864.864,0,0,1-.288-.7V-6.32h-.8q-.9,0-.9-.752t.9-.752h.8v-.112a3.341,3.341,0,0,1,.792-2.36,3.254,3.254,0,0,1,2.232-.968l.416-.032a1.453,1.453,0,0,1,.9.136.645.645,0,0,1,.264.568q0,.688-.784.768Zm5.088,1.776a3.259,3.259,0,0,1,2.424.808,3.383,3.383,0,0,1,.792,2.456v3.9a.9.9,0,0,1-.256.68.969.969,0,0,1-.7.248.936.936,0,0,1-.68-.256.894.894,0,0,1-.264-.672V-1.2a2.088,2.088,0,0,1-.856.976,2.568,2.568,0,0,1-1.352.352,3.139,3.139,0,0,1-1.424-.32,2.533,2.533,0,0,1-1.008-.88,2.224,2.224,0,0,1-.368-1.248,1.977,1.977,0,0,1,.44-1.36A2.644,2.644,0,0,1,56.3-4.4a13.041,13.041,0,0,1,2.736-.224h.4v-.368A1.638,1.638,0,0,0,59.1-6.136a1.43,1.43,0,0,0-1.088-.36,3.452,3.452,0,0,0-.944.136q-.48.136-1.136.392a1.6,1.6,0,0,1-.608.208.6.6,0,0,1-.472-.208.791.791,0,0,1-.184-.544.819.819,0,0,1,.136-.472,1.291,1.291,0,0,1,.456-.376A5.215,5.215,0,0,1,56.6-7.84,6.893,6.893,0,0,1,58.128-8.016Zm-.5,6.7a1.709,1.709,0,0,0,1.3-.536,1.939,1.939,0,0,0,.5-1.384v-.336h-.288a11.038,11.038,0,0,0-1.664.1,1.616,1.616,0,0,0-.848.336.856.856,0,0,0-.256.656,1.085,1.085,0,0,0,.36.84A1.27,1.27,0,0,0,57.632-1.312ZM64.368.1a1.034,1.034,0,0,1-.712-.248.9.9,0,0,1-.28-.712v-9.552a.876.876,0,0,1,.28-.7,1.055,1.055,0,0,1,.712-.24,1.087,1.087,0,0,1,.72.24.864.864,0,0,1,.288.7V-.864a.888.888,0,0,1-.288.712A1.064,1.064,0,0,1,64.368.1ZM71.5-1.392q.8.048.8.72a.651.651,0,0,1-.312.584A1.489,1.489,0,0,1,71.1.08L70.672.048a2.574,2.574,0,0,1-2.688-2.88V-6.32h-.8a1.016,1.016,0,0,1-.664-.192.685.685,0,0,1-.232-.56.685.685,0,0,1,.232-.56,1.016,1.016,0,0,1,.664-.192h.8V-9.3a.9.9,0,0,1,.272-.688,1.03,1.03,0,0,1,.736-.256,1.008,1.008,0,0,1,.72.256.9.9,0,0,1,.272.688v1.472h1.36a1.016,1.016,0,0,1,.664.192.685.685,0,0,1,.232.56.685.685,0,0,1-.232.56,1.016,1.016,0,0,1-.664.192h-1.36v3.632q0,1.184,1.088,1.264Zm5.232-6.624a3.259,3.259,0,0,1,2.424.808,3.383,3.383,0,0,1,.792,2.456v3.9a.9.9,0,0,1-.256.68.969.969,0,0,1-.7.248.936.936,0,0,1-.68-.256.894.894,0,0,1-.264-.672V-1.2a2.088,2.088,0,0,1-.856.976A2.568,2.568,0,0,1,75.84.128a3.139,3.139,0,0,1-1.424-.32,2.533,2.533,0,0,1-1.008-.88A2.224,2.224,0,0,1,73.04-2.32a1.977,1.977,0,0,1,.44-1.36,2.644,2.644,0,0,1,1.432-.72,13.041,13.041,0,0,1,2.736-.224h.4v-.368a1.638,1.638,0,0,0-.336-1.144,1.43,1.43,0,0,0-1.088-.36,3.452,3.452,0,0,0-.944.136q-.48.136-1.136.392a1.6,1.6,0,0,1-.608.208.6.6,0,0,1-.472-.208.791.791,0,0,1-.184-.544.819.819,0,0,1,.136-.472,1.291,1.291,0,0,1,.456-.376,5.215,5.215,0,0,1,1.336-.48A6.893,6.893,0,0,1,76.736-8.016Zm-.5,6.7a1.709,1.709,0,0,0,1.3-.536,1.939,1.939,0,0,0,.5-1.384v-.336H77.76a11.038,11.038,0,0,0-1.664.1,1.615,1.615,0,0,0-.848.336.856.856,0,0,0-.256.656,1.085,1.085,0,0,0,.36.84A1.27,1.27,0,0,0,76.24-1.312Zm10.288-6.7a2.615,2.615,0,0,1,2.1.8A3.628,3.628,0,0,1,89.312-4.8V-.864a.935.935,0,0,1-.264.7A1,1,0,0,1,88.32.1a1.03,1.03,0,0,1-.736-.256.92.92,0,0,1-.272-.7V-4.688a2.074,2.074,0,0,0-.344-1.328,1.322,1.322,0,0,0-1.08-.416,1.826,1.826,0,0,0-1.384.544,2.019,2.019,0,0,0-.52,1.456V-.864a.92.92,0,0,1-.272.7A1.03,1.03,0,0,1,82.976.1a1,1,0,0,1-.728-.256.935.935,0,0,1-.264-.7V-7.056a.88.88,0,0,1,.272-.672,1.03,1.03,0,0,1,.736-.256.953.953,0,0,1,.68.248.848.848,0,0,1,.264.648v.432a2.706,2.706,0,0,1,1.072-1.008A3.226,3.226,0,0,1,86.528-8.016Zm8.88,6.624q.8.048.8.72a.651.651,0,0,1-.312.584,1.489,1.489,0,0,1-.888.168L94.576.048a2.574,2.574,0,0,1-2.688-2.88V-6.32h-.8a1.016,1.016,0,0,1-.664-.192.685.685,0,0,1-.232-.56.685.685,0,0,1,.232-.56,1.016,1.016,0,0,1,.664-.192h.8V-9.3a.9.9,0,0,1,.272-.688,1.03,1.03,0,0,1,.736-.256,1.008,1.008,0,0,1,.72.256.9.9,0,0,1,.272.688v1.472h1.36a1.016,1.016,0,0,1,.664.192.685.685,0,0,1,.232.56.685.685,0,0,1-.232.56,1.016,1.016,0,0,1-.664.192h-1.36v3.632q0,1.184,1.088,1.264Zm8.032-.752a.538.538,0,0,1,.44.208.866.866,0,0,1,.168.56.97.97,0,0,1-.592.832,5.349,5.349,0,0,1-1.232.488,5.079,5.079,0,0,1-1.312.184A4.077,4.077,0,0,1,97.92-.96a3.988,3.988,0,0,1-1.1-2.976,4.566,4.566,0,0,1,.48-2.128A3.49,3.49,0,0,1,98.648-7.5a3.829,3.829,0,0,1,1.976-.512,3.546,3.546,0,0,1,1.84.464A3.146,3.146,0,0,1,103.68-6.24a4.353,4.353,0,0,1,.432,2q0,.688-.608.688h-4.72a2.517,2.517,0,0,0,.624,1.624,2.1,2.1,0,0,0,1.536.52,2.913,2.913,0,0,0,.9-.128,8.923,8.923,0,0,0,.888-.352A1.766,1.766,0,0,1,103.44-2.144Zm-2.768-4.464a1.717,1.717,0,0,0-1.3.512,2.417,2.417,0,0,0-.584,1.472H102.4a2.281,2.281,0,0,0-.48-1.48A1.583,1.583,0,0,0,100.672-6.608Zm7.9,6.736A5.144,5.144,0,0,1,105.76-.56a.954.954,0,0,1-.512-.864.758.758,0,0,1,.176-.52.554.554,0,0,1,.432-.2,1.767,1.767,0,0,1,.752.256,7,7,0,0,0,.936.368,3.812,3.812,0,0,0,1.08.128,2.054,2.054,0,0,0,1.048-.224.694.694,0,0,0,.376-.624.6.6,0,0,0-.152-.432,1.394,1.394,0,0,0-.544-.3,11.44,11.44,0,0,0-1.192-.312,4.58,4.58,0,0,1-2.04-.816,1.816,1.816,0,0,1-.616-1.456,2.1,2.1,0,0,1,.416-1.272,2.7,2.7,0,0,1,1.144-.88,4.168,4.168,0,0,1,1.656-.312,4.963,4.963,0,0,1,1.3.168,3.94,3.94,0,0,1,1.12.488.966.966,0,0,1,.512.848.821.821,0,0,1-.176.536.538.538,0,0,1-.432.216.865.865,0,0,1-.344-.072,4.615,4.615,0,0,1-.424-.216,6.709,6.709,0,0,0-.8-.36,2.5,2.5,0,0,0-.832-.12,1.611,1.611,0,0,0-.936.24.758.758,0,0,0-.344.656.666.666,0,0,0,.352.608,5.041,5.041,0,0,0,1.36.416,7.759,7.759,0,0,1,1.68.512,1.968,1.968,0,0,1,.872.72,2.089,2.089,0,0,1,.264,1.1,2.052,2.052,0,0,1-.9,1.744A4.013,4.013,0,0,1,108.576.128Z" transform="translate(757 792.002)"/><line class="e" x2="37.463" transform="translate(697 666.213) rotate(90)"/><path class="e" d="M0,0V3.033" transform="translate(697 703.676) rotate(-90)"/><path class="e" d="M0,0V3.033" transform="translate(697.001 665.999) rotate(-90)"/><line class="e" x2="21.788" transform="translate(980 727.787) rotate(-90)"/><path class="e" d="M0,0V3.033" transform="translate(980 706) rotate(90)"/><path class="e" d="M0,0V3.033" transform="translate(979.999 728.001) rotate(90)"/><line class="e" x2="9.788" transform="translate(697 744.213) rotate(90)"/><path class="e" d="M0,0V3.033" transform="translate(697 754) rotate(-90)"/><path class="e" d="M0,0V3.033" transform="translate(697.001 743.999) rotate(-90)"/><line class="e" x2="68.751" transform="translate(758.214 768.518)"/><path class="e" d="M0,0V3.033" transform="translate(826.966 768.518) rotate(180)"/><path class="e" d="M0,0V3.033" transform="translate(758.001 768.517) rotate(180)"/><g class="f" transform="translate(716 704) rotate(-90)"><rect class="g" width="38" height="144.966"/><rect class="h" x="0.5" y="0.5" width="37" height="143.966"/></g><g class="f" transform="translate(716 728) rotate(-90)"><rect class="g" width="22" height="244.966"/><rect class="h" x="0.5" y="0.5" width="21" height="243.966"/></g><g class="f" transform="translate(716 754) rotate(-90)"><rect class="g" width="10" height="25.966"/><rect class="h" x="0.5" y="0.5" width="9" height="24.966"/></g><g class="f" transform="translate(757.932 758) rotate(-90)"><rect class="g" width="18" height="69.034"/><rect class="h" x="0.5" y="0.5" width="17" height="68.034"/></g></g></svg>