<svg xmlns="http://www.w3.org/2000/svg" width="713" height="306.87" viewBox="0 0 713 306.87"><defs><style>.a{fill:#f3f6f9;}.b,.f{fill:#e6ebf0;}.c{fill:#007bc7;}.c,.i{opacity:0.24;}.d,.h,.j,.l{fill:none;}.d{stroke:#007bc7;}.d,.j{stroke-dasharray:5 2;}.e,.g,.i{fill:#38485c;}.e,.f{opacity:0.5;}.f,.h,.j{stroke:#38485c;}.h{stroke-linecap:round;}.k{stroke:none;}</style></defs><g transform="translate(-512.5 -1610)"><path class="a" d="M4,0H708c2.209,0,4,1.088,4,2.431V304.439c0,1.342-1.791,2.431-4,2.431H4c-2.209,0-4-1.088-4-2.431V2.431C0,1.088,1.791,0,4,0Z" transform="translate(513 1610)"/><path class="b" d="M0,0H712V184H0Z" transform="translate(513 1674)"/><g transform="translate(654 1674) rotate(90)"><rect class="c" width="141" height="184" transform="translate(184) rotate(90)"/><path class="d" d="M0,184V0" transform="translate(183.995 140.337) rotate(90)"/><path class="d" d="M0,184V0" transform="translate(183.995) rotate(90)"/></g><g transform="translate(1225 1674) rotate(90)"><rect class="c" width="327" height="184" transform="translate(184) rotate(90)"/><path class="d" d="M0,184V0" transform="translate(183.995 326.5) rotate(90)"/><path class="d" d="M0,184V0" transform="translate(183.995) rotate(90)"/></g><path class="e" d="M7.16-6.576A2.6,2.6,0,0,1,6.2-4.408a4.356,4.356,0,0,1-2.752.759H2.355V0H1.276V-9.28H3.682Q7.16-9.28,7.16-6.576Zm-4.805,2h.971A3.609,3.609,0,0,0,5.4-5.04a1.708,1.708,0,0,0,.641-1.485A1.6,1.6,0,0,0,5.44-7.9a3.15,3.15,0,0,0-1.879-.451H2.355ZM13.222,0l-.209-.99h-.051A2.927,2.927,0,0,1,11.924-.1a3.163,3.163,0,0,1-1.292.232A2.324,2.324,0,0,1,9.01-.406a1.945,1.945,0,0,1-.587-1.517q0-2.107,3.371-2.209l1.181-.038V-4.6a1.764,1.764,0,0,0-.352-1.209A1.449,1.449,0,0,0,11.5-6.2a4.591,4.591,0,0,0-1.968.533L9.2-6.475a4.952,4.952,0,0,1,1.127-.438,4.88,4.88,0,0,1,1.228-.159,2.65,2.65,0,0,1,1.844.552A2.305,2.305,0,0,1,14-4.748V0Zm-2.38-.743a2.139,2.139,0,0,0,1.546-.54,2,2,0,0,0,.562-1.511v-.628L11.9-3.377a3.833,3.833,0,0,0-1.812.39,1.177,1.177,0,0,0-.555,1.076,1.086,1.086,0,0,0,.346.87A1.436,1.436,0,0,0,10.842-.743ZM20.662-1.9a1.743,1.743,0,0,1-.724,1.5,3.4,3.4,0,0,1-2.031.527,4.417,4.417,0,0,1-2.158-.438v-.978a5.219,5.219,0,0,0,1.076.4,4.493,4.493,0,0,0,1.108.146,2.512,2.512,0,0,0,1.27-.263.871.871,0,0,0,.444-.8.872.872,0,0,0-.352-.7,5.542,5.542,0,0,0-1.374-.682,7.452,7.452,0,0,1-1.381-.632,1.886,1.886,0,0,1-.609-.613,1.6,1.6,0,0,1-.2-.819,1.561,1.561,0,0,1,.692-1.343,3.224,3.224,0,0,1,1.9-.492,5.553,5.553,0,0,1,2.2.457l-.375.857a5.041,5.041,0,0,0-1.9-.432,2.184,2.184,0,0,0-1.13.235.726.726,0,0,0-.381.647.789.789,0,0,0,.143.476,1.409,1.409,0,0,0,.46.375,10.284,10.284,0,0,0,1.219.514,4.553,4.553,0,0,1,1.673.908A1.6,1.6,0,0,1,20.662-1.9ZM28.38-3.485a3.838,3.838,0,0,1-.857,2.656,3.018,3.018,0,0,1-2.368.955A3.136,3.136,0,0,1,23.5-.311a2.891,2.891,0,0,1-1.117-1.257,4.38,4.38,0,0,1-.394-1.917,3.832,3.832,0,0,1,.851-2.65A3.008,3.008,0,0,1,25.2-7.084a2.943,2.943,0,0,1,2.32.971A3.821,3.821,0,0,1,28.38-3.485Zm-5.3,0a3.3,3.3,0,0,0,.533,2.031,1.851,1.851,0,0,0,1.568.7,1.863,1.863,0,0,0,1.571-.7,3.285,3.285,0,0,0,.536-2.034A3.232,3.232,0,0,0,26.752-5.5a1.885,1.885,0,0,0-1.584-.689,1.855,1.855,0,0,0-1.562.679A3.269,3.269,0,0,0,23.08-3.485ZM38.873-7.1a2.116,2.116,0,0,1-.5,1.454,2.5,2.5,0,0,1-1.412.755v.051a2.656,2.656,0,0,1,1.657.711,2.093,2.093,0,0,1,.54,1.5,2.43,2.43,0,0,1-.92,2.041,4.186,4.186,0,0,1-2.615.714A7.579,7.579,0,0,1,34.274.016a4.616,4.616,0,0,1-1.19-.39v-1a5.787,5.787,0,0,0,1.285.454,5.821,5.821,0,0,0,1.292.156q2.406,0,2.406-1.885,0-1.688-2.653-1.688H34.5V-5.25h.927a2.79,2.79,0,0,0,1.72-.479,1.573,1.573,0,0,0,.635-1.33,1.311,1.311,0,0,0-.467-1.066,1.922,1.922,0,0,0-1.266-.387,3.907,3.907,0,0,0-1.149.165,5.142,5.142,0,0,0-1.231.609l-.533-.711a4.445,4.445,0,0,1,1.317-.708,4.787,4.787,0,0,1,1.571-.257,3.21,3.21,0,0,1,2.1.619A2.084,2.084,0,0,1,38.873-7.1ZM49.15-.933h-.057A2.476,2.476,0,0,1,46.909.127a2.583,2.583,0,0,1-2.123-.933,4.107,4.107,0,0,1-.759-2.653,4.177,4.177,0,0,1,.762-2.672,2.563,2.563,0,0,1,2.12-.952A2.53,2.53,0,0,1,49.08-6.056h.083l-.044-.5-.025-.489V-9.877h1.054V0H49.29Zm-2.107.178a1.918,1.918,0,0,0,1.565-.587,2.967,2.967,0,0,0,.486-1.895v-.222A3.491,3.491,0,0,0,48.6-5.57,1.868,1.868,0,0,0,47.03-6.2a1.613,1.613,0,0,0-1.419.72,3.582,3.582,0,0,0-.492,2.034,3.434,3.434,0,0,0,.489,2.012A1.655,1.655,0,0,0,47.042-.755ZM55.32.127a3.2,3.2,0,0,1-2.434-.939,3.637,3.637,0,0,1-.892-2.609,4.033,4.033,0,0,1,.828-2.672,2.752,2.752,0,0,1,2.225-.99,2.624,2.624,0,0,1,2.069.86,3.3,3.3,0,0,1,.762,2.269v.667H53.085a2.758,2.758,0,0,0,.619,1.86,2.141,2.141,0,0,0,1.654.635,5.6,5.6,0,0,0,2.222-.47v.939a5.576,5.576,0,0,1-1.057.346A5.939,5.939,0,0,1,55.32.127ZM55.034-6.2a1.721,1.721,0,0,0-1.336.546,2.516,2.516,0,0,0-.587,1.511h3.637A2.317,2.317,0,0,0,56.3-5.672,1.564,1.564,0,0,0,55.034-6.2Zm7.643,2.234A6.565,6.565,0,0,1,63.74-8.058a3.754,3.754,0,0,1,3.145-1.355,4.191,4.191,0,0,1,1.13.121v.908A3.615,3.615,0,0,0,66.9-8.544a2.819,2.819,0,0,0-2.279.93,4.767,4.767,0,0,0-.863,2.923h.076a2.43,2.43,0,0,1,2.209-1.092,2.594,2.594,0,0,1,1.971.755,2.848,2.848,0,0,1,.72,2.05A3.161,3.161,0,0,1,67.942-.7a2.813,2.813,0,0,1-2.136.828A2.745,2.745,0,0,1,63.521-.955,4.788,4.788,0,0,1,62.677-3.967Zm3.117,3.2a1.763,1.763,0,0,0,1.4-.568,2.415,2.415,0,0,0,.5-1.641,2.116,2.116,0,0,0-.463-1.447,1.746,1.746,0,0,0-1.384-.527,2.335,2.335,0,0,0-1.047.235,1.938,1.938,0,0,0-.759.647,1.5,1.5,0,0,0-.282.857,2.938,2.938,0,0,0,.254,1.219,2.148,2.148,0,0,0,.72.9A1.8,1.8,0,0,0,65.793-.768Z" transform="translate(760 1786)"/><g class="f" transform="translate(734 1776)"><circle class="k" cx="5" cy="5" r="5"/><circle class="l" cx="5" cy="5" r="4.5"/></g><g class="f" transform="translate(718 1776)"><circle class="k" cx="5" cy="5" r="5"/><circle class="l" cx="5" cy="5" r="4.5"/></g><g class="f" transform="translate(702 1776)"><circle class="k" cx="5" cy="5" r="5"/><circle class="l" cx="5" cy="5" r="4.5"/></g><circle class="e" cx="5" cy="5" r="5" transform="translate(686 1776)"/><circle class="e" cx="5" cy="5" r="5" transform="translate(670 1776)"/><circle class="e" cx="5" cy="5" r="5" transform="translate(654 1776)"/><path class="e" d="M8.813-8.094A3.2,3.2,0,0,1,7.629-5.426a5.362,5.362,0,0,1-3.387.934H2.9V0H1.57V-11.422H4.531Q8.812-11.422,8.813-8.094ZM2.9-5.633h1.2A4.442,4.442,0,0,0,6.648-6.2a2.1,2.1,0,0,0,.789-1.828A1.971,1.971,0,0,0,6.7-9.719a3.877,3.877,0,0,0-2.312-.555H2.9ZM16.273,0l-.258-1.219h-.062a3.6,3.6,0,0,1-1.277,1.09,3.893,3.893,0,0,1-1.59.285,2.86,2.86,0,0,1-2-.656,2.394,2.394,0,0,1-.723-1.867q0-2.594,4.148-2.719l1.453-.047v-.531a2.171,2.171,0,0,0-.434-1.488,1.783,1.783,0,0,0-1.387-.48,5.65,5.65,0,0,0-2.422.656l-.4-.992a6.094,6.094,0,0,1,1.387-.539,6.006,6.006,0,0,1,1.512-.2,3.262,3.262,0,0,1,2.27.68,2.837,2.837,0,0,1,.738,2.18V0Zm-2.93-.914a2.632,2.632,0,0,0,1.9-.664,2.457,2.457,0,0,0,.691-1.859v-.773l-1.3.055a4.717,4.717,0,0,0-2.23.48,1.449,1.449,0,0,0-.684,1.324,1.336,1.336,0,0,0,.426,1.07A1.767,1.767,0,0,0,13.344-.914ZM25.43-2.336a2.145,2.145,0,0,1-.891,1.844,4.186,4.186,0,0,1-2.5.648,5.436,5.436,0,0,1-2.656-.539v-1.2a6.424,6.424,0,0,0,1.324.492,5.53,5.53,0,0,0,1.363.18,3.092,3.092,0,0,0,1.563-.324,1.072,1.072,0,0,0,.547-.988,1.073,1.073,0,0,0-.434-.855,6.82,6.82,0,0,0-1.691-.84,9.172,9.172,0,0,1-1.7-.777,2.321,2.321,0,0,1-.75-.754,1.966,1.966,0,0,1-.246-1.008,1.921,1.921,0,0,1,.852-1.652,3.968,3.968,0,0,1,2.336-.605,6.835,6.835,0,0,1,2.7.563L24.789-7.1a6.2,6.2,0,0,0-2.336-.531,2.687,2.687,0,0,0-1.391.289.894.894,0,0,0-.469.8.971.971,0,0,0,.176.586,1.735,1.735,0,0,0,.566.461,12.658,12.658,0,0,0,1.5.633A5.6,5.6,0,0,1,24.895-3.75,1.97,1.97,0,0,1,25.43-2.336Zm9.5-1.953a4.724,4.724,0,0,1-1.055,3.27A3.714,3.714,0,0,1,30.961.156a3.86,3.86,0,0,1-2.039-.539A3.558,3.558,0,0,1,27.547-1.93a5.391,5.391,0,0,1-.484-2.359,4.716,4.716,0,0,1,1.047-3.262,3.7,3.7,0,0,1,2.906-1.168,3.622,3.622,0,0,1,2.855,1.2A4.7,4.7,0,0,1,34.93-4.289Zm-6.523,0a4.064,4.064,0,0,0,.656,2.5,2.278,2.278,0,0,0,1.93.859,2.293,2.293,0,0,0,1.934-.855,4.043,4.043,0,0,0,.66-2.5,3.978,3.978,0,0,0-.66-2.48,2.32,2.32,0,0,0-1.949-.848,2.283,2.283,0,0,0-1.922.836A4.023,4.023,0,0,0,28.406-4.289ZM46.883-2.336a2.145,2.145,0,0,1-.891,1.844,4.186,4.186,0,0,1-2.5.648,5.436,5.436,0,0,1-2.656-.539v-1.2a6.424,6.424,0,0,0,1.324.492,5.53,5.53,0,0,0,1.363.18,3.092,3.092,0,0,0,1.563-.324,1.072,1.072,0,0,0,.547-.988,1.073,1.073,0,0,0-.434-.855,6.82,6.82,0,0,0-1.691-.84,9.172,9.172,0,0,1-1.7-.777,2.321,2.321,0,0,1-.75-.754,1.966,1.966,0,0,1-.246-1.008,1.921,1.921,0,0,1,.852-1.652A3.968,3.968,0,0,1,44-8.719a6.835,6.835,0,0,1,2.7.563L46.242-7.1a6.2,6.2,0,0,0-2.336-.531,2.688,2.688,0,0,0-1.391.289.894.894,0,0,0-.469.8.971.971,0,0,0,.176.586,1.735,1.735,0,0,0,.566.461,12.658,12.658,0,0,0,1.5.633A5.6,5.6,0,0,1,46.348-3.75,1.97,1.97,0,0,1,46.883-2.336ZM50.289,0h-1.3V-8.562h1.3ZM48.883-10.883a.861.861,0,0,1,.219-.652.764.764,0,0,1,.547-.207.764.764,0,0,1,.539.211.846.846,0,0,1,.227.648.859.859,0,0,1-.227.652.757.757,0,0,1-.539.215.749.749,0,0,1-.547-.215A.877.877,0,0,1,48.883-10.883Zm11.164,2.32v.82l-1.586.188a2.726,2.726,0,0,1,.391.715,2.727,2.727,0,0,1,.172,1,2.531,2.531,0,0,1-.859,2.008,3.467,3.467,0,0,1-2.359.75,3.929,3.929,0,0,1-.719-.062,1.276,1.276,0,0,0-.828,1.1.56.56,0,0,0,.289.52,2.112,2.112,0,0,0,.992.168h1.516a3.394,3.394,0,0,1,2.137.586,2.036,2.036,0,0,1,.746,1.7A2.431,2.431,0,0,1,58.8,3.1a6.1,6.1,0,0,1-3.328.746,4.547,4.547,0,0,1-2.59-.625,2.018,2.018,0,0,1-.91-1.766A1.983,1.983,0,0,1,52.469.1a2.546,2.546,0,0,1,1.406-.773,1.357,1.357,0,0,1-.551-.461,1.22,1.22,0,0,1-.223-.727,1.379,1.379,0,0,1,.25-.82,2.628,2.628,0,0,1,.789-.68,2.313,2.313,0,0,1-1.082-.93,2.732,2.732,0,0,1-.418-1.5,2.771,2.771,0,0,1,.844-2.168,3.445,3.445,0,0,1,2.391-.762,4.347,4.347,0,0,1,1.211.156Zm-6.828,10A1.162,1.162,0,0,0,53.8,2.492a3.234,3.234,0,0,0,1.68.359A4.687,4.687,0,0,0,57.9,2.363a1.5,1.5,0,0,0,.785-1.324,1.048,1.048,0,0,0-.43-.965A3.337,3.337,0,0,0,56.641-.2H55.086a2.048,2.048,0,0,0-1.375.422A1.507,1.507,0,0,0,53.219,1.438Zm.7-7.258a1.743,1.743,0,0,0,.508,1.359A2.028,2.028,0,0,0,55.844-4a1.654,1.654,0,0,0,1.9-1.844,1.7,1.7,0,0,0-1.922-1.93,1.9,1.9,0,0,0-1.406.492A1.982,1.982,0,0,0,53.922-5.82Zm9.1-2.742v5.555A2.235,2.235,0,0,0,63.5-1.445a1.941,1.941,0,0,0,1.492.516,2.435,2.435,0,0,0,1.965-.734,3.7,3.7,0,0,0,.621-2.4v-4.5h1.3V0H67.8l-.187-1.148h-.07a2.585,2.585,0,0,1-1.105.969,3.716,3.716,0,0,1-1.613.336,3.273,3.273,0,0,1-2.34-.742,3.159,3.159,0,0,1-.777-2.375v-5.6ZM72.922,0h-1.3V-8.562h1.3ZM71.516-10.883a.861.861,0,0,1,.219-.652.764.764,0,0,1,.547-.207.764.764,0,0,1,.539.211.846.846,0,0,1,.227.648.859.859,0,0,1-.227.652.757.757,0,0,1-.539.215.749.749,0,0,1-.547-.215A.877.877,0,0,1,71.516-10.883ZM79.289.156a3.934,3.934,0,0,1-3-1.156,4.476,4.476,0,0,1-1.1-3.211A4.964,4.964,0,0,1,76.215-7.5a3.387,3.387,0,0,1,2.738-1.219A3.229,3.229,0,0,1,81.5-7.66a4.057,4.057,0,0,1,.938,2.793v.82h-5.9A3.394,3.394,0,0,0,77.3-1.758a2.635,2.635,0,0,0,2.035.781,6.9,6.9,0,0,0,2.734-.578V-.4a6.863,6.863,0,0,1-1.3.426A7.31,7.31,0,0,1,79.289.156Zm-.352-7.789a2.118,2.118,0,0,0-1.645.672A3.1,3.1,0,0,0,76.57-5.1h4.477A2.851,2.851,0,0,0,80.5-6.98,1.925,1.925,0,0,0,78.938-7.633ZM90.508,0V-5.539A2.235,2.235,0,0,0,90.031-7.1a1.941,1.941,0,0,0-1.492-.516,2.461,2.461,0,0,0-1.969.727,3.668,3.668,0,0,0-.625,2.4V0h-1.3V-8.562H85.7l.211,1.172h.063a2.648,2.648,0,0,1,1.117-.98,3.63,3.63,0,0,1,1.6-.348,3.252,3.252,0,0,1,2.328.746A3.175,3.175,0,0,1,91.8-5.586V0Zm6.727-.914A4.236,4.236,0,0,0,97.9-.965a4.3,4.3,0,0,0,.508-.105v.992a2.371,2.371,0,0,1-.621.168,4.664,4.664,0,0,1-.738.066q-2.484,0-2.484-2.617V-7.555H93.336V-8.18l1.227-.539.547-1.828h.75v1.984h2.484v1.008H95.859v5.039a1.734,1.734,0,0,0,.367,1.188A1.278,1.278,0,0,0,97.234-.914Zm6.5,1.07a3.934,3.934,0,0,1-3-1.156,4.476,4.476,0,0,1-1.1-3.211A4.964,4.964,0,0,1,100.66-7.5,3.387,3.387,0,0,1,103.4-8.719a3.229,3.229,0,0,1,2.547,1.059,4.057,4.057,0,0,1,.938,2.793v.82h-5.9a3.394,3.394,0,0,0,.762,2.289,2.635,2.635,0,0,0,2.035.781,6.9,6.9,0,0,0,2.734-.578V-.4a6.863,6.863,0,0,1-1.3.426A7.31,7.31,0,0,1,103.734.156Zm-.352-7.789a2.118,2.118,0,0,0-1.645.672,3.1,3.1,0,0,0-.723,1.859h4.477a2.851,2.851,0,0,0-.547-1.879A1.925,1.925,0,0,0,103.383-7.633Zm5.523,6.8a1.164,1.164,0,0,1,.238-.793.864.864,0,0,1,.684-.27.924.924,0,0,1,.707.27,1.116,1.116,0,0,1,.254.793,1.1,1.1,0,0,1-.258.781.92.92,0,0,1-.7.273.926.926,0,0,1-.66-.246A1.07,1.07,0,0,1,108.906-.828Zm0-6.9q0-1.055.922-1.055.961,0,.961,1.055a1.1,1.1,0,0,1-.258.781.92.92,0,0,1-.7.273.926.926,0,0,1-.66-.246A1.07,1.07,0,0,1,108.906-7.727Zm16.039-.367a3.2,3.2,0,0,1-1.184,2.668,5.362,5.362,0,0,1-3.387.934h-1.344V0H117.7V-11.422h2.961Q124.945-11.422,124.945-8.094Zm-5.914,2.461h1.2a4.442,4.442,0,0,0,2.555-.57,2.1,2.1,0,0,0,.789-1.828,1.971,1.971,0,0,0-.742-1.687,3.877,3.877,0,0,0-2.312-.555h-1.484ZM132.406,0l-.258-1.219h-.062a3.6,3.6,0,0,1-1.277,1.09,3.893,3.893,0,0,1-1.59.285,2.86,2.86,0,0,1-2-.656,2.394,2.394,0,0,1-.723-1.867q0-2.594,4.148-2.719l1.453-.047v-.531a2.171,2.171,0,0,0-.434-1.488,1.783,1.783,0,0,0-1.387-.48,5.65,5.65,0,0,0-2.422.656l-.4-.992a6.094,6.094,0,0,1,1.387-.539,6.006,6.006,0,0,1,1.512-.2,3.262,3.262,0,0,1,2.27.68,2.837,2.837,0,0,1,.738,2.18V0Zm-2.93-.914a2.632,2.632,0,0,0,1.9-.664,2.457,2.457,0,0,0,.691-1.859v-.773l-1.3.055a4.717,4.717,0,0,0-2.23.48,1.449,1.449,0,0,0-.684,1.324,1.336,1.336,0,0,0,.426,1.07A1.767,1.767,0,0,0,129.477-.914Zm12.086-1.422a2.145,2.145,0,0,1-.891,1.844,4.186,4.186,0,0,1-2.5.648,5.436,5.436,0,0,1-2.656-.539v-1.2a6.423,6.423,0,0,0,1.324.492,5.53,5.53,0,0,0,1.363.18,3.092,3.092,0,0,0,1.563-.324,1.072,1.072,0,0,0,.547-.988,1.073,1.073,0,0,0-.434-.855,6.82,6.82,0,0,0-1.691-.84,9.172,9.172,0,0,1-1.7-.777,2.321,2.321,0,0,1-.75-.754,1.966,1.966,0,0,1-.246-1.008,1.921,1.921,0,0,1,.852-1.652,3.968,3.968,0,0,1,2.336-.605,6.835,6.835,0,0,1,2.7.563L140.922-7.1a6.2,6.2,0,0,0-2.336-.531,2.688,2.688,0,0,0-1.391.289.894.894,0,0,0-.469.8.971.971,0,0,0,.176.586,1.735,1.735,0,0,0,.566.461,12.658,12.658,0,0,0,1.5.633,5.6,5.6,0,0,1,2.059,1.117A1.97,1.97,0,0,1,141.563-2.336Zm9.5-1.953a4.724,4.724,0,0,1-1.055,3.27A3.714,3.714,0,0,1,147.094.156a3.86,3.86,0,0,1-2.039-.539A3.558,3.558,0,0,1,143.68-1.93a5.391,5.391,0,0,1-.484-2.359,4.716,4.716,0,0,1,1.047-3.262,3.7,3.7,0,0,1,2.906-1.168A3.622,3.622,0,0,1,150-7.523,4.7,4.7,0,0,1,151.063-4.289Zm-6.523,0a4.064,4.064,0,0,0,.656,2.5,2.278,2.278,0,0,0,1.93.859,2.293,2.293,0,0,0,1.934-.855,4.043,4.043,0,0,0,.66-2.5,3.978,3.978,0,0,0-.66-2.48,2.32,2.32,0,0,0-1.949-.848,2.283,2.283,0,0,0-1.922.836A4.023,4.023,0,0,0,144.539-4.289ZM163.352,0V-5.539a2.235,2.235,0,0,0-.477-1.562,1.941,1.941,0,0,0-1.492-.516,2.461,2.461,0,0,0-1.969.727,3.668,3.668,0,0,0-.625,2.4V0h-1.3V-8.562h1.055l.211,1.172h.063a2.648,2.648,0,0,1,1.117-.98,3.63,3.63,0,0,1,1.6-.348,3.252,3.252,0,0,1,2.328.746,3.175,3.175,0,0,1,.781,2.387V0Zm5.18-8.562v5.555a2.235,2.235,0,0,0,.477,1.563A1.941,1.941,0,0,0,170.5-.93a2.435,2.435,0,0,0,1.965-.734,3.7,3.7,0,0,0,.621-2.4v-4.5h1.3V0h-1.07l-.187-1.148h-.07a2.585,2.585,0,0,1-1.105.969,3.716,3.716,0,0,1-1.613.336A3.273,3.273,0,0,1,168-.586a3.159,3.159,0,0,1-.777-2.375v-5.6Zm1.359-1.328q.375-.484.809-1.172a13.412,13.412,0,0,0,.684-1.2h1.578v.164a11.549,11.549,0,0,1-1.023,1.25,11.62,11.62,0,0,1-1.18,1.148h-.867ZM188.047,0V-5.57a2.312,2.312,0,0,0-.437-1.535,1.692,1.692,0,0,0-1.359-.512,2.195,2.195,0,0,0-1.789.7,3.3,3.3,0,0,0-.578,2.141V0h-1.3V-5.57a2.312,2.312,0,0,0-.437-1.535,1.7,1.7,0,0,0-1.367-.512,2.118,2.118,0,0,0-1.785.73,3.953,3.953,0,0,0-.566,2.395V0h-1.3V-8.562h1.055l.211,1.172h.063a2.549,2.549,0,0,1,1.035-.977,3.163,3.163,0,0,1,1.5-.352,2.544,2.544,0,0,1,2.625,1.453h.063a2.73,2.73,0,0,1,1.109-1.062,3.442,3.442,0,0,1,1.656-.391,2.9,2.9,0,0,1,2.176.746,3.338,3.338,0,0,1,.723,2.387V0Zm7.586.156a3.934,3.934,0,0,1-3-1.156,4.476,4.476,0,0,1-1.1-3.211,4.964,4.964,0,0,1,1.02-3.289A3.387,3.387,0,0,1,195.3-8.719a3.229,3.229,0,0,1,2.547,1.059,4.057,4.057,0,0,1,.938,2.793v.82h-5.9a3.394,3.394,0,0,0,.762,2.289,2.634,2.634,0,0,0,2.035.781,6.9,6.9,0,0,0,2.734-.578V-.4a6.863,6.863,0,0,1-1.3.426A7.31,7.31,0,0,1,195.633.156Zm-.352-7.789a2.118,2.118,0,0,0-1.645.672,3.1,3.1,0,0,0-.723,1.859h4.477a2.851,2.851,0,0,0-.547-1.879A1.925,1.925,0,0,0,195.281-7.633ZM204.9-8.719a5.075,5.075,0,0,1,1.023.094l-.18,1.2a4.418,4.418,0,0,0-.937-.117,2.282,2.282,0,0,0-1.777.844,3.077,3.077,0,0,0-.738,2.1V0h-1.3V-8.562h1.07l.148,1.586h.063a3.764,3.764,0,0,1,1.148-1.289A2.585,2.585,0,0,1,204.9-8.719Zm10.016,4.43a4.724,4.724,0,0,1-1.055,3.27A3.714,3.714,0,0,1,210.945.156a3.86,3.86,0,0,1-2.039-.539,3.558,3.558,0,0,1-1.375-1.547,5.391,5.391,0,0,1-.484-2.359,4.716,4.716,0,0,1,1.047-3.262A3.7,3.7,0,0,1,211-8.719a3.622,3.622,0,0,1,2.855,1.2A4.7,4.7,0,0,1,214.914-4.289Zm-6.523,0a4.064,4.064,0,0,0,.656,2.5,2.278,2.278,0,0,0,1.93.859,2.293,2.293,0,0,0,1.934-.855,4.043,4.043,0,0,0,.66-2.5,3.978,3.978,0,0,0-.66-2.48,2.32,2.32,0,0,0-1.949-.848,2.283,2.283,0,0,0-1.922.836A4.023,4.023,0,0,0,208.391-4.289ZM228.8-2.625h-1.7V0h-1.242V-2.625H220.3V-3.758l5.422-7.727H227.1V-3.8h1.7ZM225.859-3.8V-7.6q0-1.117.078-2.523h-.062a11.739,11.739,0,0,1-.7,1.242L221.6-3.8Z" transform="translate(654 1755)"/><path class="e" d="M3.724.14A1.4,1.4,0,0,1,2.688-.252,1.438,1.438,0,0,1,2.3-1.316V-18.34a1.381,1.381,0,0,1,.378-1.022,1.419,1.419,0,0,1,1.05-.378h6.748a7.1,7.1,0,0,1,4.872,1.54,5.532,5.532,0,0,1,1.736,4.368,5.586,5.586,0,0,1-1.736,4.368A7.012,7.012,0,0,1,10.472-7.9H5.18v6.58A1.468,1.468,0,0,1,4.8-.252,1.428,1.428,0,0,1,3.724.14Zm6.44-10.36q4.144,0,4.144-3.612,0-3.584-4.144-3.584H5.18v7.2ZM25.564-14a5.4,5.4,0,0,1,4.046,1.372,5.787,5.787,0,0,1,1.33,4.172V-1.2a1.314,1.314,0,0,1-.364.994,1.394,1.394,0,0,1-1.008.35,1.324,1.324,0,0,1-.98-.364,1.324,1.324,0,0,1-.364-.98V-2.24A3.939,3.939,0,0,1,26.642-.434a4.67,4.67,0,0,1-2.45.63A5.547,5.547,0,0,1,21.728-.35a4.232,4.232,0,0,1-1.75-1.526,3.954,3.954,0,0,1-.63-2.184,3.363,3.363,0,0,1,.77-2.338,4.592,4.592,0,0,1,2.548-1.218,25.594,25.594,0,0,1,4.886-.364H28.2v-.812a3.292,3.292,0,0,0-.644-2.268,2.7,2.7,0,0,0-2.072-.7,6.6,6.6,0,0,0-1.848.252,13.894,13.894,0,0,0-1.9.728,2.745,2.745,0,0,1-1.064.42.865.865,0,0,1-.686-.308,1.157,1.157,0,0,1-.266-.784,1.215,1.215,0,0,1,.238-.742,2.507,2.507,0,0,1,.77-.63,9.573,9.573,0,0,1,2.3-.854A10.708,10.708,0,0,1,25.564-14ZM24.7-1.9a3.293,3.293,0,0,0,2.52-1.05,3.8,3.8,0,0,0,.98-2.7v-.728h-.5a21.814,21.814,0,0,0-3.36.2,3.3,3.3,0,0,0-1.68.658,1.714,1.714,0,0,0-.5,1.33,2.106,2.106,0,0,0,.728,1.652A2.646,2.646,0,0,0,24.7-1.9ZM39.508.2A8.473,8.473,0,0,1,34.832-.98a2.128,2.128,0,0,1-.714-.644,1.4,1.4,0,0,1-.21-.756,1.155,1.155,0,0,1,.252-.756.8.8,0,0,1,.644-.308A2.761,2.761,0,0,1,35.952-3a11.779,11.779,0,0,0,1.638.728,6.119,6.119,0,0,0,2,.28,3.931,3.931,0,0,0,2.1-.476,1.5,1.5,0,0,0,.756-1.344,1.312,1.312,0,0,0-.294-.9,2.493,2.493,0,0,0-1.022-.6,17.436,17.436,0,0,0-2.156-.574,8.307,8.307,0,0,1-3.542-1.442A3.072,3.072,0,0,1,34.356-9.8a3.609,3.609,0,0,1,.7-2.17,4.546,4.546,0,0,1,1.932-1.5,7,7,0,0,1,2.8-.532,8.162,8.162,0,0,1,2.184.294,6.169,6.169,0,0,1,1.876.854,1.736,1.736,0,0,1,.924,1.428,1.116,1.116,0,0,1-.266.756.808.808,0,0,1-.63.308,1.232,1.232,0,0,1-.5-.112,6.651,6.651,0,0,1-.672-.364,9.4,9.4,0,0,0-1.414-.7,4.613,4.613,0,0,0-1.638-.252,3.213,3.213,0,0,0-1.89.5,1.593,1.593,0,0,0-.714,1.372A1.379,1.379,0,0,0,37.7-8.694a8.067,8.067,0,0,0,2.478.826,13.579,13.579,0,0,1,2.94.9,3.484,3.484,0,0,1,1.526,1.246,3.522,3.522,0,0,1,.462,1.89A3.445,3.445,0,0,1,43.582-.91,6.8,6.8,0,0,1,39.508.2ZM54.124.2a7.04,7.04,0,0,1-3.542-.868A5.857,5.857,0,0,1,48.23-3.15,8.08,8.08,0,0,1,47.4-6.888a8.144,8.144,0,0,1,.826-3.766,5.857,5.857,0,0,1,2.352-2.478A7.04,7.04,0,0,1,54.124-14a7.04,7.04,0,0,1,3.542.868,5.857,5.857,0,0,1,2.352,2.478,8.144,8.144,0,0,1,.826,3.766,8.08,8.08,0,0,1-.826,3.738A5.857,5.857,0,0,1,57.666-.672,7.04,7.04,0,0,1,54.124.2Zm0-2.24a3.473,3.473,0,0,0,2.87-1.232,5.648,5.648,0,0,0,.994-3.612,5.6,5.6,0,0,0-1.008-3.6,3.464,3.464,0,0,0-2.856-1.246,3.464,3.464,0,0,0-2.856,1.246,5.6,5.6,0,0,0-1.008,3.6,5.648,5.648,0,0,0,.994,3.612A3.473,3.473,0,0,0,54.124-2.044ZM78.624-14q4.9,0,4.9,5.516V-1.2a1.287,1.287,0,0,1-.378.994A1.487,1.487,0,0,1,82.1.14a1.411,1.411,0,0,1-1.022-.364A1.3,1.3,0,0,1,80.7-1.2v-7.14a3.9,3.9,0,0,0-.686-2.548,2.65,2.65,0,0,0-2.142-.812,3.656,3.656,0,0,0-2.744,1.064,3.919,3.919,0,0,0-1.036,2.856V-1.2a1.3,1.3,0,0,1-.378.98A1.411,1.411,0,0,1,72.688.14a1.462,1.462,0,0,1-1.036-.364,1.273,1.273,0,0,1-.392-.98V-12.6a1.261,1.261,0,0,1,.406-.966,1.441,1.441,0,0,1,1.022-.378,1.324,1.324,0,0,1,.98.364,1.287,1.287,0,0,1,.364.952v1.148a4.543,4.543,0,0,1,1.876-1.876A5.667,5.667,0,0,1,78.624-14Zm19.292.056a1.411,1.411,0,0,1,1.022.364,1.334,1.334,0,0,1,.378,1.008v11.4a1.239,1.239,0,0,1-.392.952A1.462,1.462,0,0,1,97.888.14a1.316,1.316,0,0,1-.952-.35,1.241,1.241,0,0,1-.364-.938V-2.212A4.385,4.385,0,0,1,94.794-.42,5.221,5.221,0,0,1,92.26.2q-4.984,0-4.984-5.488v-7.28a1.334,1.334,0,0,1,.378-1.008,1.451,1.451,0,0,1,1.05-.364,1.411,1.411,0,0,1,1.022.364,1.334,1.334,0,0,1,.378,1.008V-5.32a3.686,3.686,0,0,0,.672,2.436,2.582,2.582,0,0,0,2.072.784,3.449,3.449,0,0,0,2.646-1.064,3.976,3.976,0,0,0,.994-2.828v-6.58a1.318,1.318,0,0,1,.392-.994A1.43,1.43,0,0,1,97.916-13.944Zm-4-1.568a.781.781,0,0,1-.532.2.774.774,0,0,1-.546-.224.706.706,0,0,1-.238-.532.746.746,0,0,1,.2-.5l3.024-3.948A1.6,1.6,0,0,1,97.1-21.28a1.218,1.218,0,0,1,.9.364,1.185,1.185,0,0,1,.364.868,1.581,1.581,0,0,1-.672,1.2ZM118.888-14q4.592,0,4.592,5.516V-1.2a1.263,1.263,0,0,1-.392.994,1.5,1.5,0,0,1-1.036.35,1.457,1.457,0,0,1-1.008-.35,1.263,1.263,0,0,1-.392-.994V-8.456a3.975,3.975,0,0,0-.616-2.478,2.326,2.326,0,0,0-1.932-.77,3.035,3.035,0,0,0-2.436,1.05,4.279,4.279,0,0,0-.9,2.87V-1.2a1.263,1.263,0,0,1-.392.994,1.5,1.5,0,0,1-1.036.35,1.457,1.457,0,0,1-1.008-.35,1.263,1.263,0,0,1-.392-.994V-8.456a3.975,3.975,0,0,0-.616-2.478,2.326,2.326,0,0,0-1.932-.77,3.077,3.077,0,0,0-2.45,1.05,4.235,4.235,0,0,0-.91,2.87V-1.2a1.263,1.263,0,0,1-.392.994,1.457,1.457,0,0,1-1.008.35,1.51,1.51,0,0,1-1.022-.35,1.241,1.241,0,0,1-.406-.994V-12.6a1.231,1.231,0,0,1,.42-.98,1.487,1.487,0,0,1,1.008-.364,1.366,1.366,0,0,1,.966.35,1.251,1.251,0,0,1,.378.966v1.036a4.283,4.283,0,0,1,1.708-1.792,5.041,5.041,0,0,1,2.52-.616,4.779,4.779,0,0,1,2.59.644,3.848,3.848,0,0,1,1.526,1.988,4.672,4.672,0,0,1,1.82-1.918A5.276,5.276,0,0,1,118.888-14Zm19.1,10.556a.8.8,0,0,1,.644.308,1.2,1.2,0,0,1,.252.784A1.61,1.61,0,0,1,137.872-.98a8.882,8.882,0,0,1-2.142.868A8.686,8.686,0,0,1,133.5.2a6.9,6.9,0,0,1-5.124-1.89A7.01,7.01,0,0,1,126.5-6.86a8.1,8.1,0,0,1,.826-3.724,6.072,6.072,0,0,1,2.324-2.52,6.5,6.5,0,0,1,3.4-.9,5.56,5.56,0,0,1,4.34,1.764,6.827,6.827,0,0,1,1.6,4.76q0,1.12-1.008,1.12h-8.652q.28,4.34,4.172,4.34A5.161,5.161,0,0,0,135.3-2.3a13.032,13.032,0,0,0,1.6-.728q.084-.056.462-.238A1.529,1.529,0,0,1,137.984-3.444Zm-4.872-8.484a3.416,3.416,0,0,0-2.6,1.036,4.838,4.838,0,0,0-1.176,2.912h7.224a4.68,4.68,0,0,0-.966-2.926A3.1,3.1,0,0,0,133.112-11.928Zm16.1-2.016q1.344-.084,1.344,1.148a1.255,1.255,0,0,1-.308.924,1.661,1.661,0,0,1-1.064.364l-.84.084a3.625,3.625,0,0,0-2.618,1.232,3.986,3.986,0,0,0-.854,2.576V-1.2A1.255,1.255,0,0,1,144.48-.2a1.494,1.494,0,0,1-1.008.336A1.549,1.549,0,0,1,142.45-.2a1.233,1.233,0,0,1-.406-1.008V-12.6a1.241,1.241,0,0,1,.406-.994,1.51,1.51,0,0,1,1.022-.35,1.328,1.328,0,0,1,.938.35,1.251,1.251,0,0,1,.378.966v1.344a4.113,4.113,0,0,1,1.624-1.876,5.457,5.457,0,0,1,2.408-.756ZM157.892.2a7.04,7.04,0,0,1-3.542-.868A5.857,5.857,0,0,1,152-3.15a8.08,8.08,0,0,1-.826-3.738A8.144,8.144,0,0,1,152-10.654a5.857,5.857,0,0,1,2.352-2.478A7.04,7.04,0,0,1,157.892-14a7.04,7.04,0,0,1,3.542.868,5.857,5.857,0,0,1,2.352,2.478,8.145,8.145,0,0,1,.826,3.766,8.08,8.08,0,0,1-.826,3.738,5.857,5.857,0,0,1-2.352,2.478A7.04,7.04,0,0,1,157.892.2Zm0-2.24a3.473,3.473,0,0,0,2.87-1.232,5.648,5.648,0,0,0,.994-3.612,5.6,5.6,0,0,0-1.008-3.6,3.464,3.464,0,0,0-2.856-1.246,3.464,3.464,0,0,0-2.856,1.246,5.6,5.6,0,0,0-1.008,3.6,5.648,5.648,0,0,0,.994,3.612A3.473,3.473,0,0,0,157.892-2.044Zm26.4-8.092a4.962,4.962,0,0,1,2.716,1.722,4.928,4.928,0,0,1,.924,3.066,4.973,4.973,0,0,1-1.806,4.06A7.466,7.466,0,0,1,181.244.2a10.4,10.4,0,0,1-3.486-.588,8.23,8.23,0,0,1-2.814-1.624,1.379,1.379,0,0,1-.56-1.12,1.324,1.324,0,0,1,.28-.854.837.837,0,0,1,.672-.35,1.747,1.747,0,0,1,.952.364,10.489,10.489,0,0,0,2.366,1.358,6.721,6.721,0,0,0,2.506.462q3.976,0,3.976-3.388a2.96,2.96,0,0,0-1.05-2.478,5.092,5.092,0,0,0-3.178-.826h-1.54a1.061,1.061,0,0,1-.84-.35,1.21,1.21,0,0,1-.308-.826,1.174,1.174,0,0,1,.308-.8,1.062,1.062,0,0,1,.84-.35h1.092a4.937,4.937,0,0,0,3.122-.854,3.005,3.005,0,0,0,1.078-2.506,2.929,2.929,0,0,0-.882-2.268,3.524,3.524,0,0,0-2.478-.812,7.676,7.676,0,0,0-4.7,1.82,1.747,1.747,0,0,1-.952.364.837.837,0,0,1-.672-.35,1.324,1.324,0,0,1-.28-.854,1.379,1.379,0,0,1,.56-1.12,8.276,8.276,0,0,1,2.786-1.624,9.913,9.913,0,0,1,3.374-.588,6.649,6.649,0,0,1,4.41,1.372,4.6,4.6,0,0,1,1.638,3.724,5.172,5.172,0,0,1-.826,2.926A4.653,4.653,0,0,1,184.3-10.136Z" transform="translate(654 1726)"/><g transform="translate(669.709 1772) rotate(90)"><rect class="c" width="6" height="18" transform="translate(18 -0.291) rotate(90)"/><path class="d" d="M0,18V0" transform="translate(18 5.701) rotate(90)"/><path class="d" d="M0,18V0" transform="translate(18 -0.042) rotate(90)"/></g><g transform="translate(759.709 1772) rotate(90)"><rect class="c" width="16" height="18" transform="translate(18 -0.291) rotate(90)"/><path class="d" d="M0,18V0" transform="translate(18 15.686) rotate(90)"/><path class="d" d="M0,18V0" transform="translate(18 0.374) rotate(90)"/></g><path class="g" d="M10.032-11.36a.979.979,0,0,1,.736.28,1.022,1.022,0,0,1,.272.744V-.944a1.033,1.033,0,0,1-.28.752A.97.97,0,0,1,10.032.1.964.964,0,0,1,9.3-.192a1.05,1.05,0,0,1-.272-.752V-4.9H3.248V-.944a1.033,1.033,0,0,1-.28.752A.99.99,0,0,1,2.224.1.97.97,0,0,1,1.5-.192a1.033,1.033,0,0,1-.28-.752v-9.392a1.022,1.022,0,0,1,.272-.744.979.979,0,0,1,.736-.28,1.006,1.006,0,0,1,.744.28,1.006,1.006,0,0,1,.28.744V-6.56H9.024v-3.776A1.022,1.022,0,0,1,9.3-11.08.979.979,0,0,1,10.032-11.36Zm6.656,3.344a3.259,3.259,0,0,1,2.424.808A3.383,3.383,0,0,1,19.9-4.752v3.9a.9.9,0,0,1-.256.68.969.969,0,0,1-.7.248.936.936,0,0,1-.68-.256A.894.894,0,0,1,18-.848V-1.2a2.088,2.088,0,0,1-.856.976,2.568,2.568,0,0,1-1.352.352,3.139,3.139,0,0,1-1.424-.32,2.533,2.533,0,0,1-1.008-.88,2.224,2.224,0,0,1-.368-1.248,1.977,1.977,0,0,1,.44-1.36,2.644,2.644,0,0,1,1.432-.72A13.041,13.041,0,0,1,17.6-4.624H18v-.368a1.638,1.638,0,0,0-.336-1.144,1.43,1.43,0,0,0-1.088-.36,3.452,3.452,0,0,0-.944.136q-.48.136-1.136.392a1.6,1.6,0,0,1-.608.208.6.6,0,0,1-.472-.208.791.791,0,0,1-.184-.544.819.819,0,0,1,.136-.472,1.291,1.291,0,0,1,.456-.376,5.215,5.215,0,0,1,1.336-.48A6.893,6.893,0,0,1,16.688-8.016Zm-.5,6.7a1.709,1.709,0,0,0,1.3-.536A1.939,1.939,0,0,0,18-3.232v-.336h-.288a11.038,11.038,0,0,0-1.664.1,1.616,1.616,0,0,0-.848.336.856.856,0,0,0-.256.656,1.085,1.085,0,0,0,.36.84A1.27,1.27,0,0,0,16.192-1.312ZM24.768.128A5.144,5.144,0,0,1,21.952-.56a.954.954,0,0,1-.512-.864.758.758,0,0,1,.176-.52.554.554,0,0,1,.432-.2,1.767,1.767,0,0,1,.752.256,7,7,0,0,0,.936.368,3.812,3.812,0,0,0,1.08.128,2.054,2.054,0,0,0,1.048-.224.694.694,0,0,0,.376-.624.6.6,0,0,0-.152-.432,1.394,1.394,0,0,0-.544-.3,11.44,11.44,0,0,0-1.192-.312,4.58,4.58,0,0,1-2.04-.816A1.816,1.816,0,0,1,21.7-5.552a2.1,2.1,0,0,1,.416-1.272,2.7,2.7,0,0,1,1.144-.88,4.168,4.168,0,0,1,1.656-.312,4.963,4.963,0,0,1,1.3.168,3.94,3.94,0,0,1,1.12.488.966.966,0,0,1,.512.848.821.821,0,0,1-.176.536.538.538,0,0,1-.432.216.865.865,0,0,1-.344-.072,4.616,4.616,0,0,1-.424-.216,6.709,6.709,0,0,0-.8-.36,2.5,2.5,0,0,0-.832-.12,1.611,1.611,0,0,0-.936.24.758.758,0,0,0-.344.656.666.666,0,0,0,.352.608,5.041,5.041,0,0,0,1.36.416,7.76,7.76,0,0,1,1.68.512,1.968,1.968,0,0,1,.872.72,2.089,2.089,0,0,1,.264,1.1,2.052,2.052,0,0,1-.9,1.744A4.013,4.013,0,0,1,24.768.128Zm8.912-1.52q.8.048.8.72a.651.651,0,0,1-.312.584A1.489,1.489,0,0,1,33.28.08L32.848.048a2.574,2.574,0,0,1-2.688-2.88V-6.32h-.8a1.016,1.016,0,0,1-.664-.192.685.685,0,0,1-.232-.56.685.685,0,0,1,.232-.56,1.016,1.016,0,0,1,.664-.192h.8V-9.3a.9.9,0,0,1,.272-.688,1.03,1.03,0,0,1,.736-.256,1.008,1.008,0,0,1,.72.256.9.9,0,0,1,.272.688v1.472h1.36a1.016,1.016,0,0,1,.664.192.685.685,0,0,1,.232.56.685.685,0,0,1-.232.56,1.016,1.016,0,0,1-.664.192H32.16v3.632q0,1.184,1.088,1.264Zm5.232-6.624a3.259,3.259,0,0,1,2.424.808,3.383,3.383,0,0,1,.792,2.456v3.9a.9.9,0,0,1-.256.68.969.969,0,0,1-.7.248.936.936,0,0,1-.68-.256.894.894,0,0,1-.264-.672V-1.2a2.088,2.088,0,0,1-.856.976,2.568,2.568,0,0,1-1.352.352,3.139,3.139,0,0,1-1.424-.32,2.533,2.533,0,0,1-1.008-.88,2.224,2.224,0,0,1-.368-1.248,1.977,1.977,0,0,1,.44-1.36,2.644,2.644,0,0,1,1.432-.72,13.041,13.041,0,0,1,2.736-.224h.4v-.368a1.638,1.638,0,0,0-.336-1.144A1.43,1.43,0,0,0,38.8-6.5a3.452,3.452,0,0,0-.944.136q-.48.136-1.136.392a1.6,1.6,0,0,1-.608.208.6.6,0,0,1-.472-.208.791.791,0,0,1-.184-.544.819.819,0,0,1,.136-.472,1.291,1.291,0,0,1,.456-.376,5.215,5.215,0,0,1,1.336-.48A6.893,6.893,0,0,1,38.912-8.016Zm-.5,6.7a1.709,1.709,0,0,0,1.3-.536,1.939,1.939,0,0,0,.5-1.384v-.336h-.288a11.038,11.038,0,0,0-1.664.1,1.616,1.616,0,0,0-.848.336.856.856,0,0,0-.256.656,1.085,1.085,0,0,0,.36.84A1.27,1.27,0,0,0,38.416-1.312Zm16-4.48a2.733,2.733,0,0,1,1.528.992,2.864,2.864,0,0,1,.536,1.76A2.747,2.747,0,0,1,55.36-.712a5.074,5.074,0,0,1-3.1.84,5.074,5.074,0,0,1-3.1-.84,2.747,2.747,0,0,1-1.12-2.328,2.87,2.87,0,0,1,.544-1.768,2.68,2.68,0,0,1,1.536-.984,2.777,2.777,0,0,1-1.328-1,2.69,2.69,0,0,1-.48-1.592,2.66,2.66,0,0,1,1.056-2.224,4.626,4.626,0,0,1,2.9-.816,4.626,4.626,0,0,1,2.9.816,2.66,2.66,0,0,1,1.056,2.224,2.753,2.753,0,0,1-.48,1.616A2.584,2.584,0,0,1,54.416-5.792Zm-2.16-4.016q-2,0-2,1.632a1.529,1.529,0,0,0,.5,1.24,2.275,2.275,0,0,0,1.5.424,2.275,2.275,0,0,0,1.5-.424,1.529,1.529,0,0,0,.5-1.24Q54.256-9.808,52.256-9.808Zm0,8.32q2.288,0,2.288-1.712T52.256-4.912q-2.288,0-2.288,1.712T52.256-1.488ZM65.9.128a4.146,4.146,0,0,1-2.056-.5A3.381,3.381,0,0,1,62.48-1.776,4.505,4.505,0,0,1,62-3.9a4.468,4.468,0,0,1,.5-2.152A3.56,3.56,0,0,1,63.92-7.5a4.208,4.208,0,0,1,2.1-.512,4.665,4.665,0,0,1,1.256.176,4.143,4.143,0,0,1,1.112.48.99.99,0,0,1,.512.848.9.9,0,0,1-.168.568.531.531,0,0,1-.44.216.956.956,0,0,1-.368-.08A3.223,3.223,0,0,1,67.536-6a4.3,4.3,0,0,0-.672-.328,2.088,2.088,0,0,0-.736-.12A1.871,1.871,0,0,0,64.6-5.8a2.855,2.855,0,0,0-.536,1.864A2.827,2.827,0,0,0,64.6-2.088a1.871,1.871,0,0,0,1.528.648,1.973,1.973,0,0,0,.712-.12,6.031,6.031,0,0,0,.7-.328,3.168,3.168,0,0,1,.416-.216.923.923,0,0,1,.352-.072.531.531,0,0,1,.432.224.879.879,0,0,1,.176.56.9.9,0,0,1-.12.472,1.081,1.081,0,0,1-.392.36,4.207,4.207,0,0,1-1.152.5A4.953,4.953,0,0,1,65.9.128Zm7.9,0a4.3,4.3,0,0,1-2.1-.5,3.432,3.432,0,0,1-1.4-1.424,4.515,4.515,0,0,1-.5-2.16A4.468,4.468,0,0,1,70.3-6.1,3.444,3.444,0,0,1,71.7-7.52a4.3,4.3,0,0,1,2.1-.5,4.3,4.3,0,0,1,2.1.5A3.394,3.394,0,0,1,77.3-6.1a4.528,4.528,0,0,1,.488,2.152,4.575,4.575,0,0,1-.488,2.16A3.382,3.382,0,0,1,75.912-.368,4.3,4.3,0,0,1,73.808.128Zm-.016-1.552a1.793,1.793,0,0,0,1.488-.64,2.973,2.973,0,0,0,.512-1.888,2.979,2.979,0,0,0-.512-1.88,1.765,1.765,0,0,0-1.472-.648,1.788,1.788,0,0,0-1.48.648,2.946,2.946,0,0,0-.52,1.88,2.973,2.973,0,0,0,.512,1.888A1.775,1.775,0,0,0,73.792-1.424ZM80.432.1a1.034,1.034,0,0,1-.712-.248.9.9,0,0,1-.28-.712v-9.552a.876.876,0,0,1,.28-.7,1.055,1.055,0,0,1,.712-.24,1.087,1.087,0,0,1,.72.24.864.864,0,0,1,.288.7V-.864a.888.888,0,0,1-.288.712A1.064,1.064,0,0,1,80.432.1Zm9.248-8.08a1.03,1.03,0,0,1,.736.256.9.9,0,0,1,.272.688V-.832a.868.868,0,0,1-.28.672A1.037,1.037,0,0,1,89.68.1a.965.965,0,0,1-.688-.24A.856.856,0,0,1,88.736-.8v-.4a2.549,2.549,0,0,1-.992.984,2.867,2.867,0,0,1-1.408.344q-2.88,0-2.88-3.232V-7.04a.9.9,0,0,1,.272-.688,1.008,1.008,0,0,1,.72-.256,1.03,1.03,0,0,1,.736.256.9.9,0,0,1,.272.688v3.952a1.888,1.888,0,0,0,.336,1.232,1.3,1.3,0,0,0,1.056.4,1.722,1.722,0,0,0,1.336-.552,2.087,2.087,0,0,0,.5-1.464V-7.04a.9.9,0,0,1,.272-.688A1.008,1.008,0,0,1,89.68-7.984Zm12.384-.032a2.493,2.493,0,0,1,1.96.76A3.634,3.634,0,0,1,104.7-4.8V-.864a.9.9,0,0,1-.28.712A1.057,1.057,0,0,1,103.7.1a1.034,1.034,0,0,1-.712-.248.9.9,0,0,1-.28-.712V-4.8a1.979,1.979,0,0,0-.312-1.256,1.166,1.166,0,0,0-.952-.376,1.567,1.567,0,0,0-1.248.536,2.162,2.162,0,0,0-.464,1.464V-.864a.9.9,0,0,1-.28.712A1.034,1.034,0,0,1,98.736.1a1.064,1.064,0,0,1-.72-.248.888.888,0,0,1-.288-.712V-4.8a1.979,1.979,0,0,0-.312-1.256,1.166,1.166,0,0,0-.952-.376,1.543,1.543,0,0,0-1.24.536,2.187,2.187,0,0,0-.456,1.464V-.864a.888.888,0,0,1-.288.712A1.064,1.064,0,0,1,93.76.1a1.034,1.034,0,0,1-.712-.248.9.9,0,0,1-.28-.712V-7.056a.845.845,0,0,1,.288-.688,1.087,1.087,0,0,1,.72-.24.992.992,0,0,1,.68.232.837.837,0,0,1,.264.664V-6.7A2.508,2.508,0,0,1,95.7-7.68a2.91,2.91,0,0,1,1.416-.336,2.292,2.292,0,0,1,2.352,1.472,2.644,2.644,0,0,1,1.04-1.072A3.031,3.031,0,0,1,102.064-8.016Zm9.216,0a2.615,2.615,0,0,1,2.1.8,3.628,3.628,0,0,1,.688,2.416V-.864a.935.935,0,0,1-.264.7,1,1,0,0,1-.728.256,1.03,1.03,0,0,1-.736-.256.92.92,0,0,1-.272-.7V-4.688a2.074,2.074,0,0,0-.344-1.328,1.322,1.322,0,0,0-1.08-.416,1.826,1.826,0,0,0-1.384.544,2.019,2.019,0,0,0-.52,1.456V-.864a.92.92,0,0,1-.272.7,1.03,1.03,0,0,1-.736.256A1,1,0,0,1,107-.16a.935.935,0,0,1-.264-.7V-7.056a.88.88,0,0,1,.272-.672,1.03,1.03,0,0,1,.736-.256.953.953,0,0,1,.68.248.848.848,0,0,1,.264.648v.432a2.706,2.706,0,0,1,1.072-1.008A3.226,3.226,0,0,1,111.28-8.016Zm8.208,0a3.259,3.259,0,0,1,2.424.808,3.383,3.383,0,0,1,.792,2.456v3.9a.9.9,0,0,1-.256.68.969.969,0,0,1-.7.248.936.936,0,0,1-.68-.256.894.894,0,0,1-.264-.672V-1.2a2.088,2.088,0,0,1-.856.976,2.568,2.568,0,0,1-1.352.352,3.139,3.139,0,0,1-1.424-.32,2.533,2.533,0,0,1-1.008-.88,2.224,2.224,0,0,1-.368-1.248,1.977,1.977,0,0,1,.44-1.36,2.644,2.644,0,0,1,1.432-.72,13.041,13.041,0,0,1,2.736-.224h.4v-.368a1.638,1.638,0,0,0-.336-1.144,1.43,1.43,0,0,0-1.088-.36,3.452,3.452,0,0,0-.944.136q-.48.136-1.136.392a1.6,1.6,0,0,1-.608.208.6.6,0,0,1-.472-.208.791.791,0,0,1-.184-.544.819.819,0,0,1,.136-.472,1.291,1.291,0,0,1,.456-.376,5.215,5.215,0,0,1,1.336-.48A6.893,6.893,0,0,1,119.488-8.016Zm-.5,6.7a1.709,1.709,0,0,0,1.3-.536,1.939,1.939,0,0,0,.5-1.384v-.336h-.288a11.038,11.038,0,0,0-1.664.1,1.615,1.615,0,0,0-.848.336.856.856,0,0,0-.256.656,1.085,1.085,0,0,0,.36.84A1.27,1.27,0,0,0,118.992-1.312Zm8.576,1.44a5.144,5.144,0,0,1-2.816-.688.954.954,0,0,1-.512-.864.758.758,0,0,1,.176-.52.554.554,0,0,1,.432-.2,1.767,1.767,0,0,1,.752.256,7,7,0,0,0,.936.368,3.812,3.812,0,0,0,1.08.128,2.054,2.054,0,0,0,1.048-.224.694.694,0,0,0,.376-.624.6.6,0,0,0-.152-.432,1.394,1.394,0,0,0-.544-.3,11.44,11.44,0,0,0-1.192-.312,4.58,4.58,0,0,1-2.04-.816,1.816,1.816,0,0,1-.616-1.456,2.1,2.1,0,0,1,.416-1.272,2.7,2.7,0,0,1,1.144-.88,4.168,4.168,0,0,1,1.656-.312,4.963,4.963,0,0,1,1.3.168,3.94,3.94,0,0,1,1.12.488.966.966,0,0,1,.512.848.821.821,0,0,1-.176.536.538.538,0,0,1-.432.216.865.865,0,0,1-.344-.072,4.616,4.616,0,0,1-.424-.216,6.709,6.709,0,0,0-.8-.36,2.5,2.5,0,0,0-.832-.12,1.611,1.611,0,0,0-.936.24.758.758,0,0,0-.344.656.666.666,0,0,0,.352.608,5.041,5.041,0,0,0,1.36.416,7.759,7.759,0,0,1,1.68.512,1.967,1.967,0,0,1,.872.72,2.089,2.089,0,0,1,.264,1.1,2.052,2.052,0,0,1-.9,1.744A4.013,4.013,0,0,1,127.568.128Z" transform="translate(699 1894.002)"/><path class="g" d="M7.968-1.664q.96,0,.96.816,0,.848-.96.848H1.888a.87.87,0,0,1-.656-.248.851.851,0,0,1-.24-.616,1.218,1.218,0,0,1,.368-.864l3.648-3.92A6.316,6.316,0,0,0,5.992-7,2.691,2.691,0,0,0,6.3-8.224a1.492,1.492,0,0,0-.432-1.152,1.748,1.748,0,0,0-1.232-.4,3.376,3.376,0,0,0-1.272.248,6.362,6.362,0,0,0-1.24.68,1.968,1.968,0,0,1-.32.184.774.774,0,0,1-.32.072.587.587,0,0,1-.472-.256.958.958,0,0,1-.2-.608A.92.92,0,0,1,.9-9.872a1.068,1.068,0,0,1,.28-.336A5.545,5.545,0,0,1,2.832-11.1a5.721,5.721,0,0,1,1.888-.328,3.942,3.942,0,0,1,2.632.832,2.782,2.782,0,0,1,.984,2.24A4.136,4.136,0,0,1,7.92-6.52,8.119,8.119,0,0,1,6.512-4.608L3.744-1.664Zm7.184-6.352a3.243,3.243,0,0,1,1.8.512,3.4,3.4,0,0,1,1.232,1.448,5,5,0,0,1,.44,2.152,4.845,4.845,0,0,1-.44,2.128A3.333,3.333,0,0,1,16.96-.368a3.309,3.309,0,0,1-1.808.5,3.1,3.1,0,0,1-1.488-.352A2.47,2.47,0,0,1,12.656-1.2V2.064a.83.83,0,0,1-.272.656,1.048,1.048,0,0,1-.72.24,1.037,1.037,0,0,1-.728-.256.868.868,0,0,1-.28-.672V-7.04a.914.914,0,0,1,.264-.688.979.979,0,0,1,.712-.256,1.008,1.008,0,0,1,.72.256.9.9,0,0,1,.272.688v.4A2.455,2.455,0,0,1,13.64-7.656,3.121,3.121,0,0,1,15.152-8.016Zm-.528,6.592A1.793,1.793,0,0,0,16.1-2.072,2.829,2.829,0,0,0,16.624-3.9,2.989,2.989,0,0,0,16.1-5.792a1.766,1.766,0,0,0-1.472-.672,1.779,1.779,0,0,0-1.48.656,2.952,2.952,0,0,0-.52,1.872,2.923,2.923,0,0,0,.52,1.856A1.779,1.779,0,0,0,14.624-1.424ZM26.9-1.472a.9.9,0,0,1,.288.656.885.885,0,0,1-.272.632.864.864,0,0,1-.64.28.878.878,0,0,1-.688-.336l-2.256-2.5L21.072-.24a.928.928,0,0,1-.688.32.858.858,0,0,1-.624-.272.858.858,0,0,1-.272-.624.9.9,0,0,1,.288-.656l2.336-2.544L19.9-6.416a.9.9,0,0,1-.288-.656.85.85,0,0,1,.272-.632.871.871,0,0,1,.624-.264.928.928,0,0,1,.688.32l2.128,2.336,2.128-2.336a.928.928,0,0,1,.688-.32.862.862,0,0,1,.632.264.862.862,0,0,1,.264.632.9.9,0,0,1-.288.656l-2.208,2.4Z" transform="translate(906 1741)"/><path class="g" d="M8.016-1.664q.96,0,.96.816,0,.848-.96.848H2.608q-.976,0-.976-.848,0-.816.976-.816H4.272v-7.3l-1.536.944a.827.827,0,0,1-.4.128.7.7,0,0,1-.568-.288,1,1,0,0,1-.232-.64.8.8,0,0,1,.416-.72l2.48-1.536a1.782,1.782,0,0,1,.912-.288.973.973,0,0,1,.72.272,1.016,1.016,0,0,1,.272.752v8.672Zm9.552,0q.96,0,.96.816,0,.848-.96.848h-6.08a.87.87,0,0,1-.656-.248.851.851,0,0,1-.24-.616,1.218,1.218,0,0,1,.368-.864l3.648-3.92A6.316,6.316,0,0,0,15.592-7,2.691,2.691,0,0,0,15.9-8.224a1.492,1.492,0,0,0-.432-1.152,1.748,1.748,0,0,0-1.232-.4,3.376,3.376,0,0,0-1.272.248,6.362,6.362,0,0,0-1.24.68,1.968,1.968,0,0,1-.32.184.774.774,0,0,1-.32.072.587.587,0,0,1-.472-.256.958.958,0,0,1-.2-.608.92.92,0,0,1,.088-.416,1.068,1.068,0,0,1,.28-.336,5.545,5.545,0,0,1,1.648-.888,5.721,5.721,0,0,1,1.888-.328,3.942,3.942,0,0,1,2.632.832,2.782,2.782,0,0,1,.984,2.24A4.136,4.136,0,0,1,17.52-6.52a8.119,8.119,0,0,1-1.408,1.912L13.344-1.664Zm7.184-6.352a3.243,3.243,0,0,1,1.8.512,3.4,3.4,0,0,1,1.232,1.448,5,5,0,0,1,.44,2.152,4.845,4.845,0,0,1-.44,2.128A3.333,3.333,0,0,1,26.56-.368a3.309,3.309,0,0,1-1.808.5,3.1,3.1,0,0,1-1.488-.352A2.47,2.47,0,0,1,22.256-1.2V2.064a.83.83,0,0,1-.272.656,1.048,1.048,0,0,1-.72.24,1.037,1.037,0,0,1-.728-.256.868.868,0,0,1-.28-.672V-7.04a.914.914,0,0,1,.264-.688.979.979,0,0,1,.712-.256,1.008,1.008,0,0,1,.72.256.9.9,0,0,1,.272.688v.4A2.455,2.455,0,0,1,23.24-7.656,3.121,3.121,0,0,1,24.752-8.016Zm-.528,6.592A1.793,1.793,0,0,0,25.7-2.072,2.829,2.829,0,0,0,26.224-3.9,2.989,2.989,0,0,0,25.7-5.792a1.766,1.766,0,0,0-1.472-.672,1.779,1.779,0,0,0-1.48.656,2.952,2.952,0,0,0-.52,1.872,2.923,2.923,0,0,0,.52,1.856A1.779,1.779,0,0,0,24.224-1.424ZM36.5-1.472a.9.9,0,0,1,.288.656.885.885,0,0,1-.272.632.864.864,0,0,1-.64.28.878.878,0,0,1-.688-.336l-2.256-2.5L30.672-.24a.928.928,0,0,1-.688.32.858.858,0,0,1-.624-.272.858.858,0,0,1-.272-.624.9.9,0,0,1,.288-.656l2.336-2.544L29.5-6.416a.9.9,0,0,1-.288-.656.85.85,0,0,1,.272-.632.871.871,0,0,1,.624-.264.928.928,0,0,1,.688.32l2.128,2.336,2.128-2.336a.928.928,0,0,1,.688-.32.862.862,0,0,1,.632.264.862.862,0,0,1,.264.632.9.9,0,0,1-.288.656l-2.208,2.4Z" transform="translate(906 1771)"/><path class="g" d="M10.032-11.36a.979.979,0,0,1,.736.28,1.022,1.022,0,0,1,.272.744V-.944a1.033,1.033,0,0,1-.28.752A.97.97,0,0,1,10.032.1.964.964,0,0,1,9.3-.192a1.05,1.05,0,0,1-.272-.752V-4.9H3.248V-.944a1.033,1.033,0,0,1-.28.752A.99.99,0,0,1,2.224.1.97.97,0,0,1,1.5-.192a1.033,1.033,0,0,1-.28-.752v-9.392a1.022,1.022,0,0,1,.272-.744.979.979,0,0,1,.736-.28,1.006,1.006,0,0,1,.744.28,1.006,1.006,0,0,1,.28.744V-6.56H9.024v-3.776A1.022,1.022,0,0,1,9.3-11.08.979.979,0,0,1,10.032-11.36Zm6.656,3.344a3.259,3.259,0,0,1,2.424.808A3.383,3.383,0,0,1,19.9-4.752v3.9a.9.9,0,0,1-.256.68.969.969,0,0,1-.7.248.936.936,0,0,1-.68-.256A.894.894,0,0,1,18-.848V-1.2a2.088,2.088,0,0,1-.856.976,2.568,2.568,0,0,1-1.352.352,3.139,3.139,0,0,1-1.424-.32,2.533,2.533,0,0,1-1.008-.88,2.224,2.224,0,0,1-.368-1.248,1.977,1.977,0,0,1,.44-1.36,2.644,2.644,0,0,1,1.432-.72A13.041,13.041,0,0,1,17.6-4.624H18v-.368a1.638,1.638,0,0,0-.336-1.144,1.43,1.43,0,0,0-1.088-.36,3.452,3.452,0,0,0-.944.136q-.48.136-1.136.392a1.6,1.6,0,0,1-.608.208.6.6,0,0,1-.472-.208.791.791,0,0,1-.184-.544.819.819,0,0,1,.136-.472,1.291,1.291,0,0,1,.456-.376,5.215,5.215,0,0,1,1.336-.48A6.893,6.893,0,0,1,16.688-8.016Zm-.5,6.7a1.709,1.709,0,0,0,1.3-.536A1.939,1.939,0,0,0,18-3.232v-.336h-.288a11.038,11.038,0,0,0-1.664.1,1.616,1.616,0,0,0-.848.336.856.856,0,0,0-.256.656,1.085,1.085,0,0,0,.36.84A1.27,1.27,0,0,0,16.192-1.312ZM24.768.128A5.144,5.144,0,0,1,21.952-.56a.954.954,0,0,1-.512-.864.758.758,0,0,1,.176-.52.554.554,0,0,1,.432-.2,1.767,1.767,0,0,1,.752.256,7,7,0,0,0,.936.368,3.812,3.812,0,0,0,1.08.128,2.054,2.054,0,0,0,1.048-.224.694.694,0,0,0,.376-.624.6.6,0,0,0-.152-.432,1.394,1.394,0,0,0-.544-.3,11.44,11.44,0,0,0-1.192-.312,4.58,4.58,0,0,1-2.04-.816A1.816,1.816,0,0,1,21.7-5.552a2.1,2.1,0,0,1,.416-1.272,2.7,2.7,0,0,1,1.144-.88,4.168,4.168,0,0,1,1.656-.312,4.963,4.963,0,0,1,1.3.168,3.94,3.94,0,0,1,1.12.488.966.966,0,0,1,.512.848.821.821,0,0,1-.176.536.538.538,0,0,1-.432.216.865.865,0,0,1-.344-.072,4.616,4.616,0,0,1-.424-.216,6.709,6.709,0,0,0-.8-.36,2.5,2.5,0,0,0-.832-.12,1.611,1.611,0,0,0-.936.24.758.758,0,0,0-.344.656.666.666,0,0,0,.352.608,5.041,5.041,0,0,0,1.36.416,7.76,7.76,0,0,1,1.68.512,1.968,1.968,0,0,1,.872.72,2.089,2.089,0,0,1,.264,1.1,2.052,2.052,0,0,1-.9,1.744A4.013,4.013,0,0,1,24.768.128Zm8.912-1.52q.8.048.8.72a.651.651,0,0,1-.312.584A1.489,1.489,0,0,1,33.28.08L32.848.048a2.574,2.574,0,0,1-2.688-2.88V-6.32h-.8a1.016,1.016,0,0,1-.664-.192.685.685,0,0,1-.232-.56.685.685,0,0,1,.232-.56,1.016,1.016,0,0,1,.664-.192h.8V-9.3a.9.9,0,0,1,.272-.688,1.03,1.03,0,0,1,.736-.256,1.008,1.008,0,0,1,.72.256.9.9,0,0,1,.272.688v1.472h1.36a1.016,1.016,0,0,1,.664.192.685.685,0,0,1,.232.56.685.685,0,0,1-.232.56,1.016,1.016,0,0,1-.664.192H32.16v3.632q0,1.184,1.088,1.264Zm5.232-6.624a3.259,3.259,0,0,1,2.424.808,3.383,3.383,0,0,1,.792,2.456v3.9a.9.9,0,0,1-.256.68.969.969,0,0,1-.7.248.936.936,0,0,1-.68-.256.894.894,0,0,1-.264-.672V-1.2a2.088,2.088,0,0,1-.856.976,2.568,2.568,0,0,1-1.352.352,3.139,3.139,0,0,1-1.424-.32,2.533,2.533,0,0,1-1.008-.88,2.224,2.224,0,0,1-.368-1.248,1.977,1.977,0,0,1,.44-1.36,2.644,2.644,0,0,1,1.432-.72,13.041,13.041,0,0,1,2.736-.224h.4v-.368a1.638,1.638,0,0,0-.336-1.144A1.43,1.43,0,0,0,38.8-6.5a3.452,3.452,0,0,0-.944.136q-.48.136-1.136.392a1.6,1.6,0,0,1-.608.208.6.6,0,0,1-.472-.208.791.791,0,0,1-.184-.544.819.819,0,0,1,.136-.472,1.291,1.291,0,0,1,.456-.376,5.215,5.215,0,0,1,1.336-.48A6.893,6.893,0,0,1,38.912-8.016Zm-.5,6.7a1.709,1.709,0,0,0,1.3-.536,1.939,1.939,0,0,0,.5-1.384v-.336h-.288a11.038,11.038,0,0,0-1.664.1,1.616,1.616,0,0,0-.848.336.856.856,0,0,0-.256.656,1.085,1.085,0,0,0,.36.84A1.27,1.27,0,0,0,38.416-1.312Zm16.272-.832a.538.538,0,0,1,.44.208.865.865,0,0,1,.168.56.97.97,0,0,1-.592.832,5.349,5.349,0,0,1-1.232.488A5.079,5.079,0,0,1,52.16.128,4.077,4.077,0,0,1,49.168-.96a3.988,3.988,0,0,1-1.1-2.976,4.566,4.566,0,0,1,.48-2.128A3.49,3.49,0,0,1,49.9-7.5a3.829,3.829,0,0,1,1.976-.512,3.546,3.546,0,0,1,1.84.464A3.146,3.146,0,0,1,54.928-6.24a4.354,4.354,0,0,1,.432,2q0,.688-.608.688h-4.72a2.517,2.517,0,0,0,.624,1.624,2.1,2.1,0,0,0,1.536.52,2.913,2.913,0,0,0,.9-.128,8.923,8.923,0,0,0,.888-.352A1.766,1.766,0,0,1,54.688-2.144ZM51.92-6.608a1.717,1.717,0,0,0-1.3.512,2.417,2.417,0,0,0-.584,1.472h3.616a2.281,2.281,0,0,0-.48-1.48A1.583,1.583,0,0,0,51.92-6.608ZM57.984.1a1.034,1.034,0,0,1-.712-.248.9.9,0,0,1-.28-.712v-9.552a.876.876,0,0,1,.28-.7,1.055,1.055,0,0,1,.712-.24,1.087,1.087,0,0,1,.72.24.864.864,0,0,1,.288.7V-.864a.888.888,0,0,1-.288.712A1.064,1.064,0,0,1,57.984.1Zm16.7-8.112a2.493,2.493,0,0,1,1.96.76,3.634,3.634,0,0,1,.68,2.456V-.864a.9.9,0,0,1-.28.712A1.057,1.057,0,0,1,76.32.1a1.034,1.034,0,0,1-.712-.248.9.9,0,0,1-.28-.712V-4.8a1.979,1.979,0,0,0-.312-1.256,1.166,1.166,0,0,0-.952-.376,1.567,1.567,0,0,0-1.248.536,2.162,2.162,0,0,0-.464,1.464V-.864a.9.9,0,0,1-.28.712A1.034,1.034,0,0,1,71.36.1a1.064,1.064,0,0,1-.72-.248.888.888,0,0,1-.288-.712V-4.8a1.979,1.979,0,0,0-.312-1.256,1.166,1.166,0,0,0-.952-.376,1.543,1.543,0,0,0-1.24.536,2.187,2.187,0,0,0-.456,1.464V-.864a.888.888,0,0,1-.288.712,1.064,1.064,0,0,1-.72.248,1.034,1.034,0,0,1-.712-.248.9.9,0,0,1-.28-.712V-7.056a.845.845,0,0,1,.288-.688,1.087,1.087,0,0,1,.72-.24.992.992,0,0,1,.68.232.837.837,0,0,1,.264.664V-6.7a2.508,2.508,0,0,1,.984-.976,2.91,2.91,0,0,1,1.416-.336A2.292,2.292,0,0,1,72.1-6.544a2.644,2.644,0,0,1,1.04-1.072A3.031,3.031,0,0,1,74.688-8.016Zm8.064,0a3.259,3.259,0,0,1,2.424.808,3.383,3.383,0,0,1,.792,2.456v3.9a.9.9,0,0,1-.256.68.969.969,0,0,1-.7.248.936.936,0,0,1-.68-.256.894.894,0,0,1-.264-.672V-1.2a2.088,2.088,0,0,1-.856.976,2.568,2.568,0,0,1-1.352.352,3.139,3.139,0,0,1-1.424-.32,2.533,2.533,0,0,1-1.008-.88,2.224,2.224,0,0,1-.368-1.248,1.977,1.977,0,0,1,.44-1.36,2.644,2.644,0,0,1,1.432-.72,13.041,13.041,0,0,1,2.736-.224h.4v-.368a1.638,1.638,0,0,0-.336-1.144A1.43,1.43,0,0,0,82.64-6.5a3.452,3.452,0,0,0-.944.136q-.48.136-1.136.392a1.6,1.6,0,0,1-.608.208.6.6,0,0,1-.472-.208.791.791,0,0,1-.184-.544.819.819,0,0,1,.136-.472,1.291,1.291,0,0,1,.456-.376,5.215,5.215,0,0,1,1.336-.48A6.893,6.893,0,0,1,82.752-8.016Zm-.5,6.7a1.709,1.709,0,0,0,1.3-.536,1.939,1.939,0,0,0,.5-1.384v-.336h-.288a11.038,11.038,0,0,0-1.664.1,1.615,1.615,0,0,0-.848.336.856.856,0,0,0-.256.656,1.085,1.085,0,0,0,.36.84A1.27,1.27,0,0,0,82.256-1.312ZM92.368-7.984a.861.861,0,0,1,.656.176.781.781,0,0,1,.24.624.872.872,0,0,1-.208.64,1.278,1.278,0,0,1-.752.272l-.48.048a1.944,1.944,0,0,0-1.384.64A2.093,2.093,0,0,0,90-4.224v3.36a.888.888,0,0,1-.288.712,1.064,1.064,0,0,1-.72.248,1.034,1.034,0,0,1-.712-.248A.9.9,0,0,1,88-.864V-7.056a.856.856,0,0,1,.28-.688,1.032,1.032,0,0,1,.7-.24.962.962,0,0,1,.672.232.85.85,0,0,1,.256.664v.64a2.368,2.368,0,0,1,.9-1.088,2.771,2.771,0,0,1,1.336-.432Zm8.224,0a1.008,1.008,0,0,1,.72.256.9.9,0,0,1,.272.688V-.72a3.6,3.6,0,0,1-1.024,2.784,4.317,4.317,0,0,1-3.024.944,5.88,5.88,0,0,1-2.912-.656,1,1,0,0,1-.592-.848A.865.865,0,0,1,94.2.944a.538.538,0,0,1,.44-.208,1.113,1.113,0,0,1,.352.072q.208.072.432.168a9.172,9.172,0,0,0,1.032.368,3.888,3.888,0,0,0,1.048.128A1.832,1.832,0,0,0,99.6-.576V-1.6A2.443,2.443,0,0,1,98.576-.584a3.2,3.2,0,0,1-1.536.36,3.391,3.391,0,0,1-1.816-.488,3.354,3.354,0,0,1-1.24-1.368,4.419,4.419,0,0,1-.448-2.032,4.537,4.537,0,0,1,.44-2.04,3.271,3.271,0,0,1,1.24-1.376,3.432,3.432,0,0,1,1.824-.488,3.2,3.2,0,0,1,1.536.36A2.443,2.443,0,0,1,99.6-6.64v-.416a.88.88,0,0,1,.272-.672A1.008,1.008,0,0,1,100.592-7.984ZM97.568-1.776a1.866,1.866,0,0,0,1.5-.624A2.542,2.542,0,0,0,99.6-4.112a2.568,2.568,0,0,0-.536-1.728,1.866,1.866,0,0,0-1.5-.624,1.872,1.872,0,0,0-1.488.624,2.543,2.543,0,0,0-.544,1.728A2.517,2.517,0,0,0,96.08-2.4,1.872,1.872,0,0,0,97.568-1.776Zm12.272-.368a.538.538,0,0,1,.44.208.866.866,0,0,1,.168.56.97.97,0,0,1-.592.832,5.349,5.349,0,0,1-1.232.488,5.079,5.079,0,0,1-1.312.184A4.077,4.077,0,0,1,104.32-.96a3.988,3.988,0,0,1-1.1-2.976,4.566,4.566,0,0,1,.48-2.128,3.49,3.49,0,0,1,1.352-1.44,3.829,3.829,0,0,1,1.976-.512,3.546,3.546,0,0,1,1.84.464A3.146,3.146,0,0,1,110.08-6.24a4.353,4.353,0,0,1,.432,2q0,.688-.608.688h-4.72a2.517,2.517,0,0,0,.624,1.624,2.1,2.1,0,0,0,1.536.52,2.913,2.913,0,0,0,.9-.128,8.923,8.923,0,0,0,.888-.352A1.766,1.766,0,0,1,109.84-2.144Zm-2.768-4.464a1.717,1.717,0,0,0-1.3.512,2.417,2.417,0,0,0-.584,1.472H108.8a2.281,2.281,0,0,0-.48-1.48A1.583,1.583,0,0,0,107.072-6.608Zm9.616-1.408a2.615,2.615,0,0,1,2.1.8,3.628,3.628,0,0,1,.688,2.416V-.864a.935.935,0,0,1-.264.7A1,1,0,0,1,118.48.1a1.03,1.03,0,0,1-.736-.256.92.92,0,0,1-.272-.7V-4.688a2.074,2.074,0,0,0-.344-1.328,1.322,1.322,0,0,0-1.08-.416,1.826,1.826,0,0,0-1.384.544,2.019,2.019,0,0,0-.52,1.456V-.864a.92.92,0,0,1-.272.7,1.03,1.03,0,0,1-.736.256,1,1,0,0,1-.728-.256.935.935,0,0,1-.264-.7V-7.056a.88.88,0,0,1,.272-.672,1.03,1.03,0,0,1,.736-.256.953.953,0,0,1,.68.248.848.848,0,0,1,.264.648v.432a2.706,2.706,0,0,1,1.072-1.008A3.226,3.226,0,0,1,116.688-8.016Z" transform="translate(524 1653.002)"/><path class="g" d="M10.032-11.36a.979.979,0,0,1,.736.28,1.022,1.022,0,0,1,.272.744V-.944a1.033,1.033,0,0,1-.28.752A.97.97,0,0,1,10.032.1.964.964,0,0,1,9.3-.192a1.05,1.05,0,0,1-.272-.752V-4.9H3.248V-.944a1.033,1.033,0,0,1-.28.752A.99.99,0,0,1,2.224.1.97.97,0,0,1,1.5-.192a1.033,1.033,0,0,1-.28-.752v-9.392a1.022,1.022,0,0,1,.272-.744.979.979,0,0,1,.736-.28,1.006,1.006,0,0,1,.744.28,1.006,1.006,0,0,1,.28.744V-6.56H9.024v-3.776A1.022,1.022,0,0,1,9.3-11.08.979.979,0,0,1,10.032-11.36Zm6.656,3.344a3.259,3.259,0,0,1,2.424.808A3.383,3.383,0,0,1,19.9-4.752v3.9a.9.9,0,0,1-.256.68.969.969,0,0,1-.7.248.936.936,0,0,1-.68-.256A.894.894,0,0,1,18-.848V-1.2a2.088,2.088,0,0,1-.856.976,2.568,2.568,0,0,1-1.352.352,3.139,3.139,0,0,1-1.424-.32,2.533,2.533,0,0,1-1.008-.88,2.224,2.224,0,0,1-.368-1.248,1.977,1.977,0,0,1,.44-1.36,2.644,2.644,0,0,1,1.432-.72A13.041,13.041,0,0,1,17.6-4.624H18v-.368a1.638,1.638,0,0,0-.336-1.144,1.43,1.43,0,0,0-1.088-.36,3.452,3.452,0,0,0-.944.136q-.48.136-1.136.392a1.6,1.6,0,0,1-.608.208.6.6,0,0,1-.472-.208.791.791,0,0,1-.184-.544.819.819,0,0,1,.136-.472,1.291,1.291,0,0,1,.456-.376,5.215,5.215,0,0,1,1.336-.48A6.893,6.893,0,0,1,16.688-8.016Zm-.5,6.7a1.709,1.709,0,0,0,1.3-.536A1.939,1.939,0,0,0,18-3.232v-.336h-.288a11.038,11.038,0,0,0-1.664.1,1.616,1.616,0,0,0-.848.336.856.856,0,0,0-.256.656,1.085,1.085,0,0,0,.36.84A1.27,1.27,0,0,0,16.192-1.312ZM24.768.128A5.144,5.144,0,0,1,21.952-.56a.954.954,0,0,1-.512-.864.758.758,0,0,1,.176-.52.554.554,0,0,1,.432-.2,1.767,1.767,0,0,1,.752.256,7,7,0,0,0,.936.368,3.812,3.812,0,0,0,1.08.128,2.054,2.054,0,0,0,1.048-.224.694.694,0,0,0,.376-.624.6.6,0,0,0-.152-.432,1.394,1.394,0,0,0-.544-.3,11.44,11.44,0,0,0-1.192-.312,4.58,4.58,0,0,1-2.04-.816A1.816,1.816,0,0,1,21.7-5.552a2.1,2.1,0,0,1,.416-1.272,2.7,2.7,0,0,1,1.144-.88,4.168,4.168,0,0,1,1.656-.312,4.963,4.963,0,0,1,1.3.168,3.94,3.94,0,0,1,1.12.488.966.966,0,0,1,.512.848.821.821,0,0,1-.176.536.538.538,0,0,1-.432.216.865.865,0,0,1-.344-.072,4.616,4.616,0,0,1-.424-.216,6.709,6.709,0,0,0-.8-.36,2.5,2.5,0,0,0-.832-.12,1.611,1.611,0,0,0-.936.24.758.758,0,0,0-.344.656.666.666,0,0,0,.352.608,5.041,5.041,0,0,0,1.36.416,7.76,7.76,0,0,1,1.68.512,1.968,1.968,0,0,1,.872.72,2.089,2.089,0,0,1,.264,1.1,2.052,2.052,0,0,1-.9,1.744A4.013,4.013,0,0,1,24.768.128Zm8.912-1.52q.8.048.8.72a.651.651,0,0,1-.312.584A1.489,1.489,0,0,1,33.28.08L32.848.048a2.574,2.574,0,0,1-2.688-2.88V-6.32h-.8a1.016,1.016,0,0,1-.664-.192.685.685,0,0,1-.232-.56.685.685,0,0,1,.232-.56,1.016,1.016,0,0,1,.664-.192h.8V-9.3a.9.9,0,0,1,.272-.688,1.03,1.03,0,0,1,.736-.256,1.008,1.008,0,0,1,.72.256.9.9,0,0,1,.272.688v1.472h1.36a1.016,1.016,0,0,1,.664.192.685.685,0,0,1,.232.56.685.685,0,0,1-.232.56,1.016,1.016,0,0,1-.664.192H32.16v3.632q0,1.184,1.088,1.264Zm5.232-6.624a3.259,3.259,0,0,1,2.424.808,3.383,3.383,0,0,1,.792,2.456v3.9a.9.9,0,0,1-.256.68.969.969,0,0,1-.7.248.936.936,0,0,1-.68-.256.894.894,0,0,1-.264-.672V-1.2a2.088,2.088,0,0,1-.856.976,2.568,2.568,0,0,1-1.352.352,3.139,3.139,0,0,1-1.424-.32,2.533,2.533,0,0,1-1.008-.88,2.224,2.224,0,0,1-.368-1.248,1.977,1.977,0,0,1,.44-1.36,2.644,2.644,0,0,1,1.432-.72,13.041,13.041,0,0,1,2.736-.224h.4v-.368a1.638,1.638,0,0,0-.336-1.144A1.43,1.43,0,0,0,38.8-6.5a3.452,3.452,0,0,0-.944.136q-.48.136-1.136.392a1.6,1.6,0,0,1-.608.208.6.6,0,0,1-.472-.208.791.791,0,0,1-.184-.544.819.819,0,0,1,.136-.472,1.291,1.291,0,0,1,.456-.376,5.215,5.215,0,0,1,1.336-.48A6.893,6.893,0,0,1,38.912-8.016Zm-.5,6.7a1.709,1.709,0,0,0,1.3-.536,1.939,1.939,0,0,0,.5-1.384v-.336h-.288a11.038,11.038,0,0,0-1.664.1,1.616,1.616,0,0,0-.848.336.856.856,0,0,0-.256.656,1.085,1.085,0,0,0,.36.84A1.27,1.27,0,0,0,38.416-1.312Zm16.272-.832a.538.538,0,0,1,.44.208.865.865,0,0,1,.168.56.97.97,0,0,1-.592.832,5.349,5.349,0,0,1-1.232.488A5.079,5.079,0,0,1,52.16.128,4.077,4.077,0,0,1,49.168-.96a3.988,3.988,0,0,1-1.1-2.976,4.566,4.566,0,0,1,.48-2.128A3.49,3.49,0,0,1,49.9-7.5a3.829,3.829,0,0,1,1.976-.512,3.546,3.546,0,0,1,1.84.464A3.146,3.146,0,0,1,54.928-6.24a4.354,4.354,0,0,1,.432,2q0,.688-.608.688h-4.72a2.517,2.517,0,0,0,.624,1.624,2.1,2.1,0,0,0,1.536.52,2.913,2.913,0,0,0,.9-.128,8.923,8.923,0,0,0,.888-.352A1.766,1.766,0,0,1,54.688-2.144ZM51.92-6.608a1.717,1.717,0,0,0-1.3.512,2.417,2.417,0,0,0-.584,1.472h3.616a2.281,2.281,0,0,0-.48-1.48A1.583,1.583,0,0,0,51.92-6.608ZM57.984.1a1.034,1.034,0,0,1-.712-.248.9.9,0,0,1-.28-.712v-9.552a.876.876,0,0,1,.28-.7,1.055,1.055,0,0,1,.712-.24,1.087,1.087,0,0,1,.72.24.864.864,0,0,1,.288.7V-.864a.888.888,0,0,1-.288.712A1.064,1.064,0,0,1,57.984.1Zm16.7-8.112a2.493,2.493,0,0,1,1.96.76,3.634,3.634,0,0,1,.68,2.456V-.864a.9.9,0,0,1-.28.712A1.057,1.057,0,0,1,76.32.1a1.034,1.034,0,0,1-.712-.248.9.9,0,0,1-.28-.712V-4.8a1.979,1.979,0,0,0-.312-1.256,1.166,1.166,0,0,0-.952-.376,1.567,1.567,0,0,0-1.248.536,2.162,2.162,0,0,0-.464,1.464V-.864a.9.9,0,0,1-.28.712A1.034,1.034,0,0,1,71.36.1a1.064,1.064,0,0,1-.72-.248.888.888,0,0,1-.288-.712V-4.8a1.979,1.979,0,0,0-.312-1.256,1.166,1.166,0,0,0-.952-.376,1.543,1.543,0,0,0-1.24.536,2.187,2.187,0,0,0-.456,1.464V-.864a.888.888,0,0,1-.288.712,1.064,1.064,0,0,1-.72.248,1.034,1.034,0,0,1-.712-.248.9.9,0,0,1-.28-.712V-7.056a.845.845,0,0,1,.288-.688,1.087,1.087,0,0,1,.72-.24.992.992,0,0,1,.68.232.837.837,0,0,1,.264.664V-6.7a2.508,2.508,0,0,1,.984-.976,2.91,2.91,0,0,1,1.416-.336A2.292,2.292,0,0,1,72.1-6.544a2.644,2.644,0,0,1,1.04-1.072A3.031,3.031,0,0,1,74.688-8.016Zm8.064,0a3.259,3.259,0,0,1,2.424.808,3.383,3.383,0,0,1,.792,2.456v3.9a.9.9,0,0,1-.256.68.969.969,0,0,1-.7.248.936.936,0,0,1-.68-.256.894.894,0,0,1-.264-.672V-1.2a2.088,2.088,0,0,1-.856.976,2.568,2.568,0,0,1-1.352.352,3.139,3.139,0,0,1-1.424-.32,2.533,2.533,0,0,1-1.008-.88,2.224,2.224,0,0,1-.368-1.248,1.977,1.977,0,0,1,.44-1.36,2.644,2.644,0,0,1,1.432-.72,13.041,13.041,0,0,1,2.736-.224h.4v-.368a1.638,1.638,0,0,0-.336-1.144A1.43,1.43,0,0,0,82.64-6.5a3.452,3.452,0,0,0-.944.136q-.48.136-1.136.392a1.6,1.6,0,0,1-.608.208.6.6,0,0,1-.472-.208.791.791,0,0,1-.184-.544.819.819,0,0,1,.136-.472,1.291,1.291,0,0,1,.456-.376,5.215,5.215,0,0,1,1.336-.48A6.893,6.893,0,0,1,82.752-8.016Zm-.5,6.7a1.709,1.709,0,0,0,1.3-.536,1.939,1.939,0,0,0,.5-1.384v-.336h-.288a11.038,11.038,0,0,0-1.664.1,1.615,1.615,0,0,0-.848.336.856.856,0,0,0-.256.656,1.085,1.085,0,0,0,.36.84A1.27,1.27,0,0,0,82.256-1.312ZM92.368-7.984a.861.861,0,0,1,.656.176.781.781,0,0,1,.24.624.872.872,0,0,1-.208.64,1.278,1.278,0,0,1-.752.272l-.48.048a1.944,1.944,0,0,0-1.384.64A2.093,2.093,0,0,0,90-4.224v3.36a.888.888,0,0,1-.288.712,1.064,1.064,0,0,1-.72.248,1.034,1.034,0,0,1-.712-.248A.9.9,0,0,1,88-.864V-7.056a.856.856,0,0,1,.28-.688,1.032,1.032,0,0,1,.7-.24.962.962,0,0,1,.672.232.85.85,0,0,1,.256.664v.64a2.368,2.368,0,0,1,.9-1.088,2.771,2.771,0,0,1,1.336-.432Zm8.224,0a1.008,1.008,0,0,1,.72.256.9.9,0,0,1,.272.688V-.72a3.6,3.6,0,0,1-1.024,2.784,4.317,4.317,0,0,1-3.024.944,5.88,5.88,0,0,1-2.912-.656,1,1,0,0,1-.592-.848A.865.865,0,0,1,94.2.944a.538.538,0,0,1,.44-.208,1.113,1.113,0,0,1,.352.072q.208.072.432.168a9.172,9.172,0,0,0,1.032.368,3.888,3.888,0,0,0,1.048.128A1.832,1.832,0,0,0,99.6-.576V-1.6A2.443,2.443,0,0,1,98.576-.584a3.2,3.2,0,0,1-1.536.36,3.391,3.391,0,0,1-1.816-.488,3.354,3.354,0,0,1-1.24-1.368,4.419,4.419,0,0,1-.448-2.032,4.537,4.537,0,0,1,.44-2.04,3.271,3.271,0,0,1,1.24-1.376,3.432,3.432,0,0,1,1.824-.488,3.2,3.2,0,0,1,1.536.36A2.443,2.443,0,0,1,99.6-6.64v-.416a.88.88,0,0,1,.272-.672A1.008,1.008,0,0,1,100.592-7.984ZM97.568-1.776a1.866,1.866,0,0,0,1.5-.624A2.542,2.542,0,0,0,99.6-4.112a2.568,2.568,0,0,0-.536-1.728,1.866,1.866,0,0,0-1.5-.624,1.872,1.872,0,0,0-1.488.624,2.543,2.543,0,0,0-.544,1.728A2.517,2.517,0,0,0,96.08-2.4,1.872,1.872,0,0,0,97.568-1.776Zm12.272-.368a.538.538,0,0,1,.44.208.866.866,0,0,1,.168.56.97.97,0,0,1-.592.832,5.349,5.349,0,0,1-1.232.488,5.079,5.079,0,0,1-1.312.184A4.077,4.077,0,0,1,104.32-.96a3.988,3.988,0,0,1-1.1-2.976,4.566,4.566,0,0,1,.48-2.128,3.49,3.49,0,0,1,1.352-1.44,3.829,3.829,0,0,1,1.976-.512,3.546,3.546,0,0,1,1.84.464A3.146,3.146,0,0,1,110.08-6.24a4.353,4.353,0,0,1,.432,2q0,.688-.608.688h-4.72a2.517,2.517,0,0,0,.624,1.624,2.1,2.1,0,0,0,1.536.52,2.913,2.913,0,0,0,.9-.128,8.923,8.923,0,0,0,.888-.352A1.766,1.766,0,0,1,109.84-2.144Zm-2.768-4.464a1.717,1.717,0,0,0-1.3.512,2.417,2.417,0,0,0-.584,1.472H108.8a2.281,2.281,0,0,0-.48-1.48A1.583,1.583,0,0,0,107.072-6.608Zm9.616-1.408a2.615,2.615,0,0,1,2.1.8,3.628,3.628,0,0,1,.688,2.416V-.864a.935.935,0,0,1-.264.7A1,1,0,0,1,118.48.1a1.03,1.03,0,0,1-.736-.256.92.92,0,0,1-.272-.7V-4.688a2.074,2.074,0,0,0-.344-1.328,1.322,1.322,0,0,0-1.08-.416,1.826,1.826,0,0,0-1.384.544,2.019,2.019,0,0,0-.52,1.456V-.864a.92.92,0,0,1-.272.7,1.03,1.03,0,0,1-.736.256,1,1,0,0,1-.728-.256.935.935,0,0,1-.264-.7V-7.056a.88.88,0,0,1,.272-.672,1.03,1.03,0,0,1,.736-.256.953.953,0,0,1,.68.248.848.848,0,0,1,.264.648v.432a2.706,2.706,0,0,1,1.072-1.008A3.226,3.226,0,0,1,116.688-8.016Z" transform="translate(1002 1649.002)"/><g transform="translate(-32.285 2549.518) rotate(-90)"><line class="h" x2="242.786" transform="translate(680 687.5) rotate(90)"/><path class="h" d="M0,0V3.033" transform="translate(680 930.285) rotate(-90)"/><path class="h" d="M0,0V3.033" transform="translate(680.001 687.286) rotate(-90)"/></g><g transform="translate(1341.286 983) rotate(90)"><line class="h" x2="140.787" transform="translate(680 687.5) rotate(90)"/><path class="h" d="M0,0V3.033" transform="translate(680 828.286) rotate(-90)"/><path class="h" d="M0,0V3.033" transform="translate(680.001 687.286) rotate(-90)"/></g><g transform="translate(1912.287 983) rotate(90)"><line class="h" x2="326.787" transform="translate(680 687.5) rotate(90)"/><path class="h" d="M0,0V3.033" transform="translate(680 1014.287) rotate(-90)"/><path class="h" d="M0,0V3.033" transform="translate(680.001 687.286) rotate(-90)"/></g><g transform="translate(654 1736)"><rect class="i" width="2" height="244" transform="translate(244) rotate(90)"/><path class="j" d="M0,243.994V0" transform="translate(243.994 1.993) rotate(90)"/><path class="j" d="M0,243.994V0" transform="translate(243.994) rotate(90)"/></g><g transform="translate(654 1760)"><rect class="i" width="12" height="244" transform="translate(244) rotate(90)"/><path class="j" d="M0,243.994V0" transform="translate(243.994 11.955) rotate(90)"/><path class="j" d="M0,243.994V0" transform="translate(243.994) rotate(90)"/></g><path class="g" d="M8.016-1.664q.96,0,.96.816,0,.848-.96.848H2.608q-.976,0-.976-.848,0-.816.976-.816H4.272v-7.3l-1.536.944a.827.827,0,0,1-.4.128.7.7,0,0,1-.568-.288,1,1,0,0,1-.232-.64.8.8,0,0,1,.416-.72l2.48-1.536a1.782,1.782,0,0,1,.912-.288.973.973,0,0,1,.72.272,1.016,1.016,0,0,1,.272.752v8.672Zm7.072-5.568a3.5,3.5,0,0,1,1.792.456A3.181,3.181,0,0,1,18.1-5.5a3.929,3.929,0,0,1,.44,1.88,3.855,3.855,0,0,1-.488,1.944A3.479,3.479,0,0,1,16.712-.336a3.906,3.906,0,0,1-1.944.48,3.989,3.989,0,0,1-3.3-1.448A6.474,6.474,0,0,1,10.3-5.44a8.527,8.527,0,0,1,.544-3.192,4.529,4.529,0,0,1,1.56-2.072,4.03,4.03,0,0,1,2.392-.72,5.426,5.426,0,0,1,1.832.328,4.773,4.773,0,0,1,1.56.888,1.2,1.2,0,0,1,.3.344.87.87,0,0,1,.088.408.926.926,0,0,1-.2.6.592.592,0,0,1-.472.248.831.831,0,0,1-.3-.056,2.284,2.284,0,0,1-.352-.184,4.3,4.3,0,0,0-2.368-.928A2.071,2.071,0,0,0,13.04-8.7a5.933,5.933,0,0,0-.7,3.032,2.745,2.745,0,0,1,1.1-1.144A3.241,3.241,0,0,1,15.088-7.232Zm-.432,5.744a1.83,1.83,0,0,0,1.408-.568,2.109,2.109,0,0,0,.528-1.5,2.08,2.08,0,0,0-.528-1.488,1.844,1.844,0,0,0-1.408-.56,1.928,1.928,0,0,0-1.448.568,2.034,2.034,0,0,0-.552,1.48,2.055,2.055,0,0,0,.552,1.5A1.928,1.928,0,0,0,14.656-1.488Zm10.08-6.528a3.243,3.243,0,0,1,1.8.512,3.4,3.4,0,0,1,1.232,1.448,5,5,0,0,1,.44,2.152,4.845,4.845,0,0,1-.44,2.128A3.333,3.333,0,0,1,26.544-.368a3.309,3.309,0,0,1-1.808.5,3.1,3.1,0,0,1-1.488-.352A2.47,2.47,0,0,1,22.24-1.2V2.064a.83.83,0,0,1-.272.656,1.048,1.048,0,0,1-.72.24A1.037,1.037,0,0,1,20.52,2.7a.868.868,0,0,1-.28-.672V-7.04a.914.914,0,0,1,.264-.688.979.979,0,0,1,.712-.256,1.008,1.008,0,0,1,.72.256.9.9,0,0,1,.272.688v.4a2.455,2.455,0,0,1,1.016-1.016A3.121,3.121,0,0,1,24.736-8.016Zm-.528,6.592a1.793,1.793,0,0,0,1.472-.648A2.829,2.829,0,0,0,26.208-3.9a2.989,2.989,0,0,0-.528-1.888,1.766,1.766,0,0,0-1.472-.672,1.779,1.779,0,0,0-1.48.656,2.952,2.952,0,0,0-.52,1.872,2.923,2.923,0,0,0,.52,1.856A1.779,1.779,0,0,0,24.208-1.424ZM36.48-1.472a.9.9,0,0,1,.288.656.885.885,0,0,1-.272.632.864.864,0,0,1-.64.28.878.878,0,0,1-.688-.336l-2.256-2.5L30.656-.24a.928.928,0,0,1-.688.32.858.858,0,0,1-.624-.272.858.858,0,0,1-.272-.624.9.9,0,0,1,.288-.656L31.7-4.016l-2.208-2.4a.9.9,0,0,1-.288-.656.85.85,0,0,1,.272-.632.871.871,0,0,1,.624-.264.928.928,0,0,1,.688.32l2.128,2.336L35.04-7.648a.928.928,0,0,1,.688-.32.862.862,0,0,1,.632.264.862.862,0,0,1,.264.632.9.9,0,0,1-.288.656l-2.208,2.4Z" transform="translate(731 1810)"/><path class="g" d="M5.488-7.232a3.5,3.5,0,0,1,1.792.456A3.181,3.181,0,0,1,8.5-5.5a3.929,3.929,0,0,1,.44,1.88,3.855,3.855,0,0,1-.488,1.944A3.479,3.479,0,0,1,7.112-.336a3.906,3.906,0,0,1-1.944.48A3.989,3.989,0,0,1,1.864-1.3,6.474,6.474,0,0,1,.7-5.44a8.527,8.527,0,0,1,.544-3.192A4.529,4.529,0,0,1,2.808-10.7a4.03,4.03,0,0,1,2.392-.72,5.426,5.426,0,0,1,1.832.328,4.773,4.773,0,0,1,1.56.888,1.2,1.2,0,0,1,.3.344.87.87,0,0,1,.088.408.926.926,0,0,1-.2.6.592.592,0,0,1-.472.248A.831.831,0,0,1,8-8.664a2.284,2.284,0,0,1-.352-.184A4.3,4.3,0,0,0,5.28-9.776,2.071,2.071,0,0,0,3.44-8.7a5.933,5.933,0,0,0-.7,3.032,2.745,2.745,0,0,1,1.1-1.144A3.241,3.241,0,0,1,5.488-7.232ZM5.056-1.488a1.83,1.83,0,0,0,1.408-.568,2.109,2.109,0,0,0,.528-1.5A2.08,2.08,0,0,0,6.464-5.04,1.844,1.844,0,0,0,5.056-5.6a1.928,1.928,0,0,0-1.448.568,2.034,2.034,0,0,0-.552,1.48,2.055,2.055,0,0,0,.552,1.5A1.928,1.928,0,0,0,5.056-1.488Zm10.08-6.528a3.243,3.243,0,0,1,1.8.512,3.4,3.4,0,0,1,1.232,1.448,5,5,0,0,1,.44,2.152,4.845,4.845,0,0,1-.44,2.128A3.333,3.333,0,0,1,16.944-.368a3.309,3.309,0,0,1-1.808.5,3.1,3.1,0,0,1-1.488-.352A2.47,2.47,0,0,1,12.64-1.2V2.064a.83.83,0,0,1-.272.656,1.048,1.048,0,0,1-.72.24A1.037,1.037,0,0,1,10.92,2.7a.868.868,0,0,1-.28-.672V-7.04a.914.914,0,0,1,.264-.688.979.979,0,0,1,.712-.256,1.008,1.008,0,0,1,.72.256.9.9,0,0,1,.272.688v.4a2.455,2.455,0,0,1,1.016-1.016A3.121,3.121,0,0,1,15.136-8.016Zm-.528,6.592a1.793,1.793,0,0,0,1.472-.648A2.829,2.829,0,0,0,16.608-3.9a2.989,2.989,0,0,0-.528-1.888,1.766,1.766,0,0,0-1.472-.672,1.779,1.779,0,0,0-1.48.656,2.952,2.952,0,0,0-.52,1.872,2.923,2.923,0,0,0,.52,1.856A1.779,1.779,0,0,0,14.608-1.424ZM26.88-1.472a.9.9,0,0,1,.288.656.885.885,0,0,1-.272.632.864.864,0,0,1-.64.28.878.878,0,0,1-.688-.336l-2.256-2.5L21.056-.24a.928.928,0,0,1-.688.32.858.858,0,0,1-.624-.272.858.858,0,0,1-.272-.624.9.9,0,0,1,.288-.656L22.1-4.016l-2.208-2.4a.9.9,0,0,1-.288-.656.85.85,0,0,1,.272-.632.871.871,0,0,1,.624-.264.928.928,0,0,1,.688.32l2.128,2.336L25.44-7.648a.928.928,0,0,1,.688-.32.862.862,0,0,1,.632.264.862.862,0,0,1,.264.632.9.9,0,0,1-.288.656l-2.208,2.4Z" transform="translate(656 1810)"/></g></svg>