<svg xmlns="http://www.w3.org/2000/svg" width="298" height="98" viewBox="0 0 298 98">
  <g id="Grupo_18090" data-name="Grupo 18090" transform="translate(-513 -5697)">
    <g id="Grupo_18089" data-name="Grupo 18089">
      <path id="Trazado_23785" data-name="Trazado 23785" d="M8,0H234a8,8,0,0,1,8,8V90a8,8,0,0,1-8,8H8a8,8,0,0,1-8-8V8A8,8,0,0,1,8,0Z" transform="translate(513 5697)" fill="#f3f6f9"/>
      <path id="Trazado_23786" data-name="Trazado 23786" d="M0,0H212.334V72.5H0Z" transform="translate(528.052 5709.363)" fill="#fff"/>
      <path id="Trazado_4669" data-name="Trazado 4669" d="M0,72.83V0" transform="translate(741.004 5709.439)" fill="#9eaab8" stroke="#38485c" stroke-width="1" stroke-dasharray="5 2"/>
      <path id="Trazado_23746" data-name="Trazado 23746" d="M0,72.83V0" transform="translate(527.833 5709.439)" fill="#9eaab8" stroke="#38485c" stroke-width="1" stroke-dasharray="5 2"/>
      <path id="Trazado_4670" data-name="Trazado 4670" transform="translate(528.184 5709.439)" fill="#9eaab8" stroke="#38485c" stroke-width="1" stroke-dasharray="5 2"/>
      <path id="Trazado_23787" data-name="Trazado 23787" d="M.883,10V3.575H1.63V9.323H4.465V10ZM9.6,7.587a2.657,2.657,0,0,1-.593,1.839,2.089,2.089,0,0,1-1.639.661,2.171,2.171,0,0,1-1.147-.3,2,2,0,0,1-.773-.87,3.032,3.032,0,0,1-.272-1.327,2.653,2.653,0,0,1,.589-1.835A2.083,2.083,0,0,1,7.4,5.1a2.038,2.038,0,0,1,1.606.672A2.645,2.645,0,0,1,9.6,7.587Zm-3.669,0A2.286,2.286,0,0,0,6.3,8.994a1.281,1.281,0,0,0,1.085.483A1.29,1.29,0,0,0,8.475,9a2.274,2.274,0,0,0,.371-1.408,2.238,2.238,0,0,0-.371-1.4,1.3,1.3,0,0,0-1.1-.477,1.284,1.284,0,0,0-1.081.47A2.263,2.263,0,0,0,5.933,7.587ZM13.078,5.1a2.854,2.854,0,0,1,.576.053l-.1.677a2.485,2.485,0,0,0-.527-.066,1.284,1.284,0,0,0-1,.475,1.731,1.731,0,0,0-.415,1.182V10h-.729V5.184h.6l.083.892H11.6a2.117,2.117,0,0,1,.646-.725A1.454,1.454,0,0,1,13.078,5.1Zm3.511,4.992a2.213,2.213,0,0,1-1.685-.65,2.518,2.518,0,0,1-.617-1.806,2.792,2.792,0,0,1,.573-1.85A1.9,1.9,0,0,1,16.4,5.1a1.816,1.816,0,0,1,1.433.6,2.282,2.282,0,0,1,.527,1.571v.461H15.042a1.909,1.909,0,0,0,.428,1.288,1.482,1.482,0,0,0,1.145.439,3.879,3.879,0,0,0,1.538-.325v.65a3.86,3.86,0,0,1-.732.24A4.112,4.112,0,0,1,16.589,10.088Zm-.2-4.381a1.191,1.191,0,0,0-.925.378A1.742,1.742,0,0,0,15.06,7.13h2.518a1.6,1.6,0,0,0-.308-1.057A1.083,1.083,0,0,0,16.392,5.707ZM25.743,10V6.867A1.3,1.3,0,0,0,25.5,6a.952.952,0,0,0-.765-.288,1.235,1.235,0,0,0-1.006.391,1.859,1.859,0,0,0-.325,1.2V10h-.729V6.867A1.3,1.3,0,0,0,22.425,6a.958.958,0,0,0-.769-.288,1.191,1.191,0,0,0-1,.411,2.224,2.224,0,0,0-.319,1.347V10H19.6V5.184H20.2l.119.659h.035a1.434,1.434,0,0,1,.582-.549,1.779,1.779,0,0,1,.842-.2,1.431,1.431,0,0,1,1.477.817h.035a1.536,1.536,0,0,1,.624-.6,1.936,1.936,0,0,1,.932-.22,1.631,1.631,0,0,1,1.224.42,1.877,1.877,0,0,1,.406,1.343V10Zm5.3,0h-.729V5.184h.729Zm-.791-6.122a.485.485,0,0,1,.123-.367.456.456,0,0,1,.611,0,.476.476,0,0,1,.127.365.483.483,0,0,1-.127.367.446.446,0,0,1-.611,0A.494.494,0,0,1,30.252,3.878Zm4.579,6.209a2.084,2.084,0,0,1-.859-.174,1.616,1.616,0,0,1-.653-.534h-.053a6.46,6.46,0,0,1,.053.8v1.982H32.59V5.184h.593l.1.659h.035a1.694,1.694,0,0,1,.655-.571,1.99,1.99,0,0,1,.857-.176,1.78,1.78,0,0,1,1.479.655,2.883,2.883,0,0,1,.521,1.837,2.866,2.866,0,0,1-.53,1.844A1.783,1.783,0,0,1,34.831,10.088Zm-.105-4.373a1.293,1.293,0,0,0-1.068.409,2.1,2.1,0,0,0-.338,1.3v.163a2.41,2.41,0,0,0,.338,1.452,1.287,1.287,0,0,0,1.085.437,1.129,1.129,0,0,0,.978-.505,2.4,2.4,0,0,0,.354-1.393A2.307,2.307,0,0,0,35.721,6.2,1.164,1.164,0,0,0,34.726,5.715Zm6.486,2.971a1.206,1.206,0,0,1-.5,1.037,2.355,2.355,0,0,1-1.406.365,3.058,3.058,0,0,1-1.494-.3V9.108a3.613,3.613,0,0,0,.745.277,3.11,3.11,0,0,0,.767.1A1.739,1.739,0,0,0,40.2,9.3a.628.628,0,0,0,.064-1.037,3.836,3.836,0,0,0-.951-.472,5.159,5.159,0,0,1-.956-.437,1.306,1.306,0,0,1-.422-.424,1.106,1.106,0,0,1-.138-.567,1.081,1.081,0,0,1,.479-.929A2.232,2.232,0,0,1,39.59,5.1a3.845,3.845,0,0,1,1.521.316l-.259.593a3.49,3.49,0,0,0-1.314-.3,1.512,1.512,0,0,0-.782.163.5.5,0,0,0-.264.448.546.546,0,0,0,.1.33.976.976,0,0,0,.319.259,7.12,7.12,0,0,0,.844.356,3.152,3.152,0,0,1,1.158.628A1.108,1.108,0,0,1,41.212,8.686Zm1.872-3.5V8.308a1.257,1.257,0,0,0,.268.879,1.092,1.092,0,0,0,.839.29A1.369,1.369,0,0,0,45.3,9.064a2.084,2.084,0,0,0,.349-1.349V5.184h.729V10h-.6l-.105-.646h-.04a1.454,1.454,0,0,1-.622.545,2.09,2.09,0,0,1-.907.189,1.841,1.841,0,0,1-1.316-.417,1.777,1.777,0,0,1-.437-1.336V5.184ZM54.062,10V6.867A1.3,1.3,0,0,0,53.815,6a.952.952,0,0,0-.765-.288,1.235,1.235,0,0,0-1.006.391,1.859,1.859,0,0,0-.325,1.2V10H50.99V6.867A1.3,1.3,0,0,0,50.744,6a.958.958,0,0,0-.769-.288,1.191,1.191,0,0,0-1,.411,2.224,2.224,0,0,0-.319,1.347V10h-.729V5.184h.593l.119.659h.035a1.434,1.434,0,0,1,.582-.549,1.779,1.779,0,0,1,.842-.2,1.431,1.431,0,0,1,1.477.817H51.6a1.536,1.536,0,0,1,.624-.6,1.936,1.936,0,0,1,.932-.22,1.631,1.631,0,0,1,1.224.42,1.877,1.877,0,0,1,.406,1.343V10Zm7.849-.646h-.04a1.714,1.714,0,0,1-1.512.734,1.788,1.788,0,0,1-1.47-.646A2.843,2.843,0,0,1,58.364,7.6a2.892,2.892,0,0,1,.527-1.85A1.775,1.775,0,0,1,60.359,5.1a1.751,1.751,0,0,1,1.5.712h.057l-.031-.347-.018-.338V3.162H62.6V10h-.593Zm-1.459.123a1.328,1.328,0,0,0,1.083-.406,2.054,2.054,0,0,0,.336-1.312V7.6a2.417,2.417,0,0,0-.341-1.461,1.293,1.293,0,0,0-1.088-.437,1.117,1.117,0,0,0-.982.5,2.48,2.48,0,0,0-.341,1.408,2.378,2.378,0,0,0,.338,1.393A1.146,1.146,0,0,0,60.451,9.477ZM68.3,7.587a2.657,2.657,0,0,1-.593,1.839,2.089,2.089,0,0,1-1.639.661,2.171,2.171,0,0,1-1.147-.3,2,2,0,0,1-.773-.87,3.032,3.032,0,0,1-.272-1.327,2.653,2.653,0,0,1,.589-1.835A2.083,2.083,0,0,1,66.1,5.1a2.038,2.038,0,0,1,1.606.672A2.645,2.645,0,0,1,68.3,7.587Zm-3.669,0A2.286,2.286,0,0,0,65,8.994a1.465,1.465,0,0,0,2.173,0,2.274,2.274,0,0,0,.371-1.408,2.238,2.238,0,0,0-.371-1.4,1.3,1.3,0,0,0-1.1-.477A1.284,1.284,0,0,0,65,6.186,2.263,2.263,0,0,0,64.635,7.587ZM70.313,10h-.729V3.162h.729Zm5.7-2.413a2.657,2.657,0,0,1-.593,1.839,2.089,2.089,0,0,1-1.639.661,2.171,2.171,0,0,1-1.147-.3,2,2,0,0,1-.773-.87,3.032,3.032,0,0,1-.272-1.327,2.653,2.653,0,0,1,.589-1.835A2.083,2.083,0,0,1,73.815,5.1a2.038,2.038,0,0,1,1.606.672A2.645,2.645,0,0,1,76.017,7.587Zm-3.669,0a2.286,2.286,0,0,0,.369,1.406,1.465,1.465,0,0,0,2.173,0,2.274,2.274,0,0,0,.371-1.408,2.238,2.238,0,0,0-.371-1.4,1.3,1.3,0,0,0-1.1-.477,1.284,1.284,0,0,0-1.081.47A2.263,2.263,0,0,0,72.347,7.587ZM79.493,5.1a2.854,2.854,0,0,1,.576.053l-.1.677a2.485,2.485,0,0,0-.527-.066,1.284,1.284,0,0,0-1,.475,1.731,1.731,0,0,0-.415,1.182V10H77.3V5.184h.6l.083.892h.035a2.117,2.117,0,0,1,.646-.725A1.454,1.454,0,0,1,79.493,5.1Zm6.921,3.59a1.206,1.206,0,0,1-.5,1.037,2.355,2.355,0,0,1-1.406.365,3.058,3.058,0,0,1-1.494-.3V9.108a3.613,3.613,0,0,0,.745.277,3.11,3.11,0,0,0,.767.1A1.739,1.739,0,0,0,85.4,9.3a.628.628,0,0,0,.064-1.037,3.836,3.836,0,0,0-.951-.472,5.159,5.159,0,0,1-.956-.437,1.306,1.306,0,0,1-.422-.424A1.106,1.106,0,0,1,83,6.366a1.081,1.081,0,0,1,.479-.929A2.232,2.232,0,0,1,84.792,5.1a3.845,3.845,0,0,1,1.521.316l-.259.593a3.49,3.49,0,0,0-1.314-.3,1.512,1.512,0,0,0-.782.163.5.5,0,0,0-.264.448.546.546,0,0,0,.1.33.976.976,0,0,0,.319.259,7.12,7.12,0,0,0,.844.356,3.152,3.152,0,0,1,1.158.628A1.108,1.108,0,0,1,86.414,8.686ZM88.33,10H87.6V5.184h.729Zm-.791-6.122a.485.485,0,0,1,.123-.367.456.456,0,0,1,.611,0,.476.476,0,0,1,.127.365.483.483,0,0,1-.127.367.446.446,0,0,1-.611,0A.494.494,0,0,1,87.539,3.878Zm3.894,5.607a2.383,2.383,0,0,0,.374-.029,2.418,2.418,0,0,0,.286-.059v.558a1.334,1.334,0,0,1-.349.094,2.624,2.624,0,0,1-.415.037q-1.4,0-1.4-1.472V5.75h-.69V5.4l.69-.3.308-1.028h.422V5.184h1.4V5.75h-1.4V8.585a.975.975,0,0,0,.207.668A.719.719,0,0,0,91.433,9.486ZM98.354,10l-.145-.686h-.035a2.027,2.027,0,0,1-.719.613,2.19,2.19,0,0,1-.894.16,1.609,1.609,0,0,1-1.123-.369,1.346,1.346,0,0,1-.406-1.05q0-1.459,2.333-1.529l.817-.026v-.3a1.221,1.221,0,0,0-.244-.837,1,1,0,0,0-.78-.27,3.178,3.178,0,0,0-1.362.369l-.224-.558a3.428,3.428,0,0,1,.78-.3,3.378,3.378,0,0,1,.85-.11,1.835,1.835,0,0,1,1.277.382,1.6,1.6,0,0,1,.415,1.226V10Zm-1.648-.514a1.481,1.481,0,0,0,1.07-.374,1.382,1.382,0,0,0,.389-1.046V7.631l-.729.031a2.653,2.653,0,0,0-1.255.27.815.815,0,0,0-.385.745.752.752,0,0,0,.24.6A.994.994,0,0,0,96.706,9.486Zm9.831.514V6.867A1.3,1.3,0,0,0,106.291,6a.952.952,0,0,0-.765-.288,1.235,1.235,0,0,0-1.006.391,1.859,1.859,0,0,0-.325,1.2V10h-.729V6.867A1.3,1.3,0,0,0,103.219,6a.958.958,0,0,0-.769-.288,1.191,1.191,0,0,0-1,.411,2.224,2.224,0,0,0-.319,1.347V10H100.4V5.184h.593l.119.659h.035a1.434,1.434,0,0,1,.582-.549,1.779,1.779,0,0,1,.842-.2,1.431,1.431,0,0,1,1.477.817h.035a1.536,1.536,0,0,1,.624-.6,1.936,1.936,0,0,1,.932-.22,1.631,1.631,0,0,1,1.224.42,1.877,1.877,0,0,1,.406,1.343V10Zm4.267.088a2.213,2.213,0,0,1-1.685-.65,2.518,2.518,0,0,1-.617-1.806,2.792,2.792,0,0,1,.573-1.85,1.9,1.9,0,0,1,1.54-.686,1.816,1.816,0,0,1,1.433.6,2.282,2.282,0,0,1,.527,1.571v.461h-3.318a1.909,1.909,0,0,0,.428,1.288,1.482,1.482,0,0,0,1.145.439,3.879,3.879,0,0,0,1.538-.325v.65a3.86,3.86,0,0,1-.732.24A4.112,4.112,0,0,1,110.8,10.088Zm-.2-4.381a1.191,1.191,0,0,0-.925.378,1.742,1.742,0,0,0-.406,1.046h2.518a1.6,1.6,0,0,0-.308-1.057A1.083,1.083,0,0,0,110.606,5.707Zm4.768,3.779a2.383,2.383,0,0,0,.374-.029,2.418,2.418,0,0,0,.286-.059v.558a1.334,1.334,0,0,1-.349.094,2.624,2.624,0,0,1-.415.037q-1.4,0-1.4-1.472V5.75h-.69V5.4l.69-.3.308-1.028h.422V5.184H116V5.75h-1.4V8.585a.975.975,0,0,0,.207.668A.719.719,0,0,0,115.374,9.486Zm2.386-.532.066.1q-.114.439-.33,1.022t-.448,1.083H116.5q.119-.457.261-1.129t.2-1.077Zm5.7,1.134a2.056,2.056,0,0,1-1.619-.644,2.647,2.647,0,0,1-.573-1.822,2.73,2.73,0,0,1,.582-1.868,2.1,2.1,0,0,1,1.659-.659,3.292,3.292,0,0,1,.694.075,2.287,2.287,0,0,1,.545.176l-.224.62a3.43,3.43,0,0,0-.527-.16,2.355,2.355,0,0,0-.505-.064q-1.468,0-1.468,1.872a2.229,2.229,0,0,0,.358,1.362,1.246,1.246,0,0,0,1.061.475,3.245,3.245,0,0,0,1.235-.259v.646A2.632,2.632,0,0,1,123.464,10.088Zm6.517-2.5a2.657,2.657,0,0,1-.593,1.839,2.089,2.089,0,0,1-1.639.661,2.171,2.171,0,0,1-1.147-.3,2,2,0,0,1-.773-.87,3.032,3.032,0,0,1-.272-1.327,2.653,2.653,0,0,1,.589-1.835A2.083,2.083,0,0,1,127.78,5.1a2.038,2.038,0,0,1,1.606.672A2.645,2.645,0,0,1,129.981,7.587Zm-3.669,0a2.286,2.286,0,0,0,.369,1.406,1.465,1.465,0,0,0,2.173,0,2.274,2.274,0,0,0,.371-1.408,2.238,2.238,0,0,0-.371-1.4,1.3,1.3,0,0,0-1.1-.477,1.284,1.284,0,0,0-1.081.47A2.263,2.263,0,0,0,126.312,7.587ZM134.556,10V6.884a1.257,1.257,0,0,0-.268-.879,1.092,1.092,0,0,0-.839-.29,1.384,1.384,0,0,0-1.107.409,2.063,2.063,0,0,0-.352,1.349V10h-.729V5.184h.593l.119.659h.035a1.49,1.49,0,0,1,.628-.552,2.042,2.042,0,0,1,.9-.2,1.829,1.829,0,0,1,1.31.42,1.786,1.786,0,0,1,.439,1.343V10Zm5.335-1.314a1.206,1.206,0,0,1-.5,1.037,2.355,2.355,0,0,1-1.406.365,3.058,3.058,0,0,1-1.494-.3V9.108a3.613,3.613,0,0,0,.745.277,3.11,3.11,0,0,0,.767.1,1.739,1.739,0,0,0,.879-.182.628.628,0,0,0,.064-1.037,3.836,3.836,0,0,0-.951-.472,5.159,5.159,0,0,1-.956-.437,1.306,1.306,0,0,1-.422-.424,1.106,1.106,0,0,1-.138-.567,1.081,1.081,0,0,1,.479-.929A2.232,2.232,0,0,1,138.27,5.1a3.845,3.845,0,0,1,1.521.316l-.259.593a3.49,3.49,0,0,0-1.314-.3,1.512,1.512,0,0,0-.782.163.5.5,0,0,0-.264.448.546.546,0,0,0,.1.33.976.976,0,0,0,.319.259,7.12,7.12,0,0,0,.844.356,3.152,3.152,0,0,1,1.158.628A1.108,1.108,0,0,1,139.891,8.686Zm3.221,1.4a2.213,2.213,0,0,1-1.685-.65,2.518,2.518,0,0,1-.617-1.806,2.792,2.792,0,0,1,.573-1.85,1.9,1.9,0,0,1,1.54-.686,1.816,1.816,0,0,1,1.433.6,2.282,2.282,0,0,1,.527,1.571v.461h-3.318a1.909,1.909,0,0,0,.428,1.288,1.482,1.482,0,0,0,1.145.439,3.879,3.879,0,0,0,1.538-.325v.65a3.86,3.86,0,0,1-.732.24A4.112,4.112,0,0,1,143.112,10.088Zm-.2-4.381a1.191,1.191,0,0,0-.925.378,1.742,1.742,0,0,0-.406,1.046H144.1a1.6,1.6,0,0,0-.308-1.057A1.083,1.083,0,0,0,142.915,5.707Zm4.768,3.779a2.383,2.383,0,0,0,.374-.029,2.418,2.418,0,0,0,.286-.059v.558a1.334,1.334,0,0,1-.349.094,2.624,2.624,0,0,1-.415.037q-1.4,0-1.4-1.472V5.75h-.69V5.4l.69-.3.308-1.028h.422V5.184h1.4V5.75h-1.4V8.585a.975.975,0,0,0,.207.668A.719.719,0,0,0,147.683,9.486Zm3.656.6a2.213,2.213,0,0,1-1.685-.65,2.518,2.518,0,0,1-.617-1.806,2.792,2.792,0,0,1,.573-1.85,1.9,1.9,0,0,1,1.54-.686,1.816,1.816,0,0,1,1.433.6,2.282,2.282,0,0,1,.527,1.571v.461h-3.318a1.909,1.909,0,0,0,.428,1.288,1.482,1.482,0,0,0,1.145.439,3.879,3.879,0,0,0,1.538-.325v.65a3.86,3.86,0,0,1-.732.24A4.112,4.112,0,0,1,151.339,10.088Zm-.2-4.381a1.191,1.191,0,0,0-.925.378,1.742,1.742,0,0,0-.406,1.046h2.518a1.6,1.6,0,0,0-.308-1.057A1.083,1.083,0,0,0,151.141,5.707Zm4.768,3.779a2.383,2.383,0,0,0,.374-.029,2.418,2.418,0,0,0,.286-.059v.558a1.334,1.334,0,0,1-.349.094,2.624,2.624,0,0,1-.415.037q-1.4,0-1.4-1.472V5.75h-.69V5.4l.69-.3.308-1.028h.422V5.184h1.4V5.75h-1.4V8.585a.975.975,0,0,0,.207.668A.719.719,0,0,0,155.909,9.486Zm2.307-4.3V8.308a1.257,1.257,0,0,0,.268.879,1.092,1.092,0,0,0,.839.29,1.369,1.369,0,0,0,1.105-.413,2.084,2.084,0,0,0,.349-1.349V5.184h.729V10h-.6l-.105-.646h-.04a1.454,1.454,0,0,1-.622.545,2.09,2.09,0,0,1-.907.189,1.841,1.841,0,0,1-1.316-.417,1.777,1.777,0,0,1-.437-1.336V5.184Zm7.036-.088a2.854,2.854,0,0,1,.576.053l-.1.677a2.485,2.485,0,0,0-.527-.066,1.284,1.284,0,0,0-1,.475,1.731,1.731,0,0,0-.415,1.182V10h-.729V5.184h.6l.083.892h.035a2.117,2.117,0,0,1,.646-.725A1.454,1.454,0,0,1,165.252,5.1Zm6.921,3.59a1.206,1.206,0,0,1-.5,1.037,2.355,2.355,0,0,1-1.406.365,3.058,3.058,0,0,1-1.494-.3V9.108a3.613,3.613,0,0,0,.745.277,3.11,3.11,0,0,0,.767.1,1.739,1.739,0,0,0,.879-.182.628.628,0,0,0,.064-1.037,3.836,3.836,0,0,0-.951-.472,5.159,5.159,0,0,1-.956-.437,1.306,1.306,0,0,1-.422-.424,1.106,1.106,0,0,1-.138-.567,1.081,1.081,0,0,1,.479-.929,2.232,2.232,0,0,1,1.314-.341,3.845,3.845,0,0,1,1.521.316l-.259.593a3.49,3.49,0,0,0-1.314-.3,1.512,1.512,0,0,0-.782.163.5.5,0,0,0-.264.448.546.546,0,0,0,.1.33.976.976,0,0,0,.319.259,7.12,7.12,0,0,0,.844.356,3.152,3.152,0,0,1,1.158.628A1.108,1.108,0,0,1,172.173,8.686ZM176.322,10l-.145-.686h-.035a2.027,2.027,0,0,1-.719.613,2.19,2.19,0,0,1-.894.16,1.609,1.609,0,0,1-1.123-.369A1.346,1.346,0,0,1,173,8.668q0-1.459,2.333-1.529l.817-.026v-.3a1.221,1.221,0,0,0-.244-.837,1,1,0,0,0-.78-.27,3.178,3.178,0,0,0-1.362.369l-.224-.558a3.428,3.428,0,0,1,.78-.3,3.378,3.378,0,0,1,.85-.11,1.835,1.835,0,0,1,1.277.382,1.6,1.6,0,0,1,.415,1.226V10Zm-1.648-.514a1.481,1.481,0,0,0,1.07-.374,1.382,1.382,0,0,0,.389-1.046V7.631l-.729.031a2.653,2.653,0,0,0-1.255.27.815.815,0,0,0-.385.745.752.752,0,0,0,.24.6A.994.994,0,0,0,174.674,9.486Zm6.97-.132h-.04a1.714,1.714,0,0,1-1.512.734,1.788,1.788,0,0,1-1.47-.646A2.843,2.843,0,0,1,178.1,7.6a2.892,2.892,0,0,1,.527-1.85,1.775,1.775,0,0,1,1.468-.659,1.751,1.751,0,0,1,1.5.712h.057l-.031-.347-.018-.338V3.162h.729V10h-.593Zm-1.459.123a1.328,1.328,0,0,0,1.083-.406,2.054,2.054,0,0,0,.336-1.312V7.6a2.417,2.417,0,0,0-.341-1.461,1.293,1.293,0,0,0-1.088-.437,1.117,1.117,0,0,0-.982.5,2.48,2.48,0,0,0-.341,1.408,2.378,2.378,0,0,0,.338,1.393A1.146,1.146,0,0,0,180.185,9.477ZM184.61,10h-.729V5.184h.729Zm-.791-6.122a.485.485,0,0,1,.123-.367.456.456,0,0,1,.611,0,.476.476,0,0,1,.127.365.483.483,0,0,1-.127.367.446.446,0,0,1-.611,0A.494.494,0,0,1,183.819,3.878Zm4.579,6.209a2.084,2.084,0,0,1-.859-.174,1.616,1.616,0,0,1-.653-.534h-.053a6.46,6.46,0,0,1,.053.8v1.982h-.729V5.184h.593l.1.659h.035a1.694,1.694,0,0,1,.655-.571A1.99,1.99,0,0,1,188.4,5.1a1.78,1.78,0,0,1,1.479.655,2.883,2.883,0,0,1,.521,1.837,2.866,2.866,0,0,1-.53,1.844A1.783,1.783,0,0,1,188.4,10.088Zm-.105-4.373a1.293,1.293,0,0,0-1.068.409,2.1,2.1,0,0,0-.338,1.3v.163a2.41,2.41,0,0,0,.338,1.452,1.287,1.287,0,0,0,1.085.437,1.129,1.129,0,0,0,.978-.505,2.4,2.4,0,0,0,.354-1.393,2.307,2.307,0,0,0-.354-1.382A1.164,1.164,0,0,0,188.292,5.715Zm6.486,2.971a1.206,1.206,0,0,1-.5,1.037,2.355,2.355,0,0,1-1.406.365,3.058,3.058,0,0,1-1.494-.3V9.108a3.613,3.613,0,0,0,.745.277,3.11,3.11,0,0,0,.767.1,1.739,1.739,0,0,0,.879-.182.628.628,0,0,0,.064-1.037,3.836,3.836,0,0,0-.951-.472,5.159,5.159,0,0,1-.956-.437,1.306,1.306,0,0,1-.422-.424,1.106,1.106,0,0,1-.138-.567,1.081,1.081,0,0,1,.479-.929,2.232,2.232,0,0,1,1.314-.341,3.845,3.845,0,0,1,1.521.316l-.259.593a3.49,3.49,0,0,0-1.314-.3,1.512,1.512,0,0,0-.782.163.5.5,0,0,0-.264.448.546.546,0,0,0,.1.33.976.976,0,0,0,.319.259,7.12,7.12,0,0,0,.844.356,3.152,3.152,0,0,1,1.158.628A1.108,1.108,0,0,1,194.779,8.686Zm3.111,1.4a2.056,2.056,0,0,1-1.619-.644,2.647,2.647,0,0,1-.573-1.822,2.73,2.73,0,0,1,.582-1.868,2.1,2.1,0,0,1,1.659-.659,3.292,3.292,0,0,1,.694.075,2.287,2.287,0,0,1,.545.176l-.224.62a3.43,3.43,0,0,0-.527-.16,2.355,2.355,0,0,0-.505-.064q-1.468,0-1.468,1.872a2.229,2.229,0,0,0,.358,1.362,1.246,1.246,0,0,0,1.061.475,3.245,3.245,0,0,0,1.235-.259v.646A2.632,2.632,0,0,1,197.89,10.088ZM200.979,10h-.729V5.184h.729Zm-.791-6.122a.485.485,0,0,1,.123-.367.456.456,0,0,1,.611,0,.476.476,0,0,1,.127.365.483.483,0,0,1-.127.367.446.446,0,0,1-.611,0A.494.494,0,0,1,200.188,3.878ZM205.822,10V6.884a1.257,1.257,0,0,0-.268-.879,1.092,1.092,0,0,0-.839-.29,1.384,1.384,0,0,0-1.107.409,2.063,2.063,0,0,0-.352,1.349V10h-.729V5.184h.593l.119.659h.035a1.49,1.49,0,0,1,.628-.552,2.042,2.042,0,0,1,.9-.2,1.829,1.829,0,0,1,1.31.42,1.786,1.786,0,0,1,.439,1.343V10Zm6.17-4.816v.461l-.892.105a1.567,1.567,0,0,1,.316.962,1.424,1.424,0,0,1-.483,1.129,1.95,1.95,0,0,1-1.327.422,2.21,2.21,0,0,1-.4-.035.718.718,0,0,0-.466.62.315.315,0,0,0,.163.292,1.188,1.188,0,0,0,.558.094h.853a1.909,1.909,0,0,1,1.2.33,1.145,1.145,0,0,1,.42.958,1.368,1.368,0,0,1-.642,1.219,3.434,3.434,0,0,1-1.872.42,2.558,2.558,0,0,1-1.457-.352,1.135,1.135,0,0,1-.512-.993,1.115,1.115,0,0,1,.281-.76,1.432,1.432,0,0,1,.791-.435.763.763,0,0,1-.31-.259.686.686,0,0,1-.125-.409.776.776,0,0,1,.141-.461,1.478,1.478,0,0,1,.444-.382,1.3,1.3,0,0,1-.609-.523,1.537,1.537,0,0,1-.235-.844,1.558,1.558,0,0,1,.475-1.219,1.938,1.938,0,0,1,1.345-.428,2.445,2.445,0,0,1,.681.088Zm-3.841,5.625a.654.654,0,0,0,.33.593,1.819,1.819,0,0,0,.945.2,2.636,2.636,0,0,0,1.36-.275.841.841,0,0,0,.442-.745.589.589,0,0,0-.242-.543,1.877,1.877,0,0,0-.91-.152H209.2a1.152,1.152,0,0,0-.773.237A.848.848,0,0,0,208.151,10.809Zm.4-4.083a.981.981,0,0,0,.286.765,1.141,1.141,0,0,0,.8.259A.931.931,0,0,0,210.7,6.713a.957.957,0,0,0-1.081-1.085,1.07,1.07,0,0,0-.791.277A1.115,1.115,0,0,0,208.547,6.726ZM2.808,24.088a2.213,2.213,0,0,1-1.685-.65,2.518,2.518,0,0,1-.617-1.806,2.792,2.792,0,0,1,.573-1.85,1.9,1.9,0,0,1,1.54-.686,1.816,1.816,0,0,1,1.433.6,2.282,2.282,0,0,1,.527,1.571v.461H1.261a1.909,1.909,0,0,0,.428,1.288,1.482,1.482,0,0,0,1.145.439,3.879,3.879,0,0,0,1.538-.325v.65a3.86,3.86,0,0,1-.732.24A4.112,4.112,0,0,1,2.808,24.088Zm-.2-4.381a1.191,1.191,0,0,0-.925.378,1.742,1.742,0,0,0-.406,1.046H3.8a1.6,1.6,0,0,0-.308-1.057A1.083,1.083,0,0,0,2.61,19.707ZM6.552,24H5.823V17.162h.729Zm2.276,0H8.1V19.184h.729Zm-.791-6.122a.485.485,0,0,1,.123-.367.456.456,0,0,1,.611,0,.476.476,0,0,1,.127.365.483.483,0,0,1-.127.367.446.446,0,0,1-.611,0A.494.494,0,0,1,8.038,17.878Zm3.894,5.607a2.383,2.383,0,0,0,.374-.029,2.418,2.418,0,0,0,.286-.059v.558a1.334,1.334,0,0,1-.349.094,2.624,2.624,0,0,1-.415.037q-1.4,0-1.4-1.472V19.75h-.69V19.4l.69-.3.308-1.028h.422v1.116h1.4v.567h-1.4v2.834a.975.975,0,0,0,.207.668A.719.719,0,0,0,11.931,23.486ZM15.75,19.1a2.854,2.854,0,0,1,.576.053l-.1.677a2.485,2.485,0,0,0-.527-.066,1.284,1.284,0,0,0-1,.475,1.731,1.731,0,0,0-.415,1.182V24h-.729V19.184h.6l.083.892h.035a2.117,2.117,0,0,1,.646-.725A1.454,1.454,0,0,1,15.75,19.1Zm2.241,3.858.066.1q-.114.439-.33,1.022t-.448,1.083H16.73q.119-.457.261-1.129t.2-1.077Zm6.886-.268a1.206,1.206,0,0,1-.5,1.037,2.355,2.355,0,0,1-1.406.365,3.058,3.058,0,0,1-1.494-.3v-.677a3.613,3.613,0,0,0,.745.277,3.11,3.11,0,0,0,.767.1,1.739,1.739,0,0,0,.879-.182.628.628,0,0,0,.064-1.037,3.836,3.836,0,0,0-.951-.472,5.159,5.159,0,0,1-.956-.437,1.306,1.306,0,0,1-.422-.424,1.106,1.106,0,0,1-.138-.567,1.081,1.081,0,0,1,.479-.929,2.232,2.232,0,0,1,1.314-.341,3.845,3.845,0,0,1,1.521.316l-.259.593a3.49,3.49,0,0,0-1.314-.3,1.512,1.512,0,0,0-.782.163.5.5,0,0,0-.264.448.546.546,0,0,0,.1.33.976.976,0,0,0,.319.259,7.12,7.12,0,0,0,.844.356,3.152,3.152,0,0,1,1.158.628A1.108,1.108,0,0,1,24.877,22.686Zm3.221,1.4a2.213,2.213,0,0,1-1.685-.65,2.518,2.518,0,0,1-.617-1.806,2.792,2.792,0,0,1,.573-1.85,1.9,1.9,0,0,1,1.54-.686,1.816,1.816,0,0,1,1.433.6,2.282,2.282,0,0,1,.527,1.571v.461H26.552a1.909,1.909,0,0,0,.428,1.288,1.482,1.482,0,0,0,1.145.439,3.879,3.879,0,0,0,1.538-.325v.65a3.86,3.86,0,0,1-.732.24A4.112,4.112,0,0,1,28.1,24.088Zm-.2-4.381a1.191,1.191,0,0,0-.925.378,1.742,1.742,0,0,0-.406,1.046h2.518a1.6,1.6,0,0,0-.308-1.057A1.083,1.083,0,0,0,27.9,19.707Zm6.491,3.647h-.04a1.714,1.714,0,0,1-1.512.734,1.788,1.788,0,0,1-1.47-.646,2.843,2.843,0,0,1-.525-1.837,2.892,2.892,0,0,1,.527-1.85A1.775,1.775,0,0,1,32.84,19.1a1.751,1.751,0,0,1,1.5.712H34.4l-.031-.347-.018-.338v-1.96h.729V24h-.593Zm-1.459.123a1.328,1.328,0,0,0,1.083-.406,2.054,2.054,0,0,0,.336-1.312V21.6a2.417,2.417,0,0,0-.341-1.461,1.293,1.293,0,0,0-1.088-.437,1.117,1.117,0,0,0-.982.5,2.48,2.48,0,0,0-.341,1.408,2.378,2.378,0,0,0,.338,1.393A1.146,1.146,0,0,0,32.933,23.477Zm9.312-.123h-.04a1.714,1.714,0,0,1-1.512.734,1.788,1.788,0,0,1-1.47-.646A2.843,2.843,0,0,1,38.7,21.6a2.892,2.892,0,0,1,.527-1.85,1.775,1.775,0,0,1,1.468-.659,1.751,1.751,0,0,1,1.5.712h.057l-.031-.347-.018-.338v-1.96h.729V24h-.593Zm-1.459.123a1.328,1.328,0,0,0,1.083-.406,2.054,2.054,0,0,0,.336-1.312V21.6a2.417,2.417,0,0,0-.341-1.461,1.293,1.293,0,0,0-1.088-.437,1.117,1.117,0,0,0-.982.5,2.48,2.48,0,0,0-.341,1.408,2.378,2.378,0,0,0,.338,1.393A1.146,1.146,0,0,0,40.786,23.477ZM45.211,24h-.729V19.184h.729Zm-.791-6.122a.485.485,0,0,1,.123-.367.456.456,0,0,1,.611,0,.476.476,0,0,1,.127.365.483.483,0,0,1-.127.367.446.446,0,0,1-.611,0A.494.494,0,0,1,44.42,17.878ZM49.72,24l-.145-.686H49.54a2.027,2.027,0,0,1-.719.613,2.19,2.19,0,0,1-.894.16,1.609,1.609,0,0,1-1.123-.369,1.346,1.346,0,0,1-.406-1.05q0-1.459,2.333-1.529l.817-.026v-.3a1.221,1.221,0,0,0-.244-.837,1,1,0,0,0-.78-.27,3.178,3.178,0,0,0-1.362.369l-.224-.558a3.428,3.428,0,0,1,.78-.3,3.378,3.378,0,0,1,.85-.11,1.835,1.835,0,0,1,1.277.382,1.6,1.6,0,0,1,.415,1.226V24Zm-1.648-.514a1.481,1.481,0,0,0,1.07-.374,1.382,1.382,0,0,0,.389-1.046v-.435l-.729.031a2.653,2.653,0,0,0-1.255.27.815.815,0,0,0-.385.745.752.752,0,0,0,.24.6A.994.994,0,0,0,48.072,23.486ZM57.9,24V20.867A1.3,1.3,0,0,0,57.656,20a.952.952,0,0,0-.765-.288,1.235,1.235,0,0,0-1.006.391,1.859,1.859,0,0,0-.325,1.2V24h-.729V20.867A1.3,1.3,0,0,0,54.584,20a.958.958,0,0,0-.769-.288,1.191,1.191,0,0,0-1,.411,2.224,2.224,0,0,0-.319,1.347V24h-.729V19.184h.593l.119.659h.035a1.434,1.434,0,0,1,.582-.549,1.779,1.779,0,0,1,.842-.2,1.431,1.431,0,0,1,1.477.817h.035a1.536,1.536,0,0,1,.624-.6A1.936,1.936,0,0,1,57,19.1a1.631,1.631,0,0,1,1.224.42,1.877,1.877,0,0,1,.406,1.343V24Zm7.866,0V20.884a1.257,1.257,0,0,0-.268-.879,1.092,1.092,0,0,0-.839-.29,1.384,1.384,0,0,0-1.107.409,2.063,2.063,0,0,0-.352,1.349V24h-.729V19.184h.593l.119.659h.035a1.49,1.49,0,0,1,.628-.552,2.042,2.042,0,0,1,.9-.2,1.829,1.829,0,0,1,1.31.42,1.786,1.786,0,0,1,.439,1.343V24Zm6.385-2.413a2.657,2.657,0,0,1-.593,1.839,2.089,2.089,0,0,1-1.639.661,2.171,2.171,0,0,1-1.147-.3,2,2,0,0,1-.773-.87,3.032,3.032,0,0,1-.272-1.327,2.653,2.653,0,0,1,.589-1.835,2.083,2.083,0,0,1,1.635-.657,2.038,2.038,0,0,1,1.606.672A2.645,2.645,0,0,1,72.154,21.587Zm-3.669,0a2.286,2.286,0,0,0,.369,1.406,1.465,1.465,0,0,0,2.173,0,2.274,2.274,0,0,0,.371-1.408,2.238,2.238,0,0,0-.371-1.4,1.3,1.3,0,0,0-1.1-.477,1.284,1.284,0,0,0-1.081.47A2.263,2.263,0,0,0,68.484,21.587ZM76.729,24V20.884a1.257,1.257,0,0,0-.268-.879,1.092,1.092,0,0,0-.839-.29,1.384,1.384,0,0,0-1.107.409,2.063,2.063,0,0,0-.352,1.349V24h-.729V19.184h.593l.119.659h.035a1.49,1.49,0,0,1,.628-.552,2.042,2.042,0,0,1,.9-.2,1.829,1.829,0,0,1,1.31.42,1.786,1.786,0,0,1,.439,1.343V24Zm2.914-4.816v3.125a1.257,1.257,0,0,0,.268.879,1.092,1.092,0,0,0,.839.29,1.369,1.369,0,0,0,1.105-.413,2.084,2.084,0,0,0,.349-1.349V19.184h.729V24h-.6l-.105-.646h-.04a1.454,1.454,0,0,1-.622.545,2.09,2.09,0,0,1-.907.189,1.841,1.841,0,0,1-1.316-.417,1.777,1.777,0,0,1-.437-1.336V19.184ZM90.62,24V20.867A1.3,1.3,0,0,0,90.374,20a.952.952,0,0,0-.765-.288,1.235,1.235,0,0,0-1.006.391,1.859,1.859,0,0,0-.325,1.2V24h-.729V20.867A1.3,1.3,0,0,0,87.3,20a.958.958,0,0,0-.769-.288,1.191,1.191,0,0,0-1,.411,2.224,2.224,0,0,0-.319,1.347V24H84.48V19.184h.593l.119.659h.035a1.434,1.434,0,0,1,.582-.549,1.779,1.779,0,0,1,.842-.2,1.431,1.431,0,0,1,1.477.817h.035a1.536,1.536,0,0,1,.624-.6,1.936,1.936,0,0,1,.932-.22,1.631,1.631,0,0,1,1.224.42,1.877,1.877,0,0,1,.406,1.343V24Zm1.468-4.816h.782l1.055,2.747a10.447,10.447,0,0,1,.431,1.358h.035q.057-.224.24-.767t1.193-3.338H96.6l-2.07,5.484a2.736,2.736,0,0,1-.719,1.154,1.528,1.528,0,0,1-1.009.341,2.935,2.935,0,0,1-.659-.075V25.5a2.543,2.543,0,0,0,.541.053,1.114,1.114,0,0,0,1.072-.844l.268-.686Zm9.672,4.9a2.213,2.213,0,0,1-1.685-.65,2.518,2.518,0,0,1-.617-1.806,2.792,2.792,0,0,1,.573-1.85,1.9,1.9,0,0,1,1.54-.686,1.816,1.816,0,0,1,1.433.6,2.282,2.282,0,0,1,.527,1.571v.461h-3.318a1.909,1.909,0,0,0,.428,1.288,1.482,1.482,0,0,0,1.145.439,3.879,3.879,0,0,0,1.538-.325v.65a3.86,3.86,0,0,1-.732.24A4.112,4.112,0,0,1,101.76,24.088Zm-.2-4.381a1.191,1.191,0,0,0-.925.378,1.742,1.742,0,0,0-.406,1.046h2.518a1.6,1.6,0,0,0-.308-1.057A1.083,1.083,0,0,0,101.562,19.707ZM105.5,24h-.729V19.184h.729Zm-.791-6.122a.485.485,0,0,1,.123-.367.456.456,0,0,1,.611,0,.476.476,0,0,1,.127.365.483.483,0,0,1-.127.367.446.446,0,0,1-.611,0A.494.494,0,0,1,104.713,17.878Zm4.535,1.217a2.854,2.854,0,0,1,.576.053l-.1.677a2.485,2.485,0,0,0-.527-.066,1.284,1.284,0,0,0-1,.475,1.731,1.731,0,0,0-.415,1.182V24h-.729V19.184h.6l.083.892h.035a2.117,2.117,0,0,1,.646-.725A1.454,1.454,0,0,1,109.248,19.1Zm7.616,4.9V20.867a1.3,1.3,0,0,0-.246-.864.952.952,0,0,0-.765-.288,1.235,1.235,0,0,0-1.006.391,1.859,1.859,0,0,0-.325,1.2V24h-.729V20.867a1.3,1.3,0,0,0-.246-.864.958.958,0,0,0-.769-.288,1.191,1.191,0,0,0-1,.411,2.224,2.224,0,0,0-.319,1.347V24h-.729V19.184h.593l.119.659h.035a1.434,1.434,0,0,1,.582-.549,1.779,1.779,0,0,1,.842-.2,1.431,1.431,0,0,1,1.477.817h.035a1.536,1.536,0,0,1,.624-.6,1.936,1.936,0,0,1,.932-.22,1.631,1.631,0,0,1,1.224.42,1.877,1.877,0,0,1,.406,1.343V24Zm6.39-2.413a2.657,2.657,0,0,1-.593,1.839,2.089,2.089,0,0,1-1.639.661,2.171,2.171,0,0,1-1.147-.3,2,2,0,0,1-.773-.87,3.032,3.032,0,0,1-.272-1.327,2.653,2.653,0,0,1,.589-1.835,2.083,2.083,0,0,1,1.635-.657,2.038,2.038,0,0,1,1.606.672A2.645,2.645,0,0,1,123.253,21.587Zm-3.669,0a2.286,2.286,0,0,0,.369,1.406,1.465,1.465,0,0,0,2.173,0,2.274,2.274,0,0,0,.371-1.408,2.238,2.238,0,0,0-.371-1.4,1.3,1.3,0,0,0-1.1-.477,1.284,1.284,0,0,0-1.081.47A2.263,2.263,0,0,0,119.584,21.587Zm8.227,1.767h-.04a1.714,1.714,0,0,1-1.512.734,1.788,1.788,0,0,1-1.47-.646,2.843,2.843,0,0,1-.525-1.837,2.892,2.892,0,0,1,.527-1.85,1.775,1.775,0,0,1,1.468-.659,1.751,1.751,0,0,1,1.5.712h.057l-.031-.347-.018-.338v-1.96h.729V24h-.593Zm-1.459.123a1.328,1.328,0,0,0,1.083-.406,2.054,2.054,0,0,0,.336-1.312V21.6a2.417,2.417,0,0,0-.341-1.461,1.293,1.293,0,0,0-1.088-.437,1.117,1.117,0,0,0-.982.5,2.48,2.48,0,0,0-.341,1.408,2.378,2.378,0,0,0,.338,1.393A1.146,1.146,0,0,0,126.352,23.477Zm7.589.009a2.383,2.383,0,0,0,.374-.029,2.418,2.418,0,0,0,.286-.059v.558a1.334,1.334,0,0,1-.349.094,2.624,2.624,0,0,1-.415.037q-1.4,0-1.4-1.472V19.75h-.69V19.4l.69-.3.308-1.028h.422v1.116h1.4v.567h-1.4v2.834a.975.975,0,0,0,.207.668A.719.719,0,0,0,133.941,23.486Zm3.656.6a2.213,2.213,0,0,1-1.685-.65,2.518,2.518,0,0,1-.617-1.806,2.792,2.792,0,0,1,.573-1.85,1.9,1.9,0,0,1,1.54-.686,1.816,1.816,0,0,1,1.433.6,2.282,2.282,0,0,1,.527,1.571v.461H136.05a1.909,1.909,0,0,0,.428,1.288,1.482,1.482,0,0,0,1.145.439,3.879,3.879,0,0,0,1.538-.325v.65a3.86,3.86,0,0,1-.732.24A4.112,4.112,0,0,1,137.6,24.088Zm-.2-4.381a1.191,1.191,0,0,0-.925.378,1.742,1.742,0,0,0-.406,1.046h2.518a1.6,1.6,0,0,0-.308-1.057A1.083,1.083,0,0,0,137.4,19.707ZM146.751,24V20.867A1.3,1.3,0,0,0,146.5,20a.952.952,0,0,0-.765-.288,1.235,1.235,0,0,0-1.006.391,1.859,1.859,0,0,0-.325,1.2V24h-.729V20.867a1.3,1.3,0,0,0-.246-.864.958.958,0,0,0-.769-.288,1.191,1.191,0,0,0-1,.411,2.224,2.224,0,0,0-.319,1.347V24h-.729V19.184h.593l.119.659h.035a1.434,1.434,0,0,1,.582-.549,1.779,1.779,0,0,1,.842-.2,1.431,1.431,0,0,1,1.477.817h.035a1.536,1.536,0,0,1,.624-.6,1.936,1.936,0,0,1,.932-.22,1.631,1.631,0,0,1,1.224.42,1.877,1.877,0,0,1,.406,1.343V24Zm4.474.088a2.084,2.084,0,0,1-.859-.174,1.616,1.616,0,0,1-.653-.534h-.053a6.46,6.46,0,0,1,.053.8v1.982h-.729V19.184h.593l.1.659h.035a1.694,1.694,0,0,1,.655-.571,1.99,1.99,0,0,1,.857-.176,1.78,1.78,0,0,1,1.479.655,2.883,2.883,0,0,1,.521,1.837,2.866,2.866,0,0,1-.53,1.844A1.783,1.783,0,0,1,151.225,24.088Zm-.105-4.373a1.293,1.293,0,0,0-1.068.409,2.1,2.1,0,0,0-.338,1.3v.163a2.41,2.41,0,0,0,.338,1.452,1.287,1.287,0,0,0,1.085.437,1.129,1.129,0,0,0,.978-.505,2.4,2.4,0,0,0,.354-1.393,2.307,2.307,0,0,0-.354-1.382A1.164,1.164,0,0,0,151.119,19.715Zm7.537,1.872a2.657,2.657,0,0,1-.593,1.839,2.089,2.089,0,0,1-1.639.661,2.171,2.171,0,0,1-1.147-.3,2,2,0,0,1-.773-.87,3.032,3.032,0,0,1-.272-1.327,2.653,2.653,0,0,1,.589-1.835,2.083,2.083,0,0,1,1.635-.657,2.038,2.038,0,0,1,1.606.672A2.645,2.645,0,0,1,158.656,21.587Zm-3.669,0a2.286,2.286,0,0,0,.369,1.406,1.465,1.465,0,0,0,2.173,0,2.274,2.274,0,0,0,.371-1.408,2.238,2.238,0,0,0-.371-1.4,1.3,1.3,0,0,0-1.1-.477,1.284,1.284,0,0,0-1.081.47A2.263,2.263,0,0,0,154.986,21.587Zm7.146-2.492a2.854,2.854,0,0,1,.576.053l-.1.677a2.485,2.485,0,0,0-.527-.066,1.284,1.284,0,0,0-1,.475,1.731,1.731,0,0,0-.415,1.182V24h-.729V19.184h.6l.083.892h.035a2.117,2.117,0,0,1,.646-.725A1.454,1.454,0,0,1,162.132,19.1Zm4.544,4.9h-.729V19.184h.729Zm-.791-6.122a.485.485,0,0,1,.123-.367.456.456,0,0,1,.611,0,.476.476,0,0,1,.127.365.483.483,0,0,1-.127.367.446.446,0,0,1-.611,0A.494.494,0,0,1,165.885,17.878ZM171.519,24V20.884a1.257,1.257,0,0,0-.268-.879,1.092,1.092,0,0,0-.839-.29,1.384,1.384,0,0,0-1.107.409,2.063,2.063,0,0,0-.352,1.349V24h-.729V19.184h.593l.119.659h.035a1.49,1.49,0,0,1,.628-.552,2.042,2.042,0,0,1,.9-.2,1.829,1.829,0,0,1,1.31.42,1.786,1.786,0,0,1,.439,1.343V24Zm3.283,0-1.828-4.816h.782l1.037,2.856a13.52,13.52,0,0,1,.413,1.3h.035a9.825,9.825,0,0,1,.305-.965q.257-.732,1.154-3.193h.782L175.654,24Zm4.184,0h-.729V19.184h.729Zm-.791-6.122a.485.485,0,0,1,.123-.367.456.456,0,0,1,.611,0,.476.476,0,0,1,.127.365.483.483,0,0,1-.127.367.446.446,0,0,1-.611,0A.494.494,0,0,1,178.194,17.878Zm5.616,5.476h-.04a1.714,1.714,0,0,1-1.512.734,1.788,1.788,0,0,1-1.47-.646,2.843,2.843,0,0,1-.525-1.837,2.892,2.892,0,0,1,.527-1.85,1.775,1.775,0,0,1,1.468-.659,1.751,1.751,0,0,1,1.5.712h.057l-.031-.347-.018-.338v-1.96h.729V24h-.593Zm-1.459.123a1.328,1.328,0,0,0,1.083-.406,2.054,2.054,0,0,0,.336-1.312V21.6a2.417,2.417,0,0,0-.341-1.461,1.293,1.293,0,0,0-1.088-.437,1.117,1.117,0,0,0-.982.5,2.48,2.48,0,0,0-.341,1.408,2.378,2.378,0,0,0,.338,1.393A1.146,1.146,0,0,0,182.351,23.477Zm4.381-4.293v3.125a1.257,1.257,0,0,0,.268.879,1.092,1.092,0,0,0,.839.29,1.369,1.369,0,0,0,1.105-.413,2.084,2.084,0,0,0,.349-1.349V19.184h.729V24h-.6l-.105-.646h-.04a1.454,1.454,0,0,1-.622.545,2.09,2.09,0,0,1-.907.189,1.841,1.841,0,0,1-1.316-.417,1.777,1.777,0,0,1-.437-1.336V19.184ZM194.867,24V20.884a1.257,1.257,0,0,0-.268-.879,1.092,1.092,0,0,0-.839-.29,1.384,1.384,0,0,0-1.107.409,2.063,2.063,0,0,0-.352,1.349V24h-.729V19.184h.593l.119.659h.035a1.49,1.49,0,0,1,.628-.552,2.042,2.042,0,0,1,.9-.2,1.829,1.829,0,0,1,1.31.42,1.786,1.786,0,0,1,.439,1.343V24Zm3.784-.514a2.383,2.383,0,0,0,.374-.029,2.418,2.418,0,0,0,.286-.059v.558a1.334,1.334,0,0,1-.349.094,2.624,2.624,0,0,1-.415.037q-1.4,0-1.4-1.472V19.75h-.69V19.4l.69-.3.308-1.028h.422v1.116h1.4v.567h-1.4v2.834a.975.975,0,0,0,.207.668A.719.719,0,0,0,198.65,23.486Zm4.645-4.3v3.125a1.257,1.257,0,0,0,.268.879,1.092,1.092,0,0,0,.839.29,1.369,1.369,0,0,0,1.105-.413,2.084,2.084,0,0,0,.349-1.349V19.184h.729V24h-.6l-.105-.646h-.04a1.454,1.454,0,0,1-.622.545,2.09,2.09,0,0,1-.907.189,1.841,1.841,0,0,1-1.316-.417,1.777,1.777,0,0,1-.437-1.336V19.184Zm6.394,4.3a2.383,2.383,0,0,0,.374-.029,2.418,2.418,0,0,0,.286-.059v.558a1.334,1.334,0,0,1-.349.094,2.624,2.624,0,0,1-.415.037q-1.4,0-1.4-1.472V19.75h-.69V19.4l.69-.3.308-1.028h.422v1.116h1.4v.567h-1.4v2.834a.975.975,0,0,0,.207.668A.719.719,0,0,0,209.689,23.486Zm1.516.048a.655.655,0,0,1,.134-.446.486.486,0,0,1,.385-.152.52.52,0,0,1,.4.152.628.628,0,0,1,.143.446.616.616,0,0,1-.145.439.577.577,0,0,1-.767.015A.6.6,0,0,1,211.206,23.534Z" transform="translate(527.833 5741.477)" fill="#38485c"/>
      <path id="Trazado_23788" data-name="Trazado 23788" d="M7.344-4.488a.507.507,0,0,1,.366.132A.475.475,0,0,1,7.848-4v2.808A1.143,1.143,0,0,1,7.734-.6a.8.8,0,0,1-.45.288,5.462,5.462,0,0,1-1.14.3A8.089,8.089,0,0,1,4.836.1,4.53,4.53,0,0,1,2.616-.42,3.423,3.423,0,0,1,1.188-1.908,5.1,5.1,0,0,1,.7-4.236a5.044,5.044,0,0,1,.492-2.3A3.488,3.488,0,0,1,2.6-8.034a4.284,4.284,0,0,1,2.154-.522,4.741,4.741,0,0,1,1.554.246A3.383,3.383,0,0,1,7.524-7.6a.591.591,0,0,1,.24.48.567.567,0,0,1-.12.366.359.359,0,0,1-.288.15.483.483,0,0,1-.192-.036,1.611,1.611,0,0,1-.216-.12A4.393,4.393,0,0,0,5.88-7.362a3.23,3.23,0,0,0-1.1-.174,2.59,2.59,0,0,0-2.088.846,3.689,3.689,0,0,0-.72,2.454,3.687,3.687,0,0,0,.738,2.49A2.72,2.72,0,0,0,4.872-.9,5.952,5.952,0,0,0,6.72-1.188V-3.552H5.148a.539.539,0,0,1-.378-.126.44.44,0,0,1-.138-.342.44.44,0,0,1,.138-.342.539.539,0,0,1,.378-.126Zm5.292-1.488q.576-.036.576.492a.538.538,0,0,1-.132.4.712.712,0,0,1-.456.156l-.36.036a1.553,1.553,0,0,0-1.122.528,1.708,1.708,0,0,0-.366,1.1V-.516a.538.538,0,0,1-.168.432.64.64,0,0,1-.432.144.664.664,0,0,1-.438-.144.528.528,0,0,1-.174-.432V-5.4a.532.532,0,0,1,.174-.426.647.647,0,0,1,.438-.15.569.569,0,0,1,.4.15.536.536,0,0,1,.162.414v.576a1.763,1.763,0,0,1,.7-.8,2.339,2.339,0,0,1,1.032-.324ZM16.368-6a2.314,2.314,0,0,1,1.734.588,2.48,2.48,0,0,1,.57,1.788V-.516a.563.563,0,0,1-.156.426.6.6,0,0,1-.432.15.568.568,0,0,1-.42-.156.568.568,0,0,1-.156-.42V-.96a1.688,1.688,0,0,1-.678.774,2,2,0,0,1-1.05.27A2.339,2.339,0,0,1,14.73-.15a1.9,1.9,0,0,1-.75-.642,1.611,1.611,0,0,1-.276-.924,1.4,1.4,0,0,1,.324-1.014,2.026,2.026,0,0,1,1.092-.528,10.556,10.556,0,0,1,2.1-.162H17.5v-.348a1.411,1.411,0,0,0-.276-.972,1.156,1.156,0,0,0-.888-.3,2.828,2.828,0,0,0-.792.108,5.955,5.955,0,0,0-.816.312,1.176,1.176,0,0,1-.456.18.371.371,0,0,1-.294-.132.5.5,0,0,1-.114-.336.521.521,0,0,1,.1-.318,1.074,1.074,0,0,1,.33-.27,4.1,4.1,0,0,1,.984-.366A4.589,4.589,0,0,1,16.368-6ZM16-.816a1.411,1.411,0,0,0,1.08-.45,1.629,1.629,0,0,0,.42-1.158v-.312H17.28a9.349,9.349,0,0,0-1.44.084,1.413,1.413,0,0,0-.72.282.734.734,0,0,0-.216.57.9.9,0,0,0,.312.708A1.134,1.134,0,0,0,16-.816ZM23.472-6q2.1,0,2.1,2.364v3.12a.552.552,0,0,1-.162.426.637.637,0,0,1-.45.15A.6.6,0,0,1,24.522-.1a.556.556,0,0,1-.162-.42v-3.06a1.673,1.673,0,0,0-.294-1.092,1.136,1.136,0,0,0-.918-.348,1.567,1.567,0,0,0-1.176.456,1.679,1.679,0,0,0-.444,1.224v2.82a.556.556,0,0,1-.162.42.6.6,0,0,1-.438.156A.626.626,0,0,1,20.484-.1a.545.545,0,0,1-.168-.42V-5.4a.541.541,0,0,1,.174-.414.618.618,0,0,1,.438-.162.568.568,0,0,1,.42.156.552.552,0,0,1,.156.408v.492a1.947,1.947,0,0,1,.8-.8A2.429,2.429,0,0,1,23.472-6ZM32-8.52a.626.626,0,0,1,.444.156.545.545,0,0,1,.168.42V-.528a.572.572,0,0,1-.162.432.6.6,0,0,1-.438.156A.6.6,0,0,1,31.578-.1a.572.572,0,0,1-.162-.432v-.48a1.857,1.857,0,0,1-.768.81,2.344,2.344,0,0,1-1.164.282A2.432,2.432,0,0,1,28.134-.3a2.553,2.553,0,0,1-.924-1.08,3.683,3.683,0,0,1-.33-1.6,3.634,3.634,0,0,1,.33-1.6,2.5,2.5,0,0,1,.918-1.056A2.482,2.482,0,0,1,29.484-6a2.31,2.31,0,0,1,1.158.282,1.881,1.881,0,0,1,.762.8V-7.968a.521.521,0,0,1,.162-.4A.619.619,0,0,1,32-8.52ZM29.772-.876a1.464,1.464,0,0,0,1.212-.54,2.4,2.4,0,0,0,.432-1.536,2.429,2.429,0,0,0-.426-1.536,1.46,1.46,0,0,0-1.218-.54,1.5,1.5,0,0,0-1.23.534A2.335,2.335,0,0,0,28.1-2.976a2.415,2.415,0,0,0,.444,1.542A1.478,1.478,0,0,0,29.772-.876Zm9.108-.6a.341.341,0,0,1,.276.132.513.513,0,0,1,.108.336.69.69,0,0,1-.432.588,3.807,3.807,0,0,1-.918.372,3.722,3.722,0,0,1-.954.132,2.955,2.955,0,0,1-2.2-.81,3,3,0,0,1-.8-2.214,3.472,3.472,0,0,1,.354-1.6,2.6,2.6,0,0,1,1-1.08A2.785,2.785,0,0,1,36.768-6a2.383,2.383,0,0,1,1.86.756,2.926,2.926,0,0,1,.684,2.04q0,.48-.432.48H35.172q.12,1.86,1.788,1.86a2.212,2.212,0,0,0,.768-.12,5.585,5.585,0,0,0,.684-.312q.036-.024.2-.1A.655.655,0,0,1,38.88-1.476ZM36.792-5.112a1.464,1.464,0,0,0-1.116.444,2.074,2.074,0,0,0-.5,1.248h3.1a2.006,2.006,0,0,0-.414-1.254A1.327,1.327,0,0,0,36.792-5.112Zm5.88,5.2a3.631,3.631,0,0,1-2-.5A.912.912,0,0,1,40.362-.7a.6.6,0,0,1-.09-.324.5.5,0,0,1,.108-.324.341.341,0,0,1,.276-.132,1.183,1.183,0,0,1,.492.192,5.048,5.048,0,0,0,.7.312,2.622,2.622,0,0,0,.858.12,1.685,1.685,0,0,0,.9-.2.644.644,0,0,0,.324-.576.562.562,0,0,0-.126-.384,1.068,1.068,0,0,0-.438-.258,7.473,7.473,0,0,0-.924-.246,3.56,3.56,0,0,1-1.518-.618A1.317,1.317,0,0,1,40.464-4.2a1.547,1.547,0,0,1,.3-.93,1.948,1.948,0,0,1,.828-.642A3,3,0,0,1,42.792-6a3.5,3.5,0,0,1,.936.126,2.644,2.644,0,0,1,.8.366.744.744,0,0,1,.4.612.478.478,0,0,1-.114.324.346.346,0,0,1-.27.132.528.528,0,0,1-.216-.048,2.85,2.85,0,0,1-.288-.156,4.031,4.031,0,0,0-.606-.3,1.977,1.977,0,0,0-.7-.108,1.377,1.377,0,0,0-.81.216.683.683,0,0,0-.306.588.591.591,0,0,0,.282.522,3.457,3.457,0,0,0,1.062.354,5.82,5.82,0,0,1,1.26.384,1.493,1.493,0,0,1,.654.534,1.509,1.509,0,0,1,.2.81A1.476,1.476,0,0,1,44.418-.39,2.913,2.913,0,0,1,42.672.084Zm9.4,0a2.926,2.926,0,0,1-1.494-.372,2.54,2.54,0,0,1-1-1.056,3.4,3.4,0,0,1-.354-1.584,3.4,3.4,0,0,1,.366-1.608,2.645,2.645,0,0,1,1.026-1.08A2.951,2.951,0,0,1,52.128-6a3.329,3.329,0,0,1,.918.132,3.138,3.138,0,0,1,.822.36.747.747,0,0,1,.384.612.538.538,0,0,1-.108.342.336.336,0,0,1-.276.138.479.479,0,0,1-.216-.054,3.115,3.115,0,0,1-.276-.162,3.307,3.307,0,0,0-.558-.294,1.68,1.68,0,0,0-.618-.1,1.541,1.541,0,0,0-1.266.552,2.367,2.367,0,0,0-.45,1.536,2.313,2.313,0,0,0,.444,1.518,1.547,1.547,0,0,0,1.26.534A1.737,1.737,0,0,0,52.824-1a3.421,3.421,0,0,0,.564-.288,2.148,2.148,0,0,1,.264-.144.587.587,0,0,1,.24-.06.336.336,0,0,1,.276.138.538.538,0,0,1,.108.342.548.548,0,0,1-.09.306,1.065,1.065,0,0,1-.306.282,2.879,2.879,0,0,1-.84.372A3.65,3.65,0,0,1,52.068.084ZM58.512-6Q60.6-6,60.6-3.636v3.12a.545.545,0,0,1-.168.42.626.626,0,0,1-.444.156A.6.6,0,0,1,59.55-.1a.556.556,0,0,1-.162-.42V-3.624a1.578,1.578,0,0,0-.294-1.056,1.158,1.158,0,0,0-.918-.336A1.567,1.567,0,0,0,57-4.56a1.679,1.679,0,0,0-.444,1.224v2.82a.556.556,0,0,1-.162.42.6.6,0,0,1-.438.156A.626.626,0,0,1,55.512-.1a.545.545,0,0,1-.168-.42V-7.944a.536.536,0,0,1,.174-.42.649.649,0,0,1,.45-.156.6.6,0,0,1,.426.15.521.521,0,0,1,.162.4v3a2,2,0,0,1,.8-.768A2.446,2.446,0,0,1,58.512-6ZM64.788.084A3.017,3.017,0,0,1,63.27-.288,2.51,2.51,0,0,1,62.262-1.35a3.463,3.463,0,0,1-.354-1.6,3.49,3.49,0,0,1,.354-1.614A2.51,2.51,0,0,1,63.27-5.628,3.017,3.017,0,0,1,64.788-6a3.017,3.017,0,0,1,1.518.372,2.51,2.51,0,0,1,1.008,1.062,3.49,3.49,0,0,1,.354,1.614,3.463,3.463,0,0,1-.354,1.6A2.51,2.51,0,0,1,66.306-.288,3.017,3.017,0,0,1,64.788.084Zm0-.96a1.488,1.488,0,0,0,1.23-.528,2.42,2.42,0,0,0,.426-1.548,2.4,2.4,0,0,0-.432-1.542,1.485,1.485,0,0,0-1.224-.534,1.485,1.485,0,0,0-1.224.534,2.4,2.4,0,0,0-.432,1.542A2.42,2.42,0,0,0,63.558-1.4,1.488,1.488,0,0,0,64.788-.876Zm6.948-6.66a1.258,1.258,0,0,0-.888.378,1.429,1.429,0,0,0-.288.966v.336h1.188a.558.558,0,0,1,.39.126.44.44,0,0,1,.138.342.44.44,0,0,1-.138.342.558.558,0,0,1-.39.126H70.56V-.528a.547.547,0,0,1-.174.438.647.647,0,0,1-.438.15.624.624,0,0,1-.432-.15.557.557,0,0,1-.168-.438V-4.92h-.72a.558.558,0,0,1-.39-.126.44.44,0,0,1-.138-.342.44.44,0,0,1,.138-.342.558.558,0,0,1,.39-.126h.72v-.156a2.507,2.507,0,0,1,.564-1.734,2.254,2.254,0,0,1,1.6-.7l.312-.024a.978.978,0,0,1,.558.084.379.379,0,0,1,.174.348q0,.42-.5.48Zm5.856,6.06a.341.341,0,0,1,.276.132.513.513,0,0,1,.108.336.69.69,0,0,1-.432.588,3.807,3.807,0,0,1-.918.372,3.722,3.722,0,0,1-.954.132,2.955,2.955,0,0,1-2.2-.81,3,3,0,0,1-.8-2.214,3.472,3.472,0,0,1,.354-1.6,2.6,2.6,0,0,1,1-1.08A2.785,2.785,0,0,1,75.48-6a2.383,2.383,0,0,1,1.86.756,2.926,2.926,0,0,1,.684,2.04q0,.48-.432.48H73.884Q74-.864,75.672-.864a2.212,2.212,0,0,0,.768-.12,5.585,5.585,0,0,0,.684-.312q.036-.024.2-.1A.655.655,0,0,1,77.592-1.476ZM75.5-5.112a1.464,1.464,0,0,0-1.116.444,2.074,2.074,0,0,0-.5,1.248h3.1a2.006,2.006,0,0,0-.414-1.254A1.327,1.327,0,0,0,75.5-5.112Zm6.912-.864q.576-.036.576.492a.538.538,0,0,1-.132.4.712.712,0,0,1-.456.156l-.36.036a1.553,1.553,0,0,0-1.122.528,1.708,1.708,0,0,0-.366,1.1V-.516a.538.538,0,0,1-.168.432.64.64,0,0,1-.432.144.664.664,0,0,1-.438-.144.528.528,0,0,1-.174-.432V-5.4a.532.532,0,0,1,.174-.426.647.647,0,0,1,.438-.15.569.569,0,0,1,.4.15.536.536,0,0,1,.162.414v.576a1.763,1.763,0,0,1,.7-.8,2.339,2.339,0,0,1,1.032-.324Zm5.772,4.5a.341.341,0,0,1,.276.132.513.513,0,0,1,.108.336.69.69,0,0,1-.432.588,3.807,3.807,0,0,1-.918.372,3.722,3.722,0,0,1-.954.132,2.955,2.955,0,0,1-2.2-.81,3,3,0,0,1-.8-2.214,3.472,3.472,0,0,1,.354-1.6,2.6,2.6,0,0,1,1-1.08A2.785,2.785,0,0,1,86.076-6a2.383,2.383,0,0,1,1.86.756A2.926,2.926,0,0,1,88.62-3.2q0,.48-.432.48H84.48q.12,1.86,1.788,1.86a2.212,2.212,0,0,0,.768-.12A5.585,5.585,0,0,0,87.72-1.3q.036-.024.2-.1A.655.655,0,0,1,88.188-1.476ZM86.1-5.112a1.464,1.464,0,0,0-1.116.444,2.074,2.074,0,0,0-.5,1.248h3.1a2.006,2.006,0,0,0-.414-1.254A1.327,1.327,0,0,0,86.1-5.112Zm5.88,5.2a3.631,3.631,0,0,1-2-.5A.912.912,0,0,1,89.67-.7a.6.6,0,0,1-.09-.324.5.5,0,0,1,.108-.324.341.341,0,0,1,.276-.132,1.183,1.183,0,0,1,.492.192,5.048,5.048,0,0,0,.7.312,2.622,2.622,0,0,0,.858.12,1.685,1.685,0,0,0,.9-.2.644.644,0,0,0,.324-.576.562.562,0,0,0-.126-.384,1.068,1.068,0,0,0-.438-.258,7.473,7.473,0,0,0-.924-.246,3.56,3.56,0,0,1-1.518-.618A1.317,1.317,0,0,1,89.772-4.2a1.547,1.547,0,0,1,.3-.93,1.949,1.949,0,0,1,.828-.642A3,3,0,0,1,92.1-6a3.5,3.5,0,0,1,.936.126,2.644,2.644,0,0,1,.8.366.744.744,0,0,1,.4.612.478.478,0,0,1-.114.324.346.346,0,0,1-.27.132.528.528,0,0,1-.216-.048,2.851,2.851,0,0,1-.288-.156,4.03,4.03,0,0,0-.606-.3,1.977,1.977,0,0,0-.7-.108,1.377,1.377,0,0,0-.81.216.683.683,0,0,0-.306.588.591.591,0,0,0,.282.522,3.457,3.457,0,0,0,1.062.354,5.82,5.82,0,0,1,1.26.384,1.493,1.493,0,0,1,.654.534,1.509,1.509,0,0,1,.2.81A1.476,1.476,0,0,1,93.726-.39,2.913,2.913,0,0,1,91.98.084Z" transform="translate(528 5734)" fill="#38485c"/>
      <path id="Trazado_23789" data-name="Trazado 23789" d="M5,0V98a5,5,0,0,1-5-5V5A5,5,0,0,1,5,0Z" transform="translate(513 5697)" fill="#26874a"/>
      <path id="Trazado_4658" data-name="Trazado 4658" d="M16,0A16,16,0,1,0,32,16,16.018,16.018,0,0,0,16,0Zm0,0" transform="translate(779 5729)" fill="#26874a"/>
      <path id="Trazado_4659" data-name="Trazado 4659" d="M156.6,167.6l-8.667,8.667a1.332,1.332,0,0,1-1.885,0l-4.333-4.333a1.333,1.333,0,0,1,1.885-1.885L147,173.443l7.724-7.724A1.333,1.333,0,0,1,156.6,167.6Zm0,0" transform="translate(646.505 5574.005)" fill="#fafafa"/>
    </g>
  </g>
</svg>
