<svg xmlns="http://www.w3.org/2000/svg" width="485" height="97" viewBox="0 0 485 97"><defs><style>.a{fill:#f3f6f9;}.b{opacity:0.5;}.c{fill:#fff;}.d{fill:#9eaab8;stroke:#38485c;stroke-dasharray:5 2;}.e,.f{fill:#38485c;}.e{font-size:9px;font-family:OpenSans-Regular, Open Sans;}.f{font-size:12px;font-family:Nunito-SemiBold, Nunito;font-weight:600;letter-spacing:-0.001em;}.g{fill:#26874a;}</style></defs><g transform="translate(0 -0.153)"><rect class="a" width="485" height="97" rx="8" transform="translate(0 0.153)"/><g class="b" transform="translate(14.833 12.362)"><rect class="c" width="458.997" height="72.496" transform="translate(0.219)"/><path class="d" d="M0,72.83V0" transform="translate(459.833 0.076)"/><path class="d" d="M0,72.83V0" transform="translate(0 0.076)"/><path class="d" transform="translate(0.351 0.076)"/></g><g transform="translate(14.833 24.722)"><text class="e" transform="translate(0 19.755)"><tspan x="0" y="10">Lorem ipsum dolor sit amet, consetetur sadipscing elitr, sed diam nonumy eirmod tempor invidunt ut labore </tspan><tspan x="0" y="24">et dolore magna aliquyam erat, sed diam voluptua. At vero eos et accusam et justo duo dolores et ea rebum.</tspan></text><text class="f" transform="translate(0.167 12.431)"><tspan x="0" y="0">Grandes choferes</tspan></text></g><path class="g" d="M5,0H5A0,0,0,0,1,5,0V97a0,0,0,0,1,0,0H5a5,5,0,0,1-5-5V5A5,5,0,0,1,5,0Z" transform="translate(0 0.153)"/></g></svg>