<svg xmlns="http://www.w3.org/2000/svg" width="340" height="306" viewBox="0 0 340 306">
  <g id="Grupo_18100" data-name="Grupo 18100" transform="translate(-885 -5138)">
    <path id="Trazado_23813" data-name="Trazado 23813" d="M8,0H332a8,8,0,0,1,8,8V298a8,8,0,0,1-8,8H8a8,8,0,0,1-8-8V8A8,8,0,0,1,8,0Z" transform="translate(885 5138)" fill="#f3f6f9"/>
    <path id="Trazado_23814" data-name="Trazado 23814" d="M9.474,9.347a5.109,5.109,0,0,1-1.127,3.5,3.961,3.961,0,0,1-3.133,1.276,4.011,4.011,0,0,1-3.164-1.254A5.151,5.151,0,0,1,.937,9.334,5.086,5.086,0,0,1,2.054,5.821,4.04,4.04,0,0,1,5.228,4.574a3.953,3.953,0,0,1,3.123,1.27A5.1,5.1,0,0,1,9.474,9.347Zm-7.4,0a4.4,4.4,0,0,0,.8,2.86,2.849,2.849,0,0,0,2.333.974,2.822,2.822,0,0,0,2.33-.971,4.466,4.466,0,0,0,.787-2.863,4.43,4.43,0,0,0-.784-2.841,2.809,2.809,0,0,0-2.32-.968,2.864,2.864,0,0,0-2.345.974A4.359,4.359,0,0,0,2.079,9.347ZM16.87,4.72h1.162L14.686,14H13.62L10.294,4.72h1.143l2.133,6a16.842,16.842,0,0,1,.584,2.012,16.8,16.8,0,0,1,.6-2.05ZM24.507,14H19.334V4.72h5.173v.958H20.413v2.99h3.847V9.62H20.413v3.415h4.094Zm3.162-3.859V14H26.59V4.72h2.545a4.005,4.005,0,0,1,2.523.654,2.371,2.371,0,0,1,.816,1.968A2.465,2.465,0,0,1,30.608,9.83L33.128,14H31.852L29.6,10.141Zm0-.927h1.479a2.554,2.554,0,0,0,1.676-.454A1.689,1.689,0,0,0,31.357,7.4a1.549,1.549,0,0,0-.543-1.327,2.94,2.94,0,0,0-1.742-.406h-1.4ZM34.652,14V4.72h1.079v8.3h4.094V14Zm6.774,0V4.72H42.5V14Zm10.9,0H51.093L46.022,6.211h-.051q.1,1.371.1,2.514V14h-1V4.72h1.219l5.059,7.757H51.4q-.013-.171-.057-1.1t-.032-1.33V4.72h1.009Zm7.751,0H54.9V4.72h5.173v.958H55.982v2.99h3.847V9.62H55.982v3.415h4.094Z" transform="translate(1025 5159)" fill="#38485c"/>
    <path id="_Text_Overline_Selected_On_Surface_Medium_Emphasis_Left_" data-name="✱ / Text / Overline / Selected / On Surface / Medium Emphasis / Left " d="M49.183,15.79a3.119,3.119,0,0,1,2.346.893,3.258,3.258,0,0,1,.867,2.371V48.991a3.293,3.293,0,0,1-.893,2.4,3.424,3.424,0,0,1-4.666,0,3.348,3.348,0,0,1-.867-2.4v-12.6H27.559v12.6a3.293,3.293,0,0,1-.892,2.4,3.157,3.157,0,0,1-2.372.918,3.092,3.092,0,0,1-2.32-.918,3.293,3.293,0,0,1-.893-2.4V19.054a3.258,3.258,0,0,1,.867-2.371A3.119,3.119,0,0,1,24.3,15.79a3.07,3.07,0,0,1,3.264,3.264V31.09H45.97V19.054a3.258,3.258,0,0,1,.867-2.371A3.119,3.119,0,0,1,49.183,15.79ZM79.222,45.166a1.716,1.716,0,0,1,1.4.663,2.759,2.759,0,0,1,.535,1.785,3.092,3.092,0,0,1-1.887,2.652,17.049,17.049,0,0,1-3.927,1.556,16.19,16.19,0,0,1-4.182.587q-6.018,0-9.537-3.468t-3.519-9.486a14.554,14.554,0,0,1,1.53-6.783,11.125,11.125,0,0,1,4.31-4.59,12.2,12.2,0,0,1,6.3-1.632,11.3,11.3,0,0,1,5.865,1.479,10.029,10.029,0,0,1,3.876,4.182,13.877,13.877,0,0,1,1.377,6.375q0,2.193-1.938,2.193H64.381a8.024,8.024,0,0,0,1.989,5.176,6.694,6.694,0,0,0,4.9,1.658,9.284,9.284,0,0,0,2.882-.408,28.442,28.442,0,0,0,2.83-1.122A5.628,5.628,0,0,1,79.222,45.166ZM70.4,30.937a5.473,5.473,0,0,0-4.157,1.632,7.706,7.706,0,0,0-1.862,4.692H75.907a7.272,7.272,0,0,0-1.53-4.718A5.046,5.046,0,0,0,70.4,30.937Zm26.877-4.488q5.2,0,7.727,2.576t2.524,7.828V49.3a2.877,2.877,0,0,1-.816,2.167,3.089,3.089,0,0,1-2.244.791,2.984,2.984,0,0,1-2.168-.816,2.849,2.849,0,0,1-.841-2.142V48.175a6.654,6.654,0,0,1-2.729,3.111,8.184,8.184,0,0,1-4.309,1.122,10.007,10.007,0,0,1-4.539-1.02,8.075,8.075,0,0,1-3.213-2.805A7.088,7.088,0,0,1,85.5,44.6a6.3,6.3,0,0,1,1.4-4.335,8.428,8.428,0,0,1,4.565-2.3,41.567,41.567,0,0,1,8.721-.714h1.275V36.088a5.222,5.222,0,0,0-1.071-3.646,4.557,4.557,0,0,0-3.468-1.147,11,11,0,0,0-3.009.434q-1.53.433-3.621,1.249a5.1,5.1,0,0,1-1.938.663,1.918,1.918,0,0,1-1.5-.663,2.52,2.52,0,0,1-.587-1.734,2.611,2.611,0,0,1,.434-1.5,4.114,4.114,0,0,1,1.453-1.2,16.624,16.624,0,0,1,4.258-1.53A21.973,21.973,0,0,1,97.276,26.449ZM95.7,47.818a5.447,5.447,0,0,0,4.157-1.708,6.18,6.18,0,0,0,1.607-4.412V40.627h-.918a35.182,35.182,0,0,0-5.3.306A5.149,5.149,0,0,0,92.533,42a2.727,2.727,0,0,0-.816,2.091,3.46,3.46,0,0,0,1.147,2.677A4.047,4.047,0,0,0,95.7,47.818ZM134.71,15.79a3.4,3.4,0,0,1,2.346.816,2.729,2.729,0,0,1,.918,2.142v30.5a2.868,2.868,0,0,1-.867,2.193,3.635,3.635,0,0,1-4.59,0,2.868,2.868,0,0,1-.867-2.193V47.971a7.984,7.984,0,0,1-3.239,3.264,9.774,9.774,0,0,1-4.819,1.173,10.336,10.336,0,0,1-5.738-1.632,10.822,10.822,0,0,1-3.927-4.616,15.95,15.95,0,0,1-1.4-6.86,15.444,15.444,0,0,1,1.4-6.783,10.3,10.3,0,0,1,9.665-6.069,9.981,9.981,0,0,1,4.794,1.122,7.783,7.783,0,0,1,3.213,3.162V18.646a2.7,2.7,0,0,1,.842-2.065A3.181,3.181,0,0,1,134.71,15.79Zm-9.435,31.671a5.67,5.67,0,0,0,4.717-2.091A9.409,9.409,0,0,0,131.65,39.4a9.3,9.3,0,0,0-1.658-5.942,5.643,5.643,0,0,0-4.667-2.065,5.8,5.8,0,0,0-4.743,2.04A9,9,0,0,0,118.9,39.3a9.529,9.529,0,0,0,1.683,6.018A5.63,5.63,0,0,0,125.275,47.461Zm22.338,4.845a3.3,3.3,0,0,1-2.27-.791,2.872,2.872,0,0,1-.893-2.27V29.56a2.793,2.793,0,0,1,.893-2.244,3.364,3.364,0,0,1,2.27-.765,3.464,3.464,0,0,1,2.295.765,2.754,2.754,0,0,1,.918,2.244V49.246a2.832,2.832,0,0,1-.918,2.27A3.393,3.393,0,0,1,147.613,52.306Zm0-30.294a3.9,3.9,0,0,1-2.754-.944,3.212,3.212,0,0,1-1.02-2.474,3.132,3.132,0,0,1,1.02-2.448,4.552,4.552,0,0,1,5.482,0,3.1,3.1,0,0,1,1.046,2.448,3.212,3.212,0,0,1-1.02,2.474A3.9,3.9,0,0,1,147.613,22.012Zm24.174,4.437q4.488,0,6.681,2.55t2.193,7.7V49.246a2.98,2.98,0,0,1-.842,2.244,3.193,3.193,0,0,1-2.32.816,3.284,3.284,0,0,1-2.346-.816,2.933,2.933,0,0,1-.867-2.244V37.057a6.612,6.612,0,0,0-1.1-4.233,4.214,4.214,0,0,0-3.443-1.326,5.819,5.819,0,0,0-4.411,1.734,6.437,6.437,0,0,0-1.658,4.641V49.246a2.933,2.933,0,0,1-.867,2.244,3.284,3.284,0,0,1-2.346.816,3.193,3.193,0,0,1-2.321-.816,2.98,2.98,0,0,1-.841-2.244V29.509a2.805,2.805,0,0,1,.867-2.142,3.284,3.284,0,0,1,2.346-.816,3.038,3.038,0,0,1,2.167.79,2.7,2.7,0,0,1,.842,2.066v1.377a8.625,8.625,0,0,1,3.417-3.213A10.283,10.283,0,0,1,171.787,26.449Zm36.363.1a3.212,3.212,0,0,1,2.295.816,2.868,2.868,0,0,1,.867,2.193V49.705q0,5.865-3.264,8.874t-9.639,3.009a18.743,18.743,0,0,1-9.282-2.091,3.2,3.2,0,0,1-1.887-2.7,2.759,2.759,0,0,1,.536-1.785,1.716,1.716,0,0,1,1.4-.663,3.547,3.547,0,0,1,1.122.229q.663.229,1.377.535a29.236,29.236,0,0,0,3.29,1.173,12.394,12.394,0,0,0,3.34.408q6.681,0,6.681-6.528V46.9a7.788,7.788,0,0,1-3.264,3.238,10.206,10.206,0,0,1-4.9,1.147,10.808,10.808,0,0,1-5.788-1.556,10.69,10.69,0,0,1-3.952-4.361,14.086,14.086,0,0,1-1.428-6.477,14.461,14.461,0,0,1,1.4-6.5A10.428,10.428,0,0,1,191.014,28a10.939,10.939,0,0,1,5.814-1.556,10.206,10.206,0,0,1,4.9,1.148,7.788,7.788,0,0,1,3.264,3.238V29.509a2.805,2.805,0,0,1,.867-2.142A3.212,3.212,0,0,1,208.15,26.551Zm-9.639,19.788a5.949,5.949,0,0,0,4.768-1.989,8.1,8.1,0,0,0,1.708-5.457,8.184,8.184,0,0,0-1.708-5.508,6.68,6.68,0,0,0-9.512,0,8.1,8.1,0,0,0-1.734,5.508,8.023,8.023,0,0,0,1.734,5.457A5.966,5.966,0,0,0,198.512,46.339Zm55.233.357q3.06,0,3.06,2.6,0,2.7-3.06,2.7H236.507q-3.111,0-3.111-2.7,0-2.6,3.111-2.6h5.3V23.44l-4.9,3.009a2.637,2.637,0,0,1-1.275.408,2.246,2.246,0,0,1-1.811-.918,3.173,3.173,0,0,1-.74-2.04,2.558,2.558,0,0,1,1.326-2.3l7.9-4.9a5.681,5.681,0,0,1,2.907-.918,3.1,3.1,0,0,1,2.295.867,3.239,3.239,0,0,1,.867,2.4V46.7Z" transform="translate(917 5181)" fill="#38485c"/>
    <path id="_Text_H6_Selected_On_Surface_High_Emphasis_Left" data-name="✱ / Text / H6 / Selected / On Surface / High Emphasis / Left" d="M24.745,24V8.295h1.826V22.346H33.5V24Zm21.291-5.9a6.5,6.5,0,0,1-1.45,4.5,5.107,5.107,0,0,1-4.007,1.617,5.307,5.307,0,0,1-2.8-.741,4.892,4.892,0,0,1-1.891-2.127,7.413,7.413,0,0,1-.666-3.244,6.485,6.485,0,0,1,1.439-4.485,5.091,5.091,0,0,1,4-1.606,4.981,4.981,0,0,1,3.926,1.644A6.467,6.467,0,0,1,46.036,18.1Zm-8.97,0a5.588,5.588,0,0,0,.9,3.438,3.581,3.581,0,0,0,5.312.005,5.56,5.56,0,0,0,.908-3.443,5.47,5.47,0,0,0-.908-3.411,3.189,3.189,0,0,0-2.68-1.166,3.139,3.139,0,0,0-2.643,1.149A5.532,5.532,0,0,0,37.066,18.1Zm17.445-6.091a6.978,6.978,0,0,1,1.407.129l-.247,1.654a6.074,6.074,0,0,0-1.289-.161,3.138,3.138,0,0,0-2.444,1.16,4.23,4.23,0,0,0-1.015,2.89V24H49.14V12.227h1.472l.2,2.181H50.9a5.175,5.175,0,0,1,1.579-1.772A3.555,3.555,0,0,1,54.511,12.012Zm8.561,12.2a5.409,5.409,0,0,1-4.12-1.59,6.155,6.155,0,0,1-1.509-4.415,6.826,6.826,0,0,1,1.4-4.522,4.657,4.657,0,0,1,3.765-1.676,4.44,4.44,0,0,1,3.5,1.456,5.579,5.579,0,0,1,1.289,3.84v1.128h-8.11a4.667,4.667,0,0,0,1.047,3.147,3.622,3.622,0,0,0,2.8,1.074,9.483,9.483,0,0,0,3.76-.795v1.59a9.437,9.437,0,0,1-1.789.585A10.051,10.051,0,0,1,63.072,24.215ZM62.588,13.5a2.912,2.912,0,0,0-2.261.924,4.258,4.258,0,0,0-.994,2.557h6.155a3.921,3.921,0,0,0-.752-2.583A2.647,2.647,0,0,0,62.588,13.5ZM85.426,24V16.341a3.179,3.179,0,0,0-.6-2.111,2.327,2.327,0,0,0-1.869-.7,3.018,3.018,0,0,0-2.46.956,4.544,4.544,0,0,0-.795,2.943V24H77.917V16.341a3.179,3.179,0,0,0-.6-2.111,2.341,2.341,0,0,0-1.88-.7,2.912,2.912,0,0,0-2.455,1,5.436,5.436,0,0,0-.779,3.292V24H70.419V12.227h1.45l.29,1.611h.086A3.5,3.5,0,0,1,73.668,12.5a4.348,4.348,0,0,1,2.057-.483q2.761,0,3.609,2h.086a3.754,3.754,0,0,1,1.525-1.461,4.733,4.733,0,0,1,2.277-.537,3.987,3.987,0,0,1,2.992,1.026,4.589,4.589,0,0,1,.994,3.282V24Zm12.911,0H96.554V12.227h1.783ZM96.4,9.036a1.184,1.184,0,0,1,.3-.9,1.113,1.113,0,0,1,1.493.005,1.163,1.163,0,0,1,.312.892,1.181,1.181,0,0,1-.312.9,1.091,1.091,0,0,1-1.493,0A1.206,1.206,0,0,1,96.4,9.036Zm11.171,15.179a5.1,5.1,0,0,1-2.1-.424,3.949,3.949,0,0,1-1.6-1.305h-.129a15.792,15.792,0,0,1,.129,1.955v4.845H102.1V12.227h1.45l.247,1.611h.086a4.141,4.141,0,0,1,1.6-1.4,4.866,4.866,0,0,1,2.095-.43,4.351,4.351,0,0,1,3.615,1.6,7.047,7.047,0,0,1,1.273,4.49,7.006,7.006,0,0,1-1.294,4.506A4.359,4.359,0,0,1,107.575,24.215Zm-.258-10.688a3.16,3.16,0,0,0-2.61,1,5.141,5.141,0,0,0-.827,3.18v.4a5.892,5.892,0,0,0,.827,3.55,3.146,3.146,0,0,0,2.653,1.069,2.759,2.759,0,0,0,2.39-1.235,5.858,5.858,0,0,0,.865-3.405,5.638,5.638,0,0,0-.865-3.378A2.844,2.844,0,0,0,107.317,13.526Zm15.833,7.262a2.949,2.949,0,0,1-1.225,2.535,5.756,5.756,0,0,1-3.437.892,7.475,7.475,0,0,1-3.652-.741V21.819a8.833,8.833,0,0,0,1.821.677,7.6,7.6,0,0,0,1.875.247,4.251,4.251,0,0,0,2.148-.446,1.535,1.535,0,0,0,.156-2.535,9.378,9.378,0,0,0-2.326-1.155,12.611,12.611,0,0,1-2.336-1.069,3.192,3.192,0,0,1-1.031-1.037,2.7,2.7,0,0,1-.338-1.386,2.642,2.642,0,0,1,1.171-2.272,5.456,5.456,0,0,1,3.212-.833,9.4,9.4,0,0,1,3.717.773l-.634,1.45a8.532,8.532,0,0,0-3.212-.73,3.7,3.7,0,0,0-1.912.4A1.229,1.229,0,0,0,116.5,15a1.334,1.334,0,0,0,.242.806,2.385,2.385,0,0,0,.779.634,17.4,17.4,0,0,0,2.063.87,7.705,7.705,0,0,1,2.831,1.536A2.709,2.709,0,0,1,123.15,20.788Zm4.554-8.562v7.638a3.073,3.073,0,0,0,.655,2.148,2.669,2.669,0,0,0,2.052.709,3.348,3.348,0,0,0,2.7-1.01,5.094,5.094,0,0,0,.854-3.3V12.227h1.783V24h-1.472l-.258-1.579h-.1a3.554,3.554,0,0,1-1.52,1.332,5.109,5.109,0,0,1-2.218.462,4.5,4.5,0,0,1-3.217-1.021,4.344,4.344,0,0,1-1.069-3.266v-7.7ZM154.516,24V16.341a3.179,3.179,0,0,0-.6-2.111,2.327,2.327,0,0,0-1.869-.7,3.018,3.018,0,0,0-2.46.956,4.544,4.544,0,0,0-.795,2.943V24h-1.783V16.341a3.179,3.179,0,0,0-.6-2.111,2.341,2.341,0,0,0-1.88-.7,2.912,2.912,0,0,0-2.455,1,5.436,5.436,0,0,0-.779,3.292V24H139.51V12.227h1.45l.29,1.611h.086a3.5,3.5,0,0,1,1.423-1.343,4.348,4.348,0,0,1,2.057-.483q2.761,0,3.609,2h.086a3.754,3.754,0,0,1,1.525-1.461,4.733,4.733,0,0,1,2.277-.537,3.987,3.987,0,0,1,2.992,1.026,4.589,4.589,0,0,1,.994,3.282V24Zm19.142-1.579h-.1a4.19,4.19,0,0,1-3.7,1.794,4.371,4.371,0,0,1-3.593-1.579,6.951,6.951,0,0,1-1.284-4.49,7.068,7.068,0,0,1,1.289-4.522,4.338,4.338,0,0,1,3.588-1.611,4.281,4.281,0,0,1,3.674,1.74h.14L173.6,12.9l-.043-.827V7.285h1.783V24h-1.45Zm-3.566.3a3.247,3.247,0,0,0,2.648-.994,5.021,5.021,0,0,0,.822-3.207v-.376a5.908,5.908,0,0,0-.833-3.572A3.161,3.161,0,0,0,170.07,13.5a2.729,2.729,0,0,0-2.4,1.219,6.063,6.063,0,0,0-.833,3.443,5.812,5.812,0,0,0,.827,3.405A2.8,2.8,0,0,0,170.092,22.722ZM189.266,18.1a6.5,6.5,0,0,1-1.45,4.5,5.107,5.107,0,0,1-4.007,1.617,5.307,5.307,0,0,1-2.8-.741,4.892,4.892,0,0,1-1.891-2.127,7.413,7.413,0,0,1-.666-3.244,6.485,6.485,0,0,1,1.439-4.485,5.091,5.091,0,0,1,4-1.606,4.981,4.981,0,0,1,3.926,1.644A6.467,6.467,0,0,1,189.266,18.1Zm-8.97,0a5.588,5.588,0,0,0,.9,3.438,3.581,3.581,0,0,0,5.312.005,5.56,5.56,0,0,0,.908-3.443,5.47,5.47,0,0,0-.908-3.411,3.189,3.189,0,0,0-2.68-1.166,3.139,3.139,0,0,0-2.643,1.149A5.532,5.532,0,0,0,180.3,18.1ZM194.153,24H192.37V7.285h1.783Zm13.921-5.9a6.5,6.5,0,0,1-1.45,4.5,5.107,5.107,0,0,1-4.007,1.617,5.307,5.307,0,0,1-2.8-.741,4.892,4.892,0,0,1-1.891-2.127,7.413,7.413,0,0,1-.666-3.244,6.485,6.485,0,0,1,1.439-4.485,5.091,5.091,0,0,1,4-1.606,4.981,4.981,0,0,1,3.926,1.644A6.467,6.467,0,0,1,208.074,18.1Zm-8.97,0a5.588,5.588,0,0,0,.9,3.438,3.581,3.581,0,0,0,5.312.005,5.56,5.56,0,0,0,.908-3.443,5.47,5.47,0,0,0-.908-3.411,3.189,3.189,0,0,0-2.68-1.166A3.139,3.139,0,0,0,200,14.676,5.532,5.532,0,0,0,199.1,18.1Zm17.445-6.091a6.978,6.978,0,0,1,1.407.129l-.247,1.654a6.074,6.074,0,0,0-1.289-.161,3.138,3.138,0,0,0-2.444,1.16,4.23,4.23,0,0,0-1.015,2.89V24h-1.783V12.227h1.472l.2,2.181h.086a5.175,5.175,0,0,1,1.579-1.772A3.555,3.555,0,0,1,216.549,12.012Zm16.875,8.776a2.949,2.949,0,0,1-1.225,2.535,5.756,5.756,0,0,1-3.437.892,7.475,7.475,0,0,1-3.652-.741V21.819a8.832,8.832,0,0,0,1.821.677,7.6,7.6,0,0,0,1.875.247,4.251,4.251,0,0,0,2.148-.446,1.535,1.535,0,0,0,.156-2.535,9.378,9.378,0,0,0-2.326-1.155,12.611,12.611,0,0,1-2.336-1.069,3.192,3.192,0,0,1-1.031-1.037,2.7,2.7,0,0,1-.338-1.386,2.642,2.642,0,0,1,1.171-2.272,5.456,5.456,0,0,1,3.212-.833,9.4,9.4,0,0,1,3.717.773l-.634,1.45a8.532,8.532,0,0,0-3.212-.73,3.7,3.7,0,0,0-1.912.4,1.229,1.229,0,0,0-.645,1.1,1.334,1.334,0,0,0,.242.806,2.385,2.385,0,0,0,.779.634,17.4,17.4,0,0,0,2.063.87,7.705,7.705,0,0,1,2.831,1.536A2.709,2.709,0,0,1,233.424,20.788ZM238.086,24H236.3V12.227h1.783ZM236.152,9.036a1.184,1.184,0,0,1,.3-.9,1.113,1.113,0,0,1,1.493.005,1.163,1.163,0,0,1,.312.892,1.181,1.181,0,0,1-.312.9,1.091,1.091,0,0,1-1.493,0A1.206,1.206,0,0,1,236.152,9.036Zm9.5,13.707a5.825,5.825,0,0,0,.913-.07,5.91,5.91,0,0,0,.7-.145v1.364a3.26,3.26,0,0,1-.854.231,6.413,6.413,0,0,1-1.015.091q-3.416,0-3.416-3.6v-7h-1.687v-.859l1.687-.741.752-2.514h1.031v2.729h3.416v1.386h-3.416v6.929a2.384,2.384,0,0,0,.5,1.633A1.757,1.757,0,0,0,245.648,22.743ZM57.26,56l-.354-1.676H56.82a4.954,4.954,0,0,1-1.756,1.5,5.353,5.353,0,0,1-2.186.392,3.932,3.932,0,0,1-2.745-.9,3.291,3.291,0,0,1-.994-2.567q0-3.566,5.7-3.738l2-.064v-.73a2.985,2.985,0,0,0-.6-2.046,2.452,2.452,0,0,0-1.907-.661,7.769,7.769,0,0,0-3.33.9l-.548-1.364a8.379,8.379,0,0,1,1.907-.741,8.258,8.258,0,0,1,2.079-.269,4.485,4.485,0,0,1,3.121.935,3.9,3.9,0,0,1,1.015,3V56Zm-4.028-1.257a3.619,3.619,0,0,0,2.616-.913,3.378,3.378,0,0,0,.951-2.557V50.21l-1.783.075a6.486,6.486,0,0,0-3.067.661,1.992,1.992,0,0,0-.94,1.821,1.837,1.837,0,0,0,.585,1.472A2.43,2.43,0,0,0,53.232,54.743ZM77.24,56V48.341a3.179,3.179,0,0,0-.6-2.111,2.327,2.327,0,0,0-1.869-.7,3.018,3.018,0,0,0-2.46.956,4.544,4.544,0,0,0-.795,2.943V56H69.732V48.341a3.179,3.179,0,0,0-.6-2.111,2.341,2.341,0,0,0-1.88-.7,2.912,2.912,0,0,0-2.455,1,5.436,5.436,0,0,0-.779,3.292V56H62.234V44.227h1.45l.29,1.611h.086A3.5,3.5,0,0,1,65.483,44.5a4.348,4.348,0,0,1,2.057-.483q2.761,0,3.609,2h.086a3.754,3.754,0,0,1,1.525-1.461,4.733,4.733,0,0,1,2.277-.537,3.987,3.987,0,0,1,2.992,1.026,4.589,4.589,0,0,1,.994,3.282V56Zm10.409.215a5.409,5.409,0,0,1-4.12-1.59A6.155,6.155,0,0,1,82.02,50.21a6.826,6.826,0,0,1,1.4-4.522,4.657,4.657,0,0,1,3.765-1.676,4.44,4.44,0,0,1,3.5,1.456,5.579,5.579,0,0,1,1.289,3.84v1.128h-8.11a4.667,4.667,0,0,0,1.047,3.147,3.622,3.622,0,0,0,2.8,1.074,9.483,9.483,0,0,0,3.76-.795v1.59a9.437,9.437,0,0,1-1.789.585A10.051,10.051,0,0,1,87.649,56.215ZM87.166,45.5a2.912,2.912,0,0,0-2.261.924,4.258,4.258,0,0,0-.994,2.557h6.155a3.921,3.921,0,0,0-.752-2.583A2.647,2.647,0,0,0,87.166,45.5ZM98.8,54.743a5.825,5.825,0,0,0,.913-.07,5.911,5.911,0,0,0,.7-.145v1.364a3.26,3.26,0,0,1-.854.231,6.413,6.413,0,0,1-1.015.091q-3.416,0-3.416-3.6v-7H93.439v-.859l1.687-.741.752-2.514h1.031v2.729h3.416v1.386H96.908v6.929a2.384,2.384,0,0,0,.5,1.633A1.757,1.757,0,0,0,98.8,54.743Zm5.811-1.3.161.247q-.279,1.074-.806,2.5t-1.1,2.648h-1.343q.29-1.117.639-2.761t.489-2.632Zm13.9,2.771a5.025,5.025,0,0,1-3.958-1.574,6.472,6.472,0,0,1-1.4-4.453,6.673,6.673,0,0,1,1.423-4.565,5.125,5.125,0,0,1,4.055-1.611,8.047,8.047,0,0,1,1.7.183,5.591,5.591,0,0,1,1.332.43l-.548,1.515a8.385,8.385,0,0,0-1.289-.392,5.756,5.756,0,0,0-1.235-.156q-3.588,0-3.588,4.576a5.449,5.449,0,0,0,.875,3.33,3.046,3.046,0,0,0,2.594,1.16,7.932,7.932,0,0,0,3.019-.634V55.6A6.433,6.433,0,0,1,118.509,56.215ZM134.418,50.1a6.5,6.5,0,0,1-1.45,4.5,5.107,5.107,0,0,1-4.007,1.617,5.307,5.307,0,0,1-2.8-.741,4.892,4.892,0,0,1-1.891-2.127A7.413,7.413,0,0,1,123.6,50.1a6.485,6.485,0,0,1,1.439-4.485,5.091,5.091,0,0,1,4-1.606,4.981,4.981,0,0,1,3.926,1.644A6.467,6.467,0,0,1,134.418,50.1Zm-8.97,0a5.588,5.588,0,0,0,.9,3.438,3.581,3.581,0,0,0,5.312.005,5.56,5.56,0,0,0,.908-3.443,5.47,5.47,0,0,0-.908-3.411,3.189,3.189,0,0,0-2.68-1.166,3.139,3.139,0,0,0-2.643,1.149A5.532,5.532,0,0,0,125.448,50.1Zm20.13,5.9V48.384a3.073,3.073,0,0,0-.655-2.148,2.669,2.669,0,0,0-2.052-.709,3.384,3.384,0,0,0-2.707,1,5.044,5.044,0,0,0-.859,3.3V56h-1.783V44.227h1.45l.29,1.611h.086a3.641,3.641,0,0,1,1.536-1.348,4.991,4.991,0,0,1,2.2-.478,4.472,4.472,0,0,1,3.2,1.026,4.366,4.366,0,0,1,1.074,3.282V56ZM158.6,52.788a2.949,2.949,0,0,1-1.225,2.535,5.756,5.756,0,0,1-3.437.892,7.475,7.475,0,0,1-3.652-.741V53.819a8.832,8.832,0,0,0,1.821.677,7.6,7.6,0,0,0,1.875.247,4.251,4.251,0,0,0,2.148-.446,1.535,1.535,0,0,0,.156-2.535,9.378,9.378,0,0,0-2.326-1.155,12.611,12.611,0,0,1-2.336-1.069,3.192,3.192,0,0,1-1.031-1.037,2.7,2.7,0,0,1-.338-1.386,2.642,2.642,0,0,1,1.171-2.272,5.456,5.456,0,0,1,3.212-.833,9.4,9.4,0,0,1,3.717.773l-.634,1.45a8.532,8.532,0,0,0-3.212-.73,3.7,3.7,0,0,0-1.912.4,1.229,1.229,0,0,0-.645,1.1,1.334,1.334,0,0,0,.242.806,2.385,2.385,0,0,0,.779.634,17.406,17.406,0,0,0,2.063.87,7.705,7.705,0,0,1,2.831,1.536A2.709,2.709,0,0,1,158.6,52.788Zm7.852,3.427a5.409,5.409,0,0,1-4.12-1.59,6.155,6.155,0,0,1-1.509-4.415,6.826,6.826,0,0,1,1.4-4.522,4.657,4.657,0,0,1,3.765-1.676,4.44,4.44,0,0,1,3.5,1.456,5.579,5.579,0,0,1,1.289,3.84v1.128h-8.11a4.667,4.667,0,0,0,1.047,3.147,3.622,3.622,0,0,0,2.8,1.074,9.483,9.483,0,0,0,3.76-.795v1.59a9.436,9.436,0,0,1-1.789.585A10.051,10.051,0,0,1,166.45,56.215Zm-.483-10.71a2.912,2.912,0,0,0-2.261.924,4.258,4.258,0,0,0-.994,2.557h6.155a3.921,3.921,0,0,0-.752-2.583A2.647,2.647,0,0,0,165.966,45.5ZM177.6,54.743a5.825,5.825,0,0,0,.913-.07,5.911,5.911,0,0,0,.7-.145v1.364a3.26,3.26,0,0,1-.854.231,6.413,6.413,0,0,1-1.015.091q-3.416,0-3.416-3.6v-7h-1.687v-.859l1.687-.741.752-2.514h1.031v2.729h3.416v1.386h-3.416v6.929a2.384,2.384,0,0,0,.5,1.633A1.757,1.757,0,0,0,177.6,54.743Zm8.916,1.472a5.409,5.409,0,0,1-4.12-1.59,6.155,6.155,0,0,1-1.509-4.415,6.826,6.826,0,0,1,1.4-4.522,4.657,4.657,0,0,1,3.765-1.676,4.44,4.44,0,0,1,3.5,1.456,5.579,5.579,0,0,1,1.289,3.84v1.128h-8.11a4.667,4.667,0,0,0,1.047,3.147,3.622,3.622,0,0,0,2.8,1.074,9.483,9.483,0,0,0,3.76-.795v1.59a9.436,9.436,0,0,1-1.789.585A10.051,10.051,0,0,1,186.515,56.215Zm-.483-10.71a2.912,2.912,0,0,0-2.261.924,4.258,4.258,0,0,0-.994,2.557h6.155a3.921,3.921,0,0,0-.752-2.583A2.647,2.647,0,0,0,186.032,45.5Zm11.633,9.238a5.825,5.825,0,0,0,.913-.07,5.911,5.911,0,0,0,.7-.145v1.364a3.26,3.26,0,0,1-.854.231,6.413,6.413,0,0,1-1.015.091q-3.416,0-3.416-3.6v-7H192.3v-.859l1.687-.741.752-2.514h1.031v2.729h3.416v1.386h-3.416v6.929a2.384,2.384,0,0,0,.5,1.633A1.757,1.757,0,0,0,197.665,54.743Zm5.618-10.517v7.638a3.073,3.073,0,0,0,.655,2.148,2.669,2.669,0,0,0,2.052.709,3.348,3.348,0,0,0,2.7-1.01,5.094,5.094,0,0,0,.854-3.3V44.227h1.783V56h-1.472l-.258-1.579h-.1a3.554,3.554,0,0,1-1.52,1.332,5.109,5.109,0,0,1-2.218.462,4.5,4.5,0,0,1-3.217-1.021,4.344,4.344,0,0,1-1.069-3.266v-7.7Zm17.176-.215a6.978,6.978,0,0,1,1.407.129l-.247,1.654a6.074,6.074,0,0,0-1.289-.161,3.138,3.138,0,0,0-2.444,1.16,4.23,4.23,0,0,0-1.015,2.89V56h-1.783V44.227h1.472l.2,2.181h.086a5.175,5.175,0,0,1,1.579-1.772A3.555,3.555,0,0,1,220.459,44.012Z" transform="translate(917 5251)" fill="#38485c"/>
    <path id="Trazado_23815" data-name="Trazado 23815" d="M34.3,17V5.578h1.328V15.8h5.039V17Zm15.5-4.289a4.724,4.724,0,0,1-1.055,3.27,3.714,3.714,0,0,1-2.914,1.176,3.86,3.86,0,0,1-2.039-.539,3.558,3.558,0,0,1-1.375-1.547,5.391,5.391,0,0,1-.484-2.359A4.716,4.716,0,0,1,42.98,9.449a3.7,3.7,0,0,1,2.906-1.168,3.622,3.622,0,0,1,2.855,1.2A4.7,4.7,0,0,1,49.8,12.711Zm-6.523,0a4.064,4.064,0,0,0,.656,2.5,2.6,2.6,0,0,0,3.863,0,4.043,4.043,0,0,0,.66-2.5,3.978,3.978,0,0,0-.66-2.48,2.32,2.32,0,0,0-1.949-.848,2.283,2.283,0,0,0-1.922.836A4.023,4.023,0,0,0,43.277,12.711Zm12.7-4.43A5.075,5.075,0,0,1,57,8.375l-.18,1.2a4.418,4.418,0,0,0-.937-.117,2.282,2.282,0,0,0-1.777.844,3.077,3.077,0,0,0-.738,2.1V17h-1.3V8.438h1.07l.148,1.586h.063A3.764,3.764,0,0,1,54.5,8.734,2.585,2.585,0,0,1,55.98,8.281Zm6.242,8.875a3.934,3.934,0,0,1-3-1.156,4.476,4.476,0,0,1-1.1-3.211A4.964,4.964,0,0,1,59.148,9.5a3.387,3.387,0,0,1,2.738-1.219A3.229,3.229,0,0,1,64.434,9.34a4.057,4.057,0,0,1,.938,2.793v.82h-5.9a3.394,3.394,0,0,0,.762,2.289,2.634,2.634,0,0,0,2.035.781A6.9,6.9,0,0,0,65,15.445V16.6a6.863,6.863,0,0,1-1.3.426A7.31,7.31,0,0,1,62.223,17.156Zm-.352-7.789a2.118,2.118,0,0,0-1.645.672A3.1,3.1,0,0,0,59.5,11.9H63.98a2.851,2.851,0,0,0-.547-1.879A1.925,1.925,0,0,0,61.871,9.367ZM78.5,17V11.43a2.312,2.312,0,0,0-.437-1.535A1.692,1.692,0,0,0,76.7,9.383a2.195,2.195,0,0,0-1.789.7,3.3,3.3,0,0,0-.578,2.141V17h-1.3V11.43A2.312,2.312,0,0,0,72.6,9.895a1.7,1.7,0,0,0-1.367-.512,2.118,2.118,0,0,0-1.785.73,3.953,3.953,0,0,0-.566,2.395V17h-1.3V8.438h1.055l.211,1.172h.063a2.549,2.549,0,0,1,1.035-.977,3.162,3.162,0,0,1,1.5-.352,2.544,2.544,0,0,1,2.625,1.453h.063a2.73,2.73,0,0,1,1.109-1.062,3.442,3.442,0,0,1,1.656-.391,2.9,2.9,0,0,1,2.176.746,3.338,3.338,0,0,1,.723,2.387V17Zm9.422,0h-1.3V8.438h1.3ZM86.512,6.117a.861.861,0,0,1,.219-.652.81.81,0,0,1,1.086,0,.846.846,0,0,1,.227.648.859.859,0,0,1-.227.652.794.794,0,0,1-1.086,0A.877.877,0,0,1,86.512,6.117Zm8.141,11.039a3.706,3.706,0,0,1-1.527-.309,2.872,2.872,0,0,1-1.16-.949h-.094a11.485,11.485,0,0,1,.094,1.422v3.523h-1.3V8.438h1.055l.18,1.172h.063a3.012,3.012,0,0,1,1.164-1.016,3.539,3.539,0,0,1,1.523-.312,3.165,3.165,0,0,1,2.629,1.164,5.125,5.125,0,0,1,.926,3.266,5.1,5.1,0,0,1-.941,3.277A3.17,3.17,0,0,1,94.652,17.156Zm-.187-7.773a2.3,2.3,0,0,0-1.9.727,3.739,3.739,0,0,0-.6,2.313v.289a4.285,4.285,0,0,0,.6,2.582,2.288,2.288,0,0,0,1.93.777,2.007,2.007,0,0,0,1.738-.9,4.26,4.26,0,0,0,.629-2.477,4.1,4.1,0,0,0-.629-2.457A2.069,2.069,0,0,0,94.465,9.383ZM106,14.664a2.145,2.145,0,0,1-.891,1.844,4.186,4.186,0,0,1-2.5.648,5.436,5.436,0,0,1-2.656-.539v-1.2a6.424,6.424,0,0,0,1.324.492,5.53,5.53,0,0,0,1.363.18,3.092,3.092,0,0,0,1.563-.324,1.116,1.116,0,0,0,.113-1.844,6.82,6.82,0,0,0-1.691-.84,9.172,9.172,0,0,1-1.7-.777,2.321,2.321,0,0,1-.75-.754,1.966,1.966,0,0,1-.246-1.008,1.921,1.921,0,0,1,.852-1.652,3.968,3.968,0,0,1,2.336-.605,6.835,6.835,0,0,1,2.7.563L105.355,9.9a6.2,6.2,0,0,0-2.336-.531,2.687,2.687,0,0,0-1.391.289.894.894,0,0,0-.469.8.971.971,0,0,0,.176.586,1.735,1.735,0,0,0,.566.461,12.657,12.657,0,0,0,1.5.633,5.6,5.6,0,0,1,2.059,1.117A1.97,1.97,0,0,1,106,14.664Zm3.328-6.227v5.555a2.235,2.235,0,0,0,.477,1.563,1.941,1.941,0,0,0,1.492.516,2.435,2.435,0,0,0,1.965-.734,3.7,3.7,0,0,0,.621-2.4v-4.5h1.3V17h-1.07l-.187-1.148h-.07a2.585,2.585,0,0,1-1.105.969,3.716,3.716,0,0,1-1.613.336,3.273,3.273,0,0,1-2.34-.742,3.159,3.159,0,0,1-.777-2.375v-5.6ZM128.84,17V11.43a2.312,2.312,0,0,0-.437-1.535,1.692,1.692,0,0,0-1.359-.512,2.195,2.195,0,0,0-1.789.7,3.3,3.3,0,0,0-.578,2.141V17h-1.3V11.43a2.312,2.312,0,0,0-.437-1.535,1.7,1.7,0,0,0-1.367-.512,2.118,2.118,0,0,0-1.785.73,3.953,3.953,0,0,0-.566,2.395V17h-1.3V8.438h1.055l.211,1.172h.063a2.549,2.549,0,0,1,1.035-.977,3.162,3.162,0,0,1,1.5-.352,2.544,2.544,0,0,1,2.625,1.453h.063a2.73,2.73,0,0,1,1.109-1.062,3.442,3.442,0,0,1,1.656-.391,2.9,2.9,0,0,1,2.176.746,3.338,3.338,0,0,1,.723,2.387V17Zm13.953-1.148h-.07a3.047,3.047,0,0,1-2.687,1.3,3.179,3.179,0,0,1-2.613-1.148,5.055,5.055,0,0,1-.934-3.266,5.141,5.141,0,0,1,.938-3.289,3.155,3.155,0,0,1,2.609-1.172,3.114,3.114,0,0,1,2.672,1.266h.1l-.055-.617-.031-.6V4.844h1.3V17h-1.055Zm-2.594.219a2.361,2.361,0,0,0,1.926-.723,3.652,3.652,0,0,0,.6-2.332v-.273a4.3,4.3,0,0,0-.605-2.6,2.3,2.3,0,0,0-1.934-.777,1.985,1.985,0,0,0-1.746.887,4.409,4.409,0,0,0-.605,2.5,4.227,4.227,0,0,0,.6,2.477A2.037,2.037,0,0,0,140.2,16.07Zm13.961-3.359a4.724,4.724,0,0,1-1.055,3.27,3.714,3.714,0,0,1-2.914,1.176,3.86,3.86,0,0,1-2.039-.539,3.558,3.558,0,0,1-1.375-1.547,5.391,5.391,0,0,1-.484-2.359,4.716,4.716,0,0,1,1.047-3.262,3.7,3.7,0,0,1,2.906-1.168,3.622,3.622,0,0,1,2.855,1.2A4.7,4.7,0,0,1,154.16,12.711Zm-6.523,0a4.064,4.064,0,0,0,.656,2.5,2.6,2.6,0,0,0,3.863,0,4.043,4.043,0,0,0,.66-2.5,3.978,3.978,0,0,0-.66-2.48,2.32,2.32,0,0,0-1.949-.848,2.283,2.283,0,0,0-1.922.836A4.023,4.023,0,0,0,147.637,12.711ZM157.73,17h-1.3V4.844h1.3Zm10.141-4.289a4.724,4.724,0,0,1-1.055,3.27,3.714,3.714,0,0,1-2.914,1.176,3.86,3.86,0,0,1-2.039-.539,3.558,3.558,0,0,1-1.375-1.547A5.391,5.391,0,0,1,160,12.711a4.716,4.716,0,0,1,1.047-3.262,3.7,3.7,0,0,1,2.906-1.168,3.622,3.622,0,0,1,2.855,1.2A4.7,4.7,0,0,1,167.871,12.711Zm-6.523,0a4.064,4.064,0,0,0,.656,2.5,2.6,2.6,0,0,0,3.863,0,4.043,4.043,0,0,0,.66-2.5,3.978,3.978,0,0,0-.66-2.48,2.32,2.32,0,0,0-1.949-.848,2.283,2.283,0,0,0-1.922.836A4.023,4.023,0,0,0,161.348,12.711Zm12.7-4.43a5.075,5.075,0,0,1,1.023.094l-.18,1.2a4.418,4.418,0,0,0-.937-.117,2.282,2.282,0,0,0-1.777.844,3.077,3.077,0,0,0-.738,2.1V17h-1.3V8.438h1.07l.148,1.586h.063a3.764,3.764,0,0,1,1.148-1.289A2.585,2.585,0,0,1,174.051,8.281Zm12.3,6.383a2.145,2.145,0,0,1-.891,1.844,4.186,4.186,0,0,1-2.5.648,5.436,5.436,0,0,1-2.656-.539v-1.2a6.423,6.423,0,0,0,1.324.492,5.53,5.53,0,0,0,1.363.18,3.092,3.092,0,0,0,1.563-.324,1.116,1.116,0,0,0,.113-1.844,6.82,6.82,0,0,0-1.691-.84,9.172,9.172,0,0,1-1.7-.777,2.321,2.321,0,0,1-.75-.754,1.966,1.966,0,0,1-.246-1.008,1.921,1.921,0,0,1,.852-1.652,3.968,3.968,0,0,1,2.336-.605,6.835,6.835,0,0,1,2.7.563L185.715,9.9a6.2,6.2,0,0,0-2.336-.531,2.688,2.688,0,0,0-1.391.289.894.894,0,0,0-.469.8.971.971,0,0,0,.176.586,1.735,1.735,0,0,0,.566.461,12.659,12.659,0,0,0,1.5.633,5.6,5.6,0,0,1,2.059,1.117A1.97,1.97,0,0,1,186.355,14.664ZM189.762,17h-1.3V8.438h1.3ZM188.355,6.117a.861.861,0,0,1,.219-.652.81.81,0,0,1,1.086,0,.846.846,0,0,1,.227.648.859.859,0,0,1-.227.652.794.794,0,0,1-1.086,0A.877.877,0,0,1,188.355,6.117Zm6.922,9.969a4.236,4.236,0,0,0,.664-.051,4.3,4.3,0,0,0,.508-.105v.992a2.371,2.371,0,0,1-.621.168,4.664,4.664,0,0,1-.738.066q-2.484,0-2.484-2.617V9.445h-1.227V8.82l1.227-.539.547-1.828h.75V8.438h2.484V9.445H193.9v5.039a1.733,1.733,0,0,0,.367,1.188A1.278,1.278,0,0,0,195.277,16.086Zm12.3.914-.258-1.219h-.062a3.6,3.6,0,0,1-1.277,1.09,3.893,3.893,0,0,1-1.59.285,2.86,2.86,0,0,1-2-.656,2.394,2.394,0,0,1-.723-1.867q0-2.594,4.148-2.719l1.453-.047v-.531a2.171,2.171,0,0,0-.434-1.488,1.783,1.783,0,0,0-1.387-.48,5.65,5.65,0,0,0-2.422.656l-.4-.992a6.094,6.094,0,0,1,1.387-.539,6.006,6.006,0,0,1,1.512-.2,3.262,3.262,0,0,1,2.27.68,2.837,2.837,0,0,1,.738,2.18V17Zm-2.93-.914a2.632,2.632,0,0,0,1.9-.664,2.457,2.457,0,0,0,.691-1.859v-.773l-1.3.055a4.717,4.717,0,0,0-2.23.48,1.449,1.449,0,0,0-.684,1.324,1.336,1.336,0,0,0,.426,1.07A1.767,1.767,0,0,0,204.652,16.086ZM222.129,17V11.43a2.312,2.312,0,0,0-.437-1.535,1.692,1.692,0,0,0-1.359-.512,2.195,2.195,0,0,0-1.789.7,3.3,3.3,0,0,0-.578,2.141V17h-1.3V11.43a2.312,2.312,0,0,0-.437-1.535,1.7,1.7,0,0,0-1.367-.512,2.118,2.118,0,0,0-1.785.73,3.953,3.953,0,0,0-.566,2.395V17h-1.3V8.438h1.055l.211,1.172h.063a2.549,2.549,0,0,1,1.035-.977,3.163,3.163,0,0,1,1.5-.352A2.544,2.544,0,0,1,217.7,9.734h.063a2.73,2.73,0,0,1,1.109-1.062,3.442,3.442,0,0,1,1.656-.391,2.9,2.9,0,0,1,2.176.746,3.338,3.338,0,0,1,.723,2.387V17Zm7.586.156a3.934,3.934,0,0,1-3-1.156,4.476,4.476,0,0,1-1.1-3.211,4.964,4.964,0,0,1,1.02-3.289,3.387,3.387,0,0,1,2.738-1.219,3.229,3.229,0,0,1,2.547,1.059,4.057,4.057,0,0,1,.938,2.793v.82h-5.9a3.394,3.394,0,0,0,.762,2.289,2.634,2.634,0,0,0,2.035.781,6.9,6.9,0,0,0,2.734-.578V16.6a6.863,6.863,0,0,1-1.3.426A7.31,7.31,0,0,1,229.715,17.156Zm-.352-7.789a2.118,2.118,0,0,0-1.645.672A3.1,3.1,0,0,0,227,11.9h4.477a2.851,2.851,0,0,0-.547-1.879A1.925,1.925,0,0,0,229.363,9.367Zm8.477,6.719a4.236,4.236,0,0,0,.664-.051,4.3,4.3,0,0,0,.508-.105v.992a2.371,2.371,0,0,1-.621.168,4.664,4.664,0,0,1-.738.066q-2.484,0-2.484-2.617V9.445h-1.227V8.82l1.227-.539.547-1.828h.75V8.438h2.484V9.445h-2.484v5.039a1.733,1.733,0,0,0,.367,1.188A1.278,1.278,0,0,0,237.84,16.086Zm4.242-.945.117.18q-.2.781-.586,1.816t-.8,1.926h-.977q.211-.812.465-2.008t.355-1.914ZM6.672,41.156a3.654,3.654,0,0,1-2.879-1.145,4.707,4.707,0,0,1-1.02-3.238,4.853,4.853,0,0,1,1.035-3.32,3.727,3.727,0,0,1,2.949-1.172,5.852,5.852,0,0,1,1.234.133,4.066,4.066,0,0,1,.969.313l-.4,1.1a6.1,6.1,0,0,0-.937-.285,4.186,4.186,0,0,0-.9-.113q-2.609,0-2.609,3.328a3.963,3.963,0,0,0,.637,2.422,2.215,2.215,0,0,0,1.887.844,5.769,5.769,0,0,0,2.2-.461v1.148A4.679,4.679,0,0,1,6.672,41.156Zm11.586-4.445A4.724,4.724,0,0,1,17.2,39.98a3.714,3.714,0,0,1-2.914,1.176,3.86,3.86,0,0,1-2.039-.539,3.558,3.558,0,0,1-1.375-1.547,5.391,5.391,0,0,1-.484-2.359,4.716,4.716,0,0,1,1.047-3.262,3.7,3.7,0,0,1,2.906-1.168,3.622,3.622,0,0,1,2.855,1.2A4.7,4.7,0,0,1,18.258,36.711Zm-6.523,0a4.064,4.064,0,0,0,.656,2.5,2.278,2.278,0,0,0,1.93.859,2.293,2.293,0,0,0,1.934-.855,4.043,4.043,0,0,0,.66-2.5,3.978,3.978,0,0,0-.66-2.48,2.32,2.32,0,0,0-1.949-.848,2.283,2.283,0,0,0-1.922.836A4.023,4.023,0,0,0,11.734,36.711ZM26.391,41V35.461a2.235,2.235,0,0,0-.477-1.562,1.941,1.941,0,0,0-1.492-.516,2.461,2.461,0,0,0-1.969.727,3.668,3.668,0,0,0-.625,2.4V41h-1.3V32.438h1.055l.211,1.172h.063a2.648,2.648,0,0,1,1.117-.98,3.63,3.63,0,0,1,1.6-.348,3.252,3.252,0,0,1,2.328.746,3.175,3.175,0,0,1,.781,2.387V41Zm9.484-2.336a2.145,2.145,0,0,1-.891,1.844,4.186,4.186,0,0,1-2.5.648,5.436,5.436,0,0,1-2.656-.539v-1.2a6.424,6.424,0,0,0,1.324.492,5.53,5.53,0,0,0,1.363.18,3.092,3.092,0,0,0,1.563-.324,1.116,1.116,0,0,0,.113-1.844,6.82,6.82,0,0,0-1.691-.84,9.172,9.172,0,0,1-1.7-.777,2.321,2.321,0,0,1-.75-.754,1.966,1.966,0,0,1-.246-1.008,1.921,1.921,0,0,1,.852-1.652,3.968,3.968,0,0,1,2.336-.605,6.835,6.835,0,0,1,2.7.563L35.234,33.9a6.2,6.2,0,0,0-2.336-.531,2.688,2.688,0,0,0-1.391.289.894.894,0,0,0-.469.8.971.971,0,0,0,.176.586,1.735,1.735,0,0,0,.566.461,12.658,12.658,0,0,0,1.5.633A5.6,5.6,0,0,1,35.34,37.25,1.97,1.97,0,0,1,35.875,38.664ZM41.6,41.156a3.934,3.934,0,0,1-3-1.156,4.476,4.476,0,0,1-1.1-3.211,4.964,4.964,0,0,1,1.02-3.289,3.387,3.387,0,0,1,2.738-1.219,3.229,3.229,0,0,1,2.547,1.059,4.057,4.057,0,0,1,.938,2.793v.82h-5.9a3.394,3.394,0,0,0,.762,2.289,2.635,2.635,0,0,0,2.035.781,6.9,6.9,0,0,0,2.734-.578V40.6a6.863,6.863,0,0,1-1.3.426A7.31,7.31,0,0,1,41.6,41.156Zm-.352-7.789a2.118,2.118,0,0,0-1.645.672,3.1,3.1,0,0,0-.723,1.859h4.477a2.851,2.851,0,0,0-.547-1.879A1.925,1.925,0,0,0,41.25,33.367Zm8.477,6.719a4.236,4.236,0,0,0,.664-.051,4.3,4.3,0,0,0,.508-.105v.992a2.371,2.371,0,0,1-.621.168,4.664,4.664,0,0,1-.738.066q-2.484,0-2.484-2.617V33.445H45.828V32.82l1.227-.539.547-1.828h.75v1.984h2.484v1.008H48.352v5.039a1.734,1.734,0,0,0,.367,1.188A1.278,1.278,0,0,0,49.727,40.086Zm6.5,1.07a3.934,3.934,0,0,1-3-1.156,4.476,4.476,0,0,1-1.1-3.211,4.964,4.964,0,0,1,1.02-3.289,3.387,3.387,0,0,1,2.738-1.219,3.229,3.229,0,0,1,2.547,1.059,4.057,4.057,0,0,1,.938,2.793v.82h-5.9a3.394,3.394,0,0,0,.762,2.289,2.635,2.635,0,0,0,2.035.781,6.9,6.9,0,0,0,2.734-.578V40.6a6.863,6.863,0,0,1-1.3.426A7.31,7.31,0,0,1,56.227,41.156Zm-.352-7.789a2.118,2.118,0,0,0-1.645.672,3.1,3.1,0,0,0-.723,1.859h4.477a2.851,2.851,0,0,0-.547-1.879A1.925,1.925,0,0,0,55.875,33.367Zm8.477,6.719a4.236,4.236,0,0,0,.664-.051,4.3,4.3,0,0,0,.508-.105v.992a2.371,2.371,0,0,1-.621.168,4.664,4.664,0,0,1-.738.066q-2.484,0-2.484-2.617V33.445H60.453V32.82l1.227-.539.547-1.828h.75v1.984h2.484v1.008H62.977v5.039a1.734,1.734,0,0,0,.367,1.188A1.278,1.278,0,0,0,64.352,40.086Zm4.1-7.648v5.555a2.235,2.235,0,0,0,.477,1.563,1.941,1.941,0,0,0,1.492.516,2.435,2.435,0,0,0,1.965-.734,3.7,3.7,0,0,0,.621-2.4v-4.5h1.3V41h-1.07l-.187-1.148h-.07a2.585,2.585,0,0,1-1.105.969,3.716,3.716,0,0,1-1.613.336,3.273,3.273,0,0,1-2.34-.742,3.159,3.159,0,0,1-.777-2.375v-5.6Zm12.508-.156a5.075,5.075,0,0,1,1.023.094l-.18,1.2a4.418,4.418,0,0,0-.937-.117,2.282,2.282,0,0,0-1.777.844,3.077,3.077,0,0,0-.738,2.1V41h-1.3V32.438h1.07l.148,1.586h.063a3.764,3.764,0,0,1,1.148-1.289A2.585,2.585,0,0,1,80.961,32.281Zm12.3,6.383a2.145,2.145,0,0,1-.891,1.844,4.186,4.186,0,0,1-2.5.648,5.436,5.436,0,0,1-2.656-.539v-1.2a6.424,6.424,0,0,0,1.324.492,5.53,5.53,0,0,0,1.363.18,3.092,3.092,0,0,0,1.563-.324,1.116,1.116,0,0,0,.113-1.844,6.82,6.82,0,0,0-1.691-.84,9.172,9.172,0,0,1-1.7-.777,2.321,2.321,0,0,1-.75-.754,1.966,1.966,0,0,1-.246-1.008,1.921,1.921,0,0,1,.852-1.652,3.968,3.968,0,0,1,2.336-.605,6.835,6.835,0,0,1,2.7.563L92.625,33.9a6.2,6.2,0,0,0-2.336-.531,2.688,2.688,0,0,0-1.391.289.894.894,0,0,0-.469.8.971.971,0,0,0,.176.586,1.735,1.735,0,0,0,.566.461,12.658,12.658,0,0,0,1.5.633A5.6,5.6,0,0,1,92.73,37.25,1.97,1.97,0,0,1,93.266,38.664ZM100.641,41l-.258-1.219h-.062a3.6,3.6,0,0,1-1.277,1.09,3.893,3.893,0,0,1-1.59.285,2.86,2.86,0,0,1-2-.656,2.394,2.394,0,0,1-.723-1.867q0-2.594,4.148-2.719l1.453-.047v-.531a2.171,2.171,0,0,0-.434-1.488,1.783,1.783,0,0,0-1.387-.48,5.65,5.65,0,0,0-2.422.656l-.4-.992a6.094,6.094,0,0,1,1.387-.539,6.006,6.006,0,0,1,1.512-.2,3.262,3.262,0,0,1,2.27.68,2.837,2.837,0,0,1,.738,2.18V41Zm-2.93-.914a2.632,2.632,0,0,0,1.9-.664,2.457,2.457,0,0,0,.691-1.859v-.773l-1.3.055a4.717,4.717,0,0,0-2.23.48,1.449,1.449,0,0,0-.684,1.324,1.336,1.336,0,0,0,.426,1.07A1.767,1.767,0,0,0,97.711,40.086Zm12.391-.234h-.07a3.047,3.047,0,0,1-2.687,1.3,3.179,3.179,0,0,1-2.613-1.148,5.055,5.055,0,0,1-.934-3.266,5.141,5.141,0,0,1,.938-3.289,3.155,3.155,0,0,1,2.609-1.172,3.114,3.114,0,0,1,2.672,1.266h.1l-.055-.617-.031-.6V28.844h1.3V41h-1.055Zm-2.594.219a2.361,2.361,0,0,0,1.926-.723,3.652,3.652,0,0,0,.6-2.332v-.273a4.3,4.3,0,0,0-.605-2.6,2.3,2.3,0,0,0-1.934-.777,1.985,1.985,0,0,0-1.746.887,4.409,4.409,0,0,0-.605,2.5,4.227,4.227,0,0,0,.6,2.477A2.037,2.037,0,0,0,107.508,40.07Zm7.867.93h-1.3V32.438h1.3Zm-1.406-10.883a.861.861,0,0,1,.219-.652.81.81,0,0,1,1.086,0,.846.846,0,0,1,.227.648.859.859,0,0,1-.227.652.794.794,0,0,1-1.086,0A.877.877,0,0,1,113.969,30.117Zm8.141,11.039a3.706,3.706,0,0,1-1.527-.309,2.872,2.872,0,0,1-1.16-.949h-.094a11.485,11.485,0,0,1,.094,1.422v3.523h-1.3V32.438h1.055l.18,1.172h.063a3.012,3.012,0,0,1,1.164-1.016,3.539,3.539,0,0,1,1.523-.312,3.165,3.165,0,0,1,2.629,1.164,5.125,5.125,0,0,1,.926,3.266,5.1,5.1,0,0,1-.941,3.277A3.17,3.17,0,0,1,122.109,41.156Zm-.187-7.773a2.3,2.3,0,0,0-1.9.727,3.739,3.739,0,0,0-.6,2.313v.289a4.285,4.285,0,0,0,.6,2.582,2.288,2.288,0,0,0,1.93.777,2.007,2.007,0,0,0,1.738-.9,4.26,4.26,0,0,0,.629-2.477,4.1,4.1,0,0,0-.629-2.457A2.069,2.069,0,0,0,121.922,33.383Zm11.531,5.281a2.145,2.145,0,0,1-.891,1.844,4.186,4.186,0,0,1-2.5.648,5.436,5.436,0,0,1-2.656-.539v-1.2a6.424,6.424,0,0,0,1.324.492,5.53,5.53,0,0,0,1.363.18,3.092,3.092,0,0,0,1.563-.324,1.116,1.116,0,0,0,.113-1.844,6.82,6.82,0,0,0-1.691-.84,9.172,9.172,0,0,1-1.7-.777,2.321,2.321,0,0,1-.75-.754,1.966,1.966,0,0,1-.246-1.008,1.921,1.921,0,0,1,.852-1.652,3.968,3.968,0,0,1,2.336-.605,6.835,6.835,0,0,1,2.7.563l-.461,1.055a6.2,6.2,0,0,0-2.336-.531,2.688,2.688,0,0,0-1.391.289.894.894,0,0,0-.469.8.971.971,0,0,0,.176.586,1.735,1.735,0,0,0,.566.461,12.659,12.659,0,0,0,1.5.633,5.6,5.6,0,0,1,2.059,1.117A1.97,1.97,0,0,1,133.453,38.664Zm5.531,2.492a3.654,3.654,0,0,1-2.879-1.145,4.707,4.707,0,0,1-1.02-3.238,4.853,4.853,0,0,1,1.035-3.32,3.727,3.727,0,0,1,2.949-1.172,5.852,5.852,0,0,1,1.234.133,4.066,4.066,0,0,1,.969.313l-.4,1.1a6.1,6.1,0,0,0-.937-.285,4.186,4.186,0,0,0-.9-.113q-2.609,0-2.609,3.328a3.963,3.963,0,0,0,.637,2.422,2.215,2.215,0,0,0,1.887.844,5.769,5.769,0,0,0,2.2-.461v1.148A4.679,4.679,0,0,1,138.984,41.156ZM144.477,41h-1.3V32.438h1.3ZM143.07,30.117a.861.861,0,0,1,.219-.652.81.81,0,0,1,1.086,0,.846.846,0,0,1,.227.648.859.859,0,0,1-.227.652.794.794,0,0,1-1.086,0A.877.877,0,0,1,143.07,30.117ZM153.086,41V35.461a2.235,2.235,0,0,0-.477-1.562,1.941,1.941,0,0,0-1.492-.516,2.461,2.461,0,0,0-1.969.727,3.668,3.668,0,0,0-.625,2.4V41h-1.3V32.438h1.055l.211,1.172h.063a2.648,2.648,0,0,1,1.117-.98,3.63,3.63,0,0,1,1.6-.348,3.252,3.252,0,0,1,2.328.746,3.175,3.175,0,0,1,.781,2.387V41Zm10.969-8.562v.82l-1.586.188a2.785,2.785,0,0,1,.563,1.711,2.531,2.531,0,0,1-.859,2.008,3.467,3.467,0,0,1-2.359.75,3.929,3.929,0,0,1-.719-.062,1.276,1.276,0,0,0-.828,1.1.56.56,0,0,0,.289.52,2.112,2.112,0,0,0,.992.168h1.516a3.394,3.394,0,0,1,2.137.586,2.036,2.036,0,0,1,.746,1.7A2.431,2.431,0,0,1,162.8,44.1a6.1,6.1,0,0,1-3.328.746,4.547,4.547,0,0,1-2.59-.625,2.018,2.018,0,0,1-.91-1.766,1.983,1.983,0,0,1,.5-1.352,2.546,2.546,0,0,1,1.406-.773,1.357,1.357,0,0,1-.551-.461,1.22,1.22,0,0,1-.223-.727,1.379,1.379,0,0,1,.25-.82,2.628,2.628,0,0,1,.789-.68,2.313,2.313,0,0,1-1.082-.93,2.732,2.732,0,0,1-.418-1.5,2.771,2.771,0,0,1,.844-2.168,3.445,3.445,0,0,1,2.391-.762,4.347,4.347,0,0,1,1.211.156Zm-6.828,10a1.162,1.162,0,0,0,.586,1.055,3.234,3.234,0,0,0,1.68.359,4.687,4.687,0,0,0,2.418-.488,1.5,1.5,0,0,0,.785-1.324,1.048,1.048,0,0,0-.43-.965,3.337,3.337,0,0,0-1.617-.27h-1.555a2.048,2.048,0,0,0-1.375.422A1.507,1.507,0,0,0,157.227,42.438Zm.7-7.258a1.743,1.743,0,0,0,.508,1.359,2.028,2.028,0,0,0,1.414.461,1.654,1.654,0,0,0,1.9-1.844,1.7,1.7,0,0,0-1.922-1.93,1.9,1.9,0,0,0-1.406.492A1.982,1.982,0,0,0,157.93,35.18Zm15.656,5.977a3.934,3.934,0,0,1-3-1.156,4.476,4.476,0,0,1-1.1-3.211,4.964,4.964,0,0,1,1.02-3.289,3.387,3.387,0,0,1,2.738-1.219A3.229,3.229,0,0,1,175.8,33.34a4.057,4.057,0,0,1,.938,2.793v.82h-5.9a3.394,3.394,0,0,0,.762,2.289,2.634,2.634,0,0,0,2.035.781,6.9,6.9,0,0,0,2.734-.578V40.6a6.863,6.863,0,0,1-1.3.426A7.31,7.31,0,0,1,173.586,41.156Zm-.352-7.789a2.118,2.118,0,0,0-1.645.672,3.1,3.1,0,0,0-.723,1.859h4.477a2.851,2.851,0,0,0-.547-1.879A1.925,1.925,0,0,0,173.234,33.367ZM180.242,41h-1.3V28.844h1.3Zm4.047,0h-1.3V32.438h1.3Zm-1.406-10.883a.861.861,0,0,1,.219-.652.81.81,0,0,1,1.086,0,.846.846,0,0,1,.227.648.859.859,0,0,1-.227.652.794.794,0,0,1-1.086,0A.877.877,0,0,1,182.883,30.117Zm6.922,9.969a4.236,4.236,0,0,0,.664-.051,4.3,4.3,0,0,0,.508-.105v.992a2.371,2.371,0,0,1-.621.168,4.664,4.664,0,0,1-.738.066q-2.484,0-2.484-2.617V33.445h-1.227V32.82l1.227-.539.547-1.828h.75v1.984h2.484v1.008H188.43v5.039a1.733,1.733,0,0,0,.367,1.188A1.278,1.278,0,0,0,189.8,40.086Zm6.789-7.8a5.075,5.075,0,0,1,1.023.094l-.18,1.2a4.418,4.418,0,0,0-.937-.117,2.282,2.282,0,0,0-1.777.844,3.077,3.077,0,0,0-.738,2.1V41h-1.3V32.438h1.07l.148,1.586h.063a3.764,3.764,0,0,1,1.148-1.289A2.585,2.585,0,0,1,196.594,32.281Zm3.984,6.859.117.18q-.2.781-.586,1.816t-.8,1.926h-.977q.211-.813.465-2.008t.355-1.914Zm12.242-.477a2.145,2.145,0,0,1-.891,1.844,4.186,4.186,0,0,1-2.5.648,5.436,5.436,0,0,1-2.656-.539v-1.2a6.424,6.424,0,0,0,1.324.492,5.53,5.53,0,0,0,1.363.18,3.092,3.092,0,0,0,1.563-.324,1.116,1.116,0,0,0,.113-1.844,6.82,6.82,0,0,0-1.691-.84,9.172,9.172,0,0,1-1.7-.777,2.321,2.321,0,0,1-.75-.754,1.966,1.966,0,0,1-.246-1.008,1.921,1.921,0,0,1,.852-1.652,3.968,3.968,0,0,1,2.336-.605,6.835,6.835,0,0,1,2.7.563L212.18,33.9a6.2,6.2,0,0,0-2.336-.531,2.688,2.688,0,0,0-1.391.289.894.894,0,0,0-.469.8.971.971,0,0,0,.176.586,1.735,1.735,0,0,0,.566.461,12.659,12.659,0,0,0,1.5.633,5.6,5.6,0,0,1,2.059,1.117A1.97,1.97,0,0,1,212.82,38.664Zm5.727,2.492a3.934,3.934,0,0,1-3-1.156,4.476,4.476,0,0,1-1.1-3.211,4.964,4.964,0,0,1,1.02-3.289,3.387,3.387,0,0,1,2.738-1.219,3.229,3.229,0,0,1,2.547,1.059,4.057,4.057,0,0,1,.938,2.793v.82h-5.9a3.394,3.394,0,0,0,.762,2.289,2.634,2.634,0,0,0,2.035.781,6.9,6.9,0,0,0,2.734-.578V40.6a6.863,6.863,0,0,1-1.3.426A7.31,7.31,0,0,1,218.547,41.156Zm-.352-7.789a2.118,2.118,0,0,0-1.645.672,3.1,3.1,0,0,0-.723,1.859H220.3a2.851,2.851,0,0,0-.547-1.879A1.925,1.925,0,0,0,218.2,33.367Zm11.539,6.484h-.07a3.047,3.047,0,0,1-2.687,1.3,3.179,3.179,0,0,1-2.613-1.148,5.055,5.055,0,0,1-.934-3.266,5.141,5.141,0,0,1,.938-3.289,3.155,3.155,0,0,1,2.609-1.172,3.114,3.114,0,0,1,2.672,1.266h.1l-.055-.617-.031-.6V28.844h1.3V41h-1.055Zm-2.594.219a2.361,2.361,0,0,0,1.926-.723,3.652,3.652,0,0,0,.6-2.332v-.273a4.3,4.3,0,0,0-.605-2.6,2.3,2.3,0,0,0-1.934-.777,1.985,1.985,0,0,0-1.746.887,4.409,4.409,0,0,0-.605,2.5,4.227,4.227,0,0,0,.6,2.477A2.037,2.037,0,0,0,227.141,40.07Zm16.555-.219h-.07a3.047,3.047,0,0,1-2.687,1.3,3.179,3.179,0,0,1-2.613-1.148,5.055,5.055,0,0,1-.934-3.266,5.141,5.141,0,0,1,.938-3.289,3.155,3.155,0,0,1,2.609-1.172,3.114,3.114,0,0,1,2.672,1.266h.1l-.055-.617-.031-.6V28.844h1.3V41h-1.055Zm-2.594.219a2.361,2.361,0,0,0,1.926-.723,3.652,3.652,0,0,0,.6-2.332v-.273a4.3,4.3,0,0,0-.605-2.6,2.3,2.3,0,0,0-1.934-.777,1.985,1.985,0,0,0-1.746.887,4.409,4.409,0,0,0-.605,2.5,4.227,4.227,0,0,0,.6,2.477A2.037,2.037,0,0,0,241.1,40.07Zm7.867.93h-1.3V32.438h1.3Zm-1.406-10.883a.861.861,0,0,1,.219-.652.81.81,0,0,1,1.086,0,.846.846,0,0,1,.227.648.859.859,0,0,1-.227.652.794.794,0,0,1-1.086,0A.877.877,0,0,1,247.563,30.117ZM256.984,41l-.258-1.219h-.062a3.6,3.6,0,0,1-1.277,1.09,3.893,3.893,0,0,1-1.59.285,2.86,2.86,0,0,1-2-.656,2.394,2.394,0,0,1-.723-1.867q0-2.594,4.148-2.719l1.453-.047v-.531a2.171,2.171,0,0,0-.434-1.488,1.783,1.783,0,0,0-1.387-.48,5.65,5.65,0,0,0-2.422.656l-.4-.992a6.094,6.094,0,0,1,1.387-.539,6.006,6.006,0,0,1,1.512-.2,3.262,3.262,0,0,1,2.27.68,2.837,2.837,0,0,1,.738,2.18V41Zm-2.93-.914a2.632,2.632,0,0,0,1.9-.664,2.457,2.457,0,0,0,.691-1.859v-.773l-1.3.055a4.717,4.717,0,0,0-2.23.48,1.449,1.449,0,0,0-.684,1.324,1.336,1.336,0,0,0,.426,1.07A1.767,1.767,0,0,0,254.055,40.086ZM271.531,41V35.43a2.312,2.312,0,0,0-.437-1.535,1.692,1.692,0,0,0-1.359-.512,2.195,2.195,0,0,0-1.789.7,3.3,3.3,0,0,0-.578,2.141V41h-1.3V35.43a2.312,2.312,0,0,0-.437-1.535,1.7,1.7,0,0,0-1.367-.512,2.118,2.118,0,0,0-1.785.73,3.953,3.953,0,0,0-.566,2.395V41h-1.3V32.438h1.055l.211,1.172h.063a2.549,2.549,0,0,1,1.035-.977,3.162,3.162,0,0,1,1.5-.352,2.544,2.544,0,0,1,2.625,1.453h.063a2.73,2.73,0,0,1,1.109-1.062,3.442,3.442,0,0,1,1.656-.391,2.9,2.9,0,0,1,2.176.746,3.338,3.338,0,0,1,.723,2.387V41ZM12.934,65V59.461a2.235,2.235,0,0,0-.477-1.562,1.941,1.941,0,0,0-1.492-.516A2.461,2.461,0,0,0,9,58.109a3.668,3.668,0,0,0-.625,2.4V65h-1.3V56.438H8.129l.211,1.172H8.4a2.648,2.648,0,0,1,1.117-.98,3.63,3.63,0,0,1,1.6-.348,3.252,3.252,0,0,1,2.328.746,3.175,3.175,0,0,1,.781,2.387V65Zm11.352-4.289a4.724,4.724,0,0,1-1.055,3.27,3.714,3.714,0,0,1-2.914,1.176,3.86,3.86,0,0,1-2.039-.539A3.558,3.558,0,0,1,16.9,63.07a5.391,5.391,0,0,1-.484-2.359,4.716,4.716,0,0,1,1.047-3.262,3.7,3.7,0,0,1,2.906-1.168,3.622,3.622,0,0,1,2.855,1.2A4.7,4.7,0,0,1,24.285,60.711Zm-6.523,0a4.064,4.064,0,0,0,.656,2.5,2.278,2.278,0,0,0,1.93.859,2.293,2.293,0,0,0,1.934-.855,4.043,4.043,0,0,0,.66-2.5,3.978,3.978,0,0,0-.66-2.48,2.32,2.32,0,0,0-1.949-.848,2.283,2.283,0,0,0-1.922.836A4.023,4.023,0,0,0,17.762,60.711ZM32.418,65V59.461a2.235,2.235,0,0,0-.477-1.562,1.941,1.941,0,0,0-1.492-.516,2.461,2.461,0,0,0-1.969.727,3.668,3.668,0,0,0-.625,2.4V65h-1.3V56.438h1.055l.211,1.172h.063A2.648,2.648,0,0,1,29,56.629a3.63,3.63,0,0,1,1.6-.348,3.252,3.252,0,0,1,2.328.746,3.175,3.175,0,0,1,.781,2.387V65Zm5.18-8.562v5.555a2.235,2.235,0,0,0,.477,1.563,1.941,1.941,0,0,0,1.492.516,2.435,2.435,0,0,0,1.965-.734,3.7,3.7,0,0,0,.621-2.4v-4.5h1.3V65h-1.07l-.187-1.148h-.07a2.585,2.585,0,0,1-1.105.969,3.716,3.716,0,0,1-1.613.336,3.273,3.273,0,0,1-2.34-.742,3.159,3.159,0,0,1-.777-2.375v-5.6ZM57.113,65V59.43a2.312,2.312,0,0,0-.437-1.535,1.692,1.692,0,0,0-1.359-.512,2.195,2.195,0,0,0-1.789.7,3.3,3.3,0,0,0-.578,2.141V65h-1.3V59.43a2.312,2.312,0,0,0-.437-1.535,1.7,1.7,0,0,0-1.367-.512,2.118,2.118,0,0,0-1.785.73,3.953,3.953,0,0,0-.566,2.395V65H46.2V56.438h1.055l.211,1.172h.063a2.549,2.549,0,0,1,1.035-.977,3.163,3.163,0,0,1,1.5-.352,2.544,2.544,0,0,1,2.625,1.453h.063a2.73,2.73,0,0,1,1.109-1.062,3.442,3.442,0,0,1,1.656-.391,2.9,2.9,0,0,1,2.176.746,3.338,3.338,0,0,1,.723,2.387V65Zm2.609-8.562h1.391l1.875,4.883a18.572,18.572,0,0,1,.766,2.414h.063q.1-.4.426-1.363t2.121-5.934h1.391l-3.68,9.75A4.864,4.864,0,0,1,62.8,68.238,2.716,2.716,0,0,1,61,68.844a5.218,5.218,0,0,1-1.172-.133V67.672a4.52,4.52,0,0,0,.961.094,1.981,1.981,0,0,0,1.906-1.5l.477-1.219Zm17.2,8.719a3.934,3.934,0,0,1-3-1.156,4.476,4.476,0,0,1-1.1-3.211,4.964,4.964,0,0,1,1.02-3.289,3.387,3.387,0,0,1,2.738-1.219,3.229,3.229,0,0,1,2.547,1.059,4.057,4.057,0,0,1,.938,2.793v.82h-5.9a3.394,3.394,0,0,0,.762,2.289,2.635,2.635,0,0,0,2.035.781,6.9,6.9,0,0,0,2.734-.578V64.6a6.863,6.863,0,0,1-1.3.426A7.31,7.31,0,0,1,76.918,65.156Zm-.352-7.789a2.118,2.118,0,0,0-1.645.672A3.1,3.1,0,0,0,74.2,59.9h4.477a2.851,2.851,0,0,0-.547-1.879A1.925,1.925,0,0,0,76.566,57.367ZM83.574,65h-1.3V56.438h1.3ZM82.168,54.117a.861.861,0,0,1,.219-.652.81.81,0,0,1,1.086,0,.846.846,0,0,1,.227.648.859.859,0,0,1-.227.652.794.794,0,0,1-1.086,0A.877.877,0,0,1,82.168,54.117Zm8.063,2.164a5.075,5.075,0,0,1,1.023.094l-.18,1.2a4.418,4.418,0,0,0-.937-.117,2.282,2.282,0,0,0-1.777.844,3.077,3.077,0,0,0-.738,2.1V65h-1.3V56.438h1.07l.148,1.586h.063a3.764,3.764,0,0,1,1.148-1.289A2.585,2.585,0,0,1,90.23,56.281ZM103.77,65V59.43a2.312,2.312,0,0,0-.437-1.535,1.692,1.692,0,0,0-1.359-.512,2.195,2.195,0,0,0-1.789.7,3.3,3.3,0,0,0-.578,2.141V65h-1.3V59.43a2.312,2.312,0,0,0-.437-1.535,1.7,1.7,0,0,0-1.367-.512,2.118,2.118,0,0,0-1.785.73,3.953,3.953,0,0,0-.566,2.395V65h-1.3V56.438H93.91l.211,1.172h.063a2.549,2.549,0,0,1,1.035-.977,3.162,3.162,0,0,1,1.5-.352,2.544,2.544,0,0,1,2.625,1.453H99.4a2.73,2.73,0,0,1,1.109-1.062,3.442,3.442,0,0,1,1.656-.391,2.9,2.9,0,0,1,2.176.746,3.338,3.338,0,0,1,.723,2.387V65Zm11.359-4.289a4.724,4.724,0,0,1-1.055,3.27,3.714,3.714,0,0,1-2.914,1.176,3.86,3.86,0,0,1-2.039-.539,3.558,3.558,0,0,1-1.375-1.547,5.391,5.391,0,0,1-.484-2.359,4.716,4.716,0,0,1,1.047-3.262,3.7,3.7,0,0,1,2.906-1.168,3.622,3.622,0,0,1,2.855,1.2A4.7,4.7,0,0,1,115.129,60.711Zm-6.523,0a4.064,4.064,0,0,0,.656,2.5,2.6,2.6,0,0,0,3.863,0,4.043,4.043,0,0,0,.66-2.5,3.978,3.978,0,0,0-.66-2.48,2.32,2.32,0,0,0-1.949-.848,2.283,2.283,0,0,0-1.922.836A4.023,4.023,0,0,0,108.605,60.711Zm14.625,3.141h-.07a3.047,3.047,0,0,1-2.687,1.3,3.179,3.179,0,0,1-2.613-1.148,5.055,5.055,0,0,1-.934-3.266,5.141,5.141,0,0,1,.938-3.289,3.155,3.155,0,0,1,2.609-1.172,3.114,3.114,0,0,1,2.672,1.266h.1l-.055-.617-.031-.6V52.844h1.3V65H123.4Zm-2.594.219a2.361,2.361,0,0,0,1.926-.723,3.652,3.652,0,0,0,.6-2.332v-.273a4.3,4.3,0,0,0-.605-2.6,2.3,2.3,0,0,0-1.934-.777,1.985,1.985,0,0,0-1.746.887,4.409,4.409,0,0,0-.605,2.5,4.227,4.227,0,0,0,.6,2.477A2.037,2.037,0,0,0,120.637,64.07Zm13.492.016a4.237,4.237,0,0,0,.664-.051,4.3,4.3,0,0,0,.508-.105v.992a2.371,2.371,0,0,1-.621.168,4.664,4.664,0,0,1-.738.066q-2.484,0-2.484-2.617V57.445H130.23V56.82l1.227-.539L132,54.453h.75v1.984h2.484v1.008h-2.484v5.039a1.733,1.733,0,0,0,.367,1.188A1.278,1.278,0,0,0,134.129,64.086Zm6.5,1.07a3.934,3.934,0,0,1-3-1.156,4.476,4.476,0,0,1-1.1-3.211,4.964,4.964,0,0,1,1.02-3.289,3.387,3.387,0,0,1,2.738-1.219,3.229,3.229,0,0,1,2.547,1.059,4.057,4.057,0,0,1,.938,2.793v.82h-5.9a3.394,3.394,0,0,0,.762,2.289,2.634,2.634,0,0,0,2.035.781,6.9,6.9,0,0,0,2.734-.578V64.6a6.863,6.863,0,0,1-1.3.426A7.31,7.31,0,0,1,140.629,65.156Zm-.352-7.789a2.118,2.118,0,0,0-1.645.672,3.1,3.1,0,0,0-.723,1.859h4.477a2.851,2.851,0,0,0-.547-1.879A1.925,1.925,0,0,0,140.277,57.367ZM156.9,65V59.43a2.312,2.312,0,0,0-.437-1.535,1.692,1.692,0,0,0-1.359-.512,2.195,2.195,0,0,0-1.789.7,3.3,3.3,0,0,0-.578,2.141V65h-1.3V59.43A2.312,2.312,0,0,0,151,57.895a1.7,1.7,0,0,0-1.367-.512,2.118,2.118,0,0,0-1.785.73,3.953,3.953,0,0,0-.566,2.395V65h-1.3V56.438h1.055l.211,1.172h.063a2.549,2.549,0,0,1,1.035-.977,3.163,3.163,0,0,1,1.5-.352,2.544,2.544,0,0,1,2.625,1.453h.063a2.73,2.73,0,0,1,1.109-1.062,3.442,3.442,0,0,1,1.656-.391,2.9,2.9,0,0,1,2.176.746,3.338,3.338,0,0,1,.723,2.387V65Zm7.953.156a3.706,3.706,0,0,1-1.527-.309,2.872,2.872,0,0,1-1.16-.949h-.094a11.485,11.485,0,0,1,.094,1.422v3.523h-1.3V56.438h1.055l.18,1.172h.063a3.012,3.012,0,0,1,1.164-1.016,3.539,3.539,0,0,1,1.523-.312,3.165,3.165,0,0,1,2.629,1.164,5.125,5.125,0,0,1,.926,3.266,5.1,5.1,0,0,1-.941,3.277A3.17,3.17,0,0,1,164.855,65.156Zm-.187-7.773a2.3,2.3,0,0,0-1.9.727,3.739,3.739,0,0,0-.6,2.313v.289a4.285,4.285,0,0,0,.6,2.582,2.288,2.288,0,0,0,1.93.777,2.007,2.007,0,0,0,1.738-.9,4.26,4.26,0,0,0,.629-2.477,4.1,4.1,0,0,0-.629-2.457A2.069,2.069,0,0,0,164.668,57.383Zm13.4,3.328a4.724,4.724,0,0,1-1.055,3.27,3.714,3.714,0,0,1-2.914,1.176,3.86,3.86,0,0,1-2.039-.539,3.558,3.558,0,0,1-1.375-1.547,5.391,5.391,0,0,1-.484-2.359,4.716,4.716,0,0,1,1.047-3.262,3.7,3.7,0,0,1,2.906-1.168,3.622,3.622,0,0,1,2.855,1.2A4.7,4.7,0,0,1,178.066,60.711Zm-6.523,0a4.064,4.064,0,0,0,.656,2.5,2.6,2.6,0,0,0,3.863,0,4.043,4.043,0,0,0,.66-2.5,3.978,3.978,0,0,0-.66-2.48,2.32,2.32,0,0,0-1.949-.848,2.283,2.283,0,0,0-1.922.836A4.023,4.023,0,0,0,171.543,60.711Zm12.7-4.43a5.075,5.075,0,0,1,1.023.094l-.18,1.2a4.418,4.418,0,0,0-.937-.117,2.282,2.282,0,0,0-1.777.844,3.077,3.077,0,0,0-.738,2.1V65h-1.3V56.438h1.07l.148,1.586h.063a3.764,3.764,0,0,1,1.148-1.289A2.585,2.585,0,0,1,184.246,56.281ZM192.324,65h-1.3V56.438h1.3Zm-1.406-10.883a.861.861,0,0,1,.219-.652.81.81,0,0,1,1.086,0,.846.846,0,0,1,.227.648.859.859,0,0,1-.227.652.794.794,0,0,1-1.086,0A.877.877,0,0,1,190.918,54.117ZM200.934,65V59.461a2.235,2.235,0,0,0-.477-1.562,1.941,1.941,0,0,0-1.492-.516,2.461,2.461,0,0,0-1.969.727,3.668,3.668,0,0,0-.625,2.4V65h-1.3V56.438h1.055l.211,1.172h.063a2.648,2.648,0,0,1,1.117-.98,3.63,3.63,0,0,1,1.6-.348,3.252,3.252,0,0,1,2.328.746,3.175,3.175,0,0,1,.781,2.387V65Zm5.836,0-3.25-8.562h1.391l1.844,5.078a24.035,24.035,0,0,1,.734,2.313h.063a17.468,17.468,0,0,1,.543-1.715q.457-1.3,2.051-5.676h1.391L208.285,65Zm7.438,0h-1.3V56.438h1.3ZM212.8,54.117a.861.861,0,0,1,.219-.652.81.81,0,0,1,1.086,0,.846.846,0,0,1,.227.648.859.859,0,0,1-.227.652.794.794,0,0,1-1.086,0A.877.877,0,0,1,212.8,54.117Zm9.984,9.734h-.07a3.047,3.047,0,0,1-2.687,1.3,3.179,3.179,0,0,1-2.613-1.148,5.055,5.055,0,0,1-.934-3.266,5.141,5.141,0,0,1,.938-3.289,3.155,3.155,0,0,1,2.609-1.172,3.114,3.114,0,0,1,2.672,1.266h.1l-.055-.617-.031-.6V52.844h1.3V65h-1.055Zm-2.594.219a2.361,2.361,0,0,0,1.926-.723,3.652,3.652,0,0,0,.6-2.332v-.273a4.3,4.3,0,0,0-.605-2.6,2.3,2.3,0,0,0-1.934-.777,1.985,1.985,0,0,0-1.746.887,4.409,4.409,0,0,0-.605,2.5,4.227,4.227,0,0,0,.6,2.477A2.037,2.037,0,0,0,220.191,64.07Zm7.789-7.633v5.555a2.235,2.235,0,0,0,.477,1.563,1.941,1.941,0,0,0,1.492.516,2.435,2.435,0,0,0,1.965-.734,3.7,3.7,0,0,0,.621-2.4v-4.5h1.3V65h-1.07l-.187-1.148h-.07a2.585,2.585,0,0,1-1.105.969,3.716,3.716,0,0,1-1.613.336,3.273,3.273,0,0,1-2.34-.742,3.159,3.159,0,0,1-.777-2.375v-5.6ZM242.441,65V59.461a2.235,2.235,0,0,0-.477-1.562,1.941,1.941,0,0,0-1.492-.516,2.461,2.461,0,0,0-1.969.727,3.668,3.668,0,0,0-.625,2.4V65h-1.3V56.438h1.055l.211,1.172h.063a2.648,2.648,0,0,1,1.117-.98,3.63,3.63,0,0,1,1.6-.348,3.252,3.252,0,0,1,2.328.746,3.175,3.175,0,0,1,.781,2.387V65Zm6.727-.914a4.237,4.237,0,0,0,.664-.051,4.3,4.3,0,0,0,.508-.105v.992a2.371,2.371,0,0,1-.621.168,4.664,4.664,0,0,1-.738.066q-2.484,0-2.484-2.617V57.445H245.27V56.82l1.227-.539.547-1.828h.75v1.984h2.484v1.008h-2.484v5.039a1.733,1.733,0,0,0,.367,1.188A1.278,1.278,0,0,0,249.168,64.086Zm8.258-7.648v5.555a2.235,2.235,0,0,0,.477,1.563,1.941,1.941,0,0,0,1.492.516,2.435,2.435,0,0,0,1.965-.734,3.7,3.7,0,0,0,.621-2.4v-4.5h1.3V65h-1.07l-.187-1.148h-.07a2.585,2.585,0,0,1-1.105.969,3.716,3.716,0,0,1-1.613.336,3.273,3.273,0,0,1-2.34-.742,3.159,3.159,0,0,1-.777-2.375v-5.6Zm11.367,7.648a4.237,4.237,0,0,0,.664-.051,4.3,4.3,0,0,0,.508-.105v.992a2.371,2.371,0,0,1-.621.168,4.664,4.664,0,0,1-.738.066q-2.484,0-2.484-2.617V57.445h-1.227V56.82l1.227-.539.547-1.828h.75v1.984H269.9v1.008h-2.484v5.039a1.734,1.734,0,0,0,.367,1.188A1.278,1.278,0,0,0,268.793,64.086ZM16.879,89h-1.3V76.844h1.3Zm8.016,0-.258-1.219h-.062a3.6,3.6,0,0,1-1.277,1.09,3.893,3.893,0,0,1-1.59.285,2.86,2.86,0,0,1-2-.656,2.394,2.394,0,0,1-.723-1.867q0-2.594,4.148-2.719l1.453-.047v-.531a2.171,2.171,0,0,0-.434-1.488,1.783,1.783,0,0,0-1.387-.48,5.65,5.65,0,0,0-2.422.656l-.4-.992a6.094,6.094,0,0,1,1.387-.539,6.006,6.006,0,0,1,1.512-.2,3.262,3.262,0,0,1,2.27.68,2.837,2.837,0,0,1,.738,2.18V89Zm-2.93-.914a2.632,2.632,0,0,0,1.9-.664,2.457,2.457,0,0,0,.691-1.859v-.773l-1.3.055a4.717,4.717,0,0,0-2.23.48,1.449,1.449,0,0,0-.684,1.324,1.336,1.336,0,0,0,.426,1.07A1.767,1.767,0,0,0,21.965,88.086ZM32.512,80.3a3.183,3.183,0,0,1,2.621,1.152,6.17,6.17,0,0,1-.008,6.539,3.17,3.17,0,0,1-2.613,1.168,3.706,3.706,0,0,1-1.527-.309,2.872,2.872,0,0,1-1.16-.949H29.73L29.457,89h-.93V76.844h1.3V79.8q0,.992-.062,1.781h.063A3.079,3.079,0,0,1,32.512,80.3Zm-.187,1.086a2.264,2.264,0,0,0-1.914.762,5.877,5.877,0,0,0,.016,5.148,2.288,2.288,0,0,0,1.93.777,2,2,0,0,0,1.781-.871,4.477,4.477,0,0,0,.586-2.5,4.3,4.3,0,0,0-.586-2.492A2.076,2.076,0,0,0,32.324,81.383Zm13.4,3.328a4.724,4.724,0,0,1-1.055,3.27,3.714,3.714,0,0,1-2.914,1.176,3.86,3.86,0,0,1-2.039-.539A3.558,3.558,0,0,1,38.34,87.07a5.391,5.391,0,0,1-.484-2.359A4.716,4.716,0,0,1,38.9,81.449a3.7,3.7,0,0,1,2.906-1.168,3.622,3.622,0,0,1,2.855,1.2A4.7,4.7,0,0,1,45.723,84.711Zm-6.523,0a4.064,4.064,0,0,0,.656,2.5,2.6,2.6,0,0,0,3.863,0,4.043,4.043,0,0,0,.66-2.5,3.978,3.978,0,0,0-.66-2.48,2.32,2.32,0,0,0-1.949-.848,2.283,2.283,0,0,0-1.922.836A4.023,4.023,0,0,0,39.2,84.711Zm12.7-4.43a5.075,5.075,0,0,1,1.023.094l-.18,1.2a4.418,4.418,0,0,0-.937-.117,2.282,2.282,0,0,0-1.777.844,3.077,3.077,0,0,0-.738,2.1V89H48V80.438h1.07l.148,1.586h.063a3.764,3.764,0,0,1,1.148-1.289A2.585,2.585,0,0,1,51.9,80.281Zm6.242,8.875a3.934,3.934,0,0,1-3-1.156,4.476,4.476,0,0,1-1.1-3.211A4.964,4.964,0,0,1,55.07,81.5a3.387,3.387,0,0,1,2.738-1.219,3.229,3.229,0,0,1,2.547,1.059,4.057,4.057,0,0,1,.938,2.793v.82h-5.9a3.394,3.394,0,0,0,.762,2.289,2.634,2.634,0,0,0,2.035.781,6.9,6.9,0,0,0,2.734-.578V88.6a6.863,6.863,0,0,1-1.3.426A7.31,7.31,0,0,1,58.145,89.156Zm-.352-7.789a2.118,2.118,0,0,0-1.645.672,3.1,3.1,0,0,0-.723,1.859H59.9a2.851,2.851,0,0,0-.547-1.879A1.925,1.925,0,0,0,57.793,81.367Zm13.484,7.789a3.934,3.934,0,0,1-3-1.156,4.476,4.476,0,0,1-1.1-3.211A4.964,4.964,0,0,1,68.2,81.5a3.387,3.387,0,0,1,2.738-1.219,3.229,3.229,0,0,1,2.547,1.059,4.057,4.057,0,0,1,.938,2.793v.82h-5.9a3.394,3.394,0,0,0,.762,2.289,2.634,2.634,0,0,0,2.035.781,6.9,6.9,0,0,0,2.734-.578V88.6a6.863,6.863,0,0,1-1.3.426A7.31,7.31,0,0,1,71.277,89.156Zm-.352-7.789a2.118,2.118,0,0,0-1.645.672,3.1,3.1,0,0,0-.723,1.859h4.477a2.851,2.851,0,0,0-.547-1.879A1.925,1.925,0,0,0,70.926,81.367ZM79.4,88.086a4.237,4.237,0,0,0,.664-.051,4.3,4.3,0,0,0,.508-.105v.992a2.371,2.371,0,0,1-.621.168,4.664,4.664,0,0,1-.738.066q-2.484,0-2.484-2.617V81.445H75.5V80.82l1.227-.539.547-1.828h.75v1.984h2.484v1.008H78.027v5.039a1.734,1.734,0,0,0,.367,1.188A1.278,1.278,0,0,0,79.4,88.086Zm12.867-.234H92.2a3.047,3.047,0,0,1-2.687,1.3A3.179,3.179,0,0,1,86.9,88.008a5.055,5.055,0,0,1-.934-3.266,5.14,5.14,0,0,1,.938-3.289,3.155,3.155,0,0,1,2.609-1.172,3.114,3.114,0,0,1,2.672,1.266h.1l-.055-.617-.031-.6V76.844h1.3V89H92.441Zm-2.594.219a2.361,2.361,0,0,0,1.926-.723,3.652,3.652,0,0,0,.6-2.332v-.273a4.3,4.3,0,0,0-.605-2.6,2.3,2.3,0,0,0-1.934-.777,1.985,1.985,0,0,0-1.746.887,4.409,4.409,0,0,0-.605,2.5,4.227,4.227,0,0,0,.6,2.477A2.037,2.037,0,0,0,89.676,88.07Zm13.961-3.359a4.724,4.724,0,0,1-1.055,3.27,3.714,3.714,0,0,1-2.914,1.176,3.86,3.86,0,0,1-2.039-.539,3.558,3.558,0,0,1-1.375-1.547,5.391,5.391,0,0,1-.484-2.359,4.716,4.716,0,0,1,1.047-3.262,3.7,3.7,0,0,1,2.906-1.168,3.622,3.622,0,0,1,2.855,1.2A4.7,4.7,0,0,1,103.637,84.711Zm-6.523,0a4.064,4.064,0,0,0,.656,2.5,2.6,2.6,0,0,0,3.863,0,4.043,4.043,0,0,0,.66-2.5,3.978,3.978,0,0,0-.66-2.48,2.32,2.32,0,0,0-1.949-.848,2.283,2.283,0,0,0-1.922.836A4.023,4.023,0,0,0,97.113,84.711ZM107.207,89h-1.3V76.844h1.3Zm10.141-4.289a4.724,4.724,0,0,1-1.055,3.27,3.714,3.714,0,0,1-2.914,1.176,3.86,3.86,0,0,1-2.039-.539,3.558,3.558,0,0,1-1.375-1.547,5.391,5.391,0,0,1-.484-2.359,4.716,4.716,0,0,1,1.047-3.262,3.7,3.7,0,0,1,2.906-1.168,3.622,3.622,0,0,1,2.855,1.2A4.7,4.7,0,0,1,117.348,84.711Zm-6.523,0a4.064,4.064,0,0,0,.656,2.5,2.6,2.6,0,0,0,3.863,0,4.043,4.043,0,0,0,.66-2.5,3.978,3.978,0,0,0-.66-2.48,2.32,2.32,0,0,0-1.949-.848,2.283,2.283,0,0,0-1.922.836A4.023,4.023,0,0,0,110.824,84.711Zm12.7-4.43a5.075,5.075,0,0,1,1.023.094l-.18,1.2a4.418,4.418,0,0,0-.937-.117,2.282,2.282,0,0,0-1.777.844,3.077,3.077,0,0,0-.738,2.1V89h-1.3V80.438h1.07l.148,1.586h.063a3.764,3.764,0,0,1,1.148-1.289A2.585,2.585,0,0,1,123.527,80.281Zm6.242,8.875a3.934,3.934,0,0,1-3-1.156,4.476,4.476,0,0,1-1.1-3.211A4.964,4.964,0,0,1,126.7,81.5a3.387,3.387,0,0,1,2.738-1.219,3.229,3.229,0,0,1,2.547,1.059,4.057,4.057,0,0,1,.938,2.793v.82h-5.9a3.394,3.394,0,0,0,.762,2.289,2.634,2.634,0,0,0,2.035.781,6.9,6.9,0,0,0,2.734-.578V88.6a6.863,6.863,0,0,1-1.3.426A7.31,7.31,0,0,1,129.77,89.156Zm-.352-7.789a2.118,2.118,0,0,0-1.645.672,3.1,3.1,0,0,0-.723,1.859h4.477a2.851,2.851,0,0,0-.547-1.879A1.925,1.925,0,0,0,129.418,81.367ZM150.2,89V83.43a2.312,2.312,0,0,0-.437-1.535,1.692,1.692,0,0,0-1.359-.512,2.195,2.195,0,0,0-1.789.7,3.3,3.3,0,0,0-.578,2.141V89h-1.3V83.43a2.312,2.312,0,0,0-.437-1.535,1.7,1.7,0,0,0-1.367-.512,2.118,2.118,0,0,0-1.785.73,3.953,3.953,0,0,0-.566,2.395V89h-1.3V80.438h1.055l.211,1.172h.063a2.549,2.549,0,0,1,1.035-.977,3.163,3.163,0,0,1,1.5-.352,2.544,2.544,0,0,1,2.625,1.453h.063a2.73,2.73,0,0,1,1.109-1.062,3.442,3.442,0,0,1,1.656-.391,2.9,2.9,0,0,1,2.176.746,3.338,3.338,0,0,1,.723,2.387V89Zm9.234,0-.258-1.219h-.062a3.6,3.6,0,0,1-1.277,1.09,3.893,3.893,0,0,1-1.59.285,2.86,2.86,0,0,1-2-.656,2.394,2.394,0,0,1-.723-1.867q0-2.594,4.148-2.719l1.453-.047v-.531a2.171,2.171,0,0,0-.434-1.488,1.783,1.783,0,0,0-1.387-.48,5.65,5.65,0,0,0-2.422.656l-.4-.992a6.094,6.094,0,0,1,1.387-.539,6.006,6.006,0,0,1,1.512-.2,3.262,3.262,0,0,1,2.27.68,2.837,2.837,0,0,1,.738,2.18V89Zm-2.93-.914a2.632,2.632,0,0,0,1.9-.664,2.457,2.457,0,0,0,.691-1.859v-.773l-1.3.055a4.717,4.717,0,0,0-2.23.48,1.449,1.449,0,0,0-.684,1.324,1.336,1.336,0,0,0,.426,1.07A1.767,1.767,0,0,0,156.5,88.086Zm13.57-7.648v.82l-1.586.188a2.785,2.785,0,0,1,.563,1.711,2.531,2.531,0,0,1-.859,2.008,3.467,3.467,0,0,1-2.359.75,3.929,3.929,0,0,1-.719-.062,1.276,1.276,0,0,0-.828,1.1.56.56,0,0,0,.289.52,2.112,2.112,0,0,0,.992.168h1.516a3.394,3.394,0,0,1,2.137.586,2.036,2.036,0,0,1,.746,1.7,2.431,2.431,0,0,1-1.141,2.168,6.1,6.1,0,0,1-3.328.746,4.547,4.547,0,0,1-2.59-.625,2.018,2.018,0,0,1-.91-1.766,1.983,1.983,0,0,1,.5-1.352,2.546,2.546,0,0,1,1.406-.773,1.357,1.357,0,0,1-.551-.461,1.22,1.22,0,0,1-.223-.727,1.379,1.379,0,0,1,.25-.82,2.628,2.628,0,0,1,.789-.68,2.313,2.313,0,0,1-1.082-.93,2.732,2.732,0,0,1-.418-1.5,2.771,2.771,0,0,1,.844-2.168,3.445,3.445,0,0,1,2.391-.762,4.347,4.347,0,0,1,1.211.156Zm-6.828,10a1.162,1.162,0,0,0,.586,1.055,3.234,3.234,0,0,0,1.68.359,4.687,4.687,0,0,0,2.418-.488,1.5,1.5,0,0,0,.785-1.324,1.048,1.048,0,0,0-.43-.965,3.337,3.337,0,0,0-1.617-.27h-1.555a2.048,2.048,0,0,0-1.375.422A1.507,1.507,0,0,0,163.246,90.438Zm.7-7.258a1.743,1.743,0,0,0,.508,1.359,2.028,2.028,0,0,0,1.414.461,1.654,1.654,0,0,0,1.9-1.844,1.7,1.7,0,0,0-1.922-1.93,1.9,1.9,0,0,0-1.406.492A1.982,1.982,0,0,0,163.949,83.18ZM177.691,89V83.461a2.235,2.235,0,0,0-.477-1.562,1.941,1.941,0,0,0-1.492-.516,2.461,2.461,0,0,0-1.969.727,3.668,3.668,0,0,0-.625,2.4V89h-1.3V80.438h1.055l.211,1.172h.063a2.648,2.648,0,0,1,1.117-.98,3.63,3.63,0,0,1,1.6-.348,3.252,3.252,0,0,1,2.328.746,3.175,3.175,0,0,1,.781,2.387V89Zm9.227,0-.258-1.219H186.6a3.6,3.6,0,0,1-1.277,1.09,3.893,3.893,0,0,1-1.59.285,2.86,2.86,0,0,1-2-.656,2.394,2.394,0,0,1-.723-1.867q0-2.594,4.148-2.719l1.453-.047v-.531a2.171,2.171,0,0,0-.434-1.488,1.783,1.783,0,0,0-1.387-.48,5.65,5.65,0,0,0-2.422.656l-.4-.992a6.094,6.094,0,0,1,1.387-.539,6.006,6.006,0,0,1,1.512-.2,3.262,3.262,0,0,1,2.27.68,2.837,2.837,0,0,1,.738,2.18V89Zm-2.93-.914a2.632,2.632,0,0,0,1.9-.664,2.457,2.457,0,0,0,.691-1.859v-.773l-1.3.055a4.717,4.717,0,0,0-2.23.48,1.449,1.449,0,0,0-.684,1.324,1.336,1.336,0,0,0,.426,1.07A1.767,1.767,0,0,0,183.988,88.086ZM199.973,89l-.258-1.219h-.062a3.6,3.6,0,0,1-1.277,1.09,3.893,3.893,0,0,1-1.59.285,2.86,2.86,0,0,1-2-.656,2.394,2.394,0,0,1-.723-1.867q0-2.594,4.148-2.719l1.453-.047v-.531a2.171,2.171,0,0,0-.434-1.488,1.783,1.783,0,0,0-1.387-.48,5.65,5.65,0,0,0-2.422.656l-.4-.992a6.094,6.094,0,0,1,1.387-.539,6.006,6.006,0,0,1,1.512-.2,3.262,3.262,0,0,1,2.27.68,2.837,2.837,0,0,1,.738,2.18V89Zm-2.93-.914a2.632,2.632,0,0,0,1.9-.664,2.457,2.457,0,0,0,.691-1.859v-.773l-1.3.055a4.717,4.717,0,0,0-2.23.48,1.449,1.449,0,0,0-.684,1.324,1.336,1.336,0,0,0,.426,1.07A1.767,1.767,0,0,0,197.043,88.086ZM204.9,89h-1.3V76.844h1.3Zm4.047,0h-1.3V80.438h1.3Zm-1.406-10.883a.861.861,0,0,1,.219-.652.81.81,0,0,1,1.086,0,.846.846,0,0,1,.227.648.859.859,0,0,1-.227.652.794.794,0,0,1-1.086,0A.877.877,0,0,1,207.543,78.117Zm7.391,9.953a2.356,2.356,0,0,0,1.891-.7,3.766,3.766,0,0,0,.633-2.344v-.289a4.282,4.282,0,0,0-.609-2.586,2.285,2.285,0,0,0-1.93-.789,1.985,1.985,0,0,0-1.746.887,4.409,4.409,0,0,0-.605,2.5,4.258,4.258,0,0,0,.6,2.465A2.025,2.025,0,0,0,214.934,88.07Zm-.2,1.086a3.124,3.124,0,0,1-2.586-1.164,5.082,5.082,0,0,1-.93-3.25,5.147,5.147,0,0,1,.938-3.281,3.444,3.444,0,0,1,5.313.148h.07l.188-1.172h1.023V92.844h-1.3V89.18a8.726,8.726,0,0,1,.086-1.328h-.1A3.063,3.063,0,0,1,214.738,89.156Zm7.984-8.719v5.555a2.235,2.235,0,0,0,.477,1.563,1.941,1.941,0,0,0,1.492.516,2.435,2.435,0,0,0,1.965-.734,3.7,3.7,0,0,0,.621-2.4v-4.5h1.3V89H227.5l-.187-1.148h-.07a2.585,2.585,0,0,1-1.105.969,3.716,3.716,0,0,1-1.613.336,3.273,3.273,0,0,1-2.34-.742,3.159,3.159,0,0,1-.777-2.375v-5.6Zm7.242,0h1.391l1.875,4.883A18.573,18.573,0,0,1,234,87.734h.063q.1-.4.426-1.363t2.121-5.934H238l-3.68,9.75a4.864,4.864,0,0,1-1.277,2.051,2.716,2.716,0,0,1-1.793.605,5.218,5.218,0,0,1-1.172-.133V91.672a4.52,4.52,0,0,0,.961.094,1.981,1.981,0,0,0,1.906-1.5l.477-1.219ZM244.652,89l-.258-1.219h-.062a3.6,3.6,0,0,1-1.277,1.09,3.893,3.893,0,0,1-1.59.285,2.86,2.86,0,0,1-2-.656,2.394,2.394,0,0,1-.723-1.867q0-2.594,4.148-2.719l1.453-.047v-.531a2.171,2.171,0,0,0-.434-1.488,1.783,1.783,0,0,0-1.387-.48,5.65,5.65,0,0,0-2.422.656l-.4-.992a6.094,6.094,0,0,1,1.387-.539,6.006,6.006,0,0,1,1.512-.2,3.262,3.262,0,0,1,2.27.68,2.837,2.837,0,0,1,.738,2.18V89Zm-2.93-.914a2.632,2.632,0,0,0,1.9-.664,2.457,2.457,0,0,0,.691-1.859v-.773l-1.3.055a4.717,4.717,0,0,0-2.23.48,1.449,1.449,0,0,0-.684,1.324,1.336,1.336,0,0,0,.426,1.07A1.767,1.767,0,0,0,241.723,88.086ZM259.2,89V83.43a2.312,2.312,0,0,0-.437-1.535,1.692,1.692,0,0,0-1.359-.512,2.195,2.195,0,0,0-1.789.7,3.3,3.3,0,0,0-.578,2.141V89h-1.3V83.43a2.312,2.312,0,0,0-.437-1.535,1.7,1.7,0,0,0-1.367-.512,2.118,2.118,0,0,0-1.785.73,3.953,3.953,0,0,0-.566,2.395V89h-1.3V80.438h1.055l.211,1.172h.063a2.549,2.549,0,0,1,1.035-.977,3.163,3.163,0,0,1,1.5-.352,2.544,2.544,0,0,1,2.625,1.453h.063a2.73,2.73,0,0,1,1.109-1.062,3.442,3.442,0,0,1,1.656-.391,2.9,2.9,0,0,1,2.176.746,3.338,3.338,0,0,1,.723,2.387V89Z" transform="translate(917 5325)" fill="#38485c"/>
    <path id="Trazado_4660" data-name="Trazado 4660" d="M16,0A16,16,0,1,0,32,16,16.018,16.018,0,0,0,16,0Zm0,0" transform="translate(1181 5150)" fill="#c93b3b"/>
    <path id="Trazado_4661" data-name="Trazado 4661" d="M167.646,165.761a1.333,1.333,0,1,1-1.885,1.885l-4.007-4.007-4.007,4.007a1.333,1.333,0,0,1-1.886-1.885l4.007-4.007-4.007-4.007a1.333,1.333,0,0,1,1.886-1.885l4.007,4.007,4.007-4.007a1.333,1.333,0,0,1,1.885,1.885l-4.007,4.007Zm0,0" transform="translate(1035.246 5004.246)" fill="#fff"/>
  </g>
</svg>
