<svg xmlns="http://www.w3.org/2000/svg" width="340" height="194" viewBox="0 0 340 194"><defs><style>.a{fill:#f3f6f9;}.b{fill:#26874a;font-size:13px;letter-spacing:0.002em;}.b,.d{font-family:OpenSans-Regular, Open Sans;}.c{fill:#ffdb2e;font-size:51px;font-family:Nunito-Bold, Nunito;font-weight:700;letter-spacing:-0.002em;}.d{fill:#007bc7;font-size:22px;letter-spacing:-0.001em;}.e{fill:#c93b3b;}</style></defs><g transform="translate(9509 4937)"><rect class="a" width="340" height="194" rx="8" transform="translate(-9509 -4937)"/><g transform="translate(-9478.566 -4917)"><text class="b" transform="translate(-0.433)"><tspan x="0" y="14">OVERLINE</tspan></text><text class="c" transform="translate(-0.433 22)"><tspan x="0" y="52">Heading 1</tspan></text><text class="d" transform="translate(-0.433 92)"><tspan x="0" y="24">Lorem ipsum dolor sit </tspan><tspan x="0" y="56">amet, consetetur </tspan></text></g><path class="e" d="M8,0H8A0,0,0,0,1,8,0V194a0,0,0,0,1,0,0H8a8,8,0,0,1-8-8V8A8,8,0,0,1,8,0Z" transform="translate(-9509 -4937)"/></g></svg>