<svg xmlns="http://www.w3.org/2000/svg" width="340" height="194" viewBox="0 0 340 194">
  <g id="Grupo_18098" data-name="Grupo 18098" transform="translate(-885 -4670)">
    <path id="Trazado_23809" data-name="Trazado 23809" d="M8,0H332a8,8,0,0,1,8,8V186a8,8,0,0,1-8,8H8a8,8,0,0,1-8-8V8A8,8,0,0,1,8,0Z" transform="translate(885 4670)" fill="#f3f6f9"/>
    <path id="Trazado_23810" data-name="Trazado 23810" d="M9.331,9.347a5.109,5.109,0,0,1-1.127,3.5,3.961,3.961,0,0,1-3.133,1.276,4.011,4.011,0,0,1-3.164-1.254A5.151,5.151,0,0,1,.793,9.334,5.086,5.086,0,0,1,1.911,5.821,4.04,4.04,0,0,1,5.084,4.574a3.953,3.953,0,0,1,3.123,1.27A5.1,5.1,0,0,1,9.331,9.347Zm-7.4,0a4.4,4.4,0,0,0,.8,2.86,2.849,2.849,0,0,0,2.333.974A2.822,2.822,0,0,0,7.4,12.21a4.466,4.466,0,0,0,.787-2.863A4.43,4.43,0,0,0,7.4,6.507a2.809,2.809,0,0,0-2.32-.968,2.864,2.864,0,0,0-2.345.974A4.359,4.359,0,0,0,1.936,9.347ZM16.727,4.72h1.162L14.543,14H13.477L10.151,4.72h1.143l2.133,6a16.842,16.842,0,0,1,.584,2.012,16.8,16.8,0,0,1,.6-2.05ZM24.364,14H19.19V4.72h5.173v.958H20.269v2.99h3.847V9.62H20.269v3.415h4.094Zm3.162-3.859V14H26.446V4.72h2.545a4.005,4.005,0,0,1,2.523.654,2.371,2.371,0,0,1,.816,1.968A2.465,2.465,0,0,1,30.464,9.83L32.984,14H31.708l-2.247-3.859Zm0-.927H29A2.554,2.554,0,0,0,30.68,8.76,1.689,1.689,0,0,0,31.213,7.4a1.549,1.549,0,0,0-.543-1.327,2.94,2.94,0,0,0-1.742-.406h-1.4ZM34.508,14V4.72h1.079v8.3h4.094V14Zm6.774,0V4.72h1.079V14Zm10.9,0H50.95L45.878,6.211h-.051q.1,1.371.1,2.514V14h-1V4.72h1.219l5.059,7.757h.051q-.013-.171-.057-1.1t-.032-1.33V4.72h1.009Zm7.751,0H54.759V4.72h5.173v.958H55.838v2.99h3.847V9.62H55.838v3.415h4.094Z" transform="translate(915 4690)" fill="#38485c"/>
    <path id="_Text_Overline_Selected_On_Surface_Medium_Emphasis_Left_" data-name="✱ / Text / Overline / Selected / On Surface / Medium Emphasis / Left " d="M31.977,15.79a3.119,3.119,0,0,1,2.346.893,3.258,3.258,0,0,1,.867,2.371V48.991a3.293,3.293,0,0,1-.893,2.4,3.424,3.424,0,0,1-4.666,0,3.348,3.348,0,0,1-.867-2.4v-12.6H10.353v12.6a3.293,3.293,0,0,1-.892,2.4,3.157,3.157,0,0,1-2.372.918,3.092,3.092,0,0,1-2.321-.918,3.293,3.293,0,0,1-.893-2.4V19.054a3.258,3.258,0,0,1,.867-2.371,3.119,3.119,0,0,1,2.346-.893,3.205,3.205,0,0,1,2.372.893,3.205,3.205,0,0,1,.892,2.371V31.09H28.764V19.054a3.258,3.258,0,0,1,.867-2.371A3.119,3.119,0,0,1,31.977,15.79ZM62.016,45.166a1.716,1.716,0,0,1,1.4.663,2.759,2.759,0,0,1,.535,1.785,3.092,3.092,0,0,1-1.887,2.652,17.049,17.049,0,0,1-3.927,1.556,16.19,16.19,0,0,1-4.182.587q-6.018,0-9.537-3.468T40.9,39.454a14.554,14.554,0,0,1,1.53-6.783,11.125,11.125,0,0,1,4.31-4.59,12.2,12.2,0,0,1,6.3-1.632A11.3,11.3,0,0,1,58.9,27.928a10.028,10.028,0,0,1,3.876,4.182,13.877,13.877,0,0,1,1.377,6.375q0,2.193-1.938,2.193H47.175a8.024,8.024,0,0,0,1.989,5.176,6.694,6.694,0,0,0,4.9,1.658,9.284,9.284,0,0,0,2.882-.408,28.443,28.443,0,0,0,2.83-1.122A5.628,5.628,0,0,1,62.016,45.166ZM53.193,30.937a5.473,5.473,0,0,0-4.156,1.632,7.706,7.706,0,0,0-1.862,4.692H58.7a7.272,7.272,0,0,0-1.53-4.718A5.046,5.046,0,0,0,53.193,30.937ZM80.07,26.449q5.2,0,7.727,2.576t2.524,7.828V49.3a2.877,2.877,0,0,1-.816,2.167,3.089,3.089,0,0,1-2.244.791,2.984,2.984,0,0,1-2.168-.816,2.849,2.849,0,0,1-.841-2.142V48.175a6.654,6.654,0,0,1-2.729,3.111,8.184,8.184,0,0,1-4.309,1.122,10.007,10.007,0,0,1-4.539-1.02,8.075,8.075,0,0,1-3.213-2.805A7.088,7.088,0,0,1,68.289,44.6a6.3,6.3,0,0,1,1.4-4.335,8.428,8.428,0,0,1,4.565-2.3,41.567,41.567,0,0,1,8.721-.714h1.275V36.088a5.222,5.222,0,0,0-1.071-3.646,4.557,4.557,0,0,0-3.468-1.147,11,11,0,0,0-3.009.434q-1.53.433-3.621,1.249a5.1,5.1,0,0,1-1.938.663,1.918,1.918,0,0,1-1.5-.663,2.52,2.52,0,0,1-.587-1.734,2.611,2.611,0,0,1,.434-1.5,4.114,4.114,0,0,1,1.453-1.2A16.624,16.624,0,0,1,75.2,27.01,21.973,21.973,0,0,1,80.07,26.449ZM78.489,47.818a5.447,5.447,0,0,0,4.157-1.708A6.18,6.18,0,0,0,84.252,41.7V40.627h-.918a35.182,35.182,0,0,0-5.3.306A5.149,5.149,0,0,0,75.327,42a2.727,2.727,0,0,0-.816,2.091,3.46,3.46,0,0,0,1.147,2.677A4.047,4.047,0,0,0,78.489,47.818ZM117.5,15.79a3.4,3.4,0,0,1,2.346.816,2.729,2.729,0,0,1,.918,2.142v30.5a2.868,2.868,0,0,1-.867,2.193,3.635,3.635,0,0,1-4.59,0,2.868,2.868,0,0,1-.867-2.193V47.971a7.984,7.984,0,0,1-3.239,3.264,9.774,9.774,0,0,1-4.819,1.173,10.336,10.336,0,0,1-5.738-1.632,10.822,10.822,0,0,1-3.927-4.616,15.95,15.95,0,0,1-1.4-6.86,15.444,15.444,0,0,1,1.4-6.783,10.3,10.3,0,0,1,9.665-6.069,9.981,9.981,0,0,1,4.794,1.122,7.783,7.783,0,0,1,3.213,3.162V18.646a2.7,2.7,0,0,1,.841-2.065A3.181,3.181,0,0,1,117.5,15.79Zm-9.435,31.671a5.67,5.67,0,0,0,4.717-2.091,9.409,9.409,0,0,0,1.658-5.967,9.3,9.3,0,0,0-1.658-5.942A5.643,5.643,0,0,0,108.12,31.4a5.8,5.8,0,0,0-4.743,2.04,9,9,0,0,0-1.683,5.865,9.529,9.529,0,0,0,1.683,6.018A5.63,5.63,0,0,0,108.069,47.461Zm22.338,4.845a3.3,3.3,0,0,1-2.27-.791,2.872,2.872,0,0,1-.893-2.27V29.56a2.793,2.793,0,0,1,.893-2.244,3.364,3.364,0,0,1,2.27-.765,3.464,3.464,0,0,1,2.295.765,2.754,2.754,0,0,1,.918,2.244V49.246a2.832,2.832,0,0,1-.918,2.27A3.393,3.393,0,0,1,130.407,52.306Zm0-30.294a3.9,3.9,0,0,1-2.754-.944,3.212,3.212,0,0,1-1.02-2.474,3.132,3.132,0,0,1,1.02-2.448,4.552,4.552,0,0,1,5.483,0,3.1,3.1,0,0,1,1.046,2.448,3.212,3.212,0,0,1-1.02,2.474A3.9,3.9,0,0,1,130.407,22.012Zm24.174,4.437q4.488,0,6.681,2.55t2.193,7.7V49.246a2.98,2.98,0,0,1-.842,2.244,3.193,3.193,0,0,1-2.32.816,3.284,3.284,0,0,1-2.346-.816,2.933,2.933,0,0,1-.867-2.244V37.057a6.612,6.612,0,0,0-1.1-4.233,4.214,4.214,0,0,0-3.442-1.326,5.819,5.819,0,0,0-4.411,1.734,6.437,6.437,0,0,0-1.658,4.641V49.246a2.933,2.933,0,0,1-.867,2.244,3.284,3.284,0,0,1-2.346.816,3.193,3.193,0,0,1-2.321-.816,2.98,2.98,0,0,1-.841-2.244V29.509a2.805,2.805,0,0,1,.867-2.142,3.284,3.284,0,0,1,2.346-.816,3.038,3.038,0,0,1,2.167.79,2.7,2.7,0,0,1,.842,2.066v1.377a8.625,8.625,0,0,1,3.417-3.213A10.283,10.283,0,0,1,154.581,26.449Zm36.363.1a3.212,3.212,0,0,1,2.295.816,2.868,2.868,0,0,1,.867,2.193V49.705q0,5.865-3.264,8.874T181.2,61.588a18.743,18.743,0,0,1-9.282-2.091,3.2,3.2,0,0,1-1.887-2.7,2.759,2.759,0,0,1,.536-1.785,1.716,1.716,0,0,1,1.4-.663,3.547,3.547,0,0,1,1.122.229q.663.229,1.377.535a29.236,29.236,0,0,0,3.29,1.173,12.394,12.394,0,0,0,3.34.408q6.681,0,6.681-6.528V46.9a7.788,7.788,0,0,1-3.264,3.238,10.206,10.206,0,0,1-4.9,1.147,10.808,10.808,0,0,1-5.788-1.556,10.69,10.69,0,0,1-3.952-4.361,14.086,14.086,0,0,1-1.428-6.477,14.461,14.461,0,0,1,1.4-6.5A10.428,10.428,0,0,1,173.808,28a10.939,10.939,0,0,1,5.814-1.556,10.206,10.206,0,0,1,4.9,1.148,7.788,7.788,0,0,1,3.264,3.238V29.509a2.805,2.805,0,0,1,.867-2.142A3.212,3.212,0,0,1,190.944,26.551ZM181.3,46.339a5.949,5.949,0,0,0,4.769-1.989,8.1,8.1,0,0,0,1.708-5.457,8.184,8.184,0,0,0-1.708-5.508,6.68,6.68,0,0,0-9.512,0,8.1,8.1,0,0,0-1.734,5.508,8.023,8.023,0,0,0,1.734,5.457A5.966,5.966,0,0,0,181.3,46.339Zm55.233.357q3.06,0,3.06,2.6,0,2.7-3.06,2.7H219.3q-3.111,0-3.111-2.7,0-2.6,3.111-2.6h5.3V23.44l-4.9,3.009a2.637,2.637,0,0,1-1.275.408,2.246,2.246,0,0,1-1.811-.918,3.173,3.173,0,0,1-.74-2.04,2.558,2.558,0,0,1,1.326-2.3l7.9-4.9a5.681,5.681,0,0,1,2.907-.918,3.1,3.1,0,0,1,2.295.867,3.239,3.239,0,0,1,.867,2.4V46.7ZM0,56H167.034v3H0Zm195.791,0h45.8v3h-45.8Z" transform="translate(915 4712)" fill="#38485c"/>
    <path id="_Text_H6_Selected_On_Surface_High_Emphasis_Left" data-name="✱ / Text / H6 / Selected / On Surface / High Emphasis / Left" d="M2.159,24V8.295H3.985V22.346h6.929V24ZM23.45,18.1A6.5,6.5,0,0,1,22,22.6a5.107,5.107,0,0,1-4.007,1.617,5.307,5.307,0,0,1-2.8-.741A4.892,4.892,0,0,1,13.3,21.347a7.413,7.413,0,0,1-.666-3.244,6.485,6.485,0,0,1,1.439-4.485,5.091,5.091,0,0,1,4-1.606,4.981,4.981,0,0,1,3.926,1.644A6.467,6.467,0,0,1,23.45,18.1Zm-8.97,0a5.588,5.588,0,0,0,.9,3.438,3.132,3.132,0,0,0,2.653,1.182,3.153,3.153,0,0,0,2.659-1.176A5.56,5.56,0,0,0,21.6,18.1a5.47,5.47,0,0,0-.908-3.411,3.189,3.189,0,0,0-2.68-1.166,3.139,3.139,0,0,0-2.643,1.149A5.532,5.532,0,0,0,14.48,18.1Zm17.445-6.091a6.978,6.978,0,0,1,1.407.129l-.247,1.654a6.074,6.074,0,0,0-1.289-.161,3.138,3.138,0,0,0-2.444,1.16,4.23,4.23,0,0,0-1.015,2.89V24H26.554V12.227h1.472l.2,2.181h.086a5.175,5.175,0,0,1,1.579-1.772A3.555,3.555,0,0,1,31.925,12.012Zm8.561,12.2a5.409,5.409,0,0,1-4.12-1.59,6.155,6.155,0,0,1-1.509-4.415,6.826,6.826,0,0,1,1.4-4.522,4.657,4.657,0,0,1,3.765-1.676,4.44,4.44,0,0,1,3.5,1.456,5.579,5.579,0,0,1,1.289,3.84v1.128H36.7a4.667,4.667,0,0,0,1.047,3.147,3.622,3.622,0,0,0,2.8,1.074,9.483,9.483,0,0,0,3.76-.795v1.59a9.437,9.437,0,0,1-1.789.585A10.051,10.051,0,0,1,40.486,24.215ZM40,13.5a2.912,2.912,0,0,0-2.261.924,4.258,4.258,0,0,0-.994,2.557H42.9a3.921,3.921,0,0,0-.752-2.583A2.647,2.647,0,0,0,40,13.5ZM62.84,24V16.341a3.179,3.179,0,0,0-.6-2.111,2.327,2.327,0,0,0-1.869-.7,3.018,3.018,0,0,0-2.46.956,4.544,4.544,0,0,0-.795,2.943V24H55.331V16.341a3.179,3.179,0,0,0-.6-2.111,2.341,2.341,0,0,0-1.88-.7,2.912,2.912,0,0,0-2.455,1,5.436,5.436,0,0,0-.779,3.292V24H47.833V12.227h1.45l.29,1.611h.086A3.5,3.5,0,0,1,51.082,12.5a4.348,4.348,0,0,1,2.057-.483q2.761,0,3.609,2h.086a3.754,3.754,0,0,1,1.525-1.461,4.733,4.733,0,0,1,2.277-.537,3.987,3.987,0,0,1,2.992,1.026,4.589,4.589,0,0,1,.994,3.282V24Zm12.911,0H73.968V12.227h1.783ZM73.817,9.036a1.184,1.184,0,0,1,.3-.9,1.113,1.113,0,0,1,1.493.005,1.163,1.163,0,0,1,.312.892,1.181,1.181,0,0,1-.312.9,1.091,1.091,0,0,1-1.493,0A1.206,1.206,0,0,1,73.817,9.036ZM84.989,24.215a5.1,5.1,0,0,1-2.1-.424,3.949,3.949,0,0,1-1.6-1.305h-.129a15.792,15.792,0,0,1,.129,1.955v4.845H79.51V12.227h1.45l.247,1.611h.086a4.141,4.141,0,0,1,1.6-1.4,4.866,4.866,0,0,1,2.095-.43,4.351,4.351,0,0,1,3.615,1.6,7.047,7.047,0,0,1,1.273,4.49,7.006,7.006,0,0,1-1.294,4.506A4.359,4.359,0,0,1,84.989,24.215Zm-.258-10.688a3.16,3.16,0,0,0-2.61,1,5.141,5.141,0,0,0-.827,3.18v.4a5.892,5.892,0,0,0,.827,3.55,3.146,3.146,0,0,0,2.653,1.069,2.759,2.759,0,0,0,2.39-1.235,5.858,5.858,0,0,0,.865-3.405,5.638,5.638,0,0,0-.865-3.378A2.844,2.844,0,0,0,84.731,13.526Zm15.833,7.262a2.949,2.949,0,0,1-1.225,2.535,5.756,5.756,0,0,1-3.437.892,7.475,7.475,0,0,1-3.652-.741V21.819a8.833,8.833,0,0,0,1.821.677,7.6,7.6,0,0,0,1.875.247,4.251,4.251,0,0,0,2.148-.446,1.535,1.535,0,0,0,.156-2.535,9.378,9.378,0,0,0-2.326-1.155,12.611,12.611,0,0,1-2.336-1.069A3.192,3.192,0,0,1,92.556,16.5a2.7,2.7,0,0,1-.338-1.386,2.642,2.642,0,0,1,1.171-2.272,5.456,5.456,0,0,1,3.212-.833,9.4,9.4,0,0,1,3.717.773l-.634,1.45a8.532,8.532,0,0,0-3.212-.73,3.7,3.7,0,0,0-1.912.4,1.229,1.229,0,0,0-.645,1.1,1.334,1.334,0,0,0,.242.806,2.385,2.385,0,0,0,.779.634,17.4,17.4,0,0,0,2.063.87,7.705,7.705,0,0,1,2.831,1.536A2.709,2.709,0,0,1,100.564,20.788Zm4.554-8.562v7.638a3.073,3.073,0,0,0,.655,2.148,2.669,2.669,0,0,0,2.052.709,3.348,3.348,0,0,0,2.7-1.01,5.094,5.094,0,0,0,.854-3.3V12.227h1.783V24h-1.472l-.258-1.579h-.1a3.554,3.554,0,0,1-1.52,1.332,5.109,5.109,0,0,1-2.218.462,4.5,4.5,0,0,1-3.217-1.021,4.344,4.344,0,0,1-1.069-3.266v-7.7ZM131.93,24V16.341a3.179,3.179,0,0,0-.6-2.111,2.327,2.327,0,0,0-1.869-.7,3.018,3.018,0,0,0-2.46.956,4.544,4.544,0,0,0-.795,2.943V24h-1.783V16.341a3.179,3.179,0,0,0-.6-2.111,2.341,2.341,0,0,0-1.88-.7,2.912,2.912,0,0,0-2.455,1,5.436,5.436,0,0,0-.779,3.292V24h-1.783V12.227h1.45l.29,1.611h.086a3.5,3.5,0,0,1,1.423-1.343,4.348,4.348,0,0,1,2.057-.483q2.761,0,3.609,2h.086a3.754,3.754,0,0,1,1.525-1.461,4.733,4.733,0,0,1,2.277-.537,3.987,3.987,0,0,1,2.992,1.026,4.589,4.589,0,0,1,.994,3.282V24Zm19.142-1.579h-.1a4.19,4.19,0,0,1-3.7,1.794,4.371,4.371,0,0,1-3.593-1.579,6.951,6.951,0,0,1-1.284-4.49,7.068,7.068,0,0,1,1.289-4.522,4.338,4.338,0,0,1,3.588-1.611,4.281,4.281,0,0,1,3.674,1.74h.14l-.075-.849-.043-.827V7.285h1.783V24h-1.45Zm-3.566.3a3.247,3.247,0,0,0,2.648-.994,5.021,5.021,0,0,0,.822-3.207v-.376a5.908,5.908,0,0,0-.833-3.572,3.161,3.161,0,0,0-2.659-1.069,2.729,2.729,0,0,0-2.4,1.219,6.063,6.063,0,0,0-.833,3.443,5.812,5.812,0,0,0,.827,3.405A2.8,2.8,0,0,0,147.506,22.722ZM166.68,18.1a6.5,6.5,0,0,1-1.45,4.5,5.107,5.107,0,0,1-4.007,1.617,5.307,5.307,0,0,1-2.8-.741,4.892,4.892,0,0,1-1.891-2.127,7.413,7.413,0,0,1-.666-3.244,6.485,6.485,0,0,1,1.439-4.485,5.091,5.091,0,0,1,4-1.606,4.981,4.981,0,0,1,3.926,1.644A6.467,6.467,0,0,1,166.68,18.1Zm-8.97,0a5.588,5.588,0,0,0,.9,3.438,3.581,3.581,0,0,0,5.312.005,5.56,5.56,0,0,0,.908-3.443,5.47,5.47,0,0,0-.908-3.411,3.189,3.189,0,0,0-2.68-1.166,3.139,3.139,0,0,0-2.643,1.149A5.532,5.532,0,0,0,157.71,18.1ZM171.567,24h-1.783V7.285h1.783Zm13.921-5.9a6.5,6.5,0,0,1-1.45,4.5,5.107,5.107,0,0,1-4.007,1.617,5.307,5.307,0,0,1-2.8-.741,4.892,4.892,0,0,1-1.891-2.127,7.413,7.413,0,0,1-.666-3.244,6.485,6.485,0,0,1,1.439-4.485,5.091,5.091,0,0,1,4-1.606,4.981,4.981,0,0,1,3.926,1.644A6.467,6.467,0,0,1,185.488,18.1Zm-8.97,0a5.588,5.588,0,0,0,.9,3.438,3.581,3.581,0,0,0,5.312.005,5.56,5.56,0,0,0,.908-3.443,5.47,5.47,0,0,0-.908-3.411,3.189,3.189,0,0,0-2.68-1.166,3.139,3.139,0,0,0-2.643,1.149A5.532,5.532,0,0,0,176.519,18.1Zm17.445-6.091a6.978,6.978,0,0,1,1.407.129l-.247,1.654a6.074,6.074,0,0,0-1.289-.161,3.138,3.138,0,0,0-2.444,1.16,4.23,4.23,0,0,0-1.015,2.89V24h-1.783V12.227h1.472l.2,2.181h.086a5.175,5.175,0,0,1,1.579-1.772A3.555,3.555,0,0,1,193.963,12.012Zm16.875,8.776a2.949,2.949,0,0,1-1.225,2.535,5.756,5.756,0,0,1-3.437.892,7.475,7.475,0,0,1-3.652-.741V21.819a8.832,8.832,0,0,0,1.821.677,7.6,7.6,0,0,0,1.875.247,4.251,4.251,0,0,0,2.148-.446,1.535,1.535,0,0,0,.156-2.535,9.378,9.378,0,0,0-2.326-1.155,12.611,12.611,0,0,1-2.336-1.069A3.192,3.192,0,0,1,202.83,16.5a2.7,2.7,0,0,1-.338-1.386,2.642,2.642,0,0,1,1.171-2.272,5.456,5.456,0,0,1,3.212-.833,9.4,9.4,0,0,1,3.717.773l-.634,1.45a8.532,8.532,0,0,0-3.212-.73,3.7,3.7,0,0,0-1.912.4,1.229,1.229,0,0,0-.645,1.1,1.334,1.334,0,0,0,.242.806,2.385,2.385,0,0,0,.779.634,17.4,17.4,0,0,0,2.063.87,7.705,7.705,0,0,1,2.831,1.536A2.709,2.709,0,0,1,210.838,20.788ZM215.5,24h-1.783V12.227H215.5ZM213.566,9.036a1.184,1.184,0,0,1,.3-.9,1.113,1.113,0,0,1,1.493.005,1.163,1.163,0,0,1,.312.892,1.181,1.181,0,0,1-.312.9,1.091,1.091,0,0,1-1.493,0A1.206,1.206,0,0,1,213.566,9.036Zm9.5,13.707a5.825,5.825,0,0,0,.913-.07,5.91,5.91,0,0,0,.7-.145v1.364a3.26,3.26,0,0,1-.854.231,6.413,6.413,0,0,1-1.015.091q-3.416,0-3.416-3.6v-7H217.7v-.859l1.687-.741L220.14,9.5h1.031v2.729h3.416v1.386h-3.416v6.929a2.384,2.384,0,0,0,.5,1.633A1.757,1.757,0,0,0,223.062,22.743ZM9.131,56l-.354-1.676H8.69a4.954,4.954,0,0,1-1.756,1.5,5.353,5.353,0,0,1-2.186.392A3.932,3.932,0,0,1,2,55.313a3.291,3.291,0,0,1-.994-2.567q0-3.566,5.7-3.738l2-.064v-.73a2.985,2.985,0,0,0-.6-2.046A2.452,2.452,0,0,0,6.209,45.5a7.769,7.769,0,0,0-3.33.9l-.548-1.364A8.379,8.379,0,0,1,4.238,44.3a8.258,8.258,0,0,1,2.079-.269,4.485,4.485,0,0,1,3.121.935,3.9,3.9,0,0,1,1.015,3V56ZM5.1,54.743a3.619,3.619,0,0,0,2.616-.913,3.378,3.378,0,0,0,.951-2.557V50.21l-1.783.075a6.486,6.486,0,0,0-3.067.661,1.992,1.992,0,0,0-.94,1.821,1.837,1.837,0,0,0,.585,1.472A2.43,2.43,0,0,0,5.1,54.743ZM29.111,56V48.341a3.179,3.179,0,0,0-.6-2.111,2.327,2.327,0,0,0-1.869-.7,3.018,3.018,0,0,0-2.46.956,4.544,4.544,0,0,0-.795,2.943V56H21.6V48.341A3.179,3.179,0,0,0,21,46.23a2.341,2.341,0,0,0-1.88-.7,2.912,2.912,0,0,0-2.455,1,5.436,5.436,0,0,0-.779,3.292V56H14.1V44.227h1.45l.29,1.611h.086A3.5,3.5,0,0,1,17.353,44.5a4.348,4.348,0,0,1,2.057-.483q2.761,0,3.609,2h.086a3.754,3.754,0,0,1,1.525-1.461,4.733,4.733,0,0,1,2.277-.537A3.987,3.987,0,0,1,29.9,45.038a4.589,4.589,0,0,1,.994,3.282V56Zm10.409.215a5.409,5.409,0,0,1-4.12-1.59,6.155,6.155,0,0,1-1.509-4.415,6.826,6.826,0,0,1,1.4-4.522,4.657,4.657,0,0,1,3.765-1.676,4.44,4.44,0,0,1,3.5,1.456,5.579,5.579,0,0,1,1.289,3.84v1.128h-8.11a4.667,4.667,0,0,0,1.047,3.147,3.622,3.622,0,0,0,2.8,1.074,9.483,9.483,0,0,0,3.76-.795v1.59a9.436,9.436,0,0,1-1.789.585A10.051,10.051,0,0,1,39.519,56.215ZM39.036,45.5a2.912,2.912,0,0,0-2.261.924,4.258,4.258,0,0,0-.994,2.557h6.155a3.921,3.921,0,0,0-.752-2.583A2.647,2.647,0,0,0,39.036,45.5Zm11.633,9.238a5.825,5.825,0,0,0,.913-.07,5.911,5.911,0,0,0,.7-.145v1.364a3.26,3.26,0,0,1-.854.231,6.413,6.413,0,0,1-1.015.091q-3.416,0-3.416-3.6v-7H45.309v-.859L47,44.012l.752-2.514h1.031v2.729h3.416v1.386H48.779v6.929a2.384,2.384,0,0,0,.5,1.633A1.757,1.757,0,0,0,50.669,54.743Zm5.811-1.3.161.247q-.279,1.074-.806,2.5t-1.1,2.648H53.4q.29-1.117.639-2.761t.489-2.632Zm13.9,2.771a5.025,5.025,0,0,1-3.958-1.574,6.472,6.472,0,0,1-1.4-4.453,6.673,6.673,0,0,1,1.423-4.565A5.125,5.125,0,0,1,70.5,44.012a8.047,8.047,0,0,1,1.7.183,5.591,5.591,0,0,1,1.332.43l-.548,1.515a8.385,8.385,0,0,0-1.289-.392,5.756,5.756,0,0,0-1.235-.156q-3.588,0-3.588,4.576a5.449,5.449,0,0,0,.875,3.33,3.046,3.046,0,0,0,2.594,1.16,7.932,7.932,0,0,0,3.019-.634V55.6A6.433,6.433,0,0,1,70.38,56.215ZM86.288,50.1a6.5,6.5,0,0,1-1.45,4.5,5.107,5.107,0,0,1-4.007,1.617,5.307,5.307,0,0,1-2.8-.741,4.892,4.892,0,0,1-1.891-2.127,7.413,7.413,0,0,1-.666-3.244,6.485,6.485,0,0,1,1.439-4.485,5.091,5.091,0,0,1,4-1.606,4.981,4.981,0,0,1,3.926,1.644A6.467,6.467,0,0,1,86.288,50.1Zm-8.97,0a5.588,5.588,0,0,0,.9,3.438,3.581,3.581,0,0,0,5.312.005,5.56,5.56,0,0,0,.908-3.443,5.47,5.47,0,0,0-.908-3.411,3.189,3.189,0,0,0-2.68-1.166,3.139,3.139,0,0,0-2.643,1.149A5.532,5.532,0,0,0,77.319,50.1ZM97.449,56V48.384a3.073,3.073,0,0,0-.655-2.148,2.669,2.669,0,0,0-2.052-.709,3.384,3.384,0,0,0-2.707,1,5.044,5.044,0,0,0-.859,3.3V56H89.392V44.227h1.45l.29,1.611h.086a3.641,3.641,0,0,1,1.536-1.348,4.991,4.991,0,0,1,2.2-.478,4.472,4.472,0,0,1,3.2,1.026,4.366,4.366,0,0,1,1.074,3.282V56Zm13.019-3.212a2.949,2.949,0,0,1-1.225,2.535,5.756,5.756,0,0,1-3.437.892,7.475,7.475,0,0,1-3.652-.741V53.819a8.833,8.833,0,0,0,1.821.677,7.6,7.6,0,0,0,1.875.247A4.251,4.251,0,0,0,108,54.3a1.535,1.535,0,0,0,.156-2.535,9.378,9.378,0,0,0-2.326-1.155,12.611,12.611,0,0,1-2.336-1.069A3.192,3.192,0,0,1,102.46,48.5a2.7,2.7,0,0,1-.338-1.386,2.642,2.642,0,0,1,1.171-2.272,5.456,5.456,0,0,1,3.212-.833,9.4,9.4,0,0,1,3.717.773l-.634,1.45a8.532,8.532,0,0,0-3.212-.73,3.7,3.7,0,0,0-1.912.4,1.229,1.229,0,0,0-.645,1.1,1.334,1.334,0,0,0,.242.806,2.385,2.385,0,0,0,.779.634,17.4,17.4,0,0,0,2.063.87,7.705,7.705,0,0,1,2.831,1.536A2.709,2.709,0,0,1,110.468,52.788Zm7.852,3.427a5.409,5.409,0,0,1-4.12-1.59,6.155,6.155,0,0,1-1.509-4.415,6.826,6.826,0,0,1,1.4-4.522,4.657,4.657,0,0,1,3.765-1.676,4.44,4.44,0,0,1,3.5,1.456,5.579,5.579,0,0,1,1.289,3.84v1.128h-8.11a4.667,4.667,0,0,0,1.047,3.147,3.622,3.622,0,0,0,2.8,1.074,9.483,9.483,0,0,0,3.76-.795v1.59a9.437,9.437,0,0,1-1.789.585A10.051,10.051,0,0,1,118.32,56.215Zm-.483-10.71a2.912,2.912,0,0,0-2.261.924,4.258,4.258,0,0,0-.994,2.557h6.155a3.921,3.921,0,0,0-.752-2.583A2.647,2.647,0,0,0,117.837,45.5Zm11.633,9.238a5.825,5.825,0,0,0,.913-.07,5.911,5.911,0,0,0,.7-.145v1.364a3.26,3.26,0,0,1-.854.231,6.413,6.413,0,0,1-1.015.091q-3.416,0-3.416-3.6v-7H124.11v-.859l1.687-.741.752-2.514h1.031v2.729H131v1.386h-3.416v6.929a2.384,2.384,0,0,0,.5,1.633A1.757,1.757,0,0,0,129.47,54.743Zm8.915,1.472a5.409,5.409,0,0,1-4.12-1.59,6.155,6.155,0,0,1-1.509-4.415,6.826,6.826,0,0,1,1.4-4.522,4.657,4.657,0,0,1,3.765-1.676,4.44,4.44,0,0,1,3.5,1.456,5.579,5.579,0,0,1,1.289,3.84v1.128H134.6a4.667,4.667,0,0,0,1.047,3.147,3.622,3.622,0,0,0,2.8,1.074,9.483,9.483,0,0,0,3.76-.795v1.59a9.436,9.436,0,0,1-1.789.585A10.051,10.051,0,0,1,138.385,56.215ZM137.9,45.5a2.912,2.912,0,0,0-2.261.924,4.258,4.258,0,0,0-.994,2.557H140.8a3.921,3.921,0,0,0-.752-2.583A2.647,2.647,0,0,0,137.9,45.5Zm11.633,9.238a5.825,5.825,0,0,0,.913-.07,5.911,5.911,0,0,0,.7-.145v1.364a3.26,3.26,0,0,1-.854.231,6.413,6.413,0,0,1-1.015.091q-3.416,0-3.416-3.6v-7h-1.687v-.859l1.687-.741.752-2.514h1.031v2.729h3.416v1.386h-3.416v6.929a2.384,2.384,0,0,0,.5,1.633A1.757,1.757,0,0,0,149.535,54.743Zm5.618-10.517v7.638a3.073,3.073,0,0,0,.655,2.148,2.669,2.669,0,0,0,2.052.709,3.348,3.348,0,0,0,2.7-1.01,5.094,5.094,0,0,0,.854-3.3V44.227H163.2V56h-1.472l-.258-1.579h-.1a3.554,3.554,0,0,1-1.52,1.332,5.109,5.109,0,0,1-2.218.462,4.5,4.5,0,0,1-3.217-1.021,4.344,4.344,0,0,1-1.069-3.266v-7.7Zm17.176-.215a6.978,6.978,0,0,1,1.407.129l-.247,1.654a6.074,6.074,0,0,0-1.289-.161,3.138,3.138,0,0,0-2.444,1.16,4.23,4.23,0,0,0-1.015,2.89V56h-1.783V44.227h1.472l.2,2.181h.086a5.175,5.175,0,0,1,1.579-1.772A3.555,3.555,0,0,1,172.329,44.012Z" transform="translate(915 4782)" fill="#38485c"/>
    <path id="Trazado_4660" data-name="Trazado 4660" d="M16,0A16,16,0,1,0,32,16,16.018,16.018,0,0,0,16,0Zm0,0" transform="translate(1181 4682)" fill="#c93b3b"/>
    <path id="Trazado_4661" data-name="Trazado 4661" d="M167.646,165.761a1.333,1.333,0,1,1-1.885,1.885l-4.007-4.007-4.007,4.007a1.333,1.333,0,0,1-1.886-1.885l4.007-4.007-4.007-4.007a1.333,1.333,0,0,1,1.886-1.885l4.007,4.007,4.007-4.007a1.333,1.333,0,0,1,1.885,1.885l-4.007,4.007Zm0,0" transform="translate(1035.246 4536.246)" fill="#fff"/>
  </g>
</svg>
