<svg xmlns="http://www.w3.org/2000/svg" width="340" height="340" viewBox="0 0 340 340">
  <g id="Grupo_18102" data-name="Grupo 18102" transform="translate(-885 -596)">
    <path id="Trazado_23818" data-name="Trazado 23818" d="M8,0H332a8,8,0,0,1,8,8V332a8,8,0,0,1-8,8H8a8,8,0,0,1-8-8V8A8,8,0,0,1,8,0Z" transform="translate(885 596)" fill="#f3f6f9"/>
    <path id="Trazado_23819" data-name="Trazado 23819" d="M102.266,0,85.647-42.458H32.141L15.705,0H0L52.776-134.041H65.833L118.336,0ZM80.808-56.429,65.286-97.792q-3.013-7.853-6.209-19.266a173,173,0,0,1-5.752,19.266L37.619-56.429Zm135.5-43.646v9.587L197.774-88.3a31.862,31.862,0,0,1,4.565,8.355A31.877,31.877,0,0,1,204.349-68.3q0,14.7-10.044,23.466t-27.575,8.766a45.92,45.92,0,0,1-8.4-.73q-9.679,5.113-9.679,12.875a6.54,6.54,0,0,0,3.378,6.072q3.378,1.963,11.6,1.963h17.714q16.253,0,24.973,6.848t8.72,19.905q0,16.618-13.331,25.338t-38.9,8.72q-19.631,0-30.269-7.3T121.9,16.983a23.176,23.176,0,0,1,5.844-15.8q5.844-6.666,16.436-9.04a15.856,15.856,0,0,1-6.437-5.387,14.256,14.256,0,0,1-2.6-8.492,16.116,16.116,0,0,1,2.922-9.587,30.72,30.72,0,0,1,9.222-7.944,27.031,27.031,0,0,1-12.646-10.866A31.929,31.929,0,0,1,129.75-67.66q0-16.436,9.861-25.338t27.94-8.9a50.807,50.807,0,0,1,14.153,1.826ZM136.506,16.8a13.582,13.582,0,0,0,6.848,12.327q6.848,4.2,19.631,4.2,19.084,0,28.26-5.707t9.177-15.477q0-8.126-5.022-11.277t-18.9-3.15h-18.17q-10.318,0-16.07,4.931T136.506,16.8Zm8.218-84.826q0,10.5,5.935,15.888t16.527,5.387q22.188,0,22.188-21.549,0-22.553-22.462-22.553-10.683,0-16.436,5.752T144.724-68.025Z" transform="translate(945 839)" fill="#38485c"/>
  </g>
</svg>
