<svg xmlns="http://www.w3.org/2000/svg" xmlns:xlink="http://www.w3.org/1999/xlink" width="760" height="380" viewBox="0 0 760 380">
  <defs>
    <clipPath id="clip-path">
      <rect id="Rectángulo_6574" data-name="Rectángulo 6574" width="760" height="380" transform="translate(476 173)" fill="#f3f3f3"/>
    </clipPath>
  </defs>
  <g id="Enmascarar_grupo_49" data-name="Enmascarar grupo 49" transform="translate(-476 -173)" clip-path="url(#clip-path)">
    <g id="Grupo_17864" data-name="Grupo 17864" transform="translate(315.355 43.352)">
      <rect id="Rectángulo_6564" data-name="Rectángulo 6564" width="760" height="380" transform="translate(160.645 129.648)" fill="#f3f6f9"/>
      <g id="Children_preparing_their_backpack-cuate_1_" data-name="Children preparing their backpack-cuate (1)" transform="translate(0)">
        <g id="freepik--Shadow--inject-65" transform="translate(0 377.736)" opacity="0.3">
          <ellipse id="Elipse_3" data-name="Elipse 3" cx="539.537" cy="107.855" rx="539.537" ry="107.855" fill="#ebebeb"/>
        </g>
        <g id="freepik--school-supplies--inject-65" transform="translate(223.586 350.515)" opacity="0.7">
          <path id="Trazado_10716" data-name="Trazado 10716" d="M137.94,426.713l119.8-22.423,52.568,33.292-117.78,29.965Z" transform="translate(-137.94 -393.354)" fill="#007bc7"/>
          <path id="Trazado_10717" data-name="Trazado 10717" d="M144.46,426.7l49.971,37.518L304.8,436.211l-50.837-31.92s-32.595,1.9-34.09,2.248-16.185,5.238-16.185,5.238-20.231,2.012-21.6,2.372S144.46,426.7,144.46,426.7Z" transform="translate(-137.132 -393.354)" fill="#fff"/>
          <path id="Trazado_10718" data-name="Trazado 10718" d="M197.16,411q6.092,4.608,12.128,9.306l12.049,9.419,11.959,9.531q5.968,4.788,11.869,9.644-6.1-4.62-12.139-9.306l-12.038-9.486-11.959-9.52Q203.061,415.81,197.16,411Z" transform="translate(-130.599 -392.522)" fill="#dbdbdb"/>
          <path id="Trazado_10719" data-name="Trazado 10719" d="M154.75,426.087q5.788-2.192,11.611-4.26c3.889-1.394,7.778-2.731,11.689-4.069l2.934-.955c.506-.157.978-.315,1.506-.45s1.023-.157,1.529-.247l6.126-.877q6.137-.854,12.274-1.63-6.1,1.124-12.2,2.057l-6.1.955c-.506.09-1.023.146-1.517.247s-.967.3-1.45.449l-2.934.989-11.712,3.934Q160.651,424.165,154.75,426.087Z" transform="translate(-135.856 -392.2)" fill="#dbdbdb"/>
          <path id="Trazado_10720" data-name="Trazado 10720" d="M157.86,428.237q5.777-2.248,11.611-4.26c3.889-1.394,7.778-2.731,11.689-4.069l2.934-.955c.506-.157.978-.315,1.506-.449a15.342,15.342,0,0,1,1.529-.236l6.126-.888q6.137-.854,12.274-1.63-6.1,1.124-12.195,2.057l-6.1.955c-.495.09-1.023.146-1.517.247s-.967.3-1.45.45l-2.934.989-11.712,3.934Q163.75,426.36,157.86,428.237Z" transform="translate(-135.471 -391.933)" fill="#dbdbdb"/>
          <path id="Trazado_10721" data-name="Trazado 10721" d="M161,430.359q5.62-2.135,11.352-4.17c3.788-1.36,7.6-2.664,11.408-3.979l2.877-.944a18.645,18.645,0,0,1,2.945-.8c2-.315,3.99-.618,5.98-.888q6-.843,11.993-1.54-5.946,1.012-11.925,1.967l-5.957.967a17.59,17.59,0,0,0-2.866.809l-2.866.967-11.453,3.844Q166.721,428.527,161,430.359Z" transform="translate(-135.081 -391.649)" fill="#dbdbdb"/>
          <path id="Trazado_10722" data-name="Trazado 10722" d="M164.08,432.508q5.62-2.1,11.183-4.1c3.743-1.349,7.5-2.63,11.24-3.923,1.9-.618,3.732-1.3,5.721-1.787s3.923-.618,5.89-.9q5.9-.809,11.824-1.506-5.867,1.011-11.757,1.956c-1.956.326-3.923.607-5.867.955a44.768,44.768,0,0,0-5.62,1.8l-11.24,3.8Q169.767,430.687,164.08,432.508Z" transform="translate(-134.7 -391.37)" fill="#dbdbdb"/>
          <path id="Trazado_10723" data-name="Trazado 10723" d="M167.19,434.655q5.62-2.091,11.15-4.091c3.72-1.338,7.463-2.619,11.24-3.911,1.888-.618,3.72-1.281,5.7-1.8,1.967-.326,3.911-.618,5.878-.888,3.911-.551,7.868-1.045,11.768-1.506q-5.856,1.012-11.7,1.945c-1.956.326-3.923.607-5.856.966a46.028,46.028,0,0,0-5.62,1.81l-11.24,3.776Q172.844,432.845,167.19,434.655Z" transform="translate(-134.314 -391.101)" fill="#dbdbdb"/>
          <path id="Trazado_10724" data-name="Trazado 10724" d="M170.3,436.8q5.552-2.091,11.116-4.08c3.709-1.337,7.441-2.608,11.172-3.9,1.877-.618,3.709-1.27,5.62-1.8,1.967-.337,3.911-.618,5.867-.888q5.856-.832,11.734-1.506-5.833,1.012-11.667,1.945c-1.944.326-3.911.607-5.833.955-1.843.517-3.72,1.214-5.62,1.821l-11.24,3.777Q175.942,435,170.3,436.8Z" transform="translate(-133.929 -390.832)" fill="#dbdbdb"/>
          <path id="Trazado_10725" data-name="Trazado 10725" d="M173.42,438.943q5.462-2.057,10.959-4.024c3.664-1.326,7.351-2.585,11.026-3.855,1.843-.629,3.675-1.247,5.62-1.8a45.187,45.187,0,0,1,5.788-.933q5.788-.8,11.588-1.472c-3.844.674-7.677,1.3-11.521,1.933-1.911.326-3.878.562-5.732.978s-3.675,1.214-5.519,1.821l-11.071,3.72C180.816,436.548,177.118,437.751,173.42,438.943Z" transform="translate(-133.542 -390.556)" fill="#dbdbdb"/>
          <path id="Trazado_10726" data-name="Trazado 10726" d="M176.53,441.093q5.462-2.057,10.959-4.024c3.664-1.326,7.351-2.574,11.026-3.855,1.855-.618,3.675-1.236,5.62-1.8a43.309,43.309,0,0,1,5.788-.933q5.788-.787,11.588-1.473c-3.833.674-7.677,1.3-11.521,1.933-1.911.326-3.878.562-5.732.978s-3.675,1.214-5.519,1.821l-11.071,3.72Q182.071,439.317,176.53,441.093Z" transform="translate(-133.156 -390.289)" fill="#dbdbdb"/>
          <path id="Trazado_10727" data-name="Trazado 10727" d="M179.06,443.524c3.7-1.394,7.407-2.776,11.127-4.1s7.452-2.63,11.183-3.934q2.8-.967,5.62-1.854a25.006,25.006,0,0,1,2.945-.539l2.934-.427q5.867-.832,11.757-1.506c-3.9.686-7.789,1.326-11.689,1.956-1.933.337-3.945.562-5.8,1.023s-3.743,1.259-5.62,1.877l-11.24,3.8Q184.7,441.7,179.06,443.524Z" transform="translate(-132.843 -390.023)" fill="#dbdbdb"/>
          <path id="Trazado_10728" data-name="Trazado 10728" d="M182.18,445.75q5.507-2.1,11.082-4.125c3.7-1.349,7.418-2.641,11.138-3.945,1.866-.652,3.732-1.27,5.62-1.866a21.131,21.131,0,0,1,2.945-.551l2.922-.438c3.9-.539,7.868-1.045,11.734-1.495-3.889.686-7.778,1.315-11.667,1.956l-2.911.461a20.868,20.868,0,0,0-2.866.573c-1.866.6-3.72,1.259-5.62,1.877l-11.24,3.821Q187.8,443.929,182.18,445.75Z" transform="translate(-132.456 -389.754)" fill="#dbdbdb"/>
          <path id="Trazado_10729" data-name="Trazado 10729" d="M185.29,448.136q5.35-2.091,10.734-4.1c3.585-1.349,7.2-2.63,10.813-3.934q2.7-.967,5.429-1.877c.461-.146.91-.3,1.4-.427s.955-.18,1.427-.259l2.844-.427q5.7-.809,11.408-1.45c-3.776.674-7.553,1.293-11.341,1.922l-2.832.461c-.472.079-.944.146-1.394.258s-.888.281-1.349.427l-5.418,1.888-10.812,3.8C192.551,445.686,188.92,446.911,185.29,448.136Z" transform="translate(-132.07 -389.465)" fill="#dbdbdb"/>
          <path id="Trazado_10730" data-name="Trazado 10730" d="M188.4,450.1c3.63-1.248,7.261-2.484,10.914-3.675s7.306-2.36,10.97-3.518c1.832-.573,3.642-1.124,5.541-1.641l5.62-1.124c3.765-.742,7.542-1.461,11.318-2.135-3.732.91-7.474,1.765-11.24,2.6l-5.62,1.214c-1.821.472-3.664,1.124-5.5,1.63l-11,3.372Q193.93,448.5,188.4,450.1Z" transform="translate(-131.685 -389.174)" fill="#dbdbdb"/>
          <path id="Trazado_10731" data-name="Trazado 10731" d="M236.5,437.763q5.069-1.989,10.251-3.675c.865-.281,1.731-.573,2.608-.821a20.433,20.433,0,0,1,2.675-.607l5.35-1.023,10.7-1.978,10.723-1.9-10.655,2.248-10.678,2.147-5.339,1.045-1.338.259c-.416.1-.854.236-1.281.36l-2.608.8C243.457,435.684,239.984,436.763,236.5,437.763Z" transform="translate(-125.722 -390.444)" fill="#dbdbdb"/>
          <path id="Trazado_10732" data-name="Trazado 10732" d="M233.52,435.021c3.372-1.124,6.744-2.124,10.116-3.046,1.7-.461,3.372-.966,5.137-1.293l5.17-1.023,10.34-1.989c3.451-.663,6.912-1.27,10.374-1.911-3.439.742-6.867,1.529-10.307,2.248l-10.318,2.158-5.17,1.045c-1.686.36-3.372.843-5.092,1.27C240.354,433.336,236.948,434.179,233.52,435.021Z" transform="translate(-126.092 -390.692)" fill="#dbdbdb"/>
          <path id="Trazado_10733" data-name="Trazado 10733" d="M230.64,432.483c3.372-1.068,6.665-2.091,10.026-3,1.7-.461,3.372-.944,5.08-1.326l5.17-.877,10.329-1.675c3.439-.562,6.9-1.057,10.352-1.585-3.439.641-6.856,1.315-10.3,1.922l-10.3,1.832-5.148.91-5.058,1.281C237.429,430.865,234.046,431.7,230.64,432.483Z" transform="translate(-126.449 -390.908)" fill="#dbdbdb"/>
          <path id="Trazado_10734" data-name="Trazado 10734" d="M228.16,430.631c3.215-1.405,6.508-2.63,9.835-3.754a13.4,13.4,0,0,1,2.585-.652l2.608-.382,5.215-.719q10.419-1.416,20.872-2.664c-6.935,1.124-13.87,2.124-20.8,3.147l-5.2.753-2.6.382a15.225,15.225,0,0,0-2.507.652C234.836,428.462,231.532,429.631,228.16,430.631Z" transform="translate(-126.756 -391.102)" fill="#dbdbdb"/>
          <path id="Trazado_10735" data-name="Trazado 10735" d="M191.51,453.074q5.552-1.753,11.127-3.372c3.709-1.124,7.452-2.18,11.172-3.26,1.877-.539,3.72-1.057,5.62-1.529l5.62-1.281c3.788-.82,7.587-1.63,11.4-2.383q-5.62,1.472-11.3,2.832l-5.62,1.337c-1.855.472-3.72,1.045-5.62,1.551l-11.24,3.125C199.007,451.085,195.264,452.085,191.51,453.074Z" transform="translate(-131.299 -388.772)" fill="#dbdbdb"/>
          <path id="Trazado_10736" data-name="Trazado 10736" d="M238.67,440.453q5.62-1.641,11.24-3.181c3.743-1.045,7.519-2.023,11.24-3.035,1.888-.495,3.765-.967,5.687-1.416l5.721-1.124q5.732-1.124,11.476-2.147c-3.788.91-7.587,1.765-11.386,2.608l-5.71,1.214c-1.877.438-3.765.967-5.62,1.439L250,437.7Q244.346,439.047,238.67,440.453Z" transform="translate(-125.453 -390.223)" fill="#dbdbdb"/>
          <path id="Trazado_10737" data-name="Trazado 10737" d="M205.17,412.584l21.715,17.579s7.272-3.024,9.891-3.653c3.372-.787,12.9-2.3,12.9-2.3L228.144,408.38s-10.846.8-13.319,1.191a92.249,92.249,0,0,0-9.655,3.012Z" transform="translate(-129.606 -392.847)" fill="#dbdbdb"/>
          <path id="Trazado_10738" data-name="Trazado 10738" d="M247,421.967c2.6-.551,5.226-.922,7.868-1.259s5.283-.6,7.946-.708c-2.608.551-5.238.922-7.868,1.259S249.641,421.854,247,421.967Z" transform="translate(-124.421 -391.406)" fill="#dbdbdb"/>
          <path id="Trazado_10739" data-name="Trazado 10739" d="M244.14,419.687c2.585-.551,5.215-.922,7.868-1.259s5.283-.6,7.946-.708c-2.608.551-5.226.922-7.868,1.259S246.815,419.574,244.14,419.687Z" transform="translate(-124.775 -391.689)" fill="#dbdbdb"/>
          <path id="Trazado_10740" data-name="Trazado 10740" d="M241.3,417.407c2.6-.54,5.226-.922,7.868-1.259s5.294-.6,7.958-.708c-2.608.551-5.238.922-7.868,1.259S243.975,417.294,241.3,417.407Z" transform="translate(-125.127 -391.972)" fill="#dbdbdb"/>
          <path id="Trazado_10741" data-name="Trazado 10741" d="M238.46,415.127c2.6-.54,5.226-.922,7.868-1.259s5.283-.6,7.946-.708c-2.608.551-5.226.922-7.868,1.259S241.135,415.015,238.46,415.127Z" transform="translate(-125.479 -392.254)" fill="#dbdbdb"/>
          <path id="Trazado_10742" data-name="Trazado 10742" d="M235.22,413.117c2.585-.551,5.215-.922,7.868-1.259s5.283-.6,7.946-.708c-2.608.551-5.226.922-7.868,1.259S237.895,413,235.22,413.117Z" transform="translate(-125.881 -392.503)" fill="#dbdbdb"/>
          <path id="Trazado_10743" data-name="Trazado 10743" d="M232.2,410.837c2.6-.54,5.226-.922,7.868-1.259s5.283-.6,7.946-.708c-2.608.551-5.226.922-7.868,1.259S234.875,410.724,232.2,410.837Z" transform="translate(-126.255 -392.786)" fill="#dbdbdb"/>
          <path id="Trazado_10744" data-name="Trazado 10744" d="M228.89,408.6c2.6-.54,5.226-.922,7.868-1.259s5.283-.6,7.946-.7c-2.608.54-5.238.922-7.868,1.259S231.565,408.483,228.89,408.6Z" transform="translate(-126.666 -393.063)" fill="#dbdbdb"/>
          <path id="Trazado_10745" data-name="Trazado 10745" d="M284.5,419.679s8.756.09,8.216-7.272-9.172-5.71-9.172-5.71Z" transform="translate(-119.891 -393.075)" fill="#dd6a57"/>
          <path id="Trazado_10746" data-name="Trazado 10746" d="M229.3,412.112l.955,12.982,61.312-5.462-.955-12.982Z" transform="translate(-126.615 -393.061)" fill="#455a64"/>
          <path id="Trazado_10747" data-name="Trazado 10747" d="M281.9,405.874l1.113,15.151,2.439-.214-1.113-15.151Z" transform="translate(-120.094 -393.184)" fill="#263238"/>
          <path id="Trazado_10748" data-name="Trazado 10748" d="M279.5,406.084l1.124,15.162,2.428-.225-1.113-15.151Z" transform="translate(-120.392 -393.158)" fill="#263238"/>
          <path id="Trazado_10749" data-name="Trazado 10749" d="M230.359,411.51l-7.216,5.552-2.383,1.821,2.63,1.4,7.924,4.215,1.427-1.45s-1.6-1.124-1.618-1.124l1.427-1.45s-1.6-1.124-1.618-1.124l1.427-1.416-1.618-1.18,1.427-1.416-1.618-1.18,1.427-1.427Z" transform="translate(-127.673 -392.459)" fill="#fff"/>
          <path id="Trazado_10750" data-name="Trazado 10750" d="M223.143,416.45l-2.383,1.821,2.619,1.4Z" transform="translate(-127.673 -391.846)" fill="#37474f"/>
          <path id="Trazado_10751" data-name="Trazado 10751" d="M232.88,414.887c4.2-.663,8.407-1.124,12.622-1.663s8.43-.854,12.656-1.281,8.441-.708,12.678-.978,8.463-.506,12.712-.584c-4.192.663-8.407,1.124-12.622,1.664s-8.43.854-12.645,1.281-8.452.708-12.69.966S237.129,414.8,232.88,414.887Z" transform="translate(-126.171 -392.599)" fill="#263238"/>
          <path id="Trazado_10752" data-name="Trazado 10752" d="M233.34,420.078c4.192-.663,8.4-1.18,12.611-1.663s8.441-.854,12.656-1.293,8.452-.708,12.678-.966,8.463-.506,12.712-.6c-4.192.663-8.407,1.18-12.611,1.664s-8.441.854-12.656,1.293-8.452.7-12.678.967S237.577,419.988,233.34,420.078Z" transform="translate(-126.114 -391.957)" fill="#263238"/>
          <rect id="Rectángulo_6565" data-name="Rectángulo 6565" width="120.927" height="17.489" transform="translate(518.234 34.404)" fill="#007bc7"/>
          <rect id="Rectángulo_6566" data-name="Rectángulo 6566" width="11.813" height="17.489" transform="translate(525.753 34.404)" fill="#37474f"/>
          <rect id="Rectángulo_6567" data-name="Rectángulo 6567" width="4.934" height="17.489" transform="translate(541.95 34.404)" fill="#37474f"/>
          <rect id="Rectángulo_6568" data-name="Rectángulo 6568" width="11.813" height="17.489" transform="translate(613.108 34.404)" fill="#37474f"/>
          <rect id="Rectángulo_6569" data-name="Rectángulo 6569" width="83.881" height="17.804" transform="translate(511.209 16.601)" fill="#263238"/>
          <rect id="Rectángulo_6570" data-name="Rectángulo 6570" width="36.192" height="17.804" transform="translate(595.079 16.601)" fill="#263238"/>
          <rect id="Rectángulo_6571" data-name="Rectángulo 6571" width="83.881" height="14.106" transform="translate(511.209 18.444)" fill="#fff"/>
          <path id="Trazado_10753" data-name="Trazado 10753" d="M319.17,413.581q9.79-.158,19.6-.214l19.613-.068,19.613.068q9.812,0,19.613.214-9.79.169-19.613.225l-19.613.056-19.613-.068Q328.982,413.738,319.17,413.581Z" transform="translate(197.468 -392.237)" fill="#dbdbdb"/>
          <path id="Trazado_10754" data-name="Trazado 10754" d="M319.17,416.031q9.79-.169,19.6-.225l19.613-.056,19.613.056q9.812.067,19.613.225-9.79.157-19.613.214l-19.613.056-19.613-.056Q328.982,416.2,319.17,416.031Z" transform="translate(197.468 -391.933)" fill="#dbdbdb"/>
          <path id="Trazado_10755" data-name="Trazado 10755" d="M319.17,418.511q9.79-.157,19.6-.214l19.613-.067L378,418.3q9.812,0,19.613.214-9.79.146-19.613.214l-19.613.067-19.613-.067Q328.982,418.68,319.17,418.511Z" transform="translate(197.468 -391.626)" fill="#dbdbdb"/>
          <path id="Trazado_10756" data-name="Trazado 10756" d="M319.17,420.971q9.79-.146,19.6-.214l19.613-.067,19.613.067q9.812,0,19.613.214-9.79.146-19.613.213l-19.613.067-19.613-.067Q328.982,421.14,319.17,420.971Z" transform="translate(197.468 -391.321)" fill="#dbdbdb"/>
          <rect id="Rectángulo_6572" data-name="Rectángulo 6572" width="110.508" height="16.668" transform="translate(518.695)" fill="#c7c7c7"/>
          <rect id="Rectángulo_6573" data-name="Rectángulo 6573" width="42.508" height="10.003" transform="translate(529.091 3.406)" fill="#fff"/>
        </g>
        <g id="freepik--Shadow--inject-65-2" data-name="freepik--Shadow--inject-65" transform="translate(301.044 445.533)">
          <ellipse id="Elipse_4" data-name="Elipse 4" cx="238.494" cy="45.341" rx="238.494" ry="45.341" fill="#ebebeb"/>
        </g>
        <g id="freepik--Character--inject-65" transform="translate(317.091 158.706)">
          <path id="Trazado_10757" data-name="Trazado 10757" d="M74.22,399.227c-.214,3.653,10.239,4.5,14.544,2.057a99.444,99.444,0,0,0,9.88-8.43c10.284-9.441,24.491-23.232,24.491-23.232l10.8,4.62,44.071,16.073,29.583-57.12s-25.514-10.239-49.758-19.388c-3.732-1.405-7.407-2.765-10.981-4.08l-.663-.247c-16.264-5.912-29.74-10.363-31.089-9.374C111.446,302.746,74.423,395.541,74.22,399.227Z" transform="translate(-49.344 -102.713)" fill="#d3766a"/>
          <path id="Trazado_10758" data-name="Trazado 10758" d="M157.331,313.615c-4.766,12.274-17.736,45.689-23.6,60.537l-10.576-4.5s-14.229,13.769-24.457,23.21c-4.676,4.282-8.52,7.654-9.88,8.43-4.3,2.439-14.758,1.585-14.544-2.068s37.226-96.481,40.879-99.122c1.349-.989,14.825,3.462,31.089,9.374l.663.247C150.261,311,153.768,312.278,157.331,313.615Z" transform="translate(-49.338 -102.713)" fill="#ebebeb"/>
          <path id="Trazado_10759" data-name="Trazado 10759" d="M73.28,400.469c.225-3.732,37.945-98.077,41.654-100.763,1.4-1.034,15.466,3.664,32.291,9.812l-24.143,60.9s-30.605,29.673-34.989,32.179S73.067,404.212,73.28,400.469Z" transform="translate(-49.46 -102.763)" fill="#007bc7"/>
          <path id="Trazado_10760" data-name="Trazado 10760" d="M77.152,400.019c6.744-15.657,32.3-79.453,37.754-95.447,0-.124,0-.157-.1,0-6.991,15.376-32.067,79.374-37.911,95.379C76.77,400.255,77.017,400.345,77.152,400.019Z" transform="translate(-49.016 -102.155)" fill="#263238"/>
          <path id="Trazado_10761" data-name="Trazado 10761" d="M92.437,388.976a13.679,13.679,0,0,0-.079-11,13.274,13.274,0,0,0-7.036-6.912c-.09,0-.169.146-.067.191a15.825,15.825,0,0,1,6.98,17.725.112.112,0,0,0,.2,0Z" transform="translate(-47.981 -93.9)" fill="#263238"/>
          <path id="Trazado_10762" data-name="Trazado 10762" d="M114.091,369.775c2.619-6.294,3.316-14.533-.292-20.535-.135-.225-.461,0-.438.2a94.166,94.166,0,0,1-.09,20.13.427.427,0,0,0,.82.2Z" transform="translate(-44.503 -96.616)" fill="#263238"/>
          <path id="Trazado_10763" data-name="Trazado 10763" d="M110.661,373.445c2.619-6.294,3.372-14.533-.281-20.535-.135-.225-.472,0-.45.2a94.164,94.164,0,0,1-.09,20.13.427.427,0,0,0,.821.2Z" transform="translate(-44.928 -96.161)" fill="#263238"/>
          <path id="Trazado_10764" data-name="Trazado 10764" d="M107.231,377.115c2.619-6.294,3.372-14.533-.281-20.535-.146-.225-.472,0-.45.2a94.169,94.169,0,0,1-.09,20.13.427.427,0,0,0,.82.2Z" transform="translate(-45.353 -95.707)" fill="#263238"/>
          <path id="Trazado_10765" data-name="Trazado 10765" d="M103.8,380.785c2.619-6.294,3.372-14.533-.292-20.535-.135-.225-.461,0-.438.2a94.165,94.165,0,0,1-.09,20.13.427.427,0,0,0,.821.2Z" transform="translate(-45.779 -95.252)" fill="#263238"/>
          <path id="Trazado_10766" data-name="Trazado 10766" d="M123.909,314.373c2.821-7.1-8.227-11.5-11.049-4.384S121.088,321.5,123.909,314.373Z" transform="translate(-44.61 -101.919)" fill="#263238"/>
          <path id="Trazado_10767" data-name="Trazado 10767" d="M128.161,382.076c3.945-2.136,2.956-7.216.989-10.3a35.787,35.787,0,0,0-13.892-12.217.169.169,0,0,0-.259.124c-.506,0-1.124.337-.967.933,1.315,5.755,2.012,12.071,5.058,17.242C120.866,380.884,124.441,384.11,128.161,382.076Zm-10.352-13.139c-.708-2.821-1.281-5.62-2.1-8.43a104.031,104.031,0,0,1,7.946,7.317,37.943,37.943,0,0,1,3.372,4.013c1.54,2.248,4.35,10.543-2.787,8.418C120.282,379.086,118.663,372.286,117.809,368.937Z" transform="translate(-44.411 -95.328)" fill="#263238"/>
          <path id="Trazado_10768" data-name="Trazado 10768" d="M119.192,345.264c-3.046,5.17-3.754,11.487-5.08,17.242-.135.6.461.978.967.933a.18.18,0,0,0,.258.124,35.765,35.765,0,0,0,13.9-12.2c1.978-3.08,2.967-8.149-.967-10.3C124.554,339.037,120.98,342.2,119.192,345.264Zm5.137-2.383c7.137-2.113,4.316,6.215,2.776,8.43a39.458,39.458,0,0,1-3.372,4.012c-2.461,2.653-5.26,4.912-7.958,7.294.82-2.776,1.394-5.62,2.124-8.418C118.765,350.838,120.384,344.05,124.329,342.881Z" transform="translate(-44.401 -97.697)" fill="#263238"/>
          <path id="Trazado_10769" data-name="Trazado 10769" d="M144.441,309.518,137.866,326.1,95.74,335.807c8.508-20.647,14.814-34.944,16.41-36.1C113.555,298.672,127.616,303.426,144.441,309.518Z" transform="translate(-46.676 -102.763)" opacity="0.1"/>
          <path id="Trazado_10770" data-name="Trazado 10770" d="M149.83,388.6s81.476,18.455,138.719,15.342q5.946-.326,11.509-.978c20.231-2.394,28.166-40.631,20.231-52.826-8.149-12.51-37.394-29.032-53.107-39.575-4.945-3.3-7.126-9.756-7.126-9.756H202.443s-12.555,14.274-6.193,25.39a3.062,3.062,0,0,0,.36.551l-18.489-6.688Z" transform="translate(-39.971 -102.608)" fill="#263238"/>
          <path id="Trazado_10771" data-name="Trazado 10771" d="M173.106,354.41c4.35-9.936,9.149-19.658,13.589-29.549.079-.191.382-.09.3.1-4.17,9.97-8,20.063-12.364,29.965s-9.082,19.669-13.656,29.5c-.124.247-.528.124-.416-.135C164.777,374.338,168.778,364.369,173.106,354.41Z" transform="translate(-38.643 -99.64)" fill="#455a64"/>
          <path id="Trazado_10772" data-name="Trazado 10772" d="M53,416.007c-.214,3.653,10.239,4.5,14.544,2.068a101.167,101.167,0,0,0,9.891-8.441c10.273-9.43,24.48-23.232,24.48-23.232l10.8,4.62,44.071,16.073,29.583-57.12s-25.514-10.239-49.758-19.388c-3.732-1.4-7.407-2.765-10.981-4.08l-.663-.247c-16.23-5.856-29.706-10.352-31.055-9.374C90.26,319.526,53.236,412.332,53,416.007Z" transform="translate(-51.974 -100.632)" fill="#d3766a"/>
          <path id="Trazado_10773" data-name="Trazado 10773" d="M136.17,330.4c-4.766,12.274-17.736,45.689-23.6,60.537l-10.576-4.5S87.738,400.2,77.454,409.646c-4.676,4.282-8.52,7.654-9.88,8.43-4.3,2.439-14.758,1.585-14.544-2.068s37.226-96.481,40.879-99.122c1.349-.989,14.825,3.462,31.089,9.374l.663.247C129.078,327.776,132.584,329.058,136.17,330.4Z" transform="translate(-51.971 -100.633)" fill="#ebebeb"/>
          <path id="Trazado_10774" data-name="Trazado 10774" d="M52.09,417.249c.225-3.732,37.945-98.077,41.654-100.763,1.4-1.034,15.466,3.664,32.291,9.812l-24.143,60.9S71.3,416.856,66.9,419.362,51.877,420.992,52.09,417.249Z" transform="translate(-52.087 -100.683)" fill="#007bc7"/>
          <path id="Trazado_10775" data-name="Trazado 10775" d="M55.962,416.8c6.744-15.657,32.314-79.453,37.754-95.436,0-.135,0-.169-.1,0C86.624,336.7,61.548,400.692,55.7,416.7,55.58,417.034,55.827,417.135,55.962,416.8Z" transform="translate(-51.643 -100.075)" fill="#263238"/>
          <path id="Trazado_10776" data-name="Trazado 10776" d="M71.247,405.8a13.7,13.7,0,0,0-.079-11.015,13.218,13.218,0,0,0-7.036-6.9c-.09,0-.157.135-.067.191a15.792,15.792,0,0,1,6.98,17.646.112.112,0,0,0,.2.079Z" transform="translate(-50.608 -91.815)" fill="#263238"/>
          <path id="Trazado_10777" data-name="Trazado 10777" d="M92.911,386.555c2.619-6.294,3.372-14.522-.292-20.535-.135-.225-.461,0-.438.2a94.167,94.167,0,0,1-.09,20.13.427.427,0,0,0,.82.2Z" transform="translate(-47.129 -94.536)" fill="#263238"/>
          <path id="Trazado_10778" data-name="Trazado 10778" d="M89.471,390.275c2.619-6.294,3.372-14.522-.281-20.535-.135-.225-.472,0-.45.2a94.166,94.166,0,0,1-.09,20.13.427.427,0,0,0,.82.2Z" transform="translate(-47.555 -94.075)" fill="#263238"/>
          <path id="Trazado_10779" data-name="Trazado 10779" d="M86.091,393.9c2.619-6.294,3.372-14.522-.281-20.535-.146-.225-.472,0-.45.2a94.166,94.166,0,0,1-.09,20.13.427.427,0,0,0,.821.2Z" transform="translate(-47.974 -93.626)" fill="#263238"/>
          <path id="Trazado_10780" data-name="Trazado 10780" d="M82.611,397.565c2.619-6.294,3.372-14.522-.292-20.535-.135-.225-.461,0-.438.2a94.167,94.167,0,0,1-.09,20.13.427.427,0,0,0,.82.2Z" transform="translate(-48.405 -93.171)" fill="#263238"/>
          <path id="Trazado_10781" data-name="Trazado 10781" d="M102.719,331.153c2.866-7.047-8.227-11.543-11.049-4.372S99.9,338.279,102.719,331.153Z" transform="translate(-47.237 -99.839)" fill="#263238"/>
          <path id="Trazado_10782" data-name="Trazado 10782" d="M106.971,398.866c3.945-2.147,2.956-7.216.989-10.3a35.822,35.822,0,0,0-13.892-12.229.18.18,0,0,0-.259.124c-.506,0-1.124.337-.967.933,1.315,5.755,2.012,12.071,5.058,17.253C99.676,397.675,103.251,400.889,106.971,398.866Zm-10.352-13.15c-.708-2.81-1.281-5.62-2.1-8.43,2.7,2.394,5.5,4.653,7.958,7.317a39.233,39.233,0,0,1,3.372,4.013c1.54,2.248,4.35,10.543-2.787,8.419C99.092,395.865,97.518,389.065,96.619,385.716Z" transform="translate(-47.038 -93.248)" fill="#263238"/>
          <path id="Trazado_10783" data-name="Trazado 10783" d="M98,362.041c-3.046,5.182-3.754,11.487-5.08,17.242-.135.6.461.978.967.933a.169.169,0,0,0,.259.124,35.787,35.787,0,0,0,13.915-12.2c1.967-3.08,2.956-8.149-.978-10.3C103.364,355.848,99.756,359.029,98,362.041Zm5.136-2.383c7.137-2.1,4.316,6.216,2.776,8.43a39.478,39.478,0,0,1-3.372,4.013c-2.462,2.653-5.249,4.912-7.958,7.306.821-2.787,1.4-5.62,2.124-8.43.865-3.361,2.484-10.149,6.418-11.318Z" transform="translate(-47.028 -95.615)" fill="#263238"/>
          <path id="Trazado_10784" data-name="Trazado 10784" d="M254.469,300.81H162.81s-11.543,29-5.181,40.137,71.181,26.008,71.181,26.008l-89.321-32.112L111.22,403.405s97.9,20.737,154.994,13.847c21.423-2.585,35.528-37.956,27.29-50.028-11.408-16.7-50.207-44.543-50.207-44.543Z" transform="translate(-44.757 -102.608)" fill="#263238"/>
          <path id="Trazado_10785" data-name="Trazado 10785" d="M219.851,363.27q5.867,2.057,11.768,4.046c4.069,1.383,8.126,2.979,12.285,4.069.2,0,.1.382-.09.3-3.6-1.27-7.328-2.158-10.97-3.271s-7.126-2.248-10.678-3.372l-4.586-1.54.933.618c1.416.91,2.832,1.821,4.226,2.765,2.866,1.933,5.552,4.249,8.553,5.968.191.112,0,.4-.169.281-2.866-1.956-6.069-3.372-8.992-5.238-1.427-.888-2.821-1.821-4.215-2.776a28.285,28.285,0,0,1-3.709-2.754c-4.5-1.517-8.992-3.057-13.488-4.664-14.05-5.058-33.472-14.027-47.06-20.231-.764-.337-2.248-1.574,1.023-.292C167.755,342.331,200.384,356.492,219.851,363.27Z" transform="translate(-39.621 -98.17)" fill="#37474f"/>
          <path id="Trazado_10786" data-name="Trazado 10786" d="M228.835,320.278a401.97,401.97,0,0,1,35.618,28.02c4.934,4.327,10.116,8.643,13.858,14.117a23.27,23.27,0,0,1,3.619,8.137,22.29,22.29,0,0,1-.495,10.217,65.9,65.9,0,0,1-10.565,21.355c-.124.169-.4,0-.281-.169a60.784,60.784,0,0,0,8.924-18.68,26.537,26.537,0,0,0,1.27-11.24,21.122,21.122,0,0,0-3.372-8.295c-3.507-5.35-8.6-9.61-13.319-13.836-5.384-4.81-10.857-9.542-16.5-14.049-6.339-5.058-12.735-10.06-19.254-14.881C227.891,320.705,228.351,319.975,228.835,320.278Z" transform="translate(-30.261 -100.204)" fill="#37474f"/>
          <path id="Trazado_10787" data-name="Trazado 10787" d="M228.984,320.453c.36-.742.731-1.472,1.124-2.248.776-1.517,1.585-3.012,2.405-4.5,1.686-3.035,3.585-5.923,5.361-8.891.112-.18.371,0,.281.169-1.517,3.068-2.877,6.2-4.5,9.228-.776,1.461-1.562,2.9-2.372,4.327l-1.236,2.136a6.832,6.832,0,0,1-1.45,2.091c-.18.135-.495.056-.472-.214a6.024,6.024,0,0,1,.854-2.1Z" transform="translate(-30.265 -102.121)" fill="#37474f"/>
          <path id="Trazado_10788" data-name="Trazado 10788" d="M133.094,367.05c4.35-9.925,9.149-19.647,13.589-29.549.079-.18.382-.09.3.113-4.17,9.958-8,20.063-12.364,29.953s-9.07,19.681-13.645,29.515c-.124.247-.528.124-.416-.146C124.766,386.989,128.767,376.952,133.094,367.05Z" transform="translate(-43.601 -98.072)" fill="#37474f"/>
          <path id="Trazado_10789" data-name="Trazado 10789" d="M203.306,303.534c-1.574,2.248-2.877,4.709-4.316,7.036a21.831,21.831,0,0,1-4.6,5.732c-3.788,3.035-8.9,3.855-13.634,3.776a78.757,78.757,0,0,1-9.61-.8.124.124,0,0,0,0,.236c1.45.348,2.877.787,4.327,1.124s2.911.6,4.383.787a24.251,24.251,0,0,0,8.059-.191,17.567,17.567,0,0,0,6.744-2.877,17.074,17.074,0,0,0,4.878-5.856c.719-1.326,3.54-7.16,4.181-8.756a.234.234,0,0,0-.416-.214Z" transform="translate(-37.339 -102.286)" fill="#37474f"/>
          <path id="Trazado_10790" data-name="Trazado 10790" d="M225.277,216.574c1.562,16.2,8.441,67.337,24.4,83.173,10.745,10.7,53.546,14.274,71.293,18.366,5.462,1.259,14.533-46.746,8.767-48.409-13.589-3.9-51.871-2.855-55.423-5.62s-20.231-35.292-33.044-54.591C233.617,198.018,223.31,196.006,225.277,216.574Z" transform="translate(-30.648 -114.988)" fill="#d3766a"/>
          <path id="Trazado_10791" data-name="Trazado 10791" d="M311.117,261.13c26.458,1.191,51.421,16.713,55.074,20.231,3.1,3,4.676,4.574,4.676,4.574,5.62,5.271,5.564,9.868,5.564,9.868s8.351,4.159,6.676,9.621c-1.866,6.137-13.229-.91-21.85-.967-19.748-.135-47.858,5.2-53.557,5.732Z" transform="translate(-20.401 -107.527)" fill="#d3766a"/>
          <path id="Trazado_10792" data-name="Trazado 10792" d="M337.024,286.72a125.249,125.249,0,0,1,17.286,1.124c6.317,1.034,12.229,3.08,18.3,5.024a.157.157,0,0,0,.112-.292,67.325,67.325,0,0,0-35.7-6.362C336.743,286.237,336.732,286.709,337.024,286.72Z" transform="translate(-16.792 -104.456)" fill="#263238"/>
          <path id="Trazado_10793" data-name="Trazado 10793" d="M335.557,276.062c5.62.461,15.567,1.338,31.8,8.272,0,0,.1-.067,0-.1A60.458,60.458,0,0,0,335.58,275.5C335.265,275.511,335.186,276.062,335.557,276.062Z" transform="translate(-16.978 -105.746)" fill="#263238"/>
          <path id="Trazado_10794" data-name="Trazado 10794" d="M337.431,300.89c-2.585,1-2.068,2.36,2.63,3.788s24.547,3.125,23.367,9.992-29.122,4.091-36.765,1.124-18.984-10.5-18.984-10.5C313.232,304.723,326.562,302.138,337.431,300.89Z" transform="translate(-20.403 -102.598)" fill="#d3766a"/>
          <path id="Trazado_10795" data-name="Trazado 10795" d="M230.527,265.932l34.315-22.479s-9.273-16.859-19.107-31.527-22.76-18.152-22.041,7.7a201.859,201.859,0,0,0,6.834,46.307Z" transform="translate(-30.818 -115.038)" fill="#007bc7"/>
          <path id="Trazado_10796" data-name="Trazado 10796" d="M259.126,233.334c-5.159,2.844-10.116,6.126-14.994,9.408-2.405,1.618-4.8,3.248-7.16,4.934s-4.788,3.619-7.25,5.328a.09.09,0,0,0,.1.146c2.518-1.619,5.148-3.068,7.688-4.664s4.878-3.136,7.294-4.743c4.889-3.271,9.812-6.6,14.4-10.284a.079.079,0,1,0-.079-.124Z" transform="translate(-30.07 -110.977)" fill="#263238"/>
          <path id="Trazado_10797" data-name="Trazado 10797" d="M258.706,247.439l-28.189,18.5a201.856,201.856,0,0,1-6.744-46.352c-.36-13.083,2.776-18.658,7.238-19.107C237.351,212,250.8,234.188,258.706,247.439Z" transform="translate(-30.808 -115.046)" fill="#263238"/>
          <path id="Trazado_10798" data-name="Trazado 10798" d="M269.122,325.068c-1.81,1.506-56.378-2.473-90.625-5.35-15.668-1.349-27.065-2.428-27.222-2.664-1.259-2,28.728-93.694,64.583-116.791,12.757-8.2,29,.8,30.594,3.091C256.983,218.505,270.763,323.663,269.122,325.068Z" transform="translate(-39.796 -115.492)" fill="#007bc7"/>
          <path id="Trazado_10799" data-name="Trazado 10799" d="M250.644,258.806c-.371-3.293-.82-6.586-1.349-9.857-.652-4.1-5.62-24.154-6.823-27.773a.056.056,0,1,0-.112,0c2.99,12.948,5.114,23.39,7.092,36.54.551,3.7,1.18,7.373,1.72,11.071,0,.1.18.112.169,0C251.194,265.472,251.026,262.122,250.644,258.806Z" transform="translate(-28.5 -112.487)" fill="#263238"/>
          <path id="Trazado_10800" data-name="Trazado 10800" d="M268.5,305.156,153.13,297.165c.731-2.349,1.641-5.114,2.731-8.2l111.722,7.733C267.954,299.9,268.269,302.74,268.5,305.156Z" transform="translate(-39.562 -104.077)" fill="#263238"/>
          <path id="Trazado_10801" data-name="Trazado 10801" d="M266.3,292.193,157.42,284.662c.944-2.585,1.989-5.328,3.113-8.182L265.2,283.73C265.59,286.686,265.972,289.518,266.3,292.193Z" transform="translate(-39.03 -105.624)" fill="#263238"/>
          <path id="Trazado_10802" data-name="Trazado 10802" d="M235.527,221.638c-6.463,1.034-16.635-9.5-20.344-17.68-.247-.562,1-6.182,2.248-13.094.708-4.181,1.4-8.868,1.731-13.184l26.6,8.621s-3.372,8.846-3.866,16.387a9.388,9.388,0,0,0,0,1.787,2.057,2.057,0,0,1,0,.292C242.215,208.173,241.776,220.649,235.527,221.638Z" transform="translate(-31.873 -117.872)" fill="#d3766a"/>
          <path id="Trazado_10803" data-name="Trazado 10803" d="M241.342,204.407v.3c-18.062-2.338-20.861-19.433-21.232-26.57l25.031,8.092s-3.372,8.857-3.866,16.4A8.391,8.391,0,0,0,241.342,204.407Z" transform="translate(-31.259 -117.815)" fill="#263238"/>
          <path id="Trazado_10804" data-name="Trazado 10804" d="M219.638,143.148c-5.687,10.554-6.744,39.631-.214,48.488,9.486,12.836,28.268,17.658,39.991,5.507,11.375-11.768,12.24-48.544,4.631-56.929C252.84,127.873,228.057,127.6,219.638,143.148Z" transform="translate(-31.9 -123.634)" fill="#d3766a"/>
          <path id="Trazado_10805" data-name="Trazado 10805" d="M217.812,171.148c5.822,0,7.126-9.565,7.126-9.565s6.935-1.281,10.914-14.151c0,0,3.732,11.408,27.874,11.622a15.342,15.342,0,0,0,1.281-12.431,85.981,85.981,0,0,1,4.338,13.555s8.261-19.029-7.7-28.189c-6.35-3.642-16.623-4.406-33.134,1.236,0,0-1.765-9.666-3.709-8.688s.371,10.116.371,10.116-6.53-3-7.868-1.72c-1.124,1.124,5.193,3.675,5.193,3.675s-10.857,1.967-10.689,14.207C211.956,162.044,214.935,171.148,217.812,171.148Z" transform="translate(-32.288 -124.468)" fill="#263238"/>
          <path id="Trazado_10806" data-name="Trazado 10806" d="M256.126,157.64a21.411,21.411,0,0,1-9.284-.742,23.162,23.162,0,0,1-7.261-4.08,21.219,21.219,0,0,1-5.092-6.373c-1.45-2.754-1.776-5.62-2.248-8.6a.163.163,0,0,0-.326,0,16.668,16.668,0,0,0,1.214,8.8,17.736,17.736,0,0,0,5.159,7.261,17.5,17.5,0,0,0,7.564,3.743,30.661,30.661,0,0,0,10.239.348C256.34,157.943,256.329,157.629,256.126,157.64Z" transform="translate(-29.813 -122.829)" fill="#263238"/>
          <path id="Trazado_10807" data-name="Trazado 10807" d="M224.6,135.358a12.42,12.42,0,0,0-13.937,8.756,23.021,23.021,0,0,0,.1,10.464,42.937,42.937,0,0,0,3.765,10.352c.09.18.371,0,.281-.169a33.044,33.044,0,0,1-2.866-9.666,30.537,30.537,0,0,1-.281-9.644,11.925,11.925,0,0,1,12.937-9.745.18.18,0,0,0,0-.348Z" transform="translate(-32.498 -123.139)" fill="#263238"/>
          <path id="Trazado_10808" data-name="Trazado 10808" d="M246.954,126.669a48.452,48.452,0,0,0-12.206,2.776,35.011,35.011,0,0,0-10.52,5.462.162.162,0,0,0,.18.27c6.564-3.709,14.207-5.62,21.636-6.744,6.946-1.034,14.87,0,19.265,6.1a.094.094,0,1,0,.157-.1C261.656,128.108,253.878,126.13,246.954,126.669Z" transform="translate(-30.757 -124.206)" fill="#263238"/>
          <path id="Trazado_10809" data-name="Trazado 10809" d="M242.335,164.472c-3.63-.393-4.159,6.912-.787,7.272S245.393,164.8,242.335,164.472Z" transform="translate(-28.881 -119.511)" fill="#263238"/>
          <path id="Trazado_10810" data-name="Trazado 10810" d="M256.777,166c3.653.247,2.877,7.531-.506,7.295S253.72,165.753,256.777,166Z" transform="translate(-27.047 -119.32)" fill="#263238"/>
          <path id="Trazado_10811" data-name="Trazado 10811" d="M240.933,160.407a21.705,21.705,0,0,0,2.405-.337,3.956,3.956,0,0,0,2.394-.82,1.27,1.27,0,0,0,.1-1.529,3.113,3.113,0,0,0-3.012-.922,4.5,4.5,0,0,0-2.967,1.416,1.338,1.338,0,0,0,1.079,2.192Z" transform="translate(-28.849 -120.471)" fill="#263238"/>
          <path id="Trazado_10812" data-name="Trazado 10812" d="M259.9,162.459a23.115,23.115,0,0,1-2.3-.776,3.923,3.923,0,0,1-2.248-1.248,1.259,1.259,0,0,1,.18-1.517,3.113,3.113,0,0,1,3.125-.36,4.6,4.6,0,0,1,2.664,1.933,1.338,1.338,0,0,1-1.416,1.967Z" transform="translate(-26.912 -120.275)" fill="#263238"/>
          <path id="Trazado_10813" data-name="Trazado 10813" d="M240.109,181.789c.3.7.539,1.574,1.27,1.944a5.98,5.98,0,0,0,2.484.382.079.079,0,0,1,0,.146,3.08,3.08,0,0,1-3.136.067,2.4,2.4,0,0,1-.9-2.529C239.884,181.665,240.031,181.688,240.109,181.789Z" transform="translate(-28.824 -117.373)" fill="#263238"/>
          <path id="Trazado_10814" data-name="Trazado 10814" d="M250.6,177.513s-.068,3.372-.3,4.934c0,.146-.416.157-.944.1h-.068a7.463,7.463,0,0,1-6.744-3.878.169.169,0,0,1,.27-.18,11.341,11.341,0,0,0,6.452,2.99c.18-.416-.079-5.845.157-5.755,1.012.326,2.765,1.124,3.372,1.349.079-2.248,0-8.419.191-12.364a.208.208,0,0,1,.416,0,105.541,105.541,0,0,1,.776,14.016C254.208,179.008,251.173,177.873,250.6,177.513Z" transform="translate(-28.479 -119.504)" fill="#263238"/>
          <path id="Trazado_10815" data-name="Trazado 10815" d="M249.352,180.152a9.239,9.239,0,0,1-3.855,2.6,4.18,4.18,0,0,1-2.518,0c-1.776-.6-1.708-2.248-1.281-3.664a10.115,10.115,0,0,1,.955-2.124A11.88,11.88,0,0,0,249.352,180.152Z" transform="translate(-28.614 -117.961)" fill="#263238"/>
          <path id="Trazado_10816" data-name="Trazado 10816" d="M245.5,182.514a4.182,4.182,0,0,1-2.518,0c-1.776-.6-1.708-2.248-1.281-3.664C243.62,179.165,245.441,180.615,245.5,182.514Z" transform="translate(-28.614 -117.727)" fill="#ff9bbc"/>
          <path id="Trazado_10817" data-name="Trazado 10817" d="M220.156,166.2s-4.664-10.116-9.16-8.632-2.1,15.41,2.372,18.062a4.957,4.957,0,0,0,7-1.439Z" transform="translate(-32.687 -120.384)" fill="#d3766a"/>
          <path id="Trazado_10818" data-name="Trazado 10818" d="M211.434,161.08a.067.067,0,0,0,0,.124c3.113,1.967,4.316,5.406,4.979,8.868-.776-1.427-2.023-2.36-3.9-1.472-.1,0,0,.2.056.2a3.046,3.046,0,0,1,3.113,1.641,15.047,15.047,0,0,1,1.124,2.956c.1.326.674.27.618-.1a.191.191,0,0,0,0-.079C218.212,168.948,215.953,162.35,211.434,161.08Z" transform="translate(-32.339 -119.93)" fill="#263238"/>
          <path id="Trazado_10819" data-name="Trazado 10819" d="M353.453,286.389l-74.013,6.463,4.361-95.908,74.024-6.474Z" transform="translate(-23.904 -116.286)" fill="#ebebeb"/>
          <path id="Trazado_10820" data-name="Trazado 10820" d="M357.963,285.989l-74.013,6.474,4.361-95.919,74.013-6.474Z" transform="translate(-23.345 -116.336)" fill="#c7c7c7"/>
          <path id="Trazado_10821" data-name="Trazado 10821" d="M295.41,195.6a4.833,4.833,0,0,1-1.945,4.058c-.584.438-1.124-.45-.483-.866a3.54,3.54,0,0,0,1.371-2.574,4.123,4.123,0,0,0,0-.528,3.674,3.674,0,0,0-.472-1.776,1.507,1.507,0,0,0-.618-.6.159.159,0,0,1-.056,0h-.258a.809.809,0,0,0-.506.079,1.585,1.585,0,0,0-.674.607,3.282,3.282,0,0,0-.416,1.034,4.616,4.616,0,0,0-.157.562v.135a.36.36,0,0,0,0,.191.418.418,0,0,0,0,.124l-1.045.09a5.944,5.944,0,0,1,.416-1.877,3,3,0,0,1,2.248-2.012,2.158,2.158,0,0,1,2.135,1.337A4.361,4.361,0,0,1,295.41,195.6Z" transform="translate(-22.576 -116.066)" fill="#a6a6a6"/>
          <path id="Trazado_10822" data-name="Trazado 10822" d="M300.579,195.15a4.844,4.844,0,0,1-1.933,4.058c-.584.438-1.068-.45-.483-.865a3.6,3.6,0,0,0,1.371-2.574v-.528a3.665,3.665,0,0,0-.461-1.776,1.685,1.685,0,0,0-.618-.607h-.169a.472.472,0,0,1-.146,0,.865.865,0,0,0-.506.09,1.518,1.518,0,0,0-.674.607,3.3,3.3,0,0,0-.427,1.034,4.565,4.565,0,0,0-.146.562v.124a1.272,1.272,0,0,0,0,.2v.124l-1.057.09a6.294,6.294,0,0,1,.427-1.877,2.967,2.967,0,0,1,2.248-2.012,2.158,2.158,0,0,1,2.135,1.338,4.225,4.225,0,0,1,.438,2.012Z" transform="translate(-21.934 -116.122)" fill="#a6a6a6"/>
          <path id="Trazado_10823" data-name="Trazado 10823" d="M305.714,194.7a4.878,4.878,0,0,1-1.945,4.058c-.584.427-1.124-.461-.483-.866a3.574,3.574,0,0,0,1.371-2.574,2.768,2.768,0,0,0,0-.528,3.54,3.54,0,0,0-.461-1.776,1.607,1.607,0,0,0-.618-.607.17.17,0,0,1-.067,0h-.2a.9.9,0,0,0-.506.09,1.584,1.584,0,0,0-.674.607,3.305,3.305,0,0,0-.427,1.034,4.583,4.583,0,0,0-.146.562v.124a.618.618,0,0,0,0,.2.416.416,0,0,0,0,.124l-1.045.09a5.947,5.947,0,0,1,.416-1.877,3,3,0,0,1,2.248-2.012,2.158,2.158,0,0,1,2.135,1.338A4.363,4.363,0,0,1,305.714,194.7Z" transform="translate(-21.292 -116.178)" fill="#a6a6a6"/>
          <path id="Trazado_10824" data-name="Trazado 10824" d="M310.87,194.25a4.822,4.822,0,0,1-1.945,4.058c-.584.427-1.068-.461-.483-.865a3.6,3.6,0,0,0,1.383-2.574c0-.169,0-.36,0-.528a3.663,3.663,0,0,0-.461-1.776,1.629,1.629,0,0,0-.629-.607h-.3a.866.866,0,0,0-.506.09,1.518,1.518,0,0,0-.674.607,3.06,3.06,0,0,0-.427,1.034c-.067.169-.1.371-.157.562v.124a.612.612,0,0,0,0,.191v.135l-1.057.09a6.3,6.3,0,0,1,.427-1.877,2.968,2.968,0,0,1,2.248-2.012,2.18,2.18,0,0,1,2.147,1.326A4.427,4.427,0,0,1,310.87,194.25Z" transform="translate(-20.66 -116.234)" fill="#a6a6a6"/>
          <path id="Trazado_10825" data-name="Trazado 10825" d="M316.029,193.8a4.878,4.878,0,0,1-1.944,4.057c-.584.427-1.124-.461-.483-.865a3.619,3.619,0,0,0,1.371-2.574,4.179,4.179,0,0,0,0-.528,3.542,3.542,0,0,0-.461-1.776,1.606,1.606,0,0,0-.618-.607h-.315a.866.866,0,0,0-.506.09,1.517,1.517,0,0,0-.674.607,3.3,3.3,0,0,0-.427,1.034,4.1,4.1,0,0,0-.146.562v.124a.584.584,0,0,0,0,.191v.135l-1.045.09a5.878,5.878,0,0,1,.416-1.877,2.99,2.99,0,0,1,2.248-2.012,2.169,2.169,0,0,1,2.135,1.326A4.494,4.494,0,0,1,316.029,193.8Z" transform="translate(-20.019 -116.289)" fill="#a6a6a6"/>
          <path id="Trazado_10826" data-name="Trazado 10826" d="M321.181,193.384a4.845,4.845,0,0,1-1.945,4.057c-.584.427-1.068-.461-.483-.865A3.574,3.574,0,0,0,320.125,194a4.146,4.146,0,0,0,0-.528,3.518,3.518,0,0,0-.472-1.776,1.461,1.461,0,0,0-.618-.607h-.3a.866.866,0,0,0-.506.09,1.552,1.552,0,0,0-.686.607,3.284,3.284,0,0,0-.416,1.034,3.7,3.7,0,0,0-.157.562h0a.612.612,0,0,0,0,.191v.135l-1.057.09a6.194,6.194,0,0,1,.416-1.877,3,3,0,0,1,2.248-2.012,2.169,2.169,0,0,1,2.136,1.326A4.5,4.5,0,0,1,321.181,193.384Z" transform="translate(-19.383 -116.356)" fill="#a6a6a6"/>
          <path id="Trazado_10827" data-name="Trazado 10827" d="M326.34,192.9a4.878,4.878,0,0,1-1.945,4.058c-.584.427-1.068-.461-.483-.866a3.619,3.619,0,0,0,1.371-2.574,4.145,4.145,0,0,0,0-.528,3.517,3.517,0,0,0-.461-1.776,1.607,1.607,0,0,0-.618-.607h-.315a.865.865,0,0,0-.506.09,1.461,1.461,0,0,0-.674.607,3.3,3.3,0,0,0-.427,1.034,3.712,3.712,0,0,0-.146.562v.124a1.386,1.386,0,0,0,0,.191v.135l-1.056.09a6.218,6.218,0,0,1,.427-1.877,3,3,0,0,1,2.248-2.023,2.248,2.248,0,0,1,2.136,1.337A4.5,4.5,0,0,1,326.34,192.9Z" transform="translate(-18.742 -116.402)" fill="#a6a6a6"/>
          <path id="Trazado_10828" data-name="Trazado 10828" d="M331.49,192.445a4.889,4.889,0,0,1-1.944,4.069c-.584.427-1.068-.461-.483-.865a3.574,3.574,0,0,0,1.371-2.574,4.123,4.123,0,0,0,0-.528,3.72,3.72,0,0,0-.472-1.787,1.573,1.573,0,0,0-.618-.641h-.315a.9.9,0,0,0-.506.09,1.518,1.518,0,0,0-.674.607,3.037,3.037,0,0,0-.416,1.034,3.691,3.691,0,0,0-.157.562v.124a.381.381,0,0,0,0,.191v.124l-1.045.1a5.879,5.879,0,0,1,.416-1.877,3.035,3.035,0,0,1,2.248-2.023,2.248,2.248,0,0,1,2.136,1.338A4.428,4.428,0,0,1,331.49,192.445Z" transform="translate(-18.104 -116.463)" fill="#a6a6a6"/>
          <path id="Trazado_10829" data-name="Trazado 10829" d="M336.64,191.99a4.845,4.845,0,0,1-1.933,4.069c-.585.427-1.068-.461-.483-.877a3.575,3.575,0,0,0,1.371-2.563v-.528a3.71,3.71,0,0,0-.461-1.787,1.608,1.608,0,0,0-.63-.6h-.3a.864.864,0,0,0-.506.09,1.461,1.461,0,0,0-.674.607,3.375,3.375,0,0,0-.427,1.023c-.067.18-.1.371-.157.573v.124a1.121,1.121,0,0,0,0,.191v.124l-1.057.1a6.216,6.216,0,0,1,.427-1.877,3,3,0,0,1,2.248-2.023,2.248,2.248,0,0,1,2.136,1.338A4.259,4.259,0,0,1,336.64,191.99Z" transform="translate(-17.465 -116.513)" fill="#a6a6a6"/>
          <path id="Trazado_10830" data-name="Trazado 10830" d="M341.8,191.54a4.856,4.856,0,0,1-1.945,4.058c-.584.438-1.068-.45-.483-.865a3.574,3.574,0,0,0,1.371-2.563,2.881,2.881,0,0,0,0-.539,3.572,3.572,0,0,0-.461-1.776,1.653,1.653,0,0,0-.618-.6H339.6a.529.529,0,0,0-.1,0h-.191a.888.888,0,0,0-.506.09,1.517,1.517,0,0,0-.674.607,3.374,3.374,0,0,0-.427,1.023,4.273,4.273,0,0,0-.146.573v.124a.564.564,0,0,0,0,.191v.124l-1.045.1a5.876,5.876,0,0,1,.416-1.877,3.012,3.012,0,0,1,2.248-2.023,2.248,2.248,0,0,1,2.136,1.338A4.4,4.4,0,0,1,341.8,191.54Z" transform="translate(-16.829 -116.569)" fill="#a6a6a6"/>
          <path id="Trazado_10831" data-name="Trazado 10831" d="M346.951,191.09a4.822,4.822,0,0,1-1.945,4.058c-.584.438-1.068-.45-.483-.865a3.541,3.541,0,0,0,1.371-2.574,4.122,4.122,0,0,0,0-.528,3.7,3.7,0,0,0-.461-1.776,1.607,1.607,0,0,0-.629-.6h-.3a.866.866,0,0,0-.506.079,1.574,1.574,0,0,0-.686.618,3.373,3.373,0,0,0-.416,1.023,4.589,4.589,0,0,0-.157.562v.135a.567.567,0,0,0,0,.191v.124l-1.057.09a5.9,5.9,0,0,1,.427-1.866,2.99,2.99,0,0,1,2.248-2.023,2.18,2.18,0,0,1,2.135,1.338A4.271,4.271,0,0,1,346.951,191.09Z" transform="translate(-16.188 -116.625)" fill="#a6a6a6"/>
          <path id="Trazado_10832" data-name="Trazado 10832" d="M352.109,190.64a4.867,4.867,0,0,1-1.945,4.057c-.584.438-1.068-.45-.483-.865a3.574,3.574,0,0,0,1.371-2.574,4.145,4.145,0,0,0,0-.528,3.573,3.573,0,0,0-.461-1.776,1.652,1.652,0,0,0-.618-.6H349.8a.606.606,0,0,1-.146,0,.786.786,0,0,0-.506.079,1.551,1.551,0,0,0-.674.618,3.248,3.248,0,0,0-.427,1.023,4.562,4.562,0,0,0-.146.562v.135a.561.561,0,0,0,0,.191s0,.09,0,.124l-1.045.09a6.014,6.014,0,0,1,.416-1.877,3,3,0,0,1,2.248-2.012,2.169,2.169,0,0,1,2.135,1.338A4.394,4.394,0,0,1,352.109,190.64Z" transform="translate(-15.546 -116.681)" fill="#a6a6a6"/>
          <path id="Trazado_10833" data-name="Trazado 10833" d="M200.271,229.752c19.107,53.22,39.766,66.246,52.051,66.988,27.2,1.641,72.3-15.814,84.039-23.6,5.114-3.372-17.646-44.3-24.143-45.24s-51.118,25.851-55.8,24.39c-1.922-.607-18.624-14.522-34.427-31.786C204.958,201.889,190.448,202.417,200.271,229.752Z" transform="translate(-34.113 -114.15)" fill="#d3766a"/>
          <path id="Trazado_10834" data-name="Trazado 10834" d="M360.237,221.984c2.641,4.822-1.293,8.935-1.293,8.935a11.735,11.735,0,0,1,5.2,6.036c1.517,4.6-5.024,8.992-5.024,8.992a14.489,14.489,0,0,1,4.5,7.25c1,4.5-4.968,9.9-4.968,9.9a12.667,12.667,0,0,1-.068,8.857c-3.214,7.486-15.511,9.385-23.311,10.678s-31.145-2.36-35.663-2.608L290.9,230.02s33.348-15.735,42.711-15.949C341.591,213.858,357.259,216.578,360.237,221.984Z" transform="translate(-22.483 -113.362)" fill="#d3766a"/>
          <path id="Trazado_10835" data-name="Trazado 10835" d="M353.835,228.53c-8.464-1.832-16.994-1.056-25.559-.764a.146.146,0,1,0,0,.292c8.519-.382,16.994.922,25.5.877a.2.2,0,0,0,.056-.4Z" transform="translate(-17.868 -111.714)" fill="#263238"/>
          <path id="Trazado_10836" data-name="Trazado 10836" d="M354.084,241.877a22.545,22.545,0,0,0-5.9.079q-3.125.27-6.238.629c-4.159.495-8.295,1.068-12.42,1.776-.191,0-.191.315,0,.292,4.136-.472,8.284-.888,12.453-1.191q3.113-.236,6.238-.4a27.034,27.034,0,0,0,5.878-.607.3.3,0,0,0-.011-.573Z" transform="translate(-17.713 -109.933)" fill="#263238"/>
          <path id="Trazado_10837" data-name="Trazado 10837" d="M353.48,257.695c-1.664-.371-3.642.135-5.305.36-1.888.27-3.788.517-5.676.753-3.776.483-7.564.955-11.363,1.3-.191,0-.18.315,0,.3,3.867-.337,7.722-.618,11.588-.989,1.888-.18,3.788-.371,5.676-.573a14.678,14.678,0,0,0,5.091-.966.1.1,0,0,0-.011-.191Z" transform="translate(-17.513 -107.969)" fill="#263238"/>
          <path id="Trazado_10838" data-name="Trazado 10838" d="M252.93,287.975c3.743-.472,7.441-1.045,11.138-1.686s7.373-1.349,11.026-2.18,7.306-1.663,10.936-2.608,7.227-1.989,10.858-3c-1.742.719-3.484,1.416-5.26,2.057s-3.552,1.236-5.361,1.776c-3.585,1.124-7.25,2.057-10.925,2.877s-7.407,1.45-11.138,1.922A92.273,92.273,0,0,1,252.93,287.975Z" transform="translate(-27.19 -105.374)" fill="#263238"/>
          <path id="Trazado_10839" data-name="Trazado 10839" d="M248.23,246.761a4.586,4.586,0,0,0,1.832.933,4.72,4.72,0,0,0,1.978-.225c1.337-.36,2.675-.787,3.979-1.281s2.6-1.045,3.889-1.619,2.54-1.2,3.833-1.81a26.8,26.8,0,0,1-3.54,2.394,27.227,27.227,0,0,1-3.889,1.821,20.949,20.949,0,0,1-4.147,1.124,8.789,8.789,0,0,1-1.124.112,2.449,2.449,0,0,1-1.124-.124A4.136,4.136,0,0,1,248.23,246.761Z" transform="translate(-27.773 -109.804)" fill="#263238"/>
          <path id="Trazado_10840" data-name="Trazado 10840" d="M217.018,271.036l27.368-30.594s-13.285-13.87-26.537-25.6-26.66-11.689-19.31,13.105a202.044,202.044,0,0,0,18.478,43.093Z" transform="translate(-34.191 -114.208)" fill="#007bc7"/>
          <path id="Trazado_10841" data-name="Trazado 10841" d="M236.94,233.1c-4.417,3.889-8.542,8.171-12.6,12.42-2,2.1-3.99,4.226-5.923,6.373s-3.9,4.575-5.923,6.744c-.079.079,0,.191.124.112,2.113-2.124,4.361-4.114,6.5-6.216s4.091-4.114,6.1-6.216c4.069-4.249,8.149-8.553,11.835-13.15a.079.079,0,0,0-.112-.067Z" transform="translate(-32.207 -111.003)" fill="#263238"/>
          <path id="Trazado_10842" data-name="Trazado 10842" d="M218.246,266.257a17.27,17.27,0,0,0-1.484,1.562c-2.158-4.586-4.5-9.082-6.744-13.622-2.372-4.788-4.653-9.621-6.744-14.544-1.124-2.8-2.248-5.62-3.462-8.4-.056-.112-.236-.067-.2.056.832,2.664,1.765,5.294,2.765,7.868-.112-.169-.225-.326-.326-.495-.573-.888-1.124-1.787-1.686-2.709-.079-.135-.259,0-.2.124a21.179,21.179,0,0,0,2.147,3.687c.2.281.416.551.629.82h0c.764,1.922,1.551,3.844,2.36,5.743,2.113,4.912,4.327,9.767,6.856,14.477,1.461,2.7,4.361,8.261,4.294,8.1s1.787-2.473,1.8-2.608S218.313,266.246,218.246,266.257Z" transform="translate(-33.8 -111.238)" fill="#263238"/>
          <path id="Trazado_10843" data-name="Trazado 10843" d="M235.754,232.487c-.495-.472-1.506-1.416-2.686-2.5a2.685,2.685,0,0,0-.191-.36c-.146-.225-.3-.427-.45-.629a11.713,11.713,0,0,0-.955-1.124,15.15,15.15,0,0,0-2.046-2.113s-.067,0,0,0c.629.764,1.259,1.529,1.843,2.338.124.18.27.36.4.54-1.708-1.551-3.473-3.136-4.417-3.9-.09-.079-.2.056-.124.124,1.27,1.124,13.375,13.184,13.386,13.308a6.266,6.266,0,0,1-.8,1.068c-.124.146-.09.4.169.169a13.892,13.892,0,0,0,1.338-1.281C241.306,237.814,237.1,233.8,235.754,232.487Z" transform="translate(-30.391 -112.041)" fill="#263238"/>
        </g>
        <g id="freepik--Backpack--inject-65" transform="translate(576.628 296.687)">
          <path id="Trazado_10844" data-name="Trazado 10844" d="M294.135,292.648c9.115-8.171,39.1-16.6,45.97-14.668s61.762,43.014,75.755,75.306c3.237,7.474,7.508,57.558,4.249,60.8s-75.013,9.3-80,9.936-5.451-60.514-8.2-68.494S285.065,300.842,294.135,292.648Z" transform="translate(-281.772 -243.454)" fill="#37474f"/>
          <path id="Trazado_10845" data-name="Trazado 10845" d="M341.322,359.524c-3.012-10.453-45.487-49.679-45.251-64.774,0-2.046,5.732-5.4,7.474-6.126,3.574-1.506,7.216-2.877,10.891-4.1s7.418-2.248,11.172-3.293c1.877-.495,3.765-.922,5.62-1.326A53.355,53.355,0,0,1,337,278.879a20.226,20.226,0,0,1,3.372-.068,11.241,11.241,0,0,1,3,.483c1.956.708,4.327,2.641,6.114,3.687.1.067.225-.09.124-.169-2.754-2.248-6.9-5.328-10.565-5.552a24.212,24.212,0,0,0-5.968.618c-1.989.382-3.979.82-5.946,1.293a136.153,136.153,0,0,0-23.311,7.8,49.448,49.448,0,0,0-5.755,3.181c-6.081,3.675-17.1,18.163-14.735,23.524,3.068,6.98,30.718,38.473,31.111,49.994,0,0-8.834,5.373-10.374,8.441s-9.79,44.554-7.294,48.387,55.411,5.159,55.411,5.159Z" transform="translate(-283 -243.509)" fill="#455a64"/>
          <path id="Trazado_10846" data-name="Trazado 10846" d="M347.758,283.191c-1.663-1.506-5.935-4.361-7.868-4.811a14.173,14.173,0,0,0-4.057-.337,114.03,114.03,0,0,0-14.477,3.372c-4.5,1.259-25.447,8.239-26.717,12.442-1.124,2.675,3.316,11.9,4.26,13.488,2.8,4.574,6.024,8.924,9.25,13.2s6.744,8.6,10.273,12.746,7.092,7.98,10.7,11.925c1.855,2.034,3.675,4.057,5.429,6.193a33.621,33.621,0,0,1,4.811,6.9c.135.3.663.068.539-.247a33.585,33.585,0,0,0-7.531-12.442c-3.3-3.968-6.946-7.654-10.34-11.543-7.081-8.1-13.847-16.545-20.141-25.278-2.057-2.844-6.676-11.667-5.328-14.994,1.236-3.057,19.5-9.542,23.6-10.734,4.428-1.293,8.891-2.54,13.386-3.563a17.983,17.983,0,0,1,3.866-.607c3.035,0,8.182,3.1,10.116,4.687C347.668,283.708,347.972,283.382,347.758,283.191Z" transform="translate(-281.579 -243.415)" fill="#263238"/>
          <path id="Trazado_10847" data-name="Trazado 10847" d="M342.838,426.964c-2.832-1.731-3.316-32.921-7.868-65.549-2.439-17.331,7.868-87.253,13.488-92.435,8.677-8.025,62.942-9.61,69.416-2.248s29.763,142.282,23.244,151.106S347.087,429.549,342.838,426.964Z" transform="translate(-276.603 -245.401)" fill="#455a64"/>
          <path id="Trazado_10848" data-name="Trazado 10848" d="M347.615,269.282a56.949,56.949,0,0,0-3.113,7.98c-.809,2.754-1.495,5.541-2.248,8.328-1.416,5.732-2.754,11.509-3.709,17.343q-2.9,17.815-4.08,35.821-.32,5.058-.393,10.116v4.957a23.11,23.11,0,0,0,.36,4.99c0,.09.146.068.169,0a22.043,22.043,0,0,0,.573-4.316q.2-2.248.371-4.417c.236-2.99.483-5.98.719-8.992q.742-8.879,1.731-17.736t2.372-17.669c.91-5.845,1.731-11.7,2.765-17.534A137.68,137.68,0,0,1,348,269.484.216.216,0,0,0,347.615,269.282Z" transform="translate(-276.671 -244.511)" fill="#263238"/>
          <path id="Trazado_10849" data-name="Trazado 10849" d="M336.185,347.33l-3.5.495-.719,9.059,6.856-.528Zm-.9,8.115c-1.057.067-1.956-.337-2-.933s.775-1.124,1.843-1.2,1.956.326,2,.91S336.365,355.355,335.286,355.445Z" transform="translate(-276.929 -234.823)" fill="#263238"/>
          <path id="Trazado_10850" data-name="Trazado 10850" d="M438.552,417.781c-4.5,6.069-61.166,11.656-74.957,9.97-5.519-11.015-7.587-63.155-8.272-69.483-1.81-16.792,5.17-83.072,7.16-86.849s14.3-9.082,25.48-9.419c12.982,0,24.547,1.54,27.346,4.676C421.839,273.97,445.071,408.958,438.552,417.781Z" transform="translate(-274.071 -245.4)" fill="#37474f"/>
          <path id="Trazado_10851" data-name="Trazado 10851" d="M414.71,275c-6.744,0-13.42,0-20.13.27s-13.409.641-20.108,1.124c-3.81.247-7.643.495-11.442.933a.09.09,0,1,0,0,.18c6.744,0,13.42-.3,20.119-.573s13.409-.461,20.108-.91c3.821-.27,7.632-.573,11.453-.82C414.867,275.169,414.867,275,414.71,275Z" transform="translate(-273.09 -243.789)" fill="#263238"/>
          <path id="Trazado_10852" data-name="Trazado 10852" d="M418.292,291.39c-3.833,0-7.665.146-11.487.27s-7.486.169-11.24.292q-11.363.36-22.7.989c-4.294.236-8.6.539-12.892.663a.09.09,0,0,0,0,.18c3.833-.09,7.677,0,11.509,0s7.474-.09,11.24-.2c7.576-.214,15.129-.6,22.7-1.034,4.294-.258,8.6-.472,12.881-.91a.124.124,0,1,0-.011-.247Z" transform="translate(-273.469 -241.757)" fill="#263238"/>
          <path id="Trazado_10853" data-name="Trazado 10853" d="M421.393,306c-15.848,1.349-31.7,2.574-47.521,4.046l-6.676.629c-2.248.214-4.5.517-6.676.731-.112,0-.112.18,0,.169,2.046-.067,4.091-.056,6.137-.146s3.9-.169,5.845-.281c3.945-.214,7.868-.495,11.824-.809,7.935-.652,15.87-1.3,23.761-2.338,4.44-.6,8.879-1.124,13.308-1.776C421.528,306.247,421.528,306,421.393,306Z" transform="translate(-273.401 -239.946)" fill="#263238"/>
          <path id="Trazado_10854" data-name="Trazado 10854" d="M427.55,326.3c-4.574.191-9.149.584-13.724.865s-8.992.686-13.42,1.124c-8.992.8-17.9,1.7-26.851,2.63-5.125.528-10.262,1.068-15.376,1.652-.112,0-.112.191,0,.18,17.984-1.124,36.034-2.6,53.95-4.44,2.518-.258,5.035-.607,7.553-.877s5.226-.551,7.868-.9C427.674,326.469,427.674,326.3,427.55,326.3Z" transform="translate(-273.691 -237.429)" fill="#263238"/>
          <path id="Trazado_10855" data-name="Trazado 10855" d="M429.025,343.92c-9.273.922-18.568,1.854-27.818,2.922s-18.646,2.248-27.942,3.563c-5.237.731-10.464,1.607-15.735,2.248-.112,0-.112.191,0,.18,4.631-.539,9.273-.91,13.915-1.394s9.273-1,13.9-1.54q13.993-1.686,27.942-3.675c5.226-.753,10.475-1.439,15.736-2.248C429.1,344.01,429.1,343.909,429.025,343.92Z" transform="translate(-273.771 -235.245)" fill="#263238"/>
          <path id="Trazado_10856" data-name="Trazado 10856" d="M433.584,363.16c-9.7.719-19.411,1.506-29.088,2.529s-19.377,2.169-29.032,3.484c-2.686.36-5.373.753-8.048,1.124l-4.159.618c-1.394.214-2.765.551-4.159.742-.112,0-.112.191,0,.18,1.2-.157,2.417-.169,3.619-.3l3.608-.382,7.351-.8q7.238-.787,14.454-1.63,14.533-1.686,29.043-3.473l16.421-2.012C433.663,363.261,433.663,363.16,433.584,363.16Z" transform="translate(-273.577 -232.86)" fill="#263238"/>
          <path id="Trazado_10857" data-name="Trazado 10857" d="M433.193,380.91c-4.619.618-9.25,1.281-13.87,1.877s-9.261,1.124-13.881,1.8q-13.791,2.045-27.571,4.293c-5.148.832-10.307,1.63-15.443,2.585-.124,0-.09.247,0,.225,9.273-1.012,18.512-2.383,27.751-3.675s18.388-2.675,27.56-4.215c5.159-.866,10.318-1.652,15.477-2.484C433.441,381.225,433.4,380.888,433.193,380.91Z" transform="translate(-273.164 -230.66)" fill="#263238"/>
          <path id="Trazado_10858" data-name="Trazado 10858" d="M379.69,270.316c-.2.472-7.53,1.023-7.53.483s3.754-14.611,5.114-16.342,13.42-7.868,15.735-7.171,11.24,6.047,11.329,7.789-.82,14.364-1.371,14.69-6.665.551-6.935.225,2.136-14.971,1.967-15.218-13.791-.3-14.173,0S379.96,269.653,379.69,270.316Z" transform="translate(-271.947 -247.231)" fill="#37474f"/>
          <path id="Trazado_10859" data-name="Trazado 10859" d="M383.449,253.94a22.374,22.374,0,0,0-1.045,3.439l-7.193.427c.214-.629.4-1.225.607-1.753a5.37,5.37,0,0,1,1.124-1.731C377.57,254.007,379.56,254.007,383.449,253.94Z" transform="translate(-271.569 -246.399)" fill="#263238"/>
          <path id="Trazado_10860" data-name="Trazado 10860" d="M401.475,256.26v.079a10.058,10.058,0,0,1-.09,1.6l-6.575-.854c.247-1.81.427-3.113.382-3.181,1.742,0,5.5.056,5.923.4A4.5,4.5,0,0,1,401.475,256.26Z" transform="translate(-269.139 -246.404)" fill="#263238"/>
          <path id="Trazado_10861" data-name="Trazado 10861" d="M367.325,269.129c-.776-1.63,9.127-2.945,13.263-2.248S408.5,318.887,408.5,352.3c0,33.719-8.463,72.642-10.273,74.294s-18.7,2.192-19.107,0,7.632-48.87,7.441-75.44C386.488,337.275,378.913,293.609,367.325,269.129Z" transform="translate(-272.552 -244.819)" fill="#263238"/>
          <path id="Trazado_10862" data-name="Trazado 10862" d="M397.006,267.146c-.764-1.63,7.081-1.54,11.24-.854s38.024,61.683,38.024,95.076c0,33.719-16.41,57.109-18.208,58.761s-15.039,4.586-15.409,2.394,13.667-33.078,13.993-59.638C426.813,342.743,408.549,291.67,397.006,267.146Z" transform="translate(-268.874 -244.926)" fill="#263238"/>
          <path id="Trazado_10863" data-name="Trazado 10863" d="M316.1,390.031c-.112-3.8-.427-7.587-.82-11.375s-.787-7.654-1.371-11.453c-.641-4.17-1.338-8.362-2.338-12.454h-.1c1.124,7.519,2.248,15,2.9,22.58.326,3.833.438,7.677.629,11.509s.292,7.508.3,11.24c0,4.271.135,8.587-.1,12.858,0,.112.169.1.169,0,.27-3.844.674-7.677.764-11.532S316.213,393.83,316.1,390.031Z" transform="translate(-279.471 -233.903)" fill="#263238"/>
          <path id="Trazado_10864" data-name="Trazado 10864" d="M358.117,352.874c-1.394.371-2.72.91-4.091,1.349s-2.754.832-4.136,1.191c-2.776.731-5.62,1.337-8.441,1.8a91.753,91.753,0,0,1-17.376,1.057q-2.394-.067-4.788-.3c-1.7-.169-3.372-.27-5.1-.584-.112,0-.157.146,0,.169,1.5.315,2.945.719,4.5.967s2.832.427,4.249.584a61.5,61.5,0,0,0,8.744.416,70.9,70.9,0,0,0,17.41-2.709c1.619-.461,3.226-1,4.811-1.6a29.878,29.878,0,0,0,4.5-1.922.248.248,0,1,0-.27-.416Z" transform="translate(-279.147 -234.14)" fill="#263238"/>
        </g>
        <text id="_" data-name="+ + + + + + +" transform="translate(712.645 224.648)" fill="#505e70" font-size="44" font-family="Nunito-Bold, Nunito" font-weight="700" opacity="0.2"><tspan x="0" y="0">+ + + + + + +</tspan></text>
        <text id="_48" data-name="48" transform="translate(66.645 292.648)" fill="#505e70" font-size="290" font-family="Nunito-Bold, Nunito" font-weight="700" opacity="0.07"><tspan x="0" y="0">48</tspan></text>
      </g>
    </g>
  </g>
</svg>
