<svg xmlns="http://www.w3.org/2000/svg" width="712" height="267" viewBox="0 0 712 267"><defs><style>.a{fill:#f3f6f9;}.b{fill:#fcf5f5;stroke:#c93b3b;stroke-width:2px;}.c{fill:#c93b3b;}.d{fill:#fff;}.e,.h,.i,.n{fill:#38485c;}.e{font-size:16px;}.e,.i{font-family:OpenSans-Regular, Open Sans;}.f{text-decoration:underline;}.g,.j,.o{fill:none;}.i,.n{font-size:13px;}.j{stroke:#38485c;stroke-linecap:round;}.k{opacity:0.5;}.l,.m{fill:#fdefbf;}.m{stroke:#000;stroke-dasharray:5 2;}.n{font-family:OpenSans-SemiBold, Open Sans;font-weight:600;}.o{stroke-dasharray:5 3;}.p,.q{stroke:none;}</style></defs><g transform="translate(-513 -770)"><rect class="a" width="712" height="267" rx="4" transform="translate(513 770)"/><g transform="translate(11.326 -1.189)"><g transform="translate(530.674 865.042)"><g transform="translate(0)"><g class="b" transform="translate(0)"><rect class="p" width="659.233" height="53" rx="4"/><rect class="g" x="1" y="1" width="657.233" height="51" rx="3"/></g><path class="c" d="M4,0H6A0,0,0,0,1,6,0V53a0,0,0,0,1,0,0H4a4,4,0,0,1-4-4V4A4,4,0,0,1,4,0Z" transform="translate(0)"/></g><g transform="translate(24 16.956)"><path class="c" d="M9.808,0A9.7,9.7,0,0,0,0,9.56a9.7,9.7,0,0,0,9.808,9.56,9.7,9.7,0,0,0,9.808-9.56A9.7,9.7,0,0,0,9.808,0Zm0,0"/><path class="d" d="M162.934,161.619a.782.782,0,0,1,0,1.127.832.832,0,0,1-1.156,0l-2.456-2.394-2.456,2.394a.832.832,0,0,1-1.156,0,.782.782,0,0,1,0-1.127l2.456-2.394-2.456-2.394a.782.782,0,0,1,0-1.127.832.832,0,0,1,1.156,0l2.456,2.394,2.456-2.394a.832.832,0,0,1,1.156,0,.782.782,0,0,1,0,1.127l-2.456,2.394Zm0,0" transform="translate(-149.515 -149.665)"/></g><text class="e" transform="translate(58 16)"><tspan x="0" y="17">Lorem ipsum dolor sit amet, adipiscing elit. </tspan><tspan class="f" y="17">Consectetur</tspan></text><g transform="translate(615.618 16.956)"><path class="g" d="M9.808,0A9.7,9.7,0,0,0,0,9.56a9.7,9.7,0,0,0,9.808,9.56,9.7,9.7,0,0,0,9.808-9.56A9.7,9.7,0,0,0,9.808,0Zm0,0" transform="translate(0)"/><path class="h" d="M166.586,164.865a1.217,1.217,0,1,1-1.721,1.721l-3.658-3.658-3.658,3.658a1.217,1.217,0,0,1-1.721-1.721l3.658-3.658-3.658-3.658a1.217,1.217,0,1,1,1.721-1.721l3.658,3.658,3.658-3.658a1.217,1.217,0,1,1,1.721,1.721l-3.658,3.658Zm0,0" transform="translate(-151.477 -151.577)"/></g></g><text class="i" transform="translate(529.336 963.992)"><tspan x="0" y="0">Ancho fijo</tspan></text><g transform="translate(531.699 937.86)"><line class="j" x2="658.821" transform="translate(0 3.71)"/><line class="j" y1="3.71" x2="3.71" transform="translate(0)"/><line class="j" y1="3.71" x2="3.71" transform="translate(658.821 7.421) rotate(180)"/><line class="j" x2="3.71" y2="3.71" transform="translate(0 3.71)"/><path class="j" d="M0,0,3.71,3.71" transform="translate(658.821 3.71) rotate(180)"/></g><g class="k" transform="translate(530.235 865.999)"><rect class="l" width="22.65" height="50.018" transform="translate(0.101 0)"/><path class="m" d="M0,49.585V0" transform="translate(23.634 0.488)"/><path class="m" d="M0,49.585V0" transform="translate(0 0.488)"/></g><g class="k" transform="translate(1166.886 865.999)"><rect class="l" width="22.65" height="50.018" transform="translate(0.419 0)"/><path class="m" d="M0,49.585V0" transform="translate(23.634 0.488)"/><path class="m" d="M0,49.585V0" transform="translate(0 0.488)"/></g><g class="k" transform="translate(575.674 866.024)"><rect class="l" width="10.692" height="50.048" transform="translate(0)"/><path class="m" d="M0,49.585V0" transform="translate(11.023 0.463)"/><path class="m" d="M0,49.585V0" transform="translate(0 0.463)"/></g><g class="k" transform="translate(1136.603 866.024)"><rect class="l" width="14.941" height="50.048" transform="translate(0)"/><path class="m" d="M0,49.585V0" transform="translate(15.404 0.463)"/><path class="m" d="M0,49.585V0" transform="translate(0 0.463)"/></g><text class="n" transform="translate(553.674 855.462)"><tspan x="-30.101" y="0">24px</tspan></text><text class="n" transform="translate(1191.643 855.462)"><tspan x="-30.101" y="0">24px</tspan></text><text class="n" transform="translate(591.423 855.462)"><tspan x="-30.101" y="0">16px</tspan></text><text class="n" transform="translate(1157.335 855)"><tspan x="-30.101" y="0">16px</tspan></text><g class="o" transform="translate(586.698 880.853)"><path class="p" d="M0,0H549.906V20.39H0Z"/><path class="q" d="M 8 7.62939453125e-06 L 13 7.62939453125e-06 L 13 1.000007629394531 L 8 1.000007629394531 L 8 7.62939453125e-06 Z M 16 7.62939453125e-06 L 21 7.62939453125e-06 L 21 1.000007629394531 L 16 1.000007629394531 L 16 7.62939453125e-06 Z M 24 7.62939453125e-06 L 29 7.62939453125e-06 L 29 1.000007629394531 L 24 1.000007629394531 L 24 7.62939453125e-06 Z M 32 7.62939453125e-06 L 37 7.62939453125e-06 L 37 1.000007629394531 L 32 1.000007629394531 L 32 7.62939453125e-06 Z M 40 7.62939453125e-06 L 45 7.62939453125e-06 L 45 1.000007629394531 L 40 1.000007629394531 L 40 7.62939453125e-06 Z M 48 7.62939453125e-06 L 53 7.62939453125e-06 L 53 1.000007629394531 L 48 1.000007629394531 L 48 7.62939453125e-06 Z M 56 7.62939453125e-06 L 61 7.62939453125e-06 L 61 1.000007629394531 L 56 1.000007629394531 L 56 7.62939453125e-06 Z M 64 7.62939453125e-06 L 69 7.62939453125e-06 L 69 1.000007629394531 L 64 1.000007629394531 L 64 7.62939453125e-06 Z M 72 7.62939453125e-06 L 77 7.62939453125e-06 L 77 1.000007629394531 L 72 1.000007629394531 L 72 7.62939453125e-06 Z M 80 7.62939453125e-06 L 85 7.62939453125e-06 L 85 1.000007629394531 L 80 1.000007629394531 L 80 7.62939453125e-06 Z M 88 7.62939453125e-06 L 93 7.62939453125e-06 L 93 1.000007629394531 L 88 1.000007629394531 L 88 7.62939453125e-06 Z M 96 7.62939453125e-06 L 101 7.62939453125e-06 L 101 1.000007629394531 L 96 1.000007629394531 L 96 7.62939453125e-06 Z M 104 7.62939453125e-06 L 109 7.62939453125e-06 L 109 1.000007629394531 L 104 1.000007629394531 L 104 7.62939453125e-06 Z M 112 7.62939453125e-06 L 117 7.62939453125e-06 L 117 1.000007629394531 L 112 1.000007629394531 L 112 7.62939453125e-06 Z M 120 7.62939453125e-06 L 125 7.62939453125e-06 L 125 1.000007629394531 L 120 1.000007629394531 L 120 7.62939453125e-06 Z M 128 7.62939453125e-06 L 133 7.62939453125e-06 L 133 1.000007629394531 L 128 1.000007629394531 L 128 7.62939453125e-06 Z M 136 7.62939453125e-06 L 141 7.62939453125e-06 L 141 1.000007629394531 L 136 1.000007629394531 L 136 7.62939453125e-06 Z M 144 7.62939453125e-06 L 149 7.62939453125e-06 L 149 1.000007629394531 L 144 1.000007629394531 L 144 7.62939453125e-06 Z M 152 7.62939453125e-06 L 157 7.62939453125e-06 L 157 1.000007629394531 L 152 1.000007629394531 L 152 7.62939453125e-06 Z M 160 7.62939453125e-06 L 165 7.62939453125e-06 L 165 1.000007629394531 L 160 1.000007629394531 L 160 7.62939453125e-06 Z M 168 7.62939453125e-06 L 173 7.62939453125e-06 L 173 1.000007629394531 L 168 1.000007629394531 L 168 7.62939453125e-06 Z M 176 7.62939453125e-06 L 181 7.62939453125e-06 L 181 1.000007629394531 L 176 1.000007629394531 L 176 7.62939453125e-06 Z M 184 7.62939453125e-06 L 189 7.62939453125e-06 L 189 1.000007629394531 L 184 1.000007629394531 L 184 7.62939453125e-06 Z M 192 7.62939453125e-06 L 197 7.62939453125e-06 L 197 1.000007629394531 L 192 1.000007629394531 L 192 7.62939453125e-06 Z M 200 7.62939453125e-06 L 205 7.62939453125e-06 L 205 1.000007629394531 L 200 1.000007629394531 L 200 7.62939453125e-06 Z M 208 7.62939453125e-06 L 213 7.62939453125e-06 L 213 1.000007629394531 L 208 1.000007629394531 L 208 7.62939453125e-06 Z M 216 7.62939453125e-06 L 221 7.62939453125e-06 L 221 1.000007629394531 L 216 1.000007629394531 L 216 7.62939453125e-06 Z M 224 7.62939453125e-06 L 229 7.62939453125e-06 L 229 1.000007629394531 L 224 1.000007629394531 L 224 7.62939453125e-06 Z M 232 7.62939453125e-06 L 237 7.62939453125e-06 L 237 1.000007629394531 L 232 1.000007629394531 L 232 7.62939453125e-06 Z M 240 7.62939453125e-06 L 245 7.62939453125e-06 L 245 1.000007629394531 L 240 1.000007629394531 L 240 7.62939453125e-06 Z M 248 7.62939453125e-06 L 253 7.62939453125e-06 L 253 1.000007629394531 L 248 1.000007629394531 L 248 7.62939453125e-06 Z M 256 7.62939453125e-06 L 261 7.62939453125e-06 L 261 1.000007629394531 L 256 1.000007629394531 L 256 7.62939453125e-06 Z M 264 7.62939453125e-06 L 269 7.62939453125e-06 L 269 1.000007629394531 L 264 1.000007629394531 L 264 7.62939453125e-06 Z M 272 7.62939453125e-06 L 277 7.62939453125e-06 L 277 1.000007629394531 L 272 1.000007629394531 L 272 7.62939453125e-06 Z M 280 7.62939453125e-06 L 285 7.62939453125e-06 L 285 1.000007629394531 L 280 1.000007629394531 L 280 7.62939453125e-06 Z M 288 7.62939453125e-06 L 293 7.62939453125e-06 L 293 1.000007629394531 L 288 1.000007629394531 L 288 7.62939453125e-06 Z M 296 7.62939453125e-06 L 301 7.62939453125e-06 L 301 1.000007629394531 L 296 1.000007629394531 L 296 7.62939453125e-06 Z M 304 7.62939453125e-06 L 309 7.62939453125e-06 L 309 1.000007629394531 L 304 1.000007629394531 L 304 7.62939453125e-06 Z M 312 7.62939453125e-06 L 317 7.62939453125e-06 L 317 1.000007629394531 L 312 1.000007629394531 L 312 7.62939453125e-06 Z M 320 7.62939453125e-06 L 325 7.62939453125e-06 L 325 1.000007629394531 L 320 1.000007629394531 L 320 7.62939453125e-06 Z M 328 7.62939453125e-06 L 333 7.62939453125e-06 L 333 1.000007629394531 L 328 1.000007629394531 L 328 7.62939453125e-06 Z M 336 7.62939453125e-06 L 341 7.62939453125e-06 L 341 1.000007629394531 L 336 1.000007629394531 L 336 7.62939453125e-06 Z M 344 7.62939453125e-06 L 349 7.62939453125e-06 L 349 1.000007629394531 L 344 1.000007629394531 L 344 7.62939453125e-06 Z M 352 7.62939453125e-06 L 357 7.62939453125e-06 L 357 1.000007629394531 L 352 1.000007629394531 L 352 7.62939453125e-06 Z M 360 7.62939453125e-06 L 365 7.62939453125e-06 L 365 1.000007629394531 L 360 1.000007629394531 L 360 7.62939453125e-06 Z M 368 7.62939453125e-06 L 373 7.62939453125e-06 L 373 1.000007629394531 L 368 1.000007629394531 L 368 7.62939453125e-06 Z M 376 7.62939453125e-06 L 381 7.62939453125e-06 L 381 1.000007629394531 L 376 1.000007629394531 L 376 7.62939453125e-06 Z M 384 7.62939453125e-06 L 389 7.62939453125e-06 L 389 1.000007629394531 L 384 1.000007629394531 L 384 7.62939453125e-06 Z M 392 7.62939453125e-06 L 397 7.62939453125e-06 L 397 1.000007629394531 L 392 1.000007629394531 L 392 7.62939453125e-06 Z M 400 7.62939453125e-06 L 405 7.62939453125e-06 L 405 1.000007629394531 L 400 1.000007629394531 L 400 7.62939453125e-06 Z M 408 7.62939453125e-06 L 413 7.62939453125e-06 L 413 1.000007629394531 L 408 1.000007629394531 L 408 7.62939453125e-06 Z M 416 7.62939453125e-06 L 421 7.62939453125e-06 L 421 1.000007629394531 L 416 1.000007629394531 L 416 7.62939453125e-06 Z M 424 7.62939453125e-06 L 429 7.62939453125e-06 L 429 1.000007629394531 L 424 1.000007629394531 L 424 7.62939453125e-06 Z M 432 7.62939453125e-06 L 437 7.62939453125e-06 L 437 1.000007629394531 L 432 1.000007629394531 L 432 7.62939453125e-06 Z M 440 7.62939453125e-06 L 445 7.62939453125e-06 L 445 1.000007629394531 L 440 1.000007629394531 L 440 7.62939453125e-06 Z M 448 7.62939453125e-06 L 453 7.62939453125e-06 L 453 1.000007629394531 L 448 1.000007629394531 L 448 7.62939453125e-06 Z M 456 7.62939453125e-06 L 461 7.62939453125e-06 L 461 1.000007629394531 L 456 1.000007629394531 L 456 7.62939453125e-06 Z M 464 7.62939453125e-06 L 469 7.62939453125e-06 L 469 1.000007629394531 L 464 1.000007629394531 L 464 7.62939453125e-06 Z M 472 7.62939453125e-06 L 477 7.62939453125e-06 L 477 1.000007629394531 L 472 1.000007629394531 L 472 7.62939453125e-06 Z M 480 7.62939453125e-06 L 485 7.62939453125e-06 L 485 1.000007629394531 L 480 1.000007629394531 L 480 7.62939453125e-06 Z M 488 7.62939453125e-06 L 493 7.62939453125e-06 L 493 1.000007629394531 L 488 1.000007629394531 L 488 7.62939453125e-06 Z M 496 7.62939453125e-06 L 501 7.62939453125e-06 L 501 1.000007629394531 L 496 1.000007629394531 L 496 7.62939453125e-06 Z M 504 7.62939453125e-06 L 509 7.62939453125e-06 L 509 1.000007629394531 L 504 1.000007629394531 L 504 7.62939453125e-06 Z M 512 7.62939453125e-06 L 517 7.62939453125e-06 L 517 1.000007629394531 L 512 1.000007629394531 L 512 7.62939453125e-06 Z M 520 7.62939453125e-06 L 525 7.62939453125e-06 L 525 1.000007629394531 L 520 1.000007629394531 L 520 7.62939453125e-06 Z M 528 7.62939453125e-06 L 533 7.62939453125e-06 L 533 1.000007629394531 L 528 1.000007629394531 L 528 7.62939453125e-06 Z M 536 7.62939453125e-06 L 541 7.62939453125e-06 L 541 1.000007629394531 L 536 1.000007629394531 L 536 7.62939453125e-06 Z M 544 7.62939453125e-06 L 549 7.62939453125e-06 L 549 1.000007629394531 L 544 1.000007629394531 L 544 7.62939453125e-06 Z M 548.9058837890625 2.094150543212891 L 549.9058837890625 2.094150543212891 C 549.9058837890625 2.094150543212891 549.9058837890625 7.094151496887207 549.9058837890625 7.094151496887207 L 548.9058837890625 7.094151496887207 L 548.9058837890625 2.094150543212891 Z M 548.9058837890625 10.09415149688721 L 549.9058837890625 10.09415149688721 C 549.9058837890625 10.09415149688721 549.9058837890625 15.09415054321289 549.9058837890625 15.09415054321289 L 548.9058837890625 15.09415054321289 L 548.9058837890625 10.09415149688721 Z M 548.9058837890625 18.09415054321289 L 549.9058837890625 18.09415054321289 C 549.9058837890625 18.09415054321289 549.9058837890625 20.3900089263916 549.9058837890625 20.3900089263916 L 548.9058837890625 20.3900089263916 L 548.9058837890625 20.3900089263916 L 548.9058837890625 20.3900089263916 L 548.9058837890625 20.3900089263916 L 548.9058837890625 20.3900089263916 C 548.1356811523438 20.3900089263916 547.2017211914062 20.3900089263916 547.2017211914062 20.3900089263916 L 547.2017211914062 19.3900089263916 L 548.9058837890625 19.3900089263916 L 548.9058837890625 18.09415054321289 Z M 539.2017211914062 19.3900089263916 L 544.2017211914062 19.3900089263916 L 544.2017211914062 20.3900089263916 C 544.2017211914062 20.3900089263916 539.2017211914062 20.3900089263916 539.2017211914062 20.3900089263916 L 539.2017211914062 19.3900089263916 Z M 531.2017211914062 19.3900089263916 L 536.2017211914062 19.3900089263916 L 536.2017211914062 20.3900089263916 C 536.2017211914062 20.3900089263916 531.2017211914062 20.3900089263916 531.2017211914062 20.3900089263916 L 531.2017211914062 19.3900089263916 Z M 523.2017211914062 19.3900089263916 L 528.2017211914062 19.3900089263916 L 528.2017211914062 20.3900089263916 C 528.2017211914062 20.3900089263916 523.2017211914062 20.3900089263916 523.2017211914062 20.3900089263916 L 523.2017211914062 19.3900089263916 Z M 515.2017211914062 19.3900089263916 L 520.2017211914062 19.3900089263916 L 520.2017211914062 20.3900089263916 C 520.2017211914062 20.3900089263916 515.2017211914062 20.3900089263916 515.2017211914062 20.3900089263916 L 515.2017211914062 19.3900089263916 Z M 507.2017211914062 19.3900089263916 L 512.2017211914062 19.3900089263916 L 512.2017211914062 20.3900089263916 C 512.2017211914062 20.3900089263916 507.2017211914062 20.3900089263916 507.2017211914062 20.3900089263916 L 507.2017211914062 19.3900089263916 Z M 499.2017211914062 19.3900089263916 L 504.2017211914062 19.3900089263916 L 504.2017211914062 20.3900089263916 C 504.2017211914062 20.3900089263916 499.2017211914062 20.3900089263916 499.2017211914062 20.3900089263916 L 499.2017211914062 19.3900089263916 Z M 491.2017211914062 19.3900089263916 L 496.2017211914062 19.3900089263916 L 496.2017211914062 20.3900089263916 C 496.2017211914062 20.3900089263916 491.2017211914062 20.3900089263916 491.2017211914062 20.3900089263916 L 491.2017211914062 19.3900089263916 Z M 483.2017211914062 19.3900089263916 L 488.2017211914062 19.3900089263916 L 488.2017211914062 20.3900089263916 C 488.2017211914062 20.3900089263916 483.2017211914062 20.3900089263916 483.2017211914062 20.3900089263916 L 483.2017211914062 19.3900089263916 Z M 475.2017211914062 19.3900089263916 L 480.2017211914062 19.3900089263916 L 480.2017211914062 20.3900089263916 C 480.2017211914062 20.3900089263916 475.2017211914062 20.3900089263916 475.2017211914062 20.3900089263916 L 475.2017211914062 19.3900089263916 Z M 467.2017211914062 19.3900089263916 L 472.2017211914062 19.3900089263916 L 472.2017211914062 20.3900089263916 C 472.2017211914062 20.3900089263916 467.2017211914062 20.3900089263916 467.2017211914062 20.3900089263916 L 467.2017211914062 19.3900089263916 Z M 459.2017211914062 19.3900089263916 L 464.2017211914062 19.3900089263916 L 464.2017211914062 20.3900089263916 C 464.2017211914062 20.3900089263916 459.2017211914062 20.3900089263916 459.2017211914062 20.3900089263916 L 459.2017211914062 19.3900089263916 Z M 451.2017211914062 19.3900089263916 L 456.2017211914062 19.3900089263916 L 456.2017211914062 20.3900089263916 C 456.2017211914062 20.3900089263916 451.2017211914062 20.3900089263916 451.2017211914062 20.3900089263916 L 451.2017211914062 19.3900089263916 Z M 443.2017211914062 19.3900089263916 L 448.2017211914062 19.3900089263916 L 448.2017211914062 20.3900089263916 C 448.2017211914062 20.3900089263916 443.2017211914062 20.3900089263916 443.2017211914062 20.3900089263916 L 443.2017211914062 19.3900089263916 Z M 435.2017211914062 19.3900089263916 L 440.2017211914062 19.3900089263916 L 440.2017211914062 20.3900089263916 C 440.2017211914062 20.3900089263916 435.2017211914062 20.3900089263916 435.2017211914062 20.3900089263916 L 435.2017211914062 19.3900089263916 Z M 427.2017211914062 19.3900089263916 L 432.2017211914062 19.3900089263916 L 432.2017211914062 20.3900089263916 C 432.2017211914062 20.3900089263916 427.2017211914062 20.3900089263916 427.2017211914062 20.3900089263916 L 427.2017211914062 19.3900089263916 Z M 419.2017211914062 19.3900089263916 L 424.2017211914062 19.3900089263916 L 424.2017211914062 20.3900089263916 C 424.2017211914062 20.3900089263916 419.2017211914062 20.3900089263916 419.2017211914062 20.3900089263916 L 419.2017211914062 19.3900089263916 Z M 411.2017211914062 19.3900089263916 L 416.2017211914062 19.3900089263916 L 416.2017211914062 20.3900089263916 C 416.2017211914062 20.3900089263916 411.2017211914062 20.3900089263916 411.2017211914062 20.3900089263916 L 411.2017211914062 19.3900089263916 Z M 403.2017211914062 19.3900089263916 L 408.2017211914062 19.3900089263916 L 408.2017211914062 20.3900089263916 C 408.2017211914062 20.3900089263916 403.2017211914062 20.3900089263916 403.2017211914062 20.3900089263916 L 403.2017211914062 19.3900089263916 Z M 395.2017211914062 19.3900089263916 L 400.2017211914062 19.3900089263916 L 400.2017211914062 20.3900089263916 C 400.2017211914062 20.3900089263916 395.2017211914062 20.3900089263916 395.2017211914062 20.3900089263916 L 395.2017211914062 19.3900089263916 Z M 387.2017211914062 19.3900089263916 L 392.2017211914062 19.3900089263916 L 392.2017211914062 20.3900089263916 C 392.2017211914062 20.3900089263916 387.2017211914062 20.3900089263916 387.2017211914062 20.3900089263916 L 387.2017211914062 19.3900089263916 Z M 379.2017211914062 19.3900089263916 L 384.2017211914062 19.3900089263916 L 384.2017211914062 20.3900089263916 C 384.2017211914062 20.3900089263916 379.2017211914062 20.3900089263916 379.2017211914062 20.3900089263916 L 379.2017211914062 19.3900089263916 Z M 371.2017211914062 19.3900089263916 L 376.2017211914062 19.3900089263916 L 376.2017211914062 20.3900089263916 C 376.2017211914062 20.3900089263916 371.2017211914062 20.3900089263916 371.2017211914062 20.3900089263916 L 371.2017211914062 19.3900089263916 Z M 363.2017211914062 19.3900089263916 L 368.2017211914062 19.3900089263916 L 368.2017211914062 20.3900089263916 C 368.2017211914062 20.3900089263916 363.2017211914062 20.3900089263916 363.2017211914062 20.3900089263916 L 363.2017211914062 19.3900089263916 Z M 355.2017211914062 19.3900089263916 L 360.2017211914062 19.3900089263916 L 360.2017211914062 20.3900089263916 C 360.2017211914062 20.3900089263916 355.2017211914062 20.3900089263916 355.2017211914062 20.3900089263916 L 355.2017211914062 19.3900089263916 Z M 347.2017211914062 19.3900089263916 L 352.2017211914062 19.3900089263916 L 352.2017211914062 20.3900089263916 C 352.2017211914062 20.3900089263916 347.2017211914062 20.3900089263916 347.2017211914062 20.3900089263916 L 347.2017211914062 19.3900089263916 Z M 339.2017211914062 19.3900089263916 L 344.2017211914062 19.3900089263916 L 344.2017211914062 20.3900089263916 C 344.2017211914062 20.3900089263916 339.2017211914062 20.3900089263916 339.2017211914062 20.3900089263916 L 339.2017211914062 19.3900089263916 Z M 331.2017211914062 19.3900089263916 L 336.2017211914062 19.3900089263916 L 336.2017211914062 20.3900089263916 C 336.2017211914062 20.3900089263916 331.2017211914062 20.3900089263916 331.2017211914062 20.3900089263916 L 331.2017211914062 19.3900089263916 Z M 323.2017211914062 19.3900089263916 L 328.2017211914062 19.3900089263916 L 328.2017211914062 20.3900089263916 C 328.2017211914062 20.3900089263916 323.2017211914062 20.3900089263916 323.2017211914062 20.3900089263916 L 323.2017211914062 19.3900089263916 Z M 315.2017211914062 19.3900089263916 L 320.2017211914062 19.3900089263916 L 320.2017211914062 20.3900089263916 C 320.2017211914062 20.3900089263916 315.2017211914062 20.3900089263916 315.2017211914062 20.3900089263916 L 315.2017211914062 19.3900089263916 Z M 307.2017211914062 19.3900089263916 L 312.2017211914062 19.3900089263916 L 312.2017211914062 20.3900089263916 C 312.2017211914062 20.3900089263916 307.2017211914062 20.3900089263916 307.2017211914062 20.3900089263916 L 307.2017211914062 19.3900089263916 Z M 299.2017211914062 19.3900089263916 L 304.2017211914062 19.3900089263916 L 304.2017211914062 20.3900089263916 C 304.2017211914062 20.3900089263916 299.2017211914062 20.3900089263916 299.2017211914062 20.3900089263916 L 299.2017211914062 19.3900089263916 Z M 291.2017211914062 19.3900089263916 L 296.2017211914062 19.3900089263916 L 296.2017211914062 20.3900089263916 C 296.2017211914062 20.3900089263916 291.2017211914062 20.3900089263916 291.2017211914062 20.3900089263916 L 291.2017211914062 19.3900089263916 Z M 283.2017211914062 19.3900089263916 L 288.2017211914062 19.3900089263916 L 288.2017211914062 20.3900089263916 C 288.2017211914062 20.3900089263916 283.2017211914062 20.3900089263916 283.2017211914062 20.3900089263916 L 283.2017211914062 19.3900089263916 Z M 275.2017211914062 19.3900089263916 L 280.2017211914062 19.3900089263916 L 280.2017211914062 20.3900089263916 C 280.2017211914062 20.3900089263916 275.2017211914062 20.3900089263916 275.2017211914062 20.3900089263916 L 275.2017211914062 19.3900089263916 Z M 267.2017211914062 19.3900089263916 L 272.2017211914062 19.3900089263916 L 272.2017211914062 20.3900089263916 C 272.2017211914062 20.3900089263916 267.2017211914062 20.3900089263916 267.2017211914062 20.3900089263916 L 267.2017211914062 19.3900089263916 Z M 259.2017211914062 19.3900089263916 L 264.2017211914062 19.3900089263916 L 264.2017211914062 20.3900089263916 C 264.2017211914062 20.3900089263916 259.2017211914062 20.3900089263916 259.2017211914062 20.3900089263916 L 259.2017211914062 19.3900089263916 Z M 251.2017211914062 19.3900089263916 L 256.2017211914062 19.3900089263916 L 256.2017211914062 20.3900089263916 C 256.2017211914062 20.3900089263916 251.2017211914062 20.3900089263916 251.2017211914062 20.3900089263916 L 251.2017211914062 19.3900089263916 Z M 243.2017211914062 19.3900089263916 L 248.2017211914062 19.3900089263916 L 248.2017211914062 20.3900089263916 C 248.2017211914062 20.3900089263916 243.2017211914062 20.3900089263916 243.2017211914062 20.3900089263916 L 243.2017211914062 19.3900089263916 Z M 235.2017211914062 19.3900089263916 L 240.2017211914062 19.3900089263916 L 240.2017211914062 20.3900089263916 C 240.2017211914062 20.3900089263916 235.2017211914062 20.3900089263916 235.2017211914062 20.3900089263916 L 235.2017211914062 19.3900089263916 Z M 227.2017211914062 19.3900089263916 L 232.2017211914062 19.3900089263916 L 232.2017211914062 20.3900089263916 C 232.2017211914062 20.3900089263916 227.2017211914062 20.3900089263916 227.2017211914062 20.3900089263916 L 227.2017211914062 19.3900089263916 Z M 219.2017211914062 19.3900089263916 L 224.2017211914062 19.3900089263916 L 224.2017211914062 20.3900089263916 C 224.2017211914062 20.3900089263916 219.2017211914062 20.3900089263916 219.2017211914062 20.3900089263916 L 219.2017211914062 19.3900089263916 Z M 211.2017211914062 19.3900089263916 L 216.2017211914062 19.3900089263916 L 216.2017211914062 20.3900089263916 C 216.2017211914062 20.3900089263916 211.2017211914062 20.3900089263916 211.2017211914062 20.3900089263916 L 211.2017211914062 19.3900089263916 Z M 203.2017211914062 19.3900089263916 L 208.2017211914062 19.3900089263916 L 208.2017211914062 20.3900089263916 C 208.2017211914062 20.3900089263916 203.2017211914062 20.3900089263916 203.2017211914062 20.3900089263916 L 203.2017211914062 19.3900089263916 Z M 195.2017211914062 19.3900089263916 L 200.2017211914062 19.3900089263916 L 200.2017211914062 20.3900089263916 C 200.2017211914062 20.3900089263916 195.2017211914062 20.3900089263916 195.2017211914062 20.3900089263916 L 195.2017211914062 19.3900089263916 Z M 187.2017211914062 19.3900089263916 L 192.2017211914062 19.3900089263916 L 192.2017211914062 20.3900089263916 C 192.2017211914062 20.3900089263916 187.2017211914062 20.3900089263916 187.2017211914062 20.3900089263916 L 187.2017211914062 19.3900089263916 Z M 179.2017211914062 19.3900089263916 L 184.2017211914062 19.3900089263916 L 184.2017211914062 20.3900089263916 C 184.2017211914062 20.3900089263916 179.2017211914062 20.3900089263916 179.2017211914062 20.3900089263916 L 179.2017211914062 19.3900089263916 Z M 171.2017211914062 19.3900089263916 L 176.2017211914062 19.3900089263916 L 176.2017211914062 20.3900089263916 C 176.2017211914062 20.3900089263916 171.2017211914062 20.3900089263916 171.2017211914062 20.3900089263916 L 171.2017211914062 19.3900089263916 Z M 163.2017211914062 19.3900089263916 L 168.2017211914062 19.3900089263916 L 168.2017211914062 20.3900089263916 C 168.2017211914062 20.3900089263916 163.2017211914062 20.3900089263916 163.2017211914062 20.3900089263916 L 163.2017211914062 19.3900089263916 Z M 155.2017211914062 19.3900089263916 L 160.2017211914062 19.3900089263916 L 160.2017211914062 20.3900089263916 C 160.2017211914062 20.3900089263916 155.2017211914062 20.3900089263916 155.2017211914062 20.3900089263916 L 155.2017211914062 19.3900089263916 Z M 147.2017211914062 19.3900089263916 L 152.2017211914062 19.3900089263916 L 152.2017211914062 20.3900089263916 C 152.2017211914062 20.3900089263916 147.2017211914062 20.3900089263916 147.2017211914062 20.3900089263916 L 147.2017211914062 19.3900089263916 Z M 139.2017211914062 19.3900089263916 L 144.2017211914062 19.3900089263916 L 144.2017211914062 20.3900089263916 C 144.2017211914062 20.3900089263916 139.2017211914062 20.3900089263916 139.2017211914062 20.3900089263916 L 139.2017211914062 19.3900089263916 Z M 131.2017211914062 19.3900089263916 L 136.2017211914062 19.3900089263916 L 136.2017211914062 20.3900089263916 C 136.2017211914062 20.3900089263916 131.2017211914062 20.3900089263916 131.2017211914062 20.3900089263916 L 131.2017211914062 19.3900089263916 Z M 123.2017211914062 19.3900089263916 L 128.2017211914062 19.3900089263916 L 128.2017211914062 20.3900089263916 C 128.2017211914062 20.3900089263916 123.2017211914062 20.3900089263916 123.2017211914062 20.3900089263916 L 123.2017211914062 19.3900089263916 Z M 115.2017211914062 19.3900089263916 L 120.2017211914062 19.3900089263916 L 120.2017211914062 20.3900089263916 C 120.2017211914062 20.3900089263916 115.2017211914062 20.3900089263916 115.2017211914062 20.3900089263916 L 115.2017211914062 19.3900089263916 Z M 107.2017211914062 19.3900089263916 L 112.2017211914062 19.3900089263916 L 112.2017211914062 20.3900089263916 C 112.2017211914062 20.3900089263916 107.2017211914062 20.3900089263916 107.2017211914062 20.3900089263916 L 107.2017211914062 19.3900089263916 Z M 99.20172119140625 19.3900089263916 L 104.2017211914062 19.3900089263916 L 104.2017211914062 20.3900089263916 C 104.2017211914062 20.3900089263916 99.20172119140625 20.3900089263916 99.20172119140625 20.3900089263916 L 99.20172119140625 19.3900089263916 Z M 91.20172119140625 19.3900089263916 L 96.20172119140625 19.3900089263916 L 96.20172119140625 20.3900089263916 C 96.20172119140625 20.3900089263916 91.20172119140625 20.3900089263916 91.20172119140625 20.3900089263916 L 91.20172119140625 19.3900089263916 Z M 83.20172119140625 19.3900089263916 L 88.20172119140625 19.3900089263916 L 88.20172119140625 20.3900089263916 C 88.20172119140625 20.3900089263916 83.20172119140625 20.3900089263916 83.20172119140625 20.3900089263916 L 83.20172119140625 19.3900089263916 Z M 75.20172119140625 19.3900089263916 L 80.20172119140625 19.3900089263916 L 80.20172119140625 20.3900089263916 C 80.20172119140625 20.3900089263916 75.20172119140625 20.3900089263916 75.20172119140625 20.3900089263916 L 75.20172119140625 19.3900089263916 Z M 67.20172119140625 19.3900089263916 L 72.20172119140625 19.3900089263916 L 72.20172119140625 20.3900089263916 C 72.20172119140625 20.3900089263916 67.20172119140625 20.3900089263916 67.20172119140625 20.3900089263916 L 67.20172119140625 19.3900089263916 Z M 59.20172119140625 19.3900089263916 L 64.20172119140625 19.3900089263916 L 64.20172119140625 20.3900089263916 C 64.20172119140625 20.3900089263916 59.20172119140625 20.3900089263916 59.20172119140625 20.3900089263916 L 59.20172119140625 19.3900089263916 Z M 51.20172119140625 19.3900089263916 L 56.20172119140625 19.3900089263916 L 56.20172119140625 20.3900089263916 C 56.20172119140625 20.3900089263916 51.20172119140625 20.3900089263916 51.20172119140625 20.3900089263916 L 51.20172119140625 19.3900089263916 Z M 43.20172119140625 19.3900089263916 L 48.20172119140625 19.3900089263916 L 48.20172119140625 20.3900089263916 C 48.20172119140625 20.3900089263916 43.20172119140625 20.3900089263916 43.20172119140625 20.3900089263916 L 43.20172119140625 19.3900089263916 Z M 35.20172119140625 19.3900089263916 L 40.20172119140625 19.3900089263916 L 40.20172119140625 20.3900089263916 C 40.20172119140625 20.3900089263916 35.20172119140625 20.3900089263916 35.20172119140625 20.3900089263916 L 35.20172119140625 19.3900089263916 Z M 27.20172119140625 19.3900089263916 L 32.20172119140625 19.3900089263916 L 32.20172119140625 20.3900089263916 C 32.20172119140625 20.3900089263916 27.20172119140625 20.3900089263916 27.20172119140625 20.3900089263916 L 27.20172119140625 19.3900089263916 Z M 19.20172119140625 19.3900089263916 L 24.20172119140625 19.3900089263916 L 24.20172119140625 20.3900089263916 C 24.20172119140625 20.3900089263916 19.20172119140625 20.3900089263916 19.20172119140625 20.3900089263916 L 19.20172119140625 19.3900089263916 Z M 11.20172119140625 19.3900089263916 L 16.20172119140625 19.3900089263916 L 16.20172119140625 20.3900089263916 C 16.20172119140625 20.3900089263916 11.20172119140625 20.3900089263916 11.20172119140625 20.3900089263916 L 11.20172119140625 19.3900089263916 Z M 3.20172119140625 19.3900089263916 L 8.20172119140625 19.3900089263916 L 8.20172119140625 20.3900089263916 C 8.20172119140625 20.3900089263916 3.20172119140625 20.3900089263916 3.20172119140625 20.3900089263916 L 3.20172119140625 19.3900089263916 Z M 0 15.59172248840332 L 1 15.59172248840332 L 1 20.3900089263916 L 0.20172119140625 20.3900089263916 L 0.20172119140625 20.3900089263916 L 1 20.3900089263916 L 0.20172119140625 20.3900089263916 L 0.20172119140625 20.3900089263916 C 0.20172119140625 20.3900089263916 0 20.3900089263916 0 20.3900089263916 L 0 15.59172248840332 Z M 0 7.59172248840332 L 1 7.59172248840332 L 1 12.59172248840332 L 0 12.59172248840332 L 0 7.59172248840332 Z M 0 7.62939453125e-06 L 5 7.62939453125e-06 L 5 1.000007629394531 L 1 1.000007629394531 L 1 4.59172248840332 L 0 4.59172248840332 L 0 7.62939453125e-06 Z"/></g></g></g></svg>