<svg xmlns="http://www.w3.org/2000/svg" width="712" height="324" viewBox="0 0 712 324">
  <g id="Grupo_32378" data-name="Grupo 32378" transform="translate(-513 -2480)">
    <g id="Rectángulo_26438" data-name="Rectángulo 26438" transform="translate(513 2480)" fill="#fff" stroke="#38485c" stroke-width="2">
      <rect width="712" height="324" rx="8" stroke="none"/>
      <rect x="1" y="1" width="710" height="322" rx="7" fill="none"/>
    </g>
    <g id="Grupo_32367" data-name="Grupo 32367" transform="translate(18 28)">
      <g id="Grupo_18136" data-name="Grupo 18136" transform="translate(-400 -1399)">
        <path id="Trazado_4658" data-name="Trazado 4658" d="M16,0A16,16,0,1,0,32,16,16.018,16.018,0,0,0,16,0Zm0,0" transform="translate(1181 3997)" fill="#26874a"/>
        <path id="Trazado_4659" data-name="Trazado 4659" d="M156.6,167.6l-8.667,8.667a1.332,1.332,0,0,1-1.885,0l-4.333-4.333a1.333,1.333,0,0,1,1.885-1.885L147,173.443l7.724-7.724A1.333,1.333,0,0,1,156.6,167.6Zm0,0" transform="translate(1048.504 3842.005)" fill="#fafafa"/>
      </g>
      <g id="Grupo_32365" data-name="Grupo 32365" transform="translate(0 -398.893)">
        <rect id="Rectángulo_4834" data-name="Rectángulo 4834" width="175.786" height="18.893" transform="translate(593 2956.928)" fill="#e6ebf0"/>
        <rect id="Rectángulo_4836" data-name="Rectángulo 4836" width="175.786" height="18.893" transform="translate(593 2993.893)" fill="#e6ebf0"/>
        <rect id="Rectángulo_4842" data-name="Rectángulo 4842" width="175.786" height="32.857" transform="translate(593 3067.821)" fill="#e6ebf0"/>
        <rect id="Rectángulo_4838" data-name="Rectángulo 4838" width="83.786" height="18.893" transform="translate(593 3030.857)" fill="#e6ebf0"/>
        <rect id="Rectángulo_4840" data-name="Rectángulo 4840" width="83.786" height="18.893" transform="translate(685 3030.857)" fill="#e6ebf0"/>
        <rect id="Rectángulo_4835" data-name="Rectángulo 4835" width="49.286" height="4.929" transform="translate(593 2948.714)" fill="#e6ebf0"/>
        <rect id="Rectángulo_4837" data-name="Rectángulo 4837" width="49.286" height="4.929" transform="translate(593 2985.678)" fill="#e6ebf0"/>
        <rect id="Rectángulo_4843" data-name="Rectángulo 4843" width="49.286" height="4.929" transform="translate(593 3059.607)" fill="#e6ebf0"/>
        <rect id="Rectángulo_4839" data-name="Rectángulo 4839" width="49.286" height="4.929" transform="translate(593 3022.643)" fill="#e6ebf0"/>
        <rect id="Rectángulo_4841" data-name="Rectángulo 4841" width="49.286" height="4.929" transform="translate(685 3022.643)" fill="#e6ebf0"/>
        <g id="Botón_Primario" data-name="Botón Primario" transform="translate(593 2924.893)">
          <rect id="Rectángulo_3061" data-name="Rectángulo 3061" width="112.535" height="13.964" rx="1" fill="#ffdb2e"/>
        </g>
      </g>
    </g>
    <g id="Grupo_32368" data-name="Grupo 32368" transform="translate(-16 28)">
      <g id="Grupo_18137" data-name="Grupo 18137" transform="translate(-60 -1633)">
        <path id="Trazado_4660" data-name="Trazado 4660" d="M16,0A16,16,0,1,0,32,16,16.018,16.018,0,0,0,16,0Zm0,0" transform="translate(1181 4231)" fill="#c93b3b"/>
        <path id="Trazado_4661" data-name="Trazado 4661" d="M167.646,165.761a1.333,1.333,0,1,1-1.885,1.885l-4.007-4.007-4.007,4.007a1.333,1.333,0,0,1-1.886-1.885l4.007-4.007-4.007-4.007a1.333,1.333,0,0,1,1.886-1.885l4.007,4.007,4.007-4.007a1.333,1.333,0,0,1,1.885,1.885l-4.007,4.007Zm0,0" transform="translate(1035.246 4085.246)" fill="#fff"/>
      </g>
      <g id="Grupo_32366" data-name="Grupo 32366" transform="translate(0 -424.714)">
        <rect id="Rectángulo_4834-2" data-name="Rectángulo 4834" width="175.786" height="18.893" transform="translate(933 2956.928)" fill="#e6ebf0"/>
        <rect id="Rectángulo_4836-2" data-name="Rectángulo 4836" width="175.786" height="18.893" transform="translate(933 2993.893)" fill="#e6ebf0"/>
        <rect id="Rectángulo_4842-2" data-name="Rectángulo 4842" width="175.786" height="32.857" transform="translate(933 3095.821)" fill="#e6ebf0"/>
        <rect id="Rectángulo_4838-2" data-name="Rectángulo 4838" width="83.786" height="18.893" transform="translate(933 3058.857)" fill="#e6ebf0"/>
        <rect id="Rectángulo_4840-2" data-name="Rectángulo 4840" width="83.786" height="18.893" transform="translate(1025 3058.857)" fill="#e6ebf0"/>
        <rect id="Rectángulo_4835-2" data-name="Rectángulo 4835" width="49.286" height="4.929" transform="translate(933 2948.714)" fill="#e6ebf0"/>
        <rect id="Rectángulo_4837-2" data-name="Rectángulo 4837" width="49.286" height="4.929" transform="translate(933 2985.678)" fill="#e6ebf0"/>
        <rect id="Rectángulo_4843-2" data-name="Rectángulo 4843" width="49.286" height="4.929" transform="translate(933 3087.607)" fill="#e6ebf0"/>
        <rect id="Rectángulo_4839-2" data-name="Rectángulo 4839" width="49.286" height="4.929" transform="translate(933 3050.643)" fill="#e6ebf0"/>
        <rect id="Rectángulo_4841-2" data-name="Rectángulo 4841" width="49.286" height="4.929" transform="translate(1025 3050.643)" fill="#e6ebf0"/>
        <g id="Botón_Primario-2" data-name="Botón Primario" transform="translate(964.59 3021.5)">
          <rect id="Rectángulo_3061-2" data-name="Rectángulo 3061" width="112.535" height="13.964" rx="1" fill="#ffdb2e"/>
        </g>
      </g>
    </g>
  </g>
</svg>
