<svg xmlns="http://www.w3.org/2000/svg" xmlns:xlink="http://www.w3.org/1999/xlink" width="760" height="380" viewBox="0 0 760 380">
  <defs>
    <clipPath id="clip-path">
      <rect id="Rectángulo_17692" data-name="Rectángulo 17692" width="760" height="380" fill="#f3f6f9"/>
    </clipPath>
  </defs>
  <g id="Enmascarar_grupo_155" data-name="Enmascarar grupo 155" clip-path="url(#clip-path)">
    <g id="Grupo_19567" data-name="Grupo 19567">
      <rect id="Rectángulo_17691" data-name="Rectángulo 17691" width="760" height="380" fill="#f3f6f9"/>
      <g id="Add_to_Cart-cuate" data-name="Add to Cart-cuate" transform="translate(130 -130.73)">
        <g id="freepik--Shadow--inject-127">
          <ellipse id="Elipse_895" data-name="Elipse 895" cx="219.75" cy="27.51" rx="219.75" ry="27.51" transform="translate(30.25 416.71)" fill="#ebebeb"/>
        </g>
        <g id="freepik--Puff--inject-127">
          <path id="Trazado_28099" data-name="Trazado 28099" d="M70.29,450.51l146.77.63c35.68-28,39.36-69.51,13.91-94.67-15.4-15.21-35-12.14-53.59-14.56h0a54.919,54.919,0,0,1-18.89-5.55c-19.18-10.11-30-34-46.12-54.06-2-2.51-4.11-5-6.32-7.32-13.27-14.17-39.67-14.63-53.49,5.29C17.42,330.87,33.5,406.19,70.29,450.51Z" fill="#c7c7c7"/>
          <path id="Trazado_28100" data-name="Trazado 28100" d="M67,334.72c3.85,60.22,73.39,82.7,116.82,64.66,37.77-15.69,25.41-51.49-6.47-57.47h0a54.92,54.92,0,0,1-18.89-5.55c-19.18-10.11-30-34-46.12-54.06C88.28,269.81,64.21,290.63,67,334.72Z" fill="#dbdbdb"/>
        </g>
        <g id="freepik--Character--inject-127">
          <path id="Trazado_28101" data-name="Trazado 28101" d="M204.86,459.63c-2.27-.83-53.56-41.83-54.53-44.63-.38-1.06,5.16-8.88,12.11-18.13,1.51-2,3.07-4.06,4.67-6.14,10.37-13.5,21.68-27.59,21.68-27.59l34.39,27.32L200.56,417.3l-5,5.9s12.62,24.48,13.35,27.67S207.13,460.46,204.86,459.63Z" fill="#f7a9a0"/>
          <path id="Trazado_28102" data-name="Trazado 28102" d="M204.86,459.63c-2.27-.83-53.56-41.83-54.53-44.63-.45-1.29,7.81-12.56,16.78-24.27l33.45,26.57-5,5.9s12.62,24.48,13.35,27.67S207.13,460.46,204.86,459.63Z" fill="#fff"/>
          <path id="Trazado_28103" data-name="Trazado 28103" d="M204.86,459.63c-2.27-.83-53.56-41.83-54.53-44.63-.38-1.06,5.16-8.88,12.11-18.13l33.15,26.33s12.62,24.48,13.35,27.67S207.13,460.46,204.86,459.63Z" fill="#009afd"/>
          <path id="Trazado_28104" data-name="Trazado 28104" d="M205.77,457c-8.43-7.08-43.1-34.86-52-41.22-.08,0-.11,0-.05.06,8.2,7.2,43.1,34.69,51.9,41.3C205.84,457.27,205.94,457.14,205.77,457Z" fill="#263238"/>
          <path id="Trazado_28105" data-name="Trazado 28105" d="M207.12,446.38a8.87,8.87,0,0,0-6.82-2,8.6,8.6,0,0,0-5.59,3.06c0,.05,0,.13.1.08a10.22,10.22,0,0,1,12.22-1,.083.083,0,1,0,.09-.14Z" fill="#263238"/>
          <path id="Trazado_28106" data-name="Trazado 28106" d="M198.24,426.72c-3.4-2.8-8.36-4.77-12.75-3.67-.17.05-.1.29,0,.32A61.061,61.061,0,0,1,198,427.19a.27.27,0,0,0,.24-.47Z" fill="#263238"/>
          <path id="Trazado_28107" data-name="Trazado 28107" d="M200.07,429.88c-3.4-2.8-8.36-4.77-12.75-3.67-.17.05-.11.29,0,.32a61,61,0,0,1,12.43,3.82.284.284,0,0,0,.32-.47Z" fill="#263238"/>
          <path id="Trazado_28108" data-name="Trazado 28108" d="M201.9,433c-3.4-2.8-8.36-4.77-12.75-3.67-.17.05-.11.29,0,.32a61,61,0,0,1,12.43,3.82.284.284,0,1,0,.32-.47Z" fill="#263238"/>
          <path id="Trazado_28109" data-name="Trazado 28109" d="M203.73,436.2c-3.4-2.8-8.36-4.77-12.75-3.67-.17,0-.11.29,0,.31a61.633,61.633,0,0,1,12.43,3.83.284.284,0,1,0,.32-.47Z" fill="#263238"/>
          <path id="Trazado_28110" data-name="Trazado 28110" d="M162.51,409.36c-3.87-3.08-8.65,2.93-4.78,6S166.39,412.44,162.51,409.36Z" fill="#fff"/>
          <path id="Trazado_28111" data-name="Trazado 28111" d="M209.3,420.51c-.58-2.84-3.91-3.18-6.18-2.54a23.14,23.14,0,0,0-10.16,6.3.12.12,0,0,0,0,.19.53.53,0,0,0,.4.77c3.8.26,7.84,1,11.61.11C207.2,424.8,209.86,423.19,209.3,420.51Zm-10.06,3.94c-1.88-.08-3.74-.26-5.62-.27a67.359,67.359,0,0,1,6-3.55,25.674,25.674,0,0,1,3.11-1.32c1.66-.54,7.34-.72,4.69,3.3C206,424.83,201.47,424.55,199.24,424.45Z" fill="#263238"/>
          <path id="Trazado_28112" data-name="Trazado 28112" d="M183.39,418.72c2.63,2.85,6.4,4.47,9.71,6.36a.53.53,0,0,0,.76-.42c.07,0,.14,0,.13-.13a23.16,23.16,0,0,0-5-10.89c-1.53-1.8-4.48-3.36-6.55-1.33S181.85,417.05,183.39,418.72Zm-.51-3.62c0-4.82,4.65-1.51,5.73-.14a24.882,24.882,0,0,1,1.85,2.82,68.8,68.8,0,0,1,3,6.3c-1.57-1-3.21-1.92-4.82-2.9C186.76,420,182.86,417.75,182.88,415.1Z" fill="#263238"/>
          <path id="Trazado_28113" data-name="Trazado 28113" d="M257.92,337.92c-2.35,17.87-46.39,69.45-51.48,75.37l-1.16,1.34-36.42-28,.42-.54,32.07-42-95.68-.56L142,315.29s2.95,1.7,9.07.81c21.12-3.09,68.73-9.94,80-9.49C245.5,307.21,260.08,321.52,257.92,337.92Z" fill="#37474f"/>
          <path id="Trazado_28114" data-name="Trazado 28114" d="M212.87,328.49a42.658,42.658,0,0,0-3.31,4.24c-1.13,1.48-2.28,3-3.42,4.44v.05c.2-.44.4-.87.61-1.31.71-1.48,1.28-3,2.13-4.42.05-.09-.08-.17-.13-.08-.87,1.4-1.88,2.74-2.62,4.22-.35.69-.68,1.4-1,2.11-.17.39-.35.79-.5,1.19-.07.18-.15.37-.21.57-.5.69-1,1.38-1.49,2.09-1.08,1.56-2,3.22-3.13,4.77-.06.08.08.16.14.08,1.1-1.46,2.34-2.82,3.47-4.27s2.23-3,3.3-4.52,2.07-3,3.12-4.48a44.671,44.671,0,0,0,3.15-4.61.065.065,0,1,0-.11-.07Z" fill="#263238"/>
          <path id="Trazado_28115" data-name="Trazado 28115" d="M111,238.73c-7.59,6-15.1,45-18,49.34-2.07,3.05-4.67,6.1-4.55,7.82s7.4,10.18,21.17,12.84,27.34-3.91,28.72-5.64-2.25-7.67-2.11-13,4.9-34.59,2-43.31C134.88,236.89,119.71,231.89,111,238.73Z" fill="#263238"/>
          <path id="Trazado_28116" data-name="Trazado 28116" d="M139.29,301.43a25.56,25.56,0,0,1-2.07-11.05c.08-4.27.62-8.54,1.09-12.78q.75-6.71,1.49-13.42c.43-3.95,1-7.94.26-11.88a22,22,0,0,0-4.87-10.36s-.11,0-.07.05a23.61,23.61,0,0,1,4.53,10.35c.71,4.22,0,8.53-.45,12.76-.5,4.39-1,8.77-1.47,13.16-.44,4-.94,8.1-1,12.16,0,3.74.33,7.9,2.32,11.12C139.14,301.66,139.35,301.56,139.29,301.43Z" fill="#263238"/>
          <path id="Trazado_28117" data-name="Trazado 28117" d="M112.21,238.47c-3.52,1.91-5.24,5.69-6.65,9.32-1.9,4.93-3.65,9.93-5.29,15-1.7,5.19-3.1,10.47-4.77,15.67a54.8,54.8,0,0,1-7.16,14.18c-.07.1,0,.22.14.13,6.55-7.67,8.57-18,11.57-27.42q2.49-7.8,5.25-15.5c1.49-4.16,3-8.87,7-11.26C112.32,238.52,112.26,238.44,112.21,238.47Z" fill="#263238"/>
          <path id="Trazado_28118" data-name="Trazado 28118" d="M115.42,237.05c-7.36,2.88-10.27,11.12-12.64,18.15-2.82,8.35-4.85,16.95-7.34,25.4-1.39,4.77-2.65,9.95-5.75,13.91-.09.12.08.27.18.16,2.38-2.84,3.6-6.37,4.73-9.86,1.35-4.19,2.53-8.43,3.69-12.67,2.32-8.4,4.44-17.07,8.06-25,1.91-4.18,4.76-8.26,9.1-10C115.5,237.11,115.47,237,115.42,237.05Z" fill="#263238"/>
          <path id="Trazado_28119" data-name="Trazado 28119" d="M117.64,289.9c6.49,9.31,28.72,33.47,44.09,37,8.48,1.93,49.41,7.65,55,2.55,6.57-6,3.52-28.52-1.7-28.72-16-.63-45.45,2.49-52.82.87-3.33-.74-21-12.14-39.88-21.26C115.22,276.88,113.46,283.89,117.64,289.9Z" fill="#f7a9a0"/>
          <path id="Trazado_28120" data-name="Trazado 28120" d="M206.37,299.47l-2.74,33.74s-37.14-.59-48.35-6.89-29.46-22.38-36.44-33.56-4.65-17.27,9-10.39,32,17.9,34.44,18.48S206.37,299.47,206.37,299.47Z" fill="#009afd"/>
          <path id="Trazado_28121" data-name="Trazado 28121" d="M200.4,301.82a.08.08,0,1,0-.16,0c-.45,2.32-.65,4.7-.91,7s-.5,4.86-.72,7.29c-.44,4.85-1,9.73-1.1,14.59,0,.21.28.21.31,0,.73-4.77,1.11-9.63,1.57-14.44.22-2.39.44-4.77.61-7.16S200.43,304.25,200.4,301.82Z" fill="#263238"/>
          <path id="Trazado_28122" data-name="Trazado 28122" d="M84.39,351.55c2,.65,59.94-16.1,59.94-16.1l-6.84-20.11s3.38-6.46,1.81-12.68c-2.09-8.31-17.47-22-18.68-22.77-4.85-3.22-9.4-3.16-13.42-1C90.46,287.76,84.39,351.55,84.39,351.55Z" fill="#009afd"/>
          <path id="Trazado_28123" data-name="Trazado 28123" d="M128.57,287.13c1.49,1.73,3.09,3.38,4.63,5.08-.72-1.26-1.43-2.54-2.2-3.77h0a28.352,28.352,0,0,1,2.93,4.67,38,38,0,0,1,3.2,4.08,18.289,18.289,0,0,1,2.63,5.6A15.24,15.24,0,0,1,140,309a39.629,39.629,0,0,1-1.95,6.93c-.11.3-.53.11-.45-.18,1.09-3.93,2.32-8.07,1.45-12.17s-3.4-7.48-5.86-10.7a58.737,58.737,0,0,0-4.72-5.62C128.37,287.15,128.5,287.05,128.57,287.13Z" fill="#263238"/>
          <path id="Trazado_28124" data-name="Trazado 28124" d="M110.82,280c.23,1.05,5.13,7.92,9.92,7.76,1.55-.05,1.64-8.57,1.64-8.57l.15-.63,2.1-8.79-11.74-7.69S110.73,279.55,110.82,280Z" fill="#f7a9a0"/>
          <path id="Trazado_28125" data-name="Trazado 28125" d="M124.63,269.76l-2.1,8.79A18.16,18.16,0,0,1,112.16,268c.36-3,.67-5.55.71-5.92a.18.18,0,0,0,0-.05l1.49.9Z" fill="#263238"/>
          <path id="Trazado_28126" data-name="Trazado 28126" d="M138.35,259c-1,15.83-10.58,17-14,16.8-3.09-.19-13.62-1.26-14.27-17.11s7-20.38,14.14-20.3S139.34,243.14,138.35,259Z" fill="#f7a9a0"/>
          <path id="Trazado_28127" data-name="Trazado 28127" d="M136,257.44a9.025,9.025,0,0,1-1-.37,1.77,1.77,0,0,1-1-.57.58.58,0,0,1,.1-.69,1.42,1.42,0,0,1,1.41-.14,2.07,2.07,0,0,1,1.18.89.61.61,0,0,1-.69.88Z" fill="#263238"/>
          <path id="Trazado_28128" data-name="Trazado 28128" d="M125.63,256.09a9.806,9.806,0,0,0,1.09-.08,1.76,1.76,0,0,0,1.1-.3.55.55,0,0,0,.09-.68,1.39,1.39,0,0,0-1.32-.51,2.12,2.12,0,0,0-1.38.55.61.61,0,0,0,.42,1.02Z" fill="#263238"/>
          <path id="Trazado_28129" data-name="Trazado 28129" d="M127.55,258.74a.1.1,0,0,0-.1.09c-.08,1.08-.36,2.3-1.37,2.55v.06C127.29,261.4,127.64,259.78,127.55,258.74Z" fill="#263238"/>
          <path id="Trazado_28130" data-name="Trazado 28130" d="M126.71,257.52c-1.71-.32-2.23,3.12-.64,3.42S128.15,257.79,126.71,257.52Z" fill="#263238"/>
          <path id="Trazado_28131" data-name="Trazado 28131" d="M126,257.6c-.33.15-.68.45-1.05.43s-.69-.43-.91-.82h-.07c-.1.66,0,1.38.74,1.58s1.19-.33,1.45-1C126.22,257.74,126.14,257.54,126,257.6Z" fill="#263238"/>
          <path id="Trazado_28132" data-name="Trazado 28132" d="M133.45,259.36s.07.06.06.11c-.2,1.06-.25,2.31.66,2.81v.06C133,262,133.09,260.33,133.45,259.36Z" fill="#263238"/>
          <path id="Trazado_28133" data-name="Trazado 28133" d="M134.57,258.4c1.74.14,1.33,3.6-.27,3.47S133.12,258.28,134.57,258.4Z" fill="#263238"/>
          <path id="Trazado_28134" data-name="Trazado 28134" d="M135.27,258.71c.25.22.48.58.81.64s.7-.27,1-.6h.05c-.06.67-.36,1.33-1,1.38s-.95-.57-1-1.25C135.05,258.8,135.17,258.62,135.27,258.71Z" fill="#263238"/>
          <path id="Trazado_28135" data-name="Trazado 28135" d="M126.06,268c.2.3.39.69.77.79a2.67,2.67,0,0,0,1.19,0s.06,0,0,.06a1.45,1.45,0,0,1-1.46.32,1.16,1.16,0,0,1-.65-1.1.083.083,0,1,1,.15-.07Z" fill="#263238"/>
          <path id="Trazado_28136" data-name="Trazado 28136" d="M131.06,264.75s0,1.62-.1,2.38c0,.07-.2.08-.46.06h0a3.61,3.61,0,0,1-3.29-1.81.08.08,0,0,1,.12-.09,5.5,5.5,0,0,0,3.15,1.38c.08-.2-.1-2.78,0-2.78a7,7,0,0,1,1.66.63c.1-3.39-.35-6.77-.21-10.15a.11.11,0,0,1,.21,0,54.9,54.9,0,0,1,.68,10.92C132.82,265.69,131.34,264.92,131.06,264.75Z" fill="#263238"/>
          <path id="Trazado_28137" data-name="Trazado 28137" d="M110,259.51a6.57,6.57,0,0,0,4.71-4.45,17,17,0,0,0,8-4c-.18.3-1.42,2.45-2.09,3.53,10.26.27,14.93-6.63,14.93-6.63a17.51,17.51,0,0,1,3,7.18s1.37-6-.88-10.76a10,10,0,0,0-8.14-5.95,14.27,14.27,0,0,0-14.52,1.28C107,245.29,110,259.51,110,259.51Z" fill="#263238"/>
          <path id="Trazado_28138" data-name="Trazado 28138" d="M128.42,254.53a18.821,18.821,0,0,1-5.46.78h0a15.84,15.84,0,0,0,8.18-2.82,15.371,15.371,0,0,0,2.76-2.52,10.41,10.41,0,0,0,2.12-3.48.08.08,0,1,1,.15,0,12,12,0,0,1-1.62,3.72,11,11,0,0,1-2.89,2.8,12.59,12.59,0,0,1-3.24,1.51" fill="#263238"/>
          <path id="Trazado_28139" data-name="Trazado 28139" d="M112.52,260s-2.68-5.41-5.09-4.53-.9,8.37,1.57,9.74a2.67,2.67,0,0,0,3.76-.89Z" fill="#f7a9a0"/>
          <path id="Trazado_28140" data-name="Trazado 28140" d="M107.92,257.64s-.06.05,0,.07c1.72,1,2.43,2.85,2.84,4.71a1.48,1.48,0,0,0-2.13-.73.06.06,0,0,0,0,.11,1.63,1.63,0,0,1,1.71.84,7.271,7.271,0,0,1,.64,1.58c.06.17.37.13.34-.07h0C111.71,261.78,110.39,258.25,107.92,257.64Z" fill="#263238"/>
          <path id="Trazado_28141" data-name="Trazado 28141" d="M98.46,293c-4.65,26.41-.15,46.19,4.33,48.64,12.08,6.6,41.08-6.78,49.27-9.44,3.3-1.07-11.77-26.36-15.15-24.8-7.95,3.67-19.09,9.91-19.54,9.86-.9-.09-1.94-6.83-6.56-26.48C107.08,274.92,100.37,282.23,98.46,293Z" fill="#f7a9a0"/>
          <path id="Trazado_28142" data-name="Trazado 28142" d="M178.42,294.91c.83,3.32-7.52,4.67-7.52,4.67a6.28,6.28,0,0,1,3.31,2.73c1.21,2.3-1.85,5.21-1.85,5.21a7.82,7.82,0,0,1,3,3.44c.94,2.31-1.74,5.69-1.74,5.69a6.84,6.84,0,0,1,.76,4.71c-1,4.26-7.55,5.93-11.39,7.77-4.11,2-10.91,2.69-14,4.08l-13.37-24.49S148.57,295,156,292.92C160,291.75,177.16,289.84,178.42,294.91Z" fill="#f7a9a0"/>
          <path id="Trazado_28143" data-name="Trazado 28143" d="M170.81,299.5c-4.65-.2-9.34.71-13.86,1.64-.1,0-.06.17,0,.15,4.48-1,9.33-.77,13.83-1.57a.111.111,0,0,0,.03-.22Z" fill="#263238"/>
          <path id="Trazado_28144" data-name="Trazado 28144" d="M172.15,307.21a12.439,12.439,0,0,0-3.12.58c-1.08.28-2.17.58-3.25.9-2.16.64-4.3,1.32-6.43,2.06-.09,0-.06.19,0,.16q3.23-.95,6.49-1.76c1.09-.27,2.19-.53,3.28-.78a14.64,14.64,0,0,0,3.06-.86.16.16,0,0,0-.03-.3Z" fill="#263238"/>
          <path id="Trazado_28145" data-name="Trazado 28145" d="M173.56,316.68a8.5,8.5,0,0,0-2.78.67l-2.94.91c-2,.6-3.92,1.2-5.91,1.72-.09,0-.06.19,0,.16,2-.53,4-1,6.05-1.57l3-.82a7.68,7.68,0,0,0,2.61-1,.06.06,0,0,0-.03-.07Z" fill="#263238"/>
          <path id="Trazado_28146" data-name="Trazado 28146" d="M136.07,307.21,150,336.91s-43.1,12.57-48.94,5-5.44-31.36-2.7-47.82,10.15-16.78,13.39-1.9,5.16,24.28,5.74,24.2S136.07,307.21,136.07,307.21Z" fill="#009afd"/>
          <path id="Trazado_28147" data-name="Trazado 28147" d="M130.45,311.2c0-.07-.18,0-.15.06.78,2.23,1.82,4.38,2.77,6.54s2,4.45,3.06,6.66c2.07,4.4,4.1,8.87,6.43,13.14a.15.15,0,1,0,.26-.14c-1.78-4.5-3.9-8.88-5.94-13.26-1-2.18-2-4.34-3.09-6.49S131.7,313.29,130.45,311.2Z" fill="#263238"/>
          <path id="Trazado_28148" data-name="Trazado 28148" d="M127.18,342.37a17.808,17.808,0,0,0-3.6.6c-1.25.22-2.5.42-3.75.58a68.873,68.873,0,0,1-7.31.63c-2.41.06-8.37-.3-10.2-2a11.45,11.45,0,0,1-3.11-5.36,78.122,78.122,0,0,1-1.48-8.47,109.781,109.781,0,0,1-.57-18.13c.07-1.68.18-3.37.3-5.05s.33-3.42.38-5.14a.055.055,0,0,0-.11,0,59.174,59.174,0,0,0-1.14,8.3c-.11-1.73-.32-3.47-.34-5.21a.08.08,0,1,0-.16,0c0,1.83-.09,3.66,0,5.49a29.3,29.3,0,0,0,.25,3.07c-.14,2.33-.21,4.66-.18,7a71.7,71.7,0,0,0,2.13,18.23c.71,2.59,1.81,5.06,4.17,6.45a15.339,15.339,0,0,0,5.67,1.48,47.491,47.491,0,0,0,12.42-.78q1.71-.33,3.42-.72a13.53,13.53,0,0,0,3.27-.89S127.24,342.37,127.18,342.37Z" fill="#263238"/>
          <path id="Trazado_28149" data-name="Trazado 28149" d="M136.62,307.44v.01h0Z" fill="#263238"/>
          <path id="Trazado_28150" data-name="Trazado 28150" d="M136,306.65c-3.17,1.59-6.35,3.18-9.51,4.8l-4.67,2.39c-1.5.78-4.36,2.32-4.36,2.32a35.718,35.718,0,0,0-.88-4.13c-.3-1.34-.67-2.91-1-4.36-.1-.38-.21-.75-.31-1.13-.07-.69-.13-1.39-.19-2.09-.11-1.12-.2-2.26-.37-3.38h-.07a16.4,16.4,0,0,0,0,3.21c-.48-1.76-1-3.5-1.5-5.24h-.09c.57,2.94,1.17,5.88,1.84,8.8.33,1.41.69,2.82,1.06,4.23a44.3,44.3,0,0,0,1.26,4.5,49,49,0,0,0,4.75-2.1q2.43-1.15,4.84-2.36c3.11-1.56,6.25-3.15,9.26-4.91,0,0,.21.4.24.45s.18-.09.14-.23S136.08,306.62,136,306.65Z" fill="#263238"/>
          <path id="Trazado_28151" data-name="Trazado 28151" d="M136.62,307.45Z" fill="#263238"/>
          <path id="Trazado_28152" data-name="Trazado 28152" d="M163.35,335.95h40.61l17.8-57.47h-40.6Z" fill="#263238"/>
          <path id="Trazado_28153" data-name="Trazado 28153" d="M165.34,335.95h40.61l17.81-57.47H183.15Z" fill="#455a64"/>
          <path id="Trazado_28154" data-name="Trazado 28154" d="M198.82,305.41a5.5,5.5,0,0,1-5,3.95,2.94,2.94,0,0,1-2.91-3.95,5.5,5.5,0,0,1,5-4,2.94,2.94,0,0,1,2.91,4Z" fill="#fff"/>
          <path id="Trazado_28155" data-name="Trazado 28155" d="M217.51,298.63c2,3.65,7.24,8.13,7.77,11.17a3.53,3.53,0,0,1-1.75,3.84s3.14,1.35,3.17,4.19c0,1.46-2.3,2.77-2.3,2.77a4.21,4.21,0,0,1,2.34,3.71c-.1,2-2.4,3-2.4,3s1.83,2.24,1.07,4.26c-1.54,4.09-18.8,5.06-21.83-1.15-1.4-2.9,2.83-2.9,2.83-2.9s-6.09-1.46-6.38-5,5.21-3.23,5.21-3.23-5.89-1.46-5.82-5.18,5.52-2.6,5.52-2.6-4-2.39-3.28-5.22c1.16-4.68,9.81.88,13.55-.23Z" fill="#f7a9a0"/>
          <path id="Trazado_28156" data-name="Trazado 28156" d="M224,327.55v.09a30,30,0,0,1-17.85-.07c-.18-.06-.16-.38.06-.35a61.46,61.46,0,0,0,17.79.33Z" fill="#263238"/>
          <path id="Trazado_28157" data-name="Trazado 28157" d="M224.49,320.63a.06.06,0,0,1,0,.12A28.09,28.09,0,0,1,205,319.47c-.21-.1-.3-.4,0-.31C209.24,320.83,219,321.41,224.49,320.63Z" fill="#263238"/>
          <path id="Trazado_28158" data-name="Trazado 28158" d="M204.56,311.16c6,2.62,12.26,3,18.74,2.56.08,0,.08.11,0,.14-3.1,1.1-7.26,1-10.5.61a17.17,17.17,0,0,1-8.34-3.1C204.37,311.3,204.43,311.11,204.56,311.16Z" fill="#263238"/>
          <path id="Trazado_28159" data-name="Trazado 28159" d="M337.84,413.17c-.84,2.27-42,53.43-44.8,54.39-1.06.37-8.86-5.19-18.1-12.18-2-1.51-4-3.08-6.12-4.68-13.47-10.41-27.52-21.77-27.52-21.77l27.43-34.31,26.77,22.72,5.88,5s24.52-12.54,27.71-13.26S338.68,410.9,337.84,413.17Z" fill="#f7a9a0"/>
          <path id="Trazado_28160" data-name="Trazado 28160" d="M337.84,413.17c-.84,2.27-42,53.43-44.8,54.39-1.3.44-12.54-7.86-24.22-16.86l26.68-33.36,5.88,5s24.52-12.54,27.71-13.26S338.68,410.9,337.84,413.17Z" fill="#fff"/>
          <path id="Trazado_28161" data-name="Trazado 28161" d="M337.84,413.17c-.84,2.27-42,53.43-44.8,54.39-1.06.37-8.86-5.19-18.1-12.18l26.44-33.06s24.52-12.54,27.71-13.26S338.68,410.9,337.84,413.17Z" fill="#009afd"/>
          <path id="Trazado_28162" data-name="Trazado 28162" d="M335.2,412.25c-7.11,8.41-35,43-41.38,51.84-.05.07,0,.11.05.05,7.23-8.18,34.84-43,41.48-51.77C335.49,412.18,335.35,412.08,335.2,412.25Z" fill="#263238"/>
          <path id="Trazado_28163" data-name="Trazado 28163" d="M324.6,410.87a8.82,8.82,0,0,0-2,6.81,8.57,8.57,0,0,0,3,5.6c.05,0,.13,0,.08-.1a10.23,10.23,0,0,1-1-12.23.07.07,0,0,0-.08-.08Z" fill="#263238"/>
          <path id="Trazado_28164" data-name="Trazado 28164" d="M304.91,419.68c-2.81,3.39-4.8,8.35-3.71,12.74.05.17.29.11.32,0A60.193,60.193,0,0,1,305.38,420a.284.284,0,1,0-.47-.32Z" fill="#263238"/>
          <path id="Trazado_28165" data-name="Trazado 28165" d="M308.08,417.86c-2.81,3.39-4.8,8.35-3.71,12.74,0,.17.28.11.31,0a60.831,60.831,0,0,1,3.87-12.42.284.284,0,1,0-.47-.32Z" fill="#263238"/>
          <path id="Trazado_28166" data-name="Trazado 28166" d="M311.24,416c-2.81,3.4-4.8,8.35-3.71,12.74.05.17.29.11.32,0a60.379,60.379,0,0,1,3.86-12.42.284.284,0,1,0-.47-.32Z" fill="#263238"/>
          <path id="Trazado_28167" data-name="Trazado 28167" d="M314.41,414.22c-2.81,3.4-4.8,8.35-3.71,12.74,0,.17.28.11.31,0a61.111,61.111,0,0,1,3.87-12.43.282.282,0,0,0-.47-.31Z" fill="#263238"/>
          <path id="Trazado_28168" data-name="Trazado 28168" d="M287.43,455.35c-3.09,3.86,2.91,8.67,6,4.8S290.52,451.49,287.43,455.35Z" fill="#fff"/>
          <path id="Trazado_28169" data-name="Trazado 28169" d="M298.74,408.6c-2.84.58-3.2,3.9-2.56,6.17A23.14,23.14,0,0,0,302.45,425a.11.11,0,0,0,.18,0,.54.54,0,0,0,.78-.4c.27-3.8,1-7.83.14-11.61C303,410.72,301.42,408.05,298.74,408.6Zm3.9,10.08c-.09,1.87-.27,3.73-.29,5.61q-1.914-2.91-3.53-6a26.553,26.553,0,0,1-1.31-3.11c-.53-1.66-.69-7.34,3.32-4.68,2.17,1.44,1.92,5.95,1.81,8.18Z" fill="#263238"/>
          <path id="Trazado_28170" data-name="Trazado 28170" d="M296.86,434.51c2.86-2.62,4.49-6.39,6.4-9.69a.54.54,0,0,0-.42-.76.12.12,0,0,0-.14-.13,23.22,23.22,0,0,0-10.9,4.91c-1.8,1.53-3.37,4.47-1.35,6.55S295.19,436,296.86,434.51Zm-3.62.5c-4.82-.05-1.5-4.66-.13-5.73a26.584,26.584,0,0,1,2.84-1.85c2-1.17,4.18-2,6.3-3-1,1.56-1.93,3.2-2.91,4.8-1.16,1.91-3.45,5.77-6.1,5.77Z" fill="#263238"/>
          <path id="Trazado_28171" data-name="Trazado 28171" d="M294.07,412.16l-28.55,38.52-96.34-66.85-9.29-6.45s-2.63,1.77-6.59,4c-5.5,3-13.56,6.89-20.69,7.94-12,1.77-31.93,1.58-42-11.9-8.49-11.35-3.88-26.16-3.88-26.16l13.13-5.64s31.08-25.89,51.21-26.67c8.55-.34,21,6.14,32.53,12.91S294.07,412.16,294.07,412.16Z" fill="#37474f"/>
          <path id="Trazado_28172" data-name="Trazado 28172" d="M159.89,377.38s-2.63,1.77-6.59,4c-7-8.38-21.82-23.6-22.27-24.14Z" fill="#263238"/>
          <path id="Trazado_28173" data-name="Trazado 28173" d="M111.24,336.92c-1.86,1.29-3.65,2.66-5.49,4s-3.66,2.53-5.37,4-3.4,3-5,4.55c-.79.75-1.58,1.51-2.34,2.29a21.34,21.34,0,0,0-2.24,2.42c-.06.09.06.18.14.13a23.777,23.777,0,0,0,2.48-2L96,350c1.67-1.42,3.37-2.8,5-4.23s3.19-3,4.83-4.39,3.6-3,5.43-4.41C111.31,337,111.28,336.89,111.24,336.92Z" fill="#263238"/>
          <path id="Trazado_28174" data-name="Trazado 28174" d="M287.37,410.78c-1.86,2-3.57,4.15-5.3,6.26s-3.46,4.25-5.17,6.39c-3.42,4.27-6.88,8.53-10.24,12.86-1.85,2.37-3.67,4.76-5.39,7.24-.08.11.1.23.18.13,3.69-4.05,7.05-8.37,10.47-12.64s6.84-8.58,10.19-12.91c1.84-2.37,3.74-4.73,5.42-7.21C287.6,410.8,287.45,410.69,287.37,410.78Z" fill="#263238"/>
          <path id="Trazado_28175" data-name="Trazado 28175" d="M208.3,411.17c-4.79-3.78-9.76-7.34-14.73-10.88s-9.89-7.06-14.91-10.48c-1.44-1-2.89-1.95-4.34-2.91s-3-1.86-4.38-2.86c-.08-.05-.16.08-.08.14,1.31.94,2.54,2,3.82,2.95s2.44,1.87,3.67,2.78c2.41,1.78,4.84,3.53,7.27,5.29,4.92,3.55,9.88,7.07,14.88,10.5,2.85,1.95,5.68,3.91,8.59,5.77C208.26,411.58,208.47,411.3,208.3,411.17Z" fill="#263238"/>
          <path id="Trazado_28176" data-name="Trazado 28176" d="M239.11,371.43c-4.43-3.67-9.18-7-13.82-10.37s-9.37-6.9-14.08-10.3l-14-10.15c-4.54-3.28-9.05-6.61-13.84-9.51-2.62-1.59-5.31-3.06-8.07-4.38a52.517,52.517,0,0,0-8.34-3.41c-.09,0-.13.1-.06.14,2.36,1.32,4.84,2.43,7.23,3.7s4.69,2.58,7,4c4.75,2.88,9.24,6.16,13.75,9.4,9.36,6.73,18.71,13.5,28.14,20.14,5.28,3.72,10.45,7.64,15.93,11C239.07,371.82,239.27,371.56,239.11,371.43Z" fill="#263238"/>
        </g>
        <g id="freepik--Plant--inject-127" transform="translate(-29 -16.557)">
          <path id="Trazado_28177" data-name="Trazado 28177" d="M460.286,356.033c-13.89,18.823-28.417,40.647-31.906,64.245,0,.364.534.477.614.125a139.954,139.954,0,0,1,6.149-18.9c9.093-2.512,18.1-4.547,22.893-13.64,4.888-9.309,4.263-21.46,3.342-31.611A.593.593,0,0,0,460.286,356.033Z" transform="translate(4.645 4.309)" fill="#49d2aa"/>
          <path id="Trazado_28178" data-name="Trazado 28178" d="M434.453,400.56c6.24-14,14.265-28.064,24.5-39.556.068-.08.17,0,.1.114-6.661,8.2-11.73,17.13-16.675,26.223,4.6-4.672,9.639-8.855,13.992-13.811a.1.1,0,0,1,.148.136c-4.331,5.195-9.093,10.844-14.7,14.686q-2.273,4.183-4.547,8.377c.386-.216.773-.4,1.137-.591.068,0,.136.068.057.1-.421.216-.853.443-1.3.637-.727,1.319-1.455,2.648-2.205,3.967A.3.3,0,0,1,434.453,400.56Z" transform="translate(5.471 5.022)" fill="#263238"/>
          <path id="Trazado_28179" data-name="Trazado 28179" d="M438.539,392.358a80.935,80.935,0,0,0,10.662-7.116c.091-.068.227.057.136.125a55.84,55.84,0,0,1-10.639,7.252.153.153,0,0,1-.159-.261Z" transform="translate(6.023 8.336)" fill="#263238"/>
          <path id="Trazado_28180" data-name="Trazado 28180" d="M427.123,421.029c0,.284.512.273.512,0,.068-7.775,0-15.584.114-23.381,2-4.024,6.263-6.24,9.241-9.468a41.432,41.432,0,0,0,5.536-7.707,55.276,55.276,0,0,0,6.434-21.438c.818-8.309-2.33-35.737-5.843-34.782-1.807.489-7.7,14.072-9.253,18.562a128.626,128.626,0,0,0-5.524,22.733C425.464,383.849,425.7,402.627,427.123,421.029Z" transform="translate(4.333 0)" fill="#49d2aa"/>
          <path id="Trazado_28181" data-name="Trazado 28181" d="M426.934,386.931h0c.432-9.832,2.637-19.755,4.717-29.292,2.273-10.23,4.842-19.949,10.128-29.11.1-.17.352,0,.261.159a107.986,107.986,0,0,0-8.139,22.336c.352-.546.784-1.08,1.137-1.6.136-.2.477,0,.341.2a14.678,14.678,0,0,1-1.66,2.33h-.068c-1.819,7.343-3.126,14.856-4.24,22.347a3.15,3.15,0,0,1,.25-.3c.057,0,.148,0,.114.091-.136.25-.3.489-.443.739-.568,3.808-1.137,7.6-1.614,11.367,6.82-5.8,12.5-12.617,15.811-21.017h.068c-3.194,8.707-8.229,16.459-15.982,21.756-.148,1.012-.284,2.023-.432,3.035,0,.2-.364.148-.364-.057,0-.887,0-1.785.08-2.683a.216.216,0,0,1,.034-.307Z" transform="translate(4.432 0.578)" fill="#263238"/>
          <path id="Trazado_28182" data-name="Trazado 28182" d="M429.733,370.233c5.172-7.729,10-15.22,13.788-23.756a.092.092,0,0,1,.171.068c-3.194,8.48-7.661,17.05-13.708,23.87C429.87,370.563,429.62,370.381,429.733,370.233Z" transform="translate(4.826 3.033)" fill="#263238"/>
          <path id="Trazado_28183" data-name="Trazado 28183" d="M435.784,346.162c2.137-3.8,4.4-7.479,6.411-11.367.057-.1.2,0,.159.1a58.824,58.824,0,0,1-6.24,11.5C435.965,346.548,435.658,346.4,435.784,346.162Z" transform="translate(5.653 1.438)" fill="#263238"/>
          <path id="Trazado_28184" data-name="Trazado 28184" d="M435,346.24v0Z" transform="translate(5.55 3.008)" fill="#263238"/>
          <path id="Trazado_28185" data-name="Trazado 28185" d="M424.957,397.143a78.429,78.429,0,0,1-1.807,15.3l.239,1.682a73.2,73.2,0,0,0,2.739-17.05.557.557,0,0,0,0-.534h0a113.582,113.582,0,0,0-1.716-23.12c-2.41-14.277-7.661-27.985-17.63-38.647a.7.7,0,0,0-1.137.227c-4.024,10.23-2.614,22.4.807,32.6a59.58,59.58,0,0,0,7.888,15.481C417.83,387.834,422.183,391.892,424.957,397.143Z" transform="translate(1.203 1.414)" fill="#49d2aa"/>
          <path id="Trazado_28186" data-name="Trazado 28186" d="M407.452,338.906c9.434,15.322,16,33.486,16.811,51.571,0,.33-.523.409-.568.08-.227-1.625-.477-3.24-.739-4.842h0c-3.91-3.74-7.957-7.684-10.707-12.367-.057-.08.068-.171.125-.1a127.563,127.563,0,0,0,10.412,11.367c-.682-4-1.478-7.957-2.433-11.81l-.739-.875c-.17-.193.1-.477.273-.284l.227.25a134.586,134.586,0,0,0-4.933-15.663c-2.4-2.864-5.092-5.342-6.82-8.8,0-.08.08-.148.125-.08,1.409,1.978,2.773,3.967,4.365,5.8.637.727,1.341,1.409,2,2.126a120.639,120.639,0,0,0-7.729-16.107.216.216,0,0,1,.33-.261Z" transform="translate(1.737 2)" fill="#263238"/>
          <path id="Trazado_28187" data-name="Trazado 28187" d="M409.117,355.537c3.046,4.1,6.525,8.013,9.366,12.265.08.114-.1.239-.2.148-3.637-3.41-6.729-8.082-9.366-12.3C408.833,355.514,409.015,355.412,409.117,355.537Z" transform="translate(1.982 4.271)" fill="#263238"/>
          <path id="Trazado_28188" data-name="Trazado 28188" d="M417.72,367.153l.136.136c.091.091-.057.227-.148.136l-.125-.125C417.493,367.21,417.629,367.063,417.72,367.153Z" transform="translate(3.165 5.863)" fill="#263238"/>
          <path id="Trazado_28189" data-name="Trazado 28189" d="M394.4,364.92a47.081,47.081,0,0,0,9.957,23.359,24.847,24.847,0,0,0,8.082,6.309c3.5,1.728,7.161,3.717,10.776,5.138a70.6,70.6,0,0,1,3.819,13.561c.114-.4.227-.807.352-1.2-2.33-19.949-15.243-37-31.747-47.945a.807.807,0,0,0-1.239.784Z" transform="translate(0 5.437)" fill="#49d2aa"/>
          <path id="Trazado_28190" data-name="Trazado 28190" d="M399.426,370.029a.138.138,0,0,1,.17-.216,67.519,67.519,0,0,1,21.04,25.939c.125.273-.25.512-.409.239-.762-1.341-1.546-2.66-2.342-3.944h0c-3.774-.716-7.343-3.41-10.139-5.888-.08-.068,0-.182.114-.114a22.792,22.792,0,0,0,4.763,3.41c1.546.784,3.194,1.273,4.8,1.9-1.4-2.217-2.853-4.342-4.376-6.411a43.614,43.614,0,0,1-11.367-6.365.107.107,0,0,1,.114-.182,113,113,0,0,0,10.526,5.627,95.277,95.277,0,0,0-7.434-8.661c-1.284-.682-2.58-1.364-3.819-2.08-.1-.057,0-.239.08-.193a13.243,13.243,0,0,1,2.933,1.444A64.569,64.569,0,0,0,399.426,370.029Z" transform="translate(0.681 6.227)" fill="#263238"/>
          <path id="Trazado_28191" data-name="Trazado 28191" d="M399.748,376.051a6.431,6.431,0,0,1,.637.455c0,.057,0,.136-.08.114a4.764,4.764,0,0,1-.659-.386A.1.1,0,0,1,399.748,376.051Z" transform="translate(0.711 7.081)" fill="#263238"/>
          <path id="Trazado_28192" data-name="Trazado 28192" d="M451.531,451.418H406.28l3.649-41.2.807-9.093h36.339l.807,9.093Z" transform="translate(1.625 10.509)" fill="#455a64"/>
          <path id="Trazado_28193" data-name="Trazado 28193" d="M447.444,410.213H409.49l.807-9.093h36.339Z" transform="translate(2.063 10.509)" fill="#263238"/>
          <rect id="Rectángulo_17688" data-name="Rectángulo 17688" width="40.67" height="8.991" transform="translate(410.189 405.275)" fill="#455a64"/>
        </g>
      </g>
      <g id="Grupo_19566" data-name="Grupo 19566">
        <rect id="Rectángulo_17689" data-name="Rectángulo 17689" width="0.955" height="87.487" transform="translate(107.497 -29.73)" fill="#c7c7c7"/>
        <path id="Trazado_28194" data-name="Trazado 28194" d="M108.389,121.546l-2.444,5.365H50.074l-2.444-5.365,23.8-16.466H84.6Z" transform="translate(29.959 -34.503)" fill="#ebebeb"/>
        <path id="Trazado_28195" data-name="Trazado 28195" d="M87.306,88.46l-1.651,15.865H72.481L70.83,88.46Z" transform="translate(28.906 -33.748)" fill="#dbdbdb"/>
        <path id="Trazado_28196" data-name="Trazado 28196" d="M108.389,122.33l-2.444,5.374H50.064L47.63,122.33Z" transform="translate(29.959 -35.287)" fill="#dbdbdb"/>
        <rect id="Rectángulo_17690" data-name="Rectángulo 17690" width="0.955" height="70.161" transform="translate(172.723 -29.73)" fill="#c7c7c7"/>
        <path id="Trazado_28197" data-name="Trazado 28197" d="M176.729,103.386l-2.444,5.374H118.4l-2.434-5.374L139.758,86.92h13.183Z" transform="translate(26.855 -33.678)" fill="#ebebeb"/>
        <path id="Trazado_28198" data-name="Trazado 28198" d="M155.646,70.31l-1.651,15.855H140.811L139.16,70.31Z" transform="translate(25.802 -32.924)" fill="#dbdbdb"/>
        <path id="Trazado_28199" data-name="Trazado 28199" d="M176.729,104.18l-2.444,5.365H118.4l-2.434-5.365Z" transform="translate(26.855 -34.462)" fill="#dbdbdb"/>
      </g>
      <g id="Grupo_19565" data-name="Grupo 19565" transform="translate(805.327 -118.811)">
        <g id="Grupo_19560" data-name="Grupo 19560" transform="translate(-136.751 249.394)">
          <path id="Trazado_27775" data-name="Trazado 27775" d="M350.6,227.823a.689.689,0,0,1,.969-.969,5.329,5.329,0,0,0,3.647,1.479,5.151,5.151,0,1,0-3.647-8.772.714.714,0,0,1-.969,0,.794.794,0,0,1-.179-.229h0a.631.631,0,0,1,0-.23,1.046,1.046,0,0,0,0-.128l.918-7.65a.613.613,0,0,1,.281-.485.561.561,0,0,1,.433-.178h8.976a.688.688,0,0,1,.688.688.663.663,0,0,1-.689.689h-8.39l-.663,5.738a6.528,6.528,0,0,1,7.88,10.2,6.834,6.834,0,0,1-4.616,1.913A6.58,6.58,0,0,1,350.6,227.823Z" transform="translate(-263.886 -209.869)" fill="#9eaab8"/>
          <path id="Trazado_27776" data-name="Trazado 27776" d="M358.772,214.768a7.855,7.855,0,0,1,6.732-4.208.663.663,0,0,1,.689.637.714.714,0,0,1-.663.714,6.554,6.554,0,0,0-5.61,3.519,13.258,13.258,0,0,0-1.351,3.851,6.3,6.3,0,0,1,4.743-2.193,6.375,6.375,0,1,1-6.324,6.6,7.127,7.127,0,0,1,0-1.275A15.785,15.785,0,0,1,358.772,214.768Zm-.434,8.8a1.317,1.317,0,0,0,0,.357.483.483,0,0,1,0,.2,5.1,5.1,0,1,0,0-.663Z" transform="translate(-253.743 -210.024)" fill="#9eaab8"/>
          <path id="Trazado_27777" data-name="Trazado 27777" d="M366.472,228.846l7.089-16.933h-9.308a.663.663,0,0,1,0-1.326h10.2a.741.741,0,0,1,.408,0,.688.688,0,0,1,.357.408.891.891,0,0,1-.127.586l-7.4,17.851a.688.688,0,0,1-.612.408.56.56,0,0,1-.281,0,.714.714,0,0,1-.332-.994Z" transform="translate(-243.465 -210.026)" fill="#9eaab8"/>
          <path id="Trazado_27778" data-name="Trazado 27778" d="M375.952,210.52a3.978,3.978,0,0,1,2.372,7.217,6.222,6.222,0,1,1-4.743,0,4.029,4.029,0,0,1-1.607-3.239,3.953,3.953,0,0,1,3.978-3.978Zm0,17.851a2.346,2.346,0,1,0,.026.1Zm0-11.246a2.754,2.754,0,0,0,2.7-2.729,2.69,2.69,0,1,0-2.7,2.831Z" transform="translate(-233.946 -210.086)" fill="#9eaab8"/>
          <path id="Trazado_27779" data-name="Trazado 27779" d="M389.491,210.48a6.375,6.375,0,0,1,6.35,5.61h0v1.658a16.121,16.121,0,0,1-1.811,7.65,7.931,7.931,0,0,1-6.732,4.208h0a.663.663,0,0,1-.689-.638.714.714,0,0,1,.663-.714,6.477,6.477,0,0,0,5.61-3.494,12.544,12.544,0,0,0,1.377-3.876,6.329,6.329,0,1,1-4.769-10.4Zm5.1,6.324a11.3,11.3,0,1,0-.051.1Z" transform="translate(-213.237 -210.148)" fill="#9eaab8"/>
          <path id="Trazado_27780" data-name="Trazado 27780" d="M390,220.122a12.267,12.267,0,0,1,1.836-6.758,5.432,5.432,0,0,1,9.614,0,12.749,12.749,0,0,1,1.913,6.758,12.419,12.419,0,0,1-1.862,6.707,5.432,5.432,0,0,1-9.639,0A11.985,11.985,0,0,1,390,220.122Zm1.352,0a10.839,10.839,0,0,0,1.632,5.967,4.641,4.641,0,0,0,3.7,2.3,4.565,4.565,0,0,0,3.672-2.321,10.862,10.862,0,0,0,1.658-5.967,11.067,11.067,0,0,0-1.683-5.967,4.08,4.08,0,0,0-7.37,0,10.99,10.99,0,0,0-1.53,5.993Z" transform="translate(-202.528 -210.176)" fill="#9eaab8"/>
          <path id="Trazado_27781" data-name="Trazado 27781" d="M401.017,212.442l-2.729,1.581a.486.486,0,0,1-.331,0,.689.689,0,0,1-.561-.332.638.638,0,0,1,.23-.918l3.723-2.27a.6.6,0,0,1,.893.74v17.723a.612.612,0,0,1-.637.638.638.638,0,0,1-.663-.638Z" transform="translate(-191.229 -210.223)" fill="#9eaab8"/>
          <path id="Trazado_27782" data-name="Trazado 27782" d="M401.269,228.531l8.976-8.16a4.922,4.922,0,0,0,1.632-3.7,4.845,4.845,0,0,0-1.3-3.29,4.743,4.743,0,0,0-3.647-1.607,5.1,5.1,0,0,0-3.366,1.275l-.943.842a.612.612,0,0,1-.918,0,.638.638,0,0,1,0-.944l.918-.867a6.528,6.528,0,0,1,4.284-1.632,6.12,6.12,0,0,1,4.616,2.04,6.2,6.2,0,0,1,1.658,4.208,6.35,6.35,0,0,1-2.04,4.692l-7.65,6.988h9.13a.688.688,0,0,1,.663.688.663.663,0,0,1-.663.663H401.754a.561.561,0,0,1-.485-.2.689.689,0,0,1,0-.995Z" transform="translate(-185.386 -210.195)" fill="#9eaab8"/>
          <path id="Trazado_27783" data-name="Trazado 27783" d="M425.365,211.537l-5.1,5.1a6.529,6.529,0,0,1,3.315,1.734,6.759,6.759,0,0,1,1.913,4.616,6.63,6.63,0,0,1-6.554,6.579,6.375,6.375,0,0,1-4.59-1.912.663.663,0,0,1,0-.969.638.638,0,0,1,.944,0,5.158,5.158,0,1,0,7.421-7.166,5.1,5.1,0,0,0-3.647-1.5.688.688,0,0,1-.535-.255h0a.739.739,0,0,1,0-.995l4.794-4.947h-7.4a.689.689,0,1,1,0-1.377h9a.688.688,0,0,1,.612.995A.561.561,0,0,1,425.365,211.537Z" transform="translate(-165.11 -210.21)" fill="#9eaab8"/>
          <path id="Trazado_27789" data-name="Trazado 27789" d="M425.365,211.537l-5.1,5.1a6.529,6.529,0,0,1,3.315,1.734,6.759,6.759,0,0,1,1.913,4.616,6.63,6.63,0,0,1-6.554,6.579,6.375,6.375,0,0,1-4.59-1.912.663.663,0,0,1,0-.969.638.638,0,0,1,.944,0,5.158,5.158,0,1,0,7.421-7.166,5.1,5.1,0,0,0-3.647-1.5.688.688,0,0,1-.535-.255h0a.739.739,0,0,1,0-.995l4.794-4.947h-7.4a.689.689,0,1,1,0-1.377h9a.688.688,0,0,1,.612.995A.561.561,0,0,1,425.365,211.537Z" transform="translate(-377.988 -210.21)" fill="#9eaab8"/>
          <path id="Trazado_27784" data-name="Trazado 27784" d="M431.651,225.529H421.145a.611.611,0,0,1-.408,0,.638.638,0,0,1,0-.944l11.093-13.9h0a.637.637,0,0,1,.944,0,.764.764,0,0,1,.229.332h0V224.3h1.3a.663.663,0,1,1,0,1.326H433v3.315a.689.689,0,0,1-1.351,0Zm0-1.3v-11.3l-9.078,11.3Z" transform="translate(-155.203 -210.151)" fill="#9eaab8"/>
          <path id="Trazado_27790" data-name="Trazado 27790" d="M431.651,225.529H421.145a.611.611,0,0,1-.408,0,.638.638,0,0,1,0-.944l11.093-13.9h0a.637.637,0,0,1,.944,0,.764.764,0,0,1,.229.332h0V224.3h1.3a.663.663,0,1,1,0,1.326H433v3.315a.689.689,0,0,1-1.351,0Zm0-1.3v-11.3l-9.078,11.3Z" transform="translate(-420.528 -210.151)" fill="#9eaab8"/>
          <path id="Trazado_27785" data-name="Trazado 27785" d="M428.018,227.623a.663.663,0,0,1,0-.969.689.689,0,0,1,.995,0,5.279,5.279,0,0,0,3.647,1.479,5.151,5.151,0,1,0-3.672-8.772.688.688,0,0,1-.944,0,.461.461,0,0,1-.179-.23h0a.64.64,0,0,1,0-.23l.918-7.778a.8.8,0,0,1,.714-.663h9a.688.688,0,0,1,.689.689.663.663,0,0,1-.689.689h-8.39l-.688,5.738a6.531,6.531,0,0,1,7.905,10.252,6.86,6.86,0,0,1-4.616,1.913,6.63,6.63,0,0,1-4.692-2.117Z" transform="translate(-143.919 -210.18)" fill="#9eaab8"/>
          <path id="Trazado_27791" data-name="Trazado 27791" d="M428.018,227.623a.663.663,0,0,1,0-.969.689.689,0,0,1,.995,0,5.279,5.279,0,0,0,3.647,1.479,5.151,5.151,0,1,0-3.672-8.772.688.688,0,0,1-.944,0,.461.461,0,0,1-.179-.23h0a.64.64,0,0,1,0-.23l.918-7.778a.8.8,0,0,1,.714-.663h9a.688.688,0,0,1,.689.689.663.663,0,0,1-.689.689h-8.39l-.688,5.738a6.531,6.531,0,0,1,7.905,10.252,6.86,6.86,0,0,1-4.616,1.913,6.63,6.63,0,0,1-4.692-2.117Z" transform="translate(-407.992 -210.18)" fill="#9eaab8"/>
          <path id="Trazado_27786" data-name="Trazado 27786" d="M436.192,214.558a7.651,7.651,0,0,1,6.733-4.208.663.663,0,0,1,.688.637.714.714,0,0,1-.663.714,6.477,6.477,0,0,0-5.61,3.494,12.98,12.98,0,0,0-1.377,3.876,6.35,6.35,0,1,1-1.581,4.412,10.7,10.7,0,0,1,0-1.275,15.788,15.788,0,0,1,1.811-7.65Zm-.459,8.8a1.32,1.32,0,0,0,0,.357.484.484,0,0,1,0,.2,5.5,5.5,0,1,0,0-.765Z" transform="translate(-133.759 -210.35)" fill="#9eaab8"/>
          <path id="Trazado_27788" data-name="Trazado 27788" d="M436.192,214.558a7.651,7.651,0,0,1,6.733-4.208.663.663,0,0,1,.688.637.714.714,0,0,1-.663.714,6.477,6.477,0,0,0-5.61,3.494,12.98,12.98,0,0,0-1.377,3.876,6.35,6.35,0,1,1-1.581,4.412,10.7,10.7,0,0,1,0-1.275,15.788,15.788,0,0,1,1.811-7.65Zm-.459,8.8a1.32,1.32,0,0,0,0,.357.484.484,0,0,1,0,.2,5.5,5.5,0,1,0,0-.765Z" transform="translate(-382.121 -210.35)" fill="#9eaab8"/>
        </g>
        <rect id="Rectángulo_17660" data-name="Rectángulo 17660" width="223.754" height="14.463" rx="7" transform="translate(-136.751 281.799)" fill="#e6ebf0"/>
        <rect id="Rectángulo_17661" data-name="Rectángulo 17661" width="198.754" height="14.463" rx="7" transform="translate(-136.751 303.799)" fill="#e6ebf0"/>
      </g>
      <g id="Grupo_19558" data-name="Grupo 19558" transform="translate(377.04 46.04)">
        <path id="Unión_1" data-name="Unión 1" d="M3.527,117.053c-1.948,0-3.527-.808-3.527-1.8V101.837L-26.908,90.4C-8.129,79.563,0,55.177,0,55.177V1.8C0,.808,1.58,0,3.527,0H146.39c1.948,0,3.528.807,3.528,1.8V115.249c0,1-1.58,1.8-3.528,1.8Z" transform="translate(14.614 0)" fill="#fff"/>
        <path id="_Text_Body_1_Selected_On_Surface_Medium_Emphasis_Left_" data-name="✱ / Text / Body 1 / Selected / On Surface / Medium Emphasis / Left " d="M5.565,9.3a1.6,1.6,0,0,1,.875.565,1.633,1.633,0,0,1,.31,1.019,1.59,1.59,0,0,1-.579,1.31,2.506,2.506,0,0,1-1.616.468H2.194a.469.469,0,0,1-.347-.125.457.457,0,0,1-.125-.338V6.6a.457.457,0,0,1,.125-.338.469.469,0,0,1,.347-.125H4.454a2.489,2.489,0,0,1,1.579.449A1.507,1.507,0,0,1,6.6,7.84a1.5,1.5,0,0,1-.273.9A1.614,1.614,0,0,1,5.565,9.3ZM2.657,8.96H4.305q1.37,0,1.37-1.037a.893.893,0,0,0-.338-.769A1.737,1.737,0,0,0,4.305,6.9H2.657Zm1.8,2.935A1.7,1.7,0,0,0,5.5,11.637a.957.957,0,0,0,.333-.806A1,1,0,0,0,5.5,10a1.642,1.642,0,0,0-1.042-.273h-1.8V11.9Zm5.389.833a2.328,2.328,0,0,1-1.171-.287,1.937,1.937,0,0,1-.778-.819,2.672,2.672,0,0,1-.273-1.236,2.693,2.693,0,0,1,.273-1.245,1.937,1.937,0,0,1,.778-.819,2.328,2.328,0,0,1,1.171-.287,2.328,2.328,0,0,1,1.171.287,1.937,1.937,0,0,1,.778.819,2.693,2.693,0,0,1,.273,1.245,2.672,2.672,0,0,1-.273,1.236,1.937,1.937,0,0,1-.778.819A2.328,2.328,0,0,1,9.843,12.729Zm0-.741a1.148,1.148,0,0,0,.949-.407,1.868,1.868,0,0,0,.329-1.194,1.852,1.852,0,0,0-.333-1.19,1.146,1.146,0,0,0-.944-.412A1.146,1.146,0,0,0,8.9,9.2a1.852,1.852,0,0,0-.333,1.19,1.868,1.868,0,0,0,.329,1.194A1.148,1.148,0,0,0,9.843,11.988Zm3.722.722a.512.512,0,0,1-.338-.111.408.408,0,0,1-.134-.333V6.544a.422.422,0,0,1,.134-.338.5.5,0,0,1,.338-.116.482.482,0,0,1,.333.116.43.43,0,0,1,.13.338v5.722a.415.415,0,0,1-.13.333A.494.494,0,0,1,13.565,12.711Zm5.3-1.185a.263.263,0,0,1,.213.1.4.4,0,0,1,.083.259.533.533,0,0,1-.333.454,2.937,2.937,0,0,1-.708.287,2.872,2.872,0,0,1-.736.1,2.28,2.28,0,0,1-1.695-.625,2.318,2.318,0,0,1-.62-1.708,2.679,2.679,0,0,1,.273-1.232,2.008,2.008,0,0,1,.769-.833,2.149,2.149,0,0,1,1.125-.3,1.839,1.839,0,0,1,1.435.583,2.258,2.258,0,0,1,.528,1.574q0,.37-.333.37H16Q16.093,12,17.38,12a1.707,1.707,0,0,0,.593-.093,4.31,4.31,0,0,0,.528-.241q.028-.019.153-.079A.506.506,0,0,1,18.862,11.525ZM17.25,8.72a1.13,1.13,0,0,0-.861.343,1.6,1.6,0,0,0-.389.963h2.389a1.548,1.548,0,0,0-.319-.968A1.024,1.024,0,0,0,17.25,8.72ZM22.38,12a.464.464,0,0,1,.292.106.332.332,0,0,1,.088.245.32.32,0,0,1-.144.282.67.67,0,0,1-.421.079l-.25-.019a1.621,1.621,0,0,1-1.12-.458,1.7,1.7,0,0,1-.37-1.19V8.868H19.9q-.407,0-.407-.361a.34.34,0,0,1,.106-.264.43.43,0,0,1,.3-.1h.556V7.192a.441.441,0,0,1,.125-.333.467.467,0,0,1,.338-.12.483.483,0,0,1,.343.12.432.432,0,0,1,.13.333v.954h.917a.43.43,0,0,1,.3.1.386.386,0,0,1,0,.532.444.444,0,0,1-.3.093h-.917v2.241a.946.946,0,0,0,.181.639.781.781,0,0,0,.551.231Zm2.945-3.963a1.786,1.786,0,0,1,1.338.454,1.914,1.914,0,0,1,.44,1.38v2.4a.435.435,0,0,1-.12.329.461.461,0,0,1-.333.116.415.415,0,0,1-.444-.444v-.343a1.3,1.3,0,0,1-.523.6,1.544,1.544,0,0,1-.81.208,1.805,1.805,0,0,1-.81-.181,1.466,1.466,0,0,1-.579-.5,1.243,1.243,0,0,1-.213-.713,1.082,1.082,0,0,1,.25-.782,1.563,1.563,0,0,1,.843-.407,8.146,8.146,0,0,1,1.62-.125H26.2V9.757a1.089,1.089,0,0,0-.213-.75.892.892,0,0,0-.685-.231,2.182,2.182,0,0,0-.611.083,4.6,4.6,0,0,0-.63.241.908.908,0,0,1-.352.139.286.286,0,0,1-.227-.1.382.382,0,0,1-.088-.259.4.4,0,0,1,.079-.245.829.829,0,0,1,.255-.208,3.166,3.166,0,0,1,.759-.282A3.541,3.541,0,0,1,25.325,8.035Zm-.287,4a1.089,1.089,0,0,0,.833-.347,1.257,1.257,0,0,0,.324-.894v-.241h-.167a7.214,7.214,0,0,0-1.111.065,1.09,1.09,0,0,0-.556.218.567.567,0,0,0-.167.44.7.7,0,0,0,.241.546A.875.875,0,0,0,25.038,12.035Zm4.908.694A2.8,2.8,0,0,1,28.4,12.34a.7.7,0,0,1-.236-.213.462.462,0,0,1-.069-.25.382.382,0,0,1,.083-.25.263.263,0,0,1,.213-.1.913.913,0,0,1,.38.148,3.9,3.9,0,0,0,.542.241,2.023,2.023,0,0,0,.662.093,1.3,1.3,0,0,0,.694-.157.5.5,0,0,0,.25-.444.434.434,0,0,0-.1-.3.824.824,0,0,0-.338-.2,5.767,5.767,0,0,0-.713-.19,2.747,2.747,0,0,1-1.171-.477,1.016,1.016,0,0,1-.356-.819,1.193,1.193,0,0,1,.231-.718,1.5,1.5,0,0,1,.639-.5,2.315,2.315,0,0,1,.926-.176,2.7,2.7,0,0,1,.722.1,2.04,2.04,0,0,1,.62.282.574.574,0,0,1,.306.472.369.369,0,0,1-.088.25.267.267,0,0,1-.208.1.407.407,0,0,1-.167-.037A2.2,2.2,0,0,1,31,9.081a3.11,3.11,0,0,0-.468-.231,1.525,1.525,0,0,0-.542-.083,1.062,1.062,0,0,0-.625.167.527.527,0,0,0-.236.454.456.456,0,0,0,.218.4,2.668,2.668,0,0,0,.819.273,4.491,4.491,0,0,1,.972.3,1.152,1.152,0,0,1,.5.412,1.165,1.165,0,0,1,.153.625,1.139,1.139,0,0,1-.5.968A2.248,2.248,0,0,1,29.945,12.729Zm7.213-4.695a1.786,1.786,0,0,1,1.338.454,1.914,1.914,0,0,1,.44,1.38v2.4a.435.435,0,0,1-.12.329.461.461,0,0,1-.333.116.415.415,0,0,1-.444-.444v-.343a1.3,1.3,0,0,1-.523.6,1.544,1.544,0,0,1-.81.208,1.805,1.805,0,0,1-.81-.181,1.466,1.466,0,0,1-.579-.5,1.243,1.243,0,0,1-.213-.713,1.082,1.082,0,0,1,.25-.782,1.563,1.563,0,0,1,.843-.407,8.146,8.146,0,0,1,1.62-.125h.213V9.757a1.089,1.089,0,0,0-.213-.75.892.892,0,0,0-.685-.231,2.182,2.182,0,0,0-.611.083,4.6,4.6,0,0,0-.63.241.908.908,0,0,1-.352.139.286.286,0,0,1-.227-.1.382.382,0,0,1-.088-.259.4.4,0,0,1,.079-.245.829.829,0,0,1,.255-.208,3.166,3.166,0,0,1,.759-.282A3.541,3.541,0,0,1,37.159,8.035Zm-.287,4a1.089,1.089,0,0,0,.833-.347,1.257,1.257,0,0,0,.324-.894v-.241h-.167a7.214,7.214,0,0,0-1.111.065,1.09,1.09,0,0,0-.556.218.567.567,0,0,0-.167.44.7.7,0,0,0,.241.546A.875.875,0,0,0,36.871,12.035Zm8.195-4a1.877,1.877,0,0,1,1.042.3,1.97,1.97,0,0,1,.713.833,2.865,2.865,0,0,1,.255,1.241,2.825,2.825,0,0,1-.25,1.222,1.888,1.888,0,0,1-.708.815,1.938,1.938,0,0,1-1.051.287,1.808,1.808,0,0,1-.9-.218,1.433,1.433,0,0,1-.593-.625v2.065a.4.4,0,0,1-.125.31.465.465,0,0,1-.329.116.5.5,0,0,1-.347-.12.414.414,0,0,1-.134-.324V8.507a.436.436,0,0,1,.13-.329.473.473,0,0,1,.343-.125.46.46,0,0,1,.333.125.436.436,0,0,1,.13.329v.38a1.461,1.461,0,0,1,.593-.63A1.778,1.778,0,0,1,45.066,8.035Zm-.222,3.954a1.146,1.146,0,0,0,.944-.412,1.819,1.819,0,0,0,.333-1.171,1.878,1.878,0,0,0-.338-1.194A1.259,1.259,0,0,0,43.9,9.2a1.875,1.875,0,0,0-.329,1.185,1.875,1.875,0,0,0,.329,1.185A1.127,1.127,0,0,0,44.844,11.988ZM50,8.035a1.786,1.786,0,0,1,1.338.454,1.914,1.914,0,0,1,.44,1.38v2.4a.435.435,0,0,1-.12.329.461.461,0,0,1-.333.116.415.415,0,0,1-.444-.444v-.343a1.3,1.3,0,0,1-.523.6,1.544,1.544,0,0,1-.81.208,1.805,1.805,0,0,1-.81-.181,1.466,1.466,0,0,1-.579-.5,1.243,1.243,0,0,1-.213-.713,1.082,1.082,0,0,1,.25-.782,1.563,1.563,0,0,1,.843-.407,8.146,8.146,0,0,1,1.62-.125h.213V9.757a1.089,1.089,0,0,0-.213-.75.892.892,0,0,0-.685-.231,2.182,2.182,0,0,0-.611.083,4.6,4.6,0,0,0-.63.241.908.908,0,0,1-.352.139.286.286,0,0,1-.227-.1.382.382,0,0,1-.088-.259.4.4,0,0,1,.079-.245.829.829,0,0,1,.255-.208,3.166,3.166,0,0,1,.759-.282A3.541,3.541,0,0,1,50,8.035Zm-.287,4a1.089,1.089,0,0,0,.833-.347,1.257,1.257,0,0,0,.324-.894v-.241h-.167a7.214,7.214,0,0,0-1.111.065,1.09,1.09,0,0,0-.556.218.567.567,0,0,0-.167.44.7.7,0,0,0,.241.546A.875.875,0,0,0,49.715,12.035Zm7.074-3.982a.457.457,0,0,1,.338.125.444.444,0,0,1,.125.329v3.8a2.069,2.069,0,0,1-.551,1.565,2.263,2.263,0,0,1-1.625.528,3.329,3.329,0,0,1-1.667-.38.552.552,0,0,1-.343-.463.382.382,0,0,1,.088-.259.276.276,0,0,1,.218-.1.951.951,0,0,1,.38.139,4.674,4.674,0,0,0,.62.245,2.354,2.354,0,0,0,.685.088,1.134,1.134,0,0,0,1.278-1.287v-.713a1.419,1.419,0,0,1-.593.634,1.838,1.838,0,0,1-.926.227,2.012,2.012,0,0,1-1.056-.278,1.869,1.869,0,0,1-.718-.787,2.6,2.6,0,0,1-.255-1.176,2.557,2.557,0,0,1,.259-1.176,1.941,1.941,0,0,1,.718-.792,1.962,1.962,0,0,1,1.051-.282,1.823,1.823,0,0,1,.912.222,1.453,1.453,0,0,1,.6.63V8.5a.429.429,0,0,1,.125-.324A.467.467,0,0,1,56.789,8.053Zm-1.75,3.732a1.18,1.18,0,0,0,.944-.4,1.635,1.635,0,0,0,.343-1.1,1.654,1.654,0,0,0-.338-1.1,1.171,1.171,0,0,0-.949-.4,1.2,1.2,0,0,0-.958.4,1.621,1.621,0,0,0-.347,1.1,1.607,1.607,0,0,0,.352,1.1A1.208,1.208,0,0,0,55.039,11.785Zm5.408-3.75a1.786,1.786,0,0,1,1.338.454,1.914,1.914,0,0,1,.44,1.38v2.4a.435.435,0,0,1-.12.329.461.461,0,0,1-.333.116.415.415,0,0,1-.444-.444v-.343a1.3,1.3,0,0,1-.523.6,1.544,1.544,0,0,1-.81.208,1.805,1.805,0,0,1-.81-.181,1.466,1.466,0,0,1-.579-.5,1.243,1.243,0,0,1-.213-.713,1.082,1.082,0,0,1,.25-.782,1.563,1.563,0,0,1,.843-.407,8.146,8.146,0,0,1,1.62-.125h.213V9.757a1.089,1.089,0,0,0-.213-.75.892.892,0,0,0-.685-.231,2.182,2.182,0,0,0-.611.083,4.6,4.6,0,0,0-.63.241.908.908,0,0,1-.352.139.286.286,0,0,1-.227-.1.382.382,0,0,1-.088-.259.4.4,0,0,1,.079-.245.829.829,0,0,1,.255-.208,3.166,3.166,0,0,1,.759-.282A3.541,3.541,0,0,1,60.446,8.035Zm-.287,4a1.089,1.089,0,0,0,.833-.347,1.257,1.257,0,0,0,.324-.894v-.241H61.15a7.214,7.214,0,0,0-1.111.065,1.09,1.09,0,0,0-.556.218.567.567,0,0,0-.167.44.7.7,0,0,0,.241.546A.875.875,0,0,0,60.159,12.035Zm5.7-3.982q.444-.028.444.38a.415.415,0,0,1-.1.306.549.549,0,0,1-.352.12l-.278.028a1.2,1.2,0,0,0-.866.407,1.318,1.318,0,0,0-.282.852v2.12a.415.415,0,0,1-.13.333.494.494,0,0,1-.333.111.512.512,0,0,1-.338-.111.408.408,0,0,1-.134-.333V8.5a.41.41,0,0,1,.134-.329.5.5,0,0,1,.338-.116.439.439,0,0,1,.31.116.414.414,0,0,1,.125.319v.444a1.36,1.36,0,0,1,.537-.62,1.8,1.8,0,0,1,.8-.25Z" transform="translate(41.871 7.178)" fill="#38485c"/>
        <path id="Trazado_27771" data-name="Trazado 27771" d="M7.937,0A7.937,7.937,0,1,1,0,7.937,7.937,7.937,0,0,1,7.937,0Z" transform="translate(21.669 12.787)" fill="#8339aa"/>
        <path id="Trazado_27772" data-name="Trazado 27772" d="M1.764,0H31.747a1.764,1.764,0,0,1,1.764,1.764V12.346a1.764,1.764,0,0,1-1.764,1.764H1.764A1.764,1.764,0,0,1,0,12.346V1.764A1.764,1.764,0,0,1,1.764,0Z" transform="translate(21.669 89.562)" fill="#ffdb2e"/>
        <rect id="Rectángulo_17655" data-name="Rectángulo 17655" width="43.547" height="8.709" rx="4" transform="translate(22.19 46.738)" fill="#505e70"/>
        <rect id="Rectángulo_17656" data-name="Rectángulo 17656" width="90.826" height="6.221" rx="3.11" transform="translate(22.19 59.18)" fill="#d1d8e0"/>
        <rect id="Rectángulo_17657" data-name="Rectángulo 17657" width="90.826" height="6.221" rx="3.11" transform="translate(22.19 67.89)" fill="#d1d8e0"/>
        <rect id="Rectángulo_17659" data-name="Rectángulo 17659" width="79.628" height="6.221" rx="3.11" transform="translate(42.097 24.343)" fill="#9eaab8"/>
        <rect id="Rectángulo_17658" data-name="Rectángulo 17658" width="51.012" height="3.733" rx="1.866" transform="translate(22.19 79.087)" fill="#d1d8e0"/>
        <path id="_Text_Body_1_Selected_On_Surface_Medium_Emphasis_Left_2" data-name="✱ / Text / Body 1 / Selected / On Surface / Medium Emphasis / Left " d="M3.816,7.085a1.1,1.1,0,0,1-.333.811,1.562,1.562,0,0,1-.9.414v.378a.311.311,0,0,1-.084.225A.3.3,0,0,1,2.278,9a.3.3,0,0,1-.222-.087.311.311,0,0,1-.084-.225V8.322A2.716,2.716,0,0,1,1.3,8.178a1.906,1.906,0,0,1-.559-.3.3.3,0,0,1-.108-.12A.391.391,0,0,1,.608,7.6a.351.351,0,0,1,.075-.222.216.216,0,0,1,.171-.1A.289.289,0,0,1,.965,7.3a1.252,1.252,0,0,1,.135.069,2.221,2.221,0,0,0,.544.264,1.86,1.86,0,0,0,.562.084,1.06,1.06,0,0,0,.622-.156.519.519,0,0,0,.219-.45.362.362,0,0,0-.12-.282.874.874,0,0,0-.3-.171q-.18-.063-.5-.147a5.468,5.468,0,0,1-.733-.231A1.271,1.271,0,0,1,.9,5.92a.969.969,0,0,1-.2-.649,1.119,1.119,0,0,1,.348-.829,1.6,1.6,0,0,1,.913-.426V3.637a.311.311,0,0,1,.084-.225.3.3,0,0,1,.222-.087.3.3,0,0,1,.222.087.311.311,0,0,1,.084.225V4.01a2.014,2.014,0,0,1,1.045.438.337.337,0,0,1,.144.282.351.351,0,0,1-.075.222.22.22,0,0,1-.177.1A.314.314,0,0,1,3.4,5.031a.708.708,0,0,1-.135-.072A2.271,2.271,0,0,0,2.8,4.7a1.4,1.4,0,0,0-.52-.087.974.974,0,0,0-.595.165.534.534,0,0,0-.222.453.429.429,0,0,0,.126.321.837.837,0,0,0,.318.189q.192.066.523.15a5.151,5.151,0,0,1,.715.222,1.217,1.217,0,0,1,.472.345A.942.942,0,0,1,3.816,7.085Z" transform="translate(24.45 44.93)" fill="#fff"/>
      </g>
      <path id="Trazado_28201" data-name="Trazado 28201" d="M479.109,262.116a32.045,32.045,0,1,1-32.089-31.956A32.044,32.044,0,0,1,479.109,262.116Z" transform="translate(-440.922 -30.62)" fill="#d1d8e0" opacity="0.25"/>
      <path id="Trazado_28200" data-name="Trazado 28200" d="M487.931,262.051a32,32,0,1,1-32.089-31.911A32,32,0,0,1,487.931,262.051Z" transform="translate(-410.342 -30.689)" fill="#d1d8e0" opacity="0.25"/>
    </g>
  </g>
</svg>
