<svg xmlns="http://www.w3.org/2000/svg" xmlns:xlink="http://www.w3.org/1999/xlink" width="760" height="434.91" viewBox="0 0 760 434.91">
  <defs>
    <filter id="Rectángulo_6577" x="67.311" y="0" width="635.244" height="434.91" filterUnits="userSpaceOnUse">
      <feOffset dy="7.72" input="SourceAlpha"/>
      <feGaussianBlur stdDeviation="28.858" result="blur"/>
      <feFlood flood-color="#202933" flood-opacity="0.6"/>
      <feComposite operator="in" in2="blur"/>
      <feComposite in="SourceGraphic"/>
    </filter>
    <clipPath id="clip-path">
      <ellipse id="Elipse_873" data-name="Elipse 873" cx="31.425" cy="31.425" rx="31.425" ry="31.425" transform="translate(9.941 72) rotate(-99.1)" fill="#e0e0e0"/>
    </clipPath>
  </defs>
  <g id="Grupo_18567" data-name="Grupo 18567" transform="translate(-20 -392.338)">
    <path id="Trazado_10882" data-name="Trazado 10882" d="M0,0H380V760H0Z" transform="translate(20 780) rotate(-90)" fill="#f3f6f9"/>
    <g transform="matrix(1, 0, 0, 1, 20, 392.34)" filter="url(#Rectángulo_6577)">
      <rect id="Rectángulo_6577-2" data-name="Rectángulo 6577" width="462.097" height="261.763" transform="translate(153.88 78.85)" fill="#e2e7eb"/>
    </g>
    <rect id="Rectángulo_6578" data-name="Rectángulo 6578" width="519.022" height="303.581" rx="29.554" transform="translate(145.453 429.776)" fill="#f7f9fc"/>
    <g id="Grupo_18574" data-name="Grupo 18574" transform="translate(0 -17)">
      <g id="Grupo_18541" data-name="Grupo 18541" transform="translate(185.001 468.999)">
        <ellipse id="Elipse_676" data-name="Elipse 676" cx="35.997" cy="35.997" rx="35.997" ry="35.997" transform="translate(0.002 71.996) rotate(-90)" fill="#e0e0e0"/>
        <g id="Enmascarar_grupo_52" data-name="Enmascarar grupo 52" transform="translate(0 0)" clip-path="url(#clip-path)">
          <g id="Grupo_19569" data-name="Grupo 19569" transform="translate(-13.488 40.222)">
            <path id="Trazado_28202" data-name="Trazado 28202" d="M105.858,238.01C100,242.642,94.2,272.752,91.962,276.1c-1.6,2.355-3.605,4.709-3.513,6.037s5.713,7.859,16.344,9.913,21.107-3.019,22.173-4.354-1.737-5.921-1.629-10.036,3.783-26.7,1.544-33.437C124.294,236.59,112.583,232.73,105.858,238.01Z" transform="translate(-63.926 -260.729)" fill="#263238"/>
            <path id="Trazado_28203" data-name="Trazado 28203" d="M138.337,287.868a19.733,19.733,0,0,1-1.6-8.531c.062-3.3.479-6.593.841-9.867q.579-5.18,1.15-10.361c.332-3.05.772-6.13.2-9.172a16.984,16.984,0,0,0-3.76-8s-.085,0-.054.039a18.228,18.228,0,0,1,3.5,7.991c.548,3.258,0,6.585-.347,9.851-.386,3.389-.772,6.771-1.135,10.16-.34,3.088-.726,6.253-.772,9.388,0,2.887.255,6.1,1.791,8.585C138.222,288.046,138.384,287.968,138.337,287.868Z" transform="translate(-74.564 -262.18)" fill="#263238"/>
            <path id="Trazado_28204" data-name="Trazado 28204" d="M106.762,238.469c-2.718,1.475-4.045,4.393-5.134,7.2-1.467,3.806-2.818,7.666-4.084,11.58-1.312,4.007-2.393,8.083-3.683,12.1a42.308,42.308,0,0,1-5.528,10.947c-.054.077,0,.17.108.1,5.057-5.921,6.616-13.9,8.932-21.169q1.922-6.022,4.053-11.966c1.15-3.212,2.316-6.848,5.4-8.693C106.847,238.507,106.8,238.445,106.762,238.469Z" transform="translate(-63.895 -261.388)" fill="#263238"/>
            <path id="Trazado_28205" data-name="Trazado 28205" d="M109.549,237.047c-5.682,2.223-7.929,8.585-9.758,14.012-2.177,6.446-3.744,13.086-5.667,19.61-1.073,3.683-2.046,7.682-4.439,10.739-.069.093.062.208.139.124a22.059,22.059,0,0,0,3.652-7.612c1.042-3.235,1.953-6.508,2.849-9.782,1.791-6.485,3.428-13.179,6.223-19.3,1.475-3.227,3.675-6.377,7.025-7.72C109.61,237.093,109.587,237.008,109.549,237.047Z" transform="translate(-64.203 -261.063)" fill="#263238"/>
            <path id="Trazado_28206" data-name="Trazado 28206" d="M117.131,287.511c5.01,7.188,22.173,25.84,34.039,28.565,6.547,1.49,38.146,5.906,42.462,1.969,5.072-4.632,2.718-22.018-1.312-22.173-12.352-.486-35.089,1.922-40.779.672-2.571-.571-16.213-9.372-30.789-16.413C115.263,277.46,113.9,282.871,117.131,287.511Z" transform="translate(-70.072 -270.725)" fill="#f7a9a0"/>
            <path id="Trazado_28207" data-name="Trazado 28207" d="M185.544,294.909l-2.115,26.048s-28.673-.455-37.328-5.319-22.744-17.278-28.133-25.909-3.59-13.333,6.948-8.021,24.7,13.819,26.589,14.267S185.544,294.909,185.544,294.909Z" transform="translate(-69.983 -270.735)" fill="#ffdb2e"/>
            <path id="Trazado_28208" data-name="Trazado 28208" d="M84.39,334.636c1.544.5,46.275-12.43,46.275-12.43l-5.281-15.526s2.609-4.987,1.4-9.789c-1.614-6.416-13.487-16.985-14.422-17.579-3.744-2.486-7.257-2.44-10.361-.772C89.076,285.388,84.39,334.636,84.39,334.636Z" transform="translate(-63.001 -270.255)" fill="#ffdb2e"/>
            <path id="Trazado_28209" data-name="Trazado 28209" d="M128.539,287.123c1.15,1.336,2.386,2.609,3.575,3.922-.556-.973-1.1-1.961-1.7-2.911h0a21.888,21.888,0,0,1,2.262,3.605,29.338,29.338,0,0,1,2.47,3.15,14.119,14.119,0,0,1,2.03,4.323,11.765,11.765,0,0,1,.185,4.794,30.594,30.594,0,0,1-1.505,5.35c-.085.232-.409.085-.347-.139.842-3.034,1.791-6.23,1.119-9.4s-2.625-5.775-4.524-8.261a45.346,45.346,0,0,0-3.644-4.339C128.384,287.139,128.485,287.062,128.539,287.123Z" transform="translate(-73.042 -272.476)" fill="#263238"/>
            <path id="Trazado_28210" data-name="Trazado 28210" d="M110.819,275.915c.178.811,3.961,6.114,7.659,5.991,1.2-.039,1.266-6.616,1.266-6.616l.116-.486,1.621-6.786-9.064-5.937S110.75,275.567,110.819,275.915Z" transform="translate(-69.026 -266.772)" fill="#f7a9a0"/>
            <path id="Trazado_28211" data-name="Trazado 28211" d="M121.787,268l-1.621,6.786a14.02,14.02,0,0,1-8.006-8.145c.278-2.316.517-4.285.548-4.57a.139.139,0,0,0,0-.039l1.15.695Z" transform="translate(-69.332 -266.76)" fill="#263238"/>
            <path id="Trazado_28212" data-name="Trazado 28212" d="M131.9,254.3c-.772,12.221-8.168,13.124-10.808,12.97-2.386-.147-10.515-.973-11.017-13.209s5.4-15.734,10.916-15.672S132.661,242.057,131.9,254.3Z" transform="translate(-68.849 -261.371)" fill="#f7a9a0"/>
            <path id="Trazado_28213" data-name="Trazado 28213" d="M135.528,257.008a6.968,6.968,0,0,1-.772-.286,1.367,1.367,0,0,1-.772-.44.448.448,0,0,1,.077-.533,1.1,1.1,0,0,1,1.089-.108,1.6,1.6,0,0,1,.911.687.471.471,0,0,1-.533.679Z" transform="translate(-74.294 -265.282)" fill="#263238"/>
            <path id="Trazado_28214" data-name="Trazado 28214" d="M125.5,255.728a7.565,7.565,0,0,0,.842-.062,1.359,1.359,0,0,0,.849-.232.425.425,0,0,0,.069-.525,1.073,1.073,0,0,0-1.019-.394,1.637,1.637,0,0,0-1.065.425.471.471,0,0,0,.324.787Z" transform="translate(-72.27 -265.044)" fill="#263238"/>
            <path id="Trazado_28215" data-name="Trazado 28215" d="M127.215,258.74a.078.078,0,0,0-.077.069c-.062.834-.278,1.776-1.058,1.969v.046C127.014,260.794,127.284,259.543,127.215,258.74Z" transform="translate(-72.505 -266.01)" fill="#263238"/>
            <path id="Trazado_28216" data-name="Trazado 28216" d="M126.346,257.515c-1.32-.247-1.722,2.409-.494,2.64S127.458,257.724,126.346,257.515Z" transform="translate(-72.285 -265.727)" fill="#263238"/>
            <path id="Trazado_28217" data-name="Trazado 28217" d="M125.53,257.511c-.255.116-.525.347-.811.332s-.533-.332-.7-.633h-.054c-.077.51,0,1.065.571,1.22s.919-.255,1.119-.772C125.7,257.619,125.638,257.465,125.53,257.511Z" transform="translate(-72.017 -265.662)" fill="#263238"/>
            <path id="Trazado_28218" data-name="Trazado 28218" d="M133.4,259.36s.054.046.046.085c-.154.818-.193,1.783.51,2.169v.046C133.048,261.4,133.118,260.109,133.4,259.36Z" transform="translate(-74.131 -266.152)" fill="#263238"/>
            <path id="Trazado_28219" data-name="Trazado 28219" d="M134.275,258.4c1.343.108,1.027,2.779-.208,2.679S133.156,258.307,134.275,258.4Z" transform="translate(-74.146 -265.932)" fill="#263238"/>
            <path id="Trazado_28220" data-name="Trazado 28220" d="M135.232,258.7c.193.17.371.448.625.494s.54-.208.772-.463h.039c-.046.517-.278,1.027-.772,1.065s-.733-.44-.772-.965C135.062,258.774,135.155,258.635,135.232,258.7Z" transform="translate(-74.562 -265.998)" fill="#263238"/>
            <path id="Trazado_28221" data-name="Trazado 28221" d="M126.024,267.989c.154.232.3.533.594.61a2.06,2.06,0,0,0,.919,0s.046,0,0,.046a1.12,1.12,0,0,1-1.127.247.9.9,0,0,1-.5-.849.064.064,0,1,1,.116-.054Z" transform="translate(-72.464 -268.111)" fill="#263238"/>
            <path id="Trazado_28222" data-name="Trazado 28222" d="M130.182,262.366s0,1.251-.077,1.837c0,.054-.154.062-.355.046h0a2.787,2.787,0,0,1-2.54-1.4.062.062,0,0,1,.093-.07,4.246,4.246,0,0,0,2.432,1.065c.062-.154-.077-2.146,0-2.146a5.406,5.406,0,0,1,1.282.486c.077-2.617-.27-5.227-.162-7.836a.085.085,0,0,1,.162,0,42.384,42.384,0,0,1,.525,8.431C131.54,263.092,130.4,262.5,130.182,262.366Z" transform="translate(-72.762 -264.997)" fill="#263238"/>
            <path id="Trazado_28223" data-name="Trazado 28223" d="M109.875,254.383a5.072,5.072,0,0,0,3.636-3.436,13.125,13.125,0,0,0,6.176-3.088c-.139.232-1.1,1.891-1.614,2.725a13.656,13.656,0,0,0,11.526-5.119,13.518,13.518,0,0,1,2.316,5.543s1.058-4.632-.679-8.307a7.72,7.72,0,0,0-6.284-4.594,11.017,11.017,0,0,0-11.21.988C107.558,243.4,109.875,254.383,109.875,254.383Z" transform="translate(-68.714 -261.059)" fill="#263238"/>
            <path id="Trazado_28224" data-name="Trazado 28224" d="M127.175,252.673a14.53,14.53,0,0,1-4.215.6h0a12.229,12.229,0,0,0,6.315-2.177,11.867,11.867,0,0,0,2.131-1.946,8.037,8.037,0,0,0,1.637-2.687.062.062,0,1,1,.116,0,9.264,9.264,0,0,1-1.251,2.872,8.492,8.492,0,0,1-2.231,2.162,9.72,9.72,0,0,1-2.5,1.166" transform="translate(-71.794 -263.193)" fill="#263238"/>
            <path id="Trazado_28225" data-name="Trazado 28225" d="M111.082,258.945s-2.069-4.177-3.93-3.5-.695,6.462,1.212,7.52a2.061,2.061,0,0,0,2.9-.687Z" transform="translate(-67.976 -265.243)" fill="#f7a9a0"/>
            <path id="Trazado_28226" data-name="Trazado 28226" d="M107.914,257.64s-.046.039,0,.054a5.2,5.2,0,0,1,2.193,3.636,1.143,1.143,0,0,0-1.644-.564.046.046,0,0,0,0,.085,1.258,1.258,0,0,1,1.32.648,5.613,5.613,0,0,1,.494,1.22c.046.131.286.1.262-.054h0C110.84,260.836,109.821,258.111,107.914,257.64Z" transform="translate(-68.359 -265.76)" fill="#263238"/>
            <path id="Trazado_28227" data-name="Trazado 28227" d="M98.013,290.4c-3.59,20.389-.116,35.66,3.343,37.552,9.326,5.1,31.715-5.234,38.038-7.288,2.548-.826-9.087-20.351-11.7-19.146-6.138,2.833-14.738,7.651-15.085,7.612-.695-.069-1.5-5.273-5.065-20.443C104.668,276.442,99.487,282.086,98.013,290.4Z" transform="translate(-65.761 -271.221)" fill="#f7a9a0"/>
            <path id="Trazado_28228" data-name="Trazado 28228" d="M127.034,301.32l10.754,22.929s-33.274,9.7-37.783,3.86-4.2-24.211-2.084-36.918,7.836-12.955,10.337-1.467,3.984,18.745,4.431,18.683S127.034,301.32,127.034,301.32Z" transform="translate(-65.746 -271.17)" fill="#ffdb2e"/>
          </g>
        </g>
      </g>
      <text id="Heraldo" transform="translate(281 509)" fill="#505e70" font-size="32" font-family="Nunito-Bold, Nunito" font-weight="700"><tspan x="0" y="0">Heraldo</tspan></text>
      <text id="Escenario" transform="translate(446 496)" fill="#505e70" font-size="8" font-family="Nunito-Bold, Nunito" font-weight="700" letter-spacing="0.01em"><tspan x="0" y="0">Escenario</tspan></text>
      <text id="Expectativas" transform="translate(529 496)" fill="#505e70" font-size="8" font-family="Nunito-Bold, Nunito" font-weight="700" letter-spacing="0.01em"><tspan x="0" y="0">Expectativas</tspan></text>
      <rect id="Rectángulo_6599" data-name="Rectángulo 6599" width="50" height="8" rx="4" transform="translate(282 520)" fill="#9eaab8" opacity="0.25"/>
      <rect id="Rectángulo_6601" data-name="Rectángulo 6601" width="50" height="4" rx="2" transform="translate(446 503)" fill="#9eaab8" opacity="0.25"/>
      <rect id="Rectángulo_6606" data-name="Rectángulo 6606" width="50" height="4" rx="2" transform="translate(533 503)" fill="#9eaab8" opacity="0.25"/>
      <rect id="Rectángulo_6612" data-name="Rectángulo 6612" width="52" height="4" rx="2" transform="translate(533 539)" fill="#9eaab8" opacity="0.25"/>
      <rect id="Rectángulo_6610" data-name="Rectángulo 6610" width="46" height="4" rx="2" transform="translate(533 521)" fill="#9eaab8" opacity="0.25"/>
      <rect id="Rectángulo_6608" data-name="Rectángulo 6608" width="38" height="4" rx="2" transform="translate(533 511)" fill="#9eaab8" opacity="0.25"/>
      <rect id="Rectángulo_6609" data-name="Rectángulo 6609" width="41" height="4" rx="2" transform="translate(533 529)" fill="#9eaab8" opacity="0.25"/>
      <rect id="Rectángulo_6607" data-name="Rectángulo 6607" width="2" height="2" rx="1" transform="translate(529 504)" fill="#007bc7" opacity="0.25"/>
      <rect id="Rectángulo_6613" data-name="Rectángulo 6613" width="2" height="2" rx="1" transform="translate(529 540)" fill="#007bc7" opacity="0.25"/>
      <rect id="Rectángulo_6611" data-name="Rectángulo 6611" width="2" height="2" rx="1" transform="translate(529 522)" fill="#007bc7" opacity="0.25"/>
      <rect id="Rectángulo_6602" data-name="Rectángulo 6602" width="54" height="4" rx="2" transform="translate(446 511)" fill="#9eaab8" opacity="0.25"/>
      <rect id="Rectángulo_6603" data-name="Rectángulo 6603" width="47" height="4" rx="2" transform="translate(446 519)" fill="#9eaab8" opacity="0.25"/>
      <rect id="Rectángulo_6604" data-name="Rectángulo 6604" width="49" height="4" rx="2" transform="translate(446 527)" fill="#9eaab8" opacity="0.25"/>
      <rect id="Rectángulo_6605" data-name="Rectángulo 6605" width="33" height="4" rx="2" transform="translate(446 535)" fill="#9eaab8" opacity="0.25"/>
      <rect id="Rectángulo_6600" data-name="Rectángulo 6600" width="78" height="8" rx="4" transform="translate(282 532)" fill="#9eaab8" opacity="0.25"/>
    </g>
    <rect id="Rectángulo_6629" data-name="Rectángulo 6629" width="119" height="182.457" rx="18.263" transform="translate(359 541.876)" fill="#f5d8e3" opacity="0.5"/>
    <rect id="Rectángulo_6630" data-name="Rectángulo 6630" width="208.547" height="182.457" rx="18.263" transform="translate(148.453 541.876)" fill="#dff1fd" opacity="0.5"/>
    <rect id="Rectángulo_6631" data-name="Rectángulo 6631" width="180.476" height="182.457" rx="18.263" transform="translate(480 541.876)" fill="#e4f2d5" opacity="0.5"/>
    <rect id="Rectángulo_6632" data-name="Rectángulo 6632" width="50" height="8" rx="4" transform="translate(160 550)" fill="#007bc7" opacity="0.25"/>
    <rect id="Rectángulo_6633" data-name="Rectángulo 6633" width="63" height="8" rx="4" transform="translate(371 550)" fill="#c93b3b" opacity="0.25"/>
    <rect id="Rectángulo_6634" data-name="Rectángulo 6634" width="63" height="8" rx="4" transform="translate(492 550)" fill="#26874a" opacity="0.25"/>
    <g id="Grupo_18573" data-name="Grupo 18573" transform="translate(0 5.333)">
      <path id="Trazado_11039" data-name="Trazado 11039" d="M264.551,663.847s31.7-5.911,42.667,17.512,50.843,30.871,65.111,17.23,42.85-42.836,64.158-45.36,35.483,5.327,43.248,28.13,2.362,59.252,22.724,62.647,25.954-43.587,58.829-85.071,56.772-40.157,77.3-32.107,24.939,47.892,28.949,62.091,19.624,39.408,44.289,23.391,17.989-25.64,48.378-34.863" transform="translate(-111.097 -64)" fill="none" stroke="#a0aab7" stroke-width="1"/>
      <g id="Grupo_18567-2" data-name="Grupo 18567" transform="translate(-1104.117 -621)">
        <circle id="Elipse_877" data-name="Elipse 877" cx="10" cy="10" r="10" transform="translate(1257.57 1211)" fill="#ffdb2e"/>
        <g id="Grupo_18554" data-name="Grupo 18554" transform="translate(1263.591 1219.999)" opacity="0.3">
          <path id="Trazado_11021" data-name="Trazado 11021" d="M175.14,62.37c.085,0,.19.25.25.761a7.06,7.06,0,0,1-.1,2.134,9.306,9.306,0,0,1-.4,1.437,10.031,10.031,0,0,1-.749,1.552,9.276,9.276,0,0,1-6.314,4.447,10.062,10.062,0,0,1-1.712.175,9.407,9.407,0,0,1-1.5-.11,7.077,7.077,0,0,1-2.044-.621c-.449-.23-.664-.417-.631-.5.075-.19,1.1.162,2.76.2a11.554,11.554,0,0,0,1.345-.052,11,11,0,0,0,1.5-.267,9.216,9.216,0,0,0,5.558-3.916,10.94,10.94,0,0,0,.764-1.33,12.559,12.559,0,0,0,.5-1.248C174.93,63.458,174.93,62.375,175.14,62.37Z" transform="translate(-161.937 -62.37)" fill="#505e70"/>
        </g>
        <g id="Grupo_18555" data-name="Grupo 18555" transform="translate(1258.116 1211.611)" opacity="0.3">
          <path id="Trazado_11022" data-name="Trazado 11022" d="M149,28.908c0,.11-.878.057-2.2.4a8.9,8.9,0,0,0-2.2.9,8.061,8.061,0,0,0-3.644,4.345,8.985,8.985,0,0,0-.5,2.323c-.107,1.363.1,2.216,0,2.246-.04,0-.137-.19-.25-.576a6.618,6.618,0,0,1-.2-1.682,8.126,8.126,0,0,1,.4-2.5,8,8,0,0,1,3.921-4.677,8.1,8.1,0,0,1,2.391-.829,6.611,6.611,0,0,1,1.692-.092C148.789,28.818,149,28.865,149,28.908Z" transform="translate(-139.999 -28.758)" fill="#fff"/>
        </g>
        <g id="Grupo_18556" data-name="Grupo 18556" transform="translate(1258.634 1222.946)" opacity="0.3">
          <path id="Trazado_11023" data-name="Trazado 11023" d="M142.787,75.651c-.147.1-.484-.147-.639-.6s-.045-.858.13-.871.354.289.484.659S142.939,75.554,142.787,75.651Z" transform="translate(-142.074 -74.179)" fill="#fff"/>
        </g>
        <path id="Trazado_11024" data-name="Trazado 11024" d="M171.006,61.406a2.163,2.163,0,0,1-.626.906,3.714,3.714,0,0,1-4.944.25,2.122,2.122,0,0,1-.711-.836,8.137,8.137,0,0,0,.821.689,3.776,3.776,0,0,0,4.712-.235C170.757,61.748,170.969,61.381,171.006,61.406Z" transform="translate(1099.563 1158.353)" fill="none" stroke="#505e71" stroke-width="1"/>
        <path id="Trazado_11025" data-name="Trazado 11025" d="M156.7,51.84a.9.9,0,0,0-.908-.479.6.6,0,0,0-.309.1h0a.973.973,0,0,0-.364.938.876.876,0,0,0,1.113.631.9.9,0,0,0,.469-1.2Z" transform="translate(1106.784 1165.896)" fill="#505e70"/>
        <path id="Trazado_11026" data-name="Trazado 11026" d="M194.832,51.968a.9.9,0,0,0-.906-.477.589.589,0,0,0-.309.1h0a.983.983,0,0,0-.367.938.876.876,0,0,0,1.116.631.9.9,0,0,0,.467-1.2Z" transform="translate(1078.166 1165.798)" fill="#505e70"/>
      </g>
      <g id="Grupo_18571" data-name="Grupo 18571" transform="translate(-686.57 -570)">
        <circle id="Elipse_877-2" data-name="Elipse 877" cx="10" cy="10" r="10" transform="translate(1257.57 1211)" fill="#ffdb2e"/>
        <g id="Grupo_18554-2" data-name="Grupo 18554" transform="translate(1263.591 1219.999)" opacity="0.3">
          <path id="Trazado_11021-2" data-name="Trazado 11021" d="M175.14,62.37c.085,0,.19.25.25.761a7.06,7.06,0,0,1-.1,2.134,9.306,9.306,0,0,1-.4,1.437,10.031,10.031,0,0,1-.749,1.552,9.276,9.276,0,0,1-6.314,4.447,10.062,10.062,0,0,1-1.712.175,9.407,9.407,0,0,1-1.5-.11,7.077,7.077,0,0,1-2.044-.621c-.449-.23-.664-.417-.631-.5.075-.19,1.1.162,2.76.2a11.554,11.554,0,0,0,1.345-.052,11,11,0,0,0,1.5-.267,9.216,9.216,0,0,0,5.558-3.916,10.94,10.94,0,0,0,.764-1.33,12.559,12.559,0,0,0,.5-1.248C174.93,63.458,174.93,62.375,175.14,62.37Z" transform="translate(-161.937 -62.37)" fill="#505e70"/>
        </g>
        <g id="Grupo_18555-2" data-name="Grupo 18555" transform="translate(1258.116 1211.611)" opacity="0.3">
          <path id="Trazado_11022-2" data-name="Trazado 11022" d="M149,28.908c0,.11-.878.057-2.2.4a8.9,8.9,0,0,0-2.2.9,8.061,8.061,0,0,0-3.644,4.345,8.985,8.985,0,0,0-.5,2.323c-.107,1.363.1,2.216,0,2.246-.04,0-.137-.19-.25-.576a6.618,6.618,0,0,1-.2-1.682,8.126,8.126,0,0,1,.4-2.5,8,8,0,0,1,3.921-4.677,8.1,8.1,0,0,1,2.391-.829,6.611,6.611,0,0,1,1.692-.092C148.789,28.818,149,28.865,149,28.908Z" transform="translate(-139.999 -28.758)" fill="#fff"/>
        </g>
        <g id="Grupo_18556-2" data-name="Grupo 18556" transform="translate(1258.634 1222.946)" opacity="0.3">
          <path id="Trazado_11023-2" data-name="Trazado 11023" d="M142.787,75.651c-.147.1-.484-.147-.639-.6s-.045-.858.13-.871.354.289.484.659S142.939,75.554,142.787,75.651Z" transform="translate(-142.074 -74.179)" fill="#fff"/>
        </g>
        <path id="Trazado_11024-2" data-name="Trazado 11024" d="M171.006,61.406a2.163,2.163,0,0,1-.626.906,3.714,3.714,0,0,1-4.944.25,2.122,2.122,0,0,1-.711-.836,8.137,8.137,0,0,0,.821.689,3.776,3.776,0,0,0,4.712-.235C170.757,61.748,170.969,61.381,171.006,61.406Z" transform="translate(1435.295 1283.144) rotate(180)" fill="none" stroke="#505e71" stroke-width="1"/>
        <path id="Trazado_11025-2" data-name="Trazado 11025" d="M156.7,51.84a.9.9,0,0,0-.908-.479.6.6,0,0,0-.309.1h0a.973.973,0,0,0-.364.938.876.876,0,0,0,1.113.631.9.9,0,0,0,.469-1.2Z" transform="translate(1106.784 1165.896)" fill="#505e70"/>
        <path id="Trazado_11026-2" data-name="Trazado 11026" d="M194.832,51.968a.9.9,0,0,0-.906-.477.589.589,0,0,0-.309.1h0a.983.983,0,0,0-.367.938.876.876,0,0,0,1.116.631.9.9,0,0,0,.467-1.2Z" transform="translate(1078.166 1165.798)" fill="#505e70"/>
      </g>
      <g id="Grupo_18568" data-name="Grupo 18568" transform="translate(-621.094 -607)">
        <circle id="Elipse_877-3" data-name="Elipse 877" cx="10" cy="10" r="10" transform="translate(1257.57 1211)" fill="#ffdb2e"/>
        <g id="Grupo_18554-3" data-name="Grupo 18554" transform="translate(1263.591 1219.999)" opacity="0.3">
          <path id="Trazado_11021-3" data-name="Trazado 11021" d="M175.14,62.37c.085,0,.19.25.25.761a7.06,7.06,0,0,1-.1,2.134,9.306,9.306,0,0,1-.4,1.437,10.031,10.031,0,0,1-.749,1.552,9.276,9.276,0,0,1-6.314,4.447,10.062,10.062,0,0,1-1.712.175,9.407,9.407,0,0,1-1.5-.11,7.077,7.077,0,0,1-2.044-.621c-.449-.23-.664-.417-.631-.5.075-.19,1.1.162,2.76.2a11.554,11.554,0,0,0,1.345-.052,11,11,0,0,0,1.5-.267,9.216,9.216,0,0,0,5.558-3.916,10.94,10.94,0,0,0,.764-1.33,12.559,12.559,0,0,0,.5-1.248C174.93,63.458,174.93,62.375,175.14,62.37Z" transform="translate(-161.937 -62.37)" fill="#505e70"/>
        </g>
        <g id="Grupo_18555-3" data-name="Grupo 18555" transform="translate(1258.116 1211.611)" opacity="0.3">
          <path id="Trazado_11022-3" data-name="Trazado 11022" d="M149,28.908c0,.11-.878.057-2.2.4a8.9,8.9,0,0,0-2.2.9,8.061,8.061,0,0,0-3.644,4.345,8.985,8.985,0,0,0-.5,2.323c-.107,1.363.1,2.216,0,2.246-.04,0-.137-.19-.25-.576a6.618,6.618,0,0,1-.2-1.682,8.126,8.126,0,0,1,.4-2.5,8,8,0,0,1,3.921-4.677,8.1,8.1,0,0,1,2.391-.829,6.611,6.611,0,0,1,1.692-.092C148.789,28.818,149,28.865,149,28.908Z" transform="translate(-139.999 -28.758)" fill="#fff"/>
        </g>
        <g id="Grupo_18556-3" data-name="Grupo 18556" transform="translate(1258.634 1222.946)" opacity="0.3">
          <path id="Trazado_11023-3" data-name="Trazado 11023" d="M142.787,75.651c-.147.1-.484-.147-.639-.6s-.045-.858.13-.871.354.289.484.659S142.939,75.554,142.787,75.651Z" transform="translate(-142.074 -74.179)" fill="#fff"/>
        </g>
        <path id="Trazado_11024-3" data-name="Trazado 11024" d="M171.006,61.405a1.667,1.667,0,0,1-.626.208,14.145,14.145,0,0,1-4.944.057,2.362,2.362,0,0,1-.711-.192c.022,0,.282.072.821.158a14.659,14.659,0,0,0,4.712-.054C170.757,61.484,170.969,61.4,171.006,61.405Z" transform="matrix(0.999, -0.052, 0.052, 0.999, 1096.564, 1168.629)" fill="none" stroke="#505e70" stroke-width="1"/>
        <path id="Trazado_11025-3" data-name="Trazado 11025" d="M156.7,51.84a.9.9,0,0,0-.908-.479.6.6,0,0,0-.309.1h0a.973.973,0,0,0-.364.938.876.876,0,0,0,1.113.631.9.9,0,0,0,.469-1.2Z" transform="translate(1106.784 1165.896)" fill="#505e70"/>
        <path id="Trazado_11026-3" data-name="Trazado 11026" d="M194.832,51.968a.9.9,0,0,0-.906-.477.589.589,0,0,0-.309.1h0a.983.983,0,0,0-.367.938.876.876,0,0,0,1.116.631.9.9,0,0,0,.467-1.2Z" transform="translate(1078.166 1165.798)" fill="#505e70"/>
      </g>
      <g id="Grupo_18570" data-name="Grupo 18570" transform="translate(-1028.569 -582)">
        <circle id="Elipse_877-4" data-name="Elipse 877" cx="10" cy="10" r="10" transform="translate(1257.57 1211)" fill="#ffdb2e"/>
        <g id="Grupo_18554-4" data-name="Grupo 18554" transform="translate(1263.591 1219.999)" opacity="0.3">
          <path id="Trazado_11021-4" data-name="Trazado 11021" d="M175.14,62.37c.085,0,.19.25.25.761a7.06,7.06,0,0,1-.1,2.134,9.306,9.306,0,0,1-.4,1.437,10.031,10.031,0,0,1-.749,1.552,9.276,9.276,0,0,1-6.314,4.447,10.062,10.062,0,0,1-1.712.175,9.407,9.407,0,0,1-1.5-.11,7.077,7.077,0,0,1-2.044-.621c-.449-.23-.664-.417-.631-.5.075-.19,1.1.162,2.76.2a11.554,11.554,0,0,0,1.345-.052,11,11,0,0,0,1.5-.267,9.216,9.216,0,0,0,5.558-3.916,10.94,10.94,0,0,0,.764-1.33,12.559,12.559,0,0,0,.5-1.248C174.93,63.458,174.93,62.375,175.14,62.37Z" transform="translate(-161.937 -62.37)" fill="#505e70"/>
        </g>
        <g id="Grupo_18555-4" data-name="Grupo 18555" transform="translate(1258.116 1211.611)" opacity="0.3">
          <path id="Trazado_11022-4" data-name="Trazado 11022" d="M149,28.908c0,.11-.878.057-2.2.4a8.9,8.9,0,0,0-2.2.9,8.061,8.061,0,0,0-3.644,4.345,8.985,8.985,0,0,0-.5,2.323c-.107,1.363.1,2.216,0,2.246-.04,0-.137-.19-.25-.576a6.618,6.618,0,0,1-.2-1.682,8.126,8.126,0,0,1,.4-2.5,8,8,0,0,1,3.921-4.677,8.1,8.1,0,0,1,2.391-.829,6.611,6.611,0,0,1,1.692-.092C148.789,28.818,149,28.865,149,28.908Z" transform="translate(-139.999 -28.758)" fill="#fff"/>
        </g>
        <g id="Grupo_18556-4" data-name="Grupo 18556" transform="translate(1258.634 1222.946)" opacity="0.3">
          <path id="Trazado_11023-4" data-name="Trazado 11023" d="M142.787,75.651c-.147.1-.484-.147-.639-.6s-.045-.858.13-.871.354.289.484.659S142.939,75.554,142.787,75.651Z" transform="translate(-142.074 -74.179)" fill="#fff"/>
        </g>
        <path id="Trazado_11024-4" data-name="Trazado 11024" d="M171.006,61.569a3.852,3.852,0,0,0-.626-.075,38.966,38.966,0,0,0-4.944-.021,5.81,5.81,0,0,0-.711.069c.022,0,.282-.026.821-.057a40.426,40.426,0,0,1,4.712.019C170.757,61.541,170.969,61.571,171.006,61.569Z" transform="translate(1099.559 1159.595)" fill="none" stroke="#505e70" stroke-width="1"/>
        <path id="Trazado_11025-4" data-name="Trazado 11025" d="M156.7,51.84a.9.9,0,0,0-.908-.479.6.6,0,0,0-.309.1h0a.973.973,0,0,0-.364.938.876.876,0,0,0,1.113.631.9.9,0,0,0,.469-1.2Z" transform="translate(1106.784 1165.896)" fill="#505e70"/>
        <path id="Trazado_11026-4" data-name="Trazado 11026" d="M194.832,51.968a.9.9,0,0,0-.906-.477.589.589,0,0,0-.309.1h0a.983.983,0,0,0-.367.938.876.876,0,0,0,1.116.631.9.9,0,0,0,.467-1.2Z" transform="translate(1078.166 1165.798)" fill="#505e70"/>
      </g>
      <g id="Grupo_18566" data-name="Grupo 18566" transform="translate(-966.383 -902.344)">
        <circle id="Elipse_879" data-name="Elipse 879" cx="10.023" cy="10.023" r="10.023" transform="translate(1456.36 1450.22)" fill="#ffdb2e"/>
        <g id="Grupo_18560" data-name="Grupo 18560" transform="translate(1462.416 1459.239)" opacity="0.3">
          <path id="Trazado_11033" data-name="Trazado 11033" d="M370.035,295.65c.156,0,.329.255.458.77a6.17,6.17,0,0,1,.048,2.222,8.909,8.909,0,0,1-1.087,3.159,9.349,9.349,0,0,1-6.627,4.668,8.963,8.963,0,0,1-3.342-.036,6.094,6.094,0,0,1-2.078-.794c-.443-.3-.632-.545-.572-.689.135-.32,1.2-.1,2.8-.165a11.535,11.535,0,0,0,2.725-.422,9.352,9.352,0,0,0,5.27-3.71,11.509,11.509,0,0,0,1.315-2.426C369.54,296.74,369.69,295.668,370.035,295.65Z" transform="translate(-356.824 -295.65)" fill="#505e70"/>
        </g>
        <g id="Grupo_18561" data-name="Grupo 18561" transform="translate(1456.854 1450.792)" opacity="0.3">
          <path id="Trazado_11034" data-name="Trazado 11034" d="M347.323,267.63c0,.129-.88.093-2.2.449a9.061,9.061,0,0,0-2.186.913,8.118,8.118,0,0,0-3.623,4.324,8.966,8.966,0,0,0-.515,2.309c-.12,1.36.069,2.216-.057,2.246a3.85,3.85,0,0,1-.494-2.267,8.145,8.145,0,0,1,6.759-8.064A3.881,3.881,0,0,1,347.323,267.63Z" transform="translate(-338.249 -267.442)" fill="#fff"/>
        </g>
        <g id="Grupo_18562" data-name="Grupo 18562" transform="translate(1457.372 1462.188)" opacity="0.3">
          <path id="Trazado_11035" data-name="Trazado 11035" d="M340.75,306.98c-.177.117-.542-.123-.7-.584s-.021-.877.192-.9.416.279.545.641S340.932,306.86,340.75,306.98Z" transform="translate(-339.98 -305.497)" fill="#fff"/>
        </g>
        <path id="Trazado_11036" data-name="Trazado 11036" d="M361.288,297.372a4.285,4.285,0,0,0,2.764-1.237,2.489,2.489,0,0,0,.725-1.692,1.33,1.33,0,0,0-1.084-1.234,1.911,1.911,0,0,0-1.18.383,3.636,3.636,0,0,1-1.114.581,2.928,2.928,0,0,1-1.746-.335,3.176,3.176,0,0,0-1.743-.374,1.147,1.147,0,0,0-.955.653,1.622,1.622,0,0,0,.3,1.527,4.468,4.468,0,0,0,4.034,1.728Z" transform="translate(1105.553 1165.3)" fill="#505e70"/>
        <path id="Trazado_11037" data-name="Trazado 11037" d="M352.694,286.936a.9.9,0,0,0-.9-.479.6.6,0,0,0-.3.1h0a.988.988,0,0,0-.368.943.839.839,0,1,0,1.566-.569Z" transform="translate(1109.592 1170.034)" fill="#505e70"/>
        <path id="Trazado_11038" data-name="Trazado 11038" d="M384.544,287.042a.9.9,0,0,0-.9-.476.6.6,0,0,0-.3.1h0a.982.982,0,0,0-.368.94.877.877,0,0,0,1.117.632.9.9,0,0,0,.449-1.2Z" transform="translate(1087.279 1169.957)" fill="#505e70"/>
      </g>
      <g id="Grupo_18572" data-name="Grupo 18572" transform="translate(-874.57 -541)">
        <circle id="Elipse_877-5" data-name="Elipse 877" cx="10" cy="10" r="10" transform="translate(1257.57 1211)" fill="#f0a25c"/>
        <g id="Grupo_18554-5" data-name="Grupo 18554" transform="translate(1263.591 1219.999)" opacity="0.3">
          <path id="Trazado_11021-5" data-name="Trazado 11021" d="M175.14,62.37c.085,0,.19.25.25.761a7.06,7.06,0,0,1-.1,2.134,9.306,9.306,0,0,1-.4,1.437,10.031,10.031,0,0,1-.749,1.552,9.276,9.276,0,0,1-6.314,4.447,10.062,10.062,0,0,1-1.712.175,9.407,9.407,0,0,1-1.5-.11,7.077,7.077,0,0,1-2.044-.621c-.449-.23-.664-.417-.631-.5.075-.19,1.1.162,2.76.2a11.554,11.554,0,0,0,1.345-.052,11,11,0,0,0,1.5-.267,9.216,9.216,0,0,0,5.558-3.916,10.94,10.94,0,0,0,.764-1.33,12.559,12.559,0,0,0,.5-1.248C174.93,63.458,174.93,62.375,175.14,62.37Z" transform="translate(-161.937 -62.37)" fill="#505e70"/>
        </g>
        <g id="Grupo_18556-5" data-name="Grupo 18556" transform="translate(1258.634 1222.946)" opacity="0.3">
          <path id="Trazado_11023-5" data-name="Trazado 11023" d="M142.787,75.651c-.147.1-.484-.147-.639-.6s-.045-.858.13-.871.354.289.484.659S142.939,75.554,142.787,75.651Z" transform="translate(-142.074 -74.179)" fill="#fff"/>
        </g>
        <path id="Trazado_11024-5" data-name="Trazado 11024" d="M171.006,61.407a2.61,2.61,0,0,1-.626,1.058,3.331,3.331,0,0,1-4.944.291,2.459,2.459,0,0,1-.711-.976,8.635,8.635,0,0,0,.821.8,3.367,3.367,0,0,0,4.712-.274C170.757,61.806,170.969,61.377,171.006,61.407Z" transform="translate(1435.295 1285.144) rotate(180)" fill="none" stroke="#505e71" stroke-width="1"/>
        <path id="Sustracción_1" data-name="Sustracción 1" d="M.566,10.37v0A6.689,6.689,0,0,1,0,7.68C0,3.445,4.037,0,9,0s9,3.445,9,7.68a6.664,6.664,0,0,1-.566,2.686,7.973,7.973,0,0,0-3.248-3.587A10.034,10.034,0,0,0,9,5.376a10.033,10.033,0,0,0-5.186,1.4A7.96,7.96,0,0,0,.567,10.368Z" transform="translate(1258.57 1211.611)" fill="#ffdb2e" opacity="0.7"/>
        <path id="Trazado_11025-5" data-name="Trazado 11025" d="M157.391,51.84a1.5,1.5,0,0,0-1.3-.479,1.12,1.12,0,0,0-.444.1h0a.855.855,0,0,0-.522.938.991.991,0,0,0,.6.557,1.747,1.747,0,0,0,.994.074,1.159,1.159,0,0,0,.7-.5A.655.655,0,0,0,157.391,51.84Z" transform="translate(1156.001 1094.852) rotate(31)" fill="#505e70"/>
        <path id="Trazado_11026-5" data-name="Trazado 11026" d="M195.342,51.968a1.32,1.32,0,0,0-1.2-.477.952.952,0,0,0-.408.1h0a.882.882,0,0,0-.484.938.949.949,0,0,0,.555.558,1.488,1.488,0,0,0,.917.073,1.076,1.076,0,0,0,.64-.5.7.7,0,0,0-.024-.7Z" transform="translate(1077.482 1271.982) rotate(-30)" fill="#505e70"/>
        <g id="Grupo_18555-5" data-name="Grupo 18555" transform="translate(1258.116 1211.611)" opacity="0.3">
          <path id="Trazado_11022-5" data-name="Trazado 11022" d="M149,28.908c0,.11-.878.057-2.2.4a8.9,8.9,0,0,0-2.2.9,8.061,8.061,0,0,0-3.644,4.345,8.985,8.985,0,0,0-.5,2.323c-.107,1.363.1,2.216,0,2.246-.04,0-.137-.19-.25-.576a6.618,6.618,0,0,1-.2-1.682,8.126,8.126,0,0,1,.4-2.5,8,8,0,0,1,3.921-4.677,8.1,8.1,0,0,1,2.391-.829,6.611,6.611,0,0,1,1.692-.092C148.789,28.818,149,28.865,149,28.908Z" transform="translate(-139.999 -28.758)" fill="#fff"/>
        </g>
      </g>
      <rect id="Rectángulo_6615" data-name="Rectángulo 6615" width="30" height="4" rx="2" transform="translate(150 614)" fill="#8bb0c7" opacity="0.25"/>
      <rect id="Rectángulo_6619" data-name="Rectángulo 6619" width="30" height="4" rx="2" transform="translate(317 602)" fill="#8bb0c7" opacity="0.25"/>
      <rect id="Rectángulo_6621" data-name="Rectángulo 6621" width="40" height="4" rx="2" transform="translate(373 694)" fill="#bfa3a3" opacity="0.25"/>
      <rect id="Rectángulo_6617" data-name="Rectángulo 6617" width="30" height="4" rx="2" transform="translate(224 653)" fill="#8bb0c7" opacity="0.25"/>
      <rect id="Rectángulo_6624" data-name="Rectángulo 6624" width="30" height="4" rx="2" transform="translate(566 665)" fill="#8fb39c" opacity="0.25"/>
      <rect id="Rectángulo_6622" data-name="Rectángulo 6622" width="29" height="4" rx="2" transform="translate(485 572)" fill="#8fb39c" opacity="0.25"/>
      <rect id="Rectángulo_6626" data-name="Rectángulo 6626" width="29" height="4" rx="2" transform="translate(630 628)" fill="#8fb39c" opacity="0.25"/>
      <rect id="Rectángulo_6628" data-name="Rectángulo 6628" width="20" height="4" rx="2" transform="translate(630 640)" fill="#8fb39c" opacity="0.25"/>
      <rect id="Rectángulo_6616" data-name="Rectángulo 6616" width="20" height="4" rx="2" transform="translate(150 620)" fill="#8bb0c7" opacity="0.25"/>
      <rect id="Rectángulo_6620" data-name="Rectángulo 6620" width="13" height="4" rx="2" transform="translate(317 608)" fill="#8bb0c7" opacity="0.25"/>
      <rect id="Rectángulo_6618" data-name="Rectángulo 6618" width="26" height="4" rx="2" transform="translate(224 659)" fill="#8bb0c7" opacity="0.25"/>
      <rect id="Rectángulo_6625" data-name="Rectángulo 6625" width="18" height="4" rx="2" transform="translate(566 671)" fill="#8fb39c" opacity="0.25"/>
      <rect id="Rectángulo_6623" data-name="Rectángulo 6623" width="33" height="4" rx="2" transform="translate(485 578)" fill="#8fb39c" opacity="0.25"/>
      <rect id="Rectángulo_6627" data-name="Rectángulo 6627" width="26" height="4" rx="2" transform="translate(630 634)" fill="#8fb39c" opacity="0.25"/>
      <g id="Grupo_18575" data-name="Grupo 18575" transform="translate(-1070.27 -725.409)">
        <circle id="Elipse_876" data-name="Elipse 876" cx="9.907" cy="9.907" r="9.907" transform="matrix(0.244, -0.97, 0.97, 0.244, 1390.245, 1320.575)" fill="#ffdb2e"/>
        <circle id="Elipse_883" data-name="Elipse 883" cx="2" cy="2" r="2" transform="translate(1405.27 1310.076)" fill="#ecbcc1"/>
        <circle id="Elipse_882" data-name="Elipse 882" cx="2" cy="2" r="2" transform="translate(1394.27 1311.076)" fill="#ecbcc1"/>
        <g id="Grupo_18551" data-name="Grupo 18551" transform="translate(1398.34 1312.391)" opacity="0.3">
          <path id="Trazado_10989" data-name="Trazado 10989" d="M330.917,181.22c.118,0,.255.255.342.757a6.442,6.442,0,0,1-.029,2.155c-.029.229-.094.46-.149.706s-.144.494-.226.754a9.793,9.793,0,0,1-.732,1.579,9.215,9.215,0,0,1-6.4,4.505,9.617,9.617,0,0,1-1.733.157,9.09,9.09,0,0,1-1.5-.14,6.456,6.456,0,0,1-2.037-.7c-.443-.256-.643-.473-.6-.583.1-.25,1.133.038,2.748.027a12.534,12.534,0,0,0,1.307-.082,11.093,11.093,0,0,0,1.458-.284,9.176,9.176,0,0,0,5.365-3.777,11.4,11.4,0,0,0,.757-1.277c.1-.212.2-.415.285-.617s.171-.395.231-.586C330.57,182.3,330.647,181.232,330.917,181.22Z" transform="translate(-317.852 -181.22)" fill="#505e70"/>
        </g>
        <g id="Grupo_18552" data-name="Grupo 18552" transform="translate(1392.959 1304.123)" opacity="0.3">
          <path id="Trazado_10990" data-name="Trazado 10990" d="M295.222,132.949a1.912,1.912,0,0,1-.6.074,9.593,9.593,0,0,0-1.6.256,9.314,9.314,0,0,0-1.06.342,9.02,9.02,0,0,0-1.148.547,7.971,7.971,0,0,0-3.651,4.358,8.834,8.834,0,0,0-.342,1.225,9.035,9.035,0,0,0-.145,1.1,9.463,9.463,0,0,0,.027,1.617,1.865,1.865,0,0,1,.032.605c-.032.007-.111-.193-.2-.576a6.891,6.891,0,0,1-.171-1.658,8.407,8.407,0,0,1,.1-1.154,8.514,8.514,0,0,1,.314-1.3,7.928,7.928,0,0,1,3.84-4.584,8.734,8.734,0,0,1,1.22-.535,8.487,8.487,0,0,1,1.131-.3,6.836,6.836,0,0,1,1.661-.121C295.017,132.869,295.226,132.922,295.222,132.949Z" transform="translate(-286.363 -132.842)" fill="#fff"/>
        </g>
        <path id="Trazado_10993" data-name="Trazado 10993" d="M360.016,163.708a2.924,2.924,0,0,0-.3-.684,1.824,1.824,0,0,0-.578-.547,1.509,1.509,0,0,0-1.8.137,1.847,1.847,0,0,0-.489.627,3.052,3.052,0,0,0-.191.726c-.036,0-.029-.072-.034-.208a1.476,1.476,0,0,1,.109-.567,1.843,1.843,0,0,1,.5-.7,1.613,1.613,0,0,1,2-.15,1.821,1.821,0,0,1,.6.619,1.47,1.47,0,0,1,.195.544C360.035,163.633,360.026,163.708,360.016,163.708Z" transform="translate(1048.346 1147.055)" fill="none" stroke="#505e70" stroke-width="0.25"/>
        <path id="Trazado_10994" data-name="Trazado 10994" d="M304.534,165.6a2.81,2.81,0,0,0-.3-.684,1.827,1.827,0,0,0-.579-.545,1.5,1.5,0,0,0-1.8.137,1.822,1.822,0,0,0-.491.627,2.989,2.989,0,0,0-.19.725c-.034,0-.031-.072-.034-.209a1.47,1.47,0,0,1,.109-.566,1.8,1.8,0,0,1,.5-.7,1.617,1.617,0,0,1,2-.152,1.822,1.822,0,0,1,.6.619,1.465,1.465,0,0,1,.195.545C304.555,165.521,304.546,165.6,304.534,165.6Z" transform="translate(1094.344 1145.488)" fill="none" stroke="#505e70" stroke-width="0.25"/>
        <path id="Trazado_10992" data-name="Trazado 10992" d="M328,179.827a.807.807,0,0,1-.132.261,3.185,3.185,0,0,1-.513.615,3.714,3.714,0,0,1-4.862.243,3.3,3.3,0,0,1-.567-.561.8.8,0,0,1-.156-.248,8.646,8.646,0,0,0,.8.708,3.972,3.972,0,0,0,1.017.513,3.616,3.616,0,0,0,2.724-.137,3.947,3.947,0,0,0,.961-.617A7.769,7.769,0,0,0,328,179.827Z" transform="translate(1077.24 1132.327)" fill="none" stroke="#505e70" stroke-width="1"/>
      </g>
    </g>
    <rect id="Rectángulo_6635" data-name="Rectángulo 6635" width="49.62" height="4" rx="2" transform="translate(213 711.333)" fill="#8bb0c7" opacity="0.25"/>
    <rect id="Rectángulo_6639" data-name="Rectángulo 6639" width="42.62" height="4" rx="2" transform="translate(555 711.333)" fill="#8fb39c" opacity="0.25"/>
    <rect id="Rectángulo_6642" data-name="Rectángulo 6642" width="53.62" height="4" rx="2" transform="translate(370.88 711.333)" fill="#bfa3a3" opacity="0.25"/>
    <rect id="Rectángulo_6637" data-name="Rectángulo 6637" width="53.62" height="4" rx="2" transform="translate(213 705.333)" fill="#8bb0c7" opacity="0.25"/>
    <rect id="Rectángulo_6636" data-name="Rectángulo 6636" width="45.62" height="4" rx="2" transform="translate(213 717.333)" fill="#8bb0c7" opacity="0.25"/>
    <rect id="Rectángulo_6640" data-name="Rectángulo 6640" width="47.62" height="4" rx="2" transform="translate(555 717.333)" fill="#8fb39c" opacity="0.25"/>
    <rect id="Rectángulo_6641" data-name="Rectángulo 6641" width="49.62" height="4" rx="2" transform="translate(370.88 717.333)" fill="#bfa3a3" opacity="0.25"/>
    <line id="Línea_307" data-name="Línea 307" y2="32" transform="translate(237.5 671.5)" fill="none" stroke="#347ac1" stroke-linecap="round" stroke-width="0.25" stroke-dasharray="2" opacity="0.5"/>
    <line id="Línea_308" data-name="Línea 308" y2="27.833" transform="translate(579.5 681.5)" fill="none" stroke="#26874a" stroke-linecap="round" stroke-width="0.25" stroke-dasharray="2" opacity="0.5"/>
    <line id="Línea_309" data-name="Línea 309" y2="4.833" transform="translate(395.38 704.5)" fill="none" stroke="#c93b3b" stroke-linecap="round" stroke-width="0.25" stroke-dasharray="2" opacity="0.5"/>
    <path id="Trazado_11040" data-name="Trazado 11040" d="M348.081,753.27l2.516,2.516,2.539-2.516" transform="translate(-113.109 -52.286)" fill="none" stroke="#347ac1" stroke-linecap="round" stroke-linejoin="round" stroke-width="0.25" opacity="0.5"/>
    <path id="Trazado_11041" data-name="Trazado 11041" d="M348.081,753.27l2.516,2.516,2.539-2.516" transform="translate(228.891 -46.453)" fill="none" stroke="#26874a" stroke-linecap="round" stroke-linejoin="round" stroke-width="0.25" opacity="0.5"/>
    <path id="Trazado_11042" data-name="Trazado 11042" d="M348.081,753.27l2.516,2.516,2.539-2.516" transform="translate(44.771 -46.453)" fill="none" stroke="#c93b3b" stroke-linecap="round" stroke-linejoin="round" stroke-width="0.25" opacity="0.5"/>
  </g>
</svg>
