<svg xmlns="http://www.w3.org/2000/svg" width="712" height="452" viewBox="0 0 712 452">
  <defs>
    <style>
      .cls-1 {
        fill: #f3f6f9;
      }

      .cls-2, .cls-3 {
        fill: none;
      }

      .cls-2 {
        stroke: #38485c;
        stroke-linecap: round;
      }

      .cls-4 {
        fill: #38485c;
      }

      .cls-5 {
        fill: #007bc7;
      }

      .cls-6 {
        fill: #fff;
      }

      .cls-7 {
        fill: #505e70;
      }

      .cls-8 {
        fill: rgba(158,170,184,0.24);
        stroke: #9eaab8;
      }

      .cls-8, .cls-9 {
        stroke-dasharray: 5 5;
      }

      .cls-9 {
        fill: rgba(56,72,92,0.24);
      }

      .cls-10, .cls-11 {
        stroke: none;
      }

      .cls-11 {
        fill: #38485c;
      }
    </style>
  </defs>
  <g id="Grupo_18237" data-name="Grupo 18237" transform="translate(-513 -600)">
    <path id="Trazado_20235" data-name="Trazado 20235" class="cls-1" d="M4,0H708a3.808,3.808,0,0,1,4,3.58V448.42a3.808,3.808,0,0,1-4,3.58H4a3.808,3.808,0,0,1-4-3.58V3.58A3.808,3.808,0,0,1,4,0Z" transform="translate(513 600)"/>
    <g id="Grupo_18126" data-name="Grupo 18126" transform="translate(8 10)">
      <line id="Línea_114" data-name="Línea 114" class="cls-2" x2="45.787" transform="translate(1054.033 861.787) rotate(-90)"/>
      <path id="Trazado_4671" data-name="Trazado 4671" class="cls-2" d="M0,0V3.033" transform="translate(1054.033 816) rotate(90)"/>
      <path id="Trazado_20265" data-name="Trazado 20265" class="cls-2" d="M0,0V3.033" transform="translate(1054.033 862) rotate(90)"/>
    </g>
    <g id="Grupo_18179" data-name="Grupo 18179" transform="translate(1721.033 1504) rotate(180)">
      <line id="Línea_114-2" data-name="Línea 114" class="cls-2" x2="45.787" transform="translate(1054.033 861.787) rotate(-90)"/>
      <path id="Trazado_4671-2" data-name="Trazado 4671" class="cls-2" d="M0,0V3.033" transform="translate(1054.033 816) rotate(90)"/>
      <path id="Trazado_20265-2" data-name="Trazado 20265" class="cls-2" d="M0,0V3.033" transform="translate(1054.033 862) rotate(90)"/>
    </g>
    <g id="Grupo_18180" data-name="Grupo 18180" transform="translate(1721.033 1596) rotate(180)">
      <line id="Línea_114-3" data-name="Línea 114" class="cls-2" x2="45.787" transform="translate(1054.033 861.787) rotate(-90)"/>
      <path id="Trazado_4671-3" data-name="Trazado 4671" class="cls-2" d="M0,0V3.033" transform="translate(1054.033 816) rotate(90)"/>
      <path id="Trazado_20265-3" data-name="Trazado 20265" class="cls-2" d="M0,0V3.033" transform="translate(1054.033 862) rotate(90)"/>
    </g>
    <g id="V1-Listas-Celdas-Nivel-1" transform="translate(699 645.324)">
      <rect id="Rectángulo_5365" data-name="Rectángulo 5365" class="cls-3" width="177.885" height="37.852" rx="4"/>
      <path id="Trazado_23935" data-name="Trazado 23935" class="cls-4" d="M9.668,19,8.385,15.432H3.472L2.215,19H0L4.808,6.1H7.093L11.9,19ZM7.831,13.621l-1.2-3.5Q6.5,9.771,6.262,9.016T5.941,7.908a19.7,19.7,0,0,1-.694,2.364l-1.16,3.349ZM21.929,19H19.854V13.023a2.616,2.616,0,0,0-.453-1.679,1.75,1.75,0,0,0-1.437-.554,2.285,2.285,0,0,0-1.916.773,4.27,4.27,0,0,0-.606,2.593V19H13.377V9.279h1.617l.29,1.274h.105a2.876,2.876,0,0,1,1.248-1.072A4.182,4.182,0,0,1,18.431,9.1q3.5,0,3.5,3.56Zm4.939,0H24.8V9.279h2.065ZM24.68,6.7a1.144,1.144,0,0,1,.3-.853,1.182,1.182,0,0,1,.866-.3,1.156,1.156,0,0,1,.848.3A1.144,1.144,0,0,1,27,6.7a1.122,1.122,0,0,1-.3.831,1.147,1.147,0,0,1-.848.3,1.171,1.171,0,0,1-.866-.3A1.122,1.122,0,0,1,24.68,6.7ZM33.1,19.176a3.386,3.386,0,0,1-2.839-1.318,5.926,5.926,0,0,1-1.02-3.7,5.945,5.945,0,0,1,1.033-3.722A3.418,3.418,0,0,1,33.135,9.1a3.351,3.351,0,0,1,2.918,1.415h.105a12.381,12.381,0,0,1-.149-1.652V5.324h2.074V19H36.466l-.36-1.274h-.1A3.3,3.3,0,0,1,33.1,19.176Zm.554-1.67a2.248,2.248,0,0,0,1.854-.716,3.771,3.771,0,0,0,.6-2.325v-.29a4.357,4.357,0,0,0-.6-2.61,2.217,2.217,0,0,0-1.872-.773,1.9,1.9,0,0,0-1.679.883,4.527,4.527,0,0,0-.589,2.518,4.414,4.414,0,0,0,.571,2.465A1.929,1.929,0,0,0,33.653,17.506ZM47.118,19l-.413-1.354h-.07a3.982,3.982,0,0,1-1.415,1.208,4.475,4.475,0,0,1-1.828.321,3.094,3.094,0,0,1-2.237-.773,2.894,2.894,0,0,1-.8-2.188,2.57,2.57,0,0,1,1.116-2.268,6.436,6.436,0,0,1,3.4-.835l1.679-.053V12.54a1.965,1.965,0,0,0-.435-1.393,1.774,1.774,0,0,0-1.349-.461,4.665,4.665,0,0,0-1.433.22,10.811,10.811,0,0,0-1.318.519l-.668-1.477a7.189,7.189,0,0,1,1.731-.628A7.968,7.968,0,0,1,44.851,9.1a4.2,4.2,0,0,1,2.8.809,3.166,3.166,0,0,1,.945,2.54V19Zm-3.076-1.406a2.558,2.558,0,0,0,1.806-.628,2.278,2.278,0,0,0,.681-1.762v-.844l-1.248.053a4.27,4.27,0,0,0-2.123.488,1.482,1.482,0,0,0-.664,1.332,1.3,1.3,0,0,0,.387,1.006A1.661,1.661,0,0,0,44.042,17.594Zm10.714,1.582a3.386,3.386,0,0,1-2.839-1.318,5.926,5.926,0,0,1-1.02-3.7,5.945,5.945,0,0,1,1.033-3.722A3.418,3.418,0,0,1,54.791,9.1a3.351,3.351,0,0,1,2.918,1.415h.105a12.381,12.381,0,0,1-.149-1.652V5.324h2.074V19H58.122l-.36-1.274h-.1A3.3,3.3,0,0,1,54.756,19.176Zm.554-1.67a2.248,2.248,0,0,0,1.854-.716,3.771,3.771,0,0,0,.6-2.325v-.29a4.357,4.357,0,0,0-.6-2.61,2.217,2.217,0,0,0-1.872-.773,1.9,1.9,0,0,0-1.679.883,4.527,4.527,0,0,0-.589,2.518,4.414,4.414,0,0,0,.571,2.465A1.929,1.929,0,0,0,55.31,17.506Zm16-3.384a5.306,5.306,0,0,1-1.222,3.718,4.377,4.377,0,0,1-3.4,1.336,4.66,4.66,0,0,1-2.408-.615,4.062,4.062,0,0,1-1.608-1.767,6.017,6.017,0,0,1-.562-2.672,5.27,5.27,0,0,1,1.213-3.691A4.4,4.4,0,0,1,66.744,9.1a4.282,4.282,0,0,1,3.34,1.358A5.245,5.245,0,0,1,71.314,14.122Zm-7.075,0q0,3.366,2.487,3.366,2.461,0,2.461-3.366,0-3.331-2.479-3.331a2.113,2.113,0,0,0-1.885.861A4.383,4.383,0,0,0,64.239,14.122ZM86.915,19H84.841V13.023a2.616,2.616,0,0,0-.453-1.679,1.75,1.75,0,0,0-1.437-.554,2.285,2.285,0,0,0-1.916.773,4.27,4.27,0,0,0-.606,2.593V19H78.363V9.279H79.98l.29,1.274h.105a2.876,2.876,0,0,1,1.248-1.072A4.182,4.182,0,0,1,83.417,9.1q3.5,0,3.5,3.56Zm4.939,0H89.789V9.279h2.065ZM89.666,6.7a1.144,1.144,0,0,1,.3-.853,1.182,1.182,0,0,1,.866-.3,1.156,1.156,0,0,1,.848.3,1.144,1.144,0,0,1,.3.853,1.122,1.122,0,0,1-.3.831,1.147,1.147,0,0,1-.848.3,1.171,1.171,0,0,1-.866-.3A1.122,1.122,0,0,1,89.666,6.7ZM97.022,19,93.331,9.279h2.18l1.978,5.651a11.2,11.2,0,0,1,.615,2.3h.07a15.462,15.462,0,0,1,.615-2.3l1.978-5.651h2.2L99.255,19Zm11.663.176a4.7,4.7,0,0,1-3.546-1.323,5.021,5.021,0,0,1-1.279-3.643,5.509,5.509,0,0,1,1.187-3.744A4.1,4.1,0,0,1,108.308,9.1a4.006,4.006,0,0,1,3.041,1.169,4.467,4.467,0,0,1,1.116,3.217v1.116h-6.478a3.193,3.193,0,0,0,.765,2.175,2.663,2.663,0,0,0,2.03.76,7.5,7.5,0,0,0,1.6-.163,8.408,8.408,0,0,0,1.6-.541v1.679a6.342,6.342,0,0,1-1.529.51A9.378,9.378,0,0,1,108.686,19.176Zm-.378-8.508a2.075,2.075,0,0,0-1.578.624,2.974,2.974,0,0,0-.708,1.819h4.412a2.691,2.691,0,0,0-.58-1.824A1.984,1.984,0,0,0,108.308,10.668ZM116.877,19h-2.065V5.324h2.065Zm13.008,0h-2.065V10.7q0-1.485.07-2.355-.2.211-.5.466t-1.973,1.617l-1.037-1.31,3.779-2.971h1.723Z" transform="translate(16 6.676)"/>
    </g>
    <g id="V1-Listas-Celdas-Nivel-1-2" data-name="V1-Listas-Celdas-Nivel-1" transform="translate(699 969.324)">
      <rect id="Rectángulo_5365-2" data-name="Rectángulo 5365" class="cls-3" width="193.107" height="37.931" rx="4"/>
      <path id="Trazado_23942" data-name="Trazado 23942" class="cls-4" d="M9.668,19,8.385,15.432H3.472L2.215,19H0L4.808,6.1H7.093L11.9,19ZM7.831,13.621l-1.2-3.5Q6.5,9.771,6.262,9.016T5.941,7.908a19.7,19.7,0,0,1-.694,2.364l-1.16,3.349ZM21.929,19H19.854V13.023a2.616,2.616,0,0,0-.453-1.679,1.75,1.75,0,0,0-1.437-.554,2.285,2.285,0,0,0-1.916.773,4.27,4.27,0,0,0-.606,2.593V19H13.377V9.279h1.617l.29,1.274h.105a2.876,2.876,0,0,1,1.248-1.072A4.182,4.182,0,0,1,18.431,9.1q3.5,0,3.5,3.56Zm4.939,0H24.8V9.279h2.065ZM24.68,6.7a1.144,1.144,0,0,1,.3-.853,1.182,1.182,0,0,1,.866-.3,1.156,1.156,0,0,1,.848.3A1.144,1.144,0,0,1,27,6.7a1.122,1.122,0,0,1-.3.831,1.147,1.147,0,0,1-.848.3,1.171,1.171,0,0,1-.866-.3A1.122,1.122,0,0,1,24.68,6.7ZM33.1,19.176a3.386,3.386,0,0,1-2.839-1.318,5.926,5.926,0,0,1-1.02-3.7,5.945,5.945,0,0,1,1.033-3.722A3.418,3.418,0,0,1,33.135,9.1a3.351,3.351,0,0,1,2.918,1.415h.105a12.381,12.381,0,0,1-.149-1.652V5.324h2.074V19H36.466l-.36-1.274h-.1A3.3,3.3,0,0,1,33.1,19.176Zm.554-1.67a2.248,2.248,0,0,0,1.854-.716,3.771,3.771,0,0,0,.6-2.325v-.29a4.357,4.357,0,0,0-.6-2.61,2.217,2.217,0,0,0-1.872-.773,1.9,1.9,0,0,0-1.679.883,4.527,4.527,0,0,0-.589,2.518,4.414,4.414,0,0,0,.571,2.465A1.929,1.929,0,0,0,33.653,17.506ZM47.118,19l-.413-1.354h-.07a3.982,3.982,0,0,1-1.415,1.208,4.475,4.475,0,0,1-1.828.321,3.094,3.094,0,0,1-2.237-.773,2.894,2.894,0,0,1-.8-2.188,2.57,2.57,0,0,1,1.116-2.268,6.436,6.436,0,0,1,3.4-.835l1.679-.053V12.54a1.965,1.965,0,0,0-.435-1.393,1.774,1.774,0,0,0-1.349-.461,4.665,4.665,0,0,0-1.433.22,10.811,10.811,0,0,0-1.318.519l-.668-1.477a7.189,7.189,0,0,1,1.731-.628A7.968,7.968,0,0,1,44.851,9.1a4.2,4.2,0,0,1,2.8.809,3.166,3.166,0,0,1,.945,2.54V19Zm-3.076-1.406a2.558,2.558,0,0,0,1.806-.628,2.278,2.278,0,0,0,.681-1.762v-.844l-1.248.053a4.27,4.27,0,0,0-2.123.488,1.482,1.482,0,0,0-.664,1.332,1.3,1.3,0,0,0,.387,1.006A1.661,1.661,0,0,0,44.042,17.594Zm10.714,1.582a3.386,3.386,0,0,1-2.839-1.318,5.926,5.926,0,0,1-1.02-3.7,5.945,5.945,0,0,1,1.033-3.722A3.418,3.418,0,0,1,54.791,9.1a3.351,3.351,0,0,1,2.918,1.415h.105a12.381,12.381,0,0,1-.149-1.652V5.324h2.074V19H58.122l-.36-1.274h-.1A3.3,3.3,0,0,1,54.756,19.176Zm.554-1.67a2.248,2.248,0,0,0,1.854-.716,3.771,3.771,0,0,0,.6-2.325v-.29a4.357,4.357,0,0,0-.6-2.61,2.217,2.217,0,0,0-1.872-.773,1.9,1.9,0,0,0-1.679.883,4.527,4.527,0,0,0-.589,2.518,4.414,4.414,0,0,0,.571,2.465A1.929,1.929,0,0,0,55.31,17.506Zm16-3.384a5.306,5.306,0,0,1-1.222,3.718,4.377,4.377,0,0,1-3.4,1.336,4.66,4.66,0,0,1-2.408-.615,4.062,4.062,0,0,1-1.608-1.767,6.017,6.017,0,0,1-.562-2.672,5.27,5.27,0,0,1,1.213-3.691A4.4,4.4,0,0,1,66.744,9.1a4.282,4.282,0,0,1,3.34,1.358A5.245,5.245,0,0,1,71.314,14.122Zm-7.075,0q0,3.366,2.487,3.366,2.461,0,2.461-3.366,0-3.331-2.479-3.331a2.113,2.113,0,0,0-1.885.861A4.383,4.383,0,0,0,64.239,14.122ZM86.915,19H84.841V13.023a2.616,2.616,0,0,0-.453-1.679,1.75,1.75,0,0,0-1.437-.554,2.285,2.285,0,0,0-1.916.773,4.27,4.27,0,0,0-.606,2.593V19H78.363V9.279H79.98l.29,1.274h.105a2.876,2.876,0,0,1,1.248-1.072A4.182,4.182,0,0,1,83.417,9.1q3.5,0,3.5,3.56Zm4.939,0H89.789V9.279h2.065ZM89.666,6.7a1.144,1.144,0,0,1,.3-.853,1.182,1.182,0,0,1,.866-.3,1.156,1.156,0,0,1,.848.3,1.144,1.144,0,0,1,.3.853,1.122,1.122,0,0,1-.3.831,1.147,1.147,0,0,1-.848.3,1.171,1.171,0,0,1-.866-.3A1.122,1.122,0,0,1,89.666,6.7ZM97.022,19,93.331,9.279h2.18l1.978,5.651a11.2,11.2,0,0,1,.615,2.3h.07a15.462,15.462,0,0,1,.615-2.3l1.978-5.651h2.2L99.255,19Zm11.663.176a4.7,4.7,0,0,1-3.546-1.323,5.021,5.021,0,0,1-1.279-3.643,5.509,5.509,0,0,1,1.187-3.744A4.1,4.1,0,0,1,108.308,9.1a4.006,4.006,0,0,1,3.041,1.169,4.467,4.467,0,0,1,1.116,3.217v1.116h-6.478a3.193,3.193,0,0,0,.765,2.175,2.663,2.663,0,0,0,2.03.76,7.5,7.5,0,0,0,1.6-.163,8.408,8.408,0,0,0,1.6-.541v1.679a6.342,6.342,0,0,1-1.529.51A9.378,9.378,0,0,1,108.686,19.176Zm-.378-8.508a2.075,2.075,0,0,0-1.578.624,2.974,2.974,0,0,0-.708,1.819h4.412a2.691,2.691,0,0,0-.58-1.824A1.984,1.984,0,0,0,108.308,10.668ZM116.877,19h-2.065V5.324h2.065Zm13.008,0h-2.065V10.7q0-1.485.07-2.355-.2.211-.5.466t-1.973,1.617l-1.037-1.31,3.779-2.971h1.723Zm4.588-1.1a1.353,1.353,0,0,1,.334-.984,1.289,1.289,0,0,1,.967-.343,1.274,1.274,0,0,1,.976.356,1.363,1.363,0,0,1,.334.971,1.4,1.4,0,0,1-.338.989,1.476,1.476,0,0,1-1.938,0A1.4,1.4,0,0,1,134.473,17.9ZM145.107,19h-2.065V10.7q0-1.485.07-2.355-.2.211-.5.466t-1.973,1.617l-1.037-1.31,3.779-2.971h1.723Z" transform="translate(16 6.676)"/>
    </g>
    <g id="V1-Listas-Celdas-Nivel-2" transform="translate(699 738.844)">
      <rect id="Rectángulo_5365-3" data-name="Rectángulo 5365" class="cls-3" width="195.336" height="36.383" rx="4"/>
      <path id="Trazado_23937" data-name="Trazado 23937" class="cls-5" d="M8.594,17,7.453,13.828H3.086L1.969,17H0L4.273,5.531H6.3L10.578,17ZM6.961,12.219,5.891,9.109q-.117-.312-.324-.984t-.285-.984a17.509,17.509,0,0,1-.617,2.1L3.633,12.219ZM19.492,17H17.648V11.688a2.325,2.325,0,0,0-.4-1.492A1.555,1.555,0,0,0,15.969,9.7a2.031,2.031,0,0,0-1.7.688,3.8,3.8,0,0,0-.539,2.3V17H11.891V8.359h1.438l.258,1.133h.094a2.556,2.556,0,0,1,1.109-.953A3.718,3.718,0,0,1,16.383,8.2q3.109,0,3.109,3.164Zm4.391,0H22.047V8.359h1.836ZM21.938,6.07a1.017,1.017,0,0,1,.27-.758,1.05,1.05,0,0,1,.77-.266,1.028,1.028,0,0,1,.754.266A1.017,1.017,0,0,1,24,6.07a1,1,0,0,1-.27.738,1.019,1.019,0,0,1-.754.27,1.041,1.041,0,0,1-.77-.27A1,1,0,0,1,21.938,6.07Zm7.484,11.086A3.01,3.01,0,0,1,26.9,15.984a5.267,5.267,0,0,1-.906-3.289,5.284,5.284,0,0,1,.918-3.309A3.038,3.038,0,0,1,29.453,8.2a2.979,2.979,0,0,1,2.594,1.258h.094a11.005,11.005,0,0,1-.133-1.469V4.844h1.844V17H32.414l-.32-1.133h-.086A2.935,2.935,0,0,1,29.422,17.156Zm.492-1.484a2,2,0,0,0,1.648-.637,3.352,3.352,0,0,0,.531-2.066v-.258a3.873,3.873,0,0,0-.531-2.32A1.971,1.971,0,0,0,29.9,9.7a1.688,1.688,0,0,0-1.492.785,4.024,4.024,0,0,0-.523,2.238,3.923,3.923,0,0,0,.508,2.191A1.714,1.714,0,0,0,29.914,15.672ZM41.883,17l-.367-1.2h-.062A3.54,3.54,0,0,1,40.2,16.871a3.978,3.978,0,0,1-1.625.285,2.75,2.75,0,0,1-1.988-.687,2.573,2.573,0,0,1-.715-1.945,2.284,2.284,0,0,1,.992-2.016,5.721,5.721,0,0,1,3.023-.742l1.492-.047v-.461a1.747,1.747,0,0,0-.387-1.238,1.577,1.577,0,0,0-1.2-.41,4.147,4.147,0,0,0-1.273.2,9.61,9.61,0,0,0-1.172.461L36.75,8.953a6.39,6.39,0,0,1,1.539-.559A7.083,7.083,0,0,1,39.867,8.2a3.738,3.738,0,0,1,2.488.719,2.814,2.814,0,0,1,.84,2.258V17Zm-2.734-1.25a2.274,2.274,0,0,0,1.605-.559,2.025,2.025,0,0,0,.605-1.566v-.75l-1.109.047a3.8,3.8,0,0,0-1.887.434,1.317,1.317,0,0,0-.59,1.184,1.155,1.155,0,0,0,.344.895A1.477,1.477,0,0,0,39.148,15.75Zm9.523,1.406a3.01,3.01,0,0,1-2.523-1.172,5.267,5.267,0,0,1-.906-3.289,5.284,5.284,0,0,1,.918-3.309A3.038,3.038,0,0,1,48.7,8.2,2.979,2.979,0,0,1,51.3,9.461h.094a11.005,11.005,0,0,1-.133-1.469V4.844H53.1V17H51.664l-.32-1.133h-.086A2.935,2.935,0,0,1,48.672,17.156Zm.492-1.484a2,2,0,0,0,1.648-.637,3.352,3.352,0,0,0,.531-2.066v-.258a3.873,3.873,0,0,0-.531-2.32A1.971,1.971,0,0,0,49.148,9.7a1.688,1.688,0,0,0-1.492.785,4.024,4.024,0,0,0-.523,2.238,3.923,3.923,0,0,0,.508,2.191A1.714,1.714,0,0,0,49.164,15.672Zm14.227-3.008a4.716,4.716,0,0,1-1.086,3.3,3.891,3.891,0,0,1-3.023,1.188,4.143,4.143,0,0,1-2.141-.547,3.61,3.61,0,0,1-1.43-1.57,5.348,5.348,0,0,1-.5-2.375,4.684,4.684,0,0,1,1.078-3.281A3.909,3.909,0,0,1,59.328,8.2,3.807,3.807,0,0,1,62.3,9.41,4.662,4.662,0,0,1,63.391,12.664Zm-6.289,0q0,2.992,2.211,2.992,2.187,0,2.188-2.992Q61.5,9.7,59.3,9.7a1.879,1.879,0,0,0-1.676.766A3.9,3.9,0,0,0,57.1,12.664ZM77.258,17H75.414V11.688a2.325,2.325,0,0,0-.4-1.492A1.555,1.555,0,0,0,73.734,9.7a2.031,2.031,0,0,0-1.7.688,3.8,3.8,0,0,0-.539,2.3V17H69.656V8.359h1.438l.258,1.133h.094a2.556,2.556,0,0,1,1.109-.953A3.718,3.718,0,0,1,74.148,8.2q3.109,0,3.109,3.164Zm4.391,0H79.813V8.359h1.836ZM79.7,6.07a1.017,1.017,0,0,1,.27-.758,1.05,1.05,0,0,1,.77-.266,1.028,1.028,0,0,1,.754.266,1.017,1.017,0,0,1,.27.758,1,1,0,0,1-.27.738,1.019,1.019,0,0,1-.754.27,1.041,1.041,0,0,1-.77-.27A1,1,0,0,1,79.7,6.07ZM86.242,17,82.961,8.359H84.9l1.758,5.023A9.954,9.954,0,0,1,87.2,15.43h.063a13.744,13.744,0,0,1,.547-2.047L89.57,8.359h1.953L88.227,17Zm10.367.156a4.18,4.18,0,0,1-3.152-1.176,4.463,4.463,0,0,1-1.137-3.238,4.9,4.9,0,0,1,1.055-3.328,3.643,3.643,0,0,1,2.9-1.211,3.561,3.561,0,0,1,2.7,1.039,3.97,3.97,0,0,1,.992,2.859v.992H94.211a2.838,2.838,0,0,0,.68,1.934,2.367,2.367,0,0,0,1.8.676,6.662,6.662,0,0,0,1.426-.145,7.474,7.474,0,0,0,1.418-.48V16.57a5.637,5.637,0,0,1-1.359.453A8.336,8.336,0,0,1,96.609,17.156Zm-.336-7.562a1.845,1.845,0,0,0-1.4.555,2.644,2.644,0,0,0-.629,1.617h3.922a2.392,2.392,0,0,0-.516-1.621A1.764,1.764,0,0,0,96.273,9.594ZM103.891,17h-1.836V4.844h1.836ZM117.8,17h-7.742V15.609l2.945-2.961a25.053,25.053,0,0,0,1.73-1.895,4.523,4.523,0,0,0,.621-1.051,2.833,2.833,0,0,0,.2-1.055,1.608,1.608,0,0,0-.465-1.219,1.781,1.781,0,0,0-1.285-.445,3.426,3.426,0,0,0-1.27.242,5.942,5.942,0,0,0-1.418.875l-.992-1.211a6.4,6.4,0,0,1,1.852-1.141,5.42,5.42,0,0,1,1.914-.336,3.766,3.766,0,0,1,2.555.832,2.81,2.81,0,0,1,.961,2.238,3.927,3.927,0,0,1-.277,1.469,5.969,5.969,0,0,1-.852,1.434,19.461,19.461,0,0,1-1.91,2L112.383,15.3v.078H117.8Zm1.727-.977a1.2,1.2,0,0,1,.3-.875,1.146,1.146,0,0,1,.859-.3,1.132,1.132,0,0,1,.867.316,1.211,1.211,0,0,1,.3.863,1.241,1.241,0,0,1-.3.879,1.312,1.312,0,0,1-1.723,0A1.249,1.249,0,0,1,119.531,16.023Zm11.8.977h-7.742V15.609l2.945-2.961a25.053,25.053,0,0,0,1.73-1.895,4.523,4.523,0,0,0,.621-1.051,2.833,2.833,0,0,0,.2-1.055,1.608,1.608,0,0,0-.465-1.219,1.781,1.781,0,0,0-1.285-.445,3.426,3.426,0,0,0-1.27.242,5.942,5.942,0,0,0-1.418.875l-.992-1.211a6.4,6.4,0,0,1,1.852-1.141,5.42,5.42,0,0,1,1.914-.336,3.766,3.766,0,0,1,2.555.832,2.81,2.81,0,0,1,.961,2.238,3.928,3.928,0,0,1-.277,1.469,5.969,5.969,0,0,1-.852,1.434,19.461,19.461,0,0,1-1.91,2L125.914,15.3v.078h5.422Z" transform="translate(32 7.156)"/>
    </g>
    <g id="V1-Listas-Celdas-Nivel-2-2" data-name="V1-Listas-Celdas-Nivel-2" transform="translate(699 922.844)">
      <rect id="Rectángulo_5365-4" data-name="Rectángulo 5365" class="cls-3" width="191.617" height="36.383" rx="4"/>
      <path id="Trazado_23941" data-name="Trazado 23941" class="cls-4" d="M8.75,17,7.328,13.367H2.75L1.344,17H0L4.516,5.531H5.633L10.125,17ZM6.914,12.172,5.586,8.633q-.258-.672-.531-1.648a14.8,14.8,0,0,1-.492,1.648L3.219,12.172ZM17.359,17V11.461A2.235,2.235,0,0,0,16.883,9.9a1.941,1.941,0,0,0-1.492-.516,2.461,2.461,0,0,0-1.969.727,3.668,3.668,0,0,0-.625,2.4V17H11.5V8.438h1.055l.211,1.172h.063a2.648,2.648,0,0,1,1.117-.98,3.63,3.63,0,0,1,1.6-.348,3.252,3.252,0,0,1,2.328.746,3.175,3.175,0,0,1,.781,2.387V17Zm5.258,0h-1.3V8.438h1.3ZM21.211,6.117a.861.861,0,0,1,.219-.652.81.81,0,0,1,1.086,0,.846.846,0,0,1,.227.648.859.859,0,0,1-.227.652.794.794,0,0,1-1.086,0A.877.877,0,0,1,21.211,6.117ZM31.2,15.852h-.07a3.047,3.047,0,0,1-2.687,1.3,3.179,3.179,0,0,1-2.613-1.148,5.055,5.055,0,0,1-.934-3.266,5.141,5.141,0,0,1,.938-3.289,3.155,3.155,0,0,1,2.609-1.172,3.114,3.114,0,0,1,2.672,1.266h.1l-.055-.617-.031-.6V4.844h1.3V17H31.367ZM28.6,16.07a2.361,2.361,0,0,0,1.926-.723,3.652,3.652,0,0,0,.6-2.332v-.273a4.3,4.3,0,0,0-.605-2.6,2.3,2.3,0,0,0-1.934-.777,1.985,1.985,0,0,0-1.746.887,4.409,4.409,0,0,0-.605,2.5,4.227,4.227,0,0,0,.6,2.477A2.037,2.037,0,0,0,28.6,16.07ZM40.438,17l-.258-1.219h-.062a3.6,3.6,0,0,1-1.277,1.09,3.893,3.893,0,0,1-1.59.285,2.86,2.86,0,0,1-2-.656,2.394,2.394,0,0,1-.723-1.867q0-2.594,4.148-2.719l1.453-.047v-.531A2.171,2.171,0,0,0,39.7,9.848a1.783,1.783,0,0,0-1.387-.48,5.65,5.65,0,0,0-2.422.656l-.4-.992a6.094,6.094,0,0,1,1.387-.539,6.006,6.006,0,0,1,1.512-.2,3.262,3.262,0,0,1,2.27.68,2.837,2.837,0,0,1,.738,2.18V17Zm-2.93-.914a2.632,2.632,0,0,0,1.9-.664,2.457,2.457,0,0,0,.691-1.859v-.773l-1.3.055a4.717,4.717,0,0,0-2.23.48,1.449,1.449,0,0,0-.684,1.324,1.336,1.336,0,0,0,.426,1.07A1.767,1.767,0,0,0,37.508,16.086ZM49.9,15.852h-.07a3.047,3.047,0,0,1-2.687,1.3,3.179,3.179,0,0,1-2.613-1.148,5.055,5.055,0,0,1-.934-3.266,5.141,5.141,0,0,1,.938-3.289,3.155,3.155,0,0,1,2.609-1.172,3.114,3.114,0,0,1,2.672,1.266h.1l-.055-.617-.031-.6V4.844h1.3V17H50.07ZM47.3,16.07a2.361,2.361,0,0,0,1.926-.723,3.652,3.652,0,0,0,.6-2.332v-.273a4.3,4.3,0,0,0-.605-2.6,2.3,2.3,0,0,0-1.934-.777,1.985,1.985,0,0,0-1.746.887,4.409,4.409,0,0,0-.605,2.5,4.227,4.227,0,0,0,.6,2.477A2.037,2.037,0,0,0,47.3,16.07Zm13.961-3.359a4.724,4.724,0,0,1-1.055,3.27A3.714,3.714,0,0,1,57.3,17.156a3.86,3.86,0,0,1-2.039-.539,3.558,3.558,0,0,1-1.375-1.547,5.391,5.391,0,0,1-.484-2.359,4.716,4.716,0,0,1,1.047-3.262,3.7,3.7,0,0,1,2.906-1.168,3.622,3.622,0,0,1,2.855,1.2A4.7,4.7,0,0,1,61.266,12.711Zm-6.523,0a4.064,4.064,0,0,0,.656,2.5,2.6,2.6,0,0,0,3.863,0,4.043,4.043,0,0,0,.66-2.5,3.978,3.978,0,0,0-.66-2.48,2.32,2.32,0,0,0-1.949-.848,2.283,2.283,0,0,0-1.922.836A4.023,4.023,0,0,0,54.742,12.711ZM73.555,17V11.461A2.235,2.235,0,0,0,73.078,9.9a1.941,1.941,0,0,0-1.492-.516,2.461,2.461,0,0,0-1.969.727,3.668,3.668,0,0,0-.625,2.4V17H67.7V8.438H68.75l.211,1.172h.063a2.648,2.648,0,0,1,1.117-.98,3.63,3.63,0,0,1,1.6-.348,3.252,3.252,0,0,1,2.328.746,3.175,3.175,0,0,1,.781,2.387V17Zm5.258,0h-1.3V8.438h1.3ZM77.406,6.117a.861.861,0,0,1,.219-.652.81.81,0,0,1,1.086,0,.846.846,0,0,1,.227.648.859.859,0,0,1-.227.652.794.794,0,0,1-1.086,0A.877.877,0,0,1,77.406,6.117ZM83.438,17l-3.25-8.562h1.391l1.844,5.078a24.035,24.035,0,0,1,.734,2.313h.063a17.466,17.466,0,0,1,.543-1.715q.457-1.3,2.051-5.676H88.2L84.953,17Zm9.758.156A3.934,3.934,0,0,1,90.2,16a4.476,4.476,0,0,1-1.1-3.211A4.964,4.964,0,0,1,90.121,9.5a3.387,3.387,0,0,1,2.738-1.219A3.229,3.229,0,0,1,95.406,9.34a4.057,4.057,0,0,1,.938,2.793v.82h-5.9a3.394,3.394,0,0,0,.762,2.289,2.635,2.635,0,0,0,2.035.781,6.9,6.9,0,0,0,2.734-.578V16.6a6.863,6.863,0,0,1-1.3.426A7.31,7.31,0,0,1,93.2,17.156Zm-.352-7.789a2.118,2.118,0,0,0-1.645.672,3.1,3.1,0,0,0-.723,1.859h4.477a2.851,2.851,0,0,0-.547-1.879A1.925,1.925,0,0,0,92.844,9.367ZM99.852,17h-1.3V4.844h1.3Zm13.82,0h-7.508V15.883l3.008-3.023a22.149,22.149,0,0,0,1.813-1.984,5.065,5.065,0,0,0,.656-1.156,3.312,3.312,0,0,0,.219-1.211,1.92,1.92,0,0,0-.555-1.449,2.125,2.125,0,0,0-1.539-.535,3.87,3.87,0,0,0-1.348.234A5.372,5.372,0,0,0,107,7.609l-.687-.883a5.265,5.265,0,0,1,3.438-1.312,3.632,3.632,0,0,1,2.523.824,2.835,2.835,0,0,1,.914,2.215,4.277,4.277,0,0,1-.609,2.148,13.64,13.64,0,0,1-2.281,2.688l-2.5,2.445V15.8h5.875Zm2.047-.828a1.164,1.164,0,0,1,.238-.793.864.864,0,0,1,.684-.27.924.924,0,0,1,.707.27,1.116,1.116,0,0,1,.254.793,1.1,1.1,0,0,1-.258.781,1.025,1.025,0,0,1-1.363.027A1.07,1.07,0,0,1,115.719,16.172Zm11.9-1.8h-1.7V17H124.68V14.375h-5.555V13.242l5.422-7.727h1.375V13.2h1.7ZM124.68,13.2V9.4q0-1.117.078-2.523H124.7a11.739,11.739,0,0,1-.7,1.242l-3.57,5.078Z" transform="translate(32 7.156)"/>
    </g>
    <g id="V1-Listas-Celdas-Nivel-2-3" data-name="V1-Listas-Celdas-Nivel-2" transform="translate(699 692.844)">
      <rect id="Rectángulo_5365-5" data-name="Rectángulo 5365" class="cls-3" width="177.672" height="36.313" rx="4"/>
      <path id="Trazado_23936" data-name="Trazado 23936" class="cls-4" d="M8.75,17,7.328,13.367H2.75L1.344,17H0L4.516,5.531H5.633L10.125,17ZM6.914,12.172,5.586,8.633q-.258-.672-.531-1.648a14.8,14.8,0,0,1-.492,1.648L3.219,12.172ZM17.359,17V11.461A2.235,2.235,0,0,0,16.883,9.9a1.941,1.941,0,0,0-1.492-.516,2.461,2.461,0,0,0-1.969.727,3.668,3.668,0,0,0-.625,2.4V17H11.5V8.438h1.055l.211,1.172h.063a2.648,2.648,0,0,1,1.117-.98,3.63,3.63,0,0,1,1.6-.348,3.252,3.252,0,0,1,2.328.746,3.175,3.175,0,0,1,.781,2.387V17Zm5.258,0h-1.3V8.438h1.3ZM21.211,6.117a.861.861,0,0,1,.219-.652.81.81,0,0,1,1.086,0,.846.846,0,0,1,.227.648.859.859,0,0,1-.227.652.794.794,0,0,1-1.086,0A.877.877,0,0,1,21.211,6.117ZM31.2,15.852h-.07a3.047,3.047,0,0,1-2.687,1.3,3.179,3.179,0,0,1-2.613-1.148,5.055,5.055,0,0,1-.934-3.266,5.141,5.141,0,0,1,.938-3.289,3.155,3.155,0,0,1,2.609-1.172,3.114,3.114,0,0,1,2.672,1.266h.1l-.055-.617-.031-.6V4.844h1.3V17H31.367ZM28.6,16.07a2.361,2.361,0,0,0,1.926-.723,3.652,3.652,0,0,0,.6-2.332v-.273a4.3,4.3,0,0,0-.605-2.6,2.3,2.3,0,0,0-1.934-.777,1.985,1.985,0,0,0-1.746.887,4.409,4.409,0,0,0-.605,2.5,4.227,4.227,0,0,0,.6,2.477A2.037,2.037,0,0,0,28.6,16.07ZM40.438,17l-.258-1.219h-.062a3.6,3.6,0,0,1-1.277,1.09,3.893,3.893,0,0,1-1.59.285,2.86,2.86,0,0,1-2-.656,2.394,2.394,0,0,1-.723-1.867q0-2.594,4.148-2.719l1.453-.047v-.531A2.171,2.171,0,0,0,39.7,9.848a1.783,1.783,0,0,0-1.387-.48,5.65,5.65,0,0,0-2.422.656l-.4-.992a6.094,6.094,0,0,1,1.387-.539,6.006,6.006,0,0,1,1.512-.2,3.262,3.262,0,0,1,2.27.68,2.837,2.837,0,0,1,.738,2.18V17Zm-2.93-.914a2.632,2.632,0,0,0,1.9-.664,2.457,2.457,0,0,0,.691-1.859v-.773l-1.3.055a4.717,4.717,0,0,0-2.23.48,1.449,1.449,0,0,0-.684,1.324,1.336,1.336,0,0,0,.426,1.07A1.767,1.767,0,0,0,37.508,16.086ZM49.9,15.852h-.07a3.047,3.047,0,0,1-2.687,1.3,3.179,3.179,0,0,1-2.613-1.148,5.055,5.055,0,0,1-.934-3.266,5.141,5.141,0,0,1,.938-3.289,3.155,3.155,0,0,1,2.609-1.172,3.114,3.114,0,0,1,2.672,1.266h.1l-.055-.617-.031-.6V4.844h1.3V17H50.07ZM47.3,16.07a2.361,2.361,0,0,0,1.926-.723,3.652,3.652,0,0,0,.6-2.332v-.273a4.3,4.3,0,0,0-.605-2.6,2.3,2.3,0,0,0-1.934-.777,1.985,1.985,0,0,0-1.746.887,4.409,4.409,0,0,0-.605,2.5,4.227,4.227,0,0,0,.6,2.477A2.037,2.037,0,0,0,47.3,16.07Zm13.961-3.359a4.724,4.724,0,0,1-1.055,3.27A3.714,3.714,0,0,1,57.3,17.156a3.86,3.86,0,0,1-2.039-.539,3.558,3.558,0,0,1-1.375-1.547,5.391,5.391,0,0,1-.484-2.359,4.716,4.716,0,0,1,1.047-3.262,3.7,3.7,0,0,1,2.906-1.168,3.622,3.622,0,0,1,2.855,1.2A4.7,4.7,0,0,1,61.266,12.711Zm-6.523,0a4.064,4.064,0,0,0,.656,2.5,2.6,2.6,0,0,0,3.863,0,4.043,4.043,0,0,0,.66-2.5,3.978,3.978,0,0,0-.66-2.48,2.32,2.32,0,0,0-1.949-.848,2.283,2.283,0,0,0-1.922.836A4.023,4.023,0,0,0,54.742,12.711ZM73.555,17V11.461A2.235,2.235,0,0,0,73.078,9.9a1.941,1.941,0,0,0-1.492-.516,2.461,2.461,0,0,0-1.969.727,3.668,3.668,0,0,0-.625,2.4V17H67.7V8.438H68.75l.211,1.172h.063a2.648,2.648,0,0,1,1.117-.98,3.63,3.63,0,0,1,1.6-.348,3.252,3.252,0,0,1,2.328.746,3.175,3.175,0,0,1,.781,2.387V17Zm5.258,0h-1.3V8.438h1.3ZM77.406,6.117a.861.861,0,0,1,.219-.652.81.81,0,0,1,1.086,0,.846.846,0,0,1,.227.648.859.859,0,0,1-.227.652.794.794,0,0,1-1.086,0A.877.877,0,0,1,77.406,6.117ZM83.438,17l-3.25-8.562h1.391l1.844,5.078a24.035,24.035,0,0,1,.734,2.313h.063a17.466,17.466,0,0,1,.543-1.715q.457-1.3,2.051-5.676H88.2L84.953,17Zm9.758.156A3.934,3.934,0,0,1,90.2,16a4.476,4.476,0,0,1-1.1-3.211A4.964,4.964,0,0,1,90.121,9.5a3.387,3.387,0,0,1,2.738-1.219A3.229,3.229,0,0,1,95.406,9.34a4.057,4.057,0,0,1,.938,2.793v.82h-5.9a3.394,3.394,0,0,0,.762,2.289,2.635,2.635,0,0,0,2.035.781,6.9,6.9,0,0,0,2.734-.578V16.6a6.863,6.863,0,0,1-1.3.426A7.31,7.31,0,0,1,93.2,17.156Zm-.352-7.789a2.118,2.118,0,0,0-1.645.672,3.1,3.1,0,0,0-.723,1.859h4.477a2.851,2.851,0,0,0-.547-1.879A1.925,1.925,0,0,0,92.844,9.367ZM99.852,17h-1.3V4.844h1.3Zm13.82,0h-7.508V15.883l3.008-3.023a22.149,22.149,0,0,0,1.813-1.984,5.065,5.065,0,0,0,.656-1.156,3.312,3.312,0,0,0,.219-1.211,1.92,1.92,0,0,0-.555-1.449,2.125,2.125,0,0,0-1.539-.535,3.87,3.87,0,0,0-1.348.234A5.372,5.372,0,0,0,107,7.609l-.687-.883a5.265,5.265,0,0,1,3.438-1.312,3.632,3.632,0,0,1,2.523.824,2.835,2.835,0,0,1,.914,2.215,4.277,4.277,0,0,1-.609,2.148,13.64,13.64,0,0,1-2.281,2.688l-2.5,2.445V15.8h5.875Z" transform="translate(32 7.156)"/>
    </g>
    <g id="V1-Listas-Celdas-Nivel-2-4" data-name="V1-Listas-Celdas-Nivel-2" transform="translate(699 876.844)">
      <rect id="Rectángulo_5365-6" data-name="Rectángulo 5365" class="cls-3" width="191" height="36.383" rx="4"/>
      <path id="Trazado_23940" data-name="Trazado 23940" class="cls-4" d="M8.75,17,7.328,13.367H2.75L1.344,17H0L4.516,5.531H5.633L10.125,17ZM6.914,12.172,5.586,8.633q-.258-.672-.531-1.648a14.8,14.8,0,0,1-.492,1.648L3.219,12.172ZM17.359,17V11.461A2.235,2.235,0,0,0,16.883,9.9a1.941,1.941,0,0,0-1.492-.516,2.461,2.461,0,0,0-1.969.727,3.668,3.668,0,0,0-.625,2.4V17H11.5V8.438h1.055l.211,1.172h.063a2.648,2.648,0,0,1,1.117-.98,3.63,3.63,0,0,1,1.6-.348,3.252,3.252,0,0,1,2.328.746,3.175,3.175,0,0,1,.781,2.387V17Zm5.258,0h-1.3V8.438h1.3ZM21.211,6.117a.861.861,0,0,1,.219-.652.81.81,0,0,1,1.086,0,.846.846,0,0,1,.227.648.859.859,0,0,1-.227.652.794.794,0,0,1-1.086,0A.877.877,0,0,1,21.211,6.117ZM31.2,15.852h-.07a3.047,3.047,0,0,1-2.687,1.3,3.179,3.179,0,0,1-2.613-1.148,5.055,5.055,0,0,1-.934-3.266,5.141,5.141,0,0,1,.938-3.289,3.155,3.155,0,0,1,2.609-1.172,3.114,3.114,0,0,1,2.672,1.266h.1l-.055-.617-.031-.6V4.844h1.3V17H31.367ZM28.6,16.07a2.361,2.361,0,0,0,1.926-.723,3.652,3.652,0,0,0,.6-2.332v-.273a4.3,4.3,0,0,0-.605-2.6,2.3,2.3,0,0,0-1.934-.777,1.985,1.985,0,0,0-1.746.887,4.409,4.409,0,0,0-.605,2.5,4.227,4.227,0,0,0,.6,2.477A2.037,2.037,0,0,0,28.6,16.07ZM40.438,17l-.258-1.219h-.062a3.6,3.6,0,0,1-1.277,1.09,3.893,3.893,0,0,1-1.59.285,2.86,2.86,0,0,1-2-.656,2.394,2.394,0,0,1-.723-1.867q0-2.594,4.148-2.719l1.453-.047v-.531A2.171,2.171,0,0,0,39.7,9.848a1.783,1.783,0,0,0-1.387-.48,5.65,5.65,0,0,0-2.422.656l-.4-.992a6.094,6.094,0,0,1,1.387-.539,6.006,6.006,0,0,1,1.512-.2,3.262,3.262,0,0,1,2.27.68,2.837,2.837,0,0,1,.738,2.18V17Zm-2.93-.914a2.632,2.632,0,0,0,1.9-.664,2.457,2.457,0,0,0,.691-1.859v-.773l-1.3.055a4.717,4.717,0,0,0-2.23.48,1.449,1.449,0,0,0-.684,1.324,1.336,1.336,0,0,0,.426,1.07A1.767,1.767,0,0,0,37.508,16.086ZM49.9,15.852h-.07a3.047,3.047,0,0,1-2.687,1.3,3.179,3.179,0,0,1-2.613-1.148,5.055,5.055,0,0,1-.934-3.266,5.141,5.141,0,0,1,.938-3.289,3.155,3.155,0,0,1,2.609-1.172,3.114,3.114,0,0,1,2.672,1.266h.1l-.055-.617-.031-.6V4.844h1.3V17H50.07ZM47.3,16.07a2.361,2.361,0,0,0,1.926-.723,3.652,3.652,0,0,0,.6-2.332v-.273a4.3,4.3,0,0,0-.605-2.6,2.3,2.3,0,0,0-1.934-.777,1.985,1.985,0,0,0-1.746.887,4.409,4.409,0,0,0-.605,2.5,4.227,4.227,0,0,0,.6,2.477A2.037,2.037,0,0,0,47.3,16.07Zm13.961-3.359a4.724,4.724,0,0,1-1.055,3.27A3.714,3.714,0,0,1,57.3,17.156a3.86,3.86,0,0,1-2.039-.539,3.558,3.558,0,0,1-1.375-1.547,5.391,5.391,0,0,1-.484-2.359,4.716,4.716,0,0,1,1.047-3.262,3.7,3.7,0,0,1,2.906-1.168,3.622,3.622,0,0,1,2.855,1.2A4.7,4.7,0,0,1,61.266,12.711Zm-6.523,0a4.064,4.064,0,0,0,.656,2.5,2.6,2.6,0,0,0,3.863,0,4.043,4.043,0,0,0,.66-2.5,3.978,3.978,0,0,0-.66-2.48,2.32,2.32,0,0,0-1.949-.848,2.283,2.283,0,0,0-1.922.836A4.023,4.023,0,0,0,54.742,12.711ZM73.555,17V11.461A2.235,2.235,0,0,0,73.078,9.9a1.941,1.941,0,0,0-1.492-.516,2.461,2.461,0,0,0-1.969.727,3.668,3.668,0,0,0-.625,2.4V17H67.7V8.438H68.75l.211,1.172h.063a2.648,2.648,0,0,1,1.117-.98,3.63,3.63,0,0,1,1.6-.348,3.252,3.252,0,0,1,2.328.746,3.175,3.175,0,0,1,.781,2.387V17Zm5.258,0h-1.3V8.438h1.3ZM77.406,6.117a.861.861,0,0,1,.219-.652.81.81,0,0,1,1.086,0,.846.846,0,0,1,.227.648.859.859,0,0,1-.227.652.794.794,0,0,1-1.086,0A.877.877,0,0,1,77.406,6.117ZM83.438,17l-3.25-8.562h1.391l1.844,5.078a24.035,24.035,0,0,1,.734,2.313h.063a17.466,17.466,0,0,1,.543-1.715q.457-1.3,2.051-5.676H88.2L84.953,17Zm9.758.156A3.934,3.934,0,0,1,90.2,16a4.476,4.476,0,0,1-1.1-3.211A4.964,4.964,0,0,1,90.121,9.5a3.387,3.387,0,0,1,2.738-1.219A3.229,3.229,0,0,1,95.406,9.34a4.057,4.057,0,0,1,.938,2.793v.82h-5.9a3.394,3.394,0,0,0,.762,2.289,2.635,2.635,0,0,0,2.035.781,6.9,6.9,0,0,0,2.734-.578V16.6a6.863,6.863,0,0,1-1.3.426A7.31,7.31,0,0,1,93.2,17.156Zm-.352-7.789a2.118,2.118,0,0,0-1.645.672,3.1,3.1,0,0,0-.723,1.859h4.477a2.851,2.851,0,0,0-.547-1.879A1.925,1.925,0,0,0,92.844,9.367ZM99.852,17h-1.3V4.844h1.3Zm13.82,0h-7.508V15.883l3.008-3.023a22.149,22.149,0,0,0,1.813-1.984,5.065,5.065,0,0,0,.656-1.156,3.312,3.312,0,0,0,.219-1.211,1.92,1.92,0,0,0-.555-1.449,2.125,2.125,0,0,0-1.539-.535,3.87,3.87,0,0,0-1.348.234A5.372,5.372,0,0,0,107,7.609l-.687-.883a5.265,5.265,0,0,1,3.438-1.312,3.632,3.632,0,0,1,2.523.824,2.835,2.835,0,0,1,.914,2.215,4.277,4.277,0,0,1-.609,2.148,13.64,13.64,0,0,1-2.281,2.688l-2.5,2.445V15.8h5.875Zm2.047-.828a1.164,1.164,0,0,1,.238-.793.864.864,0,0,1,.684-.27.924.924,0,0,1,.707.27,1.116,1.116,0,0,1,.254.793,1.1,1.1,0,0,1-.258.781,1.025,1.025,0,0,1-1.363.027A1.07,1.07,0,0,1,115.719,16.172Zm10.93-7.906a2.6,2.6,0,0,1-.613,1.789,3.07,3.07,0,0,1-1.738.93v.063a3.269,3.269,0,0,1,2.039.875A2.575,2.575,0,0,1,127,13.766a2.991,2.991,0,0,1-1.133,2.512,5.152,5.152,0,0,1-3.219.879,9.328,9.328,0,0,1-1.66-.137,5.682,5.682,0,0,1-1.465-.48V15.3a7.481,7.481,0,0,0,3.172.75q2.961,0,2.961-2.32,0-2.078-3.266-2.078h-1.125V10.539h1.141a3.434,3.434,0,0,0,2.117-.59,1.935,1.935,0,0,0,.781-1.637A1.613,1.613,0,0,0,124.73,7a2.366,2.366,0,0,0-1.559-.477,4.809,4.809,0,0,0-1.414.2,6.328,6.328,0,0,0-1.516.75l-.656-.875a5.471,5.471,0,0,1,1.621-.871,5.892,5.892,0,0,1,1.934-.316,3.951,3.951,0,0,1,2.586.762A2.565,2.565,0,0,1,126.648,8.266Z" transform="translate(32 7.156)"/>
    </g>
    <g id="V1-Listas-Celdas-Nivel-3" transform="translate(699 825.844)">
      <rect id="Rectángulo_5365-7" data-name="Rectángulo 5365" class="cls-4" width="340.375" height="46.383" rx="4"/>
      <path id="Trazado_23939" data-name="Trazado 23939" class="cls-6" d="M8.75,17,7.328,13.367H2.75L1.344,17H0L4.516,5.531H5.633L10.125,17ZM6.914,12.172,5.586,8.633q-.258-.672-.531-1.648a14.8,14.8,0,0,1-.492,1.648L3.219,12.172ZM17.359,17V11.461A2.235,2.235,0,0,0,16.883,9.9a1.941,1.941,0,0,0-1.492-.516,2.461,2.461,0,0,0-1.969.727,3.668,3.668,0,0,0-.625,2.4V17H11.5V8.438h1.055l.211,1.172h.063a2.648,2.648,0,0,1,1.117-.98,3.63,3.63,0,0,1,1.6-.348,3.252,3.252,0,0,1,2.328.746,3.175,3.175,0,0,1,.781,2.387V17Zm5.258,0h-1.3V8.438h1.3ZM21.211,6.117a.861.861,0,0,1,.219-.652.81.81,0,0,1,1.086,0,.846.846,0,0,1,.227.648.859.859,0,0,1-.227.652.794.794,0,0,1-1.086,0A.877.877,0,0,1,21.211,6.117ZM31.2,15.852h-.07a3.047,3.047,0,0,1-2.687,1.3,3.179,3.179,0,0,1-2.613-1.148,5.055,5.055,0,0,1-.934-3.266,5.141,5.141,0,0,1,.938-3.289,3.155,3.155,0,0,1,2.609-1.172,3.114,3.114,0,0,1,2.672,1.266h.1l-.055-.617-.031-.6V4.844h1.3V17H31.367ZM28.6,16.07a2.361,2.361,0,0,0,1.926-.723,3.652,3.652,0,0,0,.6-2.332v-.273a4.3,4.3,0,0,0-.605-2.6,2.3,2.3,0,0,0-1.934-.777,1.985,1.985,0,0,0-1.746.887,4.409,4.409,0,0,0-.605,2.5,4.227,4.227,0,0,0,.6,2.477A2.037,2.037,0,0,0,28.6,16.07ZM40.438,17l-.258-1.219h-.062a3.6,3.6,0,0,1-1.277,1.09,3.893,3.893,0,0,1-1.59.285,2.86,2.86,0,0,1-2-.656,2.394,2.394,0,0,1-.723-1.867q0-2.594,4.148-2.719l1.453-.047v-.531A2.171,2.171,0,0,0,39.7,9.848a1.783,1.783,0,0,0-1.387-.48,5.65,5.65,0,0,0-2.422.656l-.4-.992a6.094,6.094,0,0,1,1.387-.539,6.006,6.006,0,0,1,1.512-.2,3.262,3.262,0,0,1,2.27.68,2.837,2.837,0,0,1,.738,2.18V17Zm-2.93-.914a2.632,2.632,0,0,0,1.9-.664,2.457,2.457,0,0,0,.691-1.859v-.773l-1.3.055a4.717,4.717,0,0,0-2.23.48,1.449,1.449,0,0,0-.684,1.324,1.336,1.336,0,0,0,.426,1.07A1.767,1.767,0,0,0,37.508,16.086ZM49.9,15.852h-.07a3.047,3.047,0,0,1-2.687,1.3,3.179,3.179,0,0,1-2.613-1.148,5.055,5.055,0,0,1-.934-3.266,5.141,5.141,0,0,1,.938-3.289,3.155,3.155,0,0,1,2.609-1.172,3.114,3.114,0,0,1,2.672,1.266h.1l-.055-.617-.031-.6V4.844h1.3V17H50.07ZM47.3,16.07a2.361,2.361,0,0,0,1.926-.723,3.652,3.652,0,0,0,.6-2.332v-.273a4.3,4.3,0,0,0-.605-2.6,2.3,2.3,0,0,0-1.934-.777,1.985,1.985,0,0,0-1.746.887,4.409,4.409,0,0,0-.605,2.5,4.227,4.227,0,0,0,.6,2.477A2.037,2.037,0,0,0,47.3,16.07Zm13.961-3.359a4.724,4.724,0,0,1-1.055,3.27A3.714,3.714,0,0,1,57.3,17.156a3.86,3.86,0,0,1-2.039-.539,3.558,3.558,0,0,1-1.375-1.547,5.391,5.391,0,0,1-.484-2.359,4.716,4.716,0,0,1,1.047-3.262,3.7,3.7,0,0,1,2.906-1.168,3.622,3.622,0,0,1,2.855,1.2A4.7,4.7,0,0,1,61.266,12.711Zm-6.523,0a4.064,4.064,0,0,0,.656,2.5,2.6,2.6,0,0,0,3.863,0,4.043,4.043,0,0,0,.66-2.5,3.978,3.978,0,0,0-.66-2.48,2.32,2.32,0,0,0-1.949-.848,2.283,2.283,0,0,0-1.922.836A4.023,4.023,0,0,0,54.742,12.711ZM73.555,17V11.461A2.235,2.235,0,0,0,73.078,9.9a1.941,1.941,0,0,0-1.492-.516,2.461,2.461,0,0,0-1.969.727,3.668,3.668,0,0,0-.625,2.4V17H67.7V8.438H68.75l.211,1.172h.063a2.648,2.648,0,0,1,1.117-.98,3.63,3.63,0,0,1,1.6-.348,3.252,3.252,0,0,1,2.328.746,3.175,3.175,0,0,1,.781,2.387V17Zm5.258,0h-1.3V8.438h1.3ZM77.406,6.117a.861.861,0,0,1,.219-.652.81.81,0,0,1,1.086,0,.846.846,0,0,1,.227.648.859.859,0,0,1-.227.652.794.794,0,0,1-1.086,0A.877.877,0,0,1,77.406,6.117ZM83.438,17l-3.25-8.562h1.391l1.844,5.078a24.035,24.035,0,0,1,.734,2.313h.063a17.466,17.466,0,0,1,.543-1.715q.457-1.3,2.051-5.676H88.2L84.953,17Zm9.758.156A3.934,3.934,0,0,1,90.2,16a4.476,4.476,0,0,1-1.1-3.211A4.964,4.964,0,0,1,90.121,9.5a3.387,3.387,0,0,1,2.738-1.219A3.229,3.229,0,0,1,95.406,9.34a4.057,4.057,0,0,1,.938,2.793v.82h-5.9a3.394,3.394,0,0,0,.762,2.289,2.635,2.635,0,0,0,2.035.781,6.9,6.9,0,0,0,2.734-.578V16.6a6.863,6.863,0,0,1-1.3.426A7.31,7.31,0,0,1,93.2,17.156Zm-.352-7.789a2.118,2.118,0,0,0-1.645.672,3.1,3.1,0,0,0-.723,1.859h4.477a2.851,2.851,0,0,0-.547-1.879A1.925,1.925,0,0,0,92.844,9.367ZM99.852,17h-1.3V4.844h1.3Zm13.391-8.734a2.6,2.6,0,0,1-.613,1.789,3.07,3.07,0,0,1-1.738.93v.063a3.269,3.269,0,0,1,2.039.875,2.575,2.575,0,0,1,.664,1.844,2.991,2.991,0,0,1-1.133,2.512,5.152,5.152,0,0,1-3.219.879,9.328,9.328,0,0,1-1.66-.137,5.682,5.682,0,0,1-1.465-.48V15.3a7.481,7.481,0,0,0,3.172.75q2.961,0,2.961-2.32,0-2.078-3.266-2.078h-1.125V10.539H109a3.434,3.434,0,0,0,2.117-.59,1.935,1.935,0,0,0,.781-1.637A1.613,1.613,0,0,0,111.324,7a2.366,2.366,0,0,0-1.559-.477,4.809,4.809,0,0,0-1.414.2,6.328,6.328,0,0,0-1.516.75L106.18,6.6A5.471,5.471,0,0,1,107.8,5.73a5.892,5.892,0,0,1,1.934-.316,3.951,3.951,0,0,1,2.586.762A2.565,2.565,0,0,1,113.242,8.266Zm2.477,7.906a1.164,1.164,0,0,1,.238-.793.864.864,0,0,1,.684-.27.924.924,0,0,1,.707.27,1.116,1.116,0,0,1,.254.793,1.1,1.1,0,0,1-.258.781,1.025,1.025,0,0,1-1.363.027A1.07,1.07,0,0,1,115.719,16.172Zm8.656.828h-1.266V8.859q0-1.016.063-1.922-.164.164-.367.344T120.945,8.8l-.687-.891,3.023-2.336h1.094Z" transform="translate(48 12.156)"/>
    </g>
    <g id="V1-Listas-Celdas-Nivel-3-2" data-name="V1-Listas-Celdas-Nivel-3" transform="translate(699 784.844)">
      <rect id="Rectángulo_5365-8" data-name="Rectángulo 5365" class="cls-3" width="193.594" height="36.313" rx="4"/>
      <path id="Trazado_23938" data-name="Trazado 23938" class="cls-7" d="M8.75,17,7.328,13.367H2.75L1.344,17H0L4.516,5.531H5.633L10.125,17ZM6.914,12.172,5.586,8.633q-.258-.672-.531-1.648a14.8,14.8,0,0,1-.492,1.648L3.219,12.172ZM17.359,17V11.461A2.235,2.235,0,0,0,16.883,9.9a1.941,1.941,0,0,0-1.492-.516,2.461,2.461,0,0,0-1.969.727,3.668,3.668,0,0,0-.625,2.4V17H11.5V8.438h1.055l.211,1.172h.063a2.648,2.648,0,0,1,1.117-.98,3.63,3.63,0,0,1,1.6-.348,3.252,3.252,0,0,1,2.328.746,3.175,3.175,0,0,1,.781,2.387V17Zm5.258,0h-1.3V8.438h1.3ZM21.211,6.117a.861.861,0,0,1,.219-.652.81.81,0,0,1,1.086,0,.846.846,0,0,1,.227.648.859.859,0,0,1-.227.652.794.794,0,0,1-1.086,0A.877.877,0,0,1,21.211,6.117ZM31.2,15.852h-.07a3.047,3.047,0,0,1-2.687,1.3,3.179,3.179,0,0,1-2.613-1.148,5.055,5.055,0,0,1-.934-3.266,5.141,5.141,0,0,1,.938-3.289,3.155,3.155,0,0,1,2.609-1.172,3.114,3.114,0,0,1,2.672,1.266h.1l-.055-.617-.031-.6V4.844h1.3V17H31.367ZM28.6,16.07a2.361,2.361,0,0,0,1.926-.723,3.652,3.652,0,0,0,.6-2.332v-.273a4.3,4.3,0,0,0-.605-2.6,2.3,2.3,0,0,0-1.934-.777,1.985,1.985,0,0,0-1.746.887,4.409,4.409,0,0,0-.605,2.5,4.227,4.227,0,0,0,.6,2.477A2.037,2.037,0,0,0,28.6,16.07ZM40.438,17l-.258-1.219h-.062a3.6,3.6,0,0,1-1.277,1.09,3.893,3.893,0,0,1-1.59.285,2.86,2.86,0,0,1-2-.656,2.394,2.394,0,0,1-.723-1.867q0-2.594,4.148-2.719l1.453-.047v-.531A2.171,2.171,0,0,0,39.7,9.848a1.783,1.783,0,0,0-1.387-.48,5.65,5.65,0,0,0-2.422.656l-.4-.992a6.094,6.094,0,0,1,1.387-.539,6.006,6.006,0,0,1,1.512-.2,3.262,3.262,0,0,1,2.27.68,2.837,2.837,0,0,1,.738,2.18V17Zm-2.93-.914a2.632,2.632,0,0,0,1.9-.664,2.457,2.457,0,0,0,.691-1.859v-.773l-1.3.055a4.717,4.717,0,0,0-2.23.48,1.449,1.449,0,0,0-.684,1.324,1.336,1.336,0,0,0,.426,1.07A1.767,1.767,0,0,0,37.508,16.086ZM49.9,15.852h-.07a3.047,3.047,0,0,1-2.687,1.3,3.179,3.179,0,0,1-2.613-1.148,5.055,5.055,0,0,1-.934-3.266,5.141,5.141,0,0,1,.938-3.289,3.155,3.155,0,0,1,2.609-1.172,3.114,3.114,0,0,1,2.672,1.266h.1l-.055-.617-.031-.6V4.844h1.3V17H50.07ZM47.3,16.07a2.361,2.361,0,0,0,1.926-.723,3.652,3.652,0,0,0,.6-2.332v-.273a4.3,4.3,0,0,0-.605-2.6,2.3,2.3,0,0,0-1.934-.777,1.985,1.985,0,0,0-1.746.887,4.409,4.409,0,0,0-.605,2.5,4.227,4.227,0,0,0,.6,2.477A2.037,2.037,0,0,0,47.3,16.07Zm13.961-3.359a4.724,4.724,0,0,1-1.055,3.27A3.714,3.714,0,0,1,57.3,17.156a3.86,3.86,0,0,1-2.039-.539,3.558,3.558,0,0,1-1.375-1.547,5.391,5.391,0,0,1-.484-2.359,4.716,4.716,0,0,1,1.047-3.262,3.7,3.7,0,0,1,2.906-1.168,3.622,3.622,0,0,1,2.855,1.2A4.7,4.7,0,0,1,61.266,12.711Zm-6.523,0a4.064,4.064,0,0,0,.656,2.5,2.6,2.6,0,0,0,3.863,0,4.043,4.043,0,0,0,.66-2.5,3.978,3.978,0,0,0-.66-2.48,2.32,2.32,0,0,0-1.949-.848,2.283,2.283,0,0,0-1.922.836A4.023,4.023,0,0,0,54.742,12.711ZM73.555,17V11.461A2.235,2.235,0,0,0,73.078,9.9a1.941,1.941,0,0,0-1.492-.516,2.461,2.461,0,0,0-1.969.727,3.668,3.668,0,0,0-.625,2.4V17H67.7V8.438H68.75l.211,1.172h.063a2.648,2.648,0,0,1,1.117-.98,3.63,3.63,0,0,1,1.6-.348,3.252,3.252,0,0,1,2.328.746,3.175,3.175,0,0,1,.781,2.387V17Zm5.258,0h-1.3V8.438h1.3ZM77.406,6.117a.861.861,0,0,1,.219-.652.81.81,0,0,1,1.086,0,.846.846,0,0,1,.227.648.859.859,0,0,1-.227.652.794.794,0,0,1-1.086,0A.877.877,0,0,1,77.406,6.117ZM83.438,17l-3.25-8.562h1.391l1.844,5.078a24.035,24.035,0,0,1,.734,2.313h.063a17.466,17.466,0,0,1,.543-1.715q.457-1.3,2.051-5.676H88.2L84.953,17Zm9.758.156A3.934,3.934,0,0,1,90.2,16a4.476,4.476,0,0,1-1.1-3.211A4.964,4.964,0,0,1,90.121,9.5a3.387,3.387,0,0,1,2.738-1.219A3.229,3.229,0,0,1,95.406,9.34a4.057,4.057,0,0,1,.938,2.793v.82h-5.9a3.394,3.394,0,0,0,.762,2.289,2.635,2.635,0,0,0,2.035.781,6.9,6.9,0,0,0,2.734-.578V16.6a6.863,6.863,0,0,1-1.3.426A7.31,7.31,0,0,1,93.2,17.156Zm-.352-7.789a2.118,2.118,0,0,0-1.645.672,3.1,3.1,0,0,0-.723,1.859h4.477a2.851,2.851,0,0,0-.547-1.879A1.925,1.925,0,0,0,92.844,9.367ZM99.852,17h-1.3V4.844h1.3Zm13.391-8.734a2.6,2.6,0,0,1-.613,1.789,3.07,3.07,0,0,1-1.738.93v.063a3.269,3.269,0,0,1,2.039.875,2.575,2.575,0,0,1,.664,1.844,2.991,2.991,0,0,1-1.133,2.512,5.152,5.152,0,0,1-3.219.879,9.328,9.328,0,0,1-1.66-.137,5.682,5.682,0,0,1-1.465-.48V15.3a7.481,7.481,0,0,0,3.172.75q2.961,0,2.961-2.32,0-2.078-3.266-2.078h-1.125V10.539H109a3.434,3.434,0,0,0,2.117-.59,1.935,1.935,0,0,0,.781-1.637A1.613,1.613,0,0,0,111.324,7a2.366,2.366,0,0,0-1.559-.477,4.809,4.809,0,0,0-1.414.2,6.328,6.328,0,0,0-1.516.75L106.18,6.6A5.471,5.471,0,0,1,107.8,5.73a5.892,5.892,0,0,1,1.934-.316,3.951,3.951,0,0,1,2.586.762A2.565,2.565,0,0,1,113.242,8.266Z" transform="translate(48 7.156)"/>
    </g>
    <path id="Trazado_23934" data-name="Trazado 23934" class="cls-4" d="M5.12.144A8.079,8.079,0,0,1,2.792-.184a5.125,5.125,0,0,1-1.784-.888A.9.9,0,0,1,.64-1.84a.9.9,0,0,1,.2-.584.592.592,0,0,1,.472-.248,1.3,1.3,0,0,1,.656.224,4.8,4.8,0,0,0,1.44.72A5.814,5.814,0,0,0,5.072-1.5a3.277,3.277,0,0,0,1.792-.408A1.335,1.335,0,0,0,7.488-3.1,1.025,1.025,0,0,0,6.9-4.04,7.733,7.733,0,0,0,4.96-4.672a11.515,11.515,0,0,1-2.288-.7A3.231,3.231,0,0,1,1.344-6.4,2.649,2.649,0,0,1,.9-7.984a2.981,2.981,0,0,1,.56-1.776,3.689,3.689,0,0,1,1.56-1.224,5.526,5.526,0,0,1,2.248-.44,5.58,5.58,0,0,1,3.728,1.216,1.2,1.2,0,0,1,.3.344.909.909,0,0,1,.088.424.9.9,0,0,1-.2.584.592.592,0,0,1-.472.248.884.884,0,0,1-.3-.048,2.372,2.372,0,0,1-.36-.176,5.406,5.406,0,0,0-1.272-.712,4.312,4.312,0,0,0-1.512-.232,2.965,2.965,0,0,0-1.72.44,1.409,1.409,0,0,0-.632,1.224A1.123,1.123,0,0,0,3.472-7.1a6.563,6.563,0,0,0,1.9.656,12.811,12.811,0,0,1,2.312.712,3.429,3.429,0,0,1,1.36,1,2.4,2.4,0,0,1,.472,1.52,2.9,2.9,0,0,1-.552,1.752A3.6,3.6,0,0,1,7.416-.28,5.838,5.838,0,0,1,5.12.144Zm12.3-2.288a.538.538,0,0,1,.44.208.865.865,0,0,1,.168.56.97.97,0,0,1-.592.832,5.349,5.349,0,0,1-1.232.488A5.079,5.079,0,0,1,14.9.128,4.077,4.077,0,0,1,11.9-.96a3.988,3.988,0,0,1-1.1-2.976,4.566,4.566,0,0,1,.48-2.128A3.49,3.49,0,0,1,12.632-7.5a3.829,3.829,0,0,1,1.976-.512,3.546,3.546,0,0,1,1.84.464A3.146,3.146,0,0,1,17.664-6.24a4.353,4.353,0,0,1,.432,2q0,.688-.608.688h-4.72a2.517,2.517,0,0,0,.624,1.624,2.1,2.1,0,0,0,1.536.52,2.913,2.913,0,0,0,.9-.128,8.923,8.923,0,0,0,.888-.352A1.766,1.766,0,0,1,17.424-2.144ZM14.656-6.608a1.717,1.717,0,0,0-1.3.512,2.417,2.417,0,0,0-.584,1.472h3.616A2.281,2.281,0,0,0,15.9-6.1,1.583,1.583,0,0,0,14.656-6.608ZM20.7.1a1.034,1.034,0,0,1-.712-.248.9.9,0,0,1-.28-.712v-9.552a.876.876,0,0,1,.28-.7,1.055,1.055,0,0,1,.712-.24,1.087,1.087,0,0,1,.72.24.864.864,0,0,1,.288.7V-.864a.888.888,0,0,1-.288.712A1.064,1.064,0,0,1,20.7.1Zm9.248-2.24a.538.538,0,0,1,.44.208.865.865,0,0,1,.168.56.97.97,0,0,1-.592.832,5.349,5.349,0,0,1-1.232.488,5.079,5.079,0,0,1-1.312.184A4.077,4.077,0,0,1,24.432-.96a3.988,3.988,0,0,1-1.1-2.976,4.566,4.566,0,0,1,.48-2.128A3.49,3.49,0,0,1,25.16-7.5a3.829,3.829,0,0,1,1.976-.512,3.546,3.546,0,0,1,1.84.464A3.146,3.146,0,0,1,30.192-6.24a4.353,4.353,0,0,1,.432,2q0,.688-.608.688H25.3a2.517,2.517,0,0,0,.624,1.624,2.1,2.1,0,0,0,1.536.52,2.913,2.913,0,0,0,.9-.128,8.923,8.923,0,0,0,.888-.352A1.766,1.766,0,0,1,29.952-2.144ZM27.184-6.608a1.717,1.717,0,0,0-1.3.512A2.417,2.417,0,0,0,25.3-4.624h3.616a2.281,2.281,0,0,0-.48-1.48A1.583,1.583,0,0,0,27.184-6.608ZM35.712.128a4.146,4.146,0,0,1-2.056-.5,3.381,3.381,0,0,1-1.368-1.408,4.505,4.505,0,0,1-.48-2.128,4.468,4.468,0,0,1,.5-2.152A3.56,3.56,0,0,1,33.728-7.5a4.208,4.208,0,0,1,2.1-.512,4.665,4.665,0,0,1,1.256.176,4.143,4.143,0,0,1,1.112.48.99.99,0,0,1,.512.848.9.9,0,0,1-.168.568.531.531,0,0,1-.44.216.956.956,0,0,1-.368-.08A3.222,3.222,0,0,1,37.344-6a4.3,4.3,0,0,0-.672-.328,2.088,2.088,0,0,0-.736-.12,1.871,1.871,0,0,0-1.528.648,2.855,2.855,0,0,0-.536,1.864,2.827,2.827,0,0,0,.536,1.848,1.871,1.871,0,0,0,1.528.648,1.973,1.973,0,0,0,.712-.12,6.032,6.032,0,0,0,.7-.328A3.168,3.168,0,0,1,37.76-2.1a.923.923,0,0,1,.352-.072.531.531,0,0,1,.432.224.879.879,0,0,1,.176.56.9.9,0,0,1-.12.472,1.081,1.081,0,0,1-.392.36,4.207,4.207,0,0,1-1.152.5A4.953,4.953,0,0,1,35.712.128Zm7.792,0a4.146,4.146,0,0,1-2.056-.5A3.381,3.381,0,0,1,40.08-1.776,4.505,4.505,0,0,1,39.6-3.9a4.468,4.468,0,0,1,.5-2.152A3.56,3.56,0,0,1,41.52-7.5a4.208,4.208,0,0,1,2.1-.512,4.665,4.665,0,0,1,1.256.176,4.143,4.143,0,0,1,1.112.48.99.99,0,0,1,.512.848.9.9,0,0,1-.168.568.531.531,0,0,1-.44.216.956.956,0,0,1-.368-.08A3.222,3.222,0,0,1,45.136-6a4.3,4.3,0,0,0-.672-.328,2.088,2.088,0,0,0-.736-.12A1.871,1.871,0,0,0,42.2-5.8a2.855,2.855,0,0,0-.536,1.864A2.827,2.827,0,0,0,42.2-2.088a1.871,1.871,0,0,0,1.528.648,1.973,1.973,0,0,0,.712-.12,6.032,6.032,0,0,0,.7-.328,3.168,3.168,0,0,1,.416-.216.923.923,0,0,1,.352-.072.531.531,0,0,1,.432.224.879.879,0,0,1,.176.56.9.9,0,0,1-.12.472A1.081,1.081,0,0,1,46-.56a4.207,4.207,0,0,1-1.152.5A4.953,4.953,0,0,1,43.5.128ZM48.816.1A1.034,1.034,0,0,1,48.1-.152a.9.9,0,0,1-.28-.712V-7.04a.876.876,0,0,1,.28-.7,1.055,1.055,0,0,1,.712-.24,1.087,1.087,0,0,1,.72.24.864.864,0,0,1,.288.7V-.864a.888.888,0,0,1-.288.712A1.064,1.064,0,0,1,48.816.1Zm0-9.5a1.222,1.222,0,0,1-.864-.3,1.008,1.008,0,0,1-.32-.776.983.983,0,0,1,.32-.768,1.243,1.243,0,0,1,.864-.288,1.25,1.25,0,0,1,.856.288A.971.971,0,0,1,50-10.48a1.008,1.008,0,0,1-.32.776A1.222,1.222,0,0,1,48.816-9.408ZM55.44.128a4.3,4.3,0,0,1-2.1-.5,3.432,3.432,0,0,1-1.4-1.424,4.515,4.515,0,0,1-.5-2.16,4.468,4.468,0,0,1,.5-2.152,3.444,3.444,0,0,1,1.4-1.416,4.3,4.3,0,0,1,2.1-.5,4.3,4.3,0,0,1,2.1.5A3.394,3.394,0,0,1,58.936-6.1a4.527,4.527,0,0,1,.488,2.152,4.575,4.575,0,0,1-.488,2.16A3.382,3.382,0,0,1,57.544-.368,4.3,4.3,0,0,1,55.44.128Zm-.016-1.552a1.793,1.793,0,0,0,1.488-.64,2.973,2.973,0,0,0,.512-1.888,2.979,2.979,0,0,0-.512-1.88A1.765,1.765,0,0,0,55.44-6.48a1.788,1.788,0,0,0-1.48.648,2.946,2.946,0,0,0-.52,1.88,2.973,2.973,0,0,0,.512,1.888A1.775,1.775,0,0,0,55.424-1.424ZM55.84-8.9a.6.6,0,0,1-.352.128.511.511,0,0,1-.376-.152.492.492,0,0,1-.152-.36.6.6,0,0,1,.128-.352L56.64-11.7a1.059,1.059,0,0,1,.848-.48.817.817,0,0,1,.6.248.8.8,0,0,1,.248.584.936.936,0,0,1-.432.768Zm9.76.88a2.615,2.615,0,0,1,2.1.8A3.628,3.628,0,0,1,68.384-4.8V-.864a.935.935,0,0,1-.264.7A1,1,0,0,1,67.392.1a1.03,1.03,0,0,1-.736-.256.92.92,0,0,1-.272-.7V-4.688a2.074,2.074,0,0,0-.344-1.328,1.322,1.322,0,0,0-1.08-.416,1.826,1.826,0,0,0-1.384.544,2.019,2.019,0,0,0-.52,1.456V-.864a.92.92,0,0,1-.272.7A1.03,1.03,0,0,1,62.048.1,1,1,0,0,1,61.32-.16a.935.935,0,0,1-.264-.7V-7.056a.88.88,0,0,1,.272-.672,1.03,1.03,0,0,1,.736-.256.953.953,0,0,1,.68.248.848.848,0,0,1,.264.648v.432A2.706,2.706,0,0,1,64.08-7.664,3.226,3.226,0,0,1,65.6-8.016ZM7.76,14.592a1.222,1.222,0,0,1-.864-.3,1.008,1.008,0,0,1-.32-.776.983.983,0,0,1,.32-.768,1.243,1.243,0,0,1,.864-.288,1.25,1.25,0,0,1,.856.288.971.971,0,0,1,.328.768,1,1,0,0,1-.328.776A1.229,1.229,0,0,1,7.76,14.592Zm.1,1.584q.9,0,.9.752v6.208a.9.9,0,0,1-.28.712,1.034,1.034,0,0,1-.712.248,1.064,1.064,0,0,1-.72-.248.888.888,0,0,1-.288-.712V17.68H3.584v5.456a.876.876,0,0,1-.28.7,1.055,1.055,0,0,1-.712.24,1.087,1.087,0,0,1-.72-.24.864.864,0,0,1-.288-.7V17.68h-.8q-.9,0-.9-.752t.9-.752h.8V16.1a3.377,3.377,0,0,1,.792-2.36,3.276,3.276,0,0,1,2.232-1l.368-.032a1.325,1.325,0,0,1,.24-.016q.848,0,.848.72a.736.736,0,0,1-.192.544.831.831,0,0,1-.528.224l-.352.032a1.523,1.523,0,0,0-1.072.456,1.713,1.713,0,0,0-.336,1.144v.368Zm7.5-.192a2.615,2.615,0,0,1,2.1.8,3.628,3.628,0,0,1,.688,2.416v3.936a.935.935,0,0,1-.264.7,1,1,0,0,1-.728.256,1.03,1.03,0,0,1-.736-.256.92.92,0,0,1-.272-.7V19.312a2.074,2.074,0,0,0-.344-1.328,1.322,1.322,0,0,0-1.08-.416,1.826,1.826,0,0,0-1.384.544,2.019,2.019,0,0,0-.52,1.456v3.568a.92.92,0,0,1-.272.7,1.03,1.03,0,0,1-.736.256,1,1,0,0,1-.728-.256.935.935,0,0,1-.264-.7V16.944a.88.88,0,0,1,.272-.672,1.03,1.03,0,0,1,.736-.256.953.953,0,0,1,.68.248.848.848,0,0,1,.264.648v.432a2.706,2.706,0,0,1,1.072-1.008A3.226,3.226,0,0,1,15.36,15.984Zm8.192,0a3.259,3.259,0,0,1,2.424.808,3.383,3.383,0,0,1,.792,2.456v3.9a.9.9,0,0,1-.256.68.969.969,0,0,1-.7.248.936.936,0,0,1-.68-.256.894.894,0,0,1-.264-.672V22.8a2.088,2.088,0,0,1-.856.976,2.568,2.568,0,0,1-1.352.352,3.139,3.139,0,0,1-1.424-.32,2.533,2.533,0,0,1-1.008-.88,2.224,2.224,0,0,1-.368-1.248,1.977,1.977,0,0,1,.44-1.36,2.644,2.644,0,0,1,1.432-.72,13.041,13.041,0,0,1,2.736-.224h.4v-.368a1.638,1.638,0,0,0-.336-1.144,1.43,1.43,0,0,0-1.088-.36,3.452,3.452,0,0,0-.944.136q-.48.136-1.136.392a1.6,1.6,0,0,1-.608.208.6.6,0,0,1-.472-.208.791.791,0,0,1-.184-.544.819.819,0,0,1,.136-.472,1.291,1.291,0,0,1,.456-.376,5.216,5.216,0,0,1,1.336-.48A6.893,6.893,0,0,1,23.552,15.984Zm-.5,6.7a1.709,1.709,0,0,0,1.3-.536,1.939,1.939,0,0,0,.5-1.384v-.336h-.288a11.037,11.037,0,0,0-1.664.1,1.616,1.616,0,0,0-.848.336.856.856,0,0,0-.256.656,1.085,1.085,0,0,0,.36.84A1.27,1.27,0,0,0,23.056,22.688Zm6.72,1.408a1.034,1.034,0,0,1-.712-.248.9.9,0,0,1-.28-.712V13.584a.876.876,0,0,1,.28-.7,1.055,1.055,0,0,1,.712-.24,1.087,1.087,0,0,1,.72.24.864.864,0,0,1,.288.7v9.552a.888.888,0,0,1-.288.712A1.064,1.064,0,0,1,29.776,24.1Z" transform="translate(1078 854)"/>
    <path id="Trazado_23932" data-name="Trazado 23932" class="cls-4" d="M5.12.144A8.079,8.079,0,0,1,2.792-.184a5.125,5.125,0,0,1-1.784-.888A.9.9,0,0,1,.64-1.84a.9.9,0,0,1,.2-.584.592.592,0,0,1,.472-.248,1.3,1.3,0,0,1,.656.224,4.8,4.8,0,0,0,1.44.72A5.814,5.814,0,0,0,5.072-1.5a3.277,3.277,0,0,0,1.792-.408A1.335,1.335,0,0,0,7.488-3.1,1.025,1.025,0,0,0,6.9-4.04,7.733,7.733,0,0,0,4.96-4.672a11.515,11.515,0,0,1-2.288-.7A3.231,3.231,0,0,1,1.344-6.4,2.649,2.649,0,0,1,.9-7.984a2.981,2.981,0,0,1,.56-1.776,3.689,3.689,0,0,1,1.56-1.224,5.526,5.526,0,0,1,2.248-.44,5.58,5.58,0,0,1,3.728,1.216,1.2,1.2,0,0,1,.3.344.909.909,0,0,1,.088.424.9.9,0,0,1-.2.584.592.592,0,0,1-.472.248.884.884,0,0,1-.3-.048,2.372,2.372,0,0,1-.36-.176,5.406,5.406,0,0,0-1.272-.712,4.312,4.312,0,0,0-1.512-.232,2.965,2.965,0,0,0-1.72.44,1.409,1.409,0,0,0-.632,1.224A1.123,1.123,0,0,0,3.472-7.1a6.563,6.563,0,0,0,1.9.656,12.811,12.811,0,0,1,2.312.712,3.429,3.429,0,0,1,1.36,1,2.4,2.4,0,0,1,.472,1.52,2.9,2.9,0,0,1-.552,1.752A3.6,3.6,0,0,1,7.416-.28,5.838,5.838,0,0,1,5.12.144Zm12.3-2.288a.538.538,0,0,1,.44.208.865.865,0,0,1,.168.56.97.97,0,0,1-.592.832,5.349,5.349,0,0,1-1.232.488A5.079,5.079,0,0,1,14.9.128,4.077,4.077,0,0,1,11.9-.96a3.988,3.988,0,0,1-1.1-2.976,4.566,4.566,0,0,1,.48-2.128A3.49,3.49,0,0,1,12.632-7.5a3.829,3.829,0,0,1,1.976-.512,3.546,3.546,0,0,1,1.84.464A3.146,3.146,0,0,1,17.664-6.24a4.353,4.353,0,0,1,.432,2q0,.688-.608.688h-4.72a2.517,2.517,0,0,0,.624,1.624,2.1,2.1,0,0,0,1.536.52,2.913,2.913,0,0,0,.9-.128,8.923,8.923,0,0,0,.888-.352A1.766,1.766,0,0,1,17.424-2.144ZM14.656-6.608a1.717,1.717,0,0,0-1.3.512,2.417,2.417,0,0,0-.584,1.472h3.616A2.281,2.281,0,0,0,15.9-6.1,1.583,1.583,0,0,0,14.656-6.608ZM20.7.1a1.034,1.034,0,0,1-.712-.248.9.9,0,0,1-.28-.712v-9.552a.876.876,0,0,1,.28-.7,1.055,1.055,0,0,1,.712-.24,1.087,1.087,0,0,1,.72.24.864.864,0,0,1,.288.7V-.864a.888.888,0,0,1-.288.712A1.064,1.064,0,0,1,20.7.1Zm9.248-2.24a.538.538,0,0,1,.44.208.865.865,0,0,1,.168.56.97.97,0,0,1-.592.832,5.349,5.349,0,0,1-1.232.488,5.079,5.079,0,0,1-1.312.184A4.077,4.077,0,0,1,24.432-.96a3.988,3.988,0,0,1-1.1-2.976,4.566,4.566,0,0,1,.48-2.128A3.49,3.49,0,0,1,25.16-7.5a3.829,3.829,0,0,1,1.976-.512,3.546,3.546,0,0,1,1.84.464A3.146,3.146,0,0,1,30.192-6.24a4.353,4.353,0,0,1,.432,2q0,.688-.608.688H25.3a2.517,2.517,0,0,0,.624,1.624,2.1,2.1,0,0,0,1.536.52,2.913,2.913,0,0,0,.9-.128,8.923,8.923,0,0,0,.888-.352A1.766,1.766,0,0,1,29.952-2.144ZM27.184-6.608a1.717,1.717,0,0,0-1.3.512A2.417,2.417,0,0,0,25.3-4.624h3.616a2.281,2.281,0,0,0-.48-1.48A1.583,1.583,0,0,0,27.184-6.608ZM35.712.128a4.146,4.146,0,0,1-2.056-.5,3.381,3.381,0,0,1-1.368-1.408,4.505,4.505,0,0,1-.48-2.128,4.468,4.468,0,0,1,.5-2.152A3.56,3.56,0,0,1,33.728-7.5a4.208,4.208,0,0,1,2.1-.512,4.665,4.665,0,0,1,1.256.176,4.143,4.143,0,0,1,1.112.48.99.99,0,0,1,.512.848.9.9,0,0,1-.168.568.531.531,0,0,1-.44.216.956.956,0,0,1-.368-.08A3.222,3.222,0,0,1,37.344-6a4.3,4.3,0,0,0-.672-.328,2.088,2.088,0,0,0-.736-.12,1.871,1.871,0,0,0-1.528.648,2.855,2.855,0,0,0-.536,1.864,2.827,2.827,0,0,0,.536,1.848,1.871,1.871,0,0,0,1.528.648,1.973,1.973,0,0,0,.712-.12,6.032,6.032,0,0,0,.7-.328A3.168,3.168,0,0,1,37.76-2.1a.923.923,0,0,1,.352-.072.531.531,0,0,1,.432.224.879.879,0,0,1,.176.56.9.9,0,0,1-.12.472,1.081,1.081,0,0,1-.392.36,4.207,4.207,0,0,1-1.152.5A4.953,4.953,0,0,1,35.712.128Zm7.792,0a4.146,4.146,0,0,1-2.056-.5A3.381,3.381,0,0,1,40.08-1.776,4.505,4.505,0,0,1,39.6-3.9a4.468,4.468,0,0,1,.5-2.152A3.56,3.56,0,0,1,41.52-7.5a4.208,4.208,0,0,1,2.1-.512,4.665,4.665,0,0,1,1.256.176,4.143,4.143,0,0,1,1.112.48.99.99,0,0,1,.512.848.9.9,0,0,1-.168.568.531.531,0,0,1-.44.216.956.956,0,0,1-.368-.08A3.222,3.222,0,0,1,45.136-6a4.3,4.3,0,0,0-.672-.328,2.088,2.088,0,0,0-.736-.12A1.871,1.871,0,0,0,42.2-5.8a2.855,2.855,0,0,0-.536,1.864A2.827,2.827,0,0,0,42.2-2.088a1.871,1.871,0,0,0,1.528.648,1.973,1.973,0,0,0,.712-.12,6.032,6.032,0,0,0,.7-.328,3.168,3.168,0,0,1,.416-.216.923.923,0,0,1,.352-.072.531.531,0,0,1,.432.224.879.879,0,0,1,.176.56.9.9,0,0,1-.12.472A1.081,1.081,0,0,1,46-.56a4.207,4.207,0,0,1-1.152.5A4.953,4.953,0,0,1,43.5.128ZM48.816.1A1.034,1.034,0,0,1,48.1-.152a.9.9,0,0,1-.28-.712V-7.04a.876.876,0,0,1,.28-.7,1.055,1.055,0,0,1,.712-.24,1.087,1.087,0,0,1,.72.24.864.864,0,0,1,.288.7V-.864a.888.888,0,0,1-.288.712A1.064,1.064,0,0,1,48.816.1Zm0-9.5a1.222,1.222,0,0,1-.864-.3,1.008,1.008,0,0,1-.32-.776.983.983,0,0,1,.32-.768,1.243,1.243,0,0,1,.864-.288,1.25,1.25,0,0,1,.856.288A.971.971,0,0,1,50-10.48a1.008,1.008,0,0,1-.32.776A1.222,1.222,0,0,1,48.816-9.408ZM55.44.128a4.3,4.3,0,0,1-2.1-.5,3.432,3.432,0,0,1-1.4-1.424,4.515,4.515,0,0,1-.5-2.16,4.468,4.468,0,0,1,.5-2.152,3.444,3.444,0,0,1,1.4-1.416,4.3,4.3,0,0,1,2.1-.5,4.3,4.3,0,0,1,2.1.5A3.394,3.394,0,0,1,58.936-6.1a4.527,4.527,0,0,1,.488,2.152,4.575,4.575,0,0,1-.488,2.16A3.382,3.382,0,0,1,57.544-.368,4.3,4.3,0,0,1,55.44.128Zm-.016-1.552a1.793,1.793,0,0,0,1.488-.64,2.973,2.973,0,0,0,.512-1.888,2.979,2.979,0,0,0-.512-1.88A1.765,1.765,0,0,0,55.44-6.48a1.788,1.788,0,0,0-1.48.648,2.946,2.946,0,0,0-.52,1.88,2.973,2.973,0,0,0,.512,1.888A1.775,1.775,0,0,0,55.424-1.424ZM55.84-8.9a.6.6,0,0,1-.352.128.511.511,0,0,1-.376-.152.492.492,0,0,1-.152-.36.6.6,0,0,1,.128-.352L56.64-11.7a1.059,1.059,0,0,1,.848-.48.817.817,0,0,1,.6.248.8.8,0,0,1,.248.584.936.936,0,0,1-.432.768Zm9.76.88a2.615,2.615,0,0,1,2.1.8A3.628,3.628,0,0,1,68.384-4.8V-.864a.935.935,0,0,1-.264.7A1,1,0,0,1,67.392.1a1.03,1.03,0,0,1-.736-.256.92.92,0,0,1-.272-.7V-4.688a2.074,2.074,0,0,0-.344-1.328,1.322,1.322,0,0,0-1.08-.416,1.826,1.826,0,0,0-1.384.544,2.019,2.019,0,0,0-.52,1.456V-.864a.92.92,0,0,1-.272.7A1.03,1.03,0,0,1,62.048.1,1,1,0,0,1,61.32-.16a.935.935,0,0,1-.264-.7V-7.056a.88.88,0,0,1,.272-.672,1.03,1.03,0,0,1,.736-.256.953.953,0,0,1,.68.248.848.848,0,0,1,.264.648v.432A2.706,2.706,0,0,1,64.08-7.664,3.226,3.226,0,0,1,65.6-8.016ZM7.568,12.64A1.066,1.066,0,0,1,8.3,12.9a.856.856,0,0,1,.288.672v9.568a.9.9,0,0,1-.272.688,1.008,1.008,0,0,1-.72.256,1.008,1.008,0,0,1-.72-.256.9.9,0,0,1-.272-.688v-.4A2.5,2.5,0,0,1,5.592,23.76a3.066,3.066,0,0,1-1.512.368,3.243,3.243,0,0,1-1.8-.512,3.4,3.4,0,0,1-1.232-1.448,5,5,0,0,1-.44-2.152,4.845,4.845,0,0,1,.44-2.128A3.333,3.333,0,0,1,2.272,16.48a3.309,3.309,0,0,1,1.808-.5,3.131,3.131,0,0,1,1.5.352,2.442,2.442,0,0,1,1.008.992V13.536a.848.848,0,0,1,.264-.648A1,1,0,0,1,7.568,12.64Zm-2.96,9.936a1.779,1.779,0,0,0,1.48-.656,2.952,2.952,0,0,0,.52-1.872,2.917,2.917,0,0,0-.52-1.864,1.77,1.77,0,0,0-1.464-.648,1.821,1.821,0,0,0-1.488.64,2.823,2.823,0,0,0-.528,1.84A2.989,2.989,0,0,0,3.136,21.9,1.766,1.766,0,0,0,4.608,22.576Zm12.224-.72a.538.538,0,0,1,.44.208.865.865,0,0,1,.168.56.97.97,0,0,1-.592.832,5.349,5.349,0,0,1-1.232.488,5.079,5.079,0,0,1-1.312.184,4.077,4.077,0,0,1-2.992-1.088,3.988,3.988,0,0,1-1.1-2.976,4.566,4.566,0,0,1,.48-2.128A3.49,3.49,0,0,1,12.04,16.5a3.829,3.829,0,0,1,1.976-.512,3.546,3.546,0,0,1,1.84.464,3.146,3.146,0,0,1,1.216,1.312,4.353,4.353,0,0,1,.432,2q0,.688-.608.688h-4.72a2.517,2.517,0,0,0,.624,1.624,2.1,2.1,0,0,0,1.536.52,2.913,2.913,0,0,0,.9-.128,8.923,8.923,0,0,0,.888-.352A1.766,1.766,0,0,1,16.832,21.856Zm-2.768-4.464a1.717,1.717,0,0,0-1.3.512,2.417,2.417,0,0,0-.584,1.472h3.616a2.281,2.281,0,0,0-.48-1.48A1.583,1.583,0,0,0,14.064,17.392Zm7.888,6.736a5.144,5.144,0,0,1-2.816-.688.954.954,0,0,1-.512-.864.758.758,0,0,1,.176-.52.554.554,0,0,1,.432-.2,1.767,1.767,0,0,1,.752.256,7,7,0,0,0,.936.368,3.812,3.812,0,0,0,1.08.128,2.054,2.054,0,0,0,1.048-.224.694.694,0,0,0,.376-.624.6.6,0,0,0-.152-.432,1.394,1.394,0,0,0-.544-.3,11.44,11.44,0,0,0-1.192-.312A4.58,4.58,0,0,1,19.5,19.9a1.816,1.816,0,0,1-.616-1.456,2.1,2.1,0,0,1,.416-1.272,2.7,2.7,0,0,1,1.144-.88,4.168,4.168,0,0,1,1.656-.312,4.963,4.963,0,0,1,1.3.168,3.94,3.94,0,0,1,1.12.488.966.966,0,0,1,.512.848.821.821,0,0,1-.176.536.538.538,0,0,1-.432.216.865.865,0,0,1-.344-.072,4.615,4.615,0,0,1-.424-.216,6.709,6.709,0,0,0-.8-.36,2.5,2.5,0,0,0-.832-.12,1.611,1.611,0,0,0-.936.24.758.758,0,0,0-.344.656.666.666,0,0,0,.352.608,5.041,5.041,0,0,0,1.36.416,7.76,7.76,0,0,1,1.68.512,1.968,1.968,0,0,1,.872.72,2.089,2.089,0,0,1,.264,1.1,2.052,2.052,0,0,1-.9,1.744A4.013,4.013,0,0,1,21.952,24.128Zm9.408-8.144a3.243,3.243,0,0,1,1.8.512,3.4,3.4,0,0,1,1.232,1.448,5,5,0,0,1,.44,2.152,4.845,4.845,0,0,1-.44,2.128,3.23,3.23,0,0,1-3.032,1.9,3.1,3.1,0,0,1-1.488-.352,2.47,2.47,0,0,1-1.008-.976v3.264a.83.83,0,0,1-.272.656,1.048,1.048,0,0,1-.72.24,1.037,1.037,0,0,1-.728-.256.868.868,0,0,1-.28-.672V16.96a.914.914,0,0,1,.264-.688.979.979,0,0,1,.712-.256,1.008,1.008,0,0,1,.72.256.9.9,0,0,1,.272.688v.4a2.455,2.455,0,0,1,1.016-1.016A3.121,3.121,0,0,1,31.36,15.984Zm-.528,6.592a1.793,1.793,0,0,0,1.472-.648,2.829,2.829,0,0,0,.528-1.832,2.989,2.989,0,0,0-.528-1.888,1.973,1.973,0,0,0-2.952-.016,2.952,2.952,0,0,0-.52,1.872,2.923,2.923,0,0,0,.52,1.856A1.779,1.779,0,0,0,30.832,22.576Zm6.624,1.52a1.034,1.034,0,0,1-.712-.248.9.9,0,0,1-.28-.712V13.584a.876.876,0,0,1,.28-.7,1.055,1.055,0,0,1,.712-.24,1.087,1.087,0,0,1,.72.24.864.864,0,0,1,.288.7v9.552a.888.888,0,0,1-.288.712A1.064,1.064,0,0,1,37.456,24.1Zm9.248-2.24a.538.538,0,0,1,.44.208.865.865,0,0,1,.168.56.97.97,0,0,1-.592.832,5.349,5.349,0,0,1-1.232.488,5.079,5.079,0,0,1-1.312.184,4.077,4.077,0,0,1-2.992-1.088,3.988,3.988,0,0,1-1.1-2.976,4.566,4.566,0,0,1,.48-2.128,3.49,3.49,0,0,1,1.352-1.44,3.829,3.829,0,0,1,1.976-.512,3.546,3.546,0,0,1,1.84.464,3.146,3.146,0,0,1,1.216,1.312,4.354,4.354,0,0,1,.432,2q0,.688-.608.688h-4.72a2.517,2.517,0,0,0,.624,1.624,2.1,2.1,0,0,0,1.536.52,2.913,2.913,0,0,0,.9-.128A8.923,8.923,0,0,0,46,22.112,1.766,1.766,0,0,1,46.7,21.856Zm-2.768-4.464a1.717,1.717,0,0,0-1.3.512,2.417,2.417,0,0,0-.584,1.472h3.616a2.281,2.281,0,0,0-.48-1.48A1.583,1.583,0,0,0,43.936,17.392Zm11.68-1.376a1.008,1.008,0,0,1,.72.256.9.9,0,0,1,.272.688v6.32a3.6,3.6,0,0,1-1.024,2.784,4.317,4.317,0,0,1-3.024.944,5.88,5.88,0,0,1-2.912-.656,1,1,0,0,1-.592-.848.865.865,0,0,1,.168-.56.538.538,0,0,1,.44-.208,1.113,1.113,0,0,1,.352.072q.208.072.432.168a9.172,9.172,0,0,0,1.032.368,3.888,3.888,0,0,0,1.048.128,1.832,1.832,0,0,0,2.1-2.048V22.4A2.443,2.443,0,0,1,53.6,23.416a3.2,3.2,0,0,1-1.536.36,3.391,3.391,0,0,1-1.816-.488,3.354,3.354,0,0,1-1.24-1.368,4.419,4.419,0,0,1-.448-2.032,4.537,4.537,0,0,1,.44-2.04,3.271,3.271,0,0,1,1.24-1.376,3.432,3.432,0,0,1,1.824-.488,3.2,3.2,0,0,1,1.536.36,2.443,2.443,0,0,1,1.024,1.016v-.416a.88.88,0,0,1,.272-.672A1.008,1.008,0,0,1,55.616,16.016Zm-3.024,6.208a1.866,1.866,0,0,0,1.5-.624,2.542,2.542,0,0,0,.536-1.712,2.568,2.568,0,0,0-.536-1.728,2.1,2.1,0,0,0-2.984,0,2.543,2.543,0,0,0-.544,1.728A2.517,2.517,0,0,0,51.1,21.6,1.872,1.872,0,0,0,52.592,22.224Zm9.456-6.24a3.259,3.259,0,0,1,2.424.808,3.383,3.383,0,0,1,.792,2.456v3.9a.9.9,0,0,1-.256.68.969.969,0,0,1-.7.248.936.936,0,0,1-.68-.256.894.894,0,0,1-.264-.672V22.8a2.088,2.088,0,0,1-.856.976,2.568,2.568,0,0,1-1.352.352,3.139,3.139,0,0,1-1.424-.32,2.533,2.533,0,0,1-1.008-.88,2.224,2.224,0,0,1-.368-1.248,1.977,1.977,0,0,1,.44-1.36,2.644,2.644,0,0,1,1.432-.72,13.041,13.041,0,0,1,2.736-.224h.4v-.368a1.638,1.638,0,0,0-.336-1.144,1.43,1.43,0,0,0-1.088-.36,3.452,3.452,0,0,0-.944.136q-.48.136-1.136.392a1.6,1.6,0,0,1-.608.208.6.6,0,0,1-.472-.208.791.791,0,0,1-.184-.544.819.819,0,0,1,.136-.472,1.291,1.291,0,0,1,.456-.376,5.215,5.215,0,0,1,1.336-.48A6.893,6.893,0,0,1,62.048,15.984Zm-.5,6.7a1.709,1.709,0,0,0,1.3-.536,1.939,1.939,0,0,0,.5-1.384v-.336h-.288a11.037,11.037,0,0,0-1.664.1,1.616,1.616,0,0,0-.848.336.856.856,0,0,0-.256.656,1.085,1.085,0,0,0,.36.84A1.27,1.27,0,0,0,61.552,22.688ZM73.808,12.64a1.066,1.066,0,0,1,.736.256.856.856,0,0,1,.288.672v9.568a.9.9,0,0,1-.272.688,1.141,1.141,0,0,1-1.44,0,.9.9,0,0,1-.272-.688v-.4a2.5,2.5,0,0,1-1.016,1.024,3.066,3.066,0,0,1-1.512.368,3.243,3.243,0,0,1-1.8-.512,3.4,3.4,0,0,1-1.232-1.448,5,5,0,0,1-.44-2.152,4.845,4.845,0,0,1,.44-2.128,3.23,3.23,0,0,1,3.032-1.9,3.131,3.131,0,0,1,1.5.352,2.442,2.442,0,0,1,1.008.992V13.536a.848.848,0,0,1,.264-.648A1,1,0,0,1,73.808,12.64Zm-2.96,9.936a1.779,1.779,0,0,0,1.48-.656,2.952,2.952,0,0,0,.52-1.872,2.917,2.917,0,0,0-.52-1.864,1.77,1.77,0,0,0-1.464-.648,1.821,1.821,0,0,0-1.488.64,2.823,2.823,0,0,0-.528,1.84,2.989,2.989,0,0,0,.528,1.888A1.766,1.766,0,0,0,70.848,22.576Zm9.424-6.592a3.259,3.259,0,0,1,2.424.808,3.383,3.383,0,0,1,.792,2.456v3.9a.9.9,0,0,1-.256.68.969.969,0,0,1-.7.248.936.936,0,0,1-.68-.256.894.894,0,0,1-.264-.672V22.8a2.088,2.088,0,0,1-.856.976,2.568,2.568,0,0,1-1.352.352,3.139,3.139,0,0,1-1.424-.32,2.533,2.533,0,0,1-1.008-.88,2.224,2.224,0,0,1-.368-1.248,1.977,1.977,0,0,1,.44-1.36,2.644,2.644,0,0,1,1.432-.72,13.041,13.041,0,0,1,2.736-.224h.4v-.368a1.638,1.638,0,0,0-.336-1.144,1.43,1.43,0,0,0-1.088-.36,3.452,3.452,0,0,0-.944.136q-.48.136-1.136.392a1.6,1.6,0,0,1-.608.208A.6.6,0,0,1,77,18.032a.791.791,0,0,1-.184-.544.819.819,0,0,1,.136-.472,1.291,1.291,0,0,1,.456-.376,5.215,5.215,0,0,1,1.336-.48A6.893,6.893,0,0,1,80.272,15.984Zm-.5,6.7a1.709,1.709,0,0,0,1.3-.536,1.939,1.939,0,0,0,.5-1.384v-.336H81.3a11.037,11.037,0,0,0-1.664.1,1.615,1.615,0,0,0-.848.336.856.856,0,0,0-.256.656,1.085,1.085,0,0,0,.36.84A1.27,1.27,0,0,0,79.776,22.688Z" transform="translate(570 658)"/>
    <path id="Trazado_23933" data-name="Trazado 23933" class="cls-4" d="M5.12.144A8.079,8.079,0,0,1,2.792-.184a5.125,5.125,0,0,1-1.784-.888A.9.9,0,0,1,.64-1.84a.9.9,0,0,1,.2-.584.592.592,0,0,1,.472-.248,1.3,1.3,0,0,1,.656.224,4.8,4.8,0,0,0,1.44.72A5.814,5.814,0,0,0,5.072-1.5a3.277,3.277,0,0,0,1.792-.408A1.335,1.335,0,0,0,7.488-3.1,1.025,1.025,0,0,0,6.9-4.04,7.733,7.733,0,0,0,4.96-4.672a11.515,11.515,0,0,1-2.288-.7A3.231,3.231,0,0,1,1.344-6.4,2.649,2.649,0,0,1,.9-7.984a2.981,2.981,0,0,1,.56-1.776,3.689,3.689,0,0,1,1.56-1.224,5.526,5.526,0,0,1,2.248-.44,5.58,5.58,0,0,1,3.728,1.216,1.2,1.2,0,0,1,.3.344.909.909,0,0,1,.088.424.9.9,0,0,1-.2.584.592.592,0,0,1-.472.248.884.884,0,0,1-.3-.048,2.372,2.372,0,0,1-.36-.176,5.406,5.406,0,0,0-1.272-.712,4.312,4.312,0,0,0-1.512-.232,2.965,2.965,0,0,0-1.72.44,1.409,1.409,0,0,0-.632,1.224A1.123,1.123,0,0,0,3.472-7.1a6.563,6.563,0,0,0,1.9.656,12.811,12.811,0,0,1,2.312.712,3.429,3.429,0,0,1,1.36,1,2.4,2.4,0,0,1,.472,1.52,2.9,2.9,0,0,1-.552,1.752A3.6,3.6,0,0,1,7.416-.28,5.838,5.838,0,0,1,5.12.144Zm12.3-2.288a.538.538,0,0,1,.44.208.865.865,0,0,1,.168.56.97.97,0,0,1-.592.832,5.349,5.349,0,0,1-1.232.488A5.079,5.079,0,0,1,14.9.128,4.077,4.077,0,0,1,11.9-.96a3.988,3.988,0,0,1-1.1-2.976,4.566,4.566,0,0,1,.48-2.128A3.49,3.49,0,0,1,12.632-7.5a3.829,3.829,0,0,1,1.976-.512,3.546,3.546,0,0,1,1.84.464A3.146,3.146,0,0,1,17.664-6.24a4.353,4.353,0,0,1,.432,2q0,.688-.608.688h-4.72a2.517,2.517,0,0,0,.624,1.624,2.1,2.1,0,0,0,1.536.52,2.913,2.913,0,0,0,.9-.128,8.923,8.923,0,0,0,.888-.352A1.766,1.766,0,0,1,17.424-2.144ZM14.656-6.608a1.717,1.717,0,0,0-1.3.512,2.417,2.417,0,0,0-.584,1.472h3.616A2.281,2.281,0,0,0,15.9-6.1,1.583,1.583,0,0,0,14.656-6.608ZM20.7.1a1.034,1.034,0,0,1-.712-.248.9.9,0,0,1-.28-.712v-9.552a.876.876,0,0,1,.28-.7,1.055,1.055,0,0,1,.712-.24,1.087,1.087,0,0,1,.72.24.864.864,0,0,1,.288.7V-.864a.888.888,0,0,1-.288.712A1.064,1.064,0,0,1,20.7.1Zm9.248-2.24a.538.538,0,0,1,.44.208.865.865,0,0,1,.168.56.97.97,0,0,1-.592.832,5.349,5.349,0,0,1-1.232.488,5.079,5.079,0,0,1-1.312.184A4.077,4.077,0,0,1,24.432-.96a3.988,3.988,0,0,1-1.1-2.976,4.566,4.566,0,0,1,.48-2.128A3.49,3.49,0,0,1,25.16-7.5a3.829,3.829,0,0,1,1.976-.512,3.546,3.546,0,0,1,1.84.464A3.146,3.146,0,0,1,30.192-6.24a4.353,4.353,0,0,1,.432,2q0,.688-.608.688H25.3a2.517,2.517,0,0,0,.624,1.624,2.1,2.1,0,0,0,1.536.52,2.913,2.913,0,0,0,.9-.128,8.923,8.923,0,0,0,.888-.352A1.766,1.766,0,0,1,29.952-2.144ZM27.184-6.608a1.717,1.717,0,0,0-1.3.512A2.417,2.417,0,0,0,25.3-4.624h3.616a2.281,2.281,0,0,0-.48-1.48A1.583,1.583,0,0,0,27.184-6.608ZM35.712.128a4.146,4.146,0,0,1-2.056-.5,3.381,3.381,0,0,1-1.368-1.408,4.505,4.505,0,0,1-.48-2.128,4.468,4.468,0,0,1,.5-2.152A3.56,3.56,0,0,1,33.728-7.5a4.208,4.208,0,0,1,2.1-.512,4.665,4.665,0,0,1,1.256.176,4.143,4.143,0,0,1,1.112.48.99.99,0,0,1,.512.848.9.9,0,0,1-.168.568.531.531,0,0,1-.44.216.956.956,0,0,1-.368-.08A3.222,3.222,0,0,1,37.344-6a4.3,4.3,0,0,0-.672-.328,2.088,2.088,0,0,0-.736-.12,1.871,1.871,0,0,0-1.528.648,2.855,2.855,0,0,0-.536,1.864,2.827,2.827,0,0,0,.536,1.848,1.871,1.871,0,0,0,1.528.648,1.973,1.973,0,0,0,.712-.12,6.032,6.032,0,0,0,.7-.328A3.168,3.168,0,0,1,37.76-2.1a.923.923,0,0,1,.352-.072.531.531,0,0,1,.432.224.879.879,0,0,1,.176.56.9.9,0,0,1-.12.472,1.081,1.081,0,0,1-.392.36,4.207,4.207,0,0,1-1.152.5A4.953,4.953,0,0,1,35.712.128Zm7.792,0a4.146,4.146,0,0,1-2.056-.5A3.381,3.381,0,0,1,40.08-1.776,4.505,4.505,0,0,1,39.6-3.9a4.468,4.468,0,0,1,.5-2.152A3.56,3.56,0,0,1,41.52-7.5a4.208,4.208,0,0,1,2.1-.512,4.665,4.665,0,0,1,1.256.176,4.143,4.143,0,0,1,1.112.48.99.99,0,0,1,.512.848.9.9,0,0,1-.168.568.531.531,0,0,1-.44.216.956.956,0,0,1-.368-.08A3.222,3.222,0,0,1,45.136-6a4.3,4.3,0,0,0-.672-.328,2.088,2.088,0,0,0-.736-.12A1.871,1.871,0,0,0,42.2-5.8a2.855,2.855,0,0,0-.536,1.864A2.827,2.827,0,0,0,42.2-2.088a1.871,1.871,0,0,0,1.528.648,1.973,1.973,0,0,0,.712-.12,6.032,6.032,0,0,0,.7-.328,3.168,3.168,0,0,1,.416-.216.923.923,0,0,1,.352-.072.531.531,0,0,1,.432.224.879.879,0,0,1,.176.56.9.9,0,0,1-.12.472A1.081,1.081,0,0,1,46-.56a4.207,4.207,0,0,1-1.152.5A4.953,4.953,0,0,1,43.5.128ZM48.816.1A1.034,1.034,0,0,1,48.1-.152a.9.9,0,0,1-.28-.712V-7.04a.876.876,0,0,1,.28-.7,1.055,1.055,0,0,1,.712-.24,1.087,1.087,0,0,1,.72.24.864.864,0,0,1,.288.7V-.864a.888.888,0,0,1-.288.712A1.064,1.064,0,0,1,48.816.1Zm0-9.5a1.222,1.222,0,0,1-.864-.3,1.008,1.008,0,0,1-.32-.776.983.983,0,0,1,.32-.768,1.243,1.243,0,0,1,.864-.288,1.25,1.25,0,0,1,.856.288A.971.971,0,0,1,50-10.48a1.008,1.008,0,0,1-.32.776A1.222,1.222,0,0,1,48.816-9.408ZM55.44.128a4.3,4.3,0,0,1-2.1-.5,3.432,3.432,0,0,1-1.4-1.424,4.515,4.515,0,0,1-.5-2.16,4.468,4.468,0,0,1,.5-2.152,3.444,3.444,0,0,1,1.4-1.416,4.3,4.3,0,0,1,2.1-.5,4.3,4.3,0,0,1,2.1.5A3.394,3.394,0,0,1,58.936-6.1a4.527,4.527,0,0,1,.488,2.152,4.575,4.575,0,0,1-.488,2.16A3.382,3.382,0,0,1,57.544-.368,4.3,4.3,0,0,1,55.44.128Zm-.016-1.552a1.793,1.793,0,0,0,1.488-.64,2.973,2.973,0,0,0,.512-1.888,2.979,2.979,0,0,0-.512-1.88A1.765,1.765,0,0,0,55.44-6.48a1.788,1.788,0,0,0-1.48.648,2.946,2.946,0,0,0-.52,1.88,2.973,2.973,0,0,0,.512,1.888A1.775,1.775,0,0,0,55.424-1.424ZM55.84-8.9a.6.6,0,0,1-.352.128.511.511,0,0,1-.376-.152.492.492,0,0,1-.152-.36.6.6,0,0,1,.128-.352L56.64-11.7a1.059,1.059,0,0,1,.848-.48.817.817,0,0,1,.6.248.8.8,0,0,1,.248.584.936.936,0,0,1-.432.768Zm9.76.88a2.615,2.615,0,0,1,2.1.8A3.628,3.628,0,0,1,68.384-4.8V-.864a.935.935,0,0,1-.264.7A1,1,0,0,1,67.392.1a1.03,1.03,0,0,1-.736-.256.92.92,0,0,1-.272-.7V-4.688a2.074,2.074,0,0,0-.344-1.328,1.322,1.322,0,0,0-1.08-.416,1.826,1.826,0,0,0-1.384.544,2.019,2.019,0,0,0-.52,1.456V-.864a.92.92,0,0,1-.272.7A1.03,1.03,0,0,1,62.048.1,1,1,0,0,1,61.32-.16a.935.935,0,0,1-.264-.7V-7.056a.88.88,0,0,1,.272-.672,1.03,1.03,0,0,1,.736-.256.953.953,0,0,1,.68.248.848.848,0,0,1,.264.648v.432A2.706,2.706,0,0,1,64.08-7.664,3.226,3.226,0,0,1,65.6-8.016ZM7.568,12.64A1.066,1.066,0,0,1,8.3,12.9a.856.856,0,0,1,.288.672v9.568a.9.9,0,0,1-.272.688,1.008,1.008,0,0,1-.72.256,1.008,1.008,0,0,1-.72-.256.9.9,0,0,1-.272-.688v-.4A2.5,2.5,0,0,1,5.592,23.76a3.066,3.066,0,0,1-1.512.368,3.243,3.243,0,0,1-1.8-.512,3.4,3.4,0,0,1-1.232-1.448,5,5,0,0,1-.44-2.152,4.845,4.845,0,0,1,.44-2.128A3.333,3.333,0,0,1,2.272,16.48a3.309,3.309,0,0,1,1.808-.5,3.131,3.131,0,0,1,1.5.352,2.442,2.442,0,0,1,1.008.992V13.536a.848.848,0,0,1,.264-.648A1,1,0,0,1,7.568,12.64Zm-2.96,9.936a1.779,1.779,0,0,0,1.48-.656,2.952,2.952,0,0,0,.52-1.872,2.917,2.917,0,0,0-.52-1.864,1.77,1.77,0,0,0-1.464-.648,1.821,1.821,0,0,0-1.488.64,2.823,2.823,0,0,0-.528,1.84A2.989,2.989,0,0,0,3.136,21.9,1.766,1.766,0,0,0,4.608,22.576Zm12.224-.72a.538.538,0,0,1,.44.208.865.865,0,0,1,.168.56.97.97,0,0,1-.592.832,5.349,5.349,0,0,1-1.232.488,5.079,5.079,0,0,1-1.312.184,4.077,4.077,0,0,1-2.992-1.088,3.988,3.988,0,0,1-1.1-2.976,4.566,4.566,0,0,1,.48-2.128A3.49,3.49,0,0,1,12.04,16.5a3.829,3.829,0,0,1,1.976-.512,3.546,3.546,0,0,1,1.84.464,3.146,3.146,0,0,1,1.216,1.312,4.353,4.353,0,0,1,.432,2q0,.688-.608.688h-4.72a2.517,2.517,0,0,0,.624,1.624,2.1,2.1,0,0,0,1.536.52,2.913,2.913,0,0,0,.9-.128,8.923,8.923,0,0,0,.888-.352A1.766,1.766,0,0,1,16.832,21.856Zm-2.768-4.464a1.717,1.717,0,0,0-1.3.512,2.417,2.417,0,0,0-.584,1.472h3.616a2.281,2.281,0,0,0-.48-1.48A1.583,1.583,0,0,0,14.064,17.392Zm7.888,6.736a5.144,5.144,0,0,1-2.816-.688.954.954,0,0,1-.512-.864.758.758,0,0,1,.176-.52.554.554,0,0,1,.432-.2,1.767,1.767,0,0,1,.752.256,7,7,0,0,0,.936.368,3.812,3.812,0,0,0,1.08.128,2.054,2.054,0,0,0,1.048-.224.694.694,0,0,0,.376-.624.6.6,0,0,0-.152-.432,1.394,1.394,0,0,0-.544-.3,11.44,11.44,0,0,0-1.192-.312A4.58,4.58,0,0,1,19.5,19.9a1.816,1.816,0,0,1-.616-1.456,2.1,2.1,0,0,1,.416-1.272,2.7,2.7,0,0,1,1.144-.88,4.168,4.168,0,0,1,1.656-.312,4.963,4.963,0,0,1,1.3.168,3.94,3.94,0,0,1,1.12.488.966.966,0,0,1,.512.848.821.821,0,0,1-.176.536.538.538,0,0,1-.432.216.865.865,0,0,1-.344-.072,4.615,4.615,0,0,1-.424-.216,6.709,6.709,0,0,0-.8-.36,2.5,2.5,0,0,0-.832-.12,1.611,1.611,0,0,0-.936.24.758.758,0,0,0-.344.656.666.666,0,0,0,.352.608,5.041,5.041,0,0,0,1.36.416,7.76,7.76,0,0,1,1.68.512,1.968,1.968,0,0,1,.872.72,2.089,2.089,0,0,1,.264,1.1,2.052,2.052,0,0,1-.9,1.744A4.013,4.013,0,0,1,21.952,24.128Zm9.408-8.144a3.243,3.243,0,0,1,1.8.512,3.4,3.4,0,0,1,1.232,1.448,5,5,0,0,1,.44,2.152,4.845,4.845,0,0,1-.44,2.128,3.23,3.23,0,0,1-3.032,1.9,3.1,3.1,0,0,1-1.488-.352,2.47,2.47,0,0,1-1.008-.976v3.264a.83.83,0,0,1-.272.656,1.048,1.048,0,0,1-.72.24,1.037,1.037,0,0,1-.728-.256.868.868,0,0,1-.28-.672V16.96a.914.914,0,0,1,.264-.688.979.979,0,0,1,.712-.256,1.008,1.008,0,0,1,.72.256.9.9,0,0,1,.272.688v.4a2.455,2.455,0,0,1,1.016-1.016A3.121,3.121,0,0,1,31.36,15.984Zm-.528,6.592a1.793,1.793,0,0,0,1.472-.648,2.829,2.829,0,0,0,.528-1.832,2.989,2.989,0,0,0-.528-1.888,1.973,1.973,0,0,0-2.952-.016,2.952,2.952,0,0,0-.52,1.872,2.923,2.923,0,0,0,.52,1.856A1.779,1.779,0,0,0,30.832,22.576Zm6.624,1.52a1.034,1.034,0,0,1-.712-.248.9.9,0,0,1-.28-.712V13.584a.876.876,0,0,1,.28-.7,1.055,1.055,0,0,1,.712-.24,1.087,1.087,0,0,1,.72.24.864.864,0,0,1,.288.7v9.552a.888.888,0,0,1-.288.712A1.064,1.064,0,0,1,37.456,24.1Zm9.248-2.24a.538.538,0,0,1,.44.208.865.865,0,0,1,.168.56.97.97,0,0,1-.592.832,5.349,5.349,0,0,1-1.232.488,5.079,5.079,0,0,1-1.312.184,4.077,4.077,0,0,1-2.992-1.088,3.988,3.988,0,0,1-1.1-2.976,4.566,4.566,0,0,1,.48-2.128,3.49,3.49,0,0,1,1.352-1.44,3.829,3.829,0,0,1,1.976-.512,3.546,3.546,0,0,1,1.84.464,3.146,3.146,0,0,1,1.216,1.312,4.354,4.354,0,0,1,.432,2q0,.688-.608.688h-4.72a2.517,2.517,0,0,0,.624,1.624,2.1,2.1,0,0,0,1.536.52,2.913,2.913,0,0,0,.9-.128A8.923,8.923,0,0,0,46,22.112,1.766,1.766,0,0,1,46.7,21.856Zm-2.768-4.464a1.717,1.717,0,0,0-1.3.512,2.417,2.417,0,0,0-.584,1.472h3.616a2.281,2.281,0,0,0-.48-1.48A1.583,1.583,0,0,0,43.936,17.392Zm11.68-1.376a1.008,1.008,0,0,1,.72.256.9.9,0,0,1,.272.688v6.32a3.6,3.6,0,0,1-1.024,2.784,4.317,4.317,0,0,1-3.024.944,5.88,5.88,0,0,1-2.912-.656,1,1,0,0,1-.592-.848.865.865,0,0,1,.168-.56.538.538,0,0,1,.44-.208,1.113,1.113,0,0,1,.352.072q.208.072.432.168a9.172,9.172,0,0,0,1.032.368,3.888,3.888,0,0,0,1.048.128,1.832,1.832,0,0,0,2.1-2.048V22.4A2.443,2.443,0,0,1,53.6,23.416a3.2,3.2,0,0,1-1.536.36,3.391,3.391,0,0,1-1.816-.488,3.354,3.354,0,0,1-1.24-1.368,4.419,4.419,0,0,1-.448-2.032,4.537,4.537,0,0,1,.44-2.04,3.271,3.271,0,0,1,1.24-1.376,3.432,3.432,0,0,1,1.824-.488,3.2,3.2,0,0,1,1.536.36,2.443,2.443,0,0,1,1.024,1.016v-.416a.88.88,0,0,1,.272-.672A1.008,1.008,0,0,1,55.616,16.016Zm-3.024,6.208a1.866,1.866,0,0,0,1.5-.624,2.542,2.542,0,0,0,.536-1.712,2.568,2.568,0,0,0-.536-1.728,2.1,2.1,0,0,0-2.984,0,2.543,2.543,0,0,0-.544,1.728A2.517,2.517,0,0,0,51.1,21.6,1.872,1.872,0,0,0,52.592,22.224Zm9.456-6.24a3.259,3.259,0,0,1,2.424.808,3.383,3.383,0,0,1,.792,2.456v3.9a.9.9,0,0,1-.256.68.969.969,0,0,1-.7.248.936.936,0,0,1-.68-.256.894.894,0,0,1-.264-.672V22.8a2.088,2.088,0,0,1-.856.976,2.568,2.568,0,0,1-1.352.352,3.139,3.139,0,0,1-1.424-.32,2.533,2.533,0,0,1-1.008-.88,2.224,2.224,0,0,1-.368-1.248,1.977,1.977,0,0,1,.44-1.36,2.644,2.644,0,0,1,1.432-.72,13.041,13.041,0,0,1,2.736-.224h.4v-.368a1.638,1.638,0,0,0-.336-1.144,1.43,1.43,0,0,0-1.088-.36,3.452,3.452,0,0,0-.944.136q-.48.136-1.136.392a1.6,1.6,0,0,1-.608.208.6.6,0,0,1-.472-.208.791.791,0,0,1-.184-.544.819.819,0,0,1,.136-.472,1.291,1.291,0,0,1,.456-.376,5.215,5.215,0,0,1,1.336-.48A6.893,6.893,0,0,1,62.048,15.984Zm-.5,6.7a1.709,1.709,0,0,0,1.3-.536,1.939,1.939,0,0,0,.5-1.384v-.336h-.288a11.037,11.037,0,0,0-1.664.1,1.616,1.616,0,0,0-.848.336.856.856,0,0,0-.256.656,1.085,1.085,0,0,0,.36.84A1.27,1.27,0,0,0,61.552,22.688ZM73.808,12.64a1.066,1.066,0,0,1,.736.256.856.856,0,0,1,.288.672v9.568a.9.9,0,0,1-.272.688,1.141,1.141,0,0,1-1.44,0,.9.9,0,0,1-.272-.688v-.4a2.5,2.5,0,0,1-1.016,1.024,3.066,3.066,0,0,1-1.512.368,3.243,3.243,0,0,1-1.8-.512,3.4,3.4,0,0,1-1.232-1.448,5,5,0,0,1-.44-2.152,4.845,4.845,0,0,1,.44-2.128,3.23,3.23,0,0,1,3.032-1.9,3.131,3.131,0,0,1,1.5.352,2.442,2.442,0,0,1,1.008.992V13.536a.848.848,0,0,1,.264-.648A1,1,0,0,1,73.808,12.64Zm-2.96,9.936a1.779,1.779,0,0,0,1.48-.656,2.952,2.952,0,0,0,.52-1.872,2.917,2.917,0,0,0-.52-1.864,1.77,1.77,0,0,0-1.464-.648,1.821,1.821,0,0,0-1.488.64,2.823,2.823,0,0,0-.528,1.84,2.989,2.989,0,0,0,.528,1.888A1.766,1.766,0,0,0,70.848,22.576Zm9.424-6.592a3.259,3.259,0,0,1,2.424.808,3.383,3.383,0,0,1,.792,2.456v3.9a.9.9,0,0,1-.256.68.969.969,0,0,1-.7.248.936.936,0,0,1-.68-.256.894.894,0,0,1-.264-.672V22.8a2.088,2.088,0,0,1-.856.976,2.568,2.568,0,0,1-1.352.352,3.139,3.139,0,0,1-1.424-.32,2.533,2.533,0,0,1-1.008-.88,2.224,2.224,0,0,1-.368-1.248,1.977,1.977,0,0,1,.44-1.36,2.644,2.644,0,0,1,1.432-.72,13.041,13.041,0,0,1,2.736-.224h.4v-.368a1.638,1.638,0,0,0-.336-1.144,1.43,1.43,0,0,0-1.088-.36,3.452,3.452,0,0,0-.944.136q-.48.136-1.136.392a1.6,1.6,0,0,1-.608.208A.6.6,0,0,1,77,18.032a.791.791,0,0,1-.184-.544.819.819,0,0,1,.136-.472,1.291,1.291,0,0,1,.456-.376,5.215,5.215,0,0,1,1.336-.48A6.893,6.893,0,0,1,80.272,15.984Zm-.5,6.7a1.709,1.709,0,0,0,1.3-.536,1.939,1.939,0,0,0,.5-1.384v-.336H81.3a11.037,11.037,0,0,0-1.664.1,1.615,1.615,0,0,0-.848.336.856.856,0,0,0-.256.656,1.085,1.085,0,0,0,.36.84A1.27,1.27,0,0,0,79.776,22.688Z" transform="translate(570 750)"/>
    <g id="Rectángulo_8943" data-name="Rectángulo 8943" class="cls-8" transform="translate(699.146 1014.286) rotate(-90)">
      <rect class="cls-10" width="372" height="344"/>
      <rect class="cls-3" x="0.5" y="0.5" width="371" height="343"/>
    </g>
    <g id="Trazado_20337" data-name="Trazado 20337" class="cls-9" transform="translate(699.046 873.855) rotate(-90)">
      <path class="cls-10" d="M0,0H49.71V344.1H0Z"/>
      <path class="cls-11" d="M 0 0 L 5 0 L 5 1 L 0 1 L 0 0 Z M 10 0 L 15 0 L 15 1 L 10 1 L 10 0 Z M 20.00000190734863 0 L 25.00000190734863 0 L 25.00000190734863 1 L 20.00000190734863 1 L 20.00000190734863 0 Z M 30.00000190734863 0 L 35 0 L 35 1 L 30.00000190734863 1 L 30.00000190734863 0 Z M 40 0 L 45 0 L 45 1 L 40 1 L 40 0 Z M 48.71000289916992 0.290008544921875 L 49.71000289916992 0.290008544921875 C 49.71000289916992 0.290008544921875 49.71000289916992 5.290008544921875 49.71000289916992 5.290008544921875 L 48.71000289916992 5.290008544921875 L 48.71000289916992 0.290008544921875 Z M 48.71000289916992 10.29000854492188 L 49.71000289916992 10.29000854492188 C 49.71000289916992 10.29000854492188 49.71000289916992 15.29000854492188 49.71000289916992 15.29000854492188 L 48.71000289916992 15.29000854492188 L 48.71000289916992 10.29000854492188 Z M 48.71000289916992 20.29000854492188 L 49.71000289916992 20.29000854492188 C 49.71000289916992 20.29000854492188 49.71000289916992 25.29000854492188 49.71000289916992 25.29000854492188 L 48.71000289916992 25.29000854492188 L 48.71000289916992 20.29000854492188 Z M 48.71000289916992 30.29000854492188 L 49.71000289916992 30.29000854492188 C 49.71000289916992 30.29000854492188 49.71000289916992 35.29000854492188 49.71000289916992 35.29000854492188 L 48.71000289916992 35.29000854492188 L 48.71000289916992 30.29000854492188 Z M 48.71000289916992 40.29000854492188 L 49.71000289916992 40.29000854492188 C 49.71000289916992 40.29000854492188 49.71000289916992 45.29000854492188 49.71000289916992 45.29000854492188 L 48.71000289916992 45.29000854492188 L 48.71000289916992 40.29000854492188 Z M 48.71000289916992 50.29000854492188 L 49.71000289916992 50.29000854492188 C 49.71000289916992 50.29000854492188 49.71000289916992 55.29000854492188 49.71000289916992 55.29000854492188 L 48.71000289916992 55.29000854492188 L 48.71000289916992 50.29000854492188 Z M 48.71000289916992 60.29000854492188 L 49.71000289916992 60.29000854492188 C 49.71000289916992 60.29000854492188 49.71000289916992 65.29000854492188 49.71000289916992 65.29000854492188 L 48.71000289916992 65.29000854492188 L 48.71000289916992 60.29000854492188 Z M 48.71000289916992 70.29000854492188 L 49.71000289916992 70.29000854492188 C 49.71000289916992 70.29000854492188 49.71000289916992 75.29000854492188 49.71000289916992 75.29000854492188 L 48.71000289916992 75.29000854492188 L 48.71000289916992 70.29000854492188 Z M 48.71000289916992 80.29000854492188 L 49.71000289916992 80.29000854492188 C 49.71000289916992 80.29000854492188 49.71000289916992 85.29000854492188 49.71000289916992 85.29000854492188 L 48.71000289916992 85.29000854492188 L 48.71000289916992 80.29000854492188 Z M 48.71000289916992 90.29000854492188 L 49.71000289916992 90.29000854492188 C 49.71000289916992 90.29000854492188 49.71000289916992 95.29000854492188 49.71000289916992 95.29000854492188 L 48.71000289916992 95.29000854492188 L 48.71000289916992 90.29000854492188 Z M 48.71000289916992 100.2900085449219 L 49.71000289916992 100.2900085449219 C 49.71000289916992 100.2900085449219 49.71000289916992 105.2900085449219 49.71000289916992 105.2900085449219 L 48.71000289916992 105.2900085449219 L 48.71000289916992 100.2900085449219 Z M 48.71000289916992 110.2900085449219 L 49.71000289916992 110.2900085449219 C 49.71000289916992 110.2900085449219 49.71000289916992 115.2900085449219 49.71000289916992 115.2900085449219 L 48.71000289916992 115.2900085449219 L 48.71000289916992 110.2900085449219 Z M 48.71000289916992 120.2900085449219 L 49.71000289916992 120.2900085449219 C 49.71000289916992 120.2900085449219 49.71000289916992 125.2900085449219 49.71000289916992 125.2900085449219 L 48.71000289916992 125.2900085449219 L 48.71000289916992 120.2900085449219 Z M 48.71000289916992 130.2900085449219 L 49.71000289916992 130.2900085449219 C 49.71000289916992 130.2900085449219 49.71000289916992 135.2900085449219 49.71000289916992 135.2900085449219 L 48.71000289916992 135.2900085449219 L 48.71000289916992 130.2900085449219 Z M 48.71000289916992 140.2900085449219 L 49.71000289916992 140.2900085449219 C 49.71000289916992 140.2900085449219 49.71000289916992 145.2900085449219 49.71000289916992 145.2900085449219 L 48.71000289916992 145.2900085449219 L 48.71000289916992 140.2900085449219 Z M 48.71000289916992 150.2900085449219 L 49.71000289916992 150.2900085449219 C 49.71000289916992 150.2900085449219 49.71000289916992 155.2900085449219 49.71000289916992 155.2900085449219 L 48.71000289916992 155.2900085449219 L 48.71000289916992 150.2900085449219 Z M 48.71000289916992 160.2900085449219 L 49.71000289916992 160.2900085449219 C 49.71000289916992 160.2900085449219 49.71000289916992 165.2900085449219 49.71000289916992 165.2900085449219 L 48.71000289916992 165.2900085449219 L 48.71000289916992 160.2900085449219 Z M 48.71000289916992 170.2900085449219 L 49.71000289916992 170.2900085449219 C 49.71000289916992 170.2900085449219 49.71000289916992 175.2900085449219 49.71000289916992 175.2900085449219 L 48.71000289916992 175.2900085449219 L 48.71000289916992 170.2900085449219 Z M 48.71000289916992 180.2900085449219 L 49.71000289916992 180.2900085449219 C 49.71000289916992 180.2900085449219 49.71000289916992 185.2900085449219 49.71000289916992 185.2900085449219 L 48.71000289916992 185.2900085449219 L 48.71000289916992 180.2900085449219 Z M 48.71000289916992 190.2900085449219 L 49.71000289916992 190.2900085449219 C 49.71000289916992 190.2900085449219 49.71000289916992 195.2900085449219 49.71000289916992 195.2900085449219 L 48.71000289916992 195.2900085449219 L 48.71000289916992 190.2900085449219 Z M 48.71000289916992 200.2900085449219 L 49.71000289916992 200.2900085449219 C 49.71000289916992 200.2900085449219 49.71000289916992 205.2900085449219 49.71000289916992 205.2900085449219 L 48.71000289916992 205.2900085449219 L 48.71000289916992 200.2900085449219 Z M 48.71000289916992 210.2900085449219 L 49.71000289916992 210.2900085449219 C 49.71000289916992 210.2900085449219 49.71000289916992 215.2900085449219 49.71000289916992 215.2900085449219 L 48.71000289916992 215.2900085449219 L 48.71000289916992 210.2900085449219 Z M 48.71000289916992 220.2900085449219 L 49.71000289916992 220.2900085449219 C 49.71000289916992 220.2900085449219 49.71000289916992 225.2900085449219 49.71000289916992 225.2900085449219 L 48.71000289916992 225.2900085449219 L 48.71000289916992 220.2900085449219 Z M 48.71000289916992 230.2900085449219 L 49.71000289916992 230.2900085449219 C 49.71000289916992 230.2900085449219 49.71000289916992 235.2900085449219 49.71000289916992 235.2900085449219 L 48.71000289916992 235.2900085449219 L 48.71000289916992 230.2900085449219 Z M 48.71000289916992 240.2900085449219 L 49.71000289916992 240.2900085449219 C 49.71000289916992 240.2900085449219 49.71000289916992 245.2900085449219 49.71000289916992 245.2900085449219 L 48.71000289916992 245.2900085449219 L 48.71000289916992 240.2900085449219 Z M 48.71000289916992 250.2900085449219 L 49.71000289916992 250.2900085449219 C 49.71000289916992 250.2900085449219 49.71000289916992 255.2900085449219 49.71000289916992 255.2900085449219 L 48.71000289916992 255.2900085449219 L 48.71000289916992 250.2900085449219 Z M 48.71000289916992 260.2900085449219 L 49.71000289916992 260.2900085449219 C 49.71000289916992 260.2900085449219 49.71000289916992 265.2900085449219 49.71000289916992 265.2900085449219 L 48.71000289916992 265.2900085449219 L 48.71000289916992 260.2900085449219 Z M 48.71000289916992 270.2900085449219 L 49.71000289916992 270.2900085449219 C 49.71000289916992 270.2900085449219 49.71000289916992 275.2900085449219 49.71000289916992 275.2900085449219 L 48.71000289916992 275.2900085449219 L 48.71000289916992 270.2900085449219 Z M 48.71000289916992 280.2900085449219 L 49.71000289916992 280.2900085449219 C 49.71000289916992 280.2900085449219 49.71000289916992 285.2900085449219 49.71000289916992 285.2900085449219 L 48.71000289916992 285.2900085449219 L 48.71000289916992 280.2900085449219 Z M 48.71000289916992 290.2900085449219 L 49.71000289916992 290.2900085449219 C 49.71000289916992 290.2900085449219 49.71000289916992 295.2900085449219 49.71000289916992 295.2900085449219 L 48.71000289916992 295.2900085449219 L 48.71000289916992 290.2900085449219 Z M 48.71000289916992 300.2900085449219 L 49.71000289916992 300.2900085449219 C 49.71000289916992 300.2900085449219 49.71000289916992 305.2900085449219 49.71000289916992 305.2900085449219 L 48.71000289916992 305.2900085449219 L 48.71000289916992 300.2900085449219 Z M 48.71000289916992 310.2900085449219 L 49.71000289916992 310.2900085449219 C 49.71000289916992 310.2900085449219 49.71000289916992 315.2900085449219 49.71000289916992 315.2900085449219 L 48.71000289916992 315.2900085449219 L 48.71000289916992 310.2900085449219 Z M 48.71000289916992 320.2900085449219 L 49.71000289916992 320.2900085449219 C 49.71000289916992 320.2900085449219 49.71000289916992 325.2900085449219 49.71000289916992 325.2900085449219 L 48.71000289916992 325.2900085449219 L 48.71000289916992 320.2900085449219 Z M 48.71000289916992 330.2900085449219 L 49.71000289916992 330.2900085449219 C 49.71000289916992 330.2900085449219 49.71000289916992 335.2900085449219 49.71000289916992 335.2900085449219 L 48.71000289916992 335.2900085449219 L 48.71000289916992 330.2900085449219 Z M 48.71000289916992 340.2900085449219 L 49.71000289916992 340.2900085449219 C 49.71000289916992 340.2900085449219 49.71000289916992 344.1000061035156 49.71000289916992 344.1000061035156 L 48.71000289916992 344.1000061035156 L 48.71000289916992 344.1000061035156 L 48.71000289916992 344.1000061035156 L 48.71000289916992 344.1000061035156 L 48.71000289916992 344.1000061035156 C 48.59616470336914 344.1000061035156 48.52000045776367 344.1000061035156 48.52000045776367 344.1000061035156 L 48.52000045776367 343.1000061035156 L 48.71000289916992 343.1000061035156 L 48.71000289916992 340.2900085449219 Z M 38.52000045776367 343.1000061035156 L 43.52000045776367 343.1000061035156 L 43.52000045776367 344.1000061035156 C 43.52000045776367 344.1000061035156 38.52000045776367 344.1000061035156 38.52000045776367 344.1000061035156 L 38.52000045776367 343.1000061035156 Z M 28.5200023651123 343.1000061035156 L 33.52000427246094 343.1000061035156 L 33.52000427246094 344.1000061035156 C 33.52000427246094 344.1000061035156 28.5200023651123 344.1000061035156 28.5200023651123 344.1000061035156 L 28.5200023651123 343.1000061035156 Z M 18.5200023651123 343.1000061035156 L 23.5200023651123 343.1000061035156 L 23.5200023651123 344.1000061035156 C 23.5200023651123 344.1000061035156 18.5200023651123 344.1000061035156 18.5200023651123 344.1000061035156 L 18.5200023651123 343.1000061035156 Z M 8.520000457763672 343.1000061035156 L 13.52000045776367 343.1000061035156 L 13.52000045776367 344.1000061035156 C 13.52000045776367 344.1000061035156 8.520000457763672 344.1000061035156 8.520000457763672 344.1000061035156 L 8.520000457763672 343.1000061035156 Z M 0 342.6199951171875 L 1 342.6199951171875 L 1 343.1000061035156 L 3.520000457763672 343.1000061035156 L 3.520000457763672 344.1000061035156 C 3.520000457763672 344.1000061035156 0 344.1000061035156 0 344.1000061035156 L 0 342.6199951171875 Z M 0 332.6199951171875 L 1 332.6199951171875 L 1 337.6199951171875 L 0 337.6199951171875 L 0 332.6199951171875 Z M 0 322.6199951171875 L 1 322.6199951171875 L 1 327.6199951171875 L 0 327.6199951171875 L 0 322.6199951171875 Z M 0 312.6199951171875 L 1 312.6199951171875 L 1 317.6199951171875 L 0 317.6199951171875 L 0 312.6199951171875 Z M 0 302.6199951171875 L 1 302.6199951171875 L 1 307.6199951171875 L 0 307.6199951171875 L 0 302.6199951171875 Z M 0 292.6199951171875 L 1 292.6199951171875 L 1 297.6199951171875 L 0 297.6199951171875 L 0 292.6199951171875 Z M 0 282.6199951171875 L 1 282.6199951171875 L 1 287.6199951171875 L 0 287.6199951171875 L 0 282.6199951171875 Z M 0 272.6199951171875 L 1 272.6199951171875 L 1 277.6199951171875 L 0 277.6199951171875 L 0 272.6199951171875 Z M 0 262.6199951171875 L 1 262.6199951171875 L 1 267.6199951171875 L 0 267.6199951171875 L 0 262.6199951171875 Z M 0 252.6199951171875 L 1 252.6199951171875 L 1 257.6199951171875 L 0 257.6199951171875 L 0 252.6199951171875 Z M 0 242.6199951171875 L 1 242.6199951171875 L 1 247.6199951171875 L 0 247.6199951171875 L 0 242.6199951171875 Z M 0 232.6199951171875 L 1 232.6199951171875 L 1 237.6199951171875 L 0 237.6199951171875 L 0 232.6199951171875 Z M 0 222.6199951171875 L 1 222.6199951171875 L 1 227.6199951171875 L 0 227.6199951171875 L 0 222.6199951171875 Z M 0 212.6200103759766 L 1 212.6200103759766 L 1 217.6199951171875 L 0 217.6199951171875 L 0 212.6200103759766 Z M 0 202.6200103759766 L 1 202.6200103759766 L 1 207.6200103759766 L 0 207.6200103759766 L 0 202.6200103759766 Z M 0 192.6200103759766 L 1 192.6200103759766 L 1 197.6200103759766 L 0 197.6200103759766 L 0 192.6200103759766 Z M 0 182.6200103759766 L 1 182.6200103759766 L 1 187.6200103759766 L 0 187.6200103759766 L 0 182.6200103759766 Z M 0 172.6200103759766 L 1 172.6200103759766 L 1 177.6200103759766 L 0 177.6200103759766 L 0 172.6200103759766 Z M 0 162.6200103759766 L 1 162.6200103759766 L 1 167.6200103759766 L 0 167.6200103759766 L 0 162.6200103759766 Z M 0 152.6200103759766 L 1 152.6200103759766 L 1 157.6200103759766 L 0 157.6200103759766 L 0 152.6200103759766 Z M 0 142.6200103759766 L 1 142.6200103759766 L 1 147.6200103759766 L 0 147.6200103759766 L 0 142.6200103759766 Z M 0 132.6200103759766 L 1 132.6200103759766 L 1 137.6200103759766 L 0 137.6200103759766 L 0 132.6200103759766 Z M 0 122.6200103759766 L 1 122.6200103759766 L 1 127.6200103759766 L 0 127.6200103759766 L 0 122.6200103759766 Z M 0 112.6200103759766 L 1 112.6200103759766 L 1 117.6200103759766 L 0 117.6200103759766 L 0 112.6200103759766 Z M 0 102.6200103759766 L 1 102.6200103759766 L 1 107.6200103759766 L 0 107.6200103759766 L 0 102.6200103759766 Z M 0 92.62001037597656 L 1 92.62001037597656 L 1 97.62001037597656 L 0 97.62001037597656 L 0 92.62001037597656 Z M 0 82.6199951171875 L 1 82.6199951171875 L 1 87.6199951171875 L 0 87.6199951171875 L 0 82.6199951171875 Z M 0 72.6199951171875 L 1 72.6199951171875 L 1 77.6199951171875 L 0 77.6199951171875 L 0 72.6199951171875 Z M 0 62.6199951171875 L 1 62.6199951171875 L 1 67.6199951171875 L 0 67.6199951171875 L 0 62.6199951171875 Z M 0 52.6199951171875 L 1 52.6199951171875 L 1 57.6199951171875 L 0 57.6199951171875 L 0 52.6199951171875 Z M 0 42.6199951171875 L 1 42.6199951171875 L 1 47.6199951171875 L 0 47.6199951171875 L 0 42.6199951171875 Z M 0 32.6199951171875 L 1 32.6199951171875 L 1 37.6199951171875 L 0 37.6199951171875 L 0 32.6199951171875 Z M 0 22.6199951171875 L 1 22.6199951171875 L 1 27.6199951171875 L 0 27.6199951171875 L 0 22.6199951171875 Z M 0 12.6199951171875 L 1 12.6199951171875 L 1 17.6199951171875 L 0 17.6199951171875 L 0 12.6199951171875 Z M 0 2.6199951171875 L 1 2.6199951171875 L 1 7.6199951171875 L 0 7.6199951171875 L 0 2.6199951171875 Z"/>
    </g>
  </g>
</svg>
