<svg xmlns="http://www.w3.org/2000/svg" width="712" height="441" viewBox="0 0 712 441">
  <defs>
    <style>
      .cls-1 {
        fill: #f3f6f9;
      }

      .cls-2 {
        fill: #38485c;
      }

      .cls-3 {
        fill: #dfe4ea;
      }

      .cls-4 {
        fill: #c6ccd4;
      }

      .cls-5 {
        fill: #cfedf1;
        opacity: 0.54;
      }

      .cls-6 {
        fill: #007bc7;
        opacity: 0.24;
      }

      .cls-7, .cls-8 {
        fill: none;
      }

      .cls-7 {
        stroke: #007bc7;
        stroke-dasharray: 5 2;
      }

      .cls-8 {
        stroke: #38485c;
        stroke-linecap: round;
      }
    </style>
  </defs>
  <g id="Grupo_18237" data-name="Grupo 18237" transform="translate(-513 -1994)">
    <path id="Trazado_23851" data-name="Trazado 23851" class="cls-1" d="M4,0H708a3.772,3.772,0,0,1,4,3.493V437.507A3.772,3.772,0,0,1,708,441H4a3.772,3.772,0,0,1-4-3.493V3.493A3.772,3.772,0,0,1,4,0Z" transform="translate(513 1994)"/>
    <path id="Trazado_23946" data-name="Trazado 23946" class="cls-2" d="M6.528-5.792a2.681,2.681,0,0,1,1.544.968,2.856,2.856,0,0,1,.536,1.768A2.826,2.826,0,0,1,7.536-.736a4.484,4.484,0,0,1-2.9.864,6.283,6.283,0,0,1-2-.32,4.814,4.814,0,0,1-1.632-.9A.969.969,0,0,1,.64-1.84a.926.926,0,0,1,.2-.6.592.592,0,0,1,.472-.248.711.711,0,0,1,.288.056q.128.056.352.184a6.9,6.9,0,0,0,1.28.688,3.586,3.586,0,0,0,1.328.24,2.425,2.425,0,0,0,1.568-.424A1.576,1.576,0,0,0,6.64-3.232,1.478,1.478,0,0,0,6.1-4.488,2.732,2.732,0,0,0,4.448-4.9H3.536a.688.688,0,0,1-.568-.248.88.88,0,0,1-.2-.568.871.871,0,0,1,.2-.576.7.7,0,0,1,.568-.24h.64q2.192,0,2.192-1.648A1.508,1.508,0,0,0,5.9-9.36a1.849,1.849,0,0,0-1.28-.416,4.424,4.424,0,0,0-2.5.928q-.224.128-.352.184a.711.711,0,0,1-.288.056.592.592,0,0,1-.472-.248.926.926,0,0,1-.2-.6A.87.87,0,0,1,.9-9.864a1.3,1.3,0,0,1,.28-.344A5.137,5.137,0,0,1,2.792-11.1,5.742,5.742,0,0,1,4.7-11.424a4.019,4.019,0,0,1,2.648.816,2.684,2.684,0,0,1,.984,2.176,2.917,2.917,0,0,1-.488,1.624A2.7,2.7,0,0,1,6.528-5.792ZM17.552-1.664q.96,0,.96.816,0,.848-.96.848h-6.08a.87.87,0,0,1-.656-.248.851.851,0,0,1-.24-.616,1.218,1.218,0,0,1,.368-.864l3.648-3.92A6.316,6.316,0,0,0,15.576-7a2.691,2.691,0,0,0,.312-1.224,1.492,1.492,0,0,0-.432-1.152,1.748,1.748,0,0,0-1.232-.4,3.376,3.376,0,0,0-1.272.248,6.362,6.362,0,0,0-1.24.68,1.968,1.968,0,0,1-.32.184.774.774,0,0,1-.32.072.587.587,0,0,1-.472-.256.958.958,0,0,1-.2-.608.92.92,0,0,1,.088-.416,1.068,1.068,0,0,1,.28-.336,5.545,5.545,0,0,1,1.648-.888,5.721,5.721,0,0,1,1.888-.328,3.942,3.942,0,0,1,2.632.832,2.782,2.782,0,0,1,.984,2.24A4.136,4.136,0,0,1,17.5-6.52,8.119,8.119,0,0,1,16.1-4.608L13.328-1.664ZM24.72-8.016a3.243,3.243,0,0,1,1.8.512,3.4,3.4,0,0,1,1.232,1.448,5,5,0,0,1,.44,2.152,4.845,4.845,0,0,1-.44,2.128A3.333,3.333,0,0,1,26.528-.368a3.309,3.309,0,0,1-1.808.5,3.1,3.1,0,0,1-1.488-.352A2.47,2.47,0,0,1,22.224-1.2V2.064a.83.83,0,0,1-.272.656,1.048,1.048,0,0,1-.72.24A1.037,1.037,0,0,1,20.5,2.7a.868.868,0,0,1-.28-.672V-7.04a.914.914,0,0,1,.264-.688.979.979,0,0,1,.712-.256,1.008,1.008,0,0,1,.72.256.9.9,0,0,1,.272.688v.4a2.455,2.455,0,0,1,1.016-1.016A3.121,3.121,0,0,1,24.72-8.016Zm-.528,6.592a1.793,1.793,0,0,0,1.472-.648A2.829,2.829,0,0,0,26.192-3.9a2.989,2.989,0,0,0-.528-1.888,1.766,1.766,0,0,0-1.472-.672,1.779,1.779,0,0,0-1.48.656,2.952,2.952,0,0,0-.52,1.872,2.923,2.923,0,0,0,.52,1.856A1.779,1.779,0,0,0,24.192-1.424Zm12.256-.048a.9.9,0,0,1,.288.656.885.885,0,0,1-.272.632.864.864,0,0,1-.64.28.878.878,0,0,1-.688-.336l-2.256-2.5L30.624-.24a.928.928,0,0,1-.688.32.858.858,0,0,1-.624-.272.858.858,0,0,1-.272-.624.9.9,0,0,1,.288-.656l2.336-2.544-2.208-2.4a.9.9,0,0,1-.288-.656A.85.85,0,0,1,29.44-7.7a.871.871,0,0,1,.624-.264.928.928,0,0,1,.688.32L32.88-5.312l2.128-2.336a.928.928,0,0,1,.688-.32.862.862,0,0,1,.632.264.862.862,0,0,1,.264.632.9.9,0,0,1-.288.656L34.1-4.016Z" transform="translate(855 2050)"/>
    <rect id="Rectángulo_8952" data-name="Rectángulo 8952" class="cls-3" width="412" height="246" transform="translate(671 2063)"/>
    <rect id="Rectángulo_8953" data-name="Rectángulo 8953" class="cls-4" width="207" height="246" transform="translate(671 2063)"/>
    <path id="Trazado_23839" data-name="Trazado 23839" class="cls-5" d="M1.379,0H244.156c.762,0,1.379.111,1.379.247V30.93c0,.136-.618.247-1.379.247H1.379C.618,31.176,0,31.066,0,30.93V.247C0,.111.618,0,1.379,0Z" transform="translate(877.706 2063.376) rotate(90)"/>
    <path id="Trazado_23843" data-name="Trazado 23843" class="cls-5" d="M1.379,0H244.156c.762,0,1.379.111,1.379.247V30.93c0,.136-.618.247-1.379.247H1.379C.618,31.176,0,31.066,0,30.93V.247C0,.111.618,0,1.379,0Z" transform="translate(918.859 2063.376) rotate(90)"/>
    <path id="Trazado_23850" data-name="Trazado 23850" class="cls-5" d="M1.379,0H244.156c.762,0,1.379.111,1.379.247V30.93c0,.136-.618.247-1.379.247H1.379C.618,31.176,0,31.066,0,30.93V.247C0,.111.618,0,1.379,0Z" transform="translate(1083.471 2063.376) rotate(90)"/>
    <path id="Trazado_23844" data-name="Trazado 23844" class="cls-5" d="M1.379,0H244.156c.762,0,1.379.111,1.379.247V30.93c0,.136-.618.247-1.379.247H1.379C.618,31.176,0,31.066,0,30.93V.247C0,.111.618,0,1.379,0Z" transform="translate(960.012 2063.376) rotate(90)"/>
    <path id="Trazado_23845" data-name="Trazado 23845" class="cls-5" d="M1.379,0H244.156c.762,0,1.379.111,1.379.247V30.93c0,.136-.618.247-1.379.247H1.379C.618,31.176,0,31.066,0,30.93V.247C0,.111.618,0,1.379,0Z" transform="translate(1001.165 2063.376) rotate(90)"/>
    <path id="Trazado_23846" data-name="Trazado 23846" class="cls-5" d="M1.379,0H244.156c.762,0,1.379.111,1.379.247V30.93c0,.136-.618.247-1.379.247H1.379C.618,31.176,0,31.066,0,30.93V.247C0,.111.618,0,1.379,0Z" transform="translate(1042.317 2063.376) rotate(90)"/>
    <path id="Trazado_23840" data-name="Trazado 23840" class="cls-5" d="M1.379,0H244.156c.762,0,1.379.111,1.379.247V30.93c0,.136-.618.247-1.379.247H1.379C.618,31.176,0,31.066,0,30.93V.247C0,.111.618,0,1.379,0Z" transform="translate(754.247 2063.376) rotate(90)"/>
    <path id="Trazado_23841" data-name="Trazado 23841" class="cls-5" d="M1.379,0H244.156c.762,0,1.379.111,1.379.247V30.93c0,.136-.618.247-1.379.247H1.379C.618,31.176,0,31.066,0,30.93V.247C0,.111.618,0,1.379,0Z" transform="translate(795.4 2063.376) rotate(90)"/>
    <path id="Trazado_23842" data-name="Trazado 23842" class="cls-5" d="M1.379,0H244.156c.762,0,1.379.111,1.379.247V30.93c0,.136-.618.247-1.379.247H1.379C.618,31.176,0,31.066,0,30.93V.247C0,.111.618,0,1.379,0Z" transform="translate(836.553 2063.376) rotate(90)"/>
    <path id="Trazado_23830" data-name="Trazado 23830" class="cls-1" d="M.8,0H141.676c.442,0,.8.068.8.152V19.08c0,.084-.358.152-.8.152H.8c-.442,0-.8-.068-.8-.152V.152C0,.068.358,0,.8,0Z" transform="translate(722.757 2081.888)"/>
    <path id="Trazado_23837" data-name="Trazado 23837" class="cls-1" d="M.8,0H141.676c.442,0,.8.068.8.152V19.08c0,.084-.358.152-.8.152H.8c-.442,0-.8-.068-.8-.152V.152C0,.068.358,0,.8,0Z" transform="translate(722.757 2184.459)"/>
    <path id="Trazado_23831" data-name="Trazado 23831" class="cls-1" d="M.8,0H141.676c.442,0,.8.068.8.152V19.08c0,.084-.358.152-.8.152H.8c-.442,0-.8-.068-.8-.152V.152C0,.068.358,0,.8,0Z" transform="translate(722.757 2107.531)"/>
    <path id="Trazado_23836" data-name="Trazado 23836" class="cls-1" d="M.8,0H141.676c.442,0,.8.068.8.152V19.08c0,.084-.358.152-.8.152H.8c-.442,0-.8-.068-.8-.152V.152C0,.068.358,0,.8,0Z" transform="translate(722.757 2210.102)"/>
    <path id="Trazado_23832" data-name="Trazado 23832" class="cls-1" d="M.8,0H141.676c.442,0,.8.068.8.152V19.08c0,.084-.358.152-.8.152H.8c-.442,0-.8-.068-.8-.152V.152C0,.068.358,0,.8,0Z" transform="translate(722.757 2133.174)"/>
    <path id="Trazado_23835" data-name="Trazado 23835" class="cls-1" d="M.8,0H141.676c.442,0,.8.068.8.152V19.08c0,.084-.358.152-.8.152H.8c-.442,0-.8-.068-.8-.152V.152C0,.068.358,0,.8,0Z" transform="translate(722.757 2235.744)"/>
    <path id="Trazado_23833" data-name="Trazado 23833" class="cls-1" d="M.8,0H141.676c.442,0,.8.068.8.152V19.08c0,.084-.358.152-.8.152H.8c-.442,0-.8-.068-.8-.152V.152C0,.068.358,0,.8,0Z" transform="translate(722.757 2158.816)"/>
    <path id="Trazado_23834" data-name="Trazado 23834" class="cls-1" d="M.8,0H141.676c.442,0,.8.068.8.152V19.08c0,.084-.358.152-.8.152H.8c-.442,0-.8-.068-.8-.152V.152C0,.068.358,0,.8,0Z" transform="translate(722.757 2261.387)"/>
    <g id="Grupo_18182" data-name="Grupo 18182" transform="translate(865 2309) rotate(-90)">
      <rect id="Rectángulo_3425" data-name="Rectángulo 3425" class="cls-6" width="13" height="246" transform="translate(246) rotate(90)"/>
      <path id="Trazado_4669" data-name="Trazado 4669" class="cls-7" d="M0,245.994V0" transform="translate(245.994 13) rotate(90)"/>
      <path id="Trazado_4670" data-name="Trazado 4670" class="cls-7" transform="translate(245.994 0.307) rotate(90)"/>
    </g>
    <g id="Grupo_18187" data-name="Grupo 18187" transform="translate(1695.182 1265.84) rotate(90)">
      <line id="Línea_114" data-name="Línea 114" class="cls-8" x2="155.969" transform="translate(1054.033 971.969) rotate(-90)"/>
      <path id="Trazado_4671" data-name="Trazado 4671" class="cls-8" d="M0,0V3.033" transform="translate(1054.033 816) rotate(90)"/>
      <path id="Trazado_20265" data-name="Trazado 20265" class="cls-8" d="M0,0V3.033" transform="translate(1054.033 972.182) rotate(90)"/>
    </g>
    <g id="Grupo_18188" data-name="Grupo 18188" transform="translate(1696 1310.84) rotate(90)">
      <line id="Línea_114-2" data-name="Línea 114" class="cls-8" x2="208.787" transform="translate(1054.033 1024.787) rotate(-90)"/>
      <path id="Trazado_4671-2" data-name="Trazado 4671" class="cls-8" d="M0,0V3.033" transform="translate(1054.033 816) rotate(90)"/>
      <path id="Trazado_20265-2" data-name="Trazado 20265" class="cls-8" d="M0,0V3.033" transform="translate(1054.033 1025) rotate(90)"/>
    </g>
    <path id="Trazado_23945" data-name="Trazado 23945" class="cls-2" d="M11.44-1.232a.985.985,0,0,1,.1.416.8.8,0,0,1-.3.624,1.009,1.009,0,0,1-.68.256.909.909,0,0,1-.48-.136A.907.907,0,0,1,9.728-.5L8.768-2.64H3.136L2.176-.5a.907.907,0,0,1-.352.424.937.937,0,0,1-.5.136A1.019,1.019,0,0,1,.656-.192a.787.787,0,0,1-.3-.624.985.985,0,0,1,.1-.416L4.864-10.72a1.032,1.032,0,0,1,.44-.488,1.26,1.26,0,0,1,.632-.168,1.26,1.26,0,0,1,.632.168,1.032,1.032,0,0,1,.44.488ZM3.84-4.24H8.064L5.952-8.992Zm2.352-7.984a.568.568,0,0,1-.256.064.494.494,0,0,1-.352-.136.418.418,0,0,1-.144-.312.507.507,0,0,1,.176-.352l1.456-1.5a.928.928,0,0,1,.688-.32.754.754,0,0,1,.552.232.736.736,0,0,1,.232.536.682.682,0,0,1-.136.4A1.141,1.141,0,0,1,8-13.28Zm11.072,4.24a.861.861,0,0,1,.656.176.781.781,0,0,1,.24.624.872.872,0,0,1-.208.64,1.278,1.278,0,0,1-.752.272l-.48.048a1.944,1.944,0,0,0-1.384.64,2.093,2.093,0,0,0-.44,1.36v3.36a.888.888,0,0,1-.288.712,1.064,1.064,0,0,1-.72.248,1.034,1.034,0,0,1-.712-.248.9.9,0,0,1-.28-.712V-7.056a.856.856,0,0,1,.28-.688,1.032,1.032,0,0,1,.7-.24.962.962,0,0,1,.672.232.85.85,0,0,1,.256.664v.64a2.368,2.368,0,0,1,.9-1.088,2.771,2.771,0,0,1,1.336-.432Zm7.776,5.84a.538.538,0,0,1,.44.208.865.865,0,0,1,.168.56.97.97,0,0,1-.592.832,5.349,5.349,0,0,1-1.232.488,5.079,5.079,0,0,1-1.312.184A4.077,4.077,0,0,1,19.52-.96a3.988,3.988,0,0,1-1.1-2.976,4.566,4.566,0,0,1,.48-2.128A3.49,3.49,0,0,1,20.248-7.5a3.829,3.829,0,0,1,1.976-.512,3.546,3.546,0,0,1,1.84.464A3.146,3.146,0,0,1,25.28-6.24a4.353,4.353,0,0,1,.432,2q0,.688-.608.688h-4.72a2.517,2.517,0,0,0,.624,1.624,2.1,2.1,0,0,0,1.536.52,2.913,2.913,0,0,0,.9-.128,8.923,8.923,0,0,0,.888-.352A1.766,1.766,0,0,1,25.04-2.144ZM22.272-6.608a1.717,1.717,0,0,0-1.3.512,2.417,2.417,0,0,0-.584,1.472H24a2.281,2.281,0,0,0-.48-1.48A1.583,1.583,0,0,0,22.272-6.608ZM30.72-8.016a3.259,3.259,0,0,1,2.424.808,3.383,3.383,0,0,1,.792,2.456v3.9a.9.9,0,0,1-.256.68.969.969,0,0,1-.7.248.936.936,0,0,1-.68-.256.894.894,0,0,1-.264-.672V-1.2a2.088,2.088,0,0,1-.856.976,2.568,2.568,0,0,1-1.352.352A3.139,3.139,0,0,1,28.4-.192a2.533,2.533,0,0,1-1.008-.88,2.224,2.224,0,0,1-.368-1.248,1.977,1.977,0,0,1,.44-1.36A2.644,2.644,0,0,1,28.9-4.4a13.041,13.041,0,0,1,2.736-.224h.4v-.368A1.638,1.638,0,0,0,31.7-6.136a1.43,1.43,0,0,0-1.088-.36,3.452,3.452,0,0,0-.944.136q-.48.136-1.136.392a1.6,1.6,0,0,1-.608.208.6.6,0,0,1-.472-.208.791.791,0,0,1-.184-.544.819.819,0,0,1,.136-.472,1.291,1.291,0,0,1,.456-.376,5.215,5.215,0,0,1,1.336-.48A6.893,6.893,0,0,1,30.72-8.016Zm-.5,6.7a1.709,1.709,0,0,0,1.3-.536,1.939,1.939,0,0,0,.5-1.384v-.336h-.288a11.038,11.038,0,0,0-1.664.1,1.616,1.616,0,0,0-.848.336.856.856,0,0,0-.256.656,1.085,1.085,0,0,0,.36.84A1.27,1.27,0,0,0,30.224-1.312ZM43.744.128a4.146,4.146,0,0,1-2.056-.5A3.381,3.381,0,0,1,40.32-1.776,4.505,4.505,0,0,1,39.84-3.9a4.468,4.468,0,0,1,.5-2.152A3.56,3.56,0,0,1,41.76-7.5a4.208,4.208,0,0,1,2.1-.512,4.665,4.665,0,0,1,1.256.176,4.143,4.143,0,0,1,1.112.48.99.99,0,0,1,.512.848.9.9,0,0,1-.168.568.531.531,0,0,1-.44.216.956.956,0,0,1-.368-.08A3.222,3.222,0,0,1,45.376-6a4.3,4.3,0,0,0-.672-.328,2.088,2.088,0,0,0-.736-.12A1.871,1.871,0,0,0,42.44-5.8,2.855,2.855,0,0,0,41.9-3.936a2.827,2.827,0,0,0,.536,1.848,1.871,1.871,0,0,0,1.528.648,1.973,1.973,0,0,0,.712-.12,6.032,6.032,0,0,0,.7-.328,3.168,3.168,0,0,1,.416-.216.923.923,0,0,1,.352-.072.531.531,0,0,1,.432.224.879.879,0,0,1,.176.56.9.9,0,0,1-.12.472,1.081,1.081,0,0,1-.392.36,4.207,4.207,0,0,1-1.152.5A4.953,4.953,0,0,1,43.744.128Zm7.888,0a4.3,4.3,0,0,1-2.1-.5,3.432,3.432,0,0,1-1.4-1.424,4.515,4.515,0,0,1-.5-2.16,4.468,4.468,0,0,1,.5-2.152,3.444,3.444,0,0,1,1.4-1.416,4.3,4.3,0,0,1,2.1-.5,4.3,4.3,0,0,1,2.1.5A3.394,3.394,0,0,1,55.128-6.1a4.527,4.527,0,0,1,.488,2.152,4.575,4.575,0,0,1-.488,2.16A3.382,3.382,0,0,1,53.736-.368,4.3,4.3,0,0,1,51.632.128Zm-.016-1.552a1.793,1.793,0,0,0,1.488-.64,2.973,2.973,0,0,0,.512-1.888,2.979,2.979,0,0,0-.512-1.88,1.765,1.765,0,0,0-1.472-.648,1.788,1.788,0,0,0-1.48.648,2.946,2.946,0,0,0-.52,1.88,2.973,2.973,0,0,0,.512,1.888A1.775,1.775,0,0,0,51.616-1.424ZM66.544-8.016a2.493,2.493,0,0,1,1.96.76,3.634,3.634,0,0,1,.68,2.456V-.864a.9.9,0,0,1-.28.712A1.057,1.057,0,0,1,68.176.1a1.034,1.034,0,0,1-.712-.248.9.9,0,0,1-.28-.712V-4.8a1.979,1.979,0,0,0-.312-1.256,1.166,1.166,0,0,0-.952-.376,1.567,1.567,0,0,0-1.248.536,2.162,2.162,0,0,0-.464,1.464V-.864a.9.9,0,0,1-.28.712A1.034,1.034,0,0,1,63.216.1a1.064,1.064,0,0,1-.72-.248.888.888,0,0,1-.288-.712V-4.8A1.979,1.979,0,0,0,61.9-6.056a1.166,1.166,0,0,0-.952-.376A1.543,1.543,0,0,0,59.7-5.9a2.187,2.187,0,0,0-.456,1.464V-.864a.888.888,0,0,1-.288.712A1.064,1.064,0,0,1,58.24.1a1.034,1.034,0,0,1-.712-.248.9.9,0,0,1-.28-.712V-7.056a.845.845,0,0,1,.288-.688,1.087,1.087,0,0,1,.72-.24.992.992,0,0,1,.68.232.837.837,0,0,1,.264.664V-6.7a2.508,2.508,0,0,1,.984-.976A2.91,2.91,0,0,1,61.6-8.016a2.292,2.292,0,0,1,2.352,1.472,2.644,2.644,0,0,1,1.04-1.072A3.031,3.031,0,0,1,66.544-8.016Zm9.152,0a3.243,3.243,0,0,1,1.8.512,3.4,3.4,0,0,1,1.232,1.448,5,5,0,0,1,.44,2.152,4.845,4.845,0,0,1-.44,2.128A3.333,3.333,0,0,1,77.5-.368a3.309,3.309,0,0,1-1.808.5,3.1,3.1,0,0,1-1.488-.352A2.47,2.47,0,0,1,73.2-1.2V2.064a.83.83,0,0,1-.272.656,1.048,1.048,0,0,1-.72.24A1.037,1.037,0,0,1,71.48,2.7a.868.868,0,0,1-.28-.672V-7.04a.914.914,0,0,1,.264-.688.979.979,0,0,1,.712-.256,1.008,1.008,0,0,1,.72.256.9.9,0,0,1,.272.688v.4a2.455,2.455,0,0,1,1.016-1.016A3.121,3.121,0,0,1,75.7-8.016Zm-.528,6.592a1.793,1.793,0,0,0,1.472-.648A2.829,2.829,0,0,0,77.168-3.9a2.989,2.989,0,0,0-.528-1.888,1.766,1.766,0,0,0-1.472-.672,1.779,1.779,0,0,0-1.48.656,2.952,2.952,0,0,0-.52,1.872,2.923,2.923,0,0,0,.52,1.856A1.779,1.779,0,0,0,75.168-1.424Zm9.2,1.552a4.3,4.3,0,0,1-2.1-.5,3.432,3.432,0,0,1-1.4-1.424,4.515,4.515,0,0,1-.5-2.16,4.468,4.468,0,0,1,.5-2.152,3.444,3.444,0,0,1,1.4-1.416,4.3,4.3,0,0,1,2.1-.5,4.3,4.3,0,0,1,2.1.5A3.394,3.394,0,0,1,87.864-6.1a4.527,4.527,0,0,1,.488,2.152,4.575,4.575,0,0,1-.488,2.16A3.382,3.382,0,0,1,86.472-.368,4.3,4.3,0,0,1,84.368.128Zm-.016-1.552a1.793,1.793,0,0,0,1.488-.64,2.973,2.973,0,0,0,.512-1.888,2.979,2.979,0,0,0-.512-1.88,1.765,1.765,0,0,0-1.472-.648,1.788,1.788,0,0,0-1.48.648,2.946,2.946,0,0,0-.52,1.88,2.973,2.973,0,0,0,.512,1.888A1.775,1.775,0,0,0,84.352-1.424ZM92.816.128A5.144,5.144,0,0,1,90-.56a.954.954,0,0,1-.512-.864.758.758,0,0,1,.176-.52.554.554,0,0,1,.432-.2,1.767,1.767,0,0,1,.752.256,7,7,0,0,0,.936.368,3.812,3.812,0,0,0,1.08.128,2.054,2.054,0,0,0,1.048-.224.694.694,0,0,0,.376-.624.6.6,0,0,0-.152-.432,1.394,1.394,0,0,0-.544-.3A11.44,11.44,0,0,0,92.4-3.28,4.58,4.58,0,0,1,90.36-4.1a1.816,1.816,0,0,1-.616-1.456,2.1,2.1,0,0,1,.416-1.272A2.7,2.7,0,0,1,91.3-7.7a4.168,4.168,0,0,1,1.656-.312,4.963,4.963,0,0,1,1.3.168,3.94,3.94,0,0,1,1.12.488.966.966,0,0,1,.512.848.821.821,0,0,1-.176.536.538.538,0,0,1-.432.216.865.865,0,0,1-.344-.072,4.615,4.615,0,0,1-.424-.216,6.709,6.709,0,0,0-.8-.36,2.5,2.5,0,0,0-.832-.12,1.611,1.611,0,0,0-.936.24.758.758,0,0,0-.344.656.666.666,0,0,0,.352.608,5.041,5.041,0,0,0,1.36.416,7.759,7.759,0,0,1,1.68.512,1.968,1.968,0,0,1,.872.72,2.089,2.089,0,0,1,.264,1.1,2.052,2.052,0,0,1-.9,1.744A4.013,4.013,0,0,1,92.816.128ZM98.72.1a1.034,1.034,0,0,1-.712-.248.9.9,0,0,1-.28-.712V-7.04a.876.876,0,0,1,.28-.7,1.055,1.055,0,0,1,.712-.24,1.087,1.087,0,0,1,.72.24.864.864,0,0,1,.288.7V-.864a.888.888,0,0,1-.288.712A1.064,1.064,0,0,1,98.72.1Zm0-9.5a1.222,1.222,0,0,1-.864-.3,1.008,1.008,0,0,1-.32-.776.983.983,0,0,1,.32-.768,1.243,1.243,0,0,1,.864-.288,1.25,1.25,0,0,1,.856.288.971.971,0,0,1,.328.768,1.008,1.008,0,0,1-.32.776A1.222,1.222,0,0,1,98.72-9.408ZM105.248.128a4.146,4.146,0,0,1-2.056-.5,3.381,3.381,0,0,1-1.368-1.408,4.505,4.505,0,0,1-.48-2.128,4.468,4.468,0,0,1,.5-2.152A3.56,3.56,0,0,1,103.264-7.5a4.208,4.208,0,0,1,2.1-.512,4.665,4.665,0,0,1,1.256.176,4.143,4.143,0,0,1,1.112.48.99.99,0,0,1,.512.848.9.9,0,0,1-.168.568.531.531,0,0,1-.44.216.956.956,0,0,1-.368-.08A3.223,3.223,0,0,1,106.88-6a4.3,4.3,0,0,0-.672-.328,2.088,2.088,0,0,0-.736-.12,1.871,1.871,0,0,0-1.528.648,2.855,2.855,0,0,0-.536,1.864,2.827,2.827,0,0,0,.536,1.848,1.871,1.871,0,0,0,1.528.648,1.973,1.973,0,0,0,.712-.12,6.031,6.031,0,0,0,.7-.328A3.168,3.168,0,0,1,107.3-2.1a.923.923,0,0,1,.352-.072.531.531,0,0,1,.432.224.879.879,0,0,1,.176.56.9.9,0,0,1-.12.472,1.081,1.081,0,0,1-.392.36,4.207,4.207,0,0,1-1.152.5A4.953,4.953,0,0,1,105.248.128ZM110.56.1a1.034,1.034,0,0,1-.712-.248.9.9,0,0,1-.28-.712V-7.04a.876.876,0,0,1,.28-.7,1.055,1.055,0,0,1,.712-.24,1.087,1.087,0,0,1,.72.24.864.864,0,0,1,.288.7V-.864a.888.888,0,0,1-.288.712A1.064,1.064,0,0,1,110.56.1Zm0-9.5a1.222,1.222,0,0,1-.864-.3,1.008,1.008,0,0,1-.32-.776.983.983,0,0,1,.32-.768,1.243,1.243,0,0,1,.864-.288,1.25,1.25,0,0,1,.856.288.971.971,0,0,1,.328.768,1.008,1.008,0,0,1-.32.776A1.222,1.222,0,0,1,110.56-9.408ZM117.184.128a4.3,4.3,0,0,1-2.1-.5,3.432,3.432,0,0,1-1.4-1.424,4.515,4.515,0,0,1-.5-2.16,4.468,4.468,0,0,1,.5-2.152,3.444,3.444,0,0,1,1.4-1.416,4.3,4.3,0,0,1,2.1-.5,4.3,4.3,0,0,1,2.1.5A3.394,3.394,0,0,1,120.68-6.1a4.527,4.527,0,0,1,.488,2.152,4.575,4.575,0,0,1-.488,2.16,3.382,3.382,0,0,1-1.392,1.424A4.3,4.3,0,0,1,117.184.128Zm-.016-1.552a1.793,1.793,0,0,0,1.488-.64,2.973,2.973,0,0,0,.512-1.888,2.979,2.979,0,0,0-.512-1.88,1.765,1.765,0,0,0-1.472-.648,1.788,1.788,0,0,0-1.48.648,2.946,2.946,0,0,0-.52,1.88,2.973,2.973,0,0,0,.512,1.888A1.775,1.775,0,0,0,117.168-1.424Zm.416-7.472a.6.6,0,0,1-.352.128.511.511,0,0,1-.376-.152.492.492,0,0,1-.152-.36.6.6,0,0,1,.128-.352l1.552-2.064a1.059,1.059,0,0,1,.848-.48.817.817,0,0,1,.6.248.8.8,0,0,1,.248.584.936.936,0,0,1-.432.768Zm9.76.88a2.615,2.615,0,0,1,2.1.8,3.628,3.628,0,0,1,.688,2.416V-.864a.935.935,0,0,1-.264.7,1,1,0,0,1-.728.256A1.03,1.03,0,0,1,128.4-.16a.92.92,0,0,1-.272-.7V-4.688a2.074,2.074,0,0,0-.344-1.328,1.322,1.322,0,0,0-1.08-.416,1.826,1.826,0,0,0-1.384.544,2.019,2.019,0,0,0-.52,1.456V-.864a.92.92,0,0,1-.272.7,1.03,1.03,0,0,1-.736.256,1,1,0,0,1-.728-.256.935.935,0,0,1-.264-.7V-7.056a.88.88,0,0,1,.272-.672,1.03,1.03,0,0,1,.736-.256.953.953,0,0,1,.68.248.848.848,0,0,1,.264.648v.432a2.706,2.706,0,0,1,1.072-1.008A3.226,3.226,0,0,1,127.344-8.016Z" transform="translate(736 2344)"/>
    <path id="Trazado_23944" data-name="Trazado 23944" class="cls-2" d="M8.16-5.824a2.729,2.729,0,0,1,1.512.992,2.864,2.864,0,0,1,.536,1.76A2.717,2.717,0,0,1,9.176-.816,4.465,4.465,0,0,1,6.336,0H2.208A1,1,0,0,1,1.48-.256a.956.956,0,0,1-.264-.72V-10.3a.956.956,0,0,1,.264-.72,1,1,0,0,1,.728-.256H6.176a4.4,4.4,0,0,1,2.76.776,2.588,2.588,0,0,1,1,2.168,2.587,2.587,0,0,1-.472,1.552A2.7,2.7,0,0,1,8.16-5.824Zm-4.928-.7H5.84q2.128,0,2.128-1.584A1.366,1.366,0,0,0,7.44-9.3a2.722,2.722,0,0,0-1.6-.384H3.232ZM6.112-1.6A2.659,2.659,0,0,0,7.744-2a1.485,1.485,0,0,0,.512-1.248,1.521,1.521,0,0,0-.52-1.264,2.587,2.587,0,0,0-1.624-.416H3.232V-1.6Zm9.232-6.416a3.259,3.259,0,0,1,2.424.808,3.383,3.383,0,0,1,.792,2.456v3.9a.9.9,0,0,1-.256.68.969.969,0,0,1-.7.248.936.936,0,0,1-.68-.256.894.894,0,0,1-.264-.672V-1.2a2.088,2.088,0,0,1-.856.976,2.568,2.568,0,0,1-1.352.352,3.139,3.139,0,0,1-1.424-.32,2.533,2.533,0,0,1-1.008-.88,2.224,2.224,0,0,1-.368-1.248,1.977,1.977,0,0,1,.44-1.36A2.644,2.644,0,0,1,13.52-4.4a13.041,13.041,0,0,1,2.736-.224h.4v-.368a1.638,1.638,0,0,0-.336-1.144,1.43,1.43,0,0,0-1.088-.36,3.452,3.452,0,0,0-.944.136q-.48.136-1.136.392a1.6,1.6,0,0,1-.608.208.6.6,0,0,1-.472-.208.791.791,0,0,1-.184-.544.819.819,0,0,1,.136-.472,1.291,1.291,0,0,1,.456-.376,5.215,5.215,0,0,1,1.336-.48A6.893,6.893,0,0,1,15.344-8.016Zm-.5,6.7a1.709,1.709,0,0,0,1.3-.536,1.939,1.939,0,0,0,.5-1.384v-.336h-.288a11.038,11.038,0,0,0-1.664.1,1.616,1.616,0,0,0-.848.336.856.856,0,0,0-.256.656,1.085,1.085,0,0,0,.36.84A1.27,1.27,0,0,0,14.848-1.312Zm10.1-6.672a.861.861,0,0,1,.656.176.781.781,0,0,1,.24.624.872.872,0,0,1-.208.64,1.278,1.278,0,0,1-.752.272l-.48.048a1.944,1.944,0,0,0-1.384.64,2.093,2.093,0,0,0-.44,1.36v3.36a.888.888,0,0,1-.288.712,1.064,1.064,0,0,1-.72.248,1.034,1.034,0,0,1-.712-.248.9.9,0,0,1-.28-.712V-7.056a.856.856,0,0,1,.28-.688,1.032,1.032,0,0,1,.7-.24.962.962,0,0,1,.672.232.85.85,0,0,1,.256.664v.64a2.368,2.368,0,0,1,.9-1.088,2.771,2.771,0,0,1,1.336-.432Zm6.112,0a.861.861,0,0,1,.656.176.781.781,0,0,1,.24.624.872.872,0,0,1-.208.64,1.278,1.278,0,0,1-.752.272l-.48.048a1.944,1.944,0,0,0-1.384.64,2.093,2.093,0,0,0-.44,1.36v3.36a.888.888,0,0,1-.288.712A1.064,1.064,0,0,1,27.68.1a1.034,1.034,0,0,1-.712-.248.9.9,0,0,1-.28-.712V-7.056a.856.856,0,0,1,.28-.688,1.032,1.032,0,0,1,.7-.24.962.962,0,0,1,.672.232.85.85,0,0,1,.256.664v.64a2.368,2.368,0,0,1,.9-1.088,2.771,2.771,0,0,1,1.336-.432Zm5.1-.032a3.259,3.259,0,0,1,2.424.808,3.383,3.383,0,0,1,.792,2.456v3.9a.9.9,0,0,1-.256.68.969.969,0,0,1-.7.248.936.936,0,0,1-.68-.256.894.894,0,0,1-.264-.672V-1.2a2.088,2.088,0,0,1-.856.976,2.568,2.568,0,0,1-1.352.352,3.139,3.139,0,0,1-1.424-.32,2.533,2.533,0,0,1-1.008-.88,2.224,2.224,0,0,1-.368-1.248,1.977,1.977,0,0,1,.44-1.36,2.644,2.644,0,0,1,1.432-.72,13.041,13.041,0,0,1,2.736-.224h.4v-.368a1.638,1.638,0,0,0-.336-1.144,1.43,1.43,0,0,0-1.088-.36,3.452,3.452,0,0,0-.944.136q-.48.136-1.136.392a1.6,1.6,0,0,1-.608.208.6.6,0,0,1-.472-.208.791.791,0,0,1-.184-.544.819.819,0,0,1,.136-.472A1.291,1.291,0,0,1,33.3-7.36a5.215,5.215,0,0,1,1.336-.48A6.893,6.893,0,0,1,36.16-8.016Zm-.5,6.7a1.709,1.709,0,0,0,1.3-.536,1.939,1.939,0,0,0,.5-1.384v-.336h-.288a11.038,11.038,0,0,0-1.664.1,1.616,1.616,0,0,0-.848.336.856.856,0,0,0-.256.656,1.085,1.085,0,0,0,.36.84A1.27,1.27,0,0,0,35.664-1.312ZM46.7.1a1.034,1.034,0,0,1-.712-.248.9.9,0,0,1-.28-.712v-9.552a.876.876,0,0,1,.28-.7,1.055,1.055,0,0,1,.712-.24,1.087,1.087,0,0,1,.72.24.864.864,0,0,1,.288.7V-.864a.888.888,0,0,1-.288.712A1.064,1.064,0,0,1,46.7.1Zm6.448-8.112a3.259,3.259,0,0,1,2.424.808,3.383,3.383,0,0,1,.792,2.456v3.9a.9.9,0,0,1-.256.68.969.969,0,0,1-.7.248.936.936,0,0,1-.68-.256.894.894,0,0,1-.264-.672V-1.2a2.088,2.088,0,0,1-.856.976,2.568,2.568,0,0,1-1.352.352,3.139,3.139,0,0,1-1.424-.32,2.533,2.533,0,0,1-1.008-.88,2.224,2.224,0,0,1-.368-1.248,1.977,1.977,0,0,1,.44-1.36,2.644,2.644,0,0,1,1.432-.72,13.041,13.041,0,0,1,2.736-.224h.4v-.368a1.638,1.638,0,0,0-.336-1.144A1.43,1.43,0,0,0,53.04-6.5a3.452,3.452,0,0,0-.944.136q-.48.136-1.136.392a1.6,1.6,0,0,1-.608.208.6.6,0,0,1-.472-.208.791.791,0,0,1-.184-.544.819.819,0,0,1,.136-.472,1.291,1.291,0,0,1,.456-.376,5.215,5.215,0,0,1,1.336-.48A6.893,6.893,0,0,1,53.152-8.016Zm-.5,6.7a1.709,1.709,0,0,0,1.3-.536,1.939,1.939,0,0,0,.5-1.384v-.336h-.288a11.038,11.038,0,0,0-1.664.1,1.616,1.616,0,0,0-.848.336.856.856,0,0,0-.256.656,1.085,1.085,0,0,0,.36.84A1.27,1.27,0,0,0,52.656-1.312Zm9.792-.08q.8.048.8.72a.651.651,0,0,1-.312.584,1.489,1.489,0,0,1-.888.168L61.616.048a2.574,2.574,0,0,1-2.688-2.88V-6.32h-.8a1.016,1.016,0,0,1-.664-.192.685.685,0,0,1-.232-.56.685.685,0,0,1,.232-.56,1.016,1.016,0,0,1,.664-.192h.8V-9.3a.9.9,0,0,1,.272-.688,1.03,1.03,0,0,1,.736-.256,1.008,1.008,0,0,1,.72.256.9.9,0,0,1,.272.688v1.472h1.36a1.016,1.016,0,0,1,.664.192.685.685,0,0,1,.232.56.685.685,0,0,1-.232.56,1.016,1.016,0,0,1-.664.192h-1.36v3.632q0,1.184,1.088,1.264Zm8.016-.752a.538.538,0,0,1,.44.208.865.865,0,0,1,.168.56.97.97,0,0,1-.592.832,5.349,5.349,0,0,1-1.232.488,5.079,5.079,0,0,1-1.312.184A4.077,4.077,0,0,1,64.944-.96a3.988,3.988,0,0,1-1.1-2.976,4.566,4.566,0,0,1,.48-2.128A3.49,3.49,0,0,1,65.672-7.5a3.829,3.829,0,0,1,1.976-.512,3.546,3.546,0,0,1,1.84.464A3.146,3.146,0,0,1,70.7-6.24a4.353,4.353,0,0,1,.432,2q0,.688-.608.688h-4.72a2.517,2.517,0,0,0,.624,1.624,2.1,2.1,0,0,0,1.536.52,2.913,2.913,0,0,0,.9-.128,8.923,8.923,0,0,0,.888-.352A1.766,1.766,0,0,1,70.464-2.144ZM67.7-6.608a1.717,1.717,0,0,0-1.3.512,2.417,2.417,0,0,0-.584,1.472h3.616a2.281,2.281,0,0,0-.48-1.48A1.583,1.583,0,0,0,67.7-6.608ZM77.12-7.984a.861.861,0,0,1,.656.176.781.781,0,0,1,.24.624.872.872,0,0,1-.208.64,1.278,1.278,0,0,1-.752.272l-.48.048a1.944,1.944,0,0,0-1.384.64,2.093,2.093,0,0,0-.44,1.36v3.36a.888.888,0,0,1-.288.712,1.064,1.064,0,0,1-.72.248,1.034,1.034,0,0,1-.712-.248.9.9,0,0,1-.28-.712V-7.056a.856.856,0,0,1,.28-.688,1.032,1.032,0,0,1,.7-.24.962.962,0,0,1,.672.232.85.85,0,0,1,.256.664v.64a2.368,2.368,0,0,1,.9-1.088A2.771,2.771,0,0,1,76.9-7.968Zm5.1-.032a3.259,3.259,0,0,1,2.424.808,3.383,3.383,0,0,1,.792,2.456v3.9a.9.9,0,0,1-.256.68.969.969,0,0,1-.7.248.936.936,0,0,1-.68-.256.894.894,0,0,1-.264-.672V-1.2a2.088,2.088,0,0,1-.856.976,2.568,2.568,0,0,1-1.352.352A3.139,3.139,0,0,1,79.9-.192a2.533,2.533,0,0,1-1.008-.88,2.224,2.224,0,0,1-.368-1.248,1.977,1.977,0,0,1,.44-1.36A2.644,2.644,0,0,1,80.4-4.4a13.041,13.041,0,0,1,2.736-.224h.4v-.368A1.638,1.638,0,0,0,83.2-6.136a1.43,1.43,0,0,0-1.088-.36,3.452,3.452,0,0,0-.944.136q-.48.136-1.136.392a1.6,1.6,0,0,1-.608.208.6.6,0,0,1-.472-.208.791.791,0,0,1-.184-.544.819.819,0,0,1,.136-.472,1.291,1.291,0,0,1,.456-.376A5.215,5.215,0,0,1,80.7-7.84,6.893,6.893,0,0,1,82.224-8.016Zm-.5,6.7a1.709,1.709,0,0,0,1.3-.536,1.939,1.939,0,0,0,.5-1.384v-.336h-.288a11.038,11.038,0,0,0-1.664.1,1.615,1.615,0,0,0-.848.336.856.856,0,0,0-.256.656,1.085,1.085,0,0,0,.36.84A1.27,1.27,0,0,0,81.728-1.312ZM88.448.1a1.034,1.034,0,0,1-.712-.248.9.9,0,0,1-.28-.712v-9.552a.876.876,0,0,1,.28-.7,1.055,1.055,0,0,1,.712-.24,1.087,1.087,0,0,1,.72.24.864.864,0,0,1,.288.7V-.864a.888.888,0,0,1-.288.712A1.064,1.064,0,0,1,88.448.1Z" transform="translate(731 2389)"/>
  </g>
</svg>
