<svg xmlns="http://www.w3.org/2000/svg" width="712" height="408" viewBox="0 0 712 408">
  <g id="Grupo_21064" data-name="Grupo 21064" transform="translate(-513 -2631)">
    <g id="Grupo_20845" data-name="Grupo 20845">
      <path id="Trazado_23811" data-name="Trazado 23811" d="M4,0H708c2.209,0,4,1.447,4,3.232V404.768c0,1.785-1.791,3.232-4,3.232H4c-2.209,0-4-1.447-4-3.232V3.232C0,1.447,1.791,0,4,0Z" transform="translate(513 2631)" fill="#f3f6f9"/>
      <path id="Trazado_27789" data-name="Trazado 27789" d="M8.4-3.808a1.074,1.074,0,0,1,.72.208.741.741,0,0,1,.24.592q0,.8-.96.8H7.584V-.944a1.021,1.021,0,0,1-.28.768A1,1,0,0,1,6.576.1a1,1,0,0,1-.728-.272,1.021,1.021,0,0,1-.28-.768V-2.208H1.376A.892.892,0,0,1,.7-2.456a.851.851,0,0,1-.24-.616A1.234,1.234,0,0,1,.72-3.808l4.944-7.1a1.079,1.079,0,0,1,.4-.344,1.1,1.1,0,0,1,.5-.12,1.044,1.044,0,0,1,.72.272.977.977,0,0,1,.3.768v6.528Zm-2.832,0v-4.3l-2.976,4.3ZM15.12-8.016a3.243,3.243,0,0,1,1.8.512,3.4,3.4,0,0,1,1.232,1.448,5,5,0,0,1,.44,2.152,4.845,4.845,0,0,1-.44,2.128A3.333,3.333,0,0,1,16.928-.368a3.309,3.309,0,0,1-1.808.5,3.1,3.1,0,0,1-1.488-.352A2.47,2.47,0,0,1,12.624-1.2V2.064a.83.83,0,0,1-.272.656,1.048,1.048,0,0,1-.72.24A1.037,1.037,0,0,1,10.9,2.7a.868.868,0,0,1-.28-.672V-7.04a.914.914,0,0,1,.264-.688.979.979,0,0,1,.712-.256,1.008,1.008,0,0,1,.72.256.9.9,0,0,1,.272.688v.4a2.455,2.455,0,0,1,1.016-1.016A3.121,3.121,0,0,1,15.12-8.016Zm-.528,6.592a1.793,1.793,0,0,0,1.472-.648A2.829,2.829,0,0,0,16.592-3.9a2.989,2.989,0,0,0-.528-1.888,1.766,1.766,0,0,0-1.472-.672,1.779,1.779,0,0,0-1.48.656,2.952,2.952,0,0,0-.52,1.872,2.923,2.923,0,0,0,.52,1.856A1.779,1.779,0,0,0,14.592-1.424Zm12.256-.048a.9.9,0,0,1,.288.656.885.885,0,0,1-.272.632.864.864,0,0,1-.64.28.878.878,0,0,1-.688-.336l-2.256-2.5L21.024-.24a.928.928,0,0,1-.688.32.858.858,0,0,1-.624-.272.858.858,0,0,1-.272-.624.9.9,0,0,1,.288-.656l2.336-2.544-2.208-2.4a.9.9,0,0,1-.288-.656A.85.85,0,0,1,19.84-7.7a.871.871,0,0,1,.624-.264.928.928,0,0,1,.688.32L23.28-5.312l2.128-2.336a.928.928,0,0,1,.688-.32.862.862,0,0,1,.632.264.862.862,0,0,1,.264.632.9.9,0,0,1-.288.656L24.5-4.016Z" transform="translate(1055 2759)" fill="#38485c"/>
      <path id="Trazado_27792" data-name="Trazado 27792" d="M8.016-1.664q.96,0,.96.816,0,.848-.96.848H2.608q-.976,0-.976-.848,0-.816.976-.816H4.272v-7.3l-1.536.944a.827.827,0,0,1-.4.128.7.7,0,0,1-.568-.288,1,1,0,0,1-.232-.64.8.8,0,0,1,.416-.72l2.48-1.536a1.782,1.782,0,0,1,.912-.288.973.973,0,0,1,.72.272,1.016,1.016,0,0,1,.272.752v8.672Zm9.536,0q.96,0,.96.816,0,.848-.96.848h-6.08a.87.87,0,0,1-.656-.248.851.851,0,0,1-.24-.616,1.218,1.218,0,0,1,.368-.864l3.648-3.92A6.316,6.316,0,0,0,15.576-7a2.691,2.691,0,0,0,.312-1.224,1.492,1.492,0,0,0-.432-1.152,1.748,1.748,0,0,0-1.232-.4,3.376,3.376,0,0,0-1.272.248,6.362,6.362,0,0,0-1.24.68,1.968,1.968,0,0,1-.32.184.774.774,0,0,1-.32.072.587.587,0,0,1-.472-.256.958.958,0,0,1-.2-.608.92.92,0,0,1,.088-.416,1.068,1.068,0,0,1,.28-.336,5.545,5.545,0,0,1,1.648-.888,5.721,5.721,0,0,1,1.888-.328,3.942,3.942,0,0,1,2.632.832,2.782,2.782,0,0,1,.984,2.24A4.136,4.136,0,0,1,17.5-6.52,8.119,8.119,0,0,1,16.1-4.608L13.328-1.664ZM24.72-8.016a3.243,3.243,0,0,1,1.8.512,3.4,3.4,0,0,1,1.232,1.448,5,5,0,0,1,.44,2.152,4.845,4.845,0,0,1-.44,2.128A3.333,3.333,0,0,1,26.528-.368a3.309,3.309,0,0,1-1.808.5,3.1,3.1,0,0,1-1.488-.352A2.47,2.47,0,0,1,22.224-1.2V2.064a.83.83,0,0,1-.272.656,1.048,1.048,0,0,1-.72.24A1.037,1.037,0,0,1,20.5,2.7a.868.868,0,0,1-.28-.672V-7.04a.914.914,0,0,1,.264-.688.979.979,0,0,1,.712-.256,1.008,1.008,0,0,1,.72.256.9.9,0,0,1,.272.688v.4a2.455,2.455,0,0,1,1.016-1.016A3.121,3.121,0,0,1,24.72-8.016Zm-.528,6.592a1.793,1.793,0,0,0,1.472-.648A2.829,2.829,0,0,0,26.192-3.9a2.989,2.989,0,0,0-.528-1.888,1.766,1.766,0,0,0-1.472-.672,1.779,1.779,0,0,0-1.48.656,2.952,2.952,0,0,0-.52,1.872,2.923,2.923,0,0,0,.52,1.856A1.779,1.779,0,0,0,24.192-1.424Zm12.256-.048a.9.9,0,0,1,.288.656.885.885,0,0,1-.272.632.864.864,0,0,1-.64.28.878.878,0,0,1-.688-.336l-2.256-2.5L30.624-.24a.928.928,0,0,1-.688.32.858.858,0,0,1-.624-.272.858.858,0,0,1-.272-.624.9.9,0,0,1,.288-.656l2.336-2.544-2.208-2.4a.9.9,0,0,1-.288-.656A.85.85,0,0,1,29.44-7.7a.871.871,0,0,1,.624-.264.928.928,0,0,1,.688.32L32.88-5.312l2.128-2.336a.928.928,0,0,1,.688-.32.862.862,0,0,1,.632.264.862.862,0,0,1,.264.632.9.9,0,0,1-.288.656L34.1-4.016Z" transform="translate(646 2684)" fill="#38485c"/>
      <path id="Trazado_27788" data-name="Trazado 27788" d="M8.4-3.808a1.074,1.074,0,0,1,.72.208.741.741,0,0,1,.24.592q0,.8-.96.8H7.584V-.944a1.021,1.021,0,0,1-.28.768A1,1,0,0,1,6.576.1a1,1,0,0,1-.728-.272,1.021,1.021,0,0,1-.28-.768V-2.208H1.376A.892.892,0,0,1,.7-2.456a.851.851,0,0,1-.24-.616A1.234,1.234,0,0,1,.72-3.808l4.944-7.1a1.079,1.079,0,0,1,.4-.344,1.1,1.1,0,0,1,.5-.12,1.044,1.044,0,0,1,.72.272.977.977,0,0,1,.3.768v6.528Zm-2.832,0v-4.3l-2.976,4.3ZM16.544-5.792a2.733,2.733,0,0,1,1.528.992,2.864,2.864,0,0,1,.536,1.76,2.747,2.747,0,0,1-1.12,2.328,5.074,5.074,0,0,1-3.1.84,5.074,5.074,0,0,1-3.1-.84A2.747,2.747,0,0,1,10.16-3.04,2.87,2.87,0,0,1,10.7-4.808a2.68,2.68,0,0,1,1.536-.984,2.777,2.777,0,0,1-1.328-1,2.69,2.69,0,0,1-.48-1.592,2.659,2.659,0,0,1,1.056-2.224,4.626,4.626,0,0,1,2.9-.816,4.626,4.626,0,0,1,2.9.816,2.659,2.659,0,0,1,1.056,2.224,2.753,2.753,0,0,1-.48,1.616A2.584,2.584,0,0,1,16.544-5.792Zm-2.16-4.016q-2,0-2,1.632a1.529,1.529,0,0,0,.5,1.24,2.275,2.275,0,0,0,1.5.424,2.275,2.275,0,0,0,1.5-.424,1.529,1.529,0,0,0,.5-1.24Q16.384-9.808,14.384-9.808Zm0,8.32q2.288,0,2.288-1.712T14.384-4.912Q12.1-4.912,12.1-3.2T14.384-1.488ZM24.7-8.016a3.243,3.243,0,0,1,1.8.512,3.4,3.4,0,0,1,1.232,1.448,5,5,0,0,1,.44,2.152,4.845,4.845,0,0,1-.44,2.128A3.333,3.333,0,0,1,26.512-.368a3.309,3.309,0,0,1-1.808.5,3.1,3.1,0,0,1-1.488-.352A2.47,2.47,0,0,1,22.208-1.2V2.064a.83.83,0,0,1-.272.656,1.048,1.048,0,0,1-.72.24,1.037,1.037,0,0,1-.728-.256.868.868,0,0,1-.28-.672V-7.04a.914.914,0,0,1,.264-.688.979.979,0,0,1,.712-.256,1.008,1.008,0,0,1,.72.256.9.9,0,0,1,.272.688v.4a2.455,2.455,0,0,1,1.016-1.016A3.121,3.121,0,0,1,24.7-8.016Zm-.528,6.592a1.793,1.793,0,0,0,1.472-.648A2.829,2.829,0,0,0,26.176-3.9a2.989,2.989,0,0,0-.528-1.888,1.766,1.766,0,0,0-1.472-.672,1.779,1.779,0,0,0-1.48.656,2.952,2.952,0,0,0-.52,1.872A2.923,2.923,0,0,0,22.7-2.08,1.779,1.779,0,0,0,24.176-1.424Zm12.256-.048a.9.9,0,0,1,.288.656.885.885,0,0,1-.272.632.864.864,0,0,1-.64.28A.878.878,0,0,1,35.12-.24l-2.256-2.5L30.608-.24a.928.928,0,0,1-.688.32A.858.858,0,0,1,29.3-.192a.858.858,0,0,1-.272-.624.9.9,0,0,1,.288-.656l2.336-2.544-2.208-2.4a.9.9,0,0,1-.288-.656.85.85,0,0,1,.272-.632.871.871,0,0,1,.624-.264.928.928,0,0,1,.688.32l2.128,2.336,2.128-2.336a.928.928,0,0,1,.688-.32.862.862,0,0,1,.632.264.862.862,0,0,1,.264.632.9.9,0,0,1-.288.656l-2.208,2.4Z" transform="translate(1051 2684)" fill="#38485c"/>
      <path id="Trazado_27791" data-name="Trazado 27791" d="M6.528-5.792a2.681,2.681,0,0,1,1.544.968,2.856,2.856,0,0,1,.536,1.768A2.826,2.826,0,0,1,7.536-.736a4.484,4.484,0,0,1-2.9.864,6.283,6.283,0,0,1-2-.32,4.814,4.814,0,0,1-1.632-.9A.969.969,0,0,1,.64-1.84a.926.926,0,0,1,.2-.6.592.592,0,0,1,.472-.248.711.711,0,0,1,.288.056q.128.056.352.184a6.9,6.9,0,0,0,1.28.688,3.586,3.586,0,0,0,1.328.24,2.425,2.425,0,0,0,1.568-.424A1.576,1.576,0,0,0,6.64-3.232,1.478,1.478,0,0,0,6.1-4.488,2.732,2.732,0,0,0,4.448-4.9H3.536a.688.688,0,0,1-.568-.248.88.88,0,0,1-.2-.568.871.871,0,0,1,.2-.576.7.7,0,0,1,.568-.24h.64q2.192,0,2.192-1.648A1.508,1.508,0,0,0,5.9-9.36a1.849,1.849,0,0,0-1.28-.416,4.424,4.424,0,0,0-2.5.928q-.224.128-.352.184a.711.711,0,0,1-.288.056.592.592,0,0,1-.472-.248.926.926,0,0,1-.2-.6A.87.87,0,0,1,.9-9.864a1.3,1.3,0,0,1,.28-.344A5.137,5.137,0,0,1,2.792-11.1,5.742,5.742,0,0,1,4.7-11.424a4.019,4.019,0,0,1,2.648.816,2.684,2.684,0,0,1,.984,2.176,2.917,2.917,0,0,1-.488,1.624A2.7,2.7,0,0,1,6.528-5.792ZM17.552-1.664q.96,0,.96.816,0,.848-.96.848h-6.08a.87.87,0,0,1-.656-.248.851.851,0,0,1-.24-.616,1.218,1.218,0,0,1,.368-.864l3.648-3.92A6.316,6.316,0,0,0,15.576-7a2.691,2.691,0,0,0,.312-1.224,1.492,1.492,0,0,0-.432-1.152,1.748,1.748,0,0,0-1.232-.4,3.376,3.376,0,0,0-1.272.248,6.362,6.362,0,0,0-1.24.68,1.968,1.968,0,0,1-.32.184.774.774,0,0,1-.32.072.587.587,0,0,1-.472-.256.958.958,0,0,1-.2-.608.92.92,0,0,1,.088-.416,1.068,1.068,0,0,1,.28-.336,5.545,5.545,0,0,1,1.648-.888,5.721,5.721,0,0,1,1.888-.328,3.942,3.942,0,0,1,2.632.832,2.782,2.782,0,0,1,.984,2.24A4.136,4.136,0,0,1,17.5-6.52,8.119,8.119,0,0,1,16.1-4.608L13.328-1.664ZM24.72-8.016a3.243,3.243,0,0,1,1.8.512,3.4,3.4,0,0,1,1.232,1.448,5,5,0,0,1,.44,2.152,4.845,4.845,0,0,1-.44,2.128A3.333,3.333,0,0,1,26.528-.368a3.309,3.309,0,0,1-1.808.5,3.1,3.1,0,0,1-1.488-.352A2.47,2.47,0,0,1,22.224-1.2V2.064a.83.83,0,0,1-.272.656,1.048,1.048,0,0,1-.72.24A1.037,1.037,0,0,1,20.5,2.7a.868.868,0,0,1-.28-.672V-7.04a.914.914,0,0,1,.264-.688.979.979,0,0,1,.712-.256,1.008,1.008,0,0,1,.72.256.9.9,0,0,1,.272.688v.4a2.455,2.455,0,0,1,1.016-1.016A3.121,3.121,0,0,1,24.72-8.016Zm-.528,6.592a1.793,1.793,0,0,0,1.472-.648A2.829,2.829,0,0,0,26.192-3.9a2.989,2.989,0,0,0-.528-1.888,1.766,1.766,0,0,0-1.472-.672,1.779,1.779,0,0,0-1.48.656,2.952,2.952,0,0,0-.52,1.872,2.923,2.923,0,0,0,.52,1.856A1.779,1.779,0,0,0,24.192-1.424Zm12.256-.048a.9.9,0,0,1,.288.656.885.885,0,0,1-.272.632.864.864,0,0,1-.64.28.878.878,0,0,1-.688-.336l-2.256-2.5L30.624-.24a.928.928,0,0,1-.688.32.858.858,0,0,1-.624-.272.858.858,0,0,1-.272-.624.9.9,0,0,1,.288-.656l2.336-2.544-2.208-2.4a.9.9,0,0,1-.288-.656A.85.85,0,0,1,29.44-7.7a.871.871,0,0,1,.624-.264.928.928,0,0,1,.688.32L32.88-5.312l2.128-2.336a.928.928,0,0,1,.688-.32.862.862,0,0,1,.632.264.862.862,0,0,1,.264.632.9.9,0,0,1-.288.656L34.1-4.016Z" transform="translate(646 2747)" fill="#38485c"/>
      <path id="Trazado_27793" data-name="Trazado 27793" d="M8.4-3.808a1.074,1.074,0,0,1,.72.208.741.741,0,0,1,.24.592q0,.8-.96.8H7.584V-.944a1.021,1.021,0,0,1-.28.768A1,1,0,0,1,6.576.1a1,1,0,0,1-.728-.272,1.021,1.021,0,0,1-.28-.768V-2.208H1.376A.892.892,0,0,1,.7-2.456a.851.851,0,0,1-.24-.616A1.234,1.234,0,0,1,.72-3.808l4.944-7.1a1.079,1.079,0,0,1,.4-.344,1.1,1.1,0,0,1,.5-.12,1.044,1.044,0,0,1,.72.272.977.977,0,0,1,.3.768v6.528Zm-2.832,0v-4.3l-2.976,4.3ZM16.544-5.792a2.733,2.733,0,0,1,1.528.992,2.864,2.864,0,0,1,.536,1.76,2.747,2.747,0,0,1-1.12,2.328,5.074,5.074,0,0,1-3.1.84,5.074,5.074,0,0,1-3.1-.84A2.747,2.747,0,0,1,10.16-3.04,2.87,2.87,0,0,1,10.7-4.808a2.68,2.68,0,0,1,1.536-.984,2.777,2.777,0,0,1-1.328-1,2.69,2.69,0,0,1-.48-1.592,2.659,2.659,0,0,1,1.056-2.224,4.626,4.626,0,0,1,2.9-.816,4.626,4.626,0,0,1,2.9.816,2.659,2.659,0,0,1,1.056,2.224,2.753,2.753,0,0,1-.48,1.616A2.584,2.584,0,0,1,16.544-5.792Zm-2.16-4.016q-2,0-2,1.632a1.529,1.529,0,0,0,.5,1.24,2.275,2.275,0,0,0,1.5.424,2.275,2.275,0,0,0,1.5-.424,1.529,1.529,0,0,0,.5-1.24Q16.384-9.808,14.384-9.808Zm0,8.32q2.288,0,2.288-1.712T14.384-4.912Q12.1-4.912,12.1-3.2T14.384-1.488ZM24.7-8.016a3.243,3.243,0,0,1,1.8.512,3.4,3.4,0,0,1,1.232,1.448,5,5,0,0,1,.44,2.152,4.845,4.845,0,0,1-.44,2.128A3.333,3.333,0,0,1,26.512-.368a3.309,3.309,0,0,1-1.808.5,3.1,3.1,0,0,1-1.488-.352A2.47,2.47,0,0,1,22.208-1.2V2.064a.83.83,0,0,1-.272.656,1.048,1.048,0,0,1-.72.24,1.037,1.037,0,0,1-.728-.256.868.868,0,0,1-.28-.672V-7.04a.914.914,0,0,1,.264-.688.979.979,0,0,1,.712-.256,1.008,1.008,0,0,1,.72.256.9.9,0,0,1,.272.688v.4a2.455,2.455,0,0,1,1.016-1.016A3.121,3.121,0,0,1,24.7-8.016Zm-.528,6.592a1.793,1.793,0,0,0,1.472-.648A2.829,2.829,0,0,0,26.176-3.9a2.989,2.989,0,0,0-.528-1.888,1.766,1.766,0,0,0-1.472-.672,1.779,1.779,0,0,0-1.48.656,2.952,2.952,0,0,0-.52,1.872A2.923,2.923,0,0,0,22.7-2.08,1.779,1.779,0,0,0,24.176-1.424Zm12.256-.048a.9.9,0,0,1,.288.656.885.885,0,0,1-.272.632.864.864,0,0,1-.64.28A.878.878,0,0,1,35.12-.24l-2.256-2.5L30.608-.24a.928.928,0,0,1-.688.32A.858.858,0,0,1,29.3-.192a.858.858,0,0,1-.272-.624.9.9,0,0,1,.288-.656l2.336-2.544-2.208-2.4a.9.9,0,0,1-.288-.656.85.85,0,0,1,.272-.632.871.871,0,0,1,.624-.264.928.928,0,0,1,.688.32l2.128,2.336,2.128-2.336a.928.928,0,0,1,.688-.32.862.862,0,0,1,.632.264.862.862,0,0,1,.264.632.9.9,0,0,1-.288.656l-2.208,2.4Z" transform="translate(646 2891)" fill="#38485c"/>
    </g>
    <g id="Grupo_20844" data-name="Grupo 20844" transform="translate(-1911 11673)">
      <rect id="Rectángulo_18260" data-name="Rectángulo 18260" width="340" height="392" rx="12" transform="translate(2610 -9035)" fill="#f3f6f9"/>
      <g id="Rectángulo_18261" data-name="Rectángulo 18261" transform="translate(2618 -8915)" fill="#f3f6f9" stroke="#b9d8ee" stroke-width="1" stroke-dasharray="5 5">
        <rect width="324" height="48" rx="4" stroke="none"/>
        <rect x="-0.5" y="-0.5" width="325" height="49" rx="4.5" fill="none"/>
      </g>
      <path id="Trazado_27783" data-name="Trazado 27783" d="M12.155,15.691a1.047,1.047,0,0,1,.1.442.845.845,0,0,1-.314.663,1.072,1.072,0,0,1-.722.272.941.941,0,0,1-.884-.6l-1.02-2.278H3.332l-1.02,2.278a.964.964,0,0,1-.374.451,1,1,0,0,1-.527.145A1.083,1.083,0,0,1,.7,16.8a.836.836,0,0,1-.323-.663,1.047,1.047,0,0,1,.1-.442L5.168,5.61a1.1,1.1,0,0,1,.468-.519,1.352,1.352,0,0,1,1.343,0,1.1,1.1,0,0,1,.468.519ZM8.568,12.5,6.324,7.446,4.08,12.5ZM18.53,8.483a2.778,2.778,0,0,1,2.227.85,3.855,3.855,0,0,1,.731,2.567v4.182a.993.993,0,0,1-.28.748,1.064,1.064,0,0,1-.774.272,1.1,1.1,0,0,1-.782-.272.978.978,0,0,1-.289-.748V12.019A2.2,2.2,0,0,0,19,10.608a1.4,1.4,0,0,0-1.148-.442,1.94,1.94,0,0,0-1.471.578,2.146,2.146,0,0,0-.552,1.547v3.791a.978.978,0,0,1-.289.748,1.1,1.1,0,0,1-.782.272,1.064,1.064,0,0,1-.774-.272.993.993,0,0,1-.281-.748V9.5a.935.935,0,0,1,.289-.714,1.1,1.1,0,0,1,.782-.272,1.013,1.013,0,0,1,.722.264.9.9,0,0,1,.28.688v.459a2.875,2.875,0,0,1,1.139-1.071A3.428,3.428,0,0,1,18.53,8.483ZM24.684,17.1a1.1,1.1,0,0,1-.757-.264.957.957,0,0,1-.3-.756V9.52a.931.931,0,0,1,.3-.748,1.121,1.121,0,0,1,.757-.255,1.155,1.155,0,0,1,.765.255.918.918,0,0,1,.306.748v6.562a.944.944,0,0,1-.306.756A1.131,1.131,0,0,1,24.684,17.1Zm0-10.1a1.3,1.3,0,0,1-.918-.314,1.071,1.071,0,0,1-.34-.824,1.044,1.044,0,0,1,.34-.816,1.517,1.517,0,0,1,1.828,0,1.032,1.032,0,0,1,.348.816,1.071,1.071,0,0,1-.34.824A1.3,1.3,0,0,1,24.684,7ZM34.867,4.93a1.133,1.133,0,0,1,.782.272.91.91,0,0,1,.306.714V16.082a.956.956,0,0,1-.289.731,1.212,1.212,0,0,1-1.53,0,.956.956,0,0,1-.289-.731v-.425a2.661,2.661,0,0,1-1.079,1.088,3.258,3.258,0,0,1-1.607.391,3.445,3.445,0,0,1-1.912-.544,3.607,3.607,0,0,1-1.309-1.538,5.317,5.317,0,0,1-.468-2.286,5.148,5.148,0,0,1,.468-2.261,3.432,3.432,0,0,1,3.221-2.023,3.327,3.327,0,0,1,1.6.374A2.594,2.594,0,0,1,33.83,9.911V5.882a.9.9,0,0,1,.28-.689A1.06,1.06,0,0,1,34.867,4.93ZM31.722,15.487a1.89,1.89,0,0,0,1.572-.7,3.136,3.136,0,0,0,.553-1.989,3.1,3.1,0,0,0-.553-1.981,1.881,1.881,0,0,0-1.555-.688,1.935,1.935,0,0,0-1.581.68,3,3,0,0,0-.561,1.955,3.176,3.176,0,0,0,.561,2.006A1.877,1.877,0,0,0,31.722,15.487Zm10.013-7a3.463,3.463,0,0,1,2.576.858,3.594,3.594,0,0,1,.841,2.61V16.1a.959.959,0,0,1-.272.722,1.03,1.03,0,0,1-.748.263,1,1,0,0,1-.722-.272.95.95,0,0,1-.28-.714v-.374a2.218,2.218,0,0,1-.91,1.037,2.728,2.728,0,0,1-1.437.374,3.336,3.336,0,0,1-1.513-.34,2.692,2.692,0,0,1-1.071-.935,2.363,2.363,0,0,1-.391-1.326,2.1,2.1,0,0,1,.467-1.445,2.809,2.809,0,0,1,1.521-.765,13.856,13.856,0,0,1,2.907-.238h.425V11.7a1.741,1.741,0,0,0-.357-1.216,1.519,1.519,0,0,0-1.156-.382,3.668,3.668,0,0,0-1,.145q-.51.145-1.207.417a1.7,1.7,0,0,1-.646.221.639.639,0,0,1-.5-.221.84.84,0,0,1-.2-.578.87.87,0,0,1,.145-.5,1.371,1.371,0,0,1,.485-.4,5.541,5.541,0,0,1,1.419-.51A7.324,7.324,0,0,1,41.735,8.483Zm-.527,7.123a1.816,1.816,0,0,0,1.386-.569,2.06,2.06,0,0,0,.535-1.47v-.357h-.306a11.727,11.727,0,0,0-1.768.1,1.716,1.716,0,0,0-.9.357.909.909,0,0,0-.272.7,1.153,1.153,0,0,0,.382.892A1.349,1.349,0,0,0,41.208,15.606ZM54.23,4.93a1.133,1.133,0,0,1,.782.272.91.91,0,0,1,.306.714V16.082a.956.956,0,0,1-.289.731,1.212,1.212,0,0,1-1.53,0,.956.956,0,0,1-.289-.731v-.425a2.661,2.661,0,0,1-1.079,1.088,3.258,3.258,0,0,1-1.607.391,3.445,3.445,0,0,1-1.912-.544A3.607,3.607,0,0,1,47.3,15.054a5.317,5.317,0,0,1-.467-2.286,5.148,5.148,0,0,1,.467-2.261,3.432,3.432,0,0,1,3.222-2.023,3.327,3.327,0,0,1,1.6.374,2.594,2.594,0,0,1,1.071,1.054V5.882a.9.9,0,0,1,.28-.689A1.06,1.06,0,0,1,54.23,4.93ZM51.085,15.487a1.89,1.89,0,0,0,1.572-.7A3.136,3.136,0,0,0,53.21,12.8a3.1,3.1,0,0,0-.553-1.981,1.881,1.881,0,0,0-1.556-.688,1.935,1.935,0,0,0-1.581.68,3,3,0,0,0-.561,1.955,3.176,3.176,0,0,0,.561,2.006A1.877,1.877,0,0,0,51.085,15.487Zm10.2,1.649a4.574,4.574,0,0,1-2.236-.527A3.646,3.646,0,0,1,57.562,15.1a4.8,4.8,0,0,1-.527-2.295,4.747,4.747,0,0,1,.527-2.287,3.659,3.659,0,0,1,1.487-1.5,5,5,0,0,1,4.471,0A3.606,3.606,0,0,1,65,10.514a4.81,4.81,0,0,1,.519,2.287A4.861,4.861,0,0,1,65,15.1a3.594,3.594,0,0,1-1.479,1.513A4.574,4.574,0,0,1,61.285,17.136Zm-.017-1.649a1.905,1.905,0,0,0,1.581-.68,3.159,3.159,0,0,0,.544-2.006,3.165,3.165,0,0,0-.544-2,1.876,1.876,0,0,0-1.564-.689,1.9,1.9,0,0,0-1.572.689,3.13,3.13,0,0,0-.553,2,3.159,3.159,0,0,0,.544,2.006A1.886,1.886,0,0,0,61.268,15.487ZM81.107,4.93a.99.99,0,0,1,.757.3,1.105,1.105,0,0,1,.28.79V16a1.116,1.116,0,0,1-.289.8.982.982,0,0,1-.748.306.973.973,0,0,1-.833-.391L74.069,8.636V16a1.158,1.158,0,0,1-.272.8,1.067,1.067,0,0,1-1.5,0,1.158,1.158,0,0,1-.272-.8V6.018a1.086,1.086,0,0,1,.289-.79,1.018,1.018,0,0,1,.765-.3.955.955,0,0,1,.816.391l6.188,8.041V6.018a1.105,1.105,0,0,1,.281-.79A.969.969,0,0,1,81.107,4.93ZM85.578,17.1a1.1,1.1,0,0,1-.757-.264.957.957,0,0,1-.3-.756V9.52a.931.931,0,0,1,.3-.748,1.121,1.121,0,0,1,.757-.255,1.155,1.155,0,0,1,.765.255.918.918,0,0,1,.306.748v6.562a.944.944,0,0,1-.306.756A1.131,1.131,0,0,1,85.578,17.1Zm0-10.1a1.3,1.3,0,0,1-.918-.314,1.071,1.071,0,0,1-.34-.824,1.044,1.044,0,0,1,.34-.816,1.517,1.517,0,0,1,1.827,0,1.032,1.032,0,0,1,.349.816,1.071,1.071,0,0,1-.34.824A1.3,1.3,0,0,1,85.578,7Zm9.044,2.125a1.04,1.04,0,0,1,.366-.459.886.886,0,0,1,.5-.153,1.07,1.07,0,0,1,.706.264.821.821,0,0,1,.314.654.905.905,0,0,1-.1.408l-3.145,6.579a1.119,1.119,0,0,1-.434.493,1.174,1.174,0,0,1-.62.17,1.233,1.233,0,0,1-.62-.17,1.089,1.089,0,0,1-.451-.493L87.975,9.843a.863.863,0,0,1-.085-.391.829.829,0,0,1,.332-.663,1.16,1.16,0,0,1,.757-.272.948.948,0,0,1,.9.6l2.38,5.253Zm9.571,5.593a.572.572,0,0,1,.467.221.92.92,0,0,1,.179.6,1.031,1.031,0,0,1-.629.884,5.683,5.683,0,0,1-1.309.518,5.4,5.4,0,0,1-1.394.2,4.332,4.332,0,0,1-3.179-1.156,4.238,4.238,0,0,1-1.173-3.162,4.851,4.851,0,0,1,.51-2.261A3.708,3.708,0,0,1,99.1,9.027a4.068,4.068,0,0,1,2.1-.544,3.767,3.767,0,0,1,1.955.493,3.343,3.343,0,0,1,1.292,1.394,4.626,4.626,0,0,1,.459,2.125q0,.731-.646.731H99.246a2.675,2.675,0,0,0,.663,1.726,2.231,2.231,0,0,0,1.632.552,3.1,3.1,0,0,0,.961-.136,9.481,9.481,0,0,0,.943-.374A1.876,1.876,0,0,1,104.193,14.722Zm-2.941-4.743a1.824,1.824,0,0,0-1.385.544,2.569,2.569,0,0,0-.62,1.564h3.842a2.424,2.424,0,0,0-.51-1.573A1.682,1.682,0,0,0,101.252,9.979Zm6.426,7.123a1.1,1.1,0,0,1-.757-.264.957.957,0,0,1-.3-.756V5.933a.931.931,0,0,1,.3-.748,1.121,1.121,0,0,1,.757-.255,1.155,1.155,0,0,1,.765.255.918.918,0,0,1,.306.748V16.082a.944.944,0,0,1-.306.756A1.131,1.131,0,0,1,107.678,17.1Zm15.2-1.87q1.02,0,1.02.867,0,.9-1.02.9h-6.46a.925.925,0,0,1-.7-.264.9.9,0,0,1-.255-.654,1.294,1.294,0,0,1,.391-.918L119.731,11a6.71,6.71,0,0,0,1.046-1.437,2.859,2.859,0,0,0,.331-1.3,1.586,1.586,0,0,0-.459-1.224,1.857,1.857,0,0,0-1.309-.425,3.587,3.587,0,0,0-1.352.264,6.76,6.76,0,0,0-1.317.723,2.091,2.091,0,0,1-.34.2.823.823,0,0,1-.34.076.623.623,0,0,1-.5-.272,1.018,1.018,0,0,1-.213-.646.977.977,0,0,1,.094-.442,1.135,1.135,0,0,1,.3-.357,5.891,5.891,0,0,1,1.751-.943,6.078,6.078,0,0,1,2.006-.349,4.188,4.188,0,0,1,2.8.884,2.956,2.956,0,0,1,1.046,2.38,4.395,4.395,0,0,1-.442,1.947,8.626,8.626,0,0,1-1.5,2.031l-2.941,3.128Z" transform="translate(2642 -8902)" fill="#9eaab8"/>
      <g id="Rectángulo_18262" data-name="Rectángulo 18262" transform="translate(2618 -8967)" fill="#f3f6f9" stroke="#b9d8ee" stroke-width="1" stroke-dasharray="5 5">
        <rect width="324" height="48" rx="4" stroke="none"/>
        <rect x="0.5" y="0.5" width="323" height="47" rx="3.5" fill="none"/>
      </g>
      <path id="Trazado_27782" data-name="Trazado 27782" d="M11.8,16.2a.638.638,0,0,1,.068.289.54.54,0,0,1-.2.425.689.689,0,0,1-.467.17.6.6,0,0,1-.6-.408L9.4,13.923H2.992L1.768,16.677a.6.6,0,0,1-.6.408A.7.7,0,0,1,.7,16.906a.555.555,0,0,1-.2-.434A.6.6,0,0,1,.561,16.2L5.423,5.389a.733.733,0,0,1,.306-.357.862.862,0,0,1,.442-.119.848.848,0,0,1,.459.128.8.8,0,0,1,.306.348ZM8.891,12.767l-2.7-6.1L3.5,12.767Zm8.891-4.25q2.975,0,2.975,3.281v4.607a.62.62,0,0,1-.68.68.708.708,0,0,1-.51-.178.66.66,0,0,1-.187-.5V11.883A2.566,2.566,0,0,0,18.93,10.2a1.791,1.791,0,0,0-1.437-.527,2.425,2.425,0,0,0-1.819.7,2.586,2.586,0,0,0-.68,1.887v4.148a.62.62,0,0,1-.68.68.708.708,0,0,1-.51-.178.66.66,0,0,1-.187-.5V9.231a.667.667,0,0,1,.187-.493.689.689,0,0,1,.51-.187.638.638,0,0,1,.484.187.661.661,0,0,1,.179.476v.867a2.788,2.788,0,0,1,1.139-1.164A3.417,3.417,0,0,1,17.782,8.517Zm6.171,8.568a.715.715,0,0,1-.5-.178.645.645,0,0,1-.2-.5V9.231a.645.645,0,0,1,.2-.5.715.715,0,0,1,.5-.179.684.684,0,0,1,.493.179.66.66,0,0,1,.187.5v7.174a.655.655,0,0,1-.187.51A.7.7,0,0,1,23.953,17.085Zm0-10.319a.933.933,0,0,1-.663-.238.82.82,0,0,1-.255-.629.8.8,0,0,1,.255-.612,1.042,1.042,0,0,1,1.326,0,.8.8,0,0,1,.255.612.82.82,0,0,1-.255.629A.933.933,0,0,1,23.953,6.766ZM33.83,4.93a.689.689,0,0,1,.51.187.645.645,0,0,1,.187.476V16.405a.667.667,0,0,1-.187.493.689.689,0,0,1-.51.187.66.66,0,0,1-.5-.187.684.684,0,0,1-.179-.493v-.918a2.732,2.732,0,0,1-1.1,1.207,3.275,3.275,0,0,1-1.691.425,3.434,3.434,0,0,1-1.921-.544,3.591,3.591,0,0,1-1.292-1.522,5.286,5.286,0,0,1-.459-2.269,5.187,5.187,0,0,1,.459-2.244,3.409,3.409,0,0,1,3.213-2.023,3.275,3.275,0,0,1,1.691.425,2.732,2.732,0,0,1,1.1,1.207V5.593a.655.655,0,0,1,.179-.485A.678.678,0,0,1,33.83,4.93Zm-3.2,11.05a2.239,2.239,0,0,0,1.861-.824,3.679,3.679,0,0,0,.655-2.338,3.642,3.642,0,0,0-.655-2.329,2.249,2.249,0,0,0-1.861-.816,2.3,2.3,0,0,0-1.878.816,3.517,3.517,0,0,0-.671,2.3,3.685,3.685,0,0,0,.671,2.354A2.268,2.268,0,0,0,30.634,15.98Zm9.809-7.463q3.111,0,3.111,3.264v4.624a.684.684,0,0,1-.179.493.638.638,0,0,1-.485.187.642.642,0,0,1-.68-.68v-.816a2.432,2.432,0,0,1-.986,1.13,2.906,2.906,0,0,1-1.53.4,3.348,3.348,0,0,1-1.471-.323,2.628,2.628,0,0,1-1.062-.9,2.227,2.227,0,0,1-.391-1.275,2.07,2.07,0,0,1,.476-1.453,2.888,2.888,0,0,1,1.564-.748,15.453,15.453,0,0,1,3.026-.23h.374v-.561a2.236,2.236,0,0,0-.417-1.5,1.71,1.71,0,0,0-1.351-.476,4.994,4.994,0,0,0-2.346.629,1.552,1.552,0,0,1-.646.289.436.436,0,0,1-.34-.153.567.567,0,0,1-.136-.391.642.642,0,0,1,.145-.417,1.693,1.693,0,0,1,.467-.365,5.47,5.47,0,0,1,1.352-.536A5.993,5.993,0,0,1,40.443,8.517Zm-.561,7.514a2.209,2.209,0,0,0,1.674-.689,2.473,2.473,0,0,0,.654-1.776v-.493H41.9a15.216,15.216,0,0,0-2.278.128,2.214,2.214,0,0,0-1.113.425,1.116,1.116,0,0,0-.332.875,1.408,1.408,0,0,0,.485,1.1A1.755,1.755,0,0,0,39.882,16.031ZM52.7,4.93a.689.689,0,0,1,.51.187.645.645,0,0,1,.187.476V16.405a.667.667,0,0,1-.187.493.689.689,0,0,1-.51.187.66.66,0,0,1-.5-.187.684.684,0,0,1-.179-.493v-.918a2.732,2.732,0,0,1-1.1,1.207,3.275,3.275,0,0,1-1.692.425,3.434,3.434,0,0,1-1.921-.544,3.591,3.591,0,0,1-1.292-1.522,5.286,5.286,0,0,1-.459-2.269,5.187,5.187,0,0,1,.459-2.244,3.409,3.409,0,0,1,3.213-2.023,3.275,3.275,0,0,1,1.692.425,2.732,2.732,0,0,1,1.1,1.207V5.593a.655.655,0,0,1,.179-.485A.678.678,0,0,1,52.7,4.93ZM49.5,15.98a2.239,2.239,0,0,0,1.862-.824,3.679,3.679,0,0,0,.654-2.338,3.642,3.642,0,0,0-.654-2.329A2.249,2.249,0,0,0,49.5,9.673a2.3,2.3,0,0,0-1.878.816,3.517,3.517,0,0,0-.672,2.3,3.685,3.685,0,0,0,.672,2.354A2.268,2.268,0,0,0,49.5,15.98Zm9.86,1.139a3.986,3.986,0,0,1-2.065-.527,3.512,3.512,0,0,1-1.377-1.5,5.049,5.049,0,0,1-.484-2.269,5.049,5.049,0,0,1,.484-2.269,3.512,3.512,0,0,1,1.377-1.5,3.986,3.986,0,0,1,2.065-.527,4.031,4.031,0,0,1,2.074.527,3.5,3.5,0,0,1,1.385,1.5,5.049,5.049,0,0,1,.485,2.269,5.049,5.049,0,0,1-.485,2.269,3.5,3.5,0,0,1-1.385,1.5A4.031,4.031,0,0,1,59.364,17.119Zm0-1.139a2.278,2.278,0,0,0,1.879-.807,3.666,3.666,0,0,0,.654-2.354,3.645,3.645,0,0,0-.663-2.338,2.533,2.533,0,0,0-3.74,0,3.645,3.645,0,0,0-.663,2.338,3.672,3.672,0,0,0,.655,2.346A2.268,2.268,0,0,0,59.364,15.98ZM78.88,4.93a.6.6,0,0,1,.476.2.762.762,0,0,1,.17.518V16.371a.739.739,0,0,1-.178.518.645.645,0,0,1-.5.2.709.709,0,0,1-.561-.289L71.23,7.361v9.01a.739.739,0,0,1-.179.518.624.624,0,0,1-.484.2.6.6,0,0,1-.476-.2.762.762,0,0,1-.17-.518V5.644a.739.739,0,0,1,.179-.518.645.645,0,0,1,.5-.2.724.724,0,0,1,.578.289l7.038,9.435V5.644a.739.739,0,0,1,.178-.518A.624.624,0,0,1,78.88,4.93Zm4.08,12.155a.715.715,0,0,1-.5-.178.645.645,0,0,1-.2-.5V9.231a.645.645,0,0,1,.2-.5.715.715,0,0,1,.5-.179.684.684,0,0,1,.493.179.66.66,0,0,1,.187.5v7.174a.655.655,0,0,1-.187.51A.7.7,0,0,1,82.96,17.085Zm0-10.319a.933.933,0,0,1-.663-.238.82.82,0,0,1-.255-.629.8.8,0,0,1,.255-.612,1.042,1.042,0,0,1,1.326,0,.8.8,0,0,1,.255.612.82.82,0,0,1-.255.629A.933.933,0,0,1,82.96,6.766Zm9.2,2.21a.621.621,0,0,1,.6-.408.7.7,0,0,1,.459.17.531.531,0,0,1,.2.425.538.538,0,0,1-.068.272l-3.315,7.14a.8.8,0,0,1-.306.348.818.818,0,0,1-.442.128.791.791,0,0,1-.425-.128.912.912,0,0,1-.323-.348l-3.3-7.14a.506.506,0,0,1-.068-.255.556.556,0,0,1,.229-.442.777.777,0,0,1,.5-.187.613.613,0,0,1,.331.1.65.65,0,0,1,.247.289l2.839,6.375Zm9.061,6.1a.419.419,0,0,1,.323.153.567.567,0,0,1,.136.391q0,.425-.595.782a5.146,5.146,0,0,1-1.292.535,5.212,5.212,0,0,1-1.326.178,4.049,4.049,0,0,1-3.035-1.139,4.307,4.307,0,0,1-1.114-3.145,4.936,4.936,0,0,1,.493-2.252,3.678,3.678,0,0,1,1.385-1.522,3.825,3.825,0,0,1,2.032-.544,3.287,3.287,0,0,1,2.567,1.054,4.1,4.1,0,0,1,.952,2.856.732.732,0,0,1-.136.493.564.564,0,0,1-.442.153H95.693Q95.846,16,98.464,16a3.248,3.248,0,0,0,1.139-.178,7.406,7.406,0,0,0,1.02-.485A1.617,1.617,0,0,1,101.218,15.079ZM98.243,9.588a2.307,2.307,0,0,0-1.743.68,3.107,3.107,0,0,0-.773,1.921h4.811a2.945,2.945,0,0,0-.629-1.929A2.11,2.11,0,0,0,98.243,9.588Zm6.205,7.5a.715.715,0,0,1-.5-.178.645.645,0,0,1-.2-.5V5.61a.645.645,0,0,1,.2-.5.715.715,0,0,1,.5-.178.692.692,0,0,1,.484.178.645.645,0,0,1,.2.5v10.8a.645.645,0,0,1-.2.5A.692.692,0,0,1,104.448,17.085Zm14.96-1.258a.687.687,0,0,1,.476.153.543.543,0,0,1,.17.425q0,.595-.646.595h-6.664a.661.661,0,0,1-.476-.178.577.577,0,0,1-.187-.434.767.767,0,0,1,.238-.561l4.1-4.5a8.326,8.326,0,0,0,1.233-1.709,3.343,3.343,0,0,0,.382-1.521,1.959,1.959,0,0,0-.57-1.513,2.278,2.278,0,0,0-1.606-.527,4.194,4.194,0,0,0-1.564.3,5.724,5.724,0,0,0-1.5.91.784.784,0,0,1-.476.2A.4.4,0,0,1,112,7.285a.694.694,0,0,1-.136-.434.709.709,0,0,1,.272-.578,5.074,5.074,0,0,1,1.7-1.02,5.843,5.843,0,0,1,2.057-.374,3.745,3.745,0,0,1,2.576.85,2.91,2.91,0,0,1,.961,2.3,4.458,4.458,0,0,1-.467,1.989,9.527,9.527,0,0,1-1.538,2.125l-3.4,3.689Z" transform="translate(2642 -8954)" fill="#9eaab8"/>
      <g id="Rectángulo_18263" data-name="Rectángulo 18263" transform="translate(2618 -8758)" fill="#f3f6f9" stroke="#b9d8ee" stroke-width="1" stroke-dasharray="5 5">
        <rect width="324" height="48" rx="4" stroke="none"/>
        <rect x="0.5" y="0.5" width="323" height="47" rx="3.5" fill="none"/>
      </g>
      <path id="Trazado_27786" data-name="Trazado 27786" d="M11.8,16.2a.638.638,0,0,1,.068.289.54.54,0,0,1-.2.425.689.689,0,0,1-.467.17.6.6,0,0,1-.6-.408L9.4,13.923H2.992L1.768,16.677a.6.6,0,0,1-.6.408A.7.7,0,0,1,.7,16.906a.555.555,0,0,1-.2-.434A.6.6,0,0,1,.561,16.2L5.423,5.389a.733.733,0,0,1,.306-.357.862.862,0,0,1,.442-.119.848.848,0,0,1,.459.128.8.8,0,0,1,.306.348ZM8.891,12.767l-2.7-6.1L3.5,12.767Zm8.891-4.25q2.975,0,2.975,3.281v4.607a.62.62,0,0,1-.68.68.708.708,0,0,1-.51-.178.66.66,0,0,1-.187-.5V11.883A2.566,2.566,0,0,0,18.93,10.2a1.791,1.791,0,0,0-1.437-.527,2.425,2.425,0,0,0-1.819.7,2.586,2.586,0,0,0-.68,1.887v4.148a.62.62,0,0,1-.68.68.708.708,0,0,1-.51-.178.66.66,0,0,1-.187-.5V9.231a.667.667,0,0,1,.187-.493.689.689,0,0,1,.51-.187.638.638,0,0,1,.484.187.661.661,0,0,1,.179.476v.867a2.788,2.788,0,0,1,1.139-1.164A3.417,3.417,0,0,1,17.782,8.517Zm6.171,8.568a.715.715,0,0,1-.5-.178.645.645,0,0,1-.2-.5V9.231a.645.645,0,0,1,.2-.5.715.715,0,0,1,.5-.179.684.684,0,0,1,.493.179.66.66,0,0,1,.187.5v7.174a.655.655,0,0,1-.187.51A.7.7,0,0,1,23.953,17.085Zm0-10.319a.933.933,0,0,1-.663-.238.82.82,0,0,1-.255-.629.8.8,0,0,1,.255-.612,1.042,1.042,0,0,1,1.326,0,.8.8,0,0,1,.255.612.82.82,0,0,1-.255.629A.933.933,0,0,1,23.953,6.766ZM33.83,4.93a.689.689,0,0,1,.51.187.645.645,0,0,1,.187.476V16.405a.667.667,0,0,1-.187.493.689.689,0,0,1-.51.187.66.66,0,0,1-.5-.187.684.684,0,0,1-.179-.493v-.918a2.732,2.732,0,0,1-1.1,1.207,3.275,3.275,0,0,1-1.691.425,3.434,3.434,0,0,1-1.921-.544,3.591,3.591,0,0,1-1.292-1.522,5.286,5.286,0,0,1-.459-2.269,5.187,5.187,0,0,1,.459-2.244,3.409,3.409,0,0,1,3.213-2.023,3.275,3.275,0,0,1,1.691.425,2.732,2.732,0,0,1,1.1,1.207V5.593a.655.655,0,0,1,.179-.485A.678.678,0,0,1,33.83,4.93Zm-3.2,11.05a2.239,2.239,0,0,0,1.861-.824,3.679,3.679,0,0,0,.655-2.338,3.642,3.642,0,0,0-.655-2.329,2.249,2.249,0,0,0-1.861-.816,2.3,2.3,0,0,0-1.878.816,3.517,3.517,0,0,0-.671,2.3,3.685,3.685,0,0,0,.671,2.354A2.268,2.268,0,0,0,30.634,15.98Zm9.809-7.463q3.111,0,3.111,3.264v4.624a.684.684,0,0,1-.179.493.638.638,0,0,1-.485.187.642.642,0,0,1-.68-.68v-.816a2.432,2.432,0,0,1-.986,1.13,2.906,2.906,0,0,1-1.53.4,3.348,3.348,0,0,1-1.471-.323,2.628,2.628,0,0,1-1.062-.9,2.227,2.227,0,0,1-.391-1.275,2.07,2.07,0,0,1,.476-1.453,2.888,2.888,0,0,1,1.564-.748,15.453,15.453,0,0,1,3.026-.23h.374v-.561a2.236,2.236,0,0,0-.417-1.5,1.71,1.71,0,0,0-1.351-.476,4.994,4.994,0,0,0-2.346.629,1.552,1.552,0,0,1-.646.289.436.436,0,0,1-.34-.153.567.567,0,0,1-.136-.391.642.642,0,0,1,.145-.417,1.693,1.693,0,0,1,.467-.365,5.47,5.47,0,0,1,1.352-.536A5.993,5.993,0,0,1,40.443,8.517Zm-.561,7.514a2.209,2.209,0,0,0,1.674-.689,2.473,2.473,0,0,0,.654-1.776v-.493H41.9a15.216,15.216,0,0,0-2.278.128,2.214,2.214,0,0,0-1.113.425,1.116,1.116,0,0,0-.332.875,1.408,1.408,0,0,0,.485,1.1A1.755,1.755,0,0,0,39.882,16.031ZM52.7,4.93a.689.689,0,0,1,.51.187.645.645,0,0,1,.187.476V16.405a.667.667,0,0,1-.187.493.689.689,0,0,1-.51.187.66.66,0,0,1-.5-.187.684.684,0,0,1-.179-.493v-.918a2.732,2.732,0,0,1-1.1,1.207,3.275,3.275,0,0,1-1.692.425,3.434,3.434,0,0,1-1.921-.544,3.591,3.591,0,0,1-1.292-1.522,5.286,5.286,0,0,1-.459-2.269,5.187,5.187,0,0,1,.459-2.244,3.409,3.409,0,0,1,3.213-2.023,3.275,3.275,0,0,1,1.692.425,2.732,2.732,0,0,1,1.1,1.207V5.593a.655.655,0,0,1,.179-.485A.678.678,0,0,1,52.7,4.93ZM49.5,15.98a2.239,2.239,0,0,0,1.862-.824,3.679,3.679,0,0,0,.654-2.338,3.642,3.642,0,0,0-.654-2.329A2.249,2.249,0,0,0,49.5,9.673a2.3,2.3,0,0,0-1.878.816,3.517,3.517,0,0,0-.672,2.3,3.685,3.685,0,0,0,.672,2.354A2.268,2.268,0,0,0,49.5,15.98Zm9.86,1.139a3.986,3.986,0,0,1-2.065-.527,3.512,3.512,0,0,1-1.377-1.5,5.049,5.049,0,0,1-.484-2.269,5.049,5.049,0,0,1,.484-2.269,3.512,3.512,0,0,1,1.377-1.5,3.986,3.986,0,0,1,2.065-.527,4.031,4.031,0,0,1,2.074.527,3.5,3.5,0,0,1,1.385,1.5,5.049,5.049,0,0,1,.485,2.269,5.049,5.049,0,0,1-.485,2.269,3.5,3.5,0,0,1-1.385,1.5A4.031,4.031,0,0,1,59.364,17.119Zm0-1.139a2.278,2.278,0,0,0,1.879-.807,3.666,3.666,0,0,0,.654-2.354,3.645,3.645,0,0,0-.663-2.338,2.533,2.533,0,0,0-3.74,0,3.645,3.645,0,0,0-.663,2.338,3.672,3.672,0,0,0,.655,2.346A2.268,2.268,0,0,0,59.364,15.98ZM78.88,4.93a.6.6,0,0,1,.476.2.762.762,0,0,1,.17.518V16.371a.739.739,0,0,1-.178.518.645.645,0,0,1-.5.2.709.709,0,0,1-.561-.289L71.23,7.361v9.01a.739.739,0,0,1-.179.518.624.624,0,0,1-.484.2.6.6,0,0,1-.476-.2.762.762,0,0,1-.17-.518V5.644a.739.739,0,0,1,.179-.518.645.645,0,0,1,.5-.2.724.724,0,0,1,.578.289l7.038,9.435V5.644a.739.739,0,0,1,.178-.518A.624.624,0,0,1,78.88,4.93Zm4.08,12.155a.715.715,0,0,1-.5-.178.645.645,0,0,1-.2-.5V9.231a.645.645,0,0,1,.2-.5.715.715,0,0,1,.5-.179.684.684,0,0,1,.493.179.66.66,0,0,1,.187.5v7.174a.655.655,0,0,1-.187.51A.7.7,0,0,1,82.96,17.085Zm0-10.319a.933.933,0,0,1-.663-.238.82.82,0,0,1-.255-.629.8.8,0,0,1,.255-.612,1.042,1.042,0,0,1,1.326,0,.8.8,0,0,1,.255.612.82.82,0,0,1-.255.629A.933.933,0,0,1,82.96,6.766Zm9.2,2.21a.621.621,0,0,1,.6-.408.7.7,0,0,1,.459.17.531.531,0,0,1,.2.425.538.538,0,0,1-.068.272l-3.315,7.14a.8.8,0,0,1-.306.348.818.818,0,0,1-.442.128.791.791,0,0,1-.425-.128.912.912,0,0,1-.323-.348l-3.3-7.14a.506.506,0,0,1-.068-.255.556.556,0,0,1,.229-.442.777.777,0,0,1,.5-.187.613.613,0,0,1,.331.1.65.65,0,0,1,.247.289l2.839,6.375Zm9.061,6.1a.419.419,0,0,1,.323.153.567.567,0,0,1,.136.391q0,.425-.595.782a5.146,5.146,0,0,1-1.292.535,5.212,5.212,0,0,1-1.326.178,4.049,4.049,0,0,1-3.035-1.139,4.307,4.307,0,0,1-1.114-3.145,4.936,4.936,0,0,1,.493-2.252,3.678,3.678,0,0,1,1.385-1.522,3.825,3.825,0,0,1,2.032-.544,3.287,3.287,0,0,1,2.567,1.054,4.1,4.1,0,0,1,.952,2.856.732.732,0,0,1-.136.493.564.564,0,0,1-.442.153H95.693Q95.846,16,98.464,16a3.248,3.248,0,0,0,1.139-.178,7.406,7.406,0,0,0,1.02-.485A1.617,1.617,0,0,1,101.218,15.079ZM98.243,9.588a2.307,2.307,0,0,0-1.743.68,3.107,3.107,0,0,0-.773,1.921h4.811a2.945,2.945,0,0,0-.629-1.929A2.11,2.11,0,0,0,98.243,9.588Zm6.205,7.5a.715.715,0,0,1-.5-.178.645.645,0,0,1-.2-.5V5.61a.645.645,0,0,1,.2-.5.715.715,0,0,1,.5-.178.692.692,0,0,1,.484.178.645.645,0,0,1,.2.5v10.8a.645.645,0,0,1-.2.5A.692.692,0,0,1,104.448,17.085Zm14.96-1.258a.687.687,0,0,1,.476.153.543.543,0,0,1,.17.425q0,.595-.646.595h-6.664a.661.661,0,0,1-.476-.178.577.577,0,0,1-.187-.434.767.767,0,0,1,.238-.561l4.1-4.5a8.326,8.326,0,0,0,1.233-1.709,3.343,3.343,0,0,0,.382-1.521,1.959,1.959,0,0,0-.57-1.513,2.278,2.278,0,0,0-1.606-.527,4.194,4.194,0,0,0-1.564.3,5.724,5.724,0,0,0-1.5.91.784.784,0,0,1-.476.2A.4.4,0,0,1,112,7.285a.694.694,0,0,1-.136-.434.709.709,0,0,1,.272-.578,5.074,5.074,0,0,1,1.7-1.02,5.843,5.843,0,0,1,2.057-.374,3.745,3.745,0,0,1,2.576.85,2.91,2.91,0,0,1,.961,2.3,4.458,4.458,0,0,1-.467,1.989,9.527,9.527,0,0,1-1.538,2.125l-3.4,3.689Z" transform="translate(2642 -8745)" fill="#9eaab8"/>
      <g id="Grupo_20842" data-name="Grupo 20842" transform="translate(2618 -9019)">
        <g id="Rectángulo_18252" data-name="Rectángulo 18252" fill="#f3f6f9" stroke="#007bc7" stroke-width="1" stroke-dasharray="5 5">
          <rect width="324" height="48" rx="4" stroke="none"/>
          <rect x="0.5" y="0.5" width="323" height="47" rx="3.5" fill="none"/>
        </g>
      </g>
      <path id="Trazado_27781" data-name="Trazado 27781" d="M13.585,17.537a1.17,1.17,0,0,1,.114.494.944.944,0,0,1-.352.741,1.2,1.2,0,0,1-.807.3,1.052,1.052,0,0,1-.988-.665l-1.14-2.546H3.724l-1.14,2.546a1.078,1.078,0,0,1-.418.5,1.113,1.113,0,0,1-.589.162,1.21,1.21,0,0,1-.8-.3.935.935,0,0,1-.361-.741,1.17,1.17,0,0,1,.114-.494L5.776,6.27A1.226,1.226,0,0,1,6.3,5.691a1.511,1.511,0,0,1,1.5,0,1.226,1.226,0,0,1,.522.579ZM9.576,13.965,7.068,8.322,4.56,13.965ZM20.71,9.481a3.105,3.105,0,0,1,2.489.95,4.308,4.308,0,0,1,.817,2.869v4.674a1.11,1.11,0,0,1-.314.836,1.189,1.189,0,0,1-.864.3,1.224,1.224,0,0,1-.874-.3,1.092,1.092,0,0,1-.323-.836V13.433a2.463,2.463,0,0,0-.409-1.577,1.57,1.57,0,0,0-1.282-.494,2.168,2.168,0,0,0-1.644.646,2.4,2.4,0,0,0-.617,1.729v4.237a1.092,1.092,0,0,1-.323.836,1.224,1.224,0,0,1-.874.3,1.189,1.189,0,0,1-.865-.3,1.11,1.11,0,0,1-.314-.836V10.621a1.045,1.045,0,0,1,.323-.8,1.224,1.224,0,0,1,.874-.3,1.132,1.132,0,0,1,.807.294,1.007,1.007,0,0,1,.313.77V11.1a3.213,3.213,0,0,1,1.273-1.2A3.831,3.831,0,0,1,20.71,9.481Zm6.878,9.633a1.228,1.228,0,0,1-.845-.295,1.07,1.07,0,0,1-.333-.846V10.64a1.04,1.04,0,0,1,.333-.836,1.253,1.253,0,0,1,.845-.285,1.29,1.29,0,0,1,.855.285,1.026,1.026,0,0,1,.342.836v7.334a1.055,1.055,0,0,1-.342.846A1.264,1.264,0,0,1,27.588,19.114Zm0-11.286a1.452,1.452,0,0,1-1.026-.352,1.2,1.2,0,0,1-.38-.921,1.167,1.167,0,0,1,.38-.912,1.7,1.7,0,0,1,2.043,0,1.153,1.153,0,0,1,.389.912,1.2,1.2,0,0,1-.38.921A1.452,1.452,0,0,1,27.588,7.828ZM38.969,5.51a1.266,1.266,0,0,1,.874.3,1.017,1.017,0,0,1,.342.8V17.974a1.068,1.068,0,0,1-.323.817,1.354,1.354,0,0,1-1.71,0,1.068,1.068,0,0,1-.323-.817V17.5a2.975,2.975,0,0,1-1.206,1.216,3.641,3.641,0,0,1-1.8.437,3.851,3.851,0,0,1-2.138-.608,4.032,4.032,0,0,1-1.463-1.719,5.942,5.942,0,0,1-.522-2.556,5.754,5.754,0,0,1,.522-2.527,3.836,3.836,0,0,1,3.6-2.261,3.719,3.719,0,0,1,1.786.418,2.9,2.9,0,0,1,1.2,1.178v-4.5a1.007,1.007,0,0,1,.313-.77A1.185,1.185,0,0,1,38.969,5.51Zm-3.515,11.8a2.112,2.112,0,0,0,1.758-.779,3.505,3.505,0,0,0,.617-2.223,3.464,3.464,0,0,0-.617-2.214,2.1,2.1,0,0,0-1.739-.77,2.163,2.163,0,0,0-1.767.76,3.352,3.352,0,0,0-.627,2.185,3.55,3.55,0,0,0,.627,2.242A2.1,2.1,0,0,0,35.454,17.309ZM46.645,9.481a3.87,3.87,0,0,1,2.878.96,4.017,4.017,0,0,1,.941,2.917v4.636a1.072,1.072,0,0,1-.3.808,1.151,1.151,0,0,1-.836.294,1.112,1.112,0,0,1-.808-.3,1.061,1.061,0,0,1-.313-.8v-.418a2.479,2.479,0,0,1-1.016,1.159,3.049,3.049,0,0,1-1.605.418,3.728,3.728,0,0,1-1.691-.38,3.008,3.008,0,0,1-1.2-1.045,2.64,2.64,0,0,1-.437-1.482,2.348,2.348,0,0,1,.522-1.615,3.14,3.14,0,0,1,1.7-.855,15.486,15.486,0,0,1,3.249-.266H48.2v-.437a1.945,1.945,0,0,0-.4-1.359,1.7,1.7,0,0,0-1.292-.427,4.1,4.1,0,0,0-1.121.161q-.57.162-1.349.465a1.9,1.9,0,0,1-.722.247.714.714,0,0,1-.561-.247.939.939,0,0,1-.218-.646.973.973,0,0,1,.161-.561,1.533,1.533,0,0,1,.542-.446,6.193,6.193,0,0,1,1.587-.57A8.186,8.186,0,0,1,46.645,9.481Zm-.589,7.961a2.029,2.029,0,0,0,1.549-.636,2.3,2.3,0,0,0,.6-1.644v-.4h-.342a13.107,13.107,0,0,0-1.976.114,1.918,1.918,0,0,0-1.007.4,1.016,1.016,0,0,0-.3.779,1.289,1.289,0,0,0,.427,1A1.508,1.508,0,0,0,46.056,17.442ZM60.61,5.51a1.266,1.266,0,0,1,.874.3,1.017,1.017,0,0,1,.342.8V17.974a1.068,1.068,0,0,1-.323.817,1.354,1.354,0,0,1-1.71,0,1.068,1.068,0,0,1-.323-.817V17.5a2.975,2.975,0,0,1-1.207,1.216,3.641,3.641,0,0,1-1.8.437,3.851,3.851,0,0,1-2.138-.608,4.032,4.032,0,0,1-1.463-1.719,5.942,5.942,0,0,1-.522-2.556,5.754,5.754,0,0,1,.522-2.527,3.836,3.836,0,0,1,3.6-2.261,3.719,3.719,0,0,1,1.786.418,2.9,2.9,0,0,1,1.2,1.178v-4.5a1.007,1.007,0,0,1,.313-.77A1.185,1.185,0,0,1,60.61,5.51ZM57.1,17.309a2.112,2.112,0,0,0,1.757-.779,3.505,3.505,0,0,0,.618-2.223,3.464,3.464,0,0,0-.618-2.214,2.1,2.1,0,0,0-1.738-.77,2.163,2.163,0,0,0-1.767.76,3.352,3.352,0,0,0-.627,2.185,3.55,3.55,0,0,0,.627,2.242A2.1,2.1,0,0,0,57.1,17.309Zm11.4,1.843a5.112,5.112,0,0,1-2.5-.589,4.075,4.075,0,0,1-1.662-1.691,5.361,5.361,0,0,1-.589-2.565,5.305,5.305,0,0,1,.589-2.556A4.089,4.089,0,0,1,66,10.07a5.594,5.594,0,0,1,5,0,4.03,4.03,0,0,1,1.653,1.682,5.376,5.376,0,0,1,.579,2.556,5.433,5.433,0,0,1-.579,2.565,4.017,4.017,0,0,1-1.653,1.691A5.112,5.112,0,0,1,68.495,19.152Zm-.019-1.843a2.129,2.129,0,0,0,1.767-.76,3.531,3.531,0,0,0,.608-2.242,3.538,3.538,0,0,0-.608-2.233,2.1,2.1,0,0,0-1.748-.769,2.123,2.123,0,0,0-1.757.769,3.5,3.5,0,0,0-.618,2.233,3.531,3.531,0,0,0,.608,2.242A2.108,2.108,0,0,0,68.476,17.309ZM90.649,5.51a1.107,1.107,0,0,1,.845.332,1.235,1.235,0,0,1,.313.884V17.879a1.247,1.247,0,0,1-.323.893,1.1,1.1,0,0,1-.836.342,1.087,1.087,0,0,1-.931-.437L82.783,9.652v8.227a1.294,1.294,0,0,1-.3.893,1.193,1.193,0,0,1-1.672,0,1.294,1.294,0,0,1-.3-.893V6.726a1.214,1.214,0,0,1,.323-.884,1.138,1.138,0,0,1,.855-.332,1.068,1.068,0,0,1,.912.437l6.916,8.987V6.726a1.235,1.235,0,0,1,.313-.884A1.083,1.083,0,0,1,90.649,5.51Zm5,13.6a1.228,1.228,0,0,1-.846-.295,1.07,1.07,0,0,1-.332-.846V10.64A1.04,1.04,0,0,1,94.8,9.8a1.253,1.253,0,0,1,.846-.285A1.29,1.29,0,0,1,96.5,9.8a1.026,1.026,0,0,1,.342.836v7.334a1.055,1.055,0,0,1-.342.846A1.264,1.264,0,0,1,95.646,19.114Zm0-11.286a1.452,1.452,0,0,1-1.026-.352,1.2,1.2,0,0,1-.38-.921,1.167,1.167,0,0,1,.38-.912,1.7,1.7,0,0,1,2.042,0,1.153,1.153,0,0,1,.39.912,1.2,1.2,0,0,1-.38.921A1.452,1.452,0,0,1,95.646,7.828ZM105.754,10.2a1.163,1.163,0,0,1,.409-.513.99.99,0,0,1,.561-.171,1.2,1.2,0,0,1,.788.294.917.917,0,0,1,.352.732,1.012,1.012,0,0,1-.114.456l-3.515,7.353a1.251,1.251,0,0,1-.484.551,1.312,1.312,0,0,1-.694.19,1.379,1.379,0,0,1-.693-.19,1.217,1.217,0,0,1-.5-.551L98.325,11a.965.965,0,0,1-.1-.437.926.926,0,0,1,.37-.741,1.3,1.3,0,0,1,.845-.3,1.06,1.06,0,0,1,1.007.665l2.66,5.871Zm10.7,6.251a.639.639,0,0,1,.522.247,1.028,1.028,0,0,1,.2.665,1.152,1.152,0,0,1-.7.988,6.352,6.352,0,0,1-1.463.58,6.032,6.032,0,0,1-1.558.219A4.841,4.841,0,0,1,109.9,17.86a4.736,4.736,0,0,1-1.311-3.534,5.422,5.422,0,0,1,.57-2.527,4.145,4.145,0,0,1,1.605-1.71,4.547,4.547,0,0,1,2.347-.608,4.21,4.21,0,0,1,2.185.551,3.736,3.736,0,0,1,1.444,1.558,5.17,5.17,0,0,1,.513,2.375q0,.817-.722.817h-5.605a2.989,2.989,0,0,0,.741,1.929,2.494,2.494,0,0,0,1.824.617,3.459,3.459,0,0,0,1.074-.152,10.6,10.6,0,0,0,1.054-.418A2.1,2.1,0,0,1,116.451,16.454Zm-3.287-5.3a2.039,2.039,0,0,0-1.549.608,2.871,2.871,0,0,0-.694,1.748h4.294a2.709,2.709,0,0,0-.57-1.757A1.88,1.88,0,0,0,113.164,11.153Zm7.182,7.961a1.228,1.228,0,0,1-.846-.295,1.07,1.07,0,0,1-.332-.846V6.631A1.04,1.04,0,0,1,119.5,5.8a1.253,1.253,0,0,1,.846-.285,1.29,1.29,0,0,1,.855.285,1.026,1.026,0,0,1,.342.836V17.974a1.055,1.055,0,0,1-.342.846A1.264,1.264,0,0,1,120.346,19.114Zm17.043-2.09q1.14,0,1.14.969,0,1.007-1.14,1.007h-6.422q-1.159,0-1.159-1.007,0-.969,1.159-.969h1.976V8.36l-1.824,1.121a.983.983,0,0,1-.475.152.837.837,0,0,1-.674-.342,1.182,1.182,0,0,1-.275-.76.953.953,0,0,1,.494-.855l2.945-1.824a2.116,2.116,0,0,1,1.083-.342,1.156,1.156,0,0,1,.855.323,1.207,1.207,0,0,1,.323.893v10.3Z" transform="translate(2630 -9008)" fill="#9eaab8"/>
      <g id="Grupo_20843" data-name="Grupo 20843" transform="translate(2618 -8706)">
        <g id="Rectángulo_18252-2" data-name="Rectángulo 18252" fill="#f3f6f9" stroke="#b9d8ee" stroke-width="1" stroke-dasharray="5 5">
          <rect width="324" height="48" rx="4" stroke="none"/>
          <rect x="0.5" y="0.5" width="323" height="47" rx="3.5" fill="none"/>
        </g>
      </g>
      <path id="Trazado_27787" data-name="Trazado 27787" d="M13.585,17.537a1.17,1.17,0,0,1,.114.494.944.944,0,0,1-.352.741,1.2,1.2,0,0,1-.807.3,1.052,1.052,0,0,1-.988-.665l-1.14-2.546H3.724l-1.14,2.546a1.078,1.078,0,0,1-.418.5,1.113,1.113,0,0,1-.589.162,1.21,1.21,0,0,1-.8-.3.935.935,0,0,1-.361-.741,1.17,1.17,0,0,1,.114-.494L5.776,6.27A1.226,1.226,0,0,1,6.3,5.691a1.511,1.511,0,0,1,1.5,0,1.226,1.226,0,0,1,.522.579ZM9.576,13.965,7.068,8.322,4.56,13.965ZM20.71,9.481a3.105,3.105,0,0,1,2.489.95,4.308,4.308,0,0,1,.817,2.869v4.674a1.11,1.11,0,0,1-.314.836,1.189,1.189,0,0,1-.864.3,1.224,1.224,0,0,1-.874-.3,1.092,1.092,0,0,1-.323-.836V13.433a2.463,2.463,0,0,0-.409-1.577,1.57,1.57,0,0,0-1.282-.494,2.168,2.168,0,0,0-1.644.646,2.4,2.4,0,0,0-.617,1.729v4.237a1.092,1.092,0,0,1-.323.836,1.224,1.224,0,0,1-.874.3,1.189,1.189,0,0,1-.865-.3,1.11,1.11,0,0,1-.314-.836V10.621a1.045,1.045,0,0,1,.323-.8,1.224,1.224,0,0,1,.874-.3,1.132,1.132,0,0,1,.807.294,1.007,1.007,0,0,1,.313.77V11.1a3.213,3.213,0,0,1,1.273-1.2A3.831,3.831,0,0,1,20.71,9.481Zm6.878,9.633a1.228,1.228,0,0,1-.845-.295,1.07,1.07,0,0,1-.333-.846V10.64a1.04,1.04,0,0,1,.333-.836,1.253,1.253,0,0,1,.845-.285,1.29,1.29,0,0,1,.855.285,1.026,1.026,0,0,1,.342.836v7.334a1.055,1.055,0,0,1-.342.846A1.264,1.264,0,0,1,27.588,19.114Zm0-11.286a1.452,1.452,0,0,1-1.026-.352,1.2,1.2,0,0,1-.38-.921,1.167,1.167,0,0,1,.38-.912,1.7,1.7,0,0,1,2.043,0,1.153,1.153,0,0,1,.389.912,1.2,1.2,0,0,1-.38.921A1.452,1.452,0,0,1,27.588,7.828ZM38.969,5.51a1.266,1.266,0,0,1,.874.3,1.017,1.017,0,0,1,.342.8V17.974a1.068,1.068,0,0,1-.323.817,1.354,1.354,0,0,1-1.71,0,1.068,1.068,0,0,1-.323-.817V17.5a2.975,2.975,0,0,1-1.206,1.216,3.641,3.641,0,0,1-1.8.437,3.851,3.851,0,0,1-2.138-.608,4.032,4.032,0,0,1-1.463-1.719,5.942,5.942,0,0,1-.522-2.556,5.754,5.754,0,0,1,.522-2.527,3.836,3.836,0,0,1,3.6-2.261,3.719,3.719,0,0,1,1.786.418,2.9,2.9,0,0,1,1.2,1.178v-4.5a1.007,1.007,0,0,1,.313-.77A1.185,1.185,0,0,1,38.969,5.51Zm-3.515,11.8a2.112,2.112,0,0,0,1.758-.779,3.505,3.505,0,0,0,.617-2.223,3.464,3.464,0,0,0-.617-2.214,2.1,2.1,0,0,0-1.739-.77,2.163,2.163,0,0,0-1.767.76,3.352,3.352,0,0,0-.627,2.185,3.55,3.55,0,0,0,.627,2.242A2.1,2.1,0,0,0,35.454,17.309ZM46.645,9.481a3.87,3.87,0,0,1,2.878.96,4.017,4.017,0,0,1,.941,2.917v4.636a1.072,1.072,0,0,1-.3.808,1.151,1.151,0,0,1-.836.294,1.112,1.112,0,0,1-.808-.3,1.061,1.061,0,0,1-.313-.8v-.418a2.479,2.479,0,0,1-1.016,1.159,3.049,3.049,0,0,1-1.605.418,3.728,3.728,0,0,1-1.691-.38,3.008,3.008,0,0,1-1.2-1.045,2.64,2.64,0,0,1-.437-1.482,2.348,2.348,0,0,1,.522-1.615,3.14,3.14,0,0,1,1.7-.855,15.486,15.486,0,0,1,3.249-.266H48.2v-.437a1.945,1.945,0,0,0-.4-1.359,1.7,1.7,0,0,0-1.292-.427,4.1,4.1,0,0,0-1.121.161q-.57.162-1.349.465a1.9,1.9,0,0,1-.722.247.714.714,0,0,1-.561-.247.939.939,0,0,1-.218-.646.973.973,0,0,1,.161-.561,1.533,1.533,0,0,1,.542-.446,6.193,6.193,0,0,1,1.587-.57A8.186,8.186,0,0,1,46.645,9.481Zm-.589,7.961a2.029,2.029,0,0,0,1.549-.636,2.3,2.3,0,0,0,.6-1.644v-.4h-.342a13.107,13.107,0,0,0-1.976.114,1.918,1.918,0,0,0-1.007.4,1.016,1.016,0,0,0-.3.779,1.289,1.289,0,0,0,.427,1A1.508,1.508,0,0,0,46.056,17.442ZM60.61,5.51a1.266,1.266,0,0,1,.874.3,1.017,1.017,0,0,1,.342.8V17.974a1.068,1.068,0,0,1-.323.817,1.354,1.354,0,0,1-1.71,0,1.068,1.068,0,0,1-.323-.817V17.5a2.975,2.975,0,0,1-1.207,1.216,3.641,3.641,0,0,1-1.8.437,3.851,3.851,0,0,1-2.138-.608,4.032,4.032,0,0,1-1.463-1.719,5.942,5.942,0,0,1-.522-2.556,5.754,5.754,0,0,1,.522-2.527,3.836,3.836,0,0,1,3.6-2.261,3.719,3.719,0,0,1,1.786.418,2.9,2.9,0,0,1,1.2,1.178v-4.5a1.007,1.007,0,0,1,.313-.77A1.185,1.185,0,0,1,60.61,5.51ZM57.1,17.309a2.112,2.112,0,0,0,1.757-.779,3.505,3.505,0,0,0,.618-2.223,3.464,3.464,0,0,0-.618-2.214,2.1,2.1,0,0,0-1.738-.77,2.163,2.163,0,0,0-1.767.76,3.352,3.352,0,0,0-.627,2.185,3.55,3.55,0,0,0,.627,2.242A2.1,2.1,0,0,0,57.1,17.309Zm11.4,1.843a5.112,5.112,0,0,1-2.5-.589,4.075,4.075,0,0,1-1.662-1.691,5.361,5.361,0,0,1-.589-2.565,5.305,5.305,0,0,1,.589-2.556A4.089,4.089,0,0,1,66,10.07a5.594,5.594,0,0,1,5,0,4.03,4.03,0,0,1,1.653,1.682,5.376,5.376,0,0,1,.579,2.556,5.433,5.433,0,0,1-.579,2.565,4.017,4.017,0,0,1-1.653,1.691A5.112,5.112,0,0,1,68.495,19.152Zm-.019-1.843a2.129,2.129,0,0,0,1.767-.76,3.531,3.531,0,0,0,.608-2.242,3.538,3.538,0,0,0-.608-2.233,2.1,2.1,0,0,0-1.748-.769,2.123,2.123,0,0,0-1.757.769,3.5,3.5,0,0,0-.618,2.233,3.531,3.531,0,0,0,.608,2.242A2.108,2.108,0,0,0,68.476,17.309ZM90.649,5.51a1.107,1.107,0,0,1,.845.332,1.235,1.235,0,0,1,.313.884V17.879a1.247,1.247,0,0,1-.323.893,1.1,1.1,0,0,1-.836.342,1.087,1.087,0,0,1-.931-.437L82.783,9.652v8.227a1.294,1.294,0,0,1-.3.893,1.193,1.193,0,0,1-1.672,0,1.294,1.294,0,0,1-.3-.893V6.726a1.214,1.214,0,0,1,.323-.884,1.138,1.138,0,0,1,.855-.332,1.068,1.068,0,0,1,.912.437l6.916,8.987V6.726a1.235,1.235,0,0,1,.313-.884A1.083,1.083,0,0,1,90.649,5.51Zm5,13.6a1.228,1.228,0,0,1-.846-.295,1.07,1.07,0,0,1-.332-.846V10.64A1.04,1.04,0,0,1,94.8,9.8a1.253,1.253,0,0,1,.846-.285A1.29,1.29,0,0,1,96.5,9.8a1.026,1.026,0,0,1,.342.836v7.334a1.055,1.055,0,0,1-.342.846A1.264,1.264,0,0,1,95.646,19.114Zm0-11.286a1.452,1.452,0,0,1-1.026-.352,1.2,1.2,0,0,1-.38-.921,1.167,1.167,0,0,1,.38-.912,1.7,1.7,0,0,1,2.042,0,1.153,1.153,0,0,1,.39.912,1.2,1.2,0,0,1-.38.921A1.452,1.452,0,0,1,95.646,7.828ZM105.754,10.2a1.163,1.163,0,0,1,.409-.513.99.99,0,0,1,.561-.171,1.2,1.2,0,0,1,.788.294.917.917,0,0,1,.352.732,1.012,1.012,0,0,1-.114.456l-3.515,7.353a1.251,1.251,0,0,1-.484.551,1.312,1.312,0,0,1-.694.19,1.379,1.379,0,0,1-.693-.19,1.217,1.217,0,0,1-.5-.551L98.325,11a.965.965,0,0,1-.1-.437.926.926,0,0,1,.37-.741,1.3,1.3,0,0,1,.845-.3,1.06,1.06,0,0,1,1.007.665l2.66,5.871Zm10.7,6.251a.639.639,0,0,1,.522.247,1.028,1.028,0,0,1,.2.665,1.152,1.152,0,0,1-.7.988,6.352,6.352,0,0,1-1.463.58,6.032,6.032,0,0,1-1.558.219A4.841,4.841,0,0,1,109.9,17.86a4.736,4.736,0,0,1-1.311-3.534,5.422,5.422,0,0,1,.57-2.527,4.145,4.145,0,0,1,1.605-1.71,4.547,4.547,0,0,1,2.347-.608,4.21,4.21,0,0,1,2.185.551,3.736,3.736,0,0,1,1.444,1.558,5.17,5.17,0,0,1,.513,2.375q0,.817-.722.817h-5.605a2.989,2.989,0,0,0,.741,1.929,2.494,2.494,0,0,0,1.824.617,3.459,3.459,0,0,0,1.074-.152,10.6,10.6,0,0,0,1.054-.418A2.1,2.1,0,0,1,116.451,16.454Zm-3.287-5.3a2.039,2.039,0,0,0-1.549.608,2.871,2.871,0,0,0-.694,1.748h4.294a2.709,2.709,0,0,0-.57-1.757A1.88,1.88,0,0,0,113.164,11.153Zm7.182,7.961a1.228,1.228,0,0,1-.846-.295,1.07,1.07,0,0,1-.332-.846V6.631A1.04,1.04,0,0,1,119.5,5.8a1.253,1.253,0,0,1,.846-.285,1.29,1.29,0,0,1,.855.285,1.026,1.026,0,0,1,.342.836V17.974a1.055,1.055,0,0,1-.342.846A1.264,1.264,0,0,1,120.346,19.114Zm17.043-2.09q1.14,0,1.14.969,0,1.007-1.14,1.007h-6.422q-1.159,0-1.159-1.007,0-.969,1.159-.969h1.976V8.36l-1.824,1.121a.983.983,0,0,1-.475.152.837.837,0,0,1-.674-.342,1.182,1.182,0,0,1-.275-.76.953.953,0,0,1,.494-.855l2.945-1.824a2.116,2.116,0,0,1,1.083-.342,1.156,1.156,0,0,1,.855.323,1.207,1.207,0,0,1,.323.893v10.3Z" transform="translate(2630 -8695)" fill="#9eaab8"/>
      <g id="Rectángulo_18264" data-name="Rectángulo 18264" transform="translate(2618 -8863)" fill="#e8ebef" stroke="#b9d8ee" stroke-width="1" stroke-dasharray="5 5">
        <rect width="324" height="48" rx="4" stroke="none"/>
        <rect x="-0.5" y="-0.5" width="325" height="49" rx="4.5" fill="none"/>
      </g>
      <path id="Trazado_27784" data-name="Trazado 27784" d="M11.8,16.2a.638.638,0,0,1,.068.289.54.54,0,0,1-.2.425.689.689,0,0,1-.467.17.6.6,0,0,1-.6-.408L9.4,13.923H2.992L1.768,16.677a.6.6,0,0,1-.6.408A.7.7,0,0,1,.7,16.906a.555.555,0,0,1-.2-.434A.6.6,0,0,1,.561,16.2L5.423,5.389a.733.733,0,0,1,.306-.357.862.862,0,0,1,.442-.119.848.848,0,0,1,.459.128.8.8,0,0,1,.306.348ZM8.891,12.767l-2.7-6.1L3.5,12.767Zm8.891-4.25q2.975,0,2.975,3.281v4.607a.62.62,0,0,1-.68.68.708.708,0,0,1-.51-.178.66.66,0,0,1-.187-.5V11.883A2.566,2.566,0,0,0,18.93,10.2a1.791,1.791,0,0,0-1.437-.527,2.425,2.425,0,0,0-1.819.7,2.586,2.586,0,0,0-.68,1.887v4.148a.62.62,0,0,1-.68.68.708.708,0,0,1-.51-.178.66.66,0,0,1-.187-.5V9.231a.667.667,0,0,1,.187-.493.689.689,0,0,1,.51-.187.638.638,0,0,1,.484.187.661.661,0,0,1,.179.476v.867a2.788,2.788,0,0,1,1.139-1.164A3.417,3.417,0,0,1,17.782,8.517Zm6.171,8.568a.715.715,0,0,1-.5-.178.645.645,0,0,1-.2-.5V9.231a.645.645,0,0,1,.2-.5.715.715,0,0,1,.5-.179.684.684,0,0,1,.493.179.66.66,0,0,1,.187.5v7.174a.655.655,0,0,1-.187.51A.7.7,0,0,1,23.953,17.085Zm0-10.319a.933.933,0,0,1-.663-.238.82.82,0,0,1-.255-.629.8.8,0,0,1,.255-.612,1.042,1.042,0,0,1,1.326,0,.8.8,0,0,1,.255.612.82.82,0,0,1-.255.629A.933.933,0,0,1,23.953,6.766ZM33.83,4.93a.689.689,0,0,1,.51.187.645.645,0,0,1,.187.476V16.405a.667.667,0,0,1-.187.493.689.689,0,0,1-.51.187.66.66,0,0,1-.5-.187.684.684,0,0,1-.179-.493v-.918a2.732,2.732,0,0,1-1.1,1.207,3.275,3.275,0,0,1-1.691.425,3.434,3.434,0,0,1-1.921-.544,3.591,3.591,0,0,1-1.292-1.522,5.286,5.286,0,0,1-.459-2.269,5.187,5.187,0,0,1,.459-2.244,3.409,3.409,0,0,1,3.213-2.023,3.275,3.275,0,0,1,1.691.425,2.732,2.732,0,0,1,1.1,1.207V5.593a.655.655,0,0,1,.179-.485A.678.678,0,0,1,33.83,4.93Zm-3.2,11.05a2.239,2.239,0,0,0,1.861-.824,3.679,3.679,0,0,0,.655-2.338,3.642,3.642,0,0,0-.655-2.329,2.249,2.249,0,0,0-1.861-.816,2.3,2.3,0,0,0-1.878.816,3.517,3.517,0,0,0-.671,2.3,3.685,3.685,0,0,0,.671,2.354A2.268,2.268,0,0,0,30.634,15.98Zm9.809-7.463q3.111,0,3.111,3.264v4.624a.684.684,0,0,1-.179.493.638.638,0,0,1-.485.187.642.642,0,0,1-.68-.68v-.816a2.432,2.432,0,0,1-.986,1.13,2.906,2.906,0,0,1-1.53.4,3.348,3.348,0,0,1-1.471-.323,2.628,2.628,0,0,1-1.062-.9,2.227,2.227,0,0,1-.391-1.275,2.07,2.07,0,0,1,.476-1.453,2.888,2.888,0,0,1,1.564-.748,15.453,15.453,0,0,1,3.026-.23h.374v-.561a2.236,2.236,0,0,0-.417-1.5,1.71,1.71,0,0,0-1.351-.476,4.994,4.994,0,0,0-2.346.629,1.552,1.552,0,0,1-.646.289.436.436,0,0,1-.34-.153.567.567,0,0,1-.136-.391.642.642,0,0,1,.145-.417,1.693,1.693,0,0,1,.467-.365,5.47,5.47,0,0,1,1.352-.536A5.993,5.993,0,0,1,40.443,8.517Zm-.561,7.514a2.209,2.209,0,0,0,1.674-.689,2.473,2.473,0,0,0,.654-1.776v-.493H41.9a15.216,15.216,0,0,0-2.278.128,2.214,2.214,0,0,0-1.113.425,1.116,1.116,0,0,0-.332.875,1.408,1.408,0,0,0,.485,1.1A1.755,1.755,0,0,0,39.882,16.031ZM52.7,4.93a.689.689,0,0,1,.51.187.645.645,0,0,1,.187.476V16.405a.667.667,0,0,1-.187.493.689.689,0,0,1-.51.187.66.66,0,0,1-.5-.187.684.684,0,0,1-.179-.493v-.918a2.732,2.732,0,0,1-1.1,1.207,3.275,3.275,0,0,1-1.692.425,3.434,3.434,0,0,1-1.921-.544,3.591,3.591,0,0,1-1.292-1.522,5.286,5.286,0,0,1-.459-2.269,5.187,5.187,0,0,1,.459-2.244,3.409,3.409,0,0,1,3.213-2.023,3.275,3.275,0,0,1,1.692.425,2.732,2.732,0,0,1,1.1,1.207V5.593a.655.655,0,0,1,.179-.485A.678.678,0,0,1,52.7,4.93ZM49.5,15.98a2.239,2.239,0,0,0,1.862-.824,3.679,3.679,0,0,0,.654-2.338,3.642,3.642,0,0,0-.654-2.329A2.249,2.249,0,0,0,49.5,9.673a2.3,2.3,0,0,0-1.878.816,3.517,3.517,0,0,0-.672,2.3,3.685,3.685,0,0,0,.672,2.354A2.268,2.268,0,0,0,49.5,15.98Zm9.86,1.139a3.986,3.986,0,0,1-2.065-.527,3.512,3.512,0,0,1-1.377-1.5,5.049,5.049,0,0,1-.484-2.269,5.049,5.049,0,0,1,.484-2.269,3.512,3.512,0,0,1,1.377-1.5,3.986,3.986,0,0,1,2.065-.527,4.031,4.031,0,0,1,2.074.527,3.5,3.5,0,0,1,1.385,1.5,5.049,5.049,0,0,1,.485,2.269,5.049,5.049,0,0,1-.485,2.269,3.5,3.5,0,0,1-1.385,1.5A4.031,4.031,0,0,1,59.364,17.119Zm0-1.139a2.278,2.278,0,0,0,1.879-.807,3.666,3.666,0,0,0,.654-2.354,3.645,3.645,0,0,0-.663-2.338,2.533,2.533,0,0,0-3.74,0,3.645,3.645,0,0,0-.663,2.338,3.672,3.672,0,0,0,.655,2.346A2.268,2.268,0,0,0,59.364,15.98ZM78.88,4.93a.6.6,0,0,1,.476.2.762.762,0,0,1,.17.518V16.371a.739.739,0,0,1-.178.518.645.645,0,0,1-.5.2.709.709,0,0,1-.561-.289L71.23,7.361v9.01a.739.739,0,0,1-.179.518.624.624,0,0,1-.484.2.6.6,0,0,1-.476-.2.762.762,0,0,1-.17-.518V5.644a.739.739,0,0,1,.179-.518.645.645,0,0,1,.5-.2.724.724,0,0,1,.578.289l7.038,9.435V5.644a.739.739,0,0,1,.178-.518A.624.624,0,0,1,78.88,4.93Zm4.08,12.155a.715.715,0,0,1-.5-.178.645.645,0,0,1-.2-.5V9.231a.645.645,0,0,1,.2-.5.715.715,0,0,1,.5-.179.684.684,0,0,1,.493.179.66.66,0,0,1,.187.5v7.174a.655.655,0,0,1-.187.51A.7.7,0,0,1,82.96,17.085Zm0-10.319a.933.933,0,0,1-.663-.238.82.82,0,0,1-.255-.629.8.8,0,0,1,.255-.612,1.042,1.042,0,0,1,1.326,0,.8.8,0,0,1,.255.612.82.82,0,0,1-.255.629A.933.933,0,0,1,82.96,6.766Zm9.2,2.21a.621.621,0,0,1,.6-.408.7.7,0,0,1,.459.17.531.531,0,0,1,.2.425.538.538,0,0,1-.068.272l-3.315,7.14a.8.8,0,0,1-.306.348.818.818,0,0,1-.442.128.791.791,0,0,1-.425-.128.912.912,0,0,1-.323-.348l-3.3-7.14a.506.506,0,0,1-.068-.255.556.556,0,0,1,.229-.442.777.777,0,0,1,.5-.187.613.613,0,0,1,.331.1.65.65,0,0,1,.247.289l2.839,6.375Zm9.061,6.1a.419.419,0,0,1,.323.153.567.567,0,0,1,.136.391q0,.425-.595.782a5.146,5.146,0,0,1-1.292.535,5.212,5.212,0,0,1-1.326.178,4.049,4.049,0,0,1-3.035-1.139,4.307,4.307,0,0,1-1.114-3.145,4.936,4.936,0,0,1,.493-2.252,3.678,3.678,0,0,1,1.385-1.522,3.825,3.825,0,0,1,2.032-.544,3.287,3.287,0,0,1,2.567,1.054,4.1,4.1,0,0,1,.952,2.856.732.732,0,0,1-.136.493.564.564,0,0,1-.442.153H95.693Q95.846,16,98.464,16a3.248,3.248,0,0,0,1.139-.178,7.406,7.406,0,0,0,1.02-.485A1.617,1.617,0,0,1,101.218,15.079ZM98.243,9.588a2.307,2.307,0,0,0-1.743.68,3.107,3.107,0,0,0-.773,1.921h4.811a2.945,2.945,0,0,0-.629-1.929A2.11,2.11,0,0,0,98.243,9.588Zm6.205,7.5a.715.715,0,0,1-.5-.178.645.645,0,0,1-.2-.5V5.61a.645.645,0,0,1,.2-.5.715.715,0,0,1,.5-.178.692.692,0,0,1,.484.178.645.645,0,0,1,.2.5v10.8a.645.645,0,0,1-.2.5A.692.692,0,0,1,104.448,17.085Zm13.022-6.239a3.036,3.036,0,0,1,1.658,1.054,2.97,2.97,0,0,1,.57,1.853,3.072,3.072,0,0,1-1.054,2.465,4.277,4.277,0,0,1-2.873.9,6.054,6.054,0,0,1-2.117-.374,5.059,5.059,0,0,1-1.709-1.02.775.775,0,0,1-.272-.578.659.659,0,0,1,.136-.425.4.4,0,0,1,.323-.17.77.77,0,0,1,.476.187,5.824,5.824,0,0,0,1.53.918,4.443,4.443,0,0,0,1.615.289,2.806,2.806,0,0,0,1.912-.578,2.1,2.1,0,0,0,.655-1.666q0-2.193-2.754-2.193h-.9a.556.556,0,0,1-.433-.179.6.6,0,0,1-.162-.417.567.567,0,0,1,.6-.578h.629a3.137,3.137,0,0,0,2.04-.587,2.063,2.063,0,0,0,.714-1.692,1.9,1.9,0,0,0-.578-1.487,2.361,2.361,0,0,0-1.632-.519,4.15,4.15,0,0,0-1.547.3,5.724,5.724,0,0,0-1.5.91.77.77,0,0,1-.476.187.4.4,0,0,1-.323-.17.659.659,0,0,1-.136-.425.775.775,0,0,1,.272-.578,5.091,5.091,0,0,1,1.691-1.02,5.774,5.774,0,0,1,2.049-.374,3.846,3.846,0,0,1,2.592.825,2.774,2.774,0,0,1,.961,2.219,3.175,3.175,0,0,1-.519,1.811A2.885,2.885,0,0,1,117.47,10.846Z" transform="translate(2666 -8850)" fill="#9eaab8"/>
      <g id="Rectángulo_18265" data-name="Rectángulo 18265" transform="translate(2618 -8811)" fill="#f3f6f9" stroke="#b9d8ee" stroke-width="1" stroke-dasharray="5 5">
        <rect width="324" height="48" rx="4" stroke="none"/>
        <rect x="0.5" y="0.5" width="323" height="47" rx="3.5" fill="none"/>
      </g>
      <path id="Trazado_27785" data-name="Trazado 27785" d="M11.8,16.2a.638.638,0,0,1,.068.289.54.54,0,0,1-.2.425.689.689,0,0,1-.467.17.6.6,0,0,1-.6-.408L9.4,13.923H2.992L1.768,16.677a.6.6,0,0,1-.6.408A.7.7,0,0,1,.7,16.906a.555.555,0,0,1-.2-.434A.6.6,0,0,1,.561,16.2L5.423,5.389a.733.733,0,0,1,.306-.357.862.862,0,0,1,.442-.119.848.848,0,0,1,.459.128.8.8,0,0,1,.306.348ZM8.891,12.767l-2.7-6.1L3.5,12.767Zm8.891-4.25q2.975,0,2.975,3.281v4.607a.62.62,0,0,1-.68.68.708.708,0,0,1-.51-.178.66.66,0,0,1-.187-.5V11.883A2.566,2.566,0,0,0,18.93,10.2a1.791,1.791,0,0,0-1.437-.527,2.425,2.425,0,0,0-1.819.7,2.586,2.586,0,0,0-.68,1.887v4.148a.62.62,0,0,1-.68.68.708.708,0,0,1-.51-.178.66.66,0,0,1-.187-.5V9.231a.667.667,0,0,1,.187-.493.689.689,0,0,1,.51-.187.638.638,0,0,1,.484.187.661.661,0,0,1,.179.476v.867a2.788,2.788,0,0,1,1.139-1.164A3.417,3.417,0,0,1,17.782,8.517Zm6.171,8.568a.715.715,0,0,1-.5-.178.645.645,0,0,1-.2-.5V9.231a.645.645,0,0,1,.2-.5.715.715,0,0,1,.5-.179.684.684,0,0,1,.493.179.66.66,0,0,1,.187.5v7.174a.655.655,0,0,1-.187.51A.7.7,0,0,1,23.953,17.085Zm0-10.319a.933.933,0,0,1-.663-.238.82.82,0,0,1-.255-.629.8.8,0,0,1,.255-.612,1.042,1.042,0,0,1,1.326,0,.8.8,0,0,1,.255.612.82.82,0,0,1-.255.629A.933.933,0,0,1,23.953,6.766ZM33.83,4.93a.689.689,0,0,1,.51.187.645.645,0,0,1,.187.476V16.405a.667.667,0,0,1-.187.493.689.689,0,0,1-.51.187.66.66,0,0,1-.5-.187.684.684,0,0,1-.179-.493v-.918a2.732,2.732,0,0,1-1.1,1.207,3.275,3.275,0,0,1-1.691.425,3.434,3.434,0,0,1-1.921-.544,3.591,3.591,0,0,1-1.292-1.522,5.286,5.286,0,0,1-.459-2.269,5.187,5.187,0,0,1,.459-2.244,3.409,3.409,0,0,1,3.213-2.023,3.275,3.275,0,0,1,1.691.425,2.732,2.732,0,0,1,1.1,1.207V5.593a.655.655,0,0,1,.179-.485A.678.678,0,0,1,33.83,4.93Zm-3.2,11.05a2.239,2.239,0,0,0,1.861-.824,3.679,3.679,0,0,0,.655-2.338,3.642,3.642,0,0,0-.655-2.329,2.249,2.249,0,0,0-1.861-.816,2.3,2.3,0,0,0-1.878.816,3.517,3.517,0,0,0-.671,2.3,3.685,3.685,0,0,0,.671,2.354A2.268,2.268,0,0,0,30.634,15.98Zm9.809-7.463q3.111,0,3.111,3.264v4.624a.684.684,0,0,1-.179.493.638.638,0,0,1-.485.187.642.642,0,0,1-.68-.68v-.816a2.432,2.432,0,0,1-.986,1.13,2.906,2.906,0,0,1-1.53.4,3.348,3.348,0,0,1-1.471-.323,2.628,2.628,0,0,1-1.062-.9,2.227,2.227,0,0,1-.391-1.275,2.07,2.07,0,0,1,.476-1.453,2.888,2.888,0,0,1,1.564-.748,15.453,15.453,0,0,1,3.026-.23h.374v-.561a2.236,2.236,0,0,0-.417-1.5,1.71,1.71,0,0,0-1.351-.476,4.994,4.994,0,0,0-2.346.629,1.552,1.552,0,0,1-.646.289.436.436,0,0,1-.34-.153.567.567,0,0,1-.136-.391.642.642,0,0,1,.145-.417,1.693,1.693,0,0,1,.467-.365,5.47,5.47,0,0,1,1.352-.536A5.993,5.993,0,0,1,40.443,8.517Zm-.561,7.514a2.209,2.209,0,0,0,1.674-.689,2.473,2.473,0,0,0,.654-1.776v-.493H41.9a15.216,15.216,0,0,0-2.278.128,2.214,2.214,0,0,0-1.113.425,1.116,1.116,0,0,0-.332.875,1.408,1.408,0,0,0,.485,1.1A1.755,1.755,0,0,0,39.882,16.031ZM52.7,4.93a.689.689,0,0,1,.51.187.645.645,0,0,1,.187.476V16.405a.667.667,0,0,1-.187.493.689.689,0,0,1-.51.187.66.66,0,0,1-.5-.187.684.684,0,0,1-.179-.493v-.918a2.732,2.732,0,0,1-1.1,1.207,3.275,3.275,0,0,1-1.692.425,3.434,3.434,0,0,1-1.921-.544,3.591,3.591,0,0,1-1.292-1.522,5.286,5.286,0,0,1-.459-2.269,5.187,5.187,0,0,1,.459-2.244,3.409,3.409,0,0,1,3.213-2.023,3.275,3.275,0,0,1,1.692.425,2.732,2.732,0,0,1,1.1,1.207V5.593a.655.655,0,0,1,.179-.485A.678.678,0,0,1,52.7,4.93ZM49.5,15.98a2.239,2.239,0,0,0,1.862-.824,3.679,3.679,0,0,0,.654-2.338,3.642,3.642,0,0,0-.654-2.329A2.249,2.249,0,0,0,49.5,9.673a2.3,2.3,0,0,0-1.878.816,3.517,3.517,0,0,0-.672,2.3,3.685,3.685,0,0,0,.672,2.354A2.268,2.268,0,0,0,49.5,15.98Zm9.86,1.139a3.986,3.986,0,0,1-2.065-.527,3.512,3.512,0,0,1-1.377-1.5,5.049,5.049,0,0,1-.484-2.269,5.049,5.049,0,0,1,.484-2.269,3.512,3.512,0,0,1,1.377-1.5,3.986,3.986,0,0,1,2.065-.527,4.031,4.031,0,0,1,2.074.527,3.5,3.5,0,0,1,1.385,1.5,5.049,5.049,0,0,1,.485,2.269,5.049,5.049,0,0,1-.485,2.269,3.5,3.5,0,0,1-1.385,1.5A4.031,4.031,0,0,1,59.364,17.119Zm0-1.139a2.278,2.278,0,0,0,1.879-.807,3.666,3.666,0,0,0,.654-2.354,3.645,3.645,0,0,0-.663-2.338,2.533,2.533,0,0,0-3.74,0,3.645,3.645,0,0,0-.663,2.338,3.672,3.672,0,0,0,.655,2.346A2.268,2.268,0,0,0,59.364,15.98ZM78.88,4.93a.6.6,0,0,1,.476.2.762.762,0,0,1,.17.518V16.371a.739.739,0,0,1-.178.518.645.645,0,0,1-.5.2.709.709,0,0,1-.561-.289L71.23,7.361v9.01a.739.739,0,0,1-.179.518.624.624,0,0,1-.484.2.6.6,0,0,1-.476-.2.762.762,0,0,1-.17-.518V5.644a.739.739,0,0,1,.179-.518.645.645,0,0,1,.5-.2.724.724,0,0,1,.578.289l7.038,9.435V5.644a.739.739,0,0,1,.178-.518A.624.624,0,0,1,78.88,4.93Zm4.08,12.155a.715.715,0,0,1-.5-.178.645.645,0,0,1-.2-.5V9.231a.645.645,0,0,1,.2-.5.715.715,0,0,1,.5-.179.684.684,0,0,1,.493.179.66.66,0,0,1,.187.5v7.174a.655.655,0,0,1-.187.51A.7.7,0,0,1,82.96,17.085Zm0-10.319a.933.933,0,0,1-.663-.238.82.82,0,0,1-.255-.629.8.8,0,0,1,.255-.612,1.042,1.042,0,0,1,1.326,0,.8.8,0,0,1,.255.612.82.82,0,0,1-.255.629A.933.933,0,0,1,82.96,6.766Zm9.2,2.21a.621.621,0,0,1,.6-.408.7.7,0,0,1,.459.17.531.531,0,0,1,.2.425.538.538,0,0,1-.068.272l-3.315,7.14a.8.8,0,0,1-.306.348.818.818,0,0,1-.442.128.791.791,0,0,1-.425-.128.912.912,0,0,1-.323-.348l-3.3-7.14a.506.506,0,0,1-.068-.255.556.556,0,0,1,.229-.442.777.777,0,0,1,.5-.187.613.613,0,0,1,.331.1.65.65,0,0,1,.247.289l2.839,6.375Zm9.061,6.1a.419.419,0,0,1,.323.153.567.567,0,0,1,.136.391q0,.425-.595.782a5.146,5.146,0,0,1-1.292.535,5.212,5.212,0,0,1-1.326.178,4.049,4.049,0,0,1-3.035-1.139,4.307,4.307,0,0,1-1.114-3.145,4.936,4.936,0,0,1,.493-2.252,3.678,3.678,0,0,1,1.385-1.522,3.825,3.825,0,0,1,2.032-.544,3.287,3.287,0,0,1,2.567,1.054,4.1,4.1,0,0,1,.952,2.856.732.732,0,0,1-.136.493.564.564,0,0,1-.442.153H95.693Q95.846,16,98.464,16a3.248,3.248,0,0,0,1.139-.178,7.406,7.406,0,0,0,1.02-.485A1.617,1.617,0,0,1,101.218,15.079ZM98.243,9.588a2.307,2.307,0,0,0-1.743.68,3.107,3.107,0,0,0-.773,1.921h4.811a2.945,2.945,0,0,0-.629-1.929A2.11,2.11,0,0,0,98.243,9.588Zm6.205,7.5a.715.715,0,0,1-.5-.178.645.645,0,0,1-.2-.5V5.61a.645.645,0,0,1,.2-.5.715.715,0,0,1,.5-.178.692.692,0,0,1,.484.178.645.645,0,0,1,.2.5v10.8a.645.645,0,0,1-.2.5A.692.692,0,0,1,104.448,17.085Zm13.022-6.239a3.036,3.036,0,0,1,1.658,1.054,2.97,2.97,0,0,1,.57,1.853,3.072,3.072,0,0,1-1.054,2.465,4.277,4.277,0,0,1-2.873.9,6.054,6.054,0,0,1-2.117-.374,5.059,5.059,0,0,1-1.709-1.02.775.775,0,0,1-.272-.578.659.659,0,0,1,.136-.425.4.4,0,0,1,.323-.17.77.77,0,0,1,.476.187,5.824,5.824,0,0,0,1.53.918,4.443,4.443,0,0,0,1.615.289,2.806,2.806,0,0,0,1.912-.578,2.1,2.1,0,0,0,.655-1.666q0-2.193-2.754-2.193h-.9a.556.556,0,0,1-.433-.179.6.6,0,0,1-.162-.417.567.567,0,0,1,.6-.578h.629a3.137,3.137,0,0,0,2.04-.587,2.063,2.063,0,0,0,.714-1.692,1.9,1.9,0,0,0-.578-1.487,2.361,2.361,0,0,0-1.632-.519,4.15,4.15,0,0,0-1.547.3,5.724,5.724,0,0,0-1.5.91.77.77,0,0,1-.476.187.4.4,0,0,1-.323-.17.659.659,0,0,1-.136-.425.775.775,0,0,1,.272-.578,5.091,5.091,0,0,1,1.691-1.02,5.774,5.774,0,0,1,2.049-.374,3.846,3.846,0,0,1,2.592.825,2.774,2.774,0,0,1,.961,2.219,3.175,3.175,0,0,1-.519,1.811A2.885,2.885,0,0,1,117.47,10.846Z" transform="translate(2666 -8798)" fill="#9eaab8"/>
    </g>
    <g id="Grupo_20847" data-name="Grupo 20847" transform="translate(708 2702) rotate(-90)">
      <rect id="Rectángulo_3425" data-name="Rectángulo 3425" width="11" height="48" transform="translate(48) rotate(90)" fill="#007bc7" opacity="0.24"/>
      <path id="Trazado_4669" data-name="Trazado 4669" d="M0,48V0" transform="translate(47.999 11.249) rotate(90)" fill="none" stroke="#007bc7" stroke-width="1" stroke-dasharray="5 2"/>
      <path id="Trazado_4670" data-name="Trazado 4670" d="M0,48V0" transform="translate(47.999) rotate(90)" fill="none" stroke="#007bc7" stroke-width="1" stroke-dasharray="5 2"/>
    </g>
    <g id="Grupo_20849" data-name="Grupo 20849" transform="translate(707 2910) rotate(-90)">
      <rect id="Rectángulo_3425-2" data-name="Rectángulo 3425" width="48" height="48" transform="translate(48) rotate(90)" fill="#007bc7" opacity="0.24"/>
      <path id="Trazado_4669-2" data-name="Trazado 4669" d="M0,48V0" transform="translate(47.999 48.001) rotate(90)" fill="none" stroke="#007bc7" stroke-width="1" stroke-dasharray="5 2"/>
      <path id="Trazado_4670-2" data-name="Trazado 4670" d="M0,48V0" transform="translate(47.999) rotate(90)" fill="none" stroke="#007bc7" stroke-width="1" stroke-dasharray="5 2"/>
    </g>
    <g id="Grupo_20848" data-name="Grupo 20848" transform="translate(708 2754) rotate(-90)">
      <rect id="Rectángulo_3425-3" data-name="Rectángulo 3425" width="24" height="48" transform="translate(48) rotate(90)" fill="#007bc7" opacity="0.24"/>
      <path id="Trazado_4669-3" data-name="Trazado 4669" d="M0,48V0" transform="translate(47.999 24) rotate(90)" fill="none" stroke="#007bc7" stroke-width="1" stroke-dasharray="5 2"/>
      <path id="Trazado_4670-3" data-name="Trazado 4670" d="M0,48V0" transform="translate(47.999) rotate(90)" fill="none" stroke="#007bc7" stroke-width="1" stroke-dasharray="5 2"/>
    </g>
    <g id="Grupo_20850" data-name="Grupo 20850" transform="translate(152.849 412.479)">
      <rect id="Rectángulo_3425-4" data-name="Rectángulo 3425" width="4" height="324" transform="translate(878.151 2341.521) rotate(90)" fill="#007bc7" opacity="0.24"/>
      <path id="Trazado_4669-4" data-name="Trazado 4669" d="M0,323.7V0" transform="translate(877.853 2345.02) rotate(90)" fill="none" stroke="#007bc7" stroke-width="1" stroke-dasharray="5 2"/>
      <path id="Trazado_4670-4" data-name="Trazado 4670" d="M0,323.7V0" transform="translate(877.853 2341.559) rotate(90)" fill="none" stroke="#007bc7" stroke-width="1" stroke-dasharray="5 2"/>
    </g>
  </g>
</svg>
