<svg xmlns="http://www.w3.org/2000/svg" width="712" height="408" viewBox="0 0 712 408">
  <defs>
    <style>
      .cls-1 {
        fill: #f3f6f9;
      }

      .cls-2, .cls-3, .cls-5, .cls-9 {
        fill: none;
      }

      .cls-2 {
        stroke: #b9d8ee;
      }

      .cls-2, .cls-3 {
        stroke-dasharray: 5;
      }

      .cls-3 {
        stroke: #b1d0e6;
      }

      .cls-4 {
        fill: #9eaab8;
      }

      .cls-6 {
        fill: #e8ebef;
      }

      .cls-7 {
        fill: #38485c;
      }

      .cls-10, .cls-8 {
        fill: #007bc7;
        opacity: 0.24;
      }

      .cls-9 {
        stroke: #007bc7;
        stroke-dasharray: 5 2;
      }

      .cls-10 {
        stroke: #707070;
      }

      .cls-11 {
        stroke: none;
      }
    </style>
  </defs>
  <g id="Grupo_18238" data-name="Grupo 18238" transform="translate(-513 -2485)">
    <path id="Trazado_23811" data-name="Trazado 23811" class="cls-1" d="M4,0H708c2.209,0,4,1.447,4,3.232V404.768c0,1.785-1.791,3.232-4,3.232H4c-2.209,0-4-1.447-4-3.232V3.232C0,1.447,1.791,0,4,0Z" transform="translate(513 2485)"/>
    <g id="Rectángulo_5365" data-name="Rectángulo 5365" class="cls-2" transform="translate(699 2525)">
      <rect class="cls-11" width="340" height="48" rx="4"/>
      <rect class="cls-5" x="0.5" y="0.5" width="339" height="47" rx="3.5"/>
    </g>
    <rect id="Rectángulo_8947" data-name="Rectángulo 8947" class="cls-3" width="340" height="48" rx="4" transform="translate(699 2711)"/>
    <path id="Trazado_23962" data-name="Trazado 23962" class="cls-4" d="M9.668,19,8.385,15.432H3.472L2.215,19H0L4.808,6.1H7.093L11.9,19ZM7.831,13.621l-1.2-3.5Q6.5,9.771,6.262,9.016T5.941,7.908a19.7,19.7,0,0,1-.694,2.364l-1.16,3.349ZM21.929,19H19.854V13.023a2.616,2.616,0,0,0-.453-1.679,1.75,1.75,0,0,0-1.437-.554,2.285,2.285,0,0,0-1.916.773,4.27,4.27,0,0,0-.606,2.593V19H13.377V9.279h1.617l.29,1.274h.105a2.876,2.876,0,0,1,1.248-1.072A4.182,4.182,0,0,1,18.431,9.1q3.5,0,3.5,3.56Zm4.939,0H24.8V9.279h2.065ZM24.68,6.7a1.144,1.144,0,0,1,.3-.853,1.182,1.182,0,0,1,.866-.3,1.156,1.156,0,0,1,.848.3A1.144,1.144,0,0,1,27,6.7a1.122,1.122,0,0,1-.3.831,1.147,1.147,0,0,1-.848.3,1.171,1.171,0,0,1-.866-.3A1.122,1.122,0,0,1,24.68,6.7ZM33.1,19.176a3.386,3.386,0,0,1-2.839-1.318,5.926,5.926,0,0,1-1.02-3.7,5.945,5.945,0,0,1,1.033-3.722A3.418,3.418,0,0,1,33.135,9.1a3.351,3.351,0,0,1,2.918,1.415h.105a12.381,12.381,0,0,1-.149-1.652V5.324h2.074V19H36.466l-.36-1.274h-.1A3.3,3.3,0,0,1,33.1,19.176Zm.554-1.67a2.248,2.248,0,0,0,1.854-.716,3.771,3.771,0,0,0,.6-2.325v-.29a4.357,4.357,0,0,0-.6-2.61,2.217,2.217,0,0,0-1.872-.773,1.9,1.9,0,0,0-1.679.883,4.527,4.527,0,0,0-.589,2.518,4.414,4.414,0,0,0,.571,2.465A1.929,1.929,0,0,0,33.653,17.506ZM47.118,19l-.413-1.354h-.07a3.982,3.982,0,0,1-1.415,1.208,4.475,4.475,0,0,1-1.828.321,3.094,3.094,0,0,1-2.237-.773,2.894,2.894,0,0,1-.8-2.188,2.57,2.57,0,0,1,1.116-2.268,6.436,6.436,0,0,1,3.4-.835l1.679-.053V12.54a1.965,1.965,0,0,0-.435-1.393,1.774,1.774,0,0,0-1.349-.461,4.665,4.665,0,0,0-1.433.22,10.811,10.811,0,0,0-1.318.519l-.668-1.477a7.189,7.189,0,0,1,1.731-.628A7.968,7.968,0,0,1,44.851,9.1a4.2,4.2,0,0,1,2.8.809,3.166,3.166,0,0,1,.945,2.54V19Zm-3.076-1.406a2.558,2.558,0,0,0,1.806-.628,2.278,2.278,0,0,0,.681-1.762v-.844l-1.248.053a4.27,4.27,0,0,0-2.123.488,1.482,1.482,0,0,0-.664,1.332,1.3,1.3,0,0,0,.387,1.006A1.661,1.661,0,0,0,44.042,17.594Zm10.714,1.582a3.386,3.386,0,0,1-2.839-1.318,5.926,5.926,0,0,1-1.02-3.7,5.945,5.945,0,0,1,1.033-3.722A3.418,3.418,0,0,1,54.791,9.1a3.351,3.351,0,0,1,2.918,1.415h.105a12.381,12.381,0,0,1-.149-1.652V5.324h2.074V19H58.122l-.36-1.274h-.1A3.3,3.3,0,0,1,54.756,19.176Zm.554-1.67a2.248,2.248,0,0,0,1.854-.716,3.771,3.771,0,0,0,.6-2.325v-.29a4.357,4.357,0,0,0-.6-2.61,2.217,2.217,0,0,0-1.872-.773,1.9,1.9,0,0,0-1.679.883,4.527,4.527,0,0,0-.589,2.518,4.414,4.414,0,0,0,.571,2.465A1.929,1.929,0,0,0,55.31,17.506Zm16-3.384a5.306,5.306,0,0,1-1.222,3.718,4.377,4.377,0,0,1-3.4,1.336,4.66,4.66,0,0,1-2.408-.615,4.062,4.062,0,0,1-1.608-1.767,6.017,6.017,0,0,1-.562-2.672,5.27,5.27,0,0,1,1.213-3.691A4.4,4.4,0,0,1,66.744,9.1a4.282,4.282,0,0,1,3.34,1.358A5.245,5.245,0,0,1,71.314,14.122Zm-7.075,0q0,3.366,2.487,3.366,2.461,0,2.461-3.366,0-3.331-2.479-3.331a2.113,2.113,0,0,0-1.885.861A4.383,4.383,0,0,0,64.239,14.122ZM86.915,19H84.841V13.023a2.616,2.616,0,0,0-.453-1.679,1.75,1.75,0,0,0-1.437-.554,2.285,2.285,0,0,0-1.916.773,4.27,4.27,0,0,0-.606,2.593V19H78.363V9.279H79.98l.29,1.274h.105a2.876,2.876,0,0,1,1.248-1.072A4.182,4.182,0,0,1,83.417,9.1q3.5,0,3.5,3.56Zm4.939,0H89.789V9.279h2.065ZM89.666,6.7a1.144,1.144,0,0,1,.3-.853,1.182,1.182,0,0,1,.866-.3,1.156,1.156,0,0,1,.848.3,1.144,1.144,0,0,1,.3.853,1.122,1.122,0,0,1-.3.831,1.147,1.147,0,0,1-.848.3,1.171,1.171,0,0,1-.866-.3A1.122,1.122,0,0,1,89.666,6.7ZM97.022,19,93.331,9.279h2.18l1.978,5.651a11.2,11.2,0,0,1,.615,2.3h.07a15.462,15.462,0,0,1,.615-2.3l1.978-5.651h2.2L99.255,19Zm11.663.176a4.7,4.7,0,0,1-3.546-1.323,5.021,5.021,0,0,1-1.279-3.643,5.509,5.509,0,0,1,1.187-3.744A4.1,4.1,0,0,1,108.308,9.1a4.006,4.006,0,0,1,3.041,1.169,4.467,4.467,0,0,1,1.116,3.217v1.116h-6.478a3.193,3.193,0,0,0,.765,2.175,2.663,2.663,0,0,0,2.03.76,7.5,7.5,0,0,0,1.6-.163,8.408,8.408,0,0,0,1.6-.541v1.679a6.342,6.342,0,0,1-1.529.51A9.378,9.378,0,0,1,108.686,19.176Zm-.378-8.508a2.075,2.075,0,0,0-1.578.624,2.974,2.974,0,0,0-.708,1.819h4.412a2.691,2.691,0,0,0-.58-1.824A1.984,1.984,0,0,0,108.308,10.668ZM116.877,19h-2.065V5.324h2.065Zm13.008,0h-2.065V10.7q0-1.485.07-2.355-.2.211-.5.466t-1.973,1.617l-1.037-1.31,3.779-2.971h1.723Z" transform="translate(715 2537)"/>
    <path id="Trazado_23958" data-name="Trazado 23958" class="cls-4" d="M9.668,19,8.385,15.432H3.472L2.215,19H0L4.808,6.1H7.093L11.9,19ZM7.831,13.621l-1.2-3.5Q6.5,9.771,6.262,9.016T5.941,7.908a19.7,19.7,0,0,1-.694,2.364l-1.16,3.349ZM21.929,19H19.854V13.023a2.616,2.616,0,0,0-.453-1.679,1.75,1.75,0,0,0-1.437-.554,2.285,2.285,0,0,0-1.916.773,4.27,4.27,0,0,0-.606,2.593V19H13.377V9.279h1.617l.29,1.274h.105a2.876,2.876,0,0,1,1.248-1.072A4.182,4.182,0,0,1,18.431,9.1q3.5,0,3.5,3.56Zm4.939,0H24.8V9.279h2.065ZM24.68,6.7a1.144,1.144,0,0,1,.3-.853,1.182,1.182,0,0,1,.866-.3,1.156,1.156,0,0,1,.848.3A1.144,1.144,0,0,1,27,6.7a1.122,1.122,0,0,1-.3.831,1.147,1.147,0,0,1-.848.3,1.171,1.171,0,0,1-.866-.3A1.122,1.122,0,0,1,24.68,6.7ZM33.1,19.176a3.386,3.386,0,0,1-2.839-1.318,5.926,5.926,0,0,1-1.02-3.7,5.945,5.945,0,0,1,1.033-3.722A3.418,3.418,0,0,1,33.135,9.1a3.351,3.351,0,0,1,2.918,1.415h.105a12.381,12.381,0,0,1-.149-1.652V5.324h2.074V19H36.466l-.36-1.274h-.1A3.3,3.3,0,0,1,33.1,19.176Zm.554-1.67a2.248,2.248,0,0,0,1.854-.716,3.771,3.771,0,0,0,.6-2.325v-.29a4.357,4.357,0,0,0-.6-2.61,2.217,2.217,0,0,0-1.872-.773,1.9,1.9,0,0,0-1.679.883,4.527,4.527,0,0,0-.589,2.518,4.414,4.414,0,0,0,.571,2.465A1.929,1.929,0,0,0,33.653,17.506ZM47.118,19l-.413-1.354h-.07a3.982,3.982,0,0,1-1.415,1.208,4.475,4.475,0,0,1-1.828.321,3.094,3.094,0,0,1-2.237-.773,2.894,2.894,0,0,1-.8-2.188,2.57,2.57,0,0,1,1.116-2.268,6.436,6.436,0,0,1,3.4-.835l1.679-.053V12.54a1.965,1.965,0,0,0-.435-1.393,1.774,1.774,0,0,0-1.349-.461,4.665,4.665,0,0,0-1.433.22,10.811,10.811,0,0,0-1.318.519l-.668-1.477a7.189,7.189,0,0,1,1.731-.628A7.968,7.968,0,0,1,44.851,9.1a4.2,4.2,0,0,1,2.8.809,3.166,3.166,0,0,1,.945,2.54V19Zm-3.076-1.406a2.558,2.558,0,0,0,1.806-.628,2.278,2.278,0,0,0,.681-1.762v-.844l-1.248.053a4.27,4.27,0,0,0-2.123.488,1.482,1.482,0,0,0-.664,1.332,1.3,1.3,0,0,0,.387,1.006A1.661,1.661,0,0,0,44.042,17.594Zm10.714,1.582a3.386,3.386,0,0,1-2.839-1.318,5.926,5.926,0,0,1-1.02-3.7,5.945,5.945,0,0,1,1.033-3.722A3.418,3.418,0,0,1,54.791,9.1a3.351,3.351,0,0,1,2.918,1.415h.105a12.381,12.381,0,0,1-.149-1.652V5.324h2.074V19H58.122l-.36-1.274h-.1A3.3,3.3,0,0,1,54.756,19.176Zm.554-1.67a2.248,2.248,0,0,0,1.854-.716,3.771,3.771,0,0,0,.6-2.325v-.29a4.357,4.357,0,0,0-.6-2.61,2.217,2.217,0,0,0-1.872-.773,1.9,1.9,0,0,0-1.679.883,4.527,4.527,0,0,0-.589,2.518,4.414,4.414,0,0,0,.571,2.465A1.929,1.929,0,0,0,55.31,17.506Zm16-3.384a5.306,5.306,0,0,1-1.222,3.718,4.377,4.377,0,0,1-3.4,1.336,4.66,4.66,0,0,1-2.408-.615,4.062,4.062,0,0,1-1.608-1.767,6.017,6.017,0,0,1-.562-2.672,5.27,5.27,0,0,1,1.213-3.691A4.4,4.4,0,0,1,66.744,9.1a4.282,4.282,0,0,1,3.34,1.358A5.245,5.245,0,0,1,71.314,14.122Zm-7.075,0q0,3.366,2.487,3.366,2.461,0,2.461-3.366,0-3.331-2.479-3.331a2.113,2.113,0,0,0-1.885.861A4.383,4.383,0,0,0,64.239,14.122ZM86.915,19H84.841V13.023a2.616,2.616,0,0,0-.453-1.679,1.75,1.75,0,0,0-1.437-.554,2.285,2.285,0,0,0-1.916.773,4.27,4.27,0,0,0-.606,2.593V19H78.363V9.279H79.98l.29,1.274h.105a2.876,2.876,0,0,1,1.248-1.072A4.182,4.182,0,0,1,83.417,9.1q3.5,0,3.5,3.56Zm4.939,0H89.789V9.279h2.065ZM89.666,6.7a1.144,1.144,0,0,1,.3-.853,1.182,1.182,0,0,1,.866-.3,1.156,1.156,0,0,1,.848.3,1.144,1.144,0,0,1,.3.853,1.122,1.122,0,0,1-.3.831,1.147,1.147,0,0,1-.848.3,1.171,1.171,0,0,1-.866-.3A1.122,1.122,0,0,1,89.666,6.7ZM97.022,19,93.331,9.279h2.18l1.978,5.651a11.2,11.2,0,0,1,.615,2.3h.07a15.462,15.462,0,0,1,.615-2.3l1.978-5.651h2.2L99.255,19Zm11.663.176a4.7,4.7,0,0,1-3.546-1.323,5.021,5.021,0,0,1-1.279-3.643,5.509,5.509,0,0,1,1.187-3.744A4.1,4.1,0,0,1,108.308,9.1a4.006,4.006,0,0,1,3.041,1.169,4.467,4.467,0,0,1,1.116,3.217v1.116h-6.478a3.193,3.193,0,0,0,.765,2.175,2.663,2.663,0,0,0,2.03.76,7.5,7.5,0,0,0,1.6-.163,8.408,8.408,0,0,0,1.6-.541v1.679a6.342,6.342,0,0,1-1.529.51A9.378,9.378,0,0,1,108.686,19.176Zm-.378-8.508a2.075,2.075,0,0,0-1.578.624,2.974,2.974,0,0,0-.708,1.819h4.412a2.691,2.691,0,0,0-.58-1.824A1.984,1.984,0,0,0,108.308,10.668ZM116.877,19h-2.065V5.324h2.065Zm13.008,0h-2.065V10.7q0-1.485.07-2.355-.2.211-.5.466t-1.973,1.617l-1.037-1.31,3.779-2.971h1.723Zm4.588-1.1a1.353,1.353,0,0,1,.334-.984,1.289,1.289,0,0,1,.967-.343,1.274,1.274,0,0,1,.976.356,1.363,1.363,0,0,1,.334.971,1.4,1.4,0,0,1-.338.989,1.476,1.476,0,0,1-1.938,0A1.4,1.4,0,0,1,134.473,17.9ZM145.107,19h-2.065V10.7q0-1.485.07-2.355-.2.211-.5.466t-1.973,1.617l-1.037-1.31,3.779-2.971h1.723Z" transform="translate(715 2723)"/>
    <rect id="Rectángulo_5365-2" data-name="Rectángulo 5365" class="cls-5" width="340" height="46" rx="4" transform="translate(699 2619)"/>
    <path id="Trazado_23960" data-name="Trazado 23960" class="cls-4" d="M8.594,17,7.453,13.828H3.086L1.969,17H0L4.273,5.531H6.3L10.578,17ZM6.961,12.219,5.891,9.109q-.117-.312-.324-.984t-.285-.984a17.509,17.509,0,0,1-.617,2.1L3.633,12.219ZM19.492,17H17.648V11.688a2.325,2.325,0,0,0-.4-1.492A1.555,1.555,0,0,0,15.969,9.7a2.031,2.031,0,0,0-1.7.688,3.8,3.8,0,0,0-.539,2.3V17H11.891V8.359h1.438l.258,1.133h.094a2.556,2.556,0,0,1,1.109-.953A3.718,3.718,0,0,1,16.383,8.2q3.109,0,3.109,3.164Zm4.391,0H22.047V8.359h1.836ZM21.938,6.07a1.017,1.017,0,0,1,.27-.758,1.05,1.05,0,0,1,.77-.266,1.028,1.028,0,0,1,.754.266A1.017,1.017,0,0,1,24,6.07a1,1,0,0,1-.27.738,1.019,1.019,0,0,1-.754.27,1.041,1.041,0,0,1-.77-.27A1,1,0,0,1,21.938,6.07Zm7.484,11.086A3.01,3.01,0,0,1,26.9,15.984a5.267,5.267,0,0,1-.906-3.289,5.284,5.284,0,0,1,.918-3.309A3.038,3.038,0,0,1,29.453,8.2a2.979,2.979,0,0,1,2.594,1.258h.094a11.005,11.005,0,0,1-.133-1.469V4.844h1.844V17H32.414l-.32-1.133h-.086A2.935,2.935,0,0,1,29.422,17.156Zm.492-1.484a2,2,0,0,0,1.648-.637,3.352,3.352,0,0,0,.531-2.066v-.258a3.873,3.873,0,0,0-.531-2.32A1.971,1.971,0,0,0,29.9,9.7a1.688,1.688,0,0,0-1.492.785,4.024,4.024,0,0,0-.523,2.238,3.923,3.923,0,0,0,.508,2.191A1.714,1.714,0,0,0,29.914,15.672ZM41.883,17l-.367-1.2h-.062A3.54,3.54,0,0,1,40.2,16.871a3.978,3.978,0,0,1-1.625.285,2.75,2.75,0,0,1-1.988-.687,2.573,2.573,0,0,1-.715-1.945,2.284,2.284,0,0,1,.992-2.016,5.721,5.721,0,0,1,3.023-.742l1.492-.047v-.461a1.747,1.747,0,0,0-.387-1.238,1.577,1.577,0,0,0-1.2-.41,4.147,4.147,0,0,0-1.273.2,9.61,9.61,0,0,0-1.172.461L36.75,8.953a6.39,6.39,0,0,1,1.539-.559A7.083,7.083,0,0,1,39.867,8.2a3.738,3.738,0,0,1,2.488.719,2.814,2.814,0,0,1,.84,2.258V17Zm-2.734-1.25a2.274,2.274,0,0,0,1.605-.559,2.025,2.025,0,0,0,.605-1.566v-.75l-1.109.047a3.8,3.8,0,0,0-1.887.434,1.317,1.317,0,0,0-.59,1.184,1.155,1.155,0,0,0,.344.895A1.477,1.477,0,0,0,39.148,15.75Zm9.523,1.406a3.01,3.01,0,0,1-2.523-1.172,5.267,5.267,0,0,1-.906-3.289,5.284,5.284,0,0,1,.918-3.309A3.038,3.038,0,0,1,48.7,8.2,2.979,2.979,0,0,1,51.3,9.461h.094a11.005,11.005,0,0,1-.133-1.469V4.844H53.1V17H51.664l-.32-1.133h-.086A2.935,2.935,0,0,1,48.672,17.156Zm.492-1.484a2,2,0,0,0,1.648-.637,3.352,3.352,0,0,0,.531-2.066v-.258a3.873,3.873,0,0,0-.531-2.32A1.971,1.971,0,0,0,49.148,9.7a1.688,1.688,0,0,0-1.492.785,4.024,4.024,0,0,0-.523,2.238,3.923,3.923,0,0,0,.508,2.191A1.714,1.714,0,0,0,49.164,15.672Zm14.227-3.008a4.716,4.716,0,0,1-1.086,3.3,3.891,3.891,0,0,1-3.023,1.188,4.143,4.143,0,0,1-2.141-.547,3.61,3.61,0,0,1-1.43-1.57,5.348,5.348,0,0,1-.5-2.375,4.684,4.684,0,0,1,1.078-3.281A3.909,3.909,0,0,1,59.328,8.2,3.807,3.807,0,0,1,62.3,9.41,4.662,4.662,0,0,1,63.391,12.664Zm-6.289,0q0,2.992,2.211,2.992,2.187,0,2.188-2.992Q61.5,9.7,59.3,9.7a1.879,1.879,0,0,0-1.676.766A3.9,3.9,0,0,0,57.1,12.664ZM77.258,17H75.414V11.688a2.325,2.325,0,0,0-.4-1.492A1.555,1.555,0,0,0,73.734,9.7a2.031,2.031,0,0,0-1.7.688,3.8,3.8,0,0,0-.539,2.3V17H69.656V8.359h1.438l.258,1.133h.094a2.556,2.556,0,0,1,1.109-.953A3.718,3.718,0,0,1,74.148,8.2q3.109,0,3.109,3.164Zm4.391,0H79.813V8.359h1.836ZM79.7,6.07a1.017,1.017,0,0,1,.27-.758,1.05,1.05,0,0,1,.77-.266,1.028,1.028,0,0,1,.754.266,1.017,1.017,0,0,1,.27.758,1,1,0,0,1-.27.738,1.019,1.019,0,0,1-.754.27,1.041,1.041,0,0,1-.77-.27A1,1,0,0,1,79.7,6.07ZM86.242,17,82.961,8.359H84.9l1.758,5.023A9.954,9.954,0,0,1,87.2,15.43h.063a13.744,13.744,0,0,1,.547-2.047L89.57,8.359h1.953L88.227,17Zm10.367.156a4.18,4.18,0,0,1-3.152-1.176,4.463,4.463,0,0,1-1.137-3.238,4.9,4.9,0,0,1,1.055-3.328,3.643,3.643,0,0,1,2.9-1.211,3.561,3.561,0,0,1,2.7,1.039,3.97,3.97,0,0,1,.992,2.859v.992H94.211a2.838,2.838,0,0,0,.68,1.934,2.367,2.367,0,0,0,1.8.676,6.662,6.662,0,0,0,1.426-.145,7.474,7.474,0,0,0,1.418-.48V16.57a5.637,5.637,0,0,1-1.359.453A8.336,8.336,0,0,1,96.609,17.156Zm-.336-7.562a1.845,1.845,0,0,0-1.4.555,2.644,2.644,0,0,0-.629,1.617h3.922a2.392,2.392,0,0,0-.516-1.621A1.764,1.764,0,0,0,96.273,9.594ZM103.891,17h-1.836V4.844h1.836ZM117.8,17h-7.742V15.609l2.945-2.961a25.053,25.053,0,0,0,1.73-1.895,4.523,4.523,0,0,0,.621-1.051,2.833,2.833,0,0,0,.2-1.055,1.608,1.608,0,0,0-.465-1.219,1.781,1.781,0,0,0-1.285-.445,3.426,3.426,0,0,0-1.27.242,5.942,5.942,0,0,0-1.418.875l-.992-1.211a6.4,6.4,0,0,1,1.852-1.141,5.42,5.42,0,0,1,1.914-.336,3.766,3.766,0,0,1,2.555.832,2.81,2.81,0,0,1,.961,2.238,3.927,3.927,0,0,1-.277,1.469,5.969,5.969,0,0,1-.852,1.434,19.461,19.461,0,0,1-1.91,2L112.383,15.3v.078H117.8Zm1.727-.977a1.2,1.2,0,0,1,.3-.875,1.146,1.146,0,0,1,.859-.3,1.132,1.132,0,0,1,.867.316,1.211,1.211,0,0,1,.3.863,1.241,1.241,0,0,1-.3.879,1.312,1.312,0,0,1-1.723,0A1.249,1.249,0,0,1,119.531,16.023Zm9.453.977h-1.836V9.625q0-1.32.063-2.094-.18.188-.441.414t-1.754,1.438l-.922-1.164,3.359-2.641h1.531Z" transform="translate(731 2631)"/>
    <g id="Rectángulo_5365-3" data-name="Rectángulo 5365" class="cls-2" transform="translate(699 2573)">
      <rect class="cls-11" width="340" height="46" rx="4"/>
      <rect class="cls-5" x="0.5" y="0.5" width="339" height="45" rx="3.5"/>
    </g>
    <rect id="Rectángulo_8948" data-name="Rectángulo 8948" class="cls-3" width="340" height="46" rx="4" transform="translate(699 2759)"/>
    <path id="Trazado_23961" data-name="Trazado 23961" class="cls-4" d="M8.75,17,7.328,13.367H2.75L1.344,17H0L4.516,5.531H5.633L10.125,17ZM6.914,12.172,5.586,8.633q-.258-.672-.531-1.648a14.8,14.8,0,0,1-.492,1.648L3.219,12.172ZM17.359,17V11.461A2.235,2.235,0,0,0,16.883,9.9a1.941,1.941,0,0,0-1.492-.516,2.461,2.461,0,0,0-1.969.727,3.668,3.668,0,0,0-.625,2.4V17H11.5V8.438h1.055l.211,1.172h.063a2.648,2.648,0,0,1,1.117-.98,3.63,3.63,0,0,1,1.6-.348,3.252,3.252,0,0,1,2.328.746,3.175,3.175,0,0,1,.781,2.387V17Zm5.258,0h-1.3V8.438h1.3ZM21.211,6.117a.861.861,0,0,1,.219-.652.81.81,0,0,1,1.086,0,.846.846,0,0,1,.227.648.859.859,0,0,1-.227.652.794.794,0,0,1-1.086,0A.877.877,0,0,1,21.211,6.117ZM31.2,15.852h-.07a3.047,3.047,0,0,1-2.687,1.3,3.179,3.179,0,0,1-2.613-1.148,5.055,5.055,0,0,1-.934-3.266,5.141,5.141,0,0,1,.938-3.289,3.155,3.155,0,0,1,2.609-1.172,3.114,3.114,0,0,1,2.672,1.266h.1l-.055-.617-.031-.6V4.844h1.3V17H31.367ZM28.6,16.07a2.361,2.361,0,0,0,1.926-.723,3.652,3.652,0,0,0,.6-2.332v-.273a4.3,4.3,0,0,0-.605-2.6,2.3,2.3,0,0,0-1.934-.777,1.985,1.985,0,0,0-1.746.887,4.409,4.409,0,0,0-.605,2.5,4.227,4.227,0,0,0,.6,2.477A2.037,2.037,0,0,0,28.6,16.07ZM40.438,17l-.258-1.219h-.062a3.6,3.6,0,0,1-1.277,1.09,3.893,3.893,0,0,1-1.59.285,2.86,2.86,0,0,1-2-.656,2.394,2.394,0,0,1-.723-1.867q0-2.594,4.148-2.719l1.453-.047v-.531A2.171,2.171,0,0,0,39.7,9.848a1.783,1.783,0,0,0-1.387-.48,5.65,5.65,0,0,0-2.422.656l-.4-.992a6.094,6.094,0,0,1,1.387-.539,6.006,6.006,0,0,1,1.512-.2,3.262,3.262,0,0,1,2.27.68,2.837,2.837,0,0,1,.738,2.18V17Zm-2.93-.914a2.632,2.632,0,0,0,1.9-.664,2.457,2.457,0,0,0,.691-1.859v-.773l-1.3.055a4.717,4.717,0,0,0-2.23.48,1.449,1.449,0,0,0-.684,1.324,1.336,1.336,0,0,0,.426,1.07A1.767,1.767,0,0,0,37.508,16.086ZM49.9,15.852h-.07a3.047,3.047,0,0,1-2.687,1.3,3.179,3.179,0,0,1-2.613-1.148,5.055,5.055,0,0,1-.934-3.266,5.141,5.141,0,0,1,.938-3.289,3.155,3.155,0,0,1,2.609-1.172,3.114,3.114,0,0,1,2.672,1.266h.1l-.055-.617-.031-.6V4.844h1.3V17H50.07ZM47.3,16.07a2.361,2.361,0,0,0,1.926-.723,3.652,3.652,0,0,0,.6-2.332v-.273a4.3,4.3,0,0,0-.605-2.6,2.3,2.3,0,0,0-1.934-.777,1.985,1.985,0,0,0-1.746.887,4.409,4.409,0,0,0-.605,2.5,4.227,4.227,0,0,0,.6,2.477A2.037,2.037,0,0,0,47.3,16.07Zm13.961-3.359a4.724,4.724,0,0,1-1.055,3.27A3.714,3.714,0,0,1,57.3,17.156a3.86,3.86,0,0,1-2.039-.539,3.558,3.558,0,0,1-1.375-1.547,5.391,5.391,0,0,1-.484-2.359,4.716,4.716,0,0,1,1.047-3.262,3.7,3.7,0,0,1,2.906-1.168,3.622,3.622,0,0,1,2.855,1.2A4.7,4.7,0,0,1,61.266,12.711Zm-6.523,0a4.064,4.064,0,0,0,.656,2.5,2.6,2.6,0,0,0,3.863,0,4.043,4.043,0,0,0,.66-2.5,3.978,3.978,0,0,0-.66-2.48,2.32,2.32,0,0,0-1.949-.848,2.283,2.283,0,0,0-1.922.836A4.023,4.023,0,0,0,54.742,12.711ZM73.555,17V11.461A2.235,2.235,0,0,0,73.078,9.9a1.941,1.941,0,0,0-1.492-.516,2.461,2.461,0,0,0-1.969.727,3.668,3.668,0,0,0-.625,2.4V17H67.7V8.438H68.75l.211,1.172h.063a2.648,2.648,0,0,1,1.117-.98,3.63,3.63,0,0,1,1.6-.348,3.252,3.252,0,0,1,2.328.746,3.175,3.175,0,0,1,.781,2.387V17Zm5.258,0h-1.3V8.438h1.3ZM77.406,6.117a.861.861,0,0,1,.219-.652.81.81,0,0,1,1.086,0,.846.846,0,0,1,.227.648.859.859,0,0,1-.227.652.794.794,0,0,1-1.086,0A.877.877,0,0,1,77.406,6.117ZM83.438,17l-3.25-8.562h1.391l1.844,5.078a24.035,24.035,0,0,1,.734,2.313h.063a17.466,17.466,0,0,1,.543-1.715q.457-1.3,2.051-5.676H88.2L84.953,17Zm9.758.156A3.934,3.934,0,0,1,90.2,16a4.476,4.476,0,0,1-1.1-3.211A4.964,4.964,0,0,1,90.121,9.5a3.387,3.387,0,0,1,2.738-1.219A3.229,3.229,0,0,1,95.406,9.34a4.057,4.057,0,0,1,.938,2.793v.82h-5.9a3.394,3.394,0,0,0,.762,2.289,2.635,2.635,0,0,0,2.035.781,6.9,6.9,0,0,0,2.734-.578V16.6a6.863,6.863,0,0,1-1.3.426A7.31,7.31,0,0,1,93.2,17.156Zm-.352-7.789a2.118,2.118,0,0,0-1.645.672,3.1,3.1,0,0,0-.723,1.859h4.477a2.851,2.851,0,0,0-.547-1.879A1.925,1.925,0,0,0,92.844,9.367ZM99.852,17h-1.3V4.844h1.3Zm13.82,0h-7.508V15.883l3.008-3.023a22.149,22.149,0,0,0,1.813-1.984,5.065,5.065,0,0,0,.656-1.156,3.312,3.312,0,0,0,.219-1.211,1.92,1.92,0,0,0-.555-1.449,2.125,2.125,0,0,0-1.539-.535,3.87,3.87,0,0,0-1.348.234A5.372,5.372,0,0,0,107,7.609l-.687-.883a5.265,5.265,0,0,1,3.438-1.312,3.632,3.632,0,0,1,2.523.824,2.835,2.835,0,0,1,.914,2.215,4.277,4.277,0,0,1-.609,2.148,13.64,13.64,0,0,1-2.281,2.688l-2.5,2.445V15.8h5.875Z" transform="translate(731 2585)"/>
    <path id="Trazado_23957" data-name="Trazado 23957" class="cls-4" d="M8.75,17,7.328,13.367H2.75L1.344,17H0L4.516,5.531H5.633L10.125,17ZM6.914,12.172,5.586,8.633q-.258-.672-.531-1.648a14.8,14.8,0,0,1-.492,1.648L3.219,12.172ZM17.359,17V11.461A2.235,2.235,0,0,0,16.883,9.9a1.941,1.941,0,0,0-1.492-.516,2.461,2.461,0,0,0-1.969.727,3.668,3.668,0,0,0-.625,2.4V17H11.5V8.438h1.055l.211,1.172h.063a2.648,2.648,0,0,1,1.117-.98,3.63,3.63,0,0,1,1.6-.348,3.252,3.252,0,0,1,2.328.746,3.175,3.175,0,0,1,.781,2.387V17Zm5.258,0h-1.3V8.438h1.3ZM21.211,6.117a.861.861,0,0,1,.219-.652.81.81,0,0,1,1.086,0,.846.846,0,0,1,.227.648.859.859,0,0,1-.227.652.794.794,0,0,1-1.086,0A.877.877,0,0,1,21.211,6.117ZM31.2,15.852h-.07a3.047,3.047,0,0,1-2.687,1.3,3.179,3.179,0,0,1-2.613-1.148,5.055,5.055,0,0,1-.934-3.266,5.141,5.141,0,0,1,.938-3.289,3.155,3.155,0,0,1,2.609-1.172,3.114,3.114,0,0,1,2.672,1.266h.1l-.055-.617-.031-.6V4.844h1.3V17H31.367ZM28.6,16.07a2.361,2.361,0,0,0,1.926-.723,3.652,3.652,0,0,0,.6-2.332v-.273a4.3,4.3,0,0,0-.605-2.6,2.3,2.3,0,0,0-1.934-.777,1.985,1.985,0,0,0-1.746.887,4.409,4.409,0,0,0-.605,2.5,4.227,4.227,0,0,0,.6,2.477A2.037,2.037,0,0,0,28.6,16.07ZM40.438,17l-.258-1.219h-.062a3.6,3.6,0,0,1-1.277,1.09,3.893,3.893,0,0,1-1.59.285,2.86,2.86,0,0,1-2-.656,2.394,2.394,0,0,1-.723-1.867q0-2.594,4.148-2.719l1.453-.047v-.531A2.171,2.171,0,0,0,39.7,9.848a1.783,1.783,0,0,0-1.387-.48,5.65,5.65,0,0,0-2.422.656l-.4-.992a6.094,6.094,0,0,1,1.387-.539,6.006,6.006,0,0,1,1.512-.2,3.262,3.262,0,0,1,2.27.68,2.837,2.837,0,0,1,.738,2.18V17Zm-2.93-.914a2.632,2.632,0,0,0,1.9-.664,2.457,2.457,0,0,0,.691-1.859v-.773l-1.3.055a4.717,4.717,0,0,0-2.23.48,1.449,1.449,0,0,0-.684,1.324,1.336,1.336,0,0,0,.426,1.07A1.767,1.767,0,0,0,37.508,16.086ZM49.9,15.852h-.07a3.047,3.047,0,0,1-2.687,1.3,3.179,3.179,0,0,1-2.613-1.148,5.055,5.055,0,0,1-.934-3.266,5.141,5.141,0,0,1,.938-3.289,3.155,3.155,0,0,1,2.609-1.172,3.114,3.114,0,0,1,2.672,1.266h.1l-.055-.617-.031-.6V4.844h1.3V17H50.07ZM47.3,16.07a2.361,2.361,0,0,0,1.926-.723,3.652,3.652,0,0,0,.6-2.332v-.273a4.3,4.3,0,0,0-.605-2.6,2.3,2.3,0,0,0-1.934-.777,1.985,1.985,0,0,0-1.746.887,4.409,4.409,0,0,0-.605,2.5,4.227,4.227,0,0,0,.6,2.477A2.037,2.037,0,0,0,47.3,16.07Zm13.961-3.359a4.724,4.724,0,0,1-1.055,3.27A3.714,3.714,0,0,1,57.3,17.156a3.86,3.86,0,0,1-2.039-.539,3.558,3.558,0,0,1-1.375-1.547,5.391,5.391,0,0,1-.484-2.359,4.716,4.716,0,0,1,1.047-3.262,3.7,3.7,0,0,1,2.906-1.168,3.622,3.622,0,0,1,2.855,1.2A4.7,4.7,0,0,1,61.266,12.711Zm-6.523,0a4.064,4.064,0,0,0,.656,2.5,2.6,2.6,0,0,0,3.863,0,4.043,4.043,0,0,0,.66-2.5,3.978,3.978,0,0,0-.66-2.48,2.32,2.32,0,0,0-1.949-.848,2.283,2.283,0,0,0-1.922.836A4.023,4.023,0,0,0,54.742,12.711ZM73.555,17V11.461A2.235,2.235,0,0,0,73.078,9.9a1.941,1.941,0,0,0-1.492-.516,2.461,2.461,0,0,0-1.969.727,3.668,3.668,0,0,0-.625,2.4V17H67.7V8.438H68.75l.211,1.172h.063a2.648,2.648,0,0,1,1.117-.98,3.63,3.63,0,0,1,1.6-.348,3.252,3.252,0,0,1,2.328.746,3.175,3.175,0,0,1,.781,2.387V17Zm5.258,0h-1.3V8.438h1.3ZM77.406,6.117a.861.861,0,0,1,.219-.652.81.81,0,0,1,1.086,0,.846.846,0,0,1,.227.648.859.859,0,0,1-.227.652.794.794,0,0,1-1.086,0A.877.877,0,0,1,77.406,6.117ZM83.438,17l-3.25-8.562h1.391l1.844,5.078a24.035,24.035,0,0,1,.734,2.313h.063a17.466,17.466,0,0,1,.543-1.715q.457-1.3,2.051-5.676H88.2L84.953,17Zm9.758.156A3.934,3.934,0,0,1,90.2,16a4.476,4.476,0,0,1-1.1-3.211A4.964,4.964,0,0,1,90.121,9.5a3.387,3.387,0,0,1,2.738-1.219A3.229,3.229,0,0,1,95.406,9.34a4.057,4.057,0,0,1,.938,2.793v.82h-5.9a3.394,3.394,0,0,0,.762,2.289,2.635,2.635,0,0,0,2.035.781,6.9,6.9,0,0,0,2.734-.578V16.6a6.863,6.863,0,0,1-1.3.426A7.31,7.31,0,0,1,93.2,17.156Zm-.352-7.789a2.118,2.118,0,0,0-1.645.672,3.1,3.1,0,0,0-.723,1.859h4.477a2.851,2.851,0,0,0-.547-1.879A1.925,1.925,0,0,0,92.844,9.367ZM99.852,17h-1.3V4.844h1.3Zm13.82,0h-7.508V15.883l3.008-3.023a22.149,22.149,0,0,0,1.813-1.984,5.065,5.065,0,0,0,.656-1.156,3.312,3.312,0,0,0,.219-1.211,1.92,1.92,0,0,0-.555-1.449,2.125,2.125,0,0,0-1.539-.535,3.87,3.87,0,0,0-1.348.234A5.372,5.372,0,0,0,107,7.609l-.687-.883a5.265,5.265,0,0,1,3.438-1.312,3.632,3.632,0,0,1,2.523.824,2.835,2.835,0,0,1,.914,2.215,4.277,4.277,0,0,1-.609,2.148,13.64,13.64,0,0,1-2.281,2.688l-2.5,2.445V15.8h5.875Z" transform="translate(731 2771)"/>
    <rect id="Rectángulo_5365-4" data-name="Rectángulo 5365" class="cls-6" width="340" height="46" rx="4" transform="translate(699 2665)"/>
    <rect id="Rectángulo_8949" data-name="Rectángulo 8949" class="cls-3" width="340" height="46" rx="4" transform="translate(699 2805)"/>
    <path id="Trazado_23959" data-name="Trazado 23959" class="cls-4" d="M8.75,17,7.328,13.367H2.75L1.344,17H0L4.516,5.531H5.633L10.125,17ZM6.914,12.172,5.586,8.633q-.258-.672-.531-1.648a14.8,14.8,0,0,1-.492,1.648L3.219,12.172ZM17.359,17V11.461A2.235,2.235,0,0,0,16.883,9.9a1.941,1.941,0,0,0-1.492-.516,2.461,2.461,0,0,0-1.969.727,3.668,3.668,0,0,0-.625,2.4V17H11.5V8.438h1.055l.211,1.172h.063a2.648,2.648,0,0,1,1.117-.98,3.63,3.63,0,0,1,1.6-.348,3.252,3.252,0,0,1,2.328.746,3.175,3.175,0,0,1,.781,2.387V17Zm5.258,0h-1.3V8.438h1.3ZM21.211,6.117a.861.861,0,0,1,.219-.652.81.81,0,0,1,1.086,0,.846.846,0,0,1,.227.648.859.859,0,0,1-.227.652.794.794,0,0,1-1.086,0A.877.877,0,0,1,21.211,6.117ZM31.2,15.852h-.07a3.047,3.047,0,0,1-2.687,1.3,3.179,3.179,0,0,1-2.613-1.148,5.055,5.055,0,0,1-.934-3.266,5.141,5.141,0,0,1,.938-3.289,3.155,3.155,0,0,1,2.609-1.172,3.114,3.114,0,0,1,2.672,1.266h.1l-.055-.617-.031-.6V4.844h1.3V17H31.367ZM28.6,16.07a2.361,2.361,0,0,0,1.926-.723,3.652,3.652,0,0,0,.6-2.332v-.273a4.3,4.3,0,0,0-.605-2.6,2.3,2.3,0,0,0-1.934-.777,1.985,1.985,0,0,0-1.746.887,4.409,4.409,0,0,0-.605,2.5,4.227,4.227,0,0,0,.6,2.477A2.037,2.037,0,0,0,28.6,16.07ZM40.438,17l-.258-1.219h-.062a3.6,3.6,0,0,1-1.277,1.09,3.893,3.893,0,0,1-1.59.285,2.86,2.86,0,0,1-2-.656,2.394,2.394,0,0,1-.723-1.867q0-2.594,4.148-2.719l1.453-.047v-.531A2.171,2.171,0,0,0,39.7,9.848a1.783,1.783,0,0,0-1.387-.48,5.65,5.65,0,0,0-2.422.656l-.4-.992a6.094,6.094,0,0,1,1.387-.539,6.006,6.006,0,0,1,1.512-.2,3.262,3.262,0,0,1,2.27.68,2.837,2.837,0,0,1,.738,2.18V17Zm-2.93-.914a2.632,2.632,0,0,0,1.9-.664,2.457,2.457,0,0,0,.691-1.859v-.773l-1.3.055a4.717,4.717,0,0,0-2.23.48,1.449,1.449,0,0,0-.684,1.324,1.336,1.336,0,0,0,.426,1.07A1.767,1.767,0,0,0,37.508,16.086ZM49.9,15.852h-.07a3.047,3.047,0,0,1-2.687,1.3,3.179,3.179,0,0,1-2.613-1.148,5.055,5.055,0,0,1-.934-3.266,5.141,5.141,0,0,1,.938-3.289,3.155,3.155,0,0,1,2.609-1.172,3.114,3.114,0,0,1,2.672,1.266h.1l-.055-.617-.031-.6V4.844h1.3V17H50.07ZM47.3,16.07a2.361,2.361,0,0,0,1.926-.723,3.652,3.652,0,0,0,.6-2.332v-.273a4.3,4.3,0,0,0-.605-2.6,2.3,2.3,0,0,0-1.934-.777,1.985,1.985,0,0,0-1.746.887,4.409,4.409,0,0,0-.605,2.5,4.227,4.227,0,0,0,.6,2.477A2.037,2.037,0,0,0,47.3,16.07Zm13.961-3.359a4.724,4.724,0,0,1-1.055,3.27A3.714,3.714,0,0,1,57.3,17.156a3.86,3.86,0,0,1-2.039-.539,3.558,3.558,0,0,1-1.375-1.547,5.391,5.391,0,0,1-.484-2.359,4.716,4.716,0,0,1,1.047-3.262,3.7,3.7,0,0,1,2.906-1.168,3.622,3.622,0,0,1,2.855,1.2A4.7,4.7,0,0,1,61.266,12.711Zm-6.523,0a4.064,4.064,0,0,0,.656,2.5,2.6,2.6,0,0,0,3.863,0,4.043,4.043,0,0,0,.66-2.5,3.978,3.978,0,0,0-.66-2.48,2.32,2.32,0,0,0-1.949-.848,2.283,2.283,0,0,0-1.922.836A4.023,4.023,0,0,0,54.742,12.711ZM73.555,17V11.461A2.235,2.235,0,0,0,73.078,9.9a1.941,1.941,0,0,0-1.492-.516,2.461,2.461,0,0,0-1.969.727,3.668,3.668,0,0,0-.625,2.4V17H67.7V8.438H68.75l.211,1.172h.063a2.648,2.648,0,0,1,1.117-.98,3.63,3.63,0,0,1,1.6-.348,3.252,3.252,0,0,1,2.328.746,3.175,3.175,0,0,1,.781,2.387V17Zm5.258,0h-1.3V8.438h1.3ZM77.406,6.117a.861.861,0,0,1,.219-.652.81.81,0,0,1,1.086,0,.846.846,0,0,1,.227.648.859.859,0,0,1-.227.652.794.794,0,0,1-1.086,0A.877.877,0,0,1,77.406,6.117ZM83.438,17l-3.25-8.562h1.391l1.844,5.078a24.035,24.035,0,0,1,.734,2.313h.063a17.466,17.466,0,0,1,.543-1.715q.457-1.3,2.051-5.676H88.2L84.953,17Zm9.758.156A3.934,3.934,0,0,1,90.2,16a4.476,4.476,0,0,1-1.1-3.211A4.964,4.964,0,0,1,90.121,9.5a3.387,3.387,0,0,1,2.738-1.219A3.229,3.229,0,0,1,95.406,9.34a4.057,4.057,0,0,1,.938,2.793v.82h-5.9a3.394,3.394,0,0,0,.762,2.289,2.635,2.635,0,0,0,2.035.781,6.9,6.9,0,0,0,2.734-.578V16.6a6.863,6.863,0,0,1-1.3.426A7.31,7.31,0,0,1,93.2,17.156Zm-.352-7.789a2.118,2.118,0,0,0-1.645.672,3.1,3.1,0,0,0-.723,1.859h4.477a2.851,2.851,0,0,0-.547-1.879A1.925,1.925,0,0,0,92.844,9.367ZM99.852,17h-1.3V4.844h1.3Zm13.391-8.734a2.6,2.6,0,0,1-.613,1.789,3.07,3.07,0,0,1-1.738.93v.063a3.269,3.269,0,0,1,2.039.875,2.575,2.575,0,0,1,.664,1.844,2.991,2.991,0,0,1-1.133,2.512,5.152,5.152,0,0,1-3.219.879,9.328,9.328,0,0,1-1.66-.137,5.682,5.682,0,0,1-1.465-.48V15.3a7.481,7.481,0,0,0,3.172.75q2.961,0,2.961-2.32,0-2.078-3.266-2.078h-1.125V10.539H109a3.434,3.434,0,0,0,2.117-.59,1.935,1.935,0,0,0,.781-1.637A1.613,1.613,0,0,0,111.324,7a2.366,2.366,0,0,0-1.559-.477,4.809,4.809,0,0,0-1.414.2,6.328,6.328,0,0,0-1.516.75L106.18,6.6A5.471,5.471,0,0,1,107.8,5.73a5.892,5.892,0,0,1,1.934-.316,3.951,3.951,0,0,1,2.586.762A2.565,2.565,0,0,1,113.242,8.266Z" transform="translate(747 2677)"/>
    <path id="Trazado_23956" data-name="Trazado 23956" class="cls-4" d="M8.75,17,7.328,13.367H2.75L1.344,17H0L4.516,5.531H5.633L10.125,17ZM6.914,12.172,5.586,8.633q-.258-.672-.531-1.648a14.8,14.8,0,0,1-.492,1.648L3.219,12.172ZM17.359,17V11.461A2.235,2.235,0,0,0,16.883,9.9a1.941,1.941,0,0,0-1.492-.516,2.461,2.461,0,0,0-1.969.727,3.668,3.668,0,0,0-.625,2.4V17H11.5V8.438h1.055l.211,1.172h.063a2.648,2.648,0,0,1,1.117-.98,3.63,3.63,0,0,1,1.6-.348,3.252,3.252,0,0,1,2.328.746,3.175,3.175,0,0,1,.781,2.387V17Zm5.258,0h-1.3V8.438h1.3ZM21.211,6.117a.861.861,0,0,1,.219-.652.81.81,0,0,1,1.086,0,.846.846,0,0,1,.227.648.859.859,0,0,1-.227.652.794.794,0,0,1-1.086,0A.877.877,0,0,1,21.211,6.117ZM31.2,15.852h-.07a3.047,3.047,0,0,1-2.687,1.3,3.179,3.179,0,0,1-2.613-1.148,5.055,5.055,0,0,1-.934-3.266,5.141,5.141,0,0,1,.938-3.289,3.155,3.155,0,0,1,2.609-1.172,3.114,3.114,0,0,1,2.672,1.266h.1l-.055-.617-.031-.6V4.844h1.3V17H31.367ZM28.6,16.07a2.361,2.361,0,0,0,1.926-.723,3.652,3.652,0,0,0,.6-2.332v-.273a4.3,4.3,0,0,0-.605-2.6,2.3,2.3,0,0,0-1.934-.777,1.985,1.985,0,0,0-1.746.887,4.409,4.409,0,0,0-.605,2.5,4.227,4.227,0,0,0,.6,2.477A2.037,2.037,0,0,0,28.6,16.07ZM40.438,17l-.258-1.219h-.062a3.6,3.6,0,0,1-1.277,1.09,3.893,3.893,0,0,1-1.59.285,2.86,2.86,0,0,1-2-.656,2.394,2.394,0,0,1-.723-1.867q0-2.594,4.148-2.719l1.453-.047v-.531A2.171,2.171,0,0,0,39.7,9.848a1.783,1.783,0,0,0-1.387-.48,5.65,5.65,0,0,0-2.422.656l-.4-.992a6.094,6.094,0,0,1,1.387-.539,6.006,6.006,0,0,1,1.512-.2,3.262,3.262,0,0,1,2.27.68,2.837,2.837,0,0,1,.738,2.18V17Zm-2.93-.914a2.632,2.632,0,0,0,1.9-.664,2.457,2.457,0,0,0,.691-1.859v-.773l-1.3.055a4.717,4.717,0,0,0-2.23.48,1.449,1.449,0,0,0-.684,1.324,1.336,1.336,0,0,0,.426,1.07A1.767,1.767,0,0,0,37.508,16.086ZM49.9,15.852h-.07a3.047,3.047,0,0,1-2.687,1.3,3.179,3.179,0,0,1-2.613-1.148,5.055,5.055,0,0,1-.934-3.266,5.141,5.141,0,0,1,.938-3.289,3.155,3.155,0,0,1,2.609-1.172,3.114,3.114,0,0,1,2.672,1.266h.1l-.055-.617-.031-.6V4.844h1.3V17H50.07ZM47.3,16.07a2.361,2.361,0,0,0,1.926-.723,3.652,3.652,0,0,0,.6-2.332v-.273a4.3,4.3,0,0,0-.605-2.6,2.3,2.3,0,0,0-1.934-.777,1.985,1.985,0,0,0-1.746.887,4.409,4.409,0,0,0-.605,2.5,4.227,4.227,0,0,0,.6,2.477A2.037,2.037,0,0,0,47.3,16.07Zm13.961-3.359a4.724,4.724,0,0,1-1.055,3.27A3.714,3.714,0,0,1,57.3,17.156a3.86,3.86,0,0,1-2.039-.539,3.558,3.558,0,0,1-1.375-1.547,5.391,5.391,0,0,1-.484-2.359,4.716,4.716,0,0,1,1.047-3.262,3.7,3.7,0,0,1,2.906-1.168,3.622,3.622,0,0,1,2.855,1.2A4.7,4.7,0,0,1,61.266,12.711Zm-6.523,0a4.064,4.064,0,0,0,.656,2.5,2.6,2.6,0,0,0,3.863,0,4.043,4.043,0,0,0,.66-2.5,3.978,3.978,0,0,0-.66-2.48,2.32,2.32,0,0,0-1.949-.848,2.283,2.283,0,0,0-1.922.836A4.023,4.023,0,0,0,54.742,12.711ZM73.555,17V11.461A2.235,2.235,0,0,0,73.078,9.9a1.941,1.941,0,0,0-1.492-.516,2.461,2.461,0,0,0-1.969.727,3.668,3.668,0,0,0-.625,2.4V17H67.7V8.438H68.75l.211,1.172h.063a2.648,2.648,0,0,1,1.117-.98,3.63,3.63,0,0,1,1.6-.348,3.252,3.252,0,0,1,2.328.746,3.175,3.175,0,0,1,.781,2.387V17Zm5.258,0h-1.3V8.438h1.3ZM77.406,6.117a.861.861,0,0,1,.219-.652.81.81,0,0,1,1.086,0,.846.846,0,0,1,.227.648.859.859,0,0,1-.227.652.794.794,0,0,1-1.086,0A.877.877,0,0,1,77.406,6.117ZM83.438,17l-3.25-8.562h1.391l1.844,5.078a24.035,24.035,0,0,1,.734,2.313h.063a17.466,17.466,0,0,1,.543-1.715q.457-1.3,2.051-5.676H88.2L84.953,17Zm9.758.156A3.934,3.934,0,0,1,90.2,16a4.476,4.476,0,0,1-1.1-3.211A4.964,4.964,0,0,1,90.121,9.5a3.387,3.387,0,0,1,2.738-1.219A3.229,3.229,0,0,1,95.406,9.34a4.057,4.057,0,0,1,.938,2.793v.82h-5.9a3.394,3.394,0,0,0,.762,2.289,2.635,2.635,0,0,0,2.035.781,6.9,6.9,0,0,0,2.734-.578V16.6a6.863,6.863,0,0,1-1.3.426A7.31,7.31,0,0,1,93.2,17.156Zm-.352-7.789a2.118,2.118,0,0,0-1.645.672,3.1,3.1,0,0,0-.723,1.859h4.477a2.851,2.851,0,0,0-.547-1.879A1.925,1.925,0,0,0,92.844,9.367ZM99.852,17h-1.3V4.844h1.3Zm13.391-8.734a2.6,2.6,0,0,1-.613,1.789,3.07,3.07,0,0,1-1.738.93v.063a3.269,3.269,0,0,1,2.039.875,2.575,2.575,0,0,1,.664,1.844,2.991,2.991,0,0,1-1.133,2.512,5.152,5.152,0,0,1-3.219.879,9.328,9.328,0,0,1-1.66-.137,5.682,5.682,0,0,1-1.465-.48V15.3a7.481,7.481,0,0,0,3.172.75q2.961,0,2.961-2.32,0-2.078-3.266-2.078h-1.125V10.539H109a3.434,3.434,0,0,0,2.117-.59,1.935,1.935,0,0,0,.781-1.637A1.613,1.613,0,0,0,111.324,7a2.366,2.366,0,0,0-1.559-.477,4.809,4.809,0,0,0-1.414.2,6.328,6.328,0,0,0-1.516.75L106.18,6.6A5.471,5.471,0,0,1,107.8,5.73a5.892,5.892,0,0,1,1.934-.316,3.951,3.951,0,0,1,2.586.762A2.565,2.565,0,0,1,113.242,8.266Z" transform="translate(747 2817)"/>
    <path id="Trazado_23948" data-name="Trazado 23948" class="cls-7" d="M4.8.144a3.522,3.522,0,0,1-3.056-1.48A7.383,7.383,0,0,1,.688-5.648a7.35,7.35,0,0,1,1.056-4.3A3.522,3.522,0,0,1,4.8-11.424a3.522,3.522,0,0,1,3.056,1.48,7.35,7.35,0,0,1,1.056,4.3,7.389,7.389,0,0,1-1.056,4.3A3.515,3.515,0,0,1,4.8.144Zm0-1.616a1.656,1.656,0,0,0,1.584-1,7.563,7.563,0,0,0,.5-3.176,7.5,7.5,0,0,0-.5-3.176A1.658,1.658,0,0,0,4.8-9.808a1.657,1.657,0,0,0-1.584.992,7.5,7.5,0,0,0-.5,3.168,7.563,7.563,0,0,0,.5,3.176A1.656,1.656,0,0,0,4.8-1.472ZM15.12-8.016a3.243,3.243,0,0,1,1.8.512,3.4,3.4,0,0,1,1.232,1.448,5,5,0,0,1,.44,2.152,4.845,4.845,0,0,1-.44,2.128A3.333,3.333,0,0,1,16.928-.368a3.309,3.309,0,0,1-1.808.5,3.1,3.1,0,0,1-1.488-.352A2.47,2.47,0,0,1,12.624-1.2V2.064a.83.83,0,0,1-.272.656,1.048,1.048,0,0,1-.72.24A1.037,1.037,0,0,1,10.9,2.7a.868.868,0,0,1-.28-.672V-7.04a.914.914,0,0,1,.264-.688.979.979,0,0,1,.712-.256,1.008,1.008,0,0,1,.72.256.9.9,0,0,1,.272.688v.4a2.455,2.455,0,0,1,1.016-1.016A3.121,3.121,0,0,1,15.12-8.016Zm-.528,6.592a1.793,1.793,0,0,0,1.472-.648A2.829,2.829,0,0,0,16.592-3.9a2.989,2.989,0,0,0-.528-1.888,1.766,1.766,0,0,0-1.472-.672,1.779,1.779,0,0,0-1.48.656,2.952,2.952,0,0,0-.52,1.872,2.923,2.923,0,0,0,.52,1.856A1.779,1.779,0,0,0,14.592-1.424Zm12.256-.048a.9.9,0,0,1,.288.656.885.885,0,0,1-.272.632.864.864,0,0,1-.64.28.878.878,0,0,1-.688-.336l-2.256-2.5L21.024-.24a.928.928,0,0,1-.688.32.858.858,0,0,1-.624-.272.858.858,0,0,1-.272-.624.9.9,0,0,1,.288-.656l2.336-2.544-2.208-2.4a.9.9,0,0,1-.288-.656A.85.85,0,0,1,19.84-7.7a.871.871,0,0,1,.624-.264.928.928,0,0,1,.688.32L23.28-5.312l2.128-2.336a.928.928,0,0,1,.688-.32.862.862,0,0,1,.632.264.862.862,0,0,1,.264.632.9.9,0,0,1-.288.656L24.5-4.016Z" transform="translate(1055 2578)"/>
    <path id="Trazado_23953" data-name="Trazado 23953" class="cls-7" d="M8.016-1.664q.96,0,.96.816,0,.848-.96.848H2.608q-.976,0-.976-.848,0-.816.976-.816H4.272v-7.3l-1.536.944a.827.827,0,0,1-.4.128.7.7,0,0,1-.568-.288,1,1,0,0,1-.232-.64.8.8,0,0,1,.416-.72l2.48-1.536a1.782,1.782,0,0,1,.912-.288.973.973,0,0,1,.72.272,1.016,1.016,0,0,1,.272.752v8.672Zm7.056-5.568a3.5,3.5,0,0,1,1.792.456A3.181,3.181,0,0,1,18.088-5.5a3.929,3.929,0,0,1,.44,1.88,3.855,3.855,0,0,1-.488,1.944A3.479,3.479,0,0,1,16.7-.336a3.906,3.906,0,0,1-1.944.48,3.989,3.989,0,0,1-3.3-1.448,6.474,6.474,0,0,1-1.16-4.136,8.527,8.527,0,0,1,.544-3.192,4.529,4.529,0,0,1,1.56-2.072,4.03,4.03,0,0,1,2.392-.72,5.426,5.426,0,0,1,1.832.328,4.773,4.773,0,0,1,1.56.888,1.2,1.2,0,0,1,.3.344.87.87,0,0,1,.088.408.926.926,0,0,1-.2.6.592.592,0,0,1-.472.248.831.831,0,0,1-.3-.056,2.284,2.284,0,0,1-.352-.184,4.3,4.3,0,0,0-2.368-.928,2.071,2.071,0,0,0-1.84,1.08,5.933,5.933,0,0,0-.7,3.032,2.745,2.745,0,0,1,1.1-1.144A3.241,3.241,0,0,1,15.072-7.232ZM14.64-1.488a1.83,1.83,0,0,0,1.408-.568,2.109,2.109,0,0,0,.528-1.5,2.08,2.08,0,0,0-.528-1.488A1.844,1.844,0,0,0,14.64-5.6a1.928,1.928,0,0,0-1.448.568,2.034,2.034,0,0,0-.552,1.48,2.055,2.055,0,0,0,.552,1.5A1.928,1.928,0,0,0,14.64-1.488ZM24.7-8.016a3.243,3.243,0,0,1,1.8.512,3.4,3.4,0,0,1,1.232,1.448,5,5,0,0,1,.44,2.152,4.845,4.845,0,0,1-.44,2.128A3.333,3.333,0,0,1,26.512-.368a3.309,3.309,0,0,1-1.808.5,3.1,3.1,0,0,1-1.488-.352A2.47,2.47,0,0,1,22.208-1.2V2.064a.83.83,0,0,1-.272.656,1.048,1.048,0,0,1-.72.24,1.037,1.037,0,0,1-.728-.256.868.868,0,0,1-.28-.672V-7.04a.914.914,0,0,1,.264-.688.979.979,0,0,1,.712-.256,1.008,1.008,0,0,1,.72.256.9.9,0,0,1,.272.688v.4a2.455,2.455,0,0,1,1.016-1.016A3.121,3.121,0,0,1,24.7-8.016Zm-.528,6.592a1.793,1.793,0,0,0,1.472-.648A2.829,2.829,0,0,0,26.176-3.9a2.989,2.989,0,0,0-.528-1.888,1.766,1.766,0,0,0-1.472-.672,1.779,1.779,0,0,0-1.48.656,2.952,2.952,0,0,0-.52,1.872A2.923,2.923,0,0,0,22.7-2.08,1.779,1.779,0,0,0,24.176-1.424Zm12.256-.048a.9.9,0,0,1,.288.656.885.885,0,0,1-.272.632.864.864,0,0,1-.64.28A.878.878,0,0,1,35.12-.24l-2.256-2.5L30.608-.24a.928.928,0,0,1-.688.32A.858.858,0,0,1,29.3-.192a.858.858,0,0,1-.272-.624.9.9,0,0,1,.288-.656l2.336-2.544-2.208-2.4a.9.9,0,0,1-.288-.656.85.85,0,0,1,.272-.632.871.871,0,0,1,.624-.264.928.928,0,0,1,.688.32l2.128,2.336,2.128-2.336a.928.928,0,0,1,.688-.32.862.862,0,0,1,.632.264.862.862,0,0,1,.264.632.9.9,0,0,1-.288.656l-2.208,2.4Z" transform="translate(646 2740)"/>
    <path id="Trazado_23949" data-name="Trazado 23949" class="cls-7" d="M8.016-1.664q.96,0,.96.816,0,.848-.96.848H2.608q-.976,0-.976-.848,0-.816.976-.816H4.272v-7.3l-1.536.944a.827.827,0,0,1-.4.128.7.7,0,0,1-.568-.288,1,1,0,0,1-.232-.64.8.8,0,0,1,.416-.72l2.48-1.536a1.782,1.782,0,0,1,.912-.288.973.973,0,0,1,.72.272,1.016,1.016,0,0,1,.272.752v8.672Zm7.056-5.568a3.5,3.5,0,0,1,1.792.456A3.181,3.181,0,0,1,18.088-5.5a3.929,3.929,0,0,1,.44,1.88,3.855,3.855,0,0,1-.488,1.944A3.479,3.479,0,0,1,16.7-.336a3.906,3.906,0,0,1-1.944.48,3.989,3.989,0,0,1-3.3-1.448,6.474,6.474,0,0,1-1.16-4.136,8.527,8.527,0,0,1,.544-3.192,4.529,4.529,0,0,1,1.56-2.072,4.03,4.03,0,0,1,2.392-.72,5.426,5.426,0,0,1,1.832.328,4.773,4.773,0,0,1,1.56.888,1.2,1.2,0,0,1,.3.344.87.87,0,0,1,.088.408.926.926,0,0,1-.2.6.592.592,0,0,1-.472.248.831.831,0,0,1-.3-.056,2.284,2.284,0,0,1-.352-.184,4.3,4.3,0,0,0-2.368-.928,2.071,2.071,0,0,0-1.84,1.08,5.933,5.933,0,0,0-.7,3.032,2.745,2.745,0,0,1,1.1-1.144A3.241,3.241,0,0,1,15.072-7.232ZM14.64-1.488a1.83,1.83,0,0,0,1.408-.568,2.109,2.109,0,0,0,.528-1.5,2.08,2.08,0,0,0-.528-1.488A1.844,1.844,0,0,0,14.64-5.6a1.928,1.928,0,0,0-1.448.568,2.034,2.034,0,0,0-.552,1.48,2.055,2.055,0,0,0,.552,1.5A1.928,1.928,0,0,0,14.64-1.488ZM24.7-8.016a3.243,3.243,0,0,1,1.8.512,3.4,3.4,0,0,1,1.232,1.448,5,5,0,0,1,.44,2.152,4.845,4.845,0,0,1-.44,2.128A3.333,3.333,0,0,1,26.512-.368a3.309,3.309,0,0,1-1.808.5,3.1,3.1,0,0,1-1.488-.352A2.47,2.47,0,0,1,22.208-1.2V2.064a.83.83,0,0,1-.272.656,1.048,1.048,0,0,1-.72.24,1.037,1.037,0,0,1-.728-.256.868.868,0,0,1-.28-.672V-7.04a.914.914,0,0,1,.264-.688.979.979,0,0,1,.712-.256,1.008,1.008,0,0,1,.72.256.9.9,0,0,1,.272.688v.4a2.455,2.455,0,0,1,1.016-1.016A3.121,3.121,0,0,1,24.7-8.016Zm-.528,6.592a1.793,1.793,0,0,0,1.472-.648A2.829,2.829,0,0,0,26.176-3.9a2.989,2.989,0,0,0-.528-1.888,1.766,1.766,0,0,0-1.472-.672,1.779,1.779,0,0,0-1.48.656,2.952,2.952,0,0,0-.52,1.872A2.923,2.923,0,0,0,22.7-2.08,1.779,1.779,0,0,0,24.176-1.424Zm12.256-.048a.9.9,0,0,1,.288.656.885.885,0,0,1-.272.632.864.864,0,0,1-.64.28A.878.878,0,0,1,35.12-.24l-2.256-2.5L30.608-.24a.928.928,0,0,1-.688.32A.858.858,0,0,1,29.3-.192a.858.858,0,0,1-.272-.624.9.9,0,0,1,.288-.656l2.336-2.544-2.208-2.4a.9.9,0,0,1-.288-.656.85.85,0,0,1,.272-.632.871.871,0,0,1,.624-.264.928.928,0,0,1,.688.32l2.128,2.336,2.128-2.336a.928.928,0,0,1,.688-.32.862.862,0,0,1,.632.264.862.862,0,0,1,.264.632.9.9,0,0,1-.288.656l-2.208,2.4Z" transform="translate(646 2554)"/>
    <path id="Trazado_23954" data-name="Trazado 23954" class="cls-7" d="M6.528-5.792a2.681,2.681,0,0,1,1.544.968,2.856,2.856,0,0,1,.536,1.768A2.826,2.826,0,0,1,7.536-.736a4.484,4.484,0,0,1-2.9.864,6.283,6.283,0,0,1-2-.32,4.814,4.814,0,0,1-1.632-.9A.969.969,0,0,1,.64-1.84a.926.926,0,0,1,.2-.6.592.592,0,0,1,.472-.248.711.711,0,0,1,.288.056q.128.056.352.184a6.9,6.9,0,0,0,1.28.688,3.586,3.586,0,0,0,1.328.24,2.425,2.425,0,0,0,1.568-.424A1.576,1.576,0,0,0,6.64-3.232,1.478,1.478,0,0,0,6.1-4.488,2.732,2.732,0,0,0,4.448-4.9H3.536a.688.688,0,0,1-.568-.248.88.88,0,0,1-.2-.568.871.871,0,0,1,.2-.576.7.7,0,0,1,.568-.24h.64q2.192,0,2.192-1.648A1.508,1.508,0,0,0,5.9-9.36a1.849,1.849,0,0,0-1.28-.416,4.424,4.424,0,0,0-2.5.928q-.224.128-.352.184a.711.711,0,0,1-.288.056.592.592,0,0,1-.472-.248.926.926,0,0,1-.2-.6A.87.87,0,0,1,.9-9.864a1.3,1.3,0,0,1,.28-.344A5.137,5.137,0,0,1,2.792-11.1,5.742,5.742,0,0,1,4.7-11.424a4.019,4.019,0,0,1,2.648.816,2.684,2.684,0,0,1,.984,2.176,2.917,2.917,0,0,1-.488,1.624A2.7,2.7,0,0,1,6.528-5.792ZM17.552-1.664q.96,0,.96.816,0,.848-.96.848h-6.08a.87.87,0,0,1-.656-.248.851.851,0,0,1-.24-.616,1.218,1.218,0,0,1,.368-.864l3.648-3.92A6.316,6.316,0,0,0,15.576-7a2.691,2.691,0,0,0,.312-1.224,1.492,1.492,0,0,0-.432-1.152,1.748,1.748,0,0,0-1.232-.4,3.376,3.376,0,0,0-1.272.248,6.362,6.362,0,0,0-1.24.68,1.968,1.968,0,0,1-.32.184.774.774,0,0,1-.32.072.587.587,0,0,1-.472-.256.958.958,0,0,1-.2-.608.92.92,0,0,1,.088-.416,1.068,1.068,0,0,1,.28-.336,5.545,5.545,0,0,1,1.648-.888,5.721,5.721,0,0,1,1.888-.328,3.942,3.942,0,0,1,2.632.832,2.782,2.782,0,0,1,.984,2.24A4.136,4.136,0,0,1,17.5-6.52,8.119,8.119,0,0,1,16.1-4.608L13.328-1.664ZM24.72-8.016a3.243,3.243,0,0,1,1.8.512,3.4,3.4,0,0,1,1.232,1.448,5,5,0,0,1,.44,2.152,4.845,4.845,0,0,1-.44,2.128A3.333,3.333,0,0,1,26.528-.368a3.309,3.309,0,0,1-1.808.5,3.1,3.1,0,0,1-1.488-.352A2.47,2.47,0,0,1,22.224-1.2V2.064a.83.83,0,0,1-.272.656,1.048,1.048,0,0,1-.72.24A1.037,1.037,0,0,1,20.5,2.7a.868.868,0,0,1-.28-.672V-7.04a.914.914,0,0,1,.264-.688.979.979,0,0,1,.712-.256,1.008,1.008,0,0,1,.72.256.9.9,0,0,1,.272.688v.4a2.455,2.455,0,0,1,1.016-1.016A3.121,3.121,0,0,1,24.72-8.016Zm-.528,6.592a1.793,1.793,0,0,0,1.472-.648A2.829,2.829,0,0,0,26.192-3.9a2.989,2.989,0,0,0-.528-1.888,1.766,1.766,0,0,0-1.472-.672,1.779,1.779,0,0,0-1.48.656,2.952,2.952,0,0,0-.52,1.872,2.923,2.923,0,0,0,.52,1.856A1.779,1.779,0,0,0,24.192-1.424Zm12.256-.048a.9.9,0,0,1,.288.656.885.885,0,0,1-.272.632.864.864,0,0,1-.64.28.878.878,0,0,1-.688-.336l-2.256-2.5L30.624-.24a.928.928,0,0,1-.688.32.858.858,0,0,1-.624-.272.858.858,0,0,1-.272-.624.9.9,0,0,1,.288-.656l2.336-2.544-2.208-2.4a.9.9,0,0,1-.288-.656A.85.85,0,0,1,29.44-7.7a.871.871,0,0,1,.624-.264.928.928,0,0,1,.688.32L32.88-5.312l2.128-2.336a.928.928,0,0,1,.688-.32.862.862,0,0,1,.632.264.862.862,0,0,1,.264.632.9.9,0,0,1-.288.656L34.1-4.016Z" transform="translate(646 2787)"/>
    <path id="Trazado_23950" data-name="Trazado 23950" class="cls-7" d="M6.528-5.792a2.681,2.681,0,0,1,1.544.968,2.856,2.856,0,0,1,.536,1.768A2.826,2.826,0,0,1,7.536-.736a4.484,4.484,0,0,1-2.9.864,6.283,6.283,0,0,1-2-.32,4.814,4.814,0,0,1-1.632-.9A.969.969,0,0,1,.64-1.84a.926.926,0,0,1,.2-.6.592.592,0,0,1,.472-.248.711.711,0,0,1,.288.056q.128.056.352.184a6.9,6.9,0,0,0,1.28.688,3.586,3.586,0,0,0,1.328.24,2.425,2.425,0,0,0,1.568-.424A1.576,1.576,0,0,0,6.64-3.232,1.478,1.478,0,0,0,6.1-4.488,2.732,2.732,0,0,0,4.448-4.9H3.536a.688.688,0,0,1-.568-.248.88.88,0,0,1-.2-.568.871.871,0,0,1,.2-.576.7.7,0,0,1,.568-.24h.64q2.192,0,2.192-1.648A1.508,1.508,0,0,0,5.9-9.36a1.849,1.849,0,0,0-1.28-.416,4.424,4.424,0,0,0-2.5.928q-.224.128-.352.184a.711.711,0,0,1-.288.056.592.592,0,0,1-.472-.248.926.926,0,0,1-.2-.6A.87.87,0,0,1,.9-9.864a1.3,1.3,0,0,1,.28-.344A5.137,5.137,0,0,1,2.792-11.1,5.742,5.742,0,0,1,4.7-11.424a4.019,4.019,0,0,1,2.648.816,2.684,2.684,0,0,1,.984,2.176,2.917,2.917,0,0,1-.488,1.624A2.7,2.7,0,0,1,6.528-5.792ZM17.552-1.664q.96,0,.96.816,0,.848-.96.848h-6.08a.87.87,0,0,1-.656-.248.851.851,0,0,1-.24-.616,1.218,1.218,0,0,1,.368-.864l3.648-3.92A6.316,6.316,0,0,0,15.576-7a2.691,2.691,0,0,0,.312-1.224,1.492,1.492,0,0,0-.432-1.152,1.748,1.748,0,0,0-1.232-.4,3.376,3.376,0,0,0-1.272.248,6.362,6.362,0,0,0-1.24.68,1.968,1.968,0,0,1-.32.184.774.774,0,0,1-.32.072.587.587,0,0,1-.472-.256.958.958,0,0,1-.2-.608.92.92,0,0,1,.088-.416,1.068,1.068,0,0,1,.28-.336,5.545,5.545,0,0,1,1.648-.888,5.721,5.721,0,0,1,1.888-.328,3.942,3.942,0,0,1,2.632.832,2.782,2.782,0,0,1,.984,2.24A4.136,4.136,0,0,1,17.5-6.52,8.119,8.119,0,0,1,16.1-4.608L13.328-1.664ZM24.72-8.016a3.243,3.243,0,0,1,1.8.512,3.4,3.4,0,0,1,1.232,1.448,5,5,0,0,1,.44,2.152,4.845,4.845,0,0,1-.44,2.128A3.333,3.333,0,0,1,26.528-.368a3.309,3.309,0,0,1-1.808.5,3.1,3.1,0,0,1-1.488-.352A2.47,2.47,0,0,1,22.224-1.2V2.064a.83.83,0,0,1-.272.656,1.048,1.048,0,0,1-.72.24A1.037,1.037,0,0,1,20.5,2.7a.868.868,0,0,1-.28-.672V-7.04a.914.914,0,0,1,.264-.688.979.979,0,0,1,.712-.256,1.008,1.008,0,0,1,.72.256.9.9,0,0,1,.272.688v.4a2.455,2.455,0,0,1,1.016-1.016A3.121,3.121,0,0,1,24.72-8.016Zm-.528,6.592a1.793,1.793,0,0,0,1.472-.648A2.829,2.829,0,0,0,26.192-3.9a2.989,2.989,0,0,0-.528-1.888,1.766,1.766,0,0,0-1.472-.672,1.779,1.779,0,0,0-1.48.656,2.952,2.952,0,0,0-.52,1.872,2.923,2.923,0,0,0,.52,1.856A1.779,1.779,0,0,0,24.192-1.424Zm12.256-.048a.9.9,0,0,1,.288.656.885.885,0,0,1-.272.632.864.864,0,0,1-.64.28.878.878,0,0,1-.688-.336l-2.256-2.5L30.624-.24a.928.928,0,0,1-.688.32.858.858,0,0,1-.624-.272.858.858,0,0,1-.272-.624.9.9,0,0,1,.288-.656l2.336-2.544-2.208-2.4a.9.9,0,0,1-.288-.656A.85.85,0,0,1,29.44-7.7a.871.871,0,0,1,.624-.264.928.928,0,0,1,.688.32L32.88-5.312l2.128-2.336a.928.928,0,0,1,.688-.32.862.862,0,0,1,.632.264.862.862,0,0,1,.264.632.9.9,0,0,1-.288.656L34.1-4.016Z" transform="translate(646 2601)"/>
    <path id="Trazado_23951" data-name="Trazado 23951" class="cls-7" d="M6.528-5.792a2.681,2.681,0,0,1,1.544.968,2.856,2.856,0,0,1,.536,1.768A2.826,2.826,0,0,1,7.536-.736a4.484,4.484,0,0,1-2.9.864,6.283,6.283,0,0,1-2-.32,4.814,4.814,0,0,1-1.632-.9A.969.969,0,0,1,.64-1.84a.926.926,0,0,1,.2-.6.592.592,0,0,1,.472-.248.711.711,0,0,1,.288.056q.128.056.352.184a6.9,6.9,0,0,0,1.28.688,3.586,3.586,0,0,0,1.328.24,2.425,2.425,0,0,0,1.568-.424A1.576,1.576,0,0,0,6.64-3.232,1.478,1.478,0,0,0,6.1-4.488,2.732,2.732,0,0,0,4.448-4.9H3.536a.688.688,0,0,1-.568-.248.88.88,0,0,1-.2-.568.871.871,0,0,1,.2-.576.7.7,0,0,1,.568-.24h.64q2.192,0,2.192-1.648A1.508,1.508,0,0,0,5.9-9.36a1.849,1.849,0,0,0-1.28-.416,4.424,4.424,0,0,0-2.5.928q-.224.128-.352.184a.711.711,0,0,1-.288.056.592.592,0,0,1-.472-.248.926.926,0,0,1-.2-.6A.87.87,0,0,1,.9-9.864a1.3,1.3,0,0,1,.28-.344A5.137,5.137,0,0,1,2.792-11.1,5.742,5.742,0,0,1,4.7-11.424a4.019,4.019,0,0,1,2.648.816,2.684,2.684,0,0,1,.984,2.176,2.917,2.917,0,0,1-.488,1.624A2.7,2.7,0,0,1,6.528-5.792ZM17.552-1.664q.96,0,.96.816,0,.848-.96.848h-6.08a.87.87,0,0,1-.656-.248.851.851,0,0,1-.24-.616,1.218,1.218,0,0,1,.368-.864l3.648-3.92A6.316,6.316,0,0,0,15.576-7a2.691,2.691,0,0,0,.312-1.224,1.492,1.492,0,0,0-.432-1.152,1.748,1.748,0,0,0-1.232-.4,3.376,3.376,0,0,0-1.272.248,6.362,6.362,0,0,0-1.24.68,1.968,1.968,0,0,1-.32.184.774.774,0,0,1-.32.072.587.587,0,0,1-.472-.256.958.958,0,0,1-.2-.608.92.92,0,0,1,.088-.416,1.068,1.068,0,0,1,.28-.336,5.545,5.545,0,0,1,1.648-.888,5.721,5.721,0,0,1,1.888-.328,3.942,3.942,0,0,1,2.632.832,2.782,2.782,0,0,1,.984,2.24A4.136,4.136,0,0,1,17.5-6.52,8.119,8.119,0,0,1,16.1-4.608L13.328-1.664ZM24.72-8.016a3.243,3.243,0,0,1,1.8.512,3.4,3.4,0,0,1,1.232,1.448,5,5,0,0,1,.44,2.152,4.845,4.845,0,0,1-.44,2.128A3.333,3.333,0,0,1,26.528-.368a3.309,3.309,0,0,1-1.808.5,3.1,3.1,0,0,1-1.488-.352A2.47,2.47,0,0,1,22.224-1.2V2.064a.83.83,0,0,1-.272.656,1.048,1.048,0,0,1-.72.24A1.037,1.037,0,0,1,20.5,2.7a.868.868,0,0,1-.28-.672V-7.04a.914.914,0,0,1,.264-.688.979.979,0,0,1,.712-.256,1.008,1.008,0,0,1,.72.256.9.9,0,0,1,.272.688v.4a2.455,2.455,0,0,1,1.016-1.016A3.121,3.121,0,0,1,24.72-8.016Zm-.528,6.592a1.793,1.793,0,0,0,1.472-.648A2.829,2.829,0,0,0,26.192-3.9a2.989,2.989,0,0,0-.528-1.888,1.766,1.766,0,0,0-1.472-.672,1.779,1.779,0,0,0-1.48.656,2.952,2.952,0,0,0-.52,1.872,2.923,2.923,0,0,0,.52,1.856A1.779,1.779,0,0,0,24.192-1.424Zm12.256-.048a.9.9,0,0,1,.288.656.885.885,0,0,1-.272.632.864.864,0,0,1-.64.28.878.878,0,0,1-.688-.336l-2.256-2.5L30.624-.24a.928.928,0,0,1-.688.32.858.858,0,0,1-.624-.272.858.858,0,0,1-.272-.624.9.9,0,0,1,.288-.656l2.336-2.544-2.208-2.4a.9.9,0,0,1-.288-.656A.85.85,0,0,1,29.44-7.7a.871.871,0,0,1,.624-.264.928.928,0,0,1,.688.32L32.88-5.312l2.128-2.336a.928.928,0,0,1,.688-.32.862.862,0,0,1,.632.264.862.862,0,0,1,.264.632.9.9,0,0,1-.288.656L34.1-4.016Z" transform="translate(646 2647)"/>
    <path id="Trazado_23947" data-name="Trazado 23947" class="cls-7" d="M6.528-5.792a2.681,2.681,0,0,1,1.544.968,2.856,2.856,0,0,1,.536,1.768A2.826,2.826,0,0,1,7.536-.736a4.484,4.484,0,0,1-2.9.864,6.283,6.283,0,0,1-2-.32,4.814,4.814,0,0,1-1.632-.9A.969.969,0,0,1,.64-1.84a.926.926,0,0,1,.2-.6.592.592,0,0,1,.472-.248.711.711,0,0,1,.288.056q.128.056.352.184a6.9,6.9,0,0,0,1.28.688,3.586,3.586,0,0,0,1.328.24,2.425,2.425,0,0,0,1.568-.424A1.576,1.576,0,0,0,6.64-3.232,1.478,1.478,0,0,0,6.1-4.488,2.732,2.732,0,0,0,4.448-4.9H3.536a.688.688,0,0,1-.568-.248.88.88,0,0,1-.2-.568.871.871,0,0,1,.2-.576.7.7,0,0,1,.568-.24h.64q2.192,0,2.192-1.648A1.508,1.508,0,0,0,5.9-9.36a1.849,1.849,0,0,0-1.28-.416,4.424,4.424,0,0,0-2.5.928q-.224.128-.352.184a.711.711,0,0,1-.288.056.592.592,0,0,1-.472-.248.926.926,0,0,1-.2-.6A.87.87,0,0,1,.9-9.864a1.3,1.3,0,0,1,.28-.344A5.137,5.137,0,0,1,2.792-11.1,5.742,5.742,0,0,1,4.7-11.424a4.019,4.019,0,0,1,2.648.816,2.684,2.684,0,0,1,.984,2.176,2.917,2.917,0,0,1-.488,1.624A2.7,2.7,0,0,1,6.528-5.792ZM17.552-1.664q.96,0,.96.816,0,.848-.96.848h-6.08a.87.87,0,0,1-.656-.248.851.851,0,0,1-.24-.616,1.218,1.218,0,0,1,.368-.864l3.648-3.92A6.316,6.316,0,0,0,15.576-7a2.691,2.691,0,0,0,.312-1.224,1.492,1.492,0,0,0-.432-1.152,1.748,1.748,0,0,0-1.232-.4,3.376,3.376,0,0,0-1.272.248,6.362,6.362,0,0,0-1.24.68,1.968,1.968,0,0,1-.32.184.774.774,0,0,1-.32.072.587.587,0,0,1-.472-.256.958.958,0,0,1-.2-.608.92.92,0,0,1,.088-.416,1.068,1.068,0,0,1,.28-.336,5.545,5.545,0,0,1,1.648-.888,5.721,5.721,0,0,1,1.888-.328,3.942,3.942,0,0,1,2.632.832,2.782,2.782,0,0,1,.984,2.24A4.136,4.136,0,0,1,17.5-6.52,8.119,8.119,0,0,1,16.1-4.608L13.328-1.664ZM24.72-8.016a3.243,3.243,0,0,1,1.8.512,3.4,3.4,0,0,1,1.232,1.448,5,5,0,0,1,.44,2.152,4.845,4.845,0,0,1-.44,2.128A3.333,3.333,0,0,1,26.528-.368a3.309,3.309,0,0,1-1.808.5,3.1,3.1,0,0,1-1.488-.352A2.47,2.47,0,0,1,22.224-1.2V2.064a.83.83,0,0,1-.272.656,1.048,1.048,0,0,1-.72.24A1.037,1.037,0,0,1,20.5,2.7a.868.868,0,0,1-.28-.672V-7.04a.914.914,0,0,1,.264-.688.979.979,0,0,1,.712-.256,1.008,1.008,0,0,1,.72.256.9.9,0,0,1,.272.688v.4a2.455,2.455,0,0,1,1.016-1.016A3.121,3.121,0,0,1,24.72-8.016Zm-.528,6.592a1.793,1.793,0,0,0,1.472-.648A2.829,2.829,0,0,0,26.192-3.9a2.989,2.989,0,0,0-.528-1.888,1.766,1.766,0,0,0-1.472-.672,1.779,1.779,0,0,0-1.48.656,2.952,2.952,0,0,0-.52,1.872,2.923,2.923,0,0,0,.52,1.856A1.779,1.779,0,0,0,24.192-1.424Zm12.256-.048a.9.9,0,0,1,.288.656.885.885,0,0,1-.272.632.864.864,0,0,1-.64.28.878.878,0,0,1-.688-.336l-2.256-2.5L30.624-.24a.928.928,0,0,1-.688.32.858.858,0,0,1-.624-.272.858.858,0,0,1-.272-.624.9.9,0,0,1,.288-.656l2.336-2.544-2.208-2.4a.9.9,0,0,1-.288-.656A.85.85,0,0,1,29.44-7.7a.871.871,0,0,1,.624-.264.928.928,0,0,1,.688.32L32.88-5.312l2.128-2.336a.928.928,0,0,1,.688-.32.862.862,0,0,1,.632.264.862.862,0,0,1,.264.632.9.9,0,0,1-.288.656L34.1-4.016Z" transform="translate(1055 2787)"/>
    <path id="Trazado_23955" data-name="Trazado 23955" class="cls-7" d="M8.4-3.808a1.074,1.074,0,0,1,.72.208.741.741,0,0,1,.24.592q0,.8-.96.8H7.584V-.944a1.021,1.021,0,0,1-.28.768A1,1,0,0,1,6.576.1a1,1,0,0,1-.728-.272,1.021,1.021,0,0,1-.28-.768V-2.208H1.376A.892.892,0,0,1,.7-2.456a.851.851,0,0,1-.24-.616A1.234,1.234,0,0,1,.72-3.808l4.944-7.1a1.079,1.079,0,0,1,.4-.344,1.1,1.1,0,0,1,.5-.12,1.044,1.044,0,0,1,.72.272.977.977,0,0,1,.3.768v6.528Zm-5.808,0H5.568v-4.3ZM16.544-5.792a2.733,2.733,0,0,1,1.528.992,2.864,2.864,0,0,1,.536,1.76,2.747,2.747,0,0,1-1.12,2.328,5.074,5.074,0,0,1-3.1.84,5.074,5.074,0,0,1-3.1-.84A2.747,2.747,0,0,1,10.16-3.04,2.87,2.87,0,0,1,10.7-4.808a2.68,2.68,0,0,1,1.536-.984,2.777,2.777,0,0,1-1.328-1,2.69,2.69,0,0,1-.48-1.592,2.659,2.659,0,0,1,1.056-2.224,4.626,4.626,0,0,1,2.9-.816,4.626,4.626,0,0,1,2.9.816,2.659,2.659,0,0,1,1.056,2.224,2.753,2.753,0,0,1-.48,1.616A2.584,2.584,0,0,1,16.544-5.792Zm-2.16-4.016q-2,0-2,1.632a1.529,1.529,0,0,0,.5,1.24,2.275,2.275,0,0,0,1.5.424,2.275,2.275,0,0,0,1.5-.424,1.529,1.529,0,0,0,.5-1.24Q16.384-9.808,14.384-9.808Zm0,8.32q2.288,0,2.288-1.712T14.384-4.912Q12.1-4.912,12.1-3.2T14.384-1.488ZM24.7-8.016a3.243,3.243,0,0,1,1.8.512,3.4,3.4,0,0,1,1.232,1.448,5,5,0,0,1,.44,2.152,4.845,4.845,0,0,1-.44,2.128A3.333,3.333,0,0,1,26.512-.368a3.309,3.309,0,0,1-1.808.5,3.1,3.1,0,0,1-1.488-.352A2.47,2.47,0,0,1,22.208-1.2V2.064a.83.83,0,0,1-.272.656,1.048,1.048,0,0,1-.72.24,1.037,1.037,0,0,1-.728-.256.868.868,0,0,1-.28-.672V-7.04a.914.914,0,0,1,.264-.688.979.979,0,0,1,.712-.256,1.008,1.008,0,0,1,.72.256.9.9,0,0,1,.272.688v.4a2.455,2.455,0,0,1,1.016-1.016A3.121,3.121,0,0,1,24.7-8.016Zm-.528,6.592a1.793,1.793,0,0,0,1.472-.648A2.829,2.829,0,0,0,26.176-3.9a2.989,2.989,0,0,0-.528-1.888,1.766,1.766,0,0,0-1.472-.672,1.779,1.779,0,0,0-1.48.656,2.952,2.952,0,0,0-.52,1.872A2.923,2.923,0,0,0,22.7-2.08,1.779,1.779,0,0,0,24.176-1.424Zm12.256-.048a.9.9,0,0,1,.288.656.885.885,0,0,1-.272.632.864.864,0,0,1-.64.28A.878.878,0,0,1,35.12-.24l-2.256-2.5L30.608-.24a.928.928,0,0,1-.688.32A.858.858,0,0,1,29.3-.192a.858.858,0,0,1-.272-.624.9.9,0,0,1,.288-.656l2.336-2.544-2.208-2.4a.9.9,0,0,1-.288-.656.85.85,0,0,1,.272-.632.871.871,0,0,1,.624-.264.928.928,0,0,1,.688.32l2.128,2.336,2.128-2.336a.928.928,0,0,1,.688-.32.862.862,0,0,1,.632.264.862.862,0,0,1,.264.632.9.9,0,0,1-.288.656l-2.208,2.4Z" transform="translate(646 2833)"/>
    <path id="Trazado_23952" data-name="Trazado 23952" class="cls-7" d="M8.4-3.808a1.074,1.074,0,0,1,.72.208.741.741,0,0,1,.24.592q0,.8-.96.8H7.584V-.944a1.021,1.021,0,0,1-.28.768A1,1,0,0,1,6.576.1a1,1,0,0,1-.728-.272,1.021,1.021,0,0,1-.28-.768V-2.208H1.376A.892.892,0,0,1,.7-2.456a.851.851,0,0,1-.24-.616A1.234,1.234,0,0,1,.72-3.808l4.944-7.1a1.079,1.079,0,0,1,.4-.344,1.1,1.1,0,0,1,.5-.12,1.044,1.044,0,0,1,.72.272.977.977,0,0,1,.3.768v6.528Zm-5.808,0H5.568v-4.3ZM16.544-5.792a2.733,2.733,0,0,1,1.528.992,2.864,2.864,0,0,1,.536,1.76,2.747,2.747,0,0,1-1.12,2.328,5.074,5.074,0,0,1-3.1.84,5.074,5.074,0,0,1-3.1-.84A2.747,2.747,0,0,1,10.16-3.04,2.87,2.87,0,0,1,10.7-4.808a2.68,2.68,0,0,1,1.536-.984,2.777,2.777,0,0,1-1.328-1,2.69,2.69,0,0,1-.48-1.592,2.659,2.659,0,0,1,1.056-2.224,4.626,4.626,0,0,1,2.9-.816,4.626,4.626,0,0,1,2.9.816,2.659,2.659,0,0,1,1.056,2.224,2.753,2.753,0,0,1-.48,1.616A2.584,2.584,0,0,1,16.544-5.792Zm-2.16-4.016q-2,0-2,1.632a1.529,1.529,0,0,0,.5,1.24,2.275,2.275,0,0,0,1.5.424,2.275,2.275,0,0,0,1.5-.424,1.529,1.529,0,0,0,.5-1.24Q16.384-9.808,14.384-9.808Zm0,8.32q2.288,0,2.288-1.712T14.384-4.912Q12.1-4.912,12.1-3.2T14.384-1.488ZM24.7-8.016a3.243,3.243,0,0,1,1.8.512,3.4,3.4,0,0,1,1.232,1.448,5,5,0,0,1,.44,2.152,4.845,4.845,0,0,1-.44,2.128A3.333,3.333,0,0,1,26.512-.368a3.309,3.309,0,0,1-1.808.5,3.1,3.1,0,0,1-1.488-.352A2.47,2.47,0,0,1,22.208-1.2V2.064a.83.83,0,0,1-.272.656,1.048,1.048,0,0,1-.72.24,1.037,1.037,0,0,1-.728-.256.868.868,0,0,1-.28-.672V-7.04a.914.914,0,0,1,.264-.688.979.979,0,0,1,.712-.256,1.008,1.008,0,0,1,.72.256.9.9,0,0,1,.272.688v.4a2.455,2.455,0,0,1,1.016-1.016A3.121,3.121,0,0,1,24.7-8.016Zm-.528,6.592a1.793,1.793,0,0,0,1.472-.648A2.829,2.829,0,0,0,26.176-3.9a2.989,2.989,0,0,0-.528-1.888,1.766,1.766,0,0,0-1.472-.672,1.779,1.779,0,0,0-1.48.656,2.952,2.952,0,0,0-.52,1.872A2.923,2.923,0,0,0,22.7-2.08,1.779,1.779,0,0,0,24.176-1.424Zm12.256-.048a.9.9,0,0,1,.288.656.885.885,0,0,1-.272.632.864.864,0,0,1-.64.28A.878.878,0,0,1,35.12-.24l-2.256-2.5L30.608-.24a.928.928,0,0,1-.688.32A.858.858,0,0,1,29.3-.192a.858.858,0,0,1-.272-.624.9.9,0,0,1,.288-.656l2.336-2.544-2.208-2.4a.9.9,0,0,1-.288-.656.85.85,0,0,1,.272-.632.871.871,0,0,1,.624-.264.928.928,0,0,1,.688.32l2.128,2.336,2.128-2.336a.928.928,0,0,1,.688-.32.862.862,0,0,1,.632.264.862.862,0,0,1,.264.632.9.9,0,0,1-.288.656l-2.208,2.4Z" transform="translate(646 2693)"/>
    <g id="Grupo_18088" data-name="Grupo 18088" transform="translate(144.849 323.424)">
      <rect id="Rectángulo_3425" data-name="Rectángulo 3425" class="cls-8" width="12" height="340" transform="translate(894.151 2341.878) rotate(90)"/>
      <path id="Trazado_4669" data-name="Trazado 4669" class="cls-9" d="M0,339.991V0" transform="translate(894.143 2353.822) rotate(90)"/>
      <path id="Trazado_4670" data-name="Trazado 4670" class="cls-9" d="M0,339.991V0" transform="translate(894.143 2341.878) rotate(90)"/>
    </g>
    <g id="Grupo_18151" data-name="Grupo 18151" transform="translate(144.849 230.424)">
      <g id="Rectángulo_3425-2" data-name="Rectángulo 3425" class="cls-10" transform="translate(894.151 2341.878) rotate(90)">
        <rect class="cls-11" width="1" height="340"/>
        <rect class="cls-5" x="0.5" y="0.5" height="339"/>
      </g>
      <path id="Trazado_4669-2" data-name="Trazado 4669" class="cls-9" d="M0,339.991V0" transform="translate(894.143 2342.873) rotate(90)"/>
      <path id="Trazado_4670-2" data-name="Trazado 4670" class="cls-9" d="M0,339.991V0" transform="translate(894.143 2341.878) rotate(90)"/>
    </g>
    <g id="Grupo_18150" data-name="Grupo 18150" transform="translate(144.849 357.424)">
      <rect id="Rectángulo_3425-3" data-name="Rectángulo 3425" class="cls-8" width="12" height="340" transform="translate(894.151 2341.878) rotate(90)"/>
      <path id="Trazado_4669-3" data-name="Trazado 4669" class="cls-9" d="M0,339.991V0" transform="translate(894.143 2353.822) rotate(90)"/>
      <path id="Trazado_4670-3" data-name="Trazado 4670" class="cls-9" d="M0,339.991V0" transform="translate(894.143 2341.878) rotate(90)"/>
    </g>
    <path id="Trazado_23812" data-name="Trazado 23812" class="cls-7" d="M8.016-1.664q.96,0,.96.816,0,.848-.96.848H2.608q-.976,0-.976-.848,0-.816.976-.816H4.272v-7.3l-1.536.944a.827.827,0,0,1-.4.128.7.7,0,0,1-.568-.288,1,1,0,0,1-.232-.64.8.8,0,0,1,.416-.72l2.48-1.536a1.782,1.782,0,0,1,.912-.288.973.973,0,0,1,.72.272,1.016,1.016,0,0,1,.272.752v8.672Zm9.536,0q.96,0,.96.816,0,.848-.96.848h-6.08a.87.87,0,0,1-.656-.248.851.851,0,0,1-.24-.616,1.218,1.218,0,0,1,.368-.864l3.648-3.92A6.316,6.316,0,0,0,15.576-7a2.691,2.691,0,0,0,.312-1.224,1.492,1.492,0,0,0-.432-1.152,1.748,1.748,0,0,0-1.232-.4,3.376,3.376,0,0,0-1.272.248,6.362,6.362,0,0,0-1.24.68,1.968,1.968,0,0,1-.32.184.774.774,0,0,1-.32.072.587.587,0,0,1-.472-.256.958.958,0,0,1-.2-.608.92.92,0,0,1,.088-.416,1.068,1.068,0,0,1,.28-.336,5.545,5.545,0,0,1,1.648-.888,5.721,5.721,0,0,1,1.888-.328,3.942,3.942,0,0,1,2.632.832,2.782,2.782,0,0,1,.984,2.24A4.136,4.136,0,0,1,17.5-6.52,8.119,8.119,0,0,1,16.1-4.608L13.328-1.664ZM24.72-8.016a3.243,3.243,0,0,1,1.8.512,3.4,3.4,0,0,1,1.232,1.448,5,5,0,0,1,.44,2.152,4.845,4.845,0,0,1-.44,2.128A3.333,3.333,0,0,1,26.528-.368a3.309,3.309,0,0,1-1.808.5,3.1,3.1,0,0,1-1.488-.352A2.47,2.47,0,0,1,22.224-1.2V2.064a.83.83,0,0,1-.272.656,1.048,1.048,0,0,1-.72.24A1.037,1.037,0,0,1,20.5,2.7a.868.868,0,0,1-.28-.672V-7.04a.914.914,0,0,1,.264-.688.979.979,0,0,1,.712-.256,1.008,1.008,0,0,1,.72.256.9.9,0,0,1,.272.688v.4a2.455,2.455,0,0,1,1.016-1.016A3.121,3.121,0,0,1,24.72-8.016Zm-.528,6.592a1.793,1.793,0,0,0,1.472-.648A2.829,2.829,0,0,0,26.192-3.9a2.989,2.989,0,0,0-.528-1.888,1.766,1.766,0,0,0-1.472-.672,1.779,1.779,0,0,0-1.48.656,2.952,2.952,0,0,0-.52,1.872,2.923,2.923,0,0,0,.52,1.856A1.779,1.779,0,0,0,24.192-1.424Zm12.256-.048a.9.9,0,0,1,.288.656.885.885,0,0,1-.272.632.864.864,0,0,1-.64.28.878.878,0,0,1-.688-.336l-2.256-2.5L30.624-.24a.928.928,0,0,1-.688.32.858.858,0,0,1-.624-.272.858.858,0,0,1-.272-.624.9.9,0,0,1,.288-.656l2.336-2.544-2.208-2.4a.9.9,0,0,1-.288-.656A.85.85,0,0,1,29.44-7.7a.871.871,0,0,1,.624-.264.928.928,0,0,1,.688.32L32.88-5.312l2.128-2.336a.928.928,0,0,1,.688-.32.862.862,0,0,1,.632.264.862.862,0,0,1,.264.632.9.9,0,0,1-.288.656L34.1-4.016Z" transform="translate(1053 2676.424)"/>
    <path id="Trazado_23813" data-name="Trazado 23813" class="cls-7" d="M8.016-1.664q.96,0,.96.816,0,.848-.96.848H2.608q-.976,0-.976-.848,0-.816.976-.816H4.272v-7.3l-1.536.944a.827.827,0,0,1-.4.128.7.7,0,0,1-.568-.288,1,1,0,0,1-.232-.64.8.8,0,0,1,.416-.72l2.48-1.536a1.782,1.782,0,0,1,.912-.288.973.973,0,0,1,.72.272,1.016,1.016,0,0,1,.272.752v8.672Zm9.536,0q.96,0,.96.816,0,.848-.96.848h-6.08a.87.87,0,0,1-.656-.248.851.851,0,0,1-.24-.616,1.218,1.218,0,0,1,.368-.864l3.648-3.92A6.316,6.316,0,0,0,15.576-7a2.691,2.691,0,0,0,.312-1.224,1.492,1.492,0,0,0-.432-1.152,1.748,1.748,0,0,0-1.232-.4,3.376,3.376,0,0,0-1.272.248,6.362,6.362,0,0,0-1.24.68,1.968,1.968,0,0,1-.32.184.774.774,0,0,1-.32.072.587.587,0,0,1-.472-.256.958.958,0,0,1-.2-.608.92.92,0,0,1,.088-.416,1.068,1.068,0,0,1,.28-.336,5.545,5.545,0,0,1,1.648-.888,5.721,5.721,0,0,1,1.888-.328,3.942,3.942,0,0,1,2.632.832,2.782,2.782,0,0,1,.984,2.24A4.136,4.136,0,0,1,17.5-6.52,8.119,8.119,0,0,1,16.1-4.608L13.328-1.664ZM24.72-8.016a3.243,3.243,0,0,1,1.8.512,3.4,3.4,0,0,1,1.232,1.448,5,5,0,0,1,.44,2.152,4.845,4.845,0,0,1-.44,2.128A3.333,3.333,0,0,1,26.528-.368a3.309,3.309,0,0,1-1.808.5,3.1,3.1,0,0,1-1.488-.352A2.47,2.47,0,0,1,22.224-1.2V2.064a.83.83,0,0,1-.272.656,1.048,1.048,0,0,1-.72.24A1.037,1.037,0,0,1,20.5,2.7a.868.868,0,0,1-.28-.672V-7.04a.914.914,0,0,1,.264-.688.979.979,0,0,1,.712-.256,1.008,1.008,0,0,1,.72.256.9.9,0,0,1,.272.688v.4a2.455,2.455,0,0,1,1.016-1.016A3.121,3.121,0,0,1,24.72-8.016Zm-.528,6.592a1.793,1.793,0,0,0,1.472-.648A2.829,2.829,0,0,0,26.192-3.9a2.989,2.989,0,0,0-.528-1.888,1.766,1.766,0,0,0-1.472-.672,1.779,1.779,0,0,0-1.48.656,2.952,2.952,0,0,0-.52,1.872,2.923,2.923,0,0,0,.52,1.856A1.779,1.779,0,0,0,24.192-1.424Zm12.256-.048a.9.9,0,0,1,.288.656.885.885,0,0,1-.272.632.864.864,0,0,1-.64.28.878.878,0,0,1-.688-.336l-2.256-2.5L30.624-.24a.928.928,0,0,1-.688.32.858.858,0,0,1-.624-.272.858.858,0,0,1-.272-.624.9.9,0,0,1,.288-.656l2.336-2.544-2.208-2.4a.9.9,0,0,1-.288-.656A.85.85,0,0,1,29.44-7.7a.871.871,0,0,1,.624-.264.928.928,0,0,1,.688.32L32.88-5.312l2.128-2.336a.928.928,0,0,1,.688-.32.862.862,0,0,1,.632.264.862.862,0,0,1,.264.632.9.9,0,0,1-.288.656L34.1-4.016Z" transform="translate(1053 2710.424)"/>
    <g id="Grupo_18093" data-name="Grupo 18093" transform="translate(699 2851) rotate(-90)">
      <rect id="Rectángulo_3425-4" data-name="Rectángulo 3425" class="cls-8" width="48" height="46" transform="translate(46) rotate(90)"/>
      <path id="Trazado_4669-4" data-name="Trazado 4669" class="cls-9" d="M0,46V0" transform="translate(45.999 48) rotate(90)"/>
      <path id="Trazado_4670-4" data-name="Trazado 4670" class="cls-9" d="M0,46V0" transform="translate(45.999) rotate(90)"/>
    </g>
    <g id="Grupo_18227" data-name="Grupo 18227" transform="translate(699 2711) rotate(-90)">
      <rect id="Rectángulo_3425-5" data-name="Rectángulo 3425" class="cls-8" width="48" height="46" transform="translate(46) rotate(90)"/>
      <path id="Trazado_4669-5" data-name="Trazado 4669" class="cls-9" d="M0,46V0" transform="translate(45.999 48) rotate(90)"/>
      <path id="Trazado_4670-5" data-name="Trazado 4670" class="cls-9" d="M0,46V0" transform="translate(45.999) rotate(90)"/>
    </g>
    <g id="Grupo_18152" data-name="Grupo 18152" transform="translate(699 2805) rotate(-90)">
      <rect id="Rectángulo_3425-6" data-name="Rectángulo 3425" class="cls-8" width="32" height="46" transform="translate(46) rotate(90)"/>
      <path id="Trazado_4669-6" data-name="Trazado 4669" class="cls-9" d="M0,46V0" transform="translate(45.999 32) rotate(90)"/>
      <path id="Trazado_4670-6" data-name="Trazado 4670" class="cls-9" d="M0,46V0" transform="translate(45.999) rotate(90)"/>
    </g>
    <g id="Grupo_18225" data-name="Grupo 18225" transform="translate(699 2619) rotate(-90)">
      <rect id="Rectángulo_3425-7" data-name="Rectángulo 3425" class="cls-8" width="32" height="46" transform="translate(46) rotate(90)"/>
      <path id="Trazado_4669-7" data-name="Trazado 4669" class="cls-9" d="M0,46V0" transform="translate(45.999 32) rotate(90)"/>
      <path id="Trazado_4670-7" data-name="Trazado 4670" class="cls-9" d="M0,46V0" transform="translate(45.999) rotate(90)"/>
    </g>
    <g id="Grupo_18226" data-name="Grupo 18226" transform="translate(699 2665) rotate(-90)">
      <rect id="Rectángulo_3425-8" data-name="Rectángulo 3425" class="cls-8" width="32" height="46" transform="translate(46) rotate(90)"/>
      <path id="Trazado_4669-8" data-name="Trazado 4669" class="cls-9" d="M0,46V0" transform="translate(45.999 32) rotate(90)"/>
      <path id="Trazado_4670-8" data-name="Trazado 4670" class="cls-9" d="M0,46V0" transform="translate(45.999) rotate(90)"/>
    </g>
    <g id="Grupo_18154" data-name="Grupo 18154" transform="translate(1007 2853) rotate(-90)">
      <rect id="Rectángulo_3425-9" data-name="Rectángulo 3425" class="cls-8" width="32" height="142" transform="translate(142) rotate(90)"/>
      <path id="Trazado_4669-9" data-name="Trazado 4669" class="cls-9" d="M0,142V0" transform="translate(141.996 32) rotate(90)"/>
      <path id="Trazado_4670-9" data-name="Trazado 4670" class="cls-9" d="M0,142V0" transform="translate(141.996) rotate(90)"/>
    </g>
    <g id="Grupo_18153" data-name="Grupo 18153" transform="translate(699 2759) rotate(-90)">
      <rect id="Rectángulo_3425-10" data-name="Rectángulo 3425" class="cls-8" width="16" height="48" transform="translate(48) rotate(90)"/>
      <path id="Trazado_4669-10" data-name="Trazado 4669" class="cls-9" d="M0,48V0" transform="translate(47.999 16) rotate(90)"/>
      <path id="Trazado_4670-10" data-name="Trazado 4670" class="cls-9" d="M0,48V0" transform="translate(47.999) rotate(90)"/>
    </g>
    <g id="Grupo_18224" data-name="Grupo 18224" transform="translate(699 2573) rotate(-90)">
      <rect id="Rectángulo_3425-11" data-name="Rectángulo 3425" class="cls-8" width="16" height="48" transform="translate(48) rotate(90)"/>
      <path id="Trazado_4669-11" data-name="Trazado 4669" class="cls-9" d="M0,48V0" transform="translate(47.999 16) rotate(90)"/>
      <path id="Trazado_4670-11" data-name="Trazado 4670" class="cls-9" d="M0,48V0" transform="translate(47.999) rotate(90)"/>
    </g>
  </g>
</svg>
