<svg xmlns="http://www.w3.org/2000/svg" width="712" height="404" viewBox="0 0 712 404">
  <defs>
    <style>
      .cls-1 {
        fill: #f3f6f9;
      }

      .cls-2 {
        fill: none;
      }

      .cls-3, .cls-4, .cls-8 {
        fill: #38485c;
      }

      .cls-3, .cls-5, .cls-6, .cls-7 {
        font-size: 16px;
      }

      .cls-3, .cls-5, .cls-6 {
        font-family: OpenSans, Open Sans;
      }

      .cls-5 {
        fill: #fff;
      }

      .cls-6 {
        fill: #505e70;
      }

      .cls-7 {
        fill: #007bc7;
      }

      .cls-7, .cls-8 {
        font-family: OpenSans-Semibold, Open Sans;
        font-weight: 600;
      }

      .cls-8 {
        font-size: 18px;
      }
    </style>
  </defs>
  <g id="Grupo_18237" data-name="Grupo 18237" transform="translate(-513 -1422)">
    <path id="Trazado_23851" data-name="Trazado 23851" class="cls-1" d="M4,0H708c2.209,0,4,1.433,4,3.2V400.8c0,1.767-1.791,3.2-4,3.2H4c-2.209,0-4-1.433-4-3.2V3.2C0,1.433,1.791,0,4,0Z" transform="translate(513 1422)"/>
    <g id="V1-Lista-Columna" transform="translate(715 1462)">
      <g id="V1-Listas-Celdas-Nivel-2" transform="translate(0 278)">
        <rect id="Rectángulo_5365" data-name="Rectángulo 5365" class="cls-2" width="308" height="46" rx="4"/>
        <text id="Anidado_Nivel_2.3" data-name="Anidado Nivel 2.3" class="cls-3" transform="translate(32 12)"><tspan x="0" y="17">Anidado Nivel 2.3</tspan></text>
      </g>
      <g id="V1-Listas-Celdas-Nivel-2-2" data-name="V1-Listas-Celdas-Nivel-2" transform="translate(0 232)">
        <rect id="Rectángulo_5365-2" data-name="Rectángulo 5365" class="cls-2" width="308" height="46" rx="4"/>
        <text id="Anidado_Nivel_2.2" data-name="Anidado Nivel 2.2" class="cls-3" transform="translate(32 12)"><tspan x="0" y="17">Anidado Nivel 2.2</tspan></text>
      </g>
      <g id="V1-Listas-Celdas-Nivel-3" transform="translate(0 186)">
        <rect id="Rectángulo_5365-3" data-name="Rectángulo 5365" class="cls-4" width="308" height="46" rx="4"/>
        <text id="Anidado_Nivel_3.1" data-name="Anidado Nivel 3.1" class="cls-5" transform="translate(48 12)"><tspan x="0" y="17">Anidado Nivel 3.1</tspan></text>
      </g>
      <g id="V1-Listas-Celdas-Nivel-3-2" data-name="V1-Listas-Celdas-Nivel-3" transform="translate(0 140)">
        <rect id="Rectángulo_5365-4" data-name="Rectángulo 5365" class="cls-2" width="308" height="46" rx="4"/>
        <text id="Anidado_Nivel_3" data-name="Anidado Nivel 3" class="cls-6" transform="translate(48 12)"><tspan x="0" y="17">Anidado Nivel 3</tspan></text>
      </g>
      <g id="V1-Listas-Celdas-Nivel-2-3" data-name="V1-Listas-Celdas-Nivel-2" transform="translate(0 94)">
        <rect id="Rectángulo_5365-5" data-name="Rectángulo 5365" class="cls-2" width="308" height="46" rx="4"/>
        <text id="Anidado_Nivel_2.1" data-name="Anidado Nivel 2.1" class="cls-7" transform="translate(32 12)"><tspan x="0" y="17">Anidado Nivel 2.1</tspan></text>
      </g>
      <g id="V1-Listas-Celdas-Nivel-2-4" data-name="V1-Listas-Celdas-Nivel-2" transform="translate(0 48)">
        <rect id="Rectángulo_5365-6" data-name="Rectángulo 5365" class="cls-2" width="308" height="46" rx="4"/>
        <text id="Anidado_Nivel_2" data-name="Anidado Nivel 2" class="cls-3" transform="translate(32 12)"><tspan x="0" y="17">Anidado Nivel 2</tspan></text>
      </g>
      <g id="V1-Listas-Celdas-Nivel-1">
        <rect id="Rectángulo_5365-7" data-name="Rectángulo 5365" class="cls-2" width="308" height="48" rx="4"/>
        <text id="Anidado_Nivel_1" data-name="Anidado Nivel 1" class="cls-8" transform="translate(16 12)"><tspan x="0" y="19">Anidado Nivel 1</tspan></text>
      </g>
    </g>
  </g>
</svg>
