<svg width="526" height="282" viewBox="0 0 526 282" fill="none" xmlns="http://www.w3.org/2000/svg">
<rect x="1" y="1" width="524" height="280" rx="9" fill="#F3F6F9" stroke="#E6EBF0" stroke-width="2"/>
<path d="M85.6382 60C85.3022 60 85.0362 59.909 84.8402 59.727C84.6582 59.531 84.5672 59.272 84.5672 58.95V46.245C84.5672 45.923 84.6582 45.671 84.8402 45.489C85.0362 45.293 85.3022 45.195 85.6382 45.195H93.3662C93.6882 45.195 93.9332 45.272 94.1012 45.426C94.2832 45.58 94.3742 45.797 94.3742 46.077C94.3742 46.357 94.2832 46.574 94.1012 46.728C93.9332 46.868 93.6882 46.938 93.3662 46.938H86.6882V51.6H92.9462C93.2682 51.6 93.5132 51.677 93.6812 51.831C93.8632 51.985 93.9542 52.202 93.9542 52.482C93.9542 52.762 93.8632 52.979 93.6812 53.133C93.5132 53.287 93.2682 53.364 92.9462 53.364H86.6882V58.257H93.3662C94.0382 58.257 94.3742 58.544 94.3742 59.118C94.3742 59.398 94.2832 59.615 94.1012 59.769C93.9332 59.923 93.6882 60 93.3662 60H85.6382ZM100.169 60.147C98.7413 60.147 97.5723 59.853 96.6623 59.265C96.4103 59.111 96.2283 58.95 96.1163 58.782C96.0183 58.614 95.9693 58.425 95.9693 58.215C95.9693 57.991 96.0323 57.802 96.1583 57.648C96.2843 57.494 96.4453 57.417 96.6413 57.417C96.8233 57.417 97.1103 57.529 97.5023 57.753C97.9223 57.977 98.3283 58.159 98.7203 58.299C99.1263 58.439 99.6303 58.509 100.232 58.509C100.904 58.509 101.429 58.39 101.807 58.152C102.185 57.914 102.374 57.578 102.374 57.144C102.374 56.864 102.297 56.64 102.143 56.472C102.003 56.304 101.751 56.157 101.387 56.031C101.023 55.891 100.484 55.744 99.7703 55.59C98.5383 55.324 97.6493 54.967 97.1033 54.519C96.5713 54.057 96.3053 53.434 96.3053 52.65C96.3053 52.048 96.4803 51.509 96.8303 51.033C97.1803 50.543 97.6633 50.165 98.2793 49.899C98.8953 49.633 99.5953 49.5 100.379 49.5C100.939 49.5 101.485 49.577 102.017 49.731C102.549 49.871 103.018 50.081 103.424 50.361C103.886 50.669 104.117 51.026 104.117 51.432C104.117 51.656 104.047 51.845 103.907 51.999C103.781 52.153 103.627 52.23 103.445 52.23C103.319 52.23 103.193 52.202 103.067 52.146C102.941 52.09 102.773 51.999 102.563 51.873C102.185 51.649 101.828 51.474 101.492 51.348C101.17 51.222 100.764 51.159 100.274 51.159C99.6863 51.159 99.2103 51.285 98.8463 51.537C98.4963 51.789 98.3213 52.132 98.3213 52.566C98.3213 52.958 98.4823 53.266 98.8043 53.49C99.1403 53.7 99.7633 53.903 100.673 54.099C101.611 54.295 102.346 54.519 102.878 54.771C103.41 55.023 103.788 55.338 104.012 55.716C104.25 56.08 104.369 56.549 104.369 57.123C104.369 58.033 103.984 58.768 103.214 59.328C102.458 59.874 101.443 60.147 100.169 60.147ZM111.647 58.488C111.955 58.516 112.172 58.6 112.298 58.74C112.438 58.866 112.508 59.048 112.508 59.286C112.508 59.566 112.396 59.783 112.172 59.937C111.962 60.077 111.647 60.133 111.227 60.105L110.66 60.063C109.526 59.979 108.679 59.636 108.119 59.034C107.559 58.418 107.279 57.515 107.279 56.325V51.39H106.019C105.403 51.39 105.095 51.117 105.095 50.571C105.095 50.319 105.172 50.123 105.326 49.983C105.494 49.829 105.725 49.752 106.019 49.752H107.279V47.589C107.279 47.267 107.37 47.015 107.552 46.833C107.748 46.651 108.007 46.56 108.329 46.56C108.651 46.56 108.91 46.651 109.106 46.833C109.302 47.015 109.4 47.267 109.4 47.589V49.752H111.479C111.773 49.752 111.997 49.829 112.151 49.983C112.319 50.123 112.403 50.319 112.403 50.571C112.403 50.837 112.319 51.04 112.151 51.18C111.997 51.32 111.773 51.39 111.479 51.39H109.4V56.472C109.4 57.13 109.533 57.613 109.799 57.921C110.079 58.229 110.499 58.404 111.059 58.446L111.647 58.488ZM122.053 57.417C122.249 57.417 122.41 57.494 122.536 57.648C122.662 57.802 122.725 57.998 122.725 58.236C122.725 58.642 122.473 58.985 121.969 59.265C121.479 59.545 120.94 59.762 120.352 59.916C119.778 60.07 119.225 60.147 118.693 60.147C117.069 60.147 115.788 59.678 114.85 58.74C113.912 57.788 113.443 56.493 113.443 54.855C113.443 53.805 113.646 52.874 114.052 52.062C114.472 51.25 115.053 50.62 115.795 50.172C116.551 49.724 117.405 49.5 118.357 49.5C119.729 49.5 120.814 49.941 121.612 50.823C122.41 51.705 122.809 52.895 122.809 54.393C122.809 54.953 122.557 55.233 122.053 55.233H115.564C115.704 57.403 116.747 58.488 118.693 58.488C119.211 58.488 119.659 58.418 120.037 58.278C120.415 58.138 120.814 57.956 121.234 57.732C121.276 57.704 121.388 57.648 121.57 57.564C121.766 57.466 121.927 57.417 122.053 57.417ZM118.399 51.054C117.587 51.054 116.936 51.313 116.446 51.831C115.956 52.349 115.662 53.077 115.564 54.015H120.982C120.94 53.063 120.695 52.335 120.247 51.831C119.813 51.313 119.197 51.054 118.399 51.054ZM138.705 57.417C138.901 57.417 139.062 57.494 139.188 57.648C139.314 57.802 139.377 57.998 139.377 58.236C139.377 58.642 139.125 58.985 138.621 59.265C138.131 59.545 137.592 59.762 137.004 59.916C136.43 60.07 135.877 60.147 135.345 60.147C133.721 60.147 132.44 59.678 131.502 58.74C130.564 57.788 130.095 56.493 130.095 54.855C130.095 53.805 130.298 52.874 130.704 52.062C131.124 51.25 131.705 50.62 132.447 50.172C133.203 49.724 134.057 49.5 135.009 49.5C136.381 49.5 137.466 49.941 138.264 50.823C139.062 51.705 139.461 52.895 139.461 54.393C139.461 54.953 139.209 55.233 138.705 55.233H132.216C132.356 57.403 133.399 58.488 135.345 58.488C135.863 58.488 136.311 58.418 136.689 58.278C137.067 58.138 137.466 57.956 137.886 57.732C137.928 57.704 138.04 57.648 138.222 57.564C138.418 57.466 138.579 57.417 138.705 57.417ZM135.051 51.054C134.239 51.054 133.588 51.313 133.098 51.831C132.608 52.349 132.314 53.077 132.216 54.015H137.634C137.592 53.063 137.347 52.335 136.899 51.831C136.465 51.313 135.849 51.054 135.051 51.054ZM145.369 60.147C143.941 60.147 142.772 59.853 141.862 59.265C141.61 59.111 141.428 58.95 141.316 58.782C141.218 58.614 141.169 58.425 141.169 58.215C141.169 57.991 141.232 57.802 141.358 57.648C141.484 57.494 141.645 57.417 141.841 57.417C142.023 57.417 142.31 57.529 142.702 57.753C143.122 57.977 143.528 58.159 143.92 58.299C144.326 58.439 144.83 58.509 145.432 58.509C146.104 58.509 146.629 58.39 147.007 58.152C147.385 57.914 147.574 57.578 147.574 57.144C147.574 56.864 147.497 56.64 147.343 56.472C147.203 56.304 146.951 56.157 146.587 56.031C146.223 55.891 145.684 55.744 144.97 55.59C143.738 55.324 142.849 54.967 142.303 54.519C141.771 54.057 141.505 53.434 141.505 52.65C141.505 52.048 141.68 51.509 142.03 51.033C142.38 50.543 142.863 50.165 143.479 49.899C144.095 49.633 144.795 49.5 145.579 49.5C146.139 49.5 146.685 49.577 147.217 49.731C147.749 49.871 148.218 50.081 148.624 50.361C149.086 50.669 149.317 51.026 149.317 51.432C149.317 51.656 149.247 51.845 149.107 51.999C148.981 52.153 148.827 52.23 148.645 52.23C148.519 52.23 148.393 52.202 148.267 52.146C148.141 52.09 147.973 51.999 147.763 51.873C147.385 51.649 147.028 51.474 146.692 51.348C146.37 51.222 145.964 51.159 145.474 51.159C144.886 51.159 144.41 51.285 144.046 51.537C143.696 51.789 143.521 52.132 143.521 52.566C143.521 52.958 143.682 53.266 144.004 53.49C144.34 53.7 144.963 53.903 145.873 54.099C146.811 54.295 147.546 54.519 148.078 54.771C148.61 55.023 148.988 55.338 149.212 55.716C149.45 56.08 149.569 56.549 149.569 57.123C149.569 58.033 149.184 58.768 148.414 59.328C147.658 59.874 146.643 60.147 145.369 60.147ZM165.489 57.417C165.685 57.417 165.846 57.494 165.972 57.648C166.098 57.802 166.161 57.998 166.161 58.236C166.161 58.642 165.909 58.985 165.405 59.265C164.915 59.545 164.376 59.762 163.788 59.916C163.214 60.07 162.661 60.147 162.129 60.147C160.505 60.147 159.224 59.678 158.286 58.74C157.348 57.788 156.879 56.493 156.879 54.855C156.879 53.805 157.082 52.874 157.488 52.062C157.908 51.25 158.489 50.62 159.231 50.172C159.987 49.724 160.841 49.5 161.793 49.5C163.165 49.5 164.25 49.941 165.048 50.823C165.846 51.705 166.245 52.895 166.245 54.393C166.245 54.953 165.993 55.233 165.489 55.233H159C159.14 57.403 160.183 58.488 162.129 58.488C162.647 58.488 163.095 58.418 163.473 58.278C163.851 58.138 164.25 57.956 164.67 57.732C164.712 57.704 164.824 57.648 165.006 57.564C165.202 57.466 165.363 57.417 165.489 57.417ZM161.835 51.054C161.023 51.054 160.372 51.313 159.882 51.831C159.392 52.349 159.098 53.077 159 54.015H164.418C164.376 53.063 164.131 52.335 163.683 51.831C163.249 51.313 162.633 51.054 161.835 51.054ZM169.653 60.105C169.345 60.105 169.086 60.021 168.876 59.853C168.68 59.685 168.582 59.433 168.582 59.097V46.119C168.582 45.783 168.68 45.531 168.876 45.363C169.086 45.181 169.345 45.09 169.653 45.09C169.961 45.09 170.213 45.181 170.409 45.363C170.605 45.531 170.703 45.783 170.703 46.119V59.097C170.703 59.433 170.605 59.685 170.409 59.853C170.213 60.021 169.961 60.105 169.653 60.105ZM184.224 58.488C184.532 58.516 184.749 58.6 184.875 58.74C185.015 58.866 185.085 59.048 185.085 59.286C185.085 59.566 184.973 59.783 184.749 59.937C184.539 60.077 184.224 60.133 183.804 60.105L183.237 60.063C182.103 59.979 181.256 59.636 180.696 59.034C180.136 58.418 179.856 57.515 179.856 56.325V51.39H178.596C177.98 51.39 177.672 51.117 177.672 50.571C177.672 50.319 177.749 50.123 177.903 49.983C178.071 49.829 178.302 49.752 178.596 49.752H179.856V47.589C179.856 47.267 179.947 47.015 180.129 46.833C180.325 46.651 180.584 46.56 180.906 46.56C181.228 46.56 181.487 46.651 181.683 46.833C181.879 47.015 181.977 47.267 181.977 47.589V49.752H184.056C184.35 49.752 184.574 49.829 184.728 49.983C184.896 50.123 184.98 50.319 184.98 50.571C184.98 50.837 184.896 51.04 184.728 51.18C184.574 51.32 184.35 51.39 184.056 51.39H181.977V56.472C181.977 57.13 182.11 57.613 182.376 57.921C182.656 58.229 183.076 58.404 183.636 58.446L184.224 58.488ZM187.679 60.105C187.371 60.105 187.112 60.021 186.902 59.853C186.706 59.685 186.608 59.433 186.608 59.097V50.571C186.608 50.235 186.706 49.983 186.902 49.815C187.112 49.633 187.371 49.542 187.679 49.542C187.987 49.542 188.239 49.633 188.435 49.815C188.631 49.983 188.729 50.235 188.729 50.571V59.097C188.729 59.433 188.631 59.685 188.435 59.853C188.239 60.021 187.987 60.105 187.679 60.105ZM188.12 48.366C188.008 48.464 187.875 48.513 187.721 48.513C187.567 48.513 187.427 48.457 187.301 48.345C187.189 48.233 187.133 48.1 187.133 47.946C187.133 47.806 187.182 47.68 187.28 47.568L189.548 44.607C189.828 44.229 190.15 44.04 190.514 44.04C190.78 44.04 191.004 44.131 191.186 44.313C191.368 44.495 191.459 44.712 191.459 44.964C191.459 45.286 191.291 45.587 190.955 45.867L188.12 48.366ZM196.713 58.488C197.021 58.516 197.238 58.6 197.364 58.74C197.504 58.866 197.574 59.048 197.574 59.286C197.574 59.566 197.462 59.783 197.238 59.937C197.028 60.077 196.713 60.133 196.293 60.105L195.726 60.063C194.592 59.979 193.745 59.636 193.185 59.034C192.625 58.418 192.345 57.515 192.345 56.325V51.39H191.085C190.469 51.39 190.161 51.117 190.161 50.571C190.161 50.319 190.238 50.123 190.392 49.983C190.56 49.829 190.791 49.752 191.085 49.752H192.345V47.589C192.345 47.267 192.436 47.015 192.618 46.833C192.814 46.651 193.073 46.56 193.395 46.56C193.717 46.56 193.976 46.651 194.172 46.833C194.368 47.015 194.466 47.267 194.466 47.589V49.752H196.545C196.839 49.752 197.063 49.829 197.217 49.983C197.385 50.123 197.469 50.319 197.469 50.571C197.469 50.837 197.385 51.04 197.217 51.18C197.063 51.32 196.839 51.39 196.545 51.39H194.466V56.472C194.466 57.13 194.599 57.613 194.865 57.921C195.145 58.229 195.565 58.404 196.125 58.446L196.713 58.488ZM207.035 49.542C207.357 49.542 207.609 49.633 207.791 49.815C207.987 49.997 208.085 50.249 208.085 50.571V59.118C208.085 59.412 207.987 59.65 207.791 59.832C207.595 60.014 207.336 60.105 207.014 60.105C206.72 60.105 206.482 60.021 206.3 59.853C206.118 59.671 206.027 59.433 206.027 59.139V58.341C205.705 58.929 205.257 59.377 204.683 59.685C204.123 59.993 203.493 60.147 202.793 60.147C200.301 60.147 199.055 58.775 199.055 56.031V50.571C199.055 50.249 199.146 49.997 199.328 49.815C199.524 49.633 199.79 49.542 200.126 49.542C200.448 49.542 200.7 49.633 200.882 49.815C201.078 49.997 201.176 50.249 201.176 50.571V56.01C201.176 56.836 201.344 57.445 201.68 57.837C202.016 58.229 202.534 58.425 203.234 58.425C204.06 58.425 204.718 58.159 205.208 57.627C205.712 57.095 205.964 56.388 205.964 55.506V50.571C205.964 50.263 206.062 50.018 206.258 49.836C206.454 49.64 206.713 49.542 207.035 49.542ZM212.124 60.105C211.816 60.105 211.557 60.021 211.347 59.853C211.151 59.685 211.053 59.433 211.053 59.097V46.119C211.053 45.783 211.151 45.531 211.347 45.363C211.557 45.181 211.816 45.09 212.124 45.09C212.432 45.09 212.684 45.181 212.88 45.363C213.076 45.531 213.174 45.783 213.174 46.119V59.097C213.174 59.433 213.076 59.685 212.88 59.853C212.684 60.021 212.432 60.105 212.124 60.105ZM220.591 60.147C219.583 60.147 218.694 59.93 217.924 59.496C217.168 59.062 216.58 58.446 216.16 57.648C215.754 56.836 215.551 55.898 215.551 54.834C215.551 53.756 215.754 52.818 216.16 52.02C216.58 51.208 217.168 50.585 217.924 50.151C218.694 49.717 219.583 49.5 220.591 49.5C221.599 49.5 222.481 49.717 223.237 50.151C224.007 50.585 224.595 51.208 225.001 52.02C225.421 52.818 225.631 53.756 225.631 54.834C225.631 55.898 225.421 56.836 225.001 57.648C224.595 58.446 224.007 59.062 223.237 59.496C222.481 59.93 221.599 60.147 220.591 60.147ZM220.591 58.467C221.529 58.467 222.243 58.159 222.733 57.543C223.237 56.927 223.489 56.024 223.489 54.834C223.489 53.658 223.237 52.762 222.733 52.146C222.229 51.516 221.515 51.201 220.591 51.201C219.667 51.201 218.953 51.516 218.449 52.146C217.945 52.762 217.693 53.658 217.693 54.834C217.693 56.024 217.938 56.927 218.428 57.543C218.932 58.159 219.653 58.467 220.591 58.467ZM241.909 45.09C242.231 45.09 242.49 45.181 242.686 45.363C242.882 45.545 242.98 45.79 242.98 46.098V59.076C242.98 59.398 242.882 59.65 242.686 59.832C242.504 60.014 242.252 60.105 241.93 60.105C241.608 60.105 241.349 60.014 241.153 59.832C240.971 59.65 240.88 59.398 240.88 59.076V58.236C240.572 58.852 240.124 59.328 239.536 59.664C238.948 59.986 238.269 60.147 237.499 60.147C236.617 60.147 235.826 59.923 235.126 59.475C234.44 59.027 233.901 58.397 233.509 57.585C233.131 56.773 232.942 55.842 232.942 54.792C232.942 53.728 233.131 52.797 233.509 51.999C233.901 51.201 234.44 50.585 235.126 50.151C235.812 49.717 236.603 49.5 237.499 49.5C238.269 49.5 238.941 49.668 239.515 50.004C240.103 50.326 240.551 50.788 240.859 51.39V46.056C240.859 45.762 240.95 45.531 241.132 45.363C241.328 45.181 241.587 45.09 241.909 45.09ZM238.003 58.467C238.913 58.467 239.62 58.152 240.124 57.522C240.628 56.892 240.88 55.996 240.88 54.834C240.88 53.672 240.628 52.776 240.124 52.146C239.634 51.516 238.927 51.201 238.003 51.201C237.079 51.201 236.358 51.516 235.84 52.146C235.336 52.762 235.084 53.644 235.084 54.792C235.084 55.94 235.343 56.843 235.861 57.501C236.379 58.145 237.093 58.467 238.003 58.467ZM253.959 57.417C254.155 57.417 254.316 57.494 254.442 57.648C254.568 57.802 254.631 57.998 254.631 58.236C254.631 58.642 254.379 58.985 253.875 59.265C253.385 59.545 252.846 59.762 252.258 59.916C251.684 60.07 251.131 60.147 250.599 60.147C248.975 60.147 247.694 59.678 246.756 58.74C245.818 57.788 245.349 56.493 245.349 54.855C245.349 53.805 245.552 52.874 245.958 52.062C246.378 51.25 246.959 50.62 247.701 50.172C248.457 49.724 249.311 49.5 250.263 49.5C251.635 49.5 252.72 49.941 253.518 50.823C254.316 51.705 254.715 52.895 254.715 54.393C254.715 54.953 254.463 55.233 253.959 55.233H247.47C247.61 57.403 248.653 58.488 250.599 58.488C251.117 58.488 251.565 58.418 251.943 58.278C252.321 58.138 252.72 57.956 253.14 57.732C253.182 57.704 253.294 57.648 253.476 57.564C253.672 57.466 253.833 57.417 253.959 57.417ZM250.305 51.054C249.493 51.054 248.842 51.313 248.352 51.831C247.862 52.349 247.568 53.077 247.47 54.015H252.888C252.846 53.063 252.601 52.335 252.153 51.831C251.719 51.313 251.103 51.054 250.305 51.054ZM270.528 49.542C270.85 49.542 271.102 49.633 271.284 49.815C271.48 49.997 271.578 50.249 271.578 50.571V59.118C271.578 59.412 271.48 59.65 271.284 59.832C271.088 60.014 270.829 60.105 270.507 60.105C270.213 60.105 269.975 60.021 269.793 59.853C269.611 59.671 269.52 59.433 269.52 59.139V58.341C269.198 58.929 268.75 59.377 268.176 59.685C267.616 59.993 266.986 60.147 266.286 60.147C263.794 60.147 262.548 58.775 262.548 56.031V50.571C262.548 50.249 262.639 49.997 262.821 49.815C263.017 49.633 263.283 49.542 263.619 49.542C263.941 49.542 264.193 49.633 264.375 49.815C264.571 49.997 264.669 50.249 264.669 50.571V56.01C264.669 56.836 264.837 57.445 265.173 57.837C265.509 58.229 266.027 58.425 266.727 58.425C267.553 58.425 268.211 58.159 268.701 57.627C269.205 57.095 269.457 56.388 269.457 55.506V50.571C269.457 50.263 269.555 50.018 269.751 49.836C269.947 49.64 270.206 49.542 270.528 49.542ZM280.069 49.5C282.519 49.5 283.744 50.879 283.744 53.637V59.097C283.744 59.419 283.646 59.671 283.45 59.853C283.268 60.021 283.009 60.105 282.673 60.105C282.351 60.105 282.092 60.014 281.896 59.832C281.714 59.65 281.623 59.405 281.623 59.097V53.742C281.623 52.874 281.448 52.237 281.098 51.831C280.762 51.425 280.23 51.222 279.502 51.222C278.648 51.222 277.962 51.488 277.444 52.02C276.926 52.552 276.667 53.266 276.667 54.162V59.097C276.667 59.405 276.569 59.65 276.373 59.832C276.191 60.014 275.939 60.105 275.617 60.105C275.295 60.105 275.036 60.014 274.84 59.832C274.644 59.65 274.546 59.405 274.546 59.097V50.55C274.546 50.256 274.644 50.018 274.84 49.836C275.05 49.64 275.309 49.542 275.617 49.542C275.925 49.542 276.17 49.633 276.352 49.815C276.534 49.997 276.625 50.235 276.625 50.529V51.39C276.961 50.774 277.43 50.305 278.032 49.983C278.634 49.661 279.313 49.5 280.069 49.5ZM290.95 49.5C292.308 49.5 293.316 49.843 293.974 50.529C294.646 51.215 294.982 52.258 294.982 53.658V59.097C294.982 59.419 294.891 59.671 294.709 59.853C294.527 60.021 294.275 60.105 293.953 60.105C293.645 60.105 293.4 60.014 293.218 59.832C293.036 59.65 292.945 59.405 292.945 59.097V58.32C292.679 58.908 292.28 59.363 291.748 59.685C291.23 59.993 290.621 60.147 289.921 60.147C289.249 60.147 288.633 60.014 288.073 59.748C287.513 59.468 287.072 59.083 286.75 58.593C286.442 58.103 286.288 57.557 286.288 56.955C286.288 56.213 286.477 55.632 286.855 55.212C287.247 54.778 287.884 54.47 288.766 54.288C289.662 54.106 290.887 54.015 292.441 54.015H292.924V53.406C292.924 52.622 292.763 52.055 292.441 51.705C292.119 51.355 291.601 51.18 290.887 51.18C290.397 51.18 289.935 51.243 289.501 51.369C289.067 51.495 288.591 51.677 288.073 51.915C287.695 52.125 287.429 52.23 287.275 52.23C287.065 52.23 286.89 52.153 286.75 51.999C286.624 51.845 286.561 51.649 286.561 51.411C286.561 51.201 286.617 51.019 286.729 50.865C286.855 50.697 287.051 50.536 287.317 50.382C287.807 50.116 288.381 49.906 289.039 49.752C289.697 49.584 290.334 49.5 290.95 49.5ZM290.299 58.572C291.069 58.572 291.699 58.313 292.189 57.795C292.679 57.263 292.924 56.584 292.924 55.758V55.212H292.546C291.454 55.212 290.614 55.261 290.026 55.359C289.438 55.457 289.018 55.625 288.766 55.863C288.514 56.087 288.388 56.416 288.388 56.85C288.388 57.354 288.57 57.767 288.934 58.089C289.298 58.411 289.753 58.572 290.299 58.572ZM304.492 60.105C304.184 60.105 303.925 60.021 303.715 59.853C303.519 59.685 303.421 59.433 303.421 59.097V46.119C303.421 45.783 303.519 45.531 303.715 45.363C303.925 45.181 304.184 45.09 304.492 45.09C304.8 45.09 305.052 45.181 305.248 45.363C305.444 45.531 305.542 45.783 305.542 46.119V59.097C305.542 59.433 305.444 59.685 305.248 59.853C305.052 60.021 304.8 60.105 304.492 60.105ZM309.578 60.105C309.27 60.105 309.011 60.021 308.801 59.853C308.605 59.685 308.507 59.433 308.507 59.097V50.571C308.507 50.235 308.605 49.983 308.801 49.815C309.011 49.633 309.27 49.542 309.578 49.542C309.886 49.542 310.138 49.633 310.334 49.815C310.53 49.983 310.628 50.235 310.628 50.571V59.097C310.628 59.433 310.53 59.685 310.334 59.853C310.138 60.021 309.886 60.105 309.578 60.105ZM309.578 47.484C309.172 47.484 308.85 47.372 308.612 47.148C308.374 46.924 308.255 46.63 308.255 46.266C308.255 45.902 308.374 45.615 308.612 45.405C308.85 45.181 309.172 45.069 309.578 45.069C309.97 45.069 310.285 45.181 310.523 45.405C310.775 45.615 310.901 45.902 310.901 46.266C310.901 46.63 310.782 46.924 310.544 47.148C310.306 47.372 309.984 47.484 309.578 47.484ZM317.162 60.147C315.734 60.147 314.565 59.853 313.655 59.265C313.403 59.111 313.221 58.95 313.109 58.782C313.011 58.614 312.962 58.425 312.962 58.215C312.962 57.991 313.025 57.802 313.151 57.648C313.277 57.494 313.438 57.417 313.634 57.417C313.816 57.417 314.103 57.529 314.495 57.753C314.915 57.977 315.321 58.159 315.713 58.299C316.119 58.439 316.623 58.509 317.225 58.509C317.897 58.509 318.422 58.39 318.8 58.152C319.178 57.914 319.367 57.578 319.367 57.144C319.367 56.864 319.29 56.64 319.136 56.472C318.996 56.304 318.744 56.157 318.38 56.031C318.016 55.891 317.477 55.744 316.763 55.59C315.531 55.324 314.642 54.967 314.096 54.519C313.564 54.057 313.298 53.434 313.298 52.65C313.298 52.048 313.473 51.509 313.823 51.033C314.173 50.543 314.656 50.165 315.272 49.899C315.888 49.633 316.588 49.5 317.372 49.5C317.932 49.5 318.478 49.577 319.01 49.731C319.542 49.871 320.011 50.081 320.417 50.361C320.879 50.669 321.11 51.026 321.11 51.432C321.11 51.656 321.04 51.845 320.9 51.999C320.774 52.153 320.62 52.23 320.438 52.23C320.312 52.23 320.186 52.202 320.06 52.146C319.934 52.09 319.766 51.999 319.556 51.873C319.178 51.649 318.821 51.474 318.485 51.348C318.163 51.222 317.757 51.159 317.267 51.159C316.679 51.159 316.203 51.285 315.839 51.537C315.489 51.789 315.314 52.132 315.314 52.566C315.314 52.958 315.475 53.266 315.797 53.49C316.133 53.7 316.756 53.903 317.666 54.099C318.604 54.295 319.339 54.519 319.871 54.771C320.403 55.023 320.781 55.338 321.005 55.716C321.243 56.08 321.362 56.549 321.362 57.123C321.362 58.033 320.977 58.768 320.207 59.328C319.451 59.874 318.436 60.147 317.162 60.147ZM328.64 58.488C328.948 58.516 329.165 58.6 329.291 58.74C329.431 58.866 329.501 59.048 329.501 59.286C329.501 59.566 329.389 59.783 329.165 59.937C328.955 60.077 328.64 60.133 328.22 60.105L327.653 60.063C326.519 59.979 325.672 59.636 325.112 59.034C324.552 58.418 324.272 57.515 324.272 56.325V51.39H323.012C322.396 51.39 322.088 51.117 322.088 50.571C322.088 50.319 322.165 50.123 322.319 49.983C322.487 49.829 322.718 49.752 323.012 49.752H324.272V47.589C324.272 47.267 324.363 47.015 324.545 46.833C324.741 46.651 325 46.56 325.322 46.56C325.644 46.56 325.903 46.651 326.099 46.833C326.295 47.015 326.393 47.267 326.393 47.589V49.752H328.472C328.766 49.752 328.99 49.829 329.144 49.983C329.312 50.123 329.396 50.319 329.396 50.571C329.396 50.837 329.312 51.04 329.144 51.18C328.99 51.32 328.766 51.39 328.472 51.39H326.393V56.472C326.393 57.13 326.526 57.613 326.792 57.921C327.072 58.229 327.492 58.404 328.052 58.446L328.64 58.488ZM335.329 49.5C336.687 49.5 337.695 49.843 338.353 50.529C339.025 51.215 339.361 52.258 339.361 53.658V59.097C339.361 59.419 339.27 59.671 339.088 59.853C338.906 60.021 338.654 60.105 338.332 60.105C338.024 60.105 337.779 60.014 337.597 59.832C337.415 59.65 337.324 59.405 337.324 59.097V58.32C337.058 58.908 336.659 59.363 336.127 59.685C335.609 59.993 335 60.147 334.3 60.147C333.628 60.147 333.012 60.014 332.452 59.748C331.892 59.468 331.451 59.083 331.129 58.593C330.821 58.103 330.667 57.557 330.667 56.955C330.667 56.213 330.856 55.632 331.234 55.212C331.626 54.778 332.263 54.47 333.145 54.288C334.041 54.106 335.266 54.015 336.82 54.015H337.303V53.406C337.303 52.622 337.142 52.055 336.82 51.705C336.498 51.355 335.98 51.18 335.266 51.18C334.776 51.18 334.314 51.243 333.88 51.369C333.446 51.495 332.97 51.677 332.452 51.915C332.074 52.125 331.808 52.23 331.654 52.23C331.444 52.23 331.269 52.153 331.129 51.999C331.003 51.845 330.94 51.649 330.94 51.411C330.94 51.201 330.996 51.019 331.108 50.865C331.234 50.697 331.43 50.536 331.696 50.382C332.186 50.116 332.76 49.906 333.418 49.752C334.076 49.584 334.713 49.5 335.329 49.5ZM334.678 58.572C335.448 58.572 336.078 58.313 336.568 57.795C337.058 57.263 337.303 56.584 337.303 55.758V55.212H336.925C335.833 55.212 334.993 55.261 334.405 55.359C333.817 55.457 333.397 55.625 333.145 55.863C332.893 56.087 332.767 56.416 332.767 56.85C332.767 57.354 332.949 57.767 333.313 58.089C333.677 58.411 334.132 58.572 334.678 58.572ZM356.179 45.09C356.501 45.09 356.76 45.181 356.956 45.363C357.152 45.545 357.25 45.79 357.25 46.098V59.076C357.25 59.398 357.152 59.65 356.956 59.832C356.774 60.014 356.522 60.105 356.2 60.105C355.878 60.105 355.619 60.014 355.423 59.832C355.241 59.65 355.15 59.398 355.15 59.076V58.236C354.842 58.852 354.394 59.328 353.806 59.664C353.218 59.986 352.539 60.147 351.769 60.147C350.887 60.147 350.096 59.923 349.396 59.475C348.71 59.027 348.171 58.397 347.779 57.585C347.401 56.773 347.212 55.842 347.212 54.792C347.212 53.728 347.401 52.797 347.779 51.999C348.171 51.201 348.71 50.585 349.396 50.151C350.082 49.717 350.873 49.5 351.769 49.5C352.539 49.5 353.211 49.668 353.785 50.004C354.373 50.326 354.821 50.788 355.129 51.39V46.056C355.129 45.762 355.22 45.531 355.402 45.363C355.598 45.181 355.857 45.09 356.179 45.09ZM352.273 58.467C353.183 58.467 353.89 58.152 354.394 57.522C354.898 56.892 355.15 55.996 355.15 54.834C355.15 53.672 354.898 52.776 354.394 52.146C353.904 51.516 353.197 51.201 352.273 51.201C351.349 51.201 350.628 51.516 350.11 52.146C349.606 52.762 349.354 53.644 349.354 54.792C349.354 55.94 349.613 56.843 350.131 57.501C350.649 58.145 351.363 58.467 352.273 58.467ZM368.229 57.417C368.425 57.417 368.586 57.494 368.712 57.648C368.838 57.802 368.901 57.998 368.901 58.236C368.901 58.642 368.649 58.985 368.145 59.265C367.655 59.545 367.116 59.762 366.528 59.916C365.954 60.07 365.401 60.147 364.869 60.147C363.245 60.147 361.964 59.678 361.026 58.74C360.088 57.788 359.619 56.493 359.619 54.855C359.619 53.805 359.822 52.874 360.228 52.062C360.648 51.25 361.229 50.62 361.971 50.172C362.727 49.724 363.581 49.5 364.533 49.5C365.905 49.5 366.99 49.941 367.788 50.823C368.586 51.705 368.985 52.895 368.985 54.393C368.985 54.953 368.733 55.233 368.229 55.233H361.74C361.88 57.403 362.923 58.488 364.869 58.488C365.387 58.488 365.835 58.418 366.213 58.278C366.591 58.138 366.99 57.956 367.41 57.732C367.452 57.704 367.564 57.648 367.746 57.564C367.942 57.466 368.103 57.417 368.229 57.417ZM364.575 51.054C363.763 51.054 363.112 51.313 362.622 51.831C362.132 52.349 361.838 53.077 361.74 54.015H367.158C367.116 53.063 366.871 52.335 366.423 51.831C365.989 51.313 365.373 51.054 364.575 51.054ZM384.881 57.417C385.077 57.417 385.238 57.494 385.364 57.648C385.49 57.802 385.553 57.998 385.553 58.236C385.553 58.642 385.301 58.985 384.797 59.265C384.307 59.545 383.768 59.762 383.18 59.916C382.606 60.07 382.053 60.147 381.521 60.147C379.897 60.147 378.616 59.678 377.678 58.74C376.74 57.788 376.271 56.493 376.271 54.855C376.271 53.805 376.474 52.874 376.88 52.062C377.3 51.25 377.881 50.62 378.623 50.172C379.379 49.724 380.233 49.5 381.185 49.5C382.557 49.5 383.642 49.941 384.44 50.823C385.238 51.705 385.637 52.895 385.637 54.393C385.637 54.953 385.385 55.233 384.881 55.233H378.392C378.532 57.403 379.575 58.488 381.521 58.488C382.039 58.488 382.487 58.418 382.865 58.278C383.243 58.138 383.642 57.956 384.062 57.732C384.104 57.704 384.216 57.648 384.398 57.564C384.594 57.466 384.755 57.417 384.881 57.417ZM381.227 51.054C380.415 51.054 379.764 51.313 379.274 51.831C378.784 52.349 378.49 53.077 378.392 54.015H383.81C383.768 53.063 383.523 52.335 383.075 51.831C382.641 51.313 382.025 51.054 381.227 51.054ZM393.497 49.5C395.947 49.5 397.172 50.879 397.172 53.637V59.097C397.172 59.419 397.074 59.671 396.878 59.853C396.696 60.021 396.437 60.105 396.101 60.105C395.779 60.105 395.52 60.014 395.324 59.832C395.142 59.65 395.051 59.405 395.051 59.097V53.742C395.051 52.874 394.876 52.237 394.526 51.831C394.19 51.425 393.658 51.222 392.93 51.222C392.076 51.222 391.39 51.488 390.872 52.02C390.354 52.552 390.095 53.266 390.095 54.162V59.097C390.095 59.405 389.997 59.65 389.801 59.832C389.619 60.014 389.367 60.105 389.045 60.105C388.723 60.105 388.464 60.014 388.268 59.832C388.072 59.65 387.974 59.405 387.974 59.097V50.55C387.974 50.256 388.072 50.018 388.268 49.836C388.478 49.64 388.737 49.542 389.045 49.542C389.353 49.542 389.598 49.633 389.78 49.815C389.962 49.997 390.053 50.235 390.053 50.529V51.39C390.389 50.774 390.858 50.305 391.46 49.983C392.062 49.661 392.741 49.5 393.497 49.5ZM401.145 60.105C400.837 60.105 400.578 60.021 400.368 59.853C400.172 59.685 400.074 59.433 400.074 59.097V46.119C400.074 45.783 400.172 45.531 400.368 45.363C400.578 45.181 400.837 45.09 401.145 45.09C401.453 45.09 401.705 45.181 401.901 45.363C402.097 45.531 402.195 45.783 402.195 46.119V59.097C402.195 59.433 402.097 59.685 401.901 59.853C401.705 60.021 401.453 60.105 401.145 60.105ZM409.465 49.5C410.823 49.5 411.831 49.843 412.489 50.529C413.161 51.215 413.497 52.258 413.497 53.658V59.097C413.497 59.419 413.406 59.671 413.224 59.853C413.042 60.021 412.79 60.105 412.468 60.105C412.16 60.105 411.915 60.014 411.733 59.832C411.551 59.65 411.46 59.405 411.46 59.097V58.32C411.194 58.908 410.795 59.363 410.263 59.685C409.745 59.993 409.136 60.147 408.436 60.147C407.764 60.147 407.148 60.014 406.588 59.748C406.028 59.468 405.587 59.083 405.265 58.593C404.957 58.103 404.803 57.557 404.803 56.955C404.803 56.213 404.992 55.632 405.37 55.212C405.762 54.778 406.399 54.47 407.281 54.288C408.177 54.106 409.402 54.015 410.956 54.015H411.439V53.406C411.439 52.622 411.278 52.055 410.956 51.705C410.634 51.355 410.116 51.18 409.402 51.18C408.912 51.18 408.45 51.243 408.016 51.369C407.582 51.495 407.106 51.677 406.588 51.915C406.21 52.125 405.944 52.23 405.79 52.23C405.58 52.23 405.405 52.153 405.265 51.999C405.139 51.845 405.076 51.649 405.076 51.411C405.076 51.201 405.132 51.019 405.244 50.865C405.37 50.697 405.566 50.536 405.832 50.382C406.322 50.116 406.896 49.906 407.554 49.752C408.212 49.584 408.849 49.5 409.465 49.5ZM408.814 58.572C409.584 58.572 410.214 58.313 410.704 57.795C411.194 57.263 411.439 56.584 411.439 55.758V55.212H411.061C409.969 55.212 409.129 55.261 408.541 55.359C407.953 55.457 407.533 55.625 407.281 55.863C407.029 56.087 406.903 56.416 406.903 56.85C406.903 57.354 407.085 57.767 407.449 58.089C407.813 58.411 408.268 58.572 408.814 58.572ZM420.787 60.147C419.793 60.147 418.918 59.93 418.162 59.496C417.42 59.062 416.839 58.446 416.419 57.648C416.013 56.85 415.81 55.926 415.81 54.876C415.81 53.812 416.02 52.874 416.44 52.062C416.874 51.25 417.476 50.62 418.246 50.172C419.016 49.724 419.898 49.5 420.892 49.5C421.424 49.5 421.956 49.577 422.488 49.731C423.034 49.885 423.517 50.095 423.937 50.361C424.385 50.669 424.609 51.026 424.609 51.432C424.609 51.67 424.546 51.873 424.42 52.041C424.294 52.195 424.133 52.272 423.937 52.272C423.811 52.272 423.685 52.244 423.559 52.188C423.433 52.118 423.272 52.02 423.076 51.894C422.726 51.67 422.397 51.502 422.089 51.39C421.795 51.264 421.438 51.201 421.018 51.201C420.066 51.201 419.324 51.523 418.792 52.167C418.274 52.811 418.015 53.707 418.015 54.855C418.015 56.003 418.274 56.892 418.792 57.522C419.31 58.138 420.045 58.446 420.997 58.446C421.417 58.446 421.788 58.383 422.11 58.257C422.432 58.131 422.761 57.963 423.097 57.753C423.251 57.655 423.405 57.571 423.559 57.501C423.713 57.431 423.853 57.396 423.979 57.396C424.175 57.396 424.336 57.48 424.462 57.648C424.588 57.802 424.651 57.998 424.651 58.236C424.651 58.432 424.595 58.614 424.483 58.782C424.385 58.936 424.21 59.097 423.958 59.265C423.538 59.545 423.048 59.762 422.488 59.916C421.928 60.07 421.361 60.147 420.787 60.147ZM434.572 57.417C434.768 57.417 434.929 57.494 435.055 57.648C435.181 57.802 435.244 57.998 435.244 58.236C435.244 58.642 434.992 58.985 434.488 59.265C433.998 59.545 433.459 59.762 432.871 59.916C432.297 60.07 431.744 60.147 431.212 60.147C429.588 60.147 428.307 59.678 427.369 58.74C426.431 57.788 425.962 56.493 425.962 54.855C425.962 53.805 426.165 52.874 426.571 52.062C426.991 51.25 427.572 50.62 428.314 50.172C429.07 49.724 429.924 49.5 430.876 49.5C432.248 49.5 433.333 49.941 434.131 50.823C434.929 51.705 435.328 52.895 435.328 54.393C435.328 54.953 435.076 55.233 434.572 55.233H428.083C428.223 57.403 429.266 58.488 431.212 58.488C431.73 58.488 432.178 58.418 432.556 58.278C432.934 58.138 433.333 57.956 433.753 57.732C433.795 57.704 433.907 57.648 434.089 57.564C434.285 57.466 434.446 57.417 434.572 57.417ZM430.918 51.054C430.106 51.054 429.455 51.313 428.965 51.831C428.475 52.349 428.181 53.077 428.083 54.015H433.501C433.459 53.063 433.214 52.335 432.766 51.831C432.332 51.313 431.716 51.054 430.918 51.054ZM441.235 60.147C439.807 60.147 438.638 59.853 437.728 59.265C437.476 59.111 437.294 58.95 437.182 58.782C437.084 58.614 437.035 58.425 437.035 58.215C437.035 57.991 437.098 57.802 437.224 57.648C437.35 57.494 437.511 57.417 437.707 57.417C437.889 57.417 438.176 57.529 438.568 57.753C438.988 57.977 439.394 58.159 439.786 58.299C440.192 58.439 440.696 58.509 441.298 58.509C441.97 58.509 442.495 58.39 442.873 58.152C443.251 57.914 443.44 57.578 443.44 57.144C443.44 56.864 443.363 56.64 443.209 56.472C443.069 56.304 442.817 56.157 442.453 56.031C442.089 55.891 441.55 55.744 440.836 55.59C439.604 55.324 438.715 54.967 438.169 54.519C437.637 54.057 437.371 53.434 437.371 52.65C437.371 52.048 437.546 51.509 437.896 51.033C438.246 50.543 438.729 50.165 439.345 49.899C439.961 49.633 440.661 49.5 441.445 49.5C442.005 49.5 442.551 49.577 443.083 49.731C443.615 49.871 444.084 50.081 444.49 50.361C444.952 50.669 445.183 51.026 445.183 51.432C445.183 51.656 445.113 51.845 444.973 51.999C444.847 52.153 444.693 52.23 444.511 52.23C444.385 52.23 444.259 52.202 444.133 52.146C444.007 52.09 443.839 51.999 443.629 51.873C443.251 51.649 442.894 51.474 442.558 51.348C442.236 51.222 441.83 51.159 441.34 51.159C440.752 51.159 440.276 51.285 439.912 51.537C439.562 51.789 439.387 52.132 439.387 52.566C439.387 52.958 439.548 53.266 439.87 53.49C440.206 53.7 440.829 53.903 441.739 54.099C442.677 54.295 443.412 54.519 443.944 54.771C444.476 55.023 444.854 55.338 445.078 55.716C445.316 56.08 445.435 56.549 445.435 57.123C445.435 58.033 445.05 58.768 444.28 59.328C443.524 59.874 442.509 60.147 441.235 60.147Z" fill="#38485C"/>
<path d="M90.7827 115H84.4155V103.578H90.7827V104.758H85.7436V108.438H90.478V109.609H85.7436V113.812H90.7827V115ZM98.9858 115V109.461C98.9858 108.763 98.8269 108.242 98.5092 107.898C98.1915 107.555 97.6941 107.383 97.017 107.383C96.1212 107.383 95.4649 107.625 95.0483 108.109C94.6316 108.594 94.4233 109.393 94.4233 110.508V115H93.1264V106.438H94.1811L94.392 107.609H94.4545C94.7202 107.188 95.0925 106.862 95.5717 106.633C96.0509 106.398 96.5847 106.281 97.1733 106.281C98.2045 106.281 98.9806 106.531 99.5014 107.031C100.022 107.526 100.283 108.32 100.283 109.414V115H98.9858ZM104.251 115H102.955V102.844H104.251V115ZM112.267 115L112.009 113.781H111.947C111.52 114.318 111.093 114.682 110.665 114.875C110.244 115.062 109.715 115.156 109.08 115.156C108.231 115.156 107.564 114.938 107.08 114.5C106.6 114.062 106.361 113.44 106.361 112.633C106.361 110.904 107.744 109.997 110.509 109.914L111.962 109.867V109.336C111.962 108.664 111.817 108.169 111.525 107.852C111.238 107.529 110.777 107.367 110.142 107.367C109.428 107.367 108.621 107.586 107.72 108.023L107.322 107.031C107.744 106.802 108.205 106.622 108.705 106.492C109.21 106.362 109.715 106.297 110.22 106.297C111.241 106.297 111.996 106.523 112.486 106.977C112.981 107.43 113.228 108.156 113.228 109.156V115H112.267ZM109.337 114.086C110.145 114.086 110.777 113.865 111.236 113.422C111.699 112.979 111.931 112.359 111.931 111.562V110.789L110.634 110.844C109.603 110.88 108.858 111.042 108.4 111.328C107.947 111.609 107.72 112.049 107.72 112.648C107.72 113.117 107.861 113.474 108.142 113.719C108.428 113.964 108.827 114.086 109.337 114.086ZM119.33 115.156C118.09 115.156 117.129 114.776 116.447 114.016C115.77 113.25 115.431 112.169 115.431 110.773C115.431 109.341 115.775 108.234 116.462 107.453C117.155 106.672 118.139 106.281 119.415 106.281C119.827 106.281 120.238 106.326 120.65 106.414C121.061 106.503 121.384 106.607 121.619 106.727L121.22 107.828C120.934 107.714 120.621 107.62 120.283 107.547C119.944 107.469 119.645 107.43 119.384 107.43C117.645 107.43 116.775 108.539 116.775 110.758C116.775 111.81 116.986 112.617 117.408 113.18C117.835 113.742 118.465 114.023 119.298 114.023C120.012 114.023 120.744 113.87 121.494 113.562V114.711C120.921 115.008 120.199 115.156 119.33 115.156ZM127.15 115.156C125.884 115.156 124.884 114.771 124.15 114C123.421 113.229 123.056 112.159 123.056 110.789C123.056 109.409 123.395 108.312 124.072 107.5C124.754 106.688 125.668 106.281 126.814 106.281C127.887 106.281 128.736 106.635 129.361 107.344C129.986 108.047 130.298 108.977 130.298 110.133V110.953H124.4C124.426 111.958 124.678 112.721 125.158 113.242C125.642 113.763 126.322 114.023 127.197 114.023C128.119 114.023 129.03 113.831 129.931 113.445V114.602C129.473 114.799 129.038 114.94 128.626 115.023C128.22 115.112 127.728 115.156 127.15 115.156ZM126.798 107.367C126.111 107.367 125.561 107.591 125.15 108.039C124.744 108.487 124.504 109.107 124.431 109.898H128.908C128.908 109.081 128.725 108.456 128.361 108.023C127.996 107.586 127.475 107.367 126.798 107.367ZM140.658 115.156C140.1 115.156 139.59 115.055 139.126 114.852C138.668 114.643 138.283 114.326 137.97 113.898H137.876C137.939 114.398 137.97 114.872 137.97 115.32V118.844H136.673V106.438H137.728L137.908 107.609H137.97C138.303 107.141 138.692 106.802 139.134 106.594C139.577 106.385 140.085 106.281 140.658 106.281C141.793 106.281 142.668 106.669 143.283 107.445C143.902 108.221 144.212 109.31 144.212 110.711C144.212 112.117 143.897 113.211 143.267 113.992C142.642 114.768 141.772 115.156 140.658 115.156ZM140.47 107.383C139.595 107.383 138.962 107.625 138.572 108.109C138.181 108.594 137.981 109.365 137.97 110.422V110.711C137.97 111.914 138.171 112.776 138.572 113.297C138.973 113.812 139.616 114.07 140.501 114.07C141.241 114.07 141.819 113.771 142.236 113.172C142.658 112.573 142.869 111.747 142.869 110.695C142.869 109.628 142.658 108.81 142.236 108.242C141.819 107.669 141.231 107.383 140.47 107.383ZM150.392 106.281C150.772 106.281 151.113 106.312 151.415 106.375L151.236 107.578C150.882 107.5 150.569 107.461 150.298 107.461C149.606 107.461 149.012 107.742 148.517 108.305C148.027 108.867 147.783 109.568 147.783 110.406V115H146.486V106.438H147.556L147.705 108.023H147.767C148.085 107.466 148.468 107.036 148.915 106.734C149.363 106.432 149.856 106.281 150.392 106.281ZM156.634 115.156C155.369 115.156 154.369 114.771 153.634 114C152.905 113.229 152.54 112.159 152.54 110.789C152.54 109.409 152.879 108.312 153.556 107.5C154.238 106.688 155.152 106.281 156.298 106.281C157.371 106.281 158.22 106.635 158.845 107.344C159.47 108.047 159.783 108.977 159.783 110.133V110.953H153.884C153.91 111.958 154.163 112.721 154.642 113.242C155.126 113.763 155.806 114.023 156.681 114.023C157.603 114.023 158.514 113.831 159.415 113.445V114.602C158.957 114.799 158.522 114.94 158.111 115.023C157.705 115.112 157.212 115.156 156.634 115.156ZM156.283 107.367C155.595 107.367 155.046 107.591 154.634 108.039C154.228 108.487 153.988 109.107 153.915 109.898H158.392C158.392 109.081 158.21 108.456 157.845 108.023C157.481 107.586 156.96 107.367 156.283 107.367ZM167.83 113.852H167.759C167.16 114.721 166.264 115.156 165.072 115.156C163.952 115.156 163.08 114.773 162.455 114.008C161.835 113.242 161.525 112.154 161.525 110.742C161.525 109.331 161.837 108.234 162.462 107.453C163.087 106.672 163.957 106.281 165.072 106.281C166.233 106.281 167.124 106.703 167.744 107.547H167.845L167.79 106.93L167.759 106.328V102.844H169.056V115H168.001L167.83 113.852ZM165.236 114.07C166.121 114.07 166.762 113.831 167.158 113.352C167.559 112.867 167.759 112.089 167.759 111.016V110.742C167.759 109.529 167.556 108.664 167.15 108.148C166.749 107.628 166.106 107.367 165.22 107.367C164.46 107.367 163.876 107.664 163.47 108.258C163.069 108.846 162.869 109.68 162.869 110.758C162.869 111.852 163.069 112.677 163.47 113.234C163.871 113.792 164.46 114.07 165.236 114.07ZM175.431 115.156C174.165 115.156 173.165 114.771 172.431 114C171.702 113.229 171.337 112.159 171.337 110.789C171.337 109.409 171.676 108.312 172.353 107.5C173.035 106.688 173.949 106.281 175.095 106.281C176.168 106.281 177.017 106.635 177.642 107.344C178.267 108.047 178.58 108.977 178.58 110.133V110.953H172.681C172.707 111.958 172.96 112.721 173.439 113.242C173.923 113.763 174.603 114.023 175.478 114.023C176.4 114.023 177.311 113.831 178.212 113.445V114.602C177.754 114.799 177.319 114.94 176.908 115.023C176.501 115.112 176.009 115.156 175.431 115.156ZM175.08 107.367C174.392 107.367 173.843 107.591 173.431 108.039C173.025 108.487 172.785 109.107 172.712 109.898H177.189C177.189 109.081 177.007 108.456 176.642 108.023C176.277 107.586 175.757 107.367 175.08 107.367ZM183.564 114.086C183.793 114.086 184.014 114.07 184.228 114.039C184.442 114.003 184.611 113.966 184.736 113.93V114.922C184.595 114.99 184.387 115.044 184.111 115.086C183.84 115.133 183.595 115.156 183.376 115.156C181.72 115.156 180.892 114.284 180.892 112.539V107.445H179.665V106.82L180.892 106.281L181.439 104.453H182.189V106.438H184.673V107.445H182.189V112.484C182.189 113 182.311 113.396 182.556 113.672C182.801 113.948 183.137 114.086 183.564 114.086ZM190.072 115.156C188.806 115.156 187.806 114.771 187.072 114C186.343 113.229 185.978 112.159 185.978 110.789C185.978 109.409 186.317 108.312 186.994 107.5C187.676 106.688 188.59 106.281 189.736 106.281C190.809 106.281 191.658 106.635 192.283 107.344C192.908 108.047 193.22 108.977 193.22 110.133V110.953H187.322C187.348 111.958 187.6 112.721 188.08 113.242C188.564 113.763 189.244 114.023 190.119 114.023C191.04 114.023 191.952 113.831 192.853 113.445V114.602C192.395 114.799 191.96 114.94 191.548 115.023C191.142 115.112 190.65 115.156 190.072 115.156ZM189.72 107.367C189.033 107.367 188.483 107.591 188.072 108.039C187.665 108.487 187.426 109.107 187.353 109.898H191.83C191.83 109.081 191.647 108.456 191.283 108.023C190.918 107.586 190.397 107.367 189.72 107.367ZM199.345 106.281C199.725 106.281 200.067 106.312 200.369 106.375L200.189 107.578C199.835 107.5 199.522 107.461 199.251 107.461C198.559 107.461 197.965 107.742 197.47 108.305C196.981 108.867 196.736 109.568 196.736 110.406V115H195.439V106.438H196.509L196.658 108.023H196.72C197.038 107.466 197.421 107.036 197.869 106.734C198.317 106.432 198.809 106.281 199.345 106.281ZM212.884 115V109.43C212.884 108.747 212.738 108.237 212.447 107.898C212.155 107.555 211.702 107.383 211.087 107.383C210.28 107.383 209.684 107.615 209.298 108.078C208.913 108.542 208.72 109.255 208.72 110.219V115H207.423V109.43C207.423 108.747 207.277 108.237 206.986 107.898C206.694 107.555 206.238 107.383 205.619 107.383C204.806 107.383 204.21 107.628 203.83 108.117C203.455 108.602 203.267 109.398 203.267 110.508V115H201.97V106.438H203.025L203.236 107.609H203.298C203.543 107.193 203.887 106.867 204.33 106.633C204.777 106.398 205.277 106.281 205.83 106.281C207.168 106.281 208.043 106.766 208.455 107.734H208.517C208.772 107.286 209.142 106.932 209.626 106.672C210.111 106.411 210.663 106.281 211.283 106.281C212.251 106.281 212.975 106.531 213.455 107.031C213.939 107.526 214.181 108.32 214.181 109.414V115H212.884ZM218.158 115H216.861V106.438H218.158V115ZM216.751 104.117C216.751 103.82 216.824 103.604 216.97 103.469C217.116 103.328 217.298 103.258 217.517 103.258C217.725 103.258 217.905 103.328 218.056 103.469C218.207 103.609 218.283 103.826 218.283 104.117C218.283 104.409 218.207 104.628 218.056 104.773C217.905 104.914 217.725 104.984 217.517 104.984C217.298 104.984 217.116 104.914 216.97 104.773C216.824 104.628 216.751 104.409 216.751 104.117ZM226.767 115V109.461C226.767 108.763 226.608 108.242 226.29 107.898C225.973 107.555 225.475 107.383 224.798 107.383C223.902 107.383 223.246 107.625 222.83 108.109C222.413 108.594 222.205 109.393 222.205 110.508V115H220.908V106.438H221.962L222.173 107.609H222.236C222.501 107.188 222.874 106.862 223.353 106.633C223.832 106.398 224.366 106.281 224.955 106.281C225.986 106.281 226.762 106.531 227.283 107.031C227.803 107.526 228.064 108.32 228.064 109.414V115H226.767ZM236.001 115L235.744 113.781H235.681C235.254 114.318 234.827 114.682 234.4 114.875C233.978 115.062 233.449 115.156 232.814 115.156C231.965 115.156 231.298 114.938 230.814 114.5C230.335 114.062 230.095 113.44 230.095 112.633C230.095 110.904 231.478 109.997 234.244 109.914L235.697 109.867V109.336C235.697 108.664 235.551 108.169 235.259 107.852C234.973 107.529 234.512 107.367 233.876 107.367C233.163 107.367 232.356 107.586 231.455 108.023L231.056 107.031C231.478 106.802 231.939 106.622 232.439 106.492C232.944 106.362 233.449 106.297 233.955 106.297C234.975 106.297 235.731 106.523 236.22 106.977C236.715 107.43 236.962 108.156 236.962 109.156V115H236.001ZM233.072 114.086C233.879 114.086 234.512 113.865 234.97 113.422C235.434 112.979 235.665 112.359 235.665 111.562V110.789L234.369 110.844C233.337 110.88 232.593 111.042 232.134 111.328C231.681 111.609 231.455 112.049 231.455 112.648C231.455 113.117 231.595 113.474 231.876 113.719C232.163 113.964 232.561 114.086 233.072 114.086ZM245.47 113.852H245.4C244.801 114.721 243.905 115.156 242.712 115.156C241.593 115.156 240.72 114.773 240.095 114.008C239.475 113.242 239.165 112.154 239.165 110.742C239.165 109.331 239.478 108.234 240.103 107.453C240.728 106.672 241.598 106.281 242.712 106.281C243.874 106.281 244.764 106.703 245.384 107.547H245.486L245.431 106.93L245.4 106.328V102.844H246.697V115H245.642L245.47 113.852ZM242.876 114.07C243.762 114.07 244.402 113.831 244.798 113.352C245.199 112.867 245.4 112.089 245.4 111.016V110.742C245.4 109.529 245.197 108.664 244.79 108.148C244.389 107.628 243.746 107.367 242.861 107.367C242.1 107.367 241.517 107.664 241.111 108.258C240.71 108.846 240.509 109.68 240.509 110.758C240.509 111.852 240.71 112.677 241.111 113.234C241.512 113.792 242.1 114.07 242.876 114.07ZM256.845 110.711C256.845 112.107 256.494 113.198 255.79 113.984C255.087 114.766 254.116 115.156 252.876 115.156C252.111 115.156 251.431 114.977 250.837 114.617C250.244 114.258 249.785 113.742 249.462 113.07C249.139 112.398 248.978 111.612 248.978 110.711C248.978 109.315 249.327 108.229 250.025 107.453C250.723 106.672 251.692 106.281 252.931 106.281C254.129 106.281 255.08 106.68 255.783 107.477C256.491 108.273 256.845 109.352 256.845 110.711ZM250.322 110.711C250.322 111.805 250.54 112.638 250.978 113.211C251.415 113.784 252.059 114.07 252.908 114.07C253.757 114.07 254.4 113.786 254.837 113.219C255.28 112.646 255.501 111.81 255.501 110.711C255.501 109.622 255.28 108.797 254.837 108.234C254.4 107.667 253.751 107.383 252.892 107.383C252.043 107.383 251.402 107.661 250.97 108.219C250.538 108.776 250.322 109.607 250.322 110.711Z" fill="#007BC7"/>
<path d="M82.8452 116.602H257.744V117.398H82.8452V116.602Z" fill="#007BC7"/>
<path d="M90.7827 155H84.4155V143.578H90.7827V144.758H85.7436V148.438H90.478V149.609H85.7436V153.812H90.7827V155ZM98.9858 155V149.461C98.9858 148.763 98.8269 148.242 98.5092 147.898C98.1915 147.555 97.6941 147.383 97.017 147.383C96.1212 147.383 95.4649 147.625 95.0483 148.109C94.6316 148.594 94.4233 149.393 94.4233 150.508V155H93.1264V146.438H94.1811L94.392 147.609H94.4545C94.7202 147.188 95.0925 146.862 95.5717 146.633C96.0509 146.398 96.5847 146.281 97.1733 146.281C98.2045 146.281 98.9806 146.531 99.5014 147.031C100.022 147.526 100.283 148.32 100.283 149.414V155H98.9858ZM104.251 155H102.955V142.844H104.251V155ZM112.267 155L112.009 153.781H111.947C111.52 154.318 111.093 154.682 110.665 154.875C110.244 155.062 109.715 155.156 109.08 155.156C108.231 155.156 107.564 154.938 107.08 154.5C106.6 154.062 106.361 153.44 106.361 152.633C106.361 150.904 107.744 149.997 110.509 149.914L111.962 149.867V149.336C111.962 148.664 111.817 148.169 111.525 147.852C111.238 147.529 110.777 147.367 110.142 147.367C109.428 147.367 108.621 147.586 107.72 148.023L107.322 147.031C107.744 146.802 108.205 146.622 108.705 146.492C109.21 146.362 109.715 146.297 110.22 146.297C111.241 146.297 111.996 146.523 112.486 146.977C112.981 147.43 113.228 148.156 113.228 149.156V155H112.267ZM109.337 154.086C110.145 154.086 110.777 153.865 111.236 153.422C111.699 152.979 111.931 152.359 111.931 151.562V150.789L110.634 150.844C109.603 150.88 108.858 151.042 108.4 151.328C107.947 151.609 107.72 152.049 107.72 152.648C107.72 153.117 107.861 153.474 108.142 153.719C108.428 153.964 108.827 154.086 109.337 154.086ZM119.33 155.156C118.09 155.156 117.129 154.776 116.447 154.016C115.77 153.25 115.431 152.169 115.431 150.773C115.431 149.341 115.775 148.234 116.462 147.453C117.155 146.672 118.139 146.281 119.415 146.281C119.827 146.281 120.238 146.326 120.65 146.414C121.061 146.503 121.384 146.607 121.619 146.727L121.22 147.828C120.934 147.714 120.621 147.62 120.283 147.547C119.944 147.469 119.645 147.43 119.384 147.43C117.645 147.43 116.775 148.539 116.775 150.758C116.775 151.81 116.986 152.617 117.408 153.18C117.835 153.742 118.465 154.023 119.298 154.023C120.012 154.023 120.744 153.87 121.494 153.562V154.711C120.921 155.008 120.199 155.156 119.33 155.156ZM127.15 155.156C125.884 155.156 124.884 154.771 124.15 154C123.421 153.229 123.056 152.159 123.056 150.789C123.056 149.409 123.395 148.312 124.072 147.5C124.754 146.688 125.668 146.281 126.814 146.281C127.887 146.281 128.736 146.635 129.361 147.344C129.986 148.047 130.298 148.977 130.298 150.133V150.953H124.4C124.426 151.958 124.678 152.721 125.158 153.242C125.642 153.763 126.322 154.023 127.197 154.023C128.119 154.023 129.03 153.831 129.931 153.445V154.602C129.473 154.799 129.038 154.94 128.626 155.023C128.22 155.112 127.728 155.156 127.15 155.156ZM126.798 147.367C126.111 147.367 125.561 147.591 125.15 148.039C124.744 148.487 124.504 149.107 124.431 149.898H128.908C128.908 149.081 128.725 148.456 128.361 148.023C127.996 147.586 127.475 147.367 126.798 147.367ZM140.658 155.156C140.1 155.156 139.59 155.055 139.126 154.852C138.668 154.643 138.283 154.326 137.97 153.898H137.876C137.939 154.398 137.97 154.872 137.97 155.32V158.844H136.673V146.438H137.728L137.908 147.609H137.97C138.303 147.141 138.692 146.802 139.134 146.594C139.577 146.385 140.085 146.281 140.658 146.281C141.793 146.281 142.668 146.669 143.283 147.445C143.902 148.221 144.212 149.31 144.212 150.711C144.212 152.117 143.897 153.211 143.267 153.992C142.642 154.768 141.772 155.156 140.658 155.156ZM140.47 147.383C139.595 147.383 138.962 147.625 138.572 148.109C138.181 148.594 137.981 149.365 137.97 150.422V150.711C137.97 151.914 138.171 152.776 138.572 153.297C138.973 153.812 139.616 154.07 140.501 154.07C141.241 154.07 141.819 153.771 142.236 153.172C142.658 152.573 142.869 151.747 142.869 150.695C142.869 149.628 142.658 148.81 142.236 148.242C141.819 147.669 141.231 147.383 140.47 147.383ZM150.392 146.281C150.772 146.281 151.113 146.312 151.415 146.375L151.236 147.578C150.882 147.5 150.569 147.461 150.298 147.461C149.606 147.461 149.012 147.742 148.517 148.305C148.027 148.867 147.783 149.568 147.783 150.406V155H146.486V146.438H147.556L147.705 148.023H147.767C148.085 147.466 148.468 147.036 148.915 146.734C149.363 146.432 149.856 146.281 150.392 146.281ZM156.634 155.156C155.369 155.156 154.369 154.771 153.634 154C152.905 153.229 152.54 152.159 152.54 150.789C152.54 149.409 152.879 148.312 153.556 147.5C154.238 146.688 155.152 146.281 156.298 146.281C157.371 146.281 158.22 146.635 158.845 147.344C159.47 148.047 159.783 148.977 159.783 150.133V150.953H153.884C153.91 151.958 154.163 152.721 154.642 153.242C155.126 153.763 155.806 154.023 156.681 154.023C157.603 154.023 158.514 153.831 159.415 153.445V154.602C158.957 154.799 158.522 154.94 158.111 155.023C157.705 155.112 157.212 155.156 156.634 155.156ZM156.283 147.367C155.595 147.367 155.046 147.591 154.634 148.039C154.228 148.487 153.988 149.107 153.915 149.898H158.392C158.392 149.081 158.21 148.456 157.845 148.023C157.481 147.586 156.96 147.367 156.283 147.367ZM167.83 153.852H167.759C167.16 154.721 166.264 155.156 165.072 155.156C163.952 155.156 163.08 154.773 162.455 154.008C161.835 153.242 161.525 152.154 161.525 150.742C161.525 149.331 161.837 148.234 162.462 147.453C163.087 146.672 163.957 146.281 165.072 146.281C166.233 146.281 167.124 146.703 167.744 147.547H167.845L167.79 146.93L167.759 146.328V142.844H169.056V155H168.001L167.83 153.852ZM165.236 154.07C166.121 154.07 166.762 153.831 167.158 153.352C167.559 152.867 167.759 152.089 167.759 151.016V150.742C167.759 149.529 167.556 148.664 167.15 148.148C166.749 147.628 166.106 147.367 165.22 147.367C164.46 147.367 163.876 147.664 163.47 148.258C163.069 148.846 162.869 149.68 162.869 150.758C162.869 151.852 163.069 152.677 163.47 153.234C163.871 153.792 164.46 154.07 165.236 154.07ZM175.431 155.156C174.165 155.156 173.165 154.771 172.431 154C171.702 153.229 171.337 152.159 171.337 150.789C171.337 149.409 171.676 148.312 172.353 147.5C173.035 146.688 173.949 146.281 175.095 146.281C176.168 146.281 177.017 146.635 177.642 147.344C178.267 148.047 178.58 148.977 178.58 150.133V150.953H172.681C172.707 151.958 172.96 152.721 173.439 153.242C173.923 153.763 174.603 154.023 175.478 154.023C176.4 154.023 177.311 153.831 178.212 153.445V154.602C177.754 154.799 177.319 154.94 176.908 155.023C176.501 155.112 176.009 155.156 175.431 155.156ZM175.08 147.367C174.392 147.367 173.843 147.591 173.431 148.039C173.025 148.487 172.785 149.107 172.712 149.898H177.189C177.189 149.081 177.007 148.456 176.642 148.023C176.277 147.586 175.757 147.367 175.08 147.367ZM183.564 154.086C183.793 154.086 184.014 154.07 184.228 154.039C184.442 154.003 184.611 153.966 184.736 153.93V154.922C184.595 154.99 184.387 155.044 184.111 155.086C183.84 155.133 183.595 155.156 183.376 155.156C181.72 155.156 180.892 154.284 180.892 152.539V147.445H179.665V146.82L180.892 146.281L181.439 144.453H182.189V146.438H184.673V147.445H182.189V152.484C182.189 153 182.311 153.396 182.556 153.672C182.801 153.948 183.137 154.086 183.564 154.086ZM190.072 155.156C188.806 155.156 187.806 154.771 187.072 154C186.343 153.229 185.978 152.159 185.978 150.789C185.978 149.409 186.317 148.312 186.994 147.5C187.676 146.688 188.59 146.281 189.736 146.281C190.809 146.281 191.658 146.635 192.283 147.344C192.908 148.047 193.22 148.977 193.22 150.133V150.953H187.322C187.348 151.958 187.6 152.721 188.08 153.242C188.564 153.763 189.244 154.023 190.119 154.023C191.04 154.023 191.952 153.831 192.853 153.445V154.602C192.395 154.799 191.96 154.94 191.548 155.023C191.142 155.112 190.65 155.156 190.072 155.156ZM189.72 147.367C189.033 147.367 188.483 147.591 188.072 148.039C187.665 148.487 187.426 149.107 187.353 149.898H191.83C191.83 149.081 191.647 148.456 191.283 148.023C190.918 147.586 190.397 147.367 189.72 147.367ZM199.345 146.281C199.725 146.281 200.067 146.312 200.369 146.375L200.189 147.578C199.835 147.5 199.522 147.461 199.251 147.461C198.559 147.461 197.965 147.742 197.47 148.305C196.981 148.867 196.736 149.568 196.736 150.406V155H195.439V146.438H196.509L196.658 148.023H196.72C197.038 147.466 197.421 147.036 197.869 146.734C198.317 146.432 198.809 146.281 199.345 146.281ZM212.884 155V149.43C212.884 148.747 212.738 148.237 212.447 147.898C212.155 147.555 211.702 147.383 211.087 147.383C210.28 147.383 209.684 147.615 209.298 148.078C208.913 148.542 208.72 149.255 208.72 150.219V155H207.423V149.43C207.423 148.747 207.277 148.237 206.986 147.898C206.694 147.555 206.238 147.383 205.619 147.383C204.806 147.383 204.21 147.628 203.83 148.117C203.455 148.602 203.267 149.398 203.267 150.508V155H201.97V146.438H203.025L203.236 147.609H203.298C203.543 147.193 203.887 146.867 204.33 146.633C204.777 146.398 205.277 146.281 205.83 146.281C207.168 146.281 208.043 146.766 208.455 147.734H208.517C208.772 147.286 209.142 146.932 209.626 146.672C210.111 146.411 210.663 146.281 211.283 146.281C212.251 146.281 212.975 146.531 213.455 147.031C213.939 147.526 214.181 148.32 214.181 149.414V155H212.884ZM218.158 155H216.861V146.438H218.158V155ZM216.751 144.117C216.751 143.82 216.824 143.604 216.97 143.469C217.116 143.328 217.298 143.258 217.517 143.258C217.725 143.258 217.905 143.328 218.056 143.469C218.207 143.609 218.283 143.826 218.283 144.117C218.283 144.409 218.207 144.628 218.056 144.773C217.905 144.914 217.725 144.984 217.517 144.984C217.298 144.984 217.116 144.914 216.97 144.773C216.824 144.628 216.751 144.409 216.751 144.117ZM226.767 155V149.461C226.767 148.763 226.608 148.242 226.29 147.898C225.973 147.555 225.475 147.383 224.798 147.383C223.902 147.383 223.246 147.625 222.83 148.109C222.413 148.594 222.205 149.393 222.205 150.508V155H220.908V146.438H221.962L222.173 147.609H222.236C222.501 147.188 222.874 146.862 223.353 146.633C223.832 146.398 224.366 146.281 224.955 146.281C225.986 146.281 226.762 146.531 227.283 147.031C227.803 147.526 228.064 148.32 228.064 149.414V155H226.767ZM236.001 155L235.744 153.781H235.681C235.254 154.318 234.827 154.682 234.4 154.875C233.978 155.062 233.449 155.156 232.814 155.156C231.965 155.156 231.298 154.938 230.814 154.5C230.335 154.062 230.095 153.44 230.095 152.633C230.095 150.904 231.478 149.997 234.244 149.914L235.697 149.867V149.336C235.697 148.664 235.551 148.169 235.259 147.852C234.973 147.529 234.512 147.367 233.876 147.367C233.163 147.367 232.356 147.586 231.455 148.023L231.056 147.031C231.478 146.802 231.939 146.622 232.439 146.492C232.944 146.362 233.449 146.297 233.955 146.297C234.975 146.297 235.731 146.523 236.22 146.977C236.715 147.43 236.962 148.156 236.962 149.156V155H236.001ZM233.072 154.086C233.879 154.086 234.512 153.865 234.97 153.422C235.434 152.979 235.665 152.359 235.665 151.562V150.789L234.369 150.844C233.337 150.88 232.593 151.042 232.134 151.328C231.681 151.609 231.455 152.049 231.455 152.648C231.455 153.117 231.595 153.474 231.876 153.719C232.163 153.964 232.561 154.086 233.072 154.086ZM245.47 153.852H245.4C244.801 154.721 243.905 155.156 242.712 155.156C241.593 155.156 240.72 154.773 240.095 154.008C239.475 153.242 239.165 152.154 239.165 150.742C239.165 149.331 239.478 148.234 240.103 147.453C240.728 146.672 241.598 146.281 242.712 146.281C243.874 146.281 244.764 146.703 245.384 147.547H245.486L245.431 146.93L245.4 146.328V142.844H246.697V155H245.642L245.47 153.852ZM242.876 154.07C243.762 154.07 244.402 153.831 244.798 153.352C245.199 152.867 245.4 152.089 245.4 151.016V150.742C245.4 149.529 245.197 148.664 244.79 148.148C244.389 147.628 243.746 147.367 242.861 147.367C242.1 147.367 241.517 147.664 241.111 148.258C240.71 148.846 240.509 149.68 240.509 150.758C240.509 151.852 240.71 152.677 241.111 153.234C241.512 153.792 242.1 154.07 242.876 154.07ZM256.845 150.711C256.845 152.107 256.494 153.198 255.79 153.984C255.087 154.766 254.116 155.156 252.876 155.156C252.111 155.156 251.431 154.977 250.837 154.617C250.244 154.258 249.785 153.742 249.462 153.07C249.139 152.398 248.978 151.612 248.978 150.711C248.978 149.315 249.327 148.229 250.025 147.453C250.723 146.672 251.692 146.281 252.931 146.281C254.129 146.281 255.08 146.68 255.783 147.477C256.491 148.273 256.845 149.352 256.845 150.711ZM250.322 150.711C250.322 151.805 250.54 152.638 250.978 153.211C251.415 153.784 252.059 154.07 252.908 154.07C253.757 154.07 254.4 153.786 254.837 153.219C255.28 152.646 255.501 151.81 255.501 150.711C255.501 149.622 255.28 148.797 254.837 148.234C254.4 147.667 253.751 147.383 252.892 147.383C252.043 147.383 251.402 147.661 250.97 148.219C250.538 148.776 250.322 149.607 250.322 150.711Z" fill="#007BC7"/>
<path d="M82.8452 156.602H257.744V157.398H82.8452V156.602Z" fill="#007BC7"/>
<path d="M90.7827 195H84.4155V183.578H90.7827V184.758H85.7436V188.438H90.478V189.609H85.7436V193.812H90.7827V195ZM98.9858 195V189.461C98.9858 188.763 98.8269 188.242 98.5092 187.898C98.1915 187.555 97.6941 187.383 97.017 187.383C96.1212 187.383 95.4649 187.625 95.0483 188.109C94.6316 188.594 94.4233 189.393 94.4233 190.508V195H93.1264V186.438H94.1811L94.392 187.609H94.4545C94.7202 187.188 95.0925 186.862 95.5717 186.633C96.0509 186.398 96.5847 186.281 97.1733 186.281C98.2045 186.281 98.9806 186.531 99.5014 187.031C100.022 187.526 100.283 188.32 100.283 189.414V195H98.9858ZM104.251 195H102.955V182.844H104.251V195ZM112.267 195L112.009 193.781H111.947C111.52 194.318 111.093 194.682 110.665 194.875C110.244 195.062 109.715 195.156 109.08 195.156C108.231 195.156 107.564 194.938 107.08 194.5C106.6 194.062 106.361 193.44 106.361 192.633C106.361 190.904 107.744 189.997 110.509 189.914L111.962 189.867V189.336C111.962 188.664 111.817 188.169 111.525 187.852C111.238 187.529 110.777 187.367 110.142 187.367C109.428 187.367 108.621 187.586 107.72 188.023L107.322 187.031C107.744 186.802 108.205 186.622 108.705 186.492C109.21 186.362 109.715 186.297 110.22 186.297C111.241 186.297 111.996 186.523 112.486 186.977C112.981 187.43 113.228 188.156 113.228 189.156V195H112.267ZM109.337 194.086C110.145 194.086 110.777 193.865 111.236 193.422C111.699 192.979 111.931 192.359 111.931 191.562V190.789L110.634 190.844C109.603 190.88 108.858 191.042 108.4 191.328C107.947 191.609 107.72 192.049 107.72 192.648C107.72 193.117 107.861 193.474 108.142 193.719C108.428 193.964 108.827 194.086 109.337 194.086ZM119.33 195.156C118.09 195.156 117.129 194.776 116.447 194.016C115.77 193.25 115.431 192.169 115.431 190.773C115.431 189.341 115.775 188.234 116.462 187.453C117.155 186.672 118.139 186.281 119.415 186.281C119.827 186.281 120.238 186.326 120.65 186.414C121.061 186.503 121.384 186.607 121.619 186.727L121.22 187.828C120.934 187.714 120.621 187.62 120.283 187.547C119.944 187.469 119.645 187.43 119.384 187.43C117.645 187.43 116.775 188.539 116.775 190.758C116.775 191.81 116.986 192.617 117.408 193.18C117.835 193.742 118.465 194.023 119.298 194.023C120.012 194.023 120.744 193.87 121.494 193.562V194.711C120.921 195.008 120.199 195.156 119.33 195.156ZM127.15 195.156C125.884 195.156 124.884 194.771 124.15 194C123.421 193.229 123.056 192.159 123.056 190.789C123.056 189.409 123.395 188.312 124.072 187.5C124.754 186.688 125.668 186.281 126.814 186.281C127.887 186.281 128.736 186.635 129.361 187.344C129.986 188.047 130.298 188.977 130.298 190.133V190.953H124.4C124.426 191.958 124.678 192.721 125.158 193.242C125.642 193.763 126.322 194.023 127.197 194.023C128.119 194.023 129.03 193.831 129.931 193.445V194.602C129.473 194.799 129.038 194.94 128.626 195.023C128.22 195.112 127.728 195.156 127.15 195.156ZM126.798 187.367C126.111 187.367 125.561 187.591 125.15 188.039C124.744 188.487 124.504 189.107 124.431 189.898H128.908C128.908 189.081 128.725 188.456 128.361 188.023C127.996 187.586 127.475 187.367 126.798 187.367ZM140.658 195.156C140.1 195.156 139.59 195.055 139.126 194.852C138.668 194.643 138.283 194.326 137.97 193.898H137.876C137.939 194.398 137.97 194.872 137.97 195.32V198.844H136.673V186.438H137.728L137.908 187.609H137.97C138.303 187.141 138.692 186.802 139.134 186.594C139.577 186.385 140.085 186.281 140.658 186.281C141.793 186.281 142.668 186.669 143.283 187.445C143.902 188.221 144.212 189.31 144.212 190.711C144.212 192.117 143.897 193.211 143.267 193.992C142.642 194.768 141.772 195.156 140.658 195.156ZM140.47 187.383C139.595 187.383 138.962 187.625 138.572 188.109C138.181 188.594 137.981 189.365 137.97 190.422V190.711C137.97 191.914 138.171 192.776 138.572 193.297C138.973 193.812 139.616 194.07 140.501 194.07C141.241 194.07 141.819 193.771 142.236 193.172C142.658 192.573 142.869 191.747 142.869 190.695C142.869 189.628 142.658 188.81 142.236 188.242C141.819 187.669 141.231 187.383 140.47 187.383ZM150.392 186.281C150.772 186.281 151.113 186.312 151.415 186.375L151.236 187.578C150.882 187.5 150.569 187.461 150.298 187.461C149.606 187.461 149.012 187.742 148.517 188.305C148.027 188.867 147.783 189.568 147.783 190.406V195H146.486V186.438H147.556L147.705 188.023H147.767C148.085 187.466 148.468 187.036 148.915 186.734C149.363 186.432 149.856 186.281 150.392 186.281ZM156.634 195.156C155.369 195.156 154.369 194.771 153.634 194C152.905 193.229 152.54 192.159 152.54 190.789C152.54 189.409 152.879 188.312 153.556 187.5C154.238 186.688 155.152 186.281 156.298 186.281C157.371 186.281 158.22 186.635 158.845 187.344C159.47 188.047 159.783 188.977 159.783 190.133V190.953H153.884C153.91 191.958 154.163 192.721 154.642 193.242C155.126 193.763 155.806 194.023 156.681 194.023C157.603 194.023 158.514 193.831 159.415 193.445V194.602C158.957 194.799 158.522 194.94 158.111 195.023C157.705 195.112 157.212 195.156 156.634 195.156ZM156.283 187.367C155.595 187.367 155.046 187.591 154.634 188.039C154.228 188.487 153.988 189.107 153.915 189.898H158.392C158.392 189.081 158.21 188.456 157.845 188.023C157.481 187.586 156.96 187.367 156.283 187.367ZM167.83 193.852H167.759C167.16 194.721 166.264 195.156 165.072 195.156C163.952 195.156 163.08 194.773 162.455 194.008C161.835 193.242 161.525 192.154 161.525 190.742C161.525 189.331 161.837 188.234 162.462 187.453C163.087 186.672 163.957 186.281 165.072 186.281C166.233 186.281 167.124 186.703 167.744 187.547H167.845L167.79 186.93L167.759 186.328V182.844H169.056V195H168.001L167.83 193.852ZM165.236 194.07C166.121 194.07 166.762 193.831 167.158 193.352C167.559 192.867 167.759 192.089 167.759 191.016V190.742C167.759 189.529 167.556 188.664 167.15 188.148C166.749 187.628 166.106 187.367 165.22 187.367C164.46 187.367 163.876 187.664 163.47 188.258C163.069 188.846 162.869 189.68 162.869 190.758C162.869 191.852 163.069 192.677 163.47 193.234C163.871 193.792 164.46 194.07 165.236 194.07ZM175.431 195.156C174.165 195.156 173.165 194.771 172.431 194C171.702 193.229 171.337 192.159 171.337 190.789C171.337 189.409 171.676 188.312 172.353 187.5C173.035 186.688 173.949 186.281 175.095 186.281C176.168 186.281 177.017 186.635 177.642 187.344C178.267 188.047 178.58 188.977 178.58 190.133V190.953H172.681C172.707 191.958 172.96 192.721 173.439 193.242C173.923 193.763 174.603 194.023 175.478 194.023C176.4 194.023 177.311 193.831 178.212 193.445V194.602C177.754 194.799 177.319 194.94 176.908 195.023C176.501 195.112 176.009 195.156 175.431 195.156ZM175.08 187.367C174.392 187.367 173.843 187.591 173.431 188.039C173.025 188.487 172.785 189.107 172.712 189.898H177.189C177.189 189.081 177.007 188.456 176.642 188.023C176.277 187.586 175.757 187.367 175.08 187.367ZM183.564 194.086C183.793 194.086 184.014 194.07 184.228 194.039C184.442 194.003 184.611 193.966 184.736 193.93V194.922C184.595 194.99 184.387 195.044 184.111 195.086C183.84 195.133 183.595 195.156 183.376 195.156C181.72 195.156 180.892 194.284 180.892 192.539V187.445H179.665V186.82L180.892 186.281L181.439 184.453H182.189V186.438H184.673V187.445H182.189V192.484C182.189 193 182.311 193.396 182.556 193.672C182.801 193.948 183.137 194.086 183.564 194.086ZM190.072 195.156C188.806 195.156 187.806 194.771 187.072 194C186.343 193.229 185.978 192.159 185.978 190.789C185.978 189.409 186.317 188.312 186.994 187.5C187.676 186.688 188.59 186.281 189.736 186.281C190.809 186.281 191.658 186.635 192.283 187.344C192.908 188.047 193.22 188.977 193.22 190.133V190.953H187.322C187.348 191.958 187.6 192.721 188.08 193.242C188.564 193.763 189.244 194.023 190.119 194.023C191.04 194.023 191.952 193.831 192.853 193.445V194.602C192.395 194.799 191.96 194.94 191.548 195.023C191.142 195.112 190.65 195.156 190.072 195.156ZM189.72 187.367C189.033 187.367 188.483 187.591 188.072 188.039C187.665 188.487 187.426 189.107 187.353 189.898H191.83C191.83 189.081 191.647 188.456 191.283 188.023C190.918 187.586 190.397 187.367 189.72 187.367ZM199.345 186.281C199.725 186.281 200.067 186.312 200.369 186.375L200.189 187.578C199.835 187.5 199.522 187.461 199.251 187.461C198.559 187.461 197.965 187.742 197.47 188.305C196.981 188.867 196.736 189.568 196.736 190.406V195H195.439V186.438H196.509L196.658 188.023H196.72C197.038 187.466 197.421 187.036 197.869 186.734C198.317 186.432 198.809 186.281 199.345 186.281ZM212.884 195V189.43C212.884 188.747 212.738 188.237 212.447 187.898C212.155 187.555 211.702 187.383 211.087 187.383C210.28 187.383 209.684 187.615 209.298 188.078C208.913 188.542 208.72 189.255 208.72 190.219V195H207.423V189.43C207.423 188.747 207.277 188.237 206.986 187.898C206.694 187.555 206.238 187.383 205.619 187.383C204.806 187.383 204.21 187.628 203.83 188.117C203.455 188.602 203.267 189.398 203.267 190.508V195H201.97V186.438H203.025L203.236 187.609H203.298C203.543 187.193 203.887 186.867 204.33 186.633C204.777 186.398 205.277 186.281 205.83 186.281C207.168 186.281 208.043 186.766 208.455 187.734H208.517C208.772 187.286 209.142 186.932 209.626 186.672C210.111 186.411 210.663 186.281 211.283 186.281C212.251 186.281 212.975 186.531 213.455 187.031C213.939 187.526 214.181 188.32 214.181 189.414V195H212.884ZM218.158 195H216.861V186.438H218.158V195ZM216.751 184.117C216.751 183.82 216.824 183.604 216.97 183.469C217.116 183.328 217.298 183.258 217.517 183.258C217.725 183.258 217.905 183.328 218.056 183.469C218.207 183.609 218.283 183.826 218.283 184.117C218.283 184.409 218.207 184.628 218.056 184.773C217.905 184.914 217.725 184.984 217.517 184.984C217.298 184.984 217.116 184.914 216.97 184.773C216.824 184.628 216.751 184.409 216.751 184.117ZM226.767 195V189.461C226.767 188.763 226.608 188.242 226.29 187.898C225.973 187.555 225.475 187.383 224.798 187.383C223.902 187.383 223.246 187.625 222.83 188.109C222.413 188.594 222.205 189.393 222.205 190.508V195H220.908V186.438H221.962L222.173 187.609H222.236C222.501 187.188 222.874 186.862 223.353 186.633C223.832 186.398 224.366 186.281 224.955 186.281C225.986 186.281 226.762 186.531 227.283 187.031C227.803 187.526 228.064 188.32 228.064 189.414V195H226.767ZM236.001 195L235.744 193.781H235.681C235.254 194.318 234.827 194.682 234.4 194.875C233.978 195.062 233.449 195.156 232.814 195.156C231.965 195.156 231.298 194.938 230.814 194.5C230.335 194.062 230.095 193.44 230.095 192.633C230.095 190.904 231.478 189.997 234.244 189.914L235.697 189.867V189.336C235.697 188.664 235.551 188.169 235.259 187.852C234.973 187.529 234.512 187.367 233.876 187.367C233.163 187.367 232.356 187.586 231.455 188.023L231.056 187.031C231.478 186.802 231.939 186.622 232.439 186.492C232.944 186.362 233.449 186.297 233.955 186.297C234.975 186.297 235.731 186.523 236.22 186.977C236.715 187.43 236.962 188.156 236.962 189.156V195H236.001ZM233.072 194.086C233.879 194.086 234.512 193.865 234.97 193.422C235.434 192.979 235.665 192.359 235.665 191.562V190.789L234.369 190.844C233.337 190.88 232.593 191.042 232.134 191.328C231.681 191.609 231.455 192.049 231.455 192.648C231.455 193.117 231.595 193.474 231.876 193.719C232.163 193.964 232.561 194.086 233.072 194.086ZM245.47 193.852H245.4C244.801 194.721 243.905 195.156 242.712 195.156C241.593 195.156 240.72 194.773 240.095 194.008C239.475 193.242 239.165 192.154 239.165 190.742C239.165 189.331 239.478 188.234 240.103 187.453C240.728 186.672 241.598 186.281 242.712 186.281C243.874 186.281 244.764 186.703 245.384 187.547H245.486L245.431 186.93L245.4 186.328V182.844H246.697V195H245.642L245.47 193.852ZM242.876 194.07C243.762 194.07 244.402 193.831 244.798 193.352C245.199 192.867 245.4 192.089 245.4 191.016V190.742C245.4 189.529 245.197 188.664 244.79 188.148C244.389 187.628 243.746 187.367 242.861 187.367C242.1 187.367 241.517 187.664 241.111 188.258C240.71 188.846 240.509 189.68 240.509 190.758C240.509 191.852 240.71 192.677 241.111 193.234C241.512 193.792 242.1 194.07 242.876 194.07ZM256.845 190.711C256.845 192.107 256.494 193.198 255.79 193.984C255.087 194.766 254.116 195.156 252.876 195.156C252.111 195.156 251.431 194.977 250.837 194.617C250.244 194.258 249.785 193.742 249.462 193.07C249.139 192.398 248.978 191.612 248.978 190.711C248.978 189.315 249.327 188.229 250.025 187.453C250.723 186.672 251.692 186.281 252.931 186.281C254.129 186.281 255.08 186.68 255.783 187.477C256.491 188.273 256.845 189.352 256.845 190.711ZM250.322 190.711C250.322 191.805 250.54 192.638 250.978 193.211C251.415 193.784 252.059 194.07 252.908 194.07C253.757 194.07 254.4 193.786 254.837 193.219C255.28 192.646 255.501 191.81 255.501 190.711C255.501 189.622 255.28 188.797 254.837 188.234C254.4 187.667 253.751 187.383 252.892 187.383C252.043 187.383 251.402 187.661 250.97 188.219C250.538 188.776 250.322 189.607 250.322 190.711Z" fill="#007BC7"/>
<path d="M82.8452 196.602H257.744V197.398H82.8452V196.602Z" fill="#007BC7"/>
<path d="M90.7827 235H84.4155V223.578H90.7827V224.758H85.7436V228.438H90.478V229.609H85.7436V233.812H90.7827V235ZM98.9858 235V229.461C98.9858 228.763 98.8269 228.242 98.5092 227.898C98.1915 227.555 97.6941 227.383 97.017 227.383C96.1212 227.383 95.4649 227.625 95.0483 228.109C94.6316 228.594 94.4233 229.393 94.4233 230.508V235H93.1264V226.438H94.1811L94.392 227.609H94.4545C94.7202 227.188 95.0925 226.862 95.5717 226.633C96.0509 226.398 96.5847 226.281 97.1733 226.281C98.2045 226.281 98.9806 226.531 99.5014 227.031C100.022 227.526 100.283 228.32 100.283 229.414V235H98.9858ZM104.251 235H102.955V222.844H104.251V235ZM112.267 235L112.009 233.781H111.947C111.52 234.318 111.093 234.682 110.665 234.875C110.244 235.062 109.715 235.156 109.08 235.156C108.231 235.156 107.564 234.938 107.08 234.5C106.6 234.062 106.361 233.44 106.361 232.633C106.361 230.904 107.744 229.997 110.509 229.914L111.962 229.867V229.336C111.962 228.664 111.817 228.169 111.525 227.852C111.238 227.529 110.777 227.367 110.142 227.367C109.428 227.367 108.621 227.586 107.72 228.023L107.322 227.031C107.744 226.802 108.205 226.622 108.705 226.492C109.21 226.362 109.715 226.297 110.22 226.297C111.241 226.297 111.996 226.523 112.486 226.977C112.981 227.43 113.228 228.156 113.228 229.156V235H112.267ZM109.337 234.086C110.145 234.086 110.777 233.865 111.236 233.422C111.699 232.979 111.931 232.359 111.931 231.562V230.789L110.634 230.844C109.603 230.88 108.858 231.042 108.4 231.328C107.947 231.609 107.72 232.049 107.72 232.648C107.72 233.117 107.861 233.474 108.142 233.719C108.428 233.964 108.827 234.086 109.337 234.086ZM119.33 235.156C118.09 235.156 117.129 234.776 116.447 234.016C115.77 233.25 115.431 232.169 115.431 230.773C115.431 229.341 115.775 228.234 116.462 227.453C117.155 226.672 118.139 226.281 119.415 226.281C119.827 226.281 120.238 226.326 120.65 226.414C121.061 226.503 121.384 226.607 121.619 226.727L121.22 227.828C120.934 227.714 120.621 227.62 120.283 227.547C119.944 227.469 119.645 227.43 119.384 227.43C117.645 227.43 116.775 228.539 116.775 230.758C116.775 231.81 116.986 232.617 117.408 233.18C117.835 233.742 118.465 234.023 119.298 234.023C120.012 234.023 120.744 233.87 121.494 233.562V234.711C120.921 235.008 120.199 235.156 119.33 235.156ZM127.15 235.156C125.884 235.156 124.884 234.771 124.15 234C123.421 233.229 123.056 232.159 123.056 230.789C123.056 229.409 123.395 228.312 124.072 227.5C124.754 226.688 125.668 226.281 126.814 226.281C127.887 226.281 128.736 226.635 129.361 227.344C129.986 228.047 130.298 228.977 130.298 230.133V230.953H124.4C124.426 231.958 124.678 232.721 125.158 233.242C125.642 233.763 126.322 234.023 127.197 234.023C128.119 234.023 129.03 233.831 129.931 233.445V234.602C129.473 234.799 129.038 234.94 128.626 235.023C128.22 235.112 127.728 235.156 127.15 235.156ZM126.798 227.367C126.111 227.367 125.561 227.591 125.15 228.039C124.744 228.487 124.504 229.107 124.431 229.898H128.908C128.908 229.081 128.725 228.456 128.361 228.023C127.996 227.586 127.475 227.367 126.798 227.367ZM140.658 235.156C140.1 235.156 139.59 235.055 139.126 234.852C138.668 234.643 138.283 234.326 137.97 233.898H137.876C137.939 234.398 137.97 234.872 137.97 235.32V238.844H136.673V226.438H137.728L137.908 227.609H137.97C138.303 227.141 138.692 226.802 139.134 226.594C139.577 226.385 140.085 226.281 140.658 226.281C141.793 226.281 142.668 226.669 143.283 227.445C143.902 228.221 144.212 229.31 144.212 230.711C144.212 232.117 143.897 233.211 143.267 233.992C142.642 234.768 141.772 235.156 140.658 235.156ZM140.47 227.383C139.595 227.383 138.962 227.625 138.572 228.109C138.181 228.594 137.981 229.365 137.97 230.422V230.711C137.97 231.914 138.171 232.776 138.572 233.297C138.973 233.812 139.616 234.07 140.501 234.07C141.241 234.07 141.819 233.771 142.236 233.172C142.658 232.573 142.869 231.747 142.869 230.695C142.869 229.628 142.658 228.81 142.236 228.242C141.819 227.669 141.231 227.383 140.47 227.383ZM150.392 226.281C150.772 226.281 151.113 226.312 151.415 226.375L151.236 227.578C150.882 227.5 150.569 227.461 150.298 227.461C149.606 227.461 149.012 227.742 148.517 228.305C148.027 228.867 147.783 229.568 147.783 230.406V235H146.486V226.438H147.556L147.705 228.023H147.767C148.085 227.466 148.468 227.036 148.915 226.734C149.363 226.432 149.856 226.281 150.392 226.281ZM156.634 235.156C155.369 235.156 154.369 234.771 153.634 234C152.905 233.229 152.54 232.159 152.54 230.789C152.54 229.409 152.879 228.312 153.556 227.5C154.238 226.688 155.152 226.281 156.298 226.281C157.371 226.281 158.22 226.635 158.845 227.344C159.47 228.047 159.783 228.977 159.783 230.133V230.953H153.884C153.91 231.958 154.163 232.721 154.642 233.242C155.126 233.763 155.806 234.023 156.681 234.023C157.603 234.023 158.514 233.831 159.415 233.445V234.602C158.957 234.799 158.522 234.94 158.111 235.023C157.705 235.112 157.212 235.156 156.634 235.156ZM156.283 227.367C155.595 227.367 155.046 227.591 154.634 228.039C154.228 228.487 153.988 229.107 153.915 229.898H158.392C158.392 229.081 158.21 228.456 157.845 228.023C157.481 227.586 156.96 227.367 156.283 227.367ZM167.83 233.852H167.759C167.16 234.721 166.264 235.156 165.072 235.156C163.952 235.156 163.08 234.773 162.455 234.008C161.835 233.242 161.525 232.154 161.525 230.742C161.525 229.331 161.837 228.234 162.462 227.453C163.087 226.672 163.957 226.281 165.072 226.281C166.233 226.281 167.124 226.703 167.744 227.547H167.845L167.79 226.93L167.759 226.328V222.844H169.056V235H168.001L167.83 233.852ZM165.236 234.07C166.121 234.07 166.762 233.831 167.158 233.352C167.559 232.867 167.759 232.089 167.759 231.016V230.742C167.759 229.529 167.556 228.664 167.15 228.148C166.749 227.628 166.106 227.367 165.22 227.367C164.46 227.367 163.876 227.664 163.47 228.258C163.069 228.846 162.869 229.68 162.869 230.758C162.869 231.852 163.069 232.677 163.47 233.234C163.871 233.792 164.46 234.07 165.236 234.07ZM175.431 235.156C174.165 235.156 173.165 234.771 172.431 234C171.702 233.229 171.337 232.159 171.337 230.789C171.337 229.409 171.676 228.312 172.353 227.5C173.035 226.688 173.949 226.281 175.095 226.281C176.168 226.281 177.017 226.635 177.642 227.344C178.267 228.047 178.58 228.977 178.58 230.133V230.953H172.681C172.707 231.958 172.96 232.721 173.439 233.242C173.923 233.763 174.603 234.023 175.478 234.023C176.4 234.023 177.311 233.831 178.212 233.445V234.602C177.754 234.799 177.319 234.94 176.908 235.023C176.501 235.112 176.009 235.156 175.431 235.156ZM175.08 227.367C174.392 227.367 173.843 227.591 173.431 228.039C173.025 228.487 172.785 229.107 172.712 229.898H177.189C177.189 229.081 177.007 228.456 176.642 228.023C176.277 227.586 175.757 227.367 175.08 227.367ZM183.564 234.086C183.793 234.086 184.014 234.07 184.228 234.039C184.442 234.003 184.611 233.966 184.736 233.93V234.922C184.595 234.99 184.387 235.044 184.111 235.086C183.84 235.133 183.595 235.156 183.376 235.156C181.72 235.156 180.892 234.284 180.892 232.539V227.445H179.665V226.82L180.892 226.281L181.439 224.453H182.189V226.438H184.673V227.445H182.189V232.484C182.189 233 182.311 233.396 182.556 233.672C182.801 233.948 183.137 234.086 183.564 234.086ZM190.072 235.156C188.806 235.156 187.806 234.771 187.072 234C186.343 233.229 185.978 232.159 185.978 230.789C185.978 229.409 186.317 228.312 186.994 227.5C187.676 226.688 188.59 226.281 189.736 226.281C190.809 226.281 191.658 226.635 192.283 227.344C192.908 228.047 193.22 228.977 193.22 230.133V230.953H187.322C187.348 231.958 187.6 232.721 188.08 233.242C188.564 233.763 189.244 234.023 190.119 234.023C191.04 234.023 191.952 233.831 192.853 233.445V234.602C192.395 234.799 191.96 234.94 191.548 235.023C191.142 235.112 190.65 235.156 190.072 235.156ZM189.72 227.367C189.033 227.367 188.483 227.591 188.072 228.039C187.665 228.487 187.426 229.107 187.353 229.898H191.83C191.83 229.081 191.647 228.456 191.283 228.023C190.918 227.586 190.397 227.367 189.72 227.367ZM199.345 226.281C199.725 226.281 200.067 226.312 200.369 226.375L200.189 227.578C199.835 227.5 199.522 227.461 199.251 227.461C198.559 227.461 197.965 227.742 197.47 228.305C196.981 228.867 196.736 229.568 196.736 230.406V235H195.439V226.438H196.509L196.658 228.023H196.72C197.038 227.466 197.421 227.036 197.869 226.734C198.317 226.432 198.809 226.281 199.345 226.281ZM212.884 235V229.43C212.884 228.747 212.738 228.237 212.447 227.898C212.155 227.555 211.702 227.383 211.087 227.383C210.28 227.383 209.684 227.615 209.298 228.078C208.913 228.542 208.72 229.255 208.72 230.219V235H207.423V229.43C207.423 228.747 207.277 228.237 206.986 227.898C206.694 227.555 206.238 227.383 205.619 227.383C204.806 227.383 204.21 227.628 203.83 228.117C203.455 228.602 203.267 229.398 203.267 230.508V235H201.97V226.438H203.025L203.236 227.609H203.298C203.543 227.193 203.887 226.867 204.33 226.633C204.777 226.398 205.277 226.281 205.83 226.281C207.168 226.281 208.043 226.766 208.455 227.734H208.517C208.772 227.286 209.142 226.932 209.626 226.672C210.111 226.411 210.663 226.281 211.283 226.281C212.251 226.281 212.975 226.531 213.455 227.031C213.939 227.526 214.181 228.32 214.181 229.414V235H212.884ZM218.158 235H216.861V226.438H218.158V235ZM216.751 224.117C216.751 223.82 216.824 223.604 216.97 223.469C217.116 223.328 217.298 223.258 217.517 223.258C217.725 223.258 217.905 223.328 218.056 223.469C218.207 223.609 218.283 223.826 218.283 224.117C218.283 224.409 218.207 224.628 218.056 224.773C217.905 224.914 217.725 224.984 217.517 224.984C217.298 224.984 217.116 224.914 216.97 224.773C216.824 224.628 216.751 224.409 216.751 224.117ZM226.767 235V229.461C226.767 228.763 226.608 228.242 226.29 227.898C225.973 227.555 225.475 227.383 224.798 227.383C223.902 227.383 223.246 227.625 222.83 228.109C222.413 228.594 222.205 229.393 222.205 230.508V235H220.908V226.438H221.962L222.173 227.609H222.236C222.501 227.188 222.874 226.862 223.353 226.633C223.832 226.398 224.366 226.281 224.955 226.281C225.986 226.281 226.762 226.531 227.283 227.031C227.803 227.526 228.064 228.32 228.064 229.414V235H226.767ZM236.001 235L235.744 233.781H235.681C235.254 234.318 234.827 234.682 234.4 234.875C233.978 235.062 233.449 235.156 232.814 235.156C231.965 235.156 231.298 234.938 230.814 234.5C230.335 234.062 230.095 233.44 230.095 232.633C230.095 230.904 231.478 229.997 234.244 229.914L235.697 229.867V229.336C235.697 228.664 235.551 228.169 235.259 227.852C234.973 227.529 234.512 227.367 233.876 227.367C233.163 227.367 232.356 227.586 231.455 228.023L231.056 227.031C231.478 226.802 231.939 226.622 232.439 226.492C232.944 226.362 233.449 226.297 233.955 226.297C234.975 226.297 235.731 226.523 236.22 226.977C236.715 227.43 236.962 228.156 236.962 229.156V235H236.001ZM233.072 234.086C233.879 234.086 234.512 233.865 234.97 233.422C235.434 232.979 235.665 232.359 235.665 231.562V230.789L234.369 230.844C233.337 230.88 232.593 231.042 232.134 231.328C231.681 231.609 231.455 232.049 231.455 232.648C231.455 233.117 231.595 233.474 231.876 233.719C232.163 233.964 232.561 234.086 233.072 234.086ZM245.47 233.852H245.4C244.801 234.721 243.905 235.156 242.712 235.156C241.593 235.156 240.72 234.773 240.095 234.008C239.475 233.242 239.165 232.154 239.165 230.742C239.165 229.331 239.478 228.234 240.103 227.453C240.728 226.672 241.598 226.281 242.712 226.281C243.874 226.281 244.764 226.703 245.384 227.547H245.486L245.431 226.93L245.4 226.328V222.844H246.697V235H245.642L245.47 233.852ZM242.876 234.07C243.762 234.07 244.402 233.831 244.798 233.352C245.199 232.867 245.4 232.089 245.4 231.016V230.742C245.4 229.529 245.197 228.664 244.79 228.148C244.389 227.628 243.746 227.367 242.861 227.367C242.1 227.367 241.517 227.664 241.111 228.258C240.71 228.846 240.509 229.68 240.509 230.758C240.509 231.852 240.71 232.677 241.111 233.234C241.512 233.792 242.1 234.07 242.876 234.07ZM256.845 230.711C256.845 232.107 256.494 233.198 255.79 233.984C255.087 234.766 254.116 235.156 252.876 235.156C252.111 235.156 251.431 234.977 250.837 234.617C250.244 234.258 249.785 233.742 249.462 233.07C249.139 232.398 248.978 231.612 248.978 230.711C248.978 229.315 249.327 228.229 250.025 227.453C250.723 226.672 251.692 226.281 252.931 226.281C254.129 226.281 255.08 226.68 255.783 227.477C256.491 228.273 256.845 229.352 256.845 230.711ZM250.322 230.711C250.322 231.805 250.54 232.638 250.978 233.211C251.415 233.784 252.059 234.07 252.908 234.07C253.757 234.07 254.4 233.786 254.837 233.219C255.28 232.646 255.501 231.81 255.501 230.711C255.501 229.622 255.28 228.797 254.837 228.234C254.4 227.667 253.751 227.383 252.892 227.383C252.043 227.383 251.402 227.661 250.97 228.219C250.538 228.776 250.322 229.607 250.322 230.711Z" fill="#007BC7"/>
<path d="M82.8452 236.602H257.744V237.398H82.8452V236.602Z" fill="#007BC7"/>
</svg>
