<svg width="340" height="262" viewBox="0 0 340 262" fill="none" xmlns="http://www.w3.org/2000/svg">
<g clip-path="url(#clip0_5017_394)">
<path d="M3.82022 1H336.18C336.292 1 336.54 1.06244 336.898 1.49287C337.251 1.91738 337.614 2.5916 337.938 3.51268C338.583 5.34574 339 7.94339 339 10.8601V251.14C339 254.057 338.583 256.654 337.938 258.487C337.614 259.408 337.251 260.083 336.898 260.507C336.54 260.938 336.292 261 336.18 261H3.82022C3.70758 261 3.46005 260.938 3.10207 260.507C2.74901 260.083 2.38626 259.408 2.06226 258.487C1.41745 256.654 1 254.057 1 251.14V10.8601C1 7.9434 1.41745 5.34574 2.06226 3.51269C2.38626 2.5916 2.74901 1.91738 3.10207 1.49287C3.46005 1.06244 3.70758 1 3.82022 1Z" fill="white" stroke="#E6EBF0" stroke-width="2"/>
</g>
<path d="M86.868 55.09C87.176 55.09 87.428 55.195 87.624 55.405C87.82 55.601 87.918 55.86 87.918 56.182V69.076C87.918 69.398 87.827 69.65 87.645 69.832C87.477 70.014 87.239 70.105 86.931 70.105C86.637 70.105 86.406 70.014 86.238 69.832C86.07 69.65 85.986 69.398 85.986 69.076V59.311L81.87 67.144C81.604 67.634 81.261 67.879 80.841 67.879C80.421 67.879 80.078 67.634 79.812 67.144L75.675 59.395V69.076C75.675 69.398 75.591 69.65 75.423 69.832C75.255 70.014 75.017 70.105 74.709 70.105C74.415 70.105 74.177 70.014 73.995 69.832C73.827 69.636 73.743 69.384 73.743 69.076V56.182C73.743 55.86 73.841 55.601 74.037 55.405C74.233 55.195 74.485 55.09 74.793 55.09C75.227 55.09 75.577 55.342 75.843 55.846L80.862 65.443L85.839 55.846C86.105 55.342 86.448 55.09 86.868 55.09ZM95.4322 59.5C96.7902 59.5 97.7982 59.843 98.4562 60.529C99.1282 61.215 99.4642 62.258 99.4642 63.658V69.097C99.4642 69.419 99.3732 69.671 99.1912 69.853C99.0092 70.021 98.7572 70.105 98.4352 70.105C98.1272 70.105 97.8822 70.014 97.7002 69.832C97.5182 69.65 97.4272 69.405 97.4272 69.097V68.32C97.1612 68.908 96.7622 69.363 96.2302 69.685C95.7122 69.993 95.1032 70.147 94.4032 70.147C93.7312 70.147 93.1152 70.014 92.5552 69.748C91.9952 69.468 91.5542 69.083 91.2322 68.593C90.9242 68.103 90.7702 67.557 90.7702 66.955C90.7702 66.213 90.9592 65.632 91.3372 65.212C91.7292 64.778 92.3662 64.47 93.2482 64.288C94.1442 64.106 95.3692 64.015 96.9232 64.015H97.4062V63.406C97.4062 62.622 97.2452 62.055 96.9232 61.705C96.6012 61.355 96.0832 61.18 95.3692 61.18C94.8792 61.18 94.4172 61.243 93.9832 61.369C93.5492 61.495 93.0732 61.677 92.5552 61.915C92.1772 62.125 91.9112 62.23 91.7572 62.23C91.5472 62.23 91.3722 62.153 91.2322 61.999C91.1062 61.845 91.0432 61.649 91.0432 61.411C91.0432 61.201 91.0992 61.019 91.2112 60.865C91.3372 60.697 91.5332 60.536 91.7992 60.382C92.2892 60.116 92.8632 59.906 93.5212 59.752C94.1792 59.584 94.8162 59.5 95.4322 59.5ZM94.7812 68.572C95.5512 68.572 96.1812 68.313 96.6712 67.795C97.1612 67.263 97.4062 66.584 97.4062 65.758V65.212H97.0282C95.9362 65.212 95.0962 65.261 94.5082 65.359C93.9202 65.457 93.5002 65.625 93.2482 65.863C92.9962 66.087 92.8702 66.416 92.8702 66.85C92.8702 67.354 93.0522 67.767 93.4162 68.089C93.7802 68.411 94.2352 68.572 94.7812 68.572ZM107.385 68.488C107.693 68.516 107.91 68.6 108.036 68.74C108.176 68.866 108.246 69.048 108.246 69.286C108.246 69.566 108.134 69.783 107.91 69.937C107.7 70.077 107.385 70.133 106.965 70.105L106.398 70.063C105.264 69.979 104.417 69.636 103.857 69.034C103.297 68.418 103.017 67.515 103.017 66.325V61.39H101.757C101.141 61.39 100.833 61.117 100.833 60.571C100.833 60.319 100.91 60.123 101.064 59.983C101.232 59.829 101.463 59.752 101.757 59.752H103.017V57.589C103.017 57.267 103.108 57.015 103.29 56.833C103.486 56.651 103.745 56.56 104.067 56.56C104.389 56.56 104.648 56.651 104.844 56.833C105.04 57.015 105.138 57.267 105.138 57.589V59.752H107.217C107.511 59.752 107.735 59.829 107.889 59.983C108.057 60.123 108.141 60.319 108.141 60.571C108.141 60.837 108.057 61.04 107.889 61.18C107.735 61.32 107.511 61.39 107.217 61.39H105.138V66.472C105.138 67.13 105.271 67.613 105.537 67.921C105.817 68.229 106.237 68.404 106.797 68.446L107.385 68.488ZM117.791 67.417C117.987 67.417 118.148 67.494 118.274 67.648C118.4 67.802 118.463 67.998 118.463 68.236C118.463 68.642 118.211 68.985 117.707 69.265C117.217 69.545 116.678 69.762 116.09 69.916C115.516 70.07 114.963 70.147 114.431 70.147C112.807 70.147 111.526 69.678 110.588 68.74C109.65 67.788 109.181 66.493 109.181 64.855C109.181 63.805 109.384 62.874 109.79 62.062C110.21 61.25 110.791 60.62 111.533 60.172C112.289 59.724 113.143 59.5 114.095 59.5C115.467 59.5 116.552 59.941 117.35 60.823C118.148 61.705 118.547 62.895 118.547 64.393C118.547 64.953 118.295 65.233 117.791 65.233H111.302C111.442 67.403 112.485 68.488 114.431 68.488C114.949 68.488 115.397 68.418 115.775 68.278C116.153 68.138 116.552 67.956 116.972 67.732C117.014 67.704 117.126 67.648 117.308 67.564C117.504 67.466 117.665 67.417 117.791 67.417ZM114.137 61.054C113.325 61.054 112.674 61.313 112.184 61.831C111.694 62.349 111.4 63.077 111.302 64.015H116.72C116.678 63.063 116.433 62.335 115.985 61.831C115.551 61.313 114.935 61.054 114.137 61.054ZM126.26 59.542C126.932 59.5 127.268 59.787 127.268 60.403C127.268 60.711 127.191 60.942 127.037 61.096C126.883 61.25 126.617 61.341 126.239 61.369L125.609 61.432C124.727 61.516 124.069 61.824 123.635 62.356C123.215 62.888 123.005 63.532 123.005 64.288V69.097C123.005 69.433 122.907 69.685 122.711 69.853C122.515 70.021 122.263 70.105 121.955 70.105C121.647 70.105 121.388 70.021 121.178 69.853C120.982 69.685 120.884 69.433 120.884 69.097V60.55C120.884 60.228 120.982 59.983 121.178 59.815C121.388 59.633 121.647 59.542 121.955 59.542C122.235 59.542 122.466 59.633 122.648 59.815C122.844 59.983 122.942 60.221 122.942 60.529V61.537C123.222 60.921 123.628 60.452 124.16 60.13C124.692 59.808 125.294 59.619 125.966 59.563L126.26 59.542ZM129.645 70.105C129.337 70.105 129.078 70.021 128.868 69.853C128.672 69.685 128.574 69.433 128.574 69.097V60.571C128.574 60.235 128.672 59.983 128.868 59.815C129.078 59.633 129.337 59.542 129.645 59.542C129.953 59.542 130.205 59.633 130.401 59.815C130.597 59.983 130.695 60.235 130.695 60.571V69.097C130.695 69.433 130.597 69.685 130.401 69.853C130.205 70.021 129.953 70.105 129.645 70.105ZM129.645 57.484C129.239 57.484 128.917 57.372 128.679 57.148C128.441 56.924 128.322 56.63 128.322 56.266C128.322 55.902 128.441 55.615 128.679 55.405C128.917 55.181 129.239 55.069 129.645 55.069C130.037 55.069 130.352 55.181 130.59 55.405C130.842 55.615 130.968 55.902 130.968 56.266C130.968 56.63 130.849 56.924 130.611 57.148C130.373 57.372 130.051 57.484 129.645 57.484ZM137.965 59.5C139.323 59.5 140.331 59.843 140.989 60.529C141.661 61.215 141.997 62.258 141.997 63.658V69.097C141.997 69.419 141.906 69.671 141.724 69.853C141.542 70.021 141.29 70.105 140.968 70.105C140.66 70.105 140.415 70.014 140.233 69.832C140.051 69.65 139.96 69.405 139.96 69.097V68.32C139.694 68.908 139.295 69.363 138.763 69.685C138.245 69.993 137.636 70.147 136.936 70.147C136.264 70.147 135.648 70.014 135.088 69.748C134.528 69.468 134.087 69.083 133.765 68.593C133.457 68.103 133.303 67.557 133.303 66.955C133.303 66.213 133.492 65.632 133.87 65.212C134.262 64.778 134.899 64.47 135.781 64.288C136.677 64.106 137.902 64.015 139.456 64.015H139.939V63.406C139.939 62.622 139.778 62.055 139.456 61.705C139.134 61.355 138.616 61.18 137.902 61.18C137.412 61.18 136.95 61.243 136.516 61.369C136.082 61.495 135.606 61.677 135.088 61.915C134.71 62.125 134.444 62.23 134.29 62.23C134.08 62.23 133.905 62.153 133.765 61.999C133.639 61.845 133.576 61.649 133.576 61.411C133.576 61.201 133.632 61.019 133.744 60.865C133.87 60.697 134.066 60.536 134.332 60.382C134.822 60.116 135.396 59.906 136.054 59.752C136.712 59.584 137.349 59.5 137.965 59.5ZM137.314 68.572C138.084 68.572 138.714 68.313 139.204 67.795C139.694 67.263 139.939 66.584 139.939 65.758V65.212H139.561C138.469 65.212 137.629 65.261 137.041 65.359C136.453 65.457 136.033 65.625 135.781 65.863C135.529 66.087 135.403 66.416 135.403 66.85C135.403 67.354 135.585 67.767 135.949 68.089C136.313 68.411 136.768 68.572 137.314 68.572ZM145.97 70.105C145.662 70.105 145.403 70.021 145.193 69.853C144.997 69.685 144.899 69.433 144.899 69.097V56.119C144.899 55.783 144.997 55.531 145.193 55.363C145.403 55.181 145.662 55.09 145.97 55.09C146.278 55.09 146.53 55.181 146.726 55.363C146.922 55.531 147.02 55.783 147.02 56.119V69.097C147.02 69.433 146.922 69.685 146.726 69.853C146.53 70.021 146.278 70.105 145.97 70.105ZM163.901 55.09C164.223 55.09 164.482 55.181 164.678 55.363C164.874 55.545 164.972 55.79 164.972 56.098V69.076C164.972 69.398 164.874 69.65 164.678 69.832C164.496 70.014 164.244 70.105 163.922 70.105C163.6 70.105 163.341 70.014 163.145 69.832C162.963 69.65 162.872 69.398 162.872 69.076V68.236C162.564 68.852 162.116 69.328 161.528 69.664C160.94 69.986 160.261 70.147 159.491 70.147C158.609 70.147 157.818 69.923 157.118 69.475C156.432 69.027 155.893 68.397 155.501 67.585C155.123 66.773 154.934 65.842 154.934 64.792C154.934 63.728 155.123 62.797 155.501 61.999C155.893 61.201 156.432 60.585 157.118 60.151C157.804 59.717 158.595 59.5 159.491 59.5C160.261 59.5 160.933 59.668 161.507 60.004C162.095 60.326 162.543 60.788 162.851 61.39V56.056C162.851 55.762 162.942 55.531 163.124 55.363C163.32 55.181 163.579 55.09 163.901 55.09ZM159.995 68.467C160.905 68.467 161.612 68.152 162.116 67.522C162.62 66.892 162.872 65.996 162.872 64.834C162.872 63.672 162.62 62.776 162.116 62.146C161.626 61.516 160.919 61.201 159.995 61.201C159.071 61.201 158.35 61.516 157.832 62.146C157.328 62.762 157.076 63.644 157.076 64.792C157.076 65.94 157.335 66.843 157.853 67.501C158.371 68.145 159.085 68.467 159.995 68.467ZM175.951 67.417C176.147 67.417 176.308 67.494 176.434 67.648C176.56 67.802 176.623 67.998 176.623 68.236C176.623 68.642 176.371 68.985 175.867 69.265C175.377 69.545 174.838 69.762 174.25 69.916C173.676 70.07 173.123 70.147 172.591 70.147C170.967 70.147 169.686 69.678 168.748 68.74C167.81 67.788 167.341 66.493 167.341 64.855C167.341 63.805 167.544 62.874 167.95 62.062C168.37 61.25 168.951 60.62 169.693 60.172C170.449 59.724 171.303 59.5 172.255 59.5C173.627 59.5 174.712 59.941 175.51 60.823C176.308 61.705 176.707 62.895 176.707 64.393C176.707 64.953 176.455 65.233 175.951 65.233H169.462C169.602 67.403 170.645 68.488 172.591 68.488C173.109 68.488 173.557 68.418 173.935 68.278C174.313 68.138 174.712 67.956 175.132 67.732C175.174 67.704 175.286 67.648 175.468 67.564C175.664 67.466 175.825 67.417 175.951 67.417ZM172.297 61.054C171.485 61.054 170.834 61.313 170.344 61.831C169.854 62.349 169.56 63.077 169.462 64.015H174.88C174.838 63.063 174.593 62.335 174.145 61.831C173.711 61.313 173.095 61.054 172.297 61.054ZM182.614 70.147C181.186 70.147 180.017 69.853 179.107 69.265C178.855 69.111 178.673 68.95 178.561 68.782C178.463 68.614 178.414 68.425 178.414 68.215C178.414 67.991 178.477 67.802 178.603 67.648C178.729 67.494 178.89 67.417 179.086 67.417C179.268 67.417 179.555 67.529 179.947 67.753C180.367 67.977 180.773 68.159 181.165 68.299C181.571 68.439 182.075 68.509 182.677 68.509C183.349 68.509 183.874 68.39 184.252 68.152C184.63 67.914 184.819 67.578 184.819 67.144C184.819 66.864 184.742 66.64 184.588 66.472C184.448 66.304 184.196 66.157 183.832 66.031C183.468 65.891 182.929 65.744 182.215 65.59C180.983 65.324 180.094 64.967 179.548 64.519C179.016 64.057 178.75 63.434 178.75 62.65C178.75 62.048 178.925 61.509 179.275 61.033C179.625 60.543 180.108 60.165 180.724 59.899C181.34 59.633 182.04 59.5 182.824 59.5C183.384 59.5 183.93 59.577 184.462 59.731C184.994 59.871 185.463 60.081 185.869 60.361C186.331 60.669 186.562 61.026 186.562 61.432C186.562 61.656 186.492 61.845 186.352 61.999C186.226 62.153 186.072 62.23 185.89 62.23C185.764 62.23 185.638 62.202 185.512 62.146C185.386 62.09 185.218 61.999 185.008 61.873C184.63 61.649 184.273 61.474 183.937 61.348C183.615 61.222 183.209 61.159 182.719 61.159C182.131 61.159 181.655 61.285 181.291 61.537C180.941 61.789 180.766 62.132 180.766 62.566C180.766 62.958 180.927 63.266 181.249 63.49C181.585 63.7 182.208 63.903 183.118 64.099C184.056 64.295 184.791 64.519 185.323 64.771C185.855 65.023 186.233 65.338 186.457 65.716C186.695 66.08 186.814 66.549 186.814 67.123C186.814 68.033 186.429 68.768 185.659 69.328C184.903 69.874 183.888 70.147 182.614 70.147ZM193.564 70.147C192.57 70.147 191.695 69.93 190.939 69.496C190.197 69.062 189.616 68.446 189.196 67.648C188.79 66.85 188.587 65.926 188.587 64.876C188.587 63.812 188.797 62.874 189.217 62.062C189.651 61.25 190.253 60.62 191.023 60.172C191.793 59.724 192.675 59.5 193.669 59.5C194.201 59.5 194.733 59.577 195.265 59.731C195.811 59.885 196.294 60.095 196.714 60.361C197.162 60.669 197.386 61.026 197.386 61.432C197.386 61.67 197.323 61.873 197.197 62.041C197.071 62.195 196.91 62.272 196.714 62.272C196.588 62.272 196.462 62.244 196.336 62.188C196.21 62.118 196.049 62.02 195.853 61.894C195.503 61.67 195.174 61.502 194.866 61.39C194.572 61.264 194.215 61.201 193.795 61.201C192.843 61.201 192.101 61.523 191.569 62.167C191.051 62.811 190.792 63.707 190.792 64.855C190.792 66.003 191.051 66.892 191.569 67.522C192.087 68.138 192.822 68.446 193.774 68.446C194.194 68.446 194.565 68.383 194.887 68.257C195.209 68.131 195.538 67.963 195.874 67.753C196.028 67.655 196.182 67.571 196.336 67.501C196.49 67.431 196.63 67.396 196.756 67.396C196.952 67.396 197.113 67.48 197.239 67.648C197.365 67.802 197.428 67.998 197.428 68.236C197.428 68.432 197.372 68.614 197.26 68.782C197.162 68.936 196.987 69.097 196.735 69.265C196.315 69.545 195.825 69.762 195.265 69.916C194.705 70.07 194.138 70.147 193.564 70.147ZM203.631 59.5C204.989 59.5 205.997 59.843 206.655 60.529C207.327 61.215 207.663 62.258 207.663 63.658V69.097C207.663 69.419 207.572 69.671 207.39 69.853C207.208 70.021 206.956 70.105 206.634 70.105C206.326 70.105 206.081 70.014 205.899 69.832C205.717 69.65 205.626 69.405 205.626 69.097V68.32C205.36 68.908 204.961 69.363 204.429 69.685C203.911 69.993 203.302 70.147 202.602 70.147C201.93 70.147 201.314 70.014 200.754 69.748C200.194 69.468 199.753 69.083 199.431 68.593C199.123 68.103 198.969 67.557 198.969 66.955C198.969 66.213 199.158 65.632 199.536 65.212C199.928 64.778 200.565 64.47 201.447 64.288C202.343 64.106 203.568 64.015 205.122 64.015H205.605V63.406C205.605 62.622 205.444 62.055 205.122 61.705C204.8 61.355 204.282 61.18 203.568 61.18C203.078 61.18 202.616 61.243 202.182 61.369C201.748 61.495 201.272 61.677 200.754 61.915C200.376 62.125 200.11 62.23 199.956 62.23C199.746 62.23 199.571 62.153 199.431 61.999C199.305 61.845 199.242 61.649 199.242 61.411C199.242 61.201 199.298 61.019 199.41 60.865C199.536 60.697 199.732 60.536 199.998 60.382C200.488 60.116 201.062 59.906 201.72 59.752C202.378 59.584 203.015 59.5 203.631 59.5ZM202.98 68.572C203.75 68.572 204.38 68.313 204.87 67.795C205.36 67.263 205.605 66.584 205.605 65.758V65.212H205.227C204.135 65.212 203.295 65.261 202.707 65.359C202.119 65.457 201.699 65.625 201.447 65.863C201.195 66.087 201.069 66.416 201.069 66.85C201.069 67.354 201.251 67.767 201.615 68.089C201.979 68.411 202.434 68.572 202.98 68.572ZM215.941 59.542C216.613 59.5 216.949 59.787 216.949 60.403C216.949 60.711 216.872 60.942 216.718 61.096C216.564 61.25 216.298 61.341 215.92 61.369L215.29 61.432C214.408 61.516 213.75 61.824 213.316 62.356C212.896 62.888 212.686 63.532 212.686 64.288V69.097C212.686 69.433 212.588 69.685 212.392 69.853C212.196 70.021 211.944 70.105 211.636 70.105C211.328 70.105 211.069 70.021 210.859 69.853C210.663 69.685 210.565 69.433 210.565 69.097V60.55C210.565 60.228 210.663 59.983 210.859 59.815C211.069 59.633 211.328 59.542 211.636 59.542C211.916 59.542 212.147 59.633 212.329 59.815C212.525 59.983 212.623 60.221 212.623 60.529V61.537C212.903 60.921 213.309 60.452 213.841 60.13C214.373 59.808 214.975 59.619 215.647 59.563L215.941 59.542ZM226.534 59.542C226.856 59.542 227.108 59.64 227.29 59.836C227.486 60.018 227.584 60.263 227.584 60.571V69.181C227.584 70.749 227.164 71.932 226.324 72.73C225.498 73.528 224.273 73.927 222.649 73.927C221.137 73.927 219.877 73.64 218.869 73.066C218.351 72.772 218.092 72.422 218.092 72.016C218.092 71.778 218.155 71.582 218.281 71.428C218.421 71.274 218.589 71.197 218.785 71.197C218.967 71.197 219.254 71.302 219.646 71.512C220.15 71.75 220.619 71.932 221.053 72.058C221.487 72.198 222.005 72.268 222.607 72.268C224.539 72.268 225.505 71.295 225.505 69.349V67.732C225.211 68.348 224.763 68.831 224.161 69.181C223.559 69.517 222.859 69.685 222.061 69.685C221.165 69.685 220.367 69.475 219.667 69.055C218.967 68.635 218.421 68.04 218.029 67.27C217.651 66.5 217.462 65.611 217.462 64.603C217.462 63.595 217.658 62.706 218.05 61.936C218.442 61.166 218.981 60.571 219.667 60.151C220.367 59.717 221.165 59.5 222.061 59.5C222.845 59.5 223.531 59.668 224.119 60.004C224.721 60.34 225.176 60.816 225.484 61.432V60.55C225.484 60.242 225.575 59.997 225.757 59.815C225.953 59.633 226.212 59.542 226.534 59.542ZM222.565 68.005C223.475 68.005 224.189 67.704 224.707 67.102C225.225 66.5 225.484 65.667 225.484 64.603C225.484 63.553 225.225 62.727 224.707 62.125C224.203 61.509 223.489 61.201 222.565 61.201C221.641 61.201 220.913 61.502 220.381 62.104C219.863 62.706 219.604 63.539 219.604 64.603C219.604 65.667 219.87 66.5 220.402 67.102C220.934 67.704 221.655 68.005 222.565 68.005ZM234.844 59.5C236.202 59.5 237.21 59.843 237.868 60.529C238.54 61.215 238.876 62.258 238.876 63.658V69.097C238.876 69.419 238.785 69.671 238.603 69.853C238.421 70.021 238.169 70.105 237.847 70.105C237.539 70.105 237.294 70.014 237.112 69.832C236.93 69.65 236.839 69.405 236.839 69.097V68.32C236.573 68.908 236.174 69.363 235.642 69.685C235.124 69.993 234.515 70.147 233.815 70.147C233.143 70.147 232.527 70.014 231.967 69.748C231.407 69.468 230.966 69.083 230.644 68.593C230.336 68.103 230.182 67.557 230.182 66.955C230.182 66.213 230.371 65.632 230.749 65.212C231.141 64.778 231.778 64.47 232.66 64.288C233.556 64.106 234.781 64.015 236.335 64.015H236.818V63.406C236.818 62.622 236.657 62.055 236.335 61.705C236.013 61.355 235.495 61.18 234.781 61.18C234.291 61.18 233.829 61.243 233.395 61.369C232.961 61.495 232.485 61.677 231.967 61.915C231.589 62.125 231.323 62.23 231.169 62.23C230.959 62.23 230.784 62.153 230.644 61.999C230.518 61.845 230.455 61.649 230.455 61.411C230.455 61.201 230.511 61.019 230.623 60.865C230.749 60.697 230.945 60.536 231.211 60.382C231.701 60.116 232.275 59.906 232.933 59.752C233.591 59.584 234.228 59.5 234.844 59.5ZM234.193 68.572C234.963 68.572 235.593 68.313 236.083 67.795C236.573 67.263 236.818 66.584 236.818 65.758V65.212H236.44C235.348 65.212 234.508 65.261 233.92 65.359C233.332 65.457 232.912 65.625 232.66 65.863C232.408 66.087 232.282 66.416 232.282 66.85C232.282 67.354 232.464 67.767 232.828 68.089C233.192 68.411 233.647 68.572 234.193 68.572ZM247.28 59.5C248.176 59.5 248.967 59.717 249.653 60.151C250.339 60.585 250.871 61.201 251.249 61.999C251.641 62.797 251.837 63.728 251.837 64.792C251.837 65.842 251.641 66.773 251.249 67.585C250.871 68.397 250.332 69.027 249.632 69.475C248.946 69.923 248.162 70.147 247.28 70.147C246.51 70.147 245.831 69.986 245.243 69.664C244.655 69.328 244.207 68.852 243.899 68.236V69.076C243.899 69.384 243.801 69.636 243.605 69.832C243.423 70.014 243.171 70.105 242.849 70.105C242.527 70.105 242.268 70.014 242.072 69.832C241.876 69.636 241.778 69.384 241.778 69.076V56.098C241.778 55.79 241.876 55.545 242.072 55.363C242.282 55.181 242.548 55.09 242.87 55.09C243.178 55.09 243.423 55.181 243.605 55.363C243.801 55.531 243.899 55.762 243.899 56.056V61.432C244.207 60.816 244.655 60.34 245.243 60.004C245.831 59.668 246.51 59.5 247.28 59.5ZM246.776 68.467C247.686 68.467 248.393 68.145 248.897 67.501C249.415 66.857 249.674 65.954 249.674 64.792C249.674 63.644 249.422 62.762 248.918 62.146C248.414 61.516 247.7 61.201 246.776 61.201C245.852 61.201 245.138 61.516 244.634 62.146C244.144 62.776 243.899 63.672 243.899 64.834C243.899 65.996 244.144 66.892 244.634 67.522C245.138 68.152 245.852 68.467 246.776 68.467ZM255.256 70.105C254.948 70.105 254.689 70.021 254.479 69.853C254.283 69.685 254.185 69.433 254.185 69.097V56.119C254.185 55.783 254.283 55.531 254.479 55.363C254.689 55.181 254.948 55.09 255.256 55.09C255.564 55.09 255.816 55.181 256.012 55.363C256.208 55.531 256.306 55.783 256.306 56.119V69.097C256.306 69.433 256.208 69.685 256.012 69.853C255.816 70.021 255.564 70.105 255.256 70.105ZM267.293 67.417C267.489 67.417 267.65 67.494 267.776 67.648C267.902 67.802 267.965 67.998 267.965 68.236C267.965 68.642 267.713 68.985 267.209 69.265C266.719 69.545 266.18 69.762 265.592 69.916C265.018 70.07 264.465 70.147 263.933 70.147C262.309 70.147 261.028 69.678 260.09 68.74C259.152 67.788 258.683 66.493 258.683 64.855C258.683 63.805 258.886 62.874 259.292 62.062C259.712 61.25 260.293 60.62 261.035 60.172C261.791 59.724 262.645 59.5 263.597 59.5C264.969 59.5 266.054 59.941 266.852 60.823C267.65 61.705 268.049 62.895 268.049 64.393C268.049 64.953 267.797 65.233 267.293 65.233H260.804C260.944 67.403 261.987 68.488 263.933 68.488C264.451 68.488 264.899 68.418 265.277 68.278C265.655 68.138 266.054 67.956 266.474 67.732C266.516 67.704 266.628 67.648 266.81 67.564C267.006 67.466 267.167 67.417 267.293 67.417ZM263.639 61.054C262.827 61.054 262.176 61.313 261.686 61.831C261.196 62.349 260.902 63.077 260.804 64.015H266.222C266.18 63.063 265.935 62.335 265.487 61.831C265.053 61.313 264.437 61.054 263.639 61.054Z" fill="#38485C"/>
<path d="M88.59 116.5H87V111.5C87 110.95 86.55 110.5 86 110.5H82C81.45 110.5 81 110.95 81 111.5V116.5H79.41C78.52 116.5 78.07 117.58 78.7 118.21L83.29 122.8C83.68 123.19 84.31 123.19 84.7 122.8L89.29 118.21C89.92 117.58 89.48 116.5 88.59 116.5ZM77 126.5C77 127.05 77.45 127.5 78 127.5H90C90.55 127.5 91 127.05 91 126.5C91 125.95 90.55 125.5 90 125.5H78C77.45 125.5 77 125.95 77 126.5Z" fill="#007BC7"/>
<path d="M107.938 125H101.57V113.578H107.938V114.758H102.898V118.438H107.633V119.609H102.898V123.812H107.938V125ZM116.141 125V119.461C116.141 118.763 115.982 118.242 115.664 117.898C115.346 117.555 114.849 117.383 114.172 117.383C113.276 117.383 112.62 117.625 112.203 118.109C111.786 118.594 111.578 119.393 111.578 120.508V125H110.281V116.438H111.336L111.547 117.609H111.609C111.875 117.188 112.247 116.862 112.727 116.633C113.206 116.398 113.74 116.281 114.328 116.281C115.359 116.281 116.135 116.531 116.656 117.031C117.177 117.526 117.438 118.32 117.438 119.414V125H116.141ZM121.406 125H120.109V112.844H121.406V125ZM129.422 125L129.164 123.781H129.102C128.674 124.318 128.247 124.682 127.82 124.875C127.398 125.062 126.87 125.156 126.234 125.156C125.385 125.156 124.719 124.938 124.234 124.5C123.755 124.062 123.516 123.44 123.516 122.633C123.516 120.904 124.898 119.997 127.664 119.914L129.117 119.867V119.336C129.117 118.664 128.971 118.169 128.68 117.852C128.393 117.529 127.932 117.367 127.297 117.367C126.583 117.367 125.776 117.586 124.875 118.023L124.477 117.031C124.898 116.802 125.359 116.622 125.859 116.492C126.365 116.362 126.87 116.297 127.375 116.297C128.396 116.297 129.151 116.523 129.641 116.977C130.135 117.43 130.383 118.156 130.383 119.156V125H129.422ZM126.492 124.086C127.299 124.086 127.932 123.865 128.391 123.422C128.854 122.979 129.086 122.359 129.086 121.562V120.789L127.789 120.844C126.758 120.88 126.013 121.042 125.555 121.328C125.102 121.609 124.875 122.049 124.875 122.648C124.875 123.117 125.016 123.474 125.297 123.719C125.583 123.964 125.982 124.086 126.492 124.086ZM136.484 125.156C135.245 125.156 134.284 124.776 133.602 124.016C132.924 123.25 132.586 122.169 132.586 120.773C132.586 119.341 132.93 118.234 133.617 117.453C134.31 116.672 135.294 116.281 136.57 116.281C136.982 116.281 137.393 116.326 137.805 116.414C138.216 116.503 138.539 116.607 138.773 116.727L138.375 117.828C138.089 117.714 137.776 117.62 137.438 117.547C137.099 117.469 136.799 117.43 136.539 117.43C134.799 117.43 133.93 118.539 133.93 120.758C133.93 121.81 134.141 122.617 134.562 123.18C134.99 123.742 135.62 124.023 136.453 124.023C137.167 124.023 137.898 123.87 138.648 123.562V124.711C138.076 125.008 137.354 125.156 136.484 125.156ZM144.305 125.156C143.039 125.156 142.039 124.771 141.305 124C140.576 123.229 140.211 122.159 140.211 120.789C140.211 119.409 140.549 118.312 141.227 117.5C141.909 116.688 142.823 116.281 143.969 116.281C145.042 116.281 145.891 116.635 146.516 117.344C147.141 118.047 147.453 118.977 147.453 120.133V120.953H141.555C141.581 121.958 141.833 122.721 142.312 123.242C142.797 123.763 143.477 124.023 144.352 124.023C145.273 124.023 146.185 123.831 147.086 123.445V124.602C146.628 124.799 146.193 124.94 145.781 125.023C145.375 125.112 144.883 125.156 144.305 125.156ZM143.953 117.367C143.266 117.367 142.716 117.591 142.305 118.039C141.898 118.487 141.659 119.107 141.586 119.898H146.062C146.062 119.081 145.88 118.456 145.516 118.023C145.151 117.586 144.63 117.367 143.953 117.367ZM159.656 123.852H159.586C158.987 124.721 158.091 125.156 156.898 125.156C155.779 125.156 154.906 124.773 154.281 124.008C153.661 123.242 153.352 122.154 153.352 120.742C153.352 119.331 153.664 118.234 154.289 117.453C154.914 116.672 155.784 116.281 156.898 116.281C158.06 116.281 158.951 116.703 159.57 117.547H159.672L159.617 116.93L159.586 116.328V112.844H160.883V125H159.828L159.656 123.852ZM157.062 124.07C157.948 124.07 158.589 123.831 158.984 123.352C159.385 122.867 159.586 122.089 159.586 121.016V120.742C159.586 119.529 159.383 118.664 158.977 118.148C158.576 117.628 157.932 117.367 157.047 117.367C156.286 117.367 155.703 117.664 155.297 118.258C154.896 118.846 154.695 119.68 154.695 120.758C154.695 121.852 154.896 122.677 155.297 123.234C155.698 123.792 156.286 124.07 157.062 124.07ZM167.258 125.156C165.992 125.156 164.992 124.771 164.258 124C163.529 123.229 163.164 122.159 163.164 120.789C163.164 119.409 163.503 118.312 164.18 117.5C164.862 116.688 165.776 116.281 166.922 116.281C167.995 116.281 168.844 116.635 169.469 117.344C170.094 118.047 170.406 118.977 170.406 120.133V120.953H164.508C164.534 121.958 164.786 122.721 165.266 123.242C165.75 123.763 166.43 124.023 167.305 124.023C168.227 124.023 169.138 123.831 170.039 123.445V124.602C169.581 124.799 169.146 124.94 168.734 125.023C168.328 125.112 167.836 125.156 167.258 125.156ZM166.906 117.367C166.219 117.367 165.669 117.591 165.258 118.039C164.852 118.487 164.612 119.107 164.539 119.898H169.016C169.016 119.081 168.833 118.456 168.469 118.023C168.104 117.586 167.583 117.367 166.906 117.367ZM182.609 123.852H182.539C181.94 124.721 181.044 125.156 179.852 125.156C178.732 125.156 177.859 124.773 177.234 124.008C176.615 123.242 176.305 122.154 176.305 120.742C176.305 119.331 176.617 118.234 177.242 117.453C177.867 116.672 178.737 116.281 179.852 116.281C181.013 116.281 181.904 116.703 182.523 117.547H182.625L182.57 116.93L182.539 116.328V112.844H183.836V125H182.781L182.609 123.852ZM180.016 124.07C180.901 124.07 181.542 123.831 181.938 123.352C182.339 122.867 182.539 122.089 182.539 121.016V120.742C182.539 119.529 182.336 118.664 181.93 118.148C181.529 117.628 180.885 117.367 180 117.367C179.24 117.367 178.656 117.664 178.25 118.258C177.849 118.846 177.648 119.68 177.648 120.758C177.648 121.852 177.849 122.677 178.25 123.234C178.651 123.792 179.24 124.07 180.016 124.07ZM190.211 125.156C188.945 125.156 187.945 124.771 187.211 124C186.482 123.229 186.117 122.159 186.117 120.789C186.117 119.409 186.456 118.312 187.133 117.5C187.815 116.688 188.729 116.281 189.875 116.281C190.948 116.281 191.797 116.635 192.422 117.344C193.047 118.047 193.359 118.977 193.359 120.133V120.953H187.461C187.487 121.958 187.74 122.721 188.219 123.242C188.703 123.763 189.383 124.023 190.258 124.023C191.18 124.023 192.091 123.831 192.992 123.445V124.602C192.534 124.799 192.099 124.94 191.688 125.023C191.281 125.112 190.789 125.156 190.211 125.156ZM189.859 117.367C189.172 117.367 188.622 117.591 188.211 118.039C187.805 118.487 187.565 119.107 187.492 119.898H191.969C191.969 119.081 191.786 118.456 191.422 118.023C191.057 117.586 190.536 117.367 189.859 117.367ZM201.102 122.664C201.102 123.461 200.805 124.076 200.211 124.508C199.617 124.94 198.784 125.156 197.711 125.156C196.576 125.156 195.69 124.977 195.055 124.617V123.414C195.466 123.622 195.906 123.786 196.375 123.906C196.849 124.026 197.305 124.086 197.742 124.086C198.419 124.086 198.94 123.979 199.305 123.766C199.669 123.547 199.852 123.216 199.852 122.773C199.852 122.44 199.706 122.156 199.414 121.922C199.128 121.682 198.565 121.401 197.727 121.078C196.93 120.781 196.362 120.523 196.023 120.305C195.69 120.081 195.44 119.828 195.273 119.547C195.112 119.266 195.031 118.93 195.031 118.539C195.031 117.841 195.315 117.292 195.883 116.891C196.451 116.484 197.229 116.281 198.219 116.281C199.141 116.281 200.042 116.469 200.922 116.844L200.461 117.898C199.602 117.544 198.823 117.367 198.125 117.367C197.51 117.367 197.047 117.464 196.734 117.656C196.422 117.849 196.266 118.115 196.266 118.453C196.266 118.682 196.323 118.878 196.438 119.039C196.557 119.201 196.747 119.354 197.008 119.5C197.268 119.646 197.768 119.857 198.508 120.133C199.523 120.503 200.208 120.875 200.562 121.25C200.922 121.625 201.102 122.096 201.102 122.664ZM206.641 125.156C205.401 125.156 204.44 124.776 203.758 124.016C203.081 123.25 202.742 122.169 202.742 120.773C202.742 119.341 203.086 118.234 203.773 117.453C204.466 116.672 205.451 116.281 206.727 116.281C207.138 116.281 207.549 116.326 207.961 116.414C208.372 116.503 208.695 116.607 208.93 116.727L208.531 117.828C208.245 117.714 207.932 117.62 207.594 117.547C207.255 117.469 206.956 117.43 206.695 117.43C204.956 117.43 204.086 118.539 204.086 120.758C204.086 121.81 204.297 122.617 204.719 123.18C205.146 123.742 205.776 124.023 206.609 124.023C207.323 124.023 208.055 123.87 208.805 123.562V124.711C208.232 125.008 207.51 125.156 206.641 125.156ZM216.109 125L215.852 123.781H215.789C215.362 124.318 214.935 124.682 214.508 124.875C214.086 125.062 213.557 125.156 212.922 125.156C212.073 125.156 211.406 124.938 210.922 124.5C210.443 124.062 210.203 123.44 210.203 122.633C210.203 120.904 211.586 119.997 214.352 119.914L215.805 119.867V119.336C215.805 118.664 215.659 118.169 215.367 117.852C215.081 117.529 214.62 117.367 213.984 117.367C213.271 117.367 212.464 117.586 211.562 118.023L211.164 117.031C211.586 116.802 212.047 116.622 212.547 116.492C213.052 116.362 213.557 116.297 214.062 116.297C215.083 116.297 215.839 116.523 216.328 116.977C216.823 117.43 217.07 118.156 217.07 119.156V125H216.109ZM213.18 124.086C213.987 124.086 214.62 123.865 215.078 123.422C215.542 122.979 215.773 122.359 215.773 121.562V120.789L214.477 120.844C213.445 120.88 212.701 121.042 212.242 121.328C211.789 121.609 211.562 122.049 211.562 122.648C211.562 123.117 211.703 123.474 211.984 123.719C212.271 123.964 212.669 124.086 213.18 124.086ZM223.656 116.281C224.036 116.281 224.378 116.312 224.68 116.375L224.5 117.578C224.146 117.5 223.833 117.461 223.562 117.461C222.87 117.461 222.276 117.742 221.781 118.305C221.292 118.867 221.047 119.568 221.047 120.406V125H219.75V116.438H220.82L220.969 118.023H221.031C221.349 117.466 221.732 117.036 222.18 116.734C222.628 116.432 223.12 116.281 223.656 116.281ZM233.289 116.438V117.258L231.703 117.445C231.849 117.628 231.979 117.867 232.094 118.164C232.208 118.456 232.266 118.786 232.266 119.156C232.266 119.995 231.979 120.664 231.406 121.164C230.833 121.664 230.047 121.914 229.047 121.914C228.792 121.914 228.552 121.893 228.328 121.852C227.776 122.143 227.5 122.51 227.5 122.953C227.5 123.188 227.596 123.362 227.789 123.477C227.982 123.586 228.312 123.641 228.781 123.641H230.297C231.224 123.641 231.935 123.836 232.43 124.227C232.93 124.617 233.18 125.185 233.18 125.93C233.18 126.878 232.799 127.599 232.039 128.094C231.279 128.594 230.169 128.844 228.711 128.844C227.591 128.844 226.727 128.635 226.117 128.219C225.513 127.802 225.211 127.214 225.211 126.453C225.211 125.932 225.378 125.482 225.711 125.102C226.044 124.721 226.513 124.464 227.117 124.328C226.898 124.229 226.714 124.076 226.562 123.867C226.417 123.659 226.344 123.417 226.344 123.141C226.344 122.828 226.427 122.555 226.594 122.32C226.76 122.086 227.023 121.859 227.383 121.641C226.94 121.458 226.578 121.148 226.297 120.711C226.021 120.273 225.883 119.773 225.883 119.211C225.883 118.273 226.164 117.552 226.727 117.047C227.289 116.536 228.086 116.281 229.117 116.281C229.565 116.281 229.969 116.333 230.328 116.438H233.289ZM226.461 126.438C226.461 126.901 226.656 127.253 227.047 127.492C227.438 127.732 227.997 127.852 228.727 127.852C229.815 127.852 230.62 127.688 231.141 127.359C231.667 127.036 231.93 126.596 231.93 126.039C231.93 125.576 231.786 125.253 231.5 125.07C231.214 124.893 230.674 124.805 229.883 124.805H228.328C227.74 124.805 227.281 124.945 226.953 125.227C226.625 125.508 226.461 125.911 226.461 126.438ZM227.164 119.18C227.164 119.779 227.333 120.232 227.672 120.539C228.01 120.846 228.482 121 229.086 121C230.352 121 230.984 120.385 230.984 119.156C230.984 117.87 230.344 117.227 229.062 117.227C228.453 117.227 227.984 117.391 227.656 117.719C227.328 118.047 227.164 118.534 227.164 119.18ZM240.312 125L240.055 123.781H239.992C239.565 124.318 239.138 124.682 238.711 124.875C238.289 125.062 237.76 125.156 237.125 125.156C236.276 125.156 235.609 124.938 235.125 124.5C234.646 124.062 234.406 123.44 234.406 122.633C234.406 120.904 235.789 119.997 238.555 119.914L240.008 119.867V119.336C240.008 118.664 239.862 118.169 239.57 117.852C239.284 117.529 238.823 117.367 238.188 117.367C237.474 117.367 236.667 117.586 235.766 118.023L235.367 117.031C235.789 116.802 236.25 116.622 236.75 116.492C237.255 116.362 237.76 116.297 238.266 116.297C239.286 116.297 240.042 116.523 240.531 116.977C241.026 117.43 241.273 118.156 241.273 119.156V125H240.312ZM237.383 124.086C238.19 124.086 238.823 123.865 239.281 123.422C239.745 122.979 239.977 122.359 239.977 121.562V120.789L238.68 120.844C237.648 120.88 236.904 121.042 236.445 121.328C235.992 121.609 235.766 122.049 235.766 122.648C235.766 123.117 235.906 123.474 236.188 123.719C236.474 123.964 236.872 124.086 237.383 124.086Z" fill="#007BC7"/>
<path d="M100 126.602H242.57V127.398H100V126.602Z" fill="#007BC7"/>
<path d="M88.59 156.5H87V151.5C87 150.95 86.55 150.5 86 150.5H82C81.45 150.5 81 150.95 81 151.5V156.5H79.41C78.52 156.5 78.07 157.58 78.7 158.21L83.29 162.8C83.68 163.19 84.31 163.19 84.7 162.8L89.29 158.21C89.92 157.58 89.48 156.5 88.59 156.5ZM77 166.5C77 167.05 77.45 167.5 78 167.5H90C90.55 167.5 91 167.05 91 166.5C91 165.95 90.55 165.5 90 165.5H78C77.45 165.5 77 165.95 77 166.5Z" fill="#007BC7"/>
<path d="M107.938 165H101.57V153.578H107.938V154.758H102.898V158.438H107.633V159.609H102.898V163.812H107.938V165ZM116.141 165V159.461C116.141 158.763 115.982 158.242 115.664 157.898C115.346 157.555 114.849 157.383 114.172 157.383C113.276 157.383 112.62 157.625 112.203 158.109C111.786 158.594 111.578 159.393 111.578 160.508V165H110.281V156.438H111.336L111.547 157.609H111.609C111.875 157.188 112.247 156.862 112.727 156.633C113.206 156.398 113.74 156.281 114.328 156.281C115.359 156.281 116.135 156.531 116.656 157.031C117.177 157.526 117.438 158.32 117.438 159.414V165H116.141ZM121.406 165H120.109V152.844H121.406V165ZM129.422 165L129.164 163.781H129.102C128.674 164.318 128.247 164.682 127.82 164.875C127.398 165.062 126.87 165.156 126.234 165.156C125.385 165.156 124.719 164.938 124.234 164.5C123.755 164.062 123.516 163.44 123.516 162.633C123.516 160.904 124.898 159.997 127.664 159.914L129.117 159.867V159.336C129.117 158.664 128.971 158.169 128.68 157.852C128.393 157.529 127.932 157.367 127.297 157.367C126.583 157.367 125.776 157.586 124.875 158.023L124.477 157.031C124.898 156.802 125.359 156.622 125.859 156.492C126.365 156.362 126.87 156.297 127.375 156.297C128.396 156.297 129.151 156.523 129.641 156.977C130.135 157.43 130.383 158.156 130.383 159.156V165H129.422ZM126.492 164.086C127.299 164.086 127.932 163.865 128.391 163.422C128.854 162.979 129.086 162.359 129.086 161.562V160.789L127.789 160.844C126.758 160.88 126.013 161.042 125.555 161.328C125.102 161.609 124.875 162.049 124.875 162.648C124.875 163.117 125.016 163.474 125.297 163.719C125.583 163.964 125.982 164.086 126.492 164.086ZM136.484 165.156C135.245 165.156 134.284 164.776 133.602 164.016C132.924 163.25 132.586 162.169 132.586 160.773C132.586 159.341 132.93 158.234 133.617 157.453C134.31 156.672 135.294 156.281 136.57 156.281C136.982 156.281 137.393 156.326 137.805 156.414C138.216 156.503 138.539 156.607 138.773 156.727L138.375 157.828C138.089 157.714 137.776 157.62 137.438 157.547C137.099 157.469 136.799 157.43 136.539 157.43C134.799 157.43 133.93 158.539 133.93 160.758C133.93 161.81 134.141 162.617 134.562 163.18C134.99 163.742 135.62 164.023 136.453 164.023C137.167 164.023 137.898 163.87 138.648 163.562V164.711C138.076 165.008 137.354 165.156 136.484 165.156ZM144.305 165.156C143.039 165.156 142.039 164.771 141.305 164C140.576 163.229 140.211 162.159 140.211 160.789C140.211 159.409 140.549 158.312 141.227 157.5C141.909 156.688 142.823 156.281 143.969 156.281C145.042 156.281 145.891 156.635 146.516 157.344C147.141 158.047 147.453 158.977 147.453 160.133V160.953H141.555C141.581 161.958 141.833 162.721 142.312 163.242C142.797 163.763 143.477 164.023 144.352 164.023C145.273 164.023 146.185 163.831 147.086 163.445V164.602C146.628 164.799 146.193 164.94 145.781 165.023C145.375 165.112 144.883 165.156 144.305 165.156ZM143.953 157.367C143.266 157.367 142.716 157.591 142.305 158.039C141.898 158.487 141.659 159.107 141.586 159.898H146.062C146.062 159.081 145.88 158.456 145.516 158.023C145.151 157.586 144.63 157.367 143.953 157.367ZM159.656 163.852H159.586C158.987 164.721 158.091 165.156 156.898 165.156C155.779 165.156 154.906 164.773 154.281 164.008C153.661 163.242 153.352 162.154 153.352 160.742C153.352 159.331 153.664 158.234 154.289 157.453C154.914 156.672 155.784 156.281 156.898 156.281C158.06 156.281 158.951 156.703 159.57 157.547H159.672L159.617 156.93L159.586 156.328V152.844H160.883V165H159.828L159.656 163.852ZM157.062 164.07C157.948 164.07 158.589 163.831 158.984 163.352C159.385 162.867 159.586 162.089 159.586 161.016V160.742C159.586 159.529 159.383 158.664 158.977 158.148C158.576 157.628 157.932 157.367 157.047 157.367C156.286 157.367 155.703 157.664 155.297 158.258C154.896 158.846 154.695 159.68 154.695 160.758C154.695 161.852 154.896 162.677 155.297 163.234C155.698 163.792 156.286 164.07 157.062 164.07ZM167.258 165.156C165.992 165.156 164.992 164.771 164.258 164C163.529 163.229 163.164 162.159 163.164 160.789C163.164 159.409 163.503 158.312 164.18 157.5C164.862 156.688 165.776 156.281 166.922 156.281C167.995 156.281 168.844 156.635 169.469 157.344C170.094 158.047 170.406 158.977 170.406 160.133V160.953H164.508C164.534 161.958 164.786 162.721 165.266 163.242C165.75 163.763 166.43 164.023 167.305 164.023C168.227 164.023 169.138 163.831 170.039 163.445V164.602C169.581 164.799 169.146 164.94 168.734 165.023C168.328 165.112 167.836 165.156 167.258 165.156ZM166.906 157.367C166.219 157.367 165.669 157.591 165.258 158.039C164.852 158.487 164.612 159.107 164.539 159.898H169.016C169.016 159.081 168.833 158.456 168.469 158.023C168.104 157.586 167.583 157.367 166.906 157.367ZM182.609 163.852H182.539C181.94 164.721 181.044 165.156 179.852 165.156C178.732 165.156 177.859 164.773 177.234 164.008C176.615 163.242 176.305 162.154 176.305 160.742C176.305 159.331 176.617 158.234 177.242 157.453C177.867 156.672 178.737 156.281 179.852 156.281C181.013 156.281 181.904 156.703 182.523 157.547H182.625L182.57 156.93L182.539 156.328V152.844H183.836V165H182.781L182.609 163.852ZM180.016 164.07C180.901 164.07 181.542 163.831 181.938 163.352C182.339 162.867 182.539 162.089 182.539 161.016V160.742C182.539 159.529 182.336 158.664 181.93 158.148C181.529 157.628 180.885 157.367 180 157.367C179.24 157.367 178.656 157.664 178.25 158.258C177.849 158.846 177.648 159.68 177.648 160.758C177.648 161.852 177.849 162.677 178.25 163.234C178.651 163.792 179.24 164.07 180.016 164.07ZM190.211 165.156C188.945 165.156 187.945 164.771 187.211 164C186.482 163.229 186.117 162.159 186.117 160.789C186.117 159.409 186.456 158.312 187.133 157.5C187.815 156.688 188.729 156.281 189.875 156.281C190.948 156.281 191.797 156.635 192.422 157.344C193.047 158.047 193.359 158.977 193.359 160.133V160.953H187.461C187.487 161.958 187.74 162.721 188.219 163.242C188.703 163.763 189.383 164.023 190.258 164.023C191.18 164.023 192.091 163.831 192.992 163.445V164.602C192.534 164.799 192.099 164.94 191.688 165.023C191.281 165.112 190.789 165.156 190.211 165.156ZM189.859 157.367C189.172 157.367 188.622 157.591 188.211 158.039C187.805 158.487 187.565 159.107 187.492 159.898H191.969C191.969 159.081 191.786 158.456 191.422 158.023C191.057 157.586 190.536 157.367 189.859 157.367ZM201.102 162.664C201.102 163.461 200.805 164.076 200.211 164.508C199.617 164.94 198.784 165.156 197.711 165.156C196.576 165.156 195.69 164.977 195.055 164.617V163.414C195.466 163.622 195.906 163.786 196.375 163.906C196.849 164.026 197.305 164.086 197.742 164.086C198.419 164.086 198.94 163.979 199.305 163.766C199.669 163.547 199.852 163.216 199.852 162.773C199.852 162.44 199.706 162.156 199.414 161.922C199.128 161.682 198.565 161.401 197.727 161.078C196.93 160.781 196.362 160.523 196.023 160.305C195.69 160.081 195.44 159.828 195.273 159.547C195.112 159.266 195.031 158.93 195.031 158.539C195.031 157.841 195.315 157.292 195.883 156.891C196.451 156.484 197.229 156.281 198.219 156.281C199.141 156.281 200.042 156.469 200.922 156.844L200.461 157.898C199.602 157.544 198.823 157.367 198.125 157.367C197.51 157.367 197.047 157.464 196.734 157.656C196.422 157.849 196.266 158.115 196.266 158.453C196.266 158.682 196.323 158.878 196.438 159.039C196.557 159.201 196.747 159.354 197.008 159.5C197.268 159.646 197.768 159.857 198.508 160.133C199.523 160.503 200.208 160.875 200.562 161.25C200.922 161.625 201.102 162.096 201.102 162.664ZM206.641 165.156C205.401 165.156 204.44 164.776 203.758 164.016C203.081 163.25 202.742 162.169 202.742 160.773C202.742 159.341 203.086 158.234 203.773 157.453C204.466 156.672 205.451 156.281 206.727 156.281C207.138 156.281 207.549 156.326 207.961 156.414C208.372 156.503 208.695 156.607 208.93 156.727L208.531 157.828C208.245 157.714 207.932 157.62 207.594 157.547C207.255 157.469 206.956 157.43 206.695 157.43C204.956 157.43 204.086 158.539 204.086 160.758C204.086 161.81 204.297 162.617 204.719 163.18C205.146 163.742 205.776 164.023 206.609 164.023C207.323 164.023 208.055 163.87 208.805 163.562V164.711C208.232 165.008 207.51 165.156 206.641 165.156ZM216.109 165L215.852 163.781H215.789C215.362 164.318 214.935 164.682 214.508 164.875C214.086 165.062 213.557 165.156 212.922 165.156C212.073 165.156 211.406 164.938 210.922 164.5C210.443 164.062 210.203 163.44 210.203 162.633C210.203 160.904 211.586 159.997 214.352 159.914L215.805 159.867V159.336C215.805 158.664 215.659 158.169 215.367 157.852C215.081 157.529 214.62 157.367 213.984 157.367C213.271 157.367 212.464 157.586 211.562 158.023L211.164 157.031C211.586 156.802 212.047 156.622 212.547 156.492C213.052 156.362 213.557 156.297 214.062 156.297C215.083 156.297 215.839 156.523 216.328 156.977C216.823 157.43 217.07 158.156 217.07 159.156V165H216.109ZM213.18 164.086C213.987 164.086 214.62 163.865 215.078 163.422C215.542 162.979 215.773 162.359 215.773 161.562V160.789L214.477 160.844C213.445 160.88 212.701 161.042 212.242 161.328C211.789 161.609 211.562 162.049 211.562 162.648C211.562 163.117 211.703 163.474 211.984 163.719C212.271 163.964 212.669 164.086 213.18 164.086ZM223.656 156.281C224.036 156.281 224.378 156.312 224.68 156.375L224.5 157.578C224.146 157.5 223.833 157.461 223.562 157.461C222.87 157.461 222.276 157.742 221.781 158.305C221.292 158.867 221.047 159.568 221.047 160.406V165H219.75V156.438H220.82L220.969 158.023H221.031C221.349 157.466 221.732 157.036 222.18 156.734C222.628 156.432 223.12 156.281 223.656 156.281ZM233.289 156.438V157.258L231.703 157.445C231.849 157.628 231.979 157.867 232.094 158.164C232.208 158.456 232.266 158.786 232.266 159.156C232.266 159.995 231.979 160.664 231.406 161.164C230.833 161.664 230.047 161.914 229.047 161.914C228.792 161.914 228.552 161.893 228.328 161.852C227.776 162.143 227.5 162.51 227.5 162.953C227.5 163.188 227.596 163.362 227.789 163.477C227.982 163.586 228.312 163.641 228.781 163.641H230.297C231.224 163.641 231.935 163.836 232.43 164.227C232.93 164.617 233.18 165.185 233.18 165.93C233.18 166.878 232.799 167.599 232.039 168.094C231.279 168.594 230.169 168.844 228.711 168.844C227.591 168.844 226.727 168.635 226.117 168.219C225.513 167.802 225.211 167.214 225.211 166.453C225.211 165.932 225.378 165.482 225.711 165.102C226.044 164.721 226.513 164.464 227.117 164.328C226.898 164.229 226.714 164.076 226.562 163.867C226.417 163.659 226.344 163.417 226.344 163.141C226.344 162.828 226.427 162.555 226.594 162.32C226.76 162.086 227.023 161.859 227.383 161.641C226.94 161.458 226.578 161.148 226.297 160.711C226.021 160.273 225.883 159.773 225.883 159.211C225.883 158.273 226.164 157.552 226.727 157.047C227.289 156.536 228.086 156.281 229.117 156.281C229.565 156.281 229.969 156.333 230.328 156.438H233.289ZM226.461 166.438C226.461 166.901 226.656 167.253 227.047 167.492C227.438 167.732 227.997 167.852 228.727 167.852C229.815 167.852 230.62 167.688 231.141 167.359C231.667 167.036 231.93 166.596 231.93 166.039C231.93 165.576 231.786 165.253 231.5 165.07C231.214 164.893 230.674 164.805 229.883 164.805H228.328C227.74 164.805 227.281 164.945 226.953 165.227C226.625 165.508 226.461 165.911 226.461 166.438ZM227.164 159.18C227.164 159.779 227.333 160.232 227.672 160.539C228.01 160.846 228.482 161 229.086 161C230.352 161 230.984 160.385 230.984 159.156C230.984 157.87 230.344 157.227 229.062 157.227C228.453 157.227 227.984 157.391 227.656 157.719C227.328 158.047 227.164 158.534 227.164 159.18ZM240.312 165L240.055 163.781H239.992C239.565 164.318 239.138 164.682 238.711 164.875C238.289 165.062 237.76 165.156 237.125 165.156C236.276 165.156 235.609 164.938 235.125 164.5C234.646 164.062 234.406 163.44 234.406 162.633C234.406 160.904 235.789 159.997 238.555 159.914L240.008 159.867V159.336C240.008 158.664 239.862 158.169 239.57 157.852C239.284 157.529 238.823 157.367 238.188 157.367C237.474 157.367 236.667 157.586 235.766 158.023L235.367 157.031C235.789 156.802 236.25 156.622 236.75 156.492C237.255 156.362 237.76 156.297 238.266 156.297C239.286 156.297 240.042 156.523 240.531 156.977C241.026 157.43 241.273 158.156 241.273 159.156V165H240.312ZM237.383 164.086C238.19 164.086 238.823 163.865 239.281 163.422C239.745 162.979 239.977 162.359 239.977 161.562V160.789L238.68 160.844C237.648 160.88 236.904 161.042 236.445 161.328C235.992 161.609 235.766 162.049 235.766 162.648C235.766 163.117 235.906 163.474 236.188 163.719C236.474 163.964 236.872 164.086 237.383 164.086Z" fill="#007BC7"/>
<path d="M100 166.602H242.57V167.398H100V166.602Z" fill="#007BC7"/>
<path d="M88.59 196.5H87V191.5C87 190.95 86.55 190.5 86 190.5H82C81.45 190.5 81 190.95 81 191.5V196.5H79.41C78.52 196.5 78.07 197.58 78.7 198.21L83.29 202.8C83.68 203.19 84.31 203.19 84.7 202.8L89.29 198.21C89.92 197.58 89.48 196.5 88.59 196.5ZM77 206.5C77 207.05 77.45 207.5 78 207.5H90C90.55 207.5 91 207.05 91 206.5C91 205.95 90.55 205.5 90 205.5H78C77.45 205.5 77 205.95 77 206.5Z" fill="#007BC7"/>
<path d="M107.938 205H101.57V193.578H107.938V194.758H102.898V198.438H107.633V199.609H102.898V203.812H107.938V205ZM116.141 205V199.461C116.141 198.763 115.982 198.242 115.664 197.898C115.346 197.555 114.849 197.383 114.172 197.383C113.276 197.383 112.62 197.625 112.203 198.109C111.786 198.594 111.578 199.393 111.578 200.508V205H110.281V196.438H111.336L111.547 197.609H111.609C111.875 197.188 112.247 196.862 112.727 196.633C113.206 196.398 113.74 196.281 114.328 196.281C115.359 196.281 116.135 196.531 116.656 197.031C117.177 197.526 117.438 198.32 117.438 199.414V205H116.141ZM121.406 205H120.109V192.844H121.406V205ZM129.422 205L129.164 203.781H129.102C128.674 204.318 128.247 204.682 127.82 204.875C127.398 205.062 126.87 205.156 126.234 205.156C125.385 205.156 124.719 204.938 124.234 204.5C123.755 204.062 123.516 203.44 123.516 202.633C123.516 200.904 124.898 199.997 127.664 199.914L129.117 199.867V199.336C129.117 198.664 128.971 198.169 128.68 197.852C128.393 197.529 127.932 197.367 127.297 197.367C126.583 197.367 125.776 197.586 124.875 198.023L124.477 197.031C124.898 196.802 125.359 196.622 125.859 196.492C126.365 196.362 126.87 196.297 127.375 196.297C128.396 196.297 129.151 196.523 129.641 196.977C130.135 197.43 130.383 198.156 130.383 199.156V205H129.422ZM126.492 204.086C127.299 204.086 127.932 203.865 128.391 203.422C128.854 202.979 129.086 202.359 129.086 201.562V200.789L127.789 200.844C126.758 200.88 126.013 201.042 125.555 201.328C125.102 201.609 124.875 202.049 124.875 202.648C124.875 203.117 125.016 203.474 125.297 203.719C125.583 203.964 125.982 204.086 126.492 204.086ZM136.484 205.156C135.245 205.156 134.284 204.776 133.602 204.016C132.924 203.25 132.586 202.169 132.586 200.773C132.586 199.341 132.93 198.234 133.617 197.453C134.31 196.672 135.294 196.281 136.57 196.281C136.982 196.281 137.393 196.326 137.805 196.414C138.216 196.503 138.539 196.607 138.773 196.727L138.375 197.828C138.089 197.714 137.776 197.62 137.438 197.547C137.099 197.469 136.799 197.43 136.539 197.43C134.799 197.43 133.93 198.539 133.93 200.758C133.93 201.81 134.141 202.617 134.562 203.18C134.99 203.742 135.62 204.023 136.453 204.023C137.167 204.023 137.898 203.87 138.648 203.562V204.711C138.076 205.008 137.354 205.156 136.484 205.156ZM144.305 205.156C143.039 205.156 142.039 204.771 141.305 204C140.576 203.229 140.211 202.159 140.211 200.789C140.211 199.409 140.549 198.312 141.227 197.5C141.909 196.688 142.823 196.281 143.969 196.281C145.042 196.281 145.891 196.635 146.516 197.344C147.141 198.047 147.453 198.977 147.453 200.133V200.953H141.555C141.581 201.958 141.833 202.721 142.312 203.242C142.797 203.763 143.477 204.023 144.352 204.023C145.273 204.023 146.185 203.831 147.086 203.445V204.602C146.628 204.799 146.193 204.94 145.781 205.023C145.375 205.112 144.883 205.156 144.305 205.156ZM143.953 197.367C143.266 197.367 142.716 197.591 142.305 198.039C141.898 198.487 141.659 199.107 141.586 199.898H146.062C146.062 199.081 145.88 198.456 145.516 198.023C145.151 197.586 144.63 197.367 143.953 197.367ZM159.656 203.852H159.586C158.987 204.721 158.091 205.156 156.898 205.156C155.779 205.156 154.906 204.773 154.281 204.008C153.661 203.242 153.352 202.154 153.352 200.742C153.352 199.331 153.664 198.234 154.289 197.453C154.914 196.672 155.784 196.281 156.898 196.281C158.06 196.281 158.951 196.703 159.57 197.547H159.672L159.617 196.93L159.586 196.328V192.844H160.883V205H159.828L159.656 203.852ZM157.062 204.07C157.948 204.07 158.589 203.831 158.984 203.352C159.385 202.867 159.586 202.089 159.586 201.016V200.742C159.586 199.529 159.383 198.664 158.977 198.148C158.576 197.628 157.932 197.367 157.047 197.367C156.286 197.367 155.703 197.664 155.297 198.258C154.896 198.846 154.695 199.68 154.695 200.758C154.695 201.852 154.896 202.677 155.297 203.234C155.698 203.792 156.286 204.07 157.062 204.07ZM167.258 205.156C165.992 205.156 164.992 204.771 164.258 204C163.529 203.229 163.164 202.159 163.164 200.789C163.164 199.409 163.503 198.312 164.18 197.5C164.862 196.688 165.776 196.281 166.922 196.281C167.995 196.281 168.844 196.635 169.469 197.344C170.094 198.047 170.406 198.977 170.406 200.133V200.953H164.508C164.534 201.958 164.786 202.721 165.266 203.242C165.75 203.763 166.43 204.023 167.305 204.023C168.227 204.023 169.138 203.831 170.039 203.445V204.602C169.581 204.799 169.146 204.94 168.734 205.023C168.328 205.112 167.836 205.156 167.258 205.156ZM166.906 197.367C166.219 197.367 165.669 197.591 165.258 198.039C164.852 198.487 164.612 199.107 164.539 199.898H169.016C169.016 199.081 168.833 198.456 168.469 198.023C168.104 197.586 167.583 197.367 166.906 197.367ZM182.609 203.852H182.539C181.94 204.721 181.044 205.156 179.852 205.156C178.732 205.156 177.859 204.773 177.234 204.008C176.615 203.242 176.305 202.154 176.305 200.742C176.305 199.331 176.617 198.234 177.242 197.453C177.867 196.672 178.737 196.281 179.852 196.281C181.013 196.281 181.904 196.703 182.523 197.547H182.625L182.57 196.93L182.539 196.328V192.844H183.836V205H182.781L182.609 203.852ZM180.016 204.07C180.901 204.07 181.542 203.831 181.938 203.352C182.339 202.867 182.539 202.089 182.539 201.016V200.742C182.539 199.529 182.336 198.664 181.93 198.148C181.529 197.628 180.885 197.367 180 197.367C179.24 197.367 178.656 197.664 178.25 198.258C177.849 198.846 177.648 199.68 177.648 200.758C177.648 201.852 177.849 202.677 178.25 203.234C178.651 203.792 179.24 204.07 180.016 204.07ZM190.211 205.156C188.945 205.156 187.945 204.771 187.211 204C186.482 203.229 186.117 202.159 186.117 200.789C186.117 199.409 186.456 198.312 187.133 197.5C187.815 196.688 188.729 196.281 189.875 196.281C190.948 196.281 191.797 196.635 192.422 197.344C193.047 198.047 193.359 198.977 193.359 200.133V200.953H187.461C187.487 201.958 187.74 202.721 188.219 203.242C188.703 203.763 189.383 204.023 190.258 204.023C191.18 204.023 192.091 203.831 192.992 203.445V204.602C192.534 204.799 192.099 204.94 191.688 205.023C191.281 205.112 190.789 205.156 190.211 205.156ZM189.859 197.367C189.172 197.367 188.622 197.591 188.211 198.039C187.805 198.487 187.565 199.107 187.492 199.898H191.969C191.969 199.081 191.786 198.456 191.422 198.023C191.057 197.586 190.536 197.367 189.859 197.367ZM201.102 202.664C201.102 203.461 200.805 204.076 200.211 204.508C199.617 204.94 198.784 205.156 197.711 205.156C196.576 205.156 195.69 204.977 195.055 204.617V203.414C195.466 203.622 195.906 203.786 196.375 203.906C196.849 204.026 197.305 204.086 197.742 204.086C198.419 204.086 198.94 203.979 199.305 203.766C199.669 203.547 199.852 203.216 199.852 202.773C199.852 202.44 199.706 202.156 199.414 201.922C199.128 201.682 198.565 201.401 197.727 201.078C196.93 200.781 196.362 200.523 196.023 200.305C195.69 200.081 195.44 199.828 195.273 199.547C195.112 199.266 195.031 198.93 195.031 198.539C195.031 197.841 195.315 197.292 195.883 196.891C196.451 196.484 197.229 196.281 198.219 196.281C199.141 196.281 200.042 196.469 200.922 196.844L200.461 197.898C199.602 197.544 198.823 197.367 198.125 197.367C197.51 197.367 197.047 197.464 196.734 197.656C196.422 197.849 196.266 198.115 196.266 198.453C196.266 198.682 196.323 198.878 196.438 199.039C196.557 199.201 196.747 199.354 197.008 199.5C197.268 199.646 197.768 199.857 198.508 200.133C199.523 200.503 200.208 200.875 200.562 201.25C200.922 201.625 201.102 202.096 201.102 202.664ZM206.641 205.156C205.401 205.156 204.44 204.776 203.758 204.016C203.081 203.25 202.742 202.169 202.742 200.773C202.742 199.341 203.086 198.234 203.773 197.453C204.466 196.672 205.451 196.281 206.727 196.281C207.138 196.281 207.549 196.326 207.961 196.414C208.372 196.503 208.695 196.607 208.93 196.727L208.531 197.828C208.245 197.714 207.932 197.62 207.594 197.547C207.255 197.469 206.956 197.43 206.695 197.43C204.956 197.43 204.086 198.539 204.086 200.758C204.086 201.81 204.297 202.617 204.719 203.18C205.146 203.742 205.776 204.023 206.609 204.023C207.323 204.023 208.055 203.87 208.805 203.562V204.711C208.232 205.008 207.51 205.156 206.641 205.156ZM216.109 205L215.852 203.781H215.789C215.362 204.318 214.935 204.682 214.508 204.875C214.086 205.062 213.557 205.156 212.922 205.156C212.073 205.156 211.406 204.938 210.922 204.5C210.443 204.062 210.203 203.44 210.203 202.633C210.203 200.904 211.586 199.997 214.352 199.914L215.805 199.867V199.336C215.805 198.664 215.659 198.169 215.367 197.852C215.081 197.529 214.62 197.367 213.984 197.367C213.271 197.367 212.464 197.586 211.562 198.023L211.164 197.031C211.586 196.802 212.047 196.622 212.547 196.492C213.052 196.362 213.557 196.297 214.062 196.297C215.083 196.297 215.839 196.523 216.328 196.977C216.823 197.43 217.07 198.156 217.07 199.156V205H216.109ZM213.18 204.086C213.987 204.086 214.62 203.865 215.078 203.422C215.542 202.979 215.773 202.359 215.773 201.562V200.789L214.477 200.844C213.445 200.88 212.701 201.042 212.242 201.328C211.789 201.609 211.562 202.049 211.562 202.648C211.562 203.117 211.703 203.474 211.984 203.719C212.271 203.964 212.669 204.086 213.18 204.086ZM223.656 196.281C224.036 196.281 224.378 196.312 224.68 196.375L224.5 197.578C224.146 197.5 223.833 197.461 223.562 197.461C222.87 197.461 222.276 197.742 221.781 198.305C221.292 198.867 221.047 199.568 221.047 200.406V205H219.75V196.438H220.82L220.969 198.023H221.031C221.349 197.466 221.732 197.036 222.18 196.734C222.628 196.432 223.12 196.281 223.656 196.281ZM233.289 196.438V197.258L231.703 197.445C231.849 197.628 231.979 197.867 232.094 198.164C232.208 198.456 232.266 198.786 232.266 199.156C232.266 199.995 231.979 200.664 231.406 201.164C230.833 201.664 230.047 201.914 229.047 201.914C228.792 201.914 228.552 201.893 228.328 201.852C227.776 202.143 227.5 202.51 227.5 202.953C227.5 203.188 227.596 203.362 227.789 203.477C227.982 203.586 228.312 203.641 228.781 203.641H230.297C231.224 203.641 231.935 203.836 232.43 204.227C232.93 204.617 233.18 205.185 233.18 205.93C233.18 206.878 232.799 207.599 232.039 208.094C231.279 208.594 230.169 208.844 228.711 208.844C227.591 208.844 226.727 208.635 226.117 208.219C225.513 207.802 225.211 207.214 225.211 206.453C225.211 205.932 225.378 205.482 225.711 205.102C226.044 204.721 226.513 204.464 227.117 204.328C226.898 204.229 226.714 204.076 226.562 203.867C226.417 203.659 226.344 203.417 226.344 203.141C226.344 202.828 226.427 202.555 226.594 202.32C226.76 202.086 227.023 201.859 227.383 201.641C226.94 201.458 226.578 201.148 226.297 200.711C226.021 200.273 225.883 199.773 225.883 199.211C225.883 198.273 226.164 197.552 226.727 197.047C227.289 196.536 228.086 196.281 229.117 196.281C229.565 196.281 229.969 196.333 230.328 196.438H233.289ZM226.461 206.438C226.461 206.901 226.656 207.253 227.047 207.492C227.438 207.732 227.997 207.852 228.727 207.852C229.815 207.852 230.62 207.688 231.141 207.359C231.667 207.036 231.93 206.596 231.93 206.039C231.93 205.576 231.786 205.253 231.5 205.07C231.214 204.893 230.674 204.805 229.883 204.805H228.328C227.74 204.805 227.281 204.945 226.953 205.227C226.625 205.508 226.461 205.911 226.461 206.438ZM227.164 199.18C227.164 199.779 227.333 200.232 227.672 200.539C228.01 200.846 228.482 201 229.086 201C230.352 201 230.984 200.385 230.984 199.156C230.984 197.87 230.344 197.227 229.062 197.227C228.453 197.227 227.984 197.391 227.656 197.719C227.328 198.047 227.164 198.534 227.164 199.18ZM240.312 205L240.055 203.781H239.992C239.565 204.318 239.138 204.682 238.711 204.875C238.289 205.062 237.76 205.156 237.125 205.156C236.276 205.156 235.609 204.938 235.125 204.5C234.646 204.062 234.406 203.44 234.406 202.633C234.406 200.904 235.789 199.997 238.555 199.914L240.008 199.867V199.336C240.008 198.664 239.862 198.169 239.57 197.852C239.284 197.529 238.823 197.367 238.188 197.367C237.474 197.367 236.667 197.586 235.766 198.023L235.367 197.031C235.789 196.802 236.25 196.622 236.75 196.492C237.255 196.362 237.76 196.297 238.266 196.297C239.286 196.297 240.042 196.523 240.531 196.977C241.026 197.43 241.273 198.156 241.273 199.156V205H240.312ZM237.383 204.086C238.19 204.086 238.823 203.865 239.281 203.422C239.745 202.979 239.977 202.359 239.977 201.562V200.789L238.68 200.844C237.648 200.88 236.904 201.042 236.445 201.328C235.992 201.609 235.766 202.049 235.766 202.648C235.766 203.117 235.906 203.474 236.188 203.719C236.474 203.964 236.872 204.086 237.383 204.086Z" fill="#007BC7"/>
<path d="M100 206.602H242.57V207.398H100V206.602Z" fill="#007BC7"/>
<defs>
<clipPath id="clip0_5017_394">
<rect width="340" height="262" fill="white"/>
</clipPath>
</defs>
</svg>
