<svg width="340" height="262" viewBox="0 0 340 262" fill="none" xmlns="http://www.w3.org/2000/svg">
<g clip-path="url(#clip0_5017_388)">
<path d="M3.82022 1H336.18C336.292 1 336.54 1.06244 336.898 1.49287C337.251 1.91738 337.614 2.5916 337.938 3.51268C338.583 5.34574 339 7.94339 339 10.8601V251.14C339 254.057 338.583 256.654 337.938 258.487C337.614 259.408 337.251 260.083 336.898 260.507C336.54 260.938 336.292 261 336.18 261H3.82022C3.70758 261 3.46005 260.938 3.10207 260.507C2.74901 260.083 2.38626 259.408 2.06226 258.487C1.41745 256.654 1 254.057 1 251.14V10.8601C1 7.9434 1.41745 5.34574 2.06226 3.51269C2.38626 2.5916 2.74901 1.91738 3.10207 1.49287C3.46005 1.06244 3.70758 1 3.82022 1Z" fill="white" stroke="#E6EBF0" stroke-width="2"/>
</g>
<path d="M53.169 75.168C51.755 75.168 50.523 74.867 49.473 74.265C48.423 73.649 47.618 72.774 47.058 71.64C46.498 70.492 46.218 69.141 46.218 67.587C46.218 66.047 46.498 64.71 47.058 63.576C47.618 62.428 48.423 61.553 49.473 60.951C50.523 60.335 51.755 60.027 53.169 60.027C54.093 60.027 54.968 60.174 55.794 60.468C56.62 60.748 57.341 61.161 57.957 61.707C58.223 61.917 58.356 62.197 58.356 62.547C58.356 62.799 58.286 63.016 58.146 63.198C58.006 63.366 57.838 63.45 57.642 63.45C57.404 63.45 57.173 63.359 56.949 63.177C56.277 62.673 55.661 62.323 55.101 62.127C54.555 61.917 53.932 61.812 53.232 61.812C51.692 61.812 50.509 62.309 49.683 63.303C48.857 64.297 48.444 65.725 48.444 67.587C48.444 69.463 48.857 70.898 49.683 71.892C50.509 72.886 51.692 73.383 53.232 73.383C53.904 73.383 54.513 73.278 55.059 73.068C55.619 72.858 56.249 72.508 56.949 72.018C57.229 71.836 57.46 71.745 57.642 71.745C57.838 71.745 58.006 71.836 58.146 72.018C58.286 72.186 58.356 72.396 58.356 72.648C58.356 72.998 58.223 73.278 57.957 73.488C57.341 74.034 56.62 74.454 55.794 74.748C54.968 75.028 54.093 75.168 53.169 75.168ZM64.9288 75.147C63.9208 75.147 63.0318 74.93 62.2618 74.496C61.5058 74.062 60.9178 73.446 60.4978 72.648C60.0918 71.836 59.8888 70.898 59.8888 69.834C59.8888 68.756 60.0918 67.818 60.4978 67.02C60.9178 66.208 61.5058 65.585 62.2618 65.151C63.0318 64.717 63.9208 64.5 64.9288 64.5C65.9368 64.5 66.8188 64.717 67.5748 65.151C68.3448 65.585 68.9328 66.208 69.3388 67.02C69.7588 67.818 69.9688 68.756 69.9688 69.834C69.9688 70.898 69.7588 71.836 69.3388 72.648C68.9328 73.446 68.3448 74.062 67.5748 74.496C66.8188 74.93 65.9368 75.147 64.9288 75.147ZM64.9288 73.467C65.8668 73.467 66.5808 73.159 67.0708 72.543C67.5748 71.927 67.8268 71.024 67.8268 69.834C67.8268 68.658 67.5748 67.762 67.0708 67.146C66.5668 66.516 65.8528 66.201 64.9288 66.201C64.0048 66.201 63.2908 66.516 62.7868 67.146C62.2828 67.762 62.0308 68.658 62.0308 69.834C62.0308 71.024 62.2758 71.927 62.7658 72.543C63.2698 73.159 63.9908 73.467 64.9288 73.467ZM77.8534 64.5C80.3034 64.5 81.5284 65.879 81.5284 68.637V74.097C81.5284 74.419 81.4304 74.671 81.2344 74.853C81.0524 75.021 80.7934 75.105 80.4574 75.105C80.1354 75.105 79.8764 75.014 79.6804 74.832C79.4984 74.65 79.4074 74.405 79.4074 74.097V68.742C79.4074 67.874 79.2324 67.237 78.8824 66.831C78.5464 66.425 78.0144 66.222 77.2864 66.222C76.4324 66.222 75.7464 66.488 75.2284 67.02C74.7104 67.552 74.4514 68.266 74.4514 69.162V74.097C74.4514 74.405 74.3534 74.65 74.1574 74.832C73.9754 75.014 73.7234 75.105 73.4014 75.105C73.0794 75.105 72.8204 75.014 72.6244 74.832C72.4284 74.65 72.3304 74.405 72.3304 74.097V65.55C72.3304 65.256 72.4284 65.018 72.6244 64.836C72.8344 64.64 73.0934 64.542 73.4014 64.542C73.7094 64.542 73.9544 64.633 74.1364 64.815C74.3184 64.997 74.4094 65.235 74.4094 65.529V66.39C74.7454 65.774 75.2144 65.305 75.8164 64.983C76.4184 64.661 77.0974 64.5 77.8534 64.5ZM89.449 73.488C89.757 73.516 89.974 73.6 90.1 73.74C90.24 73.866 90.31 74.048 90.31 74.286C90.31 74.566 90.198 74.783 89.974 74.937C89.764 75.077 89.449 75.133 89.029 75.105L88.462 75.063C87.328 74.979 86.481 74.636 85.921 74.034C85.361 73.418 85.081 72.515 85.081 71.325V66.39H83.821C83.205 66.39 82.897 66.117 82.897 65.571C82.897 65.319 82.974 65.123 83.128 64.983C83.296 64.829 83.527 64.752 83.821 64.752H85.081V62.589C85.081 62.267 85.172 62.015 85.354 61.833C85.55 61.651 85.809 61.56 86.131 61.56C86.453 61.56 86.712 61.651 86.908 61.833C87.104 62.015 87.202 62.267 87.202 62.589V64.752H89.281C89.575 64.752 89.799 64.829 89.953 64.983C90.121 65.123 90.205 65.319 90.205 65.571C90.205 65.837 90.121 66.04 89.953 66.18C89.799 66.32 89.575 66.39 89.281 66.39H87.202V71.472C87.202 72.13 87.335 72.613 87.601 72.921C87.881 73.229 88.301 73.404 88.861 73.446L89.449 73.488ZM99.8553 72.417C100.051 72.417 100.212 72.494 100.338 72.648C100.464 72.802 100.527 72.998 100.527 73.236C100.527 73.642 100.275 73.985 99.7713 74.265C99.2813 74.545 98.7423 74.762 98.1543 74.916C97.5803 75.07 97.0273 75.147 96.4953 75.147C94.8713 75.147 93.5903 74.678 92.6523 73.74C91.7143 72.788 91.2453 71.493 91.2453 69.855C91.2453 68.805 91.4483 67.874 91.8543 67.062C92.2743 66.25 92.8553 65.62 93.5973 65.172C94.3533 64.724 95.2073 64.5 96.1593 64.5C97.5313 64.5 98.6163 64.941 99.4143 65.823C100.212 66.705 100.611 67.895 100.611 69.393C100.611 69.953 100.359 70.233 99.8553 70.233H93.3663C93.5063 72.403 94.5493 73.488 96.4953 73.488C97.0133 73.488 97.4613 73.418 97.8393 73.278C98.2173 73.138 98.6163 72.956 99.0363 72.732C99.0783 72.704 99.1903 72.648 99.3723 72.564C99.5683 72.466 99.7293 72.417 99.8553 72.417ZM96.2013 66.054C95.3893 66.054 94.7383 66.313 94.2483 66.831C93.7583 67.349 93.4643 68.077 93.3663 69.015H98.7843C98.7423 68.063 98.4973 67.335 98.0493 66.831C97.6153 66.313 96.9993 66.054 96.2013 66.054ZM108.472 64.5C110.922 64.5 112.147 65.879 112.147 68.637V74.097C112.147 74.419 112.049 74.671 111.853 74.853C111.671 75.021 111.412 75.105 111.076 75.105C110.754 75.105 110.495 75.014 110.299 74.832C110.117 74.65 110.026 74.405 110.026 74.097V68.742C110.026 67.874 109.851 67.237 109.501 66.831C109.165 66.425 108.633 66.222 107.905 66.222C107.051 66.222 106.365 66.488 105.847 67.02C105.329 67.552 105.07 68.266 105.07 69.162V74.097C105.07 74.405 104.972 74.65 104.776 74.832C104.594 75.014 104.342 75.105 104.02 75.105C103.698 75.105 103.439 75.014 103.243 74.832C103.047 74.65 102.949 74.405 102.949 74.097V65.55C102.949 65.256 103.047 65.018 103.243 64.836C103.453 64.64 103.712 64.542 104.02 64.542C104.328 64.542 104.573 64.633 104.755 64.815C104.937 64.997 105.028 65.235 105.028 65.529V66.39C105.364 65.774 105.833 65.305 106.435 64.983C107.037 64.661 107.716 64.5 108.472 64.5ZM116.119 75.105C115.811 75.105 115.552 75.021 115.342 74.853C115.146 74.685 115.048 74.433 115.048 74.097V65.571C115.048 65.235 115.146 64.983 115.342 64.815C115.552 64.633 115.811 64.542 116.119 64.542C116.427 64.542 116.679 64.633 116.875 64.815C117.071 64.983 117.169 65.235 117.169 65.571V74.097C117.169 74.433 117.071 74.685 116.875 74.853C116.679 75.021 116.427 75.105 116.119 75.105ZM116.119 62.484C115.713 62.484 115.391 62.372 115.153 62.148C114.915 61.924 114.796 61.63 114.796 61.266C114.796 60.902 114.915 60.615 115.153 60.405C115.391 60.181 115.713 60.069 116.119 60.069C116.511 60.069 116.826 60.181 117.064 60.405C117.316 60.615 117.442 60.902 117.442 61.266C117.442 61.63 117.323 61.924 117.085 62.148C116.847 62.372 116.525 62.484 116.119 62.484ZM128.513 60.09C128.835 60.09 129.094 60.181 129.29 60.363C129.486 60.545 129.584 60.79 129.584 61.098V74.076C129.584 74.398 129.486 74.65 129.29 74.832C129.108 75.014 128.856 75.105 128.534 75.105C128.212 75.105 127.953 75.014 127.757 74.832C127.575 74.65 127.484 74.398 127.484 74.076V73.236C127.176 73.852 126.728 74.328 126.14 74.664C125.552 74.986 124.873 75.147 124.103 75.147C123.221 75.147 122.43 74.923 121.73 74.475C121.044 74.027 120.505 73.397 120.113 72.585C119.735 71.773 119.546 70.842 119.546 69.792C119.546 68.728 119.735 67.797 120.113 66.999C120.505 66.201 121.044 65.585 121.73 65.151C122.416 64.717 123.207 64.5 124.103 64.5C124.873 64.5 125.545 64.668 126.119 65.004C126.707 65.326 127.155 65.788 127.463 66.39V61.056C127.463 60.762 127.554 60.531 127.736 60.363C127.932 60.181 128.191 60.09 128.513 60.09ZM124.607 73.467C125.517 73.467 126.224 73.152 126.728 72.522C127.232 71.892 127.484 70.996 127.484 69.834C127.484 68.672 127.232 67.776 126.728 67.146C126.238 66.516 125.531 66.201 124.607 66.201C123.683 66.201 122.962 66.516 122.444 67.146C121.94 67.762 121.688 68.644 121.688 69.792C121.688 70.94 121.947 71.843 122.465 72.501C122.983 73.145 123.697 73.467 124.607 73.467ZM136.993 75.147C135.985 75.147 135.096 74.93 134.326 74.496C133.57 74.062 132.982 73.446 132.562 72.648C132.156 71.836 131.953 70.898 131.953 69.834C131.953 68.756 132.156 67.818 132.562 67.02C132.982 66.208 133.57 65.585 134.326 65.151C135.096 64.717 135.985 64.5 136.993 64.5C138.001 64.5 138.883 64.717 139.639 65.151C140.409 65.585 140.997 66.208 141.403 67.02C141.823 67.818 142.033 68.756 142.033 69.834C142.033 70.898 141.823 71.836 141.403 72.648C140.997 73.446 140.409 74.062 139.639 74.496C138.883 74.93 138.001 75.147 136.993 75.147ZM136.993 73.467C137.931 73.467 138.645 73.159 139.135 72.543C139.639 71.927 139.891 71.024 139.891 69.834C139.891 68.658 139.639 67.762 139.135 67.146C138.631 66.516 137.917 66.201 136.993 66.201C136.069 66.201 135.355 66.516 134.851 67.146C134.347 67.762 134.095 68.658 134.095 69.834C134.095 71.024 134.34 71.927 134.83 72.543C135.334 73.159 136.055 73.467 136.993 73.467ZM147.965 75.147C146.537 75.147 145.368 74.853 144.458 74.265C144.206 74.111 144.024 73.95 143.912 73.782C143.814 73.614 143.765 73.425 143.765 73.215C143.765 72.991 143.828 72.802 143.954 72.648C144.08 72.494 144.241 72.417 144.437 72.417C144.619 72.417 144.906 72.529 145.298 72.753C145.718 72.977 146.124 73.159 146.516 73.299C146.922 73.439 147.426 73.509 148.028 73.509C148.7 73.509 149.225 73.39 149.603 73.152C149.981 72.914 150.17 72.578 150.17 72.144C150.17 71.864 150.093 71.64 149.939 71.472C149.799 71.304 149.547 71.157 149.183 71.031C148.819 70.891 148.28 70.744 147.566 70.59C146.334 70.324 145.445 69.967 144.899 69.519C144.367 69.057 144.101 68.434 144.101 67.65C144.101 67.048 144.276 66.509 144.626 66.033C144.976 65.543 145.459 65.165 146.075 64.899C146.691 64.633 147.391 64.5 148.175 64.5C148.735 64.5 149.281 64.577 149.813 64.731C150.345 64.871 150.814 65.081 151.22 65.361C151.682 65.669 151.913 66.026 151.913 66.432C151.913 66.656 151.843 66.845 151.703 66.999C151.577 67.153 151.423 67.23 151.241 67.23C151.115 67.23 150.989 67.202 150.863 67.146C150.737 67.09 150.569 66.999 150.359 66.873C149.981 66.649 149.624 66.474 149.288 66.348C148.966 66.222 148.56 66.159 148.07 66.159C147.482 66.159 147.006 66.285 146.642 66.537C146.292 66.789 146.117 67.132 146.117 67.566C146.117 67.958 146.278 68.266 146.6 68.49C146.936 68.7 147.559 68.903 148.469 69.099C149.407 69.295 150.142 69.519 150.674 69.771C151.206 70.023 151.584 70.338 151.808 70.716C152.046 71.08 152.165 71.549 152.165 72.123C152.165 73.033 151.78 73.768 151.01 74.328C150.254 74.874 149.239 75.147 147.965 75.147ZM168.442 60.09C168.764 60.09 169.023 60.181 169.219 60.363C169.415 60.545 169.513 60.79 169.513 61.098V74.076C169.513 74.398 169.415 74.65 169.219 74.832C169.037 75.014 168.785 75.105 168.463 75.105C168.141 75.105 167.882 75.014 167.686 74.832C167.504 74.65 167.413 74.398 167.413 74.076V73.236C167.105 73.852 166.657 74.328 166.069 74.664C165.481 74.986 164.802 75.147 164.032 75.147C163.15 75.147 162.359 74.923 161.659 74.475C160.973 74.027 160.434 73.397 160.042 72.585C159.664 71.773 159.475 70.842 159.475 69.792C159.475 68.728 159.664 67.797 160.042 66.999C160.434 66.201 160.973 65.585 161.659 65.151C162.345 64.717 163.136 64.5 164.032 64.5C164.802 64.5 165.474 64.668 166.048 65.004C166.636 65.326 167.084 65.788 167.392 66.39V61.056C167.392 60.762 167.483 60.531 167.665 60.363C167.861 60.181 168.12 60.09 168.442 60.09ZM164.536 73.467C165.446 73.467 166.153 73.152 166.657 72.522C167.161 71.892 167.413 70.996 167.413 69.834C167.413 68.672 167.161 67.776 166.657 67.146C166.167 66.516 165.46 66.201 164.536 66.201C163.612 66.201 162.891 66.516 162.373 67.146C161.869 67.762 161.617 68.644 161.617 69.792C161.617 70.94 161.876 71.843 162.394 72.501C162.912 73.145 163.626 73.467 164.536 73.467ZM180.492 72.417C180.688 72.417 180.849 72.494 180.975 72.648C181.101 72.802 181.164 72.998 181.164 73.236C181.164 73.642 180.912 73.985 180.408 74.265C179.918 74.545 179.379 74.762 178.791 74.916C178.217 75.07 177.664 75.147 177.132 75.147C175.508 75.147 174.227 74.678 173.289 73.74C172.351 72.788 171.882 71.493 171.882 69.855C171.882 68.805 172.085 67.874 172.491 67.062C172.911 66.25 173.492 65.62 174.234 65.172C174.99 64.724 175.844 64.5 176.796 64.5C178.168 64.5 179.253 64.941 180.051 65.823C180.849 66.705 181.248 67.895 181.248 69.393C181.248 69.953 180.996 70.233 180.492 70.233H174.003C174.143 72.403 175.186 73.488 177.132 73.488C177.65 73.488 178.098 73.418 178.476 73.278C178.854 73.138 179.253 72.956 179.673 72.732C179.715 72.704 179.827 72.648 180.009 72.564C180.205 72.466 180.366 72.417 180.492 72.417ZM176.838 66.054C176.026 66.054 175.375 66.313 174.885 66.831C174.395 67.349 174.101 68.077 174.003 69.015H179.421C179.379 68.063 179.134 67.335 178.686 66.831C178.252 66.313 177.636 66.054 176.838 66.054ZM197.06 64.542C197.382 64.542 197.634 64.633 197.816 64.815C198.012 64.997 198.11 65.249 198.11 65.571V74.118C198.11 74.412 198.012 74.65 197.816 74.832C197.62 75.014 197.361 75.105 197.039 75.105C196.745 75.105 196.507 75.021 196.325 74.853C196.143 74.671 196.052 74.433 196.052 74.139V73.341C195.73 73.929 195.282 74.377 194.708 74.685C194.148 74.993 193.518 75.147 192.818 75.147C190.326 75.147 189.08 73.775 189.08 71.031V65.571C189.08 65.249 189.171 64.997 189.353 64.815C189.549 64.633 189.815 64.542 190.151 64.542C190.473 64.542 190.725 64.633 190.907 64.815C191.103 64.997 191.201 65.249 191.201 65.571V71.01C191.201 71.836 191.369 72.445 191.705 72.837C192.041 73.229 192.559 73.425 193.259 73.425C194.085 73.425 194.743 73.159 195.233 72.627C195.737 72.095 195.989 71.388 195.989 70.506V65.571C195.989 65.263 196.087 65.018 196.283 64.836C196.479 64.64 196.738 64.542 197.06 64.542ZM206.601 64.5C209.051 64.5 210.276 65.879 210.276 68.637V74.097C210.276 74.419 210.178 74.671 209.982 74.853C209.8 75.021 209.541 75.105 209.205 75.105C208.883 75.105 208.624 75.014 208.428 74.832C208.246 74.65 208.155 74.405 208.155 74.097V68.742C208.155 67.874 207.98 67.237 207.63 66.831C207.294 66.425 206.762 66.222 206.034 66.222C205.18 66.222 204.494 66.488 203.976 67.02C203.458 67.552 203.199 68.266 203.199 69.162V74.097C203.199 74.405 203.101 74.65 202.905 74.832C202.723 75.014 202.471 75.105 202.149 75.105C201.827 75.105 201.568 75.014 201.372 74.832C201.176 74.65 201.078 74.405 201.078 74.097V65.55C201.078 65.256 201.176 65.018 201.372 64.836C201.582 64.64 201.841 64.542 202.149 64.542C202.457 64.542 202.702 64.633 202.884 64.815C203.066 64.997 203.157 65.235 203.157 65.529V66.39C203.493 65.774 203.962 65.305 204.564 64.983C205.166 64.661 205.845 64.5 206.601 64.5ZM217.483 64.5C218.841 64.5 219.849 64.843 220.507 65.529C221.179 66.215 221.515 67.258 221.515 68.658V74.097C221.515 74.419 221.424 74.671 221.242 74.853C221.06 75.021 220.808 75.105 220.486 75.105C220.178 75.105 219.933 75.014 219.751 74.832C219.569 74.65 219.478 74.405 219.478 74.097V73.32C219.212 73.908 218.813 74.363 218.281 74.685C217.763 74.993 217.154 75.147 216.454 75.147C215.782 75.147 215.166 75.014 214.606 74.748C214.046 74.468 213.605 74.083 213.283 73.593C212.975 73.103 212.821 72.557 212.821 71.955C212.821 71.213 213.01 70.632 213.388 70.212C213.78 69.778 214.417 69.47 215.299 69.288C216.195 69.106 217.42 69.015 218.974 69.015H219.457V68.406C219.457 67.622 219.296 67.055 218.974 66.705C218.652 66.355 218.134 66.18 217.42 66.18C216.93 66.18 216.468 66.243 216.034 66.369C215.6 66.495 215.124 66.677 214.606 66.915C214.228 67.125 213.962 67.23 213.808 67.23C213.598 67.23 213.423 67.153 213.283 66.999C213.157 66.845 213.094 66.649 213.094 66.411C213.094 66.201 213.15 66.019 213.262 65.865C213.388 65.697 213.584 65.536 213.85 65.382C214.34 65.116 214.914 64.906 215.572 64.752C216.23 64.584 216.867 64.5 217.483 64.5ZM216.832 73.572C217.602 73.572 218.232 73.313 218.722 72.795C219.212 72.263 219.457 71.584 219.457 70.758V70.212H219.079C217.987 70.212 217.147 70.261 216.559 70.359C215.971 70.457 215.551 70.625 215.299 70.863C215.047 71.087 214.921 71.416 214.921 71.85C214.921 72.354 215.103 72.767 215.467 73.089C215.831 73.411 216.286 73.572 216.832 73.572ZM235.455 64.5C236.337 64.5 237.121 64.724 237.807 65.172C238.507 65.62 239.046 66.25 239.424 67.062C239.816 67.874 240.012 68.812 240.012 69.876C240.012 70.926 239.823 71.85 239.445 72.648C239.067 73.446 238.528 74.062 237.828 74.496C237.142 74.93 236.351 75.147 235.455 75.147C234.685 75.147 234.006 74.986 233.418 74.664C232.83 74.328 232.382 73.852 232.074 73.236V77.919C232.074 78.213 231.976 78.444 231.78 78.612C231.598 78.794 231.353 78.885 231.045 78.885C230.723 78.885 230.457 78.794 230.247 78.612C230.051 78.43 229.953 78.185 229.953 77.877V65.571C229.953 65.263 230.051 65.018 230.247 64.836C230.443 64.64 230.702 64.542 231.024 64.542C231.332 64.542 231.584 64.64 231.78 64.836C231.976 65.018 232.074 65.263 232.074 65.571V66.432C232.382 65.816 232.83 65.34 233.418 65.004C234.006 64.668 234.685 64.5 235.455 64.5ZM234.951 73.467C235.875 73.467 236.589 73.159 237.093 72.543C237.597 71.913 237.849 71.024 237.849 69.876C237.849 68.714 237.59 67.811 237.072 67.167C236.568 66.523 235.861 66.201 234.951 66.201C234.027 66.201 233.313 66.516 232.809 67.146C232.319 67.776 232.074 68.672 232.074 69.834C232.074 70.996 232.319 71.892 232.809 72.522C233.313 73.152 234.027 73.467 234.951 73.467ZM246.666 64.5C248.024 64.5 249.032 64.843 249.69 65.529C250.362 66.215 250.698 67.258 250.698 68.658V74.097C250.698 74.419 250.607 74.671 250.425 74.853C250.243 75.021 249.991 75.105 249.669 75.105C249.361 75.105 249.116 75.014 248.934 74.832C248.752 74.65 248.661 74.405 248.661 74.097V73.32C248.395 73.908 247.996 74.363 247.464 74.685C246.946 74.993 246.337 75.147 245.637 75.147C244.965 75.147 244.349 75.014 243.789 74.748C243.229 74.468 242.788 74.083 242.466 73.593C242.158 73.103 242.004 72.557 242.004 71.955C242.004 71.213 242.193 70.632 242.571 70.212C242.963 69.778 243.6 69.47 244.482 69.288C245.378 69.106 246.603 69.015 248.157 69.015H248.64V68.406C248.64 67.622 248.479 67.055 248.157 66.705C247.835 66.355 247.317 66.18 246.603 66.18C246.113 66.18 245.651 66.243 245.217 66.369C244.783 66.495 244.307 66.677 243.789 66.915C243.411 67.125 243.145 67.23 242.991 67.23C242.781 67.23 242.606 67.153 242.466 66.999C242.34 66.845 242.277 66.649 242.277 66.411C242.277 66.201 242.333 66.019 242.445 65.865C242.571 65.697 242.767 65.536 243.033 65.382C243.523 65.116 244.097 64.906 244.755 64.752C245.413 64.584 246.05 64.5 246.666 64.5ZM246.015 73.572C246.785 73.572 247.415 73.313 247.905 72.795C248.395 72.263 248.64 71.584 248.64 70.758V70.212H248.262C247.17 70.212 246.33 70.261 245.742 70.359C245.154 70.457 244.734 70.625 244.482 70.863C244.23 71.087 244.104 71.416 244.104 71.85C244.104 72.354 244.286 72.767 244.65 73.089C245.014 73.411 245.469 73.572 246.015 73.572ZM247.107 63.366C246.995 63.464 246.862 63.513 246.708 63.513C246.554 63.513 246.414 63.457 246.288 63.345C246.176 63.233 246.12 63.1 246.12 62.946C246.12 62.806 246.169 62.68 246.267 62.568L248.535 59.607C248.815 59.229 249.137 59.04 249.501 59.04C249.767 59.04 249.991 59.131 250.173 59.313C250.355 59.495 250.446 59.712 250.446 59.964C250.446 60.286 250.278 60.587 249.942 60.867L247.107 63.366ZM262.083 64.542C262.405 64.542 262.657 64.64 262.839 64.836C263.035 65.018 263.133 65.263 263.133 65.571V74.181C263.133 75.749 262.713 76.932 261.873 77.73C261.047 78.528 259.822 78.927 258.198 78.927C256.686 78.927 255.426 78.64 254.418 78.066C253.9 77.772 253.641 77.422 253.641 77.016C253.641 76.778 253.704 76.582 253.83 76.428C253.97 76.274 254.138 76.197 254.334 76.197C254.516 76.197 254.803 76.302 255.195 76.512C255.699 76.75 256.168 76.932 256.602 77.058C257.036 77.198 257.554 77.268 258.156 77.268C260.088 77.268 261.054 76.295 261.054 74.349V72.732C260.76 73.348 260.312 73.831 259.71 74.181C259.108 74.517 258.408 74.685 257.61 74.685C256.714 74.685 255.916 74.475 255.216 74.055C254.516 73.635 253.97 73.04 253.578 72.27C253.2 71.5 253.011 70.611 253.011 69.603C253.011 68.595 253.207 67.706 253.599 66.936C253.991 66.166 254.53 65.571 255.216 65.151C255.916 64.717 256.714 64.5 257.61 64.5C258.394 64.5 259.08 64.668 259.668 65.004C260.27 65.34 260.725 65.816 261.033 66.432V65.55C261.033 65.242 261.124 64.997 261.306 64.815C261.502 64.633 261.761 64.542 262.083 64.542ZM258.114 73.005C259.024 73.005 259.738 72.704 260.256 72.102C260.774 71.5 261.033 70.667 261.033 69.603C261.033 68.553 260.774 67.727 260.256 67.125C259.752 66.509 259.038 66.201 258.114 66.201C257.19 66.201 256.462 66.502 255.93 67.104C255.412 67.706 255.153 68.539 255.153 69.603C255.153 70.667 255.419 71.5 255.951 72.102C256.483 72.704 257.204 73.005 258.114 73.005ZM267.159 75.105C266.851 75.105 266.592 75.021 266.382 74.853C266.186 74.685 266.088 74.433 266.088 74.097V65.571C266.088 65.235 266.186 64.983 266.382 64.815C266.592 64.633 266.851 64.542 267.159 64.542C267.467 64.542 267.719 64.633 267.915 64.815C268.111 64.983 268.209 65.235 268.209 65.571V74.097C268.209 74.433 268.111 74.685 267.915 74.853C267.719 75.021 267.467 75.105 267.159 75.105ZM267.159 62.484C266.753 62.484 266.431 62.372 266.193 62.148C265.955 61.924 265.836 61.63 265.836 61.266C265.836 60.902 265.955 60.615 266.193 60.405C266.431 60.181 266.753 60.069 267.159 60.069C267.551 60.069 267.866 60.181 268.104 60.405C268.356 60.615 268.482 60.902 268.482 61.266C268.482 61.63 268.363 61.924 268.125 62.148C267.887 62.372 267.565 62.484 267.159 62.484ZM276.697 64.5C279.147 64.5 280.372 65.879 280.372 68.637V74.097C280.372 74.419 280.274 74.671 280.078 74.853C279.896 75.021 279.637 75.105 279.301 75.105C278.979 75.105 278.72 75.014 278.524 74.832C278.342 74.65 278.251 74.405 278.251 74.097V68.742C278.251 67.874 278.076 67.237 277.726 66.831C277.39 66.425 276.858 66.222 276.13 66.222C275.276 66.222 274.59 66.488 274.072 67.02C273.554 67.552 273.295 68.266 273.295 69.162V74.097C273.295 74.405 273.197 74.65 273.001 74.832C272.819 75.014 272.567 75.105 272.245 75.105C271.923 75.105 271.664 75.014 271.468 74.832C271.272 74.65 271.174 74.405 271.174 74.097V65.55C271.174 65.256 271.272 65.018 271.468 64.836C271.678 64.64 271.937 64.542 272.245 64.542C272.553 64.542 272.798 64.633 272.98 64.815C273.162 64.997 273.253 65.235 273.253 65.529V66.39C273.589 65.774 274.058 65.305 274.66 64.983C275.262 64.661 275.941 64.5 276.697 64.5ZM287.579 64.5C288.937 64.5 289.945 64.843 290.603 65.529C291.275 66.215 291.611 67.258 291.611 68.658V74.097C291.611 74.419 291.52 74.671 291.338 74.853C291.156 75.021 290.904 75.105 290.582 75.105C290.274 75.105 290.029 75.014 289.847 74.832C289.665 74.65 289.574 74.405 289.574 74.097V73.32C289.308 73.908 288.909 74.363 288.377 74.685C287.859 74.993 287.25 75.147 286.55 75.147C285.878 75.147 285.262 75.014 284.702 74.748C284.142 74.468 283.701 74.083 283.379 73.593C283.071 73.103 282.917 72.557 282.917 71.955C282.917 71.213 283.106 70.632 283.484 70.212C283.876 69.778 284.513 69.47 285.395 69.288C286.291 69.106 287.516 69.015 289.07 69.015H289.553V68.406C289.553 67.622 289.392 67.055 289.07 66.705C288.748 66.355 288.23 66.18 287.516 66.18C287.026 66.18 286.564 66.243 286.13 66.369C285.696 66.495 285.22 66.677 284.702 66.915C284.324 67.125 284.058 67.23 283.904 67.23C283.694 67.23 283.519 67.153 283.379 66.999C283.253 66.845 283.19 66.649 283.19 66.411C283.19 66.201 283.246 66.019 283.358 65.865C283.484 65.697 283.68 65.536 283.946 65.382C284.436 65.116 285.01 64.906 285.668 64.752C286.326 64.584 286.963 64.5 287.579 64.5ZM286.928 73.572C287.698 73.572 288.328 73.313 288.818 72.795C289.308 72.263 289.553 71.584 289.553 70.758V70.212H289.175C288.083 70.212 287.243 70.261 286.655 70.359C286.067 70.457 285.647 70.625 285.395 70.863C285.143 71.087 285.017 71.416 285.017 71.85C285.017 72.354 285.199 72.767 285.563 73.089C285.927 73.411 286.382 73.572 286.928 73.572Z" fill="#38485C"/>
<path d="M53.75 130L52.3281 126.367H47.75L46.3438 130H45L49.5156 118.531H50.6328L55.125 130H53.75ZM51.9141 125.172L50.5859 121.633C50.4141 121.185 50.237 120.635 50.0547 119.984C49.9401 120.484 49.776 121.034 49.5625 121.633L48.2188 125.172H51.9141ZM62.3594 130V124.461C62.3594 123.763 62.2005 123.242 61.8828 122.898C61.5651 122.555 61.0677 122.383 60.3906 122.383C59.4948 122.383 58.8385 122.625 58.4219 123.109C58.0052 123.594 57.7969 124.393 57.7969 125.508V130H56.5V121.438H57.5547L57.7656 122.609H57.8281C58.0938 122.188 58.4661 121.862 58.9453 121.633C59.4245 121.398 59.9583 121.281 60.5469 121.281C61.5781 121.281 62.3542 121.531 62.875 122.031C63.3958 122.526 63.6562 123.32 63.6562 124.414V130H62.3594ZM69.75 130.156C68.5104 130.156 67.5495 129.776 66.8672 129.016C66.1901 128.25 65.8516 127.169 65.8516 125.773C65.8516 124.341 66.1953 123.234 66.8828 122.453C67.5755 121.672 68.5599 121.281 69.8359 121.281C70.2474 121.281 70.6589 121.326 71.0703 121.414C71.4818 121.503 71.8047 121.607 72.0391 121.727L71.6406 122.828C71.3542 122.714 71.0417 122.62 70.7031 122.547C70.3646 122.469 70.0651 122.43 69.8047 122.43C68.0651 122.43 67.1953 123.539 67.1953 125.758C67.1953 126.81 67.4062 127.617 67.8281 128.18C68.2552 128.742 68.8854 129.023 69.7188 129.023C70.4323 129.023 71.1641 128.87 71.9141 128.562V129.711C71.3411 130.008 70.6198 130.156 69.75 130.156ZM75.25 130H73.9531V117.844H75.25V130ZM83.2656 130L83.0078 128.781H82.9453C82.5182 129.318 82.0911 129.682 81.6641 129.875C81.2422 130.062 80.7135 130.156 80.0781 130.156C79.2292 130.156 78.5625 129.938 78.0781 129.5C77.599 129.062 77.3594 128.44 77.3594 127.633C77.3594 125.904 78.7422 124.997 81.5078 124.914L82.9609 124.867V124.336C82.9609 123.664 82.8151 123.169 82.5234 122.852C82.237 122.529 81.776 122.367 81.1406 122.367C80.4271 122.367 79.6198 122.586 78.7188 123.023L78.3203 122.031C78.7422 121.802 79.2031 121.622 79.7031 121.492C80.2083 121.362 80.7135 121.297 81.2188 121.297C82.2396 121.297 82.9948 121.523 83.4844 121.977C83.9792 122.43 84.2266 123.156 84.2266 124.156V130H83.2656ZM80.3359 129.086C81.1432 129.086 81.776 128.865 82.2344 128.422C82.6979 127.979 82.9297 127.359 82.9297 126.562V125.789L81.6328 125.844C80.6016 125.88 79.8568 126.042 79.3984 126.328C78.9453 126.609 78.7188 127.049 78.7188 127.648C78.7188 128.117 78.8594 128.474 79.1406 128.719C79.4271 128.964 79.8255 129.086 80.3359 129.086ZM95.2734 130H94.0078V121.859C94.0078 121.182 94.0286 120.542 94.0703 119.938C93.9609 120.047 93.8385 120.161 93.7031 120.281C93.5677 120.401 92.9479 120.909 91.8438 121.805L91.1562 120.914L94.1797 118.578H95.2734V130Z" fill="#007BC7"/>
<path d="M45 131.602H98.8359V132.398H45V131.602Z" fill="#007BC7"/>
<path d="M53.75 170L52.3281 166.367H47.75L46.3438 170H45L49.5156 158.531H50.6328L55.125 170H53.75ZM51.9141 165.172L50.5859 161.633C50.4141 161.185 50.237 160.635 50.0547 159.984C49.9401 160.484 49.776 161.034 49.5625 161.633L48.2188 165.172H51.9141ZM62.3594 170V164.461C62.3594 163.763 62.2005 163.242 61.8828 162.898C61.5651 162.555 61.0677 162.383 60.3906 162.383C59.4948 162.383 58.8385 162.625 58.4219 163.109C58.0052 163.594 57.7969 164.393 57.7969 165.508V170H56.5V161.438H57.5547L57.7656 162.609H57.8281C58.0938 162.188 58.4661 161.862 58.9453 161.633C59.4245 161.398 59.9583 161.281 60.5469 161.281C61.5781 161.281 62.3542 161.531 62.875 162.031C63.3958 162.526 63.6562 163.32 63.6562 164.414V170H62.3594ZM69.75 170.156C68.5104 170.156 67.5495 169.776 66.8672 169.016C66.1901 168.25 65.8516 167.169 65.8516 165.773C65.8516 164.341 66.1953 163.234 66.8828 162.453C67.5755 161.672 68.5599 161.281 69.8359 161.281C70.2474 161.281 70.6589 161.326 71.0703 161.414C71.4818 161.503 71.8047 161.607 72.0391 161.727L71.6406 162.828C71.3542 162.714 71.0417 162.62 70.7031 162.547C70.3646 162.469 70.0651 162.43 69.8047 162.43C68.0651 162.43 67.1953 163.539 67.1953 165.758C67.1953 166.81 67.4062 167.617 67.8281 168.18C68.2552 168.742 68.8854 169.023 69.7188 169.023C70.4323 169.023 71.1641 168.87 71.9141 168.562V169.711C71.3411 170.008 70.6198 170.156 69.75 170.156ZM75.25 170H73.9531V157.844H75.25V170ZM83.2656 170L83.0078 168.781H82.9453C82.5182 169.318 82.0911 169.682 81.6641 169.875C81.2422 170.062 80.7135 170.156 80.0781 170.156C79.2292 170.156 78.5625 169.938 78.0781 169.5C77.599 169.062 77.3594 168.44 77.3594 167.633C77.3594 165.904 78.7422 164.997 81.5078 164.914L82.9609 164.867V164.336C82.9609 163.664 82.8151 163.169 82.5234 162.852C82.237 162.529 81.776 162.367 81.1406 162.367C80.4271 162.367 79.6198 162.586 78.7188 163.023L78.3203 162.031C78.7422 161.802 79.2031 161.622 79.7031 161.492C80.2083 161.362 80.7135 161.297 81.2188 161.297C82.2396 161.297 82.9948 161.523 83.4844 161.977C83.9792 162.43 84.2266 163.156 84.2266 164.156V170H83.2656ZM80.3359 169.086C81.1432 169.086 81.776 168.865 82.2344 168.422C82.6979 167.979 82.9297 167.359 82.9297 166.562V165.789L81.6328 165.844C80.6016 165.88 79.8568 166.042 79.3984 166.328C78.9453 166.609 78.7188 167.049 78.7188 167.648C78.7188 168.117 78.8594 168.474 79.1406 168.719C79.4271 168.964 79.8255 169.086 80.3359 169.086ZM97.9766 170H90.4688V168.883L93.4766 165.859C94.3932 164.932 94.9974 164.271 95.2891 163.875C95.5807 163.479 95.7995 163.094 95.9453 162.719C96.0911 162.344 96.1641 161.94 96.1641 161.508C96.1641 160.898 95.9792 160.417 95.6094 160.062C95.2396 159.703 94.7266 159.523 94.0703 159.523C93.5964 159.523 93.1458 159.602 92.7188 159.758C92.2969 159.914 91.8255 160.198 91.3047 160.609L90.6172 159.727C91.6693 158.852 92.8151 158.414 94.0547 158.414C95.1276 158.414 95.9688 158.69 96.5781 159.242C97.1875 159.789 97.4922 160.526 97.4922 161.453C97.4922 162.177 97.2891 162.893 96.8828 163.602C96.4766 164.31 95.7161 165.206 94.6016 166.289L92.1016 168.734V168.797H97.9766V170Z" fill="#007BC7"/>
<path d="M45 171.602H98.8359V172.398H45V171.602Z" fill="#007BC7"/>
<path d="M53.75 210L52.3281 206.367H47.75L46.3438 210H45L49.5156 198.531H50.6328L55.125 210H53.75ZM51.9141 205.172L50.5859 201.633C50.4141 201.185 50.237 200.635 50.0547 199.984C49.9401 200.484 49.776 201.034 49.5625 201.633L48.2188 205.172H51.9141ZM62.3594 210V204.461C62.3594 203.763 62.2005 203.242 61.8828 202.898C61.5651 202.555 61.0677 202.383 60.3906 202.383C59.4948 202.383 58.8385 202.625 58.4219 203.109C58.0052 203.594 57.7969 204.393 57.7969 205.508V210H56.5V201.438H57.5547L57.7656 202.609H57.8281C58.0938 202.188 58.4661 201.862 58.9453 201.633C59.4245 201.398 59.9583 201.281 60.5469 201.281C61.5781 201.281 62.3542 201.531 62.875 202.031C63.3958 202.526 63.6562 203.32 63.6562 204.414V210H62.3594ZM69.75 210.156C68.5104 210.156 67.5495 209.776 66.8672 209.016C66.1901 208.25 65.8516 207.169 65.8516 205.773C65.8516 204.341 66.1953 203.234 66.8828 202.453C67.5755 201.672 68.5599 201.281 69.8359 201.281C70.2474 201.281 70.6589 201.326 71.0703 201.414C71.4818 201.503 71.8047 201.607 72.0391 201.727L71.6406 202.828C71.3542 202.714 71.0417 202.62 70.7031 202.547C70.3646 202.469 70.0651 202.43 69.8047 202.43C68.0651 202.43 67.1953 203.539 67.1953 205.758C67.1953 206.81 67.4062 207.617 67.8281 208.18C68.2552 208.742 68.8854 209.023 69.7188 209.023C70.4323 209.023 71.1641 208.87 71.9141 208.562V209.711C71.3411 210.008 70.6198 210.156 69.75 210.156ZM75.25 210H73.9531V197.844H75.25V210ZM83.2656 210L83.0078 208.781H82.9453C82.5182 209.318 82.0911 209.682 81.6641 209.875C81.2422 210.062 80.7135 210.156 80.0781 210.156C79.2292 210.156 78.5625 209.938 78.0781 209.5C77.599 209.062 77.3594 208.44 77.3594 207.633C77.3594 205.904 78.7422 204.997 81.5078 204.914L82.9609 204.867V204.336C82.9609 203.664 82.8151 203.169 82.5234 202.852C82.237 202.529 81.776 202.367 81.1406 202.367C80.4271 202.367 79.6198 202.586 78.7188 203.023L78.3203 202.031C78.7422 201.802 79.2031 201.622 79.7031 201.492C80.2083 201.362 80.7135 201.297 81.2188 201.297C82.2396 201.297 82.9948 201.523 83.4844 201.977C83.9792 202.43 84.2266 203.156 84.2266 204.156V210H83.2656ZM80.3359 209.086C81.1432 209.086 81.776 208.865 82.2344 208.422C82.6979 207.979 82.9297 207.359 82.9297 206.562V205.789L81.6328 205.844C80.6016 205.88 79.8568 206.042 79.3984 206.328C78.9453 206.609 78.7188 207.049 78.7188 207.648C78.7188 208.117 78.8594 208.474 79.1406 208.719C79.4271 208.964 79.8255 209.086 80.3359 209.086ZM97.5469 201.266C97.5469 201.995 97.3411 202.591 96.9297 203.055C96.5234 203.518 95.9453 203.828 95.1953 203.984V204.047C96.112 204.161 96.7917 204.453 97.2344 204.922C97.6771 205.391 97.8984 206.005 97.8984 206.766C97.8984 207.854 97.5208 208.693 96.7656 209.281C96.0104 209.865 94.9375 210.156 93.5469 210.156C92.9427 210.156 92.388 210.109 91.8828 210.016C91.3828 209.927 90.8958 209.768 90.4219 209.539V208.305C90.9167 208.549 91.4427 208.737 92 208.867C92.5625 208.992 93.0938 209.055 93.5938 209.055C95.5677 209.055 96.5547 208.281 96.5547 206.734C96.5547 205.349 95.4661 204.656 93.2891 204.656H92.1641V203.539H93.3047C94.1953 203.539 94.901 203.344 95.4219 202.953C95.9427 202.557 96.2031 202.01 96.2031 201.312C96.2031 200.755 96.0104 200.318 95.625 200C95.2448 199.682 94.7266 199.523 94.0703 199.523C93.5703 199.523 93.099 199.591 92.6562 199.727C92.2135 199.862 91.7083 200.112 91.1406 200.477L90.4844 199.602C90.9531 199.232 91.4922 198.943 92.1016 198.734C92.7161 198.521 93.362 198.414 94.0391 198.414C95.1484 198.414 96.0104 198.669 96.625 199.18C97.2396 199.685 97.5469 200.38 97.5469 201.266Z" fill="#007BC7"/>
<path d="M45 211.602H98.8359V212.398H45V211.602Z" fill="#007BC7"/>
<defs>
<clipPath id="clip0_5017_388">
<rect width="340" height="262" fill="white"/>
</clipPath>
</defs>
</svg>
