<svg xmlns="http://www.w3.org/2000/svg" width="712" height="204" viewBox="0 0 712 204">
  <g id="Grupo_18240" data-name="Grupo 18240" transform="translate(-513 -556)">
    <g id="Grupo_18124" data-name="Grupo 18124" transform="translate(0 -46)">
      <path id="Trazado_20235" data-name="Trazado 20235" d="M4,0H708c2.209,0,4,.723,4,1.616V202.384c0,.892-1.791,1.616-4,1.616H4c-2.209,0-4-.723-4-1.616V1.616C0,.723,1.791,0,4,0Z" transform="translate(513 602)" fill="#f3f6f9"/>
    </g>
    <g id="V1-Tabla-Celda" transform="translate(684 658)">
      <rect id="Rectángulo_6352" data-name="Rectángulo 6352" width="340" height="54" fill="#fff"/>
      <g id="Grupo_17566" data-name="Grupo 17566" transform="translate(0 -17)">
        <g id="Grupo_17568" data-name="Grupo 17568" transform="translate(0 16)">
          <path id="Trazado_23966" data-name="Trazado 23966" d="M10.688,11.18A5.767,5.767,0,0,1,9.152,15.5,6.074,6.074,0,0,1,4.734,17H1.57V5.578h3.5A5.6,5.6,0,0,1,9.211,7.055,5.576,5.576,0,0,1,10.688,11.18Zm-1.406.047A4.6,4.6,0,0,0,8.16,7.859,4.493,4.493,0,0,0,4.828,6.727H2.9v9.125H4.516a4.917,4.917,0,0,0,3.57-1.168A4.624,4.624,0,0,0,9.281,11.227Zm7.375,5.93a3.934,3.934,0,0,1-3-1.156,4.476,4.476,0,0,1-1.1-3.211A4.964,4.964,0,0,1,13.582,9.5,3.387,3.387,0,0,1,16.32,8.281,3.229,3.229,0,0,1,18.867,9.34a4.057,4.057,0,0,1,.938,2.793v.82h-5.9a3.394,3.394,0,0,0,.762,2.289,2.635,2.635,0,0,0,2.035.781,6.9,6.9,0,0,0,2.734-.578V16.6a6.863,6.863,0,0,1-1.3.426A7.31,7.31,0,0,1,16.656,17.156ZM16.3,9.367a2.118,2.118,0,0,0-1.645.672,3.1,3.1,0,0,0-.723,1.859h4.477a2.851,2.851,0,0,0-.547-1.879A1.925,1.925,0,0,0,16.3,9.367Zm11.234,5.3a2.145,2.145,0,0,1-.891,1.844,4.186,4.186,0,0,1-2.5.648,5.436,5.436,0,0,1-2.656-.539v-1.2a6.424,6.424,0,0,0,1.324.492,5.53,5.53,0,0,0,1.363.18,3.092,3.092,0,0,0,1.563-.324,1.116,1.116,0,0,0,.113-1.844,6.82,6.82,0,0,0-1.691-.84,9.172,9.172,0,0,1-1.7-.777,2.321,2.321,0,0,1-.75-.754,1.966,1.966,0,0,1-.246-1.008,1.921,1.921,0,0,1,.852-1.652,3.968,3.968,0,0,1,2.336-.605,6.835,6.835,0,0,1,2.7.563L26.9,9.9a6.2,6.2,0,0,0-2.336-.531,2.688,2.688,0,0,0-1.391.289.894.894,0,0,0-.469.8.971.971,0,0,0,.176.586,1.735,1.735,0,0,0,.566.461,12.658,12.658,0,0,0,1.5.633A5.6,5.6,0,0,1,27,13.25,1.97,1.97,0,0,1,27.539,14.664Zm5.531,2.492a3.654,3.654,0,0,1-2.879-1.145,4.707,4.707,0,0,1-1.02-3.238,4.853,4.853,0,0,1,1.035-3.32,3.727,3.727,0,0,1,2.949-1.172,5.852,5.852,0,0,1,1.234.133,4.066,4.066,0,0,1,.969.313l-.4,1.1a6.1,6.1,0,0,0-.937-.285,4.186,4.186,0,0,0-.9-.113q-2.609,0-2.609,3.328a3.963,3.963,0,0,0,.637,2.422,2.215,2.215,0,0,0,1.887.844,5.769,5.769,0,0,0,2.2-.461v1.148A4.679,4.679,0,0,1,33.07,17.156Zm8.1-8.875a5.075,5.075,0,0,1,1.023.094l-.18,1.2a4.418,4.418,0,0,0-.937-.117A2.282,2.282,0,0,0,39.3,10.3a3.077,3.077,0,0,0-.738,2.1V17h-1.3V8.438h1.07l.148,1.586h.063A3.764,3.764,0,0,1,39.7,8.734,2.585,2.585,0,0,1,41.172,8.281ZM45.094,17H43.8V8.438h1.3ZM43.688,6.117a.861.861,0,0,1,.219-.652.81.81,0,0,1,1.086,0,.846.846,0,0,1,.227.648.859.859,0,0,1-.227.652.794.794,0,0,1-1.086,0A.877.877,0,0,1,43.688,6.117Zm8.141,11.039a3.706,3.706,0,0,1-1.527-.309,2.872,2.872,0,0,1-1.16-.949h-.094a11.485,11.485,0,0,1,.094,1.422v3.523h-1.3V8.438H48.9l.18,1.172h.063A3.012,3.012,0,0,1,50.3,8.594a3.539,3.539,0,0,1,1.523-.312,3.165,3.165,0,0,1,2.629,1.164,5.125,5.125,0,0,1,.926,3.266,5.1,5.1,0,0,1-.941,3.277A3.17,3.17,0,0,1,51.828,17.156Zm-.187-7.773a2.3,2.3,0,0,0-1.9.727,3.739,3.739,0,0,0-.6,2.313v.289a4.285,4.285,0,0,0,.6,2.582,2.288,2.288,0,0,0,1.93.777,2.007,2.007,0,0,0,1.738-.9,4.26,4.26,0,0,0,.629-2.477,4.1,4.1,0,0,0-.629-2.457A2.069,2.069,0,0,0,51.641,9.383Zm9.43,7.773a3.654,3.654,0,0,1-2.879-1.145,4.707,4.707,0,0,1-1.02-3.238,4.853,4.853,0,0,1,1.035-3.32,3.727,3.727,0,0,1,2.949-1.172,5.852,5.852,0,0,1,1.234.133,4.066,4.066,0,0,1,.969.313l-.4,1.1a6.1,6.1,0,0,0-.937-.285,4.186,4.186,0,0,0-.9-.113q-2.609,0-2.609,3.328a3.963,3.963,0,0,0,.637,2.422,2.215,2.215,0,0,0,1.887.844,5.769,5.769,0,0,0,2.2-.461v1.148A4.679,4.679,0,0,1,61.07,17.156ZM66.563,17h-1.3V8.438h1.3ZM65.156,6.117a.861.861,0,0,1,.219-.652.81.81,0,0,1,1.086,0,.846.846,0,0,1,.227.648.859.859,0,0,1-.227.652.794.794,0,0,1-1.086,0A.877.877,0,0,1,65.156,6.117ZM76.7,12.711a4.724,4.724,0,0,1-1.055,3.27,3.714,3.714,0,0,1-2.914,1.176,3.86,3.86,0,0,1-2.039-.539A3.558,3.558,0,0,1,69.32,15.07a5.391,5.391,0,0,1-.484-2.359,4.716,4.716,0,0,1,1.047-3.262,3.7,3.7,0,0,1,2.906-1.168,3.622,3.622,0,0,1,2.855,1.2A4.7,4.7,0,0,1,76.7,12.711Zm-6.523,0a4.064,4.064,0,0,0,.656,2.5,2.6,2.6,0,0,0,3.863,0,4.043,4.043,0,0,0,.66-2.5,3.978,3.978,0,0,0-.66-2.48,2.32,2.32,0,0,0-1.949-.848,2.283,2.283,0,0,0-1.922.836A4.023,4.023,0,0,0,70.18,12.711Zm1.5-5.6q.375-.484.809-1.172a13.411,13.411,0,0,0,.684-1.2H74.75v.164a11.549,11.549,0,0,1-1.023,1.25A11.619,11.619,0,0,1,72.547,7.3H71.68ZM84.836,17V11.461A2.235,2.235,0,0,0,84.359,9.9a1.941,1.941,0,0,0-1.492-.516,2.461,2.461,0,0,0-1.969.727,3.668,3.668,0,0,0-.625,2.4V17h-1.3V8.438h1.055l.211,1.172H80.3a2.648,2.648,0,0,1,1.117-.98,3.63,3.63,0,0,1,1.6-.348,3.252,3.252,0,0,1,2.328.746,3.175,3.175,0,0,1,.781,2.387V17Z" transform="translate(16 17)" fill="#38485c"/>
        </g>
        <rect id="Rectángulo_6351" data-name="Rectángulo 6351" width="340" height="1" transform="translate(0 21.742)" fill="#e6ebf0"/>
      </g>
    </g>
    <g id="V1-Tabla-Celda-Encabezados" transform="translate(684 604)">
      <rect id="Rectángulo_6352-2" data-name="Rectángulo 6352" width="340" height="54" fill="#e6ebf0"/>
      <g id="Grupo_17566-2" data-name="Grupo 17566" transform="translate(0 -17)">
        <g id="Grupo_17568-2" data-name="Grupo 17568" transform="translate(0 16)">
          <path id="Trazado_23965" data-name="Trazado 23965" d="M5.453,17H3.586V7.18H.227v-1.6H8.813v1.6H5.453Zm6.75,0H10.367V8.359H12.2Zm-1.93-9.7v-.2q.445-.547.918-1.219t.746-1.148H14.07v.164a16.043,16.043,0,0,1-1.215,1.23A17.129,17.129,0,0,1,11.492,7.3Zm7.773,8.367a4.465,4.465,0,0,0,1.344-.211v1.383a3.706,3.706,0,0,1-.785.223,5.409,5.409,0,0,1-1,.09Q15,17.156,15,14.406V9.75H13.82V8.938l1.266-.672.625-1.828h1.133V8.359H19.3V9.75H16.844v4.625a1.3,1.3,0,0,0,.332.98A1.21,1.21,0,0,0,18.047,15.672ZM27.211,17l-.258-1.133h-.094a2.6,2.6,0,0,1-1.09.945,3.644,3.644,0,0,1-1.613.344,3.167,3.167,0,0,1-2.344-.781,3.239,3.239,0,0,1-.773-2.367V8.359h1.852v5.328a2.311,2.311,0,0,0,.406,1.488,1.551,1.551,0,0,0,1.273.5,2.028,2.028,0,0,0,1.7-.691,3.81,3.81,0,0,0,.543-2.316v-4.3h1.844V17Zm5.9,0H31.273V4.844h1.836ZM43.4,12.664a4.716,4.716,0,0,1-1.086,3.3,3.891,3.891,0,0,1-3.023,1.188,4.143,4.143,0,0,1-2.141-.547,3.61,3.61,0,0,1-1.43-1.57,5.348,5.348,0,0,1-.5-2.375A4.684,4.684,0,0,1,36.3,9.383,3.909,3.909,0,0,1,39.336,8.2,3.807,3.807,0,0,1,42.3,9.41,4.662,4.662,0,0,1,43.4,12.664Zm-6.289,0q0,2.992,2.211,2.992,2.187,0,2.188-2.992,0-2.961-2.2-2.961a1.879,1.879,0,0,0-1.676.766A3.9,3.9,0,0,0,37.109,12.664Z" transform="translate(16 17)" fill="#38485c"/>
        </g>
        <rect id="Rectángulo_6351-2" data-name="Rectángulo 6351" width="340" height="1" transform="translate(0 21.742)" fill="#e6ebf0" opacity="0"/>
      </g>
    </g>
    <g id="Grupo_18084" data-name="Grupo 18084" transform="translate(668.033 617.213) rotate(90)">
      <line id="Línea_114" data-name="Línea 114" x2="27.787" transform="translate(0 3.034)" fill="none" stroke="#38485c" stroke-linecap="round" stroke-width="1"/>
      <path id="Trazado_4671" data-name="Trazado 4671" d="M0,0V3.033" transform="translate(27.787 3.034) rotate(180)" fill="none" stroke="#38485c" stroke-linecap="round" stroke-width="1"/>
      <path id="Trazado_20265" data-name="Trazado 20265" d="M0,0V3.033" transform="translate(-0.213 3.033) rotate(180)" fill="none" stroke="#38485c" stroke-linecap="round" stroke-width="1"/>
    </g>
    <g id="Grupo_18221" data-name="Grupo 18221" transform="translate(1040 698.787) rotate(-90)">
      <line id="Línea_114-2" data-name="Línea 114" x2="27.787" transform="translate(0 3.034)" fill="none" stroke="#38485c" stroke-linecap="round" stroke-width="1"/>
      <path id="Trazado_4671-2" data-name="Trazado 4671" d="M0,0V3.033" transform="translate(27.787 3.034) rotate(180)" fill="none" stroke="#38485c" stroke-linecap="round" stroke-width="1"/>
      <path id="Trazado_20265-2" data-name="Trazado 20265" d="M0,0V3.033" transform="translate(-0.213 3.033) rotate(180)" fill="none" stroke="#38485c" stroke-linecap="round" stroke-width="1"/>
    </g>
    <path id="Trazado_23964" data-name="Trazado 23964" d="M2.208,0A1,1,0,0,1,1.48-.256a.956.956,0,0,1-.264-.72V-10.3a.956.956,0,0,1,.264-.72,1,1,0,0,1,.728-.256H7.984a1.113,1.113,0,0,1,.72.208.719.719,0,0,1,.256.592.761.761,0,0,1-.256.616,1.085,1.085,0,0,1-.72.216H3.232v3.1H7.664a1.113,1.113,0,0,1,.72.208.738.738,0,0,1,.256.608.719.719,0,0,1-.256.592,1.113,1.113,0,0,1-.72.208H3.232v3.3H7.984a1.085,1.085,0,0,1,.72.216A.761.761,0,0,1,8.96-.8.719.719,0,0,1,8.7-.208,1.113,1.113,0,0,1,7.984,0ZM14.992-8.016a2.615,2.615,0,0,1,2.1.8A3.628,3.628,0,0,1,17.776-4.8V-.864a.935.935,0,0,1-.264.7A1,1,0,0,1,16.784.1a1.03,1.03,0,0,1-.736-.256.92.92,0,0,1-.272-.7V-4.688a2.074,2.074,0,0,0-.344-1.328,1.322,1.322,0,0,0-1.08-.416,1.826,1.826,0,0,0-1.384.544,2.019,2.019,0,0,0-.52,1.456V-.864a.92.92,0,0,1-.272.7A1.03,1.03,0,0,1,11.44.1a1,1,0,0,1-.728-.256.935.935,0,0,1-.264-.7V-7.056a.88.88,0,0,1,.272-.672,1.03,1.03,0,0,1,.736-.256.953.953,0,0,1,.68.248.848.848,0,0,1,.264.648v.432a2.706,2.706,0,0,1,1.072-1.008A3.226,3.226,0,0,1,14.992-8.016ZM23.264.128a4.146,4.146,0,0,1-2.056-.5A3.381,3.381,0,0,1,19.84-1.776,4.505,4.505,0,0,1,19.36-3.9a4.468,4.468,0,0,1,.5-2.152A3.56,3.56,0,0,1,21.28-7.5a4.208,4.208,0,0,1,2.1-.512,4.665,4.665,0,0,1,1.256.176,4.143,4.143,0,0,1,1.112.48.99.99,0,0,1,.512.848.9.9,0,0,1-.168.568.531.531,0,0,1-.44.216.956.956,0,0,1-.368-.08A3.223,3.223,0,0,1,24.9-6a4.3,4.3,0,0,0-.672-.328,2.088,2.088,0,0,0-.736-.12A1.871,1.871,0,0,0,21.96-5.8a2.855,2.855,0,0,0-.536,1.864,2.827,2.827,0,0,0,.536,1.848,1.871,1.871,0,0,0,1.528.648,1.973,1.973,0,0,0,.712-.12,6.031,6.031,0,0,0,.7-.328,3.168,3.168,0,0,1,.416-.216.923.923,0,0,1,.352-.072.531.531,0,0,1,.432.224.879.879,0,0,1,.176.56.9.9,0,0,1-.12.472,1.081,1.081,0,0,1-.392.36,4.207,4.207,0,0,1-1.152.5A4.953,4.953,0,0,1,23.264.128Zm7.712-8.144a3.259,3.259,0,0,1,2.424.808,3.383,3.383,0,0,1,.792,2.456v3.9a.9.9,0,0,1-.256.68.969.969,0,0,1-.7.248.936.936,0,0,1-.68-.256.894.894,0,0,1-.264-.672V-1.2a2.088,2.088,0,0,1-.856.976A2.568,2.568,0,0,1,30.08.128a3.139,3.139,0,0,1-1.424-.32,2.533,2.533,0,0,1-1.008-.88A2.224,2.224,0,0,1,27.28-2.32a1.977,1.977,0,0,1,.44-1.36,2.644,2.644,0,0,1,1.432-.72,13.041,13.041,0,0,1,2.736-.224h.4v-.368a1.638,1.638,0,0,0-.336-1.144,1.43,1.43,0,0,0-1.088-.36,3.452,3.452,0,0,0-.944.136q-.48.136-1.136.392a1.6,1.6,0,0,1-.608.208.6.6,0,0,1-.472-.208.791.791,0,0,1-.184-.544.819.819,0,0,1,.136-.472,1.291,1.291,0,0,1,.456-.376,5.215,5.215,0,0,1,1.336-.48A6.893,6.893,0,0,1,30.976-8.016Zm-.5,6.7a1.709,1.709,0,0,0,1.3-.536,1.939,1.939,0,0,0,.5-1.384v-.336H32a11.038,11.038,0,0,0-1.664.1,1.616,1.616,0,0,0-.848.336.856.856,0,0,0-.256.656,1.085,1.085,0,0,0,.36.84A1.27,1.27,0,0,0,30.48-1.312ZM40.7-8.016a3.309,3.309,0,0,1,1.808.5,3.333,3.333,0,0,1,1.224,1.408,4.845,4.845,0,0,1,.44,2.128,5,5,0,0,1-.44,2.152A3.4,3.4,0,0,1,42.5-.384a3.243,3.243,0,0,1-1.8.512A3.066,3.066,0,0,1,39.192-.24a2.5,2.5,0,0,1-1.016-1.024v.4a.9.9,0,0,1-.272.688,1.008,1.008,0,0,1-.72.256.979.979,0,0,1-.712-.256.914.914,0,0,1-.264-.688v-9.568a.868.868,0,0,1,.28-.672,1.037,1.037,0,0,1,.728-.256,1.048,1.048,0,0,1,.72.24.83.83,0,0,1,.272.656v3.776a2.392,2.392,0,0,1,1.008-.984A3.156,3.156,0,0,1,40.7-8.016Zm-.528,6.592A1.766,1.766,0,0,0,41.648-2.1a2.989,2.989,0,0,0,.528-1.888,2.854,2.854,0,0,0-.52-1.84,1.8,1.8,0,0,0-1.48-.64,1.788,1.788,0,0,0-1.48.648,2.917,2.917,0,0,0-.52,1.864A2.952,2.952,0,0,0,38.7-2.08,1.779,1.779,0,0,0,40.176-1.424ZM52-2.144a.538.538,0,0,1,.44.208.865.865,0,0,1,.168.56.97.97,0,0,1-.592.832,5.349,5.349,0,0,1-1.232.488,5.079,5.079,0,0,1-1.312.184A4.077,4.077,0,0,1,46.48-.96a3.988,3.988,0,0,1-1.1-2.976,4.566,4.566,0,0,1,.48-2.128A3.49,3.49,0,0,1,47.208-7.5a3.829,3.829,0,0,1,1.976-.512,3.546,3.546,0,0,1,1.84.464A3.146,3.146,0,0,1,52.24-6.24a4.354,4.354,0,0,1,.432,2q0,.688-.608.688h-4.72a2.517,2.517,0,0,0,.624,1.624,2.1,2.1,0,0,0,1.536.52,2.913,2.913,0,0,0,.9-.128,8.923,8.923,0,0,0,.888-.352A1.766,1.766,0,0,1,52-2.144ZM49.232-6.608a1.717,1.717,0,0,0-1.3.512,2.417,2.417,0,0,0-.584,1.472H50.96a2.281,2.281,0,0,0-.48-1.48A1.583,1.583,0,0,0,49.232-6.608Zm10.72,5.1q.9,0,.9.752a.7.7,0,0,1-.224.552.982.982,0,0,1-.672.2H54.608a.888.888,0,0,1-.656-.256A.831.831,0,0,1,53.7-.864a1.07,1.07,0,0,1,.288-.7L58.1-6.32H54.528a1.01,1.01,0,0,1-.672-.192.7.7,0,0,1-.224-.56.7.7,0,0,1,.224-.56,1.01,1.01,0,0,1,.672-.192H59.7a.9.9,0,0,1,.664.248.836.836,0,0,1,.248.616,1.063,1.063,0,0,1-.272.7L56.208-1.5Zm5.632-6.512a3.259,3.259,0,0,1,2.424.808A3.383,3.383,0,0,1,68.8-4.752v3.9a.9.9,0,0,1-.256.68.969.969,0,0,1-.7.248.936.936,0,0,1-.68-.256A.894.894,0,0,1,66.9-.848V-1.2a2.088,2.088,0,0,1-.856.976,2.568,2.568,0,0,1-1.352.352,3.139,3.139,0,0,1-1.424-.32,2.533,2.533,0,0,1-1.008-.88,2.224,2.224,0,0,1-.368-1.248,1.977,1.977,0,0,1,.44-1.36A2.644,2.644,0,0,1,63.76-4.4,13.041,13.041,0,0,1,66.5-4.624h.4v-.368a1.638,1.638,0,0,0-.336-1.144,1.43,1.43,0,0,0-1.088-.36,3.452,3.452,0,0,0-.944.136q-.48.136-1.136.392a1.6,1.6,0,0,1-.608.208.6.6,0,0,1-.472-.208.791.791,0,0,1-.184-.544.819.819,0,0,1,.136-.472,1.291,1.291,0,0,1,.456-.376,5.215,5.215,0,0,1,1.336-.48A6.893,6.893,0,0,1,65.584-8.016Zm-.5,6.7a1.709,1.709,0,0,0,1.3-.536,1.939,1.939,0,0,0,.5-1.384v-.336h-.288a11.038,11.038,0,0,0-1.664.1,1.615,1.615,0,0,0-.848.336.856.856,0,0,0-.256.656,1.085,1.085,0,0,0,.36.84A1.27,1.27,0,0,0,65.088-1.312ZM77.344-11.36a1.066,1.066,0,0,1,.736.256.856.856,0,0,1,.288.672V-.864a.9.9,0,0,1-.272.688,1.008,1.008,0,0,1-.72.256,1.008,1.008,0,0,1-.72-.256.9.9,0,0,1-.272-.688v-.4A2.5,2.5,0,0,1,75.368-.24a3.066,3.066,0,0,1-1.512.368,3.243,3.243,0,0,1-1.8-.512,3.4,3.4,0,0,1-1.232-1.448,5,5,0,0,1-.44-2.152,4.845,4.845,0,0,1,.44-2.128A3.333,3.333,0,0,1,72.048-7.52a3.309,3.309,0,0,1,1.808-.5,3.131,3.131,0,0,1,1.5.352,2.442,2.442,0,0,1,1.008.992v-3.792a.848.848,0,0,1,.264-.648A1,1,0,0,1,77.344-11.36Zm-2.96,9.936a1.779,1.779,0,0,0,1.48-.656,2.952,2.952,0,0,0,.52-1.872,2.917,2.917,0,0,0-.52-1.864A1.77,1.77,0,0,0,74.4-6.464a1.821,1.821,0,0,0-1.488.64,2.823,2.823,0,0,0-.528,1.84A2.989,2.989,0,0,0,72.912-2.1,1.766,1.766,0,0,0,74.384-1.424Zm9.6,1.552a4.3,4.3,0,0,1-2.1-.5,3.432,3.432,0,0,1-1.4-1.424,4.515,4.515,0,0,1-.5-2.16,4.468,4.468,0,0,1,.5-2.152,3.444,3.444,0,0,1,1.4-1.416,4.3,4.3,0,0,1,2.1-.5,4.3,4.3,0,0,1,2.1.5A3.394,3.394,0,0,1,87.48-6.1a4.527,4.527,0,0,1,.488,2.152,4.575,4.575,0,0,1-.488,2.16A3.382,3.382,0,0,1,86.088-.368,4.3,4.3,0,0,1,83.984.128Zm-.016-1.552a1.793,1.793,0,0,0,1.488-.64,2.973,2.973,0,0,0,.512-1.888,2.979,2.979,0,0,0-.512-1.88,1.765,1.765,0,0,0-1.472-.648,1.788,1.788,0,0,0-1.48.648,2.946,2.946,0,0,0-.52,1.88A2.973,2.973,0,0,0,82.5-2.064,1.775,1.775,0,0,0,83.968-1.424Z" transform="translate(560.033 636)" fill="#38485c"/>
    <path id="Trazado_23963" data-name="Trazado 23963" d="M11.44-1.232a.985.985,0,0,1,.1.416.8.8,0,0,1-.3.624,1.009,1.009,0,0,1-.68.256.909.909,0,0,1-.48-.136A.907.907,0,0,1,9.728-.5L8.768-2.64H3.136L2.176-.5a.907.907,0,0,1-.352.424.937.937,0,0,1-.5.136A1.019,1.019,0,0,1,.656-.192a.787.787,0,0,1-.3-.624.985.985,0,0,1,.1-.416L4.864-10.72a1.032,1.032,0,0,1,.44-.488,1.26,1.26,0,0,1,.632-.168,1.26,1.26,0,0,1,.632.168,1.032,1.032,0,0,1,.44.488ZM3.84-4.24H8.064L5.952-8.992Zm2.352-7.984a.568.568,0,0,1-.256.064.494.494,0,0,1-.352-.136.418.418,0,0,1-.144-.312.507.507,0,0,1,.176-.352l1.456-1.5a.928.928,0,0,1,.688-.32.754.754,0,0,1,.552.232.736.736,0,0,1,.232.536.682.682,0,0,1-.136.4A1.141,1.141,0,0,1,8-13.28Zm11.072,4.24a.861.861,0,0,1,.656.176.781.781,0,0,1,.24.624.872.872,0,0,1-.208.64,1.278,1.278,0,0,1-.752.272l-.48.048a1.944,1.944,0,0,0-1.384.64,2.093,2.093,0,0,0-.44,1.36v3.36a.888.888,0,0,1-.288.712,1.064,1.064,0,0,1-.72.248,1.034,1.034,0,0,1-.712-.248.9.9,0,0,1-.28-.712V-7.056a.856.856,0,0,1,.28-.688,1.032,1.032,0,0,1,.7-.24.962.962,0,0,1,.672.232.85.85,0,0,1,.256.664v.64a2.368,2.368,0,0,1,.9-1.088,2.771,2.771,0,0,1,1.336-.432Zm7.776,5.84a.538.538,0,0,1,.44.208.865.865,0,0,1,.168.56.97.97,0,0,1-.592.832,5.349,5.349,0,0,1-1.232.488,5.079,5.079,0,0,1-1.312.184A4.077,4.077,0,0,1,19.52-.96a3.988,3.988,0,0,1-1.1-2.976,4.566,4.566,0,0,1,.48-2.128A3.49,3.49,0,0,1,20.248-7.5a3.829,3.829,0,0,1,1.976-.512,3.546,3.546,0,0,1,1.84.464A3.146,3.146,0,0,1,25.28-6.24a4.353,4.353,0,0,1,.432,2q0,.688-.608.688h-4.72a2.517,2.517,0,0,0,.624,1.624,2.1,2.1,0,0,0,1.536.52,2.913,2.913,0,0,0,.9-.128,8.923,8.923,0,0,0,.888-.352A1.766,1.766,0,0,1,25.04-2.144ZM22.272-6.608a1.717,1.717,0,0,0-1.3.512,2.417,2.417,0,0,0-.584,1.472H24a2.281,2.281,0,0,0-.48-1.48A1.583,1.583,0,0,0,22.272-6.608ZM30.72-8.016a3.259,3.259,0,0,1,2.424.808,3.383,3.383,0,0,1,.792,2.456v3.9a.9.9,0,0,1-.256.68.969.969,0,0,1-.7.248.936.936,0,0,1-.68-.256.894.894,0,0,1-.264-.672V-1.2a2.088,2.088,0,0,1-.856.976,2.568,2.568,0,0,1-1.352.352A3.139,3.139,0,0,1,28.4-.192a2.533,2.533,0,0,1-1.008-.88,2.224,2.224,0,0,1-.368-1.248,1.977,1.977,0,0,1,.44-1.36A2.644,2.644,0,0,1,28.9-4.4a13.041,13.041,0,0,1,2.736-.224h.4v-.368A1.638,1.638,0,0,0,31.7-6.136a1.43,1.43,0,0,0-1.088-.36,3.452,3.452,0,0,0-.944.136q-.48.136-1.136.392a1.6,1.6,0,0,1-.608.208.6.6,0,0,1-.472-.208.791.791,0,0,1-.184-.544.819.819,0,0,1,.136-.472,1.291,1.291,0,0,1,.456-.376,5.215,5.215,0,0,1,1.336-.48A6.893,6.893,0,0,1,30.72-8.016Zm-.5,6.7a1.709,1.709,0,0,0,1.3-.536,1.939,1.939,0,0,0,.5-1.384v-.336h-.288a11.038,11.038,0,0,0-1.664.1,1.616,1.616,0,0,0-.848.336.856.856,0,0,0-.256.656,1.085,1.085,0,0,0,.36.84A1.27,1.27,0,0,0,30.224-1.312ZM46.8-11.36a1.066,1.066,0,0,1,.736.256.856.856,0,0,1,.288.672V-.864a.9.9,0,0,1-.272.688,1.008,1.008,0,0,1-.72.256,1.008,1.008,0,0,1-.72-.256.9.9,0,0,1-.272-.688v-.4A2.5,2.5,0,0,1,44.824-.24a3.066,3.066,0,0,1-1.512.368,3.243,3.243,0,0,1-1.8-.512A3.4,3.4,0,0,1,40.28-1.832a5,5,0,0,1-.44-2.152,4.845,4.845,0,0,1,.44-2.128A3.333,3.333,0,0,1,41.5-7.52a3.309,3.309,0,0,1,1.808-.5,3.131,3.131,0,0,1,1.5.352,2.442,2.442,0,0,1,1.008.992v-3.792a.848.848,0,0,1,.264-.648A1,1,0,0,1,46.8-11.36ZM43.84-1.424a1.779,1.779,0,0,0,1.48-.656,2.952,2.952,0,0,0,.52-1.872,2.917,2.917,0,0,0-.52-1.864,1.77,1.77,0,0,0-1.464-.648,1.821,1.821,0,0,0-1.488.64,2.823,2.823,0,0,0-.528,1.84A2.989,2.989,0,0,0,42.368-2.1,1.766,1.766,0,0,0,43.84-1.424Zm12.224-.72a.538.538,0,0,1,.44.208.865.865,0,0,1,.168.56.97.97,0,0,1-.592.832,5.349,5.349,0,0,1-1.232.488,5.079,5.079,0,0,1-1.312.184A4.077,4.077,0,0,1,50.544-.96a3.988,3.988,0,0,1-1.1-2.976,4.566,4.566,0,0,1,.48-2.128A3.49,3.49,0,0,1,51.272-7.5a3.829,3.829,0,0,1,1.976-.512,3.546,3.546,0,0,1,1.84.464A3.146,3.146,0,0,1,56.3-6.24a4.354,4.354,0,0,1,.432,2q0,.688-.608.688h-4.72a2.517,2.517,0,0,0,.624,1.624,2.1,2.1,0,0,0,1.536.52,2.913,2.913,0,0,0,.9-.128,8.923,8.923,0,0,0,.888-.352A1.766,1.766,0,0,1,56.064-2.144ZM53.3-6.608a1.717,1.717,0,0,0-1.3.512,2.417,2.417,0,0,0-.584,1.472h3.616a2.281,2.281,0,0,0-.48-1.48A1.583,1.583,0,0,0,53.3-6.608ZM61.184.128A5.144,5.144,0,0,1,58.368-.56a.954.954,0,0,1-.512-.864.758.758,0,0,1,.176-.52.554.554,0,0,1,.432-.2,1.767,1.767,0,0,1,.752.256,7,7,0,0,0,.936.368,3.812,3.812,0,0,0,1.08.128,2.054,2.054,0,0,0,1.048-.224.694.694,0,0,0,.376-.624.6.6,0,0,0-.152-.432,1.394,1.394,0,0,0-.544-.3,11.439,11.439,0,0,0-1.192-.312,4.58,4.58,0,0,1-2.04-.816,1.816,1.816,0,0,1-.616-1.456,2.1,2.1,0,0,1,.416-1.272,2.7,2.7,0,0,1,1.144-.88,4.168,4.168,0,0,1,1.656-.312,4.963,4.963,0,0,1,1.3.168,3.94,3.94,0,0,1,1.12.488.966.966,0,0,1,.512.848.821.821,0,0,1-.176.536.538.538,0,0,1-.432.216.865.865,0,0,1-.344-.072,4.616,4.616,0,0,1-.424-.216,6.709,6.709,0,0,0-.8-.36,2.5,2.5,0,0,0-.832-.12,1.611,1.611,0,0,0-.936.24.758.758,0,0,0-.344.656.666.666,0,0,0,.352.608,5.041,5.041,0,0,0,1.36.416,7.76,7.76,0,0,1,1.68.512,1.968,1.968,0,0,1,.872.72,2.089,2.089,0,0,1,.264,1.1,2.052,2.052,0,0,1-.9,1.744A4.013,4.013,0,0,1,61.184.128Zm8.384,0a4.146,4.146,0,0,1-2.056-.5,3.381,3.381,0,0,1-1.368-1.408,4.505,4.505,0,0,1-.48-2.128,4.468,4.468,0,0,1,.5-2.152A3.56,3.56,0,0,1,67.584-7.5a4.208,4.208,0,0,1,2.1-.512,4.665,4.665,0,0,1,1.256.176,4.143,4.143,0,0,1,1.112.48.99.99,0,0,1,.512.848.9.9,0,0,1-.168.568.531.531,0,0,1-.44.216.956.956,0,0,1-.368-.08A3.223,3.223,0,0,1,71.2-6a4.3,4.3,0,0,0-.672-.328,2.088,2.088,0,0,0-.736-.12,1.871,1.871,0,0,0-1.528.648,2.855,2.855,0,0,0-.536,1.864,2.827,2.827,0,0,0,.536,1.848,1.871,1.871,0,0,0,1.528.648,1.973,1.973,0,0,0,.712-.12,6.031,6.031,0,0,0,.7-.328,3.168,3.168,0,0,1,.416-.216.923.923,0,0,1,.352-.072.531.531,0,0,1,.432.224.879.879,0,0,1,.176.56.9.9,0,0,1-.12.472,1.081,1.081,0,0,1-.392.36,4.207,4.207,0,0,1-1.152.5A4.953,4.953,0,0,1,69.568.128Zm8.688-8.112a.861.861,0,0,1,.656.176.781.781,0,0,1,.24.624.872.872,0,0,1-.208.64,1.278,1.278,0,0,1-.752.272l-.48.048a1.944,1.944,0,0,0-1.384.64,2.093,2.093,0,0,0-.44,1.36v3.36a.888.888,0,0,1-.288.712A1.064,1.064,0,0,1,74.88.1a1.034,1.034,0,0,1-.712-.248.9.9,0,0,1-.28-.712V-7.056a.856.856,0,0,1,.28-.688,1.032,1.032,0,0,1,.7-.24.962.962,0,0,1,.672.232.85.85,0,0,1,.256.664v.64a2.368,2.368,0,0,1,.9-1.088,2.771,2.771,0,0,1,1.336-.432ZM80.992.1a1.034,1.034,0,0,1-.712-.248A.9.9,0,0,1,80-.864V-7.04a.876.876,0,0,1,.28-.7,1.055,1.055,0,0,1,.712-.24,1.087,1.087,0,0,1,.72.24.864.864,0,0,1,.288.7V-.864a.888.888,0,0,1-.288.712A1.064,1.064,0,0,1,80.992.1Zm0-9.5a1.222,1.222,0,0,1-.864-.3,1.008,1.008,0,0,1-.32-.776.983.983,0,0,1,.32-.768,1.243,1.243,0,0,1,.864-.288,1.25,1.25,0,0,1,.856.288.971.971,0,0,1,.328.768,1.008,1.008,0,0,1-.32.776A1.222,1.222,0,0,1,80.992-9.408Zm7.552,1.392a3.243,3.243,0,0,1,1.8.512,3.4,3.4,0,0,1,1.232,1.448,5,5,0,0,1,.44,2.152,4.845,4.845,0,0,1-.44,2.128A3.333,3.333,0,0,1,90.352-.368a3.309,3.309,0,0,1-1.808.5,3.1,3.1,0,0,1-1.488-.352A2.47,2.47,0,0,1,86.048-1.2V2.064a.83.83,0,0,1-.272.656,1.048,1.048,0,0,1-.72.24,1.037,1.037,0,0,1-.728-.256.868.868,0,0,1-.28-.672V-7.04a.914.914,0,0,1,.264-.688.979.979,0,0,1,.712-.256,1.008,1.008,0,0,1,.72.256.9.9,0,0,1,.272.688v.4a2.455,2.455,0,0,1,1.016-1.016A3.121,3.121,0,0,1,88.544-8.016Zm-.528,6.592a1.793,1.793,0,0,0,1.472-.648A2.829,2.829,0,0,0,90.016-3.9a2.989,2.989,0,0,0-.528-1.888,1.766,1.766,0,0,0-1.472-.672,1.779,1.779,0,0,0-1.48.656,2.952,2.952,0,0,0-.52,1.872,2.923,2.923,0,0,0,.52,1.856A1.779,1.779,0,0,0,88.016-1.424Zm9.648.032q.8.048.8.72a.651.651,0,0,1-.312.584,1.489,1.489,0,0,1-.888.168L96.832.048a2.574,2.574,0,0,1-2.688-2.88V-6.32h-.8a1.016,1.016,0,0,1-.664-.192.685.685,0,0,1-.232-.56.685.685,0,0,1,.232-.56,1.016,1.016,0,0,1,.664-.192h.8V-9.3a.9.9,0,0,1,.272-.688,1.03,1.03,0,0,1,.736-.256,1.008,1.008,0,0,1,.72.256.9.9,0,0,1,.272.688v1.472H97.5a1.016,1.016,0,0,1,.664.192.685.685,0,0,1,.232.56.685.685,0,0,1-.232.56,1.016,1.016,0,0,1-.664.192h-1.36v3.632q0,1.184,1.088,1.264ZM100.48.1a1.034,1.034,0,0,1-.712-.248.9.9,0,0,1-.28-.712V-7.04a.876.876,0,0,1,.28-.7,1.055,1.055,0,0,1,.712-.24,1.087,1.087,0,0,1,.72.24.864.864,0,0,1,.288.7V-.864a.888.888,0,0,1-.288.712A1.064,1.064,0,0,1,100.48.1Zm0-9.5a1.222,1.222,0,0,1-.864-.3,1.008,1.008,0,0,1-.32-.776.983.983,0,0,1,.32-.768,1.243,1.243,0,0,1,.864-.288,1.25,1.25,0,0,1,.856.288.971.971,0,0,1,.328.768,1.008,1.008,0,0,1-.32.776A1.222,1.222,0,0,1,100.48-9.408Zm8.512,2a.979.979,0,0,1,.344-.432.834.834,0,0,1,.472-.144,1.007,1.007,0,0,1,.664.248.772.772,0,0,1,.3.616.852.852,0,0,1-.1.384l-2.96,6.192a1.053,1.053,0,0,1-.408.464,1.105,1.105,0,0,1-.584.16,1.161,1.161,0,0,1-.584-.16,1.025,1.025,0,0,1-.424-.464l-2.976-6.192a.812.812,0,0,1-.08-.368.78.78,0,0,1,.312-.624,1.091,1.091,0,0,1,.712-.256.892.892,0,0,1,.848.56l2.24,4.944Zm6.224-.608a3.259,3.259,0,0,1,2.424.808,3.383,3.383,0,0,1,.792,2.456v3.9a.9.9,0,0,1-.256.68.969.969,0,0,1-.7.248.936.936,0,0,1-.68-.256.894.894,0,0,1-.264-.672V-1.2a2.088,2.088,0,0,1-.856.976,2.568,2.568,0,0,1-1.352.352,3.139,3.139,0,0,1-1.424-.32,2.533,2.533,0,0,1-1.008-.88,2.224,2.224,0,0,1-.368-1.248,1.977,1.977,0,0,1,.44-1.36,2.644,2.644,0,0,1,1.432-.72,13.041,13.041,0,0,1,2.736-.224h.4v-.368a1.638,1.638,0,0,0-.336-1.144A1.43,1.43,0,0,0,115.1-6.5a3.452,3.452,0,0,0-.944.136q-.48.136-1.136.392a1.6,1.6,0,0,1-.608.208.6.6,0,0,1-.472-.208.791.791,0,0,1-.184-.544.819.819,0,0,1,.136-.472,1.291,1.291,0,0,1,.456-.376,5.215,5.215,0,0,1,1.336-.48A6.893,6.893,0,0,1,115.216-8.016Zm-.5,6.7a1.709,1.709,0,0,0,1.3-.536,1.939,1.939,0,0,0,.5-1.384v-.336h-.288a11.038,11.038,0,0,0-1.664.1,1.615,1.615,0,0,0-.848.336.856.856,0,0,0-.256.656,1.085,1.085,0,0,0,.36.84A1.27,1.27,0,0,0,114.72-1.312Z" transform="translate(1059 690)" fill="#38485c"/>
  </g>
</svg>
