<svg xmlns="http://www.w3.org/2000/svg" width="712" height="392" viewBox="0 0 712 392">
  <g id="Grupo_18241" data-name="Grupo 18241" transform="translate(-513 -1516)">
    <g id="Grupo_18232" data-name="Grupo 18232" transform="translate(0 914)">
      <path id="Trazado_20235" data-name="Trazado 20235" d="M4,0H708c2.209,0,4,1.39,4,3.1V388.9c0,1.715-1.791,3.1-4,3.1H4c-2.209,0-4-1.39-4-3.1V3.1C0,1.39,1.791,0,4,0Z" transform="translate(513 602)" fill="#f3f6f9"/>
    </g>
    <rect id="Rectángulo_6352" data-name="Rectángulo 6352" width="340" height="54" transform="translate(699 1564)" fill="#e6ebf0"/>
    <path id="Trazado_23928" data-name="Trazado 23928" d="M5.453,17H3.586V7.18H.227v-1.6H8.813v1.6H5.453Zm6.75,0H10.367V8.359H12.2Zm-1.93-9.7v-.2q.445-.547.918-1.219t.746-1.148H14.07v.164a16.042,16.042,0,0,1-1.215,1.23A17.129,17.129,0,0,1,11.492,7.3Zm7.773,8.367a4.465,4.465,0,0,0,1.344-.211v1.383a3.706,3.706,0,0,1-.785.223,5.409,5.409,0,0,1-1,.09Q15,17.156,15,14.406V9.75H13.82V8.938l1.266-.672.625-1.828h1.133V8.359H19.3V9.75H16.844v4.625a1.3,1.3,0,0,0,.332.98A1.21,1.21,0,0,0,18.047,15.672ZM27.211,17l-.258-1.133h-.094a2.6,2.6,0,0,1-1.09.945,3.644,3.644,0,0,1-1.613.344,3.167,3.167,0,0,1-2.344-.781,3.239,3.239,0,0,1-.773-2.367V8.359h1.852v5.328a2.311,2.311,0,0,0,.406,1.488,1.551,1.551,0,0,0,1.273.5,2.028,2.028,0,0,0,1.7-.691,3.81,3.81,0,0,0,.543-2.316v-4.3h1.844V17Zm5.9,0H31.273V4.844h1.836ZM43.4,12.664a4.716,4.716,0,0,1-1.086,3.3,3.891,3.891,0,0,1-3.023,1.188,4.143,4.143,0,0,1-2.141-.547,3.61,3.61,0,0,1-1.43-1.57,5.348,5.348,0,0,1-.5-2.375A4.684,4.684,0,0,1,36.3,9.383,3.909,3.909,0,0,1,39.336,8.2,3.807,3.807,0,0,1,42.3,9.41,4.662,4.662,0,0,1,43.4,12.664Zm-6.289,0q0,2.992,2.211,2.992,2.187,0,2.188-2.992,0-2.961-2.2-2.961a1.879,1.879,0,0,0-1.676.766A3.9,3.9,0,0,0,37.109,12.664Z" transform="translate(715 1580)" fill="#38485c"/>
    <rect id="Rectángulo_6351" data-name="Rectángulo 6351" width="340" height="1" transform="translate(699 1564)" fill="#e6ebf0" opacity="0"/>
    <rect id="Rectángulo_6352-2" data-name="Rectángulo 6352" width="340" height="54" transform="translate(699 1618)" fill="#fff"/>
    <path id="Trazado_23929" data-name="Trazado 23929" d="M10.688,11.18A5.767,5.767,0,0,1,9.152,15.5,6.074,6.074,0,0,1,4.734,17H1.57V5.578h3.5A5.6,5.6,0,0,1,9.211,7.055,5.576,5.576,0,0,1,10.688,11.18Zm-1.406.047A4.6,4.6,0,0,0,8.16,7.859,4.493,4.493,0,0,0,4.828,6.727H2.9v9.125H4.516a4.917,4.917,0,0,0,3.57-1.168A4.624,4.624,0,0,0,9.281,11.227Zm7.375,5.93a3.934,3.934,0,0,1-3-1.156,4.476,4.476,0,0,1-1.1-3.211A4.964,4.964,0,0,1,13.582,9.5,3.387,3.387,0,0,1,16.32,8.281,3.229,3.229,0,0,1,18.867,9.34a4.057,4.057,0,0,1,.938,2.793v.82h-5.9a3.394,3.394,0,0,0,.762,2.289,2.635,2.635,0,0,0,2.035.781,6.9,6.9,0,0,0,2.734-.578V16.6a6.863,6.863,0,0,1-1.3.426A7.31,7.31,0,0,1,16.656,17.156ZM16.3,9.367a2.118,2.118,0,0,0-1.645.672,3.1,3.1,0,0,0-.723,1.859h4.477a2.851,2.851,0,0,0-.547-1.879A1.925,1.925,0,0,0,16.3,9.367Zm11.234,5.3a2.145,2.145,0,0,1-.891,1.844,4.186,4.186,0,0,1-2.5.648,5.436,5.436,0,0,1-2.656-.539v-1.2a6.424,6.424,0,0,0,1.324.492,5.53,5.53,0,0,0,1.363.18,3.092,3.092,0,0,0,1.563-.324,1.116,1.116,0,0,0,.113-1.844,6.82,6.82,0,0,0-1.691-.84,9.172,9.172,0,0,1-1.7-.777,2.321,2.321,0,0,1-.75-.754,1.966,1.966,0,0,1-.246-1.008,1.921,1.921,0,0,1,.852-1.652,3.968,3.968,0,0,1,2.336-.605,6.835,6.835,0,0,1,2.7.563L26.9,9.9a6.2,6.2,0,0,0-2.336-.531,2.688,2.688,0,0,0-1.391.289.894.894,0,0,0-.469.8.971.971,0,0,0,.176.586,1.735,1.735,0,0,0,.566.461,12.658,12.658,0,0,0,1.5.633A5.6,5.6,0,0,1,27,13.25,1.97,1.97,0,0,1,27.539,14.664Zm5.531,2.492a3.654,3.654,0,0,1-2.879-1.145,4.707,4.707,0,0,1-1.02-3.238,4.853,4.853,0,0,1,1.035-3.32,3.727,3.727,0,0,1,2.949-1.172,5.852,5.852,0,0,1,1.234.133,4.066,4.066,0,0,1,.969.313l-.4,1.1a6.1,6.1,0,0,0-.937-.285,4.186,4.186,0,0,0-.9-.113q-2.609,0-2.609,3.328a3.963,3.963,0,0,0,.637,2.422,2.215,2.215,0,0,0,1.887.844,5.769,5.769,0,0,0,2.2-.461v1.148A4.679,4.679,0,0,1,33.07,17.156Zm8.1-8.875a5.075,5.075,0,0,1,1.023.094l-.18,1.2a4.418,4.418,0,0,0-.937-.117A2.282,2.282,0,0,0,39.3,10.3a3.077,3.077,0,0,0-.738,2.1V17h-1.3V8.438h1.07l.148,1.586h.063A3.764,3.764,0,0,1,39.7,8.734,2.585,2.585,0,0,1,41.172,8.281ZM45.094,17H43.8V8.438h1.3ZM43.688,6.117a.861.861,0,0,1,.219-.652.81.81,0,0,1,1.086,0,.846.846,0,0,1,.227.648.859.859,0,0,1-.227.652.794.794,0,0,1-1.086,0A.877.877,0,0,1,43.688,6.117Zm8.141,11.039a3.706,3.706,0,0,1-1.527-.309,2.872,2.872,0,0,1-1.16-.949h-.094a11.485,11.485,0,0,1,.094,1.422v3.523h-1.3V8.438H48.9l.18,1.172h.063A3.012,3.012,0,0,1,50.3,8.594a3.539,3.539,0,0,1,1.523-.312,3.165,3.165,0,0,1,2.629,1.164,5.125,5.125,0,0,1,.926,3.266,5.1,5.1,0,0,1-.941,3.277A3.17,3.17,0,0,1,51.828,17.156Zm-.187-7.773a2.3,2.3,0,0,0-1.9.727,3.739,3.739,0,0,0-.6,2.313v.289a4.285,4.285,0,0,0,.6,2.582,2.288,2.288,0,0,0,1.93.777,2.007,2.007,0,0,0,1.738-.9,4.26,4.26,0,0,0,.629-2.477,4.1,4.1,0,0,0-.629-2.457A2.069,2.069,0,0,0,51.641,9.383Zm9.43,7.773a3.654,3.654,0,0,1-2.879-1.145,4.707,4.707,0,0,1-1.02-3.238,4.853,4.853,0,0,1,1.035-3.32,3.727,3.727,0,0,1,2.949-1.172,5.852,5.852,0,0,1,1.234.133,4.066,4.066,0,0,1,.969.313l-.4,1.1a6.1,6.1,0,0,0-.937-.285,4.186,4.186,0,0,0-.9-.113q-2.609,0-2.609,3.328a3.963,3.963,0,0,0,.637,2.422,2.215,2.215,0,0,0,1.887.844,5.769,5.769,0,0,0,2.2-.461v1.148A4.679,4.679,0,0,1,61.07,17.156ZM66.563,17h-1.3V8.438h1.3ZM65.156,6.117a.861.861,0,0,1,.219-.652.81.81,0,0,1,1.086,0,.846.846,0,0,1,.227.648.859.859,0,0,1-.227.652.794.794,0,0,1-1.086,0A.877.877,0,0,1,65.156,6.117ZM76.7,12.711a4.724,4.724,0,0,1-1.055,3.27,3.714,3.714,0,0,1-2.914,1.176,3.86,3.86,0,0,1-2.039-.539A3.558,3.558,0,0,1,69.32,15.07a5.391,5.391,0,0,1-.484-2.359,4.716,4.716,0,0,1,1.047-3.262,3.7,3.7,0,0,1,2.906-1.168,3.622,3.622,0,0,1,2.855,1.2A4.7,4.7,0,0,1,76.7,12.711Zm-6.523,0a4.064,4.064,0,0,0,.656,2.5,2.6,2.6,0,0,0,3.863,0,4.043,4.043,0,0,0,.66-2.5,3.978,3.978,0,0,0-.66-2.48,2.32,2.32,0,0,0-1.949-.848,2.283,2.283,0,0,0-1.922.836A4.023,4.023,0,0,0,70.18,12.711Zm1.5-5.6q.375-.484.809-1.172a13.411,13.411,0,0,0,.684-1.2H74.75v.164a11.549,11.549,0,0,1-1.023,1.25A11.619,11.619,0,0,1,72.547,7.3H71.68ZM84.836,17V11.461A2.235,2.235,0,0,0,84.359,9.9a1.941,1.941,0,0,0-1.492-.516,2.461,2.461,0,0,0-1.969.727,3.668,3.668,0,0,0-.625,2.4V17h-1.3V8.438h1.055l.211,1.172H80.3a2.648,2.648,0,0,1,1.117-.98,3.63,3.63,0,0,1,1.6-.348,3.252,3.252,0,0,1,2.328.746,3.175,3.175,0,0,1,.781,2.387V17Z" transform="translate(715 1634)" fill="#38485c"/>
    <rect id="Rectángulo_6351-2" data-name="Rectángulo 6351" width="340" height="1" transform="translate(699 1618)" fill="#e6ebf0"/>
    <rect id="Rectángulo_6352-3" data-name="Rectángulo 6352" width="340" height="54" transform="translate(699 1775)" fill="#fff"/>
    <path id="Trazado_23931" data-name="Trazado 23931" d="M10.688,11.18A5.767,5.767,0,0,1,9.152,15.5,6.074,6.074,0,0,1,4.734,17H1.57V5.578h3.5A5.6,5.6,0,0,1,9.211,7.055,5.576,5.576,0,0,1,10.688,11.18Zm-1.406.047A4.6,4.6,0,0,0,8.16,7.859,4.493,4.493,0,0,0,4.828,6.727H2.9v9.125H4.516a4.917,4.917,0,0,0,3.57-1.168A4.624,4.624,0,0,0,9.281,11.227Zm7.375,5.93a3.934,3.934,0,0,1-3-1.156,4.476,4.476,0,0,1-1.1-3.211A4.964,4.964,0,0,1,13.582,9.5,3.387,3.387,0,0,1,16.32,8.281,3.229,3.229,0,0,1,18.867,9.34a4.057,4.057,0,0,1,.938,2.793v.82h-5.9a3.394,3.394,0,0,0,.762,2.289,2.635,2.635,0,0,0,2.035.781,6.9,6.9,0,0,0,2.734-.578V16.6a6.863,6.863,0,0,1-1.3.426A7.31,7.31,0,0,1,16.656,17.156ZM16.3,9.367a2.118,2.118,0,0,0-1.645.672,3.1,3.1,0,0,0-.723,1.859h4.477a2.851,2.851,0,0,0-.547-1.879A1.925,1.925,0,0,0,16.3,9.367Zm11.234,5.3a2.145,2.145,0,0,1-.891,1.844,4.186,4.186,0,0,1-2.5.648,5.436,5.436,0,0,1-2.656-.539v-1.2a6.424,6.424,0,0,0,1.324.492,5.53,5.53,0,0,0,1.363.18,3.092,3.092,0,0,0,1.563-.324,1.116,1.116,0,0,0,.113-1.844,6.82,6.82,0,0,0-1.691-.84,9.172,9.172,0,0,1-1.7-.777,2.321,2.321,0,0,1-.75-.754,1.966,1.966,0,0,1-.246-1.008,1.921,1.921,0,0,1,.852-1.652,3.968,3.968,0,0,1,2.336-.605,6.835,6.835,0,0,1,2.7.563L26.9,9.9a6.2,6.2,0,0,0-2.336-.531,2.688,2.688,0,0,0-1.391.289.894.894,0,0,0-.469.8.971.971,0,0,0,.176.586,1.735,1.735,0,0,0,.566.461,12.658,12.658,0,0,0,1.5.633A5.6,5.6,0,0,1,27,13.25,1.97,1.97,0,0,1,27.539,14.664Zm5.531,2.492a3.654,3.654,0,0,1-2.879-1.145,4.707,4.707,0,0,1-1.02-3.238,4.853,4.853,0,0,1,1.035-3.32,3.727,3.727,0,0,1,2.949-1.172,5.852,5.852,0,0,1,1.234.133,4.066,4.066,0,0,1,.969.313l-.4,1.1a6.1,6.1,0,0,0-.937-.285,4.186,4.186,0,0,0-.9-.113q-2.609,0-2.609,3.328a3.963,3.963,0,0,0,.637,2.422,2.215,2.215,0,0,0,1.887.844,5.769,5.769,0,0,0,2.2-.461v1.148A4.679,4.679,0,0,1,33.07,17.156Zm8.1-8.875a5.075,5.075,0,0,1,1.023.094l-.18,1.2a4.418,4.418,0,0,0-.937-.117A2.282,2.282,0,0,0,39.3,10.3a3.077,3.077,0,0,0-.738,2.1V17h-1.3V8.438h1.07l.148,1.586h.063A3.764,3.764,0,0,1,39.7,8.734,2.585,2.585,0,0,1,41.172,8.281ZM45.094,17H43.8V8.438h1.3ZM43.688,6.117a.861.861,0,0,1,.219-.652.81.81,0,0,1,1.086,0,.846.846,0,0,1,.227.648.859.859,0,0,1-.227.652.794.794,0,0,1-1.086,0A.877.877,0,0,1,43.688,6.117Zm8.141,11.039a3.706,3.706,0,0,1-1.527-.309,2.872,2.872,0,0,1-1.16-.949h-.094a11.485,11.485,0,0,1,.094,1.422v3.523h-1.3V8.438H48.9l.18,1.172h.063A3.012,3.012,0,0,1,50.3,8.594a3.539,3.539,0,0,1,1.523-.312,3.165,3.165,0,0,1,2.629,1.164,5.125,5.125,0,0,1,.926,3.266,5.1,5.1,0,0,1-.941,3.277A3.17,3.17,0,0,1,51.828,17.156Zm-.187-7.773a2.3,2.3,0,0,0-1.9.727,3.739,3.739,0,0,0-.6,2.313v.289a4.285,4.285,0,0,0,.6,2.582,2.288,2.288,0,0,0,1.93.777,2.007,2.007,0,0,0,1.738-.9,4.26,4.26,0,0,0,.629-2.477,4.1,4.1,0,0,0-.629-2.457A2.069,2.069,0,0,0,51.641,9.383Zm9.43,7.773a3.654,3.654,0,0,1-2.879-1.145,4.707,4.707,0,0,1-1.02-3.238,4.853,4.853,0,0,1,1.035-3.32,3.727,3.727,0,0,1,2.949-1.172,5.852,5.852,0,0,1,1.234.133,4.066,4.066,0,0,1,.969.313l-.4,1.1a6.1,6.1,0,0,0-.937-.285,4.186,4.186,0,0,0-.9-.113q-2.609,0-2.609,3.328a3.963,3.963,0,0,0,.637,2.422,2.215,2.215,0,0,0,1.887.844,5.769,5.769,0,0,0,2.2-.461v1.148A4.679,4.679,0,0,1,61.07,17.156ZM66.563,17h-1.3V8.438h1.3ZM65.156,6.117a.861.861,0,0,1,.219-.652.81.81,0,0,1,1.086,0,.846.846,0,0,1,.227.648.859.859,0,0,1-.227.652.794.794,0,0,1-1.086,0A.877.877,0,0,1,65.156,6.117ZM76.7,12.711a4.724,4.724,0,0,1-1.055,3.27,3.714,3.714,0,0,1-2.914,1.176,3.86,3.86,0,0,1-2.039-.539A3.558,3.558,0,0,1,69.32,15.07a5.391,5.391,0,0,1-.484-2.359,4.716,4.716,0,0,1,1.047-3.262,3.7,3.7,0,0,1,2.906-1.168,3.622,3.622,0,0,1,2.855,1.2A4.7,4.7,0,0,1,76.7,12.711Zm-6.523,0a4.064,4.064,0,0,0,.656,2.5,2.6,2.6,0,0,0,3.863,0,4.043,4.043,0,0,0,.66-2.5,3.978,3.978,0,0,0-.66-2.48,2.32,2.32,0,0,0-1.949-.848,2.283,2.283,0,0,0-1.922.836A4.023,4.023,0,0,0,70.18,12.711Zm1.5-5.6q.375-.484.809-1.172a13.411,13.411,0,0,0,.684-1.2H74.75v.164a11.549,11.549,0,0,1-1.023,1.25A11.619,11.619,0,0,1,72.547,7.3H71.68ZM84.836,17V11.461A2.235,2.235,0,0,0,84.359,9.9a1.941,1.941,0,0,0-1.492-.516,2.461,2.461,0,0,0-1.969.727,3.668,3.668,0,0,0-.625,2.4V17h-1.3V8.438h1.055l.211,1.172H80.3a2.648,2.648,0,0,1,1.117-.98,3.63,3.63,0,0,1,1.6-.348,3.252,3.252,0,0,1,2.328.746,3.175,3.175,0,0,1,.781,2.387V17Z" transform="translate(715 1791)" fill="#38485c"/>
    <rect id="Rectángulo_6351-3" data-name="Rectángulo 6351" width="340" height="1" transform="translate(699 1775)" fill="#e6ebf0"/>
    <rect id="Rectángulo_6351-4" data-name="Rectángulo 6351" width="340" height="1" transform="translate(699 1564)" fill="#e6ebf0" opacity="0"/>
    <rect id="Rectángulo_6352-4" data-name="Rectángulo 6352" width="340" height="54" transform="translate(699 1721)" fill="#e6ebf0"/>
    <path id="Trazado_23930" data-name="Trazado 23930" d="M5.453,17H3.586V7.18H.227v-1.6H8.813v1.6H5.453Zm6.75,0H10.367V8.359H12.2Zm-1.93-9.7v-.2q.445-.547.918-1.219t.746-1.148H14.07v.164a16.042,16.042,0,0,1-1.215,1.23A17.129,17.129,0,0,1,11.492,7.3Zm7.773,8.367a4.465,4.465,0,0,0,1.344-.211v1.383a3.706,3.706,0,0,1-.785.223,5.409,5.409,0,0,1-1,.09Q15,17.156,15,14.406V9.75H13.82V8.938l1.266-.672.625-1.828h1.133V8.359H19.3V9.75H16.844v4.625a1.3,1.3,0,0,0,.332.98A1.21,1.21,0,0,0,18.047,15.672ZM27.211,17l-.258-1.133h-.094a2.6,2.6,0,0,1-1.09.945,3.644,3.644,0,0,1-1.613.344,3.167,3.167,0,0,1-2.344-.781,3.239,3.239,0,0,1-.773-2.367V8.359h1.852v5.328a2.311,2.311,0,0,0,.406,1.488,1.551,1.551,0,0,0,1.273.5,2.028,2.028,0,0,0,1.7-.691,3.81,3.81,0,0,0,.543-2.316v-4.3h1.844V17Zm5.9,0H31.273V4.844h1.836ZM43.4,12.664a4.716,4.716,0,0,1-1.086,3.3,3.891,3.891,0,0,1-3.023,1.188,4.143,4.143,0,0,1-2.141-.547,3.61,3.61,0,0,1-1.43-1.57,5.348,5.348,0,0,1-.5-2.375A4.684,4.684,0,0,1,36.3,9.383,3.909,3.909,0,0,1,39.336,8.2,3.807,3.807,0,0,1,42.3,9.41,4.662,4.662,0,0,1,43.4,12.664Zm-6.289,0q0,2.992,2.211,2.992,2.187,0,2.188-2.992,0-2.961-2.2-2.961a1.879,1.879,0,0,0-1.676.766A3.9,3.9,0,0,0,37.109,12.664Z" transform="translate(715 1737)" fill="#38485c"/>
    <rect id="Rectángulo_6351-5" data-name="Rectángulo 6351" width="340" height="1" transform="translate(699 1721)" fill="#e6ebf0" opacity="0"/>
    <g id="Rectángulo_8972" data-name="Rectángulo 8972" transform="translate(699 1580.287) rotate(-90)" fill="rgba(158,170,184,0.24)" stroke="#9eaab8" stroke-width="1" stroke-dasharray="5 5">
      <rect width="16" height="340" stroke="none"/>
      <rect x="0.5" y="0.5" width="15" height="339" fill="none"/>
    </g>
    <g id="Rectángulo_8984" data-name="Rectángulo 8984" transform="translate(699 1721.287)" fill="rgba(158,170,184,0.24)" stroke="#9eaab8" stroke-width="1" stroke-dasharray="5 5">
      <rect width="16" height="108" stroke="none"/>
      <rect x="0.5" y="0.5" width="15" height="107" fill="none"/>
    </g>
    <g id="Rectángulo_8985" data-name="Rectángulo 8985" transform="translate(1023 1721.287)" fill="rgba(158,170,184,0.24)" stroke="#9eaab8" stroke-width="1" stroke-dasharray="5 5">
      <rect width="16" height="108" stroke="none"/>
      <rect x="0.5" y="0.5" width="15" height="107" fill="none"/>
    </g>
    <g id="Rectángulo_8978" data-name="Rectángulo 8978" transform="translate(699 1618.287) rotate(-90)" fill="rgba(158,170,184,0.24)" stroke="#9eaab8" stroke-width="1" stroke-dasharray="5 5">
      <rect width="16" height="340" stroke="none"/>
      <rect x="0.5" y="0.5" width="15" height="339" fill="none"/>
    </g>
    <g id="Rectángulo_8979" data-name="Rectángulo 8979" transform="translate(699 1634.287) rotate(-90)" fill="rgba(158,170,184,0.24)" stroke="#9eaab8" stroke-width="1" stroke-dasharray="5 5">
      <rect width="16" height="340" stroke="none"/>
      <rect x="0.5" y="0.5" width="15" height="339" fill="none"/>
    </g>
    <g id="Rectángulo_8980" data-name="Rectángulo 8980" transform="translate(699 1672.287) rotate(-90)" fill="rgba(158,170,184,0.24)" stroke="#9eaab8" stroke-width="1" stroke-dasharray="5 5">
      <rect width="16" height="340" stroke="none"/>
      <rect x="0.5" y="0.5" width="15" height="339" fill="none"/>
    </g>
    <g id="Rectángulo_8983" data-name="Rectángulo 8983" transform="translate(807 1721.287)" fill="rgba(158,170,184,0.24)" stroke="#9eaab8" stroke-width="1" stroke-dasharray="5 5">
      <rect width="217" height="108" stroke="none"/>
      <rect x="0.5" y="0.5" width="216" height="107" fill="none"/>
    </g>
    <path id="Trazado_23918" data-name="Trazado 23918" d="M8.016-1.664q.96,0,.96.816,0,.848-.96.848H2.608q-.976,0-.976-.848,0-.816.976-.816H4.272v-7.3l-1.536.944a.827.827,0,0,1-.4.128.7.7,0,0,1-.568-.288,1,1,0,0,1-.232-.64.8.8,0,0,1,.416-.72l2.48-1.536a1.782,1.782,0,0,1,.912-.288.973.973,0,0,1,.72.272,1.016,1.016,0,0,1,.272.752v8.672Zm7.056-5.568a3.5,3.5,0,0,1,1.792.456A3.181,3.181,0,0,1,18.088-5.5a3.929,3.929,0,0,1,.44,1.88,3.855,3.855,0,0,1-.488,1.944A3.479,3.479,0,0,1,16.7-.336a3.906,3.906,0,0,1-1.944.48,3.989,3.989,0,0,1-3.3-1.448,6.474,6.474,0,0,1-1.16-4.136,8.527,8.527,0,0,1,.544-3.192,4.529,4.529,0,0,1,1.56-2.072,4.03,4.03,0,0,1,2.392-.72,5.426,5.426,0,0,1,1.832.328,4.773,4.773,0,0,1,1.56.888,1.2,1.2,0,0,1,.3.344.87.87,0,0,1,.088.408.926.926,0,0,1-.2.6.592.592,0,0,1-.472.248.831.831,0,0,1-.3-.056,2.284,2.284,0,0,1-.352-.184,4.3,4.3,0,0,0-2.368-.928,2.071,2.071,0,0,0-1.84,1.08,5.933,5.933,0,0,0-.7,3.032,2.745,2.745,0,0,1,1.1-1.144A3.241,3.241,0,0,1,15.072-7.232ZM14.64-1.488a1.83,1.83,0,0,0,1.408-.568,2.109,2.109,0,0,0,.528-1.5,2.08,2.08,0,0,0-.528-1.488A1.844,1.844,0,0,0,14.64-5.6a1.928,1.928,0,0,0-1.448.568,2.034,2.034,0,0,0-.552,1.48,2.055,2.055,0,0,0,.552,1.5A1.928,1.928,0,0,0,14.64-1.488ZM24.7-8.016a3.243,3.243,0,0,1,1.8.512,3.4,3.4,0,0,1,1.232,1.448,5,5,0,0,1,.44,2.152,4.845,4.845,0,0,1-.44,2.128A3.333,3.333,0,0,1,26.512-.368a3.309,3.309,0,0,1-1.808.5,3.1,3.1,0,0,1-1.488-.352A2.47,2.47,0,0,1,22.208-1.2V2.064a.83.83,0,0,1-.272.656,1.048,1.048,0,0,1-.72.24,1.037,1.037,0,0,1-.728-.256.868.868,0,0,1-.28-.672V-7.04a.914.914,0,0,1,.264-.688.979.979,0,0,1,.712-.256,1.008,1.008,0,0,1,.72.256.9.9,0,0,1,.272.688v.4a2.455,2.455,0,0,1,1.016-1.016A3.121,3.121,0,0,1,24.7-8.016Zm-.528,6.592a1.793,1.793,0,0,0,1.472-.648A2.829,2.829,0,0,0,26.176-3.9a2.989,2.989,0,0,0-.528-1.888,1.766,1.766,0,0,0-1.472-.672,1.779,1.779,0,0,0-1.48.656,2.952,2.952,0,0,0-.52,1.872A2.923,2.923,0,0,0,22.7-2.08,1.779,1.779,0,0,0,24.176-1.424Zm12.256-.048a.9.9,0,0,1,.288.656.885.885,0,0,1-.272.632.864.864,0,0,1-.64.28A.878.878,0,0,1,35.12-.24l-2.256-2.5L30.608-.24a.928.928,0,0,1-.688.32A.858.858,0,0,1,29.3-.192a.858.858,0,0,1-.272-.624.9.9,0,0,1,.288-.656l2.336-2.544-2.208-2.4a.9.9,0,0,1-.288-.656.85.85,0,0,1,.272-.632.871.871,0,0,1,.624-.264.928.928,0,0,1,.688.32l2.128,2.336,2.128-2.336a.928.928,0,0,1,.688-.32.862.862,0,0,1,.632.264.862.862,0,0,1,.264.632.9.9,0,0,1-.288.656l-2.208,2.4Z" transform="translate(646 1577)" fill="#38485c"/>
    <path id="Trazado_23922" data-name="Trazado 23922" d="M8.016-1.664q.96,0,.96.816,0,.848-.96.848H2.608q-.976,0-.976-.848,0-.816.976-.816H4.272v-7.3l-1.536.944a.827.827,0,0,1-.4.128.7.7,0,0,1-.568-.288,1,1,0,0,1-.232-.64.8.8,0,0,1,.416-.72l2.48-1.536a1.782,1.782,0,0,1,.912-.288.973.973,0,0,1,.72.272,1.016,1.016,0,0,1,.272.752v8.672Zm7.056-5.568a3.5,3.5,0,0,1,1.792.456A3.181,3.181,0,0,1,18.088-5.5a3.929,3.929,0,0,1,.44,1.88,3.855,3.855,0,0,1-.488,1.944A3.479,3.479,0,0,1,16.7-.336a3.906,3.906,0,0,1-1.944.48,3.989,3.989,0,0,1-3.3-1.448,6.474,6.474,0,0,1-1.16-4.136,8.527,8.527,0,0,1,.544-3.192,4.529,4.529,0,0,1,1.56-2.072,4.03,4.03,0,0,1,2.392-.72,5.426,5.426,0,0,1,1.832.328,4.773,4.773,0,0,1,1.56.888,1.2,1.2,0,0,1,.3.344.87.87,0,0,1,.088.408.926.926,0,0,1-.2.6.592.592,0,0,1-.472.248.831.831,0,0,1-.3-.056,2.284,2.284,0,0,1-.352-.184,4.3,4.3,0,0,0-2.368-.928,2.071,2.071,0,0,0-1.84,1.08,5.933,5.933,0,0,0-.7,3.032,2.745,2.745,0,0,1,1.1-1.144A3.241,3.241,0,0,1,15.072-7.232ZM14.64-1.488a1.83,1.83,0,0,0,1.408-.568,2.109,2.109,0,0,0,.528-1.5,2.08,2.08,0,0,0-.528-1.488A1.844,1.844,0,0,0,14.64-5.6a1.928,1.928,0,0,0-1.448.568,2.034,2.034,0,0,0-.552,1.48,2.055,2.055,0,0,0,.552,1.5A1.928,1.928,0,0,0,14.64-1.488ZM24.7-8.016a3.243,3.243,0,0,1,1.8.512,3.4,3.4,0,0,1,1.232,1.448,5,5,0,0,1,.44,2.152,4.845,4.845,0,0,1-.44,2.128A3.333,3.333,0,0,1,26.512-.368a3.309,3.309,0,0,1-1.808.5,3.1,3.1,0,0,1-1.488-.352A2.47,2.47,0,0,1,22.208-1.2V2.064a.83.83,0,0,1-.272.656,1.048,1.048,0,0,1-.72.24,1.037,1.037,0,0,1-.728-.256.868.868,0,0,1-.28-.672V-7.04a.914.914,0,0,1,.264-.688.979.979,0,0,1,.712-.256,1.008,1.008,0,0,1,.72.256.9.9,0,0,1,.272.688v.4a2.455,2.455,0,0,1,1.016-1.016A3.121,3.121,0,0,1,24.7-8.016Zm-.528,6.592a1.793,1.793,0,0,0,1.472-.648A2.829,2.829,0,0,0,26.176-3.9a2.989,2.989,0,0,0-.528-1.888,1.766,1.766,0,0,0-1.472-.672,1.779,1.779,0,0,0-1.48.656,2.952,2.952,0,0,0-.52,1.872A2.923,2.923,0,0,0,22.7-2.08,1.779,1.779,0,0,0,24.176-1.424Zm12.256-.048a.9.9,0,0,1,.288.656.885.885,0,0,1-.272.632.864.864,0,0,1-.64.28A.878.878,0,0,1,35.12-.24l-2.256-2.5L30.608-.24a.928.928,0,0,1-.688.32A.858.858,0,0,1,29.3-.192a.858.858,0,0,1-.272-.624.9.9,0,0,1,.288-.656l2.336-2.544-2.208-2.4a.9.9,0,0,1-.288-.656.85.85,0,0,1,.272-.632.871.871,0,0,1,.624-.264.928.928,0,0,1,.688.32l2.128,2.336,2.128-2.336a.928.928,0,0,1,.688-.32.862.862,0,0,1,.632.264.862.862,0,0,1,.264.632.9.9,0,0,1-.288.656l-2.208,2.4Z" transform="translate(1054 1631)" fill="#38485c"/>
    <path id="Trazado_23920" data-name="Trazado 23920" d="M8.016-1.664q.96,0,.96.816,0,.848-.96.848H2.608q-.976,0-.976-.848,0-.816.976-.816H4.272v-7.3l-1.536.944a.827.827,0,0,1-.4.128.7.7,0,0,1-.568-.288,1,1,0,0,1-.232-.64.8.8,0,0,1,.416-.72l2.48-1.536a1.782,1.782,0,0,1,.912-.288.973.973,0,0,1,.72.272,1.016,1.016,0,0,1,.272.752v8.672Zm7.056-5.568a3.5,3.5,0,0,1,1.792.456A3.181,3.181,0,0,1,18.088-5.5a3.929,3.929,0,0,1,.44,1.88,3.855,3.855,0,0,1-.488,1.944A3.479,3.479,0,0,1,16.7-.336a3.906,3.906,0,0,1-1.944.48,3.989,3.989,0,0,1-3.3-1.448,6.474,6.474,0,0,1-1.16-4.136,8.527,8.527,0,0,1,.544-3.192,4.529,4.529,0,0,1,1.56-2.072,4.03,4.03,0,0,1,2.392-.72,5.426,5.426,0,0,1,1.832.328,4.773,4.773,0,0,1,1.56.888,1.2,1.2,0,0,1,.3.344.87.87,0,0,1,.088.408.926.926,0,0,1-.2.6.592.592,0,0,1-.472.248.831.831,0,0,1-.3-.056,2.284,2.284,0,0,1-.352-.184,4.3,4.3,0,0,0-2.368-.928,2.071,2.071,0,0,0-1.84,1.08,5.933,5.933,0,0,0-.7,3.032,2.745,2.745,0,0,1,1.1-1.144A3.241,3.241,0,0,1,15.072-7.232ZM14.64-1.488a1.83,1.83,0,0,0,1.408-.568,2.109,2.109,0,0,0,.528-1.5,2.08,2.08,0,0,0-.528-1.488A1.844,1.844,0,0,0,14.64-5.6a1.928,1.928,0,0,0-1.448.568,2.034,2.034,0,0,0-.552,1.48,2.055,2.055,0,0,0,.552,1.5A1.928,1.928,0,0,0,14.64-1.488ZM24.7-8.016a3.243,3.243,0,0,1,1.8.512,3.4,3.4,0,0,1,1.232,1.448,5,5,0,0,1,.44,2.152,4.845,4.845,0,0,1-.44,2.128A3.333,3.333,0,0,1,26.512-.368a3.309,3.309,0,0,1-1.808.5,3.1,3.1,0,0,1-1.488-.352A2.47,2.47,0,0,1,22.208-1.2V2.064a.83.83,0,0,1-.272.656,1.048,1.048,0,0,1-.72.24,1.037,1.037,0,0,1-.728-.256.868.868,0,0,1-.28-.672V-7.04a.914.914,0,0,1,.264-.688.979.979,0,0,1,.712-.256,1.008,1.008,0,0,1,.72.256.9.9,0,0,1,.272.688v.4a2.455,2.455,0,0,1,1.016-1.016A3.121,3.121,0,0,1,24.7-8.016Zm-.528,6.592a1.793,1.793,0,0,0,1.472-.648A2.829,2.829,0,0,0,26.176-3.9a2.989,2.989,0,0,0-.528-1.888,1.766,1.766,0,0,0-1.472-.672,1.779,1.779,0,0,0-1.48.656,2.952,2.952,0,0,0-.52,1.872A2.923,2.923,0,0,0,22.7-2.08,1.779,1.779,0,0,0,24.176-1.424Zm12.256-.048a.9.9,0,0,1,.288.656.885.885,0,0,1-.272.632.864.864,0,0,1-.64.28A.878.878,0,0,1,35.12-.24l-2.256-2.5L30.608-.24a.928.928,0,0,1-.688.32A.858.858,0,0,1,29.3-.192a.858.858,0,0,1-.272-.624.9.9,0,0,1,.288-.656l2.336-2.544-2.208-2.4a.9.9,0,0,1-.288-.656.85.85,0,0,1,.272-.632.871.871,0,0,1,.624-.264.928.928,0,0,1,.688.32l2.128,2.336,2.128-2.336a.928.928,0,0,1,.688-.32.862.862,0,0,1,.632.264.862.862,0,0,1,.264.632.9.9,0,0,1-.288.656l-2.208,2.4Z" transform="translate(646 1615)" fill="#38485c"/>
    <path id="Trazado_23921" data-name="Trazado 23921" d="M8.016-1.664q.96,0,.96.816,0,.848-.96.848H2.608q-.976,0-.976-.848,0-.816.976-.816H4.272v-7.3l-1.536.944a.827.827,0,0,1-.4.128.7.7,0,0,1-.568-.288,1,1,0,0,1-.232-.64.8.8,0,0,1,.416-.72l2.48-1.536a1.782,1.782,0,0,1,.912-.288.973.973,0,0,1,.72.272,1.016,1.016,0,0,1,.272.752v8.672Zm7.056-5.568a3.5,3.5,0,0,1,1.792.456A3.181,3.181,0,0,1,18.088-5.5a3.929,3.929,0,0,1,.44,1.88,3.855,3.855,0,0,1-.488,1.944A3.479,3.479,0,0,1,16.7-.336a3.906,3.906,0,0,1-1.944.48,3.989,3.989,0,0,1-3.3-1.448,6.474,6.474,0,0,1-1.16-4.136,8.527,8.527,0,0,1,.544-3.192,4.529,4.529,0,0,1,1.56-2.072,4.03,4.03,0,0,1,2.392-.72,5.426,5.426,0,0,1,1.832.328,4.773,4.773,0,0,1,1.56.888,1.2,1.2,0,0,1,.3.344.87.87,0,0,1,.088.408.926.926,0,0,1-.2.6.592.592,0,0,1-.472.248.831.831,0,0,1-.3-.056,2.284,2.284,0,0,1-.352-.184,4.3,4.3,0,0,0-2.368-.928,2.071,2.071,0,0,0-1.84,1.08,5.933,5.933,0,0,0-.7,3.032,2.745,2.745,0,0,1,1.1-1.144A3.241,3.241,0,0,1,15.072-7.232ZM14.64-1.488a1.83,1.83,0,0,0,1.408-.568,2.109,2.109,0,0,0,.528-1.5,2.08,2.08,0,0,0-.528-1.488A1.844,1.844,0,0,0,14.64-5.6a1.928,1.928,0,0,0-1.448.568,2.034,2.034,0,0,0-.552,1.48,2.055,2.055,0,0,0,.552,1.5A1.928,1.928,0,0,0,14.64-1.488ZM24.7-8.016a3.243,3.243,0,0,1,1.8.512,3.4,3.4,0,0,1,1.232,1.448,5,5,0,0,1,.44,2.152,4.845,4.845,0,0,1-.44,2.128A3.333,3.333,0,0,1,26.512-.368a3.309,3.309,0,0,1-1.808.5,3.1,3.1,0,0,1-1.488-.352A2.47,2.47,0,0,1,22.208-1.2V2.064a.83.83,0,0,1-.272.656,1.048,1.048,0,0,1-.72.24,1.037,1.037,0,0,1-.728-.256.868.868,0,0,1-.28-.672V-7.04a.914.914,0,0,1,.264-.688.979.979,0,0,1,.712-.256,1.008,1.008,0,0,1,.72.256.9.9,0,0,1,.272.688v.4a2.455,2.455,0,0,1,1.016-1.016A3.121,3.121,0,0,1,24.7-8.016Zm-.528,6.592a1.793,1.793,0,0,0,1.472-.648A2.829,2.829,0,0,0,26.176-3.9a2.989,2.989,0,0,0-.528-1.888,1.766,1.766,0,0,0-1.472-.672,1.779,1.779,0,0,0-1.48.656,2.952,2.952,0,0,0-.52,1.872A2.923,2.923,0,0,0,22.7-2.08,1.779,1.779,0,0,0,24.176-1.424Zm12.256-.048a.9.9,0,0,1,.288.656.885.885,0,0,1-.272.632.864.864,0,0,1-.64.28A.878.878,0,0,1,35.12-.24l-2.256-2.5L30.608-.24a.928.928,0,0,1-.688.32A.858.858,0,0,1,29.3-.192a.858.858,0,0,1-.272-.624.9.9,0,0,1,.288-.656l2.336-2.544-2.208-2.4a.9.9,0,0,1-.288-.656.85.85,0,0,1,.272-.632.871.871,0,0,1,.624-.264.928.928,0,0,1,.688.32l2.128,2.336,2.128-2.336a.928.928,0,0,1,.688-.32.862.862,0,0,1,.632.264.862.862,0,0,1,.264.632.9.9,0,0,1-.288.656l-2.208,2.4Z" transform="translate(1054 1669)" fill="#38485c"/>
    <path id="Trazado_23925" data-name="Trazado 23925" d="M8.016-1.664q.96,0,.96.816,0,.848-.96.848H2.608q-.976,0-.976-.848,0-.816.976-.816H4.272v-7.3l-1.536.944a.827.827,0,0,1-.4.128.7.7,0,0,1-.568-.288,1,1,0,0,1-.232-.64.8.8,0,0,1,.416-.72l2.48-1.536a1.782,1.782,0,0,1,.912-.288.973.973,0,0,1,.72.272,1.016,1.016,0,0,1,.272.752v8.672Zm7.056-5.568a3.5,3.5,0,0,1,1.792.456A3.181,3.181,0,0,1,18.088-5.5a3.929,3.929,0,0,1,.44,1.88,3.855,3.855,0,0,1-.488,1.944A3.479,3.479,0,0,1,16.7-.336a3.906,3.906,0,0,1-1.944.48,3.989,3.989,0,0,1-3.3-1.448,6.474,6.474,0,0,1-1.16-4.136,8.527,8.527,0,0,1,.544-3.192,4.529,4.529,0,0,1,1.56-2.072,4.03,4.03,0,0,1,2.392-.72,5.426,5.426,0,0,1,1.832.328,4.773,4.773,0,0,1,1.56.888,1.2,1.2,0,0,1,.3.344.87.87,0,0,1,.088.408.926.926,0,0,1-.2.6.592.592,0,0,1-.472.248.831.831,0,0,1-.3-.056,2.284,2.284,0,0,1-.352-.184,4.3,4.3,0,0,0-2.368-.928,2.071,2.071,0,0,0-1.84,1.08,5.933,5.933,0,0,0-.7,3.032,2.745,2.745,0,0,1,1.1-1.144A3.241,3.241,0,0,1,15.072-7.232ZM14.64-1.488a1.83,1.83,0,0,0,1.408-.568,2.109,2.109,0,0,0,.528-1.5,2.08,2.08,0,0,0-.528-1.488A1.844,1.844,0,0,0,14.64-5.6a1.928,1.928,0,0,0-1.448.568,2.034,2.034,0,0,0-.552,1.48,2.055,2.055,0,0,0,.552,1.5A1.928,1.928,0,0,0,14.64-1.488ZM24.7-8.016a3.243,3.243,0,0,1,1.8.512,3.4,3.4,0,0,1,1.232,1.448,5,5,0,0,1,.44,2.152,4.845,4.845,0,0,1-.44,2.128A3.333,3.333,0,0,1,26.512-.368a3.309,3.309,0,0,1-1.808.5,3.1,3.1,0,0,1-1.488-.352A2.47,2.47,0,0,1,22.208-1.2V2.064a.83.83,0,0,1-.272.656,1.048,1.048,0,0,1-.72.24,1.037,1.037,0,0,1-.728-.256.868.868,0,0,1-.28-.672V-7.04a.914.914,0,0,1,.264-.688.979.979,0,0,1,.712-.256,1.008,1.008,0,0,1,.72.256.9.9,0,0,1,.272.688v.4a2.455,2.455,0,0,1,1.016-1.016A3.121,3.121,0,0,1,24.7-8.016Zm-.528,6.592a1.793,1.793,0,0,0,1.472-.648A2.829,2.829,0,0,0,26.176-3.9a2.989,2.989,0,0,0-.528-1.888,1.766,1.766,0,0,0-1.472-.672,1.779,1.779,0,0,0-1.48.656,2.952,2.952,0,0,0-.52,1.872A2.923,2.923,0,0,0,22.7-2.08,1.779,1.779,0,0,0,24.176-1.424Zm12.256-.048a.9.9,0,0,1,.288.656.885.885,0,0,1-.272.632.864.864,0,0,1-.64.28A.878.878,0,0,1,35.12-.24l-2.256-2.5L30.608-.24a.928.928,0,0,1-.688.32A.858.858,0,0,1,29.3-.192a.858.858,0,0,1-.272-.624.9.9,0,0,1,.288-.656l2.336-2.544-2.208-2.4a.9.9,0,0,1-.288-.656.85.85,0,0,1,.272-.632.871.871,0,0,1,.624-.264.928.928,0,0,1,.688.32l2.128,2.336,2.128-2.336a.928.928,0,0,1,.688-.32.862.862,0,0,1,.632.264.862.862,0,0,1,.264.632.9.9,0,0,1-.288.656l-2.208,2.4Z" transform="translate(678.465 1856.424)" fill="#38485c"/>
    <path id="Trazado_23926" data-name="Trazado 23926" d="M8.016-1.664q.96,0,.96.816,0,.848-.96.848H2.608q-.976,0-.976-.848,0-.816.976-.816H4.272v-7.3l-1.536.944a.827.827,0,0,1-.4.128.7.7,0,0,1-.568-.288,1,1,0,0,1-.232-.64.8.8,0,0,1,.416-.72l2.48-1.536a1.782,1.782,0,0,1,.912-.288.973.973,0,0,1,.72.272,1.016,1.016,0,0,1,.272.752v8.672Zm7.056-5.568a3.5,3.5,0,0,1,1.792.456A3.181,3.181,0,0,1,18.088-5.5a3.929,3.929,0,0,1,.44,1.88,3.855,3.855,0,0,1-.488,1.944A3.479,3.479,0,0,1,16.7-.336a3.906,3.906,0,0,1-1.944.48,3.989,3.989,0,0,1-3.3-1.448,6.474,6.474,0,0,1-1.16-4.136,8.527,8.527,0,0,1,.544-3.192,4.529,4.529,0,0,1,1.56-2.072,4.03,4.03,0,0,1,2.392-.72,5.426,5.426,0,0,1,1.832.328,4.773,4.773,0,0,1,1.56.888,1.2,1.2,0,0,1,.3.344.87.87,0,0,1,.088.408.926.926,0,0,1-.2.6.592.592,0,0,1-.472.248.831.831,0,0,1-.3-.056,2.284,2.284,0,0,1-.352-.184,4.3,4.3,0,0,0-2.368-.928,2.071,2.071,0,0,0-1.84,1.08,5.933,5.933,0,0,0-.7,3.032,2.745,2.745,0,0,1,1.1-1.144A3.241,3.241,0,0,1,15.072-7.232ZM14.64-1.488a1.83,1.83,0,0,0,1.408-.568,2.109,2.109,0,0,0,.528-1.5,2.08,2.08,0,0,0-.528-1.488A1.844,1.844,0,0,0,14.64-5.6a1.928,1.928,0,0,0-1.448.568,2.034,2.034,0,0,0-.552,1.48,2.055,2.055,0,0,0,.552,1.5A1.928,1.928,0,0,0,14.64-1.488ZM24.7-8.016a3.243,3.243,0,0,1,1.8.512,3.4,3.4,0,0,1,1.232,1.448,5,5,0,0,1,.44,2.152,4.845,4.845,0,0,1-.44,2.128A3.333,3.333,0,0,1,26.512-.368a3.309,3.309,0,0,1-1.808.5,3.1,3.1,0,0,1-1.488-.352A2.47,2.47,0,0,1,22.208-1.2V2.064a.83.83,0,0,1-.272.656,1.048,1.048,0,0,1-.72.24,1.037,1.037,0,0,1-.728-.256.868.868,0,0,1-.28-.672V-7.04a.914.914,0,0,1,.264-.688.979.979,0,0,1,.712-.256,1.008,1.008,0,0,1,.72.256.9.9,0,0,1,.272.688v.4a2.455,2.455,0,0,1,1.016-1.016A3.121,3.121,0,0,1,24.7-8.016Zm-.528,6.592a1.793,1.793,0,0,0,1.472-.648A2.829,2.829,0,0,0,26.176-3.9a2.989,2.989,0,0,0-.528-1.888,1.766,1.766,0,0,0-1.472-.672,1.779,1.779,0,0,0-1.48.656,2.952,2.952,0,0,0-.52,1.872A2.923,2.923,0,0,0,22.7-2.08,1.779,1.779,0,0,0,24.176-1.424Zm12.256-.048a.9.9,0,0,1,.288.656.885.885,0,0,1-.272.632.864.864,0,0,1-.64.28A.878.878,0,0,1,35.12-.24l-2.256-2.5L30.608-.24a.928.928,0,0,1-.688.32A.858.858,0,0,1,29.3-.192a.858.858,0,0,1-.272-.624.9.9,0,0,1,.288-.656l2.336-2.544-2.208-2.4a.9.9,0,0,1-.288-.656.85.85,0,0,1,.272-.632.871.871,0,0,1,.624-.264.928.928,0,0,1,.688.32l2.128,2.336,2.128-2.336a.928.928,0,0,1,.688-.32.862.862,0,0,1,.632.264.862.862,0,0,1,.264.632.9.9,0,0,1-.288.656l-2.208,2.4Z" transform="translate(1021.279 1856.424)" fill="#38485c"/>
    <path id="Trazado_23927" data-name="Trazado 23927" d="M11.44-1.232a.985.985,0,0,1,.1.416.8.8,0,0,1-.3.624,1.009,1.009,0,0,1-.68.256.909.909,0,0,1-.48-.136A.907.907,0,0,1,9.728-.5L8.768-2.64H3.136L2.176-.5a.907.907,0,0,1-.352.424.937.937,0,0,1-.5.136A1.019,1.019,0,0,1,.656-.192a.787.787,0,0,1-.3-.624.985.985,0,0,1,.1-.416L4.864-10.72a1.032,1.032,0,0,1,.44-.488,1.26,1.26,0,0,1,.632-.168,1.26,1.26,0,0,1,.632.168,1.032,1.032,0,0,1,.44.488ZM3.84-4.24H8.064L5.952-8.992Zm13.6-3.776a2.615,2.615,0,0,1,2.1.8A3.628,3.628,0,0,1,20.224-4.8V-.864a.935.935,0,0,1-.264.7A1,1,0,0,1,19.232.1,1.03,1.03,0,0,1,18.5-.16a.92.92,0,0,1-.272-.7V-4.688a2.074,2.074,0,0,0-.344-1.328,1.322,1.322,0,0,0-1.08-.416,1.826,1.826,0,0,0-1.384.544,2.019,2.019,0,0,0-.52,1.456V-.864a.92.92,0,0,1-.272.7A1.03,1.03,0,0,1,13.888.1,1,1,0,0,1,13.16-.16a.935.935,0,0,1-.264-.7V-7.056a.88.88,0,0,1,.272-.672,1.03,1.03,0,0,1,.736-.256.953.953,0,0,1,.68.248.848.848,0,0,1,.264.648v.432A2.706,2.706,0,0,1,15.92-7.664,3.226,3.226,0,0,1,17.44-8.016ZM25.712.128a4.146,4.146,0,0,1-2.056-.5,3.381,3.381,0,0,1-1.368-1.408,4.505,4.505,0,0,1-.48-2.128,4.468,4.468,0,0,1,.5-2.152A3.56,3.56,0,0,1,23.728-7.5a4.208,4.208,0,0,1,2.1-.512,4.665,4.665,0,0,1,1.256.176,4.143,4.143,0,0,1,1.112.48.99.99,0,0,1,.512.848.9.9,0,0,1-.168.568.531.531,0,0,1-.44.216.956.956,0,0,1-.368-.08A3.223,3.223,0,0,1,27.344-6a4.3,4.3,0,0,0-.672-.328,2.088,2.088,0,0,0-.736-.12,1.871,1.871,0,0,0-1.528.648,2.855,2.855,0,0,0-.536,1.864,2.827,2.827,0,0,0,.536,1.848,1.871,1.871,0,0,0,1.528.648,1.973,1.973,0,0,0,.712-.12,6.031,6.031,0,0,0,.7-.328A3.168,3.168,0,0,1,27.76-2.1a.923.923,0,0,1,.352-.072.531.531,0,0,1,.432.224.879.879,0,0,1,.176.56.9.9,0,0,1-.12.472,1.081,1.081,0,0,1-.392.36,4.207,4.207,0,0,1-1.152.5A4.953,4.953,0,0,1,25.712.128Zm8.9-8.144q2.752,0,2.752,3.216V-.864a.935.935,0,0,1-.264.7A1,1,0,0,1,36.368.1a1.03,1.03,0,0,1-.736-.256.92.92,0,0,1-.272-.7V-4.8a1.852,1.852,0,0,0-.344-1.24,1.365,1.365,0,0,0-1.08-.392,1.826,1.826,0,0,0-1.384.544,2.019,2.019,0,0,0-.52,1.456V-.864a.92.92,0,0,1-.272.7A1.03,1.03,0,0,1,31.024.1,1,1,0,0,1,30.3-.16a.935.935,0,0,1-.264-.7v-9.568a.868.868,0,0,1,.28-.672,1.037,1.037,0,0,1,.728-.256,1.048,1.048,0,0,1,.72.24.83.83,0,0,1,.272.656v3.728A2.619,2.619,0,0,1,33.1-7.688,3.37,3.37,0,0,1,34.608-8.016ZM42.944.128a4.3,4.3,0,0,1-2.1-.5,3.432,3.432,0,0,1-1.4-1.424,4.515,4.515,0,0,1-.5-2.16,4.468,4.468,0,0,1,.5-2.152,3.444,3.444,0,0,1,1.4-1.416,4.3,4.3,0,0,1,2.1-.5,4.3,4.3,0,0,1,2.1.5A3.394,3.394,0,0,1,46.44-6.1a4.527,4.527,0,0,1,.488,2.152,4.575,4.575,0,0,1-.488,2.16A3.382,3.382,0,0,1,45.048-.368,4.3,4.3,0,0,1,42.944.128Zm-.016-1.552a1.793,1.793,0,0,0,1.488-.64,2.973,2.973,0,0,0,.512-1.888,2.979,2.979,0,0,0-.512-1.88,1.765,1.765,0,0,0-1.472-.648,1.788,1.788,0,0,0-1.48.648,2.946,2.946,0,0,0-.52,1.88,2.973,2.973,0,0,0,.512,1.888A1.775,1.775,0,0,0,42.928-1.424ZM58.336-7.408a.979.979,0,0,1,.344-.432.834.834,0,0,1,.472-.144,1.007,1.007,0,0,1,.664.248.772.772,0,0,1,.3.616.852.852,0,0,1-.1.384L57.056-.544a1.053,1.053,0,0,1-.408.464,1.105,1.105,0,0,1-.584.16,1.161,1.161,0,0,1-.584-.16,1.025,1.025,0,0,1-.424-.464L52.08-6.736A.812.812,0,0,1,52-7.1a.78.78,0,0,1,.312-.624,1.091,1.091,0,0,1,.712-.256.892.892,0,0,1,.848.56l2.24,4.944Zm6.224-.608a3.259,3.259,0,0,1,2.424.808,3.383,3.383,0,0,1,.792,2.456v3.9a.9.9,0,0,1-.256.68.969.969,0,0,1-.7.248.936.936,0,0,1-.68-.256.894.894,0,0,1-.264-.672V-1.2a2.088,2.088,0,0,1-.856.976,2.568,2.568,0,0,1-1.352.352,3.139,3.139,0,0,1-1.424-.32,2.533,2.533,0,0,1-1.008-.88,2.224,2.224,0,0,1-.368-1.248,1.977,1.977,0,0,1,.44-1.36,2.644,2.644,0,0,1,1.432-.72,13.041,13.041,0,0,1,2.736-.224h.4v-.368a1.638,1.638,0,0,0-.336-1.144,1.43,1.43,0,0,0-1.088-.36,3.452,3.452,0,0,0-.944.136q-.48.136-1.136.392a1.6,1.6,0,0,1-.608.208.6.6,0,0,1-.472-.208.791.791,0,0,1-.184-.544.819.819,0,0,1,.136-.472A1.291,1.291,0,0,1,61.7-7.36a5.215,5.215,0,0,1,1.336-.48A6.893,6.893,0,0,1,64.56-8.016Zm-.5,6.7a1.709,1.709,0,0,0,1.3-.536,1.939,1.939,0,0,0,.5-1.384v-.336h-.288a11.038,11.038,0,0,0-1.664.1,1.616,1.616,0,0,0-.848.336.856.856,0,0,0-.256.656,1.085,1.085,0,0,0,.36.84A1.27,1.27,0,0,0,64.064-1.312Zm10.1-6.672a.861.861,0,0,1,.656.176.781.781,0,0,1,.24.624.872.872,0,0,1-.208.64,1.278,1.278,0,0,1-.752.272l-.48.048a1.944,1.944,0,0,0-1.384.64,2.093,2.093,0,0,0-.44,1.36v3.36a.888.888,0,0,1-.288.712,1.064,1.064,0,0,1-.72.248,1.034,1.034,0,0,1-.712-.248.9.9,0,0,1-.28-.712V-7.056a.856.856,0,0,1,.28-.688,1.032,1.032,0,0,1,.7-.24.962.962,0,0,1,.672.232.85.85,0,0,1,.256.664v.64a2.368,2.368,0,0,1,.9-1.088,2.771,2.771,0,0,1,1.336-.432ZM76.9.1a1.034,1.034,0,0,1-.712-.248.9.9,0,0,1-.28-.712V-7.04a.876.876,0,0,1,.28-.7,1.055,1.055,0,0,1,.712-.24,1.087,1.087,0,0,1,.72.24.864.864,0,0,1,.288.7V-.864a.888.888,0,0,1-.288.712A1.064,1.064,0,0,1,76.9.1Zm0-9.5a1.222,1.222,0,0,1-.864-.3,1.008,1.008,0,0,1-.32-.776.983.983,0,0,1,.32-.768,1.243,1.243,0,0,1,.864-.288,1.25,1.25,0,0,1,.856.288.971.971,0,0,1,.328.768,1.008,1.008,0,0,1-.32.776A1.222,1.222,0,0,1,76.9-9.408Zm6.448,1.392a3.259,3.259,0,0,1,2.424.808,3.383,3.383,0,0,1,.792,2.456v3.9a.9.9,0,0,1-.256.68.969.969,0,0,1-.7.248.936.936,0,0,1-.68-.256.894.894,0,0,1-.264-.672V-1.2a2.088,2.088,0,0,1-.856.976,2.568,2.568,0,0,1-1.352.352,3.139,3.139,0,0,1-1.424-.32,2.533,2.533,0,0,1-1.008-.88,2.224,2.224,0,0,1-.368-1.248,1.977,1.977,0,0,1,.44-1.36A2.644,2.644,0,0,1,81.52-4.4a13.041,13.041,0,0,1,2.736-.224h.4v-.368a1.638,1.638,0,0,0-.336-1.144,1.43,1.43,0,0,0-1.088-.36,3.452,3.452,0,0,0-.944.136q-.48.136-1.136.392a1.6,1.6,0,0,1-.608.208.6.6,0,0,1-.472-.208.791.791,0,0,1-.184-.544.819.819,0,0,1,.136-.472,1.291,1.291,0,0,1,.456-.376,5.215,5.215,0,0,1,1.336-.48A6.893,6.893,0,0,1,83.344-8.016Zm-.5,6.7a1.709,1.709,0,0,0,1.3-.536,1.939,1.939,0,0,0,.5-1.384v-.336h-.288a11.038,11.038,0,0,0-1.664.1,1.615,1.615,0,0,0-.848.336.856.856,0,0,0-.256.656,1.085,1.085,0,0,0,.36.84A1.27,1.27,0,0,0,82.848-1.312Zm10.224-6.7a3.309,3.309,0,0,1,1.808.5A3.333,3.333,0,0,1,96.1-6.112a4.845,4.845,0,0,1,.44,2.128,5,5,0,0,1-.44,2.152A3.4,3.4,0,0,1,94.872-.384a3.243,3.243,0,0,1-1.8.512A3.066,3.066,0,0,1,91.56-.24a2.5,2.5,0,0,1-1.016-1.024v.4a.9.9,0,0,1-.272.688,1.008,1.008,0,0,1-.72.256.979.979,0,0,1-.712-.256.914.914,0,0,1-.264-.688v-9.568a.868.868,0,0,1,.28-.672,1.037,1.037,0,0,1,.728-.256,1.048,1.048,0,0,1,.72.24.83.83,0,0,1,.272.656v3.776a2.392,2.392,0,0,1,1.008-.984A3.156,3.156,0,0,1,93.072-8.016Zm-.528,6.592A1.766,1.766,0,0,0,94.016-2.1a2.989,2.989,0,0,0,.528-1.888,2.854,2.854,0,0,0-.52-1.84,1.8,1.8,0,0,0-1.48-.64,1.788,1.788,0,0,0-1.48.648,2.917,2.917,0,0,0-.52,1.864,2.952,2.952,0,0,0,.52,1.872A1.779,1.779,0,0,0,92.544-1.424ZM99.168.1a1.034,1.034,0,0,1-.712-.248.9.9,0,0,1-.28-.712v-9.552a.876.876,0,0,1,.28-.7,1.055,1.055,0,0,1,.712-.24,1.087,1.087,0,0,1,.72.24.864.864,0,0,1,.288.7V-.864a.888.888,0,0,1-.288.712A1.064,1.064,0,0,1,99.168.1Zm9.248-2.24a.538.538,0,0,1,.44.208.865.865,0,0,1,.168.56.97.97,0,0,1-.592.832,5.349,5.349,0,0,1-1.232.488,5.079,5.079,0,0,1-1.312.184A4.077,4.077,0,0,1,102.9-.96a3.988,3.988,0,0,1-1.1-2.976,4.566,4.566,0,0,1,.48-2.128,3.49,3.49,0,0,1,1.352-1.44,3.829,3.829,0,0,1,1.976-.512,3.546,3.546,0,0,1,1.84.464,3.146,3.146,0,0,1,1.216,1.312,4.353,4.353,0,0,1,.432,2q0,.688-.608.688h-4.72a2.517,2.517,0,0,0,.624,1.624,2.1,2.1,0,0,0,1.536.52,2.913,2.913,0,0,0,.9-.128,8.923,8.923,0,0,0,.888-.352A1.766,1.766,0,0,1,108.416-2.144Zm-2.768-4.464a1.717,1.717,0,0,0-1.3.512,2.417,2.417,0,0,0-.584,1.472h3.616a2.281,2.281,0,0,0-.48-1.48A1.583,1.583,0,0,0,105.648-6.608ZM117.856.128A5.144,5.144,0,0,1,115.04-.56a.954.954,0,0,1-.512-.864.758.758,0,0,1,.176-.52.554.554,0,0,1,.432-.2,1.767,1.767,0,0,1,.752.256,7,7,0,0,0,.936.368,3.812,3.812,0,0,0,1.08.128,2.054,2.054,0,0,0,1.048-.224.694.694,0,0,0,.376-.624.6.6,0,0,0-.152-.432,1.394,1.394,0,0,0-.544-.3,11.44,11.44,0,0,0-1.192-.312A4.58,4.58,0,0,1,115.4-4.1a1.816,1.816,0,0,1-.616-1.456,2.1,2.1,0,0,1,.416-1.272,2.7,2.7,0,0,1,1.144-.88A4.168,4.168,0,0,1,118-8.016a4.963,4.963,0,0,1,1.3.168,3.94,3.94,0,0,1,1.12.488.966.966,0,0,1,.512.848.821.821,0,0,1-.176.536.538.538,0,0,1-.432.216.865.865,0,0,1-.344-.072,4.615,4.615,0,0,1-.424-.216,6.709,6.709,0,0,0-.8-.36,2.5,2.5,0,0,0-.832-.12,1.611,1.611,0,0,0-.936.24.758.758,0,0,0-.344.656.666.666,0,0,0,.352.608,5.041,5.041,0,0,0,1.36.416,7.76,7.76,0,0,1,1.68.512,1.968,1.968,0,0,1,.872.72,2.089,2.089,0,0,1,.264,1.1,2.052,2.052,0,0,1-.9,1.744A4.013,4.013,0,0,1,117.856.128Zm11.1-2.272a.538.538,0,0,1,.44.208.865.865,0,0,1,.168.56.97.97,0,0,1-.592.832,5.349,5.349,0,0,1-1.232.488,5.079,5.079,0,0,1-1.312.184A4.077,4.077,0,0,1,123.44-.96a3.988,3.988,0,0,1-1.1-2.976,4.566,4.566,0,0,1,.48-2.128,3.49,3.49,0,0,1,1.352-1.44,3.829,3.829,0,0,1,1.976-.512,3.546,3.546,0,0,1,1.84.464A3.146,3.146,0,0,1,129.2-6.24a4.353,4.353,0,0,1,.432,2q0,.688-.608.688H124.3a2.517,2.517,0,0,0,.624,1.624,2.1,2.1,0,0,0,1.536.52,2.913,2.913,0,0,0,.9-.128,8.923,8.923,0,0,0,.888-.352A1.766,1.766,0,0,1,128.96-2.144Zm-2.768-4.464a1.717,1.717,0,0,0-1.3.512,2.417,2.417,0,0,0-.584,1.472h3.616a2.281,2.281,0,0,0-.48-1.48A1.583,1.583,0,0,0,126.192-6.608Zm11.68-1.376a1.008,1.008,0,0,1,.72.256.9.9,0,0,1,.272.688V-.72a3.6,3.6,0,0,1-1.024,2.784,4.317,4.317,0,0,1-3.024.944,5.88,5.88,0,0,1-2.912-.656,1,1,0,0,1-.592-.848.865.865,0,0,1,.168-.56.538.538,0,0,1,.44-.208,1.113,1.113,0,0,1,.352.072q.208.072.432.168a9.172,9.172,0,0,0,1.032.368,3.888,3.888,0,0,0,1.048.128,1.832,1.832,0,0,0,2.1-2.048V-1.6a2.443,2.443,0,0,1-1.024,1.016,3.2,3.2,0,0,1-1.536.36A3.391,3.391,0,0,1,132.5-.712a3.354,3.354,0,0,1-1.24-1.368,4.419,4.419,0,0,1-.448-2.032,4.537,4.537,0,0,1,.44-2.04,3.272,3.272,0,0,1,1.24-1.376,3.432,3.432,0,0,1,1.824-.488,3.2,3.2,0,0,1,1.536.36A2.443,2.443,0,0,1,136.88-6.64v-.416a.88.88,0,0,1,.272-.672A1.008,1.008,0,0,1,137.872-7.984Zm-3.024,6.208a1.866,1.866,0,0,0,1.5-.624,2.542,2.542,0,0,0,.536-1.712,2.568,2.568,0,0,0-.536-1.728,1.866,1.866,0,0,0-1.5-.624,1.872,1.872,0,0,0-1.488.624,2.543,2.543,0,0,0-.544,1.728A2.517,2.517,0,0,0,133.36-2.4,1.872,1.872,0,0,0,134.848-1.776Zm12.24-6.208a1.03,1.03,0,0,1,.736.256.9.9,0,0,1,.272.688V-.832a.868.868,0,0,1-.28.672,1.037,1.037,0,0,1-.728.256.965.965,0,0,1-.688-.24.856.856,0,0,1-.256-.656v-.4a2.549,2.549,0,0,1-.992.984,2.867,2.867,0,0,1-1.408.344q-2.88,0-2.88-3.232V-7.04a.9.9,0,0,1,.272-.688,1.008,1.008,0,0,1,.72-.256,1.03,1.03,0,0,1,.736.256.9.9,0,0,1,.272.688v3.952a1.888,1.888,0,0,0,.336,1.232,1.3,1.3,0,0,0,1.056.4,1.722,1.722,0,0,0,1.336-.552,2.087,2.087,0,0,0,.5-1.464V-7.04a.9.9,0,0,1,.272-.688A1.008,1.008,0,0,1,147.088-7.984ZM144.9-8.9a.6.6,0,0,1-.352.128.511.511,0,0,1-.376-.152.492.492,0,0,1-.152-.36.6.6,0,0,1,.128-.352L145.7-11.7a1.058,1.058,0,0,1,.848-.48.817.817,0,0,1,.6.248.8.8,0,0,1,.248.584.936.936,0,0,1-.432.768Zm9.808.88a2.615,2.615,0,0,1,2.1.8,3.628,3.628,0,0,1,.688,2.416V-.864a.935.935,0,0,1-.264.7A1,1,0,0,1,156.5.1a1.03,1.03,0,0,1-.736-.256.92.92,0,0,1-.272-.7V-4.688a2.074,2.074,0,0,0-.344-1.328,1.322,1.322,0,0,0-1.08-.416,1.826,1.826,0,0,0-1.384.544,2.019,2.019,0,0,0-.52,1.456V-.864a.92.92,0,0,1-.272.7,1.03,1.03,0,0,1-.736.256,1,1,0,0,1-.728-.256.935.935,0,0,1-.264-.7V-7.056a.88.88,0,0,1,.272-.672,1.03,1.03,0,0,1,.736-.256.953.953,0,0,1,.68.248.848.848,0,0,1,.264.648v.432a2.706,2.706,0,0,1,1.072-1.008A3.226,3.226,0,0,1,154.7-8.016Zm13.184,6.624q.8.048.8.72a.651.651,0,0,1-.312.584,1.489,1.489,0,0,1-.888.168l-.432-.032a2.574,2.574,0,0,1-2.688-2.88V-6.32h-.8a1.016,1.016,0,0,1-.664-.192.685.685,0,0,1-.232-.56.685.685,0,0,1,.232-.56,1.016,1.016,0,0,1,.664-.192h.8V-9.3a.9.9,0,0,1,.272-.688,1.03,1.03,0,0,1,.736-.256,1.008,1.008,0,0,1,.72.256.9.9,0,0,1,.272.688v1.472h1.36a1.016,1.016,0,0,1,.664.192.685.685,0,0,1,.232.56.685.685,0,0,1-.232.56,1.016,1.016,0,0,1-.664.192h-1.36v3.632q0,1.184,1.088,1.264Zm8.016-.752a.538.538,0,0,1,.44.208.865.865,0,0,1,.168.56.97.97,0,0,1-.592.832,5.349,5.349,0,0,1-1.232.488,5.079,5.079,0,0,1-1.312.184A4.077,4.077,0,0,1,170.384-.96a3.988,3.988,0,0,1-1.1-2.976,4.566,4.566,0,0,1,.48-2.128,3.49,3.49,0,0,1,1.352-1.44,3.829,3.829,0,0,1,1.976-.512,3.546,3.546,0,0,1,1.84.464,3.146,3.146,0,0,1,1.216,1.312,4.353,4.353,0,0,1,.432,2q0,.688-.608.688h-4.72a2.517,2.517,0,0,0,.624,1.624,2.1,2.1,0,0,0,1.536.52,2.913,2.913,0,0,0,.9-.128,8.923,8.923,0,0,0,.888-.352A1.766,1.766,0,0,1,175.9-2.144Zm-2.768-4.464a1.717,1.717,0,0,0-1.3.512,2.417,2.417,0,0,0-.584,1.472h3.616a2.281,2.281,0,0,0-.48-1.48A1.583,1.583,0,0,0,173.136-6.608Zm11.68,5.136a.9.9,0,0,1,.288.656.885.885,0,0,1-.272.632.864.864,0,0,1-.64.28A.878.878,0,0,1,183.5-.24l-2.256-2.5-2.256,2.5a.928.928,0,0,1-.688.32.858.858,0,0,1-.624-.272.858.858,0,0,1-.272-.624.9.9,0,0,1,.288-.656l2.336-2.544-2.208-2.4a.9.9,0,0,1-.288-.656.85.85,0,0,1,.272-.632.871.871,0,0,1,.624-.264.928.928,0,0,1,.688.32l2.128,2.336,2.128-2.336a.928.928,0,0,1,.688-.32.862.862,0,0,1,.632.264.862.862,0,0,1,.264.632.9.9,0,0,1-.288.656l-2.208,2.4Zm5.776.08q.8.048.8.72a.651.651,0,0,1-.312.584,1.489,1.489,0,0,1-.888.168L189.76.048a2.574,2.574,0,0,1-2.688-2.88V-6.32h-.8a1.016,1.016,0,0,1-.664-.192.685.685,0,0,1-.232-.56.685.685,0,0,1,.232-.56,1.016,1.016,0,0,1,.664-.192h.8V-9.3a.9.9,0,0,1,.272-.688,1.03,1.03,0,0,1,.736-.256,1.008,1.008,0,0,1,.72.256.9.9,0,0,1,.272.688v1.472h1.36a1.016,1.016,0,0,1,.664.192.685.685,0,0,1,.232.56.685.685,0,0,1-.232.56,1.016,1.016,0,0,1-.664.192h-1.36v3.632q0,1.184,1.088,1.264Zm5.392,1.52a4.3,4.3,0,0,1-2.1-.5,3.432,3.432,0,0,1-1.4-1.424,4.515,4.515,0,0,1-.5-2.16,4.467,4.467,0,0,1,.5-2.152,3.444,3.444,0,0,1,1.4-1.416,4.3,4.3,0,0,1,2.1-.5,4.3,4.3,0,0,1,2.1.5A3.394,3.394,0,0,1,199.48-6.1a4.527,4.527,0,0,1,.488,2.152,4.575,4.575,0,0,1-.488,2.16,3.382,3.382,0,0,1-1.392,1.424A4.3,4.3,0,0,1,195.984.128Zm-.016-1.552a1.793,1.793,0,0,0,1.488-.64,2.973,2.973,0,0,0,.512-1.888,2.979,2.979,0,0,0-.512-1.88,1.765,1.765,0,0,0-1.472-.648,1.788,1.788,0,0,0-1.48.648,2.946,2.946,0,0,0-.52,1.88,2.973,2.973,0,0,0,.512,1.888A1.775,1.775,0,0,0,195.968-1.424Z" transform="translate(807 1857)" fill="#38485c"/>
  </g>
</svg>
