<svg width="158" height="140" viewBox="0 0 158 140" fill="none" xmlns="http://www.w3.org/2000/svg">
<rect x="0.839355" y="-0.000732422" width="156.321" height="139.885" rx="3.67814" fill="#F3F6F9"/>
<path d="M13.5988 26.802C13.3843 26.802 13.2169 26.7419 13.0968 26.6217C12.9852 26.5016 12.9294 26.3342 12.9294 26.1197V18.3183C12.9294 18.0952 12.9895 17.9278 13.1096 17.8163C13.2298 17.6961 13.3971 17.636 13.6117 17.636H16.6885C17.6669 17.636 18.4221 17.8806 18.9542 18.3698C19.4863 18.8504 19.7524 19.5284 19.7524 20.4038C19.7524 21.2878 19.4863 21.9744 18.9542 22.4636C18.4221 22.9442 17.6669 23.1845 16.6885 23.1845H14.2683V26.1197C14.2683 26.3342 14.2125 26.5016 14.1009 26.6217C13.9893 26.7419 13.822 26.802 13.5988 26.802ZM14.2683 22.116H16.4954C17.139 22.116 17.6239 21.9744 17.9501 21.6912C18.2848 21.3994 18.4521 20.9703 18.4521 20.4038C18.4521 19.846 18.2848 19.4254 17.9501 19.1422C17.6239 18.8504 17.139 18.7045 16.4954 18.7045H14.2683V22.116ZM23.0686 26.8277C22.3992 26.8277 21.8928 26.6346 21.5495 26.2484C21.2148 25.8536 21.0475 25.2872 21.0475 24.5491V18.2025C21.0475 17.9879 21.1032 17.8248 21.2148 17.7133C21.3264 17.6017 21.4852 17.5459 21.6911 17.5459C21.8971 17.5459 22.0559 17.6017 22.1675 17.7133C22.2876 17.8248 22.3477 17.9879 22.3477 18.2025V24.4719C22.3477 24.901 22.4335 25.2228 22.6052 25.4374C22.7854 25.6433 23.0429 25.7463 23.3776 25.7463C23.4548 25.7463 23.5235 25.7463 23.5835 25.7463C23.6436 25.7377 23.7037 25.7292 23.7638 25.7206C23.8668 25.712 23.9397 25.742 23.9826 25.8107C24.0255 25.8708 24.047 25.9995 24.047 26.1969C24.047 26.3771 24.0084 26.5187 23.9311 26.6217C23.8539 26.7161 23.7294 26.7762 23.5578 26.802C23.4805 26.8105 23.399 26.8148 23.3132 26.8148C23.2274 26.8234 23.1458 26.8277 23.0686 26.8277ZM26.9907 26.8277C26.553 26.8277 26.1582 26.7419 25.8063 26.5702C25.463 26.3986 25.1927 26.1669 24.9953 25.8751C24.7979 25.5833 24.6992 25.2528 24.6992 24.8838C24.6992 24.4204 24.8151 24.0556 25.0468 23.7896C25.2871 23.5149 25.6776 23.3218 26.2183 23.2102C26.7676 23.0901 27.5056 23.03 28.4325 23.03H29.0376V23.8282H28.4454C27.8275 23.8282 27.3383 23.8582 26.9778 23.9183C26.6174 23.9784 26.3599 24.0814 26.2054 24.2273C26.0595 24.3646 25.9866 24.5577 25.9866 24.8066C25.9866 25.1327 26.0981 25.3987 26.3213 25.6047C26.5444 25.8021 26.8534 25.9008 27.2482 25.9008C27.5657 25.9008 27.8446 25.8279 28.0849 25.682C28.3252 25.5275 28.5141 25.3215 28.6514 25.064C28.7973 24.8066 28.8702 24.5105 28.8702 24.1758V22.6953C28.8702 22.2061 28.7672 21.8542 28.5613 21.6397C28.3553 21.4251 28.0163 21.3178 27.5443 21.3178C27.2696 21.3178 26.9821 21.3522 26.6817 21.4208C26.3899 21.4895 26.0853 21.6054 25.7677 21.7684C25.6218 21.8371 25.4974 21.8585 25.3944 21.8328C25.2914 21.807 25.2099 21.7513 25.1498 21.6654C25.0897 21.571 25.0554 21.4723 25.0468 21.3693C25.0468 21.2578 25.0725 21.1505 25.124 21.0475C25.1841 20.9445 25.2828 20.8673 25.4201 20.8158C25.7977 20.6355 26.1711 20.5068 26.5401 20.4296C26.9092 20.3523 27.2567 20.3137 27.5829 20.3137C28.1579 20.3137 28.6299 20.4038 28.999 20.5841C29.3766 20.7643 29.6555 21.0389 29.8357 21.408C30.016 21.777 30.1061 22.2533 30.1061 22.8369V26.1454C30.1061 26.3514 30.0546 26.5144 29.9516 26.6346C29.8486 26.7462 29.6984 26.802 29.501 26.802C29.3122 26.802 29.162 26.7462 29.0505 26.6346C28.9389 26.5144 28.8831 26.3514 28.8831 26.1454V25.3086H28.999C28.9303 25.6262 28.8016 25.9008 28.6128 26.1325C28.4325 26.3557 28.2051 26.5273 27.9305 26.6475C27.6558 26.7676 27.3426 26.8277 26.9907 26.8277ZM32.5406 26.802C32.3346 26.802 32.1758 26.7462 32.0643 26.6346C31.9527 26.5144 31.8969 26.3514 31.8969 26.1454V20.996C31.8969 20.7814 31.9527 20.6184 32.0643 20.5068C32.1758 20.3952 32.3303 20.3395 32.5277 20.3395C32.7337 20.3395 32.8882 20.3952 32.9912 20.5068C33.1027 20.6184 33.1585 20.7814 33.1585 20.996V22.0001L33.0169 21.7684C33.2057 21.2878 33.5018 20.9273 33.9052 20.687C34.3085 20.4382 34.772 20.3137 35.2955 20.3137C35.7933 20.3137 36.2052 20.4081 36.5314 20.5969C36.8661 20.7772 37.115 21.0561 37.278 21.4337C37.4411 21.8027 37.5226 22.2705 37.5226 22.8369V26.1454C37.5226 26.3514 37.4668 26.5144 37.3553 26.6346C37.2437 26.7462 37.0849 26.802 36.879 26.802C36.6644 26.802 36.5013 26.7462 36.3898 26.6346C36.2782 26.5144 36.2224 26.3514 36.2224 26.1454V22.9142C36.2224 22.3735 36.1151 21.9787 35.9006 21.7298C35.6946 21.4809 35.3685 21.3565 34.9222 21.3565C34.3987 21.3565 33.9781 21.5195 33.6606 21.8457C33.3516 22.1718 33.1971 22.6095 33.1971 23.1588V26.1454C33.1971 26.5831 32.9783 26.802 32.5406 26.802ZM43.3781 26.802C43.1721 26.802 43.0133 26.7462 42.9017 26.6346C42.7902 26.5144 42.7344 26.3514 42.7344 26.1454V20.996C42.7344 20.7814 42.7902 20.6184 42.9017 20.5068C43.0133 20.3952 43.1678 20.3395 43.3652 20.3395C43.5712 20.3395 43.7256 20.3952 43.8286 20.5068C43.9402 20.6184 43.996 20.7814 43.996 20.996V22.0516L43.8544 21.7684C44.026 21.3136 44.2921 20.9574 44.6525 20.6999C45.013 20.4424 45.4464 20.3137 45.9528 20.3137C46.4763 20.3137 46.9011 20.4382 47.2272 20.687C47.5534 20.9359 47.7765 21.3178 47.8967 21.8328H47.7164C47.8795 21.3608 48.1584 20.9917 48.5532 20.7257C48.948 20.451 49.4071 20.3137 49.9307 20.3137C50.4113 20.3137 50.8061 20.4081 51.115 20.5969C51.424 20.7772 51.6557 21.0561 51.8102 21.4337C51.9647 21.8027 52.0419 22.2705 52.0419 22.8369V26.1454C52.0419 26.3514 51.9818 26.5144 51.8617 26.6346C51.7501 26.7462 51.5914 26.802 51.3854 26.802C51.1794 26.802 51.0206 26.7462 50.9091 26.6346C50.7975 26.5144 50.7417 26.3514 50.7417 26.1454V22.9013C50.7417 22.3692 50.6473 21.9787 50.4585 21.7298C50.2783 21.4809 49.9779 21.3565 49.5573 21.3565C49.0853 21.3565 48.712 21.5195 48.4373 21.8457C48.1627 22.1718 48.0254 22.6224 48.0254 23.1974V26.1454C48.0254 26.3514 47.9696 26.5144 47.858 26.6346C47.7465 26.7462 47.5877 26.802 47.3817 26.802C47.1757 26.802 47.0127 26.7462 46.8925 26.6346C46.781 26.5144 46.7252 26.3514 46.7252 26.1454V22.9013C46.7252 22.3692 46.6351 21.9787 46.4548 21.7298C46.2746 21.4809 45.9742 21.3565 45.5537 21.3565C45.0817 21.3565 44.7083 21.5195 44.4337 21.8457C44.1676 22.1718 44.0346 22.6224 44.0346 23.1974V26.1454C44.0346 26.5831 43.8158 26.802 43.3781 26.802ZM55.8681 26.8277C55.4304 26.8277 55.0356 26.7419 54.6837 26.5702C54.3404 26.3986 54.0701 26.1669 53.8727 25.8751C53.6753 25.5833 53.5766 25.2528 53.5766 24.8838C53.5766 24.4204 53.6924 24.0556 53.9242 23.7896C54.1645 23.5149 54.555 23.3218 55.0957 23.2102C55.6449 23.0901 56.383 23.03 57.3099 23.03H57.915V23.8282H57.3228C56.7048 23.8282 56.2157 23.8582 55.8552 23.9183C55.4947 23.9784 55.2373 24.0814 55.0828 24.2273C54.9369 24.3646 54.8639 24.5577 54.8639 24.8066C54.8639 25.1327 54.9755 25.3987 55.1986 25.6047C55.4218 25.8021 55.7308 25.9008 56.1255 25.9008C56.4431 25.9008 56.722 25.8279 56.9623 25.682C57.2026 25.5275 57.3914 25.3215 57.5288 25.064C57.6747 24.8066 57.7476 24.5105 57.7476 24.1758V22.6953C57.7476 22.2061 57.6446 21.8542 57.4386 21.6397C57.2327 21.4251 56.8937 21.3178 56.4216 21.3178C56.147 21.3178 55.8595 21.3522 55.5591 21.4208C55.2673 21.4895 54.9626 21.6054 54.6451 21.7684C54.4992 21.8371 54.3747 21.8585 54.2718 21.8328C54.1688 21.807 54.0872 21.7513 54.0272 21.6654C53.9671 21.571 53.9328 21.4723 53.9242 21.3693C53.9242 21.2578 53.9499 21.1505 54.0014 21.0475C54.0615 20.9445 54.1602 20.8673 54.2975 20.8158C54.6751 20.6355 55.0485 20.5068 55.4175 20.4296C55.7865 20.3523 56.1341 20.3137 56.4603 20.3137C57.0353 20.3137 57.5073 20.4038 57.8763 20.5841C58.254 20.7643 58.5329 21.0389 58.7131 21.408C58.8933 21.777 58.9835 22.2533 58.9835 22.8369V26.1454C58.9835 26.3514 58.932 26.5144 58.829 26.6346C58.726 26.7462 58.5758 26.802 58.3784 26.802C58.1896 26.802 58.0394 26.7462 57.9278 26.6346C57.8163 26.5144 57.7605 26.3514 57.7605 26.1454V25.3086H57.8763C57.8077 25.6262 57.6789 25.9008 57.4901 26.1325C57.3099 26.3557 57.0825 26.5273 56.8078 26.6475C56.5332 26.7676 56.2199 26.8277 55.8681 26.8277ZM63.7223 26.8277C63.0357 26.8277 62.4435 26.699 61.9458 26.4415C61.4566 26.1754 61.0747 25.8021 60.8 25.3215C60.534 24.8323 60.401 24.253 60.401 23.5836C60.401 22.9313 60.534 22.3606 60.8 21.8714C61.0661 21.3822 61.4308 21.0003 61.8943 20.7257C62.3577 20.451 62.8855 20.3137 63.4777 20.3137C63.9154 20.3137 64.3059 20.3867 64.6492 20.5326C64.9925 20.6699 65.2843 20.8759 65.5246 21.1505C65.7735 21.4165 65.958 21.7427 66.0782 22.1289C66.2069 22.5151 66.2713 22.9485 66.2713 23.4291C66.2713 23.575 66.2284 23.6866 66.1425 23.7638C66.0567 23.8325 65.928 23.8668 65.7563 23.8668H61.4308V23.0686H65.3959L65.177 23.2489C65.177 22.8198 65.1127 22.455 64.9839 22.1546C64.8638 21.8542 64.6792 21.6268 64.4304 21.4723C64.1901 21.3093 63.8897 21.2277 63.5292 21.2277C63.1258 21.2277 62.7825 21.3221 62.4993 21.5109C62.2247 21.6998 62.0144 21.9615 61.8685 22.2962C61.7226 22.6309 61.6497 23.0214 61.6497 23.4677V23.545C61.6497 24.3002 61.8256 24.8709 62.1775 25.2571C62.538 25.6348 63.0572 25.8236 63.7352 25.8236C63.9927 25.8236 64.263 25.7892 64.5462 25.7206C64.838 25.6519 65.1127 25.5361 65.3701 25.373C65.516 25.2872 65.6448 25.2486 65.7563 25.2571C65.8765 25.2657 65.9709 25.3043 66.0395 25.373C66.1168 25.4417 66.164 25.5275 66.1812 25.6305C66.1983 25.7335 66.1812 25.8407 66.1297 25.9523C66.0782 26.0553 65.9881 26.1497 65.8593 26.2355C65.5675 26.4329 65.2285 26.5831 64.8423 26.6861C64.4561 26.7805 64.0828 26.8277 63.7223 26.8277ZM69.8901 26.8277C69.5125 26.8277 69.122 26.7848 68.7186 26.699C68.3239 26.6131 67.9591 26.4672 67.6244 26.2613C67.5128 26.184 67.4356 26.0982 67.3927 26.0038C67.3498 25.9094 67.3326 25.815 67.3412 25.7206C67.3583 25.6176 67.397 25.5318 67.457 25.4631C67.5257 25.3859 67.6072 25.3387 67.7016 25.3215C67.8046 25.3043 67.9119 25.3258 68.0235 25.3859C68.3582 25.5747 68.68 25.7077 68.989 25.785C69.2979 25.8536 69.6026 25.8879 69.903 25.8879C70.3579 25.8879 70.7012 25.8064 70.9329 25.6433C71.1646 25.4803 71.2805 25.2614 71.2805 24.9868C71.2805 24.7637 71.2032 24.592 71.0487 24.4719C70.8943 24.3431 70.6625 24.2444 70.3536 24.1758L69.1306 23.9312C68.5985 23.8196 68.1951 23.6222 67.9205 23.339C67.6458 23.0558 67.5085 22.6953 67.5085 22.2576C67.5085 21.8628 67.6158 21.5195 67.8304 21.2277C68.0449 20.9359 68.3453 20.7128 68.7315 20.5583C69.1177 20.3952 69.564 20.3137 70.0704 20.3137C70.448 20.3137 70.8041 20.3609 71.1389 20.4553C71.4736 20.5497 71.7825 20.6913 72.0658 20.8801C72.1773 20.9402 72.2503 21.0218 72.2846 21.1247C72.3189 21.2191 72.3232 21.3136 72.2975 21.408C72.2803 21.5024 72.2374 21.5882 72.1687 21.6654C72.1001 21.7341 72.0143 21.777 71.9113 21.7942C71.8169 21.8027 71.7096 21.777 71.5894 21.7169C71.332 21.5539 71.0745 21.438 70.817 21.3693C70.5681 21.3007 70.3192 21.2664 70.0704 21.2664C69.6155 21.2664 69.2722 21.3522 69.0405 21.5238C68.8173 21.6869 68.7058 21.91 68.7058 22.1932C68.7058 22.4078 68.7744 22.5837 68.9117 22.7211C69.0491 22.8584 69.2636 22.9571 69.5554 23.0171L70.7784 23.2617C71.3363 23.3733 71.7568 23.5621 72.04 23.8282C72.3318 24.0942 72.4777 24.4547 72.4777 24.9096C72.4777 25.5017 72.2417 25.9695 71.7697 26.3128C71.2976 26.6561 70.6711 26.8277 69.8901 26.8277ZM76.5392 26.8277C76.0243 26.8277 75.5908 26.7376 75.239 26.5574C74.8871 26.3771 74.6253 26.1111 74.4537 25.7592C74.282 25.4073 74.1962 24.9782 74.1962 24.4719V21.4337H73.4238C73.2522 21.4337 73.1191 21.3908 73.0247 21.305C72.9303 21.2106 72.8831 21.0861 72.8831 20.9316C72.8831 20.7686 72.9303 20.6441 73.0247 20.5583C73.1191 20.4725 73.2522 20.4296 73.4238 20.4296H74.1962V19.1036C74.1962 18.889 74.252 18.726 74.3636 18.6144C74.4837 18.5028 74.6468 18.4471 74.8528 18.4471C75.0587 18.4471 75.2175 18.5028 75.3291 18.6144C75.4407 18.726 75.4964 18.889 75.4964 19.1036V20.4296H77.0026C77.1743 20.4296 77.3073 20.4725 77.4017 20.5583C77.4961 20.6441 77.5433 20.7686 77.5433 20.9316C77.5433 21.0861 77.4961 21.2106 77.4017 21.305C77.3073 21.3908 77.1743 21.4337 77.0026 21.4337H75.4964V24.3689C75.4964 24.8237 75.5908 25.167 75.7797 25.3987C75.9771 25.6305 76.2946 25.7463 76.7323 25.7463C76.8868 25.7463 77.0198 25.7335 77.1314 25.7077C77.2515 25.6734 77.3502 25.6519 77.4275 25.6433C77.5219 25.6433 77.5991 25.6777 77.6592 25.7463C77.7193 25.8064 77.7493 25.9266 77.7493 26.1068C77.7493 26.2355 77.7236 26.3557 77.6721 26.4672C77.6292 26.5788 77.5476 26.6518 77.4275 26.6861C77.3245 26.7204 77.1829 26.7505 77.0026 26.7762C76.831 26.8105 76.6765 26.8277 76.5392 26.8277ZM79.2199 26.802C79.0053 26.802 78.8423 26.7462 78.7307 26.6346C78.6191 26.5144 78.5633 26.3514 78.5633 26.1454V20.996C78.5633 20.7814 78.6191 20.6184 78.7307 20.5068C78.8423 20.3952 78.9968 20.3395 79.1942 20.3395C79.4001 20.3395 79.5546 20.3952 79.6576 20.5068C79.7692 20.6184 79.825 20.7814 79.825 20.996V21.9358H79.6962C79.8335 21.4208 80.0867 21.0303 80.4558 20.7643C80.8248 20.4982 81.2968 20.3437 81.8718 20.3008C82.0263 20.2923 82.1465 20.3309 82.2323 20.4167C82.3267 20.5025 82.3782 20.6355 82.3868 20.8158C82.4039 20.996 82.3653 21.1419 82.2709 21.2535C82.1765 21.3565 82.0306 21.4165 81.8332 21.4337L81.5886 21.4595C81.0308 21.5109 80.6059 21.6869 80.3141 21.9873C80.0223 22.2876 79.8764 22.6996 79.8764 23.2231V26.1454C79.8764 26.3514 79.8207 26.5144 79.7091 26.6346C79.6061 26.7462 79.443 26.802 79.2199 26.802ZM86.0069 26.8277C85.3719 26.8277 84.8226 26.6947 84.3591 26.4286C83.9043 26.1626 83.5481 25.785 83.2906 25.2958C83.0332 24.8066 82.9044 24.2315 82.9044 23.5707C82.9044 23.0643 82.9774 22.6138 83.1233 22.219C83.2692 21.8242 83.4752 21.4852 83.7412 21.202C84.0158 20.9102 84.342 20.6913 84.7196 20.5454C85.1058 20.391 85.5349 20.3137 86.0069 20.3137C86.6335 20.3137 87.1741 20.4467 87.629 20.7128C88.0925 20.9788 88.4529 21.3565 88.7104 21.8457C88.9679 22.3263 89.0966 22.9013 89.0966 23.5707C89.0966 24.0685 89.0236 24.5191 88.8777 24.9224C88.7318 25.3258 88.5216 25.6691 88.2469 25.9523C87.9809 26.2355 87.6548 26.4544 87.2686 26.6089C86.8909 26.7548 86.4704 26.8277 86.0069 26.8277ZM86.0069 25.8236C86.3588 25.8236 86.6678 25.7377 86.9338 25.5661C87.1999 25.3945 87.4059 25.1413 87.5518 24.8066C87.7063 24.4719 87.7835 24.0599 87.7835 23.5707C87.7835 22.8326 87.6204 22.2748 87.2943 21.8972C86.9682 21.5195 86.5391 21.3307 86.0069 21.3307C85.6465 21.3307 85.3332 21.4165 85.0672 21.5882C84.8011 21.7513 84.5909 22.0001 84.4364 22.3349C84.2905 22.6696 84.2175 23.0815 84.2175 23.5707C84.2175 24.3002 84.3806 24.8581 84.7067 25.2443C85.0329 25.6305 85.4663 25.8236 86.0069 25.8236ZM96.3457 26.8277C95.7964 26.8277 95.3115 26.699 94.891 26.4415C94.479 26.1754 94.1572 25.7978 93.9255 25.3086C93.6937 24.8109 93.5779 24.2315 93.5779 23.5707C93.5779 22.8927 93.6937 22.3134 93.9255 21.8328C94.1572 21.3522 94.479 20.9788 94.891 20.7128C95.3115 20.4467 95.7964 20.3137 96.3457 20.3137C96.895 20.3137 97.367 20.451 97.7618 20.7257C98.1651 20.9917 98.4355 21.3522 98.5728 21.807H98.4312V18.2025C98.4312 17.9879 98.487 17.8248 98.5985 17.7133C98.7101 17.6017 98.8689 17.5459 99.0749 17.5459C99.2808 17.5459 99.4396 17.6017 99.5512 17.7133C99.6713 17.8248 99.7314 17.9879 99.7314 18.2025V26.1454C99.7314 26.3514 99.6756 26.5144 99.5641 26.6346C99.4525 26.7462 99.2937 26.802 99.0877 26.802C98.8818 26.802 98.723 26.7462 98.6114 26.6346C98.4998 26.5144 98.4441 26.3514 98.4441 26.1454V25.0125L98.5857 25.2958C98.4484 25.7592 98.178 26.1325 97.7746 26.4158C97.3799 26.6904 96.9035 26.8277 96.3457 26.8277ZM96.6804 25.8236C97.0323 25.8236 97.3412 25.7377 97.6073 25.5661C97.8733 25.3945 98.0793 25.1413 98.2252 24.8066C98.3797 24.4719 98.4569 24.0599 98.4569 23.5707C98.4569 22.8326 98.2939 22.2748 97.9677 21.8972C97.6416 21.5195 97.2125 21.3307 96.6804 21.3307C96.3199 21.3307 96.0067 21.4165 95.7406 21.5882C95.4746 21.7513 95.2643 22.0001 95.1098 22.3349C94.9639 22.6696 94.891 23.0815 94.891 23.5707C94.891 24.3002 95.054 24.8581 95.3802 25.2443C95.7063 25.6305 96.1397 25.8236 96.6804 25.8236ZM104.505 26.8277C103.819 26.8277 103.226 26.699 102.729 26.4415C102.239 26.1754 101.858 25.8021 101.583 25.3215C101.317 24.8323 101.184 24.253 101.184 23.5836C101.184 22.9313 101.317 22.3606 101.583 21.8714C101.849 21.3822 102.214 21.0003 102.677 20.7257C103.141 20.451 103.668 20.3137 104.261 20.3137C104.698 20.3137 105.089 20.3867 105.432 20.5326C105.775 20.6699 106.067 20.8759 106.307 21.1505C106.556 21.4165 106.741 21.7427 106.861 22.1289C106.99 22.5151 107.054 22.9485 107.054 23.4291C107.054 23.575 107.011 23.6866 106.925 23.7638C106.84 23.8325 106.711 23.8668 106.539 23.8668H102.214V23.0686H106.179L105.96 23.2489C105.96 22.8198 105.896 22.455 105.767 22.1546C105.647 21.8542 105.462 21.6268 105.213 21.4723C104.973 21.3093 104.673 21.2277 104.312 21.2277C103.909 21.2277 103.565 21.3221 103.282 21.5109C103.008 21.6998 102.797 21.9615 102.651 22.2962C102.505 22.6309 102.433 23.0214 102.433 23.4677V23.545C102.433 24.3002 102.608 24.8709 102.96 25.2571C103.321 25.6348 103.84 25.8236 104.518 25.8236C104.776 25.8236 105.046 25.7892 105.329 25.7206C105.621 25.6519 105.896 25.5361 106.153 25.373C106.299 25.2872 106.428 25.2486 106.539 25.2571C106.659 25.2657 106.754 25.3043 106.822 25.373C106.9 25.4417 106.947 25.5275 106.964 25.6305C106.981 25.7335 106.964 25.8407 106.913 25.9523C106.861 26.0553 106.771 26.1497 106.642 26.2355C106.35 26.4329 106.011 26.5831 105.625 26.6861C105.239 26.7805 104.866 26.8277 104.505 26.8277ZM14.7961 42.8277C14.3584 42.8277 13.9636 42.7419 13.6117 42.5702C13.2684 42.3986 12.9981 42.1669 12.8007 41.8751C12.6033 41.5833 12.5046 41.2528 12.5046 40.8838C12.5046 40.4204 12.6204 40.0556 12.8522 39.7896C13.0925 39.5149 13.483 39.3218 14.0237 39.2102C14.5729 39.0901 15.311 39.03 16.2379 39.03H16.843V39.8282H16.2508C15.6328 39.8282 15.1436 39.8582 14.7832 39.9183C14.4227 39.9784 14.1653 40.0814 14.0108 40.2273C13.8649 40.3646 13.7919 40.5577 13.7919 40.8066C13.7919 41.1327 13.9035 41.3987 14.1266 41.6047C14.3498 41.8021 14.6587 41.9008 15.0535 41.9008C15.3711 41.9008 15.65 41.8279 15.8903 41.682C16.1306 41.5275 16.3194 41.3215 16.4567 41.064C16.6026 40.8066 16.6756 40.5105 16.6756 40.1758V38.6953C16.6756 38.2061 16.5726 37.8542 16.3666 37.6397C16.1607 37.4251 15.8217 37.3178 15.3496 37.3178C15.075 37.3178 14.7875 37.3522 14.4871 37.4208C14.1953 37.4895 13.8906 37.6054 13.5731 37.7684C13.4272 37.8371 13.3027 37.8585 13.1998 37.8328C13.0968 37.807 13.0152 37.7513 12.9552 37.6654C12.8951 37.571 12.8607 37.4723 12.8522 37.3693C12.8522 37.2578 12.8779 37.1505 12.9294 37.0475C12.9895 36.9445 13.0882 36.8673 13.2255 36.8158C13.6031 36.6355 13.9765 36.5068 14.3455 36.4296C14.7145 36.3523 15.0621 36.3137 15.3882 36.3137C15.9633 36.3137 16.4353 36.4038 16.8043 36.5841C17.182 36.7643 17.4609 37.0389 17.6411 37.408C17.8213 37.777 17.9115 38.2533 17.9115 38.8369V42.1454C17.9115 42.3514 17.86 42.5144 17.757 42.6346C17.654 42.7462 17.5038 42.802 17.3064 42.802C17.1176 42.802 16.9674 42.7462 16.8558 42.6346C16.7443 42.5144 16.6885 42.3514 16.6885 42.1454V41.3086H16.8043C16.7357 41.6262 16.6069 41.9008 16.4181 42.1325C16.2379 42.3557 16.0105 42.5273 15.7358 42.6475C15.4612 42.7676 15.1479 42.8277 14.7961 42.8277ZM20.3588 42.802C20.1443 42.802 19.9812 42.7462 19.8696 42.6346C19.7581 42.5144 19.7023 42.3514 19.7023 42.1454V36.996C19.7023 36.7814 19.7581 36.6184 19.8696 36.5068C19.9812 36.3952 20.1357 36.3395 20.3331 36.3395C20.5391 36.3395 20.6935 36.3952 20.7965 36.5068C20.9081 36.6184 20.9639 36.7814 20.9639 36.996V37.9358H20.8351C20.9725 37.4208 21.2256 37.0303 21.5947 36.7643C21.9637 36.4982 22.4358 36.3437 23.0108 36.3008C23.1652 36.2923 23.2854 36.3309 23.3712 36.4167C23.4656 36.5025 23.5171 36.6355 23.5257 36.8158C23.5429 36.996 23.5043 37.1419 23.4098 37.2535C23.3154 37.3565 23.1695 37.4165 22.9721 37.4337L22.7276 37.4595C22.1697 37.5109 21.7449 37.6869 21.4531 37.9873C21.1613 38.2876 21.0154 38.6996 21.0154 39.2231V42.1454C21.0154 42.3514 20.9596 42.5144 20.848 42.6346C20.745 42.7462 20.582 42.802 20.3588 42.802ZM27.8776 42.8277C27.3283 42.8277 26.852 42.6904 26.4486 42.4158C26.0452 42.1325 25.7749 41.7592 25.6376 41.2958L25.7792 41.064V42.1454C25.7792 42.3514 25.7234 42.5144 25.6118 42.6346C25.5002 42.7462 25.3458 42.802 25.1484 42.802C24.9424 42.802 24.7836 42.7462 24.6721 42.6346C24.5605 42.5144 24.5047 42.3514 24.5047 42.1454V34.2025C24.5047 33.9879 24.5605 33.8248 24.6721 33.7133C24.7836 33.6017 24.9424 33.5459 25.1484 33.5459C25.3543 33.5459 25.5131 33.6017 25.6247 33.7133C25.7448 33.8248 25.8049 33.9879 25.8049 34.2025V37.807H25.6504C25.7878 37.3522 26.0581 36.9917 26.4615 36.7257C26.8648 36.451 27.3369 36.3137 27.8776 36.3137C28.444 36.3137 28.9332 36.4467 29.3451 36.7128C29.7571 36.9788 30.0746 37.3522 30.2978 37.8328C30.5295 38.3134 30.6454 38.8927 30.6454 39.5707C30.6454 40.2315 30.5295 40.8109 30.2978 41.3086C30.0746 41.7978 29.7528 42.1754 29.3323 42.4415C28.9203 42.699 28.4354 42.8277 27.8776 42.8277ZM27.5557 41.8236C27.9162 41.8236 28.2294 41.7377 28.4955 41.5661C28.7615 41.3945 28.9675 41.1413 29.1134 40.8066C29.2593 40.4719 29.3323 40.0599 29.3323 39.5707C29.3323 38.8326 29.1692 38.2748 28.8431 37.8972C28.5255 37.5195 28.0964 37.3307 27.5557 37.3307C27.2038 37.3307 26.8906 37.4165 26.616 37.5882C26.3499 37.7513 26.1439 38.0001 25.998 38.3349C25.8521 38.6696 25.7792 39.0815 25.7792 39.5707C25.7792 40.3002 25.9422 40.8581 26.2684 41.2443C26.5945 41.6305 27.0236 41.8236 27.5557 41.8236ZM34.8398 42.8277C34.2047 42.8277 33.6554 42.6947 33.192 42.4286C32.7371 42.1626 32.381 41.785 32.1235 41.2958C31.866 40.8066 31.7373 40.2315 31.7373 39.5707C31.7373 39.0643 31.8102 38.6138 31.9561 38.219C32.102 37.8242 32.308 37.4852 32.5741 37.202C32.8487 36.9102 33.1748 36.6913 33.5525 36.5454C33.9387 36.391 34.3678 36.3137 34.8398 36.3137C35.4663 36.3137 36.007 36.4467 36.4619 36.7128C36.9253 36.9788 37.2858 37.3565 37.5432 37.8457C37.8007 38.3263 37.9294 38.9013 37.9294 39.5707C37.9294 40.0685 37.8565 40.5191 37.7106 40.9224C37.5647 41.3258 37.3544 41.6691 37.0798 41.9523C36.8137 42.2355 36.4876 42.4544 36.1014 42.6089C35.7238 42.7548 35.3033 42.8277 34.8398 42.8277ZM34.8398 41.8236C35.1917 41.8236 35.5006 41.7377 35.7667 41.5661C36.0328 41.3945 36.2387 41.1413 36.3846 40.8066C36.5391 40.4719 36.6164 40.0599 36.6164 39.5707C36.6164 38.8326 36.4533 38.2748 36.1272 37.8972C35.801 37.5195 35.3719 37.3307 34.8398 37.3307C34.4793 37.3307 34.1661 37.4165 33.9 37.5882C33.634 37.7513 33.4237 38.0001 33.2692 38.3349C33.1233 38.6696 33.0504 39.0815 33.0504 39.5707C33.0504 40.3002 33.2135 40.8581 33.5396 41.2443C33.8657 41.6305 34.2991 41.8236 34.8398 41.8236ZM41.4108 42.8277C40.7414 42.8277 40.235 42.6346 39.8918 42.2484C39.557 41.8536 39.3897 41.2872 39.3897 40.5491V34.2025C39.3897 33.9879 39.4455 33.8248 39.557 33.7133C39.6686 33.6017 39.8274 33.5459 40.0334 33.5459C40.2393 33.5459 40.3981 33.6017 40.5097 33.7133C40.6298 33.8248 40.6899 33.9879 40.6899 34.2025V40.4719C40.6899 40.901 40.7757 41.2228 40.9474 41.4374C41.1276 41.6433 41.3851 41.7463 41.7198 41.7463C41.797 41.7463 41.8657 41.7463 41.9258 41.7463C41.9858 41.7377 42.0459 41.7292 42.106 41.7206C42.209 41.712 42.2819 41.742 42.3248 41.8107C42.3678 41.8708 42.3892 41.9995 42.3892 42.1969C42.3892 42.3771 42.3506 42.5187 42.2733 42.6217C42.1961 42.7161 42.0717 42.7762 41.9 42.802C41.8228 42.8105 41.7412 42.8148 41.6554 42.8148C41.5696 42.8234 41.4881 42.8277 41.4108 42.8277ZM45.3329 42.8277C44.8952 42.8277 44.5004 42.7419 44.1486 42.5702C43.8053 42.3986 43.5349 42.1669 43.3375 41.8751C43.1401 41.5833 43.0414 41.2528 43.0414 40.8838C43.0414 40.4204 43.1573 40.0556 43.389 39.7896C43.6293 39.5149 44.0198 39.3218 44.5605 39.2102C45.1098 39.0901 45.8479 39.03 46.7748 39.03H47.3798V39.8282H46.7876C46.1697 39.8282 45.6805 39.8582 45.32 39.9183C44.9596 39.9784 44.7021 40.0814 44.5476 40.2273C44.4017 40.3646 44.3288 40.5577 44.3288 40.8066C44.3288 41.1327 44.4404 41.3987 44.6635 41.6047C44.8866 41.8021 45.1956 41.9008 45.5904 41.9008C45.9079 41.9008 46.1869 41.8279 46.4272 41.682C46.6675 41.5275 46.8563 41.3215 46.9936 41.064C47.1395 40.8066 47.2124 40.5105 47.2124 40.1758V38.6953C47.2124 38.2061 47.1095 37.8542 46.9035 37.6397C46.6975 37.4251 46.3585 37.3178 45.8865 37.3178C45.6118 37.3178 45.3243 37.3522 45.024 37.4208C44.7322 37.4895 44.4275 37.6054 44.1099 37.7684C43.964 37.8371 43.8396 37.8585 43.7366 37.8328C43.6336 37.807 43.5521 37.7513 43.492 37.6654C43.4319 37.571 43.3976 37.4723 43.389 37.3693C43.389 37.2578 43.4148 37.1505 43.4663 37.0475C43.5263 36.9445 43.625 36.8673 43.7624 36.8158C44.14 36.6355 44.5133 36.5068 44.8823 36.4296C45.2514 36.3523 45.599 36.3137 45.9251 36.3137C46.5001 36.3137 46.9721 36.4038 47.3412 36.5841C47.7188 36.7643 47.9977 37.0389 48.178 37.408C48.3582 37.777 48.4483 38.2533 48.4483 38.8369V42.1454C48.4483 42.3514 48.3968 42.5144 48.2938 42.6346C48.1908 42.7462 48.0406 42.802 47.8433 42.802C47.6544 42.802 47.5042 42.7462 47.3927 42.6346C47.2811 42.5144 47.2253 42.3514 47.2253 42.1454V41.3086H47.3412C47.2725 41.6262 47.1438 41.9008 46.955 42.1325C46.7748 42.3557 46.5473 42.5273 46.2727 42.6475C45.998 42.7676 45.6848 42.8277 45.3329 42.8277ZM52.6336 42.8277C52.0843 42.8277 51.5994 42.699 51.1789 42.4415C50.7669 42.1754 50.4451 41.7978 50.2134 41.3086C49.9817 40.8109 49.8658 40.2315 49.8658 39.5707C49.8658 38.8927 49.9817 38.3134 50.2134 37.8328C50.4451 37.3522 50.7669 36.9788 51.1789 36.7128C51.5994 36.4467 52.0843 36.3137 52.6336 36.3137C53.1829 36.3137 53.6549 36.451 54.0497 36.7257C54.4531 36.9917 54.7234 37.3522 54.8607 37.807H54.7191V34.2025C54.7191 33.9879 54.7749 33.8248 54.8865 33.7133C54.998 33.6017 55.1568 33.5459 55.3628 33.5459C55.5688 33.5459 55.7275 33.6017 55.8391 33.7133C55.9593 33.8248 56.0193 33.9879 56.0193 34.2025V42.1454C56.0193 42.3514 55.9635 42.5144 55.852 42.6346C55.7404 42.7462 55.5816 42.802 55.3757 42.802C55.1697 42.802 55.0109 42.7462 54.8993 42.6346C54.7878 42.5144 54.732 42.3514 54.732 42.1454V41.0125L54.8736 41.2958C54.7363 41.7592 54.4659 42.1325 54.0626 42.4158C53.6678 42.6904 53.1915 42.8277 52.6336 42.8277ZM52.9683 41.8236C53.3202 41.8236 53.6292 41.7377 53.8952 41.5661C54.1613 41.3945 54.3672 41.1413 54.5131 40.8066C54.6676 40.4719 54.7449 40.0599 54.7449 39.5707C54.7449 38.8326 54.5818 38.2748 54.2557 37.8972C53.9295 37.5195 53.5004 37.3307 52.9683 37.3307C52.6079 37.3307 52.2946 37.4165 52.0285 37.5882C51.7625 37.7513 51.5522 38.0001 51.3977 38.3349C51.2518 38.6696 51.1789 39.0815 51.1789 39.5707C51.1789 40.3002 51.342 40.8581 51.6681 41.2443C51.9942 41.6305 52.4276 41.8236 52.9683 41.8236ZM60.5742 42.8277C59.9391 42.8277 59.3899 42.6947 58.9264 42.4286C58.4716 42.1626 58.1154 41.785 57.8579 41.2958C57.6005 40.8066 57.4717 40.2315 57.4717 39.5707C57.4717 39.0643 57.5447 38.6138 57.6906 38.219C57.8365 37.8242 58.0425 37.4852 58.3085 37.202C58.5831 36.9102 58.9093 36.6913 59.2869 36.5454C59.6731 36.391 60.1022 36.3137 60.5742 36.3137C61.2007 36.3137 61.7414 36.4467 62.1963 36.7128C62.6597 36.9788 63.0202 37.3565 63.2777 37.8457C63.5351 38.3263 63.6639 38.9013 63.6639 39.5707C63.6639 40.0685 63.5909 40.5191 63.445 40.9224C63.2991 41.3258 63.0889 41.6691 62.8142 41.9523C62.5482 42.2355 62.222 42.4544 61.8358 42.6089C61.4582 42.7548 61.0377 42.8277 60.5742 42.8277ZM60.5742 41.8236C60.9261 41.8236 61.2351 41.7377 61.5011 41.5661C61.7672 41.3945 61.9732 41.1413 62.1191 40.8066C62.2735 40.4719 62.3508 40.0599 62.3508 39.5707C62.3508 38.8326 62.1877 38.2748 61.8616 37.8972C61.5355 37.5195 61.1063 37.3307 60.5742 37.3307C60.2138 37.3307 59.9005 37.4165 59.6345 37.5882C59.3684 37.7513 59.1582 38.0001 59.0037 38.3349C58.8578 38.6696 58.7848 39.0815 58.7848 39.5707C58.7848 40.3002 58.9479 40.8581 59.274 41.2443C59.6001 41.6305 60.0336 41.8236 60.5742 41.8236ZM70.7585 42.8277C70.2521 42.8277 69.8273 42.7333 69.484 42.5445C69.1493 42.3557 68.8961 42.0767 68.7245 41.7077C68.5614 41.3301 68.4799 40.8581 68.4799 40.2916V36.996C68.4799 36.7729 68.5357 36.6098 68.6472 36.5068C68.7588 36.3952 68.9176 36.3395 69.1236 36.3395C69.3295 36.3395 69.4883 36.3952 69.5999 36.5068C69.72 36.6098 69.7801 36.7729 69.7801 36.996V40.3045C69.7801 40.8109 69.8831 41.1842 70.0891 41.4245C70.295 41.6648 70.6212 41.785 71.0675 41.785C71.5566 41.785 71.9514 41.6219 72.2518 41.2958C72.5608 40.961 72.7153 40.5233 72.7153 39.9827V36.996C72.7153 36.7729 72.771 36.6098 72.8826 36.5068C72.9942 36.3952 73.1573 36.3395 73.3718 36.3395C73.5778 36.3395 73.7366 36.3952 73.8481 36.5068C73.9597 36.6098 74.0155 36.7729 74.0155 36.996V42.1454C74.0155 42.5831 73.8052 42.802 73.3847 42.802C73.1873 42.802 73.0328 42.7462 72.9212 42.6346C72.8097 42.5144 72.7539 42.3514 72.7539 42.1454V41.0512L72.9212 41.3344C72.7496 41.815 72.475 42.184 72.0973 42.4415C71.7197 42.699 71.2734 42.8277 70.7585 42.8277ZM76.5044 42.802C76.2898 42.802 76.1268 42.7462 76.0152 42.6346C75.9036 42.5144 75.8478 42.3514 75.8478 42.1454V36.996C75.8478 36.7814 75.9036 36.6184 76.0152 36.5068C76.1268 36.3952 76.2813 36.3395 76.4786 36.3395C76.6846 36.3395 76.8391 36.3952 76.9421 36.5068C77.0537 36.6184 77.1094 36.7814 77.1094 36.996V37.9358H76.9807C77.118 37.4208 77.3712 37.0303 77.7403 36.7643C78.1093 36.4982 78.5813 36.3437 79.1563 36.3008C79.3108 36.2923 79.431 36.3309 79.5168 36.4167C79.6112 36.5025 79.6627 36.6355 79.6713 36.8158C79.6884 36.996 79.6498 37.1419 79.5554 37.2535C79.461 37.3565 79.3151 37.4165 79.1177 37.4337L78.8731 37.4595C78.3153 37.5109 77.8904 37.6869 77.5986 37.9873C77.3068 38.2876 77.1609 38.6996 77.1609 39.2231V42.1454C77.1609 42.3514 77.1052 42.5144 76.9936 42.6346C76.8906 42.7462 76.7275 42.802 76.5044 42.802ZM84.0231 42.8277C83.4739 42.8277 82.9975 42.6904 82.5942 42.4158C82.1908 42.1325 81.9205 41.7592 81.7831 41.2958L81.9247 41.064V42.1454C81.9247 42.3514 81.869 42.5144 81.7574 42.6346C81.6458 42.7462 81.4913 42.802 81.2939 42.802C81.088 42.802 80.9292 42.7462 80.8176 42.6346C80.7061 42.5144 80.6503 42.3514 80.6503 42.1454V34.2025C80.6503 33.9879 80.7061 33.8248 80.8176 33.7133C80.9292 33.6017 81.088 33.5459 81.2939 33.5459C81.4999 33.5459 81.6587 33.6017 81.7703 33.7133C81.8904 33.8248 81.9505 33.9879 81.9505 34.2025V37.807H81.796C81.9333 37.3522 82.2037 36.9917 82.607 36.7257C83.0104 36.451 83.4824 36.3137 84.0231 36.3137C84.5896 36.3137 85.0788 36.4467 85.4907 36.7128C85.9027 36.9788 86.2202 37.3522 86.4433 37.8328C86.6751 38.3134 86.7909 38.8927 86.7909 39.5707C86.7909 40.2315 86.6751 40.8109 86.4433 41.3086C86.2202 41.7978 85.8984 42.1754 85.4778 42.4415C85.0659 42.699 84.581 42.8277 84.0231 42.8277ZM83.7013 41.8236C84.0617 41.8236 84.375 41.7377 84.6411 41.5661C84.9071 41.3945 85.1131 41.1413 85.259 40.8066C85.4049 40.4719 85.4778 40.0599 85.4778 39.5707C85.4778 38.8326 85.3148 38.2748 84.9886 37.8972C84.6711 37.5195 84.242 37.3307 83.7013 37.3307C83.3494 37.3307 83.0362 37.4165 82.7615 37.5882C82.4955 37.7513 82.2895 38.0001 82.1436 38.3349C81.9977 38.6696 81.9247 39.0815 81.9247 39.5707C81.9247 40.3002 82.0878 40.8581 82.4139 41.2443C82.7401 41.6305 83.1692 41.8236 83.7013 41.8236ZM90.2645 42.8277C89.8268 42.8277 89.432 42.7419 89.0801 42.5702C88.7368 42.3986 88.4665 42.1669 88.2691 41.8751C88.0717 41.5833 87.973 41.2528 87.973 40.8838C87.973 40.4204 88.0888 40.0556 88.3206 39.7896C88.5609 39.5149 88.9514 39.3218 89.4921 39.2102C90.0413 39.0901 90.7794 39.03 91.7063 39.03H92.3114V39.8282H91.7192C91.1012 39.8282 90.612 39.8582 90.2516 39.9183C89.8911 39.9784 89.6337 40.0814 89.4792 40.2273C89.3333 40.3646 89.2603 40.5577 89.2603 40.8066C89.2603 41.1327 89.3719 41.3987 89.595 41.6047C89.8182 41.8021 90.1271 41.9008 90.5219 41.9008C90.8395 41.9008 91.1184 41.8279 91.3587 41.682C91.599 41.5275 91.7878 41.3215 91.9251 41.064C92.071 40.8066 92.144 40.5105 92.144 40.1758V38.6953C92.144 38.2061 92.041 37.8542 91.835 37.6397C91.6291 37.4251 91.2901 37.3178 90.818 37.3178C90.5434 37.3178 90.2559 37.3522 89.9555 37.4208C89.6637 37.4895 89.359 37.6054 89.0415 37.7684C88.8956 37.8371 88.7711 37.8585 88.6681 37.8328C88.5652 37.807 88.4836 37.7513 88.4236 37.6654C88.3635 37.571 88.3291 37.4723 88.3206 37.3693C88.3206 37.2578 88.3463 37.1505 88.3978 37.0475C88.4579 36.9445 88.5566 36.8673 88.6939 36.8158C89.0715 36.6355 89.4449 36.5068 89.8139 36.4296C90.1829 36.3523 90.5305 36.3137 90.8566 36.3137C91.4317 36.3137 91.9037 36.4038 92.2727 36.5841C92.6504 36.7643 92.9293 37.0389 93.1095 37.408C93.2897 37.777 93.3799 38.2533 93.3799 38.8369V42.1454C93.3799 42.3514 93.3284 42.5144 93.2254 42.6346C93.1224 42.7462 92.9722 42.802 92.7748 42.802C92.586 42.802 92.4358 42.7462 92.3242 42.6346C92.2127 42.5144 92.1569 42.3514 92.1569 42.1454V41.3086H92.2727C92.2041 41.6262 92.0753 41.9008 91.8865 42.1325C91.7063 42.3557 91.4789 42.5273 91.2042 42.6475C90.9296 42.7676 90.6163 42.8277 90.2645 42.8277ZM95.8143 42.802C95.6084 42.802 95.4496 42.7462 95.338 42.6346C95.2265 42.5144 95.1707 42.3514 95.1707 42.1454V36.996C95.1707 36.7814 95.2265 36.6184 95.338 36.5068C95.4496 36.3952 95.6041 36.3395 95.8015 36.3395C96.0074 36.3395 96.1619 36.3952 96.2649 36.5068C96.3765 36.6184 96.4323 36.7814 96.4323 36.996V38.0001L96.2907 37.7684C96.4795 37.2878 96.7756 36.9273 97.1789 36.687C97.5823 36.4382 98.0458 36.3137 98.5693 36.3137C99.0671 36.3137 99.479 36.4081 99.8051 36.5969C100.14 36.7772 100.389 37.0561 100.552 37.4337C100.715 37.8027 100.796 38.2705 100.796 38.8369V42.1454C100.796 42.3514 100.741 42.5144 100.629 42.6346C100.517 42.7462 100.359 42.802 100.153 42.802C99.9382 42.802 99.7751 42.7462 99.6635 42.6346C99.552 42.5144 99.4962 42.3514 99.4962 42.1454V38.9142C99.4962 38.3735 99.3889 37.9787 99.1743 37.7298C98.9684 37.4809 98.6422 37.3565 98.1959 37.3565C97.6724 37.3565 97.2519 37.5195 96.9343 37.8457C96.6254 38.1718 96.4709 38.6095 96.4709 39.1588V42.1454C96.4709 42.5831 96.252 42.802 95.8143 42.802ZM105.317 42.8277C104.682 42.8277 104.133 42.6947 103.669 42.4286C103.215 42.1626 102.858 41.785 102.601 41.2958C102.343 40.8066 102.215 40.2315 102.215 39.5707C102.215 39.0643 102.288 38.6138 102.434 38.219C102.579 37.8242 102.785 37.4852 103.051 37.202C103.326 36.9102 103.652 36.6913 104.03 36.5454C104.416 36.391 104.845 36.3137 105.317 36.3137C105.944 36.3137 106.484 36.4467 106.939 36.7128C107.403 36.9788 107.763 37.3565 108.021 37.8457C108.278 38.3263 108.407 38.9013 108.407 39.5707C108.407 40.0685 108.334 40.5191 108.188 40.9224C108.042 41.3258 107.832 41.6691 107.557 41.9523C107.291 42.2355 106.965 42.4544 106.579 42.6089C106.201 42.7548 105.781 42.8277 105.317 42.8277ZM105.317 41.8236C105.669 41.8236 105.978 41.7377 106.244 41.5661C106.51 41.3945 106.716 41.1413 106.862 40.8066C107.017 40.4719 107.094 40.0599 107.094 39.5707C107.094 38.8326 106.931 38.2748 106.605 37.8972C106.278 37.5195 105.849 37.3307 105.317 37.3307C104.957 37.3307 104.643 37.4165 104.377 37.5882C104.111 37.7513 103.901 38.0001 103.747 38.3349C103.601 38.6696 103.528 39.0815 103.528 39.5707C103.528 40.3002 103.691 40.8581 104.017 41.2443C104.343 41.6305 104.777 41.8236 105.317 41.8236ZM113.699 39.8024C113.545 39.8024 113.416 39.7509 113.313 39.6479C113.21 39.545 113.158 39.4205 113.158 39.2746C113.158 39.1201 113.21 38.9957 113.313 38.9013C113.416 38.7983 113.545 38.7468 113.699 38.7468H116.531C116.677 38.7468 116.802 38.7983 116.905 38.9013C117.008 38.9957 117.059 39.1201 117.059 39.2746C117.059 39.4205 117.008 39.545 116.905 39.6479C116.802 39.7509 116.677 39.8024 116.531 39.8024H113.699ZM15.8131 57.802C15.5985 57.802 15.4312 57.7419 15.311 57.6217C15.1994 57.5016 15.1436 57.3342 15.1436 57.1197V49.756H12.4145C12.2342 49.756 12.0926 49.7088 11.9896 49.6144C11.8867 49.5114 11.8352 49.3698 11.8352 49.1896C11.8352 49.0094 11.8867 48.872 11.9896 48.7776C12.0926 48.6832 12.2342 48.636 12.4145 48.636H19.1988C19.3876 48.636 19.5335 48.6832 19.6365 48.7776C19.7395 48.872 19.791 49.0094 19.791 49.1896C19.791 49.3698 19.7395 49.5114 19.6365 49.6144C19.5335 49.7088 19.3876 49.756 19.1988 49.756H16.4696V57.1197C16.4696 57.3342 16.4138 57.5016 16.3023 57.6217C16.1993 57.7419 16.0362 57.802 15.8131 57.802ZM22.3937 57.8277C21.7587 57.8277 21.2094 57.6947 20.7459 57.4286C20.2911 57.1626 19.9349 56.785 19.6774 56.2958C19.42 55.8066 19.2912 55.2315 19.2912 54.5707C19.2912 54.0643 19.3642 53.6138 19.5101 53.219C19.656 52.8242 19.862 52.4852 20.128 52.202C20.4026 51.9102 20.7288 51.6913 21.1064 51.5454C21.4926 51.391 21.9217 51.3137 22.3937 51.3137C23.0203 51.3137 23.5609 51.4467 24.0158 51.7128C24.4793 51.9788 24.8397 52.3565 25.0972 52.8457C25.3547 53.3263 25.4834 53.9013 25.4834 54.5707C25.4834 55.0685 25.4104 55.5191 25.2645 55.9224C25.1186 56.3258 24.9084 56.6691 24.6337 56.9523C24.3677 57.2355 24.0416 57.4544 23.6553 57.6089C23.2777 57.7548 22.8572 57.8277 22.3937 57.8277ZM22.3937 56.8236C22.7456 56.8236 23.0546 56.7377 23.3206 56.5661C23.5867 56.3945 23.7927 56.1413 23.9386 55.8066C24.093 55.4719 24.1703 55.0599 24.1703 54.5707C24.1703 53.8326 24.0072 53.2748 23.6811 52.8972C23.355 52.5195 22.9258 52.3307 22.3937 52.3307C22.0333 52.3307 21.72 52.4165 21.454 52.5882C21.1879 52.7513 20.9777 53.0001 20.8232 53.3349C20.6773 53.6696 20.6043 54.0815 20.6043 54.5707C20.6043 55.3002 20.7674 55.8581 21.0935 56.2443C21.4196 56.6305 21.8531 56.8236 22.3937 56.8236ZM27.613 57.802C27.4071 57.802 27.2483 57.7462 27.1367 57.6346C27.0252 57.5144 26.9694 57.3514 26.9694 57.1454V51.996C26.9694 51.7814 27.0252 51.6184 27.1367 51.5068C27.2483 51.3952 27.4028 51.3395 27.6002 51.3395C27.8061 51.3395 27.9606 51.3952 28.0636 51.5068C28.1752 51.6184 28.231 51.7814 28.231 51.996V53.0516L28.0894 52.7684C28.261 52.3136 28.5271 51.9574 28.8875 51.6999C29.248 51.4424 29.6814 51.3137 30.1877 51.3137C30.7113 51.3137 31.1361 51.4382 31.4622 51.687C31.7884 51.9359 32.0115 52.3178 32.1316 52.8328H31.9514C32.1145 52.3608 32.3934 51.9917 32.7882 51.7257C33.183 51.451 33.6421 51.3137 34.1657 51.3137C34.6463 51.3137 35.0411 51.4081 35.35 51.5969C35.659 51.7772 35.8907 52.0561 36.0452 52.4337C36.1997 52.8027 36.2769 53.2705 36.2769 53.8369V57.1454C36.2769 57.3514 36.2168 57.5144 36.0967 57.6346C35.9851 57.7462 35.8263 57.802 35.6204 57.802C35.4144 57.802 35.2556 57.7462 35.144 57.6346C35.0325 57.5144 34.9767 57.3514 34.9767 57.1454V53.9013C34.9767 53.3692 34.8823 52.9787 34.6935 52.7298C34.5132 52.4809 34.2129 52.3565 33.7923 52.3565C33.3203 52.3565 32.947 52.5195 32.6723 52.8457C32.3977 53.1718 32.2604 53.6224 32.2604 54.1974V57.1454C32.2604 57.3514 32.2046 57.5144 32.093 57.6346C31.9815 57.7462 31.8227 57.802 31.6167 57.802C31.4107 57.802 31.2477 57.7462 31.1275 57.6346C31.0159 57.5144 30.9602 57.3514 30.9602 57.1454V53.9013C30.9602 53.3692 30.87 52.9787 30.6898 52.7298C30.5096 52.4809 30.2092 52.3565 29.7887 52.3565C29.3166 52.3565 28.9433 52.5195 28.6687 52.8457C28.4026 53.1718 28.2696 53.6224 28.2696 54.1974V57.1454C28.2696 57.5831 28.0507 57.802 27.613 57.802ZM40.824 57.8277C40.1889 57.8277 39.6396 57.6947 39.1762 57.4286C38.7213 57.1626 38.3651 56.785 38.1077 56.2958C37.8502 55.8066 37.7215 55.2315 37.7215 54.5707C37.7215 54.0643 37.7944 53.6138 37.9403 53.219C38.0862 52.8242 38.2922 52.4852 38.5582 52.202C38.8329 51.9102 39.159 51.6913 39.5366 51.5454C39.9228 51.391 40.3519 51.3137 40.824 51.3137C41.4505 51.3137 41.9912 51.4467 42.446 51.7128C42.9095 51.9788 43.2699 52.3565 43.5274 52.8457C43.7849 53.3263 43.9136 53.9013 43.9136 54.5707C43.9136 55.0685 43.8407 55.5191 43.6948 55.9224C43.5489 56.3258 43.3386 56.6691 43.064 56.9523C42.7979 57.2355 42.4718 57.4544 42.0856 57.6089C41.708 57.7548 41.2874 57.8277 40.824 57.8277ZM40.824 56.8236C41.1758 56.8236 41.4848 56.7377 41.7509 56.5661C42.0169 56.3945 42.2229 56.1413 42.3688 55.8066C42.5233 55.4719 42.6005 55.0599 42.6005 54.5707C42.6005 53.8326 42.4375 53.2748 42.1113 52.8972C41.7852 52.5195 41.3561 52.3307 40.824 52.3307C40.4635 52.3307 40.1503 52.4165 39.8842 52.5882C39.6182 52.7513 39.4079 53.0001 39.2534 53.3349C39.1075 53.6696 39.0346 54.0815 39.0346 54.5707C39.0346 55.3002 39.1976 55.8581 39.5238 56.2443C39.8499 56.6305 40.2833 56.8236 40.824 56.8236ZM49.5793 57.802C49.3647 57.802 49.1973 57.7419 49.0772 57.6217C48.9656 57.5016 48.9098 57.3342 48.9098 57.1197V49.2282C48.9098 49.0051 48.9656 48.8377 49.0772 48.7261C49.1973 48.606 49.3647 48.5459 49.5793 48.5459C49.7938 48.5459 49.9569 48.606 50.0685 48.7261C50.1886 48.8377 50.2487 49.0051 50.2487 49.2282V57.1197C50.2487 57.3342 50.1929 57.5016 50.0813 57.6217C49.9698 57.7419 49.8024 57.802 49.5793 57.802ZM53.0239 57.802C52.8094 57.802 52.642 57.7419 52.5219 57.6217C52.4103 57.5016 52.3545 57.3342 52.3545 57.1197V49.2282C52.3545 49.0051 52.4103 48.8377 52.5219 48.7261C52.642 48.606 52.8094 48.5459 53.0239 48.5459C53.2385 48.5459 53.4016 48.606 53.5131 48.7261C53.6333 48.8377 53.6934 49.0051 53.6934 49.2282V57.1197C53.6934 57.3342 53.6376 57.5016 53.526 57.6217C53.4144 57.7419 53.2471 57.802 53.0239 57.802ZM56.4686 57.802C56.254 57.802 56.0867 57.7419 55.9665 57.6217C55.855 57.5016 55.7992 57.3342 55.7992 57.1197V49.2282C55.7992 49.0051 55.855 48.8377 55.9665 48.7261C56.0867 48.606 56.254 48.5459 56.4686 48.5459C56.6832 48.5459 56.8462 48.606 56.9578 48.7261C57.0779 48.8377 57.138 49.0051 57.138 49.2282V57.1197C57.138 57.3342 57.0822 57.5016 56.9707 57.6217C56.8591 57.7419 56.6917 57.802 56.4686 57.802Z" fill="#38485C"/>
<path d="M16.7624 70.714C16.7624 71.3055 16.6546 71.8 16.4391 72.1975C16.2236 72.5926 15.9111 72.8907 15.5016 73.0919C15.0945 73.2906 14.6001 73.39 14.0182 73.39H12.5922V68.1386H14.1762C14.7102 68.1386 15.17 68.2368 15.5555 68.4331C15.941 68.6271 16.238 68.9156 16.4463 69.2988C16.657 69.6795 16.7624 70.1513 16.7624 70.714ZM16.1194 70.7355C16.1194 70.2638 16.0404 69.8747 15.8824 69.5682C15.7267 69.2617 15.4968 69.0342 15.1927 68.8857C14.891 68.7348 14.521 68.6594 14.0828 68.6594H13.2028V72.8656H13.9463C14.6695 72.8656 15.2119 72.6872 15.5735 72.3304C15.9375 71.9736 16.1194 71.442 16.1194 70.7355ZM19.3558 69.3814C19.691 69.3814 19.9784 69.4556 20.2178 69.6041C20.4573 69.7525 20.6405 69.9609 20.7674 70.2291C20.8943 70.4949 20.9578 70.8062 20.9578 71.163V71.533H18.2387C18.2459 71.9951 18.3608 72.3471 18.5835 72.589C18.8062 72.8308 19.1199 72.9518 19.5246 72.9518C19.7736 72.9518 19.994 72.929 20.1855 72.8835C20.3771 72.838 20.5758 72.771 20.7818 72.6824V73.2068C20.583 73.2954 20.3855 73.3601 20.1891 73.4008C19.9951 73.4415 19.7653 73.4618 19.4995 73.4618C19.1211 73.4618 18.7907 73.3852 18.5081 73.2319C18.2279 73.0763 18.01 72.8488 17.8544 72.5495C17.6987 72.2501 17.6209 71.8838 17.6209 71.4503C17.6209 71.0265 17.6915 70.6601 17.8328 70.3512C17.9765 70.0399 18.1776 69.8004 18.4362 69.6328C18.6973 69.4652 19.0038 69.3814 19.3558 69.3814ZM19.3486 69.8699C19.0301 69.8699 18.7763 69.9741 18.5871 70.1824C18.3979 70.3907 18.2854 70.6817 18.2495 71.0552H20.3328C20.3304 70.8206 20.2933 70.6146 20.2214 70.4374C20.152 70.2578 20.0454 70.1189 19.9018 70.0207C19.7581 69.9202 19.5737 69.8699 19.3486 69.8699ZM24.5174 72.3124C24.5174 72.5638 24.4539 72.7758 24.327 72.9482C24.2025 73.1182 24.0229 73.2463 23.7882 73.3325C23.556 73.4187 23.2782 73.4618 22.9549 73.4618C22.6795 73.4618 22.4413 73.4403 22.2401 73.3972C22.039 73.3541 21.863 73.293 21.7121 73.214V72.6644C21.8725 72.7434 22.0641 72.8153 22.2868 72.8799C22.5095 72.9446 22.737 72.9769 22.9693 72.9769C23.3093 72.9769 23.556 72.9218 23.7092 72.8117C23.8625 72.7015 23.9391 72.5519 23.9391 72.3627C23.9391 72.2549 23.908 72.1603 23.8457 72.0789C23.7858 71.9951 23.6841 71.9149 23.5404 71.8383C23.3967 71.7592 23.198 71.673 22.9441 71.5796C22.6927 71.4839 22.4748 71.3893 22.2904 71.2959C22.1084 71.2001 21.9671 71.084 21.8665 70.9475C21.7684 70.811 21.7193 70.6338 21.7193 70.4159C21.7193 70.083 21.8534 69.828 22.1216 69.6508C22.3922 69.4712 22.7466 69.3814 23.1848 69.3814C23.4219 69.3814 23.6434 69.4053 23.8493 69.4532C24.0576 69.4987 24.2516 69.561 24.4312 69.64L24.23 70.1177C24.0672 70.0483 23.8936 69.9896 23.7092 69.9417C23.5248 69.8938 23.3368 69.8699 23.1453 69.8699C22.8699 69.8699 22.658 69.9154 22.5095 70.0064C22.3634 70.0974 22.2904 70.2219 22.2904 70.3799C22.2904 70.5021 22.3239 70.6026 22.391 70.6817C22.4604 70.7607 22.5706 70.8349 22.7214 70.9044C22.8723 70.9738 23.071 71.0552 23.3177 71.1486C23.5643 71.2396 23.7775 71.3342 23.9571 71.4324C24.1367 71.5282 24.2743 71.6455 24.3701 71.7844C24.4683 71.9209 24.5174 72.0969 24.5174 72.3124ZM27.0533 73.4618C26.6989 73.4618 26.3864 73.3888 26.1158 73.2427C25.8452 73.0966 25.6345 72.8739 25.4836 72.5746C25.3328 72.2753 25.2573 71.8981 25.2573 71.4432C25.2573 70.9666 25.3364 70.5775 25.4944 70.2758C25.6548 69.9717 25.8752 69.7466 26.1553 69.6005C26.4355 69.4544 26.754 69.3814 27.1108 69.3814C27.3071 69.3814 27.4963 69.4017 27.6783 69.4424C27.8627 69.4808 28.0136 69.5298 28.1309 69.5897L27.9513 70.089C27.8316 70.0411 27.6927 69.998 27.5346 69.9597C27.379 69.9214 27.2329 69.9022 27.0964 69.9022C26.8234 69.9022 26.5959 69.9609 26.4139 70.0782C26.2343 70.1956 26.099 70.368 26.0081 70.5955C25.9195 70.8229 25.8752 71.1031 25.8752 71.436C25.8752 71.7545 25.9183 72.0262 26.0045 72.2513C26.0931 72.4764 26.2236 72.6488 26.396 72.7686C26.5708 72.8859 26.7887 72.9446 27.0497 72.9446C27.258 72.9446 27.446 72.923 27.6136 72.8799C27.7813 72.8344 27.9333 72.7817 28.0698 72.7219V73.2535C27.9381 73.3205 27.7909 73.372 27.628 73.4079C27.4676 73.4439 27.276 73.4618 27.0533 73.4618ZM30.4764 69.3886C30.9458 69.3886 31.2942 69.4939 31.5217 69.7047C31.7492 69.9154 31.8629 70.2518 31.8629 70.714V73.39H31.4283L31.3133 72.8081H31.2846C31.1745 72.9518 31.0595 73.0727 30.9398 73.1709C30.8201 73.2667 30.6812 73.3397 30.5231 73.39C30.3675 73.4379 30.1759 73.4618 29.9484 73.4618C29.7089 73.4618 29.4958 73.4199 29.309 73.3361C29.1247 73.2523 28.9786 73.1254 28.8708 72.9554C28.7655 72.7853 28.7128 72.5698 28.7128 72.3088C28.7128 71.9161 28.8684 71.6144 29.1797 71.4036C29.491 71.1929 29.9652 71.078 30.6021 71.0588L31.281 71.0301V70.7894C31.281 70.4494 31.208 70.2111 31.0619 70.0746C30.9158 69.9381 30.7099 69.8699 30.4441 69.8699C30.2382 69.8699 30.0418 69.8998 29.855 69.9597C29.6682 70.0195 29.491 70.0902 29.3234 70.1716L29.1402 69.719C29.3174 69.628 29.521 69.5502 29.7509 69.4855C29.9807 69.4209 30.2226 69.3886 30.4764 69.3886ZM31.2738 71.4503L30.674 71.4755C30.1831 71.4946 29.8371 71.5749 29.6359 71.7161C29.4348 71.8574 29.3342 72.0574 29.3342 72.316C29.3342 72.5411 29.4024 72.7075 29.5389 72.8153C29.6754 72.923 29.8562 72.9769 30.0813 72.9769C30.4309 72.9769 30.7171 72.8799 30.9398 72.686C31.1625 72.492 31.2738 72.2011 31.2738 71.8131V71.4503ZM34.8801 69.3814C34.9592 69.3814 35.0418 69.3862 35.128 69.3957C35.2142 69.4029 35.2908 69.4137 35.3579 69.4281L35.2824 69.9812C35.2178 69.9645 35.1459 69.9513 35.0669 69.9417C34.9879 69.9321 34.9137 69.9274 34.8442 69.9274C34.6862 69.9274 34.5365 69.9597 34.3952 70.0243C34.2563 70.0866 34.1342 70.1776 34.0288 70.2973C33.9235 70.4147 33.8409 70.5571 33.781 70.7248C33.7211 70.89 33.6912 71.0744 33.6912 71.2779V73.39H33.0914V69.4532H33.587L33.6517 70.1788H33.6768C33.7583 70.0327 33.8564 69.8998 33.9714 69.7801C34.0863 69.658 34.2192 69.561 34.3701 69.4891C34.5233 69.4173 34.6934 69.3814 34.8801 69.3814ZM37.2005 75.1572C36.6833 75.1572 36.2846 75.0602 36.0044 74.8663C35.7242 74.6747 35.5842 74.4053 35.5842 74.0581C35.5842 73.8114 35.662 73.6007 35.8176 73.4259C35.9757 73.2511 36.1936 73.135 36.4714 73.0775C36.3684 73.0296 36.2798 72.9578 36.2056 72.862C36.1337 72.7662 36.0978 72.656 36.0978 72.5315C36.0978 72.3878 36.1373 72.2621 36.2163 72.1544C36.2978 72.0442 36.4211 71.9388 36.5863 71.8383C36.3804 71.7545 36.2127 71.6132 36.0834 71.4144C35.9565 71.2133 35.8931 70.9798 35.8931 70.714C35.8931 70.4314 35.9517 70.1908 36.0691 69.992C36.1864 69.7909 36.3564 69.6376 36.5791 69.5322C36.8018 69.4269 37.0712 69.3742 37.3873 69.3742C37.4568 69.3742 37.5262 69.3778 37.5956 69.385C37.6675 69.3898 37.7357 69.3981 37.8004 69.4101C37.865 69.4197 37.9213 69.4317 37.9692 69.446H39.3198V69.8304L38.5942 69.9202C38.666 70.0136 38.7259 70.1261 38.7738 70.2578C38.8217 70.3895 38.8456 70.5356 38.8456 70.696C38.8456 71.0887 38.7127 71.4012 38.4469 71.6335C38.1811 71.8634 37.8159 71.9784 37.3514 71.9784C37.2412 71.9784 37.1287 71.9688 37.0137 71.9496C36.8964 72.0143 36.8066 72.0861 36.7444 72.1651C36.6845 72.2442 36.6546 72.3352 36.6546 72.4381C36.6546 72.5147 36.6773 72.5758 36.7228 72.6213C36.7707 72.6668 36.8389 72.7003 36.9275 72.7219C37.0161 72.741 37.1227 72.7506 37.2472 72.7506H37.9405C38.3691 72.7506 38.6972 72.8404 38.9247 73.02C39.1545 73.1996 39.2695 73.4618 39.2695 73.8066C39.2695 74.2425 39.0923 74.5765 38.7379 74.8088C38.3835 75.0411 37.871 75.1572 37.2005 75.1572ZM37.2185 74.6903C37.5442 74.6903 37.8136 74.6567 38.0267 74.5897C38.2422 74.525 38.4026 74.4304 38.508 74.3059C38.6158 74.1838 38.6696 74.0377 38.6696 73.8677C38.6696 73.7097 38.6337 73.5899 38.5619 73.5085C38.49 73.4295 38.3847 73.3768 38.2458 73.3505C38.1069 73.3217 37.9369 73.3074 37.7357 73.3074H37.0533C36.8761 73.3074 36.7216 73.3349 36.5899 73.39C36.4582 73.4451 36.3564 73.5265 36.2846 73.6342C36.2151 73.742 36.1804 73.8761 36.1804 74.0365C36.1804 74.2497 36.2702 74.4113 36.4498 74.5214C36.6294 74.634 36.8856 74.6903 37.2185 74.6903ZM37.3729 71.5437C37.6579 71.5437 37.8722 71.4719 38.0159 71.3282C38.1596 71.1845 38.2314 70.975 38.2314 70.6996C38.2314 70.4051 38.1584 70.1848 38.0123 70.0387C37.8662 69.8902 37.6507 69.816 37.3658 69.816C37.0928 69.816 36.882 69.8926 36.7336 70.0459C36.5875 70.1968 36.5145 70.4183 36.5145 70.7104C36.5145 70.9786 36.5887 71.1845 36.7372 71.3282C36.8856 71.4719 37.0976 71.5437 37.3729 71.5437ZM41.5683 69.3886C42.0377 69.3886 42.3861 69.4939 42.6136 69.7047C42.8411 69.9154 42.9548 70.2518 42.9548 70.714V73.39H42.5202L42.4052 72.8081H42.3765C42.2664 72.9518 42.1514 73.0727 42.0317 73.1709C41.912 73.2667 41.7731 73.3397 41.615 73.39C41.4594 73.4379 41.2678 73.4618 41.0403 73.4618C40.8008 73.4618 40.5877 73.4199 40.4009 73.3361C40.2166 73.2523 40.0705 73.1254 39.9627 72.9554C39.8574 72.7853 39.8047 72.5698 39.8047 72.3088C39.8047 71.9161 39.9603 71.6144 40.2716 71.4036C40.5829 71.1929 41.0571 71.078 41.694 71.0588L42.3729 71.0301V70.7894C42.3729 70.4494 42.2999 70.2111 42.1538 70.0746C42.0077 69.9381 41.8018 69.8699 41.536 69.8699C41.3301 69.8699 41.1337 69.8998 40.9469 69.9597C40.7601 70.0195 40.5829 70.0902 40.4153 70.1716L40.2321 69.719C40.4093 69.628 40.6129 69.5502 40.8428 69.4855C41.0726 69.4209 41.3145 69.3886 41.5683 69.3886ZM42.3657 71.4503L41.7659 71.4755C41.275 71.4946 40.929 71.5749 40.7278 71.7161C40.5267 71.8574 40.4261 72.0574 40.4261 72.316C40.4261 72.5411 40.4943 72.7075 40.6308 72.8153C40.7673 72.923 40.9481 72.9769 41.1732 72.9769C41.5228 72.9769 41.809 72.8799 42.0317 72.686C42.2544 72.492 42.3657 72.2011 42.3657 71.8131V71.4503ZM42.5525 67.7542V67.8261C42.5046 67.8955 42.4388 67.9793 42.355 68.0775C42.2735 68.1733 42.1825 68.2751 42.082 68.3828C41.9814 68.4882 41.8796 68.5888 41.7767 68.6845C41.6761 68.7803 41.5827 68.8629 41.4965 68.9324H41.0978V68.8462C41.1744 68.7552 41.2582 68.6462 41.3492 68.5193C41.4402 68.39 41.5288 68.2583 41.615 68.1242C41.7012 67.9877 41.7731 67.8644 41.8305 67.7542H42.5525ZM47.61 69.3814C47.9452 69.3814 48.2326 69.4556 48.472 69.6041C48.7115 69.7525 48.8947 69.9609 49.0216 70.2291C49.1485 70.4949 49.212 70.8062 49.212 71.163V71.533H46.4929C46.5001 71.9951 46.615 72.3471 46.8377 72.589C47.0604 72.8308 47.3741 72.9518 47.7788 72.9518C48.0278 72.9518 48.2481 72.929 48.4397 72.8835C48.6313 72.838 48.83 72.771 49.036 72.6824V73.2068C48.8372 73.2954 48.6397 73.3601 48.4433 73.4008C48.2493 73.4415 48.0194 73.4618 47.7536 73.4618C47.3753 73.4618 47.0448 73.3852 46.7623 73.2319C46.4821 73.0763 46.2642 72.8488 46.1085 72.5495C45.9529 72.2501 45.8751 71.8838 45.8751 71.4503C45.8751 71.0265 45.9457 70.6601 46.087 70.3512C46.2307 70.0399 46.4318 69.8004 46.6904 69.6328C46.9514 69.4652 47.258 69.3814 47.61 69.3814ZM47.6028 69.8699C47.2843 69.8699 47.0305 69.9741 46.8413 70.1824C46.6521 70.3907 46.5396 70.6817 46.5036 71.0552H48.587C48.5846 70.8206 48.5475 70.6146 48.4756 70.4374C48.4062 70.2578 48.2996 70.1189 48.1559 70.0207C48.0123 69.9202 47.8279 69.8699 47.6028 69.8699ZM50.8247 73.39H50.2249V67.8009H50.8247V73.39ZM54.5963 73.39H53.9964V67.8009H54.5963V73.39ZM56.4533 69.4532V73.39H55.8571V69.4532H56.4533ZM56.1624 67.9805C56.2605 67.9805 56.3444 68.0129 56.4138 68.0775C56.4856 68.1398 56.5216 68.2379 56.5216 68.372C56.5216 68.5038 56.4856 68.6019 56.4138 68.6666C56.3444 68.7312 56.2605 68.7636 56.1624 68.7636C56.0594 68.7636 55.9732 68.7312 55.9037 68.6666C55.8367 68.6019 55.8032 68.5038 55.8032 68.372C55.8032 68.2379 55.8367 68.1398 55.9037 68.0775C55.9732 68.0129 56.0594 67.9805 56.1624 67.9805ZM58.3139 67.8009V69.1982C58.3139 69.3586 58.3091 69.5143 58.2996 69.6651C58.2924 69.816 58.2864 69.9333 58.2816 70.0172H58.3139C58.4217 69.84 58.5773 69.6903 58.7809 69.5682C58.9844 69.446 59.2442 69.385 59.5603 69.385C60.0536 69.385 60.4463 69.5562 60.7385 69.8986C61.033 70.2387 61.1803 70.7451 61.1803 71.418C61.1803 71.861 61.1133 72.2346 60.9792 72.5387C60.8451 72.8428 60.6559 73.0727 60.4116 73.2283C60.1674 73.384 59.8788 73.4618 59.546 73.4618C59.2347 73.4618 58.9784 73.4044 58.7773 73.2894C58.5785 73.1721 58.4253 73.0296 58.3175 72.862H58.2708L58.1487 73.39H57.7177V67.8009H58.3139ZM59.4634 69.8843C59.1784 69.8843 58.9521 69.9405 58.7845 70.0531C58.6169 70.1632 58.4959 70.3309 58.4217 70.5559C58.3499 70.7786 58.3139 71.0612 58.3139 71.4036V71.436C58.3139 71.9317 58.3965 72.3112 58.5618 72.5746C58.727 72.8356 59.0275 72.9661 59.4634 72.9661C59.8297 72.9661 60.1039 72.832 60.2859 72.5638C60.4703 72.2956 60.5625 71.9125 60.5625 71.4144C60.5625 70.9068 60.4715 70.5248 60.2895 70.2686C60.1099 70.0124 59.8345 69.8843 59.4634 69.8843ZM64.0107 69.3814C64.0898 69.3814 64.1724 69.3862 64.2586 69.3957C64.3448 69.4029 64.4214 69.4137 64.4885 69.4281L64.413 69.9812C64.3484 69.9645 64.2766 69.9513 64.1975 69.9417C64.1185 69.9321 64.0443 69.9274 63.9748 69.9274C63.8168 69.9274 63.6671 69.9597 63.5258 70.0243C63.387 70.0866 63.2648 70.1776 63.1595 70.2973C63.0541 70.4147 62.9715 70.5571 62.9116 70.7248C62.8518 70.89 62.8218 71.0744 62.8218 71.2779V73.39H62.222V69.4532H62.7177L62.7823 70.1788H62.8075C62.8889 70.0327 62.987 69.8998 63.102 69.7801C63.2169 69.658 63.3498 69.561 63.5007 69.4891C63.654 69.4173 63.824 69.3814 64.0107 69.3814ZM68.6264 71.4144C68.6264 71.7377 68.5845 72.0262 68.5007 72.2801C68.4169 72.5339 68.2959 72.7482 68.1379 72.923C67.9798 73.0978 67.7883 73.2319 67.5632 73.3253C67.3405 73.4163 67.0878 73.4618 66.8053 73.4618C66.5419 73.4618 66.3 73.4163 66.0797 73.3253C65.8618 73.2319 65.6726 73.0978 65.5122 72.923C65.3541 72.7482 65.2308 72.5339 65.1422 72.2801C65.056 72.0262 65.0129 71.7377 65.0129 71.4144C65.0129 70.9834 65.0859 70.617 65.232 70.3153C65.3781 70.0112 65.5864 69.7801 65.857 69.622C66.13 69.4616 66.4545 69.3814 66.8304 69.3814C67.1896 69.3814 67.5033 69.4616 67.7715 69.622C68.0421 69.7825 68.2516 70.0148 68.4001 70.3189C68.551 70.6206 68.6264 70.9858 68.6264 71.4144ZM65.6307 71.4144C65.6307 71.7305 65.6726 72.0047 65.7564 72.237C65.8402 72.4693 65.9695 72.6488 66.1444 72.7758C66.3192 72.9027 66.5443 72.9661 66.8196 72.9661C67.0926 72.9661 67.3165 72.9027 67.4913 72.7758C67.6685 72.6488 67.799 72.4693 67.8829 72.237C67.9667 72.0047 68.0086 71.7305 68.0086 71.4144C68.0086 71.1007 67.9667 70.8301 67.8829 70.6026C67.799 70.3728 67.6697 70.1956 67.4949 70.071C67.3201 69.9465 67.0938 69.8843 66.816 69.8843C66.4066 69.8843 66.106 70.0195 65.9145 70.2901C65.7253 70.5607 65.6307 70.9355 65.6307 71.4144ZM72.969 73.4618C72.471 73.4618 72.0758 73.2918 71.7837 72.9518C71.4939 72.6117 71.3491 72.1065 71.3491 71.436C71.3491 70.7583 71.4975 70.247 71.7945 69.9022C72.0914 69.555 72.4865 69.3814 72.9798 69.3814C73.1881 69.3814 73.3701 69.4089 73.5258 69.464C73.6814 69.5191 73.8155 69.5933 73.9281 69.6867C74.0406 69.7777 74.1352 69.8819 74.2118 69.9992H74.255C74.2454 69.925 74.2358 69.8232 74.2262 69.6939C74.2166 69.5646 74.2118 69.4592 74.2118 69.3778V67.8009H74.8081V73.39H74.3268L74.237 72.8296H74.2118C74.1376 72.947 74.043 73.0535 73.9281 73.1493C73.8155 73.2451 73.6802 73.3217 73.5222 73.3792C73.3665 73.4343 73.1822 73.4618 72.969 73.4618ZM73.0624 72.9661C73.4839 72.9661 73.782 72.8464 73.9568 72.6069C74.1316 72.3675 74.219 72.0119 74.219 71.5401V71.4324C74.219 70.9319 74.1352 70.5476 73.9676 70.2794C73.8024 70.0112 73.5006 69.8771 73.0624 69.8771C72.6961 69.8771 72.4219 70.0184 72.2399 70.3009C72.0579 70.5811 71.9669 70.9642 71.9669 71.4503C71.9669 71.9341 72.0567 72.3076 72.2363 72.571C72.4183 72.8344 72.6937 72.9661 73.0624 72.9661ZM77.5883 69.3814C77.9235 69.3814 78.2109 69.4556 78.4503 69.6041C78.6898 69.7525 78.873 69.9609 78.9999 70.2291C79.1268 70.4949 79.1903 70.8062 79.1903 71.163V71.533H76.4712C76.4784 71.9951 76.5933 72.3471 76.816 72.589C77.0387 72.8308 77.3524 72.9518 77.7571 72.9518C78.0061 72.9518 78.2264 72.929 78.418 72.8835C78.6096 72.838 78.8083 72.771 79.0143 72.6824V73.2068C78.8155 73.2954 78.618 73.3601 78.4216 73.4008C78.2276 73.4415 77.9978 73.4618 77.7319 73.4618C77.3536 73.4618 77.0231 73.3852 76.7406 73.2319C76.4604 73.0763 76.2425 72.8488 76.0868 72.5495C75.9312 72.2501 75.8534 71.8838 75.8534 71.4503C75.8534 71.0265 75.924 70.6601 76.0653 70.3512C76.209 70.0399 76.4101 69.8004 76.6687 69.6328C76.9298 69.4652 77.2363 69.3814 77.5883 69.3814ZM77.5811 69.8699C77.2626 69.8699 77.0088 69.9741 76.8196 70.1824C76.6304 70.3907 76.5179 70.6817 76.482 71.0552H78.5653C78.5629 70.8206 78.5258 70.6146 78.4539 70.4374C78.3845 70.2578 78.2779 70.1189 78.1342 70.0207C77.9906 69.9202 77.8062 69.8699 77.5811 69.8699ZM80.8031 73.39H80.2032V67.8009H80.8031V73.39ZM85.4367 68.1386C86.1143 68.1386 86.6088 68.2715 86.9201 68.5373C87.2338 68.8007 87.3907 69.179 87.3907 69.6723C87.3907 69.895 87.3536 70.107 87.2793 70.3081C87.2075 70.5069 87.0901 70.6829 86.9273 70.8361C86.7645 70.987 86.5502 71.1067 86.2844 71.1953C86.0209 71.2815 85.6977 71.3246 85.3145 71.3246H84.6752V73.39H84.0645V68.1386H85.4367ZM85.3792 68.6594H84.6752V70.8002H85.2463C85.5815 70.8002 85.8605 70.7643 86.0832 70.6924C86.3083 70.6206 86.4771 70.5045 86.5897 70.344C86.7022 70.1812 86.7585 69.9657 86.7585 69.6975C86.7585 69.3479 86.6471 69.088 86.4244 68.918C86.2017 68.7456 85.8533 68.6594 85.3792 68.6594ZM88.9999 73.39H88.4V67.8009H88.9999V73.39ZM91.7333 69.3886C92.2027 69.3886 92.5511 69.4939 92.7786 69.7047C93.0061 69.9154 93.1198 70.2518 93.1198 70.714V73.39H92.6852L92.5702 72.8081H92.5415C92.4314 72.9518 92.3164 73.0727 92.1967 73.1709C92.0769 73.2667 91.9381 73.3397 91.78 73.39C91.6244 73.4379 91.4328 73.4618 91.2053 73.4618C90.9658 73.4618 90.7527 73.4199 90.5659 73.3361C90.3816 73.2523 90.2355 73.1254 90.1277 72.9554C90.0224 72.7853 89.9697 72.5698 89.9697 72.3088C89.9697 71.9161 90.1253 71.6144 90.4366 71.4036C90.7479 71.1929 91.2221 71.078 91.859 71.0588L92.5379 71.0301V70.7894C92.5379 70.4494 92.4649 70.2111 92.3188 70.0746C92.1727 69.9381 91.9668 69.8699 91.701 69.8699C91.4951 69.8699 91.2987 69.8998 91.1119 69.9597C90.9251 70.0195 90.7479 70.0902 90.5803 70.1716L90.3971 69.719C90.5743 69.628 90.7779 69.5502 91.0077 69.4855C91.2376 69.4209 91.4795 69.3886 91.7333 69.3886ZM92.5307 71.4503L91.9309 71.4755C91.44 71.4946 91.094 71.5749 90.8928 71.7161C90.6917 71.8574 90.5911 72.0574 90.5911 72.316C90.5911 72.5411 90.6593 72.7075 90.7958 72.8153C90.9323 72.923 91.1131 72.9769 91.3382 72.9769C91.6878 72.9769 91.974 72.8799 92.1967 72.686C92.4194 72.492 92.5307 72.2011 92.5307 71.8131V71.4503ZM96.2125 69.3814C96.6794 69.3814 97.0326 69.4963 97.2721 69.7262C97.5115 69.9537 97.6313 70.3201 97.6313 70.8253V73.39H97.0422V70.8649C97.0422 70.5368 96.9668 70.2913 96.8159 70.1285C96.6674 69.9657 96.4388 69.8843 96.1298 69.8843C95.694 69.8843 95.3875 70.0076 95.2103 70.2542C95.0331 70.5009 94.9445 70.8589 94.9445 71.3282V73.39H94.3482V69.4532H94.8296L94.9194 70.0207H94.9517C95.0355 69.8819 95.1421 69.7657 95.2714 69.6723C95.4007 69.5765 95.5456 69.5047 95.706 69.4568C95.8664 69.4065 96.0353 69.3814 96.2125 69.3814ZM105.045 69.3814C105.478 69.3814 105.805 69.4951 106.026 69.7226C106.246 69.9477 106.356 70.3105 106.356 70.811V73.39H105.767V70.8397C105.767 70.5212 105.698 70.283 105.559 70.1249C105.422 69.9645 105.219 69.8843 104.948 69.8843C104.567 69.8843 104.291 69.9944 104.118 70.2147C103.946 70.435 103.86 70.7595 103.86 71.1881V73.39H103.267V70.8397C103.267 70.6266 103.236 70.4494 103.174 70.3081C103.114 70.1668 103.023 70.0615 102.901 69.992C102.781 69.9202 102.629 69.8843 102.444 69.8843C102.183 69.8843 101.974 69.9381 101.816 70.0459C101.658 70.1536 101.543 70.3141 101.471 70.5272C101.402 70.7379 101.367 70.9978 101.367 71.3067V73.39H100.771V69.4532H101.252L101.342 70.01H101.374C101.453 69.8735 101.552 69.7585 101.672 69.6651C101.792 69.5718 101.926 69.5011 102.075 69.4532C102.223 69.4053 102.381 69.3814 102.549 69.3814C102.848 69.3814 103.098 69.4377 103.299 69.5502C103.503 69.6604 103.65 69.8292 103.741 70.0567H103.773C103.903 69.8292 104.08 69.6604 104.305 69.5502C104.53 69.4377 104.777 69.3814 105.045 69.3814ZM109.054 69.3886C109.523 69.3886 109.871 69.4939 110.099 69.7047C110.326 69.9154 110.44 70.2518 110.44 70.714V73.39H110.006L109.891 72.8081H109.862C109.752 72.9518 109.637 73.0727 109.517 73.1709C109.397 73.2667 109.258 73.3397 109.1 73.39C108.945 73.4379 108.753 73.4618 108.526 73.4618C108.286 73.4618 108.073 73.4199 107.886 73.3361C107.702 73.2523 107.556 73.1254 107.448 72.9554C107.343 72.7853 107.29 72.5698 107.29 72.3088C107.29 71.9161 107.446 71.6144 107.757 71.4036C108.068 71.1929 108.542 71.078 109.179 71.0588L109.858 71.0301V70.7894C109.858 70.4494 109.785 70.2111 109.639 70.0746C109.493 69.9381 109.287 69.8699 109.021 69.8699C108.815 69.8699 108.619 69.8998 108.432 69.9597C108.245 70.0195 108.068 70.0902 107.901 70.1716L107.717 69.719C107.895 69.628 108.098 69.5502 108.328 69.4855C108.558 69.4209 108.8 69.3886 109.054 69.3886ZM109.851 71.4503L109.251 71.4755C108.76 71.4946 108.414 71.5749 108.213 71.7161C108.012 71.8574 107.911 72.0574 107.911 72.316C107.911 72.5411 107.98 72.7075 108.116 72.8153C108.253 72.923 108.433 72.9769 108.659 72.9769C109.008 72.9769 109.294 72.8799 109.517 72.686C109.74 72.492 109.851 72.2011 109.851 71.8131V71.4503ZM113.184 69.3814C113.52 69.3814 113.807 69.4556 114.046 69.6041C114.286 69.7525 114.469 69.9609 114.596 70.2291C114.723 70.4949 114.786 70.8062 114.786 71.163V71.533H112.067C112.074 71.9951 112.189 72.3471 112.412 72.589C112.635 72.8308 112.949 72.9518 113.353 72.9518C113.602 72.9518 113.823 72.929 114.014 72.8835C114.206 72.838 114.404 72.771 114.61 72.6824V73.2068C114.412 73.2954 114.214 73.3601 114.018 73.4008C113.824 73.4415 113.594 73.4618 113.328 73.4618C112.95 73.4618 112.619 73.3852 112.337 73.2319C112.057 73.0763 111.839 72.8488 111.683 72.5495C111.527 72.2501 111.449 71.8838 111.449 71.4503C111.449 71.0265 111.52 70.6601 111.661 70.3512C111.805 70.0399 112.006 69.8004 112.265 69.6328C112.526 69.4652 112.832 69.3814 113.184 69.3814ZM113.177 69.8699C112.859 69.8699 112.605 69.9741 112.416 70.1824C112.227 70.3907 112.114 70.6817 112.078 71.0552H114.161C114.159 70.8206 114.122 70.6146 114.05 70.4374C113.981 70.2578 113.874 70.1189 113.73 70.0207C113.587 69.9202 113.402 69.8699 113.177 69.8699ZM118.346 72.3124C118.346 72.5638 118.283 72.7758 118.156 72.9482C118.031 73.1182 117.851 73.2463 117.617 73.3325C117.385 73.4187 117.107 73.4618 116.783 73.4618C116.508 73.4618 116.27 73.4403 116.069 73.3972C115.868 73.3541 115.692 73.293 115.541 73.214V72.6644C115.701 72.7434 115.893 72.8153 116.115 72.8799C116.338 72.9446 116.566 72.9769 116.798 72.9769C117.138 72.9769 117.385 72.9218 117.538 72.8117C117.691 72.7015 117.768 72.5519 117.768 72.3627C117.768 72.2549 117.737 72.1603 117.674 72.0789C117.614 71.9951 117.513 71.9149 117.369 71.8383C117.225 71.7592 117.027 71.673 116.773 71.5796C116.521 71.4839 116.303 71.3893 116.119 71.2959C115.937 71.2001 115.796 71.084 115.695 70.9475C115.597 70.811 115.548 70.6338 115.548 70.4159C115.548 70.083 115.682 69.828 115.95 69.6508C116.221 69.4712 116.575 69.3814 117.013 69.3814C117.25 69.3814 117.472 69.4053 117.678 69.4532C117.886 69.4987 118.08 69.561 118.26 69.64L118.059 70.1177C117.896 70.0483 117.722 69.9896 117.538 69.9417C117.353 69.8938 117.165 69.8699 116.974 69.8699C116.698 69.8699 116.487 69.9154 116.338 70.0064C116.192 70.0974 116.119 70.2219 116.119 70.3799C116.119 70.5021 116.153 70.6026 116.22 70.6817C116.289 70.7607 116.399 70.8349 116.55 70.9044C116.701 70.9738 116.9 71.0552 117.146 71.1486C117.393 71.2396 117.606 71.3342 117.786 71.4324C117.965 71.5282 118.103 71.6455 118.199 71.7844C118.297 71.9209 118.346 72.0969 118.346 72.3124ZM120.577 72.9733C120.675 72.9733 120.775 72.9649 120.878 72.9482C120.981 72.9314 121.065 72.9111 121.13 72.8871V73.3505C121.06 73.3816 120.963 73.4079 120.839 73.4295C120.717 73.451 120.597 73.4618 120.48 73.4618C120.271 73.4618 120.082 73.4259 119.912 73.3541C119.742 73.2798 119.606 73.1553 119.503 72.9805C119.402 72.8057 119.352 72.5638 119.352 72.2549V69.9202H118.791V69.6292L119.355 69.3957L119.592 68.5409H119.952V69.4532H121.105V69.9202H119.952V72.237C119.952 72.4836 120.008 72.668 120.12 72.7901C120.235 72.9123 120.387 72.9733 120.577 72.9733ZM123.716 69.3814C123.795 69.3814 123.878 69.3862 123.964 69.3957C124.05 69.4029 124.127 69.4137 124.194 69.4281L124.118 69.9812C124.054 69.9645 123.982 69.9513 123.903 69.9417C123.824 69.9321 123.749 69.9274 123.68 69.9274C123.522 69.9274 123.372 69.9597 123.231 70.0243C123.092 70.0866 122.97 70.1776 122.865 70.2973C122.759 70.4147 122.677 70.5571 122.617 70.7248C122.557 70.89 122.527 71.0744 122.527 71.2779V73.39H121.927V69.4532H122.423L122.487 70.1788H122.513C122.594 70.0327 122.692 69.8998 122.807 69.7801C122.922 69.658 123.055 69.561 123.206 69.4891C123.359 69.4173 123.529 69.3814 123.716 69.3814ZM128.332 71.4144C128.332 71.7377 128.29 72.0262 128.206 72.2801C128.122 72.5339 128.001 72.7482 127.843 72.923C127.685 73.0978 127.493 73.2319 127.268 73.3253C127.046 73.4163 126.793 73.4618 126.51 73.4618C126.247 73.4618 126.005 73.4163 125.785 73.3253C125.567 73.2319 125.378 73.0978 125.217 72.923C125.059 72.7482 124.936 72.5339 124.847 72.2801C124.761 72.0262 124.718 71.7377 124.718 71.4144C124.718 70.9834 124.791 70.617 124.937 70.3153C125.083 70.0112 125.292 69.7801 125.562 69.622C125.835 69.4616 126.16 69.3814 126.536 69.3814C126.895 69.3814 127.208 69.4616 127.477 69.622C127.747 69.7825 127.957 70.0148 128.105 70.3189C128.256 70.6206 128.332 70.9858 128.332 71.4144ZM125.336 71.4144C125.336 71.7305 125.378 72.0047 125.462 72.237C125.545 72.4693 125.675 72.6488 125.85 72.7758C126.024 72.9027 126.249 72.9661 126.525 72.9661C126.798 72.9661 127.022 72.9027 127.197 72.7758C127.374 72.6488 127.504 72.4693 127.588 72.237C127.672 72.0047 127.714 71.7305 127.714 71.4144C127.714 71.1007 127.672 70.8301 127.588 70.6026C127.504 70.3728 127.375 70.1956 127.2 70.071C127.025 69.9465 126.799 69.8843 126.521 69.8843C126.112 69.8843 125.811 70.0195 125.62 70.2901C125.43 70.5607 125.336 70.9355 125.336 71.4144ZM132.674 73.4618C132.176 73.4618 131.781 73.2918 131.489 72.9518C131.199 72.6117 131.054 72.1065 131.054 71.436C131.054 70.7583 131.203 70.247 131.5 69.9022C131.797 69.555 132.192 69.3814 132.685 69.3814C132.893 69.3814 133.075 69.4089 133.231 69.464C133.387 69.5191 133.521 69.5933 133.633 69.6867C133.746 69.7777 133.84 69.8819 133.917 69.9992H133.96C133.951 69.925 133.941 69.8232 133.931 69.6939C133.922 69.5646 133.917 69.4592 133.917 69.3778V67.8009H134.513V73.39H134.032L133.942 72.8296H133.917C133.843 72.947 133.748 73.0535 133.633 73.1493C133.521 73.2451 133.385 73.3217 133.227 73.3792C133.072 73.4343 132.887 73.4618 132.674 73.4618ZM132.768 72.9661C133.189 72.9661 133.487 72.8464 133.662 72.6069C133.837 72.3675 133.924 72.0119 133.924 71.5401V71.4324C133.924 70.9319 133.84 70.5476 133.673 70.2794C133.508 70.0112 133.206 69.8771 132.768 69.8771C132.401 69.8771 132.127 70.0184 131.945 70.3009C131.763 70.5811 131.672 70.9642 131.672 71.4503C131.672 71.9341 131.762 72.3076 131.941 72.571C132.123 72.8344 132.399 72.9661 132.768 72.9661ZM137.293 69.3814C137.629 69.3814 137.916 69.4556 138.156 69.6041C138.395 69.7525 138.578 69.9609 138.705 70.2291C138.832 70.4949 138.895 70.8062 138.895 71.163V71.533H136.176C136.184 71.9951 136.298 72.3471 136.521 72.589C136.744 72.8308 137.058 72.9518 137.462 72.9518C137.711 72.9518 137.932 72.929 138.123 72.8835C138.315 72.838 138.514 72.771 138.719 72.6824V73.2068C138.521 73.2954 138.323 73.3601 138.127 73.4008C137.933 73.4415 137.703 73.4618 137.437 73.4618C137.059 73.4618 136.728 73.3852 136.446 73.2319C136.166 73.0763 135.948 72.8488 135.792 72.5495C135.636 72.2501 135.559 71.8838 135.559 71.4503C135.559 71.0265 135.629 70.6601 135.77 70.3512C135.914 70.0399 136.115 69.8004 136.374 69.6328C136.635 69.4652 136.941 69.3814 137.293 69.3814ZM137.286 69.8699C136.968 69.8699 136.714 69.9741 136.525 70.1824C136.336 70.3907 136.223 70.6817 136.187 71.0552H138.27C138.268 70.8206 138.231 70.6146 138.159 70.4374C138.09 70.2578 137.983 70.1189 137.839 70.0207C137.696 69.9202 137.511 69.8699 137.286 69.8699ZM13.9751 80.3886C14.4444 80.3886 14.7928 80.4939 15.0203 80.7047C15.2478 80.9154 15.3616 81.2518 15.3616 81.714V84.39H14.9269L14.812 83.8081H14.7832C14.6731 83.9518 14.5582 84.0727 14.4384 84.1709C14.3187 84.2667 14.1798 84.3397 14.0218 84.39C13.8661 84.4379 13.6745 84.4618 13.447 84.4618C13.2076 84.4618 12.9945 84.4199 12.8077 84.3361C12.6233 84.2523 12.4772 84.1254 12.3695 83.9554C12.2641 83.7853 12.2114 83.5698 12.2114 83.3088C12.2114 82.9161 12.3671 82.6144 12.6784 82.4036C12.9897 82.1929 13.4638 82.078 14.1008 82.0588L14.7797 82.0301V81.7894C14.7797 81.4494 14.7066 81.2111 14.5605 81.0746C14.4145 80.9381 14.2085 80.8699 13.9427 80.8699C13.7368 80.8699 13.5404 80.8998 13.3537 80.9597C13.1669 81.0195 12.9897 81.0902 12.8221 81.1716L12.6389 80.719C12.8161 80.628 13.0196 80.5502 13.2495 80.4855C13.4794 80.4209 13.7212 80.3886 13.9751 80.3886ZM14.7725 82.4503L14.1726 82.4755C13.6817 82.4946 13.3357 82.5749 13.1345 82.7161C12.9334 82.8574 12.8328 83.0574 12.8328 83.316C12.8328 83.5411 12.9011 83.7075 13.0376 83.8153C13.1741 83.923 13.3549 83.9769 13.5799 83.9769C13.9296 83.9769 14.2157 83.8799 14.4384 83.686C14.6611 83.492 14.7725 83.2011 14.7725 82.8131V82.4503ZM18.3788 80.3814C18.4578 80.3814 18.5404 80.3862 18.6266 80.3957C18.7128 80.4029 18.7895 80.4137 18.8565 80.4281L18.7811 80.9812C18.7164 80.9645 18.6446 80.9513 18.5656 80.9417C18.4865 80.9321 18.4123 80.9274 18.3429 80.9274C18.1848 80.9274 18.0351 80.9597 17.8939 81.0243C17.755 81.0866 17.6329 81.1776 17.5275 81.2973C17.4221 81.4147 17.3395 81.5571 17.2796 81.7248C17.2198 81.89 17.1898 82.0744 17.1898 82.2779V84.39H16.59V80.4532H17.0857L17.1503 81.1788H17.1755C17.2569 81.0327 17.3551 80.8998 17.47 80.7801C17.585 80.658 17.7179 80.561 17.8687 80.4891C18.022 80.4173 18.192 80.3814 18.3788 80.3814ZM20.1963 78.8009V80.1982C20.1963 80.3586 20.1915 80.5143 20.1819 80.6651C20.1747 80.816 20.1688 80.9333 20.164 81.0172H20.1963C20.3041 80.84 20.4597 80.6903 20.6632 80.5682C20.8668 80.446 21.1266 80.385 21.4427 80.385C21.936 80.385 22.3287 80.5562 22.6209 80.8986C22.9154 81.2387 23.0627 81.7451 23.0627 82.418C23.0627 82.861 22.9956 83.2346 22.8615 83.5387C22.7274 83.8428 22.5382 84.0727 22.294 84.2283C22.0497 84.384 21.7612 84.4618 21.4283 84.4618C21.117 84.4618 20.8608 84.4044 20.6597 84.2894C20.4609 84.1721 20.3076 84.0296 20.1999 83.862H20.1532L20.0311 84.39H19.6V78.8009H20.1963ZM21.3457 80.8843C21.0608 80.8843 20.8345 80.9405 20.6668 81.0531C20.4992 81.1632 20.3783 81.3309 20.3041 81.5559C20.2322 81.7786 20.1963 82.0612 20.1963 82.4036V82.436C20.1963 82.9317 20.2789 83.3112 20.4441 83.5746C20.6094 83.8356 20.9099 83.9661 21.3457 83.9661C21.7121 83.9661 21.9863 83.832 22.1683 83.5638C22.3527 83.2956 22.4449 82.9125 22.4449 82.4144C22.4449 81.9068 22.3539 81.5248 22.1719 81.2686C21.9923 81.0124 21.7169 80.8843 21.3457 80.8843ZM27.4987 82.4144C27.4987 82.7377 27.4568 83.0262 27.373 83.2801C27.2892 83.5339 27.1682 83.7482 27.0102 83.923C26.8522 84.0978 26.6606 84.2319 26.4355 84.3253C26.2128 84.4163 25.9602 84.4618 25.6776 84.4618C25.4142 84.4618 25.1723 84.4163 24.952 84.3253C24.7341 84.2319 24.5449 84.0978 24.3845 83.923C24.2265 83.7482 24.1031 83.5339 24.0145 83.2801C23.9283 83.0262 23.8852 82.7377 23.8852 82.4144C23.8852 81.9834 23.9583 81.617 24.1043 81.3153C24.2504 81.0112 24.4587 80.7801 24.7293 80.622C25.0023 80.4616 25.3268 80.3814 25.7027 80.3814C26.0619 80.3814 26.3756 80.4616 26.6438 80.622C26.9144 80.7825 27.1239 81.0148 27.2724 81.3189C27.4233 81.6206 27.4987 81.9858 27.4987 82.4144ZM24.503 82.4144C24.503 82.7305 24.5449 83.0047 24.6287 83.237C24.7126 83.4693 24.8419 83.6488 25.0167 83.7758C25.1915 83.9027 25.4166 83.9661 25.692 83.9661C25.9649 83.9661 26.1888 83.9027 26.3637 83.7758C26.5409 83.6488 26.6714 83.4693 26.7552 83.237C26.839 83.0047 26.8809 82.7305 26.8809 82.4144C26.8809 82.1007 26.839 81.8301 26.7552 81.6026C26.6714 81.3728 26.5421 81.1956 26.3672 81.071C26.1924 80.9465 25.9661 80.8843 25.6884 80.8843C25.2789 80.8843 24.9784 81.0195 24.7868 81.2901C24.5976 81.5607 24.503 81.9355 24.503 82.4144ZM29.1294 84.39H28.5296V78.8009H29.1294V84.39ZM31.8629 80.3886C32.3323 80.3886 32.6807 80.4939 32.9082 80.7047C33.1357 80.9154 33.2494 81.2518 33.2494 81.714V84.39H32.8148L32.6998 83.8081H32.6711C32.5609 83.9518 32.446 84.0727 32.3263 84.1709C32.2065 84.2667 32.0677 84.3397 31.9096 84.39C31.754 84.4379 31.5624 84.4618 31.3349 84.4618C31.0954 84.4618 30.8823 84.4199 30.6955 84.3361C30.5111 84.2523 30.3651 84.1254 30.2573 83.9554C30.152 83.7853 30.0993 83.5698 30.0993 83.3088C30.0993 82.9161 30.2549 82.6144 30.5662 82.4036C30.8775 82.1929 31.3517 82.078 31.9886 82.0588L32.6675 82.0301V81.7894C32.6675 81.4494 32.5945 81.2111 32.4484 81.0746C32.3023 80.9381 32.0964 80.8699 31.8306 80.8699C31.6246 80.8699 31.4283 80.8998 31.2415 80.9597C31.0547 81.0195 30.8775 81.0902 30.7099 81.1716L30.5267 80.719C30.7039 80.628 30.9075 80.5502 31.1373 80.4855C31.3672 80.4209 31.6091 80.3886 31.8629 80.3886ZM32.6603 82.4503L32.0605 82.4755C31.5696 82.4946 31.2235 82.5749 31.0224 82.7161C30.8212 82.8574 30.7207 83.0574 30.7207 83.316C30.7207 83.5411 30.7889 83.7075 30.9254 83.8153C31.0619 83.923 31.2427 83.9769 31.4678 83.9769C31.8174 83.9769 32.1036 83.8799 32.3263 83.686C32.549 83.492 32.6603 83.2011 32.6603 82.8131V82.4503ZM35.8787 84.4618C35.3806 84.4618 34.9855 84.2918 34.6934 83.9518C34.4036 83.6117 34.2587 83.1065 34.2587 82.436C34.2587 81.7583 34.4072 81.247 34.7041 80.9022C35.0011 80.555 35.3962 80.3814 35.8895 80.3814C36.0978 80.3814 36.2798 80.4089 36.4354 80.464C36.5911 80.5191 36.7252 80.5933 36.8377 80.6867C36.9503 80.7777 37.0449 80.8819 37.1215 80.9992H37.1646C37.155 80.925 37.1455 80.8232 37.1359 80.6939C37.1263 80.5646 37.1215 80.4592 37.1215 80.3778V78.8009H37.7178V84.39H37.2364L37.1466 83.8296H37.1215C37.0473 83.947 36.9527 84.0535 36.8377 84.1493C36.7252 84.2451 36.5899 84.3217 36.4319 84.3792C36.2762 84.4343 36.0918 84.4618 35.8787 84.4618ZM35.9721 83.9661C36.3935 83.9661 36.6917 83.8464 36.8665 83.6069C37.0413 83.3675 37.1287 83.0119 37.1287 82.5401V82.4324C37.1287 81.9319 37.0449 81.5476 36.8773 81.2794C36.712 81.0112 36.4103 80.8771 35.9721 80.8771C35.6057 80.8771 35.3315 81.0184 35.1495 81.3009C34.9675 81.5811 34.8765 81.9642 34.8765 82.4503C34.8765 82.9341 34.9663 83.3076 35.1459 83.571C35.3279 83.8344 35.6033 83.9661 35.9721 83.9661ZM42.3765 82.4144C42.3765 82.7377 42.3346 83.0262 42.2508 83.2801C42.167 83.5339 42.0461 83.7482 41.888 83.923C41.73 84.0978 41.5384 84.2319 41.3133 84.3253C41.0906 84.4163 40.838 84.4618 40.5554 84.4618C40.292 84.4618 40.0501 84.4163 39.8298 84.3253C39.6119 84.2319 39.4227 84.0978 39.2623 83.923C39.1043 83.7482 38.9809 83.5339 38.8923 83.2801C38.8061 83.0262 38.763 82.7377 38.763 82.4144C38.763 81.9834 38.8361 81.617 38.9821 81.3153C39.1282 81.0112 39.3365 80.7801 39.6071 80.622C39.8801 80.4616 40.2046 80.3814 40.5805 80.3814C40.9397 80.3814 41.2534 80.4616 41.5216 80.622C41.7922 80.7825 42.0018 81.0148 42.1502 81.3189C42.3011 81.6206 42.3765 81.9858 42.3765 82.4144ZM39.3808 82.4144C39.3808 82.7305 39.4227 83.0047 39.5066 83.237C39.5904 83.4693 39.7197 83.6488 39.8945 83.7758C40.0693 83.9027 40.2944 83.9661 40.5698 83.9661C40.8428 83.9661 41.0667 83.9027 41.2415 83.7758C41.4187 83.6488 41.5492 83.4693 41.633 83.237C41.7168 83.0047 41.7587 82.7305 41.7587 82.4144C41.7587 82.1007 41.7168 81.8301 41.633 81.6026C41.5492 81.3728 41.4199 81.1956 41.245 81.071C41.0702 80.9465 40.844 80.8843 40.5662 80.8843C40.1567 80.8843 39.8562 81.0195 39.6646 81.2901C39.4754 81.5607 39.3808 81.9355 39.3808 82.4144ZM48.569 80.4532V84.39H48.0805L47.9943 83.8368H47.962C47.8806 83.9733 47.7752 84.0883 47.6459 84.1817C47.5166 84.275 47.3705 84.3445 47.2077 84.39C47.0472 84.4379 46.876 84.4618 46.694 84.4618C46.3827 84.4618 46.1217 84.4115 45.911 84.311C45.7002 84.2104 45.541 84.0547 45.4332 83.844C45.3279 83.6333 45.2752 83.3627 45.2752 83.0322V80.4532H45.8786V82.9891C45.8786 83.3172 45.9529 83.5626 46.1013 83.7255C46.2498 83.8859 46.4761 83.9661 46.7802 83.9661C47.0724 83.9661 47.3046 83.9111 47.4771 83.8009C47.6519 83.6908 47.7776 83.5291 47.8542 83.316C47.9308 83.1005 47.9692 82.8371 47.9692 82.5258V80.4532H48.569ZM51.6186 80.3814C51.6976 80.3814 51.7802 80.3862 51.8664 80.3957C51.9526 80.4029 52.0292 80.4137 52.0963 80.4281L52.0209 80.9812C51.9562 80.9645 51.8844 80.9513 51.8053 80.9417C51.7263 80.9321 51.6521 80.9274 51.5826 80.9274C51.4246 80.9274 51.2749 80.9597 51.1337 81.0243C50.9948 81.0866 50.8726 81.1776 50.7673 81.2973C50.6619 81.4147 50.5793 81.5571 50.5194 81.7248C50.4596 81.89 50.4296 82.0744 50.4296 82.2779V84.39H49.8298V80.4532H50.3255L50.3901 81.1788H50.4153C50.4967 81.0327 50.5949 80.8998 50.7098 80.7801C50.8247 80.658 50.9576 80.561 51.1085 80.4891C51.2618 80.4173 51.4318 80.3814 51.6186 80.3814ZM53.4361 78.8009V80.1982C53.4361 80.3586 53.4313 80.5143 53.4217 80.6651C53.4145 80.816 53.4085 80.9333 53.4038 81.0172H53.4361C53.5438 80.84 53.6995 80.6903 53.903 80.5682C54.1066 80.446 54.3664 80.385 54.6825 80.385C55.1758 80.385 55.5685 80.5562 55.8606 80.8986C56.1552 81.2387 56.3025 81.7451 56.3025 82.418C56.3025 82.861 56.2354 83.2346 56.1013 83.5387C55.9672 83.8428 55.778 84.0727 55.5338 84.2283C55.2895 84.384 55.001 84.4618 54.6681 84.4618C54.3568 84.4618 54.1006 84.4044 53.8994 84.2894C53.7007 84.1721 53.5474 84.0296 53.4397 83.862H53.393L53.2709 84.39H52.8398V78.8009H53.4361ZM54.5855 80.8843C54.3005 80.8843 54.0743 80.9405 53.9066 81.0531C53.739 81.1632 53.6181 81.3309 53.5438 81.5559C53.472 81.7786 53.4361 82.0612 53.4361 82.4036V82.436C53.4361 82.9317 53.5187 83.3112 53.6839 83.5746C53.8492 83.8356 54.1497 83.9661 54.5855 83.9661C54.9519 83.9661 55.2261 83.832 55.4081 83.5638C55.5924 83.2956 55.6846 82.9125 55.6846 82.4144C55.6846 81.9068 55.5936 81.5248 55.4117 81.2686C55.2321 81.0124 54.9567 80.8843 54.5855 80.8843ZM58.8168 80.3886C59.2862 80.3886 59.6346 80.4939 59.8621 80.7047C60.0895 80.9154 60.2033 81.2518 60.2033 81.714V84.39H59.7687L59.6537 83.8081H59.625C59.5148 83.9518 59.3999 84.0727 59.2802 84.1709C59.1604 84.2667 59.0215 84.3397 58.8635 84.39C58.7079 84.4379 58.5163 84.4618 58.2888 84.4618C58.0493 84.4618 57.8362 84.4199 57.6494 84.3361C57.465 84.2523 57.319 84.1254 57.2112 83.9554C57.1058 83.7853 57.0532 83.5698 57.0532 83.3088C57.0532 82.9161 57.2088 82.6144 57.5201 82.4036C57.8314 82.1929 58.3056 82.078 58.9425 82.0588L59.6214 82.0301V81.7894C59.6214 81.4494 59.5484 81.2111 59.4023 81.0746C59.2562 80.9381 59.0503 80.8699 58.7845 80.8699C58.5785 80.8699 58.3822 80.8998 58.1954 80.9597C58.0086 81.0195 57.8314 81.0902 57.6638 81.1716L57.4806 80.719C57.6578 80.628 57.8614 80.5502 58.0912 80.4855C58.3211 80.4209 58.563 80.3886 58.8168 80.3886ZM59.6142 82.4503L59.0144 82.4755C58.5235 82.4946 58.1774 82.5749 57.9763 82.7161C57.7751 82.8574 57.6746 83.0574 57.6746 83.316C57.6746 83.5411 57.7428 83.7075 57.8793 83.8153C58.0158 83.923 58.1966 83.9769 58.4217 83.9769C58.7713 83.9769 59.0575 83.8799 59.2802 83.686C59.5029 83.492 59.6142 83.2011 59.6142 82.8131V82.4503ZM63.296 80.3814C63.7629 80.3814 64.1161 80.4963 64.3556 80.7262C64.595 80.9537 64.7148 81.3201 64.7148 81.8253V84.39H64.1257V81.8649C64.1257 81.5368 64.0503 81.2913 63.8994 81.1285C63.7509 80.9657 63.5222 80.8843 63.2133 80.8843C62.7775 80.8843 62.471 81.0076 62.2938 81.2542C62.1166 81.5009 62.028 81.8589 62.028 82.3282V84.39H61.4317V80.4532H61.9131L62.0029 81.0207H62.0352C62.119 80.8819 62.2256 80.7657 62.3549 80.6723C62.4842 80.5765 62.629 80.5047 62.7895 80.4568C62.9499 80.4065 63.1187 80.3814 63.296 80.3814ZM69.3376 82.4144C69.3376 82.7377 69.2957 83.0262 69.2119 83.2801C69.1281 83.5339 69.0071 83.7482 68.8491 83.923C68.691 84.0978 68.4995 84.2319 68.2744 84.3253C68.0517 84.4163 67.799 84.4618 67.5165 84.4618C67.2531 84.4618 67.0112 84.4163 66.7909 84.3253C66.573 84.2319 66.3838 84.0978 66.2234 83.923C66.0653 83.7482 65.942 83.5339 65.8534 83.2801C65.7672 83.0262 65.7241 82.7377 65.7241 82.4144C65.7241 81.9834 65.7971 81.617 65.9432 81.3153C66.0893 81.0112 66.2976 80.7801 66.5682 80.622C66.8412 80.4616 67.1657 80.3814 67.5416 80.3814C67.9008 80.3814 68.2145 80.4616 68.4827 80.622C68.7533 80.7825 68.9628 81.0148 69.1113 81.3189C69.2622 81.6206 69.3376 81.9858 69.3376 82.4144ZM66.3419 82.4144C66.3419 82.7305 66.3838 83.0047 66.4676 83.237C66.5514 83.4693 66.6808 83.6488 66.8556 83.7758C67.0304 83.9027 67.2555 83.9661 67.5308 83.9661C67.8038 83.9661 68.0277 83.9027 68.2025 83.7758C68.3797 83.6488 68.5102 83.4693 68.5941 83.237C68.6779 83.0047 68.7198 82.7305 68.7198 82.4144C68.7198 82.1007 68.6779 81.8301 68.5941 81.6026C68.5102 81.3728 68.3809 81.1956 68.2061 81.071C68.0313 80.9465 67.805 80.8843 67.5273 80.8843C67.1178 80.8843 66.8172 81.0195 66.6257 81.2901C66.4365 81.5607 66.3419 81.9355 66.3419 82.4144ZM71.9453 82.6802V82.1486H73.7269V82.6802H71.9453ZM78.2636 84.39H77.6493V79.6774H75.997V79.1386H79.9087V79.6774H78.2636V84.39ZM84.0071 82.4144C84.0071 82.7377 83.9652 83.0262 83.8813 83.2801C83.7975 83.5339 83.6766 83.7482 83.5186 83.923C83.3605 84.0978 83.1689 84.2319 82.9438 84.3253C82.7211 84.4163 82.4685 84.4618 82.186 84.4618C81.9225 84.4618 81.6807 84.4163 81.4604 84.3253C81.2425 84.2319 81.0533 84.0978 80.8929 83.923C80.7348 83.7482 80.6115 83.5339 80.5229 83.2801C80.4367 83.0262 80.3936 82.7377 80.3936 82.4144C80.3936 81.9834 80.4666 81.617 80.6127 81.3153C80.7588 81.0112 80.9671 80.7801 81.2377 80.622C81.5107 80.4616 81.8351 80.3814 82.2111 80.3814C82.5703 80.3814 82.884 80.4616 83.1522 80.622C83.4228 80.7825 83.6323 81.0148 83.7808 81.3189C83.9316 81.6206 84.0071 81.9858 84.0071 82.4144ZM81.0114 82.4144C81.0114 82.7305 81.0533 83.0047 81.1371 83.237C81.2209 83.4693 81.3502 83.6488 81.525 83.7758C81.6998 83.9027 81.9249 83.9661 82.2003 83.9661C82.4733 83.9661 82.6972 83.9027 82.872 83.7758C83.0492 83.6488 83.1797 83.4693 83.2635 83.237C83.3473 83.0047 83.3892 82.7305 83.3892 82.4144C83.3892 82.1007 83.3473 81.8301 83.2635 81.6026C83.1797 81.3728 83.0504 81.1956 82.8756 81.071C82.7008 80.9465 82.4745 80.8843 82.1967 80.8843C81.7872 80.8843 81.4867 81.0195 81.2951 81.2901C81.106 81.5607 81.0114 81.9355 81.0114 82.4144ZM89.3124 80.3814C89.7458 80.3814 90.0727 80.4951 90.293 80.7226C90.5133 80.9477 90.6234 81.3105 90.6234 81.811V84.39H90.0343V81.8397C90.0343 81.5212 89.9649 81.283 89.826 81.1249C89.6895 80.9645 89.486 80.8843 89.2154 80.8843C88.8346 80.8843 88.5581 80.9944 88.3856 81.2147C88.2132 81.435 88.127 81.7595 88.127 82.1881V84.39H87.5343V81.8397C87.5343 81.6266 87.5032 81.4494 87.441 81.3081C87.3811 81.1668 87.2901 81.0615 87.168 80.992C87.0482 80.9202 86.8962 80.8843 86.7118 80.8843C86.4508 80.8843 86.2413 80.9381 86.0832 81.0459C85.9252 81.1536 85.8102 81.3141 85.7384 81.5272C85.6689 81.7379 85.6342 81.9978 85.6342 82.3067V84.39H85.038V80.4532H85.5193L85.6091 81.01H85.6414C85.7204 80.8735 85.8198 80.7585 85.9395 80.6651C86.0593 80.5718 86.1934 80.5011 86.3418 80.4532C86.4903 80.4053 86.6483 80.3814 86.816 80.3814C87.1153 80.3814 87.3655 80.4377 87.5667 80.5502C87.7702 80.6604 87.9175 80.8292 88.0085 81.0567H88.0408C88.1701 80.8292 88.3473 80.6604 88.5724 80.5502C88.7975 80.4377 89.0442 80.3814 89.3124 80.3814ZM95.2426 82.4144C95.2426 82.7377 95.2007 83.0262 95.1169 83.2801C95.0331 83.5339 94.9122 83.7482 94.7541 83.923C94.5961 84.0978 94.4045 84.2319 94.1794 84.3253C93.9567 84.4163 93.7041 84.4618 93.4215 84.4618C93.1581 84.4618 92.9163 84.4163 92.696 84.3253C92.478 84.2319 92.2889 84.0978 92.1284 83.923C91.9704 83.7482 91.8471 83.5339 91.7585 83.2801C91.6723 83.0262 91.6292 82.7377 91.6292 82.4144C91.6292 81.9834 91.7022 81.617 91.8483 81.3153C91.9943 81.0112 92.2027 80.7801 92.4733 80.622C92.7462 80.4616 93.0707 80.3814 93.4467 80.3814C93.8059 80.3814 94.1196 80.4616 94.3878 80.622C94.6584 80.7825 94.8679 81.0148 95.0164 81.3189C95.1672 81.6206 95.2426 81.9858 95.2426 82.4144ZM92.247 82.4144C92.247 82.7305 92.2889 83.0047 92.3727 83.237C92.4565 83.4693 92.5858 83.6488 92.7606 83.7758C92.9354 83.9027 93.1605 83.9661 93.4359 83.9661C93.7089 83.9661 93.9328 83.9027 94.1076 83.7758C94.2848 83.6488 94.4153 83.4693 94.4991 83.237C94.5829 83.0047 94.6248 82.7305 94.6248 82.4144C94.6248 82.1007 94.5829 81.8301 94.4991 81.6026C94.4153 81.3728 94.286 81.1956 94.1112 81.071C93.9364 80.9465 93.7101 80.8843 93.4323 80.8843C93.0228 80.8843 92.7223 81.0195 92.5307 81.2901C92.3416 81.5607 92.247 81.9355 92.247 82.4144ZM98.2742 84.39V79.1386H98.8849V84.39H98.2742ZM100.329 84.39V79.1386H100.939V84.39H100.329ZM102.383 84.39V79.1386H102.994V84.39H102.383Z" fill="#38485C"/>
<rect x="11.8738" y="103.103" width="134.252" height="22.0689" rx="3.67814" fill="#5C6A7A"/>
<path d="M59.839 112.988H59.2298V111.072C59.2298 110.861 59.0574 110.689 58.8467 110.689H57.3141C57.1034 110.689 56.931 110.861 56.931 111.072V112.988H56.3218C56.1111 112.988 55.9387 113.156 55.9348 113.367C55.9348 113.47 55.977 113.57 56.0498 113.643L57.8084 115.401C57.9578 115.551 58.1992 115.551 58.3486 115.401L60.1072 113.643C60.2566 113.493 60.2566 113.252 60.1072 113.103C60.0344 113.03 59.9386 112.991 59.8352 112.988H59.839ZM55.3984 116.819C55.3984 117.03 55.5709 117.202 55.7816 117.202H60.3793C60.59 117.202 60.7624 117.03 60.7624 116.819C60.7624 116.608 60.59 116.436 60.3793 116.436H55.7816C55.5709 116.436 55.3984 116.608 55.3984 116.819Z" fill="white"/>
<path d="M65.7171 116.137C65.535 116.137 65.3943 116.09 65.295 115.996C65.2012 115.897 65.1543 115.756 65.1543 115.574V110.865C65.1543 110.683 65.2012 110.545 65.295 110.452C65.3943 110.352 65.535 110.303 65.7171 110.303H67.3226C68.2991 110.303 69.0522 110.554 69.5819 111.056C70.1171 111.558 70.3846 112.278 70.3846 113.216C70.3846 113.685 70.3157 114.101 70.1778 114.465C70.0453 114.824 69.8467 115.127 69.5819 115.376C69.3226 115.624 69.0026 115.814 68.6219 115.947C68.2467 116.074 67.8136 116.137 67.3226 116.137H65.7171ZM66.2136 115.26H67.2564C67.5985 115.26 67.8936 115.218 68.1419 115.136C68.3957 115.047 68.6053 114.92 68.7709 114.755C68.9419 114.584 69.0688 114.371 69.1516 114.118C69.2343 113.858 69.2757 113.558 69.2757 113.216C69.2757 112.532 69.1074 112.021 68.7709 111.685C68.4343 111.348 67.9295 111.18 67.2564 111.18H66.2136V115.26ZM73.3533 116.22C72.8954 116.22 72.5009 116.134 72.1699 115.963C71.8389 115.792 71.5823 115.549 71.4002 115.235C71.2237 114.92 71.1354 114.548 71.1354 114.118C71.1354 113.698 71.2209 113.331 71.392 113.017C71.5685 112.703 71.8085 112.457 72.112 112.28C72.4209 112.098 72.7713 112.007 73.163 112.007C73.4499 112.007 73.7064 112.054 73.9326 112.148C74.1644 112.242 74.3602 112.377 74.5202 112.554C74.6857 112.73 74.8099 112.945 74.8926 113.199C74.9809 113.447 75.0251 113.729 75.0251 114.043C75.0251 114.143 74.9892 114.22 74.9175 114.275C74.8513 114.325 74.7547 114.349 74.6278 114.349H71.9713V113.754H74.2968L74.1644 113.878C74.1644 113.624 74.1258 113.411 74.0485 113.24C73.9768 113.069 73.8692 112.94 73.7258 112.851C73.5878 112.758 73.414 112.711 73.2044 112.711C72.9727 112.711 72.774 112.766 72.6085 112.876C72.4485 112.981 72.3244 113.133 72.2361 113.331C72.1533 113.525 72.112 113.756 72.112 114.027V114.085C72.112 114.537 72.2168 114.876 72.4264 115.103C72.6416 115.323 72.9561 115.434 73.3699 115.434C73.5133 115.434 73.6733 115.417 73.8499 115.384C74.032 115.345 74.203 115.282 74.363 115.194C74.4789 115.127 74.5809 115.1 74.6692 115.111C74.7575 115.116 74.8264 115.147 74.8761 115.202C74.9313 115.257 74.9644 115.326 74.9754 115.409C74.9864 115.486 74.9699 115.566 74.9257 115.649C74.8871 115.731 74.8182 115.803 74.7189 115.864C74.5258 115.985 74.3023 116.076 74.0485 116.137C73.8002 116.192 73.5685 116.22 73.3533 116.22ZM77.3257 116.22C77.0884 116.22 76.8374 116.195 76.5726 116.145C76.3077 116.096 76.0705 116.01 75.8609 115.889C75.7726 115.834 75.7091 115.77 75.6705 115.698C75.6374 115.621 75.6236 115.547 75.6291 115.475C75.6402 115.398 75.6677 115.331 75.7119 115.276C75.7615 115.221 75.8222 115.185 75.894 115.169C75.9712 115.152 76.054 115.166 76.1422 115.21C76.3629 115.315 76.5698 115.389 76.7629 115.434C76.956 115.472 77.1464 115.491 77.3339 115.491C77.5988 115.491 77.7946 115.447 77.9215 115.359C78.0539 115.265 78.1202 115.144 78.1202 114.995C78.1202 114.868 78.076 114.771 77.9877 114.705C77.905 114.634 77.7781 114.581 77.6071 114.548L76.7795 114.391C76.4374 114.325 76.1753 114.2 75.9933 114.018C75.8167 113.831 75.7284 113.591 75.7284 113.298C75.7284 113.034 75.8002 112.805 75.9436 112.611C76.0926 112.418 76.2967 112.269 76.556 112.165C76.8153 112.06 77.1133 112.007 77.4498 112.007C77.6926 112.007 77.9188 112.035 78.1284 112.09C78.3436 112.14 78.5505 112.22 78.7491 112.33C78.8319 112.374 78.887 112.432 78.9146 112.504C78.9477 112.576 78.956 112.65 78.9395 112.727C78.9229 112.799 78.8898 112.865 78.8401 112.926C78.7905 112.981 78.727 113.017 78.6498 113.034C78.5781 113.045 78.4953 113.028 78.4015 112.984C78.2305 112.896 78.065 112.832 77.905 112.794C77.7505 112.755 77.6015 112.736 77.4581 112.736C77.1877 112.736 76.9864 112.783 76.854 112.876C76.7271 112.97 76.6636 113.094 76.6636 113.249C76.6636 113.365 76.7022 113.461 76.7795 113.538C76.8567 113.616 76.9753 113.668 77.1353 113.696L77.9629 113.853C78.3215 113.919 78.5919 114.04 78.7739 114.217C78.9615 114.394 79.0553 114.631 79.0553 114.929C79.0553 115.331 78.8981 115.649 78.5836 115.88C78.2691 116.107 77.8498 116.22 77.3257 116.22ZM81.7556 116.22C81.3307 116.22 80.9611 116.134 80.6466 115.963C80.3321 115.787 80.0894 115.538 79.9183 115.218C79.7473 114.898 79.6618 114.523 79.6618 114.093C79.6618 113.767 79.7087 113.478 79.8025 113.224C79.9018 112.965 80.0425 112.747 80.2245 112.57C80.4066 112.388 80.6273 112.25 80.8866 112.156C81.1459 112.057 81.4356 112.007 81.7556 112.007C81.9376 112.007 82.1335 112.032 82.3431 112.082C82.5583 112.132 82.7597 112.214 82.9473 112.33C83.0356 112.385 83.0935 112.452 83.1211 112.529C83.1487 112.606 83.1542 112.686 83.1376 112.769C83.1211 112.846 83.0852 112.915 83.03 112.976C82.9804 113.031 82.9169 113.067 82.8397 113.083C82.7625 113.094 82.6769 113.075 82.5831 113.025C82.4618 112.954 82.3376 112.901 82.2107 112.868C82.0838 112.829 81.9625 112.81 81.8466 112.81C81.6645 112.81 81.5045 112.84 81.3666 112.901C81.2287 112.956 81.1101 113.039 81.0107 113.149C80.9169 113.254 80.8452 113.387 80.7956 113.547C80.7459 113.707 80.7211 113.891 80.7211 114.101C80.7211 114.509 80.8176 114.832 81.0107 115.069C81.2094 115.301 81.488 115.417 81.8466 115.417C81.9625 115.417 82.0811 115.4 82.2025 115.367C82.3294 115.334 82.4563 115.282 82.5831 115.21C82.6769 115.16 82.7597 115.144 82.8314 115.16C82.9087 115.177 82.9721 115.216 83.0218 115.276C83.0714 115.331 83.1018 115.4 83.1128 115.483C83.1238 115.56 83.1128 115.638 83.0797 115.715C83.0521 115.792 82.9969 115.856 82.9142 115.905C82.7321 116.016 82.539 116.096 82.3349 116.145C82.1307 116.195 81.9376 116.22 81.7556 116.22ZM85.0969 116.22C84.8045 116.22 84.5424 116.165 84.3107 116.054C84.0845 115.938 83.9052 115.784 83.7728 115.591C83.6459 115.398 83.5825 115.18 83.5825 114.937C83.5825 114.639 83.6597 114.405 83.8142 114.234C83.9687 114.057 84.2197 113.93 84.5673 113.853C84.9149 113.776 85.3811 113.737 85.9659 113.737H86.3797V114.333H85.9742C85.6321 114.333 85.359 114.349 85.1549 114.383C84.9507 114.416 84.8045 114.474 84.7162 114.556C84.6335 114.634 84.5921 114.744 84.5921 114.887C84.5921 115.069 84.6556 115.218 84.7824 115.334C84.9093 115.45 85.0859 115.508 85.3121 115.508C85.4942 115.508 85.6542 115.467 85.7921 115.384C85.9355 115.296 86.0486 115.177 86.1314 115.028C86.2142 114.879 86.2555 114.708 86.2555 114.515V113.563C86.2555 113.287 86.1949 113.089 86.0735 112.967C85.9521 112.846 85.748 112.785 85.4611 112.785C85.3011 112.785 85.1273 112.805 84.9397 112.843C84.7576 112.882 84.5645 112.948 84.3604 113.042C84.2556 113.091 84.1618 113.105 84.079 113.083C84.0018 113.061 83.9411 113.017 83.8969 112.951C83.8528 112.879 83.8307 112.802 83.8307 112.719C83.8307 112.636 83.8528 112.556 83.8969 112.479C83.9411 112.396 84.0156 112.336 84.1204 112.297C84.3742 112.192 84.6169 112.118 84.8487 112.074C85.0859 112.029 85.3011 112.007 85.4942 112.007C85.8914 112.007 86.2169 112.068 86.4707 112.189C86.73 112.311 86.9231 112.496 87.05 112.744C87.1769 112.987 87.2404 113.301 87.2404 113.687V115.674C87.2404 115.845 87.199 115.977 87.1162 116.071C87.0335 116.159 86.9149 116.203 86.7604 116.203C86.6059 116.203 86.4845 116.159 86.3962 116.071C86.3135 115.977 86.2721 115.845 86.2721 115.674V115.276H86.3383C86.2997 115.469 86.2224 115.638 86.1066 115.781C85.9962 115.919 85.8555 116.027 85.6845 116.104C85.5135 116.181 85.3176 116.22 85.0969 116.22ZM88.82 116.203C88.649 116.203 88.5166 116.159 88.4228 116.071C88.3345 115.977 88.2904 115.845 88.2904 115.674V112.545C88.2904 112.374 88.3345 112.245 88.4228 112.156C88.5111 112.068 88.6352 112.024 88.7952 112.024C88.9552 112.024 89.0793 112.068 89.1676 112.156C89.2559 112.245 89.3 112.374 89.3 112.545V113.067H89.2173C89.2945 112.736 89.4462 112.485 89.6724 112.314C89.8986 112.143 90.1993 112.04 90.5745 112.007C90.6904 111.996 90.7814 112.027 90.8476 112.098C90.9193 112.165 90.9607 112.269 90.9717 112.413C90.9828 112.551 90.9497 112.664 90.8724 112.752C90.8007 112.835 90.6904 112.885 90.5414 112.901L90.3593 112.918C90.0228 112.951 89.769 113.056 89.5979 113.232C89.4269 113.403 89.3414 113.646 89.3414 113.96V115.674C89.3414 115.845 89.2973 115.977 89.209 116.071C89.1207 116.159 88.991 116.203 88.82 116.203ZM93.3534 117.709C93.0555 117.709 92.7658 117.682 92.4845 117.627C92.2086 117.571 91.9576 117.486 91.7314 117.37C91.6265 117.315 91.5548 117.249 91.5162 117.171C91.4831 117.094 91.472 117.014 91.4831 116.931C91.4996 116.854 91.5327 116.785 91.5824 116.725C91.6376 116.664 91.7038 116.623 91.781 116.6C91.8583 116.578 91.9383 116.589 92.021 116.634C92.2638 116.755 92.4927 116.832 92.7079 116.865C92.9286 116.904 93.1162 116.923 93.2707 116.923C93.6403 116.923 93.9162 116.832 94.0982 116.65C94.2858 116.474 94.3796 116.209 94.3796 115.856V115.111H94.4541C94.3713 115.392 94.1976 115.618 93.9327 115.789C93.6734 115.955 93.3782 116.038 93.0472 116.038C92.6831 116.038 92.3658 115.955 92.0955 115.789C91.8252 115.618 91.6155 115.381 91.4665 115.078C91.3176 114.774 91.2431 114.421 91.2431 114.018C91.2431 113.715 91.2845 113.442 91.3672 113.199C91.4555 112.951 91.5769 112.738 91.7314 112.562C91.8914 112.385 92.0817 112.25 92.3024 112.156C92.5286 112.057 92.7769 112.007 93.0472 112.007C93.3893 112.007 93.6872 112.093 93.941 112.264C94.2003 112.429 94.3686 112.65 94.4458 112.926L94.3631 113.133V112.545C94.3631 112.374 94.4072 112.245 94.4955 112.156C94.5893 112.068 94.7162 112.024 94.8762 112.024C95.0417 112.024 95.1686 112.068 95.2569 112.156C95.3451 112.245 95.3893 112.374 95.3893 112.545V115.731C95.3893 116.388 95.2155 116.882 94.8679 117.213C94.5203 117.544 94.0155 117.709 93.3534 117.709ZM93.3286 115.251C93.5438 115.251 93.7286 115.202 93.8831 115.103C94.0376 115.003 94.1562 114.863 94.2389 114.68C94.3272 114.493 94.3713 114.272 94.3713 114.018C94.3713 113.638 94.2776 113.34 94.09 113.125C93.9024 112.904 93.6486 112.794 93.3286 112.794C93.1134 112.794 92.9286 112.843 92.7741 112.943C92.6196 113.042 92.4983 113.183 92.41 113.365C92.3272 113.547 92.2858 113.765 92.2858 114.018C92.2858 114.399 92.3796 114.7 92.5672 114.92C92.7548 115.141 93.0086 115.251 93.3286 115.251ZM97.7935 116.22C97.5011 116.22 97.2391 116.165 97.0073 116.054C96.7811 115.938 96.6018 115.784 96.4694 115.591C96.3425 115.398 96.2791 115.18 96.2791 114.937C96.2791 114.639 96.3563 114.405 96.5108 114.234C96.6653 114.057 96.9163 113.93 97.2639 113.853C97.6115 113.776 98.0777 113.737 98.6625 113.737H99.0763V114.333H98.6708C98.3287 114.333 98.0556 114.349 97.8515 114.383C97.6473 114.416 97.5011 114.474 97.4128 114.556C97.3301 114.634 97.2887 114.744 97.2887 114.887C97.2887 115.069 97.3522 115.218 97.479 115.334C97.6059 115.45 97.7825 115.508 98.0087 115.508C98.1908 115.508 98.3508 115.467 98.4887 115.384C98.6321 115.296 98.7453 115.177 98.828 115.028C98.9108 114.879 98.9521 114.708 98.9521 114.515V113.563C98.9521 113.287 98.8915 113.089 98.7701 112.967C98.6487 112.846 98.4446 112.785 98.1577 112.785C97.9977 112.785 97.8239 112.805 97.6363 112.843C97.4542 112.882 97.2611 112.948 97.057 113.042C96.9522 113.091 96.8584 113.105 96.7756 113.083C96.6984 113.061 96.6377 113.017 96.5935 112.951C96.5494 112.879 96.5273 112.802 96.5273 112.719C96.5273 112.636 96.5494 112.556 96.5935 112.479C96.6377 112.396 96.7122 112.336 96.817 112.297C97.0708 112.192 97.3135 112.118 97.5453 112.074C97.7825 112.029 97.9977 112.007 98.1908 112.007C98.588 112.007 98.9135 112.068 99.1673 112.189C99.4266 112.311 99.6197 112.496 99.7466 112.744C99.8735 112.987 99.937 113.301 99.937 113.687V115.674C99.937 115.845 99.8956 115.977 99.8128 116.071C99.7301 116.159 99.6115 116.203 99.457 116.203C99.3025 116.203 99.1811 116.159 99.0928 116.071C99.0101 115.977 98.9687 115.845 98.9687 115.674V115.276H99.0349C98.9963 115.469 98.919 115.638 98.8032 115.781C98.6928 115.919 98.5521 116.027 98.3811 116.104C98.2101 116.181 98.0142 116.22 97.7935 116.22ZM101.517 116.203C101.346 116.203 101.213 116.159 101.119 116.071C101.031 115.977 100.987 115.845 100.987 115.674V112.545C100.987 112.374 101.031 112.245 101.119 112.156C101.208 112.068 101.332 112.024 101.492 112.024C101.652 112.024 101.776 112.068 101.864 112.156C101.952 112.245 101.997 112.374 101.997 112.545V113.067H101.914C101.991 112.736 102.143 112.485 102.369 112.314C102.595 112.143 102.896 112.04 103.271 112.007C103.387 111.996 103.478 112.027 103.544 112.098C103.616 112.165 103.657 112.269 103.668 112.413C103.679 112.551 103.646 112.664 103.569 112.752C103.497 112.835 103.387 112.885 103.238 112.901L103.056 112.918C102.719 112.951 102.466 113.056 102.295 113.232C102.124 113.403 102.038 113.646 102.038 113.96V115.674C102.038 115.845 101.994 115.977 101.906 116.071C101.817 116.159 101.688 116.203 101.517 116.203Z" fill="white"/>
</svg>
