<svg xmlns="http://www.w3.org/2000/svg" width="691.871" height="296.932" viewBox="0 0 691.871 296.932">
  <g id="Grupo_18216" data-name="Grupo 18216" transform="translate(-516 -81.415)">
    <g id="Grupo_17805" data-name="Grupo 17805" transform="translate(664 81.415)">
      <g id="freepik--character-4--inject-19" transform="translate(420.249 7.336)">
        <rect id="Rectángulo_8862" data-name="Rectángulo 8862" width="111.306" height="112.557" transform="translate(7.977 0.657)" fill="#fff"/>
        <path id="Trazado_23469" data-name="Trazado 23469" d="M421.6,210.42H308.971V96.549H421.577ZM310.3,209.106H420.3V97.863H310.271Z" transform="translate(-301.67 -96.549)" fill="#ebebeb"/>
        <path id="Trazado_23470" data-name="Trazado 23470" d="M320.4,102.921a3.275,3.275,0,1,1-3.275-3.312h0A3.293,3.293,0,0,1,320.4,102.921Z" transform="translate(-300.207 -95.587)" fill="#c7c7c7"/>
        <ellipse id="Elipse_649" data-name="Elipse 649" cx="3.275" cy="3.312" rx="3.275" ry="3.312" transform="translate(27.018 4.022)" fill="#ebebeb"/>
        <ellipse id="Elipse_650" data-name="Elipse 650" cx="3.275" cy="3.312" rx="3.275" ry="3.312" transform="translate(40.405 4.022)" fill="#ffc100"/>
        <rect id="Rectángulo_8863" data-name="Rectángulo 8863" width="111.306" height="1.314" transform="translate(7.977 13.169)" fill="#ebebeb"/>
        <rect id="Rectángulo_8864" data-name="Rectángulo 8864" width="111.306" height="112.557" transform="translate(7.977 0.657)" fill="#fff"/>
        <path id="Trazado_23471" data-name="Trazado 23471" d="M421.6,210.42H308.971V96.549H421.577ZM310.3,209.106H420.3V97.863H310.271Z" transform="translate(-301.67 -96.549)" fill="#ebebeb"/>
        <path id="Trazado_23472" data-name="Trazado 23472" d="M320.4,102.921a3.275,3.275,0,1,1-3.275-3.312h0A3.293,3.293,0,0,1,320.4,102.921Z" transform="translate(-300.207 -95.587)" fill="#a6a6a6"/>
        <ellipse id="Elipse_651" data-name="Elipse 651" cx="3.275" cy="3.312" rx="3.275" ry="3.312" transform="translate(27.018 4.022)" fill="#ebebeb"/>
        <ellipse id="Elipse_652" data-name="Elipse 652" cx="3.275" cy="3.312" rx="3.275" ry="3.312" transform="translate(40.405 4.022)" fill="#ffc100"/>
        <rect id="Rectángulo_8865" data-name="Rectángulo 8865" width="111.306" height="1.314" transform="translate(7.977 13.169)" fill="#ebebeb"/>
        <path id="Trazado_23473" data-name="Trazado 23473" d="M349.765,112.176c-6.265,8.175-6.81,20.359-6.81,20.359s-5.381,12.907-2.6,19.149a11.846,11.846,0,0,0,8.5,7.058l-1.143-3.509s2.9,4.324,10.865,5.257,17.884-2.878,22.862-6.3a20.705,20.705,0,0,0,6.927-7.965l-1.3,5.494a15.554,15.554,0,0,0,10.891-9.9c3.431-8.648-10.853-18.584-12.256-20.937s-5.095-20.385-23.642-14.773C362.008,106.051,354.093,106.55,349.765,112.176Z" transform="translate(-292.503 -93.88)" fill="#263238"/>
        <path id="Trazado_23474" data-name="Trazado 23474" d="M346.609,152.706a12.334,12.334,0,0,1-5.68-4.653,11.321,11.321,0,0,1-2.106-7.018,25.029,25.029,0,0,1,2.534-8.543c1.209-2.826,2.6-5.559,3.782-8.4.065-.158-.169-.25-.26-.131a70.587,70.587,0,0,0-3.9,6.887,32.57,32.57,0,0,0-2.9,6.913,12.2,12.2,0,0,0,0,6.821,11.853,11.853,0,0,0,3,4.731,25.135,25.135,0,0,0,5.459,3.562C346.661,152.942,346.739,152.745,346.609,152.706Z" transform="translate(-293.091 -87.95)" fill="#263238"/>
        <path id="Trazado_23475" data-name="Trazado 23475" d="M389.788,132.223c-3.119-6.414-9.618-9.884-13.985-15.259-2.379-2.9-4.341-6.217-7.239-8.635-.078,0-.195.079-.117.145,2.4,2.195,4,5.021,5.875,7.649a50.092,50.092,0,0,0,6.641,7.216c4.341,4.061,9.514,8.858,9.475,15.338,0,3-1.3,6.479-4.2,7.781-.1,0,0,.237.091.171a9.5,9.5,0,0,0,4.536-5.954A12.2,12.2,0,0,0,389.788,132.223Z" transform="translate(-283.853 -92.846)" fill="#263238"/>
        <path id="Trazado_23476" data-name="Trazado 23476" d="M388.922,131.746a12.587,12.587,0,0,0-2.6-7.058,17.562,17.562,0,0,0-6.07-4.39c-2.6-1.314-5.264-2.471-7.1-4.81-.078-.092-.208,0-.13.131,2.911,3.864,7.707,5.257,11.216,8.32,4.029,3.549,4.77,9.384,2.937,14.287a20.412,20.412,0,0,1-5.433,7.781m0,.066c4.211-3.562,7.538-8.635,7.174-14.326Z" transform="translate(-282.479 -90.608)" fill="#263238"/>
        <path id="Trazado_23477" data-name="Trazado 23477" d="M328.293,119.994l6.823,30.163c.3.881-.156,1.59-1.014,1.564l-15.3-.342a2.463,2.463,0,0,1-2.093-1.643l-6.81-30.15c-.3-.894.156-1.59,1-1.577l15.31.342A2.449,2.449,0,0,1,328.293,119.994Z" transform="translate(-301.418 -89.804)" fill="#a6a6a6"/>
        <path id="Trazado_23478" data-name="Trazado 23478" d="M326.906,119.969l6.81,30.15c.3.894-.156,1.59-1,1.577l-15.311-.342a2.488,2.488,0,0,1-2.093-1.643l-6.81-30.229c-.3-.881.156-1.59,1.014-1.564l15.3.342A2.46,2.46,0,0,1,326.906,119.969Z" transform="translate(-301.838 -89.832)" fill="#dbdbdb"/>
        <path id="Trazado_23479" data-name="Trazado 23479" d="M319.391,120.763a1.3,1.3,0,1,0,1.3-1.314A1.308,1.308,0,0,0,319.391,120.763Z" transform="translate(-298.547 -89.351)" fill="#455a64"/>
        <path id="Trazado_23480" data-name="Trazado 23480" d="M378.255,158.438c-8.916,18.545-28.672,42.5-36.73,42.5-3.834,0-10.684.828-15.6-3.68-10.839-9.857-19.755-28.547-21.484-39.206-.611-3.772,17.585-11.658,20.288-8.609,6.187,7.281,13.309,21.528,14.427,21.463,4.12-.263,20.405-13.616,31.778-23.013C384.727,136.489,381.816,151.051,378.255,158.438Z" transform="translate(-303.031 -81.735)" fill="#eb9481"/>
        <path id="Trazado_23481" data-name="Trazado 23481" d="M304.261,145.067c2.028-7.649,3.7-9.305,2.028-16.679-1.1-4.837,1.482-7.623,4.809-3.706,5.446,6.4,4.887,16.823,3.652,20.385Z" transform="translate(-303.082 -88.289)" fill="#eb9481"/>
        <path id="Trazado_23482" data-name="Trazado 23482" d="M305.573,167.735s-3.249-10.738-1.885-19.11c.936-5.783,4.367-18.137,20.509-24.472,3.821-1.5,10.333-.894,4.965,3.851-3.821,3.378-7.239,4.35-9.1,6.716,0,0,8.188,1.761,9.527,5.7a76.754,76.754,0,0,1,2.768,10.514,16.488,16.488,0,0,1-1.9.7s1.118,3.759-1.612,9.016Z" transform="translate(-303.353 -88.101)" fill="#eb9481"/>
        <path id="Trazado_23483" data-name="Trazado 23483" d="M304.971,141.009c2.339-1.958,7.382-6.02,12.646-7.886,5.836-2.077,17.65-4.495,19.131-.118,1.079,3.22-3.353,4.534-3.353,4.534s5.095,0,5.446,3.167c.312,2.839-3.171,3.654-3.171,3.654s3.08.565,2.872,3.351c-.26,3.365-6.68,1.643-9.852,4.81C327.976,153.232,304.971,141.009,304.971,141.009Z" transform="translate(-302.869 -85.86)" fill="#eb9481"/>
        <path id="Trazado_23484" data-name="Trazado 23484" d="M315.59,138.152a24.349,24.349,0,0,1,14.544-2.287c.117,0,.169.132,0,.132a60.211,60.211,0,0,0-14.583,2.208A.1.1,0,0,1,315.59,138.152Z" transform="translate(-299.698 -84.279)" fill="#263238"/>
        <path id="Trazado_23485" data-name="Trazado 23485" d="M317.32,142.467a27.348,27.348,0,0,1,14.648-1.406c.13,0,.169.145,0,.145a64.092,64.092,0,0,0-14.686,1.314A.1.1,0,0,1,317.32,142.467Z" transform="translate(-299.179 -82.693)" fill="#263238"/>
        <path id="Trazado_23486" data-name="Trazado 23486" d="M340.361,162.235l18.872,14.155s9.189-12.525,11.359-23.657-3.457-11.237-11.957-4.416S340.361,162.235,340.361,162.235Z" transform="translate(-292.262 -81.734)" fill="#ffc100"/>
        <path id="Trazado_23487" data-name="Trazado 23487" d="M343.641,156.261c1.092.526,10.255,7.189,16.35,12.144.078.079,0,.2-.091.145-3.483-1.879-12.1-8.5-16.363-12.17C343.46,156.314,343.563,156.222,343.641,156.261Z" transform="translate(-291.319 -77.784)" fill="#263238"/>
        <path id="Trazado_23488" data-name="Trazado 23488" d="M369.148,152.695c-2.157,11.2-11.359,23.657-11.359,23.657l-12.607-9.45L364.2,143.968C368.446,142.575,370.642,145.019,369.148,152.695Z" transform="translate(-290.818 -81.762)" fill="#263238"/>
        <path id="Trazado_23489" data-name="Trazado 23489" d="M409.678,187.879c-7.421-15.64-16.7-32.661-25.162-40.862-.4-.394-.819-.775-1.222-1.117l-.234-.21c-8.227-7.058-16.9-3.693-22.446,2.116-1.3,1.446-15.921,25.3-16.545,33.883-.39,5.362,2.391,10.659,4.055,13.314h61.554Z" transform="translate(-291.162 -82.354)" fill="#ffc100"/>
        <path id="Trazado_23490" data-name="Trazado 23490" d="M402.011,164.045c-7.928-7.452-16.181-13.971-21.588-17.178-6.109-3.614-16.831-5.993-6.5,10.383,6.057,9.568,15.9,27.114,20.574,36.958h7.486Z" transform="translate(-283.494 -81.559)" fill="#eb9481"/>
        <path id="Trazado_23491" data-name="Trazado 23491" d="M382.048,176.053l17.1-16.245s-10.514-11.408-21.016-15.574-11.554,1.406-6.5,11.08S382.048,176.053,382.048,176.053Z" transform="translate(-283.768 -82.001)" fill="#ffc100"/>
        <path id="Trazado_23492" data-name="Trazado 23492" d="M377.971,168.021c.7-1,8.851-8.911,14.765-14.076.091-.066.2,0,.13.118-2.469,3.128-10.462,10.514-14.8,14.076C377.971,168.153,377.971,168.153,377.971,168.021Z" transform="translate(-280.99 -78.517)" fill="#263238"/>
        <path id="Trazado_23493" data-name="Trazado 23493" d="M382.895,170.158a19.4,19.4,0,0,0-1.95,1.235c-.13-.3-.3-.591-.455-.907l-1-2.024c-.767-1.485-1.547-2.944-2.365-4.4-1.6-2.839-3.34-5.651-4.809-8.569,0-.118-.234,0-.169.118.806,1.538,1.56,3.128,2.288,4.718-.117-.105-1.82-1.485-2.093-1.761s-.247.066-.143.158c.3.223,2.6,2.563,2.716,2.629l1.391,3q1.027,2.194,2.145,4.337c.351.67.7,1.314,1.066,2s1.092,1.906,1.1,1.932a26.992,26.992,0,0,0,2.431-2.287.144.144,0,0,0-.113-.17A.159.159,0,0,0,382.895,170.158Z" transform="translate(-282.743 -78.039)" fill="#263238"/>
        <path id="Trazado_23494" data-name="Trazado 23494" d="M368.185,140.481c-3.418.355-7.447,2.786-10.645,7.163-2.807,3.851-5.381,9.332-3.444,10.515,2.223,1.314,6.628-3.641,6.628-3.641s-1.118,8.057,3.119,7.649c4.952-.473,9.475-7.439,10.307-12.157C375.035,144.91,374.138,139.864,368.185,140.481Z" transform="translate(-288.348 -82.757)" fill="#fff"/>
        <path id="Trazado_23495" data-name="Trazado 23495" d="M371.921,148.652c-.338,1.17-6.356,8.582-11.7,8.044-1.742-.184-1.2-9.857-1.2-9.857l-.117-.723-1.69-10.133,12.022-6.926,1.741-.907s.273,2.8.6,6.3v.5a1.642,1.642,0,0,0,.065.565c0,.526.1,1.051.143,1.59a8.355,8.355,0,0,0,.091,1.222l.078,1.314A69.091,69.091,0,0,1,371.921,148.652Z" transform="translate(-287.209 -86.617)" fill="#eb9481"/>
        <path id="Trazado_23496" data-name="Trazado 23496" d="M371.563,134.415a20.5,20.5,0,0,1-12.672,11.671l-1.69-10.133,12.022-6.926,1.742-.907S371.2,130.918,371.563,134.415Z" transform="translate(-287.215 -86.626)" fill="#263238"/>
        <path id="Trazado_23497" data-name="Trazado 23497" d="M345.784,128.128c-.91,18.006,9.657,20.582,13.5,20.779,3.483.171,15.376.315,18.1-17.493s-5.264-23.933-13.2-24.762S346.681,110.122,345.784,128.128Z" transform="translate(-290.654 -93.404)" fill="#eb9481"/>
        <path id="Trazado_23498" data-name="Trazado 23498" d="M348.575,121.487a9.275,9.275,0,0,0,1.2-.276,1.96,1.96,0,0,0,1.17-.526.633.633,0,0,0,0-.775,1.56,1.56,0,0,0-1.56-.342,2.231,2.231,0,0,0-1.43.854.676.676,0,0,0,.135.938A.658.658,0,0,0,348.575,121.487Z" transform="translate(-290.027 -89.339)" fill="#263238"/>
        <path id="Trazado_23499" data-name="Trazado 23499" d="M358.486,121.587a9.731,9.731,0,0,1-1.222-.237,1.965,1.965,0,0,1-1.183-.473.637.637,0,0,1,0-.776,1.549,1.549,0,0,1,1.546-.407,2.25,2.25,0,0,1,1.456.8.687.687,0,0,1-.135.957A.666.666,0,0,1,358.486,121.587Z" transform="translate(-287.59 -89.294)" fill="#263238"/>
        <path id="Trazado_23500" data-name="Trazado 23500" d="M356.16,124.619a.094.094,0,0,1,.091.105c0,1.222.1,2.629,1.209,3.049v.079C356.108,127.655,355.939,125.776,356.16,124.619Z" transform="translate(-287.552 -87.726)" fill="#263238"/>
        <path id="Trazado_23501" data-name="Trazado 23501" d="M357.237,123.65c1.963-.145,2.093,3.811.286,3.943S355.6,123.781,357.237,123.65Z" transform="translate(-287.55 -88.032)" fill="#263238"/>
        <path id="Trazado_23502" data-name="Trazado 23502" d="M357.621,123.793c.351.223.7.6,1.118.631s.819-.394,1.118-.815h.065c0,.749-.221,1.538-1.014,1.682s-1.3-.526-1.495-1.314C357.374,123.964,357.478,123.793,357.621,123.793Z" transform="translate(-287.154 -88.044)" fill="#263238"/>
        <path id="Trazado_23503" data-name="Trazado 23503" d="M350.541,124.4a.094.094,0,0,0-.091.105c.091,1.235,0,2.629-1.079,3.1h0C350.71,127.488,350.827,125.542,350.541,124.4Z" transform="translate(-289.562 -87.796)" fill="#263238"/>
        <path id="Trazado_23504" data-name="Trazado 23504" d="M349.743,123.459c-1.963-.066-1.95,3.943-.13,3.943S351.381,123.512,349.743,123.459Z" transform="translate(-289.895 -88.091)" fill="#263238"/>
        <path id="Trazado_23505" data-name="Trazado 23505" d="M349.247,123.7c-.312.21-.611.591-.988.618s-.741-.394-1.014-.8h-.065c0,.762.234,1.551.949,1.7s1.144-.526,1.3-1.314C349.507,123.821,349.378,123.624,349.247,123.7Z" transform="translate(-290.218 -88.072)" fill="#263238"/>
        <path id="Trazado_23506" data-name="Trazado 23506" d="M356.5,131.81c-.273.3-.533.723-.962.8a3.3,3.3,0,0,1-1.3-.21s-.078,0,0,.066a1.628,1.628,0,0,0,1.6.539,1.311,1.311,0,0,0,.858-1.157C356.578,131.744,356.5,131.744,356.5,131.81Z" transform="translate(-288.113 -85.481)" fill="#263238"/>
        <path id="Trazado_23507" data-name="Trazado 23507" d="M352.448,131.368s-.208,1.84-.195,2.707c0,.079.208.118.507.118h0a4.008,4.008,0,0,0,3.9-1.63c.065-.079,0-.171-.13-.105a6.122,6.122,0,0,1-3.691,1.157c-.065-.237.468-3.141.325-3.141a7.675,7.675,0,0,0-1.924.486c.325-3.838,1.3-7.6,1.521-11.434,0-.131-.195-.171-.234,0a63.112,63.112,0,0,0-2.144,12.249C350.329,132.222,352.071,131.526,352.448,131.368Z" transform="translate(-289.26 -89.363)" fill="#263238"/>
        <path id="Trazado_23508" data-name="Trazado 23508" d="M352.271,130.771a5.093,5.093,0,0,0,1.976,1.577,2.188,2.188,0,0,0,1.365.092c.988-.25,1.014-1.157.845-1.945a5.52,5.52,0,0,0-.429-1.2A6.457,6.457,0,0,1,352.271,130.771Z" transform="translate(-288.693 -86.256)" fill="#263238"/>
        <path id="Trazado_23509" data-name="Trazado 23509" d="M353.791,132.062a2.188,2.188,0,0,0,1.365.092c.988-.25,1.014-1.157.845-1.945A2.335,2.335,0,0,0,353.791,132.062Z" transform="translate(-288.237 -85.969)" fill="#ff99ba"/>
        <path id="Trazado_23510" data-name="Trazado 23510" d="M375.806,132.539c-4.38,0-6.109-13.564-6.3-15.233.065,1.051.4,6.65,0,6.887a4.24,4.24,0,0,1-1.391-.21h0a13.377,13.377,0,0,0-.221-2,15.576,15.576,0,0,0-.221,1.893l-.819-.21a16.091,16.091,0,0,0-.559-4.245c-.143-.513-.208,1.866-.637,3.943a52.331,52.331,0,0,0-11.528-1.656,23.944,23.944,0,0,0-2.872.105,25.13,25.13,0,0,0,0-3.036,15.761,15.761,0,0,0-.572,3.089l-1.3.145c-.182-2.34.793-6.1.442-5.52a16.373,16.373,0,0,0-2.04,5.836c-1.573.355-2,.683-2.054.276a19.557,19.557,0,0,1,5.459-12.276c5.3-5.4,16.168-7.071,22.589.736,0,0,5.2,3.181,6.16,8.543S378.341,132.539,375.806,132.539Z" transform="translate(-290.653 -93.662)" fill="#263238"/>
        <path id="Trazado_23511" data-name="Trazado 23511" d="M367.57,127.241s3.691-5.77,6.264-4.455,0,9.568-2.976,10.79a3.012,3.012,0,0,1-4.058-1.381c-.017-.034-.034-.068-.049-.1Z" transform="translate(-284.353 -88.364)" fill="#eb9481"/>
        <path id="Trazado_23512" data-name="Trazado 23512" d="M372.653,124.529v.079a7.708,7.708,0,0,0-3.769,4.955,1.668,1.668,0,0,1,2.272-.689,1.614,1.614,0,0,1,.211.137s0,.131-.065.118a1.849,1.849,0,0,0-2.015.736,9.362,9.362,0,0,0-.91,1.7c-.091.2-.429.105-.364-.118h0C367.883,128.761,369.807,124.9,372.653,124.529Z" transform="translate(-283.978 -87.755)" fill="#263238"/>
      </g>
      <g id="Grupo_17801" data-name="Grupo 17801" transform="translate(-135.507 13.683)">
        <g id="freepik--character-1--inject-19" transform="translate(0 20)">
          <rect id="Rectángulo_8866" data-name="Rectángulo 8866" width="124.935" height="126.339" transform="translate(0.73 0.738)" fill="#fff"/>
          <path id="Trazado_23513" data-name="Trazado 23513" d="M178.587,265.687H52.193V137.843H178.587ZM53.652,264.212H177.128V139.318H53.652Z" transform="translate(-52.193 -137.843)" fill="#ebebeb"/>
          <path id="Trazado_23514" data-name="Trazado 23514" d="M64.406,144.621a3.677,3.677,0,1,1-3.676-3.718,3.7,3.7,0,0,1,3.676,3.718Z" transform="translate(-49.963 -136.389)" fill="#a6a6a6"/>
          <ellipse id="Elipse_653" data-name="Elipse 653" cx="3.676" cy="3.718" rx="3.676" ry="3.718" transform="translate(22.102 4.515)" fill="#ebebeb"/>
          <ellipse id="Elipse_654" data-name="Elipse 654" cx="3.676" cy="3.718" rx="3.676" ry="3.718" transform="translate(37.128 4.515)" fill="#ffc100"/>
          <rect id="Rectángulo_8867" data-name="Rectángulo 8867" width="124.935" height="1.475" transform="translate(0.73 14.782)" fill="#ebebeb"/>
          <path id="Trazado_23515" data-name="Trazado 23515" d="M79.624,195c8.359,20.329,26.04,45.172,37.011,43.284,10.022-1.711,31.03-16.228,39.505-23.6s-15.508-27.808-20.613-23.6c-6.813,5.665-18.25,17.7-20.424,17.275-2.757-.443-6.01-4.263-23.925-21.2C83.738,180.243,75.991,186.306,79.624,195Z" transform="translate(-40.031 -115.834)" fill="#ad6359"/>
          <path id="Trazado_23516" data-name="Trazado 23516" d="M124.552,183.5c4.3-2.036,9.074-4.735,14.02-5.134s9.716,5.783,9.905,7.686-.525,13.867-5.471,14.369-2.918-8.851-3.137-9.884-.613-2.331-1.532-2.139-16.485,9.678-16.485,9.678Z" transform="translate(-20.23 -118.592)" fill="#ad6359"/>
          <path id="Trazado_23517" data-name="Trazado 23517" d="M123.973,184.576c.277,0,13.013-6.653,17.973-7.066s9.716,5.8,9.906,7.686-.525,13.882-5.471,14.369-2.918-8.851-3.151-9.884-.6-2.316-1.532-2.139-16.485,9.678-16.485,9.678Z" transform="translate(-19.257 -119.001)" fill="#ad6359"/>
          <path id="Trazado_23518" data-name="Trazado 23518" d="M141.776,195.966a5.941,5.941,0,0,1-1.109-2.877,10.347,10.347,0,0,1-.131-3.216,18.261,18.261,0,0,0,.321-2.8,5.49,5.49,0,0,0-.948-2.582c-.452-.664-1.152-.354-1.751,0a23.375,23.375,0,0,0-2.568,1.475c-.9.575-1.794,1.165-2.684,1.755a26.389,26.389,0,0,0-2.713,1.874v.133c.832-.384,1.6-.915,2.407-1.387s1.794-1.077,2.7-1.593,1.663-1.033,2.524-1.475c.292-.162.89-.561,1.255-.516s.671.959.788,1.254a4.829,4.829,0,0,1,.087,2.729,13.768,13.768,0,0,0-.233,2.788,7.37,7.37,0,0,0,.452,2.582,10.321,10.321,0,0,0,1.459,2.036C141.7,196.172,141.864,196.055,141.776,195.966Z" transform="translate(-16.403 -115.861)" fill="#263238"/>
          <path id="Trazado_23519" data-name="Trazado 23519" d="M114.093,203.718S126.566,189.7,129.177,186.9c5.223-5.606,28.36-18,31.686-18.691s5.237,6.137-10.431,15.033c-8.243,4.677-9.293,9.825-8.855,12.584s3.56,7.642,8.155,7.052,6.915-7.686,11.073-8.851,2.13,6.948-.408,11.8a28.576,28.576,0,0,1-11.437,11.02c-3.822,1.918-15.624,8.527-15.624,8.527Z" transform="translate(-23.791 -123.435)" fill="#ad6359"/>
          <path id="Trazado_23520" data-name="Trazado 23520" d="M146.5,194.243c-1.6,1.475-3.4,3.482-5.675,3.806s-4.026-1.077-5.325-2.951a8.921,8.921,0,0,1-1.838-6.314,10.863,10.863,0,0,1,2.641-5.547,26.63,26.63,0,0,1,5.835-4.824c.1,0,0-.207-.1-.148-2.028,1.18-8.345,4.559-9.089,10.592a9.189,9.189,0,0,0,1.926,6.432,6.471,6.471,0,0,0,5.12,3.349c2.743,0,4.873-2.523,6.652-4.426C146.656,194.2,146.568,194.155,146.5,194.243Z" transform="translate(-15.156 -118.637)" fill="#263238"/>
          <path id="Trazado_23521" data-name="Trazado 23521" d="M79.679,200.027A96.317,96.317,0,0,0,91.19,223.35a22.339,22.339,0,0,0,1.6,2.139l17.273-18.735,2.392-2.6s-.452-.5-1.9-1.859c-2.042-1.9-6.1-5.473-13.728-11.625a40.421,40.421,0,0,0-11.175-6.9C77.389,180.863,75.347,187.59,79.679,200.027Z" transform="translate(-40.597 -116.336)" fill="#37474f"/>
          <path id="Trazado_23522" data-name="Trazado 23522" d="M85.593,219.633l5.7,6.565,19.257-21.288,4.3-4.78-6.784-4.927-1.24,1.342-2.422,2.641L87.46,217.6Z" transform="translate(-36.868 -110.583)" fill="#37474f"/>
          <path id="Trazado_23523" data-name="Trazado 23523" d="M79.679,200.027A96.317,96.317,0,0,0,91.19,223.35l-1.867,2.036,5.7,6.565,19.257-21.288-4.216-3.909-1.926-1.815c-8.666-8.1-17.3-16.228-22.481-21.17C77.389,180.863,75.347,187.59,79.679,200.027Z" transform="translate(-40.597 -116.336)" fill="#263238"/>
          <path id="Trazado_23524" data-name="Trazado 23524" d="M120.674,243.085a255.136,255.136,0,0,0-4.931-34.683c-2.028-8.674-11.919-21.14-12.313-21.494-5.835-5.281-12.984-6.727-20.541.915-9.687,9.81-21.212,35.509-29.177,55.262Z" transform="translate(-51.496 -116.613)" fill="#37474f"/>
          <path id="Trazado_23525" data-name="Trazado 23525" d="M75.723,201.361c9.978,19.68,47.033,53.33,59.39,53.463,14.34.089,47.237-24.017,54.05-33.414,2.728-3.732-21.883-21.332-25.749-18.293-16.266,12.7-30.636,19.045-33.437,18.175-4.377-1.342-25.369-16.419-39.17-26.687C73.462,181.652,71.244,192.539,75.723,201.361Z" transform="translate(-42.315 -113.703)" fill="#ad6359"/>
          <path id="Trazado_23526" data-name="Trazado 23526" d="M161.17,231.309c1.692-1.3,11.787-15.077,14.253-20.816a61.616,61.616,0,0,0,5.15-19c1.021-10.327.773-17.7-1.094-20.358-2.174-3.142-2.67-3.614-6.988,14.457-2.451,10.223-7.032,12.746-11.292,14.015a72.071,72.071,0,0,0-28.126,15.888S154.679,236.28,161.17,231.309Z" transform="translate(-15.082 -122.82)" fill="#ad6359"/>
          <path id="Trazado_23527" data-name="Trazado 23527" d="M155.659,164.031l-11.671,33.237c-.35.988.146,1.77,1.094,1.77l16.966-.118a2.747,2.747,0,0,0,2.334-1.785l11.671-33.252c.35-.988-.146-1.77-1.094-1.77l-16.966.133A2.7,2.7,0,0,0,155.659,164.031Z" transform="translate(-10.125 -126.309)" fill="#263238"/>
          <path id="Trazado_23528" data-name="Trazado 23528" d="M154.617,164.116l-11.671,33.252c-.336.974.146,1.77,1.094,1.755l16.966-.118a2.73,2.73,0,0,0,2.349-1.785l11.671-33.252c.35-.974-.131-1.755-1.08-1.755l-16.966.118A2.792,2.792,0,0,0,154.617,164.116Z" transform="translate(-10.6 -126.262)" fill="#37474f"/>
          <path id="Trazado_23529" data-name="Trazado 23529" d="M154.654,165.377l-10.737,30.478c-.321.944.1,1.682.948,1.682l15.172-.1a2.584,2.584,0,0,0,2.144-1.7l10.737-30.493c.671-1.9.117-2.316-.729-2.3h-3.034c-.175,0-.394.207-.481.457v.118c-.2.59-.525.59-.919.59h-7.032c-.394,0-.715,0-.5-.575v-.118c.088-.251,0-.457-.16-.457h-3.034C156.156,163.046,155.267,163.636,154.654,165.377Z" transform="translate(-10.155 -125.915)" fill="#fff"/>
          <path id="Trazado_23530" data-name="Trazado 23530" d="M157.389,163.339h1.926a.186.186,0,0,0,.16-.118h0a.088.088,0,0,0-.052-.112.1.1,0,0,0-.035-.006h-2a.177.177,0,0,0-.161.118h0a.1.1,0,0,0,.022.14A.1.1,0,0,0,157.389,163.339Z" transform="translate(-4.007 -125.839)" fill="#fff"/>
          <path id="Trazado_23531" data-name="Trazado 23531" d="M148.743,181l12.9-.088,4.61-13.085-12.9.1Z" transform="translate(-7.892 -123.595)" fill="#dbdbdb"/>
          <path id="Trazado_23532" data-name="Trazado 23532" d="M151.913,178.449l7.528-.059.263-.767-7.528.059Z" transform="translate(-6.437 -118.938)" fill="#a6a6a6"/>
          <path id="Trazado_23533" data-name="Trazado 23533" d="M150.653,179.186l8.913-.059.131-.384-8.9.059Z" transform="translate(-7.015 -118.406)" fill="#a6a6a6"/>
          <path id="Trazado_23534" data-name="Trazado 23534" d="M150.483,179.666l8.914-.074.131-.369-8.9.059Z" transform="translate(-7.093 -118.178)" fill="#a6a6a6"/>
          <path id="Trazado_23535" data-name="Trazado 23535" d="M150.313,180.136l8.914-.059.146-.383-8.913.059Z" transform="translate(-7.171 -117.954)" fill="#a6a6a6"/>
          <path id="Trazado_23536" data-name="Trazado 23536" d="M152.793,165.158l1.6-.015.117-.31-1.6.015Z" transform="translate(-6.033 -125.016)" fill="#a6a6a6"/>
          <path id="Trazado_23537" data-name="Trazado 23537" d="M152.653,165.563l1.6-.015.117-.325-1.6.015Z" transform="translate(-6.098 -124.831)" fill="#a6a6a6"/>
          <path id="Trazado_23538" data-name="Trazado 23538" d="M152.513,165.948l1.6-.015.117-.31h-1.6Z" transform="translate(-6.162 -124.641)" fill="#a6a6a6"/>
          <path id="Trazado_23539" data-name="Trazado 23539" d="M148.387,178.3a.867.867,0,0,0,.277.384,2.1,2.1,0,0,0,.569-.4c.35-.3.452-.723.146-.723s-.438.354-.438.354,0-.354-.175-.339A.681.681,0,0,0,148.387,178.3Z" transform="translate(-8.061 -118.967)" fill="#ffc100"/>
          <path id="Trazado_23540" data-name="Trazado 23540" d="M146.9,185.321l10.4-.074,1.065-3.024-10.4.074Z" transform="translate(-8.736 -116.752)" fill="#dbdbdb"/>
          <path id="Trazado_23541" data-name="Trazado 23541" d="M162.408,195.775c-4.377,1.475,7.075-12.053,5.719-17.157s-5.7-1.977-8.651,2.095c-10.212,14.089-20.424,16.8-24.173,28.384S162.408,195.775,162.408,195.775Z" transform="translate(-14.204 -119.727)" fill="#ad6359"/>
          <path id="Trazado_23542" data-name="Trazado 23542" d="M106.262,217.272c1.459.752,2.918,1.593,4.377,2.39a23.693,23.693,0,0,0,4.07,2.11,7.346,7.346,0,0,0,4.975-.516,42.553,42.553,0,0,0,4.172-1.829A134.706,134.706,0,0,0,139.9,209.97a92.839,92.839,0,0,0,8.49-6l-.277.443a23.04,23.04,0,0,1,1.926-4.529,25.953,25.953,0,0,1,3.282-4.662,47.224,47.224,0,0,1,4.289-4.263c.8-.708,1.59-1.475,2.407-2.065l1.225-1c.365-.3,1.24-.811,1.459-1.224-.073.177-.321,0-.2-.118h0a.1.1,0,0,1,.144,0h.089v.1c-.1.266-.394.443-.6.649l-1.094,1.121c-.686.708-1.357,1.475-2.042,2.08-1.546,1.549-3.107,3.113-4.537,4.75a41.951,41.951,0,0,0-3.414,4.426c-.525.782-.992,1.623-1.459,2.434a16.737,16.737,0,0,0-1.123,2.493c0,.074-4.96,3.954-7.542,5.9a92.412,92.412,0,0,1-8.067,5.355c-2.772,1.667-5.573,3.231-8.461,4.662a36.853,36.853,0,0,1-4.508,1.933,7.751,7.751,0,0,1-4.377.62,17.246,17.246,0,0,1-4.245-2.39c-1.721-1.077-3.443-2.124-5.121-3.246C106.116,217.361,106.175,217.228,106.262,217.272Z" transform="translate(-27.441 -114.714)" fill="#263238"/>
          <path id="Trazado_23543" data-name="Trazado 23543" d="M121.666,215.622l-17.8,22.955S82.8,219.3,75.538,202.994s1.065-19.96,18.877-6.889C111.834,208.9,121.666,215.622,121.666,215.622Z" transform="translate(-42.684 -113.92)" fill="#37474f"/>
          <path id="Trazado_23544" data-name="Trazado 23544" d="M93.552,197.723c3.064,1.977,6.04,4.116,8.972,6.24,1.459,1.047,2.918,2.095,4.26,3.157l2.232,1.7a17.58,17.58,0,0,0,2.524,1.8c.16.088,0,.324-.131.206a34.343,34.343,0,0,0-4.508-3.083c-1.561-1.033-3.093-2.095-4.625-3.186-2.918-2.139-5.981-4.352-8.753-6.727Z" transform="translate(-33.229 -109.386)" fill="#263238"/>
          <path id="Trazado_23545" data-name="Trazado 23545" d="M80.494,209.556a19.707,19.707,0,0,0,2.611,1.962c.365.221.715.472,1.065.708-1.751-2.124-3.457-4.293-5.048-6.521h0c3.778,4.131,7.294,8.453,11.116,12.569s7.44,8.645,11.452,12.658a.119.119,0,0,1,.039.162.116.116,0,0,1-.161.04.128.128,0,0,1-.039-.04c-3.924-4.086-8.067-7.922-11.787-12.2q-2.188-2.567-4.377-5.178a7.671,7.671,0,0,1-1.182-.767c-.438-.325-.89-.649-1.3-1-.832-.738-1.663-1.475-2.538-2.139C80.232,209.645,80.392,209.453,80.494,209.556Z" transform="translate(-39.836 -105.611)" fill="#263238"/>
          <path id="Trazado_23546" data-name="Trazado 23546" d="M119.252,208.985l-7.178-4.322L91.753,230.981,98,237.03Z" transform="translate(-34.041 -106.088)" fill="#37474f"/>
          <path id="Trazado_23547" data-name="Trazado 23547" d="M93.428,226.676c2.48-3.5,5.223-6.816,7.849-10.179s5.529-6.58,8.053-10.046c.088-.133.277,0,.19.148-2.582,3.422-4.9,7.052-7.557,10.415a126.516,126.516,0,0,1-8.33,9.825.129.129,0,0,1-.185,0A.135.135,0,0,1,93.428,226.676Z" transform="translate(-33.28 -105.264)" fill="#263238"/>
          <path id="Trazado_23548" data-name="Trazado 23548" d="M101.59,224.5c-1.328,1.475-2.568,2.95-3.778,4.426h.511a85.58,85.58,0,0,0-6.331-5.9v.28c.467-.693.934-1.387,1.371-2.095-.584.59-1.138,1.21-1.692,1.844l-.117.133.131.147c1.955,2.139,4.026,4.175,6.142,6.152l.292.266.233-.31C99.475,227.763,100.583,226.17,101.59,224.5Z" transform="translate(-34.133 -98.223)" fill="#263238"/>
          <path id="Trazado_23549" data-name="Trazado 23549" d="M96.959,203.993c-4.741-.221-15.289-7.376-17.681-13.572-.16-.413.963-4.426,2.086-9.5.656-3.039,1.342-6.447,1.721-9.6.087-.649,2.115.826,2.115.826l3.91,1.475,12.94,4.986a51.222,51.222,0,0,0-3.4,11.8,7.9,7.9,0,0,0,0,1.313Z" transform="translate(-39.772 -122.014)" fill="#ad6359"/>
          <path id="Trazado_23550" data-name="Trazado 23550" d="M97.154,191.3a1.116,1.116,0,0,1,0,.221,12.425,12.425,0,0,1-2.013-.162c-13.13-1.962-12.677-19.178-12.677-19.178l5.179.885,12.94,4.986a51.222,51.222,0,0,0-3.4,11.8A7.979,7.979,0,0,0,97.154,191.3Z" transform="translate(-38.304 -121.523)" fill="#263238"/>
          <path id="Trazado_23551" data-name="Trazado 23551" d="M82.76,159.571c-2.8,6.816-1.08,27.5,3.428,32.455,6.536,7.273,18.221,9.058,24.582.885,6.156-7.937,3.443-34.845-1.692-39.507C101.579,146.6,86.947,149.481,82.76,159.571Z" transform="translate(-38.791 -132.206)" fill="#ad6359"/>
          <path id="Trazado_23552" data-name="Trazado 23552" d="M84.393,178.263h0" transform="translate(-37.418 -118.634)" fill="none"/>
          <path id="Trazado_23553" data-name="Trazado 23553" d="M95,166.613s-.1,0-.088.133c.146,1.387.088,2.951-1.123,3.57h0C95.31,170.05,95.369,167.926,95,166.613Z" transform="translate(-33.105 -124.17)" fill="#263238"/>
          <path id="Trazado_23554" data-name="Trazado 23554" d="M94.209,165.693c-2.232,0-2.057,4.514,0,4.514S96.076,165.693,94.209,165.693Z" transform="translate(-33.652 -124.608)" fill="#263238"/>
          <path id="Trazado_23555" data-name="Trazado 23555" d="M100.433,166.253a.115.115,0,0,1,.117.118c0,1.4.263,2.95,1.459,3.423h0C100.535,169.705,100.3,167.581,100.433,166.253Z" transform="translate(-30.073 -124.342)" fill="#263238"/>
          <path id="Trazado_23556" data-name="Trazado 23556" d="M101.619,165.237c2.217-.266,2.568,4.234.511,4.426S99.766,165.458,101.619,165.237Z" transform="translate(-30.077 -124.83)" fill="#263238"/>
          <path id="Trazado_23557" data-name="Trazado 23557" d="M92.848,165.4a16.614,16.614,0,0,0,1.692-.679,2.909,2.909,0,0,0,1.6-1.033.966.966,0,0,0-.19-1.151,2.3,2.3,0,0,0-2.363-.147,3.427,3.427,0,0,0-1.926,1.578,1.021,1.021,0,0,0,.454,1.365A.982.982,0,0,0,92.848,165.4Z" transform="translate(-34.129 -126.302)" fill="#263238"/>
          <path id="Trazado_23558" data-name="Trazado 23558" d="M103.509,164.594a8.467,8.467,0,0,1-1.794-.384,3.044,3.044,0,0,1-1.751-.752.969.969,0,0,1,0-1.166,2.332,2.332,0,0,1,2.3-.546,3.475,3.475,0,0,1,2.159,1.239,1.027,1.027,0,0,1-.228,1.422A.991.991,0,0,1,103.509,164.594Z" transform="translate(-30.363 -126.533)" fill="#263238"/>
          <path id="Trazado_23559" data-name="Trazado 23559" d="M94.227,175.13c.336.31.686.752,1.2.782a3.593,3.593,0,0,0,1.459-.413h0a1.842,1.842,0,0,1-1.721.841,1.467,1.467,0,0,1-1.138-1.2A.2.2,0,0,1,94.227,175.13Z" transform="translate(-33 -120.133)" fill="#263238"/>
          <path id="Trazado_23560" data-name="Trazado 23560" d="M95.053,177.178a4.7,4.7,0,0,0,3.224,1.992,5.917,5.917,0,0,0,1.692,0,1.066,1.066,0,0,0,.321,0h.306a.365.365,0,0,0,.263-.325h0V178.7h0v-.133c0-1.062-.19-2.7-.19-2.7.408.177,2.422,1,2.363.443a71.624,71.624,0,0,0-2.393-14.325c0-.148-.277-.1-.248,0,.263,4.426,1.313,8.851,1.648,13.38a8.246,8.246,0,0,0-2.247-.6c-.146,0,.379,3.157.35,3.644h0a6.476,6.476,0,0,1-4.931-1.328C95.068,176.972,94.966,177.06,95.053,177.178Z" transform="translate(-32.542 -126.416)" fill="#263238"/>
          <path id="Trazado_23561" data-name="Trazado 23561" d="M111.662,162.3c-6.346,5.355-16.3-.87-16.3-.87a7.452,7.452,0,0,1-7.061,5.444s-.233,11.8-3.268,12.023c-4.625.413-7.528-15.3-6.375-18.558a8.294,8.294,0,0,1,5-4.426,7.76,7.76,0,0,1,2.713-4.927c2.918-2.744,14.107-.5,14.107-.5a10.257,10.257,0,0,1,2.436-4.072,2.9,2.9,0,0,1,4.127-.016l.016.016a7.063,7.063,0,0,0-.831,2.951c-.233,3.452,2.524,3.187,2.2.1a4.9,4.9,0,0,0-1.371-3.083c1.167-2.139,3.326-2.95,4.77-2.065C114.463,146.058,116.943,157.845,111.662,162.3Z" transform="translate(-40.164 -134.934)" fill="#263238"/>
          <path id="Trazado_23562" data-name="Trazado 23562" d="M86.892,169.745s-4.056-6.933-7.134-5.532-.379,11.227,2.918,12.805a3.526,3.526,0,0,0,4.808-1.437c.022-.041.044-.084.064-.127Z" transform="translate(-40.165 -125.4)" fill="#ad6359"/>
          <path id="Trazado_23563" data-name="Trazado 23563" d="M79.913,166.053v.088a8.98,8.98,0,0,1,4.187,5.989,1.945,1.945,0,0,0-2.6-.941,2.016,2.016,0,0,0-.315.189v.133a2.151,2.151,0,0,1,2.32.944,10.286,10.286,0,0,1,.992,2.051c.1.221.511.133.438-.118h0C85.3,171.143,83.21,166.614,79.913,166.053Z" transform="translate(-39.474 -124.437)" fill="#263238"/>
        </g>
        <path id="Trazado_23564" data-name="Trazado 23564" d="M117.375,156.874a18.025,18.025,0,0,1-3.034-9.884c0-12.539,13.611-22.7,30.4-22.7s30.373,10.164,30.373,22.7-13.6,22.689-30.373,22.689a36.089,36.089,0,0,1-20.964-6.285l-10.475,2.7Z" transform="translate(-24.152 -124.286)" fill="#007bc7"/>
        <path id="Trazado_23565" data-name="Trazado 23565" d="M142.345,140.693a3.172,3.172,0,1,0,0-.03Z" transform="translate(-10.827 -118.003)" fill="#fff"/>
        <path id="Trazado_23566" data-name="Trazado 23566" d="M132.685,140.693a3.151,3.151,0,1,0,3.151-3.187,3.169,3.169,0,0,0-3.151,3.187Z" transform="translate(-15.26 -118.003)" fill="#fff"/>
        <path id="Trazado_23567" data-name="Trazado 23567" d="M123.035,140.693a3.151,3.151,0,1,0,3.151-3.187,3.169,3.169,0,0,0-3.151,3.187Z" transform="translate(-19.688 -118.003)" fill="#fff"/>
      </g>
      <g id="Grupo_17802" data-name="Grupo 17802" transform="translate(-128.607 209.945)">
        <g id="freepik--character-2--inject-19" transform="translate(21.44 6.973)">
          <rect id="Rectángulo_8868" data-name="Rectángulo 8868" width="78.213" height="79.092" transform="translate(0.456 0.462)" fill="#fff"/>
          <path id="Trazado_23568" data-name="Trazado 23568" d="M162.351,403.5H83.225V323.482h79.126Zm-78.213-.923h77.3V324.406h-77.3Z" transform="translate(-83.225 -323.482)" fill="#ebebeb"/>
          <path id="Trazado_23569" data-name="Trazado 23569" d="M92.688,328.869a2.3,2.3,0,1,1-2.3-2.327h0A2.315,2.315,0,0,1,92.688,328.869Z" transform="translate(-83.646 -323.716)" fill="#a6a6a6"/>
          <path id="Trazado_23570" data-name="Trazado 23570" d="M102.978,328.869a2.3,2.3,0,1,1-2.3-2.327h0A2.315,2.315,0,0,1,102.978,328.869Z" transform="translate(-84.539 -323.716)" fill="#ebebeb"/>
          <path id="Trazado_23571" data-name="Trazado 23571" d="M113.278,328.869a2.3,2.3,0,1,1-2.3-2.327h0A2.315,2.315,0,0,1,113.278,328.869Z" transform="translate(-85.432 -323.716)" fill="#ffc100"/>
          <rect id="Rectángulo_8869" data-name="Rectángulo 8869" width="78.213" height="0.924" transform="translate(0.456 9.254)" fill="#ebebeb"/>
          <path id="Trazado_23572" data-name="Trazado 23572" d="M89.641,382.33c3.37,6.714,10.859,10.63,17.727,12.588s15.124,3.02,22.247,1.062a17.618,17.618,0,0,0,8.375-4.839c2.384-2.586,3.251-5.661,1.936-8.857-1.059-2.567-4.064-4.885-3.653-6.945s2.411-3.325,3.279-5.2c1.489-3.214.219-6.123-1.635-8.811-4.393-6.372-1.47-12.93-3.489-20.105-1.151-4.091-5.151-12.006-15.526-11.008-3.936.388-7.178,3.269-9.416,6.465-2.639,3.786-2.53,9.54-5.48,13.086-2.557,3.011-5.379,2.983-7.891,6.188-1.087,1.395-1.827,3.131-.977,7.148.311,1.45.511,3.6-.356,5.07-1.206,2.022-3.954,2.484-5.27,4.618C87.714,375.662,88.162,379.347,89.641,382.33Z" transform="translate(-83.668 -323.99)" fill="#263238"/>
          <path id="Trazado_23573" data-name="Trazado 23573" d="M140.011,393.2c3.443.148,5.845-4.23,4.228-7.074-1.014-1.8-2.877-2.928-3.9-4.728-1.69-2.946.74-4.775,2.438-6.963,3.653-4.738.913-9.06-2.137-13.123-2.311-3.085-2.292-6.049-1.726-9.743,0-.055.11-.046.1,0-.292,2.771-.475,5.477.913,7.97,1.142,2.032,2.886,3.62,3.973,5.707a8.386,8.386,0,0,1-.977,9.826,19.185,19.185,0,0,0-2.283,2.771c-1,2.42.594,4.11,2.1,5.726,1.151,1.228,2.429,2.6,2.594,4.387.237,2.706-2.74,5.68-5.343,5.412C139.874,393.359,139.865,393.2,140.011,393.2Z" transform="translate(-88.027 -325.627)" fill="#263238"/>
          <path id="Trazado_23574" data-name="Trazado 23574" d="M137.565,395.033c2.3-.831,4.758-1.505,6.393-3.463,2.457-2.881.74-5.818-.858-8.561a4.889,4.889,0,0,1-.913-3.694c.5-2.087,2.356-3.528,3.032-5.541,1.617-4.839-2.566-8.847-4.238-12.994s-1.616-8.755-1.635-13.244a.073.073,0,1,1,.146,0c.055,5.744.594,11.23,3.525,16.264,2.046,3.509,4.219,7.3,2.11,11.313-.521.988-1.324,1.847-1.827,2.771a4.856,4.856,0,0,0,.338,5.209c1,1.709,2.2,3.482,2.027,5.541-.338,4.045-4.722,5.855-8.055,6.733a.176.176,0,0,1-.046-.333Z" transform="translate(-87.929 -325.316)" fill="#263238"/>
          <path id="Trazado_23575" data-name="Trazado 23575" d="M88.749,372.306c2.128-2.059,5-2.771,4.986-6.289,0-2.457-.913-4.618.055-7.01a9.193,9.193,0,0,1,4.21-4.4c2.292-1.339,4.722-2.309,6.576-4.276,2.037-2.152,3.3-4.9,4.566-7.545,0-.055.119,0,.1,0-1.5,3.639-3.178,7.388-6.548,9.614-1.753,1.191-3.754,1.949-5.48,3.158-3.142,2.161-3.653,5.116-3.206,8.7.219,1.653.374,3.288-.621,4.729s-2.648,2.115-3.927,3.223c-5.48,4.719-.11,13.133,5.215,15.247.237.092.137.48-.11.388-4.009-1.459-7.653-6.141-7.772-10.482A6.825,6.825,0,0,1,88.749,372.306Z" transform="translate(-83.534 -324.956)" fill="#263238"/>
          <path id="Trazado_23576" data-name="Trazado 23576" d="M88.511,375.206c.53-2.494,2.32-3.583,3.881-5.31,2.448-2.724,1.1-6.142,1.489-9.448a8.262,8.262,0,0,1,3.233-5.44c2.283-1.847,4.95-2.992,6.959-5.255a16.714,16.714,0,0,0,3.936-8.654c0-.055.091,0,.091,0a15.8,15.8,0,0,1-6.21,11.082c-2.247,1.662-5.069,2.826-6.621,5.347-1.644,2.669-.722,5.541-.913,8.524a6.5,6.5,0,0,1-2.119,4.618,13.138,13.138,0,0,0-2.74,2.946,8.039,8.039,0,0,0-.511,5.467c1.233,5.689,6.037,10.048,11.051,11.9.174.065.1.369-.073.3a18.454,18.454,0,0,1-10.484-9.531A10.849,10.849,0,0,1,88.511,375.206Z" transform="translate(-83.671 -324.827)" fill="#263238"/>
          <path id="Trazado_23577" data-name="Trazado 23577" d="M117.213,372.749c3.653,4.812,23.243,20.253,40.239,20.558,5.772.1,22.64-24.252,25.919-33.626,2.356-6.733-11.818-10.648-15.882-9.808-5.078,1.053-13.955,21.925-17.553,22.165-5.772.379-16.695-3.389-28.75-5.541C114.985,365.453,114.437,369.055,117.213,372.749Z" transform="translate(-86.034 -325.491)" fill="#f7a9a0"/>
          <path id="Trazado_23578" data-name="Trazado 23578" d="M187.72,359.236c1-2.013,4.749-11.646,5.206-14.564s1.142-11.406-1.032-12.006-2.566,1.847-2.566,1.847-.274-3.63-2.512-4.008-2.74,3.482-2.74,3.482-.539-3.694-2.8-3.925-2.119,3.75-2.119,3.75-.338-3.408-2.274-2.771c-2.338.739-1,6.963-1.744,10.159-.164.72-4.42,14.4-4.42,14.4Z" transform="translate(-90.813 -323.984)" fill="#f7a9a0"/>
          <path id="Trazado_23579" data-name="Trazado 23579" d="M179.858,333.8c.968,4.571.612,6.751-.913,11.082,0,.083.082.148.119.065,1.927-4.091,2.74-6.751,1.059-11.2C180,333.519,179.813,333.574,179.858,333.8Z" transform="translate(-91.526 -324.256)" fill="#263238"/>
          <path id="Trazado_23580" data-name="Trazado 23580" d="M185.151,333.958c.594,4.849.228,7.2-1.1,11.858,0,.065.091.1.119,0,1.671-4.451,2.448-7.13,1.224-11.886C185.343,333.755,185.124,333.737,185.151,333.958Z" transform="translate(-91.97 -324.271)" fill="#263238"/>
          <path id="Trazado_23581" data-name="Trazado 23581" d="M190.823,335.174c.247,4.729-.055,7.333-1.909,11.692a.087.087,0,0,0,.041.115.085.085,0,0,0,.114-.042,15.852,15.852,0,0,0,1.9-11.757C190.914,334.888,190.814,334.879,190.823,335.174Z" transform="translate(-92.39 -324.359)" fill="#263238"/>
          <path id="Trazado_23582" data-name="Trazado 23582" d="M167.246,358.323a57.993,57.993,0,0,1-.082-8.469c.365-2.614,5.26-11.849,7.306-10.889,2.621,1.228.831,7.13-.42,9.9,0,0,6.082,2.854,5.7,7.388S167.246,358.323,167.246,358.323Z" transform="translate(-90.495 -324.661)" fill="#f7a9a0"/>
          <path id="Trazado_23583" data-name="Trazado 23583" d="M175.71,339.591c1.589,2.872-.283,6.409-1.3,9.189a.268.268,0,0,0,.132.355.246.246,0,0,0,.106.024c2.466,1.367,5.553,4.017,5.872,7a.064.064,0,1,0,.128,0c.091-3.251-2.74-6.1-5.525-7.388,1.087-2.835,2.8-6.465.612-9.152C175.719,339.563,175.7,339.572,175.71,339.591Z" transform="translate(-91.131 -324.713)" fill="#263238"/>
          <path id="Trazado_23584" data-name="Trazado 23584" d="M155.83,363.772l20.092,13.364s-10.822,16.457-17.215,17.87-27.216-6.779-37.837-16.568-6.539-13.16,4.84-10.473,22.33,4.959,24.11,4.147S155.83,363.772,155.83,363.772Z" transform="translate(-85.955 -326.563)" fill="#ffc100"/>
          <path id="Trazado_23585" data-name="Trazado 23585" d="M145.756,392.908c-8.411-2.992-18.5-8.312-24.887-14.167-9.717-8.931-7.133-12.542,2.082-11.036Z" transform="translate(-85.955 -326.838)" fill="#263238"/>
          <path id="Trazado_23586" data-name="Trazado 23586" d="M133.827,405.927v-.111s4.064-5.264,3.653-10.584c-.448-6.04-10.685-22.793-11.635-23.809-3.854-4.082-9.507-6.723-16.8-.554-7.617,6.465-15.526,22.5-21.005,35.094Z" transform="translate(-83.643 -326.826)" fill="#ffc100"/>
          <path id="Trazado_23587" data-name="Trazado 23587" d="M103.386,406.167c2.95-7.056,8.219-18.018,11.48-24.594,6.037-12.228-3.142-12.93-6.621-9.309-6.831,7.047-18.695,20.078-24.019,29.987v3.916Z" transform="translate(-83.312 -327.066)" fill="#f7a9a0"/>
          <path id="Trazado_23588" data-name="Trazado 23588" d="M104.592,406.053c2.941-6.8,8.219-18.471,11.5-25.249,4.786-9.947-.621-16.494-9.27-8.09-6.923,6.733-17.288,20.078-22.585,29.359v3.981Z" transform="translate(-83.313 -326.952)" fill="#ffc100"/>
          <path id="Trazado_23589" data-name="Trazado 23589" d="M106.875,407.619c.219-.453.42-.868.548-1.164.795-1.847,1.6-3.694,2.375-5.6s1.58-3.74,2.32-5.634c.128-.323.265-.637.393-.924.174-.129,1.626-2.235,2.037-2.7.073-.074-.055-.185-.11-.111a12.03,12.03,0,0,1-1.242,1.394l-.219.268c.5-1.219,1-2.447,1.47-3.694,0-.092-.091-.157-.128-.074-1.087,2.531-1.827,4.054-2.8,6.049s-1.753,3.916-2.612,5.883-1.68,3.953-2.5,5.938c0,.1-.1.222-.155.36Z" transform="translate(-85.221 -328.519)" fill="#263238"/>
          <path id="Trazado_23590" data-name="Trazado 23590" d="M117.716,367.94c.237.831,4.466,6.04,8.219,5.661,1.224-.129.84-6.926.84-6.926l.082-.508,1.187-7.12-8.448-4.867-1.224-.637s-.192,1.967-.411,4.424v.748c0,.369-.073.739-.1,1.117s-.046.554-.064.859l-.055.923A48.423,48.423,0,0,0,117.716,367.94Z" transform="translate(-86.209 -325.781)" fill="#f7a9a0"/>
          <path id="Trazado_23591" data-name="Trazado 23591" d="M118.015,357.966a14.377,14.377,0,0,0,8.9,8.2l1.187-7.12-8.448-4.867-1.224-.637S118.234,355.491,118.015,357.966Z" transform="translate(-86.242 -325.781)" fill="#263238"/>
          <path id="Trazado_23592" data-name="Trazado 23592" d="M117.086,352.784s-3.288-3.491-4.9-2.244,1.269,6.594,3.452,7.056a2.106,2.106,0,0,0,2.6-1.47c.009-.033.017-.067.026-.1Z" transform="translate(-85.697 -325.53)" fill="#f7a9a0"/>
          <path id="Trazado_23593" data-name="Trazado 23593" d="M113.175,352.2v.055a5.394,5.394,0,0,1,3.242,2.928,1.171,1.171,0,0,0-1.652-.222,1.151,1.151,0,0,0-.174.166s0,.092.055.074a1.269,1.269,0,0,1,1.48.24,6.393,6.393,0,0,1,.858,1.053c.082.12.311,0,.237-.129h0C117,354.464,115.184,352.082,113.175,352.2Z" transform="translate(-85.822 -325.678)" fill="#263238"/>
          <path id="Trazado_23594" data-name="Trazado 23594" d="M136.48,344.443c2.95,12.32-4.018,15.488-6.639,16.125-2.384.582-10.576,2.253-14.768-9.688s.548-17.215,5.927-18.831S133.539,332.133,136.48,344.443Z" transform="translate(-85.848 -324.098)" fill="#f7a9a0"/>
          <path id="Trazado_23595" data-name="Trazado 23595" d="M135.532,343.983h-.913a1.411,1.411,0,0,1-.868-.2.446.446,0,0,1-.091-.545,1.1,1.1,0,0,1,1.032-.443,1.633,1.633,0,0,1,1.1.4.485.485,0,0,1-.031.679A.466.466,0,0,1,135.532,343.983Z" transform="translate(-87.594 -324.958)" fill="#263238"/>
          <path id="Trazado_23596" data-name="Trazado 23596" d="M126.348,345.824a8.6,8.6,0,0,0,.8-.323,1.371,1.371,0,0,0,.758-.489.439.439,0,0,0-.091-.536,1.078,1.078,0,0,0-1.114-.074,1.657,1.657,0,0,0-.913.739.492.492,0,0,0,.23.652A.475.475,0,0,0,126.348,345.824Z" transform="translate(-86.913 -325.072)" fill="#263238"/>
          <path id="Trazado_23597" data-name="Trazado 23597" d="M128.738,349.052s-.064.055-.055.092c.192.84.265,1.847-.438,2.263v.046C129.158,351.148,129.049,349.828,128.738,349.052Z" transform="translate(-87.129 -325.437)" fill="#263238"/>
          <path id="Trazado_23598" data-name="Trazado 23598" d="M127.7,348.262c-1.361.157-.913,2.909.32,2.771S128.847,348.123,127.7,348.262Z" transform="translate(-87.009 -325.376)" fill="#263238"/>
          <path id="Trazado_23599" data-name="Trazado 23599" d="M127.061,348.5c-.21.194-.4.508-.685.582s-.621-.166-.913-.416c0,0-.055,0,0,.046.073.526.356,1.034.913,1.025s.822-.526.913-1.081C127.253,348.556,127.152,348.426,127.061,348.5Z" transform="translate(-86.886 -325.393)" fill="#263238"/>
          <path id="Trazado_23600" data-name="Trazado 23600" d="M134.524,347.752s.073,0,.073.065c.091.859.347,1.847,1.151,1.995v.046C134.78,349.867,134.46,348.583,134.524,347.752Z" transform="translate(-87.673 -325.338)" fill="#263238"/>
          <path id="Trazado_23601" data-name="Trazado 23601" d="M135.126,346.65c1.343-.3,1.827,2.429.6,2.715S134,346.918,135.126,346.65Z" transform="translate(-87.672 -325.252)" fill="#263238"/>
          <path id="Trazado_23602" data-name="Trazado 23602" d="M135.83,346.719c.237.1.493.323.758.3s.466-.379.6-.693h0a1.106,1.106,0,0,1-.438,1.293c-.438.194-.858-.212-1.078-.711C135.684,346.83,135.73,346.673,135.83,346.719Z" transform="translate(-87.774 -325.228)" fill="#263238"/>
          <path id="Trazado_23603" data-name="Trazado 23603" d="M130.306,356.071c.228.175.457.434.767.425a2.25,2.25,0,0,0,.913-.314h0a1.12,1.12,0,0,1-1.023.582.915.915,0,0,1-.749-.683C130.215,356.071,130.279,356.043,130.306,356.071Z" transform="translate(-87.3 -325.973)" fill="#263238"/>
          <path id="Trazado_23604" data-name="Trazado 23604" d="M133.361,351.42a18.918,18.918,0,0,1,.475,1.847c0,.055-.128.1-.329.148h0a2.851,2.851,0,0,1-2.913-.61.064.064,0,0,1,.007-.091.063.063,0,0,1,.066-.011,4.182,4.182,0,0,0,2.74.314c0-.166-.721-2.1-.63-2.124a5.3,5.3,0,0,1,1.4.083c-.721-2.614-1.827-5.079-2.521-7.693a.081.081,0,0,1,.067-.1.083.083,0,0,1,.079.031,44.352,44.352,0,0,1,3.069,8.173C134.9,351.734,133.616,351.485,133.361,351.42Z" transform="translate(-87.332 -324.989)" fill="#263238"/>
          <path id="Trazado_23605" data-name="Trazado 23605" d="M133.378,353.986a3.477,3.477,0,0,1-1.16,1.358,1.571,1.571,0,0,1-.913.249c-.712-.046-.858-.674-.84-1.238a4,4,0,0,1,.146-.924A4.449,4.449,0,0,0,133.378,353.986Z" transform="translate(-87.322 -325.772)" fill="#263238"/>
          <path id="Trazado_23606" data-name="Trazado 23606" d="M132.218,355.419a1.571,1.571,0,0,1-.913.249c-.712-.046-.858-.674-.84-1.238A1.632,1.632,0,0,1,132.218,355.419Z" transform="translate(-87.322 -325.847)" fill="#ff99ba"/>
          <path id="Trazado_23607" data-name="Trazado 23607" d="M115.807,351.537c2.046-.268,1.617-4.618,1.617-4.618s4.091-.859,4.2-7.084a9.5,9.5,0,0,1-.785,5.3s7.041-2.309,8.8-9.051a16.591,16.591,0,0,1-1.461,4.71,8.707,8.707,0,0,0,3.8-4.295s1.991,3.251,3.169,4.017c0,0-2.959-12.689-14.357-8.848,0,0-7.206,2.05-8.612,8.469S115.807,351.537,115.807,351.537Z" transform="translate(-85.715 -324.053)" fill="#263238"/>
          <path id="Trazado_23608" data-name="Trazado 23608" d="M117.849,367.17a14.92,14.92,0,0,0-7.114,4s8.046,5.07,14.7,3.888c3-.536,4.566-5.643,4.566-5.643S124.087,366.33,117.849,367.17Z" transform="translate(-85.611 -326.811)" fill="#f7a9a0"/>
          <path id="Trazado_23609" data-name="Trazado 23609" d="M109.955,372.866a38.076,38.076,0,0,0,5.69,2.771,22.329,22.329,0,0,0,6.055,1.533,13.273,13.273,0,0,0,3.087,0,10.385,10.385,0,0,0,1.507-.314,4.268,4.268,0,0,0,1.324-.674,9.075,9.075,0,0,0,2.064-2.309A18.459,18.459,0,0,0,131.2,371.1a11.6,11.6,0,0,1-3.26,5.541,4.146,4.146,0,0,1-1.47.831,10.434,10.434,0,0,1-1.589.369,13.6,13.6,0,0,1-3.242.083,20.693,20.693,0,0,1-6.192-1.718A25.916,25.916,0,0,1,109.955,372.866Z" transform="translate(-85.543 -327.123)" fill="#263238"/>
        </g>
        <path id="Trazado_23610" data-name="Trazado 23610" d="M95.9,336.333a11.3,11.3,0,0,0,1.9-6.2c0-7.85-8.521-14.2-19.023-14.2s-19.023,6.354-19.023,14.2,8.521,14.213,19.023,14.213A22.644,22.644,0,0,0,91.9,340.415l6.548,1.681Z" transform="translate(-59.749 -315.932)" fill="#ffc100"/>
        <path id="Trazado_23611" data-name="Trazado 23611" d="M72.714,331.147a1.973,1.973,0,1,1-1.973-1.995,1.984,1.984,0,0,1,1.973,1.995Z" transform="translate(-60.531 -316.943)" fill="#263238"/>
        <path id="Trazado_23612" data-name="Trazado 23612" d="M82.364,331.147a1.973,1.973,0,1,1-1.973-1.995,1.984,1.984,0,0,1,1.973,1.995Z" transform="translate(-61.368 -316.943)" fill="#263238"/>
        <path id="Trazado_23613" data-name="Trazado 23613" d="M92.014,331.147a1.973,1.973,0,1,1-1.972-1.995h.036A1.984,1.984,0,0,1,92.014,331.147Z" transform="translate(-62.205 -316.943)" fill="#263238"/>
      </g>
      <g id="Grupo_102" data-name="Grupo 102" transform="translate(109.461 93.801)">
        <path id="Trazado_230" data-name="Trazado 230" d="M282.745,190.172h-.014A20.361,20.361,0,0,0,264.5,201.556l-27.428,53.586a27.379,27.379,0,0,0-13.839-12.167,26.7,26.7,0,0,0,5.881-37.005,26.3,26.3,0,0,0-9.2-8.012,52.728,52.728,0,0,0-24.857-6.177h-41.02a15.322,15.322,0,0,0-15.252,15.391v77.218A15.321,15.321,0,0,0,154.02,299.8H198.4a60.408,60.408,0,0,0,24.081-4.987l2.809-1.374c.162-.076.315-.163.462-.239a15.141,15.141,0,0,0,20.907,5.272,15.353,15.353,0,0,0,6.029-6.846,8.09,8.09,0,0,1,7.072-4.971h45.964a8.1,8.1,0,0,1,7.076,4.971,15.172,15.172,0,0,0,20.172,7.676,15.5,15.5,0,0,0,6.981-21.608l-38.962-76.136a20.369,20.369,0,0,0-18.241-11.384Z" transform="translate(-138.787 -190.172)" fill="#9eaab8"/>
      </g>
      <g id="Grupo_17803" data-name="Grupo 17803" transform="translate(344.456 154.935)">
        <g id="freepik--character-5--inject-19" transform="translate(0 1.372)">
          <rect id="Rectángulo_8870" data-name="Rectángulo 8870" width="129.114" height="130.564" transform="translate(35.385 0.763)" fill="#fff"/>
          <path id="Trazado_23614" data-name="Trazado 23614" d="M497.852,389.357H367.246V257.268H497.852Zm-129.1-1.524H496.345V258.793H368.754Z" transform="translate(-332.615 -257.268)" fill="#ebebeb"/>
          <path id="Trazado_23615" data-name="Trazado 23615" d="M379.7,264.185a3.85,3.85,0,1,1,0-.015Z" transform="translate(-330.148 -255.663)" fill="#a6a6a6"/>
          <path id="Trazado_23616" data-name="Trazado 23616" d="M389.995,264.185a3.85,3.85,0,1,1,0-.015Z" transform="translate(-324.924 -255.663)" fill="#ebebeb"/>
          <path id="Trazado_23617" data-name="Trazado 23617" d="M400.285,264.185a3.85,3.85,0,1,1,0-.015Z" transform="translate(-319.701 -255.663)" fill="#ffc100"/>
          <rect id="Rectángulo_8871" data-name="Rectángulo 8871" width="129.114" height="1.525" transform="translate(35.385 15.277)" fill="#ebebeb"/>
          <path id="Trazado_23618" data-name="Trazado 23618" d="M460.945,325.486c-5.654,8.157-37.1,34.852-65.115,36.422-9.513.518-38.822-38.618-44.807-53.878-4.3-10.947,18.845-18.295,25.63-17.151,8.443,1.418,24.363,35.294,30.3,35.462,9.543.244,27.333-6.632,47.1-10.855C464.187,313.3,465.317,319.2,460.945,325.486Z" transform="translate(-341.118 -239.698)" fill="#dd6a57"/>
          <path id="Trazado_23619" data-name="Trazado 23619" d="M438.741,320.322c-6.95,10.566-30.153,27.9-30.153,27.9l-3.377-7.242L394.326,317.06s21.438-6.937,35.55-10.123a30.872,30.872,0,0,1,5.05-.762C443.927,305.549,444.741,311.251,438.741,320.322Z" transform="translate(-318.868 -231.638)" fill="#455a64"/>
          <path id="Trazado_23620" data-name="Trazado 23620" d="M406.323,310.648a12.044,12.044,0,0,1,0,6.1A11.622,11.622,0,0,1,406.323,310.648Z" transform="translate(-312.985 -229.266)" fill="#fff"/>
          <path id="Trazado_23621" data-name="Trazado 23621" d="M406.3,318.886a11.657,11.657,0,0,1-6.031,0,9.79,9.79,0,0,1,3.015-.4A10.285,10.285,0,0,1,406.3,318.886Z" transform="translate(-315.853 -225.155)" fill="#fdd306"/>
          <path id="Trazado_23622" data-name="Trazado 23622" d="M426.577,307.685a11.724,11.724,0,0,1-6.031,0,10.388,10.388,0,0,1,3.015-.4A10.887,10.887,0,0,1,426.577,307.685Z" transform="translate(-305.558 -231.029)" fill="#fff"/>
          <path id="Trazado_23623" data-name="Trazado 23623" d="M413.476,315.678a11.809,11.809,0,0,1,4.267,4.314A11.785,11.785,0,0,1,413.476,315.678Z" transform="translate(-309.147 -226.628)" fill="#fff"/>
          <path id="Trazado_23624" data-name="Trazado 23624" d="M405.776,325.228a10.985,10.985,0,0,1,2.412,1.875,10.184,10.184,0,0,1,1.854,2.439,10.814,10.814,0,0,1-2.4-1.875A10.631,10.631,0,0,1,405.776,325.228Z" transform="translate(-313.056 -221.618)" fill="#fff"/>
          <path id="Trazado_23625" data-name="Trazado 23625" d="M435.076,320.322c-6.95,10.566-30.153,27.9-30.153,27.9l-3.377-7.242c8.639-10.276,21.981-25.918,29.655-34.806C440.262,305.549,441.076,311.251,435.076,320.322Z" transform="translate(-315.203 -231.638)" fill="#263238"/>
          <path id="Trazado_23626" data-name="Trazado 23626" d="M410.62,339.521c-1.809-4.406-9.845-22.137-11.85-25.918-.136-.259-.332-.244-.211,0a260.148,260.148,0,0,0,11.9,25.918C410.484,339.689,410.62,339.627,410.62,339.521Z" transform="translate(-316.739 -227.815)" fill="#263238"/>
          <path id="Trazado_23627" data-name="Trazado 23627" d="M354.95,319.833c-1.764-3.248-8.548-18.9-9.468-23.692s-2.593-18.737.965-19.819,4.357,3.049,4.357,3.049.226-6.007,3.89-6.784,4.734,5.58,4.734,5.58.678-6.1,4.387-6.647,3.724,6.1,3.724,6.1.362-5.656,3.588-4.757c3.89,1.067,2.081,11.419,3.483,16.633.316,1.174,8.171,23.478,8.171,23.478Z" transform="translate(-344.276 -249.809)" fill="#dd6a57"/>
          <path id="Trazado_23628" data-name="Trazado 23628" d="M360.242,275.157c-1.312,7.623-.588,11.175,2.276,18.219,0,.137-.136.259-.211.122-3.422-6.647-4.96-10.977-2.427-18.417C360.015,274.7,360.317,274.806,360.242,275.157Z" transform="translate(-336.993 -248.05)" fill="#263238"/>
          <path id="Trazado_23629" data-name="Trazado 23629" d="M354.8,275.51c-.694,8.019,0,11.892,2.518,19.484,0,.107-.136.183-.181.076-3.015-7.242-4.523-11.6-2.744-19.545C354.468,275.175,354.83,275.129,354.8,275.51Z" transform="translate(-339.527 -247.839)" fill="#263238"/>
          <path id="Trazado_23630" data-name="Trazado 23630" d="M348.928,276.973c-.106,7.821.543,12.09,3.859,19.164a.14.14,0,0,1-.053.191.136.136,0,0,1-.188-.053h0a26.149,26.149,0,0,1-3.845-19.286C348.777,276.5,348.943,276.47,348.928,276.973Z" transform="translate(-342.264 -247.122)" fill="#263238"/>
          <path id="Trazado_23631" data-name="Trazado 23631" d="M380.346,311.572a97.1,97.1,0,0,0-.377-13.98c-.754-4.284-9.408-19.21-12.695-17.517-4.251,2.211-.95,11.815,1.282,16.313,0,0-9.845,5.092-8.94,12.5S380.346,311.572,380.346,311.572Z" transform="translate(-336.518 -245.374)" fill="#dd6a57"/>
          <path id="Trazado_23632" data-name="Trazado 23632" d="M366.439,280.689c-2.442,4.848.859,10.55,2.7,15.078a.462.462,0,0,1-.229.605.452.452,0,0,1-.133.035c-4,2.409-8.925,6.983-9.257,11.922a.113.113,0,0,1-.226,0c-.347-5.351,4.131-10.245,8.669-12.593-1.96-4.574-5.021-10.489-1.508-15.063C366.424,280.643,366.454,280.658,366.439,280.689Z" transform="translate(-336.662 -244.999)" fill="#263238"/>
          <path id="Trazado_23633" data-name="Trazado 23633" d="M410.523,322.5a63.8,63.8,0,0,0-1.236,6.6,1.315,1.315,0,0,1,0-.244c-.09-1.25-.166-2.516-.362-3.735m-.121,0a19.787,19.787,0,0,0,.091,3.781,11.559,11.559,0,0,0,.211,1.769c-.121,1.006-.226,2.012-.3,3.049-.136,1.875-.633,9.94-.618,11.328,0,.3.347.335.407,0,.3-1.433,1.146-9.727,1.372-11.6a101.656,101.656,0,0,0,.724-10.916c-.03-.122-.151-.107-.166-.03Z" transform="translate(-311.833 -223.081)" fill="#263238"/>
          <path id="Trazado_23634" data-name="Trazado 23634" d="M475.861,363.716v-6.922c-7.794-17.35-19.991-38.709-36.877-51.927-3.98-3.049-12.423-1.784-17.775,1.372-1.915,1.113-8.352,11.633-9.769,21.268-.709,4.894-2.457,21.115-3.634,36.209Z" transform="translate(-312.025 -233.213)" fill="#455a64"/>
          <path id="Trazado_23635" data-name="Trazado 23635" d="M421.358,321.568a11.115,11.115,0,0,1,0,3.049,10.381,10.381,0,0,1-.814,2.958,11.418,11.418,0,0,1,.814-6.007Z" transform="translate(-305.616 -223.538)" fill="#fff"/>
          <path id="Trazado_23636" data-name="Trazado 23636" d="M442.006,333.358a11.112,11.112,0,0,1,0,3.049,11.814,11.814,0,0,1-.814,2.973,11.1,11.1,0,0,1,0-3.049A10.5,10.5,0,0,1,442.006,333.358Z" transform="translate(-295.131 -217.353)" fill="#fff"/>
          <path id="Trazado_23637" data-name="Trazado 23637" d="M434.831,328.208a10.516,10.516,0,0,1-3.016,0,11.227,11.227,0,0,1-2.94-.823,10.757,10.757,0,0,1,3.015,0A11.24,11.24,0,0,1,434.831,328.208Z" transform="translate(-301.329 -220.543)" fill="#fff"/>
          <path id="Trazado_23638" data-name="Trazado 23638" d="M427.276,307.608a10.631,10.631,0,0,1-3.015,0,11.106,11.106,0,0,1-2.925-.823,10.622,10.622,0,0,1,3.015,0A11.369,11.369,0,0,1,427.276,307.608Z" transform="translate(-305.157 -231.349)" fill="#fff"/>
          <path id="Trazado_23639" data-name="Trazado 23639" d="M431.806,310.838a10.923,10.923,0,0,1,2.126,2.21,10.467,10.467,0,0,1,1.508,2.668,10.721,10.721,0,0,1-2.126-2.2A10.973,10.973,0,0,1,431.806,310.838Z" transform="translate(-299.842 -229.167)" fill="#fff"/>
          <path id="Trazado_23640" data-name="Trazado 23640" d="M449.3,335.868a10.811,10.811,0,0,1,2.126,2.2,10.586,10.586,0,0,1,1.507,2.683,11.728,11.728,0,0,1-3.618-4.879Z" transform="translate(-290.964 -216.037)" fill="#fdd306"/>
          <path id="Trazado_23641" data-name="Trazado 23641" d="M415.956,333.528a12.2,12.2,0,0,1,3.633,4.894A12.165,12.165,0,0,1,415.956,333.528Z" transform="translate(-307.888 -217.264)" fill="#fdd306"/>
          <path id="Trazado_23642" data-name="Trazado 23642" d="M413.2,313.748a10.806,10.806,0,0,1,2.126,2.2,11.076,11.076,0,0,1,1.508,2.683,10.844,10.844,0,0,1-2.126-2.211A10.689,10.689,0,0,1,413.2,313.748Z" transform="translate(-309.289 -227.64)" fill="#fdd306"/>
          <path id="Trazado_23643" data-name="Trazado 23643" d="M409.356,330.012a10.85,10.85,0,0,1,2.171-2.15,10.352,10.352,0,0,1,2.654-1.525,10.837,10.837,0,0,1-2.186,2.15A11,11,0,0,1,409.356,330.012Z" transform="translate(-311.238 -221.036)" fill="#fdd306"/>
          <path id="Trazado_23644" data-name="Trazado 23644" d="M438.356,325.012a10.881,10.881,0,0,1,2.186-2.15,10.268,10.268,0,0,1,2.638-1.525,11.842,11.842,0,0,1-4.825,3.674Z" transform="translate(-296.517 -223.659)" fill="#fff"/>
          <path id="Trazado_23645" data-name="Trazado 23645" d="M429.706,341.012a10.888,10.888,0,0,1,2.186-2.15,10.55,10.55,0,0,1,2.638-1.524,11.844,11.844,0,0,1-4.825,3.674Z" transform="translate(-300.908 -215.266)" fill="#fff"/>
          <path id="Trazado_23646" data-name="Trazado 23646" d="M423.451,327.822c4.9-.229,10.78-9.59,12.272-16.237.105-.457-1.674-4.436-3.588-9.376-1.161-3.049-2.382-6.388-3.272-9.544-.181-.64-2.02,1.174-2.02,1.174l-3.769,2.15-12.438,7.135a52.18,52.18,0,0,1,5.307,11.587,8.817,8.817,0,0,1,.241,1.326.647.647,0,0,0,0,.229C416.531,318.781,418.717,328.035,423.451,327.822Z" transform="translate(-310.589 -238.771)" fill="#dd6a57"/>
          <path id="Trazado_23647" data-name="Trazado 23647" d="M416.194,315.439a.65.65,0,0,0,0,.229,12.631,12.631,0,0,0,2.035-.473c13.117-4.1,9.98-21.527,9.98-21.527l-5.156,1.723-12.438,7.135a52.178,52.178,0,0,1,5.307,11.587A9.05,9.05,0,0,1,416.194,315.439Z" transform="translate(-310.599 -238.174)" fill="#263238"/>
          <path id="Trazado_23648" data-name="Trazado 23648" d="M430.247,280.656c3.92,6.525,5.367,27.93,1.508,33.769-5.563,8.461-17.217,12.2-24.966,4.787-7.538-7.12-8.925-35.065-4.4-40.6C409.064,270.4,424.457,271.021,430.247,280.656Z" transform="translate(-316.088 -249.067)" fill="#dd6a57"/>
          <path id="Trazado_23649" data-name="Trazado 23649" d="M421.316,299.918h0" transform="translate(-305.167 -234.895)" fill="none"/>
          <path id="Trazado_23650" data-name="Trazado 23650" d="M409.451,289.958a.118.118,0,0,1,.121.122c0,1.433.362,3.049,1.689,3.461v.092C409.616,293.526,409.27,291.33,409.451,289.958Z" transform="translate(-311.213 -240.12)" fill="#263238"/>
          <path id="Trazado_23651" data-name="Trazado 23651" d="M410.611,288.915c2.276-.351,2.789,4.284.678,4.574S408.7,289.2,410.611,288.915Z" transform="translate(-311.211 -240.677)" fill="#263238"/>
          <path id="Trazado_23652" data-name="Trazado 23652" d="M404.027,290.478s-.105.091-.091.137c.2,1.433.2,3.049-1.04,3.735v.076C404.464,294.03,404.449,291.8,404.027,290.478Z" transform="translate(-314.518 -239.847)" fill="#263238"/>
          <path id="Trazado_23653" data-name="Trazado 23653" d="M403.231,289.588c-2.307.092-1.975,4.741.166,4.665S405.161,289.527,403.231,289.588Z" transform="translate(-315.155 -240.314)" fill="#263238"/>
          <path id="Trazado_23654" data-name="Trazado 23654" d="M412.537,288.452c-.633-.092-1.221-.29-1.839-.442a3,3,0,0,1-1.794-.793,1,1,0,0,1,0-1.2,2.412,2.412,0,0,1,2.4-.533,3.6,3.6,0,0,1,2.2,1.311,1.076,1.076,0,0,1-.282,1.483A1.045,1.045,0,0,1,412.537,288.452Z" transform="translate(-311.57 -242.532)" fill="#263238"/>
          <path id="Trazado_23655" data-name="Trazado 23655" d="M401.785,289.353c.618-.183,1.176-.457,1.764-.686a3.082,3.082,0,0,0,1.673-1.052,1,1,0,0,0-.181-1.189,2.422,2.422,0,0,0-2.442-.183,3.539,3.539,0,0,0-2.005,1.616,1.057,1.057,0,0,0,.457,1.415A1.022,1.022,0,0,0,401.785,289.353Z" transform="translate(-315.744 -242.198)" fill="#263238"/>
          <path id="Trazado_23656" data-name="Trazado 23656" d="M412.078,298.309c-.3.381-.588.869-1.1.976a3.618,3.618,0,0,1-1.508-.183s-.09,0,0,.076a1.9,1.9,0,0,0,1.885.579,1.523,1.523,0,0,0,.965-1.4C412.229,298.279,412.123,298.248,412.078,298.309Z" transform="translate(-311.201 -235.756)" fill="#263238"/>
          <path id="Trazado_23657" data-name="Trazado 23657" d="M412.76,300.7a4.869,4.869,0,0,1-3.015,2.546,5.816,5.816,0,0,1-1.719.274h-.663a.331.331,0,0,1-.317-.29h0a.518.518,0,0,1,0-.152h0v-.122c-.151-1.1-.241-2.79-.241-2.79-.377.244-2.307,1.4-2.337.823a74.446,74.446,0,0,1,.226-15,.136.136,0,1,1,.271,0c.422,4.574,0,9.268.377,13.919a8.433,8.433,0,0,1,2.2-.961c.166,0,.105,3.276.211,3.766h0a6.681,6.681,0,0,0,4.825-2.134C412.715,300.5,412.836,300.575,412.76,300.7Z" transform="translate(-313.859 -242.275)" fill="#263238"/>
          <path id="Trazado_23658" data-name="Trazado 23658" d="M407.136,297.8a5.823,5.823,0,0,0,2.5,1.525,2.513,2.513,0,0,0,1.508-.092c1.1-.427,1.025-1.525.708-2.363a6.533,6.533,0,0,0-.663-1.311A7.511,7.511,0,0,1,407.136,297.8Z" transform="translate(-312.365 -237.182)" fill="#263238"/>
          <path id="Trazado_23659" data-name="Trazado 23659" d="M408.8,298.883a2.511,2.511,0,0,0,1.508-.091c1.1-.427,1.025-1.525.709-2.363A2.7,2.7,0,0,0,408.8,298.883Z" transform="translate(-311.523 -236.726)" fill="#ff99ba"/>
          <path id="Trazado_23660" data-name="Trazado 23660" d="M433.621,299.216c-3.6.473-4.9-8.4-4.9-8.4s-5.623,0-9.679-6.982c0,0-6.166,5.763-12.227,5.793-9.513,0-11.5-12.059-8.518-15.169,4.221-4.406,13.84-.991,13.84-.991s12.453-6.19,18.092,2.043a6.871,6.871,0,0,1,7.538,5.61C439.335,287.6,436.3,298.881,433.621,299.216Z" transform="translate(-317.503 -249.942)" fill="#263238"/>
          <path id="Trazado_23661" data-name="Trazado 23661" d="M422.863,288.159a12.323,12.323,0,0,1-7.538-2.485,9.4,9.4,0,0,1-3.6-7.745.121.121,0,0,0-.241,0,10.738,10.738,0,0,0,3.09,8.538,8.523,8.523,0,0,0,8.352,1.967C423.029,288.388,423.029,288.159,422.863,288.159Z" transform="translate(-310.182 -246.493)" fill="#263238"/>
          <path id="Trazado_23662" data-name="Trazado 23662" d="M426.5,275.7c-2.246-1.982-5.081-1.814-7.795-1.2-.151,0-.09.29,0,.244a7.7,7.7,0,0,1,7.538,2.439c1.779,1.921,1.975,4.726,1.87,7.242a19.728,19.728,0,0,1-5.473,12.944s0,.153.075.091a19.658,19.658,0,0,0,6.211-14.209C428.944,280.628,428.567,277.533,426.5,275.7Z" transform="translate(-306.538 -248.444)" fill="#263238"/>
          <path id="Trazado_23663" data-name="Trazado 23663" d="M412.6,273.964a9.108,9.108,0,0,0-5.774-2.942,10.835,10.835,0,0,0-7.538,2.226,6.258,6.258,0,0,0-2.216,5.839,11.013,11.013,0,0,0,3.679,6.388s.12,0,0-.076a11.064,11.064,0,0,1-3.015-5.87,5.761,5.761,0,0,1,2.352-5.61c3.452-2.409,9.046-3.186,12.212.229C412.526,274.253,412.707,274.086,412.6,273.964Z" transform="translate(-317.514 -250.074)" fill="#263238"/>
          <path id="Trazado_23664" data-name="Trazado 23664" d="M419.916,292.006s3.015-7.73,6.422-6.769,2.126,11.4-1.07,13.538a3.621,3.621,0,0,1-5.117-.671q-.052-.066-.1-.137Z" transform="translate(-305.878 -242.64)" fill="#dd6a57"/>
          <path id="Trazado_23665" data-name="Trazado 23665" d="M425.275,287.168s.091,0,0,.092a9.319,9.319,0,0,0-3.332,6.784,2,2,0,0,1,2.8-1.235c.075,0,0,.137,0,.152a2.261,2.261,0,0,0-2.231,1.326,10.743,10.743,0,0,0-.694,2.258c-.075.244-.5.213-.467,0h0C420.586,293.282,422,288.266,425.275,287.168Z" transform="translate(-305.251 -241.583)" fill="#263238"/>
          <path id="Trazado_23666" data-name="Trazado 23666" d="M452.131,360.079c-2.668-18.722-8.367-40.112-13.9-47.17-4.629-5.915-12.3-3.827-12.152,17.837,0,8.019-.709,19.454-1.643,29.333Z" transform="translate(-303.583 -229.576)" fill="#dd6a57"/>
          <path id="Trazado_23667" data-name="Trazado 23667" d="M427.053,322.119c2.352-20.368,11.428-18.295,17.971-1.2a294.082,294.082,0,0,1,10.554,36.59l-32.791,1.525S425.56,335.154,427.053,322.119Z" transform="translate(-304.421 -230.934)" fill="#455a64"/>
          <path id="Trazado_23668" data-name="Trazado 23668" d="M442.006,333.358a11.112,11.112,0,0,1,0,3.049,11.814,11.814,0,0,1-.814,2.973,11.1,11.1,0,0,1,0-3.049A10.5,10.5,0,0,1,442.006,333.358Z" transform="translate(-295.131 -217.353)" fill="#fdd306"/>
          <path id="Trazado_23669" data-name="Trazado 23669" d="M434.831,328.208a10.516,10.516,0,0,1-3.016,0,11.227,11.227,0,0,1-2.94-.823,10.757,10.757,0,0,1,3.015,0A11.24,11.24,0,0,1,434.831,328.208Z" transform="translate(-301.329 -220.543)" fill="#fdd306"/>
          <path id="Trazado_23670" data-name="Trazado 23670" d="M431.806,310.838a10.923,10.923,0,0,1,2.126,2.21,10.467,10.467,0,0,1,1.508,2.668,10.721,10.721,0,0,1-2.126-2.2A10.973,10.973,0,0,1,431.806,310.838Z" transform="translate(-299.842 -229.167)" fill="#fdd306"/>
          <path id="Trazado_23671" data-name="Trazado 23671" d="M438.356,325.012a10.881,10.881,0,0,1,2.186-2.15,10.268,10.268,0,0,1,2.638-1.525,11.842,11.842,0,0,1-4.825,3.674Z" transform="translate(-296.517 -223.659)" fill="#fff"/>
          <path id="Trazado_23672" data-name="Trazado 23672" d="M429.706,341.012a10.888,10.888,0,0,1,2.186-2.15,10.55,10.55,0,0,1,2.638-1.524,11.844,11.844,0,0,1-4.825,3.674Z" transform="translate(-300.908 -215.266)" fill="#fff"/>
          <path id="Trazado_23673" data-name="Trazado 23673" d="M426.15,321.243c-.347,2.683-.769,5.351-1.176,8.019-.15-1.159-.346-2.287-.6-3.43H424.3c.121.915.2,1.831.332,2.744l.181,1.326v.275c-.317,2.089-.618,4.162-.874,6.266-.317,2.485-.558,4.985-.814,7.486s-.287,5.458-.633,8.034a16.825,16.825,0,0,0,3.2-.122c.3,0,.332-.32,0-.259s-2.8-.076-2.849-.092c.256-2.5.769-5,1.086-7.5s.663-4.986.935-7.486c.543-5.077.8-10.184,1.327-15.246C426.255,321.182,426.15,321.182,426.15,321.243Z" transform="translate(-304.573 -223.732)" fill="#263238"/>
          <path id="Trazado_23674" data-name="Trazado 23674" d="M442,325.955A30.016,30.016,0,0,0,442.1,329a4.78,4.78,0,0,0,.105,1.22q-1.418-4.757-2.864-9.483h0c1.3,5.275,2.578,10.535,3.965,15.764a154.383,154.383,0,0,0,4.206,14.926,18.631,18.631,0,0,0-2.88.518,13.131,13.131,0,0,0,3.377-.168q-1.671-7.988-4.131-15.779c-.407-1.433-.829-2.851-1.251-4.284-.121-.93-.166-1.86-.226-2.805s-.211-1.982-.332-2.973C442.1,325.894,442,325.894,442,325.955Z" transform="translate(-296.343 -225.074)" fill="#263238"/>
          <path id="Trazado_23675" data-name="Trazado 23675" d="M452.24,337.571c-4.7-.076-24,.351-28.162.716-.3,0-.347.214,0,.229a255.762,255.762,0,0,0,28.208-.762C452.346,337.739,452.361,337.571,452.24,337.571Z" transform="translate(-303.889 -215.148)" fill="#263238"/>
        </g>
        <path id="Trazado_23676" data-name="Trazado 23676" d="M438.392,290.046a18.621,18.621,0,0,1-3.136-10.215c0-12.959,14.066-23.463,31.4-23.463s31.389,10.5,31.389,23.448-14.051,23.448-31.4,23.448a37.375,37.375,0,0,1-21.665-6.479l-10.795,2.851Z" transform="translate(-298.634 -256.368)" fill="#c93b3b"/>
        <path id="Trazado_23677" data-name="Trazado 23677" d="M463.216,272.881a3.257,3.257,0,1,0,3.256-3.293,3.275,3.275,0,0,0-3.256,3.293Z" transform="translate(-283.897 -249.433)" fill="#fff"/>
        <path id="Trazado_23678" data-name="Trazado 23678" d="M453.546,272.881a3.257,3.257,0,1,0,3.257-3.293,3.275,3.275,0,0,0-3.257,3.293Z" transform="translate(-288.806 -249.433)" fill="#fff"/>
        <path id="Trazado_23679" data-name="Trazado 23679" d="M443.916,272.881a3.257,3.257,0,1,0,3.256-3.293,3.275,3.275,0,0,0-3.256,3.293Z" transform="translate(-293.695 -249.433)" fill="#fff"/>
      </g>
      <g id="freepik--background-complete--inject-11" transform="translate(-148 0)">
        <path id="Trazado_23680" data-name="Trazado 23680" d="M38.514,281.079H69.733s-2.758-5.084-10.8-4.341c-7.672.715-8.061-2.5-11.965-2.9S39.815,276.473,38.514,281.079Z" transform="translate(-38.514 -102.767)" fill="#e6ebf0"/>
        <path id="Trazado_23681" data-name="Trazado 23681" d="M388.872,233.053c-5.8-8.316-3.938-19.135-.374-28.173.594-1.508,1-3.174,2.2-4.29a3.2,3.2,0,0,1,4.321-.243c.933.936.954,2.438,1.187,3.753a9.551,9.551,0,0,0,2.327,4.713,3.61,3.61,0,0,0,3,1.43c1.563-.258,2.362-2.016,2.9-3.575l2.97-8.509a15.212,15.212,0,0,1,2.058-4.347,4.933,4.933,0,0,1,4.066-2.145,3.058,3.058,0,0,1,2.828,3.2,14.624,14.624,0,0,1-.63,1.9,1.717,1.717,0,0,0,.389,1.844,1.92,1.92,0,0,0,1.9-.1,21.074,21.074,0,0,0,5.537-4.169,29.449,29.449,0,0,1,5.359-4.426,8.5,8.5,0,0,1,6.612-1.116,5.242,5.242,0,0,1,3.79,5.17c-.219,2.31-2.227,4.062-4.186,5.306a35.391,35.391,0,0,1-9.39,4.269,2.978,2.978,0,0,0-1.619.844c-.707.894-.1,2.245.771,2.939a18.558,18.558,0,0,0,3.366,1.681,3.627,3.627,0,0,1,2.249,2.86c.056,1.773-1.8,2.931-3.451,3.539a30.358,30.358,0,0,1-10.267,1.866,10.117,10.117,0,0,0-3.712.4,2.977,2.977,0,0,0-2.036,2.86,3.02,3.02,0,0,0,2.651,2.316,22.065,22.065,0,0,0,3.754-.071c2.341-.036,4.95,1.08,5.657,3.361a5.158,5.158,0,0,1-1.011,4.44,11.514,11.514,0,0,1-3.613,2.917,30.4,30.4,0,0,1-15.451,4.29c-5.387-.064-9.984-1.229-14.142-4.719" transform="translate(-221.783 -50.381)" fill="#e6ebf0"/>
        <path id="Trazado_23682" data-name="Trazado 23682" d="M390.565,234.331c1.612-3.5.148-1.824,3.133-5.949a143.719,143.719,0,0,1,10.557-12.707l2.942-3.182c.969-1.044,1.923-2.081,2.921-3.032a70.582,70.582,0,0,1,6.06-5.148c2-1.545,3.96-2.94,5.8-4.226s3.585-2.446,5.211-3.439a56.659,56.659,0,0,1,8.033-4.1c.983-.407,1.754-.715,2.277-.887l.6-.207a.766.766,0,0,1,.2-.065.85.85,0,0,1-.191.093l-.594.236c-.516.208-1.28.515-2.256.936a59.541,59.541,0,0,0-7.926,4.176c-1.619,1-3.344,2.145-5.184,3.461s-3.783,2.689-5.776,4.233a72.812,72.812,0,0,0-6.018,5.141c-.99.951-1.937,1.98-2.906,3.025l-2.949,3.225a147.155,147.155,0,0,0-10.564,12.663c-2.984,4.1-1.521,2.395-3.161,5.877" transform="translate(-69.046 -145.257)" fill="#d1d8e0"/>
        <path id="Trazado_23683" data-name="Trazado 23683" d="M412.1,209.527a3.368,3.368,0,0,1,.085-.715c.07-.451.191-1.094.36-1.888.326-1.588.849-3.768,1.415-6.171s1.082-4.584,1.414-6.17c.149-.794.269-1.431.347-1.888a3.548,3.548,0,0,1,.148-.716,3.129,3.129,0,0,1,0,.716c-.042.45-.127,1.108-.254,1.909-.255,1.6-.708,3.8-1.3,6.206s-1.117,4.505-1.527,6.142l-.446,1.867A2.865,2.865,0,0,1,412.1,209.527Z" transform="translate(-70.913 -145.302)" fill="#d1d8e0"/>
        <path id="Trazado_23684" data-name="Trazado 23684" d="M432.74,214.363a5.171,5.171,0,0,1-.806-.193c-.509-.137-1.244-.336-2.171-.551-1.831-.45-4.391-.986-7.24-1.43s-5.451-.758-7.34-.923c-.94-.093-1.7-.143-2.234-.186a4.211,4.211,0,0,1-.82-.086,4.426,4.426,0,0,1,.828,0c.53,0,1.3,0,2.248.086,1.895.115,4.5.386,7.361.843a71.021,71.021,0,0,1,7.254,1.538c.912.243,1.648.479,2.122.651A3.9,3.9,0,0,1,432.74,214.363Z" transform="translate(-70.916 -146.754)" fill="#d1d8e0"/>
        <path id="Trazado_23685" data-name="Trazado 23685" d="M394.357,228.792a1.676,1.676,0,0,1-.049-.286c0-.222-.043-.493-.078-.822-.064-.716-.128-1.767-.2-3.053-.134-2.575-.206-6.142-.24-10.076s-.071-7.494-.156-10.075c-.042-1.251-.077-2.281-.1-3.046V200.6a.931.931,0,0,1,0-.294,1.269,1.269,0,0,1,.049.286c0,.222.043.493.078.829.064.715.128,1.759.2,3.046.134,2.575.212,6.142.24,10.076s.071,7.5.156,10.075c.042,1.251.078,2.281.1,3.046v.837A.882.882,0,0,1,394.357,228.792Z" transform="translate(-69.303 -143.987)" fill="#d1d8e0"/>
        <path id="Trazado_23686" data-name="Trazado 23686" d="M423.065,232.136a1,1,0,0,1-.3,0h-.834l-3.069-.1c-2.587-.079-6.173-.158-10.125-.236s-7.545-.186-10.133-.321c-1.294-.072-2.341-.136-3.061-.2l-.835-.071a.885.885,0,0,1-.289-.051,1.445,1.445,0,0,1,.3,0h.834l3.07.1c2.587.086,6.165.157,10.125.236s7.537.187,10.133.329c1.294.065,2.341.137,3.061.193l.835.079A1.026,1.026,0,0,1,423.065,232.136Z" transform="translate(-69.38 -148.297)" fill="#d1d8e0"/>
        <path id="Trazado_23687" data-name="Trazado 23687" d="M340.654,243.309a1.308,1.308,0,0,0,1.8.491,1.324,1.324,0,0,0,.531-.577l3.224-6.772a10.843,10.843,0,0,0,1.124-4.154c0-4.1-4.193-6.729-8.548-4.755a4.814,4.814,0,0,0-2.121,1.781c-1.464,2.253-1,4.934.064,7.151Zm2.673-7.472c-3.161,1.837-6.364-1.609-4.6-5.006a2.664,2.664,0,0,1,1.011-1.072c3.161-1.838,6.364,1.609,4.6,5a2.624,2.624,0,0,1-1.011,1.073Z" transform="translate(-211.337 -65.773)" fill="#e6ebf0"/>
        <path id="Trazado_23688" data-name="Trazado 23688" d="M209.111,158.693h39.711s-3.536-6.436-13.732-5.527c-9.766.9-10.261-3.175-15.224-3.676S210.765,152.836,209.111,158.693Z" transform="translate(-53.309 -93.257)" fill="#e6ebf0"/>
        <path id="Trazado_23689" data-name="Trazado 23689" d="M201.214,382.962h39.711s-3.535-6.436-13.732-5.521c-9.765.9-10.26-3.174-15.223-3.675S202.869,377.112,201.214,382.962Z" transform="translate(-52.624 -110.407)" fill="#e6ebf0"/>
        <path id="Trazado_23690" data-name="Trazado 23690" d="M340.155,370.463h37.476s-3.316-6.1-12.968-5.212c-9.193.852-9.688-3-14.376-3.475S341.7,364.951,340.155,370.463Z" transform="translate(-64.674 -109.49)" fill="#e6ebf0"/>
        <path id="Trazado_23691" data-name="Trazado 23691" d="M203.114,108.2a5.791,5.791,0,0,1-.155-1.208,10.317,10.317,0,0,0-.191-1.431,13.942,13.942,0,0,0-.417-1.951,18.8,18.8,0,0,0-24.353-13,17.144,17.144,0,0,0-4.667,2.524,20.6,20.6,0,0,0-2.122,1.787,21.248,21.248,0,0,0-1.81,2.145,18.7,18.7,0,0,0-.106,21.995,21.061,21.061,0,0,0,1.789,2.145,21.5,21.5,0,0,0,2.079,1.809,17.214,17.214,0,0,0,4.646,2.574,18.356,18.356,0,0,0,17.55-2.5,18.957,18.957,0,0,0,4.794-5.27,18.706,18.706,0,0,0,2.122-5.006,14.536,14.536,0,0,0,.438-1.952,10.591,10.591,0,0,0,.2-1.43,5.737,5.737,0,0,1,.169-1.215,5.425,5.425,0,0,1,.043,1.229,9.221,9.221,0,0,1-.106,1.48,14.128,14.128,0,0,1-.353,2.01,17.871,17.871,0,0,1-2.051,5.184,18.982,18.982,0,0,1-23.1,8.416,18.4,18.4,0,0,1-4.908-2.675,17.855,17.855,0,0,1-4.094-4.183,19.66,19.66,0,0,1,.107-23.218,22.58,22.58,0,0,1,1.923-2.26,22.015,22.015,0,0,1,2.213-1.88A18.191,18.191,0,0,1,177.7,89.7a19.128,19.128,0,0,1,23.051,8.652,18.119,18.119,0,0,1,2.008,5.206,12.771,12.771,0,0,1,.325,2.009,7.728,7.728,0,0,1,.092,1.488A5.106,5.106,0,0,1,203.114,108.2Z" transform="translate(53 -88.605)" fill="#e6ebf0"/>
        <path id="Trazado_23692" data-name="Trazado 23692" d="M199.544,96.961c.043.057-.289.365-.941.872l-1.2.909c-.24.171-.488.364-.763.55l-.919.507a21.2,21.2,0,0,1-11.066,3.054l-1.683-.043-1.619-.229-.785-.115-.771-.2c-.5-.136-1-.244-1.463-.386a24.3,24.3,0,0,1-4.759-2.1c-2.567-1.5-3.826-2.86-3.733-2.975s1.5,1.03,4.08,2.325a28.064,28.064,0,0,0,4.681,1.823c.452.128.926.214,1.414.336l.708.164.756.1,1.549.2h1.6a22.763,22.763,0,0,0,10.72-2.61l.933-.429c.29-.158.544-.33.792-.472l1.28-.716C199.084,97.1,199.5,96.9,199.544,96.961Z" transform="translate(52.56 -89.231)" fill="#e6ebf0"/>
        <path id="Trazado_23693" data-name="Trazado 23693" d="M169.731,122.308c-.043-.065.3-.365.94-.879l1.2-.9c.24-.172.488-.365.763-.55l.919-.515a21.267,21.267,0,0,1,11.066-3.046l1.683.043,1.619.222c.268.042.531.071.784.121l.764.187c.495.128.99.236,1.457.379a24.274,24.274,0,0,1,4.758,2.131c2.567,1.5,3.826,2.86,3.733,2.982s-1.5-1.037-4.08-2.325a28.145,28.145,0,0,0-4.681-1.83c-.452-.121-.926-.214-1.414-.329l-.707-.164-.757-.1-1.548-.2h-1.606a22.8,22.8,0,0,0-10.713,2.66l-.933.429c-.283.157-.544.321-.792.472l-1.273.715A4.039,4.039,0,0,1,169.731,122.308Z" transform="translate(52.57 -90.732)" fill="#e6ebf0"/>
        <path id="Trazado_23694" data-name="Trazado 23694" d="M203.163,110.255c0,.294-8.485.487-18.915.437s-18.915-.33-18.907-.615,8.485-.487,18.915-.437S203.163,109.97,203.163,110.255Z" transform="translate(52.95 -90.213)" fill="#e6ebf0"/>
        <path id="Trazado_23695" data-name="Trazado 23695" d="M185.445,127.264c-.29,0-.481-8.581-.432-19.12s.325-19.121.616-19.121.474,8.581.424,19.121S185.735,127.264,185.445,127.264Z" transform="translate(51.245 -88.637)" fill="#e6ebf0"/>
        <path id="Trazado_23696" data-name="Trazado 23696" d="M184.559,127.235c-.071.115-2.178-1.273-4.646-4.462a25.68,25.68,0,0,1-3.5-6.142,23.16,23.16,0,0,1-1.627-8.523,22.11,22.11,0,0,1,1.747-8.516,26.581,26.581,0,0,1,3.571-6.085c2.489-3.16,4.561-4.584,4.639-4.476s-1.768,1.723-4.045,4.92a28.461,28.461,0,0,0-3.28,6.006,22.167,22.167,0,0,0-1.591,8.152A23.449,23.449,0,0,0,177.3,116.3a27.4,27.4,0,0,0,3.2,6.049C182.755,125.548,184.665,127.113,184.559,127.235Z" transform="translate(52.131 -88.637)" fill="#e6ebf0"/>
        <path id="Trazado_23697" data-name="Trazado 23697" d="M186.142,89.022c.071-.115,2.185,1.273,4.653,4.455a25.945,25.945,0,0,1,3.493,6.142,23.311,23.311,0,0,1,1.633,8.537,22.209,22.209,0,0,1-1.761,8.531,26.831,26.831,0,0,1-3.578,6.093c-2.489,3.16-4.56,4.576-4.631,4.469s1.768-1.717,4.045-4.92a28.852,28.852,0,0,0,3.274-6.007,22.263,22.263,0,0,0,1.6-8.151,23.61,23.61,0,0,0-1.485-8.188,27.912,27.912,0,0,0-3.2-6.049C187.938,90.7,186.028,89.137,186.142,89.022Z" transform="translate(51.163 -88.637)" fill="#e6ebf0"/>
      </g>
      <g id="Grupo_17804" data-name="Grupo 17804" transform="translate(208.441 238.271)">
        <path id="Trazado_23698" data-name="Trazado 23698" d="M306.844,379.277a10.341,10.341,0,0,1-3.5-9.7,13.677,13.677,0,0,1,5.808-8.755c1.361-.923,3.051-1.7,4.64-1.228a4.4,4.4,0,0,1,2.813,3.436,8.991,8.991,0,0,1-.53,4.618c-1.735,5.061-4.329,9.642-9.233,11.655" transform="translate(-273.484 -347.586)" fill="#e6ebf0"/>
        <path id="Trazado_23699" data-name="Trazado 23699" d="M299.717,389.771a23.555,23.555,0,0,0-21.005-5.541c-1.827.434-3.973,1.432-4.274,3.343s1.379,3.546,3.041,4.525a20.146,20.146,0,0,0,22.476-1.847" transform="translate(-270.988 -349.436)" fill="#e6ebf0"/>
        <path id="Trazado_23700" data-name="Trazado 23700" d="M272.625,346.912a11.815,11.815,0,0,1,9.133,1.607,21.06,21.06,0,0,1,6.576,6.945c3.306,5.283,4.475,12.394,4.621,18.646-6.868-.277-12.731-5.735-15.526-8.7-4.438-4.673-9.644-15.839-4.859-18.471" transform="translate(-270.664 -346.603)" fill="#e6ebf0"/>
        <path id="Trazado_23701" data-name="Trazado 23701" d="M312.921,398.047a25.672,25.672,0,0,1-1.717-2.623,44.329,44.329,0,0,1-3.863-11.147,22.28,22.28,0,0,1,.858-11.757,14.479,14.479,0,0,1,1.653-3.186,4.384,4.384,0,0,1,.849-1.007,30.888,30.888,0,0,0-2.046,4.359,23.511,23.511,0,0,0-.639,11.47,51.7,51.7,0,0,0,3.653,11.082" transform="translate(-273.808 -348.265)" fill="#d1d8e0"/>
        <path id="Trazado_23702" data-name="Trazado 23702" d="M310.473,397.166l-3.58-4.664c-3-3.943-7.178-9.383-11.873-15.331s-9-11.267-12.119-15.109l-3.653-4.618a12.445,12.445,0,0,1-1.3-1.727,13.747,13.747,0,0,1,1.5,1.552c.913,1.034,2.256,2.54,3.872,4.424,3.224,3.768,7.6,9.051,12.293,15s8.795,11.443,11.708,15.469c1.461,2.013,2.621,3.694,3.407,4.793" transform="translate(-271.296 -347.3)" fill="#d1d8e0"/>
        <path id="Trazado_23703" data-name="Trazado 23703" d="M283.811,388.633a3.818,3.818,0,0,1,1.187-.369,9.039,9.039,0,0,1,1.434-.277,17.313,17.313,0,0,1,1.927-.212,24.826,24.826,0,0,1,5.05.194,28.607,28.607,0,0,1,5.982,1.579,29.2,29.2,0,0,1,5.48,2.928,25.156,25.156,0,0,1,3.845,3.306A17.352,17.352,0,0,1,310,397.249a11.4,11.4,0,0,1,.913,1.182c.447.674.383.988.347,1.016a41.019,41.019,0,0,0-2.849-3.316,28.22,28.22,0,0,0-3.854-3.122,28.857,28.857,0,0,0-11.2-4.368,26.729,26.729,0,0,0-4.932-.333C285.546,388.337,283.811,388.762,283.811,388.633Z" transform="translate(-271.804 -349.748)" fill="#d1d8e0"/>
      </g>
    </g>
  </g>
</svg>
