<svg xmlns="http://www.w3.org/2000/svg" width="232.292" height="40.132" viewBox="0 0 232.292 40.132">
  <g id="Grupo_16669" data-name="Grupo 16669" transform="translate(-50.721 -208.426)">
    <text id="Buenos_Aires_Ciudad" data-name="Buenos Aires Ciudad" transform="translate(91.012 234.87)" fill="#38485c" font-size="19" font-family="GothamRounded-Medium, Gotham Rounded" font-weight="500"><tspan x="0" y="0" letter-spacing="-0.029em">B</tspan><tspan y="0" letter-spacing="-0.019em">ue</tspan><tspan y="0" letter-spacing="-0.02em">n</tspan><tspan y="0" letter-spacing="-0.019em">os Aires</tspan><tspan y="0" xml:space="preserve" letter-spacing="-0.02em"> C</tspan><tspan y="0" letter-spacing="-0.024em">i</tspan><tspan y="0" letter-spacing="-0.019em">uda</tspan><tspan y="0">d</tspan></text>
    <path id="Trazado_177" data-name="Trazado 177" d="M80.706,221.048l-.03,0a9.215,9.215,0,0,1-2.862-.746c-.374-.139-.754-.284-1.138-.405a8.064,8.064,0,0,0-2.053-.4c-.163-.005-.316-.014-.479-.014a1.983,1.983,0,0,0-1.388.4,10.552,10.552,0,0,0-.428-1.494c-.186-.47-.468-1.032-.969-1.185a.819.819,0,0,0-.25-.037,1.455,1.455,0,0,0-1.061.715l-.086.122c-.219.314-.325.47-.3.618s.216.261.622.494c.176.1.207.357.233.546v.022a6.008,6.008,0,0,1,.054.822,4.178,4.178,0,0,0-2.259-.976,3.735,3.735,0,0,0-.667-.065,6.353,6.353,0,0,0-2.408.6c-.336.146-.675.307-1,.467a14.565,14.565,0,0,1-1.95.815,5.622,5.622,0,0,1-.69.162h-.015a.027.027,0,0,1-.014,0l-.02,0c-.1.018-.275.075-.312.23s-.011.262.2.428a3.629,3.629,0,0,0,1.828.414c.152,0,.306,0,.475-.017.221-.011.444-.04.68-.073a8.121,8.121,0,0,1,1.017-.086,2.92,2.92,0,0,1,.617.062c.547.132.871.668,1.154,1.15.074.12.139.233.208.336l.007.01a1.606,1.606,0,0,1,.339.783c-.012.245-.35.444-.592.594-.062.041-.128.079-.176.109-.076.055-.169.114-.262.177-.548.348-1.3.824-1.213,1.468a.717.717,0,0,0,.629.609.411.411,0,0,0,.087.006,1.44,1.44,0,0,0,.63-.2,2.259,2.259,0,0,1,.253-.124,2.01,2.01,0,0,1,2.048.285,3.389,3.389,0,0,1,.356.326,2.894,2.894,0,0,0,.393.351.954.954,0,0,0,.508.17.307.307,0,0,0,.334-.247,4.976,4.976,0,0,0,.06-.976,5.474,5.474,0,0,1,.028-.779c.02-.157.064-.474.266-.571a.515.515,0,0,1,.236-.047,2.377,2.377,0,0,1,.316.033,1.285,1.285,0,0,0,.42.028,1.672,1.672,0,0,0,1.288-1.269.646.646,0,0,1,.482-.407,1.237,1.237,0,0,0,.65-.539c.044-.058.091-.114.134-.168a1.716,1.716,0,0,1,1.435-.623c.111,0,.239.005.379.017.124.013.255.028.38.044a8.616,8.616,0,0,0,.98.074,2.97,2.97,0,0,0,.953-.141,6.615,6.615,0,0,0,2.019-1.229l.088-.07c.172-.144.214-.235.165-.4s-.255-.2-.337-.21m-12.963,2.236a5.121,5.121,0,0,0-.491-.726,2.213,2.213,0,0,0-1.886-.77c-.36,0-.744.043-1.116.081a10.324,10.324,0,0,1-1.1.078,3.758,3.758,0,0,1-.515-.032,15.589,15.589,0,0,0,1.809-.775,13.764,13.764,0,0,1,1.947-.819,4.265,4.265,0,0,1,1.295-.2,3.881,3.881,0,0,1,2.161.618.919.919,0,0,1,.483,1.183,4.7,4.7,0,0,1-.935,1.543c-.032.031-.063.071-.1.111-.19.23-.51.609-.78.609a.28.28,0,0,1-.219-.107,4.918,4.918,0,0,1-.555-.8m5.087.74a1.753,1.753,0,0,1-.505,1.06,1.134,1.134,0,0,1-.843.261h-.176l-.2,0a.746.746,0,0,0-.545.215,3.042,3.042,0,0,0-.4,1.964v.2l-.042-.04a3.333,3.333,0,0,0-1.766-1.064,1.943,1.943,0,0,0-.357-.027,2.943,2.943,0,0,0-.706.087,2.8,2.8,0,0,0-.581.22c-.077.031-.143.065-.22.1a.96.96,0,0,1-.283.074.074.074,0,0,1-.046-.012.081.081,0,0,1,0-.043c.068-.25.344-.432.56-.575l.056-.038c.552-.374,1.072-.748,1.584-1.146a7.5,7.5,0,0,0,2.48-2.869,5.085,5.085,0,0,0,.36-2.307l0-.046a2.879,2.879,0,0,0-.179-.99,1.072,1.072,0,0,0-.52-.5c-.041-.025-.078-.048-.116-.07.1-.186.374-.671.69-.671a.457.457,0,0,1,.35.225,5.031,5.031,0,0,1,.693,1.664c.027.09.055.193.081.3a11.6,11.6,0,0,1,.633,4.027m6.4-1.979a2.838,2.838,0,0,1-1.4.43H77.79a8.351,8.351,0,0,1-.846-.085c-.238-.031-.481-.062-.721-.074a2.5,2.5,0,0,0-1.439.294,2.356,2.356,0,0,0-.613.59,3.141,3.141,0,0,1-.416.444.3.3,0,0,1-.165.084h0c-.071,0-.077-.048-.071-.147v-.065c-.011-.226-.043-.449-.074-.666l-.018-.121c-.052-.378-.107-.779-.2-1.172a1.35,1.35,0,0,0-.069-.236c-.106-.346-.243-.776.025-1a1.153,1.153,0,0,1,.63-.175s.2-.021.434-.024h.085a6.037,6.037,0,0,1,.766.051,8.657,8.657,0,0,1,1.579.386c.325.107.647.23.966.348a13.049,13.049,0,0,0,2.271.69,7.294,7.294,0,0,1-.676.444" transform="translate(-3.83 -3.186)" fill="#38485c"/>
    <path id="Trazado_178" data-name="Trazado 178" d="M83.527,224.682A23.139,23.139,0,0,0,82.5,220.6a21.839,21.839,0,0,0-1.692-3.67,19.85,19.85,0,0,0-1.783-2.575,17.44,17.44,0,0,0-2.864-2.8,15.47,15.47,0,0,0-3.352-1.987,14.369,14.369,0,0,0-3.74-1.029,13.762,13.762,0,0,0-3.944.051,14.116,14.116,0,0,0-3.711,1.12,16,16,0,0,0-3.313,2.064,17.8,17.8,0,0,0-2.8,2.847,20.418,20.418,0,0,0-2.114,3.3,21.915,21.915,0,0,0-1.508,3.794,23.629,23.629,0,0,0-.827,4.18,24.747,24.747,0,0,0-.066,4.43,24.212,24.212,0,0,0,.7,4.237,22.955,22.955,0,0,0,1.4,3.867,20.638,20.638,0,0,0,2.017,3.4,34.228,34.228,0,0,0,3.117,3.3,14.555,14.555,0,0,0,9.25,3.421h.006a13.787,13.787,0,0,0,3.874-.552,14.829,14.829,0,0,0,3.542-1.567,16.724,16.724,0,0,0,3.1-2.445,19.141,19.141,0,0,0,2.48-3.074,20.721,20.721,0,0,0,1.849-3.539,22.818,22.818,0,0,0,1.2-3.983,24,24,0,0,0,.5-4.325,24.32,24.32,0,0,0-.3-4.392m-29.3,9.591H53.8l.379-1.434c.036-.107.055-.1.067-.057-.006.516-.015,1.017-.023,1.492m.206-3.909-.849-.391c-.048-.02-.042-.037.01-.037h1.818c.053,0,.055.017.008.037l-.815.391a.225.225,0,0,1-.172,0m-1.062-.8.949-.675c0,.22-.01.445-.015.675Zm.315-2.276H55.3c.043,0,.048.017.009.035l-.726.341a.229.229,0,0,1-.159.005l-.752-.347c-.043-.02-.039-.034.005-.034m-.2-.332.874-.575c0,.177-.006.375-.013.575Zm1.183-.564.859.564h-.853c0-.193-.006-.379-.006-.564m.037,2.5.954.672h-.943c-.006-.227-.011-.455-.011-.672m.086,5.38c-.005-.474-.018-.976-.026-1.487.008-.038.032-.062.064.037l.384,1.45Zm12.486,12.834a12.775,12.775,0,0,1-7-2.119,31.941,31.941,0,0,1,4.847.445c1.61.241,3.223.51,4.844.673.623.063,1.253.109,1.876.136a12.436,12.436,0,0,1-4.566.865m7.4-2.383a22.444,22.444,0,0,1-4.808-.085c-1.6-.168-3.182-.443-4.768-.672a33.153,33.153,0,0,0-4.936-.428c-.562.008-1.123.032-1.679.09a17.348,17.348,0,0,1-1.5-1.514A23.016,23.016,0,0,1,62,242c1.677.122,3.341.367,5,.61.837.126,1.669.25,2.5.36.421.054,2.073.184,2.479.181a31.4,31.4,0,0,0,5-.394,15.732,15.732,0,0,1-2.305,1.969m3.8-3.746a26.769,26.769,0,0,1-4.887.677,23.044,23.044,0,0,1-2.47.023,24.541,24.541,0,0,1-2.479-.292c-1.658-.238-3.314-.5-4.976-.689a31.309,31.309,0,0,0-5-.2,19.2,19.2,0,0,0-2.708.322c-.308-.425-.6-.869-.87-1.331a26.675,26.675,0,0,1,4.469-.552,28.183,28.183,0,0,1,4.547.243c1.459.192,2.9.463,4.36.66a30.77,30.77,0,0,0,4.018.3h.01a25.688,25.688,0,0,0,4.17-.346q1.513-.247,2.993-.627a19.384,19.384,0,0,1-1.179,1.819m-22.226-5.119A1.582,1.582,0,0,1,55.5,234.5l2.156-5.085c.047-.091.068-.062.057,0Zm1.434-4.8c-.032,2.282-.064,4.4-.076,5.417A3.6,3.6,0,0,1,56.49,236l1.143-5.043c.029-.048.044.024.05.1m-.571-4.459h1.621c.041,0,.048.019,0,.038l-.728.346a.187.187,0,0,1-.149,0l-.758-.349c-.043-.019-.043-.038.01-.038m-.2-.327.855-.564c-.008.182-.008.371-.009.564Zm1.194-.555.845.555H58.11c0-.191-.008-.378-.008-.555m1.734,7.464c-.031,1.093-.057,2.18-.076,3.026a.042.042,0,0,1-.027.014l-.719-3.143.382-.917Zm-.29-1.368.287-.682c.03-.044.048-.027.053.005-.008.44-.02.912-.033,1.393Zm-.718,1.7.7,2.858a3.382,3.382,0,0,1-.815.194c-.094.011-.186.019-.283.026a.942.942,0,0,1-.175.005c0-.383-.013-.963-.018-1.678Zm-.6.732c-.01-.946-.025-2.053-.046-3.2.011-.093.032-.161.076-.025l.471,2.034Zm.683-1.613-.742-3.209c-.008-.064.008-.095.056,0l1.03,2.4Zm1.417,1v-.469c-.024-.834-.044-1.221-.058-1.995.005-.055.019-.091.062-.029l1.285,3.214a2.793,2.793,0,0,1-.574.909Zm.506,1.839a3.514,3.514,0,0,1-.447.4c-.013-.437-.031-1-.04-1.516Zm1.309-1.231,1.473-3.163c-.024.909-.057,2.209-.084,3.163h-.6c-.218,0-.569.015-.786,0m10.542-4.051H74.81c.055,0,.064.017.028.039-.008.005-.972.459-.972.459a.253.253,0,0,1-.2.006l-1-.46c-.058-.025-.053-.044.01-.044m-.244-.424,1.112-.8c0,.236-.01.768-.01.8Zm.4-3.137a.176.176,0,0,1,.036-.008h1.777c.02,0,.027,0,.032.008h0c.013.005.008.018-.024.031l-.8.376a.274.274,0,0,1-.166,0l-.829-.378c-.029-.013-.037-.025-.029-.031m-.191-.381.95-.681c-.006.219-.006.445-.009.681Zm1.279-.671.956.671h-.939c-.006-.228-.01-.451-.017-.671m.05,3.392,1.11.8H74c-.008-.262-.015-.537-.018-.8m3.221-.855h1.82c.051,0,.058.013.008.038l-.816.393a.242.242,0,0,1-.169,0l-.848-.393c-.048-.025-.046-.038.006-.038m-.228-.371.955-.678c-.005.227-.006.447-.011.678Zm1.325-.677.968.677H78.31c0-.226-.006-.451-.013-.677m-.412,3.914c-.034,2.2-.071,4.572-.095,6.236a3.439,3.439,0,0,1-1.406.2l.9-4.043.532-2.381c.027-.057.053-.086.065-.013m-.125-.944-1.58,7-.686-1.883.005-.011,2.161-5.183c.059-.1.124-.172.1.074m-1.746,7.319a2.686,2.686,0,0,1-1.187-.61l.515-1.23Zm-1.386-.806a3.409,3.409,0,0,1-.55-.779c-.011-1.061-.037-2.645-.062-4.34l1.2,3.7Zm-2.6-.853H69.415L73.3,231.31Zm1.489-4.269c-.017.986-.051,4.149-.051,4.269H72.3Zm4.839-.449c-.005-.072.034-.05.058.015l1.087,4.7a2.888,2.888,0,0,1-1.067,1.194c-.011-.852-.076-5.894-.079-5.912m1.423,4.688-1.328-5.576c-.041-.341.044-.219.114-.093l2.434,5.669Zm2.174-2.719a22.479,22.479,0,0,1-.7,2.627l-2.913-6.914,1.281-.571a.182.182,0,0,0,0-.324s-1.255-.893-1.326-.942l-.031-2.121c.156-.022.306-.09.456-.116a1.525,1.525,0,0,1,.5.034.889.889,0,0,0,.829-.213,2.327,2.327,0,0,1-.892-.349,1.421,1.421,0,0,0-.47-.127,1.3,1.3,0,0,0-.5.018c-.017-.123-.032-.251-.053-.39H78.06a11.868,11.868,0,0,0-.1,1.8c0,.411-.006.826-.011,1.24,0,.072,0,.145-.007.221l-1.317.941a.182.182,0,0,0,0,.322v0l1.242.571-2.505,6.1-1.294-3.927,1.43-.671a.214.214,0,0,0,.008-.375s-1.35-.944-1.525-1.072c-.006-.5-.018-1.032-.021-1.5l1.307-.616h0a.185.185,0,0,0,.007-.325l-1.346-.953c-.01-.965-.015-1.926-.032-2.883a1.179,1.179,0,0,0,.222-.047,2.323,2.323,0,0,1,.247-.069,1.462,1.462,0,0,1,.5.026.913.913,0,0,0,.855-.209,2.349,2.349,0,0,1-.892-.35,1.539,1.539,0,0,0-.47-.127,1.357,1.357,0,0,0-.5.018c-.013-.122-.032-.25-.057-.392h-.062v0a9.711,9.711,0,0,0-.1,1.607c0,.491,0,.977-.015,1.467-.005.318-.011.637-.015.955l-1.33.949a.187.187,0,0,0,0,.33l1.3.614c0,.465-.01,1.013-.017,1.5l-1.52,1.068a.209.209,0,0,0,0,.374l1.4.672-4.38,4.864c-.084,0-.629,0-.706.106a.279.279,0,0,0-.068.346.72.72,0,0,0,.343.352,1.273,1.273,0,0,0,.235.114.049.049,0,0,1,.024.023,3.311,3.311,0,0,0,2.085,1.921H70.96s.046.016.036.049l-.006.015a.282.282,0,0,1-.047.014c-1.616-.1-3.206-.363-4.794-.613-.611-.1-1.218-.19-1.827-.27-.415-.052-.824-.1-1.235-.175-.039-.017-.058-.027-.068-.044v0l0-.006v-.01s0,0,0,0a.071.071,0,0,1,.022-.031l.015-.01a3.829,3.829,0,0,0,2.711-2.3l.083-.046a1.921,1.921,0,0,0,.177-.088.792.792,0,0,0,.344-.351.289.289,0,0,0-.069-.349c-.082-.111-.718-.106-.718-.106l-.005,0h-.107c0-.348-.01-1.256-.034-1.842a.35.35,0,0,0,.209-.011c.086-.025.167-.053.252-.069a1.16,1.16,0,0,1,.514,0,1.267,1.267,0,0,0,.5.012.989.989,0,0,0,.4-.214,2.572,2.572,0,0,1-.912-.362,1.54,1.54,0,0,0-.492-.122,1.028,1.028,0,0,0-.51.045c-.013-.144-.024-.261-.037-.353H65.3c-.086.5-.086,2.243-.092,2.916l-1.126,0c-.034-1.227-.09-2.864-.117-3.914l.976-2.09c.135.057.286.068.423.119a1.26,1.26,0,0,1,.4.245,1.2,1.2,0,0,0,.382.242,1.1,1.1,0,0,0,.486.016,2.167,2.167,0,0,1-.584-.726,1.583,1.583,0,0,0-.339-.341,1.367,1.367,0,0,0-.459-.243,1.968,1.968,0,0,0,.093-.344c-.005-.011,0-.031-.029-.048a.182.182,0,0,1-.02,0c-.044.008-.055.031-.082.068a3.207,3.207,0,0,0-.226.349L63.952,229.8c-.013-.351-.02-.7-.025-1.054a7.9,7.9,0,0,0-.093-1.32h-.065a10.1,10.1,0,0,0-.1,1.606c-.006.48-.024.968-.037,1.451l-1.79,3.707-1.6-3.932c-.014-.488-.025-.971-.031-1.463a10.552,10.552,0,0,0-.1-1.651h-.06a11.057,11.057,0,0,0-.105,1.626c0,.5-.015.993-.026,1.483l-.515,1.215-1.254-2.922c-.008-.487-.015-.966-.021-1.429l1.143-.538a.159.159,0,0,0,0-.284s-.963-.7-1.167-.841c-.013-1-.021-2.01-.037-3.016a.983.983,0,0,0,.214-.047,2.281,2.281,0,0,1,.251-.069,1.452,1.452,0,0,1,.5.026,1.077,1.077,0,0,0,.477,0,1.119,1.119,0,0,0,.377-.209,2.215,2.215,0,0,1-.874-.345,1.456,1.456,0,0,0-.466-.13,1.311,1.311,0,0,0-.521.015c-.011-.131-.029-.265-.047-.4H57.9a11.723,11.723,0,0,0-.107,1.94c-.006.628-.015,1.254-.023,1.881,0,.118,0,.233-.008.348l-1.167.837a.162.162,0,0,0,0,.289l1.143.538c-.01.522-.021,1.371-.021,1.429L55.4,234.008l-.341-1.255H55.5a.551.551,0,0,0,.194-.048c.044-.011.149-.049.149-.112s-.093-.089-.133-.105a.659.659,0,0,0-.21-.045h-.531l-.231-.868c0-.351-.01-.715-.018-1.063l1.284-.6a.183.183,0,0,0,.006-.323s-1.233-.873-1.322-.93c0-.256-.005-.608-.013-.846l1.157-.545a.163.163,0,0,0,.006-.289s-1.028-.736-1.19-.85c-.01-.841-.017-1.4-.021-1.466a1.533,1.533,0,0,0,.406-.09,1.175,1.175,0,0,1,.435.011,1.014,1.014,0,0,0,.419.015,1,1,0,0,0,.357-.193,2.054,2.054,0,0,1-.789-.314,1.352,1.352,0,0,0-.422-.107.984.984,0,0,0-.446.025c-.013-.114-.031-.227-.056-.35h-.064a7.855,7.855,0,0,0-.1,1.391c-.006.4-.012.677-.022,1.077l-1.183.846a.165.165,0,0,0,0,.292l1.157.545c0,.24-.006.591-.012.846l-1.3.926a.181.181,0,0,0,0,.323l1.27.606c0,.348-.014.706-.02,1.053l-.227.878h-.531a.659.659,0,0,0-.2.038c-.042.018-.148.055-.148.113s.095.091.135.107a.586.586,0,0,0,.213.053h.447l-.4,1.52h-.642a21.836,21.836,0,0,1-.709-4.481,22.841,22.841,0,0,1,.19-4.538,21.633,21.633,0,0,1,.993-4.1,19.734,19.734,0,0,1,1.683-3.632,18.049,18.049,0,0,1,1.178-1.756,8.554,8.554,0,0,0,3.994.05,12.357,12.357,0,0,1,4.026-.194l.394.07a4.137,4.137,0,0,1,.149-.66,11.846,11.846,0,0,0-4.512-.35,4.776,4.776,0,0,1-2.784-.414,14.236,14.236,0,0,1,1.66-1.5,5.491,5.491,0,0,0,2.252.843c.512.089,1.031.128,1.537.245a14.378,14.378,0,0,1,1.526.442c.175.062.409.175.516.226a3.25,3.25,0,0,1,.354-.583l-.328-.208a8.741,8.741,0,0,0-1.968-.779,7.922,7.922,0,0,1-1.337-.522,4.073,4.073,0,0,1-.987-.726,13.146,13.146,0,0,1,1.959-.972,9.772,9.772,0,0,0,1.813,1.451,6.518,6.518,0,0,1,1.242,1.368,2.309,2.309,0,0,1,.6-.329,6.471,6.471,0,0,0-1.3-1.982,2.472,2.472,0,0,1-.715-1.019,12.067,12.067,0,0,1,2.236-.336l.364,3.2a2.114,2.114,0,0,1,.337-.022,2.642,2.642,0,0,1,.341.022l.365-3.194a12.9,12.9,0,0,1,1.558.177c.389.081.682.154.682.154a2.621,2.621,0,0,1-.708,1.019,6.305,6.305,0,0,0-1.292,1.987,2.259,2.259,0,0,1,.59.327,6.891,6.891,0,0,1,1.239-1.371,10.586,10.586,0,0,0,1.8-1.451,13.556,13.556,0,0,1,1.389.634l.585.337a11.274,11.274,0,0,1-.988.727,6.285,6.285,0,0,1-1.34.522,8.82,8.82,0,0,0-1.968.779l-.33.2a2.9,2.9,0,0,1,.362.583c.119-.057.344-.163.513-.223a13.978,13.978,0,0,1,1.527-.442c.5-.116,1.023-.156,1.535-.245a5.606,5.606,0,0,0,2.245-.843,17.516,17.516,0,0,1,1.659,1.507,4.826,4.826,0,0,1-2.778.411,11.882,11.882,0,0,0-4.51.341,3.186,3.186,0,0,1,.139.646l.421-.067a12.6,12.6,0,0,1,4.006.214,8.539,8.539,0,0,0,3.982-.046c.178.226.343.454.5.691a19.022,19.022,0,0,1,1.884,3.457,21.119,21.119,0,0,1,1.232,3.961,22.443,22.443,0,0,1,.464,4.341,23.013,23.013,0,0,1-.431,4.719" fill="#38485c"/>
  </g>
</svg>
