<svg width="154" height="30" viewBox="0 0 154 30" fill="none" xmlns="http://www.w3.org/2000/svg">
<g clip-path="url(#clip0_60_11618)">
<mask id="mask0_60_11618" style="mask-type:luminance" maskUnits="userSpaceOnUse" x="0" y="0" width="32" height="30">
<path d="M28.8369 0H2.28827C1.02449 0 0 0.987455 0 2.20554V27.7945C0 29.0125 1.02449 30 2.28827 30H28.8369C30.1007 30 31.1252 29.0125 31.1252 27.7945V2.20554C31.1252 0.987455 30.1007 0 28.8369 0Z" fill="white"/>
</mask>
<g mask="url(#mask0_60_11618)">
<path d="M15.5613 15.0914L0 0.0926514V0.162138L15.5613 15.1608L15.6574 15.2535L30.957 30H31.1252V0.0926514L15.5613 15.0914Z" fill="#B8C1CC"/>
<path d="M15.5613 15.1609L15.6568 15.2535L15.5613 15.1609Z" fill="#E8E8E8"/>
<path d="M0.360458 30H30.957L15.6574 15.2535L0.360458 30Z" fill="#8A98A8"/>
<path d="M15.5613 15.1608L0 0.162109V30H0.360462L15.6574 15.2535L15.5613 15.1608Z" fill="#5C6A7A"/>
<path d="M31.1252 0.0926482V0H0V0.0926482L15.6574 15.2535L31.1252 0.0926482Z" fill="#E6EBF0"/>
</g>
<path d="M142.163 24.7061C141.002 24.0962 140.054 23.1672 139.44 22.0374C138.775 20.7866 138.444 19.3969 138.476 17.9917C138.441 16.5917 138.772 15.2046 139.44 13.959C140.057 12.8369 141.005 11.913 142.163 11.3056C144.737 10.0677 147.768 10.0677 150.342 11.3056C151.495 11.9078 152.438 12.8266 153.049 13.9461C153.704 15.1943 154.029 16.5788 153.997 17.9789C154.029 19.3814 153.704 20.7712 153.049 22.0245C152.446 23.1594 151.503 24.0936 150.342 24.7061C147.768 25.944 144.737 25.944 142.163 24.7061ZM149.106 21.5278C149.771 20.73 150.102 19.5487 150.102 17.9917C150.102 16.4347 149.792 15.2663 149.114 14.4556C148.436 13.645 147.496 13.2409 146.251 13.2409C145.007 13.2409 144.049 13.6398 143.384 14.4556C142.719 15.2715 142.374 16.4399 142.374 17.9789C142.374 19.5178 142.706 20.7171 143.37 21.5149C144.035 22.3127 144.986 22.7168 146.233 22.7168C147.48 22.7168 148.457 22.3153 149.114 21.5149L149.106 21.5278Z" fill="white"/>
<path d="M47.0817 24.3331C45.5117 23.4503 44.2514 22.1352 43.461 20.5576C42.6119 18.9183 42.1874 17.001 42.1874 14.8006C42.1874 12.6002 42.6066 10.688 43.445 9.06154C44.2327 7.48395 45.4956 6.17401 47.0683 5.299C48.6463 4.41884 50.502 3.97876 52.6381 3.97876C54.7742 3.97876 56.6246 4.41884 58.1892 5.299C59.7539 6.17658 61.0115 7.4891 61.7965 9.06154C62.6349 10.6906 63.0541 12.6028 63.0568 14.8006C63.0568 16.9984 62.6323 18.9183 61.7805 20.5576C60.9875 22.1352 59.7245 23.4503 58.1545 24.3331C56.5898 25.2132 54.7502 25.6533 52.6354 25.6533C50.5207 25.6533 48.6704 25.2132 47.0817 24.3331ZM57.3455 20.5576C58.4749 19.2168 59.0383 17.2995 59.041 14.8006C59.041 12.3017 58.4776 10.3895 57.3455 9.06154C56.216 7.73101 54.646 7.06446 52.6354 7.06703C50.6249 7.06961 49.0442 7.73358 47.8907 9.06154C46.7586 10.3895 46.1925 12.3017 46.1925 14.8006C46.1925 17.2995 46.7586 19.2168 47.888 20.5576C49.0175 21.8959 50.5982 22.565 52.6328 22.565C54.6674 22.565 56.2374 21.8959 57.3455 20.5576Z" fill="#38485C"/>
<path d="M77.7636 11.2927C78.8023 11.9361 79.6274 12.8498 80.1427 13.9306C80.7381 15.1814 81.0292 16.5454 80.9971 17.9197C81.0265 19.3068 80.7354 20.6837 80.1427 21.9499C79.6274 23.0565 78.7943 23.9984 77.7396 24.6624C76.6956 25.3084 75.478 25.6429 74.2391 25.6223C73.2138 25.6404 72.2018 25.4036 71.302 24.9326C70.4636 24.4951 69.7747 23.826 69.3262 23.0153V23.7642C69.3475 24.2481 69.1526 24.7164 68.7921 25.051C68.4077 25.3804 67.9057 25.5528 67.393 25.5297C66.883 25.5554 66.3864 25.383 66.0099 25.051C65.6575 24.7113 65.4706 24.2429 65.4946 23.7642V5.8368C65.4732 5.36326 65.6681 4.9026 66.0286 4.57833C66.851 3.95038 68.0098 3.94008 68.8455 4.55002C69.206 4.86142 69.4036 5.31179 69.3796 5.77761V12.8523C69.8281 12.0622 70.509 11.4214 71.3394 11.0097C72.2339 10.5696 73.2272 10.3483 74.2311 10.3637C75.478 10.338 76.7036 10.6597 77.7636 11.2927ZM76.0975 21.4557C76.781 20.6168 77.1228 19.4381 77.1255 17.9197C77.1255 16.4013 76.7837 15.2509 76.0975 14.4711C75.4273 13.6707 74.4661 13.2718 73.2245 13.2718C71.9829 13.2718 71.019 13.6759 70.3461 14.4865C69.6733 15.2972 69.3342 16.4605 69.3342 17.9789C69.3342 19.4973 69.6706 20.6682 70.3461 21.4866C71.0217 22.305 71.9776 22.7168 73.2245 22.7168C74.3379 22.7708 75.4086 22.2999 76.0975 21.4557Z" fill="#38485C"/>
<path d="M95.8562 21.7543C96.0858 22.058 96.2006 22.4286 96.1819 22.8044C96.1819 23.4246 95.7974 23.9444 95.0311 24.3639C94.2728 24.7628 93.4664 25.0691 92.628 25.2776C91.7976 25.4989 90.9405 25.6147 90.0781 25.6224C87.6296 25.6224 85.6912 24.943 84.26 23.5841C82.8288 22.2253 82.1159 20.3672 82.1239 18.0098C82.0972 16.6278 82.4176 15.2587 83.0584 14.0208C83.6459 12.8987 84.5537 11.9619 85.6778 11.3237C86.8446 10.6752 88.1717 10.3432 89.5201 10.3638C90.7723 10.3355 92.0086 10.6366 93.098 11.2336C94.1153 11.8153 94.935 12.6697 95.461 13.6914C96.0458 14.8598 96.3341 16.144 96.3021 17.4385C96.3021 18.2955 95.9069 18.7253 95.1192 18.7253H85.9421C86.0676 20.097 86.4708 21.1135 87.157 21.7698C87.8432 22.426 88.8365 22.7503 90.1422 22.7426C90.7376 22.7529 91.3304 22.6705 91.8991 22.5033C92.4865 22.3128 93.0633 22.0915 93.624 21.8418C94.2488 21.5202 94.7054 21.3606 94.9964 21.3606C95.3302 21.3554 95.6506 21.4996 95.8562 21.7543ZM87.0796 13.9616C86.4441 14.6024 86.0676 15.5212 85.9421 16.7179H92.9725C92.9324 15.5006 92.6227 14.5767 92.0406 13.9462C91.4585 13.3156 90.6495 12.9991 89.6135 13.0017C88.6656 12.9605 87.7445 13.3105 87.0796 13.9616Z" fill="#38485C"/>
<path d="M98.7719 25.0973C98.3981 24.7499 98.2032 24.2635 98.2379 23.7642V5.86768C98.2005 5.37356 98.3981 4.88973 98.7719 4.55002C99.1617 4.24119 99.653 4.07906 100.158 4.09965C100.665 4.08163 101.162 4.24119 101.557 4.55002C101.944 4.88201 102.152 5.36841 102.118 5.86768V23.7642C102.15 24.2686 101.944 24.7576 101.557 25.0973C101.167 25.4139 100.668 25.5812 100.158 25.5631C99.6504 25.5812 99.1564 25.4165 98.7719 25.0973Z" fill="#38485C"/>
<path d="M105.135 7.20596C104.715 6.83279 104.489 6.30006 104.513 5.7519C104.489 5.2063 104.715 4.67872 105.135 4.31327C106.123 3.59268 107.49 3.59268 108.478 4.31327C108.905 4.67615 109.137 5.20373 109.116 5.7519C109.137 6.30006 108.91 6.83022 108.494 7.20596C107.506 7.94714 106.123 7.94714 105.135 7.20596ZM105.428 25.1025C105.055 24.7551 104.86 24.2687 104.894 23.7694V12.1884C104.857 11.6942 105.055 11.2078 105.428 10.8681C105.816 10.5645 106.304 10.4075 106.803 10.4255C107.311 10.41 107.807 10.567 108.205 10.8733C108.592 11.2078 108.798 11.6942 108.763 12.1935V23.7745C108.795 24.2764 108.59 24.7679 108.205 25.1076C107.813 25.4216 107.313 25.5838 106.803 25.5632C106.302 25.5786 105.81 25.4139 105.428 25.0974V25.1025Z" fill="#38485C"/>
<path d="M111.57 24.333C110.947 24.0191 110.563 23.3937 110.576 22.7168C110.56 22.3617 110.683 22.0143 110.918 21.7415C111.124 21.497 111.431 21.358 111.757 21.3606C112.275 21.4146 112.771 21.5793 113.212 21.8444C113.799 22.1172 114.408 22.3488 115.033 22.5367C115.716 22.7117 116.424 22.794 117.131 22.776C117.836 22.8121 118.541 22.6679 119.169 22.3565C119.623 22.1301 119.906 21.6771 119.9 21.1856C119.922 20.8922 119.82 20.6014 119.62 20.3775C119.313 20.115 118.947 19.922 118.552 19.8164C117.791 19.5822 117.017 19.3867 116.234 19.2322C114.389 18.8719 113.068 18.3624 112.269 17.7035C111.471 17.0447 111.073 16.1362 111.076 14.9807C111.07 14.1289 111.351 13.295 111.877 12.6105C112.448 11.877 113.217 11.3082 114.101 10.9634C115.121 10.5568 116.218 10.3586 117.321 10.3766C118.17 10.374 119.019 10.4796 119.839 10.6932C120.611 10.881 121.35 11.1847 122.023 11.5939C122.634 11.9053 123.016 12.5152 123.019 13.1818C123.032 13.5447 122.912 13.8998 122.677 14.1855C122.48 14.4403 122.17 14.5921 121.839 14.5921C121.609 14.5921 121.38 14.5458 121.169 14.4557C120.888 14.3348 120.613 14.2009 120.346 14.0517C119.844 13.7969 119.324 13.573 118.79 13.3825C118.266 13.2204 117.719 13.1458 117.169 13.1586C116.528 13.1226 115.892 13.277 115.348 13.6013C114.918 13.8715 114.667 14.3373 114.68 14.8314C114.664 15.305 114.929 15.7476 115.364 15.969C115.818 16.2263 116.699 16.4837 118.007 16.741C119.129 16.9418 120.226 17.2635 121.273 17.701C121.962 17.9815 122.552 18.4499 122.968 19.0495C123.331 19.6775 123.51 20.3903 123.481 21.1084C123.508 22.4132 122.845 23.6433 121.724 24.3768C120.552 25.1952 118.992 25.6044 117.043 25.6044C114.784 25.6172 112.961 25.1926 111.57 24.333Z" fill="#38485C"/>
<path d="M128.135 24.7062C126.992 24.1014 126.063 23.1826 125.465 22.0683C124.819 20.833 124.498 19.4638 124.53 18.0818C124.501 16.6792 124.837 15.2921 125.51 14.0491C126.138 12.9013 127.099 11.9542 128.276 11.3237C129.523 10.6674 130.928 10.3354 132.348 10.3637C133.173 10.3663 133.996 10.477 134.791 10.6931C135.552 10.8887 136.281 11.1924 136.951 11.5939C137.616 12.0134 137.95 12.5435 137.947 13.1818C137.966 13.5627 137.851 13.9384 137.622 14.2472C137.421 14.5072 137.104 14.6564 136.767 14.6513C136.519 14.6487 136.276 14.5972 136.049 14.502C135.793 14.3965 135.544 14.2781 135.304 14.1417C134.887 13.8998 134.452 13.6939 133.998 13.5266C133.539 13.3697 133.053 13.295 132.567 13.3027C131.28 13.3027 130.292 13.7068 129.595 14.5149C128.898 15.323 128.554 16.4888 128.554 18.0098C128.554 19.5308 128.901 20.6605 129.595 21.4712C130.29 22.2819 131.28 22.6859 132.567 22.6859C133.04 22.6937 133.507 22.6165 133.95 22.4595C134.415 22.2845 134.866 22.0786 135.304 21.8444C135.56 21.6925 135.827 21.5561 136.105 21.4403C136.321 21.3528 136.554 21.3091 136.789 21.3065C137.122 21.3065 137.435 21.4635 137.63 21.726C137.865 22.0271 137.985 22.3977 137.971 22.776C137.979 23.0848 137.897 23.3911 137.739 23.6587C137.547 23.9418 137.285 24.1735 136.976 24.333C136.281 24.7551 135.528 25.0742 134.735 25.2775C133.886 25.5066 133.008 25.6224 132.124 25.6224C130.736 25.6533 129.36 25.3393 128.135 24.7062Z" fill="#38485C"/>
<path d="M142.163 24.7061C141.002 24.0962 140.054 23.1672 139.44 22.0374C138.775 20.7866 138.444 19.3969 138.476 17.9917C138.441 16.5917 138.772 15.2046 139.44 13.959C140.057 12.8369 141.005 11.913 142.163 11.3056C144.737 10.0677 147.768 10.0677 150.342 11.3056C151.495 11.9078 152.438 12.8266 153.049 13.9461C153.704 15.1943 154.029 16.5788 153.997 17.9789C154.029 19.3814 153.704 20.7712 153.049 22.0245C152.446 23.1594 151.503 24.0936 150.342 24.7061C147.768 25.944 144.737 25.944 142.163 24.7061ZM149.106 21.5278C149.771 20.73 150.102 19.5487 150.102 17.9917C150.102 16.4347 149.792 15.2663 149.114 14.4556C148.436 13.645 147.496 13.2409 146.251 13.2409C145.007 13.2409 144.049 13.6398 143.384 14.4556C142.719 15.2715 142.374 16.4399 142.374 17.9789C142.374 19.5178 142.706 20.7171 143.37 21.5149C144.035 22.3127 144.986 22.7168 146.233 22.7168C147.48 22.7168 148.457 22.3153 149.114 21.5149L149.106 21.5278Z" fill="#38485C"/>
</g>
<defs>
<clipPath id="clip0_60_11618">
<rect width="154" height="30" fill="white"/>
</clipPath>
</defs>
</svg>
