<svg xmlns="http://www.w3.org/2000/svg" xmlns:xlink="http://www.w3.org/1999/xlink" viewBox="0 0 576.75 116.57"><defs><style>.cls-1{fill:none;}.cls-2{clip-path:url(#clip-path);}.cls-3{fill:#b8c1cc;}.cls-4{fill:#e8e8e8;}.cls-5{fill:#8a98a8;}.cls-6{fill:#5c6a7a;}.cls-7{fill:#e6ebf0;}.cls-8{fill:#fff;}.cls-9{fill:#38485c;}</style><clipPath id="clip-path"><rect id="SVGID" class="cls-1" width="116.57" height="116.57" rx="8.57" transform="translate(116.57 0) rotate(90)"/></clipPath></defs><g id="Capa_2" data-name="Capa 2"><g id="Capa_1-2" data-name="Capa 1"><g class="cls-2"><polygon class="cls-3" points="58.28 58.64 0 0.36 0 0.63 58.28 58.91 58.28 58.91 58.64 59.27 115.94 116.57 116.57 116.57 116.57 0.36 58.28 58.64"/><polygon class="cls-4" points="58.28 58.91 58.28 58.91 58.64 59.27 58.28 58.91"/><polygon class="cls-5" points="1.35 116.57 115.94 116.57 58.64 59.27 1.35 116.57"/><polygon class="cls-6" points="58.28 58.91 0 0.63 0 116.57 1.35 116.57 58.64 59.27 58.28 58.91"/><polygon class="cls-7" points="116.57 0.36 116.57 0 0 0 0 0.36 58.64 59.27 116.57 0.36"/></g><path class="cls-8" d="M532.43,96a25,25,0,0,1-10.2-10.37,32.8,32.8,0,0,1-3.61-15.72,32.52,32.52,0,0,1,3.61-15.67,25.14,25.14,0,0,1,10.2-10.31,34.29,34.29,0,0,1,30.63,0A24.88,24.88,0,0,1,573.2,54.19a33.08,33.08,0,0,1,3.55,15.67,33.38,33.38,0,0,1-3.55,15.72A24.74,24.74,0,0,1,563.06,96a34.29,34.29,0,0,1-30.63,0Zm26-12.35c2.49-3.1,3.73-7.69,3.73-13.74S561,59.32,558.46,56.17s-6.06-4.72-10.72-4.72S539.49,53,537,56.17s-3.78,7.71-3.78,13.69,1.24,10.64,3.73,13.74,6.05,4.67,10.72,4.67S556,86.71,558.46,83.6Z"/><path class="cls-9" d="M176.33,94.55a34.24,34.24,0,0,1-13.56-14.67Q158,70.33,158,57.51t4.71-22.3a33.83,33.83,0,0,1,13.57-14.62q8.86-5.13,20.86-5.13t20.79,5.13a33.94,33.94,0,0,1,13.51,14.62q4.71,9.49,4.72,22.3t-4.78,22.37A34.33,34.33,0,0,1,217.8,94.55q-8.79,5.13-20.67,5.13T176.33,94.55Zm38.44-14.67q6.34-7.81,6.35-22.37t-6.35-22.3q-6.35-7.76-17.64-7.75t-17.77,7.75Q173,42.95,173,57.51t6.35,22.37q6.34,7.8,17.77,7.8T214.77,79.88Z"/><path class="cls-9" d="M291.24,43.88a24.24,24.24,0,0,1,8.91,10.25,35.23,35.23,0,0,1,3.2,15.5,36.33,36.33,0,0,1-3.2,15.66,24.62,24.62,0,0,1-9,10.54,23.56,23.56,0,0,1-13.11,3.73,22.26,22.26,0,0,1-11-2.68,18.25,18.25,0,0,1-7.4-7.45v2.91a6.54,6.54,0,0,1-2,5,7.35,7.35,0,0,1-5.24,1.86,7.13,7.13,0,0,1-5.18-1.86,6.66,6.66,0,0,1-1.93-5V22.68a6.3,6.3,0,0,1,2-4.89,8.61,8.61,0,0,1,10.55-.11,6,6,0,0,1,2,4.77V49.94a17.48,17.48,0,0,1,7.34-7.16,23,23,0,0,1,10.83-2.51A24.17,24.17,0,0,1,291.24,43.88ZM285,83.37q3.84-4.89,3.85-13.74T285,56.23c-2.51-3.11-6.11-4.66-10.76-4.66s-8.26,1.57-10.78,4.72-3.79,7.67-3.79,13.57,1.26,10.45,3.79,13.63,6.11,4.78,10.78,4.78A12.86,12.86,0,0,0,285,83.37Z"/><path class="cls-9" d="M359,84.53a6.36,6.36,0,0,1,1.22,4.08q0,3.61-4.31,6.06a39.21,39.21,0,0,1-9,3.55,37.1,37.1,0,0,1-9.55,1.34q-13.75,0-21.79-7.92t-8-21.66a33.27,33.27,0,0,1,3.5-15.5A25.53,25.53,0,0,1,320.88,44a27.86,27.86,0,0,1,14.39-3.73,25.85,25.85,0,0,1,13.4,3.38,23,23,0,0,1,8.85,9.55,31.79,31.79,0,0,1,3.15,14.56q0,5-4.43,5H321.87q.7,8,4.55,11.83t11.18,3.78a21.2,21.2,0,0,0,6.58-.93,63.71,63.71,0,0,0,6.46-2.57Q354.15,83,355.78,83A4,4,0,0,1,359,84.53ZM326.13,54.25c-2.38,2.49-3.79,6.06-4.26,10.71H348.2q-.22-7.09-3.49-10.77t-9.09-3.67A12.52,12.52,0,0,0,326.13,54.25Z"/><path class="cls-9" d="M369.92,97.52a6.58,6.58,0,0,1-2-5.18V22.8a6.39,6.39,0,0,1,2-5.12,7.67,7.67,0,0,1,5.19-1.75,7.88,7.88,0,0,1,5.24,1.75,6.3,6.3,0,0,1,2.1,5.12V92.34a6.48,6.48,0,0,1-2.1,5.18,7.71,7.71,0,0,1-5.24,1.81A7.51,7.51,0,0,1,369.92,97.52Z"/><path class="cls-9" d="M393.75,28a7.3,7.3,0,0,1-2.33-5.65,7.13,7.13,0,0,1,2.33-5.59,10.38,10.38,0,0,1,12.52,0,7.08,7.08,0,0,1,2.39,5.59A7.34,7.34,0,0,1,406.33,28a10.24,10.24,0,0,1-12.58,0Zm1.1,69.54a6.58,6.58,0,0,1-2-5.18v-45a6.41,6.41,0,0,1,2-5.13A7.74,7.74,0,0,1,400,40.51a8,8,0,0,1,5.25,1.74,6.32,6.32,0,0,1,2.09,5.13v45a6.48,6.48,0,0,1-2.09,5.18A7.76,7.76,0,0,1,400,99.33,7.53,7.53,0,0,1,394.85,97.52Z"/><path class="cls-9" d="M417.85,94.55a6.94,6.94,0,0,1-3.72-6.28,5.54,5.54,0,0,1,1.28-3.79A4,4,0,0,1,418.55,83,12.9,12.9,0,0,1,424,84.88a50,50,0,0,0,6.82,2.69,27.77,27.77,0,0,0,7.86.93,14.94,14.94,0,0,0,7.63-1.63,5.08,5.08,0,0,0,2.74-4.55A4.36,4.36,0,0,0,448,79.18,10.13,10.13,0,0,0,444,77a83.07,83.07,0,0,0-8.68-2.27q-10.36-2.1-14.85-5.94T416,58.21A15.29,15.29,0,0,1,419,49a19.59,19.59,0,0,1,8.33-6.4,30.27,30.27,0,0,1,12.06-2.28,35.87,35.87,0,0,1,9.43,1.23A28.21,28.21,0,0,1,457,45.05a7,7,0,0,1,3.73,6.17,5.91,5.91,0,0,1-1.28,3.9,3.91,3.91,0,0,1-3.14,1.58,6.32,6.32,0,0,1-2.51-.53,33.73,33.73,0,0,1-3.08-1.57A48.21,48.21,0,0,0,444.89,52a18.34,18.34,0,0,0-6.07-.87A11.76,11.76,0,0,0,432,52.85a5.53,5.53,0,0,0-2.5,4.78,4.82,4.82,0,0,0,2.56,4.42c1.7,1,5,2,9.9,3a56.54,56.54,0,0,1,12.23,3.73,14.38,14.38,0,0,1,6.35,5.24,15.24,15.24,0,0,1,1.92,8,15,15,0,0,1-6.58,12.7q-6.58,4.77-17.53,4.77Q425.66,99.56,417.85,94.55Z"/><path class="cls-9" d="M479.89,96a24.61,24.61,0,0,1-10-10.25,32.8,32.8,0,0,1-3.5-15.49,32.5,32.5,0,0,1,3.67-15.67A26,26,0,0,1,480.42,44a30.55,30.55,0,0,1,15.25-3.73,34.18,34.18,0,0,1,9.15,1.28,30.14,30.14,0,0,1,8.09,3.5q3.74,2.45,3.73,6.17a6.59,6.59,0,0,1-1.22,4.14,3.9,3.9,0,0,1-3.2,1.57,6.94,6.94,0,0,1-2.69-.58,24.25,24.25,0,0,1-2.79-1.4,31.24,31.24,0,0,0-4.89-2.39,15.29,15.29,0,0,0-5.36-.87c-4.82,0-8.52,1.57-11.13,4.71s-3.9,7.67-3.9,13.58,1.3,10.3,3.9,13.45,6.31,4.72,11.13,4.72a14.17,14.17,0,0,0,5.18-.88,42.78,42.78,0,0,0,5.07-2.39,23.52,23.52,0,0,1,3-1.57,6.85,6.85,0,0,1,2.56-.52,3.88,3.88,0,0,1,3.15,1.63,6.44,6.44,0,0,1,1.28,4.08,6.65,6.65,0,0,1-.87,3.43A7.82,7.82,0,0,1,513,94.55a30.44,30.44,0,0,1-8.39,3.67,36.12,36.12,0,0,1-9.78,1.34A30.16,30.16,0,0,1,479.89,96Z"/><path class="cls-9" d="M532.43,96a25,25,0,0,1-10.2-10.37,32.8,32.8,0,0,1-3.61-15.72,32.52,32.52,0,0,1,3.61-15.67,25.14,25.14,0,0,1,10.2-10.31,34.29,34.29,0,0,1,30.63,0A24.88,24.88,0,0,1,573.2,54.19a33.08,33.08,0,0,1,3.55,15.67,33.38,33.38,0,0,1-3.55,15.72A24.74,24.74,0,0,1,563.06,96a34.29,34.29,0,0,1-30.63,0Zm26-12.35c2.49-3.1,3.73-7.69,3.73-13.74S561,59.32,558.46,56.17s-6.06-4.72-10.72-4.72S539.49,53,537,56.17s-3.78,7.71-3.78,13.69,1.24,10.64,3.73,13.74,6.05,4.67,10.72,4.67S556,86.71,558.46,83.6Z"/></g></g></svg>