<svg xmlns="http://www.w3.org/2000/svg" width="712" height="205" viewBox="0 0 712 205">
  <defs>
    <style>
      .cls-1 {
        fill: #f3f6f9;
      }

      .cls-2 {
        fill: rgba(158,170,184,0.24);
        stroke: #9eaab8;
        stroke-dasharray: 5 5;
      }

      .cls-3 {
        fill: #007bc7;
        opacity: 0.5;
      }

      .cls-4, .cls-6 {
        fill: none;
      }

      .cls-5 {
        fill: #38485c;
      }

      .cls-6 {
        stroke: #38485c;
        stroke-linecap: round;
      }

      .cls-7 {
        stroke: none;
      }
    </style>
  </defs>
  <g id="Grupo_18235" data-name="Grupo 18235" transform="translate(-513 -602)">
    <g id="Grupo_18124" data-name="Grupo 18124">
      <path id="Trazado_20235" data-name="Trazado 20235" class="cls-1" d="M4,0H708c2.209,0,4,.727,4,1.624V203.376c0,.9-1.791,1.624-4,1.624H4c-2.209,0-4-.727-4-1.624V1.624C0,.727,1.791,0,4,0Z" transform="translate(513 602)"/>
    </g>
    <g id="Rectángulo_8943" data-name="Rectángulo 8943" class="cls-2" transform="translate(858.496 726.286) rotate(-90)">
      <rect class="cls-7" width="24" height="24"/>
      <rect class="cls-4" x="0.5" y="0.5" width="23" height="23"/>
    </g>
    <g id="Rectángulo_8951" data-name="Rectángulo 8951" class="cls-2" transform="translate(752.496 726.286) rotate(-90)">
      <rect class="cls-7" width="24" height="250"/>
      <rect class="cls-4" x="0.5" y="0.5" width="23" height="249"/>
    </g>
    <path id="Trazado_23824" data-name="Trazado 23824" class="cls-3" d="M1.57-11.422H4.8a6.088,6.088,0,0,1,3.289.68A2.4,2.4,0,0,1,9.1-8.594a2.482,2.482,0,0,1-.566,1.676,2.727,2.727,0,0,1-1.652.855v.078q2.6.445,2.6,2.734A2.937,2.937,0,0,1,8.449-.859,4.406,4.406,0,0,1,5.555,0H1.57ZM2.9-6.531H5.086a3.561,3.561,0,0,0,2.023-.441,1.7,1.7,0,0,0,.617-1.488,1.506,1.506,0,0,0-.687-1.387,4.3,4.3,0,0,0-2.187-.426H2.9Zm0,1.125v4.273H5.281a3.394,3.394,0,0,0,2.082-.535,1.976,1.976,0,0,0,.7-1.676,1.775,1.775,0,0,0-.715-1.562,3.821,3.821,0,0,0-2.176-.5ZM12.961-8.562v5.555a2.235,2.235,0,0,0,.477,1.563A1.941,1.941,0,0,0,14.93-.93a2.435,2.435,0,0,0,1.965-.734,3.7,3.7,0,0,0,.621-2.4v-4.5h1.3V0h-1.07l-.187-1.148h-.07a2.585,2.585,0,0,1-1.105.969,3.716,3.716,0,0,1-1.613.336,3.273,3.273,0,0,1-2.34-.742,3.159,3.159,0,0,1-.777-2.375v-5.6ZM25.18.156a3.934,3.934,0,0,1-3-1.156,4.476,4.476,0,0,1-1.1-3.211A4.964,4.964,0,0,1,22.105-7.5a3.387,3.387,0,0,1,2.738-1.219A3.229,3.229,0,0,1,27.391-7.66a4.057,4.057,0,0,1,.938,2.793v.82h-5.9a3.394,3.394,0,0,0,.762,2.289,2.635,2.635,0,0,0,2.035.781,6.9,6.9,0,0,0,2.734-.578V-.4a6.863,6.863,0,0,1-1.3.426A7.31,7.31,0,0,1,25.18.156Zm-.352-7.789a2.118,2.118,0,0,0-1.645.672A3.1,3.1,0,0,0,22.461-5.1h4.477a2.851,2.851,0,0,0-.547-1.879A1.925,1.925,0,0,0,24.828-7.633ZM36.4,0V-5.539A2.235,2.235,0,0,0,35.922-7.1a1.941,1.941,0,0,0-1.492-.516,2.461,2.461,0,0,0-1.969.727,3.668,3.668,0,0,0-.625,2.4V0h-1.3V-8.562h1.055L31.8-7.391h.063a2.648,2.648,0,0,1,1.117-.98,3.63,3.63,0,0,1,1.6-.348,3.252,3.252,0,0,1,2.328.746A3.175,3.175,0,0,1,37.7-5.586V0ZM47.75-4.289A4.724,4.724,0,0,1,46.7-1.02,3.714,3.714,0,0,1,43.781.156a3.86,3.86,0,0,1-2.039-.539A3.558,3.558,0,0,1,40.367-1.93a5.391,5.391,0,0,1-.484-2.359A4.716,4.716,0,0,1,40.93-7.551a3.7,3.7,0,0,1,2.906-1.168,3.622,3.622,0,0,1,2.855,1.2A4.7,4.7,0,0,1,47.75-4.289Zm-6.523,0a4.064,4.064,0,0,0,.656,2.5,2.278,2.278,0,0,0,1.93.859,2.293,2.293,0,0,0,1.934-.855,4.043,4.043,0,0,0,.66-2.5,3.978,3.978,0,0,0-.66-2.48A2.32,2.32,0,0,0,43.8-7.617a2.283,2.283,0,0,0-1.922.836A4.023,4.023,0,0,0,41.227-4.289Zm14.32,1.953a2.145,2.145,0,0,1-.891,1.844,4.186,4.186,0,0,1-2.5.648A5.436,5.436,0,0,1,49.5-.383v-1.2a6.424,6.424,0,0,0,1.324.492,5.53,5.53,0,0,0,1.363.18,3.092,3.092,0,0,0,1.563-.324,1.072,1.072,0,0,0,.547-.988,1.073,1.073,0,0,0-.434-.855,6.82,6.82,0,0,0-1.691-.84,9.172,9.172,0,0,1-1.7-.777,2.321,2.321,0,0,1-.75-.754,1.966,1.966,0,0,1-.246-1.008,1.921,1.921,0,0,1,.852-1.652,3.968,3.968,0,0,1,2.336-.605,6.835,6.835,0,0,1,2.7.563L54.906-7.1a6.2,6.2,0,0,0-2.336-.531,2.688,2.688,0,0,0-1.391.289.894.894,0,0,0-.469.8.971.971,0,0,0,.176.586,1.735,1.735,0,0,0,.566.461,12.658,12.658,0,0,0,1.5.633A5.6,5.6,0,0,1,55.012-3.75,1.97,1.97,0,0,1,55.547-2.336ZM69.188,0,67.766-3.633H63.188L61.781,0H60.438l4.516-11.469H66.07L70.563,0ZM67.352-4.828,66.023-8.367q-.258-.672-.531-1.648A14.8,14.8,0,0,1,65-8.367L63.656-4.828ZM73.234,0h-1.3V-8.562h1.3ZM71.828-10.883a.861.861,0,0,1,.219-.652.764.764,0,0,1,.547-.207.764.764,0,0,1,.539.211.846.846,0,0,1,.227.648.859.859,0,0,1-.227.652.757.757,0,0,1-.539.215.749.749,0,0,1-.547-.215A.877.877,0,0,1,71.828-10.883Zm8.063,2.164a5.075,5.075,0,0,1,1.023.094l-.18,1.2a4.418,4.418,0,0,0-.937-.117A2.282,2.282,0,0,0,78.02-6.7a3.077,3.077,0,0,0-.738,2.1V0h-1.3V-8.562h1.07L77.2-6.977h.063a3.764,3.764,0,0,1,1.148-1.289A2.585,2.585,0,0,1,79.891-8.719ZM86.133.156a3.934,3.934,0,0,1-3-1.156,4.476,4.476,0,0,1-1.1-3.211A4.964,4.964,0,0,1,83.059-7.5,3.387,3.387,0,0,1,85.8-8.719,3.229,3.229,0,0,1,88.344-7.66a4.057,4.057,0,0,1,.938,2.793v.82h-5.9a3.394,3.394,0,0,0,.762,2.289,2.635,2.635,0,0,0,2.035.781,6.9,6.9,0,0,0,2.734-.578V-.4a6.863,6.863,0,0,1-1.3.426A7.31,7.31,0,0,1,86.133.156Zm-.352-7.789a2.118,2.118,0,0,0-1.645.672A3.1,3.1,0,0,0,83.414-5.1h4.477a2.851,2.851,0,0,0-.547-1.879A1.925,1.925,0,0,0,85.781-7.633Zm11.234,5.3a2.145,2.145,0,0,1-.891,1.844,4.186,4.186,0,0,1-2.5.648,5.436,5.436,0,0,1-2.656-.539v-1.2a6.424,6.424,0,0,0,1.324.492,5.53,5.53,0,0,0,1.363.18,3.092,3.092,0,0,0,1.563-.324,1.072,1.072,0,0,0,.547-.988,1.073,1.073,0,0,0-.434-.855,6.82,6.82,0,0,0-1.691-.84,9.172,9.172,0,0,1-1.7-.777,2.321,2.321,0,0,1-.75-.754,1.966,1.966,0,0,1-.246-1.008A1.921,1.921,0,0,1,91.8-8.113a3.968,3.968,0,0,1,2.336-.605,6.835,6.835,0,0,1,2.7.563L96.375-7.1a6.2,6.2,0,0,0-2.336-.531,2.687,2.687,0,0,0-1.391.289.894.894,0,0,0-.469.8.971.971,0,0,0,.176.586,1.735,1.735,0,0,0,.566.461,12.657,12.657,0,0,0,1.5.633A5.6,5.6,0,0,1,96.48-3.75,1.97,1.97,0,0,1,97.016-2.336Z" transform="translate(752.496 721)"/>
    <path id="Trazado_23823" data-name="Trazado 23823" class="cls-3" d="M8.813-8.094A3.2,3.2,0,0,1,7.629-5.426a5.362,5.362,0,0,1-3.387.934H2.9V0H1.57V-11.422H4.531Q8.812-11.422,8.813-8.094ZM2.9-5.633h1.2A4.442,4.442,0,0,0,6.648-6.2a2.1,2.1,0,0,0,.789-1.828A1.971,1.971,0,0,0,6.7-9.719a3.877,3.877,0,0,0-2.312-.555H2.9ZM16.273,0l-.258-1.219h-.062a3.6,3.6,0,0,1-1.277,1.09,3.893,3.893,0,0,1-1.59.285,2.86,2.86,0,0,1-2-.656,2.394,2.394,0,0,1-.723-1.867q0-2.594,4.148-2.719l1.453-.047v-.531a2.171,2.171,0,0,0-.434-1.488,1.783,1.783,0,0,0-1.387-.48,5.65,5.65,0,0,0-2.422.656l-.4-.992a6.094,6.094,0,0,1,1.387-.539,6.006,6.006,0,0,1,1.512-.2,3.262,3.262,0,0,1,2.27.68,2.837,2.837,0,0,1,.738,2.18V0Zm-2.93-.914a2.632,2.632,0,0,0,1.9-.664,2.457,2.457,0,0,0,.691-1.859v-.773l-1.3.055a4.717,4.717,0,0,0-2.23.48,1.449,1.449,0,0,0-.684,1.324,1.336,1.336,0,0,0,.426,1.07A1.767,1.767,0,0,0,13.344-.914Zm-.3-8.977q.375-.484.809-1.172a13.411,13.411,0,0,0,.684-1.2h1.578v.164a11.549,11.549,0,0,1-1.023,1.25A11.619,11.619,0,0,1,13.906-9.7h-.867ZM26.914-8.562v.82l-1.586.188a2.726,2.726,0,0,1,.391.715,2.727,2.727,0,0,1,.172,1,2.531,2.531,0,0,1-.859,2.008,3.467,3.467,0,0,1-2.359.75,3.929,3.929,0,0,1-.719-.062,1.276,1.276,0,0,0-.828,1.1.56.56,0,0,0,.289.52,2.112,2.112,0,0,0,.992.168h1.516a3.394,3.394,0,0,1,2.137.586A2.036,2.036,0,0,1,26.8.93,2.431,2.431,0,0,1,25.664,3.1a6.1,6.1,0,0,1-3.328.746,4.547,4.547,0,0,1-2.59-.625,2.018,2.018,0,0,1-.91-1.766A1.983,1.983,0,0,1,19.336.1a2.546,2.546,0,0,1,1.406-.773,1.357,1.357,0,0,1-.551-.461,1.22,1.22,0,0,1-.223-.727,1.379,1.379,0,0,1,.25-.82,2.628,2.628,0,0,1,.789-.68,2.313,2.313,0,0,1-1.082-.93,2.732,2.732,0,0,1-.418-1.5,2.771,2.771,0,0,1,.844-2.168,3.445,3.445,0,0,1,2.391-.762,4.347,4.347,0,0,1,1.211.156Zm-6.828,10a1.162,1.162,0,0,0,.586,1.055,3.234,3.234,0,0,0,1.68.359,4.687,4.687,0,0,0,2.418-.488,1.5,1.5,0,0,0,.785-1.324,1.048,1.048,0,0,0-.43-.965A3.337,3.337,0,0,0,23.508-.2H21.953a2.048,2.048,0,0,0-1.375.422A1.507,1.507,0,0,0,20.086,1.438Zm.7-7.258A1.743,1.743,0,0,0,21.3-4.461,2.028,2.028,0,0,0,22.711-4a1.654,1.654,0,0,0,1.9-1.844,1.7,1.7,0,0,0-1.922-1.93,1.9,1.9,0,0,0-1.406.492A1.982,1.982,0,0,0,20.789-5.82ZM29.969,0h-1.3V-8.562h1.3ZM28.563-10.883a.861.861,0,0,1,.219-.652.764.764,0,0,1,.547-.207.764.764,0,0,1,.539.211.846.846,0,0,1,.227.648.859.859,0,0,1-.227.652.757.757,0,0,1-.539.215.749.749,0,0,1-.547-.215A.877.877,0,0,1,28.563-10.883ZM38.578,0V-5.539A2.235,2.235,0,0,0,38.1-7.1a1.941,1.941,0,0,0-1.492-.516,2.461,2.461,0,0,0-1.969.727,3.668,3.668,0,0,0-.625,2.4V0h-1.3V-8.562h1.055l.211,1.172h.063a2.648,2.648,0,0,1,1.117-.98,3.63,3.63,0,0,1,1.6-.348,3.252,3.252,0,0,1,2.328.746,3.175,3.175,0,0,1,.781,2.387V0ZM47.8,0l-.258-1.219h-.062a3.6,3.6,0,0,1-1.277,1.09,3.893,3.893,0,0,1-1.59.285,2.86,2.86,0,0,1-2-.656A2.394,2.394,0,0,1,41.9-2.367q0-2.594,4.148-2.719L47.5-5.133v-.531a2.171,2.171,0,0,0-.434-1.488,1.783,1.783,0,0,0-1.387-.48,5.65,5.65,0,0,0-2.422.656l-.4-.992a6.094,6.094,0,0,1,1.387-.539,6.006,6.006,0,0,1,1.512-.2,3.262,3.262,0,0,1,2.27.68,2.837,2.837,0,0,1,.738,2.18V0Zm-2.93-.914a2.632,2.632,0,0,0,1.9-.664,2.457,2.457,0,0,0,.691-1.859v-.773l-1.3.055a4.717,4.717,0,0,0-2.23.48,1.449,1.449,0,0,0-.684,1.324,1.336,1.336,0,0,0,.426,1.07A1.767,1.767,0,0,0,44.875-.914ZM60.859,0,60.6-1.219h-.062a3.6,3.6,0,0,1-1.277,1.09,3.893,3.893,0,0,1-1.59.285,2.86,2.86,0,0,1-2-.656,2.394,2.394,0,0,1-.723-1.867q0-2.594,4.148-2.719l1.453-.047v-.531a2.171,2.171,0,0,0-.434-1.488,1.783,1.783,0,0,0-1.387-.48,5.65,5.65,0,0,0-2.422.656l-.4-.992A6.094,6.094,0,0,1,57.3-8.508a6.006,6.006,0,0,1,1.512-.2,3.262,3.262,0,0,1,2.27.68,2.837,2.837,0,0,1,.738,2.18V0ZM57.93-.914a2.632,2.632,0,0,0,1.9-.664,2.457,2.457,0,0,0,.691-1.859v-.773l-1.3.055a4.717,4.717,0,0,0-2.23.48,1.449,1.449,0,0,0-.684,1.324,1.336,1.336,0,0,0,.426,1.07A1.767,1.767,0,0,0,57.93-.914ZM70.352,0V-5.539A2.235,2.235,0,0,0,69.875-7.1a1.941,1.941,0,0,0-1.492-.516,2.461,2.461,0,0,0-1.969.727,3.668,3.668,0,0,0-.625,2.4V0h-1.3V-8.562h1.055l.211,1.172h.063a2.648,2.648,0,0,1,1.117-.98,3.63,3.63,0,0,1,1.6-.348,3.252,3.252,0,0,1,2.328.746,3.175,3.175,0,0,1,.781,2.387V0Zm6.727-.914a4.236,4.236,0,0,0,.664-.051,4.3,4.3,0,0,0,.508-.105v.992a2.371,2.371,0,0,1-.621.168,4.664,4.664,0,0,1-.738.066q-2.484,0-2.484-2.617V-7.555H73.18V-8.18l1.227-.539.547-1.828h.75v1.984h2.484v1.008H75.7v5.039a1.734,1.734,0,0,0,.367,1.188A1.278,1.278,0,0,0,77.078-.914Zm6.5,1.07a3.934,3.934,0,0,1-3-1.156,4.476,4.476,0,0,1-1.1-3.211A4.964,4.964,0,0,1,80.5-7.5a3.387,3.387,0,0,1,2.738-1.219A3.229,3.229,0,0,1,85.789-7.66a4.057,4.057,0,0,1,.938,2.793v.82h-5.9a3.394,3.394,0,0,0,.762,2.289,2.635,2.635,0,0,0,2.035.781,6.9,6.9,0,0,0,2.734-.578V-.4a6.863,6.863,0,0,1-1.3.426A7.31,7.31,0,0,1,83.578.156Zm-.352-7.789a2.118,2.118,0,0,0-1.645.672A3.1,3.1,0,0,0,80.859-5.1h4.477a2.851,2.851,0,0,0-.547-1.879A1.925,1.925,0,0,0,83.227-7.633Zm9.617-1.086a5.075,5.075,0,0,1,1.023.094l-.18,1.2a4.418,4.418,0,0,0-.937-.117,2.282,2.282,0,0,0-1.777.844,3.077,3.077,0,0,0-.738,2.1V0h-1.3V-8.562h1.07l.148,1.586h.063a3.764,3.764,0,0,1,1.148-1.289A2.585,2.585,0,0,1,92.844-8.719ZM96.766,0h-1.3V-8.562h1.3ZM95.359-10.883a.861.861,0,0,1,.219-.652.764.764,0,0,1,.547-.207.764.764,0,0,1,.539.211.846.846,0,0,1,.227.648.859.859,0,0,1-.227.652.757.757,0,0,1-.539.215.749.749,0,0,1-.547-.215A.877.877,0,0,1,95.359-10.883Zm11.547,6.594a4.724,4.724,0,0,1-1.055,3.27A3.714,3.714,0,0,1,102.938.156,3.86,3.86,0,0,1,100.9-.383,3.558,3.558,0,0,1,99.523-1.93a5.391,5.391,0,0,1-.484-2.359,4.716,4.716,0,0,1,1.047-3.262,3.7,3.7,0,0,1,2.906-1.168,3.622,3.622,0,0,1,2.855,1.2A4.7,4.7,0,0,1,106.906-4.289Zm-6.523,0a4.064,4.064,0,0,0,.656,2.5,2.278,2.278,0,0,0,1.93.859,2.293,2.293,0,0,0,1.934-.855,4.043,4.043,0,0,0,.66-2.5,3.978,3.978,0,0,0-.66-2.48,2.32,2.32,0,0,0-1.949-.848,2.283,2.283,0,0,0-1.922.836A4.023,4.023,0,0,0,100.383-4.289Zm12.7-4.43a5.075,5.075,0,0,1,1.023.094l-.18,1.2a4.418,4.418,0,0,0-.937-.117,2.282,2.282,0,0,0-1.777.844,3.077,3.077,0,0,0-.738,2.1V0h-1.3V-8.562h1.07l.148,1.586h.063a3.764,3.764,0,0,1,1.148-1.289A2.585,2.585,0,0,1,113.086-8.719Z" transform="translate(886.496 720)"/>
    <g id="Grupo_13236" data-name="Grupo 13236" transform="translate(-1270.504 9720)">
      <rect id="Rectángulo_6067" data-name="Rectángulo 6067" class="cls-4" width="24" height="24" transform="translate(2129 -9018)"/>
      <path id="Trazado_10720" data-name="Trazado 10720" class="cls-5" d="M6.7,6.29,5.3,7.71,9.621,12,5.3,16.29,6.7,17.71,12.461,12Z" transform="translate(2131.704 -9018.29)"/>
    </g>
    <g id="Grupo_18125" data-name="Grupo 18125" transform="translate(53.496 15)">
      <line id="Línea_114" data-name="Línea 114" class="cls-6" x2="23.787" transform="translate(680 687.5) rotate(90)"/>
      <path id="Trazado_4671" data-name="Trazado 4671" class="cls-6" d="M0,0V3.033" transform="translate(680 711.286) rotate(-90)"/>
      <path id="Trazado_20265" data-name="Trazado 20265" class="cls-6" d="M0,0V3.033" transform="translate(680.001 687.286) rotate(-90)"/>
    </g>
    <g id="Grupo_18173" data-name="Grupo 18173" transform="translate(1569.3 2.769) rotate(90)">
      <line id="Línea_114-2" data-name="Línea 114" class="cls-6" x2="23.787" transform="translate(680 687.5) rotate(90)"/>
      <path id="Trazado_4671-2" data-name="Trazado 4671" class="cls-6" d="M0,0V3.033" transform="translate(680 711.286) rotate(-90)"/>
      <path id="Trazado_20265-2" data-name="Trazado 20265" class="cls-6" d="M0,0V3.033" transform="translate(680.001 687.286) rotate(-90)"/>
    </g>
    <path id="Trazado_23825" data-name="Trazado 23825" class="cls-5" d="M2.24.1A.99.99,0,0,1,1.5-.192a1.033,1.033,0,0,1-.28-.752v-9.392a1.006,1.006,0,0,1,.28-.744,1.006,1.006,0,0,1,.744-.28,1.027,1.027,0,0,1,.76.28,1.006,1.006,0,0,1,.28.744V-.944A1.033,1.033,0,0,1,3-.192,1.011,1.011,0,0,1,2.24.1ZM2.5-12.224a.568.568,0,0,1-.256.064.494.494,0,0,1-.352-.136.418.418,0,0,1-.144-.312.507.507,0,0,1,.176-.352l1.456-1.5a.928.928,0,0,1,.688-.32.754.754,0,0,1,.552.232.736.736,0,0,1,.232.536.682.682,0,0,1-.136.4,1.141,1.141,0,0,1-.408.336ZM8.992.128a4.146,4.146,0,0,1-2.056-.5A3.381,3.381,0,0,1,5.568-1.776,4.505,4.505,0,0,1,5.088-3.9a4.468,4.468,0,0,1,.5-2.152A3.56,3.56,0,0,1,7.008-7.5a4.208,4.208,0,0,1,2.1-.512,4.665,4.665,0,0,1,1.256.176,4.143,4.143,0,0,1,1.112.48.99.99,0,0,1,.512.848.9.9,0,0,1-.168.568.531.531,0,0,1-.44.216.956.956,0,0,1-.368-.08A3.223,3.223,0,0,1,10.624-6a4.3,4.3,0,0,0-.672-.328,2.088,2.088,0,0,0-.736-.12A1.871,1.871,0,0,0,7.688-5.8a2.855,2.855,0,0,0-.536,1.864,2.827,2.827,0,0,0,.536,1.848,1.871,1.871,0,0,0,1.528.648,1.973,1.973,0,0,0,.712-.12,6.031,6.031,0,0,0,.7-.328A3.168,3.168,0,0,1,11.04-2.1a.923.923,0,0,1,.352-.072.531.531,0,0,1,.432.224.879.879,0,0,1,.176.56.9.9,0,0,1-.12.472,1.081,1.081,0,0,1-.392.36,4.207,4.207,0,0,1-1.152.5A4.953,4.953,0,0,1,8.992.128Zm7.888,0a4.3,4.3,0,0,1-2.1-.5,3.432,3.432,0,0,1-1.4-1.424,4.515,4.515,0,0,1-.5-2.16,4.468,4.468,0,0,1,.5-2.152,3.444,3.444,0,0,1,1.4-1.416,4.3,4.3,0,0,1,2.1-.5,4.3,4.3,0,0,1,2.1.5A3.394,3.394,0,0,1,20.376-6.1a4.527,4.527,0,0,1,.488,2.152,4.575,4.575,0,0,1-.488,2.16A3.382,3.382,0,0,1,18.984-.368,4.3,4.3,0,0,1,16.88.128Zm-.016-1.552a1.793,1.793,0,0,0,1.488-.64,2.973,2.973,0,0,0,.512-1.888,2.979,2.979,0,0,0-.512-1.88A1.765,1.765,0,0,0,16.88-6.48a1.788,1.788,0,0,0-1.48.648,2.946,2.946,0,0,0-.52,1.88,2.973,2.973,0,0,0,.512,1.888A1.775,1.775,0,0,0,16.864-1.424ZM27.04-8.016a2.615,2.615,0,0,1,2.1.8A3.628,3.628,0,0,1,29.824-4.8V-.864a.935.935,0,0,1-.264.7A1,1,0,0,1,28.832.1,1.03,1.03,0,0,1,28.1-.16a.92.92,0,0,1-.272-.7V-4.688a2.074,2.074,0,0,0-.344-1.328,1.322,1.322,0,0,0-1.08-.416,1.826,1.826,0,0,0-1.384.544,2.019,2.019,0,0,0-.52,1.456V-.864a.92.92,0,0,1-.272.7A1.03,1.03,0,0,1,23.488.1,1,1,0,0,1,22.76-.16a.935.935,0,0,1-.264-.7V-7.056a.88.88,0,0,1,.272-.672,1.03,1.03,0,0,1,.736-.256.953.953,0,0,1,.68.248.848.848,0,0,1,.264.648v.432A2.706,2.706,0,0,1,25.52-7.664,3.226,3.226,0,0,1,27.04-8.016ZM35.408.128a4.3,4.3,0,0,1-2.1-.5,3.432,3.432,0,0,1-1.4-1.424,4.515,4.515,0,0,1-.5-2.16A4.468,4.468,0,0,1,31.9-6.1,3.444,3.444,0,0,1,33.3-7.52a4.3,4.3,0,0,1,2.1-.5,4.3,4.3,0,0,1,2.1.5A3.394,3.394,0,0,1,38.9-6.1a4.527,4.527,0,0,1,.488,2.152,4.575,4.575,0,0,1-.488,2.16A3.382,3.382,0,0,1,37.512-.368,4.3,4.3,0,0,1,35.408.128Zm-.016-1.552a1.793,1.793,0,0,0,1.488-.64,2.973,2.973,0,0,0,.512-1.888,2.979,2.979,0,0,0-.512-1.88,1.765,1.765,0,0,0-1.472-.648,1.788,1.788,0,0,0-1.48.648,2.946,2.946,0,0,0-.52,1.88,2.973,2.973,0,0,0,.512,1.888A1.775,1.775,0,0,0,35.392-1.424Z" transform="translate(850.496 660)"/>
    <path id="Trazado_23826" data-name="Trazado 23826" class="cls-5" d="M-45.5,0a1,1,0,0,1-.728-.256.956.956,0,0,1-.264-.72V-10.3a.956.956,0,0,1,.264-.72,1,1,0,0,1,.728-.256h5.776a1.113,1.113,0,0,1,.72.208.719.719,0,0,1,.256.592.761.761,0,0,1-.256.616,1.085,1.085,0,0,1-.72.216H-44.48v3.1h4.432a1.113,1.113,0,0,1,.72.208.738.738,0,0,1,.256.608.719.719,0,0,1-.256.592,1.113,1.113,0,0,1-.72.208H-44.48v3.3h4.752a1.085,1.085,0,0,1,.72.216.761.761,0,0,1,.256.616.719.719,0,0,1-.256.592,1.113,1.113,0,0,1-.72.208ZM-32.72-8.016a2.615,2.615,0,0,1,2.1.8A3.628,3.628,0,0,1-29.936-4.8V-.864a.935.935,0,0,1-.264.7A1,1,0,0,1-30.928.1a1.03,1.03,0,0,1-.736-.256.92.92,0,0,1-.272-.7V-4.688a2.074,2.074,0,0,0-.344-1.328,1.322,1.322,0,0,0-1.08-.416,1.826,1.826,0,0,0-1.384.544,2.019,2.019,0,0,0-.52,1.456V-.864a.92.92,0,0,1-.272.7A1.03,1.03,0,0,1-36.272.1,1,1,0,0,1-37-.16a.935.935,0,0,1-.264-.7V-7.056a.88.88,0,0,1,.272-.672,1.03,1.03,0,0,1,.736-.256.953.953,0,0,1,.68.248.848.848,0,0,1,.264.648v.432A2.706,2.706,0,0,1-34.24-7.664,3.226,3.226,0,0,1-32.72-8.016ZM-26.928.1a1.034,1.034,0,0,1-.712-.248.9.9,0,0,1-.28-.712v-9.552a.876.876,0,0,1,.28-.7,1.055,1.055,0,0,1,.712-.24,1.087,1.087,0,0,1,.72.24.864.864,0,0,1,.288.7V-.864a.888.888,0,0,1-.288.712A1.064,1.064,0,0,1-26.928.1Zm6.448-8.112a3.259,3.259,0,0,1,2.424.808,3.383,3.383,0,0,1,.792,2.456v3.9a.9.9,0,0,1-.256.68.969.969,0,0,1-.7.248.936.936,0,0,1-.68-.256.894.894,0,0,1-.264-.672V-1.2a2.088,2.088,0,0,1-.856.976,2.568,2.568,0,0,1-1.352.352A3.139,3.139,0,0,1-22.8-.192a2.533,2.533,0,0,1-1.008-.88,2.224,2.224,0,0,1-.368-1.248,1.977,1.977,0,0,1,.44-1.36A2.644,2.644,0,0,1-22.3-4.4a13.041,13.041,0,0,1,2.736-.224h.4v-.368A1.638,1.638,0,0,0-19.5-6.136a1.43,1.43,0,0,0-1.088-.36,3.452,3.452,0,0,0-.944.136q-.48.136-1.136.392a1.6,1.6,0,0,1-.608.208.6.6,0,0,1-.472-.208.791.791,0,0,1-.184-.544.819.819,0,0,1,.136-.472,1.291,1.291,0,0,1,.456-.376,5.215,5.215,0,0,1,1.336-.48A6.893,6.893,0,0,1-20.48-8.016Zm-.5,6.7a1.709,1.709,0,0,0,1.3-.536,1.939,1.939,0,0,0,.5-1.384v-.336h-.288a11.038,11.038,0,0,0-1.664.1,1.616,1.616,0,0,0-.848.336.856.856,0,0,0-.256.656,1.085,1.085,0,0,0,.36.84A1.27,1.27,0,0,0-20.976-1.312Zm9.2,1.44a4.146,4.146,0,0,1-2.056-.5A3.381,3.381,0,0,1-15.2-1.776,4.505,4.505,0,0,1-15.68-3.9a4.468,4.468,0,0,1,.5-2.152A3.56,3.56,0,0,1-13.76-7.5a4.208,4.208,0,0,1,2.1-.512,4.665,4.665,0,0,1,1.256.176A4.143,4.143,0,0,1-9.3-7.36a.99.99,0,0,1,.512.848.9.9,0,0,1-.168.568.531.531,0,0,1-.44.216.956.956,0,0,1-.368-.08A3.223,3.223,0,0,1-10.144-6a4.3,4.3,0,0,0-.672-.328,2.088,2.088,0,0,0-.736-.12A1.871,1.871,0,0,0-13.08-5.8a2.855,2.855,0,0,0-.536,1.864,2.827,2.827,0,0,0,.536,1.848,1.871,1.871,0,0,0,1.528.648,1.973,1.973,0,0,0,.712-.12,6.031,6.031,0,0,0,.7-.328A3.168,3.168,0,0,1-9.728-2.1a.923.923,0,0,1,.352-.072.531.531,0,0,1,.432.224.879.879,0,0,1,.176.56.9.9,0,0,1-.12.472,1.081,1.081,0,0,1-.392.36,4.207,4.207,0,0,1-1.152.5A4.953,4.953,0,0,1-11.776.128ZM-1.264-2.144a.538.538,0,0,1,.44.208.865.865,0,0,1,.168.56.97.97,0,0,1-.592.832A5.349,5.349,0,0,1-2.48-.056,5.079,5.079,0,0,1-3.792.128,4.077,4.077,0,0,1-6.784-.96a3.988,3.988,0,0,1-1.1-2.976,4.566,4.566,0,0,1,.48-2.128A3.49,3.49,0,0,1-6.056-7.5,3.829,3.829,0,0,1-4.08-8.016a3.546,3.546,0,0,1,1.84.464A3.146,3.146,0,0,1-1.024-6.24a4.353,4.353,0,0,1,.432,2q0,.688-.608.688H-5.92A2.517,2.517,0,0,0-5.3-1.928a2.1,2.1,0,0,0,1.536.52,2.913,2.913,0,0,0,.9-.128,8.923,8.923,0,0,0,.888-.352A1.766,1.766,0,0,1-1.264-2.144ZM-4.032-6.608a1.717,1.717,0,0,0-1.3.512A2.417,2.417,0,0,0-5.92-4.624H-2.3a2.281,2.281,0,0,0-.48-1.48A1.583,1.583,0,0,0-4.032-6.608Z" transform="translate(713.496 720)"/>
  </g>
</svg>
