<svg width="143" height="24" viewBox="0 0 143 24" fill="none" xmlns="http://www.w3.org/2000/svg">
<g clip-path="url(#clip0_177_525)">
<path d="M14.71 15.88L10.83 12L14.71 8.11998C15.1 7.72998 15.1 7.09998 14.71 6.70998C14.32 6.31998 13.69 6.31998 13.3 6.70998L8.71001 11.3C8.32001 11.69 8.32001 12.32 8.71001 12.71L13.3 17.3C13.69 17.69 14.32 17.69 14.71 17.3C15.09 16.91 15.1 16.27 14.71 15.88Z" fill="#38485C"/>
</g>
<path d="M32.5469 6.57812C34.0208 6.57812 35.0964 6.86719 35.7734 7.44531C36.4557 8.01823 36.7969 8.84115 36.7969 9.91406C36.7969 10.3984 36.7161 10.8594 36.5547 11.2969C36.3984 11.7292 36.1432 12.112 35.7891 12.4453C35.4349 12.7734 34.9688 13.0339 34.3906 13.2266C33.8177 13.4141 33.1146 13.5078 32.2812 13.5078H30.8906V18H29.5625V6.57812H32.5469ZM32.4219 7.71094H30.8906V12.3672H32.1328C32.862 12.3672 33.4688 12.2891 33.9531 12.1328C34.4427 11.9766 34.8099 11.724 35.0547 11.375C35.2995 11.0208 35.4219 10.5521 35.4219 9.96875C35.4219 9.20833 35.1797 8.64323 34.6953 8.27344C34.2109 7.89844 33.4531 7.71094 32.4219 7.71094ZM42.1953 9.29688C43.2161 9.29688 43.974 9.52604 44.4688 9.98438C44.9635 10.4427 45.2109 11.1745 45.2109 12.1797V18H44.2656L44.0156 16.7344H43.9531C43.7135 17.0469 43.4635 17.3099 43.2031 17.5234C42.9427 17.7318 42.6406 17.8906 42.2969 18C41.9583 18.1042 41.5417 18.1562 41.0469 18.1562C40.526 18.1562 40.0625 18.0651 39.6562 17.8828C39.2552 17.7005 38.9375 17.4245 38.7031 17.0547C38.474 16.6849 38.3594 16.2161 38.3594 15.6484C38.3594 14.7943 38.6979 14.138 39.375 13.6797C40.0521 13.2214 41.0833 12.9714 42.4688 12.9297L43.9453 12.8672V12.3438C43.9453 11.6042 43.7865 11.0859 43.4688 10.7891C43.151 10.4922 42.7031 10.3438 42.125 10.3438C41.6771 10.3438 41.25 10.4089 40.8438 10.5391C40.4375 10.6693 40.0521 10.8229 39.6875 11L39.2891 10.0156C39.6745 9.81771 40.1172 9.64844 40.6172 9.50781C41.1172 9.36719 41.6432 9.29688 42.1953 9.29688ZM43.9297 13.7812L42.625 13.8359C41.5573 13.8776 40.8047 14.0521 40.3672 14.3594C39.9297 14.6667 39.7109 15.1016 39.7109 15.6641C39.7109 16.1536 39.8594 16.5156 40.1562 16.75C40.4531 16.9844 40.8464 17.1016 41.3359 17.1016C42.0964 17.1016 42.7188 16.8906 43.2031 16.4688C43.6875 16.0469 43.9297 15.4141 43.9297 14.5703V13.7812ZM44.3359 5.74219V5.89844C44.2318 6.04948 44.0885 6.23177 43.9062 6.44531C43.7292 6.65365 43.5312 6.875 43.3125 7.10938C43.0938 7.33854 42.8724 7.55729 42.6484 7.76562C42.4297 7.97396 42.2266 8.15365 42.0391 8.30469H41.1719V8.11719C41.3385 7.91927 41.5208 7.68229 41.7188 7.40625C41.9167 7.125 42.1094 6.83854 42.2969 6.54688C42.4844 6.25 42.6406 5.98177 42.7656 5.74219H44.3359ZM50.2734 21.8438C49.1484 21.8438 48.2812 21.6328 47.6719 21.2109C47.0625 20.7943 46.7578 20.2083 46.7578 19.4531C46.7578 18.9167 46.9271 18.4583 47.2656 18.0781C47.6094 17.6979 48.0833 17.4453 48.6875 17.3203C48.4635 17.2161 48.2708 17.0599 48.1094 16.8516C47.9531 16.6432 47.875 16.4036 47.875 16.1328C47.875 15.8203 47.9609 15.5469 48.1328 15.3125C48.3099 15.0729 48.5781 14.8438 48.9375 14.625C48.4896 14.4427 48.125 14.1354 47.8438 13.7031C47.5677 13.2656 47.4297 12.7578 47.4297 12.1797C47.4297 11.5651 47.5573 11.0417 47.8125 10.6094C48.0677 10.1719 48.4375 9.83854 48.9219 9.60938C49.4062 9.38021 49.9922 9.26562 50.6797 9.26562C50.8307 9.26562 50.9818 9.27344 51.1328 9.28906C51.2891 9.29948 51.4375 9.31771 51.5781 9.34375C51.7188 9.36458 51.8411 9.39062 51.9453 9.42188H54.8828V10.2578L53.3047 10.4531C53.4609 10.6562 53.5911 10.901 53.6953 11.1875C53.7995 11.474 53.8516 11.7917 53.8516 12.1406C53.8516 12.9948 53.5625 13.6745 52.9844 14.1797C52.4062 14.6797 51.612 14.9297 50.6016 14.9297C50.362 14.9297 50.1172 14.9089 49.8672 14.8672C49.612 15.0078 49.4167 15.1641 49.2812 15.3359C49.151 15.5078 49.0859 15.7057 49.0859 15.9297C49.0859 16.0964 49.1354 16.2292 49.2344 16.3281C49.3385 16.4271 49.487 16.5 49.6797 16.5469C49.8724 16.5885 50.1042 16.6094 50.375 16.6094H51.8828C52.8151 16.6094 53.5286 16.8047 54.0234 17.1953C54.5234 17.5859 54.7734 18.1562 54.7734 18.9062C54.7734 19.8542 54.388 20.5807 53.6172 21.0859C52.8464 21.5911 51.7318 21.8438 50.2734 21.8438ZM50.3125 20.8281C51.0208 20.8281 51.6068 20.7552 52.0703 20.6094C52.5391 20.4688 52.888 20.263 53.1172 19.9922C53.3516 19.7266 53.4688 19.4089 53.4688 19.0391C53.4688 18.6953 53.3906 18.4349 53.2344 18.2578C53.0781 18.0859 52.849 17.9714 52.5469 17.9141C52.2448 17.8516 51.875 17.8203 51.4375 17.8203H49.9531C49.5677 17.8203 49.2318 17.8802 48.9453 18C48.6589 18.1198 48.4375 18.2969 48.2812 18.5312C48.1302 18.7656 48.0547 19.0573 48.0547 19.4062C48.0547 19.8698 48.25 20.2214 48.6406 20.4609C49.0312 20.7057 49.5885 20.8281 50.3125 20.8281ZM50.6484 13.9844C51.2682 13.9844 51.7344 13.8281 52.0469 13.5156C52.3594 13.2031 52.5156 12.7474 52.5156 12.1484C52.5156 11.5078 52.3568 11.0286 52.0391 10.7109C51.7214 10.388 51.2526 10.2266 50.6328 10.2266C50.0391 10.2266 49.5807 10.3932 49.2578 10.7266C48.9401 11.0547 48.7812 11.5365 48.7812 12.1719C48.7812 12.7552 48.9427 13.2031 49.2656 13.5156C49.5885 13.8281 50.0495 13.9844 50.6484 13.9844ZM57.8672 9.4375V18H56.5703V9.4375H57.8672ZM57.2344 6.23438C57.4479 6.23438 57.6302 6.30469 57.7812 6.44531C57.9375 6.58073 58.0156 6.79427 58.0156 7.08594C58.0156 7.3724 57.9375 7.58594 57.7812 7.72656C57.6302 7.86719 57.4479 7.9375 57.2344 7.9375C57.0104 7.9375 56.8229 7.86719 56.6719 7.72656C56.526 7.58594 56.4531 7.3724 56.4531 7.08594C56.4531 6.79427 56.526 6.58073 56.6719 6.44531C56.8229 6.30469 57.0104 6.23438 57.2344 6.23438ZM64.6719 9.28125C65.6875 9.28125 66.4557 9.53125 66.9766 10.0312C67.4974 10.526 67.7578 11.3229 67.7578 12.4219V18H66.4766V12.5078C66.4766 11.7943 66.3125 11.2604 65.9844 10.9062C65.6615 10.5521 65.1641 10.375 64.4922 10.375C63.5443 10.375 62.8776 10.6432 62.4922 11.1797C62.1068 11.7161 61.9141 12.4948 61.9141 13.5156V18H60.6172V9.4375H61.6641L61.8594 10.6719H61.9297C62.112 10.3698 62.3438 10.1172 62.625 9.91406C62.9062 9.70573 63.2214 9.54948 63.5703 9.44531C63.9193 9.33594 64.2865 9.28125 64.6719 9.28125ZM73.6328 9.29688C74.6536 9.29688 75.4115 9.52604 75.9062 9.98438C76.401 10.4427 76.6484 11.1745 76.6484 12.1797V18H75.7031L75.4531 16.7344H75.3906C75.151 17.0469 74.901 17.3099 74.6406 17.5234C74.3802 17.7318 74.0781 17.8906 73.7344 18C73.3958 18.1042 72.9792 18.1562 72.4844 18.1562C71.9635 18.1562 71.5 18.0651 71.0938 17.8828C70.6927 17.7005 70.375 17.4245 70.1406 17.0547C69.9115 16.6849 69.7969 16.2161 69.7969 15.6484C69.7969 14.7943 70.1354 14.138 70.8125 13.6797C71.4896 13.2214 72.5208 12.9714 73.9062 12.9297L75.3828 12.8672V12.3438C75.3828 11.6042 75.224 11.0859 74.9062 10.7891C74.5885 10.4922 74.1406 10.3438 73.5625 10.3438C73.1146 10.3438 72.6875 10.4089 72.2812 10.5391C71.875 10.6693 71.4896 10.8229 71.125 11L70.7266 10.0156C71.112 9.81771 71.5547 9.64844 72.0547 9.50781C72.5547 9.36719 73.0807 9.29688 73.6328 9.29688ZM75.3672 13.7812L74.0625 13.8359C72.9948 13.8776 72.2422 14.0521 71.8047 14.3594C71.3672 14.6667 71.1484 15.1016 71.1484 15.6641C71.1484 16.1536 71.2969 16.5156 71.5938 16.75C71.8906 16.9844 72.2839 17.1016 72.7734 17.1016C73.5339 17.1016 74.1562 16.8906 74.6406 16.4688C75.125 16.0469 75.3672 15.4141 75.3672 14.5703V13.7812ZM86.6797 9.29688C87.7005 9.29688 88.4583 9.52604 88.9531 9.98438C89.4479 10.4427 89.6953 11.1745 89.6953 12.1797V18H88.75L88.5 16.7344H88.4375C88.1979 17.0469 87.9479 17.3099 87.6875 17.5234C87.4271 17.7318 87.125 17.8906 86.7812 18C86.4427 18.1042 86.026 18.1562 85.5312 18.1562C85.0104 18.1562 84.5469 18.0651 84.1406 17.8828C83.7396 17.7005 83.4219 17.4245 83.1875 17.0547C82.9583 16.6849 82.8438 16.2161 82.8438 15.6484C82.8438 14.7943 83.1823 14.138 83.8594 13.6797C84.5365 13.2214 85.5677 12.9714 86.9531 12.9297L88.4297 12.8672V12.3438C88.4297 11.6042 88.2708 11.0859 87.9531 10.7891C87.6354 10.4922 87.1875 10.3438 86.6094 10.3438C86.1615 10.3438 85.7344 10.4089 85.3281 10.5391C84.9219 10.6693 84.5365 10.8229 84.1719 11L83.7734 10.0156C84.1589 9.81771 84.6016 9.64844 85.1016 9.50781C85.6016 9.36719 86.1276 9.29688 86.6797 9.29688ZM88.4141 13.7812L87.1094 13.8359C86.0417 13.8776 85.2891 14.0521 84.8516 14.3594C84.4141 14.6667 84.1953 15.1016 84.1953 15.6641C84.1953 16.1536 84.3438 16.5156 84.6406 16.75C84.9375 16.9844 85.3307 17.1016 85.8203 17.1016C86.5807 17.1016 87.2031 16.8906 87.6875 16.4688C88.1719 16.0469 88.4141 15.4141 88.4141 14.5703V13.7812ZM96.4219 9.28125C97.4375 9.28125 98.2057 9.53125 98.7266 10.0312C99.2474 10.526 99.5078 11.3229 99.5078 12.4219V18H98.2266V12.5078C98.2266 11.7943 98.0625 11.2604 97.7344 10.9062C97.4115 10.5521 96.9141 10.375 96.2422 10.375C95.2943 10.375 94.6276 10.6432 94.2422 11.1797C93.8568 11.7161 93.6641 12.4948 93.6641 13.5156V18H92.3672V9.4375H93.4141L93.6094 10.6719H93.6797C93.862 10.3698 94.0938 10.1172 94.375 9.91406C94.6562 9.70573 94.9714 9.54948 95.3203 9.44531C95.6693 9.33594 96.0365 9.28125 96.4219 9.28125ZM104.945 17.0938C105.159 17.0938 105.378 17.0755 105.602 17.0391C105.826 17.0026 106.008 16.9583 106.148 16.9062V17.9141C105.997 17.9818 105.786 18.0391 105.516 18.0859C105.25 18.1328 104.99 18.1562 104.734 18.1562C104.281 18.1562 103.87 18.0781 103.5 17.9219C103.13 17.7604 102.833 17.4896 102.609 17.1094C102.391 16.7292 102.281 16.2031 102.281 15.5312V10.4531H101.062V9.82031L102.289 9.3125L102.805 7.45312H103.586V9.4375H106.094V10.4531H103.586V15.4922C103.586 16.0286 103.708 16.4297 103.953 16.6953C104.203 16.9609 104.534 17.0938 104.945 17.0938ZM111.18 9.28125C111.909 9.28125 112.534 9.44271 113.055 9.76562C113.576 10.0885 113.974 10.5417 114.25 11.125C114.526 11.7031 114.664 12.3802 114.664 13.1562V13.9609H108.75C108.766 14.9661 109.016 15.7318 109.5 16.2578C109.984 16.7839 110.667 17.0469 111.547 17.0469C112.089 17.0469 112.568 16.9974 112.984 16.8984C113.401 16.7995 113.833 16.6536 114.281 16.4609V17.6016C113.849 17.7943 113.419 17.9349 112.992 18.0234C112.57 18.112 112.07 18.1562 111.492 18.1562C110.669 18.1562 109.951 17.9896 109.336 17.6562C108.727 17.3177 108.253 16.8229 107.914 16.1719C107.576 15.5208 107.406 14.724 107.406 13.7812C107.406 12.8594 107.56 12.0625 107.867 11.3906C108.18 10.7135 108.617 10.1927 109.18 9.82812C109.747 9.46354 110.414 9.28125 111.18 9.28125ZM111.164 10.3438C110.471 10.3438 109.919 10.5703 109.508 11.0234C109.096 11.4766 108.852 12.1094 108.773 12.9219H113.305C113.299 12.4115 113.219 11.9635 113.062 11.5781C112.911 11.1875 112.68 10.8854 112.367 10.6719C112.055 10.4531 111.654 10.3438 111.164 10.3438ZM120.758 9.28125C120.93 9.28125 121.109 9.29167 121.297 9.3125C121.484 9.32812 121.651 9.35156 121.797 9.38281L121.633 10.5859C121.492 10.5495 121.336 10.5208 121.164 10.5C120.992 10.4792 120.831 10.4688 120.68 10.4688C120.336 10.4688 120.01 10.5391 119.703 10.6797C119.401 10.8151 119.135 11.013 118.906 11.2734C118.677 11.5286 118.497 11.8385 118.367 12.2031C118.237 12.5625 118.172 12.9635 118.172 13.4062V18H116.867V9.4375H117.945L118.086 11.0156H118.141C118.318 10.6979 118.531 10.4089 118.781 10.1484C119.031 9.88281 119.32 9.67188 119.648 9.51562C119.982 9.35938 120.352 9.28125 120.758 9.28125ZM124.711 9.4375V18H123.414V9.4375H124.711ZM124.078 6.23438C124.292 6.23438 124.474 6.30469 124.625 6.44531C124.781 6.58073 124.859 6.79427 124.859 7.08594C124.859 7.3724 124.781 7.58594 124.625 7.72656C124.474 7.86719 124.292 7.9375 124.078 7.9375C123.854 7.9375 123.667 7.86719 123.516 7.72656C123.37 7.58594 123.297 7.3724 123.297 7.08594C123.297 6.79427 123.37 6.58073 123.516 6.44531C123.667 6.30469 123.854 6.23438 124.078 6.23438ZM134.844 13.7031C134.844 14.4062 134.753 15.0339 134.57 15.5859C134.388 16.138 134.125 16.6042 133.781 16.9844C133.438 17.3646 133.021 17.6562 132.531 17.8594C132.047 18.0573 131.497 18.1562 130.883 18.1562C130.31 18.1562 129.784 18.0573 129.305 17.8594C128.831 17.6562 128.419 17.3646 128.07 16.9844C127.727 16.6042 127.458 16.138 127.266 15.5859C127.078 15.0339 126.984 14.4062 126.984 13.7031C126.984 12.7656 127.143 11.9688 127.461 11.3125C127.779 10.651 128.232 10.1484 128.82 9.80469C129.414 9.45573 130.12 9.28125 130.938 9.28125C131.719 9.28125 132.401 9.45573 132.984 9.80469C133.573 10.1536 134.029 10.6589 134.352 11.3203C134.68 11.9766 134.844 12.7708 134.844 13.7031ZM128.328 13.7031C128.328 14.3906 128.419 14.987 128.602 15.4922C128.784 15.9974 129.065 16.388 129.445 16.6641C129.826 16.9401 130.315 17.0781 130.914 17.0781C131.508 17.0781 131.995 16.9401 132.375 16.6641C132.76 16.388 133.044 15.9974 133.227 15.4922C133.409 14.987 133.5 14.3906 133.5 13.7031C133.5 13.0208 133.409 12.4323 133.227 11.9375C133.044 11.4375 132.763 11.0521 132.383 10.7812C132.003 10.5104 131.51 10.375 130.906 10.375C130.016 10.375 129.362 10.6693 128.945 11.2578C128.534 11.8464 128.328 12.6615 128.328 13.7031ZM140.977 9.28125C141.148 9.28125 141.328 9.29167 141.516 9.3125C141.703 9.32812 141.87 9.35156 142.016 9.38281L141.852 10.5859C141.711 10.5495 141.555 10.5208 141.383 10.5C141.211 10.4792 141.049 10.4688 140.898 10.4688C140.555 10.4688 140.229 10.5391 139.922 10.6797C139.62 10.8151 139.354 11.013 139.125 11.2734C138.896 11.5286 138.716 11.8385 138.586 12.2031C138.456 12.5625 138.391 12.9635 138.391 13.4062V18H137.086V9.4375H138.164L138.305 11.0156H138.359C138.536 10.6979 138.75 10.4089 139 10.1484C139.25 9.88281 139.539 9.67188 139.867 9.51562C140.201 9.35938 140.57 9.28125 140.977 9.28125Z" fill="#007BC7"/>
<path d="M28 18.9766H142.258V19.3672H28V18.9766Z" fill="#007BC7"/>
<defs>
<clipPath id="clip0_177_525">
<rect width="24" height="24" fill="white"/>
</clipPath>
</defs>
</svg>
