<svg width="712" height="270" viewBox="0 0 712 270" fill="none" xmlns="http://www.w3.org/2000/svg">
<rect x="1" y="1" width="710" height="268" rx="7" fill="#F3F6F9" stroke="#D1D8E0" stroke-width="2"/>
<path d="M101.456 142.14C101.027 142.14 100.672 142.009 100.392 141.748C100.131 141.468 100 141.113 100 140.684V124.668H94.4C93.504 124.668 93.056 124.267 93.056 123.464C93.056 123.072 93.168 122.773 93.392 122.568C93.6347 122.363 93.9707 122.26 94.4 122.26H108.512C108.941 122.26 109.268 122.363 109.492 122.568C109.735 122.773 109.856 123.072 109.856 123.464C109.856 124.267 109.408 124.668 108.512 124.668H102.912V140.684C102.912 141.113 102.781 141.468 102.52 141.748C102.259 142.009 101.904 142.14 101.456 142.14ZM114.312 142.14C113.902 142.14 113.556 142.028 113.276 141.804C113.015 141.58 112.884 141.244 112.884 140.796V129.428C112.884 128.98 113.015 128.644 113.276 128.42C113.556 128.177 113.902 128.056 114.312 128.056C114.723 128.056 115.059 128.177 115.32 128.42C115.582 128.644 115.712 128.98 115.712 129.428V140.796C115.712 141.244 115.582 141.58 115.32 141.804C115.059 142.028 114.723 142.14 114.312 142.14ZM114.9 126.488C114.751 126.619 114.574 126.684 114.368 126.684C114.163 126.684 113.976 126.609 113.808 126.46C113.659 126.311 113.584 126.133 113.584 125.928C113.584 125.741 113.65 125.573 113.78 125.424L116.804 121.476C117.178 120.972 117.607 120.72 118.092 120.72C118.447 120.72 118.746 120.841 118.988 121.084C119.231 121.327 119.352 121.616 119.352 121.952C119.352 122.381 119.128 122.783 118.68 123.156L114.9 126.488ZM126.18 139.984C126.591 140.021 126.88 140.133 127.048 140.32C127.235 140.488 127.328 140.731 127.328 141.048C127.328 141.421 127.179 141.711 126.88 141.916C126.6 142.103 126.18 142.177 125.62 142.14L124.864 142.084C123.352 141.972 122.223 141.515 121.476 140.712C120.73 139.891 120.356 138.687 120.356 137.1V130.52H118.676C117.855 130.52 117.444 130.156 117.444 129.428C117.444 129.092 117.547 128.831 117.752 128.644C117.976 128.439 118.284 128.336 118.676 128.336H120.356V125.452C120.356 125.023 120.478 124.687 120.72 124.444C120.982 124.201 121.327 124.08 121.756 124.08C122.186 124.08 122.531 124.201 122.792 124.444C123.054 124.687 123.184 125.023 123.184 125.452V128.336H125.956C126.348 128.336 126.647 128.439 126.852 128.644C127.076 128.831 127.188 129.092 127.188 129.428C127.188 129.783 127.076 130.053 126.852 130.24C126.647 130.427 126.348 130.52 125.956 130.52H123.184V137.296C123.184 138.173 123.362 138.817 123.716 139.228C124.09 139.639 124.65 139.872 125.396 139.928L126.18 139.984ZM139.384 128.056C139.813 128.056 140.149 128.177 140.392 128.42C140.653 128.663 140.784 128.999 140.784 129.428V140.824C140.784 141.216 140.653 141.533 140.392 141.776C140.13 142.019 139.785 142.14 139.356 142.14C138.964 142.14 138.646 142.028 138.404 141.804C138.161 141.561 138.04 141.244 138.04 140.852V139.788C137.61 140.572 137.013 141.169 136.248 141.58C135.501 141.991 134.661 142.196 133.728 142.196C130.405 142.196 128.744 140.367 128.744 136.708V129.428C128.744 128.999 128.865 128.663 129.108 128.42C129.369 128.177 129.724 128.056 130.172 128.056C130.601 128.056 130.937 128.177 131.18 128.42C131.441 128.663 131.572 128.999 131.572 129.428V136.68C131.572 137.781 131.796 138.593 132.244 139.116C132.692 139.639 133.382 139.9 134.316 139.9C135.417 139.9 136.294 139.545 136.948 138.836C137.62 138.127 137.956 137.184 137.956 136.008V129.428C137.956 129.017 138.086 128.691 138.348 128.448C138.609 128.187 138.954 128.056 139.384 128.056ZM145.609 142.14C145.198 142.14 144.853 142.028 144.573 141.804C144.312 141.58 144.181 141.244 144.181 140.796V123.492C144.181 123.044 144.312 122.708 144.573 122.484C144.853 122.241 145.198 122.12 145.609 122.12C146.02 122.12 146.356 122.241 146.617 122.484C146.878 122.708 147.009 123.044 147.009 123.492V140.796C147.009 141.244 146.878 141.58 146.617 141.804C146.356 142.028 146.02 142.14 145.609 142.14ZM156.338 142.196C154.994 142.196 153.809 141.907 152.782 141.328C151.774 140.749 150.99 139.928 150.43 138.864C149.889 137.781 149.618 136.531 149.618 135.112C149.618 133.675 149.889 132.424 150.43 131.36C150.99 130.277 151.774 129.447 152.782 128.868C153.809 128.289 154.994 128 156.338 128C157.682 128 158.858 128.289 159.866 128.868C160.893 129.447 161.677 130.277 162.218 131.36C162.778 132.424 163.058 133.675 163.058 135.112C163.058 136.531 162.778 137.781 162.218 138.864C161.677 139.928 160.893 140.749 159.866 141.328C158.858 141.907 157.682 142.196 156.338 142.196ZM156.338 139.956C157.589 139.956 158.541 139.545 159.194 138.724C159.866 137.903 160.202 136.699 160.202 135.112C160.202 133.544 159.866 132.349 159.194 131.528C158.522 130.688 157.57 130.268 156.338 130.268C155.106 130.268 154.154 130.688 153.482 131.528C152.81 132.349 152.474 133.544 152.474 135.112C152.474 136.699 152.801 137.903 153.454 138.724C154.126 139.545 155.088 139.956 156.338 139.956Z" fill="#38485C"/>
<path d="M103.688 174.18C103.688 176.065 103.174 177.508 102.148 178.508C101.128 179.503 99.6562 180 97.7344 180H94.5703V168.578H98.0703C99.8464 168.578 101.227 169.07 102.211 170.055C103.195 171.039 103.688 172.414 103.688 174.18ZM102.281 174.227C102.281 172.737 101.906 171.615 101.156 170.859C100.411 170.104 99.3021 169.727 97.8281 169.727H95.8984V178.852H97.5156C99.099 178.852 100.289 178.464 101.086 177.688C101.883 176.906 102.281 175.753 102.281 174.227ZM109.664 180.156C108.398 180.156 107.398 179.771 106.664 179C105.935 178.229 105.57 177.159 105.57 175.789C105.57 174.409 105.909 173.312 106.586 172.5C107.268 171.688 108.182 171.281 109.328 171.281C110.401 171.281 111.25 171.635 111.875 172.344C112.5 173.047 112.812 173.977 112.812 175.133V175.953H106.914C106.94 176.958 107.193 177.721 107.672 178.242C108.156 178.763 108.836 179.023 109.711 179.023C110.633 179.023 111.544 178.831 112.445 178.445V179.602C111.987 179.799 111.552 179.94 111.141 180.023C110.734 180.112 110.242 180.156 109.664 180.156ZM109.312 172.367C108.625 172.367 108.076 172.591 107.664 173.039C107.258 173.487 107.018 174.107 106.945 174.898H111.422C111.422 174.081 111.24 173.456 110.875 173.023C110.51 172.586 109.99 172.367 109.312 172.367ZM120.555 177.664C120.555 178.461 120.258 179.076 119.664 179.508C119.07 179.94 118.237 180.156 117.164 180.156C116.029 180.156 115.143 179.977 114.508 179.617V178.414C114.919 178.622 115.359 178.786 115.828 178.906C116.302 179.026 116.758 179.086 117.195 179.086C117.872 179.086 118.393 178.979 118.758 178.766C119.122 178.547 119.305 178.216 119.305 177.773C119.305 177.44 119.159 177.156 118.867 176.922C118.581 176.682 118.018 176.401 117.18 176.078C116.383 175.781 115.815 175.523 115.477 175.305C115.143 175.081 114.893 174.828 114.727 174.547C114.565 174.266 114.484 173.93 114.484 173.539C114.484 172.841 114.768 172.292 115.336 171.891C115.904 171.484 116.682 171.281 117.672 171.281C118.594 171.281 119.495 171.469 120.375 171.844L119.914 172.898C119.055 172.544 118.276 172.367 117.578 172.367C116.964 172.367 116.5 172.464 116.188 172.656C115.875 172.849 115.719 173.115 115.719 173.453C115.719 173.682 115.776 173.878 115.891 174.039C116.01 174.201 116.201 174.354 116.461 174.5C116.721 174.646 117.221 174.857 117.961 175.133C118.977 175.503 119.661 175.875 120.016 176.25C120.375 176.625 120.555 177.096 120.555 177.664ZM126.094 180.156C124.854 180.156 123.893 179.776 123.211 179.016C122.534 178.25 122.195 177.169 122.195 175.773C122.195 174.341 122.539 173.234 123.227 172.453C123.919 171.672 124.904 171.281 126.18 171.281C126.591 171.281 127.003 171.326 127.414 171.414C127.826 171.503 128.148 171.607 128.383 171.727L127.984 172.828C127.698 172.714 127.385 172.62 127.047 172.547C126.708 172.469 126.409 172.43 126.148 172.43C124.409 172.43 123.539 173.539 123.539 175.758C123.539 176.81 123.75 177.617 124.172 178.18C124.599 178.742 125.229 179.023 126.062 179.023C126.776 179.023 127.508 178.87 128.258 178.562V179.711C127.685 180.008 126.964 180.156 126.094 180.156ZM134.203 171.281C134.583 171.281 134.924 171.312 135.227 171.375L135.047 172.578C134.693 172.5 134.38 172.461 134.109 172.461C133.417 172.461 132.823 172.742 132.328 173.305C131.839 173.867 131.594 174.568 131.594 175.406V180H130.297V171.438H131.367L131.516 173.023H131.578C131.896 172.466 132.279 172.036 132.727 171.734C133.174 171.432 133.667 171.281 134.203 171.281ZM138.125 180H136.828V171.438H138.125V180ZM136.719 169.117C136.719 168.82 136.792 168.604 136.938 168.469C137.083 168.328 137.266 168.258 137.484 168.258C137.693 168.258 137.872 168.328 138.023 168.469C138.174 168.609 138.25 168.826 138.25 169.117C138.25 169.409 138.174 169.628 138.023 169.773C137.872 169.914 137.693 169.984 137.484 169.984C137.266 169.984 137.083 169.914 136.938 169.773C136.792 169.628 136.719 169.409 136.719 169.117ZM144.859 180.156C144.302 180.156 143.792 180.055 143.328 179.852C142.87 179.643 142.484 179.326 142.172 178.898H142.078C142.141 179.398 142.172 179.872 142.172 180.32V183.844H140.875V171.438H141.93L142.109 172.609H142.172C142.505 172.141 142.893 171.802 143.336 171.594C143.779 171.385 144.286 171.281 144.859 171.281C145.995 171.281 146.87 171.669 147.484 172.445C148.104 173.221 148.414 174.31 148.414 175.711C148.414 177.117 148.099 178.211 147.469 178.992C146.844 179.768 145.974 180.156 144.859 180.156ZM144.672 172.383C143.797 172.383 143.164 172.625 142.773 173.109C142.383 173.594 142.182 174.365 142.172 175.422V175.711C142.172 176.914 142.372 177.776 142.773 178.297C143.174 178.812 143.818 179.07 144.703 179.07C145.443 179.07 146.021 178.771 146.438 178.172C146.859 177.573 147.07 176.747 147.07 175.695C147.07 174.628 146.859 173.81 146.438 173.242C146.021 172.669 145.432 172.383 144.672 172.383ZM154.109 180.156C152.87 180.156 151.909 179.776 151.227 179.016C150.549 178.25 150.211 177.169 150.211 175.773C150.211 174.341 150.555 173.234 151.242 172.453C151.935 171.672 152.919 171.281 154.195 171.281C154.607 171.281 155.018 171.326 155.43 171.414C155.841 171.503 156.164 171.607 156.398 171.727L156 172.828C155.714 172.714 155.401 172.62 155.062 172.547C154.724 172.469 154.424 172.43 154.164 172.43C152.424 172.43 151.555 173.539 151.555 175.758C151.555 176.81 151.766 177.617 152.188 178.18C152.615 178.742 153.245 179.023 154.078 179.023C154.792 179.023 155.523 178.87 156.273 178.562V179.711C155.701 180.008 154.979 180.156 154.109 180.156ZM159.609 180H158.312V171.438H159.609V180ZM158.203 169.117C158.203 168.82 158.276 168.604 158.422 168.469C158.568 168.328 158.75 168.258 158.969 168.258C159.177 168.258 159.357 168.328 159.508 168.469C159.659 168.609 159.734 168.826 159.734 169.117C159.734 169.409 159.659 169.628 159.508 169.773C159.357 169.914 159.177 169.984 158.969 169.984C158.75 169.984 158.568 169.914 158.422 169.773C158.276 169.628 158.203 169.409 158.203 169.117ZM169.75 175.711C169.75 177.107 169.398 178.198 168.695 178.984C167.992 179.766 167.021 180.156 165.781 180.156C165.016 180.156 164.336 179.977 163.742 179.617C163.148 179.258 162.69 178.742 162.367 178.07C162.044 177.398 161.883 176.612 161.883 175.711C161.883 174.315 162.232 173.229 162.93 172.453C163.628 171.672 164.596 171.281 165.836 171.281C167.034 171.281 167.984 171.68 168.688 172.477C169.396 173.273 169.75 174.352 169.75 175.711ZM163.227 175.711C163.227 176.805 163.445 177.638 163.883 178.211C164.32 178.784 164.964 179.07 165.812 179.07C166.661 179.07 167.305 178.786 167.742 178.219C168.185 177.646 168.406 176.81 168.406 175.711C168.406 174.622 168.185 173.797 167.742 173.234C167.305 172.667 166.656 172.383 165.797 172.383C164.948 172.383 164.307 172.661 163.875 173.219C163.443 173.776 163.227 174.607 163.227 175.711ZM164.727 170.109C164.977 169.786 165.245 169.396 165.531 168.938C165.823 168.479 166.052 168.081 166.219 167.742H167.797V167.906C167.568 168.245 167.227 168.661 166.773 169.156C166.32 169.651 165.927 170.034 165.594 170.305H164.727V170.109ZM177.891 180V174.461C177.891 173.763 177.732 173.242 177.414 172.898C177.096 172.555 176.599 172.383 175.922 172.383C175.026 172.383 174.37 172.625 173.953 173.109C173.536 173.594 173.328 174.393 173.328 175.508V180H172.031V171.438H173.086L173.297 172.609H173.359C173.625 172.188 173.997 171.862 174.477 171.633C174.956 171.398 175.49 171.281 176.078 171.281C177.109 171.281 177.885 171.531 178.406 172.031C178.927 172.526 179.188 173.32 179.188 174.414V180H177.891ZM191.844 178.852H191.773C191.174 179.721 190.279 180.156 189.086 180.156C187.966 180.156 187.094 179.773 186.469 179.008C185.849 178.242 185.539 177.154 185.539 175.742C185.539 174.331 185.852 173.234 186.477 172.453C187.102 171.672 187.971 171.281 189.086 171.281C190.247 171.281 191.138 171.703 191.758 172.547H191.859L191.805 171.93L191.773 171.328V167.844H193.07V180H192.016L191.844 178.852ZM189.25 179.07C190.135 179.07 190.776 178.831 191.172 178.352C191.573 177.867 191.773 177.089 191.773 176.016V175.742C191.773 174.529 191.57 173.664 191.164 173.148C190.763 172.628 190.12 172.367 189.234 172.367C188.474 172.367 187.891 172.664 187.484 173.258C187.083 173.846 186.883 174.68 186.883 175.758C186.883 176.852 187.083 177.677 187.484 178.234C187.885 178.792 188.474 179.07 189.25 179.07ZM203.219 175.711C203.219 177.107 202.867 178.198 202.164 178.984C201.461 179.766 200.49 180.156 199.25 180.156C198.484 180.156 197.805 179.977 197.211 179.617C196.617 179.258 196.159 178.742 195.836 178.07C195.513 177.398 195.352 176.612 195.352 175.711C195.352 174.315 195.701 173.229 196.398 172.453C197.096 171.672 198.065 171.281 199.305 171.281C200.503 171.281 201.453 171.68 202.156 172.477C202.865 173.273 203.219 174.352 203.219 175.711ZM196.695 175.711C196.695 176.805 196.914 177.638 197.352 178.211C197.789 178.784 198.432 179.07 199.281 179.07C200.13 179.07 200.773 178.786 201.211 178.219C201.654 177.646 201.875 176.81 201.875 175.711C201.875 174.622 201.654 173.797 201.211 173.234C200.773 172.667 200.125 172.383 199.266 172.383C198.417 172.383 197.776 172.661 197.344 173.219C196.911 173.776 196.695 174.607 196.695 175.711ZM211.359 180V174.461C211.359 173.763 211.201 173.242 210.883 172.898C210.565 172.555 210.068 172.383 209.391 172.383C208.495 172.383 207.839 172.625 207.422 173.109C207.005 173.594 206.797 174.393 206.797 175.508V180H205.5V171.438H206.555L206.766 172.609H206.828C207.094 172.188 207.466 171.862 207.945 171.633C208.424 171.398 208.958 171.281 209.547 171.281C210.578 171.281 211.354 171.531 211.875 172.031C212.396 172.526 212.656 173.32 212.656 174.414V180H211.359ZM221.156 178.852H221.086C220.487 179.721 219.591 180.156 218.398 180.156C217.279 180.156 216.406 179.773 215.781 179.008C215.161 178.242 214.852 177.154 214.852 175.742C214.852 174.331 215.164 173.234 215.789 172.453C216.414 171.672 217.284 171.281 218.398 171.281C219.56 171.281 220.451 171.703 221.07 172.547H221.172L221.117 171.93L221.086 171.328V167.844H222.383V180H221.328L221.156 178.852ZM218.562 179.07C219.448 179.07 220.089 178.831 220.484 178.352C220.885 177.867 221.086 177.089 221.086 176.016V175.742C221.086 174.529 220.883 173.664 220.477 173.148C220.076 172.628 219.432 172.367 218.547 172.367C217.786 172.367 217.203 172.664 216.797 173.258C216.396 173.846 216.195 174.68 216.195 175.758C216.195 176.852 216.396 177.677 216.797 178.234C217.198 178.792 217.786 179.07 218.562 179.07ZM228.758 180.156C227.492 180.156 226.492 179.771 225.758 179C225.029 178.229 224.664 177.159 224.664 175.789C224.664 174.409 225.003 173.312 225.68 172.5C226.362 171.688 227.276 171.281 228.422 171.281C229.495 171.281 230.344 171.635 230.969 172.344C231.594 173.047 231.906 173.977 231.906 175.133V175.953H226.008C226.034 176.958 226.286 177.721 226.766 178.242C227.25 178.763 227.93 179.023 228.805 179.023C229.727 179.023 230.638 178.831 231.539 178.445V179.602C231.081 179.799 230.646 179.94 230.234 180.023C229.828 180.112 229.336 180.156 228.758 180.156ZM228.406 172.367C227.719 172.367 227.169 172.591 226.758 173.039C226.352 173.487 226.112 174.107 226.039 174.898H230.516C230.516 174.081 230.333 173.456 229.969 173.023C229.604 172.586 229.083 172.367 228.406 172.367ZM243.805 177.664C243.805 178.461 243.508 179.076 242.914 179.508C242.32 179.94 241.487 180.156 240.414 180.156C239.279 180.156 238.393 179.977 237.758 179.617V178.414C238.169 178.622 238.609 178.786 239.078 178.906C239.552 179.026 240.008 179.086 240.445 179.086C241.122 179.086 241.643 178.979 242.008 178.766C242.372 178.547 242.555 178.216 242.555 177.773C242.555 177.44 242.409 177.156 242.117 176.922C241.831 176.682 241.268 176.401 240.43 176.078C239.633 175.781 239.065 175.523 238.727 175.305C238.393 175.081 238.143 174.828 237.977 174.547C237.815 174.266 237.734 173.93 237.734 173.539C237.734 172.841 238.018 172.292 238.586 171.891C239.154 171.484 239.932 171.281 240.922 171.281C241.844 171.281 242.745 171.469 243.625 171.844L243.164 172.898C242.305 172.544 241.526 172.367 240.828 172.367C240.214 172.367 239.75 172.464 239.438 172.656C239.125 172.849 238.969 173.115 238.969 173.453C238.969 173.682 239.026 173.878 239.141 174.039C239.26 174.201 239.451 174.354 239.711 174.5C239.971 174.646 240.471 174.857 241.211 175.133C242.227 175.503 242.911 175.875 243.266 176.25C243.625 176.625 243.805 177.096 243.805 177.664ZM249.539 180.156C248.273 180.156 247.273 179.771 246.539 179C245.81 178.229 245.445 177.159 245.445 175.789C245.445 174.409 245.784 173.312 246.461 172.5C247.143 171.688 248.057 171.281 249.203 171.281C250.276 171.281 251.125 171.635 251.75 172.344C252.375 173.047 252.688 173.977 252.688 175.133V175.953H246.789C246.815 176.958 247.068 177.721 247.547 178.242C248.031 178.763 248.711 179.023 249.586 179.023C250.508 179.023 251.419 178.831 252.32 178.445V179.602C251.862 179.799 251.427 179.94 251.016 180.023C250.609 180.112 250.117 180.156 249.539 180.156ZM249.188 172.367C248.5 172.367 247.951 172.591 247.539 173.039C247.133 173.487 246.893 174.107 246.82 174.898H251.297C251.297 174.081 251.115 173.456 250.75 173.023C250.385 172.586 249.865 172.367 249.188 172.367ZM260.938 180L257.688 171.438H259.078L260.922 176.516C261.339 177.703 261.583 178.474 261.656 178.828H261.719C261.776 178.552 261.956 177.982 262.258 177.117C262.565 176.247 263.25 174.354 264.312 171.438H265.703L262.453 180H260.938ZM268.375 180H267.078V171.438H268.375V180ZM266.969 169.117C266.969 168.82 267.042 168.604 267.188 168.469C267.333 168.328 267.516 168.258 267.734 168.258C267.943 168.258 268.122 168.328 268.273 168.469C268.424 168.609 268.5 168.826 268.5 169.117C268.5 169.409 268.424 169.628 268.273 169.773C268.122 169.914 267.943 169.984 267.734 169.984C267.516 169.984 267.333 169.914 267.188 169.773C267.042 169.628 266.969 169.409 266.969 169.117ZM276.648 177.664C276.648 178.461 276.352 179.076 275.758 179.508C275.164 179.94 274.331 180.156 273.258 180.156C272.122 180.156 271.237 179.977 270.602 179.617V178.414C271.013 178.622 271.453 178.786 271.922 178.906C272.396 179.026 272.852 179.086 273.289 179.086C273.966 179.086 274.487 178.979 274.852 178.766C275.216 178.547 275.398 178.216 275.398 177.773C275.398 177.44 275.253 177.156 274.961 176.922C274.674 176.682 274.112 176.401 273.273 176.078C272.477 175.781 271.909 175.523 271.57 175.305C271.237 175.081 270.987 174.828 270.82 174.547C270.659 174.266 270.578 173.93 270.578 173.539C270.578 172.841 270.862 172.292 271.43 171.891C271.997 171.484 272.776 171.281 273.766 171.281C274.688 171.281 275.589 171.469 276.469 171.844L276.008 172.898C275.148 172.544 274.37 172.367 273.672 172.367C273.057 172.367 272.594 172.464 272.281 172.656C271.969 172.849 271.812 173.115 271.812 173.453C271.812 173.682 271.87 173.878 271.984 174.039C272.104 174.201 272.294 174.354 272.555 174.5C272.815 174.646 273.315 174.857 274.055 175.133C275.07 175.503 275.755 175.875 276.109 176.25C276.469 176.625 276.648 177.096 276.648 177.664ZM279.984 171.438V176.992C279.984 177.69 280.143 178.211 280.461 178.555C280.779 178.898 281.276 179.07 281.953 179.07C282.849 179.07 283.503 178.826 283.914 178.336C284.331 177.846 284.539 177.047 284.539 175.938V171.438H285.836V180H284.766L284.578 178.852H284.508C284.242 179.273 283.872 179.596 283.398 179.82C282.93 180.044 282.393 180.156 281.789 180.156C280.747 180.156 279.966 179.909 279.445 179.414C278.93 178.919 278.672 178.128 278.672 177.039V171.438H279.984ZM293.859 180L293.602 178.781H293.539C293.112 179.318 292.685 179.682 292.258 179.875C291.836 180.062 291.307 180.156 290.672 180.156C289.823 180.156 289.156 179.938 288.672 179.5C288.193 179.062 287.953 178.44 287.953 177.633C287.953 175.904 289.336 174.997 292.102 174.914L293.555 174.867V174.336C293.555 173.664 293.409 173.169 293.117 172.852C292.831 172.529 292.37 172.367 291.734 172.367C291.021 172.367 290.214 172.586 289.312 173.023L288.914 172.031C289.336 171.802 289.797 171.622 290.297 171.492C290.802 171.362 291.307 171.297 291.812 171.297C292.833 171.297 293.589 171.523 294.078 171.977C294.573 172.43 294.82 173.156 294.82 174.156V180H293.859ZM290.93 179.086C291.737 179.086 292.37 178.865 292.828 178.422C293.292 177.979 293.523 177.359 293.523 176.562V175.789L292.227 175.844C291.195 175.88 290.451 176.042 289.992 176.328C289.539 176.609 289.312 177.049 289.312 177.648C289.312 178.117 289.453 178.474 289.734 178.719C290.021 178.964 290.419 179.086 290.93 179.086ZM298.797 180H297.5V167.844H298.797V180ZM302.844 180H301.547V171.438H302.844V180ZM301.438 169.117C301.438 168.82 301.51 168.604 301.656 168.469C301.802 168.328 301.984 168.258 302.203 168.258C302.411 168.258 302.591 168.328 302.742 168.469C302.893 168.609 302.969 168.826 302.969 169.117C302.969 169.409 302.893 169.628 302.742 169.773C302.591 169.914 302.411 169.984 302.203 169.984C301.984 169.984 301.802 169.914 301.656 169.773C301.51 169.628 301.438 169.409 301.438 169.117ZM311.07 180H304.859V179.117L309.531 172.445H305.148V171.438H310.953V172.445L306.344 178.992H311.07V180ZM318.344 180L318.086 178.781H318.023C317.596 179.318 317.169 179.682 316.742 179.875C316.32 180.062 315.792 180.156 315.156 180.156C314.307 180.156 313.641 179.938 313.156 179.5C312.677 179.062 312.438 178.44 312.438 177.633C312.438 175.904 313.82 174.997 316.586 174.914L318.039 174.867V174.336C318.039 173.664 317.893 173.169 317.602 172.852C317.315 172.529 316.854 172.367 316.219 172.367C315.505 172.367 314.698 172.586 313.797 173.023L313.398 172.031C313.82 171.802 314.281 171.622 314.781 171.492C315.286 171.362 315.792 171.297 316.297 171.297C317.318 171.297 318.073 171.523 318.562 171.977C319.057 172.43 319.305 173.156 319.305 174.156V180H318.344ZM315.414 179.086C316.221 179.086 316.854 178.865 317.312 178.422C317.776 177.979 318.008 177.359 318.008 176.562V175.789L316.711 175.844C315.68 175.88 314.935 176.042 314.477 176.328C314.023 176.609 313.797 177.049 313.797 177.648C313.797 178.117 313.938 178.474 314.219 178.719C314.505 178.964 314.904 179.086 315.414 179.086ZM327.438 180H326.141V167.844H327.438V180ZM335.453 180L335.195 178.781H335.133C334.706 179.318 334.279 179.682 333.852 179.875C333.43 180.062 332.901 180.156 332.266 180.156C331.417 180.156 330.75 179.938 330.266 179.5C329.786 179.062 329.547 178.44 329.547 177.633C329.547 175.904 330.93 174.997 333.695 174.914L335.148 174.867V174.336C335.148 173.664 335.003 173.169 334.711 172.852C334.424 172.529 333.964 172.367 333.328 172.367C332.615 172.367 331.807 172.586 330.906 173.023L330.508 172.031C330.93 171.802 331.391 171.622 331.891 171.492C332.396 171.362 332.901 171.297 333.406 171.297C334.427 171.297 335.182 171.523 335.672 171.977C336.167 172.43 336.414 173.156 336.414 174.156V180H335.453ZM332.523 179.086C333.331 179.086 333.964 178.865 334.422 178.422C334.885 177.979 335.117 177.359 335.117 176.562V175.789L333.82 175.844C332.789 175.88 332.044 176.042 331.586 176.328C331.133 176.609 330.906 177.049 330.906 177.648C330.906 178.117 331.047 178.474 331.328 178.719C331.615 178.964 332.013 179.086 332.523 179.086ZM344.547 180H343.25V171.438H344.547V180ZM343.141 169.117C343.141 168.82 343.214 168.604 343.359 168.469C343.505 168.328 343.688 168.258 343.906 168.258C344.115 168.258 344.294 168.328 344.445 168.469C344.596 168.609 344.672 168.826 344.672 169.117C344.672 169.409 344.596 169.628 344.445 169.773C344.294 169.914 344.115 169.984 343.906 169.984C343.688 169.984 343.505 169.914 343.359 169.773C343.214 169.628 343.141 169.409 343.141 169.117ZM353.156 180V174.461C353.156 173.763 352.997 173.242 352.68 172.898C352.362 172.555 351.865 172.383 351.188 172.383C350.292 172.383 349.635 172.625 349.219 173.109C348.802 173.594 348.594 174.393 348.594 175.508V180H347.297V171.438H348.352L348.562 172.609H348.625C348.891 172.188 349.263 171.862 349.742 171.633C350.221 171.398 350.755 171.281 351.344 171.281C352.375 171.281 353.151 171.531 353.672 172.031C354.193 172.526 354.453 173.32 354.453 174.414V180H353.156ZM360.984 172.445H358.805V180H357.508V172.445H355.977V171.859L357.508 171.391V170.914C357.508 168.81 358.427 167.758 360.266 167.758C360.719 167.758 361.25 167.849 361.859 168.031L361.523 169.07C361.023 168.909 360.596 168.828 360.242 168.828C359.753 168.828 359.391 168.992 359.156 169.32C358.922 169.643 358.805 170.164 358.805 170.883V171.438H360.984V172.445ZM369.938 175.711C369.938 177.107 369.586 178.198 368.883 178.984C368.18 179.766 367.208 180.156 365.969 180.156C365.203 180.156 364.523 179.977 363.93 179.617C363.336 179.258 362.878 178.742 362.555 178.07C362.232 177.398 362.07 176.612 362.07 175.711C362.07 174.315 362.419 173.229 363.117 172.453C363.815 171.672 364.784 171.281 366.023 171.281C367.221 171.281 368.172 171.68 368.875 172.477C369.583 173.273 369.938 174.352 369.938 175.711ZM363.414 175.711C363.414 176.805 363.633 177.638 364.07 178.211C364.508 178.784 365.151 179.07 366 179.07C366.849 179.07 367.492 178.786 367.93 178.219C368.372 177.646 368.594 176.81 368.594 175.711C368.594 174.622 368.372 173.797 367.93 173.234C367.492 172.667 366.844 172.383 365.984 172.383C365.135 172.383 364.495 172.661 364.062 173.219C363.63 173.776 363.414 174.607 363.414 175.711ZM376.125 171.281C376.505 171.281 376.846 171.312 377.148 171.375L376.969 172.578C376.615 172.5 376.302 172.461 376.031 172.461C375.339 172.461 374.745 172.742 374.25 173.305C373.76 173.867 373.516 174.568 373.516 175.406V180H372.219V171.438H373.289L373.438 173.023H373.5C373.818 172.466 374.201 172.036 374.648 171.734C375.096 171.432 375.589 171.281 376.125 171.281ZM389.664 180V174.43C389.664 173.747 389.518 173.237 389.227 172.898C388.935 172.555 388.482 172.383 387.867 172.383C387.06 172.383 386.464 172.615 386.078 173.078C385.693 173.542 385.5 174.255 385.5 175.219V180H384.203V174.43C384.203 173.747 384.057 173.237 383.766 172.898C383.474 172.555 383.018 172.383 382.398 172.383C381.586 172.383 380.99 172.628 380.609 173.117C380.234 173.602 380.047 174.398 380.047 175.508V180H378.75V171.438H379.805L380.016 172.609H380.078C380.323 172.193 380.667 171.867 381.109 171.633C381.557 171.398 382.057 171.281 382.609 171.281C383.948 171.281 384.823 171.766 385.234 172.734H385.297C385.552 172.286 385.922 171.932 386.406 171.672C386.891 171.411 387.443 171.281 388.062 171.281C389.031 171.281 389.755 171.531 390.234 172.031C390.719 172.526 390.961 173.32 390.961 174.414V180H389.664ZM398.906 180L398.648 178.781H398.586C398.159 179.318 397.732 179.682 397.305 179.875C396.883 180.062 396.354 180.156 395.719 180.156C394.87 180.156 394.203 179.938 393.719 179.5C393.24 179.062 393 178.44 393 177.633C393 175.904 394.383 174.997 397.148 174.914L398.602 174.867V174.336C398.602 173.664 398.456 173.169 398.164 172.852C397.878 172.529 397.417 172.367 396.781 172.367C396.068 172.367 395.26 172.586 394.359 173.023L393.961 172.031C394.383 171.802 394.844 171.622 395.344 171.492C395.849 171.362 396.354 171.297 396.859 171.297C397.88 171.297 398.635 171.523 399.125 171.977C399.62 172.43 399.867 173.156 399.867 174.156V180H398.906ZM395.977 179.086C396.784 179.086 397.417 178.865 397.875 178.422C398.339 177.979 398.57 177.359 398.57 176.562V175.789L397.273 175.844C396.242 175.88 395.497 176.042 395.039 176.328C394.586 176.609 394.359 177.049 394.359 177.648C394.359 178.117 394.5 178.474 394.781 178.719C395.068 178.964 395.466 179.086 395.977 179.086ZM405.969 180.156C404.729 180.156 403.768 179.776 403.086 179.016C402.409 178.25 402.07 177.169 402.07 175.773C402.07 174.341 402.414 173.234 403.102 172.453C403.794 171.672 404.779 171.281 406.055 171.281C406.466 171.281 406.878 171.326 407.289 171.414C407.701 171.503 408.023 171.607 408.258 171.727L407.859 172.828C407.573 172.714 407.26 172.62 406.922 172.547C406.583 172.469 406.284 172.43 406.023 172.43C404.284 172.43 403.414 173.539 403.414 175.758C403.414 176.81 403.625 177.617 404.047 178.18C404.474 178.742 405.104 179.023 405.938 179.023C406.651 179.023 407.383 178.87 408.133 178.562V179.711C407.56 180.008 406.839 180.156 405.969 180.156ZM411.469 180H410.172V171.438H411.469V180ZM410.062 169.117C410.062 168.82 410.135 168.604 410.281 168.469C410.427 168.328 410.609 168.258 410.828 168.258C411.036 168.258 411.216 168.328 411.367 168.469C411.518 168.609 411.594 168.826 411.594 169.117C411.594 169.409 411.518 169.628 411.367 169.773C411.216 169.914 411.036 169.984 410.828 169.984C410.609 169.984 410.427 169.914 410.281 169.773C410.135 169.628 410.062 169.409 410.062 169.117ZM421.609 175.711C421.609 177.107 421.258 178.198 420.555 178.984C419.852 179.766 418.88 180.156 417.641 180.156C416.875 180.156 416.195 179.977 415.602 179.617C415.008 179.258 414.549 178.742 414.227 178.07C413.904 177.398 413.742 176.612 413.742 175.711C413.742 174.315 414.091 173.229 414.789 172.453C415.487 171.672 416.456 171.281 417.695 171.281C418.893 171.281 419.844 171.68 420.547 172.477C421.255 173.273 421.609 174.352 421.609 175.711ZM415.086 175.711C415.086 176.805 415.305 177.638 415.742 178.211C416.18 178.784 416.823 179.07 417.672 179.07C418.521 179.07 419.164 178.786 419.602 178.219C420.044 177.646 420.266 176.81 420.266 175.711C420.266 174.622 420.044 173.797 419.602 173.234C419.164 172.667 418.516 172.383 417.656 172.383C416.807 172.383 416.167 172.661 415.734 173.219C415.302 173.776 415.086 174.607 415.086 175.711ZM416.586 170.109C416.836 169.786 417.104 169.396 417.391 168.938C417.682 168.479 417.911 168.081 418.078 167.742H419.656V167.906C419.427 168.245 419.086 168.661 418.633 169.156C418.18 169.651 417.786 170.034 417.453 170.305H416.586V170.109ZM429.75 180V174.461C429.75 173.763 429.591 173.242 429.273 172.898C428.956 172.555 428.458 172.383 427.781 172.383C426.885 172.383 426.229 172.625 425.812 173.109C425.396 173.594 425.188 174.393 425.188 175.508V180H423.891V171.438H424.945L425.156 172.609H425.219C425.484 172.188 425.857 171.862 426.336 171.633C426.815 171.398 427.349 171.281 427.938 171.281C428.969 171.281 429.745 171.531 430.266 172.031C430.786 172.526 431.047 173.32 431.047 174.414V180H429.75ZM441.297 180.156C440.057 180.156 439.096 179.776 438.414 179.016C437.737 178.25 437.398 177.169 437.398 175.773C437.398 174.341 437.742 173.234 438.43 172.453C439.122 171.672 440.107 171.281 441.383 171.281C441.794 171.281 442.206 171.326 442.617 171.414C443.029 171.503 443.352 171.607 443.586 171.727L443.188 172.828C442.901 172.714 442.589 172.62 442.25 172.547C441.911 172.469 441.612 172.43 441.352 172.43C439.612 172.43 438.742 173.539 438.742 175.758C438.742 176.81 438.953 177.617 439.375 178.18C439.802 178.742 440.432 179.023 441.266 179.023C441.979 179.023 442.711 178.87 443.461 178.562V179.711C442.888 180.008 442.167 180.156 441.297 180.156ZM452.891 175.711C452.891 177.107 452.539 178.198 451.836 178.984C451.133 179.766 450.161 180.156 448.922 180.156C448.156 180.156 447.477 179.977 446.883 179.617C446.289 179.258 445.831 178.742 445.508 178.07C445.185 177.398 445.023 176.612 445.023 175.711C445.023 174.315 445.372 173.229 446.07 172.453C446.768 171.672 447.737 171.281 448.977 171.281C450.174 171.281 451.125 171.68 451.828 172.477C452.536 173.273 452.891 174.352 452.891 175.711ZM446.367 175.711C446.367 176.805 446.586 177.638 447.023 178.211C447.461 178.784 448.104 179.07 448.953 179.07C449.802 179.07 450.445 178.786 450.883 178.219C451.326 177.646 451.547 176.81 451.547 175.711C451.547 174.622 451.326 173.797 450.883 173.234C450.445 172.667 449.797 172.383 448.938 172.383C448.089 172.383 447.448 172.661 447.016 173.219C446.583 173.776 446.367 174.607 446.367 175.711ZM459.078 171.281C459.458 171.281 459.799 171.312 460.102 171.375L459.922 172.578C459.568 172.5 459.255 172.461 458.984 172.461C458.292 172.461 457.698 172.742 457.203 173.305C456.714 173.867 456.469 174.568 456.469 175.406V180H455.172V171.438H456.242L456.391 173.023H456.453C456.771 172.466 457.154 172.036 457.602 171.734C458.049 171.432 458.542 171.281 459.078 171.281ZM465.609 171.281C465.99 171.281 466.331 171.312 466.633 171.375L466.453 172.578C466.099 172.5 465.786 172.461 465.516 172.461C464.823 172.461 464.229 172.742 463.734 173.305C463.245 173.867 463 174.568 463 175.406V180H461.703V171.438H462.773L462.922 173.023H462.984C463.302 172.466 463.685 172.036 464.133 171.734C464.581 171.432 465.073 171.281 465.609 171.281ZM471.852 180.156C470.586 180.156 469.586 179.771 468.852 179C468.122 178.229 467.758 177.159 467.758 175.789C467.758 174.409 468.096 173.312 468.773 172.5C469.456 171.688 470.37 171.281 471.516 171.281C472.589 171.281 473.438 171.635 474.062 172.344C474.688 173.047 475 173.977 475 175.133V175.953H469.102C469.128 176.958 469.38 177.721 469.859 178.242C470.344 178.763 471.023 179.023 471.898 179.023C472.82 179.023 473.732 178.831 474.633 178.445V179.602C474.174 179.799 473.74 179.94 473.328 180.023C472.922 180.112 472.43 180.156 471.852 180.156ZM471.5 172.367C470.812 172.367 470.263 172.591 469.852 173.039C469.445 173.487 469.206 174.107 469.133 174.898H473.609C473.609 174.081 473.427 173.456 473.062 173.023C472.698 172.586 472.177 172.367 471.5 172.367ZM482.742 177.664C482.742 178.461 482.445 179.076 481.852 179.508C481.258 179.94 480.424 180.156 479.352 180.156C478.216 180.156 477.331 179.977 476.695 179.617V178.414C477.107 178.622 477.547 178.786 478.016 178.906C478.49 179.026 478.945 179.086 479.383 179.086C480.06 179.086 480.581 178.979 480.945 178.766C481.31 178.547 481.492 178.216 481.492 177.773C481.492 177.44 481.346 177.156 481.055 176.922C480.768 176.682 480.206 176.401 479.367 176.078C478.57 175.781 478.003 175.523 477.664 175.305C477.331 175.081 477.081 174.828 476.914 174.547C476.753 174.266 476.672 173.93 476.672 173.539C476.672 172.841 476.956 172.292 477.523 171.891C478.091 171.484 478.87 171.281 479.859 171.281C480.781 171.281 481.682 171.469 482.562 171.844L482.102 172.898C481.242 172.544 480.464 172.367 479.766 172.367C479.151 172.367 478.688 172.464 478.375 172.656C478.062 172.849 477.906 173.115 477.906 173.453C477.906 173.682 477.964 173.878 478.078 174.039C478.198 174.201 478.388 174.354 478.648 174.5C478.909 174.646 479.409 174.857 480.148 175.133C481.164 175.503 481.849 175.875 482.203 176.25C482.562 176.625 482.742 177.096 482.742 177.664ZM488.844 180.156C488.286 180.156 487.776 180.055 487.312 179.852C486.854 179.643 486.469 179.326 486.156 178.898H486.062C486.125 179.398 486.156 179.872 486.156 180.32V183.844H484.859V171.438H485.914L486.094 172.609H486.156C486.49 172.141 486.878 171.802 487.32 171.594C487.763 171.385 488.271 171.281 488.844 171.281C489.979 171.281 490.854 171.669 491.469 172.445C492.089 173.221 492.398 174.31 492.398 175.711C492.398 177.117 492.083 178.211 491.453 178.992C490.828 179.768 489.958 180.156 488.844 180.156ZM488.656 172.383C487.781 172.383 487.148 172.625 486.758 173.109C486.367 173.594 486.167 174.365 486.156 175.422V175.711C486.156 176.914 486.357 177.776 486.758 178.297C487.159 178.812 487.802 179.07 488.688 179.07C489.427 179.07 490.005 178.771 490.422 178.172C490.844 177.573 491.055 176.747 491.055 175.695C491.055 174.628 490.844 173.81 490.422 173.242C490.005 172.669 489.417 172.383 488.656 172.383ZM502.062 175.711C502.062 177.107 501.711 178.198 501.008 178.984C500.305 179.766 499.333 180.156 498.094 180.156C497.328 180.156 496.648 179.977 496.055 179.617C495.461 179.258 495.003 178.742 494.68 178.07C494.357 177.398 494.195 176.612 494.195 175.711C494.195 174.315 494.544 173.229 495.242 172.453C495.94 171.672 496.909 171.281 498.148 171.281C499.346 171.281 500.297 171.68 501 172.477C501.708 173.273 502.062 174.352 502.062 175.711ZM495.539 175.711C495.539 176.805 495.758 177.638 496.195 178.211C496.633 178.784 497.276 179.07 498.125 179.07C498.974 179.07 499.617 178.786 500.055 178.219C500.497 177.646 500.719 176.81 500.719 175.711C500.719 174.622 500.497 173.797 500.055 173.234C499.617 172.667 498.969 172.383 498.109 172.383C497.26 172.383 496.62 172.661 496.188 173.219C495.755 173.776 495.539 174.607 495.539 175.711ZM510.203 180V174.461C510.203 173.763 510.044 173.242 509.727 172.898C509.409 172.555 508.911 172.383 508.234 172.383C507.339 172.383 506.682 172.625 506.266 173.109C505.849 173.594 505.641 174.393 505.641 175.508V180H504.344V171.438H505.398L505.609 172.609H505.672C505.938 172.188 506.31 171.862 506.789 171.633C507.268 171.398 507.802 171.281 508.391 171.281C509.422 171.281 510.198 171.531 510.719 172.031C511.24 172.526 511.5 173.32 511.5 174.414V180H510.203ZM520 178.852H519.93C519.331 179.721 518.435 180.156 517.242 180.156C516.122 180.156 515.25 179.773 514.625 179.008C514.005 178.242 513.695 177.154 513.695 175.742C513.695 174.331 514.008 173.234 514.633 172.453C515.258 171.672 516.128 171.281 517.242 171.281C518.404 171.281 519.294 171.703 519.914 172.547H520.016L519.961 171.93L519.93 171.328V167.844H521.227V180H520.172L520 178.852ZM517.406 179.07C518.292 179.07 518.932 178.831 519.328 178.352C519.729 177.867 519.93 177.089 519.93 176.016V175.742C519.93 174.529 519.727 173.664 519.32 173.148C518.919 172.628 518.276 172.367 517.391 172.367C516.63 172.367 516.047 172.664 515.641 173.258C515.24 173.846 515.039 174.68 515.039 175.758C515.039 176.852 515.24 177.677 515.641 178.234C516.042 178.792 516.63 179.07 517.406 179.07ZM525.281 180H523.984V171.438H525.281V180ZM523.875 169.117C523.875 168.82 523.948 168.604 524.094 168.469C524.24 168.328 524.422 168.258 524.641 168.258C524.849 168.258 525.029 168.328 525.18 168.469C525.331 168.609 525.406 168.826 525.406 169.117C525.406 169.409 525.331 169.628 525.18 169.773C525.029 169.914 524.849 169.984 524.641 169.984C524.422 169.984 524.24 169.914 524.094 169.773C523.948 169.628 523.875 169.409 523.875 169.117ZM531.648 180.156C530.383 180.156 529.383 179.771 528.648 179C527.919 178.229 527.555 177.159 527.555 175.789C527.555 174.409 527.893 173.312 528.57 172.5C529.253 171.688 530.167 171.281 531.312 171.281C532.385 171.281 533.234 171.635 533.859 172.344C534.484 173.047 534.797 173.977 534.797 175.133V175.953H528.898C528.924 176.958 529.177 177.721 529.656 178.242C530.141 178.763 530.82 179.023 531.695 179.023C532.617 179.023 533.529 178.831 534.43 178.445V179.602C533.971 179.799 533.536 179.94 533.125 180.023C532.719 180.112 532.227 180.156 531.648 180.156ZM531.297 172.367C530.609 172.367 530.06 172.591 529.648 173.039C529.242 173.487 529.003 174.107 528.93 174.898H533.406C533.406 174.081 533.224 173.456 532.859 173.023C532.495 172.586 531.974 172.367 531.297 172.367ZM542.875 180V174.461C542.875 173.763 542.716 173.242 542.398 172.898C542.081 172.555 541.583 172.383 540.906 172.383C540.01 172.383 539.354 172.625 538.938 173.109C538.521 173.594 538.312 174.393 538.312 175.508V180H537.016V171.438H538.07L538.281 172.609H538.344C538.609 172.188 538.982 171.862 539.461 171.633C539.94 171.398 540.474 171.281 541.062 171.281C542.094 171.281 542.87 171.531 543.391 172.031C543.911 172.526 544.172 173.32 544.172 174.414V180H542.875ZM549.609 179.086C549.839 179.086 550.06 179.07 550.273 179.039C550.487 179.003 550.656 178.966 550.781 178.93V179.922C550.641 179.99 550.432 180.044 550.156 180.086C549.885 180.133 549.641 180.156 549.422 180.156C547.766 180.156 546.938 179.284 546.938 177.539V172.445H545.711V171.82L546.938 171.281L547.484 169.453H548.234V171.438H550.719V172.445H548.234V177.484C548.234 178 548.357 178.396 548.602 178.672C548.846 178.948 549.182 179.086 549.609 179.086ZM556.117 180.156C554.852 180.156 553.852 179.771 553.117 179C552.388 178.229 552.023 177.159 552.023 175.789C552.023 174.409 552.362 173.312 553.039 172.5C553.721 171.688 554.635 171.281 555.781 171.281C556.854 171.281 557.703 171.635 558.328 172.344C558.953 173.047 559.266 173.977 559.266 175.133V175.953H553.367C553.393 176.958 553.646 177.721 554.125 178.242C554.609 178.763 555.289 179.023 556.164 179.023C557.086 179.023 557.997 178.831 558.898 178.445V179.602C558.44 179.799 558.005 179.94 557.594 180.023C557.188 180.112 556.695 180.156 556.117 180.156ZM555.766 172.367C555.078 172.367 554.529 172.591 554.117 173.039C553.711 173.487 553.471 174.107 553.398 174.898H557.875C557.875 174.081 557.693 173.456 557.328 173.023C556.964 172.586 556.443 172.367 555.766 172.367ZM570.906 180L570.648 178.781H570.586C570.159 179.318 569.732 179.682 569.305 179.875C568.883 180.062 568.354 180.156 567.719 180.156C566.87 180.156 566.203 179.938 565.719 179.5C565.24 179.062 565 178.44 565 177.633C565 175.904 566.383 174.997 569.148 174.914L570.602 174.867V174.336C570.602 173.664 570.456 173.169 570.164 172.852C569.878 172.529 569.417 172.367 568.781 172.367C568.068 172.367 567.26 172.586 566.359 173.023L565.961 172.031C566.383 171.802 566.844 171.622 567.344 171.492C567.849 171.362 568.354 171.297 568.859 171.297C569.88 171.297 570.635 171.523 571.125 171.977C571.62 172.43 571.867 173.156 571.867 174.156V180H570.906ZM567.977 179.086C568.784 179.086 569.417 178.865 569.875 178.422C570.339 177.979 570.57 177.359 570.57 176.562V175.789L569.273 175.844C568.242 175.88 567.497 176.042 567.039 176.328C566.586 176.609 566.359 177.049 566.359 177.648C566.359 178.117 566.5 178.474 566.781 178.719C567.068 178.964 567.466 179.086 567.977 179.086ZM575.844 180H574.547V167.844H575.844V180ZM97.1406 203.086C97.3698 203.086 97.5911 203.07 97.8047 203.039C98.0182 203.003 98.1875 202.966 98.3125 202.93V203.922C98.1719 203.99 97.9635 204.044 97.6875 204.086C97.4167 204.133 97.1719 204.156 96.9531 204.156C95.2969 204.156 94.4688 203.284 94.4688 201.539V196.445H93.2422V195.82L94.4688 195.281L95.0156 193.453H95.7656V195.438H98.25V196.445H95.7656V201.484C95.7656 202 95.888 202.396 96.1328 202.672C96.3776 202.948 96.7135 203.086 97.1406 203.086ZM101.328 204H100.031V195.438H101.328V204ZM99.9766 194.109C100.227 193.786 100.495 193.396 100.781 192.938C101.073 192.479 101.302 192.081 101.469 191.742H103.047V191.906C102.818 192.245 102.477 192.661 102.023 193.156C101.57 193.651 101.177 194.034 100.844 194.305H99.9766V194.109ZM106.844 203.086C107.073 203.086 107.294 203.07 107.508 203.039C107.721 203.003 107.891 202.966 108.016 202.93V203.922C107.875 203.99 107.667 204.044 107.391 204.086C107.12 204.133 106.875 204.156 106.656 204.156C105 204.156 104.172 203.284 104.172 201.539V196.445H102.945V195.82L104.172 195.281L104.719 193.453H105.469V195.438H107.953V196.445H105.469V201.484C105.469 202 105.591 202.396 105.836 202.672C106.081 202.948 106.417 203.086 106.844 203.086ZM110.953 195.438V200.992C110.953 201.69 111.112 202.211 111.43 202.555C111.747 202.898 112.245 203.07 112.922 203.07C113.818 203.07 114.471 202.826 114.883 202.336C115.299 201.846 115.508 201.047 115.508 199.938V195.438H116.805V204H115.734L115.547 202.852H115.477C115.211 203.273 114.841 203.596 114.367 203.82C113.898 204.044 113.362 204.156 112.758 204.156C111.716 204.156 110.935 203.909 110.414 203.414C109.898 202.919 109.641 202.128 109.641 201.039V195.438H110.953ZM120.859 204H119.562V191.844H120.859V204ZM131 199.711C131 201.107 130.648 202.198 129.945 202.984C129.242 203.766 128.271 204.156 127.031 204.156C126.266 204.156 125.586 203.977 124.992 203.617C124.398 203.258 123.94 202.742 123.617 202.07C123.294 201.398 123.133 200.612 123.133 199.711C123.133 198.315 123.482 197.229 124.18 196.453C124.878 195.672 125.846 195.281 127.086 195.281C128.284 195.281 129.234 195.68 129.938 196.477C130.646 197.273 131 198.352 131 199.711ZM124.477 199.711C124.477 200.805 124.695 201.638 125.133 202.211C125.57 202.784 126.214 203.07 127.062 203.07C127.911 203.07 128.555 202.786 128.992 202.219C129.435 201.646 129.656 200.81 129.656 199.711C129.656 198.622 129.435 197.797 128.992 197.234C128.555 196.667 127.906 196.383 127.047 196.383C126.198 196.383 125.557 196.661 125.125 197.219C124.693 197.776 124.477 198.607 124.477 199.711ZM143.266 202.852H143.195C142.596 203.721 141.701 204.156 140.508 204.156C139.388 204.156 138.516 203.773 137.891 203.008C137.271 202.242 136.961 201.154 136.961 199.742C136.961 198.331 137.273 197.234 137.898 196.453C138.523 195.672 139.393 195.281 140.508 195.281C141.669 195.281 142.56 195.703 143.18 196.547H143.281L143.227 195.93L143.195 195.328V191.844H144.492V204H143.438L143.266 202.852ZM140.672 203.07C141.557 203.07 142.198 202.831 142.594 202.352C142.995 201.867 143.195 201.089 143.195 200.016V199.742C143.195 198.529 142.992 197.664 142.586 197.148C142.185 196.628 141.542 196.367 140.656 196.367C139.896 196.367 139.312 196.664 138.906 197.258C138.505 197.846 138.305 198.68 138.305 199.758C138.305 200.852 138.505 201.677 138.906 202.234C139.307 202.792 139.896 203.07 140.672 203.07ZM150.867 204.156C149.602 204.156 148.602 203.771 147.867 203C147.138 202.229 146.773 201.159 146.773 199.789C146.773 198.409 147.112 197.312 147.789 196.5C148.471 195.688 149.385 195.281 150.531 195.281C151.604 195.281 152.453 195.635 153.078 196.344C153.703 197.047 154.016 197.977 154.016 199.133V199.953H148.117C148.143 200.958 148.396 201.721 148.875 202.242C149.359 202.763 150.039 203.023 150.914 203.023C151.836 203.023 152.747 202.831 153.648 202.445V203.602C153.19 203.799 152.755 203.94 152.344 204.023C151.938 204.112 151.445 204.156 150.867 204.156ZM150.516 196.367C149.828 196.367 149.279 196.591 148.867 197.039C148.461 197.487 148.221 198.107 148.148 198.898H152.625C152.625 198.081 152.443 197.456 152.078 197.023C151.714 196.586 151.193 196.367 150.516 196.367ZM161.688 204H160.391V191.844H161.688V204ZM169.703 204L169.445 202.781H169.383C168.956 203.318 168.529 203.682 168.102 203.875C167.68 204.062 167.151 204.156 166.516 204.156C165.667 204.156 165 203.938 164.516 203.5C164.036 203.062 163.797 202.44 163.797 201.633C163.797 199.904 165.18 198.997 167.945 198.914L169.398 198.867V198.336C169.398 197.664 169.253 197.169 168.961 196.852C168.674 196.529 168.214 196.367 167.578 196.367C166.865 196.367 166.057 196.586 165.156 197.023L164.758 196.031C165.18 195.802 165.641 195.622 166.141 195.492C166.646 195.362 167.151 195.297 167.656 195.297C168.677 195.297 169.432 195.523 169.922 195.977C170.417 196.43 170.664 197.156 170.664 198.156V204H169.703ZM166.773 203.086C167.581 203.086 168.214 202.865 168.672 202.422C169.135 201.979 169.367 201.359 169.367 200.562V199.789L168.07 199.844C167.039 199.88 166.294 200.042 165.836 200.328C165.383 200.609 165.156 201.049 165.156 201.648C165.156 202.117 165.297 202.474 165.578 202.719C165.865 202.964 166.263 203.086 166.773 203.086ZM181.484 204.156C180.927 204.156 180.417 204.055 179.953 203.852C179.495 203.643 179.109 203.326 178.797 202.898H178.703C178.766 203.398 178.797 203.872 178.797 204.32V207.844H177.5V195.438H178.555L178.734 196.609H178.797C179.13 196.141 179.518 195.802 179.961 195.594C180.404 195.385 180.911 195.281 181.484 195.281C182.62 195.281 183.495 195.669 184.109 196.445C184.729 197.221 185.039 198.31 185.039 199.711C185.039 201.117 184.724 202.211 184.094 202.992C183.469 203.768 182.599 204.156 181.484 204.156ZM181.297 196.383C180.422 196.383 179.789 196.625 179.398 197.109C179.008 197.594 178.807 198.365 178.797 199.422V199.711C178.797 200.914 178.997 201.776 179.398 202.297C179.799 202.812 180.443 203.07 181.328 203.07C182.068 203.07 182.646 202.771 183.062 202.172C183.484 201.573 183.695 200.747 183.695 199.695C183.695 198.628 183.484 197.81 183.062 197.242C182.646 196.669 182.057 196.383 181.297 196.383ZM192.578 204L192.32 202.781H192.258C191.831 203.318 191.404 203.682 190.977 203.875C190.555 204.062 190.026 204.156 189.391 204.156C188.542 204.156 187.875 203.938 187.391 203.5C186.911 203.062 186.672 202.44 186.672 201.633C186.672 199.904 188.055 198.997 190.82 198.914L192.273 198.867V198.336C192.273 197.664 192.128 197.169 191.836 196.852C191.549 196.529 191.089 196.367 190.453 196.367C189.74 196.367 188.932 196.586 188.031 197.023L187.633 196.031C188.055 195.802 188.516 195.622 189.016 195.492C189.521 195.362 190.026 195.297 190.531 195.297C191.552 195.297 192.307 195.523 192.797 195.977C193.292 196.43 193.539 197.156 193.539 198.156V204H192.578ZM189.648 203.086C190.456 203.086 191.089 202.865 191.547 202.422C192.01 201.979 192.242 201.359 192.242 200.562V199.789L190.945 199.844C189.914 199.88 189.169 200.042 188.711 200.328C188.258 200.609 188.031 201.049 188.031 201.648C188.031 202.117 188.172 202.474 188.453 202.719C188.74 202.964 189.138 203.086 189.648 203.086ZM189.344 194.109C189.594 193.786 189.862 193.396 190.148 192.938C190.44 192.479 190.669 192.081 190.836 191.742H192.414V191.906C192.185 192.245 191.844 192.661 191.391 193.156C190.938 193.651 190.544 194.034 190.211 194.305H189.344V194.109ZM203.227 195.438V196.258L201.641 196.445C201.786 196.628 201.917 196.867 202.031 197.164C202.146 197.456 202.203 197.786 202.203 198.156C202.203 198.995 201.917 199.664 201.344 200.164C200.771 200.664 199.984 200.914 198.984 200.914C198.729 200.914 198.49 200.893 198.266 200.852C197.714 201.143 197.438 201.51 197.438 201.953C197.438 202.188 197.534 202.362 197.727 202.477C197.919 202.586 198.25 202.641 198.719 202.641H200.234C201.161 202.641 201.872 202.836 202.367 203.227C202.867 203.617 203.117 204.185 203.117 204.93C203.117 205.878 202.737 206.599 201.977 207.094C201.216 207.594 200.107 207.844 198.648 207.844C197.529 207.844 196.664 207.635 196.055 207.219C195.451 206.802 195.148 206.214 195.148 205.453C195.148 204.932 195.315 204.482 195.648 204.102C195.982 203.721 196.451 203.464 197.055 203.328C196.836 203.229 196.651 203.076 196.5 202.867C196.354 202.659 196.281 202.417 196.281 202.141C196.281 201.828 196.365 201.555 196.531 201.32C196.698 201.086 196.961 200.859 197.32 200.641C196.878 200.458 196.516 200.148 196.234 199.711C195.958 199.273 195.82 198.773 195.82 198.211C195.82 197.273 196.102 196.552 196.664 196.047C197.227 195.536 198.023 195.281 199.055 195.281C199.503 195.281 199.906 195.333 200.266 195.438H203.227ZM196.398 205.438C196.398 205.901 196.594 206.253 196.984 206.492C197.375 206.732 197.935 206.852 198.664 206.852C199.753 206.852 200.557 206.688 201.078 206.359C201.604 206.036 201.867 205.596 201.867 205.039C201.867 204.576 201.724 204.253 201.438 204.07C201.151 203.893 200.612 203.805 199.82 203.805H198.266C197.677 203.805 197.219 203.945 196.891 204.227C196.562 204.508 196.398 204.911 196.398 205.438ZM197.102 198.18C197.102 198.779 197.271 199.232 197.609 199.539C197.948 199.846 198.419 200 199.023 200C200.289 200 200.922 199.385 200.922 198.156C200.922 196.87 200.281 196.227 199 196.227C198.391 196.227 197.922 196.391 197.594 196.719C197.266 197.047 197.102 197.534 197.102 198.18ZM206.281 204H204.984V195.438H206.281V204ZM204.875 193.117C204.875 192.82 204.948 192.604 205.094 192.469C205.24 192.328 205.422 192.258 205.641 192.258C205.849 192.258 206.029 192.328 206.18 192.469C206.331 192.609 206.406 192.826 206.406 193.117C206.406 193.409 206.331 193.628 206.18 193.773C206.029 193.914 205.849 193.984 205.641 193.984C205.422 193.984 205.24 193.914 205.094 193.773C204.948 193.628 204.875 193.409 204.875 193.117ZM214.891 204V198.461C214.891 197.763 214.732 197.242 214.414 196.898C214.096 196.555 213.599 196.383 212.922 196.383C212.026 196.383 211.37 196.625 210.953 197.109C210.536 197.594 210.328 198.393 210.328 199.508V204H209.031V195.438H210.086L210.297 196.609H210.359C210.625 196.188 210.997 195.862 211.477 195.633C211.956 195.398 212.49 195.281 213.078 195.281C214.109 195.281 214.885 195.531 215.406 196.031C215.927 196.526 216.188 197.32 216.188 198.414V204H214.891ZM224.125 204L223.867 202.781H223.805C223.378 203.318 222.951 203.682 222.523 203.875C222.102 204.062 221.573 204.156 220.938 204.156C220.089 204.156 219.422 203.938 218.938 203.5C218.458 203.062 218.219 202.44 218.219 201.633C218.219 199.904 219.602 198.997 222.367 198.914L223.82 198.867V198.336C223.82 197.664 223.674 197.169 223.383 196.852C223.096 196.529 222.635 196.367 222 196.367C221.286 196.367 220.479 196.586 219.578 197.023L219.18 196.031C219.602 195.802 220.062 195.622 220.562 195.492C221.068 195.362 221.573 195.297 222.078 195.297C223.099 195.297 223.854 195.523 224.344 195.977C224.839 196.43 225.086 197.156 225.086 198.156V204H224.125ZM221.195 203.086C222.003 203.086 222.635 202.865 223.094 202.422C223.557 201.979 223.789 201.359 223.789 200.562V199.789L222.492 199.844C221.461 199.88 220.716 200.042 220.258 200.328C219.805 200.609 219.578 201.049 219.578 201.648C219.578 202.117 219.719 202.474 220 202.719C220.286 202.964 220.685 203.086 221.195 203.086ZM235.156 203.07C236.021 203.07 236.651 202.839 237.047 202.375C237.443 201.911 237.654 201.13 237.68 200.031V199.742C237.68 198.544 237.477 197.682 237.07 197.156C236.664 196.63 236.021 196.367 235.141 196.367C234.38 196.367 233.797 196.664 233.391 197.258C232.99 197.846 232.789 198.68 232.789 199.758C232.789 200.836 232.987 201.659 233.383 202.227C233.784 202.789 234.375 203.07 235.156 203.07ZM234.961 204.156C233.857 204.156 232.995 203.768 232.375 202.992C231.755 202.216 231.445 201.133 231.445 199.742C231.445 198.341 231.758 197.247 232.383 196.461C233.008 195.674 233.878 195.281 234.992 195.281C236.164 195.281 237.065 195.724 237.695 196.609H237.766L237.953 195.438H238.977V207.844H237.68V204.18C237.68 203.659 237.708 203.216 237.766 202.852H237.664C237.065 203.721 236.164 204.156 234.961 204.156ZM242.953 195.438V200.992C242.953 201.69 243.112 202.211 243.43 202.555C243.747 202.898 244.245 203.07 244.922 203.07C245.818 203.07 246.471 202.826 246.883 202.336C247.299 201.846 247.508 201.047 247.508 199.938V195.438H248.805V204H247.734L247.547 202.852H247.477C247.211 203.273 246.841 203.596 246.367 203.82C245.898 204.044 245.362 204.156 244.758 204.156C243.716 204.156 242.935 203.909 242.414 203.414C241.898 202.919 241.641 202.128 241.641 201.039V195.438H242.953ZM255.18 204.156C253.914 204.156 252.914 203.771 252.18 203C251.451 202.229 251.086 201.159 251.086 199.789C251.086 198.409 251.424 197.312 252.102 196.5C252.784 195.688 253.698 195.281 254.844 195.281C255.917 195.281 256.766 195.635 257.391 196.344C258.016 197.047 258.328 197.977 258.328 199.133V199.953H252.43C252.456 200.958 252.708 201.721 253.188 202.242C253.672 202.763 254.352 203.023 255.227 203.023C256.148 203.023 257.06 202.831 257.961 202.445V203.602C257.503 203.799 257.068 203.94 256.656 204.023C256.25 204.112 255.758 204.156 255.18 204.156ZM254.828 196.367C254.141 196.367 253.591 196.591 253.18 197.039C252.773 197.487 252.534 198.107 252.461 198.898H256.938C256.938 198.081 256.755 197.456 256.391 197.023C256.026 196.586 255.505 196.367 254.828 196.367ZM270.227 201.664C270.227 202.461 269.93 203.076 269.336 203.508C268.742 203.94 267.909 204.156 266.836 204.156C265.701 204.156 264.815 203.977 264.18 203.617V202.414C264.591 202.622 265.031 202.786 265.5 202.906C265.974 203.026 266.43 203.086 266.867 203.086C267.544 203.086 268.065 202.979 268.43 202.766C268.794 202.547 268.977 202.216 268.977 201.773C268.977 201.44 268.831 201.156 268.539 200.922C268.253 200.682 267.69 200.401 266.852 200.078C266.055 199.781 265.487 199.523 265.148 199.305C264.815 199.081 264.565 198.828 264.398 198.547C264.237 198.266 264.156 197.93 264.156 197.539C264.156 196.841 264.44 196.292 265.008 195.891C265.576 195.484 266.354 195.281 267.344 195.281C268.266 195.281 269.167 195.469 270.047 195.844L269.586 196.898C268.727 196.544 267.948 196.367 267.25 196.367C266.635 196.367 266.172 196.464 265.859 196.656C265.547 196.849 265.391 197.115 265.391 197.453C265.391 197.682 265.448 197.878 265.562 198.039C265.682 198.201 265.872 198.354 266.133 198.5C266.393 198.646 266.893 198.857 267.633 199.133C268.648 199.503 269.333 199.875 269.688 200.25C270.047 200.625 270.227 201.096 270.227 201.664ZM275.961 204.156C274.695 204.156 273.695 203.771 272.961 203C272.232 202.229 271.867 201.159 271.867 199.789C271.867 198.409 272.206 197.312 272.883 196.5C273.565 195.688 274.479 195.281 275.625 195.281C276.698 195.281 277.547 195.635 278.172 196.344C278.797 197.047 279.109 197.977 279.109 199.133V199.953H273.211C273.237 200.958 273.49 201.721 273.969 202.242C274.453 202.763 275.133 203.023 276.008 203.023C276.93 203.023 277.841 202.831 278.742 202.445V203.602C278.284 203.799 277.849 203.94 277.438 204.023C277.031 204.112 276.539 204.156 275.961 204.156ZM275.609 196.367C274.922 196.367 274.372 196.591 273.961 197.039C273.555 197.487 273.315 198.107 273.242 198.898H277.719C277.719 198.081 277.536 197.456 277.172 197.023C276.807 196.586 276.286 196.367 275.609 196.367ZM289.102 204.156C287.836 204.156 286.836 203.771 286.102 203C285.372 202.229 285.008 201.159 285.008 199.789C285.008 198.409 285.346 197.312 286.023 196.5C286.706 195.688 287.62 195.281 288.766 195.281C289.839 195.281 290.688 195.635 291.312 196.344C291.938 197.047 292.25 197.977 292.25 199.133V199.953H286.352C286.378 200.958 286.63 201.721 287.109 202.242C287.594 202.763 288.273 203.023 289.148 203.023C290.07 203.023 290.982 202.831 291.883 202.445V203.602C291.424 203.799 290.99 203.94 290.578 204.023C290.172 204.112 289.68 204.156 289.102 204.156ZM288.75 196.367C288.062 196.367 287.513 196.591 287.102 197.039C286.695 197.487 286.456 198.107 286.383 198.898H290.859C290.859 198.081 290.677 197.456 290.312 197.023C289.948 196.586 289.427 196.367 288.75 196.367ZM300.328 204V198.461C300.328 197.763 300.169 197.242 299.852 196.898C299.534 196.555 299.036 196.383 298.359 196.383C297.464 196.383 296.807 196.625 296.391 197.109C295.974 197.594 295.766 198.393 295.766 199.508V204H294.469V195.438H295.523L295.734 196.609H295.797C296.062 196.188 296.435 195.862 296.914 195.633C297.393 195.398 297.927 195.281 298.516 195.281C299.547 195.281 300.323 195.531 300.844 196.031C301.365 196.526 301.625 197.32 301.625 198.414V204H300.328ZM307.719 204.156C306.479 204.156 305.518 203.776 304.836 203.016C304.159 202.25 303.82 201.169 303.82 199.773C303.82 198.341 304.164 197.234 304.852 196.453C305.544 195.672 306.529 195.281 307.805 195.281C308.216 195.281 308.628 195.326 309.039 195.414C309.451 195.503 309.773 195.607 310.008 195.727L309.609 196.828C309.323 196.714 309.01 196.62 308.672 196.547C308.333 196.469 308.034 196.43 307.773 196.43C306.034 196.43 305.164 197.539 305.164 199.758C305.164 200.81 305.375 201.617 305.797 202.18C306.224 202.742 306.854 203.023 307.688 203.023C308.401 203.023 309.133 202.87 309.883 202.562V203.711C309.31 204.008 308.589 204.156 307.719 204.156ZM313.141 195.438V200.992C313.141 201.69 313.299 202.211 313.617 202.555C313.935 202.898 314.432 203.07 315.109 203.07C316.005 203.07 316.659 202.826 317.07 202.336C317.487 201.846 317.695 201.047 317.695 199.938V195.438H318.992V204H317.922L317.734 202.852H317.664C317.398 203.273 317.029 203.596 316.555 203.82C316.086 204.044 315.549 204.156 314.945 204.156C313.904 204.156 313.122 203.909 312.602 203.414C312.086 202.919 311.828 202.128 311.828 201.039V195.438H313.141ZM325.367 204.156C324.102 204.156 323.102 203.771 322.367 203C321.638 202.229 321.273 201.159 321.273 199.789C321.273 198.409 321.612 197.312 322.289 196.5C322.971 195.688 323.885 195.281 325.031 195.281C326.104 195.281 326.953 195.635 327.578 196.344C328.203 197.047 328.516 197.977 328.516 199.133V199.953H322.617C322.643 200.958 322.896 201.721 323.375 202.242C323.859 202.763 324.539 203.023 325.414 203.023C326.336 203.023 327.247 202.831 328.148 202.445V203.602C327.69 203.799 327.255 203.94 326.844 204.023C326.438 204.112 325.945 204.156 325.367 204.156ZM325.016 196.367C324.328 196.367 323.779 196.591 323.367 197.039C322.961 197.487 322.721 198.107 322.648 198.898H327.125C327.125 198.081 326.943 197.456 326.578 197.023C326.214 196.586 325.693 196.367 325.016 196.367ZM336.594 204V198.461C336.594 197.763 336.435 197.242 336.117 196.898C335.799 196.555 335.302 196.383 334.625 196.383C333.729 196.383 333.073 196.625 332.656 197.109C332.24 197.594 332.031 198.393 332.031 199.508V204H330.734V195.438H331.789L332 196.609H332.062C332.328 196.188 332.701 195.862 333.18 195.633C333.659 195.398 334.193 195.281 334.781 195.281C335.812 195.281 336.589 195.531 337.109 196.031C337.63 196.526 337.891 197.32 337.891 198.414V204H336.594ZM343.328 203.086C343.557 203.086 343.779 203.07 343.992 203.039C344.206 203.003 344.375 202.966 344.5 202.93V203.922C344.359 203.99 344.151 204.044 343.875 204.086C343.604 204.133 343.359 204.156 343.141 204.156C341.484 204.156 340.656 203.284 340.656 201.539V196.445H339.43V195.82L340.656 195.281L341.203 193.453H341.953V195.438H344.438V196.445H341.953V201.484C341.953 202 342.076 202.396 342.32 202.672C342.565 202.948 342.901 203.086 343.328 203.086ZM350.125 195.281C350.505 195.281 350.846 195.312 351.148 195.375L350.969 196.578C350.615 196.5 350.302 196.461 350.031 196.461C349.339 196.461 348.745 196.742 348.25 197.305C347.76 197.867 347.516 198.568 347.516 199.406V204H346.219V195.438H347.289L347.438 197.023H347.5C347.818 196.466 348.201 196.036 348.648 195.734C349.096 195.432 349.589 195.281 350.125 195.281ZM358.016 204L357.758 202.781H357.695C357.268 203.318 356.841 203.682 356.414 203.875C355.992 204.062 355.464 204.156 354.828 204.156C353.979 204.156 353.312 203.938 352.828 203.5C352.349 203.062 352.109 202.44 352.109 201.633C352.109 199.904 353.492 198.997 356.258 198.914L357.711 198.867V198.336C357.711 197.664 357.565 197.169 357.273 196.852C356.987 196.529 356.526 196.367 355.891 196.367C355.177 196.367 354.37 196.586 353.469 197.023L353.07 196.031C353.492 195.802 353.953 195.622 354.453 195.492C354.958 195.362 355.464 195.297 355.969 195.297C356.99 195.297 357.745 195.523 358.234 195.977C358.729 196.43 358.977 197.156 358.977 198.156V204H358.016ZM355.086 203.086C355.893 203.086 356.526 202.865 356.984 202.422C357.448 201.979 357.68 201.359 357.68 200.562V199.789L356.383 199.844C355.352 199.88 354.607 200.042 354.148 200.328C353.695 200.609 353.469 201.049 353.469 201.648C353.469 202.117 353.609 202.474 353.891 202.719C354.177 202.964 354.576 203.086 355.086 203.086ZM367.109 204H365.812V191.844H367.109V204ZM375.125 204L374.867 202.781H374.805C374.378 203.318 373.951 203.682 373.523 203.875C373.102 204.062 372.573 204.156 371.938 204.156C371.089 204.156 370.422 203.938 369.938 203.5C369.458 203.062 369.219 202.44 369.219 201.633C369.219 199.904 370.602 198.997 373.367 198.914L374.82 198.867V198.336C374.82 197.664 374.674 197.169 374.383 196.852C374.096 196.529 373.635 196.367 373 196.367C372.286 196.367 371.479 196.586 370.578 197.023L370.18 196.031C370.602 195.802 371.062 195.622 371.562 195.492C372.068 195.362 372.573 195.297 373.078 195.297C374.099 195.297 374.854 195.523 375.344 195.977C375.839 196.43 376.086 197.156 376.086 198.156V204H375.125ZM372.195 203.086C373.003 203.086 373.635 202.865 374.094 202.422C374.557 201.979 374.789 201.359 374.789 200.562V199.789L373.492 199.844C372.461 199.88 371.716 200.042 371.258 200.328C370.805 200.609 370.578 201.049 370.578 201.648C370.578 202.117 370.719 202.474 371 202.719C371.286 202.964 371.685 203.086 372.195 203.086ZM386.906 204.156C386.349 204.156 385.839 204.055 385.375 203.852C384.917 203.643 384.531 203.326 384.219 202.898H384.125C384.188 203.398 384.219 203.872 384.219 204.32V207.844H382.922V195.438H383.977L384.156 196.609H384.219C384.552 196.141 384.94 195.802 385.383 195.594C385.826 195.385 386.333 195.281 386.906 195.281C388.042 195.281 388.917 195.669 389.531 196.445C390.151 197.221 390.461 198.31 390.461 199.711C390.461 201.117 390.146 202.211 389.516 202.992C388.891 203.768 388.021 204.156 386.906 204.156ZM386.719 196.383C385.844 196.383 385.211 196.625 384.82 197.109C384.43 197.594 384.229 198.365 384.219 199.422V199.711C384.219 200.914 384.419 201.776 384.82 202.297C385.221 202.812 385.865 203.07 386.75 203.07C387.49 203.07 388.068 202.771 388.484 202.172C388.906 201.573 389.117 200.747 389.117 199.695C389.117 198.628 388.906 197.81 388.484 197.242C388.068 196.669 387.479 196.383 386.719 196.383ZM396.352 204.156C395.086 204.156 394.086 203.771 393.352 203C392.622 202.229 392.258 201.159 392.258 199.789C392.258 198.409 392.596 197.312 393.273 196.5C393.956 195.688 394.87 195.281 396.016 195.281C397.089 195.281 397.938 195.635 398.562 196.344C399.188 197.047 399.5 197.977 399.5 199.133V199.953H393.602C393.628 200.958 393.88 201.721 394.359 202.242C394.844 202.763 395.523 203.023 396.398 203.023C397.32 203.023 398.232 202.831 399.133 202.445V203.602C398.674 203.799 398.24 203.94 397.828 204.023C397.422 204.112 396.93 204.156 396.352 204.156ZM396 196.367C395.312 196.367 394.763 196.591 394.352 197.039C393.945 197.487 393.706 198.107 393.633 198.898H398.109C398.109 198.081 397.927 197.456 397.562 197.023C397.198 196.586 396.677 196.367 396 196.367ZM405.625 195.281C406.005 195.281 406.346 195.312 406.648 195.375L406.469 196.578C406.115 196.5 405.802 196.461 405.531 196.461C404.839 196.461 404.245 196.742 403.75 197.305C403.26 197.867 403.016 198.568 403.016 199.406V204H401.719V195.438H402.789L402.938 197.023H403C403.318 196.466 403.701 196.036 404.148 195.734C404.596 195.432 405.089 195.281 405.625 195.281ZM413.773 201.664C413.773 202.461 413.477 203.076 412.883 203.508C412.289 203.94 411.456 204.156 410.383 204.156C409.247 204.156 408.362 203.977 407.727 203.617V202.414C408.138 202.622 408.578 202.786 409.047 202.906C409.521 203.026 409.977 203.086 410.414 203.086C411.091 203.086 411.612 202.979 411.977 202.766C412.341 202.547 412.523 202.216 412.523 201.773C412.523 201.44 412.378 201.156 412.086 200.922C411.799 200.682 411.237 200.401 410.398 200.078C409.602 199.781 409.034 199.523 408.695 199.305C408.362 199.081 408.112 198.828 407.945 198.547C407.784 198.266 407.703 197.93 407.703 197.539C407.703 196.841 407.987 196.292 408.555 195.891C409.122 195.484 409.901 195.281 410.891 195.281C411.812 195.281 412.714 195.469 413.594 195.844L413.133 196.898C412.273 196.544 411.495 196.367 410.797 196.367C410.182 196.367 409.719 196.464 409.406 196.656C409.094 196.849 408.938 197.115 408.938 197.453C408.938 197.682 408.995 197.878 409.109 198.039C409.229 198.201 409.419 198.354 409.68 198.5C409.94 198.646 410.44 198.857 411.18 199.133C412.195 199.503 412.88 199.875 413.234 200.25C413.594 200.625 413.773 201.096 413.773 201.664ZM423.281 199.711C423.281 201.107 422.93 202.198 422.227 202.984C421.523 203.766 420.552 204.156 419.312 204.156C418.547 204.156 417.867 203.977 417.273 203.617C416.68 203.258 416.221 202.742 415.898 202.07C415.576 201.398 415.414 200.612 415.414 199.711C415.414 198.315 415.763 197.229 416.461 196.453C417.159 195.672 418.128 195.281 419.367 195.281C420.565 195.281 421.516 195.68 422.219 196.477C422.927 197.273 423.281 198.352 423.281 199.711ZM416.758 199.711C416.758 200.805 416.977 201.638 417.414 202.211C417.852 202.784 418.495 203.07 419.344 203.07C420.193 203.07 420.836 202.786 421.273 202.219C421.716 201.646 421.938 200.81 421.938 199.711C421.938 198.622 421.716 197.797 421.273 197.234C420.836 196.667 420.188 196.383 419.328 196.383C418.479 196.383 417.839 196.661 417.406 197.219C416.974 197.776 416.758 198.607 416.758 199.711ZM431.422 204V198.461C431.422 197.763 431.263 197.242 430.945 196.898C430.628 196.555 430.13 196.383 429.453 196.383C428.557 196.383 427.901 196.625 427.484 197.109C427.068 197.594 426.859 198.393 426.859 199.508V204H425.562V195.438H426.617L426.828 196.609H426.891C427.156 196.188 427.529 195.862 428.008 195.633C428.487 195.398 429.021 195.281 429.609 195.281C430.641 195.281 431.417 195.531 431.938 196.031C432.458 196.526 432.719 197.32 432.719 198.414V204H431.422ZM440.656 204L440.398 202.781H440.336C439.909 203.318 439.482 203.682 439.055 203.875C438.633 204.062 438.104 204.156 437.469 204.156C436.62 204.156 435.953 203.938 435.469 203.5C434.99 203.062 434.75 202.44 434.75 201.633C434.75 199.904 436.133 198.997 438.898 198.914L440.352 198.867V198.336C440.352 197.664 440.206 197.169 439.914 196.852C439.628 196.529 439.167 196.367 438.531 196.367C437.818 196.367 437.01 196.586 436.109 197.023L435.711 196.031C436.133 195.802 436.594 195.622 437.094 195.492C437.599 195.362 438.104 195.297 438.609 195.297C439.63 195.297 440.385 195.523 440.875 195.977C441.37 196.43 441.617 197.156 441.617 198.156V204H440.656ZM437.727 203.086C438.534 203.086 439.167 202.865 439.625 202.422C440.089 201.979 440.32 201.359 440.32 200.562V199.789L439.023 199.844C437.992 199.88 437.247 200.042 436.789 200.328C436.336 200.609 436.109 201.049 436.109 201.648C436.109 202.117 436.25 202.474 436.531 202.719C436.818 202.964 437.216 203.086 437.727 203.086ZM449.672 195.438V200.992C449.672 201.69 449.831 202.211 450.148 202.555C450.466 202.898 450.964 203.07 451.641 203.07C452.536 203.07 453.19 202.826 453.602 202.336C454.018 201.846 454.227 201.047 454.227 199.938V195.438H455.523V204H454.453L454.266 202.852H454.195C453.93 203.273 453.56 203.596 453.086 203.82C452.617 204.044 452.081 204.156 451.477 204.156C450.435 204.156 449.654 203.909 449.133 203.414C448.617 202.919 448.359 202.128 448.359 201.039V195.438H449.672ZM463.805 201.664C463.805 202.461 463.508 203.076 462.914 203.508C462.32 203.94 461.487 204.156 460.414 204.156C459.279 204.156 458.393 203.977 457.758 203.617V202.414C458.169 202.622 458.609 202.786 459.078 202.906C459.552 203.026 460.008 203.086 460.445 203.086C461.122 203.086 461.643 202.979 462.008 202.766C462.372 202.547 462.555 202.216 462.555 201.773C462.555 201.44 462.409 201.156 462.117 200.922C461.831 200.682 461.268 200.401 460.43 200.078C459.633 199.781 459.065 199.523 458.727 199.305C458.393 199.081 458.143 198.828 457.977 198.547C457.815 198.266 457.734 197.93 457.734 197.539C457.734 196.841 458.018 196.292 458.586 195.891C459.154 195.484 459.932 195.281 460.922 195.281C461.844 195.281 462.745 195.469 463.625 195.844L463.164 196.898C462.305 196.544 461.526 196.367 460.828 196.367C460.214 196.367 459.75 196.464 459.438 196.656C459.125 196.849 458.969 197.115 458.969 197.453C458.969 197.682 459.026 197.878 459.141 198.039C459.26 198.201 459.451 198.354 459.711 198.5C459.971 198.646 460.471 198.857 461.211 199.133C462.227 199.503 462.911 199.875 463.266 200.25C463.625 200.625 463.805 201.096 463.805 201.664ZM467.141 195.438V200.992C467.141 201.69 467.299 202.211 467.617 202.555C467.935 202.898 468.432 203.07 469.109 203.07C470.005 203.07 470.659 202.826 471.07 202.336C471.487 201.846 471.695 201.047 471.695 199.938V195.438H472.992V204H471.922L471.734 202.852H471.664C471.398 203.273 471.029 203.596 470.555 203.82C470.086 204.044 469.549 204.156 468.945 204.156C467.904 204.156 467.122 203.909 466.602 203.414C466.086 202.919 465.828 202.128 465.828 201.039V195.438H467.141ZM481.016 204L480.758 202.781H480.695C480.268 203.318 479.841 203.682 479.414 203.875C478.992 204.062 478.464 204.156 477.828 204.156C476.979 204.156 476.312 203.938 475.828 203.5C475.349 203.062 475.109 202.44 475.109 201.633C475.109 199.904 476.492 198.997 479.258 198.914L480.711 198.867V198.336C480.711 197.664 480.565 197.169 480.273 196.852C479.987 196.529 479.526 196.367 478.891 196.367C478.177 196.367 477.37 196.586 476.469 197.023L476.07 196.031C476.492 195.802 476.953 195.622 477.453 195.492C477.958 195.362 478.464 195.297 478.969 195.297C479.99 195.297 480.745 195.523 481.234 195.977C481.729 196.43 481.977 197.156 481.977 198.156V204H481.016ZM478.086 203.086C478.893 203.086 479.526 202.865 479.984 202.422C480.448 201.979 480.68 201.359 480.68 200.562V199.789L479.383 199.844C478.352 199.88 477.607 200.042 477.148 200.328C476.695 200.609 476.469 201.049 476.469 201.648C476.469 202.117 476.609 202.474 476.891 202.719C477.177 202.964 477.576 203.086 478.086 203.086ZM488.562 195.281C488.943 195.281 489.284 195.312 489.586 195.375L489.406 196.578C489.052 196.5 488.74 196.461 488.469 196.461C487.776 196.461 487.182 196.742 486.688 197.305C486.198 197.867 485.953 198.568 485.953 199.406V204H484.656V195.438H485.727L485.875 197.023H485.938C486.255 196.466 486.638 196.036 487.086 195.734C487.534 195.432 488.026 195.281 488.562 195.281ZM492.484 204H491.188V195.438H492.484V204ZM491.078 193.117C491.078 192.82 491.151 192.604 491.297 192.469C491.443 192.328 491.625 192.258 491.844 192.258C492.052 192.258 492.232 192.328 492.383 192.469C492.534 192.609 492.609 192.826 492.609 193.117C492.609 193.409 492.534 193.628 492.383 193.773C492.232 193.914 492.052 193.984 491.844 193.984C491.625 193.984 491.443 193.914 491.297 193.773C491.151 193.628 491.078 193.409 491.078 193.117ZM500.5 204L500.242 202.781H500.18C499.753 203.318 499.326 203.682 498.898 203.875C498.477 204.062 497.948 204.156 497.312 204.156C496.464 204.156 495.797 203.938 495.312 203.5C494.833 203.062 494.594 202.44 494.594 201.633C494.594 199.904 495.977 198.997 498.742 198.914L500.195 198.867V198.336C500.195 197.664 500.049 197.169 499.758 196.852C499.471 196.529 499.01 196.367 498.375 196.367C497.661 196.367 496.854 196.586 495.953 197.023L495.555 196.031C495.977 195.802 496.438 195.622 496.938 195.492C497.443 195.362 497.948 195.297 498.453 195.297C499.474 195.297 500.229 195.523 500.719 195.977C501.214 196.43 501.461 197.156 501.461 198.156V204H500.5ZM497.57 203.086C498.378 203.086 499.01 202.865 499.469 202.422C499.932 201.979 500.164 201.359 500.164 200.562V199.789L498.867 199.844C497.836 199.88 497.091 200.042 496.633 200.328C496.18 200.609 495.953 201.049 495.953 201.648C495.953 202.117 496.094 202.474 496.375 202.719C496.661 202.964 497.06 203.086 497.57 203.086ZM503.953 203.172C503.953 202.823 504.031 202.56 504.188 202.383C504.349 202.201 504.578 202.109 504.875 202.109C505.177 202.109 505.411 202.201 505.578 202.383C505.75 202.56 505.836 202.823 505.836 203.172C505.836 203.51 505.75 203.771 505.578 203.953C505.406 204.135 505.172 204.227 504.875 204.227C504.609 204.227 504.388 204.146 504.211 203.984C504.039 203.818 503.953 203.547 503.953 203.172Z" fill="#38485C"/>
<path d="M94.5703 78V66.5781H95.8984V78H94.5703ZM104.703 78V72.4609C104.703 71.763 104.544 71.2422 104.227 70.8984C103.909 70.5547 103.411 70.3828 102.734 70.3828C101.839 70.3828 101.182 70.625 100.766 71.1094C100.349 71.5938 100.141 72.3932 100.141 73.5078V78H98.8438V69.4375H99.8984L100.109 70.6094H100.172C100.438 70.1875 100.81 69.862 101.289 69.6328C101.768 69.3984 102.302 69.2812 102.891 69.2812C103.922 69.2812 104.698 69.5312 105.219 70.0312C105.74 70.526 106 71.3203 106 72.4141V78H104.703ZM109.969 78H108.672V69.4375H109.969V78ZM108.562 67.1172C108.562 66.8203 108.635 66.6042 108.781 66.4688C108.927 66.3281 109.109 66.2578 109.328 66.2578C109.536 66.2578 109.716 66.3281 109.867 66.4688C110.018 66.6094 110.094 66.8255 110.094 67.1172C110.094 67.4089 110.018 67.6276 109.867 67.7734C109.716 67.9141 109.536 67.9844 109.328 67.9844C109.109 67.9844 108.927 67.9141 108.781 67.7734C108.635 67.6276 108.562 67.4089 108.562 67.1172ZM116.141 78.1562C114.901 78.1562 113.94 77.776 113.258 77.0156C112.581 76.25 112.242 75.1693 112.242 73.7734C112.242 72.3411 112.586 71.2344 113.273 70.4531C113.966 69.6719 114.951 69.2812 116.227 69.2812C116.638 69.2812 117.049 69.3255 117.461 69.4141C117.872 69.5026 118.195 69.6068 118.43 69.7266L118.031 70.8281C117.745 70.7135 117.432 70.6198 117.094 70.5469C116.755 70.4688 116.456 70.4297 116.195 70.4297C114.456 70.4297 113.586 71.5391 113.586 73.7578C113.586 74.8099 113.797 75.6172 114.219 76.1797C114.646 76.7422 115.276 77.0234 116.109 77.0234C116.823 77.0234 117.555 76.8698 118.305 76.5625V77.7109C117.732 78.0078 117.01 78.1562 116.141 78.1562ZM121.641 78H120.344V69.4375H121.641V78ZM120.234 67.1172C120.234 66.8203 120.307 66.6042 120.453 66.4688C120.599 66.3281 120.781 66.2578 121 66.2578C121.208 66.2578 121.388 66.3281 121.539 66.4688C121.69 66.6094 121.766 66.8255 121.766 67.1172C121.766 67.4089 121.69 67.6276 121.539 67.7734C121.388 67.9141 121.208 67.9844 121 67.9844C120.781 67.9844 120.599 67.9141 120.453 67.7734C120.307 67.6276 120.234 67.4089 120.234 67.1172ZM131.781 73.7109C131.781 75.1068 131.43 76.1979 130.727 76.9844C130.023 77.7656 129.052 78.1562 127.812 78.1562C127.047 78.1562 126.367 77.9766 125.773 77.6172C125.18 77.2578 124.721 76.7422 124.398 76.0703C124.076 75.3984 123.914 74.612 123.914 73.7109C123.914 72.3151 124.263 71.2292 124.961 70.4531C125.659 69.6719 126.628 69.2812 127.867 69.2812C129.065 69.2812 130.016 69.6797 130.719 70.4766C131.427 71.2734 131.781 72.3516 131.781 73.7109ZM125.258 73.7109C125.258 74.8047 125.477 75.638 125.914 76.2109C126.352 76.7839 126.995 77.0703 127.844 77.0703C128.693 77.0703 129.336 76.7865 129.773 76.2188C130.216 75.6458 130.438 74.8099 130.438 73.7109C130.438 72.6224 130.216 71.7969 129.773 71.2344C129.336 70.6667 128.688 70.3828 127.828 70.3828C126.979 70.3828 126.339 70.6615 125.906 71.2188C125.474 71.776 125.258 72.6068 125.258 73.7109Z" fill="#007BC7"/>
<path d="M93 79.6016H132.68V80.3984H93V79.6016Z" fill="#007BC7"/>
<g clip-path="url(#clip0_177_531)">
<path d="M150.29 75.88L154.17 72L150.29 68.12C149.9 67.73 149.9 67.1 150.29 66.71C150.68 66.32 151.31 66.32 151.7 66.71L156.29 71.3C156.68 71.69 156.68 72.32 156.29 72.71L151.7 77.3C151.31 77.69 150.68 77.69 150.29 77.3C149.91 76.91 149.9 76.27 150.29 75.88Z" fill="#38485C"/>
</g>
<path d="M174.086 78H172.758V67.7578H169.141V66.5781H177.703V67.7578H174.086V78ZM182.852 78.1562C181.586 78.1562 180.586 77.7708 179.852 77C179.122 76.2292 178.758 75.1589 178.758 73.7891C178.758 72.4089 179.096 71.3125 179.773 70.5C180.456 69.6875 181.37 69.2812 182.516 69.2812C183.589 69.2812 184.438 69.6354 185.062 70.3438C185.688 71.0469 186 71.9766 186 73.1328V73.9531H180.102C180.128 74.9583 180.38 75.7214 180.859 76.2422C181.344 76.763 182.023 77.0234 182.898 77.0234C183.82 77.0234 184.732 76.8307 185.633 76.4453V77.6016C185.174 77.7995 184.74 77.9401 184.328 78.0234C183.922 78.112 183.43 78.1562 182.852 78.1562ZM182.5 70.3672C181.812 70.3672 181.263 70.5911 180.852 71.0391C180.445 71.487 180.206 72.1068 180.133 72.8984H184.609C184.609 72.0807 184.427 71.4557 184.062 71.0234C183.698 70.5859 183.177 70.3672 182.5 70.3672ZM190.281 73.6172L187.305 69.4375H188.781L191.039 72.7188L193.289 69.4375H194.75L191.773 73.6172L194.906 78H193.438L191.039 74.5312L188.617 78H187.148L190.281 73.6172ZM199.375 77.0859C199.604 77.0859 199.826 77.0703 200.039 77.0391C200.253 77.0026 200.422 76.9661 200.547 76.9297V77.9219C200.406 77.9896 200.198 78.0443 199.922 78.0859C199.651 78.1328 199.406 78.1562 199.188 78.1562C197.531 78.1562 196.703 77.2839 196.703 75.5391V70.4453H195.477V69.8203L196.703 69.2812L197.25 67.4531H198V69.4375H200.484V70.4453H198V75.4844C198 76 198.122 76.3958 198.367 76.6719C198.612 76.9479 198.948 77.0859 199.375 77.0859ZM209.656 73.7109C209.656 75.1068 209.305 76.1979 208.602 76.9844C207.898 77.7656 206.927 78.1562 205.688 78.1562C204.922 78.1562 204.242 77.9766 203.648 77.6172C203.055 77.2578 202.596 76.7422 202.273 76.0703C201.951 75.3984 201.789 74.612 201.789 73.7109C201.789 72.3151 202.138 71.2292 202.836 70.4531C203.534 69.6719 204.503 69.2812 205.742 69.2812C206.94 69.2812 207.891 69.6797 208.594 70.4766C209.302 71.2734 209.656 72.3516 209.656 73.7109ZM203.133 73.7109C203.133 74.8047 203.352 75.638 203.789 76.2109C204.227 76.7839 204.87 77.0703 205.719 77.0703C206.568 77.0703 207.211 76.7865 207.648 76.2188C208.091 75.6458 208.312 74.8099 208.312 73.7109C208.312 72.6224 208.091 71.7969 207.648 71.2344C207.211 70.6667 206.562 70.3828 205.703 70.3828C204.854 70.3828 204.214 70.6615 203.781 71.2188C203.349 71.776 203.133 72.6068 203.133 73.7109ZM219.516 78.1562C218.276 78.1562 217.315 77.776 216.633 77.0156C215.956 76.25 215.617 75.1693 215.617 73.7734C215.617 72.3411 215.961 71.2344 216.648 70.4531C217.341 69.6719 218.326 69.2812 219.602 69.2812C220.013 69.2812 220.424 69.3255 220.836 69.4141C221.247 69.5026 221.57 69.6068 221.805 69.7266L221.406 70.8281C221.12 70.7135 220.807 70.6198 220.469 70.5469C220.13 70.4688 219.831 70.4297 219.57 70.4297C217.831 70.4297 216.961 71.5391 216.961 73.7578C216.961 74.8099 217.172 75.6172 217.594 76.1797C218.021 76.7422 218.651 77.0234 219.484 77.0234C220.198 77.0234 220.93 76.8698 221.68 76.5625V77.7109C221.107 78.0078 220.385 78.1562 219.516 78.1562ZM231.109 73.7109C231.109 75.1068 230.758 76.1979 230.055 76.9844C229.352 77.7656 228.38 78.1562 227.141 78.1562C226.375 78.1562 225.695 77.9766 225.102 77.6172C224.508 77.2578 224.049 76.7422 223.727 76.0703C223.404 75.3984 223.242 74.612 223.242 73.7109C223.242 72.3151 223.591 71.2292 224.289 70.4531C224.987 69.6719 225.956 69.2812 227.195 69.2812C228.393 69.2812 229.344 69.6797 230.047 70.4766C230.755 71.2734 231.109 72.3516 231.109 73.7109ZM224.586 73.7109C224.586 74.8047 224.805 75.638 225.242 76.2109C225.68 76.7839 226.323 77.0703 227.172 77.0703C228.021 77.0703 228.664 76.7865 229.102 76.2188C229.544 75.6458 229.766 74.8099 229.766 73.7109C229.766 72.6224 229.544 71.7969 229.102 71.2344C228.664 70.6667 228.016 70.3828 227.156 70.3828C226.307 70.3828 225.667 70.6615 225.234 71.2188C224.802 71.776 224.586 72.6068 224.586 73.7109ZM239.25 78V72.4609C239.25 71.763 239.091 71.2422 238.773 70.8984C238.456 70.5547 237.958 70.3828 237.281 70.3828C236.385 70.3828 235.729 70.625 235.312 71.1094C234.896 71.5938 234.688 72.3932 234.688 73.5078V78H233.391V69.4375H234.445L234.656 70.6094H234.719C234.984 70.1875 235.357 69.862 235.836 69.6328C236.315 69.3984 236.849 69.2812 237.438 69.2812C238.469 69.2812 239.245 69.5312 239.766 70.0312C240.286 70.526 240.547 71.3203 240.547 72.4141V78H239.25ZM258.289 78V72.4297C258.289 71.7474 258.143 71.237 257.852 70.8984C257.56 70.5547 257.107 70.3828 256.492 70.3828C255.685 70.3828 255.089 70.6146 254.703 71.0781C254.318 71.5417 254.125 72.2552 254.125 73.2188V78H252.828V72.4297C252.828 71.7474 252.682 71.237 252.391 70.8984C252.099 70.5547 251.643 70.3828 251.023 70.3828C250.211 70.3828 249.615 70.6276 249.234 71.1172C248.859 71.6016 248.672 72.3984 248.672 73.5078V78H247.375V69.4375H248.43L248.641 70.6094H248.703C248.948 70.1927 249.292 69.8672 249.734 69.6328C250.182 69.3984 250.682 69.2812 251.234 69.2812C252.573 69.2812 253.448 69.7656 253.859 70.7344H253.922C254.177 70.2865 254.547 69.9323 255.031 69.6719C255.516 69.4115 256.068 69.2812 256.688 69.2812C257.656 69.2812 258.38 69.5312 258.859 70.0312C259.344 70.526 259.586 71.3203 259.586 72.4141V78H258.289ZM267.531 78L267.273 76.7812H267.211C266.784 77.3177 266.357 77.6823 265.93 77.875C265.508 78.0625 264.979 78.1562 264.344 78.1562C263.495 78.1562 262.828 77.9375 262.344 77.5C261.865 77.0625 261.625 76.4401 261.625 75.6328C261.625 73.9036 263.008 72.9974 265.773 72.9141L267.227 72.8672V72.3359C267.227 71.6641 267.081 71.1693 266.789 70.8516C266.503 70.5286 266.042 70.3672 265.406 70.3672C264.693 70.3672 263.885 70.5859 262.984 71.0234L262.586 70.0312C263.008 69.8021 263.469 69.6224 263.969 69.4922C264.474 69.362 264.979 69.2969 265.484 69.2969C266.505 69.2969 267.26 69.5234 267.75 69.9766C268.245 70.4297 268.492 71.1562 268.492 72.1562V78H267.531ZM264.602 77.0859C265.409 77.0859 266.042 76.8646 266.5 76.4219C266.964 75.9792 267.195 75.3594 267.195 74.5625V73.7891L265.898 73.8438C264.867 73.8802 264.122 74.0417 263.664 74.3281C263.211 74.6094 262.984 75.0495 262.984 75.6484C262.984 76.1172 263.125 76.474 263.406 76.7188C263.693 76.9635 264.091 77.0859 264.602 77.0859ZM264.297 68.1094C264.547 67.7865 264.815 67.3958 265.102 66.9375C265.393 66.4792 265.622 66.0807 265.789 65.7422H267.367V65.9062C267.138 66.2448 266.797 66.6615 266.344 67.1562C265.891 67.651 265.497 68.0339 265.164 68.3047H264.297V68.1094ZM276.695 75.6641C276.695 76.4609 276.398 77.0755 275.805 77.5078C275.211 77.9401 274.378 78.1562 273.305 78.1562C272.169 78.1562 271.284 77.9766 270.648 77.6172V76.4141C271.06 76.6224 271.5 76.7865 271.969 76.9062C272.443 77.026 272.898 77.0859 273.336 77.0859C274.013 77.0859 274.534 76.9792 274.898 76.7656C275.263 76.5469 275.445 76.2161 275.445 75.7734C275.445 75.4401 275.299 75.1562 275.008 74.9219C274.721 74.6823 274.159 74.401 273.32 74.0781C272.523 73.7812 271.956 73.5234 271.617 73.3047C271.284 73.0807 271.034 72.8281 270.867 72.5469C270.706 72.2656 270.625 71.9297 270.625 71.5391C270.625 70.8411 270.909 70.2917 271.477 69.8906C272.044 69.4844 272.823 69.2812 273.812 69.2812C274.734 69.2812 275.635 69.4688 276.516 69.8438L276.055 70.8984C275.195 70.5443 274.417 70.3672 273.719 70.3672C273.104 70.3672 272.641 70.4635 272.328 70.6562C272.016 70.849 271.859 71.1146 271.859 71.4531C271.859 71.6823 271.917 71.8776 272.031 72.0391C272.151 72.2005 272.341 72.3542 272.602 72.5C272.862 72.6458 273.362 72.8568 274.102 73.1328C275.117 73.5026 275.802 73.875 276.156 74.25C276.516 74.625 276.695 75.0964 276.695 75.6641ZM288.797 76.8516H288.727C288.128 77.7214 287.232 78.1562 286.039 78.1562C284.919 78.1562 284.047 77.7734 283.422 77.0078C282.802 76.2422 282.492 75.1536 282.492 73.7422C282.492 72.3307 282.805 71.2344 283.43 70.4531C284.055 69.6719 284.924 69.2812 286.039 69.2812C287.201 69.2812 288.091 69.7031 288.711 70.5469H288.812L288.758 69.9297L288.727 69.3281V65.8438H290.023V78H288.969L288.797 76.8516ZM286.203 77.0703C287.089 77.0703 287.729 76.8307 288.125 76.3516C288.526 75.8672 288.727 75.0885 288.727 74.0156V73.7422C288.727 72.5286 288.523 71.6641 288.117 71.1484C287.716 70.6276 287.073 70.3672 286.188 70.3672C285.427 70.3672 284.844 70.6641 284.438 71.2578C284.036 71.8464 283.836 72.6797 283.836 73.7578C283.836 74.8516 284.036 75.6771 284.438 76.2344C284.839 76.7917 285.427 77.0703 286.203 77.0703ZM296.398 78.1562C295.133 78.1562 294.133 77.7708 293.398 77C292.669 76.2292 292.305 75.1589 292.305 73.7891C292.305 72.4089 292.643 71.3125 293.32 70.5C294.003 69.6875 294.917 69.2812 296.062 69.2812C297.135 69.2812 297.984 69.6354 298.609 70.3438C299.234 71.0469 299.547 71.9766 299.547 73.1328V73.9531H293.648C293.674 74.9583 293.927 75.7214 294.406 76.2422C294.891 76.763 295.57 77.0234 296.445 77.0234C297.367 77.0234 298.279 76.8307 299.18 76.4453V77.6016C298.721 77.7995 298.286 77.9401 297.875 78.0234C297.469 78.112 296.977 78.1562 296.398 78.1562ZM296.047 70.3672C295.359 70.3672 294.81 70.5911 294.398 71.0391C293.992 71.487 293.753 72.1068 293.68 72.8984H298.156C298.156 72.0807 297.974 71.4557 297.609 71.0234C297.245 70.5859 296.724 70.3672 296.047 70.3672ZM308.688 77.0859C308.917 77.0859 309.138 77.0703 309.352 77.0391C309.565 77.0026 309.734 76.9661 309.859 76.9297V77.9219C309.719 77.9896 309.51 78.0443 309.234 78.0859C308.964 78.1328 308.719 78.1562 308.5 78.1562C306.844 78.1562 306.016 77.2839 306.016 75.5391V70.4453H304.789V69.8203L306.016 69.2812L306.562 67.4531H307.312V69.4375H309.797V70.4453H307.312V75.4844C307.312 76 307.435 76.3958 307.68 76.6719C307.924 76.9479 308.26 77.0859 308.688 77.0859ZM315.484 69.2812C315.865 69.2812 316.206 69.3125 316.508 69.375L316.328 70.5781C315.974 70.5 315.661 70.4609 315.391 70.4609C314.698 70.4609 314.104 70.7422 313.609 71.3047C313.12 71.8672 312.875 72.5677 312.875 73.4062V78H311.578V69.4375H312.648L312.797 71.0234H312.859C313.177 70.4661 313.56 70.0365 314.008 69.7344C314.456 69.4323 314.948 69.2812 315.484 69.2812ZM321.727 78.1562C320.461 78.1562 319.461 77.7708 318.727 77C317.997 76.2292 317.633 75.1589 317.633 73.7891C317.633 72.4089 317.971 71.3125 318.648 70.5C319.331 69.6875 320.245 69.2812 321.391 69.2812C322.464 69.2812 323.312 69.6354 323.938 70.3438C324.562 71.0469 324.875 71.9766 324.875 73.1328V73.9531H318.977C319.003 74.9583 319.255 75.7214 319.734 76.2422C320.219 76.763 320.898 77.0234 321.773 77.0234C322.695 77.0234 323.607 76.8307 324.508 76.4453V77.6016C324.049 77.7995 323.615 77.9401 323.203 78.0234C322.797 78.112 322.305 78.1562 321.727 78.1562ZM321.375 70.3672C320.688 70.3672 320.138 70.5911 319.727 71.0391C319.32 71.487 319.081 72.1068 319.008 72.8984H323.484C323.484 72.0807 323.302 71.4557 322.938 71.0234C322.573 70.5859 322.052 70.3672 321.375 70.3672ZM328.391 78H327.094V69.4375H328.391V78ZM326.984 67.1172C326.984 66.8203 327.057 66.6042 327.203 66.4688C327.349 66.3281 327.531 66.2578 327.75 66.2578C327.958 66.2578 328.138 66.3281 328.289 66.4688C328.44 66.6094 328.516 66.8255 328.516 67.1172C328.516 67.4089 328.44 67.6276 328.289 67.7734C328.138 67.9141 327.958 67.9844 327.75 67.9844C327.531 67.9844 327.349 67.9141 327.203 67.7734C327.057 67.6276 326.984 67.4089 326.984 67.1172ZM337 78V72.4609C337 71.763 336.841 71.2422 336.523 70.8984C336.206 70.5547 335.708 70.3828 335.031 70.3828C334.135 70.3828 333.479 70.625 333.062 71.1094C332.646 71.5938 332.438 72.3932 332.438 73.5078V78H331.141V69.4375H332.195L332.406 70.6094H332.469C332.734 70.1875 333.107 69.862 333.586 69.6328C334.065 69.3984 334.599 69.2812 335.188 69.2812C336.219 69.2812 336.995 69.5312 337.516 70.0312C338.036 70.526 338.297 71.3203 338.297 72.4141V78H337ZM343.734 77.0859C343.964 77.0859 344.185 77.0703 344.398 77.0391C344.612 77.0026 344.781 76.9661 344.906 76.9297V77.9219C344.766 77.9896 344.557 78.0443 344.281 78.0859C344.01 78.1328 343.766 78.1562 343.547 78.1562C341.891 78.1562 341.062 77.2839 341.062 75.5391V70.4453H339.836V69.8203L341.062 69.2812L341.609 67.4531H342.359V69.4375H344.844V70.4453H342.359V75.4844C342.359 76 342.482 76.3958 342.727 76.6719C342.971 76.9479 343.307 77.0859 343.734 77.0859ZM351.891 78L351.633 76.7812H351.57C351.143 77.3177 350.716 77.6823 350.289 77.875C349.867 78.0625 349.339 78.1562 348.703 78.1562C347.854 78.1562 347.188 77.9375 346.703 77.5C346.224 77.0625 345.984 76.4401 345.984 75.6328C345.984 73.9036 347.367 72.9974 350.133 72.9141L351.586 72.8672V72.3359C351.586 71.6641 351.44 71.1693 351.148 70.8516C350.862 70.5286 350.401 70.3672 349.766 70.3672C349.052 70.3672 348.245 70.5859 347.344 71.0234L346.945 70.0312C347.367 69.8021 347.828 69.6224 348.328 69.4922C348.833 69.362 349.339 69.2969 349.844 69.2969C350.865 69.2969 351.62 69.5234 352.109 69.9766C352.604 70.4297 352.852 71.1562 352.852 72.1562V78H351.891ZM348.961 77.0859C349.768 77.0859 350.401 76.8646 350.859 76.4219C351.323 75.9792 351.555 75.3594 351.555 74.5625V73.7891L350.258 73.8438C349.227 73.8802 348.482 74.0417 348.023 74.3281C347.57 74.6094 347.344 75.0495 347.344 75.6484C347.344 76.1172 347.484 76.474 347.766 76.7188C348.052 76.9635 348.451 77.0859 348.961 77.0859ZM358.328 69.4375H359.719L361.594 74.3203C362.005 75.4349 362.26 76.2396 362.359 76.7344H362.422C362.49 76.4688 362.63 76.0156 362.844 75.375C363.062 74.7292 363.771 72.75 364.969 69.4375H366.359L362.68 79.1875C362.315 80.151 361.888 80.8333 361.398 81.2344C360.914 81.6406 360.318 81.8438 359.609 81.8438C359.214 81.8438 358.823 81.7995 358.438 81.7109V80.6719C358.724 80.7344 359.044 80.7656 359.398 80.7656C360.289 80.7656 360.924 80.2656 361.305 79.2656L361.781 78.0469L358.328 69.4375ZM377.43 75.6641C377.43 76.4609 377.133 77.0755 376.539 77.5078C375.945 77.9401 375.112 78.1562 374.039 78.1562C372.904 78.1562 372.018 77.9766 371.383 77.6172V76.4141C371.794 76.6224 372.234 76.7865 372.703 76.9062C373.177 77.026 373.633 77.0859 374.07 77.0859C374.747 77.0859 375.268 76.9792 375.633 76.7656C375.997 76.5469 376.18 76.2161 376.18 75.7734C376.18 75.4401 376.034 75.1562 375.742 74.9219C375.456 74.6823 374.893 74.401 374.055 74.0781C373.258 73.7812 372.69 73.5234 372.352 73.3047C372.018 73.0807 371.768 72.8281 371.602 72.5469C371.44 72.2656 371.359 71.9297 371.359 71.5391C371.359 70.8411 371.643 70.2917 372.211 69.8906C372.779 69.4844 373.557 69.2812 374.547 69.2812C375.469 69.2812 376.37 69.4688 377.25 69.8438L376.789 70.8984C375.93 70.5443 375.151 70.3672 374.453 70.3672C373.839 70.3672 373.375 70.4635 373.062 70.6562C372.75 70.849 372.594 71.1146 372.594 71.4531C372.594 71.6823 372.651 71.8776 372.766 72.0391C372.885 72.2005 373.076 72.3542 373.336 72.5C373.596 72.6458 374.096 72.8568 374.836 73.1328C375.852 73.5026 376.536 73.875 376.891 74.25C377.25 74.625 377.43 75.0964 377.43 75.6641ZM383.164 78.1562C381.898 78.1562 380.898 77.7708 380.164 77C379.435 76.2292 379.07 75.1589 379.07 73.7891C379.07 72.4089 379.409 71.3125 380.086 70.5C380.768 69.6875 381.682 69.2812 382.828 69.2812C383.901 69.2812 384.75 69.6354 385.375 70.3438C386 71.0469 386.312 71.9766 386.312 73.1328V73.9531H380.414C380.44 74.9583 380.693 75.7214 381.172 76.2422C381.656 76.763 382.336 77.0234 383.211 77.0234C384.133 77.0234 385.044 76.8307 385.945 76.4453V77.6016C385.487 77.7995 385.052 77.9401 384.641 78.0234C384.234 78.112 383.742 78.1562 383.164 78.1562ZM382.812 70.3672C382.125 70.3672 381.576 70.5911 381.164 71.0391C380.758 71.487 380.518 72.1068 380.445 72.8984H384.922C384.922 72.0807 384.74 71.4557 384.375 71.0234C384.01 70.5859 383.49 70.3672 382.812 70.3672ZM389.828 78H388.531V69.4375H389.828V78ZM388.422 67.1172C388.422 66.8203 388.495 66.6042 388.641 66.4688C388.786 66.3281 388.969 66.2578 389.188 66.2578C389.396 66.2578 389.576 66.3281 389.727 66.4688C389.878 66.6094 389.953 66.8255 389.953 67.1172C389.953 67.4089 389.878 67.6276 389.727 67.7734C389.576 67.9141 389.396 67.9844 389.188 67.9844C388.969 67.9844 388.786 67.9141 388.641 67.7734C388.495 67.6276 388.422 67.4089 388.422 67.1172ZM398.102 75.6641C398.102 76.4609 397.805 77.0755 397.211 77.5078C396.617 77.9401 395.784 78.1562 394.711 78.1562C393.576 78.1562 392.69 77.9766 392.055 77.6172V76.4141C392.466 76.6224 392.906 76.7865 393.375 76.9062C393.849 77.026 394.305 77.0859 394.742 77.0859C395.419 77.0859 395.94 76.9792 396.305 76.7656C396.669 76.5469 396.852 76.2161 396.852 75.7734C396.852 75.4401 396.706 75.1562 396.414 74.9219C396.128 74.6823 395.565 74.401 394.727 74.0781C393.93 73.7812 393.362 73.5234 393.023 73.3047C392.69 73.0807 392.44 72.8281 392.273 72.5469C392.112 72.2656 392.031 71.9297 392.031 71.5391C392.031 70.8411 392.315 70.2917 392.883 69.8906C393.451 69.4844 394.229 69.2812 395.219 69.2812C396.141 69.2812 397.042 69.4688 397.922 69.8438L397.461 70.8984C396.602 70.5443 395.823 70.3672 395.125 70.3672C394.51 70.3672 394.047 70.4635 393.734 70.6562C393.422 70.849 393.266 71.1146 393.266 71.4531C393.266 71.6823 393.323 71.8776 393.438 72.0391C393.557 72.2005 393.747 72.3542 394.008 72.5C394.268 72.6458 394.768 72.8568 395.508 73.1328C396.523 73.5026 397.208 73.875 397.562 74.25C397.922 74.625 398.102 75.0964 398.102 75.6641ZM407.797 78.1562C406.557 78.1562 405.596 77.776 404.914 77.0156C404.237 76.25 403.898 75.1693 403.898 73.7734C403.898 72.3411 404.242 71.2344 404.93 70.4531C405.622 69.6719 406.607 69.2812 407.883 69.2812C408.294 69.2812 408.706 69.3255 409.117 69.4141C409.529 69.5026 409.852 69.6068 410.086 69.7266L409.688 70.8281C409.401 70.7135 409.089 70.6198 408.75 70.5469C408.411 70.4688 408.112 70.4297 407.852 70.4297C406.112 70.4297 405.242 71.5391 405.242 73.7578C405.242 74.8099 405.453 75.6172 405.875 76.1797C406.302 76.7422 406.932 77.0234 407.766 77.0234C408.479 77.0234 409.211 76.8698 409.961 76.5625V77.7109C409.388 78.0078 408.667 78.1562 407.797 78.1562ZM417.266 78L417.008 76.7812H416.945C416.518 77.3177 416.091 77.6823 415.664 77.875C415.242 78.0625 414.714 78.1562 414.078 78.1562C413.229 78.1562 412.562 77.9375 412.078 77.5C411.599 77.0625 411.359 76.4401 411.359 75.6328C411.359 73.9036 412.742 72.9974 415.508 72.9141L416.961 72.8672V72.3359C416.961 71.6641 416.815 71.1693 416.523 70.8516C416.237 70.5286 415.776 70.3672 415.141 70.3672C414.427 70.3672 413.62 70.5859 412.719 71.0234L412.32 70.0312C412.742 69.8021 413.203 69.6224 413.703 69.4922C414.208 69.362 414.714 69.2969 415.219 69.2969C416.24 69.2969 416.995 69.5234 417.484 69.9766C417.979 70.4297 418.227 71.1562 418.227 72.1562V78H417.266ZM414.336 77.0859C415.143 77.0859 415.776 76.8646 416.234 76.4219C416.698 75.9792 416.93 75.3594 416.93 74.5625V73.7891L415.633 73.8438C414.602 73.8802 413.857 74.0417 413.398 74.3281C412.945 74.6094 412.719 75.0495 412.719 75.6484C412.719 76.1172 412.859 76.474 413.141 76.7188C413.427 76.9635 413.826 77.0859 414.336 77.0859ZM424.812 69.2812C425.193 69.2812 425.534 69.3125 425.836 69.375L425.656 70.5781C425.302 70.5 424.99 70.4609 424.719 70.4609C424.026 70.4609 423.432 70.7422 422.938 71.3047C422.448 71.8672 422.203 72.5677 422.203 73.4062V78H420.906V69.4375H421.977L422.125 71.0234H422.188C422.505 70.4661 422.888 70.0365 423.336 69.7344C423.784 69.4323 424.276 69.2812 424.812 69.2812ZM432.703 78L432.445 76.7812H432.383C431.956 77.3177 431.529 77.6823 431.102 77.875C430.68 78.0625 430.151 78.1562 429.516 78.1562C428.667 78.1562 428 77.9375 427.516 77.5C427.036 77.0625 426.797 76.4401 426.797 75.6328C426.797 73.9036 428.18 72.9974 430.945 72.9141L432.398 72.8672V72.3359C432.398 71.6641 432.253 71.1693 431.961 70.8516C431.674 70.5286 431.214 70.3672 430.578 70.3672C429.865 70.3672 429.057 70.5859 428.156 71.0234L427.758 70.0312C428.18 69.8021 428.641 69.6224 429.141 69.4922C429.646 69.362 430.151 69.2969 430.656 69.2969C431.677 69.2969 432.432 69.5234 432.922 69.9766C433.417 70.4297 433.664 71.1562 433.664 72.1562V78H432.703ZM429.773 77.0859C430.581 77.0859 431.214 76.8646 431.672 76.4219C432.135 75.9792 432.367 75.3594 432.367 74.5625V73.7891L431.07 73.8438C430.039 73.8802 429.294 74.0417 428.836 74.3281C428.383 74.6094 428.156 75.0495 428.156 75.6484C428.156 76.1172 428.297 76.474 428.578 76.7188C428.865 76.9635 429.263 77.0859 429.773 77.0859ZM436.156 77.1719C436.156 76.8229 436.234 76.5599 436.391 76.3828C436.552 76.2005 436.781 76.1094 437.078 76.1094C437.38 76.1094 437.615 76.2005 437.781 76.3828C437.953 76.5599 438.039 76.8229 438.039 77.1719C438.039 77.5104 437.953 77.7708 437.781 77.9531C437.609 78.1354 437.375 78.2266 437.078 78.2266C436.812 78.2266 436.591 78.1458 436.414 77.9844C436.242 77.8177 436.156 77.5469 436.156 77.1719ZM440.422 77.1719C440.422 76.8229 440.5 76.5599 440.656 76.3828C440.818 76.2005 441.047 76.1094 441.344 76.1094C441.646 76.1094 441.88 76.2005 442.047 76.3828C442.219 76.5599 442.305 76.8229 442.305 77.1719C442.305 77.5104 442.219 77.7708 442.047 77.9531C441.875 78.1354 441.641 78.2266 441.344 78.2266C441.078 78.2266 440.857 78.1458 440.68 77.9844C440.508 77.8177 440.422 77.5469 440.422 77.1719ZM444.688 77.1719C444.688 76.8229 444.766 76.5599 444.922 76.3828C445.083 76.2005 445.312 76.1094 445.609 76.1094C445.911 76.1094 446.146 76.2005 446.312 76.3828C446.484 76.5599 446.57 76.8229 446.57 77.1719C446.57 77.5104 446.484 77.7708 446.312 77.9531C446.141 78.1354 445.906 78.2266 445.609 78.2266C445.344 78.2266 445.122 78.1458 444.945 77.9844C444.773 77.8177 444.688 77.5469 444.688 77.1719Z" fill="#007BC7"/>
<path d="M169 79.6016H447.758V80.3984H169V79.6016Z" fill="#007BC7"/>
<defs>
<clipPath id="clip0_177_531">
<rect width="24" height="24" fill="white" transform="translate(141 60)"/>
</clipPath>
</defs>
</svg>
