<svg width="204" height="44" viewBox="0 0 204 44" fill="none" xmlns="http://www.w3.org/2000/svg">
<rect x="1" y="1" width="202" height="42" rx="9" fill="white"/>
<path d="M20.21 28.126C19.982 28.126 19.796 28.072 19.652 27.964C19.508 27.856 19.394 27.694 19.31 27.478L14.36 16.156C14.276 15.952 14.252 15.784 14.288 15.652C14.324 15.508 14.402 15.394 14.522 15.31C14.654 15.226 14.804 15.184 14.972 15.184C15.2 15.184 15.368 15.238 15.476 15.346C15.596 15.442 15.692 15.586 15.764 15.778L20.516 26.812H19.94L24.674 15.76C24.758 15.58 24.86 15.442 24.98 15.346C25.1 15.238 25.268 15.184 25.484 15.184C25.652 15.184 25.79 15.226 25.898 15.31C26.018 15.394 26.09 15.508 26.114 15.652C26.15 15.796 26.126 15.964 26.042 16.156L21.092 27.478C21.008 27.694 20.894 27.856 20.75 27.964C20.618 28.072 20.438 28.126 20.21 28.126ZM28.92 28.09C28.68 28.09 28.5 28.024 28.38 27.892C28.26 27.748 28.2 27.55 28.2 27.298V19.936C28.2 19.684 28.26 19.492 28.38 19.36C28.5 19.228 28.68 19.162 28.92 19.162C29.148 19.162 29.328 19.228 29.46 19.36C29.592 19.492 29.658 19.684 29.658 19.936V27.298C29.658 27.55 29.592 27.748 29.46 27.892C29.34 28.024 29.16 28.09 28.92 28.09ZM28.92 17.146C28.62 17.146 28.386 17.068 28.218 16.912C28.05 16.744 27.966 16.522 27.966 16.246C27.966 15.958 28.05 15.742 28.218 15.598C28.386 15.442 28.62 15.364 28.92 15.364C29.232 15.364 29.466 15.442 29.622 15.598C29.79 15.742 29.874 15.958 29.874 16.246C29.874 16.522 29.79 16.744 29.622 16.912C29.466 17.068 29.232 17.146 28.92 17.146ZM33.1216 28.126C32.8816 28.126 32.6956 28.06 32.5636 27.928C32.4436 27.796 32.3836 27.61 32.3836 27.37V19.864C32.3836 19.624 32.4436 19.444 32.5636 19.324C32.6836 19.192 32.8576 19.126 33.0856 19.126C33.3136 19.126 33.4876 19.192 33.6076 19.324C33.7396 19.444 33.8056 19.624 33.8056 19.864V21.322H33.6256C33.8176 20.614 34.1836 20.068 34.7236 19.684C35.2636 19.3 35.9296 19.096 36.7216 19.072C36.9016 19.06 37.0456 19.102 37.1536 19.198C37.2616 19.282 37.3216 19.432 37.3336 19.648C37.3456 19.852 37.2976 20.014 37.1896 20.134C37.0816 20.254 36.9136 20.326 36.6856 20.35L36.3976 20.386C35.5816 20.458 34.9516 20.722 34.5076 21.178C34.0756 21.622 33.8596 22.234 33.8596 23.014V27.37C33.8596 27.61 33.7936 27.796 33.6616 27.928C33.5416 28.06 33.3616 28.126 33.1216 28.126ZM42.8194 28.162C42.1354 28.162 41.5594 28.042 41.0914 27.802C40.6354 27.55 40.2934 27.19 40.0654 26.722C39.8374 26.242 39.7234 25.66 39.7234 24.976V20.386H38.5174C38.3134 20.386 38.1574 20.338 38.0494 20.242C37.9414 20.134 37.8874 19.99 37.8874 19.81C37.8874 19.63 37.9414 19.492 38.0494 19.396C38.1574 19.3 38.3134 19.252 38.5174 19.252H39.7234V17.182C39.7234 16.942 39.7894 16.762 39.9214 16.642C40.0534 16.51 40.2334 16.444 40.4614 16.444C40.6894 16.444 40.8634 16.51 40.9834 16.642C41.1154 16.762 41.1814 16.942 41.1814 17.182V19.252H43.4494C43.6534 19.252 43.8094 19.3 43.9174 19.396C44.0254 19.492 44.0794 19.63 44.0794 19.81C44.0794 19.99 44.0254 20.134 43.9174 20.242C43.8094 20.338 43.6534 20.386 43.4494 20.386H41.1814V24.832C41.1814 25.516 41.3254 26.038 41.6134 26.398C41.9014 26.746 42.3694 26.92 43.0174 26.92C43.2454 26.92 43.4374 26.896 43.5934 26.848C43.7614 26.8 43.8994 26.776 44.0074 26.776C44.1154 26.764 44.2054 26.8 44.2774 26.884C44.3494 26.968 44.3854 27.112 44.3854 27.316C44.3854 27.46 44.3554 27.592 44.2954 27.712C44.2474 27.832 44.1574 27.916 44.0254 27.964C43.8814 28.012 43.6894 28.054 43.4494 28.09C43.2214 28.138 43.0114 28.162 42.8194 28.162ZM48.6984 28.162C47.9904 28.162 47.4024 28.036 46.9344 27.784C46.4784 27.52 46.1304 27.13 45.8904 26.614C45.6624 26.098 45.5484 25.456 45.5484 24.688V19.864C45.5484 19.612 45.6084 19.426 45.7284 19.306C45.8604 19.186 46.0404 19.126 46.2684 19.126C46.5084 19.126 46.6884 19.186 46.8084 19.306C46.9404 19.426 47.0064 19.612 47.0064 19.864V24.67C47.0064 25.438 47.1624 26.014 47.4744 26.398C47.7984 26.77 48.3024 26.956 48.9864 26.956C49.7304 26.956 50.3364 26.704 50.8044 26.2C51.2724 25.696 51.5064 25.036 51.5064 24.22V19.864C51.5064 19.612 51.5664 19.426 51.6864 19.306C51.8184 19.186 52.0044 19.126 52.2444 19.126C52.4724 19.126 52.6464 19.186 52.7664 19.306C52.8984 19.426 52.9644 19.612 52.9644 19.864V27.37C52.9644 27.874 52.7304 28.126 52.2624 28.126C52.0344 28.126 51.8544 28.06 51.7224 27.928C51.6024 27.796 51.5424 27.61 51.5424 27.37V25.732L51.7764 25.984C51.5364 26.692 51.1404 27.232 50.5884 27.604C50.0484 27.976 49.4184 28.162 48.6984 28.162ZM58.4462 28.162C57.8462 28.162 57.3062 28.048 56.8262 27.82C56.3582 27.58 55.9862 27.256 55.7102 26.848C55.4342 26.44 55.2962 25.984 55.2962 25.48C55.2962 24.832 55.4582 24.322 55.7822 23.95C56.1182 23.578 56.6642 23.314 57.4202 23.158C58.1882 23.002 59.2322 22.924 60.5522 22.924H61.3622V23.878H60.5702C59.5982 23.878 58.8302 23.926 58.2662 24.022C57.7142 24.106 57.3242 24.256 57.0962 24.472C56.8802 24.688 56.7722 24.994 56.7722 25.39C56.7722 25.882 56.9402 26.284 57.2762 26.596C57.6242 26.908 58.0922 27.064 58.6802 27.064C59.1602 27.064 59.5802 26.95 59.9402 26.722C60.3122 26.494 60.6002 26.182 60.8042 25.786C61.0202 25.39 61.1282 24.934 61.1282 24.418V22.366C61.1282 21.622 60.9782 21.088 60.6782 20.764C60.3782 20.428 59.8862 20.26 59.2022 20.26C58.7822 20.26 58.3622 20.314 57.9422 20.422C57.5222 20.53 57.0782 20.704 56.6102 20.944C56.4422 21.028 56.2982 21.058 56.1782 21.034C56.0582 20.998 55.9622 20.932 55.8902 20.836C55.8182 20.74 55.7762 20.632 55.7642 20.512C55.7522 20.38 55.7762 20.254 55.8362 20.134C55.9082 20.014 56.0162 19.918 56.1602 19.846C56.6882 19.582 57.2102 19.39 57.7262 19.27C58.2422 19.15 58.7342 19.09 59.2022 19.09C59.9582 19.09 60.5822 19.216 61.0742 19.468C61.5662 19.708 61.9322 20.08 62.1722 20.584C62.4122 21.076 62.5322 21.712 62.5322 22.492V27.37C62.5322 27.61 62.4722 27.796 62.3522 27.928C62.2442 28.06 62.0822 28.126 61.8662 28.126C61.6382 28.126 61.4642 28.06 61.3442 27.928C61.2242 27.796 61.1642 27.61 61.1642 27.37V25.966H61.3262C61.2302 26.422 61.0442 26.812 60.7682 27.136C60.5042 27.46 60.1742 27.712 59.7782 27.892C59.3822 28.072 58.9382 28.162 58.4462 28.162ZM67.9011 28.162C67.0371 28.162 66.3771 27.898 65.9211 27.37C65.4651 26.842 65.2371 26.086 65.2371 25.102V15.922C65.2371 15.682 65.2971 15.502 65.4171 15.382C65.5371 15.25 65.7171 15.184 65.9571 15.184C66.1851 15.184 66.3651 15.25 66.4971 15.382C66.6291 15.502 66.6951 15.682 66.6951 15.922V24.994C66.6951 25.642 66.8211 26.128 67.0731 26.452C67.3371 26.764 67.7211 26.92 68.2251 26.92C68.3331 26.92 68.4291 26.914 68.5131 26.902C68.5971 26.89 68.6811 26.884 68.7651 26.884C68.8971 26.872 68.9871 26.902 69.0351 26.974C69.0951 27.046 69.1251 27.19 69.1251 27.406C69.1251 27.622 69.0771 27.784 68.9811 27.892C68.8851 28 68.7291 28.072 68.5131 28.108C68.4171 28.12 68.3151 28.132 68.2071 28.144C68.0991 28.156 67.9971 28.162 67.9011 28.162Z" fill="#38485C"/>
<g clip-path="url(#clip0_3847_9388)">
<path d="M174.12 19.2901L178 23.1701L181.88 19.2901C182.27 18.9001 182.9 18.9001 183.29 19.2901C183.68 19.6801 183.68 20.3101 183.29 20.7001L178.7 25.2901C178.31 25.6801 177.68 25.6801 177.29 25.2901L172.7 20.7001C172.31 20.3101 172.31 19.6801 172.7 19.2901C173.09 18.9101 173.73 18.9001 174.12 19.2901Z" fill="#38485C"/>
</g>
<rect x="1" y="1" width="202" height="42" rx="9" stroke="#E6EBF0" stroke-width="2"/>
<defs>
<clipPath id="clip0_3847_9388">
<rect width="24" height="24" fill="white" transform="translate(166 10)"/>
</clipPath>
</defs>
</svg>
