<svg xmlns="http://www.w3.org/2000/svg" width="712" height="192" viewBox="0 0 712 192">
  <g id="Grupo_32424" data-name="Grupo 32424" transform="translate(-513 -1305)">
    <g id="Rectángulo_26393" data-name="Rectángulo 26393" transform="translate(513 1305)" fill="#fff" stroke="#38485c" stroke-width="2">
      <rect width="712" height="192" rx="8" stroke="none"/>
      <rect x="1" y="1" width="710" height="190" rx="7" fill="none"/>
    </g>
    <g id="Grupo_32212" data-name="Grupo 32212" transform="translate(404 1062)">
      <g id="Desplegable_-_Borde_-_L" data-name="Desplegable - Borde - L" transform="translate(621 315)">
        <g id="Rectángulo_26341" data-name="Rectángulo 26341" fill="#fff" stroke="#e6ebf0" stroke-width="2">
          <rect width="152" height="48" rx="8" stroke="none"/>
          <rect x="-1" y="-1" width="154" height="50" rx="9" fill="none"/>
        </g>
        <g id="Grupo_32051" data-name="Grupo 32051" transform="translate(-513 -310)">
          <g id="chevron_right" transform="translate(653 322) rotate(90)">
            <rect id="Rectángulo_32" data-name="Rectángulo 32" width="24" height="24" fill="none"/>
            <path id="Trazado_13167" data-name="Trazado 13167" d="M9,102.711a1,1,0,0,0,0,1.41L12.88,108,9,111.881a1,1,0,0,0,1.41,1.41L15,108.7a1,1,0,0,0,0-1.41l-4.59-4.59A1,1,0,0,0,9,102.711Z" transform="translate(0 -96)" fill="#38485c"/>
          </g>
          <text id="Desplegable" transform="translate(525 340)" fill="#38485c" font-size="18" font-family="Nunito-Regular, Nunito"><tspan x="0" y="0">Desplegable</tspan></text>
        </g>
      </g>
      <g id="Desplegable_-_Borde_-_L-2" data-name="Desplegable - Borde - L" transform="translate(461 315)">
        <g id="Rectángulo_26341-2" data-name="Rectángulo 26341" fill="#fff" stroke="#e6ebf0" stroke-width="2">
          <rect width="152" height="48" rx="8" stroke="none"/>
          <rect x="-1" y="-1" width="154" height="50" rx="9" fill="none"/>
        </g>
        <g id="Grupo_32051-2" data-name="Grupo 32051" transform="translate(-513 -310)">
          <g id="chevron_right-2" data-name="chevron_right" transform="translate(653 322) rotate(90)">
            <rect id="Rectángulo_32-2" data-name="Rectángulo 32" width="24" height="24" fill="none"/>
            <path id="Trazado_13167-2" data-name="Trazado 13167" d="M9,102.711a1,1,0,0,0,0,1.41L12.88,108,9,111.881a1,1,0,0,0,1.41,1.41L15,108.7a1,1,0,0,0,0-1.41l-4.59-4.59A1,1,0,0,0,9,102.711Z" transform="translate(0 -96)" fill="#38485c"/>
          </g>
          <text id="Desplegable-2" data-name="Desplegable" transform="translate(525 340)" fill="#38485c" font-size="18" font-family="Nunito-Regular, Nunito"><tspan x="0" y="0">Desplegable</tspan></text>
        </g>
      </g>
      <g id="Desplegable_-_Borde_-_L-3" data-name="Desplegable - Borde - L" transform="translate(301 315)">
        <g id="Rectángulo_26341-3" data-name="Rectángulo 26341" fill="#fff" stroke="#e6ebf0" stroke-width="2">
          <rect width="152" height="48" rx="8" stroke="none"/>
          <rect x="-1" y="-1" width="154" height="50" rx="9" fill="none"/>
        </g>
        <g id="Grupo_32051-3" data-name="Grupo 32051" transform="translate(-513 -310)">
          <g id="chevron_right-3" data-name="chevron_right" transform="translate(653 322) rotate(90)">
            <rect id="Rectángulo_32-3" data-name="Rectángulo 32" width="24" height="24" fill="none"/>
            <path id="Trazado_13167-3" data-name="Trazado 13167" d="M9,102.711a1,1,0,0,0,0,1.41L12.88,108,9,111.881a1,1,0,0,0,1.41,1.41L15,108.7a1,1,0,0,0,0-1.41l-4.59-4.59A1,1,0,0,0,9,102.711Z" transform="translate(0 -96)" fill="#38485c"/>
          </g>
          <text id="Desplegable-3" data-name="Desplegable" transform="translate(525 340)" fill="#38485c" font-size="18" font-family="Nunito-Regular, Nunito"><tspan x="0" y="0">Desplegable</tspan></text>
        </g>
      </g>
      <g id="Desplegable_-_Borde_-_L-4" data-name="Desplegable - Borde - L" transform="translate(141 315)">
        <g id="Rectángulo_26341-4" data-name="Rectángulo 26341" fill="#fff" stroke="#e6ebf0" stroke-width="2">
          <rect width="152" height="48" rx="8" stroke="none"/>
          <rect x="-1" y="-1" width="154" height="50" rx="9" fill="none"/>
        </g>
        <g id="Grupo_32051-4" data-name="Grupo 32051" transform="translate(-513 -310)">
          <g id="chevron_right-4" data-name="chevron_right" transform="translate(653 322) rotate(90)">
            <rect id="Rectángulo_32-4" data-name="Rectángulo 32" width="24" height="24" fill="none"/>
            <path id="Trazado_13167-4" data-name="Trazado 13167" d="M9,102.711a1,1,0,0,0,0,1.41L12.88,108,9,111.881a1,1,0,0,0,1.41,1.41L15,108.7a1,1,0,0,0,0-1.41l-4.59-4.59A1,1,0,0,0,9,102.711Z" transform="translate(0 -96)" fill="#38485c"/>
          </g>
          <text id="Desplegable-4" data-name="Desplegable" transform="translate(525 340)" fill="#38485c" font-size="18" font-family="Nunito-Regular, Nunito"><tspan x="0" y="0">Desplegable</tspan></text>
        </g>
      </g>
    </g>
  </g>
</svg>
