<svg width="344" height="114" viewBox="0 0 344 114" fill="none" xmlns="http://www.w3.org/2000/svg">
<rect x="1" y="32" width="342" height="50" rx="9" fill="white"/>
<path d="M21.056 63.162C19.808 63.162 18.74 62.898 17.852 62.37C16.964 61.842 16.28 61.092 15.8 60.12C15.332 59.148 15.098 57.99 15.098 56.646C15.098 55.638 15.23 54.738 15.494 53.946C15.77 53.142 16.16 52.464 16.664 51.912C17.18 51.348 17.81 50.916 18.554 50.616C19.298 50.304 20.132 50.148 21.056 50.148C21.8 50.148 22.508 50.256 23.18 50.472C23.852 50.676 24.434 50.982 24.926 51.39C25.082 51.51 25.184 51.648 25.232 51.804C25.292 51.948 25.298 52.092 25.25 52.236C25.214 52.368 25.142 52.482 25.034 52.578C24.938 52.662 24.818 52.704 24.674 52.704C24.53 52.704 24.368 52.644 24.188 52.524C23.756 52.176 23.282 51.918 22.766 51.75C22.25 51.582 21.692 51.498 21.092 51.498C20.144 51.498 19.34 51.702 18.68 52.11C18.02 52.506 17.522 53.088 17.186 53.856C16.85 54.624 16.682 55.554 16.682 56.646C16.682 57.738 16.85 58.674 17.186 59.454C17.522 60.222 18.02 60.81 18.68 61.218C19.34 61.614 20.144 61.812 21.092 61.812C21.68 61.812 22.238 61.728 22.766 61.56C23.294 61.38 23.78 61.116 24.224 60.768C24.404 60.648 24.566 60.594 24.71 60.606C24.854 60.606 24.974 60.648 25.07 60.732C25.166 60.816 25.232 60.924 25.268 61.056C25.316 61.188 25.316 61.326 25.268 61.47C25.232 61.614 25.142 61.74 24.998 61.848C24.494 62.28 23.9 62.61 23.216 62.838C22.544 63.054 21.824 63.162 21.056 63.162ZM30.4825 63.162C29.6305 63.162 28.8925 62.976 28.2685 62.604C27.6445 62.232 27.1585 61.71 26.8105 61.038C26.4745 60.354 26.3065 59.55 26.3065 58.626C26.3065 57.93 26.4025 57.306 26.5945 56.754C26.7865 56.19 27.0685 55.71 27.4405 55.314C27.8125 54.918 28.2505 54.618 28.7545 54.414C29.2705 54.198 29.8465 54.09 30.4825 54.09C31.3345 54.09 32.0725 54.276 32.6965 54.648C33.3205 55.02 33.8005 55.548 34.1365 56.232C34.4845 56.904 34.6585 57.702 34.6585 58.626C34.6585 59.322 34.5625 59.946 34.3705 60.498C34.1785 61.05 33.8965 61.53 33.5245 61.938C33.1525 62.334 32.7085 62.64 32.1925 62.856C31.6885 63.06 31.1185 63.162 30.4825 63.162ZM30.4825 61.992C31.0225 61.992 31.4965 61.86 31.9045 61.596C32.3125 61.332 32.6245 60.948 32.8405 60.444C33.0685 59.94 33.1825 59.334 33.1825 58.626C33.1825 57.534 32.9365 56.7 32.4445 56.124C31.9645 55.548 31.3105 55.26 30.4825 55.26C29.9305 55.26 29.4505 55.392 29.0425 55.656C28.6465 55.908 28.3345 56.286 28.1065 56.79C27.8905 57.282 27.7825 57.894 27.7825 58.626C27.7825 59.706 28.0285 60.54 28.5205 61.128C29.0125 61.704 29.6665 61.992 30.4825 61.992ZM37.5685 63.126C37.3285 63.126 37.1485 63.06 37.0285 62.928C36.9085 62.796 36.8485 62.61 36.8485 62.37V54.864C36.8485 54.624 36.9085 54.444 37.0285 54.324C37.1485 54.192 37.3225 54.126 37.5505 54.126C37.7785 54.126 37.9525 54.192 38.0725 54.324C38.2045 54.444 38.2705 54.624 38.2705 54.864V56.412L38.0725 56.196C38.3245 55.5 38.7325 54.978 39.2965 54.63C39.8725 54.27 40.5325 54.09 41.2765 54.09C41.9725 54.09 42.5485 54.216 43.0045 54.468C43.4725 54.72 43.8205 55.104 44.0485 55.62C44.2765 56.124 44.3905 56.766 44.3905 57.546V62.37C44.3905 62.61 44.3245 62.796 44.1925 62.928C44.0725 63.06 43.8985 63.126 43.6705 63.126C43.4305 63.126 43.2445 63.06 43.1125 62.928C42.9925 62.796 42.9325 62.61 42.9325 62.37V57.636C42.9325 56.82 42.7705 56.226 42.4465 55.854C42.1345 55.47 41.6305 55.278 40.9345 55.278C40.1305 55.278 39.4885 55.53 39.0085 56.034C38.5405 56.526 38.3065 57.186 38.3065 58.014V62.37C38.3065 62.874 38.0605 63.126 37.5685 63.126ZM50.5889 63.162C49.9049 63.162 49.3289 63.042 48.8609 62.802C48.4049 62.55 48.0629 62.19 47.8349 61.722C47.6069 61.242 47.4929 60.66 47.4929 59.976V55.386H46.2869C46.0829 55.386 45.9269 55.338 45.8189 55.242C45.7109 55.134 45.6569 54.99 45.6569 54.81C45.6569 54.63 45.7109 54.492 45.8189 54.396C45.9269 54.3 46.0829 54.252 46.2869 54.252H47.4929V52.182C47.4929 51.942 47.5589 51.762 47.6909 51.642C47.8229 51.51 48.0029 51.444 48.2309 51.444C48.4589 51.444 48.6329 51.51 48.7529 51.642C48.8849 51.762 48.9509 51.942 48.9509 52.182V54.252H51.2189C51.4229 54.252 51.5789 54.3 51.6869 54.396C51.7949 54.492 51.8489 54.63 51.8489 54.81C51.8489 54.99 51.7949 55.134 51.6869 55.242C51.5789 55.338 51.4229 55.386 51.2189 55.386H48.9509V59.832C48.9509 60.516 49.0949 61.038 49.3829 61.398C49.6709 61.746 50.1389 61.92 50.7869 61.92C51.0149 61.92 51.2069 61.896 51.3629 61.848C51.5309 61.8 51.6689 61.776 51.7769 61.776C51.8849 61.764 51.9749 61.8 52.0469 61.884C52.1189 61.968 52.1549 62.112 52.1549 62.316C52.1549 62.46 52.1249 62.592 52.0649 62.712C52.0169 62.832 51.9269 62.916 51.7949 62.964C51.6509 63.012 51.4589 63.054 51.2189 63.09C50.9909 63.138 50.7809 63.162 50.5889 63.162ZM57.226 63.162C56.302 63.162 55.504 62.982 54.832 62.622C54.172 62.25 53.656 61.728 53.284 61.056C52.924 60.384 52.744 59.58 52.744 58.644C52.744 57.732 52.924 56.94 53.284 56.268C53.644 55.584 54.136 55.05 54.76 54.666C55.396 54.282 56.128 54.09 56.956 54.09C57.544 54.09 58.072 54.192 58.54 54.396C59.008 54.588 59.404 54.87 59.728 55.242C60.064 55.614 60.316 56.064 60.484 56.592C60.664 57.12 60.754 57.714 60.754 58.374C60.754 58.566 60.7 58.71 60.592 58.806C60.484 58.89 60.328 58.932 60.124 58.932H53.86V57.978H59.782L59.494 58.212C59.494 57.564 59.398 57.018 59.206 56.574C59.014 56.118 58.732 55.77 58.36 55.53C58 55.29 57.544 55.17 56.992 55.17C56.38 55.17 55.858 55.314 55.426 55.602C55.006 55.878 54.688 56.268 54.472 56.772C54.256 57.264 54.148 57.84 54.148 58.5V58.608C54.148 59.712 54.412 60.552 54.94 61.128C55.48 61.704 56.242 61.992 57.226 61.992C57.634 61.992 58.036 61.938 58.432 61.83C58.84 61.722 59.236 61.542 59.62 61.29C59.788 61.182 59.938 61.134 60.07 61.146C60.214 61.146 60.328 61.188 60.412 61.272C60.496 61.344 60.55 61.44 60.574 61.56C60.61 61.668 60.598 61.788 60.538 61.92C60.49 62.052 60.388 62.166 60.232 62.262C59.836 62.55 59.368 62.772 58.828 62.928C58.288 63.084 57.754 63.162 57.226 63.162ZM63.5841 63.126C63.3441 63.126 63.1641 63.06 63.0441 62.928C62.9241 62.796 62.8641 62.61 62.8641 62.37V54.864C62.8641 54.624 62.9241 54.444 63.0441 54.324C63.1641 54.192 63.3381 54.126 63.5661 54.126C63.7941 54.126 63.9681 54.192 64.0881 54.324C64.2201 54.444 64.2861 54.624 64.2861 54.864V56.412L64.0881 56.196C64.3401 55.5 64.7481 54.978 65.3121 54.63C65.8881 54.27 66.5481 54.09 67.2921 54.09C67.9881 54.09 68.5641 54.216 69.0201 54.468C69.4881 54.72 69.8361 55.104 70.0641 55.62C70.2921 56.124 70.4061 56.766 70.4061 57.546V62.37C70.4061 62.61 70.3401 62.796 70.2081 62.928C70.0881 63.06 69.9141 63.126 69.6861 63.126C69.4461 63.126 69.2601 63.06 69.1281 62.928C69.0081 62.796 68.9481 62.61 68.9481 62.37V57.636C68.9481 56.82 68.7861 56.226 68.4621 55.854C68.1501 55.47 67.6461 55.278 66.9501 55.278C66.1461 55.278 65.5041 55.53 65.0241 56.034C64.5561 56.526 64.3221 57.186 64.3221 58.014V62.37C64.3221 62.874 64.0761 63.126 63.5841 63.126ZM73.8146 63.09C73.5746 63.09 73.3946 63.024 73.2746 62.892C73.1546 62.748 73.0946 62.55 73.0946 62.298V54.936C73.0946 54.684 73.1546 54.492 73.2746 54.36C73.3946 54.228 73.5746 54.162 73.8146 54.162C74.0426 54.162 74.2226 54.228 74.3546 54.36C74.4866 54.492 74.5526 54.684 74.5526 54.936V62.298C74.5526 62.55 74.4866 62.748 74.3546 62.892C74.2346 63.024 74.0546 63.09 73.8146 63.09ZM73.8146 52.146C73.5146 52.146 73.2806 52.068 73.1126 51.912C72.9446 51.744 72.8606 51.522 72.8606 51.246C72.8606 50.958 72.9446 50.742 73.1126 50.598C73.2806 50.442 73.5146 50.364 73.8146 50.364C74.1266 50.364 74.3606 50.442 74.5166 50.598C74.6846 50.742 74.7686 50.958 74.7686 51.246C74.7686 51.522 74.6846 51.744 74.5166 51.912C74.3606 52.068 74.1266 52.146 73.8146 52.146ZM80.6082 63.162C79.8282 63.162 79.1442 62.976 78.5562 62.604C77.9802 62.232 77.5302 61.71 77.2062 61.038C76.8942 60.354 76.7382 59.55 76.7382 58.626C76.7382 57.69 76.8942 56.886 77.2062 56.214C77.5302 55.53 77.9802 55.008 78.5562 54.648C79.1442 54.276 79.8282 54.09 80.6082 54.09C81.4002 54.09 82.0782 54.288 82.6422 54.684C83.2062 55.08 83.5842 55.614 83.7762 56.286H83.5782V50.922C83.5782 50.682 83.6382 50.502 83.7582 50.382C83.8902 50.25 84.0762 50.184 84.3162 50.184C84.5442 50.184 84.7182 50.25 84.8382 50.382C84.9702 50.502 85.0362 50.682 85.0362 50.922V62.37C85.0362 62.61 84.9762 62.796 84.8562 62.928C84.7362 63.06 84.5562 63.126 84.3162 63.126C84.0882 63.126 83.9082 63.06 83.7762 62.928C83.6562 62.796 83.5962 62.61 83.5962 62.37V60.66L83.7942 60.912C83.6022 61.596 83.2182 62.142 82.6422 62.55C82.0782 62.958 81.4002 63.162 80.6082 63.162ZM80.9142 61.992C81.4542 61.992 81.9282 61.86 82.3362 61.596C82.7442 61.332 83.0562 60.948 83.2722 60.444C83.5002 59.94 83.6142 59.334 83.6142 58.626C83.6142 57.534 83.3682 56.7 82.8762 56.124C82.3962 55.548 81.7422 55.26 80.9142 55.26C80.3622 55.26 79.8822 55.392 79.4742 55.656C79.0782 55.908 78.7662 56.286 78.5382 56.79C78.3222 57.282 78.2142 57.894 78.2142 58.626C78.2142 59.706 78.4602 60.54 78.9522 61.128C79.4442 61.704 80.0982 61.992 80.9142 61.992ZM91.4083 63.162C90.5563 63.162 89.8183 62.976 89.1943 62.604C88.5703 62.232 88.0843 61.71 87.7363 61.038C87.4003 60.354 87.2323 59.55 87.2323 58.626C87.2323 57.93 87.3283 57.306 87.5203 56.754C87.7123 56.19 87.9943 55.71 88.3663 55.314C88.7383 54.918 89.1763 54.618 89.6803 54.414C90.1963 54.198 90.7723 54.09 91.4083 54.09C92.2603 54.09 92.9983 54.276 93.6223 54.648C94.2463 55.02 94.7263 55.548 95.0623 56.232C95.4103 56.904 95.5843 57.702 95.5843 58.626C95.5843 59.322 95.4883 59.946 95.2963 60.498C95.1043 61.05 94.8223 61.53 94.4503 61.938C94.0783 62.334 93.6343 62.64 93.1183 62.856C92.6143 63.06 92.0443 63.162 91.4083 63.162ZM91.4083 61.992C91.9483 61.992 92.4223 61.86 92.8303 61.596C93.2383 61.332 93.5503 60.948 93.7663 60.444C93.9943 59.94 94.1083 59.334 94.1083 58.626C94.1083 57.534 93.8623 56.7 93.3703 56.124C92.8903 55.548 92.2363 55.26 91.4083 55.26C90.8563 55.26 90.3763 55.392 89.9683 55.656C89.5723 55.908 89.2603 56.286 89.0323 56.79C88.8163 57.282 88.7083 57.894 88.7083 58.626C88.7083 59.706 88.9543 60.54 89.4463 61.128C89.9383 61.704 90.5923 61.992 91.4083 61.992ZM106.123 63.162C105.247 63.162 104.491 62.97 103.855 62.586C103.219 62.202 102.727 61.668 102.379 60.984C102.043 60.288 101.875 59.484 101.875 58.572C101.875 57.876 101.971 57.252 102.163 56.7C102.355 56.148 102.637 55.68 103.009 55.296C103.381 54.9 103.825 54.6 104.341 54.396C104.869 54.192 105.463 54.09 106.123 54.09C106.555 54.09 107.005 54.156 107.473 54.288C107.941 54.42 108.367 54.648 108.751 54.972C108.871 55.056 108.949 55.158 108.985 55.278C109.021 55.398 109.021 55.518 108.985 55.638C108.949 55.746 108.889 55.842 108.805 55.926C108.721 55.998 108.613 56.04 108.481 56.052C108.361 56.064 108.235 56.022 108.103 55.926C107.791 55.686 107.473 55.518 107.149 55.422C106.825 55.326 106.513 55.278 106.213 55.278C105.745 55.278 105.337 55.356 104.989 55.512C104.641 55.656 104.347 55.866 104.107 56.142C103.867 56.418 103.681 56.76 103.549 57.168C103.429 57.576 103.369 58.05 103.369 58.59C103.369 59.634 103.615 60.462 104.107 61.074C104.599 61.674 105.301 61.974 106.213 61.974C106.513 61.974 106.819 61.926 107.131 61.83C107.455 61.734 107.779 61.566 108.103 61.326C108.235 61.23 108.361 61.188 108.481 61.2C108.601 61.212 108.703 61.26 108.787 61.344C108.871 61.416 108.925 61.512 108.949 61.632C108.985 61.752 108.985 61.872 108.949 61.992C108.913 62.1 108.835 62.196 108.715 62.28C108.331 62.592 107.911 62.82 107.455 62.964C106.999 63.096 106.555 63.162 106.123 63.162ZM114.207 63.162C113.355 63.162 112.617 62.976 111.993 62.604C111.369 62.232 110.883 61.71 110.535 61.038C110.199 60.354 110.031 59.55 110.031 58.626C110.031 57.93 110.127 57.306 110.319 56.754C110.511 56.19 110.793 55.71 111.165 55.314C111.537 54.918 111.975 54.618 112.479 54.414C112.995 54.198 113.571 54.09 114.207 54.09C115.059 54.09 115.797 54.276 116.421 54.648C117.045 55.02 117.525 55.548 117.861 56.232C118.209 56.904 118.383 57.702 118.383 58.626C118.383 59.322 118.287 59.946 118.095 60.498C117.903 61.05 117.621 61.53 117.249 61.938C116.877 62.334 116.433 62.64 115.917 62.856C115.413 63.06 114.843 63.162 114.207 63.162ZM114.207 61.992C114.747 61.992 115.221 61.86 115.629 61.596C116.037 61.332 116.349 60.948 116.565 60.444C116.793 59.94 116.907 59.334 116.907 58.626C116.907 57.534 116.661 56.7 116.169 56.124C115.689 55.548 115.035 55.26 114.207 55.26C113.655 55.26 113.175 55.392 112.767 55.656C112.371 55.908 112.059 56.286 111.831 56.79C111.615 57.282 111.507 57.894 111.507 58.626C111.507 59.706 111.753 60.54 112.245 61.128C112.737 61.704 113.391 61.992 114.207 61.992ZM121.293 63.126C121.053 63.126 120.873 63.06 120.753 62.928C120.633 62.796 120.573 62.61 120.573 62.37V54.864C120.573 54.624 120.633 54.444 120.753 54.324C120.873 54.192 121.047 54.126 121.275 54.126C121.503 54.126 121.677 54.192 121.797 54.324C121.929 54.444 121.995 54.624 121.995 54.864V56.412L121.797 56.196C122.049 55.5 122.457 54.978 123.021 54.63C123.597 54.27 124.257 54.09 125.001 54.09C125.697 54.09 126.273 54.216 126.729 54.468C127.197 54.72 127.545 55.104 127.773 55.62C128.001 56.124 128.115 56.766 128.115 57.546V62.37C128.115 62.61 128.049 62.796 127.917 62.928C127.797 63.06 127.623 63.126 127.395 63.126C127.155 63.126 126.969 63.06 126.837 62.928C126.717 62.796 126.657 62.61 126.657 62.37V57.636C126.657 56.82 126.495 56.226 126.171 55.854C125.859 55.47 125.355 55.278 124.659 55.278C123.855 55.278 123.213 55.53 122.733 56.034C122.265 56.526 122.031 57.186 122.031 58.014V62.37C122.031 62.874 121.785 63.126 121.293 63.126ZM138.54 63.162C137.832 63.162 137.244 63.036 136.776 62.784C136.32 62.52 135.972 62.13 135.732 61.614C135.504 61.098 135.39 60.456 135.39 59.688V54.864C135.39 54.612 135.45 54.426 135.57 54.306C135.702 54.186 135.882 54.126 136.11 54.126C136.35 54.126 136.53 54.186 136.65 54.306C136.782 54.426 136.848 54.612 136.848 54.864V59.67C136.848 60.438 137.004 61.014 137.316 61.398C137.64 61.77 138.144 61.956 138.828 61.956C139.572 61.956 140.178 61.704 140.646 61.2C141.114 60.696 141.348 60.036 141.348 59.22V54.864C141.348 54.612 141.408 54.426 141.528 54.306C141.66 54.186 141.846 54.126 142.086 54.126C142.314 54.126 142.488 54.186 142.608 54.306C142.74 54.426 142.806 54.612 142.806 54.864V62.37C142.806 62.874 142.572 63.126 142.104 63.126C141.876 63.126 141.696 63.06 141.564 62.928C141.444 62.796 141.384 62.61 141.384 62.37V60.732L141.618 60.984C141.378 61.692 140.982 62.232 140.43 62.604C139.89 62.976 139.26 63.162 138.54 63.162ZM146.254 63.126C146.014 63.126 145.834 63.06 145.714 62.928C145.594 62.796 145.534 62.61 145.534 62.37V54.864C145.534 54.624 145.594 54.444 145.714 54.324C145.834 54.192 146.008 54.126 146.236 54.126C146.464 54.126 146.638 54.192 146.758 54.324C146.89 54.444 146.956 54.624 146.956 54.864V56.412L146.758 56.196C147.01 55.5 147.418 54.978 147.982 54.63C148.558 54.27 149.218 54.09 149.962 54.09C150.658 54.09 151.234 54.216 151.69 54.468C152.158 54.72 152.506 55.104 152.734 55.62C152.962 56.124 153.076 56.766 153.076 57.546V62.37C153.076 62.61 153.01 62.796 152.878 62.928C152.758 63.06 152.584 63.126 152.356 63.126C152.116 63.126 151.93 63.06 151.798 62.928C151.678 62.796 151.618 62.61 151.618 62.37V57.636C151.618 56.82 151.456 56.226 151.132 55.854C150.82 55.47 150.316 55.278 149.62 55.278C148.816 55.278 148.174 55.53 147.694 56.034C147.226 56.526 146.992 57.186 146.992 58.014V62.37C146.992 62.874 146.746 63.126 146.254 63.126ZM158.518 63.162C157.918 63.162 157.378 63.048 156.898 62.82C156.43 62.58 156.058 62.256 155.782 61.848C155.506 61.44 155.368 60.984 155.368 60.48C155.368 59.832 155.53 59.322 155.854 58.95C156.19 58.578 156.736 58.314 157.492 58.158C158.26 58.002 159.304 57.924 160.624 57.924H161.434V58.878H160.642C159.67 58.878 158.902 58.926 158.338 59.022C157.786 59.106 157.396 59.256 157.168 59.472C156.952 59.688 156.844 59.994 156.844 60.39C156.844 60.882 157.012 61.284 157.348 61.596C157.696 61.908 158.164 62.064 158.752 62.064C159.232 62.064 159.652 61.95 160.012 61.722C160.384 61.494 160.672 61.182 160.876 60.786C161.092 60.39 161.2 59.934 161.2 59.418V57.366C161.2 56.622 161.05 56.088 160.75 55.764C160.45 55.428 159.958 55.26 159.274 55.26C158.854 55.26 158.434 55.314 158.014 55.422C157.594 55.53 157.15 55.704 156.682 55.944C156.514 56.028 156.37 56.058 156.25 56.034C156.13 55.998 156.034 55.932 155.962 55.836C155.89 55.74 155.848 55.632 155.836 55.512C155.824 55.38 155.848 55.254 155.908 55.134C155.98 55.014 156.088 54.918 156.232 54.846C156.76 54.582 157.282 54.39 157.798 54.27C158.314 54.15 158.806 54.09 159.274 54.09C160.03 54.09 160.654 54.216 161.146 54.468C161.638 54.708 162.004 55.08 162.244 55.584C162.484 56.076 162.604 56.712 162.604 57.492V62.37C162.604 62.61 162.544 62.796 162.424 62.928C162.316 63.06 162.154 63.126 161.938 63.126C161.71 63.126 161.536 63.06 161.416 62.928C161.296 62.796 161.236 62.61 161.236 62.37V60.966H161.398C161.302 61.422 161.116 61.812 160.84 62.136C160.576 62.46 160.246 62.712 159.85 62.892C159.454 63.072 159.01 63.162 158.518 63.162ZM172.614 63.162C171.75 63.162 171.09 62.898 170.634 62.37C170.178 61.842 169.95 61.086 169.95 60.102V50.922C169.95 50.682 170.01 50.502 170.13 50.382C170.25 50.25 170.43 50.184 170.67 50.184C170.898 50.184 171.078 50.25 171.21 50.382C171.342 50.502 171.408 50.682 171.408 50.922V59.994C171.408 60.642 171.534 61.128 171.786 61.452C172.05 61.764 172.434 61.92 172.938 61.92C173.046 61.92 173.142 61.914 173.226 61.902C173.31 61.89 173.394 61.884 173.478 61.884C173.61 61.872 173.7 61.902 173.748 61.974C173.808 62.046 173.838 62.19 173.838 62.406C173.838 62.622 173.79 62.784 173.694 62.892C173.598 63 173.442 63.072 173.226 63.108C173.13 63.12 173.028 63.132 172.92 63.144C172.812 63.156 172.71 63.162 172.614 63.162ZM178.824 63.162C177.972 63.162 177.234 62.976 176.61 62.604C175.986 62.232 175.5 61.71 175.152 61.038C174.816 60.354 174.648 59.55 174.648 58.626C174.648 57.93 174.744 57.306 174.936 56.754C175.128 56.19 175.41 55.71 175.782 55.314C176.154 54.918 176.592 54.618 177.096 54.414C177.612 54.198 178.188 54.09 178.824 54.09C179.676 54.09 180.414 54.276 181.038 54.648C181.662 55.02 182.142 55.548 182.478 56.232C182.826 56.904 183 57.702 183 58.626C183 59.322 182.904 59.946 182.712 60.498C182.52 61.05 182.238 61.53 181.866 61.938C181.494 62.334 181.05 62.64 180.534 62.856C180.03 63.06 179.46 63.162 178.824 63.162ZM178.824 61.992C179.364 61.992 179.838 61.86 180.246 61.596C180.654 61.332 180.966 60.948 181.182 60.444C181.41 59.94 181.524 59.334 181.524 58.626C181.524 57.534 181.278 56.7 180.786 56.124C180.306 55.548 179.652 55.26 178.824 55.26C178.272 55.26 177.792 55.392 177.384 55.656C176.988 55.908 176.676 56.286 176.448 56.79C176.232 57.282 176.124 57.894 176.124 58.626C176.124 59.706 176.37 60.54 176.862 61.128C177.354 61.704 178.008 61.992 178.824 61.992ZM185.91 63.126C185.67 63.126 185.49 63.06 185.37 62.928C185.25 62.796 185.19 62.61 185.19 62.37V54.864C185.19 54.624 185.25 54.444 185.37 54.324C185.49 54.192 185.664 54.126 185.892 54.126C186.12 54.126 186.294 54.192 186.414 54.324C186.546 54.444 186.612 54.624 186.612 54.864V56.412L186.414 56.196C186.666 55.5 187.074 54.978 187.638 54.63C188.214 54.27 188.874 54.09 189.618 54.09C190.314 54.09 190.89 54.216 191.346 54.468C191.814 54.72 192.162 55.104 192.39 55.62C192.618 56.124 192.732 56.766 192.732 57.546V62.37C192.732 62.61 192.666 62.796 192.534 62.928C192.414 63.06 192.24 63.126 192.012 63.126C191.772 63.126 191.586 63.06 191.454 62.928C191.334 62.796 191.274 62.61 191.274 62.37V57.636C191.274 56.82 191.112 56.226 190.788 55.854C190.476 55.47 189.972 55.278 189.276 55.278C188.472 55.278 187.83 55.53 187.35 56.034C186.882 56.526 186.648 57.186 186.648 58.014V62.37C186.648 62.874 186.402 63.126 185.91 63.126ZM199.291 66.402C198.655 66.402 198.031 66.324 197.419 66.168C196.819 66.024 196.273 65.79 195.781 65.466C195.637 65.382 195.541 65.28 195.493 65.16C195.457 65.04 195.451 64.92 195.475 64.8C195.499 64.692 195.553 64.59 195.637 64.494C195.721 64.41 195.817 64.356 195.925 64.332C196.045 64.308 196.165 64.326 196.285 64.386C196.813 64.71 197.317 64.932 197.797 65.052C198.277 65.172 198.751 65.232 199.219 65.232C200.071 65.232 200.713 65.004 201.145 64.548C201.589 64.092 201.811 63.432 201.811 62.568V60.534H201.991C201.811 61.23 201.427 61.782 200.839 62.19C200.263 62.598 199.585 62.802 198.805 62.802C198.001 62.802 197.305 62.622 196.717 62.262C196.129 61.89 195.673 61.374 195.349 60.714C195.037 60.054 194.881 59.292 194.881 58.428C194.881 57.78 194.971 57.192 195.151 56.664C195.331 56.124 195.589 55.668 195.925 55.296C196.273 54.912 196.687 54.618 197.167 54.414C197.659 54.198 198.205 54.09 198.805 54.09C199.597 54.09 200.281 54.294 200.857 54.702C201.433 55.098 201.805 55.638 201.973 56.322L201.793 56.538V54.864C201.793 54.624 201.853 54.444 201.973 54.324C202.105 54.192 202.285 54.126 202.513 54.126C202.753 54.126 202.933 54.192 203.053 54.324C203.173 54.444 203.233 54.624 203.233 54.864V62.37C203.233 63.702 202.897 64.704 202.225 65.376C201.565 66.06 200.587 66.402 199.291 66.402ZM199.075 61.614C199.639 61.614 200.125 61.488 200.533 61.236C200.941 60.972 201.253 60.6 201.469 60.12C201.697 59.64 201.811 59.076 201.811 58.428C201.811 57.456 201.565 56.688 201.073 56.124C200.581 55.548 199.915 55.26 199.075 55.26C198.523 55.26 198.043 55.392 197.635 55.656C197.227 55.908 196.909 56.274 196.681 56.754C196.465 57.222 196.357 57.78 196.357 58.428C196.357 59.4 196.603 60.174 197.095 60.75C197.587 61.326 198.247 61.614 199.075 61.614ZM206.688 63.09C206.448 63.09 206.268 63.024 206.148 62.892C206.028 62.748 205.968 62.55 205.968 62.298V54.936C205.968 54.684 206.028 54.492 206.148 54.36C206.268 54.228 206.448 54.162 206.688 54.162C206.916 54.162 207.096 54.228 207.228 54.36C207.36 54.492 207.426 54.684 207.426 54.936V62.298C207.426 62.55 207.36 62.748 207.228 62.892C207.108 63.024 206.928 63.09 206.688 63.09ZM206.688 52.146C206.388 52.146 206.154 52.068 205.986 51.912C205.818 51.744 205.734 51.522 205.734 51.246C205.734 50.958 205.818 50.742 205.986 50.598C206.154 50.442 206.388 50.364 206.688 50.364C207 50.364 207.234 50.442 207.39 50.598C207.558 50.742 207.642 50.958 207.642 51.246C207.642 51.522 207.558 51.744 207.39 51.912C207.234 52.068 207 52.146 206.688 52.146ZM213.661 63.162C212.977 63.162 212.401 63.042 211.933 62.802C211.477 62.55 211.135 62.19 210.907 61.722C210.679 61.242 210.565 60.66 210.565 59.976V55.386H209.359C209.155 55.386 208.999 55.338 208.891 55.242C208.783 55.134 208.729 54.99 208.729 54.81C208.729 54.63 208.783 54.492 208.891 54.396C208.999 54.3 209.155 54.252 209.359 54.252H210.565V52.182C210.565 51.942 210.631 51.762 210.763 51.642C210.895 51.51 211.075 51.444 211.303 51.444C211.531 51.444 211.705 51.51 211.825 51.642C211.957 51.762 212.023 51.942 212.023 52.182V54.252H214.291C214.495 54.252 214.651 54.3 214.759 54.396C214.867 54.492 214.921 54.63 214.921 54.81C214.921 54.99 214.867 55.134 214.759 55.242C214.651 55.338 214.495 55.386 214.291 55.386H212.023V59.832C212.023 60.516 212.167 61.038 212.455 61.398C212.743 61.746 213.211 61.92 213.859 61.92C214.087 61.92 214.279 61.896 214.435 61.848C214.603 61.8 214.741 61.776 214.849 61.776C214.957 61.764 215.047 61.8 215.119 61.884C215.191 61.968 215.227 62.112 215.227 62.316C215.227 62.46 215.197 62.592 215.137 62.712C215.089 62.832 214.999 62.916 214.867 62.964C214.723 63.012 214.531 63.054 214.291 63.09C214.063 63.138 213.853 63.162 213.661 63.162ZM219.54 63.162C218.832 63.162 218.244 63.036 217.776 62.784C217.32 62.52 216.972 62.13 216.732 61.614C216.504 61.098 216.39 60.456 216.39 59.688V54.864C216.39 54.612 216.45 54.426 216.57 54.306C216.702 54.186 216.882 54.126 217.11 54.126C217.35 54.126 217.53 54.186 217.65 54.306C217.782 54.426 217.848 54.612 217.848 54.864V59.67C217.848 60.438 218.004 61.014 218.316 61.398C218.64 61.77 219.144 61.956 219.828 61.956C220.572 61.956 221.178 61.704 221.646 61.2C222.114 60.696 222.348 60.036 222.348 59.22V54.864C222.348 54.612 222.408 54.426 222.528 54.306C222.66 54.186 222.846 54.126 223.086 54.126C223.314 54.126 223.488 54.186 223.608 54.306C223.74 54.426 223.806 54.612 223.806 54.864V62.37C223.806 62.874 223.572 63.126 223.104 63.126C222.876 63.126 222.696 63.06 222.564 62.928C222.444 62.796 222.384 62.61 222.384 62.37V60.732L222.618 60.984C222.378 61.692 221.982 62.232 221.43 62.604C220.89 62.976 220.26 63.162 219.54 63.162ZM229.864 63.162C229.084 63.162 228.4 62.976 227.812 62.604C227.236 62.232 226.786 61.71 226.462 61.038C226.15 60.354 225.994 59.55 225.994 58.626C225.994 57.69 226.15 56.886 226.462 56.214C226.786 55.53 227.236 55.008 227.812 54.648C228.4 54.276 229.084 54.09 229.864 54.09C230.656 54.09 231.334 54.288 231.898 54.684C232.462 55.08 232.84 55.614 233.032 56.286H232.834V50.922C232.834 50.682 232.894 50.502 233.014 50.382C233.146 50.25 233.332 50.184 233.572 50.184C233.8 50.184 233.974 50.25 234.094 50.382C234.226 50.502 234.292 50.682 234.292 50.922V62.37C234.292 62.61 234.232 62.796 234.112 62.928C233.992 63.06 233.812 63.126 233.572 63.126C233.344 63.126 233.164 63.06 233.032 62.928C232.912 62.796 232.852 62.61 232.852 62.37V60.66L233.05 60.912C232.858 61.596 232.474 62.142 231.898 62.55C231.334 62.958 230.656 63.162 229.864 63.162ZM230.17 61.992C230.71 61.992 231.184 61.86 231.592 61.596C232 61.332 232.312 60.948 232.528 60.444C232.756 59.94 232.87 59.334 232.87 58.626C232.87 57.534 232.624 56.7 232.132 56.124C231.652 55.548 230.998 55.26 230.17 55.26C229.618 55.26 229.138 55.392 228.73 55.656C228.334 55.908 228.022 56.286 227.794 56.79C227.578 57.282 227.47 57.894 227.47 58.626C227.47 59.706 227.716 60.54 228.208 61.128C228.7 61.704 229.354 61.992 230.17 61.992ZM244.621 63.162C244.081 63.162 243.535 63.096 242.983 62.964C242.443 62.832 241.939 62.604 241.471 62.28C241.351 62.196 241.267 62.1 241.219 61.992C241.171 61.872 241.153 61.758 241.165 61.65C241.189 61.53 241.237 61.428 241.309 61.344C241.393 61.26 241.489 61.212 241.597 61.2C241.717 61.176 241.849 61.2 241.993 61.272C242.461 61.56 242.911 61.764 243.343 61.884C243.787 61.992 244.225 62.046 244.657 62.046C245.341 62.046 245.857 61.92 246.205 61.668C246.553 61.416 246.727 61.074 246.727 60.642C246.727 60.306 246.613 60.042 246.385 59.85C246.157 59.646 245.797 59.49 245.305 59.382L243.667 59.022C242.911 58.866 242.347 58.596 241.975 58.212C241.615 57.828 241.435 57.33 241.435 56.718C241.435 56.178 241.573 55.716 241.849 55.332C242.137 54.936 242.539 54.63 243.055 54.414C243.571 54.198 244.171 54.09 244.855 54.09C245.383 54.09 245.881 54.162 246.349 54.306C246.829 54.438 247.261 54.654 247.645 54.954C247.765 55.038 247.843 55.14 247.879 55.26C247.927 55.368 247.933 55.482 247.897 55.602C247.873 55.71 247.819 55.806 247.735 55.89C247.651 55.962 247.549 56.004 247.429 56.016C247.309 56.028 247.183 55.992 247.051 55.908C246.691 55.668 246.325 55.494 245.953 55.386C245.581 55.266 245.215 55.206 244.855 55.206C244.183 55.206 243.673 55.338 243.325 55.602C242.977 55.866 242.803 56.214 242.803 56.646C242.803 56.982 242.911 57.258 243.127 57.474C243.343 57.69 243.679 57.846 244.135 57.942L245.773 58.284C246.553 58.452 247.135 58.722 247.519 59.094C247.915 59.454 248.113 59.946 248.113 60.57C248.113 61.362 247.795 61.992 247.159 62.46C246.523 62.928 245.677 63.162 244.621 63.162ZM253.431 63.162C252.723 63.162 252.135 63.036 251.667 62.784C251.211 62.52 250.863 62.13 250.623 61.614C250.395 61.098 250.281 60.456 250.281 59.688V54.864C250.281 54.612 250.341 54.426 250.461 54.306C250.593 54.186 250.773 54.126 251.001 54.126C251.241 54.126 251.421 54.186 251.541 54.306C251.673 54.426 251.739 54.612 251.739 54.864V59.67C251.739 60.438 251.895 61.014 252.207 61.398C252.531 61.77 253.035 61.956 253.719 61.956C254.463 61.956 255.069 61.704 255.537 61.2C256.005 60.696 256.239 60.036 256.239 59.22V54.864C256.239 54.612 256.299 54.426 256.419 54.306C256.551 54.186 256.737 54.126 256.977 54.126C257.205 54.126 257.379 54.186 257.499 54.306C257.631 54.426 257.697 54.612 257.697 54.864V62.37C257.697 62.874 257.463 63.126 256.995 63.126C256.767 63.126 256.587 63.06 256.455 62.928C256.335 62.796 256.275 62.61 256.275 62.37V60.732L256.509 60.984C256.269 61.692 255.873 62.232 255.321 62.604C254.781 62.976 254.151 63.162 253.431 63.162ZM261.145 66.366C260.905 66.366 260.725 66.3 260.605 66.168C260.485 66.048 260.425 65.868 260.425 65.628V54.864C260.425 54.624 260.485 54.444 260.605 54.324C260.725 54.192 260.899 54.126 261.127 54.126C261.367 54.126 261.547 54.192 261.667 54.324C261.799 54.444 261.865 54.624 261.865 54.864V56.574L261.667 56.322C261.859 55.638 262.237 55.098 262.801 54.702C263.377 54.294 264.061 54.09 264.853 54.09C265.633 54.09 266.311 54.276 266.887 54.648C267.475 55.008 267.925 55.53 268.237 56.214C268.561 56.886 268.723 57.69 268.723 58.626C268.723 59.55 268.561 60.354 268.237 61.038C267.925 61.71 267.481 62.232 266.905 62.604C266.329 62.976 265.645 63.162 264.853 63.162C264.061 63.162 263.383 62.964 262.819 62.568C262.255 62.16 261.871 61.62 261.667 60.948H261.883V65.628C261.883 65.868 261.817 66.048 261.685 66.168C261.553 66.3 261.373 66.366 261.145 66.366ZM264.547 61.992C265.099 61.992 265.573 61.86 265.969 61.596C266.377 61.332 266.689 60.948 266.905 60.444C267.133 59.94 267.247 59.334 267.247 58.626C267.247 57.534 267.001 56.7 266.509 56.124C266.029 55.548 265.375 55.26 264.547 55.26C264.007 55.26 263.533 55.392 263.125 55.656C262.717 55.908 262.399 56.286 262.171 56.79C261.955 57.282 261.847 57.894 261.847 58.626C261.847 59.706 262.093 60.54 262.585 61.128C263.077 61.704 263.731 61.992 264.547 61.992ZM274.861 63.162C273.937 63.162 273.139 62.982 272.467 62.622C271.807 62.25 271.291 61.728 270.919 61.056C270.559 60.384 270.379 59.58 270.379 58.644C270.379 57.732 270.559 56.94 270.919 56.268C271.279 55.584 271.771 55.05 272.395 54.666C273.031 54.282 273.763 54.09 274.591 54.09C275.179 54.09 275.707 54.192 276.175 54.396C276.643 54.588 277.039 54.87 277.363 55.242C277.699 55.614 277.951 56.064 278.119 56.592C278.299 57.12 278.389 57.714 278.389 58.374C278.389 58.566 278.335 58.71 278.227 58.806C278.119 58.89 277.963 58.932 277.759 58.932H271.495V57.978H277.417L277.129 58.212C277.129 57.564 277.033 57.018 276.841 56.574C276.649 56.118 276.367 55.77 275.995 55.53C275.635 55.29 275.179 55.17 274.627 55.17C274.015 55.17 273.493 55.314 273.061 55.602C272.641 55.878 272.323 56.268 272.107 56.772C271.891 57.264 271.783 57.84 271.783 58.5V58.608C271.783 59.712 272.047 60.552 272.575 61.128C273.115 61.704 273.877 61.992 274.861 61.992C275.269 61.992 275.671 61.938 276.067 61.83C276.475 61.722 276.871 61.542 277.255 61.29C277.423 61.182 277.573 61.134 277.705 61.146C277.849 61.146 277.963 61.188 278.047 61.272C278.131 61.344 278.185 61.44 278.209 61.56C278.245 61.668 278.233 61.788 278.173 61.92C278.125 62.052 278.023 62.166 277.867 62.262C277.471 62.55 277.003 62.772 276.463 62.928C275.923 63.084 275.389 63.162 274.861 63.162ZM281.237 63.126C280.997 63.126 280.811 63.06 280.679 62.928C280.559 62.796 280.499 62.61 280.499 62.37V54.864C280.499 54.624 280.559 54.444 280.679 54.324C280.799 54.192 280.973 54.126 281.201 54.126C281.429 54.126 281.603 54.192 281.723 54.324C281.855 54.444 281.921 54.624 281.921 54.864V56.322H281.741C281.933 55.614 282.299 55.068 282.839 54.684C283.379 54.3 284.045 54.096 284.837 54.072C285.017 54.06 285.161 54.102 285.269 54.198C285.377 54.282 285.437 54.432 285.449 54.648C285.461 54.852 285.413 55.014 285.305 55.134C285.197 55.254 285.029 55.326 284.801 55.35L284.513 55.386C283.697 55.458 283.067 55.722 282.623 56.178C282.191 56.622 281.975 57.234 281.975 58.014V62.37C281.975 62.61 281.909 62.796 281.777 62.928C281.657 63.06 281.477 63.126 281.237 63.126ZM287.67 63.09C287.43 63.09 287.25 63.024 287.13 62.892C287.01 62.748 286.95 62.55 286.95 62.298V54.936C286.95 54.684 287.01 54.492 287.13 54.36C287.25 54.228 287.43 54.162 287.67 54.162C287.898 54.162 288.078 54.228 288.21 54.36C288.342 54.492 288.408 54.684 288.408 54.936V62.298C288.408 62.55 288.342 62.748 288.21 62.892C288.09 63.024 287.91 63.09 287.67 63.09ZM287.67 52.146C287.37 52.146 287.136 52.068 286.968 51.912C286.8 51.744 286.716 51.522 286.716 51.246C286.716 50.958 286.8 50.742 286.968 50.598C287.136 50.442 287.37 50.364 287.67 50.364C287.982 50.364 288.216 50.442 288.372 50.598C288.54 50.742 288.624 50.958 288.624 51.246C288.624 51.522 288.54 51.744 288.372 51.912C288.216 52.068 287.982 52.146 287.67 52.146ZM295.958 63.072C295.658 63.072 295.418 62.982 295.238 62.802C295.058 62.61 294.968 62.37 294.968 62.082C294.968 61.794 295.058 61.56 295.238 61.38C295.418 61.188 295.658 61.092 295.958 61.092C296.258 61.092 296.492 61.188 296.66 61.38C296.84 61.56 296.93 61.794 296.93 62.082C296.93 62.37 296.84 62.61 296.66 62.802C296.492 62.982 296.258 63.072 295.958 63.072ZM300.08 63.072C299.78 63.072 299.54 62.982 299.36 62.802C299.18 62.61 299.09 62.37 299.09 62.082C299.09 61.794 299.18 61.56 299.36 61.38C299.54 61.188 299.78 61.092 300.08 61.092C300.38 61.092 300.614 61.188 300.782 61.38C300.962 61.56 301.052 61.794 301.052 62.082C301.052 62.37 300.962 62.61 300.782 62.802C300.614 62.982 300.38 63.072 300.08 63.072ZM291.836 63.072C291.536 63.072 291.296 62.982 291.116 62.802C290.936 62.61 290.846 62.37 290.846 62.082C290.846 61.794 290.936 61.56 291.116 61.38C291.296 61.188 291.536 61.092 291.836 61.092C292.136 61.092 292.37 61.188 292.538 61.38C292.718 61.56 292.808 61.794 292.808 62.082C292.808 62.37 292.718 62.61 292.538 62.802C292.37 62.982 292.136 63.072 291.836 63.072Z" fill="#38485C"/>
<g clip-path="url(#clip0_3937_9340)">
<path d="M314.12 54.2901L318 58.1701L321.88 54.2901C322.27 53.9001 322.9 53.9001 323.29 54.2901C323.68 54.6801 323.68 55.3101 323.29 55.7001L318.7 60.2901C318.31 60.6801 317.68 60.6801 317.29 60.2901L312.7 55.7001C312.31 55.3101 312.31 54.6801 312.7 54.2901C313.09 53.9101 313.73 53.9001 314.12 54.2901Z" fill="#38485C"/>
</g>
<rect x="1" y="32" width="342" height="50" rx="9" stroke="#E6EBF0" stroke-width="2"/>
<rect opacity="0.2" x="2" width="61" height="114" fill="#9EAAB8"/>
<rect opacity="0.2" x="95" width="61" height="114" fill="#9EAAB8"/>
<rect opacity="0.2" x="188" width="61" height="114" fill="#9EAAB8"/>
<rect opacity="0.2" x="281" width="61" height="114" fill="#9EAAB8"/>
<defs>
<clipPath id="clip0_3937_9340">
<rect width="24" height="24" fill="white" transform="translate(306 45)"/>
</clipPath>
</defs>
</svg>
