<svg width="158" height="52" viewBox="0 0 158 52" fill="none" xmlns="http://www.w3.org/2000/svg">
<rect x="1" y="1" width="156" height="50" rx="9" fill="white"/>
<path d="M16.286 32.126C16.07 32.126 15.902 32.066 15.782 31.946C15.662 31.814 15.602 31.634 15.602 31.406V19.904C15.602 19.664 15.662 19.484 15.782 19.364C15.902 19.244 16.07 19.184 16.286 19.184C16.478 19.184 16.628 19.226 16.736 19.31C16.856 19.382 16.964 19.508 17.06 19.688L21.992 28.976H21.452L26.366 19.688C26.462 19.508 26.564 19.382 26.672 19.31C26.78 19.226 26.936 19.184 27.14 19.184C27.344 19.184 27.506 19.244 27.626 19.364C27.746 19.484 27.806 19.664 27.806 19.904V31.406C27.806 31.634 27.746 31.814 27.626 31.946C27.518 32.066 27.35 32.126 27.122 32.126C26.906 32.126 26.738 32.066 26.618 31.946C26.498 31.814 26.438 31.634 26.438 31.406V21.29H26.87L22.37 29.732C22.286 29.888 22.196 30.002 22.1 30.074C22.016 30.134 21.89 30.164 21.722 30.164C21.554 30.164 21.422 30.128 21.326 30.056C21.23 29.984 21.146 29.876 21.074 29.732L16.52 21.272H16.952V31.406C16.952 31.634 16.892 31.814 16.772 31.946C16.664 32.066 16.502 32.126 16.286 32.126ZM34.4024 32.162C33.5504 32.162 32.8124 31.976 32.1884 31.604C31.5644 31.232 31.0784 30.71 30.7304 30.038C30.3944 29.354 30.2264 28.55 30.2264 27.626C30.2264 26.93 30.3224 26.306 30.5144 25.754C30.7064 25.19 30.9884 24.71 31.3604 24.314C31.7324 23.918 32.1704 23.618 32.6744 23.414C33.1904 23.198 33.7664 23.09 34.4024 23.09C35.2544 23.09 35.9924 23.276 36.6164 23.648C37.2404 24.02 37.7204 24.548 38.0564 25.232C38.4044 25.904 38.5784 26.702 38.5784 27.626C38.5784 28.322 38.4824 28.946 38.2904 29.498C38.0984 30.05 37.8164 30.53 37.4444 30.938C37.0724 31.334 36.6284 31.64 36.1124 31.856C35.6084 32.06 35.0384 32.162 34.4024 32.162ZM34.4024 30.992C34.9424 30.992 35.4164 30.86 35.8244 30.596C36.2324 30.332 36.5444 29.948 36.7604 29.444C36.9884 28.94 37.1024 28.334 37.1024 27.626C37.1024 26.534 36.8564 25.7 36.3644 25.124C35.8844 24.548 35.2304 24.26 34.4024 24.26C33.8504 24.26 33.3704 24.392 32.9624 24.656C32.5664 24.908 32.2544 25.286 32.0264 25.79C31.8104 26.282 31.7024 26.894 31.7024 27.626C31.7024 28.706 31.9484 29.54 32.4404 30.128C32.9324 30.704 33.5864 30.992 34.4024 30.992ZM44.0984 32.162C43.3184 32.162 42.6344 31.976 42.0464 31.604C41.4704 31.232 41.0204 30.71 40.6964 30.038C40.3844 29.354 40.2284 28.55 40.2284 27.626C40.2284 26.69 40.3844 25.886 40.6964 25.214C41.0204 24.53 41.4704 24.008 42.0464 23.648C42.6344 23.276 43.3184 23.09 44.0984 23.09C44.8904 23.09 45.5684 23.288 46.1324 23.684C46.6964 24.08 47.0744 24.614 47.2664 25.286H47.0684V19.922C47.0684 19.682 47.1284 19.502 47.2484 19.382C47.3804 19.25 47.5664 19.184 47.8064 19.184C48.0344 19.184 48.2084 19.25 48.3284 19.382C48.4604 19.502 48.5264 19.682 48.5264 19.922V31.37C48.5264 31.61 48.4664 31.796 48.3464 31.928C48.2264 32.06 48.0464 32.126 47.8064 32.126C47.5784 32.126 47.3984 32.06 47.2664 31.928C47.1464 31.796 47.0864 31.61 47.0864 31.37V29.66L47.2844 29.912C47.0924 30.596 46.7084 31.142 46.1324 31.55C45.5684 31.958 44.8904 32.162 44.0984 32.162ZM44.4044 30.992C44.9444 30.992 45.4184 30.86 45.8264 30.596C46.2344 30.332 46.5464 29.948 46.7624 29.444C46.9904 28.94 47.1044 28.334 47.1044 27.626C47.1044 26.534 46.8584 25.7 46.3664 25.124C45.8864 24.548 45.2324 24.26 44.4044 24.26C43.8524 24.26 43.3724 24.392 42.9644 24.656C42.5684 24.908 42.2564 25.286 42.0284 25.79C41.8124 26.282 41.7044 26.894 41.7044 27.626C41.7044 28.706 41.9504 29.54 42.4424 30.128C42.9344 30.704 43.5884 30.992 44.4044 30.992ZM54.0165 32.162C53.4165 32.162 52.8765 32.048 52.3965 31.82C51.9285 31.58 51.5565 31.256 51.2805 30.848C51.0045 30.44 50.8665 29.984 50.8665 29.48C50.8665 28.832 51.0285 28.322 51.3525 27.95C51.6885 27.578 52.2345 27.314 52.9905 27.158C53.7585 27.002 54.8025 26.924 56.1225 26.924H56.9325V27.878H56.1405C55.1685 27.878 54.4005 27.926 53.8365 28.022C53.2845 28.106 52.8945 28.256 52.6665 28.472C52.4505 28.688 52.3425 28.994 52.3425 29.39C52.3425 29.882 52.5105 30.284 52.8465 30.596C53.1945 30.908 53.6625 31.064 54.2505 31.064C54.7305 31.064 55.1505 30.95 55.5105 30.722C55.8825 30.494 56.1705 30.182 56.3745 29.786C56.5905 29.39 56.6985 28.934 56.6985 28.418V26.366C56.6985 25.622 56.5485 25.088 56.2485 24.764C55.9485 24.428 55.4565 24.26 54.7725 24.26C54.3525 24.26 53.9325 24.314 53.5125 24.422C53.0925 24.53 52.6485 24.704 52.1805 24.944C52.0125 25.028 51.8685 25.058 51.7485 25.034C51.6285 24.998 51.5325 24.932 51.4605 24.836C51.3885 24.74 51.3465 24.632 51.3345 24.512C51.3225 24.38 51.3465 24.254 51.4065 24.134C51.4785 24.014 51.5865 23.918 51.7305 23.846C52.2585 23.582 52.7805 23.39 53.2965 23.27C53.8125 23.15 54.3045 23.09 54.7725 23.09C55.5285 23.09 56.1525 23.216 56.6445 23.468C57.1365 23.708 57.5025 24.08 57.7425 24.584C57.9825 25.076 58.1025 25.712 58.1025 26.492V31.37C58.1025 31.61 58.0425 31.796 57.9225 31.928C57.8145 32.06 57.6525 32.126 57.4365 32.126C57.2085 32.126 57.0345 32.06 56.9145 31.928C56.7945 31.796 56.7345 31.61 56.7345 31.37V29.966H56.8965C56.8005 30.422 56.6145 30.812 56.3385 31.136C56.0745 31.46 55.7445 31.712 55.3485 31.892C54.9525 32.072 54.5085 32.162 54.0165 32.162ZM63.4715 32.162C62.6075 32.162 61.9475 31.898 61.4915 31.37C61.0355 30.842 60.8075 30.086 60.8075 29.102V19.922C60.8075 19.682 60.8675 19.502 60.9875 19.382C61.1075 19.25 61.2875 19.184 61.5275 19.184C61.7555 19.184 61.9355 19.25 62.0675 19.382C62.1995 19.502 62.2655 19.682 62.2655 19.922V28.994C62.2655 29.642 62.3915 30.128 62.6435 30.452C62.9075 30.764 63.2915 30.92 63.7955 30.92C63.9035 30.92 63.9995 30.914 64.0835 30.902C64.1675 30.89 64.2515 30.884 64.3355 30.884C64.4675 30.872 64.5575 30.902 64.6055 30.974C64.6655 31.046 64.6955 31.19 64.6955 31.406C64.6955 31.622 64.6475 31.784 64.5515 31.892C64.4555 32 64.2995 32.072 64.0835 32.108C63.9875 32.12 63.8855 32.132 63.7775 32.144C63.6695 32.156 63.5675 32.162 63.4715 32.162ZM66.8536 32.09C66.6136 32.09 66.4336 32.024 66.3136 31.892C66.1936 31.748 66.1336 31.55 66.1336 31.298V23.936C66.1336 23.684 66.1936 23.492 66.3136 23.36C66.4336 23.228 66.6136 23.162 66.8536 23.162C67.0816 23.162 67.2616 23.228 67.3936 23.36C67.5256 23.492 67.5916 23.684 67.5916 23.936V31.298C67.5916 31.55 67.5256 31.748 67.3936 31.892C67.2736 32.024 67.0936 32.09 66.8536 32.09ZM66.8536 21.146C66.5536 21.146 66.3196 21.068 66.1516 20.912C65.9836 20.744 65.8996 20.522 65.8996 20.246C65.8996 19.958 65.9836 19.742 66.1516 19.598C66.3196 19.442 66.5536 19.364 66.8536 19.364C67.1656 19.364 67.3996 19.442 67.5556 19.598C67.7236 19.742 67.8076 19.958 67.8076 20.246C67.8076 20.522 67.7236 20.744 67.5556 20.912C67.3996 21.068 67.1656 21.146 66.8536 21.146ZM73.6472 32.162C72.8672 32.162 72.1832 31.976 71.5952 31.604C71.0192 31.232 70.5692 30.71 70.2452 30.038C69.9332 29.354 69.7772 28.55 69.7772 27.626C69.7772 26.69 69.9332 25.886 70.2452 25.214C70.5692 24.53 71.0192 24.008 71.5952 23.648C72.1832 23.276 72.8672 23.09 73.6472 23.09C74.4392 23.09 75.1172 23.288 75.6812 23.684C76.2452 24.08 76.6232 24.614 76.8152 25.286H76.6172V19.922C76.6172 19.682 76.6772 19.502 76.7972 19.382C76.9292 19.25 77.1152 19.184 77.3552 19.184C77.5832 19.184 77.7572 19.25 77.8772 19.382C78.0092 19.502 78.0752 19.682 78.0752 19.922V31.37C78.0752 31.61 78.0152 31.796 77.8952 31.928C77.7752 32.06 77.5952 32.126 77.3552 32.126C77.1272 32.126 76.9472 32.06 76.8152 31.928C76.6952 31.796 76.6352 31.61 76.6352 31.37V29.66L76.8332 29.912C76.6412 30.596 76.2572 31.142 75.6812 31.55C75.1172 31.958 74.4392 32.162 73.6472 32.162ZM73.9532 30.992C74.4932 30.992 74.9672 30.86 75.3752 30.596C75.7832 30.332 76.0952 29.948 76.3112 29.444C76.5392 28.94 76.6532 28.334 76.6532 27.626C76.6532 26.534 76.4072 25.7 75.9152 25.124C75.4352 24.548 74.7812 24.26 73.9532 24.26C73.4012 24.26 72.9212 24.392 72.5132 24.656C72.1172 24.908 71.8052 25.286 71.5772 25.79C71.3612 26.282 71.2532 26.894 71.2532 27.626C71.2532 28.706 71.4992 29.54 71.9912 30.128C72.4832 30.704 73.1372 30.992 73.9532 30.992ZM83.5654 32.162C82.9654 32.162 82.4254 32.048 81.9454 31.82C81.4774 31.58 81.1054 31.256 80.8294 30.848C80.5534 30.44 80.4154 29.984 80.4154 29.48C80.4154 28.832 80.5774 28.322 80.9014 27.95C81.2374 27.578 81.7834 27.314 82.5394 27.158C83.3074 27.002 84.3514 26.924 85.6714 26.924H86.4814V27.878H85.6894C84.7174 27.878 83.9494 27.926 83.3854 28.022C82.8334 28.106 82.4434 28.256 82.2154 28.472C81.9994 28.688 81.8914 28.994 81.8914 29.39C81.8914 29.882 82.0594 30.284 82.3954 30.596C82.7434 30.908 83.2114 31.064 83.7994 31.064C84.2794 31.064 84.6994 30.95 85.0594 30.722C85.4314 30.494 85.7194 30.182 85.9234 29.786C86.1394 29.39 86.2474 28.934 86.2474 28.418V26.366C86.2474 25.622 86.0974 25.088 85.7974 24.764C85.4974 24.428 85.0054 24.26 84.3214 24.26C83.9014 24.26 83.4814 24.314 83.0614 24.422C82.6414 24.53 82.1974 24.704 81.7294 24.944C81.5614 25.028 81.4174 25.058 81.2974 25.034C81.1774 24.998 81.0814 24.932 81.0094 24.836C80.9374 24.74 80.8954 24.632 80.8834 24.512C80.8714 24.38 80.8954 24.254 80.9554 24.134C81.0274 24.014 81.1354 23.918 81.2794 23.846C81.8074 23.582 82.3294 23.39 82.8454 23.27C83.3614 23.15 83.8534 23.09 84.3214 23.09C85.0774 23.09 85.7014 23.216 86.1934 23.468C86.6854 23.708 87.0514 24.08 87.2914 24.584C87.5314 25.076 87.6514 25.712 87.6514 26.492V31.37C87.6514 31.61 87.5914 31.796 87.4714 31.928C87.3634 32.06 87.2014 32.126 86.9854 32.126C86.7574 32.126 86.5834 32.06 86.4634 31.928C86.3434 31.796 86.2834 31.61 86.2834 31.37V29.966H86.4454C86.3494 30.422 86.1634 30.812 85.8874 31.136C85.6234 31.46 85.2934 31.712 84.8974 31.892C84.5014 32.072 84.0574 32.162 83.5654 32.162ZM93.6863 32.162C92.9063 32.162 92.2223 31.976 91.6343 31.604C91.0583 31.232 90.6083 30.71 90.2843 30.038C89.9723 29.354 89.8163 28.55 89.8163 27.626C89.8163 26.69 89.9723 25.886 90.2843 25.214C90.6083 24.53 91.0583 24.008 91.6343 23.648C92.2223 23.276 92.9063 23.09 93.6863 23.09C94.4783 23.09 95.1563 23.288 95.7203 23.684C96.2843 24.08 96.6623 24.614 96.8543 25.286H96.6563V19.922C96.6563 19.682 96.7163 19.502 96.8363 19.382C96.9683 19.25 97.1543 19.184 97.3943 19.184C97.6223 19.184 97.7963 19.25 97.9163 19.382C98.0483 19.502 98.1143 19.682 98.1143 19.922V31.37C98.1143 31.61 98.0543 31.796 97.9343 31.928C97.8143 32.06 97.6343 32.126 97.3943 32.126C97.1663 32.126 96.9863 32.06 96.8543 31.928C96.7343 31.796 96.6743 31.61 96.6743 31.37V29.66L96.8723 29.912C96.6803 30.596 96.2963 31.142 95.7203 31.55C95.1563 31.958 94.4783 32.162 93.6863 32.162ZM93.9923 30.992C94.5323 30.992 95.0063 30.86 95.4143 30.596C95.8223 30.332 96.1343 29.948 96.3503 29.444C96.5783 28.94 96.6923 28.334 96.6923 27.626C96.6923 26.534 96.4463 25.7 95.9543 25.124C95.4743 24.548 94.8203 24.26 93.9923 24.26C93.4403 24.26 92.9603 24.392 92.5523 24.656C92.1563 24.908 91.8443 25.286 91.6163 25.79C91.4003 26.282 91.2923 26.894 91.2923 27.626C91.2923 28.706 91.5383 29.54 92.0303 30.128C92.5223 30.704 93.1763 30.992 93.9923 30.992Z" fill="#38485C"/>
<g clip-path="url(#clip0_3937_9319)">
<path d="M128.12 23.2901L132 27.1701L135.88 23.2901C136.27 22.9001 136.9 22.9001 137.29 23.2901C137.68 23.6801 137.68 24.3101 137.29 24.7001L132.7 29.2901C132.31 29.6801 131.68 29.6801 131.29 29.2901L126.7 24.7001C126.31 24.3101 126.31 23.6801 126.7 23.2901C127.09 22.9101 127.73 22.9001 128.12 23.2901V23.2901Z" fill="#38485C"/>
</g>
<rect x="1" y="1" width="156" height="50" rx="9" stroke="#E6EBF0" stroke-width="2"/>
<defs>
<clipPath id="clip0_3937_9319">
<rect width="24" height="24" fill="white" transform="translate(120 14)"/>
</clipPath>
</defs>
</svg>
