<svg width="322" height="154" viewBox="0 0 322 154" fill="none" xmlns="http://www.w3.org/2000/svg">
<rect x="1.57443" y="1.07443" width="318.851" height="151.302" rx="8.33015" fill="white"/>
<rect x="1.57443" y="1.07443" width="318.851" height="151.302" rx="8.33015" stroke="#E6EBF0" stroke-width="1.85115"/>
<path d="M27.1934 41.3544C26.8299 41.3544 26.5485 41.2548 26.3492 41.0555C26.1616 40.8444 26.0679 40.5572 26.0679 40.1938V29.8357C26.0679 29.4605 26.1616 29.1733 26.3492 28.974C26.5485 28.7747 26.8299 28.675 27.1934 28.675C27.5568 28.675 27.8323 28.7747 28.0199 28.974C28.2192 29.1733 28.3188 29.4605 28.3188 29.8357V40.1938C28.3188 40.5572 28.2251 40.8444 28.0375 41.0555C27.8499 41.2548 27.5685 41.3544 27.1934 41.3544ZM31.9103 41.3544C31.5586 41.3544 31.289 41.2606 31.1014 41.0731C30.9138 40.8738 30.82 40.5924 30.82 40.2289V33.5815C30.82 33.218 30.9138 32.9425 31.1014 32.7549C31.289 32.5674 31.5528 32.4736 31.8928 32.4736C32.2328 32.4736 32.4965 32.5674 32.6841 32.7549C32.8717 32.9425 32.9655 33.218 32.9655 33.5815V34.7773L32.7721 34.3377C33.03 33.7163 33.4286 33.2473 33.9679 32.9308C34.5189 32.6025 35.1403 32.4384 35.832 32.4384C36.5237 32.4384 37.0923 32.5674 37.5378 32.8253C37.9833 33.0832 38.3175 33.476 38.5402 34.0035C38.763 34.5194 38.8744 35.1759 38.8744 35.9732V40.2289C38.8744 40.5924 38.7806 40.8738 38.593 41.0731C38.4054 41.2606 38.1358 41.3544 37.784 41.3544C37.4323 41.3544 37.1568 41.2606 36.9575 41.0731C36.7699 40.8738 36.6761 40.5924 36.6761 40.2289V36.0787C36.6761 35.4104 36.5472 34.9239 36.2892 34.619C36.043 34.3142 35.6561 34.1618 35.1286 34.1618C34.4838 34.1618 33.9679 34.367 33.581 34.7773C33.2058 35.1759 33.0183 35.7094 33.0183 36.3776V40.2289C33.0183 40.9793 32.649 41.3544 31.9103 41.3544ZM42.1974 41.3368C41.8457 41.3368 41.576 41.2313 41.3885 41.0203C41.2009 40.8093 41.1071 40.5162 41.1071 40.141V33.687C41.1071 33.3001 41.2009 33.007 41.3885 32.8077C41.576 32.5967 41.8457 32.4911 42.1974 32.4911C42.5491 32.4911 42.8188 32.5967 43.0064 32.8077C43.2057 33.007 43.3053 33.3001 43.3053 33.687V40.141C43.3053 40.5162 43.2115 40.8093 43.0239 41.0203C42.8364 41.2313 42.5608 41.3368 42.1974 41.3368ZM42.1974 30.8557C41.7871 30.8557 41.4647 30.756 41.2302 30.5567C41.0074 30.3457 40.896 30.0584 40.896 29.695C40.896 29.3198 41.0074 29.0326 41.2302 28.8333C41.4647 28.634 41.7871 28.5343 42.1974 28.5343C42.6195 28.5343 42.9419 28.634 43.1646 28.8333C43.3874 29.0326 43.4988 29.3198 43.4988 29.695C43.4988 30.0584 43.3874 30.3457 43.1646 30.5567C42.9419 30.756 42.6195 30.8557 42.1974 30.8557ZM49.5638 41.3896C48.6611 41.3896 47.8756 41.2079 47.2073 40.8444C46.5391 40.4693 46.0232 39.9417 45.6598 39.2617C45.2963 38.5817 45.1146 37.7845 45.1146 36.87C45.1146 36.1783 45.2142 35.5628 45.4136 35.0235C45.6246 34.4725 45.9235 34.0094 46.3104 33.6342C46.6973 33.2473 47.1663 32.9542 47.7173 32.7549C48.2683 32.5439 48.8838 32.4384 49.5638 32.4384C49.9507 32.4384 50.3669 32.4911 50.8124 32.5967C51.2697 32.7022 51.6976 32.878 52.0962 33.1242C52.2838 33.2415 52.4069 33.3822 52.4655 33.5463C52.5241 33.7104 52.5358 33.8804 52.5007 34.0563C52.4655 34.2204 52.3893 34.367 52.272 34.4959C52.1665 34.6132 52.0317 34.6894 51.8676 34.7246C51.7034 34.748 51.5217 34.707 51.3224 34.6015C51.0645 34.449 50.8007 34.3377 50.531 34.2673C50.2614 34.1853 50.0035 34.1442 49.7573 34.1442C49.3704 34.1442 49.0304 34.2087 48.7373 34.3377C48.4442 34.4549 48.1921 34.6308 47.9811 34.8652C47.7818 35.088 47.6294 35.3694 47.5239 35.7094C47.4183 36.0494 47.3656 36.4421 47.3656 36.8876C47.3656 37.7552 47.5708 38.441 47.9811 38.9452C48.4032 39.4376 48.9952 39.6838 49.7573 39.6838C50.0035 39.6838 50.2555 39.6486 50.5135 39.5783C50.7831 39.5079 51.0528 39.3965 51.3224 39.2441C51.5217 39.1386 51.6976 39.1034 51.85 39.1386C52.0141 39.1738 52.1489 39.2559 52.2545 39.3848C52.36 39.5021 52.4245 39.6486 52.4479 39.8245C52.4714 39.9886 52.4479 40.1527 52.3776 40.3169C52.3189 40.481 52.2017 40.6158 52.0258 40.7213C51.639 40.9558 51.2286 41.1258 50.7948 41.2313C50.3611 41.3368 49.9507 41.3896 49.5638 41.3896ZM54.9746 41.3368C54.6229 41.3368 54.3533 41.2313 54.1657 41.0203C53.9781 40.8093 53.8843 40.5162 53.8843 40.141V33.687C53.8843 33.3001 53.9781 33.007 54.1657 32.8077C54.3533 32.5967 54.6229 32.4911 54.9746 32.4911C55.3264 32.4911 55.596 32.5967 55.7836 32.8077C55.9829 33.007 56.0826 33.3001 56.0826 33.687V40.141C56.0826 40.5162 55.9888 40.8093 55.8012 41.0203C55.6136 41.2313 55.3381 41.3368 54.9746 41.3368ZM54.9746 30.8557C54.5643 30.8557 54.2419 30.756 54.0074 30.5567C53.7847 30.3457 53.6733 30.0584 53.6733 29.695C53.6733 29.3198 53.7847 29.0326 54.0074 28.8333C54.2419 28.634 54.5643 28.5343 54.9746 28.5343C55.3967 28.5343 55.7191 28.634 55.9419 28.8333C56.1646 29.0326 56.276 29.3198 56.276 29.695C56.276 30.0584 56.1646 30.3457 55.9419 30.5567C55.7191 30.756 55.3967 30.8557 54.9746 30.8557ZM61.198 41.3896C60.5766 41.3896 60.0197 41.2724 59.5273 41.0379C59.0466 40.7917 58.6656 40.4634 58.3842 40.0531C58.1146 39.6427 57.9798 39.1796 57.9798 38.6638C57.9798 38.0307 58.1439 37.5324 58.4722 37.169C58.8004 36.7938 59.3339 36.5242 60.0725 36.36C60.8111 36.1959 61.8018 36.1138 63.0445 36.1138H63.9238V37.38H63.0621C62.3352 37.38 61.7549 37.4152 61.3211 37.4855C60.8873 37.5559 60.5766 37.679 60.389 37.8548C60.2132 38.019 60.1252 38.2535 60.1252 38.5583C60.1252 38.9452 60.2601 39.2617 60.5297 39.5079C60.7994 39.7541 61.1745 39.8772 61.6552 39.8772C62.0421 39.8772 62.3821 39.7893 62.6752 39.6134C62.98 39.4258 63.2204 39.1738 63.3962 38.8572C63.5721 38.5407 63.66 38.1772 63.66 37.7669V35.7445C63.66 35.1583 63.531 34.7363 63.2731 34.4784C63.0152 34.2204 62.5814 34.0915 61.9718 34.0915C61.6318 34.0915 61.2625 34.1325 60.8638 34.2146C60.477 34.2966 60.0666 34.4373 59.6328 34.6366C59.4101 34.7421 59.2108 34.7715 59.0349 34.7246C58.8708 34.6777 58.7418 34.5839 58.648 34.4432C58.5542 34.2908 58.5073 34.1266 58.5073 33.9508C58.5073 33.7749 58.5542 33.6049 58.648 33.4408C58.7418 33.2649 58.9001 33.136 59.1228 33.0539C59.6621 32.8311 60.178 32.6729 60.6704 32.5791C61.1745 32.4853 61.6318 32.4384 62.0421 32.4384C62.8862 32.4384 63.5779 32.5674 64.1172 32.8253C64.6683 33.0832 65.0786 33.476 65.3482 34.0035C65.6179 34.5194 65.7527 35.1877 65.7527 36.0083V40.2289C65.7527 40.5924 65.6648 40.8738 65.4889 41.0731C65.3131 41.2606 65.061 41.3544 64.7327 41.3544C64.4045 41.3544 64.1465 41.2606 63.959 41.0731C63.7831 40.8738 63.6952 40.5924 63.6952 40.2289V39.3848H63.8359C63.7538 39.7952 63.5897 40.1527 63.3435 40.4576C63.109 40.7507 62.81 40.9793 62.4466 41.1434C62.0831 41.3075 61.6669 41.3896 61.198 41.3896ZM62.9566 31.3657C62.8393 31.5298 62.6986 31.6236 62.5345 31.647C62.3704 31.6705 62.2121 31.6412 62.0597 31.5591C61.9073 31.477 61.7959 31.3598 61.7256 31.2074C61.6669 31.055 61.6845 30.885 61.7783 30.6974L63.1148 28.0771C63.2204 27.8543 63.361 27.7137 63.5369 27.655C63.7128 27.5847 63.8945 27.573 64.0821 27.6199C64.2696 27.6668 64.4279 27.7547 64.5569 27.8836C64.6976 28.0126 64.7796 28.1709 64.8031 28.3585C64.8383 28.5343 64.7914 28.716 64.6624 28.9036L62.9566 31.3657ZM76.9964 41.3896C76.0233 41.3896 75.1851 41.2079 74.4816 40.8444C73.7782 40.481 73.233 39.9651 72.8462 39.2969C72.471 38.6286 72.2834 37.8373 72.2834 36.9228C72.2834 36.0318 72.4651 35.2521 72.8286 34.5839C73.2037 33.9156 73.7137 33.3939 74.3585 33.0187C75.0151 32.6318 75.7595 32.4384 76.5919 32.4384C77.2016 32.4384 77.7468 32.538 78.2274 32.7374C78.7198 32.9367 79.136 33.2239 79.476 33.5991C79.8277 33.9742 80.0915 34.4315 80.2674 34.9708C80.455 35.4983 80.5488 36.0963 80.5488 36.7645C80.5488 36.9755 80.4726 37.1397 80.3202 37.2569C80.1795 37.3624 79.9743 37.4152 79.7046 37.4152H74.0596V36.149H79.0012L78.7198 36.4128C78.7198 35.8735 78.6378 35.4221 78.4736 35.0587C78.3212 34.6952 78.0926 34.4197 77.7878 34.2322C77.4947 34.0328 77.1254 33.9332 76.6799 33.9332C76.1875 33.9332 75.7654 34.0504 75.4137 34.2849C75.0737 34.5077 74.8099 34.8301 74.6223 35.2521C74.4465 35.6625 74.3585 36.1549 74.3585 36.7293V36.8524C74.3585 37.8138 74.5813 38.5348 75.0268 39.0155C75.484 39.4845 76.1523 39.7189 77.0316 39.7189C77.3364 39.7189 77.6764 39.6838 78.0516 39.6134C78.4385 39.5314 78.8019 39.3965 79.1419 39.209C79.3881 39.0683 79.605 39.0096 79.7926 39.0331C79.9802 39.0448 80.1267 39.1093 80.2322 39.2265C80.3495 39.3438 80.4198 39.4903 80.4433 39.6662C80.4667 39.8303 80.4315 40.0003 80.3377 40.1762C80.2557 40.352 80.1091 40.5044 79.8981 40.6334C79.4878 40.8913 79.0129 41.0848 78.4736 41.2137C77.9461 41.331 77.4537 41.3896 76.9964 41.3896ZM85.2265 41.3896C84.2534 41.3896 83.5206 41.1141 83.0282 40.5631C82.5358 40.0003 82.2896 39.1796 82.2896 38.101V29.7829C82.2896 29.4195 82.3834 29.144 82.571 28.9564C82.7586 28.7688 83.0282 28.675 83.38 28.675C83.7317 28.675 84.0013 28.7688 84.1889 28.9564C84.3882 29.144 84.4879 29.4195 84.4879 29.7829V37.9955C84.4879 38.5348 84.5992 38.9334 84.822 39.1914C85.0565 39.4493 85.3847 39.5783 85.8068 39.5783C85.9006 39.5783 85.9885 39.5783 86.0706 39.5783C86.1527 39.5665 86.2347 39.5548 86.3168 39.5431C86.4809 39.5196 86.5923 39.5665 86.6509 39.6838C86.7095 39.7893 86.7389 40.012 86.7389 40.352C86.7389 40.6451 86.6802 40.8738 86.563 41.0379C86.4458 41.202 86.2523 41.3017 85.9827 41.3368C85.8654 41.3486 85.7423 41.3603 85.6134 41.372C85.4844 41.3837 85.3554 41.3896 85.2265 41.3896ZM96.619 41.3896C95.8569 41.3896 95.218 41.2606 94.7021 41.0027C94.198 40.7448 93.8228 40.3696 93.5766 39.8772C93.3304 39.3731 93.2073 38.7517 93.2073 38.0131V34.2673H92.2928C92.0115 34.2673 91.7946 34.197 91.6422 34.0563C91.4897 33.9039 91.4135 33.6987 91.4135 33.4408C91.4135 33.1711 91.4897 32.966 91.6422 32.8253C91.7946 32.6846 92.0115 32.6143 92.2928 32.6143H93.2073V31.0139C93.2073 30.6505 93.3011 30.375 93.4887 30.1874C93.688 29.9998 93.9635 29.906 94.3152 29.906C94.6669 29.906 94.9366 29.9998 95.1242 30.1874C95.3117 30.375 95.4055 30.6505 95.4055 31.0139V32.6143H97.2696C97.551 32.6143 97.7679 32.6846 97.9203 32.8253C98.0727 32.966 98.1489 33.1711 98.1489 33.4408C98.1489 33.6987 98.0727 33.9039 97.9203 34.0563C97.7679 34.197 97.551 34.2673 97.2696 34.2673H95.4055V37.89C95.4055 38.4528 95.5286 38.8748 95.7748 39.1562C96.021 39.4376 96.4197 39.5783 96.9707 39.5783C97.17 39.5783 97.3458 39.5607 97.4983 39.5255C97.6507 39.4903 97.7855 39.4669 97.9027 39.4552C98.0434 39.4434 98.1607 39.4903 98.2544 39.5958C98.3482 39.6896 98.3951 39.8889 98.3951 40.1938C98.3951 40.4282 98.3541 40.6393 98.272 40.8269C98.2017 41.0027 98.0669 41.1258 97.8676 41.1962C97.7151 41.2431 97.5158 41.2841 97.2696 41.3193C97.0234 41.3662 96.8065 41.3896 96.619 41.3896ZM100.554 41.3544C100.191 41.3544 99.9097 41.2606 99.7104 41.0731C99.5228 40.8738 99.429 40.5924 99.429 40.2289V33.5815C99.429 33.218 99.5228 32.9425 99.7104 32.7549C99.8979 32.5674 100.162 32.4736 100.502 32.4736C100.842 32.4736 101.106 32.5674 101.293 32.7549C101.481 32.9425 101.574 33.218 101.574 33.5815V34.6894H101.399C101.563 33.9859 101.885 33.4525 102.366 33.0891C102.847 32.7256 103.485 32.5087 104.283 32.4384C104.529 32.4149 104.722 32.4794 104.863 32.6318C105.015 32.7725 105.103 32.9953 105.127 33.3001C105.15 33.5932 105.08 33.8335 104.916 34.0211C104.763 34.197 104.529 34.3025 104.212 34.3377L103.825 34.3728C103.11 34.4432 102.571 34.6659 102.208 35.0411C101.844 35.4045 101.662 35.9204 101.662 36.5887V40.2289C101.662 40.5924 101.569 40.8738 101.381 41.0731C101.193 41.2606 100.918 41.3544 100.554 41.3544ZM109.147 41.3896C108.526 41.3896 107.969 41.2724 107.476 41.0379C106.996 40.7917 106.615 40.4634 106.333 40.0531C106.064 39.6427 105.929 39.1796 105.929 38.6638C105.929 38.0307 106.093 37.5324 106.421 37.169C106.749 36.7938 107.283 36.5242 108.021 36.36C108.76 36.1959 109.751 36.1138 110.993 36.1138H111.873V37.38H111.011C110.284 37.38 109.704 37.4152 109.27 37.4855C108.836 37.5559 108.526 37.679 108.338 37.8548C108.162 38.019 108.074 38.2535 108.074 38.5583C108.074 38.9452 108.209 39.2617 108.479 39.5079C108.748 39.7541 109.124 39.8772 109.604 39.8772C109.991 39.8772 110.331 39.7893 110.624 39.6134C110.929 39.4258 111.169 39.1738 111.345 38.8572C111.521 38.5407 111.609 38.1772 111.609 37.7669V35.7445C111.609 35.1583 111.48 34.7363 111.222 34.4784C110.964 34.2204 110.53 34.0915 109.921 34.0915C109.581 34.0915 109.211 34.1325 108.813 34.2146C108.426 34.2966 108.016 34.4373 107.582 34.6366C107.359 34.7421 107.16 34.7715 106.984 34.7246C106.82 34.6777 106.691 34.5839 106.597 34.4432C106.503 34.2908 106.456 34.1266 106.456 33.9508C106.456 33.7749 106.503 33.6049 106.597 33.4408C106.691 33.2649 106.849 33.136 107.072 33.0539C107.611 32.8311 108.127 32.6729 108.619 32.5791C109.124 32.4853 109.581 32.4384 109.991 32.4384C110.835 32.4384 111.527 32.5674 112.066 32.8253C112.617 33.0832 113.028 33.476 113.297 34.0035C113.567 34.5194 113.702 35.1877 113.702 36.0083V40.2289C113.702 40.5924 113.614 40.8738 113.438 41.0731C113.262 41.2606 113.01 41.3544 112.682 41.3544C112.353 41.3544 112.096 41.2606 111.908 41.0731C111.732 40.8738 111.644 40.5924 111.644 40.2289V39.3848H111.785C111.703 39.7952 111.539 40.1527 111.292 40.4576C111.058 40.7507 110.759 40.9793 110.396 41.1434C110.032 41.3075 109.616 41.3896 109.147 41.3896ZM110.906 31.3657C110.788 31.5298 110.648 31.6236 110.484 31.647C110.319 31.6705 110.161 31.6412 110.009 31.5591C109.856 31.477 109.745 31.3598 109.675 31.2074C109.616 31.055 109.634 30.885 109.727 30.6974L111.064 28.0771C111.169 27.8543 111.31 27.7137 111.486 27.655C111.662 27.5847 111.843 27.573 112.031 27.6199C112.219 27.6668 112.377 27.7547 112.506 27.8836C112.647 28.0126 112.729 28.1709 112.752 28.3585C112.787 28.5343 112.74 28.716 112.611 28.9036L110.906 31.3657ZM117.058 41.3544C116.707 41.3544 116.437 41.2606 116.249 41.0731C116.062 40.8738 115.968 40.5924 115.968 40.2289V33.5815C115.968 33.218 116.062 32.9425 116.249 32.7549C116.437 32.5674 116.701 32.4736 117.041 32.4736C117.381 32.4736 117.645 32.5674 117.832 32.7549C118.02 32.9425 118.114 33.218 118.114 33.5815V34.8652L117.92 34.3377C118.155 33.7515 118.518 33.2884 119.01 32.9484C119.503 32.6084 120.089 32.4384 120.769 32.4384C121.461 32.4384 122.029 32.6025 122.475 32.9308C122.92 33.2591 123.231 33.7632 123.407 34.4432H123.161C123.395 33.8218 123.782 33.3353 124.321 32.9836C124.861 32.6201 125.482 32.4384 126.185 32.4384C126.842 32.4384 127.381 32.5674 127.803 32.8253C128.237 33.0832 128.56 33.476 128.771 34.0035C128.982 34.5194 129.087 35.1759 129.087 35.9732V40.2289C129.087 40.5924 128.988 40.8738 128.788 41.0731C128.601 41.2606 128.331 41.3544 127.979 41.3544C127.628 41.3544 127.358 41.2606 127.17 41.0731C126.983 40.8738 126.889 40.5924 126.889 40.2289V36.0611C126.889 35.4045 126.778 34.9239 126.555 34.619C126.344 34.3142 125.98 34.1618 125.464 34.1618C124.89 34.1618 124.439 34.367 124.11 34.7773C123.782 35.1759 123.618 35.7328 123.618 36.448V40.2289C123.618 40.5924 123.524 40.8738 123.337 41.0731C123.149 41.2606 122.879 41.3544 122.528 41.3544C122.176 41.3544 121.9 41.2606 121.701 41.0731C121.514 40.8738 121.42 40.5924 121.42 40.2289V36.0611C121.42 35.4045 121.308 34.9239 121.086 34.619C120.875 34.3142 120.517 34.1618 120.013 34.1618C119.438 34.1618 118.987 34.367 118.659 34.7773C118.33 35.1759 118.166 35.7328 118.166 36.448V40.2289C118.166 40.9793 117.797 41.3544 117.058 41.3544ZM132.445 41.3368C132.094 41.3368 131.824 41.2313 131.636 41.0203C131.449 40.8093 131.355 40.5162 131.355 40.141V33.687C131.355 33.3001 131.449 33.007 131.636 32.8077C131.824 32.5967 132.094 32.4911 132.445 32.4911C132.797 32.4911 133.067 32.5967 133.254 32.8077C133.453 33.007 133.553 33.3001 133.553 33.687V40.141C133.553 40.5162 133.459 40.8093 133.272 41.0203C133.084 41.2313 132.809 41.3368 132.445 41.3368ZM132.445 30.8557C132.035 30.8557 131.712 30.756 131.478 30.5567C131.255 30.3457 131.144 30.0584 131.144 29.695C131.144 29.3198 131.255 29.0326 131.478 28.8333C131.712 28.634 132.035 28.5343 132.445 28.5343C132.867 28.5343 133.19 28.634 133.412 28.8333C133.635 29.0326 133.747 29.3198 133.747 29.695C133.747 30.0584 133.635 30.3457 133.412 30.5567C133.19 30.756 132.867 30.8557 132.445 30.8557ZM139.776 41.3896C139.014 41.3896 138.375 41.2606 137.86 41.0027C137.356 40.7448 136.98 40.3696 136.734 39.8772C136.488 39.3731 136.365 38.7517 136.365 38.0131V34.2673H135.45C135.169 34.2673 134.952 34.197 134.8 34.0563C134.647 33.9039 134.571 33.6987 134.571 33.4408C134.571 33.1711 134.647 32.966 134.8 32.8253C134.952 32.6846 135.169 32.6143 135.45 32.6143H136.365V31.0139C136.365 30.6505 136.459 30.375 136.646 30.1874C136.846 29.9998 137.121 29.906 137.473 29.906C137.824 29.906 138.094 29.9998 138.282 30.1874C138.469 30.375 138.563 30.6505 138.563 31.0139V32.6143H140.427C140.709 32.6143 140.925 32.6846 141.078 32.8253C141.23 32.966 141.306 33.1711 141.306 33.4408C141.306 33.6987 141.23 33.9039 141.078 34.0563C140.925 34.197 140.709 34.2673 140.427 34.2673H138.563V37.89C138.563 38.4528 138.686 38.8748 138.932 39.1562C139.179 39.4376 139.577 39.5783 140.128 39.5783C140.328 39.5783 140.503 39.5607 140.656 39.5255C140.808 39.4903 140.943 39.4669 141.06 39.4552C141.201 39.4434 141.318 39.4903 141.412 39.5958C141.506 39.6896 141.553 39.8889 141.553 40.1938C141.553 40.4282 141.512 40.6393 141.43 40.8269C141.359 41.0027 141.224 41.1258 141.025 41.1962C140.873 41.2431 140.673 41.2841 140.427 41.3193C140.181 41.3662 139.964 41.3896 139.776 41.3896ZM146.739 41.3896C145.766 41.3896 144.928 41.2079 144.224 40.8444C143.521 40.481 142.975 39.9651 142.589 39.2969C142.213 38.6286 142.026 37.8373 142.026 36.9228C142.026 36.0318 142.208 35.2521 142.571 34.5839C142.946 33.9156 143.456 33.3939 144.101 33.0187C144.758 32.6318 145.502 32.4384 146.334 32.4384C146.944 32.4384 147.489 32.538 147.97 32.7374C148.462 32.9367 148.878 33.2239 149.218 33.5991C149.57 33.9742 149.834 34.4315 150.01 34.9708C150.197 35.4983 150.291 36.0963 150.291 36.7645C150.291 36.9755 150.215 37.1397 150.063 37.2569C149.922 37.3624 149.717 37.4152 149.447 37.4152H143.802V36.149H148.744L148.462 36.4128C148.462 35.8735 148.38 35.4221 148.216 35.0587C148.064 34.6952 147.835 34.4197 147.53 34.2322C147.237 34.0328 146.868 33.9332 146.422 33.9332C145.93 33.9332 145.508 34.0504 145.156 34.2849C144.816 34.5077 144.552 34.8301 144.365 35.2521C144.189 35.6625 144.101 36.1549 144.101 36.7293V36.8524C144.101 37.8138 144.324 38.5348 144.769 39.0155C145.226 39.4845 145.895 39.7189 146.774 39.7189C147.079 39.7189 147.419 39.6838 147.794 39.6134C148.181 39.5314 148.544 39.3965 148.884 39.209C149.131 39.0683 149.347 39.0096 149.535 39.0331C149.723 39.0448 149.869 39.1093 149.975 39.2265C150.092 39.3438 150.162 39.4903 150.186 39.6662C150.209 39.8303 150.174 40.0003 150.08 40.1762C149.998 40.352 149.852 40.5044 149.641 40.6334C149.23 40.8913 148.755 41.0848 148.216 41.2137C147.688 41.331 147.196 41.3896 146.739 41.3896ZM158.987 44.5199C158.729 44.5199 158.518 44.4495 158.354 44.3089C158.19 44.1799 158.09 44.004 158.055 43.7813C158.032 43.5585 158.073 43.3241 158.178 43.0778L159.374 40.4224V41.3368L156.173 33.9332C156.068 33.6753 156.033 33.4349 156.068 33.2122C156.103 32.9894 156.208 32.8136 156.384 32.6846C156.572 32.5439 156.824 32.4736 157.14 32.4736C157.41 32.4736 157.627 32.538 157.791 32.667C157.955 32.7842 158.102 33.0129 158.231 33.3529L160.605 39.2793H160.077L162.504 33.3353C162.633 33.007 162.786 32.7842 162.961 32.667C163.137 32.538 163.372 32.4736 163.665 32.4736C163.923 32.4736 164.128 32.5439 164.28 32.6846C164.433 32.8136 164.527 32.9894 164.562 33.2122C164.597 33.4232 164.556 33.6577 164.439 33.9156L160.165 43.6758C160.013 44.004 159.849 44.2268 159.673 44.344C159.497 44.4613 159.268 44.5199 158.987 44.5199ZM174.812 41.3896C173.909 41.3896 173.123 41.2079 172.455 40.8444C171.787 40.4693 171.271 39.9417 170.908 39.2617C170.544 38.5817 170.362 37.7845 170.362 36.87C170.362 36.1783 170.462 35.5628 170.661 35.0235C170.872 34.4725 171.171 34.0094 171.558 33.6342C171.945 33.2473 172.414 32.9542 172.965 32.7549C173.516 32.5439 174.132 32.4384 174.812 32.4384C175.199 32.4384 175.615 32.4911 176.06 32.5967C176.518 32.7022 176.945 32.878 177.344 33.1242C177.532 33.2415 177.655 33.3822 177.713 33.5463C177.772 33.7104 177.784 33.8804 177.749 34.0563C177.713 34.2204 177.637 34.367 177.52 34.4959C177.414 34.6132 177.28 34.6894 177.115 34.7246C176.951 34.748 176.77 34.707 176.57 34.6015C176.312 34.449 176.049 34.3377 175.779 34.2673C175.509 34.1853 175.251 34.1442 175.005 34.1442C174.618 34.1442 174.278 34.2087 173.985 34.3377C173.692 34.4549 173.44 34.6308 173.229 34.8652C173.03 35.088 172.877 35.3694 172.772 35.7094C172.666 36.0494 172.613 36.4421 172.613 36.8876C172.613 37.7552 172.819 38.441 173.229 38.9452C173.651 39.4376 174.243 39.6838 175.005 39.6838C175.251 39.6838 175.503 39.6486 175.761 39.5783C176.031 39.5079 176.301 39.3965 176.57 39.2441C176.77 39.1386 176.945 39.1034 177.098 39.1386C177.262 39.1738 177.397 39.2559 177.502 39.3848C177.608 39.5021 177.672 39.6486 177.696 39.8245C177.719 39.9886 177.696 40.1527 177.625 40.3169C177.567 40.481 177.45 40.6158 177.274 40.7213C176.887 40.9558 176.476 41.1258 176.043 41.2313C175.609 41.3368 175.199 41.3896 174.812 41.3896ZM182.882 41.3896C181.991 41.3896 181.217 41.2079 180.561 40.8444C179.904 40.481 179.394 39.9651 179.031 39.2969C178.667 38.6169 178.486 37.8197 178.486 36.9052C178.486 36.2135 178.585 35.598 178.785 35.0587C178.996 34.5077 179.295 34.0387 179.681 33.6518C180.068 33.2532 180.531 32.9542 181.071 32.7549C181.61 32.5439 182.214 32.4384 182.882 32.4384C183.773 32.4384 184.547 32.6201 185.203 32.9836C185.86 33.347 186.37 33.8628 186.733 34.5311C187.097 35.1994 187.279 35.9907 187.279 36.9052C187.279 37.5969 187.173 38.2183 186.962 38.7693C186.763 39.3203 186.47 39.7952 186.083 40.1938C185.696 40.5807 185.233 40.8796 184.693 41.0906C184.154 41.29 183.55 41.3896 182.882 41.3896ZM182.882 39.7189C183.316 39.7189 183.697 39.6134 184.025 39.4024C184.353 39.1914 184.606 38.8807 184.781 38.4703C184.969 38.0483 185.063 37.5266 185.063 36.9052C185.063 35.9673 184.863 35.2697 184.465 34.8125C184.066 34.3435 183.539 34.1091 182.882 34.1091C182.448 34.1091 182.067 34.2146 181.739 34.4256C181.411 34.6249 181.153 34.9356 180.965 35.3576C180.789 35.768 180.701 36.2838 180.701 36.9052C180.701 37.8314 180.901 38.5348 181.299 39.0155C181.698 39.4845 182.226 39.7189 182.882 39.7189ZM190.218 41.3544C189.867 41.3544 189.597 41.2606 189.409 41.0731C189.222 40.8738 189.128 40.5924 189.128 40.2289V33.5815C189.128 33.218 189.222 32.9425 189.409 32.7549C189.597 32.5674 189.861 32.4736 190.201 32.4736C190.541 32.4736 190.805 32.5674 190.992 32.7549C191.18 32.9425 191.274 33.218 191.274 33.5815V34.8652L191.08 34.3377C191.315 33.7515 191.678 33.2884 192.17 32.9484C192.663 32.6084 193.249 32.4384 193.929 32.4384C194.621 32.4384 195.189 32.6025 195.635 32.9308C196.08 33.2591 196.391 33.7632 196.567 34.4432H196.321C196.555 33.8218 196.942 33.3353 197.481 32.9836C198.021 32.6201 198.642 32.4384 199.345 32.4384C200.002 32.4384 200.541 32.5674 200.963 32.8253C201.397 33.0832 201.72 33.476 201.931 34.0035C202.142 34.5194 202.247 35.1759 202.247 35.9732V40.2289C202.247 40.5924 202.148 40.8738 201.948 41.0731C201.761 41.2606 201.491 41.3544 201.139 41.3544C200.788 41.3544 200.518 41.2606 200.33 41.0731C200.143 40.8738 200.049 40.5924 200.049 40.2289V36.0611C200.049 35.4045 199.938 34.9239 199.715 34.619C199.504 34.3142 199.14 34.1618 198.624 34.1618C198.05 34.1618 197.599 34.367 197.27 34.7773C196.942 35.1759 196.778 35.7328 196.778 36.448V40.2289C196.778 40.5924 196.684 40.8738 196.497 41.0731C196.309 41.2606 196.039 41.3544 195.688 41.3544C195.336 41.3544 195.06 41.2606 194.861 41.0731C194.674 40.8738 194.58 40.5924 194.58 40.2289V36.0611C194.58 35.4045 194.468 34.9239 194.246 34.619C194.035 34.3142 193.677 34.1618 193.173 34.1618C192.598 34.1618 192.147 34.367 191.819 34.7773C191.49 35.1759 191.326 35.7328 191.326 36.448V40.2289C191.326 40.9793 190.957 41.3544 190.218 41.3544ZM205.605 44.5199C205.254 44.5199 204.984 44.4261 204.796 44.2385C204.609 44.0509 204.515 43.7754 204.515 43.412V33.5815C204.515 33.218 204.609 32.9425 204.796 32.7549C204.984 32.5674 205.248 32.4736 205.588 32.4736C205.939 32.4736 206.209 32.5674 206.397 32.7549C206.584 32.9425 206.678 33.218 206.678 33.5815V34.9532L206.485 34.4256C206.66 33.8277 207.018 33.347 207.557 32.9836C208.108 32.6201 208.747 32.4384 209.474 32.4384C210.224 32.4384 210.881 32.6201 211.444 32.9836C212.018 33.347 212.464 33.8628 212.78 34.5311C213.097 35.1877 213.255 35.979 213.255 36.9052C213.255 37.8197 213.097 38.6169 212.78 39.2969C212.464 39.9651 212.024 40.481 211.461 40.8444C210.899 41.2079 210.236 41.3896 209.474 41.3896C208.759 41.3896 208.132 41.2137 207.592 40.862C207.053 40.4986 206.69 40.0296 206.502 39.4552H206.713V43.412C206.713 43.7754 206.614 44.0509 206.414 44.2385C206.227 44.4261 205.957 44.5199 205.605 44.5199ZM208.859 39.7189C209.292 39.7189 209.673 39.6134 210.002 39.4024C210.33 39.1914 210.582 38.8807 210.758 38.4703C210.945 38.0483 211.039 37.5266 211.039 36.9052C211.039 35.9673 210.84 35.2697 210.441 34.8125C210.043 34.3435 209.515 34.1091 208.859 34.1091C208.425 34.1091 208.044 34.2146 207.716 34.4256C207.387 34.6249 207.129 34.9356 206.942 35.3576C206.766 35.768 206.678 36.2838 206.678 36.9052C206.678 37.8314 206.877 38.5348 207.276 39.0155C207.675 39.4845 208.202 39.7189 208.859 39.7189ZM217.996 41.3896C217.023 41.3896 216.291 41.1141 215.798 40.5631C215.306 40.0003 215.06 39.1796 215.06 38.101V29.7829C215.06 29.4195 215.153 29.144 215.341 28.9564C215.529 28.7688 215.798 28.675 216.15 28.675C216.502 28.675 216.771 28.7688 216.959 28.9564C217.158 29.144 217.258 29.4195 217.258 29.7829V37.9955C217.258 38.5348 217.369 38.9334 217.592 39.1914C217.826 39.4493 218.155 39.5783 218.577 39.5783C218.671 39.5783 218.758 39.5783 218.841 39.5783C218.923 39.5665 219.005 39.5548 219.087 39.5431C219.251 39.5196 219.362 39.5665 219.421 39.6838C219.479 39.7893 219.509 40.012 219.509 40.352C219.509 40.6451 219.45 40.8738 219.333 41.0379C219.216 41.202 219.022 41.3017 218.753 41.3368C218.635 41.3486 218.512 41.3603 218.383 41.372C218.254 41.3837 218.125 41.3896 217.996 41.3896ZM224.828 41.3896C223.855 41.3896 223.016 41.2079 222.313 40.8444C221.609 40.481 221.064 39.9651 220.677 39.2969C220.302 38.6286 220.115 37.8373 220.115 36.9228C220.115 36.0318 220.296 35.2521 220.66 34.5839C221.035 33.9156 221.545 33.3939 222.19 33.0187C222.846 32.6318 223.591 32.4384 224.423 32.4384C225.033 32.4384 225.578 32.538 226.059 32.7374C226.551 32.9367 226.967 33.2239 227.307 33.5991C227.659 33.9742 227.923 34.4315 228.099 34.9708C228.286 35.4983 228.38 36.0963 228.38 36.7645C228.38 36.9755 228.304 37.1397 228.151 37.2569C228.011 37.3624 227.806 37.4152 227.536 37.4152H221.891V36.149H226.832L226.551 36.4128C226.551 35.8735 226.469 35.4221 226.305 35.0587C226.153 34.6952 225.924 34.4197 225.619 34.2322C225.326 34.0328 224.957 33.9332 224.511 33.9332C224.019 33.9332 223.597 34.0504 223.245 34.2849C222.905 34.5077 222.641 34.8301 222.454 35.2521C222.278 35.6625 222.19 36.1549 222.19 36.7293V36.8524C222.19 37.8138 222.413 38.5348 222.858 39.0155C223.315 39.4845 223.984 39.7189 224.863 39.7189C225.168 39.7189 225.508 39.6838 225.883 39.6134C226.27 39.5314 226.633 39.3965 226.973 39.209C227.219 39.0683 227.436 39.0096 227.624 39.0331C227.811 39.0448 227.958 39.1093 228.064 39.2265C228.181 39.3438 228.251 39.4903 228.275 39.6662C228.298 39.8303 228.263 40.0003 228.169 40.1762C228.087 40.352 227.94 40.5044 227.729 40.6334C227.319 40.8913 226.844 41.0848 226.305 41.2137C225.777 41.331 225.285 41.3896 224.828 41.3896ZM234.026 41.3896C233.264 41.3896 232.625 41.2606 232.109 41.0027C231.605 40.7448 231.23 40.3696 230.983 39.8772C230.737 39.3731 230.614 38.7517 230.614 38.0131V34.2673H229.7C229.418 34.2673 229.201 34.197 229.049 34.0563C228.897 33.9039 228.82 33.6987 228.82 33.4408C228.82 33.1711 228.897 32.966 229.049 32.8253C229.201 32.6846 229.418 32.6143 229.7 32.6143H230.614V31.0139C230.614 30.6505 230.708 30.375 230.896 30.1874C231.095 29.9998 231.37 29.906 231.722 29.906C232.074 29.906 232.343 29.9998 232.531 30.1874C232.719 30.375 232.812 30.6505 232.812 31.0139V32.6143H234.676C234.958 32.6143 235.175 32.6846 235.327 32.8253C235.48 32.966 235.556 33.1711 235.556 33.4408C235.556 33.6987 235.48 33.9039 235.327 34.0563C235.175 34.197 234.958 34.2673 234.676 34.2673H232.812V37.89C232.812 38.4528 232.935 38.8748 233.182 39.1562C233.428 39.4376 233.827 39.5783 234.378 39.5783C234.577 39.5783 234.753 39.5607 234.905 39.5255C235.058 39.4903 235.192 39.4669 235.31 39.4552C235.45 39.4434 235.568 39.4903 235.661 39.5958C235.755 39.6896 235.802 39.8889 235.802 40.1938C235.802 40.4282 235.761 40.6393 235.679 40.8269C235.609 41.0027 235.474 41.1258 235.274 41.1962C235.122 41.2431 234.923 41.2841 234.676 41.3193C234.43 41.3662 234.213 41.3896 234.026 41.3896ZM239.667 41.3896C239.046 41.3896 238.489 41.2724 237.997 41.0379C237.516 40.7917 237.135 40.4634 236.853 40.0531C236.584 39.6427 236.449 39.1796 236.449 38.6638C236.449 38.0307 236.613 37.5324 236.941 37.169C237.27 36.7938 237.803 36.5242 238.542 36.36C239.28 36.1959 240.271 36.1138 241.514 36.1138H242.393V37.38H241.531C240.804 37.38 240.224 37.4152 239.79 37.4855C239.356 37.5559 239.046 37.679 238.858 37.8548C238.682 38.019 238.594 38.2535 238.594 38.5583C238.594 38.9452 238.729 39.2617 238.999 39.5079C239.269 39.7541 239.644 39.8772 240.124 39.8772C240.511 39.8772 240.851 39.7893 241.144 39.6134C241.449 39.4258 241.69 39.1738 241.865 38.8572C242.041 38.5407 242.129 38.1772 242.129 37.7669V35.7445C242.129 35.1583 242 34.7363 241.742 34.4784C241.484 34.2204 241.051 34.0915 240.441 34.0915C240.101 34.0915 239.732 34.1325 239.333 34.2146C238.946 34.2966 238.536 34.4373 238.102 34.6366C237.879 34.7421 237.68 34.7715 237.504 34.7246C237.34 34.6777 237.211 34.5839 237.117 34.4432C237.023 34.2908 236.977 34.1266 236.977 33.9508C236.977 33.7749 237.023 33.6049 237.117 33.4408C237.211 33.2649 237.369 33.136 237.592 33.0539C238.131 32.8311 238.647 32.6729 239.14 32.5791C239.644 32.4853 240.101 32.4384 240.511 32.4384C241.355 32.4384 242.047 32.5674 242.586 32.8253C243.137 33.0832 243.548 33.476 243.817 34.0035C244.087 34.5194 244.222 35.1877 244.222 36.0083V40.2289C244.222 40.5924 244.134 40.8738 243.958 41.0731C243.782 41.2606 243.53 41.3544 243.202 41.3544C242.874 41.3544 242.616 41.2606 242.428 41.0731C242.252 40.8738 242.164 40.5924 242.164 40.2289V39.3848H242.305C242.223 39.7952 242.059 40.1527 241.813 40.4576C241.578 40.7507 241.279 40.9793 240.916 41.1434C240.552 41.3075 240.136 41.3896 239.667 41.3896ZM241.426 31.3657C241.309 31.5298 241.168 31.6236 241.004 31.647C240.84 31.6705 240.681 31.6412 240.529 31.5591C240.376 31.477 240.265 31.3598 240.195 31.2074C240.136 31.055 240.154 30.885 240.248 30.6974L241.584 28.0771C241.69 27.8543 241.83 27.7137 242.006 27.655C242.182 27.5847 242.364 27.573 242.551 27.6199C242.739 27.6668 242.897 27.7547 243.026 27.8836C243.167 28.0126 243.249 28.1709 243.272 28.3585C243.307 28.5343 243.261 28.716 243.132 28.9036L241.426 31.3657ZM29.7961 63.3896C29.034 63.3896 28.3951 63.2606 27.8792 63.0027C27.3751 62.7448 26.9999 62.3696 26.7537 61.8772C26.5075 61.3731 26.3844 60.7517 26.3844 60.0131V56.2673H25.4699C25.1886 56.2673 24.9717 56.197 24.8193 56.0563C24.6668 55.9039 24.5906 55.6987 24.5906 55.4408C24.5906 55.1711 24.6668 54.966 24.8193 54.8253C24.9717 54.6846 25.1886 54.6143 25.4699 54.6143H26.3844V53.0139C26.3844 52.6505 26.4782 52.375 26.6658 52.1874C26.8651 51.9998 27.1406 51.906 27.4923 51.906C27.844 51.906 28.1137 51.9998 28.3013 52.1874C28.4888 52.375 28.5826 52.6505 28.5826 53.0139V54.6143H30.4467C30.7281 54.6143 30.945 54.6846 31.0974 54.8253C31.2498 54.966 31.326 55.1711 31.326 55.4408C31.326 55.6987 31.2498 55.9039 31.0974 56.0563C30.945 56.197 30.7281 56.2673 30.4467 56.2673H28.5826V59.89C28.5826 60.4528 28.7057 60.8748 28.9519 61.1562C29.1981 61.4376 29.5968 61.5783 30.1478 61.5783C30.3471 61.5783 30.5229 61.5607 30.6754 61.5255C30.8278 61.4903 30.9626 61.4669 31.0798 61.4552C31.2205 61.4434 31.3378 61.4903 31.4315 61.5958C31.5253 61.6896 31.5722 61.8889 31.5722 62.1938C31.5722 62.4282 31.5312 62.6393 31.4491 62.8269C31.3788 63.0027 31.244 63.1258 31.0447 63.1962C30.8922 63.2431 30.6929 63.2841 30.4467 63.3193C30.2005 63.3662 29.9836 63.3896 29.7961 63.3896ZM36.4419 63.3896C35.5509 63.3896 34.7771 63.2079 34.1205 62.8444C33.464 62.481 32.954 61.9651 32.5906 61.2969C32.2271 60.6169 32.0454 59.8197 32.0454 58.9052C32.0454 58.2135 32.1451 57.598 32.3444 57.0587C32.5554 56.5077 32.8544 56.0387 33.2412 55.6518C33.6281 55.2532 34.0912 54.9542 34.6305 54.7549C35.1698 54.5439 35.7736 54.4384 36.4419 54.4384C37.3329 54.4384 38.1067 54.6201 38.7632 54.9836C39.4197 55.347 39.9297 55.8628 40.2932 56.5311C40.6566 57.1994 40.8383 57.9907 40.8383 58.9052C40.8383 59.5969 40.7328 60.2183 40.5218 60.7693C40.3225 61.3203 40.0294 61.7952 39.6425 62.1938C39.2556 62.5807 38.7925 62.8796 38.2532 63.0906C37.7139 63.29 37.1101 63.3896 36.4419 63.3896ZM36.4419 61.7189C36.8757 61.7189 37.2567 61.6134 37.585 61.4024C37.9132 61.1914 38.1653 60.8807 38.3411 60.4703C38.5287 60.0483 38.6225 59.5266 38.6225 58.9052C38.6225 57.9673 38.4232 57.2697 38.0246 56.8125C37.626 56.3435 37.0984 56.1091 36.4419 56.1091C36.0081 56.1091 35.6271 56.2146 35.2988 56.4256C34.9705 56.6249 34.7126 56.9356 34.525 57.3576C34.3492 57.768 34.2612 58.2838 34.2612 58.9052C34.2612 59.8314 34.4605 60.5348 34.8591 61.0155C35.2578 61.4845 35.7853 61.7189 36.4419 61.7189ZM45.9589 63.3896C45.2085 63.3896 44.5461 63.2079 43.9717 62.8444C43.4089 62.481 42.9693 61.9651 42.6527 61.2969C42.3362 60.6169 42.1779 59.8197 42.1779 58.9052C42.1779 57.979 42.3362 57.1877 42.6527 56.5311C42.9693 55.8628 43.4089 55.347 43.9717 54.9836C44.5461 54.6201 45.2085 54.4384 45.9589 54.4384C46.674 54.4384 47.2954 54.6143 47.823 54.966C48.3623 55.3177 48.7257 55.7808 48.9133 56.3553H48.7198V51.7829C48.7198 51.4195 48.8136 51.144 49.0012 50.9564C49.1888 50.7688 49.4584 50.675 49.8102 50.675C50.1619 50.675 50.4315 50.7688 50.6191 50.9564C50.8184 51.144 50.9181 51.4195 50.9181 51.7829V62.2289C50.9181 62.5924 50.8243 62.8738 50.6367 63.0731C50.4491 63.2606 50.1795 63.3544 49.8277 63.3544C49.476 63.3544 49.2064 63.2606 49.0188 63.0731C48.8312 62.8738 48.7374 62.5924 48.7374 62.2289V60.8572L48.9309 61.3848C48.755 61.9945 48.3974 62.481 47.8581 62.8444C47.3188 63.2079 46.6857 63.3896 45.9589 63.3896ZM46.5744 61.7189C47.0081 61.7189 47.3892 61.6134 47.7174 61.4024C48.0457 61.1914 48.2978 60.8807 48.4736 60.4703C48.6612 60.0483 48.755 59.5266 48.755 58.9052C48.755 57.9673 48.5557 57.2697 48.1571 56.8125C47.7585 56.3435 47.2309 56.1091 46.5744 56.1091C46.1406 56.1091 45.7595 56.2146 45.4313 56.4256C45.103 56.6249 44.8451 56.9356 44.6575 57.3576C44.4816 57.768 44.3937 58.2838 44.3937 58.9052C44.3937 59.8314 44.593 60.5348 44.9916 61.0155C45.3902 61.4845 45.9178 61.7189 46.5744 61.7189ZM57.119 63.3896C56.228 63.3896 55.4542 63.2079 54.7977 62.8444C54.1411 62.481 53.6312 61.9651 53.2677 61.2969C52.9043 60.6169 52.7226 59.8197 52.7226 58.9052C52.7226 58.2135 52.8222 57.598 53.0215 57.0587C53.2325 56.5077 53.5315 56.0387 53.9184 55.6518C54.3053 55.2532 54.7684 54.9542 55.3077 54.7549C55.847 54.5439 56.4508 54.4384 57.119 54.4384C58.01 54.4384 58.7838 54.6201 59.4404 54.9836C60.0969 55.347 60.6069 55.8628 60.9703 56.5311C61.3338 57.1994 61.5155 57.9907 61.5155 58.9052C61.5155 59.5969 61.41 60.2183 61.1989 60.7693C60.9996 61.3203 60.7065 61.7952 60.3197 62.1938C59.9328 62.5807 59.4697 62.8796 58.9304 63.0906C58.3911 63.29 57.7873 63.3896 57.119 63.3896ZM57.119 61.7189C57.5528 61.7189 57.9338 61.6134 58.2621 61.4024C58.5904 61.1914 58.8424 60.8807 59.0183 60.4703C59.2059 60.0483 59.2997 59.5266 59.2997 58.9052C59.2997 57.9673 59.1004 57.2697 58.7017 56.8125C58.3031 56.3435 57.7756 56.1091 57.119 56.1091C56.6852 56.1091 56.3042 56.2146 55.9759 56.4256C55.6477 56.6249 55.3897 56.9356 55.2022 57.3576C55.0263 57.768 54.9384 58.2838 54.9384 58.9052C54.9384 59.8314 55.1377 60.5348 55.5363 61.0155C55.9349 61.4845 56.4625 61.7189 57.119 61.7189ZM66.4777 63.3896C65.9736 63.3896 65.4402 63.3368 64.8774 63.2313C64.3147 63.1258 63.8105 62.9441 63.365 62.6862C63.1774 62.5689 63.0426 62.4341 62.9606 62.2817C62.8902 62.1176 62.8609 61.9593 62.8726 61.8069C62.8961 61.6427 62.9547 61.5021 63.0485 61.3848C63.154 61.2676 63.283 61.1914 63.4354 61.1562C63.5995 61.121 63.7754 61.1503 63.9629 61.2441C64.4319 61.4669 64.8716 61.6252 65.2819 61.7189C65.6922 61.801 66.0967 61.842 66.4953 61.842C67.0581 61.842 67.4743 61.7483 67.7439 61.5607C68.0253 61.3614 68.166 61.1034 68.166 60.7869C68.166 60.5172 68.0722 60.3121 67.8846 60.1714C67.7087 60.019 67.4391 59.9076 67.0756 59.8373L65.3171 59.5031C64.5902 59.3624 64.0333 59.0986 63.6464 58.7118C63.2712 58.3131 63.0837 57.8032 63.0837 57.1818C63.0837 56.619 63.2361 56.1325 63.5409 55.7222C63.8574 55.3118 64.2912 54.9953 64.8422 54.7725C65.3933 54.5498 66.0264 54.4384 66.7415 54.4384C67.2574 54.4384 67.7381 54.497 68.1836 54.6143C68.6408 54.7198 69.0804 54.8898 69.5025 55.1242C69.6784 55.218 69.7956 55.3411 69.8542 55.4935C69.9246 55.646 69.9421 55.8042 69.907 55.9684C69.8718 56.1208 69.8015 56.2615 69.6959 56.3904C69.5904 56.5077 69.4556 56.5839 69.2915 56.619C69.1391 56.6425 68.9632 56.6073 68.7639 56.5135C68.4005 56.3259 68.0487 56.1911 67.7087 56.1091C67.3805 56.027 67.0639 55.9859 66.7591 55.9859C66.1846 55.9859 65.7567 56.0856 65.4753 56.2849C65.2057 56.4842 65.0709 56.748 65.0709 57.0763C65.0709 57.3225 65.1529 57.5276 65.3171 57.6918C65.4812 57.8559 65.7333 57.9673 66.0733 58.0259L67.8318 58.36C68.5939 58.5007 69.1684 58.7587 69.5553 59.1338C69.9539 59.509 70.1532 60.0131 70.1532 60.6462C70.1532 61.5021 69.819 62.1762 69.1508 62.6686C68.4825 63.1493 67.5915 63.3896 66.4777 63.3896ZM79.6278 63.3896C78.6548 63.3896 77.922 63.1141 77.4296 62.5631C76.9372 62.0003 76.691 61.1796 76.691 60.101V51.7829C76.691 51.4195 76.7848 51.144 76.9724 50.9564C77.16 50.7688 77.4296 50.675 77.7813 50.675C78.133 50.675 78.4027 50.7688 78.5903 50.9564C78.7896 51.144 78.8892 51.4195 78.8892 51.7829V59.9955C78.8892 60.5348 79.0006 60.9334 79.2234 61.1914C79.4578 61.4493 79.7861 61.5783 80.2082 61.5783C80.302 61.5783 80.3899 61.5783 80.472 61.5783C80.554 61.5665 80.6361 61.5548 80.7182 61.5431C80.8823 61.5196 80.9937 61.5665 81.0523 61.6838C81.1109 61.7893 81.1402 62.012 81.1402 62.352C81.1402 62.6451 81.0816 62.8738 80.9644 63.0379C80.8471 63.202 80.6537 63.3017 80.384 63.3368C80.2668 63.3486 80.1437 63.3603 80.0147 63.372C79.8858 63.3837 79.7568 63.3896 79.6278 63.3896ZM86.1426 63.3896C85.2516 63.3896 84.4778 63.2079 83.8213 62.8444C83.1647 62.481 82.6547 61.9651 82.2913 61.2969C81.9278 60.6169 81.7461 59.8197 81.7461 58.9052C81.7461 58.2135 81.8458 57.598 82.0451 57.0587C82.2561 56.5077 82.5551 56.0387 82.942 55.6518C83.3288 55.2532 83.7919 54.9542 84.3312 54.7549C84.8705 54.5439 85.4743 54.4384 86.1426 54.4384C87.0336 54.4384 87.8074 54.6201 88.4639 54.9836C89.1205 55.347 89.6305 55.8628 89.9939 56.5311C90.3573 57.1994 90.5391 57.9907 90.5391 58.9052C90.5391 59.5969 90.4335 60.2183 90.2225 60.7693C90.0232 61.3203 89.7301 61.7952 89.3432 62.1938C88.9563 62.5807 88.4932 62.8796 87.9539 63.0906C87.4146 63.29 86.8109 63.3896 86.1426 63.3896ZM86.1426 61.7189C86.5764 61.7189 86.9574 61.6134 87.2857 61.4024C87.6139 61.1914 87.866 60.8807 88.0419 60.4703C88.2294 60.0483 88.3232 59.5266 88.3232 58.9052C88.3232 57.9673 88.1239 57.2697 87.7253 56.8125C87.3267 56.3435 86.7991 56.1091 86.1426 56.1091C85.7088 56.1091 85.3278 56.2146 84.9995 56.4256C84.6712 56.6249 84.4133 56.9356 84.2257 57.3576C84.0499 57.768 83.9619 58.2838 83.9619 58.9052C83.9619 59.8314 84.1612 60.5348 84.5599 61.0155C84.9585 61.4845 85.486 61.7189 86.1426 61.7189ZM95.5013 63.3896C94.9972 63.3896 94.4637 63.3368 93.901 63.2313C93.3382 63.1258 92.8341 62.9441 92.3886 62.6862C92.201 62.5689 92.0662 62.4341 91.9841 62.2817C91.9138 62.1176 91.8845 61.9593 91.8962 61.8069C91.9196 61.6427 91.9783 61.5021 92.0721 61.3848C92.1776 61.2676 92.3065 61.1914 92.4589 61.1562C92.6231 61.121 92.7989 61.1503 92.9865 61.2441C93.4555 61.4669 93.8951 61.6252 94.3055 61.7189C94.7158 61.801 95.1203 61.842 95.5189 61.842C96.0816 61.842 96.4978 61.7483 96.7675 61.5607C97.0489 61.3614 97.1895 61.1034 97.1895 60.7869C97.1895 60.5172 97.0958 60.3121 96.9082 60.1714C96.7323 60.019 96.4627 59.9076 96.0992 59.8373L94.3406 59.5031C93.6137 59.3624 93.0569 59.0986 92.67 58.7118C92.2948 58.3131 92.1072 57.8032 92.1072 57.1818C92.1072 56.619 92.2596 56.1325 92.5645 55.7222C92.881 55.3118 93.3148 54.9953 93.8658 54.7725C94.4168 54.5498 95.0499 54.4384 95.7651 54.4384C96.2809 54.4384 96.7616 54.497 97.2071 54.6143C97.6644 54.7198 98.104 54.8898 98.5261 55.1242C98.7019 55.218 98.8192 55.3411 98.8778 55.4935C98.9481 55.646 98.9657 55.8042 98.9305 55.9684C98.8954 56.1208 98.825 56.2615 98.7195 56.3904C98.614 56.5077 98.4792 56.5839 98.315 56.619C98.1626 56.6425 97.9868 56.6073 97.7875 56.5135C97.424 56.3259 97.0723 56.1911 96.7323 56.1091C96.404 56.027 96.0875 55.9859 95.7827 55.9859C95.2082 55.9859 94.7803 56.0856 94.4989 56.2849C94.2293 56.4842 94.0944 56.748 94.0944 57.0763C94.0944 57.3225 94.1765 57.5276 94.3406 57.6918C94.5048 57.8559 94.7568 57.9673 95.0968 58.0259L96.8554 58.36C97.6175 58.5007 98.1919 58.7587 98.5788 59.1338C98.9774 59.509 99.1767 60.0131 99.1767 60.6462C99.1767 61.5021 98.8426 62.1762 98.1744 62.6686C97.5061 63.1493 96.6151 63.3896 95.5013 63.3896ZM106.805 66.5199C106.453 66.5199 106.184 66.4261 105.996 66.2385C105.808 66.0509 105.715 65.7754 105.715 65.412V55.5815C105.715 55.218 105.808 54.9425 105.996 54.7549C106.184 54.5674 106.447 54.4736 106.787 54.4736C107.139 54.4736 107.409 54.5674 107.596 54.7549C107.784 54.9425 107.878 55.218 107.878 55.5815V56.9532L107.684 56.4256C107.86 55.8277 108.218 55.347 108.757 54.9836C109.308 54.6201 109.947 54.4384 110.674 54.4384C111.424 54.4384 112.081 54.6201 112.643 54.9836C113.218 55.347 113.663 55.8628 113.98 56.5311C114.296 57.1877 114.455 57.979 114.455 58.9052C114.455 59.8197 114.296 60.6169 113.98 61.2969C113.663 61.9651 113.224 62.481 112.661 62.8444C112.098 63.2079 111.436 63.3896 110.674 63.3896C109.959 63.3896 109.331 63.2137 108.792 62.862C108.253 62.4986 107.889 62.0296 107.702 61.4552H107.913V65.412C107.913 65.7754 107.813 66.0509 107.614 66.2385C107.426 66.4261 107.157 66.5199 106.805 66.5199ZM110.058 61.7189C110.492 61.7189 110.873 61.6134 111.201 61.4024C111.53 61.1914 111.782 60.8807 111.958 60.4703C112.145 60.0483 112.239 59.5266 112.239 58.9052C112.239 57.9673 112.04 57.2697 111.641 56.8125C111.242 56.3435 110.715 56.1091 110.058 56.1091C109.625 56.1091 109.243 56.2146 108.915 56.4256C108.587 56.6249 108.329 56.9356 108.141 57.3576C107.966 57.768 107.878 58.2838 107.878 58.9052C107.878 59.8314 108.077 60.5348 108.476 61.0155C108.874 61.4845 109.402 61.7189 110.058 61.7189ZM119.091 63.3896C118.469 63.3896 117.912 63.2724 117.42 63.0379C116.939 62.7917 116.558 62.4634 116.277 62.0531C116.007 61.6427 115.872 61.1796 115.872 60.6638C115.872 60.0307 116.036 59.5324 116.365 59.169C116.693 58.7938 117.226 58.5242 117.965 58.36C118.704 58.1959 119.694 58.1138 120.937 58.1138H121.816V59.38H120.955C120.228 59.38 119.647 59.4152 119.214 59.4855C118.78 59.5559 118.469 59.679 118.282 59.8548C118.106 60.019 118.018 60.2535 118.018 60.5583C118.018 60.9452 118.153 61.2617 118.422 61.5079C118.692 61.7541 119.067 61.8772 119.548 61.8772C119.935 61.8772 120.275 61.7893 120.568 61.6134C120.873 61.4258 121.113 61.1738 121.289 60.8572C121.465 60.5407 121.553 60.1772 121.553 59.7669V57.7445C121.553 57.1583 121.424 56.7363 121.166 56.4784C120.908 56.2204 120.474 56.0915 119.864 56.0915C119.524 56.0915 119.155 56.1325 118.756 56.2146C118.37 56.2966 117.959 56.4373 117.525 56.6366C117.303 56.7421 117.103 56.7715 116.927 56.7246C116.763 56.6777 116.634 56.5839 116.541 56.4432C116.447 56.2908 116.4 56.1266 116.4 55.9508C116.4 55.7749 116.447 55.6049 116.541 55.4408C116.634 55.2649 116.793 55.136 117.015 55.0539C117.555 54.8311 118.071 54.6729 118.563 54.5791C119.067 54.4853 119.524 54.4384 119.935 54.4384C120.779 54.4384 121.471 54.5674 122.01 54.8253C122.561 55.0832 122.971 55.476 123.241 56.0035C123.51 56.5194 123.645 57.1877 123.645 58.0083V62.2289C123.645 62.5924 123.557 62.8738 123.382 63.0731C123.206 63.2606 122.954 63.3544 122.625 63.3544C122.297 63.3544 122.039 63.2606 121.852 63.0731C121.676 62.8738 121.588 62.5924 121.588 62.2289V61.3848H121.728C121.646 61.7952 121.482 62.1527 121.236 62.4576C121.002 62.7507 120.703 62.9793 120.339 63.1434C119.976 63.3075 119.56 63.3896 119.091 63.3896ZM129.024 63.3896C128.52 63.3896 127.987 63.3368 127.424 63.2313C126.861 63.1258 126.357 62.9441 125.912 62.6862C125.724 62.5689 125.589 62.4341 125.507 62.2817C125.437 62.1176 125.408 61.9593 125.419 61.8069C125.443 61.6427 125.501 61.5021 125.595 61.3848C125.701 61.2676 125.83 61.1914 125.982 61.1562C126.146 61.121 126.322 61.1503 126.51 61.2441C126.979 61.4669 127.418 61.6252 127.829 61.7189C128.239 61.801 128.643 61.842 129.042 61.842C129.605 61.842 130.021 61.7483 130.291 61.5607C130.572 61.3614 130.713 61.1034 130.713 60.7869C130.713 60.5172 130.619 60.3121 130.431 60.1714C130.255 60.019 129.986 59.9076 129.622 59.8373L127.864 59.5031C127.137 59.3624 126.58 59.0986 126.193 58.7118C125.818 58.3131 125.63 57.8032 125.63 57.1818C125.63 56.619 125.783 56.1325 126.088 55.7222C126.404 55.3118 126.838 54.9953 127.389 54.7725C127.94 54.5498 128.573 54.4384 129.288 54.4384C129.804 54.4384 130.285 54.497 130.73 54.6143C131.187 54.7198 131.627 54.8898 132.049 55.1242C132.225 55.218 132.342 55.3411 132.401 55.4935C132.471 55.646 132.489 55.8042 132.454 55.9684C132.418 56.1208 132.348 56.2615 132.243 56.3904C132.137 56.5077 132.002 56.5839 131.838 56.619C131.686 56.6425 131.51 56.6073 131.311 56.5135C130.947 56.3259 130.595 56.1911 130.255 56.1091C129.927 56.027 129.611 55.9859 129.306 55.9859C128.731 55.9859 128.303 56.0856 128.022 56.2849C127.752 56.4842 127.618 56.748 127.618 57.0763C127.618 57.3225 127.7 57.5276 127.864 57.6918C128.028 57.8559 128.28 57.9673 128.62 58.0259L130.378 58.36C131.141 58.5007 131.715 58.7587 132.102 59.1338C132.501 59.509 132.7 60.0131 132.7 60.6462C132.7 61.5021 132.366 62.1762 131.697 62.6686C131.029 63.1493 130.138 63.3896 129.024 63.3896ZM138.385 63.3896C137.494 63.3896 136.72 63.2079 136.064 62.8444C135.407 62.481 134.897 61.9651 134.534 61.2969C134.17 60.6169 133.989 59.8197 133.989 58.9052C133.989 58.2135 134.088 57.598 134.288 57.0587C134.499 56.5077 134.797 56.0387 135.184 55.6518C135.571 55.2532 136.034 54.9542 136.574 54.7549C137.113 54.5439 137.717 54.4384 138.385 54.4384C139.276 54.4384 140.05 54.6201 140.706 54.9836C141.363 55.347 141.873 55.8628 142.236 56.5311C142.6 57.1994 142.781 57.9907 142.781 58.9052C142.781 59.5969 142.676 60.2183 142.465 60.7693C142.266 61.3203 141.973 61.7952 141.586 62.1938C141.199 62.5807 140.736 62.8796 140.196 63.0906C139.657 63.29 139.053 63.3896 138.385 63.3896ZM138.385 61.7189C138.819 61.7189 139.2 61.6134 139.528 61.4024C139.856 61.1914 140.108 60.8807 140.284 60.4703C140.472 60.0483 140.566 59.5266 140.566 58.9052C140.566 57.9673 140.366 57.2697 139.968 56.8125C139.569 56.3435 139.042 56.1091 138.385 56.1091C137.951 56.1091 137.57 56.2146 137.242 56.4256C136.914 56.6249 136.656 56.9356 136.468 57.3576C136.292 57.768 136.204 58.2838 136.204 58.9052C136.204 59.8314 136.404 60.5348 136.802 61.0155C137.201 61.4845 137.728 61.7189 138.385 61.7189ZM147.744 63.3896C147.24 63.3896 146.706 63.3368 146.143 63.2313C145.581 63.1258 145.077 62.9441 144.631 62.6862C144.443 62.5689 144.309 62.4341 144.227 62.2817C144.156 62.1176 144.127 61.9593 144.139 61.8069C144.162 61.6427 144.221 61.5021 144.314 61.3848C144.42 61.2676 144.549 61.1914 144.701 61.1562C144.866 61.121 145.041 61.1503 145.229 61.2441C145.698 61.4669 146.138 61.6252 146.548 61.7189C146.958 61.801 147.363 61.842 147.761 61.842C148.324 61.842 148.74 61.7483 149.01 61.5607C149.291 61.3614 149.432 61.1034 149.432 60.7869C149.432 60.5172 149.338 60.3121 149.151 60.1714C148.975 60.019 148.705 59.9076 148.342 59.8373L146.583 59.5031C145.856 59.3624 145.299 59.0986 144.912 58.7118C144.537 58.3131 144.35 57.8032 144.35 57.1818C144.35 56.619 144.502 56.1325 144.807 55.7222C145.123 55.3118 145.557 54.9953 146.108 54.7725C146.659 54.5498 147.292 54.4384 148.008 54.4384C148.523 54.4384 149.004 54.497 149.45 54.6143C149.907 54.7198 150.346 54.8898 150.768 55.1242C150.944 55.218 151.062 55.3411 151.12 55.4935C151.191 55.646 151.208 55.8042 151.173 55.9684C151.138 56.1208 151.067 56.2615 150.962 56.3904C150.856 56.5077 150.722 56.5839 150.557 56.619C150.405 56.6425 150.229 56.6073 150.03 56.5135C149.666 56.3259 149.315 56.1911 148.975 56.1091C148.646 56.027 148.33 55.9859 148.025 55.9859C147.451 55.9859 147.023 56.0856 146.741 56.2849C146.472 56.4842 146.337 56.748 146.337 57.0763C146.337 57.3225 146.419 57.5276 146.583 57.6918C146.747 57.8559 146.999 57.9673 147.339 58.0259L149.098 58.36C149.86 58.5007 150.434 58.7587 150.821 59.1338C151.22 59.509 151.419 60.0131 151.419 60.6462C151.419 61.5021 151.085 62.1762 150.417 62.6686C149.749 63.1493 148.857 63.3896 147.744 63.3896Z" fill="#38485C"/>
<rect x="24.7137" y="84.0229" width="272.573" height="45.2137" rx="7.40458" fill="#FFDB2E"/>
<path d="M109.349 112.263C109.005 112.263 108.738 112.169 108.549 111.98C108.372 111.78 108.283 111.508 108.283 111.163V101.351C108.283 100.995 108.372 100.723 108.549 100.534C108.738 100.345 109.005 100.251 109.349 100.251C109.693 100.251 109.954 100.345 110.132 100.534C110.321 100.723 110.415 100.995 110.415 101.351V111.163C110.415 111.508 110.327 111.78 110.149 111.98C109.971 112.169 109.705 112.263 109.349 112.263ZM113.818 112.263C113.485 112.263 113.229 112.174 113.051 111.996C112.874 111.808 112.785 111.541 112.785 111.197V104.899C112.785 104.555 112.874 104.294 113.051 104.116C113.229 103.938 113.479 103.85 113.801 103.85C114.123 103.85 114.373 103.938 114.551 104.116C114.729 104.294 114.817 104.555 114.817 104.899V106.032L114.634 105.616C114.879 105.027 115.256 104.583 115.767 104.283C116.289 103.972 116.878 103.816 117.533 103.816C118.188 103.816 118.727 103.938 119.149 104.183C119.571 104.427 119.888 104.799 120.099 105.299C120.31 105.788 120.415 106.41 120.415 107.165V111.197C120.415 111.541 120.326 111.808 120.149 111.996C119.971 112.174 119.716 112.263 119.382 112.263C119.049 112.263 118.788 112.174 118.599 111.996C118.422 111.808 118.333 111.541 118.333 111.197V107.265C118.333 106.632 118.211 106.171 117.966 105.882C117.733 105.593 117.366 105.449 116.867 105.449C116.256 105.449 115.767 105.643 115.401 106.032C115.045 106.41 114.867 106.915 114.867 107.548V111.197C114.867 111.908 114.518 112.263 113.818 112.263ZM123.563 112.246C123.23 112.246 122.975 112.146 122.797 111.946C122.619 111.747 122.531 111.469 122.531 111.113V104.999C122.531 104.633 122.619 104.355 122.797 104.166C122.975 103.966 123.23 103.866 123.563 103.866C123.897 103.866 124.152 103.966 124.33 104.166C124.519 104.355 124.613 104.633 124.613 104.999V111.113C124.613 111.469 124.524 111.747 124.347 111.946C124.169 112.146 123.908 112.246 123.563 112.246ZM123.563 102.317C123.175 102.317 122.869 102.222 122.647 102.034C122.436 101.834 122.331 101.562 122.331 101.217C122.331 100.862 122.436 100.59 122.647 100.401C122.869 100.212 123.175 100.118 123.563 100.118C123.963 100.118 124.269 100.212 124.48 100.401C124.691 100.59 124.796 100.862 124.796 101.217C124.796 101.562 124.691 101.834 124.48 102.034C124.269 102.222 123.963 102.317 123.563 102.317ZM130.542 112.296C129.687 112.296 128.943 112.124 128.31 111.78C127.677 111.424 127.188 110.925 126.844 110.28C126.499 109.636 126.327 108.881 126.327 108.015C126.327 107.359 126.422 106.776 126.61 106.265C126.81 105.743 127.094 105.305 127.46 104.949C127.827 104.583 128.271 104.305 128.793 104.116C129.315 103.916 129.898 103.816 130.542 103.816C130.909 103.816 131.303 103.866 131.725 103.966C132.158 104.066 132.564 104.233 132.941 104.466C133.119 104.577 133.236 104.71 133.291 104.866C133.347 105.021 133.358 105.182 133.324 105.349C133.291 105.505 133.219 105.643 133.108 105.766C133.008 105.877 132.88 105.949 132.725 105.982C132.569 106.004 132.397 105.965 132.208 105.865C131.964 105.721 131.714 105.616 131.459 105.549C131.203 105.471 130.959 105.432 130.725 105.432C130.359 105.432 130.037 105.493 129.759 105.616C129.481 105.727 129.243 105.893 129.043 106.115C128.854 106.326 128.71 106.593 128.61 106.915C128.51 107.237 128.46 107.609 128.46 108.031C128.46 108.853 128.654 109.503 129.043 109.981C129.443 110.447 130.004 110.68 130.725 110.68C130.959 110.68 131.197 110.647 131.442 110.58C131.697 110.514 131.953 110.408 132.208 110.264C132.397 110.164 132.564 110.131 132.708 110.164C132.864 110.197 132.991 110.275 133.091 110.397C133.191 110.508 133.252 110.647 133.274 110.814C133.297 110.969 133.274 111.125 133.208 111.28C133.152 111.436 133.041 111.563 132.875 111.663C132.508 111.885 132.119 112.046 131.708 112.146C131.297 112.246 130.909 112.296 130.542 112.296ZM135.668 112.246C135.335 112.246 135.08 112.146 134.902 111.946C134.724 111.747 134.635 111.469 134.635 111.113V104.999C134.635 104.633 134.724 104.355 134.902 104.166C135.08 103.966 135.335 103.866 135.668 103.866C136.001 103.866 136.257 103.966 136.435 104.166C136.623 104.355 136.718 104.633 136.718 104.999V111.113C136.718 111.469 136.629 111.747 136.451 111.946C136.274 112.146 136.013 112.246 135.668 112.246ZM135.668 102.317C135.279 102.317 134.974 102.222 134.752 102.034C134.541 101.834 134.435 101.562 134.435 101.217C134.435 100.862 134.541 100.59 134.752 100.401C134.974 100.212 135.279 100.118 135.668 100.118C136.068 100.118 136.374 100.212 136.585 100.401C136.796 100.59 136.901 100.862 136.901 101.217C136.901 101.562 136.796 101.834 136.585 102.034C136.374 102.222 136.068 102.317 135.668 102.317ZM141.564 112.296C140.975 112.296 140.448 112.185 139.981 111.963C139.526 111.73 139.165 111.419 138.898 111.03C138.643 110.641 138.515 110.203 138.515 109.714C138.515 109.114 138.671 108.642 138.982 108.298C139.293 107.942 139.798 107.687 140.498 107.532C141.197 107.376 142.136 107.298 143.313 107.298H144.146V108.498H143.33C142.641 108.498 142.092 108.531 141.681 108.598C141.27 108.664 140.975 108.781 140.798 108.948C140.631 109.103 140.548 109.325 140.548 109.614C140.548 109.981 140.675 110.28 140.931 110.514C141.186 110.747 141.542 110.864 141.997 110.864C142.364 110.864 142.686 110.78 142.963 110.614C143.252 110.436 143.48 110.197 143.647 109.897C143.813 109.597 143.896 109.253 143.896 108.864V106.948C143.896 106.393 143.774 105.993 143.53 105.749C143.286 105.505 142.875 105.382 142.297 105.382C141.975 105.382 141.625 105.421 141.247 105.499C140.881 105.577 140.492 105.71 140.081 105.899C139.87 105.999 139.681 106.027 139.515 105.982C139.359 105.938 139.237 105.849 139.148 105.716C139.059 105.571 139.015 105.416 139.015 105.249C139.015 105.082 139.059 104.921 139.148 104.766C139.237 104.599 139.387 104.477 139.598 104.399C140.109 104.188 140.598 104.038 141.064 103.95C141.542 103.861 141.975 103.816 142.364 103.816C143.163 103.816 143.819 103.938 144.33 104.183C144.852 104.427 145.24 104.799 145.496 105.299C145.751 105.788 145.879 106.421 145.879 107.198V111.197C145.879 111.541 145.796 111.808 145.629 111.996C145.463 112.174 145.224 112.263 144.913 112.263C144.602 112.263 144.357 112.174 144.18 111.996C144.013 111.808 143.93 111.541 143.93 111.197V110.397H144.063C143.985 110.786 143.83 111.125 143.597 111.413C143.374 111.691 143.091 111.908 142.747 112.063C142.403 112.219 142.008 112.296 141.564 112.296ZM149.059 112.263C148.715 112.263 148.448 112.174 148.259 111.996C148.082 111.808 147.993 111.541 147.993 111.197V104.899C147.993 104.555 148.082 104.294 148.259 104.116C148.437 103.938 148.687 103.85 149.009 103.85C149.331 103.85 149.581 103.938 149.759 104.116C149.937 104.294 150.025 104.555 150.025 104.899V105.949H149.859C150.014 105.282 150.32 104.777 150.775 104.433C151.23 104.088 151.836 103.883 152.591 103.816C152.824 103.794 153.008 103.855 153.141 104C153.285 104.133 153.369 104.344 153.391 104.633C153.413 104.91 153.346 105.138 153.191 105.316C153.046 105.482 152.824 105.582 152.524 105.616L152.158 105.649C151.48 105.716 150.969 105.927 150.625 106.282C150.281 106.626 150.109 107.115 150.109 107.748V111.197C150.109 111.541 150.02 111.808 149.842 111.996C149.664 112.174 149.403 112.263 149.059 112.263ZM162.772 112.296C162.05 112.296 161.445 112.174 160.956 111.93C160.478 111.685 160.123 111.33 159.89 110.864C159.656 110.386 159.54 109.797 159.54 109.098V105.549H158.673C158.407 105.549 158.201 105.482 158.057 105.349C157.913 105.205 157.84 105.01 157.84 104.766C157.84 104.51 157.913 104.316 158.057 104.183C158.201 104.05 158.407 103.983 158.673 103.983H159.54V102.467C159.54 102.122 159.629 101.861 159.806 101.684C159.995 101.506 160.256 101.417 160.589 101.417C160.923 101.417 161.178 101.506 161.356 101.684C161.534 101.861 161.622 102.122 161.622 102.467V103.983H163.388C163.655 103.983 163.86 104.05 164.005 104.183C164.149 104.316 164.221 104.51 164.221 104.766C164.221 105.01 164.149 105.205 164.005 105.349C163.86 105.482 163.655 105.549 163.388 105.549H161.622V108.981C161.622 109.514 161.739 109.914 161.972 110.181C162.205 110.447 162.583 110.58 163.105 110.58C163.294 110.58 163.461 110.564 163.605 110.53C163.749 110.497 163.877 110.475 163.988 110.464C164.121 110.453 164.232 110.497 164.321 110.597C164.41 110.686 164.455 110.875 164.455 111.163C164.455 111.386 164.416 111.586 164.338 111.763C164.271 111.93 164.144 112.046 163.955 112.113C163.81 112.158 163.622 112.196 163.388 112.23C163.155 112.274 162.95 112.296 162.772 112.296ZM166.5 112.263C166.156 112.263 165.889 112.174 165.701 111.996C165.523 111.808 165.434 111.541 165.434 111.197V104.899C165.434 104.555 165.523 104.294 165.701 104.116C165.878 103.938 166.128 103.85 166.45 103.85C166.772 103.85 167.022 103.938 167.2 104.116C167.378 104.294 167.467 104.555 167.467 104.899V105.949H167.3C167.456 105.282 167.761 104.777 168.216 104.433C168.672 104.088 169.277 103.883 170.032 103.816C170.266 103.794 170.449 103.855 170.582 104C170.726 104.133 170.81 104.344 170.832 104.633C170.854 104.91 170.788 105.138 170.632 105.316C170.488 105.482 170.266 105.582 169.966 105.616L169.599 105.649C168.922 105.716 168.411 105.927 168.066 106.282C167.722 106.626 167.55 107.115 167.55 107.748V111.197C167.55 111.541 167.461 111.808 167.283 111.996C167.106 112.174 166.845 112.263 166.5 112.263ZM174.641 112.296C174.052 112.296 173.524 112.185 173.058 111.963C172.602 111.73 172.241 111.419 171.975 111.03C171.719 110.641 171.592 110.203 171.592 109.714C171.592 109.114 171.747 108.642 172.058 108.298C172.369 107.942 172.875 107.687 173.574 107.532C174.274 107.376 175.213 107.298 176.39 107.298H177.223V108.498H176.407C175.718 108.498 175.168 108.531 174.757 108.598C174.346 108.664 174.052 108.781 173.874 108.948C173.708 109.103 173.624 109.325 173.624 109.614C173.624 109.981 173.752 110.28 174.007 110.514C174.263 110.747 174.618 110.864 175.074 110.864C175.44 110.864 175.762 110.78 176.04 110.614C176.329 110.436 176.557 110.197 176.723 109.897C176.89 109.597 176.973 109.253 176.973 108.864V106.948C176.973 106.393 176.851 105.993 176.606 105.749C176.362 105.505 175.951 105.382 175.374 105.382C175.052 105.382 174.702 105.421 174.324 105.499C173.958 105.577 173.569 105.71 173.158 105.899C172.947 105.999 172.758 106.027 172.591 105.982C172.436 105.938 172.314 105.849 172.225 105.716C172.136 105.571 172.092 105.416 172.092 105.249C172.092 105.082 172.136 104.921 172.225 104.766C172.314 104.599 172.464 104.477 172.675 104.399C173.186 104.188 173.674 104.038 174.141 103.95C174.618 103.861 175.052 103.816 175.44 103.816C176.24 103.816 176.895 103.938 177.406 104.183C177.928 104.427 178.317 104.799 178.572 105.299C178.828 105.788 178.956 106.421 178.956 107.198V111.197C178.956 111.541 178.872 111.808 178.706 111.996C178.539 112.174 178.3 112.263 177.989 112.263C177.678 112.263 177.434 112.174 177.256 111.996C177.09 111.808 177.006 111.541 177.006 111.197V110.397H177.14C177.062 110.786 176.906 111.125 176.673 111.413C176.451 111.691 176.168 111.908 175.823 112.063C175.479 112.219 175.085 112.296 174.641 112.296ZM176.307 102.8C176.196 102.955 176.062 103.044 175.907 103.067C175.751 103.089 175.601 103.061 175.457 102.983C175.313 102.906 175.207 102.794 175.14 102.65C175.085 102.506 175.102 102.345 175.19 102.167L176.457 99.6845C176.557 99.4735 176.69 99.3402 176.856 99.2847C177.023 99.218 177.195 99.2069 177.373 99.2513C177.551 99.2958 177.701 99.3791 177.823 99.5012C177.956 99.6234 178.034 99.7734 178.056 99.9511C178.089 100.118 178.045 100.29 177.923 100.468L176.307 102.8ZM182.136 112.263C181.802 112.263 181.547 112.174 181.369 111.996C181.192 111.808 181.103 111.541 181.103 111.197V104.899C181.103 104.555 181.192 104.294 181.369 104.116C181.547 103.938 181.797 103.85 182.119 103.85C182.441 103.85 182.691 103.938 182.869 104.116C183.046 104.294 183.135 104.555 183.135 104.899V106.115L182.952 105.616C183.174 105.06 183.518 104.622 183.985 104.299C184.451 103.977 185.007 103.816 185.651 103.816C186.306 103.816 186.845 103.972 187.267 104.283C187.689 104.594 187.983 105.071 188.15 105.716H187.917C188.139 105.127 188.505 104.666 189.016 104.333C189.527 103.988 190.116 103.816 190.782 103.816C191.404 103.816 191.915 103.938 192.315 104.183C192.726 104.427 193.031 104.799 193.231 105.299C193.431 105.788 193.531 106.41 193.531 107.165V111.197C193.531 111.541 193.437 111.808 193.248 111.996C193.07 112.174 192.815 112.263 192.482 112.263C192.148 112.263 191.893 112.174 191.715 111.996C191.538 111.808 191.449 111.541 191.449 111.197V107.248C191.449 106.626 191.343 106.171 191.132 105.882C190.932 105.593 190.588 105.449 190.099 105.449C189.555 105.449 189.127 105.643 188.816 106.032C188.505 106.41 188.35 106.937 188.35 107.615V111.197C188.35 111.541 188.261 111.808 188.083 111.996C187.906 112.174 187.65 112.263 187.317 112.263C186.984 112.263 186.723 112.174 186.534 111.996C186.356 111.808 186.267 111.541 186.267 111.197V107.248C186.267 106.626 186.162 106.171 185.951 105.882C185.751 105.593 185.412 105.449 184.935 105.449C184.39 105.449 183.963 105.643 183.652 106.032C183.341 106.41 183.185 106.937 183.185 107.615V111.197C183.185 111.908 182.835 112.263 182.136 112.263ZM196.713 112.246C196.379 112.246 196.124 112.146 195.946 111.946C195.769 111.747 195.68 111.469 195.68 111.113V104.999C195.68 104.633 195.769 104.355 195.946 104.166C196.124 103.966 196.379 103.866 196.713 103.866C197.046 103.866 197.301 103.966 197.479 104.166C197.668 104.355 197.762 104.633 197.762 104.999V111.113C197.762 111.469 197.673 111.747 197.496 111.946C197.318 112.146 197.057 112.246 196.713 112.246ZM196.713 102.317C196.324 102.317 196.018 102.222 195.796 102.034C195.585 101.834 195.48 101.562 195.48 101.217C195.48 100.862 195.585 100.59 195.796 100.401C196.018 100.212 196.324 100.118 196.713 100.118C197.112 100.118 197.418 100.212 197.629 100.401C197.84 100.59 197.945 100.862 197.945 101.217C197.945 101.562 197.84 101.834 197.629 102.034C197.418 102.222 197.112 102.317 196.713 102.317ZM203.658 112.296C202.936 112.296 202.331 112.174 201.842 111.93C201.364 111.685 201.009 111.33 200.776 110.864C200.543 110.386 200.426 109.797 200.426 109.098V105.549H199.56C199.293 105.549 199.088 105.482 198.943 105.349C198.799 105.205 198.727 105.01 198.727 104.766C198.727 104.51 198.799 104.316 198.943 104.183C199.088 104.05 199.293 103.983 199.56 103.983H200.426V102.467C200.426 102.122 200.515 101.861 200.692 101.684C200.881 101.506 201.142 101.417 201.476 101.417C201.809 101.417 202.064 101.506 202.242 101.684C202.42 101.861 202.508 102.122 202.508 102.467V103.983H204.274C204.541 103.983 204.746 104.05 204.891 104.183C205.035 104.316 205.107 104.51 205.107 104.766C205.107 105.01 205.035 105.205 204.891 105.349C204.746 105.482 204.541 105.549 204.274 105.549H202.508V108.981C202.508 109.514 202.625 109.914 202.858 110.181C203.092 110.447 203.469 110.58 203.991 110.58C204.18 110.58 204.347 110.564 204.491 110.53C204.635 110.497 204.763 110.475 204.874 110.464C205.007 110.453 205.119 110.497 205.207 110.597C205.296 110.686 205.341 110.875 205.341 111.163C205.341 111.386 205.302 111.586 205.224 111.763C205.157 111.93 205.03 112.046 204.841 112.113C204.697 112.158 204.508 112.196 204.274 112.23C204.041 112.274 203.836 112.296 203.658 112.296ZM210.254 112.296C209.332 112.296 208.538 112.124 207.872 111.78C207.205 111.436 206.689 110.947 206.322 110.314C205.967 109.681 205.789 108.931 205.789 108.065C205.789 107.221 205.961 106.482 206.305 105.849C206.661 105.216 207.144 104.721 207.755 104.366C208.377 104 209.082 103.816 209.871 103.816C210.448 103.816 210.965 103.911 211.42 104.099C211.887 104.288 212.281 104.56 212.603 104.916C212.936 105.271 213.186 105.704 213.353 106.215C213.53 106.715 213.619 107.282 213.619 107.915C213.619 108.115 213.547 108.27 213.403 108.381C213.269 108.481 213.075 108.531 212.82 108.531H207.472V107.332H212.153L211.887 107.581C211.887 107.071 211.809 106.643 211.653 106.299C211.509 105.954 211.292 105.693 211.004 105.516C210.726 105.327 210.376 105.232 209.954 105.232C209.488 105.232 209.088 105.343 208.755 105.566C208.432 105.777 208.182 106.082 208.005 106.482C207.838 106.871 207.755 107.337 207.755 107.881V107.998C207.755 108.909 207.966 109.592 208.388 110.047C208.821 110.491 209.454 110.714 210.287 110.714C210.576 110.714 210.898 110.68 211.254 110.614C211.62 110.536 211.964 110.408 212.286 110.23C212.52 110.097 212.725 110.042 212.903 110.064C213.081 110.075 213.219 110.136 213.319 110.247C213.43 110.358 213.497 110.497 213.519 110.664C213.542 110.819 213.508 110.98 213.419 111.147C213.342 111.313 213.203 111.458 213.003 111.58C212.614 111.824 212.164 112.008 211.653 112.13C211.154 112.241 210.687 112.296 210.254 112.296Z" fill="#38485C"/>
</svg>
