<svg width="224" height="367" viewBox="0 0 224 367" fill="none" xmlns="http://www.w3.org/2000/svg">
<g clip-path="url(#clip0_5542_1451)">
<rect x="4.28516" y="4.39301" width="215.43" height="358.634" fill="white"/>
<rect x="16.7372" y="4.39301" width="92.1491" height="361.125" fill="#DCECFB" fill-opacity="0.7"/>
<rect x="116.358" y="4.39301" width="92.1491" height="361.125" fill="#DCECFB" fill-opacity="0.7"/>
<rect x="17.3598" y="71.0144" width="190.525" height="119.545" rx="9.33944" fill="#F3F6F9" stroke="#E6EBF0" stroke-width="1.24526"/>
<rect width="164.374" height="79.6965" transform="translate(30.435 91.5611)" fill="#F3F6F9"/>
<rect x="30.435" y="91.5611" width="156.903" height="9.96207" rx="4.98103" fill="#38485C"/>
<rect x="30.435" y="106.504" width="133.243" height="8.71681" rx="4.3584" fill="#9EAAB8"/>
<rect x="30.435" y="120.202" width="122.035" height="8.71681" rx="4.3584" fill="#9EAAB8"/>
<rect x="30.435" y="143.862" width="164.374" height="27.3957" rx="4.98103" fill="#FFDB2E"/>
<rect x="4.28516" y="4.39301" width="215.43" height="49.8103" fill="#F3F6F9"/>
<rect x="16.7383" y="26.8711" width="45.3839" height="6.90624" rx="3.45312" fill="#505E70"/>
<rect x="68.2879" y="27.1177" width="36.0111" height="6.41294" rx="3.20647" stroke="#505E70" stroke-width="0.493303"/>
<rect x="108.742" y="27.1177" width="36.0111" height="6.41294" rx="3.20647" stroke="#505E70" stroke-width="0.493303"/>
<rect x="16.7377" y="208.615" width="114.564" height="16.1884" rx="8.09418" fill="#505E70"/>
<rect x="16.7377" y="243.482" width="191.77" height="10.8841" rx="5.44206" fill="#505E70"/>
<path d="M20.7263 280.245L19.1526 278.671C18.9758 278.494 18.6901 278.494 18.5132 278.671C18.3363 278.848 18.3363 279.134 18.5132 279.311L20.4089 281.206C20.5857 281.383 20.8714 281.383 21.0483 281.206L25.8464 276.408C26.0233 276.231 26.0233 275.946 25.8464 275.769C25.6695 275.592 25.3838 275.592 25.2069 275.769L20.7263 280.245Z" fill="#38485C"/>
<rect x="38.506" y="274.406" width="104.003" height="8.16309" rx="4.08155" fill="#505E70"/>
<path d="M20.7263 297.932L19.1526 296.358C18.9758 296.181 18.6901 296.181 18.5132 296.358C18.3363 296.535 18.3363 296.821 18.5132 296.997L20.4089 298.893C20.5857 299.07 20.8714 299.07 21.0483 298.893L25.8464 294.095C26.0233 293.918 26.0233 293.632 25.8464 293.456C25.6695 293.279 25.3838 293.279 25.2069 293.456L20.7263 297.932Z" fill="#38485C"/>
<rect x="38.506" y="292.093" width="170.002" height="8.16309" rx="4.08155" fill="#505E70"/>
<path d="M20.7263 315.618L19.1526 314.045C18.9758 313.868 18.6901 313.868 18.5132 314.045C18.3363 314.221 18.3363 314.507 18.5132 314.684L20.4089 316.58C20.5857 316.757 20.8714 316.757 21.0483 316.58L25.8464 311.782C26.0233 311.605 26.0233 311.319 25.8464 311.142C25.6695 310.965 25.3838 310.965 25.2069 311.142L20.7263 315.618Z" fill="#38485C"/>
<rect x="38.506" y="309.779" width="113.965" height="8.16309" rx="4.08155" fill="#505E70"/>
<path d="M20.7263 333.305L19.1526 331.731C18.9758 331.554 18.6901 331.554 18.5132 331.731C18.3363 331.908 18.3363 332.194 18.5132 332.371L20.4089 334.266C20.5857 334.443 20.8714 334.443 21.0483 334.266L25.8464 329.468C26.0233 329.291 26.0233 329.006 25.8464 328.829C25.6695 328.652 25.3838 328.652 25.2069 328.829L20.7263 333.305Z" fill="#38485C"/>
<rect x="38.506" y="327.466" width="146.342" height="8.16309" rx="4.08155" fill="#505E70"/>
<path d="M20.7263 350.992L19.1526 349.418C18.9758 349.241 18.6901 349.241 18.5132 349.418C18.3363 349.595 18.3363 349.881 18.5132 350.057L20.4089 351.953C20.5857 352.13 20.8714 352.13 21.0483 351.953L25.8464 347.155C26.0233 346.978 26.0233 346.692 25.8464 346.516C25.6695 346.339 25.3838 346.339 25.2069 346.516L20.7263 350.992Z" fill="#38485C"/>
<rect x="38.506" y="345.153" width="91.5502" height="8.16309" rx="4.08155" fill="#505E70"/>
<rect x="38.506" y="362.839" width="160.039" height="8.16309" rx="4.08155" fill="#505E70"/>
</g>
<rect x="2.41727" y="2.52512" width="219.165" height="362.37" rx="11.83" stroke="#E6EBF0" stroke-width="3.73577"/>
<defs>
<clipPath id="clip0_5542_1451">
<rect x="4.28516" y="4.39301" width="215.43" height="358.634" rx="9.96207" fill="white"/>
</clipPath>
</defs>
</svg>
