<svg width="708" height="306" viewBox="0 0 708 306" fill="none" xmlns="http://www.w3.org/2000/svg">
<g clip-path="url(#clip0_5542_1399)">
<rect x="3.5" y="3.42047" width="701" height="298.973" fill="white"/>
<rect x="77.1126" y="3.4205" width="31.7092" height="298.973" fill="#DCECFB" fill-opacity="0.7"/>
<rect x="124.677" y="3.4205" width="31.7092" height="298.973" fill="#DCECFB" fill-opacity="0.7"/>
<rect x="172.237" y="3.4205" width="31.7092" height="298.973" fill="#DCECFB" fill-opacity="0.7"/>
<rect x="219.805" y="3.4205" width="31.7092" height="298.973" fill="#DCECFB" fill-opacity="0.7"/>
<rect x="267.369" y="3.4205" width="31.7092" height="298.973" fill="#DCECFB" fill-opacity="0.7"/>
<rect x="314.933" y="3.4205" width="31.7092" height="298.973" fill="#DCECFB" fill-opacity="0.7"/>
<rect x="362.494" y="3.4205" width="31.7092" height="298.973" fill="#DCECFB" fill-opacity="0.7"/>
<rect x="410.058" y="3.4205" width="31.7092" height="298.973" fill="#DCECFB" fill-opacity="0.7"/>
<rect x="457.622" y="3.4205" width="31.7092" height="298.973" fill="#DCECFB" fill-opacity="0.7"/>
<rect x="505.19" y="3.4205" width="31.7092" height="298.973" fill="#DCECFB" fill-opacity="0.7"/>
<rect x="552.75" y="3.4205" width="31.7092" height="298.973" fill="#DCECFB" fill-opacity="0.7"/>
<rect x="600.314" y="3.4205" width="31.7092" height="298.973" fill="#DCECFB" fill-opacity="0.7"/>
<rect x="458.182" y="100.247" width="173.268" height="108.717" rx="8.49354" fill="#F3F6F9" stroke="#E6EBF0" stroke-width="1.13247"/>
<rect width="149.486" height="72.4782" transform="translate(470.074 118.933)" fill="#F3F6F9"/>
<rect x="470.074" y="118.933" width="142.691" height="9.05977" rx="4.52989" fill="#38485C"/>
<rect x="470.074" y="132.522" width="121.174" height="7.9273" rx="3.96365" fill="#9EAAB8"/>
<rect x="470.074" y="144.98" width="110.982" height="7.9273" rx="3.96365" fill="#9EAAB8"/>
<rect x="470.074" y="166.497" width="149.486" height="24.9144" rx="4.52989" fill="#FFDB2E"/>
<rect x="3.5" y="3.42047" width="701" height="69.0808" fill="#F3F6F9"/>
<rect x="77.111" y="44.1895" width="52.0937" height="7.9273" rx="3.96365" fill="#505E70"/>
<rect x="78.2799" y="105.452" width="95.3611" height="13.4749" rx="6.73747" fill="#505E70"/>
<rect x="77.111" y="143.847" width="174.401" height="9.05977" rx="4.52989" fill="#505E70"/>
<rect x="136.282" y="44.4726" width="41.3352" height="7.36107" rx="3.68053" stroke="#505E70" stroke-width="0.566236"/>
<rect x="182.716" y="44.4726" width="41.3352" height="7.36107" rx="3.68053" stroke="#505E70" stroke-width="0.566236"/>
<path d="M80.431 186.079L79.1211 184.769C78.9739 184.622 78.7361 184.622 78.5888 184.769C78.4416 184.916 78.4416 185.154 78.5888 185.301L80.1668 186.879C80.314 187.026 80.5518 187.026 80.699 186.879L84.6929 182.885C84.8401 182.738 84.8401 182.5 84.6929 182.353C84.5456 182.206 84.3078 182.206 84.1606 182.353L80.431 186.079Z" fill="#38485C"/>
<rect x="95.2305" y="181.219" width="220.832" height="6.79483" rx="3.39742" fill="#505E70"/>
<path d="M80.431 200.801L79.1211 199.491C78.9739 199.344 78.7361 199.344 78.5888 199.491C78.4416 199.638 78.4416 199.876 78.5888 200.023L80.1668 201.601C80.314 201.748 80.5518 201.748 80.699 201.601L84.6929 197.607C84.8401 197.46 84.8401 197.222 84.6929 197.075C84.5456 196.928 84.3078 196.928 84.1606 197.075L80.431 200.801Z" fill="#38485C"/>
<rect x="95.2305" y="195.941" width="345.404" height="6.79483" rx="3.39742" fill="#505E70"/>
<path d="M80.431 215.523L79.1211 214.213C78.9739 214.066 78.7361 214.066 78.5888 214.213C78.4416 214.36 78.4416 214.598 78.5888 214.746L80.1668 216.323C80.314 216.471 80.5518 216.471 80.699 216.323L84.6929 212.33C84.8401 212.182 84.8401 211.945 84.6929 211.797C84.5456 211.65 84.3078 211.65 84.1606 211.797L80.431 215.523Z" fill="#38485C"/>
<rect x="95.2305" y="210.663" width="238.952" height="6.79483" rx="3.39742" fill="#505E70"/>
<path d="M80.431 230.245L79.1211 228.935C78.9739 228.788 78.7361 228.788 78.5888 228.935C78.4416 229.083 78.4416 229.32 78.5888 229.468L80.1668 231.046C80.314 231.193 80.5518 231.193 80.699 231.046L84.6929 227.052C84.8401 226.904 84.8401 226.667 84.6929 226.519C84.5456 226.372 84.3078 226.372 84.1606 226.519L80.431 230.245Z" fill="#38485C"/>
<rect x="95.2305" y="225.385" width="300.105" height="6.79483" rx="3.39742" fill="#505E70"/>
<path d="M80.431 244.967L79.1211 243.658C78.9739 243.51 78.7361 243.51 78.5888 243.658C78.4416 243.805 78.4416 244.043 78.5888 244.19L80.1668 245.768C80.314 245.915 80.5518 245.915 80.699 245.768L84.6929 241.774C84.8401 241.627 84.8401 241.389 84.6929 241.242C84.5456 241.094 84.3078 241.094 84.1606 241.242L80.431 244.967Z" fill="#38485C"/>
<rect x="95.2305" y="240.107" width="195.918" height="6.79483" rx="3.39742" fill="#505E70"/>
<path d="M80.431 259.69L79.1211 258.38C78.9739 258.232 78.7361 258.232 78.5888 258.38C78.4416 258.527 78.4416 258.765 78.5888 258.912L80.1668 260.49C80.314 260.637 80.5518 260.637 80.699 260.49L84.6929 256.496C84.8401 256.349 84.8401 256.111 84.6929 255.964C84.5456 255.816 84.3078 255.816 84.1606 255.964L80.431 259.69Z" fill="#38485C"/>
<rect x="95.2305" y="254.829" width="327.284" height="6.79483" rx="3.39742" fill="#505E70"/>
<path d="M80.431 274.412L79.1211 273.102C78.9739 272.955 78.7361 272.955 78.5888 273.102C78.4416 273.249 78.4416 273.487 78.5888 273.634L80.1668 275.212C80.314 275.359 80.5518 275.359 80.699 275.212L84.6929 271.218C84.8401 271.071 84.8401 270.833 84.6929 270.686C84.5456 270.539 84.3078 270.539 84.1606 270.686L80.431 274.412Z" fill="#38485C"/>
<rect x="95.2305" y="269.551" width="300.105" height="6.79483" rx="3.39742" fill="#505E70"/>
</g>
<rect x="1.9452" y="1.86567" width="704.11" height="302.082" rx="9.84707" stroke="#E6EBF0" stroke-width="3.1096"/>
<defs>
<clipPath id="clip0_5542_1399">
<rect x="3.5" y="3.42047" width="701" height="298.973" rx="8.29227" fill="white"/>
</clipPath>
</defs>
</svg>
