<svg width="321" height="151" viewBox="0 0 321 151" fill="none" xmlns="http://www.w3.org/2000/svg">
<rect x="1.07443" y="1.67745" width="318.851" height="147.813" rx="8.33015" fill="white"/>
<rect x="1.07443" y="1.67745" width="318.851" height="147.813" rx="8.33015" stroke="#E6EBF0" stroke-width="1.85115"/>
<path d="M26.7637 41.8168C26.3768 41.8168 26.0778 41.7171 25.8668 41.5178C25.6675 41.3068 25.5679 41.0078 25.5679 40.6209V30.6146C25.5679 30.2277 25.6675 29.9346 25.8668 29.7353C26.0778 29.5242 26.3768 29.4187 26.7637 29.4187H33.0419C33.335 29.4187 33.5577 29.4949 33.7101 29.6473C33.8743 29.7998 33.9563 30.0166 33.9563 30.298C33.9563 30.5911 33.8743 30.8197 33.7101 30.9839C33.5577 31.1363 33.335 31.2125 33.0419 31.2125H27.7309V34.6241H32.655C32.9598 34.6241 33.1884 34.7004 33.3408 34.8528C33.4932 35.0052 33.5694 35.2279 33.5694 35.521C33.5694 35.8141 33.4932 36.0369 33.3408 36.1893C33.1884 36.3417 32.9598 36.4179 32.655 36.4179H27.7309V40.023H33.0419C33.335 40.023 33.5577 40.0992 33.7101 40.2516C33.8743 40.404 33.9563 40.6268 33.9563 40.9199C33.9563 41.213 33.8743 41.4357 33.7101 41.5882C33.5577 41.7406 33.335 41.8168 33.0419 41.8168H26.7637ZM38.912 41.9926C38.4078 41.9926 37.8744 41.9399 37.3116 41.8344C36.7489 41.7288 36.2448 41.5471 35.7993 41.2892C35.6117 41.172 35.4769 41.0371 35.3948 40.8847C35.3244 40.7206 35.2951 40.5623 35.3069 40.4099C35.3303 40.2458 35.3889 40.1051 35.4827 39.9878C35.5882 39.8706 35.7172 39.7944 35.8696 39.7592C36.0337 39.7241 36.2096 39.7534 36.3972 39.8472C36.8661 40.0699 37.3058 40.2282 37.7161 40.322C38.1265 40.404 38.5309 40.4451 38.9295 40.4451C39.4923 40.4451 39.9085 40.3513 40.1781 40.1637C40.4595 39.9644 40.6002 39.7065 40.6002 39.3899C40.6002 39.1203 40.5064 38.9151 40.3188 38.7744C40.143 38.622 39.8733 38.5106 39.5099 38.4403L37.7513 38.1062C37.0244 37.9655 36.4675 37.7017 36.0806 37.3148C35.7055 36.9162 35.5179 36.4062 35.5179 35.7848C35.5179 35.2221 35.6703 34.7355 35.9751 34.3252C36.2917 33.9149 36.7255 33.5983 37.2765 33.3756C37.8275 33.1528 38.4606 33.0414 39.1758 33.0414C39.6916 33.0414 40.1723 33.1 40.6178 33.2173C41.075 33.3228 41.5147 33.4928 41.9367 33.7273C42.1126 33.8211 42.2298 33.9442 42.2885 34.0966C42.3588 34.249 42.3764 34.4073 42.3412 34.5714C42.306 34.7238 42.2357 34.8645 42.1302 34.9935C42.0247 35.1107 41.8898 35.1869 41.7257 35.2221C41.5733 35.2455 41.3974 35.2103 41.1981 35.1166C40.8347 34.929 40.483 34.7941 40.143 34.7121C39.8147 34.63 39.4982 34.589 39.1933 34.589C38.6189 34.589 38.1909 34.6886 37.9096 34.8879C37.6399 35.0872 37.5051 35.351 37.5051 35.6793C37.5051 35.9255 37.5872 36.1307 37.7513 36.2948C37.9154 36.4589 38.1675 36.5703 38.5075 36.6289L40.2661 36.9631C41.0281 37.1038 41.6026 37.3617 41.9895 37.7368C42.3881 38.112 42.5874 38.6161 42.5874 39.2492C42.5874 40.1051 42.2533 40.7792 41.585 41.2716C40.9168 41.7523 40.0257 41.9926 38.912 41.9926ZM48.2043 41.9926C47.4423 41.9926 46.8033 41.8637 46.2875 41.6057C45.7833 41.3478 45.4082 40.9727 45.162 40.4802C44.9158 39.9761 44.7927 39.3547 44.7927 38.6161V34.8704H43.8782C43.5968 34.8704 43.3799 34.8 43.2275 34.6593C43.0751 34.5069 42.9989 34.3017 42.9989 34.0438C42.9989 33.7742 43.0751 33.569 43.2275 33.4283C43.3799 33.2876 43.5968 33.2173 43.8782 33.2173H44.7927V31.617C44.7927 31.2535 44.8864 30.978 45.074 30.7904C45.2733 30.6028 45.5488 30.5091 45.9006 30.5091C46.2523 30.5091 46.5219 30.6028 46.7095 30.7904C46.8971 30.978 46.9909 31.2535 46.9909 31.617V33.2173H48.855C49.1364 33.2173 49.3533 33.2876 49.5057 33.4283C49.6581 33.569 49.7343 33.7742 49.7343 34.0438C49.7343 34.3017 49.6581 34.5069 49.5057 34.6593C49.3533 34.8 49.1364 34.8704 48.855 34.8704H46.9909V38.493C46.9909 39.0558 47.114 39.4779 47.3602 39.7592C47.6064 40.0406 48.005 40.1813 48.556 40.1813C48.7553 40.1813 48.9312 40.1637 49.0836 40.1285C49.236 40.0934 49.3708 40.0699 49.4881 40.0582C49.6288 40.0465 49.746 40.0934 49.8398 40.1989C49.9336 40.2927 49.9805 40.492 49.9805 40.7968C49.9805 41.0313 49.9395 41.2423 49.8574 41.4299C49.787 41.6057 49.6522 41.7288 49.4529 41.7992C49.3005 41.8461 49.1012 41.8871 48.855 41.9223C48.6088 41.9692 48.3919 41.9926 48.2043 41.9926ZM55.1667 41.9926C54.1936 41.9926 53.3553 41.8109 52.6519 41.4475C51.9485 41.084 51.4033 40.5682 51.0164 39.8999C50.6412 39.2316 50.4537 38.4403 50.4537 37.5258C50.4537 36.6348 50.6354 35.8552 50.9988 35.1869C51.374 34.5186 51.884 33.9969 52.5288 33.6218C53.1853 33.2349 53.9298 33.0414 54.7622 33.0414C55.3718 33.0414 55.917 33.1411 56.3977 33.3404C56.8901 33.5397 57.3063 33.8269 57.6463 34.2021C57.998 34.5773 58.2618 35.0345 58.4376 35.5738C58.6252 36.1014 58.719 36.6993 58.719 37.3675C58.719 37.5786 58.6428 37.7427 58.4904 37.8599C58.3497 37.9655 58.1445 38.0182 57.8749 38.0182H52.2298V36.752H57.1715L56.8901 37.0158C56.8901 36.4765 56.808 36.0252 56.6439 35.6617C56.4915 35.2983 56.2629 35.0228 55.958 34.8352C55.6649 34.6359 55.2956 34.5362 54.8501 34.5362C54.3577 34.5362 53.9357 34.6535 53.5839 34.8879C53.244 35.1107 52.9802 35.4331 52.7926 35.8552C52.6167 36.2655 52.5288 36.7579 52.5288 37.3324V37.4555C52.5288 38.4168 52.7515 39.1379 53.1971 39.6185C53.6543 40.0875 54.3226 40.322 55.2018 40.322C55.5067 40.322 55.8467 40.2868 56.2218 40.2165C56.6087 40.1344 56.9722 39.9996 57.3122 39.812C57.5584 39.6713 57.7752 39.6127 57.9628 39.6361C58.1504 39.6478 58.297 39.7123 58.4025 39.8296C58.5197 39.9468 58.5901 40.0934 58.6135 40.2692C58.637 40.4333 58.6018 40.6033 58.508 40.7792C58.4259 40.9551 58.2794 41.1075 58.0683 41.2364C57.658 41.4944 57.1832 41.6878 56.6439 41.8168C56.1163 41.934 55.6239 41.9926 55.1667 41.9926ZM69.4724 41.9926C68.4993 41.9926 67.661 41.8109 66.9576 41.4475C66.2542 41.084 65.709 40.5682 65.3221 39.8999C64.9469 39.2316 64.7594 38.4403 64.7594 37.5258C64.7594 36.6348 64.9411 35.8552 65.3045 35.1869C65.6797 34.5186 66.1897 33.9969 66.8345 33.6218C67.491 33.2349 68.2355 33.0414 69.0679 33.0414C69.6775 33.0414 70.2227 33.1411 70.7034 33.3404C71.1958 33.5397 71.612 33.8269 71.952 34.2021C72.3037 34.5773 72.5675 35.0345 72.7433 35.5738C72.9309 36.1014 73.0247 36.6993 73.0247 37.3675C73.0247 37.5786 72.9485 37.7427 72.7961 37.8599C72.6554 37.9655 72.4502 38.0182 72.1806 38.0182H66.5355V36.752H71.4772L71.1958 37.0158C71.1958 36.4765 71.1137 36.0252 70.9496 35.6617C70.7972 35.2983 70.5686 35.0228 70.2637 34.8352C69.9706 34.6359 69.6013 34.5362 69.1558 34.5362C68.6634 34.5362 68.2414 34.6535 67.8896 34.8879C67.5497 35.1107 67.2859 35.4331 67.0983 35.8552C66.9224 36.2655 66.8345 36.7579 66.8345 37.3324V37.4555C66.8345 38.4168 67.0572 39.1379 67.5028 39.6185C67.96 40.0875 68.6283 40.322 69.5075 40.322C69.8124 40.322 70.1524 40.2868 70.5275 40.2165C70.9144 40.1344 71.2779 39.9996 71.6179 39.812C71.8641 39.6713 72.0809 39.6127 72.2685 39.6361C72.4561 39.6478 72.6027 39.7123 72.7082 39.8296C72.8254 39.9468 72.8958 40.0934 72.9192 40.2692C72.9427 40.4333 72.9075 40.6033 72.8137 40.7792C72.7316 40.9551 72.5851 41.1075 72.374 41.2364C71.9637 41.4944 71.4889 41.6878 70.9496 41.8168C70.422 41.934 69.9296 41.9926 69.4724 41.9926ZM77.9135 41.9926C77.4093 41.9926 76.8759 41.9399 76.3131 41.8344C75.7504 41.7288 75.2463 41.5471 74.8008 41.2892C74.6132 41.172 74.4783 41.0371 74.3963 40.8847C74.3259 40.7206 74.2966 40.5623 74.3084 40.4099C74.3318 40.2458 74.3904 40.1051 74.4842 39.9878C74.5897 39.8706 74.7187 39.7944 74.8711 39.7592C75.0352 39.7241 75.2111 39.7534 75.3987 39.8472C75.8676 40.0699 76.3073 40.2282 76.7176 40.322C77.128 40.404 77.5324 40.4451 77.931 40.4451C78.4938 40.4451 78.91 40.3513 79.1796 40.1637C79.461 39.9644 79.6017 39.7065 79.6017 39.3899C79.6017 39.1203 79.5079 38.9151 79.3203 38.7744C79.1445 38.622 78.8748 38.5106 78.5114 38.4403L76.7528 38.1062C76.0259 37.9655 75.469 37.7017 75.0821 37.3148C74.707 36.9162 74.5194 36.4062 74.5194 35.7848C74.5194 35.2221 74.6718 34.7355 74.9766 34.3252C75.2932 33.9149 75.7269 33.5983 76.278 33.3756C76.829 33.1528 77.4621 33.0414 78.1772 33.0414C78.6931 33.0414 79.1738 33.1 79.6193 33.2173C80.0765 33.3228 80.5162 33.4928 80.9382 33.7273C81.1141 33.8211 81.2313 33.9442 81.2899 34.0966C81.3603 34.249 81.3779 34.4073 81.3427 34.5714C81.3075 34.7238 81.2372 34.8645 81.1317 34.9935C81.0262 35.1107 80.8913 35.1869 80.7272 35.2221C80.5748 35.2455 80.3989 35.2103 80.1996 35.1166C79.8362 34.929 79.4845 34.7941 79.1445 34.7121C78.8162 34.63 78.4997 34.589 78.1948 34.589C77.6204 34.589 77.1924 34.6886 76.9111 34.8879C76.6414 35.0872 76.5066 35.351 76.5066 35.6793C76.5066 35.9255 76.5887 36.1307 76.7528 36.2948C76.9169 36.4589 77.169 36.5703 77.509 36.6289L79.2676 36.9631C80.0296 37.1038 80.6041 37.3617 80.991 37.7368C81.3896 38.112 81.5889 38.6161 81.5889 39.2492C81.5889 40.1051 81.2548 40.7792 80.5865 41.2716C79.9182 41.7523 79.0272 41.9926 77.9135 41.9926ZM92.066 41.9926C91.3039 41.9926 90.665 41.8637 90.1491 41.6057C89.645 41.3478 89.2698 40.9727 89.0236 40.4802C88.7774 39.9761 88.6543 39.3547 88.6543 38.6161V34.8704H87.7398C87.4585 34.8704 87.2416 34.8 87.0892 34.6593C86.9368 34.5069 86.8605 34.3017 86.8605 34.0438C86.8605 33.7742 86.9368 33.569 87.0892 33.4283C87.2416 33.2876 87.4585 33.2173 87.7398 33.2173H88.6543V31.617C88.6543 31.2535 88.7481 30.978 88.9357 30.7904C89.135 30.6028 89.4105 30.5091 89.7622 30.5091C90.1139 30.5091 90.3836 30.6028 90.5712 30.7904C90.7587 30.978 90.8525 31.2535 90.8525 31.617V33.2173H92.7166C92.998 33.2173 93.2149 33.2876 93.3673 33.4283C93.5197 33.569 93.5959 33.7742 93.5959 34.0438C93.5959 34.3017 93.5197 34.5069 93.3673 34.6593C93.2149 34.8 92.998 34.8704 92.7166 34.8704H90.8525V38.493C90.8525 39.0558 90.9756 39.4779 91.2218 39.7592C91.468 40.0406 91.8667 40.1813 92.4177 40.1813C92.617 40.1813 92.7928 40.1637 92.9453 40.1285C93.0977 40.0934 93.2325 40.0699 93.3497 40.0582C93.4904 40.0465 93.6077 40.0934 93.7015 40.1989C93.7952 40.2927 93.8421 40.492 93.8421 40.7968C93.8421 41.0313 93.8011 41.2423 93.719 41.4299C93.6487 41.6057 93.5139 41.7288 93.3146 41.7992C93.1622 41.8461 92.9628 41.8871 92.7166 41.9223C92.4704 41.9692 92.2535 41.9926 92.066 41.9926ZM97.9887 41.9926C97.2735 41.9926 96.6815 41.8637 96.2125 41.6057C95.7436 41.3361 95.3918 40.9375 95.1574 40.4099C94.9346 39.8823 94.8232 39.2258 94.8232 38.4403V34.1845C94.8232 33.8093 94.917 33.5338 95.1046 33.358C95.2922 33.1704 95.5618 33.0766 95.9136 33.0766C96.2653 33.0766 96.5349 33.1704 96.7225 33.358C96.9218 33.5338 97.0215 33.8093 97.0215 34.1845V38.4755C97.0215 39.0851 97.1446 39.5365 97.3908 39.8296C97.637 40.1227 98.0297 40.2692 98.569 40.2692C99.1552 40.2692 99.6359 40.0699 100.011 39.6713C100.386 39.261 100.574 38.7217 100.574 38.0534V34.1845C100.574 33.8093 100.668 33.5338 100.855 33.358C101.043 33.1704 101.312 33.0766 101.664 33.0766C102.016 33.0766 102.286 33.1704 102.473 33.358C102.672 33.5338 102.772 33.8093 102.772 34.1845V40.832C102.772 41.5823 102.414 41.9575 101.699 41.9575C101.359 41.9575 101.096 41.8637 100.908 41.6761C100.72 41.4768 100.627 41.1954 100.627 40.832V39.4954L100.873 40.023C100.627 40.6561 100.251 41.1426 99.7473 41.4826C99.2549 41.8226 98.6687 41.9926 97.9887 41.9926ZM110.925 45.1229C110.573 45.1229 110.303 45.0291 110.116 44.8415C109.928 44.654 109.834 44.3784 109.834 44.015V34.1845C109.834 33.8211 109.928 33.5455 110.116 33.358C110.303 33.1704 110.567 33.0766 110.907 33.0766C111.259 33.0766 111.528 33.1704 111.716 33.358C111.904 33.5455 111.997 33.8211 111.997 34.1845V35.5562L111.804 35.0286C111.98 34.4307 112.337 33.95 112.877 33.5866C113.428 33.2231 114.067 33.0414 114.794 33.0414C115.544 33.0414 116.2 33.2231 116.763 33.5866C117.338 33.95 117.783 34.4659 118.1 35.1341C118.416 35.7907 118.574 36.582 118.574 37.5082C118.574 38.4227 118.416 39.2199 118.1 39.8999C117.783 40.5682 117.343 41.084 116.781 41.4475C116.218 41.8109 115.556 41.9926 114.794 41.9926C114.078 41.9926 113.451 41.8168 112.912 41.4651C112.373 41.1016 112.009 40.6327 111.822 40.0582H112.033V44.015C112.033 44.3784 111.933 44.654 111.734 44.8415C111.546 45.0291 111.276 45.1229 110.925 45.1229ZM114.178 40.322C114.612 40.322 114.993 40.2165 115.321 40.0054C115.649 39.7944 115.901 39.4837 116.077 39.0734C116.265 38.6513 116.359 38.1296 116.359 37.5082C116.359 36.5703 116.159 35.8727 115.761 35.4155C115.362 34.9466 114.835 34.7121 114.178 34.7121C113.744 34.7121 113.363 34.8176 113.035 35.0286C112.707 35.2279 112.449 35.5386 112.261 35.9607C112.085 36.371 111.997 36.8869 111.997 37.5082C111.997 38.4344 112.197 39.1379 112.595 39.6185C112.994 40.0875 113.521 40.322 114.178 40.322ZM121.504 41.9575C121.141 41.9575 120.86 41.8637 120.66 41.6761C120.473 41.4768 120.379 41.1954 120.379 40.832V34.1845C120.379 33.8211 120.473 33.5455 120.66 33.358C120.848 33.1704 121.112 33.0766 121.452 33.0766C121.792 33.0766 122.055 33.1704 122.243 33.358C122.431 33.5455 122.524 33.8211 122.524 34.1845V35.2924H122.349C122.513 34.589 122.835 34.0555 123.316 33.6921C123.796 33.3287 124.435 33.1118 125.233 33.0414C125.479 33.018 125.672 33.0825 125.813 33.2349C125.965 33.3756 126.053 33.5983 126.077 33.9031C126.1 34.1962 126.03 34.4366 125.866 34.6241C125.713 34.8 125.479 34.9055 125.162 34.9407L124.775 34.9759C124.06 35.0462 123.521 35.269 123.158 35.6441C122.794 36.0076 122.612 36.5234 122.612 37.1917V40.832C122.612 41.1954 122.519 41.4768 122.331 41.6761C122.143 41.8637 121.868 41.9575 121.504 41.9575ZM131.05 41.9926C130.159 41.9926 129.385 41.8109 128.729 41.4475C128.072 41.084 127.562 40.5682 127.199 39.8999C126.835 39.2199 126.653 38.4227 126.653 37.5082C126.653 36.8165 126.753 36.201 126.952 35.6617C127.163 35.1107 127.462 34.6417 127.849 34.2548C128.236 33.8562 128.699 33.5573 129.239 33.358C129.778 33.1469 130.382 33.0414 131.05 33.0414C131.941 33.0414 132.715 33.2231 133.371 33.5866C134.028 33.95 134.538 34.4659 134.901 35.1341C135.265 35.8024 135.446 36.5938 135.446 37.5082C135.446 38.1999 135.341 38.8213 135.13 39.3723C134.93 39.9234 134.637 40.3982 134.251 40.7968C133.864 41.1837 133.401 41.4826 132.861 41.6937C132.322 41.893 131.718 41.9926 131.05 41.9926ZM131.05 40.322C131.484 40.322 131.865 40.2165 132.193 40.0054C132.521 39.7944 132.773 39.4837 132.949 39.0734C133.137 38.6513 133.231 38.1296 133.231 37.5082C133.231 36.5703 133.031 35.8727 132.633 35.4155C132.234 34.9466 131.706 34.7121 131.05 34.7121C130.616 34.7121 130.235 34.8176 129.907 35.0286C129.579 35.2279 129.321 35.5386 129.133 35.9607C128.957 36.371 128.869 36.8869 128.869 37.5082C128.869 38.4344 129.069 39.1379 129.467 39.6185C129.866 40.0875 130.393 40.322 131.05 40.322ZM141.27 45.1581C140.637 45.1581 140.022 45.0995 139.424 44.9822C138.838 44.865 138.304 44.6833 137.823 44.4371C137.601 44.3198 137.448 44.1791 137.366 44.015C137.296 43.8509 137.272 43.6809 137.296 43.505C137.331 43.3409 137.401 43.1943 137.507 43.0654C137.624 42.9364 137.765 42.8485 137.929 42.8016C138.093 42.7547 138.263 42.7781 138.439 42.8719C138.955 43.1299 139.441 43.294 139.899 43.3643C140.368 43.4464 140.766 43.4874 141.094 43.4874C141.88 43.4874 142.466 43.294 142.853 42.9071C143.252 42.5319 143.451 41.9692 143.451 41.2189V39.6361H143.609C143.433 40.234 143.064 40.7147 142.501 41.0782C141.95 41.4299 141.323 41.6057 140.62 41.6057C139.846 41.6057 139.172 41.4299 138.597 41.0782C138.023 40.7147 137.577 40.2106 137.261 39.5658C136.944 38.921 136.786 38.1706 136.786 37.3148C136.786 36.67 136.874 36.0896 137.05 35.5738C137.237 35.0462 137.495 34.5948 137.823 34.2197C138.163 33.8445 138.568 33.5573 139.037 33.358C139.518 33.1469 140.045 33.0414 140.62 33.0414C141.346 33.0414 141.98 33.2231 142.519 33.5866C143.07 33.9383 143.427 34.4073 143.592 34.9935L143.416 35.4331V34.1845C143.416 33.8211 143.51 33.5455 143.697 33.358C143.896 33.1704 144.166 33.0766 144.506 33.0766C144.858 33.0766 145.127 33.1704 145.315 33.358C145.503 33.5455 145.596 33.8211 145.596 34.1845V40.9551C145.596 42.3502 145.227 43.3995 144.489 44.1029C143.75 44.8064 142.677 45.1581 141.27 45.1581ZM141.218 39.9351C141.675 39.9351 142.068 39.8296 142.396 39.6185C142.724 39.4075 142.976 39.1085 143.152 38.7217C143.34 38.323 143.433 37.8541 143.433 37.3148C143.433 36.5058 143.234 35.8727 142.835 35.4155C142.437 34.9466 141.898 34.7121 141.218 34.7121C140.76 34.7121 140.368 34.8176 140.039 35.0286C139.711 35.2397 139.453 35.5386 139.265 35.9255C139.09 36.3124 139.002 36.7755 139.002 37.3148C139.002 38.1237 139.201 38.7627 139.6 39.2316C139.998 39.7006 140.538 39.9351 141.218 39.9351ZM149 41.9575C148.636 41.9575 148.355 41.8637 148.155 41.6761C147.968 41.4768 147.874 41.1954 147.874 40.832V34.1845C147.874 33.8211 147.968 33.5455 148.155 33.358C148.343 33.1704 148.607 33.0766 148.947 33.0766C149.287 33.0766 149.551 33.1704 149.738 33.358C149.926 33.5455 150.02 33.8211 150.02 34.1845V35.2924H149.844C150.008 34.589 150.33 34.0555 150.811 33.6921C151.292 33.3287 151.931 33.1118 152.728 33.0414C152.974 33.018 153.167 33.0825 153.308 33.2349C153.461 33.3756 153.548 33.5983 153.572 33.9031C153.595 34.1962 153.525 34.4366 153.361 34.6241C153.208 34.8 152.974 34.9055 152.657 34.9407L152.271 34.9759C151.555 35.0462 151.016 35.269 150.653 35.6441C150.289 36.0076 150.107 36.5234 150.107 37.1917V40.832C150.107 41.1954 150.014 41.4768 149.826 41.6761C149.639 41.8637 149.363 41.9575 149 41.9575ZM158.862 41.9926C157.888 41.9926 157.05 41.8109 156.347 41.4475C155.643 41.084 155.098 40.5682 154.711 39.8999C154.336 39.2316 154.149 38.4403 154.149 37.5258C154.149 36.6348 154.33 35.8552 154.694 35.1869C155.069 34.5186 155.579 33.9969 156.224 33.6218C156.88 33.2349 157.625 33.0414 158.457 33.0414C159.067 33.0414 159.612 33.1411 160.093 33.3404C160.585 33.5397 161.001 33.8269 161.341 34.2021C161.693 34.5773 161.957 35.0345 162.133 35.5738C162.32 36.1014 162.414 36.6993 162.414 37.3675C162.414 37.5786 162.338 37.7427 162.185 37.8599C162.045 37.9655 161.839 38.0182 161.57 38.0182H155.925V36.752H160.866L160.585 37.0158C160.585 36.4765 160.503 36.0252 160.339 35.6617C160.186 35.2983 159.958 35.0228 159.653 34.8352C159.36 34.6359 158.99 34.5362 158.545 34.5362C158.053 34.5362 157.631 34.6535 157.279 34.8879C156.939 35.1107 156.675 35.4331 156.487 35.8552C156.312 36.2655 156.224 36.7579 156.224 37.3324V37.4555C156.224 38.4168 156.446 39.1379 156.892 39.6185C157.349 40.0875 158.017 40.322 158.897 40.322C159.202 40.322 159.542 40.2868 159.917 40.2165C160.304 40.1344 160.667 39.9996 161.007 39.812C161.253 39.6713 161.47 39.6127 161.658 39.6361C161.845 39.6478 161.992 39.7123 162.097 39.8296C162.215 39.9468 162.285 40.0934 162.308 40.2692C162.332 40.4333 162.297 40.6033 162.203 40.7792C162.121 40.9551 161.974 41.1075 161.763 41.2364C161.353 41.4944 160.878 41.6878 160.339 41.8168C159.811 41.934 159.319 41.9926 158.862 41.9926ZM167.303 41.9926C166.798 41.9926 166.265 41.9399 165.702 41.8344C165.14 41.7288 164.635 41.5471 164.19 41.2892C164.002 41.172 163.868 41.0371 163.785 40.8847C163.715 40.7206 163.686 40.5623 163.698 40.4099C163.721 40.2458 163.78 40.1051 163.873 39.9878C163.979 39.8706 164.108 39.7944 164.26 39.7592C164.424 39.7241 164.6 39.7534 164.788 39.8472C165.257 40.0699 165.696 40.2282 166.107 40.322C166.517 40.404 166.922 40.4451 167.32 40.4451C167.883 40.4451 168.299 40.3513 168.569 40.1637C168.85 39.9644 168.991 39.7065 168.991 39.3899C168.991 39.1203 168.897 38.9151 168.709 38.7744C168.534 38.622 168.264 38.5106 167.901 38.4403L166.142 38.1062C165.415 37.9655 164.858 37.7017 164.471 37.3148C164.096 36.9162 163.909 36.4062 163.909 35.7848C163.909 35.2221 164.061 34.7355 164.366 34.3252C164.682 33.9149 165.116 33.5983 165.667 33.3756C166.218 33.1528 166.851 33.0414 167.566 33.0414C168.082 33.0414 168.563 33.1 169.008 33.2173C169.466 33.3228 169.905 33.4928 170.327 33.7273C170.503 33.8211 170.62 33.9442 170.679 34.0966C170.749 34.249 170.767 34.4073 170.732 34.5714C170.697 34.7238 170.626 34.8645 170.521 34.9935C170.415 35.1107 170.28 35.1869 170.116 35.2221C169.964 35.2455 169.788 35.2103 169.589 35.1166C169.225 34.929 168.874 34.7941 168.534 34.7121C168.205 34.63 167.889 34.589 167.584 34.589C167.01 34.589 166.582 34.6886 166.3 34.8879C166.031 35.0872 165.896 35.351 165.896 35.6793C165.896 35.9255 165.978 36.1307 166.142 36.2948C166.306 36.4589 166.558 36.5703 166.898 36.6289L168.657 36.9631C169.419 37.1038 169.993 37.3617 170.38 37.7368C170.779 38.112 170.978 38.6161 170.978 39.2492C170.978 40.1051 170.644 40.7792 169.976 41.2716C169.307 41.7523 168.416 41.9926 167.303 41.9926ZM176.663 41.9926C175.772 41.9926 174.998 41.8109 174.342 41.4475C173.685 41.084 173.175 40.5682 172.812 39.8999C172.448 39.2199 172.267 38.4227 172.267 37.5082C172.267 36.8165 172.366 36.201 172.566 35.6617C172.777 35.1107 173.076 34.6417 173.463 34.2548C173.849 33.8562 174.313 33.5573 174.852 33.358C175.391 33.1469 175.995 33.0414 176.663 33.0414C177.554 33.0414 178.328 33.2231 178.985 33.5866C179.641 33.95 180.151 34.4659 180.515 35.1341C180.878 35.8024 181.06 36.5938 181.06 37.5082C181.06 38.1999 180.954 38.8213 180.743 39.3723C180.544 39.9234 180.251 40.3982 179.864 40.7968C179.477 41.1837 179.014 41.4826 178.475 41.6937C177.935 41.893 177.332 41.9926 176.663 41.9926ZM176.663 40.322C177.097 40.322 177.478 40.2165 177.806 40.0054C178.135 39.7944 178.387 39.4837 178.563 39.0734C178.75 38.6513 178.844 38.1296 178.844 37.5082C178.844 36.5703 178.645 35.8727 178.246 35.4155C177.847 34.9466 177.32 34.7121 176.663 34.7121C176.229 34.7121 175.848 34.8176 175.52 35.0286C175.192 35.2279 174.934 35.5386 174.746 35.9607C174.571 36.371 174.483 36.8869 174.483 37.5082C174.483 38.4344 174.682 39.1379 175.081 39.6185C175.479 40.0875 176.007 40.322 176.663 40.322ZM191.887 41.9926C190.913 41.9926 190.075 41.8109 189.372 41.4475C188.668 41.084 188.123 40.5682 187.736 39.8999C187.361 39.2316 187.174 38.4403 187.174 37.5258C187.174 36.6348 187.355 35.8552 187.719 35.1869C188.094 34.5186 188.604 33.9969 189.249 33.6218C189.905 33.2349 190.65 33.0414 191.482 33.0414C192.092 33.0414 192.637 33.1411 193.118 33.3404C193.61 33.5397 194.026 33.8269 194.366 34.2021C194.718 34.5773 194.982 35.0345 195.158 35.5738C195.345 36.1014 195.439 36.6993 195.439 37.3675C195.439 37.5786 195.363 37.7427 195.21 37.8599C195.07 37.9655 194.864 38.0182 194.595 38.0182H188.95V36.752H193.891L193.61 37.0158C193.61 36.4765 193.528 36.0252 193.364 35.6617C193.211 35.2983 192.983 35.0228 192.678 34.8352C192.385 34.6359 192.016 34.5362 191.57 34.5362C191.078 34.5362 190.656 34.6535 190.304 34.8879C189.964 35.1107 189.7 35.4331 189.512 35.8552C189.337 36.2655 189.249 36.7579 189.249 37.3324V37.4555C189.249 38.4168 189.471 39.1379 189.917 39.6185C190.374 40.0875 191.042 40.322 191.922 40.322C192.227 40.322 192.567 40.2868 192.942 40.2165C193.329 40.1344 193.692 39.9996 194.032 39.812C194.278 39.6713 194.495 39.6127 194.683 39.6361C194.87 39.6478 195.017 39.7123 195.122 39.8296C195.24 39.9468 195.31 40.0934 195.333 40.2692C195.357 40.4333 195.322 40.6033 195.228 40.7792C195.146 40.9551 194.999 41.1075 194.788 41.2364C194.378 41.4944 193.903 41.6878 193.364 41.8168C192.836 41.934 192.344 41.9926 191.887 41.9926ZM198.27 41.9575C197.918 41.9575 197.649 41.8637 197.461 41.6761C197.274 41.4768 197.18 41.1954 197.18 40.832V34.1845C197.18 33.8211 197.274 33.5455 197.461 33.358C197.649 33.1704 197.913 33.0766 198.253 33.0766C198.593 33.0766 198.856 33.1704 199.044 33.358C199.231 33.5455 199.325 33.8211 199.325 34.1845V35.3803L199.132 34.9407C199.39 34.3193 199.788 33.8504 200.328 33.5338C200.879 33.2056 201.5 33.0414 202.192 33.0414C202.883 33.0414 203.452 33.1704 203.898 33.4283C204.343 33.6862 204.677 34.079 204.9 34.6066C205.123 35.1224 205.234 35.779 205.234 36.5762V40.832C205.234 41.1954 205.14 41.4768 204.953 41.6761C204.765 41.8637 204.496 41.9575 204.144 41.9575C203.792 41.9575 203.517 41.8637 203.317 41.6761C203.13 41.4768 203.036 41.1954 203.036 40.832V36.6817C203.036 36.0134 202.907 35.5269 202.649 35.2221C202.403 34.9172 202.016 34.7648 201.488 34.7648C200.844 34.7648 200.328 34.97 199.941 35.3803C199.566 35.779 199.378 36.3124 199.378 36.9807V40.832C199.378 41.5823 199.009 41.9575 198.27 41.9575ZM216.479 41.9926C215.506 41.9926 214.668 41.8109 213.965 41.4475C213.261 41.084 212.716 40.5682 212.329 39.8999C211.954 39.2316 211.766 38.4403 211.766 37.5258C211.766 36.6348 211.948 35.8552 212.311 35.1869C212.687 34.5186 213.197 33.9969 213.841 33.6218C214.498 33.2349 215.242 33.0414 216.075 33.0414C216.684 33.0414 217.23 33.1411 217.71 33.3404C218.203 33.5397 218.619 33.8269 218.959 34.2021C219.311 34.5773 219.574 35.0345 219.75 35.5738C219.938 36.1014 220.032 36.6993 220.032 37.3675C220.032 37.5786 219.955 37.7427 219.803 37.8599C219.662 37.9655 219.457 38.0182 219.188 38.0182H213.542V36.752H218.484L218.203 37.0158C218.203 36.4765 218.121 36.0252 217.957 35.6617C217.804 35.2983 217.576 35.0228 217.271 34.8352C216.978 34.6359 216.608 34.5362 216.163 34.5362C215.67 34.5362 215.248 34.6535 214.897 34.8879C214.557 35.1107 214.293 35.4331 214.105 35.8552C213.929 36.2655 213.841 36.7579 213.841 37.3324V37.4555C213.841 38.4168 214.064 39.1379 214.51 39.6185C214.967 40.0875 215.635 40.322 216.515 40.322C216.819 40.322 217.159 40.2868 217.534 40.2165C217.921 40.1344 218.285 39.9996 218.625 39.812C218.871 39.6713 219.088 39.6127 219.275 39.6361C219.463 39.6478 219.61 39.7123 219.715 39.8296C219.832 39.9468 219.903 40.0934 219.926 40.2692C219.95 40.4333 219.914 40.6033 219.821 40.7792C219.739 40.9551 219.592 41.1075 219.381 41.2364C218.971 41.4944 218.496 41.6878 217.957 41.8168C217.429 41.934 216.937 41.9926 216.479 41.9926ZM224.709 41.9926C223.736 41.9926 223.004 41.7171 222.511 41.1661C222.019 40.6033 221.773 39.7827 221.773 38.7041V30.386C221.773 30.0225 221.866 29.747 222.054 29.5594C222.241 29.3718 222.511 29.278 222.863 29.278C223.215 29.278 223.484 29.3718 223.672 29.5594C223.871 29.747 223.971 30.0225 223.971 30.386V38.5986C223.971 39.1379 224.082 39.5365 224.305 39.7944C224.539 40.0523 224.868 40.1813 225.29 40.1813C225.384 40.1813 225.471 40.1813 225.553 40.1813C225.636 40.1696 225.718 40.1578 225.8 40.1461C225.964 40.1227 226.075 40.1696 226.134 40.2868C226.192 40.3923 226.222 40.6151 226.222 40.9551C226.222 41.2482 226.163 41.4768 226.046 41.6409C225.929 41.805 225.735 41.9047 225.466 41.9399C225.348 41.9516 225.225 41.9633 225.096 41.975C224.967 41.9868 224.838 41.9926 224.709 41.9926ZM236.102 41.9926C235.34 41.9926 234.701 41.8637 234.185 41.6057C233.681 41.3478 233.306 40.9727 233.06 40.4802C232.813 39.9761 232.69 39.3547 232.69 38.6161V34.8704H231.776C231.494 34.8704 231.277 34.8 231.125 34.6593C230.973 34.5069 230.896 34.3017 230.896 34.0438C230.896 33.7742 230.973 33.569 231.125 33.4283C231.277 33.2876 231.494 33.2173 231.776 33.2173H232.69V31.617C232.69 31.2535 232.784 30.978 232.972 30.7904C233.171 30.6028 233.446 30.5091 233.798 30.5091C234.15 30.5091 234.419 30.6028 234.607 30.7904C234.795 30.978 234.888 31.2535 234.888 31.617V33.2173H236.753C237.034 33.2173 237.251 33.2876 237.403 33.4283C237.556 33.569 237.632 33.7742 237.632 34.0438C237.632 34.3017 237.556 34.5069 237.403 34.6593C237.251 34.8 237.034 34.8704 236.753 34.8704H234.888V38.493C234.888 39.0558 235.012 39.4779 235.258 39.7592C235.504 40.0406 235.903 40.1813 236.454 40.1813C236.653 40.1813 236.829 40.1637 236.981 40.1285C237.134 40.0934 237.268 40.0699 237.386 40.0582C237.526 40.0465 237.644 40.0934 237.737 40.1989C237.831 40.2927 237.878 40.492 237.878 40.7968C237.878 41.0313 237.837 41.2423 237.755 41.4299C237.685 41.6057 237.55 41.7288 237.35 41.7992C237.198 41.8461 236.999 41.8871 236.753 41.9223C236.506 41.9692 236.289 41.9926 236.102 41.9926ZM240.037 41.9575C239.674 41.9575 239.393 41.8637 239.193 41.6761C239.006 41.4768 238.912 41.1954 238.912 40.832V34.1845C238.912 33.8211 239.006 33.5455 239.193 33.358C239.381 33.1704 239.645 33.0766 239.985 33.0766C240.325 33.0766 240.588 33.1704 240.776 33.358C240.964 33.5455 241.057 33.8211 241.057 34.1845V35.2924H240.882C241.046 34.589 241.368 34.0555 241.849 33.6921C242.329 33.3287 242.968 33.1118 243.766 33.0414C244.012 33.018 244.205 33.0825 244.346 33.2349C244.498 33.3756 244.586 33.5983 244.61 33.9031C244.633 34.1962 244.563 34.4366 244.399 34.6241C244.246 34.8 244.012 34.9055 243.695 34.9407L243.308 34.9759C242.593 35.0462 242.054 35.269 241.69 35.6441C241.327 36.0076 241.145 36.5234 241.145 37.1917V40.832C241.145 41.1954 241.052 41.4768 240.864 41.6761C240.676 41.8637 240.401 41.9575 240.037 41.9575ZM248.63 41.9926C248.009 41.9926 247.452 41.8754 246.959 41.6409C246.479 41.3947 246.098 41.0664 245.816 40.6561C245.546 40.2458 245.412 39.7827 245.412 39.2668C245.412 38.6337 245.576 38.1355 245.904 37.772C246.232 37.3969 246.766 37.1272 247.504 36.9631C248.243 36.7989 249.234 36.7169 250.476 36.7169H251.356V37.9831H250.494C249.767 37.9831 249.187 38.0182 248.753 38.0886C248.319 38.1589 248.009 38.282 247.821 38.4579C247.645 38.622 247.557 38.8565 247.557 39.1613C247.557 39.5482 247.692 39.8647 247.962 40.1109C248.231 40.3571 248.606 40.4802 249.087 40.4802C249.474 40.4802 249.814 40.3923 250.107 40.2165C250.412 40.0289 250.652 39.7768 250.828 39.4603C251.004 39.1437 251.092 38.7803 251.092 38.3699V36.3476C251.092 35.7614 250.963 35.3393 250.705 35.0814C250.447 34.8235 250.013 34.6945 249.404 34.6945C249.064 34.6945 248.694 34.7355 248.296 34.8176C247.909 34.8997 247.499 35.0403 247.065 35.2397C246.842 35.3452 246.643 35.3745 246.467 35.3276C246.303 35.2807 246.174 35.1869 246.08 35.0462C245.986 34.8938 245.939 34.7297 245.939 34.5538C245.939 34.3779 245.986 34.2079 246.08 34.0438C246.174 33.868 246.332 33.739 246.555 33.6569C247.094 33.4342 247.61 33.2759 248.102 33.1821C248.606 33.0883 249.064 33.0414 249.474 33.0414C250.318 33.0414 251.01 33.1704 251.549 33.4283C252.1 33.6862 252.51 34.079 252.78 34.6066C253.05 35.1224 253.185 35.7907 253.185 36.6114V40.832C253.185 41.1954 253.097 41.4768 252.921 41.6761C252.745 41.8637 252.493 41.9575 252.165 41.9575C251.836 41.9575 251.578 41.8637 251.391 41.6761C251.215 41.4768 251.127 41.1954 251.127 40.832V39.9878H251.268C251.186 40.3982 251.022 40.7558 250.775 41.0606C250.541 41.3537 250.242 41.5823 249.878 41.7464C249.515 41.9106 249.099 41.9926 248.63 41.9926ZM250.388 31.9687C250.271 32.1328 250.131 32.2266 249.966 32.2501C249.802 32.2735 249.644 32.2442 249.492 32.1621C249.339 32.0801 249.228 31.9628 249.157 31.8104C249.099 31.658 249.116 31.488 249.21 31.3004L250.547 28.6801C250.652 28.4574 250.793 28.3167 250.969 28.2581C251.145 28.1877 251.326 28.176 251.514 28.2229C251.702 28.2698 251.86 28.3577 251.989 28.4867C252.129 28.6156 252.212 28.7739 252.235 28.9615C252.27 29.1374 252.223 29.3191 252.094 29.5067L250.388 31.9687ZM256.541 41.9575C256.19 41.9575 255.92 41.8637 255.732 41.6761C255.545 41.4768 255.451 41.1954 255.451 40.832V34.1845C255.451 33.8211 255.545 33.5455 255.732 33.358C255.92 33.1704 256.184 33.0766 256.524 33.0766C256.864 33.0766 257.128 33.1704 257.315 33.358C257.503 33.5455 257.596 33.8211 257.596 34.1845V35.4683L257.403 34.9407C257.638 34.3545 258.001 33.8914 258.493 33.5514C258.986 33.2114 259.572 33.0414 260.252 33.0414C260.944 33.0414 261.512 33.2056 261.958 33.5338C262.403 33.8621 262.714 34.3662 262.89 35.0462H262.644C262.878 34.4248 263.265 33.9383 263.804 33.5866C264.344 33.2231 264.965 33.0414 265.668 33.0414C266.325 33.0414 266.864 33.1704 267.286 33.4283C267.72 33.6862 268.042 34.079 268.254 34.6066C268.465 35.1224 268.57 35.779 268.57 36.5762V40.832C268.57 41.1954 268.47 41.4768 268.271 41.6761C268.084 41.8637 267.814 41.9575 267.462 41.9575C267.11 41.9575 266.841 41.8637 266.653 41.6761C266.466 41.4768 266.372 41.1954 266.372 40.832V36.6641C266.372 36.0076 266.26 35.5269 266.038 35.2221C265.827 34.9172 265.463 34.7648 264.947 34.7648C264.373 34.7648 263.922 34.97 263.593 35.3803C263.265 35.779 263.101 36.3358 263.101 37.051V40.832C263.101 41.1954 263.007 41.4768 262.819 41.6761C262.632 41.8637 262.362 41.9575 262.011 41.9575C261.659 41.9575 261.383 41.8637 261.184 41.6761C260.996 41.4768 260.903 41.1954 260.903 40.832V36.6641C260.903 36.0076 260.791 35.5269 260.568 35.2221C260.357 34.9172 260 34.7648 259.496 34.7648C258.921 34.7648 258.47 34.97 258.142 35.3803C257.813 35.779 257.649 36.3358 257.649 37.051V40.832C257.649 41.5823 257.28 41.9575 256.541 41.9575ZM271.928 41.9399C271.576 41.9399 271.307 41.8344 271.119 41.6233C270.932 41.4123 270.838 41.1192 270.838 40.744V34.29C270.838 33.9031 270.932 33.61 271.119 33.4107C271.307 33.1997 271.576 33.0942 271.928 33.0942C272.28 33.0942 272.55 33.1997 272.737 33.4107C272.936 33.61 273.036 33.9031 273.036 34.29V40.744C273.036 41.1192 272.942 41.4123 272.755 41.6233C272.567 41.8344 272.292 41.9399 271.928 41.9399ZM271.928 31.4587C271.518 31.4587 271.195 31.359 270.961 31.1597C270.738 30.9487 270.627 30.6615 270.627 30.298C270.627 29.9229 270.738 29.6356 270.961 29.4363C271.195 29.237 271.518 29.1374 271.928 29.1374C272.35 29.1374 272.673 29.237 272.895 29.4363C273.118 29.6356 273.23 29.9229 273.23 30.298C273.23 30.6615 273.118 30.9487 272.895 31.1597C272.673 31.359 272.35 31.4587 271.928 31.4587ZM279.259 41.9926C278.497 41.9926 277.858 41.8637 277.343 41.6057C276.838 41.3478 276.463 40.9727 276.217 40.4802C275.971 39.9761 275.848 39.3547 275.848 38.6161V34.8704H274.933C274.652 34.8704 274.435 34.8 274.283 34.6593C274.13 34.5069 274.054 34.3017 274.054 34.0438C274.054 33.7742 274.13 33.569 274.283 33.4283C274.435 33.2876 274.652 33.2173 274.933 33.2173H275.848V31.617C275.848 31.2535 275.942 30.978 276.129 30.7904C276.328 30.6028 276.604 30.5091 276.956 30.5091C277.307 30.5091 277.577 30.6028 277.765 30.7904C277.952 30.978 278.046 31.2535 278.046 31.617V33.2173H279.91C280.191 33.2173 280.408 33.2876 280.561 33.4283C280.713 33.569 280.789 33.7742 280.789 34.0438C280.789 34.3017 280.713 34.5069 280.561 34.6593C280.408 34.8 280.191 34.8704 279.91 34.8704H278.046V38.493C278.046 39.0558 278.169 39.4779 278.415 39.7592C278.661 40.0406 279.06 40.1813 279.611 40.1813C279.81 40.1813 279.986 40.1637 280.139 40.1285C280.291 40.0934 280.426 40.0699 280.543 40.0582C280.684 40.0465 280.801 40.0934 280.895 40.1989C280.989 40.2927 281.036 40.492 281.036 40.7968C281.036 41.0313 280.995 41.2423 280.912 41.4299C280.842 41.6057 280.707 41.7288 280.508 41.7992C280.356 41.8461 280.156 41.8871 279.91 41.9223C279.664 41.9692 279.447 41.9926 279.259 41.9926ZM286.222 41.9926C285.249 41.9926 284.41 41.8109 283.707 41.4475C283.004 41.084 282.458 40.5682 282.071 39.8999C281.696 39.2316 281.509 38.4403 281.509 37.5258C281.509 36.6348 281.69 35.8552 282.054 35.1869C282.429 34.5186 282.939 33.9969 283.584 33.6218C284.24 33.2349 284.985 33.0414 285.817 33.0414C286.427 33.0414 286.972 33.1411 287.453 33.3404C287.945 33.5397 288.361 33.8269 288.701 34.2021C289.053 34.5773 289.317 35.0345 289.493 35.5738C289.68 36.1014 289.774 36.6993 289.774 37.3675C289.774 37.5786 289.698 37.7427 289.545 37.8599C289.405 37.9655 289.2 38.0182 288.93 38.0182H283.285V36.752H288.227L287.945 37.0158C287.945 36.4765 287.863 36.0252 287.699 35.6617C287.547 35.2983 287.318 35.0228 287.013 34.8352C286.72 34.6359 286.351 34.5362 285.905 34.5362C285.413 34.5362 284.991 34.6535 284.639 34.8879C284.299 35.1107 284.035 35.4331 283.848 35.8552C283.672 36.2655 283.584 36.7579 283.584 37.3324V37.4555C283.584 38.4168 283.807 39.1379 284.252 39.6185C284.709 40.0875 285.378 40.322 286.257 40.322C286.562 40.322 286.902 40.2868 287.277 40.2165C287.664 40.1344 288.027 39.9996 288.367 39.812C288.613 39.6713 288.83 39.6127 289.018 39.6361C289.205 39.6478 289.352 39.7123 289.458 39.8296C289.575 39.9468 289.645 40.0934 289.669 40.2692C289.692 40.4333 289.657 40.6033 289.563 40.7792C289.481 40.9551 289.334 41.1075 289.123 41.2364C288.713 41.4944 288.238 41.6878 287.699 41.8168C287.171 41.934 286.679 41.9926 286.222 41.9926Z" fill="#38485C"/>
<rect x="24.2137" y="62.6259" width="270.267" height="3.70229" rx="1.85115" fill="#E6EBF0"/>
<rect x="24.2137" y="62.6259" width="67.5668" height="3.70229" rx="1.85115" fill="#26874A"/>
<rect x="24.2137" y="81.1374" width="272.573" height="45.2137" rx="7.40458" fill="#FFDB2E"/>
<path d="M98.7474 109.411C97.5257 109.411 96.4761 109.167 95.5986 108.678C94.7323 108.178 94.0659 107.478 93.5994 106.579C93.1329 105.668 92.8997 104.596 92.8997 103.363C92.8997 102.441 93.0329 101.614 93.2995 100.881C93.5661 100.137 93.9493 99.5035 94.4491 98.9815C94.9489 98.4484 95.5598 98.043 96.2817 97.7653C97.0148 97.4765 97.8367 97.3321 98.7474 97.3321C99.3583 97.3321 99.9581 97.4099 100.547 97.5654C101.135 97.7209 101.652 97.943 102.096 98.2318C102.329 98.3762 102.485 98.5539 102.563 98.7649C102.64 98.9649 102.657 99.1648 102.613 99.3647C102.568 99.5535 102.474 99.7146 102.329 99.8479C102.196 99.9811 102.024 100.059 101.813 100.081C101.613 100.092 101.391 100.02 101.147 99.8645C100.802 99.6424 100.43 99.4813 100.03 99.3814C99.6304 99.2814 99.225 99.2314 98.8141 99.2314C98.0255 99.2314 97.3591 99.3925 96.8148 99.7146C96.2706 100.037 95.8596 100.503 95.582 101.114C95.3043 101.725 95.1655 102.475 95.1655 103.363C95.1655 104.241 95.3043 104.99 95.582 105.612C95.8596 106.234 96.2706 106.706 96.8148 107.028C97.3591 107.351 98.0255 107.512 98.8141 107.512C99.2361 107.512 99.6526 107.462 100.064 107.362C100.475 107.251 100.863 107.084 101.23 106.862C101.474 106.717 101.691 106.656 101.88 106.679C102.079 106.69 102.246 106.756 102.379 106.878C102.513 107.001 102.602 107.156 102.646 107.345C102.69 107.523 102.679 107.712 102.613 107.911C102.546 108.1 102.413 108.267 102.213 108.411C101.768 108.733 101.235 108.983 100.613 109.161C100.003 109.328 99.3805 109.411 98.7474 109.411ZM107.536 109.411C106.692 109.411 105.959 109.239 105.337 108.894C104.715 108.55 104.232 108.061 103.888 107.428C103.543 106.784 103.371 106.029 103.371 105.162C103.371 104.507 103.466 103.924 103.654 103.413C103.854 102.891 104.138 102.447 104.504 102.08C104.871 101.703 105.309 101.419 105.82 101.231C106.331 101.031 106.903 100.931 107.536 100.931C108.38 100.931 109.113 101.103 109.735 101.447C110.357 101.792 110.841 102.28 111.185 102.913C111.529 103.546 111.701 104.296 111.701 105.162C111.701 105.818 111.601 106.406 111.401 106.928C111.213 107.451 110.935 107.9 110.568 108.278C110.202 108.644 109.763 108.928 109.252 109.128C108.741 109.316 108.169 109.411 107.536 109.411ZM107.536 107.828C107.947 107.828 108.308 107.728 108.619 107.528C108.93 107.328 109.169 107.034 109.336 106.645C109.513 106.245 109.602 105.751 109.602 105.162C109.602 104.274 109.413 103.613 109.036 103.18C108.658 102.736 108.158 102.513 107.536 102.513C107.125 102.513 106.764 102.613 106.453 102.813C106.142 103.002 105.898 103.297 105.72 103.696C105.554 104.085 105.47 104.574 105.47 105.162C105.47 106.04 105.659 106.706 106.037 107.162C106.414 107.606 106.914 107.828 107.536 107.828ZM114.453 109.378C114.12 109.378 113.864 109.289 113.687 109.111C113.509 108.922 113.42 108.656 113.42 108.311V102.014C113.42 101.669 113.509 101.408 113.687 101.231C113.864 101.053 114.114 100.964 114.436 100.964C114.759 100.964 115.008 101.053 115.186 101.231C115.364 101.408 115.453 101.669 115.453 102.014V103.147L115.27 102.73C115.514 102.141 115.891 101.697 116.402 101.397C116.924 101.086 117.513 100.931 118.168 100.931C118.824 100.931 119.362 101.053 119.784 101.297C120.207 101.542 120.523 101.914 120.734 102.414C120.945 102.902 121.051 103.524 121.051 104.279V108.311C121.051 108.656 120.962 108.922 120.784 109.111C120.606 109.289 120.351 109.378 120.018 109.378C119.684 109.378 119.423 109.289 119.235 109.111C119.057 108.922 118.968 108.656 118.968 108.311V104.379C118.968 103.746 118.846 103.285 118.602 102.997C118.368 102.708 118.002 102.563 117.502 102.563C116.891 102.563 116.402 102.758 116.036 103.147C115.68 103.524 115.503 104.03 115.503 104.663V108.311C115.503 109.022 115.153 109.378 114.453 109.378ZM126.898 109.411C126.176 109.411 125.57 109.289 125.082 109.044C124.604 108.8 124.249 108.445 124.016 107.978C123.782 107.5 123.666 106.912 123.666 106.212V102.663H122.799C122.533 102.663 122.327 102.597 122.183 102.464C122.038 102.319 121.966 102.125 121.966 101.88C121.966 101.625 122.038 101.431 122.183 101.297C122.327 101.164 122.533 101.097 122.799 101.097H123.666V99.5813C123.666 99.237 123.754 98.976 123.932 98.7983C124.121 98.6205 124.382 98.5317 124.715 98.5317C125.048 98.5317 125.304 98.6205 125.482 98.7983C125.659 98.976 125.748 99.237 125.748 99.5813V101.097H127.514C127.781 101.097 127.986 101.164 128.131 101.297C128.275 101.431 128.347 101.625 128.347 101.88C128.347 102.125 128.275 102.319 128.131 102.464C127.986 102.597 127.781 102.663 127.514 102.663H125.748V106.095C125.748 106.629 125.865 107.028 126.098 107.295C126.331 107.562 126.709 107.695 127.231 107.695C127.42 107.695 127.586 107.678 127.731 107.645C127.875 107.612 128.003 107.589 128.114 107.578C128.247 107.567 128.358 107.612 128.447 107.712C128.536 107.8 128.58 107.989 128.58 108.278C128.58 108.5 128.542 108.7 128.464 108.878C128.397 109.044 128.269 109.161 128.081 109.228C127.936 109.272 127.747 109.311 127.514 109.344C127.281 109.389 127.075 109.411 126.898 109.411ZM130.804 109.361C130.471 109.361 130.216 109.261 130.038 109.061C129.86 108.861 129.771 108.583 129.771 108.228V102.114C129.771 101.747 129.86 101.469 130.038 101.281C130.216 101.081 130.471 100.981 130.804 100.981C131.138 100.981 131.393 101.081 131.571 101.281C131.76 101.469 131.854 101.747 131.854 102.114V108.228C131.854 108.583 131.765 108.861 131.587 109.061C131.41 109.261 131.149 109.361 130.804 109.361ZM130.804 99.4313C130.416 99.4313 130.11 99.3369 129.888 99.1481C129.677 98.9482 129.571 98.6761 129.571 98.3318C129.571 97.9763 129.677 97.7042 129.888 97.5154C130.11 97.3266 130.416 97.2322 130.804 97.2322C131.204 97.2322 131.51 97.3266 131.721 97.5154C131.932 97.7042 132.037 97.9763 132.037 98.3318C132.037 98.6761 131.932 98.9482 131.721 99.1481C131.51 99.3369 131.204 99.4313 130.804 99.4313ZM135.051 109.378C134.718 109.378 134.462 109.289 134.284 109.111C134.107 108.922 134.018 108.656 134.018 108.311V102.014C134.018 101.669 134.107 101.408 134.284 101.231C134.462 101.053 134.712 100.964 135.034 100.964C135.356 100.964 135.606 101.053 135.784 101.231C135.962 101.408 136.05 101.669 136.05 102.014V103.147L135.867 102.73C136.111 102.141 136.489 101.697 137 101.397C137.522 101.086 138.111 100.931 138.766 100.931C139.421 100.931 139.96 101.053 140.382 101.297C140.804 101.542 141.121 101.914 141.332 102.414C141.543 102.902 141.648 103.524 141.648 104.279V108.311C141.648 108.656 141.559 108.922 141.382 109.111C141.204 109.289 140.948 109.378 140.615 109.378C140.282 109.378 140.021 109.289 139.832 109.111C139.655 108.922 139.566 108.656 139.566 108.311V104.379C139.566 103.746 139.444 103.285 139.199 102.997C138.966 102.708 138.599 102.563 138.1 102.563C137.489 102.563 137 102.758 136.633 103.147C136.278 103.524 136.1 104.03 136.1 104.663V108.311C136.1 109.022 135.75 109.378 135.051 109.378ZM146.712 109.411C146.035 109.411 145.474 109.289 145.03 109.044C144.585 108.789 144.252 108.411 144.03 107.911C143.819 107.412 143.713 106.79 143.713 106.045V102.014C143.713 101.658 143.802 101.397 143.98 101.231C144.158 101.053 144.413 100.964 144.746 100.964C145.08 100.964 145.335 101.053 145.513 101.231C145.702 101.397 145.796 101.658 145.796 102.014V106.079C145.796 106.656 145.913 107.084 146.146 107.362C146.379 107.639 146.751 107.778 147.262 107.778C147.817 107.778 148.273 107.589 148.628 107.212C148.984 106.823 149.161 106.312 149.161 105.679V102.014C149.161 101.658 149.25 101.397 149.428 101.231C149.606 101.053 149.861 100.964 150.194 100.964C150.528 100.964 150.783 101.053 150.961 101.231C151.15 101.397 151.244 101.658 151.244 102.014V108.311C151.244 109.022 150.905 109.378 150.228 109.378C149.906 109.378 149.656 109.289 149.478 109.111C149.3 108.922 149.211 108.656 149.211 108.311V107.045L149.445 107.545C149.211 108.145 148.856 108.606 148.378 108.928C147.912 109.25 147.357 109.411 146.712 109.411ZM156.094 109.411C155.505 109.411 154.978 109.3 154.511 109.078C154.056 108.844 153.695 108.533 153.428 108.145C153.173 107.756 153.045 107.317 153.045 106.829C153.045 106.229 153.2 105.757 153.511 105.412C153.822 105.057 154.328 104.802 155.027 104.646C155.727 104.491 156.666 104.413 157.843 104.413H158.676V105.612H157.86C157.171 105.612 156.621 105.646 156.21 105.712C155.799 105.779 155.505 105.896 155.327 106.062C155.161 106.218 155.077 106.44 155.077 106.729C155.077 107.095 155.205 107.395 155.461 107.628C155.716 107.861 156.072 107.978 156.527 107.978C156.893 107.978 157.216 107.895 157.493 107.728C157.782 107.55 158.01 107.312 158.176 107.012C158.343 106.712 158.426 106.368 158.426 105.979V104.063C158.426 103.508 158.304 103.108 158.06 102.863C157.815 102.619 157.404 102.497 156.827 102.497C156.505 102.497 156.155 102.536 155.777 102.613C155.411 102.691 155.022 102.824 154.611 103.013C154.4 103.113 154.211 103.141 154.045 103.097C153.889 103.052 153.767 102.963 153.678 102.83C153.589 102.686 153.545 102.53 153.545 102.364C153.545 102.197 153.589 102.036 153.678 101.88C153.767 101.714 153.917 101.592 154.128 101.514C154.639 101.303 155.127 101.153 155.594 101.064C156.072 100.975 156.505 100.931 156.893 100.931C157.693 100.931 158.348 101.053 158.859 101.297C159.381 101.542 159.77 101.914 160.026 102.414C160.281 102.902 160.409 103.535 160.409 104.313V108.311C160.409 108.656 160.325 108.922 160.159 109.111C159.992 109.289 159.753 109.378 159.442 109.378C159.131 109.378 158.887 109.289 158.709 109.111C158.543 108.922 158.46 108.656 158.46 108.311V107.512H158.593C158.515 107.9 158.36 108.239 158.126 108.528C157.904 108.806 157.621 109.022 157.277 109.178C156.932 109.333 156.538 109.411 156.094 109.411ZM163.589 109.378C163.244 109.378 162.978 109.289 162.789 109.111C162.611 108.922 162.523 108.656 162.523 108.311V102.014C162.523 101.669 162.611 101.408 162.789 101.231C162.967 101.053 163.217 100.964 163.539 100.964C163.861 100.964 164.111 101.053 164.289 101.231C164.466 101.408 164.555 101.669 164.555 102.014V103.063H164.389C164.544 102.397 164.849 101.892 165.305 101.547C165.76 101.203 166.366 100.997 167.121 100.931C167.354 100.909 167.537 100.97 167.671 101.114C167.815 101.247 167.898 101.458 167.92 101.747C167.943 102.025 167.876 102.252 167.721 102.43C167.576 102.597 167.354 102.697 167.054 102.73L166.688 102.763C166.01 102.83 165.499 103.041 165.155 103.396C164.811 103.741 164.638 104.23 164.638 104.863V108.311C164.638 108.656 164.55 108.922 164.372 109.111C164.194 109.289 163.933 109.378 163.589 109.378ZM177.302 109.411C176.58 109.411 175.974 109.289 175.486 109.044C175.008 108.8 174.653 108.445 174.419 107.978C174.186 107.5 174.07 106.912 174.07 106.212V102.663H173.203C172.937 102.663 172.731 102.597 172.587 102.464C172.442 102.319 172.37 102.125 172.37 101.88C172.37 101.625 172.442 101.431 172.587 101.297C172.731 101.164 172.937 101.097 173.203 101.097H174.07V99.5813C174.07 99.237 174.158 98.976 174.336 98.7983C174.525 98.6205 174.786 98.5317 175.119 98.5317C175.452 98.5317 175.708 98.6205 175.886 98.7983C176.063 98.976 176.152 99.237 176.152 99.5813V101.097H177.918C178.185 101.097 178.39 101.164 178.535 101.297C178.679 101.431 178.751 101.625 178.751 101.88C178.751 102.125 178.679 102.319 178.535 102.464C178.39 102.597 178.185 102.663 177.918 102.663H176.152V106.095C176.152 106.629 176.269 107.028 176.502 107.295C176.735 107.562 177.113 107.695 177.635 107.695C177.824 107.695 177.99 107.678 178.135 107.645C178.279 107.612 178.407 107.589 178.518 107.578C178.651 107.567 178.762 107.612 178.851 107.712C178.94 107.8 178.984 107.989 178.984 108.278C178.984 108.5 178.945 108.7 178.868 108.878C178.801 109.044 178.673 109.161 178.485 109.228C178.34 109.272 178.151 109.311 177.918 109.344C177.685 109.389 177.479 109.411 177.302 109.411ZM181.03 109.378C180.686 109.378 180.419 109.289 180.23 109.111C180.053 108.922 179.964 108.656 179.964 108.311V102.014C179.964 101.669 180.053 101.408 180.23 101.231C180.408 101.053 180.658 100.964 180.98 100.964C181.302 100.964 181.552 101.053 181.73 101.231C181.908 101.408 181.996 101.669 181.996 102.014V103.063H181.83C181.985 102.397 182.291 101.892 182.746 101.547C183.201 101.203 183.807 100.997 184.562 100.931C184.795 100.909 184.979 100.97 185.112 101.114C185.256 101.247 185.34 101.458 185.362 101.747C185.384 102.025 185.317 102.252 185.162 102.43C185.017 102.597 184.795 102.697 184.495 102.73L184.129 102.763C183.451 102.83 182.94 103.041 182.596 103.396C182.252 103.741 182.08 104.23 182.08 104.863V108.311C182.08 108.656 181.991 108.922 181.813 109.111C181.635 109.289 181.374 109.378 181.03 109.378ZM189.17 109.411C188.582 109.411 188.054 109.3 187.588 109.078C187.132 108.844 186.771 108.533 186.505 108.145C186.249 107.756 186.121 107.317 186.121 106.829C186.121 106.229 186.277 105.757 186.588 105.412C186.899 105.057 187.404 104.802 188.104 104.646C188.804 104.491 189.742 104.413 190.92 104.413H191.753V105.612H190.936C190.248 105.612 189.698 105.646 189.287 105.712C188.876 105.779 188.582 105.896 188.404 106.062C188.237 106.218 188.154 106.44 188.154 106.729C188.154 107.095 188.282 107.395 188.537 107.628C188.793 107.861 189.148 107.978 189.603 107.978C189.97 107.978 190.292 107.895 190.57 107.728C190.859 107.55 191.086 107.312 191.253 107.012C191.419 106.712 191.503 106.368 191.503 105.979V104.063C191.503 103.508 191.381 103.108 191.136 102.863C190.892 102.619 190.481 102.497 189.903 102.497C189.581 102.497 189.231 102.536 188.854 102.613C188.487 102.691 188.099 102.824 187.688 103.013C187.477 103.113 187.288 103.141 187.121 103.097C186.966 103.052 186.843 102.963 186.755 102.83C186.666 102.686 186.621 102.53 186.621 102.364C186.621 102.197 186.666 102.036 186.755 101.88C186.843 101.714 186.993 101.592 187.204 101.514C187.715 101.303 188.204 101.153 188.671 101.064C189.148 100.975 189.581 100.931 189.97 100.931C190.77 100.931 191.425 101.053 191.936 101.297C192.458 101.542 192.847 101.914 193.102 102.414C193.358 102.902 193.485 103.535 193.485 104.313V108.311C193.485 108.656 193.402 108.922 193.235 109.111C193.069 109.289 192.83 109.378 192.519 109.378C192.208 109.378 191.964 109.289 191.786 109.111C191.619 108.922 191.536 108.656 191.536 108.311V107.512H191.669C191.592 107.9 191.436 108.239 191.203 108.528C190.981 108.806 190.698 109.022 190.353 109.178C190.009 109.333 189.615 109.411 189.17 109.411ZM190.836 99.9145C190.725 100.07 190.592 100.159 190.437 100.181C190.281 100.203 190.131 100.176 189.987 100.098C189.842 100.02 189.737 99.9089 189.67 99.7645C189.615 99.6202 189.631 99.4591 189.72 99.2814L190.986 96.799C191.086 96.588 191.22 96.4547 191.386 96.3992C191.553 96.3325 191.725 96.3214 191.903 96.3658C192.08 96.4103 192.23 96.4936 192.352 96.6158C192.486 96.7379 192.563 96.8879 192.586 97.0656C192.619 97.2322 192.575 97.4043 192.452 97.582L190.836 99.9145ZM196.665 109.378C196.332 109.378 196.077 109.289 195.899 109.111C195.721 108.922 195.632 108.656 195.632 108.311V102.014C195.632 101.669 195.721 101.408 195.899 101.231C196.077 101.053 196.327 100.964 196.649 100.964C196.971 100.964 197.221 101.053 197.398 101.231C197.576 101.408 197.665 101.669 197.665 102.014V103.23L197.482 102.73C197.704 102.175 198.048 101.736 198.515 101.414C198.981 101.092 199.536 100.931 200.181 100.931C200.836 100.931 201.375 101.086 201.797 101.397C202.219 101.708 202.513 102.186 202.68 102.83H202.446C202.669 102.241 203.035 101.78 203.546 101.447C204.057 101.103 204.646 100.931 205.312 100.931C205.934 100.931 206.445 101.053 206.845 101.297C207.256 101.542 207.561 101.914 207.761 102.414C207.961 102.902 208.061 103.524 208.061 104.279V108.311C208.061 108.656 207.967 108.922 207.778 109.111C207.6 109.289 207.345 109.378 207.011 109.378C206.678 109.378 206.423 109.289 206.245 109.111C206.067 108.922 205.978 108.656 205.978 108.311V104.363C205.978 103.741 205.873 103.285 205.662 102.997C205.462 102.708 205.118 102.563 204.629 102.563C204.085 102.563 203.657 102.758 203.346 103.147C203.035 103.524 202.88 104.052 202.88 104.729V108.311C202.88 108.656 202.791 108.922 202.613 109.111C202.435 109.289 202.18 109.378 201.847 109.378C201.514 109.378 201.253 109.289 201.064 109.111C200.886 108.922 200.797 108.656 200.797 108.311V104.363C200.797 103.741 200.692 103.285 200.481 102.997C200.281 102.708 199.942 102.563 199.464 102.563C198.92 102.563 198.492 102.758 198.181 103.147C197.87 103.524 197.715 104.052 197.715 104.729V108.311C197.715 109.022 197.365 109.378 196.665 109.378ZM211.242 109.361C210.909 109.361 210.654 109.261 210.476 109.061C210.298 108.861 210.209 108.583 210.209 108.228V102.114C210.209 101.747 210.298 101.469 210.476 101.281C210.654 101.081 210.909 100.981 211.242 100.981C211.576 100.981 211.831 101.081 212.009 101.281C212.198 101.469 212.292 101.747 212.292 102.114V108.228C212.292 108.583 212.203 108.861 212.025 109.061C211.848 109.261 211.587 109.361 211.242 109.361ZM211.242 99.4313C210.854 99.4313 210.548 99.3369 210.326 99.1481C210.115 98.9482 210.009 98.6761 210.009 98.3318C210.009 97.9763 210.115 97.7042 210.326 97.5154C210.548 97.3266 210.854 97.2322 211.242 97.2322C211.642 97.2322 211.948 97.3266 212.159 97.5154C212.37 97.7042 212.475 97.9763 212.475 98.3318C212.475 98.6761 212.37 98.9482 212.159 99.1481C211.948 99.3369 211.642 99.4313 211.242 99.4313ZM218.188 109.411C217.466 109.411 216.86 109.289 216.372 109.044C215.894 108.8 215.539 108.445 215.306 107.978C215.072 107.5 214.956 106.912 214.956 106.212V102.663H214.089C213.823 102.663 213.617 102.597 213.473 102.464C213.328 102.319 213.256 102.125 213.256 101.88C213.256 101.625 213.328 101.431 213.473 101.297C213.617 101.164 213.823 101.097 214.089 101.097H214.956V99.5813C214.956 99.237 215.045 98.976 215.222 98.7983C215.411 98.6205 215.672 98.5317 216.005 98.5317C216.338 98.5317 216.594 98.6205 216.772 98.7983C216.949 98.976 217.038 99.237 217.038 99.5813V101.097H218.804C219.071 101.097 219.276 101.164 219.421 101.297C219.565 101.431 219.637 101.625 219.637 101.88C219.637 102.125 219.565 102.319 219.421 102.464C219.276 102.597 219.071 102.663 218.804 102.663H217.038V106.095C217.038 106.629 217.155 107.028 217.388 107.295C217.621 107.562 217.999 107.695 218.521 107.695C218.71 107.695 218.876 107.678 219.021 107.645C219.165 107.612 219.293 107.589 219.404 107.578C219.537 107.567 219.648 107.612 219.737 107.712C219.826 107.8 219.87 107.989 219.87 108.278C219.87 108.5 219.832 108.7 219.754 108.878C219.687 109.044 219.559 109.161 219.371 109.228C219.226 109.272 219.037 109.311 218.804 109.344C218.571 109.389 218.365 109.411 218.188 109.411ZM224.784 109.411C223.862 109.411 223.068 109.239 222.401 108.894C221.735 108.55 221.218 108.061 220.852 107.428C220.496 106.795 220.319 106.045 220.319 105.179C220.319 104.335 220.491 103.596 220.835 102.963C221.191 102.33 221.674 101.836 222.285 101.481C222.907 101.114 223.612 100.931 224.4 100.931C224.978 100.931 225.495 101.025 225.95 101.214C226.416 101.403 226.811 101.675 227.133 102.03C227.466 102.386 227.716 102.819 227.882 103.33C228.06 103.83 228.149 104.396 228.149 105.029C228.149 105.229 228.077 105.385 227.932 105.496C227.799 105.596 227.605 105.646 227.349 105.646H222.001V104.446H226.683L226.416 104.696C226.416 104.185 226.339 103.757 226.183 103.413C226.039 103.069 225.822 102.808 225.533 102.63C225.256 102.441 224.906 102.347 224.484 102.347C224.017 102.347 223.617 102.458 223.284 102.68C222.962 102.891 222.712 103.197 222.535 103.596C222.368 103.985 222.285 104.452 222.285 104.996V105.113C222.285 106.023 222.496 106.706 222.918 107.162C223.351 107.606 223.984 107.828 224.817 107.828C225.106 107.828 225.428 107.795 225.783 107.728C226.15 107.65 226.494 107.523 226.816 107.345C227.049 107.212 227.255 107.156 227.433 107.178C227.61 107.189 227.749 107.251 227.849 107.362C227.96 107.473 228.027 107.612 228.049 107.778C228.071 107.934 228.038 108.095 227.949 108.261C227.871 108.428 227.733 108.572 227.533 108.694C227.144 108.939 226.694 109.122 226.183 109.244C225.683 109.355 225.217 109.411 224.784 109.411Z" fill="#38485C"/>
</svg>
