<svg xmlns="http://www.w3.org/2000/svg" width="712" height="205" viewBox="0 0 712 205">
  <g id="Grupo_21071" data-name="Grupo 21071" transform="translate(-513 -3079)">
    <g id="Grupo_18232" data-name="Grupo 18232" transform="translate(0 2477)">
      <path id="Trazado_20235" data-name="Trazado 20235" d="M4,0H708c2.209,0,4,.727,4,1.624V203.376c0,.9-1.791,1.624-4,1.624H4c-2.209,0-4-.727-4-1.624V1.624C0,.727,1.791,0,4,0Z" transform="translate(513 602)" fill="#f3f6f9"/>
    </g>
    <path id="Trazado_23920" data-name="Trazado 23920" d="M8.016-1.664q.96,0,.96.816,0,.848-.96.848H2.608q-.976,0-.976-.848,0-.816.976-.816H4.272v-7.3l-1.536.944a.827.827,0,0,1-.4.128.7.7,0,0,1-.568-.288,1,1,0,0,1-.232-.64.8.8,0,0,1,.416-.72l2.48-1.536a1.782,1.782,0,0,1,.912-.288.973.973,0,0,1,.72.272,1.016,1.016,0,0,1,.272.752v8.672Zm7.056-5.568a3.5,3.5,0,0,1,1.792.456A3.181,3.181,0,0,1,18.088-5.5a3.929,3.929,0,0,1,.44,1.88,3.855,3.855,0,0,1-.488,1.944A3.479,3.479,0,0,1,16.7-.336a3.906,3.906,0,0,1-1.944.48,3.989,3.989,0,0,1-3.3-1.448,6.474,6.474,0,0,1-1.16-4.136,8.527,8.527,0,0,1,.544-3.192,4.529,4.529,0,0,1,1.56-2.072,4.03,4.03,0,0,1,2.392-.72,5.426,5.426,0,0,1,1.832.328,4.773,4.773,0,0,1,1.56.888,1.2,1.2,0,0,1,.3.344.87.87,0,0,1,.088.408.926.926,0,0,1-.2.6.592.592,0,0,1-.472.248.831.831,0,0,1-.3-.056,2.284,2.284,0,0,1-.352-.184,4.3,4.3,0,0,0-2.368-.928,2.071,2.071,0,0,0-1.84,1.08,5.933,5.933,0,0,0-.7,3.032,2.745,2.745,0,0,1,1.1-1.144A3.241,3.241,0,0,1,15.072-7.232ZM14.64-1.488a1.83,1.83,0,0,0,1.408-.568,2.109,2.109,0,0,0,.528-1.5,2.08,2.08,0,0,0-.528-1.488A1.844,1.844,0,0,0,14.64-5.6a1.928,1.928,0,0,0-1.448.568,2.034,2.034,0,0,0-.552,1.48,2.055,2.055,0,0,0,.552,1.5A1.928,1.928,0,0,0,14.64-1.488ZM24.7-8.016a3.243,3.243,0,0,1,1.8.512,3.4,3.4,0,0,1,1.232,1.448,5,5,0,0,1,.44,2.152,4.845,4.845,0,0,1-.44,2.128A3.333,3.333,0,0,1,26.512-.368a3.309,3.309,0,0,1-1.808.5,3.1,3.1,0,0,1-1.488-.352A2.47,2.47,0,0,1,22.208-1.2V2.064a.83.83,0,0,1-.272.656,1.048,1.048,0,0,1-.72.24,1.037,1.037,0,0,1-.728-.256.868.868,0,0,1-.28-.672V-7.04a.914.914,0,0,1,.264-.688.979.979,0,0,1,.712-.256,1.008,1.008,0,0,1,.72.256.9.9,0,0,1,.272.688v.4a2.455,2.455,0,0,1,1.016-1.016A3.121,3.121,0,0,1,24.7-8.016Zm-.528,6.592a1.793,1.793,0,0,0,1.472-.648A2.829,2.829,0,0,0,26.176-3.9a2.989,2.989,0,0,0-.528-1.888,1.766,1.766,0,0,0-1.472-.672,1.779,1.779,0,0,0-1.48.656,2.952,2.952,0,0,0-.52,1.872A2.923,2.923,0,0,0,22.7-2.08,1.779,1.779,0,0,0,24.176-1.424Zm12.256-.048a.9.9,0,0,1,.288.656.885.885,0,0,1-.272.632.864.864,0,0,1-.64.28A.878.878,0,0,1,35.12-.24l-2.256-2.5L30.608-.24a.928.928,0,0,1-.688.32A.858.858,0,0,1,29.3-.192a.858.858,0,0,1-.272-.624.9.9,0,0,1,.288-.656l2.336-2.544-2.208-2.4a.9.9,0,0,1-.288-.656.85.85,0,0,1,.272-.632.871.871,0,0,1,.624-.264.928.928,0,0,1,.688.32l2.128,2.336,2.128-2.336a.928.928,0,0,1,.688-.32.862.862,0,0,1,.632.264.862.862,0,0,1,.264.632.9.9,0,0,1-.288.656l-2.208,2.4Z" transform="translate(689.442 3240.732)" fill="#38485c"/>
    <path id="Trazado_27912" data-name="Trazado 27912" d="M8.016-1.664q.96,0,.96.816,0,.848-.96.848H2.608q-.976,0-.976-.848,0-.816.976-.816H4.272v-7.3l-1.536.944a.827.827,0,0,1-.4.128.7.7,0,0,1-.568-.288,1,1,0,0,1-.232-.64.8.8,0,0,1,.416-.72l2.48-1.536a1.782,1.782,0,0,1,.912-.288.973.973,0,0,1,.72.272,1.016,1.016,0,0,1,.272.752v8.672Zm7.056-5.568a3.5,3.5,0,0,1,1.792.456A3.181,3.181,0,0,1,18.088-5.5a3.929,3.929,0,0,1,.44,1.88,3.855,3.855,0,0,1-.488,1.944A3.479,3.479,0,0,1,16.7-.336a3.906,3.906,0,0,1-1.944.48,3.989,3.989,0,0,1-3.3-1.448,6.474,6.474,0,0,1-1.16-4.136,8.527,8.527,0,0,1,.544-3.192,4.529,4.529,0,0,1,1.56-2.072,4.03,4.03,0,0,1,2.392-.72,5.426,5.426,0,0,1,1.832.328,4.773,4.773,0,0,1,1.56.888,1.2,1.2,0,0,1,.3.344.87.87,0,0,1,.088.408.926.926,0,0,1-.2.6.592.592,0,0,1-.472.248.831.831,0,0,1-.3-.056,2.284,2.284,0,0,1-.352-.184,4.3,4.3,0,0,0-2.368-.928,2.071,2.071,0,0,0-1.84,1.08,5.933,5.933,0,0,0-.7,3.032,2.745,2.745,0,0,1,1.1-1.144A3.241,3.241,0,0,1,15.072-7.232ZM14.64-1.488a1.83,1.83,0,0,0,1.408-.568,2.109,2.109,0,0,0,.528-1.5,2.08,2.08,0,0,0-.528-1.488A1.844,1.844,0,0,0,14.64-5.6a1.928,1.928,0,0,0-1.448.568,2.034,2.034,0,0,0-.552,1.48,2.055,2.055,0,0,0,.552,1.5A1.928,1.928,0,0,0,14.64-1.488ZM24.7-8.016a3.243,3.243,0,0,1,1.8.512,3.4,3.4,0,0,1,1.232,1.448,5,5,0,0,1,.44,2.152,4.845,4.845,0,0,1-.44,2.128A3.333,3.333,0,0,1,26.512-.368a3.309,3.309,0,0,1-1.808.5,3.1,3.1,0,0,1-1.488-.352A2.47,2.47,0,0,1,22.208-1.2V2.064a.83.83,0,0,1-.272.656,1.048,1.048,0,0,1-.72.24,1.037,1.037,0,0,1-.728-.256.868.868,0,0,1-.28-.672V-7.04a.914.914,0,0,1,.264-.688.979.979,0,0,1,.712-.256,1.008,1.008,0,0,1,.72.256.9.9,0,0,1,.272.688v.4a2.455,2.455,0,0,1,1.016-1.016A3.121,3.121,0,0,1,24.7-8.016Zm-.528,6.592a1.793,1.793,0,0,0,1.472-.648A2.829,2.829,0,0,0,26.176-3.9a2.989,2.989,0,0,0-.528-1.888,1.766,1.766,0,0,0-1.472-.672,1.779,1.779,0,0,0-1.48.656,2.952,2.952,0,0,0-.52,1.872A2.923,2.923,0,0,0,22.7-2.08,1.779,1.779,0,0,0,24.176-1.424Zm12.256-.048a.9.9,0,0,1,.288.656.885.885,0,0,1-.272.632.864.864,0,0,1-.64.28A.878.878,0,0,1,35.12-.24l-2.256-2.5L30.608-.24a.928.928,0,0,1-.688.32A.858.858,0,0,1,29.3-.192a.858.858,0,0,1-.272-.624.9.9,0,0,1,.288-.656l2.336-2.544-2.208-2.4a.9.9,0,0,1-.288-.656.85.85,0,0,1,.272-.632.871.871,0,0,1,.624-.264.928.928,0,0,1,.688.32l2.128,2.336,2.128-2.336a.928.928,0,0,1,.688-.32.862.862,0,0,1,.632.264.862.862,0,0,1,.264.632.9.9,0,0,1-.288.656l-2.208,2.4Z" transform="translate(1012.872 3240.732)" fill="#38485c"/>
    <rect id="Rectángulo_17144" data-name="Rectángulo 17144" width="324" height="72" rx="8" transform="translate(708 3150.309)" fill="#fff"/>
    <g id="Navegación_Chevron_derecho" data-name="Navegación / Chevron derecho" transform="translate(992 3174.309)" opacity="0.24">
      <path id="Trazado_33" data-name="Trazado 33" d="M0,0H24V24H0Z" fill="none"/>
      <path id="Trazado_34" data-name="Trazado 34" d="M9.29,6.71a1,1,0,0,0,0,1.41L13.17,12,9.29,15.88a1,1,0,1,0,1.41,1.41l4.59-4.59a1,1,0,0,0,0-1.41L10.7,6.7A1,1,0,0,0,9.29,6.71Z" fill="#007bc7"/>
    </g>
    <text id="Título" transform="translate(724 3175.307)" fill="#007bc7" font-size="16" font-family="OpenSans-Regular, Open Sans" opacity="0.24"><tspan x="0" y="17">Título</tspan></text>
    <g id="Grupo_19190" data-name="Grupo 19190" transform="translate(716.57 3151.309) rotate(90)">
      <rect id="Rectángulo_3425" data-name="Rectángulo 3425" width="15.817" height="69.816" transform="translate(69.816 0.183) rotate(90)" fill="#007bc7" opacity="0.24"/>
      <path id="Trazado_4669" data-name="Trazado 4669" d="M0,70V0" transform="translate(70 15.925) rotate(90)" fill="none" stroke="#007bc7" stroke-width="1" stroke-dasharray="5 2"/>
      <path id="Trazado_4670" data-name="Trazado 4670" d="M0,70V0" transform="translate(70) rotate(90)" fill="none" stroke="#007bc7" stroke-width="1" stroke-dasharray="5 2"/>
    </g>
    <path id="Trazado_26571" data-name="Trazado 26571" d="M11.44-1.232a.985.985,0,0,1,.1.416.8.8,0,0,1-.3.624,1.009,1.009,0,0,1-.68.256.909.909,0,0,1-.48-.136A.907.907,0,0,1,9.728-.5L8.768-2.64H3.136L2.176-.5a.907.907,0,0,1-.352.424.937.937,0,0,1-.5.136A1.019,1.019,0,0,1,.656-.192a.787.787,0,0,1-.3-.624.985.985,0,0,1,.1-.416L4.864-10.72a1.032,1.032,0,0,1,.44-.488,1.26,1.26,0,0,1,.632-.168,1.26,1.26,0,0,1,.632.168,1.032,1.032,0,0,1,.44.488ZM3.84-4.24H8.064L5.952-8.992Zm13.6-3.776a2.615,2.615,0,0,1,2.1.8A3.628,3.628,0,0,1,20.224-4.8V-.864a.935.935,0,0,1-.264.7A1,1,0,0,1,19.232.1,1.03,1.03,0,0,1,18.5-.16a.92.92,0,0,1-.272-.7V-4.688a2.074,2.074,0,0,0-.344-1.328,1.322,1.322,0,0,0-1.08-.416,1.826,1.826,0,0,0-1.384.544,2.019,2.019,0,0,0-.52,1.456V-.864a.92.92,0,0,1-.272.7A1.03,1.03,0,0,1,13.888.1,1,1,0,0,1,13.16-.16a.935.935,0,0,1-.264-.7V-7.056a.88.88,0,0,1,.272-.672,1.03,1.03,0,0,1,.736-.256.953.953,0,0,1,.68.248.848.848,0,0,1,.264.648v.432A2.706,2.706,0,0,1,15.92-7.664,3.226,3.226,0,0,1,17.44-8.016ZM25.712.128a4.146,4.146,0,0,1-2.056-.5,3.381,3.381,0,0,1-1.368-1.408,4.505,4.505,0,0,1-.48-2.128,4.468,4.468,0,0,1,.5-2.152A3.56,3.56,0,0,1,23.728-7.5a4.208,4.208,0,0,1,2.1-.512,4.665,4.665,0,0,1,1.256.176,4.143,4.143,0,0,1,1.112.48.99.99,0,0,1,.512.848.9.9,0,0,1-.168.568.531.531,0,0,1-.44.216.956.956,0,0,1-.368-.08A3.223,3.223,0,0,1,27.344-6a4.3,4.3,0,0,0-.672-.328,2.088,2.088,0,0,0-.736-.12,1.871,1.871,0,0,0-1.528.648,2.855,2.855,0,0,0-.536,1.864,2.827,2.827,0,0,0,.536,1.848,1.871,1.871,0,0,0,1.528.648,1.973,1.973,0,0,0,.712-.12,6.031,6.031,0,0,0,.7-.328A3.168,3.168,0,0,1,27.76-2.1a.923.923,0,0,1,.352-.072.531.531,0,0,1,.432.224.879.879,0,0,1,.176.56.9.9,0,0,1-.12.472,1.081,1.081,0,0,1-.392.36,4.207,4.207,0,0,1-1.152.5A4.953,4.953,0,0,1,25.712.128Zm8.9-8.144q2.752,0,2.752,3.216V-.864a.935.935,0,0,1-.264.7A1,1,0,0,1,36.368.1a1.03,1.03,0,0,1-.736-.256.92.92,0,0,1-.272-.7V-4.8a1.852,1.852,0,0,0-.344-1.24,1.365,1.365,0,0,0-1.08-.392,1.826,1.826,0,0,0-1.384.544,2.019,2.019,0,0,0-.52,1.456V-.864a.92.92,0,0,1-.272.7A1.03,1.03,0,0,1,31.024.1,1,1,0,0,1,30.3-.16a.935.935,0,0,1-.264-.7v-9.568a.868.868,0,0,1,.28-.672,1.037,1.037,0,0,1,.728-.256,1.048,1.048,0,0,1,.72.24.83.83,0,0,1,.272.656v3.728A2.619,2.619,0,0,1,33.1-7.688,3.37,3.37,0,0,1,34.608-8.016ZM42.944.128a4.3,4.3,0,0,1-2.1-.5,3.432,3.432,0,0,1-1.4-1.424,4.515,4.515,0,0,1-.5-2.16,4.468,4.468,0,0,1,.5-2.152,3.444,3.444,0,0,1,1.4-1.416,4.3,4.3,0,0,1,2.1-.5,4.3,4.3,0,0,1,2.1.5A3.394,3.394,0,0,1,46.44-6.1a4.527,4.527,0,0,1,.488,2.152,4.575,4.575,0,0,1-.488,2.16A3.382,3.382,0,0,1,45.048-.368,4.3,4.3,0,0,1,42.944.128Zm-.016-1.552a1.793,1.793,0,0,0,1.488-.64,2.973,2.973,0,0,0,.512-1.888,2.979,2.979,0,0,0-.512-1.88,1.765,1.765,0,0,0-1.472-.648,1.788,1.788,0,0,0-1.48.648,2.946,2.946,0,0,0-.52,1.88,2.973,2.973,0,0,0,.512,1.888A1.775,1.775,0,0,0,42.928-1.424ZM58.336-7.408a.979.979,0,0,1,.344-.432.834.834,0,0,1,.472-.144,1.007,1.007,0,0,1,.664.248.772.772,0,0,1,.3.616.852.852,0,0,1-.1.384L57.056-.544a1.053,1.053,0,0,1-.408.464,1.105,1.105,0,0,1-.584.16,1.161,1.161,0,0,1-.584-.16,1.025,1.025,0,0,1-.424-.464L52.08-6.736A.812.812,0,0,1,52-7.1a.78.78,0,0,1,.312-.624,1.091,1.091,0,0,1,.712-.256.892.892,0,0,1,.848.56l2.24,4.944Zm6.224-.608a3.259,3.259,0,0,1,2.424.808,3.383,3.383,0,0,1,.792,2.456v3.9a.9.9,0,0,1-.256.68.969.969,0,0,1-.7.248.936.936,0,0,1-.68-.256.894.894,0,0,1-.264-.672V-1.2a2.088,2.088,0,0,1-.856.976,2.568,2.568,0,0,1-1.352.352,3.139,3.139,0,0,1-1.424-.32,2.533,2.533,0,0,1-1.008-.88,2.224,2.224,0,0,1-.368-1.248,1.977,1.977,0,0,1,.44-1.36,2.644,2.644,0,0,1,1.432-.72,13.041,13.041,0,0,1,2.736-.224h.4v-.368a1.638,1.638,0,0,0-.336-1.144,1.43,1.43,0,0,0-1.088-.36,3.452,3.452,0,0,0-.944.136q-.48.136-1.136.392a1.6,1.6,0,0,1-.608.208.6.6,0,0,1-.472-.208.791.791,0,0,1-.184-.544.819.819,0,0,1,.136-.472A1.291,1.291,0,0,1,61.7-7.36a5.215,5.215,0,0,1,1.336-.48A6.893,6.893,0,0,1,64.56-8.016Zm-.5,6.7a1.709,1.709,0,0,0,1.3-.536,1.939,1.939,0,0,0,.5-1.384v-.336h-.288a11.038,11.038,0,0,0-1.664.1,1.616,1.616,0,0,0-.848.336.856.856,0,0,0-.256.656,1.085,1.085,0,0,0,.36.84A1.27,1.27,0,0,0,64.064-1.312Zm10.1-6.672a.861.861,0,0,1,.656.176.781.781,0,0,1,.24.624.872.872,0,0,1-.208.64,1.278,1.278,0,0,1-.752.272l-.48.048a1.944,1.944,0,0,0-1.384.64,2.093,2.093,0,0,0-.44,1.36v3.36a.888.888,0,0,1-.288.712,1.064,1.064,0,0,1-.72.248,1.034,1.034,0,0,1-.712-.248.9.9,0,0,1-.28-.712V-7.056a.856.856,0,0,1,.28-.688,1.032,1.032,0,0,1,.7-.24.962.962,0,0,1,.672.232.85.85,0,0,1,.256.664v.64a2.368,2.368,0,0,1,.9-1.088,2.771,2.771,0,0,1,1.336-.432ZM76.9.1a1.034,1.034,0,0,1-.712-.248.9.9,0,0,1-.28-.712V-7.04a.876.876,0,0,1,.28-.7,1.055,1.055,0,0,1,.712-.24,1.087,1.087,0,0,1,.72.24.864.864,0,0,1,.288.7V-.864a.888.888,0,0,1-.288.712A1.064,1.064,0,0,1,76.9.1Zm0-9.5a1.222,1.222,0,0,1-.864-.3,1.008,1.008,0,0,1-.32-.776.983.983,0,0,1,.32-.768,1.243,1.243,0,0,1,.864-.288,1.25,1.25,0,0,1,.856.288.971.971,0,0,1,.328.768,1.008,1.008,0,0,1-.32.776A1.222,1.222,0,0,1,76.9-9.408Zm6.448,1.392a3.259,3.259,0,0,1,2.424.808,3.383,3.383,0,0,1,.792,2.456v3.9a.9.9,0,0,1-.256.68.969.969,0,0,1-.7.248.936.936,0,0,1-.68-.256.894.894,0,0,1-.264-.672V-1.2a2.088,2.088,0,0,1-.856.976,2.568,2.568,0,0,1-1.352.352,3.139,3.139,0,0,1-1.424-.32,2.533,2.533,0,0,1-1.008-.88,2.224,2.224,0,0,1-.368-1.248,1.977,1.977,0,0,1,.44-1.36A2.644,2.644,0,0,1,81.52-4.4a13.041,13.041,0,0,1,2.736-.224h.4v-.368a1.638,1.638,0,0,0-.336-1.144,1.43,1.43,0,0,0-1.088-.36,3.452,3.452,0,0,0-.944.136q-.48.136-1.136.392a1.6,1.6,0,0,1-.608.208.6.6,0,0,1-.472-.208.791.791,0,0,1-.184-.544.819.819,0,0,1,.136-.472,1.291,1.291,0,0,1,.456-.376,5.215,5.215,0,0,1,1.336-.48A6.893,6.893,0,0,1,83.344-8.016Zm-.5,6.7a1.709,1.709,0,0,0,1.3-.536,1.939,1.939,0,0,0,.5-1.384v-.336h-.288a11.038,11.038,0,0,0-1.664.1,1.615,1.615,0,0,0-.848.336.856.856,0,0,0-.256.656,1.085,1.085,0,0,0,.36.84A1.27,1.27,0,0,0,82.848-1.312Zm10.224-6.7a3.309,3.309,0,0,1,1.808.5A3.333,3.333,0,0,1,96.1-6.112a4.845,4.845,0,0,1,.44,2.128,5,5,0,0,1-.44,2.152A3.4,3.4,0,0,1,94.872-.384a3.243,3.243,0,0,1-1.8.512A3.066,3.066,0,0,1,91.56-.24a2.5,2.5,0,0,1-1.016-1.024v.4a.9.9,0,0,1-.272.688,1.008,1.008,0,0,1-.72.256.979.979,0,0,1-.712-.256.914.914,0,0,1-.264-.688v-9.568a.868.868,0,0,1,.28-.672,1.037,1.037,0,0,1,.728-.256,1.048,1.048,0,0,1,.72.24.83.83,0,0,1,.272.656v3.776a2.392,2.392,0,0,1,1.008-.984A3.156,3.156,0,0,1,93.072-8.016Zm-.528,6.592A1.766,1.766,0,0,0,94.016-2.1a2.989,2.989,0,0,0,.528-1.888,2.854,2.854,0,0,0-.52-1.84,1.8,1.8,0,0,0-1.48-.64,1.788,1.788,0,0,0-1.48.648,2.917,2.917,0,0,0-.52,1.864,2.952,2.952,0,0,0,.52,1.872A1.779,1.779,0,0,0,92.544-1.424ZM99.168.1a1.034,1.034,0,0,1-.712-.248.9.9,0,0,1-.28-.712v-9.552a.876.876,0,0,1,.28-.7,1.055,1.055,0,0,1,.712-.24,1.087,1.087,0,0,1,.72.24.864.864,0,0,1,.288.7V-.864a.888.888,0,0,1-.288.712A1.064,1.064,0,0,1,99.168.1Zm9.248-2.24a.538.538,0,0,1,.44.208.865.865,0,0,1,.168.56.97.97,0,0,1-.592.832,5.349,5.349,0,0,1-1.232.488,5.079,5.079,0,0,1-1.312.184A4.077,4.077,0,0,1,102.9-.96a3.988,3.988,0,0,1-1.1-2.976,4.566,4.566,0,0,1,.48-2.128,3.49,3.49,0,0,1,1.352-1.44,3.829,3.829,0,0,1,1.976-.512,3.546,3.546,0,0,1,1.84.464,3.146,3.146,0,0,1,1.216,1.312,4.353,4.353,0,0,1,.432,2q0,.688-.608.688h-4.72a2.517,2.517,0,0,0,.624,1.624,2.1,2.1,0,0,0,1.536.52,2.913,2.913,0,0,0,.9-.128,8.923,8.923,0,0,0,.888-.352A1.766,1.766,0,0,1,108.416-2.144Zm-2.768-4.464a1.717,1.717,0,0,0-1.3.512,2.417,2.417,0,0,0-.584,1.472h3.616a2.281,2.281,0,0,0-.48-1.48A1.583,1.583,0,0,0,105.648-6.608ZM117.856.128A5.144,5.144,0,0,1,115.04-.56a.954.954,0,0,1-.512-.864.758.758,0,0,1,.176-.52.554.554,0,0,1,.432-.2,1.767,1.767,0,0,1,.752.256,7,7,0,0,0,.936.368,3.812,3.812,0,0,0,1.08.128,2.054,2.054,0,0,0,1.048-.224.694.694,0,0,0,.376-.624.6.6,0,0,0-.152-.432,1.394,1.394,0,0,0-.544-.3,11.44,11.44,0,0,0-1.192-.312A4.58,4.58,0,0,1,115.4-4.1a1.816,1.816,0,0,1-.616-1.456,2.1,2.1,0,0,1,.416-1.272,2.7,2.7,0,0,1,1.144-.88A4.168,4.168,0,0,1,118-8.016a4.963,4.963,0,0,1,1.3.168,3.94,3.94,0,0,1,1.12.488.966.966,0,0,1,.512.848.821.821,0,0,1-.176.536.538.538,0,0,1-.432.216.865.865,0,0,1-.344-.072,4.615,4.615,0,0,1-.424-.216,6.709,6.709,0,0,0-.8-.36,2.5,2.5,0,0,0-.832-.12,1.611,1.611,0,0,0-.936.24.758.758,0,0,0-.344.656.666.666,0,0,0,.352.608,5.041,5.041,0,0,0,1.36.416,7.76,7.76,0,0,1,1.68.512,1.968,1.968,0,0,1,.872.72,2.089,2.089,0,0,1,.264,1.1,2.052,2.052,0,0,1-.9,1.744A4.013,4.013,0,0,1,117.856.128Zm11.1-2.272a.538.538,0,0,1,.44.208.865.865,0,0,1,.168.56.97.97,0,0,1-.592.832,5.349,5.349,0,0,1-1.232.488,5.079,5.079,0,0,1-1.312.184A4.077,4.077,0,0,1,123.44-.96a3.988,3.988,0,0,1-1.1-2.976,4.566,4.566,0,0,1,.48-2.128,3.49,3.49,0,0,1,1.352-1.44,3.829,3.829,0,0,1,1.976-.512,3.546,3.546,0,0,1,1.84.464A3.146,3.146,0,0,1,129.2-6.24a4.353,4.353,0,0,1,.432,2q0,.688-.608.688H124.3a2.517,2.517,0,0,0,.624,1.624,2.1,2.1,0,0,0,1.536.52,2.913,2.913,0,0,0,.9-.128,8.923,8.923,0,0,0,.888-.352A1.766,1.766,0,0,1,128.96-2.144Zm-2.768-4.464a1.717,1.717,0,0,0-1.3.512,2.417,2.417,0,0,0-.584,1.472h3.616a2.281,2.281,0,0,0-.48-1.48A1.583,1.583,0,0,0,126.192-6.608Zm11.68-1.376a1.008,1.008,0,0,1,.72.256.9.9,0,0,1,.272.688V-.72a3.6,3.6,0,0,1-1.024,2.784,4.317,4.317,0,0,1-3.024.944,5.88,5.88,0,0,1-2.912-.656,1,1,0,0,1-.592-.848.865.865,0,0,1,.168-.56.538.538,0,0,1,.44-.208,1.113,1.113,0,0,1,.352.072q.208.072.432.168a9.172,9.172,0,0,0,1.032.368,3.888,3.888,0,0,0,1.048.128,1.832,1.832,0,0,0,2.1-2.048V-1.6a2.443,2.443,0,0,1-1.024,1.016,3.2,3.2,0,0,1-1.536.36A3.391,3.391,0,0,1,132.5-.712a3.354,3.354,0,0,1-1.24-1.368,4.419,4.419,0,0,1-.448-2.032,4.537,4.537,0,0,1,.44-2.04,3.272,3.272,0,0,1,1.24-1.376,3.432,3.432,0,0,1,1.824-.488,3.2,3.2,0,0,1,1.536.36A2.443,2.443,0,0,1,136.88-6.64v-.416a.88.88,0,0,1,.272-.672A1.008,1.008,0,0,1,137.872-7.984Zm-3.024,6.208a1.866,1.866,0,0,0,1.5-.624,2.542,2.542,0,0,0,.536-1.712,2.568,2.568,0,0,0-.536-1.728,1.866,1.866,0,0,0-1.5-.624,1.872,1.872,0,0,0-1.488.624,2.543,2.543,0,0,0-.544,1.728A2.517,2.517,0,0,0,133.36-2.4,1.872,1.872,0,0,0,134.848-1.776Zm12.24-6.208a1.03,1.03,0,0,1,.736.256.9.9,0,0,1,.272.688V-.832a.868.868,0,0,1-.28.672,1.037,1.037,0,0,1-.728.256.965.965,0,0,1-.688-.24.856.856,0,0,1-.256-.656v-.4a2.549,2.549,0,0,1-.992.984,2.867,2.867,0,0,1-1.408.344q-2.88,0-2.88-3.232V-7.04a.9.9,0,0,1,.272-.688,1.008,1.008,0,0,1,.72-.256,1.03,1.03,0,0,1,.736.256.9.9,0,0,1,.272.688v3.952a1.888,1.888,0,0,0,.336,1.232,1.3,1.3,0,0,0,1.056.4,1.722,1.722,0,0,0,1.336-.552,2.087,2.087,0,0,0,.5-1.464V-7.04a.9.9,0,0,1,.272-.688A1.008,1.008,0,0,1,147.088-7.984ZM144.9-8.9a.6.6,0,0,1-.352.128.511.511,0,0,1-.376-.152.492.492,0,0,1-.152-.36.6.6,0,0,1,.128-.352L145.7-11.7a1.058,1.058,0,0,1,.848-.48.817.817,0,0,1,.6.248.8.8,0,0,1,.248.584.936.936,0,0,1-.432.768Zm9.808.88a2.615,2.615,0,0,1,2.1.8,3.628,3.628,0,0,1,.688,2.416V-.864a.935.935,0,0,1-.264.7A1,1,0,0,1,156.5.1a1.03,1.03,0,0,1-.736-.256.92.92,0,0,1-.272-.7V-4.688a2.074,2.074,0,0,0-.344-1.328,1.322,1.322,0,0,0-1.08-.416,1.826,1.826,0,0,0-1.384.544,2.019,2.019,0,0,0-.52,1.456V-.864a.92.92,0,0,1-.272.7,1.03,1.03,0,0,1-.736.256,1,1,0,0,1-.728-.256.935.935,0,0,1-.264-.7V-7.056a.88.88,0,0,1,.272-.672,1.03,1.03,0,0,1,.736-.256.953.953,0,0,1,.68.248.848.848,0,0,1,.264.648v.432a2.706,2.706,0,0,1,1.072-1.008A3.226,3.226,0,0,1,154.7-8.016Zm13.184,6.624q.8.048.8.72a.651.651,0,0,1-.312.584,1.489,1.489,0,0,1-.888.168l-.432-.032a2.574,2.574,0,0,1-2.688-2.88V-6.32h-.8a1.016,1.016,0,0,1-.664-.192.685.685,0,0,1-.232-.56.685.685,0,0,1,.232-.56,1.016,1.016,0,0,1,.664-.192h.8V-9.3a.9.9,0,0,1,.272-.688,1.03,1.03,0,0,1,.736-.256,1.008,1.008,0,0,1,.72.256.9.9,0,0,1,.272.688v1.472h1.36a1.016,1.016,0,0,1,.664.192.685.685,0,0,1,.232.56.685.685,0,0,1-.232.56,1.016,1.016,0,0,1-.664.192h-1.36v3.632q0,1.184,1.088,1.264Zm8.016-.752a.538.538,0,0,1,.44.208.865.865,0,0,1,.168.56.97.97,0,0,1-.592.832,5.349,5.349,0,0,1-1.232.488,5.079,5.079,0,0,1-1.312.184A4.077,4.077,0,0,1,170.384-.96a3.988,3.988,0,0,1-1.1-2.976,4.566,4.566,0,0,1,.48-2.128,3.49,3.49,0,0,1,1.352-1.44,3.829,3.829,0,0,1,1.976-.512,3.546,3.546,0,0,1,1.84.464,3.146,3.146,0,0,1,1.216,1.312,4.353,4.353,0,0,1,.432,2q0,.688-.608.688h-4.72a2.517,2.517,0,0,0,.624,1.624,2.1,2.1,0,0,0,1.536.52,2.913,2.913,0,0,0,.9-.128,8.923,8.923,0,0,0,.888-.352A1.766,1.766,0,0,1,175.9-2.144Zm-2.768-4.464a1.717,1.717,0,0,0-1.3.512,2.417,2.417,0,0,0-.584,1.472h3.616a2.281,2.281,0,0,0-.48-1.48A1.583,1.583,0,0,0,173.136-6.608Zm11.68,5.136a.9.9,0,0,1,.288.656.885.885,0,0,1-.272.632.864.864,0,0,1-.64.28A.878.878,0,0,1,183.5-.24l-2.256-2.5-2.256,2.5a.928.928,0,0,1-.688.32.858.858,0,0,1-.624-.272.858.858,0,0,1-.272-.624.9.9,0,0,1,.288-.656l2.336-2.544-2.208-2.4a.9.9,0,0,1-.288-.656.85.85,0,0,1,.272-.632.871.871,0,0,1,.624-.264.928.928,0,0,1,.688.32l2.128,2.336,2.128-2.336a.928.928,0,0,1,.688-.32.862.862,0,0,1,.632.264.862.862,0,0,1,.264.632.9.9,0,0,1-.288.656l-2.208,2.4Zm5.776.08q.8.048.8.72a.651.651,0,0,1-.312.584,1.489,1.489,0,0,1-.888.168L189.76.048a2.574,2.574,0,0,1-2.688-2.88V-6.32h-.8a1.016,1.016,0,0,1-.664-.192.685.685,0,0,1-.232-.56.685.685,0,0,1,.232-.56,1.016,1.016,0,0,1,.664-.192h.8V-9.3a.9.9,0,0,1,.272-.688,1.03,1.03,0,0,1,.736-.256,1.008,1.008,0,0,1,.72.256.9.9,0,0,1,.272.688v1.472h1.36a1.016,1.016,0,0,1,.664.192.685.685,0,0,1,.232.56.685.685,0,0,1-.232.56,1.016,1.016,0,0,1-.664.192h-1.36v3.632q0,1.184,1.088,1.264Zm5.392,1.52a4.3,4.3,0,0,1-2.1-.5,3.432,3.432,0,0,1-1.4-1.424,4.515,4.515,0,0,1-.5-2.16,4.467,4.467,0,0,1,.5-2.152,3.444,3.444,0,0,1,1.4-1.416,4.3,4.3,0,0,1,2.1-.5,4.3,4.3,0,0,1,2.1.5A3.394,3.394,0,0,1,199.48-6.1a4.527,4.527,0,0,1,.488,2.152,4.575,4.575,0,0,1-.488,2.16,3.382,3.382,0,0,1-1.392,1.424A4.3,4.3,0,0,1,195.984.128Zm-.016-1.552a1.793,1.793,0,0,0,1.488-.64,2.973,2.973,0,0,0,.512-1.888,2.979,2.979,0,0,0-.512-1.88,1.765,1.765,0,0,0-1.472-.648,1.788,1.788,0,0,0-1.48.648,2.946,2.946,0,0,0-.52,1.88,2.973,2.973,0,0,0,.512,1.888A1.775,1.775,0,0,0,195.968-1.424Z" transform="translate(769.84 3139.484)" fill="#9eaab8"/>
    <path id="Trazado_26573" data-name="Trazado 26573" d="M-29.216-1.664q.96,0,.96.816,0,.848-.96.848H-35.3a.87.87,0,0,1-.656-.248.851.851,0,0,1-.24-.616,1.218,1.218,0,0,1,.368-.864l3.648-3.92A6.316,6.316,0,0,0-31.192-7a2.691,2.691,0,0,0,.312-1.224,1.492,1.492,0,0,0-.432-1.152,1.748,1.748,0,0,0-1.232-.4,3.376,3.376,0,0,0-1.272.248,6.362,6.362,0,0,0-1.24.68,1.968,1.968,0,0,1-.32.184.774.774,0,0,1-.32.072.587.587,0,0,1-.472-.256.958.958,0,0,1-.2-.608.92.92,0,0,1,.088-.416,1.068,1.068,0,0,1,.28-.336,5.545,5.545,0,0,1,1.648-.888,5.721,5.721,0,0,1,1.888-.328,3.942,3.942,0,0,1,2.632.832,2.782,2.782,0,0,1,.984,2.24,4.136,4.136,0,0,1-.416,1.832,8.119,8.119,0,0,1-1.408,1.912L-33.44-1.664Zm10.048-2.144a1.074,1.074,0,0,1,.72.208.741.741,0,0,1,.24.592q0,.8-.96.8h-.816V-.944a1.021,1.021,0,0,1-.28.768A1,1,0,0,1-20.992.1a1,1,0,0,1-.728-.272A1.021,1.021,0,0,1-22-.944V-2.208h-4.192a.892.892,0,0,1-.672-.248.851.851,0,0,1-.24-.616,1.234,1.234,0,0,1,.256-.736l4.944-7.1a1.079,1.079,0,0,1,.4-.344,1.1,1.1,0,0,1,.5-.12,1.044,1.044,0,0,1,.72.272.977.977,0,0,1,.3.768v6.528Zm-2.832,0v-4.3l-2.976,4.3Zm9.568-4.208a3.243,3.243,0,0,1,1.8.512A3.4,3.4,0,0,1-9.4-6.056,5,5,0,0,1-8.96-3.9,4.845,4.845,0,0,1-9.4-1.776,3.333,3.333,0,0,1-10.624-.368a3.309,3.309,0,0,1-1.808.5A3.1,3.1,0,0,1-13.92-.224,2.47,2.47,0,0,1-14.928-1.2V2.064a.83.83,0,0,1-.272.656,1.048,1.048,0,0,1-.72.24,1.037,1.037,0,0,1-.728-.256.868.868,0,0,1-.28-.672V-7.04a.914.914,0,0,1,.264-.688.979.979,0,0,1,.712-.256,1.008,1.008,0,0,1,.72.256.9.9,0,0,1,.272.688v.4a2.455,2.455,0,0,1,1.016-1.016A3.121,3.121,0,0,1-12.432-8.016Zm-.528,6.592a1.793,1.793,0,0,0,1.472-.648A2.829,2.829,0,0,0-10.96-3.9a2.989,2.989,0,0,0-.528-1.888,1.766,1.766,0,0,0-1.472-.672,1.779,1.779,0,0,0-1.48.656,2.952,2.952,0,0,0-.52,1.872,2.923,2.923,0,0,0,.52,1.856A1.779,1.779,0,0,0-12.96-1.424ZM-.688-1.472A.9.9,0,0,1-.4-.816a.885.885,0,0,1-.272.632.864.864,0,0,1-.64.28A.878.878,0,0,1-2-.24l-2.256-2.5L-6.512-.24A.928.928,0,0,1-7.2.08a.858.858,0,0,1-.624-.272A.858.858,0,0,1-8.1-.816a.9.9,0,0,1,.288-.656l2.336-2.544-2.208-2.4a.9.9,0,0,1-.288-.656A.85.85,0,0,1-7.7-7.7a.871.871,0,0,1,.624-.264.928.928,0,0,1,.688.32l2.128,2.336,2.128-2.336a.928.928,0,0,1,.688-.32A.862.862,0,0,1-.808-7.7a.862.862,0,0,1,.264.632.9.9,0,0,1-.288.656l-2.208,2.4Z" transform="translate(692.378 3167.54)" fill="#38485c"/>
    <path id="Trazado_26574" data-name="Trazado 26574" d="M-29.216-1.664q.96,0,.96.816,0,.848-.96.848H-35.3a.87.87,0,0,1-.656-.248.851.851,0,0,1-.24-.616,1.218,1.218,0,0,1,.368-.864l3.648-3.92A6.316,6.316,0,0,0-31.192-7a2.691,2.691,0,0,0,.312-1.224,1.492,1.492,0,0,0-.432-1.152,1.748,1.748,0,0,0-1.232-.4,3.376,3.376,0,0,0-1.272.248,6.362,6.362,0,0,0-1.24.68,1.968,1.968,0,0,1-.32.184.774.774,0,0,1-.32.072.587.587,0,0,1-.472-.256.958.958,0,0,1-.2-.608.92.92,0,0,1,.088-.416,1.068,1.068,0,0,1,.28-.336,5.545,5.545,0,0,1,1.648-.888,5.721,5.721,0,0,1,1.888-.328,3.942,3.942,0,0,1,2.632.832,2.782,2.782,0,0,1,.984,2.24,4.136,4.136,0,0,1-.416,1.832,8.119,8.119,0,0,1-1.408,1.912L-33.44-1.664Zm10.048-2.144a1.074,1.074,0,0,1,.72.208.741.741,0,0,1,.24.592q0,.8-.96.8h-.816V-.944a1.021,1.021,0,0,1-.28.768A1,1,0,0,1-20.992.1a1,1,0,0,1-.728-.272A1.021,1.021,0,0,1-22-.944V-2.208h-4.192a.892.892,0,0,1-.672-.248.851.851,0,0,1-.24-.616,1.234,1.234,0,0,1,.256-.736l4.944-7.1a1.079,1.079,0,0,1,.4-.344,1.1,1.1,0,0,1,.5-.12,1.044,1.044,0,0,1,.72.272.977.977,0,0,1,.3.768v6.528Zm-2.832,0v-4.3l-2.976,4.3Zm9.568-4.208a3.243,3.243,0,0,1,1.8.512A3.4,3.4,0,0,1-9.4-6.056,5,5,0,0,1-8.96-3.9,4.845,4.845,0,0,1-9.4-1.776,3.333,3.333,0,0,1-10.624-.368a3.309,3.309,0,0,1-1.808.5A3.1,3.1,0,0,1-13.92-.224,2.47,2.47,0,0,1-14.928-1.2V2.064a.83.83,0,0,1-.272.656,1.048,1.048,0,0,1-.72.24,1.037,1.037,0,0,1-.728-.256.868.868,0,0,1-.28-.672V-7.04a.914.914,0,0,1,.264-.688.979.979,0,0,1,.712-.256,1.008,1.008,0,0,1,.72.256.9.9,0,0,1,.272.688v.4a2.455,2.455,0,0,1,1.016-1.016A3.121,3.121,0,0,1-12.432-8.016Zm-.528,6.592a1.793,1.793,0,0,0,1.472-.648A2.829,2.829,0,0,0-10.96-3.9a2.989,2.989,0,0,0-.528-1.888,1.766,1.766,0,0,0-1.472-.672,1.779,1.779,0,0,0-1.48.656,2.952,2.952,0,0,0-.52,1.872,2.923,2.923,0,0,0,.52,1.856A1.779,1.779,0,0,0-12.96-1.424ZM-.688-1.472A.9.9,0,0,1-.4-.816a.885.885,0,0,1-.272.632.864.864,0,0,1-.64.28A.878.878,0,0,1-2-.24l-2.256-2.5L-6.512-.24A.928.928,0,0,1-7.2.08a.858.858,0,0,1-.624-.272A.858.858,0,0,1-8.1-.816a.9.9,0,0,1,.288-.656l2.336-2.544-2.208-2.4a.9.9,0,0,1-.288-.656A.85.85,0,0,1-7.7-7.7a.871.871,0,0,1,.624-.264.928.928,0,0,1,.688.32l2.128,2.336,2.128-2.336a.928.928,0,0,1,.688-.32A.862.862,0,0,1-.808-7.7a.862.862,0,0,1,.264.632.9.9,0,0,1-.288.656l-2.208,2.4Z" transform="translate(692.378 3213.539)" fill="#38485c"/>
    <g id="Grupo_18252" data-name="Grupo 18252" transform="translate(700 3151.309)">
      <rect id="Rectángulo_3425-2" data-name="Rectángulo 3425" width="24" height="332" transform="translate(332) rotate(90)" fill="#38485c" opacity="0.24"/>
      <path id="Trazado_4669-2" data-name="Trazado 4669" d="M0,332V0" transform="translate(332 23.6) rotate(90)" fill="none" stroke="#38485c" stroke-width="1" stroke-dasharray="5 2"/>
      <path id="Trazado_4670-2" data-name="Trazado 4670" d="M0,332V0" transform="translate(332) rotate(90)" fill="none" stroke="#38485c" stroke-width="1" stroke-dasharray="5 2"/>
    </g>
    <g id="Grupo_19191" data-name="Grupo 19191" transform="translate(1032 3151.309) rotate(90)">
      <rect id="Rectángulo_3425-3" data-name="Rectángulo 3425" width="15.817" height="69.816" transform="translate(69.816 0.183) rotate(90)" fill="#007bc7" opacity="0.24"/>
      <path id="Trazado_4669-3" data-name="Trazado 4669" d="M0,70V0" transform="translate(70 15.925) rotate(90)" fill="none" stroke="#007bc7" stroke-width="1" stroke-dasharray="5 2"/>
      <path id="Trazado_4670-3" data-name="Trazado 4670" d="M0,70V0" transform="translate(70) rotate(90)" fill="none" stroke="#007bc7" stroke-width="1" stroke-dasharray="5 2"/>
    </g>
    <g id="Grupo_21039" data-name="Grupo 21039" transform="translate(992 3151.309) rotate(90)">
      <rect id="Rectángulo_3425-4" data-name="Rectángulo 3425" width="11.863" height="69.816" transform="translate(69.816 0.137) rotate(90)" fill="#007bc7" opacity="0.24"/>
      <path id="Trazado_4669-4" data-name="Trazado 4669" d="M0,70V0" transform="translate(70 11.944) rotate(90)" fill="none" stroke="#007bc7" stroke-width="1" stroke-dasharray="5 2"/>
      <path id="Trazado_4670-4" data-name="Trazado 4670" d="M0,70V0" transform="translate(70) rotate(90)" fill="none" stroke="#007bc7" stroke-width="1" stroke-dasharray="5 2"/>
    </g>
    <g id="Grupo_19194" data-name="Grupo 19194" transform="translate(700 3197.309)">
      <rect id="Rectángulo_3425-5" data-name="Rectángulo 3425" width="24" height="332" transform="translate(332) rotate(90)" fill="#38485c" opacity="0.24"/>
      <path id="Trazado_4669-5" data-name="Trazado 4669" d="M0,332V0" transform="translate(332 23.6) rotate(90)" fill="none" stroke="#38485c" stroke-width="1" stroke-dasharray="5 2"/>
      <path id="Trazado_4670-5" data-name="Trazado 4670" d="M0,332V0" transform="translate(332) rotate(90)" fill="none" stroke="#38485c" stroke-width="1" stroke-dasharray="5 2"/>
    </g>
    <path id="Trazado_27913" data-name="Trazado 27913" d="M8.517-1.768q1.02,0,1.02.867,0,.9-1.02.9H2.771Q1.734,0,1.734-.9q0-.867,1.037-.867H4.539V-9.52l-1.632,1a.879.879,0,0,1-.425.136.749.749,0,0,1-.6-.306,1.058,1.058,0,0,1-.247-.68.853.853,0,0,1,.442-.765l2.635-1.632a1.894,1.894,0,0,1,.969-.306,1.034,1.034,0,0,1,.765.289,1.08,1.08,0,0,1,.289.8v9.214Zm10.132,0q1.02,0,1.02.867,0,.9-1.02.9h-6.46a.925.925,0,0,1-.7-.264.9.9,0,0,1-.255-.655,1.294,1.294,0,0,1,.391-.918L15.5-6a6.71,6.71,0,0,0,1.045-1.437,2.859,2.859,0,0,0,.332-1.3,1.586,1.586,0,0,0-.459-1.224,1.857,1.857,0,0,0-1.309-.425,3.587,3.587,0,0,0-1.351.263,6.76,6.76,0,0,0-1.318.722,2.091,2.091,0,0,1-.34.2.823.823,0,0,1-.34.077.623.623,0,0,1-.5-.272,1.018,1.018,0,0,1-.213-.646.978.978,0,0,1,.094-.442,1.135,1.135,0,0,1,.3-.357,5.891,5.891,0,0,1,1.751-.944,6.078,6.078,0,0,1,2.006-.348,4.188,4.188,0,0,1,2.8.884,2.956,2.956,0,0,1,1.045,2.38A4.395,4.395,0,0,1,18.6-6.928,8.626,8.626,0,0,1,17.1-4.9L14.161-1.768Zm7.616-6.749a3.445,3.445,0,0,1,1.913.544,3.607,3.607,0,0,1,1.309,1.538,5.317,5.317,0,0,1,.468,2.286,5.148,5.148,0,0,1-.468,2.261,3.541,3.541,0,0,1-1.3,1.5,3.516,3.516,0,0,1-1.921.527,3.291,3.291,0,0,1-1.581-.374,2.624,2.624,0,0,1-1.071-1.037V2.193a.882.882,0,0,1-.289.7,1.114,1.114,0,0,1-.765.255,1.1,1.1,0,0,1-.774-.272.922.922,0,0,1-.3-.714V-7.48a.971.971,0,0,1,.281-.731,1.04,1.04,0,0,1,.757-.272,1.071,1.071,0,0,1,.765.272.956.956,0,0,1,.289.731v.425a2.608,2.608,0,0,1,1.079-1.08A3.316,3.316,0,0,1,26.265-8.517Zm-.561,7A1.905,1.905,0,0,0,27.268-2.2a3.006,3.006,0,0,0,.561-1.947,3.176,3.176,0,0,0-.561-2.006A1.877,1.877,0,0,0,25.7-6.868a1.89,1.89,0,0,0-1.573.7,3.136,3.136,0,0,0-.552,1.989,3.106,3.106,0,0,0,.552,1.972A1.89,1.89,0,0,0,25.7-1.513Zm13.022-.051a.96.96,0,0,1,.306.7.94.94,0,0,1-.289.672.918.918,0,0,1-.68.3.933.933,0,0,1-.731-.357l-2.4-2.652-2.4,2.652a.986.986,0,0,1-.731.34A.912.912,0,0,1,31.144-.2a.912.912,0,0,1-.289-.663.96.96,0,0,1,.306-.7l2.482-2.7L31.3-6.817a.96.96,0,0,1-.306-.7.9.9,0,0,1,.289-.671.925.925,0,0,1,.663-.281.986.986,0,0,1,.731.34l2.261,2.482L37.2-8.126a.986.986,0,0,1,.731-.34.916.916,0,0,1,.672.281.916.916,0,0,1,.28.671.96.96,0,0,1-.306.7l-2.346,2.55Z" transform="translate(959.668 3240.547)" fill="#38485c"/>
  </g>
</svg>
