<svg xmlns="http://www.w3.org/2000/svg" width="710" height="280" viewBox="0 0 710 280">
  <g id="Grupo_21070" data-name="Grupo 21070" transform="translate(-513 -1450)">
    <rect id="Rectángulo_17611" data-name="Rectángulo 17611" width="710" height="280" rx="8" transform="translate(513 1450)" fill="#f3f6f9"/>
    <g id="Grupo_20973" data-name="Grupo 20973" transform="translate(415 575)">
      <rect id="Rectángulo_5014" data-name="Rectángulo 5014" width="526" height="192" rx="8" transform="translate(198 919)" fill="#fff"/>
      <path id="_Text_Body_1_Selected_On_Surface_Medium_Emphasis_Left_" data-name="✱ / Text / Body 1 / Selected / On Surface / Medium Emphasis / Left " d="M17.136,17.528a1.184,1.184,0,0,1,.854.308,1.107,1.107,0,0,1,.322.84v6.552a2.666,2.666,0,0,1-.266,1.372,1.866,1.866,0,0,1-1.05.672,12.745,12.745,0,0,1-2.66.7,18.874,18.874,0,0,1-3.052.252,10.57,10.57,0,0,1-5.18-1.2,7.986,7.986,0,0,1-3.332-3.472,11.9,11.9,0,0,1-1.148-5.432A11.77,11.77,0,0,1,2.772,12.74a8.138,8.138,0,0,1,3.29-3.486,10,10,0,0,1,5.026-1.218,11.063,11.063,0,0,1,3.626.574,7.893,7.893,0,0,1,2.842,1.666,1.379,1.379,0,0,1,.56,1.12,1.324,1.324,0,0,1-.28.854.837.837,0,0,1-.672.35,1.128,1.128,0,0,1-.448-.084,3.759,3.759,0,0,1-.5-.28,10.249,10.249,0,0,0-2.492-1.414,7.537,7.537,0,0,0-2.576-.406A6.043,6.043,0,0,0,6.272,12.39a8.607,8.607,0,0,0-1.68,5.726,8.6,8.6,0,0,0,1.722,5.81A6.346,6.346,0,0,0,11.368,25.9a13.889,13.889,0,0,0,4.312-.672V19.712H12.012a1.259,1.259,0,0,1-.882-.294,1.15,1.15,0,0,1,0-1.6,1.259,1.259,0,0,1,.882-.294Zm15.848,7.028a.8.8,0,0,1,.644.308,1.2,1.2,0,0,1,.252.784,1.61,1.61,0,0,1-1.008,1.372,8.882,8.882,0,0,1-2.142.868A8.685,8.685,0,0,1,28.5,28.2a6.9,6.9,0,0,1-5.124-1.89A7.01,7.01,0,0,1,21.5,21.14a8.1,8.1,0,0,1,.826-3.724,6.072,6.072,0,0,1,2.324-2.52,6.5,6.5,0,0,1,3.4-.9,5.56,5.56,0,0,1,4.34,1.764,6.827,6.827,0,0,1,1.6,4.76q0,1.12-1.008,1.12H24.332q.28,4.34,4.172,4.34A5.161,5.161,0,0,0,30.3,25.7a13.032,13.032,0,0,0,1.6-.728q.084-.056.462-.238A1.529,1.529,0,0,1,32.984,24.556Zm-4.872-8.484a3.416,3.416,0,0,0-2.6,1.036,4.838,4.838,0,0,0-1.176,2.912h7.224a4.68,4.68,0,0,0-.966-2.926A3.1,3.1,0,0,0,28.112,16.072ZM44.408,14q4.9,0,4.9,5.516V26.8a1.287,1.287,0,0,1-.378.994,1.487,1.487,0,0,1-1.05.35,1.411,1.411,0,0,1-1.022-.364,1.3,1.3,0,0,1-.378-.98v-7.14a3.9,3.9,0,0,0-.686-2.548,2.65,2.65,0,0,0-2.142-.812,3.656,3.656,0,0,0-2.744,1.064,3.919,3.919,0,0,0-1.036,2.856V26.8a1.3,1.3,0,0,1-.378.98,1.411,1.411,0,0,1-1.022.364,1.462,1.462,0,0,1-1.036-.364,1.273,1.273,0,0,1-.392-.98V15.4a1.261,1.261,0,0,1,.406-.966,1.441,1.441,0,0,1,1.022-.378,1.324,1.324,0,0,1,.98.364,1.287,1.287,0,0,1,.364.952V16.52a4.543,4.543,0,0,1,1.876-1.876A5.667,5.667,0,0,1,44.408,14Zm19.4,10.556a.8.8,0,0,1,.644.308,1.2,1.2,0,0,1,.252.784A1.61,1.61,0,0,1,63.7,27.02a8.882,8.882,0,0,1-2.142.868,8.685,8.685,0,0,1-2.226.308,6.9,6.9,0,0,1-5.124-1.89,7.01,7.01,0,0,1-1.876-5.166,8.1,8.1,0,0,1,.826-3.724,6.072,6.072,0,0,1,2.324-2.52,6.5,6.5,0,0,1,3.4-.9,5.56,5.56,0,0,1,4.34,1.764,6.827,6.827,0,0,1,1.6,4.76q0,1.12-1.008,1.12H55.16q.28,4.34,4.172,4.34a5.161,5.161,0,0,0,1.792-.28,13.033,13.033,0,0,0,1.6-.728q.084-.056.462-.238A1.529,1.529,0,0,1,63.812,24.556ZM58.94,16.072a3.416,3.416,0,0,0-2.6,1.036A4.838,4.838,0,0,0,55.16,20.02h7.224a4.68,4.68,0,0,0-.966-2.926A3.1,3.1,0,0,0,58.94,16.072Zm16.1-2.016q1.344-.084,1.344,1.148a1.255,1.255,0,0,1-.308.924,1.661,1.661,0,0,1-1.064.364l-.84.084a3.625,3.625,0,0,0-2.618,1.232,3.986,3.986,0,0,0-.854,2.576V26.8a1.255,1.255,0,0,1-.392,1.008,1.494,1.494,0,0,1-1.008.336,1.549,1.549,0,0,1-1.022-.336,1.233,1.233,0,0,1-.406-1.008V15.4a1.241,1.241,0,0,1,.406-.994,1.51,1.51,0,0,1,1.022-.35,1.328,1.328,0,0,1,.938.35,1.251,1.251,0,0,1,.378.966v1.344A4.113,4.113,0,0,1,72.24,14.84a5.457,5.457,0,0,1,2.408-.756ZM83.72,14a5.4,5.4,0,0,1,4.046,1.372,5.787,5.787,0,0,1,1.33,4.172V26.8a1.314,1.314,0,0,1-.364.994,1.394,1.394,0,0,1-1.008.35A1.255,1.255,0,0,1,86.38,26.8V25.76A3.939,3.939,0,0,1,84.8,27.566a4.67,4.67,0,0,1-2.45.63,5.547,5.547,0,0,1-2.464-.546,4.232,4.232,0,0,1-1.75-1.526,3.954,3.954,0,0,1-.63-2.184,3.363,3.363,0,0,1,.77-2.338,4.592,4.592,0,0,1,2.548-1.218,25.594,25.594,0,0,1,4.886-.364h.644v-.812a3.292,3.292,0,0,0-.644-2.268,2.7,2.7,0,0,0-2.072-.7,6.6,6.6,0,0,0-1.848.252,13.894,13.894,0,0,0-1.9.728,2.745,2.745,0,0,1-1.064.42.865.865,0,0,1-.686-.308,1.157,1.157,0,0,1-.266-.784,1.215,1.215,0,0,1,.238-.742,2.507,2.507,0,0,1,.77-.63,9.573,9.573,0,0,1,2.3-.854A10.708,10.708,0,0,1,83.72,14Zm-.868,12.1a3.293,3.293,0,0,0,2.52-1.05,3.8,3.8,0,0,0,.98-2.7v-.728h-.5a21.814,21.814,0,0,0-3.36.2,3.3,3.3,0,0,0-1.68.658,1.714,1.714,0,0,0-.5,1.33,2.106,2.106,0,0,0,.728,1.652A2.646,2.646,0,0,0,82.852,26.1Zm15.9,2.1a6.828,6.828,0,0,1-3.486-.868,5.927,5.927,0,0,1-2.324-2.464,7.93,7.93,0,0,1-.826-3.7,7.944,7.944,0,0,1,.854-3.752,6.173,6.173,0,0,1,2.394-2.52A6.886,6.886,0,0,1,98.9,14a7.768,7.768,0,0,1,2.142.308,7.322,7.322,0,0,1,1.918.84,1.742,1.742,0,0,1,.9,1.428,1.255,1.255,0,0,1-.252.8.783.783,0,0,1-.644.322,1.118,1.118,0,0,1-.5-.126,7.267,7.267,0,0,1-.644-.378,7.716,7.716,0,0,0-1.3-.686,3.921,3.921,0,0,0-1.442-.238,3.6,3.6,0,0,0-2.954,1.288,5.522,5.522,0,0,0-1.05,3.584A5.4,5.4,0,0,0,96.1,24.682a3.609,3.609,0,0,0,2.94,1.246,4.053,4.053,0,0,0,1.484-.252A7.983,7.983,0,0,0,101.836,25a5.011,5.011,0,0,1,.616-.336,1.37,1.37,0,0,1,.56-.14.783.783,0,0,1,.644.322,1.255,1.255,0,0,1,.252.8,1.28,1.28,0,0,1-.21.714,2.485,2.485,0,0,1-.714.658,6.717,6.717,0,0,1-1.96.868A8.516,8.516,0,0,1,98.756,28.2Zm9.044-.056a1.549,1.549,0,0,1-1.022-.336,1.233,1.233,0,0,1-.406-1.008V15.428a1.276,1.276,0,0,1,.406-1.022,1.51,1.51,0,0,1,1.022-.35,1.457,1.457,0,0,1,1.008.35,1.3,1.3,0,0,1,.392,1.022V26.8a1.255,1.255,0,0,1-.392,1.008A1.494,1.494,0,0,1,107.8,28.14Zm0-16.828a1.8,1.8,0,0,1-1.288-.448,1.54,1.54,0,0,1-.476-1.176,1.5,1.5,0,0,1,.476-1.162,2.107,2.107,0,0,1,2.562,0,1.475,1.475,0,0,1,.49,1.162,1.54,1.54,0,0,1-.476,1.176A1.8,1.8,0,0,1,107.8,11.312ZM119.028,28.2a7.04,7.04,0,0,1-3.542-.868,5.857,5.857,0,0,1-2.352-2.478,8.08,8.08,0,0,1-.826-3.738,8.144,8.144,0,0,1,.826-3.766,5.857,5.857,0,0,1,2.352-2.478,7.661,7.661,0,0,1,7.084,0,5.857,5.857,0,0,1,2.352,2.478,8.144,8.144,0,0,1,.826,3.766,8.08,8.08,0,0,1-.826,3.738,5.857,5.857,0,0,1-2.352,2.478A7.04,7.04,0,0,1,119.028,28.2Zm0-2.24a3.473,3.473,0,0,0,2.87-1.232,5.648,5.648,0,0,0,.994-3.612,5.6,5.6,0,0,0-1.008-3.6,3.9,3.9,0,0,0-5.712,0,5.6,5.6,0,0,0-1.008,3.6,5.648,5.648,0,0,0,.994,3.612A3.473,3.473,0,0,0,119.028,25.956Zm.588-13.468a.8.8,0,0,1-1.078-.028.706.706,0,0,1-.238-.532.746.746,0,0,1,.2-.5l3.024-3.948a1.6,1.6,0,0,1,1.288-.756,1.218,1.218,0,0,1,.9.364,1.185,1.185,0,0,1,.364.868,1.581,1.581,0,0,1-.672,1.2ZM136.192,14q4.9,0,4.9,5.516V26.8a1.287,1.287,0,0,1-.378.994,1.487,1.487,0,0,1-1.05.35,1.411,1.411,0,0,1-1.022-.364,1.3,1.3,0,0,1-.378-.98v-7.14a3.9,3.9,0,0,0-.686-2.548,2.65,2.65,0,0,0-2.142-.812,3.656,3.656,0,0,0-2.744,1.064,3.919,3.919,0,0,0-1.036,2.856V26.8a1.3,1.3,0,0,1-.378.98,1.411,1.411,0,0,1-1.022.364,1.462,1.462,0,0,1-1.036-.364,1.273,1.273,0,0,1-.392-.98V15.4a1.261,1.261,0,0,1,.406-.966,1.441,1.441,0,0,1,1.022-.378,1.324,1.324,0,0,1,.98.364,1.287,1.287,0,0,1,.364.952V16.52a4.543,4.543,0,0,1,1.876-1.876A5.667,5.667,0,0,1,136.192,14Zm27.216-5.88a1.462,1.462,0,0,1,1.036.364,1.273,1.273,0,0,1,.392.98v17.3a1.334,1.334,0,0,1-.378,1.008,1.617,1.617,0,0,1-2.044,0,1.334,1.334,0,0,1-.378-1.008v-1.12a4.333,4.333,0,0,1-1.792,1.89,5.469,5.469,0,0,1-2.716.658,5.675,5.675,0,0,1-3.15-.9,5.957,5.957,0,0,1-2.156-2.52,8.6,8.6,0,0,1-.77-3.724,8.479,8.479,0,0,1,.77-3.724A5.652,5.652,0,0,1,157.528,14a5.39,5.39,0,0,1,2.7.658,4.39,4.39,0,0,1,1.778,1.862V9.408a1.217,1.217,0,0,1,.378-.938A1.445,1.445,0,0,1,163.408,8.12ZM158.2,25.956a3.416,3.416,0,0,0,2.828-1.26,5.612,5.612,0,0,0,1.008-3.584,5.668,5.668,0,0,0-.994-3.584,3.408,3.408,0,0,0-2.842-1.26,3.5,3.5,0,0,0-2.87,1.246,5.448,5.448,0,0,0-1.022,3.542,5.634,5.634,0,0,0,1.036,3.6A3.449,3.449,0,0,0,158.2,25.956Zm21.224-1.4a.8.8,0,0,1,.644.308,1.2,1.2,0,0,1,.252.784,1.61,1.61,0,0,1-1.008,1.372,8.882,8.882,0,0,1-2.142.868,8.685,8.685,0,0,1-2.226.308,6.9,6.9,0,0,1-5.124-1.89,7.01,7.01,0,0,1-1.876-5.166,8.1,8.1,0,0,1,.826-3.724,6.073,6.073,0,0,1,2.324-2.52,6.5,6.5,0,0,1,3.4-.9,5.56,5.56,0,0,1,4.34,1.764,6.827,6.827,0,0,1,1.6,4.76q0,1.12-1.008,1.12h-8.652q.28,4.34,4.172,4.34a5.161,5.161,0,0,0,1.792-.28,13.032,13.032,0,0,0,1.6-.728q.084-.056.462-.238A1.529,1.529,0,0,1,179.424,24.556Zm-4.872-8.484a3.416,3.416,0,0,0-2.6,1.036,4.838,4.838,0,0,0-1.176,2.912H178a4.68,4.68,0,0,0-.966-2.926A3.1,3.1,0,0,0,174.552,16.072ZM198.156,14a5.652,5.652,0,0,1,5.306,3.332,8.479,8.479,0,0,1,.77,3.724,8.6,8.6,0,0,1-.77,3.724,5.957,5.957,0,0,1-2.156,2.52,5.675,5.675,0,0,1-3.15.9,5.468,5.468,0,0,1-2.716-.658,4.333,4.333,0,0,1-1.792-1.89v1.12a1.344,1.344,0,0,1-.378.994,1.381,1.381,0,0,1-1.022.378,1.43,1.43,0,0,1-1.036-.378,1.318,1.318,0,0,1-.392-.994V9.464a1.251,1.251,0,0,1,.406-.98,1.513,1.513,0,0,1,1.05-.364,1.4,1.4,0,0,1,.994.35,1.217,1.217,0,0,1,.378.938v7.168a4.417,4.417,0,0,1,1.792-1.9A5.378,5.378,0,0,1,198.156,14Zm-.672,11.956a3.425,3.425,0,0,0,2.842-1.288,5.678,5.678,0,0,0,1.022-3.612,5.5,5.5,0,0,0-1.008-3.542,3.464,3.464,0,0,0-2.856-1.246,3.408,3.408,0,0,0-2.842,1.26,5.668,5.668,0,0,0-.994,3.584,5.668,5.668,0,0,0,.994,3.584A3.408,3.408,0,0,0,197.484,25.956Zm15.764,2.24a7.04,7.04,0,0,1-3.542-.868,5.857,5.857,0,0,1-2.352-2.478,8.08,8.08,0,0,1-.826-3.738,8.144,8.144,0,0,1,.826-3.766,5.857,5.857,0,0,1,2.352-2.478,7.661,7.661,0,0,1,7.084,0,5.857,5.857,0,0,1,2.352,2.478,8.144,8.144,0,0,1,.826,3.766,8.08,8.08,0,0,1-.826,3.738,5.857,5.857,0,0,1-2.352,2.478A7.04,7.04,0,0,1,213.248,28.2Zm0-2.24a3.473,3.473,0,0,0,2.87-1.232,5.648,5.648,0,0,0,.994-3.612,5.6,5.6,0,0,0-1.008-3.6,3.9,3.9,0,0,0-5.712,0,5.6,5.6,0,0,0-1.008,3.6,5.648,5.648,0,0,0,.994,3.612A3.473,3.473,0,0,0,213.248,25.956Zm11.228,2.184a1.549,1.549,0,0,1-1.022-.336,1.233,1.233,0,0,1-.406-1.008V9.492a1.276,1.276,0,0,1,.406-1.022,1.51,1.51,0,0,1,1.022-.35,1.457,1.457,0,0,1,1.008.35,1.3,1.3,0,0,1,.392,1.022V26.8a1.255,1.255,0,0,1-.392,1.008A1.494,1.494,0,0,1,224.476,28.14Zm15.988-3.584a.8.8,0,0,1,.644.308,1.2,1.2,0,0,1,.252.784,1.61,1.61,0,0,1-1.008,1.372,8.882,8.882,0,0,1-2.142.868,8.685,8.685,0,0,1-2.226.308,6.9,6.9,0,0,1-5.124-1.89,7.01,7.01,0,0,1-1.876-5.166,8.1,8.1,0,0,1,.826-3.724,6.073,6.073,0,0,1,2.324-2.52,6.5,6.5,0,0,1,3.4-.9,5.56,5.56,0,0,1,4.34,1.764,6.827,6.827,0,0,1,1.6,4.76q0,1.12-1.008,1.12h-8.652q.28,4.34,4.172,4.34a5.161,5.161,0,0,0,1.792-.28,13.032,13.032,0,0,0,1.6-.728q.084-.056.462-.238A1.529,1.529,0,0,1,240.464,24.556Zm-4.872-8.484a3.416,3.416,0,0,0-2.6,1.036,4.838,4.838,0,0,0-1.176,2.912h7.224a4.68,4.68,0,0,0-.966-2.926A3.1,3.1,0,0,0,235.592,16.072Zm15.484,9.912a1.4,1.4,0,0,1,.882.322,1,1,0,0,1,.266.742.967.967,0,0,1-.434.854,2.027,2.027,0,0,1-1.274.238l-.756-.056a4.9,4.9,0,0,1-3.388-1.386,5.146,5.146,0,0,1-1.12-3.6V16.52h-1.68q-1.232,0-1.232-1.092a1.027,1.027,0,0,1,.322-.8,1.3,1.3,0,0,1,.91-.294h1.68V11.452a1.334,1.334,0,0,1,.378-1.008,1.411,1.411,0,0,1,1.022-.364,1.462,1.462,0,0,1,1.036.364,1.308,1.308,0,0,1,.392,1.008v2.884h2.772a1.3,1.3,0,0,1,.91.294,1.167,1.167,0,0,1,0,1.61,1.344,1.344,0,0,1-.91.28H248.08V23.3a2.86,2.86,0,0,0,.546,1.932,2.363,2.363,0,0,0,1.666.7ZM259.952,14A5.4,5.4,0,0,1,264,15.372a5.787,5.787,0,0,1,1.33,4.172V26.8a1.314,1.314,0,0,1-.364.994,1.394,1.394,0,0,1-1.008.35,1.255,1.255,0,0,1-1.344-1.344V25.76a3.939,3.939,0,0,1-1.582,1.806,4.67,4.67,0,0,1-2.45.63,5.547,5.547,0,0,1-2.464-.546,4.232,4.232,0,0,1-1.75-1.526,3.954,3.954,0,0,1-.63-2.184,3.363,3.363,0,0,1,.77-2.338,4.592,4.592,0,0,1,2.548-1.218,25.594,25.594,0,0,1,4.886-.364h.644v-.812a3.292,3.292,0,0,0-.644-2.268,2.7,2.7,0,0,0-2.072-.7,6.6,6.6,0,0,0-1.848.252,13.9,13.9,0,0,0-1.9.728,2.744,2.744,0,0,1-1.064.42.865.865,0,0,1-.686-.308,1.157,1.157,0,0,1-.266-.784,1.215,1.215,0,0,1,.238-.742,2.507,2.507,0,0,1,.77-.63,9.573,9.573,0,0,1,2.3-.854A10.708,10.708,0,0,1,259.952,14Zm-.868,12.1a3.293,3.293,0,0,0,2.52-1.05,3.8,3.8,0,0,0,.98-2.7v-.728h-.5a21.814,21.814,0,0,0-3.36.2,3.3,3.3,0,0,0-1.68.658,1.714,1.714,0,0,0-.5,1.33,2.106,2.106,0,0,0,.728,1.652A2.646,2.646,0,0,0,259.084,26.1ZM273.9,28.2a8.473,8.473,0,0,1-4.676-1.176,2.129,2.129,0,0,1-.714-.644,1.4,1.4,0,0,1-.21-.756,1.155,1.155,0,0,1,.252-.756.8.8,0,0,1,.644-.308A2.761,2.761,0,0,1,270.34,25a11.779,11.779,0,0,0,1.638.728,6.119,6.119,0,0,0,2,.28,3.931,3.931,0,0,0,2.1-.476,1.5,1.5,0,0,0,.756-1.344,1.312,1.312,0,0,0-.294-.9,2.493,2.493,0,0,0-1.022-.6,17.436,17.436,0,0,0-2.156-.574,8.307,8.307,0,0,1-3.542-1.442,3.072,3.072,0,0,1-1.078-2.478,3.609,3.609,0,0,1,.7-2.17,4.546,4.546,0,0,1,1.932-1.5,7,7,0,0,1,2.8-.532,8.162,8.162,0,0,1,2.184.294,6.169,6.169,0,0,1,1.876.854,1.736,1.736,0,0,1,.924,1.428,1.116,1.116,0,0,1-.266.756.808.808,0,0,1-.63.308,1.232,1.232,0,0,1-.5-.112,6.65,6.65,0,0,1-.672-.364,9.4,9.4,0,0,0-1.414-.7,4.613,4.613,0,0,0-1.638-.252,3.213,3.213,0,0,0-1.89.5,1.593,1.593,0,0,0-.714,1.372,1.379,1.379,0,0,0,.658,1.218,8.067,8.067,0,0,0,2.478.826,13.579,13.579,0,0,1,2.94.9,3.484,3.484,0,0,1,1.526,1.246,3.522,3.522,0,0,1,.462,1.89,3.445,3.445,0,0,1-1.526,2.926A6.8,6.8,0,0,1,273.9,28.2Z" transform="translate(282 943)" fill="#38485c"/>
      <g id="Grupo_19167" data-name="Grupo 19167" transform="translate(-406 75)">
        <rect id="Rectángulo_17087" data-name="Rectángulo 17087" width="48" height="48" rx="24" transform="translate(628 872)" fill="#4265bc"/>
        <path id="Trazado_21261" data-name="Trazado 21261" d="M19.9,8.586a1,1,0,0,0-.2-.293l-6-6a1,1,0,0,0-.293-.2.948.948,0,0,0-.094-.033.991.991,0,0,0-.259-.051C13.04,2.011,13.021,2,13,2H6A2,2,0,0,0,4,4V20a2,2,0,0,0,2,2H18a2,2,0,0,0,2-2V9c0-.021-.011-.04-.013-.062a.952.952,0,0,0-.051-.259A.732.732,0,0,0,19.9,8.586ZM16.586,8H14V5.414ZM6,20V4h6V9a1,1,0,0,0,1,1h5l0,10Z" transform="translate(640 884)" fill="#fff"/>
        <path id="Trazado_21262" data-name="Trazado 21262" d="M8,12h8v2H8Zm0,4h8v2H8ZM8,8h2v2H8Z" transform="translate(640 884)" fill="#fff"/>
      </g>
      <path id="_Text_Body_1_Selected_On_Surface_Medium_Emphasis_Left_2" data-name="✱ / Text / Body 1 / Selected / On Surface / Medium Emphasis / Left " d="M1.276-9.28H3.9a4.946,4.946,0,0,1,2.672.552A1.949,1.949,0,0,1,7.4-6.982a2.017,2.017,0,0,1-.46,1.362,2.215,2.215,0,0,1-1.343.7v.063Q7.706-4.5,7.706-2.641A2.386,2.386,0,0,1,6.865-.7,3.58,3.58,0,0,1,4.513,0H1.276ZM2.355-5.307H4.132a2.893,2.893,0,0,0,1.644-.359,1.385,1.385,0,0,0,.5-1.209A1.224,1.224,0,0,0,5.719-8a3.49,3.49,0,0,0-1.777-.346H2.355Zm0,.914V-.92H4.291a2.758,2.758,0,0,0,1.692-.435,1.605,1.605,0,0,0,.568-1.362,1.442,1.442,0,0,0-.581-1.27A3.1,3.1,0,0,0,4.2-4.393Zm8.176-2.564v4.513a1.816,1.816,0,0,0,.387,1.27,1.577,1.577,0,0,0,1.212.419,1.978,1.978,0,0,0,1.6-.6,3.01,3.01,0,0,0,.5-1.949V-6.957h1.054V0h-.87l-.152-.933h-.057a2.1,2.1,0,0,1-.9.787A3.019,3.019,0,0,1,12,.127a2.659,2.659,0,0,1-1.9-.6,2.567,2.567,0,0,1-.632-1.93V-6.957ZM22.007-1.9a1.743,1.743,0,0,1-.724,1.5,3.4,3.4,0,0,1-2.031.527,4.417,4.417,0,0,1-2.158-.438v-.978a5.219,5.219,0,0,0,1.076.4,4.493,4.493,0,0,0,1.108.146,2.512,2.512,0,0,0,1.27-.263.871.871,0,0,0,.444-.8.872.872,0,0,0-.352-.7,5.542,5.542,0,0,0-1.374-.682,7.452,7.452,0,0,1-1.381-.632,1.886,1.886,0,0,1-.609-.613,1.6,1.6,0,0,1-.2-.819,1.561,1.561,0,0,1,.692-1.343,3.224,3.224,0,0,1,1.9-.492,5.553,5.553,0,0,1,2.2.457l-.375.857a5.041,5.041,0,0,0-1.9-.432,2.184,2.184,0,0,0-1.13.235.726.726,0,0,0-.381.647.789.789,0,0,0,.143.476,1.409,1.409,0,0,0,.46.375,10.284,10.284,0,0,0,1.219.514,4.553,4.553,0,0,1,1.673.908A1.6,1.6,0,0,1,22.007-1.9ZM26.5.127A2.969,2.969,0,0,1,24.162-.8a3.824,3.824,0,0,1-.828-2.631,3.943,3.943,0,0,1,.841-2.7,3.028,3.028,0,0,1,2.4-.952,4.755,4.755,0,0,1,1,.108,3.3,3.3,0,0,1,.787.254l-.324.9a4.955,4.955,0,0,0-.762-.232,3.4,3.4,0,0,0-.73-.092q-2.12,0-2.12,2.7a3.22,3.22,0,0,0,.517,1.968,1.8,1.8,0,0,0,1.533.686,4.687,4.687,0,0,0,1.784-.375v.933A3.8,3.8,0,0,1,26.5.127ZM34.188,0l-.209-.99h-.051A2.927,2.927,0,0,1,32.89-.1,3.163,3.163,0,0,1,31.6.127a2.324,2.324,0,0,1-1.622-.533,1.945,1.945,0,0,1-.587-1.517q0-2.107,3.371-2.209l1.181-.038V-4.6a1.764,1.764,0,0,0-.352-1.209,1.449,1.449,0,0,0-1.127-.39,4.591,4.591,0,0,0-1.968.533l-.324-.806A4.951,4.951,0,0,1,31.3-6.913a4.88,4.88,0,0,1,1.228-.159,2.65,2.65,0,0,1,1.844.552,2.305,2.305,0,0,1,.6,1.771V0Zm-2.38-.743a2.139,2.139,0,0,0,1.546-.54,2,2,0,0,0,.562-1.511v-.628l-1.054.044a3.833,3.833,0,0,0-1.812.39,1.177,1.177,0,0,0-.555,1.076,1.086,1.086,0,0,0,.346.87A1.436,1.436,0,0,0,31.808-.743Zm-.248-7.293q.3-.394.657-.952a10.9,10.9,0,0,0,.555-.971h1.282v.133a9.384,9.384,0,0,1-.832,1.016,9.441,9.441,0,0,1-.958.933h-.7ZM43.456.127a3.2,3.2,0,0,1-2.434-.939,3.637,3.637,0,0,1-.892-2.609,4.033,4.033,0,0,1,.828-2.672,2.752,2.752,0,0,1,2.225-.99,2.624,2.624,0,0,1,2.069.86,3.3,3.3,0,0,1,.762,2.269v.667H41.222a2.758,2.758,0,0,0,.619,1.86,2.141,2.141,0,0,0,1.654.635,5.6,5.6,0,0,0,2.222-.47v.939a5.576,5.576,0,0,1-1.057.346A5.939,5.939,0,0,1,43.456.127ZM43.17-6.2a1.721,1.721,0,0,0-1.336.546,2.516,2.516,0,0,0-.587,1.511h3.637a2.317,2.317,0,0,0-.444-1.527A1.564,1.564,0,0,0,43.17-6.2ZM48.864,0H47.811V-9.877h1.054Zm7.858-.743a3.442,3.442,0,0,0,.54-.041,3.492,3.492,0,0,0,.413-.086v.806a1.926,1.926,0,0,1-.5.136,3.79,3.79,0,0,1-.6.054Q54.552.127,54.552-2V-6.138h-1v-.508l1-.438L55-8.569h.609v1.612h2.019v.819H55.605v4.094a1.408,1.408,0,0,0,.3.965A1.038,1.038,0,0,0,56.723-.743Zm5.516-6.341a4.123,4.123,0,0,1,.832.076l-.146.978a3.589,3.589,0,0,0-.762-.1,1.854,1.854,0,0,0-1.444.686,2.5,2.5,0,0,0-.6,1.708V0H59.065V-6.957h.87l.121,1.289h.051a3.058,3.058,0,0,1,.933-1.047A2.1,2.1,0,0,1,62.239-7.084ZM68.65,0,68.44-.99H68.39A2.928,2.928,0,0,1,67.352-.1,3.163,3.163,0,0,1,66.06.127a2.324,2.324,0,0,1-1.622-.533,1.945,1.945,0,0,1-.587-1.517q0-2.107,3.371-2.209L68.4-4.17V-4.6a1.764,1.764,0,0,0-.352-1.209,1.449,1.449,0,0,0-1.127-.39,4.591,4.591,0,0,0-1.968.533l-.324-.806a4.952,4.952,0,0,1,1.127-.438,4.88,4.88,0,0,1,1.228-.159,2.65,2.65,0,0,1,1.844.552,2.305,2.305,0,0,1,.6,1.771V0ZM66.27-.743a2.139,2.139,0,0,0,1.546-.54,2,2,0,0,0,.562-1.511v-.628l-1.054.044a3.833,3.833,0,0,0-1.812.39,1.177,1.177,0,0,0-.555,1.076,1.086,1.086,0,0,0,.346.87A1.436,1.436,0,0,0,66.27-.743Zm-.248-7.293q.3-.394.657-.952a10.9,10.9,0,0,0,.555-.971h1.282v.133a9.383,9.383,0,0,1-.832,1.016,9.44,9.44,0,0,1-.958.933h-.7ZM80.469,0V-4.526a1.879,1.879,0,0,0-.355-1.247,1.375,1.375,0,0,0-1.1-.416,1.783,1.783,0,0,0-1.454.565,2.685,2.685,0,0,0-.47,1.739V0H76.032V-4.526a1.879,1.879,0,0,0-.355-1.247,1.383,1.383,0,0,0-1.111-.416,1.721,1.721,0,0,0-1.45.594,3.212,3.212,0,0,0-.46,1.946V0H71.6V-6.957h.857L72.63-6h.051a2.071,2.071,0,0,1,.841-.793,2.57,2.57,0,0,1,1.216-.286A2.067,2.067,0,0,1,76.87-5.9h.051a2.218,2.218,0,0,1,.9-.863,2.8,2.8,0,0,1,1.346-.317,2.356,2.356,0,0,1,1.768.606,2.712,2.712,0,0,1,.587,1.939V0Zm4.278,0H83.694V-6.957h1.054ZM83.6-8.842a.7.7,0,0,1,.178-.53.621.621,0,0,1,.444-.168.621.621,0,0,1,.438.171.687.687,0,0,1,.184.527.7.7,0,0,1-.184.53.615.615,0,0,1-.438.175.609.609,0,0,1-.444-.175A.713.713,0,0,1,83.6-8.842Zm5.624,8.1a3.442,3.442,0,0,0,.54-.041,3.493,3.493,0,0,0,.413-.086v.806a1.926,1.926,0,0,1-.5.136,3.79,3.79,0,0,1-.6.054Q87.058.127,87.058-2V-6.138h-1v-.508l1-.438L87.5-8.569h.609v1.612H90.13v.819H88.112v4.094a1.408,1.408,0,0,0,.3.965A1.038,1.038,0,0,0,89.229-.743Zm5.281.87a3.2,3.2,0,0,1-2.434-.939,3.637,3.637,0,0,1-.892-2.609,4.033,4.033,0,0,1,.828-2.672,2.752,2.752,0,0,1,2.225-.99,2.624,2.624,0,0,1,2.069.86,3.3,3.3,0,0,1,.762,2.269v.667H92.276a2.758,2.758,0,0,0,.619,1.86,2.141,2.141,0,0,0,1.654.635,5.6,5.6,0,0,0,2.222-.47v.939a5.576,5.576,0,0,1-1.057.346A5.939,5.939,0,0,1,94.51.127ZM94.225-6.2a1.721,1.721,0,0,0-1.336.546A2.516,2.516,0,0,0,92.3-4.145h3.637a2.317,2.317,0,0,0-.444-1.527A1.564,1.564,0,0,0,94.225-6.2ZM104.87-.755a1.914,1.914,0,0,0,1.536-.565,3.06,3.06,0,0,0,.514-1.9v-.235a3.479,3.479,0,0,0-.5-2.1,1.856,1.856,0,0,0-1.568-.641,1.613,1.613,0,0,0-1.419.72,3.582,3.582,0,0,0-.492,2.034,3.459,3.459,0,0,0,.486,2A1.645,1.645,0,0,0,104.87-.755Zm-.159.882a2.539,2.539,0,0,1-2.1-.946,4.129,4.129,0,0,1-.755-2.641,4.182,4.182,0,0,1,.762-2.666,2.556,2.556,0,0,1,2.12-.958A2.533,2.533,0,0,1,106.933-6h.057l.152-.952h.832V3.123H106.92V.146a7.091,7.091,0,0,1,.07-1.079h-.083A2.489,2.489,0,0,1,104.711.127ZM111.2-6.957v4.513a1.816,1.816,0,0,0,.387,1.27,1.577,1.577,0,0,0,1.212.419,1.978,1.978,0,0,0,1.6-.6,3.01,3.01,0,0,0,.5-1.949V-6.957h1.054V0h-.87l-.152-.933h-.057a2.1,2.1,0,0,1-.9.787,3.019,3.019,0,0,1-1.311.273,2.659,2.659,0,0,1-1.9-.6,2.567,2.567,0,0,1-.632-1.93V-6.957ZM121.126.127a3.2,3.2,0,0,1-2.434-.939,3.637,3.637,0,0,1-.892-2.609,4.033,4.033,0,0,1,.828-2.672,2.752,2.752,0,0,1,2.225-.99,2.624,2.624,0,0,1,2.069.86,3.3,3.3,0,0,1,.762,2.269v.667h-4.792a2.758,2.758,0,0,0,.619,1.86,2.141,2.141,0,0,0,1.654.635,5.6,5.6,0,0,0,2.222-.47v.939a5.576,5.576,0,0,1-1.057.346A5.939,5.939,0,0,1,121.126.127ZM120.84-6.2a1.721,1.721,0,0,0-1.336.546,2.516,2.516,0,0,0-.587,1.511h3.637a2.317,2.317,0,0,0-.444-1.527A1.564,1.564,0,0,0,120.84-6.2ZM133.618,0V-4.5a1.816,1.816,0,0,0-.387-1.27,1.577,1.577,0,0,0-1.212-.419,2,2,0,0,0-1.6.59,2.98,2.98,0,0,0-.508,1.949V0h-1.054V-6.957h.857l.171.952h.051a2.151,2.151,0,0,1,.908-.8,2.949,2.949,0,0,1,1.3-.282,2.643,2.643,0,0,1,1.892.606,2.58,2.58,0,0,1,.635,1.939V0Zm6.157.127a3.2,3.2,0,0,1-2.434-.939,3.637,3.637,0,0,1-.892-2.609,4.033,4.033,0,0,1,.828-2.672,2.752,2.752,0,0,1,2.225-.99,2.624,2.624,0,0,1,2.069.86,3.3,3.3,0,0,1,.762,2.269v.667h-4.792a2.758,2.758,0,0,0,.619,1.86,2.141,2.141,0,0,0,1.654.635,5.6,5.6,0,0,0,2.222-.47v.939a5.576,5.576,0,0,1-1.057.346A5.939,5.939,0,0,1,139.775.127ZM139.49-6.2a1.721,1.721,0,0,0-1.336.546,2.516,2.516,0,0,0-.587,1.511H141.2a2.317,2.317,0,0,0-.444-1.527A1.564,1.564,0,0,0,139.49-6.2ZM146.91.127a2.969,2.969,0,0,1-2.339-.93,3.824,3.824,0,0,1-.828-2.631,3.943,3.943,0,0,1,.841-2.7,3.028,3.028,0,0,1,2.4-.952,4.755,4.755,0,0,1,1,.108,3.3,3.3,0,0,1,.787.254l-.324.9a4.954,4.954,0,0,0-.762-.232,3.4,3.4,0,0,0-.73-.092q-2.12,0-2.12,2.7a3.22,3.22,0,0,0,.517,1.968,1.8,1.8,0,0,0,1.533.686,4.687,4.687,0,0,0,1.784-.375v.933A3.8,3.8,0,0,1,146.91.127Zm6.348,0a3.2,3.2,0,0,1-2.434-.939,3.637,3.637,0,0,1-.892-2.609,4.033,4.033,0,0,1,.828-2.672,2.752,2.752,0,0,1,2.225-.99,2.624,2.624,0,0,1,2.069.86,3.3,3.3,0,0,1,.762,2.269v.667h-4.792a2.758,2.758,0,0,0,.619,1.86,2.141,2.141,0,0,0,1.654.635,5.6,5.6,0,0,0,2.222-.47v.939a5.576,5.576,0,0,1-1.057.346A5.939,5.939,0,0,1,153.258.127ZM152.972-6.2a1.721,1.721,0,0,0-1.336.546,2.516,2.516,0,0,0-.587,1.511h3.637a2.317,2.317,0,0,0-.444-1.527A1.564,1.564,0,0,0,152.972-6.2ZM162.1-1.9a1.743,1.743,0,0,1-.724,1.5,3.4,3.4,0,0,1-2.031.527,4.417,4.417,0,0,1-2.158-.438v-.978a5.219,5.219,0,0,0,1.076.4,4.493,4.493,0,0,0,1.108.146,2.512,2.512,0,0,0,1.27-.263.871.871,0,0,0,.444-.8.872.872,0,0,0-.352-.7,5.541,5.541,0,0,0-1.374-.682,7.452,7.452,0,0,1-1.381-.632,1.886,1.886,0,0,1-.609-.613,1.6,1.6,0,0,1-.2-.819,1.561,1.561,0,0,1,.692-1.343,3.224,3.224,0,0,1,1.9-.492,5.553,5.553,0,0,1,2.2.457l-.375.857a5.041,5.041,0,0,0-1.9-.432,2.184,2.184,0,0,0-1.13.235.726.726,0,0,0-.381.647.789.789,0,0,0,.143.476,1.409,1.409,0,0,0,.46.375,10.285,10.285,0,0,0,1.219.514,4.553,4.553,0,0,1,1.673.908A1.6,1.6,0,0,1,162.1-1.9ZM164.868,0h-1.054V-6.957h1.054Zm-1.143-8.842a.7.7,0,0,1,.178-.53.621.621,0,0,1,.444-.168.621.621,0,0,1,.438.171.687.687,0,0,1,.184.527.7.7,0,0,1-.184.53.615.615,0,0,1-.438.175.609.609,0,0,1-.444-.175A.713.713,0,0,1,163.725-8.842Zm5.624,8.1a3.442,3.442,0,0,0,.54-.041A3.492,3.492,0,0,0,170.3-.87v.806a1.926,1.926,0,0,1-.5.136,3.79,3.79,0,0,1-.6.054q-2.019,0-2.019-2.126V-6.138h-1v-.508l1-.438.444-1.485h.609v1.612h2.019v.819h-2.019v4.094a1.408,1.408,0,0,0,.3.965A1.038,1.038,0,0,0,169.349-.743Zm5.281.87A3.2,3.2,0,0,1,172.2-.812a3.637,3.637,0,0,1-.892-2.609,4.033,4.033,0,0,1,.828-2.672,2.752,2.752,0,0,1,2.225-.99,2.624,2.624,0,0,1,2.069.86,3.3,3.3,0,0,1,.762,2.269v.667H172.4a2.758,2.758,0,0,0,.619,1.86,2.141,2.141,0,0,0,1.654.635,5.6,5.6,0,0,0,2.222-.47v.939a5.576,5.576,0,0,1-1.057.346A5.939,5.939,0,0,1,174.63.127ZM174.345-6.2a1.721,1.721,0,0,0-1.336.546,2.516,2.516,0,0,0-.587,1.511h3.637a2.317,2.317,0,0,0-.444-1.527A1.564,1.564,0,0,0,174.345-6.2Zm9.128,4.3a1.743,1.743,0,0,1-.724,1.5,3.4,3.4,0,0,1-2.031.527,4.417,4.417,0,0,1-2.158-.438v-.978a5.219,5.219,0,0,0,1.076.4,4.493,4.493,0,0,0,1.108.146,2.512,2.512,0,0,0,1.27-.263.871.871,0,0,0,.444-.8.872.872,0,0,0-.352-.7,5.541,5.541,0,0,0-1.374-.682,7.452,7.452,0,0,1-1.381-.632,1.886,1.886,0,0,1-.609-.613,1.6,1.6,0,0,1-.2-.819,1.561,1.561,0,0,1,.692-1.343,3.224,3.224,0,0,1,1.9-.492,5.553,5.553,0,0,1,2.2.457l-.375.857a5.041,5.041,0,0,0-1.9-.432,2.184,2.184,0,0,0-1.13.235.726.726,0,0,0-.381.647.789.789,0,0,0,.143.476,1.409,1.409,0,0,0,.46.375,10.285,10.285,0,0,0,1.219.514,4.553,4.553,0,0,1,1.673.908A1.6,1.6,0,0,1,183.473-1.9ZM191.8.127a3.011,3.011,0,0,1-1.241-.251,2.334,2.334,0,0,1-.943-.771h-.076A9.332,9.332,0,0,1,189.617.26V3.123h-1.054V-6.957h.857l.146.952h.051a2.447,2.447,0,0,1,.946-.825,2.875,2.875,0,0,1,1.238-.254,2.571,2.571,0,0,1,2.136.946,4.164,4.164,0,0,1,.752,2.653,4.14,4.14,0,0,1-.765,2.663A2.576,2.576,0,0,1,191.8.127Zm-.152-6.316a1.867,1.867,0,0,0-1.542.59,3.038,3.038,0,0,0-.489,1.879v.235a3.482,3.482,0,0,0,.489,2.1,1.859,1.859,0,0,0,1.568.632,1.63,1.63,0,0,0,1.412-.73A3.461,3.461,0,0,0,193.6-3.5a3.332,3.332,0,0,0-.511-2A1.681,1.681,0,0,0,191.648-6.189ZM200.808,0,200.6-.99h-.051A2.927,2.927,0,0,1,199.51-.1a3.163,3.163,0,0,1-1.292.232A2.324,2.324,0,0,1,196.6-.406a1.945,1.945,0,0,1-.587-1.517q0-2.107,3.371-2.209l1.181-.038V-4.6a1.764,1.764,0,0,0-.352-1.209,1.449,1.449,0,0,0-1.127-.39,4.591,4.591,0,0,0-1.968.533l-.324-.806a4.951,4.951,0,0,1,1.127-.438,4.88,4.88,0,0,1,1.228-.159,2.65,2.65,0,0,1,1.844.552,2.305,2.305,0,0,1,.6,1.771V0Zm-2.38-.743a2.139,2.139,0,0,0,1.546-.54,2,2,0,0,0,.562-1.511v-.628l-1.054.044a3.833,3.833,0,0,0-1.812.39,1.177,1.177,0,0,0-.555,1.076,1.086,1.086,0,0,0,.346.87A1.436,1.436,0,0,0,198.428-.743Zm11.026-6.214v.667l-1.289.152a2.215,2.215,0,0,1,.317.581,2.216,2.216,0,0,1,.14.809,2.057,2.057,0,0,1-.7,1.631,2.817,2.817,0,0,1-1.917.609,3.192,3.192,0,0,1-.584-.051,1.037,1.037,0,0,0-.673.9.455.455,0,0,0,.235.422,1.716,1.716,0,0,0,.806.136h1.231a2.758,2.758,0,0,1,1.736.476,1.654,1.654,0,0,1,.606,1.384,1.975,1.975,0,0,1-.927,1.761,4.96,4.96,0,0,1-2.7.606,3.694,3.694,0,0,1-2.1-.508,1.64,1.64,0,0,1-.74-1.435,1.611,1.611,0,0,1,.406-1.1,2.069,2.069,0,0,1,1.143-.628,1.1,1.1,0,0,1-.448-.375.991.991,0,0,1-.181-.59,1.12,1.12,0,0,1,.2-.667,2.136,2.136,0,0,1,.641-.552,1.879,1.879,0,0,1-.879-.755,2.22,2.22,0,0,1-.34-1.219,2.251,2.251,0,0,1,.686-1.761,2.8,2.8,0,0,1,1.942-.619,3.532,3.532,0,0,1,.984.127Zm-5.548,8.125a.944.944,0,0,0,.476.857,2.627,2.627,0,0,0,1.365.292,3.808,3.808,0,0,0,1.965-.4,1.215,1.215,0,0,0,.638-1.076A.851.851,0,0,0,208,.06a2.711,2.711,0,0,0-1.314-.219h-1.263a1.664,1.664,0,0,0-1.117.343A1.225,1.225,0,0,0,203.906,1.168Zm.571-5.9a1.416,1.416,0,0,0,.413,1.1,1.647,1.647,0,0,0,1.149.375,1.344,1.344,0,0,0,1.542-1.5,1.383,1.383,0,0,0-1.562-1.568,1.546,1.546,0,0,0-1.143.4A1.611,1.611,0,0,0,204.477-4.729ZM215.16,0l-.209-.99H214.9a2.927,2.927,0,0,1-1.038.885,3.163,3.163,0,0,1-1.292.232,2.324,2.324,0,0,1-1.622-.533,1.945,1.945,0,0,1-.587-1.517q0-2.107,3.371-2.209l1.181-.038V-4.6a1.764,1.764,0,0,0-.352-1.209,1.449,1.449,0,0,0-1.127-.39,4.591,4.591,0,0,0-1.968.533l-.324-.806a4.951,4.951,0,0,1,1.127-.438,4.88,4.88,0,0,1,1.228-.159,2.65,2.65,0,0,1,1.844.552,2.305,2.305,0,0,1,.6,1.771V0Zm-2.38-.743a2.139,2.139,0,0,0,1.546-.54,2,2,0,0,0,.562-1.511v-.628l-1.054.044a3.833,3.833,0,0,0-1.812.39,1.177,1.177,0,0,0-.555,1.076,1.086,1.086,0,0,0,.346.87A1.436,1.436,0,0,0,212.78-.743Zm8.506-6.341a4.123,4.123,0,0,1,.832.076l-.146.978a3.589,3.589,0,0,0-.762-.1,1.854,1.854,0,0,0-1.444.686,2.5,2.5,0,0,0-.6,1.708V0h-1.054V-6.957h.87l.121,1.289h.051a3.058,3.058,0,0,1,.933-1.047A2.1,2.1,0,0,1,221.286-7.084Z" transform="translate(282 995)" fill="#38485c"/>
      <g id="V2-Acceso-Grande" transform="translate(206 1031)">
        <rect id="Rectángulo_17144" data-name="Rectángulo 17144" width="508.43" height="72" rx="8" transform="translate(1.57)" fill="#fff"/>
        <g id="Navegación_Chevron_derecho" data-name="Navegación / Chevron derecho" transform="translate(470 24)">
          <path id="Trazado_33" data-name="Trazado 33" d="M0,0H24V24H0Z" fill="none"/>
          <path id="Trazado_34" data-name="Trazado 34" d="M9.29,6.71a1,1,0,0,0,0,1.41L13.17,12,9.29,15.88a1,1,0,1,0,1.41,1.41l4.59-4.59a1,1,0,0,0,0-1.41L10.7,6.7A1,1,0,0,0,9.29,6.71Z" fill="#007bc7"/>
        </g>
        <path id="Trazado_27864" data-name="Trazado 27864" d="M10.688,11.18A5.767,5.767,0,0,1,9.152,15.5,6.074,6.074,0,0,1,4.734,17H1.57V5.578h3.5A5.6,5.6,0,0,1,9.211,7.055,5.576,5.576,0,0,1,10.688,11.18Zm-1.406.047A4.6,4.6,0,0,0,8.16,7.859,4.493,4.493,0,0,0,4.828,6.727H2.9v9.125H4.516a4.917,4.917,0,0,0,3.57-1.168A4.624,4.624,0,0,0,9.281,11.227ZM18.3,17l-.258-1.219h-.062a3.6,3.6,0,0,1-1.277,1.09,3.893,3.893,0,0,1-1.59.285,2.86,2.86,0,0,1-2-.656,2.394,2.394,0,0,1-.723-1.867q0-2.594,4.148-2.719L18,11.867v-.531a2.171,2.171,0,0,0-.434-1.488,1.783,1.783,0,0,0-1.387-.48,5.65,5.65,0,0,0-2.422.656l-.4-.992a6.094,6.094,0,0,1,1.387-.539,6.006,6.006,0,0,1,1.512-.2,3.262,3.262,0,0,1,2.27.68,2.837,2.837,0,0,1,.738,2.18V17Zm-2.93-.914a2.632,2.632,0,0,0,1.9-.664,2.457,2.457,0,0,0,.691-1.859v-.773l-1.3.055a4.717,4.717,0,0,0-2.23.48,1.449,1.449,0,0,0-.684,1.324,1.336,1.336,0,0,0,.426,1.07A1.767,1.767,0,0,0,15.375,16.086Zm9.328,0a4.236,4.236,0,0,0,.664-.051,4.3,4.3,0,0,0,.508-.105v.992a2.371,2.371,0,0,1-.621.168,4.664,4.664,0,0,1-.738.066q-2.484,0-2.484-2.617V9.445H20.8V8.82l1.227-.539.547-1.828h.75V8.438h2.484V9.445H23.328v5.039a1.734,1.734,0,0,0,.367,1.188A1.278,1.278,0,0,0,24.7,16.086Zm10.273-3.375a4.724,4.724,0,0,1-1.055,3.27,3.714,3.714,0,0,1-2.914,1.176,3.86,3.86,0,0,1-2.039-.539,3.558,3.558,0,0,1-1.375-1.547,5.391,5.391,0,0,1-.484-2.359,4.716,4.716,0,0,1,1.047-3.262,3.7,3.7,0,0,1,2.906-1.168,3.622,3.622,0,0,1,2.855,1.2A4.7,4.7,0,0,1,34.977,12.711Zm-6.523,0a4.064,4.064,0,0,0,.656,2.5,2.6,2.6,0,0,0,3.863,0,4.043,4.043,0,0,0,.66-2.5,3.978,3.978,0,0,0-.66-2.48,2.32,2.32,0,0,0-1.949-.848,2.283,2.283,0,0,0-1.922.836A4.023,4.023,0,0,0,28.453,12.711Zm14.32,1.953a2.145,2.145,0,0,1-.891,1.844,4.186,4.186,0,0,1-2.5.648,5.436,5.436,0,0,1-2.656-.539v-1.2a6.424,6.424,0,0,0,1.324.492,5.53,5.53,0,0,0,1.363.18,3.092,3.092,0,0,0,1.563-.324,1.116,1.116,0,0,0,.113-1.844,6.82,6.82,0,0,0-1.691-.84,9.172,9.172,0,0,1-1.7-.777,2.321,2.321,0,0,1-.75-.754,1.966,1.966,0,0,1-.246-1.008,1.921,1.921,0,0,1,.852-1.652,3.968,3.968,0,0,1,2.336-.605,6.835,6.835,0,0,1,2.7.563L42.133,9.9A6.2,6.2,0,0,0,39.8,9.367a2.688,2.688,0,0,0-1.391.289.894.894,0,0,0-.469.8.971.971,0,0,0,.176.586,1.735,1.735,0,0,0,.566.461,12.658,12.658,0,0,0,1.5.633,5.6,5.6,0,0,1,2.059,1.117A1.97,1.97,0,0,1,42.773,14.664Zm12.094,1.188H54.8a3.047,3.047,0,0,1-2.687,1.3A3.179,3.179,0,0,1,49.5,16.008a5.055,5.055,0,0,1-.934-3.266A5.141,5.141,0,0,1,49.5,9.453a3.155,3.155,0,0,1,2.609-1.172,3.114,3.114,0,0,1,2.672,1.266h.1l-.055-.617-.031-.6V4.844h1.3V17H55.039Zm-2.594.219a2.361,2.361,0,0,0,1.926-.723,3.652,3.652,0,0,0,.6-2.332v-.273a4.3,4.3,0,0,0-.605-2.6,2.3,2.3,0,0,0-1.934-.777,1.985,1.985,0,0,0-1.746.887,4.409,4.409,0,0,0-.605,2.5,4.227,4.227,0,0,0,.6,2.477A2.037,2.037,0,0,0,52.273,16.07Zm10.188,1.086a3.934,3.934,0,0,1-3-1.156,4.476,4.476,0,0,1-1.1-3.211A4.964,4.964,0,0,1,59.387,9.5a3.387,3.387,0,0,1,2.738-1.219A3.229,3.229,0,0,1,64.672,9.34a4.057,4.057,0,0,1,.938,2.793v.82h-5.9a3.394,3.394,0,0,0,.762,2.289,2.634,2.634,0,0,0,2.035.781,6.9,6.9,0,0,0,2.734-.578V16.6a6.863,6.863,0,0,1-1.3.426A7.31,7.31,0,0,1,62.461,17.156Zm-.352-7.789a2.118,2.118,0,0,0-1.645.672,3.1,3.1,0,0,0-.723,1.859h4.477a2.851,2.851,0,0,0-.547-1.879A1.925,1.925,0,0,0,62.109,9.367ZM82.891,17V11.43a2.312,2.312,0,0,0-.437-1.535,1.692,1.692,0,0,0-1.359-.512,2.195,2.195,0,0,0-1.789.7,3.3,3.3,0,0,0-.578,2.141V17h-1.3V11.43a2.312,2.312,0,0,0-.437-1.535,1.7,1.7,0,0,0-1.367-.512,2.118,2.118,0,0,0-1.785.73,3.953,3.953,0,0,0-.566,2.395V17h-1.3V8.438h1.055l.211,1.172H73.3a2.549,2.549,0,0,1,1.035-.977,3.162,3.162,0,0,1,1.5-.352,2.544,2.544,0,0,1,2.625,1.453h.063a2.73,2.73,0,0,1,1.109-1.062,3.442,3.442,0,0,1,1.656-.391,2.9,2.9,0,0,1,2.176.746,3.338,3.338,0,0,1,.723,2.387V17Zm5.266,0h-1.3V8.438h1.3ZM86.75,6.117a.861.861,0,0,1,.219-.652.81.81,0,0,1,1.086,0,.846.846,0,0,1,.227.648.859.859,0,0,1-.227.652.794.794,0,0,1-1.086,0A.877.877,0,0,1,86.75,6.117ZM98.484,17.156a3.654,3.654,0,0,1-2.879-1.145,4.707,4.707,0,0,1-1.02-3.238,4.853,4.853,0,0,1,1.035-3.32A3.727,3.727,0,0,1,98.57,8.281a5.852,5.852,0,0,1,1.234.133,4.066,4.066,0,0,1,.969.313l-.4,1.1a6.1,6.1,0,0,0-.937-.285,4.186,4.186,0,0,0-.9-.113q-2.609,0-2.609,3.328a3.963,3.963,0,0,0,.637,2.422,2.215,2.215,0,0,0,1.887.844,5.769,5.769,0,0,0,2.2-.461v1.148A4.679,4.679,0,0,1,98.484,17.156ZM103.9,8.438v5.555a2.235,2.235,0,0,0,.477,1.563,1.941,1.941,0,0,0,1.492.516,2.435,2.435,0,0,0,1.965-.734,3.7,3.7,0,0,0,.621-2.4v-4.5h1.3V17h-1.07l-.187-1.148h-.07a2.585,2.585,0,0,1-1.105.969,3.716,3.716,0,0,1-1.613.336,3.273,3.273,0,0,1-2.34-.742,3.159,3.159,0,0,1-.777-2.375v-5.6Zm12.219,8.719a3.934,3.934,0,0,1-3-1.156,4.476,4.476,0,0,1-1.1-3.211,4.964,4.964,0,0,1,1.02-3.289,3.387,3.387,0,0,1,2.738-1.219,3.229,3.229,0,0,1,2.547,1.059,4.057,4.057,0,0,1,.938,2.793v.82h-5.9a3.394,3.394,0,0,0,.762,2.289,2.635,2.635,0,0,0,2.035.781,6.9,6.9,0,0,0,2.734-.578V16.6a6.863,6.863,0,0,1-1.3.426A7.31,7.31,0,0,1,116.117,17.156Zm-.352-7.789a2.118,2.118,0,0,0-1.645.672A3.1,3.1,0,0,0,113.4,11.9h4.477a2.851,2.851,0,0,0-.547-1.879A1.925,1.925,0,0,0,115.766,9.367ZM127.336,17V11.461a2.235,2.235,0,0,0-.477-1.562,1.941,1.941,0,0,0-1.492-.516,2.461,2.461,0,0,0-1.969.727,3.668,3.668,0,0,0-.625,2.4V17h-1.3V8.438h1.055l.211,1.172h.063a2.648,2.648,0,0,1,1.117-.98,3.63,3.63,0,0,1,1.6-.348,3.252,3.252,0,0,1,2.328.746,3.175,3.175,0,0,1,.781,2.387V17Zm6.727-.914a4.236,4.236,0,0,0,.664-.051,4.3,4.3,0,0,0,.508-.105v.992a2.371,2.371,0,0,1-.621.168,4.664,4.664,0,0,1-.738.066q-2.484,0-2.484-2.617V9.445h-1.227V8.82l1.227-.539.547-1.828h.75V8.438h2.484V9.445h-2.484v5.039a1.733,1.733,0,0,0,.367,1.188A1.278,1.278,0,0,0,134.063,16.086Zm8.148.914-.258-1.219h-.062a3.6,3.6,0,0,1-1.277,1.09,3.893,3.893,0,0,1-1.59.285,2.86,2.86,0,0,1-2-.656,2.394,2.394,0,0,1-.723-1.867q0-2.594,4.148-2.719l1.453-.047v-.531a2.171,2.171,0,0,0-.434-1.488,1.783,1.783,0,0,0-1.387-.48,5.65,5.65,0,0,0-2.422.656l-.4-.992a6.094,6.094,0,0,1,1.387-.539,6.006,6.006,0,0,1,1.512-.2,3.262,3.262,0,0,1,2.27.68,2.837,2.837,0,0,1,.738,2.18V17Zm-2.93-.914a2.632,2.632,0,0,0,1.9-.664,2.457,2.457,0,0,0,.691-1.859v-.773l-1.3.055a4.717,4.717,0,0,0-2.23.48,1.449,1.449,0,0,0-.684,1.324,1.336,1.336,0,0,0,.426,1.07A1.767,1.767,0,0,0,139.281,16.086Z" transform="translate(16 24.999)" fill="#007bc7"/>
      </g>
    </g>
  </g>
</svg>
