<svg xmlns="http://www.w3.org/2000/svg" viewBox="0 0 712 242"><defs><style>.cls-1{fill:#f3f6f9;}.cls-2{fill:#26874a;}.cls-3{fill:#fafafa;}.cls-4{fill:#c93b3b;}.cls-5{fill:#fff;}.cls-6{fill:#e6ebf0;}.cls-7{fill:#ffdb2e;}.cls-8{fill:#dfe7f0;}.cls-9{fill:none;stroke:#38485c;stroke-width:2px;stroke-dasharray:5 2;}</style></defs><g id="Capa_2" data-name="Capa 2"><g id="Capa_1-2" data-name="Capa 1"><g id="Grupo_18139" data-name="Grupo 18139"><rect id="Rectángulo_8928" data-name="Rectángulo 8928" class="cls-1" width="712" height="242" rx="4"/><g id="Grupo_18136" data-name="Grupo 18136"><path id="Trazado_4658" data-name="Trazado 4658" class="cls-2" d="M293,103a16,16,0,1,0,16,16A16,16,0,0,0,293,103Z"/><path id="Trazado_4659" data-name="Trazado 4659" class="cls-3" d="M301.1,115.6l-8.66,8.67a1.34,1.34,0,0,1-1.89,0h0l-4.33-4.33a1.33,1.33,0,0,1,1.88-1.89l3.4,3.4,7.73-7.73a1.33,1.33,0,0,1,1.87,1.88Z"/></g><g id="Grupo_18137" data-name="Grupo 18137"><path id="Trazado_4660" data-name="Trazado 4660" class="cls-4" d="M632,103a16,16,0,1,0,16,16A16,16,0,0,0,632,103Z"/><path id="Trazado_4661" data-name="Trazado 4661" class="cls-5" d="M637.89,123a1.33,1.33,0,1,1-1.86,1.91l0,0-4-4-4,4a1.33,1.33,0,1,1-1.88-1.88l4-4-4-4a1.33,1.33,0,1,1,1.88-1.88h0l4,4,4-4a1.33,1.33,0,0,1,1.88,1.88l-4,4Z"/></g><g id="Grupo_11850" data-name="Grupo 11850"><rect id="Rectángulo_4834" data-name="Rectángulo 4834" class="cls-5" x="80" y="38.43" width="175.79" height="18.89"/><rect id="Rectángulo_4836" data-name="Rectángulo 4836" class="cls-5" x="80" y="75.39" width="175.79" height="18.89"/><rect id="Rectángulo_4842" data-name="Rectángulo 4842" class="cls-5" x="80" y="149.32" width="175.79" height="32.86"/><rect id="Rectángulo_4838" data-name="Rectángulo 4838" class="cls-5" x="80" y="112.36" width="83.79" height="18.89"/><rect id="Rectángulo_4840" data-name="Rectángulo 4840" class="cls-5" x="172" y="112.36" width="83.79" height="18.89"/><rect id="Rectángulo_4835" data-name="Rectángulo 4835" class="cls-6" x="80" y="30.21" width="49.29" height="4.93"/><rect id="Rectángulo_4837" data-name="Rectángulo 4837" class="cls-6" x="80" y="67.18" width="49.29" height="4.93"/><rect id="Rectángulo_4843" data-name="Rectángulo 4843" class="cls-6" x="80" y="141.11" width="49.29" height="4.93"/><rect id="Rectángulo_4839" data-name="Rectángulo 4839" class="cls-6" x="80" y="104.14" width="49.29" height="4.93"/><rect id="Rectángulo_4841" data-name="Rectángulo 4841" class="cls-6" x="172" y="104.14" width="49.29" height="4.93"/><g id="Botón_Primario" data-name="Botón Primario"><rect id="Rectángulo_3061" data-name="Rectángulo 3061" class="cls-7" x="199.93" y="201.89" width="55.86" height="13.96" rx="1"/></g><g id="Botón_Primario-2" data-name="Botón Primario-2"><rect id="Rectángulo_3061-2" data-name="Rectángulo 3061-2" class="cls-8" x="136.68" y="201.89" width="55.86" height="13.96" rx="1"/></g></g><line id="Línea_157" data-name="Línea 157" class="cls-9" x1="257.02" y1="215.5" x2="257.02" y2="36.38"/><g id="Grupo_11850-2" data-name="Grupo 11850-2"><rect id="Rectángulo_4834-2" data-name="Rectángulo 4834-2" class="cls-5" x="420" y="38.43" width="175.79" height="18.89"/><rect id="Rectángulo_4836-2" data-name="Rectángulo 4836-2" class="cls-5" x="420" y="75.39" width="175.79" height="18.89"/><rect id="Rectángulo_4842-2" data-name="Rectángulo 4842-2" class="cls-5" x="420" y="149.32" width="175.79" height="32.86"/><rect id="Rectángulo_4838-2" data-name="Rectángulo 4838-2" class="cls-5" x="420" y="112.36" width="83.79" height="18.89"/><rect id="Rectángulo_4840-2" data-name="Rectángulo 4840-2" class="cls-5" x="512" y="112.36" width="83.79" height="18.89"/><rect id="Rectángulo_4835-2" data-name="Rectángulo 4835-2" class="cls-6" x="420" y="30.21" width="49.29" height="4.93"/><rect id="Rectángulo_4837-2" data-name="Rectángulo 4837-2" class="cls-6" x="420" y="67.18" width="49.29" height="4.93"/><rect id="Rectángulo_4843-2" data-name="Rectángulo 4843-2" class="cls-6" x="420" y="141.11" width="49.29" height="4.93"/><rect id="Rectángulo_4839-2" data-name="Rectángulo 4839-2" class="cls-6" x="420" y="104.14" width="49.29" height="4.93"/><rect id="Rectángulo_4841-2" data-name="Rectángulo 4841-2" class="cls-6" x="512" y="104.14" width="49.29" height="4.93"/><g id="Botón_Primario-3" data-name="Botón Primario-3"><rect id="Rectángulo_3061-3" data-name="Rectángulo 3061-3" class="cls-7" x="419.93" y="201.89" width="55.86" height="13.96" rx="1"/></g><g id="Botón_Primario-4" data-name="Botón Primario-4"><rect id="Rectángulo_3061-4" data-name="Rectángulo 3061-4" class="cls-8" x="483.68" y="201.89" width="55.86" height="13.96" rx="1"/></g></g><line id="Línea_157-2" data-name="Línea 157-2" class="cls-9" x1="420.02" y1="215.5" x2="420.02" y2="25.5"/></g></g></g></svg>