<svg xmlns="http://www.w3.org/2000/svg" xmlns:xlink="http://www.w3.org/1999/xlink" width="340" height="236" viewBox="0 0 340 236"><defs><style>.a{fill:#f3f6f9;}.b{fill:#fff;}.c{fill:#e6ebf0;}.d{fill:#ffdb2e;}.e{fill:#dfe7f0;}.f{fill:none;stroke:#38485c;stroke-width:2px;stroke-dasharray:12 8;}.g{fill:#c93b3b;}.h{filter:url(#a);}</style><filter id="a" x="42" y="58" width="229" height="135" filterUnits="userSpaceOnUse"><feOffset input="SourceAlpha"/><feGaussianBlur stdDeviation="6" result="b"/><feFlood flood-color="#38485c" flood-opacity="0.161"/><feComposite operator="in" in2="b"/><feComposite in="SourceGraphic"/></filter></defs><g transform="translate(-885 -3082)"><rect class="a" width="340" height="236" rx="4" transform="translate(885 3082)"/><g transform="translate(884 -3071)"><g class="h" transform="matrix(1, 0, 0, 1, 1, 6153)"><rect class="b" width="193" height="99" rx="4" transform="translate(60 76)"/></g><rect class="c" width="72" height="8" transform="translate(122 6253)"/><rect class="c" width="127" height="6" transform="translate(94 6265)"/><rect class="c" width="127" height="6" transform="translate(94 6273)"/><g transform="translate(94.48 6291)"><rect class="d" width="60" height="17" rx="1" transform="translate(-0.48)"/></g><g transform="translate(162 6291)"><rect class="e" width="60" height="17" rx="1"/></g></g><line class="f" y1="112.184" transform="translate(1105.5 3151.658)"/><line class="f" y1="112.184" transform="translate(978.5 3151.658)"/><g transform="translate(1128 3148)"><path class="g" d="M10,0A10,10,0,1,0,20,10,10.011,10.011,0,0,0,10,0Zm0,0" transform="translate(0)"/><path class="b" d="M163.081,161.9a.833.833,0,1,1-1.178,1.178l-2.5-2.5-2.5,2.5a.833.833,0,1,1-1.178-1.178l2.5-2.5-2.5-2.5a.833.833,0,1,1,1.178-1.178l2.5,2.5,2.5-2.5a.833.833,0,1,1,1.178,1.178l-2.5,2.5Zm0,0" transform="translate(-149.398 -149.398)"/></g></g></svg>