<svg xmlns="http://www.w3.org/2000/svg" viewBox="0 0 712 242"><defs><style>.cls-1{fill:#f3f6f9;}.cls-2{fill:#fff;}.cls-3{fill:#e6ebf0;}.cls-4{fill:#ffdb2e;}.cls-5{fill:#dfe7f0;}.cls-6{fill:none;stroke:#38485c;stroke-width:2px;stroke-dasharray:5 2;}.cls-7{fill:#26874a;}.cls-8{fill:#fafafa;}.cls-9{fill:#c93b3b;}</style></defs><g id="Capa_2" data-name="Capa 2"><g id="Capa_1-2" data-name="Capa 1"><g id="Grupo_18138" data-name="Grupo 18138"><rect id="Rectángulo_8925" data-name="Rectángulo 8925" class="cls-1" width="712" height="242" rx="4"/><g id="Grupo_11848" data-name="Grupo 11848"><rect id="Rectángulo_4827-3" data-name="Rectángulo 4827-3" class="cls-2" x="64" y="72" width="193" height="99" rx="4"/><rect id="Rectángulo_4829" data-name="Rectángulo 4829" class="cls-3" x="88" y="96" width="72" height="8"/><rect id="Rectángulo_4830" data-name="Rectángulo 4830" class="cls-3" x="88" y="108" width="145" height="6"/><rect id="Rectángulo_4831" data-name="Rectángulo 4831" class="cls-3" x="88" y="116" width="145" height="6"/><g id="Botón_Primario" data-name="Botón Primario"><rect id="Rectángulo_3061" data-name="Rectángulo 3061" class="cls-4" x="173" y="134" width="60" height="17" rx="1"/></g><g id="Botón_Primario-2" data-name="Botón Primario-2"><rect id="Rectángulo_3061-2" data-name="Rectángulo 3061-2" class="cls-5" x="105" y="134" width="60" height="17" rx="1"/></g></g><line id="Línea_148" data-name="Línea 148" class="cls-6" x1="234.5" y1="177" x2="234.5" y2="66"/><g id="Grupo_18134" data-name="Grupo 18134"><path id="Trazado_4658" data-name="Trazado 4658" class="cls-7" d="M293,105a16,16,0,1,0,16,16A16,16,0,0,0,293,105Z"/><path id="Trazado_4659" data-name="Trazado 4659" class="cls-8" d="M301.1,117.6l-8.66,8.67a1.34,1.34,0,0,1-1.89,0h0l-4.33-4.33a1.33,1.33,0,0,1,1.88-1.89l3.4,3.4,7.73-7.73a1.33,1.33,0,0,1,1.87,1.88Z"/></g><g id="Grupo_11849" data-name="Grupo 11849"><rect id="Rectángulo_4827-4" data-name="Rectángulo 4827-4" class="cls-2" x="403" y="71" width="193" height="99" rx="4"/><rect id="Rectángulo_4829-2" data-name="Rectángulo 4829-2" class="cls-3" x="464" y="95" width="72" height="8"/><rect id="Rectángulo_4830-2" data-name="Rectángulo 4830-2" class="cls-3" x="436" y="107" width="127" height="6"/><rect id="Rectángulo_4831-2" data-name="Rectángulo 4831-2" class="cls-3" x="436" y="115" width="127" height="6"/><g id="Botón_Primario-3" data-name="Botón Primario-3"><rect id="Rectángulo_3061-3" data-name="Rectángulo 3061-3" class="cls-4" x="436" y="133" width="60" height="17" rx="1"/></g><g id="Botón_Primario-4" data-name="Botón Primario-4"><rect id="Rectángulo_3061-4" data-name="Rectángulo 3061-4" class="cls-5" x="504" y="133" width="60" height="17" rx="1"/></g></g><line id="Línea_149" data-name="Línea 149" class="cls-6" x1="563.5" y1="176.84" x2="563.5" y2="64.66"/><line id="Línea_151" data-name="Línea 151" class="cls-6" x1="436.5" y1="176.84" x2="436.5" y2="64.66"/><g id="Grupo_18135" data-name="Grupo 18135"><path id="Trazado_4660" data-name="Trazado 4660" class="cls-9" d="M632,106a16,16,0,1,0,16,16A16,16,0,0,0,632,106Z"/><path id="Trazado_4661" data-name="Trazado 4661" class="cls-2" d="M637.89,126a1.33,1.33,0,1,1-1.86,1.91l0,0-4-4-4,4a1.33,1.33,0,1,1-1.88-1.88l4-4-4-4a1.33,1.33,0,1,1,1.88-1.88h0l4,4,4-4a1.33,1.33,0,0,1,1.88,1.88l-4,4Z"/></g></g></g></g></svg>