<svg xmlns="http://www.w3.org/2000/svg" width="340" height="242" viewBox="0 0 340 242"><defs><style>.a{fill:#f3f6f9;}.b{fill:#fff;}.c{fill:#e6ebf0;}.d{fill:#ffdb2e;}.e{fill:#dfe7f0;}.f{fill:none;stroke:#38485c;stroke-width:2px;stroke-dasharray:12 8;}.g{fill:#26874a;}.h{fill:#fafafa;}</style></defs><g transform="translate(-513 -3366)"><rect class="a" width="340" height="242" rx="4" transform="translate(513 3366)"/><g transform="translate(600 3398.214)"><rect class="b" width="175.786" height="18.893" transform="translate(0 8.214)"/><rect class="b" width="175.786" height="18.893" transform="translate(0 45.179)"/><rect class="b" width="175.786" height="32.857" transform="translate(0 119.107)"/><rect class="b" width="83.786" height="18.893" transform="translate(0 82.143)"/><rect class="b" width="83.786" height="18.893" transform="translate(92 82.143)"/><rect class="c" width="49.286" height="4.929" transform="translate(0 0)"/><rect class="c" width="49.286" height="4.929" transform="translate(0 36.964)"/><rect class="c" width="49.286" height="4.929" transform="translate(0 110.893)"/><rect class="c" width="49.286" height="4.929" transform="translate(0 73.929)"/><rect class="c" width="49.286" height="4.929" transform="translate(92 73.929)"/><g transform="translate(119.929 171.679)"><rect class="d" width="55.857" height="13.964" rx="1"/></g><g transform="translate(56.679 171.679)"><rect class="e" width="55.857" height="13.964" rx="1"/></g></g><line class="f" y1="179.125" transform="translate(777.018 3404.375)"/><g transform="translate(765 3393)"><path class="g" d="M10,0A10,10,0,1,0,20,10,10.011,10.011,0,0,0,10,0Zm0,0" transform="translate(0)"/><path class="h" d="M150.876,166.751l-5.417,5.417a.833.833,0,0,1-1.178,0l-2.708-2.708a.833.833,0,0,1,1.178-1.178l2.119,2.119,4.828-4.827a.833.833,0,0,1,1.178,1.178Zm0,0" transform="translate(-135.808 -158.87)"/></g></g></svg>