<svg xmlns="http://www.w3.org/2000/svg" viewBox="0 0 712 293"><defs><style>.cls-1{fill:#f3f6f9;}.cls-2{fill:#fff;}.cls-3{fill:#ffdb2e;}.cls-4{fill:#dfe7f0;}.cls-5{fill:none;stroke:#38485c;stroke-width:2px;stroke-dasharray:12 8;}.cls-6{fill:#26874a;}.cls-7{fill:#fafafa;}.cls-8{fill:#c93b3b;}</style></defs><g id="Capa_2" data-name="Capa 2"><g id="Capa_1-2" data-name="Capa 1"><g id="Grupo_18144" data-name="Grupo 18144"><rect id="Rectángulo_8928" data-name="Rectángulo 8928" class="cls-1" width="712" height="293" rx="4"/><g id="Grupo_18048" data-name="Grupo 18048"><rect id="Rectángulo_4844" data-name="Rectángulo 4844" class="cls-2" x="43" y="34" width="214" height="18"/><rect id="Rectángulo_4846" data-name="Rectángulo 4846" class="cls-2" x="43" y="56" width="184" height="18"/><rect id="Rectángulo_4845" data-name="Rectángulo 4845" class="cls-2" x="43" y="82" width="214" height="12"/><rect id="Rectángulo_4847" data-name="Rectángulo 4847" class="cls-2" x="43" y="98" width="214" height="12"/><rect id="Rectángulo_4848" data-name="Rectángulo 4848" class="cls-2" x="43" y="132" width="214" height="6"/><rect id="Rectángulo_4857" data-name="Rectángulo 4857" class="cls-2" x="43" y="190" width="214" height="6"/><rect id="Rectángulo_4849" data-name="Rectángulo 4849" class="cls-2" x="43" y="142" width="209" height="6"/><rect id="Rectángulo_4855" data-name="Rectángulo 4855" class="cls-2" x="43" y="200" width="209" height="6"/><rect id="Rectángulo_4850" data-name="Rectángulo 4850" class="cls-2" x="43" y="152" width="214" height="6"/><rect id="Rectángulo_4856" data-name="Rectángulo 4856" class="cls-2" x="43" y="210" width="214" height="6"/><rect id="Rectángulo_4851" data-name="Rectángulo 4851" class="cls-2" x="43" y="162" width="202" height="6"/><rect id="Rectángulo_4854" data-name="Rectángulo 4854" class="cls-2" x="43" y="220" width="202" height="6"/><rect id="Rectángulo_4852" data-name="Rectángulo 4852" class="cls-2" x="43" y="172" width="212" height="6"/><rect id="Rectángulo_4853" data-name="Rectángulo 4853" class="cls-2" x="43" y="230" width="212" height="6"/><rect id="Rectángulo_3061" data-name="Rectángulo 3061" class="cls-3" x="43" y="252" width="68" height="17" rx="1"/><rect id="Rectángulo_8946" data-name="Rectángulo 8946" class="cls-4" x="119" y="252" width="68" height="17" rx="1"/><line id="Línea_156" data-name="Línea 156" class="cls-5" x1="43.5" y1="269" x2="43.5" y2="34.5"/></g><g id="Grupo_18049" data-name="Grupo 18049"><rect id="Rectángulo_4844-2" data-name="Rectángulo 4844-2" class="cls-2" x="378" y="34" width="214" height="18"/><rect id="Rectángulo_4846-2" data-name="Rectángulo 4846-2" class="cls-2" x="378" y="56" width="184" height="18"/><rect id="Rectángulo_4845-2" data-name="Rectángulo 4845-2" class="cls-2" x="378" y="82" width="214" height="12"/><rect id="Rectángulo_4847-2" data-name="Rectángulo 4847-2" class="cls-2" x="378" y="98" width="214" height="12"/><rect id="Rectángulo_4848-2" data-name="Rectángulo 4848-2" class="cls-2" x="378" y="132" width="214" height="6"/><rect id="Rectángulo_4857-2" data-name="Rectángulo 4857-2" class="cls-2" x="378" y="190" width="214" height="6"/><rect id="Rectángulo_4849-2" data-name="Rectángulo 4849-2" class="cls-2" x="378" y="142" width="209" height="6"/><rect id="Rectángulo_4855-2" data-name="Rectángulo 4855-2" class="cls-2" x="378" y="200" width="209" height="6"/><rect id="Rectángulo_4850-2" data-name="Rectángulo 4850-2" class="cls-2" x="378" y="152" width="214" height="6"/><rect id="Rectángulo_4856-2" data-name="Rectángulo 4856-2" class="cls-2" x="378" y="210" width="214" height="6"/><rect id="Rectángulo_4851-2" data-name="Rectángulo 4851-2" class="cls-2" x="378" y="162" width="202" height="6"/><rect id="Rectángulo_4854-2" data-name="Rectángulo 4854-2" class="cls-2" x="378" y="220" width="202" height="6"/><rect id="Rectángulo_4852-2" data-name="Rectángulo 4852-2" class="cls-2" x="378" y="172" width="212" height="6"/><rect id="Rectángulo_4853-2" data-name="Rectángulo 4853-2" class="cls-2" x="378" y="230" width="212" height="6"/><rect id="Rectángulo_3061-2" data-name="Rectángulo 3061-2" class="cls-3" x="451" y="252" width="68" height="17" rx="1"/><line id="Línea_154" data-name="Línea 154" class="cls-5" x1="518.5" y1="269" x2="518.5" y2="24"/><line id="Línea_155" data-name="Línea 155" class="cls-5" x1="451.5" y1="269" x2="451.5" y2="24"/></g><g id="Grupo_18142" data-name="Grupo 18142"><path id="Trazado_4658" data-name="Trazado 4658" class="cls-6" d="M293,131a16,16,0,1,0,16,16A16,16,0,0,0,293,131Z"/><path id="Trazado_4659" data-name="Trazado 4659" class="cls-7" d="M301.1,143.6l-8.66,8.67a1.34,1.34,0,0,1-1.89,0h0l-4.33-4.33a1.33,1.33,0,0,1,1.88-1.89l3.4,3.4,7.73-7.73a1.33,1.33,0,0,1,1.87,1.88Z"/></g><g id="Grupo_18143" data-name="Grupo 18143"><path id="Trazado_4660" data-name="Trazado 4660" class="cls-8" d="M632,131a16,16,0,1,0,16,16A16,16,0,0,0,632,131Z"/><path id="Trazado_4661" data-name="Trazado 4661" class="cls-2" d="M637.89,151a1.33,1.33,0,1,1-1.86,1.91l0,0-4-4-4,4a1.33,1.33,0,1,1-1.88-1.88l4-4-4-4a1.33,1.33,0,1,1,1.88-1.88h0l4,4,4-4a1.33,1.33,0,0,1,1.88,1.88l-4,4Z"/></g></g></g></g></svg>