<svg xmlns="http://www.w3.org/2000/svg" width="340" height="293" viewBox="0 0 340 293"><defs><style>.a{fill:#f3f6f9;}.b{fill:#fff;}.c{fill:#ffdb2e;}.d{fill:#26874a;}.e{fill:#fafafa;}.f{fill:none;stroke:#38485c;stroke-width:2px;stroke-dasharray:12 8;}</style></defs><g transform="translate(-513 -3893)"><rect class="a" width="340" height="293" rx="4" transform="translate(513 3893)"/><g transform="translate(18 -338.5)"><rect class="b" width="214" height="18" transform="translate(553 4265.5)"/><rect class="b" width="184" height="18" transform="translate(553 4287.5)"/><rect class="b" width="214" height="12" transform="translate(553 4313.5)"/><rect class="b" width="214" height="12" transform="translate(553 4329.5)"/><rect class="b" width="214" height="6" transform="translate(553 4363.5)"/><rect class="b" width="214" height="6" transform="translate(553 4421.5)"/><rect class="b" width="209" height="6" transform="translate(553 4373.5)"/><rect class="b" width="209" height="6" transform="translate(553 4431.5)"/><rect class="b" width="214" height="6" transform="translate(553 4383.5)"/><rect class="b" width="214" height="6" transform="translate(553 4441.5)"/><rect class="b" width="202" height="6" transform="translate(553 4393.5)"/><rect class="b" width="202" height="6" transform="translate(553 4451.5)"/><rect class="b" width="212" height="6" transform="translate(553 4403.5)"/><rect class="b" width="212" height="6" transform="translate(553 4461.5)"/><rect class="c" width="68" height="17" rx="1" transform="translate(553 4483.5)"/><g transform="translate(757 4255.5)"><path class="d" d="M10,0A10,10,0,1,0,20,10,10.011,10.011,0,0,0,10,0Zm0,0" transform="translate(0)"/><path class="e" d="M150.876,166.751l-5.417,5.417a.833.833,0,0,1-1.178,0l-2.708-2.708a.833.833,0,0,1,1.178-1.178l2.119,2.119,4.828-4.827a.833.833,0,0,1,1.178,1.178Zm0,0" transform="translate(-135.808 -158.87)"/></g><line class="f" y1="234.5" transform="translate(553.5 4266)"/></g></g></svg>