<svg xmlns="http://www.w3.org/2000/svg" viewBox="0 0 712 176"><defs><style>.cls-1{fill:#f3f6f9;}.cls-2{fill:#e6ebf0;}.cls-3{fill:#38485c;}.cls-4{fill:none;stroke:#38485c;stroke-linecap:round;}.cls-5{opacity:0.2;}</style></defs><g id="Capa_2" data-name="Capa 2"><g id="Capa_1-2" data-name="Capa 1"><g id="Grupo_18078" data-name="Grupo 18078"><path id="Trazado_20235" data-name="Trazado 20235" class="cls-1" d="M4,0H708c2.21,0,4,.62,4,1.39V174.61c0,.77-1.79,1.39-4,1.39H4c-2.21,0-4-.62-4-1.39V1.39C0,.62,1.79,0,4,0Z"/></g><rect id="Rectángulo_3061" data-name="Rectángulo 3061" class="cls-2" x="306" y="64" width="100" height="48" rx="4"/><path id="Trazado_23807" data-name="Trazado 23807" class="cls-3" d="M331.51,82.15h3.81a7.28,7.28,0,0,1,3.84.77,2.73,2.73,0,0,1,1.18,2.45,2.93,2.93,0,0,1-.58,1.87,2.62,2.62,0,0,1-1.67.94v.09a3.31,3.31,0,0,1,2,1,3.05,3.05,0,0,1,.64,2A3.3,3.3,0,0,1,339.51,94a5.17,5.17,0,0,1-3.36,1h-4.64Zm2.1,5.31h2a3.51,3.51,0,0,0,1.93-.42,1.59,1.59,0,0,0,.6-1.42,1.44,1.44,0,0,0-.65-1.31,4.17,4.17,0,0,0-2.08-.4h-1.82Zm0,1.7v4.07h2.23a3.31,3.31,0,0,0,2-.5,1.83,1.83,0,0,0,.67-1.6,1.68,1.68,0,0,0-.68-1.49,3.7,3.7,0,0,0-2.08-.48Zm18.18,1a5.25,5.25,0,0,1-1.22,3.72,4.37,4.37,0,0,1-3.4,1.34,4.76,4.76,0,0,1-2.41-.62,4.06,4.06,0,0,1-1.61-1.77,6.13,6.13,0,0,1-.56-2.67,5.27,5.27,0,0,1,1.22-3.69,4.38,4.38,0,0,1,3.41-1.33,4.29,4.29,0,0,1,3.34,1.36A5.16,5.16,0,0,1,351.79,90.12Zm-7.07,0c0,2.25.83,3.37,2.49,3.37s2.46-1.12,2.46-3.37-.83-3.33-2.48-3.33a2.14,2.14,0,0,0-1.89.86A4.45,4.45,0,0,0,344.72,90.12Zm13.07,3.39a5.54,5.54,0,0,0,1.51-.24v1.55a3.85,3.85,0,0,1-.88.25,6.07,6.07,0,0,1-1.12.11c-2,0-2.94-1-2.94-3.1V86.84H353v-.91l1.43-.76.7-2h1.28v2.16h2.76v1.56h-2.76V92a1.43,1.43,0,0,0,.37,1.1A1.37,1.37,0,0,0,357.79,93.51Zm12.07-3.39a5.25,5.25,0,0,1-1.22,3.72,4.37,4.37,0,0,1-3.4,1.34,4.76,4.76,0,0,1-2.41-.62,4.06,4.06,0,0,1-1.61-1.77,6.13,6.13,0,0,1-.56-2.67,5.27,5.27,0,0,1,1.22-3.69,4.36,4.36,0,0,1,3.41-1.33,4.29,4.29,0,0,1,3.34,1.36A5.16,5.16,0,0,1,369.86,90.12Zm-7.07,0c0,2.25.83,3.37,2.49,3.37s2.46-1.12,2.46-3.37-.83-3.33-2.48-3.33a2.14,2.14,0,0,0-1.89.86A4.45,4.45,0,0,0,362.79,90.12Zm1.13-6v-.22c.34-.41.68-.86,1-1.37s.63-.93.84-1.29h2.4v.19c-.43.48-.89.94-1.37,1.38s-1,.9-1.53,1.31ZM380.79,95h-2.07V89a2.66,2.66,0,0,0-.46-1.68,1.76,1.76,0,0,0-1.43-.55,2.29,2.29,0,0,0-1.92.77,4.24,4.24,0,0,0-.61,2.6V95h-2.06V85.28h1.62l.29,1.27h.1a2.89,2.89,0,0,1,1.25-1.07,4.09,4.09,0,0,1,1.79-.38c2.34,0,3.5,1.19,3.5,3.56Z"/><g id="Grupo_18125" data-name="Grupo 18125"><line id="Línea_114" data-name="Línea 114" class="cls-4" x1="287" y1="76.21" x2="287" y2="100.29"/><path id="Trazado_4671" data-name="Trazado 4671" class="cls-4" d="M287,100.29h3"/><path id="Trazado_20265" data-name="Trazado 20265" class="cls-4" d="M287,76h3"/></g><g id="Trazado_20315" data-name="Trazado 20315"><path class="cls-5" d="M329.9,100.29V76H382v24.29Z"/><path class="cls-3" d="M329.9,90.29v-5h1v5Zm0-10V76h1v4.29ZM335.61,77V76h5v1Zm10,0V76h5v1Zm10,0V76h5v1Zm10,0V76h5v1Zm10,0V76h5v1ZM381,84.61v-5h1v5Zm0,10v-5h1v5Zm-3.33,5.68v-1H382v.32h0v0h0v.68Zm-10,0v-1h5v1Zm-10,0v-1h5v1Zm-10,0v-1h5v1Zm-10,0v-1h5v1Zm-7.77,0v-5h1v4h1.77v1Z"/></g><path id="Trazado_23808" data-name="Trazado 23808" class="cls-3" d="M183.44,91.77a1,1,0,0,1,.1.41.8.8,0,0,1-.3.63,1,1,0,0,1-.68.25.89.89,0,0,1-.48-.13.87.87,0,0,1-.35-.43l-1-2.14h-5.63l-1,2.14a.92.92,0,0,1-.36.42.88.88,0,0,1-.5.14,1,1,0,0,1-.66-.25.74.74,0,0,1-.3-.63.86.86,0,0,1,.1-.41l4.4-9.49a1.05,1.05,0,0,1,.44-.49,1.3,1.3,0,0,1,.64-.17,1.27,1.27,0,0,1,.63.17,1.05,1.05,0,0,1,.44.49Zm-7.6-3h4.22L178,84Zm2.35-8a.54.54,0,0,1-.61-.08.4.4,0,0,1-.14-.31.5.5,0,0,1,.18-.35l1.45-1.5a.94.94,0,0,1,.69-.32.75.75,0,0,1,.55.23.72.72,0,0,1,.1.94,1.2,1.2,0,0,1-.41.33ZM189.26,85a.86.86,0,0,1,.66.17.77.77,0,0,1,.24.63.89.89,0,0,1-.21.64,1.34,1.34,0,0,1-.75.27l-.48,0a1.88,1.88,0,0,0-1.38.64,2,2,0,0,0-.44,1.36v3.36a.91.91,0,0,1-.29.71,1.11,1.11,0,0,1-.72.25,1,1,0,0,1-.71-.25.89.89,0,0,1-.28-.71v-6.2a.8.8,0,0,1,.28-.68,1,1,0,0,1,.7-.24.93.93,0,0,1,.67.23.81.81,0,0,1,.25.66v.64a2.52,2.52,0,0,1,.9-1.09A2.87,2.87,0,0,1,189,85ZM197,90.86a.54.54,0,0,1,.44.2.88.88,0,0,1,.17.56,1,1,0,0,1-.59.84,5.49,5.49,0,0,1-1.24.48,5.18,5.18,0,0,1-1.31.19,4.09,4.09,0,0,1-3-1.09,4,4,0,0,1-1.1-3,4.6,4.6,0,0,1,.48-2.12,3.47,3.47,0,0,1,1.35-1.44,3.79,3.79,0,0,1,2-.51,3.48,3.48,0,0,1,1.84.46,3.14,3.14,0,0,1,1.22,1.31,4.32,4.32,0,0,1,.43,2c0,.46-.2.69-.61.69h-4.72a2.49,2.49,0,0,0,.63,1.62,2.09,2.09,0,0,0,1.53.52,2.73,2.73,0,0,0,.9-.13,6.85,6.85,0,0,0,.89-.35A1.83,1.83,0,0,1,197,90.86Zm-2.77-4.47a1.76,1.76,0,0,0-1.3.51,2.44,2.44,0,0,0-.58,1.48H196a2.25,2.25,0,0,0-.48-1.48A1.6,1.6,0,0,0,194.27,86.39ZM202.72,85a3.25,3.25,0,0,1,2.42.81,3.39,3.39,0,0,1,.8,2.46v3.9a.91.91,0,0,1-.26.68,1,1,0,0,1-.7.25,1,1,0,0,1-.68-.26.89.89,0,0,1-.26-.67V91.8a2.16,2.16,0,0,1-.86,1,2.57,2.57,0,0,1-1.35.35,3.06,3.06,0,0,1-1.43-.32,2.53,2.53,0,0,1-1-.88,2.31,2.31,0,0,1-.37-1.25,2,2,0,0,1,.44-1.36,2.74,2.74,0,0,1,1.44-.72,12.57,12.57,0,0,1,2.74-.22h.4V88a1.7,1.7,0,0,0-.34-1.15,1.49,1.49,0,0,0-1.09-.36,3.68,3.68,0,0,0-.94.14q-.48.14-1.14.39a1.58,1.58,0,0,1-.61.21.58.58,0,0,1-.47-.21.75.75,0,0,1-.18-.54.78.78,0,0,1,.13-.47,1.3,1.3,0,0,1,.46-.38,5.23,5.23,0,0,1,1.34-.48A7.09,7.09,0,0,1,202.72,85Zm-.5,6.7a1.72,1.72,0,0,0,1.3-.53,2,2,0,0,0,.5-1.39v-.33h-.29a10.28,10.28,0,0,0-1.66.1,1.62,1.62,0,0,0-.85.33.87.87,0,0,0-.26.66,1.1,1.1,0,0,0,.36.84,1.3,1.3,0,0,0,.9.33Zm16.58-10a1.07,1.07,0,0,1,.74.26.84.84,0,0,1,.28.67v9.57a.85.85,0,0,1-.27.68,1,1,0,0,1-.72.26,1,1,0,0,1-.72-.26.92.92,0,0,1-.27-.68v-.4a2.45,2.45,0,0,1-1,1,3,3,0,0,1-1.51.37,3.27,3.27,0,0,1-1.8-.51,3.39,3.39,0,0,1-1.23-1.45,5.14,5.14,0,0,1-.44-2.15,4.71,4.71,0,0,1,.44-2.13,3.23,3.23,0,0,1,3-1.91,3.12,3.12,0,0,1,1.5.35,2.53,2.53,0,0,1,1,1V82.53a.85.85,0,0,1,.26-.65A1,1,0,0,1,218.8,81.64Zm-3,9.94a1.8,1.8,0,0,0,1.48-.66,3.62,3.62,0,0,0,0-3.74,2,2,0,0,0-2.95,0,2.81,2.81,0,0,0-.53,1.84,3,3,0,0,0,.53,1.88A1.78,1.78,0,0,0,215.84,91.58Zm12.22-.72a.51.51,0,0,1,.44.2.88.88,0,0,1,.17.56,1,1,0,0,1-.59.84,5.42,5.42,0,0,1-1.23.48,5.32,5.32,0,0,1-1.31.19,4.09,4.09,0,0,1-3-1.09,4,4,0,0,1-1.1-3,4.6,4.6,0,0,1,.48-2.12,3.54,3.54,0,0,1,1.35-1.44,3.82,3.82,0,0,1,2-.51,3.5,3.5,0,0,1,1.84.46,3.18,3.18,0,0,1,1.21,1.31,4.32,4.32,0,0,1,.43,2c0,.46-.2.69-.61.69H223.4a2.49,2.49,0,0,0,.63,1.62,2.09,2.09,0,0,0,1.53.52,2.73,2.73,0,0,0,.9-.13,6.85,6.85,0,0,0,.89-.35A1.83,1.83,0,0,1,228.06,90.86Zm-2.76-4.47a1.74,1.74,0,0,0-1.3.51,2.44,2.44,0,0,0-.58,1.48H227a2.25,2.25,0,0,0-.48-1.48A1.56,1.56,0,0,0,225.3,86.39Zm13.44,5.22c.53,0,.8.27.8.72a.65.65,0,0,1-.31.58,1.45,1.45,0,0,1-.89.17l-.44,0a2.57,2.57,0,0,1-2.7-2.44,2.14,2.14,0,0,1,0-.44V86.68h-.8a1,1,0,0,1-.66-.19.8.8,0,0,1,0-1.12,1,1,0,0,1,.66-.19h.8V83.7a.93.93,0,0,1,.27-.69,1.19,1.19,0,0,1,1.46,0,.89.89,0,0,1,.27.69v1.47h1.36a1.07,1.07,0,0,1,.67.19.7.7,0,0,1,.23.56.69.69,0,0,1-.23.56,1.08,1.08,0,0,1-.67.2h-1.36v3.63c0,.79.36,1.21,1.09,1.26Zm8-.75a.54.54,0,0,1,.44.2.87.87,0,0,1,.16.56,1,1,0,0,1-.59.84,5.42,5.42,0,0,1-1.23.48,5.32,5.32,0,0,1-1.31.19,4.09,4.09,0,0,1-3-1.09,4,4,0,0,1-1.1-3,4.6,4.6,0,0,1,.48-2.12A3.47,3.47,0,0,1,242,85.5a3.8,3.8,0,0,1,2-.51,3.5,3.5,0,0,1,1.84.46A3.18,3.18,0,0,1,247,86.76a4.32,4.32,0,0,1,.43,2q0,.69-.6.69H242.1a2.53,2.53,0,0,0,.62,1.62,2.13,2.13,0,0,0,1.54.52,2.76,2.76,0,0,0,.9-.13,7.46,7.46,0,0,0,.89-.35,1.73,1.73,0,0,1,.7-.25ZM244,86.39a1.77,1.77,0,0,0-1.3.51,2.44,2.44,0,0,0-.58,1.48h3.62a2.37,2.37,0,0,0-.48-1.48A1.58,1.58,0,0,0,244,86.39Zm11.68,5.14a.86.86,0,0,1,.29.65.91.91,0,0,1-.27.64.86.86,0,0,1-.64.28.89.89,0,0,1-.69-.34l-2.25-2.5-2.26,2.5a.9.9,0,0,1-.69.32.92.92,0,0,1-.89-.9.88.88,0,0,1,.28-.65L250.88,89l-2.21-2.4a.93.93,0,0,1-.29-.65.94.94,0,0,1,.9-.9,1,1,0,0,1,.69.32l2.13,2.34,2.13-2.34a.94.94,0,0,1,.69-.32.86.86,0,0,1,.63.27.82.82,0,0,1,.26.63.86.86,0,0,1-.29.65l-2.2,2.4Zm5.78.08c.53,0,.8.27.8.72a.65.65,0,0,1-.31.58,1.45,1.45,0,0,1-.89.17l-.43,0a2.59,2.59,0,0,1-2.71-2.44,3.17,3.17,0,0,1,0-.44V86.68h-.8a1,1,0,0,1-.66-.19.77.77,0,0,1,0-1.12,1,1,0,0,1,.66-.19h.8V83.7a.93.93,0,0,1,.27-.69,1.19,1.19,0,0,1,1.46,0,.93.93,0,0,1,.27.69v1.47h1.36a1,1,0,0,1,.66.19.71.71,0,0,1,.24.56.69.69,0,0,1-.24.56,1,1,0,0,1-.66.2h-1.36v3.63c0,.79.36,1.21,1.09,1.26Zm5.39,1.52a4.39,4.39,0,0,1-2.1-.5,3.45,3.45,0,0,1-1.4-1.43,4.89,4.89,0,0,1,0-4.31,3.46,3.46,0,0,1,1.4-1.41,4.66,4.66,0,0,1,4.2,0,3.36,3.36,0,0,1,1.4,1.42,5,5,0,0,1,0,4.31,3.4,3.4,0,0,1-1.39,1.42A4.43,4.43,0,0,1,266.83,93.13Zm0-1.55a1.81,1.81,0,0,0,1.48-.64,3,3,0,0,0,.52-1.89,3,3,0,0,0-.52-1.88,1.76,1.76,0,0,0-1.47-.65,1.79,1.79,0,0,0-1.48.65,3,3,0,0,0-.52,1.88,3,3,0,0,0,.51,1.89A1.81,1.81,0,0,0,266.82,91.58Z"/></g></g></svg>