<svg xmlns="http://www.w3.org/2000/svg" width="340" height="267" viewBox="0 0 340 267">
  <g id="Grupo_18052" data-name="Grupo 18052" transform="translate(-885 -696)">
    <rect id="Rectángulo_8916" data-name="Rectángulo 8916" width="340" height="267" rx="4" transform="translate(885 696)" fill="#f3f6f9"/>
    <g id="Grupo_18038" data-name="Grupo 18038" transform="translate(2 -73)">
      <g id="Grupo_11452" data-name="Grupo 11452" transform="translate(935.931 865.652)">
        <g id="Botón_Primario" data-name="Botón Primario" transform="translate(0.069 0.348)">
          <rect id="Rectángulo_3061" data-name="Rectángulo 3061" width="234" height="58" rx="4" transform="translate(-1)" fill="#ffdb2e"/>
          <path id="Trazado_20222" data-name="Trazado 20222" d="M-90.747-17.847h5.3q3.687,0,5.328,1.074a3.761,3.761,0,0,1,1.642,3.394,4.112,4.112,0,0,1-.806,2.6A3.6,3.6,0,0,1-81.6-9.473v.122a4.605,4.605,0,0,1,2.765,1.4,4.228,4.228,0,0,1,.885,2.826,4.582,4.582,0,0,1-1.678,3.766A7.22,7.22,0,0,1-84.3,0h-6.445Zm2.917,7.373h2.808a4.807,4.807,0,0,0,2.673-.58,2.221,2.221,0,0,0,.842-1.971,1.975,1.975,0,0,0-.909-1.819,5.68,5.68,0,0,0-2.887-.562H-87.83Zm0,2.368v5.652h3.1a4.564,4.564,0,0,0,2.765-.7,2.591,2.591,0,0,0,.934-2.216,2.353,2.353,0,0,0-.952-2.063,5.046,5.046,0,0,0-2.893-.671Zm25.256,1.331a7.369,7.369,0,0,1-1.7,5.164A6.08,6.08,0,0,1-68.994.244,6.473,6.473,0,0,1-72.339-.61a5.641,5.641,0,0,1-2.234-2.454,8.357,8.357,0,0,1-.781-3.711A7.319,7.319,0,0,1-73.669-11.9a6.108,6.108,0,0,1,4.749-1.843,5.948,5.948,0,0,1,4.639,1.886A7.285,7.285,0,0,1-62.573-6.775Zm-9.827,0q0,4.675,3.455,4.675,3.418,0,3.418-4.675,0-4.626-3.442-4.626a2.935,2.935,0,0,0-2.618,1.2A6.088,6.088,0,0,0-72.4-6.775Zm18.152,4.7a6.976,6.976,0,0,0,2.1-.33V-.244A5.791,5.791,0,0,1-53.375.1a8.452,8.452,0,0,1-1.556.14q-4.077,0-4.077-4.3v-7.275h-1.843V-12.6l1.978-1.05L-57.9-16.5h1.77v3h3.845v2.173h-3.845V-4.1a2.027,2.027,0,0,0,.519,1.532A1.891,1.891,0,0,0-54.248-2.075Zm16.772-4.7a7.369,7.369,0,0,1-1.7,5.164A6.08,6.08,0,0,1-43.9.244,6.473,6.473,0,0,1-47.241-.61a5.641,5.641,0,0,1-2.234-2.454,8.357,8.357,0,0,1-.781-3.711A7.319,7.319,0,0,1-48.572-11.9a6.108,6.108,0,0,1,4.749-1.843,5.948,5.948,0,0,1,4.639,1.886A7.285,7.285,0,0,1-37.476-6.775Zm-9.827,0q0,4.675,3.455,4.675,3.418,0,3.418-4.675,0-4.626-3.442-4.626a2.935,2.935,0,0,0-2.618,1.2A6.088,6.088,0,0,0-47.3-6.775Zm1.575-8.374v-.305q.7-.854,1.434-1.9t1.166-1.794h3.333v.256a25.066,25.066,0,0,1-1.9,1.923,26.764,26.764,0,0,1-2.13,1.825ZM-22.3,0h-2.881V-8.3a3.633,3.633,0,0,0-.629-2.332,2.43,2.43,0,0,0-2-.769,3.174,3.174,0,0,0-2.661,1.074,5.931,5.931,0,0,0-.842,3.6V0H-34.18V-13.5h2.246l.4,1.77h.146a3.994,3.994,0,0,1,1.733-1.489,5.809,5.809,0,0,1,2.49-.525q4.858,0,4.858,4.944ZM-4.968.244A4.729,4.729,0,0,1-8.948-1.6h-.171Q-8.948.11-8.948.476v5.53h-2.869V-13.5H-9.5q.1.378.4,1.807h.146a4.494,4.494,0,0,1,4.028-2.051A4.686,4.686,0,0,1-.983-11.914,8.256,8.256,0,0,1,.427-6.775,8.262,8.262,0,0,1-1.007-1.611,4.729,4.729,0,0,1-4.968.244Zm-.7-11.646a2.982,2.982,0,0,0-2.5,1,5.188,5.188,0,0,0-.787,3.2v.427A6.315,6.315,0,0,0-8.167-3.2,2.906,2.906,0,0,0-5.615-2.1,2.59,2.59,0,0,0-3.32-3.32,6.3,6.3,0,0,0-2.515-6.8a6.083,6.083,0,0,0-.8-3.436A2.667,2.667,0,0,0-5.664-11.4ZM9.656.244A6.531,6.531,0,0,1,4.73-1.593a6.974,6.974,0,0,1-1.776-5.06,7.652,7.652,0,0,1,1.648-5.2,5.692,5.692,0,0,1,4.529-1.892,5.563,5.563,0,0,1,4.224,1.624A6.2,6.2,0,0,1,14.9-7.654V-6.1h-9A4.434,4.434,0,0,0,6.97-3.082,3.7,3.7,0,0,0,9.79-2.026a10.41,10.41,0,0,0,2.228-.226A11.677,11.677,0,0,0,14.233-3V-.671a8.808,8.808,0,0,1-2.124.708A13.024,13.024,0,0,1,9.656.244ZM9.131-11.572a2.882,2.882,0,0,0-2.191.867,4.13,4.13,0,0,0-.983,2.527h6.128a3.737,3.737,0,0,0-.806-2.533A2.756,2.756,0,0,0,9.131-11.572Zm14.38,9.521A3.041,3.041,0,0,0,26.1-3.094a5.217,5.217,0,0,0,.787-3.156V-6.7a6.174,6.174,0,0,0-.812-3.6,3.039,3.039,0,0,0-2.618-1.1,2.634,2.634,0,0,0-2.344,1.221,6.357,6.357,0,0,0-.806,3.5Q20.313-2.051,23.511-2.051ZM22.693.244a4.671,4.671,0,0,1-3.918-1.837,8.235,8.235,0,0,1-1.416-5.133,8.241,8.241,0,0,1,1.44-5.157,4.739,4.739,0,0,1,3.967-1.862,5.321,5.321,0,0,1,2.277.47,4.77,4.77,0,0,1,1.8,1.544h.1l.317-1.77h2.38V6.006H26.758V.281q0-.537.049-1.135t.085-.916h-.159A4.422,4.422,0,0,1,22.693.244ZM43.262,0l-.4-1.77h-.146a4.07,4.07,0,0,1-1.7,1.477,5.694,5.694,0,0,1-2.521.537A4.948,4.948,0,0,1,34.827-.977a5.06,5.06,0,0,1-1.208-3.7V-13.5h2.893v8.325a3.612,3.612,0,0,0,.635,2.325,2.423,2.423,0,0,0,1.99.775,3.168,3.168,0,0,0,2.655-1.08,5.953,5.953,0,0,0,.848-3.619V-13.5H45.52V0ZM55.505.244A6.531,6.531,0,0,1,50.58-1.593,6.974,6.974,0,0,1,48.8-6.653a7.652,7.652,0,0,1,1.648-5.2,5.692,5.692,0,0,1,4.529-1.892A5.563,5.563,0,0,1,59.2-12.122a6.2,6.2,0,0,1,1.55,4.468V-6.1h-9A4.434,4.434,0,0,0,52.82-3.082a3.7,3.7,0,0,0,2.82,1.056,10.41,10.41,0,0,0,2.228-.226A11.677,11.677,0,0,0,60.083-3V-.671a8.808,8.808,0,0,1-2.124.708A13.024,13.024,0,0,1,55.505.244ZM54.98-11.572a2.882,2.882,0,0,0-2.191.867,4.13,4.13,0,0,0-.983,2.527h6.128a3.737,3.737,0,0,0-.806-2.533A2.756,2.756,0,0,0,54.98-11.572ZM75.891,0H73.01V-8.3a3.633,3.633,0,0,0-.629-2.332,2.43,2.43,0,0,0-2-.769,3.174,3.174,0,0,0-2.661,1.074,5.931,5.931,0,0,0-.842,3.6V0H64.014V-13.5H66.26l.4,1.77h.146a3.994,3.994,0,0,1,1.733-1.489,5.809,5.809,0,0,1,2.49-.525q4.858,0,4.858,4.944ZM71.838-15.149a2.517,2.517,0,0,1-1.007-.214q-.494-.214-.97-.476t-.928-.476a2.026,2.026,0,0,0-.867-.214q-.989,0-1.331,1.4H65.247a4.339,4.339,0,0,1,.946-2.588,2.624,2.624,0,0,1,2.045-.891,2.588,2.588,0,0,1,1.025.214,10.819,10.819,0,0,1,.977.476q.476.262.922.476a1.987,1.987,0,0,0,.861.214q.964,0,1.294-1.4h1.526a4.427,4.427,0,0,1-.94,2.557A2.594,2.594,0,0,1,71.838-15.149Zm20.02,8.374a7.369,7.369,0,0,1-1.7,5.164A6.08,6.08,0,0,1,85.437.244,6.473,6.473,0,0,1,82.092-.61a5.641,5.641,0,0,1-2.234-2.454,8.357,8.357,0,0,1-.781-3.711A7.319,7.319,0,0,1,80.762-11.9a6.108,6.108,0,0,1,4.749-1.843,5.948,5.948,0,0,1,4.639,1.886A7.285,7.285,0,0,1,91.858-6.775Zm-9.827,0q0,4.675,3.455,4.675Q88.9-2.1,88.9-6.775q0-4.626-3.442-4.626a2.935,2.935,0,0,0-2.618,1.2A6.088,6.088,0,0,0,82.031-6.775Z" transform="translate(116 39)" fill="#38485c"/>
        </g>
      </g>
      <path id="Trazado_20226" data-name="Trazado 20226" d="M6.094,0H4.258V-7.375q0-1.32.063-2.094-.18.188-.441.414T2.125-7.617L1.2-8.781l3.359-2.641H6.094ZM9.867-4.867q0-6.7,5.461-6.7a6.774,6.774,0,0,1,1.453.133v1.531a4.961,4.961,0,0,0-1.375-.172,3.6,3.6,0,0,0-2.758.984,4.78,4.78,0,0,0-1,3.156h.094a2.513,2.513,0,0,1,1.031-.98,3.324,3.324,0,0,1,1.563-.348,3.108,3.108,0,0,1,2.422.953,3.7,3.7,0,0,1,.867,2.586,3.923,3.923,0,0,1-1,2.84A3.622,3.622,0,0,1,13.883.156a3.822,3.822,0,0,1-2.133-.59,3.766,3.766,0,0,1-1.395-1.719A6.817,6.817,0,0,1,9.867-4.867Zm3.984,3.508a1.8,1.8,0,0,0,1.457-.609,2.638,2.638,0,0,0,.512-1.742,2.306,2.306,0,0,0-.48-1.547A1.791,1.791,0,0,0,13.9-5.82a2.381,2.381,0,0,0-1.094.254,2.009,2.009,0,0,0-.789.7,1.629,1.629,0,0,0-.289.9,2.893,2.893,0,0,0,.6,1.855A1.865,1.865,0,0,0,13.852-1.359ZM23.961.156a3.026,3.026,0,0,1-2.547-1.18H21.3Q21.414.07,21.414.3V3.844H19.578V-8.641h1.484q.062.242.258,1.156h.094A2.876,2.876,0,0,1,23.992-8.8a3,3,0,0,1,2.52,1.172,5.284,5.284,0,0,1,.9,3.289,5.288,5.288,0,0,1-.918,3.3A3.026,3.026,0,0,1,23.961.156ZM23.516-7.3a1.908,1.908,0,0,0-1.6.641,3.32,3.32,0,0,0-.5,2.047v.273a4.041,4.041,0,0,0,.5,2.285,1.86,1.86,0,0,0,1.633.707,1.658,1.658,0,0,0,1.469-.781,4.035,4.035,0,0,0,.516-2.227,3.893,3.893,0,0,0-.512-2.2A1.707,1.707,0,0,0,23.516-7.3Zm7.953,2.883-2.9-4.227h2.094l1.969,3.023,1.984-3.023H36.7L33.789-4.414,36.844,0H34.766L32.633-3.234,30.508,0H28.43Zm15.844-7.008L43.063,0H41.328l4.258-11.422ZM57.7,0H55.859V-7.375q0-1.32.063-2.094-.18.188-.441.414T53.727-7.617L52.8-8.781l3.359-2.641H57.7ZM70.586-8.8a4.42,4.42,0,0,1,.914.078l-.18,1.711a3.47,3.47,0,0,0-.812-.094,2.351,2.351,0,0,0-1.785.719,2.6,2.6,0,0,0-.684,1.867V0H66.2V-8.641h1.438l.242,1.523h.094A3.423,3.423,0,0,1,69.1-8.344,2.665,2.665,0,0,1,70.586-8.8ZM76.875.156A4.18,4.18,0,0,1,73.723-1.02a4.463,4.463,0,0,1-1.137-3.238,4.9,4.9,0,0,1,1.055-3.328,3.643,3.643,0,0,1,2.9-1.211,3.561,3.561,0,0,1,2.7,1.039A3.97,3.97,0,0,1,80.234-4.9v.992H74.477a2.838,2.838,0,0,0,.68,1.934,2.367,2.367,0,0,0,1.8.676,6.662,6.662,0,0,0,1.426-.145,7.474,7.474,0,0,0,1.418-.48V-.43a5.637,5.637,0,0,1-1.359.453A8.336,8.336,0,0,1,76.875.156Zm-.336-7.562a1.845,1.845,0,0,0-1.4.555,2.644,2.644,0,0,0-.629,1.617H78.43a2.392,2.392,0,0,0-.516-1.621A1.764,1.764,0,0,0,76.539-7.406ZM89.6,0H87.758V-5.328a2.416,2.416,0,0,0-.375-1.48A1.384,1.384,0,0,0,86.211-7.3a1.787,1.787,0,0,0-1.559.691,4.057,4.057,0,0,0-.5,2.3V0H82.32V-8.641h1.438l.258,1.133h.094a2.394,2.394,0,0,1,1.043-.953,3.363,3.363,0,0,1,1.5-.336A2.628,2.628,0,0,1,89.3-7.437h.125a2.634,2.634,0,0,1,1.078-1A3.422,3.422,0,0,1,92.094-8.8a2.9,2.9,0,0,1,2.254.781,3.46,3.46,0,0,1,.707,2.383V0H93.219V-5.328a2.4,2.4,0,0,0-.379-1.48A1.4,1.4,0,0,0,91.664-7.3a1.822,1.822,0,0,0-1.566.668,3.443,3.443,0,0,0-.5,2.051Z" transform="translate(935 1007)" fill="#9eaab8"/>
      <g id="Grupo_11624" data-name="Grupo 11624" transform="translate(934.931 866)" opacity="0.5">
        <rect id="Rectángulo_3425" data-name="Rectángulo 3425" width="24" height="58" transform="translate(0.069)" fill="#fffbe5"/>
        <path id="Trazado_4669" data-name="Trazado 4669" d="M0,58.166V0" transform="translate(25.026 0.34)" fill="none" stroke="#38485c" stroke-width="1" stroke-dasharray="5 2"/>
        <path id="Trazado_4670" data-name="Trazado 4670" d="M0,58.166V0" transform="translate(0 0.34)" fill="none" stroke="#38485c" stroke-width="1" stroke-dasharray="5 2"/>
      </g>
      <g id="Grupo_11625" data-name="Grupo 11625" transform="translate(1147.915 866)" opacity="0.5">
        <rect id="Rectángulo_3425-2" data-name="Rectángulo 3425" width="19" height="58" transform="translate(0.085)" fill="#fffbe5"/>
        <path id="Trazado_4669-2" data-name="Trazado 4669" d="M0,58.166V0" transform="translate(20.415 0.34)" fill="none" stroke="#38485c" stroke-width="1" stroke-dasharray="5 2"/>
        <path id="Trazado_4670-2" data-name="Trazado 4670" d="M0,58.166V0" transform="translate(0 0.34)" fill="none" stroke="#38485c" stroke-width="1" stroke-dasharray="5 2"/>
      </g>
      <path id="Trazado_20224" data-name="Trazado 20224" d="M-30.953,0h-1.836V-7.375q0-1.32.063-2.094-.18.188-.441.414t-1.754,1.438l-.922-1.164,3.359-2.641h1.531Zm3.773-4.867q0-6.7,5.461-6.7a6.774,6.774,0,0,1,1.453.133v1.531a4.961,4.961,0,0,0-1.375-.172,3.6,3.6,0,0,0-2.758.984,4.78,4.78,0,0,0-1,3.156h.094a2.513,2.513,0,0,1,1.031-.98,3.324,3.324,0,0,1,1.563-.348,3.108,3.108,0,0,1,2.422.953,3.7,3.7,0,0,1,.867,2.586,3.923,3.923,0,0,1-1,2.84A3.622,3.622,0,0,1-23.164.156,3.822,3.822,0,0,1-25.3-.434a3.766,3.766,0,0,1-1.395-1.719A6.817,6.817,0,0,1-27.18-4.867ZM-23.2-1.359a1.8,1.8,0,0,0,1.457-.609,2.638,2.638,0,0,0,.512-1.742,2.306,2.306,0,0,0-.48-1.547,1.791,1.791,0,0,0-1.441-.562,2.381,2.381,0,0,0-1.094.254,2.009,2.009,0,0,0-.789.7,1.629,1.629,0,0,0-.289.9,2.893,2.893,0,0,0,.6,1.855A1.865,1.865,0,0,0-23.2-1.359ZM-13.086.156a3.026,3.026,0,0,1-2.547-1.18h-.109Q-15.633.07-15.633.3V3.844h-1.836V-8.641h1.484q.063.242.258,1.156h.094A2.876,2.876,0,0,1-13.055-8.8a3,3,0,0,1,2.52,1.172,5.284,5.284,0,0,1,.9,3.289,5.288,5.288,0,0,1-.918,3.3A3.026,3.026,0,0,1-13.086.156ZM-13.531-7.3a1.908,1.908,0,0,0-1.6.641,3.32,3.32,0,0,0-.5,2.047v.273a4.041,4.041,0,0,0,.5,2.285,1.86,1.86,0,0,0,1.633.707,1.658,1.658,0,0,0,1.469-.781,4.035,4.035,0,0,0,.516-2.227,3.893,3.893,0,0,0-.512-2.2A1.707,1.707,0,0,0-13.531-7.3Zm7.953,2.883-2.9-4.227h2.094l1.969,3.023L-2.43-8.641H-.352L-3.258-4.414-.2,0H-2.281L-4.414-3.234-6.539,0H-8.617Z" transform="translate(967 853)" fill="#38485c"/>
      <path id="Trazado_20223" data-name="Trazado 20223" d="M-30.953,0h-1.836V-7.375q0-1.32.063-2.094-.18.188-.441.414t-1.754,1.438l-.922-1.164,3.359-2.641h1.531Zm3.773-4.867q0-6.7,5.461-6.7a6.774,6.774,0,0,1,1.453.133v1.531a4.961,4.961,0,0,0-1.375-.172,3.6,3.6,0,0,0-2.758.984,4.78,4.78,0,0,0-1,3.156h.094a2.513,2.513,0,0,1,1.031-.98,3.324,3.324,0,0,1,1.563-.348,3.108,3.108,0,0,1,2.422.953,3.7,3.7,0,0,1,.867,2.586,3.923,3.923,0,0,1-1,2.84A3.622,3.622,0,0,1-23.164.156,3.822,3.822,0,0,1-25.3-.434a3.766,3.766,0,0,1-1.395-1.719A6.817,6.817,0,0,1-27.18-4.867ZM-23.2-1.359a1.8,1.8,0,0,0,1.457-.609,2.638,2.638,0,0,0,.512-1.742,2.306,2.306,0,0,0-.48-1.547,1.791,1.791,0,0,0-1.441-.562,2.381,2.381,0,0,0-1.094.254,2.009,2.009,0,0,0-.789.7,1.629,1.629,0,0,0-.289.9,2.893,2.893,0,0,0,.6,1.855A1.865,1.865,0,0,0-23.2-1.359ZM-13.086.156a3.026,3.026,0,0,1-2.547-1.18h-.109Q-15.633.07-15.633.3V3.844h-1.836V-8.641h1.484q.063.242.258,1.156h.094A2.876,2.876,0,0,1-13.055-8.8a3,3,0,0,1,2.52,1.172,5.284,5.284,0,0,1,.9,3.289,5.288,5.288,0,0,1-.918,3.3A3.026,3.026,0,0,1-13.086.156ZM-13.531-7.3a1.908,1.908,0,0,0-1.6.641,3.32,3.32,0,0,0-.5,2.047v.273a4.041,4.041,0,0,0,.5,2.285,1.86,1.86,0,0,0,1.633.707,1.658,1.658,0,0,0,1.469-.781,4.035,4.035,0,0,0,.516-2.227,3.893,3.893,0,0,0-.512-2.2A1.707,1.707,0,0,0-13.531-7.3Zm7.953,2.883-2.9-4.227h2.094l1.969,3.023L-2.43-8.641H-.352L-3.258-4.414-.2,0H-2.281L-4.414-3.234-6.539,0H-8.617Z" transform="translate(1177 853)" fill="#38485c"/>
      <path id="Trazado_20225" data-name="Trazado 20225" d="M8.75,0,7.328-3.633H2.75L1.344,0H0L4.516-11.469H5.633L10.125,0ZM6.914-4.828,5.586-8.367q-.258-.672-.531-1.648a14.8,14.8,0,0,1-.492,1.648L3.219-4.828ZM17.359,0V-5.539A2.235,2.235,0,0,0,16.883-7.1a1.941,1.941,0,0,0-1.492-.516,2.461,2.461,0,0,0-1.969.727,3.668,3.668,0,0,0-.625,2.4V0H11.5V-8.562h1.055l.211,1.172h.063a2.648,2.648,0,0,1,1.117-.98,3.63,3.63,0,0,1,1.6-.348,3.252,3.252,0,0,1,2.328.746,3.175,3.175,0,0,1,.781,2.387V0Zm7.383.156A3.654,3.654,0,0,1,21.863-.988a4.707,4.707,0,0,1-1.02-3.238,4.853,4.853,0,0,1,1.035-3.32,3.727,3.727,0,0,1,2.949-1.172,5.852,5.852,0,0,1,1.234.133,4.066,4.066,0,0,1,.969.313l-.4,1.1a6.1,6.1,0,0,0-.937-.285,4.186,4.186,0,0,0-.9-.113q-2.609,0-2.609,3.328a3.963,3.963,0,0,0,.637,2.422,2.215,2.215,0,0,0,1.887.844,5.769,5.769,0,0,0,2.2-.461V-.289A4.679,4.679,0,0,1,24.742.156ZM34.8,0V-5.539A2.235,2.235,0,0,0,34.32-7.1a1.941,1.941,0,0,0-1.492-.516,2.445,2.445,0,0,0-1.973.734,3.72,3.72,0,0,0-.621,2.406V0h-1.3V-12.156h1.3v3.68a8.018,8.018,0,0,1-.062,1.1h.078a2.645,2.645,0,0,1,1.09-.973A3.543,3.543,0,0,1,32.953-8.7a3.3,3.3,0,0,1,2.355.746,3.142,3.142,0,0,1,.785,2.371V0ZM46.148-4.289a4.724,4.724,0,0,1-1.055,3.27A3.714,3.714,0,0,1,42.18.156a3.86,3.86,0,0,1-2.039-.539A3.558,3.558,0,0,1,38.766-1.93a5.391,5.391,0,0,1-.484-2.359,4.716,4.716,0,0,1,1.047-3.262,3.7,3.7,0,0,1,2.906-1.168,3.622,3.622,0,0,1,2.855,1.2A4.7,4.7,0,0,1,46.148-4.289Zm-6.523,0a4.064,4.064,0,0,0,.656,2.5,2.278,2.278,0,0,0,1.93.859,2.293,2.293,0,0,0,1.934-.855,4.043,4.043,0,0,0,.66-2.5,3.978,3.978,0,0,0-.66-2.48A2.32,2.32,0,0,0,42.2-7.617a2.283,2.283,0,0,0-1.922.836A4.023,4.023,0,0,0,39.625-4.289ZM54.453,0,51.2-8.562h1.391l1.844,5.078a24.035,24.035,0,0,1,.734,2.313h.063a17.467,17.467,0,0,1,.543-1.715q.457-1.3,2.051-5.676h1.391L55.969,0ZM65.859,0,65.6-1.219h-.062a3.6,3.6,0,0,1-1.277,1.09,3.893,3.893,0,0,1-1.59.285,2.86,2.86,0,0,1-2-.656,2.394,2.394,0,0,1-.723-1.867q0-2.594,4.148-2.719l1.453-.047v-.531a2.171,2.171,0,0,0-.434-1.488,1.783,1.783,0,0,0-1.387-.48,5.65,5.65,0,0,0-2.422.656l-.4-.992A6.094,6.094,0,0,1,62.3-8.508a6.006,6.006,0,0,1,1.512-.2,3.262,3.262,0,0,1,2.27.68,2.837,2.837,0,0,1,.738,2.18V0ZM62.93-.914a2.632,2.632,0,0,0,1.9-.664,2.457,2.457,0,0,0,.691-1.859v-.773l-1.3.055a4.717,4.717,0,0,0-2.23.48,1.449,1.449,0,0,0-.684,1.324,1.336,1.336,0,0,0,.426,1.07A1.767,1.767,0,0,0,62.93-.914ZM73.4-8.719a5.075,5.075,0,0,1,1.023.094l-.18,1.2a4.418,4.418,0,0,0-.937-.117,2.282,2.282,0,0,0-1.777.844,3.077,3.077,0,0,0-.738,2.1V0h-1.3V-8.562h1.07l.148,1.586h.063a3.764,3.764,0,0,1,1.148-1.289A2.585,2.585,0,0,1,73.4-8.719ZM77.32,0h-1.3V-8.562h1.3ZM75.914-10.883a.861.861,0,0,1,.219-.652.764.764,0,0,1,.547-.207.764.764,0,0,1,.539.211.846.846,0,0,1,.227.648.859.859,0,0,1-.227.652.757.757,0,0,1-.539.215.749.749,0,0,1-.547-.215A.877.877,0,0,1,75.914-10.883ZM85.336,0l-.258-1.219h-.062a3.6,3.6,0,0,1-1.277,1.09,3.893,3.893,0,0,1-1.59.285,2.86,2.86,0,0,1-2-.656,2.394,2.394,0,0,1-.723-1.867q0-2.594,4.148-2.719l1.453-.047v-.531A2.171,2.171,0,0,0,84.6-7.152a1.783,1.783,0,0,0-1.387-.48,5.65,5.65,0,0,0-2.422.656l-.4-.992a6.094,6.094,0,0,1,1.387-.539,6.006,6.006,0,0,1,1.512-.2,3.262,3.262,0,0,1,2.27.68,2.837,2.837,0,0,1,.738,2.18V0Zm-2.93-.914a2.632,2.632,0,0,0,1.9-.664A2.457,2.457,0,0,0,85-3.437v-.773l-1.3.055a4.717,4.717,0,0,0-2.23.48,1.449,1.449,0,0,0-.684,1.324,1.336,1.336,0,0,0,.426,1.07A1.767,1.767,0,0,0,82.406-.914ZM92.953-8.7a3.183,3.183,0,0,1,2.621,1.152,5.058,5.058,0,0,1,.934,3.262,5.1,5.1,0,0,1-.941,3.277A3.17,3.17,0,0,1,92.953.156a3.706,3.706,0,0,1-1.527-.309,2.872,2.872,0,0,1-1.16-.949h-.094L89.9,0h-.93V-12.156h1.3V-9.2q0,.992-.062,1.781h.063A3.079,3.079,0,0,1,92.953-8.7Zm-.187,1.086a2.264,2.264,0,0,0-1.914.762,4.3,4.3,0,0,0-.586,2.566,4.285,4.285,0,0,0,.6,2.582A2.288,2.288,0,0,0,92.8-.93,2,2,0,0,0,94.578-1.8a4.477,4.477,0,0,0,.586-2.5A4.3,4.3,0,0,0,94.578-6.8,2.076,2.076,0,0,0,92.766-7.617ZM100.07,0h-1.3V-12.156h1.3Zm6.367.156a3.934,3.934,0,0,1-3-1.156,4.476,4.476,0,0,1-1.1-3.211,4.964,4.964,0,0,1,1.02-3.289A3.387,3.387,0,0,1,106.1-8.719a3.229,3.229,0,0,1,2.547,1.059,4.057,4.057,0,0,1,.938,2.793v.82h-5.9a3.394,3.394,0,0,0,.762,2.289,2.635,2.635,0,0,0,2.035.781,6.9,6.9,0,0,0,2.734-.578V-.4a6.863,6.863,0,0,1-1.3.426A7.31,7.31,0,0,1,106.438.156Zm-.352-7.789a2.118,2.118,0,0,0-1.645.672,3.1,3.1,0,0,0-.723,1.859H108.2a2.851,2.851,0,0,0-.547-1.879A1.925,1.925,0,0,0,106.086-7.633Zm15.391,5.3a2.145,2.145,0,0,1-.891,1.844,4.186,4.186,0,0,1-2.5.648,5.436,5.436,0,0,1-2.656-.539v-1.2a6.424,6.424,0,0,0,1.324.492,5.53,5.53,0,0,0,1.363.18,3.092,3.092,0,0,0,1.563-.324,1.072,1.072,0,0,0,.547-.988,1.073,1.073,0,0,0-.434-.855,6.82,6.82,0,0,0-1.691-.84,9.172,9.172,0,0,1-1.7-.777,2.321,2.321,0,0,1-.75-.754,1.966,1.966,0,0,1-.246-1.008,1.921,1.921,0,0,1,.852-1.652,3.968,3.968,0,0,1,2.336-.605,6.835,6.835,0,0,1,2.7.563L120.836-7.1a6.2,6.2,0,0,0-2.336-.531,2.687,2.687,0,0,0-1.391.289.894.894,0,0,0-.469.8.971.971,0,0,0,.176.586,1.735,1.735,0,0,0,.566.461,12.657,12.657,0,0,0,1.5.633,5.6,5.6,0,0,1,2.059,1.117A1.97,1.97,0,0,1,121.477-2.336ZM127.2.156a3.934,3.934,0,0,1-3-1.156,4.476,4.476,0,0,1-1.1-3.211,4.964,4.964,0,0,1,1.02-3.289,3.387,3.387,0,0,1,2.738-1.219,3.229,3.229,0,0,1,2.547,1.059,4.057,4.057,0,0,1,.938,2.793v.82h-5.9a3.394,3.394,0,0,0,.762,2.289,2.635,2.635,0,0,0,2.035.781,6.9,6.9,0,0,0,2.734-.578V-.4a6.863,6.863,0,0,1-1.3.426A7.31,7.31,0,0,1,127.2.156Zm-.352-7.789a2.118,2.118,0,0,0-1.645.672,3.1,3.1,0,0,0-.723,1.859h4.477a2.851,2.851,0,0,0-.547-1.879A1.925,1.925,0,0,0,126.852-7.633Zm12.719-.93v.82l-1.586.188a2.726,2.726,0,0,1,.391.715,2.728,2.728,0,0,1,.172,1,2.531,2.531,0,0,1-.859,2.008,3.467,3.467,0,0,1-2.359.75,3.929,3.929,0,0,1-.719-.062,1.276,1.276,0,0,0-.828,1.1.56.56,0,0,0,.289.52,2.112,2.112,0,0,0,.992.168h1.516a3.394,3.394,0,0,1,2.137.586,2.036,2.036,0,0,1,.746,1.7A2.431,2.431,0,0,1,138.32,3.1a6.1,6.1,0,0,1-3.328.746,4.547,4.547,0,0,1-2.59-.625,2.018,2.018,0,0,1-.91-1.766,1.983,1.983,0,0,1,.5-1.352A2.546,2.546,0,0,1,133.4-.672a1.357,1.357,0,0,1-.551-.461,1.22,1.22,0,0,1-.223-.727,1.379,1.379,0,0,1,.25-.82,2.628,2.628,0,0,1,.789-.68,2.313,2.313,0,0,1-1.082-.93,2.732,2.732,0,0,1-.418-1.5,2.771,2.771,0,0,1,.844-2.168,3.445,3.445,0,0,1,2.391-.762,4.347,4.347,0,0,1,1.211.156Zm-6.828,10a1.162,1.162,0,0,0,.586,1.055,3.234,3.234,0,0,0,1.68.359,4.687,4.687,0,0,0,2.418-.488,1.5,1.5,0,0,0,.785-1.324,1.048,1.048,0,0,0-.43-.965,3.337,3.337,0,0,0-1.617-.27h-1.555a2.048,2.048,0,0,0-1.375.422A1.507,1.507,0,0,0,132.742,1.438Zm.7-7.258a1.743,1.743,0,0,0,.508,1.359A2.028,2.028,0,0,0,135.367-4a1.654,1.654,0,0,0,1.9-1.844,1.7,1.7,0,0,0-1.922-1.93,1.9,1.9,0,0,0-1.406.492A1.982,1.982,0,0,0,133.445-5.82Zm9.1-2.742v5.555a2.235,2.235,0,0,0,.477,1.563,1.941,1.941,0,0,0,1.492.516,2.435,2.435,0,0,0,1.965-.734,3.7,3.7,0,0,0,.621-2.4v-4.5h1.3V0h-1.07l-.187-1.148h-.07a2.585,2.585,0,0,1-1.105.969,3.716,3.716,0,0,1-1.613.336,3.273,3.273,0,0,1-2.34-.742,3.159,3.159,0,0,1-.777-2.375v-5.6Zm1.359-1.328q.375-.484.809-1.172a13.412,13.412,0,0,0,.684-1.2h1.578v.164a11.549,11.549,0,0,1-1.023,1.25,11.62,11.62,0,0,1-1.18,1.148h-.867ZM157.008,0V-5.539a2.235,2.235,0,0,0-.477-1.562,1.941,1.941,0,0,0-1.492-.516,2.461,2.461,0,0,0-1.969.727,3.668,3.668,0,0,0-.625,2.4V0h-1.3V-8.562H152.2l.211,1.172h.063a2.648,2.648,0,0,1,1.117-.98,3.63,3.63,0,0,1,1.6-.348,3.252,3.252,0,0,1,2.328.746,3.175,3.175,0,0,1,.781,2.387V0Zm11.734.156a3.934,3.934,0,0,1-3-1.156,4.476,4.476,0,0,1-1.1-3.211,4.964,4.964,0,0,1,1.02-3.289,3.387,3.387,0,0,1,2.738-1.219,3.229,3.229,0,0,1,2.547,1.059,4.057,4.057,0,0,1,.938,2.793v.82h-5.9a3.394,3.394,0,0,0,.762,2.289,2.634,2.634,0,0,0,2.035.781,6.9,6.9,0,0,0,2.734-.578V-.4a6.863,6.863,0,0,1-1.3.426A7.31,7.31,0,0,1,168.742.156Zm-.352-7.789a2.118,2.118,0,0,0-1.645.672,3.1,3.1,0,0,0-.723,1.859H170.5a2.851,2.851,0,0,0-.547-1.879A1.925,1.925,0,0,0,168.391-7.633ZM175.4,0h-1.3V-12.156h1.3Zm9.672-.914a4.236,4.236,0,0,0,.664-.051,4.3,4.3,0,0,0,.508-.105v.992a2.371,2.371,0,0,1-.621.168,4.664,4.664,0,0,1-.738.066q-2.484,0-2.484-2.617V-7.555h-1.227V-8.18l1.227-.539.547-1.828h.75v1.984h2.484v1.008H183.7v5.039a1.733,1.733,0,0,0,.367,1.188A1.278,1.278,0,0,0,185.07-.914Zm6.5,1.07a3.934,3.934,0,0,1-3-1.156,4.476,4.476,0,0,1-1.1-3.211A4.964,4.964,0,0,1,188.5-7.5a3.387,3.387,0,0,1,2.738-1.219,3.229,3.229,0,0,1,2.547,1.059,4.057,4.057,0,0,1,.938,2.793v.82h-5.9a3.394,3.394,0,0,0,.762,2.289,2.634,2.634,0,0,0,2.035.781,6.9,6.9,0,0,0,2.734-.578V-.4a6.863,6.863,0,0,1-1.3.426A7.31,7.31,0,0,1,191.57.156Zm-.352-7.789a2.118,2.118,0,0,0-1.645.672,3.1,3.1,0,0,0-.723,1.859h4.477a2.851,2.851,0,0,0-.547-1.879A1.925,1.925,0,0,0,191.219-7.633Zm7.773,3.25-2.977-4.18h1.477l2.258,3.281L202-8.562h1.461l-2.977,4.18L203.617,0h-1.469l-2.4-3.469L197.328,0h-1.469Zm9.086,3.469a4.236,4.236,0,0,0,.664-.051,4.3,4.3,0,0,0,.508-.105v.992a2.371,2.371,0,0,1-.621.168,4.664,4.664,0,0,1-.738.066q-2.484,0-2.484-2.617V-7.555H204.18V-8.18l1.227-.539.547-1.828h.75v1.984h2.484v1.008H206.7v5.039a1.733,1.733,0,0,0,.367,1.188A1.278,1.278,0,0,0,208.078-.914Zm10.273-3.375A4.724,4.724,0,0,1,217.3-1.02,3.714,3.714,0,0,1,214.383.156a3.86,3.86,0,0,1-2.039-.539,3.558,3.558,0,0,1-1.375-1.547,5.391,5.391,0,0,1-.484-2.359,4.716,4.716,0,0,1,1.047-3.262,3.7,3.7,0,0,1,2.906-1.168,3.622,3.622,0,0,1,2.855,1.2A4.7,4.7,0,0,1,218.352-4.289Zm-6.523,0a4.064,4.064,0,0,0,.656,2.5,2.278,2.278,0,0,0,1.93.859,2.293,2.293,0,0,0,1.934-.855,4.043,4.043,0,0,0,.66-2.5,3.978,3.978,0,0,0-.66-2.48,2.32,2.32,0,0,0-1.949-.848,2.283,2.283,0,0,0-1.922.836A4.023,4.023,0,0,0,211.828-4.289Z" transform="translate(935 979)" fill="#38485c"/>
      <g id="Grupo_11626" data-name="Grupo 11626" transform="translate(936 948.802)">
        <line id="Línea_114" data-name="Línea 114" x2="232" transform="translate(0 4.13)" fill="none" stroke="#38485c" stroke-linecap="round" stroke-width="1"/>
        <line id="Línea_115" data-name="Línea 115" y1="4.13" x2="4.13" transform="translate(0)" fill="none" stroke="#38485c" stroke-linecap="round" stroke-width="1"/>
        <line id="Línea_117" data-name="Línea 117" y1="4.13" x2="4.13" transform="translate(232 8.259) rotate(180)" fill="none" stroke="#38485c" stroke-linecap="round" stroke-width="1"/>
        <line id="Línea_116" data-name="Línea 116" x2="4.13" y2="4.13" transform="translate(0 4.13)" fill="none" stroke="#38485c" stroke-linecap="round" stroke-width="1"/>
        <path id="Trazado_4671" data-name="Trazado 4671" d="M0,0,4.13,4.13" transform="translate(232 4.13) rotate(180)" fill="none" stroke="#38485c" stroke-linecap="round" stroke-width="1"/>
      </g>
    </g>
  </g>
</svg>
