<svg xmlns="http://www.w3.org/2000/svg" width="340" height="267" viewBox="0 0 340 267"><defs><style>.a{fill:#f3f6f9;}.b,.e{fill:#38485c;}.b,.c{font-size:16px;}.b,.c,.e{font-family:OpenSans-SemiBold, Open Sans;font-weight:600;}.c{fill:#9eaab8;}.d{fill:#ffdb2e;}.e{font-size:25px;}.f{fill:#fffbe5;}.g{fill:none;stroke:#38485c;stroke-dasharray:2 1;}</style></defs><g transform="translate(-885 -1482)"><rect class="a" width="340" height="267" rx="4" transform="translate(885 1482)"/><g transform="translate(-5)"><text class="b" transform="translate(1206 1599)"><tspan x="-27.914" y="0">4px</tspan></text><text class="b" transform="translate(1206 1645)"><tspan x="-27.914" y="0">4px</tspan></text><text class="c" transform="translate(939 1686)"><tspan x="0" y="0">4px / 0,25rem</tspan></text><g transform="translate(938 1587.243)"><rect class="d" width="232" height="58" rx="4"/><text class="e" transform="translate(116 39)"><tspan x="-91.992" y="0">Botón primario</tspan></text></g><g transform="translate(1155.54 1600.896) rotate(-90)"><rect class="f" width="8.253" height="8.409" transform="translate(14.903 8.331) rotate(90)"/><path class="g" d="M0,15.9V0" transform="translate(14.826 0)"/><path class="g" d="M0,15.9V0" transform="translate(15.896 16.201) rotate(90)"/></g><g transform="translate(1156.26 1631)"><rect class="f" width="8.253" height="8.409" transform="translate(14.903 8.331) rotate(90)"/><path class="g" d="M0,15.9V0" transform="translate(14.826)"/><path class="g" d="M0,15.9V0" transform="translate(15.896 16.201) rotate(90)"/></g></g></g></svg>