<svg xmlns="http://www.w3.org/2000/svg" width="340" height="267" viewBox="0 0 340 267"><defs><style>.a{fill:#f3f6f9;}.b{fill:#ffdb2e;}.c,.h,.i{fill:#38485c;}.c{font-size:25px;}.c,.d,.h{font-family:OpenSans-SemiBold, Open Sans;font-weight:600;}.d{fill:#9eaab8;}.d,.h,.i{font-size:16px;}.e{opacity:0.5;}.f{fill:#fffbe5;}.g,.j{fill:none;stroke:#38485c;}.g{stroke-dasharray:5 2;}.i{font-family:OpenSans-Regular, Open Sans;}.j{stroke-linecap:round;}</style></defs><g transform="translate(-885 -696)"><rect class="a" width="340" height="267" rx="4" transform="translate(885 696)"/><g transform="translate(2 -73)"><g transform="translate(935.931 865.652)"><g transform="translate(0.069 0.348)"><rect class="b" width="232" height="58" rx="4"/><text class="c" transform="translate(116 39)"><tspan x="-91.992" y="0">Botón primario</tspan></text></g></g><text class="d" transform="translate(935 1007)"><tspan x="0" y="0">24px / 1.5 rem</tspan></text><g class="e" transform="translate(935.931 866)"><rect class="f" width="24" height="58" transform="translate(0.069)"/><path class="g" d="M0,58.166V0" transform="translate(25.026 0.34)"/><path class="g" d="M0,58.166V0" transform="translate(0 0.34)"/></g><g class="e" transform="translate(1147.915 866)"><rect class="f" width="19" height="58" transform="translate(0.085)"/><path class="g" d="M0,58.166V0" transform="translate(20.415 0.34)"/><path class="g" d="M0,58.166V0" transform="translate(0 0.34)"/></g><text class="h" transform="translate(967 853)"><tspan x="-37.047" y="0">24px</tspan></text><text class="h" transform="translate(1177 853)"><tspan x="-37.047" y="0">24px</tspan></text><text class="i" transform="translate(935 979)"><tspan x="0" y="0">Ancho variable según el texto</tspan></text><g transform="translate(936 948.802)"><line class="j" x2="232" transform="translate(0 4.13)"/><line class="j" y1="4.13" x2="4.13" transform="translate(0)"/><line class="j" y1="4.13" x2="4.13" transform="translate(232 8.259) rotate(180)"/><line class="j" x2="4.13" y2="4.13" transform="translate(0 4.13)"/><path class="j" d="M0,0,4.13,4.13" transform="translate(232 4.13) rotate(180)"/></g></g></g></svg>