<svg xmlns="http://www.w3.org/2000/svg" width="340" height="267" viewBox="0 0 340 267">
  <g id="Grupo_18072" data-name="Grupo 18072" transform="translate(-885 -2241)">
    <rect id="Rectángulo_8922" data-name="Rectángulo 8922" width="340" height="267" rx="4" transform="translate(885 2241)" fill="#f3f6f9"/>
    <g id="Grupo_18040" data-name="Grupo 18040" transform="translate(-5 759)">
      <path id="Trazado_20232" data-name="Trazado 20232" d="M-19.062-2.492H-20.6V0h-1.789V-2.492h-5.219V-3.906l5.219-7.547H-20.6v7.438h1.539Zm-3.328-1.523V-6.883q0-1.531.078-2.508h-.062a8.862,8.862,0,0,1-.687,1.25L-25.9-4.016Zm9.3,4.172a3.026,3.026,0,0,1-2.547-1.18h-.109Q-15.633.07-15.633.3V3.844h-1.836V-8.641h1.484q.063.242.258,1.156h.094A2.876,2.876,0,0,1-13.055-8.8a3,3,0,0,1,2.52,1.172,5.284,5.284,0,0,1,.9,3.289,5.288,5.288,0,0,1-.918,3.3A3.026,3.026,0,0,1-13.086.156ZM-13.531-7.3a1.908,1.908,0,0,0-1.6.641,3.32,3.32,0,0,0-.5,2.047v.273a4.041,4.041,0,0,0,.5,2.285,1.86,1.86,0,0,0,1.633.707,1.658,1.658,0,0,0,1.469-.781,4.035,4.035,0,0,0,.516-2.227,3.893,3.893,0,0,0-.512-2.2A1.707,1.707,0,0,0-13.531-7.3Zm7.953,2.883-2.9-4.227h2.094l1.969,3.023L-2.43-8.641H-.352L-3.258-4.414-.2,0H-2.281L-4.414-3.234-6.539,0H-8.617Z" transform="translate(1206 1599)" fill="#38485c"/>
      <path id="Trazado_20233" data-name="Trazado 20233" d="M-19.062-2.492H-20.6V0h-1.789V-2.492h-5.219V-3.906l5.219-7.547H-20.6v7.438h1.539Zm-3.328-1.523V-6.883q0-1.531.078-2.508h-.062a8.862,8.862,0,0,1-.687,1.25L-25.9-4.016Zm9.3,4.172a3.026,3.026,0,0,1-2.547-1.18h-.109Q-15.633.07-15.633.3V3.844h-1.836V-8.641h1.484q.063.242.258,1.156h.094A2.876,2.876,0,0,1-13.055-8.8a3,3,0,0,1,2.52,1.172,5.284,5.284,0,0,1,.9,3.289,5.288,5.288,0,0,1-.918,3.3A3.026,3.026,0,0,1-13.086.156ZM-13.531-7.3a1.908,1.908,0,0,0-1.6.641,3.32,3.32,0,0,0-.5,2.047v.273a4.041,4.041,0,0,0,.5,2.285,1.86,1.86,0,0,0,1.633.707,1.658,1.658,0,0,0,1.469-.781,4.035,4.035,0,0,0,.516-2.227,3.893,3.893,0,0,0-.512-2.2A1.707,1.707,0,0,0-13.531-7.3Zm7.953,2.883-2.9-4.227h2.094l1.969,3.023L-2.43-8.641H-.352L-3.258-4.414-.2,0H-2.281L-4.414-3.234-6.539,0H-8.617Z" transform="translate(1206 1645)" fill="#38485c"/>
      <path id="Trazado_20234" data-name="Trazado 20234" d="M8.852-2.492H7.313V0H5.523V-2.492H.3V-3.906l5.219-7.547H7.313v7.438H8.852ZM5.523-4.016V-6.883q0-1.531.078-2.508H5.539a8.862,8.862,0,0,1-.687,1.25L2.016-4.016Zm9.3,4.172a3.026,3.026,0,0,1-2.547-1.18h-.109Q12.281.07,12.281.3V3.844H10.445V-8.641H11.93q.063.242.258,1.156h.094A2.876,2.876,0,0,1,14.859-8.8a3,3,0,0,1,2.52,1.172,5.284,5.284,0,0,1,.9,3.289,5.288,5.288,0,0,1-.918,3.3A3.026,3.026,0,0,1,14.828.156ZM14.383-7.3a1.908,1.908,0,0,0-1.6.641,3.32,3.32,0,0,0-.5,2.047v.273a4.041,4.041,0,0,0,.5,2.285,1.86,1.86,0,0,0,1.633.707,1.658,1.658,0,0,0,1.469-.781A4.035,4.035,0,0,0,16.4-4.352a3.893,3.893,0,0,0-.512-2.2A1.707,1.707,0,0,0,14.383-7.3Zm7.953,2.883-2.9-4.227h2.094L23.5-5.617l1.984-3.023h2.078L24.656-4.414,27.711,0H25.633L23.5-3.234,21.375,0H19.3ZM38.18-11.422,33.93,0H32.2l4.258-11.422ZM50.914-5.711a8.125,8.125,0,0,1-.957,4.422A3.267,3.267,0,0,1,47.031.156a3.243,3.243,0,0,1-2.891-1.492,7.979,7.979,0,0,1-.984-4.375,8.17,8.17,0,0,1,.957-4.457A3.268,3.268,0,0,1,47.031-11.6a3.246,3.246,0,0,1,2.9,1.5A8.039,8.039,0,0,1,50.914-5.711Zm-5.9,0a8.322,8.322,0,0,0,.48,3.336,1.6,1.6,0,0,0,1.535,1,1.615,1.615,0,0,0,1.543-1.016,8.216,8.216,0,0,0,.488-3.32,8.281,8.281,0,0,0-.488-3.324,1.615,1.615,0,0,0-1.543-1.027A1.6,1.6,0,0,0,45.5-9.055,8.383,8.383,0,0,0,45.016-5.711Zm9.8,4.031a26.257,26.257,0,0,1-1.375,3.742H52.094a38.45,38.45,0,0,0,.8-3.922h1.8ZM64.32,0H56.578V-1.391l2.945-2.961a25.053,25.053,0,0,0,1.73-1.895A4.523,4.523,0,0,0,61.875-7.3a2.833,2.833,0,0,0,.2-1.055,1.608,1.608,0,0,0-.465-1.219,1.781,1.781,0,0,0-1.285-.445,3.427,3.427,0,0,0-1.27.242,5.942,5.942,0,0,0-1.418.875l-.992-1.211a6.4,6.4,0,0,1,1.852-1.141,5.42,5.42,0,0,1,1.914-.336,3.766,3.766,0,0,1,2.555.832,2.81,2.81,0,0,1,.961,2.238,3.928,3.928,0,0,1-.277,1.469,5.969,5.969,0,0,1-.852,1.434,19.461,19.461,0,0,1-1.91,2L58.9-1.7v.078H64.32Zm5.266-7.133a3.917,3.917,0,0,1,2.734.914,3.2,3.2,0,0,1,1.008,2.492A3.64,3.64,0,0,1,72.184-.871,4.708,4.708,0,0,1,68.93.156a6.15,6.15,0,0,1-3.008-.617V-2.125a5.515,5.515,0,0,0,1.453.555,6.6,6.6,0,0,0,1.523.2,2.834,2.834,0,0,0,1.891-.555,2.02,2.02,0,0,0,.648-1.625q0-2.047-2.609-2.047a6.839,6.839,0,0,0-.906.074q-.539.074-.945.168l-.82-.484.438-5.578h5.938v1.633h-4.32l-.258,2.828q.273-.047.668-.109A6.3,6.3,0,0,1,69.586-7.133ZM79.836-8.8a4.42,4.42,0,0,1,.914.078l-.18,1.711a3.47,3.47,0,0,0-.812-.094,2.351,2.351,0,0,0-1.785.719,2.6,2.6,0,0,0-.684,1.867V0H75.453V-8.641h1.438l.242,1.523h.094a3.423,3.423,0,0,1,1.121-1.227A2.665,2.665,0,0,1,79.836-8.8ZM86.125.156A4.18,4.18,0,0,1,82.973-1.02a4.463,4.463,0,0,1-1.137-3.238,4.9,4.9,0,0,1,1.055-3.328,3.643,3.643,0,0,1,2.9-1.211,3.561,3.561,0,0,1,2.7,1.039A3.97,3.97,0,0,1,89.484-4.9v.992H83.727a2.838,2.838,0,0,0,.68,1.934,2.367,2.367,0,0,0,1.8.676,6.662,6.662,0,0,0,1.426-.145,7.474,7.474,0,0,0,1.418-.48V-.43A5.637,5.637,0,0,1,87.7.023,8.336,8.336,0,0,1,86.125.156Zm-.336-7.562a1.845,1.845,0,0,0-1.4.555,2.644,2.644,0,0,0-.629,1.617H87.68a2.392,2.392,0,0,0-.516-1.621A1.764,1.764,0,0,0,85.789-7.406ZM98.852,0H97.008V-5.328a2.416,2.416,0,0,0-.375-1.48A1.384,1.384,0,0,0,95.461-7.3a1.787,1.787,0,0,0-1.559.691,4.057,4.057,0,0,0-.5,2.3V0H91.57V-8.641h1.438l.258,1.133h.094A2.394,2.394,0,0,1,94.4-8.461a3.363,3.363,0,0,1,1.5-.336,2.628,2.628,0,0,1,2.641,1.359h.125a2.634,2.634,0,0,1,1.078-1,3.422,3.422,0,0,1,1.594-.359,2.9,2.9,0,0,1,2.254.781,3.46,3.46,0,0,1,.707,2.383V0h-1.836V-5.328a2.4,2.4,0,0,0-.379-1.48,1.4,1.4,0,0,0-1.176-.488,1.822,1.822,0,0,0-1.566.668,3.443,3.443,0,0,0-.5,2.051Z" transform="translate(939 1686)" fill="#9eaab8"/>
      <g id="Botón_Primario" data-name="Botón Primario" transform="translate(938 1587.243)">
        <rect id="Rectángulo_3061" data-name="Rectángulo 3061" width="234" height="58" rx="4" transform="translate(-1)" fill="#ffdb2e"/>
        <path id="Trazado_20231" data-name="Trazado 20231" d="M-90.747-17.847h5.3q3.687,0,5.328,1.074a3.761,3.761,0,0,1,1.642,3.394,4.112,4.112,0,0,1-.806,2.6A3.6,3.6,0,0,1-81.6-9.473v.122a4.605,4.605,0,0,1,2.765,1.4,4.228,4.228,0,0,1,.885,2.826,4.582,4.582,0,0,1-1.678,3.766A7.22,7.22,0,0,1-84.3,0h-6.445Zm2.917,7.373h2.808a4.807,4.807,0,0,0,2.673-.58,2.221,2.221,0,0,0,.842-1.971,1.975,1.975,0,0,0-.909-1.819,5.68,5.68,0,0,0-2.887-.562H-87.83Zm0,2.368v5.652h3.1a4.564,4.564,0,0,0,2.765-.7,2.591,2.591,0,0,0,.934-2.216,2.353,2.353,0,0,0-.952-2.063,5.046,5.046,0,0,0-2.893-.671Zm25.256,1.331a7.369,7.369,0,0,1-1.7,5.164A6.08,6.08,0,0,1-68.994.244,6.473,6.473,0,0,1-72.339-.61a5.641,5.641,0,0,1-2.234-2.454,8.357,8.357,0,0,1-.781-3.711A7.319,7.319,0,0,1-73.669-11.9a6.108,6.108,0,0,1,4.749-1.843,5.948,5.948,0,0,1,4.639,1.886A7.285,7.285,0,0,1-62.573-6.775Zm-9.827,0q0,4.675,3.455,4.675,3.418,0,3.418-4.675,0-4.626-3.442-4.626a2.935,2.935,0,0,0-2.618,1.2A6.088,6.088,0,0,0-72.4-6.775Zm18.152,4.7a6.976,6.976,0,0,0,2.1-.33V-.244A5.791,5.791,0,0,1-53.375.1a8.452,8.452,0,0,1-1.556.14q-4.077,0-4.077-4.3v-7.275h-1.843V-12.6l1.978-1.05L-57.9-16.5h1.77v3h3.845v2.173h-3.845V-4.1a2.027,2.027,0,0,0,.519,1.532A1.891,1.891,0,0,0-54.248-2.075Zm16.772-4.7a7.369,7.369,0,0,1-1.7,5.164A6.08,6.08,0,0,1-43.9.244,6.473,6.473,0,0,1-47.241-.61a5.641,5.641,0,0,1-2.234-2.454,8.357,8.357,0,0,1-.781-3.711A7.319,7.319,0,0,1-48.572-11.9a6.108,6.108,0,0,1,4.749-1.843,5.948,5.948,0,0,1,4.639,1.886A7.285,7.285,0,0,1-37.476-6.775Zm-9.827,0q0,4.675,3.455,4.675,3.418,0,3.418-4.675,0-4.626-3.442-4.626a2.935,2.935,0,0,0-2.618,1.2A6.088,6.088,0,0,0-47.3-6.775Zm1.575-8.374v-.305q.7-.854,1.434-1.9t1.166-1.794h3.333v.256a25.066,25.066,0,0,1-1.9,1.923,26.764,26.764,0,0,1-2.13,1.825ZM-22.3,0h-2.881V-8.3a3.633,3.633,0,0,0-.629-2.332,2.43,2.43,0,0,0-2-.769,3.174,3.174,0,0,0-2.661,1.074,5.931,5.931,0,0,0-.842,3.6V0H-34.18V-13.5h2.246l.4,1.77h.146a3.994,3.994,0,0,1,1.733-1.489,5.809,5.809,0,0,1,2.49-.525q4.858,0,4.858,4.944ZM-4.968.244A4.729,4.729,0,0,1-8.948-1.6h-.171Q-8.948.11-8.948.476v5.53h-2.869V-13.5H-9.5q.1.378.4,1.807h.146a4.494,4.494,0,0,1,4.028-2.051A4.686,4.686,0,0,1-.983-11.914,8.256,8.256,0,0,1,.427-6.775,8.262,8.262,0,0,1-1.007-1.611,4.729,4.729,0,0,1-4.968.244Zm-.7-11.646a2.982,2.982,0,0,0-2.5,1,5.188,5.188,0,0,0-.787,3.2v.427A6.315,6.315,0,0,0-8.167-3.2,2.906,2.906,0,0,0-5.615-2.1,2.59,2.59,0,0,0-3.32-3.32,6.3,6.3,0,0,0-2.515-6.8a6.083,6.083,0,0,0-.8-3.436A2.667,2.667,0,0,0-5.664-11.4ZM9.656.244A6.531,6.531,0,0,1,4.73-1.593a6.974,6.974,0,0,1-1.776-5.06,7.652,7.652,0,0,1,1.648-5.2,5.692,5.692,0,0,1,4.529-1.892,5.563,5.563,0,0,1,4.224,1.624A6.2,6.2,0,0,1,14.9-7.654V-6.1h-9A4.434,4.434,0,0,0,6.97-3.082,3.7,3.7,0,0,0,9.79-2.026a10.41,10.41,0,0,0,2.228-.226A11.677,11.677,0,0,0,14.233-3V-.671a8.808,8.808,0,0,1-2.124.708A13.024,13.024,0,0,1,9.656.244ZM9.131-11.572a2.882,2.882,0,0,0-2.191.867,4.13,4.13,0,0,0-.983,2.527h6.128a3.737,3.737,0,0,0-.806-2.533A2.756,2.756,0,0,0,9.131-11.572Zm14.38,9.521A3.041,3.041,0,0,0,26.1-3.094a5.217,5.217,0,0,0,.787-3.156V-6.7a6.174,6.174,0,0,0-.812-3.6,3.039,3.039,0,0,0-2.618-1.1,2.634,2.634,0,0,0-2.344,1.221,6.357,6.357,0,0,0-.806,3.5Q20.313-2.051,23.511-2.051ZM22.693.244a4.671,4.671,0,0,1-3.918-1.837,8.235,8.235,0,0,1-1.416-5.133,8.241,8.241,0,0,1,1.44-5.157,4.739,4.739,0,0,1,3.967-1.862,5.321,5.321,0,0,1,2.277.47,4.77,4.77,0,0,1,1.8,1.544h.1l.317-1.77h2.38V6.006H26.758V.281q0-.537.049-1.135t.085-.916h-.159A4.422,4.422,0,0,1,22.693.244ZM43.262,0l-.4-1.77h-.146a4.07,4.07,0,0,1-1.7,1.477,5.694,5.694,0,0,1-2.521.537A4.948,4.948,0,0,1,34.827-.977a5.06,5.06,0,0,1-1.208-3.7V-13.5h2.893v8.325a3.612,3.612,0,0,0,.635,2.325,2.423,2.423,0,0,0,1.99.775,3.168,3.168,0,0,0,2.655-1.08,5.953,5.953,0,0,0,.848-3.619V-13.5H45.52V0ZM55.505.244A6.531,6.531,0,0,1,50.58-1.593,6.974,6.974,0,0,1,48.8-6.653a7.652,7.652,0,0,1,1.648-5.2,5.692,5.692,0,0,1,4.529-1.892A5.563,5.563,0,0,1,59.2-12.122a6.2,6.2,0,0,1,1.55,4.468V-6.1h-9A4.434,4.434,0,0,0,52.82-3.082a3.7,3.7,0,0,0,2.82,1.056,10.41,10.41,0,0,0,2.228-.226A11.677,11.677,0,0,0,60.083-3V-.671a8.808,8.808,0,0,1-2.124.708A13.024,13.024,0,0,1,55.505.244ZM54.98-11.572a2.882,2.882,0,0,0-2.191.867,4.13,4.13,0,0,0-.983,2.527h6.128a3.737,3.737,0,0,0-.806-2.533A2.756,2.756,0,0,0,54.98-11.572ZM75.891,0H73.01V-8.3a3.633,3.633,0,0,0-.629-2.332,2.43,2.43,0,0,0-2-.769,3.174,3.174,0,0,0-2.661,1.074,5.931,5.931,0,0,0-.842,3.6V0H64.014V-13.5H66.26l.4,1.77h.146a3.994,3.994,0,0,1,1.733-1.489,5.809,5.809,0,0,1,2.49-.525q4.858,0,4.858,4.944ZM71.838-15.149a2.517,2.517,0,0,1-1.007-.214q-.494-.214-.97-.476t-.928-.476a2.026,2.026,0,0,0-.867-.214q-.989,0-1.331,1.4H65.247a4.339,4.339,0,0,1,.946-2.588,2.624,2.624,0,0,1,2.045-.891,2.588,2.588,0,0,1,1.025.214,10.819,10.819,0,0,1,.977.476q.476.262.922.476a1.987,1.987,0,0,0,.861.214q.964,0,1.294-1.4h1.526a4.427,4.427,0,0,1-.94,2.557A2.594,2.594,0,0,1,71.838-15.149Zm20.02,8.374a7.369,7.369,0,0,1-1.7,5.164A6.08,6.08,0,0,1,85.437.244,6.473,6.473,0,0,1,82.092-.61a5.641,5.641,0,0,1-2.234-2.454,8.357,8.357,0,0,1-.781-3.711A7.319,7.319,0,0,1,80.762-11.9a6.108,6.108,0,0,1,4.749-1.843,5.948,5.948,0,0,1,4.639,1.886A7.285,7.285,0,0,1,91.858-6.775Zm-9.827,0q0,4.675,3.455,4.675Q88.9-2.1,88.9-6.775q0-4.626-3.442-4.626a2.935,2.935,0,0,0-2.618,1.2A6.088,6.088,0,0,0,82.031-6.775Z" transform="translate(116 39)" fill="#38485c"/>
      </g>
      <g id="Grupo_11458" data-name="Grupo 11458" transform="translate(1155.54 1600.896) rotate(-90)">
        <rect id="Rectángulo_3426" data-name="Rectángulo 3426" width="8.253" height="8.409" transform="translate(14.903 8.331) rotate(90)" fill="#fffbe5"/>
        <path id="Trazado_4673" data-name="Trazado 4673" d="M0,15.9V0" transform="translate(14.826 0)" fill="none" stroke="#38485c" stroke-width="1" stroke-dasharray="2 1"/>
        <path id="Trazado_4674" data-name="Trazado 4674" d="M0,15.9V0" transform="translate(15.896 16.201) rotate(90)" fill="none" stroke="#38485c" stroke-width="1" stroke-dasharray="2 1"/>
      </g>
      <g id="Grupo_11457" data-name="Grupo 11457" transform="translate(1156.26 1631)">
        <rect id="Rectángulo_3426-2" data-name="Rectángulo 3426" width="8.253" height="8.409" transform="translate(14.903 8.331) rotate(90)" fill="#fffbe5"/>
        <path id="Trazado_4673-2" data-name="Trazado 4673" d="M0,15.9V0" transform="translate(14.826)" fill="none" stroke="#38485c" stroke-width="1" stroke-dasharray="2 1"/>
        <path id="Trazado_4674-2" data-name="Trazado 4674" d="M0,15.9V0" transform="translate(15.896 16.201) rotate(90)" fill="none" stroke="#38485c" stroke-width="1" stroke-dasharray="2 1"/>
      </g>
    </g>
  </g>
</svg>
