<svg xmlns="http://www.w3.org/2000/svg" viewBox="0 0 712 204"><defs><style>.cls-1{fill:#f3f6f9;}.cls-2{opacity:0.5;}.cls-3{fill:#ffdb2e;}.cls-11,.cls-4,.cls-8{fill:#38485c;}.cls-5{fill:#007bc7;opacity:0.24;}.cls-11,.cls-5,.cls-7,.cls-8{isolation:isolate;}.cls-6{fill:none;stroke:#007bc7;stroke-dasharray:5 2;}.cls-11,.cls-8{font-size:16px;font-family:Nunito-Bold, Nunito;font-weight:700;}.cls-8{letter-spacing:0em;}.cls-9{letter-spacing:-0.01em;}.cls-10,.cls-11{letter-spacing:0em;}</style></defs><g id="Capa_2" data-name="Capa 2"><g id="Capa_1-2" data-name="Capa 1"><g id="Grupo_18079" data-name="Grupo 18079"><path id="Trazado_20240" data-name="Trazado 20240" class="cls-1" d="M4,0H708c2.21,0,4,.57,4,1.28V202.72c0,.71-1.79,1.28-4,1.28H4c-2.21,0-4-.57-4-1.28V1.28C0,.57,1.79,0,4,0Z"/></g><g id="Grupo_18149" data-name="Grupo 18149"><g id="V1-Botón-Primario" class="cls-2"><rect id="Rectángulo_3061" data-name="Rectángulo 3061" class="cls-3" x="120" y="79" width="100" height="48" rx="4"/><path id="Trazado_23810" data-name="Trazado 23810" class="cls-4" d="M145.51,97.15h3.81a7.28,7.28,0,0,1,3.84.77,2.73,2.73,0,0,1,1.18,2.45,2.93,2.93,0,0,1-.58,1.87,2.62,2.62,0,0,1-1.67.94v.09a3.31,3.31,0,0,1,2,1,3.05,3.05,0,0,1,.64,2,3.3,3.3,0,0,1-1.21,2.71,5.17,5.17,0,0,1-3.36,1h-4.64Zm2.1,5.31h2a3.51,3.51,0,0,0,1.93-.42,1.59,1.59,0,0,0,.6-1.42,1.44,1.44,0,0,0-.65-1.31,4.17,4.17,0,0,0-2.08-.4h-1.82Zm0,1.7v4.07h2.23a3.31,3.31,0,0,0,2-.5,1.83,1.83,0,0,0,.67-1.6,1.68,1.68,0,0,0-.68-1.49,3.7,3.7,0,0,0-2.08-.48Zm18.18,1a5.25,5.25,0,0,1-1.22,3.72,4.37,4.37,0,0,1-3.4,1.34,4.76,4.76,0,0,1-2.41-.62,4.06,4.06,0,0,1-1.61-1.77,6.13,6.13,0,0,1-.56-2.67,5.27,5.27,0,0,1,1.22-3.69,4.38,4.38,0,0,1,3.41-1.33,4.29,4.29,0,0,1,3.34,1.36A5.16,5.16,0,0,1,165.79,105.12Zm-7.07,0c0,2.25.83,3.37,2.49,3.37s2.46-1.12,2.46-3.37-.83-3.33-2.48-3.33a2.14,2.14,0,0,0-1.89.86A4.45,4.45,0,0,0,158.72,105.12Zm13.07,3.39a5.54,5.54,0,0,0,1.51-.24v1.55a3.85,3.85,0,0,1-.88.25,6.07,6.07,0,0,1-1.12.11c-2,0-2.94-1-2.94-3.1v-5.24H167v-.91l1.43-.76.7-2h1.28v2.16h2.76v1.56h-2.76V107a1.43,1.43,0,0,0,.37,1.1A1.37,1.37,0,0,0,171.79,108.51Zm12.07-3.39a5.25,5.25,0,0,1-1.22,3.72,4.37,4.37,0,0,1-3.4,1.34,4.76,4.76,0,0,1-2.41-.62,4.06,4.06,0,0,1-1.61-1.77,6.13,6.13,0,0,1-.56-2.67,5.27,5.27,0,0,1,1.22-3.69,4.36,4.36,0,0,1,3.41-1.33,4.29,4.29,0,0,1,3.34,1.36A5.16,5.16,0,0,1,183.86,105.12Zm-7.07,0c0,2.25.83,3.37,2.49,3.37s2.46-1.12,2.46-3.37-.83-3.33-2.48-3.33a2.14,2.14,0,0,0-1.89.86A4.45,4.45,0,0,0,176.79,105.12Zm1.13-6v-.22c.34-.41.68-.86,1-1.37s.63-.93.84-1.29h2.4v.19c-.43.48-.89.94-1.37,1.38s-1,.9-1.53,1.31ZM194.79,110h-2.07v-6a2.66,2.66,0,0,0-.46-1.68,1.76,1.76,0,0,0-1.43-.55,2.29,2.29,0,0,0-1.92.77,4.24,4.24,0,0,0-.61,2.6V110h-2.06v-9.72h1.62l.29,1.27h.1a2.89,2.89,0,0,1,1.25-1.07,4.09,4.09,0,0,1,1.79-.38c2.34,0,3.5,1.19,3.5,3.56Z"/></g><g id="Grupo_18117" data-name="Grupo 18117"><rect id="Rectángulo_3425" data-name="Rectángulo 3425" class="cls-5" x="120" y="78.58" width="100" height="16"/><path id="Trazado_4669" data-name="Trazado 4669" class="cls-6" d="M120,94.51H220"/><path id="Trazado_23809" data-name="Trazado 23809" class="cls-6" d="M120,78.51H220"/></g><g id="Grupo_18145" data-name="Grupo 18145"><rect id="Rectángulo_3425-2" data-name="Rectángulo 3425-2" class="cls-5" x="120" y="110.58" width="100" height="16"/><path id="Trazado_4669-2" data-name="Trazado 4669-2" class="cls-6" d="M120,126.51H220"/><path id="Trazado_23809-2" data-name="Trazado 23809-2" class="cls-6" d="M120,110.51H220"/></g><g id="_16px" data-name=" 16px" class="cls-7"><text class="cls-8" transform="translate(236 92)">16<tspan class="cls-9" x="19.17" y="0">p</tspan><tspan class="cls-10" x="28.61" y="0">x</tspan></text></g><g id="_16px-2" data-name=" 16px-2" class="cls-7"><text class="cls-8" transform="translate(236 124)">16<tspan class="cls-9" x="19.17" y="0">p</tspan><tspan class="cls-10" x="28.61" y="0">x</tspan></text></g></g><g id="Grupo_18148" data-name="Grupo 18148"><g id="V1-Botón-Primario-2" class="cls-2"><rect id="Rectángulo_3061-2" data-name="Rectángulo 3061-2" class="cls-3" x="492" y="78" width="100" height="48" rx="4"/><path id="Trazado_23810-2" data-name="Trazado 23810-2" class="cls-4" d="M517.51,96.15h3.81a7.28,7.28,0,0,1,3.84.77,2.73,2.73,0,0,1,1.18,2.45,2.93,2.93,0,0,1-.58,1.87,2.62,2.62,0,0,1-1.67.94v.09a3.31,3.31,0,0,1,2,1,3.05,3.05,0,0,1,.64,2,3.3,3.3,0,0,1-1.21,2.71,5.17,5.17,0,0,1-3.36,1h-4.64Zm2.1,5.31h2a3.51,3.51,0,0,0,1.93-.42,1.59,1.59,0,0,0,.6-1.42,1.44,1.44,0,0,0-.65-1.31,4.17,4.17,0,0,0-2.08-.4h-1.82Zm0,1.7v4.07h2.23a3.31,3.31,0,0,0,2-.5,1.83,1.83,0,0,0,.67-1.6,1.68,1.68,0,0,0-.68-1.49,3.7,3.7,0,0,0-2.08-.48Zm18.18,1a5.25,5.25,0,0,1-1.22,3.72,4.37,4.37,0,0,1-3.4,1.34,4.76,4.76,0,0,1-2.41-.62,4.06,4.06,0,0,1-1.61-1.77,6.13,6.13,0,0,1-.56-2.67,5.27,5.27,0,0,1,1.22-3.69,4.38,4.38,0,0,1,3.41-1.33,4.29,4.29,0,0,1,3.34,1.36A5.16,5.16,0,0,1,537.79,104.12Zm-7.07,0c0,2.25.83,3.37,2.49,3.37s2.46-1.12,2.46-3.37-.83-3.33-2.48-3.33a2.14,2.14,0,0,0-1.89.86A4.45,4.45,0,0,0,530.72,104.12Zm13.07,3.39a5.54,5.54,0,0,0,1.51-.24v1.55a3.85,3.85,0,0,1-.88.25,6.07,6.07,0,0,1-1.12.11c-2,0-2.94-1-2.94-3.1v-5.24H539v-.91l1.43-.76.7-2h1.28v2.16h2.76v1.56h-2.76V106a1.43,1.43,0,0,0,.37,1.1A1.37,1.37,0,0,0,543.79,107.51Zm12.07-3.39a5.25,5.25,0,0,1-1.22,3.72,4.37,4.37,0,0,1-3.4,1.34,4.76,4.76,0,0,1-2.41-.62,4.06,4.06,0,0,1-1.61-1.77,6.13,6.13,0,0,1-.56-2.67,5.27,5.27,0,0,1,1.22-3.69,4.36,4.36,0,0,1,3.41-1.33,4.29,4.29,0,0,1,3.34,1.36A5.16,5.16,0,0,1,555.86,104.12Zm-7.07,0c0,2.25.83,3.37,2.49,3.37s2.46-1.12,2.46-3.37-.83-3.33-2.48-3.33a2.14,2.14,0,0,0-1.89.86A4.45,4.45,0,0,0,548.79,104.12Zm1.13-6v-.22c.34-.41.68-.86,1-1.37s.63-.93.84-1.29h2.4v.19c-.43.48-.89.94-1.37,1.38s-1,.9-1.53,1.31ZM566.79,109h-2.07v-6a2.66,2.66,0,0,0-.46-1.68,1.76,1.76,0,0,0-1.43-.55,2.29,2.29,0,0,0-1.92.77,4.24,4.24,0,0,0-.61,2.6V109h-2.06V99.28h1.62l.29,1.27h.1a2.89,2.89,0,0,1,1.25-1.07,4.09,4.09,0,0,1,1.79-.38c2.34,0,3.5,1.19,3.5,3.56Z"/></g><g id="Grupo_18146" data-name="Grupo 18146"><rect id="Rectángulo_3425-3" data-name="Rectángulo 3425-3" class="cls-5" x="568.04" y="78" width="23.89" height="48"/><path id="Trazado_4669-3" data-name="Trazado 4669-3" class="cls-6" d="M568.15,78v48"/><path id="Trazado_23809-3" data-name="Trazado 23809-3" class="cls-6" d="M592,78v48"/></g><g id="Grupo_18147" data-name="Grupo 18147"><rect id="Rectángulo_3425-4" data-name="Rectángulo 3425-4" class="cls-5" x="492.07" y="78" width="23.89" height="48"/><path id="Trazado_4669-4" data-name="Trazado 4669-4" class="cls-6" d="M492.19,78v48"/><path id="Trazado_23809-4" data-name="Trazado 23809-4" class="cls-6" d="M516.07,78v48"/></g><g id="_24px" data-name=" 24px" class="cls-7"><text class="cls-11" transform="translate(555 150)">24<tspan class="cls-9" x="19.18" y="0">p</tspan><tspan x="28.62" y="0">x</tspan></text></g><g id="_24px-2" data-name=" 24px-2" class="cls-7"><text class="cls-11" transform="translate(492 64)">24<tspan class="cls-9" x="19.18" y="0">p</tspan><tspan x="28.62" y="0">x</tspan></text></g></g></g></g></svg>