<svg xmlns="http://www.w3.org/2000/svg" width="712" height="341" viewBox="0 0 712 341">
  <g id="Grupo_32416" data-name="Grupo 32416" transform="translate(-513 -4004)">
    <g id="Rectángulo_26434" data-name="Rectángulo 26434" transform="translate(513 4004)" fill="#fff" stroke="#38485c" stroke-width="2">
      <rect width="712" height="341" rx="8" stroke="none"/>
      <rect x="1" y="1" width="710" height="339" rx="7" fill="none"/>
    </g>
    <g id="Grupo_32361" data-name="Grupo 32361" transform="translate(11 551)">
      <g id="Grupo_18048" data-name="Grupo 18048" transform="translate(3 -754.5)">
        <rect id="Rectángulo_4844" data-name="Rectángulo 4844" width="214" height="18" transform="translate(553 4265.5)" fill="#e6ebf0"/>
        <rect id="Rectángulo_4846" data-name="Rectángulo 4846" width="184" height="18" transform="translate(553 4287.5)" fill="#e6ebf0"/>
        <rect id="Rectángulo_4845" data-name="Rectángulo 4845" width="214" height="12" transform="translate(553 4313.5)" fill="#e6ebf0"/>
        <rect id="Rectángulo_4847" data-name="Rectángulo 4847" width="214" height="12" transform="translate(553 4329.5)" fill="#e6ebf0"/>
        <rect id="Rectángulo_4848" data-name="Rectángulo 4848" width="214" height="6" transform="translate(553 4363.5)" fill="#e6ebf0"/>
        <rect id="Rectángulo_4857" data-name="Rectángulo 4857" width="214" height="6" transform="translate(553 4421.5)" fill="#e6ebf0"/>
        <rect id="Rectángulo_4849" data-name="Rectángulo 4849" width="209" height="6" transform="translate(553 4373.5)" fill="#e6ebf0"/>
        <rect id="Rectángulo_4855" data-name="Rectángulo 4855" width="209" height="6" transform="translate(553 4431.5)" fill="#e6ebf0"/>
        <rect id="Rectángulo_4850" data-name="Rectángulo 4850" width="214" height="6" transform="translate(553 4383.5)" fill="#e6ebf0"/>
        <rect id="Rectángulo_4856" data-name="Rectángulo 4856" width="214" height="6" transform="translate(553 4441.5)" fill="#e6ebf0"/>
        <rect id="Rectángulo_4851" data-name="Rectángulo 4851" width="202" height="6" transform="translate(553 4393.5)" fill="#e6ebf0"/>
        <rect id="Rectángulo_4854" data-name="Rectángulo 4854" width="202" height="6" transform="translate(553 4451.5)" fill="#e6ebf0"/>
        <rect id="Rectángulo_4852" data-name="Rectángulo 4852" width="212" height="6" transform="translate(553 4403.5)" fill="#e6ebf0"/>
        <rect id="Rectángulo_4853" data-name="Rectángulo 4853" width="212" height="6" transform="translate(553 4461.5)" fill="#e6ebf0"/>
        <rect id="Rectángulo_3061" data-name="Rectángulo 3061" width="68" height="17" rx="1" transform="translate(553 4483.5)" fill="#ffdb2e"/>
        <rect id="Rectángulo_8946" data-name="Rectángulo 8946" width="68" height="17" rx="1" transform="translate(629 4483.5)" fill="#dfe7f0"/>
        <line id="Línea_156" data-name="Línea 156" y1="234.5" transform="translate(553.5 4266)" fill="none" stroke="#38485c" stroke-width="2" stroke-dasharray="12 8"/>
      </g>
      <g id="Grupo_18049" data-name="Grupo 18049" transform="translate(76 -754.5)">
        <rect id="Rectángulo_4844-2" data-name="Rectángulo 4844" width="214" height="18" transform="translate(815 4265.5)" fill="#e6ebf0"/>
        <rect id="Rectángulo_4846-2" data-name="Rectángulo 4846" width="184" height="18" transform="translate(815 4287.5)" fill="#e6ebf0"/>
        <rect id="Rectángulo_4845-2" data-name="Rectángulo 4845" width="214" height="12" transform="translate(815 4313.5)" fill="#e6ebf0"/>
        <rect id="Rectángulo_4847-2" data-name="Rectángulo 4847" width="214" height="12" transform="translate(815 4329.5)" fill="#e6ebf0"/>
        <rect id="Rectángulo_4848-2" data-name="Rectángulo 4848" width="214" height="6" transform="translate(815 4363.5)" fill="#e6ebf0"/>
        <rect id="Rectángulo_4857-2" data-name="Rectángulo 4857" width="214" height="6" transform="translate(815 4421.5)" fill="#e6ebf0"/>
        <rect id="Rectángulo_4849-2" data-name="Rectángulo 4849" width="209" height="6" transform="translate(815 4373.5)" fill="#e6ebf0"/>
        <rect id="Rectángulo_4855-2" data-name="Rectángulo 4855" width="209" height="6" transform="translate(815 4431.5)" fill="#e6ebf0"/>
        <rect id="Rectángulo_4850-2" data-name="Rectángulo 4850" width="214" height="6" transform="translate(815 4383.5)" fill="#e6ebf0"/>
        <rect id="Rectángulo_4856-2" data-name="Rectángulo 4856" width="214" height="6" transform="translate(815 4441.5)" fill="#e6ebf0"/>
        <rect id="Rectángulo_4851-2" data-name="Rectángulo 4851" width="202" height="6" transform="translate(815 4393.5)" fill="#e6ebf0"/>
        <rect id="Rectángulo_4854-2" data-name="Rectángulo 4854" width="202" height="6" transform="translate(815 4451.5)" fill="#e6ebf0"/>
        <rect id="Rectángulo_4852-2" data-name="Rectángulo 4852" width="212" height="6" transform="translate(815 4403.5)" fill="#e6ebf0"/>
        <rect id="Rectángulo_4853-2" data-name="Rectángulo 4853" width="212" height="6" transform="translate(815 4461.5)" fill="#e6ebf0"/>
        <rect id="Rectángulo_3061-2" data-name="Rectángulo 3061" width="68" height="17" rx="1" transform="translate(888 4483.5)" fill="#ffdb2e"/>
        <line id="Línea_154" data-name="Línea 154" y1="245" transform="translate(955.5 4255.5)" fill="none" stroke="#38485c" stroke-width="2" stroke-dasharray="12 8"/>
        <line id="Línea_155" data-name="Línea 155" y1="245" transform="translate(888.5 4255.5)" fill="none" stroke="#38485c" stroke-width="2" stroke-dasharray="12 8"/>
      </g>
      <g id="Grupo_18142" data-name="Grupo 18142" transform="translate(-391 -389)">
        <path id="Trazado_4658" data-name="Trazado 4658" d="M16,0A16,16,0,1,0,32,16,16.018,16.018,0,0,0,16,0Zm0,0" transform="translate(1181 3997)" fill="#26874a"/>
        <path id="Trazado_4659" data-name="Trazado 4659" d="M156.6,167.6l-8.667,8.667a1.332,1.332,0,0,1-1.885,0l-4.333-4.333a1.333,1.333,0,0,1,1.885-1.885L147,173.443l7.724-7.724A1.333,1.333,0,0,1,156.6,167.6Zm0,0" transform="translate(1048.504 3842.005)" fill="#fafafa"/>
      </g>
      <g id="Grupo_18143" data-name="Grupo 18143" transform="translate(-52 -623)">
        <path id="Trazado_4660" data-name="Trazado 4660" d="M16,0A16,16,0,1,0,32,16,16.018,16.018,0,0,0,16,0Zm0,0" transform="translate(1181 4231)" fill="#c93b3b"/>
        <path id="Trazado_4661" data-name="Trazado 4661" d="M167.646,165.761a1.333,1.333,0,1,1-1.885,1.885l-4.007-4.007-4.007,4.007a1.333,1.333,0,0,1-1.886-1.885l4.007-4.007-4.007-4.007a1.333,1.333,0,0,1,1.886-1.885l4.007,4.007,4.007-4.007a1.333,1.333,0,0,1,1.885,1.885l-4.007,4.007Zm0,0" transform="translate(1035.246 4085.246)" fill="#fff"/>
      </g>
    </g>
  </g>
</svg>
