<svg xmlns="http://www.w3.org/2000/svg" xmlns:xlink="http://www.w3.org/1999/xlink" width="340" height="236" viewBox="0 0 340 236"><defs><style>.a{fill:#f3f6f9;}.b{fill:#fff;}.c{fill:#e6ebf0;}.d{fill:#ffdb2e;}.e{fill:#dfe7f0;}.f{fill:#26874a;}.g{fill:#fafafa;}.h{fill:none;stroke:#38485c;stroke-width:2px;stroke-dasharray:12 8;}.i{filter:url(#a);}</style><filter id="a" x="51" y="53" width="229" height="135" filterUnits="userSpaceOnUse"><feOffset input="SourceAlpha"/><feGaussianBlur stdDeviation="6" result="b"/><feFlood flood-color="#38485c" flood-opacity="0.161"/><feComposite operator="in" in2="b"/><feComposite in="SourceGraphic"/></filter></defs><g transform="translate(-513 -3082)"><rect class="a" width="340" height="236" rx="4" transform="translate(513 3082)"/><g transform="translate(521 -3076)"><g class="i" transform="matrix(1, 0, 0, 1, -8, 6158)"><rect class="b" width="193" height="99" rx="4" transform="translate(69 71)"/></g><rect class="c" width="72" height="8" transform="translate(85 6253)"/><rect class="c" width="145" height="6" transform="translate(85 6265)"/><rect class="c" width="145" height="6" transform="translate(85 6273)"/><g transform="translate(170.48 6291)"><rect class="d" width="60" height="17" rx="1" transform="translate(-0.48)"/></g><g transform="translate(102 6291)"><rect class="e" width="60" height="17" rx="1"/></g></g><g transform="translate(765 3143)"><path class="f" d="M10,0A10,10,0,1,0,20,10,10.011,10.011,0,0,0,10,0Zm0,0" transform="translate(0)"/><path class="g" d="M150.876,166.751l-5.417,5.417a.833.833,0,0,1-1.178,0l-2.708-2.708a.833.833,0,0,1,1.178-1.178l2.119,2.119,4.828-4.827a.833.833,0,0,1,1.178,1.178Zm0,0" transform="translate(-135.808 -158.87)"/></g><line class="h" y1="111" transform="translate(752.5 3147)"/></g></svg>