<svg xmlns="http://www.w3.org/2000/svg" width="712" height="205" viewBox="0 0 712 205">
  <g id="Grupo_21052" data-name="Grupo 21052" transform="translate(-513 -602)">
    <path id="Trazado_20235" data-name="Trazado 20235" d="M4,0H708c2.209,0,4,.727,4,1.624V203.376c0,.9-1.791,1.624-4,1.624H4c-2.209,0-4-.727-4-1.624V1.624C0,.727,1.791,0,4,0Z" transform="translate(513 602)" fill="#f3f6f9"/>
    <g id="Grupo_19590" data-name="Grupo 19590" transform="translate(0 26)">
      <line id="Línea_114" data-name="Línea 114" x2="23.073" transform="translate(1058.033 710.073) rotate(-90)" fill="none" stroke="#38485c" stroke-linecap="round" stroke-width="1"/>
      <path id="Trazado_4671" data-name="Trazado 4671" d="M0,0V3.033" transform="translate(1058.033 687) rotate(90)" fill="none" stroke="#38485c" stroke-linecap="round" stroke-width="1"/>
      <path id="Trazado_20265" data-name="Trazado 20265" d="M0,0V3.033" transform="translate(1058.033 710.286) rotate(90)" fill="none" stroke="#38485c" stroke-linecap="round" stroke-width="1"/>
    </g>
    <g id="Grupo_19588" data-name="Grupo 19588" transform="translate(0 -48.607)">
      <g id="Grupo_19587" data-name="Grupo 19587">
        <line id="Línea_114-2" data-name="Línea 114" x2="17.787" transform="translate(1058.033 743.787) rotate(-90)" fill="none" stroke="#38485c" stroke-linecap="round" stroke-width="1"/>
      </g>
      <path id="Trazado_4671-2" data-name="Trazado 4671" d="M0,0V3.033" transform="translate(1058.033 726) rotate(90)" fill="none" stroke="#38485c" stroke-linecap="round" stroke-width="1"/>
      <path id="Trazado_20265-2" data-name="Trazado 20265" d="M0,0V3.033" transform="translate(1058.033 744) rotate(90)" fill="none" stroke="#38485c" stroke-linecap="round" stroke-width="1"/>
    </g>
    <g id="Grupo_19589" data-name="Grupo 19589" transform="translate(0 1)">
      <line id="Línea_114-3" data-name="Línea 114" x2="17.5" transform="translate(680 652.5) rotate(90)" fill="none" stroke="#38485c" stroke-linecap="round" stroke-width="1"/>
      <path id="Trazado_4671-3" data-name="Trazado 4671" d="M0,0V3.033" transform="translate(680 670) rotate(-90)" fill="none" stroke="#38485c" stroke-linecap="round" stroke-width="1"/>
      <path id="Trazado_20265-3" data-name="Trazado 20265" d="M0,0V3.033" transform="translate(680.001 652.286) rotate(-90)" fill="none" stroke="#38485c" stroke-linecap="round" stroke-width="1"/>
    </g>
    <g id="Grupo_18125" data-name="Grupo 18125" transform="translate(0 26)">
      <line id="Línea_114-4" data-name="Línea 114" x2="22.787" transform="translate(680 687.5) rotate(90)" fill="none" stroke="#38485c" stroke-linecap="round" stroke-width="1"/>
      <path id="Trazado_4671-4" data-name="Trazado 4671" d="M0,0V3.033" transform="translate(680 710.286) rotate(-90)" fill="none" stroke="#38485c" stroke-linecap="round" stroke-width="1"/>
      <path id="Trazado_20265-4" data-name="Trazado 20265" d="M0,0V3.033" transform="translate(680.001 687.286) rotate(-90)" fill="none" stroke="#38485c" stroke-linecap="round" stroke-width="1"/>
    </g>
    <path id="Trazado_20328" data-name="Trazado 20328" d="M-37.44,0a.974.974,0,0,1-.72-.256.951.951,0,0,1-.256-.7v-9.376a1.006,1.006,0,0,1,.28-.744,1.006,1.006,0,0,1,.744-.28,1.027,1.027,0,0,1,.76.28,1.006,1.006,0,0,1,.28.744V-1.7h4.5q.96,0,.96.848t-.96.848Zm11.1-8.016a3.259,3.259,0,0,1,2.424.808,3.383,3.383,0,0,1,.792,2.456v3.9a.9.9,0,0,1-.256.68.969.969,0,0,1-.7.248.936.936,0,0,1-.68-.256.894.894,0,0,1-.264-.672V-1.2a2.088,2.088,0,0,1-.856.976,2.568,2.568,0,0,1-1.352.352,3.139,3.139,0,0,1-1.424-.32,2.533,2.533,0,0,1-1.008-.88,2.224,2.224,0,0,1-.368-1.248,1.977,1.977,0,0,1,.44-1.36A2.644,2.644,0,0,1-28.16-4.4a13.041,13.041,0,0,1,2.736-.224h.4v-.368a1.638,1.638,0,0,0-.336-1.144,1.43,1.43,0,0,0-1.088-.36,3.452,3.452,0,0,0-.944.136q-.48.136-1.136.392a1.6,1.6,0,0,1-.608.208.6.6,0,0,1-.472-.208.791.791,0,0,1-.184-.544.819.819,0,0,1,.136-.472A1.291,1.291,0,0,1-29.2-7.36a5.215,5.215,0,0,1,1.336-.48A6.893,6.893,0,0,1-26.336-8.016Zm-.5,6.7a1.709,1.709,0,0,0,1.3-.536,1.939,1.939,0,0,0,.5-1.384v-.336h-.288a11.038,11.038,0,0,0-1.664.1,1.616,1.616,0,0,0-.848.336.856.856,0,0,0-.256.656,1.085,1.085,0,0,0,.36.84A1.27,1.27,0,0,0-26.832-1.312Zm10.224-6.7a3.309,3.309,0,0,1,1.808.5,3.333,3.333,0,0,1,1.224,1.408,4.845,4.845,0,0,1,.44,2.128,5,5,0,0,1-.44,2.152A3.4,3.4,0,0,1-14.808-.384a3.243,3.243,0,0,1-1.8.512A3.066,3.066,0,0,1-18.12-.24a2.5,2.5,0,0,1-1.016-1.024v.4a.9.9,0,0,1-.272.688,1.008,1.008,0,0,1-.72.256.979.979,0,0,1-.712-.256A.914.914,0,0,1-21.1-.864v-9.568a.868.868,0,0,1,.28-.672,1.037,1.037,0,0,1,.728-.256,1.048,1.048,0,0,1,.72.24.83.83,0,0,1,.272.656v3.776A2.392,2.392,0,0,1-18.1-7.672,3.156,3.156,0,0,1-16.608-8.016Zm-.528,6.592A1.766,1.766,0,0,0-15.664-2.1a2.989,2.989,0,0,0,.528-1.888,2.854,2.854,0,0,0-.52-1.84,1.8,1.8,0,0,0-1.48-.64,1.788,1.788,0,0,0-1.48.648,2.917,2.917,0,0,0-.52,1.864,2.952,2.952,0,0,0,.52,1.872A1.779,1.779,0,0,0-17.136-1.424Zm11.824-.72a.538.538,0,0,1,.44.208.865.865,0,0,1,.168.56A.97.97,0,0,1-5.3-.544a5.349,5.349,0,0,1-1.232.488A5.079,5.079,0,0,1-7.84.128,4.077,4.077,0,0,1-10.832-.96a3.988,3.988,0,0,1-1.1-2.976,4.566,4.566,0,0,1,.48-2.128A3.49,3.49,0,0,1-10.1-7.5a3.829,3.829,0,0,1,1.976-.512,3.546,3.546,0,0,1,1.84.464A3.146,3.146,0,0,1-5.072-6.24a4.353,4.353,0,0,1,.432,2q0,.688-.608.688h-4.72a2.517,2.517,0,0,0,.624,1.624,2.1,2.1,0,0,0,1.536.52,2.913,2.913,0,0,0,.9-.128,8.923,8.923,0,0,0,.888-.352A1.766,1.766,0,0,1-5.312-2.144ZM-8.08-6.608a1.717,1.717,0,0,0-1.3.512,2.417,2.417,0,0,0-.584,1.472h3.616a2.281,2.281,0,0,0-.48-1.48A1.583,1.583,0,0,0-8.08-6.608ZM-2.032.1a1.034,1.034,0,0,1-.712-.248.9.9,0,0,1-.28-.712v-9.552a.876.876,0,0,1,.28-.7,1.055,1.055,0,0,1,.712-.24,1.087,1.087,0,0,1,.72.24.864.864,0,0,1,.288.7V-.864a.888.888,0,0,1-.288.712A1.064,1.064,0,0,1-2.032.1Z" transform="translate(664 667)" fill="#38485c"/>
    <path id="Trazado_20329" data-name="Trazado 20329" d="M-45.792.144a5.628,5.628,0,0,1-2.856-.7,4.68,4.68,0,0,1-1.88-2.016,6.789,6.789,0,0,1-.656-3.072,6.738,6.738,0,0,1,.656-3.064,4.69,4.69,0,0,1,1.88-2.008,5.628,5.628,0,0,1,2.856-.7,6.186,6.186,0,0,1,1.984.312,5.155,5.155,0,0,1,1.648.9.918.918,0,0,1,.288.336,1.041,1.041,0,0,1,.08.432.918.918,0,0,1-.192.592.577.577,0,0,1-.464.24,1.183,1.183,0,0,1-.656-.224,4.744,4.744,0,0,0-1.28-.712,4.08,4.08,0,0,0-1.312-.2,3.075,3.075,0,0,0-2.52,1.04,4.712,4.712,0,0,0-.856,3.056,4.741,4.741,0,0,0,.856,3.072,3.075,3.075,0,0,0,2.52,1.04,3.766,3.766,0,0,0,1.272-.208,6.1,6.1,0,0,0,1.32-.7,2.239,2.239,0,0,1,.32-.16.9.9,0,0,1,.336-.064.577.577,0,0,1,.464.24.918.918,0,0,1,.192.592,1.055,1.055,0,0,1-.08.424.9.9,0,0,1-.288.344,5.155,5.155,0,0,1-1.648.9A6.186,6.186,0,0,1-45.792.144Zm8.848-8.16a3.259,3.259,0,0,1,2.424.808,3.383,3.383,0,0,1,.792,2.456v3.9a.9.9,0,0,1-.256.68.969.969,0,0,1-.7.248.936.936,0,0,1-.68-.256.894.894,0,0,1-.264-.672V-1.2a2.088,2.088,0,0,1-.856.976A2.568,2.568,0,0,1-37.84.128a3.139,3.139,0,0,1-1.424-.32,2.533,2.533,0,0,1-1.008-.88A2.224,2.224,0,0,1-40.64-2.32a1.977,1.977,0,0,1,.44-1.36,2.644,2.644,0,0,1,1.432-.72,13.041,13.041,0,0,1,2.736-.224h.4v-.368a1.638,1.638,0,0,0-.336-1.144,1.43,1.43,0,0,0-1.088-.36A3.452,3.452,0,0,0-38-6.36q-.48.136-1.136.392a1.6,1.6,0,0,1-.608.208.6.6,0,0,1-.472-.208.791.791,0,0,1-.184-.544.819.819,0,0,1,.136-.472,1.291,1.291,0,0,1,.456-.376,5.215,5.215,0,0,1,1.336-.48A6.893,6.893,0,0,1-36.944-8.016Zm-.5,6.7a1.709,1.709,0,0,0,1.3-.536,1.939,1.939,0,0,0,.5-1.384v-.336h-.288a11.038,11.038,0,0,0-1.664.1,1.616,1.616,0,0,0-.848.336.856.856,0,0,0-.256.656,1.085,1.085,0,0,0,.36.84A1.27,1.27,0,0,0-37.44-1.312Zm15.024-6.7a2.493,2.493,0,0,1,1.96.76,3.634,3.634,0,0,1,.68,2.456V-.864a.9.9,0,0,1-.28.712A1.057,1.057,0,0,1-20.784.1,1.034,1.034,0,0,1-21.5-.152a.9.9,0,0,1-.28-.712V-4.8a1.979,1.979,0,0,0-.312-1.256,1.166,1.166,0,0,0-.952-.376,1.567,1.567,0,0,0-1.248.536,2.162,2.162,0,0,0-.464,1.464V-.864a.9.9,0,0,1-.28.712A1.034,1.034,0,0,1-25.744.1a1.064,1.064,0,0,1-.72-.248.888.888,0,0,1-.288-.712V-4.8a1.979,1.979,0,0,0-.312-1.256,1.166,1.166,0,0,0-.952-.376,1.543,1.543,0,0,0-1.24.536,2.187,2.187,0,0,0-.456,1.464V-.864A.888.888,0,0,1-30-.152,1.064,1.064,0,0,1-30.72.1a1.034,1.034,0,0,1-.712-.248.9.9,0,0,1-.28-.712V-7.056a.845.845,0,0,1,.288-.688,1.087,1.087,0,0,1,.72-.24.992.992,0,0,1,.68.232.837.837,0,0,1,.264.664V-6.7a2.508,2.508,0,0,1,.984-.976,2.91,2.91,0,0,1,1.416-.336,2.292,2.292,0,0,1,2.352,1.472,2.644,2.644,0,0,1,1.04-1.072A3.031,3.031,0,0,1-22.416-8.016Zm9.152,0a3.243,3.243,0,0,1,1.8.512,3.4,3.4,0,0,1,1.232,1.448A5,5,0,0,1-9.792-3.9a4.845,4.845,0,0,1-.44,2.128A3.333,3.333,0,0,1-11.456-.368a3.309,3.309,0,0,1-1.808.5,3.1,3.1,0,0,1-1.488-.352A2.47,2.47,0,0,1-15.76-1.2V2.064a.83.83,0,0,1-.272.656,1.048,1.048,0,0,1-.72.24A1.037,1.037,0,0,1-17.48,2.7a.868.868,0,0,1-.28-.672V-7.04a.914.914,0,0,1,.264-.688.979.979,0,0,1,.712-.256,1.008,1.008,0,0,1,.72.256.9.9,0,0,1,.272.688v.4a2.455,2.455,0,0,1,1.016-1.016A3.121,3.121,0,0,1-13.264-8.016Zm-.528,6.592a1.793,1.793,0,0,0,1.472-.648A2.829,2.829,0,0,0-11.792-3.9a2.989,2.989,0,0,0-.528-1.888,1.766,1.766,0,0,0-1.472-.672,1.779,1.779,0,0,0-1.48.656,2.952,2.952,0,0,0-.52,1.872,2.923,2.923,0,0,0,.52,1.856A1.779,1.779,0,0,0-13.792-1.424Zm9.2,1.552a4.3,4.3,0,0,1-2.1-.5A3.432,3.432,0,0,1-8.1-1.792a4.515,4.515,0,0,1-.5-2.16A4.468,4.468,0,0,1-8.1-6.1,3.444,3.444,0,0,1-6.7-7.52a4.3,4.3,0,0,1,2.1-.5,4.3,4.3,0,0,1,2.1.5A3.394,3.394,0,0,1-1.1-6.1,4.527,4.527,0,0,1-.608-3.952,4.575,4.575,0,0,1-1.1-1.792,3.382,3.382,0,0,1-2.488-.368,4.3,4.3,0,0,1-4.592.128Zm-.016-1.552a1.793,1.793,0,0,0,1.488-.64,2.973,2.973,0,0,0,.512-1.888,2.979,2.979,0,0,0-.512-1.88A1.765,1.765,0,0,0-4.592-6.48a1.788,1.788,0,0,0-1.48.648,2.946,2.946,0,0,0-.52,1.88A2.973,2.973,0,0,0-6.08-2.064,1.775,1.775,0,0,0-4.608-1.424Z" transform="translate(664 730)" fill="#38485c"/>
    <path id="Trazado_20331" data-name="Trazado 20331" d="M2.24.1A.99.99,0,0,1,1.5-.192a1.033,1.033,0,0,1-.28-.752v-9.392a1.006,1.006,0,0,1,.28-.744,1.006,1.006,0,0,1,.744-.28,1.027,1.027,0,0,1,.76.28,1.006,1.006,0,0,1,.28.744V-.944A1.033,1.033,0,0,1,3-.192,1.011,1.011,0,0,1,2.24.1ZM2.5-12.224a.568.568,0,0,1-.256.064.494.494,0,0,1-.352-.136.418.418,0,0,1-.144-.312.507.507,0,0,1,.176-.352l1.456-1.5a.928.928,0,0,1,.688-.32.754.754,0,0,1,.552.232.736.736,0,0,1,.232.536.682.682,0,0,1-.136.4,1.141,1.141,0,0,1-.408.336ZM8.992.128a4.146,4.146,0,0,1-2.056-.5A3.381,3.381,0,0,1,5.568-1.776,4.505,4.505,0,0,1,5.088-3.9a4.468,4.468,0,0,1,.5-2.152A3.56,3.56,0,0,1,7.008-7.5a4.208,4.208,0,0,1,2.1-.512,4.665,4.665,0,0,1,1.256.176,4.143,4.143,0,0,1,1.112.48.99.99,0,0,1,.512.848.9.9,0,0,1-.168.568.531.531,0,0,1-.44.216.956.956,0,0,1-.368-.08A3.223,3.223,0,0,1,10.624-6a4.3,4.3,0,0,0-.672-.328,2.088,2.088,0,0,0-.736-.12A1.871,1.871,0,0,0,7.688-5.8a2.855,2.855,0,0,0-.536,1.864,2.827,2.827,0,0,0,.536,1.848,1.871,1.871,0,0,0,1.528.648,1.973,1.973,0,0,0,.712-.12,6.031,6.031,0,0,0,.7-.328A3.168,3.168,0,0,1,11.04-2.1a.923.923,0,0,1,.352-.072.531.531,0,0,1,.432.224.879.879,0,0,1,.176.56.9.9,0,0,1-.12.472,1.081,1.081,0,0,1-.392.36,4.207,4.207,0,0,1-1.152.5A4.953,4.953,0,0,1,8.992.128Zm7.888,0a4.3,4.3,0,0,1-2.1-.5,3.432,3.432,0,0,1-1.4-1.424,4.515,4.515,0,0,1-.5-2.16,4.468,4.468,0,0,1,.5-2.152,3.444,3.444,0,0,1,1.4-1.416,4.3,4.3,0,0,1,2.1-.5,4.3,4.3,0,0,1,2.1.5A3.394,3.394,0,0,1,20.376-6.1a4.527,4.527,0,0,1,.488,2.152,4.575,4.575,0,0,1-.488,2.16A3.382,3.382,0,0,1,18.984-.368,4.3,4.3,0,0,1,16.88.128Zm-.016-1.552a1.793,1.793,0,0,0,1.488-.64,2.973,2.973,0,0,0,.512-1.888,2.979,2.979,0,0,0-.512-1.88A1.765,1.765,0,0,0,16.88-6.48a1.788,1.788,0,0,0-1.48.648,2.946,2.946,0,0,0-.52,1.88,2.973,2.973,0,0,0,.512,1.888A1.775,1.775,0,0,0,16.864-1.424ZM27.04-8.016a2.615,2.615,0,0,1,2.1.8A3.628,3.628,0,0,1,29.824-4.8V-.864a.935.935,0,0,1-.264.7A1,1,0,0,1,28.832.1,1.03,1.03,0,0,1,28.1-.16a.92.92,0,0,1-.272-.7V-4.688a2.074,2.074,0,0,0-.344-1.328,1.322,1.322,0,0,0-1.08-.416,1.826,1.826,0,0,0-1.384.544,2.019,2.019,0,0,0-.52,1.456V-.864a.92.92,0,0,1-.272.7A1.03,1.03,0,0,1,23.488.1,1,1,0,0,1,22.76-.16a.935.935,0,0,1-.264-.7V-7.056a.88.88,0,0,1,.272-.672,1.03,1.03,0,0,1,.736-.256.953.953,0,0,1,.68.248.848.848,0,0,1,.264.648v.432A2.706,2.706,0,0,1,25.52-7.664,3.226,3.226,0,0,1,27.04-8.016ZM35.408.128a4.3,4.3,0,0,1-2.1-.5,3.432,3.432,0,0,1-1.4-1.424,4.515,4.515,0,0,1-.5-2.16A4.468,4.468,0,0,1,31.9-6.1,3.444,3.444,0,0,1,33.3-7.52a4.3,4.3,0,0,1,2.1-.5,4.3,4.3,0,0,1,2.1.5A3.394,3.394,0,0,1,38.9-6.1a4.527,4.527,0,0,1,.488,2.152,4.575,4.575,0,0,1-.488,2.16A3.382,3.382,0,0,1,37.512-.368,4.3,4.3,0,0,1,35.408.128Zm-.016-1.552a1.793,1.793,0,0,0,1.488-.64,2.973,2.973,0,0,0,.512-1.888,2.979,2.979,0,0,0-.512-1.88,1.765,1.765,0,0,0-1.472-.648,1.788,1.788,0,0,0-1.48.648,2.946,2.946,0,0,0-.52,1.88,2.973,2.973,0,0,0,.512,1.888A1.775,1.775,0,0,0,35.392-1.424Z" transform="translate(1074 730)" fill="#38485c"/>
    <path id="Trazado_20330" data-name="Trazado 20330" d="M11.44-1.232a.985.985,0,0,1,.1.416.8.8,0,0,1-.3.624,1.009,1.009,0,0,1-.68.256.909.909,0,0,1-.48-.136A.907.907,0,0,1,9.728-.5L8.768-2.64H3.136L2.176-.5a.907.907,0,0,1-.352.424.937.937,0,0,1-.5.136A1.019,1.019,0,0,1,.656-.192a.787.787,0,0,1-.3-.624.985.985,0,0,1,.1-.416L4.864-10.72a1.032,1.032,0,0,1,.44-.488,1.26,1.26,0,0,1,.632-.168,1.26,1.26,0,0,1,.632.168,1.032,1.032,0,0,1,.44.488ZM3.84-4.24H8.064L5.952-8.992Zm2.352-7.984a.568.568,0,0,1-.256.064.494.494,0,0,1-.352-.136.418.418,0,0,1-.144-.312.507.507,0,0,1,.176-.352l1.456-1.5a.928.928,0,0,1,.688-.32.754.754,0,0,1,.552.232.736.736,0,0,1,.232.536.682.682,0,0,1-.136.4A1.141,1.141,0,0,1,8-13.28Zm11.072,4.24a.861.861,0,0,1,.656.176.781.781,0,0,1,.24.624.872.872,0,0,1-.208.64,1.278,1.278,0,0,1-.752.272l-.48.048a1.944,1.944,0,0,0-1.384.64,2.093,2.093,0,0,0-.44,1.36v3.36a.888.888,0,0,1-.288.712,1.064,1.064,0,0,1-.72.248,1.034,1.034,0,0,1-.712-.248.9.9,0,0,1-.28-.712V-7.056a.856.856,0,0,1,.28-.688,1.032,1.032,0,0,1,.7-.24.962.962,0,0,1,.672.232.85.85,0,0,1,.256.664v.64a2.368,2.368,0,0,1,.9-1.088,2.771,2.771,0,0,1,1.336-.432Zm7.776,5.84a.538.538,0,0,1,.44.208.865.865,0,0,1,.168.56.97.97,0,0,1-.592.832,5.349,5.349,0,0,1-1.232.488,5.079,5.079,0,0,1-1.312.184A4.077,4.077,0,0,1,19.52-.96a3.988,3.988,0,0,1-1.1-2.976,4.566,4.566,0,0,1,.48-2.128A3.49,3.49,0,0,1,20.248-7.5a3.829,3.829,0,0,1,1.976-.512,3.546,3.546,0,0,1,1.84.464A3.146,3.146,0,0,1,25.28-6.24a4.353,4.353,0,0,1,.432,2q0,.688-.608.688h-4.72a2.517,2.517,0,0,0,.624,1.624,2.1,2.1,0,0,0,1.536.52,2.913,2.913,0,0,0,.9-.128,8.923,8.923,0,0,0,.888-.352A1.766,1.766,0,0,1,25.04-2.144ZM22.272-6.608a1.717,1.717,0,0,0-1.3.512,2.417,2.417,0,0,0-.584,1.472H24a2.281,2.281,0,0,0-.48-1.48A1.583,1.583,0,0,0,22.272-6.608ZM30.72-8.016a3.259,3.259,0,0,1,2.424.808,3.383,3.383,0,0,1,.792,2.456v3.9a.9.9,0,0,1-.256.68.969.969,0,0,1-.7.248.936.936,0,0,1-.68-.256.894.894,0,0,1-.264-.672V-1.2a2.088,2.088,0,0,1-.856.976,2.568,2.568,0,0,1-1.352.352A3.139,3.139,0,0,1,28.4-.192a2.533,2.533,0,0,1-1.008-.88,2.224,2.224,0,0,1-.368-1.248,1.977,1.977,0,0,1,.44-1.36A2.644,2.644,0,0,1,28.9-4.4a13.041,13.041,0,0,1,2.736-.224h.4v-.368A1.638,1.638,0,0,0,31.7-6.136a1.43,1.43,0,0,0-1.088-.36,3.452,3.452,0,0,0-.944.136q-.48.136-1.136.392a1.6,1.6,0,0,1-.608.208.6.6,0,0,1-.472-.208.791.791,0,0,1-.184-.544.819.819,0,0,1,.136-.472,1.291,1.291,0,0,1,.456-.376,5.215,5.215,0,0,1,1.336-.48A6.893,6.893,0,0,1,30.72-8.016Zm-.5,6.7a1.709,1.709,0,0,0,1.3-.536,1.939,1.939,0,0,0,.5-1.384v-.336h-.288a11.038,11.038,0,0,0-1.664.1,1.616,1.616,0,0,0-.848.336.856.856,0,0,0-.256.656,1.085,1.085,0,0,0,.36.84A1.27,1.27,0,0,0,30.224-1.312ZM46.8-11.36a1.066,1.066,0,0,1,.736.256.856.856,0,0,1,.288.672V-.864a.9.9,0,0,1-.272.688,1.008,1.008,0,0,1-.72.256,1.008,1.008,0,0,1-.72-.256.9.9,0,0,1-.272-.688v-.4A2.5,2.5,0,0,1,44.824-.24a3.066,3.066,0,0,1-1.512.368,3.243,3.243,0,0,1-1.8-.512A3.4,3.4,0,0,1,40.28-1.832a5,5,0,0,1-.44-2.152,4.845,4.845,0,0,1,.44-2.128A3.333,3.333,0,0,1,41.5-7.52a3.309,3.309,0,0,1,1.808-.5,3.131,3.131,0,0,1,1.5.352,2.442,2.442,0,0,1,1.008.992v-3.792a.848.848,0,0,1,.264-.648A1,1,0,0,1,46.8-11.36ZM43.84-1.424a1.779,1.779,0,0,0,1.48-.656,2.952,2.952,0,0,0,.52-1.872,2.917,2.917,0,0,0-.52-1.864,1.77,1.77,0,0,0-1.464-.648,1.821,1.821,0,0,0-1.488.64,2.823,2.823,0,0,0-.528,1.84A2.989,2.989,0,0,0,42.368-2.1,1.766,1.766,0,0,0,43.84-1.424Zm12.224-.72a.538.538,0,0,1,.44.208.865.865,0,0,1,.168.56.97.97,0,0,1-.592.832,5.349,5.349,0,0,1-1.232.488,5.079,5.079,0,0,1-1.312.184A4.077,4.077,0,0,1,50.544-.96a3.988,3.988,0,0,1-1.1-2.976,4.566,4.566,0,0,1,.48-2.128A3.49,3.49,0,0,1,51.272-7.5a3.829,3.829,0,0,1,1.976-.512,3.546,3.546,0,0,1,1.84.464A3.146,3.146,0,0,1,56.3-6.24a4.354,4.354,0,0,1,.432,2q0,.688-.608.688h-4.72a2.517,2.517,0,0,0,.624,1.624,2.1,2.1,0,0,0,1.536.52,2.913,2.913,0,0,0,.9-.128,8.923,8.923,0,0,0,.888-.352A1.766,1.766,0,0,1,56.064-2.144ZM53.3-6.608a1.717,1.717,0,0,0-1.3.512,2.417,2.417,0,0,0-.584,1.472h3.616a2.281,2.281,0,0,0-.48-1.48A1.583,1.583,0,0,0,53.3-6.608ZM66.064-8.016a3.259,3.259,0,0,1,2.424.808,3.383,3.383,0,0,1,.792,2.456v3.9a.9.9,0,0,1-.256.68.969.969,0,0,1-.7.248.936.936,0,0,1-.68-.256.894.894,0,0,1-.264-.672V-1.2a2.088,2.088,0,0,1-.856.976,2.568,2.568,0,0,1-1.352.352,3.139,3.139,0,0,1-1.424-.32,2.533,2.533,0,0,1-1.008-.88,2.224,2.224,0,0,1-.368-1.248,1.977,1.977,0,0,1,.44-1.36A2.644,2.644,0,0,1,64.24-4.4a13.041,13.041,0,0,1,2.736-.224h.4v-.368a1.638,1.638,0,0,0-.336-1.144,1.43,1.43,0,0,0-1.088-.36,3.452,3.452,0,0,0-.944.136q-.48.136-1.136.392a1.6,1.6,0,0,1-.608.208.6.6,0,0,1-.472-.208.791.791,0,0,1-.184-.544.819.819,0,0,1,.136-.472A1.291,1.291,0,0,1,63.2-7.36a5.215,5.215,0,0,1,1.336-.48A6.893,6.893,0,0,1,66.064-8.016Zm-.5,6.7a1.709,1.709,0,0,0,1.3-.536,1.939,1.939,0,0,0,.5-1.384v-.336h-.288a11.037,11.037,0,0,0-1.664.1,1.615,1.615,0,0,0-.848.336.856.856,0,0,0-.256.656,1.085,1.085,0,0,0,.36.84A1.27,1.27,0,0,0,65.568-1.312Zm11.184-6.1a.926.926,0,0,1,.344-.424.869.869,0,0,1,.472-.136,1.007,1.007,0,0,1,.664.248.772.772,0,0,1,.3.616.823.823,0,0,1-.1.368L74.064,2.416a.893.893,0,0,1-.848.544.986.986,0,0,1-.648-.232.727.727,0,0,1-.28-.584,1.033,1.033,0,0,1,.1-.4L73.472-.544,70.5-6.736a.812.812,0,0,1-.08-.368.78.78,0,0,1,.312-.624,1.091,1.091,0,0,1,.712-.256.937.937,0,0,1,.5.136.907.907,0,0,1,.352.424l2.24,4.944Zm9.12-.576a1.03,1.03,0,0,1,.736.256.9.9,0,0,1,.272.688V-.832a.868.868,0,0,1-.28.672A1.037,1.037,0,0,1,85.872.1a.965.965,0,0,1-.688-.24A.856.856,0,0,1,84.928-.8v-.4a2.549,2.549,0,0,1-.992.984,2.867,2.867,0,0,1-1.408.344q-2.88,0-2.88-3.232V-7.04a.9.9,0,0,1,.272-.688,1.008,1.008,0,0,1,.72-.256,1.03,1.03,0,0,1,.736.256.9.9,0,0,1,.272.688v3.952a1.888,1.888,0,0,0,.336,1.232,1.3,1.3,0,0,0,1.056.4,1.722,1.722,0,0,0,1.336-.552,2.087,2.087,0,0,0,.5-1.464V-7.04a.9.9,0,0,1,.272-.688A1.008,1.008,0,0,1,85.872-7.984Zm9.6-3.376a1.066,1.066,0,0,1,.736.256.856.856,0,0,1,.288.672V-.864a.9.9,0,0,1-.272.688A1.008,1.008,0,0,1,95.5.08a1.008,1.008,0,0,1-.72-.256.9.9,0,0,1-.272-.688v-.4A2.5,2.5,0,0,1,93.5-.24a3.066,3.066,0,0,1-1.512.368,3.243,3.243,0,0,1-1.8-.512,3.4,3.4,0,0,1-1.232-1.448,5,5,0,0,1-.44-2.152,4.845,4.845,0,0,1,.44-2.128A3.333,3.333,0,0,1,90.176-7.52a3.309,3.309,0,0,1,1.808-.5,3.131,3.131,0,0,1,1.5.352,2.442,2.442,0,0,1,1.008.992v-3.792a.848.848,0,0,1,.264-.648A1,1,0,0,1,95.472-11.36Zm-2.96,9.936a1.779,1.779,0,0,0,1.48-.656,2.952,2.952,0,0,0,.52-1.872,2.917,2.917,0,0,0-.52-1.864,1.77,1.77,0,0,0-1.464-.648,1.821,1.821,0,0,0-1.488.64,2.823,2.823,0,0,0-.528,1.84A2.989,2.989,0,0,0,91.04-2.1,1.766,1.766,0,0,0,92.512-1.424Zm9.424-6.592a3.259,3.259,0,0,1,2.424.808,3.383,3.383,0,0,1,.792,2.456v3.9a.9.9,0,0,1-.256.68.969.969,0,0,1-.7.248.936.936,0,0,1-.68-.256.894.894,0,0,1-.264-.672V-1.2a2.088,2.088,0,0,1-.856.976,2.568,2.568,0,0,1-1.352.352,3.139,3.139,0,0,1-1.424-.32,2.533,2.533,0,0,1-1.008-.88A2.224,2.224,0,0,1,98.24-2.32a1.977,1.977,0,0,1,.44-1.36,2.644,2.644,0,0,1,1.432-.72,13.041,13.041,0,0,1,2.736-.224h.4v-.368a1.638,1.638,0,0,0-.336-1.144,1.43,1.43,0,0,0-1.088-.36,3.452,3.452,0,0,0-.944.136q-.48.136-1.136.392a1.6,1.6,0,0,1-.608.208.6.6,0,0,1-.472-.208.791.791,0,0,1-.184-.544.819.819,0,0,1,.136-.472,1.291,1.291,0,0,1,.456-.376,5.215,5.215,0,0,1,1.336-.48A6.893,6.893,0,0,1,101.936-8.016Zm-.5,6.7a1.709,1.709,0,0,0,1.3-.536,1.939,1.939,0,0,0,.5-1.384v-.336h-.288a11.038,11.038,0,0,0-1.664.1,1.615,1.615,0,0,0-.848.336.856.856,0,0,0-.256.656,1.085,1.085,0,0,0,.36.84A1.27,1.27,0,0,0,101.44-1.312Z" transform="translate(1074 691.393)" fill="#38485c"/>
    <g id="Grupo_19419" data-name="Grupo 19419" transform="translate(637 642)">
      <rect id="Rectángulo_6037" data-name="Rectángulo 6037" width="340" height="48" rx="4" transform="translate(62 58)" fill="#fff"/>
    </g>
    <path id="Trazado_27664" data-name="Trazado 27664" d="M8.016,13.961a2.8,2.8,0,0,1-1.094,2.352,4.743,4.743,0,0,1-2.969.844,7.436,7.436,0,0,1-3.125-.523V15.352a8.227,8.227,0,0,0,1.531.469A8.056,8.056,0,0,0,4,15.992a3.31,3.31,0,0,0,2-.5,1.654,1.654,0,0,0,.672-1.4,1.8,1.8,0,0,0-.238-.973,2.214,2.214,0,0,0-.8-.7,11.148,11.148,0,0,0-1.7-.727A5.424,5.424,0,0,1,1.66,10.336,2.984,2.984,0,0,1,.977,8.3a2.536,2.536,0,0,1,.992-2.1,4.123,4.123,0,0,1,2.625-.781,7.736,7.736,0,0,1,3.133.625L7.313,7.2A7.08,7.08,0,0,0,4.563,6.6a2.661,2.661,0,0,0-1.648.453A1.493,1.493,0,0,0,2.32,8.313a1.928,1.928,0,0,0,.219.973,2.06,2.06,0,0,0,.738.7,9.173,9.173,0,0,0,1.59.7A6.294,6.294,0,0,1,7.34,12.055,2.7,2.7,0,0,1,8.016,13.961Zm5.758,3.2a3.934,3.934,0,0,1-3-1.156,4.476,4.476,0,0,1-1.1-3.211A4.964,4.964,0,0,1,10.7,9.5a3.387,3.387,0,0,1,2.738-1.219A3.229,3.229,0,0,1,15.984,9.34a4.057,4.057,0,0,1,.938,2.793v.82h-5.9a3.394,3.394,0,0,0,.762,2.289,2.635,2.635,0,0,0,2.035.781,6.9,6.9,0,0,0,2.734-.578V16.6a6.863,6.863,0,0,1-1.3.426A7.31,7.31,0,0,1,13.773,17.156Zm-.352-7.789a2.118,2.118,0,0,0-1.645.672,3.1,3.1,0,0,0-.723,1.859h4.477a2.851,2.851,0,0,0-.547-1.879A1.925,1.925,0,0,0,13.422,9.367ZM20.43,17h-1.3V4.844h1.3Zm6.367.156A3.934,3.934,0,0,1,23.8,16a4.476,4.476,0,0,1-1.1-3.211A4.964,4.964,0,0,1,23.723,9.5a3.387,3.387,0,0,1,2.738-1.219A3.229,3.229,0,0,1,29.008,9.34a4.057,4.057,0,0,1,.938,2.793v.82h-5.9a3.394,3.394,0,0,0,.762,2.289,2.635,2.635,0,0,0,2.035.781,6.9,6.9,0,0,0,2.734-.578V16.6a6.863,6.863,0,0,1-1.3.426A7.31,7.31,0,0,1,26.8,17.156Zm-.352-7.789a2.118,2.118,0,0,0-1.645.672,3.1,3.1,0,0,0-.723,1.859h4.477a2.851,2.851,0,0,0-.547-1.879A1.925,1.925,0,0,0,26.445,9.367Zm9.133,7.789A3.654,3.654,0,0,1,32.7,16.012a4.707,4.707,0,0,1-1.02-3.238,4.853,4.853,0,0,1,1.035-3.32,3.727,3.727,0,0,1,2.949-1.172,5.852,5.852,0,0,1,1.234.133,4.066,4.066,0,0,1,.969.313l-.4,1.1a6.1,6.1,0,0,0-.937-.285,4.186,4.186,0,0,0-.9-.113q-2.609,0-2.609,3.328a3.963,3.963,0,0,0,.637,2.422,2.215,2.215,0,0,0,1.887.844,5.769,5.769,0,0,0,2.2-.461v1.148A4.679,4.679,0,0,1,35.578,17.156Zm7.617,0a3.654,3.654,0,0,1-2.879-1.145,4.707,4.707,0,0,1-1.02-3.238,4.853,4.853,0,0,1,1.035-3.32,3.727,3.727,0,0,1,2.949-1.172,5.852,5.852,0,0,1,1.234.133,4.066,4.066,0,0,1,.969.313l-.4,1.1a6.1,6.1,0,0,0-.937-.285,4.186,4.186,0,0,0-.9-.113q-2.609,0-2.609,3.328a3.963,3.963,0,0,0,.637,2.422,2.215,2.215,0,0,0,1.887.844,5.769,5.769,0,0,0,2.2-.461v1.148A4.679,4.679,0,0,1,43.2,17.156ZM48.688,17h-1.3V8.438h1.3ZM47.281,6.117a.861.861,0,0,1,.219-.652.81.81,0,0,1,1.086,0,.846.846,0,0,1,.227.648.859.859,0,0,1-.227.652.794.794,0,0,1-1.086,0A.877.877,0,0,1,47.281,6.117Zm11.547,6.594a4.724,4.724,0,0,1-1.055,3.27,3.714,3.714,0,0,1-2.914,1.176,3.86,3.86,0,0,1-2.039-.539,3.558,3.558,0,0,1-1.375-1.547,5.391,5.391,0,0,1-.484-2.359,4.716,4.716,0,0,1,1.047-3.262,3.7,3.7,0,0,1,2.906-1.168,3.622,3.622,0,0,1,2.855,1.2A4.7,4.7,0,0,1,58.828,12.711Zm-6.523,0a4.064,4.064,0,0,0,.656,2.5,2.6,2.6,0,0,0,3.863,0,4.043,4.043,0,0,0,.66-2.5,3.978,3.978,0,0,0-.66-2.48,2.32,2.32,0,0,0-1.949-.848,2.283,2.283,0,0,0-1.922.836A4.023,4.023,0,0,0,52.3,12.711ZM66.961,17V11.461A2.235,2.235,0,0,0,66.484,9.9a1.941,1.941,0,0,0-1.492-.516,2.461,2.461,0,0,0-1.969.727,3.668,3.668,0,0,0-.625,2.4V17H61.1V8.438h1.055l.211,1.172h.063a2.648,2.648,0,0,1,1.117-.98,3.63,3.63,0,0,1,1.6-.348,3.252,3.252,0,0,1,2.328.746,3.175,3.175,0,0,1,.781,2.387V17Zm9.227,0-.258-1.219h-.062a3.6,3.6,0,0,1-1.277,1.09,3.893,3.893,0,0,1-1.59.285,2.86,2.86,0,0,1-2-.656,2.394,2.394,0,0,1-.723-1.867q0-2.594,4.148-2.719l1.453-.047v-.531a2.171,2.171,0,0,0-.434-1.488,1.783,1.783,0,0,0-1.387-.48,5.65,5.65,0,0,0-2.422.656l-.4-.992a6.094,6.094,0,0,1,1.387-.539,6.006,6.006,0,0,1,1.512-.2,3.262,3.262,0,0,1,2.27.68,2.837,2.837,0,0,1,.738,2.18V17Zm-2.93-.914a2.632,2.632,0,0,0,1.9-.664,2.457,2.457,0,0,0,.691-1.859v-.773l-1.3.055a4.717,4.717,0,0,0-2.23.48,1.449,1.449,0,0,0-.684,1.324,1.336,1.336,0,0,0,.426,1.07A1.767,1.767,0,0,0,73.258,16.086Zm10.469-7.8a5.075,5.075,0,0,1,1.023.094l-.18,1.2a4.418,4.418,0,0,0-.937-.117,2.282,2.282,0,0,0-1.777.844,3.077,3.077,0,0,0-.738,2.1V17h-1.3V8.438h1.07l.148,1.586H81.1A3.764,3.764,0,0,1,82.25,8.734,2.585,2.585,0,0,1,83.727,8.281Zm2.438,7.891a1.164,1.164,0,0,1,.238-.793.864.864,0,0,1,.684-.27.924.924,0,0,1,.707.27,1.116,1.116,0,0,1,.254.793,1.1,1.1,0,0,1-.258.781,1.025,1.025,0,0,1-1.363.027A1.07,1.07,0,0,1,86.164,16.172Zm4.141,0a1.164,1.164,0,0,1,.238-.793.864.864,0,0,1,.684-.27.924.924,0,0,1,.707.27,1.116,1.116,0,0,1,.254.793,1.1,1.1,0,0,1-.258.781,1.025,1.025,0,0,1-1.363.027A1.07,1.07,0,0,1,90.3,16.172Zm4.148,0a1.164,1.164,0,0,1,.238-.793.864.864,0,0,1,.684-.27.924.924,0,0,1,.707.27,1.116,1.116,0,0,1,.254.793,1.1,1.1,0,0,1-.258.781,1.025,1.025,0,0,1-1.363.027A1.07,1.07,0,0,1,94.453,16.172Z" transform="translate(715 713)" fill="#8a98a8"/>
    <g id="arrow_drop_down_circle_black_24dp" transform="translate(1005 713)">
      <path id="Trazado_27634" data-name="Trazado 27634" d="M0,0H22V22H0Z" transform="translate(0 0)" fill="none"/>
      <path id="Polígono_4" data-name="Polígono 4" d="M6,0l6,8H0Z" transform="translate(17 16) rotate(180)" fill="#38485c"/>
    </g>
    <path id="Trazado_27665" data-name="Trazado 27665" d="M5.25,5.551A3.034,3.034,0,0,0,2.834,6.57a4.109,4.109,0,0,0-.885,2.79A4.191,4.191,0,0,0,2.8,12.175a3.035,3.035,0,0,0,2.434.993,8.312,8.312,0,0,0,2.215-.349v.946a6.822,6.822,0,0,1-2.38.362,4.027,4.027,0,0,1-3.164-1.244A5.124,5.124,0,0,1,.793,9.347,5.58,5.58,0,0,1,1.33,6.833,3.851,3.851,0,0,1,2.879,5.17a4.688,4.688,0,0,1,2.384-.584,5.751,5.751,0,0,1,2.552.533l-.457.927A4.918,4.918,0,0,0,5.25,5.551ZM13.6,14l-.209-.99h-.051A2.927,2.927,0,0,1,12.3,13.9a3.163,3.163,0,0,1-1.292.232,2.324,2.324,0,0,1-1.622-.533A1.945,1.945,0,0,1,8.8,12.077q0-2.107,3.371-2.209l1.181-.038V9.4A1.764,1.764,0,0,0,13,8.189,1.449,1.449,0,0,0,11.87,7.8,4.591,4.591,0,0,0,9.9,8.332l-.324-.806a4.951,4.951,0,0,1,1.127-.438,4.88,4.88,0,0,1,1.228-.159,2.65,2.65,0,0,1,1.844.552,2.305,2.305,0,0,1,.6,1.771V14Zm-2.38-.743a2.139,2.139,0,0,0,1.546-.54,2,2,0,0,0,.562-1.511v-.628l-1.054.044a3.833,3.833,0,0,0-1.812.39A1.177,1.177,0,0,0,9.9,12.089a1.086,1.086,0,0,0,.346.87A1.436,1.436,0,0,0,11.216,13.257Zm14.2.743V9.474a1.879,1.879,0,0,0-.355-1.247,1.375,1.375,0,0,0-1.1-.416,1.783,1.783,0,0,0-1.454.565,2.685,2.685,0,0,0-.47,1.739V14H20.979V9.474a1.879,1.879,0,0,0-.355-1.247,1.383,1.383,0,0,0-1.111-.416,1.721,1.721,0,0,0-1.45.594,3.212,3.212,0,0,0-.46,1.946V14H16.548V7.043h.857L17.577,8h.051a2.071,2.071,0,0,1,.841-.793,2.57,2.57,0,0,1,1.216-.286A2.067,2.067,0,0,1,21.817,8.1h.051a2.218,2.218,0,0,1,.9-.863,2.8,2.8,0,0,1,1.346-.317,2.356,2.356,0,0,1,1.768.606,2.712,2.712,0,0,1,.587,1.939V14Zm6.462.127a3.011,3.011,0,0,1-1.241-.251,2.334,2.334,0,0,1-.943-.771h-.076a9.332,9.332,0,0,1,.076,1.155v2.863H28.641V7.043H29.5L29.644,8h.051a2.447,2.447,0,0,1,.946-.825,2.875,2.875,0,0,1,1.238-.254,2.571,2.571,0,0,1,2.136.946,4.164,4.164,0,0,1,.752,2.653A4.14,4.14,0,0,1,34,13.178,2.576,2.576,0,0,1,31.878,14.127Zm-.152-6.316a1.867,1.867,0,0,0-1.542.59,3.038,3.038,0,0,0-.489,1.879v.235a3.482,3.482,0,0,0,.489,2.1,1.859,1.859,0,0,0,1.568.632,1.63,1.63,0,0,0,1.412-.73,3.461,3.461,0,0,0,.511-2.012,3.332,3.332,0,0,0-.511-2A1.681,1.681,0,0,0,31.726,7.811Zm10.886,2.7a3.838,3.838,0,0,1-.857,2.656,3.018,3.018,0,0,1-2.368.955,3.136,3.136,0,0,1-1.657-.438,2.891,2.891,0,0,1-1.117-1.257,4.38,4.38,0,0,1-.394-1.917,3.832,3.832,0,0,1,.851-2.65,3.008,3.008,0,0,1,2.361-.949,2.943,2.943,0,0,1,2.32.971A3.821,3.821,0,0,1,42.612,10.515Zm-5.3,0a3.3,3.3,0,0,0,.533,2.031,2.116,2.116,0,0,0,3.139,0,3.285,3.285,0,0,0,.536-2.034A3.232,3.232,0,0,0,40.984,8.5,1.885,1.885,0,0,0,39.4,7.811a1.855,1.855,0,0,0-1.562.679A3.269,3.269,0,0,0,37.312,10.515Zm15.26,2.552h-.057a2.476,2.476,0,0,1-2.184,1.06,2.583,2.583,0,0,1-2.123-.933,4.107,4.107,0,0,1-.759-2.653,4.177,4.177,0,0,1,.762-2.672,2.563,2.563,0,0,1,2.12-.952A2.53,2.53,0,0,1,52.5,7.944h.083l-.044-.5-.025-.489V4.123h1.054V14h-.857Zm-2.107.178a1.918,1.918,0,0,0,1.565-.587,2.967,2.967,0,0,0,.486-1.895v-.222a3.491,3.491,0,0,0-.492-2.111A1.868,1.868,0,0,0,50.451,7.8a1.613,1.613,0,0,0-1.419.72,3.582,3.582,0,0,0-.492,2.034,3.434,3.434,0,0,0,.489,2.012A1.655,1.655,0,0,0,50.464,13.245Zm8.277.882a3.2,3.2,0,0,1-2.434-.939,3.637,3.637,0,0,1-.892-2.609,4.033,4.033,0,0,1,.828-2.672,2.752,2.752,0,0,1,2.225-.99,2.624,2.624,0,0,1,2.069.86,3.3,3.3,0,0,1,.762,2.269v.667H56.507a2.758,2.758,0,0,0,.619,1.86,2.141,2.141,0,0,0,1.654.635A5.6,5.6,0,0,0,61,12.737v.939a5.576,5.576,0,0,1-1.057.346A5.939,5.939,0,0,1,58.741,14.127ZM58.456,7.8a1.721,1.721,0,0,0-1.336.546,2.516,2.516,0,0,0-.587,1.511h3.637a2.317,2.317,0,0,0-.444-1.527A1.564,1.564,0,0,0,58.456,7.8Zm12.3,6.2-.209-.99h-.051a2.928,2.928,0,0,1-1.038.885,3.163,3.163,0,0,1-1.292.232,2.324,2.324,0,0,1-1.622-.533,1.945,1.945,0,0,1-.587-1.517q0-2.107,3.371-2.209L70.5,9.83V9.4a1.764,1.764,0,0,0-.352-1.209,1.449,1.449,0,0,0-1.127-.39,4.591,4.591,0,0,0-1.968.533l-.324-.806a4.952,4.952,0,0,1,1.127-.438,4.88,4.88,0,0,1,1.228-.159,2.65,2.65,0,0,1,1.844.552,2.305,2.305,0,0,1,.6,1.771V14Zm-2.38-.743a2.139,2.139,0,0,0,1.546-.54,2,2,0,0,0,.562-1.511v-.628l-1.054.044a3.833,3.833,0,0,0-1.812.39,1.177,1.177,0,0,0-.555,1.076,1.086,1.086,0,0,0,.346.87A1.436,1.436,0,0,0,68.371,13.257ZM78.19,12.1a1.743,1.743,0,0,1-.724,1.5,3.4,3.4,0,0,1-2.031.527,4.417,4.417,0,0,1-2.158-.438v-.978a5.219,5.219,0,0,0,1.076.4,4.493,4.493,0,0,0,1.108.146,2.512,2.512,0,0,0,1.27-.263.907.907,0,0,0,.092-1.5,5.542,5.542,0,0,0-1.374-.682,7.452,7.452,0,0,1-1.381-.632,1.886,1.886,0,0,1-.609-.613,1.6,1.6,0,0,1-.2-.819,1.561,1.561,0,0,1,.692-1.343,3.224,3.224,0,0,1,1.9-.492,5.553,5.553,0,0,1,2.2.457l-.375.857a5.041,5.041,0,0,0-1.9-.432,2.184,2.184,0,0,0-1.13.235.726.726,0,0,0-.381.647.789.789,0,0,0,.143.476,1.409,1.409,0,0,0,.46.375,10.284,10.284,0,0,0,1.219.514,4.553,4.553,0,0,1,1.673.908A1.6,1.6,0,0,1,78.19,12.1ZM80.958,14H79.9V7.043h1.054ZM79.815,5.158a.7.7,0,0,1,.178-.53.658.658,0,0,1,.882,0,.687.687,0,0,1,.184.527.7.7,0,0,1-.184.53.645.645,0,0,1-.882,0A.713.713,0,0,1,79.815,5.158ZM87.68,12.1a1.743,1.743,0,0,1-.724,1.5,3.4,3.4,0,0,1-2.031.527,4.417,4.417,0,0,1-2.158-.438v-.978a5.219,5.219,0,0,0,1.076.4,4.493,4.493,0,0,0,1.108.146,2.512,2.512,0,0,0,1.27-.263.907.907,0,0,0,.092-1.5,5.542,5.542,0,0,0-1.374-.682,7.452,7.452,0,0,1-1.381-.632,1.886,1.886,0,0,1-.609-.613,1.6,1.6,0,0,1-.2-.819,1.561,1.561,0,0,1,.692-1.343,3.224,3.224,0,0,1,1.9-.492,5.553,5.553,0,0,1,2.2.457l-.375.857a5.041,5.041,0,0,0-1.9-.432,2.184,2.184,0,0,0-1.13.235.726.726,0,0,0-.381.647.789.789,0,0,0,.143.476,1.409,1.409,0,0,0,.46.375,10.284,10.284,0,0,0,1.219.514,4.553,4.553,0,0,1,1.673.908A1.6,1.6,0,0,1,87.68,12.1Zm3.961,1.155a3.442,3.442,0,0,0,.54-.041,3.493,3.493,0,0,0,.413-.086v.806a1.926,1.926,0,0,1-.5.136,3.79,3.79,0,0,1-.6.054q-2.019,0-2.019-2.126V7.862h-1V7.354l1-.438.444-1.485h.609V7.043h2.019v.819H90.524v4.094a1.408,1.408,0,0,0,.3.965A1.038,1.038,0,0,0,91.641,13.257Zm5.281.87a3.2,3.2,0,0,1-2.434-.939,3.637,3.637,0,0,1-.892-2.609,4.033,4.033,0,0,1,.828-2.672,2.752,2.752,0,0,1,2.225-.99,2.624,2.624,0,0,1,2.069.86,3.3,3.3,0,0,1,.762,2.269v.667H94.688a2.758,2.758,0,0,0,.619,1.86,2.141,2.141,0,0,0,1.654.635,5.6,5.6,0,0,0,2.222-.47v.939a5.576,5.576,0,0,1-1.057.346A5.939,5.939,0,0,1,96.922,14.127ZM96.637,7.8a1.721,1.721,0,0,0-1.336.546,2.516,2.516,0,0,0-.587,1.511h3.637a2.317,2.317,0,0,0-.444-1.527A1.564,1.564,0,0,0,96.637,7.8Zm9.4,6.2V9.5a1.816,1.816,0,0,0-.387-1.27,1.577,1.577,0,0,0-1.212-.419,2,2,0,0,0-1.6.59,2.98,2.98,0,0,0-.508,1.949V14h-1.054V7.043h.857l.171.952h.051a2.152,2.152,0,0,1,.908-.8,2.949,2.949,0,0,1,1.3-.282,2.643,2.643,0,0,1,1.892.606,2.58,2.58,0,0,1,.635,1.939V14Zm6,.127a2.969,2.969,0,0,1-2.339-.93,3.824,3.824,0,0,1-.828-2.631,3.943,3.943,0,0,1,.841-2.7,3.028,3.028,0,0,1,2.4-.952,4.755,4.755,0,0,1,1,.108,3.3,3.3,0,0,1,.787.254l-.324.9a4.955,4.955,0,0,0-.762-.232,3.4,3.4,0,0,0-.73-.092q-2.12,0-2.12,2.7a3.22,3.22,0,0,0,.517,1.968,1.8,1.8,0,0,0,1.533.686,4.687,4.687,0,0,0,1.784-.375v.933A3.8,3.8,0,0,1,112.036,14.127ZM116.5,14h-1.054V7.043H116.5Zm-1.143-8.842a.7.7,0,0,1,.178-.53.658.658,0,0,1,.882,0,.687.687,0,0,1,.184.527.7.7,0,0,1-.184.53.645.645,0,0,1-.882,0A.713.713,0,0,1,115.356,5.158ZM123.011,14l-.209-.99h-.051a2.928,2.928,0,0,1-1.038.885,3.163,3.163,0,0,1-1.292.232,2.324,2.324,0,0,1-1.622-.533,1.945,1.945,0,0,1-.587-1.517q0-2.107,3.371-2.209l1.181-.038V9.4a1.764,1.764,0,0,0-.352-1.209,1.449,1.449,0,0,0-1.127-.39,4.591,4.591,0,0,0-1.968.533l-.324-.806a4.952,4.952,0,0,1,1.127-.438,4.88,4.88,0,0,1,1.228-.159,2.65,2.65,0,0,1,1.844.552,2.305,2.305,0,0,1,.6,1.771V14Zm-2.38-.743a2.139,2.139,0,0,0,1.546-.54,2,2,0,0,0,.562-1.511v-.628l-1.054.044a3.833,3.833,0,0,0-1.812.39,1.177,1.177,0,0,0-.555,1.076,1.086,1.086,0,0,0,.346.87A1.436,1.436,0,0,0,120.631,13.257Z" transform="translate(699 678)" fill="#505e70"/>
    <path id="Trazado_27666" data-name="Trazado 27666" d="M10.4,4.93a.786.786,0,0,1,.6.246.9.9,0,0,1,.23.638V16.2a.88.88,0,0,1-.238.637.813.813,0,0,1-.612.247.78.78,0,0,1-.68-.34L3.043,7.956V16.2a.9.9,0,0,1-.23.637.786.786,0,0,1-.6.247.773.773,0,0,1-.6-.238.912.912,0,0,1-.221-.646V5.814a.88.88,0,0,1,.238-.638.813.813,0,0,1,.612-.246.78.78,0,0,1,.68.34l6.664,8.806V5.814a.919.919,0,0,1,.221-.638A.759.759,0,0,1,10.4,4.93Zm7,12.189a4.274,4.274,0,0,1-2.151-.527,3.556,3.556,0,0,1-1.428-1.5,4.906,4.906,0,0,1-.5-2.269,4.945,4.945,0,0,1,.5-2.286,3.556,3.556,0,0,1,1.428-1.5A4.274,4.274,0,0,1,17.408,8.5a4.274,4.274,0,0,1,2.15.527,3.556,3.556,0,0,1,1.428,1.5,4.945,4.945,0,0,1,.5,2.286,4.906,4.906,0,0,1-.5,2.269,3.556,3.556,0,0,1-1.428,1.5A4.274,4.274,0,0,1,17.408,17.119Zm0-1.36a2.108,2.108,0,0,0,1.743-.748,3.429,3.429,0,0,0,.6-2.193,3.4,3.4,0,0,0-.612-2.184,2.1,2.1,0,0,0-1.734-.757,2.1,2.1,0,0,0-1.734.757,3.4,3.4,0,0,0-.612,2.184,3.429,3.429,0,0,0,.6,2.193A2.108,2.108,0,0,0,17.408,15.759ZM32.9,8.5q2.788,0,2.788,3.349v4.42a.767.767,0,0,1-.238.6.909.909,0,0,1-.629.212.884.884,0,0,1-.612-.212.767.767,0,0,1-.238-.6v-4.4a2.414,2.414,0,0,0-.374-1.5,1.412,1.412,0,0,0-1.173-.468,1.843,1.843,0,0,0-1.479.638,2.6,2.6,0,0,0-.544,1.743v3.995a.767.767,0,0,1-.238.6.909.909,0,0,1-.629.212.884.884,0,0,1-.612-.212.767.767,0,0,1-.238-.6v-4.4a2.414,2.414,0,0,0-.374-1.5,1.412,1.412,0,0,0-1.173-.468,1.868,1.868,0,0,0-1.488.638,2.571,2.571,0,0,0-.552,1.743v3.995a.767.767,0,0,1-.238.6.884.884,0,0,1-.612.212.917.917,0,0,1-.62-.212.754.754,0,0,1-.247-.6V9.35a.747.747,0,0,1,.255-.6.9.9,0,0,1,.612-.221.829.829,0,0,1,.587.212.76.76,0,0,1,.229.587v.629a2.6,2.6,0,0,1,1.037-1.088,3.06,3.06,0,0,1,1.53-.374,2.9,2.9,0,0,1,1.572.391,2.336,2.336,0,0,1,.927,1.207,2.836,2.836,0,0,1,1.1-1.164A3.2,3.2,0,0,1,32.9,8.5Zm9.571,0a3.432,3.432,0,0,1,3.222,2.023,5.148,5.148,0,0,1,.467,2.261,5.218,5.218,0,0,1-.467,2.261,3.617,3.617,0,0,1-1.309,1.53,3.445,3.445,0,0,1-1.912.544,3.32,3.32,0,0,1-1.649-.4,2.631,2.631,0,0,1-1.088-1.147v.68a.816.816,0,0,1-.229.6.838.838,0,0,1-.621.229.868.868,0,0,1-.629-.229.8.8,0,0,1-.238-.6V5.746a.759.759,0,0,1,.247-.6A.919.919,0,0,1,38.9,4.93a.853.853,0,0,1,.6.212.739.739,0,0,1,.229.57v4.352a2.682,2.682,0,0,1,1.088-1.156A3.265,3.265,0,0,1,42.466,8.5Zm-.408,7.259a2.079,2.079,0,0,0,1.726-.782,3.447,3.447,0,0,0,.62-2.193,3.34,3.34,0,0,0-.612-2.151,2.1,2.1,0,0,0-1.734-.757,2.069,2.069,0,0,0-1.726.765,3.442,3.442,0,0,0-.6,2.176,3.442,3.442,0,0,0,.6,2.176A2.069,2.069,0,0,0,42.058,15.759ZM52.394,8.534q.816-.051.816.7a.762.762,0,0,1-.187.561,1.008,1.008,0,0,1-.646.221l-.51.051a2.2,2.2,0,0,0-1.59.748,2.42,2.42,0,0,0-.518,1.564v3.893a.762.762,0,0,1-.238.612.907.907,0,0,1-.612.2.941.941,0,0,1-.62-.2.749.749,0,0,1-.247-.612V9.35a.754.754,0,0,1,.247-.6.917.917,0,0,1,.62-.212.806.806,0,0,1,.569.212.76.76,0,0,1,.229.587v.816a2.5,2.5,0,0,1,.986-1.139,3.313,3.313,0,0,1,1.462-.459Zm8.177,6.375a.483.483,0,0,1,.391.187.727.727,0,0,1,.153.476.978.978,0,0,1-.612.833,5.393,5.393,0,0,1-1.3.527,5.273,5.273,0,0,1-1.351.187,4.186,4.186,0,0,1-3.111-1.147A4.256,4.256,0,0,1,53.6,12.835a4.919,4.919,0,0,1,.5-2.261,3.687,3.687,0,0,1,1.411-1.53A3.945,3.945,0,0,1,57.579,8.5a3.376,3.376,0,0,1,2.635,1.071,4.145,4.145,0,0,1,.969,2.89q0,.68-.612.68H55.318q.17,2.635,2.533,2.635a3.134,3.134,0,0,0,1.088-.17,7.913,7.913,0,0,0,.969-.442q.051-.034.28-.144A.928.928,0,0,1,60.571,14.909ZM57.613,9.758a2.074,2.074,0,0,0-1.581.629,2.938,2.938,0,0,0-.714,1.768H59.7a2.841,2.841,0,0,0-.587-1.777A1.88,1.88,0,0,0,57.613,9.758ZM74.307,4.93a.887.887,0,0,1,.629.221.773.773,0,0,1,.238.6V16.252a.81.81,0,0,1-.229.612.982.982,0,0,1-1.241,0,.81.81,0,0,1-.229-.612v-.68a2.631,2.631,0,0,1-1.088,1.147,3.32,3.32,0,0,1-1.649.4,3.445,3.445,0,0,1-1.912-.544,3.617,3.617,0,0,1-1.309-1.53,5.218,5.218,0,0,1-.468-2.261,5.148,5.148,0,0,1,.468-2.261A3.432,3.432,0,0,1,70.737,8.5a3.272,3.272,0,0,1,1.641.4,2.665,2.665,0,0,1,1.079,1.131V5.712a.739.739,0,0,1,.229-.57A.877.877,0,0,1,74.307,4.93ZM71.145,15.759a2.074,2.074,0,0,0,1.717-.765,3.407,3.407,0,0,0,.612-2.176,3.441,3.441,0,0,0-.6-2.176,2.069,2.069,0,0,0-1.726-.765,2.128,2.128,0,0,0-1.743.757,3.308,3.308,0,0,0-.62,2.151,3.421,3.421,0,0,0,.629,2.184A2.094,2.094,0,0,0,71.145,15.759Zm12.9-.85a.483.483,0,0,1,.391.187.727.727,0,0,1,.153.476.978.978,0,0,1-.612.833,5.393,5.393,0,0,1-1.3.527,5.273,5.273,0,0,1-1.352.187,4.186,4.186,0,0,1-3.111-1.147,4.256,4.256,0,0,1-1.139-3.137,4.919,4.919,0,0,1,.5-2.261,3.687,3.687,0,0,1,1.411-1.53A3.945,3.945,0,0,1,81.056,8.5a3.376,3.376,0,0,1,2.635,1.071,4.145,4.145,0,0,1,.969,2.89q0,.68-.612.68H78.795q.17,2.635,2.533,2.635a3.134,3.134,0,0,0,1.088-.17,7.912,7.912,0,0,0,.969-.442q.051-.034.281-.144A.928.928,0,0,1,84.048,14.909ZM81.09,9.758a2.074,2.074,0,0,0-1.581.629,2.938,2.938,0,0,0-.714,1.768h4.386a2.841,2.841,0,0,0-.587-1.777A1.88,1.88,0,0,0,81.09,9.758ZM87.4,17.085a.941.941,0,0,1-.62-.2.749.749,0,0,1-.246-.612V5.763a.774.774,0,0,1,.246-.62.917.917,0,0,1,.62-.212.884.884,0,0,1,.612.212.789.789,0,0,1,.238.62V16.269a.762.762,0,0,1-.238.612A.907.907,0,0,1,87.4,17.085Zm10.591.034a5.145,5.145,0,0,1-2.839-.714,1.292,1.292,0,0,1-.433-.391.848.848,0,0,1-.128-.459.7.7,0,0,1,.153-.459.483.483,0,0,1,.391-.187,1.676,1.676,0,0,1,.7.272,7.152,7.152,0,0,0,.994.442,3.715,3.715,0,0,0,1.215.17,2.387,2.387,0,0,0,1.275-.289.913.913,0,0,0,.459-.816.8.8,0,0,0-.178-.544,1.513,1.513,0,0,0-.62-.366,10.587,10.587,0,0,0-1.309-.348,5.043,5.043,0,0,1-2.15-.875,1.865,1.865,0,0,1-.654-1.5,2.191,2.191,0,0,1,.425-1.318,2.76,2.76,0,0,1,1.173-.91,4.25,4.25,0,0,1,1.7-.323,4.956,4.956,0,0,1,1.326.179,3.746,3.746,0,0,1,1.139.519,1.054,1.054,0,0,1,.561.867.678.678,0,0,1-.161.459.491.491,0,0,1-.382.187.748.748,0,0,1-.306-.068,4.039,4.039,0,0,1-.408-.221A5.71,5.71,0,0,0,99.067,10a2.8,2.8,0,0,0-.994-.153,1.951,1.951,0,0,0-1.147.306.967.967,0,0,0-.434.833.837.837,0,0,0,.4.74,4.9,4.9,0,0,0,1.5.5,8.245,8.245,0,0,1,1.785.544,2.115,2.115,0,0,1,.926.757,2.138,2.138,0,0,1,.281,1.147,2.092,2.092,0,0,1-.927,1.777A4.127,4.127,0,0,1,97.988,17.119Zm11.781-2.21a.483.483,0,0,1,.391.187.727.727,0,0,1,.153.476.978.978,0,0,1-.612.833,5.392,5.392,0,0,1-1.3.527,5.273,5.273,0,0,1-1.352.187,4.186,4.186,0,0,1-3.111-1.147,4.256,4.256,0,0,1-1.139-3.137,4.919,4.919,0,0,1,.5-2.261,3.687,3.687,0,0,1,1.411-1.53,3.945,3.945,0,0,1,2.065-.544,3.376,3.376,0,0,1,2.635,1.071,4.145,4.145,0,0,1,.969,2.89q0,.68-.612.68h-5.253q.17,2.635,2.533,2.635a3.134,3.134,0,0,0,1.088-.17,7.913,7.913,0,0,0,.969-.442q.051-.034.28-.144A.928.928,0,0,1,109.769,14.909Zm-2.958-5.151a2.074,2.074,0,0,0-1.581.629,2.938,2.938,0,0,0-.714,1.768H108.9a2.841,2.841,0,0,0-.587-1.777A1.88,1.88,0,0,0,106.811,9.758Zm6.307,7.327a.941.941,0,0,1-.62-.2.749.749,0,0,1-.246-.612V5.763a.774.774,0,0,1,.246-.62.917.917,0,0,1,.62-.212.884.884,0,0,1,.612.212.789.789,0,0,1,.238.62V16.269a.762.762,0,0,1-.238.612A.907.907,0,0,1,113.118,17.085Zm9.724-2.176a.483.483,0,0,1,.391.187.727.727,0,0,1,.153.476.978.978,0,0,1-.612.833,5.392,5.392,0,0,1-1.3.527,5.273,5.273,0,0,1-1.352.187,4.186,4.186,0,0,1-3.111-1.147,4.256,4.256,0,0,1-1.139-3.137,4.919,4.919,0,0,1,.5-2.261,3.687,3.687,0,0,1,1.411-1.53A3.945,3.945,0,0,1,119.85,8.5a3.376,3.376,0,0,1,2.635,1.071,4.145,4.145,0,0,1,.969,2.89q0,.68-.612.68h-5.253q.17,2.635,2.533,2.635a3.134,3.134,0,0,0,1.088-.17,7.913,7.913,0,0,0,.969-.442q.051-.034.28-.144A.928.928,0,0,1,122.842,14.909Zm-2.958-5.151a2.074,2.074,0,0,0-1.581.629,2.938,2.938,0,0,0-.714,1.768h4.386a2.841,2.841,0,0,0-.587-1.777A1.88,1.88,0,0,0,119.884,9.758Zm8.993,7.361a4.146,4.146,0,0,1-2.116-.527,3.6,3.6,0,0,1-1.411-1.5,4.815,4.815,0,0,1-.5-2.244,4.823,4.823,0,0,1,.519-2.278,3.748,3.748,0,0,1,1.453-1.53,4.181,4.181,0,0,1,2.142-.544,4.716,4.716,0,0,1,1.3.187,4.445,4.445,0,0,1,1.165.51,1.058,1.058,0,0,1,.544.867.762.762,0,0,1-.153.484.475.475,0,0,1-.391.2.679.679,0,0,1-.306-.076,4.414,4.414,0,0,1-.391-.229,4.685,4.685,0,0,0-.79-.417,2.38,2.38,0,0,0-.876-.144,2.184,2.184,0,0,0-1.793.782,3.353,3.353,0,0,0-.637,2.176,3.277,3.277,0,0,0,.629,2.151,2.191,2.191,0,0,0,1.785.756,2.461,2.461,0,0,0,.9-.153,4.847,4.847,0,0,0,.8-.408,3.043,3.043,0,0,1,.374-.2.832.832,0,0,1,.34-.085.475.475,0,0,1,.391.2.762.762,0,0,1,.153.485.777.777,0,0,1-.128.434,1.509,1.509,0,0,1-.434.4,4.078,4.078,0,0,1-1.19.527A5.171,5.171,0,0,1,128.877,17.119Zm8.738-1.343a.853.853,0,0,1,.535.2.609.609,0,0,1,.161.451.587.587,0,0,1-.264.518,1.231,1.231,0,0,1-.773.144l-.459-.034a2.977,2.977,0,0,1-2.057-.842,3.124,3.124,0,0,1-.68-2.184V10.03h-1.02q-.748,0-.748-.663a.624.624,0,0,1,.2-.485.79.79,0,0,1,.553-.179h1.02V6.953a.81.81,0,0,1,.23-.612.857.857,0,0,1,.62-.221.887.887,0,0,1,.629.221.794.794,0,0,1,.238.612V8.7h1.683a.79.79,0,0,1,.552.179.709.709,0,0,1,0,.978.816.816,0,0,1-.552.17H135.8v4.114a1.736,1.736,0,0,0,.331,1.173,1.435,1.435,0,0,0,1.011.425Zm5.525,1.343a4.274,4.274,0,0,1-2.151-.527,3.556,3.556,0,0,1-1.428-1.5,4.906,4.906,0,0,1-.5-2.269,4.945,4.945,0,0,1,.5-2.286,3.556,3.556,0,0,1,1.428-1.5,4.651,4.651,0,0,1,4.3,0,3.556,3.556,0,0,1,1.428,1.5,4.945,4.945,0,0,1,.5,2.286,4.906,4.906,0,0,1-.5,2.269,3.556,3.556,0,0,1-1.428,1.5A4.274,4.274,0,0,1,143.14,17.119Zm0-1.36a2.108,2.108,0,0,0,1.742-.748,3.429,3.429,0,0,0,.6-2.193,3.4,3.4,0,0,0-.612-2.184,2.366,2.366,0,0,0-3.468,0,3.4,3.4,0,0,0-.612,2.184,3.429,3.429,0,0,0,.6,2.193A2.108,2.108,0,0,0,143.14,15.759Zm10.319-7.225q.816-.051.816.7a.762.762,0,0,1-.187.561,1.008,1.008,0,0,1-.646.221l-.51.051a2.2,2.2,0,0,0-1.589.748,2.42,2.42,0,0,0-.519,1.564v3.893a.762.762,0,0,1-.238.612.907.907,0,0,1-.612.2.941.941,0,0,1-.621-.2.749.749,0,0,1-.246-.612V9.35a.754.754,0,0,1,.246-.6.917.917,0,0,1,.621-.212.806.806,0,0,1,.569.212.76.76,0,0,1,.23.587v.816a2.5,2.5,0,0,1,.986-1.139,3.313,3.313,0,0,1,1.462-.459Zm11.747-1.173a.565.565,0,0,1,.476.17.66.66,0,0,1,0,.884.565.565,0,0,1-.476.17l-1.87-.085,1,1.564a.656.656,0,0,1,.1.34.565.565,0,0,1-.2.434.648.648,0,0,1-.451.179.545.545,0,0,1-.51-.34l-.85-1.649-.867,1.666a.525.525,0,0,1-.51.323.7.7,0,0,1-.459-.17.531.531,0,0,1-.2-.425.59.59,0,0,1,.119-.34l1-1.581-1.87.085a.541.541,0,0,1-.467-.17.686.686,0,0,1,0-.884.541.541,0,0,1,.467-.17l1.87.085-1-1.564a.613.613,0,0,1-.119-.357.54.54,0,0,1,.2-.425.666.666,0,0,1,.451-.17.556.556,0,0,1,.527.34l.867,1.666.85-1.666a.545.545,0,0,1,.51-.34.648.648,0,0,1,.451.178.565.565,0,0,1,.2.434.722.722,0,0,1-.1.34l-1,1.564Z" transform="translate(699 653)" fill="#38485c"/>
    <g id="Rectángulo_17730" data-name="Rectángulo 17730" transform="translate(698.9 696.286) rotate(-90)" fill="rgba(158,170,184,0.24)" stroke="#9eaab8" stroke-width="1" stroke-dasharray="5 5">
      <rect width="18" height="340" stroke="none"/>
      <rect x="0.5" y="0.5" width="17" height="339" fill="none"/>
    </g>
    <g id="Trazado_27661" data-name="Trazado 27661" transform="translate(698.9 671.286) rotate(-90)" fill="rgba(158,170,184,0.24)" stroke-dasharray="5 5">
      <path d="M0,0H18V340H0Z" stroke="none"/>
      <path d="M 0 0 L 5 0 L 5 1 L 1 1 L 1 6 L 0 6 L 0 0 Z M 10 0 L 15 0 L 15 1 L 10 1 L 10 0 Z M 17 2 L 18 2 C 18 2 18 7 18 7 L 17 7 L 17 2 Z M 17 12 L 18 12 C 18 12 18 17 18 17 L 17 17 L 17 12 Z M 17 22 L 18 22 C 18 22 18 27 18 27 L 17 27 L 17 22 Z M 17 32 L 18 32 C 18 32 18 37 18 37 L 17 37 L 17 32 Z M 17 42 L 18 42 C 18 42 18 47 18 47 L 17 47 L 17 42 Z M 17 52 L 18 52 C 18 52 18 57 18 57 L 17 57 L 17 52 Z M 17 62 L 18 62 C 18 62 18 67 18 67 L 17 67 L 17 62 Z M 17 72 L 18 72 C 18 72 18 77 18 77 L 17 77 L 17 72 Z M 17 82 L 18 82 C 18 82 18 87 18 87 L 17 87 L 17 82 Z M 17 92 L 18 92 C 18 92 18 97 18 97 L 17 97 L 17 92 Z M 17 102 L 18 102 C 18 102 18 107 18 107 L 17 107 L 17 102 Z M 17 112 L 18 112 C 18 112 18 117 18 117 L 17 117 L 17 112 Z M 17 122 L 18 122 C 18 122 18 127 18 127 L 17 127 L 17 122 Z M 17 132 L 18 132 C 18 132 18 137 18 137 L 17 137 L 17 132 Z M 17 142 L 18 142 C 18 142 18 147 18 147 L 17 147 L 17 142 Z M 17 152 L 18 152 C 18 152 18 157 18 157 L 17 157 L 17 152 Z M 17 162 L 18 162 C 18 162 18 167 18 167 L 17 167 L 17 162 Z M 17 172 L 18 172 C 18 172 18 177 18 177 L 17 177 L 17 172 Z M 17 182 L 18 182 C 18 182 18 187 18 187 L 17 187 L 17 182 Z M 17 192 L 18 192 C 18 192 18 197 18 197 L 17 197 L 17 192 Z M 17 202 L 18 202 C 18 202 18 207 18 207 L 17 207 L 17 202 Z M 17 212 L 18 212 C 18 212 18 217 18 217 L 17 217 L 17 212 Z M 17 222 L 18 222 C 18 222 18 227 18 227 L 17 227 L 17 222 Z M 17 232 L 18 232 C 18 232 18 237 18 237 L 17 237 L 17 232 Z M 17 242 L 18 242 C 18 242 18 247 18 247 L 17 247 L 17 242 Z M 17 252 L 18 252 C 18 252 18 257 18 257 L 17 257 L 17 252 Z M 17 262 L 18 262 C 18 262 18 267 18 267 L 17 267 L 17 262 Z M 17 272 L 18 272 C 18 272 18 277 18 277 L 17 277 L 17 272 Z M 17 282 L 18 282 C 18 282 18 287 18 287 L 17 287 L 17 282 Z M 17 292 L 18 292 C 18 292 18 297 18 297 L 17 297 L 17 292 Z M 17 302 L 18 302 C 18 302 18 307 18 307 L 17 307 L 17 302 Z M 17 312 L 18 312 C 18 312 18 317 18 317 L 17 317 L 17 312 Z M 17 322 L 18 322 C 18 322 18 327 18 327 L 17 327 L 17 322 Z M 17 332 L 18 332 C 18 332 18 337 18 337 L 17 337 L 17 332 Z M 11 339 L 16 339 L 16 340 C 16 340 11 340 11 340 L 11 339 Z M 1 339 L 6 339 L 6 340 C 6 340 1 340 1 340 L 1 339 Z M 0 331 L 1 331 L 1 336 L 0 336 L 0 331 Z M 0 321 L 1 321 L 1 326 L 0 326 L 0 321 Z M 0 311 L 1 311 L 1 316 L 0 316 L 0 311 Z M 0 301 L 1 301 L 1 306 L 0 306 L 0 301 Z M 0 291 L 1 291 L 1 296 L 0 296 L 0 291 Z M 0 281 L 1 281 L 1 286 L 0 286 L 0 281 Z M 0 271 L 1 271 L 1 276 L 0 276 L 0 271 Z M 0 261 L 1 261 L 1 266 L 0 266 L 0 261 Z M 0 251 L 1 251 L 1 256 L 0 256 L 0 251 Z M 0 241 L 1 241 L 1 246 L 0 246 L 0 241 Z M 0 231 L 1 231 L 1 236 L 0 236 L 0 231 Z M 0 221 L 1 221 L 1 226 L 0 226 L 0 221 Z M 0 211 L 1 211 L 1 216 L 0 216 L 0 211 Z M 0 201 L 1 201 L 1 206 L 0 206 L 0 201 Z M 0 191 L 1 191 L 1 196 L 0 196 L 0 191 Z M 0 181 L 1 181 L 1 186 L 0 186 L 0 181 Z M 0 171 L 1 171 L 1 176 L 0 176 L 0 171 Z M 0 161 L 1 161 L 1 166 L 0 166 L 0 161 Z M 0 151 L 1 151 L 1 156 L 0 156 L 0 151 Z M 0 141 L 1 141 L 1 146 L 0 146 L 0 141 Z M 0 131 L 1 131 L 1 136 L 0 136 L 0 131 Z M 0 121 L 1 121 L 1 126 L 0 126 L 0 121 Z M 0 111 L 1 111 L 1 116 L 0 116 L 0 111 Z M 0 101 L 1 101 L 1 106 L 0 106 L 0 101 Z M 0 91 L 1 91 L 1 96 L 0 96 L 0 91 Z M 0 81 L 1 81 L 1 86 L 0 86 L 0 81 Z M 0 71 L 1 71 L 1 76 L 0 76 L 0 71 Z M 0 61 L 1 61 L 1 66 L 0 66 L 0 61 Z M 0 51 L 1 51 L 1 56 L 0 56 L 0 51 Z M 0 41 L 1 41 L 1 46 L 0 46 L 0 41 Z M 0 31 L 1 31 L 1 36 L 0 36 L 0 31 Z M 0 21 L 1 21 L 1 26 L 0 26 L 0 21 Z M 0 11 L 1 11 L 1 16 L 0 16 L 0 11 Z" stroke="none" fill="#9eaab8"/>
    </g>
    <g id="Trazado_27662" data-name="Trazado 27662" transform="translate(714.9 736.286) rotate(-90)" fill="rgba(56,72,92,0.24)" stroke-dasharray="5 5">
      <path d="M0,0H23V277H0Z" stroke="none"/>
      <path d="M 0 0 L 5 0 L 5 1 L 0 1 L 0 0 Z M 10 0 L 15 0 L 15 1 L 10 1 L 10 0 Z M 20 0 L 23 0 L 23 1 C 23 1.5 23 2 23 2 L 22 2 L 22 1 L 20 1 L 20 0 Z M 22 7 L 23 7 C 23 7 23 12 23 12 L 22 12 L 22 7 Z M 22 17 L 23 17 C 23 17 23 22 23 22 L 22 22 L 22 17 Z M 22 27 L 23 27 C 23 27 23 32 23 32 L 22 32 L 22 27 Z M 22 37 L 23 37 C 23 37 23 42 23 42 L 22 42 L 22 37 Z M 22 47 L 23 47 C 23 47 23 52 23 52 L 22 52 L 22 47 Z M 22 57 L 23 57 C 23 57 23 62 23 62 L 22 62 L 22 57 Z M 22 67 L 23 67 C 23 67 23 72 23 72 L 22 72 L 22 67 Z M 22 77 L 23 77 C 23 77 23 82 23 82 L 22 82 L 22 77 Z M 22 87 L 23 87 C 23 87 23 92 23 92 L 22 92 L 22 87 Z M 22 97 L 23 97 C 23 97 23 102 23 102 L 22 102 L 22 97 Z M 22 107 L 23 107 C 23 107 23 112 23 112 L 22 112 L 22 107 Z M 22 117 L 23 117 C 23 117 23 122 23 122 L 22 122 L 22 117 Z M 22 127 L 23 127 C 23 127 23 132 23 132 L 22 132 L 22 127 Z M 22 137 L 23 137 C 23 137 23 142 23 142 L 22 142 L 22 137 Z M 22 147 L 23 147 C 23 147 23 152 23 152 L 22 152 L 22 147 Z M 22 157 L 23 157 C 23 157 23 162 23 162 L 22 162 L 22 157 Z M 22 167 L 23 167 C 23 167 23 172 23 172 L 22 172 L 22 167 Z M 22 177 L 23 177 C 23 177 23 182 23 182 L 22 182 L 22 177 Z M 22 187 L 23 187 C 23 187 23 192 23 192 L 22 192 L 22 187 Z M 22 197 L 23 197 C 23 197 23 202 23 202 L 22 202 L 22 197 Z M 22 207 L 23 207 C 23 207 23 212 23 212 L 22 212 L 22 207 Z M 22 217 L 23 217 C 23 217 23 222 23 222 L 22 222 L 22 217 Z M 22 227 L 23 227 C 23 227 23 232 23 232 L 22 232 L 22 227 Z M 22 237 L 23 237 C 23 237 23 242 23 242 L 22 242 L 22 237 Z M 22 247 L 23 247 C 23 247 23 252 23 252 L 22 252 L 22 247 Z M 22 257 L 23 257 C 23 257 23 262 23 262 L 22 262 L 22 257 Z M 22 267 L 23 267 C 23 267 23 272 23 272 L 22 272 L 22 267 Z M 18 276 L 23 276 L 23 277 C 23 277 18 277 18 277 L 18 276 Z M 8 276 L 13 276 L 13 277 C 13 277 8 277 8 277 L 8 276 Z M 0 275 L 1 275 L 1 276 L 3 276 L 3 277 C 3 277 0 277 0 277 L 0 275 Z M 0 265 L 1 265 L 1 270 L 0 270 L 0 265 Z M 0 255 L 1 255 L 1 260 L 0 260 L 0 255 Z M 0 245 L 1 245 L 1 250 L 0 250 L 0 245 Z M 0 235 L 1 235 L 1 240 L 0 240 L 0 235 Z M 0 225 L 1 225 L 1 230 L 0 230 L 0 225 Z M 0 215 L 1 215 L 1 220 L 0 220 L 0 215 Z M 0 205 L 1 205 L 1 210 L 0 210 L 0 205 Z M 0 195 L 1 195 L 1 200 L 0 200 L 0 195 Z M 0 185 L 1 185 L 1 190 L 0 190 L 0 185 Z M 0 175 L 1 175 L 1 180 L 0 180 L 0 175 Z M 0 165 L 1 165 L 1 170 L 0 170 L 0 165 Z M 0 155 L 1 155 L 1 160 L 0 160 L 0 155 Z M 0 145 L 1 145 L 1 150 L 0 150 L 0 145 Z M 0 135 L 1 135 L 1 140 L 0 140 L 0 135 Z M 0 125 L 1 125 L 1 130 L 0 130 L 0 125 Z M 0 115 L 1 115 L 1 120 L 0 120 L 0 115 Z M 0 105 L 1 105 L 1 110 L 0 110 L 0 105 Z M 0 95 L 1 95 L 1 100 L 0 100 L 0 95 Z M 0 85 L 1 85 L 1 90 L 0 90 L 0 85 Z M 0 75 L 1 75 L 1 80 L 0 80 L 0 75 Z M 0 65 L 1 65 L 1 70 L 0 70 L 0 65 Z M 0 55 L 1 55 L 1 60 L 0 60 L 0 55 Z M 0 45 L 1 45 L 1 50 L 0 50 L 0 45 Z M 0 35 L 1 35 L 1 40 L 0 40 L 0 35 Z M 0 25 L 1 25 L 1 30 L 0 30 L 0 25 Z M 0 15 L 1 15 L 1 20 L 0 20 L 0 15 Z M 0 5 L 1 5 L 1 10 L 0 10 L 0 5 Z" stroke="none" fill="#38485c"/>
    </g>
    <g id="Trazado_27663" data-name="Trazado 27663" transform="translate(1004.9 735.286) rotate(-90)" fill="rgba(56,72,92,0.24)" stroke-dasharray="5 5">
      <path d="M0,0H23V23H0Z" stroke="none"/>
      <path d="M 10 0 L 15 0 L 15 1 L 10 1 L 10 0 Z M 20 0 L 23 0 L 23 1 C 23 1.5 23 2 23 2 L 22 2 L 22 1 L 20 1 L 20 0 Z M 22 7 L 23 7 C 23 7 23 12 23 12 L 22 12 L 22 7 Z M 22 17 L 23 17 C 23 17 23 22 23 22 L 22 22 L 22 17 Z M 14 22 L 19 22 L 19 23 C 19 23 14 23 14 23 L 14 22 Z M 4 22 L 9 22 L 9 23 C 9 23 4 23 4 23 L 4 22 Z M 0 17 L 1 17 L 1 22 L 0 22 L 0 17 Z M 0 7 L 1 7 L 1 12 L 0 12 L 0 7 Z M 0 0 L 5 0 L 5 1 L 1 1 L 1 2 L 0 2 L 0 0 Z" stroke="none" fill="#38485c"/>
    </g>
  </g>
</svg>
