<svg xmlns="http://www.w3.org/2000/svg" width="712" height="367" viewBox="0 0 712 367">
  <g id="Grupo_21059" data-name="Grupo 21059" transform="translate(-513 -3895)">
    <g id="Grupo_18123" data-name="Grupo 18123" transform="translate(0 203)">
      <path id="Trazado_20235" data-name="Trazado 20235" d="M4,0H708c2.209,0,4,1.3,4,2.907V364.093c0,1.605-1.791,2.907-4,2.907H4c-2.209,0-4-1.3-4-2.907V2.907C0,1.3,1.791,0,4,0Z" transform="translate(513 3692)" fill="#f3f6f9"/>
      <rect id="Rectángulo_5019" data-name="Rectángulo 5019" width="24" height="24" transform="translate(999 3923.959)" fill="none"/>
      <path id="Polígono_3" data-name="Polígono 3" d="M6,0l6,8H0Z" transform="translate(1017 3939.959) rotate(180)" fill="#38485c"/>
      <path id="Trazado_27687" data-name="Trazado 27687" d="M8.016-1.664q.96,0,.96.816,0,.848-.96.848H2.608q-.976,0-.976-.848,0-.816.976-.816H4.272v-7.3l-1.536.944a.827.827,0,0,1-.4.128.7.7,0,0,1-.568-.288,1,1,0,0,1-.232-.64.8.8,0,0,1,.416-.72l2.48-1.536a1.782,1.782,0,0,1,.912-.288.973.973,0,0,1,.72.272,1.016,1.016,0,0,1,.272.752v8.672Zm7.056-5.568a3.5,3.5,0,0,1,1.792.456A3.181,3.181,0,0,1,18.088-5.5a3.929,3.929,0,0,1,.44,1.88,3.855,3.855,0,0,1-.488,1.944A3.479,3.479,0,0,1,16.7-.336a3.906,3.906,0,0,1-1.944.48,3.989,3.989,0,0,1-3.3-1.448,6.474,6.474,0,0,1-1.16-4.136,8.527,8.527,0,0,1,.544-3.192,4.529,4.529,0,0,1,1.56-2.072,4.03,4.03,0,0,1,2.392-.72,5.426,5.426,0,0,1,1.832.328,4.773,4.773,0,0,1,1.56.888,1.2,1.2,0,0,1,.3.344.87.87,0,0,1,.088.408.926.926,0,0,1-.2.6.592.592,0,0,1-.472.248.831.831,0,0,1-.3-.056,2.284,2.284,0,0,1-.352-.184,4.3,4.3,0,0,0-2.368-.928,2.071,2.071,0,0,0-1.84,1.08,5.933,5.933,0,0,0-.7,3.032,2.745,2.745,0,0,1,1.1-1.144A3.241,3.241,0,0,1,15.072-7.232ZM14.64-1.488a1.83,1.83,0,0,0,1.408-.568,2.109,2.109,0,0,0,.528-1.5,2.08,2.08,0,0,0-.528-1.488A1.844,1.844,0,0,0,14.64-5.6a1.928,1.928,0,0,0-1.448.568,2.034,2.034,0,0,0-.552,1.48,2.055,2.055,0,0,0,.552,1.5A1.928,1.928,0,0,0,14.64-1.488ZM24.7-8.016a3.243,3.243,0,0,1,1.8.512,3.4,3.4,0,0,1,1.232,1.448,5,5,0,0,1,.44,2.152,4.845,4.845,0,0,1-.44,2.128A3.333,3.333,0,0,1,26.512-.368a3.309,3.309,0,0,1-1.808.5,3.1,3.1,0,0,1-1.488-.352A2.47,2.47,0,0,1,22.208-1.2V2.064a.83.83,0,0,1-.272.656,1.048,1.048,0,0,1-.72.24,1.037,1.037,0,0,1-.728-.256.868.868,0,0,1-.28-.672V-7.04a.914.914,0,0,1,.264-.688.979.979,0,0,1,.712-.256,1.008,1.008,0,0,1,.72.256.9.9,0,0,1,.272.688v.4a2.455,2.455,0,0,1,1.016-1.016A3.121,3.121,0,0,1,24.7-8.016Zm-.528,6.592a1.793,1.793,0,0,0,1.472-.648A2.829,2.829,0,0,0,26.176-3.9a2.989,2.989,0,0,0-.528-1.888,1.766,1.766,0,0,0-1.472-.672,1.779,1.779,0,0,0-1.48.656,2.952,2.952,0,0,0-.52,1.872A2.923,2.923,0,0,0,22.7-2.08,1.779,1.779,0,0,0,24.176-1.424Zm12.256-.048a.9.9,0,0,1,.288.656.885.885,0,0,1-.272.632.864.864,0,0,1-.64.28A.878.878,0,0,1,35.12-.24l-2.256-2.5L30.608-.24a.928.928,0,0,1-.688.32A.858.858,0,0,1,29.3-.192a.858.858,0,0,1-.272-.624.9.9,0,0,1,.288-.656l2.336-2.544-2.208-2.4a.9.9,0,0,1-.288-.656.85.85,0,0,1,.272-.632.871.871,0,0,1,.624-.264.928.928,0,0,1,.688.32l2.128,2.336,2.128-2.336a.928.928,0,0,1,.688-.32.862.862,0,0,1,.632.264.862.862,0,0,1,.264.632.9.9,0,0,1-.288.656l-2.208,2.4Z" transform="translate(699 3991.959)" fill="#38485c"/>
    </g>
    <rect id="Rectángulo_6037" data-name="Rectángulo 6037" width="340" height="48" rx="4" transform="translate(698.632 3980)" fill="#fff"/>
    <path id="Trazado_27667" data-name="Trazado 27667" d="M7.938,17H1.57V5.578H7.938v1.18H2.9v3.68H7.633v1.172H2.9v4.2H7.938Zm1.3,3.844a3.121,3.121,0,0,1-1.2-.2V19.594a3.8,3.8,0,0,0,1.063.156,1.117,1.117,0,0,0,.895-.332,1.523,1.523,0,0,0,.285-1.012V8.438h1.3v9.875Q11.57,20.844,9.234,20.844Zm.93-14.727a.861.861,0,0,1,.219-.652.81.81,0,0,1,1.086,0,.846.846,0,0,1,.227.648.859.859,0,0,1-.227.652.794.794,0,0,1-1.086,0A.877.877,0,0,1,10.164,6.117Zm7.773,11.039a3.934,3.934,0,0,1-3-1.156,4.476,4.476,0,0,1-1.1-3.211A4.964,4.964,0,0,1,14.863,9.5,3.387,3.387,0,0,1,17.6,8.281,3.229,3.229,0,0,1,20.148,9.34a4.057,4.057,0,0,1,.938,2.793v.82h-5.9a3.394,3.394,0,0,0,.762,2.289,2.635,2.635,0,0,0,2.035.781,6.9,6.9,0,0,0,2.734-.578V16.6a6.863,6.863,0,0,1-1.3.426A7.31,7.31,0,0,1,17.938,17.156Zm-.352-7.789a2.118,2.118,0,0,0-1.645.672,3.1,3.1,0,0,0-.723,1.859H19.7a2.851,2.851,0,0,0-.547-1.879A1.925,1.925,0,0,0,17.586,9.367ZM34.211,17V11.43a2.312,2.312,0,0,0-.437-1.535,1.692,1.692,0,0,0-1.359-.512,2.195,2.195,0,0,0-1.789.7,3.3,3.3,0,0,0-.578,2.141V17h-1.3V11.43a2.312,2.312,0,0,0-.437-1.535,1.7,1.7,0,0,0-1.367-.512,2.118,2.118,0,0,0-1.785.73,3.953,3.953,0,0,0-.566,2.395V17H23.3V8.438h1.055l.211,1.172h.063a2.549,2.549,0,0,1,1.035-.977,3.162,3.162,0,0,1,1.5-.352,2.544,2.544,0,0,1,2.625,1.453h.063a2.73,2.73,0,0,1,1.109-1.062,3.442,3.442,0,0,1,1.656-.391,2.9,2.9,0,0,1,2.176.746,3.338,3.338,0,0,1,.723,2.387V17Zm7.953.156a3.706,3.706,0,0,1-1.527-.309,2.872,2.872,0,0,1-1.16-.949h-.094a11.485,11.485,0,0,1,.094,1.422v3.523h-1.3V8.438h1.055l.18,1.172h.063a3.012,3.012,0,0,1,1.164-1.016,3.539,3.539,0,0,1,1.523-.312,3.165,3.165,0,0,1,2.629,1.164,5.125,5.125,0,0,1,.926,3.266,5.1,5.1,0,0,1-.941,3.277A3.17,3.17,0,0,1,42.164,17.156Zm-.187-7.773a2.3,2.3,0,0,0-1.9.727,3.739,3.739,0,0,0-.6,2.313v.289a4.285,4.285,0,0,0,.6,2.582,2.288,2.288,0,0,0,1.93.777,2.007,2.007,0,0,0,1.738-.9,4.26,4.26,0,0,0,.629-2.477,4.1,4.1,0,0,0-.629-2.457A2.069,2.069,0,0,0,41.977,9.383ZM49.281,17h-1.3V4.844h1.3Zm10.141-4.289a4.724,4.724,0,0,1-1.055,3.27,3.714,3.714,0,0,1-2.914,1.176,3.86,3.86,0,0,1-2.039-.539,3.558,3.558,0,0,1-1.375-1.547,5.391,5.391,0,0,1-.484-2.359A4.716,4.716,0,0,1,52.6,9.449a3.7,3.7,0,0,1,2.906-1.168,3.622,3.622,0,0,1,2.855,1.2A4.7,4.7,0,0,1,59.422,12.711Zm-6.523,0a4.064,4.064,0,0,0,.656,2.5,2.6,2.6,0,0,0,3.863,0,4.043,4.043,0,0,0,.66-2.5,3.978,3.978,0,0,0-.66-2.48,2.32,2.32,0,0,0-1.949-.848,2.283,2.283,0,0,0-1.922.836A4.023,4.023,0,0,0,52.9,12.711Zm8.609,3.461a1.164,1.164,0,0,1,.238-.793.864.864,0,0,1,.684-.27.924.924,0,0,1,.707.27,1.116,1.116,0,0,1,.254.793,1.1,1.1,0,0,1-.258.781,1.025,1.025,0,0,1-1.363.027A1.07,1.07,0,0,1,61.508,16.172Zm0-6.9q0-1.055.922-1.055.961,0,.961,1.055a1.1,1.1,0,0,1-.258.781,1.025,1.025,0,0,1-1.363.027A1.07,1.07,0,0,1,61.508,9.273ZM76.594,8.266a2.6,2.6,0,0,1-.613,1.789,3.07,3.07,0,0,1-1.738.93v.063a3.269,3.269,0,0,1,2.039.875,2.575,2.575,0,0,1,.664,1.844,2.991,2.991,0,0,1-1.133,2.512,5.152,5.152,0,0,1-3.219.879,9.328,9.328,0,0,1-1.66-.137,5.682,5.682,0,0,1-1.465-.48V15.3a7.481,7.481,0,0,0,3.172.75q2.961,0,2.961-2.32,0-2.078-3.266-2.078H71.211V10.539h1.141a3.434,3.434,0,0,0,2.117-.59,1.935,1.935,0,0,0,.781-1.637A1.613,1.613,0,0,0,74.676,7a2.366,2.366,0,0,0-1.559-.477,4.809,4.809,0,0,0-1.414.2,6.328,6.328,0,0,0-1.516.75L69.531,6.6a5.471,5.471,0,0,1,1.621-.871,5.892,5.892,0,0,1,1.934-.316,3.951,3.951,0,0,1,2.586.762A2.565,2.565,0,0,1,76.594,8.266Zm5.641,1.758a4.2,4.2,0,0,1,2.84.895,3.068,3.068,0,0,1,1.035,2.449,3.537,3.537,0,0,1-1.129,2.781,4.509,4.509,0,0,1-3.113,1.008,5.729,5.729,0,0,1-2.945-.617v-1.25a4.476,4.476,0,0,0,1.359.551,6.708,6.708,0,0,0,1.6.2,3.2,3.2,0,0,0,2.137-.648,2.326,2.326,0,0,0,.762-1.875q0-2.391-2.93-2.391a11.664,11.664,0,0,0-1.984.227l-.672-.43.43-5.344H85.3v1.2h-4.57l-.289,3.43A9.1,9.1,0,0,1,82.234,10.023Zm13.625,4.352h-1.7V17H92.922V14.375H87.367V13.242l5.422-7.727h1.375V13.2h1.7ZM92.922,13.2V9.4q0-1.117.078-2.523h-.062a11.739,11.739,0,0,1-.7,1.242L88.664,13.2Zm7.82-7.781a3.873,3.873,0,0,1,2.477.727,2.423,2.423,0,0,1,.914,2.008,2.5,2.5,0,0,1-.523,1.539,4.624,4.624,0,0,1-1.672,1.266,5.621,5.621,0,0,1,1.977,1.395,2.625,2.625,0,0,1,.586,1.691,2.834,2.834,0,0,1-.992,2.27,4.051,4.051,0,0,1-2.719.848,4.354,4.354,0,0,1-2.812-.8,2.759,2.759,0,0,1-.984-2.27q0-1.961,2.391-3.055a4.413,4.413,0,0,1-1.547-1.316,2.8,2.8,0,0,1-.469-1.582,2.41,2.41,0,0,1,.918-1.98A3.807,3.807,0,0,1,100.742,5.414Zm-2.469,8.7a1.768,1.768,0,0,0,.652,1.461,2.857,2.857,0,0,0,1.832.523,2.729,2.729,0,0,0,1.813-.547,1.858,1.858,0,0,0,.648-1.5,1.828,1.828,0,0,0-.609-1.348,6.218,6.218,0,0,0-2.125-1.145A4.624,4.624,0,0,0,98.8,12.668,2.142,2.142,0,0,0,98.273,14.117Zm2.453-7.648a2.3,2.3,0,0,0-1.531.469,1.554,1.554,0,0,0-.555,1.25A1.789,1.789,0,0,0,99.1,9.422a4.814,4.814,0,0,0,1.7,1.031,4.266,4.266,0,0,0,1.582-1.008,1.867,1.867,0,0,0,.465-1.258,1.538,1.538,0,0,0-.566-1.254A2.387,2.387,0,0,0,100.727,6.469ZM107.555,17l4.734-10.227h-6.227v-1.2h7.6V6.617L108.992,17ZM119.039,5.414a3.873,3.873,0,0,1,2.477.727,2.423,2.423,0,0,1,.914,2.008,2.5,2.5,0,0,1-.523,1.539,4.624,4.624,0,0,1-1.672,1.266,5.621,5.621,0,0,1,1.977,1.395,2.625,2.625,0,0,1,.586,1.691,2.834,2.834,0,0,1-.992,2.27,4.051,4.051,0,0,1-2.719.848,4.354,4.354,0,0,1-2.812-.8,2.759,2.759,0,0,1-.984-2.27q0-1.961,2.391-3.055a4.413,4.413,0,0,1-1.547-1.316,2.8,2.8,0,0,1-.469-1.582,2.41,2.41,0,0,1,.918-1.98A3.807,3.807,0,0,1,119.039,5.414Zm-2.469,8.7a1.768,1.768,0,0,0,.652,1.461,2.857,2.857,0,0,0,1.832.523,2.729,2.729,0,0,0,1.813-.547,1.858,1.858,0,0,0,.648-1.5,1.828,1.828,0,0,0-.609-1.348,6.218,6.218,0,0,0-2.125-1.145,4.624,4.624,0,0,0-1.687,1.105A2.142,2.142,0,0,0,116.57,14.117Zm2.453-7.648a2.3,2.3,0,0,0-1.531.469,1.554,1.554,0,0,0-.555,1.25,1.789,1.789,0,0,0,.461,1.234,4.814,4.814,0,0,0,1.7,1.031,4.266,4.266,0,0,0,1.582-1.008,1.867,1.867,0,0,0,.465-1.258,1.538,1.538,0,0,0-.566-1.254A2.387,2.387,0,0,0,119.023,6.469Zm9.164-1.055a3.873,3.873,0,0,1,2.477.727,2.423,2.423,0,0,1,.914,2.008,2.5,2.5,0,0,1-.523,1.539,4.624,4.624,0,0,1-1.672,1.266,5.621,5.621,0,0,1,1.977,1.395,2.625,2.625,0,0,1,.586,1.691,2.834,2.834,0,0,1-.992,2.27,4.051,4.051,0,0,1-2.719.848,4.354,4.354,0,0,1-2.812-.8,2.759,2.759,0,0,1-.984-2.27q0-1.961,2.391-3.055a4.413,4.413,0,0,1-1.547-1.316,2.8,2.8,0,0,1-.469-1.582,2.41,2.41,0,0,1,.918-1.98A3.807,3.807,0,0,1,128.188,5.414Zm-2.469,8.7a1.768,1.768,0,0,0,.652,1.461,2.857,2.857,0,0,0,1.832.523,2.729,2.729,0,0,0,1.813-.547,1.858,1.858,0,0,0,.648-1.5,1.828,1.828,0,0,0-.609-1.348,6.218,6.218,0,0,0-2.125-1.145,4.624,4.624,0,0,0-1.687,1.105A2.142,2.142,0,0,0,125.719,14.117Zm2.453-7.648a2.3,2.3,0,0,0-1.531.469,1.554,1.554,0,0,0-.555,1.25,1.789,1.789,0,0,0,.461,1.234,4.814,4.814,0,0,0,1.7,1.031,4.266,4.266,0,0,0,1.582-1.008,1.867,1.867,0,0,0,.465-1.258,1.538,1.538,0,0,0-.566-1.254A2.387,2.387,0,0,0,128.172,6.469Zm13.43,7.906h-1.7V17h-1.242V14.375h-5.555V13.242l5.422-7.727h1.375V13.2h1.7Zm-2.937-1.18V9.4q0-1.117.078-2.523h-.062a11.739,11.739,0,0,1-.7,1.242l-3.57,5.078Z" transform="translate(714.632 3993)" fill="#8a98a8"/>
    <path id="Trazado_27668" data-name="Trazado 27668" d="M6.461,6.6A3.735,3.735,0,0,0,3.488,7.855,5.058,5.058,0,0,0,2.4,11.289a5.159,5.159,0,0,0,1.051,3.465,3.735,3.735,0,0,0,3,1.223,10.23,10.23,0,0,0,2.727-.43v1.164a8.4,8.4,0,0,1-2.93.445,4.956,4.956,0,0,1-3.895-1.531A6.306,6.306,0,0,1,.977,11.273a6.868,6.868,0,0,1,.66-3.094A4.739,4.739,0,0,1,3.543,6.133a5.77,5.77,0,0,1,2.934-.719,7.078,7.078,0,0,1,3.141.656L9.055,7.211A6.053,6.053,0,0,0,6.461,6.6Zm12.4,6.109A4.724,4.724,0,0,1,17.8,15.98a3.714,3.714,0,0,1-2.914,1.176,3.86,3.86,0,0,1-2.039-.539,3.558,3.558,0,0,1-1.375-1.547,5.391,5.391,0,0,1-.484-2.359,4.716,4.716,0,0,1,1.047-3.262,3.7,3.7,0,0,1,2.906-1.168,3.622,3.622,0,0,1,2.855,1.2A4.7,4.7,0,0,1,18.859,12.711Zm-6.523,0a4.064,4.064,0,0,0,.656,2.5,2.278,2.278,0,0,0,1.93.859,2.293,2.293,0,0,0,1.934-.855,4.043,4.043,0,0,0,.66-2.5,3.978,3.978,0,0,0-.66-2.48,2.32,2.32,0,0,0-1.949-.848,2.283,2.283,0,0,0-1.922.836A4.023,4.023,0,0,0,12.336,12.711ZM32.047,17V11.43a2.312,2.312,0,0,0-.437-1.535,1.692,1.692,0,0,0-1.359-.512,2.195,2.195,0,0,0-1.789.7,3.3,3.3,0,0,0-.578,2.141V17h-1.3V11.43a2.312,2.312,0,0,0-.437-1.535,1.7,1.7,0,0,0-1.367-.512,2.118,2.118,0,0,0-1.785.73,3.953,3.953,0,0,0-.566,2.395V17h-1.3V8.438h1.055L22.4,9.609h.063A2.549,2.549,0,0,1,23.5,8.633a3.162,3.162,0,0,1,1.5-.352,2.544,2.544,0,0,1,2.625,1.453h.063a2.73,2.73,0,0,1,1.109-1.062,3.442,3.442,0,0,1,1.656-.391,2.9,2.9,0,0,1,2.176.746,3.338,3.338,0,0,1,.723,2.387V17ZM40,17.156a3.706,3.706,0,0,1-1.527-.309,2.872,2.872,0,0,1-1.16-.949h-.094a11.485,11.485,0,0,1,.094,1.422v3.523h-1.3V8.438H37.07l.18,1.172h.063a3.012,3.012,0,0,1,1.164-1.016A3.539,3.539,0,0,1,40,8.281a3.165,3.165,0,0,1,2.629,1.164,5.125,5.125,0,0,1,.926,3.266,5.1,5.1,0,0,1-.941,3.277A3.17,3.17,0,0,1,40,17.156Zm-.187-7.773a2.3,2.3,0,0,0-1.9.727,3.739,3.739,0,0,0-.6,2.313v.289a4.285,4.285,0,0,0,.6,2.582,2.288,2.288,0,0,0,1.93.777,2.007,2.007,0,0,0,1.738-.9,4.26,4.26,0,0,0,.629-2.477,4.1,4.1,0,0,0-.629-2.457A2.069,2.069,0,0,0,39.813,9.383ZM47.117,17h-1.3V4.844h1.3Zm6.367.156a3.934,3.934,0,0,1-3-1.156,4.476,4.476,0,0,1-1.1-3.211A4.964,4.964,0,0,1,50.41,9.5a3.387,3.387,0,0,1,2.738-1.219A3.229,3.229,0,0,1,55.7,9.34a4.057,4.057,0,0,1,.938,2.793v.82h-5.9a3.394,3.394,0,0,0,.762,2.289,2.634,2.634,0,0,0,2.035.781,6.9,6.9,0,0,0,2.734-.578V16.6a6.863,6.863,0,0,1-1.3.426A7.31,7.31,0,0,1,53.484,17.156Zm-.352-7.789a2.118,2.118,0,0,0-1.645.672,3.1,3.1,0,0,0-.723,1.859h4.477A2.851,2.851,0,0,0,54.7,10.02,1.925,1.925,0,0,0,53.133,9.367Zm8.477,6.719a4.236,4.236,0,0,0,.664-.051,4.3,4.3,0,0,0,.508-.105v.992a2.371,2.371,0,0,1-.621.168,4.664,4.664,0,0,1-.738.066q-2.484,0-2.484-2.617V9.445H57.711V8.82l1.227-.539.547-1.828h.75V8.438h2.484V9.445H60.234v5.039a1.734,1.734,0,0,0,.367,1.188A1.278,1.278,0,0,0,61.609,16.086ZM69.758,17,69.5,15.781h-.062a3.6,3.6,0,0,1-1.277,1.09,3.893,3.893,0,0,1-1.59.285,2.86,2.86,0,0,1-2-.656,2.394,2.394,0,0,1-.723-1.867q0-2.594,4.148-2.719l1.453-.047v-.531a2.171,2.171,0,0,0-.434-1.488,1.783,1.783,0,0,0-1.387-.48,5.65,5.65,0,0,0-2.422.656l-.4-.992A6.094,6.094,0,0,1,66.2,8.492a6.006,6.006,0,0,1,1.512-.2,3.262,3.262,0,0,1,2.27.68,2.837,2.837,0,0,1,.738,2.18V17Zm-2.93-.914a2.632,2.632,0,0,0,1.9-.664,2.457,2.457,0,0,0,.691-1.859v-.773l-1.3.055a4.717,4.717,0,0,0-2.23.48,1.449,1.449,0,0,0-.684,1.324,1.336,1.336,0,0,0,.426,1.07A1.767,1.767,0,0,0,66.828,16.086ZM77.3,8.281a5.075,5.075,0,0,1,1.023.094l-.18,1.2a4.418,4.418,0,0,0-.937-.117,2.282,2.282,0,0,0-1.777.844,3.077,3.077,0,0,0-.738,2.1V17h-1.3V8.438h1.07l.148,1.586h.063A3.764,3.764,0,0,1,75.82,8.734,2.585,2.585,0,0,1,77.3,8.281Zm12.3,6.383a2.145,2.145,0,0,1-.891,1.844,4.186,4.186,0,0,1-2.5.648,5.436,5.436,0,0,1-2.656-.539v-1.2a6.424,6.424,0,0,0,1.324.492,5.53,5.53,0,0,0,1.363.18,3.092,3.092,0,0,0,1.563-.324,1.116,1.116,0,0,0,.113-1.844,6.82,6.82,0,0,0-1.691-.84,9.172,9.172,0,0,1-1.7-.777,2.321,2.321,0,0,1-.75-.754,1.966,1.966,0,0,1-.246-1.008,1.921,1.921,0,0,1,.852-1.652,3.968,3.968,0,0,1,2.336-.605,6.835,6.835,0,0,1,2.7.563L88.961,9.9a6.2,6.2,0,0,0-2.336-.531,2.687,2.687,0,0,0-1.391.289.894.894,0,0,0-.469.8.971.971,0,0,0,.176.586,1.735,1.735,0,0,0,.566.461,12.657,12.657,0,0,0,1.5.633,5.6,5.6,0,0,1,2.059,1.117A1.97,1.97,0,0,1,89.6,14.664ZM93.008,17h-1.3V8.438h1.3ZM91.6,6.117a.861.861,0,0,1,.219-.652.81.81,0,0,1,1.086,0,.846.846,0,0,1,.227.648.859.859,0,0,1-.227.652.794.794,0,0,1-1.086,0A.877.877,0,0,1,91.6,6.117ZM101.617,17V11.461a2.235,2.235,0,0,0-.477-1.562,1.941,1.941,0,0,0-1.492-.516,2.461,2.461,0,0,0-1.969.727,3.668,3.668,0,0,0-.625,2.4V17h-1.3V8.438h1.055l.211,1.172h.063a2.648,2.648,0,0,1,1.117-.98,3.63,3.63,0,0,1,1.6-.348,3.252,3.252,0,0,1,2.328.746,3.175,3.175,0,0,1,.781,2.387V17Zm12.1.156a3.706,3.706,0,0,1-1.527-.309,2.872,2.872,0,0,1-1.16-.949h-.094a11.485,11.485,0,0,1,.094,1.422v3.523h-1.3V8.438h1.055l.18,1.172h.063A3.012,3.012,0,0,1,112.2,8.594a3.539,3.539,0,0,1,1.523-.312,3.165,3.165,0,0,1,2.629,1.164,5.125,5.125,0,0,1,.926,3.266,5.1,5.1,0,0,1-.941,3.277A3.17,3.17,0,0,1,113.719,17.156Zm-.187-7.773a2.3,2.3,0,0,0-1.9.727,3.739,3.739,0,0,0-.6,2.313v.289a4.285,4.285,0,0,0,.6,2.582,2.288,2.288,0,0,0,1.93.777,2.007,2.007,0,0,0,1.738-.9,4.26,4.26,0,0,0,.629-2.477,4.1,4.1,0,0,0-.629-2.457A2.069,2.069,0,0,0,113.531,9.383Zm7.227-.945v5.555a2.235,2.235,0,0,0,.477,1.563,1.941,1.941,0,0,0,1.492.516,2.435,2.435,0,0,0,1.965-.734,3.7,3.7,0,0,0,.621-2.4v-4.5h1.3V17h-1.07l-.187-1.148h-.07a2.585,2.585,0,0,1-1.105.969,3.716,3.716,0,0,1-1.613.336,3.273,3.273,0,0,1-2.34-.742,3.159,3.159,0,0,1-.777-2.375v-5.6ZM135.219,17V11.461a2.235,2.235,0,0,0-.477-1.562,1.941,1.941,0,0,0-1.492-.516,2.461,2.461,0,0,0-1.969.727,3.668,3.668,0,0,0-.625,2.4V17h-1.3V8.438h1.055l.211,1.172h.063a2.648,2.648,0,0,1,1.117-.98,3.63,3.63,0,0,1,1.6-.348,3.252,3.252,0,0,1,2.328.746,3.175,3.175,0,0,1,.781,2.387V17Zm6.727-.914a4.236,4.236,0,0,0,.664-.051,4.3,4.3,0,0,0,.508-.105v.992a2.371,2.371,0,0,1-.621.168,4.664,4.664,0,0,1-.738.066q-2.484,0-2.484-2.617V9.445h-1.227V8.82l1.227-.539.547-1.828h.75V8.438h2.484V9.445H140.57v5.039a1.733,1.733,0,0,0,.367,1.188A1.278,1.278,0,0,0,141.945,16.086Zm10.273-3.375a4.724,4.724,0,0,1-1.055,3.27,3.714,3.714,0,0,1-2.914,1.176,3.86,3.86,0,0,1-2.039-.539,3.558,3.558,0,0,1-1.375-1.547,5.391,5.391,0,0,1-.484-2.359A4.716,4.716,0,0,1,145.4,9.449,3.7,3.7,0,0,1,148.3,8.281a3.622,3.622,0,0,1,2.855,1.2A4.7,4.7,0,0,1,152.219,12.711Zm-6.523,0a4.064,4.064,0,0,0,.656,2.5,2.6,2.6,0,0,0,3.863,0,4.043,4.043,0,0,0,.66-2.5,3.978,3.978,0,0,0-.66-2.48,2.32,2.32,0,0,0-1.949-.848,2.283,2.283,0,0,0-1.922.836A4.023,4.023,0,0,0,145.7,12.711Zm14.32,1.953a2.145,2.145,0,0,1-.891,1.844,4.186,4.186,0,0,1-2.5.648,5.436,5.436,0,0,1-2.656-.539v-1.2a6.423,6.423,0,0,0,1.324.492,5.53,5.53,0,0,0,1.363.18,3.092,3.092,0,0,0,1.563-.324,1.116,1.116,0,0,0,.113-1.844,6.82,6.82,0,0,0-1.691-.84,9.172,9.172,0,0,1-1.7-.777,2.321,2.321,0,0,1-.75-.754,1.966,1.966,0,0,1-.246-1.008,1.921,1.921,0,0,1,.852-1.652,3.968,3.968,0,0,1,2.336-.605,6.835,6.835,0,0,1,2.7.563L159.375,9.9a6.2,6.2,0,0,0-2.336-.531,2.688,2.688,0,0,0-1.391.289.894.894,0,0,0-.469.8.971.971,0,0,0,.176.586,1.735,1.735,0,0,0,.566.461,12.659,12.659,0,0,0,1.5.633,5.6,5.6,0,0,1,2.059,1.117A1.97,1.97,0,0,1,160.016,14.664ZM172.141,17V11.461a2.235,2.235,0,0,0-.477-1.562,1.941,1.941,0,0,0-1.492-.516,2.461,2.461,0,0,0-1.969.727,3.668,3.668,0,0,0-.625,2.4V17h-1.3V8.438h1.055l.211,1.172h.063a2.648,2.648,0,0,1,1.117-.98,3.63,3.63,0,0,1,1.6-.348,3.252,3.252,0,0,1,2.328.746,3.175,3.175,0,0,1,.781,2.387V17Zm5.258,0h-1.3V8.438h1.3ZM175.992,6.117a.861.861,0,0,1,.219-.652.81.81,0,0,1,1.086,0,.846.846,0,0,1,.227.648.859.859,0,0,1-.227.652.794.794,0,0,1-1.086,0A.877.877,0,0,1,175.992,6.117Zm15.32,2.32v.82l-1.586.188a2.785,2.785,0,0,1,.563,1.711,2.531,2.531,0,0,1-.859,2.008,3.467,3.467,0,0,1-2.359.75,3.929,3.929,0,0,1-.719-.062,1.276,1.276,0,0,0-.828,1.1.56.56,0,0,0,.289.52,2.112,2.112,0,0,0,.992.168h1.516a3.394,3.394,0,0,1,2.137.586,2.036,2.036,0,0,1,.746,1.7,2.431,2.431,0,0,1-1.141,2.168,6.1,6.1,0,0,1-3.328.746,4.547,4.547,0,0,1-2.59-.625,2.018,2.018,0,0,1-.91-1.766,1.983,1.983,0,0,1,.5-1.352,2.546,2.546,0,0,1,1.406-.773,1.357,1.357,0,0,1-.551-.461,1.22,1.22,0,0,1-.223-.727,1.379,1.379,0,0,1,.25-.82,2.628,2.628,0,0,1,.789-.68,2.313,2.313,0,0,1-1.082-.93,2.732,2.732,0,0,1-.418-1.5,2.771,2.771,0,0,1,.844-2.168,3.445,3.445,0,0,1,2.391-.762,4.347,4.347,0,0,1,1.211.156Zm-6.828,10a1.162,1.162,0,0,0,.586,1.055,3.234,3.234,0,0,0,1.68.359,4.687,4.687,0,0,0,2.418-.488,1.5,1.5,0,0,0,.785-1.324,1.048,1.048,0,0,0-.43-.965,3.337,3.337,0,0,0-1.617-.27h-1.555a2.048,2.048,0,0,0-1.375.422A1.507,1.507,0,0,0,184.484,18.438Zm.7-7.258a1.743,1.743,0,0,0,.508,1.359,2.028,2.028,0,0,0,1.414.461,1.654,1.654,0,0,0,1.9-1.844,1.7,1.7,0,0,0-1.922-1.93,1.9,1.9,0,0,0-1.406.492A1.982,1.982,0,0,0,185.188,11.18Zm9.1-2.742v5.555a2.235,2.235,0,0,0,.477,1.563,1.941,1.941,0,0,0,1.492.516,2.435,2.435,0,0,0,1.965-.734,3.7,3.7,0,0,0,.621-2.4v-4.5h1.3V17h-1.07l-.187-1.148h-.07a2.585,2.585,0,0,1-1.105.969,3.716,3.716,0,0,1-1.613.336,3.273,3.273,0,0,1-2.34-.742,3.159,3.159,0,0,1-.777-2.375v-5.6Zm9.9,8.563h-1.3V8.438h1.3ZM202.781,6.117A.861.861,0,0,1,203,5.465a.81.81,0,0,1,1.086,0,.846.846,0,0,1,.227.648.859.859,0,0,1-.227.652.794.794,0,0,1-1.086,0A.877.877,0,0,1,202.781,6.117Zm11.547,6.594a4.724,4.724,0,0,1-1.055,3.27,3.714,3.714,0,0,1-2.914,1.176,3.86,3.86,0,0,1-2.039-.539,3.558,3.558,0,0,1-1.375-1.547,5.391,5.391,0,0,1-.484-2.359,4.716,4.716,0,0,1,1.047-3.262,3.7,3.7,0,0,1,2.906-1.168,3.622,3.622,0,0,1,2.855,1.2A4.7,4.7,0,0,1,214.328,12.711Zm-6.523,0a4.064,4.064,0,0,0,.656,2.5,2.6,2.6,0,0,0,3.863,0,4.043,4.043,0,0,0,.66-2.5,3.978,3.978,0,0,0-.66-2.48,2.32,2.32,0,0,0-1.949-.848,2.283,2.283,0,0,0-1.922.836A4.023,4.023,0,0,0,207.8,12.711ZM222.461,17V11.461a2.235,2.235,0,0,0-.477-1.562,1.941,1.941,0,0,0-1.492-.516,2.461,2.461,0,0,0-1.969.727,3.668,3.668,0,0,0-.625,2.4V17h-1.3V8.438h1.055l.211,1.172h.063a2.648,2.648,0,0,1,1.117-.98,3.63,3.63,0,0,1,1.6-.348,3.252,3.252,0,0,1,2.328.746,3.175,3.175,0,0,1,.781,2.387V17Zm7.578.156a3.934,3.934,0,0,1-3-1.156,4.476,4.476,0,0,1-1.1-3.211,4.964,4.964,0,0,1,1.02-3.289A3.387,3.387,0,0,1,229.7,8.281,3.229,3.229,0,0,1,232.25,9.34a4.057,4.057,0,0,1,.938,2.793v.82h-5.9a3.394,3.394,0,0,0,.762,2.289,2.634,2.634,0,0,0,2.035.781,6.9,6.9,0,0,0,2.734-.578V16.6a6.863,6.863,0,0,1-1.3.426A7.31,7.31,0,0,1,230.039,17.156Zm-.352-7.789a2.118,2.118,0,0,0-1.645.672,3.1,3.1,0,0,0-.723,1.859H231.8a2.851,2.851,0,0,0-.547-1.879A1.925,1.925,0,0,0,229.688,9.367Zm11.234,5.3a2.145,2.145,0,0,1-.891,1.844,4.186,4.186,0,0,1-2.5.648,5.436,5.436,0,0,1-2.656-.539v-1.2a6.423,6.423,0,0,0,1.324.492,5.53,5.53,0,0,0,1.363.18,3.092,3.092,0,0,0,1.563-.324,1.116,1.116,0,0,0,.113-1.844,6.82,6.82,0,0,0-1.691-.84,9.172,9.172,0,0,1-1.7-.777,2.321,2.321,0,0,1-.75-.754,1.966,1.966,0,0,1-.246-1.008,1.921,1.921,0,0,1,.852-1.652,3.968,3.968,0,0,1,2.336-.605,6.835,6.835,0,0,1,2.7.563L240.281,9.9a6.2,6.2,0,0,0-2.336-.531,2.688,2.688,0,0,0-1.391.289.894.894,0,0,0-.469.8.971.971,0,0,0,.176.586,1.735,1.735,0,0,0,.566.461,12.659,12.659,0,0,0,1.5.633,5.6,5.6,0,0,1,2.059,1.117A1.97,1.97,0,0,1,240.922,14.664Zm1.922,1.508a1.164,1.164,0,0,1,.238-.793.864.864,0,0,1,.684-.27.924.924,0,0,1,.707.27,1.116,1.116,0,0,1,.254.793,1.1,1.1,0,0,1-.258.781,1.025,1.025,0,0,1-1.363.027A1.07,1.07,0,0,1,242.844,16.172Z" transform="translate(698.632 3954)" fill="#38485c"/>
    <path id="Trazado_27669" data-name="Trazado 27669" d="M2.261,17a.862.862,0,0,1-.637-.229.838.838,0,0,1-.229-.621V5.865a.838.838,0,0,1,.229-.621.862.862,0,0,1,.637-.229H5.593a6.17,6.17,0,0,1,4.5,1.564A5.9,5.9,0,0,1,11.7,11a5.932,5.932,0,0,1-1.6,4.428A6.15,6.15,0,0,1,5.593,17Zm3.23-1.462q4.42,0,4.42-4.539,0-4.522-4.42-4.522H3.145v9.061ZM23.069,4.93a.786.786,0,0,1,.6.246.9.9,0,0,1,.229.638V16.2a.88.88,0,0,1-.238.637.813.813,0,0,1-.612.247.78.78,0,0,1-.68-.34L15.708,7.956V16.2a.9.9,0,0,1-.229.637.786.786,0,0,1-.6.247.773.773,0,0,1-.6-.238.912.912,0,0,1-.221-.646V5.814a.88.88,0,0,1,.238-.638.813.813,0,0,1,.612-.246.78.78,0,0,1,.68.34l6.664,8.806V5.814a.919.919,0,0,1,.221-.638A.759.759,0,0,1,23.069,4.93ZM27.54,17.085a.85.85,0,0,1-.629-.238.873.873,0,0,1-.238-.646V5.814a.88.88,0,0,1,.238-.638.834.834,0,0,1,.629-.246.821.821,0,0,1,.884.884V16.2a.891.891,0,0,1-.229.646A.867.867,0,0,1,27.54,17.085ZM40.885,7.361a.565.565,0,0,1,.476.17.66.66,0,0,1,0,.884.565.565,0,0,1-.476.17L39.015,8.5l1,1.564a.656.656,0,0,1,.1.34.565.565,0,0,1-.2.434.648.648,0,0,1-.451.179.545.545,0,0,1-.51-.34l-.85-1.649-.867,1.666a.525.525,0,0,1-.51.323.7.7,0,0,1-.459-.17.531.531,0,0,1-.2-.425.59.59,0,0,1,.119-.34l1-1.581-1.87.085a.541.541,0,0,1-.468-.17.686.686,0,0,1,0-.884.541.541,0,0,1,.468-.17l1.87.085-1-1.564a.613.613,0,0,1-.119-.357.54.54,0,0,1,.2-.425.666.666,0,0,1,.451-.17.556.556,0,0,1,.527.34l.867,1.666.85-1.666a.545.545,0,0,1,.51-.34.648.648,0,0,1,.451.178.565.565,0,0,1,.2.434.722.722,0,0,1-.1.34l-1,1.564Z" transform="translate(698.632 3929)" fill="#38485c"/>
    <path id="Trazado_27671" data-name="Trazado 27671" d="M8.4-3.808a1.074,1.074,0,0,1,.72.208.741.741,0,0,1,.24.592q0,.8-.96.8H7.584V-.944a1.021,1.021,0,0,1-.28.768A1,1,0,0,1,6.576.1a1,1,0,0,1-.728-.272,1.021,1.021,0,0,1-.28-.768V-2.208H1.376A.892.892,0,0,1,.7-2.456a.851.851,0,0,1-.24-.616A1.234,1.234,0,0,1,.72-3.808l4.944-7.1a1.079,1.079,0,0,1,.4-.344,1.1,1.1,0,0,1,.5-.12,1.044,1.044,0,0,1,.72.272.977.977,0,0,1,.3.768v6.528Zm-5.808,0H5.568v-4.3ZM15.12-8.016a3.243,3.243,0,0,1,1.8.512,3.4,3.4,0,0,1,1.232,1.448,5,5,0,0,1,.44,2.152,4.845,4.845,0,0,1-.44,2.128A3.333,3.333,0,0,1,16.928-.368a3.309,3.309,0,0,1-1.808.5,3.1,3.1,0,0,1-1.488-.352A2.47,2.47,0,0,1,12.624-1.2V2.064a.83.83,0,0,1-.272.656,1.048,1.048,0,0,1-.72.24A1.037,1.037,0,0,1,10.9,2.7a.868.868,0,0,1-.28-.672V-7.04a.914.914,0,0,1,.264-.688.979.979,0,0,1,.712-.256,1.008,1.008,0,0,1,.72.256.9.9,0,0,1,.272.688v.4a2.455,2.455,0,0,1,1.016-1.016A3.121,3.121,0,0,1,15.12-8.016Zm-.528,6.592a1.793,1.793,0,0,0,1.472-.648A2.829,2.829,0,0,0,16.592-3.9a2.989,2.989,0,0,0-.528-1.888,1.766,1.766,0,0,0-1.472-.672,1.779,1.779,0,0,0-1.48.656,2.952,2.952,0,0,0-.52,1.872,2.923,2.923,0,0,0,.52,1.856A1.779,1.779,0,0,0,14.592-1.424Zm12.256-.048a.9.9,0,0,1,.288.656.885.885,0,0,1-.272.632.864.864,0,0,1-.64.28.878.878,0,0,1-.688-.336l-2.256-2.5L21.024-.24a.928.928,0,0,1-.688.32.858.858,0,0,1-.624-.272.858.858,0,0,1-.272-.624.9.9,0,0,1,.288-.656l2.336-2.544-2.208-2.4a.9.9,0,0,1-.288-.656A.85.85,0,0,1,19.84-7.7a.871.871,0,0,1,.624-.264.928.928,0,0,1,.688.32L23.28-5.312l2.128-2.336a.928.928,0,0,1,.688-.32.862.862,0,0,1,.632.264.862.862,0,0,1,.264.632.9.9,0,0,1-.288.656L24.5-4.016Z" transform="translate(1054.632 3982.28)" fill="#38485c"/>
    <path id="Trazado_27689" data-name="Trazado 27689" d="M8.4-3.808a1.074,1.074,0,0,1,.72.208.741.741,0,0,1,.24.592q0,.8-.96.8H7.584V-.944a1.021,1.021,0,0,1-.28.768A1,1,0,0,1,6.576.1a1,1,0,0,1-.728-.272,1.021,1.021,0,0,1-.28-.768V-2.208H1.376A.892.892,0,0,1,.7-2.456a.851.851,0,0,1-.24-.616A1.234,1.234,0,0,1,.72-3.808l4.944-7.1a1.079,1.079,0,0,1,.4-.344,1.1,1.1,0,0,1,.5-.12,1.044,1.044,0,0,1,.72.272.977.977,0,0,1,.3.768v6.528Zm-5.808,0H5.568v-4.3ZM15.12-8.016a3.243,3.243,0,0,1,1.8.512,3.4,3.4,0,0,1,1.232,1.448,5,5,0,0,1,.44,2.152,4.845,4.845,0,0,1-.44,2.128A3.333,3.333,0,0,1,16.928-.368a3.309,3.309,0,0,1-1.808.5,3.1,3.1,0,0,1-1.488-.352A2.47,2.47,0,0,1,12.624-1.2V2.064a.83.83,0,0,1-.272.656,1.048,1.048,0,0,1-.72.24A1.037,1.037,0,0,1,10.9,2.7a.868.868,0,0,1-.28-.672V-7.04a.914.914,0,0,1,.264-.688.979.979,0,0,1,.712-.256,1.008,1.008,0,0,1,.72.256.9.9,0,0,1,.272.688v.4a2.455,2.455,0,0,1,1.016-1.016A3.121,3.121,0,0,1,15.12-8.016Zm-.528,6.592a1.793,1.793,0,0,0,1.472-.648A2.829,2.829,0,0,0,16.592-3.9a2.989,2.989,0,0,0-.528-1.888,1.766,1.766,0,0,0-1.472-.672,1.779,1.779,0,0,0-1.48.656,2.952,2.952,0,0,0-.52,1.872,2.923,2.923,0,0,0,.52,1.856A1.779,1.779,0,0,0,14.592-1.424Zm12.256-.048a.9.9,0,0,1,.288.656.885.885,0,0,1-.272.632.864.864,0,0,1-.64.28.878.878,0,0,1-.688-.336l-2.256-2.5L21.024-.24a.928.928,0,0,1-.688.32.858.858,0,0,1-.624-.272.858.858,0,0,1-.272-.624.9.9,0,0,1,.288-.656l2.336-2.544-2.208-2.4a.9.9,0,0,1-.288-.656A.85.85,0,0,1,19.84-7.7a.871.871,0,0,1,.624-.264.928.928,0,0,1,.688.32L23.28-5.312l2.128-2.336a.928.928,0,0,1,.688-.32.862.862,0,0,1,.632.264.862.862,0,0,1,.264.632.9.9,0,0,1-.288.656L24.5-4.016Z" transform="translate(1054.632 4116.495)" fill="#38485c"/>
    <g id="Grupo_20737" data-name="Grupo 20737" transform="translate(698.632 3980)">
      <rect id="Rectángulo_3425" data-name="Rectángulo 3425" width="13" height="340" transform="translate(340) rotate(90)" fill="#007bc7" opacity="0.24"/>
      <path id="Trazado_4669" data-name="Trazado 4669" d="M0,339.991V0" transform="translate(339.991 12.831) rotate(90)" fill="none" stroke="#007bc7" stroke-width="1" stroke-dasharray="5 2"/>
      <path id="Trazado_4670" data-name="Trazado 4670" d="M0,339.991V0" transform="translate(339.991) rotate(90)" fill="none" stroke="#007bc7" stroke-width="1" stroke-dasharray="5 2"/>
    </g>
    <g id="Grupo_20738" data-name="Grupo 20738" transform="translate(698.632 4015.293)">
      <rect id="Rectángulo_3425-2" data-name="Rectángulo 3425" width="13" height="340" transform="translate(340 -0.292) rotate(90)" fill="#007bc7" opacity="0.24"/>
      <path id="Trazado_4669-2" data-name="Trazado 4669" d="M0,339.991V0" transform="translate(339.991 12.648) rotate(90)" fill="none" stroke="#007bc7" stroke-width="1" stroke-dasharray="5 2"/>
      <path id="Trazado_4670-2" data-name="Trazado 4670" d="M0,339.991V0" transform="translate(339.991) rotate(90)" fill="none" stroke="#007bc7" stroke-width="1" stroke-dasharray="5 2"/>
    </g>
    <g id="Grupo_20739" data-name="Grupo 20739" transform="translate(698.632 3975.582)">
      <rect id="Rectángulo_3425-3" data-name="Rectángulo 3425" width="4" height="340" transform="translate(340) rotate(90)" fill="#38485c" opacity="0.24"/>
      <path id="Trazado_4669-3" data-name="Trazado 4669" d="M0,339.991V0" transform="translate(339.991 3.981) rotate(90)" fill="none" stroke="#38485c" stroke-width="1" stroke-dasharray="5 2"/>
      <path id="Trazado_4670-3" data-name="Trazado 4670" d="M0,339.991V0" transform="translate(339.991) rotate(90)" fill="none" stroke="#38485c" stroke-width="1" stroke-dasharray="5 2"/>
    </g>
    <g id="Grupo_20740" data-name="Grupo 20740" transform="translate(698.632 3952)">
      <rect id="Rectángulo_3425-4" data-name="Rectángulo 3425" width="2" height="340" transform="translate(340) rotate(90)" fill="#38485c" opacity="0.24"/>
      <path id="Trazado_4669-4" data-name="Trazado 4669" d="M0,339.991V0" transform="translate(339.991 1.991) rotate(90)" fill="none" stroke="#38485c" stroke-width="1" stroke-dasharray="5 2"/>
      <path id="Trazado_4670-4" data-name="Trazado 4670" d="M0,339.991V0" transform="translate(339.991) rotate(90)" fill="none" stroke="#38485c" stroke-width="1" stroke-dasharray="5 2"/>
    </g>
    <path id="Trazado_27677" data-name="Trazado 27677" d="M-29.152-1.664q.96,0,.96.816,0,.848-.96.848H-34.56q-.976,0-.976-.848,0-.816.976-.816H-32.9v-7.3l-1.536.944a.827.827,0,0,1-.4.128.7.7,0,0,1-.568-.288,1,1,0,0,1-.232-.64.8.8,0,0,1,.416-.72l2.48-1.536a1.782,1.782,0,0,1,.912-.288.973.973,0,0,1,.72.272,1.016,1.016,0,0,1,.272.752v8.672Zm8.112-4.128a2.681,2.681,0,0,1,1.544.968,2.856,2.856,0,0,1,.536,1.768,2.826,2.826,0,0,1-1.072,2.32,4.484,4.484,0,0,1-2.9.864,6.283,6.283,0,0,1-2-.32,4.814,4.814,0,0,1-1.632-.9.969.969,0,0,1-.368-.752.926.926,0,0,1,.2-.6.592.592,0,0,1,.472-.248.711.711,0,0,1,.288.056q.128.056.352.184a6.9,6.9,0,0,0,1.28.688,3.586,3.586,0,0,0,1.328.24,2.425,2.425,0,0,0,1.568-.424,1.576,1.576,0,0,0,.512-1.288,1.478,1.478,0,0,0-.536-1.256A2.732,2.732,0,0,0-23.12-4.9h-.912a.688.688,0,0,1-.568-.248.88.88,0,0,1-.2-.568.871.871,0,0,1,.2-.576.7.7,0,0,1,.568-.24h.64q2.192,0,2.192-1.648a1.508,1.508,0,0,0-.464-1.184,1.849,1.849,0,0,0-1.28-.416,4.424,4.424,0,0,0-2.5.928q-.224.128-.352.184a.711.711,0,0,1-.288.056.592.592,0,0,1-.472-.248.926.926,0,0,1-.2-.6.87.87,0,0,1,.088-.408,1.3,1.3,0,0,1,.28-.344,5.138,5.138,0,0,1,1.608-.888,5.742,5.742,0,0,1,1.912-.328,4.019,4.019,0,0,1,2.648.816,2.684,2.684,0,0,1,.984,2.176,2.917,2.917,0,0,1-.488,1.624A2.7,2.7,0,0,1-21.04-5.792Zm8.608-2.224a3.243,3.243,0,0,1,1.8.512A3.4,3.4,0,0,1-9.4-6.056,5,5,0,0,1-8.96-3.9,4.845,4.845,0,0,1-9.4-1.776,3.333,3.333,0,0,1-10.624-.368a3.309,3.309,0,0,1-1.808.5A3.1,3.1,0,0,1-13.92-.224,2.47,2.47,0,0,1-14.928-1.2V2.064a.83.83,0,0,1-.272.656,1.048,1.048,0,0,1-.72.24,1.037,1.037,0,0,1-.728-.256.868.868,0,0,1-.28-.672V-7.04a.914.914,0,0,1,.264-.688.979.979,0,0,1,.712-.256,1.008,1.008,0,0,1,.72.256.9.9,0,0,1,.272.688v.4a2.455,2.455,0,0,1,1.016-1.016A3.121,3.121,0,0,1-12.432-8.016Zm-.528,6.592a1.793,1.793,0,0,0,1.472-.648A2.829,2.829,0,0,0-10.96-3.9a2.989,2.989,0,0,0-.528-1.888,1.766,1.766,0,0,0-1.472-.672,1.779,1.779,0,0,0-1.48.656,2.952,2.952,0,0,0-.52,1.872,2.923,2.923,0,0,0,.52,1.856A1.779,1.779,0,0,0-12.96-1.424ZM-.688-1.472A.9.9,0,0,1-.4-.816a.885.885,0,0,1-.272.632.864.864,0,0,1-.64.28A.878.878,0,0,1-2-.24l-2.256-2.5L-6.512-.24A.928.928,0,0,1-7.2.08a.858.858,0,0,1-.624-.272A.858.858,0,0,1-8.1-.816a.9.9,0,0,1,.288-.656l2.336-2.544-2.208-2.4a.9.9,0,0,1-.288-.656A.85.85,0,0,1-7.7-7.7a.871.871,0,0,1,.624-.264.928.928,0,0,1,.688.32l2.128,2.336,2.128-2.336a.928.928,0,0,1,.688-.32A.862.862,0,0,1-.808-7.7a.862.862,0,0,1,.264.632.9.9,0,0,1-.288.656l-2.208,2.4Z" transform="translate(682.632 3990.04)" fill="#38485c"/>
    <path id="Trazado_27678" data-name="Trazado 27678" d="M-29.152-1.664q.96,0,.96.816,0,.848-.96.848H-34.56q-.976,0-.976-.848,0-.816.976-.816H-32.9v-7.3l-1.536.944a.827.827,0,0,1-.4.128.7.7,0,0,1-.568-.288,1,1,0,0,1-.232-.64.8.8,0,0,1,.416-.72l2.48-1.536a1.782,1.782,0,0,1,.912-.288.973.973,0,0,1,.72.272,1.016,1.016,0,0,1,.272.752v8.672Zm8.112-4.128a2.681,2.681,0,0,1,1.544.968,2.856,2.856,0,0,1,.536,1.768,2.826,2.826,0,0,1-1.072,2.32,4.484,4.484,0,0,1-2.9.864,6.283,6.283,0,0,1-2-.32,4.814,4.814,0,0,1-1.632-.9.969.969,0,0,1-.368-.752.926.926,0,0,1,.2-.6.592.592,0,0,1,.472-.248.711.711,0,0,1,.288.056q.128.056.352.184a6.9,6.9,0,0,0,1.28.688,3.586,3.586,0,0,0,1.328.24,2.425,2.425,0,0,0,1.568-.424,1.576,1.576,0,0,0,.512-1.288,1.478,1.478,0,0,0-.536-1.256A2.732,2.732,0,0,0-23.12-4.9h-.912a.688.688,0,0,1-.568-.248.88.88,0,0,1-.2-.568.871.871,0,0,1,.2-.576.7.7,0,0,1,.568-.24h.64q2.192,0,2.192-1.648a1.508,1.508,0,0,0-.464-1.184,1.849,1.849,0,0,0-1.28-.416,4.424,4.424,0,0,0-2.5.928q-.224.128-.352.184a.711.711,0,0,1-.288.056.592.592,0,0,1-.472-.248.926.926,0,0,1-.2-.6.87.87,0,0,1,.088-.408,1.3,1.3,0,0,1,.28-.344,5.138,5.138,0,0,1,1.608-.888,5.742,5.742,0,0,1,1.912-.328,4.019,4.019,0,0,1,2.648.816,2.684,2.684,0,0,1,.984,2.176,2.917,2.917,0,0,1-.488,1.624A2.7,2.7,0,0,1-21.04-5.792Zm8.608-2.224a3.243,3.243,0,0,1,1.8.512A3.4,3.4,0,0,1-9.4-6.056,5,5,0,0,1-8.96-3.9,4.845,4.845,0,0,1-9.4-1.776,3.333,3.333,0,0,1-10.624-.368a3.309,3.309,0,0,1-1.808.5A3.1,3.1,0,0,1-13.92-.224,2.47,2.47,0,0,1-14.928-1.2V2.064a.83.83,0,0,1-.272.656,1.048,1.048,0,0,1-.72.24,1.037,1.037,0,0,1-.728-.256.868.868,0,0,1-.28-.672V-7.04a.914.914,0,0,1,.264-.688.979.979,0,0,1,.712-.256,1.008,1.008,0,0,1,.72.256.9.9,0,0,1,.272.688v.4a2.455,2.455,0,0,1,1.016-1.016A3.121,3.121,0,0,1-12.432-8.016Zm-.528,6.592a1.793,1.793,0,0,0,1.472-.648A2.829,2.829,0,0,0-10.96-3.9a2.989,2.989,0,0,0-.528-1.888,1.766,1.766,0,0,0-1.472-.672,1.779,1.779,0,0,0-1.48.656,2.952,2.952,0,0,0-.52,1.872,2.923,2.923,0,0,0,.52,1.856A1.779,1.779,0,0,0-12.96-1.424ZM-.688-1.472A.9.9,0,0,1-.4-.816a.885.885,0,0,1-.272.632.864.864,0,0,1-.64.28A.878.878,0,0,1-2-.24l-2.256-2.5L-6.512-.24A.928.928,0,0,1-7.2.08a.858.858,0,0,1-.624-.272A.858.858,0,0,1-8.1-.816a.9.9,0,0,1,.288-.656l2.336-2.544-2.208-2.4a.9.9,0,0,1-.288-.656A.85.85,0,0,1-7.7-7.7a.871.871,0,0,1,.624-.264.928.928,0,0,1,.688.32l2.128,2.336,2.128-2.336a.928.928,0,0,1,.688-.32A.862.862,0,0,1-.808-7.7a.862.862,0,0,1,.264.632.9.9,0,0,1-.288.656l-2.208,2.4Z" transform="translate(682.632 4025.04)" fill="#38485c"/>
    <path id="Trazado_27680" data-name="Trazado 27680" d="M-19.616-1.664q.96,0,.96.816,0,.848-.96.848H-25.7a.87.87,0,0,1-.656-.248.851.851,0,0,1-.24-.616,1.218,1.218,0,0,1,.368-.864l3.648-3.92A6.316,6.316,0,0,0-21.592-7a2.691,2.691,0,0,0,.312-1.224,1.492,1.492,0,0,0-.432-1.152,1.748,1.748,0,0,0-1.232-.4,3.376,3.376,0,0,0-1.272.248,6.362,6.362,0,0,0-1.24.68,1.968,1.968,0,0,1-.32.184.774.774,0,0,1-.32.072.587.587,0,0,1-.472-.256.958.958,0,0,1-.2-.608.92.92,0,0,1,.088-.416,1.068,1.068,0,0,1,.28-.336,5.545,5.545,0,0,1,1.648-.888,5.721,5.721,0,0,1,1.888-.328,3.942,3.942,0,0,1,2.632.832,2.782,2.782,0,0,1,.984,2.24,4.136,4.136,0,0,1-.416,1.832,8.119,8.119,0,0,1-1.408,1.912L-23.84-1.664Zm7.184-6.352a3.243,3.243,0,0,1,1.8.512A3.4,3.4,0,0,1-9.4-6.056,5,5,0,0,1-8.96-3.9,4.845,4.845,0,0,1-9.4-1.776,3.333,3.333,0,0,1-10.624-.368a3.309,3.309,0,0,1-1.808.5A3.1,3.1,0,0,1-13.92-.224,2.47,2.47,0,0,1-14.928-1.2V2.064a.83.83,0,0,1-.272.656,1.048,1.048,0,0,1-.72.24,1.037,1.037,0,0,1-.728-.256.868.868,0,0,1-.28-.672V-7.04a.914.914,0,0,1,.264-.688.979.979,0,0,1,.712-.256,1.008,1.008,0,0,1,.72.256.9.9,0,0,1,.272.688v.4a2.455,2.455,0,0,1,1.016-1.016A3.121,3.121,0,0,1-12.432-8.016Zm-.528,6.592a1.793,1.793,0,0,0,1.472-.648A2.829,2.829,0,0,0-10.96-3.9a2.989,2.989,0,0,0-.528-1.888,1.766,1.766,0,0,0-1.472-.672,1.779,1.779,0,0,0-1.48.656,2.952,2.952,0,0,0-.52,1.872,2.923,2.923,0,0,0,.52,1.856A1.779,1.779,0,0,0-12.96-1.424ZM-.688-1.472A.9.9,0,0,1-.4-.816a.885.885,0,0,1-.272.632.864.864,0,0,1-.64.28A.878.878,0,0,1-2-.24l-2.256-2.5L-6.512-.24A.928.928,0,0,1-7.2.08a.858.858,0,0,1-.624-.272A.858.858,0,0,1-8.1-.816a.9.9,0,0,1,.288-.656l2.336-2.544-2.208-2.4a.9.9,0,0,1-.288-.656A.85.85,0,0,1-7.7-7.7a.871.871,0,0,1,.624-.264.928.928,0,0,1,.688.32l2.128,2.336,2.128-2.336a.928.928,0,0,1,.688-.32A.862.862,0,0,1-.808-7.7a.862.862,0,0,1,.264.632.9.9,0,0,1-.288.656l-2.208,2.4Z" transform="translate(1081.863 3958.28)" fill="#38485c"/>
    <g id="Grupo_20742" data-name="Grupo 20742" transform="translate(637 4057)">
      <rect id="Rectángulo_6037-2" data-name="Rectángulo 6037" width="340" height="48" rx="4" transform="translate(62 58)" fill="#fff"/>
    </g>
    <path id="Trazado_27683" data-name="Trazado 27683" d="M8.016,13.961a2.8,2.8,0,0,1-1.094,2.352,4.743,4.743,0,0,1-2.969.844,7.436,7.436,0,0,1-3.125-.523V15.352a8.227,8.227,0,0,0,1.531.469A8.056,8.056,0,0,0,4,15.992a3.31,3.31,0,0,0,2-.5,1.654,1.654,0,0,0,.672-1.4,1.8,1.8,0,0,0-.238-.973,2.214,2.214,0,0,0-.8-.7,11.148,11.148,0,0,0-1.7-.727A5.424,5.424,0,0,1,1.66,10.336,2.984,2.984,0,0,1,.977,8.3a2.536,2.536,0,0,1,.992-2.1,4.123,4.123,0,0,1,2.625-.781,7.736,7.736,0,0,1,3.133.625L7.313,7.2A7.08,7.08,0,0,0,4.563,6.6a2.661,2.661,0,0,0-1.648.453A1.493,1.493,0,0,0,2.32,8.313a1.928,1.928,0,0,0,.219.973,2.06,2.06,0,0,0,.738.7,9.173,9.173,0,0,0,1.59.7A6.294,6.294,0,0,1,7.34,12.055,2.7,2.7,0,0,1,8.016,13.961Zm5.758,3.2a3.934,3.934,0,0,1-3-1.156,4.476,4.476,0,0,1-1.1-3.211A4.964,4.964,0,0,1,10.7,9.5a3.387,3.387,0,0,1,2.738-1.219A3.229,3.229,0,0,1,15.984,9.34a4.057,4.057,0,0,1,.938,2.793v.82h-5.9a3.394,3.394,0,0,0,.762,2.289,2.635,2.635,0,0,0,2.035.781,6.9,6.9,0,0,0,2.734-.578V16.6a6.863,6.863,0,0,1-1.3.426A7.31,7.31,0,0,1,13.773,17.156Zm-.352-7.789a2.118,2.118,0,0,0-1.645.672,3.1,3.1,0,0,0-.723,1.859h4.477a2.851,2.851,0,0,0-.547-1.879A1.925,1.925,0,0,0,13.422,9.367ZM20.43,17h-1.3V4.844h1.3Zm6.367.156A3.934,3.934,0,0,1,23.8,16a4.476,4.476,0,0,1-1.1-3.211A4.964,4.964,0,0,1,23.723,9.5a3.387,3.387,0,0,1,2.738-1.219A3.229,3.229,0,0,1,29.008,9.34a4.057,4.057,0,0,1,.938,2.793v.82h-5.9a3.394,3.394,0,0,0,.762,2.289,2.635,2.635,0,0,0,2.035.781,6.9,6.9,0,0,0,2.734-.578V16.6a6.863,6.863,0,0,1-1.3.426A7.31,7.31,0,0,1,26.8,17.156Zm-.352-7.789a2.118,2.118,0,0,0-1.645.672,3.1,3.1,0,0,0-.723,1.859h4.477a2.851,2.851,0,0,0-.547-1.879A1.925,1.925,0,0,0,26.445,9.367Zm9.133,7.789A3.654,3.654,0,0,1,32.7,16.012a4.707,4.707,0,0,1-1.02-3.238,4.853,4.853,0,0,1,1.035-3.32,3.727,3.727,0,0,1,2.949-1.172,5.852,5.852,0,0,1,1.234.133,4.066,4.066,0,0,1,.969.313l-.4,1.1a6.1,6.1,0,0,0-.937-.285,4.186,4.186,0,0,0-.9-.113q-2.609,0-2.609,3.328a3.963,3.963,0,0,0,.637,2.422,2.215,2.215,0,0,0,1.887.844,5.769,5.769,0,0,0,2.2-.461v1.148A4.679,4.679,0,0,1,35.578,17.156Zm7.617,0a3.654,3.654,0,0,1-2.879-1.145,4.707,4.707,0,0,1-1.02-3.238,4.853,4.853,0,0,1,1.035-3.32,3.727,3.727,0,0,1,2.949-1.172,5.852,5.852,0,0,1,1.234.133,4.066,4.066,0,0,1,.969.313l-.4,1.1a6.1,6.1,0,0,0-.937-.285,4.186,4.186,0,0,0-.9-.113q-2.609,0-2.609,3.328a3.963,3.963,0,0,0,.637,2.422,2.215,2.215,0,0,0,1.887.844,5.769,5.769,0,0,0,2.2-.461v1.148A4.679,4.679,0,0,1,43.2,17.156ZM48.688,17h-1.3V8.438h1.3ZM47.281,6.117a.861.861,0,0,1,.219-.652.81.81,0,0,1,1.086,0,.846.846,0,0,1,.227.648.859.859,0,0,1-.227.652.794.794,0,0,1-1.086,0A.877.877,0,0,1,47.281,6.117Zm11.547,6.594a4.724,4.724,0,0,1-1.055,3.27,3.714,3.714,0,0,1-2.914,1.176,3.86,3.86,0,0,1-2.039-.539,3.558,3.558,0,0,1-1.375-1.547,5.391,5.391,0,0,1-.484-2.359,4.716,4.716,0,0,1,1.047-3.262,3.7,3.7,0,0,1,2.906-1.168,3.622,3.622,0,0,1,2.855,1.2A4.7,4.7,0,0,1,58.828,12.711Zm-6.523,0a4.064,4.064,0,0,0,.656,2.5,2.6,2.6,0,0,0,3.863,0,4.043,4.043,0,0,0,.66-2.5,3.978,3.978,0,0,0-.66-2.48,2.32,2.32,0,0,0-1.949-.848,2.283,2.283,0,0,0-1.922.836A4.023,4.023,0,0,0,52.3,12.711ZM66.961,17V11.461A2.235,2.235,0,0,0,66.484,9.9a1.941,1.941,0,0,0-1.492-.516,2.461,2.461,0,0,0-1.969.727,3.668,3.668,0,0,0-.625,2.4V17H61.1V8.438h1.055l.211,1.172h.063a2.648,2.648,0,0,1,1.117-.98,3.63,3.63,0,0,1,1.6-.348,3.252,3.252,0,0,1,2.328.746,3.175,3.175,0,0,1,.781,2.387V17Zm9.227,0-.258-1.219h-.062a3.6,3.6,0,0,1-1.277,1.09,3.893,3.893,0,0,1-1.59.285,2.86,2.86,0,0,1-2-.656,2.394,2.394,0,0,1-.723-1.867q0-2.594,4.148-2.719l1.453-.047v-.531a2.171,2.171,0,0,0-.434-1.488,1.783,1.783,0,0,0-1.387-.48,5.65,5.65,0,0,0-2.422.656l-.4-.992a6.094,6.094,0,0,1,1.387-.539,6.006,6.006,0,0,1,1.512-.2,3.262,3.262,0,0,1,2.27.68,2.837,2.837,0,0,1,.738,2.18V17Zm-2.93-.914a2.632,2.632,0,0,0,1.9-.664,2.457,2.457,0,0,0,.691-1.859v-.773l-1.3.055a4.717,4.717,0,0,0-2.23.48,1.449,1.449,0,0,0-.684,1.324,1.336,1.336,0,0,0,.426,1.07A1.767,1.767,0,0,0,73.258,16.086Zm10.469-7.8a5.075,5.075,0,0,1,1.023.094l-.18,1.2a4.418,4.418,0,0,0-.937-.117,2.282,2.282,0,0,0-1.777.844,3.077,3.077,0,0,0-.738,2.1V17h-1.3V8.438h1.07l.148,1.586H81.1A3.764,3.764,0,0,1,82.25,8.734,2.585,2.585,0,0,1,83.727,8.281Zm2.438,7.891a1.164,1.164,0,0,1,.238-.793.864.864,0,0,1,.684-.27.924.924,0,0,1,.707.27,1.116,1.116,0,0,1,.254.793,1.1,1.1,0,0,1-.258.781,1.025,1.025,0,0,1-1.363.027A1.07,1.07,0,0,1,86.164,16.172Zm4.141,0a1.164,1.164,0,0,1,.238-.793.864.864,0,0,1,.684-.27.924.924,0,0,1,.707.27,1.116,1.116,0,0,1,.254.793,1.1,1.1,0,0,1-.258.781,1.025,1.025,0,0,1-1.363.027A1.07,1.07,0,0,1,90.3,16.172Zm4.148,0a1.164,1.164,0,0,1,.238-.793.864.864,0,0,1,.684-.27.924.924,0,0,1,.707.27,1.116,1.116,0,0,1,.254.793,1.1,1.1,0,0,1-.258.781,1.025,1.025,0,0,1-1.363.027A1.07,1.07,0,0,1,94.453,16.172Z" transform="translate(715 4128)" fill="#8a98a8"/>
    <path id="Trazado_27684" data-name="Trazado 27684" d="M2.261,17.085a.85.85,0,0,1-.629-.238.873.873,0,0,1-.238-.646V5.865a.838.838,0,0,1,.229-.621.862.862,0,0,1,.637-.229h4.1a4.308,4.308,0,0,1,2.958.935A3.359,3.359,0,0,1,10.37,8.6a3.391,3.391,0,0,1-1.054,2.652,4.258,4.258,0,0,1-2.958.952H3.145v4a.891.891,0,0,1-.23.646A.867.867,0,0,1,2.261,17.085Zm3.91-6.29q2.516,0,2.516-2.193,0-2.176-2.516-2.176H3.145V10.8Zm9.367-2.3a3.278,3.278,0,0,1,2.456.833,3.513,3.513,0,0,1,.808,2.533v4.4a.8.8,0,0,1-.221.6.846.846,0,0,1-.612.212.762.762,0,0,1-.816-.816V15.64a2.391,2.391,0,0,1-.961,1.1,2.835,2.835,0,0,1-1.487.382,3.368,3.368,0,0,1-1.5-.331,2.57,2.57,0,0,1-1.062-.927,2.4,2.4,0,0,1-.382-1.326,2.042,2.042,0,0,1,.467-1.419,2.788,2.788,0,0,1,1.547-.74,15.539,15.539,0,0,1,2.966-.221h.391v-.493a2,2,0,0,0-.391-1.377,1.637,1.637,0,0,0-1.258-.425,4.006,4.006,0,0,0-1.122.153,8.436,8.436,0,0,0-1.156.442,1.666,1.666,0,0,1-.646.255.525.525,0,0,1-.417-.187.7.7,0,0,1-.161-.476.738.738,0,0,1,.144-.45,1.522,1.522,0,0,1,.468-.383A5.812,5.812,0,0,1,13.991,8.7,6.5,6.5,0,0,1,15.538,8.5Zm-.527,7.344a2,2,0,0,0,1.53-.637,2.308,2.308,0,0,0,.595-1.641v-.442H16.83a13.244,13.244,0,0,0-2.04.119,2,2,0,0,0-1.02.4,1.04,1.04,0,0,0-.306.807,1.279,1.279,0,0,0,.442,1A1.607,1.607,0,0,0,15.011,15.844ZM22,17.085a.941.941,0,0,1-.62-.2.749.749,0,0,1-.247-.612v-6.9a.774.774,0,0,1,.247-.621A.917.917,0,0,1,22,8.534a.884.884,0,0,1,.612.212.789.789,0,0,1,.238.621v6.9a.762.762,0,0,1-.238.612A.907.907,0,0,1,22,17.085Zm.357-9.5a.484.484,0,0,1-.654-.017.429.429,0,0,1-.145-.323.453.453,0,0,1,.119-.306l1.836-2.4a.969.969,0,0,1,.782-.459.739.739,0,0,1,.544.221.719.719,0,0,1,.221.527.96.96,0,0,1-.408.731Zm5.763,9.537a5.145,5.145,0,0,1-2.839-.714,1.292,1.292,0,0,1-.433-.391.848.848,0,0,1-.128-.459.7.7,0,0,1,.153-.459.483.483,0,0,1,.391-.187,1.676,1.676,0,0,1,.7.272,7.152,7.152,0,0,0,.995.442,3.715,3.715,0,0,0,1.215.17,2.387,2.387,0,0,0,1.275-.289.913.913,0,0,0,.459-.816.8.8,0,0,0-.178-.544,1.513,1.513,0,0,0-.621-.366A10.586,10.586,0,0,0,27.8,13.43a5.043,5.043,0,0,1-2.15-.875,1.865,1.865,0,0,1-.655-1.5,2.191,2.191,0,0,1,.425-1.318,2.76,2.76,0,0,1,1.173-.91,4.25,4.25,0,0,1,1.7-.323,4.956,4.956,0,0,1,1.326.179,3.746,3.746,0,0,1,1.139.519,1.054,1.054,0,0,1,.561.867.678.678,0,0,1-.161.459.491.491,0,0,1-.382.187.748.748,0,0,1-.306-.068,4.038,4.038,0,0,1-.408-.221A5.71,5.71,0,0,0,29.2,10a2.8,2.8,0,0,0-.995-.153,1.951,1.951,0,0,0-1.147.306.967.967,0,0,0-.434.833.837.837,0,0,0,.4.74,4.9,4.9,0,0,0,1.5.5,8.245,8.245,0,0,1,1.785.544,2.115,2.115,0,0,1,.926.757,2.138,2.138,0,0,1,.281,1.147,2.092,2.092,0,0,1-.927,1.777A4.127,4.127,0,0,1,28.118,17.119ZM43.3,7.361a.565.565,0,0,1,.476.17.66.66,0,0,1,0,.884.565.565,0,0,1-.476.17L41.429,8.5l1,1.564a.656.656,0,0,1,.1.34.565.565,0,0,1-.2.434.648.648,0,0,1-.451.179.545.545,0,0,1-.51-.34l-.85-1.649-.867,1.666a.525.525,0,0,1-.51.323.7.7,0,0,1-.459-.17.531.531,0,0,1-.2-.425.59.59,0,0,1,.119-.34l1-1.581-1.87.085a.541.541,0,0,1-.468-.17.686.686,0,0,1,0-.884.541.541,0,0,1,.468-.17l1.87.085-1-1.564a.613.613,0,0,1-.119-.357.54.54,0,0,1,.2-.425.666.666,0,0,1,.451-.17.556.556,0,0,1,.527.34l.867,1.666.85-1.666a.545.545,0,0,1,.51-.34.648.648,0,0,1,.451.178.565.565,0,0,1,.2.434.722.722,0,0,1-.1.34l-1,1.564Z" transform="translate(699 4088)" fill="#38485c"/>
    <g id="arrow_drop_down_circle_black_24dp" transform="translate(1005 4128)">
      <path id="Trazado_27634" data-name="Trazado 27634" d="M0,0H22V22H0Z" transform="translate(0 0)" fill="none"/>
      <path id="Polígono_4" data-name="Polígono 4" d="M6,0l6,8H0Z" transform="translate(17 16) rotate(180)" fill="#38485c"/>
    </g>
    <g id="Grupo_18120" data-name="Grupo 18120" transform="translate(715 4115) rotate(90)">
      <rect id="Rectángulo_3425-5" data-name="Rectángulo 3425" width="16" height="48" transform="translate(48) rotate(90)" fill="#007bc7" opacity="0.24"/>
      <path id="Trazado_4669-5" data-name="Trazado 4669" d="M0,48V0" transform="translate(47.999 15.925) rotate(90)" fill="none" stroke="#007bc7" stroke-width="1" stroke-dasharray="5 2"/>
      <path id="Trazado_4670-5" data-name="Trazado 4670" d="M0,48V0" transform="translate(47.999) rotate(90)" fill="none" stroke="#007bc7" stroke-width="1" stroke-dasharray="5 2"/>
    </g>
    <g id="Grupo_18121" data-name="Grupo 18121" transform="translate(1039 4115) rotate(90)">
      <rect id="Rectángulo_3425-6" data-name="Rectángulo 3425" width="12" height="48" transform="translate(48) rotate(90)" fill="#007bc7" opacity="0.24"/>
      <path id="Trazado_4669-6" data-name="Trazado 4669" d="M0,48V0" transform="translate(47.999 11.944) rotate(90)" fill="none" stroke="#007bc7" stroke-width="1" stroke-dasharray="5 2"/>
      <path id="Trazado_4670-6" data-name="Trazado 4670" d="M0,48V0" transform="translate(47.999) rotate(90)" fill="none" stroke="#007bc7" stroke-width="1" stroke-dasharray="5 2"/>
    </g>
    <path id="Trazado_27688" data-name="Trazado 27688" d="M-29.168-1.664q.96,0,.96.816,0,.848-.96.848h-5.408q-.976,0-.976-.848,0-.816.976-.816h1.664v-7.3l-1.536.944a.827.827,0,0,1-.4.128.7.7,0,0,1-.568-.288,1,1,0,0,1-.232-.64.8.8,0,0,1,.416-.72l2.48-1.536a1.782,1.782,0,0,1,.912-.288.973.973,0,0,1,.72.272,1.016,1.016,0,0,1,.272.752v8.672Zm9.552,0q.96,0,.96.816,0,.848-.96.848H-25.7a.87.87,0,0,1-.656-.248.851.851,0,0,1-.24-.616,1.218,1.218,0,0,1,.368-.864l3.648-3.92A6.316,6.316,0,0,0-21.592-7a2.691,2.691,0,0,0,.312-1.224,1.492,1.492,0,0,0-.432-1.152,1.748,1.748,0,0,0-1.232-.4,3.376,3.376,0,0,0-1.272.248,6.362,6.362,0,0,0-1.24.68,1.968,1.968,0,0,1-.32.184.774.774,0,0,1-.32.072.587.587,0,0,1-.472-.256.958.958,0,0,1-.2-.608.92.92,0,0,1,.088-.416,1.068,1.068,0,0,1,.28-.336,5.545,5.545,0,0,1,1.648-.888,5.721,5.721,0,0,1,1.888-.328,3.942,3.942,0,0,1,2.632.832,2.782,2.782,0,0,1,.984,2.24,4.136,4.136,0,0,1-.416,1.832,8.119,8.119,0,0,1-1.408,1.912L-23.84-1.664Zm7.184-6.352a3.243,3.243,0,0,1,1.8.512A3.4,3.4,0,0,1-9.4-6.056,5,5,0,0,1-8.96-3.9,4.845,4.845,0,0,1-9.4-1.776,3.333,3.333,0,0,1-10.624-.368a3.309,3.309,0,0,1-1.808.5A3.1,3.1,0,0,1-13.92-.224,2.47,2.47,0,0,1-14.928-1.2V2.064a.83.83,0,0,1-.272.656,1.048,1.048,0,0,1-.72.24,1.037,1.037,0,0,1-.728-.256.868.868,0,0,1-.28-.672V-7.04a.914.914,0,0,1,.264-.688.979.979,0,0,1,.712-.256,1.008,1.008,0,0,1,.72.256.9.9,0,0,1,.272.688v.4a2.455,2.455,0,0,1,1.016-1.016A3.121,3.121,0,0,1-12.432-8.016Zm-.528,6.592a1.793,1.793,0,0,0,1.472-.648A2.829,2.829,0,0,0-10.96-3.9a2.989,2.989,0,0,0-.528-1.888,1.766,1.766,0,0,0-1.472-.672,1.779,1.779,0,0,0-1.48.656,2.952,2.952,0,0,0-.52,1.872,2.923,2.923,0,0,0,.52,1.856A1.779,1.779,0,0,0-12.96-1.424ZM-.688-1.472A.9.9,0,0,1-.4-.816a.885.885,0,0,1-.272.632.864.864,0,0,1-.64.28A.878.878,0,0,1-2-.24l-2.256-2.5L-6.512-.24A.928.928,0,0,1-7.2.08a.858.858,0,0,1-.624-.272A.858.858,0,0,1-8.1-.816a.9.9,0,0,1,.288-.656l2.336-2.544-2.208-2.4a.9.9,0,0,1-.288-.656A.85.85,0,0,1-7.7-7.7a.871.871,0,0,1,.624-.264.928.928,0,0,1,.688.32l2.128,2.336,2.128-2.336a.928.928,0,0,1,.688-.32A.862.862,0,0,1-.808-7.7a.862.862,0,0,1,.264.632.9.9,0,0,1-.288.656l-2.208,2.4Z" transform="translate(1051.024 4195)" fill="#38485c"/>
    <g id="Grupo_20743" data-name="Grupo 20743" transform="translate(699 4111)">
      <rect id="Rectángulo_3425-7" data-name="Rectángulo 3425" width="4" height="340" transform="translate(340) rotate(90)" fill="#38485c" opacity="0.24"/>
      <path id="Trazado_4669-7" data-name="Trazado 4669" d="M0,339.991V0" transform="translate(339.991 3.981) rotate(90)" fill="none" stroke="#38485c" stroke-width="1" stroke-dasharray="5 2"/>
      <path id="Trazado_4670-7" data-name="Trazado 4670" d="M0,339.991V0" transform="translate(339.991) rotate(90)" fill="none" stroke="#38485c" stroke-width="1" stroke-dasharray="5 2"/>
    </g>
  </g>
</svg>
