<svg xmlns="http://www.w3.org/2000/svg" width="712" height="367" viewBox="0 0 712 367">
  <g id="Grupo_18123" data-name="Grupo 18123" transform="translate(-513 -3692)">
    <path id="Trazado_20235" data-name="Trazado 20235" d="M4,0H708c2.209,0,4,1.3,4,2.907V364.093c0,1.605-1.791,2.907-4,2.907H4c-2.209,0-4-1.3-4-2.907V2.907C0,1.3,1.791,0,4,0Z" transform="translate(513 3692)" fill="#f3f6f9"/>
    <g id="Rectángulo_6054" data-name="Rectángulo 6054" transform="translate(699 3911.959)" fill="#fff" stroke="#8a98a8" stroke-width="1">
      <rect width="340" height="48" rx="4" stroke="none"/>
      <rect x="0.5" y="0.5" width="339" height="47" rx="3.5" fill="none"/>
    </g>
    <rect id="Rectángulo_5019" data-name="Rectángulo 5019" width="24" height="24" transform="translate(999 3923.959)" fill="none"/>
    <path id="Polígono_3" data-name="Polígono 3" d="M6,0l6,8H0Z" transform="translate(1017 3939.959) rotate(180)" fill="#38485c"/>
    <path id="Trazado_20317" data-name="Trazado 20317" d="M8.016,13.961a2.8,2.8,0,0,1-1.094,2.352,4.743,4.743,0,0,1-2.969.844,7.436,7.436,0,0,1-3.125-.523V15.352a8.227,8.227,0,0,0,1.531.469A8.056,8.056,0,0,0,4,15.992a3.31,3.31,0,0,0,2-.5,1.654,1.654,0,0,0,.672-1.4,1.8,1.8,0,0,0-.238-.973,2.214,2.214,0,0,0-.8-.7,11.148,11.148,0,0,0-1.7-.727A5.424,5.424,0,0,1,1.66,10.336,2.984,2.984,0,0,1,.977,8.3a2.536,2.536,0,0,1,.992-2.1,4.123,4.123,0,0,1,2.625-.781,7.736,7.736,0,0,1,3.133.625L7.313,7.2A7.08,7.08,0,0,0,4.563,6.6a2.661,2.661,0,0,0-1.648.453A1.493,1.493,0,0,0,2.32,8.313a1.928,1.928,0,0,0,.219.973,2.06,2.06,0,0,0,.738.7,9.173,9.173,0,0,0,1.59.7A6.294,6.294,0,0,1,7.34,12.055,2.7,2.7,0,0,1,8.016,13.961Zm5.758,3.2a3.934,3.934,0,0,1-3-1.156,4.476,4.476,0,0,1-1.1-3.211A4.964,4.964,0,0,1,10.7,9.5a3.387,3.387,0,0,1,2.738-1.219A3.229,3.229,0,0,1,15.984,9.34a4.057,4.057,0,0,1,.938,2.793v.82h-5.9a3.394,3.394,0,0,0,.762,2.289,2.635,2.635,0,0,0,2.035.781,6.9,6.9,0,0,0,2.734-.578V16.6a6.863,6.863,0,0,1-1.3.426A7.31,7.31,0,0,1,13.773,17.156Zm-.352-7.789a2.118,2.118,0,0,0-1.645.672,3.1,3.1,0,0,0-.723,1.859h4.477a2.851,2.851,0,0,0-.547-1.879A1.925,1.925,0,0,0,13.422,9.367ZM20.43,17h-1.3V4.844h1.3Zm6.367.156A3.934,3.934,0,0,1,23.8,16a4.476,4.476,0,0,1-1.1-3.211A4.964,4.964,0,0,1,23.723,9.5a3.387,3.387,0,0,1,2.738-1.219A3.229,3.229,0,0,1,29.008,9.34a4.057,4.057,0,0,1,.938,2.793v.82h-5.9a3.394,3.394,0,0,0,.762,2.289,2.635,2.635,0,0,0,2.035.781,6.9,6.9,0,0,0,2.734-.578V16.6a6.863,6.863,0,0,1-1.3.426A7.31,7.31,0,0,1,26.8,17.156Zm-.352-7.789a2.118,2.118,0,0,0-1.645.672,3.1,3.1,0,0,0-.723,1.859h4.477a2.851,2.851,0,0,0-.547-1.879A1.925,1.925,0,0,0,26.445,9.367Zm9.133,7.789A3.654,3.654,0,0,1,32.7,16.012a4.707,4.707,0,0,1-1.02-3.238,4.853,4.853,0,0,1,1.035-3.32,3.727,3.727,0,0,1,2.949-1.172,5.852,5.852,0,0,1,1.234.133,4.066,4.066,0,0,1,.969.313l-.4,1.1a6.1,6.1,0,0,0-.937-.285,4.186,4.186,0,0,0-.9-.113q-2.609,0-2.609,3.328a3.963,3.963,0,0,0,.637,2.422,2.215,2.215,0,0,0,1.887.844,5.769,5.769,0,0,0,2.2-.461v1.148A4.679,4.679,0,0,1,35.578,17.156Zm7.617,0a3.654,3.654,0,0,1-2.879-1.145,4.707,4.707,0,0,1-1.02-3.238,4.853,4.853,0,0,1,1.035-3.32,3.727,3.727,0,0,1,2.949-1.172,5.852,5.852,0,0,1,1.234.133,4.066,4.066,0,0,1,.969.313l-.4,1.1a6.1,6.1,0,0,0-.937-.285,4.186,4.186,0,0,0-.9-.113q-2.609,0-2.609,3.328a3.963,3.963,0,0,0,.637,2.422,2.215,2.215,0,0,0,1.887.844,5.769,5.769,0,0,0,2.2-.461v1.148A4.679,4.679,0,0,1,43.2,17.156ZM48.688,17h-1.3V8.438h1.3ZM47.281,6.117a.861.861,0,0,1,.219-.652.81.81,0,0,1,1.086,0,.846.846,0,0,1,.227.648.859.859,0,0,1-.227.652.794.794,0,0,1-1.086,0A.877.877,0,0,1,47.281,6.117Zm11.547,6.594a4.724,4.724,0,0,1-1.055,3.27,3.714,3.714,0,0,1-2.914,1.176,3.86,3.86,0,0,1-2.039-.539,3.558,3.558,0,0,1-1.375-1.547,5.391,5.391,0,0,1-.484-2.359,4.716,4.716,0,0,1,1.047-3.262,3.7,3.7,0,0,1,2.906-1.168,3.622,3.622,0,0,1,2.855,1.2A4.7,4.7,0,0,1,58.828,12.711Zm-6.523,0a4.064,4.064,0,0,0,.656,2.5,2.6,2.6,0,0,0,3.863,0,4.043,4.043,0,0,0,.66-2.5,3.978,3.978,0,0,0-.66-2.48,2.32,2.32,0,0,0-1.949-.848,2.283,2.283,0,0,0-1.922.836A4.023,4.023,0,0,0,52.3,12.711ZM66.961,17V11.461A2.235,2.235,0,0,0,66.484,9.9a1.941,1.941,0,0,0-1.492-.516,2.461,2.461,0,0,0-1.969.727,3.668,3.668,0,0,0-.625,2.4V17H61.1V8.438h1.055l.211,1.172h.063a2.648,2.648,0,0,1,1.117-.98,3.63,3.63,0,0,1,1.6-.348,3.252,3.252,0,0,1,2.328.746,3.175,3.175,0,0,1,.781,2.387V17Zm9.227,0-.258-1.219h-.062a3.6,3.6,0,0,1-1.277,1.09,3.893,3.893,0,0,1-1.59.285,2.86,2.86,0,0,1-2-.656,2.394,2.394,0,0,1-.723-1.867q0-2.594,4.148-2.719l1.453-.047v-.531a2.171,2.171,0,0,0-.434-1.488,1.783,1.783,0,0,0-1.387-.48,5.65,5.65,0,0,0-2.422.656l-.4-.992a6.094,6.094,0,0,1,1.387-.539,6.006,6.006,0,0,1,1.512-.2,3.262,3.262,0,0,1,2.27.68,2.837,2.837,0,0,1,.738,2.18V17Zm-2.93-.914a2.632,2.632,0,0,0,1.9-.664,2.457,2.457,0,0,0,.691-1.859v-.773l-1.3.055a4.717,4.717,0,0,0-2.23.48,1.449,1.449,0,0,0-.684,1.324,1.336,1.336,0,0,0,.426,1.07A1.767,1.767,0,0,0,73.258,16.086Zm10.469-7.8a5.075,5.075,0,0,1,1.023.094l-.18,1.2a4.418,4.418,0,0,0-.937-.117,2.282,2.282,0,0,0-1.777.844,3.077,3.077,0,0,0-.738,2.1V17h-1.3V8.438h1.07l.148,1.586H81.1A3.764,3.764,0,0,1,82.25,8.734,2.585,2.585,0,0,1,83.727,8.281Z" transform="translate(715 3924.959)" fill="#8a98a8"/>
    <path id="Trazado_20318" data-name="Trazado 20318" d="M7.16,7.424A2.6,2.6,0,0,1,6.2,9.592a4.356,4.356,0,0,1-2.752.759H2.355V14H1.276V4.72H3.682Q7.16,4.72,7.16,7.424Zm-4.805,2h.971A3.609,3.609,0,0,0,5.4,8.96a1.708,1.708,0,0,0,.641-1.485A1.6,1.6,0,0,0,5.44,6.1a3.15,3.15,0,0,0-1.879-.451H2.355ZM13.222,14l-.209-.99h-.051a2.927,2.927,0,0,1-1.038.885,3.163,3.163,0,0,1-1.292.232,2.324,2.324,0,0,1-1.622-.533,1.945,1.945,0,0,1-.587-1.517q0-2.107,3.371-2.209l1.181-.038V9.4a1.764,1.764,0,0,0-.352-1.209A1.449,1.449,0,0,0,11.5,7.8a4.591,4.591,0,0,0-1.968.533L9.2,7.525a4.952,4.952,0,0,1,1.127-.438,4.88,4.88,0,0,1,1.228-.159,2.65,2.65,0,0,1,1.844.552A2.305,2.305,0,0,1,14,9.252V14Zm-2.38-.743a2.139,2.139,0,0,0,1.546-.54,2,2,0,0,0,.562-1.511v-.628l-1.054.044a3.833,3.833,0,0,0-1.812.39,1.177,1.177,0,0,0-.555,1.076,1.086,1.086,0,0,0,.346.87A1.436,1.436,0,0,0,10.842,13.257ZM17.228,14H16.174V7.043h1.054Zm-1.1-8.036q.3-.394.657-.952a10.9,10.9,0,0,0,.555-.971h1.282v.133a9.383,9.383,0,0,1-.832,1.016,9.441,9.441,0,0,1-.958.933h-.7ZM23.95,12.1a1.743,1.743,0,0,1-.724,1.5,3.4,3.4,0,0,1-2.031.527,4.417,4.417,0,0,1-2.158-.438v-.978a5.219,5.219,0,0,0,1.076.4,4.493,4.493,0,0,0,1.108.146,2.512,2.512,0,0,0,1.27-.263.907.907,0,0,0,.092-1.5,5.542,5.542,0,0,0-1.374-.682,7.452,7.452,0,0,1-1.381-.632,1.886,1.886,0,0,1-.609-.613,1.6,1.6,0,0,1-.2-.819,1.561,1.561,0,0,1,.692-1.343,3.224,3.224,0,0,1,1.9-.492,5.553,5.553,0,0,1,2.2.457l-.375.857a5.041,5.041,0,0,0-1.9-.432,2.184,2.184,0,0,0-1.13.235.726.726,0,0,0-.381.647.789.789,0,0,0,.143.476,1.409,1.409,0,0,0,.46.375,10.284,10.284,0,0,0,1.219.514,4.553,4.553,0,0,1,1.673.908A1.6,1.6,0,0,1,23.95,12.1Z" transform="translate(699 3889.959)" fill="#38485c"/>
    <path id="Trazado_20319" data-name="Trazado 20319" d="M8.684,9.271a4.685,4.685,0,0,1-1.247,3.513A4.935,4.935,0,0,1,3.847,14H1.276V4.72H4.12a4.548,4.548,0,0,1,3.364,1.2A4.531,4.531,0,0,1,8.684,9.271Zm-1.143.038A3.736,3.736,0,0,0,6.63,6.573a3.65,3.65,0,0,0-2.707-.92H2.355v7.414H3.669a4,4,0,0,0,2.9-.949A3.757,3.757,0,0,0,7.541,9.309Zm2.9,4.018a.945.945,0,0,1,.194-.644.7.7,0,0,1,.555-.219.751.751,0,0,1,.574.219.907.907,0,0,1,.206.644.89.89,0,0,1-.209.635.833.833,0,0,1-1.108.022A.869.869,0,0,1,10.442,13.327ZM21.461,14H20.23L15.158,6.211h-.051q.1,1.371.1,2.514V14h-1V4.72h1.219l5.059,7.757h.051q-.013-.171-.057-1.1t-.032-1.33V4.72h1.009Zm2.241-.673a.945.945,0,0,1,.194-.644.7.7,0,0,1,.555-.219.751.751,0,0,1,.574.219.907.907,0,0,1,.206.644.89.89,0,0,1-.209.635.833.833,0,0,1-1.108.022A.869.869,0,0,1,23.7,13.327ZM27.473,14V4.72h1.079V14Zm3.313-.673a.945.945,0,0,1,.194-.644.7.7,0,0,1,.555-.219.751.751,0,0,1,.574.219.907.907,0,0,1,.206.644.89.89,0,0,1-.209.635A.833.833,0,0,1,31,13.984.869.869,0,0,1,30.786,13.327Z" transform="translate(699 3755.28)" fill="#38485c"/>
    <g id="Rectángulo_6047" data-name="Rectángulo 6047" transform="translate(699 3777.28)" fill="#fff" stroke="#8a98a8" stroke-width="1">
      <rect width="340" height="48" rx="4" stroke="none"/>
      <rect x="0.5" y="0.5" width="339" height="47" rx="3.5" fill="none"/>
    </g>
    <g id="Grupo_12546" data-name="Grupo 12546" transform="translate(715 3790.28)">
      <text id="Ejemplo:_35487884" data-name="Ejemplo: 35487884" fill="#8a98a8" font-size="16" font-family="OpenSans-Regular, Open Sans"><tspan x="0" y="17">Ejemplo: 35487884</tspan></text>
    </g>
    <path id="Trazado_20320" data-name="Trazado 20320" d="M5.25,5.551A3.034,3.034,0,0,0,2.834,6.57a4.109,4.109,0,0,0-.885,2.79A4.191,4.191,0,0,0,2.8,12.175a3.035,3.035,0,0,0,2.434.993,8.312,8.312,0,0,0,2.215-.349v.946a6.822,6.822,0,0,1-2.38.362,4.027,4.027,0,0,1-3.164-1.244A5.124,5.124,0,0,1,.793,9.347,5.58,5.58,0,0,1,1.33,6.833,3.851,3.851,0,0,1,2.879,5.17a4.688,4.688,0,0,1,2.384-.584,5.751,5.751,0,0,1,2.552.533l-.457.927A4.918,4.918,0,0,0,5.25,5.551Zm10.074,4.964a3.838,3.838,0,0,1-.857,2.656,3.018,3.018,0,0,1-2.368.955,3.136,3.136,0,0,1-1.657-.438,2.891,2.891,0,0,1-1.117-1.257,4.38,4.38,0,0,1-.394-1.917,3.832,3.832,0,0,1,.851-2.65,3.008,3.008,0,0,1,2.361-.949,2.943,2.943,0,0,1,2.32.971A3.821,3.821,0,0,1,15.323,10.515Zm-5.3,0a3.3,3.3,0,0,0,.533,2.031,1.851,1.851,0,0,0,1.568.7,1.863,1.863,0,0,0,1.571-.7,3.285,3.285,0,0,0,.536-2.034A3.232,3.232,0,0,0,13.7,8.5a1.885,1.885,0,0,0-1.584-.689,1.855,1.855,0,0,0-1.562.679A3.269,3.269,0,0,0,10.023,10.515ZM26.038,14V9.474a1.879,1.879,0,0,0-.355-1.247,1.375,1.375,0,0,0-1.1-.416,1.783,1.783,0,0,0-1.454.565,2.685,2.685,0,0,0-.47,1.739V14H21.6V9.474a1.879,1.879,0,0,0-.355-1.247,1.383,1.383,0,0,0-1.111-.416,1.721,1.721,0,0,0-1.45.594,3.212,3.212,0,0,0-.46,1.946V14H17.17V7.043h.857L18.2,8h.051a2.071,2.071,0,0,1,.841-.793,2.57,2.57,0,0,1,1.216-.286A2.067,2.067,0,0,1,22.439,8.1h.051a2.218,2.218,0,0,1,.9-.863,2.8,2.8,0,0,1,1.346-.317,2.356,2.356,0,0,1,1.768.606,2.712,2.712,0,0,1,.587,1.939V14Zm6.462.127a3.011,3.011,0,0,1-1.241-.251,2.334,2.334,0,0,1-.943-.771H30.24a9.332,9.332,0,0,1,.076,1.155v2.863H29.263V7.043h.857L30.266,8h.051a2.447,2.447,0,0,1,.946-.825A2.875,2.875,0,0,1,32.5,6.916a2.571,2.571,0,0,1,2.136.946,4.164,4.164,0,0,1,.752,2.653,4.14,4.14,0,0,1-.765,2.663A2.576,2.576,0,0,1,32.5,14.127Zm-.152-6.316a1.867,1.867,0,0,0-1.542.59,3.038,3.038,0,0,0-.489,1.879v.235a3.482,3.482,0,0,0,.489,2.1,1.859,1.859,0,0,0,1.568.632,1.63,1.63,0,0,0,1.412-.73A3.461,3.461,0,0,0,34.3,10.5a3.332,3.332,0,0,0-.511-2A1.681,1.681,0,0,0,32.348,7.811ZM38.283,14H37.229V4.123h1.054Zm5.173.127a3.2,3.2,0,0,1-2.434-.939,3.637,3.637,0,0,1-.892-2.609,4.033,4.033,0,0,1,.828-2.672,2.752,2.752,0,0,1,2.225-.99,2.624,2.624,0,0,1,2.069.86,3.3,3.3,0,0,1,.762,2.269v.667H41.222a2.758,2.758,0,0,0,.619,1.86,2.141,2.141,0,0,0,1.654.635,5.6,5.6,0,0,0,2.222-.47v.939a5.576,5.576,0,0,1-1.057.346A5.939,5.939,0,0,1,43.456,14.127ZM43.17,7.8a1.721,1.721,0,0,0-1.336.546,2.516,2.516,0,0,0-.587,1.511h3.637a2.317,2.317,0,0,0-.444-1.527A1.564,1.564,0,0,0,43.17,7.8Zm6.887,5.459a3.442,3.442,0,0,0,.54-.041,3.493,3.493,0,0,0,.413-.086v.806a1.926,1.926,0,0,1-.5.136,3.79,3.79,0,0,1-.6.054q-2.019,0-2.019-2.126V7.862h-1V7.354l1-.438.444-1.485h.609V7.043h2.019v.819H48.94v4.094a1.408,1.408,0,0,0,.3.965A1.038,1.038,0,0,0,50.058,13.257ZM56.678,14l-.209-.99h-.051a2.927,2.927,0,0,1-1.038.885,3.163,3.163,0,0,1-1.292.232,2.324,2.324,0,0,1-1.622-.533,1.945,1.945,0,0,1-.587-1.517q0-2.107,3.371-2.209l1.181-.038V9.4a1.764,1.764,0,0,0-.352-1.209,1.449,1.449,0,0,0-1.127-.39,4.591,4.591,0,0,0-1.968.533l-.324-.806a4.951,4.951,0,0,1,1.127-.438,4.88,4.88,0,0,1,1.228-.159,2.65,2.65,0,0,1,1.844.552,2.305,2.305,0,0,1,.6,1.771V14Zm-2.38-.743a2.139,2.139,0,0,0,1.546-.54,2,2,0,0,0,.562-1.511v-.628l-1.054.044a3.833,3.833,0,0,0-1.812.39,1.177,1.177,0,0,0-.555,1.076,1.086,1.086,0,0,0,.346.87A1.436,1.436,0,0,0,54.3,13.257ZM62.8,6.916a4.123,4.123,0,0,1,.832.076l-.146.978a3.589,3.589,0,0,0-.762-.1,1.854,1.854,0,0,0-1.444.686,2.5,2.5,0,0,0-.6,1.708V14H59.63V7.043h.87l.121,1.289h.051A3.058,3.058,0,0,1,61.6,7.284,2.1,2.1,0,0,1,62.8,6.916Zm10,5.186a1.743,1.743,0,0,1-.724,1.5,3.4,3.4,0,0,1-2.031.527,4.417,4.417,0,0,1-2.158-.438v-.978a5.219,5.219,0,0,0,1.076.4,4.493,4.493,0,0,0,1.108.146,2.512,2.512,0,0,0,1.27-.263.907.907,0,0,0,.092-1.5,5.542,5.542,0,0,0-1.374-.682,7.452,7.452,0,0,1-1.381-.632,1.886,1.886,0,0,1-.609-.613,1.6,1.6,0,0,1-.2-.819,1.561,1.561,0,0,1,.692-1.343,3.224,3.224,0,0,1,1.9-.492,5.553,5.553,0,0,1,2.2.457l-.375.857a5.041,5.041,0,0,0-1.9-.432,2.184,2.184,0,0,0-1.13.235.726.726,0,0,0-.381.647.789.789,0,0,0,.143.476,1.409,1.409,0,0,0,.46.375,10.284,10.284,0,0,0,1.219.514,4.553,4.553,0,0,1,1.673.908A1.6,1.6,0,0,1,72.8,12.1ZM75.569,14H74.515V7.043h1.054ZM74.426,5.158a.7.7,0,0,1,.178-.53.658.658,0,0,1,.882,0,.687.687,0,0,1,.184.527.7.7,0,0,1-.184.53.645.645,0,0,1-.882,0A.713.713,0,0,1,74.426,5.158ZM82.564,14V9.5a1.816,1.816,0,0,0-.387-1.27,1.577,1.577,0,0,0-1.212-.419,2,2,0,0,0-1.6.59,2.98,2.98,0,0,0-.508,1.949V14H77.8V7.043h.857L78.832,8h.051a2.152,2.152,0,0,1,.908-.8,2.949,2.949,0,0,1,1.3-.282,2.643,2.643,0,0,1,1.892.606,2.58,2.58,0,0,1,.635,1.939V14Zm9.833.127a3.011,3.011,0,0,1-1.241-.251,2.334,2.334,0,0,1-.943-.771h-.076a9.332,9.332,0,0,1,.076,1.155v2.863H89.159V7.043h.857L90.162,8h.051a2.447,2.447,0,0,1,.946-.825A2.875,2.875,0,0,1,92.4,6.916a2.571,2.571,0,0,1,2.136.946,4.164,4.164,0,0,1,.752,2.653,4.14,4.14,0,0,1-.765,2.663A2.576,2.576,0,0,1,92.4,14.127Zm-.152-6.316A1.867,1.867,0,0,0,90.7,8.4a3.038,3.038,0,0,0-.489,1.879v.235a3.482,3.482,0,0,0,.489,2.1,1.859,1.859,0,0,0,1.568.632,1.63,1.63,0,0,0,1.412-.73,3.461,3.461,0,0,0,.511-2.012,3.332,3.332,0,0,0-.511-2A1.681,1.681,0,0,0,92.244,7.811Zm5.872-.768v4.513a1.816,1.816,0,0,0,.387,1.27,1.577,1.577,0,0,0,1.212.419,1.978,1.978,0,0,0,1.6-.6,3.01,3.01,0,0,0,.5-1.949V7.043h1.054V14H102l-.152-.933h-.057a2.1,2.1,0,0,1-.9.787,3.019,3.019,0,0,1-1.311.273,2.659,2.659,0,0,1-1.9-.6,2.567,2.567,0,0,1-.632-1.93V7.043ZM109.865,14V9.5a1.816,1.816,0,0,0-.387-1.27,1.577,1.577,0,0,0-1.212-.419,2,2,0,0,0-1.6.59,2.98,2.98,0,0,0-.508,1.949V14H105.1V7.043h.857l.171.952h.051a2.152,2.152,0,0,1,.908-.8,2.949,2.949,0,0,1,1.3-.282,2.643,2.643,0,0,1,1.892.606,2.58,2.58,0,0,1,.635,1.939V14Zm5.465-.743a3.442,3.442,0,0,0,.54-.041,3.493,3.493,0,0,0,.413-.086v.806a1.926,1.926,0,0,1-.5.136,3.79,3.79,0,0,1-.6.054q-2.019,0-2.019-2.126V7.862h-1V7.354l1-.438.444-1.485h.609V7.043h2.019v.819h-2.019v4.094a1.408,1.408,0,0,0,.3.965A1.038,1.038,0,0,0,115.331,13.257Zm8.347-2.742a3.838,3.838,0,0,1-.857,2.656,3.018,3.018,0,0,1-2.368.955,3.136,3.136,0,0,1-1.657-.438,2.891,2.891,0,0,1-1.117-1.257,4.38,4.38,0,0,1-.394-1.917,3.832,3.832,0,0,1,.851-2.65,3.008,3.008,0,0,1,2.361-.949,2.943,2.943,0,0,1,2.32.971A3.821,3.821,0,0,1,123.678,10.515Zm-5.3,0a3.3,3.3,0,0,0,.533,2.031,2.116,2.116,0,0,0,3.139,0,3.285,3.285,0,0,0,.536-2.034A3.232,3.232,0,0,0,122.05,8.5a1.885,1.885,0,0,0-1.584-.689,1.855,1.855,0,0,0-1.562.679A3.269,3.269,0,0,0,118.377,10.515ZM130.013,12.1a1.743,1.743,0,0,1-.724,1.5,3.4,3.4,0,0,1-2.031.527,4.417,4.417,0,0,1-2.158-.438v-.978a5.219,5.219,0,0,0,1.076.4,4.493,4.493,0,0,0,1.108.146,2.512,2.512,0,0,0,1.27-.263.907.907,0,0,0,.092-1.5,5.542,5.542,0,0,0-1.374-.682,7.452,7.452,0,0,1-1.381-.632,1.886,1.886,0,0,1-.609-.613,1.6,1.6,0,0,1-.2-.819,1.561,1.561,0,0,1,.692-1.343,3.224,3.224,0,0,1,1.9-.492,5.553,5.553,0,0,1,2.2.457l-.375.857a5.041,5.041,0,0,0-1.9-.432,2.184,2.184,0,0,0-1.13.235.726.726,0,0,0-.381.647.789.789,0,0,0,.143.476,1.409,1.409,0,0,0,.46.375,10.284,10.284,0,0,0,1.219.514,4.553,4.553,0,0,1,1.673.908A1.6,1.6,0,0,1,130.013,12.1Zm9.852,1.9V9.5a1.816,1.816,0,0,0-.387-1.27,1.577,1.577,0,0,0-1.212-.419,2,2,0,0,0-1.6.59,2.98,2.98,0,0,0-.508,1.949V14H135.1V7.043h.857l.171.952h.051a2.151,2.151,0,0,1,.908-.8,2.949,2.949,0,0,1,1.3-.282,2.643,2.643,0,0,1,1.892.606,2.58,2.58,0,0,1,.635,1.939V14Zm4.272,0h-1.054V7.043h1.054Zm-1.143-8.842a.7.7,0,0,1,.178-.53.658.658,0,0,1,.882,0,.687.687,0,0,1,.184.527.7.7,0,0,1-.184.53.645.645,0,0,1-.882,0A.713.713,0,0,1,142.994,5.158Zm12.448,1.885v.667l-1.289.152a2.263,2.263,0,0,1,.457,1.39,2.057,2.057,0,0,1-.7,1.631,2.817,2.817,0,0,1-1.917.609,3.192,3.192,0,0,1-.584-.051,1.037,1.037,0,0,0-.673.9.455.455,0,0,0,.235.422,1.716,1.716,0,0,0,.806.136h1.231a2.758,2.758,0,0,1,1.736.476,1.654,1.654,0,0,1,.606,1.384,1.975,1.975,0,0,1-.927,1.761,4.96,4.96,0,0,1-2.7.606,3.694,3.694,0,0,1-2.1-.508,1.64,1.64,0,0,1-.74-1.435,1.611,1.611,0,0,1,.406-1.1,2.069,2.069,0,0,1,1.143-.628,1.1,1.1,0,0,1-.448-.375.991.991,0,0,1-.181-.59,1.12,1.12,0,0,1,.2-.667,2.136,2.136,0,0,1,.641-.552,1.879,1.879,0,0,1-.879-.755,2.22,2.22,0,0,1-.34-1.219,2.251,2.251,0,0,1,.686-1.761,2.8,2.8,0,0,1,1.942-.619,3.532,3.532,0,0,1,.984.127Zm-5.548,8.125a.944.944,0,0,0,.476.857,2.627,2.627,0,0,0,1.365.292,3.808,3.808,0,0,0,1.965-.4,1.215,1.215,0,0,0,.638-1.076.851.851,0,0,0-.349-.784,2.711,2.711,0,0,0-1.314-.219h-1.263a1.664,1.664,0,0,0-1.117.343A1.225,1.225,0,0,0,149.894,15.168Zm.571-5.9a1.416,1.416,0,0,0,.413,1.1,1.647,1.647,0,0,0,1.149.375,1.344,1.344,0,0,0,1.542-1.5,1.383,1.383,0,0,0-1.562-1.568,1.546,1.546,0,0,0-1.143.4A1.611,1.611,0,0,0,150.465,9.271Zm7.4-2.228v4.513a1.816,1.816,0,0,0,.387,1.27,1.577,1.577,0,0,0,1.212.419,1.978,1.978,0,0,0,1.6-.6,3.01,3.01,0,0,0,.5-1.949V7.043h1.054V14h-.87l-.152-.933h-.057a2.1,2.1,0,0,1-.9.787,3.019,3.019,0,0,1-1.311.273,2.659,2.659,0,0,1-1.9-.6,2.567,2.567,0,0,1-.632-1.93V7.043ZM165.9,14h-1.054V7.043H165.9ZM164.76,5.158a.7.7,0,0,1,.178-.53.658.658,0,0,1,.882,0,.687.687,0,0,1,.184.527.7.7,0,0,1-.184.53.645.645,0,0,1-.882,0A.713.713,0,0,1,164.76,5.158Zm9.382,5.357a3.838,3.838,0,0,1-.857,2.656,3.018,3.018,0,0,1-2.368.955,3.136,3.136,0,0,1-1.657-.438,2.891,2.891,0,0,1-1.117-1.257,4.38,4.38,0,0,1-.394-1.917,3.832,3.832,0,0,1,.851-2.65,3.008,3.008,0,0,1,2.361-.949,2.943,2.943,0,0,1,2.32.971A3.821,3.821,0,0,1,174.142,10.515Zm-5.3,0a3.3,3.3,0,0,0,.533,2.031,2.116,2.116,0,0,0,3.139,0,3.285,3.285,0,0,0,.536-2.034,3.232,3.232,0,0,0-.536-2.015,1.885,1.885,0,0,0-1.584-.689,1.855,1.855,0,0,0-1.562.679A3.269,3.269,0,0,0,168.841,10.515ZM180.75,14V9.5a1.816,1.816,0,0,0-.387-1.27,1.577,1.577,0,0,0-1.212-.419,2,2,0,0,0-1.6.59,2.98,2.98,0,0,0-.508,1.949V14h-1.054V7.043h.857l.171.952h.051a2.151,2.151,0,0,1,.908-.8,2.949,2.949,0,0,1,1.3-.282,2.643,2.643,0,0,1,1.892.606,2.58,2.58,0,0,1,.635,1.939V14Zm6.157.127a3.2,3.2,0,0,1-2.434-.939,3.637,3.637,0,0,1-.892-2.609,4.033,4.033,0,0,1,.828-2.672,2.752,2.752,0,0,1,2.225-.99,2.624,2.624,0,0,1,2.069.86,3.3,3.3,0,0,1,.762,2.269v.667h-4.792a2.758,2.758,0,0,0,.619,1.86,2.141,2.141,0,0,0,1.654.635,5.6,5.6,0,0,0,2.222-.47v.939a5.576,5.576,0,0,1-1.057.346A5.939,5.939,0,0,1,186.907,14.127ZM186.621,7.8a1.721,1.721,0,0,0-1.336.546,2.516,2.516,0,0,0-.587,1.511h3.637a2.317,2.317,0,0,0-.444-1.527A1.564,1.564,0,0,0,186.621,7.8Zm9.128,4.3a1.743,1.743,0,0,1-.724,1.5,3.4,3.4,0,0,1-2.031.527,4.417,4.417,0,0,1-2.158-.438v-.978a5.219,5.219,0,0,0,1.076.4,4.493,4.493,0,0,0,1.108.146,2.512,2.512,0,0,0,1.27-.263.907.907,0,0,0,.092-1.5,5.541,5.541,0,0,0-1.374-.682,7.452,7.452,0,0,1-1.381-.632,1.886,1.886,0,0,1-.609-.613,1.6,1.6,0,0,1-.2-.819,1.561,1.561,0,0,1,.692-1.343,3.224,3.224,0,0,1,1.9-.492,5.553,5.553,0,0,1,2.2.457l-.375.857a5.041,5.041,0,0,0-1.9-.432,2.184,2.184,0,0,0-1.13.235.726.726,0,0,0-.381.647.789.789,0,0,0,.143.476,1.409,1.409,0,0,0,.46.375,10.285,10.285,0,0,0,1.219.514,4.553,4.553,0,0,1,1.673.908A1.6,1.6,0,0,1,195.749,12.1Zm1.562,1.225a.945.945,0,0,1,.194-.644.7.7,0,0,1,.555-.219.751.751,0,0,1,.574.219.907.907,0,0,1,.206.644.89.89,0,0,1-.209.635.833.833,0,0,1-1.108.022A.869.869,0,0,1,197.311,13.327Z" transform="translate(699 3829.28)" fill="#505e70"/>
    <path id="Trazado_20323" data-name="Trazado 20323" d="M8.4-3.808a1.074,1.074,0,0,1,.72.208.741.741,0,0,1,.24.592q0,.8-.96.8H7.584V-.944a1.021,1.021,0,0,1-.28.768A1,1,0,0,1,6.576.1a1,1,0,0,1-.728-.272,1.021,1.021,0,0,1-.28-.768V-2.208H1.376A.892.892,0,0,1,.7-2.456a.851.851,0,0,1-.24-.616A1.234,1.234,0,0,1,.72-3.808l4.944-7.1a1.079,1.079,0,0,1,.4-.344,1.1,1.1,0,0,1,.5-.12,1.044,1.044,0,0,1,.72.272.977.977,0,0,1,.3.768v6.528Zm-5.808,0H5.568v-4.3ZM15.12-8.016a3.243,3.243,0,0,1,1.8.512,3.4,3.4,0,0,1,1.232,1.448,5,5,0,0,1,.44,2.152,4.845,4.845,0,0,1-.44,2.128A3.333,3.333,0,0,1,16.928-.368a3.309,3.309,0,0,1-1.808.5,3.1,3.1,0,0,1-1.488-.352A2.47,2.47,0,0,1,12.624-1.2V2.064a.83.83,0,0,1-.272.656,1.048,1.048,0,0,1-.72.24A1.037,1.037,0,0,1,10.9,2.7a.868.868,0,0,1-.28-.672V-7.04a.914.914,0,0,1,.264-.688.979.979,0,0,1,.712-.256,1.008,1.008,0,0,1,.72.256.9.9,0,0,1,.272.688v.4a2.455,2.455,0,0,1,1.016-1.016A3.121,3.121,0,0,1,15.12-8.016Zm-.528,6.592a1.793,1.793,0,0,0,1.472-.648A2.829,2.829,0,0,0,16.592-3.9a2.989,2.989,0,0,0-.528-1.888,1.766,1.766,0,0,0-1.472-.672,1.779,1.779,0,0,0-1.48.656,2.952,2.952,0,0,0-.52,1.872,2.923,2.923,0,0,0,.52,1.856A1.779,1.779,0,0,0,14.592-1.424Zm12.256-.048a.9.9,0,0,1,.288.656.885.885,0,0,1-.272.632.864.864,0,0,1-.64.28.878.878,0,0,1-.688-.336l-2.256-2.5L21.024-.24a.928.928,0,0,1-.688.32.858.858,0,0,1-.624-.272.858.858,0,0,1-.272-.624.9.9,0,0,1,.288-.656l2.336-2.544-2.208-2.4a.9.9,0,0,1-.288-.656A.85.85,0,0,1,19.84-7.7a.871.871,0,0,1,.624-.264.928.928,0,0,1,.688.32L23.28-5.312l2.128-2.336a.928.928,0,0,1,.688-.32.862.862,0,0,1,.632.264.862.862,0,0,1,.264.632.9.9,0,0,1-.288.656L24.5-4.016Z" transform="translate(1055 3831.28)" fill="#38485c"/>
    <path id="Trazado_20327" data-name="Trazado 20327" d="M8.4-3.808a1.074,1.074,0,0,1,.72.208.741.741,0,0,1,.24.592q0,.8-.96.8H7.584V-.944a1.021,1.021,0,0,1-.28.768A1,1,0,0,1,6.576.1a1,1,0,0,1-.728-.272,1.021,1.021,0,0,1-.28-.768V-2.208H1.376A.892.892,0,0,1,.7-2.456a.851.851,0,0,1-.24-.616A1.234,1.234,0,0,1,.72-3.808l4.944-7.1a1.079,1.079,0,0,1,.4-.344,1.1,1.1,0,0,1,.5-.12,1.044,1.044,0,0,1,.72.272.977.977,0,0,1,.3.768v6.528Zm-5.808,0H5.568v-4.3ZM15.12-8.016a3.243,3.243,0,0,1,1.8.512,3.4,3.4,0,0,1,1.232,1.448,5,5,0,0,1,.44,2.152,4.845,4.845,0,0,1-.44,2.128A3.333,3.333,0,0,1,16.928-.368a3.309,3.309,0,0,1-1.808.5,3.1,3.1,0,0,1-1.488-.352A2.47,2.47,0,0,1,12.624-1.2V2.064a.83.83,0,0,1-.272.656,1.048,1.048,0,0,1-.72.24A1.037,1.037,0,0,1,10.9,2.7a.868.868,0,0,1-.28-.672V-7.04a.914.914,0,0,1,.264-.688.979.979,0,0,1,.712-.256,1.008,1.008,0,0,1,.72.256.9.9,0,0,1,.272.688v.4a2.455,2.455,0,0,1,1.016-1.016A3.121,3.121,0,0,1,15.12-8.016Zm-.528,6.592a1.793,1.793,0,0,0,1.472-.648A2.829,2.829,0,0,0,16.592-3.9a2.989,2.989,0,0,0-.528-1.888,1.766,1.766,0,0,0-1.472-.672,1.779,1.779,0,0,0-1.48.656,2.952,2.952,0,0,0-.52,1.872,2.923,2.923,0,0,0,.52,1.856A1.779,1.779,0,0,0,14.592-1.424Zm12.256-.048a.9.9,0,0,1,.288.656.885.885,0,0,1-.272.632.864.864,0,0,1-.64.28.878.878,0,0,1-.688-.336l-2.256-2.5L21.024-.24a.928.928,0,0,1-.688.32.858.858,0,0,1-.624-.272.858.858,0,0,1-.272-.624.9.9,0,0,1,.288-.656l2.336-2.544-2.208-2.4a.9.9,0,0,1-.288-.656A.85.85,0,0,1,19.84-7.7a.871.871,0,0,1,.624-.264.928.928,0,0,1,.688.32L23.28-5.312l2.128-2.336a.928.928,0,0,1,.688-.32.862.862,0,0,1,.632.264.862.862,0,0,1,.264.632.9.9,0,0,1-.288.656L24.5-4.016Z" transform="translate(1055 3780.28)" fill="#38485c"/>
    <path id="Trazado_20324" data-name="Trazado 20324" d="M8.016-1.664q.96,0,.96.816,0,.848-.96.848H2.608q-.976,0-.976-.848,0-.816.976-.816H4.272v-7.3l-1.536.944a.827.827,0,0,1-.4.128.7.7,0,0,1-.568-.288,1,1,0,0,1-.232-.64.8.8,0,0,1,.416-.72l2.48-1.536a1.782,1.782,0,0,1,.912-.288.973.973,0,0,1,.72.272,1.016,1.016,0,0,1,.272.752v8.672Zm7.056-5.568a3.5,3.5,0,0,1,1.792.456A3.181,3.181,0,0,1,18.088-5.5a3.929,3.929,0,0,1,.44,1.88,3.855,3.855,0,0,1-.488,1.944A3.479,3.479,0,0,1,16.7-.336a3.906,3.906,0,0,1-1.944.48,3.989,3.989,0,0,1-3.3-1.448,6.474,6.474,0,0,1-1.16-4.136,8.527,8.527,0,0,1,.544-3.192,4.529,4.529,0,0,1,1.56-2.072,4.03,4.03,0,0,1,2.392-.72,5.426,5.426,0,0,1,1.832.328,4.773,4.773,0,0,1,1.56.888,1.2,1.2,0,0,1,.3.344.87.87,0,0,1,.088.408.926.926,0,0,1-.2.6.592.592,0,0,1-.472.248.831.831,0,0,1-.3-.056,2.284,2.284,0,0,1-.352-.184,4.3,4.3,0,0,0-2.368-.928,2.071,2.071,0,0,0-1.84,1.08,5.933,5.933,0,0,0-.7,3.032,2.745,2.745,0,0,1,1.1-1.144A3.241,3.241,0,0,1,15.072-7.232ZM14.64-1.488a1.83,1.83,0,0,0,1.408-.568,2.109,2.109,0,0,0,.528-1.5,2.08,2.08,0,0,0-.528-1.488A1.844,1.844,0,0,0,14.64-5.6a1.928,1.928,0,0,0-1.448.568,2.034,2.034,0,0,0-.552,1.48,2.055,2.055,0,0,0,.552,1.5A1.928,1.928,0,0,0,14.64-1.488ZM24.7-8.016a3.243,3.243,0,0,1,1.8.512,3.4,3.4,0,0,1,1.232,1.448,5,5,0,0,1,.44,2.152,4.845,4.845,0,0,1-.44,2.128A3.333,3.333,0,0,1,26.512-.368a3.309,3.309,0,0,1-1.808.5,3.1,3.1,0,0,1-1.488-.352A2.47,2.47,0,0,1,22.208-1.2V2.064a.83.83,0,0,1-.272.656,1.048,1.048,0,0,1-.72.24,1.037,1.037,0,0,1-.728-.256.868.868,0,0,1-.28-.672V-7.04a.914.914,0,0,1,.264-.688.979.979,0,0,1,.712-.256,1.008,1.008,0,0,1,.72.256.9.9,0,0,1,.272.688v.4a2.455,2.455,0,0,1,1.016-1.016A3.121,3.121,0,0,1,24.7-8.016Zm-.528,6.592a1.793,1.793,0,0,0,1.472-.648A2.829,2.829,0,0,0,26.176-3.9a2.989,2.989,0,0,0-.528-1.888,1.766,1.766,0,0,0-1.472-.672,1.779,1.779,0,0,0-1.48.656,2.952,2.952,0,0,0-.52,1.872A2.923,2.923,0,0,0,22.7-2.08,1.779,1.779,0,0,0,24.176-1.424Zm12.256-.048a.9.9,0,0,1,.288.656.885.885,0,0,1-.272.632.864.864,0,0,1-.64.28A.878.878,0,0,1,35.12-.24l-2.256-2.5L30.608-.24a.928.928,0,0,1-.688.32A.858.858,0,0,1,29.3-.192a.858.858,0,0,1-.272-.624.9.9,0,0,1,.288-.656l2.336-2.544-2.208-2.4a.9.9,0,0,1-.288-.656.85.85,0,0,1,.272-.632.871.871,0,0,1,.624-.264.928.928,0,0,1,.688.32l2.128,2.336,2.128-2.336a.928.928,0,0,1,.688-.32.862.862,0,0,1,.632.264.862.862,0,0,1,.264.632.9.9,0,0,1-.288.656l-2.208,2.4Z" transform="translate(1023 3991.959)" fill="#38485c"/>
    <path id="Trazado_20325" data-name="Trazado 20325" d="M8.016-1.664q.96,0,.96.816,0,.848-.96.848H2.608q-.976,0-.976-.848,0-.816.976-.816H4.272v-7.3l-1.536.944a.827.827,0,0,1-.4.128.7.7,0,0,1-.568-.288,1,1,0,0,1-.232-.64.8.8,0,0,1,.416-.72l2.48-1.536a1.782,1.782,0,0,1,.912-.288.973.973,0,0,1,.72.272,1.016,1.016,0,0,1,.272.752v8.672Zm7.056-5.568a3.5,3.5,0,0,1,1.792.456A3.181,3.181,0,0,1,18.088-5.5a3.929,3.929,0,0,1,.44,1.88,3.855,3.855,0,0,1-.488,1.944A3.479,3.479,0,0,1,16.7-.336a3.906,3.906,0,0,1-1.944.48,3.989,3.989,0,0,1-3.3-1.448,6.474,6.474,0,0,1-1.16-4.136,8.527,8.527,0,0,1,.544-3.192,4.529,4.529,0,0,1,1.56-2.072,4.03,4.03,0,0,1,2.392-.72,5.426,5.426,0,0,1,1.832.328,4.773,4.773,0,0,1,1.56.888,1.2,1.2,0,0,1,.3.344.87.87,0,0,1,.088.408.926.926,0,0,1-.2.6.592.592,0,0,1-.472.248.831.831,0,0,1-.3-.056,2.284,2.284,0,0,1-.352-.184,4.3,4.3,0,0,0-2.368-.928,2.071,2.071,0,0,0-1.84,1.08,5.933,5.933,0,0,0-.7,3.032,2.745,2.745,0,0,1,1.1-1.144A3.241,3.241,0,0,1,15.072-7.232ZM14.64-1.488a1.83,1.83,0,0,0,1.408-.568,2.109,2.109,0,0,0,.528-1.5,2.08,2.08,0,0,0-.528-1.488A1.844,1.844,0,0,0,14.64-5.6a1.928,1.928,0,0,0-1.448.568,2.034,2.034,0,0,0-.552,1.48,2.055,2.055,0,0,0,.552,1.5A1.928,1.928,0,0,0,14.64-1.488ZM24.7-8.016a3.243,3.243,0,0,1,1.8.512,3.4,3.4,0,0,1,1.232,1.448,5,5,0,0,1,.44,2.152,4.845,4.845,0,0,1-.44,2.128A3.333,3.333,0,0,1,26.512-.368a3.309,3.309,0,0,1-1.808.5,3.1,3.1,0,0,1-1.488-.352A2.47,2.47,0,0,1,22.208-1.2V2.064a.83.83,0,0,1-.272.656,1.048,1.048,0,0,1-.72.24,1.037,1.037,0,0,1-.728-.256.868.868,0,0,1-.28-.672V-7.04a.914.914,0,0,1,.264-.688.979.979,0,0,1,.712-.256,1.008,1.008,0,0,1,.72.256.9.9,0,0,1,.272.688v.4a2.455,2.455,0,0,1,1.016-1.016A3.121,3.121,0,0,1,24.7-8.016Zm-.528,6.592a1.793,1.793,0,0,0,1.472-.648A2.829,2.829,0,0,0,26.176-3.9a2.989,2.989,0,0,0-.528-1.888,1.766,1.766,0,0,0-1.472-.672,1.779,1.779,0,0,0-1.48.656,2.952,2.952,0,0,0-.52,1.872A2.923,2.923,0,0,0,22.7-2.08,1.779,1.779,0,0,0,24.176-1.424Zm12.256-.048a.9.9,0,0,1,.288.656.885.885,0,0,1-.272.632.864.864,0,0,1-.64.28A.878.878,0,0,1,35.12-.24l-2.256-2.5L30.608-.24a.928.928,0,0,1-.688.32A.858.858,0,0,1,29.3-.192a.858.858,0,0,1-.272-.624.9.9,0,0,1,.288-.656l2.336-2.544-2.208-2.4a.9.9,0,0,1-.288-.656.85.85,0,0,1,.272-.632.871.871,0,0,1,.624-.264.928.928,0,0,1,.688.32l2.128,2.336,2.128-2.336a.928.928,0,0,1,.688-.32.862.862,0,0,1,.632.264.862.862,0,0,1,.264.632.9.9,0,0,1-.288.656l-2.208,2.4Z" transform="translate(962 3991.959)" fill="#38485c"/>
    <path id="Trazado_20326" data-name="Trazado 20326" d="M8.016-1.664q.96,0,.96.816,0,.848-.96.848H2.608q-.976,0-.976-.848,0-.816.976-.816H4.272v-7.3l-1.536.944a.827.827,0,0,1-.4.128.7.7,0,0,1-.568-.288,1,1,0,0,1-.232-.64.8.8,0,0,1,.416-.72l2.48-1.536a1.782,1.782,0,0,1,.912-.288.973.973,0,0,1,.72.272,1.016,1.016,0,0,1,.272.752v8.672Zm7.056-5.568a3.5,3.5,0,0,1,1.792.456A3.181,3.181,0,0,1,18.088-5.5a3.929,3.929,0,0,1,.44,1.88,3.855,3.855,0,0,1-.488,1.944A3.479,3.479,0,0,1,16.7-.336a3.906,3.906,0,0,1-1.944.48,3.989,3.989,0,0,1-3.3-1.448,6.474,6.474,0,0,1-1.16-4.136,8.527,8.527,0,0,1,.544-3.192,4.529,4.529,0,0,1,1.56-2.072,4.03,4.03,0,0,1,2.392-.72,5.426,5.426,0,0,1,1.832.328,4.773,4.773,0,0,1,1.56.888,1.2,1.2,0,0,1,.3.344.87.87,0,0,1,.088.408.926.926,0,0,1-.2.6.592.592,0,0,1-.472.248.831.831,0,0,1-.3-.056,2.284,2.284,0,0,1-.352-.184,4.3,4.3,0,0,0-2.368-.928,2.071,2.071,0,0,0-1.84,1.08,5.933,5.933,0,0,0-.7,3.032,2.745,2.745,0,0,1,1.1-1.144A3.241,3.241,0,0,1,15.072-7.232ZM14.64-1.488a1.83,1.83,0,0,0,1.408-.568,2.109,2.109,0,0,0,.528-1.5,2.08,2.08,0,0,0-.528-1.488A1.844,1.844,0,0,0,14.64-5.6a1.928,1.928,0,0,0-1.448.568,2.034,2.034,0,0,0-.552,1.48,2.055,2.055,0,0,0,.552,1.5A1.928,1.928,0,0,0,14.64-1.488ZM24.7-8.016a3.243,3.243,0,0,1,1.8.512,3.4,3.4,0,0,1,1.232,1.448,5,5,0,0,1,.44,2.152,4.845,4.845,0,0,1-.44,2.128A3.333,3.333,0,0,1,26.512-.368a3.309,3.309,0,0,1-1.808.5,3.1,3.1,0,0,1-1.488-.352A2.47,2.47,0,0,1,22.208-1.2V2.064a.83.83,0,0,1-.272.656,1.048,1.048,0,0,1-.72.24,1.037,1.037,0,0,1-.728-.256.868.868,0,0,1-.28-.672V-7.04a.914.914,0,0,1,.264-.688.979.979,0,0,1,.712-.256,1.008,1.008,0,0,1,.72.256.9.9,0,0,1,.272.688v.4a2.455,2.455,0,0,1,1.016-1.016A3.121,3.121,0,0,1,24.7-8.016Zm-.528,6.592a1.793,1.793,0,0,0,1.472-.648A2.829,2.829,0,0,0,26.176-3.9a2.989,2.989,0,0,0-.528-1.888,1.766,1.766,0,0,0-1.472-.672,1.779,1.779,0,0,0-1.48.656,2.952,2.952,0,0,0-.52,1.872A2.923,2.923,0,0,0,22.7-2.08,1.779,1.779,0,0,0,24.176-1.424Zm12.256-.048a.9.9,0,0,1,.288.656.885.885,0,0,1-.272.632.864.864,0,0,1-.64.28A.878.878,0,0,1,35.12-.24l-2.256-2.5L30.608-.24a.928.928,0,0,1-.688.32A.858.858,0,0,1,29.3-.192a.858.858,0,0,1-.272-.624.9.9,0,0,1,.288-.656l2.336-2.544-2.208-2.4a.9.9,0,0,1-.288-.656.85.85,0,0,1,.272-.632.871.871,0,0,1,.624-.264.928.928,0,0,1,.688.32l2.128,2.336,2.128-2.336a.928.928,0,0,1,.688-.32.862.862,0,0,1,.632.264.862.862,0,0,1,.264.632.9.9,0,0,1-.288.656l-2.208,2.4Z" transform="translate(699 3991.959)" fill="#38485c"/>
    <path id="Trazado_20321" data-name="Trazado 20321" d="M-29.12-1.664q.96,0,.96.816,0,.848-.96.848h-5.408Q-35.5,0-35.5-.848q0-.816.976-.816h1.664v-7.3l-1.536.944a.827.827,0,0,1-.4.128.7.7,0,0,1-.568-.288,1,1,0,0,1-.232-.64.8.8,0,0,1,.416-.72l2.48-1.536a1.782,1.782,0,0,1,.912-.288.973.973,0,0,1,.72.272,1.016,1.016,0,0,1,.272.752v8.672Zm9.536,0q.96,0,.96.816,0,.848-.96.848h-6.08a.87.87,0,0,1-.656-.248.851.851,0,0,1-.24-.616,1.218,1.218,0,0,1,.368-.864l3.648-3.92A6.316,6.316,0,0,0-21.56-7a2.691,2.691,0,0,0,.312-1.224,1.492,1.492,0,0,0-.432-1.152,1.748,1.748,0,0,0-1.232-.4,3.376,3.376,0,0,0-1.272.248,6.362,6.362,0,0,0-1.24.68,1.968,1.968,0,0,1-.32.184.774.774,0,0,1-.32.072.587.587,0,0,1-.472-.256.958.958,0,0,1-.2-.608.92.92,0,0,1,.088-.416,1.068,1.068,0,0,1,.28-.336A5.545,5.545,0,0,1-24.72-11.1a5.721,5.721,0,0,1,1.888-.328,3.942,3.942,0,0,1,2.632.832,2.782,2.782,0,0,1,.984,2.24,4.136,4.136,0,0,1-.416,1.832A8.119,8.119,0,0,1-21.04-4.608l-2.768,2.944Zm7.168-6.352a3.243,3.243,0,0,1,1.8.512A3.4,3.4,0,0,1-9.384-6.056,5,5,0,0,1-8.944-3.9a4.845,4.845,0,0,1-.44,2.128A3.333,3.333,0,0,1-10.608-.368a3.309,3.309,0,0,1-1.808.5A3.1,3.1,0,0,1-13.9-.224,2.47,2.47,0,0,1-14.912-1.2V2.064a.83.83,0,0,1-.272.656,1.048,1.048,0,0,1-.72.24,1.037,1.037,0,0,1-.728-.256.868.868,0,0,1-.28-.672V-7.04a.914.914,0,0,1,.264-.688.979.979,0,0,1,.712-.256,1.008,1.008,0,0,1,.72.256.9.9,0,0,1,.272.688v.4a2.455,2.455,0,0,1,1.016-1.016A3.121,3.121,0,0,1-12.416-8.016Zm-.528,6.592a1.793,1.793,0,0,0,1.472-.648A2.829,2.829,0,0,0-10.944-3.9a2.989,2.989,0,0,0-.528-1.888,1.766,1.766,0,0,0-1.472-.672,1.779,1.779,0,0,0-1.48.656,2.952,2.952,0,0,0-.52,1.872,2.923,2.923,0,0,0,.52,1.856A1.779,1.779,0,0,0-12.944-1.424ZM-.688-1.472A.9.9,0,0,1-.4-.816a.885.885,0,0,1-.272.632.864.864,0,0,1-.64.28A.878.878,0,0,1-2-.24l-2.256-2.5L-6.512-.24A.928.928,0,0,1-7.2.08a.858.858,0,0,1-.624-.272A.858.858,0,0,1-8.1-.816a.9.9,0,0,1,.288-.656l2.336-2.544-2.208-2.4a.9.9,0,0,1-.288-.656A.85.85,0,0,1-7.7-7.7a.871.871,0,0,1,.624-.264.928.928,0,0,1,.688.32l2.128,2.336,2.128-2.336a.928.928,0,0,1,.688-.32A.862.862,0,0,1-.808-7.7a.862.862,0,0,1,.264.632.9.9,0,0,1-.288.656l-2.208,2.4Z" transform="translate(683 3823.28)" fill="#38485c"/>
    <path id="Trazado_20322" data-name="Trazado 20322" d="M-29.12-1.664q.96,0,.96.816,0,.848-.96.848h-5.408Q-35.5,0-35.5-.848q0-.816.976-.816h1.664v-7.3l-1.536.944a.827.827,0,0,1-.4.128.7.7,0,0,1-.568-.288,1,1,0,0,1-.232-.64.8.8,0,0,1,.416-.72l2.48-1.536a1.782,1.782,0,0,1,.912-.288.973.973,0,0,1,.72.272,1.016,1.016,0,0,1,.272.752v8.672Zm9.536,0q.96,0,.96.816,0,.848-.96.848h-6.08a.87.87,0,0,1-.656-.248.851.851,0,0,1-.24-.616,1.218,1.218,0,0,1,.368-.864l3.648-3.92A6.316,6.316,0,0,0-21.56-7a2.691,2.691,0,0,0,.312-1.224,1.492,1.492,0,0,0-.432-1.152,1.748,1.748,0,0,0-1.232-.4,3.376,3.376,0,0,0-1.272.248,6.362,6.362,0,0,0-1.24.68,1.968,1.968,0,0,1-.32.184.774.774,0,0,1-.32.072.587.587,0,0,1-.472-.256.958.958,0,0,1-.2-.608.92.92,0,0,1,.088-.416,1.068,1.068,0,0,1,.28-.336A5.545,5.545,0,0,1-24.72-11.1a5.721,5.721,0,0,1,1.888-.328,3.942,3.942,0,0,1,2.632.832,2.782,2.782,0,0,1,.984,2.24,4.136,4.136,0,0,1-.416,1.832A8.119,8.119,0,0,1-21.04-4.608l-2.768,2.944Zm7.168-6.352a3.243,3.243,0,0,1,1.8.512A3.4,3.4,0,0,1-9.384-6.056,5,5,0,0,1-8.944-3.9a4.845,4.845,0,0,1-.44,2.128A3.333,3.333,0,0,1-10.608-.368a3.309,3.309,0,0,1-1.808.5A3.1,3.1,0,0,1-13.9-.224,2.47,2.47,0,0,1-14.912-1.2V2.064a.83.83,0,0,1-.272.656,1.048,1.048,0,0,1-.72.24,1.037,1.037,0,0,1-.728-.256.868.868,0,0,1-.28-.672V-7.04a.914.914,0,0,1,.264-.688.979.979,0,0,1,.712-.256,1.008,1.008,0,0,1,.72.256.9.9,0,0,1,.272.688v.4a2.455,2.455,0,0,1,1.016-1.016A3.121,3.121,0,0,1-12.416-8.016Zm-.528,6.592a1.793,1.793,0,0,0,1.472-.648A2.829,2.829,0,0,0-10.944-3.9a2.989,2.989,0,0,0-.528-1.888,1.766,1.766,0,0,0-1.472-.672,1.779,1.779,0,0,0-1.48.656,2.952,2.952,0,0,0-.52,1.872,2.923,2.923,0,0,0,.52,1.856A1.779,1.779,0,0,0-12.944-1.424ZM-.688-1.472A.9.9,0,0,1-.4-.816a.885.885,0,0,1-.272.632.864.864,0,0,1-.64.28A.878.878,0,0,1-2-.24l-2.256-2.5L-6.512-.24A.928.928,0,0,1-7.2.08a.858.858,0,0,1-.624-.272A.858.858,0,0,1-8.1-.816a.9.9,0,0,1,.288-.656l2.336-2.544-2.208-2.4a.9.9,0,0,1-.288-.656A.85.85,0,0,1-7.7-7.7a.871.871,0,0,1,.624-.264.928.928,0,0,1,.688.32l2.128,2.336,2.128-2.336a.928.928,0,0,1,.688-.32A.862.862,0,0,1-.808-7.7a.862.862,0,0,1,.264.632.9.9,0,0,1-.288.656l-2.208,2.4Z" transform="translate(683 3788.28)" fill="#38485c"/>
    <g id="Grupo_18116" data-name="Grupo 18116" transform="translate(699 3777.582)">
      <rect id="Rectángulo_3425" data-name="Rectángulo 3425" width="12" height="340" transform="translate(340) rotate(90)" fill="#007bc7" opacity="0.24"/>
      <path id="Trazado_4669" data-name="Trazado 4669" d="M0,339.991V0" transform="translate(339.991 11.944) rotate(90)" fill="none" stroke="#007bc7" stroke-width="1" stroke-dasharray="5 2"/>
      <path id="Trazado_4670" data-name="Trazado 4670" d="M0,339.991V0" transform="translate(339.991) rotate(90)" fill="none" stroke="#007bc7" stroke-width="1" stroke-dasharray="5 2"/>
    </g>
    <g id="Grupo_18120" data-name="Grupo 18120" transform="translate(715 3911.959) rotate(90)">
      <rect id="Rectángulo_3425-2" data-name="Rectángulo 3425" width="16" height="48" transform="translate(48) rotate(90)" fill="#007bc7" opacity="0.24"/>
      <path id="Trazado_4669-2" data-name="Trazado 4669" d="M0,48V0" transform="translate(47.999 15.925) rotate(90)" fill="none" stroke="#007bc7" stroke-width="1" stroke-dasharray="5 2"/>
      <path id="Trazado_4670-2" data-name="Trazado 4670" d="M0,48V0" transform="translate(47.999) rotate(90)" fill="none" stroke="#007bc7" stroke-width="1" stroke-dasharray="5 2"/>
    </g>
    <g id="Grupo_18121" data-name="Grupo 18121" transform="translate(1039 3911.959) rotate(90)">
      <rect id="Rectángulo_3425-3" data-name="Rectángulo 3425" width="16" height="48" transform="translate(48) rotate(90)" fill="#007bc7" opacity="0.24"/>
      <path id="Trazado_4669-3" data-name="Trazado 4669" d="M0,48V0" transform="translate(47.999 15.925) rotate(90)" fill="none" stroke="#007bc7" stroke-width="1" stroke-dasharray="5 2"/>
      <path id="Trazado_4670-3" data-name="Trazado 4670" d="M0,48V0" transform="translate(47.999) rotate(90)" fill="none" stroke="#007bc7" stroke-width="1" stroke-dasharray="5 2"/>
    </g>
    <g id="Grupo_18122" data-name="Grupo 18122" transform="translate(999 3911.959) rotate(90)">
      <rect id="Rectángulo_3425-4" data-name="Rectángulo 3425" width="16" height="48" transform="translate(48) rotate(90)" fill="#007bc7" opacity="0.24"/>
      <path id="Trazado_4669-4" data-name="Trazado 4669" d="M0,48V0" transform="translate(47.999 15.925) rotate(90)" fill="none" stroke="#007bc7" stroke-width="1" stroke-dasharray="5 2"/>
      <path id="Trazado_4670-4" data-name="Trazado 4670" d="M0,48V0" transform="translate(47.999) rotate(90)" fill="none" stroke="#007bc7" stroke-width="1" stroke-dasharray="5 2"/>
    </g>
    <g id="Grupo_18117" data-name="Grupo 18117" transform="translate(699 3812.582)">
      <rect id="Rectángulo_3425-5" data-name="Rectángulo 3425" width="12" height="340" transform="translate(340) rotate(90)" fill="#007bc7" opacity="0.24"/>
      <path id="Trazado_4669-5" data-name="Trazado 4669" d="M0,339.991V0" transform="translate(339.991 11.944) rotate(90)" fill="none" stroke="#007bc7" stroke-width="1" stroke-dasharray="5 2"/>
      <path id="Trazado_4670-5" data-name="Trazado 4670" d="M0,339.991V0" transform="translate(339.991) rotate(90)" fill="none" stroke="#007bc7" stroke-width="1" stroke-dasharray="5 2"/>
    </g>
    <g id="Grupo_18088" data-name="Grupo 18088" transform="translate(699 3773.582)">
      <rect id="Rectángulo_3425-6" data-name="Rectángulo 3425" width="4" height="340" transform="translate(340) rotate(90)" fill="#38485c" opacity="0.24"/>
      <path id="Trazado_4669-6" data-name="Trazado 4669" d="M0,339.991V0" transform="translate(339.991 3.981) rotate(90)" fill="none" stroke="#38485c" stroke-width="1" stroke-dasharray="5 2"/>
      <path id="Trazado_4670-6" data-name="Trazado 4670" d="M0,339.991V0" transform="translate(339.991) rotate(90)" fill="none" stroke="#38485c" stroke-width="1" stroke-dasharray="5 2"/>
    </g>
    <g id="Grupo_18118" data-name="Grupo 18118" transform="translate(699 3824.582)">
      <rect id="Rectángulo_3425-7" data-name="Rectángulo 3425" width="4" height="340" transform="translate(340) rotate(90)" fill="#38485c" opacity="0.24"/>
      <path id="Trazado_4669-7" data-name="Trazado 4669" d="M0,339.991V0" transform="translate(339.991 3.981) rotate(90)" fill="none" stroke="#38485c" stroke-width="1" stroke-dasharray="5 2"/>
      <path id="Trazado_4670-7" data-name="Trazado 4670" d="M0,339.991V0" transform="translate(339.991) rotate(90)" fill="none" stroke="#38485c" stroke-width="1" stroke-dasharray="5 2"/>
    </g>
  </g>
</svg>
