<svg xmlns="http://www.w3.org/2000/svg" width="712" height="286" viewBox="0 0 712 286">
  <g id="Grupo_32435" data-name="Grupo 32435" transform="translate(-513 -5024)">
    <g id="Trazado_31915" data-name="Trazado 31915" transform="translate(513 5024)" fill="#fff">
      <path d="M 704 285 L 8 285 C 6.202908992767334 285 4.486908912658691 283.9400939941406 3.167999982833862 282.015625 C 1.769909143447876 279.9755554199219 1 277.2449035644531 1 274.3265380859375 L 1 11.67345428466797 C 1 8.755090713500977 1.769909143447876 6.024454593658447 3.167999982833862 3.984363555908203 C 4.486908912658691 2.059909105300903 6.202908992767334 1 8 1 L 704 1 C 705.797119140625 1 707.5130615234375 2.059909105300903 708.8319702148438 3.984363555908203 C 710.2301025390625 6.024454593658447 711 8.755090713500977 711 11.67345428466797 L 711 274.3265380859375 C 711 277.2449035644531 710.2301025390625 279.9755554199219 708.8319702148438 282.015625 C 707.5130615234375 283.9400939941406 705.797119140625 285 704 285 Z" stroke="none"/>
      <path d="M 8 2 C 6.0338134765625 2 4.64544677734375 3.597442626953125 3.992919921875 4.54962158203125 C 2.70770263671875 6.424896240234375 2 8.95489501953125 2 11.6734619140625 L 2 274.3265380859375 C 2 277.0451049804688 2.70770263671875 279.5751037597656 3.992919921875 281.4503784179688 C 4.64544677734375 282.4025573730469 6.0338134765625 284 8 284 L 704 284 C 705.9661865234375 284 707.3545532226562 282.4025573730469 708.007080078125 281.4503784179688 C 709.2922973632812 279.5751037597656 710 277.0451049804688 710 274.3265380859375 L 710 11.6734619140625 C 710 8.95489501953125 709.2922973632812 6.424896240234375 708.007080078125 4.54962158203125 C 707.3545532226562 3.597442626953125 705.9661865234375 2 704 2 L 8 2 M 8 0 L 704 0 C 708.4182739257812 0 712 5.226348876953125 712 11.6734619140625 L 712 274.3265380859375 C 712 280.7736511230469 708.4182739257812 286 704 286 L 8 286 C 3.58172607421875 286 0 280.7736511230469 0 274.3265380859375 L 0 11.6734619140625 C 0 5.226348876953125 3.58172607421875 0 8 0 Z" stroke="none" fill="#38485c"/>
    </g>
    <g id="Grupo_32360" data-name="Grupo 32360" transform="translate(-8 1945.5)">
      <g id="Grupo_18136" data-name="Grupo 18136" transform="translate(-391 -793)">
        <path id="Trazado_4658" data-name="Trazado 4658" d="M16,0A16,16,0,1,0,32,16,16.018,16.018,0,0,0,16,0Zm0,0" transform="translate(1181 3997)" fill="#26874a"/>
        <path id="Trazado_4659" data-name="Trazado 4659" d="M156.6,167.6l-8.667,8.667a1.332,1.332,0,0,1-1.885,0l-4.333-4.333a1.333,1.333,0,0,1,1.885-1.885L147,173.443l7.724-7.724A1.333,1.333,0,0,1,156.6,167.6Zm0,0" transform="translate(1048.504 3842.005)" fill="#fafafa"/>
      </g>
      <g id="Grupo_18137" data-name="Grupo 18137" transform="translate(-52 -1027)">
        <path id="Trazado_4660" data-name="Trazado 4660" d="M16,0A16,16,0,1,0,32,16,16.018,16.018,0,0,0,16,0Zm0,0" transform="translate(1181 4231)" fill="#c93b3b"/>
        <path id="Trazado_4661" data-name="Trazado 4661" d="M167.646,165.761a1.333,1.333,0,1,1-1.885,1.885l-4.007-4.007-4.007,4.007a1.333,1.333,0,0,1-1.886-1.885l4.007-4.007-4.007-4.007a1.333,1.333,0,0,1,1.886-1.885l4.007,4.007,4.007-4.007a1.333,1.333,0,0,1,1.885,1.885l-4.007,4.007Zm0,0" transform="translate(1035.246 4085.246)" fill="#fff"/>
      </g>
      <g id="Grupo_11850" data-name="Grupo 11850" transform="translate(593 3131.214)">
        <rect id="Rectángulo_4834" data-name="Rectángulo 4834" width="175.786" height="18.893" transform="translate(0 8.214)" fill="#e6ebf0"/>
        <rect id="Rectángulo_4836" data-name="Rectángulo 4836" width="175.786" height="18.893" transform="translate(0 45.179)" fill="#e6ebf0"/>
        <rect id="Rectángulo_4842" data-name="Rectángulo 4842" width="175.786" height="32.857" transform="translate(0 119.107)" fill="#e6ebf0"/>
        <rect id="Rectángulo_4838" data-name="Rectángulo 4838" width="83.786" height="18.893" transform="translate(0 82.143)" fill="#e6ebf0"/>
        <rect id="Rectángulo_4840" data-name="Rectángulo 4840" width="83.786" height="18.893" transform="translate(92 82.143)" fill="#e6ebf0"/>
        <rect id="Rectángulo_4835" data-name="Rectángulo 4835" width="49.286" height="4.929" transform="translate(0 0)" fill="#e6ebf0"/>
        <rect id="Rectángulo_4837" data-name="Rectángulo 4837" width="49.286" height="4.929" transform="translate(0 36.964)" fill="#e6ebf0"/>
        <rect id="Rectángulo_4843" data-name="Rectángulo 4843" width="49.286" height="4.929" transform="translate(0 110.893)" fill="#e6ebf0"/>
        <rect id="Rectángulo_4839" data-name="Rectángulo 4839" width="49.286" height="4.929" transform="translate(0 73.929)" fill="#e6ebf0"/>
        <rect id="Rectángulo_4841" data-name="Rectángulo 4841" width="49.286" height="4.929" transform="translate(92 73.929)" fill="#e6ebf0"/>
        <g id="Botón_Primario" data-name="Botón Primario" transform="translate(119.929 171.679)">
          <rect id="Rectángulo_3061" data-name="Rectángulo 3061" width="55.857" height="13.964" rx="1" fill="#ffdb2e"/>
        </g>
        <g id="Botón_Primario-2" data-name="Botón Primario" transform="translate(56.679 171.679)">
          <rect id="Rectángulo_3061-2" data-name="Rectángulo 3061" width="55.857" height="13.964" rx="1" fill="#dfe7f0"/>
        </g>
      </g>
      <line id="Línea_157" data-name="Línea 157" y1="179.125" transform="translate(770.018 3137.375)" fill="none" stroke="#38485c" stroke-width="2" stroke-dasharray="5 2"/>
      <g id="Grupo_11850-2" data-name="Grupo 11850" transform="translate(933 3131.214)">
        <rect id="Rectángulo_4834-2" data-name="Rectángulo 4834" width="175.786" height="18.893" transform="translate(0 8.214)" fill="#e6ebf0"/>
        <rect id="Rectángulo_4836-2" data-name="Rectángulo 4836" width="175.786" height="18.893" transform="translate(0 45.179)" fill="#e6ebf0"/>
        <rect id="Rectángulo_4842-2" data-name="Rectángulo 4842" width="175.786" height="32.857" transform="translate(0 119.107)" fill="#e6ebf0"/>
        <rect id="Rectángulo_4838-2" data-name="Rectángulo 4838" width="83.786" height="18.893" transform="translate(0 82.143)" fill="#e6ebf0"/>
        <rect id="Rectángulo_4840-2" data-name="Rectángulo 4840" width="83.786" height="18.893" transform="translate(92 82.143)" fill="#e6ebf0"/>
        <rect id="Rectángulo_4835-2" data-name="Rectángulo 4835" width="49.286" height="4.929" transform="translate(0 0)" fill="#e6ebf0"/>
        <rect id="Rectángulo_4837-2" data-name="Rectángulo 4837" width="49.286" height="4.929" transform="translate(0 36.964)" fill="#e6ebf0"/>
        <rect id="Rectángulo_4843-2" data-name="Rectángulo 4843" width="49.286" height="4.929" transform="translate(0 110.893)" fill="#e6ebf0"/>
        <rect id="Rectángulo_4839-2" data-name="Rectángulo 4839" width="49.286" height="4.929" transform="translate(0 73.929)" fill="#e6ebf0"/>
        <rect id="Rectángulo_4841-2" data-name="Rectángulo 4841" width="49.286" height="4.929" transform="translate(92 73.929)" fill="#e6ebf0"/>
        <g id="Botón_Primario-3" data-name="Botón Primario" transform="translate(-0.071 171.679)">
          <rect id="Rectángulo_3061-3" data-name="Rectángulo 3061" width="55.857" height="13.964" rx="1" fill="#ffdb2e"/>
        </g>
        <g id="Botón_Primario-4" data-name="Botón Primario" transform="translate(63.679 171.679)">
          <rect id="Rectángulo_3061-4" data-name="Rectángulo 3061" width="55.857" height="13.964" rx="1" fill="#dfe7f0"/>
        </g>
      </g>
      <line id="Línea_157-2" data-name="Línea 157" y1="190" transform="translate(933.018 3126.5)" fill="none" stroke="#38485c" stroke-width="2" stroke-dasharray="5 2"/>
    </g>
  </g>
</svg>
