<svg width="712" height="473" viewBox="0 0 712 473" fill="none" xmlns="http://www.w3.org/2000/svg">
<rect width="712" height="473" rx="8" fill="#F3F6F9"/>
<rect x="50" y="48" width="178.64" height="179.005" rx="8" fill="white"/>
<path d="M58 62.3469C58 58.8416 60.8416 56 64.3469 56H115.122C118.627 56 121.469 58.8416 121.469 62.3469V113.122C121.469 116.627 118.627 119.469 115.122 119.469H64.3469C60.8416 119.469 58 116.627 58 113.122V62.3469Z" fill="#9EAAB8"/>
<path d="M58 131.469H197.632V145.75H58V131.469Z" fill="#38485C"/>
<path d="M58 153.75H220.64V160.096H58V153.75Z" fill="#505E70"/>
<path d="M58 166.096H208.739V172.443H58V166.096Z" fill="#505E70"/>
<path d="M58 178.443H215.086V184.79H58V178.443Z" fill="#505E70"/>
<path d="M58 204.79C58 200.372 61.5817 196.79 66 196.79H101.569C105.987 196.79 109.569 200.372 109.569 204.79V211.004C109.569 215.423 105.987 219.004 101.569 219.004H66C61.5817 219.004 58 215.423 58 211.004V204.79Z" fill="#5C6A7A"/>
<rect x="50" y="259" width="267" height="165.964" rx="8" fill="white"/>
<path d="M58 273.347C58 269.842 60.8416 267 64.3469 267H115.122C118.627 267 121.469 269.842 121.469 273.347V324.122C121.469 327.627 118.627 330.469 115.122 330.469H64.3469C60.8416 330.469 58 327.627 58 324.122V273.347Z" fill="#9EAAB8"/>
<path d="M58 342.469H197.632V356.75H58V342.469Z" fill="#38485C"/>
<path d="M58 364.75H289V370.75H58V364.75Z" fill="#505E70"/>
<path d="M58 376.75H272V382.75H58V376.75Z" fill="#505E70"/>
<path d="M58 402.75C58 398.331 61.5817 394.75 66 394.75H101.569C105.987 394.75 109.569 398.331 109.569 402.75V408.964C109.569 413.382 105.987 416.964 101.569 416.964H66C61.5817 416.964 58 413.382 58 408.964V402.75Z" fill="#5C6A7A"/>
<rect x="243" y="48" width="178.64" height="179.005" rx="8" fill="white"/>
<path d="M251 62.3469C251 58.8416 253.842 56 257.347 56H308.122C311.627 56 314.469 58.8416 314.469 62.3469V113.122C314.469 116.627 311.627 119.469 308.122 119.469H257.347C253.842 119.469 251 116.627 251 113.122V62.3469Z" fill="#9EAAB8"/>
<path d="M251 131.469H390.632V145.75H251V131.469Z" fill="#38485C"/>
<path d="M251 153.75H413.64V160.096H251V153.75Z" fill="#505E70"/>
<path d="M251 166.096H401.739V172.443H251V166.096Z" fill="#505E70"/>
<path d="M251 178.443H408.086V184.79H251V178.443Z" fill="#505E70"/>
<path d="M251 204.79C251 200.372 254.582 196.79 259 196.79H294.569C298.987 196.79 302.569 200.372 302.569 204.79V211.004C302.569 215.423 298.987 219.004 294.569 219.004H259C254.582 219.004 251 215.423 251 211.004V204.79Z" fill="#5C6A7A"/>
<rect x="339" y="259" width="267" height="165.964" rx="8" fill="white"/>
<path d="M347 273.347C347 269.842 349.842 267 353.347 267H404.122C407.627 267 410.469 269.842 410.469 273.347V324.122C410.469 327.627 407.627 330.469 404.122 330.469H353.347C349.842 330.469 347 327.627 347 324.122V273.347Z" fill="#9EAAB8"/>
<path d="M347 342.469H486.632V356.75H347V342.469Z" fill="#38485C"/>
<path d="M347 364.75H578V370.75H347V364.75Z" fill="#505E70"/>
<path d="M347 376.75H561V382.75H347V376.75Z" fill="#505E70"/>
<path d="M347 402.75C347 398.331 350.582 394.75 355 394.75H390.569C394.987 394.75 398.569 398.331 398.569 402.75V408.964C398.569 413.382 394.987 416.964 390.569 416.964H355C350.582 416.964 347 413.382 347 408.964V402.75Z" fill="#5C6A7A"/>
<path d="M649.933 127.648C647.955 127.648 646.022 128.234 644.377 129.333C642.733 130.432 641.451 131.994 640.694 133.821C639.937 135.648 639.739 137.659 640.125 139.599C640.511 141.539 641.463 143.32 642.862 144.719C644.26 146.118 646.042 147.07 647.982 147.456C649.922 147.842 651.933 147.644 653.76 146.887C655.587 146.13 657.149 144.848 658.248 143.204C659.347 141.559 659.933 139.626 659.933 137.648C659.933 134.996 658.879 132.452 657.004 130.577C655.129 128.702 652.585 127.648 649.933 127.648ZM647.223 141.938L643.633 138.348C643.469 138.157 643.384 137.911 643.393 137.659C643.403 137.407 643.507 137.168 643.685 136.99C643.864 136.812 644.102 136.708 644.354 136.698C644.606 136.689 644.852 136.774 645.043 136.938L647.933 139.818L654.813 132.938C655.004 132.774 655.25 132.689 655.502 132.698C655.754 132.708 655.992 132.812 656.171 132.99C656.349 133.168 656.453 133.407 656.463 133.659C656.472 133.911 656.387 134.157 656.223 134.348L648.633 141.938C648.446 142.124 648.192 142.229 647.928 142.229C647.664 142.229 647.41 142.124 647.223 141.938Z" fill="#26874A"/>
<path d="M650 339C648.022 339 646.089 339.586 644.444 340.685C642.8 341.784 641.518 343.346 640.761 345.173C640.004 347 639.806 349.011 640.192 350.951C640.578 352.891 641.53 354.673 642.929 356.071C644.327 357.47 646.109 358.422 648.049 358.808C649.989 359.194 652 358.996 653.827 358.239C655.654 357.482 657.216 356.2 658.315 354.556C659.414 352.911 660 350.978 660 349C660.001 347.686 659.743 346.386 659.241 345.172C658.739 343.958 658.003 342.855 657.074 341.926C656.145 340.997 655.042 340.261 653.828 339.759C652.614 339.257 651.314 338.999 650 339ZM654.3 353.3C654.113 353.486 653.859 353.591 653.595 353.591C653.331 353.591 653.077 353.486 652.89 353.3L650 350.41L647.11 353.3C647.02 353.405 646.91 353.49 646.786 353.55C646.662 353.61 646.527 353.643 646.389 353.649C646.251 353.654 646.114 353.631 645.986 353.581C645.857 353.53 645.741 353.454 645.643 353.357C645.546 353.259 645.47 353.143 645.419 353.014C645.369 352.886 645.346 352.749 645.351 352.611C645.357 352.473 645.39 352.338 645.45 352.214C645.51 352.09 645.595 351.98 645.7 351.89L648.59 349L645.7 346.11C645.536 345.919 645.451 345.673 645.46 345.421C645.47 345.169 645.574 344.931 645.752 344.752C645.931 344.574 646.169 344.47 646.421 344.46C646.673 344.451 646.919 344.536 647.11 344.7L650 347.59L652.89 344.7C653.081 344.536 653.327 344.451 653.579 344.46C653.831 344.47 654.069 344.574 654.248 344.752C654.426 344.931 654.53 345.169 654.54 345.421C654.549 345.673 654.464 345.919 654.3 346.11L651.41 349L654.3 351.89C654.483 352.079 654.585 352.332 654.585 352.595C654.585 352.858 654.483 353.111 654.3 353.3Z" fill="#C93B3B"/>
</svg>
