<svg width="712" height="631" viewBox="0 0 712 631" fill="none" xmlns="http://www.w3.org/2000/svg">
<rect width="712" height="631" rx="8" fill="#F3F6F9"/>
<path d="M39 56C39 51.5817 42.5817 48 47 48H664C668.418 48 672 51.5817 672 56V575C672 579.418 668.418 583 664 583H47C42.5817 583 39 579.418 39 575V56Z" fill="white"/>
<path d="M39 531H672V575C672 579.418 668.418 583 664 583H47C42.5817 583 39 579.418 39 575V531Z" fill="#38485C"/>
<path d="M140 101H154.258V104.484H140V101Z" fill="#007BC7"/>
<path d="M168 101H233V104H168V101Z" fill="#007BC7"/>
<path d="M247 101H269V104H247V101Z" fill="#007BC7"/>
<path d="M160.355 101H162V104.484H160.355V101Z" fill="#38485C"/>
<path d="M239 101H240.645V104.484H239V101Z" fill="#38485C"/>
<path d="M140 201H377V204H140V201Z" fill="#505E70"/>
<path d="M140 278H377V281H140V278Z" fill="#505E70"/>
<path d="M140 355H377V358H140V355Z" fill="#505E70"/>
<path d="M140 208H370V211H140V208Z" fill="#505E70"/>
<path d="M140 285H370V288H140V285Z" fill="#505E70"/>
<path d="M140 362H370V365H140V362Z" fill="#505E70"/>
<path d="M140 215H359V218H140V215Z" fill="#505E70"/>
<path d="M140 292H359V295H140V292Z" fill="#505E70"/>
<path d="M140 369H359V372H140V369Z" fill="#505E70"/>
<path d="M140 222H377V225H140V222Z" fill="#505E70"/>
<path d="M140 299H377V302H140V299Z" fill="#505E70"/>
<path d="M140 376H377V379H140V376Z" fill="#505E70"/>
<path d="M140 229H370V232H140V229Z" fill="#505E70"/>
<path d="M140 306H370V309H140V306Z" fill="#505E70"/>
<path d="M140 383H370V386H140V383Z" fill="#505E70"/>
<path d="M140 236H377V239H140V236Z" fill="#505E70"/>
<path d="M140 313H377V316H140V313Z" fill="#505E70"/>
<path d="M140 390H377V393H140V390Z" fill="#505E70"/>
<path d="M140 243H370V246H140V243Z" fill="#505E70"/>
<path d="M140 320H370V323H140V320Z" fill="#505E70"/>
<path d="M140 397H370V400H140V397Z" fill="#505E70"/>
<path d="M140 121H377V130H140V121Z" fill="#38485C"/>
<path d="M140 138H341V147H140V138Z" fill="#38485C"/>
<path d="M140 166H377V167H140V166Z" fill="#D1D8E0"/>
<path d="M140 187H211V193H140V187Z" fill="#38485C"/>
<path d="M140 264H211V270H140V264Z" fill="#38485C"/>
<path d="M140 341H211V347H140V341Z" fill="#38485C"/>
<path d="M140 418H211V424H140V418Z" fill="#38485C"/>
<path d="M140 440C140 437.791 141.791 436 144 436H396C398.209 436 400 437.791 400 440V449C400 451.209 398.209 453 396 453H144C141.791 453 140 451.209 140 449V440Z" fill="#E6EBF0"/>
<path d="M146 443H253V446H146V443Z" fill="#505E70"/>
<path d="M389 443H392V446H389V443Z" fill="#505E70"/>
<path d="M140 463C140 460.791 141.791 459 144 459H396C398.209 459 400 460.791 400 463V472C400 474.209 398.209 476 396 476H144C141.791 476 140 474.209 140 472V463Z" fill="#E6EBF0"/>
<path d="M146 466H253V469H146V466Z" fill="#505E70"/>
<path d="M389 466H392V469H389V466Z" fill="#505E70"/>
<path d="M140 486C140 483.791 141.791 482 144 482H396C398.209 482 400 483.791 400 486V495C400 497.209 398.209 499 396 499H144C141.791 499 140 497.209 140 495V486Z" fill="#E6EBF0"/>
<path d="M146 489H253V492H146V489Z" fill="#505E70"/>
<path d="M389 489H392V492H389V489Z" fill="#505E70"/>
<g clip-path="url(#clip0_3141_14354)">
<path d="M163.767 560.296L159.164 551.339C158.767 550.544 157.953 550 157.009 550H157.006C156.063 550 155.249 550.544 154.852 551.339L151.611 557.644C151.25 556.996 150.673 556.487 149.977 556.212C150.754 555.646 151.26 554.724 151.26 553.683C151.26 552.477 150.58 551.433 149.585 550.915C148.709 550.451 147.709 550.189 146.649 550.189H141.802C140.805 550.189 140 551 140 552.001V561.084C140 562.086 140.805 562.897 141.802 562.897H147.044C148.054 562.897 149.015 562.686 149.888 562.31L150.22 562.149C150.238 562.14 150.256 562.13 150.275 562.121C150.59 562.647 151.16 563.001 151.816 563.001C152.546 563.001 153.174 562.566 153.457 561.937C153.598 561.605 153.916 561.37 154.292 561.351H159.722C160.099 561.37 160.416 561.605 160.557 561.937C160.839 562.566 161.469 563.001 162.198 563.001C163.193 563.001 163.999 562.188 163.999 561.19C163.999 560.864 163.916 560.56 163.766 560.297" fill="white"/>
</g>
<g clip-path="url(#clip1_3141_14354)">
<path d="M191.166 558.766H189.094V554.397H191.055C191.906 554.397 192.336 554.85 192.336 555.581C192.336 555.946 192.183 556.243 191.919 556.437C192.281 556.632 192.5 556.985 192.5 557.482C192.5 558.263 191.986 558.766 191.166 558.766ZM189.904 555.153V556.115H191.055C191.331 556.115 191.551 555.921 191.551 555.631C191.551 555.342 191.362 555.153 191.055 555.153H189.904ZM191.037 556.878H189.904V558.005H191.055C191.367 558.005 191.674 557.879 191.674 557.451C191.674 557.086 191.447 556.879 191.037 556.879V556.878Z" fill="white"/>
<path d="M195.674 558.766H194.902V558.471C194.706 558.703 194.431 558.842 194.099 558.842C193.352 558.842 192.856 558.269 192.856 557.42V555.526H193.664V557.42C193.664 557.603 193.725 558.056 194.253 558.056C194.614 558.056 194.865 557.779 194.865 557.42V555.526H195.673V558.767L195.674 558.766Z" fill="white"/>
<path d="M196.936 557.47C197.04 557.866 197.346 558.111 197.726 558.111C197.996 558.111 198.26 557.992 198.394 557.734H199.257C199.074 558.395 198.516 558.841 197.732 558.841C196.843 558.841 196.115 558.086 196.115 557.148C196.115 556.209 196.845 555.442 197.732 555.442C198.619 555.442 199.436 556.185 199.318 557.47H196.935H196.936ZM198.517 556.79C198.419 556.412 198.112 556.173 197.726 556.173C197.341 556.173 197.064 556.412 196.948 556.79H198.517Z" fill="white"/>
<path d="M202.578 558.766H201.769V556.871C201.769 556.682 201.714 556.229 201.181 556.229C200.819 556.229 200.569 556.506 200.569 556.871V558.766H199.76V555.524H200.533V555.84C200.734 555.594 201.011 555.443 201.348 555.443C202.09 555.443 202.579 556.016 202.579 556.872V558.767L202.578 558.766Z" fill="white"/>
<path d="M206.168 557.149C206.168 558.118 205.451 558.842 204.575 558.842C203.698 558.842 202.988 558.118 202.988 557.149C202.988 556.179 203.698 555.443 204.575 555.443C205.451 555.443 206.168 556.18 206.168 557.149ZM205.352 557.154C205.352 556.594 205.003 556.204 204.575 556.204C204.146 556.204 203.797 556.595 203.797 557.154C203.797 557.714 204.146 558.08 204.575 558.08C205.003 558.08 205.352 557.702 205.352 557.154Z" fill="white"/>
<path d="M207.877 558.841C207.074 558.841 206.48 558.407 206.382 557.708H207.203C207.313 557.985 207.638 558.086 207.877 558.086C208.202 558.086 208.446 557.985 208.446 557.796C208.446 557.608 208.336 557.538 207.784 557.45C207.221 557.362 206.468 557.204 206.468 556.48C206.468 555.971 206.903 555.442 207.815 555.442C208.538 555.442 209.076 555.846 209.181 556.456H208.342C208.294 556.305 208.116 556.185 207.816 556.185C207.443 556.185 207.289 556.324 207.289 556.443C207.289 556.614 207.522 556.67 207.914 556.733C208.699 556.865 209.261 557.041 209.261 557.747C209.261 558.388 208.685 558.842 207.877 558.842V558.841Z" fill="white"/>
<path d="M212.281 557.891L211.993 558.766H211.135L212.618 554.397H213.64L215.123 558.766H214.265L213.978 557.891H212.281ZM213.126 555.323L212.532 557.116H213.721L213.126 555.323Z" fill="white"/>
<path d="M216.269 555.172H215.46V554.398H216.269V555.172ZM216.269 558.767H215.46V555.526H216.269V558.767Z" fill="white"/>
<path d="M219.736 557.035H218.927V556.872C218.927 556.683 218.872 556.23 218.339 556.23C217.977 556.23 217.726 556.507 217.726 556.872V558.767H216.918V555.526H217.69V555.841C217.892 555.595 218.168 555.445 218.505 555.445C219.247 555.445 219.737 556.017 219.737 556.873V557.037L219.736 557.035Z" fill="white"/>
<path d="M220.808 557.47C220.911 557.866 221.218 558.111 221.598 558.111C221.868 558.111 222.131 557.992 222.266 557.734H223.129C222.945 558.395 222.387 558.841 221.604 558.841C220.715 558.841 219.987 558.086 219.987 557.148C219.987 556.209 220.716 555.442 221.604 555.442C222.491 555.442 223.307 556.185 223.19 557.47H220.807H220.808ZM222.388 556.79C222.29 556.412 221.984 556.173 221.598 556.173C221.213 556.173 220.936 556.412 220.82 556.79H222.388Z" fill="white"/>
<path d="M224.924 558.841C224.121 558.841 223.527 558.407 223.429 557.708H224.25C224.36 557.985 224.685 558.086 224.924 558.086C225.249 558.086 225.494 557.985 225.494 557.796C225.494 557.608 225.383 557.538 224.832 557.45C224.268 557.362 223.515 557.204 223.515 556.48C223.515 555.971 223.95 555.442 224.862 555.442C225.585 555.442 226.124 555.846 226.229 556.456H225.39C225.341 556.305 225.163 556.185 224.863 556.185C224.49 556.185 224.337 556.324 224.337 556.443C224.337 556.614 224.569 556.67 224.961 556.733C225.746 556.865 226.309 557.041 226.309 557.747C226.309 558.388 225.733 558.842 224.924 558.842V558.841Z" fill="white"/>
<path d="M230.389 558.841C229.231 558.841 228.33 557.84 228.33 556.562C228.33 555.285 229.231 554.284 230.389 554.284C231.351 554.284 232.061 554.844 232.325 555.738H231.449C231.259 555.341 230.879 555.045 230.389 555.045C229.691 555.045 229.14 555.738 229.14 556.562C229.14 557.387 229.691 558.086 230.389 558.086C230.873 558.086 231.259 557.778 231.449 557.38H232.319C232.05 558.268 231.333 558.841 230.389 558.841Z" fill="white"/>
<path d="M233.537 555.172H232.728V554.398H233.537V555.172ZM233.537 558.767H232.728V555.526H233.537V558.767Z" fill="white"/>
<path d="M236.943 558.766H236.171V558.471C235.974 558.703 235.699 558.842 235.368 558.842C234.62 558.842 234.124 558.269 234.124 557.42V555.526H234.933V557.42C234.933 557.603 234.994 558.056 235.521 558.056C235.883 558.056 236.133 557.779 236.133 557.42V555.526H236.942V558.767L236.943 558.766Z" fill="white"/>
<path d="M240.625 558.766H239.853V558.42C239.602 558.684 239.271 558.836 238.886 558.836C238.065 558.836 237.385 558.106 237.385 557.149C237.385 556.192 238.065 555.455 238.886 555.455C239.253 555.455 239.572 555.594 239.817 555.833V554.083H240.625V558.766ZM239.008 556.223C238.561 556.223 238.2 556.626 238.2 557.155C238.2 557.683 238.562 558.068 239.008 558.068C239.455 558.068 239.817 557.659 239.817 557.155C239.817 556.651 239.455 556.223 239.008 556.223Z" fill="white"/>
<path d="M244.324 558.766H243.552V558.42C243.307 558.684 242.97 558.835 242.585 558.835C241.764 558.835 241.084 558.106 241.084 557.149C241.084 556.192 241.764 555.455 242.585 555.455C242.97 555.455 243.307 555.606 243.552 555.871V555.525H244.324V558.766ZM242.708 556.223C242.26 556.223 241.899 556.626 241.899 557.155C241.899 557.683 242.261 558.067 242.708 558.067C243.154 558.067 243.516 557.658 243.516 557.155C243.516 556.651 243.154 556.223 242.708 556.223Z" fill="white"/>
<path d="M248 558.766H247.228V558.42C246.976 558.684 246.646 558.836 246.26 558.836C245.44 558.836 244.76 558.106 244.76 557.149C244.76 556.192 245.44 555.455 246.26 555.455C246.628 555.455 246.947 555.594 247.192 555.833V554.083H248V558.766ZM246.383 556.223C245.936 556.223 245.575 556.626 245.575 557.155C245.575 557.683 245.937 558.068 246.383 558.068C246.83 558.068 247.192 557.659 247.192 557.155C247.192 556.651 246.83 556.223 246.383 556.223Z" fill="white"/>
<path d="M184.245 553.056H184.236C183.923 553.043 183.623 552.926 183.334 552.814C183.216 552.769 183.096 552.721 182.976 552.683C182.738 552.605 182.527 552.564 182.328 552.553C182.277 552.551 182.228 552.549 182.177 552.549C182.044 552.549 181.856 552.561 181.74 552.68C181.706 552.527 181.667 552.358 181.606 552.195C181.547 552.042 181.458 551.861 181.3 551.812C181.273 551.803 181.248 551.8 181.221 551.8C181.065 551.8 180.945 551.946 180.886 552.032L180.859 552.071C180.791 552.173 180.757 552.223 180.767 552.272C180.779 552.32 180.835 552.356 180.963 552.433C181.018 552.465 181.029 552.547 181.036 552.609V552.616C181.048 552.709 181.054 552.798 181.053 552.882C180.871 552.69 180.593 552.615 180.341 552.566C180.273 552.553 180.203 552.545 180.131 552.545C179.842 552.545 179.559 552.658 179.371 552.74C179.265 552.787 179.158 552.839 179.057 552.89C178.858 552.987 178.654 553.088 178.442 553.155C178.377 553.175 178.309 553.192 178.224 553.207H178.22C178.22 553.207 178.219 553.208 178.215 553.208H178.21C178.177 553.215 178.123 553.233 178.111 553.284C178.1 553.335 178.107 553.369 178.175 553.423C178.329 553.514 178.52 553.558 178.751 553.558C178.798 553.558 178.848 553.556 178.901 553.552C178.971 553.548 179.041 553.539 179.115 553.529C179.223 553.515 179.332 553.501 179.437 553.501C179.509 553.501 179.573 553.508 179.63 553.522C179.803 553.563 179.904 553.738 179.995 553.895C180.018 553.934 180.039 553.97 180.06 554.004L180.062 554.007C180.103 554.071 180.173 554.18 180.168 554.261C180.165 554.34 180.059 554.404 179.982 554.453C179.962 554.467 179.942 554.479 179.927 554.488C179.903 554.505 179.873 554.525 179.845 554.546C179.672 554.658 179.434 554.812 179.462 555.021C179.474 555.123 179.558 555.206 179.66 555.218C179.668 555.22 179.678 555.22 179.688 555.22C179.759 555.22 179.824 555.185 179.886 555.154C179.913 555.139 179.94 555.124 179.966 555.113C180.049 555.079 180.132 555.061 180.213 555.061C180.353 555.061 180.488 555.109 180.612 555.205C180.653 555.236 180.689 555.274 180.725 555.31C180.764 555.351 180.804 555.393 180.849 555.424C180.884 555.452 180.952 555.479 181.009 555.479C181.067 555.479 181.104 555.452 181.114 555.4C181.134 555.296 181.133 555.188 181.133 555.083C181.132 555 181.132 554.913 181.142 554.831C181.149 554.78 181.163 554.678 181.226 554.645C181.246 554.635 181.272 554.63 181.3 554.63C181.332 554.63 181.367 554.636 181.399 554.641C181.445 554.649 181.493 554.656 181.532 554.65C181.715 554.625 181.867 554.472 181.938 554.239C181.973 554.161 182.014 554.128 182.091 554.107C182.182 554.085 182.239 554.007 182.296 553.933C182.309 553.914 182.324 553.896 182.337 553.879C182.454 553.738 182.592 553.677 182.79 553.677C182.825 553.677 182.865 553.679 182.909 553.683C182.949 553.687 182.99 553.692 183.03 553.697C183.135 553.708 183.236 553.721 183.339 553.721C183.45 553.721 183.548 553.706 183.64 553.675C183.876 553.594 184.086 553.436 184.277 553.276L184.305 553.253C184.359 553.207 184.373 553.177 184.357 553.124C184.343 553.071 184.276 553.058 184.25 553.056M180.164 553.78C180.118 553.7 180.069 553.617 180.009 553.545C179.871 553.372 179.689 553.296 179.414 553.296C179.301 553.296 179.179 553.31 179.062 553.322C178.948 553.335 178.829 553.348 178.716 553.348C178.657 553.348 178.603 553.344 178.554 553.338C178.751 553.27 178.94 553.177 179.124 553.086C179.32 552.989 179.526 552.888 179.738 552.821C179.868 552.778 180.006 552.757 180.146 552.757C180.401 552.757 180.635 552.827 180.827 552.956C180.986 553.064 181.032 553.179 180.979 553.34C180.921 553.51 180.822 553.678 180.683 553.84C180.673 553.85 180.664 553.863 180.652 553.876C180.592 553.95 180.492 554.073 180.406 554.073C180.38 554.073 180.358 554.063 180.337 554.038C180.269 553.961 180.214 553.869 180.163 553.78M181.766 554.02C181.746 554.162 181.691 554.284 181.607 554.364C181.532 554.433 181.45 554.448 181.341 554.448H181.286C181.265 554.448 181.246 554.447 181.224 554.447C181.155 554.447 181.097 554.47 181.052 554.518C180.92 554.655 180.923 554.956 180.925 555.154V555.219L180.911 555.206C180.744 555.049 180.59 554.897 180.354 554.861C180.318 554.854 180.28 554.852 180.242 554.852C180.17 554.852 180.095 554.861 180.019 554.879C179.952 554.896 179.895 554.922 179.836 554.951C179.812 554.961 179.791 554.972 179.766 554.983C179.736 554.994 179.699 555.007 179.677 555.007C179.67 555.007 179.665 555.006 179.662 555.003C179.662 555 179.662 554.995 179.662 554.989C179.683 554.908 179.77 554.849 179.838 554.803L179.856 554.79C180.03 554.67 180.194 554.548 180.355 554.42C180.651 554.184 180.974 553.889 181.138 553.489C181.229 553.265 181.269 553.007 181.251 552.742V552.727C181.244 552.619 181.237 552.506 181.193 552.407C181.158 552.324 181.096 552.286 181.03 552.246C181.016 552.238 181.005 552.23 180.992 552.223C181.024 552.163 181.111 552.005 181.21 552.005C181.248 552.005 181.287 552.03 181.321 552.078C181.438 552.244 181.492 552.442 181.539 552.617C181.547 552.647 181.556 552.68 181.565 552.714C181.659 553.053 181.814 553.618 181.765 554.019M183.783 553.378C183.622 553.472 183.478 553.517 183.341 553.517H183.329C183.239 553.515 183.149 553.502 183.061 553.49C182.987 553.48 182.909 553.471 182.834 553.466C182.645 553.457 182.498 553.489 182.38 553.561C182.299 553.611 182.242 553.682 182.188 553.752C182.149 553.802 182.106 553.854 182.056 553.896C182.042 553.907 182.023 553.923 182.004 553.923H182.003C181.98 553.921 181.979 553.907 181.98 553.875V553.854C181.977 553.781 181.967 553.708 181.956 553.639L181.951 553.599C181.934 553.478 181.917 553.347 181.887 553.219C181.883 553.197 181.875 553.172 181.865 553.143C181.831 553.032 181.788 552.892 181.873 552.821C181.924 552.777 182.012 552.769 182.071 552.764C182.071 552.764 182.136 552.757 182.209 552.757H182.236C182.315 552.757 182.397 552.763 182.477 552.773C182.628 552.793 182.785 552.834 182.975 552.898C183.077 552.933 183.179 552.973 183.279 553.011C183.509 553.099 183.748 553.19 183.995 553.234C183.916 553.294 183.847 553.34 183.782 553.378" fill="white"/>
<path d="M186.342 555.265C186.275 554.814 186.165 554.372 186.02 553.943C185.878 553.532 185.701 553.133 185.487 552.755C185.321 552.463 185.135 552.183 184.925 551.921C184.659 551.586 184.357 551.279 184.022 551.015C183.697 550.755 183.343 550.537 182.965 550.371C182.591 550.206 182.192 550.093 181.786 550.037C181.375 549.981 180.954 549.987 180.543 550.053C180.139 550.117 179.745 550.242 179.373 550.416C179 550.593 178.648 550.82 178.329 551.084C178.004 551.355 177.706 551.667 177.448 552.006C177.192 552.34 176.97 552.699 176.781 553.077C176.585 553.471 176.427 553.883 176.306 554.306C176.179 554.747 176.092 555.202 176.045 555.66C175.995 556.136 175.99 556.618 176.024 557.095C176.059 557.559 176.132 558.02 176.245 558.468C176.356 558.898 176.503 559.319 176.687 559.72C176.865 560.107 177.077 560.477 177.321 560.821C177.598 561.207 178.3 561.891 178.305 561.891C179.134 562.587 180.138 562.999 181.221 562.999H181.222C181.635 562.999 182.047 562.94 182.443 562.82C182.837 562.703 183.211 562.528 183.56 562.313C183.916 562.09 184.242 561.823 184.537 561.521C184.83 561.219 185.092 560.883 185.319 560.525C185.549 560.164 185.744 559.779 185.901 559.38C186.066 558.964 186.192 558.531 186.281 558.089C186.375 557.628 186.426 557.159 186.437 556.689C186.447 556.213 186.418 555.736 186.343 555.266M177.104 558.372H176.971L177.09 557.907C177.102 557.873 177.108 557.874 177.112 557.889C177.109 558.056 177.107 558.219 177.104 558.372ZM177.169 557.106L176.901 556.979C176.886 556.972 176.887 556.968 176.904 556.968H177.477C177.494 556.968 177.495 556.974 177.479 556.979L177.222 557.106C177.208 557.113 177.183 557.113 177.168 557.106M176.833 556.846L177.132 556.628C177.131 556.7 177.129 556.772 177.127 556.846H176.833ZM176.932 556.109H177.444C177.458 556.109 177.459 556.115 177.447 556.121L177.218 556.231C177.203 556.238 177.18 556.238 177.168 556.233L176.93 556.121C176.917 556.114 176.918 556.111 176.931 556.111M176.868 556.003L177.143 555.818C177.142 555.875 177.141 555.939 177.139 556.003H176.867H176.868ZM177.241 555.82L177.512 556.003H177.242C177.242 555.94 177.24 555.88 177.24 555.82M177.253 556.63L177.554 556.847H177.256C177.254 556.774 177.253 556.7 177.253 556.63ZM177.28 558.372C177.277 558.219 177.274 558.056 177.272 557.89C177.274 557.878 177.282 557.87 177.292 557.903L177.413 558.372H177.28ZM181.216 562.53C180.42 562.53 179.67 562.284 179.008 561.843C179.521 561.839 180.031 561.91 180.536 561.986C181.043 562.064 181.553 562.152 182.064 562.204C182.26 562.225 182.458 562.24 182.654 562.248C182.2 562.431 181.717 562.528 181.216 562.528M183.548 561.756C183.046 561.81 182.536 561.785 182.033 561.728C181.53 561.673 181.03 561.584 180.53 561.51C180.014 561.434 179.495 561.368 178.974 561.371C178.797 561.373 178.62 561.381 178.444 561.4C178.279 561.249 178.122 561.085 177.971 560.91C178.494 560.831 179.027 560.832 179.553 560.872C180.081 560.911 180.606 560.991 181.13 561.07C181.394 561.11 181.657 561.151 181.919 561.187C182.052 561.204 182.573 561.246 182.701 561.246C183.226 561.246 183.755 561.204 184.276 561.119C184.05 561.358 183.807 561.571 183.548 561.757M184.747 560.544C184.242 560.669 183.724 560.736 183.207 560.763C182.947 560.777 182.687 560.784 182.428 560.77C182.166 560.758 181.905 560.714 181.646 560.675C181.124 560.598 180.602 560.513 180.078 560.451C179.555 560.392 179.028 560.359 178.502 560.385C178.215 560.4 177.929 560.434 177.648 560.489C177.551 560.352 177.46 560.208 177.374 560.057C177.839 559.959 178.309 559.896 178.784 559.879C179.263 559.862 179.742 559.895 180.217 559.958C180.677 560.019 181.132 560.107 181.591 560.171C182.013 560.229 182.434 560.267 182.857 560.267H182.861C183.3 560.267 183.741 560.228 184.175 560.155C184.493 560.101 184.808 560.034 185.119 559.952C185.005 560.158 184.88 560.355 184.747 560.542M177.74 558.884C177.52 558.734 177.491 558.491 177.504 558.445L178.184 556.798C178.199 556.769 178.205 556.778 178.202 556.798L177.74 558.884ZM178.192 557.329C178.182 558.068 178.172 558.755 178.168 559.084C178.045 559.047 177.921 559.009 177.816 558.931L178.177 557.298C178.186 557.283 178.191 557.306 178.193 557.329M178.013 555.885H178.523C178.537 555.885 178.538 555.89 178.524 555.896L178.294 556.009C178.283 556.016 178.261 556.016 178.247 556.01L178.008 555.896C177.994 555.89 177.994 555.885 178.011 555.885M177.947 555.778L178.217 555.595C178.214 555.654 178.214 555.716 178.213 555.778H177.946H177.947ZM178.324 555.599L178.59 555.778H178.326C178.326 555.717 178.324 555.656 178.324 555.599ZM178.871 558.016C178.86 558.371 178.852 558.723 178.847 558.996C178.846 558.999 178.842 559.001 178.839 559.001L178.612 557.983L178.733 557.685L178.872 558.015L178.871 558.016ZM178.778 557.574L178.868 557.354C178.877 557.34 178.883 557.344 178.885 557.355C178.883 557.497 178.878 557.65 178.875 557.805L178.778 557.574ZM178.551 558.123L178.771 559.048C178.695 559.082 178.599 559.099 178.514 559.112C178.485 559.116 178.456 559.118 178.425 559.12C178.408 559.123 178.388 559.124 178.37 559.123C178.37 558.999 178.367 558.81 178.364 558.579L178.551 558.124V558.123ZM178.361 558.36C178.358 558.054 178.353 557.695 178.346 557.325C178.35 557.295 178.356 557.273 178.37 557.318L178.519 557.976L178.361 558.36ZM178.576 557.838L178.343 556.799C178.341 556.778 178.345 556.769 178.36 556.798L178.685 557.574L178.576 557.838ZM179.023 558.161V558.009C179.016 557.739 179.009 557.613 179.005 557.363C179.006 557.345 179.011 557.334 179.025 557.354L179.431 558.395C179.364 558.531 179.352 558.579 179.249 558.689L179.024 558.161H179.023ZM179.183 558.756C179.143 558.804 179.087 558.85 179.042 558.887C179.037 558.746 179.033 558.562 179.03 558.396L179.183 558.756ZM179.595 558.358L180.06 557.333C180.052 557.627 180.042 558.048 180.034 558.358H179.844C179.775 558.358 179.664 558.363 179.595 558.358ZM182.919 557.045H183.59C183.608 557.045 183.61 557.05 183.599 557.058C183.597 557.061 183.292 557.208 183.292 557.208C183.272 557.218 183.246 557.217 183.23 557.209L182.916 557.061C182.898 557.052 182.899 557.047 182.919 557.047M182.843 556.909L183.193 556.65C183.193 556.727 183.19 556.899 183.19 556.909H182.843ZM182.97 555.893C182.97 555.893 182.978 555.89 182.981 555.89H183.542C183.547 555.89 183.551 555.89 183.552 555.893C183.552 555.893 183.554 555.899 183.544 555.903L183.292 556.025C183.279 556.032 183.254 556.032 183.241 556.026L182.979 555.903C182.97 555.899 182.968 555.895 182.97 555.893ZM182.91 555.769L183.21 555.549C183.209 555.621 183.209 555.694 183.208 555.769H182.911H182.91ZM183.314 555.552L183.616 555.769H183.32C183.318 555.695 183.317 555.623 183.314 555.552ZM183.33 556.652L183.679 556.91H183.335C183.333 556.825 183.331 556.736 183.33 556.652ZM184.346 556.375H184.919C184.935 556.375 184.937 556.379 184.922 556.386L184.663 556.514C184.649 556.521 184.625 556.521 184.61 556.514L184.343 556.386C184.329 556.378 184.329 556.375 184.346 556.375ZM184.273 556.254L184.574 556.035C184.572 556.109 184.572 556.18 184.571 556.254H184.273ZM184.692 556.035L184.996 556.254H184.695C184.695 556.181 184.693 556.108 184.692 556.035ZM184.561 557.303C184.551 558.016 184.538 558.784 184.532 559.323C184.362 559.383 184.216 559.398 184.088 559.388L184.374 558.079L184.542 557.307C184.55 557.289 184.557 557.279 184.562 557.303M184.523 556.997L184.025 559.265L183.809 558.656L183.811 558.652L184.492 556.974C184.511 556.941 184.532 556.918 184.524 556.998M183.973 559.369C183.817 559.333 183.694 559.256 183.599 559.171L183.761 558.773L183.973 559.368V559.369ZM183.537 559.107C183.44 559.002 183.386 558.899 183.363 558.855C183.36 558.511 183.352 557.998 183.343 557.45L183.722 558.648L183.536 559.107H183.537ZM182.716 558.831H181.894L183.119 557.412L182.717 558.831H182.716ZM183.185 557.449C183.181 557.768 183.17 558.792 183.17 558.831H182.803L183.185 557.449ZM184.711 557.303C184.71 557.279 184.721 557.286 184.729 557.307L185.072 558.831C184.997 559.01 184.846 559.142 184.736 559.218C184.732 558.941 184.712 557.308 184.711 557.303ZM185.16 558.821L184.741 557.014C184.729 556.904 184.755 556.944 184.777 556.984L185.544 558.82H185.16V558.821ZM185.845 557.94C185.789 558.229 185.714 558.512 185.624 558.791L184.705 556.552L185.109 556.367C185.151 556.346 185.151 556.284 185.109 556.261C185.109 556.261 184.713 555.973 184.691 555.957L184.682 555.27C184.73 555.263 184.777 555.241 184.825 555.231C184.879 555.224 184.93 555.234 184.981 555.243C185.029 555.251 185.078 555.256 185.125 555.242C185.17 555.229 185.209 555.204 185.243 555.175C185.139 555.172 185.055 555.104 184.962 555.061C184.916 555.038 184.865 555.025 184.813 555.019C184.764 555.014 184.704 555.01 184.656 555.025C184.65 554.986 184.645 554.944 184.639 554.899H184.617C184.586 555.088 184.587 555.293 184.586 555.483C184.586 555.616 184.583 555.75 184.582 555.885C184.582 555.908 184.582 555.931 184.58 555.957L184.165 556.261C184.125 556.282 184.123 556.343 184.165 556.365L184.556 556.552L183.766 558.528L183.358 557.256L183.809 557.039C183.855 557.014 183.857 556.944 183.811 556.917C183.811 556.917 183.385 556.611 183.33 556.569C183.327 556.408 183.324 556.235 183.323 556.084L183.734 555.885C183.775 555.863 183.778 555.801 183.737 555.778C183.737 555.778 183.367 555.509 183.313 555.47C183.309 555.157 183.308 554.846 183.303 554.536C183.325 554.536 183.349 554.527 183.373 554.521C183.398 554.513 183.423 554.505 183.45 554.499C183.503 554.49 183.555 554.499 183.607 554.507C183.658 554.517 183.707 554.521 183.757 554.507C183.802 554.495 183.84 554.469 183.876 554.44C183.773 554.438 183.687 554.369 183.595 554.327C183.548 554.305 183.497 554.291 183.447 554.285C183.396 554.279 183.338 554.276 183.289 554.291C183.285 554.251 183.279 554.21 183.271 554.163H183.252C183.223 554.337 183.221 554.511 183.219 554.685C183.218 554.843 183.218 555.001 183.215 555.16C183.214 555.263 183.211 555.367 183.21 555.469L182.791 555.776C182.749 555.798 182.749 555.86 182.791 555.882L183.201 556.082C183.201 556.232 183.198 556.409 183.196 556.568L182.716 556.915C182.668 556.94 182.668 557.012 182.716 557.035L183.157 557.253L181.776 558.828C181.75 558.828 181.578 558.831 181.554 558.863C181.518 558.892 181.517 558.937 181.532 558.975C181.552 559.028 181.594 559.062 181.641 559.09C181.663 559.104 181.689 559.117 181.715 559.127C181.719 559.128 181.721 559.132 181.723 559.134C181.723 559.134 181.848 559.558 182.38 559.756H182.378C182.378 559.756 182.393 559.762 182.389 559.772C182.388 559.776 182.387 559.777 182.386 559.778C182.383 559.781 182.376 559.781 182.372 559.783C181.863 559.75 181.362 559.665 180.861 559.585C180.668 559.552 180.477 559.523 180.286 559.497C180.155 559.479 180.025 559.463 179.897 559.44C179.884 559.435 179.877 559.431 179.875 559.426V559.423V559.419V559.418C179.875 559.413 179.88 559.411 179.882 559.408C179.884 559.405 179.886 559.404 179.886 559.404C180.593 559.187 180.741 558.659 180.741 558.659C180.75 558.655 180.759 558.649 180.767 558.644C180.787 558.635 180.806 558.627 180.823 558.616C180.868 558.588 180.912 558.553 180.932 558.503C180.947 558.463 180.945 558.419 180.91 558.39C180.884 558.354 180.684 558.356 180.684 558.356H180.682L180.649 558.357C180.646 558.244 180.645 557.95 180.637 557.76C180.658 557.769 180.684 557.761 180.703 557.757C180.73 557.749 180.756 557.739 180.783 557.734C180.838 557.72 180.89 557.723 180.945 557.734C180.998 557.743 181.05 557.751 181.104 557.738C181.151 557.728 181.193 557.7 181.23 557.669C181.124 557.665 181.036 557.593 180.943 557.552C180.893 557.53 180.84 557.517 180.787 557.512C180.735 557.508 180.672 557.503 180.626 557.526C180.621 557.48 180.618 557.442 180.615 557.413H180.594C180.567 557.575 180.567 558.139 180.565 558.357H180.21C180.2 557.961 180.182 557.43 180.173 557.091L180.481 556.414C180.523 556.433 180.571 556.436 180.614 556.453C180.663 556.47 180.7 556.5 180.74 556.532C180.777 556.564 180.815 556.595 180.861 556.611C180.911 556.626 180.964 556.625 181.014 556.616C180.927 556.562 180.885 556.463 180.83 556.381C180.801 556.338 180.762 556.302 180.723 556.27C180.68 556.237 180.629 556.204 180.578 556.192C180.59 556.155 180.605 556.104 180.607 556.08C180.606 556.077 180.607 556.07 180.598 556.065C180.596 556.065 180.593 556.064 180.591 556.064C180.578 556.067 180.574 556.075 180.565 556.086C180.537 556.121 180.5 556.188 180.494 556.2L180.167 556.923C180.163 556.809 180.161 556.694 180.159 556.581C180.159 556.437 180.152 556.295 180.13 556.153H180.11C180.081 556.326 180.08 556.499 180.078 556.674C180.076 556.829 180.071 556.988 180.067 557.144L179.502 558.345L178.997 557.071C178.992 556.912 178.989 556.757 178.987 556.597C178.984 556.418 178.984 556.239 178.954 556.062H178.935C178.905 556.237 178.905 556.413 178.902 556.589C178.902 556.749 178.896 556.91 178.894 557.069L178.732 557.462L178.336 556.516C178.334 556.359 178.332 556.203 178.329 556.054L178.69 555.879C178.726 555.862 178.727 555.806 178.69 555.786C178.69 555.786 178.387 555.56 178.323 555.514C178.318 555.19 178.316 554.862 178.311 554.536C178.335 554.536 178.356 554.527 178.379 554.521C178.404 554.513 178.431 554.505 178.458 554.499C178.512 554.49 178.562 554.499 178.615 554.507C178.664 554.517 178.716 554.521 178.765 554.507C178.809 554.495 178.848 554.469 178.884 554.44C178.783 554.438 178.698 554.373 178.609 554.329C178.563 554.307 178.513 554.292 178.462 554.287C178.412 554.28 178.351 554.276 178.299 554.292C178.296 554.249 178.29 554.206 178.283 554.163H178.263C178.227 554.372 178.231 554.581 178.23 554.791C178.228 554.995 178.225 555.198 178.222 555.4C178.222 555.439 178.222 555.476 178.22 555.513L177.852 555.784C177.816 555.802 177.815 555.858 177.852 555.878L178.212 556.053C178.21 556.222 178.205 556.496 178.205 556.515L177.472 558.285L177.364 557.878H177.506C177.528 557.878 177.549 557.87 177.567 557.862C177.581 557.859 177.615 557.847 177.615 557.826C177.615 557.809 177.585 557.797 177.573 557.791C177.551 557.785 177.529 557.778 177.506 557.778H177.338L177.266 557.496C177.265 557.383 177.263 557.264 177.261 557.152L177.665 556.957C177.706 556.935 177.707 556.875 177.668 556.853C177.668 556.853 177.279 556.57 177.25 556.552C177.25 556.469 177.249 556.355 177.246 556.277L177.611 556.1C177.648 556.083 177.648 556.026 177.612 556.006C177.612 556.006 177.289 555.768 177.238 555.731C177.235 555.458 177.232 555.277 177.231 555.256C177.273 555.259 177.32 555.235 177.36 555.227C177.406 555.217 177.451 555.222 177.496 555.23C177.539 555.238 177.585 555.245 177.629 555.235C177.671 555.223 177.708 555.2 177.742 555.172C177.649 555.17 177.574 555.109 177.493 555.07C177.451 555.051 177.405 555.039 177.36 555.036C177.315 555.03 177.261 555.026 177.219 555.044C177.214 555.007 177.209 554.971 177.201 554.93H177.18C177.153 555.08 177.151 555.229 177.15 555.381C177.148 555.511 177.147 555.6 177.143 555.729L176.77 556.004C176.733 556.025 176.733 556.079 176.77 556.099L177.135 556.276C177.135 556.354 177.133 556.467 177.132 556.551L176.722 556.851C176.68 556.873 176.68 556.934 176.722 556.955L177.122 557.151C177.122 557.263 177.117 557.379 177.116 557.493L177.045 557.776H176.877C176.855 557.776 176.833 557.782 176.814 557.789C176.801 557.795 176.768 557.807 176.768 557.825C176.768 557.844 176.797 557.855 176.811 557.86C176.832 557.868 176.855 557.877 176.877 557.877H177.018L176.893 558.37H176.69C176.566 557.895 176.492 557.408 176.467 556.918C176.44 556.428 176.459 555.936 176.527 555.448C176.59 554.998 176.692 554.552 176.84 554.122C176.979 553.714 177.155 553.318 177.371 552.945C177.484 552.749 177.609 552.558 177.743 552.376C178.292 552.565 179.002 552.392 179.002 552.392C179.642 552.274 180.041 552.292 180.272 552.328L180.396 552.35C180.41 552.27 180.419 552.211 180.442 552.136C179.774 551.918 179.02 552.024 179.02 552.024C178.563 552.068 178.285 551.973 178.142 551.889C178.142 551.889 178.43 551.575 178.665 551.402C178.872 551.556 179.131 551.63 179.376 551.675C179.537 551.704 179.7 551.717 179.86 551.755C180.022 551.793 180.185 551.843 180.341 551.899C180.396 551.919 180.469 551.955 180.503 551.971C180.531 551.904 180.572 551.843 180.615 551.784L180.511 551.715C180.305 551.593 180.11 551.531 179.891 551.463C179.745 551.418 179.607 551.366 179.469 551.294C179.283 551.195 179.168 551.067 179.158 551.059C179.158 551.059 179.476 550.858 179.776 550.745C179.915 550.946 180.172 551.059 180.348 551.215C180.596 551.432 180.726 551.636 180.739 551.658C180.799 551.614 180.851 551.581 180.926 551.551C180.827 551.327 180.687 551.071 180.517 550.909C180.439 550.835 180.323 550.706 180.29 550.579C180.29 550.579 180.688 550.476 180.995 550.47L181.11 551.506C181.153 551.498 181.217 551.499 181.217 551.499C181.217 551.499 181.257 551.498 181.324 551.506L181.439 550.471C181.439 550.471 181.709 550.484 181.93 550.529C182.053 550.555 182.146 550.579 182.146 550.579C182.111 550.705 181.998 550.836 181.923 550.909C181.749 551.074 181.615 551.327 181.514 551.553C181.573 551.58 181.64 551.607 181.7 551.659C181.815 551.481 181.96 551.331 182.091 551.215C182.262 551.061 182.519 550.942 182.658 550.745C182.694 550.759 182.848 550.819 183.095 550.95L183.279 551.059C183.273 551.063 183.069 551.235 182.968 551.294C182.834 551.373 182.692 551.418 182.545 551.463C182.326 551.53 182.132 551.593 181.925 551.715L181.82 551.782C181.861 551.835 181.9 551.897 181.934 551.971C181.971 551.953 182.042 551.918 182.095 551.899C182.252 551.843 182.413 551.793 182.577 551.755C182.734 551.717 182.899 551.705 183.06 551.675C183.301 551.632 183.564 551.552 183.768 551.402C184.029 551.609 184.291 551.89 184.291 551.89C184.147 551.971 183.87 552.066 183.415 552.024C183.415 552.024 182.662 551.918 181.994 552.134C182.015 552.199 182.023 552.244 182.038 552.343L182.171 552.321C182.409 552.287 182.796 552.273 183.433 552.391C183.433 552.391 184.14 552.563 184.689 552.376C184.745 552.449 184.797 552.523 184.847 552.599C185.083 552.95 185.281 553.328 185.441 553.72C185.613 554.133 185.741 554.564 185.829 555.002C185.923 555.464 185.97 555.936 185.976 556.408C185.981 556.92 185.936 557.435 185.839 557.936" fill="white"/>
</g>
<g clip-path="url(#clip2_3141_14354)">
<path d="M163.767 74.2962L159.164 65.3393C158.767 64.5442 157.953 64 157.009 64H157.006C156.063 64 155.249 64.5442 154.852 65.3393L151.611 71.644C151.25 70.9955 150.673 70.4868 149.977 70.2119C150.754 69.6459 151.26 68.7236 151.26 67.6834C151.26 66.477 150.58 65.4332 149.585 64.9154C148.709 64.4514 147.709 64.189 146.649 64.189H141.802C140.805 64.189 140 65.0002 140 66.0015V75.0844C140 76.0857 140.805 76.8969 141.802 76.8969H147.044C148.054 76.8969 149.015 76.6861 149.888 76.3103L150.22 76.1488C150.238 76.1396 150.256 76.1304 150.275 76.1213C150.59 76.6471 151.16 77.0011 151.816 77.0011C152.546 77.0011 153.174 76.5658 153.457 75.9368C153.598 75.6046 153.916 75.3697 154.292 75.3514H159.722C160.099 75.3697 160.416 75.6046 160.557 75.9368C160.839 76.5658 161.469 77.0011 162.198 77.0011C163.193 77.0011 163.999 76.1877 163.999 75.1898C163.999 74.8645 163.916 74.5597 163.766 74.2973" fill="#FFD305"/>
</g>
<rect x="424" y="163" width="146" height="181" rx="6" fill="#F3F6F9"/>
<path d="M432 175C432 172.791 433.791 171 436 171H468C470.209 171 472 172.791 472 175V207C472 209.209 470.209 211 468 211H436C433.791 211 432 209.209 432 207V175Z" fill="#9EAAB8"/>
<path d="M432 235H562V238H432V235Z" fill="#505E70"/>
<path d="M432 242H549V245H432V242Z" fill="#505E70"/>
<path d="M432 249H558V252H432V249Z" fill="#505E70"/>
<path d="M432 223H522V229H432V223Z" fill="#38485C"/>
<path d="M432 264H486V268H432V264Z" fill="#38485C"/>
<path d="M438 277H478V280H438V277Z" fill="#007BC7"/>
<path d="M438 284H473V287H438V284Z" fill="#007BC7"/>
<path d="M438 291H470V294H438V291Z" fill="#007BC7"/>
<path d="M438 298H475V301H438V298Z" fill="#007BC7"/>
<path d="M432 277H435V280H432V277Z" fill="#007BC7"/>
<path d="M432 284H435V287H432V284Z" fill="#007BC7"/>
<path d="M432 291H435V294H432V291Z" fill="#007BC7"/>
<path d="M432 298H435V301H432V298Z" fill="#007BC7"/>
<path d="M432 313H486V317H432V313Z" fill="#38485C"/>
<path d="M438 326H478V329H438V326Z" fill="#007BC7"/>
<path d="M438 333H473V336H438V333Z" fill="#007BC7"/>
<path d="M432 326H435V329H432V326Z" fill="#007BC7"/>
<path d="M432 333H435V336H432V333Z" fill="#007BC7"/>
<defs>
<clipPath id="clip0_3141_14354">
<rect width="24" height="13" fill="white" transform="translate(140 550)"/>
</clipPath>
<clipPath id="clip1_3141_14354">
<path d="M176 550H248V555C248 559.418 244.418 563 240 563H176V550Z" fill="white"/>
</clipPath>
<clipPath id="clip2_3141_14354">
<rect width="24" height="13" fill="white" transform="translate(140 64)"/>
</clipPath>
</defs>
</svg>
