<svg width="340" height="140" viewBox="0 0 340 140" fill="none" xmlns="http://www.w3.org/2000/svg">
<rect width="340" height="140" rx="8" fill="#F3F6F9"/>
<path d="M30.342 45.105C30.02 45.105 29.754 45.007 29.544 44.811C29.348 44.601 29.25 44.335 29.25 44.013V32.001H25.05C24.378 32.001 24.042 31.7 24.042 31.098C24.042 30.804 24.126 30.58 24.294 30.426C24.476 30.272 24.728 30.195 25.05 30.195H35.634C35.956 30.195 36.201 30.272 36.369 30.426C36.551 30.58 36.642 30.804 36.642 31.098C36.642 31.7 36.306 32.001 35.634 32.001H31.434V44.013C31.434 44.335 31.336 44.601 31.14 44.811C30.944 45.007 30.678 45.105 30.342 45.105ZM40.1943 45.105C39.8863 45.105 39.6273 45.021 39.4173 44.853C39.2213 44.685 39.1233 44.433 39.1233 44.097V35.571C39.1233 35.235 39.2213 34.983 39.4173 34.815C39.6273 34.633 39.8863 34.542 40.1943 34.542C40.5023 34.542 40.7543 34.633 40.9503 34.815C41.1463 34.983 41.2443 35.235 41.2443 35.571V44.097C41.2443 44.433 41.1463 44.685 40.9503 44.853C40.7543 45.021 40.5023 45.105 40.1943 45.105ZM40.6353 33.366C40.5233 33.464 40.3903 33.513 40.2363 33.513C40.0823 33.513 39.9423 33.457 39.8163 33.345C39.7043 33.233 39.6483 33.1 39.6483 32.946C39.6483 32.806 39.6973 32.68 39.7953 32.568L42.0633 29.607C42.3433 29.229 42.6653 29.04 43.0293 29.04C43.2953 29.04 43.5193 29.131 43.7013 29.313C43.8833 29.495 43.9743 29.712 43.9743 29.964C43.9743 30.286 43.8063 30.587 43.4703 30.867L40.6353 33.366ZM49.3053 43.488C49.6133 43.516 49.8303 43.6 49.9563 43.74C50.0963 43.866 50.1663 44.048 50.1663 44.286C50.1663 44.566 50.0543 44.783 49.8303 44.937C49.6203 45.077 49.3053 45.133 48.8853 45.105L48.3183 45.063C47.1843 44.979 46.3373 44.636 45.7773 44.034C45.2173 43.418 44.9373 42.515 44.9373 41.325V36.39H43.6773C43.0613 36.39 42.7533 36.117 42.7533 35.571C42.7533 35.319 42.8303 35.123 42.9843 34.983C43.1523 34.829 43.3833 34.752 43.6773 34.752H44.9373V32.589C44.9373 32.267 45.0283 32.015 45.2103 31.833C45.4063 31.651 45.6653 31.56 45.9873 31.56C46.3093 31.56 46.5683 31.651 46.7643 31.833C46.9603 32.015 47.0583 32.267 47.0583 32.589V34.752H49.1373C49.4313 34.752 49.6553 34.829 49.8093 34.983C49.9773 35.123 50.0613 35.319 50.0613 35.571C50.0613 35.837 49.9773 36.04 49.8093 36.18C49.6553 36.32 49.4313 36.39 49.1373 36.39H47.0583V41.472C47.0583 42.13 47.1913 42.613 47.4573 42.921C47.7373 43.229 48.1573 43.404 48.7173 43.446L49.3053 43.488ZM59.4176 34.542C59.7396 34.542 59.9916 34.633 60.1736 34.815C60.3696 34.997 60.4676 35.249 60.4676 35.571V44.118C60.4676 44.412 60.3696 44.65 60.1736 44.832C59.9776 45.014 59.7186 45.105 59.3966 45.105C59.1026 45.105 58.8646 45.021 58.6826 44.853C58.5006 44.671 58.4096 44.433 58.4096 44.139V43.341C58.0876 43.929 57.6396 44.377 57.0656 44.685C56.5056 44.993 55.8756 45.147 55.1756 45.147C52.6836 45.147 51.4376 43.775 51.4376 41.031V35.571C51.4376 35.249 51.5286 34.997 51.7106 34.815C51.9066 34.633 52.1726 34.542 52.5086 34.542C52.8306 34.542 53.0826 34.633 53.2646 34.815C53.4606 34.997 53.5586 35.249 53.5586 35.571V41.01C53.5586 41.836 53.7266 42.445 54.0626 42.837C54.3986 43.229 54.9166 43.425 55.6166 43.425C56.4426 43.425 57.1006 43.159 57.5906 42.627C58.0946 42.095 58.3466 41.388 58.3466 40.506V35.571C58.3466 35.263 58.4446 35.018 58.6406 34.836C58.8366 34.64 59.0956 34.542 59.4176 34.542ZM64.2967 45.105C63.9887 45.105 63.7297 45.021 63.5197 44.853C63.3237 44.685 63.2257 44.433 63.2257 44.097V31.119C63.2257 30.783 63.3237 30.531 63.5197 30.363C63.7297 30.181 63.9887 30.09 64.2967 30.09C64.6047 30.09 64.8567 30.181 65.0527 30.363C65.2487 30.531 65.3467 30.783 65.3467 31.119V44.097C65.3467 44.433 65.2487 44.685 65.0527 44.853C64.8567 45.021 64.6047 45.105 64.2967 45.105ZM72.5536 45.147C71.5456 45.147 70.6566 44.93 69.8866 44.496C69.1306 44.062 68.5426 43.446 68.1226 42.648C67.7166 41.836 67.5136 40.898 67.5136 39.834C67.5136 38.756 67.7166 37.818 68.1226 37.02C68.5426 36.208 69.1306 35.585 69.8866 35.151C70.6566 34.717 71.5456 34.5 72.5536 34.5C73.5616 34.5 74.4436 34.717 75.1996 35.151C75.9696 35.585 76.5576 36.208 76.9636 37.02C77.3836 37.818 77.5936 38.756 77.5936 39.834C77.5936 40.898 77.3836 41.836 76.9636 42.648C76.5576 43.446 75.9696 44.062 75.1996 44.496C74.4436 44.93 73.5616 45.147 72.5536 45.147ZM72.5536 43.467C73.4916 43.467 74.2056 43.159 74.6956 42.543C75.1996 41.927 75.4516 41.024 75.4516 39.834C75.4516 38.658 75.1996 37.762 74.6956 37.146C74.1916 36.516 73.4776 36.201 72.5536 36.201C71.6296 36.201 70.9156 36.516 70.4116 37.146C69.9076 37.762 69.6556 38.658 69.6556 39.834C69.6556 41.024 69.9006 41.927 70.3906 42.543C70.8946 43.159 71.6156 43.467 72.5536 43.467ZM96.8113 30.09C97.1333 30.09 97.3923 30.195 97.5883 30.405C97.7843 30.601 97.8823 30.86 97.8823 31.182V44.013C97.8823 44.335 97.7843 44.601 97.5883 44.811C97.3923 45.007 97.1333 45.105 96.8113 45.105C96.4893 45.105 96.2303 45.007 96.0343 44.811C95.8383 44.615 95.7403 44.349 95.7403 44.013V38.364H87.4663V44.013C87.4663 44.335 87.3683 44.601 87.1723 44.811C86.9763 45.007 86.7173 45.105 86.3953 45.105C86.0733 45.105 85.8143 45.007 85.6183 44.811C85.4223 44.615 85.3243 44.349 85.3243 44.013V31.182C85.3243 30.86 85.4223 30.601 85.6183 30.405C85.8143 30.195 86.0733 30.09 86.3953 30.09C86.7173 30.09 86.9763 30.195 87.1723 30.405C87.3683 30.601 87.4663 30.86 87.4663 31.182V36.6H95.7403V31.182C95.7403 30.86 95.8383 30.601 96.0343 30.405C96.2303 30.195 96.4893 30.09 96.8113 30.09ZM107.809 37.398C108.705 37.65 109.384 38.084 109.846 38.7C110.308 39.302 110.539 40.065 110.539 40.989C110.539 42.277 110.084 43.292 109.174 44.034C108.278 44.776 107.06 45.147 105.52 45.147C104.61 45.147 103.735 45 102.895 44.706C102.069 44.412 101.369 44.006 100.795 43.488C100.515 43.264 100.375 42.984 100.375 42.648C100.375 42.396 100.445 42.186 100.585 42.018C100.725 41.836 100.893 41.745 101.089 41.745C101.299 41.745 101.537 41.836 101.803 42.018C102.405 42.466 102.993 42.809 103.567 43.047C104.155 43.271 104.785 43.383 105.457 43.383C107.445 43.383 108.439 42.536 108.439 40.842C108.439 40.016 108.173 39.4 107.641 38.994C107.123 38.574 106.332 38.364 105.268 38.364H104.113C103.847 38.364 103.637 38.28 103.483 38.112C103.329 37.93 103.252 37.72 103.252 37.482C103.252 37.258 103.329 37.062 103.483 36.894C103.637 36.712 103.847 36.621 104.113 36.621H104.932C105.954 36.621 106.731 36.411 107.263 35.991C107.809 35.557 108.082 34.927 108.082 34.101C108.082 33.373 107.858 32.806 107.41 32.4C106.976 31.994 106.36 31.791 105.562 31.791C104.386 31.791 103.21 32.246 102.034 33.156C101.768 33.338 101.53 33.429 101.32 33.429C101.124 33.429 100.956 33.345 100.816 33.177C100.676 32.995 100.606 32.778 100.606 32.526C100.606 32.19 100.746 31.91 101.026 31.686C101.6 31.168 102.293 30.762 103.105 30.468C103.931 30.174 104.778 30.027 105.646 30.027C107.032 30.027 108.138 30.377 108.964 31.077C109.79 31.777 110.196 32.715 110.182 33.891C110.182 34.703 109.972 35.424 109.552 36.054C109.132 36.67 108.551 37.118 107.809 37.398Z" fill="#38485C"/>
<g clip-path="url(#clip0_3122_12292)">
<rect x="24" y="68" width="292" height="48" rx="8" fill="#FFDB2E"/>
<path d="M114.52 98.108C114.172 98.108 113.89 98 113.674 97.784C113.47 97.568 113.368 97.286 113.368 96.938V86.372C113.368 86.024 113.47 85.748 113.674 85.544C113.89 85.328 114.172 85.22 114.52 85.22C114.88 85.22 115.162 85.328 115.366 85.544C115.582 85.748 115.69 86.024 115.69 86.372V96.938C115.69 97.286 115.582 97.568 115.366 97.784C115.162 98 114.88 98.108 114.52 98.108ZM123.345 88.982C124.401 88.982 125.187 89.282 125.703 89.882C126.219 90.482 126.477 91.388 126.477 92.6V97.028C126.477 97.364 126.375 97.628 126.171 97.82C125.979 98.012 125.709 98.108 125.361 98.108C125.013 98.108 124.737 98.012 124.533 97.82C124.329 97.628 124.227 97.364 124.227 97.028V92.726C124.227 92.042 124.095 91.544 123.831 91.232C123.579 90.92 123.177 90.764 122.625 90.764C121.977 90.764 121.455 90.968 121.059 91.376C120.675 91.784 120.483 92.33 120.483 93.014V97.028C120.483 97.364 120.381 97.628 120.177 97.82C119.973 98.012 119.697 98.108 119.349 98.108C119.001 98.108 118.725 98.012 118.521 97.82C118.329 97.628 118.233 97.364 118.233 97.028V90.062C118.233 89.75 118.335 89.498 118.539 89.306C118.743 89.114 119.019 89.018 119.367 89.018C119.679 89.018 119.931 89.114 120.123 89.306C120.327 89.486 120.429 89.726 120.429 90.026V90.512C120.729 90.02 121.131 89.642 121.635 89.378C122.139 89.114 122.709 88.982 123.345 88.982ZM129.878 98.108C129.554 98.108 129.284 98.018 129.068 97.838C128.864 97.646 128.762 97.376 128.762 97.028V90.08C128.762 89.732 128.864 89.468 129.068 89.288C129.284 89.108 129.554 89.018 129.878 89.018C130.202 89.018 130.472 89.108 130.688 89.288C130.904 89.468 131.012 89.732 131.012 90.08V97.028C131.012 97.376 130.904 97.646 130.688 97.838C130.472 98.018 130.202 98.108 129.878 98.108ZM129.878 87.416C129.47 87.416 129.146 87.308 128.906 87.092C128.666 86.864 128.546 86.57 128.546 86.21C128.546 85.85 128.666 85.562 128.906 85.346C129.146 85.13 129.47 85.022 129.878 85.022C130.274 85.022 130.592 85.13 130.832 85.346C131.084 85.562 131.21 85.85 131.21 86.21C131.21 86.57 131.09 86.864 130.85 87.092C130.61 87.308 130.286 87.416 129.878 87.416ZM137.238 98.144C136.362 98.144 135.588 97.958 134.916 97.586C134.256 97.214 133.746 96.686 133.386 96.002C133.026 95.318 132.846 94.52 132.846 93.608C132.846 92.696 133.032 91.892 133.404 91.196C133.788 90.488 134.322 89.942 135.006 89.558C135.69 89.174 136.476 88.982 137.364 88.982C137.832 88.982 138.3 89.048 138.768 89.18C139.248 89.312 139.668 89.492 140.028 89.72C140.412 89.972 140.604 90.29 140.604 90.674C140.604 90.938 140.538 91.154 140.406 91.322C140.286 91.478 140.124 91.556 139.92 91.556C139.788 91.556 139.65 91.526 139.506 91.466C139.362 91.406 139.218 91.334 139.074 91.25C138.81 91.094 138.558 90.974 138.318 90.89C138.078 90.794 137.802 90.746 137.49 90.746C136.746 90.746 136.17 90.992 135.762 91.484C135.366 91.964 135.168 92.66 135.168 93.572C135.168 94.472 135.366 95.168 135.762 95.66C136.17 96.14 136.746 96.38 137.49 96.38C137.79 96.38 138.054 96.338 138.282 96.254C138.522 96.158 138.786 96.032 139.074 95.876C139.254 95.768 139.41 95.69 139.542 95.642C139.674 95.582 139.806 95.552 139.938 95.552C140.13 95.552 140.292 95.636 140.424 95.804C140.556 95.972 140.622 96.182 140.622 96.434C140.622 96.638 140.574 96.818 140.478 96.974C140.394 97.118 140.25 97.25 140.046 97.37C139.674 97.61 139.242 97.802 138.75 97.946C138.258 98.078 137.754 98.144 137.238 98.144ZM143.237 98.108C142.913 98.108 142.643 98.018 142.427 97.838C142.223 97.646 142.121 97.376 142.121 97.028V90.08C142.121 89.732 142.223 89.468 142.427 89.288C142.643 89.108 142.913 89.018 143.237 89.018C143.561 89.018 143.831 89.108 144.047 89.288C144.263 89.468 144.371 89.732 144.371 90.08V97.028C144.371 97.376 144.263 97.646 144.047 97.838C143.831 98.018 143.561 98.108 143.237 98.108ZM143.237 87.416C142.829 87.416 142.505 87.308 142.265 87.092C142.025 86.864 141.905 86.57 141.905 86.21C141.905 85.85 142.025 85.562 142.265 85.346C142.505 85.13 142.829 85.022 143.237 85.022C143.633 85.022 143.951 85.13 144.191 85.346C144.443 85.562 144.569 85.85 144.569 86.21C144.569 86.57 144.449 86.864 144.209 87.092C143.969 87.308 143.645 87.416 143.237 87.416ZM150.507 88.982C151.731 88.982 152.637 89.288 153.225 89.9C153.825 90.5 154.125 91.418 154.125 92.654V97.046C154.125 97.37 154.029 97.628 153.837 97.82C153.645 98 153.381 98.09 153.045 98.09C152.733 98.09 152.475 97.994 152.271 97.802C152.079 97.61 151.983 97.358 151.983 97.046V96.65C151.779 97.118 151.455 97.484 151.011 97.748C150.579 98.012 150.075 98.144 149.499 98.144C148.911 98.144 148.377 98.024 147.897 97.784C147.417 97.544 147.039 97.214 146.763 96.794C146.487 96.374 146.349 95.906 146.349 95.39C146.349 94.742 146.511 94.232 146.835 93.86C147.171 93.488 147.711 93.218 148.455 93.05C149.199 92.882 150.225 92.798 151.533 92.798H151.983V92.384C151.983 91.796 151.857 91.37 151.605 91.106C151.353 90.83 150.945 90.692 150.381 90.692C150.033 90.692 149.679 90.746 149.319 90.854C148.959 90.95 148.533 91.094 148.041 91.286C147.729 91.442 147.501 91.52 147.357 91.52C147.141 91.52 146.961 91.442 146.817 91.286C146.685 91.13 146.619 90.926 146.619 90.674C146.619 90.47 146.667 90.296 146.763 90.152C146.871 89.996 147.045 89.852 147.285 89.72C147.705 89.492 148.203 89.312 148.779 89.18C149.367 89.048 149.943 88.982 150.507 88.982ZM149.949 96.524C150.549 96.524 151.035 96.326 151.407 95.93C151.791 95.522 151.983 95 151.983 94.364V93.986H151.659C150.855 93.986 150.231 94.022 149.787 94.094C149.343 94.166 149.025 94.292 148.833 94.472C148.641 94.652 148.545 94.898 148.545 95.21C148.545 95.594 148.677 95.912 148.941 96.164C149.217 96.404 149.553 96.524 149.949 96.524ZM161.326 89.018C161.638 88.994 161.884 89.06 162.064 89.216C162.244 89.372 162.334 89.606 162.334 89.918C162.334 90.242 162.256 90.482 162.1 90.638C161.944 90.794 161.662 90.896 161.254 90.944L160.714 90.998C160.006 91.07 159.484 91.31 159.148 91.718C158.824 92.126 158.662 92.636 158.662 93.248V97.028C158.662 97.376 158.554 97.646 158.338 97.838C158.122 98.018 157.852 98.108 157.528 98.108C157.204 98.108 156.934 98.018 156.718 97.838C156.514 97.646 156.412 97.376 156.412 97.028V90.062C156.412 89.726 156.514 89.468 156.718 89.288C156.934 89.108 157.198 89.018 157.51 89.018C157.822 89.018 158.074 89.108 158.266 89.288C158.458 89.456 158.554 89.702 158.554 90.026V90.746C158.782 90.218 159.118 89.81 159.562 89.522C160.018 89.234 160.522 89.072 161.074 89.036L161.326 89.018ZM172.762 96.434C173.362 96.47 173.662 96.74 173.662 97.244C173.662 97.532 173.542 97.754 173.302 97.91C173.074 98.054 172.744 98.114 172.312 98.09L171.826 98.054C169.81 97.91 168.802 96.83 168.802 94.814V90.89H167.902C167.578 90.89 167.326 90.818 167.146 90.674C166.978 90.53 166.894 90.32 166.894 90.044C166.894 89.768 166.978 89.558 167.146 89.414C167.326 89.27 167.578 89.198 167.902 89.198H168.802V87.542C168.802 87.218 168.904 86.96 169.108 86.768C169.312 86.576 169.588 86.48 169.936 86.48C170.272 86.48 170.542 86.576 170.746 86.768C170.95 86.96 171.052 87.218 171.052 87.542V89.198H172.582C172.906 89.198 173.152 89.27 173.32 89.414C173.5 89.558 173.59 89.768 173.59 90.044C173.59 90.32 173.5 90.53 173.32 90.674C173.152 90.818 172.906 90.89 172.582 90.89H171.052V94.976C171.052 95.864 171.46 96.338 172.276 96.398L172.762 96.434ZM179.748 89.018C180.06 88.994 180.306 89.06 180.486 89.216C180.666 89.372 180.756 89.606 180.756 89.918C180.756 90.242 180.678 90.482 180.522 90.638C180.366 90.794 180.084 90.896 179.676 90.944L179.136 90.998C178.428 91.07 177.906 91.31 177.57 91.718C177.246 92.126 177.084 92.636 177.084 93.248V97.028C177.084 97.376 176.976 97.646 176.76 97.838C176.544 98.018 176.274 98.108 175.95 98.108C175.626 98.108 175.356 98.018 175.14 97.838C174.936 97.646 174.834 97.376 174.834 97.028V90.062C174.834 89.726 174.936 89.468 175.14 89.288C175.356 89.108 175.62 89.018 175.932 89.018C176.244 89.018 176.496 89.108 176.688 89.288C176.88 89.456 176.976 89.702 176.976 90.026V90.746C177.204 90.218 177.54 89.81 177.984 89.522C178.44 89.234 178.944 89.072 179.496 89.036L179.748 89.018ZM185.506 88.982C186.73 88.982 187.636 89.288 188.224 89.9C188.824 90.5 189.124 91.418 189.124 92.654V97.046C189.124 97.37 189.028 97.628 188.836 97.82C188.644 98 188.38 98.09 188.044 98.09C187.732 98.09 187.474 97.994 187.27 97.802C187.078 97.61 186.982 97.358 186.982 97.046V96.65C186.778 97.118 186.454 97.484 186.01 97.748C185.578 98.012 185.074 98.144 184.498 98.144C183.91 98.144 183.376 98.024 182.896 97.784C182.416 97.544 182.038 97.214 181.762 96.794C181.486 96.374 181.348 95.906 181.348 95.39C181.348 94.742 181.51 94.232 181.834 93.86C182.17 93.488 182.71 93.218 183.454 93.05C184.198 92.882 185.224 92.798 186.532 92.798H186.982V92.384C186.982 91.796 186.856 91.37 186.604 91.106C186.352 90.83 185.944 90.692 185.38 90.692C185.032 90.692 184.678 90.746 184.318 90.854C183.958 90.95 183.532 91.094 183.04 91.286C182.728 91.442 182.5 91.52 182.356 91.52C182.14 91.52 181.96 91.442 181.816 91.286C181.684 91.13 181.618 90.926 181.618 90.674C181.618 90.47 181.666 90.296 181.762 90.152C181.87 89.996 182.044 89.852 182.284 89.72C182.704 89.492 183.202 89.312 183.778 89.18C184.366 89.048 184.942 88.982 185.506 88.982ZM184.948 96.524C185.548 96.524 186.034 96.326 186.406 95.93C186.79 95.522 186.982 95 186.982 94.364V93.986H186.658C185.854 93.986 185.23 94.022 184.786 94.094C184.342 94.166 184.024 94.292 183.832 94.472C183.64 94.652 183.544 94.898 183.544 95.21C183.544 95.594 183.676 95.912 183.94 96.164C184.216 96.404 184.552 96.524 184.948 96.524ZM185.956 87.992C185.824 88.088 185.692 88.136 185.56 88.136C185.392 88.136 185.248 88.082 185.128 87.974C185.02 87.854 184.966 87.716 184.966 87.56C184.966 87.428 185.014 87.296 185.11 87.164L186.856 84.842C187.132 84.482 187.45 84.302 187.81 84.302C188.074 84.302 188.296 84.398 188.476 84.59C188.668 84.77 188.764 84.986 188.764 85.238C188.764 85.574 188.602 85.862 188.278 86.102L185.956 87.992ZM201.868 88.982C202.828 88.982 203.56 89.27 204.064 89.846C204.58 90.41 204.838 91.328 204.838 92.6V97.028C204.838 97.376 204.73 97.646 204.514 97.838C204.31 98.018 204.04 98.108 203.704 98.108C203.38 98.108 203.11 98.018 202.894 97.838C202.69 97.646 202.588 97.376 202.588 97.028V92.6C202.588 91.94 202.468 91.472 202.228 91.196C202 90.908 201.646 90.764 201.166 90.764C200.578 90.764 200.11 90.968 199.762 91.376C199.414 91.772 199.24 92.318 199.24 93.014V97.028C199.24 97.376 199.132 97.646 198.916 97.838C198.712 98.018 198.448 98.108 198.124 98.108C197.8 98.108 197.53 98.018 197.314 97.838C197.098 97.646 196.99 97.376 196.99 97.028V92.6C196.99 91.94 196.87 91.472 196.63 91.196C196.402 90.908 196.048 90.764 195.568 90.764C194.98 90.764 194.512 90.968 194.164 91.376C193.828 91.772 193.66 92.318 193.66 93.014V97.028C193.66 97.376 193.552 97.646 193.336 97.838C193.12 98.018 192.85 98.108 192.526 98.108C192.202 98.108 191.932 98.018 191.716 97.838C191.512 97.646 191.41 97.376 191.41 97.028V90.062C191.41 89.726 191.518 89.468 191.734 89.288C191.95 89.108 192.22 89.018 192.544 89.018C192.856 89.018 193.108 89.108 193.3 89.288C193.504 89.456 193.606 89.702 193.606 90.026V90.458C193.882 89.978 194.248 89.612 194.704 89.36C195.172 89.108 195.706 88.982 196.306 88.982C197.626 88.982 198.508 89.534 198.952 90.638C199.216 90.134 199.606 89.732 200.122 89.432C200.638 89.132 201.22 88.982 201.868 88.982ZM208.241 98.108C207.917 98.108 207.647 98.018 207.431 97.838C207.227 97.646 207.125 97.376 207.125 97.028V90.08C207.125 89.732 207.227 89.468 207.431 89.288C207.647 89.108 207.917 89.018 208.241 89.018C208.565 89.018 208.835 89.108 209.051 89.288C209.267 89.468 209.375 89.732 209.375 90.08V97.028C209.375 97.376 209.267 97.646 209.051 97.838C208.835 98.018 208.565 98.108 208.241 98.108ZM208.241 87.416C207.833 87.416 207.509 87.308 207.269 87.092C207.029 86.864 206.909 86.57 206.909 86.21C206.909 85.85 207.029 85.562 207.269 85.346C207.509 85.13 207.833 85.022 208.241 85.022C208.637 85.022 208.955 85.13 209.195 85.346C209.447 85.562 209.573 85.85 209.573 86.21C209.573 86.57 209.453 86.864 209.213 87.092C208.973 87.308 208.649 87.416 208.241 87.416ZM216.654 96.434C217.254 96.47 217.554 96.74 217.554 97.244C217.554 97.532 217.434 97.754 217.194 97.91C216.966 98.054 216.636 98.114 216.204 98.09L215.718 98.054C213.702 97.91 212.694 96.83 212.694 94.814V90.89H211.794C211.47 90.89 211.218 90.818 211.038 90.674C210.87 90.53 210.786 90.32 210.786 90.044C210.786 89.768 210.87 89.558 211.038 89.414C211.218 89.27 211.47 89.198 211.794 89.198H212.694V87.542C212.694 87.218 212.796 86.96 213 86.768C213.204 86.576 213.48 86.48 213.828 86.48C214.164 86.48 214.434 86.576 214.638 86.768C214.842 86.96 214.944 87.218 214.944 87.542V89.198H216.474C216.798 89.198 217.044 89.27 217.212 89.414C217.392 89.558 217.482 89.768 217.482 90.044C217.482 90.32 217.392 90.53 217.212 90.674C217.044 90.818 216.798 90.89 216.474 90.89H214.944V94.976C214.944 95.864 215.352 96.338 216.168 96.398L216.654 96.434ZM225.693 95.588C225.897 95.588 226.059 95.666 226.179 95.822C226.311 95.978 226.377 96.188 226.377 96.452C226.377 96.824 226.155 97.136 225.711 97.388C225.303 97.616 224.841 97.802 224.325 97.946C223.809 98.078 223.317 98.144 222.849 98.144C221.433 98.144 220.311 97.736 219.483 96.92C218.655 96.104 218.241 94.988 218.241 93.572C218.241 92.672 218.421 91.874 218.781 91.178C219.141 90.482 219.645 89.942 220.293 89.558C220.953 89.174 221.697 88.982 222.525 88.982C223.317 88.982 224.007 89.156 224.595 89.504C225.183 89.852 225.639 90.344 225.963 90.98C226.287 91.616 226.449 92.366 226.449 93.23C226.449 93.746 226.221 94.004 225.765 94.004H220.455C220.527 94.832 220.761 95.444 221.157 95.84C221.553 96.224 222.129 96.416 222.885 96.416C223.269 96.416 223.605 96.368 223.893 96.272C224.193 96.176 224.529 96.044 224.901 95.876C225.261 95.684 225.525 95.588 225.693 95.588ZM222.579 90.566C221.967 90.566 221.475 90.758 221.103 91.142C220.743 91.526 220.527 92.078 220.455 92.798H224.523C224.499 92.066 224.319 91.514 223.983 91.142C223.647 90.758 223.179 90.566 222.579 90.566Z" fill="#38485C"/>
</g>
<defs>
<clipPath id="clip0_3122_12292">
<rect x="24" y="68" width="292" height="48" rx="8" fill="white"/>
</clipPath>
</defs>
</svg>
