<svg width="712" height="427" viewBox="0 0 712 427" fill="none" xmlns="http://www.w3.org/2000/svg">
<rect width="712" height="427" rx="8" fill="#F3F6F9"/>
<path d="M75 48H214.632V62.2805H75V48Z" fill="#38485C"/>
<path d="M75 70.2808H237.64V76.6277H75V70.2808Z" fill="#505E70"/>
<path d="M75 82.6274H225.739V88.9743H75V82.6274Z" fill="#505E70"/>
<path d="M75 94.9746H232.086V101.322H75V94.9746Z" fill="#505E70"/>
<path d="M75 121.321C75 116.903 78.5817 113.321 83 113.321H118.569C122.987 113.321 126.569 116.903 126.569 121.321V127.535C126.569 131.954 122.987 135.535 118.569 135.535H83C78.5817 135.535 75 131.954 75 127.535V121.321Z" fill="#5C6A7A"/>
<path d="M268 48H407.632V62.2805H268V48Z" fill="#38485C"/>
<path d="M268 70.2808H430.64V76.6277H268V70.2808Z" fill="#505E70"/>
<path d="M268 82.6274H418.739V88.9743H268V82.6274Z" fill="#505E70"/>
<path d="M268 94.9746H425.086V101.322H268V94.9746Z" fill="#505E70"/>
<path d="M268 121.321C268 116.903 271.582 113.321 276 113.321H311.569C315.987 113.321 319.569 116.903 319.569 121.321V127.535C319.569 131.954 315.987 135.535 311.569 135.535H276C271.582 135.535 268 131.954 268 127.535V121.321Z" fill="#5C6A7A"/>
<path d="M461 48H600.632V62.2805H461V48Z" fill="#38485C"/>
<path d="M461 70.2808H623.64V76.6277H461V70.2808Z" fill="#505E70"/>
<path d="M461 82.6274H611.739V88.9743H461V82.6274Z" fill="#505E70"/>
<path d="M461 94.9746H618.086V101.322H461V94.9746Z" fill="#505E70"/>
<path d="M461 121.321C461 116.903 464.582 113.321 469 113.321H504.569C508.987 113.321 512.569 116.903 512.569 121.321V127.535C512.569 131.954 508.987 135.535 504.569 135.535H469C464.582 135.535 461 131.954 461 127.535V121.321Z" fill="#5C6A7A"/>
<path d="M75 222.347C75 218.842 77.8416 216 81.3469 216H132.122C135.627 216 138.469 218.842 138.469 222.347V273.122C138.469 276.627 135.627 279.469 132.122 279.469H81.3469C77.8416 279.469 75 276.627 75 273.122V222.347Z" fill="#9EAAB8"/>
<path d="M75 291.469H214.632V305.749H75V291.469Z" fill="#38485C"/>
<path d="M75 313.75H237.64V320.096H75V313.75Z" fill="#505E70"/>
<path d="M75 326.096H225.739V332.443H75V326.096Z" fill="#505E70"/>
<path d="M75 338.443H232.086V344.79H75V338.443Z" fill="#505E70"/>
<path d="M75 364.79C75 360.372 78.5817 356.79 83 356.79H118.569C122.987 356.79 126.569 360.372 126.569 364.79V371.004C126.569 375.422 122.987 379.004 118.569 379.004H83C78.5817 379.004 75 375.422 75 371.004V364.79Z" fill="#5C6A7A"/>
<path d="M268 222.347C268 218.842 270.842 216 274.347 216H325.122C328.627 216 331.469 218.842 331.469 222.347V273.122C331.469 276.627 328.627 279.469 325.122 279.469H274.347C270.842 279.469 268 276.627 268 273.122V222.347Z" fill="#9EAAB8"/>
<path d="M268 291.469H407.632V305.749H268V291.469Z" fill="#38485C"/>
<path d="M268 313.75H430.64V320.096H268V313.75Z" fill="#505E70"/>
<path d="M268 326.096H418.739V332.443H268V326.096Z" fill="#505E70"/>
<path d="M268 338.443H425.086V344.79H268V338.443Z" fill="#505E70"/>
<path d="M268 364.79C268 360.372 271.582 356.79 276 356.79H311.569C315.987 356.79 319.569 360.372 319.569 364.79V371.004C319.569 375.422 315.987 379.004 311.569 379.004H276C271.582 379.004 268 375.422 268 371.004V364.79Z" fill="#5C6A7A"/>
<path d="M461 222.347C461 218.842 463.842 216 467.347 216H518.122C521.627 216 524.469 218.842 524.469 222.347V273.122C524.469 276.627 521.627 279.469 518.122 279.469H467.347C463.842 279.469 461 276.627 461 273.122V222.347Z" fill="#9EAAB8"/>
<path d="M461 291.469H600.632V305.749H461V291.469Z" fill="#38485C"/>
<path d="M461 313.75H623.64V320.096H461V313.75Z" fill="#505E70"/>
<path d="M461 326.096H611.739V332.443H461V326.096Z" fill="#505E70"/>
<path d="M461 338.443H618.086V344.79H461V338.443Z" fill="#505E70"/>
<path d="M461 364.79C461 360.372 464.582 356.79 469 356.79H504.569C508.987 356.79 512.569 360.372 512.569 364.79V371.004C512.569 375.422 508.987 379.004 504.569 379.004H469C464.582 379.004 461 375.422 461 371.004V364.79Z" fill="#5C6A7A"/>
<line x1="75" y1="175.5" x2="636" y2="175.5" stroke="#E6EBF0"/>
</svg>
