<svg width="712" height="675" viewBox="0 0 712 675" fill="none" xmlns="http://www.w3.org/2000/svg">
<rect width="712" height="675" rx="8" fill="#F3F6F9"/>
<rect x="50" y="259" width="178.64" height="179.005" rx="8" fill="white"/>
<path d="M58 273.347C58 269.842 60.8416 267 64.3469 267H115.122C118.627 267 121.469 269.842 121.469 273.347V324.122C121.469 327.627 118.627 330.469 115.122 330.469H64.3469C60.8416 330.469 58 327.627 58 324.122V273.347Z" fill="#9EAAB8"/>
<path d="M58 342.469H197.632V356.75H58V342.469Z" fill="#38485C"/>
<path d="M58 364.75H220.64V371.096H58V364.75Z" fill="#505E70"/>
<path d="M58 377.096H208.739V383.443H58V377.096Z" fill="#505E70"/>
<path d="M58 389.443H215.086V395.79H58V389.443Z" fill="#505E70"/>
<path d="M58 415.79C58 411.372 61.5817 407.79 66 407.79H101.569C105.987 407.79 109.569 411.372 109.569 415.79V422.004C109.569 426.423 105.987 430.004 101.569 430.004H66C61.5817 430.004 58 426.423 58 422.004V415.79Z" fill="#FFDB2E"/>
<rect x="243" y="259" width="178.64" height="179.005" rx="8" fill="white"/>
<path d="M251 273.347C251 269.842 253.842 267 257.347 267H308.122C311.627 267 314.469 269.842 314.469 273.347V324.122C314.469 327.627 311.627 330.469 308.122 330.469H257.347C253.842 330.469 251 327.627 251 324.122V273.347Z" fill="#9EAAB8"/>
<path d="M251 342.469H390.632V356.75H251V342.469Z" fill="#38485C"/>
<path d="M251 364.75H413.64V371.096H251V364.75Z" fill="#505E70"/>
<path d="M251 377.096H401.739V383.443H251V377.096Z" fill="#505E70"/>
<path d="M251 389.443H408.086V395.79H251V389.443Z" fill="#505E70"/>
<path d="M251 415.79C251 411.372 254.582 407.79 259 407.79H294.569C298.987 407.79 302.569 411.372 302.569 415.79V422.004C302.569 426.423 298.987 430.004 294.569 430.004H259C254.582 430.004 251 426.423 251 422.004V415.79Z" fill="#5C6A7A"/>
<rect x="436" y="259" width="178.64" height="179.005" rx="8" fill="white"/>
<path d="M444 273.347C444 269.842 446.842 267 450.347 267H501.122C504.627 267 507.469 269.842 507.469 273.347V324.122C507.469 327.627 504.627 330.469 501.122 330.469H450.347C446.842 330.469 444 327.627 444 324.122V273.347Z" fill="#9EAAB8"/>
<path d="M444 342.469H583.632V356.75H444V342.469Z" fill="#38485C"/>
<path d="M444 364.75H606.64V371.096H444V364.75Z" fill="#505E70"/>
<path d="M444 377.096H594.739V383.443H444V377.096Z" fill="#505E70"/>
<path d="M444 389.443H601.086V395.79H444V389.443Z" fill="#505E70"/>
<path d="M444 416H496V422H444V416Z" fill="#007BC7"/>
<path d="M500 416H506V422H500V416Z" fill="#007BC7"/>
<rect x="50" y="48" width="178.64" height="179.005" rx="8" fill="white"/>
<path d="M58 62.3469C58 58.8416 60.8416 56 64.3469 56H115.122C118.627 56 121.469 58.8416 121.469 62.3469V113.122C121.469 116.627 118.627 119.469 115.122 119.469H64.3469C60.8416 119.469 58 116.627 58 113.122V62.3469Z" fill="#9EAAB8"/>
<path d="M58 131.469H197.632V145.75H58V131.469Z" fill="#38485C"/>
<path d="M58 153.75H220.64V160.097H58V153.75Z" fill="#505E70"/>
<path d="M58 166.097H208.739V172.443H58V166.097Z" fill="#505E70"/>
<path d="M58 178.443H215.086V184.79H58V178.443Z" fill="#505E70"/>
<path d="M58 204.79C58 200.372 61.5817 196.79 66 196.79H101.569C105.987 196.79 109.569 200.372 109.569 204.79V211.004C109.569 215.423 105.987 219.004 101.569 219.004H66C61.5817 219.004 58 215.423 58 211.004V204.79Z" fill="#5C6A7A"/>
<rect x="243" y="48" width="178.64" height="179.005" rx="8" fill="white"/>
<path d="M251 62.3469C251 58.8416 253.842 56 257.347 56H308.122C311.627 56 314.469 58.8416 314.469 62.3469V113.122C314.469 116.627 311.627 119.469 308.122 119.469H257.347C253.842 119.469 251 116.627 251 113.122V62.3469Z" fill="#9EAAB8"/>
<path d="M251 131.469H390.632V145.75H251V131.469Z" fill="#38485C"/>
<path d="M251 153.75H413.64V160.097H251V153.75Z" fill="#505E70"/>
<path d="M251 166.097H401.739V172.443H251V166.097Z" fill="#505E70"/>
<path d="M251 178.443H408.086V184.79H251V178.443Z" fill="#505E70"/>
<path d="M251 204.79C251 200.372 254.582 196.79 259 196.79H294.569C298.987 196.79 302.569 200.372 302.569 204.79V211.004C302.569 215.423 298.987 219.004 294.569 219.004H259C254.582 219.004 251 215.423 251 211.004V204.79Z" fill="#5C6A7A"/>
<rect x="436" y="48" width="178.64" height="179.005" rx="8" fill="white"/>
<path d="M444 62.3469C444 58.8416 446.842 56 450.347 56H501.122C504.627 56 507.469 58.8416 507.469 62.3469V113.122C507.469 116.627 504.627 119.469 501.122 119.469H450.347C446.842 119.469 444 116.627 444 113.122V62.3469Z" fill="#9EAAB8"/>
<path d="M444 131.469H583.632V145.75H444V131.469Z" fill="#38485C"/>
<path d="M444 153.75H606.64V160.097H444V153.75Z" fill="#505E70"/>
<path d="M444 166.097H594.739V172.443H444V166.097Z" fill="#505E70"/>
<path d="M444 178.443H601.086V184.79H444V178.443Z" fill="#505E70"/>
<path d="M444 204.79C444 200.372 447.582 196.79 452 196.79H487.569C491.987 196.79 495.569 200.372 495.569 204.79V211.004C495.569 215.423 491.987 219.004 487.569 219.004H452C447.582 219.004 444 215.423 444 211.004V204.79Z" fill="#5C6A7A"/>
<path d="M58 474.8C58 472.149 60.149 470 62.8 470H101.2C103.851 470 106 472.149 106 474.8V513.2C106 515.851 103.851 518 101.2 518H62.8C60.149 518 58 515.851 58 513.2V474.8Z" fill="#9EAAB8"/>
<path d="M58 527H163V538H58V527Z" fill="#38485C"/>
<path d="M58 544H180V548H58V544Z" fill="#505E70"/>
<path d="M58 553H171V558H58V553Z" fill="#505E70"/>
<path d="M58 580H171V585H58V580Z" fill="#505E70"/>
<path d="M58 562H176V567H58V562Z" fill="#505E70"/>
<path d="M58 571H176V576H58V571Z" fill="#505E70"/>
<path d="M58 602C58 597.582 61.5817 594 66 594H89C93.4183 594 97 597.582 97 602V603C97 607.418 93.4183 611 89 611H66C61.5817 611 58 607.418 58 603V602Z" fill="#5C6A7A"/>
<path d="M203 474.8C203 472.149 205.149 470 207.8 470H246.2C248.851 470 251 472.149 251 474.8V513.2C251 515.851 248.851 518 246.2 518H207.8C205.149 518 203 515.851 203 513.2V474.8Z" fill="#9EAAB8"/>
<path d="M203 527H308V538H203V527Z" fill="#38485C"/>
<path d="M203 544H325V548H203V544Z" fill="#505E70"/>
<path d="M203 553H316V558H203V553Z" fill="#505E70"/>
<path d="M203 562H321V567H203V562Z" fill="#505E70"/>
<path d="M203 584C203 579.582 206.582 576 211 576H234C238.418 576 242 579.582 242 584V585C242 589.418 238.418 593 234 593H211C206.582 593 203 589.418 203 585V584Z" fill="#5C6A7A"/>
<path d="M348 474.8C348 472.149 350.149 470 352.8 470H391.2C393.851 470 396 472.149 396 474.8V513.2C396 515.851 393.851 518 391.2 518H352.8C350.149 518 348 515.851 348 513.2V474.8Z" fill="#9EAAB8"/>
<path d="M348 527H453V538H348V527Z" fill="#38485C"/>
<path d="M348 544H470V548H348V544Z" fill="#505E70"/>
<path d="M348 571H470V575H348V571Z" fill="#505E70"/>
<path d="M348 597H470V601H348V597Z" fill="#505E70"/>
<path d="M348 553H461V558H348V553Z" fill="#505E70"/>
<path d="M348 588H461V593H348V588Z" fill="#505E70"/>
<path d="M348 562H466V567H348V562Z" fill="#505E70"/>
<path d="M348 579H466V584H348V579Z" fill="#505E70"/>
<path d="M348 618C348 613.582 351.582 610 356 610H379C383.418 610 387 613.582 387 618V619C387 623.418 383.418 627 379 627H356C351.582 627 348 623.418 348 619V618Z" fill="#5C6A7A"/>
<path d="M493 474.8C493 472.149 495.104 470 497.7 470H535.3C537.896 470 540 472.149 540 474.8V513.2C540 515.851 537.896 518 535.3 518H497.7C495.104 518 493 515.851 493 513.2V474.8Z" fill="#9EAAB8"/>
<path d="M493 527H598V538H493V527Z" fill="#38485C"/>
<path d="M493 544H615V548H493V544Z" fill="#505E70"/>
<path d="M493 553H606V558H493V553Z" fill="#505E70"/>
<path d="M493 575C493 570.582 496.582 567 501 567H523C527.418 567 531 570.582 531 575V576C531 580.418 527.418 584 523 584H501C496.582 584 493 580.418 493 576V575Z" fill="#5C6A7A"/>
<path d="M649.933 127.648C647.955 127.648 646.022 128.234 644.377 129.333C642.733 130.432 641.451 131.994 640.694 133.821C639.937 135.648 639.739 137.659 640.125 139.599C640.511 141.539 641.463 143.32 642.862 144.719C644.26 146.118 646.042 147.07 647.982 147.456C649.922 147.842 651.933 147.644 653.76 146.887C655.587 146.13 657.149 144.848 658.248 143.204C659.347 141.559 659.933 139.626 659.933 137.648C659.933 134.996 658.879 132.452 657.004 130.577C655.129 128.702 652.585 127.648 649.933 127.648ZM647.223 141.938L643.633 138.348C643.469 138.157 643.384 137.911 643.393 137.659C643.403 137.407 643.507 137.168 643.685 136.99C643.864 136.812 644.102 136.708 644.354 136.698C644.606 136.689 644.852 136.774 645.043 136.938L647.933 139.818L654.813 132.938C655.004 132.774 655.25 132.689 655.502 132.698C655.754 132.708 655.992 132.812 656.171 132.99C656.349 133.168 656.453 133.407 656.463 133.659C656.472 133.911 656.387 134.157 656.223 134.348L648.633 141.938C648.446 142.124 648.192 142.229 647.928 142.229C647.664 142.229 647.41 142.124 647.223 141.938Z" fill="#26874A"/>
<path d="M650 339C648.022 339 646.089 339.586 644.444 340.685C642.8 341.784 641.518 343.346 640.761 345.173C640.004 347 639.806 349.011 640.192 350.951C640.578 352.891 641.53 354.673 642.929 356.071C644.327 357.47 646.109 358.422 648.049 358.808C649.989 359.194 652 358.996 653.827 358.239C655.654 357.482 657.216 356.2 658.315 354.556C659.414 352.911 660 350.978 660 349C660.001 347.686 659.743 346.386 659.241 345.172C658.739 343.958 658.003 342.855 657.074 341.926C656.145 340.997 655.042 340.261 653.828 339.759C652.614 339.257 651.314 338.999 650 339ZM654.3 353.3C654.113 353.486 653.859 353.591 653.595 353.591C653.331 353.591 653.077 353.486 652.89 353.3L650 350.41L647.11 353.3C647.02 353.405 646.91 353.49 646.786 353.55C646.662 353.61 646.527 353.643 646.389 353.649C646.251 353.654 646.114 353.631 645.986 353.581C645.857 353.53 645.741 353.454 645.643 353.357C645.546 353.259 645.47 353.143 645.419 353.014C645.369 352.886 645.346 352.749 645.351 352.611C645.357 352.473 645.39 352.338 645.45 352.214C645.51 352.09 645.595 351.98 645.7 351.89L648.59 349L645.7 346.11C645.536 345.919 645.451 345.673 645.46 345.421C645.47 345.169 645.574 344.931 645.752 344.752C645.931 344.574 646.169 344.47 646.421 344.46C646.673 344.451 646.919 344.536 647.11 344.7L650 347.59L652.89 344.7C653.081 344.536 653.327 344.451 653.579 344.46C653.831 344.47 654.069 344.574 654.248 344.752C654.426 344.931 654.53 345.169 654.54 345.421C654.549 345.673 654.464 345.919 654.3 346.11L651.41 349L654.3 351.89C654.483 352.079 654.585 352.332 654.585 352.595C654.585 352.858 654.483 353.111 654.3 353.3Z" fill="#C93B3B"/>
<path d="M650 539C648.022 539 646.089 539.586 644.444 540.685C642.8 541.784 641.518 543.346 640.761 545.173C640.004 547 639.806 549.011 640.192 550.951C640.578 552.891 641.53 554.673 642.929 556.071C644.327 557.47 646.109 558.422 648.049 558.808C649.989 559.194 652 558.996 653.827 558.239C655.654 557.482 657.216 556.2 658.315 554.556C659.414 552.911 660 550.978 660 549C660.001 547.686 659.743 546.386 659.241 545.172C658.739 543.958 658.003 542.855 657.074 541.926C656.145 540.997 655.042 540.261 653.828 539.759C652.614 539.257 651.314 538.999 650 539ZM654.3 553.3C654.113 553.486 653.859 553.591 653.595 553.591C653.331 553.591 653.077 553.486 652.89 553.3L650 550.41L647.11 553.3C647.02 553.405 646.91 553.49 646.786 553.55C646.662 553.61 646.527 553.643 646.389 553.649C646.251 553.654 646.114 553.631 645.986 553.581C645.857 553.53 645.741 553.454 645.643 553.357C645.546 553.259 645.47 553.143 645.419 553.014C645.369 552.886 645.346 552.749 645.351 552.611C645.357 552.473 645.39 552.338 645.45 552.214C645.51 552.09 645.595 551.98 645.7 551.89L648.59 549L645.7 546.11C645.536 545.919 645.451 545.673 645.46 545.421C645.47 545.169 645.574 544.931 645.752 544.752C645.931 544.574 646.169 544.47 646.421 544.46C646.673 544.451 646.919 544.536 647.11 544.7L650 547.59L652.89 544.7C653.081 544.536 653.327 544.451 653.579 544.46C653.831 544.47 654.069 544.574 654.248 544.752C654.426 544.931 654.53 545.169 654.54 545.421C654.549 545.673 654.464 545.919 654.3 546.11L651.41 549L654.3 551.89C654.483 552.079 654.585 552.332 654.585 552.595C654.585 552.858 654.483 553.111 654.3 553.3Z" fill="#C93B3B"/>
</svg>
