<svg xmlns="http://www.w3.org/2000/svg" width="712" height="331" viewBox="0 0 712 331">
  <g id="Grupo_18303" data-name="Grupo 18303" transform="translate(-513 -558)">
    <g id="Grupo_18124" data-name="Grupo 18124" transform="translate(0 -44)">
      <path id="Trazado_20235" data-name="Trazado 20235" d="M4,0H708c2.209,0,4,1.174,4,2.622V328.378c0,1.448-1.791,2.622-4,2.622H4c-2.209,0-4-1.174-4-2.622V2.622C0,1.174,1.791,0,4,0Z" transform="translate(513 602)" fill="#f3f6f9"/>
    </g>
    <g id="Grupo_17672" data-name="Grupo 17672" transform="translate(1059 728.072) rotate(-90)">
      <line id="Línea_114" data-name="Línea 114" x2="20.073" transform="translate(0 3.034)" fill="none" stroke="#38485c" stroke-linecap="round" stroke-width="1"/>
      <path id="Trazado_4671" data-name="Trazado 4671" d="M0,0V3.033" transform="translate(20.073 3.034) rotate(180)" fill="none" stroke="#38485c" stroke-linecap="round" stroke-width="1"/>
      <path id="Trazado_20265" data-name="Trazado 20265" d="M0,0V3.033" transform="translate(-0.213 3.033) rotate(180)" fill="none" stroke="#38485c" stroke-linecap="round" stroke-width="1"/>
    </g>
    <g id="Grupo_18086" data-name="Grupo 18086" transform="translate(679.034 646.213) rotate(90)">
      <line id="Línea_114-2" data-name="Línea 114" x2="22.787" transform="translate(0 3.034)" fill="none" stroke="#38485c" stroke-linecap="round" stroke-width="1"/>
      <path id="Trazado_4671-2" data-name="Trazado 4671" d="M0,0V3.033" transform="translate(22.787 3.034) rotate(180)" fill="none" stroke="#38485c" stroke-linecap="round" stroke-width="1"/>
      <path id="Trazado_20265-2" data-name="Trazado 20265" d="M0,0V3.033" transform="translate(-0.213 3.033) rotate(180)" fill="none" stroke="#38485c" stroke-linecap="round" stroke-width="1"/>
    </g>
    <path id="Trazado_20266" data-name="Trazado 20266" d="M11.44-1.232a.985.985,0,0,1,.1.416.8.8,0,0,1-.3.624,1.009,1.009,0,0,1-.68.256.909.909,0,0,1-.48-.136A.907.907,0,0,1,9.728-.5L8.768-2.64H3.136L2.176-.5a.907.907,0,0,1-.352.424.937.937,0,0,1-.5.136A1.019,1.019,0,0,1,.656-.192a.787.787,0,0,1-.3-.624.985.985,0,0,1,.1-.416L4.864-10.72a1.032,1.032,0,0,1,.44-.488,1.26,1.26,0,0,1,.632-.168,1.26,1.26,0,0,1,.632.168,1.032,1.032,0,0,1,.44.488ZM3.84-4.24H8.064L5.952-8.992Zm2.352-7.984a.568.568,0,0,1-.256.064.494.494,0,0,1-.352-.136.418.418,0,0,1-.144-.312.507.507,0,0,1,.176-.352l1.456-1.5a.928.928,0,0,1,.688-.32.754.754,0,0,1,.552.232.736.736,0,0,1,.232.536.682.682,0,0,1-.136.4A1.141,1.141,0,0,1,8-13.28Zm11.072,4.24a.861.861,0,0,1,.656.176.781.781,0,0,1,.24.624.872.872,0,0,1-.208.64,1.278,1.278,0,0,1-.752.272l-.48.048a1.944,1.944,0,0,0-1.384.64,2.093,2.093,0,0,0-.44,1.36v3.36a.888.888,0,0,1-.288.712,1.064,1.064,0,0,1-.72.248,1.034,1.034,0,0,1-.712-.248.9.9,0,0,1-.28-.712V-7.056a.856.856,0,0,1,.28-.688,1.032,1.032,0,0,1,.7-.24.962.962,0,0,1,.672.232.85.85,0,0,1,.256.664v.64a2.368,2.368,0,0,1,.9-1.088,2.771,2.771,0,0,1,1.336-.432Zm7.776,5.84a.538.538,0,0,1,.44.208.865.865,0,0,1,.168.56.97.97,0,0,1-.592.832,5.349,5.349,0,0,1-1.232.488,5.079,5.079,0,0,1-1.312.184A4.077,4.077,0,0,1,19.52-.96a3.988,3.988,0,0,1-1.1-2.976,4.566,4.566,0,0,1,.48-2.128A3.49,3.49,0,0,1,20.248-7.5a3.829,3.829,0,0,1,1.976-.512,3.546,3.546,0,0,1,1.84.464A3.146,3.146,0,0,1,25.28-6.24a4.353,4.353,0,0,1,.432,2q0,.688-.608.688h-4.72a2.517,2.517,0,0,0,.624,1.624,2.1,2.1,0,0,0,1.536.52,2.913,2.913,0,0,0,.9-.128,8.923,8.923,0,0,0,.888-.352A1.766,1.766,0,0,1,25.04-2.144ZM22.272-6.608a1.717,1.717,0,0,0-1.3.512,2.417,2.417,0,0,0-.584,1.472H24a2.281,2.281,0,0,0-.48-1.48A1.583,1.583,0,0,0,22.272-6.608ZM30.72-8.016a3.259,3.259,0,0,1,2.424.808,3.383,3.383,0,0,1,.792,2.456v3.9a.9.9,0,0,1-.256.68.969.969,0,0,1-.7.248.936.936,0,0,1-.68-.256.894.894,0,0,1-.264-.672V-1.2a2.088,2.088,0,0,1-.856.976,2.568,2.568,0,0,1-1.352.352A3.139,3.139,0,0,1,28.4-.192a2.533,2.533,0,0,1-1.008-.88,2.224,2.224,0,0,1-.368-1.248,1.977,1.977,0,0,1,.44-1.36A2.644,2.644,0,0,1,28.9-4.4a13.041,13.041,0,0,1,2.736-.224h.4v-.368A1.638,1.638,0,0,0,31.7-6.136a1.43,1.43,0,0,0-1.088-.36,3.452,3.452,0,0,0-.944.136q-.48.136-1.136.392a1.6,1.6,0,0,1-.608.208.6.6,0,0,1-.472-.208.791.791,0,0,1-.184-.544.819.819,0,0,1,.136-.472,1.291,1.291,0,0,1,.456-.376,5.215,5.215,0,0,1,1.336-.48A6.893,6.893,0,0,1,30.72-8.016Zm-.5,6.7a1.709,1.709,0,0,0,1.3-.536,1.939,1.939,0,0,0,.5-1.384v-.336h-.288a11.038,11.038,0,0,0-1.664.1,1.616,1.616,0,0,0-.848.336.856.856,0,0,0-.256.656,1.085,1.085,0,0,0,.36.84A1.27,1.27,0,0,0,30.224-1.312ZM46.8-11.36a1.066,1.066,0,0,1,.736.256.856.856,0,0,1,.288.672V-.864a.9.9,0,0,1-.272.688,1.008,1.008,0,0,1-.72.256,1.008,1.008,0,0,1-.72-.256.9.9,0,0,1-.272-.688v-.4A2.5,2.5,0,0,1,44.824-.24a3.066,3.066,0,0,1-1.512.368,3.243,3.243,0,0,1-1.8-.512A3.4,3.4,0,0,1,40.28-1.832a5,5,0,0,1-.44-2.152,4.845,4.845,0,0,1,.44-2.128A3.333,3.333,0,0,1,41.5-7.52a3.309,3.309,0,0,1,1.808-.5,3.131,3.131,0,0,1,1.5.352,2.442,2.442,0,0,1,1.008.992v-3.792a.848.848,0,0,1,.264-.648A1,1,0,0,1,46.8-11.36ZM43.84-1.424a1.779,1.779,0,0,0,1.48-.656,2.952,2.952,0,0,0,.52-1.872,2.917,2.917,0,0,0-.52-1.864,1.77,1.77,0,0,0-1.464-.648,1.821,1.821,0,0,0-1.488.64,2.823,2.823,0,0,0-.528,1.84A2.989,2.989,0,0,0,42.368-2.1,1.766,1.766,0,0,0,43.84-1.424Zm12.224-.72a.538.538,0,0,1,.44.208.865.865,0,0,1,.168.56.97.97,0,0,1-.592.832,5.349,5.349,0,0,1-1.232.488,5.079,5.079,0,0,1-1.312.184A4.077,4.077,0,0,1,50.544-.96a3.988,3.988,0,0,1-1.1-2.976,4.566,4.566,0,0,1,.48-2.128A3.49,3.49,0,0,1,51.272-7.5a3.829,3.829,0,0,1,1.976-.512,3.546,3.546,0,0,1,1.84.464A3.146,3.146,0,0,1,56.3-6.24a4.354,4.354,0,0,1,.432,2q0,.688-.608.688h-4.72a2.517,2.517,0,0,0,.624,1.624,2.1,2.1,0,0,0,1.536.52,2.913,2.913,0,0,0,.9-.128,8.923,8.923,0,0,0,.888-.352A1.766,1.766,0,0,1,56.064-2.144ZM53.3-6.608a1.717,1.717,0,0,0-1.3.512,2.417,2.417,0,0,0-.584,1.472h3.616a2.281,2.281,0,0,0-.48-1.48A1.583,1.583,0,0,0,53.3-6.608Zm13.44,5.216q.8.048.8.72a.651.651,0,0,1-.312.584,1.489,1.489,0,0,1-.888.168L65.9.048a2.574,2.574,0,0,1-2.688-2.88V-6.32h-.8a1.016,1.016,0,0,1-.664-.192.685.685,0,0,1-.232-.56.685.685,0,0,1,.232-.56,1.016,1.016,0,0,1,.664-.192h.8V-9.3a.9.9,0,0,1,.272-.688,1.03,1.03,0,0,1,.736-.256,1.008,1.008,0,0,1,.72.256.9.9,0,0,1,.272.688v1.472h1.36a1.016,1.016,0,0,1,.664.192.685.685,0,0,1,.232.56.685.685,0,0,1-.232.56,1.016,1.016,0,0,1-.664.192h-1.36v3.632q0,1.184,1.088,1.264ZM69.552.1a1.034,1.034,0,0,1-.712-.248.9.9,0,0,1-.28-.712V-7.04a.876.876,0,0,1,.28-.7,1.055,1.055,0,0,1,.712-.24,1.087,1.087,0,0,1,.72.24.864.864,0,0,1,.288.7V-.864a.888.888,0,0,1-.288.712A1.064,1.064,0,0,1,69.552.1Zm.4-8.992a.6.6,0,0,1-.352.128.511.511,0,0,1-.376-.152.492.492,0,0,1-.152-.36.6.6,0,0,1,.128-.352L70.752-11.7a1.059,1.059,0,0,1,.848-.48.817.817,0,0,1,.6.248.8.8,0,0,1,.248.584.936.936,0,0,1-.432.768Zm7.056,7.5q.8.048.8.72a.651.651,0,0,1-.312.584,1.489,1.489,0,0,1-.888.168L76.176.048a2.574,2.574,0,0,1-2.688-2.88V-6.32h-.8a1.016,1.016,0,0,1-.664-.192.685.685,0,0,1-.232-.56.685.685,0,0,1,.232-.56,1.016,1.016,0,0,1,.664-.192h.8V-9.3a.9.9,0,0,1,.272-.688,1.03,1.03,0,0,1,.736-.256,1.008,1.008,0,0,1,.72.256.9.9,0,0,1,.272.688v1.472h1.36a1.016,1.016,0,0,1,.664.192.685.685,0,0,1,.232.56.685.685,0,0,1-.232.56,1.016,1.016,0,0,1-.664.192h-1.36v3.632q0,1.184,1.088,1.264Zm8-6.592a1.03,1.03,0,0,1,.736.256.9.9,0,0,1,.272.688V-.832a.868.868,0,0,1-.28.672A1.037,1.037,0,0,1,85.008.1a.965.965,0,0,1-.688-.24A.856.856,0,0,1,84.064-.8v-.4a2.549,2.549,0,0,1-.992.984,2.867,2.867,0,0,1-1.408.344q-2.88,0-2.88-3.232V-7.04a.9.9,0,0,1,.272-.688,1.008,1.008,0,0,1,.72-.256,1.03,1.03,0,0,1,.736.256.9.9,0,0,1,.272.688v3.952a1.888,1.888,0,0,0,.336,1.232,1.3,1.3,0,0,0,1.056.4,1.722,1.722,0,0,0,1.336-.552,2.087,2.087,0,0,0,.5-1.464V-7.04a.9.9,0,0,1,.272-.688A1.008,1.008,0,0,1,85.008-7.984ZM89.072.1a1.034,1.034,0,0,1-.712-.248.9.9,0,0,1-.28-.712v-9.552a.876.876,0,0,1,.28-.7,1.055,1.055,0,0,1,.712-.24,1.087,1.087,0,0,1,.72.24.864.864,0,0,1,.288.7V-.864a.888.888,0,0,1-.288.712A1.064,1.064,0,0,1,89.072.1ZM95.7.128a4.3,4.3,0,0,1-2.1-.5,3.432,3.432,0,0,1-1.4-1.424,4.515,4.515,0,0,1-.5-2.16,4.468,4.468,0,0,1,.5-2.152,3.444,3.444,0,0,1,1.4-1.416,4.3,4.3,0,0,1,2.1-.5,4.3,4.3,0,0,1,2.1.5A3.394,3.394,0,0,1,99.192-6.1a4.528,4.528,0,0,1,.488,2.152,4.575,4.575,0,0,1-.488,2.16A3.382,3.382,0,0,1,97.8-.368,4.3,4.3,0,0,1,95.7.128ZM95.68-1.424a1.793,1.793,0,0,0,1.488-.64,2.973,2.973,0,0,0,.512-1.888,2.979,2.979,0,0,0-.512-1.88A1.765,1.765,0,0,0,95.7-6.48a1.788,1.788,0,0,0-1.48.648,2.946,2.946,0,0,0-.52,1.88,2.973,2.973,0,0,0,.512,1.888A1.775,1.775,0,0,0,95.68-1.424Z" transform="translate(558 662.783)" fill="#38485c"/>
    <rect id="Rectángulo_5647" data-name="Rectángulo 5647" width="340" height="191" rx="8" transform="translate(699 623)" fill="#fff"/>
    <path id="Trazado_23992" data-name="Trazado 23992" d="M5.738.095a.964.964,0,0,1-.713-.275A.964.964,0,0,1,4.75-.893V-11.761H.95q-.912,0-.912-.817a.767.767,0,0,1,.237-.608.989.989,0,0,1,.674-.209h9.576a.989.989,0,0,1,.675.209.767.767,0,0,1,.237.608q0,.817-.912.817h-3.8V-.893a.983.983,0,0,1-.266.712A.957.957,0,0,1,5.738.095Zm9.082,0a1.051,1.051,0,0,1-.693-.228.837.837,0,0,1-.276-.684V-8.531a.866.866,0,0,1,.276-.693,1.024,1.024,0,0,1,.693-.238.988.988,0,0,1,.684.238.881.881,0,0,1,.266.693V-.817a.851.851,0,0,1-.266.684A1.014,1.014,0,0,1,14.82.095Zm.4-10.621a.53.53,0,0,1-.361.133.525.525,0,0,1-.37-.152.479.479,0,0,1-.161-.361.506.506,0,0,1,.133-.342l2.052-2.679a1.084,1.084,0,0,1,.874-.513.826.826,0,0,1,.608.247.8.8,0,0,1,.247.589,1.073,1.073,0,0,1-.456.817Zm8.018,9.158a.953.953,0,0,1,.6.218.681.681,0,0,1,.181.5.656.656,0,0,1-.294.58,1.375,1.375,0,0,1-.865.161L22.344.057a3.327,3.327,0,0,1-2.3-.941,3.492,3.492,0,0,1-.76-2.442V-7.79h-1.14q-.836,0-.836-.741a.7.7,0,0,1,.219-.542.883.883,0,0,1,.617-.2h1.14v-1.957a.9.9,0,0,1,.257-.684.958.958,0,0,1,.693-.247.992.992,0,0,1,.7.247.887.887,0,0,1,.266.684v1.957h1.881a.883.883,0,0,1,.618.2.7.7,0,0,1,.219.542.691.691,0,0,1-.219.551.912.912,0,0,1-.618.19H21.2v4.6a1.941,1.941,0,0,0,.371,1.311,1.6,1.6,0,0,0,1.13.475Zm9.329-8.094a.958.958,0,0,1,.693.247.9.9,0,0,1,.257.684V-.8a.841.841,0,0,1-.266.646.992.992,0,0,1-.7.247A.893.893,0,0,1,31.9-.142a.842.842,0,0,1-.247-.637V-1.5A2.976,2.976,0,0,1,30.448-.285a3.543,3.543,0,0,1-1.719.418q-3.382,0-3.382-3.724v-4.94a.9.9,0,0,1,.257-.684.985.985,0,0,1,.712-.247.958.958,0,0,1,.694.247.9.9,0,0,1,.257.684V-3.61a2.5,2.5,0,0,0,.456,1.653,1.752,1.752,0,0,0,1.406.532,2.34,2.34,0,0,0,1.8-.722A2.7,2.7,0,0,0,31.6-4.066V-8.531a.894.894,0,0,1,.266-.674A.97.97,0,0,1,32.566-9.462ZM37.145.095a1.051,1.051,0,0,1-.694-.228.837.837,0,0,1-.275-.684V-12.559a.866.866,0,0,1,.275-.693,1.024,1.024,0,0,1,.694-.238.988.988,0,0,1,.684.238.881.881,0,0,1,.266.693V-.817a.851.851,0,0,1-.266.684A1.014,1.014,0,0,1,37.145.095Zm7.638.038a4.777,4.777,0,0,1-2.4-.589,3.974,3.974,0,0,1-1.6-1.682,5.483,5.483,0,0,1-.561-2.537,5.527,5.527,0,0,1,.561-2.555,3.974,3.974,0,0,1,1.6-1.682,4.777,4.777,0,0,1,2.4-.589,4.777,4.777,0,0,1,2.4.589,3.974,3.974,0,0,1,1.6,1.682,5.527,5.527,0,0,1,.56,2.555,5.483,5.483,0,0,1-.56,2.537,3.974,3.974,0,0,1-1.6,1.682A4.777,4.777,0,0,1,44.783.133Zm0-1.52a2.356,2.356,0,0,0,1.947-.836A3.832,3.832,0,0,0,47.4-4.674a3.8,3.8,0,0,0-.684-2.441,2.35,2.35,0,0,0-1.938-.845,2.35,2.35,0,0,0-1.938.845,3.8,3.8,0,0,0-.684,2.441,3.832,3.832,0,0,0,.674,2.451A2.356,2.356,0,0,0,44.783-1.387ZM64.03-13.49a.992.992,0,0,1,.7.247.864.864,0,0,1,.266.665V-.836a.9.9,0,0,1-.257.684.958.958,0,0,1-.694.247.958.958,0,0,1-.693-.247A.9.9,0,0,1,63.1-.836V-1.6A2.94,2.94,0,0,1,61.883-.313,3.711,3.711,0,0,1,60.04.133,3.851,3.851,0,0,1,57.9-.475a4.042,4.042,0,0,1-1.463-1.71,5.832,5.832,0,0,1-.522-2.527,5.754,5.754,0,0,1,.522-2.527,3.958,3.958,0,0,1,1.453-1.672A3.93,3.93,0,0,1,60.04-9.5a3.657,3.657,0,0,1,1.833.446A2.979,2.979,0,0,1,63.08-7.79v-4.826a.826.826,0,0,1,.257-.637A.981.981,0,0,1,64.03-13.49ZM60.5-1.387a2.318,2.318,0,0,0,1.919-.855A3.808,3.808,0,0,0,63.1-4.674a3.846,3.846,0,0,0-.674-2.432A2.312,2.312,0,0,0,60.5-7.961a2.378,2.378,0,0,0-1.947.845,3.7,3.7,0,0,0-.694,2.4,3.823,3.823,0,0,0,.7,2.441A2.34,2.34,0,0,0,60.5-1.387Zm14.421-.95a.54.54,0,0,1,.437.209.813.813,0,0,1,.171.532,1.093,1.093,0,0,1-.684.931,6.027,6.027,0,0,1-1.453.589,5.894,5.894,0,0,1-1.511.209A4.679,4.679,0,0,1,68.4-1.15a4.757,4.757,0,0,1-1.273-3.506,5.5,5.5,0,0,1,.561-2.527,4.121,4.121,0,0,1,1.577-1.71A4.41,4.41,0,0,1,71.573-9.5a3.773,3.773,0,0,1,2.945,1.2A4.633,4.633,0,0,1,75.6-5.073q0,.76-.684.76H69.046q.19,2.945,2.831,2.945a3.5,3.5,0,0,0,1.216-.19,8.843,8.843,0,0,0,1.083-.494q.057-.038.313-.161A1.037,1.037,0,0,1,74.917-2.337ZM71.611-8.094a2.318,2.318,0,0,0-1.767.7,3.283,3.283,0,0,0-.8,1.976h4.9A3.176,3.176,0,0,0,73.293-7.4,2.1,2.1,0,0,0,71.611-8.094ZM93.328-9.5q3.116,0,3.116,3.743v4.94a.857.857,0,0,1-.266.675,1.016,1.016,0,0,1-.7.237.988.988,0,0,1-.684-.237.857.857,0,0,1-.266-.675V-5.738a2.7,2.7,0,0,0-.418-1.682A1.578,1.578,0,0,0,92.8-7.942a2.06,2.06,0,0,0-1.653.713,2.9,2.9,0,0,0-.608,1.947V-.817a.857.857,0,0,1-.266.675,1.016,1.016,0,0,1-.7.237.988.988,0,0,1-.684-.237.857.857,0,0,1-.266-.675V-5.738A2.7,2.7,0,0,0,88.2-7.42a1.578,1.578,0,0,0-1.311-.523,2.088,2.088,0,0,0-1.662.713,2.874,2.874,0,0,0-.618,1.947V-.817a.857.857,0,0,1-.266.675.988.988,0,0,1-.684.237,1.024,1.024,0,0,1-.694-.237.842.842,0,0,1-.275-.675V-8.55a.835.835,0,0,1,.285-.665,1.009,1.009,0,0,1,.684-.247.927.927,0,0,1,.655.238.849.849,0,0,1,.257.655v.7a2.906,2.906,0,0,1,1.159-1.216,3.421,3.421,0,0,1,1.71-.418,3.243,3.243,0,0,1,1.757.437,2.611,2.611,0,0,1,1.035,1.349,3.17,3.17,0,0,1,1.235-1.3A3.58,3.58,0,0,1,93.328-9.5ZM103.075.133a4.777,4.777,0,0,1-2.4-.589,3.974,3.974,0,0,1-1.6-1.682,5.483,5.483,0,0,1-.561-2.537,5.527,5.527,0,0,1,.561-2.555,3.974,3.974,0,0,1,1.6-1.682,4.777,4.777,0,0,1,2.4-.589,4.777,4.777,0,0,1,2.4.589,3.974,3.974,0,0,1,1.6,1.682,5.527,5.527,0,0,1,.561,2.555,5.483,5.483,0,0,1-.561,2.537,3.974,3.974,0,0,1-1.6,1.682A4.777,4.777,0,0,1,103.075.133Zm0-1.52a2.356,2.356,0,0,0,1.948-.836,3.832,3.832,0,0,0,.674-2.451,3.8,3.8,0,0,0-.684-2.441,2.35,2.35,0,0,0-1.938-.845,2.35,2.35,0,0,0-1.938.845,3.8,3.8,0,0,0-.684,2.441,3.832,3.832,0,0,0,.674,2.451A2.356,2.356,0,0,0,103.075-1.387Zm14.25-12.1a.992.992,0,0,1,.7.247.864.864,0,0,1,.266.665V-.836a.9.9,0,0,1-.257.684.958.958,0,0,1-.693.247.958.958,0,0,1-.694-.247.9.9,0,0,1-.257-.684V-1.6a2.94,2.94,0,0,1-1.216,1.282,3.711,3.711,0,0,1-1.843.446A3.851,3.851,0,0,1,111.2-.475a4.042,4.042,0,0,1-1.463-1.71,5.832,5.832,0,0,1-.523-2.527,5.754,5.754,0,0,1,.523-2.527,3.958,3.958,0,0,1,1.453-1.672,3.93,3.93,0,0,1,2.147-.589,3.657,3.657,0,0,1,1.834.446,2.979,2.979,0,0,1,1.206,1.264v-4.826a.826.826,0,0,1,.257-.637A.981.981,0,0,1,117.325-13.49Zm-3.534,12.1a2.318,2.318,0,0,0,1.919-.855,3.808,3.808,0,0,0,.684-2.432,3.846,3.846,0,0,0-.674-2.432,2.312,2.312,0,0,0-1.928-.855,2.378,2.378,0,0,0-1.948.845,3.7,3.7,0,0,0-.693,2.4,3.823,3.823,0,0,0,.7,2.441A2.34,2.34,0,0,0,113.791-1.387ZM124.849-9.5a3.664,3.664,0,0,1,2.745.931,3.927,3.927,0,0,1,.9,2.831V-.817a.892.892,0,0,1-.247.675.946.946,0,0,1-.684.237.9.9,0,0,1-.665-.247.9.9,0,0,1-.247-.665v-.7A2.673,2.673,0,0,1,125.58-.294a3.169,3.169,0,0,1-1.662.427,3.7,3.7,0,0,1-1.662-.37,3.008,3.008,0,0,1-1.187-1.016,2.551,2.551,0,0,1-.437-1.463,2.221,2.221,0,0,1,.513-1.606,3.208,3.208,0,0,1,1.729-.836,16.714,16.714,0,0,1,3.325-.257h.437v-.551a2.234,2.234,0,0,0-.437-1.539,1.83,1.83,0,0,0-1.406-.475,4.477,4.477,0,0,0-1.254.171,9.428,9.428,0,0,0-1.292.494,1.862,1.862,0,0,1-.722.285.587.587,0,0,1-.465-.209.785.785,0,0,1-.181-.532.825.825,0,0,1,.161-.5,1.7,1.7,0,0,1,.523-.427,6.5,6.5,0,0,1,1.558-.58A7.266,7.266,0,0,1,124.849-9.5Zm-.589,8.208A2.234,2.234,0,0,0,125.97-2a2.58,2.58,0,0,0,.665-1.834v-.494h-.342a14.8,14.8,0,0,0-2.28.133,2.237,2.237,0,0,0-1.14.446,1.163,1.163,0,0,0-.342.9,1.429,1.429,0,0,0,.494,1.121A1.8,1.8,0,0,0,124.26-1.292ZM132.069.095a1.051,1.051,0,0,1-.693-.228.837.837,0,0,1-.275-.684V-12.559a.866.866,0,0,1,.275-.693,1.024,1.024,0,0,1,.693-.238.988.988,0,0,1,.684.238.881.881,0,0,1,.266.693V-.817a.851.851,0,0,1-.266.684A1.014,1.014,0,0,1,132.069.095Z" transform="translate(723 662)" fill="#38485c"/>
    <g id="Rectángulo_6457" data-name="Rectángulo 6457" transform="translate(723 685)" fill="#e6ebf0" stroke="#e6ebf0" stroke-width="1">
      <rect width="292" height="1" stroke="none"/>
      <rect x="0.5" y="0.5" width="291" fill="none"/>
    </g>
    <path id="Trazado_20827" data-name="Trazado 20827" d="M4.923,0H91.077C93.8,0,96,1.791,96,4V30c0,2.209-2.2,4-4.923,4H4.923C2.2,34,0,32.209,0,30V4C0,1.791,2.2,0,4.923,0Z" transform="translate(919 760)" fill="#c93b3b"/>
    <path id="Trazado_23994" data-name="Trazado 23994" d="M-23.457,0-24.6-3.172h-4.367L-30.082,0h-1.969l4.273-11.469h2.031L-21.473,0ZM-25.09-4.781l-1.07-3.109q-.117-.312-.324-.984t-.285-.984a17.509,17.509,0,0,1-.617,2.1l-1.031,2.977ZM-16.676.156a3.783,3.783,0,0,1-2.98-1.145,4.782,4.782,0,0,1-1.02-3.285,4.809,4.809,0,0,1,1.066-3.352A3.956,3.956,0,0,1-16.527-8.8a5.776,5.776,0,0,1,2.461.508l-.555,1.477a5.56,5.56,0,0,0-1.922-.453q-2.242,0-2.242,2.977a3.565,3.565,0,0,0,.559,2.184,1.934,1.934,0,0,0,1.637.73,4.7,4.7,0,0,0,2.32-.609v1.6A3.626,3.626,0,0,1-15.32.031,6.305,6.305,0,0,1-16.676.156Zm7.922,0a3.783,3.783,0,0,1-2.98-1.145,4.782,4.782,0,0,1-1.02-3.285,4.809,4.809,0,0,1,1.066-3.352A3.956,3.956,0,0,1-8.605-8.8a5.776,5.776,0,0,1,2.461.508L-6.7-6.812a5.56,5.56,0,0,0-1.922-.453q-2.242,0-2.242,2.977A3.565,3.565,0,0,0-10.3-2.105a1.934,1.934,0,0,0,1.637.73,4.7,4.7,0,0,0,2.32-.609v1.6A3.626,3.626,0,0,1-7.4.031,6.305,6.305,0,0,1-8.754.156ZM-2.48,0H-4.316V-8.641H-2.48ZM-4.426-10.93a1.017,1.017,0,0,1,.27-.758,1.05,1.05,0,0,1,.77-.266,1.028,1.028,0,0,1,.754.266,1.017,1.017,0,0,1,.27.758,1,1,0,0,1-.27.738,1.019,1.019,0,0,1-.754.27,1.041,1.041,0,0,1-.77-.27A1,1,0,0,1-4.426-10.93ZM7.809-4.336a4.716,4.716,0,0,1-1.086,3.3A3.891,3.891,0,0,1,3.7.156,4.143,4.143,0,0,1,1.559-.391a3.61,3.61,0,0,1-1.43-1.57,5.348,5.348,0,0,1-.5-2.375A4.684,4.684,0,0,1,.707-7.617,3.909,3.909,0,0,1,3.746-8.8,3.807,3.807,0,0,1,6.715-7.59,4.663,4.663,0,0,1,7.809-4.336Zm-6.289,0q0,2.992,2.211,2.992,2.188,0,2.188-2.992,0-2.961-2.2-2.961a1.879,1.879,0,0,0-1.676.766A3.9,3.9,0,0,0,1.52-4.336ZM2.527-9.7v-.2q.445-.547.918-1.219t.746-1.148H6.324v.164a16.043,16.043,0,0,1-1.215,1.23A17.129,17.129,0,0,1,3.746-9.7ZM17.52,0H15.676V-5.312a2.325,2.325,0,0,0-.4-1.492A1.555,1.555,0,0,0,14-7.3a2.031,2.031,0,0,0-1.7.688,3.8,3.8,0,0,0-.539,2.3V0H9.918V-8.641h1.438l.258,1.133h.094a2.556,2.556,0,0,1,1.109-.953A3.718,3.718,0,0,1,14.41-8.8q3.109,0,3.109,3.164ZM29.012,0H27.176V-7.375q0-1.32.063-2.094-.18.188-.441.414T25.043-7.617l-.922-1.164,3.359-2.641h1.531Z" transform="translate(967 783)" fill="#fff"/>
    <rect id="Rectángulo_8934" data-name="Rectángulo 8934" width="96" height="34" rx="4" transform="translate(811 760)" fill="none"/>
    <path id="Trazado_23995" data-name="Trazado 23995" d="M-23.457,0-24.6-3.172h-4.367L-30.082,0h-1.969l4.273-11.469h2.031L-21.473,0ZM-25.09-4.781l-1.07-3.109q-.117-.312-.324-.984t-.285-.984a17.509,17.509,0,0,1-.617,2.1l-1.031,2.977ZM-16.676.156a3.783,3.783,0,0,1-2.98-1.145,4.782,4.782,0,0,1-1.02-3.285,4.809,4.809,0,0,1,1.066-3.352A3.956,3.956,0,0,1-16.527-8.8a5.776,5.776,0,0,1,2.461.508l-.555,1.477a5.56,5.56,0,0,0-1.922-.453q-2.242,0-2.242,2.977a3.565,3.565,0,0,0,.559,2.184,1.934,1.934,0,0,0,1.637.73,4.7,4.7,0,0,0,2.32-.609v1.6A3.626,3.626,0,0,1-15.32.031,6.305,6.305,0,0,1-16.676.156Zm7.922,0a3.783,3.783,0,0,1-2.98-1.145,4.782,4.782,0,0,1-1.02-3.285,4.809,4.809,0,0,1,1.066-3.352A3.956,3.956,0,0,1-8.605-8.8a5.776,5.776,0,0,1,2.461.508L-6.7-6.812a5.56,5.56,0,0,0-1.922-.453q-2.242,0-2.242,2.977A3.565,3.565,0,0,0-10.3-2.105a1.934,1.934,0,0,0,1.637.73,4.7,4.7,0,0,0,2.32-.609v1.6A3.626,3.626,0,0,1-7.4.031,6.305,6.305,0,0,1-8.754.156ZM-2.48,0H-4.316V-8.641H-2.48ZM-4.426-10.93a1.017,1.017,0,0,1,.27-.758,1.05,1.05,0,0,1,.77-.266,1.028,1.028,0,0,1,.754.266,1.017,1.017,0,0,1,.27.758,1,1,0,0,1-.27.738,1.019,1.019,0,0,1-.754.27,1.041,1.041,0,0,1-.77-.27A1,1,0,0,1-4.426-10.93ZM7.809-4.336a4.716,4.716,0,0,1-1.086,3.3A3.891,3.891,0,0,1,3.7.156,4.143,4.143,0,0,1,1.559-.391a3.61,3.61,0,0,1-1.43-1.57,5.348,5.348,0,0,1-.5-2.375A4.684,4.684,0,0,1,.707-7.617,3.909,3.909,0,0,1,3.746-8.8,3.807,3.807,0,0,1,6.715-7.59,4.663,4.663,0,0,1,7.809-4.336Zm-6.289,0q0,2.992,2.211,2.992,2.188,0,2.188-2.992,0-2.961-2.2-2.961a1.879,1.879,0,0,0-1.676.766A3.9,3.9,0,0,0,1.52-4.336ZM2.527-9.7v-.2q.445-.547.918-1.219t.746-1.148H6.324v.164a16.043,16.043,0,0,1-1.215,1.23A17.129,17.129,0,0,1,3.746-9.7ZM17.52,0H15.676V-5.312a2.325,2.325,0,0,0-.4-1.492A1.555,1.555,0,0,0,14-7.3a2.031,2.031,0,0,0-1.7.688,3.8,3.8,0,0,0-.539,2.3V0H9.918V-8.641h1.438l.258,1.133h.094a2.556,2.556,0,0,1,1.109-.953A3.718,3.718,0,0,1,14.41-8.8q3.109,0,3.109,3.164ZM31.363,0H23.621V-1.391l2.945-2.961A25.053,25.053,0,0,0,28.3-6.246,4.523,4.523,0,0,0,28.918-7.3a2.833,2.833,0,0,0,.2-1.055,1.608,1.608,0,0,0-.465-1.219,1.781,1.781,0,0,0-1.285-.445,3.426,3.426,0,0,0-1.27.242,5.942,5.942,0,0,0-1.418.875l-.992-1.211a6.4,6.4,0,0,1,1.852-1.141,5.42,5.42,0,0,1,1.914-.336A3.766,3.766,0,0,1,30-10.754a2.81,2.81,0,0,1,.961,2.238,3.928,3.928,0,0,1-.277,1.469,5.969,5.969,0,0,1-.852,1.434,19.461,19.461,0,0,1-1.91,2L25.941-1.7v.078h5.422Z" transform="translate(859 783)" fill="#007bc7"/>
    <path id="Trazado_23993" data-name="Trazado 23993" d="M7.938,17H1.57V5.578H7.938v1.18H2.9v3.68H7.633v1.172H2.9v4.2H7.938ZM15.8,14.664a2.145,2.145,0,0,1-.891,1.844,4.186,4.186,0,0,1-2.5.648,5.436,5.436,0,0,1-2.656-.539v-1.2a6.424,6.424,0,0,0,1.324.492,5.53,5.53,0,0,0,1.363.18A3.092,3.092,0,0,0,14,15.762a1.116,1.116,0,0,0,.113-1.844,6.82,6.82,0,0,0-1.691-.84,9.172,9.172,0,0,1-1.7-.777,2.321,2.321,0,0,1-.75-.754,1.966,1.966,0,0,1-.246-1.008,1.921,1.921,0,0,1,.852-1.652,3.968,3.968,0,0,1,2.336-.605,6.835,6.835,0,0,1,2.7.563L15.156,9.9a6.2,6.2,0,0,0-2.336-.531,2.688,2.688,0,0,0-1.391.289.894.894,0,0,0-.469.8.971.971,0,0,0,.176.586,1.735,1.735,0,0,0,.566.461,12.658,12.658,0,0,0,1.5.633,5.6,5.6,0,0,1,2.059,1.117A1.97,1.97,0,0,1,15.8,14.664Zm4.875,1.422a4.236,4.236,0,0,0,.664-.051,4.3,4.3,0,0,0,.508-.105v.992a2.371,2.371,0,0,1-.621.168,4.664,4.664,0,0,1-.738.066Q18,17.156,18,14.539V9.445H16.773V8.82L18,8.281l.547-1.828h.75V8.438h2.484V9.445H19.3v5.039a1.734,1.734,0,0,0,.367,1.188A1.278,1.278,0,0,0,20.672,16.086ZM28.82,17l-.258-1.219H28.5a3.6,3.6,0,0,1-1.277,1.09,3.893,3.893,0,0,1-1.59.285,2.86,2.86,0,0,1-2-.656,2.394,2.394,0,0,1-.723-1.867q0-2.594,4.148-2.719l1.453-.047v-.531a2.171,2.171,0,0,0-.434-1.488,1.783,1.783,0,0,0-1.387-.48,5.65,5.65,0,0,0-2.422.656l-.4-.992a6.094,6.094,0,0,1,1.387-.539,6.006,6.006,0,0,1,1.512-.2,3.262,3.262,0,0,1,2.27.68,2.837,2.837,0,0,1,.738,2.18V17Zm-2.93-.914a2.632,2.632,0,0,0,1.9-.664,2.457,2.457,0,0,0,.691-1.859v-.773l-1.3.055a4.717,4.717,0,0,0-2.23.48,1.449,1.449,0,0,0-.684,1.324,1.336,1.336,0,0,0,.426,1.07A1.767,1.767,0,0,0,25.891,16.086Zm14.336,1.07a3.934,3.934,0,0,1-3-1.156,4.476,4.476,0,0,1-1.1-3.211A4.964,4.964,0,0,1,37.152,9.5a3.387,3.387,0,0,1,2.738-1.219A3.229,3.229,0,0,1,42.438,9.34a4.057,4.057,0,0,1,.938,2.793v.82h-5.9a3.394,3.394,0,0,0,.762,2.289,2.634,2.634,0,0,0,2.035.781,6.9,6.9,0,0,0,2.734-.578V16.6a6.863,6.863,0,0,1-1.3.426A7.31,7.31,0,0,1,40.227,17.156Zm-.352-7.789a2.118,2.118,0,0,0-1.645.672,3.1,3.1,0,0,0-.723,1.859h4.477a2.851,2.851,0,0,0-.547-1.879A1.925,1.925,0,0,0,39.875,9.367Zm11.234,5.3a2.145,2.145,0,0,1-.891,1.844,4.186,4.186,0,0,1-2.5.648,5.436,5.436,0,0,1-2.656-.539v-1.2a6.424,6.424,0,0,0,1.324.492,5.53,5.53,0,0,0,1.363.18,3.092,3.092,0,0,0,1.563-.324,1.116,1.116,0,0,0,.113-1.844,6.82,6.82,0,0,0-1.691-.84,9.172,9.172,0,0,1-1.7-.777,2.321,2.321,0,0,1-.75-.754,1.966,1.966,0,0,1-.246-1.008,1.921,1.921,0,0,1,.852-1.652,3.968,3.968,0,0,1,2.336-.605,6.835,6.835,0,0,1,2.7.563L50.469,9.9a6.2,6.2,0,0,0-2.336-.531,2.688,2.688,0,0,0-1.391.289.894.894,0,0,0-.469.8.971.971,0,0,0,.176.586,1.735,1.735,0,0,0,.566.461,12.658,12.658,0,0,0,1.5.633,5.6,5.6,0,0,1,2.059,1.117A1.97,1.97,0,0,1,51.109,14.664ZM58.672,17h-1.3V4.844h1.3Zm8.016,0-.258-1.219h-.062a3.6,3.6,0,0,1-1.277,1.09,3.893,3.893,0,0,1-1.59.285,2.86,2.86,0,0,1-2-.656,2.394,2.394,0,0,1-.723-1.867q0-2.594,4.148-2.719l1.453-.047v-.531a2.171,2.171,0,0,0-.434-1.488,1.783,1.783,0,0,0-1.387-.48,5.65,5.65,0,0,0-2.422.656l-.4-.992a6.094,6.094,0,0,1,1.387-.539,6.006,6.006,0,0,1,1.512-.2,3.262,3.262,0,0,1,2.27.68,2.837,2.837,0,0,1,.738,2.18V17Zm-2.93-.914a2.632,2.632,0,0,0,1.9-.664,2.457,2.457,0,0,0,.691-1.859v-.773l-1.3.055a4.717,4.717,0,0,0-2.23.48,1.449,1.449,0,0,0-.684,1.324,1.336,1.336,0,0,0,.426,1.07A1.767,1.767,0,0,0,63.758,16.086ZM80.3,15.852h-.07a3.047,3.047,0,0,1-2.687,1.3,3.179,3.179,0,0,1-2.613-1.148A5.055,5.055,0,0,1,74,12.742a5.141,5.141,0,0,1,.938-3.289,3.155,3.155,0,0,1,2.609-1.172,3.114,3.114,0,0,1,2.672,1.266h.1l-.055-.617-.031-.6V4.844h1.3V17H80.477Zm-2.594.219a2.361,2.361,0,0,0,1.926-.723,3.652,3.652,0,0,0,.6-2.332v-.273a4.3,4.3,0,0,0-.605-2.6A2.3,2.3,0,0,0,77.7,9.367a1.985,1.985,0,0,0-1.746.887,4.409,4.409,0,0,0-.605,2.5,4.227,4.227,0,0,0,.6,2.477A2.037,2.037,0,0,0,77.711,16.07ZM87.9,17.156A3.934,3.934,0,0,1,84.9,16a4.476,4.476,0,0,1-1.1-3.211A4.964,4.964,0,0,1,84.824,9.5a3.387,3.387,0,0,1,2.738-1.219A3.229,3.229,0,0,1,90.109,9.34a4.057,4.057,0,0,1,.938,2.793v.82h-5.9a3.394,3.394,0,0,0,.762,2.289,2.635,2.635,0,0,0,2.035.781,6.9,6.9,0,0,0,2.734-.578V16.6a6.863,6.863,0,0,1-1.3.426A7.31,7.31,0,0,1,87.9,17.156Zm-.352-7.789a2.118,2.118,0,0,0-1.645.672A3.1,3.1,0,0,0,85.18,11.9h4.477a2.851,2.851,0,0,0-.547-1.879A1.925,1.925,0,0,0,87.547,9.367Zm11.234,5.3a2.145,2.145,0,0,1-.891,1.844,4.186,4.186,0,0,1-2.5.648,5.436,5.436,0,0,1-2.656-.539v-1.2a6.424,6.424,0,0,0,1.324.492,5.53,5.53,0,0,0,1.363.18,3.092,3.092,0,0,0,1.563-.324,1.116,1.116,0,0,0,.113-1.844,6.82,6.82,0,0,0-1.691-.84,9.172,9.172,0,0,1-1.7-.777,2.321,2.321,0,0,1-.75-.754,1.966,1.966,0,0,1-.246-1.008,1.921,1.921,0,0,1,.852-1.652A3.968,3.968,0,0,1,95.9,8.281a6.835,6.835,0,0,1,2.7.563L98.141,9.9A6.2,6.2,0,0,0,95.8,9.367a2.687,2.687,0,0,0-1.391.289.894.894,0,0,0-.469.8.971.971,0,0,0,.176.586,1.735,1.735,0,0,0,.566.461,12.657,12.657,0,0,0,1.5.633,5.6,5.6,0,0,1,2.059,1.117A1.97,1.97,0,0,1,98.781,14.664Zm5.531,2.492a3.654,3.654,0,0,1-2.879-1.145,4.707,4.707,0,0,1-1.02-3.238,4.853,4.853,0,0,1,1.035-3.32A3.727,3.727,0,0,1,104.4,8.281a5.852,5.852,0,0,1,1.234.133,4.066,4.066,0,0,1,.969.313l-.4,1.1a6.1,6.1,0,0,0-.937-.285,4.186,4.186,0,0,0-.9-.113q-2.609,0-2.609,3.328a3.963,3.963,0,0,0,.637,2.422,2.215,2.215,0,0,0,1.887.844,5.769,5.769,0,0,0,2.2-.461v1.148A4.679,4.679,0,0,1,104.313,17.156Zm8.1-8.875a5.075,5.075,0,0,1,1.023.094l-.18,1.2a4.418,4.418,0,0,0-.937-.117,2.282,2.282,0,0,0-1.777.844,3.077,3.077,0,0,0-.738,2.1V17h-1.3V8.438h1.07l.148,1.586h.063a3.764,3.764,0,0,1,1.148-1.289A2.585,2.585,0,0,1,112.414,8.281ZM116.336,17h-1.3V8.438h1.3ZM114.93,6.117a.861.861,0,0,1,.219-.652.81.81,0,0,1,1.086,0,.846.846,0,0,1,.227.648.859.859,0,0,1-.227.652.794.794,0,0,1-1.086,0A.877.877,0,0,1,114.93,6.117Zm8.141,11.039a3.706,3.706,0,0,1-1.527-.309,2.872,2.872,0,0,1-1.16-.949h-.094a11.485,11.485,0,0,1,.094,1.422v3.523h-1.3V8.438h1.055l.18,1.172h.063a3.012,3.012,0,0,1,1.164-1.016,3.539,3.539,0,0,1,1.523-.312A3.165,3.165,0,0,1,125.7,9.445a5.125,5.125,0,0,1,.926,3.266,5.1,5.1,0,0,1-.941,3.277A3.17,3.17,0,0,1,123.07,17.156Zm-.187-7.773a2.3,2.3,0,0,0-1.9.727,3.739,3.739,0,0,0-.6,2.313v.289a4.285,4.285,0,0,0,.6,2.582,2.288,2.288,0,0,0,1.93.777,2.007,2.007,0,0,0,1.738-.9,4.26,4.26,0,0,0,.629-2.477,4.1,4.1,0,0,0-.629-2.457A2.069,2.069,0,0,0,122.883,9.383Zm9.43,7.773a3.654,3.654,0,0,1-2.879-1.145,4.707,4.707,0,0,1-1.02-3.238,4.853,4.853,0,0,1,1.035-3.32A3.727,3.727,0,0,1,132.4,8.281a5.852,5.852,0,0,1,1.234.133,4.066,4.066,0,0,1,.969.313l-.4,1.1a6.1,6.1,0,0,0-.937-.285,4.186,4.186,0,0,0-.9-.113q-2.609,0-2.609,3.328a3.963,3.963,0,0,0,.637,2.422,2.215,2.215,0,0,0,1.887.844,5.769,5.769,0,0,0,2.2-.461v1.148A4.679,4.679,0,0,1,132.313,17.156ZM137.8,17h-1.3V8.438h1.3ZM136.4,6.117a.861.861,0,0,1,.219-.652.81.81,0,0,1,1.086,0,.846.846,0,0,1,.227.648.859.859,0,0,1-.227.652.794.794,0,0,1-1.086,0A.877.877,0,0,1,136.4,6.117Zm11.547,6.594a4.724,4.724,0,0,1-1.055,3.27,3.714,3.714,0,0,1-2.914,1.176,3.86,3.86,0,0,1-2.039-.539,3.558,3.558,0,0,1-1.375-1.547,5.391,5.391,0,0,1-.484-2.359,4.716,4.716,0,0,1,1.047-3.262,3.7,3.7,0,0,1,2.906-1.168,3.622,3.622,0,0,1,2.855,1.2A4.7,4.7,0,0,1,147.945,12.711Zm-6.523,0a4.064,4.064,0,0,0,.656,2.5,2.6,2.6,0,0,0,3.863,0,4.043,4.043,0,0,0,.66-2.5,3.978,3.978,0,0,0-.66-2.48,2.32,2.32,0,0,0-1.949-.848,2.283,2.283,0,0,0-1.922.836A4.023,4.023,0,0,0,141.422,12.711Zm1.5-5.6q.375-.484.809-1.172a13.413,13.413,0,0,0,.684-1.2h1.578v.164a11.549,11.549,0,0,1-1.023,1.25,11.62,11.62,0,0,1-1.18,1.148h-.867ZM156.078,17V11.461A2.235,2.235,0,0,0,155.6,9.9a1.941,1.941,0,0,0-1.492-.516,2.461,2.461,0,0,0-1.969.727,3.668,3.668,0,0,0-.625,2.4V17h-1.3V8.438h1.055l.211,1.172h.063a2.648,2.648,0,0,1,1.117-.98,3.63,3.63,0,0,1,1.6-.348,3.252,3.252,0,0,1,2.328.746,3.175,3.175,0,0,1,.781,2.387V17Zm13.945-1.148h-.07a3.047,3.047,0,0,1-2.687,1.3,3.179,3.179,0,0,1-2.613-1.148,5.055,5.055,0,0,1-.934-3.266,5.141,5.141,0,0,1,.938-3.289,3.155,3.155,0,0,1,2.609-1.172,3.114,3.114,0,0,1,2.672,1.266h.1l-.055-.617-.031-.6V4.844h1.3V17H170.2Zm-2.594.219a2.361,2.361,0,0,0,1.926-.723,3.652,3.652,0,0,0,.6-2.332v-.273a4.3,4.3,0,0,0-.605-2.6,2.3,2.3,0,0,0-1.934-.777,1.985,1.985,0,0,0-1.746.887,4.409,4.409,0,0,0-.605,2.5,4.227,4.227,0,0,0,.6,2.477A2.037,2.037,0,0,0,167.43,16.07Zm10.188,1.086a3.934,3.934,0,0,1-3-1.156,4.476,4.476,0,0,1-1.1-3.211,4.964,4.964,0,0,1,1.02-3.289,3.387,3.387,0,0,1,2.738-1.219,3.229,3.229,0,0,1,2.547,1.059,4.057,4.057,0,0,1,.938,2.793v.82h-5.9a3.394,3.394,0,0,0,.762,2.289,2.634,2.634,0,0,0,2.035.781,6.9,6.9,0,0,0,2.734-.578V16.6a6.863,6.863,0,0,1-1.3.426A7.31,7.31,0,0,1,177.617,17.156Zm-.352-7.789a2.118,2.118,0,0,0-1.645.672A3.1,3.1,0,0,0,174.9,11.9h4.477a2.851,2.851,0,0,0-.547-1.879A1.925,1.925,0,0,0,177.266,9.367ZM184.273,17h-1.3V4.844h1.3Zm17.82,0V11.43a2.312,2.312,0,0,0-.437-1.535,1.692,1.692,0,0,0-1.359-.512,2.195,2.195,0,0,0-1.789.7,3.3,3.3,0,0,0-.578,2.141V17h-1.3V11.43a2.312,2.312,0,0,0-.437-1.535,1.7,1.7,0,0,0-1.367-.512,2.118,2.118,0,0,0-1.785.73,3.953,3.953,0,0,0-.566,2.395V17h-1.3V8.438h1.055l.211,1.172h.063a2.549,2.549,0,0,1,1.035-.977,3.163,3.163,0,0,1,1.5-.352,2.544,2.544,0,0,1,2.625,1.453h.063a2.73,2.73,0,0,1,1.109-1.062,3.442,3.442,0,0,1,1.656-.391,2.9,2.9,0,0,1,2.176.746,3.338,3.338,0,0,1,.723,2.387V17Zm11.359-4.289a4.724,4.724,0,0,1-1.055,3.27,3.714,3.714,0,0,1-2.914,1.176,3.86,3.86,0,0,1-2.039-.539,3.558,3.558,0,0,1-1.375-1.547,5.391,5.391,0,0,1-.484-2.359,4.716,4.716,0,0,1,1.047-3.262,3.7,3.7,0,0,1,2.906-1.168,3.622,3.622,0,0,1,2.855,1.2A4.7,4.7,0,0,1,213.453,12.711Zm-6.523,0a4.064,4.064,0,0,0,.656,2.5,2.6,2.6,0,0,0,3.863,0,4.043,4.043,0,0,0,.66-2.5,3.978,3.978,0,0,0-.66-2.48,2.32,2.32,0,0,0-1.949-.848,2.283,2.283,0,0,0-1.922.836A4.023,4.023,0,0,0,206.93,12.711Zm14.625,3.141h-.07a3.047,3.047,0,0,1-2.687,1.3,3.179,3.179,0,0,1-2.613-1.148,5.055,5.055,0,0,1-.934-3.266,5.141,5.141,0,0,1,.938-3.289A3.155,3.155,0,0,1,218.8,8.281a3.114,3.114,0,0,1,2.672,1.266h.1l-.055-.617-.031-.6V4.844h1.3V17h-1.055Zm-2.594.219a2.361,2.361,0,0,0,1.926-.723,3.652,3.652,0,0,0,.6-2.332v-.273a4.3,4.3,0,0,0-.605-2.6,2.3,2.3,0,0,0-1.934-.777,1.985,1.985,0,0,0-1.746.887,4.409,4.409,0,0,0-.605,2.5,4.227,4.227,0,0,0,.6,2.477A2.037,2.037,0,0,0,218.961,16.07ZM230.8,17l-.258-1.219h-.062a3.6,3.6,0,0,1-1.277,1.09,3.893,3.893,0,0,1-1.59.285,2.86,2.86,0,0,1-2-.656,2.394,2.394,0,0,1-.723-1.867q0-2.594,4.148-2.719l1.453-.047v-.531a2.171,2.171,0,0,0-.434-1.488,1.783,1.783,0,0,0-1.387-.48,5.65,5.65,0,0,0-2.422.656l-.4-.992a6.094,6.094,0,0,1,1.387-.539,6.006,6.006,0,0,1,1.512-.2,3.262,3.262,0,0,1,2.27.68,2.837,2.837,0,0,1,.738,2.18V17Zm-2.93-.914a2.632,2.632,0,0,0,1.9-.664,2.457,2.457,0,0,0,.691-1.859v-.773l-1.3.055a4.717,4.717,0,0,0-2.23.48,1.449,1.449,0,0,0-.684,1.324,1.336,1.336,0,0,0,.426,1.07A1.767,1.767,0,0,0,227.867,16.086Zm7.859.914h-1.3V4.844h1.3Zm2.563-.828a1.164,1.164,0,0,1,.238-.793.864.864,0,0,1,.684-.27.924.924,0,0,1,.707.27,1.116,1.116,0,0,1,.254.793,1.1,1.1,0,0,1-.258.781,1.025,1.025,0,0,1-1.363.027A1.07,1.07,0,0,1,238.289,16.172Z" transform="translate(723 706)" fill="#38485c"/>
    <g id="Rectángulo_8961" data-name="Rectángulo 8961" transform="translate(720.248 728.867) rotate(-90)" fill="rgba(158,170,184,0.24)" stroke="#9eaab8" stroke-width="1" stroke-dasharray="5 5">
      <rect width="20" height="294.687" stroke="none"/>
      <rect x="0.5" y="0.5" width="19" height="293.687" fill="none"/>
    </g>
    <g id="Rectángulo_8967" data-name="Rectángulo 8967" transform="translate(804.899 796) rotate(-90)" fill="rgba(158,170,184,0.24)" stroke="#9eaab8" stroke-width="1" stroke-dasharray="5 5">
      <rect width="38" height="210" stroke="none"/>
      <rect x="0.5" y="0.5" width="37" height="209" fill="none"/>
    </g>
    <g id="Rectángulo_8940" data-name="Rectángulo 8940" transform="translate(720 668) rotate(-90)" fill="rgba(56,72,92,0.25)" stroke="#38485c" stroke-width="1" stroke-dasharray="5 5">
      <rect width="28" height="295" stroke="none"/>
      <rect x="0.5" y="0.5" width="27" height="294" fill="none"/>
    </g>
    <path id="Trazado_23950" data-name="Trazado 23950" d="M11.44-1.232a.985.985,0,0,1,.1.416.8.8,0,0,1-.3.624,1.009,1.009,0,0,1-.68.256.909.909,0,0,1-.48-.136A.907.907,0,0,1,9.728-.5L8.768-2.64H3.136L2.176-.5a.907.907,0,0,1-.352.424.937.937,0,0,1-.5.136A1.019,1.019,0,0,1,.656-.192a.787.787,0,0,1-.3-.624.985.985,0,0,1,.1-.416L4.864-10.72a1.032,1.032,0,0,1,.44-.488,1.26,1.26,0,0,1,.632-.168,1.26,1.26,0,0,1,.632.168,1.032,1.032,0,0,1,.44.488ZM8.064-4.24,5.952-8.992,3.84-4.24ZM6.192-12.224a.568.568,0,0,1-.256.064.494.494,0,0,1-.352-.136.418.418,0,0,1-.144-.312.507.507,0,0,1,.176-.352l1.456-1.5a.928.928,0,0,1,.688-.32.754.754,0,0,1,.552.232.736.736,0,0,1,.232.536.682.682,0,0,1-.136.4A1.141,1.141,0,0,1,8-13.28Zm11.072,4.24a.861.861,0,0,1,.656.176.781.781,0,0,1,.24.624.872.872,0,0,1-.208.64,1.278,1.278,0,0,1-.752.272l-.48.048a1.944,1.944,0,0,0-1.384.64,2.093,2.093,0,0,0-.44,1.36v3.36a.888.888,0,0,1-.288.712,1.064,1.064,0,0,1-.72.248,1.034,1.034,0,0,1-.712-.248.9.9,0,0,1-.28-.712V-7.056a.856.856,0,0,1,.28-.688,1.032,1.032,0,0,1,.7-.24.962.962,0,0,1,.672.232.85.85,0,0,1,.256.664v.64a2.368,2.368,0,0,1,.9-1.088,2.771,2.771,0,0,1,1.336-.432Zm7.776,5.84a.538.538,0,0,1,.44.208.865.865,0,0,1,.168.56.97.97,0,0,1-.592.832,5.349,5.349,0,0,1-1.232.488,5.079,5.079,0,0,1-1.312.184A4.077,4.077,0,0,1,19.52-.96a3.988,3.988,0,0,1-1.1-2.976,4.566,4.566,0,0,1,.48-2.128A3.49,3.49,0,0,1,20.248-7.5a3.829,3.829,0,0,1,1.976-.512,3.546,3.546,0,0,1,1.84.464A3.146,3.146,0,0,1,25.28-6.24a4.353,4.353,0,0,1,.432,2q0,.688-.608.688h-4.72a2.517,2.517,0,0,0,.624,1.624,2.1,2.1,0,0,0,1.536.52,2.913,2.913,0,0,0,.9-.128,8.923,8.923,0,0,0,.888-.352A1.766,1.766,0,0,1,25.04-2.144ZM22.272-6.608a1.717,1.717,0,0,0-1.3.512,2.417,2.417,0,0,0-.584,1.472H24a2.281,2.281,0,0,0-.48-1.48A1.583,1.583,0,0,0,22.272-6.608ZM30.72-8.016a3.259,3.259,0,0,1,2.424.808,3.383,3.383,0,0,1,.792,2.456v3.9a.9.9,0,0,1-.256.68.969.969,0,0,1-.7.248.936.936,0,0,1-.68-.256.894.894,0,0,1-.264-.672V-1.2a2.088,2.088,0,0,1-.856.976,2.568,2.568,0,0,1-1.352.352A3.139,3.139,0,0,1,28.4-.192a2.533,2.533,0,0,1-1.008-.88,2.224,2.224,0,0,1-.368-1.248,1.977,1.977,0,0,1,.44-1.36A2.644,2.644,0,0,1,28.9-4.4a13.041,13.041,0,0,1,2.736-.224h.4v-.368A1.638,1.638,0,0,0,31.7-6.136a1.43,1.43,0,0,0-1.088-.36,3.452,3.452,0,0,0-.944.136q-.48.136-1.136.392a1.6,1.6,0,0,1-.608.208.6.6,0,0,1-.472-.208.791.791,0,0,1-.184-.544.819.819,0,0,1,.136-.472,1.291,1.291,0,0,1,.456-.376,5.215,5.215,0,0,1,1.336-.48A6.893,6.893,0,0,1,30.72-8.016Zm-.5,6.7a1.709,1.709,0,0,0,1.3-.536,1.939,1.939,0,0,0,.5-1.384v-.336h-.288a11.038,11.038,0,0,0-1.664.1,1.616,1.616,0,0,0-.848.336.856.856,0,0,0-.256.656,1.085,1.085,0,0,0,.36.84A1.27,1.27,0,0,0,30.224-1.312ZM7.568,6.64A1.066,1.066,0,0,1,8.3,6.9a.856.856,0,0,1,.288.672v9.568a.9.9,0,0,1-.272.688,1.008,1.008,0,0,1-.72.256,1.008,1.008,0,0,1-.72-.256.9.9,0,0,1-.272-.688v-.4A2.5,2.5,0,0,1,5.592,17.76a3.066,3.066,0,0,1-1.512.368,3.243,3.243,0,0,1-1.8-.512,3.4,3.4,0,0,1-1.232-1.448,5,5,0,0,1-.44-2.152,4.845,4.845,0,0,1,.44-2.128A3.333,3.333,0,0,1,2.272,10.48a3.309,3.309,0,0,1,1.808-.5,3.131,3.131,0,0,1,1.5.352,2.442,2.442,0,0,1,1.008.992V7.536a.848.848,0,0,1,.264-.648A1,1,0,0,1,7.568,6.64Zm-2.96,9.936a1.779,1.779,0,0,0,1.48-.656,2.952,2.952,0,0,0,.52-1.872,2.917,2.917,0,0,0-.52-1.864,1.77,1.77,0,0,0-1.464-.648,1.821,1.821,0,0,0-1.488.64,2.823,2.823,0,0,0-.528,1.84A2.989,2.989,0,0,0,3.136,15.9,1.766,1.766,0,0,0,4.608,16.576Zm12.224-.72a.538.538,0,0,1,.44.208.865.865,0,0,1,.168.56.97.97,0,0,1-.592.832,5.349,5.349,0,0,1-1.232.488,5.079,5.079,0,0,1-1.312.184,4.077,4.077,0,0,1-2.992-1.088,3.988,3.988,0,0,1-1.1-2.976,4.566,4.566,0,0,1,.48-2.128A3.49,3.49,0,0,1,12.04,10.5a3.829,3.829,0,0,1,1.976-.512,3.546,3.546,0,0,1,1.84.464,3.146,3.146,0,0,1,1.216,1.312,4.353,4.353,0,0,1,.432,2q0,.688-.608.688h-4.72a2.517,2.517,0,0,0,.624,1.624,2.1,2.1,0,0,0,1.536.52,2.913,2.913,0,0,0,.9-.128,8.923,8.923,0,0,0,.888-.352A1.766,1.766,0,0,1,16.832,15.856Zm-2.768-4.464a1.717,1.717,0,0,0-1.3.512,2.417,2.417,0,0,0-.584,1.472h3.616a2.281,2.281,0,0,0-.48-1.48A1.583,1.583,0,0,0,14.064,11.392Zm7.888,6.736a5.144,5.144,0,0,1-2.816-.688.954.954,0,0,1-.512-.864.758.758,0,0,1,.176-.52.554.554,0,0,1,.432-.2,1.767,1.767,0,0,1,.752.256,7,7,0,0,0,.936.368,3.812,3.812,0,0,0,1.08.128,2.054,2.054,0,0,0,1.048-.224.694.694,0,0,0,.376-.624.6.6,0,0,0-.152-.432,1.394,1.394,0,0,0-.544-.3,11.439,11.439,0,0,0-1.192-.312A4.58,4.58,0,0,1,19.5,13.9a1.816,1.816,0,0,1-.616-1.456,2.1,2.1,0,0,1,.416-1.272,2.7,2.7,0,0,1,1.144-.88A4.168,4.168,0,0,1,22.1,9.984a4.963,4.963,0,0,1,1.3.168,3.94,3.94,0,0,1,1.12.488.966.966,0,0,1,.512.848.821.821,0,0,1-.176.536.538.538,0,0,1-.432.216.865.865,0,0,1-.344-.072,4.616,4.616,0,0,1-.424-.216,6.709,6.709,0,0,0-.8-.36,2.5,2.5,0,0,0-.832-.12,1.611,1.611,0,0,0-.936.24.758.758,0,0,0-.344.656.666.666,0,0,0,.352.608,5.041,5.041,0,0,0,1.36.416,7.76,7.76,0,0,1,1.68.512,1.968,1.968,0,0,1,.872.72,2.089,2.089,0,0,1,.264,1.1,2.052,2.052,0,0,1-.9,1.744A4.013,4.013,0,0,1,21.952,18.128Zm8.384,0a4.146,4.146,0,0,1-2.056-.5,3.381,3.381,0,0,1-1.368-1.408,4.505,4.505,0,0,1-.48-2.128,4.468,4.468,0,0,1,.5-2.152A3.56,3.56,0,0,1,28.352,10.5a4.208,4.208,0,0,1,2.1-.512,4.665,4.665,0,0,1,1.256.176,4.143,4.143,0,0,1,1.112.48.99.99,0,0,1,.512.848.9.9,0,0,1-.168.568.531.531,0,0,1-.44.216.956.956,0,0,1-.368-.08A3.222,3.222,0,0,1,31.968,12a4.3,4.3,0,0,0-.672-.328,2.088,2.088,0,0,0-.736-.12,1.871,1.871,0,0,0-1.528.648,2.855,2.855,0,0,0-.536,1.864,2.827,2.827,0,0,0,.536,1.848,1.871,1.871,0,0,0,1.528.648,1.973,1.973,0,0,0,.712-.12,6.031,6.031,0,0,0,.7-.328,3.168,3.168,0,0,1,.416-.216.923.923,0,0,1,.352-.072.531.531,0,0,1,.432.224.879.879,0,0,1,.176.56.9.9,0,0,1-.12.472,1.081,1.081,0,0,1-.392.36,4.207,4.207,0,0,1-1.152.5A4.953,4.953,0,0,1,30.336,18.128Zm8.688-8.112a.861.861,0,0,1,.656.176.781.781,0,0,1,.24.624.872.872,0,0,1-.208.64,1.278,1.278,0,0,1-.752.272l-.48.048a1.944,1.944,0,0,0-1.384.64,2.093,2.093,0,0,0-.44,1.36v3.36a.888.888,0,0,1-.288.712,1.064,1.064,0,0,1-.72.248,1.034,1.034,0,0,1-.712-.248.9.9,0,0,1-.28-.712V10.944a.856.856,0,0,1,.28-.688,1.032,1.032,0,0,1,.7-.24.962.962,0,0,1,.672.232.85.85,0,0,1,.256.664v.64a2.368,2.368,0,0,1,.9-1.088,2.772,2.772,0,0,1,1.336-.432ZM41.76,18.1a1.034,1.034,0,0,1-.712-.248.9.9,0,0,1-.28-.712V10.96a.876.876,0,0,1,.28-.7,1.055,1.055,0,0,1,.712-.24,1.087,1.087,0,0,1,.72.24.864.864,0,0,1,.288.7v6.176a.888.888,0,0,1-.288.712A1.064,1.064,0,0,1,41.76,18.1Zm0-9.5a1.222,1.222,0,0,1-.864-.3,1.008,1.008,0,0,1-.32-.776.983.983,0,0,1,.32-.768,1.428,1.428,0,0,1,1.72,0,.971.971,0,0,1,.328.768,1.008,1.008,0,0,1-.32.776A1.222,1.222,0,0,1,41.76,8.592Zm7.552,1.392a3.243,3.243,0,0,1,1.8.512,3.4,3.4,0,0,1,1.232,1.448,5,5,0,0,1,.44,2.152,4.845,4.845,0,0,1-.44,2.128,3.23,3.23,0,0,1-3.032,1.9,3.1,3.1,0,0,1-1.488-.352,2.47,2.47,0,0,1-1.008-.976v3.264a.83.83,0,0,1-.272.656,1.048,1.048,0,0,1-.72.24A1.037,1.037,0,0,1,45.1,20.7a.868.868,0,0,1-.28-.672V10.96a.914.914,0,0,1,.264-.688.979.979,0,0,1,.712-.256,1.008,1.008,0,0,1,.72.256.9.9,0,0,1,.272.688v.4A2.455,2.455,0,0,1,47.8,10.344,3.121,3.121,0,0,1,49.312,9.984Zm-.528,6.592a1.793,1.793,0,0,0,1.472-.648,2.829,2.829,0,0,0,.528-1.832,2.989,2.989,0,0,0-.528-1.888,1.973,1.973,0,0,0-2.952-.016,2.952,2.952,0,0,0-.52,1.872,2.923,2.923,0,0,0,.52,1.856A1.779,1.779,0,0,0,48.784,16.576Zm9.648.032q.8.048.8.72a.651.651,0,0,1-.312.584,1.489,1.489,0,0,1-.888.168l-.432-.032a2.574,2.574,0,0,1-2.688-2.88V11.68h-.8a1.016,1.016,0,0,1-.664-.192.792.792,0,0,1,0-1.12,1.016,1.016,0,0,1,.664-.192h.8V8.7a.9.9,0,0,1,.272-.688,1.03,1.03,0,0,1,.736-.256,1.008,1.008,0,0,1,.72.256.9.9,0,0,1,.272.688v1.472h1.36a1.016,1.016,0,0,1,.664.192.792.792,0,0,1,0,1.12,1.016,1.016,0,0,1-.664.192h-1.36v3.632q0,1.184,1.088,1.264ZM61.248,18.1a1.034,1.034,0,0,1-.712-.248.9.9,0,0,1-.28-.712V10.96a.876.876,0,0,1,.28-.7,1.055,1.055,0,0,1,.712-.24,1.087,1.087,0,0,1,.72.24.864.864,0,0,1,.288.7v6.176a.888.888,0,0,1-.288.712A1.064,1.064,0,0,1,61.248,18.1Zm0-9.5a1.222,1.222,0,0,1-.864-.3,1.008,1.008,0,0,1-.32-.776.983.983,0,0,1,.32-.768,1.428,1.428,0,0,1,1.72,0,.971.971,0,0,1,.328.768,1.008,1.008,0,0,1-.32.776A1.222,1.222,0,0,1,61.248,8.592Zm8.512,2a.979.979,0,0,1,.344-.432.834.834,0,0,1,.472-.144,1.008,1.008,0,0,1,.664.248.772.772,0,0,1,.3.616.852.852,0,0,1-.1.384l-2.96,6.192a1.053,1.053,0,0,1-.408.464,1.105,1.105,0,0,1-.584.16,1.161,1.161,0,0,1-.584-.16,1.025,1.025,0,0,1-.424-.464L63.5,11.264a.812.812,0,0,1-.08-.368.78.78,0,0,1,.312-.624,1.091,1.091,0,0,1,.712-.256.892.892,0,0,1,.848.56l2.24,4.944Zm6.224-.608a3.259,3.259,0,0,1,2.424.808,3.383,3.383,0,0,1,.792,2.456v3.9a.9.9,0,0,1-.256.68.969.969,0,0,1-.7.248.936.936,0,0,1-.68-.256.894.894,0,0,1-.264-.672V16.8a2.088,2.088,0,0,1-.856.976,2.568,2.568,0,0,1-1.352.352,3.139,3.139,0,0,1-1.424-.32,2.533,2.533,0,0,1-1.008-.88,2.224,2.224,0,0,1-.368-1.248,1.977,1.977,0,0,1,.44-1.36,2.644,2.644,0,0,1,1.432-.72,13.041,13.041,0,0,1,2.736-.224h.4v-.368a1.638,1.638,0,0,0-.336-1.144,1.43,1.43,0,0,0-1.088-.36,3.452,3.452,0,0,0-.944.136q-.48.136-1.136.392a1.6,1.6,0,0,1-.608.208.6.6,0,0,1-.472-.208.791.791,0,0,1-.184-.544.819.819,0,0,1,.136-.472,1.291,1.291,0,0,1,.456-.376,5.215,5.215,0,0,1,1.336-.48A6.893,6.893,0,0,1,75.984,9.984Zm-.5,6.7a1.709,1.709,0,0,0,1.3-.536,1.939,1.939,0,0,0,.5-1.384v-.336h-.288a11.038,11.038,0,0,0-1.664.1,1.615,1.615,0,0,0-.848.336.856.856,0,0,0-.256.656,1.085,1.085,0,0,0,.36.84A1.27,1.27,0,0,0,75.488,16.688Z" transform="translate(1074 714.783)" fill="#38485c"/>
    <g id="Grupo_18198" data-name="Grupo 18198" transform="translate(1059 800.57) rotate(-90)">
      <line id="Línea_114-3" data-name="Línea 114" x2="31.787" transform="translate(0 3.034)" fill="none" stroke="#38485c" stroke-linecap="round" stroke-width="1"/>
      <path id="Trazado_4671-3" data-name="Trazado 4671" d="M0,0V3.033" transform="translate(31.787 3.034) rotate(180)" fill="none" stroke="#38485c" stroke-linecap="round" stroke-width="1"/>
      <path id="Trazado_20265-3" data-name="Trazado 20265" d="M0,0V3.033" transform="translate(-0.213 3.033) rotate(180)" fill="none" stroke="#38485c" stroke-linecap="round" stroke-width="1"/>
    </g>
    <path id="Trazado_23951" data-name="Trazado 23951" d="M11.44-1.232a.985.985,0,0,1,.1.416.8.8,0,0,1-.3.624,1.009,1.009,0,0,1-.68.256.909.909,0,0,1-.48-.136A.907.907,0,0,1,9.728-.5L8.768-2.64H3.136L2.176-.5a.907.907,0,0,1-.352.424.937.937,0,0,1-.5.136A1.019,1.019,0,0,1,.656-.192a.787.787,0,0,1-.3-.624.985.985,0,0,1,.1-.416L4.864-10.72a1.032,1.032,0,0,1,.44-.488,1.26,1.26,0,0,1,.632-.168,1.26,1.26,0,0,1,.632.168,1.032,1.032,0,0,1,.44.488ZM8.064-4.24,5.952-8.992,3.84-4.24ZM6.192-12.224a.568.568,0,0,1-.256.064.494.494,0,0,1-.352-.136.418.418,0,0,1-.144-.312.507.507,0,0,1,.176-.352l1.456-1.5a.928.928,0,0,1,.688-.32.754.754,0,0,1,.552.232.736.736,0,0,1,.232.536.682.682,0,0,1-.136.4A1.141,1.141,0,0,1,8-13.28Zm11.072,4.24a.861.861,0,0,1,.656.176.781.781,0,0,1,.24.624.872.872,0,0,1-.208.64,1.278,1.278,0,0,1-.752.272l-.48.048a1.944,1.944,0,0,0-1.384.64,2.093,2.093,0,0,0-.44,1.36v3.36a.888.888,0,0,1-.288.712,1.064,1.064,0,0,1-.72.248,1.034,1.034,0,0,1-.712-.248.9.9,0,0,1-.28-.712V-7.056a.856.856,0,0,1,.28-.688,1.032,1.032,0,0,1,.7-.24.962.962,0,0,1,.672.232.85.85,0,0,1,.256.664v.64a2.368,2.368,0,0,1,.9-1.088,2.771,2.771,0,0,1,1.336-.432Zm7.776,5.84a.538.538,0,0,1,.44.208.865.865,0,0,1,.168.56.97.97,0,0,1-.592.832,5.349,5.349,0,0,1-1.232.488,5.079,5.079,0,0,1-1.312.184A4.077,4.077,0,0,1,19.52-.96a3.988,3.988,0,0,1-1.1-2.976,4.566,4.566,0,0,1,.48-2.128A3.49,3.49,0,0,1,20.248-7.5a3.829,3.829,0,0,1,1.976-.512,3.546,3.546,0,0,1,1.84.464A3.146,3.146,0,0,1,25.28-6.24a4.353,4.353,0,0,1,.432,2q0,.688-.608.688h-4.72a2.517,2.517,0,0,0,.624,1.624,2.1,2.1,0,0,0,1.536.52,2.913,2.913,0,0,0,.9-.128,8.923,8.923,0,0,0,.888-.352A1.766,1.766,0,0,1,25.04-2.144ZM22.272-6.608a1.717,1.717,0,0,0-1.3.512,2.417,2.417,0,0,0-.584,1.472H24a2.281,2.281,0,0,0-.48-1.48A1.583,1.583,0,0,0,22.272-6.608ZM30.72-8.016a3.259,3.259,0,0,1,2.424.808,3.383,3.383,0,0,1,.792,2.456v3.9a.9.9,0,0,1-.256.68.969.969,0,0,1-.7.248.936.936,0,0,1-.68-.256.894.894,0,0,1-.264-.672V-1.2a2.088,2.088,0,0,1-.856.976,2.568,2.568,0,0,1-1.352.352A3.139,3.139,0,0,1,28.4-.192a2.533,2.533,0,0,1-1.008-.88,2.224,2.224,0,0,1-.368-1.248,1.977,1.977,0,0,1,.44-1.36A2.644,2.644,0,0,1,28.9-4.4a13.041,13.041,0,0,1,2.736-.224h.4v-.368A1.638,1.638,0,0,0,31.7-6.136a1.43,1.43,0,0,0-1.088-.36,3.452,3.452,0,0,0-.944.136q-.48.136-1.136.392a1.6,1.6,0,0,1-.608.208.6.6,0,0,1-.472-.208.791.791,0,0,1-.184-.544.819.819,0,0,1,.136-.472,1.291,1.291,0,0,1,.456-.376,5.215,5.215,0,0,1,1.336-.48A6.893,6.893,0,0,1,30.72-8.016Zm-.5,6.7a1.709,1.709,0,0,0,1.3-.536,1.939,1.939,0,0,0,.5-1.384v-.336h-.288a11.038,11.038,0,0,0-1.664.1,1.616,1.616,0,0,0-.848.336.856.856,0,0,0-.256.656,1.085,1.085,0,0,0,.36.84A1.27,1.27,0,0,0,30.224-1.312ZM4.432,9.984a3.259,3.259,0,0,1,2.424.808,3.383,3.383,0,0,1,.792,2.456v3.9a.9.9,0,0,1-.256.68.969.969,0,0,1-.7.248.936.936,0,0,1-.68-.256.894.894,0,0,1-.264-.672V16.8a2.088,2.088,0,0,1-.856.976,2.568,2.568,0,0,1-1.352.352,3.139,3.139,0,0,1-1.424-.32,2.533,2.533,0,0,1-1.008-.88A2.224,2.224,0,0,1,.736,15.68a1.977,1.977,0,0,1,.44-1.36,2.644,2.644,0,0,1,1.432-.72,13.041,13.041,0,0,1,2.736-.224h.4v-.368a1.638,1.638,0,0,0-.336-1.144A1.43,1.43,0,0,0,4.32,11.5a3.452,3.452,0,0,0-.944.136q-.48.136-1.136.392a1.6,1.6,0,0,1-.608.208.6.6,0,0,1-.472-.208.791.791,0,0,1-.184-.544.819.819,0,0,1,.136-.472,1.291,1.291,0,0,1,.456-.376A5.215,5.215,0,0,1,2.9,10.16,6.893,6.893,0,0,1,4.432,9.984Zm-.5,6.7a1.709,1.709,0,0,0,1.3-.536,1.939,1.939,0,0,0,.5-1.384v-.336H5.456a11.038,11.038,0,0,0-1.664.1,1.616,1.616,0,0,0-.848.336.856.856,0,0,0-.256.656,1.085,1.085,0,0,0,.36.84A1.27,1.27,0,0,0,3.936,16.688Zm9.2,1.44a4.146,4.146,0,0,1-2.056-.5,3.381,3.381,0,0,1-1.368-1.408,4.505,4.505,0,0,1-.48-2.128,4.468,4.468,0,0,1,.5-2.152A3.56,3.56,0,0,1,11.152,10.5a4.208,4.208,0,0,1,2.1-.512,4.665,4.665,0,0,1,1.256.176,4.143,4.143,0,0,1,1.112.48.99.99,0,0,1,.512.848.9.9,0,0,1-.168.568.531.531,0,0,1-.44.216.956.956,0,0,1-.368-.08A3.223,3.223,0,0,1,14.768,12a4.3,4.3,0,0,0-.672-.328,2.088,2.088,0,0,0-.736-.12,1.871,1.871,0,0,0-1.528.648,2.855,2.855,0,0,0-.536,1.864,2.827,2.827,0,0,0,.536,1.848,1.871,1.871,0,0,0,1.528.648,1.973,1.973,0,0,0,.712-.12,6.031,6.031,0,0,0,.7-.328,3.168,3.168,0,0,1,.416-.216.923.923,0,0,1,.352-.072.531.531,0,0,1,.432.224.879.879,0,0,1,.176.56.9.9,0,0,1-.12.472,1.081,1.081,0,0,1-.392.36,4.207,4.207,0,0,1-1.152.5A4.953,4.953,0,0,1,13.136,18.128Zm7.792,0a4.146,4.146,0,0,1-2.056-.5A3.381,3.381,0,0,1,17.5,16.224a4.505,4.505,0,0,1-.48-2.128,4.468,4.468,0,0,1,.5-2.152A3.56,3.56,0,0,1,18.944,10.5a4.208,4.208,0,0,1,2.1-.512,4.665,4.665,0,0,1,1.256.176,4.143,4.143,0,0,1,1.112.48.99.99,0,0,1,.512.848.9.9,0,0,1-.168.568.531.531,0,0,1-.44.216.956.956,0,0,1-.368-.08A3.223,3.223,0,0,1,22.56,12a4.3,4.3,0,0,0-.672-.328,2.088,2.088,0,0,0-.736-.12,1.871,1.871,0,0,0-1.528.648,2.855,2.855,0,0,0-.536,1.864,2.827,2.827,0,0,0,.536,1.848,1.871,1.871,0,0,0,1.528.648,1.973,1.973,0,0,0,.712-.12,6.031,6.031,0,0,0,.7-.328,3.168,3.168,0,0,1,.416-.216.923.923,0,0,1,.352-.072.531.531,0,0,1,.432.224.879.879,0,0,1,.176.56.9.9,0,0,1-.12.472,1.081,1.081,0,0,1-.392.36,4.207,4.207,0,0,1-1.152.5A4.953,4.953,0,0,1,20.928,18.128ZM26.24,18.1a1.034,1.034,0,0,1-.712-.248.9.9,0,0,1-.28-.712V10.96a.876.876,0,0,1,.28-.7,1.055,1.055,0,0,1,.712-.24,1.087,1.087,0,0,1,.72.24.864.864,0,0,1,.288.7v6.176a.888.888,0,0,1-.288.712A1.064,1.064,0,0,1,26.24,18.1Zm0-9.5a1.222,1.222,0,0,1-.864-.3,1.008,1.008,0,0,1-.32-.776.983.983,0,0,1,.32-.768,1.428,1.428,0,0,1,1.72,0,.971.971,0,0,1,.328.768,1.008,1.008,0,0,1-.32.776A1.222,1.222,0,0,1,26.24,8.592Zm6.624,9.536a4.3,4.3,0,0,1-2.1-.5,3.432,3.432,0,0,1-1.4-1.424,4.515,4.515,0,0,1-.5-2.16,4.468,4.468,0,0,1,.5-2.152,3.444,3.444,0,0,1,1.4-1.416,4.711,4.711,0,0,1,4.208,0A3.394,3.394,0,0,1,36.36,11.9a4.527,4.527,0,0,1,.488,2.152,4.575,4.575,0,0,1-.488,2.16,3.382,3.382,0,0,1-1.392,1.424A4.3,4.3,0,0,1,32.864,18.128Zm-.016-1.552a1.793,1.793,0,0,0,1.488-.64,2.973,2.973,0,0,0,.512-1.888,2.979,2.979,0,0,0-.512-1.88,1.765,1.765,0,0,0-1.472-.648,1.788,1.788,0,0,0-1.48.648,2.946,2.946,0,0,0-.52,1.88,2.973,2.973,0,0,0,.512,1.888A1.775,1.775,0,0,0,32.848,16.576ZM43.024,9.984a2.615,2.615,0,0,1,2.1.8,3.628,3.628,0,0,1,.688,2.416v3.936a.935.935,0,0,1-.264.7,1,1,0,0,1-.728.256,1.03,1.03,0,0,1-.736-.256.92.92,0,0,1-.272-.7V13.312a2.074,2.074,0,0,0-.344-1.328,1.322,1.322,0,0,0-1.08-.416A1.826,1.826,0,0,0,41,12.112a2.019,2.019,0,0,0-.52,1.456v3.568a.92.92,0,0,1-.272.7,1.03,1.03,0,0,1-.736.256,1,1,0,0,1-.728-.256.935.935,0,0,1-.264-.7V10.944a.88.88,0,0,1,.272-.672,1.03,1.03,0,0,1,.736-.256.953.953,0,0,1,.68.248.848.848,0,0,1,.264.648v.432A2.706,2.706,0,0,1,41.5,10.336,3.226,3.226,0,0,1,43.024,9.984Zm8.192,0a3.259,3.259,0,0,1,2.424.808,3.383,3.383,0,0,1,.792,2.456v3.9a.9.9,0,0,1-.256.68.969.969,0,0,1-.7.248.936.936,0,0,1-.68-.256.894.894,0,0,1-.264-.672V16.8a2.088,2.088,0,0,1-.856.976,2.568,2.568,0,0,1-1.352.352,3.139,3.139,0,0,1-1.424-.32,2.533,2.533,0,0,1-1.008-.88,2.224,2.224,0,0,1-.368-1.248,1.977,1.977,0,0,1,.44-1.36,2.644,2.644,0,0,1,1.432-.72,13.041,13.041,0,0,1,2.736-.224h.4v-.368a1.638,1.638,0,0,0-.336-1.144A1.43,1.43,0,0,0,51.1,11.5a3.452,3.452,0,0,0-.944.136q-.48.136-1.136.392a1.6,1.6,0,0,1-.608.208.6.6,0,0,1-.472-.208.791.791,0,0,1-.184-.544.819.819,0,0,1,.136-.472,1.291,1.291,0,0,1,.456-.376,5.215,5.215,0,0,1,1.336-.48A6.893,6.893,0,0,1,51.216,9.984Zm-.5,6.7a1.709,1.709,0,0,0,1.3-.536,1.939,1.939,0,0,0,.5-1.384v-.336H52.24a11.038,11.038,0,0,0-1.664.1,1.616,1.616,0,0,0-.848.336.856.856,0,0,0-.256.656,1.085,1.085,0,0,0,.36.84A1.27,1.27,0,0,0,50.72,16.688Zm10.224-6.7a3.23,3.23,0,0,1,3.032,1.9,4.845,4.845,0,0,1,.44,2.128,5,5,0,0,1-.44,2.152,3.4,3.4,0,0,1-1.232,1.448,3.243,3.243,0,0,1-1.8.512,3.066,3.066,0,0,1-1.512-.368,2.5,2.5,0,0,1-1.016-1.024v.4a.9.9,0,0,1-.272.688,1.008,1.008,0,0,1-.72.256.979.979,0,0,1-.712-.256.914.914,0,0,1-.264-.688V7.568a.868.868,0,0,1,.28-.672,1.037,1.037,0,0,1,.728-.256,1.048,1.048,0,0,1,.72.24.83.83,0,0,1,.272.656v3.776a2.392,2.392,0,0,1,1.008-.984A3.156,3.156,0,0,1,60.944,9.984Zm-.528,6.592a1.766,1.766,0,0,0,1.472-.672,2.989,2.989,0,0,0,.528-1.888,2.854,2.854,0,0,0-.52-1.84,2.023,2.023,0,0,0-2.96.008,2.917,2.917,0,0,0-.52,1.864,2.952,2.952,0,0,0,.52,1.872A1.779,1.779,0,0,0,60.416,16.576ZM67.04,18.1a1.034,1.034,0,0,1-.712-.248.9.9,0,0,1-.28-.712V7.584a.876.876,0,0,1,.28-.7,1.055,1.055,0,0,1,.712-.24,1.087,1.087,0,0,1,.72.24.864.864,0,0,1,.288.7v9.552a.888.888,0,0,1-.288.712A1.064,1.064,0,0,1,67.04,18.1Zm9.248-2.24a.538.538,0,0,1,.44.208.865.865,0,0,1,.168.56.97.97,0,0,1-.592.832,5.349,5.349,0,0,1-1.232.488,5.079,5.079,0,0,1-1.312.184,4.077,4.077,0,0,1-2.992-1.088,3.988,3.988,0,0,1-1.1-2.976,4.566,4.566,0,0,1,.48-2.128A3.49,3.49,0,0,1,71.5,10.5a3.829,3.829,0,0,1,1.976-.512,3.546,3.546,0,0,1,1.84.464,3.146,3.146,0,0,1,1.216,1.312,4.353,4.353,0,0,1,.432,2q0,.688-.608.688h-4.72a2.517,2.517,0,0,0,.624,1.624,2.1,2.1,0,0,0,1.536.52,2.913,2.913,0,0,0,.9-.128,8.923,8.923,0,0,0,.888-.352A1.766,1.766,0,0,1,76.288,15.856ZM73.52,11.392a1.717,1.717,0,0,0-1.3.512,2.417,2.417,0,0,0-.584,1.472h3.616a2.281,2.281,0,0,0-.48-1.48A1.583,1.583,0,0,0,73.52,11.392Z" transform="translate(1074 780.785)" fill="#38485c"/>
  </g>
</svg>
