<svg xmlns="http://www.w3.org/2000/svg" xmlns:xlink="http://www.w3.org/1999/xlink" width="712" height="331" viewBox="0 0 712 331">
  <defs>
    <filter id="Rectángulo_5647" x="157.5" y="60.5" width="397" height="212" filterUnits="userSpaceOnUse">
      <feOffset dy="1" input="SourceAlpha"/>
      <feGaussianBlur stdDeviation="1.5" result="blur"/>
      <feFlood flood-opacity="0.161"/>
      <feComposite operator="in" in2="blur"/>
      <feComposite in="SourceGraphic"/>
    </filter>
  </defs>
  <g id="Grupo_18242" data-name="Grupo 18242" transform="translate(-513 -602)">
    <g id="Grupo_18231" data-name="Grupo 18231" transform="translate(0 -27)">
      <g id="Grupo_18124" data-name="Grupo 18124" transform="translate(0 27)">
        <path id="Trazado_20235" data-name="Trazado 20235" d="M4,0H708c2.209,0,4,1.174,4,2.622V328.378c0,1.448-1.791,2.622-4,2.622H4c-2.209,0-4-1.174-4-2.622V2.622C0,1.174,1.791,0,4,0Z" transform="translate(513 602)" fill="#f3f6f9"/>
      </g>
      <g transform="matrix(1, 0, 0, 1, 513, 629)" filter="url(#Rectángulo_5647)">
        <rect id="Rectángulo_5647-2" data-name="Rectángulo 5647" width="388" height="203" rx="8" transform="translate(162 64)" fill="#fff"/>
      </g>
      <path id="Trazado_23967" data-name="Trazado 23967" d="M14.868-14.91a1,1,0,0,1,.756.3,1.086,1.086,0,0,1,.294.788V-.924a1.046,1.046,0,0,1-.262.756A.958.958,0,0,1,14.931.1a.9.9,0,0,1-.693-.273,1.072,1.072,0,0,1-.252-.756v-9.765L9.87-2.856a1.175,1.175,0,0,1-1.029.735,1.175,1.175,0,0,1-1.029-.735L3.675-10.6V-.924a1.072,1.072,0,0,1-.252.756A.923.923,0,0,1,2.709.1a.912.912,0,0,1-.7-.284,1.054,1.054,0,0,1-.263-.746V-13.818a1.086,1.086,0,0,1,.294-.788,1,1,0,0,1,.756-.3,1.188,1.188,0,0,1,1.05.756l5.019,9.6,4.977-9.6A1.176,1.176,0,0,1,14.868-14.91ZM23.562.147A5.28,5.28,0,0,1,20.905-.5a4.393,4.393,0,0,1-1.764-1.858,6.06,6.06,0,0,1-.619-2.8,6.108,6.108,0,0,1,.619-2.824,4.393,4.393,0,0,1,1.764-1.859,5.28,5.28,0,0,1,2.657-.651,5.28,5.28,0,0,1,2.656.651A4.393,4.393,0,0,1,27.982-7.99a6.108,6.108,0,0,1,.62,2.824,6.06,6.06,0,0,1-.62,2.8A4.393,4.393,0,0,1,26.218-.5,5.28,5.28,0,0,1,23.562.147Zm0-1.68a2.6,2.6,0,0,0,2.153-.924,4.236,4.236,0,0,0,.745-2.709,4.2,4.2,0,0,0-.756-2.7A2.6,2.6,0,0,0,23.562-8.8a2.6,2.6,0,0,0-2.142.934,4.2,4.2,0,0,0-.756,2.7,4.236,4.236,0,0,0,.746,2.709A2.6,2.6,0,0,0,23.562-1.533ZM39.312-14.91a1.1,1.1,0,0,1,.777.273.954.954,0,0,1,.294.735V-.924a1,1,0,0,1-.284.756A1.059,1.059,0,0,1,39.333.1a1.059,1.059,0,0,1-.767-.273,1,1,0,0,1-.284-.756v-.84A3.249,3.249,0,0,1,36.939-.347,4.1,4.1,0,0,1,34.9.147,4.256,4.256,0,0,1,32.54-.525a4.468,4.468,0,0,1-1.617-1.89,6.446,6.446,0,0,1-.577-2.793A6.359,6.359,0,0,1,30.922-8a4.374,4.374,0,0,1,1.607-1.848A4.343,4.343,0,0,1,34.9-10.5a4.042,4.042,0,0,1,2.027.493,3.292,3.292,0,0,1,1.333,1.4v-5.334a.913.913,0,0,1,.284-.7A1.084,1.084,0,0,1,39.312-14.91ZM35.406-1.533a2.562,2.562,0,0,0,2.121-.945,4.209,4.209,0,0,0,.756-2.688,4.251,4.251,0,0,0-.745-2.688A2.556,2.556,0,0,0,35.406-8.8a2.628,2.628,0,0,0-2.153.934,4.086,4.086,0,0,0-.766,2.657,4.226,4.226,0,0,0,.777,2.7A2.587,2.587,0,0,0,35.406-1.533ZM47.628-10.5a4.05,4.05,0,0,1,3.034,1.029,4.34,4.34,0,0,1,1,3.129V-.9a.986.986,0,0,1-.273.746A1.046,1.046,0,0,1,50.631.1.993.993,0,0,1,49.9-.168.993.993,0,0,1,49.623-.9V-1.68A2.954,2.954,0,0,1,48.437-.325,3.5,3.5,0,0,1,46.6.147a4.094,4.094,0,0,1-1.837-.41,3.324,3.324,0,0,1-1.312-1.124A2.819,2.819,0,0,1,42.966-3a2.454,2.454,0,0,1,.567-1.774A3.545,3.545,0,0,1,45.444-5.7a18.474,18.474,0,0,1,3.675-.284H49.6v-.609a2.469,2.469,0,0,0-.483-1.7,2.023,2.023,0,0,0-1.554-.525,4.949,4.949,0,0,0-1.386.189,10.421,10.421,0,0,0-1.428.546,2.058,2.058,0,0,1-.8.315A.649.649,0,0,1,43.438-8a.867.867,0,0,1-.2-.588.911.911,0,0,1,.178-.557,1.88,1.88,0,0,1,.577-.472,7.18,7.18,0,0,1,1.722-.641A8.031,8.031,0,0,1,47.628-10.5Zm-.651,9.072a2.469,2.469,0,0,0,1.89-.787A2.851,2.851,0,0,0,49.6-4.242v-.546h-.378a16.36,16.36,0,0,0-2.52.147,2.472,2.472,0,0,0-1.26.493,1.285,1.285,0,0,0-.378,1,1.579,1.579,0,0,0,.546,1.239A1.985,1.985,0,0,0,46.977-1.428ZM55.608.1a1.162,1.162,0,0,1-.766-.252.925.925,0,0,1-.3-.756V-13.881a.957.957,0,0,1,.3-.766,1.132,1.132,0,0,1,.766-.262,1.092,1.092,0,0,1,.756.262.974.974,0,0,1,.294.766V-.9a.941.941,0,0,1-.294.756A1.121,1.121,0,0,1,55.608.1Z" transform="translate(699 730)" fill="#9eaab8"/>
      <g id="Rectángulo_6457" data-name="Rectángulo 6457" transform="translate(675 752)" fill="#e6ebf0" stroke="#e6ebf0" stroke-width="1">
        <rect width="388" height="1" stroke="none"/>
        <rect x="0.5" y="0.5" width="387" fill="none"/>
      </g>
      <g id="Grupo_18197" data-name="Grupo 18197">
        <path id="bx-x" d="M16.192,6.344l-4.243,4.242L7.707,6.344,6.293,7.758,10.535,12,6.293,16.242l1.414,1.414,4.242-4.242,4.243,4.242,1.414-1.414L13.364,12l4.242-4.242Z" transform="translate(1015.395 710.656)" fill="#9eaab8"/>
        <rect id="Rectángulo_5649" data-name="Rectángulo 5649" width="24" height="24" transform="translate(1015 711)" fill="none"/>
      </g>
      <rect id="Rectángulo_3061" data-name="Rectángulo 3061" width="92" height="32" rx="4" transform="translate(947 844)" fill="#e6ebf0"/>
      <path id="Trazado_23970" data-name="Trazado 23970" d="M-21.991,0-23.06-2.974h-4.094L-28.2,0h-1.846l4.006-10.752h1.9L-20.131,0Zm-1.531-4.482-1-2.915q-.11-.293-.3-.923t-.267-.923a16.415,16.415,0,0,1-.579,1.97l-.967,2.791ZM-15.634.146A3.547,3.547,0,0,1-18.428-.927a4.483,4.483,0,0,1-.956-3.08,4.508,4.508,0,0,1,1-3.142,3.709,3.709,0,0,1,2.889-1.1,5.415,5.415,0,0,1,2.307.476l-.52,1.384a5.213,5.213,0,0,0-1.8-.425q-2.1,0-2.1,2.791a3.342,3.342,0,0,0,.524,2.047,1.813,1.813,0,0,0,1.534.685,4.4,4.4,0,0,0,2.175-.571v1.5a3.4,3.4,0,0,1-.985.388A5.911,5.911,0,0,1-15.634.146Zm7.427,0A3.547,3.547,0,0,1-11-.927a4.483,4.483,0,0,1-.956-3.08,4.508,4.508,0,0,1,1-3.142,3.709,3.709,0,0,1,2.889-1.1,5.415,5.415,0,0,1,2.307.476l-.52,1.384a5.213,5.213,0,0,0-1.8-.425q-2.1,0-2.1,2.791a3.342,3.342,0,0,0,.524,2.047,1.813,1.813,0,0,0,1.534.685A4.4,4.4,0,0,0-5.951-1.86v1.5a3.4,3.4,0,0,1-.985.388A5.911,5.911,0,0,1-8.207.146ZM-2.325,0H-4.047V-8.1h1.721ZM-4.149-10.247a.953.953,0,0,1,.253-.71.985.985,0,0,1,.721-.249.964.964,0,0,1,.707.249.953.953,0,0,1,.253.71.935.935,0,0,1-.253.692.955.955,0,0,1-.707.253A.976.976,0,0,1-3.9-9.554.935.935,0,0,1-4.149-10.247ZM7.321-4.065A4.421,4.421,0,0,1,6.3-.967,3.648,3.648,0,0,1,3.468.146,3.884,3.884,0,0,1,1.461-.366,3.385,3.385,0,0,1,.121-1.838,5.014,5.014,0,0,1-.348-4.065,4.391,4.391,0,0,1,.663-7.141,3.665,3.665,0,0,1,3.512-8.247,3.569,3.569,0,0,1,6.3-7.115,4.371,4.371,0,0,1,7.321-4.065Zm-5.9,0Q1.425-1.26,3.5-1.26q2.051,0,2.051-2.805,0-2.776-2.065-2.776a1.761,1.761,0,0,0-1.571.718A3.653,3.653,0,0,0,1.425-4.065Zm.945-5.024v-.183q.417-.513.861-1.143t.7-1.077h2v.154A15.04,15.04,0,0,1,4.79-10.184,16.058,16.058,0,0,1,3.512-9.089ZM16.425,0H14.7V-4.98a2.18,2.18,0,0,0-.377-1.4,1.458,1.458,0,0,0-1.2-.461,1.9,1.9,0,0,0-1.6.645,3.559,3.559,0,0,0-.505,2.161V0H9.3V-8.1h1.348l.242,1.062h.088a2.4,2.4,0,0,1,1.04-.894,3.485,3.485,0,0,1,1.494-.315q2.915,0,2.915,2.966ZM27.2,0H25.477V-6.914q0-1.238.059-1.963-.168.176-.414.388T23.478-7.141l-.864-1.091,3.149-2.476H27.2Z" transform="translate(993 866)" fill="#9eaab8"/>
      <rect id="Rectángulo_3061-2" data-name="Rectángulo 3061" width="92" height="32" rx="4" transform="translate(847 844)" fill="#e6ebf0"/>
      <path id="Trazado_23969" data-name="Trazado 23969" d="M-21.991,0-23.06-2.974h-4.094L-28.2,0h-1.846l4.006-10.752h1.9L-20.131,0Zm-1.531-4.482-1-2.915q-.11-.293-.3-.923t-.267-.923a16.415,16.415,0,0,1-.579,1.97l-.967,2.791ZM-15.634.146A3.547,3.547,0,0,1-18.428-.927a4.483,4.483,0,0,1-.956-3.08,4.508,4.508,0,0,1,1-3.142,3.709,3.709,0,0,1,2.889-1.1,5.415,5.415,0,0,1,2.307.476l-.52,1.384a5.213,5.213,0,0,0-1.8-.425q-2.1,0-2.1,2.791a3.342,3.342,0,0,0,.524,2.047,1.813,1.813,0,0,0,1.534.685,4.4,4.4,0,0,0,2.175-.571v1.5a3.4,3.4,0,0,1-.985.388A5.911,5.911,0,0,1-15.634.146Zm7.427,0A3.547,3.547,0,0,1-11-.927a4.483,4.483,0,0,1-.956-3.08,4.508,4.508,0,0,1,1-3.142,3.709,3.709,0,0,1,2.889-1.1,5.415,5.415,0,0,1,2.307.476l-.52,1.384a5.213,5.213,0,0,0-1.8-.425q-2.1,0-2.1,2.791a3.342,3.342,0,0,0,.524,2.047,1.813,1.813,0,0,0,1.534.685A4.4,4.4,0,0,0-5.951-1.86v1.5a3.4,3.4,0,0,1-.985.388A5.911,5.911,0,0,1-8.207.146ZM-2.325,0H-4.047V-8.1h1.721ZM-4.149-10.247a.953.953,0,0,1,.253-.71.985.985,0,0,1,.721-.249.964.964,0,0,1,.707.249.953.953,0,0,1,.253.71.935.935,0,0,1-.253.692.955.955,0,0,1-.707.253A.976.976,0,0,1-3.9-9.554.935.935,0,0,1-4.149-10.247ZM7.321-4.065A4.421,4.421,0,0,1,6.3-.967,3.648,3.648,0,0,1,3.468.146,3.884,3.884,0,0,1,1.461-.366,3.385,3.385,0,0,1,.121-1.838,5.014,5.014,0,0,1-.348-4.065,4.391,4.391,0,0,1,.663-7.141,3.665,3.665,0,0,1,3.512-8.247,3.569,3.569,0,0,1,6.3-7.115,4.371,4.371,0,0,1,7.321-4.065Zm-5.9,0Q1.425-1.26,3.5-1.26q2.051,0,2.051-2.805,0-2.776-2.065-2.776a1.761,1.761,0,0,0-1.571.718A3.653,3.653,0,0,0,1.425-4.065Zm.945-5.024v-.183q.417-.513.861-1.143t.7-1.077h2v.154A15.04,15.04,0,0,1,4.79-10.184,16.058,16.058,0,0,1,3.512-9.089ZM16.425,0H14.7V-4.98a2.18,2.18,0,0,0-.377-1.4,1.458,1.458,0,0,0-1.2-.461,1.9,1.9,0,0,0-1.6.645,3.559,3.559,0,0,0-.505,2.161V0H9.3V-8.1h1.348l.242,1.062h.088a2.4,2.4,0,0,1,1.04-.894,3.485,3.485,0,0,1,1.494-.315q2.915,0,2.915,2.966ZM29.4,0H22.145V-1.3L24.906-4.08a23.487,23.487,0,0,0,1.622-1.776,4.24,4.24,0,0,0,.582-.985,2.656,2.656,0,0,0,.183-.989,1.508,1.508,0,0,0-.436-1.143,1.67,1.67,0,0,0-1.2-.417,3.212,3.212,0,0,0-1.19.227,5.571,5.571,0,0,0-1.329.82L22.2-9.478a6,6,0,0,1,1.736-1.069,5.081,5.081,0,0,1,1.794-.315,3.531,3.531,0,0,1,2.4.78,2.635,2.635,0,0,1,.9,2.1,3.682,3.682,0,0,1-.26,1.377,5.6,5.6,0,0,1-.8,1.344A18.244,18.244,0,0,1,26.18-3.391l-1.86,1.8v.073H29.4Z" transform="translate(893 866)" fill="#9eaab8"/>
      <g id="Rectángulo_6458" data-name="Rectángulo 6458" transform="translate(699 823)" fill="#e6ebf0" stroke="#e6ebf0" stroke-width="1">
        <rect width="340" height="1" stroke="none"/>
        <rect x="0.5" y="0.5" width="339" fill="none"/>
      </g>
      <path id="Trazado_23968" data-name="Trazado 23968" d="M5.086,17H3.758V6.758H.141V5.578H8.7v1.18H5.086Zm7.641.156A3.934,3.934,0,0,1,9.73,16a4.476,4.476,0,0,1-1.1-3.211A4.964,4.964,0,0,1,9.652,9.5a3.387,3.387,0,0,1,2.738-1.219A3.229,3.229,0,0,1,14.938,9.34a4.057,4.057,0,0,1,.938,2.793v.82h-5.9a3.394,3.394,0,0,0,.762,2.289,2.635,2.635,0,0,0,2.035.781,6.9,6.9,0,0,0,2.734-.578V16.6a6.863,6.863,0,0,1-1.3.426A7.31,7.31,0,0,1,12.727,17.156Zm-.352-7.789a2.118,2.118,0,0,0-1.645.672,3.1,3.1,0,0,0-.723,1.859h4.477a2.851,2.851,0,0,0-.547-1.879A1.925,1.925,0,0,0,12.375,9.367Zm7.453,3.25-2.977-4.18h1.477l2.258,3.281,2.25-3.281H24.3l-2.977,4.18L24.453,17H22.984l-2.4-3.469L18.164,17H16.7Zm9.086,3.469a4.236,4.236,0,0,0,.664-.051,4.3,4.3,0,0,0,.508-.105v.992a2.371,2.371,0,0,1-.621.168,4.664,4.664,0,0,1-.738.066q-2.484,0-2.484-2.617V9.445H25.016V8.82l1.227-.539.547-1.828h.75V8.438h2.484V9.445H27.539v5.039a1.734,1.734,0,0,0,.367,1.188A1.278,1.278,0,0,0,28.914,16.086Zm10.273-3.375a4.724,4.724,0,0,1-1.055,3.27,3.714,3.714,0,0,1-2.914,1.176,3.86,3.86,0,0,1-2.039-.539A3.558,3.558,0,0,1,31.8,15.07a5.391,5.391,0,0,1-.484-2.359,4.716,4.716,0,0,1,1.047-3.262,3.7,3.7,0,0,1,2.906-1.168,3.622,3.622,0,0,1,2.855,1.2A4.7,4.7,0,0,1,39.188,12.711Zm-6.523,0a4.064,4.064,0,0,0,.656,2.5,2.6,2.6,0,0,0,3.863,0,4.043,4.043,0,0,0,.66-2.5,3.978,3.978,0,0,0-.66-2.48,2.32,2.32,0,0,0-1.949-.848,2.283,2.283,0,0,0-1.922.836A4.023,4.023,0,0,0,32.664,12.711Zm18.781,3.141h-.07a3.047,3.047,0,0,1-2.687,1.3,3.179,3.179,0,0,1-2.613-1.148,5.055,5.055,0,0,1-.934-3.266,5.141,5.141,0,0,1,.938-3.289,3.155,3.155,0,0,1,2.609-1.172,3.114,3.114,0,0,1,2.672,1.266h.1l-.055-.617-.031-.6V4.844h1.3V17H51.617Zm-2.594.219a2.361,2.361,0,0,0,1.926-.723,3.652,3.652,0,0,0,.6-2.332v-.273a4.3,4.3,0,0,0-.605-2.6,2.3,2.3,0,0,0-1.934-.777,1.985,1.985,0,0,0-1.746.887,4.409,4.409,0,0,0-.605,2.5,4.227,4.227,0,0,0,.6,2.477A2.037,2.037,0,0,0,48.852,16.07Zm10.188,1.086a3.934,3.934,0,0,1-3-1.156,4.476,4.476,0,0,1-1.1-3.211A4.964,4.964,0,0,1,55.965,9.5,3.387,3.387,0,0,1,58.7,8.281,3.229,3.229,0,0,1,61.25,9.34a4.057,4.057,0,0,1,.938,2.793v.82h-5.9a3.394,3.394,0,0,0,.762,2.289,2.634,2.634,0,0,0,2.035.781,6.9,6.9,0,0,0,2.734-.578V16.6a6.863,6.863,0,0,1-1.3.426A7.31,7.31,0,0,1,59.039,17.156Zm-.352-7.789a2.118,2.118,0,0,0-1.645.672A3.1,3.1,0,0,0,56.32,11.9H60.8a2.851,2.851,0,0,0-.547-1.879A1.925,1.925,0,0,0,58.688,9.367Zm11.234,5.3a2.145,2.145,0,0,1-.891,1.844,4.186,4.186,0,0,1-2.5.648,5.436,5.436,0,0,1-2.656-.539v-1.2a6.424,6.424,0,0,0,1.324.492,5.53,5.53,0,0,0,1.363.18,3.092,3.092,0,0,0,1.563-.324,1.116,1.116,0,0,0,.113-1.844,6.82,6.82,0,0,0-1.691-.84,9.172,9.172,0,0,1-1.7-.777,2.321,2.321,0,0,1-.75-.754,1.966,1.966,0,0,1-.246-1.008A1.921,1.921,0,0,1,64.7,8.887a3.968,3.968,0,0,1,2.336-.605,6.835,6.835,0,0,1,2.7.563L69.281,9.9a6.2,6.2,0,0,0-2.336-.531,2.687,2.687,0,0,0-1.391.289.894.894,0,0,0-.469.8.971.971,0,0,0,.176.586,1.735,1.735,0,0,0,.566.461,12.657,12.657,0,0,0,1.5.633,5.6,5.6,0,0,1,2.059,1.117A1.97,1.97,0,0,1,69.922,14.664Zm5.531,2.492a3.654,3.654,0,0,1-2.879-1.145,4.707,4.707,0,0,1-1.02-3.238,4.853,4.853,0,0,1,1.035-3.32,3.727,3.727,0,0,1,2.949-1.172,5.852,5.852,0,0,1,1.234.133,4.066,4.066,0,0,1,.969.313l-.4,1.1a6.1,6.1,0,0,0-.937-.285,4.186,4.186,0,0,0-.9-.113q-2.609,0-2.609,3.328a3.963,3.963,0,0,0,.637,2.422,2.215,2.215,0,0,0,1.887.844,5.769,5.769,0,0,0,2.2-.461v1.148A4.679,4.679,0,0,1,75.453,17.156Zm8.1-8.875a5.075,5.075,0,0,1,1.023.094l-.18,1.2a4.418,4.418,0,0,0-.937-.117,2.282,2.282,0,0,0-1.777.844,3.077,3.077,0,0,0-.738,2.1V17h-1.3V8.438h1.07l.148,1.586h.063a3.764,3.764,0,0,1,1.148-1.289A2.585,2.585,0,0,1,83.555,8.281ZM87.477,17h-1.3V8.438h1.3ZM86.07,6.117a.861.861,0,0,1,.219-.652.81.81,0,0,1,1.086,0,.846.846,0,0,1,.227.648.859.859,0,0,1-.227.652.794.794,0,0,1-1.086,0A.877.877,0,0,1,86.07,6.117Zm8.141,11.039a3.706,3.706,0,0,1-1.527-.309,2.872,2.872,0,0,1-1.16-.949H91.43a11.485,11.485,0,0,1,.094,1.422v3.523h-1.3V8.438h1.055l.18,1.172h.063a3.012,3.012,0,0,1,1.164-1.016,3.539,3.539,0,0,1,1.523-.312A3.165,3.165,0,0,1,96.84,9.445a5.125,5.125,0,0,1,.926,3.266,5.1,5.1,0,0,1-.941,3.277A3.17,3.17,0,0,1,94.211,17.156Zm-.187-7.773a2.3,2.3,0,0,0-1.9.727,3.739,3.739,0,0,0-.6,2.313v.289a4.285,4.285,0,0,0,.6,2.582,2.288,2.288,0,0,0,1.93.777,2.007,2.007,0,0,0,1.738-.9,4.26,4.26,0,0,0,.629-2.477,4.1,4.1,0,0,0-.629-2.457A2.069,2.069,0,0,0,94.023,9.383Zm8.773,6.7a4.236,4.236,0,0,0,.664-.051,4.3,4.3,0,0,0,.508-.105v.992a2.371,2.371,0,0,1-.621.168,4.664,4.664,0,0,1-.738.066q-2.484,0-2.484-2.617V9.445H98.9V8.82l1.227-.539.547-1.828h.75V8.438h2.484V9.445h-2.484v5.039a1.734,1.734,0,0,0,.367,1.188A1.278,1.278,0,0,0,102.8,16.086Zm4.18.914h-1.3V8.438h1.3ZM105.57,6.117a.861.861,0,0,1,.219-.652.81.81,0,0,1,1.086,0,.846.846,0,0,1,.227.648.859.859,0,0,1-.227.652.794.794,0,0,1-1.086,0A.877.877,0,0,1,105.57,6.117ZM111.6,17l-3.25-8.562h1.391l1.844,5.078a24.035,24.035,0,0,1,.734,2.313h.063a17.466,17.466,0,0,1,.543-1.715q.457-1.3,2.051-5.676h1.391L113.117,17Zm13.531-4.289a4.724,4.724,0,0,1-1.055,3.27,3.714,3.714,0,0,1-2.914,1.176,3.86,3.86,0,0,1-2.039-.539,3.558,3.558,0,0,1-1.375-1.547,5.391,5.391,0,0,1-.484-2.359,4.716,4.716,0,0,1,1.047-3.262,3.7,3.7,0,0,1,2.906-1.168,3.622,3.622,0,0,1,2.855,1.2A4.7,4.7,0,0,1,125.133,12.711Zm-6.523,0a4.064,4.064,0,0,0,.656,2.5,2.6,2.6,0,0,0,3.863,0,4.043,4.043,0,0,0,.66-2.5,3.978,3.978,0,0,0-.66-2.48,2.32,2.32,0,0,0-1.949-.848,2.283,2.283,0,0,0-1.922.836A4.023,4.023,0,0,0,118.609,12.711Zm8.609,3.461a1.164,1.164,0,0,1,.238-.793.864.864,0,0,1,.684-.27.924.924,0,0,1,.707.27,1.116,1.116,0,0,1,.254.793,1.1,1.1,0,0,1-.258.781,1.025,1.025,0,0,1-1.363.027A1.07,1.07,0,0,1,127.219,16.172Z" transform="translate(699 777)" fill="#9eaab8"/>
      <g id="Grupo_17672" data-name="Grupo 17672" transform="translate(1079 797.073) rotate(-90)">
        <line id="Línea_114" data-name="Línea 114" x2="20.073" transform="translate(0 3.034)" fill="none" stroke="#38485c" stroke-linecap="round" stroke-width="1"/>
        <path id="Trazado_4671" data-name="Trazado 4671" d="M0,0V3.033" transform="translate(20.073 3.034) rotate(180)" fill="none" stroke="#38485c" stroke-linecap="round" stroke-width="1"/>
        <path id="Trazado_20265" data-name="Trazado 20265" d="M0,0V3.033" transform="translate(-0.213 3.033) rotate(180)" fill="none" stroke="#38485c" stroke-linecap="round" stroke-width="1"/>
      </g>
      <g id="Grupo_18198" data-name="Grupo 18198" transform="translate(1079 875.787) rotate(-90)">
        <line id="Línea_114-2" data-name="Línea 114" x2="31.787" transform="translate(0 3.034)" fill="none" stroke="#38485c" stroke-linecap="round" stroke-width="1"/>
        <path id="Trazado_4671-2" data-name="Trazado 4671" d="M0,0V3.033" transform="translate(31.787 3.034) rotate(180)" fill="none" stroke="#38485c" stroke-linecap="round" stroke-width="1"/>
        <path id="Trazado_20265-2" data-name="Trazado 20265" d="M0,0V3.033" transform="translate(-0.213 3.033) rotate(180)" fill="none" stroke="#38485c" stroke-linecap="round" stroke-width="1"/>
      </g>
      <g id="Grupo_18084" data-name="Grupo 18084" transform="translate(1079 736.787) rotate(-90)">
        <line id="Línea_114-3" data-name="Línea 114" x2="27.787" transform="translate(0 3.034)" fill="none" stroke="#38485c" stroke-linecap="round" stroke-width="1"/>
        <path id="Trazado_4671-3" data-name="Trazado 4671" d="M0,0V3.033" transform="translate(27.787 3.034) rotate(180)" fill="none" stroke="#38485c" stroke-linecap="round" stroke-width="1"/>
        <path id="Trazado_20265-3" data-name="Trazado 20265" d="M0,0V3.033" transform="translate(-0.213 3.033) rotate(180)" fill="none" stroke="#38485c" stroke-linecap="round" stroke-width="1"/>
      </g>
      <g id="Grupo_18086" data-name="Grupo 18086" transform="translate(659.034 712.213) rotate(90)">
        <line id="Línea_114-4" data-name="Línea 114" x2="22.787" transform="translate(0 3.034)" fill="none" stroke="#38485c" stroke-linecap="round" stroke-width="1"/>
        <path id="Trazado_4671-4" data-name="Trazado 4671" d="M0,0V3.033" transform="translate(22.787 3.034) rotate(180)" fill="none" stroke="#38485c" stroke-linecap="round" stroke-width="1"/>
        <path id="Trazado_20265-4" data-name="Trazado 20265" d="M0,0V3.033" transform="translate(-0.213 3.033) rotate(180)" fill="none" stroke="#38485c" stroke-linecap="round" stroke-width="1"/>
      </g>
      <path id="Rectángulo_8931" data-name="Rectángulo 8931" d="M8,0H380a8,8,0,0,1,8,8V60a0,0,0,0,1,0,0H0a0,0,0,0,1,0,0V8A8,8,0,0,1,8,0Z" transform="translate(675 692)" fill="#d1d8e0" opacity="0.5"/>
      <path id="Trazado_20266" data-name="Trazado 20266" d="M11.44-1.232a.985.985,0,0,1,.1.416.8.8,0,0,1-.3.624,1.009,1.009,0,0,1-.68.256.909.909,0,0,1-.48-.136A.907.907,0,0,1,9.728-.5L8.768-2.64H3.136L2.176-.5a.907.907,0,0,1-.352.424.937.937,0,0,1-.5.136A1.019,1.019,0,0,1,.656-.192a.787.787,0,0,1-.3-.624.985.985,0,0,1,.1-.416L4.864-10.72a1.032,1.032,0,0,1,.44-.488,1.26,1.26,0,0,1,.632-.168,1.26,1.26,0,0,1,.632.168,1.032,1.032,0,0,1,.44.488ZM3.84-4.24H8.064L5.952-8.992Zm2.352-7.984a.568.568,0,0,1-.256.064.494.494,0,0,1-.352-.136.418.418,0,0,1-.144-.312.507.507,0,0,1,.176-.352l1.456-1.5a.928.928,0,0,1,.688-.32.754.754,0,0,1,.552.232.736.736,0,0,1,.232.536.682.682,0,0,1-.136.4A1.141,1.141,0,0,1,8-13.28Zm11.072,4.24a.861.861,0,0,1,.656.176.781.781,0,0,1,.24.624.872.872,0,0,1-.208.64,1.278,1.278,0,0,1-.752.272l-.48.048a1.944,1.944,0,0,0-1.384.64,2.093,2.093,0,0,0-.44,1.36v3.36a.888.888,0,0,1-.288.712,1.064,1.064,0,0,1-.72.248,1.034,1.034,0,0,1-.712-.248.9.9,0,0,1-.28-.712V-7.056a.856.856,0,0,1,.28-.688,1.032,1.032,0,0,1,.7-.24.962.962,0,0,1,.672.232.85.85,0,0,1,.256.664v.64a2.368,2.368,0,0,1,.9-1.088,2.771,2.771,0,0,1,1.336-.432Zm7.776,5.84a.538.538,0,0,1,.44.208.865.865,0,0,1,.168.56.97.97,0,0,1-.592.832,5.349,5.349,0,0,1-1.232.488,5.079,5.079,0,0,1-1.312.184A4.077,4.077,0,0,1,19.52-.96a3.988,3.988,0,0,1-1.1-2.976,4.566,4.566,0,0,1,.48-2.128A3.49,3.49,0,0,1,20.248-7.5a3.829,3.829,0,0,1,1.976-.512,3.546,3.546,0,0,1,1.84.464A3.146,3.146,0,0,1,25.28-6.24a4.353,4.353,0,0,1,.432,2q0,.688-.608.688h-4.72a2.517,2.517,0,0,0,.624,1.624,2.1,2.1,0,0,0,1.536.52,2.913,2.913,0,0,0,.9-.128,8.923,8.923,0,0,0,.888-.352A1.766,1.766,0,0,1,25.04-2.144ZM22.272-6.608a1.717,1.717,0,0,0-1.3.512,2.417,2.417,0,0,0-.584,1.472H24a2.281,2.281,0,0,0-.48-1.48A1.583,1.583,0,0,0,22.272-6.608ZM30.72-8.016a3.259,3.259,0,0,1,2.424.808,3.383,3.383,0,0,1,.792,2.456v3.9a.9.9,0,0,1-.256.68.969.969,0,0,1-.7.248.936.936,0,0,1-.68-.256.894.894,0,0,1-.264-.672V-1.2a2.088,2.088,0,0,1-.856.976,2.568,2.568,0,0,1-1.352.352A3.139,3.139,0,0,1,28.4-.192a2.533,2.533,0,0,1-1.008-.88,2.224,2.224,0,0,1-.368-1.248,1.977,1.977,0,0,1,.44-1.36A2.644,2.644,0,0,1,28.9-4.4a13.041,13.041,0,0,1,2.736-.224h.4v-.368A1.638,1.638,0,0,0,31.7-6.136a1.43,1.43,0,0,0-1.088-.36,3.452,3.452,0,0,0-.944.136q-.48.136-1.136.392a1.6,1.6,0,0,1-.608.208.6.6,0,0,1-.472-.208.791.791,0,0,1-.184-.544.819.819,0,0,1,.136-.472,1.291,1.291,0,0,1,.456-.376,5.215,5.215,0,0,1,1.336-.48A6.893,6.893,0,0,1,30.72-8.016Zm-.5,6.7a1.709,1.709,0,0,0,1.3-.536,1.939,1.939,0,0,0,.5-1.384v-.336h-.288a11.038,11.038,0,0,0-1.664.1,1.616,1.616,0,0,0-.848.336.856.856,0,0,0-.256.656,1.085,1.085,0,0,0,.36.84A1.27,1.27,0,0,0,30.224-1.312ZM46.8-11.36a1.066,1.066,0,0,1,.736.256.856.856,0,0,1,.288.672V-.864a.9.9,0,0,1-.272.688,1.008,1.008,0,0,1-.72.256,1.008,1.008,0,0,1-.72-.256.9.9,0,0,1-.272-.688v-.4A2.5,2.5,0,0,1,44.824-.24a3.066,3.066,0,0,1-1.512.368,3.243,3.243,0,0,1-1.8-.512A3.4,3.4,0,0,1,40.28-1.832a5,5,0,0,1-.44-2.152,4.845,4.845,0,0,1,.44-2.128A3.333,3.333,0,0,1,41.5-7.52a3.309,3.309,0,0,1,1.808-.5,3.131,3.131,0,0,1,1.5.352,2.442,2.442,0,0,1,1.008.992v-3.792a.848.848,0,0,1,.264-.648A1,1,0,0,1,46.8-11.36ZM43.84-1.424a1.779,1.779,0,0,0,1.48-.656,2.952,2.952,0,0,0,.52-1.872,2.917,2.917,0,0,0-.52-1.864,1.77,1.77,0,0,0-1.464-.648,1.821,1.821,0,0,0-1.488.64,2.823,2.823,0,0,0-.528,1.84A2.989,2.989,0,0,0,42.368-2.1,1.766,1.766,0,0,0,43.84-1.424Zm12.224-.72a.538.538,0,0,1,.44.208.865.865,0,0,1,.168.56.97.97,0,0,1-.592.832,5.349,5.349,0,0,1-1.232.488,5.079,5.079,0,0,1-1.312.184A4.077,4.077,0,0,1,50.544-.96a3.988,3.988,0,0,1-1.1-2.976,4.566,4.566,0,0,1,.48-2.128A3.49,3.49,0,0,1,51.272-7.5a3.829,3.829,0,0,1,1.976-.512,3.546,3.546,0,0,1,1.84.464A3.146,3.146,0,0,1,56.3-6.24a4.354,4.354,0,0,1,.432,2q0,.688-.608.688h-4.72a2.517,2.517,0,0,0,.624,1.624,2.1,2.1,0,0,0,1.536.52,2.913,2.913,0,0,0,.9-.128,8.923,8.923,0,0,0,.888-.352A1.766,1.766,0,0,1,56.064-2.144ZM53.3-6.608a1.717,1.717,0,0,0-1.3.512,2.417,2.417,0,0,0-.584,1.472h3.616a2.281,2.281,0,0,0-.48-1.48A1.583,1.583,0,0,0,53.3-6.608Zm13.44,5.216q.8.048.8.72a.651.651,0,0,1-.312.584,1.489,1.489,0,0,1-.888.168L65.9.048a2.574,2.574,0,0,1-2.688-2.88V-6.32h-.8a1.016,1.016,0,0,1-.664-.192.685.685,0,0,1-.232-.56.685.685,0,0,1,.232-.56,1.016,1.016,0,0,1,.664-.192h.8V-9.3a.9.9,0,0,1,.272-.688,1.03,1.03,0,0,1,.736-.256,1.008,1.008,0,0,1,.72.256.9.9,0,0,1,.272.688v1.472h1.36a1.016,1.016,0,0,1,.664.192.685.685,0,0,1,.232.56.685.685,0,0,1-.232.56,1.016,1.016,0,0,1-.664.192h-1.36v3.632q0,1.184,1.088,1.264ZM69.552.1a1.034,1.034,0,0,1-.712-.248.9.9,0,0,1-.28-.712V-7.04a.876.876,0,0,1,.28-.7,1.055,1.055,0,0,1,.712-.24,1.087,1.087,0,0,1,.72.24.864.864,0,0,1,.288.7V-.864a.888.888,0,0,1-.288.712A1.064,1.064,0,0,1,69.552.1Zm.4-8.992a.6.6,0,0,1-.352.128.511.511,0,0,1-.376-.152.492.492,0,0,1-.152-.36.6.6,0,0,1,.128-.352L70.752-11.7a1.059,1.059,0,0,1,.848-.48.817.817,0,0,1,.6.248.8.8,0,0,1,.248.584.936.936,0,0,1-.432.768Zm7.056,7.5q.8.048.8.72a.651.651,0,0,1-.312.584,1.489,1.489,0,0,1-.888.168L76.176.048a2.574,2.574,0,0,1-2.688-2.88V-6.32h-.8a1.016,1.016,0,0,1-.664-.192.685.685,0,0,1-.232-.56.685.685,0,0,1,.232-.56,1.016,1.016,0,0,1,.664-.192h.8V-9.3a.9.9,0,0,1,.272-.688,1.03,1.03,0,0,1,.736-.256,1.008,1.008,0,0,1,.72.256.9.9,0,0,1,.272.688v1.472h1.36a1.016,1.016,0,0,1,.664.192.685.685,0,0,1,.232.56.685.685,0,0,1-.232.56,1.016,1.016,0,0,1-.664.192h-1.36v3.632q0,1.184,1.088,1.264Zm8-6.592a1.03,1.03,0,0,1,.736.256.9.9,0,0,1,.272.688V-.832a.868.868,0,0,1-.28.672A1.037,1.037,0,0,1,85.008.1a.965.965,0,0,1-.688-.24A.856.856,0,0,1,84.064-.8v-.4a2.549,2.549,0,0,1-.992.984,2.867,2.867,0,0,1-1.408.344q-2.88,0-2.88-3.232V-7.04a.9.9,0,0,1,.272-.688,1.008,1.008,0,0,1,.72-.256,1.03,1.03,0,0,1,.736.256.9.9,0,0,1,.272.688v3.952a1.888,1.888,0,0,0,.336,1.232,1.3,1.3,0,0,0,1.056.4,1.722,1.722,0,0,0,1.336-.552,2.087,2.087,0,0,0,.5-1.464V-7.04a.9.9,0,0,1,.272-.688A1.008,1.008,0,0,1,85.008-7.984ZM89.072.1a1.034,1.034,0,0,1-.712-.248.9.9,0,0,1-.28-.712v-9.552a.876.876,0,0,1,.28-.7,1.055,1.055,0,0,1,.712-.24,1.087,1.087,0,0,1,.72.24.864.864,0,0,1,.288.7V-.864a.888.888,0,0,1-.288.712A1.064,1.064,0,0,1,89.072.1ZM95.7.128a4.3,4.3,0,0,1-2.1-.5,3.432,3.432,0,0,1-1.4-1.424,4.515,4.515,0,0,1-.5-2.16,4.468,4.468,0,0,1,.5-2.152,3.444,3.444,0,0,1,1.4-1.416,4.3,4.3,0,0,1,2.1-.5,4.3,4.3,0,0,1,2.1.5A3.394,3.394,0,0,1,99.192-6.1a4.528,4.528,0,0,1,.488,2.152,4.575,4.575,0,0,1-.488,2.16A3.382,3.382,0,0,1,97.8-.368,4.3,4.3,0,0,1,95.7.128ZM95.68-1.424a1.793,1.793,0,0,0,1.488-.64,2.973,2.973,0,0,0,.512-1.888,2.979,2.979,0,0,0-.512-1.88A1.765,1.765,0,0,0,95.7-6.48a1.788,1.788,0,0,0-1.48.648,2.946,2.946,0,0,0-.52,1.88,2.973,2.973,0,0,0,.512,1.888A1.775,1.775,0,0,0,95.68-1.424Z" transform="translate(538 728.784)" fill="#38485c"/>
      <path id="Trazado_20267" data-name="Trazado 20267" d="M2.24.1A.99.99,0,0,1,1.5-.192a1.033,1.033,0,0,1-.28-.752v-9.392a1.006,1.006,0,0,1,.28-.744,1.006,1.006,0,0,1,.744-.28,1.027,1.027,0,0,1,.76.28,1.006,1.006,0,0,1,.28.744V-.944A1.033,1.033,0,0,1,3-.192,1.011,1.011,0,0,1,2.24.1ZM2.5-12.224a.568.568,0,0,1-.256.064.494.494,0,0,1-.352-.136.418.418,0,0,1-.144-.312.507.507,0,0,1,.176-.352l1.456-1.5a.928.928,0,0,1,.688-.32.754.754,0,0,1,.552.232.736.736,0,0,1,.232.536.682.682,0,0,1-.136.4,1.141,1.141,0,0,1-.408.336ZM8.992.128a4.146,4.146,0,0,1-2.056-.5A3.381,3.381,0,0,1,5.568-1.776,4.505,4.505,0,0,1,5.088-3.9a4.468,4.468,0,0,1,.5-2.152A3.56,3.56,0,0,1,7.008-7.5a4.208,4.208,0,0,1,2.1-.512,4.665,4.665,0,0,1,1.256.176,4.143,4.143,0,0,1,1.112.48.99.99,0,0,1,.512.848.9.9,0,0,1-.168.568.531.531,0,0,1-.44.216.956.956,0,0,1-.368-.08A3.223,3.223,0,0,1,10.624-6a4.3,4.3,0,0,0-.672-.328,2.088,2.088,0,0,0-.736-.12A1.871,1.871,0,0,0,7.688-5.8a2.855,2.855,0,0,0-.536,1.864,2.827,2.827,0,0,0,.536,1.848,1.871,1.871,0,0,0,1.528.648,1.973,1.973,0,0,0,.712-.12,6.031,6.031,0,0,0,.7-.328A3.168,3.168,0,0,1,11.04-2.1a.923.923,0,0,1,.352-.072.531.531,0,0,1,.432.224.879.879,0,0,1,.176.56.9.9,0,0,1-.12.472,1.081,1.081,0,0,1-.392.36,4.207,4.207,0,0,1-1.152.5A4.953,4.953,0,0,1,8.992.128Zm7.888,0a4.3,4.3,0,0,1-2.1-.5,3.432,3.432,0,0,1-1.4-1.424,4.515,4.515,0,0,1-.5-2.16,4.468,4.468,0,0,1,.5-2.152,3.444,3.444,0,0,1,1.4-1.416,4.3,4.3,0,0,1,2.1-.5,4.3,4.3,0,0,1,2.1.5A3.394,3.394,0,0,1,20.376-6.1a4.527,4.527,0,0,1,.488,2.152,4.575,4.575,0,0,1-.488,2.16A3.382,3.382,0,0,1,18.984-.368,4.3,4.3,0,0,1,16.88.128Zm-.016-1.552a1.793,1.793,0,0,0,1.488-.64,2.973,2.973,0,0,0,.512-1.888,2.979,2.979,0,0,0-.512-1.88A1.765,1.765,0,0,0,16.88-6.48a1.788,1.788,0,0,0-1.48.648,2.946,2.946,0,0,0-.52,1.88,2.973,2.973,0,0,0,.512,1.888A1.775,1.775,0,0,0,16.864-1.424ZM27.04-8.016a2.615,2.615,0,0,1,2.1.8A3.628,3.628,0,0,1,29.824-4.8V-.864a.935.935,0,0,1-.264.7A1,1,0,0,1,28.832.1,1.03,1.03,0,0,1,28.1-.16a.92.92,0,0,1-.272-.7V-4.688a2.074,2.074,0,0,0-.344-1.328,1.322,1.322,0,0,0-1.08-.416,1.826,1.826,0,0,0-1.384.544,2.019,2.019,0,0,0-.52,1.456V-.864a.92.92,0,0,1-.272.7A1.03,1.03,0,0,1,23.488.1,1,1,0,0,1,22.76-.16a.935.935,0,0,1-.264-.7V-7.056a.88.88,0,0,1,.272-.672,1.03,1.03,0,0,1,.736-.256.953.953,0,0,1,.68.248.848.848,0,0,1,.264.648v.432A2.706,2.706,0,0,1,25.52-7.664,3.226,3.226,0,0,1,27.04-8.016ZM35.408.128a4.3,4.3,0,0,1-2.1-.5,3.432,3.432,0,0,1-1.4-1.424,4.515,4.515,0,0,1-.5-2.16A4.468,4.468,0,0,1,31.9-6.1,3.444,3.444,0,0,1,33.3-7.52a4.3,4.3,0,0,1,2.1-.5,4.3,4.3,0,0,1,2.1.5A3.394,3.394,0,0,1,38.9-6.1a4.527,4.527,0,0,1,.488,2.152,4.575,4.575,0,0,1-.488,2.16A3.382,3.382,0,0,1,37.512-.368,4.3,4.3,0,0,1,35.408.128Zm-.016-1.552a1.793,1.793,0,0,0,1.488-.64,2.973,2.973,0,0,0,.512-1.888,2.979,2.979,0,0,0-.512-1.88,1.765,1.765,0,0,0-1.472-.648,1.788,1.788,0,0,0-1.48.648,2.946,2.946,0,0,0-.52,1.88,2.973,2.973,0,0,0,.512,1.888A1.775,1.775,0,0,0,35.392-1.424Z" transform="translate(1098 728)" fill="#38485c"/>
      <g id="Rectángulo_8961" data-name="Rectángulo 8961" transform="translate(699 798) rotate(-90)" fill="rgba(158,170,184,0.24)" stroke="#9eaab8" stroke-width="1" stroke-dasharray="5 5">
        <rect width="20" height="336" stroke="none"/>
        <rect x="0.5" y="0.5" width="19" height="335" fill="none"/>
      </g>
      <g id="Rectángulo_8967" data-name="Rectángulo 8967" transform="translate(846.9 876) rotate(-90)" fill="rgba(158,170,184,0.24)" stroke="#9eaab8" stroke-width="1" stroke-dasharray="5 5">
        <rect width="32" height="192" stroke="none"/>
        <rect x="0.5" y="0.5" width="31" height="191" fill="none"/>
      </g>
      <g id="Rectángulo_8940" data-name="Rectángulo 8940" transform="translate(699 737) rotate(-90)" fill="rgba(56,72,92,0.25)" stroke="#38485c" stroke-width="1" stroke-dasharray="5 5">
        <rect width="28" height="300" stroke="none"/>
        <rect x="0.5" y="0.5" width="27" height="299" fill="none"/>
      </g>
      <g id="Rectángulo_8962" data-name="Rectángulo 8962" transform="translate(1014.9 737) rotate(-90)" fill="rgba(56,72,92,0.25)" stroke="#38485c" stroke-width="1" stroke-dasharray="5 5">
        <rect width="28" height="24" stroke="none"/>
        <rect x="0.5" y="0.5" width="27" height="23" fill="none"/>
      </g>
      <path id="Trazado_23972" data-name="Trazado 23972" d="M11.44-1.232a.985.985,0,0,1,.1.416.8.8,0,0,1-.3.624,1.009,1.009,0,0,1-.68.256.909.909,0,0,1-.48-.136A.907.907,0,0,1,9.728-.5L8.768-2.64H3.136L2.176-.5a.907.907,0,0,1-.352.424.937.937,0,0,1-.5.136A1.019,1.019,0,0,1,.656-.192a.787.787,0,0,1-.3-.624.985.985,0,0,1,.1-.416L4.864-10.72a1.032,1.032,0,0,1,.44-.488,1.26,1.26,0,0,1,.632-.168,1.26,1.26,0,0,1,.632.168,1.032,1.032,0,0,1,.44.488ZM3.84-4.24H8.064L5.952-8.992Zm2.352-7.984a.568.568,0,0,1-.256.064.494.494,0,0,1-.352-.136.418.418,0,0,1-.144-.312.507.507,0,0,1,.176-.352l1.456-1.5a.928.928,0,0,1,.688-.32.754.754,0,0,1,.552.232.736.736,0,0,1,.232.536.682.682,0,0,1-.136.4A1.141,1.141,0,0,1,8-13.28Zm11.072,4.24a.861.861,0,0,1,.656.176.781.781,0,0,1,.24.624.872.872,0,0,1-.208.64,1.278,1.278,0,0,1-.752.272l-.48.048a1.944,1.944,0,0,0-1.384.64,2.093,2.093,0,0,0-.44,1.36v3.36a.888.888,0,0,1-.288.712,1.064,1.064,0,0,1-.72.248,1.034,1.034,0,0,1-.712-.248.9.9,0,0,1-.28-.712V-7.056a.856.856,0,0,1,.28-.688,1.032,1.032,0,0,1,.7-.24.962.962,0,0,1,.672.232.85.85,0,0,1,.256.664v.64a2.368,2.368,0,0,1,.9-1.088,2.771,2.771,0,0,1,1.336-.432Zm7.776,5.84a.538.538,0,0,1,.44.208.865.865,0,0,1,.168.56.97.97,0,0,1-.592.832,5.349,5.349,0,0,1-1.232.488,5.079,5.079,0,0,1-1.312.184A4.077,4.077,0,0,1,19.52-.96a3.988,3.988,0,0,1-1.1-2.976,4.566,4.566,0,0,1,.48-2.128A3.49,3.49,0,0,1,20.248-7.5a3.829,3.829,0,0,1,1.976-.512,3.546,3.546,0,0,1,1.84.464A3.146,3.146,0,0,1,25.28-6.24a4.353,4.353,0,0,1,.432,2q0,.688-.608.688h-4.72a2.517,2.517,0,0,0,.624,1.624,2.1,2.1,0,0,0,1.536.52,2.913,2.913,0,0,0,.9-.128,8.923,8.923,0,0,0,.888-.352A1.766,1.766,0,0,1,25.04-2.144ZM22.272-6.608a1.717,1.717,0,0,0-1.3.512,2.417,2.417,0,0,0-.584,1.472H24a2.281,2.281,0,0,0-.48-1.48A1.583,1.583,0,0,0,22.272-6.608ZM30.72-8.016a3.259,3.259,0,0,1,2.424.808,3.383,3.383,0,0,1,.792,2.456v3.9a.9.9,0,0,1-.256.68.969.969,0,0,1-.7.248.936.936,0,0,1-.68-.256.894.894,0,0,1-.264-.672V-1.2a2.088,2.088,0,0,1-.856.976,2.568,2.568,0,0,1-1.352.352A3.139,3.139,0,0,1,28.4-.192a2.533,2.533,0,0,1-1.008-.88,2.224,2.224,0,0,1-.368-1.248,1.977,1.977,0,0,1,.44-1.36A2.644,2.644,0,0,1,28.9-4.4a13.041,13.041,0,0,1,2.736-.224h.4v-.368A1.638,1.638,0,0,0,31.7-6.136a1.43,1.43,0,0,0-1.088-.36,3.452,3.452,0,0,0-.944.136q-.48.136-1.136.392a1.6,1.6,0,0,1-.608.208.6.6,0,0,1-.472-.208.791.791,0,0,1-.184-.544.819.819,0,0,1,.136-.472,1.291,1.291,0,0,1,.456-.376,5.215,5.215,0,0,1,1.336-.48A6.893,6.893,0,0,1,30.72-8.016Zm-.5,6.7a1.709,1.709,0,0,0,1.3-.536,1.939,1.939,0,0,0,.5-1.384v-.336h-.288a11.038,11.038,0,0,0-1.664.1,1.616,1.616,0,0,0-.848.336.856.856,0,0,0-.256.656,1.085,1.085,0,0,0,.36.84A1.27,1.27,0,0,0,30.224-1.312ZM7.568,6.64A1.066,1.066,0,0,1,8.3,6.9a.856.856,0,0,1,.288.672v9.568a.9.9,0,0,1-.272.688,1.008,1.008,0,0,1-.72.256,1.008,1.008,0,0,1-.72-.256.9.9,0,0,1-.272-.688v-.4A2.5,2.5,0,0,1,5.592,17.76a3.066,3.066,0,0,1-1.512.368,3.243,3.243,0,0,1-1.8-.512,3.4,3.4,0,0,1-1.232-1.448,5,5,0,0,1-.44-2.152,4.845,4.845,0,0,1,.44-2.128A3.333,3.333,0,0,1,2.272,10.48a3.309,3.309,0,0,1,1.808-.5,3.131,3.131,0,0,1,1.5.352,2.442,2.442,0,0,1,1.008.992V7.536a.848.848,0,0,1,.264-.648A1,1,0,0,1,7.568,6.64Zm-2.96,9.936a1.779,1.779,0,0,0,1.48-.656,2.952,2.952,0,0,0,.52-1.872,2.917,2.917,0,0,0-.52-1.864,1.77,1.77,0,0,0-1.464-.648,1.821,1.821,0,0,0-1.488.64,2.823,2.823,0,0,0-.528,1.84A2.989,2.989,0,0,0,3.136,15.9,1.766,1.766,0,0,0,4.608,16.576Zm12.224-.72a.538.538,0,0,1,.44.208.865.865,0,0,1,.168.56.97.97,0,0,1-.592.832,5.349,5.349,0,0,1-1.232.488,5.079,5.079,0,0,1-1.312.184,4.077,4.077,0,0,1-2.992-1.088,3.988,3.988,0,0,1-1.1-2.976,4.566,4.566,0,0,1,.48-2.128A3.49,3.49,0,0,1,12.04,10.5a3.829,3.829,0,0,1,1.976-.512,3.546,3.546,0,0,1,1.84.464,3.146,3.146,0,0,1,1.216,1.312,4.353,4.353,0,0,1,.432,2q0,.688-.608.688h-4.72a2.517,2.517,0,0,0,.624,1.624,2.1,2.1,0,0,0,1.536.52,2.913,2.913,0,0,0,.9-.128,8.923,8.923,0,0,0,.888-.352A1.766,1.766,0,0,1,16.832,15.856Zm-2.768-4.464a1.717,1.717,0,0,0-1.3.512,2.417,2.417,0,0,0-.584,1.472h3.616a2.281,2.281,0,0,0-.48-1.48A1.583,1.583,0,0,0,14.064,11.392Zm7.888,6.736a5.144,5.144,0,0,1-2.816-.688.954.954,0,0,1-.512-.864.758.758,0,0,1,.176-.52.554.554,0,0,1,.432-.2,1.767,1.767,0,0,1,.752.256,7,7,0,0,0,.936.368,3.812,3.812,0,0,0,1.08.128,2.054,2.054,0,0,0,1.048-.224.694.694,0,0,0,.376-.624.6.6,0,0,0-.152-.432,1.394,1.394,0,0,0-.544-.3,11.44,11.44,0,0,0-1.192-.312A4.58,4.58,0,0,1,19.5,13.9a1.816,1.816,0,0,1-.616-1.456,2.1,2.1,0,0,1,.416-1.272,2.7,2.7,0,0,1,1.144-.88A4.168,4.168,0,0,1,22.1,9.984a4.963,4.963,0,0,1,1.3.168,3.94,3.94,0,0,1,1.12.488.966.966,0,0,1,.512.848.821.821,0,0,1-.176.536.538.538,0,0,1-.432.216.865.865,0,0,1-.344-.072,4.616,4.616,0,0,1-.424-.216,6.709,6.709,0,0,0-.8-.36,2.5,2.5,0,0,0-.832-.12,1.611,1.611,0,0,0-.936.24.758.758,0,0,0-.344.656.666.666,0,0,0,.352.608,5.041,5.041,0,0,0,1.36.416,7.76,7.76,0,0,1,1.68.512,1.968,1.968,0,0,1,.872.72,2.089,2.089,0,0,1,.264,1.1,2.052,2.052,0,0,1-.9,1.744A4.013,4.013,0,0,1,21.952,18.128Zm8.384,0a4.146,4.146,0,0,1-2.056-.5,3.381,3.381,0,0,1-1.368-1.408,4.505,4.505,0,0,1-.48-2.128,4.468,4.468,0,0,1,.5-2.152A3.56,3.56,0,0,1,28.352,10.5a4.208,4.208,0,0,1,2.1-.512,4.665,4.665,0,0,1,1.256.176,4.143,4.143,0,0,1,1.112.48.99.99,0,0,1,.512.848.9.9,0,0,1-.168.568.531.531,0,0,1-.44.216.956.956,0,0,1-.368-.08A3.223,3.223,0,0,1,31.968,12a4.3,4.3,0,0,0-.672-.328,2.088,2.088,0,0,0-.736-.12,1.871,1.871,0,0,0-1.528.648,2.855,2.855,0,0,0-.536,1.864,2.827,2.827,0,0,0,.536,1.848,1.871,1.871,0,0,0,1.528.648,1.973,1.973,0,0,0,.712-.12,6.031,6.031,0,0,0,.7-.328,3.168,3.168,0,0,1,.416-.216.923.923,0,0,1,.352-.072.531.531,0,0,1,.432.224.879.879,0,0,1,.176.56.9.9,0,0,1-.12.472,1.081,1.081,0,0,1-.392.36,4.207,4.207,0,0,1-1.152.5A4.953,4.953,0,0,1,30.336,18.128Zm8.688-8.112a.861.861,0,0,1,.656.176.781.781,0,0,1,.24.624.872.872,0,0,1-.208.64,1.278,1.278,0,0,1-.752.272l-.48.048a1.944,1.944,0,0,0-1.384.64,2.093,2.093,0,0,0-.44,1.36v3.36a.888.888,0,0,1-.288.712,1.064,1.064,0,0,1-.72.248,1.034,1.034,0,0,1-.712-.248.9.9,0,0,1-.28-.712V10.944a.856.856,0,0,1,.28-.688,1.032,1.032,0,0,1,.7-.24.962.962,0,0,1,.672.232.85.85,0,0,1,.256.664v.64a2.368,2.368,0,0,1,.9-1.088,2.772,2.772,0,0,1,1.336-.432ZM41.76,18.1a1.034,1.034,0,0,1-.712-.248.9.9,0,0,1-.28-.712V10.96a.876.876,0,0,1,.28-.7,1.055,1.055,0,0,1,.712-.24,1.087,1.087,0,0,1,.72.24.864.864,0,0,1,.288.7v6.176a.888.888,0,0,1-.288.712A1.064,1.064,0,0,1,41.76,18.1Zm0-9.5a1.222,1.222,0,0,1-.864-.3,1.008,1.008,0,0,1-.32-.776.983.983,0,0,1,.32-.768,1.428,1.428,0,0,1,1.72,0,.971.971,0,0,1,.328.768,1.008,1.008,0,0,1-.32.776A1.222,1.222,0,0,1,41.76,8.592Zm7.552,1.392a3.243,3.243,0,0,1,1.8.512,3.4,3.4,0,0,1,1.232,1.448,5,5,0,0,1,.44,2.152,4.845,4.845,0,0,1-.44,2.128,3.23,3.23,0,0,1-3.032,1.9,3.1,3.1,0,0,1-1.488-.352,2.47,2.47,0,0,1-1.008-.976v3.264a.83.83,0,0,1-.272.656,1.048,1.048,0,0,1-.72.24A1.037,1.037,0,0,1,45.1,20.7a.868.868,0,0,1-.28-.672V10.96a.914.914,0,0,1,.264-.688.979.979,0,0,1,.712-.256,1.008,1.008,0,0,1,.72.256.9.9,0,0,1,.272.688v.4A2.455,2.455,0,0,1,47.8,10.344,3.121,3.121,0,0,1,49.312,9.984Zm-.528,6.592a1.793,1.793,0,0,0,1.472-.648,2.829,2.829,0,0,0,.528-1.832,2.989,2.989,0,0,0-.528-1.888,1.973,1.973,0,0,0-2.952-.016,2.952,2.952,0,0,0-.52,1.872,2.923,2.923,0,0,0,.52,1.856A1.779,1.779,0,0,0,48.784,16.576Zm9.648.032q.8.048.8.72a.651.651,0,0,1-.312.584,1.489,1.489,0,0,1-.888.168l-.432-.032a2.574,2.574,0,0,1-2.688-2.88V11.68h-.8a1.016,1.016,0,0,1-.664-.192.792.792,0,0,1,0-1.12,1.016,1.016,0,0,1,.664-.192h.8V8.7a.9.9,0,0,1,.272-.688,1.03,1.03,0,0,1,.736-.256,1.008,1.008,0,0,1,.72.256.9.9,0,0,1,.272.688v1.472h1.36a1.016,1.016,0,0,1,.664.192.792.792,0,0,1,0,1.12,1.016,1.016,0,0,1-.664.192h-1.36v3.632q0,1.184,1.088,1.264ZM61.248,18.1a1.034,1.034,0,0,1-.712-.248.9.9,0,0,1-.28-.712V10.96a.876.876,0,0,1,.28-.7,1.055,1.055,0,0,1,.712-.24,1.087,1.087,0,0,1,.72.24.864.864,0,0,1,.288.7v6.176a.888.888,0,0,1-.288.712A1.064,1.064,0,0,1,61.248,18.1Zm0-9.5a1.222,1.222,0,0,1-.864-.3,1.008,1.008,0,0,1-.32-.776.983.983,0,0,1,.32-.768,1.428,1.428,0,0,1,1.72,0,.971.971,0,0,1,.328.768,1.008,1.008,0,0,1-.32.776A1.222,1.222,0,0,1,61.248,8.592Zm8.512,2a.979.979,0,0,1,.344-.432.834.834,0,0,1,.472-.144,1.007,1.007,0,0,1,.664.248.772.772,0,0,1,.3.616.852.852,0,0,1-.1.384l-2.96,6.192a1.053,1.053,0,0,1-.408.464,1.105,1.105,0,0,1-.584.16,1.161,1.161,0,0,1-.584-.16,1.025,1.025,0,0,1-.424-.464L63.5,11.264a.812.812,0,0,1-.08-.368.78.78,0,0,1,.312-.624,1.091,1.091,0,0,1,.712-.256.892.892,0,0,1,.848.56l2.24,4.944Zm6.224-.608a3.259,3.259,0,0,1,2.424.808,3.383,3.383,0,0,1,.792,2.456v3.9a.9.9,0,0,1-.256.68.969.969,0,0,1-.7.248.936.936,0,0,1-.68-.256.894.894,0,0,1-.264-.672V16.8a2.088,2.088,0,0,1-.856.976,2.568,2.568,0,0,1-1.352.352,3.139,3.139,0,0,1-1.424-.32,2.533,2.533,0,0,1-1.008-.88,2.224,2.224,0,0,1-.368-1.248,1.977,1.977,0,0,1,.44-1.36,2.644,2.644,0,0,1,1.432-.72,13.041,13.041,0,0,1,2.736-.224h.4v-.368a1.638,1.638,0,0,0-.336-1.144,1.43,1.43,0,0,0-1.088-.36,3.452,3.452,0,0,0-.944.136q-.48.136-1.136.392a1.6,1.6,0,0,1-.608.208.6.6,0,0,1-.472-.208.791.791,0,0,1-.184-.544.819.819,0,0,1,.136-.472,1.291,1.291,0,0,1,.456-.376,5.215,5.215,0,0,1,1.336-.48A6.893,6.893,0,0,1,75.984,9.984Zm-.5,6.7a1.709,1.709,0,0,0,1.3-.536,1.939,1.939,0,0,0,.5-1.384v-.336h-.288a11.038,11.038,0,0,0-1.664.1,1.615,1.615,0,0,0-.848.336.856.856,0,0,0-.256.656,1.085,1.085,0,0,0,.36.84A1.27,1.27,0,0,0,75.488,16.688Z" transform="translate(1094 783)" fill="#38485c"/>
      <path id="Trazado_23971" data-name="Trazado 23971" d="M11.44-1.232a.985.985,0,0,1,.1.416.8.8,0,0,1-.3.624,1.009,1.009,0,0,1-.68.256.909.909,0,0,1-.48-.136A.907.907,0,0,1,9.728-.5L8.768-2.64H3.136L2.176-.5a.907.907,0,0,1-.352.424.937.937,0,0,1-.5.136A1.019,1.019,0,0,1,.656-.192a.787.787,0,0,1-.3-.624.985.985,0,0,1,.1-.416L4.864-10.72a1.032,1.032,0,0,1,.44-.488,1.26,1.26,0,0,1,.632-.168,1.26,1.26,0,0,1,.632.168,1.032,1.032,0,0,1,.44.488ZM3.84-4.24H8.064L5.952-8.992Zm2.352-7.984a.568.568,0,0,1-.256.064.494.494,0,0,1-.352-.136.418.418,0,0,1-.144-.312.507.507,0,0,1,.176-.352l1.456-1.5a.928.928,0,0,1,.688-.32.754.754,0,0,1,.552.232.736.736,0,0,1,.232.536.682.682,0,0,1-.136.4A1.141,1.141,0,0,1,8-13.28Zm11.072,4.24a.861.861,0,0,1,.656.176.781.781,0,0,1,.24.624.872.872,0,0,1-.208.64,1.278,1.278,0,0,1-.752.272l-.48.048a1.944,1.944,0,0,0-1.384.64,2.093,2.093,0,0,0-.44,1.36v3.36a.888.888,0,0,1-.288.712,1.064,1.064,0,0,1-.72.248,1.034,1.034,0,0,1-.712-.248.9.9,0,0,1-.28-.712V-7.056a.856.856,0,0,1,.28-.688,1.032,1.032,0,0,1,.7-.24.962.962,0,0,1,.672.232.85.85,0,0,1,.256.664v.64a2.368,2.368,0,0,1,.9-1.088,2.771,2.771,0,0,1,1.336-.432Zm7.776,5.84a.538.538,0,0,1,.44.208.865.865,0,0,1,.168.56.97.97,0,0,1-.592.832,5.349,5.349,0,0,1-1.232.488,5.079,5.079,0,0,1-1.312.184A4.077,4.077,0,0,1,19.52-.96a3.988,3.988,0,0,1-1.1-2.976,4.566,4.566,0,0,1,.48-2.128A3.49,3.49,0,0,1,20.248-7.5a3.829,3.829,0,0,1,1.976-.512,3.546,3.546,0,0,1,1.84.464A3.146,3.146,0,0,1,25.28-6.24a4.353,4.353,0,0,1,.432,2q0,.688-.608.688h-4.72a2.517,2.517,0,0,0,.624,1.624,2.1,2.1,0,0,0,1.536.52,2.913,2.913,0,0,0,.9-.128,8.923,8.923,0,0,0,.888-.352A1.766,1.766,0,0,1,25.04-2.144ZM22.272-6.608a1.717,1.717,0,0,0-1.3.512,2.417,2.417,0,0,0-.584,1.472H24a2.281,2.281,0,0,0-.48-1.48A1.583,1.583,0,0,0,22.272-6.608ZM30.72-8.016a3.259,3.259,0,0,1,2.424.808,3.383,3.383,0,0,1,.792,2.456v3.9a.9.9,0,0,1-.256.68.969.969,0,0,1-.7.248.936.936,0,0,1-.68-.256.894.894,0,0,1-.264-.672V-1.2a2.088,2.088,0,0,1-.856.976,2.568,2.568,0,0,1-1.352.352A3.139,3.139,0,0,1,28.4-.192a2.533,2.533,0,0,1-1.008-.88,2.224,2.224,0,0,1-.368-1.248,1.977,1.977,0,0,1,.44-1.36A2.644,2.644,0,0,1,28.9-4.4a13.041,13.041,0,0,1,2.736-.224h.4v-.368A1.638,1.638,0,0,0,31.7-6.136a1.43,1.43,0,0,0-1.088-.36,3.452,3.452,0,0,0-.944.136q-.48.136-1.136.392a1.6,1.6,0,0,1-.608.208.6.6,0,0,1-.472-.208.791.791,0,0,1-.184-.544.819.819,0,0,1,.136-.472,1.291,1.291,0,0,1,.456-.376,5.215,5.215,0,0,1,1.336-.48A6.893,6.893,0,0,1,30.72-8.016Zm-.5,6.7a1.709,1.709,0,0,0,1.3-.536,1.939,1.939,0,0,0,.5-1.384v-.336h-.288a11.038,11.038,0,0,0-1.664.1,1.616,1.616,0,0,0-.848.336.856.856,0,0,0-.256.656,1.085,1.085,0,0,0,.36.84A1.27,1.27,0,0,0,30.224-1.312ZM4.432,9.984a3.259,3.259,0,0,1,2.424.808,3.383,3.383,0,0,1,.792,2.456v3.9a.9.9,0,0,1-.256.68.969.969,0,0,1-.7.248.936.936,0,0,1-.68-.256.894.894,0,0,1-.264-.672V16.8a2.088,2.088,0,0,1-.856.976,2.568,2.568,0,0,1-1.352.352,3.139,3.139,0,0,1-1.424-.32,2.533,2.533,0,0,1-1.008-.88A2.224,2.224,0,0,1,.736,15.68a1.977,1.977,0,0,1,.44-1.36,2.644,2.644,0,0,1,1.432-.72,13.041,13.041,0,0,1,2.736-.224h.4v-.368a1.638,1.638,0,0,0-.336-1.144A1.43,1.43,0,0,0,4.32,11.5a3.452,3.452,0,0,0-.944.136q-.48.136-1.136.392a1.6,1.6,0,0,1-.608.208.6.6,0,0,1-.472-.208.791.791,0,0,1-.184-.544.819.819,0,0,1,.136-.472,1.291,1.291,0,0,1,.456-.376A5.215,5.215,0,0,1,2.9,10.16,6.893,6.893,0,0,1,4.432,9.984Zm-.5,6.7a1.709,1.709,0,0,0,1.3-.536,1.939,1.939,0,0,0,.5-1.384v-.336H5.456a11.038,11.038,0,0,0-1.664.1,1.616,1.616,0,0,0-.848.336.856.856,0,0,0-.256.656,1.085,1.085,0,0,0,.36.84A1.27,1.27,0,0,0,3.936,16.688Zm9.2,1.44a4.146,4.146,0,0,1-2.056-.5,3.381,3.381,0,0,1-1.368-1.408,4.505,4.505,0,0,1-.48-2.128,4.468,4.468,0,0,1,.5-2.152A3.56,3.56,0,0,1,11.152,10.5a4.208,4.208,0,0,1,2.1-.512,4.665,4.665,0,0,1,1.256.176,4.143,4.143,0,0,1,1.112.48.99.99,0,0,1,.512.848.9.9,0,0,1-.168.568.531.531,0,0,1-.44.216.956.956,0,0,1-.368-.08A3.223,3.223,0,0,1,14.768,12a4.3,4.3,0,0,0-.672-.328,2.088,2.088,0,0,0-.736-.12,1.871,1.871,0,0,0-1.528.648,2.855,2.855,0,0,0-.536,1.864,2.827,2.827,0,0,0,.536,1.848,1.871,1.871,0,0,0,1.528.648,1.973,1.973,0,0,0,.712-.12,6.031,6.031,0,0,0,.7-.328,3.168,3.168,0,0,1,.416-.216.923.923,0,0,1,.352-.072.531.531,0,0,1,.432.224.879.879,0,0,1,.176.56.9.9,0,0,1-.12.472,1.081,1.081,0,0,1-.392.36,4.207,4.207,0,0,1-1.152.5A4.953,4.953,0,0,1,13.136,18.128Zm7.792,0a4.146,4.146,0,0,1-2.056-.5A3.381,3.381,0,0,1,17.5,16.224a4.505,4.505,0,0,1-.48-2.128,4.468,4.468,0,0,1,.5-2.152A3.56,3.56,0,0,1,18.944,10.5a4.208,4.208,0,0,1,2.1-.512,4.665,4.665,0,0,1,1.256.176,4.143,4.143,0,0,1,1.112.48.99.99,0,0,1,.512.848.9.9,0,0,1-.168.568.531.531,0,0,1-.44.216.956.956,0,0,1-.368-.08A3.223,3.223,0,0,1,22.56,12a4.3,4.3,0,0,0-.672-.328,2.088,2.088,0,0,0-.736-.12,1.871,1.871,0,0,0-1.528.648,2.855,2.855,0,0,0-.536,1.864,2.827,2.827,0,0,0,.536,1.848,1.871,1.871,0,0,0,1.528.648,1.973,1.973,0,0,0,.712-.12,6.031,6.031,0,0,0,.7-.328,3.168,3.168,0,0,1,.416-.216.923.923,0,0,1,.352-.072.531.531,0,0,1,.432.224.879.879,0,0,1,.176.56.9.9,0,0,1-.12.472,1.081,1.081,0,0,1-.392.36,4.207,4.207,0,0,1-1.152.5A4.953,4.953,0,0,1,20.928,18.128ZM26.24,18.1a1.034,1.034,0,0,1-.712-.248.9.9,0,0,1-.28-.712V10.96a.876.876,0,0,1,.28-.7,1.055,1.055,0,0,1,.712-.24,1.087,1.087,0,0,1,.72.24.864.864,0,0,1,.288.7v6.176a.888.888,0,0,1-.288.712A1.064,1.064,0,0,1,26.24,18.1Zm0-9.5a1.222,1.222,0,0,1-.864-.3,1.008,1.008,0,0,1-.32-.776.983.983,0,0,1,.32-.768,1.428,1.428,0,0,1,1.72,0,.971.971,0,0,1,.328.768,1.008,1.008,0,0,1-.32.776A1.222,1.222,0,0,1,26.24,8.592Zm6.624,9.536a4.3,4.3,0,0,1-2.1-.5,3.432,3.432,0,0,1-1.4-1.424,4.515,4.515,0,0,1-.5-2.16,4.468,4.468,0,0,1,.5-2.152,3.444,3.444,0,0,1,1.4-1.416,4.711,4.711,0,0,1,4.208,0A3.394,3.394,0,0,1,36.36,11.9a4.527,4.527,0,0,1,.488,2.152,4.575,4.575,0,0,1-.488,2.16,3.382,3.382,0,0,1-1.392,1.424A4.3,4.3,0,0,1,32.864,18.128Zm-.016-1.552a1.793,1.793,0,0,0,1.488-.64,2.973,2.973,0,0,0,.512-1.888,2.979,2.979,0,0,0-.512-1.88,1.765,1.765,0,0,0-1.472-.648,1.788,1.788,0,0,0-1.48.648,2.946,2.946,0,0,0-.52,1.88,2.973,2.973,0,0,0,.512,1.888A1.775,1.775,0,0,0,32.848,16.576ZM43.024,9.984a2.615,2.615,0,0,1,2.1.8,3.628,3.628,0,0,1,.688,2.416v3.936a.935.935,0,0,1-.264.7,1,1,0,0,1-.728.256,1.03,1.03,0,0,1-.736-.256.92.92,0,0,1-.272-.7V13.312a2.074,2.074,0,0,0-.344-1.328,1.322,1.322,0,0,0-1.08-.416A1.826,1.826,0,0,0,41,12.112a2.019,2.019,0,0,0-.52,1.456v3.568a.92.92,0,0,1-.272.7,1.03,1.03,0,0,1-.736.256,1,1,0,0,1-.728-.256.935.935,0,0,1-.264-.7V10.944a.88.88,0,0,1,.272-.672,1.03,1.03,0,0,1,.736-.256.953.953,0,0,1,.68.248.848.848,0,0,1,.264.648v.432A2.706,2.706,0,0,1,41.5,10.336,3.226,3.226,0,0,1,43.024,9.984Zm8.192,0a3.259,3.259,0,0,1,2.424.808,3.383,3.383,0,0,1,.792,2.456v3.9a.9.9,0,0,1-.256.68.969.969,0,0,1-.7.248.936.936,0,0,1-.68-.256.894.894,0,0,1-.264-.672V16.8a2.088,2.088,0,0,1-.856.976,2.568,2.568,0,0,1-1.352.352,3.139,3.139,0,0,1-1.424-.32,2.533,2.533,0,0,1-1.008-.88,2.224,2.224,0,0,1-.368-1.248,1.977,1.977,0,0,1,.44-1.36,2.644,2.644,0,0,1,1.432-.72,13.041,13.041,0,0,1,2.736-.224h.4v-.368a1.638,1.638,0,0,0-.336-1.144A1.43,1.43,0,0,0,51.1,11.5a3.452,3.452,0,0,0-.944.136q-.48.136-1.136.392a1.6,1.6,0,0,1-.608.208.6.6,0,0,1-.472-.208.791.791,0,0,1-.184-.544.819.819,0,0,1,.136-.472,1.291,1.291,0,0,1,.456-.376,5.215,5.215,0,0,1,1.336-.48A6.893,6.893,0,0,1,51.216,9.984Zm-.5,6.7a1.709,1.709,0,0,0,1.3-.536,1.939,1.939,0,0,0,.5-1.384v-.336H52.24a11.038,11.038,0,0,0-1.664.1,1.616,1.616,0,0,0-.848.336.856.856,0,0,0-.256.656,1.085,1.085,0,0,0,.36.84A1.27,1.27,0,0,0,50.72,16.688Zm10.224-6.7a3.23,3.23,0,0,1,3.032,1.9,4.845,4.845,0,0,1,.44,2.128,5,5,0,0,1-.44,2.152,3.4,3.4,0,0,1-1.232,1.448,3.243,3.243,0,0,1-1.8.512,3.066,3.066,0,0,1-1.512-.368,2.5,2.5,0,0,1-1.016-1.024v.4a.9.9,0,0,1-.272.688,1.008,1.008,0,0,1-.72.256.979.979,0,0,1-.712-.256.914.914,0,0,1-.264-.688V7.568a.868.868,0,0,1,.28-.672,1.037,1.037,0,0,1,.728-.256,1.048,1.048,0,0,1,.72.24.83.83,0,0,1,.272.656v3.776a2.392,2.392,0,0,1,1.008-.984A3.156,3.156,0,0,1,60.944,9.984Zm-.528,6.592a1.766,1.766,0,0,0,1.472-.672,2.989,2.989,0,0,0,.528-1.888,2.854,2.854,0,0,0-.52-1.84,2.023,2.023,0,0,0-2.96.008,2.917,2.917,0,0,0-.52,1.864,2.952,2.952,0,0,0,.52,1.872A1.779,1.779,0,0,0,60.416,16.576ZM67.04,18.1a1.034,1.034,0,0,1-.712-.248.9.9,0,0,1-.28-.712V7.584a.876.876,0,0,1,.28-.7,1.055,1.055,0,0,1,.712-.24,1.087,1.087,0,0,1,.72.24.864.864,0,0,1,.288.7v9.552a.888.888,0,0,1-.288.712A1.064,1.064,0,0,1,67.04,18.1Zm9.248-2.24a.538.538,0,0,1,.44.208.865.865,0,0,1,.168.56.97.97,0,0,1-.592.832,5.349,5.349,0,0,1-1.232.488,5.079,5.079,0,0,1-1.312.184,4.077,4.077,0,0,1-2.992-1.088,3.988,3.988,0,0,1-1.1-2.976,4.566,4.566,0,0,1,.48-2.128A3.49,3.49,0,0,1,71.5,10.5a3.829,3.829,0,0,1,1.976-.512,3.546,3.546,0,0,1,1.84.464,3.146,3.146,0,0,1,1.216,1.312,4.353,4.353,0,0,1,.432,2q0,.688-.608.688h-4.72a2.517,2.517,0,0,0,.624,1.624,2.1,2.1,0,0,0,1.536.52,2.913,2.913,0,0,0,.9-.128,8.923,8.923,0,0,0,.888-.352A1.766,1.766,0,0,1,76.288,15.856ZM73.52,11.392a1.717,1.717,0,0,0-1.3.512,2.417,2.417,0,0,0-.584,1.472h3.616a2.281,2.281,0,0,0-.48-1.48A1.583,1.583,0,0,0,73.52,11.392Z" transform="translate(1094 856)" fill="#38485c"/>
    </g>
  </g>
</svg>
