<svg xmlns="http://www.w3.org/2000/svg" width="712" height="356" viewBox="0 0 712 356"><defs><style>.a{fill:#f3f6f9;}.b,.d{fill:#d1d8e0;}.b,.e{stroke:#38485c;stroke-dasharray:5 2;}.c{fill:#fff;}.e{fill:#9eaab8;}</style></defs><g transform="translate(-885 -4959)"><rect class="a" width="712" height="356" rx="8" transform="translate(885 4959)"/><path class="b" transform="translate(1081.242 5053.423)"/><path class="b" transform="translate(1401.853 5053.79) rotate(90)"/><rect class="c" width="532.54" height="254.666" transform="translate(969.694 5009.259)"/><rect class="d" width="36" height="256" transform="translate(977 5009)"/><rect class="d" width="36" height="256" transform="translate(1021 5009)"/><rect class="d" width="36" height="256" transform="translate(1065 5009)"/><rect class="d" width="36" height="256" transform="translate(1109 5009)"/><rect class="d" width="36" height="256" transform="translate(1153 5009)"/><rect class="d" width="36" height="256" transform="translate(1197 5009)"/><rect class="d" width="36" height="256" transform="translate(1241 5009)"/><rect class="d" width="36" height="256" transform="translate(1285 5009)"/><rect class="d" width="36" height="256" transform="translate(1329 5009)"/><rect class="d" width="36" height="256" transform="translate(1373 5009)"/><rect class="d" width="36" height="256" transform="translate(1417 5009)"/><rect class="d" width="35" height="256" transform="translate(1461 5009)"/><g transform="translate(968.765 5009.259)"><path class="e" d="M0,255.489V0" transform="translate(533.469 0.188)"/><path class="e" d="M0,255.489V0" transform="translate(0 0.188)"/><path class="e" d="M0,533.075V0" transform="translate(533.076 255.679) rotate(90)"/><path class="e" d="M0,533.075V0" transform="translate(533.076) rotate(90)"/></g></g></svg>