<svg xmlns="http://www.w3.org/2000/svg" width="340" height="356" viewBox="0 0 340 356"><defs><style>.a{fill:#f3f6f9;}.b{fill:#fff;}.c,.d{fill:#d1d8e0;}.c,.e{stroke:#38485c;stroke-dasharray:5 2;}.e{fill:#9eaab8;}</style></defs><g transform="translate(12335 5781)"><rect class="a" width="340" height="356" rx="8" transform="translate(-12335 -5781)"/><g transform="translate(-98)"><rect class="b" width="192" height="256" transform="translate(-12163 -5731)"/><path class="c" transform="translate(-12138.758 -5686.577)"/><path class="c" transform="translate(-11986.146 -5686.21) rotate(90)"/><rect class="d" width="18" height="256" transform="translate(-12155 -5731)"/><rect class="d" width="18" height="256" transform="translate(-12132 -5731)"/><rect class="d" width="18" height="256" transform="translate(-12110 -5731)"/><rect class="d" width="18" height="256" transform="translate(-12087 -5731)"/><rect class="d" width="18" height="256" transform="translate(-12065 -5731)"/><rect class="d" width="18" height="256" transform="translate(-12042 -5731)"/><rect class="d" width="18" height="256" transform="translate(-12020 -5731)"/><rect class="d" width="18" height="256" transform="translate(-11997 -5731)"/><path class="e" d="M0,255.489V0" transform="translate(-11971 -5730.553)"/><path class="e" d="M0,255.489V0" transform="translate(-12162.5 -5730.5)"/><path class="e" d="M0,191.605V0" transform="translate(-11971.395 -5475.063) rotate(90)"/><path class="e" d="M0,191.605V0" transform="translate(-11971.395 -5730.741) rotate(90)"/></g></g></svg>