<svg xmlns="http://www.w3.org/2000/svg" width="712" height="200" viewBox="0 0 712 200"><defs><style>.a{fill:#f3f6f9;}.b,.c{fill:#38485c;}.b{font-size:16px;font-family:OpenSans-Regular, Open Sans;}.c{font-size:21px;font-family:Nunito-SemiBold, Nunito;font-weight:600;letter-spacing:-0.001em;}.d,.e{fill:#505e70;}.e,.f{stroke:#f3f6f9;}.f{fill:#d1d8e0;}.g{stroke:none;}.h{fill:none;}</style></defs><g transform="translate(-513 -1062)"><rect class="a" width="712" height="200" rx="4" transform="translate(513 1062)"/><g transform="translate(45 66)"><text class="b" transform="translate(574 1150)"><tspan x="0" y="0">4 px</tspan></text><text class="c" transform="translate(574 1122)"><tspan x="0" y="0">Unidad mínima</tspan></text><rect class="d" width="18" height="18" transform="translate(575 1093) rotate(-90)"/></g><g transform="translate(-35 66)"><text class="b" transform="translate(1009 1150)"><tspan x="0" y="0">32 px</tspan></text><text class="c" transform="translate(1009 1122)"><tspan x="0" y="0">Ancho medianil</tspan></text><g class="e" transform="translate(1009 1093) rotate(-90)"><rect class="g" width="35" height="35"/><rect class="h" x="0.5" y="0.5" width="34" height="34"/></g><g class="f" transform="translate(1044 1093) rotate(-90)"><rect class="g" width="35" height="35"/><rect class="h" x="0.5" y="0.5" width="34" height="34"/></g><g class="f" transform="translate(1079 1093) rotate(-90)"><rect class="g" width="35" height="35"/><rect class="h" x="0.5" y="0.5" width="34" height="34"/></g><g class="f" transform="translate(1114 1093) rotate(-90)"><rect class="g" width="35" height="35"/><rect class="h" x="0.5" y="0.5" width="34" height="34"/></g></g></g></svg>