<svg xmlns="http://www.w3.org/2000/svg" width="340" height="170" viewBox="0 0 340 170"><defs><style>.a{fill:#f3f6f9;}.b{fill:#fff;}.c{fill:#d1d8e0;}.d{fill:#9eaab8;stroke:#38485c;stroke-dasharray:5 2;}</style></defs><g transform="translate(-885 -5175)"><rect class="a" width="340" height="170" rx="8" transform="translate(885 5175)"/><rect class="b" width="302.3" height="121.61" transform="translate(904 5199)"/><g transform="translate(2)"><rect class="c" width="17" height="122" transform="translate(929 5199)"/><rect class="c" width="17" height="122" transform="translate(950 5199)"/><rect class="c" width="17" height="122" transform="translate(971 5199)"/><rect class="c" width="17" height="122" transform="translate(992 5199)"/><rect class="c" width="17" height="122" transform="translate(1013 5199)"/><rect class="c" width="17" height="122" transform="translate(1034 5199)"/><rect class="c" width="17" height="122" transform="translate(1055 5199)"/><rect class="c" width="17" height="122" transform="translate(1076 5199)"/><rect class="c" width="17" height="122" transform="translate(1097 5199)"/><rect class="c" width="17" height="122" transform="translate(1118 5199)"/><rect class="c" width="17" height="122" transform="translate(1139 5199)"/><rect class="c" width="17" height="122" transform="translate(1160 5199)"/></g><g transform="translate(903.554 5199)"><path class="d" d="M0,122V0" transform="translate(302.746 0.09)"/><path class="d" d="M0,122V0" transform="translate(0 0.09)"/><path class="d" d="M0,302.558V0" transform="translate(302.558 122.094) rotate(90)"/><path class="d" d="M0,302.558V0" transform="translate(302.558) rotate(90)"/></g></g></svg>