<svg xmlns="http://www.w3.org/2000/svg" width="340" height="170" viewBox="0 0 340 170"><defs><style>.a{fill:#f3f6f9;}.b{fill:#fff;}.c,.d{fill:#d1d8e0;}.c{stroke:#38485c;stroke-dasharray:5 2;}.e{fill:#38485c;}</style></defs><g transform="translate(-885 -5597)"><rect class="a" width="340" height="170" rx="8" transform="translate(885 5597)"/><rect class="b" width="302.3" height="121.61" rx="4" transform="translate(904 5621)"/><g transform="translate(2 191)"><path class="c" transform="translate(978.711 5430.09)"/><path class="c" transform="translate(1131.812 5430.265) rotate(90)"/><rect class="d" width="17" height="122" transform="translate(929 5430)"/><rect class="d" width="17" height="122" transform="translate(950 5430)"/><rect class="d" width="17" height="122" transform="translate(971 5430)"/><rect class="d" width="17" height="122" transform="translate(992 5430)"/><rect class="d" width="17" height="122" transform="translate(1013 5430)"/><rect class="d" width="17" height="122" transform="translate(1034 5430)"/><rect class="d" width="17" height="122" transform="translate(1055 5430)"/><rect class="d" width="17" height="122" transform="translate(1076 5430)"/><rect class="d" width="17" height="122" transform="translate(1097 5430)"/><rect class="d" width="17" height="122" transform="translate(1118 5430)"/><rect class="d" width="17" height="122" transform="translate(1139 5430)"/><rect class="d" width="17" height="122" transform="translate(1160 5430)"/></g><rect class="e" width="4" height="122" transform="translate(948 5621)"/><rect class="e" width="4" height="122" transform="translate(969 5621)"/><rect class="e" width="4" height="122" transform="translate(990 5621)"/><rect class="e" width="4" height="122" transform="translate(1011 5621)"/><rect class="e" width="4" height="122" transform="translate(1032 5621)"/><rect class="e" width="4" height="122" transform="translate(1053 5621)"/><rect class="e" width="4" height="122" transform="translate(1074 5621)"/><rect class="e" width="4" height="122" transform="translate(1095 5621)"/><rect class="e" width="4" height="122" transform="translate(1116 5621)"/><rect class="e" width="4" height="122" transform="translate(1137 5621)"/><rect class="e" width="4" height="122" transform="translate(1158 5621)"/></g></svg>