<svg xmlns="http://www.w3.org/2000/svg" width="340" height="170" viewBox="0 0 340 170"><defs><style>.a{fill:#f3f6f9;}.b{fill:#fff;}.c,.d{fill:#d1d8e0;}.c{stroke:#38485c;stroke-dasharray:5 2;}.e{fill:#38485c;}</style></defs><g transform="translate(-885 -6057)"><rect class="a" width="340" height="170" rx="8" transform="translate(885 6057)"/><rect class="b" width="302.3" height="121.61" rx="4" transform="translate(904 6081)"/><g transform="translate(2 651)"><path class="c" transform="translate(978.711 5430.09)"/><path class="c" transform="translate(1131.812 5430.265) rotate(90)"/><rect class="d" width="17" height="122" transform="translate(929 5430)"/><rect class="d" width="17" height="122" transform="translate(950 5430)"/><rect class="d" width="17" height="122" transform="translate(971 5430)"/><rect class="d" width="17" height="122" transform="translate(992 5430)"/><rect class="d" width="17" height="122" transform="translate(1013 5430)"/><rect class="d" width="17" height="122" transform="translate(1034 5430)"/><rect class="d" width="17" height="122" transform="translate(1055 5430)"/><rect class="d" width="17" height="122" transform="translate(1076 5430)"/><rect class="d" width="17" height="122" transform="translate(1097 5430)"/><rect class="d" width="17" height="122" transform="translate(1118 5430)"/><rect class="d" width="17" height="122" transform="translate(1139 5430)"/><rect class="d" width="17" height="122" transform="translate(1160 5430)"/></g><rect class="e" width="164" height="24" transform="translate(931 6085)"/><rect class="e" width="80" height="24" transform="translate(1099 6085)"/><g transform="translate(0 1)"><rect class="e" width="80" height="24" transform="translate(931 6114)"/><rect class="e" width="164" height="24" transform="translate(1015 6114)"/></g><rect class="e" width="80" height="24" transform="translate(931 6175)"/><rect class="e" width="80" height="24" transform="translate(1015 6175)"/><rect class="e" width="80" height="24" transform="translate(1099 6175)"/><g transform="translate(0 -1)"><rect class="e" width="59" height="24" transform="translate(931 6146)"/><rect class="e" width="59" height="24" transform="translate(994 6146)"/><rect class="e" width="59" height="24" transform="translate(1057 6146)"/><rect class="e" width="59" height="24" transform="translate(1120 6146)"/></g></g></svg>