<svg width="342" height="260" viewBox="0 0 342 260" fill="none" xmlns="http://www.w3.org/2000/svg">
<rect x="1" y="1" width="340" height="212" rx="9" fill="#F3F6F9" stroke="#E6EBF0" stroke-width="2"/>
<path d="M135.25 226.539C134.738 226.539 134.277 226.627 133.866 226.805C133.46 226.979 133.113 227.233 132.825 227.567C132.542 227.897 132.324 228.297 132.171 228.767C132.019 229.236 131.943 229.765 131.943 230.354C131.943 231.132 132.063 231.809 132.305 232.385C132.55 232.956 132.914 233.398 133.396 233.711C133.883 234.025 134.49 234.181 135.218 234.181C135.633 234.181 136.022 234.147 136.386 234.08C136.754 234.008 137.112 233.919 137.459 233.813V234.752C137.12 234.879 136.765 234.972 136.393 235.032C136.02 235.095 135.578 235.127 135.066 235.127C134.122 235.127 133.333 234.932 132.698 234.543C132.068 234.149 131.594 233.595 131.276 232.88C130.963 232.165 130.807 231.32 130.807 230.347C130.807 229.645 130.904 229.004 131.099 228.424C131.298 227.84 131.585 227.336 131.962 226.913C132.343 226.49 132.808 226.164 133.358 225.936C133.913 225.703 134.548 225.586 135.263 225.586C135.732 225.586 136.185 225.633 136.621 225.726C137.057 225.819 137.451 225.952 137.802 226.126L137.37 227.04C137.074 226.905 136.748 226.788 136.393 226.691C136.041 226.589 135.66 226.539 135.25 226.539ZM145.311 231.509C145.311 232.08 145.237 232.59 145.089 233.039C144.941 233.487 144.727 233.866 144.448 234.175C144.168 234.484 143.83 234.721 143.432 234.886C143.039 235.047 142.592 235.127 142.093 235.127C141.627 235.127 141.2 235.047 140.811 234.886C140.425 234.721 140.091 234.484 139.808 234.175C139.528 233.866 139.31 233.487 139.154 233.039C139.001 232.59 138.925 232.08 138.925 231.509C138.925 230.747 139.054 230.1 139.312 229.566C139.571 229.029 139.939 228.621 140.417 228.341C140.899 228.058 141.473 227.916 142.137 227.916C142.772 227.916 143.326 228.058 143.8 228.341C144.278 228.625 144.649 229.035 144.911 229.573C145.178 230.106 145.311 230.751 145.311 231.509ZM140.017 231.509C140.017 232.067 140.091 232.552 140.239 232.962C140.387 233.373 140.616 233.69 140.925 233.915C141.234 234.139 141.632 234.251 142.118 234.251C142.601 234.251 142.996 234.139 143.305 233.915C143.618 233.69 143.849 233.373 143.997 232.962C144.145 232.552 144.219 232.067 144.219 231.509C144.219 230.954 144.145 230.476 143.997 230.074C143.849 229.668 143.62 229.355 143.312 229.135C143.003 228.915 142.603 228.805 142.112 228.805C141.388 228.805 140.857 229.044 140.519 229.522C140.184 230 140.017 230.662 140.017 231.509ZM150.427 227.916C151.252 227.916 151.877 228.119 152.3 228.525C152.723 228.927 152.935 229.575 152.935 230.468V235H151.894V230.538C151.894 229.958 151.76 229.524 151.494 229.236C151.231 228.949 150.827 228.805 150.281 228.805C149.511 228.805 148.969 229.023 148.656 229.458C148.343 229.894 148.187 230.527 148.187 231.356V235H147.133V228.043H147.983L148.142 229.046H148.199C148.347 228.8 148.536 228.595 148.764 228.43C148.993 228.261 149.249 228.134 149.532 228.049C149.816 227.96 150.114 227.916 150.427 227.916ZM161.777 227.916C162.602 227.916 163.226 228.119 163.649 228.525C164.073 228.927 164.284 229.575 164.284 230.468V235H163.243V230.538C163.243 229.958 163.11 229.524 162.843 229.236C162.581 228.949 162.177 228.805 161.631 228.805C160.861 228.805 160.319 229.023 160.006 229.458C159.693 229.894 159.536 230.527 159.536 231.356V235H158.482V228.043H159.333L159.492 229.046H159.549C159.697 228.8 159.885 228.595 160.114 228.43C160.342 228.261 160.598 228.134 160.882 228.049C161.165 227.96 161.464 227.916 161.777 227.916ZM172.2 228.043V235H171.336L171.184 234.022H171.127C170.983 234.264 170.797 234.467 170.568 234.632C170.34 234.797 170.082 234.92 169.794 235C169.51 235.085 169.208 235.127 168.886 235.127C168.336 235.127 167.875 235.038 167.502 234.86C167.13 234.683 166.849 234.408 166.658 234.035C166.472 233.663 166.379 233.185 166.379 232.601V228.043H167.445V232.524C167.445 233.104 167.576 233.538 167.839 233.826C168.101 234.109 168.501 234.251 169.039 234.251C169.555 234.251 169.965 234.154 170.27 233.959C170.579 233.764 170.801 233.479 170.937 233.102C171.072 232.721 171.14 232.256 171.14 231.706V228.043H172.2ZM171.171 225.041V225.167C171.087 225.29 170.97 225.438 170.822 225.612C170.678 225.781 170.518 225.961 170.34 226.151C170.162 226.338 169.982 226.515 169.8 226.685C169.623 226.854 169.458 227 169.305 227.123H168.601V226.97C168.736 226.809 168.884 226.617 169.045 226.393C169.206 226.164 169.362 225.931 169.515 225.694C169.667 225.453 169.794 225.235 169.896 225.041H171.171ZM181.981 227.916C182.747 227.916 183.325 228.117 183.714 228.519C184.104 228.917 184.298 229.558 184.298 230.442V235H183.257V230.493C183.257 229.93 183.135 229.509 182.889 229.23C182.648 228.946 182.288 228.805 181.81 228.805C181.137 228.805 180.648 228.999 180.344 229.389C180.039 229.778 179.887 230.351 179.887 231.109V235H178.839V230.493C178.839 230.117 178.784 229.803 178.674 229.554C178.569 229.304 178.408 229.118 178.192 228.995C177.98 228.868 177.712 228.805 177.386 228.805C176.924 228.805 176.554 228.9 176.275 229.09C175.996 229.281 175.792 229.564 175.666 229.941C175.543 230.313 175.481 230.772 175.481 231.318V235H174.428V228.043H175.278L175.437 229.027H175.494C175.634 228.786 175.809 228.583 176.021 228.417C176.233 228.252 176.47 228.128 176.732 228.043C176.994 227.958 177.274 227.916 177.57 227.916C178.099 227.916 178.541 228.015 178.896 228.214C179.256 228.409 179.516 228.707 179.677 229.109H179.734C179.963 228.707 180.276 228.409 180.674 228.214C181.072 228.015 181.507 227.916 181.981 227.916ZM189.142 227.916C189.734 227.916 190.242 228.047 190.665 228.31C191.088 228.572 191.412 228.94 191.636 229.414C191.861 229.884 191.973 230.434 191.973 231.064V231.718H187.167C187.18 232.535 187.383 233.157 187.777 233.584C188.17 234.012 188.725 234.226 189.44 234.226C189.88 234.226 190.269 234.185 190.608 234.105C190.946 234.025 191.298 233.906 191.662 233.75V234.676C191.31 234.833 190.961 234.947 190.614 235.019C190.271 235.091 189.865 235.127 189.396 235.127C188.727 235.127 188.143 234.992 187.644 234.721C187.148 234.446 186.763 234.044 186.488 233.515C186.213 232.986 186.076 232.338 186.076 231.572C186.076 230.823 186.201 230.176 186.45 229.63C186.704 229.08 187.06 228.657 187.517 228.36C187.978 228.064 188.52 227.916 189.142 227.916ZM189.129 228.779C188.566 228.779 188.118 228.963 187.783 229.332C187.449 229.7 187.25 230.214 187.187 230.874H190.868C190.864 230.459 190.798 230.095 190.671 229.782C190.549 229.465 190.36 229.219 190.106 229.046C189.853 228.868 189.527 228.779 189.129 228.779ZM196.924 227.916C197.063 227.916 197.209 227.924 197.362 227.941C197.514 227.954 197.65 227.973 197.768 227.999L197.635 228.976C197.521 228.946 197.394 228.923 197.254 228.906C197.114 228.889 196.983 228.881 196.86 228.881C196.581 228.881 196.317 228.938 196.067 229.052C195.821 229.162 195.606 229.323 195.419 229.535C195.233 229.742 195.087 229.994 194.981 230.29C194.876 230.582 194.823 230.908 194.823 231.268V235H193.763V228.043H194.639L194.753 229.325H194.797C194.941 229.067 195.115 228.832 195.318 228.621C195.521 228.405 195.756 228.233 196.022 228.106C196.293 227.979 196.594 227.916 196.924 227.916ZM205.081 231.509C205.081 232.08 205.007 232.59 204.858 233.039C204.71 233.487 204.497 233.866 204.217 234.175C203.938 234.484 203.599 234.721 203.202 234.886C202.808 235.047 202.362 235.127 201.862 235.127C201.397 235.127 200.969 235.047 200.58 234.886C200.195 234.721 199.861 234.484 199.577 234.175C199.298 233.866 199.08 233.487 198.923 233.039C198.771 232.59 198.695 232.08 198.695 231.509C198.695 230.747 198.824 230.1 199.082 229.566C199.34 229.029 199.708 228.621 200.187 228.341C200.669 228.058 201.242 227.916 201.907 227.916C202.542 227.916 203.096 228.058 203.57 228.341C204.048 228.625 204.418 229.035 204.681 229.573C204.947 230.106 205.081 230.751 205.081 231.509ZM199.787 231.509C199.787 232.067 199.861 232.552 200.009 232.962C200.157 233.373 200.385 233.69 200.694 233.915C201.003 234.139 201.401 234.251 201.888 234.251C202.37 234.251 202.766 234.139 203.075 233.915C203.388 233.69 203.618 233.373 203.767 232.962C203.915 232.552 203.989 232.067 203.989 231.509C203.989 230.954 203.915 230.476 203.767 230.074C203.618 229.668 203.39 229.355 203.081 229.135C202.772 228.915 202.372 228.805 201.881 228.805C201.158 228.805 200.627 229.044 200.288 229.522C199.954 230 199.787 230.662 199.787 231.509ZM211.403 233.096C211.403 233.54 211.291 233.915 211.066 234.219C210.846 234.52 210.529 234.746 210.114 234.898C209.704 235.051 209.213 235.127 208.642 235.127C208.155 235.127 207.734 235.089 207.378 235.013C207.023 234.937 206.712 234.829 206.445 234.689V233.718C206.729 233.857 207.067 233.984 207.461 234.099C207.854 234.213 208.257 234.27 208.667 234.27C209.268 234.27 209.704 234.173 209.975 233.978C210.245 233.783 210.381 233.519 210.381 233.185C210.381 232.994 210.326 232.827 210.216 232.683C210.11 232.535 209.93 232.393 209.676 232.258C209.422 232.118 209.071 231.966 208.623 231.801C208.178 231.632 207.793 231.464 207.467 231.299C207.146 231.13 206.896 230.925 206.718 230.684C206.545 230.442 206.458 230.129 206.458 229.744C206.458 229.156 206.695 228.705 207.169 228.392C207.647 228.075 208.273 227.916 209.048 227.916C209.467 227.916 209.858 227.958 210.222 228.043C210.59 228.123 210.933 228.233 211.25 228.373L210.895 229.217C210.607 229.095 210.3 228.991 209.975 228.906C209.649 228.822 209.317 228.779 208.978 228.779C208.491 228.779 208.117 228.86 207.854 229.021C207.596 229.181 207.467 229.401 207.467 229.681C207.467 229.896 207.527 230.074 207.645 230.214C207.768 230.354 207.962 230.485 208.229 230.607C208.496 230.73 208.847 230.874 209.283 231.039C209.719 231.2 210.095 231.367 210.413 231.541C210.73 231.71 210.973 231.917 211.143 232.163C211.316 232.404 211.403 232.715 211.403 233.096Z" fill="#38485C"/>
<path d="M72.1416 251.439C72.1416 250.724 72.2093 250.028 72.3447 249.351C72.4844 248.674 72.696 248.028 72.9795 247.415C73.263 246.801 73.6206 246.236 74.0522 245.72H75.0615C74.4479 246.524 73.9867 247.417 73.6777 248.398C73.3688 249.38 73.2144 250.389 73.2144 251.426C73.2144 252.103 73.2821 252.772 73.4175 253.432C73.5571 254.088 73.7624 254.721 74.0332 255.33C74.3083 255.939 74.6468 256.515 75.0488 257.057H74.0522C73.6206 256.549 73.263 255.994 72.9795 255.394C72.696 254.797 72.4844 254.164 72.3447 253.496C72.2093 252.827 72.1416 252.141 72.1416 251.439ZM81.0664 253.096C81.0664 253.54 80.9543 253.915 80.73 254.219C80.5099 254.52 80.1925 254.746 79.7778 254.898C79.3674 255.051 78.8765 255.127 78.3052 255.127C77.8185 255.127 77.3975 255.089 77.042 255.013C76.6865 254.937 76.3755 254.829 76.1089 254.689V253.718C76.3924 253.857 76.731 253.984 77.1245 254.099C77.5181 254.213 77.9201 254.27 78.3306 254.27C78.9315 254.27 79.3674 254.173 79.6382 253.978C79.909 253.783 80.0444 253.519 80.0444 253.185C80.0444 252.994 79.9894 252.827 79.8794 252.683C79.7736 252.535 79.5938 252.393 79.3398 252.258C79.0859 252.118 78.7347 251.966 78.2861 251.801C77.8418 251.632 77.4567 251.464 77.1309 251.299C76.8092 251.13 76.5596 250.925 76.3818 250.684C76.2083 250.442 76.1216 250.129 76.1216 249.744C76.1216 249.156 76.3586 248.705 76.8325 248.392C77.3107 248.075 77.937 247.916 78.7114 247.916C79.1304 247.916 79.5218 247.958 79.8857 248.043C80.2539 248.123 80.5967 248.233 80.9141 248.373L80.5586 249.217C80.2708 249.095 79.964 248.991 79.6382 248.906C79.3123 248.822 78.9801 248.779 78.6416 248.779C78.1549 248.779 77.7804 248.86 77.5181 249.021C77.2599 249.181 77.1309 249.401 77.1309 249.681C77.1309 249.896 77.1901 250.074 77.3086 250.214C77.4313 250.354 77.626 250.485 77.8926 250.607C78.1592 250.73 78.5104 250.874 78.9463 251.039C79.3822 251.2 79.7588 251.367 80.0762 251.541C80.3936 251.71 80.6369 251.917 80.8062 252.163C80.9797 252.404 81.0664 252.715 81.0664 253.096ZM83.8149 248.043V255H82.7612V248.043H83.8149ZM83.3008 245.44C83.4743 245.44 83.6224 245.498 83.7451 245.612C83.8721 245.722 83.9355 245.895 83.9355 246.132C83.9355 246.365 83.8721 246.539 83.7451 246.653C83.6224 246.767 83.4743 246.824 83.3008 246.824C83.1188 246.824 82.9665 246.767 82.8438 246.653C82.7253 246.539 82.666 246.365 82.666 246.132C82.666 245.895 82.7253 245.722 82.8438 245.612C82.9665 245.498 83.1188 245.44 83.3008 245.44ZM88.728 247.916C89.3205 247.916 89.8283 248.047 90.2515 248.31C90.6746 248.572 90.9984 248.94 91.2227 249.414C91.4469 249.884 91.5591 250.434 91.5591 251.064V251.718H86.7539C86.7666 252.535 86.9697 253.157 87.3633 253.584C87.7568 254.012 88.3112 254.226 89.0264 254.226C89.4665 254.226 89.8558 254.185 90.1943 254.105C90.5329 254.025 90.8841 253.906 91.248 253.75V254.676C90.8968 254.833 90.5477 254.947 90.2007 255.019C89.8579 255.091 89.4517 255.127 88.9819 255.127C88.3133 255.127 87.7293 254.992 87.23 254.721C86.7349 254.446 86.3498 254.044 86.0747 253.515C85.7996 252.986 85.6621 252.338 85.6621 251.572C85.6621 250.823 85.7869 250.176 86.0366 249.63C86.2905 249.08 86.646 248.657 87.103 248.36C87.5643 248.064 88.106 247.916 88.728 247.916ZM88.7153 248.779C88.1525 248.779 87.7039 248.963 87.3696 249.332C87.0353 249.7 86.8364 250.214 86.7729 250.874H90.4546C90.4504 250.459 90.3848 250.095 90.2578 249.782C90.1351 249.465 89.9468 249.219 89.6929 249.046C89.439 248.868 89.1131 248.779 88.7153 248.779ZM100.903 247.916C101.669 247.916 102.246 248.117 102.636 248.519C103.025 248.917 103.22 249.558 103.22 250.442V255H102.179V250.493C102.179 249.93 102.056 249.509 101.811 249.23C101.569 248.946 101.21 248.805 100.731 248.805C100.059 248.805 99.5698 248.999 99.2651 249.389C98.9604 249.778 98.8081 250.351 98.8081 251.109V255H97.7607V250.493C97.7607 250.117 97.7057 249.803 97.5957 249.554C97.4899 249.304 97.3291 249.118 97.1133 248.995C96.9017 248.868 96.633 248.805 96.3071 248.805C95.8459 248.805 95.4756 248.9 95.1963 249.09C94.917 249.281 94.7139 249.564 94.5869 249.941C94.4642 250.313 94.4028 250.772 94.4028 251.318V255H93.3491V248.043H94.1997L94.3584 249.027H94.4155C94.5552 248.786 94.7308 248.583 94.9424 248.417C95.154 248.252 95.391 248.128 95.6533 248.043C95.9157 247.958 96.195 247.916 96.4912 247.916C97.0202 247.916 97.4624 248.015 97.8179 248.214C98.1776 248.409 98.4378 248.707 98.5986 249.109H98.6558C98.8843 248.707 99.1974 248.409 99.5952 248.214C99.993 248.015 100.429 247.916 100.903 247.916ZM108.653 247.916C109.521 247.916 110.213 248.214 110.729 248.811C111.245 249.408 111.503 250.305 111.503 251.502C111.503 252.294 111.385 252.958 111.148 253.496C110.911 254.033 110.577 254.439 110.145 254.714C109.718 254.989 109.212 255.127 108.628 255.127C108.26 255.127 107.936 255.078 107.657 254.981C107.377 254.884 107.138 254.752 106.939 254.587C106.741 254.422 106.576 254.243 106.444 254.048H106.368C106.381 254.213 106.396 254.412 106.413 254.645C106.434 254.877 106.444 255.08 106.444 255.254V258.11H105.384V248.043H106.254L106.394 249.071H106.444C106.58 248.86 106.745 248.667 106.939 248.494C107.134 248.316 107.371 248.176 107.65 248.075C107.934 247.969 108.268 247.916 108.653 247.916ZM108.469 248.805C107.987 248.805 107.597 248.898 107.301 249.084C107.009 249.27 106.796 249.549 106.66 249.922C106.525 250.29 106.453 250.753 106.444 251.312V251.515C106.444 252.103 106.508 252.601 106.635 253.007C106.766 253.413 106.98 253.722 107.276 253.934C107.576 254.145 107.978 254.251 108.482 254.251C108.914 254.251 109.273 254.135 109.561 253.902C109.849 253.669 110.062 253.345 110.202 252.931C110.346 252.512 110.418 252.031 110.418 251.49C110.418 250.669 110.257 250.017 109.936 249.535C109.618 249.048 109.129 248.805 108.469 248.805ZM116.505 247.916C116.645 247.916 116.791 247.924 116.943 247.941C117.096 247.954 117.231 247.973 117.35 247.999L117.216 248.976C117.102 248.946 116.975 248.923 116.835 248.906C116.696 248.889 116.565 248.881 116.442 248.881C116.163 248.881 115.898 248.938 115.648 249.052C115.403 249.162 115.187 249.323 115.001 249.535C114.815 249.742 114.669 249.994 114.563 250.29C114.457 250.582 114.404 250.908 114.404 251.268V255H113.344V248.043H114.22L114.334 249.325H114.379C114.523 249.067 114.696 248.832 114.899 248.621C115.103 248.405 115.337 248.233 115.604 248.106C115.875 247.979 116.175 247.916 116.505 247.916ZM121.342 247.916C121.935 247.916 122.443 248.047 122.866 248.31C123.289 248.572 123.613 248.94 123.837 249.414C124.061 249.884 124.173 250.434 124.173 251.064V251.718H119.368C119.381 252.535 119.584 253.157 119.978 253.584C120.371 254.012 120.925 254.226 121.641 254.226C122.081 254.226 122.47 254.185 122.809 254.105C123.147 254.025 123.498 253.906 123.862 253.75V254.676C123.511 254.833 123.162 254.947 122.815 255.019C122.472 255.091 122.066 255.127 121.596 255.127C120.928 255.127 120.344 254.992 119.844 254.721C119.349 254.446 118.964 254.044 118.689 253.515C118.414 252.986 118.276 252.338 118.276 251.572C118.276 250.823 118.401 250.176 118.651 249.63C118.905 249.08 119.26 248.657 119.717 248.36C120.179 248.064 120.72 247.916 121.342 247.916ZM121.33 248.779C120.767 248.779 120.318 248.963 119.984 249.332C119.65 249.7 119.451 250.214 119.387 250.874H123.069C123.065 250.459 122.999 250.095 122.872 249.782C122.749 249.465 122.561 249.219 122.307 249.046C122.053 248.868 121.727 248.779 121.33 248.779ZM133.841 253.096C133.841 253.54 133.729 253.915 133.504 254.219C133.284 254.52 132.967 254.746 132.552 254.898C132.142 255.051 131.651 255.127 131.08 255.127C130.593 255.127 130.172 255.089 129.816 255.013C129.461 254.937 129.15 254.829 128.883 254.689V253.718C129.167 253.857 129.505 253.984 129.899 254.099C130.292 254.213 130.694 254.27 131.105 254.27C131.706 254.27 132.142 254.173 132.413 253.978C132.683 253.783 132.819 253.519 132.819 253.185C132.819 252.994 132.764 252.827 132.654 252.683C132.548 252.535 132.368 252.393 132.114 252.258C131.86 252.118 131.509 251.966 131.061 251.801C130.616 251.632 130.231 251.464 129.905 251.299C129.584 251.13 129.334 250.925 129.156 250.684C128.983 250.442 128.896 250.129 128.896 249.744C128.896 249.156 129.133 248.705 129.607 248.392C130.085 248.075 130.711 247.916 131.486 247.916C131.905 247.916 132.296 247.958 132.66 248.043C133.028 248.123 133.371 248.233 133.688 248.373L133.333 249.217C133.045 249.095 132.738 248.991 132.413 248.906C132.087 248.822 131.755 248.779 131.416 248.779C130.929 248.779 130.555 248.86 130.292 249.021C130.034 249.181 129.905 249.401 129.905 249.681C129.905 249.896 129.965 250.074 130.083 250.214C130.206 250.354 130.4 250.485 130.667 250.607C130.934 250.73 131.285 250.874 131.721 251.039C132.157 251.2 132.533 251.367 132.851 251.541C133.168 251.71 133.411 251.917 133.581 252.163C133.754 252.404 133.841 252.715 133.841 253.096ZM138.214 247.916C138.807 247.916 139.315 248.047 139.738 248.31C140.161 248.572 140.485 248.94 140.709 249.414C140.933 249.884 141.045 250.434 141.045 251.064V251.718H136.24C136.253 252.535 136.456 253.157 136.85 253.584C137.243 254.012 137.798 254.226 138.513 254.226C138.953 254.226 139.342 254.185 139.681 254.105C140.019 254.025 140.37 253.906 140.734 253.75V254.676C140.383 254.833 140.034 254.947 139.687 255.019C139.344 255.091 138.938 255.127 138.468 255.127C137.8 255.127 137.216 254.992 136.716 254.721C136.221 254.446 135.836 254.044 135.561 253.515C135.286 252.986 135.148 252.338 135.148 251.572C135.148 250.823 135.273 250.176 135.523 249.63C135.777 249.08 136.132 248.657 136.589 248.36C137.051 248.064 137.592 247.916 138.214 247.916ZM138.202 248.779C137.639 248.779 137.19 248.963 136.856 249.332C136.522 249.7 136.323 250.214 136.259 250.874H139.941C139.937 250.459 139.871 250.095 139.744 249.782C139.621 249.465 139.433 249.219 139.179 249.046C138.925 248.868 138.599 248.779 138.202 248.779ZM148.815 247.929C149.644 247.929 150.26 248.115 150.662 248.487C151.064 248.86 151.265 249.454 151.265 250.271V255H150.497L150.294 253.972H150.243C150.049 254.226 149.845 254.439 149.634 254.613C149.422 254.782 149.177 254.911 148.897 255C148.622 255.085 148.284 255.127 147.882 255.127C147.459 255.127 147.082 255.053 146.752 254.905C146.426 254.757 146.168 254.532 145.978 254.232C145.791 253.931 145.698 253.551 145.698 253.089C145.698 252.395 145.973 251.862 146.523 251.49C147.074 251.117 147.911 250.914 149.037 250.88L150.237 250.83V250.404C150.237 249.803 150.108 249.382 149.85 249.141C149.591 248.9 149.228 248.779 148.758 248.779C148.394 248.779 148.047 248.832 147.717 248.938C147.387 249.044 147.074 249.169 146.777 249.312L146.454 248.513C146.767 248.352 147.126 248.214 147.533 248.1C147.939 247.986 148.366 247.929 148.815 247.929ZM150.224 251.572L149.164 251.617C148.297 251.651 147.685 251.792 147.33 252.042C146.974 252.292 146.796 252.645 146.796 253.102C146.796 253.5 146.917 253.794 147.158 253.984C147.399 254.175 147.719 254.27 148.117 254.27C148.735 254.27 149.24 254.099 149.634 253.756C150.027 253.413 150.224 252.899 150.224 252.213V251.572ZM154.496 255H153.436V245.123H154.496V255ZM157.778 248.043V255H156.724V248.043H157.778ZM157.264 245.44C157.437 245.44 157.585 245.498 157.708 245.612C157.835 245.722 157.898 245.895 157.898 246.132C157.898 246.365 157.835 246.539 157.708 246.653C157.585 246.767 157.437 246.824 157.264 246.824C157.082 246.824 156.929 246.767 156.807 246.653C156.688 246.539 156.629 246.365 156.629 246.132C156.629 245.895 156.688 245.722 156.807 245.612C156.929 245.498 157.082 245.44 157.264 245.44ZM163.307 247.916C164.132 247.916 164.756 248.119 165.179 248.525C165.602 248.927 165.814 249.575 165.814 250.468V255H164.773V250.538C164.773 249.958 164.64 249.524 164.373 249.236C164.111 248.949 163.707 248.805 163.161 248.805C162.39 248.805 161.849 249.023 161.536 249.458C161.222 249.894 161.066 250.527 161.066 251.356V255H160.012V248.043H160.863L161.021 249.046H161.079C161.227 248.8 161.415 248.595 161.644 248.43C161.872 248.261 162.128 248.134 162.412 248.049C162.695 247.96 162.993 247.916 163.307 247.916ZM170.664 247.916C171.256 247.916 171.764 248.047 172.187 248.31C172.61 248.572 172.934 248.94 173.158 249.414C173.382 249.884 173.495 250.434 173.495 251.064V251.718H168.689C168.702 252.535 168.905 253.157 169.299 253.584C169.692 254.012 170.247 254.226 170.962 254.226C171.402 254.226 171.791 254.185 172.13 254.105C172.468 254.025 172.82 253.906 173.184 253.75V254.676C172.832 254.833 172.483 254.947 172.136 255.019C171.793 255.091 171.387 255.127 170.917 255.127C170.249 255.127 169.665 254.992 169.166 254.721C168.67 254.446 168.285 254.044 168.01 253.515C167.735 252.986 167.598 252.338 167.598 251.572C167.598 250.823 167.722 250.176 167.972 249.63C168.226 249.08 168.582 248.657 169.039 248.36C169.5 248.064 170.042 247.916 170.664 247.916ZM170.651 248.779C170.088 248.779 169.639 248.963 169.305 249.332C168.971 249.7 168.772 250.214 168.708 250.874H172.39C172.386 250.459 172.32 250.095 172.193 249.782C172.071 249.465 171.882 249.219 171.628 249.046C171.375 248.868 171.049 248.779 170.651 248.779ZM177.887 247.929C178.717 247.929 179.332 248.115 179.734 248.487C180.136 248.86 180.337 249.454 180.337 250.271V255H179.569L179.366 253.972H179.315C179.121 254.226 178.918 254.439 178.706 254.613C178.494 254.782 178.249 254.911 177.97 255C177.695 255.085 177.356 255.127 176.954 255.127C176.531 255.127 176.154 255.053 175.824 254.905C175.498 254.757 175.24 254.532 175.05 254.232C174.864 253.931 174.771 253.551 174.771 253.089C174.771 252.395 175.046 251.862 175.596 251.49C176.146 251.117 176.984 250.914 178.109 250.88L179.309 250.83V250.404C179.309 249.803 179.18 249.382 178.922 249.141C178.664 248.9 178.3 248.779 177.83 248.779C177.466 248.779 177.119 248.832 176.789 248.938C176.459 249.044 176.146 249.169 175.85 249.312L175.526 248.513C175.839 248.352 176.199 248.214 176.605 248.1C177.011 247.986 177.439 247.929 177.887 247.929ZM179.296 251.572L178.236 251.617C177.369 251.651 176.757 251.792 176.402 252.042C176.046 252.292 175.869 252.645 175.869 253.102C175.869 253.5 175.989 253.794 176.23 253.984C176.472 254.175 176.791 254.27 177.189 254.27C177.807 254.27 178.312 254.099 178.706 253.756C179.1 253.413 179.296 252.899 179.296 252.213V251.572ZM185.803 247.916C186.628 247.916 187.252 248.119 187.675 248.525C188.098 248.927 188.31 249.575 188.31 250.468V255H187.269V250.538C187.269 249.958 187.136 249.524 186.869 249.236C186.607 248.949 186.203 248.805 185.657 248.805C184.887 248.805 184.345 249.023 184.032 249.458C183.719 249.894 183.562 250.527 183.562 251.356V255H182.508V248.043H183.359L183.518 249.046H183.575C183.723 248.8 183.911 248.595 184.14 248.43C184.368 248.261 184.624 248.134 184.908 248.049C185.191 247.96 185.49 247.916 185.803 247.916ZM196.46 247.929C197.29 247.929 197.906 248.115 198.308 248.487C198.71 248.86 198.911 249.454 198.911 250.271V255H198.143L197.939 253.972H197.889C197.694 254.226 197.491 254.439 197.279 254.613C197.068 254.782 196.822 254.911 196.543 255C196.268 255.085 195.929 255.127 195.527 255.127C195.104 255.127 194.728 255.053 194.397 254.905C194.072 254.757 193.813 254.532 193.623 254.232C193.437 253.931 193.344 253.551 193.344 253.089C193.344 252.395 193.619 251.862 194.169 251.49C194.719 251.117 195.557 250.914 196.683 250.88L197.882 250.83V250.404C197.882 249.803 197.753 249.382 197.495 249.141C197.237 248.9 196.873 248.779 196.403 248.779C196.039 248.779 195.692 248.832 195.362 248.938C195.032 249.044 194.719 249.169 194.423 249.312L194.099 248.513C194.412 248.352 194.772 248.214 195.178 248.1C195.584 247.986 196.012 247.929 196.46 247.929ZM197.87 251.572L196.81 251.617C195.942 251.651 195.331 251.792 194.975 252.042C194.62 252.292 194.442 252.645 194.442 253.102C194.442 253.5 194.562 253.794 194.804 253.984C195.045 254.175 195.364 254.27 195.762 254.27C196.38 254.27 196.886 254.099 197.279 253.756C197.673 253.413 197.87 252.899 197.87 252.213V251.572ZM205.519 255H204.458V245.123H205.519V255ZM210.349 247.929C211.179 247.929 211.794 248.115 212.196 248.487C212.598 248.86 212.799 249.454 212.799 250.271V255H212.031L211.828 253.972H211.777C211.583 254.226 211.38 254.439 211.168 254.613C210.956 254.782 210.711 254.911 210.432 255C210.157 255.085 209.818 255.127 209.416 255.127C208.993 255.127 208.616 255.053 208.286 254.905C207.96 254.757 207.702 254.532 207.512 254.232C207.326 253.931 207.232 253.551 207.232 253.089C207.232 252.395 207.507 251.862 208.058 251.49C208.608 251.117 209.446 250.914 210.571 250.88L211.771 250.83V250.404C211.771 249.803 211.642 249.382 211.384 249.141C211.126 248.9 210.762 248.779 210.292 248.779C209.928 248.779 209.581 248.832 209.251 248.938C208.921 249.044 208.608 249.169 208.312 249.312L207.988 248.513C208.301 248.352 208.661 248.214 209.067 248.1C209.473 247.986 209.901 247.929 210.349 247.929ZM211.758 251.572L210.698 251.617C209.831 251.651 209.219 251.792 208.864 252.042C208.508 252.292 208.331 252.645 208.331 253.102C208.331 253.5 208.451 253.794 208.692 253.984C208.934 254.175 209.253 254.27 209.651 254.27C210.269 254.27 210.774 254.099 211.168 253.756C211.562 253.413 211.758 252.899 211.758 252.213V251.572ZM220.823 255.127C219.943 255.127 219.244 254.826 218.728 254.226C218.216 253.625 217.96 252.732 217.96 251.547C217.96 250.349 218.222 249.446 218.747 248.836C219.272 248.223 219.97 247.916 220.842 247.916C221.21 247.916 221.532 247.965 221.807 248.062C222.082 248.159 222.319 248.291 222.518 248.456C222.716 248.616 222.884 248.8 223.019 249.008H223.095C223.078 248.877 223.061 248.697 223.044 248.468C223.028 248.24 223.019 248.054 223.019 247.91V245.123H224.073V255H223.222L223.063 254.01H223.019C222.888 254.217 222.721 254.405 222.518 254.575C222.319 254.744 222.08 254.879 221.8 254.981C221.525 255.078 221.199 255.127 220.823 255.127ZM220.988 254.251C221.733 254.251 222.259 254.039 222.568 253.616C222.877 253.193 223.032 252.565 223.032 251.731V251.541C223.032 250.656 222.884 249.977 222.587 249.503C222.295 249.029 221.762 248.792 220.988 248.792C220.34 248.792 219.856 249.042 219.534 249.541C219.213 250.036 219.052 250.713 219.052 251.572C219.052 252.427 219.21 253.087 219.528 253.553C219.849 254.018 220.336 254.251 220.988 254.251ZM228.986 247.916C229.578 247.916 230.086 248.047 230.509 248.31C230.932 248.572 231.256 248.94 231.48 249.414C231.705 249.884 231.817 250.434 231.817 251.064V251.718H227.012C227.024 252.535 227.228 253.157 227.621 253.584C228.015 254.012 228.569 254.226 229.284 254.226C229.724 254.226 230.114 254.185 230.452 254.105C230.791 254.025 231.142 253.906 231.506 253.75V254.676C231.155 254.833 230.806 254.947 230.458 255.019C230.116 255.091 229.709 255.127 229.24 255.127C228.571 255.127 227.987 254.992 227.488 254.721C226.993 254.446 226.608 254.044 226.333 253.515C226.057 252.986 225.92 252.338 225.92 251.572C225.92 250.823 226.045 250.176 226.294 249.63C226.548 249.08 226.904 248.657 227.361 248.36C227.822 248.064 228.364 247.916 228.986 247.916ZM228.973 248.779C228.41 248.779 227.962 248.963 227.627 249.332C227.293 249.7 227.094 250.214 227.031 250.874H230.712C230.708 250.459 230.643 250.095 230.516 249.782C230.393 249.465 230.205 249.219 229.951 249.046C229.697 248.868 229.371 248.779 228.973 248.779ZM236.768 247.916C236.908 247.916 237.054 247.924 237.206 247.941C237.358 247.954 237.494 247.973 237.612 247.999L237.479 248.976C237.365 248.946 237.238 248.923 237.098 248.906C236.958 248.889 236.827 248.881 236.705 248.881C236.425 248.881 236.161 248.938 235.911 249.052C235.666 249.162 235.45 249.323 235.264 249.535C235.077 249.742 234.931 249.994 234.826 250.29C234.72 250.582 234.667 250.908 234.667 251.268V255H233.607V248.043H234.483L234.597 249.325H234.642C234.785 249.067 234.959 248.832 235.162 248.621C235.365 248.405 235.6 248.233 235.867 248.106C236.138 247.979 236.438 247.916 236.768 247.916ZM241.605 247.916C242.197 247.916 242.705 248.047 243.128 248.31C243.552 248.572 243.875 248.94 244.1 249.414C244.324 249.884 244.436 250.434 244.436 251.064V251.718H239.631C239.644 252.535 239.847 253.157 240.24 253.584C240.634 254.012 241.188 254.226 241.903 254.226C242.343 254.226 242.733 254.185 243.071 254.105C243.41 254.025 243.761 253.906 244.125 253.75V254.676C243.774 254.833 243.425 254.947 243.078 255.019C242.735 255.091 242.329 255.127 241.859 255.127C241.19 255.127 240.606 254.992 240.107 254.721C239.612 254.446 239.227 254.044 238.952 253.515C238.677 252.986 238.539 252.338 238.539 251.572C238.539 250.823 238.664 250.176 238.914 249.63C239.167 249.08 239.523 248.657 239.98 248.36C240.441 248.064 240.983 247.916 241.605 247.916ZM241.592 248.779C241.029 248.779 240.581 248.963 240.247 249.332C239.912 249.7 239.713 250.214 239.65 250.874H243.332C243.327 250.459 243.262 250.095 243.135 249.782C243.012 249.465 242.824 249.219 242.57 249.046C242.316 248.868 241.99 248.779 241.592 248.779ZM249.013 255.127C248.386 255.127 247.834 254.998 247.356 254.74C246.878 254.482 246.505 254.088 246.239 253.559C245.972 253.03 245.839 252.364 245.839 251.56C245.839 250.717 245.979 250.03 246.258 249.497C246.541 248.959 246.931 248.561 247.426 248.303C247.921 248.045 248.484 247.916 249.114 247.916C249.461 247.916 249.796 247.952 250.117 248.024C250.443 248.092 250.71 248.178 250.917 248.284L250.6 249.167C250.388 249.082 250.143 249.006 249.863 248.938C249.588 248.87 249.33 248.836 249.089 248.836C248.606 248.836 248.204 248.94 247.883 249.147C247.565 249.355 247.326 249.66 247.166 250.062C247.009 250.464 246.931 250.959 246.931 251.547C246.931 252.11 247.007 252.59 247.159 252.988C247.316 253.386 247.546 253.69 247.851 253.902C248.16 254.109 248.545 254.213 249.006 254.213C249.375 254.213 249.707 254.175 250.003 254.099C250.299 254.018 250.568 253.925 250.809 253.819V254.759C250.576 254.877 250.316 254.968 250.028 255.032C249.745 255.095 249.406 255.127 249.013 255.127ZM253.513 245.123V248.075C253.513 248.244 253.509 248.415 253.5 248.589C253.492 248.758 253.477 248.915 253.456 249.059H253.526C253.67 248.813 253.852 248.608 254.072 248.443C254.296 248.274 254.55 248.147 254.833 248.062C255.117 247.973 255.417 247.929 255.735 247.929C256.293 247.929 256.759 248.018 257.131 248.195C257.508 248.373 257.789 248.648 257.976 249.021C258.166 249.393 258.261 249.875 258.261 250.468V255H257.22V250.538C257.22 249.958 257.087 249.524 256.82 249.236C256.558 248.949 256.154 248.805 255.608 248.805C255.092 248.805 254.679 248.904 254.37 249.103C254.065 249.298 253.845 249.585 253.71 249.966C253.579 250.347 253.513 250.813 253.513 251.363V255H252.459V245.123H253.513ZM263.035 247.929C263.864 247.929 264.48 248.115 264.882 248.487C265.284 248.86 265.485 249.454 265.485 250.271V255H264.717L264.514 253.972H264.463C264.268 254.226 264.065 254.439 263.854 254.613C263.642 254.782 263.396 254.911 263.117 255C262.842 255.085 262.504 255.127 262.102 255.127C261.678 255.127 261.302 255.053 260.972 254.905C260.646 254.757 260.388 254.532 260.197 254.232C260.011 253.931 259.918 253.551 259.918 253.089C259.918 252.395 260.193 251.862 260.743 251.49C261.293 251.117 262.131 250.914 263.257 250.88L264.457 250.83V250.404C264.457 249.803 264.327 249.382 264.069 249.141C263.811 248.9 263.447 248.779 262.978 248.779C262.614 248.779 262.267 248.832 261.937 248.938C261.606 249.044 261.293 249.169 260.997 249.312L260.673 248.513C260.986 248.352 261.346 248.214 261.752 248.1C262.159 247.986 262.586 247.929 263.035 247.929ZM264.444 251.572L263.384 251.617C262.516 251.651 261.905 251.792 261.549 252.042C261.194 252.292 261.016 252.645 261.016 253.102C261.016 253.5 261.137 253.794 261.378 253.984C261.619 254.175 261.939 254.27 262.336 254.27C262.954 254.27 263.46 254.099 263.854 253.756C264.247 253.413 264.444 252.899 264.444 252.213V251.572ZM269.858 251.426C269.858 252.133 269.789 252.823 269.649 253.496C269.514 254.164 269.304 254.799 269.021 255.4C268.741 256.001 268.384 256.553 267.948 257.057H266.951C267.357 256.519 267.696 255.944 267.967 255.33C268.242 254.716 268.447 254.082 268.583 253.426C268.722 252.766 268.792 252.097 268.792 251.42C268.792 250.73 268.722 250.051 268.583 249.382C268.443 248.714 268.236 248.07 267.96 247.453C267.69 246.835 267.349 246.257 266.938 245.72H267.948C268.384 246.24 268.741 246.807 269.021 247.421C269.304 248.03 269.514 248.674 269.649 249.351C269.789 250.023 269.858 250.715 269.858 251.426Z" fill="#505E70"/>
<rect x="103.5" y="83.5" width="135" height="47" fill="white"/>
<rect x="103.5" y="83.5" width="135" height="47" stroke="#E6EBF0"/>
<path d="M181.414 107.273C181.414 108.201 181.344 109.029 181.203 109.758C181.062 110.487 180.841 111.104 180.539 111.609C180.237 112.115 179.846 112.5 179.367 112.766C178.888 113.026 178.312 113.156 177.641 113.156C176.792 113.156 176.089 112.924 175.531 112.461C174.979 111.997 174.565 111.328 174.289 110.453C174.018 109.573 173.883 108.513 173.883 107.273C173.883 106.055 174.005 105.008 174.25 104.133C174.5 103.253 174.901 102.578 175.453 102.109C176.005 101.635 176.734 101.398 177.641 101.398C178.5 101.398 179.208 101.633 179.766 102.102C180.323 102.565 180.737 103.237 181.008 104.117C181.279 104.992 181.414 106.044 181.414 107.273ZM175.188 107.273C175.188 108.336 175.268 109.221 175.43 109.93C175.591 110.638 175.852 111.169 176.211 111.523C176.576 111.872 177.052 112.047 177.641 112.047C178.229 112.047 178.703 111.872 179.062 111.523C179.427 111.174 179.69 110.646 179.852 109.938C180.018 109.229 180.102 108.341 180.102 107.273C180.102 106.227 180.021 105.352 179.859 104.648C179.698 103.94 179.438 103.409 179.078 103.055C178.719 102.695 178.24 102.516 177.641 102.516C177.042 102.516 176.562 102.695 176.203 103.055C175.844 103.409 175.583 103.94 175.422 104.648C175.266 105.352 175.188 106.227 175.188 107.273ZM190.57 107.273C190.57 108.201 190.5 109.029 190.359 109.758C190.219 110.487 189.997 111.104 189.695 111.609C189.393 112.115 189.003 112.5 188.523 112.766C188.044 113.026 187.469 113.156 186.797 113.156C185.948 113.156 185.245 112.924 184.688 112.461C184.135 111.997 183.721 111.328 183.445 110.453C183.174 109.573 183.039 108.513 183.039 107.273C183.039 106.055 183.161 105.008 183.406 104.133C183.656 103.253 184.057 102.578 184.609 102.109C185.161 101.635 185.891 101.398 186.797 101.398C187.656 101.398 188.365 101.633 188.922 102.102C189.479 102.565 189.893 103.237 190.164 104.117C190.435 104.992 190.57 106.044 190.57 107.273ZM184.344 107.273C184.344 108.336 184.424 109.221 184.586 109.93C184.747 110.638 185.008 111.169 185.367 111.523C185.732 111.872 186.208 112.047 186.797 112.047C187.385 112.047 187.859 111.872 188.219 111.523C188.583 111.174 188.846 110.646 189.008 109.938C189.174 109.229 189.258 108.341 189.258 107.273C189.258 106.227 189.177 105.352 189.016 104.648C188.854 103.94 188.594 103.409 188.234 103.055C187.875 102.695 187.396 102.516 186.797 102.516C186.198 102.516 185.719 102.695 185.359 103.055C185 103.409 184.74 103.94 184.578 104.648C184.422 105.352 184.344 106.227 184.344 107.273ZM199.727 107.273C199.727 108.201 199.656 109.029 199.516 109.758C199.375 110.487 199.154 111.104 198.852 111.609C198.549 112.115 198.159 112.5 197.68 112.766C197.201 113.026 196.625 113.156 195.953 113.156C195.104 113.156 194.401 112.924 193.844 112.461C193.292 111.997 192.878 111.328 192.602 110.453C192.331 109.573 192.195 108.513 192.195 107.273C192.195 106.055 192.318 105.008 192.562 104.133C192.812 103.253 193.214 102.578 193.766 102.109C194.318 101.635 195.047 101.398 195.953 101.398C196.812 101.398 197.521 101.633 198.078 102.102C198.635 102.565 199.049 103.237 199.32 104.117C199.591 104.992 199.727 106.044 199.727 107.273ZM193.5 107.273C193.5 108.336 193.581 109.221 193.742 109.93C193.904 110.638 194.164 111.169 194.523 111.523C194.888 111.872 195.365 112.047 195.953 112.047C196.542 112.047 197.016 111.872 197.375 111.523C197.74 111.174 198.003 110.646 198.164 109.938C198.331 109.229 198.414 108.341 198.414 107.273C198.414 106.227 198.333 105.352 198.172 104.648C198.01 103.94 197.75 103.409 197.391 103.055C197.031 102.695 196.552 102.516 195.953 102.516C195.354 102.516 194.875 102.695 194.516 103.055C194.156 103.409 193.896 103.94 193.734 104.648C193.578 105.352 193.5 106.227 193.5 107.273ZM203.398 111.141L203.5 111.32C203.406 111.701 203.286 112.107 203.141 112.539C203 112.971 202.844 113.404 202.672 113.836C202.505 114.273 202.336 114.682 202.164 115.062H201.195C201.305 114.646 201.411 114.206 201.516 113.742C201.62 113.284 201.714 112.831 201.797 112.383C201.885 111.93 201.956 111.516 202.008 111.141H203.398ZM213.023 107.273C213.023 108.201 212.953 109.029 212.812 109.758C212.672 110.487 212.451 111.104 212.148 111.609C211.846 112.115 211.456 112.5 210.977 112.766C210.497 113.026 209.922 113.156 209.25 113.156C208.401 113.156 207.698 112.924 207.141 112.461C206.589 111.997 206.174 111.328 205.898 110.453C205.628 109.573 205.492 108.513 205.492 107.273C205.492 106.055 205.615 105.008 205.859 104.133C206.109 103.253 206.51 102.578 207.062 102.109C207.615 101.635 208.344 101.398 209.25 101.398C210.109 101.398 210.818 101.633 211.375 102.102C211.932 102.565 212.346 103.237 212.617 104.117C212.888 104.992 213.023 106.044 213.023 107.273ZM206.797 107.273C206.797 108.336 206.878 109.221 207.039 109.93C207.201 110.638 207.461 111.169 207.82 111.523C208.185 111.872 208.661 112.047 209.25 112.047C209.839 112.047 210.312 111.872 210.672 111.523C211.036 111.174 211.299 110.646 211.461 109.938C211.628 109.229 211.711 108.341 211.711 107.273C211.711 106.227 211.63 105.352 211.469 104.648C211.307 103.94 211.047 103.409 210.688 103.055C210.328 102.695 209.849 102.516 209.25 102.516C208.651 102.516 208.172 102.695 207.812 103.055C207.453 103.409 207.193 103.94 207.031 104.648C206.875 105.352 206.797 106.227 206.797 107.273ZM222.18 107.273C222.18 108.201 222.109 109.029 221.969 109.758C221.828 110.487 221.607 111.104 221.305 111.609C221.003 112.115 220.612 112.5 220.133 112.766C219.654 113.026 219.078 113.156 218.406 113.156C217.557 113.156 216.854 112.924 216.297 112.461C215.745 111.997 215.331 111.328 215.055 110.453C214.784 109.573 214.648 108.513 214.648 107.273C214.648 106.055 214.771 105.008 215.016 104.133C215.266 103.253 215.667 102.578 216.219 102.109C216.771 101.635 217.5 101.398 218.406 101.398C219.266 101.398 219.974 101.633 220.531 102.102C221.089 102.565 221.503 103.237 221.773 104.117C222.044 104.992 222.18 106.044 222.18 107.273ZM215.953 107.273C215.953 108.336 216.034 109.221 216.195 109.93C216.357 110.638 216.617 111.169 216.977 111.523C217.341 111.872 217.818 112.047 218.406 112.047C218.995 112.047 219.469 111.872 219.828 111.523C220.193 111.174 220.456 110.646 220.617 109.938C220.784 109.229 220.867 108.341 220.867 107.273C220.867 106.227 220.786 105.352 220.625 104.648C220.464 103.94 220.203 103.409 219.844 103.055C219.484 102.695 219.005 102.516 218.406 102.516C217.807 102.516 217.328 102.695 216.969 103.055C216.609 103.409 216.349 103.94 216.188 104.648C216.031 105.352 215.953 106.227 215.953 107.273Z" fill="#38485C"/>
</svg>
