<svg width="342" height="240" viewBox="0 0 342 240" fill="none" xmlns="http://www.w3.org/2000/svg">
<rect x="1" y="1" width="340" height="212" rx="9" fill="#F3F6F9" stroke="#E6EBF0" stroke-width="2"/>
<path d="M142.899 226.539C142.387 226.539 141.926 226.627 141.515 226.805C141.109 226.979 140.762 227.233 140.474 227.567C140.191 227.897 139.973 228.297 139.82 228.767C139.668 229.236 139.592 229.765 139.592 230.354C139.592 231.132 139.712 231.809 139.954 232.385C140.199 232.956 140.563 233.398 141.045 233.711C141.532 234.025 142.139 234.181 142.867 234.181C143.282 234.181 143.671 234.147 144.035 234.08C144.403 234.008 144.761 233.919 145.108 233.813V234.752C144.769 234.879 144.414 234.972 144.042 235.032C143.669 235.095 143.227 235.127 142.715 235.127C141.771 235.127 140.982 234.932 140.347 234.543C139.717 234.149 139.243 233.595 138.925 232.88C138.612 232.165 138.456 231.32 138.456 230.347C138.456 229.645 138.553 229.004 138.748 228.424C138.946 227.84 139.234 227.336 139.611 226.913C139.992 226.49 140.457 226.164 141.007 225.936C141.562 225.703 142.196 225.586 142.912 225.586C143.381 225.586 143.834 225.633 144.27 225.726C144.706 225.819 145.099 225.952 145.451 226.126L145.019 227.04C144.723 226.905 144.397 226.788 144.042 226.691C143.69 226.589 143.309 226.539 142.899 226.539ZM152.96 231.509C152.96 232.08 152.886 232.59 152.738 233.039C152.59 233.487 152.376 233.866 152.097 234.175C151.817 234.484 151.479 234.721 151.081 234.886C150.688 235.047 150.241 235.127 149.742 235.127C149.276 235.127 148.849 235.047 148.459 234.886C148.074 234.721 147.74 234.484 147.457 234.175C147.177 233.866 146.959 233.487 146.803 233.039C146.65 232.59 146.574 232.08 146.574 231.509C146.574 230.747 146.703 230.1 146.961 229.566C147.22 229.029 147.588 228.621 148.066 228.341C148.548 228.058 149.122 227.916 149.786 227.916C150.421 227.916 150.975 228.058 151.449 228.341C151.927 228.625 152.298 229.035 152.56 229.573C152.827 230.106 152.96 230.751 152.96 231.509ZM147.666 231.509C147.666 232.067 147.74 232.552 147.888 232.962C148.036 233.373 148.265 233.69 148.574 233.915C148.883 234.139 149.28 234.251 149.767 234.251C150.25 234.251 150.645 234.139 150.954 233.915C151.267 233.69 151.498 233.373 151.646 232.962C151.794 232.552 151.868 232.067 151.868 231.509C151.868 230.954 151.794 230.476 151.646 230.074C151.498 229.668 151.269 229.355 150.96 229.135C150.652 228.915 150.252 228.805 149.761 228.805C149.037 228.805 148.506 229.044 148.167 229.522C147.833 230 147.666 230.662 147.666 231.509ZM158.076 227.916C158.901 227.916 159.526 228.119 159.949 228.525C160.372 228.927 160.583 229.575 160.583 230.468V235H159.542V230.538C159.542 229.958 159.409 229.524 159.143 229.236C158.88 228.949 158.476 228.805 157.93 228.805C157.16 228.805 156.618 229.023 156.305 229.458C155.992 229.894 155.835 230.527 155.835 231.356V235H154.782V228.043H155.632L155.791 229.046H155.848C155.996 228.8 156.185 228.595 156.413 228.43C156.642 228.261 156.898 228.134 157.181 228.049C157.465 227.96 157.763 227.916 158.076 227.916ZM168.81 227.916C169.403 227.916 169.91 228.047 170.333 228.31C170.757 228.572 171.08 228.94 171.305 229.414C171.529 229.884 171.641 230.434 171.641 231.064V231.718H166.836C166.849 232.535 167.052 233.157 167.445 233.584C167.839 234.012 168.393 234.226 169.108 234.226C169.549 234.226 169.938 234.185 170.276 234.105C170.615 234.025 170.966 233.906 171.33 233.75V234.676C170.979 234.833 170.63 234.947 170.283 235.019C169.94 235.091 169.534 235.127 169.064 235.127C168.395 235.127 167.811 234.992 167.312 234.721C166.817 234.446 166.432 234.044 166.157 233.515C165.882 232.986 165.744 232.338 165.744 231.572C165.744 230.823 165.869 230.176 166.119 229.63C166.373 229.08 166.728 228.657 167.185 228.36C167.646 228.064 168.188 227.916 168.81 227.916ZM168.797 228.779C168.235 228.779 167.786 228.963 167.452 229.332C167.117 229.7 166.918 230.214 166.855 230.874H170.537C170.532 230.459 170.467 230.095 170.34 229.782C170.217 229.465 170.029 229.219 169.775 229.046C169.521 228.868 169.195 228.779 168.797 228.779ZM176.726 227.916C177.551 227.916 178.175 228.119 178.598 228.525C179.021 228.927 179.233 229.575 179.233 230.468V235H178.192V230.538C178.192 229.958 178.059 229.524 177.792 229.236C177.53 228.949 177.125 228.805 176.58 228.805C175.809 228.805 175.268 229.023 174.955 229.458C174.641 229.894 174.485 230.527 174.485 231.356V235H173.431V228.043H174.282L174.44 229.046H174.498C174.646 228.8 174.834 228.595 175.062 228.43C175.291 228.261 175.547 228.134 175.831 228.049C176.114 227.96 176.412 227.916 176.726 227.916ZM182.464 235H181.404V225.123H182.464V235ZM187.294 227.929C188.124 227.929 188.74 228.115 189.142 228.487C189.544 228.86 189.745 229.454 189.745 230.271V235H188.977L188.773 233.972H188.723C188.528 234.226 188.325 234.439 188.113 234.613C187.902 234.782 187.656 234.911 187.377 235C187.102 235.085 186.763 235.127 186.361 235.127C185.938 235.127 185.562 235.053 185.231 234.905C184.906 234.757 184.647 234.532 184.457 234.232C184.271 233.931 184.178 233.551 184.178 233.089C184.178 232.395 184.453 231.862 185.003 231.49C185.553 231.117 186.391 230.914 187.517 230.88L188.716 230.83V230.404C188.716 229.803 188.587 229.382 188.329 229.141C188.071 228.9 187.707 228.779 187.237 228.779C186.873 228.779 186.526 228.832 186.196 228.938C185.866 229.044 185.553 229.169 185.257 229.312L184.933 228.513C185.246 228.352 185.606 228.214 186.012 228.1C186.418 227.986 186.846 227.929 187.294 227.929ZM188.704 231.572L187.644 231.617C186.776 231.651 186.165 231.792 185.809 232.042C185.454 232.292 185.276 232.645 185.276 233.102C185.276 233.5 185.396 233.794 185.638 233.984C185.879 234.175 186.198 234.27 186.596 234.27C187.214 234.27 187.72 234.099 188.113 233.756C188.507 233.413 188.704 232.899 188.704 232.213V231.572ZM194.702 235.127C194.076 235.127 193.524 234.998 193.045 234.74C192.567 234.482 192.195 234.088 191.928 233.559C191.662 233.03 191.528 232.364 191.528 231.56C191.528 230.717 191.668 230.03 191.947 229.497C192.231 228.959 192.62 228.561 193.115 228.303C193.61 228.045 194.173 227.916 194.804 227.916C195.151 227.916 195.485 227.952 195.807 228.024C196.132 228.092 196.399 228.178 196.606 228.284L196.289 229.167C196.077 229.082 195.832 229.006 195.553 228.938C195.278 228.87 195.02 228.836 194.778 228.836C194.296 228.836 193.894 228.94 193.572 229.147C193.255 229.355 193.016 229.66 192.855 230.062C192.698 230.464 192.62 230.959 192.62 231.547C192.62 232.11 192.696 232.59 192.849 232.988C193.005 233.386 193.236 233.69 193.541 233.902C193.849 234.109 194.235 234.213 194.696 234.213C195.064 234.213 195.396 234.175 195.692 234.099C195.989 234.018 196.257 233.925 196.499 233.819V234.759C196.266 234.877 196.006 234.968 195.718 235.032C195.434 235.095 195.096 235.127 194.702 235.127ZM200.828 227.916C201.42 227.916 201.928 228.047 202.351 228.31C202.774 228.572 203.098 228.94 203.322 229.414C203.547 229.884 203.659 230.434 203.659 231.064V231.718H198.854C198.866 232.535 199.069 233.157 199.463 233.584C199.856 234.012 200.411 234.226 201.126 234.226C201.566 234.226 201.955 234.185 202.294 234.105C202.632 234.025 202.984 233.906 203.348 233.75V234.676C202.996 234.833 202.647 234.947 202.3 235.019C201.958 235.091 201.551 235.127 201.082 235.127C200.413 235.127 199.829 234.992 199.33 234.721C198.834 234.446 198.449 234.044 198.174 233.515C197.899 232.986 197.762 232.338 197.762 231.572C197.762 230.823 197.887 230.176 198.136 229.63C198.39 229.08 198.746 228.657 199.203 228.36C199.664 228.064 200.206 227.916 200.828 227.916ZM200.815 228.779C200.252 228.779 199.804 228.963 199.469 229.332C199.135 229.7 198.936 230.214 198.873 230.874H202.554C202.55 230.459 202.484 230.095 202.357 229.782C202.235 229.465 202.046 229.219 201.792 229.046C201.539 228.868 201.213 228.779 200.815 228.779Z" fill="#38485C"/>
<rect x="67.5" y="83.5" width="206" height="47" fill="white"/>
<rect x="67.5" y="83.5" width="206" height="47" stroke="#E6EBF0"/>
<path d="M90.9219 113H84.5625V101.578H90.9219V102.75H85.8906V106.445H90.6328V107.602H85.8906V111.828H90.9219V113ZM97.3125 104.281C98.3281 104.281 99.0964 104.531 99.6172 105.031C100.138 105.526 100.398 106.323 100.398 107.422V113H99.1172V107.508C99.1172 106.794 98.9531 106.26 98.625 105.906C98.3021 105.552 97.8047 105.375 97.1328 105.375C96.1849 105.375 95.5182 105.643 95.1328 106.18C94.7474 106.716 94.5547 107.495 94.5547 108.516V113H93.2578V104.438H94.3047L94.5 105.672H94.5703C94.7526 105.37 94.9844 105.117 95.2656 104.914C95.5469 104.706 95.862 104.549 96.2109 104.445C96.5599 104.336 96.9271 104.281 97.3125 104.281ZM104.375 113H103.07V100.844H104.375V113ZM110.32 104.297C111.341 104.297 112.099 104.526 112.594 104.984C113.089 105.443 113.336 106.174 113.336 107.18V113H112.391L112.141 111.734H112.078C111.839 112.047 111.589 112.31 111.328 112.523C111.068 112.732 110.766 112.891 110.422 113C110.083 113.104 109.667 113.156 109.172 113.156C108.651 113.156 108.188 113.065 107.781 112.883C107.38 112.701 107.062 112.424 106.828 112.055C106.599 111.685 106.484 111.216 106.484 110.648C106.484 109.794 106.823 109.138 107.5 108.68C108.177 108.221 109.208 107.971 110.594 107.93L112.07 107.867V107.344C112.07 106.604 111.911 106.086 111.594 105.789C111.276 105.492 110.828 105.344 110.25 105.344C109.802 105.344 109.375 105.409 108.969 105.539C108.562 105.669 108.177 105.823 107.812 106L107.414 105.016C107.799 104.818 108.242 104.648 108.742 104.508C109.242 104.367 109.768 104.297 110.32 104.297ZM112.055 108.781L110.75 108.836C109.682 108.878 108.93 109.052 108.492 109.359C108.055 109.667 107.836 110.102 107.836 110.664C107.836 111.154 107.984 111.516 108.281 111.75C108.578 111.984 108.971 112.102 109.461 112.102C110.221 112.102 110.844 111.891 111.328 111.469C111.812 111.047 112.055 110.414 112.055 109.57V108.781ZM119.438 113.156C118.667 113.156 117.987 112.997 117.398 112.68C116.81 112.362 116.352 111.878 116.023 111.227C115.695 110.576 115.531 109.755 115.531 108.766C115.531 107.729 115.703 106.883 116.047 106.227C116.396 105.565 116.875 105.076 117.484 104.758C118.094 104.44 118.786 104.281 119.562 104.281C119.99 104.281 120.401 104.326 120.797 104.414C121.198 104.497 121.526 104.604 121.781 104.734L121.391 105.82C121.13 105.716 120.828 105.622 120.484 105.539C120.146 105.456 119.828 105.414 119.531 105.414C118.938 105.414 118.443 105.542 118.047 105.797C117.656 106.052 117.362 106.427 117.164 106.922C116.971 107.417 116.875 108.026 116.875 108.75C116.875 109.443 116.969 110.034 117.156 110.523C117.349 111.013 117.633 111.388 118.008 111.648C118.388 111.904 118.862 112.031 119.43 112.031C119.883 112.031 120.292 111.984 120.656 111.891C121.021 111.792 121.352 111.677 121.648 111.547V112.703C121.362 112.849 121.042 112.961 120.688 113.039C120.339 113.117 119.922 113.156 119.438 113.156ZM126.977 104.281C127.706 104.281 128.331 104.443 128.852 104.766C129.372 105.089 129.771 105.542 130.047 106.125C130.323 106.703 130.461 107.38 130.461 108.156V108.961H124.547C124.562 109.966 124.812 110.732 125.297 111.258C125.781 111.784 126.464 112.047 127.344 112.047C127.885 112.047 128.365 111.997 128.781 111.898C129.198 111.799 129.63 111.654 130.078 111.461V112.602C129.646 112.794 129.216 112.935 128.789 113.023C128.367 113.112 127.867 113.156 127.289 113.156C126.466 113.156 125.747 112.99 125.133 112.656C124.523 112.318 124.049 111.823 123.711 111.172C123.372 110.521 123.203 109.724 123.203 108.781C123.203 107.859 123.357 107.062 123.664 106.391C123.977 105.714 124.414 105.193 124.977 104.828C125.544 104.464 126.211 104.281 126.977 104.281ZM126.961 105.344C126.268 105.344 125.716 105.57 125.305 106.023C124.893 106.477 124.648 107.109 124.57 107.922H129.102C129.096 107.411 129.016 106.964 128.859 106.578C128.708 106.188 128.477 105.885 128.164 105.672C127.852 105.453 127.451 105.344 126.961 105.344ZM140.844 104.281C141.911 104.281 142.763 104.648 143.398 105.383C144.034 106.117 144.352 107.221 144.352 108.695C144.352 109.669 144.206 110.487 143.914 111.148C143.622 111.81 143.211 112.31 142.68 112.648C142.154 112.987 141.531 113.156 140.812 113.156C140.359 113.156 139.961 113.096 139.617 112.977C139.273 112.857 138.979 112.695 138.734 112.492C138.49 112.289 138.286 112.068 138.125 111.828H138.031C138.047 112.031 138.065 112.276 138.086 112.562C138.112 112.849 138.125 113.099 138.125 113.312V116.828H136.82V104.438H137.891L138.062 105.703H138.125C138.292 105.443 138.495 105.206 138.734 104.992C138.974 104.773 139.266 104.602 139.609 104.477C139.958 104.346 140.37 104.281 140.844 104.281ZM140.617 105.375C140.023 105.375 139.544 105.49 139.18 105.719C138.82 105.948 138.557 106.292 138.391 106.75C138.224 107.203 138.135 107.773 138.125 108.461V108.711C138.125 109.435 138.203 110.047 138.359 110.547C138.521 111.047 138.784 111.427 139.148 111.688C139.518 111.948 140.013 112.078 140.633 112.078C141.164 112.078 141.607 111.935 141.961 111.648C142.315 111.362 142.578 110.964 142.75 110.453C142.927 109.938 143.016 109.346 143.016 108.68C143.016 107.669 142.818 106.867 142.422 106.273C142.031 105.674 141.43 105.375 140.617 105.375ZM150.508 104.281C150.68 104.281 150.859 104.292 151.047 104.312C151.234 104.328 151.401 104.352 151.547 104.383L151.383 105.586C151.242 105.549 151.086 105.521 150.914 105.5C150.742 105.479 150.581 105.469 150.43 105.469C150.086 105.469 149.76 105.539 149.453 105.68C149.151 105.815 148.885 106.013 148.656 106.273C148.427 106.529 148.247 106.839 148.117 107.203C147.987 107.562 147.922 107.964 147.922 108.406V113H146.617V104.438H147.695L147.836 106.016H147.891C148.068 105.698 148.281 105.409 148.531 105.148C148.781 104.883 149.07 104.672 149.398 104.516C149.732 104.359 150.102 104.281 150.508 104.281ZM156.461 104.281C157.19 104.281 157.815 104.443 158.336 104.766C158.857 105.089 159.255 105.542 159.531 106.125C159.807 106.703 159.945 107.38 159.945 108.156V108.961H154.031C154.047 109.966 154.297 110.732 154.781 111.258C155.266 111.784 155.948 112.047 156.828 112.047C157.37 112.047 157.849 111.997 158.266 111.898C158.682 111.799 159.115 111.654 159.562 111.461V112.602C159.13 112.794 158.701 112.935 158.273 113.023C157.852 113.112 157.352 113.156 156.773 113.156C155.951 113.156 155.232 112.99 154.617 112.656C154.008 112.318 153.534 111.823 153.195 111.172C152.857 110.521 152.688 109.724 152.688 108.781C152.688 107.859 152.841 107.062 153.148 106.391C153.461 105.714 153.898 105.193 154.461 104.828C155.029 104.464 155.695 104.281 156.461 104.281ZM156.445 105.344C155.753 105.344 155.201 105.57 154.789 106.023C154.378 106.477 154.133 107.109 154.055 107.922H158.586C158.581 107.411 158.5 106.964 158.344 106.578C158.193 106.188 157.961 105.885 157.648 105.672C157.336 105.453 156.935 105.344 156.445 105.344ZM165.195 113.156C164.112 113.156 163.253 112.786 162.617 112.047C161.987 111.307 161.672 110.208 161.672 108.75C161.672 107.276 161.995 106.164 162.641 105.414C163.286 104.659 164.146 104.281 165.219 104.281C165.672 104.281 166.068 104.341 166.406 104.461C166.745 104.581 167.036 104.742 167.281 104.945C167.526 105.143 167.732 105.37 167.898 105.625H167.992C167.971 105.464 167.951 105.242 167.93 104.961C167.909 104.68 167.898 104.451 167.898 104.273V100.844H169.195V113H168.148L167.953 111.781H167.898C167.737 112.036 167.531 112.268 167.281 112.477C167.036 112.685 166.742 112.852 166.398 112.977C166.06 113.096 165.659 113.156 165.195 113.156ZM165.398 112.078C166.315 112.078 166.964 111.818 167.344 111.297C167.724 110.776 167.914 110.003 167.914 108.977V108.742C167.914 107.654 167.732 106.818 167.367 106.234C167.008 105.651 166.352 105.359 165.398 105.359C164.602 105.359 164.005 105.667 163.609 106.281C163.214 106.891 163.016 107.724 163.016 108.781C163.016 109.833 163.211 110.646 163.602 111.219C163.997 111.792 164.596 112.078 165.398 112.078ZM175.242 104.281C175.971 104.281 176.596 104.443 177.117 104.766C177.638 105.089 178.036 105.542 178.312 106.125C178.589 106.703 178.727 107.38 178.727 108.156V108.961H172.812C172.828 109.966 173.078 110.732 173.562 111.258C174.047 111.784 174.729 112.047 175.609 112.047C176.151 112.047 176.63 111.997 177.047 111.898C177.464 111.799 177.896 111.654 178.344 111.461V112.602C177.911 112.794 177.482 112.935 177.055 113.023C176.633 113.112 176.133 113.156 175.555 113.156C174.732 113.156 174.013 112.99 173.398 112.656C172.789 112.318 172.315 111.823 171.977 111.172C171.638 110.521 171.469 109.724 171.469 108.781C171.469 107.859 171.622 107.062 171.93 106.391C172.242 105.714 172.68 105.193 173.242 104.828C173.81 104.464 174.477 104.281 175.242 104.281ZM175.227 105.344C174.534 105.344 173.982 105.57 173.57 106.023C173.159 106.477 172.914 107.109 172.836 107.922H177.367C177.362 107.411 177.281 106.964 177.125 106.578C176.974 106.188 176.742 105.885 176.43 105.672C176.117 105.453 175.716 105.344 175.227 105.344ZM183.695 112.094C183.909 112.094 184.128 112.076 184.352 112.039C184.576 112.003 184.758 111.958 184.898 111.906V112.914C184.747 112.982 184.536 113.039 184.266 113.086C184 113.133 183.74 113.156 183.484 113.156C183.031 113.156 182.62 113.078 182.25 112.922C181.88 112.76 181.583 112.49 181.359 112.109C181.141 111.729 181.031 111.203 181.031 110.531V105.453H179.812V104.82L181.039 104.312L181.555 102.453H182.336V104.438H184.844V105.453H182.336V110.492C182.336 111.029 182.458 111.43 182.703 111.695C182.953 111.961 183.284 112.094 183.695 112.094ZM189.93 104.281C190.659 104.281 191.284 104.443 191.805 104.766C192.326 105.089 192.724 105.542 193 106.125C193.276 106.703 193.414 107.38 193.414 108.156V108.961H187.5C187.516 109.966 187.766 110.732 188.25 111.258C188.734 111.784 189.417 112.047 190.297 112.047C190.839 112.047 191.318 111.997 191.734 111.898C192.151 111.799 192.583 111.654 193.031 111.461V112.602C192.599 112.794 192.169 112.935 191.742 113.023C191.32 113.112 190.82 113.156 190.242 113.156C189.419 113.156 188.701 112.99 188.086 112.656C187.477 112.318 187.003 111.823 186.664 111.172C186.326 110.521 186.156 109.724 186.156 108.781C186.156 107.859 186.31 107.062 186.617 106.391C186.93 105.714 187.367 105.193 187.93 104.828C188.497 104.464 189.164 104.281 189.93 104.281ZM189.914 105.344C189.221 105.344 188.669 105.57 188.258 106.023C187.846 106.477 187.602 107.109 187.523 107.922H192.055C192.049 107.411 191.969 106.964 191.812 106.578C191.661 106.188 191.43 105.885 191.117 105.672C190.805 105.453 190.404 105.344 189.914 105.344ZM199.508 104.281C199.68 104.281 199.859 104.292 200.047 104.312C200.234 104.328 200.401 104.352 200.547 104.383L200.383 105.586C200.242 105.549 200.086 105.521 199.914 105.5C199.742 105.479 199.581 105.469 199.43 105.469C199.086 105.469 198.76 105.539 198.453 105.68C198.151 105.815 197.885 106.013 197.656 106.273C197.427 106.529 197.247 106.839 197.117 107.203C196.987 107.562 196.922 107.964 196.922 108.406V113H195.617V104.438H196.695L196.836 106.016H196.891C197.068 105.698 197.281 105.409 197.531 105.148C197.781 104.883 198.07 104.672 198.398 104.516C198.732 104.359 199.102 104.281 199.508 104.281ZM211.461 104.281C212.404 104.281 213.115 104.529 213.594 105.023C214.073 105.513 214.312 106.302 214.312 107.391V113H213.031V107.453C213.031 106.76 212.88 106.242 212.578 105.898C212.281 105.549 211.839 105.375 211.25 105.375C210.422 105.375 209.82 105.615 209.445 106.094C209.07 106.573 208.883 107.279 208.883 108.211V113H207.594V107.453C207.594 106.99 207.526 106.604 207.391 106.297C207.26 105.99 207.062 105.76 206.797 105.609C206.536 105.453 206.206 105.375 205.805 105.375C205.237 105.375 204.781 105.492 204.438 105.727C204.094 105.961 203.844 106.31 203.688 106.773C203.536 107.232 203.461 107.797 203.461 108.469V113H202.164V104.438H203.211L203.406 105.648H203.477C203.648 105.352 203.865 105.102 204.125 104.898C204.385 104.695 204.677 104.542 205 104.438C205.323 104.333 205.667 104.281 206.031 104.281C206.682 104.281 207.227 104.404 207.664 104.648C208.107 104.888 208.427 105.255 208.625 105.75H208.695C208.977 105.255 209.362 104.888 209.852 104.648C210.341 104.404 210.878 104.281 211.461 104.281ZM218.273 104.438V113H216.977V104.438H218.273ZM217.641 101.234C217.854 101.234 218.036 101.305 218.188 101.445C218.344 101.581 218.422 101.794 218.422 102.086C218.422 102.372 218.344 102.586 218.188 102.727C218.036 102.867 217.854 102.938 217.641 102.938C217.417 102.938 217.229 102.867 217.078 102.727C216.932 102.586 216.859 102.372 216.859 102.086C216.859 101.794 216.932 101.581 217.078 101.445C217.229 101.305 217.417 101.234 217.641 101.234ZM225.078 104.281C226.094 104.281 226.862 104.531 227.383 105.031C227.904 105.526 228.164 106.323 228.164 107.422V113H226.883V107.508C226.883 106.794 226.719 106.26 226.391 105.906C226.068 105.552 225.57 105.375 224.898 105.375C223.951 105.375 223.284 105.643 222.898 106.18C222.513 106.716 222.32 107.495 222.32 108.516V113H221.023V104.438H222.07L222.266 105.672H222.336C222.518 105.37 222.75 105.117 223.031 104.914C223.312 104.706 223.628 104.549 223.977 104.445C224.326 104.336 224.693 104.281 225.078 104.281ZM234.039 104.297C235.06 104.297 235.818 104.526 236.312 104.984C236.807 105.443 237.055 106.174 237.055 107.18V113H236.109L235.859 111.734H235.797C235.557 112.047 235.307 112.31 235.047 112.523C234.786 112.732 234.484 112.891 234.141 113C233.802 113.104 233.385 113.156 232.891 113.156C232.37 113.156 231.906 113.065 231.5 112.883C231.099 112.701 230.781 112.424 230.547 112.055C230.318 111.685 230.203 111.216 230.203 110.648C230.203 109.794 230.542 109.138 231.219 108.68C231.896 108.221 232.927 107.971 234.312 107.93L235.789 107.867V107.344C235.789 106.604 235.63 106.086 235.312 105.789C234.995 105.492 234.547 105.344 233.969 105.344C233.521 105.344 233.094 105.409 232.688 105.539C232.281 105.669 231.896 105.823 231.531 106L231.133 105.016C231.518 104.818 231.961 104.648 232.461 104.508C232.961 104.367 233.487 104.297 234.039 104.297ZM235.773 108.781L234.469 108.836C233.401 108.878 232.648 109.052 232.211 109.359C231.773 109.667 231.555 110.102 231.555 110.664C231.555 111.154 231.703 111.516 232 111.75C232.297 111.984 232.69 112.102 233.18 112.102C233.94 112.102 234.562 111.891 235.047 111.469C235.531 111.047 235.773 110.414 235.773 109.57V108.781ZM242.773 113.156C241.69 113.156 240.831 112.786 240.195 112.047C239.565 111.307 239.25 110.208 239.25 108.75C239.25 107.276 239.573 106.164 240.219 105.414C240.865 104.659 241.724 104.281 242.797 104.281C243.25 104.281 243.646 104.341 243.984 104.461C244.323 104.581 244.615 104.742 244.859 104.945C245.104 105.143 245.31 105.37 245.477 105.625H245.57C245.549 105.464 245.529 105.242 245.508 104.961C245.487 104.68 245.477 104.451 245.477 104.273V100.844H246.773V113H245.727L245.531 111.781H245.477C245.315 112.036 245.109 112.268 244.859 112.477C244.615 112.685 244.32 112.852 243.977 112.977C243.638 113.096 243.237 113.156 242.773 113.156ZM242.977 112.078C243.893 112.078 244.542 111.818 244.922 111.297C245.302 110.776 245.492 110.003 245.492 108.977V108.742C245.492 107.654 245.31 106.818 244.945 106.234C244.586 105.651 243.93 105.359 242.977 105.359C242.18 105.359 241.583 105.667 241.188 106.281C240.792 106.891 240.594 107.724 240.594 108.781C240.594 109.833 240.789 110.646 241.18 111.219C241.576 111.792 242.174 112.078 242.977 112.078ZM256.906 108.703C256.906 109.406 256.815 110.034 256.633 110.586C256.451 111.138 256.188 111.604 255.844 111.984C255.5 112.365 255.083 112.656 254.594 112.859C254.109 113.057 253.56 113.156 252.945 113.156C252.372 113.156 251.846 113.057 251.367 112.859C250.893 112.656 250.482 112.365 250.133 111.984C249.789 111.604 249.521 111.138 249.328 110.586C249.141 110.034 249.047 109.406 249.047 108.703C249.047 107.766 249.206 106.969 249.523 106.312C249.841 105.651 250.294 105.148 250.883 104.805C251.477 104.456 252.182 104.281 253 104.281C253.781 104.281 254.464 104.456 255.047 104.805C255.635 105.154 256.091 105.659 256.414 106.32C256.742 106.977 256.906 107.771 256.906 108.703ZM250.391 108.703C250.391 109.391 250.482 109.987 250.664 110.492C250.846 110.997 251.128 111.388 251.508 111.664C251.888 111.94 252.378 112.078 252.977 112.078C253.57 112.078 254.057 111.94 254.438 111.664C254.823 111.388 255.107 110.997 255.289 110.492C255.471 109.987 255.562 109.391 255.562 108.703C255.562 108.021 255.471 107.432 255.289 106.938C255.107 106.438 254.826 106.052 254.445 105.781C254.065 105.51 253.573 105.375 252.969 105.375C252.078 105.375 251.424 105.669 251.008 106.258C250.596 106.846 250.391 107.661 250.391 108.703Z" fill="#007BC7"/>
<path d="M83 113.977H257.781V114.367H83V113.977Z" fill="#007BC7"/>
</svg>
