<svg width="342" height="240" viewBox="0 0 342 240" fill="none" xmlns="http://www.w3.org/2000/svg">
<rect x="1" y="1" width="340" height="212" rx="9" fill="#F3F6F9" stroke="#E6EBF0" stroke-width="2"/>
<path d="M134.304 226.539C133.792 226.539 133.331 226.627 132.92 226.805C132.514 226.979 132.167 227.233 131.879 227.567C131.596 227.897 131.378 228.297 131.226 228.767C131.073 229.236 130.997 229.765 130.997 230.354C130.997 231.132 131.118 231.809 131.359 232.385C131.604 232.956 131.968 233.398 132.451 233.711C132.937 234.025 133.545 234.181 134.272 234.181C134.687 234.181 135.076 234.147 135.44 234.08C135.809 234.008 136.166 233.919 136.513 233.813V234.752C136.175 234.879 135.819 234.972 135.447 235.032C135.074 235.095 134.632 235.127 134.12 235.127C133.176 235.127 132.387 234.932 131.752 234.543C131.122 234.149 130.648 233.595 130.331 232.88C130.017 232.165 129.861 231.32 129.861 230.347C129.861 229.645 129.958 229.004 130.153 228.424C130.352 227.84 130.639 227.336 131.016 226.913C131.397 226.49 131.862 226.164 132.413 225.936C132.967 225.703 133.602 225.586 134.317 225.586C134.787 225.586 135.239 225.633 135.675 225.726C136.111 225.819 136.505 225.952 136.856 226.126L136.424 227.04C136.128 226.905 135.802 226.788 135.447 226.691C135.096 226.589 134.715 226.539 134.304 226.539ZM144.365 231.509C144.365 232.08 144.291 232.59 144.143 233.039C143.995 233.487 143.781 233.866 143.502 234.175C143.223 234.484 142.884 234.721 142.486 234.886C142.093 235.047 141.646 235.127 141.147 235.127C140.681 235.127 140.254 235.047 139.865 234.886C139.48 234.721 139.145 234.484 138.862 234.175C138.583 233.866 138.365 233.487 138.208 233.039C138.056 232.59 137.979 232.08 137.979 231.509C137.979 230.747 138.109 230.1 138.367 229.566C138.625 229.029 138.993 228.621 139.471 228.341C139.954 228.058 140.527 227.916 141.191 227.916C141.826 227.916 142.381 228.058 142.854 228.341C143.333 228.625 143.703 229.035 143.965 229.573C144.232 230.106 144.365 230.751 144.365 231.509ZM139.071 231.509C139.071 232.067 139.145 232.552 139.293 232.962C139.442 233.373 139.67 233.69 139.979 233.915C140.288 234.139 140.686 234.251 141.172 234.251C141.655 234.251 142.05 234.139 142.359 233.915C142.673 233.69 142.903 233.373 143.051 232.962C143.199 232.552 143.273 232.067 143.273 231.509C143.273 230.954 143.199 230.476 143.051 230.074C142.903 229.668 142.675 229.355 142.366 229.135C142.057 228.915 141.657 228.805 141.166 228.805C140.442 228.805 139.911 229.044 139.573 229.522C139.238 230 139.071 230.662 139.071 231.509ZM149.481 227.916C150.307 227.916 150.931 228.119 151.354 228.525C151.777 228.927 151.989 229.575 151.989 230.468V235H150.948V230.538C150.948 229.958 150.814 229.524 150.548 229.236C150.285 228.949 149.881 228.805 149.335 228.805C148.565 228.805 148.024 229.023 147.71 229.458C147.397 229.894 147.241 230.527 147.241 231.356V235H146.187V228.043H147.038L147.196 229.046H147.253C147.402 228.8 147.59 228.595 147.818 228.43C148.047 228.261 148.303 228.134 148.586 228.049C148.87 227.96 149.168 227.916 149.481 227.916ZM160.215 227.916C160.808 227.916 161.316 228.047 161.739 228.31C162.162 228.572 162.486 228.94 162.71 229.414C162.934 229.884 163.046 230.434 163.046 231.064V231.718H158.241C158.254 232.535 158.457 233.157 158.851 233.584C159.244 234.012 159.799 234.226 160.514 234.226C160.954 234.226 161.343 234.185 161.682 234.105C162.02 234.025 162.371 233.906 162.735 233.75V234.676C162.384 234.833 162.035 234.947 161.688 235.019C161.345 235.091 160.939 235.127 160.469 235.127C159.801 235.127 159.217 234.992 158.717 234.721C158.222 234.446 157.837 234.044 157.562 233.515C157.287 232.986 157.149 232.338 157.149 231.572C157.149 230.823 157.274 230.176 157.524 229.63C157.778 229.08 158.133 228.657 158.59 228.36C159.052 228.064 159.593 227.916 160.215 227.916ZM160.203 228.779C159.64 228.779 159.191 228.963 158.857 229.332C158.523 229.7 158.324 230.214 158.26 230.874H161.942C161.938 230.459 161.872 230.095 161.745 229.782C161.622 229.465 161.434 229.219 161.18 229.046C160.926 228.868 160.6 228.779 160.203 228.779ZM167.083 234.264C167.257 234.264 167.435 234.249 167.617 234.219C167.799 234.19 167.947 234.154 168.061 234.111V234.93C167.938 234.985 167.767 235.032 167.547 235.07C167.331 235.108 167.119 235.127 166.912 235.127C166.544 235.127 166.21 235.063 165.909 234.937C165.609 234.805 165.368 234.585 165.186 234.276C165.008 233.967 164.919 233.54 164.919 232.994V228.868H163.929V228.354L164.925 227.941L165.344 226.431H165.979V228.043H168.017V228.868H165.979V232.962C165.979 233.398 166.078 233.724 166.277 233.94C166.48 234.156 166.749 234.264 167.083 234.264ZM170.524 228.043V235H169.47V228.043H170.524ZM170.01 225.44C170.183 225.44 170.331 225.498 170.454 225.612C170.581 225.722 170.645 225.895 170.645 226.132C170.645 226.365 170.581 226.539 170.454 226.653C170.331 226.767 170.183 226.824 170.01 226.824C169.828 226.824 169.675 226.767 169.553 226.653C169.434 226.539 169.375 226.365 169.375 226.132C169.375 225.895 169.434 225.722 169.553 225.612C169.675 225.498 169.828 225.44 170.01 225.44ZM177.424 238.11V235.127C177.424 234.962 177.428 234.771 177.437 234.556C177.445 234.34 177.46 234.154 177.481 233.997H177.411C177.216 234.319 176.939 234.587 176.58 234.803C176.22 235.019 175.757 235.127 175.189 235.127C174.339 235.127 173.655 234.826 173.139 234.226C172.623 233.625 172.365 232.728 172.365 231.534C172.365 230.751 172.483 230.091 172.72 229.554C172.957 229.016 173.292 228.61 173.723 228.335C174.159 228.056 174.667 227.916 175.247 227.916C175.801 227.916 176.254 228.026 176.605 228.246C176.956 228.462 177.231 228.726 177.43 229.04H177.481L177.64 228.043H178.478V238.11H177.424ZM175.386 234.251C175.877 234.251 176.271 234.16 176.567 233.978C176.863 233.792 177.079 233.513 177.214 233.14C177.354 232.768 177.428 232.304 177.437 231.75V231.528C177.437 230.631 177.284 229.951 176.979 229.49C176.675 229.025 176.144 228.792 175.386 228.792C174.735 228.792 174.25 229.042 173.933 229.541C173.615 230.036 173.457 230.709 173.457 231.56C173.457 232.41 173.615 233.072 173.933 233.546C174.25 234.016 174.735 234.251 175.386 234.251ZM186.463 228.043V235H185.6L185.447 234.022H185.39C185.246 234.264 185.06 234.467 184.832 234.632C184.603 234.797 184.345 234.92 184.057 235C183.774 235.085 183.471 235.127 183.149 235.127C182.599 235.127 182.138 235.038 181.766 234.86C181.393 234.683 181.112 234.408 180.921 234.035C180.735 233.663 180.642 233.185 180.642 232.601V228.043H181.708V232.524C181.708 233.104 181.84 233.538 182.102 233.826C182.364 234.109 182.764 234.251 183.302 234.251C183.818 234.251 184.229 234.154 184.533 233.959C184.842 233.764 185.064 233.479 185.2 233.102C185.335 232.721 185.403 232.256 185.403 231.706V228.043H186.463ZM191.37 227.916C191.962 227.916 192.47 228.047 192.893 228.31C193.316 228.572 193.64 228.94 193.864 229.414C194.089 229.884 194.201 230.434 194.201 231.064V231.718H189.396C189.408 232.535 189.611 233.157 190.005 233.584C190.398 234.012 190.953 234.226 191.668 234.226C192.108 234.226 192.497 234.185 192.836 234.105C193.174 234.025 193.526 233.906 193.89 233.75V234.676C193.538 234.833 193.189 234.947 192.842 235.019C192.5 235.091 192.093 235.127 191.624 235.127C190.955 235.127 190.371 234.992 189.872 234.721C189.376 234.446 188.991 234.044 188.716 233.515C188.441 232.986 188.304 232.338 188.304 231.572C188.304 230.823 188.429 230.176 188.678 229.63C188.932 229.08 189.288 228.657 189.745 228.36C190.206 228.064 190.748 227.916 191.37 227.916ZM191.357 228.779C190.794 228.779 190.346 228.963 190.011 229.332C189.677 229.7 189.478 230.214 189.415 230.874H193.096C193.092 230.459 193.026 230.095 192.899 229.782C192.777 229.465 192.588 229.219 192.334 229.046C192.081 228.868 191.755 228.779 191.357 228.779ZM198.238 234.264C198.411 234.264 198.589 234.249 198.771 234.219C198.953 234.19 199.101 234.154 199.215 234.111V234.93C199.093 234.985 198.921 235.032 198.701 235.07C198.485 235.108 198.274 235.127 198.066 235.127C197.698 235.127 197.364 235.063 197.063 234.937C196.763 234.805 196.522 234.585 196.34 234.276C196.162 233.967 196.073 233.54 196.073 232.994V228.868H195.083V228.354L196.08 227.941L196.499 226.431H197.133V228.043H199.171V228.868H197.133V232.962C197.133 233.398 197.233 233.724 197.432 233.94C197.635 234.156 197.903 234.264 198.238 234.264ZM203.227 227.929C204.056 227.929 204.672 228.115 205.074 228.487C205.476 228.86 205.677 229.454 205.677 230.271V235H204.909L204.706 233.972H204.655C204.461 234.226 204.257 234.439 204.046 234.613C203.834 234.782 203.589 234.911 203.31 235C203.035 235.085 202.696 235.127 202.294 235.127C201.871 235.127 201.494 235.053 201.164 234.905C200.838 234.757 200.58 234.532 200.39 234.232C200.203 233.931 200.11 233.551 200.11 233.089C200.11 232.395 200.385 231.862 200.936 231.49C201.486 231.117 202.324 230.914 203.449 230.88L204.649 230.83V230.404C204.649 229.803 204.52 229.382 204.262 229.141C204.004 228.9 203.64 228.779 203.17 228.779C202.806 228.779 202.459 228.832 202.129 228.938C201.799 229.044 201.486 229.169 201.189 229.312L200.866 228.513C201.179 228.352 201.539 228.214 201.945 228.1C202.351 227.986 202.778 227.929 203.227 227.929ZM204.636 231.572L203.576 231.617C202.709 231.651 202.097 231.792 201.742 232.042C201.386 232.292 201.208 232.645 201.208 233.102C201.208 233.5 201.329 233.794 201.57 233.984C201.812 234.175 202.131 234.27 202.529 234.27C203.147 234.27 203.652 234.099 204.046 233.756C204.439 233.413 204.636 232.899 204.636 232.213V231.572ZM212.349 233.096C212.349 233.54 212.236 233.915 212.012 234.219C211.792 234.52 211.475 234.746 211.06 234.898C210.65 235.051 210.159 235.127 209.587 235.127C209.101 235.127 208.68 235.089 208.324 235.013C207.969 234.937 207.658 234.829 207.391 234.689V233.718C207.675 233.857 208.013 233.984 208.407 234.099C208.8 234.213 209.202 234.27 209.613 234.27C210.214 234.27 210.65 234.173 210.92 233.978C211.191 233.783 211.327 233.519 211.327 233.185C211.327 232.994 211.272 232.827 211.162 232.683C211.056 232.535 210.876 232.393 210.622 232.258C210.368 232.118 210.017 231.966 209.568 231.801C209.124 231.632 208.739 231.464 208.413 231.299C208.091 231.13 207.842 230.925 207.664 230.684C207.491 230.442 207.404 230.129 207.404 229.744C207.404 229.156 207.641 228.705 208.115 228.392C208.593 228.075 209.219 227.916 209.994 227.916C210.413 227.916 210.804 227.958 211.168 228.043C211.536 228.123 211.879 228.233 212.196 228.373L211.841 229.217C211.553 229.095 211.246 228.991 210.92 228.906C210.595 228.822 210.262 228.779 209.924 228.779C209.437 228.779 209.063 228.86 208.8 229.021C208.542 229.181 208.413 229.401 208.413 229.681C208.413 229.896 208.472 230.074 208.591 230.214C208.714 230.354 208.908 230.485 209.175 230.607C209.441 230.73 209.793 230.874 210.229 231.039C210.664 231.2 211.041 231.367 211.358 231.541C211.676 231.71 211.919 231.917 212.088 232.163C212.262 232.404 212.349 232.715 212.349 233.096Z" fill="#38485C"/>
<rect x="101.5" y="85.5" width="139" height="43" fill="white"/>
<rect x="101.5" y="85.5" width="139" height="43" stroke="#E6EBF0"/>
<rect x="116.5" y="96.5" width="70" height="21" rx="8.5" fill="#F3F6F9"/>
<rect x="116.5" y="96.5" width="70" height="21" rx="8.5" stroke="#505E70"/>
<path d="M127.437 112H122.27V102.72H127.437V103.672H123.349V106.674H127.202V107.614H123.349V111.048H127.437V112ZM132.343 112H131.258V103.672H128.338V102.72H135.25V103.672H132.343V112ZM136.653 112V102.72H137.732V112H136.653ZM148.333 107.347C148.333 108.109 148.229 108.799 148.022 109.417C147.815 110.034 147.506 110.557 147.095 110.984C146.689 111.412 146.181 111.723 145.572 111.917L147.755 114.209H146.213L144.417 112.114C144.361 112.114 144.304 112.116 144.245 112.121C144.19 112.125 144.135 112.127 144.08 112.127C143.361 112.127 142.732 112.013 142.195 111.784C141.662 111.556 141.217 111.23 140.862 110.807C140.511 110.383 140.246 109.878 140.068 109.29C139.895 108.701 139.808 108.05 139.808 107.334C139.808 106.387 139.965 105.555 140.278 104.84C140.591 104.125 141.065 103.568 141.7 103.17C142.339 102.773 143.139 102.574 144.099 102.574C145.017 102.574 145.79 102.771 146.416 103.164C147.047 103.558 147.523 104.112 147.844 104.827C148.17 105.538 148.333 106.378 148.333 107.347ZM140.944 107.347C140.944 108.134 141.056 108.816 141.281 109.391C141.505 109.967 141.848 110.411 142.309 110.724C142.775 111.037 143.365 111.194 144.08 111.194C144.799 111.194 145.388 111.037 145.845 110.724C146.306 110.411 146.647 109.967 146.867 109.391C147.087 108.816 147.197 108.134 147.197 107.347C147.197 106.15 146.945 105.214 146.441 104.542C145.942 103.864 145.161 103.526 144.099 103.526C143.38 103.526 142.787 103.68 142.322 103.989C141.856 104.298 141.509 104.738 141.281 105.31C141.056 105.877 140.944 106.556 140.944 107.347ZM157.423 102.72V108.725C157.423 109.381 157.29 109.965 157.023 110.477C156.761 110.989 156.363 111.393 155.83 111.689C155.296 111.981 154.628 112.127 153.824 112.127C152.677 112.127 151.803 111.816 151.202 111.194C150.605 110.572 150.307 109.74 150.307 108.699V102.72H151.393V108.731C151.393 109.518 151.6 110.125 152.015 110.553C152.434 110.98 153.058 111.194 153.887 111.194C154.454 111.194 154.918 111.092 155.277 110.889C155.641 110.682 155.91 110.394 156.083 110.026C156.261 109.653 156.35 109.224 156.35 108.737V102.72H157.423ZM165.053 112H159.886V102.72H165.053V103.672H160.965V106.674H164.818V107.614H160.965V111.048H165.053V112ZM169.959 112H168.874V103.672H165.954V102.72H172.867V103.672H169.959V112ZM180.09 112L178.948 109.055H175.228L174.092 112H173L176.631 102.682H177.602L181.208 112H180.09ZM178.624 108.096L177.539 105.17C177.513 105.094 177.471 104.969 177.412 104.795C177.357 104.622 177.299 104.442 177.24 104.256C177.181 104.07 177.132 103.919 177.094 103.805C177.052 103.979 177.005 104.152 176.955 104.326C176.908 104.495 176.861 104.654 176.815 104.802C176.768 104.946 176.728 105.068 176.694 105.17L175.59 108.096H178.624Z" fill="#38485C"/>
</svg>
