<svg width="342" height="240" viewBox="0 0 342 240" fill="none" xmlns="http://www.w3.org/2000/svg">
<rect x="1" y="1" width="340" height="212" rx="9" fill="#F3F6F9" stroke="#E6EBF0" stroke-width="2"/>
<path d="M110.132 226.539C109.62 226.539 109.159 226.627 108.749 226.805C108.342 226.979 107.995 227.233 107.708 227.567C107.424 227.897 107.206 228.297 107.054 228.767C106.901 229.236 106.825 229.765 106.825 230.354C106.825 231.132 106.946 231.809 107.187 232.385C107.432 232.956 107.796 233.398 108.279 233.711C108.765 234.025 109.373 234.181 110.101 234.181C110.515 234.181 110.905 234.147 111.269 234.08C111.637 234.008 111.994 233.919 112.341 233.813V234.752C112.003 234.879 111.647 234.972 111.275 235.032C110.903 235.095 110.46 235.127 109.948 235.127C109.005 235.127 108.215 234.932 107.581 234.543C106.95 234.149 106.476 233.595 106.159 232.88C105.846 232.165 105.689 231.32 105.689 230.347C105.689 229.645 105.786 229.004 105.981 228.424C106.18 227.84 106.468 227.336 106.844 226.913C107.225 226.49 107.691 226.164 108.241 225.936C108.795 225.703 109.43 225.586 110.145 225.586C110.615 225.586 111.068 225.633 111.503 225.726C111.939 225.819 112.333 225.952 112.684 226.126L112.252 227.04C111.956 226.905 111.63 226.788 111.275 226.691C110.924 226.589 110.543 226.539 110.132 226.539ZM120.193 231.509C120.193 232.08 120.119 232.59 119.971 233.039C119.823 233.487 119.609 233.866 119.33 234.175C119.051 234.484 118.712 234.721 118.314 234.886C117.921 235.047 117.474 235.127 116.975 235.127C116.51 235.127 116.082 235.047 115.693 234.886C115.308 234.721 114.973 234.484 114.69 234.175C114.411 233.866 114.193 233.487 114.036 233.039C113.884 232.59 113.808 232.08 113.808 231.509C113.808 230.747 113.937 230.1 114.195 229.566C114.453 229.029 114.821 228.621 115.299 228.341C115.782 228.058 116.355 227.916 117.02 227.916C117.654 227.916 118.209 228.058 118.683 228.341C119.161 228.625 119.531 229.035 119.793 229.573C120.06 230.106 120.193 230.751 120.193 231.509ZM114.899 231.509C114.899 232.067 114.973 232.552 115.122 232.962C115.27 233.373 115.498 233.69 115.807 233.915C116.116 234.139 116.514 234.251 117 234.251C117.483 234.251 117.879 234.139 118.188 233.915C118.501 233.69 118.731 233.373 118.879 232.962C119.028 232.552 119.102 232.067 119.102 231.509C119.102 230.954 119.028 230.476 118.879 230.074C118.731 229.668 118.503 229.355 118.194 229.135C117.885 228.915 117.485 228.805 116.994 228.805C116.271 228.805 115.739 229.044 115.401 229.522C115.067 230 114.899 230.662 114.899 231.509ZM125.31 227.916C126.135 227.916 126.759 228.119 127.182 228.525C127.605 228.927 127.817 229.575 127.817 230.468V235H126.776V230.538C126.776 229.958 126.643 229.524 126.376 229.236C126.114 228.949 125.709 228.805 125.164 228.805C124.393 228.805 123.852 229.023 123.539 229.458C123.225 229.894 123.069 230.527 123.069 231.356V235H122.015V228.043H122.866L123.024 229.046H123.082C123.23 228.8 123.418 228.595 123.646 228.43C123.875 228.261 124.131 228.134 124.415 228.049C124.698 227.96 124.996 227.916 125.31 227.916ZM134.418 225.123V227.592C134.418 227.876 134.41 228.151 134.393 228.417C134.38 228.684 134.37 228.891 134.361 229.04H134.418C134.609 228.726 134.884 228.462 135.244 228.246C135.603 228.03 136.062 227.922 136.621 227.922C137.493 227.922 138.187 228.225 138.703 228.83C139.224 229.431 139.484 230.326 139.484 231.515C139.484 232.298 139.365 232.958 139.128 233.496C138.891 234.033 138.557 234.439 138.125 234.714C137.694 234.989 137.184 235.127 136.596 235.127C136.046 235.127 135.593 235.025 135.237 234.822C134.886 234.615 134.615 234.363 134.425 234.067H134.342L134.126 235H133.365V225.123H134.418ZM136.45 228.805C135.946 228.805 135.546 228.904 135.25 229.103C134.954 229.298 134.74 229.594 134.609 229.992C134.482 230.385 134.418 230.885 134.418 231.49V231.547C134.418 232.423 134.564 233.094 134.856 233.559C135.148 234.02 135.68 234.251 136.45 234.251C137.097 234.251 137.582 234.014 137.903 233.54C138.229 233.066 138.392 232.389 138.392 231.509C138.392 230.612 138.231 229.937 137.91 229.484C137.592 229.031 137.106 228.805 136.45 228.805ZM147.323 231.509C147.323 232.08 147.249 232.59 147.101 233.039C146.953 233.487 146.739 233.866 146.46 234.175C146.181 234.484 145.842 234.721 145.444 234.886C145.051 235.047 144.604 235.127 144.105 235.127C143.639 235.127 143.212 235.047 142.823 234.886C142.438 234.721 142.103 234.484 141.82 234.175C141.541 233.866 141.323 233.487 141.166 233.039C141.014 232.59 140.938 232.08 140.938 231.509C140.938 230.747 141.067 230.1 141.325 229.566C141.583 229.029 141.951 228.621 142.429 228.341C142.912 228.058 143.485 227.916 144.149 227.916C144.784 227.916 145.339 228.058 145.812 228.341C146.291 228.625 146.661 229.035 146.923 229.573C147.19 230.106 147.323 230.751 147.323 231.509ZM142.029 231.509C142.029 232.067 142.103 232.552 142.251 232.962C142.4 233.373 142.628 233.69 142.937 233.915C143.246 234.139 143.644 234.251 144.13 234.251C144.613 234.251 145.008 234.139 145.317 233.915C145.631 233.69 145.861 233.373 146.009 232.962C146.157 232.552 146.231 232.067 146.231 231.509C146.231 230.954 146.157 230.476 146.009 230.074C145.861 229.668 145.633 229.355 145.324 229.135C145.015 228.915 144.615 228.805 144.124 228.805C143.4 228.805 142.869 229.044 142.531 229.522C142.196 230 142.029 230.662 142.029 231.509ZM151.392 234.264C151.566 234.264 151.743 234.249 151.925 234.219C152.107 234.19 152.255 234.154 152.37 234.111V234.93C152.247 234.985 152.076 235.032 151.855 235.07C151.64 235.108 151.428 235.127 151.221 235.127C150.853 235.127 150.518 235.063 150.218 234.937C149.917 234.805 149.676 234.585 149.494 234.276C149.316 233.967 149.228 233.54 149.228 232.994V228.868H148.237V228.354L149.234 227.941L149.653 226.431H150.288V228.043H152.325V228.868H150.288V232.962C150.288 233.398 150.387 233.724 150.586 233.94C150.789 234.156 151.058 234.264 151.392 234.264ZM159.777 231.509C159.777 232.08 159.703 232.59 159.555 233.039C159.407 233.487 159.193 233.866 158.914 234.175C158.635 234.484 158.296 234.721 157.898 234.886C157.505 235.047 157.058 235.127 156.559 235.127C156.094 235.127 155.666 235.047 155.277 234.886C154.892 234.721 154.557 234.484 154.274 234.175C153.995 233.866 153.777 233.487 153.62 233.039C153.468 232.59 153.392 232.08 153.392 231.509C153.392 230.747 153.521 230.1 153.779 229.566C154.037 229.029 154.405 228.621 154.883 228.341C155.366 228.058 155.939 227.916 156.604 227.916C157.238 227.916 157.793 228.058 158.267 228.341C158.745 228.625 159.115 229.035 159.377 229.573C159.644 230.106 159.777 230.751 159.777 231.509ZM154.483 231.509C154.483 232.067 154.557 232.552 154.706 232.962C154.854 233.373 155.082 233.69 155.391 233.915C155.7 234.139 156.098 234.251 156.584 234.251C157.067 234.251 157.463 234.139 157.771 233.915C158.085 233.69 158.315 233.373 158.463 232.962C158.611 232.552 158.686 232.067 158.686 231.509C158.686 230.954 158.611 230.476 158.463 230.074C158.315 229.668 158.087 229.355 157.778 229.135C157.469 228.915 157.069 228.805 156.578 228.805C155.854 228.805 155.323 229.044 154.985 229.522C154.651 230 154.483 230.662 154.483 231.509ZM164.894 227.916C165.719 227.916 166.343 228.119 166.766 228.525C167.189 228.927 167.401 229.575 167.401 230.468V235H166.36V230.538C166.36 229.958 166.227 229.524 165.96 229.236C165.698 228.949 165.293 228.805 164.748 228.805C163.977 228.805 163.436 229.023 163.123 229.458C162.809 229.894 162.653 230.527 162.653 231.356V235H161.599V228.043H162.45L162.608 229.046H162.666C162.814 228.8 163.002 228.595 163.23 228.43C163.459 228.261 163.715 228.134 163.999 228.049C164.282 227.96 164.58 227.916 164.894 227.916ZM172.25 227.916C172.843 227.916 173.351 228.047 173.774 228.31C174.197 228.572 174.521 228.94 174.745 229.414C174.969 229.884 175.082 230.434 175.082 231.064V231.718H170.276C170.289 232.535 170.492 233.157 170.886 233.584C171.279 234.012 171.834 234.226 172.549 234.226C172.989 234.226 173.378 234.185 173.717 234.105C174.055 234.025 174.407 233.906 174.771 233.75V234.676C174.419 234.833 174.07 234.947 173.723 235.019C173.38 235.091 172.974 235.127 172.504 235.127C171.836 235.127 171.252 234.992 170.752 234.721C170.257 234.446 169.872 234.044 169.597 233.515C169.322 232.986 169.185 232.338 169.185 231.572C169.185 230.823 169.309 230.176 169.559 229.63C169.813 229.08 170.168 228.657 170.625 228.36C171.087 228.064 171.628 227.916 172.25 227.916ZM172.238 228.779C171.675 228.779 171.226 228.963 170.892 229.332C170.558 229.7 170.359 230.214 170.295 230.874H173.977C173.973 230.459 173.907 230.095 173.78 229.782C173.658 229.465 173.469 229.219 173.215 229.046C172.961 228.868 172.636 228.779 172.238 228.779ZM181.372 233.096C181.372 233.54 181.26 233.915 181.036 234.219C180.816 234.52 180.498 234.746 180.083 234.898C179.673 235.051 179.182 235.127 178.611 235.127C178.124 235.127 177.703 235.089 177.348 235.013C176.992 234.937 176.681 234.829 176.415 234.689V233.718C176.698 233.857 177.037 233.984 177.43 234.099C177.824 234.213 178.226 234.27 178.636 234.27C179.237 234.27 179.673 234.173 179.944 233.978C180.215 233.783 180.35 233.519 180.35 233.185C180.35 232.994 180.295 232.827 180.185 232.683C180.079 232.535 179.899 232.393 179.646 232.258C179.392 232.118 179.04 231.966 178.592 231.801C178.147 231.632 177.762 231.464 177.437 231.299C177.115 231.13 176.865 230.925 176.688 230.684C176.514 230.442 176.427 230.129 176.427 229.744C176.427 229.156 176.664 228.705 177.138 228.392C177.616 228.075 178.243 227.916 179.017 227.916C179.436 227.916 179.827 227.958 180.191 228.043C180.56 228.123 180.902 228.233 181.22 228.373L180.864 229.217C180.576 229.095 180.27 228.991 179.944 228.906C179.618 228.822 179.286 228.779 178.947 228.779C178.461 228.779 178.086 228.86 177.824 229.021C177.566 229.181 177.437 229.401 177.437 229.681C177.437 229.896 177.496 230.074 177.614 230.214C177.737 230.354 177.932 230.485 178.198 230.607C178.465 230.73 178.816 230.874 179.252 231.039C179.688 231.2 180.064 231.367 180.382 231.541C180.699 231.71 180.943 231.917 181.112 232.163C181.285 232.404 181.372 232.715 181.372 233.096ZM188.919 235.127C188.039 235.127 187.341 234.826 186.825 234.226C186.313 233.625 186.057 232.732 186.057 231.547C186.057 230.349 186.319 229.446 186.844 228.836C187.368 228.223 188.067 227.916 188.938 227.916C189.307 227.916 189.628 227.965 189.903 228.062C190.178 228.159 190.415 228.291 190.614 228.456C190.813 228.616 190.98 228.8 191.116 229.008H191.192C191.175 228.877 191.158 228.697 191.141 228.468C191.124 228.24 191.116 228.054 191.116 227.91V225.123H192.169V235H191.319L191.16 234.01H191.116C190.985 234.217 190.817 234.405 190.614 234.575C190.415 234.744 190.176 234.879 189.897 234.981C189.622 235.078 189.296 235.127 188.919 235.127ZM189.084 234.251C189.829 234.251 190.356 234.039 190.665 233.616C190.974 233.193 191.128 232.565 191.128 231.731V231.541C191.128 230.656 190.98 229.977 190.684 229.503C190.392 229.029 189.859 228.792 189.084 228.792C188.437 228.792 187.952 229.042 187.631 229.541C187.309 230.036 187.148 230.713 187.148 231.572C187.148 232.427 187.307 233.087 187.625 233.553C187.946 234.018 188.433 234.251 189.084 234.251ZM197.083 227.916C197.675 227.916 198.183 228.047 198.606 228.31C199.029 228.572 199.353 228.94 199.577 229.414C199.801 229.884 199.914 230.434 199.914 231.064V231.718H195.108C195.121 232.535 195.324 233.157 195.718 233.584C196.111 234.012 196.666 234.226 197.381 234.226C197.821 234.226 198.21 234.185 198.549 234.105C198.887 234.025 199.239 233.906 199.603 233.75V234.676C199.251 234.833 198.902 234.947 198.555 235.019C198.212 235.091 197.806 235.127 197.336 235.127C196.668 235.127 196.084 234.992 195.584 234.721C195.089 234.446 194.704 234.044 194.429 233.515C194.154 232.986 194.017 232.338 194.017 231.572C194.017 230.823 194.141 230.176 194.391 229.63C194.645 229.08 195 228.657 195.458 228.36C195.919 228.064 196.46 227.916 197.083 227.916ZM197.07 228.779C196.507 228.779 196.058 228.963 195.724 229.332C195.39 229.7 195.191 230.214 195.127 230.874H198.809C198.805 230.459 198.739 230.095 198.612 229.782C198.49 229.465 198.301 229.219 198.047 229.046C197.793 228.868 197.468 228.779 197.07 228.779ZM206.134 235H205.081V228.043H206.134V235ZM207.448 225.041V225.167C207.364 225.29 207.247 225.438 207.099 225.612C206.955 225.781 206.794 225.961 206.617 226.151C206.439 226.338 206.259 226.515 206.077 226.685C205.899 226.854 205.734 227 205.582 227.123H204.877V226.97C205.013 226.809 205.161 226.617 205.322 226.393C205.483 226.164 205.639 225.931 205.792 225.694C205.944 225.453 206.071 225.235 206.172 225.041H207.448ZM211.155 235.127C210.529 235.127 209.977 234.998 209.499 234.74C209.02 234.482 208.648 234.088 208.381 233.559C208.115 233.03 207.981 232.364 207.981 231.56C207.981 230.717 208.121 230.03 208.4 229.497C208.684 228.959 209.073 228.561 209.568 228.303C210.063 228.045 210.626 227.916 211.257 227.916C211.604 227.916 211.938 227.952 212.26 228.024C212.586 228.092 212.852 228.178 213.06 228.284L212.742 229.167C212.531 229.082 212.285 229.006 212.006 228.938C211.731 228.87 211.473 228.836 211.231 228.836C210.749 228.836 210.347 228.94 210.025 229.147C209.708 229.355 209.469 229.66 209.308 230.062C209.152 230.464 209.073 230.959 209.073 231.547C209.073 232.11 209.149 232.59 209.302 232.988C209.458 233.386 209.689 233.69 209.994 233.902C210.303 234.109 210.688 234.213 211.149 234.213C211.517 234.213 211.849 234.175 212.146 234.099C212.442 234.018 212.71 233.925 212.952 233.819V234.759C212.719 234.877 212.459 234.968 212.171 235.032C211.887 235.095 211.549 235.127 211.155 235.127ZM220.601 231.509C220.601 232.08 220.527 232.59 220.378 233.039C220.23 233.487 220.017 233.866 219.737 234.175C219.458 234.484 219.119 234.721 218.722 234.886C218.328 235.047 217.882 235.127 217.382 235.127C216.917 235.127 216.489 235.047 216.1 234.886C215.715 234.721 215.381 234.484 215.097 234.175C214.818 233.866 214.6 233.487 214.443 233.039C214.291 232.59 214.215 232.08 214.215 231.509C214.215 230.747 214.344 230.1 214.602 229.566C214.86 229.029 215.228 228.621 215.707 228.341C216.189 228.058 216.762 227.916 217.427 227.916C218.062 227.916 218.616 228.058 219.09 228.341C219.568 228.625 219.938 229.035 220.201 229.573C220.467 230.106 220.601 230.751 220.601 231.509ZM215.307 231.509C215.307 232.067 215.381 232.552 215.529 232.962C215.677 233.373 215.905 233.69 216.214 233.915C216.523 234.139 216.921 234.251 217.408 234.251C217.89 234.251 218.286 234.139 218.595 233.915C218.908 233.69 219.139 233.373 219.287 232.962C219.435 232.552 219.509 232.067 219.509 231.509C219.509 230.954 219.435 230.476 219.287 230.074C219.139 229.668 218.91 229.355 218.601 229.135C218.292 228.915 217.892 228.805 217.401 228.805C216.678 228.805 216.147 229.044 215.808 229.522C215.474 230 215.307 230.662 215.307 231.509ZM225.717 227.916C226.542 227.916 227.166 228.119 227.589 228.525C228.013 228.927 228.224 229.575 228.224 230.468V235H227.183V230.538C227.183 229.958 227.05 229.524 226.783 229.236C226.521 228.949 226.117 228.805 225.571 228.805C224.801 228.805 224.259 229.023 223.946 229.458C223.633 229.894 223.476 230.527 223.476 231.356V235H222.422V228.043H223.273L223.432 229.046H223.489C223.637 228.8 223.825 228.595 224.054 228.43C224.282 228.261 224.538 228.134 224.822 228.049C225.105 227.96 225.404 227.916 225.717 227.916ZM236.394 231.509C236.394 232.08 236.319 232.59 236.171 233.039C236.023 233.487 235.81 233.866 235.53 234.175C235.251 234.484 234.912 234.721 234.515 234.886C234.121 235.047 233.675 235.127 233.175 235.127C232.71 235.127 232.282 235.047 231.893 234.886C231.508 234.721 231.174 234.484 230.89 234.175C230.611 233.866 230.393 233.487 230.236 233.039C230.084 232.59 230.008 232.08 230.008 231.509C230.008 230.747 230.137 230.1 230.395 229.566C230.653 229.029 231.021 228.621 231.5 228.341C231.982 228.058 232.555 227.916 233.22 227.916C233.854 227.916 234.409 228.058 234.883 228.341C235.361 228.625 235.731 229.035 235.994 229.573C236.26 230.106 236.394 230.751 236.394 231.509ZM231.1 231.509C231.1 232.067 231.174 232.552 231.322 232.962C231.47 233.373 231.698 233.69 232.007 233.915C232.316 234.139 232.714 234.251 233.201 234.251C233.683 234.251 234.079 234.139 234.388 233.915C234.701 233.69 234.931 233.373 235.08 232.962C235.228 232.552 235.302 232.067 235.302 231.509C235.302 230.954 235.228 230.476 235.08 230.074C234.931 229.668 234.703 229.355 234.394 229.135C234.085 228.915 233.685 228.805 233.194 228.805C232.471 228.805 231.94 229.044 231.601 229.522C231.267 230 231.1 230.662 231.1 231.509Z" fill="#38485C"/>
<rect x="95.5" y="83.5" width="151" height="47" fill="white"/>
<rect x="95.5" y="83.5" width="151" height="47" stroke="#E6EBF0"/>
<path d="M113.999 112.461V115.501C113.999 115.781 114.219 116.001 114.499 116.001H117.539C117.669 116.001 117.799 115.951 117.889 115.851L128.809 104.941L125.059 101.191L114.149 112.101C114.049 112.201 113.999 112.321 113.999 112.461ZM131.709 102.041C132.099 101.651 132.099 101.021 131.709 100.631L129.369 98.2913C128.979 97.9013 128.349 97.9013 127.959 98.2913L126.129 100.121L129.879 103.871L131.709 102.041Z" fill="#38485C"/>
<path d="M155 99.5C150 99.5 145.73 102.61 144 107C145.73 111.39 150 114.5 155 114.5C160 114.5 164.27 111.39 166 107C164.27 102.61 160 99.5 155 99.5ZM155 112C152.24 112 150 109.76 150 107C150 104.24 152.24 102 155 102C157.76 102 160 104.24 160 107C160 109.76 157.76 112 155 112ZM155 104C153.34 104 152 105.34 152 107C152 108.66 153.34 110 155 110C156.66 110 158 108.66 158 107C158 105.34 156.66 104 155 104Z" fill="#38485C"/>
<path d="M191.59 104.5H190V99.5C190 98.95 189.55 98.5 189 98.5H185C184.45 98.5 184 98.95 184 99.5V104.5H182.41C181.52 104.5 181.07 105.58 181.7 106.21L186.29 110.8C186.68 111.19 187.31 111.19 187.7 110.8L192.29 106.21C192.92 105.58 192.48 104.5 191.59 104.5ZM180 114.5C180 115.05 180.45 115.5 181 115.5H193C193.55 115.5 194 115.05 194 114.5C194 113.95 193.55 113.5 193 113.5H181C180.45 113.5 180 113.95 180 114.5Z" fill="#38485C"/>
<path d="M213 114C213 115.1 213.9 116 215 116H223C224.1 116 225 115.1 225 114V104C225 102.9 224.1 102 223 102H215C213.9 102 213 102.9 213 104V114ZM225 99H222.5L221.79 98.29C221.61 98.11 221.35 98 221.09 98H216.91C216.65 98 216.39 98.11 216.21 98.29L215.5 99H213C212.45 99 212 99.45 212 100C212 100.55 212.45 101 213 101H225C225.55 101 226 100.55 226 100C226 99.45 225.55 99 225 99Z" fill="#38485C"/>
</svg>
