<svg xmlns="http://www.w3.org/2000/svg" width="340" height="242" viewBox="0 0 340 242"><defs><style>.a{fill:#f3f6f9;}.b{fill:#fff;}.c{fill:#e6ebf0;}.d{fill:#ffdb2e;}.e{fill:#dfe7f0;}.f{fill:none;stroke:#38485c;stroke-width:2px;stroke-dasharray:12 8;}.g{fill:#c93b3b;}</style></defs><g transform="translate(-885 -3366)"><rect class="a" width="340" height="242" rx="4" transform="translate(885 3366)"/><g transform="translate(963 3398.214)"><rect class="b" width="175.786" height="18.893" transform="translate(0 8.214)"/><rect class="b" width="175.786" height="18.893" transform="translate(0 45.179)"/><rect class="b" width="175.786" height="32.857" transform="translate(0 119.107)"/><rect class="b" width="83.786" height="18.893" transform="translate(0 82.143)"/><rect class="b" width="83.786" height="18.893" transform="translate(92 82.143)"/><rect class="c" width="49.286" height="4.929" transform="translate(0 0)"/><rect class="c" width="49.286" height="4.929" transform="translate(0 36.964)"/><rect class="c" width="49.286" height="4.929" transform="translate(0 110.893)"/><rect class="c" width="49.286" height="4.929" transform="translate(0 73.929)"/><rect class="c" width="49.286" height="4.929" transform="translate(92 73.929)"/><g transform="translate(-0.071 171.679)"><rect class="d" width="55.857" height="13.964" rx="1"/></g><g transform="translate(63.679 171.679)"><rect class="e" width="55.857" height="13.964" rx="1"/></g></g><line class="f" y1="190" transform="translate(963.018 3393.5)"/><g transform="translate(1128 3393)"><path class="g" d="M10,0A10,10,0,1,0,20,10,10.011,10.011,0,0,0,10,0Zm0,0" transform="translate(0)"/><path class="b" d="M163.081,161.9a.833.833,0,1,1-1.178,1.178l-2.5-2.5-2.5,2.5a.833.833,0,1,1-1.178-1.178l2.5-2.5-2.5-2.5a.833.833,0,1,1,1.178-1.178l2.5,2.5,2.5-2.5a.833.833,0,1,1,1.178,1.178l-2.5,2.5Zm0,0" transform="translate(-149.398 -149.398)"/></g></g></svg>