<svg xmlns="http://www.w3.org/2000/svg" width="340" height="293" viewBox="0 0 340 293"><defs><style>.a{fill:#f3f6f9;}.b{fill:#fff;}.c{fill:#ffdb2e;}.d{fill:none;stroke:#38485c;stroke-width:2px;stroke-dasharray:12 8;}.e{fill:#c93b3b;}</style></defs><g transform="translate(-885 -3893)"><rect class="a" width="340" height="293" rx="4" transform="translate(885 3893)"/><g transform="translate(128 -338.5)"><rect class="b" width="214" height="18" transform="translate(815 4265.5)"/><rect class="b" width="184" height="18" transform="translate(815 4287.5)"/><rect class="b" width="214" height="12" transform="translate(815 4313.5)"/><rect class="b" width="214" height="12" transform="translate(815 4329.5)"/><rect class="b" width="214" height="6" transform="translate(815 4363.5)"/><rect class="b" width="214" height="6" transform="translate(815 4421.5)"/><rect class="b" width="209" height="6" transform="translate(815 4373.5)"/><rect class="b" width="209" height="6" transform="translate(815 4431.5)"/><rect class="b" width="214" height="6" transform="translate(815 4383.5)"/><rect class="b" width="214" height="6" transform="translate(815 4441.5)"/><rect class="b" width="202" height="6" transform="translate(815 4393.5)"/><rect class="b" width="202" height="6" transform="translate(815 4451.5)"/><rect class="b" width="212" height="6" transform="translate(815 4403.5)"/><rect class="b" width="212" height="6" transform="translate(815 4461.5)"/><rect class="c" width="68" height="17" rx="1" transform="translate(888 4483.5)"/><line class="d" y1="235" transform="translate(955.5 4265.5)"/><line class="d" y1="235" transform="translate(888.5 4265.5)"/><g transform="translate(1019 4255.5)"><path class="e" d="M10,0A10,10,0,1,0,20,10,10.011,10.011,0,0,0,10,0Zm0,0" transform="translate(0)"/><path class="b" d="M163.081,161.9a.833.833,0,1,1-1.178,1.178l-2.5-2.5-2.5,2.5a.833.833,0,1,1-1.178-1.178l2.5-2.5-2.5-2.5a.833.833,0,1,1,1.178-1.178l2.5,2.5,2.5-2.5a.833.833,0,1,1,1.178,1.178l-2.5,2.5Zm0,0" transform="translate(-149.398 -149.398)"/></g></g></g></svg>