<svg xmlns="http://www.w3.org/2000/svg" width="712" height="176" viewBox="0 0 712 176">
  <g id="Grupo_21050" data-name="Grupo 21050" transform="translate(-513 -606)">
    <g id="Grupo_18078" data-name="Grupo 18078" transform="translate(0 10)">
      <path id="Trazado_20235" data-name="Trazado 20235" d="M4,0H708c2.209,0,4,.624,4,1.394V174.606c0,.77-1.791,1.394-4,1.394H4c-2.209,0-4-.624-4-1.394V1.394C0,.624,1.791,0,4,0Z" transform="translate(513 596)" fill="#f3f6f9"/>
    </g>
    <rect id="Rectángulo_3061" data-name="Rectángulo 3061" width="100" height="48" rx="4" transform="translate(819 670)" fill="#e6ebf0"/>
    <path id="Trazado_23807" data-name="Trazado 23807" d="M-24.491-12.85h3.814a7.24,7.24,0,0,1,3.836.773,2.708,2.708,0,0,1,1.182,2.443,2.961,2.961,0,0,1-.58,1.872,2.594,2.594,0,0,1-1.67.94v.088a3.316,3.316,0,0,1,1.991,1.006,3.044,3.044,0,0,1,.637,2.035A3.3,3.3,0,0,1-16.488-.98,5.2,5.2,0,0,1-19.85,0h-4.641Zm2.1,5.309h2.021a3.461,3.461,0,0,0,1.925-.417,1.6,1.6,0,0,0,.606-1.419,1.422,1.422,0,0,0-.655-1.31,4.09,4.09,0,0,0-2.079-.4H-22.39Zm0,1.705v4.069h2.232a3.286,3.286,0,0,0,1.991-.505,1.866,1.866,0,0,0,.672-1.6,1.694,1.694,0,0,0-.686-1.485,3.633,3.633,0,0,0-2.083-.483Zm18.185.958A5.306,5.306,0,0,1-5.427-1.16,4.377,4.377,0,0,1-8.829.176a4.66,4.66,0,0,1-2.408-.615,4.062,4.062,0,0,1-1.608-1.767,6.017,6.017,0,0,1-.562-2.672,5.27,5.27,0,0,1,1.213-3.691A4.4,4.4,0,0,1-8.776-9.9a4.282,4.282,0,0,1,3.34,1.358A5.245,5.245,0,0,1-4.206-4.878Zm-7.075,0q0,3.366,2.487,3.366,2.461,0,2.461-3.366,0-3.331-2.479-3.331a2.113,2.113,0,0,0-1.885.861A4.383,4.383,0,0,0-11.281-4.878ZM1.789-1.494A5.023,5.023,0,0,0,3.3-1.731V-.176a4.169,4.169,0,0,1-.883.25A6.086,6.086,0,0,1,1.3.176q-2.936,0-2.936-3.094V-8.156H-2.966V-9.07l1.424-.756.7-2.057H.435v2.162H3.2v1.564H.435v5.2a1.46,1.46,0,0,0,.374,1.1A1.362,1.362,0,0,0,1.789-1.494ZM13.865-4.878A5.306,5.306,0,0,1,12.643-1.16,4.377,4.377,0,0,1,9.242.176,4.66,4.66,0,0,1,6.833-.439,4.062,4.062,0,0,1,5.225-2.206a6.017,6.017,0,0,1-.562-2.672A5.27,5.27,0,0,1,5.875-8.569,4.4,4.4,0,0,1,9.294-9.9a4.282,4.282,0,0,1,3.34,1.358A5.245,5.245,0,0,1,13.865-4.878Zm-7.075,0q0,3.366,2.487,3.366,2.461,0,2.461-3.366,0-3.331-2.479-3.331a2.113,2.113,0,0,0-1.885.861A4.383,4.383,0,0,0,6.79-4.878Zm1.134-6.029v-.22q.5-.615,1.033-1.371T9.8-13.79h2.4v.185a18.048,18.048,0,0,1-1.367,1.384,19.27,19.27,0,0,1-1.534,1.314ZM24.79,0H22.715V-5.977a2.616,2.616,0,0,0-.453-1.679,1.75,1.75,0,0,0-1.437-.554,2.285,2.285,0,0,0-1.916.773A4.27,4.27,0,0,0,18.3-4.843V0H16.238V-9.721h1.617l.29,1.274h.105A2.876,2.876,0,0,1,19.5-9.519,4.182,4.182,0,0,1,21.292-9.9q3.5,0,3.5,3.56Z" transform="translate(869 701)" fill="#38485c"/>
    <g id="Grupo_18125" data-name="Grupo 18125" transform="translate(120 -5.287)">
      <line id="Línea_114" data-name="Línea 114" x2="24.073" transform="translate(680 687.5) rotate(90)" fill="none" stroke="#38485c" stroke-linecap="round" stroke-width="1"/>
      <path id="Trazado_4671" data-name="Trazado 4671" d="M0,0V3.033" transform="translate(680 711.573) rotate(-90)" fill="none" stroke="#38485c" stroke-linecap="round" stroke-width="1"/>
      <path id="Trazado_20265" data-name="Trazado 20265" d="M0,0V3.033" transform="translate(680.001 687.286) rotate(-90)" fill="none" stroke="#38485c" stroke-linecap="round" stroke-width="1"/>
    </g>
    <g id="Trazado_20315" data-name="Trazado 20315" transform="translate(842.9 706.286) rotate(-90)" fill="rgba(56,72,92,0.24)" stroke-dasharray="5 5">
      <path d="M0,0H24.286V52.1H0Z" stroke="none"/>
      <path d="M 9.999998092651367 -3.814697265625e-06 L 14.99999809265137 -3.814697265625e-06 L 14.99999809265137 0.9999961853027344 L 9.999998092651367 0.9999961853027344 L 9.999998092651367 -3.814697265625e-06 Z M 19.99999809265137 -3.814697265625e-06 L 24.28637886047363 -3.814697265625e-06 L 24.28637886047363 0.9999961853027344 L 19.99999809265137 0.9999961853027344 L 19.99999809265137 -3.814697265625e-06 Z M 23.28637886047363 5.713615417480469 L 24.28637886047363 5.713615417480469 C 24.28637886047363 5.713615417480469 24.28637886047363 10.71361541748047 24.28637886047363 10.71361541748047 L 23.28637886047363 10.71361541748047 L 23.28637886047363 5.713615417480469 Z M 23.28637886047363 15.71361541748047 L 24.28637886047363 15.71361541748047 C 24.28637886047363 15.71361541748047 24.28637886047363 20.71361541748047 24.28637886047363 20.71361541748047 L 23.28637886047363 20.71361541748047 L 23.28637886047363 15.71361541748047 Z M 23.28637886047363 25.71361541748047 L 24.28637886047363 25.71361541748047 C 24.28637886047363 25.71361541748047 24.28637886047363 30.71361541748047 24.28637886047363 30.71361541748047 L 23.28637886047363 30.71361541748047 L 23.28637886047363 25.71361541748047 Z M 23.28637886047363 35.71361541748047 L 24.28637886047363 35.71361541748047 C 24.28637886047363 35.71361541748047 24.28637886047363 40.71361541748047 24.28637886047363 40.71361541748047 L 23.28637886047363 40.71361541748047 L 23.28637886047363 35.71361541748047 Z M 23.28637886047363 45.71361541748047 L 24.28637886047363 45.71361541748047 C 24.28637886047363 45.71361541748047 24.28637886047363 50.71361541748047 24.28637886047363 50.71361541748047 L 23.28637886047363 50.71361541748047 L 23.28637886047363 45.71361541748047 Z M 15.67236804962158 51.09960556030273 L 20.6723690032959 51.09960556030273 L 20.6723690032959 52.09960556030273 C 20.6723690032959 52.09960556030273 15.67236804962158 52.09960556030273 15.67236804962158 52.09960556030273 L 15.67236804962158 51.09960556030273 Z M 5.672369003295898 51.09960556030273 L 10.67236804962158 51.09960556030273 L 10.67236804962158 52.09960556030273 C 10.67236804962158 52.09960556030273 5.672369003295898 52.09960556030273 5.672369003295898 52.09960556030273 L 5.672369003295898 51.09960556030273 Z M -1.9073486328125e-06 47.77197265625 L 0.9999980926513672 47.77197265625 L 0.9999980926513672 52.09960556030273 L 0.6723690032958984 52.09960556030273 L 0.9999980926513672 52.09960556030273 L 0.6723690032958984 52.09960556030273 C 0.6723690032958984 52.09960556030273 -1.9073486328125e-06 52.09960556030273 -1.9073486328125e-06 52.09960556030273 L -1.9073486328125e-06 47.77197265625 Z M -1.9073486328125e-06 37.77197265625 L 0.9999980926513672 37.77197265625 L 0.9999980926513672 42.77197265625 L -1.9073486328125e-06 42.77197265625 L -1.9073486328125e-06 37.77197265625 Z M -1.9073486328125e-06 27.77197456359863 L 0.9999980926513672 27.77197456359863 L 0.9999980926513672 32.77197265625 L -1.9073486328125e-06 32.77197265625 L -1.9073486328125e-06 27.77197456359863 Z M -1.9073486328125e-06 17.77197647094727 L 0.9999980926513672 17.77197647094727 L 0.9999980926513672 22.77197456359863 L -1.9073486328125e-06 22.77197456359863 L -1.9073486328125e-06 17.77197647094727 Z M -1.9073486328125e-06 7.771976470947266 L 0.9999980926513672 7.771976470947266 L 0.9999980926513672 12.77197647094727 L -1.9073486328125e-06 12.77197647094727 L -1.9073486328125e-06 7.771976470947266 Z M -1.9073486328125e-06 -3.814697265625e-06 L 4.999998092651367 -3.814697265625e-06 L 4.999998092651367 0.9999961853027344 L 0.9999980926513672 0.9999961853027344 L 0.9999980926513672 2.771976470947266 L -1.9073486328125e-06 2.771976470947266 L -1.9073486328125e-06 -3.814697265625e-06 Z" stroke="none" fill="#38485c"/>
    </g>
    <path id="Trazado_23808" data-name="Trazado 23808" d="M11.44-1.232a.985.985,0,0,1,.1.416.8.8,0,0,1-.3.624,1.009,1.009,0,0,1-.68.256.909.909,0,0,1-.48-.136A.907.907,0,0,1,9.728-.5L8.768-2.64H3.136L2.176-.5a.907.907,0,0,1-.352.424.937.937,0,0,1-.5.136A1.019,1.019,0,0,1,.656-.192a.787.787,0,0,1-.3-.624.985.985,0,0,1,.1-.416L4.864-10.72a1.032,1.032,0,0,1,.44-.488,1.26,1.26,0,0,1,.632-.168,1.26,1.26,0,0,1,.632.168,1.032,1.032,0,0,1,.44.488ZM3.84-4.24H8.064L5.952-8.992Zm2.352-7.984a.568.568,0,0,1-.256.064.494.494,0,0,1-.352-.136.418.418,0,0,1-.144-.312.507.507,0,0,1,.176-.352l1.456-1.5a.928.928,0,0,1,.688-.32.754.754,0,0,1,.552.232.736.736,0,0,1,.232.536.682.682,0,0,1-.136.4A1.141,1.141,0,0,1,8-13.28Zm11.072,4.24a.861.861,0,0,1,.656.176.781.781,0,0,1,.24.624.872.872,0,0,1-.208.64,1.278,1.278,0,0,1-.752.272l-.48.048a1.944,1.944,0,0,0-1.384.64,2.093,2.093,0,0,0-.44,1.36v3.36a.888.888,0,0,1-.288.712,1.064,1.064,0,0,1-.72.248,1.034,1.034,0,0,1-.712-.248.9.9,0,0,1-.28-.712V-7.056a.856.856,0,0,1,.28-.688,1.032,1.032,0,0,1,.7-.24.962.962,0,0,1,.672.232.85.85,0,0,1,.256.664v.64a2.368,2.368,0,0,1,.9-1.088,2.771,2.771,0,0,1,1.336-.432Zm7.776,5.84a.538.538,0,0,1,.44.208.865.865,0,0,1,.168.56.97.97,0,0,1-.592.832,5.349,5.349,0,0,1-1.232.488,5.079,5.079,0,0,1-1.312.184A4.077,4.077,0,0,1,19.52-.96a3.988,3.988,0,0,1-1.1-2.976,4.566,4.566,0,0,1,.48-2.128A3.49,3.49,0,0,1,20.248-7.5a3.829,3.829,0,0,1,1.976-.512,3.546,3.546,0,0,1,1.84.464A3.146,3.146,0,0,1,25.28-6.24a4.353,4.353,0,0,1,.432,2q0,.688-.608.688h-4.72a2.517,2.517,0,0,0,.624,1.624,2.1,2.1,0,0,0,1.536.52,2.913,2.913,0,0,0,.9-.128,8.923,8.923,0,0,0,.888-.352A1.766,1.766,0,0,1,25.04-2.144ZM22.272-6.608a1.717,1.717,0,0,0-1.3.512,2.417,2.417,0,0,0-.584,1.472H24a2.281,2.281,0,0,0-.48-1.48A1.583,1.583,0,0,0,22.272-6.608ZM30.72-8.016a3.259,3.259,0,0,1,2.424.808,3.383,3.383,0,0,1,.792,2.456v3.9a.9.9,0,0,1-.256.68.969.969,0,0,1-.7.248.936.936,0,0,1-.68-.256.894.894,0,0,1-.264-.672V-1.2a2.088,2.088,0,0,1-.856.976,2.568,2.568,0,0,1-1.352.352A3.139,3.139,0,0,1,28.4-.192a2.533,2.533,0,0,1-1.008-.88,2.224,2.224,0,0,1-.368-1.248,1.977,1.977,0,0,1,.44-1.36A2.644,2.644,0,0,1,28.9-4.4a13.041,13.041,0,0,1,2.736-.224h.4v-.368A1.638,1.638,0,0,0,31.7-6.136a1.43,1.43,0,0,0-1.088-.36,3.452,3.452,0,0,0-.944.136q-.48.136-1.136.392a1.6,1.6,0,0,1-.608.208.6.6,0,0,1-.472-.208.791.791,0,0,1-.184-.544.819.819,0,0,1,.136-.472,1.291,1.291,0,0,1,.456-.376,5.215,5.215,0,0,1,1.336-.48A6.893,6.893,0,0,1,30.72-8.016Zm-.5,6.7a1.709,1.709,0,0,0,1.3-.536,1.939,1.939,0,0,0,.5-1.384v-.336h-.288a11.038,11.038,0,0,0-1.664.1,1.616,1.616,0,0,0-.848.336.856.856,0,0,0-.256.656,1.085,1.085,0,0,0,.36.84A1.27,1.27,0,0,0,30.224-1.312ZM46.8-11.36a1.066,1.066,0,0,1,.736.256.856.856,0,0,1,.288.672V-.864a.9.9,0,0,1-.272.688,1.008,1.008,0,0,1-.72.256,1.008,1.008,0,0,1-.72-.256.9.9,0,0,1-.272-.688v-.4A2.5,2.5,0,0,1,44.824-.24a3.066,3.066,0,0,1-1.512.368,3.243,3.243,0,0,1-1.8-.512A3.4,3.4,0,0,1,40.28-1.832a5,5,0,0,1-.44-2.152,4.845,4.845,0,0,1,.44-2.128A3.333,3.333,0,0,1,41.5-7.52a3.309,3.309,0,0,1,1.808-.5,3.131,3.131,0,0,1,1.5.352,2.442,2.442,0,0,1,1.008.992v-3.792a.848.848,0,0,1,.264-.648A1,1,0,0,1,46.8-11.36ZM43.84-1.424a1.779,1.779,0,0,0,1.48-.656,2.952,2.952,0,0,0,.52-1.872,2.917,2.917,0,0,0-.52-1.864,1.77,1.77,0,0,0-1.464-.648,1.821,1.821,0,0,0-1.488.64,2.823,2.823,0,0,0-.528,1.84A2.989,2.989,0,0,0,42.368-2.1,1.766,1.766,0,0,0,43.84-1.424Zm12.224-.72a.538.538,0,0,1,.44.208.865.865,0,0,1,.168.56.97.97,0,0,1-.592.832,5.349,5.349,0,0,1-1.232.488,5.079,5.079,0,0,1-1.312.184A4.077,4.077,0,0,1,50.544-.96a3.988,3.988,0,0,1-1.1-2.976,4.566,4.566,0,0,1,.48-2.128A3.49,3.49,0,0,1,51.272-7.5a3.829,3.829,0,0,1,1.976-.512,3.546,3.546,0,0,1,1.84.464A3.146,3.146,0,0,1,56.3-6.24a4.354,4.354,0,0,1,.432,2q0,.688-.608.688h-4.72a2.517,2.517,0,0,0,.624,1.624,2.1,2.1,0,0,0,1.536.52,2.913,2.913,0,0,0,.9-.128,8.923,8.923,0,0,0,.888-.352A1.766,1.766,0,0,1,56.064-2.144ZM53.3-6.608a1.717,1.717,0,0,0-1.3.512,2.417,2.417,0,0,0-.584,1.472h3.616a2.281,2.281,0,0,0-.48-1.48A1.583,1.583,0,0,0,53.3-6.608Zm13.44,5.216q.8.048.8.72a.651.651,0,0,1-.312.584,1.489,1.489,0,0,1-.888.168L65.9.048a2.574,2.574,0,0,1-2.688-2.88V-6.32h-.8a1.016,1.016,0,0,1-.664-.192.685.685,0,0,1-.232-.56.685.685,0,0,1,.232-.56,1.016,1.016,0,0,1,.664-.192h.8V-9.3a.9.9,0,0,1,.272-.688,1.03,1.03,0,0,1,.736-.256,1.008,1.008,0,0,1,.72.256.9.9,0,0,1,.272.688v1.472h1.36a1.016,1.016,0,0,1,.664.192.685.685,0,0,1,.232.56.685.685,0,0,1-.232.56,1.016,1.016,0,0,1-.664.192h-1.36v3.632q0,1.184,1.088,1.264Zm8.016-.752a.538.538,0,0,1,.44.208.865.865,0,0,1,.168.56.97.97,0,0,1-.592.832,5.349,5.349,0,0,1-1.232.488,5.079,5.079,0,0,1-1.312.184A4.077,4.077,0,0,1,69.232-.96a3.988,3.988,0,0,1-1.1-2.976,4.566,4.566,0,0,1,.48-2.128A3.49,3.49,0,0,1,69.96-7.5a3.829,3.829,0,0,1,1.976-.512,3.546,3.546,0,0,1,1.84.464A3.146,3.146,0,0,1,74.992-6.24a4.353,4.353,0,0,1,.432,2q0,.688-.608.688H70.1a2.517,2.517,0,0,0,.624,1.624,2.1,2.1,0,0,0,1.536.52,2.913,2.913,0,0,0,.9-.128,8.923,8.923,0,0,0,.888-.352A1.766,1.766,0,0,1,74.752-2.144ZM71.984-6.608a1.717,1.717,0,0,0-1.3.512A2.417,2.417,0,0,0,70.1-4.624h3.616a2.281,2.281,0,0,0-.48-1.48A1.583,1.583,0,0,0,71.984-6.608Zm11.68,5.136a.9.9,0,0,1,.288.656.885.885,0,0,1-.272.632.864.864,0,0,1-.64.28.878.878,0,0,1-.688-.336L80.1-2.736,77.84-.24a.928.928,0,0,1-.688.32.858.858,0,0,1-.624-.272.858.858,0,0,1-.272-.624.9.9,0,0,1,.288-.656L78.88-4.016l-2.208-2.4a.9.9,0,0,1-.288-.656.85.85,0,0,1,.272-.632.871.871,0,0,1,.624-.264.928.928,0,0,1,.688.32L80.1-5.312l2.128-2.336a.928.928,0,0,1,.688-.32.862.862,0,0,1,.632.264.862.862,0,0,1,.264.632.9.9,0,0,1-.288.656l-2.208,2.4Zm5.776.08q.8.048.8.72a.651.651,0,0,1-.312.584A1.489,1.489,0,0,1,89.04.08L88.608.048a2.574,2.574,0,0,1-2.688-2.88V-6.32h-.8a1.016,1.016,0,0,1-.664-.192.685.685,0,0,1-.232-.56.685.685,0,0,1,.232-.56,1.016,1.016,0,0,1,.664-.192h.8V-9.3a.9.9,0,0,1,.272-.688,1.03,1.03,0,0,1,.736-.256,1.008,1.008,0,0,1,.72.256.9.9,0,0,1,.272.688v1.472h1.36a1.016,1.016,0,0,1,.664.192.685.685,0,0,1,.232.56.685.685,0,0,1-.232.56,1.016,1.016,0,0,1-.664.192H87.92v3.632q0,1.184,1.088,1.264ZM94.832.128a4.3,4.3,0,0,1-2.1-.5,3.432,3.432,0,0,1-1.4-1.424,4.515,4.515,0,0,1-.5-2.16,4.468,4.468,0,0,1,.5-2.152,3.444,3.444,0,0,1,1.4-1.416,4.3,4.3,0,0,1,2.1-.5,4.3,4.3,0,0,1,2.1.5A3.394,3.394,0,0,1,98.328-6.1a4.527,4.527,0,0,1,.488,2.152,4.575,4.575,0,0,1-.488,2.16A3.382,3.382,0,0,1,96.936-.368,4.3,4.3,0,0,1,94.832.128Zm-.016-1.552a1.793,1.793,0,0,0,1.488-.64,2.973,2.973,0,0,0,.512-1.888,2.979,2.979,0,0,0-.512-1.88,1.765,1.765,0,0,0-1.472-.648,1.788,1.788,0,0,0-1.48.648,2.946,2.946,0,0,0-.52,1.88,2.973,2.973,0,0,0,.512,1.888A1.775,1.775,0,0,0,94.816-1.424Z" transform="translate(685 699)" fill="#38485c"/>
  </g>
</svg>
