<svg xmlns="http://www.w3.org/2000/svg" width="340" height="267" viewBox="0 0 340 267"><defs><style>.a{fill:#f3f6f9;}.b{fill:#9eaab8;}.b,.h{font-size:16px;}.b,.d,.h{font-family:OpenSans-SemiBold, Open Sans;font-weight:600;}.c{fill:#ffdb2e;}.d,.h{fill:#38485c;}.d{font-size:25px;}.e{opacity:0.5;}.f{fill:#fffbe5;}.g{fill:none;stroke:#38485c;stroke-dasharray:5 2;}</style></defs><g transform="translate(-885 -1003)"><rect class="a" width="340" height="267" rx="4" transform="translate(885 1003)"/><g transform="translate(-10 -121)"><text class="b" transform="translate(938 1326)"><tspan x="0" y="0">12px / 0,75 rem</tspan></text><g transform="translate(939.38 1228)"><rect class="c" width="232" height="58" rx="4"/><text class="d" transform="translate(116 39)"><tspan x="-91.992" y="0">Botón primario</tspan></text></g><g class="e" transform="translate(1171.38 1228) rotate(90)"><rect class="f" width="11.231" height="231.692" transform="translate(0 0)"/><path class="g" d="M0,231.692V0" transform="translate(11.919 0.688)"/><path class="g" d="M0,231.692V0" transform="translate(0 0.688)"/></g><g class="e" transform="translate(1171.38 1274) rotate(90)"><rect class="f" width="11.231" height="231.692" transform="translate(0 0)"/><path class="g" d="M0,231.692V0" transform="translate(11.919 0.688)"/><path class="g" d="M0,231.692V0" transform="translate(0 0.688)"/></g><text class="h" transform="translate(1211 1286)"><tspan x="-37.047" y="0">12px</tspan></text><text class="h" transform="translate(1211 1240)"><tspan x="-37.047" y="0">12px</tspan></text></g></g></svg>