<svg xmlns="http://www.w3.org/2000/svg" width="712" height="196" viewBox="0 0 712 196">
  <g id="Grupo_32418" data-name="Grupo 32418" transform="translate(-513 -2989)">
    <g id="Rectángulo_26420" data-name="Rectángulo 26420" transform="translate(513 2989)" fill="#fff" stroke="#38485c" stroke-width="2">
      <rect width="712" height="196" rx="8" stroke="none"/>
      <rect x="1" y="1" width="710" height="194" rx="7" fill="none"/>
    </g>
    <g id="Grupo_11848" data-name="Grupo 11848" transform="translate(516 -3191)">
      <g id="Rectángulo_4827" data-name="Rectángulo 4827" transform="translate(61 6229)" fill="#fff" stroke="#d1d8df" stroke-width="1">
        <rect width="193" height="99" rx="4" stroke="none"/>
        <rect x="0.5" y="0.5" width="192" height="98" rx="3.5" fill="none"/>
      </g>
      <rect id="Rectángulo_4829" data-name="Rectángulo 4829" width="72" height="8" transform="translate(85 6253)" fill="#e6ebf0"/>
      <rect id="Rectángulo_4830" data-name="Rectángulo 4830" width="145" height="6" transform="translate(85 6265)" fill="#e6ebf0"/>
      <rect id="Rectángulo_4831" data-name="Rectángulo 4831" width="145" height="6" transform="translate(85 6273)" fill="#e6ebf0"/>
      <g id="Botón_Primario" data-name="Botón Primario" transform="translate(170.48 6291)">
        <rect id="Rectángulo_3061" data-name="Rectángulo 3061" width="60" height="17" rx="1" transform="translate(-0.48)" fill="#ffdb2e"/>
      </g>
      <g id="Botón_Primario-2" data-name="Botón Primario" transform="translate(102 6291)">
        <rect id="Rectángulo_3061-2" data-name="Rectángulo 3061" width="60" height="17" rx="1" fill="#dfe7f0"/>
      </g>
    </g>
    <line id="Línea_148" data-name="Línea 148" y1="111" transform="translate(747.5 3032)" fill="none" stroke="#38485c" stroke-width="2" stroke-dasharray="5 2"/>
    <g id="Grupo_11849" data-name="Grupo 11849" transform="translate(855 -3192)">
      <g id="Rectángulo_4827-2" data-name="Rectángulo 4827" transform="translate(61 6229)" fill="#fff" stroke="#d1d8df" stroke-width="1">
        <rect width="193" height="99" rx="4" stroke="none"/>
        <rect x="0.5" y="0.5" width="192" height="98" rx="3.5" fill="none"/>
      </g>
      <rect id="Rectángulo_4829-2" data-name="Rectángulo 4829" width="72" height="8" transform="translate(122 6253)" fill="#e6ebf0"/>
      <rect id="Rectángulo_4830-2" data-name="Rectángulo 4830" width="127" height="6" transform="translate(94 6265)" fill="#e6ebf0"/>
      <rect id="Rectángulo_4831-2" data-name="Rectángulo 4831" width="127" height="6" transform="translate(94 6273)" fill="#e6ebf0"/>
      <g id="Botón_Primario-3" data-name="Botón Primario" transform="translate(94.48 6291)">
        <rect id="Rectángulo_3061-3" data-name="Rectángulo 3061" width="60" height="17" rx="1" transform="translate(-0.48)" fill="#ffdb2e"/>
      </g>
      <g id="Botón_Primario-4" data-name="Botón Primario" transform="translate(162 6291)">
        <rect id="Rectángulo_3061-4" data-name="Rectángulo 3061" width="60" height="17" rx="1" fill="#dfe7f0"/>
      </g>
    </g>
    <line id="Línea_149" data-name="Línea 149" y1="112.184" transform="translate(1076.5 3030.658)" fill="none" stroke="#38485c" stroke-width="2" stroke-dasharray="5 2"/>
    <line id="Línea_151" data-name="Línea 151" y1="112.184" transform="translate(949.5 3030.658)" fill="none" stroke="#38485c" stroke-width="2" stroke-dasharray="5 2"/>
  </g>
</svg>
