<svg xmlns="http://www.w3.org/2000/svg" width="712" height="644" viewBox="0 0 712 644">
  <g id="Grupo_21058" data-name="Grupo 21058" transform="translate(-513 -4410)">
    <g id="Grupo_18079" data-name="Grupo 18079" transform="translate(0 529)">
      <path id="Trazado_20240" data-name="Trazado 20240" d="M4,0H708a4.025,4.025,0,0,1,4,4.05v635.9a4.025,4.025,0,0,1-4,4.05H4a4.025,4.025,0,0,1-4-4.05V4.05A4.025,4.025,0,0,1,4,0Z" transform="translate(513 3881)" fill="#f3f6f9"/>
    </g>
    <text id="Botón_pequeño" data-name="Botón pequeño" transform="translate(561 4816)" fill="#38485c" font-size="16" font-family="OpenSans-SemiBold, Open Sans" font-weight="600"><tspan x="0" y="0">Botón pequeño</tspan></text>
    <path id="Trazado_27888" data-name="Trazado 27888" d="M1.508-11.422H4.9a6.435,6.435,0,0,1,3.41.688A2.407,2.407,0,0,1,9.359-8.562,2.632,2.632,0,0,1,8.844-6.9a2.306,2.306,0,0,1-1.484.836v.078a2.947,2.947,0,0,1,1.77.895A2.706,2.706,0,0,1,9.7-3.281,2.932,2.932,0,0,1,8.621-.871,4.621,4.621,0,0,1,5.633,0H1.508ZM3.375-6.7h1.8a3.077,3.077,0,0,0,1.711-.371,1.421,1.421,0,0,0,.539-1.262A1.264,1.264,0,0,0,6.84-9.5a3.635,3.635,0,0,0-1.848-.359H3.375Zm0,1.516V-1.57H5.359a2.921,2.921,0,0,0,1.77-.449,1.658,1.658,0,0,0,.6-1.418,1.506,1.506,0,0,0-.609-1.32,3.229,3.229,0,0,0-1.852-.43Zm16.164.852a4.716,4.716,0,0,1-1.086,3.3A3.891,3.891,0,0,1,15.43.156a4.143,4.143,0,0,1-2.141-.547,3.61,3.61,0,0,1-1.43-1.57,5.348,5.348,0,0,1-.5-2.375,4.684,4.684,0,0,1,1.078-3.281A3.909,3.909,0,0,1,15.477-8.8,3.807,3.807,0,0,1,18.445-7.59,4.663,4.663,0,0,1,19.539-4.336Zm-6.289,0q0,2.992,2.211,2.992,2.188,0,2.188-2.992,0-2.961-2.2-2.961a1.879,1.879,0,0,0-1.676.766A3.9,3.9,0,0,0,13.25-4.336ZM24.867-1.328a4.465,4.465,0,0,0,1.344-.211V-.156a3.706,3.706,0,0,1-.785.223,5.409,5.409,0,0,1-1,.09q-2.609,0-2.609-2.75V-7.25h-1.18v-.812l1.266-.672.625-1.828h1.133v1.922h2.461V-7.25H23.664v4.625a1.3,1.3,0,0,0,.332.98A1.21,1.21,0,0,0,24.867-1.328ZM35.6-4.336a4.716,4.716,0,0,1-1.086,3.3A3.891,3.891,0,0,1,31.492.156a4.143,4.143,0,0,1-2.141-.547,3.61,3.61,0,0,1-1.43-1.57,5.348,5.348,0,0,1-.5-2.375A4.684,4.684,0,0,1,28.5-7.617,3.909,3.909,0,0,1,31.539-8.8,3.807,3.807,0,0,1,34.508-7.59,4.662,4.662,0,0,1,35.6-4.336Zm-6.289,0q0,2.992,2.211,2.992,2.187,0,2.188-2.992,0-2.961-2.2-2.961a1.879,1.879,0,0,0-1.676.766A3.9,3.9,0,0,0,29.313-4.336ZM30.32-9.7v-.2q.445-.547.918-1.219t.746-1.148h2.133v.164a16.042,16.042,0,0,1-1.215,1.23A17.129,17.129,0,0,1,31.539-9.7ZM45.313,0H43.469V-5.312a2.325,2.325,0,0,0-.4-1.492A1.555,1.555,0,0,0,41.789-7.3a2.031,2.031,0,0,0-1.7.688,3.8,3.8,0,0,0-.539,2.3V0H37.711V-8.641h1.438l.258,1.133H39.5a2.556,2.556,0,0,1,1.109-.953A3.718,3.718,0,0,1,42.2-8.8q3.109,0,3.109,3.164ZM57.43,0l-.367-1.2H57A3.54,3.54,0,0,1,55.742-.129a3.978,3.978,0,0,1-1.625.285,2.75,2.75,0,0,1-1.988-.687,2.573,2.573,0,0,1-.715-1.945,2.284,2.284,0,0,1,.992-2.016,5.721,5.721,0,0,1,3.023-.742l1.492-.047v-.461a1.747,1.747,0,0,0-.387-1.238,1.577,1.577,0,0,0-1.2-.41,4.147,4.147,0,0,0-1.273.2,9.61,9.61,0,0,0-1.172.461L52.3-8.047a6.39,6.39,0,0,1,1.539-.559A7.083,7.083,0,0,1,55.414-8.8a3.738,3.738,0,0,1,2.488.719,2.814,2.814,0,0,1,.84,2.258V0ZM54.7-1.25A2.274,2.274,0,0,0,56.3-1.809a2.025,2.025,0,0,0,.605-1.566v-.75L55.8-4.078a3.8,3.8,0,0,0-1.887.434,1.317,1.317,0,0,0-.59,1.184,1.155,1.155,0,0,0,.344.895A1.477,1.477,0,0,0,54.7-1.25ZM68.906,0H67.063V-5.312a2.325,2.325,0,0,0-.4-1.492A1.555,1.555,0,0,0,65.383-7.3a2.031,2.031,0,0,0-1.7.688,3.8,3.8,0,0,0-.539,2.3V0H61.3V-8.641h1.438L63-7.508h.094A2.556,2.556,0,0,1,64.2-8.461,3.718,3.718,0,0,1,65.8-8.8q3.109,0,3.109,3.164Zm6.039.156a3.783,3.783,0,0,1-2.98-1.145,4.782,4.782,0,0,1-1.02-3.285,4.809,4.809,0,0,1,1.066-3.352A3.956,3.956,0,0,1,75.094-8.8a5.776,5.776,0,0,1,2.461.508L77-6.812a5.56,5.56,0,0,0-1.922-.453q-2.242,0-2.242,2.977a3.565,3.565,0,0,0,.559,2.184,1.934,1.934,0,0,0,1.637.73,4.7,4.7,0,0,0,2.32-.609v1.6A3.626,3.626,0,0,1,76.3.031,6.305,6.305,0,0,1,74.945.156ZM86.984,0H85.141V-5.312a2.325,2.325,0,0,0-.4-1.492A1.555,1.555,0,0,0,83.461-7.3a2.028,2.028,0,0,0-1.7.691,3.81,3.81,0,0,0-.543,2.316V0H79.383V-12.156h1.836V-9.07a14.4,14.4,0,0,1-.094,1.586h.117a2.549,2.549,0,0,1,1.043-.969A3.362,3.362,0,0,1,83.844-8.8q3.141,0,3.141,3.164ZM97.2-4.336a4.716,4.716,0,0,1-1.086,3.3A3.891,3.891,0,0,1,93.094.156a4.143,4.143,0,0,1-2.141-.547,3.61,3.61,0,0,1-1.43-1.57,5.348,5.348,0,0,1-.5-2.375A4.684,4.684,0,0,1,90.1-7.617,3.909,3.909,0,0,1,93.141-8.8,3.807,3.807,0,0,1,96.109-7.59,4.663,4.663,0,0,1,97.2-4.336Zm-6.289,0q0,2.992,2.211,2.992,2.188,0,2.188-2.992,0-2.961-2.2-2.961a1.879,1.879,0,0,0-1.676.766A3.9,3.9,0,0,0,90.914-4.336Z" transform="translate(561 4958)" fill="#38485c"/>
    <path id="Trazado_27872" data-name="Trazado 27872" d="M1.508-11.422H4.9a6.435,6.435,0,0,1,3.41.688A2.407,2.407,0,0,1,9.359-8.562,2.632,2.632,0,0,1,8.844-6.9a2.306,2.306,0,0,1-1.484.836v.078a2.947,2.947,0,0,1,1.77.895A2.706,2.706,0,0,1,9.7-3.281,2.932,2.932,0,0,1,8.621-.871,4.621,4.621,0,0,1,5.633,0H1.508ZM3.375-6.7h1.8a3.077,3.077,0,0,0,1.711-.371,1.421,1.421,0,0,0,.539-1.262A1.264,1.264,0,0,0,6.84-9.5a3.635,3.635,0,0,0-1.848-.359H3.375Zm0,1.516V-1.57H5.359a2.921,2.921,0,0,0,1.77-.449,1.658,1.658,0,0,0,.6-1.418,1.506,1.506,0,0,0-.609-1.32,3.229,3.229,0,0,0-1.852-.43Zm16.164.852a4.716,4.716,0,0,1-1.086,3.3A3.891,3.891,0,0,1,15.43.156a4.143,4.143,0,0,1-2.141-.547,3.61,3.61,0,0,1-1.43-1.57,5.348,5.348,0,0,1-.5-2.375,4.684,4.684,0,0,1,1.078-3.281A3.909,3.909,0,0,1,15.477-8.8,3.807,3.807,0,0,1,18.445-7.59,4.663,4.663,0,0,1,19.539-4.336Zm-6.289,0q0,2.992,2.211,2.992,2.188,0,2.188-2.992,0-2.961-2.2-2.961a1.879,1.879,0,0,0-1.676.766A3.9,3.9,0,0,0,13.25-4.336ZM24.867-1.328a4.465,4.465,0,0,0,1.344-.211V-.156a3.706,3.706,0,0,1-.785.223,5.409,5.409,0,0,1-1,.09q-2.609,0-2.609-2.75V-7.25h-1.18v-.812l1.266-.672.625-1.828h1.133v1.922h2.461V-7.25H23.664v4.625a1.3,1.3,0,0,0,.332.98A1.21,1.21,0,0,0,24.867-1.328ZM35.6-4.336a4.716,4.716,0,0,1-1.086,3.3A3.891,3.891,0,0,1,31.492.156a4.143,4.143,0,0,1-2.141-.547,3.61,3.61,0,0,1-1.43-1.57,5.348,5.348,0,0,1-.5-2.375A4.684,4.684,0,0,1,28.5-7.617,3.909,3.909,0,0,1,31.539-8.8,3.807,3.807,0,0,1,34.508-7.59,4.662,4.662,0,0,1,35.6-4.336Zm-6.289,0q0,2.992,2.211,2.992,2.187,0,2.188-2.992,0-2.961-2.2-2.961a1.879,1.879,0,0,0-1.676.766A3.9,3.9,0,0,0,29.313-4.336ZM30.32-9.7v-.2q.445-.547.918-1.219t.746-1.148h2.133v.164a16.042,16.042,0,0,1-1.215,1.23A17.129,17.129,0,0,1,31.539-9.7ZM45.313,0H43.469V-5.312a2.325,2.325,0,0,0-.4-1.492A1.555,1.555,0,0,0,41.789-7.3a2.031,2.031,0,0,0-1.7.688,3.8,3.8,0,0,0-.539,2.3V0H37.711V-8.641h1.438l.258,1.133H39.5a2.556,2.556,0,0,1,1.109-.953A3.718,3.718,0,0,1,42.2-8.8q3.109,0,3.109,3.164ZM56.406.156a3.026,3.026,0,0,1-2.547-1.18H53.75Q53.859.07,53.859.3V3.844H52.023V-8.641h1.484q.063.242.258,1.156h.094A2.876,2.876,0,0,1,56.438-8.8a3,3,0,0,1,2.52,1.172,5.284,5.284,0,0,1,.9,3.289,5.288,5.288,0,0,1-.918,3.3A3.026,3.026,0,0,1,56.406.156ZM55.961-7.3a1.908,1.908,0,0,0-1.6.641,3.32,3.32,0,0,0-.5,2.047v.273a4.042,4.042,0,0,0,.5,2.285,1.86,1.86,0,0,0,1.633.707,1.658,1.658,0,0,0,1.469-.781,4.035,4.035,0,0,0,.516-2.227,3.893,3.893,0,0,0-.512-2.2A1.707,1.707,0,0,0,55.961-7.3ZM66.375-8.8a4.42,4.42,0,0,1,.914.078l-.18,1.711A3.47,3.47,0,0,0,66.3-7.1a2.351,2.351,0,0,0-1.785.719,2.6,2.6,0,0,0-.684,1.867V0H61.992V-8.641H63.43l.242,1.523h.094a3.423,3.423,0,0,1,1.121-1.227A2.665,2.665,0,0,1,66.375-8.8ZM72.664.156A4.18,4.18,0,0,1,69.512-1.02a4.463,4.463,0,0,1-1.137-3.238A4.9,4.9,0,0,1,69.43-7.586a3.643,3.643,0,0,1,2.9-1.211,3.561,3.561,0,0,1,2.7,1.039A3.97,3.97,0,0,1,76.023-4.9v.992H70.266a2.838,2.838,0,0,0,.68,1.934,2.367,2.367,0,0,0,1.8.676,6.662,6.662,0,0,0,1.426-.145,7.474,7.474,0,0,0,1.418-.48V-.43a5.637,5.637,0,0,1-1.359.453A8.336,8.336,0,0,1,72.664.156Zm-.336-7.562a1.845,1.845,0,0,0-1.4.555A2.644,2.644,0,0,0,70.3-5.234h3.922A2.392,2.392,0,0,0,73.7-6.855,1.764,1.764,0,0,0,72.328-7.406Zm8.7,7.563A3.01,3.01,0,0,1,78.5-1.016,5.267,5.267,0,0,1,77.594-4.3a5.284,5.284,0,0,1,.918-3.309A3.038,3.038,0,0,1,81.055-8.8a2.979,2.979,0,0,1,2.594,1.258h.094a11.006,11.006,0,0,1-.133-1.469v-3.148h1.844V0H84.016L83.7-1.133h-.086A2.935,2.935,0,0,1,81.023.156Zm.492-1.484a2,2,0,0,0,1.648-.637A3.352,3.352,0,0,0,83.7-4.031v-.258a3.873,3.873,0,0,0-.531-2.32A1.971,1.971,0,0,0,81.5-7.3a1.688,1.688,0,0,0-1.492.785,4.024,4.024,0,0,0-.523,2.238,3.923,3.923,0,0,0,.508,2.191A1.714,1.714,0,0,0,81.516-1.328ZM91.852.156A4.18,4.18,0,0,1,88.7-1.02a4.463,4.463,0,0,1-1.137-3.238,4.9,4.9,0,0,1,1.055-3.328,3.643,3.643,0,0,1,2.9-1.211,3.561,3.561,0,0,1,2.7,1.039A3.97,3.97,0,0,1,95.211-4.9v.992H89.453a2.838,2.838,0,0,0,.68,1.934,2.367,2.367,0,0,0,1.8.676,6.662,6.662,0,0,0,1.426-.145,7.474,7.474,0,0,0,1.418-.48V-.43a5.637,5.637,0,0,1-1.359.453A8.336,8.336,0,0,1,91.852.156Zm-.336-7.562a1.845,1.845,0,0,0-1.4.555,2.644,2.644,0,0,0-.629,1.617h3.922a2.392,2.392,0,0,0-.516-1.621A1.764,1.764,0,0,0,91.516-7.406Zm9,6.078a4.465,4.465,0,0,0,1.344-.211V-.156a3.706,3.706,0,0,1-.785.223,5.409,5.409,0,0,1-1,.09q-2.609,0-2.609-2.75V-7.25h-1.18v-.812l1.266-.672.625-1.828h1.133v1.922h2.461V-7.25H99.313v4.625a1.3,1.3,0,0,0,.332.98A1.21,1.21,0,0,0,100.516-1.328ZM107.359.156a4.18,4.18,0,0,1-3.152-1.176,4.463,4.463,0,0,1-1.137-3.238,4.9,4.9,0,0,1,1.055-3.328,3.643,3.643,0,0,1,2.9-1.211,3.561,3.561,0,0,1,2.7,1.039,3.97,3.97,0,0,1,.992,2.859v.992h-5.758a2.838,2.838,0,0,0,.68,1.934,2.367,2.367,0,0,0,1.8.676,6.662,6.662,0,0,0,1.426-.145,7.474,7.474,0,0,0,1.418-.48V-.43a5.637,5.637,0,0,1-1.359.453A8.336,8.336,0,0,1,107.359.156Zm-.336-7.562a1.845,1.845,0,0,0-1.4.555,2.644,2.644,0,0,0-.629,1.617h3.922a2.392,2.392,0,0,0-.516-1.621A1.764,1.764,0,0,0,107.023-7.406ZM117.188-8.8a4.42,4.42,0,0,1,.914.078l-.18,1.711a3.47,3.47,0,0,0-.812-.094,2.351,2.351,0,0,0-1.785.719,2.6,2.6,0,0,0-.684,1.867V0H112.8V-8.641h1.438l.242,1.523h.094A3.423,3.423,0,0,1,115.7-8.344,2.665,2.665,0,0,1,117.188-8.8Zm9.8,8.8h-1.844V-5.328a2.416,2.416,0,0,0-.375-1.48,1.384,1.384,0,0,0-1.172-.488,1.787,1.787,0,0,0-1.559.691,4.057,4.057,0,0,0-.5,2.3V0H119.7V-8.641h1.438l.258,1.133h.094a2.394,2.394,0,0,1,1.043-.953,3.363,3.363,0,0,1,1.5-.336,2.628,2.628,0,0,1,2.641,1.359h.125a2.634,2.634,0,0,1,1.078-1,3.422,3.422,0,0,1,1.594-.359,2.9,2.9,0,0,1,2.254.781,3.46,3.46,0,0,1,.707,2.383V0H130.6V-5.328a2.4,2.4,0,0,0-.379-1.48,1.4,1.4,0,0,0-1.176-.488,1.822,1.822,0,0,0-1.566.668,3.443,3.443,0,0,0-.5,2.051Zm9.852,0H135V-8.641h1.836Zm-1.945-10.93a1.017,1.017,0,0,1,.27-.758,1.05,1.05,0,0,1,.77-.266,1.028,1.028,0,0,1,.754.266,1.017,1.017,0,0,1,.27.758,1,1,0,0,1-.27.738,1.019,1.019,0,0,1-.754.27,1.041,1.041,0,0,1-.77-.27A1,1,0,0,1,134.891-10.93ZM147.063,0h-1.844V-5.312a2.325,2.325,0,0,0-.4-1.492,1.555,1.555,0,0,0-1.277-.492,2.031,2.031,0,0,0-1.7.688,3.8,3.8,0,0,0-.539,2.3V0h-1.836V-8.641H140.9l.258,1.133h.094a2.556,2.556,0,0,1,1.109-.953,3.718,3.718,0,0,1,1.594-.336q3.109,0,3.109,3.164Zm7.961,0-.367-1.2h-.062a3.54,3.54,0,0,1-1.258,1.074,3.978,3.978,0,0,1-1.625.285,2.75,2.75,0,0,1-1.988-.687,2.573,2.573,0,0,1-.715-1.945A2.284,2.284,0,0,1,150-4.492a5.721,5.721,0,0,1,3.023-.742l1.492-.047v-.461a1.747,1.747,0,0,0-.387-1.238,1.577,1.577,0,0,0-1.2-.41,4.147,4.147,0,0,0-1.273.2,9.61,9.61,0,0,0-1.172.461l-.594-1.312a6.39,6.39,0,0,1,1.539-.559,7.083,7.083,0,0,1,1.578-.191,3.738,3.738,0,0,1,2.488.719,2.814,2.814,0,0,1,.84,2.258V0Zm-2.734-1.25a2.274,2.274,0,0,0,1.605-.559,2.025,2.025,0,0,0,.605-1.566v-.75l-1.109.047a3.8,3.8,0,0,0-1.887.434,1.317,1.317,0,0,0-.59,1.184,1.155,1.155,0,0,0,.344.895A1.477,1.477,0,0,0,152.289-1.25ZM161.813.156a3.01,3.01,0,0,1-2.523-1.172,5.267,5.267,0,0,1-.906-3.289,5.284,5.284,0,0,1,.918-3.309A3.038,3.038,0,0,1,161.844-8.8a2.979,2.979,0,0,1,2.594,1.258h.094a11,11,0,0,1-.133-1.469v-3.148h1.844V0H164.8l-.32-1.133H164.4A2.935,2.935,0,0,1,161.813.156Zm.492-1.484a2,2,0,0,0,1.648-.637,3.352,3.352,0,0,0,.531-2.066v-.258a3.873,3.873,0,0,0-.531-2.32,1.971,1.971,0,0,0-1.664-.687,1.688,1.688,0,0,0-1.492.785,4.024,4.024,0,0,0-.523,2.238,3.923,3.923,0,0,0,.508,2.191A1.714,1.714,0,0,0,162.3-1.328Zm14.227-3.008a4.716,4.716,0,0,1-1.086,3.3A3.891,3.891,0,0,1,172.422.156a4.143,4.143,0,0,1-2.141-.547,3.61,3.61,0,0,1-1.43-1.57,5.348,5.348,0,0,1-.5-2.375,4.684,4.684,0,0,1,1.078-3.281,3.909,3.909,0,0,1,3.039-1.18,3.807,3.807,0,0,1,2.969,1.207A4.662,4.662,0,0,1,176.531-4.336Zm-6.289,0q0,2.992,2.211,2.992,2.187,0,2.188-2.992,0-2.961-2.2-2.961a1.879,1.879,0,0,0-1.676.766A3.9,3.9,0,0,0,170.242-4.336Z" transform="translate(561 4660)" fill="#38485c"/>
    <g id="Grupo_18149" data-name="Grupo 18149" transform="translate(210 1005)">
      <g id="V1-Botón-Primario" transform="translate(583 3484)" opacity="0.5">
        <rect id="Rectángulo_3061" data-name="Rectángulo 3061" width="100" height="48" rx="4" fill="#d1d8e0"/>
        <path id="Trazado_23810" data-name="Trazado 23810" d="M-24.491-12.85h3.814a7.24,7.24,0,0,1,3.836.773,2.708,2.708,0,0,1,1.182,2.443,2.961,2.961,0,0,1-.58,1.872,2.594,2.594,0,0,1-1.67.94v.088a3.316,3.316,0,0,1,1.991,1.006,3.044,3.044,0,0,1,.637,2.035A3.3,3.3,0,0,1-16.488-.98,5.2,5.2,0,0,1-19.85,0h-4.641Zm2.1,5.309h2.021a3.461,3.461,0,0,0,1.925-.417,1.6,1.6,0,0,0,.606-1.419,1.422,1.422,0,0,0-.655-1.31,4.09,4.09,0,0,0-2.079-.4H-22.39Zm0,1.705v4.069h2.232a3.286,3.286,0,0,0,1.991-.505,1.866,1.866,0,0,0,.672-1.6,1.694,1.694,0,0,0-.686-1.485,3.633,3.633,0,0,0-2.083-.483Zm18.185.958A5.306,5.306,0,0,1-5.427-1.16,4.377,4.377,0,0,1-8.829.176a4.66,4.66,0,0,1-2.408-.615,4.062,4.062,0,0,1-1.608-1.767,6.017,6.017,0,0,1-.562-2.672,5.27,5.27,0,0,1,1.213-3.691A4.4,4.4,0,0,1-8.776-9.9a4.282,4.282,0,0,1,3.34,1.358A5.245,5.245,0,0,1-4.206-4.878Zm-7.075,0q0,3.366,2.487,3.366,2.461,0,2.461-3.366,0-3.331-2.479-3.331a2.113,2.113,0,0,0-1.885.861A4.383,4.383,0,0,0-11.281-4.878ZM1.789-1.494A5.023,5.023,0,0,0,3.3-1.731V-.176a4.169,4.169,0,0,1-.883.25A6.086,6.086,0,0,1,1.3.176q-2.936,0-2.936-3.094V-8.156H-2.966V-9.07l1.424-.756.7-2.057H.435v2.162H3.2v1.564H.435v5.2a1.46,1.46,0,0,0,.374,1.1A1.362,1.362,0,0,0,1.789-1.494ZM13.865-4.878A5.306,5.306,0,0,1,12.643-1.16,4.377,4.377,0,0,1,9.242.176,4.66,4.66,0,0,1,6.833-.439,4.062,4.062,0,0,1,5.225-2.206a6.017,6.017,0,0,1-.562-2.672A5.27,5.27,0,0,1,5.875-8.569,4.4,4.4,0,0,1,9.294-9.9a4.282,4.282,0,0,1,3.34,1.358A5.245,5.245,0,0,1,13.865-4.878Zm-7.075,0q0,3.366,2.487,3.366,2.461,0,2.461-3.366,0-3.331-2.479-3.331a2.113,2.113,0,0,0-1.885.861A4.383,4.383,0,0,0,6.79-4.878Zm1.134-6.029v-.22q.5-.615,1.033-1.371T9.8-13.79h2.4v.185a18.048,18.048,0,0,1-1.367,1.384,19.27,19.27,0,0,1-1.534,1.314ZM24.79,0H22.715V-5.977a2.616,2.616,0,0,0-.453-1.679,1.75,1.75,0,0,0-1.437-.554,2.285,2.285,0,0,0-1.916.773A4.27,4.27,0,0,0,18.3-4.843V0H16.238V-9.721h1.617l.29,1.274h.105A2.876,2.876,0,0,1,19.5-9.519,4.182,4.182,0,0,1,21.292-9.9q3.5,0,3.5,3.56Z" transform="translate(50 31)" fill="#38485c"/>
      </g>
      <g id="Grupo_18117" data-name="Grupo 18117" transform="translate(583 3483.582)">
        <rect id="Rectángulo_3425" data-name="Rectángulo 3425" width="16" height="100" transform="translate(100) rotate(90)" fill="#007bc7" opacity="0.24"/>
        <path id="Trazado_4669" data-name="Trazado 4669" d="M0,100V0" transform="translate(99.997 15.925) rotate(90)" fill="none" stroke="#007bc7" stroke-width="1" stroke-dasharray="5 2"/>
        <path id="Trazado_23809" data-name="Trazado 23809" d="M0,100V0" transform="translate(99.997 -0.075) rotate(90)" fill="none" stroke="#007bc7" stroke-width="1" stroke-dasharray="5 2"/>
        <path id="Trazado_4670" data-name="Trazado 4670" transform="translate(99.997) rotate(90)" fill="none" stroke="#007bc7" stroke-width="1" stroke-dasharray="5 2"/>
      </g>
      <g id="Grupo_18145" data-name="Grupo 18145" transform="translate(583 3515.582)">
        <rect id="Rectángulo_3425-2" data-name="Rectángulo 3425" width="16" height="100" transform="translate(100) rotate(90)" fill="#007bc7" opacity="0.24"/>
        <path id="Trazado_4669-2" data-name="Trazado 4669" d="M0,100V0" transform="translate(99.997 15.925) rotate(90)" fill="none" stroke="#007bc7" stroke-width="1" stroke-dasharray="5 2"/>
        <path id="Trazado_23809-2" data-name="Trazado 23809" d="M0,100V0" transform="translate(99.997 -0.075) rotate(90)" fill="none" stroke="#007bc7" stroke-width="1" stroke-dasharray="5 2"/>
        <path id="Trazado_4670-2" data-name="Trazado 4670" transform="translate(99.997) rotate(90)" fill="none" stroke="#007bc7" stroke-width="1" stroke-dasharray="5 2"/>
      </g>
      <path id="Trazado_27883" data-name="Trazado 27883" d="M8.016-1.664q.96,0,.96.816,0,.848-.96.848H2.608q-.976,0-.976-.848,0-.816.976-.816H4.272v-7.3l-1.536.944a.827.827,0,0,1-.4.128.7.7,0,0,1-.568-.288,1,1,0,0,1-.232-.64.8.8,0,0,1,.416-.72l2.48-1.536a1.782,1.782,0,0,1,.912-.288.973.973,0,0,1,.72.272,1.016,1.016,0,0,1,.272.752v8.672Zm7.056-5.568a3.5,3.5,0,0,1,1.792.456A3.181,3.181,0,0,1,18.088-5.5a3.929,3.929,0,0,1,.44,1.88,3.855,3.855,0,0,1-.488,1.944A3.479,3.479,0,0,1,16.7-.336a3.906,3.906,0,0,1-1.944.48,3.989,3.989,0,0,1-3.3-1.448,6.474,6.474,0,0,1-1.16-4.136,8.527,8.527,0,0,1,.544-3.192,4.529,4.529,0,0,1,1.56-2.072,4.03,4.03,0,0,1,2.392-.72,5.426,5.426,0,0,1,1.832.328,4.773,4.773,0,0,1,1.56.888,1.2,1.2,0,0,1,.3.344.87.87,0,0,1,.088.408.926.926,0,0,1-.2.6.592.592,0,0,1-.472.248.831.831,0,0,1-.3-.056,2.284,2.284,0,0,1-.352-.184,4.3,4.3,0,0,0-2.368-.928,2.071,2.071,0,0,0-1.84,1.08,5.933,5.933,0,0,0-.7,3.032,2.745,2.745,0,0,1,1.1-1.144A3.241,3.241,0,0,1,15.072-7.232ZM14.64-1.488a1.83,1.83,0,0,0,1.408-.568,2.109,2.109,0,0,0,.528-1.5,2.08,2.08,0,0,0-.528-1.488A1.844,1.844,0,0,0,14.64-5.6a1.928,1.928,0,0,0-1.448.568,2.034,2.034,0,0,0-.552,1.48,2.055,2.055,0,0,0,.552,1.5A1.928,1.928,0,0,0,14.64-1.488ZM24.7-8.016a3.243,3.243,0,0,1,1.8.512,3.4,3.4,0,0,1,1.232,1.448,5,5,0,0,1,.44,2.152,4.845,4.845,0,0,1-.44,2.128A3.333,3.333,0,0,1,26.512-.368a3.309,3.309,0,0,1-1.808.5,3.1,3.1,0,0,1-1.488-.352A2.47,2.47,0,0,1,22.208-1.2V2.064a.83.83,0,0,1-.272.656,1.048,1.048,0,0,1-.72.24,1.037,1.037,0,0,1-.728-.256.868.868,0,0,1-.28-.672V-7.04a.914.914,0,0,1,.264-.688.979.979,0,0,1,.712-.256,1.008,1.008,0,0,1,.72.256.9.9,0,0,1,.272.688v.4a2.455,2.455,0,0,1,1.016-1.016A3.121,3.121,0,0,1,24.7-8.016Zm-.528,6.592a1.793,1.793,0,0,0,1.472-.648A2.829,2.829,0,0,0,26.176-3.9a2.989,2.989,0,0,0-.528-1.888,1.766,1.766,0,0,0-1.472-.672,1.779,1.779,0,0,0-1.48.656,2.952,2.952,0,0,0-.52,1.872A2.923,2.923,0,0,0,22.7-2.08,1.779,1.779,0,0,0,24.176-1.424Zm12.256-.048a.9.9,0,0,1,.288.656.885.885,0,0,1-.272.632.864.864,0,0,1-.64.28A.878.878,0,0,1,35.12-.24l-2.256-2.5L30.608-.24a.928.928,0,0,1-.688.32A.858.858,0,0,1,29.3-.192a.858.858,0,0,1-.272-.624.9.9,0,0,1,.288-.656l2.336-2.544-2.208-2.4a.9.9,0,0,1-.288-.656.85.85,0,0,1,.272-.632.871.871,0,0,1,.624-.264.928.928,0,0,1,.688.32l2.128,2.336,2.128-2.336a.928.928,0,0,1,.688-.32.862.862,0,0,1,.632.264.862.862,0,0,1,.264.632.9.9,0,0,1-.288.656l-2.208,2.4Z" transform="translate(699 3497)" fill="#38485c"/>
      <path id="Trazado_27884" data-name="Trazado 27884" d="M8.016-1.664q.96,0,.96.816,0,.848-.96.848H2.608q-.976,0-.976-.848,0-.816.976-.816H4.272v-7.3l-1.536.944a.827.827,0,0,1-.4.128.7.7,0,0,1-.568-.288,1,1,0,0,1-.232-.64.8.8,0,0,1,.416-.72l2.48-1.536a1.782,1.782,0,0,1,.912-.288.973.973,0,0,1,.72.272,1.016,1.016,0,0,1,.272.752v8.672Zm7.056-5.568a3.5,3.5,0,0,1,1.792.456A3.181,3.181,0,0,1,18.088-5.5a3.929,3.929,0,0,1,.44,1.88,3.855,3.855,0,0,1-.488,1.944A3.479,3.479,0,0,1,16.7-.336a3.906,3.906,0,0,1-1.944.48,3.989,3.989,0,0,1-3.3-1.448,6.474,6.474,0,0,1-1.16-4.136,8.527,8.527,0,0,1,.544-3.192,4.529,4.529,0,0,1,1.56-2.072,4.03,4.03,0,0,1,2.392-.72,5.426,5.426,0,0,1,1.832.328,4.773,4.773,0,0,1,1.56.888,1.2,1.2,0,0,1,.3.344.87.87,0,0,1,.088.408.926.926,0,0,1-.2.6.592.592,0,0,1-.472.248.831.831,0,0,1-.3-.056,2.284,2.284,0,0,1-.352-.184,4.3,4.3,0,0,0-2.368-.928,2.071,2.071,0,0,0-1.84,1.08,5.933,5.933,0,0,0-.7,3.032,2.745,2.745,0,0,1,1.1-1.144A3.241,3.241,0,0,1,15.072-7.232ZM14.64-1.488a1.83,1.83,0,0,0,1.408-.568,2.109,2.109,0,0,0,.528-1.5,2.08,2.08,0,0,0-.528-1.488A1.844,1.844,0,0,0,14.64-5.6a1.928,1.928,0,0,0-1.448.568,2.034,2.034,0,0,0-.552,1.48,2.055,2.055,0,0,0,.552,1.5A1.928,1.928,0,0,0,14.64-1.488ZM24.7-8.016a3.243,3.243,0,0,1,1.8.512,3.4,3.4,0,0,1,1.232,1.448,5,5,0,0,1,.44,2.152,4.845,4.845,0,0,1-.44,2.128A3.333,3.333,0,0,1,26.512-.368a3.309,3.309,0,0,1-1.808.5,3.1,3.1,0,0,1-1.488-.352A2.47,2.47,0,0,1,22.208-1.2V2.064a.83.83,0,0,1-.272.656,1.048,1.048,0,0,1-.72.24,1.037,1.037,0,0,1-.728-.256.868.868,0,0,1-.28-.672V-7.04a.914.914,0,0,1,.264-.688.979.979,0,0,1,.712-.256,1.008,1.008,0,0,1,.72.256.9.9,0,0,1,.272.688v.4a2.455,2.455,0,0,1,1.016-1.016A3.121,3.121,0,0,1,24.7-8.016Zm-.528,6.592a1.793,1.793,0,0,0,1.472-.648A2.829,2.829,0,0,0,26.176-3.9a2.989,2.989,0,0,0-.528-1.888,1.766,1.766,0,0,0-1.472-.672,1.779,1.779,0,0,0-1.48.656,2.952,2.952,0,0,0-.52,1.872A2.923,2.923,0,0,0,22.7-2.08,1.779,1.779,0,0,0,24.176-1.424Zm12.256-.048a.9.9,0,0,1,.288.656.885.885,0,0,1-.272.632.864.864,0,0,1-.64.28A.878.878,0,0,1,35.12-.24l-2.256-2.5L30.608-.24a.928.928,0,0,1-.688.32A.858.858,0,0,1,29.3-.192a.858.858,0,0,1-.272-.624.9.9,0,0,1,.288-.656l2.336-2.544-2.208-2.4a.9.9,0,0,1-.288-.656.85.85,0,0,1,.272-.632.871.871,0,0,1,.624-.264.928.928,0,0,1,.688.32l2.128,2.336,2.128-2.336a.928.928,0,0,1,.688-.32.862.862,0,0,1,.632.264.862.862,0,0,1,.264.632.9.9,0,0,1-.288.656l-2.208,2.4Z" transform="translate(699 3529)" fill="#38485c"/>
    </g>
    <g id="Grupo_18148" data-name="Grupo 18148" transform="translate(120 1004)">
      <g id="V1-Botón-Primario-2" data-name="V1-Botón-Primario" transform="translate(886 3484)" opacity="0.5">
        <rect id="Rectángulo_3061-2" data-name="Rectángulo 3061" width="100" height="48" rx="4" fill="#d1d8e0"/>
        <path id="Trazado_23810-2" data-name="Trazado 23810" d="M-24.491-12.85h3.814a7.24,7.24,0,0,1,3.836.773,2.708,2.708,0,0,1,1.182,2.443,2.961,2.961,0,0,1-.58,1.872,2.594,2.594,0,0,1-1.67.94v.088a3.316,3.316,0,0,1,1.991,1.006,3.044,3.044,0,0,1,.637,2.035A3.3,3.3,0,0,1-16.488-.98,5.2,5.2,0,0,1-19.85,0h-4.641Zm2.1,5.309h2.021a3.461,3.461,0,0,0,1.925-.417,1.6,1.6,0,0,0,.606-1.419,1.422,1.422,0,0,0-.655-1.31,4.09,4.09,0,0,0-2.079-.4H-22.39Zm0,1.705v4.069h2.232a3.286,3.286,0,0,0,1.991-.505,1.866,1.866,0,0,0,.672-1.6,1.694,1.694,0,0,0-.686-1.485,3.633,3.633,0,0,0-2.083-.483Zm18.185.958A5.306,5.306,0,0,1-5.427-1.16,4.377,4.377,0,0,1-8.829.176a4.66,4.66,0,0,1-2.408-.615,4.062,4.062,0,0,1-1.608-1.767,6.017,6.017,0,0,1-.562-2.672,5.27,5.27,0,0,1,1.213-3.691A4.4,4.4,0,0,1-8.776-9.9a4.282,4.282,0,0,1,3.34,1.358A5.245,5.245,0,0,1-4.206-4.878Zm-7.075,0q0,3.366,2.487,3.366,2.461,0,2.461-3.366,0-3.331-2.479-3.331a2.113,2.113,0,0,0-1.885.861A4.383,4.383,0,0,0-11.281-4.878ZM1.789-1.494A5.023,5.023,0,0,0,3.3-1.731V-.176a4.169,4.169,0,0,1-.883.25A6.086,6.086,0,0,1,1.3.176q-2.936,0-2.936-3.094V-8.156H-2.966V-9.07l1.424-.756.7-2.057H.435v2.162H3.2v1.564H.435v5.2a1.46,1.46,0,0,0,.374,1.1A1.362,1.362,0,0,0,1.789-1.494ZM13.865-4.878A5.306,5.306,0,0,1,12.643-1.16,4.377,4.377,0,0,1,9.242.176,4.66,4.66,0,0,1,6.833-.439,4.062,4.062,0,0,1,5.225-2.206a6.017,6.017,0,0,1-.562-2.672A5.27,5.27,0,0,1,5.875-8.569,4.4,4.4,0,0,1,9.294-9.9a4.282,4.282,0,0,1,3.34,1.358A5.245,5.245,0,0,1,13.865-4.878Zm-7.075,0q0,3.366,2.487,3.366,2.461,0,2.461-3.366,0-3.331-2.479-3.331a2.113,2.113,0,0,0-1.885.861A4.383,4.383,0,0,0,6.79-4.878Zm1.134-6.029v-.22q.5-.615,1.033-1.371T9.8-13.79h2.4v.185a18.048,18.048,0,0,1-1.367,1.384,19.27,19.27,0,0,1-1.534,1.314ZM24.79,0H22.715V-5.977a2.616,2.616,0,0,0-.453-1.679,1.75,1.75,0,0,0-1.437-.554,2.285,2.285,0,0,0-1.916.773A4.27,4.27,0,0,0,18.3-4.843V0H16.238V-9.721h1.617l.29,1.274h.105A2.876,2.876,0,0,1,19.5-9.519,4.182,4.182,0,0,1,21.292-9.9q3.5,0,3.5,3.56Z" transform="translate(50 31)" fill="#38485c"/>
      </g>
      <g id="Grupo_18146" data-name="Grupo 18146" transform="translate(986.039 3484) rotate(90)">
        <rect id="Rectángulo_3425-3" data-name="Rectángulo 3425" width="23.888" height="48" transform="translate(48 0.112) rotate(90)" fill="#007bc7" opacity="0.24"/>
        <path id="Trazado_4669-3" data-name="Trazado 4669" d="M0,48V0" transform="translate(47.999 23.888) rotate(90)" fill="none" stroke="#007bc7" stroke-width="1" stroke-dasharray="5 2"/>
        <path id="Trazado_23809-3" data-name="Trazado 23809" d="M0,48V0" transform="translate(47.999 0) rotate(90)" fill="none" stroke="#007bc7" stroke-width="1" stroke-dasharray="5 2"/>
        <path id="Trazado_4670-3" data-name="Trazado 4670" transform="translate(47.999 0.112) rotate(90)" fill="none" stroke="#007bc7" stroke-width="1" stroke-dasharray="5 2"/>
      </g>
      <g id="Grupo_18147" data-name="Grupo 18147" transform="translate(910.074 3484) rotate(90)">
        <rect id="Rectángulo_3425-4" data-name="Rectángulo 3425" width="23.888" height="48" transform="translate(48 0.112) rotate(90)" fill="#007bc7" opacity="0.24"/>
        <path id="Trazado_4669-4" data-name="Trazado 4669" d="M0,48V0" transform="translate(47.999 23.888) rotate(90)" fill="none" stroke="#007bc7" stroke-width="1" stroke-dasharray="5 2"/>
        <path id="Trazado_23809-4" data-name="Trazado 23809" d="M0,48V0" transform="translate(47.999 0) rotate(90)" fill="none" stroke="#007bc7" stroke-width="1" stroke-dasharray="5 2"/>
        <path id="Trazado_4670-4" data-name="Trazado 4670" transform="translate(47.999 0.112) rotate(90)" fill="none" stroke="#007bc7" stroke-width="1" stroke-dasharray="5 2"/>
      </g>
      <path id="Trazado_27881" data-name="Trazado 27881" d="M7.968-1.664q.96,0,.96.816,0,.848-.96.848H1.888a.87.87,0,0,1-.656-.248.851.851,0,0,1-.24-.616,1.218,1.218,0,0,1,.368-.864l3.648-3.92A6.316,6.316,0,0,0,5.992-7,2.691,2.691,0,0,0,6.3-8.224a1.492,1.492,0,0,0-.432-1.152,1.748,1.748,0,0,0-1.232-.4,3.376,3.376,0,0,0-1.272.248,6.362,6.362,0,0,0-1.24.68,1.968,1.968,0,0,1-.32.184.774.774,0,0,1-.32.072.587.587,0,0,1-.472-.256.958.958,0,0,1-.2-.608A.92.92,0,0,1,.9-9.872a1.068,1.068,0,0,1,.28-.336A5.545,5.545,0,0,1,2.832-11.1a5.721,5.721,0,0,1,1.888-.328,3.942,3.942,0,0,1,2.632.832,2.782,2.782,0,0,1,.984,2.24A4.136,4.136,0,0,1,7.92-6.52,8.119,8.119,0,0,1,6.512-4.608L3.744-1.664ZM18-3.808a1.074,1.074,0,0,1,.72.208.741.741,0,0,1,.24.592q0,.8-.96.8h-.816V-.944a1.021,1.021,0,0,1-.28.768A1,1,0,0,1,16.176.1a1,1,0,0,1-.728-.272,1.021,1.021,0,0,1-.28-.768V-2.208H10.976a.892.892,0,0,1-.672-.248.851.851,0,0,1-.24-.616,1.234,1.234,0,0,1,.256-.736l4.944-7.1a1.079,1.079,0,0,1,.4-.344,1.1,1.1,0,0,1,.5-.12,1.044,1.044,0,0,1,.72.272.977.977,0,0,1,.3.768v6.528Zm-2.832,0v-4.3l-2.976,4.3ZM24.72-8.016a3.243,3.243,0,0,1,1.8.512,3.4,3.4,0,0,1,1.232,1.448,5,5,0,0,1,.44,2.152,4.845,4.845,0,0,1-.44,2.128A3.333,3.333,0,0,1,26.528-.368a3.309,3.309,0,0,1-1.808.5,3.1,3.1,0,0,1-1.488-.352A2.47,2.47,0,0,1,22.224-1.2V2.064a.83.83,0,0,1-.272.656,1.048,1.048,0,0,1-.72.24A1.037,1.037,0,0,1,20.5,2.7a.868.868,0,0,1-.28-.672V-7.04a.914.914,0,0,1,.264-.688.979.979,0,0,1,.712-.256,1.008,1.008,0,0,1,.72.256.9.9,0,0,1,.272.688v.4a2.455,2.455,0,0,1,1.016-1.016A3.121,3.121,0,0,1,24.72-8.016Zm-.528,6.592a1.793,1.793,0,0,0,1.472-.648A2.829,2.829,0,0,0,26.192-3.9a2.989,2.989,0,0,0-.528-1.888,1.766,1.766,0,0,0-1.472-.672,1.779,1.779,0,0,0-1.48.656,2.952,2.952,0,0,0-.52,1.872,2.923,2.923,0,0,0,.52,1.856A1.779,1.779,0,0,0,24.192-1.424Zm12.256-.048a.9.9,0,0,1,.288.656.885.885,0,0,1-.272.632.864.864,0,0,1-.64.28.878.878,0,0,1-.688-.336l-2.256-2.5L30.624-.24a.928.928,0,0,1-.688.32.858.858,0,0,1-.624-.272.858.858,0,0,1-.272-.624.9.9,0,0,1,.288-.656l2.336-2.544-2.208-2.4a.9.9,0,0,1-.288-.656A.85.85,0,0,1,29.44-7.7a.871.871,0,0,1,.624-.264.928.928,0,0,1,.688.32L32.88-5.312l2.128-2.336a.928.928,0,0,1,.688-.32.862.862,0,0,1,.632.264.862.862,0,0,1,.264.632.9.9,0,0,1-.288.656L34.1-4.016Z" transform="translate(949 3556)" fill="#38485c"/>
      <path id="Trazado_27882" data-name="Trazado 27882" d="M7.968-1.664q.96,0,.96.816,0,.848-.96.848H1.888a.87.87,0,0,1-.656-.248.851.851,0,0,1-.24-.616,1.218,1.218,0,0,1,.368-.864l3.648-3.92A6.316,6.316,0,0,0,5.992-7,2.691,2.691,0,0,0,6.3-8.224a1.492,1.492,0,0,0-.432-1.152,1.748,1.748,0,0,0-1.232-.4,3.376,3.376,0,0,0-1.272.248,6.362,6.362,0,0,0-1.24.68,1.968,1.968,0,0,1-.32.184.774.774,0,0,1-.32.072.587.587,0,0,1-.472-.256.958.958,0,0,1-.2-.608A.92.92,0,0,1,.9-9.872a1.068,1.068,0,0,1,.28-.336A5.545,5.545,0,0,1,2.832-11.1a5.721,5.721,0,0,1,1.888-.328,3.942,3.942,0,0,1,2.632.832,2.782,2.782,0,0,1,.984,2.24A4.136,4.136,0,0,1,7.92-6.52,8.119,8.119,0,0,1,6.512-4.608L3.744-1.664ZM18-3.808a1.074,1.074,0,0,1,.72.208.741.741,0,0,1,.24.592q0,.8-.96.8h-.816V-.944a1.021,1.021,0,0,1-.28.768A1,1,0,0,1,16.176.1a1,1,0,0,1-.728-.272,1.021,1.021,0,0,1-.28-.768V-2.208H10.976a.892.892,0,0,1-.672-.248.851.851,0,0,1-.24-.616,1.234,1.234,0,0,1,.256-.736l4.944-7.1a1.079,1.079,0,0,1,.4-.344,1.1,1.1,0,0,1,.5-.12,1.044,1.044,0,0,1,.72.272.977.977,0,0,1,.3.768v6.528Zm-2.832,0v-4.3l-2.976,4.3ZM24.72-8.016a3.243,3.243,0,0,1,1.8.512,3.4,3.4,0,0,1,1.232,1.448,5,5,0,0,1,.44,2.152,4.845,4.845,0,0,1-.44,2.128A3.333,3.333,0,0,1,26.528-.368a3.309,3.309,0,0,1-1.808.5,3.1,3.1,0,0,1-1.488-.352A2.47,2.47,0,0,1,22.224-1.2V2.064a.83.83,0,0,1-.272.656,1.048,1.048,0,0,1-.72.24A1.037,1.037,0,0,1,20.5,2.7a.868.868,0,0,1-.28-.672V-7.04a.914.914,0,0,1,.264-.688.979.979,0,0,1,.712-.256,1.008,1.008,0,0,1,.72.256.9.9,0,0,1,.272.688v.4a2.455,2.455,0,0,1,1.016-1.016A3.121,3.121,0,0,1,24.72-8.016Zm-.528,6.592a1.793,1.793,0,0,0,1.472-.648A2.829,2.829,0,0,0,26.192-3.9a2.989,2.989,0,0,0-.528-1.888,1.766,1.766,0,0,0-1.472-.672,1.779,1.779,0,0,0-1.48.656,2.952,2.952,0,0,0-.52,1.872,2.923,2.923,0,0,0,.52,1.856A1.779,1.779,0,0,0,24.192-1.424Zm12.256-.048a.9.9,0,0,1,.288.656.885.885,0,0,1-.272.632.864.864,0,0,1-.64.28.878.878,0,0,1-.688-.336l-2.256-2.5L30.624-.24a.928.928,0,0,1-.688.32.858.858,0,0,1-.624-.272.858.858,0,0,1-.272-.624.9.9,0,0,1,.288-.656l2.336-2.544-2.208-2.4a.9.9,0,0,1-.288-.656A.85.85,0,0,1,29.44-7.7a.871.871,0,0,1,.624-.264.928.928,0,0,1,.688.32L32.88-5.312l2.128-2.336a.928.928,0,0,1,.688-.32.862.862,0,0,1,.632.264.862.862,0,0,1,.264.632.9.9,0,0,1-.288.656L34.1-4.016Z" transform="translate(886 3470)" fill="#38485c"/>
    </g>
    <rect id="Rectángulo_17701" data-name="Rectángulo 17701" width="328" height="48" rx="4" transform="translate(782 4927)" fill="#e1e6ec"/>
    <path id="Trazado_27887" data-name="Trazado 27887" d="M-64.538-12.85h3.814a7.24,7.24,0,0,1,3.836.773,2.708,2.708,0,0,1,1.182,2.443,2.961,2.961,0,0,1-.58,1.872,2.594,2.594,0,0,1-1.67.94v.088a3.316,3.316,0,0,1,1.991,1.006,3.044,3.044,0,0,1,.637,2.035A3.3,3.3,0,0,1-56.536-.98,5.2,5.2,0,0,1-59.9,0h-4.641Zm2.1,5.309h2.021a3.461,3.461,0,0,0,1.925-.417,1.6,1.6,0,0,0,.606-1.419,1.422,1.422,0,0,0-.655-1.31,4.09,4.09,0,0,0-2.079-.4h-1.819Zm0,1.705v4.069h2.232a3.286,3.286,0,0,0,1.991-.505,1.866,1.866,0,0,0,.672-1.6,1.694,1.694,0,0,0-.686-1.485,3.633,3.633,0,0,0-2.083-.483Zm18.185.958A5.306,5.306,0,0,1-45.475-1.16a4.377,4.377,0,0,1-3.4,1.336,4.66,4.66,0,0,1-2.408-.615,4.062,4.062,0,0,1-1.608-1.767,6.017,6.017,0,0,1-.562-2.672,5.27,5.27,0,0,1,1.213-3.691A4.4,4.4,0,0,1-48.823-9.9a4.282,4.282,0,0,1,3.34,1.358A5.245,5.245,0,0,1-44.253-4.878Zm-7.075,0q0,3.366,2.487,3.366,2.461,0,2.461-3.366,0-3.331-2.479-3.331a2.113,2.113,0,0,0-1.885.861A4.383,4.383,0,0,0-51.328-4.878Zm13.069,3.384a5.023,5.023,0,0,0,1.512-.237V-.176a4.169,4.169,0,0,1-.883.25,6.086,6.086,0,0,1-1.121.1q-2.936,0-2.936-3.094V-8.156h-1.327V-9.07l1.424-.756.7-2.057h1.274v2.162h2.769v1.564h-2.769v5.2a1.46,1.46,0,0,0,.374,1.1A1.362,1.362,0,0,0-38.259-1.494Zm12.076-3.384A5.306,5.306,0,0,1-27.4-1.16a4.377,4.377,0,0,1-3.4,1.336,4.66,4.66,0,0,1-2.408-.615,4.062,4.062,0,0,1-1.608-1.767,6.017,6.017,0,0,1-.562-2.672,5.27,5.27,0,0,1,1.213-3.691A4.4,4.4,0,0,1-30.753-9.9a4.282,4.282,0,0,1,3.34,1.358A5.245,5.245,0,0,1-26.183-4.878Zm-7.075,0q0,3.366,2.487,3.366,2.461,0,2.461-3.366,0-3.331-2.479-3.331a2.113,2.113,0,0,0-1.885.861A4.383,4.383,0,0,0-33.258-4.878Zm1.134-6.029v-.22q.5-.615,1.033-1.371t.839-1.292h2.4v.185a18.048,18.048,0,0,1-1.367,1.384,19.27,19.27,0,0,1-1.534,1.314ZM-15.258,0h-2.074V-5.977a2.616,2.616,0,0,0-.453-1.679,1.75,1.75,0,0,0-1.437-.554,2.285,2.285,0,0,0-1.916.773,4.27,4.27,0,0,0-.606,2.593V0H-23.81V-9.721h1.617l.29,1.274h.105a2.876,2.876,0,0,1,1.248-1.072A4.182,4.182,0,0,1-18.756-9.9q3.5,0,3.5,3.56Zm12.48.176A3.4,3.4,0,0,1-5.643-1.151h-.123q.123,1.23.123,1.494V4.324H-7.708V-9.721h1.67q.07.272.29,1.3h.105A3.236,3.236,0,0,1-2.742-9.9,3.374,3.374,0,0,1,.092-8.578a5.944,5.944,0,0,1,1.015,3.7A5.948,5.948,0,0,1,.075-1.16,3.4,3.4,0,0,1-2.777.176Zm-.5-8.385a2.147,2.147,0,0,0-1.8.721,3.735,3.735,0,0,0-.567,2.3v.308A4.547,4.547,0,0,0-5.08-2.307a2.092,2.092,0,0,0,1.837.8,1.865,1.865,0,0,0,1.652-.879,4.539,4.539,0,0,0,.58-2.5A4.38,4.38,0,0,0-1.586-7.37,1.92,1.92,0,0,0-3.278-8.209ZM8.438-9.9a4.972,4.972,0,0,1,1.028.088l-.2,1.925a3.9,3.9,0,0,0-.914-.105,2.645,2.645,0,0,0-2.008.809,2.923,2.923,0,0,0-.769,2.1V0H3.507V-9.721H5.124L5.4-8.007H5.5a3.851,3.851,0,0,1,1.261-1.38A3,3,0,0,1,8.438-9.9Zm4.9,9.9H11.268V-9.721h2.065ZM11.145-12.3a1.144,1.144,0,0,1,.3-.853,1.182,1.182,0,0,1,.866-.3,1.156,1.156,0,0,1,.848.3,1.144,1.144,0,0,1,.3.853,1.122,1.122,0,0,1-.3.831,1.147,1.147,0,0,1-.848.3,1.171,1.171,0,0,1-.866-.3A1.122,1.122,0,0,1,11.145-12.3ZM24.478,0H22.4V-5.994a2.718,2.718,0,0,0-.422-1.666,1.557,1.557,0,0,0-1.318-.549,2.011,2.011,0,0,0-1.753.778,4.564,4.564,0,0,0-.558,2.588V0H16.286V-9.721H17.9l.29,1.274H18.3a2.693,2.693,0,0,1,1.173-1.072A3.783,3.783,0,0,1,21.164-9.9a2.956,2.956,0,0,1,2.971,1.529h.141a2.963,2.963,0,0,1,1.213-1.125,3.849,3.849,0,0,1,1.793-.4,3.265,3.265,0,0,1,2.536.879,3.892,3.892,0,0,1,.8,2.681V0H28.547V-5.994a2.7,2.7,0,0,0-.426-1.666A1.569,1.569,0,0,0,26.8-8.209a2.05,2.05,0,0,0-1.762.751,3.874,3.874,0,0,0-.558,2.307Zm15.1,0-.413-1.354h-.07A3.982,3.982,0,0,1,37.679-.145a4.475,4.475,0,0,1-1.828.321A3.094,3.094,0,0,1,33.614-.6a2.894,2.894,0,0,1-.8-2.188,2.57,2.57,0,0,1,1.116-2.268,6.436,6.436,0,0,1,3.4-.835l1.679-.053V-6.46a1.965,1.965,0,0,0-.435-1.393,1.774,1.774,0,0,0-1.349-.461,4.665,4.665,0,0,0-1.433.22,10.811,10.811,0,0,0-1.318.519L33.8-9.053a7.189,7.189,0,0,1,1.731-.628A7.968,7.968,0,0,1,37.31-9.9a4.2,4.2,0,0,1,2.8.809,3.166,3.166,0,0,1,.945,2.54V0ZM36.5-1.406a2.558,2.558,0,0,0,1.806-.628A2.278,2.278,0,0,0,38.988-3.8v-.844l-1.248.053a4.27,4.27,0,0,0-2.123.488,1.482,1.482,0,0,0-.664,1.332,1.3,1.3,0,0,0,.387,1.006A1.661,1.661,0,0,0,36.5-1.406ZM48.867-9.9a4.972,4.972,0,0,1,1.028.088l-.2,1.925a3.9,3.9,0,0,0-.914-.105,2.645,2.645,0,0,0-2.008.809A2.923,2.923,0,0,0,46-5.08V0H43.937V-9.721h1.617l.272,1.714h.105a3.851,3.851,0,0,1,1.261-1.38A3,3,0,0,1,48.867-9.9Zm4.9,9.9H51.7V-9.721h2.065ZM51.574-12.3a1.144,1.144,0,0,1,.3-.853,1.182,1.182,0,0,1,.866-.3,1.156,1.156,0,0,1,.848.3,1.144,1.144,0,0,1,.3.853,1.122,1.122,0,0,1-.3.831,1.147,1.147,0,0,1-.848.3,1.171,1.171,0,0,1-.866-.3A1.122,1.122,0,0,1,51.574-12.3ZM65.338-4.878A5.306,5.306,0,0,1,64.116-1.16a4.377,4.377,0,0,1-3.4,1.336,4.66,4.66,0,0,1-2.408-.615A4.062,4.062,0,0,1,56.7-2.206a6.017,6.017,0,0,1-.562-2.672,5.27,5.27,0,0,1,1.213-3.691A4.4,4.4,0,0,1,60.768-9.9a4.282,4.282,0,0,1,3.34,1.358A5.245,5.245,0,0,1,65.338-4.878Zm-7.075,0q0,3.366,2.487,3.366,2.461,0,2.461-3.366,0-3.331-2.479-3.331a2.113,2.113,0,0,0-1.885.861A4.383,4.383,0,0,0,58.263-4.878Z" transform="translate(945.539 4958)" fill="#949ea9"/>
    <path id="Trazado_27871" data-name="Trazado 27871" d="M1.508-11.422H4.9a6.435,6.435,0,0,1,3.41.688A2.407,2.407,0,0,1,9.359-8.562,2.632,2.632,0,0,1,8.844-6.9a2.306,2.306,0,0,1-1.484.836v.078a2.947,2.947,0,0,1,1.77.895A2.706,2.706,0,0,1,9.7-3.281,2.932,2.932,0,0,1,8.621-.871,4.621,4.621,0,0,1,5.633,0H1.508ZM3.375-6.7h1.8a3.077,3.077,0,0,0,1.711-.371,1.421,1.421,0,0,0,.539-1.262A1.264,1.264,0,0,0,6.84-9.5a3.635,3.635,0,0,0-1.848-.359H3.375Zm0,1.516V-1.57H5.359a2.921,2.921,0,0,0,1.77-.449,1.658,1.658,0,0,0,.6-1.418,1.506,1.506,0,0,0-.609-1.32,3.229,3.229,0,0,0-1.852-.43Zm16.164.852a4.716,4.716,0,0,1-1.086,3.3A3.891,3.891,0,0,1,15.43.156a4.143,4.143,0,0,1-2.141-.547,3.61,3.61,0,0,1-1.43-1.57,5.348,5.348,0,0,1-.5-2.375,4.684,4.684,0,0,1,1.078-3.281A3.909,3.909,0,0,1,15.477-8.8,3.807,3.807,0,0,1,18.445-7.59,4.663,4.663,0,0,1,19.539-4.336Zm-6.289,0q0,2.992,2.211,2.992,2.188,0,2.188-2.992,0-2.961-2.2-2.961a1.879,1.879,0,0,0-1.676.766A3.9,3.9,0,0,0,13.25-4.336ZM24.867-1.328a4.465,4.465,0,0,0,1.344-.211V-.156a3.706,3.706,0,0,1-.785.223,5.409,5.409,0,0,1-1,.09q-2.609,0-2.609-2.75V-7.25h-1.18v-.812l1.266-.672.625-1.828h1.133v1.922h2.461V-7.25H23.664v4.625a1.3,1.3,0,0,0,.332.98A1.21,1.21,0,0,0,24.867-1.328ZM35.6-4.336a4.716,4.716,0,0,1-1.086,3.3A3.891,3.891,0,0,1,31.492.156a4.143,4.143,0,0,1-2.141-.547,3.61,3.61,0,0,1-1.43-1.57,5.348,5.348,0,0,1-.5-2.375A4.684,4.684,0,0,1,28.5-7.617,3.909,3.909,0,0,1,31.539-8.8,3.807,3.807,0,0,1,34.508-7.59,4.662,4.662,0,0,1,35.6-4.336Zm-6.289,0q0,2.992,2.211,2.992,2.187,0,2.188-2.992,0-2.961-2.2-2.961a1.879,1.879,0,0,0-1.676.766A3.9,3.9,0,0,0,29.313-4.336ZM30.32-9.7v-.2q.445-.547.918-1.219t.746-1.148h2.133v.164a16.042,16.042,0,0,1-1.215,1.23A17.129,17.129,0,0,1,31.539-9.7ZM45.313,0H43.469V-5.312a2.325,2.325,0,0,0-.4-1.492A1.555,1.555,0,0,0,41.789-7.3a2.031,2.031,0,0,0-1.7.688,3.8,3.8,0,0,0-.539,2.3V0H37.711V-8.641h1.438l.258,1.133H39.5a2.556,2.556,0,0,1,1.109-.953A3.718,3.718,0,0,1,42.2-8.8q3.109,0,3.109,3.164ZM59.32-8.641v1.008l-1.477.273a2.383,2.383,0,0,1,.336.672,2.651,2.651,0,0,1,.133.844,2.585,2.585,0,0,1-.922,2.1,3.858,3.858,0,0,1-2.539.766,4.117,4.117,0,0,1-.75-.062,1.034,1.034,0,0,0-.594.859.478.478,0,0,0,.277.445,2.4,2.4,0,0,0,1.02.148h1.508a3.353,3.353,0,0,1,2.172.609A2.144,2.144,0,0,1,59.227.781a2.556,2.556,0,0,1-1.211,2.266,6.376,6.376,0,0,1-3.5.8,4.83,4.83,0,0,1-2.7-.625,2.02,2.02,0,0,1-.93-1.781,1.9,1.9,0,0,1,.5-1.34A2.7,2.7,0,0,1,52.8-.656a1.38,1.38,0,0,1-.605-.5,1.272,1.272,0,0,1-.238-.73,1.257,1.257,0,0,1,.273-.82,3.155,3.155,0,0,1,.813-.664,2.407,2.407,0,0,1-1.09-.941,2.769,2.769,0,0,1-.418-1.527,2.738,2.738,0,0,1,.887-2.18A3.728,3.728,0,0,1,54.953-8.8a6.152,6.152,0,0,1,.77.051,4.845,4.845,0,0,1,.605.105ZM52.531,1.344a1.01,1.01,0,0,0,.535.914,2.941,2.941,0,0,0,1.5.32,4.544,4.544,0,0,0,2.234-.43,1.288,1.288,0,0,0,.734-1.141.856.856,0,0,0-.4-.8,3.231,3.231,0,0,0-1.5-.238H54.25A1.954,1.954,0,0,0,53,.34,1.217,1.217,0,0,0,52.531,1.344Zm.789-7.187a1.739,1.739,0,0,0,.418,1.25,1.581,1.581,0,0,0,1.2.438q1.594,0,1.594-1.7a1.932,1.932,0,0,0-.395-1.3,1.5,1.5,0,0,0-1.2-.457,1.545,1.545,0,0,0-1.207.453A1.9,1.9,0,0,0,53.32-5.844ZM65.3-8.8a4.42,4.42,0,0,1,.914.078l-.18,1.711a3.47,3.47,0,0,0-.812-.094,2.351,2.351,0,0,0-1.785.719,2.6,2.6,0,0,0-.684,1.867V0H60.922V-8.641h1.438L62.6-7.117H62.7a3.423,3.423,0,0,1,1.121-1.227A2.665,2.665,0,0,1,65.3-8.8ZM73.227,0l-.367-1.2H72.8A3.54,3.54,0,0,1,71.539-.129a3.978,3.978,0,0,1-1.625.285,2.75,2.75,0,0,1-1.988-.687,2.573,2.573,0,0,1-.715-1.945A2.284,2.284,0,0,1,68.2-4.492a5.721,5.721,0,0,1,3.023-.742l1.492-.047v-.461a1.747,1.747,0,0,0-.387-1.238,1.577,1.577,0,0,0-1.2-.41,4.147,4.147,0,0,0-1.273.2,9.61,9.61,0,0,0-1.172.461l-.594-1.312a6.39,6.39,0,0,1,1.539-.559A7.083,7.083,0,0,1,71.211-8.8a3.738,3.738,0,0,1,2.488.719,2.814,2.814,0,0,1,.84,2.258V0ZM70.492-1.25A2.274,2.274,0,0,0,72.1-1.809,2.025,2.025,0,0,0,72.7-3.375v-.75l-1.109.047a3.8,3.8,0,0,0-1.887.434,1.317,1.317,0,0,0-.59,1.184,1.155,1.155,0,0,0,.344.895A1.477,1.477,0,0,0,70.492-1.25ZM84.7,0H82.859V-5.312a2.325,2.325,0,0,0-.4-1.492A1.555,1.555,0,0,0,81.18-7.3a2.031,2.031,0,0,0-1.7.688,3.8,3.8,0,0,0-.539,2.3V0H77.1V-8.641h1.438L78.8-7.508h.094A2.556,2.556,0,0,1,80-8.461,3.718,3.718,0,0,1,81.594-8.8Q84.7-8.8,84.7-5.633Zm5.469.156a3.01,3.01,0,0,1-2.523-1.172A5.267,5.267,0,0,1,86.742-4.3a5.284,5.284,0,0,1,.918-3.309A3.038,3.038,0,0,1,90.2-8.8,2.979,2.979,0,0,1,92.8-7.539h.094a11.006,11.006,0,0,1-.133-1.469v-3.148H94.6V0H93.164l-.32-1.133h-.086A2.935,2.935,0,0,1,90.172.156Zm.492-1.484a2,2,0,0,0,1.648-.637,3.352,3.352,0,0,0,.531-2.066v-.258a3.873,3.873,0,0,0-.531-2.32A1.971,1.971,0,0,0,90.648-7.3a1.688,1.688,0,0,0-1.492.785,4.024,4.024,0,0,0-.523,2.238,3.923,3.923,0,0,0,.508,2.191A1.714,1.714,0,0,0,90.664-1.328ZM101,.156A4.18,4.18,0,0,1,97.848-1.02a4.463,4.463,0,0,1-1.137-3.238,4.9,4.9,0,0,1,1.055-3.328,3.643,3.643,0,0,1,2.9-1.211,3.561,3.561,0,0,1,2.7,1.039,3.97,3.97,0,0,1,.992,2.859v.992H98.6a2.838,2.838,0,0,0,.68,1.934,2.367,2.367,0,0,0,1.8.676,6.662,6.662,0,0,0,1.426-.145,7.474,7.474,0,0,0,1.418-.48V-.43a5.637,5.637,0,0,1-1.359.453A8.336,8.336,0,0,1,101,.156Zm-.336-7.562a1.845,1.845,0,0,0-1.4.555,2.644,2.644,0,0,0-.629,1.617h3.922a2.392,2.392,0,0,0-.516-1.621A1.764,1.764,0,0,0,100.664-7.406Z" transform="translate(561 4518)" fill="#38485c"/>
    <g id="Grupo_21016" data-name="Grupo 21016" transform="translate(35.479 -255)">
      <path id="Trazado_27877" data-name="Trazado 27877" d="M8.4-3.808a1.074,1.074,0,0,1,.72.208.741.741,0,0,1,.24.592q0,.8-.96.8H7.584V-.944a1.021,1.021,0,0,1-.28.768A1,1,0,0,1,6.576.1a1,1,0,0,1-.728-.272,1.021,1.021,0,0,1-.28-.768V-2.208H1.376A.892.892,0,0,1,.7-2.456a.851.851,0,0,1-.24-.616A1.234,1.234,0,0,1,.72-3.808l4.944-7.1a1.079,1.079,0,0,1,.4-.344,1.1,1.1,0,0,1,.5-.12,1.044,1.044,0,0,1,.72.272.977.977,0,0,1,.3.768v6.528Zm-2.832,0v-4.3l-2.976,4.3ZM15.12-8.016a3.243,3.243,0,0,1,1.8.512,3.4,3.4,0,0,1,1.232,1.448,5,5,0,0,1,.44,2.152,4.845,4.845,0,0,1-.44,2.128A3.333,3.333,0,0,1,16.928-.368a3.309,3.309,0,0,1-1.808.5,3.1,3.1,0,0,1-1.488-.352A2.47,2.47,0,0,1,12.624-1.2V2.064a.83.83,0,0,1-.272.656,1.048,1.048,0,0,1-.72.24A1.037,1.037,0,0,1,10.9,2.7a.868.868,0,0,1-.28-.672V-7.04a.914.914,0,0,1,.264-.688.979.979,0,0,1,.712-.256,1.008,1.008,0,0,1,.72.256.9.9,0,0,1,.272.688v.4a2.455,2.455,0,0,1,1.016-1.016A3.121,3.121,0,0,1,15.12-8.016Zm-.528,6.592a1.793,1.793,0,0,0,1.472-.648A2.829,2.829,0,0,0,16.592-3.9a2.989,2.989,0,0,0-.528-1.888,1.766,1.766,0,0,0-1.472-.672,1.779,1.779,0,0,0-1.48.656,2.952,2.952,0,0,0-.52,1.872,2.923,2.923,0,0,0,.52,1.856A1.779,1.779,0,0,0,14.592-1.424Zm12.256-.048a.9.9,0,0,1,.288.656.885.885,0,0,1-.272.632.864.864,0,0,1-.64.28.878.878,0,0,1-.688-.336l-2.256-2.5L21.024-.24a.928.928,0,0,1-.688.32.858.858,0,0,1-.624-.272.858.858,0,0,1-.272-.624.9.9,0,0,1,.288-.656l2.336-2.544-2.208-2.4a.9.9,0,0,1-.288-.656A.85.85,0,0,1,19.84-7.7a.871.871,0,0,1,.624-.264.928.928,0,0,1,.688.32L23.28-5.312l2.128-2.336a.928.928,0,0,1,.688-.32.862.862,0,0,1,.632.264.862.862,0,0,1,.264.632.9.9,0,0,1-.288.656L24.5-4.016Z" transform="translate(883.104 5054)" fill="#38485c"/>
      <path id="Trazado_27878" data-name="Trazado 27878" d="M8.4-3.808a1.074,1.074,0,0,1,.72.208.741.741,0,0,1,.24.592q0,.8-.96.8H7.584V-.944a1.021,1.021,0,0,1-.28.768A1,1,0,0,1,6.576.1a1,1,0,0,1-.728-.272,1.021,1.021,0,0,1-.28-.768V-2.208H1.376A.892.892,0,0,1,.7-2.456a.851.851,0,0,1-.24-.616A1.234,1.234,0,0,1,.72-3.808l4.944-7.1a1.079,1.079,0,0,1,.4-.344,1.1,1.1,0,0,1,.5-.12,1.044,1.044,0,0,1,.72.272.977.977,0,0,1,.3.768v6.528Zm-2.832,0v-4.3l-2.976,4.3ZM15.12-8.016a3.243,3.243,0,0,1,1.8.512,3.4,3.4,0,0,1,1.232,1.448,5,5,0,0,1,.44,2.152,4.845,4.845,0,0,1-.44,2.128A3.333,3.333,0,0,1,16.928-.368a3.309,3.309,0,0,1-1.808.5,3.1,3.1,0,0,1-1.488-.352A2.47,2.47,0,0,1,12.624-1.2V2.064a.83.83,0,0,1-.272.656,1.048,1.048,0,0,1-.72.24A1.037,1.037,0,0,1,10.9,2.7a.868.868,0,0,1-.28-.672V-7.04a.914.914,0,0,1,.264-.688.979.979,0,0,1,.712-.256,1.008,1.008,0,0,1,.72.256.9.9,0,0,1,.272.688v.4a2.455,2.455,0,0,1,1.016-1.016A3.121,3.121,0,0,1,15.12-8.016Zm-.528,6.592a1.793,1.793,0,0,0,1.472-.648A2.829,2.829,0,0,0,16.592-3.9a2.989,2.989,0,0,0-.528-1.888,1.766,1.766,0,0,0-1.472-.672,1.779,1.779,0,0,0-1.48.656,2.952,2.952,0,0,0-.52,1.872,2.923,2.923,0,0,0,.52,1.856A1.779,1.779,0,0,0,14.592-1.424Zm12.256-.048a.9.9,0,0,1,.288.656.885.885,0,0,1-.272.632.864.864,0,0,1-.64.28.878.878,0,0,1-.688-.336l-2.256-2.5L21.024-.24a.928.928,0,0,1-.688.32.858.858,0,0,1-.624-.272.858.858,0,0,1-.272-.624.9.9,0,0,1,.288-.656l2.336-2.544-2.208-2.4a.9.9,0,0,1-.288-.656A.85.85,0,0,1,19.84-7.7a.871.871,0,0,1,.624-.264.928.928,0,0,1,.688.32L23.28-5.312l2.128-2.336a.928.928,0,0,1,.688-.32.862.862,0,0,1,.632.264.862.862,0,0,1,.264.632.9.9,0,0,1-.288.656L24.5-4.016Z" transform="translate(883.104 5086)" fill="#38485c"/>
      <g id="V2-Botón-Primario-Pequeño" transform="translate(820 5052)">
        <rect id="Rectángulo_3061-3" data-name="Rectángulo 3061" width="54" height="26" rx="4" fill="#e1e6ec"/>
        <text id="Botón" transform="translate(8 18)" fill="#949ea9" font-size="13" font-family="OpenSans-SemiBold, Open Sans" font-weight="600"><tspan x="0" y="0">Botón</tspan></text>
      </g>
      <g id="Grupo_21006" data-name="Grupo 21006" transform="translate(820 5074.075)">
        <rect id="Rectángulo_3425-5" data-name="Rectángulo 3425" width="3.981" height="53.568" transform="translate(53.568 -0.056) rotate(90)" fill="#007bc7" opacity="0.24"/>
        <path id="Trazado_4669-5" data-name="Trazado 4669" d="M0,53.566V0" transform="translate(53.567 3.906) rotate(90)" fill="none" stroke="#007bc7" stroke-width="1" stroke-dasharray="5 2"/>
        <path id="Trazado_23809-5" data-name="Trazado 23809" d="M0,53.566V0" transform="translate(53.567 -0.075) rotate(90)" fill="none" stroke="#007bc7" stroke-width="1" stroke-dasharray="5 2"/>
        <path id="Trazado_4670-5" data-name="Trazado 4670" transform="translate(53.567 -0.056) rotate(90)" fill="none" stroke="#007bc7" stroke-width="1" stroke-dasharray="5 2"/>
      </g>
      <g id="Grupo_21007" data-name="Grupo 21007" transform="translate(820 5052.075)">
        <rect id="Rectángulo_3425-6" data-name="Rectángulo 3425" width="3.981" height="53.568" transform="translate(53.568 -0.056) rotate(90)" fill="#007bc7" opacity="0.24"/>
        <path id="Trazado_4669-6" data-name="Trazado 4669" d="M0,53.566V0" transform="translate(53.567 3.906) rotate(90)" fill="none" stroke="#007bc7" stroke-width="1" stroke-dasharray="5 2"/>
        <path id="Trazado_23809-6" data-name="Trazado 23809" d="M0,53.566V0" transform="translate(53.567 -0.075) rotate(90)" fill="none" stroke="#007bc7" stroke-width="1" stroke-dasharray="5 2"/>
        <path id="Trazado_4670-6" data-name="Trazado 4670" transform="translate(53.567 -0.056) rotate(90)" fill="none" stroke="#007bc7" stroke-width="1" stroke-dasharray="5 2"/>
      </g>
    </g>
    <g id="Grupo_21017" data-name="Grupo 21017" transform="translate(-10.776 -255)">
      <path id="Trazado_27879" data-name="Trazado 27879" d="M6.96-5.792A2.733,2.733,0,0,1,8.488-4.8a2.864,2.864,0,0,1,.536,1.76A2.747,2.747,0,0,1,7.9-.712a5.074,5.074,0,0,1-3.1.84,5.074,5.074,0,0,1-3.1-.84A2.747,2.747,0,0,1,.576-3.04,2.87,2.87,0,0,1,1.12-4.808a2.68,2.68,0,0,1,1.536-.984,2.777,2.777,0,0,1-1.328-1,2.69,2.69,0,0,1-.48-1.592A2.659,2.659,0,0,1,1.9-10.608a4.626,4.626,0,0,1,2.9-.816,4.626,4.626,0,0,1,2.9.816A2.659,2.659,0,0,1,8.752-8.384a2.753,2.753,0,0,1-.48,1.616A2.584,2.584,0,0,1,6.96-5.792ZM4.8-9.808q-2,0-2,1.632a1.529,1.529,0,0,0,.5,1.24,2.275,2.275,0,0,0,1.5.424,2.275,2.275,0,0,0,1.5-.424,1.529,1.529,0,0,0,.5-1.24Q6.8-9.808,4.8-9.808Zm0,8.32q2.288,0,2.288-1.712T4.8-4.912q-2.288,0-2.288,1.712T4.8-1.488ZM15.12-8.016a3.243,3.243,0,0,1,1.8.512,3.4,3.4,0,0,1,1.232,1.448,5,5,0,0,1,.44,2.152,4.845,4.845,0,0,1-.44,2.128A3.333,3.333,0,0,1,16.928-.368a3.309,3.309,0,0,1-1.808.5,3.1,3.1,0,0,1-1.488-.352A2.47,2.47,0,0,1,12.624-1.2V2.064a.83.83,0,0,1-.272.656,1.048,1.048,0,0,1-.72.24A1.037,1.037,0,0,1,10.9,2.7a.868.868,0,0,1-.28-.672V-7.04a.914.914,0,0,1,.264-.688.979.979,0,0,1,.712-.256,1.008,1.008,0,0,1,.72.256.9.9,0,0,1,.272.688v.4a2.455,2.455,0,0,1,1.016-1.016A3.121,3.121,0,0,1,15.12-8.016Zm-.528,6.592a1.793,1.793,0,0,0,1.472-.648A2.829,2.829,0,0,0,16.592-3.9a2.989,2.989,0,0,0-.528-1.888,1.766,1.766,0,0,0-1.472-.672,1.779,1.779,0,0,0-1.48.656,2.952,2.952,0,0,0-.52,1.872,2.923,2.923,0,0,0,.52,1.856A1.779,1.779,0,0,0,14.592-1.424Zm12.256-.048a.9.9,0,0,1,.288.656.885.885,0,0,1-.272.632.864.864,0,0,1-.64.28.878.878,0,0,1-.688-.336l-2.256-2.5L21.024-.24a.928.928,0,0,1-.688.32.858.858,0,0,1-.624-.272.858.858,0,0,1-.272-.624.9.9,0,0,1,.288-.656l2.336-2.544-2.208-2.4a.9.9,0,0,1-.288-.656A.85.85,0,0,1,19.84-7.7a.871.871,0,0,1,.624-.264.928.928,0,0,1,.688.32L23.28-5.312l2.128-2.336a.928.928,0,0,1,.688-.32.862.862,0,0,1,.632.264.862.862,0,0,1,.264.632.9.9,0,0,1-.288.656L24.5-4.016Z" transform="translate(1062 5099)" fill="#38485c"/>
      <path id="Trazado_27880" data-name="Trazado 27880" d="M6.96-5.792A2.733,2.733,0,0,1,8.488-4.8a2.864,2.864,0,0,1,.536,1.76A2.747,2.747,0,0,1,7.9-.712a5.074,5.074,0,0,1-3.1.84,5.074,5.074,0,0,1-3.1-.84A2.747,2.747,0,0,1,.576-3.04,2.87,2.87,0,0,1,1.12-4.808a2.68,2.68,0,0,1,1.536-.984,2.777,2.777,0,0,1-1.328-1,2.69,2.69,0,0,1-.48-1.592A2.659,2.659,0,0,1,1.9-10.608a4.626,4.626,0,0,1,2.9-.816,4.626,4.626,0,0,1,2.9.816A2.659,2.659,0,0,1,8.752-8.384a2.753,2.753,0,0,1-.48,1.616A2.584,2.584,0,0,1,6.96-5.792ZM4.8-9.808q-2,0-2,1.632a1.529,1.529,0,0,0,.5,1.24,2.275,2.275,0,0,0,1.5.424,2.275,2.275,0,0,0,1.5-.424,1.529,1.529,0,0,0,.5-1.24Q6.8-9.808,4.8-9.808Zm0,8.32q2.288,0,2.288-1.712T4.8-4.912q-2.288,0-2.288,1.712T4.8-1.488ZM15.12-8.016a3.243,3.243,0,0,1,1.8.512,3.4,3.4,0,0,1,1.232,1.448,5,5,0,0,1,.44,2.152,4.845,4.845,0,0,1-.44,2.128A3.333,3.333,0,0,1,16.928-.368a3.309,3.309,0,0,1-1.808.5,3.1,3.1,0,0,1-1.488-.352A2.47,2.47,0,0,1,12.624-1.2V2.064a.83.83,0,0,1-.272.656,1.048,1.048,0,0,1-.72.24A1.037,1.037,0,0,1,10.9,2.7a.868.868,0,0,1-.28-.672V-7.04a.914.914,0,0,1,.264-.688.979.979,0,0,1,.712-.256,1.008,1.008,0,0,1,.72.256.9.9,0,0,1,.272.688v.4a2.455,2.455,0,0,1,1.016-1.016A3.121,3.121,0,0,1,15.12-8.016Zm-.528,6.592a1.793,1.793,0,0,0,1.472-.648A2.829,2.829,0,0,0,16.592-3.9a2.989,2.989,0,0,0-.528-1.888,1.766,1.766,0,0,0-1.472-.672,1.779,1.779,0,0,0-1.48.656,2.952,2.952,0,0,0-.52,1.872,2.923,2.923,0,0,0,.52,1.856A1.779,1.779,0,0,0,14.592-1.424Zm12.256-.048a.9.9,0,0,1,.288.656.885.885,0,0,1-.272.632.864.864,0,0,1-.64.28.878.878,0,0,1-.688-.336l-2.256-2.5L21.024-.24a.928.928,0,0,1-.688.32.858.858,0,0,1-.624-.272.858.858,0,0,1-.272-.624.9.9,0,0,1,.288-.656l2.336-2.544-2.208-2.4a.9.9,0,0,1-.288-.656A.85.85,0,0,1,19.84-7.7a.871.871,0,0,1,.624-.264.928.928,0,0,1,.688.32L23.28-5.312l2.128-2.336a.928.928,0,0,1,.688-.32.862.862,0,0,1,.632.264.862.862,0,0,1,.264.632.9.9,0,0,1-.288.656L24.5-4.016Z" transform="translate(1016 5041)" fill="#38485c"/>
      <g id="V2-Botón-Primario-Pequeño-2" data-name="V2-Botón-Primario-Pequeño" transform="translate(1016.576 5052)">
        <rect id="Rectángulo_3061-4" data-name="Rectángulo 3061" width="54" height="26" rx="4" fill="#e1e6ec"/>
        <text id="Botón-2" data-name="Botón" transform="translate(8 18)" fill="#949ea9" font-size="13" font-family="OpenSans-SemiBold, Open Sans" font-weight="600"><tspan x="0" y="0">Botón</tspan></text>
      </g>
      <g id="Grupo_21009" data-name="Grupo 21009" transform="translate(1024.576 5052) rotate(90)">
        <rect id="Rectángulo_3425-7" data-name="Rectángulo 3425" width="7.963" height="26" transform="translate(26 0.037) rotate(90)" fill="#007bc7" opacity="0.24"/>
        <path id="Trazado_4669-7" data-name="Trazado 4669" d="M0,26V0" transform="translate(25.999 7.963) rotate(90)" fill="none" stroke="#007bc7" stroke-width="1" stroke-dasharray="5 2"/>
        <path id="Trazado_23809-7" data-name="Trazado 23809" d="M0,26V0" transform="translate(25.999 0) rotate(90)" fill="none" stroke="#007bc7" stroke-width="1" stroke-dasharray="5 2"/>
        <path id="Trazado_4670-7" data-name="Trazado 4670" transform="translate(25.999 0.037) rotate(90)" fill="none" stroke="#007bc7" stroke-width="1" stroke-dasharray="5 2"/>
      </g>
      <g id="Grupo_21011" data-name="Grupo 21011" transform="translate(1070.576 5052) rotate(90)">
        <rect id="Rectángulo_3425-8" data-name="Rectángulo 3425" width="7.963" height="26" transform="translate(26 0.037) rotate(90)" fill="#007bc7" opacity="0.24"/>
        <path id="Trazado_4669-8" data-name="Trazado 4669" d="M0,26V0" transform="translate(25.999 7.963) rotate(90)" fill="none" stroke="#007bc7" stroke-width="1" stroke-dasharray="5 2"/>
        <path id="Trazado_23809-8" data-name="Trazado 23809" d="M0,26V0" transform="translate(25.999 0) rotate(90)" fill="none" stroke="#007bc7" stroke-width="1" stroke-dasharray="5 2"/>
        <path id="Trazado_4670-8" data-name="Trazado 4670" transform="translate(25.999 0.037) rotate(90)" fill="none" stroke="#007bc7" stroke-width="1" stroke-dasharray="5 2"/>
      </g>
    </g>
    <g id="Grupo_21012" data-name="Grupo 21012" transform="translate(0 -255)">
      <path id="Trazado_27873" data-name="Trazado 27873" d="M5.488-7.232a3.5,3.5,0,0,1,1.792.456A3.181,3.181,0,0,1,8.5-5.5a3.929,3.929,0,0,1,.44,1.88,3.855,3.855,0,0,1-.488,1.944A3.479,3.479,0,0,1,7.112-.336a3.906,3.906,0,0,1-1.944.48A3.989,3.989,0,0,1,1.864-1.3,6.474,6.474,0,0,1,.7-5.44a8.527,8.527,0,0,1,.544-3.192A4.529,4.529,0,0,1,2.808-10.7a4.03,4.03,0,0,1,2.392-.72,5.426,5.426,0,0,1,1.832.328,4.773,4.773,0,0,1,1.56.888,1.2,1.2,0,0,1,.3.344.87.87,0,0,1,.088.408.926.926,0,0,1-.2.6.592.592,0,0,1-.472.248A.831.831,0,0,1,8-8.664a2.284,2.284,0,0,1-.352-.184A4.3,4.3,0,0,0,5.28-9.776,2.071,2.071,0,0,0,3.44-8.7a5.933,5.933,0,0,0-.7,3.032,2.745,2.745,0,0,1,1.1-1.144A3.241,3.241,0,0,1,5.488-7.232ZM5.056-1.488a1.83,1.83,0,0,0,1.408-.568,2.109,2.109,0,0,0,.528-1.5A2.08,2.08,0,0,0,6.464-5.04,1.844,1.844,0,0,0,5.056-5.6a1.928,1.928,0,0,0-1.448.568,2.034,2.034,0,0,0-.552,1.48,2.055,2.055,0,0,0,.552,1.5A1.928,1.928,0,0,0,5.056-1.488ZM15.12-8.016a3.243,3.243,0,0,1,1.8.512,3.4,3.4,0,0,1,1.232,1.448,5,5,0,0,1,.44,2.152,4.845,4.845,0,0,1-.44,2.128A3.333,3.333,0,0,1,16.928-.368a3.309,3.309,0,0,1-1.808.5,3.1,3.1,0,0,1-1.488-.352A2.47,2.47,0,0,1,12.624-1.2V2.064a.83.83,0,0,1-.272.656,1.048,1.048,0,0,1-.72.24A1.037,1.037,0,0,1,10.9,2.7a.868.868,0,0,1-.28-.672V-7.04a.914.914,0,0,1,.264-.688.979.979,0,0,1,.712-.256,1.008,1.008,0,0,1,.72.256.9.9,0,0,1,.272.688v.4a2.455,2.455,0,0,1,1.016-1.016A3.121,3.121,0,0,1,15.12-8.016Zm-.528,6.592a1.793,1.793,0,0,0,1.472-.648A2.829,2.829,0,0,0,16.592-3.9a2.989,2.989,0,0,0-.528-1.888,1.766,1.766,0,0,0-1.472-.672,1.779,1.779,0,0,0-1.48.656,2.952,2.952,0,0,0-.52,1.872,2.923,2.923,0,0,0,.52,1.856A1.779,1.779,0,0,0,14.592-1.424Zm12.256-.048a.9.9,0,0,1,.288.656.885.885,0,0,1-.272.632.864.864,0,0,1-.64.28.878.878,0,0,1-.688-.336l-2.256-2.5L21.024-.24a.928.928,0,0,1-.688.32.858.858,0,0,1-.624-.272.858.858,0,0,1-.272-.624.9.9,0,0,1,.288-.656l2.336-2.544-2.208-2.4a.9.9,0,0,1-.288-.656A.85.85,0,0,1,19.84-7.7a.871.871,0,0,1,.624-.264.928.928,0,0,1,.688.32L23.28-5.312l2.128-2.336a.928.928,0,0,1,.688-.32.862.862,0,0,1,.632.264.862.862,0,0,1,.264.632.9.9,0,0,1-.288.656L24.5-4.016Z" transform="translate(918 4902)" fill="#38485c"/>
      <path id="Trazado_27874" data-name="Trazado 27874" d="M5.488-7.232a3.5,3.5,0,0,1,1.792.456A3.181,3.181,0,0,1,8.5-5.5a3.929,3.929,0,0,1,.44,1.88,3.855,3.855,0,0,1-.488,1.944A3.479,3.479,0,0,1,7.112-.336a3.906,3.906,0,0,1-1.944.48A3.989,3.989,0,0,1,1.864-1.3,6.474,6.474,0,0,1,.7-5.44a8.527,8.527,0,0,1,.544-3.192A4.529,4.529,0,0,1,2.808-10.7a4.03,4.03,0,0,1,2.392-.72,5.426,5.426,0,0,1,1.832.328,4.773,4.773,0,0,1,1.56.888,1.2,1.2,0,0,1,.3.344.87.87,0,0,1,.088.408.926.926,0,0,1-.2.6.592.592,0,0,1-.472.248A.831.831,0,0,1,8-8.664a2.284,2.284,0,0,1-.352-.184A4.3,4.3,0,0,0,5.28-9.776,2.071,2.071,0,0,0,3.44-8.7a5.933,5.933,0,0,0-.7,3.032,2.745,2.745,0,0,1,1.1-1.144A3.241,3.241,0,0,1,5.488-7.232ZM5.056-1.488a1.83,1.83,0,0,0,1.408-.568,2.109,2.109,0,0,0,.528-1.5A2.08,2.08,0,0,0,6.464-5.04,1.844,1.844,0,0,0,5.056-5.6a1.928,1.928,0,0,0-1.448.568,2.034,2.034,0,0,0-.552,1.48,2.055,2.055,0,0,0,.552,1.5A1.928,1.928,0,0,0,5.056-1.488ZM15.12-8.016a3.243,3.243,0,0,1,1.8.512,3.4,3.4,0,0,1,1.232,1.448,5,5,0,0,1,.44,2.152,4.845,4.845,0,0,1-.44,2.128A3.333,3.333,0,0,1,16.928-.368a3.309,3.309,0,0,1-1.808.5,3.1,3.1,0,0,1-1.488-.352A2.47,2.47,0,0,1,12.624-1.2V2.064a.83.83,0,0,1-.272.656,1.048,1.048,0,0,1-.72.24A1.037,1.037,0,0,1,10.9,2.7a.868.868,0,0,1-.28-.672V-7.04a.914.914,0,0,1,.264-.688.979.979,0,0,1,.712-.256,1.008,1.008,0,0,1,.72.256.9.9,0,0,1,.272.688v.4a2.455,2.455,0,0,1,1.016-1.016A3.121,3.121,0,0,1,15.12-8.016Zm-.528,6.592a1.793,1.793,0,0,0,1.472-.648A2.829,2.829,0,0,0,16.592-3.9a2.989,2.989,0,0,0-.528-1.888,1.766,1.766,0,0,0-1.472-.672,1.779,1.779,0,0,0-1.48.656,2.952,2.952,0,0,0-.52,1.872,2.923,2.923,0,0,0,.52,1.856A1.779,1.779,0,0,0,14.592-1.424Zm12.256-.048a.9.9,0,0,1,.288.656.885.885,0,0,1-.272.632.864.864,0,0,1-.64.28.878.878,0,0,1-.688-.336l-2.256-2.5L21.024-.24a.928.928,0,0,1-.688.32.858.858,0,0,1-.624-.272.858.858,0,0,1-.272-.624.9.9,0,0,1,.288-.656l2.336-2.544-2.208-2.4a.9.9,0,0,1-.288-.656A.85.85,0,0,1,19.84-7.7a.871.871,0,0,1,.624-.264.928.928,0,0,1,.688.32L23.28-5.312l2.128-2.336a.928.928,0,0,1,.688-.32.862.862,0,0,1,.632.264.862.862,0,0,1,.264.632.9.9,0,0,1-.288.656L24.5-4.016Z" transform="translate(918 4934)" fill="#38485c"/>
      <rect id="Rectángulo_3061-5" data-name="Rectángulo 3061" width="70" height="34" rx="4" transform="translate(832 4896)" fill="#e1e6ec"/>
      <path id="Trazado_27885" data-name="Trazado 27885" d="M-21.77-11.422h3.391a6.435,6.435,0,0,1,3.41.688,2.407,2.407,0,0,1,1.051,2.172A2.632,2.632,0,0,1-14.434-6.9a2.306,2.306,0,0,1-1.484.836v.078a2.947,2.947,0,0,1,1.77.895,2.706,2.706,0,0,1,.566,1.809,2.932,2.932,0,0,1-1.074,2.41A4.621,4.621,0,0,1-17.645,0H-21.77ZM-19.9-6.7h1.8a3.077,3.077,0,0,0,1.711-.371,1.421,1.421,0,0,0,.539-1.262A1.264,1.264,0,0,0-16.437-9.5a3.635,3.635,0,0,0-1.848-.359H-19.9Zm0,1.516V-1.57h1.984a2.921,2.921,0,0,0,1.77-.449,1.658,1.658,0,0,0,.6-1.418,1.506,1.506,0,0,0-.609-1.32,3.229,3.229,0,0,0-1.852-.43Zm16.164.852a4.716,4.716,0,0,1-1.086,3.3A3.891,3.891,0,0,1-7.848.156,4.143,4.143,0,0,1-9.988-.391a3.61,3.61,0,0,1-1.43-1.57,5.348,5.348,0,0,1-.5-2.375A4.684,4.684,0,0,1-10.84-7.617,3.909,3.909,0,0,1-7.8-8.8,3.807,3.807,0,0,1-4.832-7.59,4.663,4.663,0,0,1-3.738-4.336Zm-6.289,0q0,2.992,2.211,2.992,2.187,0,2.188-2.992,0-2.961-2.2-2.961a1.879,1.879,0,0,0-1.676.766A3.9,3.9,0,0,0-10.027-4.336ZM1.59-1.328a4.465,4.465,0,0,0,1.344-.211V-.156a3.706,3.706,0,0,1-.785.223,5.409,5.409,0,0,1-1,.09q-2.609,0-2.609-2.75V-7.25h-1.18v-.812l1.266-.672.625-1.828H.387v1.922H2.848V-7.25H.387v4.625a1.3,1.3,0,0,0,.332.98A1.21,1.21,0,0,0,1.59-1.328ZM12.324-4.336a4.716,4.716,0,0,1-1.086,3.3A3.891,3.891,0,0,1,8.215.156,4.143,4.143,0,0,1,6.074-.391a3.61,3.61,0,0,1-1.43-1.57,5.348,5.348,0,0,1-.5-2.375A4.684,4.684,0,0,1,5.223-7.617,3.909,3.909,0,0,1,8.262-8.8,3.807,3.807,0,0,1,11.23-7.59,4.663,4.663,0,0,1,12.324-4.336Zm-6.289,0q0,2.992,2.211,2.992,2.187,0,2.188-2.992,0-2.961-2.2-2.961a1.879,1.879,0,0,0-1.676.766A3.9,3.9,0,0,0,6.035-4.336ZM7.043-9.7v-.2q.445-.547.918-1.219t.746-1.148H10.84v.164a16.042,16.042,0,0,1-1.215,1.23A17.129,17.129,0,0,1,8.262-9.7ZM22.035,0H20.191V-5.312a2.325,2.325,0,0,0-.4-1.492A1.555,1.555,0,0,0,18.512-7.3a2.031,2.031,0,0,0-1.7.688,3.8,3.8,0,0,0-.539,2.3V0H14.434V-8.641h1.438l.258,1.133h.094a2.556,2.556,0,0,1,1.109-.953A3.718,3.718,0,0,1,18.926-8.8q3.109,0,3.109,3.164Z" transform="translate(867 4919)" fill="#949ea9"/>
      <g id="Grupo_18117-2" data-name="Grupo 18117" transform="translate(832 4896.075)">
        <rect id="Rectángulo_3425-9" data-name="Rectángulo 3425" width="10.692" height="70" transform="translate(70 -0.025) rotate(90)" fill="#007bc7" opacity="0.24"/>
        <path id="Trazado_4669-9" data-name="Trazado 4669" d="M0,70V0" transform="translate(69.998 10.617) rotate(90)" fill="none" stroke="#007bc7" stroke-width="1" stroke-dasharray="5 2"/>
        <path id="Trazado_23809-9" data-name="Trazado 23809" d="M0,70V0" transform="translate(69.998 -0.075) rotate(90)" fill="none" stroke="#007bc7" stroke-width="1" stroke-dasharray="5 2"/>
        <path id="Trazado_4670-9" data-name="Trazado 4670" transform="translate(69.998 -0.025) rotate(90)" fill="none" stroke="#007bc7" stroke-width="1" stroke-dasharray="5 2"/>
      </g>
      <g id="Grupo_21010" data-name="Grupo 21010" transform="translate(832 4919.333)">
        <rect id="Rectángulo_3425-10" data-name="Rectángulo 3425" width="10.692" height="70" transform="translate(70 -0.025) rotate(90)" fill="#007bc7" opacity="0.24"/>
        <path id="Trazado_4669-10" data-name="Trazado 4669" d="M0,70V0" transform="translate(69.998 10.617) rotate(90)" fill="none" stroke="#007bc7" stroke-width="1" stroke-dasharray="5 2"/>
        <path id="Trazado_23809-10" data-name="Trazado 23809" d="M0,70V0" transform="translate(69.998 -0.075) rotate(90)" fill="none" stroke="#007bc7" stroke-width="1" stroke-dasharray="5 2"/>
        <path id="Trazado_4670-10" data-name="Trazado 4670" transform="translate(69.998 -0.025) rotate(90)" fill="none" stroke="#007bc7" stroke-width="1" stroke-dasharray="5 2"/>
      </g>
    </g>
    <g id="Grupo_21015" data-name="Grupo 21015" transform="translate(0 -255)">
      <path id="Trazado_27876" data-name="Trazado 27876" d="M8.016-1.664q.96,0,.96.816,0,.848-.96.848H2.608q-.976,0-.976-.848,0-.816.976-.816H4.272v-7.3l-1.536.944a.827.827,0,0,1-.4.128.7.7,0,0,1-.568-.288,1,1,0,0,1-.232-.64.8.8,0,0,1,.416-.72l2.48-1.536a1.782,1.782,0,0,1,.912-.288.973.973,0,0,1,.72.272,1.016,1.016,0,0,1,.272.752v8.672Zm9.536,0q.96,0,.96.816,0,.848-.96.848h-6.08a.87.87,0,0,1-.656-.248.851.851,0,0,1-.24-.616,1.218,1.218,0,0,1,.368-.864l3.648-3.92A6.316,6.316,0,0,0,15.576-7a2.691,2.691,0,0,0,.312-1.224,1.492,1.492,0,0,0-.432-1.152,1.748,1.748,0,0,0-1.232-.4,3.376,3.376,0,0,0-1.272.248,6.362,6.362,0,0,0-1.24.68,1.968,1.968,0,0,1-.32.184.774.774,0,0,1-.32.072.587.587,0,0,1-.472-.256.958.958,0,0,1-.2-.608.92.92,0,0,1,.088-.416,1.068,1.068,0,0,1,.28-.336,5.545,5.545,0,0,1,1.648-.888,5.721,5.721,0,0,1,1.888-.328,3.942,3.942,0,0,1,2.632.832,2.782,2.782,0,0,1,.984,2.24A4.136,4.136,0,0,1,17.5-6.52,8.119,8.119,0,0,1,16.1-4.608L13.328-1.664ZM24.72-8.016a3.243,3.243,0,0,1,1.8.512,3.4,3.4,0,0,1,1.232,1.448,5,5,0,0,1,.44,2.152,4.845,4.845,0,0,1-.44,2.128A3.333,3.333,0,0,1,26.528-.368a3.309,3.309,0,0,1-1.808.5,3.1,3.1,0,0,1-1.488-.352A2.47,2.47,0,0,1,22.224-1.2V2.064a.83.83,0,0,1-.272.656,1.048,1.048,0,0,1-.72.24A1.037,1.037,0,0,1,20.5,2.7a.868.868,0,0,1-.28-.672V-7.04a.914.914,0,0,1,.264-.688.979.979,0,0,1,.712-.256,1.008,1.008,0,0,1,.72.256.9.9,0,0,1,.272.688v.4a2.455,2.455,0,0,1,1.016-1.016A3.121,3.121,0,0,1,24.72-8.016Zm-.528,6.592a1.793,1.793,0,0,0,1.472-.648A2.829,2.829,0,0,0,26.192-3.9a2.989,2.989,0,0,0-.528-1.888,1.766,1.766,0,0,0-1.472-.672,1.779,1.779,0,0,0-1.48.656,2.952,2.952,0,0,0-.52,1.872,2.923,2.923,0,0,0,.52,1.856A1.779,1.779,0,0,0,24.192-1.424Zm12.256-.048a.9.9,0,0,1,.288.656.885.885,0,0,1-.272.632.864.864,0,0,1-.64.28.878.878,0,0,1-.688-.336l-2.256-2.5L30.624-.24a.928.928,0,0,1-.688.32.858.858,0,0,1-.624-.272.858.858,0,0,1-.272-.624.9.9,0,0,1,.288-.656l2.336-2.544-2.208-2.4a.9.9,0,0,1-.288-.656A.85.85,0,0,1,29.44-7.7a.871.871,0,0,1,.624-.264.928.928,0,0,1,.688.32L32.88-5.312l2.128-2.336a.928.928,0,0,1,.688-.32.862.862,0,0,1,.632.264.862.862,0,0,1,.264.632.9.9,0,0,1-.288.656L34.1-4.016Z" transform="translate(1061.464 4950)" fill="#38485c"/>
      <path id="Trazado_27875" data-name="Trazado 27875" d="M8.016-1.664q.96,0,.96.816,0,.848-.96.848H2.608q-.976,0-.976-.848,0-.816.976-.816H4.272v-7.3l-1.536.944a.827.827,0,0,1-.4.128.7.7,0,0,1-.568-.288,1,1,0,0,1-.232-.64.8.8,0,0,1,.416-.72l2.48-1.536a1.782,1.782,0,0,1,.912-.288.973.973,0,0,1,.72.272,1.016,1.016,0,0,1,.272.752v8.672Zm9.536,0q.96,0,.96.816,0,.848-.96.848h-6.08a.87.87,0,0,1-.656-.248.851.851,0,0,1-.24-.616,1.218,1.218,0,0,1,.368-.864l3.648-3.92A6.316,6.316,0,0,0,15.576-7a2.691,2.691,0,0,0,.312-1.224,1.492,1.492,0,0,0-.432-1.152,1.748,1.748,0,0,0-1.232-.4,3.376,3.376,0,0,0-1.272.248,6.362,6.362,0,0,0-1.24.68,1.968,1.968,0,0,1-.32.184.774.774,0,0,1-.32.072.587.587,0,0,1-.472-.256.958.958,0,0,1-.2-.608.92.92,0,0,1,.088-.416,1.068,1.068,0,0,1,.28-.336,5.545,5.545,0,0,1,1.648-.888,5.721,5.721,0,0,1,1.888-.328,3.942,3.942,0,0,1,2.632.832,2.782,2.782,0,0,1,.984,2.24A4.136,4.136,0,0,1,17.5-6.52,8.119,8.119,0,0,1,16.1-4.608L13.328-1.664ZM24.72-8.016a3.243,3.243,0,0,1,1.8.512,3.4,3.4,0,0,1,1.232,1.448,5,5,0,0,1,.44,2.152,4.845,4.845,0,0,1-.44,2.128A3.333,3.333,0,0,1,26.528-.368a3.309,3.309,0,0,1-1.808.5,3.1,3.1,0,0,1-1.488-.352A2.47,2.47,0,0,1,22.224-1.2V2.064a.83.83,0,0,1-.272.656,1.048,1.048,0,0,1-.72.24A1.037,1.037,0,0,1,20.5,2.7a.868.868,0,0,1-.28-.672V-7.04a.914.914,0,0,1,.264-.688.979.979,0,0,1,.712-.256,1.008,1.008,0,0,1,.72.256.9.9,0,0,1,.272.688v.4a2.455,2.455,0,0,1,1.016-1.016A3.121,3.121,0,0,1,24.72-8.016Zm-.528,6.592a1.793,1.793,0,0,0,1.472-.648A2.829,2.829,0,0,0,26.192-3.9a2.989,2.989,0,0,0-.528-1.888,1.766,1.766,0,0,0-1.472-.672,1.779,1.779,0,0,0-1.48.656,2.952,2.952,0,0,0-.52,1.872,2.923,2.923,0,0,0,.52,1.856A1.779,1.779,0,0,0,24.192-1.424Zm12.256-.048a.9.9,0,0,1,.288.656.885.885,0,0,1-.272.632.864.864,0,0,1-.64.28.878.878,0,0,1-.688-.336l-2.256-2.5L30.624-.24a.928.928,0,0,1-.688.32.858.858,0,0,1-.624-.272.858.858,0,0,1-.272-.624.9.9,0,0,1,.288-.656l2.336-2.544-2.208-2.4a.9.9,0,0,1-.288-.656A.85.85,0,0,1,29.44-7.7a.871.871,0,0,1,.624-.264.928.928,0,0,1,.688.32L32.88-5.312l2.128-2.336a.928.928,0,0,1,.688-.32.862.862,0,0,1,.632.264.862.862,0,0,1,.264.632.9.9,0,0,1-.288.656L34.1-4.016Z" transform="translate(1004.264 4883)" fill="#38485c"/>
      <g id="Grupo_21013" data-name="Grupo 21013">
        <rect id="Rectángulo_18476" data-name="Rectángulo 18476" width="70" height="34" rx="4" transform="translate(1006 4896)" fill="#e1e6ec"/>
        <path id="Trazado_27886" data-name="Trazado 27886" d="M-21.77-11.422h3.391a6.435,6.435,0,0,1,3.41.688,2.407,2.407,0,0,1,1.051,2.172A2.632,2.632,0,0,1-14.434-6.9a2.306,2.306,0,0,1-1.484.836v.078a2.947,2.947,0,0,1,1.77.895,2.706,2.706,0,0,1,.566,1.809,2.932,2.932,0,0,1-1.074,2.41A4.621,4.621,0,0,1-17.645,0H-21.77ZM-19.9-6.7h1.8a3.077,3.077,0,0,0,1.711-.371,1.421,1.421,0,0,0,.539-1.262A1.264,1.264,0,0,0-16.437-9.5a3.635,3.635,0,0,0-1.848-.359H-19.9Zm0,1.516V-1.57h1.984a2.921,2.921,0,0,0,1.77-.449,1.658,1.658,0,0,0,.6-1.418,1.506,1.506,0,0,0-.609-1.32,3.229,3.229,0,0,0-1.852-.43Zm16.164.852a4.716,4.716,0,0,1-1.086,3.3A3.891,3.891,0,0,1-7.848.156,4.143,4.143,0,0,1-9.988-.391a3.61,3.61,0,0,1-1.43-1.57,5.348,5.348,0,0,1-.5-2.375A4.684,4.684,0,0,1-10.84-7.617,3.909,3.909,0,0,1-7.8-8.8,3.807,3.807,0,0,1-4.832-7.59,4.663,4.663,0,0,1-3.738-4.336Zm-6.289,0q0,2.992,2.211,2.992,2.187,0,2.188-2.992,0-2.961-2.2-2.961a1.879,1.879,0,0,0-1.676.766A3.9,3.9,0,0,0-10.027-4.336ZM1.59-1.328a4.465,4.465,0,0,0,1.344-.211V-.156a3.706,3.706,0,0,1-.785.223,5.409,5.409,0,0,1-1,.09q-2.609,0-2.609-2.75V-7.25h-1.18v-.812l1.266-.672.625-1.828H.387v1.922H2.848V-7.25H.387v4.625a1.3,1.3,0,0,0,.332.98A1.21,1.21,0,0,0,1.59-1.328ZM12.324-4.336a4.716,4.716,0,0,1-1.086,3.3A3.891,3.891,0,0,1,8.215.156,4.143,4.143,0,0,1,6.074-.391a3.61,3.61,0,0,1-1.43-1.57,5.348,5.348,0,0,1-.5-2.375A4.684,4.684,0,0,1,5.223-7.617,3.909,3.909,0,0,1,8.262-8.8,3.807,3.807,0,0,1,11.23-7.59,4.663,4.663,0,0,1,12.324-4.336Zm-6.289,0q0,2.992,2.211,2.992,2.187,0,2.188-2.992,0-2.961-2.2-2.961a1.879,1.879,0,0,0-1.676.766A3.9,3.9,0,0,0,6.035-4.336ZM7.043-9.7v-.2q.445-.547.918-1.219t.746-1.148H10.84v.164a16.042,16.042,0,0,1-1.215,1.23A17.129,17.129,0,0,1,8.262-9.7ZM22.035,0H20.191V-5.312a2.325,2.325,0,0,0-.4-1.492A1.555,1.555,0,0,0,18.512-7.3a2.031,2.031,0,0,0-1.7.688,3.8,3.8,0,0,0-.539,2.3V0H14.434V-8.641h1.438l.258,1.133h.094a2.556,2.556,0,0,1,1.109-.953A3.718,3.718,0,0,1,18.926-8.8q3.109,0,3.109,3.164Z" transform="translate(1041 4919)" fill="#949ea9"/>
      </g>
      <g id="Grupo_18147-2" data-name="Grupo 18147" transform="translate(1018 4896) rotate(90)">
        <rect id="Rectángulo_3425-11" data-name="Rectángulo 3425" width="11.944" height="34" transform="translate(34 0.056) rotate(90)" fill="#007bc7" opacity="0.24"/>
        <path id="Trazado_4669-11" data-name="Trazado 4669" d="M0,34V0" transform="translate(33.999 11.944) rotate(90)" fill="none" stroke="#007bc7" stroke-width="1" stroke-dasharray="5 2"/>
        <path id="Trazado_23809-11" data-name="Trazado 23809" d="M0,34V0" transform="translate(33.999 0) rotate(90)" fill="none" stroke="#007bc7" stroke-width="1" stroke-dasharray="5 2"/>
        <path id="Trazado_4670-11" data-name="Trazado 4670" transform="translate(33.999 0.056) rotate(90)" fill="none" stroke="#007bc7" stroke-width="1" stroke-dasharray="5 2"/>
      </g>
      <g id="Grupo_21014" data-name="Grupo 21014" transform="translate(1075 4896) rotate(90)">
        <rect id="Rectángulo_3425-12" data-name="Rectángulo 3425" width="11.944" height="34" transform="translate(34 0.056) rotate(90)" fill="#007bc7" opacity="0.24"/>
        <path id="Trazado_4669-12" data-name="Trazado 4669" d="M0,34V0" transform="translate(33.999 11.944) rotate(90)" fill="none" stroke="#007bc7" stroke-width="1" stroke-dasharray="5 2"/>
        <path id="Trazado_23809-12" data-name="Trazado 23809" d="M0,34V0" transform="translate(33.999 0) rotate(90)" fill="none" stroke="#007bc7" stroke-width="1" stroke-dasharray="5 2"/>
        <path id="Trazado_4670-12" data-name="Trazado 4670" transform="translate(33.999 0.056) rotate(90)" fill="none" stroke="#007bc7" stroke-width="1" stroke-dasharray="5 2"/>
      </g>
    </g>
    <g id="Grupo_21022" data-name="Grupo 21022" transform="translate(782 4927.075)">
      <rect id="Rectángulo_3425-13" data-name="Rectángulo 3425" width="16" height="328" transform="translate(328) rotate(90)" fill="#007bc7" opacity="0.24"/>
      <path id="Trazado_4669-13" data-name="Trazado 4669" d="M0,327.992V0" transform="translate(327.992 15.925) rotate(90)" fill="none" stroke="#007bc7" stroke-width="1" stroke-dasharray="5 2"/>
      <path id="Trazado_23809-13" data-name="Trazado 23809" d="M0,327.992V0" transform="translate(327.992 -0.075) rotate(90)" fill="none" stroke="#007bc7" stroke-width="1" stroke-dasharray="5 2"/>
      <path id="Trazado_4670-13" data-name="Trazado 4670" transform="translate(327.992) rotate(90)" fill="none" stroke="#007bc7" stroke-width="1" stroke-dasharray="5 2"/>
    </g>
    <g id="Grupo_21023" data-name="Grupo 21023" transform="translate(782 4959)">
      <rect id="Rectángulo_3425-14" data-name="Rectángulo 3425" width="16" height="328" transform="translate(328) rotate(90)" fill="#007bc7" opacity="0.24"/>
      <path id="Trazado_4669-14" data-name="Trazado 4669" d="M0,327.992V0" transform="translate(327.992 15.925) rotate(90)" fill="none" stroke="#007bc7" stroke-width="1" stroke-dasharray="5 2"/>
      <path id="Trazado_23809-14" data-name="Trazado 23809" d="M0,327.992V0" transform="translate(327.992 -0.075) rotate(90)" fill="none" stroke="#007bc7" stroke-width="1" stroke-dasharray="5 2"/>
      <path id="Trazado_4670-14" data-name="Trazado 4670" transform="translate(327.992) rotate(90)" fill="none" stroke="#007bc7" stroke-width="1" stroke-dasharray="5 2"/>
    </g>
    <g id="Grupo_21024" data-name="Grupo 21024" transform="translate(782.076 4975) rotate(-90)">
      <rect id="Rectángulo_3425-15" data-name="Rectángulo 3425" width="16" height="48" transform="translate(48) rotate(90)" fill="#007bc7" opacity="0.24"/>
      <path id="Trazado_4669-15" data-name="Trazado 4669" d="M0,48V0" transform="translate(47.999 15.925) rotate(90)" fill="none" stroke="#007bc7" stroke-width="1" stroke-dasharray="5 2"/>
      <path id="Trazado_23809-15" data-name="Trazado 23809" d="M0,48V0" transform="translate(47.999 -0.075) rotate(90)" fill="none" stroke="#007bc7" stroke-width="1" stroke-dasharray="5 2"/>
      <path id="Trazado_4670-15" data-name="Trazado 4670" transform="translate(47.999) rotate(90)" fill="none" stroke="#007bc7" stroke-width="1" stroke-dasharray="5 2"/>
    </g>
    <g id="Grupo_21025" data-name="Grupo 21025" transform="translate(1093.877 4975) rotate(-90)">
      <rect id="Rectángulo_3425-16" data-name="Rectángulo 3425" width="16" height="48" transform="translate(48) rotate(90)" fill="#007bc7" opacity="0.24"/>
      <path id="Trazado_4669-16" data-name="Trazado 4669" d="M0,48V0" transform="translate(47.999 15.925) rotate(90)" fill="none" stroke="#007bc7" stroke-width="1" stroke-dasharray="5 2"/>
      <path id="Trazado_23809-16" data-name="Trazado 23809" d="M0,48V0" transform="translate(47.999 -0.075) rotate(90)" fill="none" stroke="#007bc7" stroke-width="1" stroke-dasharray="5 2"/>
      <path id="Trazado_4670-16" data-name="Trazado 4670" transform="translate(47.999) rotate(90)" fill="none" stroke="#007bc7" stroke-width="1" stroke-dasharray="5 2"/>
    </g>
    <path id="Trazado_27889" data-name="Trazado 27889" d="M8.016-1.664q.96,0,.96.816,0,.848-.96.848H2.608q-.976,0-.976-.848,0-.816.976-.816H4.272v-7.3l-1.536.944a.827.827,0,0,1-.4.128.7.7,0,0,1-.568-.288,1,1,0,0,1-.232-.64.8.8,0,0,1,.416-.72l2.48-1.536a1.782,1.782,0,0,1,.912-.288.973.973,0,0,1,.72.272,1.016,1.016,0,0,1,.272.752v8.672Zm7.056-5.568a3.5,3.5,0,0,1,1.792.456A3.181,3.181,0,0,1,18.088-5.5a3.929,3.929,0,0,1,.44,1.88,3.855,3.855,0,0,1-.488,1.944A3.479,3.479,0,0,1,16.7-.336a3.906,3.906,0,0,1-1.944.48,3.989,3.989,0,0,1-3.3-1.448,6.474,6.474,0,0,1-1.16-4.136,8.527,8.527,0,0,1,.544-3.192,4.529,4.529,0,0,1,1.56-2.072,4.03,4.03,0,0,1,2.392-.72,5.426,5.426,0,0,1,1.832.328,4.773,4.773,0,0,1,1.56.888,1.2,1.2,0,0,1,.3.344.87.87,0,0,1,.088.408.926.926,0,0,1-.2.6.592.592,0,0,1-.472.248.831.831,0,0,1-.3-.056,2.284,2.284,0,0,1-.352-.184,4.3,4.3,0,0,0-2.368-.928,2.071,2.071,0,0,0-1.84,1.08,5.933,5.933,0,0,0-.7,3.032,2.745,2.745,0,0,1,1.1-1.144A3.241,3.241,0,0,1,15.072-7.232ZM14.64-1.488a1.83,1.83,0,0,0,1.408-.568,2.109,2.109,0,0,0,.528-1.5,2.08,2.08,0,0,0-.528-1.488A1.844,1.844,0,0,0,14.64-5.6a1.928,1.928,0,0,0-1.448.568,2.034,2.034,0,0,0-.552,1.48,2.055,2.055,0,0,0,.552,1.5A1.928,1.928,0,0,0,14.64-1.488ZM24.7-8.016a3.243,3.243,0,0,1,1.8.512,3.4,3.4,0,0,1,1.232,1.448,5,5,0,0,1,.44,2.152,4.845,4.845,0,0,1-.44,2.128A3.333,3.333,0,0,1,26.512-.368a3.309,3.309,0,0,1-1.808.5,3.1,3.1,0,0,1-1.488-.352A2.47,2.47,0,0,1,22.208-1.2V2.064a.83.83,0,0,1-.272.656,1.048,1.048,0,0,1-.72.24,1.037,1.037,0,0,1-.728-.256.868.868,0,0,1-.28-.672V-7.04a.914.914,0,0,1,.264-.688.979.979,0,0,1,.712-.256,1.008,1.008,0,0,1,.72.256.9.9,0,0,1,.272.688v.4a2.455,2.455,0,0,1,1.016-1.016A3.121,3.121,0,0,1,24.7-8.016Zm-.528,6.592a1.793,1.793,0,0,0,1.472-.648A2.829,2.829,0,0,0,26.176-3.9a2.989,2.989,0,0,0-.528-1.888,1.766,1.766,0,0,0-1.472-.672,1.779,1.779,0,0,0-1.48.656,2.952,2.952,0,0,0-.52,1.872A2.923,2.923,0,0,0,22.7-2.08,1.779,1.779,0,0,0,24.176-1.424Zm12.256-.048a.9.9,0,0,1,.288.656.885.885,0,0,1-.272.632.864.864,0,0,1-.64.28A.878.878,0,0,1,35.12-.24l-2.256-2.5L30.608-.24a.928.928,0,0,1-.688.32A.858.858,0,0,1,29.3-.192a.858.858,0,0,1-.272-.624.9.9,0,0,1,.288-.656l2.336-2.544-2.208-2.4a.9.9,0,0,1-.288-.656.85.85,0,0,1,.272-.632.871.871,0,0,1,.624-.264.928.928,0,0,1,.688.32l2.128,2.336,2.128-2.336a.928.928,0,0,1,.688-.32.862.862,0,0,1,.632.264.862.862,0,0,1,.264.632.9.9,0,0,1-.288.656l-2.208,2.4Z" transform="translate(780.464 4912)" fill="#38485c"/>
    <path id="Trazado_27890" data-name="Trazado 27890" d="M8.016-1.664q.96,0,.96.816,0,.848-.96.848H2.608q-.976,0-.976-.848,0-.816.976-.816H4.272v-7.3l-1.536.944a.827.827,0,0,1-.4.128.7.7,0,0,1-.568-.288,1,1,0,0,1-.232-.64.8.8,0,0,1,.416-.72l2.48-1.536a1.782,1.782,0,0,1,.912-.288.973.973,0,0,1,.72.272,1.016,1.016,0,0,1,.272.752v8.672Zm7.056-5.568a3.5,3.5,0,0,1,1.792.456A3.181,3.181,0,0,1,18.088-5.5a3.929,3.929,0,0,1,.44,1.88,3.855,3.855,0,0,1-.488,1.944A3.479,3.479,0,0,1,16.7-.336a3.906,3.906,0,0,1-1.944.48,3.989,3.989,0,0,1-3.3-1.448,6.474,6.474,0,0,1-1.16-4.136,8.527,8.527,0,0,1,.544-3.192,4.529,4.529,0,0,1,1.56-2.072,4.03,4.03,0,0,1,2.392-.72,5.426,5.426,0,0,1,1.832.328,4.773,4.773,0,0,1,1.56.888,1.2,1.2,0,0,1,.3.344.87.87,0,0,1,.088.408.926.926,0,0,1-.2.6.592.592,0,0,1-.472.248.831.831,0,0,1-.3-.056,2.284,2.284,0,0,1-.352-.184,4.3,4.3,0,0,0-2.368-.928,2.071,2.071,0,0,0-1.84,1.08,5.933,5.933,0,0,0-.7,3.032,2.745,2.745,0,0,1,1.1-1.144A3.241,3.241,0,0,1,15.072-7.232ZM14.64-1.488a1.83,1.83,0,0,0,1.408-.568,2.109,2.109,0,0,0,.528-1.5,2.08,2.08,0,0,0-.528-1.488A1.844,1.844,0,0,0,14.64-5.6a1.928,1.928,0,0,0-1.448.568,2.034,2.034,0,0,0-.552,1.48,2.055,2.055,0,0,0,.552,1.5A1.928,1.928,0,0,0,14.64-1.488ZM24.7-8.016a3.243,3.243,0,0,1,1.8.512,3.4,3.4,0,0,1,1.232,1.448,5,5,0,0,1,.44,2.152,4.845,4.845,0,0,1-.44,2.128A3.333,3.333,0,0,1,26.512-.368a3.309,3.309,0,0,1-1.808.5,3.1,3.1,0,0,1-1.488-.352A2.47,2.47,0,0,1,22.208-1.2V2.064a.83.83,0,0,1-.272.656,1.048,1.048,0,0,1-.72.24,1.037,1.037,0,0,1-.728-.256.868.868,0,0,1-.28-.672V-7.04a.914.914,0,0,1,.264-.688.979.979,0,0,1,.712-.256,1.008,1.008,0,0,1,.72.256.9.9,0,0,1,.272.688v.4a2.455,2.455,0,0,1,1.016-1.016A3.121,3.121,0,0,1,24.7-8.016Zm-.528,6.592a1.793,1.793,0,0,0,1.472-.648A2.829,2.829,0,0,0,26.176-3.9a2.989,2.989,0,0,0-.528-1.888,1.766,1.766,0,0,0-1.472-.672,1.779,1.779,0,0,0-1.48.656,2.952,2.952,0,0,0-.52,1.872A2.923,2.923,0,0,0,22.7-2.08,1.779,1.779,0,0,0,24.176-1.424Zm12.256-.048a.9.9,0,0,1,.288.656.885.885,0,0,1-.272.632.864.864,0,0,1-.64.28A.878.878,0,0,1,35.12-.24l-2.256-2.5L30.608-.24a.928.928,0,0,1-.688.32A.858.858,0,0,1,29.3-.192a.858.858,0,0,1-.272-.624.9.9,0,0,1,.288-.656l2.336-2.544-2.208-2.4a.9.9,0,0,1-.288-.656.85.85,0,0,1,.272-.632.871.871,0,0,1,.624-.264.928.928,0,0,1,.688.32l2.128,2.336,2.128-2.336a.928.928,0,0,1,.688-.32.862.862,0,0,1,.632.264.862.862,0,0,1,.264.632.9.9,0,0,1-.288.656l-2.208,2.4Z" transform="translate(1072.464 4998.424)" fill="#38485c"/>
  </g>
</svg>
