<svg xmlns="http://www.w3.org/2000/svg" width="712" height="193" viewBox="0 0 712 193">
  <g id="Group_32476" data-name="Group 32476" transform="translate(11032 18182)">
    <g id="Group_32472" data-name="Group 32472">
      <rect id="Rectangle_26479" data-name="Rectangle 26479" width="712" height="193" rx="8" transform="translate(-11032 -18182)" fill="none"/>
      <g id="Group_32471" data-name="Group 32471" transform="translate(0 3.156)">
        <path id="Path_31957" data-name="Path 31957" d="M5.586,0H4.32V-8.141q0-1.016.063-1.922-.164.164-.367.344T2.156-8.2l-.687-.891,3.023-2.336H5.586Zm9.047-8.867a2.811,2.811,0,0,1-.668,2,2.4,2.4,0,0,1-1.84.715,2.311,2.311,0,0,1-1.8-.727,2.84,2.84,0,0,1-.66-1.984,2.8,2.8,0,0,1,.656-1.98,2.381,2.381,0,0,1,1.836-.707,2.346,2.346,0,0,1,1.832.711A2.836,2.836,0,0,1,14.633-8.867Zm-4.016,0a2.38,2.38,0,0,0,.355,1.43,1.362,1.362,0,0,0,1.168.477,1.383,1.383,0,0,0,1.18-.477,2.36,2.36,0,0,0,.359-1.43,2.3,2.3,0,0,0-.359-1.422,1.405,1.405,0,0,0-1.18-.461,1.386,1.386,0,0,0-1.164.461A2.3,2.3,0,0,0,10.617-8.867ZM25.945,0l-.258-1.219h-.062a3.6,3.6,0,0,1-1.277,1.09,3.893,3.893,0,0,1-1.59.285,2.86,2.86,0,0,1-2-.656,2.394,2.394,0,0,1-.723-1.867q0-2.594,4.148-2.719l1.453-.047v-.531a2.171,2.171,0,0,0-.434-1.488,1.783,1.783,0,0,0-1.387-.48,5.65,5.65,0,0,0-2.422.656L21-7.969a6.094,6.094,0,0,1,1.387-.539A6.006,6.006,0,0,1,23.9-8.7a3.262,3.262,0,0,1,2.27.68,2.837,2.837,0,0,1,.738,2.18V0Zm-2.93-.914a2.632,2.632,0,0,0,1.9-.664,2.457,2.457,0,0,0,.691-1.859v-.773l-1.3.055a4.717,4.717,0,0,0-2.23.48A1.449,1.449,0,0,0,21.4-2.352a1.336,1.336,0,0,0,.426,1.07A1.767,1.767,0,0,0,23.016-.914ZM35.438,0V-5.539A2.235,2.235,0,0,0,34.961-7.1a1.941,1.941,0,0,0-1.492-.516,2.461,2.461,0,0,0-1.969.727,3.668,3.668,0,0,0-.625,2.4V0h-1.3V-8.562h1.055l.211,1.172h.063a2.648,2.648,0,0,1,1.117-.98,3.63,3.63,0,0,1,1.6-.348,3.252,3.252,0,0,1,2.328.746,3.175,3.175,0,0,1,.781,2.387V0ZM42.82.156A3.654,3.654,0,0,1,39.941-.988a4.707,4.707,0,0,1-1.02-3.238,4.853,4.853,0,0,1,1.035-3.32,3.727,3.727,0,0,1,2.949-1.172,5.852,5.852,0,0,1,1.234.133,4.066,4.066,0,0,1,.969.313l-.4,1.1a6.1,6.1,0,0,0-.937-.285,4.186,4.186,0,0,0-.9-.113q-2.609,0-2.609,3.328A3.963,3.963,0,0,0,40.9-1.82a2.215,2.215,0,0,0,1.887.844,5.769,5.769,0,0,0,2.2-.461V-.289A4.679,4.679,0,0,1,42.82.156ZM48.313,0h-1.3V-12.156h1.3Zm8.016,0L56.07-1.219h-.062A3.6,3.6,0,0,1,54.73-.129a3.893,3.893,0,0,1-1.59.285,2.86,2.86,0,0,1-2-.656,2.394,2.394,0,0,1-.723-1.867q0-2.594,4.148-2.719l1.453-.047v-.531a2.171,2.171,0,0,0-.434-1.488,1.783,1.783,0,0,0-1.387-.48,5.65,5.65,0,0,0-2.422.656l-.4-.992a6.094,6.094,0,0,1,1.387-.539,6.006,6.006,0,0,1,1.512-.2,3.262,3.262,0,0,1,2.27.68,2.837,2.837,0,0,1,.738,2.18V0ZM53.4-.914a2.632,2.632,0,0,0,1.9-.664,2.457,2.457,0,0,0,.691-1.859v-.773l-1.3.055a4.717,4.717,0,0,0-2.23.48,1.449,1.449,0,0,0-.684,1.324,1.336,1.336,0,0,0,.426,1.07A1.767,1.767,0,0,0,53.4-.914ZM59.242-3.7V-4.883h3.836V-3.7ZM68.727.156A3.934,3.934,0,0,1,65.73-1a4.476,4.476,0,0,1-1.1-3.211A4.964,4.964,0,0,1,65.652-7.5a3.387,3.387,0,0,1,2.738-1.219A3.229,3.229,0,0,1,70.938-7.66a4.057,4.057,0,0,1,.938,2.793v.82h-5.9a3.394,3.394,0,0,0,.762,2.289,2.635,2.635,0,0,0,2.035.781,6.9,6.9,0,0,0,2.734-.578V-.4a6.863,6.863,0,0,1-1.3.426A7.31,7.31,0,0,1,68.727.156Zm-.352-7.789a2.118,2.118,0,0,0-1.645.672A3.1,3.1,0,0,0,66.008-5.1h4.477a2.851,2.851,0,0,0-.547-1.879A1.925,1.925,0,0,0,68.375-7.633ZM79.945,0V-5.539A2.235,2.235,0,0,0,79.469-7.1a1.941,1.941,0,0,0-1.492-.516,2.461,2.461,0,0,0-1.969.727,3.668,3.668,0,0,0-.625,2.4V0h-1.3V-8.562h1.055l.211,1.172h.063a2.648,2.648,0,0,1,1.117-.98,3.63,3.63,0,0,1,1.6-.348,3.252,3.252,0,0,1,2.328.746,3.175,3.175,0,0,1,.781,2.387V0ZM85.2,0h-1.3V-12.156h1.3Zm8.016,0-.258-1.219H92.9a3.6,3.6,0,0,1-1.277,1.09,3.893,3.893,0,0,1-1.59.285,2.86,2.86,0,0,1-2-.656,2.394,2.394,0,0,1-.723-1.867q0-2.594,4.148-2.719l1.453-.047v-.531a2.171,2.171,0,0,0-.434-1.488,1.783,1.783,0,0,0-1.387-.48,5.65,5.65,0,0,0-2.422.656l-.4-.992a6.094,6.094,0,0,1,1.387-.539,6.006,6.006,0,0,1,1.512-.2,3.262,3.262,0,0,1,2.27.68,2.837,2.837,0,0,1,.738,2.18V0Zm-2.93-.914a2.632,2.632,0,0,0,1.9-.664,2.457,2.457,0,0,0,.691-1.859v-.773l-1.3.055a4.717,4.717,0,0,0-2.23.48,1.449,1.449,0,0,0-.684,1.324,1.336,1.336,0,0,0,.426,1.07A1.767,1.767,0,0,0,90.289-.914Zm9.984,1.07A3.654,3.654,0,0,1,97.395-.988a4.707,4.707,0,0,1-1.02-3.238,4.853,4.853,0,0,1,1.035-3.32,3.727,3.727,0,0,1,2.949-1.172,5.852,5.852,0,0,1,1.234.133,4.066,4.066,0,0,1,.969.313l-.4,1.1a6.1,6.1,0,0,0-.937-.285,4.186,4.186,0,0,0-.9-.113q-2.609,0-2.609,3.328a3.963,3.963,0,0,0,.637,2.422,2.215,2.215,0,0,0,1.887.844,5.769,5.769,0,0,0,2.2-.461V-.289A4.679,4.679,0,0,1,100.273.156Zm7.813,0a3.934,3.934,0,0,1-3-1.156,4.476,4.476,0,0,1-1.1-3.211,4.964,4.964,0,0,1,1.02-3.289,3.387,3.387,0,0,1,2.738-1.219A3.229,3.229,0,0,1,110.3-7.66a4.057,4.057,0,0,1,.938,2.793v.82h-5.9a3.394,3.394,0,0,0,.762,2.289,2.635,2.635,0,0,0,2.035.781,6.9,6.9,0,0,0,2.734-.578V-.4a6.863,6.863,0,0,1-1.3.426A7.31,7.31,0,0,1,108.086.156Zm-.352-7.789a2.118,2.118,0,0,0-1.645.672,3.1,3.1,0,0,0-.723,1.859h4.477A2.851,2.851,0,0,0,109.3-6.98,1.925,1.925,0,0,0,107.734-7.633ZM0,1H112.07V2H0Z" transform="translate(-10732 -18129)" fill="#007bc7"/>
        <path id="Path_31958" data-name="Path 31958" d="M8.289,0H.781V-1.117L3.789-4.141A22.149,22.149,0,0,0,5.6-6.125a5.064,5.064,0,0,0,.656-1.156,3.312,3.312,0,0,0,.219-1.211,1.92,1.92,0,0,0-.555-1.449,2.125,2.125,0,0,0-1.539-.535,3.87,3.87,0,0,0-1.348.234,5.372,5.372,0,0,0-1.418.852L.93-10.273a5.265,5.265,0,0,1,3.438-1.312,3.632,3.632,0,0,1,2.523.824A2.835,2.835,0,0,1,7.8-8.547,4.277,4.277,0,0,1,7.2-6.4,13.64,13.64,0,0,1,4.914-3.711l-2.5,2.445V-1.2H8.289Zm6.344-8.867a2.811,2.811,0,0,1-.668,2,2.4,2.4,0,0,1-1.84.715,2.311,2.311,0,0,1-1.8-.727,2.84,2.84,0,0,1-.66-1.984,2.8,2.8,0,0,1,.656-1.98,2.381,2.381,0,0,1,1.836-.707,2.346,2.346,0,0,1,1.832.711A2.836,2.836,0,0,1,14.633-8.867Zm-4.016,0a2.38,2.38,0,0,0,.355,1.43,1.362,1.362,0,0,0,1.168.477,1.383,1.383,0,0,0,1.18-.477,2.36,2.36,0,0,0,.359-1.43,2.3,2.3,0,0,0-.359-1.422,1.405,1.405,0,0,0-1.18-.461,1.386,1.386,0,0,0-1.164.461A2.3,2.3,0,0,0,10.617-8.867ZM25.945,0l-.258-1.219h-.062a3.6,3.6,0,0,1-1.277,1.09,3.893,3.893,0,0,1-1.59.285,2.86,2.86,0,0,1-2-.656,2.394,2.394,0,0,1-.723-1.867q0-2.594,4.148-2.719l1.453-.047v-.531a2.171,2.171,0,0,0-.434-1.488,1.783,1.783,0,0,0-1.387-.48,5.65,5.65,0,0,0-2.422.656L21-7.969a6.094,6.094,0,0,1,1.387-.539A6.006,6.006,0,0,1,23.9-8.7a3.262,3.262,0,0,1,2.27.68,2.837,2.837,0,0,1,.738,2.18V0Zm-2.93-.914a2.632,2.632,0,0,0,1.9-.664,2.457,2.457,0,0,0,.691-1.859v-.773l-1.3.055a4.717,4.717,0,0,0-2.23.48A1.449,1.449,0,0,0,21.4-2.352a1.336,1.336,0,0,0,.426,1.07A1.767,1.767,0,0,0,23.016-.914ZM35.438,0V-5.539A2.235,2.235,0,0,0,34.961-7.1a1.941,1.941,0,0,0-1.492-.516,2.461,2.461,0,0,0-1.969.727,3.668,3.668,0,0,0-.625,2.4V0h-1.3V-8.562h1.055l.211,1.172h.063a2.648,2.648,0,0,1,1.117-.98,3.63,3.63,0,0,1,1.6-.348,3.252,3.252,0,0,1,2.328.746,3.175,3.175,0,0,1,.781,2.387V0ZM42.82.156A3.654,3.654,0,0,1,39.941-.988a4.707,4.707,0,0,1-1.02-3.238,4.853,4.853,0,0,1,1.035-3.32,3.727,3.727,0,0,1,2.949-1.172,5.852,5.852,0,0,1,1.234.133,4.066,4.066,0,0,1,.969.313l-.4,1.1a6.1,6.1,0,0,0-.937-.285,4.186,4.186,0,0,0-.9-.113q-2.609,0-2.609,3.328A3.963,3.963,0,0,0,40.9-1.82a2.215,2.215,0,0,0,1.887.844,5.769,5.769,0,0,0,2.2-.461V-.289A4.679,4.679,0,0,1,42.82.156ZM48.313,0h-1.3V-12.156h1.3Zm8.016,0L56.07-1.219h-.062A3.6,3.6,0,0,1,54.73-.129a3.893,3.893,0,0,1-1.59.285,2.86,2.86,0,0,1-2-.656,2.394,2.394,0,0,1-.723-1.867q0-2.594,4.148-2.719l1.453-.047v-.531a2.171,2.171,0,0,0-.434-1.488,1.783,1.783,0,0,0-1.387-.48,5.65,5.65,0,0,0-2.422.656l-.4-.992a6.094,6.094,0,0,1,1.387-.539,6.006,6.006,0,0,1,1.512-.2,3.262,3.262,0,0,1,2.27.68,2.837,2.837,0,0,1,.738,2.18V0ZM53.4-.914a2.632,2.632,0,0,0,1.9-.664,2.457,2.457,0,0,0,.691-1.859v-.773l-1.3.055a4.717,4.717,0,0,0-2.23.48,1.449,1.449,0,0,0-.684,1.324,1.336,1.336,0,0,0,.426,1.07A1.767,1.767,0,0,0,53.4-.914ZM59.242-3.7V-4.883h3.836V-3.7ZM68.727.156A3.934,3.934,0,0,1,65.73-1a4.476,4.476,0,0,1-1.1-3.211A4.964,4.964,0,0,1,65.652-7.5a3.387,3.387,0,0,1,2.738-1.219A3.229,3.229,0,0,1,70.938-7.66a4.057,4.057,0,0,1,.938,2.793v.82h-5.9a3.394,3.394,0,0,0,.762,2.289,2.635,2.635,0,0,0,2.035.781,6.9,6.9,0,0,0,2.734-.578V-.4a6.863,6.863,0,0,1-1.3.426A7.31,7.31,0,0,1,68.727.156Zm-.352-7.789a2.118,2.118,0,0,0-1.645.672A3.1,3.1,0,0,0,66.008-5.1h4.477a2.851,2.851,0,0,0-.547-1.879A1.925,1.925,0,0,0,68.375-7.633ZM79.945,0V-5.539A2.235,2.235,0,0,0,79.469-7.1a1.941,1.941,0,0,0-1.492-.516,2.461,2.461,0,0,0-1.969.727,3.668,3.668,0,0,0-.625,2.4V0h-1.3V-8.562h1.055l.211,1.172h.063a2.648,2.648,0,0,1,1.117-.98,3.63,3.63,0,0,1,1.6-.348,3.252,3.252,0,0,1,2.328.746,3.175,3.175,0,0,1,.781,2.387V0ZM85.2,0h-1.3V-12.156h1.3Zm8.016,0-.258-1.219H92.9a3.6,3.6,0,0,1-1.277,1.09,3.893,3.893,0,0,1-1.59.285,2.86,2.86,0,0,1-2-.656,2.394,2.394,0,0,1-.723-1.867q0-2.594,4.148-2.719l1.453-.047v-.531a2.171,2.171,0,0,0-.434-1.488,1.783,1.783,0,0,0-1.387-.48,5.65,5.65,0,0,0-2.422.656l-.4-.992a6.094,6.094,0,0,1,1.387-.539,6.006,6.006,0,0,1,1.512-.2,3.262,3.262,0,0,1,2.27.68,2.837,2.837,0,0,1,.738,2.18V0Zm-2.93-.914a2.632,2.632,0,0,0,1.9-.664,2.457,2.457,0,0,0,.691-1.859v-.773l-1.3.055a4.717,4.717,0,0,0-2.23.48,1.449,1.449,0,0,0-.684,1.324,1.336,1.336,0,0,0,.426,1.07A1.767,1.767,0,0,0,90.289-.914Zm9.984,1.07A3.654,3.654,0,0,1,97.395-.988a4.707,4.707,0,0,1-1.02-3.238,4.853,4.853,0,0,1,1.035-3.32,3.727,3.727,0,0,1,2.949-1.172,5.852,5.852,0,0,1,1.234.133,4.066,4.066,0,0,1,.969.313l-.4,1.1a6.1,6.1,0,0,0-.937-.285,4.186,4.186,0,0,0-.9-.113q-2.609,0-2.609,3.328a3.963,3.963,0,0,0,.637,2.422,2.215,2.215,0,0,0,1.887.844,5.769,5.769,0,0,0,2.2-.461V-.289A4.679,4.679,0,0,1,100.273.156Zm7.813,0a3.934,3.934,0,0,1-3-1.156,4.476,4.476,0,0,1-1.1-3.211,4.964,4.964,0,0,1,1.02-3.289,3.387,3.387,0,0,1,2.738-1.219A3.229,3.229,0,0,1,110.3-7.66a4.057,4.057,0,0,1,.938,2.793v.82h-5.9a3.394,3.394,0,0,0,.762,2.289,2.635,2.635,0,0,0,2.035.781,6.9,6.9,0,0,0,2.734-.578V-.4a6.863,6.863,0,0,1-1.3.426A7.31,7.31,0,0,1,108.086.156Zm-.352-7.789a2.118,2.118,0,0,0-1.645.672,3.1,3.1,0,0,0-.723,1.859h4.477A2.851,2.851,0,0,0,109.3-6.98,1.925,1.925,0,0,0,107.734-7.633ZM0,1H112.07V2H0Z" transform="translate(-10732 -18099)" fill="#007bc7"/>
        <path id="Path_31959" data-name="Path 31959" d="M7.859-8.734a2.6,2.6,0,0,1-.613,1.789,3.07,3.07,0,0,1-1.738.93v.063a3.269,3.269,0,0,1,2.039.875,2.575,2.575,0,0,1,.664,1.844A2.991,2.991,0,0,1,7.078-.723,5.152,5.152,0,0,1,3.859.156,9.328,9.328,0,0,1,2.2.02,5.682,5.682,0,0,1,.734-.461V-1.7a7.123,7.123,0,0,0,1.582.559,7.165,7.165,0,0,0,1.59.191q2.961,0,2.961-2.32,0-2.078-3.266-2.078H2.477V-6.461H3.617a3.434,3.434,0,0,0,2.117-.59,1.935,1.935,0,0,0,.781-1.637A1.613,1.613,0,0,0,5.941-10a2.366,2.366,0,0,0-1.559-.477,4.809,4.809,0,0,0-1.414.2,6.328,6.328,0,0,0-1.516.75L.8-10.4a5.471,5.471,0,0,1,1.621-.871,5.892,5.892,0,0,1,1.934-.316,3.951,3.951,0,0,1,2.586.762A2.565,2.565,0,0,1,7.859-8.734Zm6.773-.133a2.811,2.811,0,0,1-.668,2,2.4,2.4,0,0,1-1.84.715,2.311,2.311,0,0,1-1.8-.727,2.84,2.84,0,0,1-.66-1.984,2.8,2.8,0,0,1,.656-1.98,2.381,2.381,0,0,1,1.836-.707,2.346,2.346,0,0,1,1.832.711A2.836,2.836,0,0,1,14.633-8.867Zm-4.016,0a2.38,2.38,0,0,0,.355,1.43,1.362,1.362,0,0,0,1.168.477,1.383,1.383,0,0,0,1.18-.477,2.36,2.36,0,0,0,.359-1.43,2.3,2.3,0,0,0-.359-1.422,1.405,1.405,0,0,0-1.18-.461,1.386,1.386,0,0,0-1.164.461A2.3,2.3,0,0,0,10.617-8.867ZM25.945,0l-.258-1.219h-.062a3.6,3.6,0,0,1-1.277,1.09,3.893,3.893,0,0,1-1.59.285,2.86,2.86,0,0,1-2-.656,2.394,2.394,0,0,1-.723-1.867q0-2.594,4.148-2.719l1.453-.047v-.531a2.171,2.171,0,0,0-.434-1.488,1.783,1.783,0,0,0-1.387-.48,5.65,5.65,0,0,0-2.422.656L21-7.969a6.094,6.094,0,0,1,1.387-.539A6.006,6.006,0,0,1,23.9-8.7a3.262,3.262,0,0,1,2.27.68,2.837,2.837,0,0,1,.738,2.18V0Zm-2.93-.914a2.632,2.632,0,0,0,1.9-.664,2.457,2.457,0,0,0,.691-1.859v-.773l-1.3.055a4.717,4.717,0,0,0-2.23.48A1.449,1.449,0,0,0,21.4-2.352a1.336,1.336,0,0,0,.426,1.07A1.767,1.767,0,0,0,23.016-.914ZM35.438,0V-5.539A2.235,2.235,0,0,0,34.961-7.1a1.941,1.941,0,0,0-1.492-.516,2.461,2.461,0,0,0-1.969.727,3.668,3.668,0,0,0-.625,2.4V0h-1.3V-8.562h1.055l.211,1.172h.063a2.648,2.648,0,0,1,1.117-.98,3.63,3.63,0,0,1,1.6-.348,3.252,3.252,0,0,1,2.328.746,3.175,3.175,0,0,1,.781,2.387V0ZM42.82.156A3.654,3.654,0,0,1,39.941-.988a4.707,4.707,0,0,1-1.02-3.238,4.853,4.853,0,0,1,1.035-3.32,3.727,3.727,0,0,1,2.949-1.172,5.852,5.852,0,0,1,1.234.133,4.066,4.066,0,0,1,.969.313l-.4,1.1a6.1,6.1,0,0,0-.937-.285,4.186,4.186,0,0,0-.9-.113q-2.609,0-2.609,3.328A3.963,3.963,0,0,0,40.9-1.82a2.215,2.215,0,0,0,1.887.844,5.769,5.769,0,0,0,2.2-.461V-.289A4.679,4.679,0,0,1,42.82.156ZM48.313,0h-1.3V-12.156h1.3Zm8.016,0L56.07-1.219h-.062A3.6,3.6,0,0,1,54.73-.129a3.893,3.893,0,0,1-1.59.285,2.86,2.86,0,0,1-2-.656,2.394,2.394,0,0,1-.723-1.867q0-2.594,4.148-2.719l1.453-.047v-.531a2.171,2.171,0,0,0-.434-1.488,1.783,1.783,0,0,0-1.387-.48,5.65,5.65,0,0,0-2.422.656l-.4-.992a6.094,6.094,0,0,1,1.387-.539,6.006,6.006,0,0,1,1.512-.2,3.262,3.262,0,0,1,2.27.68,2.837,2.837,0,0,1,.738,2.18V0ZM53.4-.914a2.632,2.632,0,0,0,1.9-.664,2.457,2.457,0,0,0,.691-1.859v-.773l-1.3.055a4.717,4.717,0,0,0-2.23.48,1.449,1.449,0,0,0-.684,1.324,1.336,1.336,0,0,0,.426,1.07A1.767,1.767,0,0,0,53.4-.914ZM59.242-3.7V-4.883h3.836V-3.7ZM68.727.156A3.934,3.934,0,0,1,65.73-1a4.476,4.476,0,0,1-1.1-3.211A4.964,4.964,0,0,1,65.652-7.5a3.387,3.387,0,0,1,2.738-1.219A3.229,3.229,0,0,1,70.938-7.66a4.057,4.057,0,0,1,.938,2.793v.82h-5.9a3.394,3.394,0,0,0,.762,2.289,2.635,2.635,0,0,0,2.035.781,6.9,6.9,0,0,0,2.734-.578V-.4a6.863,6.863,0,0,1-1.3.426A7.31,7.31,0,0,1,68.727.156Zm-.352-7.789a2.118,2.118,0,0,0-1.645.672A3.1,3.1,0,0,0,66.008-5.1h4.477a2.851,2.851,0,0,0-.547-1.879A1.925,1.925,0,0,0,68.375-7.633ZM79.945,0V-5.539A2.235,2.235,0,0,0,79.469-7.1a1.941,1.941,0,0,0-1.492-.516,2.461,2.461,0,0,0-1.969.727,3.668,3.668,0,0,0-.625,2.4V0h-1.3V-8.562h1.055l.211,1.172h.063a2.648,2.648,0,0,1,1.117-.98,3.63,3.63,0,0,1,1.6-.348,3.252,3.252,0,0,1,2.328.746,3.175,3.175,0,0,1,.781,2.387V0ZM85.2,0h-1.3V-12.156h1.3Zm8.016,0-.258-1.219H92.9a3.6,3.6,0,0,1-1.277,1.09,3.893,3.893,0,0,1-1.59.285,2.86,2.86,0,0,1-2-.656,2.394,2.394,0,0,1-.723-1.867q0-2.594,4.148-2.719l1.453-.047v-.531a2.171,2.171,0,0,0-.434-1.488,1.783,1.783,0,0,0-1.387-.48,5.65,5.65,0,0,0-2.422.656l-.4-.992a6.094,6.094,0,0,1,1.387-.539,6.006,6.006,0,0,1,1.512-.2,3.262,3.262,0,0,1,2.27.68,2.837,2.837,0,0,1,.738,2.18V0Zm-2.93-.914a2.632,2.632,0,0,0,1.9-.664,2.457,2.457,0,0,0,.691-1.859v-.773l-1.3.055a4.717,4.717,0,0,0-2.23.48,1.449,1.449,0,0,0-.684,1.324,1.336,1.336,0,0,0,.426,1.07A1.767,1.767,0,0,0,90.289-.914Zm9.984,1.07A3.654,3.654,0,0,1,97.395-.988a4.707,4.707,0,0,1-1.02-3.238,4.853,4.853,0,0,1,1.035-3.32,3.727,3.727,0,0,1,2.949-1.172,5.852,5.852,0,0,1,1.234.133,4.066,4.066,0,0,1,.969.313l-.4,1.1a6.1,6.1,0,0,0-.937-.285,4.186,4.186,0,0,0-.9-.113q-2.609,0-2.609,3.328a3.963,3.963,0,0,0,.637,2.422,2.215,2.215,0,0,0,1.887.844,5.769,5.769,0,0,0,2.2-.461V-.289A4.679,4.679,0,0,1,100.273.156Zm7.813,0a3.934,3.934,0,0,1-3-1.156,4.476,4.476,0,0,1-1.1-3.211,4.964,4.964,0,0,1,1.02-3.289,3.387,3.387,0,0,1,2.738-1.219A3.229,3.229,0,0,1,110.3-7.66a4.057,4.057,0,0,1,.938,2.793v.82h-5.9a3.394,3.394,0,0,0,.762,2.289,2.635,2.635,0,0,0,2.035.781,6.9,6.9,0,0,0,2.734-.578V-.4a6.863,6.863,0,0,1-1.3.426A7.31,7.31,0,0,1,108.086.156Zm-.352-7.789a2.118,2.118,0,0,0-1.645.672,3.1,3.1,0,0,0-.723,1.859h4.477A2.851,2.851,0,0,0,109.3-6.98,1.925,1.925,0,0,0,107.734-7.633ZM0,1H112.07V2H0Z" transform="translate(-10732 -18069)" fill="#007bc7"/>
        <path id="Path_31960" data-name="Path 31960" d="M8.828-2.625h-1.7V0H5.891V-2.625H.336V-3.758l5.422-7.727H7.133V-3.8h1.7ZM5.891-3.8V-7.6q0-1.117.078-2.523H5.906a11.739,11.739,0,0,1-.7,1.242L1.633-3.8Zm8.742-5.062a2.811,2.811,0,0,1-.668,2,2.4,2.4,0,0,1-1.84.715,2.311,2.311,0,0,1-1.8-.727,2.84,2.84,0,0,1-.66-1.984,2.8,2.8,0,0,1,.656-1.98,2.381,2.381,0,0,1,1.836-.707,2.346,2.346,0,0,1,1.832.711A2.836,2.836,0,0,1,14.633-8.867Zm-4.016,0a2.38,2.38,0,0,0,.355,1.43,1.362,1.362,0,0,0,1.168.477,1.383,1.383,0,0,0,1.18-.477,2.36,2.36,0,0,0,.359-1.43,2.3,2.3,0,0,0-.359-1.422,1.405,1.405,0,0,0-1.18-.461,1.386,1.386,0,0,0-1.164.461A2.3,2.3,0,0,0,10.617-8.867ZM25.945,0l-.258-1.219h-.062a3.6,3.6,0,0,1-1.277,1.09,3.893,3.893,0,0,1-1.59.285,2.86,2.86,0,0,1-2-.656,2.394,2.394,0,0,1-.723-1.867q0-2.594,4.148-2.719l1.453-.047v-.531a2.171,2.171,0,0,0-.434-1.488,1.783,1.783,0,0,0-1.387-.48,5.65,5.65,0,0,0-2.422.656L21-7.969a6.094,6.094,0,0,1,1.387-.539A6.006,6.006,0,0,1,23.9-8.7a3.262,3.262,0,0,1,2.27.68,2.837,2.837,0,0,1,.738,2.18V0Zm-2.93-.914a2.632,2.632,0,0,0,1.9-.664,2.457,2.457,0,0,0,.691-1.859v-.773l-1.3.055a4.717,4.717,0,0,0-2.23.48A1.449,1.449,0,0,0,21.4-2.352a1.336,1.336,0,0,0,.426,1.07A1.767,1.767,0,0,0,23.016-.914ZM35.438,0V-5.539A2.235,2.235,0,0,0,34.961-7.1a1.941,1.941,0,0,0-1.492-.516,2.461,2.461,0,0,0-1.969.727,3.668,3.668,0,0,0-.625,2.4V0h-1.3V-8.562h1.055l.211,1.172h.063a2.648,2.648,0,0,1,1.117-.98,3.63,3.63,0,0,1,1.6-.348,3.252,3.252,0,0,1,2.328.746,3.175,3.175,0,0,1,.781,2.387V0ZM42.82.156A3.654,3.654,0,0,1,39.941-.988a4.707,4.707,0,0,1-1.02-3.238,4.853,4.853,0,0,1,1.035-3.32,3.727,3.727,0,0,1,2.949-1.172,5.852,5.852,0,0,1,1.234.133,4.066,4.066,0,0,1,.969.313l-.4,1.1a6.1,6.1,0,0,0-.937-.285,4.186,4.186,0,0,0-.9-.113q-2.609,0-2.609,3.328A3.963,3.963,0,0,0,40.9-1.82a2.215,2.215,0,0,0,1.887.844,5.769,5.769,0,0,0,2.2-.461V-.289A4.679,4.679,0,0,1,42.82.156ZM48.313,0h-1.3V-12.156h1.3Zm8.016,0L56.07-1.219h-.062A3.6,3.6,0,0,1,54.73-.129a3.893,3.893,0,0,1-1.59.285,2.86,2.86,0,0,1-2-.656,2.394,2.394,0,0,1-.723-1.867q0-2.594,4.148-2.719l1.453-.047v-.531a2.171,2.171,0,0,0-.434-1.488,1.783,1.783,0,0,0-1.387-.48,5.65,5.65,0,0,0-2.422.656l-.4-.992a6.094,6.094,0,0,1,1.387-.539,6.006,6.006,0,0,1,1.512-.2,3.262,3.262,0,0,1,2.27.68,2.837,2.837,0,0,1,.738,2.18V0ZM53.4-.914a2.632,2.632,0,0,0,1.9-.664,2.457,2.457,0,0,0,.691-1.859v-.773l-1.3.055a4.717,4.717,0,0,0-2.23.48,1.449,1.449,0,0,0-.684,1.324,1.336,1.336,0,0,0,.426,1.07A1.767,1.767,0,0,0,53.4-.914ZM59.242-3.7V-4.883h3.836V-3.7ZM68.727.156A3.934,3.934,0,0,1,65.73-1a4.476,4.476,0,0,1-1.1-3.211A4.964,4.964,0,0,1,65.652-7.5a3.387,3.387,0,0,1,2.738-1.219A3.229,3.229,0,0,1,70.938-7.66a4.057,4.057,0,0,1,.938,2.793v.82h-5.9a3.394,3.394,0,0,0,.762,2.289,2.635,2.635,0,0,0,2.035.781,6.9,6.9,0,0,0,2.734-.578V-.4a6.863,6.863,0,0,1-1.3.426A7.31,7.31,0,0,1,68.727.156Zm-.352-7.789a2.118,2.118,0,0,0-1.645.672A3.1,3.1,0,0,0,66.008-5.1h4.477a2.851,2.851,0,0,0-.547-1.879A1.925,1.925,0,0,0,68.375-7.633ZM79.945,0V-5.539A2.235,2.235,0,0,0,79.469-7.1a1.941,1.941,0,0,0-1.492-.516,2.461,2.461,0,0,0-1.969.727,3.668,3.668,0,0,0-.625,2.4V0h-1.3V-8.562h1.055l.211,1.172h.063a2.648,2.648,0,0,1,1.117-.98,3.63,3.63,0,0,1,1.6-.348,3.252,3.252,0,0,1,2.328.746,3.175,3.175,0,0,1,.781,2.387V0ZM85.2,0h-1.3V-12.156h1.3Zm8.016,0-.258-1.219H92.9a3.6,3.6,0,0,1-1.277,1.09,3.893,3.893,0,0,1-1.59.285,2.86,2.86,0,0,1-2-.656,2.394,2.394,0,0,1-.723-1.867q0-2.594,4.148-2.719l1.453-.047v-.531a2.171,2.171,0,0,0-.434-1.488,1.783,1.783,0,0,0-1.387-.48,5.65,5.65,0,0,0-2.422.656l-.4-.992a6.094,6.094,0,0,1,1.387-.539,6.006,6.006,0,0,1,1.512-.2,3.262,3.262,0,0,1,2.27.68,2.837,2.837,0,0,1,.738,2.18V0Zm-2.93-.914a2.632,2.632,0,0,0,1.9-.664,2.457,2.457,0,0,0,.691-1.859v-.773l-1.3.055a4.717,4.717,0,0,0-2.23.48,1.449,1.449,0,0,0-.684,1.324,1.336,1.336,0,0,0,.426,1.07A1.767,1.767,0,0,0,90.289-.914Zm9.984,1.07A3.654,3.654,0,0,1,97.395-.988a4.707,4.707,0,0,1-1.02-3.238,4.853,4.853,0,0,1,1.035-3.32,3.727,3.727,0,0,1,2.949-1.172,5.852,5.852,0,0,1,1.234.133,4.066,4.066,0,0,1,.969.313l-.4,1.1a6.1,6.1,0,0,0-.937-.285,4.186,4.186,0,0,0-.9-.113q-2.609,0-2.609,3.328a3.963,3.963,0,0,0,.637,2.422,2.215,2.215,0,0,0,1.887.844,5.769,5.769,0,0,0,2.2-.461V-.289A4.679,4.679,0,0,1,100.273.156Zm7.813,0a3.934,3.934,0,0,1-3-1.156,4.476,4.476,0,0,1-1.1-3.211,4.964,4.964,0,0,1,1.02-3.289,3.387,3.387,0,0,1,2.738-1.219A3.229,3.229,0,0,1,110.3-7.66a4.057,4.057,0,0,1,.938,2.793v.82h-5.9a3.394,3.394,0,0,0,.762,2.289,2.635,2.635,0,0,0,2.035.781,6.9,6.9,0,0,0,2.734-.578V-.4a6.863,6.863,0,0,1-1.3.426A7.31,7.31,0,0,1,108.086.156Zm-.352-7.789a2.118,2.118,0,0,0-1.645.672,3.1,3.1,0,0,0-.723,1.859h4.477A2.851,2.851,0,0,0,109.3-6.98,1.925,1.925,0,0,0,107.734-7.633ZM0,1H112.07V2H0Z" transform="translate(-10732 -18039)" fill="#007bc7"/>
      </g>
    </g>
  </g>
</svg>
