<svg width="340" height="297" viewBox="0 0 340 297" fill="none" xmlns="http://www.w3.org/2000/svg">
<rect x="1" y="1" width="338" height="295" rx="7" fill="#F3F6F9" stroke="#E6EBF0" stroke-width="2"/>
<path d="M139.449 154H134.276V144.72H139.449V145.678H135.355V148.668H139.202V149.62H135.355V153.035H139.449V154ZM146.114 154V149.5C146.114 148.932 145.985 148.509 145.727 148.23C145.469 147.951 145.065 147.811 144.515 147.811C143.787 147.811 143.254 148.008 142.915 148.401C142.576 148.795 142.407 149.444 142.407 150.35V154H141.354V147.043H142.21L142.382 147.995H142.433C142.648 147.652 142.951 147.388 143.34 147.202C143.73 147.011 144.163 146.916 144.642 146.916C145.479 146.916 146.11 147.119 146.533 147.525C146.956 147.927 147.168 148.573 147.168 149.461V154H146.114ZM150.393 154H149.339V144.123H150.393V154ZM156.905 154L156.696 153.01H156.645C156.298 153.446 155.951 153.742 155.604 153.898C155.261 154.051 154.832 154.127 154.315 154.127C153.626 154.127 153.084 153.949 152.69 153.594C152.301 153.238 152.106 152.733 152.106 152.077C152.106 150.672 153.23 149.935 155.477 149.868L156.658 149.83V149.398C156.658 148.852 156.539 148.45 156.302 148.192C156.069 147.93 155.695 147.798 155.179 147.798C154.599 147.798 153.943 147.976 153.211 148.332L152.887 147.525C153.23 147.339 153.604 147.193 154.011 147.087C154.421 146.982 154.832 146.929 155.242 146.929C156.072 146.929 156.685 147.113 157.083 147.481C157.485 147.849 157.686 148.439 157.686 149.252V154H156.905ZM154.525 153.257C155.181 153.257 155.695 153.077 156.067 152.718C156.444 152.358 156.632 151.854 156.632 151.207V150.579L155.579 150.623C154.741 150.653 154.136 150.784 153.763 151.017C153.395 151.245 153.211 151.603 153.211 152.089C153.211 152.47 153.325 152.76 153.554 152.959C153.786 153.158 154.11 153.257 154.525 153.257ZM162.644 154.127C161.636 154.127 160.856 153.818 160.301 153.2C159.751 152.578 159.476 151.7 159.476 150.566C159.476 149.402 159.755 148.503 160.314 147.868C160.877 147.233 161.677 146.916 162.713 146.916C163.048 146.916 163.382 146.952 163.716 147.024C164.051 147.096 164.313 147.181 164.503 147.278L164.18 148.173C163.947 148.08 163.693 148.004 163.418 147.944C163.143 147.881 162.9 147.849 162.688 147.849C161.275 147.849 160.568 148.75 160.568 150.553C160.568 151.408 160.739 152.064 161.082 152.521C161.429 152.978 161.941 153.207 162.618 153.207C163.198 153.207 163.792 153.082 164.402 152.832V153.765C163.936 154.006 163.35 154.127 162.644 154.127ZM168.998 154.127C167.969 154.127 167.157 153.814 166.56 153.188C165.968 152.561 165.671 151.692 165.671 150.579C165.671 149.457 165.946 148.566 166.497 147.906C167.051 147.246 167.794 146.916 168.725 146.916C169.596 146.916 170.286 147.204 170.794 147.779C171.302 148.351 171.556 149.106 171.556 150.045V150.712H166.763C166.784 151.529 166.99 152.149 167.379 152.572C167.772 152.995 168.325 153.207 169.036 153.207C169.785 153.207 170.525 153.05 171.257 152.737V153.676C170.885 153.837 170.532 153.951 170.197 154.019C169.867 154.091 169.467 154.127 168.998 154.127ZM168.712 147.798C168.153 147.798 167.707 147.98 167.373 148.344C167.042 148.708 166.848 149.212 166.789 149.855H170.426C170.426 149.191 170.278 148.683 169.981 148.332C169.685 147.976 169.262 147.798 168.712 147.798ZM179.516 154.127C178.508 154.127 177.728 153.818 177.173 153.2C176.623 152.578 176.348 151.7 176.348 150.566C176.348 149.402 176.627 148.503 177.186 147.868C177.749 147.233 178.549 146.916 179.585 146.916C179.92 146.916 180.254 146.952 180.588 147.024C180.923 147.096 181.185 147.181 181.375 147.278L181.052 148.173C180.819 148.08 180.565 148.004 180.29 147.944C180.015 147.881 179.772 147.849 179.56 147.849C178.147 147.849 177.44 148.75 177.44 150.553C177.44 151.408 177.611 152.064 177.954 152.521C178.301 152.978 178.813 153.207 179.49 153.207C180.07 153.207 180.665 153.082 181.274 152.832V153.765C180.808 154.006 180.222 154.127 179.516 154.127ZM187.691 154V149.5C187.691 148.932 187.562 148.509 187.304 148.23C187.046 147.951 186.642 147.811 186.092 147.811C185.36 147.811 184.824 148.01 184.486 148.408C184.152 148.806 183.984 149.457 183.984 150.363V154H182.931V144.123H183.984V147.113C183.984 147.472 183.967 147.771 183.934 148.008H183.997C184.204 147.674 184.499 147.411 184.879 147.221C185.264 147.026 185.702 146.929 186.193 146.929C187.044 146.929 187.681 147.132 188.104 147.538C188.531 147.94 188.745 148.581 188.745 149.461V154H187.691ZM191.97 154H190.916V147.043H191.97V154ZM190.827 145.158C190.827 144.917 190.886 144.741 191.005 144.631C191.123 144.517 191.271 144.459 191.449 144.459C191.618 144.459 191.764 144.517 191.887 144.631C192.01 144.745 192.071 144.921 192.071 145.158C192.071 145.395 192.01 145.572 191.887 145.691C191.764 145.805 191.618 145.862 191.449 145.862C191.271 145.862 191.123 145.805 191.005 145.691C190.886 145.572 190.827 145.395 190.827 145.158ZM196.984 154.127C195.977 154.127 195.196 153.818 194.642 153.2C194.092 152.578 193.817 151.7 193.817 150.566C193.817 149.402 194.096 148.503 194.655 147.868C195.218 147.233 196.017 146.916 197.054 146.916C197.389 146.916 197.723 146.952 198.057 147.024C198.391 147.096 198.654 147.181 198.844 147.278L198.521 148.173C198.288 148.08 198.034 148.004 197.759 147.944C197.484 147.881 197.24 147.849 197.029 147.849C195.615 147.849 194.909 148.75 194.909 150.553C194.909 151.408 195.08 152.064 195.423 152.521C195.77 152.978 196.282 153.207 196.959 153.207C197.539 153.207 198.133 153.082 198.743 152.832V153.765C198.277 154.006 197.691 154.127 196.984 154.127ZM206.404 150.515C206.404 151.649 206.119 152.536 205.547 153.175C204.976 153.81 204.187 154.127 203.18 154.127C202.558 154.127 202.005 153.981 201.523 153.689C201.041 153.397 200.668 152.978 200.406 152.432C200.143 151.886 200.012 151.247 200.012 150.515C200.012 149.381 200.296 148.499 200.863 147.868C201.43 147.233 202.217 146.916 203.224 146.916C204.197 146.916 204.97 147.24 205.541 147.887C206.117 148.535 206.404 149.411 206.404 150.515ZM201.104 150.515C201.104 151.404 201.282 152.081 201.637 152.546C201.993 153.012 202.515 153.245 203.205 153.245C203.895 153.245 204.417 153.014 204.773 152.553C205.133 152.087 205.312 151.408 205.312 150.515C205.312 149.631 205.133 148.96 204.773 148.503C204.417 148.042 203.891 147.811 203.192 147.811C202.503 147.811 201.982 148.037 201.631 148.49C201.28 148.943 201.104 149.618 201.104 150.515Z" fill="#007BC7"/>
<path d="M133 155.301H207.134V155.949H133V155.301Z" fill="#007BC7"/>
</svg>
