<svg xmlns="http://www.w3.org/2000/svg" width="712" height="113" viewBox="0 0 712 113">
  <g id="Group_32473" data-name="Group 32473" transform="translate(11032 17310)">
    <rect id="Rectangle_26483" data-name="Rectangle 26483" width="712" height="113" rx="8" transform="translate(-11032 -17310)" fill="none"/>
    <path id="Path_31964" data-name="Path 31964" d="M0,0H68V20H0Z" transform="translate(-10710 -17264)" fill="none"/>
    <g id="Enlace_con_icono" data-name="Enlace con icono" transform="translate(-11072 -17809)">
      <path id="Path_31970" data-name="Path 31970" d="M7.441,0H1.472V-10.708H7.441V-9.6H2.717v3.45H7.156v1.1H2.717v3.94H7.441Zm7.683,0V-5.193a2.1,2.1,0,0,0-.447-1.465,1.82,1.82,0,0,0-1.4-.483,2.307,2.307,0,0,0-1.846.681,3.439,3.439,0,0,0-.586,2.249V0H9.631V-8.027h.989l.2,1.1h.059a2.483,2.483,0,0,1,1.047-.919,3.4,3.4,0,0,1,1.5-.326,3.049,3.049,0,0,1,2.183.7,2.977,2.977,0,0,1,.732,2.238V0Zm4.929,0H18.838V-11.4h1.216Zm7.515,0-.242-1.143h-.059a3.378,3.378,0,0,1-1.2,1.022,3.65,3.65,0,0,1-1.49.267,2.681,2.681,0,0,1-1.871-.615,2.244,2.244,0,0,1-.677-1.75q0-2.432,3.889-2.549l1.362-.044v-.5a2.035,2.035,0,0,0-.406-1.4,1.672,1.672,0,0,0-1.3-.45,5.3,5.3,0,0,0-2.271.615l-.374-.93a5.713,5.713,0,0,1,1.3-.505,5.631,5.631,0,0,1,1.417-.183,3.058,3.058,0,0,1,2.128.637,2.66,2.66,0,0,1,.692,2.043V0ZM24.822-.857a2.468,2.468,0,0,0,1.783-.623,2.3,2.3,0,0,0,.648-1.743v-.725L26.038-3.9a4.422,4.422,0,0,0-2.091.45A1.358,1.358,0,0,0,23.306-2.2a1.253,1.253,0,0,0,.4,1A1.657,1.657,0,0,0,24.822-.857Zm9.36,1a3.426,3.426,0,0,1-2.7-1.073,4.412,4.412,0,0,1-.956-3.036,4.55,4.55,0,0,1,.97-3.113,3.494,3.494,0,0,1,2.765-1.1,5.487,5.487,0,0,1,1.157.125,3.812,3.812,0,0,1,.908.293l-.374,1.033a5.717,5.717,0,0,0-.879-.267,3.924,3.924,0,0,0-.842-.106q-2.446,0-2.446,3.12a3.715,3.715,0,0,0,.6,2.271,2.077,2.077,0,0,0,1.769.791,5.408,5.408,0,0,0,2.058-.432V-.271A4.386,4.386,0,0,1,34.182.146Zm7.324,0A3.688,3.688,0,0,1,38.7-.937a4.2,4.2,0,0,1-1.029-3.01,4.654,4.654,0,0,1,.956-3.083,3.175,3.175,0,0,1,2.567-1.143,3.027,3.027,0,0,1,2.388.992,3.8,3.8,0,0,1,.879,2.618v.769h-5.53a3.182,3.182,0,0,0,.714,2.146,2.47,2.47,0,0,0,1.908.732,6.466,6.466,0,0,0,2.563-.542V-.374a6.434,6.434,0,0,1-1.219.4A6.853,6.853,0,0,1,41.506.146Zm-.33-7.3a1.985,1.985,0,0,0-1.542.63,2.9,2.9,0,0,0-.677,1.743h4.2a2.673,2.673,0,0,0-.513-1.761A1.8,1.8,0,0,0,41.177-7.156ZM0,1H45.242V2H0Z" transform="translate(385 561)" fill="#007bc7"/>
      <g id="download" transform="translate(362 546)">
        <rect id="Rectangle_26" data-name="Rectangle 26" width="19" height="19" fill="none"/>
        <path id="Path_12409" data-name="Path 12409" d="M110.658,56.25h-1.325V52.292a.816.816,0,0,0-.833-.792h-3.333a.816.816,0,0,0-.833.792V56.25h-1.325a.79.79,0,0,0-.592,1.354l3.825,3.634a.861.861,0,0,0,1.175,0l3.825-3.634A.787.787,0,0,0,110.658,56.25ZM101,64.167a.816.816,0,0,0,.833.792h10a.793.793,0,1,0,0-1.583h-10A.816.816,0,0,0,101,64.167Z" transform="translate(-96.834 -48.73)" fill="#007bc7"/>
      </g>
    </g>
  </g>
</svg>
