<svg xmlns="http://www.w3.org/2000/svg" width="712" height="378" viewBox="0 0 712 378">
  <g id="Group_32468" data-name="Group 32468" transform="translate(11032 16304)">
    <path id="Path_31951" data-name="Path 31951" d="M8,0H704a8,8,0,0,1,8,8V370a8,8,0,0,1-8,8H8a8,8,0,0,1-8-8V8A8,8,0,0,1,8,0Z" transform="translate(-11032 -16304)" fill="#fff"/>
    <path id="Path_31951_-_Outline" data-name="Path 31951 - Outline" d="M8,2A6.007,6.007,0,0,0,2,8V370a6.007,6.007,0,0,0,6,6H704a6.007,6.007,0,0,0,6-6V8a6.007,6.007,0,0,0-6-6H8M8,0H704a8,8,0,0,1,8,8V370a8,8,0,0,1-8,8H8a8,8,0,0,1-8-8V8A8,8,0,0,1,8,0Z" transform="translate(-11032 -16304)" fill="#38485c"/>
    <path id="Path_31949" data-name="Path 31949" d="M1,0H113a1,1,0,0,1,1,1V21a1,1,0,0,1-1,1H1a1,1,0,0,1-1-1V1A1,1,0,0,1,1,0Z" transform="translate(-10938.5 -15995.963)" fill="none"/>
    <path id="Path_31950" data-name="Path 31950" d="M8.828-2.625h-1.7V0H5.891V-2.625H.336V-3.758l5.422-7.727H7.133V-3.8h1.7ZM5.891-3.8V-7.6q0-1.117.078-2.523H5.906a11.739,11.739,0,0,1-.7,1.242L1.633-3.8Zm8.742-5.062a2.811,2.811,0,0,1-.668,2,2.4,2.4,0,0,1-1.84.715,2.311,2.311,0,0,1-1.8-.727,2.84,2.84,0,0,1-.66-1.984,2.8,2.8,0,0,1,.656-1.98,2.381,2.381,0,0,1,1.836-.707,2.346,2.346,0,0,1,1.832.711A2.836,2.836,0,0,1,14.633-8.867Zm-4.016,0a2.38,2.38,0,0,0,.355,1.43,1.362,1.362,0,0,0,1.168.477,1.383,1.383,0,0,0,1.18-.477,2.36,2.36,0,0,0,.359-1.43,2.3,2.3,0,0,0-.359-1.422,1.405,1.405,0,0,0-1.18-.461,1.386,1.386,0,0,0-1.164.461A2.3,2.3,0,0,0,10.617-8.867ZM25.945,0l-.258-1.219h-.062a3.6,3.6,0,0,1-1.277,1.09,3.893,3.893,0,0,1-1.59.285,2.86,2.86,0,0,1-2-.656,2.394,2.394,0,0,1-.723-1.867q0-2.594,4.148-2.719l1.453-.047v-.531a2.171,2.171,0,0,0-.434-1.488,1.783,1.783,0,0,0-1.387-.48,5.65,5.65,0,0,0-2.422.656L21-7.969a6.094,6.094,0,0,1,1.387-.539A6.006,6.006,0,0,1,23.9-8.7a3.262,3.262,0,0,1,2.27.68,2.837,2.837,0,0,1,.738,2.18V0Zm-2.93-.914a2.632,2.632,0,0,0,1.9-.664,2.457,2.457,0,0,0,.691-1.859v-.773l-1.3.055a4.717,4.717,0,0,0-2.23.48A1.449,1.449,0,0,0,21.4-2.352a1.336,1.336,0,0,0,.426,1.07A1.767,1.767,0,0,0,23.016-.914ZM35.438,0V-5.539A2.235,2.235,0,0,0,34.961-7.1a1.941,1.941,0,0,0-1.492-.516,2.461,2.461,0,0,0-1.969.727,3.668,3.668,0,0,0-.625,2.4V0h-1.3V-8.562h1.055l.211,1.172h.063a2.648,2.648,0,0,1,1.117-.98,3.63,3.63,0,0,1,1.6-.348,3.252,3.252,0,0,1,2.328.746,3.175,3.175,0,0,1,.781,2.387V0ZM42.82.156A3.654,3.654,0,0,1,39.941-.988a4.707,4.707,0,0,1-1.02-3.238,4.853,4.853,0,0,1,1.035-3.32,3.727,3.727,0,0,1,2.949-1.172,5.852,5.852,0,0,1,1.234.133,4.066,4.066,0,0,1,.969.313l-.4,1.1a6.1,6.1,0,0,0-.937-.285,4.186,4.186,0,0,0-.9-.113q-2.609,0-2.609,3.328A3.963,3.963,0,0,0,40.9-1.82a2.215,2.215,0,0,0,1.887.844,5.769,5.769,0,0,0,2.2-.461V-.289A4.679,4.679,0,0,1,42.82.156ZM48.313,0h-1.3V-12.156h1.3Zm8.016,0L56.07-1.219h-.062A3.6,3.6,0,0,1,54.73-.129a3.893,3.893,0,0,1-1.59.285,2.86,2.86,0,0,1-2-.656,2.394,2.394,0,0,1-.723-1.867q0-2.594,4.148-2.719l1.453-.047v-.531a2.171,2.171,0,0,0-.434-1.488,1.783,1.783,0,0,0-1.387-.48,5.65,5.65,0,0,0-2.422.656l-.4-.992a6.094,6.094,0,0,1,1.387-.539,6.006,6.006,0,0,1,1.512-.2,3.262,3.262,0,0,1,2.27.68,2.837,2.837,0,0,1,.738,2.18V0ZM53.4-.914a2.632,2.632,0,0,0,1.9-.664,2.457,2.457,0,0,0,.691-1.859v-.773l-1.3.055a4.717,4.717,0,0,0-2.23.48,1.449,1.449,0,0,0-.684,1.324,1.336,1.336,0,0,0,.426,1.07A1.767,1.767,0,0,0,53.4-.914ZM59.242-3.7V-4.883h3.836V-3.7ZM68.727.156A3.934,3.934,0,0,1,65.73-1a4.476,4.476,0,0,1-1.1-3.211A4.964,4.964,0,0,1,65.652-7.5a3.387,3.387,0,0,1,2.738-1.219A3.229,3.229,0,0,1,70.938-7.66a4.057,4.057,0,0,1,.938,2.793v.82h-5.9a3.394,3.394,0,0,0,.762,2.289,2.635,2.635,0,0,0,2.035.781,6.9,6.9,0,0,0,2.734-.578V-.4a6.863,6.863,0,0,1-1.3.426A7.31,7.31,0,0,1,68.727.156Zm-.352-7.789a2.118,2.118,0,0,0-1.645.672A3.1,3.1,0,0,0,66.008-5.1h4.477a2.851,2.851,0,0,0-.547-1.879A1.925,1.925,0,0,0,68.375-7.633ZM79.945,0V-5.539A2.235,2.235,0,0,0,79.469-7.1a1.941,1.941,0,0,0-1.492-.516,2.461,2.461,0,0,0-1.969.727,3.668,3.668,0,0,0-.625,2.4V0h-1.3V-8.562h1.055l.211,1.172h.063a2.648,2.648,0,0,1,1.117-.98,3.63,3.63,0,0,1,1.6-.348,3.252,3.252,0,0,1,2.328.746,3.175,3.175,0,0,1,.781,2.387V0ZM85.2,0h-1.3V-12.156h1.3Zm8.016,0-.258-1.219H92.9a3.6,3.6,0,0,1-1.277,1.09,3.893,3.893,0,0,1-1.59.285,2.86,2.86,0,0,1-2-.656,2.394,2.394,0,0,1-.723-1.867q0-2.594,4.148-2.719l1.453-.047v-.531a2.171,2.171,0,0,0-.434-1.488,1.783,1.783,0,0,0-1.387-.48,5.65,5.65,0,0,0-2.422.656l-.4-.992a6.094,6.094,0,0,1,1.387-.539,6.006,6.006,0,0,1,1.512-.2,3.262,3.262,0,0,1,2.27.68,2.837,2.837,0,0,1,.738,2.18V0Zm-2.93-.914a2.632,2.632,0,0,0,1.9-.664,2.457,2.457,0,0,0,.691-1.859v-.773l-1.3.055a4.717,4.717,0,0,0-2.23.48,1.449,1.449,0,0,0-.684,1.324,1.336,1.336,0,0,0,.426,1.07A1.767,1.767,0,0,0,90.289-.914Zm9.984,1.07A3.654,3.654,0,0,1,97.395-.988a4.707,4.707,0,0,1-1.02-3.238,4.853,4.853,0,0,1,1.035-3.32,3.727,3.727,0,0,1,2.949-1.172,5.852,5.852,0,0,1,1.234.133,4.066,4.066,0,0,1,.969.313l-.4,1.1a6.1,6.1,0,0,0-.937-.285,4.186,4.186,0,0,0-.9-.113q-2.609,0-2.609,3.328a3.963,3.963,0,0,0,.637,2.422,2.215,2.215,0,0,0,1.887.844,5.769,5.769,0,0,0,2.2-.461V-.289A4.679,4.679,0,0,1,100.273.156Zm7.813,0a3.934,3.934,0,0,1-3-1.156,4.476,4.476,0,0,1-1.1-3.211,4.964,4.964,0,0,1,1.02-3.289,3.387,3.387,0,0,1,2.738-1.219A3.229,3.229,0,0,1,110.3-7.66a4.057,4.057,0,0,1,.938,2.793v.82h-5.9a3.394,3.394,0,0,0,.762,2.289,2.635,2.635,0,0,0,2.035.781,6.9,6.9,0,0,0,2.734-.578V-.4a6.863,6.863,0,0,1-1.3.426A7.31,7.31,0,0,1,108.086.156Zm-.352-7.789a2.118,2.118,0,0,0-1.645.672,3.1,3.1,0,0,0-.723,1.859h4.477A2.851,2.851,0,0,0,109.3-6.98,1.925,1.925,0,0,0,107.734-7.633ZM0,1H112.07V2H0Z" transform="translate(-10937.5 -15978.963)" fill="#007bc7"/>
    <path id="Path_31947" data-name="Path 31947" d="M1,0H113a1,1,0,0,1,1,1V21a1,1,0,0,1-1,1H1a1,1,0,0,1-1-1V1A1,1,0,0,1,1,0Z" transform="translate(-10938.5 -16029.963)" fill="none"/>
    <path id="Path_31948" data-name="Path 31948" d="M7.859-8.734a2.6,2.6,0,0,1-.613,1.789,3.07,3.07,0,0,1-1.738.93v.063a3.269,3.269,0,0,1,2.039.875,2.575,2.575,0,0,1,.664,1.844A2.991,2.991,0,0,1,7.078-.723,5.152,5.152,0,0,1,3.859.156,9.328,9.328,0,0,1,2.2.02,5.682,5.682,0,0,1,.734-.461V-1.7a7.123,7.123,0,0,0,1.582.559,7.165,7.165,0,0,0,1.59.191q2.961,0,2.961-2.32,0-2.078-3.266-2.078H2.477V-6.461H3.617a3.434,3.434,0,0,0,2.117-.59,1.935,1.935,0,0,0,.781-1.637A1.613,1.613,0,0,0,5.941-10a2.366,2.366,0,0,0-1.559-.477,4.809,4.809,0,0,0-1.414.2,6.328,6.328,0,0,0-1.516.75L.8-10.4a5.471,5.471,0,0,1,1.621-.871,5.892,5.892,0,0,1,1.934-.316,3.951,3.951,0,0,1,2.586.762A2.565,2.565,0,0,1,7.859-8.734Zm6.773-.133a2.811,2.811,0,0,1-.668,2,2.4,2.4,0,0,1-1.84.715,2.311,2.311,0,0,1-1.8-.727,2.84,2.84,0,0,1-.66-1.984,2.8,2.8,0,0,1,.656-1.98,2.381,2.381,0,0,1,1.836-.707,2.346,2.346,0,0,1,1.832.711A2.836,2.836,0,0,1,14.633-8.867Zm-4.016,0a2.38,2.38,0,0,0,.355,1.43,1.362,1.362,0,0,0,1.168.477,1.383,1.383,0,0,0,1.18-.477,2.36,2.36,0,0,0,.359-1.43,2.3,2.3,0,0,0-.359-1.422,1.405,1.405,0,0,0-1.18-.461,1.386,1.386,0,0,0-1.164.461A2.3,2.3,0,0,0,10.617-8.867ZM25.945,0l-.258-1.219h-.062a3.6,3.6,0,0,1-1.277,1.09,3.893,3.893,0,0,1-1.59.285,2.86,2.86,0,0,1-2-.656,2.394,2.394,0,0,1-.723-1.867q0-2.594,4.148-2.719l1.453-.047v-.531a2.171,2.171,0,0,0-.434-1.488,1.783,1.783,0,0,0-1.387-.48,5.65,5.65,0,0,0-2.422.656L21-7.969a6.094,6.094,0,0,1,1.387-.539A6.006,6.006,0,0,1,23.9-8.7a3.262,3.262,0,0,1,2.27.68,2.837,2.837,0,0,1,.738,2.18V0Zm-2.93-.914a2.632,2.632,0,0,0,1.9-.664,2.457,2.457,0,0,0,.691-1.859v-.773l-1.3.055a4.717,4.717,0,0,0-2.23.48A1.449,1.449,0,0,0,21.4-2.352a1.336,1.336,0,0,0,.426,1.07A1.767,1.767,0,0,0,23.016-.914ZM35.438,0V-5.539A2.235,2.235,0,0,0,34.961-7.1a1.941,1.941,0,0,0-1.492-.516,2.461,2.461,0,0,0-1.969.727,3.668,3.668,0,0,0-.625,2.4V0h-1.3V-8.562h1.055l.211,1.172h.063a2.648,2.648,0,0,1,1.117-.98,3.63,3.63,0,0,1,1.6-.348,3.252,3.252,0,0,1,2.328.746,3.175,3.175,0,0,1,.781,2.387V0ZM42.82.156A3.654,3.654,0,0,1,39.941-.988a4.707,4.707,0,0,1-1.02-3.238,4.853,4.853,0,0,1,1.035-3.32,3.727,3.727,0,0,1,2.949-1.172,5.852,5.852,0,0,1,1.234.133,4.066,4.066,0,0,1,.969.313l-.4,1.1a6.1,6.1,0,0,0-.937-.285,4.186,4.186,0,0,0-.9-.113q-2.609,0-2.609,3.328A3.963,3.963,0,0,0,40.9-1.82a2.215,2.215,0,0,0,1.887.844,5.769,5.769,0,0,0,2.2-.461V-.289A4.679,4.679,0,0,1,42.82.156ZM48.313,0h-1.3V-12.156h1.3Zm8.016,0L56.07-1.219h-.062A3.6,3.6,0,0,1,54.73-.129a3.893,3.893,0,0,1-1.59.285,2.86,2.86,0,0,1-2-.656,2.394,2.394,0,0,1-.723-1.867q0-2.594,4.148-2.719l1.453-.047v-.531a2.171,2.171,0,0,0-.434-1.488,1.783,1.783,0,0,0-1.387-.48,5.65,5.65,0,0,0-2.422.656l-.4-.992a6.094,6.094,0,0,1,1.387-.539,6.006,6.006,0,0,1,1.512-.2,3.262,3.262,0,0,1,2.27.68,2.837,2.837,0,0,1,.738,2.18V0ZM53.4-.914a2.632,2.632,0,0,0,1.9-.664,2.457,2.457,0,0,0,.691-1.859v-.773l-1.3.055a4.717,4.717,0,0,0-2.23.48,1.449,1.449,0,0,0-.684,1.324,1.336,1.336,0,0,0,.426,1.07A1.767,1.767,0,0,0,53.4-.914ZM59.242-3.7V-4.883h3.836V-3.7ZM68.727.156A3.934,3.934,0,0,1,65.73-1a4.476,4.476,0,0,1-1.1-3.211A4.964,4.964,0,0,1,65.652-7.5a3.387,3.387,0,0,1,2.738-1.219A3.229,3.229,0,0,1,70.938-7.66a4.057,4.057,0,0,1,.938,2.793v.82h-5.9a3.394,3.394,0,0,0,.762,2.289,2.635,2.635,0,0,0,2.035.781,6.9,6.9,0,0,0,2.734-.578V-.4a6.863,6.863,0,0,1-1.3.426A7.31,7.31,0,0,1,68.727.156Zm-.352-7.789a2.118,2.118,0,0,0-1.645.672A3.1,3.1,0,0,0,66.008-5.1h4.477a2.851,2.851,0,0,0-.547-1.879A1.925,1.925,0,0,0,68.375-7.633ZM79.945,0V-5.539A2.235,2.235,0,0,0,79.469-7.1a1.941,1.941,0,0,0-1.492-.516,2.461,2.461,0,0,0-1.969.727,3.668,3.668,0,0,0-.625,2.4V0h-1.3V-8.562h1.055l.211,1.172h.063a2.648,2.648,0,0,1,1.117-.98,3.63,3.63,0,0,1,1.6-.348,3.252,3.252,0,0,1,2.328.746,3.175,3.175,0,0,1,.781,2.387V0ZM85.2,0h-1.3V-12.156h1.3Zm8.016,0-.258-1.219H92.9a3.6,3.6,0,0,1-1.277,1.09,3.893,3.893,0,0,1-1.59.285,2.86,2.86,0,0,1-2-.656,2.394,2.394,0,0,1-.723-1.867q0-2.594,4.148-2.719l1.453-.047v-.531a2.171,2.171,0,0,0-.434-1.488,1.783,1.783,0,0,0-1.387-.48,5.65,5.65,0,0,0-2.422.656l-.4-.992a6.094,6.094,0,0,1,1.387-.539,6.006,6.006,0,0,1,1.512-.2,3.262,3.262,0,0,1,2.27.68,2.837,2.837,0,0,1,.738,2.18V0Zm-2.93-.914a2.632,2.632,0,0,0,1.9-.664,2.457,2.457,0,0,0,.691-1.859v-.773l-1.3.055a4.717,4.717,0,0,0-2.23.48,1.449,1.449,0,0,0-.684,1.324,1.336,1.336,0,0,0,.426,1.07A1.767,1.767,0,0,0,90.289-.914Zm9.984,1.07A3.654,3.654,0,0,1,97.395-.988a4.707,4.707,0,0,1-1.02-3.238,4.853,4.853,0,0,1,1.035-3.32,3.727,3.727,0,0,1,2.949-1.172,5.852,5.852,0,0,1,1.234.133,4.066,4.066,0,0,1,.969.313l-.4,1.1a6.1,6.1,0,0,0-.937-.285,4.186,4.186,0,0,0-.9-.113q-2.609,0-2.609,3.328a3.963,3.963,0,0,0,.637,2.422,2.215,2.215,0,0,0,1.887.844,5.769,5.769,0,0,0,2.2-.461V-.289A4.679,4.679,0,0,1,100.273.156Zm7.813,0a3.934,3.934,0,0,1-3-1.156,4.476,4.476,0,0,1-1.1-3.211,4.964,4.964,0,0,1,1.02-3.289,3.387,3.387,0,0,1,2.738-1.219A3.229,3.229,0,0,1,110.3-7.66a4.057,4.057,0,0,1,.938,2.793v.82h-5.9a3.394,3.394,0,0,0,.762,2.289,2.635,2.635,0,0,0,2.035.781,6.9,6.9,0,0,0,2.734-.578V-.4a6.863,6.863,0,0,1-1.3.426A7.31,7.31,0,0,1,108.086.156Zm-.352-7.789a2.118,2.118,0,0,0-1.645.672,3.1,3.1,0,0,0-.723,1.859h4.477A2.851,2.851,0,0,0,109.3-6.98,1.925,1.925,0,0,0,107.734-7.633ZM0,1H112.07V2H0Z" transform="translate(-10937.5 -16012.963)" fill="#007bc7"/>
    <path id="Path_31945" data-name="Path 31945" d="M1,0H113a1,1,0,0,1,1,1V21a1,1,0,0,1-1,1H1a1,1,0,0,1-1-1V1A1,1,0,0,1,1,0Z" transform="translate(-10938.5 -16063.963)" fill="none"/>
    <path id="Path_31946" data-name="Path 31946" d="M8.289,0H.781V-1.117L3.789-4.141A22.149,22.149,0,0,0,5.6-6.125a5.064,5.064,0,0,0,.656-1.156,3.312,3.312,0,0,0,.219-1.211,1.92,1.92,0,0,0-.555-1.449,2.125,2.125,0,0,0-1.539-.535,3.87,3.87,0,0,0-1.348.234,5.372,5.372,0,0,0-1.418.852L.93-10.273a5.265,5.265,0,0,1,3.438-1.312,3.632,3.632,0,0,1,2.523.824A2.835,2.835,0,0,1,7.8-8.547,4.277,4.277,0,0,1,7.2-6.4,13.64,13.64,0,0,1,4.914-3.711l-2.5,2.445V-1.2H8.289Zm6.344-8.867a2.811,2.811,0,0,1-.668,2,2.4,2.4,0,0,1-1.84.715,2.311,2.311,0,0,1-1.8-.727,2.84,2.84,0,0,1-.66-1.984,2.8,2.8,0,0,1,.656-1.98,2.381,2.381,0,0,1,1.836-.707,2.346,2.346,0,0,1,1.832.711A2.836,2.836,0,0,1,14.633-8.867Zm-4.016,0a2.38,2.38,0,0,0,.355,1.43,1.362,1.362,0,0,0,1.168.477,1.383,1.383,0,0,0,1.18-.477,2.36,2.36,0,0,0,.359-1.43,2.3,2.3,0,0,0-.359-1.422,1.405,1.405,0,0,0-1.18-.461,1.386,1.386,0,0,0-1.164.461A2.3,2.3,0,0,0,10.617-8.867ZM25.945,0l-.258-1.219h-.062a3.6,3.6,0,0,1-1.277,1.09,3.893,3.893,0,0,1-1.59.285,2.86,2.86,0,0,1-2-.656,2.394,2.394,0,0,1-.723-1.867q0-2.594,4.148-2.719l1.453-.047v-.531a2.171,2.171,0,0,0-.434-1.488,1.783,1.783,0,0,0-1.387-.48,5.65,5.65,0,0,0-2.422.656L21-7.969a6.094,6.094,0,0,1,1.387-.539A6.006,6.006,0,0,1,23.9-8.7a3.262,3.262,0,0,1,2.27.68,2.837,2.837,0,0,1,.738,2.18V0Zm-2.93-.914a2.632,2.632,0,0,0,1.9-.664,2.457,2.457,0,0,0,.691-1.859v-.773l-1.3.055a4.717,4.717,0,0,0-2.23.48A1.449,1.449,0,0,0,21.4-2.352a1.336,1.336,0,0,0,.426,1.07A1.767,1.767,0,0,0,23.016-.914ZM35.438,0V-5.539A2.235,2.235,0,0,0,34.961-7.1a1.941,1.941,0,0,0-1.492-.516,2.461,2.461,0,0,0-1.969.727,3.668,3.668,0,0,0-.625,2.4V0h-1.3V-8.562h1.055l.211,1.172h.063a2.648,2.648,0,0,1,1.117-.98,3.63,3.63,0,0,1,1.6-.348,3.252,3.252,0,0,1,2.328.746,3.175,3.175,0,0,1,.781,2.387V0ZM42.82.156A3.654,3.654,0,0,1,39.941-.988a4.707,4.707,0,0,1-1.02-3.238,4.853,4.853,0,0,1,1.035-3.32,3.727,3.727,0,0,1,2.949-1.172,5.852,5.852,0,0,1,1.234.133,4.066,4.066,0,0,1,.969.313l-.4,1.1a6.1,6.1,0,0,0-.937-.285,4.186,4.186,0,0,0-.9-.113q-2.609,0-2.609,3.328A3.963,3.963,0,0,0,40.9-1.82a2.215,2.215,0,0,0,1.887.844,5.769,5.769,0,0,0,2.2-.461V-.289A4.679,4.679,0,0,1,42.82.156ZM48.313,0h-1.3V-12.156h1.3Zm8.016,0L56.07-1.219h-.062A3.6,3.6,0,0,1,54.73-.129a3.893,3.893,0,0,1-1.59.285,2.86,2.86,0,0,1-2-.656,2.394,2.394,0,0,1-.723-1.867q0-2.594,4.148-2.719l1.453-.047v-.531a2.171,2.171,0,0,0-.434-1.488,1.783,1.783,0,0,0-1.387-.48,5.65,5.65,0,0,0-2.422.656l-.4-.992a6.094,6.094,0,0,1,1.387-.539,6.006,6.006,0,0,1,1.512-.2,3.262,3.262,0,0,1,2.27.68,2.837,2.837,0,0,1,.738,2.18V0ZM53.4-.914a2.632,2.632,0,0,0,1.9-.664,2.457,2.457,0,0,0,.691-1.859v-.773l-1.3.055a4.717,4.717,0,0,0-2.23.48,1.449,1.449,0,0,0-.684,1.324,1.336,1.336,0,0,0,.426,1.07A1.767,1.767,0,0,0,53.4-.914ZM59.242-3.7V-4.883h3.836V-3.7ZM68.727.156A3.934,3.934,0,0,1,65.73-1a4.476,4.476,0,0,1-1.1-3.211A4.964,4.964,0,0,1,65.652-7.5a3.387,3.387,0,0,1,2.738-1.219A3.229,3.229,0,0,1,70.938-7.66a4.057,4.057,0,0,1,.938,2.793v.82h-5.9a3.394,3.394,0,0,0,.762,2.289,2.635,2.635,0,0,0,2.035.781,6.9,6.9,0,0,0,2.734-.578V-.4a6.863,6.863,0,0,1-1.3.426A7.31,7.31,0,0,1,68.727.156Zm-.352-7.789a2.118,2.118,0,0,0-1.645.672A3.1,3.1,0,0,0,66.008-5.1h4.477a2.851,2.851,0,0,0-.547-1.879A1.925,1.925,0,0,0,68.375-7.633ZM79.945,0V-5.539A2.235,2.235,0,0,0,79.469-7.1a1.941,1.941,0,0,0-1.492-.516,2.461,2.461,0,0,0-1.969.727,3.668,3.668,0,0,0-.625,2.4V0h-1.3V-8.562h1.055l.211,1.172h.063a2.648,2.648,0,0,1,1.117-.98,3.63,3.63,0,0,1,1.6-.348,3.252,3.252,0,0,1,2.328.746,3.175,3.175,0,0,1,.781,2.387V0ZM85.2,0h-1.3V-12.156h1.3Zm8.016,0-.258-1.219H92.9a3.6,3.6,0,0,1-1.277,1.09,3.893,3.893,0,0,1-1.59.285,2.86,2.86,0,0,1-2-.656,2.394,2.394,0,0,1-.723-1.867q0-2.594,4.148-2.719l1.453-.047v-.531a2.171,2.171,0,0,0-.434-1.488,1.783,1.783,0,0,0-1.387-.48,5.65,5.65,0,0,0-2.422.656l-.4-.992a6.094,6.094,0,0,1,1.387-.539,6.006,6.006,0,0,1,1.512-.2,3.262,3.262,0,0,1,2.27.68,2.837,2.837,0,0,1,.738,2.18V0Zm-2.93-.914a2.632,2.632,0,0,0,1.9-.664,2.457,2.457,0,0,0,.691-1.859v-.773l-1.3.055a4.717,4.717,0,0,0-2.23.48,1.449,1.449,0,0,0-.684,1.324,1.336,1.336,0,0,0,.426,1.07A1.767,1.767,0,0,0,90.289-.914Zm9.984,1.07A3.654,3.654,0,0,1,97.395-.988a4.707,4.707,0,0,1-1.02-3.238,4.853,4.853,0,0,1,1.035-3.32,3.727,3.727,0,0,1,2.949-1.172,5.852,5.852,0,0,1,1.234.133,4.066,4.066,0,0,1,.969.313l-.4,1.1a6.1,6.1,0,0,0-.937-.285,4.186,4.186,0,0,0-.9-.113q-2.609,0-2.609,3.328a3.963,3.963,0,0,0,.637,2.422,2.215,2.215,0,0,0,1.887.844,5.769,5.769,0,0,0,2.2-.461V-.289A4.679,4.679,0,0,1,100.273.156Zm7.813,0a3.934,3.934,0,0,1-3-1.156,4.476,4.476,0,0,1-1.1-3.211,4.964,4.964,0,0,1,1.02-3.289,3.387,3.387,0,0,1,2.738-1.219A3.229,3.229,0,0,1,110.3-7.66a4.057,4.057,0,0,1,.938,2.793v.82h-5.9a3.394,3.394,0,0,0,.762,2.289,2.635,2.635,0,0,0,2.035.781,6.9,6.9,0,0,0,2.734-.578V-.4a6.863,6.863,0,0,1-1.3.426A7.31,7.31,0,0,1,108.086.156Zm-.352-7.789a2.118,2.118,0,0,0-1.645.672,3.1,3.1,0,0,0-.723,1.859h4.477A2.851,2.851,0,0,0,109.3-6.98,1.925,1.925,0,0,0,107.734-7.633ZM0,1H112.07V2H0Z" transform="translate(-10937.5 -16046.963)" fill="#007bc7"/>
    <path id="Path_31943" data-name="Path 31943" d="M1,0H113a1,1,0,0,1,1,1V21a1,1,0,0,1-1,1H1a1,1,0,0,1-1-1V1A1,1,0,0,1,1,0Z" transform="translate(-10938.5 -16097.963)" fill="none"/>
    <path id="Path_31944" data-name="Path 31944" d="M5.586,0H4.32V-8.141q0-1.016.063-1.922-.164.164-.367.344T2.156-8.2l-.687-.891,3.023-2.336H5.586Zm9.047-8.867a2.811,2.811,0,0,1-.668,2,2.4,2.4,0,0,1-1.84.715,2.311,2.311,0,0,1-1.8-.727,2.84,2.84,0,0,1-.66-1.984,2.8,2.8,0,0,1,.656-1.98,2.381,2.381,0,0,1,1.836-.707,2.346,2.346,0,0,1,1.832.711A2.836,2.836,0,0,1,14.633-8.867Zm-4.016,0a2.38,2.38,0,0,0,.355,1.43,1.362,1.362,0,0,0,1.168.477,1.383,1.383,0,0,0,1.18-.477,2.36,2.36,0,0,0,.359-1.43,2.3,2.3,0,0,0-.359-1.422,1.405,1.405,0,0,0-1.18-.461,1.386,1.386,0,0,0-1.164.461A2.3,2.3,0,0,0,10.617-8.867ZM25.945,0l-.258-1.219h-.062a3.6,3.6,0,0,1-1.277,1.09,3.893,3.893,0,0,1-1.59.285,2.86,2.86,0,0,1-2-.656,2.394,2.394,0,0,1-.723-1.867q0-2.594,4.148-2.719l1.453-.047v-.531a2.171,2.171,0,0,0-.434-1.488,1.783,1.783,0,0,0-1.387-.48,5.65,5.65,0,0,0-2.422.656L21-7.969a6.094,6.094,0,0,1,1.387-.539A6.006,6.006,0,0,1,23.9-8.7a3.262,3.262,0,0,1,2.27.68,2.837,2.837,0,0,1,.738,2.18V0Zm-2.93-.914a2.632,2.632,0,0,0,1.9-.664,2.457,2.457,0,0,0,.691-1.859v-.773l-1.3.055a4.717,4.717,0,0,0-2.23.48A1.449,1.449,0,0,0,21.4-2.352a1.336,1.336,0,0,0,.426,1.07A1.767,1.767,0,0,0,23.016-.914ZM35.438,0V-5.539A2.235,2.235,0,0,0,34.961-7.1a1.941,1.941,0,0,0-1.492-.516,2.461,2.461,0,0,0-1.969.727,3.668,3.668,0,0,0-.625,2.4V0h-1.3V-8.562h1.055l.211,1.172h.063a2.648,2.648,0,0,1,1.117-.98,3.63,3.63,0,0,1,1.6-.348,3.252,3.252,0,0,1,2.328.746,3.175,3.175,0,0,1,.781,2.387V0ZM42.82.156A3.654,3.654,0,0,1,39.941-.988a4.707,4.707,0,0,1-1.02-3.238,4.853,4.853,0,0,1,1.035-3.32,3.727,3.727,0,0,1,2.949-1.172,5.852,5.852,0,0,1,1.234.133,4.066,4.066,0,0,1,.969.313l-.4,1.1a6.1,6.1,0,0,0-.937-.285,4.186,4.186,0,0,0-.9-.113q-2.609,0-2.609,3.328A3.963,3.963,0,0,0,40.9-1.82a2.215,2.215,0,0,0,1.887.844,5.769,5.769,0,0,0,2.2-.461V-.289A4.679,4.679,0,0,1,42.82.156ZM48.313,0h-1.3V-12.156h1.3Zm8.016,0L56.07-1.219h-.062A3.6,3.6,0,0,1,54.73-.129a3.893,3.893,0,0,1-1.59.285,2.86,2.86,0,0,1-2-.656,2.394,2.394,0,0,1-.723-1.867q0-2.594,4.148-2.719l1.453-.047v-.531a2.171,2.171,0,0,0-.434-1.488,1.783,1.783,0,0,0-1.387-.48,5.65,5.65,0,0,0-2.422.656l-.4-.992a6.094,6.094,0,0,1,1.387-.539,6.006,6.006,0,0,1,1.512-.2,3.262,3.262,0,0,1,2.27.68,2.837,2.837,0,0,1,.738,2.18V0ZM53.4-.914a2.632,2.632,0,0,0,1.9-.664,2.457,2.457,0,0,0,.691-1.859v-.773l-1.3.055a4.717,4.717,0,0,0-2.23.48,1.449,1.449,0,0,0-.684,1.324,1.336,1.336,0,0,0,.426,1.07A1.767,1.767,0,0,0,53.4-.914ZM59.242-3.7V-4.883h3.836V-3.7ZM68.727.156A3.934,3.934,0,0,1,65.73-1a4.476,4.476,0,0,1-1.1-3.211A4.964,4.964,0,0,1,65.652-7.5a3.387,3.387,0,0,1,2.738-1.219A3.229,3.229,0,0,1,70.938-7.66a4.057,4.057,0,0,1,.938,2.793v.82h-5.9a3.394,3.394,0,0,0,.762,2.289,2.635,2.635,0,0,0,2.035.781,6.9,6.9,0,0,0,2.734-.578V-.4a6.863,6.863,0,0,1-1.3.426A7.31,7.31,0,0,1,68.727.156Zm-.352-7.789a2.118,2.118,0,0,0-1.645.672A3.1,3.1,0,0,0,66.008-5.1h4.477a2.851,2.851,0,0,0-.547-1.879A1.925,1.925,0,0,0,68.375-7.633ZM79.945,0V-5.539A2.235,2.235,0,0,0,79.469-7.1a1.941,1.941,0,0,0-1.492-.516,2.461,2.461,0,0,0-1.969.727,3.668,3.668,0,0,0-.625,2.4V0h-1.3V-8.562h1.055l.211,1.172h.063a2.648,2.648,0,0,1,1.117-.98,3.63,3.63,0,0,1,1.6-.348,3.252,3.252,0,0,1,2.328.746,3.175,3.175,0,0,1,.781,2.387V0ZM85.2,0h-1.3V-12.156h1.3Zm8.016,0-.258-1.219H92.9a3.6,3.6,0,0,1-1.277,1.09,3.893,3.893,0,0,1-1.59.285,2.86,2.86,0,0,1-2-.656,2.394,2.394,0,0,1-.723-1.867q0-2.594,4.148-2.719l1.453-.047v-.531a2.171,2.171,0,0,0-.434-1.488,1.783,1.783,0,0,0-1.387-.48,5.65,5.65,0,0,0-2.422.656l-.4-.992a6.094,6.094,0,0,1,1.387-.539,6.006,6.006,0,0,1,1.512-.2,3.262,3.262,0,0,1,2.27.68,2.837,2.837,0,0,1,.738,2.18V0Zm-2.93-.914a2.632,2.632,0,0,0,1.9-.664,2.457,2.457,0,0,0,.691-1.859v-.773l-1.3.055a4.717,4.717,0,0,0-2.23.48,1.449,1.449,0,0,0-.684,1.324,1.336,1.336,0,0,0,.426,1.07A1.767,1.767,0,0,0,90.289-.914Zm9.984,1.07A3.654,3.654,0,0,1,97.395-.988a4.707,4.707,0,0,1-1.02-3.238,4.853,4.853,0,0,1,1.035-3.32,3.727,3.727,0,0,1,2.949-1.172,5.852,5.852,0,0,1,1.234.133,4.066,4.066,0,0,1,.969.313l-.4,1.1a6.1,6.1,0,0,0-.937-.285,4.186,4.186,0,0,0-.9-.113q-2.609,0-2.609,3.328a3.963,3.963,0,0,0,.637,2.422,2.215,2.215,0,0,0,1.887.844,5.769,5.769,0,0,0,2.2-.461V-.289A4.679,4.679,0,0,1,100.273.156Zm7.813,0a3.934,3.934,0,0,1-3-1.156,4.476,4.476,0,0,1-1.1-3.211,4.964,4.964,0,0,1,1.02-3.289,3.387,3.387,0,0,1,2.738-1.219A3.229,3.229,0,0,1,110.3-7.66a4.057,4.057,0,0,1,.938,2.793v.82h-5.9a3.394,3.394,0,0,0,.762,2.289,2.635,2.635,0,0,0,2.035.781,6.9,6.9,0,0,0,2.734-.578V-.4a6.863,6.863,0,0,1-1.3.426A7.31,7.31,0,0,1,108.086.156Zm-.352-7.789a2.118,2.118,0,0,0-1.645.672,3.1,3.1,0,0,0-.723,1.859h4.477A2.851,2.851,0,0,0,109.3-6.98,1.925,1.925,0,0,0,107.734-7.633ZM0,1H112.07V2H0Z" transform="translate(-10937.5 -16080.963)" fill="#007bc7"/>
    <path id="Line_591" data-name="Line 591" d="M525.5.5H0v-1H525.5Z" transform="translate(-10938.5 -16109.963)" fill="#dfe7f0"/>
    <path id="Path_31942" data-name="Path 31942" d="M7.391.152A6.547,6.547,0,0,1,4.047-.675,5.445,5.445,0,0,1,1.862-3.049,8.216,8.216,0,0,1,1.1-6.707a8.17,8.17,0,0,1,.76-3.639A5.445,5.445,0,0,1,4.047-12.72a6.547,6.547,0,0,1,3.344-.826,7.185,7.185,0,0,1,2.375.389,5.769,5.769,0,0,1,1.957,1.13.919.919,0,0,1,.361.76.9.9,0,0,1-.19.58.568.568,0,0,1-.456.238.986.986,0,0,1-.627-.247,6.727,6.727,0,0,0-1.662-.959,4.912,4.912,0,0,0-1.7-.276,3.939,3.939,0,0,0-3.211,1.349A5.916,5.916,0,0,0,3.116-6.707,5.949,5.949,0,0,0,4.237-2.812,3.939,3.939,0,0,0,7.448-1.463a4.649,4.649,0,0,0,1.663-.285,8.053,8.053,0,0,0,1.7-.95,1.246,1.246,0,0,1,.627-.247.568.568,0,0,1,.456.237.9.9,0,0,1,.19.579.919.919,0,0,1-.361.76A5.769,5.769,0,0,1,9.766-.237,7.185,7.185,0,0,1,7.391.152ZM18.012.133a4.777,4.777,0,0,1-2.4-.589,3.974,3.974,0,0,1-1.6-1.682,5.483,5.483,0,0,1-.561-2.537,5.527,5.527,0,0,1,.561-2.555,3.974,3.974,0,0,1,1.6-1.682,4.777,4.777,0,0,1,2.4-.589,4.777,4.777,0,0,1,2.4.589,3.974,3.974,0,0,1,1.6,1.682,5.527,5.527,0,0,1,.56,2.555,5.483,5.483,0,0,1-.56,2.537,3.974,3.974,0,0,1-1.6,1.682A4.777,4.777,0,0,1,18.012.133Zm0-1.52a2.356,2.356,0,0,0,1.947-.836,3.832,3.832,0,0,0,.674-2.451,3.8,3.8,0,0,0-.684-2.441,2.35,2.35,0,0,0-1.938-.845,2.35,2.35,0,0,0-1.938.845,3.8,3.8,0,0,0-.684,2.441,3.832,3.832,0,0,0,.675,2.451A2.356,2.356,0,0,0,18.012-1.387ZM29.678-9.5Q33-9.5,33-5.757v4.94a.874.874,0,0,1-.257.675,1.009,1.009,0,0,1-.712.237.958.958,0,0,1-.694-.247.88.88,0,0,1-.257-.665V-5.662a2.649,2.649,0,0,0-.465-1.729,1.8,1.8,0,0,0-1.453-.551A2.481,2.481,0,0,0,27.3-7.22a2.659,2.659,0,0,0-.7,1.938V-.817a.88.88,0,0,1-.257.665.958.958,0,0,1-.694.247.992.992,0,0,1-.7-.247.864.864,0,0,1-.266-.665V-8.55a.856.856,0,0,1,.275-.655.978.978,0,0,1,.694-.257.9.9,0,0,1,.665.247.874.874,0,0,1,.247.646v.779a3.083,3.083,0,0,1,1.273-1.273A3.845,3.845,0,0,1,29.678-9.5ZM40.147-1.368a.953.953,0,0,1,.6.218.681.681,0,0,1,.181.5.656.656,0,0,1-.295.58,1.375,1.375,0,0,1-.864.161L39.254.057a3.327,3.327,0,0,1-2.3-.941,3.492,3.492,0,0,1-.76-2.442V-7.79h-1.14q-.836,0-.836-.741a.7.7,0,0,1,.218-.542.883.883,0,0,1,.618-.2h1.14v-1.957a.9.9,0,0,1,.257-.684.958.958,0,0,1,.694-.247.992.992,0,0,1,.7.247.887.887,0,0,1,.266.684v1.957H40a.883.883,0,0,1,.618.2.7.7,0,0,1,.218.542.691.691,0,0,1-.218.551A.912.912,0,0,1,40-7.79H38.114v4.6a1.941,1.941,0,0,0,.37,1.311,1.6,1.6,0,0,0,1.131.475Zm9.405-.969a.54.54,0,0,1,.437.209.813.813,0,0,1,.171.532,1.093,1.093,0,0,1-.684.931,6.027,6.027,0,0,1-1.454.589,5.894,5.894,0,0,1-1.51.209A4.679,4.679,0,0,1,43.035-1.15a4.757,4.757,0,0,1-1.273-3.506,5.5,5.5,0,0,1,.561-2.527A4.121,4.121,0,0,1,43.9-8.892,4.41,4.41,0,0,1,46.208-9.5a3.773,3.773,0,0,1,2.945,1.2,4.633,4.633,0,0,1,1.083,3.23q0,.76-.684.76H43.681q.19,2.945,2.831,2.945a3.5,3.5,0,0,0,1.216-.19,8.844,8.844,0,0,0,1.083-.494q.057-.038.313-.161A1.037,1.037,0,0,1,49.552-2.337ZM46.246-8.094a2.318,2.318,0,0,0-1.767.7,3.283,3.283,0,0,0-.8,1.976h4.9A3.176,3.176,0,0,0,47.928-7.4,2.1,2.1,0,0,0,46.246-8.094ZM57.323-9.5q3.325,0,3.325,3.743v4.94a.874.874,0,0,1-.257.675,1.009,1.009,0,0,1-.713.237.958.958,0,0,1-.694-.247.88.88,0,0,1-.256-.665V-5.662a2.649,2.649,0,0,0-.466-1.729,1.8,1.8,0,0,0-1.453-.551,2.481,2.481,0,0,0-1.862.722,2.659,2.659,0,0,0-.7,1.938V-.817a.88.88,0,0,1-.257.665.958.958,0,0,1-.694.247.992.992,0,0,1-.7-.247.864.864,0,0,1-.266-.665V-8.55a.856.856,0,0,1,.275-.655.978.978,0,0,1,.694-.257.9.9,0,0,1,.665.247.874.874,0,0,1,.247.646v.779A3.083,3.083,0,0,1,55.48-9.063,3.845,3.845,0,0,1,57.323-9.5ZM64.22.095a1.051,1.051,0,0,1-.694-.228.837.837,0,0,1-.275-.684V-8.531a.866.866,0,0,1,.275-.693,1.024,1.024,0,0,1,.694-.238.988.988,0,0,1,.684.238.881.881,0,0,1,.266.693V-.817a.851.851,0,0,1-.266.684A1.014,1.014,0,0,1,64.22.095Zm0-11.419a1.224,1.224,0,0,1-.874-.3,1.045,1.045,0,0,1-.323-.8,1.015,1.015,0,0,1,.323-.789,1.248,1.248,0,0,1,.874-.295,1.255,1.255,0,0,1,.865.295,1,1,0,0,1,.332.789,1.045,1.045,0,0,1-.323.8A1.224,1.224,0,0,1,64.22-11.324ZM75.411-13.49a.992.992,0,0,1,.7.247.864.864,0,0,1,.266.665V-.836a.9.9,0,0,1-.257.684.958.958,0,0,1-.693.247.958.958,0,0,1-.694-.247.9.9,0,0,1-.257-.684V-1.6A2.94,2.94,0,0,1,73.264-.313a3.711,3.711,0,0,1-1.843.446,3.851,3.851,0,0,1-2.137-.608,4.042,4.042,0,0,1-1.463-1.71A5.832,5.832,0,0,1,67.3-4.712a5.754,5.754,0,0,1,.523-2.527,3.958,3.958,0,0,1,1.453-1.672A3.93,3.93,0,0,1,71.421-9.5a3.657,3.657,0,0,1,1.834.446A2.979,2.979,0,0,1,74.461-7.79v-4.826a.826.826,0,0,1,.257-.637A.981.981,0,0,1,75.411-13.49Zm-3.534,12.1A2.318,2.318,0,0,0,73.8-2.242a3.808,3.808,0,0,0,.684-2.432,3.846,3.846,0,0,0-.674-2.432,2.312,2.312,0,0,0-1.928-.855,2.378,2.378,0,0,0-1.948.845,3.7,3.7,0,0,0-.693,2.4,3.823,3.823,0,0,0,.7,2.441A2.34,2.34,0,0,0,71.877-1.387ZM83.068.133a4.777,4.777,0,0,1-2.4-.589,3.974,3.974,0,0,1-1.6-1.682,5.483,5.483,0,0,1-.561-2.537,5.527,5.527,0,0,1,.561-2.555,3.974,3.974,0,0,1,1.6-1.682,4.777,4.777,0,0,1,2.4-.589,4.777,4.777,0,0,1,2.4.589,3.974,3.974,0,0,1,1.6,1.682,5.527,5.527,0,0,1,.561,2.555,5.483,5.483,0,0,1-.561,2.537,3.974,3.974,0,0,1-1.6,1.682A4.777,4.777,0,0,1,83.068.133Zm0-1.52a2.356,2.356,0,0,0,1.948-.836,3.832,3.832,0,0,0,.674-2.451,3.8,3.8,0,0,0-.684-2.441,2.35,2.35,0,0,0-1.938-.845,2.35,2.35,0,0,0-1.938.845,3.8,3.8,0,0,0-.684,2.441,3.832,3.832,0,0,0,.674,2.451A2.356,2.356,0,0,0,83.068-1.387Zm18.924-.95a.54.54,0,0,1,.437.209.813.813,0,0,1,.171.532,1.093,1.093,0,0,1-.684.931,6.027,6.027,0,0,1-1.453.589,5.894,5.894,0,0,1-1.511.209A4.679,4.679,0,0,1,95.475-1.15,4.757,4.757,0,0,1,94.2-4.655a5.5,5.5,0,0,1,.561-2.527,4.121,4.121,0,0,1,1.577-1.71A4.41,4.41,0,0,1,98.648-9.5a3.773,3.773,0,0,1,2.945,1.2,4.633,4.633,0,0,1,1.083,3.23q0,.76-.684.76H96.121q.19,2.945,2.831,2.945a3.5,3.5,0,0,0,1.216-.19,8.843,8.843,0,0,0,1.083-.494q.057-.038.313-.161A1.037,1.037,0,0,1,101.992-2.337ZM98.686-8.094a2.318,2.318,0,0,0-1.767.7,3.283,3.283,0,0,0-.8,1.976h4.9a3.176,3.176,0,0,0-.656-1.985A2.1,2.1,0,0,0,98.686-8.094ZM109.763-9.5q3.325,0,3.325,3.743v4.94a.874.874,0,0,1-.257.675,1.009,1.009,0,0,1-.713.237.958.958,0,0,1-.693-.247.88.88,0,0,1-.257-.665V-5.662a2.649,2.649,0,0,0-.465-1.729,1.8,1.8,0,0,0-1.453-.551,2.481,2.481,0,0,0-1.862.722,2.659,2.659,0,0,0-.7,1.938V-.817a.88.88,0,0,1-.257.665.958.958,0,0,1-.693.247.992.992,0,0,1-.7-.247.864.864,0,0,1-.266-.665V-8.55a.856.856,0,0,1,.275-.655.978.978,0,0,1,.694-.257.9.9,0,0,1,.665.247.874.874,0,0,1,.247.646v.779a3.082,3.082,0,0,1,1.273-1.273A3.845,3.845,0,0,1,109.763-9.5Zm18.183,7.163a.54.54,0,0,1,.437.209.813.813,0,0,1,.171.532,1.093,1.093,0,0,1-.684.931,6.027,6.027,0,0,1-1.453.589,5.894,5.894,0,0,1-1.511.209,4.679,4.679,0,0,1-3.477-1.283,4.757,4.757,0,0,1-1.273-3.506,5.5,5.5,0,0,1,.561-2.527,4.121,4.121,0,0,1,1.577-1.71A4.41,4.41,0,0,1,124.6-9.5a3.773,3.773,0,0,1,2.945,1.2,4.633,4.633,0,0,1,1.083,3.23q0,.76-.684.76h-5.871q.19,2.945,2.831,2.945a3.5,3.5,0,0,0,1.216-.19,8.843,8.843,0,0,0,1.083-.494q.057-.038.313-.161A1.037,1.037,0,0,1,127.946-2.337ZM124.64-8.094a2.318,2.318,0,0,0-1.767.7,3.283,3.283,0,0,0-.8,1.976h4.9a3.176,3.176,0,0,0-.656-1.985A2.1,2.1,0,0,0,124.64-8.094ZM133.95.133a5.75,5.75,0,0,1-3.173-.8,1.444,1.444,0,0,1-.484-.437.948.948,0,0,1-.143-.513.784.784,0,0,1,.171-.513.54.54,0,0,1,.437-.209,1.873,1.873,0,0,1,.779.3,7.992,7.992,0,0,0,1.111.494,4.152,4.152,0,0,0,1.359.19,2.668,2.668,0,0,0,1.425-.323,1.02,1.02,0,0,0,.513-.912.89.89,0,0,0-.2-.608,1.691,1.691,0,0,0-.693-.409,11.832,11.832,0,0,0-1.463-.389,5.637,5.637,0,0,1-2.4-.979,2.085,2.085,0,0,1-.732-1.681,2.449,2.449,0,0,1,.475-1.473,3.085,3.085,0,0,1,1.311-1.016,4.75,4.75,0,0,1,1.9-.361,5.539,5.539,0,0,1,1.482.2,4.186,4.186,0,0,1,1.273.58,1.178,1.178,0,0,1,.627.969.757.757,0,0,1-.181.513.548.548,0,0,1-.427.209.836.836,0,0,1-.342-.076,4.513,4.513,0,0,1-.456-.247,6.381,6.381,0,0,0-.96-.475A3.13,3.13,0,0,0,134.045-8a2.18,2.18,0,0,0-1.283.342,1.081,1.081,0,0,0-.484.931.936.936,0,0,0,.447.826,5.474,5.474,0,0,0,1.682.561,9.214,9.214,0,0,1,1.995.608,2.364,2.364,0,0,1,1.035.845A2.39,2.39,0,0,1,137.75-2.6a2.338,2.338,0,0,1-1.036,1.985A4.613,4.613,0,0,1,133.95.133Zm10.355-1.5a.953.953,0,0,1,.6.218.681.681,0,0,1,.18.5.656.656,0,0,1-.294.58,1.375,1.375,0,0,1-.865.161l-.513-.038a3.327,3.327,0,0,1-2.3-.941,3.492,3.492,0,0,1-.76-2.442V-7.79h-1.14q-.836,0-.836-.741a.7.7,0,0,1,.219-.542.883.883,0,0,1,.618-.2h1.14v-1.957a.9.9,0,0,1,.257-.684.958.958,0,0,1,.693-.247.992.992,0,0,1,.7.247.887.887,0,0,1,.266.684v1.957h1.881a.883.883,0,0,1,.618.2.7.7,0,0,1,.218.542.691.691,0,0,1-.218.551.912.912,0,0,1-.618.19h-1.881v4.6a1.941,1.941,0,0,0,.37,1.311,1.6,1.6,0,0,0,1.131.475ZM150.347-9.5a3.664,3.664,0,0,1,2.745.931,3.927,3.927,0,0,1,.9,2.831V-.817a.892.892,0,0,1-.247.675.946.946,0,0,1-.684.237.9.9,0,0,1-.665-.247.9.9,0,0,1-.247-.665v-.7a2.673,2.673,0,0,1-1.074,1.225,3.169,3.169,0,0,1-1.662.427,3.764,3.764,0,0,1-1.672-.37,2.872,2.872,0,0,1-1.187-1.036,2.683,2.683,0,0,1-.427-1.482,2.282,2.282,0,0,1,.522-1.586,3.116,3.116,0,0,1,1.729-.827,17.367,17.367,0,0,1,3.316-.247h.437v-.551a2.234,2.234,0,0,0-.437-1.539,1.83,1.83,0,0,0-1.406-.475,4.477,4.477,0,0,0-1.254.171,9.428,9.428,0,0,0-1.292.494,1.862,1.862,0,0,1-.722.285.587.587,0,0,1-.465-.209.785.785,0,0,1-.18-.532.825.825,0,0,1,.161-.5,1.7,1.7,0,0,1,.523-.427,6.5,6.5,0,0,1,1.558-.58A7.266,7.266,0,0,1,150.347-9.5Zm-.589,8.208A2.234,2.234,0,0,0,151.468-2a2.58,2.58,0,0,0,.665-1.834v-.494h-.342a14.8,14.8,0,0,0-2.28.133,2.237,2.237,0,0,0-1.14.446,1.163,1.163,0,0,0-.342.9,1.429,1.429,0,0,0,.494,1.121A1.8,1.8,0,0,0,149.758-1.292ZM166.573-9.5a3.851,3.851,0,0,1,2.137.608,4.042,4.042,0,0,1,1.463,1.71,5.879,5.879,0,0,1,.523,2.546,5.8,5.8,0,0,1-.513,2.508,3.874,3.874,0,0,1-1.454,1.672,3.977,3.977,0,0,1-2.156.589,3.711,3.711,0,0,1-1.843-.446A2.94,2.94,0,0,1,163.514-1.6V2.641a.826.826,0,0,1-.257.636.953.953,0,0,1-.674.238,1.027,1.027,0,0,1-.712-.247A.849.849,0,0,1,161.6,2.6V-8.531a.894.894,0,0,1,.266-.674.97.97,0,0,1,.7-.257.945.945,0,0,1,.684.257.894.894,0,0,1,.266.674v.779a3,3,0,0,1,1.216-1.292A3.649,3.649,0,0,1,166.573-9.5Zm-.456,8.113a2.35,2.35,0,0,0,1.938-.846,3.733,3.733,0,0,0,.684-2.4,3.853,3.853,0,0,0-.693-2.451,2.324,2.324,0,0,0-1.928-.874,2.312,2.312,0,0,0-1.929.855,3.846,3.846,0,0,0-.674,2.432,3.846,3.846,0,0,0,.674,2.432A2.312,2.312,0,0,0,166.117-1.387ZM176.7-9.5a3.664,3.664,0,0,1,2.745.931,3.927,3.927,0,0,1,.9,2.831V-.817a.892.892,0,0,1-.247.675.946.946,0,0,1-.684.237.9.9,0,0,1-.665-.247.9.9,0,0,1-.247-.665v-.7a2.673,2.673,0,0,1-1.074,1.225,3.169,3.169,0,0,1-1.662.427,3.764,3.764,0,0,1-1.672-.37,2.872,2.872,0,0,1-1.187-1.036,2.683,2.683,0,0,1-.427-1.482A2.282,2.282,0,0,1,173-4.341a3.116,3.116,0,0,1,1.729-.827,17.367,17.367,0,0,1,3.316-.247h.437v-.551a2.234,2.234,0,0,0-.437-1.539,1.83,1.83,0,0,0-1.406-.475,4.477,4.477,0,0,0-1.254.171,9.428,9.428,0,0,0-1.292.494,1.862,1.862,0,0,1-.722.285.587.587,0,0,1-.465-.209.785.785,0,0,1-.18-.532.825.825,0,0,1,.161-.5,1.7,1.7,0,0,1,.523-.427,6.5,6.5,0,0,1,1.558-.58A7.266,7.266,0,0,1,176.7-9.5Zm-.589,8.208A2.234,2.234,0,0,0,177.821-2a2.58,2.58,0,0,0,.665-1.834v-.494h-.342a14.8,14.8,0,0,0-2.28.133,2.237,2.237,0,0,0-1.14.446,1.163,1.163,0,0,0-.342.9,1.429,1.429,0,0,0,.494,1.121A1.8,1.8,0,0,0,176.111-1.292Zm.988-9.234a.53.53,0,0,1-.361.133.525.525,0,0,1-.37-.152.479.479,0,0,1-.161-.361.506.506,0,0,1,.133-.342l2.052-2.679a1.084,1.084,0,0,1,.874-.513.826.826,0,0,1,.608.247.8.8,0,0,1,.247.589,1.073,1.073,0,0,1-.456.817Zm13.528,1.064a.937.937,0,0,1,.693.257.912.912,0,0,1,.257.674v7.79a4.246,4.246,0,0,1-1.13,3.211,4.644,4.644,0,0,1-3.335,1.083,6.831,6.831,0,0,1-3.42-.779,1.133,1.133,0,0,1-.7-.95.785.785,0,0,1,.18-.532.567.567,0,0,1,.447-.209,1.952,1.952,0,0,1,.779.285,9.59,9.59,0,0,0,1.273.5,4.83,4.83,0,0,0,1.406.181A2.326,2.326,0,0,0,189.7-.589V-2.052a2.911,2.911,0,0,1-1.216,1.3,3.771,3.771,0,0,1-1.9.466,4.127,4.127,0,0,1-2.166-.57,3.834,3.834,0,0,1-1.473-1.615,5.327,5.327,0,0,1-.522-2.413,5.248,5.248,0,0,1,.532-2.413,3.982,3.982,0,0,1,1.473-1.624,4.027,4.027,0,0,1,2.156-.58,3.741,3.741,0,0,1,1.872.456,2.982,2.982,0,0,1,1.225,1.292v-.8a.88.88,0,0,1,.257-.665A.958.958,0,0,1,190.627-9.462ZM187.036-1.8a2.421,2.421,0,0,0,1.938-.817,3.356,3.356,0,0,0,.7-2.261,3.394,3.394,0,0,0-.693-2.252,2.4,2.4,0,0,0-1.948-.826,2.472,2.472,0,0,0-1.966.817,3.326,3.326,0,0,0-.713,2.261,3.3,3.3,0,0,0,.722,2.261A2.479,2.479,0,0,0,187.036-1.8Zm8.17,1.9a1.051,1.051,0,0,1-.693-.228.837.837,0,0,1-.275-.684V-8.531a.866.866,0,0,1,.275-.693,1.024,1.024,0,0,1,.693-.238.988.988,0,0,1,.684.238.881.881,0,0,1,.266.693V-.817a.851.851,0,0,1-.266.684A1.014,1.014,0,0,1,195.206.095Zm0-11.419a1.224,1.224,0,0,1-.874-.3,1.045,1.045,0,0,1-.323-.8,1.015,1.015,0,0,1,.323-.789,1.248,1.248,0,0,1,.874-.295,1.255,1.255,0,0,1,.865.295,1,1,0,0,1,.333.789,1.045,1.045,0,0,1-.323.8A1.224,1.224,0,0,1,195.206-11.324ZM203.813-9.5q3.325,0,3.325,3.743v4.94a.874.874,0,0,1-.257.675,1.009,1.009,0,0,1-.713.237.958.958,0,0,1-.693-.247.88.88,0,0,1-.257-.665V-5.662a2.649,2.649,0,0,0-.465-1.729,1.8,1.8,0,0,0-1.454-.551,2.481,2.481,0,0,0-1.862.722,2.659,2.659,0,0,0-.7,1.938V-.817a.88.88,0,0,1-.257.665.958.958,0,0,1-.693.247.992.992,0,0,1-.7-.247.864.864,0,0,1-.266-.665V-8.55a.856.856,0,0,1,.275-.655.978.978,0,0,1,.693-.257.9.9,0,0,1,.665.247.874.874,0,0,1,.247.646v.779a3.083,3.083,0,0,1,1.273-1.273A3.845,3.845,0,0,1,203.813-9.5Zm9.823,0a3.664,3.664,0,0,1,2.745.931,3.927,3.927,0,0,1,.9,2.831V-.817a.892.892,0,0,1-.247.675.946.946,0,0,1-.684.237.9.9,0,0,1-.665-.247.9.9,0,0,1-.247-.665v-.7a2.673,2.673,0,0,1-1.074,1.225,3.169,3.169,0,0,1-1.662.427,3.764,3.764,0,0,1-1.672-.37,2.872,2.872,0,0,1-1.187-1.036,2.683,2.683,0,0,1-.427-1.482,2.282,2.282,0,0,1,.522-1.586,3.116,3.116,0,0,1,1.729-.827,17.367,17.367,0,0,1,3.316-.247h.437v-.551a2.234,2.234,0,0,0-.437-1.539,1.83,1.83,0,0,0-1.406-.475,4.477,4.477,0,0,0-1.254.171,9.428,9.428,0,0,0-1.292.494,1.862,1.862,0,0,1-.722.285.587.587,0,0,1-.465-.209.785.785,0,0,1-.18-.532.825.825,0,0,1,.161-.5,1.7,1.7,0,0,1,.523-.427,6.5,6.5,0,0,1,1.558-.58A7.266,7.266,0,0,1,213.636-9.5Zm-.589,8.208A2.234,2.234,0,0,0,214.757-2a2.58,2.58,0,0,0,.665-1.834v-.494h-.342a14.8,14.8,0,0,0-2.28.133,2.237,2.237,0,0,0-1.14.446,1.163,1.163,0,0,0-.342.9,1.429,1.429,0,0,0,.494,1.121A1.8,1.8,0,0,0,213.047-1.292Z" transform="translate(-10939 -16124.963)" fill="#38485c"/>
    <path id="Path_31941" data-name="Path 31941" d="M8.016,13.961a2.8,2.8,0,0,1-1.094,2.352,4.743,4.743,0,0,1-2.969.844,7.436,7.436,0,0,1-3.125-.523V15.352a8.227,8.227,0,0,0,1.531.469A8.056,8.056,0,0,0,4,15.992a3.31,3.31,0,0,0,2-.5,1.654,1.654,0,0,0,.672-1.4,1.8,1.8,0,0,0-.238-.973,2.214,2.214,0,0,0-.8-.7,11.148,11.148,0,0,0-1.7-.727A5.424,5.424,0,0,1,1.66,10.336,2.984,2.984,0,0,1,.977,8.3a2.536,2.536,0,0,1,.992-2.1,4.123,4.123,0,0,1,2.625-.781,7.736,7.736,0,0,1,3.133.625L7.313,7.2A7.08,7.08,0,0,0,4.563,6.6a2.661,2.661,0,0,0-1.648.453A1.493,1.493,0,0,0,2.32,8.313a1.928,1.928,0,0,0,.219.973,2.06,2.06,0,0,0,.738.7,9.173,9.173,0,0,0,1.59.7A6.294,6.294,0,0,1,7.34,12.055,2.7,2.7,0,0,1,8.016,13.961Zm5.758,3.2a3.934,3.934,0,0,1-3-1.156,4.476,4.476,0,0,1-1.1-3.211A4.964,4.964,0,0,1,10.7,9.5a3.387,3.387,0,0,1,2.738-1.219A3.229,3.229,0,0,1,15.984,9.34a4.057,4.057,0,0,1,.938,2.793v.82h-5.9a3.394,3.394,0,0,0,.762,2.289,2.635,2.635,0,0,0,2.035.781,6.9,6.9,0,0,0,2.734-.578V16.6a6.863,6.863,0,0,1-1.3.426A7.31,7.31,0,0,1,13.773,17.156Zm-.352-7.789a2.118,2.118,0,0,0-1.645.672,3.1,3.1,0,0,0-.723,1.859h4.477a2.851,2.851,0,0,0-.547-1.879A1.925,1.925,0,0,0,13.422,9.367Zm11.086-.93v5.555a2.235,2.235,0,0,0,.477,1.563,1.941,1.941,0,0,0,1.492.516,2.435,2.435,0,0,0,1.965-.734,3.7,3.7,0,0,0,.621-2.4v-4.5h1.3V17h-1.07L29.1,15.852h-.07a2.585,2.585,0,0,1-1.105.969,3.716,3.716,0,0,1-1.613.336,3.273,3.273,0,0,1-2.34-.742,3.159,3.159,0,0,1-.777-2.375v-5.6Zm14.125,6.227a2.145,2.145,0,0,1-.891,1.844,4.186,4.186,0,0,1-2.5.648,5.436,5.436,0,0,1-2.656-.539v-1.2a6.424,6.424,0,0,0,1.324.492,5.53,5.53,0,0,0,1.363.18,3.092,3.092,0,0,0,1.563-.324,1.116,1.116,0,0,0,.113-1.844,6.82,6.82,0,0,0-1.691-.84,9.172,9.172,0,0,1-1.7-.777,2.321,2.321,0,0,1-.75-.754,1.966,1.966,0,0,1-.246-1.008,1.921,1.921,0,0,1,.852-1.652,3.968,3.968,0,0,1,2.336-.605,6.835,6.835,0,0,1,2.7.563L37.992,9.9a6.2,6.2,0,0,0-2.336-.531,2.688,2.688,0,0,0-1.391.289.894.894,0,0,0-.469.8.971.971,0,0,0,.176.586,1.735,1.735,0,0,0,.566.461,12.658,12.658,0,0,0,1.5.633A5.6,5.6,0,0,1,38.1,13.25,1.97,1.97,0,0,1,38.633,14.664ZM46.008,17l-.258-1.219h-.062a3.6,3.6,0,0,1-1.277,1.09,3.893,3.893,0,0,1-1.59.285,2.86,2.86,0,0,1-2-.656,2.394,2.394,0,0,1-.723-1.867q0-2.594,4.148-2.719l1.453-.047v-.531a2.171,2.171,0,0,0-.434-1.488,1.783,1.783,0,0,0-1.387-.48,5.65,5.65,0,0,0-2.422.656l-.4-.992a6.094,6.094,0,0,1,1.387-.539,6.006,6.006,0,0,1,1.512-.2,3.262,3.262,0,0,1,2.27.68,2.837,2.837,0,0,1,.738,2.18V17Zm-2.93-.914a2.632,2.632,0,0,0,1.9-.664,2.457,2.457,0,0,0,.691-1.859v-.773l-1.3.055a4.717,4.717,0,0,0-2.23.48,1.449,1.449,0,0,0-.684,1.324,1.336,1.336,0,0,0,.426,1.07A1.767,1.767,0,0,0,43.078,16.086ZM55.5,17V11.461A2.235,2.235,0,0,0,55.023,9.9a1.941,1.941,0,0,0-1.492-.516,2.461,2.461,0,0,0-1.969.727,3.668,3.668,0,0,0-.625,2.4V17h-1.3V8.438H50.7l.211,1.172h.063a2.648,2.648,0,0,1,1.117-.98,3.63,3.63,0,0,1,1.6-.348,3.252,3.252,0,0,1,2.328.746,3.175,3.175,0,0,1,.781,2.387V17Zm12.1.156a3.706,3.706,0,0,1-1.527-.309,2.872,2.872,0,0,1-1.16-.949H64.82a11.485,11.485,0,0,1,.094,1.422v3.523h-1.3V8.438h1.055l.18,1.172h.063a3.012,3.012,0,0,1,1.164-1.016A3.539,3.539,0,0,1,67.6,8.281,3.165,3.165,0,0,1,70.23,9.445a5.125,5.125,0,0,1,.926,3.266,5.1,5.1,0,0,1-.941,3.277A3.17,3.17,0,0,1,67.6,17.156Zm-.187-7.773a2.3,2.3,0,0,0-1.9.727,3.739,3.739,0,0,0-.6,2.313v.289a4.285,4.285,0,0,0,.6,2.582,2.288,2.288,0,0,0,1.93.777,2.007,2.007,0,0,0,1.738-.9,4.26,4.26,0,0,0,.629-2.477,4.1,4.1,0,0,0-.629-2.457A2.069,2.069,0,0,0,67.414,9.383ZM78.688,17l-.258-1.219h-.062a3.6,3.6,0,0,1-1.277,1.09,3.893,3.893,0,0,1-1.59.285,2.86,2.86,0,0,1-2-.656,2.394,2.394,0,0,1-.723-1.867q0-2.594,4.148-2.719l1.453-.047v-.531a2.171,2.171,0,0,0-.434-1.488,1.783,1.783,0,0,0-1.387-.48,5.65,5.65,0,0,0-2.422.656l-.4-.992a6.094,6.094,0,0,1,1.387-.539,6.006,6.006,0,0,1,1.512-.2,3.262,3.262,0,0,1,2.27.68,2.837,2.837,0,0,1,.738,2.18V17Zm-2.93-.914a2.632,2.632,0,0,0,1.9-.664,2.457,2.457,0,0,0,.691-1.859v-.773l-1.3.055a4.717,4.717,0,0,0-2.23.48,1.449,1.449,0,0,0-.684,1.324,1.336,1.336,0,0,0,.426,1.07A1.767,1.767,0,0,0,75.758,16.086Zm10.469-7.8a5.075,5.075,0,0,1,1.023.094l-.18,1.2a4.418,4.418,0,0,0-.937-.117,2.282,2.282,0,0,0-1.777.844,3.077,3.077,0,0,0-.738,2.1V17h-1.3V8.438h1.07l.148,1.586H83.6A3.764,3.764,0,0,1,84.75,8.734,2.585,2.585,0,0,1,86.227,8.281ZM93.8,17l-.258-1.219h-.062a3.6,3.6,0,0,1-1.277,1.09,3.893,3.893,0,0,1-1.59.285,2.86,2.86,0,0,1-2-.656,2.394,2.394,0,0,1-.723-1.867q0-2.594,4.148-2.719l1.453-.047v-.531a2.171,2.171,0,0,0-.434-1.488,1.783,1.783,0,0,0-1.387-.48,5.65,5.65,0,0,0-2.422.656l-.4-.992a6.094,6.094,0,0,1,1.387-.539,6.006,6.006,0,0,1,1.512-.2,3.262,3.262,0,0,1,2.27.68,2.837,2.837,0,0,1,.738,2.18V17Zm-2.93-.914a2.632,2.632,0,0,0,1.9-.664,2.457,2.457,0,0,0,.691-1.859v-.773l-1.3.055a4.717,4.717,0,0,0-2.23.48,1.449,1.449,0,0,0-.684,1.324,1.336,1.336,0,0,0,.426,1.07A1.767,1.767,0,0,0,90.867,16.086Zm14.336,1.07a3.934,3.934,0,0,1-3-1.156,4.476,4.476,0,0,1-1.1-3.211,4.964,4.964,0,0,1,1.02-3.289,3.387,3.387,0,0,1,2.738-1.219,3.229,3.229,0,0,1,2.547,1.059,4.057,4.057,0,0,1,.938,2.793v.82h-5.9a3.394,3.394,0,0,0,.762,2.289,2.635,2.635,0,0,0,2.035.781,6.9,6.9,0,0,0,2.734-.578V16.6a6.863,6.863,0,0,1-1.3.426A7.31,7.31,0,0,1,105.2,17.156Zm-.352-7.789a2.118,2.118,0,0,0-1.645.672,3.1,3.1,0,0,0-.723,1.859h4.477a2.851,2.851,0,0,0-.547-1.879A1.925,1.925,0,0,0,104.852,9.367ZM111.859,17h-1.3V4.844h1.3Zm6.367.156a3.934,3.934,0,0,1-3-1.156,4.476,4.476,0,0,1-1.1-3.211,4.964,4.964,0,0,1,1.02-3.289,3.387,3.387,0,0,1,2.738-1.219,3.229,3.229,0,0,1,2.547,1.059,4.057,4.057,0,0,1,.938,2.793v.82h-5.9a3.394,3.394,0,0,0,.762,2.289,2.635,2.635,0,0,0,2.035.781,6.9,6.9,0,0,0,2.734-.578V16.6a6.863,6.863,0,0,1-1.3.426A7.31,7.31,0,0,1,118.227,17.156Zm-.352-7.789a2.118,2.118,0,0,0-1.645.672,3.1,3.1,0,0,0-.723,1.859h4.477a2.851,2.851,0,0,0-.547-1.879A1.925,1.925,0,0,0,117.875,9.367ZM134.5,17V11.43a2.312,2.312,0,0,0-.437-1.535,1.692,1.692,0,0,0-1.359-.512,2.195,2.195,0,0,0-1.789.7,3.3,3.3,0,0,0-.578,2.141V17h-1.3V11.43a2.312,2.312,0,0,0-.437-1.535,1.7,1.7,0,0,0-1.367-.512,2.118,2.118,0,0,0-1.785.73,3.953,3.953,0,0,0-.566,2.395V17h-1.3V8.438h1.055l.211,1.172h.063a2.549,2.549,0,0,1,1.035-.977,3.162,3.162,0,0,1,1.5-.352,2.544,2.544,0,0,1,2.625,1.453h.063a2.73,2.73,0,0,1,1.109-1.062,3.442,3.442,0,0,1,1.656-.391,2.9,2.9,0,0,1,2.176.746,3.338,3.338,0,0,1,.723,2.387V17Zm7.586.156a3.934,3.934,0,0,1-3-1.156,4.476,4.476,0,0,1-1.1-3.211,4.964,4.964,0,0,1,1.02-3.289,3.387,3.387,0,0,1,2.738-1.219A3.229,3.229,0,0,1,144.3,9.34a4.057,4.057,0,0,1,.938,2.793v.82h-5.9a3.394,3.394,0,0,0,.762,2.289,2.634,2.634,0,0,0,2.035.781,6.9,6.9,0,0,0,2.734-.578V16.6a6.863,6.863,0,0,1-1.3.426A7.31,7.31,0,0,1,142.086,17.156Zm-.352-7.789a2.118,2.118,0,0,0-1.645.672,3.1,3.1,0,0,0-.723,1.859h4.477a2.851,2.851,0,0,0-.547-1.879A1.925,1.925,0,0,0,141.734,9.367ZM153.3,17V11.461a2.235,2.235,0,0,0-.477-1.562,1.941,1.941,0,0,0-1.492-.516,2.461,2.461,0,0,0-1.969.727,3.668,3.668,0,0,0-.625,2.4V17h-1.3V8.438H148.5l.211,1.172h.063a2.648,2.648,0,0,1,1.117-.98,3.63,3.63,0,0,1,1.6-.348,3.252,3.252,0,0,1,2.328.746,3.175,3.175,0,0,1,.781,2.387V17Zm6.727-.914a4.236,4.236,0,0,0,.664-.051,4.3,4.3,0,0,0,.508-.105v.992a2.371,2.371,0,0,1-.621.168,4.664,4.664,0,0,1-.738.066q-2.484,0-2.484-2.617V9.445h-1.227V8.82l1.227-.539.547-1.828h.75V8.438h2.484V9.445h-2.484v5.039a1.733,1.733,0,0,0,.367,1.188A1.278,1.278,0,0,0,160.031,16.086ZM170.3,12.711a4.724,4.724,0,0,1-1.055,3.27,3.714,3.714,0,0,1-2.914,1.176,3.86,3.86,0,0,1-2.039-.539,3.558,3.558,0,0,1-1.375-1.547,5.391,5.391,0,0,1-.484-2.359,4.716,4.716,0,0,1,1.047-3.262,3.7,3.7,0,0,1,2.906-1.168,3.622,3.622,0,0,1,2.855,1.2A4.7,4.7,0,0,1,170.3,12.711Zm-6.523,0a4.064,4.064,0,0,0,.656,2.5,2.6,2.6,0,0,0,3.863,0,4.043,4.043,0,0,0,.66-2.5,3.978,3.978,0,0,0-.66-2.48,2.32,2.32,0,0,0-1.949-.848,2.283,2.283,0,0,0-1.922.836A4.023,4.023,0,0,0,163.781,12.711Zm14.32,1.953a2.145,2.145,0,0,1-.891,1.844,4.186,4.186,0,0,1-2.5.648,5.436,5.436,0,0,1-2.656-.539v-1.2a6.423,6.423,0,0,0,1.324.492,5.53,5.53,0,0,0,1.363.18,3.092,3.092,0,0,0,1.563-.324,1.116,1.116,0,0,0,.113-1.844,6.82,6.82,0,0,0-1.691-.84,9.172,9.172,0,0,1-1.7-.777,2.321,2.321,0,0,1-.75-.754,1.966,1.966,0,0,1-.246-1.008,1.921,1.921,0,0,1,.852-1.652,3.968,3.968,0,0,1,2.336-.605,6.835,6.835,0,0,1,2.7.563L177.461,9.9a6.2,6.2,0,0,0-2.336-.531,2.688,2.688,0,0,0-1.391.289.894.894,0,0,0-.469.8.971.971,0,0,0,.176.586,1.735,1.735,0,0,0,.566.461,12.659,12.659,0,0,0,1.5.633,5.6,5.6,0,0,1,2.059,1.117A1.97,1.97,0,0,1,178.1,14.664ZM189.633,17l-.258-1.219h-.062a3.6,3.6,0,0,1-1.277,1.09,3.893,3.893,0,0,1-1.59.285,2.86,2.86,0,0,1-2-.656,2.394,2.394,0,0,1-.723-1.867q0-2.594,4.148-2.719l1.453-.047v-.531a2.171,2.171,0,0,0-.434-1.488,1.783,1.783,0,0,0-1.387-.48,5.65,5.65,0,0,0-2.422.656l-.4-.992a6.094,6.094,0,0,1,1.387-.539,6.006,6.006,0,0,1,1.512-.2,3.262,3.262,0,0,1,2.27.68,2.837,2.837,0,0,1,.738,2.18V17Zm-2.93-.914a2.632,2.632,0,0,0,1.9-.664,2.457,2.457,0,0,0,.691-1.859v-.773l-1.3.055a4.717,4.717,0,0,0-2.23.48,1.449,1.449,0,0,0-.684,1.324,1.336,1.336,0,0,0,.426,1.07A1.767,1.767,0,0,0,186.7,16.086ZM199.125,17V11.461a2.235,2.235,0,0,0-.477-1.562,1.941,1.941,0,0,0-1.492-.516,2.461,2.461,0,0,0-1.969.727,3.668,3.668,0,0,0-.625,2.4V17h-1.3V8.438h1.055l.211,1.172h.063a2.648,2.648,0,0,1,1.117-.98,3.63,3.63,0,0,1,1.6-.348,3.252,3.252,0,0,1,2.328.746,3.175,3.175,0,0,1,.781,2.387V17Zm7.383.156a3.654,3.654,0,0,1-2.879-1.145,4.707,4.707,0,0,1-1.02-3.238,4.853,4.853,0,0,1,1.035-3.32,3.727,3.727,0,0,1,2.949-1.172,5.852,5.852,0,0,1,1.234.133,4.066,4.066,0,0,1,.969.313l-.4,1.1a6.1,6.1,0,0,0-.937-.285,4.186,4.186,0,0,0-.9-.113q-2.609,0-2.609,3.328a3.963,3.963,0,0,0,.637,2.422,2.215,2.215,0,0,0,1.887.844,5.769,5.769,0,0,0,2.2-.461v1.148A4.679,4.679,0,0,1,206.508,17.156ZM212,17h-1.3V4.844H212Zm8.016,0-.258-1.219H219.7a3.6,3.6,0,0,1-1.277,1.09,3.893,3.893,0,0,1-1.59.285,2.86,2.86,0,0,1-2-.656,2.394,2.394,0,0,1-.723-1.867q0-2.594,4.148-2.719l1.453-.047v-.531a2.171,2.171,0,0,0-.434-1.488,1.783,1.783,0,0,0-1.387-.48,5.65,5.65,0,0,0-2.422.656l-.4-.992a6.094,6.094,0,0,1,1.387-.539,6.006,6.006,0,0,1,1.512-.2,3.262,3.262,0,0,1,2.27.68,2.837,2.837,0,0,1,.738,2.18V17Zm-2.93-.914a2.632,2.632,0,0,0,1.9-.664,2.457,2.457,0,0,0,.691-1.859v-.773l-1.3.055a4.717,4.717,0,0,0-2.23.48,1.449,1.449,0,0,0-.684,1.324,1.336,1.336,0,0,0,.426,1.07A1.767,1.767,0,0,0,217.086,16.086Zm12.391-.234h-.07a3.047,3.047,0,0,1-2.687,1.3,3.179,3.179,0,0,1-2.613-1.148,5.055,5.055,0,0,1-.934-3.266,5.141,5.141,0,0,1,.938-3.289,3.155,3.155,0,0,1,2.609-1.172,3.114,3.114,0,0,1,2.672,1.266h.1l-.055-.617-.031-.6V4.844h1.3V17h-1.055Zm-2.594.219a2.361,2.361,0,0,0,1.926-.723,3.652,3.652,0,0,0,.6-2.332v-.273a4.3,4.3,0,0,0-.605-2.6,2.3,2.3,0,0,0-1.934-.777,1.985,1.985,0,0,0-1.746.887,4.409,4.409,0,0,0-.605,2.5,4.227,4.227,0,0,0,.6,2.477A2.037,2.037,0,0,0,226.883,16.07Zm13.961-3.359a4.724,4.724,0,0,1-1.055,3.27,3.714,3.714,0,0,1-2.914,1.176,3.86,3.86,0,0,1-2.039-.539,3.558,3.558,0,0,1-1.375-1.547,5.391,5.391,0,0,1-.484-2.359,4.716,4.716,0,0,1,1.047-3.262,3.7,3.7,0,0,1,2.906-1.168,3.622,3.622,0,0,1,2.855,1.2A4.7,4.7,0,0,1,240.844,12.711Zm-6.523,0a4.064,4.064,0,0,0,.656,2.5,2.6,2.6,0,0,0,3.863,0,4.043,4.043,0,0,0,.66-2.5,3.978,3.978,0,0,0-.66-2.48,2.32,2.32,0,0,0-1.949-.848,2.283,2.283,0,0,0-1.922.836A4.023,4.023,0,0,0,234.32,12.711Zm14.32,1.953a2.145,2.145,0,0,1-.891,1.844,4.186,4.186,0,0,1-2.5.648,5.436,5.436,0,0,1-2.656-.539v-1.2a6.423,6.423,0,0,0,1.324.492,5.53,5.53,0,0,0,1.363.18,3.092,3.092,0,0,0,1.563-.324,1.116,1.116,0,0,0,.113-1.844,6.82,6.82,0,0,0-1.691-.84,9.172,9.172,0,0,1-1.7-.777,2.321,2.321,0,0,1-.75-.754,1.966,1.966,0,0,1-.246-1.008,1.921,1.921,0,0,1,.852-1.652,3.968,3.968,0,0,1,2.336-.605,6.835,6.835,0,0,1,2.7.563L248,9.9a6.2,6.2,0,0,0-2.336-.531,2.688,2.688,0,0,0-1.391.289.894.894,0,0,0-.469.8.971.971,0,0,0,.176.586,1.735,1.735,0,0,0,.566.461,12.659,12.659,0,0,0,1.5.633,5.6,5.6,0,0,1,2.059,1.117A1.97,1.97,0,0,1,248.641,14.664Zm9.883,2.492a3.934,3.934,0,0,1-3-1.156,4.476,4.476,0,0,1-1.1-3.211,4.964,4.964,0,0,1,1.02-3.289,3.387,3.387,0,0,1,2.738-1.219,3.229,3.229,0,0,1,2.547,1.059,4.057,4.057,0,0,1,.938,2.793v.82h-5.9a3.394,3.394,0,0,0,.762,2.289,2.635,2.635,0,0,0,2.035.781,6.9,6.9,0,0,0,2.734-.578V16.6a6.864,6.864,0,0,1-1.3.426A7.31,7.31,0,0,1,258.523,17.156Zm-.352-7.789a2.118,2.118,0,0,0-1.645.672A3.1,3.1,0,0,0,255.8,11.9h4.477a2.851,2.851,0,0,0-.547-1.879A1.925,1.925,0,0,0,258.172,9.367ZM269.742,17V11.461a2.235,2.235,0,0,0-.477-1.562,1.941,1.941,0,0,0-1.492-.516,2.461,2.461,0,0,0-1.969.727,3.668,3.668,0,0,0-.625,2.4V17h-1.3V8.438h1.055l.211,1.172h.063a2.648,2.648,0,0,1,1.117-.98,3.63,3.63,0,0,1,1.6-.348,3.252,3.252,0,0,1,2.328.746,3.175,3.175,0,0,1,.781,2.387V17Zm9.336-8.562v5.555a2.235,2.235,0,0,0,.477,1.563,1.941,1.941,0,0,0,1.492.516,2.435,2.435,0,0,0,1.965-.734,3.7,3.7,0,0,0,.621-2.4v-4.5h1.3V17h-1.07l-.187-1.148h-.07a2.585,2.585,0,0,1-1.105.969,3.716,3.716,0,0,1-1.613.336,3.273,3.273,0,0,1-2.34-.742,3.159,3.159,0,0,1-.777-2.375v-5.6ZM293.539,17V11.461a2.235,2.235,0,0,0-.477-1.562,1.941,1.941,0,0,0-1.492-.516,2.461,2.461,0,0,0-1.969.727,3.668,3.668,0,0,0-.625,2.4V17h-1.3V8.438h1.055l.211,1.172h.063a2.648,2.648,0,0,1,1.117-.98,3.63,3.63,0,0,1,1.6-.348,3.252,3.252,0,0,1,2.328.746,3.175,3.175,0,0,1,.781,2.387V17Zm9.227,0-.258-1.219h-.062a3.6,3.6,0,0,1-1.277,1.09,3.893,3.893,0,0,1-1.59.285,2.86,2.86,0,0,1-2-.656,2.394,2.394,0,0,1-.723-1.867q0-2.594,4.148-2.719l1.453-.047v-.531a2.171,2.171,0,0,0-.434-1.488,1.783,1.783,0,0,0-1.387-.48,5.65,5.65,0,0,0-2.422.656l-.4-.992a6.094,6.094,0,0,1,1.387-.539,6.006,6.006,0,0,1,1.512-.2,3.262,3.262,0,0,1,2.27.68,2.837,2.837,0,0,1,.738,2.18V17Zm-2.93-.914a2.632,2.632,0,0,0,1.9-.664,2.457,2.457,0,0,0,.691-1.859v-.773l-1.3.055a4.717,4.717,0,0,0-2.23.48,1.449,1.449,0,0,0-.684,1.324,1.336,1.336,0,0,0,.426,1.07A1.767,1.767,0,0,0,299.836,16.086Zm14.7,1.07a3.706,3.706,0,0,1-1.527-.309,2.872,2.872,0,0,1-1.16-.949h-.094a11.485,11.485,0,0,1,.094,1.422v3.523h-1.3V8.438h1.055l.18,1.172h.063a3.012,3.012,0,0,1,1.164-1.016,3.539,3.539,0,0,1,1.523-.312,3.165,3.165,0,0,1,2.629,1.164,5.125,5.125,0,0,1,.926,3.266,5.1,5.1,0,0,1-.941,3.277A3.17,3.17,0,0,1,314.539,17.156Zm-.187-7.773a2.3,2.3,0,0,0-1.9.727,3.739,3.739,0,0,0-.6,2.313v.289a4.285,4.285,0,0,0,.6,2.582,2.288,2.288,0,0,0,1.93.777,2.007,2.007,0,0,0,1.738-.9,4.26,4.26,0,0,0,.629-2.477,4.1,4.1,0,0,0-.629-2.457A2.069,2.069,0,0,0,314.352,9.383ZM325.625,17l-.258-1.219H325.3a3.6,3.6,0,0,1-1.277,1.09,3.893,3.893,0,0,1-1.59.285,2.86,2.86,0,0,1-2-.656,2.394,2.394,0,0,1-.723-1.867q0-2.594,4.148-2.719l1.453-.047v-.531a2.171,2.171,0,0,0-.434-1.488,1.783,1.783,0,0,0-1.387-.48,5.65,5.65,0,0,0-2.422.656l-.4-.992a6.094,6.094,0,0,1,1.387-.539,6.006,6.006,0,0,1,1.512-.2,3.262,3.262,0,0,1,2.27.68,2.837,2.837,0,0,1,.738,2.18V17Zm-2.93-.914a2.632,2.632,0,0,0,1.9-.664,2.457,2.457,0,0,0,.691-1.859v-.773l-1.3.055a4.717,4.717,0,0,0-2.23.48,1.449,1.449,0,0,0-.684,1.324,1.336,1.336,0,0,0,.426,1.07A1.767,1.767,0,0,0,322.7,16.086Zm10.469-7.8a5.075,5.075,0,0,1,1.023.094l-.18,1.2a4.417,4.417,0,0,0-.937-.117,2.282,2.282,0,0,0-1.777.844,3.077,3.077,0,0,0-.738,2.1V17h-1.3V8.438h1.07l.148,1.586h.063a3.764,3.764,0,0,1,1.148-1.289A2.585,2.585,0,0,1,333.164,8.281Zm5.391,7.8a4.236,4.236,0,0,0,.664-.051,4.3,4.3,0,0,0,.508-.105v.992a2.371,2.371,0,0,1-.621.168,4.664,4.664,0,0,1-.738.066q-2.484,0-2.484-2.617V9.445h-1.227V8.82l1.227-.539.547-1.828h.75V8.438h2.484V9.445H337.18v5.039a1.734,1.734,0,0,0,.367,1.188A1.278,1.278,0,0,0,338.555,16.086Zm6.5,1.07a3.934,3.934,0,0,1-3-1.156,4.476,4.476,0,0,1-1.1-3.211A4.964,4.964,0,0,1,341.98,9.5a3.387,3.387,0,0,1,2.738-1.219,3.229,3.229,0,0,1,2.547,1.059,4.057,4.057,0,0,1,.938,2.793v.82h-5.9a3.394,3.394,0,0,0,.762,2.289,2.635,2.635,0,0,0,2.035.781,6.9,6.9,0,0,0,2.734-.578V16.6a6.864,6.864,0,0,1-1.3.426A7.31,7.31,0,0,1,345.055,17.156ZM344.7,9.367a2.118,2.118,0,0,0-1.645.672,3.1,3.1,0,0,0-.723,1.859h4.477a2.851,2.851,0,0,0-.547-1.879A1.925,1.925,0,0,0,344.7,9.367Zm15.7,6.484h-.07a3.047,3.047,0,0,1-2.687,1.3,3.179,3.179,0,0,1-2.613-1.148,5.055,5.055,0,0,1-.934-3.266,5.141,5.141,0,0,1,.938-3.289,3.155,3.155,0,0,1,2.609-1.172,3.114,3.114,0,0,1,2.672,1.266h.1l-.055-.617-.031-.6V4.844h1.3V17H360.57Zm-2.594.219a2.361,2.361,0,0,0,1.926-.723,3.652,3.652,0,0,0,.6-2.332v-.273a4.3,4.3,0,0,0-.605-2.6,2.3,2.3,0,0,0-1.934-.777,1.985,1.985,0,0,0-1.746.887,4.409,4.409,0,0,0-.605,2.5,4.227,4.227,0,0,0,.6,2.477A2.037,2.037,0,0,0,357.8,16.07Zm10.188,1.086A3.934,3.934,0,0,1,365,16a4.476,4.476,0,0,1-1.1-3.211,4.964,4.964,0,0,1,1.02-3.289,3.387,3.387,0,0,1,2.738-1.219A3.229,3.229,0,0,1,370.2,9.34a4.057,4.057,0,0,1,.938,2.793v.82h-5.9A3.394,3.394,0,0,0,366,15.242a2.635,2.635,0,0,0,2.035.781,6.9,6.9,0,0,0,2.734-.578V16.6a6.864,6.864,0,0,1-1.3.426A7.31,7.31,0,0,1,367.992,17.156Zm-.352-7.789a2.118,2.118,0,0,0-1.645.672,3.1,3.1,0,0,0-.723,1.859h4.477a2.851,2.851,0,0,0-.547-1.879A1.925,1.925,0,0,0,367.641,9.367ZM378.8,17h-1.3V4.844h1.3Zm8.016,0-.258-1.219H386.5a3.6,3.6,0,0,1-1.277,1.09,3.893,3.893,0,0,1-1.59.285,2.86,2.86,0,0,1-2-.656,2.394,2.394,0,0,1-.723-1.867q0-2.594,4.148-2.719l1.453-.047v-.531a2.171,2.171,0,0,0-.434-1.488,1.783,1.783,0,0,0-1.387-.48,5.65,5.65,0,0,0-2.422.656l-.4-.992a6.094,6.094,0,0,1,1.387-.539,6.006,6.006,0,0,1,1.512-.2,3.262,3.262,0,0,1,2.27.68,2.837,2.837,0,0,1,.738,2.18V17Zm-2.93-.914a2.632,2.632,0,0,0,1.9-.664,2.457,2.457,0,0,0,.691-1.859v-.773l-1.3.055a4.717,4.717,0,0,0-2.23.48,1.449,1.449,0,0,0-.684,1.324,1.336,1.336,0,0,0,.426,1.07A1.767,1.767,0,0,0,383.891,16.086Zm14.7,1.07a3.706,3.706,0,0,1-1.527-.309,2.872,2.872,0,0,1-1.16-.949h-.094a11.485,11.485,0,0,1,.094,1.422v3.523h-1.3V8.438h1.055l.18,1.172h.063a3.012,3.012,0,0,1,1.164-1.016,3.539,3.539,0,0,1,1.523-.312,3.165,3.165,0,0,1,2.629,1.164,5.125,5.125,0,0,1,.926,3.266,5.1,5.1,0,0,1-.941,3.277A3.17,3.17,0,0,1,398.594,17.156Zm-.187-7.773a2.3,2.3,0,0,0-1.9.727,3.739,3.739,0,0,0-.6,2.313v.289a4.285,4.285,0,0,0,.6,2.582,2.288,2.288,0,0,0,1.93.777,2.007,2.007,0,0,0,1.738-.9A4.26,4.26,0,0,0,400.8,12.7a4.1,4.1,0,0,0-.629-2.457A2.069,2.069,0,0,0,398.406,9.383ZM409.68,17l-.258-1.219h-.062a3.6,3.6,0,0,1-1.277,1.09,3.893,3.893,0,0,1-1.59.285,2.86,2.86,0,0,1-2-.656,2.394,2.394,0,0,1-.723-1.867q0-2.594,4.148-2.719l1.453-.047v-.531a2.171,2.171,0,0,0-.434-1.488,1.783,1.783,0,0,0-1.387-.48,5.65,5.65,0,0,0-2.422.656l-.4-.992a6.094,6.094,0,0,1,1.387-.539,6.006,6.006,0,0,1,1.512-.2,3.262,3.262,0,0,1,2.27.68,2.837,2.837,0,0,1,.738,2.18V17Zm-2.93-.914a2.632,2.632,0,0,0,1.9-.664,2.457,2.457,0,0,0,.691-1.859v-.773l-1.3.055a4.717,4.717,0,0,0-2.23.48,1.449,1.449,0,0,0-.684,1.324,1.336,1.336,0,0,0,.426,1.07A1.767,1.767,0,0,0,406.75,16.086Zm-.3-8.977q.375-.484.809-1.172a13.409,13.409,0,0,0,.684-1.2h1.578v.164a11.548,11.548,0,0,1-1.023,1.25,11.618,11.618,0,0,1-1.18,1.148h-.867ZM420.32,8.438v.82l-1.586.188a2.785,2.785,0,0,1,.563,1.711,2.531,2.531,0,0,1-.859,2.008,3.467,3.467,0,0,1-2.359.75,3.929,3.929,0,0,1-.719-.062,1.276,1.276,0,0,0-.828,1.1.56.56,0,0,0,.289.52,2.112,2.112,0,0,0,.992.168h1.516a3.394,3.394,0,0,1,2.137.586,2.036,2.036,0,0,1,.746,1.7A2.431,2.431,0,0,1,419.07,20.1a6.1,6.1,0,0,1-3.328.746,4.547,4.547,0,0,1-2.59-.625,2.018,2.018,0,0,1-.91-1.766,1.983,1.983,0,0,1,.5-1.352,2.546,2.546,0,0,1,1.406-.773,1.357,1.357,0,0,1-.551-.461,1.22,1.22,0,0,1-.223-.727,1.379,1.379,0,0,1,.25-.82,2.628,2.628,0,0,1,.789-.68,2.313,2.313,0,0,1-1.082-.93,2.732,2.732,0,0,1-.418-1.5,2.771,2.771,0,0,1,.844-2.168,3.445,3.445,0,0,1,2.391-.762,4.347,4.347,0,0,1,1.211.156Zm-6.828,10a1.162,1.162,0,0,0,.586,1.055,3.234,3.234,0,0,0,1.68.359,4.687,4.687,0,0,0,2.418-.488,1.5,1.5,0,0,0,.785-1.324,1.048,1.048,0,0,0-.43-.965,3.337,3.337,0,0,0-1.617-.27h-1.555a2.048,2.048,0,0,0-1.375.422A1.507,1.507,0,0,0,413.492,18.438Zm.7-7.258a1.743,1.743,0,0,0,.508,1.359,2.028,2.028,0,0,0,1.414.461,1.654,1.654,0,0,0,1.9-1.844,1.7,1.7,0,0,0-1.922-1.93,1.9,1.9,0,0,0-1.406.492A1.982,1.982,0,0,0,414.2,11.18Zm9.18,5.82h-1.3V8.438h1.3ZM421.969,6.117a.861.861,0,0,1,.219-.652.81.81,0,0,1,1.086,0,.846.846,0,0,1,.227.648.859.859,0,0,1-.227.652.794.794,0,0,1-1.086,0A.877.877,0,0,1,421.969,6.117ZM431.984,17V11.461a2.235,2.235,0,0,0-.477-1.562,1.941,1.941,0,0,0-1.492-.516,2.461,2.461,0,0,0-1.969.727,3.668,3.668,0,0,0-.625,2.4V17h-1.3V8.438h1.055l.211,1.172h.063a2.648,2.648,0,0,1,1.117-.98,3.63,3.63,0,0,1,1.6-.348,3.252,3.252,0,0,1,2.328.746,3.175,3.175,0,0,1,.781,2.387V17Zm9.227,0-.258-1.219h-.062a3.6,3.6,0,0,1-1.277,1.09,3.893,3.893,0,0,1-1.59.285,2.86,2.86,0,0,1-2-.656,2.394,2.394,0,0,1-.723-1.867q0-2.594,4.148-2.719l1.453-.047v-.531a2.171,2.171,0,0,0-.434-1.488,1.783,1.783,0,0,0-1.387-.48,5.65,5.65,0,0,0-2.422.656l-.4-.992a6.094,6.094,0,0,1,1.387-.539,6.006,6.006,0,0,1,1.512-.2,3.262,3.262,0,0,1,2.27.68,2.837,2.837,0,0,1,.738,2.18V17Zm-2.93-.914a2.632,2.632,0,0,0,1.9-.664,2.457,2.457,0,0,0,.691-1.859v-.773l-1.3.055a4.717,4.717,0,0,0-2.23.48,1.449,1.449,0,0,0-.684,1.324,1.336,1.336,0,0,0,.426,1.07A1.767,1.767,0,0,0,438.281,16.086Zm13.953-.016a2.356,2.356,0,0,0,1.891-.7,3.766,3.766,0,0,0,.633-2.344v-.289a4.282,4.282,0,0,0-.609-2.586,2.285,2.285,0,0,0-1.93-.789,1.985,1.985,0,0,0-1.746.887,4.409,4.409,0,0,0-.605,2.5,4.258,4.258,0,0,0,.6,2.465A2.025,2.025,0,0,0,452.234,16.07Zm-.2,1.086a3.124,3.124,0,0,1-2.586-1.164,5.082,5.082,0,0,1-.93-3.25,5.147,5.147,0,0,1,.938-3.281,3.444,3.444,0,0,1,5.313.148h.07l.188-1.172h1.023V20.844h-1.3V17.18a8.728,8.728,0,0,1,.086-1.328h-.1A3.063,3.063,0,0,1,452.039,17.156Zm7.984-8.719v5.555a2.235,2.235,0,0,0,.477,1.563,1.941,1.941,0,0,0,1.492.516,2.435,2.435,0,0,0,1.965-.734,3.7,3.7,0,0,0,.621-2.4v-4.5h1.3V17H464.8l-.187-1.148h-.07a2.585,2.585,0,0,1-1.105.969,3.716,3.716,0,0,1-1.613.336,3.273,3.273,0,0,1-2.34-.742,3.159,3.159,0,0,1-.777-2.375v-5.6Zm12.219,8.719a3.934,3.934,0,0,1-3-1.156,4.476,4.476,0,0,1-1.1-3.211,4.964,4.964,0,0,1,1.02-3.289,3.387,3.387,0,0,1,2.738-1.219,3.229,3.229,0,0,1,2.547,1.059,4.057,4.057,0,0,1,.938,2.793v.82h-5.9a3.394,3.394,0,0,0,.762,2.289,2.635,2.635,0,0,0,2.035.781,6.9,6.9,0,0,0,2.734-.578V16.6a6.864,6.864,0,0,1-1.3.426A7.31,7.31,0,0,1,472.242,17.156Zm-.352-7.789a2.118,2.118,0,0,0-1.645.672,3.1,3.1,0,0,0-.723,1.859H474a2.851,2.851,0,0,0-.547-1.879A1.925,1.925,0,0,0,471.891,9.367ZM5.234,33.445H3.055V41h-1.3V33.445H.227v-.586l1.531-.469v-.477q0-3.156,2.758-3.156a5.675,5.675,0,0,1,1.594.273L5.773,30.07a4.29,4.29,0,0,0-1.281-.242,1.248,1.248,0,0,0-1.086.488,2.725,2.725,0,0,0-.352,1.566v.555h2.18Zm2.781-1.008v5.555a2.235,2.235,0,0,0,.477,1.563,1.941,1.941,0,0,0,1.492.516,2.435,2.435,0,0,0,1.965-.734,3.7,3.7,0,0,0,.621-2.4v-4.5h1.3V41H12.8l-.187-1.148h-.07a2.585,2.585,0,0,1-1.105.969,3.716,3.716,0,0,1-1.613.336,3.273,3.273,0,0,1-2.34-.742A3.159,3.159,0,0,1,6.7,38.039v-5.6ZM22.477,41V35.461A2.235,2.235,0,0,0,22,33.9a1.941,1.941,0,0,0-1.492-.516,2.461,2.461,0,0,0-1.969.727,3.668,3.668,0,0,0-.625,2.4V41h-1.3V32.438h1.055l.211,1.172h.063a2.648,2.648,0,0,1,1.117-.98,3.63,3.63,0,0,1,1.6-.348,3.252,3.252,0,0,1,2.328.746,3.175,3.175,0,0,1,.781,2.387V41Zm7.383.156a3.654,3.654,0,0,1-2.879-1.145,4.707,4.707,0,0,1-1.02-3.238A4.853,4.853,0,0,1,27,33.453a3.727,3.727,0,0,1,2.949-1.172,5.852,5.852,0,0,1,1.234.133,4.066,4.066,0,0,1,.969.313l-.4,1.1a6.1,6.1,0,0,0-.937-.285,4.186,4.186,0,0,0-.9-.113q-2.609,0-2.609,3.328a3.963,3.963,0,0,0,.637,2.422,2.215,2.215,0,0,0,1.887.844,5.769,5.769,0,0,0,2.2-.461v1.148A4.679,4.679,0,0,1,29.859,41.156ZM35.352,41h-1.3V32.438h1.3ZM33.945,30.117a.861.861,0,0,1,.219-.652.81.81,0,0,1,1.086,0,.846.846,0,0,1,.227.648.859.859,0,0,1-.227.652.794.794,0,0,1-1.086,0A.877.877,0,0,1,33.945,30.117Zm11.547,6.594a4.724,4.724,0,0,1-1.055,3.27,3.714,3.714,0,0,1-2.914,1.176,3.86,3.86,0,0,1-2.039-.539,3.558,3.558,0,0,1-1.375-1.547,5.391,5.391,0,0,1-.484-2.359,4.716,4.716,0,0,1,1.047-3.262,3.7,3.7,0,0,1,2.906-1.168,3.622,3.622,0,0,1,2.855,1.2A4.7,4.7,0,0,1,45.492,36.711Zm-6.523,0a4.064,4.064,0,0,0,.656,2.5,2.6,2.6,0,0,0,3.863,0,4.043,4.043,0,0,0,.66-2.5,3.978,3.978,0,0,0-.66-2.48,2.32,2.32,0,0,0-1.949-.848,2.283,2.283,0,0,0-1.922.836A4.023,4.023,0,0,0,38.969,36.711ZM53.625,41V35.461a2.235,2.235,0,0,0-.477-1.562,1.941,1.941,0,0,0-1.492-.516,2.461,2.461,0,0,0-1.969.727,3.668,3.668,0,0,0-.625,2.4V41h-1.3V32.438H48.82l.211,1.172h.063a2.648,2.648,0,0,1,1.117-.98,3.63,3.63,0,0,1,1.6-.348,3.252,3.252,0,0,1,2.328.746,3.175,3.175,0,0,1,.781,2.387V41Zm9.227,0-.258-1.219h-.062a3.6,3.6,0,0,1-1.277,1.09,3.893,3.893,0,0,1-1.59.285,2.86,2.86,0,0,1-2-.656,2.394,2.394,0,0,1-.723-1.867q0-2.594,4.148-2.719l1.453-.047v-.531a2.171,2.171,0,0,0-.434-1.488,1.783,1.783,0,0,0-1.387-.48,5.65,5.65,0,0,0-2.422.656l-.4-.992a6.094,6.094,0,0,1,1.387-.539,6.006,6.006,0,0,1,1.512-.2,3.262,3.262,0,0,1,2.27.68,2.837,2.837,0,0,1,.738,2.18V41Zm-2.93-.914a2.632,2.632,0,0,0,1.9-.664,2.457,2.457,0,0,0,.691-1.859v-.773l-1.3.055a4.717,4.717,0,0,0-2.23.48,1.449,1.449,0,0,0-.684,1.324,1.336,1.336,0,0,0,.426,1.07A1.767,1.767,0,0,0,59.922,40.086ZM72.344,41V35.461a2.235,2.235,0,0,0-.477-1.562,1.941,1.941,0,0,0-1.492-.516,2.461,2.461,0,0,0-1.969.727,3.668,3.668,0,0,0-.625,2.4V41h-1.3V32.438h1.055l.211,1.172h.063a2.648,2.648,0,0,1,1.117-.98,3.63,3.63,0,0,1,1.6-.348,3.252,3.252,0,0,1,2.328.746,3.175,3.175,0,0,1,.781,2.387V41Zm13.383,0-.258-1.219h-.062a3.6,3.6,0,0,1-1.277,1.09,3.893,3.893,0,0,1-1.59.285,2.86,2.86,0,0,1-2-.656,2.394,2.394,0,0,1-.723-1.867q0-2.594,4.148-2.719l1.453-.047v-.531a2.171,2.171,0,0,0-.434-1.488,1.783,1.783,0,0,0-1.387-.48,5.65,5.65,0,0,0-2.422.656l-.4-.992a6.094,6.094,0,0,1,1.387-.539,6.006,6.006,0,0,1,1.512-.2,3.262,3.262,0,0,1,2.27.68,2.837,2.837,0,0,1,.738,2.18V41Zm-2.93-.914a2.632,2.632,0,0,0,1.9-.664,2.457,2.457,0,0,0,.691-1.859v-.773l-1.3.055a4.717,4.717,0,0,0-2.23.48,1.449,1.449,0,0,0-.684,1.324,1.336,1.336,0,0,0,.426,1.07A1.767,1.767,0,0,0,82.8,40.086ZM104.43,41V35.43a2.312,2.312,0,0,0-.437-1.535,1.692,1.692,0,0,0-1.359-.512,2.195,2.195,0,0,0-1.789.7,3.3,3.3,0,0,0-.578,2.141V41h-1.3V35.43a2.312,2.312,0,0,0-.437-1.535,1.7,1.7,0,0,0-1.367-.512,2.118,2.118,0,0,0-1.785.73,3.953,3.953,0,0,0-.566,2.395V41h-1.3V32.438H94.57l.211,1.172h.063a2.549,2.549,0,0,1,1.035-.977,3.162,3.162,0,0,1,1.5-.352A2.544,2.544,0,0,1,100,33.734h.063a2.73,2.73,0,0,1,1.109-1.062,3.442,3.442,0,0,1,1.656-.391,2.9,2.9,0,0,1,2.176.746,3.338,3.338,0,0,1,.723,2.387V41Zm11.359-4.289a4.724,4.724,0,0,1-1.055,3.27,3.714,3.714,0,0,1-2.914,1.176,3.86,3.86,0,0,1-2.039-.539,3.558,3.558,0,0,1-1.375-1.547,5.391,5.391,0,0,1-.484-2.359,4.716,4.716,0,0,1,1.047-3.262,3.7,3.7,0,0,1,2.906-1.168,3.622,3.622,0,0,1,2.855,1.2A4.7,4.7,0,0,1,115.789,36.711Zm-6.523,0a4.064,4.064,0,0,0,.656,2.5,2.6,2.6,0,0,0,3.863,0,4.043,4.043,0,0,0,.66-2.5,3.978,3.978,0,0,0-.66-2.48,2.32,2.32,0,0,0-1.949-.848,2.283,2.283,0,0,0-1.922.836A4.023,4.023,0,0,0,109.266,36.711Zm14.625,3.141h-.07a3.047,3.047,0,0,1-2.687,1.3,3.179,3.179,0,0,1-2.613-1.148,5.055,5.055,0,0,1-.934-3.266,5.141,5.141,0,0,1,.938-3.289,3.155,3.155,0,0,1,2.609-1.172,3.114,3.114,0,0,1,2.672,1.266h.1l-.055-.617-.031-.6V28.844h1.3V41h-1.055Zm-2.594.219a2.361,2.361,0,0,0,1.926-.723,3.652,3.652,0,0,0,.6-2.332v-.273a4.3,4.3,0,0,0-.605-2.6,2.3,2.3,0,0,0-1.934-.777,1.985,1.985,0,0,0-1.746.887,4.409,4.409,0,0,0-.605,2.5,4.227,4.227,0,0,0,.6,2.477A2.037,2.037,0,0,0,121.3,40.07Zm13.961-3.359a4.724,4.724,0,0,1-1.055,3.27,3.714,3.714,0,0,1-2.914,1.176,3.86,3.86,0,0,1-2.039-.539,3.558,3.558,0,0,1-1.375-1.547,5.391,5.391,0,0,1-.484-2.359,4.716,4.716,0,0,1,1.047-3.262,3.7,3.7,0,0,1,2.906-1.168,3.622,3.622,0,0,1,2.855,1.2A4.7,4.7,0,0,1,135.258,36.711Zm-6.523,0a4.064,4.064,0,0,0,.656,2.5,2.6,2.6,0,0,0,3.863,0,4.043,4.043,0,0,0,.66-2.5,3.978,3.978,0,0,0-.66-2.48,2.32,2.32,0,0,0-1.949-.848,2.283,2.283,0,0,0-1.922.836A4.023,4.023,0,0,0,128.734,36.711Zm18.781,3.141h-.07a3.047,3.047,0,0,1-2.687,1.3,3.179,3.179,0,0,1-2.613-1.148,5.055,5.055,0,0,1-.934-3.266,5.141,5.141,0,0,1,.938-3.289,3.155,3.155,0,0,1,2.609-1.172,3.114,3.114,0,0,1,2.672,1.266h.1l-.055-.617-.031-.6V28.844h1.3V41h-1.055Zm-2.594.219a2.361,2.361,0,0,0,1.926-.723,3.652,3.652,0,0,0,.6-2.332v-.273a4.3,4.3,0,0,0-.605-2.6,2.3,2.3,0,0,0-1.934-.777,1.985,1.985,0,0,0-1.746.887,4.409,4.409,0,0,0-.605,2.5,4.227,4.227,0,0,0,.6,2.477A2.037,2.037,0,0,0,144.922,40.07Zm10.188,1.086a3.934,3.934,0,0,1-3-1.156,4.476,4.476,0,0,1-1.1-3.211,4.964,4.964,0,0,1,1.02-3.289,3.387,3.387,0,0,1,2.738-1.219,3.229,3.229,0,0,1,2.547,1.059,4.057,4.057,0,0,1,.938,2.793v.82h-5.9a3.394,3.394,0,0,0,.762,2.289,2.634,2.634,0,0,0,2.035.781,6.9,6.9,0,0,0,2.734-.578V40.6a6.863,6.863,0,0,1-1.3.426A7.31,7.31,0,0,1,155.109,41.156Zm-.352-7.789a2.118,2.118,0,0,0-1.645.672,3.1,3.1,0,0,0-.723,1.859h4.477a2.851,2.851,0,0,0-.547-1.879A1.925,1.925,0,0,0,154.758,33.367ZM165.922,41h-1.3V32.438h1.3Zm-1.352-9.891q.375-.484.809-1.172a13.413,13.413,0,0,0,.684-1.2h1.578v.164a14.473,14.473,0,0,1-2.2,2.4h-.867ZM174.531,41V35.461a2.235,2.235,0,0,0-.477-1.562,1.941,1.941,0,0,0-1.492-.516,2.461,2.461,0,0,0-1.969.727,3.668,3.668,0,0,0-.625,2.4V41h-1.3V32.438h1.055l.211,1.172H170a2.648,2.648,0,0,1,1.117-.98,3.63,3.63,0,0,1,1.6-.348,3.252,3.252,0,0,1,2.328.746,3.175,3.175,0,0,1,.781,2.387V41Zm9.789-1.148h-.07a3.047,3.047,0,0,1-2.687,1.3,3.179,3.179,0,0,1-2.613-1.148,5.055,5.055,0,0,1-.934-3.266,5.141,5.141,0,0,1,.938-3.289,3.155,3.155,0,0,1,2.609-1.172,3.114,3.114,0,0,1,2.672,1.266h.1l-.055-.617-.031-.6V28.844h1.3V41h-1.055Zm-2.594.219a2.361,2.361,0,0,0,1.926-.723,3.652,3.652,0,0,0,.6-2.332v-.273a4.3,4.3,0,0,0-.605-2.6,2.3,2.3,0,0,0-1.934-.777,1.985,1.985,0,0,0-1.746.887,4.409,4.409,0,0,0-.605,2.5,4.227,4.227,0,0,0,.6,2.477A2.037,2.037,0,0,0,181.727,40.07Zm7.867.93h-1.3V32.438h1.3Zm-1.406-10.883a.861.861,0,0,1,.219-.652.81.81,0,0,1,1.086,0,.846.846,0,0,1,.227.648.859.859,0,0,1-.227.652.794.794,0,0,1-1.086,0A.877.877,0,0,1,188.188,30.117Zm7.578,11.039a3.654,3.654,0,0,1-2.879-1.145,4.707,4.707,0,0,1-1.02-3.238,4.853,4.853,0,0,1,1.035-3.32,3.727,3.727,0,0,1,2.949-1.172,5.852,5.852,0,0,1,1.234.133,4.066,4.066,0,0,1,.969.313l-.4,1.1a6.1,6.1,0,0,0-.937-.285,4.186,4.186,0,0,0-.9-.113q-2.609,0-2.609,3.328a3.963,3.963,0,0,0,.637,2.422,2.215,2.215,0,0,0,1.887.844,5.769,5.769,0,0,0,2.2-.461v1.148A4.679,4.679,0,0,1,195.766,41.156Zm7.813,0a3.934,3.934,0,0,1-3-1.156,4.476,4.476,0,0,1-1.1-3.211A4.964,4.964,0,0,1,200.5,33.5a3.387,3.387,0,0,1,2.738-1.219,3.229,3.229,0,0,1,2.547,1.059,4.057,4.057,0,0,1,.938,2.793v.82h-5.9a3.394,3.394,0,0,0,.762,2.289,2.634,2.634,0,0,0,2.035.781,6.9,6.9,0,0,0,2.734-.578V40.6a6.863,6.863,0,0,1-1.3.426A7.31,7.31,0,0,1,203.578,41.156Zm-.352-7.789a2.118,2.118,0,0,0-1.645.672,3.1,3.1,0,0,0-.723,1.859h4.477a2.851,2.851,0,0,0-.547-1.879A1.925,1.925,0,0,0,203.227,33.367Zm5.523,6.8a1.164,1.164,0,0,1,.238-.793.864.864,0,0,1,.684-.27.924.924,0,0,1,.707.27,1.116,1.116,0,0,1,.254.793,1.1,1.1,0,0,1-.258.781,1.025,1.025,0,0,1-1.363.027A1.07,1.07,0,0,1,208.75,40.172Z" transform="translate(-10939 -16214)" fill="#38485c"/>
    <path id="Path_31940" data-name="Path 31940" d="M13.585,17.537a1.17,1.17,0,0,1,.114.494.944.944,0,0,1-.352.741,1.2,1.2,0,0,1-.807.3,1.052,1.052,0,0,1-.988-.665l-1.14-2.546H3.724l-1.14,2.546a1.078,1.078,0,0,1-.418.5,1.113,1.113,0,0,1-.589.162,1.21,1.21,0,0,1-.8-.3.935.935,0,0,1-.361-.741,1.17,1.17,0,0,1,.114-.494L5.776,6.27A1.226,1.226,0,0,1,6.3,5.691a1.511,1.511,0,0,1,1.5,0,1.226,1.226,0,0,1,.522.579ZM9.576,13.965,7.068,8.322,4.56,13.965ZM20.71,9.481a3.105,3.105,0,0,1,2.489.95,4.308,4.308,0,0,1,.817,2.869v4.674a1.11,1.11,0,0,1-.314.836,1.189,1.189,0,0,1-.864.3,1.224,1.224,0,0,1-.874-.3,1.092,1.092,0,0,1-.323-.836V13.433a2.463,2.463,0,0,0-.409-1.577,1.57,1.57,0,0,0-1.282-.494,2.168,2.168,0,0,0-1.644.646,2.4,2.4,0,0,0-.617,1.729v4.237a1.092,1.092,0,0,1-.323.836,1.224,1.224,0,0,1-.874.3,1.189,1.189,0,0,1-.865-.3,1.11,1.11,0,0,1-.314-.836V10.621a1.045,1.045,0,0,1,.323-.8,1.224,1.224,0,0,1,.874-.3,1.132,1.132,0,0,1,.807.294,1.007,1.007,0,0,1,.313.77V11.1a3.213,3.213,0,0,1,1.273-1.2A3.831,3.831,0,0,1,20.71,9.481Zm9.823,9.671a4.923,4.923,0,0,1-2.441-.589,4.015,4.015,0,0,1-1.625-1.672,5.35,5.35,0,0,1-.57-2.527,5.306,5.306,0,0,1,.6-2.556,4.228,4.228,0,0,1,1.682-1.72,5,5,0,0,1,2.489-.608,5.539,5.539,0,0,1,1.492.209,4.92,4.92,0,0,1,1.32.57,1.176,1.176,0,0,1,.608,1.007,1.068,1.068,0,0,1-.2.674.631.631,0,0,1-.522.257,1.135,1.135,0,0,1-.437-.1,3.827,3.827,0,0,1-.456-.228,5.1,5.1,0,0,0-.8-.389,2.48,2.48,0,0,0-.874-.142,2.222,2.222,0,0,0-1.815.769,3.39,3.39,0,0,0-.636,2.214,3.357,3.357,0,0,0,.636,2.194,2.222,2.222,0,0,0,1.815.77,2.343,2.343,0,0,0,.845-.143,7.162,7.162,0,0,0,.827-.389,3.762,3.762,0,0,1,.494-.257,1.1,1.1,0,0,1,.418-.085.631.631,0,0,1,.513.266,1.043,1.043,0,0,1,.209.665,1.069,1.069,0,0,1-.142.56,1.283,1.283,0,0,1-.466.427,5,5,0,0,1-1.368.6A5.882,5.882,0,0,1,30.533,19.152Zm6.308-.038A1.228,1.228,0,0,1,36,18.819a1.07,1.07,0,0,1-.333-.846V6.631A1.04,1.04,0,0,1,36,5.8a1.253,1.253,0,0,1,.846-.285A1.29,1.29,0,0,1,37.7,5.8a1.026,1.026,0,0,1,.342.836V17.974a1.055,1.055,0,0,1-.342.846A1.264,1.264,0,0,1,36.841,19.114ZM44.5,9.481a3.87,3.87,0,0,1,2.878.96,4.017,4.017,0,0,1,.941,2.917v4.636a1.072,1.072,0,0,1-.3.808,1.151,1.151,0,0,1-.836.294,1.112,1.112,0,0,1-.808-.3,1.061,1.061,0,0,1-.313-.8v-.418a2.479,2.479,0,0,1-1.016,1.159,3.049,3.049,0,0,1-1.605.418,3.728,3.728,0,0,1-1.691-.38,3.008,3.008,0,0,1-1.2-1.045,2.64,2.64,0,0,1-.437-1.482,2.348,2.348,0,0,1,.522-1.615,3.14,3.14,0,0,1,1.7-.855,15.486,15.486,0,0,1,3.249-.266h.475v-.437a1.945,1.945,0,0,0-.4-1.359,1.7,1.7,0,0,0-1.292-.427,4.1,4.1,0,0,0-1.121.161q-.57.162-1.349.465a1.9,1.9,0,0,1-.722.247.714.714,0,0,1-.561-.247.939.939,0,0,1-.218-.646.973.973,0,0,1,.161-.561,1.533,1.533,0,0,1,.542-.446,6.193,6.193,0,0,1,1.587-.57A8.186,8.186,0,0,1,44.5,9.481Zm-.589,7.961a2.029,2.029,0,0,0,1.549-.636,2.3,2.3,0,0,0,.6-1.644v-.4h-.342a13.107,13.107,0,0,0-1.976.114,1.918,1.918,0,0,0-1.007.4,1.016,1.016,0,0,0-.3.779,1.289,1.289,0,0,0,.427,1A1.508,1.508,0,0,0,43.909,17.442Zm10.165,1.71a6.109,6.109,0,0,1-3.344-.817,1.133,1.133,0,0,1-.608-1.026.9.9,0,0,1,.209-.618.657.657,0,0,1,.513-.237,2.1,2.1,0,0,1,.893.3,8.317,8.317,0,0,0,1.111.437,4.527,4.527,0,0,0,1.282.152,2.439,2.439,0,0,0,1.245-.266.824.824,0,0,0,.446-.741.714.714,0,0,0-.181-.513A1.655,1.655,0,0,0,55,15.476,13.584,13.584,0,0,0,53.58,15.1a5.438,5.438,0,0,1-2.423-.969,2.156,2.156,0,0,1-.731-1.729,2.5,2.5,0,0,1,.494-1.51,3.2,3.2,0,0,1,1.359-1.045,4.949,4.949,0,0,1,1.966-.37,5.894,5.894,0,0,1,1.539.2,4.678,4.678,0,0,1,1.33.58,1.147,1.147,0,0,1,.608,1.007.975.975,0,0,1-.209.636A.639.639,0,0,1,57,12.16a1.028,1.028,0,0,1-.408-.085,5.482,5.482,0,0,1-.5-.256,7.967,7.967,0,0,0-.95-.428,2.963,2.963,0,0,0-.988-.142,1.913,1.913,0,0,0-1.111.285.9.9,0,0,0-.409.779.791.791,0,0,0,.418.722,5.986,5.986,0,0,0,1.615.494,9.214,9.214,0,0,1,1.995.608,2.336,2.336,0,0,1,1.035.855,2.48,2.48,0,0,1,.314,1.311,2.436,2.436,0,0,1-1.074,2.071A4.766,4.766,0,0,1,54.074,19.152Z" transform="translate(-10939 -16256)" fill="#38485c"/>
  </g>
</svg>
