<svg width="148" height="24" viewBox="0 0 148 24" fill="none" xmlns="http://www.w3.org/2000/svg">
<path d="M7.9375 18H1.57031V6.57812H7.9375V7.75781H2.89844V11.4375H7.63281V12.6094H2.89844V16.8125H7.9375V18ZM16.1406 18V12.4609C16.1406 11.763 15.9818 11.2422 15.6641 10.8984C15.3464 10.5547 14.849 10.3828 14.1719 10.3828C13.276 10.3828 12.6198 10.625 12.2031 11.1094C11.7865 11.5938 11.5781 12.3932 11.5781 13.5078V18H10.2812V9.4375H11.3359L11.5469 10.6094H11.6094C11.875 10.1875 12.2474 9.86198 12.7266 9.63281C13.2057 9.39844 13.7396 9.28125 14.3281 9.28125C15.3594 9.28125 16.1354 9.53125 16.6562 10.0312C17.1771 10.526 17.4375 11.3203 17.4375 12.4141V18H16.1406ZM21.4062 18H20.1094V5.84375H21.4062V18ZM29.4219 18L29.1641 16.7812H29.1016C28.6745 17.3177 28.2474 17.6823 27.8203 17.875C27.3984 18.0625 26.8698 18.1562 26.2344 18.1562C25.3854 18.1562 24.7188 17.9375 24.2344 17.5C23.7552 17.0625 23.5156 16.4401 23.5156 15.6328C23.5156 13.9036 24.8984 12.9974 27.6641 12.9141L29.1172 12.8672V12.3359C29.1172 11.6641 28.9714 11.1693 28.6797 10.8516C28.3932 10.5286 27.9323 10.3672 27.2969 10.3672C26.5833 10.3672 25.776 10.5859 24.875 11.0234L24.4766 10.0312C24.8984 9.80208 25.3594 9.6224 25.8594 9.49219C26.3646 9.36198 26.8698 9.29688 27.375 9.29688C28.3958 9.29688 29.151 9.52344 29.6406 9.97656C30.1354 10.4297 30.3828 11.1562 30.3828 12.1562V18H29.4219ZM26.4922 17.0859C27.2995 17.0859 27.9323 16.8646 28.3906 16.4219C28.8542 15.9792 29.0859 15.3594 29.0859 14.5625V13.7891L27.7891 13.8438C26.7578 13.8802 26.013 14.0417 25.5547 14.3281C25.1016 14.6094 24.875 15.0495 24.875 15.6484C24.875 16.1172 25.0156 16.474 25.2969 16.7188C25.5833 16.9635 25.9818 17.0859 26.4922 17.0859ZM36.4844 18.1562C35.2448 18.1562 34.2839 17.776 33.6016 17.0156C32.9245 16.25 32.5859 15.1693 32.5859 13.7734C32.5859 12.3411 32.9297 11.2344 33.6172 10.4531C34.3099 9.67188 35.2943 9.28125 36.5703 9.28125C36.9818 9.28125 37.3932 9.32552 37.8047 9.41406C38.2161 9.5026 38.5391 9.60677 38.7734 9.72656L38.375 10.8281C38.0885 10.7135 37.776 10.6198 37.4375 10.5469C37.099 10.4688 36.7995 10.4297 36.5391 10.4297C34.7995 10.4297 33.9297 11.5391 33.9297 13.7578C33.9297 14.8099 34.1406 15.6172 34.5625 16.1797C34.9896 16.7422 35.6198 17.0234 36.4531 17.0234C37.1667 17.0234 37.8984 16.8698 38.6484 16.5625V17.7109C38.0755 18.0078 37.3542 18.1562 36.4844 18.1562ZM44.3047 18.1562C43.0391 18.1562 42.0391 17.7708 41.3047 17C40.5755 16.2292 40.2109 15.1589 40.2109 13.7891C40.2109 12.4089 40.5495 11.3125 41.2266 10.5C41.9089 9.6875 42.8229 9.28125 43.9688 9.28125C45.0417 9.28125 45.8906 9.63542 46.5156 10.3438C47.1406 11.0469 47.4531 11.9766 47.4531 13.1328V13.9531H41.5547C41.5807 14.9583 41.8333 15.7214 42.3125 16.2422C42.7969 16.763 43.4766 17.0234 44.3516 17.0234C45.2734 17.0234 46.1849 16.8307 47.0859 16.4453V17.6016C46.6276 17.7995 46.1927 17.9401 45.7812 18.0234C45.375 18.112 44.8828 18.1562 44.3047 18.1562ZM43.9531 10.3672C43.2656 10.3672 42.7161 10.5911 42.3047 11.0391C41.8984 11.487 41.6589 12.1068 41.5859 12.8984H46.0625C46.0625 12.0807 45.8802 11.4557 45.5156 11.0234C45.151 10.5859 44.6302 10.3672 43.9531 10.3672ZM59.6562 16.8516H59.5859C58.987 17.7214 58.0911 18.1562 56.8984 18.1562C55.7786 18.1562 54.9062 17.7734 54.2812 17.0078C53.6615 16.2422 53.3516 15.1536 53.3516 13.7422C53.3516 12.3307 53.6641 11.2344 54.2891 10.4531C54.9141 9.67188 55.7839 9.28125 56.8984 9.28125C58.0599 9.28125 58.9505 9.70312 59.5703 10.5469H59.6719L59.6172 9.92969L59.5859 9.32812V5.84375H60.8828V18H59.8281L59.6562 16.8516ZM57.0625 17.0703C57.9479 17.0703 58.5885 16.8307 58.9844 16.3516C59.3854 15.8672 59.5859 15.0885 59.5859 14.0156V13.7422C59.5859 12.5286 59.3828 11.6641 58.9766 11.1484C58.5755 10.6276 57.9323 10.3672 57.0469 10.3672C56.2865 10.3672 55.7031 10.6641 55.2969 11.2578C54.8958 11.8464 54.6953 12.6797 54.6953 13.7578C54.6953 14.8516 54.8958 15.6771 55.2969 16.2344C55.6979 16.7917 56.2865 17.0703 57.0625 17.0703ZM67.2578 18.1562C65.9922 18.1562 64.9922 17.7708 64.2578 17C63.5286 16.2292 63.1641 15.1589 63.1641 13.7891C63.1641 12.4089 63.5026 11.3125 64.1797 10.5C64.862 9.6875 65.776 9.28125 66.9219 9.28125C67.9948 9.28125 68.8438 9.63542 69.4688 10.3438C70.0938 11.0469 70.4062 11.9766 70.4062 13.1328V13.9531H64.5078C64.5339 14.9583 64.7865 15.7214 65.2656 16.2422C65.75 16.763 66.4297 17.0234 67.3047 17.0234C68.2266 17.0234 69.138 16.8307 70.0391 16.4453V17.6016C69.5807 17.7995 69.1458 17.9401 68.7344 18.0234C68.3281 18.112 67.8359 18.1562 67.2578 18.1562ZM66.9062 10.3672C66.2188 10.3672 65.6693 10.5911 65.2578 11.0391C64.8516 11.487 64.612 12.1068 64.5391 12.8984H69.0156C69.0156 12.0807 68.8333 11.4557 68.4688 11.0234C68.1042 10.5859 67.5833 10.3672 66.9062 10.3672ZM82.0469 18L81.7891 16.7812H81.7266C81.2995 17.3177 80.8724 17.6823 80.4453 17.875C80.0234 18.0625 79.4948 18.1562 78.8594 18.1562C78.0104 18.1562 77.3438 17.9375 76.8594 17.5C76.3802 17.0625 76.1406 16.4401 76.1406 15.6328C76.1406 13.9036 77.5234 12.9974 80.2891 12.9141L81.7422 12.8672V12.3359C81.7422 11.6641 81.5964 11.1693 81.3047 10.8516C81.0182 10.5286 80.5573 10.3672 79.9219 10.3672C79.2083 10.3672 78.401 10.5859 77.5 11.0234L77.1016 10.0312C77.5234 9.80208 77.9844 9.6224 78.4844 9.49219C78.9896 9.36198 79.4948 9.29688 80 9.29688C81.0208 9.29688 81.776 9.52344 82.2656 9.97656C82.7604 10.4297 83.0078 11.1562 83.0078 12.1562V18H82.0469ZM79.1172 17.0859C79.9245 17.0859 80.5573 16.8646 81.0156 16.4219C81.4792 15.9792 81.7109 15.3594 81.7109 14.5625V13.7891L80.4141 13.8438C79.3828 13.8802 78.638 14.0417 78.1797 14.3281C77.7266 14.6094 77.5 15.0495 77.5 15.6484C77.5 16.1172 77.6406 16.474 77.9219 16.7188C78.2083 16.9635 78.6068 17.0859 79.1172 17.0859ZM89.1094 18.1562C87.8698 18.1562 86.9089 17.776 86.2266 17.0156C85.5495 16.25 85.2109 15.1693 85.2109 13.7734C85.2109 12.3411 85.5547 11.2344 86.2422 10.4531C86.9349 9.67188 87.9193 9.28125 89.1953 9.28125C89.6068 9.28125 90.0182 9.32552 90.4297 9.41406C90.8411 9.5026 91.1641 9.60677 91.3984 9.72656L91 10.8281C90.7135 10.7135 90.401 10.6198 90.0625 10.5469C89.724 10.4688 89.4245 10.4297 89.1641 10.4297C87.4245 10.4297 86.5547 11.5391 86.5547 13.7578C86.5547 14.8099 86.7656 15.6172 87.1875 16.1797C87.6146 16.7422 88.2448 17.0234 89.0781 17.0234C89.7917 17.0234 90.5234 16.8698 91.2734 16.5625V17.7109C90.7005 18.0078 89.9792 18.1562 89.1094 18.1562ZM96.7344 18.1562C95.4948 18.1562 94.5339 17.776 93.8516 17.0156C93.1745 16.25 92.8359 15.1693 92.8359 13.7734C92.8359 12.3411 93.1797 11.2344 93.8672 10.4531C94.5599 9.67188 95.5443 9.28125 96.8203 9.28125C97.2318 9.28125 97.6432 9.32552 98.0547 9.41406C98.4661 9.5026 98.7891 9.60677 99.0234 9.72656L98.625 10.8281C98.3385 10.7135 98.026 10.6198 97.6875 10.5469C97.349 10.4688 97.0495 10.4297 96.7891 10.4297C95.0495 10.4297 94.1797 11.5391 94.1797 13.7578C94.1797 14.8099 94.3906 15.6172 94.8125 16.1797C95.2396 16.7422 95.8698 17.0234 96.7031 17.0234C97.4167 17.0234 98.1484 16.8698 98.8984 16.5625V17.7109C98.3255 18.0078 97.6042 18.1562 96.7344 18.1562ZM104.555 18.1562C103.289 18.1562 102.289 17.7708 101.555 17C100.826 16.2292 100.461 15.1589 100.461 13.7891C100.461 12.4089 100.799 11.3125 101.477 10.5C102.159 9.6875 103.073 9.28125 104.219 9.28125C105.292 9.28125 106.141 9.63542 106.766 10.3438C107.391 11.0469 107.703 11.9766 107.703 13.1328V13.9531H101.805C101.831 14.9583 102.083 15.7214 102.562 16.2422C103.047 16.763 103.727 17.0234 104.602 17.0234C105.523 17.0234 106.435 16.8307 107.336 16.4453V17.6016C106.878 17.7995 106.443 17.9401 106.031 18.0234C105.625 18.112 105.133 18.1562 104.555 18.1562ZM104.203 10.3672C103.516 10.3672 102.966 10.5911 102.555 11.0391C102.148 11.487 101.909 12.1068 101.836 12.8984H106.312C106.312 12.0807 106.13 11.4557 105.766 11.0234C105.401 10.5859 104.88 10.3672 104.203 10.3672ZM115.445 15.6641C115.445 16.4609 115.148 17.0755 114.555 17.5078C113.961 17.9401 113.128 18.1562 112.055 18.1562C110.919 18.1562 110.034 17.9766 109.398 17.6172V16.4141C109.81 16.6224 110.25 16.7865 110.719 16.9062C111.193 17.026 111.648 17.0859 112.086 17.0859C112.763 17.0859 113.284 16.9792 113.648 16.7656C114.013 16.5469 114.195 16.2161 114.195 15.7734C114.195 15.4401 114.049 15.1562 113.758 14.9219C113.471 14.6823 112.909 14.401 112.07 14.0781C111.273 13.7812 110.706 13.5234 110.367 13.3047C110.034 13.0807 109.784 12.8281 109.617 12.5469C109.456 12.2656 109.375 11.9297 109.375 11.5391C109.375 10.8411 109.659 10.2917 110.227 9.89062C110.794 9.48438 111.573 9.28125 112.562 9.28125C113.484 9.28125 114.385 9.46875 115.266 9.84375L114.805 10.8984C113.945 10.5443 113.167 10.3672 112.469 10.3672C111.854 10.3672 111.391 10.4635 111.078 10.6562C110.766 10.849 110.609 11.1146 110.609 11.4531C110.609 11.6823 110.667 11.8776 110.781 12.0391C110.901 12.2005 111.091 12.3542 111.352 12.5C111.612 12.6458 112.112 12.8568 112.852 13.1328C113.867 13.5026 114.552 13.875 114.906 14.25C115.266 14.625 115.445 15.0964 115.445 15.6641ZM124.953 13.7109C124.953 15.1068 124.602 16.1979 123.898 16.9844C123.195 17.7656 122.224 18.1562 120.984 18.1562C120.219 18.1562 119.539 17.9766 118.945 17.6172C118.352 17.2578 117.893 16.7422 117.57 16.0703C117.247 15.3984 117.086 14.612 117.086 13.7109C117.086 12.3151 117.435 11.2292 118.133 10.4531C118.831 9.67188 119.799 9.28125 121.039 9.28125C122.237 9.28125 123.188 9.67969 123.891 10.4766C124.599 11.2734 124.953 12.3516 124.953 13.7109ZM118.43 13.7109C118.43 14.8047 118.648 15.638 119.086 16.2109C119.523 16.7839 120.167 17.0703 121.016 17.0703C121.865 17.0703 122.508 16.7865 122.945 16.2188C123.388 15.6458 123.609 14.8099 123.609 13.7109C123.609 12.6224 123.388 11.7969 122.945 11.2344C122.508 10.6667 121.859 10.3828 121 10.3828C120.151 10.3828 119.51 10.6615 119.078 11.2188C118.646 11.776 118.43 12.6068 118.43 13.7109Z" fill="#007BC7"/>
<path d="M0 19.6016H125.852V20.3984H0V19.6016Z" fill="#007BC7"/>
<path d="M132.341 12.8333H141.649L137.582 16.9C137.257 17.225 137.257 17.7583 137.582 18.0833C137.907 18.4083 138.432 18.4083 138.757 18.0833L144.249 12.5917C144.574 12.2667 144.574 11.7417 144.249 11.4167L138.766 5.91667C138.441 5.59167 137.916 5.59167 137.591 5.91667C137.266 6.24167 137.266 6.76667 137.591 7.09167L141.649 11.1667H132.341C131.882 11.1667 131.507 11.5417 131.507 12C131.507 12.4583 131.882 12.8333 132.341 12.8333Z" fill="#007BC7"/>
</svg>
