<svg width="134" height="24" viewBox="0 0 134 24" fill="none" xmlns="http://www.w3.org/2000/svg">
<path d="M8.4375 18H2.07031V6.57812H8.4375V7.75781H3.39844V11.4375H8.13281V12.6094H3.39844V16.8125H8.4375V18ZM16.6406 18V12.4609C16.6406 11.763 16.4818 11.2422 16.1641 10.8984C15.8464 10.5547 15.349 10.3828 14.6719 10.3828C13.776 10.3828 13.1198 10.625 12.7031 11.1094C12.2865 11.5938 12.0781 12.3932 12.0781 13.5078V18H10.7812V9.4375H11.8359L12.0469 10.6094H12.1094C12.375 10.1875 12.7474 9.86198 13.2266 9.63281C13.7057 9.39844 14.2396 9.28125 14.8281 9.28125C15.8594 9.28125 16.6354 9.53125 17.1562 10.0312C17.6771 10.526 17.9375 11.3203 17.9375 12.4141V18H16.6406ZM21.9062 18H20.6094V5.84375H21.9062V18ZM29.9219 18L29.6641 16.7812H29.6016C29.1745 17.3177 28.7474 17.6823 28.3203 17.875C27.8984 18.0625 27.3698 18.1562 26.7344 18.1562C25.8854 18.1562 25.2188 17.9375 24.7344 17.5C24.2552 17.0625 24.0156 16.4401 24.0156 15.6328C24.0156 13.9036 25.3984 12.9974 28.1641 12.9141L29.6172 12.8672V12.3359C29.6172 11.6641 29.4714 11.1693 29.1797 10.8516C28.8932 10.5286 28.4323 10.3672 27.7969 10.3672C27.0833 10.3672 26.276 10.5859 25.375 11.0234L24.9766 10.0312C25.3984 9.80208 25.8594 9.6224 26.3594 9.49219C26.8646 9.36198 27.3698 9.29688 27.875 9.29688C28.8958 9.29688 29.651 9.52344 30.1406 9.97656C30.6354 10.4297 30.8828 11.1562 30.8828 12.1562V18H29.9219ZM26.9922 17.0859C27.7995 17.0859 28.4323 16.8646 28.8906 16.4219C29.3542 15.9792 29.5859 15.3594 29.5859 14.5625V13.7891L28.2891 13.8438C27.2578 13.8802 26.513 14.0417 26.0547 14.3281C25.6016 14.6094 25.375 15.0495 25.375 15.6484C25.375 16.1172 25.5156 16.474 25.7969 16.7188C26.0833 16.9635 26.4818 17.0859 26.9922 17.0859ZM36.9844 18.1562C35.7448 18.1562 34.7839 17.776 34.1016 17.0156C33.4245 16.25 33.0859 15.1693 33.0859 13.7734C33.0859 12.3411 33.4297 11.2344 34.1172 10.4531C34.8099 9.67188 35.7943 9.28125 37.0703 9.28125C37.4818 9.28125 37.8932 9.32552 38.3047 9.41406C38.7161 9.5026 39.0391 9.60677 39.2734 9.72656L38.875 10.8281C38.5885 10.7135 38.276 10.6198 37.9375 10.5469C37.599 10.4688 37.2995 10.4297 37.0391 10.4297C35.2995 10.4297 34.4297 11.5391 34.4297 13.7578C34.4297 14.8099 34.6406 15.6172 35.0625 16.1797C35.4896 16.7422 36.1198 17.0234 36.9531 17.0234C37.6667 17.0234 38.3984 16.8698 39.1484 16.5625V17.7109C38.5755 18.0078 37.8542 18.1562 36.9844 18.1562ZM44.8047 18.1562C43.5391 18.1562 42.5391 17.7708 41.8047 17C41.0755 16.2292 40.7109 15.1589 40.7109 13.7891C40.7109 12.4089 41.0495 11.3125 41.7266 10.5C42.4089 9.6875 43.3229 9.28125 44.4688 9.28125C45.5417 9.28125 46.3906 9.63542 47.0156 10.3438C47.6406 11.0469 47.9531 11.9766 47.9531 13.1328V13.9531H42.0547C42.0807 14.9583 42.3333 15.7214 42.8125 16.2422C43.2969 16.763 43.9766 17.0234 44.8516 17.0234C45.7734 17.0234 46.6849 16.8307 47.5859 16.4453V17.6016C47.1276 17.7995 46.6927 17.9401 46.2812 18.0234C45.875 18.112 45.3828 18.1562 44.8047 18.1562ZM44.4531 10.3672C43.7656 10.3672 43.2161 10.5911 42.8047 11.0391C42.3984 11.487 42.1589 12.1068 42.0859 12.8984H46.5625C46.5625 12.0807 46.3802 11.4557 46.0156 11.0234C45.651 10.5859 45.1302 10.3672 44.4531 10.3672ZM57.9453 18.1562C56.6797 18.1562 55.6797 17.7708 54.9453 17C54.2161 16.2292 53.8516 15.1589 53.8516 13.7891C53.8516 12.4089 54.1901 11.3125 54.8672 10.5C55.5495 9.6875 56.4635 9.28125 57.6094 9.28125C58.6823 9.28125 59.5312 9.63542 60.1562 10.3438C60.7812 11.0469 61.0938 11.9766 61.0938 13.1328V13.9531H55.1953C55.2214 14.9583 55.474 15.7214 55.9531 16.2422C56.4375 16.763 57.1172 17.0234 57.9922 17.0234C58.9141 17.0234 59.8255 16.8307 60.7266 16.4453V17.6016C60.2682 17.7995 59.8333 17.9401 59.4219 18.0234C59.0156 18.112 58.5234 18.1562 57.9453 18.1562ZM57.5938 10.3672C56.9062 10.3672 56.3568 10.5911 55.9453 11.0391C55.5391 11.487 55.2995 12.1068 55.2266 12.8984H59.7031C59.7031 12.0807 59.5208 11.4557 59.1562 11.0234C58.7917 10.5859 58.2708 10.3672 57.5938 10.3672ZM65.375 13.6172L62.3984 9.4375H63.875L66.1328 12.7188L68.3828 9.4375H69.8438L66.8672 13.6172L70 18H68.5312L66.1328 14.5312L63.7109 18H62.2422L65.375 13.6172ZM74.4688 17.0859C74.6979 17.0859 74.9193 17.0703 75.1328 17.0391C75.3464 17.0026 75.5156 16.9661 75.6406 16.9297V17.9219C75.5 17.9896 75.2917 18.0443 75.0156 18.0859C74.7448 18.1328 74.5 18.1562 74.2812 18.1562C72.625 18.1562 71.7969 17.2839 71.7969 15.5391V10.4453H70.5703V9.82031L71.7969 9.28125L72.3438 7.45312H73.0938V9.4375H75.5781V10.4453H73.0938V15.4844C73.0938 16 73.2161 16.3958 73.4609 16.6719C73.7057 16.9479 74.0417 17.0859 74.4688 17.0859ZM80.9766 18.1562C79.7109 18.1562 78.7109 17.7708 77.9766 17C77.2474 16.2292 76.8828 15.1589 76.8828 13.7891C76.8828 12.4089 77.2214 11.3125 77.8984 10.5C78.5807 9.6875 79.4948 9.28125 80.6406 9.28125C81.7135 9.28125 82.5625 9.63542 83.1875 10.3438C83.8125 11.0469 84.125 11.9766 84.125 13.1328V13.9531H78.2266C78.2526 14.9583 78.5052 15.7214 78.9844 16.2422C79.4688 16.763 80.1484 17.0234 81.0234 17.0234C81.9453 17.0234 82.8568 16.8307 83.7578 16.4453V17.6016C83.2995 17.7995 82.8646 17.9401 82.4531 18.0234C82.0469 18.112 81.5547 18.1562 80.9766 18.1562ZM80.625 10.3672C79.9375 10.3672 79.388 10.5911 78.9766 11.0391C78.5703 11.487 78.3307 12.1068 78.2578 12.8984H82.7344C82.7344 12.0807 82.5521 11.4557 82.1875 11.0234C81.8229 10.5859 81.3021 10.3672 80.625 10.3672ZM90.25 9.28125C90.6302 9.28125 90.9714 9.3125 91.2734 9.375L91.0938 10.5781C90.7396 10.5 90.4271 10.4609 90.1562 10.4609C89.4635 10.4609 88.8698 10.7422 88.375 11.3047C87.8854 11.8672 87.6406 12.5677 87.6406 13.4062V18H86.3438V9.4375H87.4141L87.5625 11.0234H87.625C87.9427 10.4661 88.3255 10.0365 88.7734 9.73438C89.2214 9.43229 89.7135 9.28125 90.25 9.28125ZM98.7344 18V12.4609C98.7344 11.763 98.5755 11.2422 98.2578 10.8984C97.9401 10.5547 97.4427 10.3828 96.7656 10.3828C95.8698 10.3828 95.2135 10.625 94.7969 11.1094C94.3802 11.5938 94.1719 12.3932 94.1719 13.5078V18H92.875V9.4375H93.9297L94.1406 10.6094H94.2031C94.4688 10.1875 94.8411 9.86198 95.3203 9.63281C95.7995 9.39844 96.3333 9.28125 96.9219 9.28125C97.9531 9.28125 98.7292 9.53125 99.25 10.0312C99.7708 10.526 100.031 11.3203 100.031 12.4141V18H98.7344ZM110.094 13.7109C110.094 15.1068 109.742 16.1979 109.039 16.9844C108.336 17.7656 107.365 18.1562 106.125 18.1562C105.359 18.1562 104.68 17.9766 104.086 17.6172C103.492 17.2578 103.034 16.7422 102.711 16.0703C102.388 15.3984 102.227 14.612 102.227 13.7109C102.227 12.3151 102.576 11.2292 103.273 10.4531C103.971 9.67188 104.94 9.28125 106.18 9.28125C107.378 9.28125 108.328 9.67969 109.031 10.4766C109.74 11.2734 110.094 12.3516 110.094 13.7109ZM103.57 13.7109C103.57 14.8047 103.789 15.638 104.227 16.2109C104.664 16.7839 105.307 17.0703 106.156 17.0703C107.005 17.0703 107.648 16.7865 108.086 16.2188C108.529 15.6458 108.75 14.8099 108.75 13.7109C108.75 12.6224 108.529 11.7969 108.086 11.2344C107.648 10.6667 107 10.3828 106.141 10.3828C105.292 10.3828 104.651 10.6615 104.219 11.2188C103.786 11.776 103.57 12.6068 103.57 13.7109Z" fill="#007BC7"/>
<path d="M0.5 19.6016H110.992V20.3984H0.5V19.6016Z" fill="#007BC7"/>
<path d="M128.5 17.8333H118.5C118.042 17.8333 117.667 17.4583 117.667 17V7C117.667 6.54167 118.042 6.16667 118.5 6.16667H122.667C123.125 6.16667 123.5 5.79167 123.5 5.33333C123.5 4.875 123.125 4.5 122.667 4.5H117.667C116.742 4.5 116 5.25 116 6.16667V17.8333C116 18.75 116.75 19.5 117.667 19.5H129.333C130.25 19.5 131 18.75 131 17.8333V12.8333C131 12.375 130.625 12 130.167 12C129.708 12 129.333 12.375 129.333 12.8333V17C129.333 17.4583 128.958 17.8333 128.5 17.8333ZM125.167 5.33333C125.167 5.79167 125.542 6.16667 126 6.16667H128.158L120.55 13.775C120.225 14.1 120.225 14.625 120.55 14.95C120.875 15.275 121.4 15.275 121.725 14.95L129.333 7.34167V9.5C129.333 9.95833 129.708 10.3333 130.167 10.3333C130.625 10.3333 131 9.95833 131 9.5V5.33333C131 4.875 130.625 4.5 130.167 4.5H126C125.542 4.5 125.167 4.875 125.167 5.33333Z" fill="#007BC7"/>
</svg>
