<svg xmlns="http://www.w3.org/2000/svg" width="712" height="200" viewBox="0 0 712 200">
  <g id="Grupo_32429" data-name="Grupo 32429" transform="translate(-513 -3307)">
    <g id="Rectángulo_26464" data-name="Rectángulo 26464" transform="translate(513 3307)" fill="#fff" stroke="#38485c" stroke-width="2">
      <rect width="712" height="200" rx="8" stroke="none"/>
      <rect x="1" y="1" width="710" height="198" rx="7" fill="none"/>
    </g>
    <g id="Grupo_32392" data-name="Grupo 32392" transform="translate(213 -183)">
      <g id="Enlace_-_Descarga" data-name="Enlace - Descarga" transform="translate(606 3538)">
        <rect id="Rectángulo_26318" data-name="Rectángulo 26318" width="100" height="20" fill="none"/>
        <g id="Enlace_con_icono" data-name="Enlace con icono" transform="translate(-362 -545)">
          <text id="Descarga_1" data-name="Descarga 1" transform="translate(385 561)" fill="#007bc7" font-size="15" font-family="OpenSans-Regular, Open Sans" text-decoration="underline"><tspan x="0" y="0">Descarga 1</tspan></text>
          <g id="download" transform="translate(362 546)">
            <rect id="Rectángulo_26" data-name="Rectángulo 26" width="19" height="19" fill="none"/>
            <path id="Trazado_12409" data-name="Trazado 12409" d="M110.658,56.25h-1.325V52.292a.816.816,0,0,0-.833-.792h-3.333a.816.816,0,0,0-.833.792V56.25h-1.325a.79.79,0,0,0-.592,1.354l3.825,3.634a.861.861,0,0,0,1.175,0l3.825-3.634A.787.787,0,0,0,110.658,56.25ZM101,64.167a.816.816,0,0,0,.833.792h10a.793.793,0,1,0,0-1.583h-10A.816.816,0,0,0,101,64.167Z" transform="translate(-96.834 -48.73)" fill="#007bc7"/>
          </g>
        </g>
      </g>
      <g id="Enlace_-_Descarga-2" data-name="Enlace - Descarga" transform="translate(606 3594)">
        <rect id="Rectángulo_26318-2" data-name="Rectángulo 26318" width="100" height="20" fill="none"/>
        <g id="Enlace_con_icono-2" data-name="Enlace con icono" transform="translate(-362 -545)">
          <text id="Descarga_3" data-name="Descarga 3" transform="translate(385 561)" fill="#007bc7" font-size="15" font-family="OpenSans-Regular, Open Sans" text-decoration="underline"><tspan x="0" y="0">Descarga 3</tspan></text>
          <g id="download-2" data-name="download" transform="translate(362 546)">
            <rect id="Rectángulo_26-2" data-name="Rectángulo 26" width="19" height="19" fill="none"/>
            <path id="Trazado_12409-2" data-name="Trazado 12409" d="M110.658,56.25h-1.325V52.292a.816.816,0,0,0-.833-.792h-3.333a.816.816,0,0,0-.833.792V56.25h-1.325a.79.79,0,0,0-.592,1.354l3.825,3.634a.861.861,0,0,0,1.175,0l3.825-3.634A.787.787,0,0,0,110.658,56.25ZM101,64.167a.816.816,0,0,0,.833.792h10a.793.793,0,1,0,0-1.583h-10A.816.816,0,0,0,101,64.167Z" transform="translate(-96.834 -48.73)" fill="#007bc7"/>
          </g>
        </g>
      </g>
      <g id="Enlace_-_Descarga-3" data-name="Enlace - Descarga" transform="translate(606 3566)">
        <rect id="Rectángulo_26318-3" data-name="Rectángulo 26318" width="100" height="20" fill="none"/>
        <g id="Enlace_con_icono-3" data-name="Enlace con icono" transform="translate(-362 -545)">
          <text id="Descarga_2" data-name="Descarga 2" transform="translate(385 561)" fill="#007bc7" font-size="15" font-family="OpenSans-Regular, Open Sans" text-decoration="underline"><tspan x="0" y="0">Descarga 2</tspan></text>
          <g id="download-3" data-name="download" transform="translate(362 546)">
            <rect id="Rectángulo_26-3" data-name="Rectángulo 26" width="19" height="19" fill="none"/>
            <path id="Trazado_12409-3" data-name="Trazado 12409" d="M110.658,56.25h-1.325V52.292a.816.816,0,0,0-.833-.792h-3.333a.816.816,0,0,0-.833.792V56.25h-1.325a.79.79,0,0,0-.592,1.354l3.825,3.634a.861.861,0,0,0,1.175,0l3.825-3.634A.787.787,0,0,0,110.658,56.25ZM101,64.167a.816.816,0,0,0,.833.792h10a.793.793,0,1,0,0-1.583h-10A.816.816,0,0,0,101,64.167Z" transform="translate(-96.834 -48.73)" fill="#007bc7"/>
          </g>
        </g>
      </g>
      <g id="Enlace_-_Descarga-4" data-name="Enlace - Descarga" transform="translate(606 3622)">
        <rect id="Rectángulo_26318-4" data-name="Rectángulo 26318" width="100" height="20" fill="none"/>
        <g id="Enlace_con_icono-4" data-name="Enlace con icono" transform="translate(-362 -545)">
          <text id="Descarga_4" data-name="Descarga 4" transform="translate(385 561)" fill="#007bc7" font-size="15" font-family="OpenSans-Regular, Open Sans" text-decoration="underline"><tspan x="0" y="0">Descarga 4</tspan></text>
          <g id="download-4" data-name="download" transform="translate(362 546)">
            <rect id="Rectángulo_26-4" data-name="Rectángulo 26" width="19" height="19" fill="none"/>
            <path id="Trazado_12409-4" data-name="Trazado 12409" d="M110.658,56.25h-1.325V52.292a.816.816,0,0,0-.833-.792h-3.333a.816.816,0,0,0-.833.792V56.25h-1.325a.79.79,0,0,0-.592,1.354l3.825,3.634a.861.861,0,0,0,1.175,0l3.825-3.634A.787.787,0,0,0,110.658,56.25ZM101,64.167a.816.816,0,0,0,.833.792h10a.793.793,0,1,0,0-1.583h-10A.816.816,0,0,0,101,64.167Z" transform="translate(-96.834 -48.73)" fill="#007bc7"/>
          </g>
        </g>
      </g>
    </g>
  </g>
</svg>
