<svg xmlns="http://www.w3.org/2000/svg" width="712" height="263" viewBox="0 0 712 263">
  <g id="Grupo_32427" data-name="Grupo 32427" transform="translate(-513 -2406)">
    <g id="Rectángulo_26466" data-name="Rectángulo 26466" transform="translate(513 2406)" fill="#fff" stroke="#38485c" stroke-width="2">
      <rect width="712" height="263" rx="8" stroke="none"/>
      <rect x="1" y="1" width="710" height="261" rx="7" fill="none"/>
    </g>
    <g id="Grupo_32390" data-name="Grupo 32390" transform="translate(0 -25)">
      <text id="En_2021_la_Ciudad_destina_más_de_190_millones_de_pesos_para_seguir_acompañando_la_reactivación_de_la_cultura_independiente_entre_sus_seis_programas_de_financiamiento_de_la_plataforma_de_Impulso_Cultural._Lo_que_significa_un_aumento_respecto_de_2020_de_un" data-name="En 2021, la Ciudad destina más de $190 millones de pesos para seguir acompañando la reactivación de la cultura independiente entre sus seis programas de financiamiento de la plataforma de Impulso Cultural. Lo que significa un aumento respecto de 2020 de un" transform="translate(606 2505.963)" fill="#38485c" font-size="16" font-family="OpenSans-Regular, Open Sans"><tspan x="0" y="17">En 2021, la Ciudad destina más de $190 millones de pesos para seguir </tspan><tspan x="0" y="41">acompañando la reactivación de la cultura independiente entre sus </tspan><tspan x="0" y="65">seis programas de financiamiento de la plataforma de Impulso </tspan><tspan x="0" y="89">Cultural. Lo que significa un aumento respecto de 2020 de un 40%.</tspan></text>
      <text id="Título_de_párrafo_con_enlace_a_web_externa" data-name="Título de párrafo con enlace a web externa" transform="translate(606 2496)" fill="#38485c" font-size="17" font-family="Nunito-SemiBold, Nunito" font-weight="600" letter-spacing="-0.001em"><tspan x="0" y="0">Título de párrafo con enlace a web externa</tspan></text>
      <g id="V2-Enlace" transform="translate(606 2624)">
        <rect id="Rectángulo_17710" data-name="Rectángulo 17710" width="134" height="22" rx="1" fill="none"/>
        <g id="Grupo_19569" data-name="Grupo 19569" transform="translate(1)">
          <g id="bx-link-external" transform="translate(115 4)">
            <path id="Trazado_4642" data-name="Trazado 4642" d="M12.176,3l2.561,2.561L9.293,11.006l1.1,1.1,5.444-5.444L18.4,9.222V3Z" transform="translate(-1.398 -3)" fill="#007bc7"/>
            <path id="Trazado_4643" data-name="Trazado 4643" d="M15.444,15.444H4.556V4.556H10L8.444,3H4.556A1.557,1.557,0,0,0,3,4.556V15.444A1.557,1.557,0,0,0,4.556,17H15.444A1.557,1.557,0,0,0,17,15.444V11.556L15.444,10Z" transform="translate(0 -3)" fill="#007bc7"/>
          </g>
          <text id="Impulso_digital" data-name="Impulso digital" transform="translate(0 17)" fill="#007bc7" font-size="16" font-family="OpenSans-Regular, Open Sans" text-decoration="underline"><tspan x="0" y="0">Impulso digital</tspan></text>
        </g>
      </g>
    </g>
  </g>
</svg>
