<svg xmlns="http://www.w3.org/2000/svg" width="712" height="113" viewBox="0 0 712 113">
  <g id="Group_32477" data-name="Group 32477" transform="translate(11032 18449)">
    <rect id="Rectangle_26480" data-name="Rectangle 26480" width="712" height="113" rx="8" transform="translate(-11032 -18449)" fill="none"/>
    <path id="Path_31961" data-name="Path 31961" d="M7.938,0H1.57V-11.422H7.938v1.18H2.9v3.68H7.633v1.172H2.9v4.2H7.938Zm8.2,0V-5.539A2.235,2.235,0,0,0,15.656-7.1a1.941,1.941,0,0,0-1.492-.516,2.461,2.461,0,0,0-1.969.727,3.668,3.668,0,0,0-.625,2.4V0h-1.3V-8.562h1.055l.211,1.172H11.6a2.648,2.648,0,0,1,1.117-.98,3.63,3.63,0,0,1,1.6-.348,3.252,3.252,0,0,1,2.328.746,3.175,3.175,0,0,1,.781,2.387V0Zm5.258,0h-1.3V-12.156h1.3Zm8.016,0-.258-1.219h-.062a3.6,3.6,0,0,1-1.277,1.09,3.893,3.893,0,0,1-1.59.285,2.86,2.86,0,0,1-2-.656A2.394,2.394,0,0,1,23.5-2.367q0-2.594,4.148-2.719L29.1-5.133v-.531a2.171,2.171,0,0,0-.434-1.488,1.783,1.783,0,0,0-1.387-.48,5.65,5.65,0,0,0-2.422.656l-.4-.992a6.094,6.094,0,0,1,1.387-.539,6.006,6.006,0,0,1,1.512-.2,3.262,3.262,0,0,1,2.27.68,2.837,2.837,0,0,1,.738,2.18V0Zm-2.93-.914a2.632,2.632,0,0,0,1.9-.664,2.457,2.457,0,0,0,.691-1.859v-.773l-1.3.055a4.717,4.717,0,0,0-2.23.48,1.449,1.449,0,0,0-.684,1.324,1.336,1.336,0,0,0,.426,1.07A1.767,1.767,0,0,0,26.477-.914ZM36.461.156A3.654,3.654,0,0,1,33.582-.988a4.707,4.707,0,0,1-1.02-3.238A4.853,4.853,0,0,1,33.6-7.547a3.727,3.727,0,0,1,2.949-1.172,5.852,5.852,0,0,1,1.234.133,4.066,4.066,0,0,1,.969.313l-.4,1.1a6.1,6.1,0,0,0-.937-.285,4.186,4.186,0,0,0-.9-.113q-2.609,0-2.609,3.328a3.963,3.963,0,0,0,.637,2.422,2.215,2.215,0,0,0,1.887.844,5.769,5.769,0,0,0,2.2-.461V-.289A4.679,4.679,0,0,1,36.461.156Zm7.813,0a3.934,3.934,0,0,1-3-1.156,4.476,4.476,0,0,1-1.1-3.211A4.964,4.964,0,0,1,41.2-7.5a3.387,3.387,0,0,1,2.738-1.219A3.229,3.229,0,0,1,46.484-7.66a4.057,4.057,0,0,1,.938,2.793v.82h-5.9a3.394,3.394,0,0,0,.762,2.289,2.634,2.634,0,0,0,2.035.781,6.9,6.9,0,0,0,2.734-.578V-.4a6.863,6.863,0,0,1-1.3.426A7.31,7.31,0,0,1,44.273.156Zm-.352-7.789a2.118,2.118,0,0,0-1.645.672A3.1,3.1,0,0,0,41.555-5.1h4.477a2.851,2.851,0,0,0-.547-1.879A1.925,1.925,0,0,0,43.922-7.633ZM0,1H48.258V2H0Z" transform="translate(-10700 -18387.844)" fill="#007bc7"/>
  </g>
</svg>
