<svg width="340" height="297" viewBox="0 0 340 297" fill="none" xmlns="http://www.w3.org/2000/svg">
<rect x="1" y="1" width="338" height="295" rx="7" fill="#F3F6F9" stroke="#E6EBF0" stroke-width="2"/>
<path d="M124.938 155H118.57V143.578H124.938V144.758H119.898V148.438H124.633V149.609H119.898V153.812H124.938V155ZM133.141 155V149.461C133.141 148.763 132.982 148.242 132.664 147.898C132.346 147.555 131.849 147.383 131.172 147.383C130.276 147.383 129.62 147.625 129.203 148.109C128.786 148.594 128.578 149.393 128.578 150.508V155H127.281V146.438H128.336L128.547 147.609H128.609C128.875 147.188 129.247 146.862 129.727 146.633C130.206 146.398 130.74 146.281 131.328 146.281C132.359 146.281 133.135 146.531 133.656 147.031C134.177 147.526 134.438 148.32 134.438 149.414V155H133.141ZM138.406 155H137.109V142.844H138.406V155ZM146.422 155L146.164 153.781H146.102C145.674 154.318 145.247 154.682 144.82 154.875C144.398 155.062 143.87 155.156 143.234 155.156C142.385 155.156 141.719 154.938 141.234 154.5C140.755 154.062 140.516 153.44 140.516 152.633C140.516 150.904 141.898 149.997 144.664 149.914L146.117 149.867V149.336C146.117 148.664 145.971 148.169 145.68 147.852C145.393 147.529 144.932 147.367 144.297 147.367C143.583 147.367 142.776 147.586 141.875 148.023L141.477 147.031C141.898 146.802 142.359 146.622 142.859 146.492C143.365 146.362 143.87 146.297 144.375 146.297C145.396 146.297 146.151 146.523 146.641 146.977C147.135 147.43 147.383 148.156 147.383 149.156V155H146.422ZM143.492 154.086C144.299 154.086 144.932 153.865 145.391 153.422C145.854 152.979 146.086 152.359 146.086 151.562V150.789L144.789 150.844C143.758 150.88 143.013 151.042 142.555 151.328C142.102 151.609 141.875 152.049 141.875 152.648C141.875 153.117 142.016 153.474 142.297 153.719C142.583 153.964 142.982 154.086 143.492 154.086ZM153.484 155.156C152.245 155.156 151.284 154.776 150.602 154.016C149.924 153.25 149.586 152.169 149.586 150.773C149.586 149.341 149.93 148.234 150.617 147.453C151.31 146.672 152.294 146.281 153.57 146.281C153.982 146.281 154.393 146.326 154.805 146.414C155.216 146.503 155.539 146.607 155.773 146.727L155.375 147.828C155.089 147.714 154.776 147.62 154.438 147.547C154.099 147.469 153.799 147.43 153.539 147.43C151.799 147.43 150.93 148.539 150.93 150.758C150.93 151.81 151.141 152.617 151.562 153.18C151.99 153.742 152.62 154.023 153.453 154.023C154.167 154.023 154.898 153.87 155.648 153.562V154.711C155.076 155.008 154.354 155.156 153.484 155.156ZM161.305 155.156C160.039 155.156 159.039 154.771 158.305 154C157.576 153.229 157.211 152.159 157.211 150.789C157.211 149.409 157.549 148.312 158.227 147.5C158.909 146.688 159.823 146.281 160.969 146.281C162.042 146.281 162.891 146.635 163.516 147.344C164.141 148.047 164.453 148.977 164.453 150.133V150.953H158.555C158.581 151.958 158.833 152.721 159.312 153.242C159.797 153.763 160.477 154.023 161.352 154.023C162.273 154.023 163.185 153.831 164.086 153.445V154.602C163.628 154.799 163.193 154.94 162.781 155.023C162.375 155.112 161.883 155.156 161.305 155.156ZM160.953 147.367C160.266 147.367 159.716 147.591 159.305 148.039C158.898 148.487 158.659 149.107 158.586 149.898H163.062C163.062 149.081 162.88 148.456 162.516 148.023C162.151 147.586 161.63 147.367 160.953 147.367ZM177.836 146.438V147.258L176.25 147.445C176.396 147.628 176.526 147.867 176.641 148.164C176.755 148.456 176.812 148.786 176.812 149.156C176.812 149.995 176.526 150.664 175.953 151.164C175.38 151.664 174.594 151.914 173.594 151.914C173.339 151.914 173.099 151.893 172.875 151.852C172.323 152.143 172.047 152.51 172.047 152.953C172.047 153.188 172.143 153.362 172.336 153.477C172.529 153.586 172.859 153.641 173.328 153.641H174.844C175.771 153.641 176.482 153.836 176.977 154.227C177.477 154.617 177.727 155.185 177.727 155.93C177.727 156.878 177.346 157.599 176.586 158.094C175.826 158.594 174.716 158.844 173.258 158.844C172.138 158.844 171.273 158.635 170.664 158.219C170.06 157.802 169.758 157.214 169.758 156.453C169.758 155.932 169.924 155.482 170.258 155.102C170.591 154.721 171.06 154.464 171.664 154.328C171.445 154.229 171.26 154.076 171.109 153.867C170.964 153.659 170.891 153.417 170.891 153.141C170.891 152.828 170.974 152.555 171.141 152.32C171.307 152.086 171.57 151.859 171.93 151.641C171.487 151.458 171.125 151.148 170.844 150.711C170.568 150.273 170.43 149.773 170.43 149.211C170.43 148.273 170.711 147.552 171.273 147.047C171.836 146.536 172.633 146.281 173.664 146.281C174.112 146.281 174.516 146.333 174.875 146.438H177.836ZM171.008 156.438C171.008 156.901 171.203 157.253 171.594 157.492C171.984 157.732 172.544 157.852 173.273 157.852C174.362 157.852 175.167 157.688 175.688 157.359C176.214 157.036 176.477 156.596 176.477 156.039C176.477 155.576 176.333 155.253 176.047 155.07C175.76 154.893 175.221 154.805 174.43 154.805H172.875C172.286 154.805 171.828 154.945 171.5 155.227C171.172 155.508 171.008 155.911 171.008 156.438ZM171.711 149.18C171.711 149.779 171.88 150.232 172.219 150.539C172.557 150.846 173.029 151 173.633 151C174.898 151 175.531 150.385 175.531 149.156C175.531 147.87 174.891 147.227 173.609 147.227C173 147.227 172.531 147.391 172.203 147.719C171.875 148.047 171.711 148.534 171.711 149.18ZM183.5 146.281C183.88 146.281 184.221 146.312 184.523 146.375L184.344 147.578C183.99 147.5 183.677 147.461 183.406 147.461C182.714 147.461 182.12 147.742 181.625 148.305C181.135 148.867 180.891 149.568 180.891 150.406V155H179.594V146.438H180.664L180.812 148.023H180.875C181.193 147.466 181.576 147.036 182.023 146.734C182.471 146.432 182.964 146.281 183.5 146.281ZM191.391 155L191.133 153.781H191.07C190.643 154.318 190.216 154.682 189.789 154.875C189.367 155.062 188.839 155.156 188.203 155.156C187.354 155.156 186.688 154.938 186.203 154.5C185.724 154.062 185.484 153.44 185.484 152.633C185.484 150.904 186.867 149.997 189.633 149.914L191.086 149.867V149.336C191.086 148.664 190.94 148.169 190.648 147.852C190.362 147.529 189.901 147.367 189.266 147.367C188.552 147.367 187.745 147.586 186.844 148.023L186.445 147.031C186.867 146.802 187.328 146.622 187.828 146.492C188.333 146.362 188.839 146.297 189.344 146.297C190.365 146.297 191.12 146.523 191.609 146.977C192.104 147.43 192.352 148.156 192.352 149.156V155H191.391ZM188.461 154.086C189.268 154.086 189.901 153.865 190.359 153.422C190.823 152.979 191.055 152.359 191.055 151.562V150.789L189.758 150.844C188.727 150.88 187.982 151.042 187.523 151.328C187.07 151.609 186.844 152.049 186.844 152.648C186.844 153.117 186.984 153.474 187.266 153.719C187.552 153.964 187.951 154.086 188.461 154.086ZM200.891 155V149.461C200.891 148.763 200.732 148.242 200.414 147.898C200.096 147.555 199.599 147.383 198.922 147.383C198.026 147.383 197.37 147.625 196.953 148.109C196.536 148.594 196.328 149.393 196.328 150.508V155H195.031V146.438H196.086L196.297 147.609H196.359C196.625 147.188 196.997 146.862 197.477 146.633C197.956 146.398 198.49 146.281 199.078 146.281C200.109 146.281 200.885 146.531 201.406 147.031C201.927 147.526 202.188 148.32 202.188 149.414V155H200.891ZM210.688 153.852H210.617C210.018 154.721 209.122 155.156 207.93 155.156C206.81 155.156 205.938 154.773 205.312 154.008C204.693 153.242 204.383 152.154 204.383 150.742C204.383 149.331 204.695 148.234 205.32 147.453C205.945 146.672 206.815 146.281 207.93 146.281C209.091 146.281 209.982 146.703 210.602 147.547H210.703L210.648 146.93L210.617 146.328V142.844H211.914V155H210.859L210.688 153.852ZM208.094 154.07C208.979 154.07 209.62 153.831 210.016 153.352C210.417 152.867 210.617 152.089 210.617 151.016V150.742C210.617 149.529 210.414 148.664 210.008 148.148C209.607 147.628 208.964 147.367 208.078 147.367C207.318 147.367 206.734 147.664 206.328 148.258C205.927 148.846 205.727 149.68 205.727 150.758C205.727 151.852 205.927 152.677 206.328 153.234C206.729 153.792 207.318 154.07 208.094 154.07ZM218.289 155.156C217.023 155.156 216.023 154.771 215.289 154C214.56 153.229 214.195 152.159 214.195 150.789C214.195 149.409 214.534 148.312 215.211 147.5C215.893 146.688 216.807 146.281 217.953 146.281C219.026 146.281 219.875 146.635 220.5 147.344C221.125 148.047 221.438 148.977 221.438 150.133V150.953H215.539C215.565 151.958 215.818 152.721 216.297 153.242C216.781 153.763 217.461 154.023 218.336 154.023C219.258 154.023 220.169 153.831 221.07 153.445V154.602C220.612 154.799 220.177 154.94 219.766 155.023C219.359 155.112 218.867 155.156 218.289 155.156ZM217.938 147.367C217.25 147.367 216.701 147.591 216.289 148.039C215.883 148.487 215.643 149.107 215.57 149.898H220.047C220.047 149.081 219.865 148.456 219.5 148.023C219.135 147.586 218.615 147.367 217.938 147.367Z" fill="#007BC7"/>
<path d="M117 156.602H222.273V157.398H117V156.602Z" fill="#007BC7"/>
</svg>
