<svg width="712" height="254" viewBox="0 0 712 254" fill="none" xmlns="http://www.w3.org/2000/svg">
<rect x="1" y="1" width="710" height="252" rx="7" fill="#F3F6F9" stroke="#E6EBF0" stroke-width="2"/>
<path d="M276.938 61H270.57V49.5781H276.938V50.7578H271.898V54.4375H276.633V55.6094H271.898V59.8125H276.938V61ZM285.141 61V55.4609C285.141 54.763 284.982 54.2422 284.664 53.8984C284.346 53.5547 283.849 53.3828 283.172 53.3828C282.276 53.3828 281.62 53.625 281.203 54.1094C280.786 54.5938 280.578 55.3932 280.578 56.5078V61H279.281V52.4375H280.336L280.547 53.6094H280.609C280.875 53.1875 281.247 52.862 281.727 52.6328C282.206 52.3984 282.74 52.2812 283.328 52.2812C284.359 52.2812 285.135 52.5312 285.656 53.0312C286.177 53.526 286.438 54.3203 286.438 55.4141V61H285.141ZM290.406 61H289.109V48.8438H290.406V61ZM298.422 61L298.164 59.7812H298.102C297.674 60.3177 297.247 60.6823 296.82 60.875C296.398 61.0625 295.87 61.1562 295.234 61.1562C294.385 61.1562 293.719 60.9375 293.234 60.5C292.755 60.0625 292.516 59.4401 292.516 58.6328C292.516 56.9036 293.898 55.9974 296.664 55.9141L298.117 55.8672V55.3359C298.117 54.6641 297.971 54.1693 297.68 53.8516C297.393 53.5286 296.932 53.3672 296.297 53.3672C295.583 53.3672 294.776 53.5859 293.875 54.0234L293.477 53.0312C293.898 52.8021 294.359 52.6224 294.859 52.4922C295.365 52.362 295.87 52.2969 296.375 52.2969C297.396 52.2969 298.151 52.5234 298.641 52.9766C299.135 53.4297 299.383 54.1562 299.383 55.1562V61H298.422ZM295.492 60.0859C296.299 60.0859 296.932 59.8646 297.391 59.4219C297.854 58.9792 298.086 58.3594 298.086 57.5625V56.7891L296.789 56.8438C295.758 56.8802 295.013 57.0417 294.555 57.3281C294.102 57.6094 293.875 58.0495 293.875 58.6484C293.875 59.1172 294.016 59.474 294.297 59.7188C294.583 59.9635 294.982 60.0859 295.492 60.0859ZM305.484 61.1562C304.245 61.1562 303.284 60.776 302.602 60.0156C301.924 59.25 301.586 58.1693 301.586 56.7734C301.586 55.3411 301.93 54.2344 302.617 53.4531C303.31 52.6719 304.294 52.2812 305.57 52.2812C305.982 52.2812 306.393 52.3255 306.805 52.4141C307.216 52.5026 307.539 52.6068 307.773 52.7266L307.375 53.8281C307.089 53.7135 306.776 53.6198 306.438 53.5469C306.099 53.4688 305.799 53.4297 305.539 53.4297C303.799 53.4297 302.93 54.5391 302.93 56.7578C302.93 57.8099 303.141 58.6172 303.562 59.1797C303.99 59.7422 304.62 60.0234 305.453 60.0234C306.167 60.0234 306.898 59.8698 307.648 59.5625V60.7109C307.076 61.0078 306.354 61.1562 305.484 61.1562ZM313.305 61.1562C312.039 61.1562 311.039 60.7708 310.305 60C309.576 59.2292 309.211 58.1589 309.211 56.7891C309.211 55.4089 309.549 54.3125 310.227 53.5C310.909 52.6875 311.823 52.2812 312.969 52.2812C314.042 52.2812 314.891 52.6354 315.516 53.3438C316.141 54.0469 316.453 54.9766 316.453 56.1328V56.9531H310.555C310.581 57.9583 310.833 58.7214 311.312 59.2422C311.797 59.763 312.477 60.0234 313.352 60.0234C314.273 60.0234 315.185 59.8307 316.086 59.4453V60.6016C315.628 60.7995 315.193 60.9401 314.781 61.0234C314.375 61.112 313.883 61.1562 313.305 61.1562ZM312.953 53.3672C312.266 53.3672 311.716 53.5911 311.305 54.0391C310.898 54.487 310.659 55.1068 310.586 55.8984H315.062C315.062 55.0807 314.88 54.4557 314.516 54.0234C314.151 53.5859 313.63 53.3672 312.953 53.3672ZM326.812 61.1562C326.255 61.1562 325.745 61.0547 325.281 60.8516C324.823 60.6432 324.438 60.3255 324.125 59.8984H324.031C324.094 60.3984 324.125 60.8724 324.125 61.3203V64.8438H322.828V52.4375H323.883L324.062 53.6094H324.125C324.458 53.1406 324.846 52.8021 325.289 52.5938C325.732 52.3854 326.24 52.2812 326.812 52.2812C327.948 52.2812 328.823 52.6693 329.438 53.4453C330.057 54.2214 330.367 55.3099 330.367 56.7109C330.367 58.1172 330.052 59.2109 329.422 59.9922C328.797 60.7682 327.927 61.1562 326.812 61.1562ZM326.625 53.3828C325.75 53.3828 325.117 53.625 324.727 54.1094C324.336 54.5938 324.135 55.3646 324.125 56.4219V56.7109C324.125 57.9141 324.326 58.776 324.727 59.2969C325.128 59.8125 325.771 60.0703 326.656 60.0703C327.396 60.0703 327.974 59.7708 328.391 59.1719C328.812 58.5729 329.023 57.7474 329.023 56.6953C329.023 55.6276 328.812 54.8099 328.391 54.2422C327.974 53.6693 327.385 53.3828 326.625 53.3828ZM336.547 52.2812C336.927 52.2812 337.268 52.3125 337.57 52.375L337.391 53.5781C337.036 53.5 336.724 53.4609 336.453 53.4609C335.76 53.4609 335.167 53.7422 334.672 54.3047C334.182 54.8672 333.938 55.5677 333.938 56.4062V61H332.641V52.4375H333.711L333.859 54.0234H333.922C334.24 53.4661 334.622 53.0365 335.07 52.7344C335.518 52.4323 336.01 52.2812 336.547 52.2812ZM342.789 61.1562C341.523 61.1562 340.523 60.7708 339.789 60C339.06 59.2292 338.695 58.1589 338.695 56.7891C338.695 55.4089 339.034 54.3125 339.711 53.5C340.393 52.6875 341.307 52.2812 342.453 52.2812C343.526 52.2812 344.375 52.6354 345 53.3438C345.625 54.0469 345.938 54.9766 345.938 56.1328V56.9531H340.039C340.065 57.9583 340.318 58.7214 340.797 59.2422C341.281 59.763 341.961 60.0234 342.836 60.0234C343.758 60.0234 344.669 59.8307 345.57 59.4453V60.6016C345.112 60.7995 344.677 60.9401 344.266 61.0234C343.859 61.112 343.367 61.1562 342.789 61.1562ZM342.438 53.3672C341.75 53.3672 341.201 53.5911 340.789 54.0391C340.383 54.487 340.143 55.1068 340.07 55.8984H344.547C344.547 55.0807 344.365 54.4557 344 54.0234C343.635 53.5859 343.115 53.3672 342.438 53.3672ZM353.984 59.8516H353.914C353.315 60.7214 352.419 61.1562 351.227 61.1562C350.107 61.1562 349.234 60.7734 348.609 60.0078C347.99 59.2422 347.68 58.1536 347.68 56.7422C347.68 55.3307 347.992 54.2344 348.617 53.4531C349.242 52.6719 350.112 52.2812 351.227 52.2812C352.388 52.2812 353.279 52.7031 353.898 53.5469H354L353.945 52.9297L353.914 52.3281V48.8438H355.211V61H354.156L353.984 59.8516ZM351.391 60.0703C352.276 60.0703 352.917 59.8307 353.312 59.3516C353.714 58.8672 353.914 58.0885 353.914 57.0156V56.7422C353.914 55.5286 353.711 54.6641 353.305 54.1484C352.904 53.6276 352.26 53.3672 351.375 53.3672C350.615 53.3672 350.031 53.6641 349.625 54.2578C349.224 54.8464 349.023 55.6797 349.023 56.7578C349.023 57.8516 349.224 58.6771 349.625 59.2344C350.026 59.7917 350.615 60.0703 351.391 60.0703ZM361.586 61.1562C360.32 61.1562 359.32 60.7708 358.586 60C357.857 59.2292 357.492 58.1589 357.492 56.7891C357.492 55.4089 357.831 54.3125 358.508 53.5C359.19 52.6875 360.104 52.2812 361.25 52.2812C362.323 52.2812 363.172 52.6354 363.797 53.3438C364.422 54.0469 364.734 54.9766 364.734 56.1328V56.9531H358.836C358.862 57.9583 359.115 58.7214 359.594 59.2422C360.078 59.763 360.758 60.0234 361.633 60.0234C362.555 60.0234 363.466 59.8307 364.367 59.4453V60.6016C363.909 60.7995 363.474 60.9401 363.062 61.0234C362.656 61.112 362.164 61.1562 361.586 61.1562ZM361.234 53.3672C360.547 53.3672 359.997 53.5911 359.586 54.0391C359.18 54.487 358.94 55.1068 358.867 55.8984H363.344C363.344 55.0807 363.161 54.4557 362.797 54.0234C362.432 53.5859 361.911 53.3672 361.234 53.3672ZM369.719 60.0859C369.948 60.0859 370.169 60.0703 370.383 60.0391C370.596 60.0026 370.766 59.9661 370.891 59.9297V60.9219C370.75 60.9896 370.542 61.0443 370.266 61.0859C369.995 61.1328 369.75 61.1562 369.531 61.1562C367.875 61.1562 367.047 60.2839 367.047 58.5391V53.4453H365.82V52.8203L367.047 52.2812L367.594 50.4531H368.344V52.4375H370.828V53.4453H368.344V58.4844C368.344 59 368.466 59.3958 368.711 59.6719C368.956 59.9479 369.292 60.0859 369.719 60.0859ZM376.227 61.1562C374.961 61.1562 373.961 60.7708 373.227 60C372.497 59.2292 372.133 58.1589 372.133 56.7891C372.133 55.4089 372.471 54.3125 373.148 53.5C373.831 52.6875 374.745 52.2812 375.891 52.2812C376.964 52.2812 377.812 52.6354 378.438 53.3438C379.062 54.0469 379.375 54.9766 379.375 56.1328V56.9531H373.477C373.503 57.9583 373.755 58.7214 374.234 59.2422C374.719 59.763 375.398 60.0234 376.273 60.0234C377.195 60.0234 378.107 59.8307 379.008 59.4453V60.6016C378.549 60.7995 378.115 60.9401 377.703 61.0234C377.297 61.112 376.805 61.1562 376.227 61.1562ZM375.875 53.3672C375.188 53.3672 374.638 53.5911 374.227 54.0391C373.82 54.487 373.581 55.1068 373.508 55.8984H377.984C377.984 55.0807 377.802 54.4557 377.438 54.0234C377.073 53.5859 376.552 53.3672 375.875 53.3672ZM385.5 52.2812C385.88 52.2812 386.221 52.3125 386.523 52.375L386.344 53.5781C385.99 53.5 385.677 53.4609 385.406 53.4609C384.714 53.4609 384.12 53.7422 383.625 54.3047C383.135 54.8672 382.891 55.5677 382.891 56.4062V61H381.594V52.4375H382.664L382.812 54.0234H382.875C383.193 53.4661 383.576 53.0365 384.023 52.7344C384.471 52.4323 384.964 52.2812 385.5 52.2812ZM399.039 61V55.4297C399.039 54.7474 398.893 54.237 398.602 53.8984C398.31 53.5547 397.857 53.3828 397.242 53.3828C396.435 53.3828 395.839 53.6146 395.453 54.0781C395.068 54.5417 394.875 55.2552 394.875 56.2188V61H393.578V55.4297C393.578 54.7474 393.432 54.237 393.141 53.8984C392.849 53.5547 392.393 53.3828 391.773 53.3828C390.961 53.3828 390.365 53.6276 389.984 54.1172C389.609 54.6016 389.422 55.3984 389.422 56.5078V61H388.125V52.4375H389.18L389.391 53.6094H389.453C389.698 53.1927 390.042 52.8672 390.484 52.6328C390.932 52.3984 391.432 52.2812 391.984 52.2812C393.323 52.2812 394.198 52.7656 394.609 53.7344H394.672C394.927 53.2865 395.297 52.9323 395.781 52.6719C396.266 52.4115 396.818 52.2812 397.438 52.2812C398.406 52.2812 399.13 52.5312 399.609 53.0312C400.094 53.526 400.336 54.3203 400.336 55.4141V61H399.039ZM404.312 61H403.016V52.4375H404.312V61ZM402.906 50.1172C402.906 49.8203 402.979 49.6042 403.125 49.4688C403.271 49.3281 403.453 49.2578 403.672 49.2578C403.88 49.2578 404.06 49.3281 404.211 49.4688C404.362 49.6094 404.438 49.8255 404.438 50.1172C404.438 50.4089 404.362 50.6276 404.211 50.7734C404.06 50.9141 403.88 50.9844 403.672 50.9844C403.453 50.9844 403.271 50.9141 403.125 50.7734C402.979 50.6276 402.906 50.4089 402.906 50.1172ZM412.922 61V55.4609C412.922 54.763 412.763 54.2422 412.445 53.8984C412.128 53.5547 411.63 53.3828 410.953 53.3828C410.057 53.3828 409.401 53.625 408.984 54.1094C408.568 54.5938 408.359 55.3932 408.359 56.5078V61H407.062V52.4375H408.117L408.328 53.6094H408.391C408.656 53.1875 409.029 52.862 409.508 52.6328C409.987 52.3984 410.521 52.2812 411.109 52.2812C412.141 52.2812 412.917 52.5312 413.438 53.0312C413.958 53.526 414.219 54.3203 414.219 55.4141V61H412.922ZM422.156 61L421.898 59.7812H421.836C421.409 60.3177 420.982 60.6823 420.555 60.875C420.133 61.0625 419.604 61.1562 418.969 61.1562C418.12 61.1562 417.453 60.9375 416.969 60.5C416.49 60.0625 416.25 59.4401 416.25 58.6328C416.25 56.9036 417.633 55.9974 420.398 55.9141L421.852 55.8672V55.3359C421.852 54.6641 421.706 54.1693 421.414 53.8516C421.128 53.5286 420.667 53.3672 420.031 53.3672C419.318 53.3672 418.51 53.5859 417.609 54.0234L417.211 53.0312C417.633 52.8021 418.094 52.6224 418.594 52.4922C419.099 52.362 419.604 52.2969 420.109 52.2969C421.13 52.2969 421.885 52.5234 422.375 52.9766C422.87 53.4297 423.117 54.1562 423.117 55.1562V61H422.156ZM419.227 60.0859C420.034 60.0859 420.667 59.8646 421.125 59.4219C421.589 58.9792 421.82 58.3594 421.82 57.5625V56.7891L420.523 56.8438C419.492 56.8802 418.747 57.0417 418.289 57.3281C417.836 57.6094 417.609 58.0495 417.609 58.6484C417.609 59.1172 417.75 59.474 418.031 59.7188C418.318 59.9635 418.716 60.0859 419.227 60.0859ZM431.625 59.8516H431.555C430.956 60.7214 430.06 61.1562 428.867 61.1562C427.747 61.1562 426.875 60.7734 426.25 60.0078C425.63 59.2422 425.32 58.1536 425.32 56.7422C425.32 55.3307 425.633 54.2344 426.258 53.4531C426.883 52.6719 427.753 52.2812 428.867 52.2812C430.029 52.2812 430.919 52.7031 431.539 53.5469H431.641L431.586 52.9297L431.555 52.3281V48.8438H432.852V61H431.797L431.625 59.8516ZM429.031 60.0703C429.917 60.0703 430.557 59.8307 430.953 59.3516C431.354 58.8672 431.555 58.0885 431.555 57.0156V56.7422C431.555 55.5286 431.352 54.6641 430.945 54.1484C430.544 53.6276 429.901 53.3672 429.016 53.3672C428.255 53.3672 427.672 53.6641 427.266 54.2578C426.865 54.8464 426.664 55.6797 426.664 56.7578C426.664 57.8516 426.865 58.6771 427.266 59.2344C427.667 59.7917 428.255 60.0703 429.031 60.0703ZM443 56.7109C443 58.1068 442.648 59.1979 441.945 59.9844C441.242 60.7656 440.271 61.1562 439.031 61.1562C438.266 61.1562 437.586 60.9766 436.992 60.6172C436.398 60.2578 435.94 59.7422 435.617 59.0703C435.294 58.3984 435.133 57.612 435.133 56.7109C435.133 55.3151 435.482 54.2292 436.18 53.4531C436.878 52.6719 437.846 52.2812 439.086 52.2812C440.284 52.2812 441.234 52.6797 441.938 53.4766C442.646 54.2734 443 55.3516 443 56.7109ZM436.477 56.7109C436.477 57.8047 436.695 58.638 437.133 59.2109C437.57 59.7839 438.214 60.0703 439.062 60.0703C439.911 60.0703 440.555 59.7865 440.992 59.2188C441.435 58.6458 441.656 57.8099 441.656 56.7109C441.656 55.6224 441.435 54.7969 440.992 54.2344C440.555 53.6667 439.906 53.3828 439.047 53.3828C438.198 53.3828 437.557 53.6615 437.125 54.2188C436.693 54.776 436.477 55.6068 436.477 56.7109Z" fill="#007BC7"/>
<path d="M269 62.6016H443.898V63.3984H269V62.6016Z" fill="#007BC7"/>
<path d="M276.938 109H270.57V97.5781H276.938V98.7578H271.898V102.438H276.633V103.609H271.898V107.812H276.938V109ZM285.141 109V103.461C285.141 102.763 284.982 102.242 284.664 101.898C284.346 101.555 283.849 101.383 283.172 101.383C282.276 101.383 281.62 101.625 281.203 102.109C280.786 102.594 280.578 103.393 280.578 104.508V109H279.281V100.438H280.336L280.547 101.609H280.609C280.875 101.188 281.247 100.862 281.727 100.633C282.206 100.398 282.74 100.281 283.328 100.281C284.359 100.281 285.135 100.531 285.656 101.031C286.177 101.526 286.438 102.32 286.438 103.414V109H285.141ZM290.406 109H289.109V96.8438H290.406V109ZM298.422 109L298.164 107.781H298.102C297.674 108.318 297.247 108.682 296.82 108.875C296.398 109.062 295.87 109.156 295.234 109.156C294.385 109.156 293.719 108.938 293.234 108.5C292.755 108.062 292.516 107.44 292.516 106.633C292.516 104.904 293.898 103.997 296.664 103.914L298.117 103.867V103.336C298.117 102.664 297.971 102.169 297.68 101.852C297.393 101.529 296.932 101.367 296.297 101.367C295.583 101.367 294.776 101.586 293.875 102.023L293.477 101.031C293.898 100.802 294.359 100.622 294.859 100.492C295.365 100.362 295.87 100.297 296.375 100.297C297.396 100.297 298.151 100.523 298.641 100.977C299.135 101.43 299.383 102.156 299.383 103.156V109H298.422ZM295.492 108.086C296.299 108.086 296.932 107.865 297.391 107.422C297.854 106.979 298.086 106.359 298.086 105.562V104.789L296.789 104.844C295.758 104.88 295.013 105.042 294.555 105.328C294.102 105.609 293.875 106.049 293.875 106.648C293.875 107.117 294.016 107.474 294.297 107.719C294.583 107.964 294.982 108.086 295.492 108.086ZM305.484 109.156C304.245 109.156 303.284 108.776 302.602 108.016C301.924 107.25 301.586 106.169 301.586 104.773C301.586 103.341 301.93 102.234 302.617 101.453C303.31 100.672 304.294 100.281 305.57 100.281C305.982 100.281 306.393 100.326 306.805 100.414C307.216 100.503 307.539 100.607 307.773 100.727L307.375 101.828C307.089 101.714 306.776 101.62 306.438 101.547C306.099 101.469 305.799 101.43 305.539 101.43C303.799 101.43 302.93 102.539 302.93 104.758C302.93 105.81 303.141 106.617 303.562 107.18C303.99 107.742 304.62 108.023 305.453 108.023C306.167 108.023 306.898 107.87 307.648 107.562V108.711C307.076 109.008 306.354 109.156 305.484 109.156ZM313.305 109.156C312.039 109.156 311.039 108.771 310.305 108C309.576 107.229 309.211 106.159 309.211 104.789C309.211 103.409 309.549 102.312 310.227 101.5C310.909 100.688 311.823 100.281 312.969 100.281C314.042 100.281 314.891 100.635 315.516 101.344C316.141 102.047 316.453 102.977 316.453 104.133V104.953H310.555C310.581 105.958 310.833 106.721 311.312 107.242C311.797 107.763 312.477 108.023 313.352 108.023C314.273 108.023 315.185 107.831 316.086 107.445V108.602C315.628 108.799 315.193 108.94 314.781 109.023C314.375 109.112 313.883 109.156 313.305 109.156ZM312.953 101.367C312.266 101.367 311.716 101.591 311.305 102.039C310.898 102.487 310.659 103.107 310.586 103.898H315.062C315.062 103.081 314.88 102.456 314.516 102.023C314.151 101.586 313.63 101.367 312.953 101.367ZM326.445 109.156C325.18 109.156 324.18 108.771 323.445 108C322.716 107.229 322.352 106.159 322.352 104.789C322.352 103.409 322.69 102.312 323.367 101.5C324.049 100.688 324.964 100.281 326.109 100.281C327.182 100.281 328.031 100.635 328.656 101.344C329.281 102.047 329.594 102.977 329.594 104.133V104.953H323.695C323.721 105.958 323.974 106.721 324.453 107.242C324.938 107.763 325.617 108.023 326.492 108.023C327.414 108.023 328.326 107.831 329.227 107.445V108.602C328.768 108.799 328.333 108.94 327.922 109.023C327.516 109.112 327.023 109.156 326.445 109.156ZM326.094 101.367C325.406 101.367 324.857 101.591 324.445 102.039C324.039 102.487 323.799 103.107 323.727 103.898H328.203C328.203 103.081 328.021 102.456 327.656 102.023C327.292 101.586 326.771 101.367 326.094 101.367ZM333.875 104.617L330.898 100.438H332.375L334.633 103.719L336.883 100.438H338.344L335.367 104.617L338.5 109H337.031L334.633 105.531L332.211 109H330.742L333.875 104.617ZM342.969 108.086C343.198 108.086 343.419 108.07 343.633 108.039C343.846 108.003 344.016 107.966 344.141 107.93V108.922C344 108.99 343.792 109.044 343.516 109.086C343.245 109.133 343 109.156 342.781 109.156C341.125 109.156 340.297 108.284 340.297 106.539V101.445H339.07V100.82L340.297 100.281L340.844 98.4531H341.594V100.438H344.078V101.445H341.594V106.484C341.594 107 341.716 107.396 341.961 107.672C342.206 107.948 342.542 108.086 342.969 108.086ZM349.477 109.156C348.211 109.156 347.211 108.771 346.477 108C345.747 107.229 345.383 106.159 345.383 104.789C345.383 103.409 345.721 102.312 346.398 101.5C347.081 100.688 347.995 100.281 349.141 100.281C350.214 100.281 351.062 100.635 351.688 101.344C352.312 102.047 352.625 102.977 352.625 104.133V104.953H346.727C346.753 105.958 347.005 106.721 347.484 107.242C347.969 107.763 348.648 108.023 349.523 108.023C350.445 108.023 351.357 107.831 352.258 107.445V108.602C351.799 108.799 351.365 108.94 350.953 109.023C350.547 109.112 350.055 109.156 349.477 109.156ZM349.125 101.367C348.438 101.367 347.888 101.591 347.477 102.039C347.07 102.487 346.831 103.107 346.758 103.898H351.234C351.234 103.081 351.052 102.456 350.688 102.023C350.323 101.586 349.802 101.367 349.125 101.367ZM358.75 100.281C359.13 100.281 359.471 100.312 359.773 100.375L359.594 101.578C359.24 101.5 358.927 101.461 358.656 101.461C357.964 101.461 357.37 101.742 356.875 102.305C356.385 102.867 356.141 103.568 356.141 104.406V109H354.844V100.438H355.914L356.062 102.023H356.125C356.443 101.466 356.826 101.036 357.273 100.734C357.721 100.432 358.214 100.281 358.75 100.281ZM367.234 109V103.461C367.234 102.763 367.076 102.242 366.758 101.898C366.44 101.555 365.943 101.383 365.266 101.383C364.37 101.383 363.714 101.625 363.297 102.109C362.88 102.594 362.672 103.393 362.672 104.508V109H361.375V100.438H362.43L362.641 101.609H362.703C362.969 101.188 363.341 100.862 363.82 100.633C364.299 100.398 364.833 100.281 365.422 100.281C366.453 100.281 367.229 100.531 367.75 101.031C368.271 101.526 368.531 102.32 368.531 103.414V109H367.234ZM378.594 104.711C378.594 106.107 378.242 107.198 377.539 107.984C376.836 108.766 375.865 109.156 374.625 109.156C373.859 109.156 373.18 108.977 372.586 108.617C371.992 108.258 371.534 107.742 371.211 107.07C370.888 106.398 370.727 105.612 370.727 104.711C370.727 103.315 371.076 102.229 371.773 101.453C372.471 100.672 373.44 100.281 374.68 100.281C375.878 100.281 376.828 100.68 377.531 101.477C378.24 102.273 378.594 103.352 378.594 104.711ZM372.07 104.711C372.07 105.805 372.289 106.638 372.727 107.211C373.164 107.784 373.807 108.07 374.656 108.07C375.505 108.07 376.148 107.786 376.586 107.219C377.029 106.646 377.25 105.81 377.25 104.711C377.25 103.622 377.029 102.797 376.586 102.234C376.148 101.667 375.5 101.383 374.641 101.383C373.792 101.383 373.151 101.661 372.719 102.219C372.286 102.776 372.07 103.607 372.07 104.711Z" fill="#007BC7"/>
<path d="M269 110.602H379.492V111.398H269V110.602Z" fill="#007BC7"/>
<path d="M397 108.833H387C386.542 108.833 386.167 108.458 386.167 108V98C386.167 97.5417 386.542 97.1667 387 97.1667H391.167C391.625 97.1667 392 96.7917 392 96.3333C392 95.875 391.625 95.5 391.167 95.5H386.167C385.242 95.5 384.5 96.25 384.5 97.1667V108.833C384.5 109.75 385.25 110.5 386.167 110.5H397.833C398.75 110.5 399.5 109.75 399.5 108.833V103.833C399.5 103.375 399.125 103 398.667 103C398.208 103 397.833 103.375 397.833 103.833V108C397.833 108.458 397.458 108.833 397 108.833ZM393.667 96.3333C393.667 96.7917 394.042 97.1667 394.5 97.1667H396.658L389.05 104.775C388.725 105.1 388.725 105.625 389.05 105.95C389.375 106.275 389.9 106.275 390.225 105.95L397.833 98.3417V100.5C397.833 100.958 398.208 101.333 398.667 101.333C399.125 101.333 399.5 100.958 399.5 100.5V96.3333C399.5 95.875 399.125 95.5 398.667 95.5H394.5C394.042 95.5 393.667 95.875 393.667 96.3333Z" fill="#007BC7"/>
<path d="M276.938 157H270.57V145.578H276.938V146.758H271.898V150.438H276.633V151.609H271.898V155.812H276.938V157ZM285.141 157V151.461C285.141 150.763 284.982 150.242 284.664 149.898C284.346 149.555 283.849 149.383 283.172 149.383C282.276 149.383 281.62 149.625 281.203 150.109C280.786 150.594 280.578 151.393 280.578 152.508V157H279.281V148.438H280.336L280.547 149.609H280.609C280.875 149.188 281.247 148.862 281.727 148.633C282.206 148.398 282.74 148.281 283.328 148.281C284.359 148.281 285.135 148.531 285.656 149.031C286.177 149.526 286.438 150.32 286.438 151.414V157H285.141ZM290.406 157H289.109V144.844H290.406V157ZM298.422 157L298.164 155.781H298.102C297.674 156.318 297.247 156.682 296.82 156.875C296.398 157.062 295.87 157.156 295.234 157.156C294.385 157.156 293.719 156.938 293.234 156.5C292.755 156.062 292.516 155.44 292.516 154.633C292.516 152.904 293.898 151.997 296.664 151.914L298.117 151.867V151.336C298.117 150.664 297.971 150.169 297.68 149.852C297.393 149.529 296.932 149.367 296.297 149.367C295.583 149.367 294.776 149.586 293.875 150.023L293.477 149.031C293.898 148.802 294.359 148.622 294.859 148.492C295.365 148.362 295.87 148.297 296.375 148.297C297.396 148.297 298.151 148.523 298.641 148.977C299.135 149.43 299.383 150.156 299.383 151.156V157H298.422ZM295.492 156.086C296.299 156.086 296.932 155.865 297.391 155.422C297.854 154.979 298.086 154.359 298.086 153.562V152.789L296.789 152.844C295.758 152.88 295.013 153.042 294.555 153.328C294.102 153.609 293.875 154.049 293.875 154.648C293.875 155.117 294.016 155.474 294.297 155.719C294.583 155.964 294.982 156.086 295.492 156.086ZM305.484 157.156C304.245 157.156 303.284 156.776 302.602 156.016C301.924 155.25 301.586 154.169 301.586 152.773C301.586 151.341 301.93 150.234 302.617 149.453C303.31 148.672 304.294 148.281 305.57 148.281C305.982 148.281 306.393 148.326 306.805 148.414C307.216 148.503 307.539 148.607 307.773 148.727L307.375 149.828C307.089 149.714 306.776 149.62 306.438 149.547C306.099 149.469 305.799 149.43 305.539 149.43C303.799 149.43 302.93 150.539 302.93 152.758C302.93 153.81 303.141 154.617 303.562 155.18C303.99 155.742 304.62 156.023 305.453 156.023C306.167 156.023 306.898 155.87 307.648 155.562V156.711C307.076 157.008 306.354 157.156 305.484 157.156ZM313.305 157.156C312.039 157.156 311.039 156.771 310.305 156C309.576 155.229 309.211 154.159 309.211 152.789C309.211 151.409 309.549 150.312 310.227 149.5C310.909 148.688 311.823 148.281 312.969 148.281C314.042 148.281 314.891 148.635 315.516 149.344C316.141 150.047 316.453 150.977 316.453 152.133V152.953H310.555C310.581 153.958 310.833 154.721 311.312 155.242C311.797 155.763 312.477 156.023 313.352 156.023C314.273 156.023 315.185 155.831 316.086 155.445V156.602C315.628 156.799 315.193 156.94 314.781 157.023C314.375 157.112 313.883 157.156 313.305 157.156ZM312.953 149.367C312.266 149.367 311.716 149.591 311.305 150.039C310.898 150.487 310.659 151.107 310.586 151.898H315.062C315.062 151.081 314.88 150.456 314.516 150.023C314.151 149.586 313.63 149.367 312.953 149.367ZM328.656 155.852H328.586C327.987 156.721 327.091 157.156 325.898 157.156C324.779 157.156 323.906 156.773 323.281 156.008C322.661 155.242 322.352 154.154 322.352 152.742C322.352 151.331 322.664 150.234 323.289 149.453C323.914 148.672 324.784 148.281 325.898 148.281C327.06 148.281 327.951 148.703 328.57 149.547H328.672L328.617 148.93L328.586 148.328V144.844H329.883V157H328.828L328.656 155.852ZM326.062 156.07C326.948 156.07 327.589 155.831 327.984 155.352C328.385 154.867 328.586 154.089 328.586 153.016V152.742C328.586 151.529 328.383 150.664 327.977 150.148C327.576 149.628 326.932 149.367 326.047 149.367C325.286 149.367 324.703 149.664 324.297 150.258C323.896 150.846 323.695 151.68 323.695 152.758C323.695 153.852 323.896 154.677 324.297 155.234C324.698 155.792 325.286 156.07 326.062 156.07ZM336.258 157.156C334.992 157.156 333.992 156.771 333.258 156C332.529 155.229 332.164 154.159 332.164 152.789C332.164 151.409 332.503 150.312 333.18 149.5C333.862 148.688 334.776 148.281 335.922 148.281C336.995 148.281 337.844 148.635 338.469 149.344C339.094 150.047 339.406 150.977 339.406 152.133V152.953H333.508C333.534 153.958 333.786 154.721 334.266 155.242C334.75 155.763 335.43 156.023 336.305 156.023C337.227 156.023 338.138 155.831 339.039 155.445V156.602C338.581 156.799 338.146 156.94 337.734 157.023C337.328 157.112 336.836 157.156 336.258 157.156ZM335.906 149.367C335.219 149.367 334.669 149.591 334.258 150.039C333.852 150.487 333.612 151.107 333.539 151.898H338.016C338.016 151.081 337.833 150.456 337.469 150.023C337.104 149.586 336.583 149.367 335.906 149.367ZM351.047 157L350.789 155.781H350.727C350.299 156.318 349.872 156.682 349.445 156.875C349.023 157.062 348.495 157.156 347.859 157.156C347.01 157.156 346.344 156.938 345.859 156.5C345.38 156.062 345.141 155.44 345.141 154.633C345.141 152.904 346.523 151.997 349.289 151.914L350.742 151.867V151.336C350.742 150.664 350.596 150.169 350.305 149.852C350.018 149.529 349.557 149.367 348.922 149.367C348.208 149.367 347.401 149.586 346.5 150.023L346.102 149.031C346.523 148.802 346.984 148.622 347.484 148.492C347.99 148.362 348.495 148.297 349 148.297C350.021 148.297 350.776 148.523 351.266 148.977C351.76 149.43 352.008 150.156 352.008 151.156V157H351.047ZM348.117 156.086C348.924 156.086 349.557 155.865 350.016 155.422C350.479 154.979 350.711 154.359 350.711 153.562V152.789L349.414 152.844C348.383 152.88 347.638 153.042 347.18 153.328C346.727 153.609 346.5 154.049 346.5 154.648C346.5 155.117 346.641 155.474 346.922 155.719C347.208 155.964 347.607 156.086 348.117 156.086ZM358.109 157.156C356.87 157.156 355.909 156.776 355.227 156.016C354.549 155.25 354.211 154.169 354.211 152.773C354.211 151.341 354.555 150.234 355.242 149.453C355.935 148.672 356.919 148.281 358.195 148.281C358.607 148.281 359.018 148.326 359.43 148.414C359.841 148.503 360.164 148.607 360.398 148.727L360 149.828C359.714 149.714 359.401 149.62 359.062 149.547C358.724 149.469 358.424 149.43 358.164 149.43C356.424 149.43 355.555 150.539 355.555 152.758C355.555 153.81 355.766 154.617 356.188 155.18C356.615 155.742 357.245 156.023 358.078 156.023C358.792 156.023 359.523 155.87 360.273 155.562V156.711C359.701 157.008 358.979 157.156 358.109 157.156ZM365.734 157.156C364.495 157.156 363.534 156.776 362.852 156.016C362.174 155.25 361.836 154.169 361.836 152.773C361.836 151.341 362.18 150.234 362.867 149.453C363.56 148.672 364.544 148.281 365.82 148.281C366.232 148.281 366.643 148.326 367.055 148.414C367.466 148.503 367.789 148.607 368.023 148.727L367.625 149.828C367.339 149.714 367.026 149.62 366.688 149.547C366.349 149.469 366.049 149.43 365.789 149.43C364.049 149.43 363.18 150.539 363.18 152.758C363.18 153.81 363.391 154.617 363.812 155.18C364.24 155.742 364.87 156.023 365.703 156.023C366.417 156.023 367.148 155.87 367.898 155.562V156.711C367.326 157.008 366.604 157.156 365.734 157.156ZM373.555 157.156C372.289 157.156 371.289 156.771 370.555 156C369.826 155.229 369.461 154.159 369.461 152.789C369.461 151.409 369.799 150.312 370.477 149.5C371.159 148.688 372.073 148.281 373.219 148.281C374.292 148.281 375.141 148.635 375.766 149.344C376.391 150.047 376.703 150.977 376.703 152.133V152.953H370.805C370.831 153.958 371.083 154.721 371.562 155.242C372.047 155.763 372.727 156.023 373.602 156.023C374.523 156.023 375.435 155.831 376.336 155.445V156.602C375.878 156.799 375.443 156.94 375.031 157.023C374.625 157.112 374.133 157.156 373.555 157.156ZM373.203 149.367C372.516 149.367 371.966 149.591 371.555 150.039C371.148 150.487 370.909 151.107 370.836 151.898H375.312C375.312 151.081 375.13 150.456 374.766 150.023C374.401 149.586 373.88 149.367 373.203 149.367ZM384.445 154.664C384.445 155.461 384.148 156.076 383.555 156.508C382.961 156.94 382.128 157.156 381.055 157.156C379.919 157.156 379.034 156.977 378.398 156.617V155.414C378.81 155.622 379.25 155.786 379.719 155.906C380.193 156.026 380.648 156.086 381.086 156.086C381.763 156.086 382.284 155.979 382.648 155.766C383.013 155.547 383.195 155.216 383.195 154.773C383.195 154.44 383.049 154.156 382.758 153.922C382.471 153.682 381.909 153.401 381.07 153.078C380.273 152.781 379.706 152.523 379.367 152.305C379.034 152.081 378.784 151.828 378.617 151.547C378.456 151.266 378.375 150.93 378.375 150.539C378.375 149.841 378.659 149.292 379.227 148.891C379.794 148.484 380.573 148.281 381.562 148.281C382.484 148.281 383.385 148.469 384.266 148.844L383.805 149.898C382.945 149.544 382.167 149.367 381.469 149.367C380.854 149.367 380.391 149.464 380.078 149.656C379.766 149.849 379.609 150.115 379.609 150.453C379.609 150.682 379.667 150.878 379.781 151.039C379.901 151.201 380.091 151.354 380.352 151.5C380.612 151.646 381.112 151.857 381.852 152.133C382.867 152.503 383.552 152.875 383.906 153.25C384.266 153.625 384.445 154.096 384.445 154.664ZM393.953 152.711C393.953 154.107 393.602 155.198 392.898 155.984C392.195 156.766 391.224 157.156 389.984 157.156C389.219 157.156 388.539 156.977 387.945 156.617C387.352 156.258 386.893 155.742 386.57 155.07C386.247 154.398 386.086 153.612 386.086 152.711C386.086 151.315 386.435 150.229 387.133 149.453C387.831 148.672 388.799 148.281 390.039 148.281C391.237 148.281 392.188 148.68 392.891 149.477C393.599 150.273 393.953 151.352 393.953 152.711ZM387.43 152.711C387.43 153.805 387.648 154.638 388.086 155.211C388.523 155.784 389.167 156.07 390.016 156.07C390.865 156.07 391.508 155.786 391.945 155.219C392.388 154.646 392.609 153.81 392.609 152.711C392.609 151.622 392.388 150.797 391.945 150.234C391.508 149.667 390.859 149.383 390 149.383C389.151 149.383 388.51 149.661 388.078 150.219C387.646 150.776 387.43 151.607 387.43 152.711Z" fill="#007BC7"/>
<path d="M269 158.602H394.852V159.398H269V158.602Z" fill="#007BC7"/>
<path d="M401.341 151.833H410.649L406.582 155.9C406.257 156.225 406.257 156.758 406.582 157.083C406.907 157.408 407.432 157.408 407.757 157.083L413.249 151.592C413.574 151.267 413.574 150.742 413.249 150.417L407.766 144.917C407.441 144.592 406.916 144.592 406.591 144.917C406.266 145.242 406.266 145.767 406.591 146.092L410.649 150.167H401.341C400.882 150.167 400.507 150.542 400.507 151C400.507 151.458 400.882 151.833 401.341 151.833Z" fill="#007BC7"/>
<path d="M282.825 196.917H281.5V192.75C281.5 192.292 281.125 191.917 280.667 191.917H277.333C276.875 191.917 276.5 192.292 276.5 192.75V196.917H275.175C274.433 196.917 274.058 197.817 274.583 198.342L278.408 202.167C278.733 202.492 279.258 202.492 279.583 202.167L283.408 198.342C283.933 197.817 283.567 196.917 282.825 196.917ZM273.167 205.25C273.167 205.708 273.542 206.083 274 206.083H284C284.458 206.083 284.833 205.708 284.833 205.25C284.833 204.792 284.458 204.417 284 204.417H274C273.542 204.417 273.167 204.792 273.167 205.25Z" fill="#007BC7"/>
<path d="M298.938 205H292.57V193.578H298.938V194.758H293.898V198.438H298.633V199.609H293.898V203.812H298.938V205ZM307.141 205V199.461C307.141 198.763 306.982 198.242 306.664 197.898C306.346 197.555 305.849 197.383 305.172 197.383C304.276 197.383 303.62 197.625 303.203 198.109C302.786 198.594 302.578 199.393 302.578 200.508V205H301.281V196.438H302.336L302.547 197.609H302.609C302.875 197.188 303.247 196.862 303.727 196.633C304.206 196.398 304.74 196.281 305.328 196.281C306.359 196.281 307.135 196.531 307.656 197.031C308.177 197.526 308.438 198.32 308.438 199.414V205H307.141ZM312.406 205H311.109V192.844H312.406V205ZM320.422 205L320.164 203.781H320.102C319.674 204.318 319.247 204.682 318.82 204.875C318.398 205.062 317.87 205.156 317.234 205.156C316.385 205.156 315.719 204.938 315.234 204.5C314.755 204.062 314.516 203.44 314.516 202.633C314.516 200.904 315.898 199.997 318.664 199.914L320.117 199.867V199.336C320.117 198.664 319.971 198.169 319.68 197.852C319.393 197.529 318.932 197.367 318.297 197.367C317.583 197.367 316.776 197.586 315.875 198.023L315.477 197.031C315.898 196.802 316.359 196.622 316.859 196.492C317.365 196.362 317.87 196.297 318.375 196.297C319.396 196.297 320.151 196.523 320.641 196.977C321.135 197.43 321.383 198.156 321.383 199.156V205H320.422ZM317.492 204.086C318.299 204.086 318.932 203.865 319.391 203.422C319.854 202.979 320.086 202.359 320.086 201.562V200.789L318.789 200.844C317.758 200.88 317.013 201.042 316.555 201.328C316.102 201.609 315.875 202.049 315.875 202.648C315.875 203.117 316.016 203.474 316.297 203.719C316.583 203.964 316.982 204.086 317.492 204.086ZM327.484 205.156C326.245 205.156 325.284 204.776 324.602 204.016C323.924 203.25 323.586 202.169 323.586 200.773C323.586 199.341 323.93 198.234 324.617 197.453C325.31 196.672 326.294 196.281 327.57 196.281C327.982 196.281 328.393 196.326 328.805 196.414C329.216 196.503 329.539 196.607 329.773 196.727L329.375 197.828C329.089 197.714 328.776 197.62 328.438 197.547C328.099 197.469 327.799 197.43 327.539 197.43C325.799 197.43 324.93 198.539 324.93 200.758C324.93 201.81 325.141 202.617 325.562 203.18C325.99 203.742 326.62 204.023 327.453 204.023C328.167 204.023 328.898 203.87 329.648 203.562V204.711C329.076 205.008 328.354 205.156 327.484 205.156ZM335.305 205.156C334.039 205.156 333.039 204.771 332.305 204C331.576 203.229 331.211 202.159 331.211 200.789C331.211 199.409 331.549 198.312 332.227 197.5C332.909 196.688 333.823 196.281 334.969 196.281C336.042 196.281 336.891 196.635 337.516 197.344C338.141 198.047 338.453 198.977 338.453 200.133V200.953H332.555C332.581 201.958 332.833 202.721 333.312 203.242C333.797 203.763 334.477 204.023 335.352 204.023C336.273 204.023 337.185 203.831 338.086 203.445V204.602C337.628 204.799 337.193 204.94 336.781 205.023C336.375 205.112 335.883 205.156 335.305 205.156ZM334.953 197.367C334.266 197.367 333.716 197.591 333.305 198.039C332.898 198.487 332.659 199.107 332.586 199.898H337.062C337.062 199.081 336.88 198.456 336.516 198.023C336.151 197.586 335.63 197.367 334.953 197.367ZM350.656 203.852H350.586C349.987 204.721 349.091 205.156 347.898 205.156C346.779 205.156 345.906 204.773 345.281 204.008C344.661 203.242 344.352 202.154 344.352 200.742C344.352 199.331 344.664 198.234 345.289 197.453C345.914 196.672 346.784 196.281 347.898 196.281C349.06 196.281 349.951 196.703 350.57 197.547H350.672L350.617 196.93L350.586 196.328V192.844H351.883V205H350.828L350.656 203.852ZM348.062 204.07C348.948 204.07 349.589 203.831 349.984 203.352C350.385 202.867 350.586 202.089 350.586 201.016V200.742C350.586 199.529 350.383 198.664 349.977 198.148C349.576 197.628 348.932 197.367 348.047 197.367C347.286 197.367 346.703 197.664 346.297 198.258C345.896 198.846 345.695 199.68 345.695 200.758C345.695 201.852 345.896 202.677 346.297 203.234C346.698 203.792 347.286 204.07 348.062 204.07ZM358.258 205.156C356.992 205.156 355.992 204.771 355.258 204C354.529 203.229 354.164 202.159 354.164 200.789C354.164 199.409 354.503 198.312 355.18 197.5C355.862 196.688 356.776 196.281 357.922 196.281C358.995 196.281 359.844 196.635 360.469 197.344C361.094 198.047 361.406 198.977 361.406 200.133V200.953H355.508C355.534 201.958 355.786 202.721 356.266 203.242C356.75 203.763 357.43 204.023 358.305 204.023C359.227 204.023 360.138 203.831 361.039 203.445V204.602C360.581 204.799 360.146 204.94 359.734 205.023C359.328 205.112 358.836 205.156 358.258 205.156ZM357.906 197.367C357.219 197.367 356.669 197.591 356.258 198.039C355.852 198.487 355.612 199.107 355.539 199.898H360.016C360.016 199.081 359.833 198.456 359.469 198.023C359.104 197.586 358.583 197.367 357.906 197.367ZM373.609 203.852H373.539C372.94 204.721 372.044 205.156 370.852 205.156C369.732 205.156 368.859 204.773 368.234 204.008C367.615 203.242 367.305 202.154 367.305 200.742C367.305 199.331 367.617 198.234 368.242 197.453C368.867 196.672 369.737 196.281 370.852 196.281C372.013 196.281 372.904 196.703 373.523 197.547H373.625L373.57 196.93L373.539 196.328V192.844H374.836V205H373.781L373.609 203.852ZM371.016 204.07C371.901 204.07 372.542 203.831 372.938 203.352C373.339 202.867 373.539 202.089 373.539 201.016V200.742C373.539 199.529 373.336 198.664 372.93 198.148C372.529 197.628 371.885 197.367 371 197.367C370.24 197.367 369.656 197.664 369.25 198.258C368.849 198.846 368.648 199.68 368.648 200.758C368.648 201.852 368.849 202.677 369.25 203.234C369.651 203.792 370.24 204.07 371.016 204.07ZM381.211 205.156C379.945 205.156 378.945 204.771 378.211 204C377.482 203.229 377.117 202.159 377.117 200.789C377.117 199.409 377.456 198.312 378.133 197.5C378.815 196.688 379.729 196.281 380.875 196.281C381.948 196.281 382.797 196.635 383.422 197.344C384.047 198.047 384.359 198.977 384.359 200.133V200.953H378.461C378.487 201.958 378.74 202.721 379.219 203.242C379.703 203.763 380.383 204.023 381.258 204.023C382.18 204.023 383.091 203.831 383.992 203.445V204.602C383.534 204.799 383.099 204.94 382.688 205.023C382.281 205.112 381.789 205.156 381.211 205.156ZM380.859 197.367C380.172 197.367 379.622 197.591 379.211 198.039C378.805 198.487 378.565 199.107 378.492 199.898H382.969C382.969 199.081 382.786 198.456 382.422 198.023C382.057 197.586 381.536 197.367 380.859 197.367ZM392.102 202.664C392.102 203.461 391.805 204.076 391.211 204.508C390.617 204.94 389.784 205.156 388.711 205.156C387.576 205.156 386.69 204.977 386.055 204.617V203.414C386.466 203.622 386.906 203.786 387.375 203.906C387.849 204.026 388.305 204.086 388.742 204.086C389.419 204.086 389.94 203.979 390.305 203.766C390.669 203.547 390.852 203.216 390.852 202.773C390.852 202.44 390.706 202.156 390.414 201.922C390.128 201.682 389.565 201.401 388.727 201.078C387.93 200.781 387.362 200.523 387.023 200.305C386.69 200.081 386.44 199.828 386.273 199.547C386.112 199.266 386.031 198.93 386.031 198.539C386.031 197.841 386.315 197.292 386.883 196.891C387.451 196.484 388.229 196.281 389.219 196.281C390.141 196.281 391.042 196.469 391.922 196.844L391.461 197.898C390.602 197.544 389.823 197.367 389.125 197.367C388.51 197.367 388.047 197.464 387.734 197.656C387.422 197.849 387.266 198.115 387.266 198.453C387.266 198.682 387.323 198.878 387.438 199.039C387.557 199.201 387.747 199.354 388.008 199.5C388.268 199.646 388.768 199.857 389.508 200.133C390.523 200.503 391.208 200.875 391.562 201.25C391.922 201.625 392.102 202.096 392.102 202.664ZM397.641 205.156C396.401 205.156 395.44 204.776 394.758 204.016C394.081 203.25 393.742 202.169 393.742 200.773C393.742 199.341 394.086 198.234 394.773 197.453C395.466 196.672 396.451 196.281 397.727 196.281C398.138 196.281 398.549 196.326 398.961 196.414C399.372 196.503 399.695 196.607 399.93 196.727L399.531 197.828C399.245 197.714 398.932 197.62 398.594 197.547C398.255 197.469 397.956 197.43 397.695 197.43C395.956 197.43 395.086 198.539 395.086 200.758C395.086 201.81 395.297 202.617 395.719 203.18C396.146 203.742 396.776 204.023 397.609 204.023C398.323 204.023 399.055 203.87 399.805 203.562V204.711C399.232 205.008 398.51 205.156 397.641 205.156ZM407.109 205L406.852 203.781H406.789C406.362 204.318 405.935 204.682 405.508 204.875C405.086 205.062 404.557 205.156 403.922 205.156C403.073 205.156 402.406 204.938 401.922 204.5C401.443 204.062 401.203 203.44 401.203 202.633C401.203 200.904 402.586 199.997 405.352 199.914L406.805 199.867V199.336C406.805 198.664 406.659 198.169 406.367 197.852C406.081 197.529 405.62 197.367 404.984 197.367C404.271 197.367 403.464 197.586 402.562 198.023L402.164 197.031C402.586 196.802 403.047 196.622 403.547 196.492C404.052 196.362 404.557 196.297 405.062 196.297C406.083 196.297 406.839 196.523 407.328 196.977C407.823 197.43 408.07 198.156 408.07 199.156V205H407.109ZM404.18 204.086C404.987 204.086 405.62 203.865 406.078 203.422C406.542 202.979 406.773 202.359 406.773 201.562V200.789L405.477 200.844C404.445 200.88 403.701 201.042 403.242 201.328C402.789 201.609 402.562 202.049 402.562 202.648C402.562 203.117 402.703 203.474 402.984 203.719C403.271 203.964 403.669 204.086 404.18 204.086ZM414.656 196.281C415.036 196.281 415.378 196.312 415.68 196.375L415.5 197.578C415.146 197.5 414.833 197.461 414.562 197.461C413.87 197.461 413.276 197.742 412.781 198.305C412.292 198.867 412.047 199.568 412.047 200.406V205H410.75V196.438H411.82L411.969 198.023H412.031C412.349 197.466 412.732 197.036 413.18 196.734C413.628 196.432 414.12 196.281 414.656 196.281ZM424.289 196.438V197.258L422.703 197.445C422.849 197.628 422.979 197.867 423.094 198.164C423.208 198.456 423.266 198.786 423.266 199.156C423.266 199.995 422.979 200.664 422.406 201.164C421.833 201.664 421.047 201.914 420.047 201.914C419.792 201.914 419.552 201.893 419.328 201.852C418.776 202.143 418.5 202.51 418.5 202.953C418.5 203.188 418.596 203.362 418.789 203.477C418.982 203.586 419.312 203.641 419.781 203.641H421.297C422.224 203.641 422.935 203.836 423.43 204.227C423.93 204.617 424.18 205.185 424.18 205.93C424.18 206.878 423.799 207.599 423.039 208.094C422.279 208.594 421.169 208.844 419.711 208.844C418.591 208.844 417.727 208.635 417.117 208.219C416.513 207.802 416.211 207.214 416.211 206.453C416.211 205.932 416.378 205.482 416.711 205.102C417.044 204.721 417.513 204.464 418.117 204.328C417.898 204.229 417.714 204.076 417.562 203.867C417.417 203.659 417.344 203.417 417.344 203.141C417.344 202.828 417.427 202.555 417.594 202.32C417.76 202.086 418.023 201.859 418.383 201.641C417.94 201.458 417.578 201.148 417.297 200.711C417.021 200.273 416.883 199.773 416.883 199.211C416.883 198.273 417.164 197.552 417.727 197.047C418.289 196.536 419.086 196.281 420.117 196.281C420.565 196.281 420.969 196.333 421.328 196.438H424.289ZM417.461 206.438C417.461 206.901 417.656 207.253 418.047 207.492C418.438 207.732 418.997 207.852 419.727 207.852C420.815 207.852 421.62 207.688 422.141 207.359C422.667 207.036 422.93 206.596 422.93 206.039C422.93 205.576 422.786 205.253 422.5 205.07C422.214 204.893 421.674 204.805 420.883 204.805H419.328C418.74 204.805 418.281 204.945 417.953 205.227C417.625 205.508 417.461 205.911 417.461 206.438ZM418.164 199.18C418.164 199.779 418.333 200.232 418.672 200.539C419.01 200.846 419.482 201 420.086 201C421.352 201 421.984 200.385 421.984 199.156C421.984 197.87 421.344 197.227 420.062 197.227C419.453 197.227 418.984 197.391 418.656 197.719C418.328 198.047 418.164 198.534 418.164 199.18ZM431.312 205L431.055 203.781H430.992C430.565 204.318 430.138 204.682 429.711 204.875C429.289 205.062 428.76 205.156 428.125 205.156C427.276 205.156 426.609 204.938 426.125 204.5C425.646 204.062 425.406 203.44 425.406 202.633C425.406 200.904 426.789 199.997 429.555 199.914L431.008 199.867V199.336C431.008 198.664 430.862 198.169 430.57 197.852C430.284 197.529 429.823 197.367 429.188 197.367C428.474 197.367 427.667 197.586 426.766 198.023L426.367 197.031C426.789 196.802 427.25 196.622 427.75 196.492C428.255 196.362 428.76 196.297 429.266 196.297C430.286 196.297 431.042 196.523 431.531 196.977C432.026 197.43 432.273 198.156 432.273 199.156V205H431.312ZM428.383 204.086C429.19 204.086 429.823 203.865 430.281 203.422C430.745 202.979 430.977 202.359 430.977 201.562V200.789L429.68 200.844C428.648 200.88 427.904 201.042 427.445 201.328C426.992 201.609 426.766 202.049 426.766 202.648C426.766 203.117 426.906 203.474 427.188 203.719C427.474 203.964 427.872 204.086 428.383 204.086Z" fill="#007BC7"/>
<path d="M291 206.602H433.57V207.398H291V206.602Z" fill="#007BC7"/>
</svg>
