<svg width="342" height="240" viewBox="0 0 342 240" fill="none" xmlns="http://www.w3.org/2000/svg">
<rect x="1" y="1" width="340" height="212" rx="9" fill="#F3F6F9" stroke="#E6EBF0" stroke-width="2"/>
<rect x="45.5" y="47.5" width="251" height="119" fill="white"/>
<rect x="45.5" y="47.5" width="251" height="119" stroke="#E6EBF0"/>
<path d="M68.9219 77H62.5625V65.5781H68.9219V66.75H63.8906V70.4453H68.6328V71.6016H63.8906V75.8281H68.9219V77ZM76.7969 74.6562C76.7969 75.2031 76.6589 75.6641 76.3828 76.0391C76.112 76.4089 75.7214 76.6875 75.2109 76.875C74.7057 77.0625 74.1016 77.1562 73.3984 77.1562C72.7995 77.1562 72.2812 77.1094 71.8438 77.0156C71.4062 76.9219 71.0234 76.7891 70.6953 76.6172V75.4219C71.0443 75.5938 71.4609 75.75 71.9453 75.8906C72.4297 76.0312 72.9245 76.1016 73.4297 76.1016C74.1693 76.1016 74.7057 75.9818 75.0391 75.7422C75.3724 75.5026 75.5391 75.1771 75.5391 74.7656C75.5391 74.5312 75.4714 74.3255 75.3359 74.1484C75.2057 73.9661 74.9844 73.7917 74.6719 73.625C74.3594 73.4531 73.9271 73.2656 73.375 73.0625C72.8281 72.8542 72.3542 72.6484 71.9531 72.4453C71.5573 72.237 71.25 71.9844 71.0312 71.6875C70.8177 71.3906 70.7109 71.0052 70.7109 70.5312C70.7109 69.8073 71.0026 69.2526 71.5859 68.8672C72.1745 68.4766 72.9453 68.2812 73.8984 68.2812C74.4141 68.2812 74.8958 68.3333 75.3438 68.4375C75.7969 68.5365 76.2188 68.6719 76.6094 68.8438L76.1719 69.8828C75.8177 69.7318 75.4401 69.6042 75.0391 69.5C74.638 69.3958 74.2292 69.3438 73.8125 69.3438C73.2135 69.3438 72.7526 69.4427 72.4297 69.6406C72.112 69.8385 71.9531 70.1094 71.9531 70.4531C71.9531 70.7188 72.026 70.9375 72.1719 71.1094C72.3229 71.2812 72.5625 71.4427 72.8906 71.5938C73.2188 71.7448 73.651 71.9219 74.1875 72.125C74.724 72.3229 75.1875 72.5286 75.5781 72.7422C75.9688 72.9505 76.2682 73.2057 76.4766 73.5078C76.6901 73.8047 76.7969 74.1875 76.7969 74.6562ZM81.6484 76.0938C81.862 76.0938 82.0807 76.0755 82.3047 76.0391C82.5286 76.0026 82.7109 75.9583 82.8516 75.9062V76.9141C82.7005 76.9818 82.4896 77.0391 82.2188 77.0859C81.9531 77.1328 81.6927 77.1562 81.4375 77.1562C80.9844 77.1562 80.5729 77.0781 80.2031 76.9219C79.8333 76.7604 79.5365 76.4896 79.3125 76.1094C79.0938 75.7292 78.9844 75.2031 78.9844 74.5312V69.4531H77.7656V68.8203L78.9922 68.3125L79.5078 66.4531H80.2891V68.4375H82.7969V69.4531H80.2891V74.4922C80.2891 75.0286 80.4115 75.4297 80.6562 75.6953C80.9062 75.9609 81.237 76.0938 81.6484 76.0938ZM87.8828 68.2812C88.612 68.2812 89.237 68.4427 89.7578 68.7656C90.2786 69.0885 90.6771 69.5417 90.9531 70.125C91.2292 70.7031 91.3672 71.3802 91.3672 72.1562V72.9609H85.4531C85.4688 73.9661 85.7188 74.7318 86.2031 75.2578C86.6875 75.7839 87.3698 76.0469 88.25 76.0469C88.7917 76.0469 89.2708 75.9974 89.6875 75.8984C90.1042 75.7995 90.5365 75.6536 90.9844 75.4609V76.6016C90.5521 76.7943 90.1224 76.9349 89.6953 77.0234C89.2734 77.112 88.7734 77.1562 88.1953 77.1562C87.3724 77.1562 86.6536 76.9896 86.0391 76.6562C85.4297 76.3177 84.9557 75.8229 84.6172 75.1719C84.2786 74.5208 84.1094 73.724 84.1094 72.7812C84.1094 71.8594 84.263 71.0625 84.5703 70.3906C84.8828 69.7135 85.3203 69.1927 85.8828 68.8281C86.4505 68.4635 87.1172 68.2812 87.8828 68.2812ZM87.8672 69.3438C87.1745 69.3438 86.6224 69.5703 86.2109 70.0234C85.7995 70.4766 85.5547 71.1094 85.4766 71.9219H90.0078C90.0026 71.4115 89.9219 70.9635 89.7656 70.5781C89.6146 70.1875 89.3828 69.8854 89.0703 69.6719C88.7578 69.4531 88.3568 69.3438 87.8672 69.3438ZM104.797 68.4375V77H103.734L103.547 75.7969H103.477C103.299 76.0938 103.07 76.3438 102.789 76.5469C102.508 76.75 102.19 76.901 101.836 77C101.487 77.1042 101.115 77.1562 100.719 77.1562C100.042 77.1562 99.474 77.0469 99.0156 76.8281C98.5573 76.6094 98.2109 76.2708 97.9766 75.8125C97.7474 75.3542 97.6328 74.7656 97.6328 74.0469V68.4375H98.9453V73.9531C98.9453 74.6667 99.1068 75.2005 99.4297 75.5547C99.7526 75.9036 100.245 76.0781 100.906 76.0781C101.542 76.0781 102.047 75.9583 102.422 75.7188C102.802 75.4792 103.076 75.1276 103.242 74.6641C103.409 74.1953 103.492 73.6224 103.492 72.9453V68.4375H104.797ZM111.594 68.2812C112.609 68.2812 113.378 68.5312 113.898 69.0312C114.419 69.526 114.68 70.3229 114.68 71.4219V77H113.398V71.5078C113.398 70.7943 113.234 70.2604 112.906 69.9062C112.583 69.5521 112.086 69.375 111.414 69.375C110.466 69.375 109.799 69.6432 109.414 70.1797C109.029 70.7161 108.836 71.4948 108.836 72.5156V77H107.539V68.4375H108.586L108.781 69.6719H108.852C109.034 69.3698 109.266 69.1172 109.547 68.9141C109.828 68.7057 110.143 68.5495 110.492 68.4453C110.841 68.3359 111.208 68.2812 111.594 68.2812ZM124.273 76.0938C124.487 76.0938 124.706 76.0755 124.93 76.0391C125.154 76.0026 125.336 75.9583 125.477 75.9062V76.9141C125.326 76.9818 125.115 77.0391 124.844 77.0859C124.578 77.1328 124.318 77.1562 124.062 77.1562C123.609 77.1562 123.198 77.0781 122.828 76.9219C122.458 76.7604 122.161 76.4896 121.938 76.1094C121.719 75.7292 121.609 75.2031 121.609 74.5312V69.4531H120.391V68.8203L121.617 68.3125L122.133 66.4531H122.914V68.4375H125.422V69.4531H122.914V74.4922C122.914 75.0286 123.036 75.4297 123.281 75.6953C123.531 75.9609 123.862 76.0938 124.273 76.0938ZM130.508 68.2812C131.237 68.2812 131.862 68.4427 132.383 68.7656C132.904 69.0885 133.302 69.5417 133.578 70.125C133.854 70.7031 133.992 71.3802 133.992 72.1562V72.9609H128.078C128.094 73.9661 128.344 74.7318 128.828 75.2578C129.312 75.7839 129.995 76.0469 130.875 76.0469C131.417 76.0469 131.896 75.9974 132.312 75.8984C132.729 75.7995 133.161 75.6536 133.609 75.4609V76.6016C133.177 76.7943 132.747 76.9349 132.32 77.0234C131.898 77.112 131.398 77.1562 130.82 77.1562C129.997 77.1562 129.279 76.9896 128.664 76.6562C128.055 76.3177 127.581 75.8229 127.242 75.1719C126.904 74.5208 126.734 73.724 126.734 72.7812C126.734 71.8594 126.888 71.0625 127.195 70.3906C127.508 69.7135 127.945 69.1927 128.508 68.8281C129.076 68.4635 129.742 68.2812 130.508 68.2812ZM130.492 69.3438C129.799 69.3438 129.247 69.5703 128.836 70.0234C128.424 70.4766 128.18 71.1094 128.102 71.9219H132.633C132.628 71.4115 132.547 70.9635 132.391 70.5781C132.24 70.1875 132.008 69.8854 131.695 69.6719C131.383 69.4531 130.982 69.3438 130.492 69.3438ZM138.234 72.6172L135.273 68.4375H136.758L139.016 71.7344L141.266 68.4375H142.734L139.773 72.6172L142.898 77H141.414L139.016 73.5078L136.602 77H135.133L138.234 72.6172ZM147.336 76.0938C147.549 76.0938 147.768 76.0755 147.992 76.0391C148.216 76.0026 148.398 75.9583 148.539 75.9062V76.9141C148.388 76.9818 148.177 77.0391 147.906 77.0859C147.641 77.1328 147.38 77.1562 147.125 77.1562C146.672 77.1562 146.26 77.0781 145.891 76.9219C145.521 76.7604 145.224 76.4896 145 76.1094C144.781 75.7292 144.672 75.2031 144.672 74.5312V69.4531H143.453V68.8203L144.68 68.3125L145.195 66.4531H145.977V68.4375H148.484V69.4531H145.977V74.4922C145.977 75.0286 146.099 75.4297 146.344 75.6953C146.594 75.9609 146.924 76.0938 147.336 76.0938ZM157.656 72.7031C157.656 73.4062 157.565 74.0339 157.383 74.5859C157.201 75.138 156.938 75.6042 156.594 75.9844C156.25 76.3646 155.833 76.6562 155.344 76.8594C154.859 77.0573 154.31 77.1562 153.695 77.1562C153.122 77.1562 152.596 77.0573 152.117 76.8594C151.643 76.6562 151.232 76.3646 150.883 75.9844C150.539 75.6042 150.271 75.138 150.078 74.5859C149.891 74.0339 149.797 73.4062 149.797 72.7031C149.797 71.7656 149.956 70.9688 150.273 70.3125C150.591 69.651 151.044 69.1484 151.633 68.8047C152.227 68.4557 152.932 68.2812 153.75 68.2812C154.531 68.2812 155.214 68.4557 155.797 68.8047C156.385 69.1536 156.841 69.6589 157.164 70.3203C157.492 70.9766 157.656 71.7708 157.656 72.7031ZM151.141 72.7031C151.141 73.3906 151.232 73.987 151.414 74.4922C151.596 74.9974 151.878 75.388 152.258 75.6641C152.638 75.9401 153.128 76.0781 153.727 76.0781C154.32 76.0781 154.807 75.9401 155.188 75.6641C155.573 75.388 155.857 74.9974 156.039 74.4922C156.221 73.987 156.312 73.3906 156.312 72.7031C156.312 72.0208 156.221 71.4323 156.039 70.9375C155.857 70.4375 155.576 70.0521 155.195 69.7812C154.815 69.5104 154.323 69.375 153.719 69.375C152.828 69.375 152.174 69.6693 151.758 70.2578C151.346 70.8464 151.141 71.6615 151.141 72.7031ZM167.102 77.1562C166.018 77.1562 165.159 76.7865 164.523 76.0469C163.893 75.3073 163.578 74.2083 163.578 72.75C163.578 71.276 163.901 70.1641 164.547 69.4141C165.193 68.6589 166.052 68.2812 167.125 68.2812C167.578 68.2812 167.974 68.3411 168.312 68.4609C168.651 68.5807 168.943 68.7422 169.188 68.9453C169.432 69.1432 169.638 69.3698 169.805 69.625H169.898C169.878 69.4635 169.857 69.2422 169.836 68.9609C169.815 68.6797 169.805 68.4505 169.805 68.2734V64.8438H171.102V77H170.055L169.859 75.7812H169.805C169.643 76.0365 169.438 76.2682 169.188 76.4766C168.943 76.6849 168.648 76.8516 168.305 76.9766C167.966 77.0964 167.565 77.1562 167.102 77.1562ZM167.305 76.0781C168.221 76.0781 168.87 75.8177 169.25 75.2969C169.63 74.776 169.82 74.0026 169.82 72.9766V72.7422C169.82 71.6536 169.638 70.8177 169.273 70.2344C168.914 69.651 168.258 69.3594 167.305 69.3594C166.508 69.3594 165.911 69.6667 165.516 70.2812C165.12 70.8906 164.922 71.724 164.922 72.7812C164.922 73.8333 165.117 74.6458 165.508 75.2188C165.904 75.7917 166.503 76.0781 167.305 76.0781ZM177.148 68.2812C177.878 68.2812 178.503 68.4427 179.023 68.7656C179.544 69.0885 179.943 69.5417 180.219 70.125C180.495 70.7031 180.633 71.3802 180.633 72.1562V72.9609H174.719C174.734 73.9661 174.984 74.7318 175.469 75.2578C175.953 75.7839 176.635 76.0469 177.516 76.0469C178.057 76.0469 178.536 75.9974 178.953 75.8984C179.37 75.7995 179.802 75.6536 180.25 75.4609V76.6016C179.818 76.7943 179.388 76.9349 178.961 77.0234C178.539 77.112 178.039 77.1562 177.461 77.1562C176.638 77.1562 175.919 76.9896 175.305 76.6562C174.695 76.3177 174.221 75.8229 173.883 75.1719C173.544 74.5208 173.375 73.724 173.375 72.7812C173.375 71.8594 173.529 71.0625 173.836 70.3906C174.148 69.7135 174.586 69.1927 175.148 68.8281C175.716 68.4635 176.383 68.2812 177.148 68.2812ZM177.133 69.3438C176.44 69.3438 175.888 69.5703 175.477 70.0234C175.065 70.4766 174.82 71.1094 174.742 71.9219H179.273C179.268 71.4115 179.188 70.9635 179.031 70.5781C178.88 70.1875 178.648 69.8854 178.336 69.6719C178.023 69.4531 177.622 69.3438 177.133 69.3438ZM191.016 68.2812C192.083 68.2812 192.935 68.6484 193.57 69.3828C194.206 70.1172 194.523 71.2214 194.523 72.6953C194.523 73.6693 194.378 74.487 194.086 75.1484C193.794 75.8099 193.383 76.3099 192.852 76.6484C192.326 76.987 191.703 77.1562 190.984 77.1562C190.531 77.1562 190.133 77.0964 189.789 76.9766C189.445 76.8568 189.151 76.6953 188.906 76.4922C188.661 76.2891 188.458 76.0677 188.297 75.8281H188.203C188.219 76.0312 188.237 76.276 188.258 76.5625C188.284 76.849 188.297 77.099 188.297 77.3125V80.8281H186.992V68.4375H188.062L188.234 69.7031H188.297C188.464 69.4427 188.667 69.2057 188.906 68.9922C189.146 68.7734 189.438 68.6016 189.781 68.4766C190.13 68.3464 190.542 68.2812 191.016 68.2812ZM190.789 69.375C190.195 69.375 189.716 69.4896 189.352 69.7188C188.992 69.9479 188.729 70.2917 188.562 70.75C188.396 71.2031 188.307 71.7734 188.297 72.4609V72.7109C188.297 73.4349 188.375 74.0469 188.531 74.5469C188.693 75.0469 188.956 75.4271 189.32 75.6875C189.69 75.9479 190.185 76.0781 190.805 76.0781C191.336 76.0781 191.779 75.9349 192.133 75.6484C192.487 75.362 192.75 74.9635 192.922 74.4531C193.099 73.9375 193.188 73.3464 193.188 72.6797C193.188 71.6693 192.99 70.8672 192.594 70.2734C192.203 69.6745 191.602 69.375 190.789 69.375ZM200.68 68.2812C200.852 68.2812 201.031 68.2917 201.219 68.3125C201.406 68.3281 201.573 68.3516 201.719 68.3828L201.555 69.5859C201.414 69.5495 201.258 69.5208 201.086 69.5C200.914 69.4792 200.753 69.4688 200.602 69.4688C200.258 69.4688 199.932 69.5391 199.625 69.6797C199.323 69.8151 199.057 70.013 198.828 70.2734C198.599 70.5286 198.419 70.8385 198.289 71.2031C198.159 71.5625 198.094 71.9635 198.094 72.4062V77H196.789V68.4375H197.867L198.008 70.0156H198.062C198.24 69.6979 198.453 69.4089 198.703 69.1484C198.953 68.8828 199.242 68.6719 199.57 68.5156C199.904 68.3594 200.273 68.2812 200.68 68.2812ZM210.406 68.4375V77H209.344L209.156 75.7969H209.086C208.909 76.0938 208.68 76.3438 208.398 76.5469C208.117 76.75 207.799 76.901 207.445 77C207.096 77.1042 206.724 77.1562 206.328 77.1562C205.651 77.1562 205.083 77.0469 204.625 76.8281C204.167 76.6094 203.82 76.2708 203.586 75.8125C203.357 75.3542 203.242 74.7656 203.242 74.0469V68.4375H204.555V73.9531C204.555 74.6667 204.716 75.2005 205.039 75.5547C205.362 75.9036 205.854 76.0781 206.516 76.0781C207.151 76.0781 207.656 75.9583 208.031 75.7188C208.411 75.4792 208.685 75.1276 208.852 74.6641C209.018 74.1953 209.102 73.6224 209.102 72.9453V68.4375H210.406ZM216.445 68.2812C217.174 68.2812 217.799 68.4427 218.32 68.7656C218.841 69.0885 219.24 69.5417 219.516 70.125C219.792 70.7031 219.93 71.3802 219.93 72.1562V72.9609H214.016C214.031 73.9661 214.281 74.7318 214.766 75.2578C215.25 75.7839 215.932 76.0469 216.812 76.0469C217.354 76.0469 217.833 75.9974 218.25 75.8984C218.667 75.7995 219.099 75.6536 219.547 75.4609V76.6016C219.115 76.7943 218.685 76.9349 218.258 77.0234C217.836 77.112 217.336 77.1562 216.758 77.1562C215.935 77.1562 215.216 76.9896 214.602 76.6562C213.992 76.3177 213.518 75.8229 213.18 75.1719C212.841 74.5208 212.672 73.724 212.672 72.7812C212.672 71.8594 212.826 71.0625 213.133 70.3906C213.445 69.7135 213.883 69.1927 214.445 68.8281C215.013 68.4635 215.68 68.2812 216.445 68.2812ZM216.43 69.3438C215.737 69.3438 215.185 69.5703 214.773 70.0234C214.362 70.4766 214.117 71.1094 214.039 71.9219H218.57C218.565 71.4115 218.484 70.9635 218.328 70.5781C218.177 70.1875 217.945 69.8854 217.633 69.6719C217.32 69.4531 216.919 69.3438 216.43 69.3438ZM223.43 64.8438V67.8828C223.43 68.2318 223.419 68.5703 223.398 68.8984C223.383 69.2266 223.37 69.4818 223.359 69.6641H223.43C223.664 69.2786 224.003 68.9531 224.445 68.6875C224.888 68.4219 225.453 68.2891 226.141 68.2891C227.214 68.2891 228.068 68.6615 228.703 69.4062C229.344 70.1458 229.664 71.2474 229.664 72.7109C229.664 73.6745 229.518 74.487 229.227 75.1484C228.935 75.8099 228.523 76.3099 227.992 76.6484C227.461 76.987 226.833 77.1562 226.109 77.1562C225.432 77.1562 224.875 77.0312 224.438 76.7812C224.005 76.526 223.672 76.2161 223.438 75.8516H223.336L223.07 77H222.133V64.8438H223.43ZM225.93 69.375C225.31 69.375 224.818 69.4974 224.453 69.7422C224.089 69.9818 223.826 70.3464 223.664 70.8359C223.508 71.3203 223.43 71.9349 223.43 72.6797V72.75C223.43 73.8281 223.609 74.6536 223.969 75.2266C224.328 75.7943 224.982 76.0781 225.93 76.0781C226.727 76.0781 227.323 75.7865 227.719 75.2031C228.12 74.6198 228.32 73.7865 228.32 72.7031C228.32 71.599 228.122 70.7682 227.727 70.2109C227.336 69.6536 226.737 69.375 225.93 69.375ZM235.133 68.2969C236.154 68.2969 236.911 68.526 237.406 68.9844C237.901 69.4427 238.148 70.1745 238.148 71.1797V77H237.203L236.953 75.7344H236.891C236.651 76.0469 236.401 76.3099 236.141 76.5234C235.88 76.7318 235.578 76.8906 235.234 77C234.896 77.1042 234.479 77.1562 233.984 77.1562C233.464 77.1562 233 77.0651 232.594 76.8828C232.193 76.7005 231.875 76.4245 231.641 76.0547C231.411 75.6849 231.297 75.2161 231.297 74.6484C231.297 73.7943 231.635 73.138 232.312 72.6797C232.99 72.2214 234.021 71.9714 235.406 71.9297L236.883 71.8672V71.3438C236.883 70.6042 236.724 70.0859 236.406 69.7891C236.089 69.4922 235.641 69.3438 235.062 69.3438C234.615 69.3438 234.188 69.4089 233.781 69.5391C233.375 69.6693 232.99 69.8229 232.625 70L232.227 69.0156C232.612 68.8177 233.055 68.6484 233.555 68.5078C234.055 68.3672 234.581 68.2969 235.133 68.2969ZM236.867 72.7812L235.562 72.8359C234.495 72.8776 233.742 73.0521 233.305 73.3594C232.867 73.6667 232.648 74.1016 232.648 74.6641C232.648 75.1536 232.797 75.5156 233.094 75.75C233.391 75.9844 233.784 76.1016 234.273 76.1016C235.034 76.1016 235.656 75.8906 236.141 75.4688C236.625 75.0469 236.867 74.4141 236.867 73.5703V72.7812ZM249 68.2812C250.068 68.2812 250.919 68.6484 251.555 69.3828C252.19 70.1172 252.508 71.2214 252.508 72.6953C252.508 73.6693 252.362 74.487 252.07 75.1484C251.779 75.8099 251.367 76.3099 250.836 76.6484C250.31 76.987 249.688 77.1562 248.969 77.1562C248.516 77.1562 248.117 77.0964 247.773 76.9766C247.43 76.8568 247.135 76.6953 246.891 76.4922C246.646 76.2891 246.443 76.0677 246.281 75.8281H246.188C246.203 76.0312 246.221 76.276 246.242 76.5625C246.268 76.849 246.281 77.099 246.281 77.3125V80.8281H244.977V68.4375H246.047L246.219 69.7031H246.281C246.448 69.4427 246.651 69.2057 246.891 68.9922C247.13 68.7734 247.422 68.6016 247.766 68.4766C248.115 68.3464 248.526 68.2812 249 68.2812ZM248.773 69.375C248.18 69.375 247.701 69.4896 247.336 69.7188C246.977 69.9479 246.714 70.2917 246.547 70.75C246.38 71.2031 246.292 71.7734 246.281 72.4609V72.7109C246.281 73.4349 246.359 74.0469 246.516 74.5469C246.677 75.0469 246.94 75.4271 247.305 75.6875C247.674 75.9479 248.169 76.0781 248.789 76.0781C249.32 76.0781 249.763 75.9349 250.117 75.6484C250.471 75.362 250.734 74.9635 250.906 74.4531C251.083 73.9375 251.172 73.3464 251.172 72.6797C251.172 71.6693 250.974 70.8672 250.578 70.2734C250.188 69.6745 249.586 69.375 248.773 69.375ZM257.977 68.2969C258.997 68.2969 259.755 68.526 260.25 68.9844C260.745 69.4427 260.992 70.1745 260.992 71.1797V77H260.047L259.797 75.7344H259.734C259.495 76.0469 259.245 76.3099 258.984 76.5234C258.724 76.7318 258.422 76.8906 258.078 77C257.74 77.1042 257.323 77.1562 256.828 77.1562C256.307 77.1562 255.844 77.0651 255.438 76.8828C255.036 76.7005 254.719 76.4245 254.484 76.0547C254.255 75.6849 254.141 75.2161 254.141 74.6484C254.141 73.7943 254.479 73.138 255.156 72.6797C255.833 72.2214 256.865 71.9714 258.25 71.9297L259.727 71.8672V71.3438C259.727 70.6042 259.568 70.0859 259.25 69.7891C258.932 69.4922 258.484 69.3438 257.906 69.3438C257.458 69.3438 257.031 69.4089 256.625 69.5391C256.219 69.6693 255.833 69.8229 255.469 70L255.07 69.0156C255.456 68.8177 255.898 68.6484 256.398 68.5078C256.898 68.3672 257.424 68.2969 257.977 68.2969ZM259.711 72.7812L258.406 72.8359C257.339 72.8776 256.586 73.0521 256.148 73.3594C255.711 73.6667 255.492 74.1016 255.492 74.6641C255.492 75.1536 255.641 75.5156 255.938 75.75C256.234 75.9844 256.628 76.1016 257.117 76.1016C257.878 76.1016 258.5 75.8906 258.984 75.4688C259.469 75.0469 259.711 74.4141 259.711 73.5703V72.7812ZM267.555 68.2812C267.727 68.2812 267.906 68.2917 268.094 68.3125C268.281 68.3281 268.448 68.3516 268.594 68.3828L268.43 69.5859C268.289 69.5495 268.133 69.5208 267.961 69.5C267.789 69.4792 267.628 69.4688 267.477 69.4688C267.133 69.4688 266.807 69.5391 266.5 69.6797C266.198 69.8151 265.932 70.013 265.703 70.2734C265.474 70.5286 265.294 70.8385 265.164 71.2031C265.034 71.5625 264.969 71.9635 264.969 72.4062V77H263.664V68.4375H264.742L264.883 70.0156H264.938C265.115 69.6979 265.328 69.4089 265.578 69.1484C265.828 68.8828 266.117 68.6719 266.445 68.5156C266.779 68.3594 267.148 68.2812 267.555 68.2812ZM273.414 68.2969C274.435 68.2969 275.193 68.526 275.688 68.9844C276.182 69.4427 276.43 70.1745 276.43 71.1797V77H275.484L275.234 75.7344H275.172C274.932 76.0469 274.682 76.3099 274.422 76.5234C274.161 76.7318 273.859 76.8906 273.516 77C273.177 77.1042 272.76 77.1562 272.266 77.1562C271.745 77.1562 271.281 77.0651 270.875 76.8828C270.474 76.7005 270.156 76.4245 269.922 76.0547C269.693 75.6849 269.578 75.2161 269.578 74.6484C269.578 73.7943 269.917 73.138 270.594 72.6797C271.271 72.2214 272.302 71.9714 273.688 71.9297L275.164 71.8672V71.3438C275.164 70.6042 275.005 70.0859 274.688 69.7891C274.37 69.4922 273.922 69.3438 273.344 69.3438C272.896 69.3438 272.469 69.4089 272.062 69.5391C271.656 69.6693 271.271 69.8229 270.906 70L270.508 69.0156C270.893 68.8177 271.336 68.6484 271.836 68.5078C272.336 68.3672 272.862 68.2969 273.414 68.2969ZM275.148 72.7812L273.844 72.8359C272.776 72.8776 272.023 73.0521 271.586 73.3594C271.148 73.6667 270.93 74.1016 270.93 74.6641C270.93 75.1536 271.078 75.5156 271.375 75.75C271.672 75.9844 272.065 76.1016 272.555 76.1016C273.315 76.1016 273.938 75.8906 274.422 75.4688C274.906 75.0469 275.148 74.4141 275.148 73.5703V72.7812ZM66.2578 92.2812C66.4297 92.2812 66.6094 92.2917 66.7969 92.3125C66.9844 92.3281 67.151 92.3516 67.2969 92.3828L67.1328 93.5859C66.9922 93.5495 66.8359 93.5208 66.6641 93.5C66.4922 93.4792 66.3307 93.4688 66.1797 93.4688C65.8359 93.4688 65.5104 93.5391 65.2031 93.6797C64.901 93.8151 64.6354 94.013 64.4062 94.2734C64.1771 94.5286 63.9974 94.8385 63.8672 95.2031C63.737 95.5625 63.6719 95.9635 63.6719 96.4062V101H62.3672V92.4375H63.4453L63.5859 94.0156H63.6406C63.8177 93.6979 64.0312 93.4089 64.2812 93.1484C64.5312 92.8828 64.8203 92.6719 65.1484 92.5156C65.4818 92.3594 65.8516 92.2812 66.2578 92.2812ZM72.2109 92.2812C72.9401 92.2812 73.5651 92.4427 74.0859 92.7656C74.6068 93.0885 75.0052 93.5417 75.2812 94.125C75.5573 94.7031 75.6953 95.3802 75.6953 96.1562V96.9609H69.7812C69.7969 97.9661 70.0469 98.7318 70.5312 99.2578C71.0156 99.7839 71.6979 100.047 72.5781 100.047C73.1198 100.047 73.599 99.9974 74.0156 99.8984C74.4323 99.7995 74.8646 99.6536 75.3125 99.4609V100.602C74.8802 100.794 74.4505 100.935 74.0234 101.023C73.6016 101.112 73.1016 101.156 72.5234 101.156C71.7005 101.156 70.9818 100.99 70.3672 100.656C69.7578 100.318 69.2839 99.8229 68.9453 99.1719C68.6068 98.5208 68.4375 97.724 68.4375 96.7812C68.4375 95.8594 68.5911 95.0625 68.8984 94.3906C69.2109 93.7135 69.6484 93.1927 70.2109 92.8281C70.7786 92.4635 71.4453 92.2812 72.2109 92.2812ZM72.1953 93.3438C71.5026 93.3438 70.9505 93.5703 70.5391 94.0234C70.1276 94.4766 69.8828 95.1094 69.8047 95.9219H74.3359C74.3307 95.4115 74.25 94.9635 74.0938 94.5781C73.9427 94.1875 73.7109 93.8854 73.3984 93.6719C73.0859 93.4531 72.6849 93.3438 72.1953 93.3438ZM80.2891 104.844C79.1641 104.844 78.2969 104.633 77.6875 104.211C77.0781 103.794 76.7734 103.208 76.7734 102.453C76.7734 101.917 76.9427 101.458 77.2812 101.078C77.625 100.698 78.099 100.445 78.7031 100.32C78.4792 100.216 78.2865 100.06 78.125 99.8516C77.9688 99.6432 77.8906 99.4036 77.8906 99.1328C77.8906 98.8203 77.9766 98.5469 78.1484 98.3125C78.3255 98.0729 78.5938 97.8438 78.9531 97.625C78.5052 97.4427 78.1406 97.1354 77.8594 96.7031C77.5833 96.2656 77.4453 95.7578 77.4453 95.1797C77.4453 94.5651 77.5729 94.0417 77.8281 93.6094C78.0833 93.1719 78.4531 92.8385 78.9375 92.6094C79.4219 92.3802 80.0078 92.2656 80.6953 92.2656C80.8464 92.2656 80.9974 92.2734 81.1484 92.2891C81.3047 92.2995 81.4531 92.3177 81.5938 92.3438C81.7344 92.3646 81.8568 92.3906 81.9609 92.4219H84.8984V93.2578L83.3203 93.4531C83.4766 93.6562 83.6068 93.901 83.7109 94.1875C83.8151 94.474 83.8672 94.7917 83.8672 95.1406C83.8672 95.9948 83.5781 96.6745 83 97.1797C82.4219 97.6797 81.6276 97.9297 80.6172 97.9297C80.3776 97.9297 80.1328 97.9089 79.8828 97.8672C79.6276 98.0078 79.4323 98.1641 79.2969 98.3359C79.1667 98.5078 79.1016 98.7057 79.1016 98.9297C79.1016 99.0964 79.151 99.2292 79.25 99.3281C79.3542 99.4271 79.5026 99.5 79.6953 99.5469C79.888 99.5885 80.1198 99.6094 80.3906 99.6094H81.8984C82.8307 99.6094 83.5443 99.8047 84.0391 100.195C84.5391 100.586 84.7891 101.156 84.7891 101.906C84.7891 102.854 84.4036 103.581 83.6328 104.086C82.862 104.591 81.7474 104.844 80.2891 104.844ZM80.3281 103.828C81.0365 103.828 81.6224 103.755 82.0859 103.609C82.5547 103.469 82.9036 103.263 83.1328 102.992C83.3672 102.727 83.4844 102.409 83.4844 102.039C83.4844 101.695 83.4062 101.435 83.25 101.258C83.0938 101.086 82.8646 100.971 82.5625 100.914C82.2604 100.852 81.8906 100.82 81.4531 100.82H79.9688C79.5833 100.82 79.2474 100.88 78.9609 101C78.6745 101.12 78.4531 101.297 78.2969 101.531C78.1458 101.766 78.0703 102.057 78.0703 102.406C78.0703 102.87 78.2656 103.221 78.6562 103.461C79.0469 103.706 79.6042 103.828 80.3281 103.828ZM80.6641 96.9844C81.2839 96.9844 81.75 96.8281 82.0625 96.5156C82.375 96.2031 82.5312 95.7474 82.5312 95.1484C82.5312 94.5078 82.3724 94.0286 82.0547 93.7109C81.737 93.388 81.2682 93.2266 80.6484 93.2266C80.0547 93.2266 79.5964 93.3932 79.2734 93.7266C78.9557 94.0547 78.7969 94.5365 78.7969 95.1719C78.7969 95.7552 78.9583 96.2031 79.2812 96.5156C79.6042 96.8281 80.0651 96.9844 80.6641 96.9844ZM87.8828 92.4375V101H86.5859V92.4375H87.8828ZM87.25 89.2344C87.4635 89.2344 87.6458 89.3047 87.7969 89.4453C87.9531 89.5807 88.0312 89.7943 88.0312 90.0859C88.0312 90.3724 87.9531 90.5859 87.7969 90.7266C87.6458 90.8672 87.4635 90.9375 87.25 90.9375C87.026 90.9375 86.8385 90.8672 86.6875 90.7266C86.5417 90.5859 86.4688 90.3724 86.4688 90.0859C86.4688 89.7943 86.5417 89.5807 86.6875 89.4453C86.8385 89.3047 87.026 89.2344 87.25 89.2344ZM96.1719 98.6562C96.1719 99.2031 96.0339 99.6641 95.7578 100.039C95.487 100.409 95.0964 100.688 94.5859 100.875C94.0807 101.062 93.4766 101.156 92.7734 101.156C92.1745 101.156 91.6562 101.109 91.2188 101.016C90.7812 100.922 90.3984 100.789 90.0703 100.617V99.4219C90.4193 99.5938 90.8359 99.75 91.3203 99.8906C91.8047 100.031 92.2995 100.102 92.8047 100.102C93.5443 100.102 94.0807 99.9818 94.4141 99.7422C94.7474 99.5026 94.9141 99.1771 94.9141 98.7656C94.9141 98.5312 94.8464 98.3255 94.7109 98.1484C94.5807 97.9661 94.3594 97.7917 94.0469 97.625C93.7344 97.4531 93.3021 97.2656 92.75 97.0625C92.2031 96.8542 91.7292 96.6484 91.3281 96.4453C90.9323 96.237 90.625 95.9844 90.4062 95.6875C90.1927 95.3906 90.0859 95.0052 90.0859 94.5312C90.0859 93.8073 90.3776 93.2526 90.9609 92.8672C91.5495 92.4766 92.3203 92.2812 93.2734 92.2812C93.7891 92.2812 94.2708 92.3333 94.7188 92.4375C95.1719 92.5365 95.5938 92.6719 95.9844 92.8438L95.5469 93.8828C95.1927 93.7318 94.8151 93.6042 94.4141 93.5C94.013 93.3958 93.6042 93.3438 93.1875 93.3438C92.5885 93.3438 92.1276 93.4427 91.8047 93.6406C91.487 93.8385 91.3281 94.1094 91.3281 94.4531C91.3281 94.7188 91.401 94.9375 91.5469 95.1094C91.6979 95.2812 91.9375 95.4427 92.2656 95.5938C92.5938 95.7448 93.026 95.9219 93.5625 96.125C94.099 96.3229 94.5625 96.5286 94.9531 96.7422C95.3438 96.9505 95.6432 97.2057 95.8516 97.5078C96.0651 97.8047 96.1719 98.1875 96.1719 98.6562ZM101.023 100.094C101.237 100.094 101.456 100.076 101.68 100.039C101.904 100.003 102.086 99.9583 102.227 99.9062V100.914C102.076 100.982 101.865 101.039 101.594 101.086C101.328 101.133 101.068 101.156 100.812 101.156C100.359 101.156 99.9479 101.078 99.5781 100.922C99.2083 100.76 98.9115 100.49 98.6875 100.109C98.4688 99.7292 98.3594 99.2031 98.3594 98.5312V93.4531H97.1406V92.8203L98.3672 92.3125L98.8828 90.4531H99.6641V92.4375H102.172V93.4531H99.6641V98.4922C99.6641 99.0286 99.7865 99.4297 100.031 99.6953C100.281 99.9609 100.612 100.094 101.023 100.094ZM107.852 92.2812C108.023 92.2812 108.203 92.2917 108.391 92.3125C108.578 92.3281 108.745 92.3516 108.891 92.3828L108.727 93.5859C108.586 93.5495 108.43 93.5208 108.258 93.5C108.086 93.4792 107.924 93.4688 107.773 93.4688C107.43 93.4688 107.104 93.5391 106.797 93.6797C106.495 93.8151 106.229 94.013 106 94.2734C105.771 94.5286 105.591 94.8385 105.461 95.2031C105.331 95.5625 105.266 95.9635 105.266 96.4062V101H103.961V92.4375H105.039L105.18 94.0156H105.234C105.411 93.6979 105.625 93.4089 105.875 93.1484C106.125 92.8828 106.414 92.6719 106.742 92.5156C107.076 92.3594 107.445 92.2812 107.852 92.2812ZM113.711 92.2969C114.732 92.2969 115.49 92.526 115.984 92.9844C116.479 93.4427 116.727 94.1745 116.727 95.1797V101H115.781L115.531 99.7344H115.469C115.229 100.047 114.979 100.31 114.719 100.523C114.458 100.732 114.156 100.891 113.812 101C113.474 101.104 113.057 101.156 112.562 101.156C112.042 101.156 111.578 101.065 111.172 100.883C110.771 100.701 110.453 100.424 110.219 100.055C109.99 99.6849 109.875 99.2161 109.875 98.6484C109.875 97.7943 110.214 97.138 110.891 96.6797C111.568 96.2214 112.599 95.9714 113.984 95.9297L115.461 95.8672V95.3438C115.461 94.6042 115.302 94.0859 114.984 93.7891C114.667 93.4922 114.219 93.3438 113.641 93.3438C113.193 93.3438 112.766 93.4089 112.359 93.5391C111.953 93.6693 111.568 93.8229 111.203 94L110.805 93.0156C111.19 92.8177 111.633 92.6484 112.133 92.5078C112.633 92.3672 113.159 92.2969 113.711 92.2969ZM115.445 96.7812L114.141 96.8359C113.073 96.8776 112.32 97.0521 111.883 97.3594C111.445 97.6667 111.227 98.1016 111.227 98.6641C111.227 99.1536 111.375 99.5156 111.672 99.75C111.969 99.9844 112.362 100.102 112.852 100.102C113.612 100.102 114.234 99.8906 114.719 99.4688C115.203 99.0469 115.445 98.4141 115.445 97.5703V96.7812ZM123.289 92.2812C123.461 92.2812 123.641 92.2917 123.828 92.3125C124.016 92.3281 124.182 92.3516 124.328 92.3828L124.164 93.5859C124.023 93.5495 123.867 93.5208 123.695 93.5C123.523 93.4792 123.362 93.4688 123.211 93.4688C122.867 93.4688 122.542 93.5391 122.234 93.6797C121.932 93.8151 121.667 94.013 121.438 94.2734C121.208 94.5286 121.029 94.8385 120.898 95.2031C120.768 95.5625 120.703 95.9635 120.703 96.4062V101H119.398V92.4375H120.477L120.617 94.0156H120.672C120.849 93.6979 121.062 93.4089 121.312 93.1484C121.562 92.8828 121.852 92.6719 122.18 92.5156C122.513 92.3594 122.883 92.2812 123.289 92.2812ZM133.398 92.2812C134.128 92.2812 134.753 92.4427 135.273 92.7656C135.794 93.0885 136.193 93.5417 136.469 94.125C136.745 94.7031 136.883 95.3802 136.883 96.1562V96.9609H130.969C130.984 97.9661 131.234 98.7318 131.719 99.2578C132.203 99.7839 132.885 100.047 133.766 100.047C134.307 100.047 134.786 99.9974 135.203 99.8984C135.62 99.7995 136.052 99.6536 136.5 99.4609V100.602C136.068 100.794 135.638 100.935 135.211 101.023C134.789 101.112 134.289 101.156 133.711 101.156C132.888 101.156 132.169 100.99 131.555 100.656C130.945 100.318 130.471 99.8229 130.133 99.1719C129.794 98.5208 129.625 97.724 129.625 96.7812C129.625 95.8594 129.779 95.0625 130.086 94.3906C130.398 93.7135 130.836 93.1927 131.398 92.8281C131.966 92.4635 132.633 92.2812 133.398 92.2812ZM133.383 93.3438C132.69 93.3438 132.138 93.5703 131.727 94.0234C131.315 94.4766 131.07 95.1094 130.992 95.9219H135.523C135.518 95.4115 135.438 94.9635 135.281 94.5781C135.13 94.1875 134.898 93.8854 134.586 93.6719C134.273 93.4531 133.872 93.3438 133.383 93.3438ZM140.391 101H139.086V88.8438H140.391V101ZM150.492 92.2969C151.513 92.2969 152.271 92.526 152.766 92.9844C153.26 93.4427 153.508 94.1745 153.508 95.1797V101H152.562L152.312 99.7344H152.25C152.01 100.047 151.76 100.31 151.5 100.523C151.24 100.732 150.938 100.891 150.594 101C150.255 101.104 149.839 101.156 149.344 101.156C148.823 101.156 148.359 101.065 147.953 100.883C147.552 100.701 147.234 100.424 147 100.055C146.771 99.6849 146.656 99.2161 146.656 98.6484C146.656 97.7943 146.995 97.138 147.672 96.6797C148.349 96.2214 149.38 95.9714 150.766 95.9297L152.242 95.8672V95.3438C152.242 94.6042 152.083 94.0859 151.766 93.7891C151.448 93.4922 151 93.3438 150.422 93.3438C149.974 93.3438 149.547 93.4089 149.141 93.5391C148.734 93.6693 148.349 93.8229 147.984 94L147.586 93.0156C147.971 92.8177 148.414 92.6484 148.914 92.5078C149.414 92.3672 149.94 92.2969 150.492 92.2969ZM152.227 96.7812L150.922 96.8359C149.854 96.8776 149.102 97.0521 148.664 97.3594C148.227 97.6667 148.008 98.1016 148.008 98.6641C148.008 99.1536 148.156 99.5156 148.453 99.75C148.75 99.9844 149.143 100.102 149.633 100.102C150.393 100.102 151.016 99.8906 151.5 99.4688C151.984 99.0469 152.227 98.4141 152.227 97.5703V96.7812ZM157.484 101H156.18V88.8438H157.484V101ZM162.992 100.094C163.206 100.094 163.424 100.076 163.648 100.039C163.872 100.003 164.055 99.9583 164.195 99.9062V100.914C164.044 100.982 163.833 101.039 163.562 101.086C163.297 101.133 163.036 101.156 162.781 101.156C162.328 101.156 161.917 101.078 161.547 100.922C161.177 100.76 160.88 100.49 160.656 100.109C160.438 99.7292 160.328 99.2031 160.328 98.5312V93.4531H159.109V92.8203L160.336 92.3125L160.852 90.4531H161.633V92.4375H164.141V93.4531H161.633V98.4922C161.633 99.0286 161.755 99.4297 162 99.6953C162.25 99.9609 162.581 100.094 162.992 100.094ZM173.312 96.7031C173.312 97.4062 173.221 98.0339 173.039 98.5859C172.857 99.138 172.594 99.6042 172.25 99.9844C171.906 100.365 171.49 100.656 171 100.859C170.516 101.057 169.966 101.156 169.352 101.156C168.779 101.156 168.253 101.057 167.773 100.859C167.299 100.656 166.888 100.365 166.539 99.9844C166.195 99.6042 165.927 99.138 165.734 98.5859C165.547 98.0339 165.453 97.4062 165.453 96.7031C165.453 95.7656 165.612 94.9688 165.93 94.3125C166.247 93.651 166.701 93.1484 167.289 92.8047C167.883 92.4557 168.589 92.2812 169.406 92.2812C170.188 92.2812 170.87 92.4557 171.453 92.8047C172.042 93.1536 172.497 93.6589 172.82 94.3203C173.148 94.9766 173.312 95.7708 173.312 96.7031ZM166.797 96.7031C166.797 97.3906 166.888 97.987 167.07 98.4922C167.253 98.9974 167.534 99.388 167.914 99.6641C168.294 99.9401 168.784 100.078 169.383 100.078C169.977 100.078 170.464 99.9401 170.844 99.6641C171.229 99.388 171.513 98.9974 171.695 98.4922C171.878 97.987 171.969 97.3906 171.969 96.7031C171.969 96.0208 171.878 95.4323 171.695 94.9375C171.513 94.4375 171.232 94.0521 170.852 93.7812C170.471 93.5104 169.979 93.375 169.375 93.375C168.484 93.375 167.831 93.6693 167.414 94.2578C167.003 94.8464 166.797 95.6615 166.797 96.7031ZM189.008 92.2812C189.951 92.2812 190.661 92.5286 191.141 93.0234C191.62 93.513 191.859 94.3021 191.859 95.3906V101H190.578V95.4531C190.578 94.7604 190.427 94.2422 190.125 93.8984C189.828 93.5495 189.385 93.375 188.797 93.375C187.969 93.375 187.367 93.6146 186.992 94.0938C186.617 94.5729 186.43 95.2786 186.43 96.2109V101H185.141V95.4531C185.141 94.9896 185.073 94.6042 184.938 94.2969C184.807 93.9896 184.609 93.7604 184.344 93.6094C184.083 93.4531 183.753 93.375 183.352 93.375C182.784 93.375 182.328 93.4922 181.984 93.7266C181.641 93.9609 181.391 94.3099 181.234 94.7734C181.083 95.2318 181.008 95.7969 181.008 96.4688V101H179.711V92.4375H180.758L180.953 93.6484H181.023C181.195 93.3516 181.411 93.1016 181.672 92.8984C181.932 92.6953 182.224 92.5417 182.547 92.4375C182.87 92.3333 183.214 92.2812 183.578 92.2812C184.229 92.2812 184.773 92.4036 185.211 92.6484C185.654 92.888 185.974 93.2552 186.172 93.75H186.242C186.523 93.2552 186.909 92.888 187.398 92.6484C187.888 92.4036 188.424 92.2812 189.008 92.2812ZM197.727 92.2969C198.747 92.2969 199.505 92.526 200 92.9844C200.495 93.4427 200.742 94.1745 200.742 95.1797V101H199.797L199.547 99.7344H199.484C199.245 100.047 198.995 100.31 198.734 100.523C198.474 100.732 198.172 100.891 197.828 101C197.49 101.104 197.073 101.156 196.578 101.156C196.057 101.156 195.594 101.065 195.188 100.883C194.786 100.701 194.469 100.424 194.234 100.055C194.005 99.6849 193.891 99.2161 193.891 98.6484C193.891 97.7943 194.229 97.138 194.906 96.6797C195.583 96.2214 196.615 95.9714 198 95.9297L199.477 95.8672V95.3438C199.477 94.6042 199.318 94.0859 199 93.7891C198.682 93.4922 198.234 93.3438 197.656 93.3438C197.208 93.3438 196.781 93.4089 196.375 93.5391C195.969 93.6693 195.583 93.8229 195.219 94L194.82 93.0156C195.206 92.8177 195.648 92.6484 196.148 92.5078C196.648 92.3672 197.174 92.2969 197.727 92.2969ZM199.461 96.7812L198.156 96.8359C197.089 96.8776 196.336 97.0521 195.898 97.3594C195.461 97.6667 195.242 98.1016 195.242 98.6641C195.242 99.1536 195.391 99.5156 195.688 99.75C195.984 99.9844 196.378 100.102 196.867 100.102C197.628 100.102 198.25 99.8906 198.734 99.4688C199.219 99.0469 199.461 98.4141 199.461 97.5703V96.7812ZM199.867 88.7422V88.8984C199.763 89.0495 199.62 89.2318 199.438 89.4453C199.26 89.6536 199.062 89.875 198.844 90.1094C198.625 90.3385 198.404 90.5573 198.18 90.7656C197.961 90.974 197.758 91.1536 197.57 91.3047H196.703V91.1172C196.87 90.9193 197.052 90.6823 197.25 90.4062C197.448 90.125 197.641 89.8385 197.828 89.5469C198.016 89.25 198.172 88.9818 198.297 88.7422H199.867ZM205.453 96.6172L202.492 92.4375H203.977L206.234 95.7344L208.484 92.4375H209.953L206.992 96.6172L210.117 101H208.633L206.234 97.5078L203.82 101H202.352L205.453 96.6172ZM213.086 92.4375V101H211.789V92.4375H213.086ZM212.453 89.2344C212.667 89.2344 212.849 89.3047 213 89.4453C213.156 89.5807 213.234 89.7943 213.234 90.0859C213.234 90.3724 213.156 90.5859 213 90.7266C212.849 90.8672 212.667 90.9375 212.453 90.9375C212.229 90.9375 212.042 90.8672 211.891 90.7266C211.745 90.5859 211.672 90.3724 211.672 90.0859C211.672 89.7943 211.745 89.5807 211.891 89.4453C212.042 89.3047 212.229 89.2344 212.453 89.2344ZM225.133 92.2812C226.076 92.2812 226.786 92.5286 227.266 93.0234C227.745 93.513 227.984 94.3021 227.984 95.3906V101H226.703V95.4531C226.703 94.7604 226.552 94.2422 226.25 93.8984C225.953 93.5495 225.51 93.375 224.922 93.375C224.094 93.375 223.492 93.6146 223.117 94.0938C222.742 94.5729 222.555 95.2786 222.555 96.2109V101H221.266V95.4531C221.266 94.9896 221.198 94.6042 221.062 94.2969C220.932 93.9896 220.734 93.7604 220.469 93.6094C220.208 93.4531 219.878 93.375 219.477 93.375C218.909 93.375 218.453 93.4922 218.109 93.7266C217.766 93.9609 217.516 94.3099 217.359 94.7734C217.208 95.2318 217.133 95.7969 217.133 96.4688V101H215.836V92.4375H216.883L217.078 93.6484H217.148C217.32 93.3516 217.536 93.1016 217.797 92.8984C218.057 92.6953 218.349 92.5417 218.672 92.4375C218.995 92.3333 219.339 92.2812 219.703 92.2812C220.354 92.2812 220.898 92.4036 221.336 92.6484C221.779 92.888 222.099 93.2552 222.297 93.75H222.367C222.648 93.2552 223.034 92.888 223.523 92.6484C224.013 92.4036 224.549 92.2812 225.133 92.2812ZM238.031 96.7031C238.031 97.4062 237.94 98.0339 237.758 98.5859C237.576 99.138 237.312 99.6042 236.969 99.9844C236.625 100.365 236.208 100.656 235.719 100.859C235.234 101.057 234.685 101.156 234.07 101.156C233.497 101.156 232.971 101.057 232.492 100.859C232.018 100.656 231.607 100.365 231.258 99.9844C230.914 99.6042 230.646 99.138 230.453 98.5859C230.266 98.0339 230.172 97.4062 230.172 96.7031C230.172 95.7656 230.331 94.9688 230.648 94.3125C230.966 93.651 231.419 93.1484 232.008 92.8047C232.602 92.4557 233.307 92.2812 234.125 92.2812C234.906 92.2812 235.589 92.4557 236.172 92.8047C236.76 93.1536 237.216 93.6589 237.539 94.3203C237.867 94.9766 238.031 95.7708 238.031 96.7031ZM231.516 96.7031C231.516 97.3906 231.607 97.987 231.789 98.4922C231.971 98.9974 232.253 99.388 232.633 99.6641C233.013 99.9401 233.503 100.078 234.102 100.078C234.695 100.078 235.182 99.9401 235.562 99.6641C235.948 99.388 236.232 98.9974 236.414 98.4922C236.596 97.987 236.688 97.3906 236.688 96.7031C236.688 96.0208 236.596 95.4323 236.414 94.9375C236.232 94.4375 235.951 94.0521 235.57 93.7812C235.19 93.5104 234.698 93.375 234.094 93.375C233.203 93.375 232.549 93.6693 232.133 94.2578C231.721 94.8464 231.516 95.6615 231.516 96.7031ZM247.477 101.156C246.393 101.156 245.534 100.786 244.898 100.047C244.268 99.3073 243.953 98.2083 243.953 96.75C243.953 95.276 244.276 94.1641 244.922 93.4141C245.568 92.6589 246.427 92.2812 247.5 92.2812C247.953 92.2812 248.349 92.3411 248.688 92.4609C249.026 92.5807 249.318 92.7422 249.562 92.9453C249.807 93.1432 250.013 93.3698 250.18 93.625H250.273C250.253 93.4635 250.232 93.2422 250.211 92.9609C250.19 92.6797 250.18 92.4505 250.18 92.2734V88.8438H251.477V101H250.43L250.234 99.7812H250.18C250.018 100.036 249.812 100.268 249.562 100.477C249.318 100.685 249.023 100.852 248.68 100.977C248.341 101.096 247.94 101.156 247.477 101.156ZM247.68 100.078C248.596 100.078 249.245 99.8177 249.625 99.2969C250.005 98.776 250.195 98.0026 250.195 96.9766V96.7422C250.195 95.6536 250.013 94.8177 249.648 94.2344C249.289 93.651 248.633 93.3594 247.68 93.3594C246.883 93.3594 246.286 93.6667 245.891 94.2812C245.495 94.8906 245.297 95.724 245.297 96.7812C245.297 97.8333 245.492 98.6458 245.883 99.2188C246.279 99.7917 246.878 100.078 247.68 100.078ZM257.523 92.2812C258.253 92.2812 258.878 92.4427 259.398 92.7656C259.919 93.0885 260.318 93.5417 260.594 94.125C260.87 94.7031 261.008 95.3802 261.008 96.1562V96.9609H255.094C255.109 97.9661 255.359 98.7318 255.844 99.2578C256.328 99.7839 257.01 100.047 257.891 100.047C258.432 100.047 258.911 99.9974 259.328 99.8984C259.745 99.7995 260.177 99.6536 260.625 99.4609V100.602C260.193 100.794 259.763 100.935 259.336 101.023C258.914 101.112 258.414 101.156 257.836 101.156C257.013 101.156 256.294 100.99 255.68 100.656C255.07 100.318 254.596 99.8229 254.258 99.1719C253.919 98.5208 253.75 97.724 253.75 96.7812C253.75 95.8594 253.904 95.0625 254.211 94.3906C254.523 93.7135 254.961 93.1927 255.523 92.8281C256.091 92.4635 256.758 92.2812 257.523 92.2812ZM257.508 93.3438C256.815 93.3438 256.263 93.5703 255.852 94.0234C255.44 94.4766 255.195 95.1094 255.117 95.9219H259.648C259.643 95.4115 259.562 94.9635 259.406 94.5781C259.255 94.1875 259.023 93.8854 258.711 93.6719C258.398 93.4531 257.997 93.3438 257.508 93.3438ZM268.672 101H267.367V88.8438H268.672V101ZM274.617 92.2969C275.638 92.2969 276.396 92.526 276.891 92.9844C277.385 93.4427 277.633 94.1745 277.633 95.1797V101H276.688L276.438 99.7344H276.375C276.135 100.047 275.885 100.31 275.625 100.523C275.365 100.732 275.062 100.891 274.719 101C274.38 101.104 273.964 101.156 273.469 101.156C272.948 101.156 272.484 101.065 272.078 100.883C271.677 100.701 271.359 100.424 271.125 100.055C270.896 99.6849 270.781 99.2161 270.781 98.6484C270.781 97.7943 271.12 97.138 271.797 96.6797C272.474 96.2214 273.505 95.9714 274.891 95.9297L276.367 95.8672V95.3438C276.367 94.6042 276.208 94.0859 275.891 93.7891C275.573 93.4922 275.125 93.3438 274.547 93.3438C274.099 93.3438 273.672 93.4089 273.266 93.5391C272.859 93.6693 272.474 93.8229 272.109 94L271.711 93.0156C272.096 92.8177 272.539 92.6484 273.039 92.5078C273.539 92.3672 274.065 92.2969 274.617 92.2969ZM276.352 96.7812L275.047 96.8359C273.979 96.8776 273.227 97.0521 272.789 97.3594C272.352 97.6667 272.133 98.1016 272.133 98.6641C272.133 99.1536 272.281 99.5156 272.578 99.75C272.875 99.9844 273.268 100.102 273.758 100.102C274.518 100.102 275.141 99.8906 275.625 99.4688C276.109 99.0469 276.352 98.4141 276.352 97.5703V96.7812ZM65.7969 125.156C65.026 125.156 64.3464 124.997 63.7578 124.68C63.1693 124.362 62.7109 123.878 62.3828 123.227C62.0547 122.576 61.8906 121.755 61.8906 120.766C61.8906 119.729 62.0625 118.883 62.4062 118.227C62.7552 117.565 63.2344 117.076 63.8438 116.758C64.4531 116.44 65.1458 116.281 65.9219 116.281C66.349 116.281 66.7604 116.326 67.1562 116.414C67.5573 116.497 67.8854 116.604 68.1406 116.734L67.75 117.82C67.4896 117.716 67.1875 117.622 66.8438 117.539C66.5052 117.456 66.1875 117.414 65.8906 117.414C65.2969 117.414 64.8021 117.542 64.4062 117.797C64.0156 118.052 63.7214 118.427 63.5234 118.922C63.3307 119.417 63.2344 120.026 63.2344 120.75C63.2344 121.443 63.3281 122.034 63.5156 122.523C63.7083 123.013 63.9922 123.388 64.3672 123.648C64.7474 123.904 65.2214 124.031 65.7891 124.031C66.2422 124.031 66.651 123.984 67.0156 123.891C67.3802 123.792 67.7109 123.677 68.0078 123.547V124.703C67.7214 124.849 67.401 124.961 67.0469 125.039C66.6979 125.117 66.2812 125.156 65.7969 125.156ZM73.3359 116.281C74.0651 116.281 74.6901 116.443 75.2109 116.766C75.7318 117.089 76.1302 117.542 76.4062 118.125C76.6823 118.703 76.8203 119.38 76.8203 120.156V120.961H70.9062C70.9219 121.966 71.1719 122.732 71.6562 123.258C72.1406 123.784 72.8229 124.047 73.7031 124.047C74.2448 124.047 74.724 123.997 75.1406 123.898C75.5573 123.799 75.9896 123.654 76.4375 123.461V124.602C76.0052 124.794 75.5755 124.935 75.1484 125.023C74.7266 125.112 74.2266 125.156 73.6484 125.156C72.8255 125.156 72.1068 124.99 71.4922 124.656C70.8828 124.318 70.4089 123.823 70.0703 123.172C69.7318 122.521 69.5625 121.724 69.5625 120.781C69.5625 119.859 69.7161 119.062 70.0234 118.391C70.3359 117.714 70.7734 117.193 71.3359 116.828C71.9036 116.464 72.5703 116.281 73.3359 116.281ZM73.3203 117.344C72.6276 117.344 72.0755 117.57 71.6641 118.023C71.2526 118.477 71.0078 119.109 70.9297 119.922H75.4609C75.4557 119.411 75.375 118.964 75.2188 118.578C75.0677 118.188 74.8359 117.885 74.5234 117.672C74.2109 117.453 73.8099 117.344 73.3203 117.344ZM80.3281 125H79.0234V112.844H80.3281V125ZM86.1172 125.156C85.0339 125.156 84.1745 124.786 83.5391 124.047C82.9089 123.307 82.5938 122.208 82.5938 120.75C82.5938 119.276 82.9167 118.164 83.5625 117.414C84.2083 116.659 85.0677 116.281 86.1406 116.281C86.5938 116.281 86.9896 116.341 87.3281 116.461C87.6667 116.581 87.9583 116.742 88.2031 116.945C88.4479 117.143 88.6536 117.37 88.8203 117.625H88.9141C88.8932 117.464 88.8724 117.242 88.8516 116.961C88.8307 116.68 88.8203 116.451 88.8203 116.273V112.844H90.1172V125H89.0703L88.875 123.781H88.8203C88.6589 124.036 88.4531 124.268 88.2031 124.477C87.9583 124.685 87.6641 124.852 87.3203 124.977C86.9818 125.096 86.5807 125.156 86.1172 125.156ZM86.3203 124.078C87.237 124.078 87.8854 123.818 88.2656 123.297C88.6458 122.776 88.8359 122.003 88.8359 120.977V120.742C88.8359 119.654 88.6536 118.818 88.2891 118.234C87.9297 117.651 87.2734 117.359 86.3203 117.359C85.5234 117.359 84.9271 117.667 84.5312 118.281C84.1354 118.891 83.9375 119.724 83.9375 120.781C83.9375 121.833 84.1328 122.646 84.5234 123.219C84.9193 123.792 85.5182 124.078 86.3203 124.078ZM96.0703 116.297C97.0911 116.297 97.849 116.526 98.3438 116.984C98.8385 117.443 99.0859 118.174 99.0859 119.18V125H98.1406L97.8906 123.734H97.8281C97.5885 124.047 97.3385 124.31 97.0781 124.523C96.8177 124.732 96.5156 124.891 96.1719 125C95.8333 125.104 95.4167 125.156 94.9219 125.156C94.401 125.156 93.9375 125.065 93.5312 124.883C93.1302 124.701 92.8125 124.424 92.5781 124.055C92.349 123.685 92.2344 123.216 92.2344 122.648C92.2344 121.794 92.5729 121.138 93.25 120.68C93.9271 120.221 94.9583 119.971 96.3438 119.93L97.8203 119.867V119.344C97.8203 118.604 97.6615 118.086 97.3438 117.789C97.026 117.492 96.5781 117.344 96 117.344C95.5521 117.344 95.125 117.409 94.7188 117.539C94.3125 117.669 93.9271 117.823 93.5625 118L93.1641 117.016C93.5495 116.818 93.9922 116.648 94.4922 116.508C94.9922 116.367 95.5182 116.297 96.0703 116.297ZM97.8047 120.781L96.5 120.836C95.4323 120.878 94.6797 121.052 94.2422 121.359C93.8047 121.667 93.5859 122.102 93.5859 122.664C93.5859 123.154 93.7344 123.516 94.0312 123.75C94.3281 123.984 94.7214 124.102 95.2109 124.102C95.9714 124.102 96.5938 123.891 97.0781 123.469C97.5625 123.047 97.8047 122.414 97.8047 121.57V120.781ZM104.562 116.438H105.953L107.844 121.406C107.953 121.698 108.055 121.979 108.148 122.25C108.242 122.516 108.326 122.771 108.398 123.016C108.471 123.26 108.529 123.497 108.57 123.727H108.625C108.698 123.466 108.802 123.125 108.938 122.703C109.073 122.276 109.219 121.841 109.375 121.398L111.164 116.438H112.562L108.836 126.258C108.638 126.784 108.406 127.242 108.141 127.633C107.88 128.023 107.562 128.323 107.188 128.531C106.812 128.745 106.359 128.852 105.828 128.852C105.583 128.852 105.367 128.836 105.18 128.805C104.992 128.779 104.831 128.747 104.695 128.711V127.672C104.81 127.698 104.948 127.721 105.109 127.742C105.276 127.763 105.448 127.773 105.625 127.773C105.948 127.773 106.227 127.711 106.461 127.586C106.701 127.466 106.906 127.289 107.078 127.055C107.25 126.82 107.398 126.542 107.523 126.219L107.992 125.016L104.562 116.438ZM119.391 125H118.086V112.844H119.391V125ZM125.336 116.297C126.357 116.297 127.115 116.526 127.609 116.984C128.104 117.443 128.352 118.174 128.352 119.18V125H127.406L127.156 123.734H127.094C126.854 124.047 126.604 124.31 126.344 124.523C126.083 124.732 125.781 124.891 125.438 125C125.099 125.104 124.682 125.156 124.188 125.156C123.667 125.156 123.203 125.065 122.797 124.883C122.396 124.701 122.078 124.424 121.844 124.055C121.615 123.685 121.5 123.216 121.5 122.648C121.5 121.794 121.839 121.138 122.516 120.68C123.193 120.221 124.224 119.971 125.609 119.93L127.086 119.867V119.344C127.086 118.604 126.927 118.086 126.609 117.789C126.292 117.492 125.844 117.344 125.266 117.344C124.818 117.344 124.391 117.409 123.984 117.539C123.578 117.669 123.193 117.823 122.828 118L122.43 117.016C122.815 116.818 123.258 116.648 123.758 116.508C124.258 116.367 124.784 116.297 125.336 116.297ZM127.07 120.781L125.766 120.836C124.698 120.878 123.945 121.052 123.508 121.359C123.07 121.667 122.852 122.102 122.852 122.664C122.852 123.154 123 123.516 123.297 123.75C123.594 123.984 123.987 124.102 124.477 124.102C125.237 124.102 125.859 123.891 126.344 123.469C126.828 123.047 127.07 122.414 127.07 121.57V120.781ZM138.609 125.156C137.839 125.156 137.159 124.997 136.57 124.68C135.982 124.362 135.523 123.878 135.195 123.227C134.867 122.576 134.703 121.755 134.703 120.766C134.703 119.729 134.875 118.883 135.219 118.227C135.568 117.565 136.047 117.076 136.656 116.758C137.266 116.44 137.958 116.281 138.734 116.281C139.161 116.281 139.573 116.326 139.969 116.414C140.37 116.497 140.698 116.604 140.953 116.734L140.562 117.82C140.302 117.716 140 117.622 139.656 117.539C139.318 117.456 139 117.414 138.703 117.414C138.109 117.414 137.615 117.542 137.219 117.797C136.828 118.052 136.534 118.427 136.336 118.922C136.143 119.417 136.047 120.026 136.047 120.75C136.047 121.443 136.141 122.034 136.328 122.523C136.521 123.013 136.805 123.388 137.18 123.648C137.56 123.904 138.034 124.031 138.602 124.031C139.055 124.031 139.464 123.984 139.828 123.891C140.193 123.792 140.523 123.677 140.82 123.547V124.703C140.534 124.849 140.214 124.961 139.859 125.039C139.51 125.117 139.094 125.156 138.609 125.156ZM146.055 116.297C147.076 116.297 147.833 116.526 148.328 116.984C148.823 117.443 149.07 118.174 149.07 119.18V125H148.125L147.875 123.734H147.812C147.573 124.047 147.323 124.31 147.062 124.523C146.802 124.732 146.5 124.891 146.156 125C145.818 125.104 145.401 125.156 144.906 125.156C144.385 125.156 143.922 125.065 143.516 124.883C143.115 124.701 142.797 124.424 142.562 124.055C142.333 123.685 142.219 123.216 142.219 122.648C142.219 121.794 142.557 121.138 143.234 120.68C143.911 120.221 144.943 119.971 146.328 119.93L147.805 119.867V119.344C147.805 118.604 147.646 118.086 147.328 117.789C147.01 117.492 146.562 117.344 145.984 117.344C145.536 117.344 145.109 117.409 144.703 117.539C144.297 117.669 143.911 117.823 143.547 118L143.148 117.016C143.534 116.818 143.977 116.648 144.477 116.508C144.977 116.367 145.503 116.297 146.055 116.297ZM147.789 120.781L146.484 120.836C145.417 120.878 144.664 121.052 144.227 121.359C143.789 121.667 143.57 122.102 143.57 122.664C143.57 123.154 143.719 123.516 144.016 123.75C144.312 123.984 144.706 124.102 145.195 124.102C145.956 124.102 146.578 123.891 147.062 123.469C147.547 123.047 147.789 122.414 147.789 121.57V120.781ZM155.797 116.281C156.812 116.281 157.581 116.531 158.102 117.031C158.622 117.526 158.883 118.323 158.883 119.422V125H157.602V119.508C157.602 118.794 157.438 118.26 157.109 117.906C156.786 117.552 156.289 117.375 155.617 117.375C154.669 117.375 154.003 117.643 153.617 118.18C153.232 118.716 153.039 119.495 153.039 120.516V125H151.742V116.438H152.789L152.984 117.672H153.055C153.237 117.37 153.469 117.117 153.75 116.914C154.031 116.706 154.346 116.549 154.695 116.445C155.044 116.336 155.411 116.281 155.797 116.281ZM164.32 124.094C164.534 124.094 164.753 124.076 164.977 124.039C165.201 124.003 165.383 123.958 165.523 123.906V124.914C165.372 124.982 165.161 125.039 164.891 125.086C164.625 125.133 164.365 125.156 164.109 125.156C163.656 125.156 163.245 125.078 162.875 124.922C162.505 124.76 162.208 124.49 161.984 124.109C161.766 123.729 161.656 123.203 161.656 122.531V117.453H160.438V116.82L161.664 116.312L162.18 114.453H162.961V116.438H165.469V117.453H162.961V122.492C162.961 123.029 163.083 123.43 163.328 123.695C163.578 123.961 163.909 124.094 164.32 124.094ZM168.555 116.438V125H167.258V116.438H168.555ZM167.922 113.234C168.135 113.234 168.318 113.305 168.469 113.445C168.625 113.581 168.703 113.794 168.703 114.086C168.703 114.372 168.625 114.586 168.469 114.727C168.318 114.867 168.135 114.938 167.922 114.938C167.698 114.938 167.51 114.867 167.359 114.727C167.214 114.586 167.141 114.372 167.141 114.086C167.141 113.794 167.214 113.581 167.359 113.445C167.51 113.305 167.698 113.234 167.922 113.234ZM174.352 125.156C173.268 125.156 172.409 124.786 171.773 124.047C171.143 123.307 170.828 122.208 170.828 120.75C170.828 119.276 171.151 118.164 171.797 117.414C172.443 116.659 173.302 116.281 174.375 116.281C174.828 116.281 175.224 116.341 175.562 116.461C175.901 116.581 176.193 116.742 176.438 116.945C176.682 117.143 176.888 117.37 177.055 117.625H177.148C177.128 117.464 177.107 117.242 177.086 116.961C177.065 116.68 177.055 116.451 177.055 116.273V112.844H178.352V125H177.305L177.109 123.781H177.055C176.893 124.036 176.688 124.268 176.438 124.477C176.193 124.685 175.898 124.852 175.555 124.977C175.216 125.096 174.815 125.156 174.352 125.156ZM174.555 124.078C175.471 124.078 176.12 123.818 176.5 123.297C176.88 122.776 177.07 122.003 177.07 120.977V120.742C177.07 119.654 176.888 118.818 176.523 118.234C176.164 117.651 175.508 117.359 174.555 117.359C173.758 117.359 173.161 117.667 172.766 118.281C172.37 118.891 172.172 119.724 172.172 120.781C172.172 121.833 172.367 122.646 172.758 123.219C173.154 123.792 173.753 124.078 174.555 124.078ZM184.305 116.297C185.326 116.297 186.083 116.526 186.578 116.984C187.073 117.443 187.32 118.174 187.32 119.18V125H186.375L186.125 123.734H186.062C185.823 124.047 185.573 124.31 185.312 124.523C185.052 124.732 184.75 124.891 184.406 125C184.068 125.104 183.651 125.156 183.156 125.156C182.635 125.156 182.172 125.065 181.766 124.883C181.365 124.701 181.047 124.424 180.812 124.055C180.583 123.685 180.469 123.216 180.469 122.648C180.469 121.794 180.807 121.138 181.484 120.68C182.161 120.221 183.193 119.971 184.578 119.93L186.055 119.867V119.344C186.055 118.604 185.896 118.086 185.578 117.789C185.26 117.492 184.812 117.344 184.234 117.344C183.786 117.344 183.359 117.409 182.953 117.539C182.547 117.669 182.161 117.823 181.797 118L181.398 117.016C181.784 116.818 182.227 116.648 182.727 116.508C183.227 116.367 183.753 116.297 184.305 116.297ZM186.039 120.781L184.734 120.836C183.667 120.878 182.914 121.052 182.477 121.359C182.039 121.667 181.82 122.102 181.82 122.664C181.82 123.154 181.969 123.516 182.266 123.75C182.562 123.984 182.956 124.102 183.445 124.102C184.206 124.102 184.828 123.891 185.312 123.469C185.797 123.047 186.039 122.414 186.039 121.57V120.781ZM193.039 125.156C191.956 125.156 191.096 124.786 190.461 124.047C189.831 123.307 189.516 122.208 189.516 120.75C189.516 119.276 189.839 118.164 190.484 117.414C191.13 116.659 191.99 116.281 193.062 116.281C193.516 116.281 193.911 116.341 194.25 116.461C194.589 116.581 194.88 116.742 195.125 116.945C195.37 117.143 195.576 117.37 195.742 117.625H195.836C195.815 117.464 195.794 117.242 195.773 116.961C195.753 116.68 195.742 116.451 195.742 116.273V112.844H197.039V125H195.992L195.797 123.781H195.742C195.581 124.036 195.375 124.268 195.125 124.477C194.88 124.685 194.586 124.852 194.242 124.977C193.904 125.096 193.503 125.156 193.039 125.156ZM193.242 124.078C194.159 124.078 194.807 123.818 195.188 123.297C195.568 122.776 195.758 122.003 195.758 120.977V120.742C195.758 119.654 195.576 118.818 195.211 118.234C194.852 117.651 194.195 117.359 193.242 117.359C192.445 117.359 191.849 117.667 191.453 118.281C191.057 118.891 190.859 119.724 190.859 120.781C190.859 121.833 191.055 122.646 191.445 123.219C191.841 123.792 192.44 124.078 193.242 124.078ZM206.992 125.156C205.909 125.156 205.049 124.786 204.414 124.047C203.784 123.307 203.469 122.208 203.469 120.75C203.469 119.276 203.792 118.164 204.438 117.414C205.083 116.659 205.943 116.281 207.016 116.281C207.469 116.281 207.865 116.341 208.203 116.461C208.542 116.581 208.833 116.742 209.078 116.945C209.323 117.143 209.529 117.37 209.695 117.625H209.789C209.768 117.464 209.747 117.242 209.727 116.961C209.706 116.68 209.695 116.451 209.695 116.273V112.844H210.992V125H209.945L209.75 123.781H209.695C209.534 124.036 209.328 124.268 209.078 124.477C208.833 124.685 208.539 124.852 208.195 124.977C207.857 125.096 207.456 125.156 206.992 125.156ZM207.195 124.078C208.112 124.078 208.76 123.818 209.141 123.297C209.521 122.776 209.711 122.003 209.711 120.977V120.742C209.711 119.654 209.529 118.818 209.164 118.234C208.805 117.651 208.148 117.359 207.195 117.359C206.398 117.359 205.802 117.667 205.406 118.281C205.01 118.891 204.812 119.724 204.812 120.781C204.812 121.833 205.008 122.646 205.398 123.219C205.794 123.792 206.393 124.078 207.195 124.078ZM217.039 116.281C217.768 116.281 218.393 116.443 218.914 116.766C219.435 117.089 219.833 117.542 220.109 118.125C220.385 118.703 220.523 119.38 220.523 120.156V120.961H214.609C214.625 121.966 214.875 122.732 215.359 123.258C215.844 123.784 216.526 124.047 217.406 124.047C217.948 124.047 218.427 123.997 218.844 123.898C219.26 123.799 219.693 123.654 220.141 123.461V124.602C219.708 124.794 219.279 124.935 218.852 125.023C218.43 125.112 217.93 125.156 217.352 125.156C216.529 125.156 215.81 124.99 215.195 124.656C214.586 124.318 214.112 123.823 213.773 123.172C213.435 122.521 213.266 121.724 213.266 120.781C213.266 119.859 213.419 119.062 213.727 118.391C214.039 117.714 214.477 117.193 215.039 116.828C215.607 116.464 216.273 116.281 217.039 116.281ZM217.023 117.344C216.331 117.344 215.779 117.57 215.367 118.023C214.956 118.477 214.711 119.109 214.633 119.922H219.164C219.159 119.411 219.078 118.964 218.922 118.578C218.771 118.188 218.539 117.885 218.227 117.672C217.914 117.453 217.513 117.344 217.023 117.344ZM65.7969 149.156C65.026 149.156 64.3464 148.997 63.7578 148.68C63.1693 148.362 62.7109 147.878 62.3828 147.227C62.0547 146.576 61.8906 145.755 61.8906 144.766C61.8906 143.729 62.0625 142.883 62.4062 142.227C62.7552 141.565 63.2344 141.076 63.8438 140.758C64.4531 140.44 65.1458 140.281 65.9219 140.281C66.349 140.281 66.7604 140.326 67.1562 140.414C67.5573 140.497 67.8854 140.604 68.1406 140.734L67.75 141.82C67.4896 141.716 67.1875 141.622 66.8438 141.539C66.5052 141.456 66.1875 141.414 65.8906 141.414C65.2969 141.414 64.8021 141.542 64.4062 141.797C64.0156 142.052 63.7214 142.427 63.5234 142.922C63.3307 143.417 63.2344 144.026 63.2344 144.75C63.2344 145.443 63.3281 146.034 63.5156 146.523C63.7083 147.013 63.9922 147.388 64.3672 147.648C64.7474 147.904 65.2214 148.031 65.7891 148.031C66.2422 148.031 66.651 147.984 67.0156 147.891C67.3802 147.792 67.7109 147.677 68.0078 147.547V148.703C67.7214 148.849 67.401 148.961 67.0469 149.039C66.6979 149.117 66.2812 149.156 65.7969 149.156ZM73.2422 140.297C74.263 140.297 75.0208 140.526 75.5156 140.984C76.0104 141.443 76.2578 142.174 76.2578 143.18V149H75.3125L75.0625 147.734H75C74.7604 148.047 74.5104 148.31 74.25 148.523C73.9896 148.732 73.6875 148.891 73.3438 149C73.0052 149.104 72.5885 149.156 72.0938 149.156C71.5729 149.156 71.1094 149.065 70.7031 148.883C70.3021 148.701 69.9844 148.424 69.75 148.055C69.5208 147.685 69.4062 147.216 69.4062 146.648C69.4062 145.794 69.7448 145.138 70.4219 144.68C71.099 144.221 72.1302 143.971 73.5156 143.93L74.9922 143.867V143.344C74.9922 142.604 74.8333 142.086 74.5156 141.789C74.1979 141.492 73.75 141.344 73.1719 141.344C72.724 141.344 72.2969 141.409 71.8906 141.539C71.4844 141.669 71.099 141.823 70.7344 142L70.3359 141.016C70.7214 140.818 71.1641 140.648 71.6641 140.508C72.1641 140.367 72.6901 140.297 73.2422 140.297ZM74.9766 144.781L73.6719 144.836C72.6042 144.878 71.8516 145.052 71.4141 145.359C70.9766 145.667 70.7578 146.102 70.7578 146.664C70.7578 147.154 70.9062 147.516 71.2031 147.75C71.5 147.984 71.8932 148.102 72.3828 148.102C73.1432 148.102 73.7656 147.891 74.25 147.469C74.7344 147.047 74.9766 146.414 74.9766 145.57V144.781ZM82.8203 140.281C82.9922 140.281 83.1719 140.292 83.3594 140.312C83.5469 140.328 83.7135 140.352 83.8594 140.383L83.6953 141.586C83.5547 141.549 83.3984 141.521 83.2266 141.5C83.0547 141.479 82.8932 141.469 82.7422 141.469C82.3984 141.469 82.0729 141.539 81.7656 141.68C81.4635 141.815 81.1979 142.013 80.9688 142.273C80.7396 142.529 80.5599 142.839 80.4297 143.203C80.2995 143.562 80.2344 143.964 80.2344 144.406V149H78.9297V140.438H80.0078L80.1484 142.016H80.2031C80.3802 141.698 80.5938 141.409 80.8438 141.148C81.0938 140.883 81.3828 140.672 81.7109 140.516C82.0443 140.359 82.4141 140.281 82.8203 140.281ZM88.6797 140.297C89.7005 140.297 90.4583 140.526 90.9531 140.984C91.4479 141.443 91.6953 142.174 91.6953 143.18V149H90.75L90.5 147.734H90.4375C90.1979 148.047 89.9479 148.31 89.6875 148.523C89.4271 148.732 89.125 148.891 88.7812 149C88.4427 149.104 88.026 149.156 87.5312 149.156C87.0104 149.156 86.5469 149.065 86.1406 148.883C85.7396 148.701 85.4219 148.424 85.1875 148.055C84.9583 147.685 84.8438 147.216 84.8438 146.648C84.8438 145.794 85.1823 145.138 85.8594 144.68C86.5365 144.221 87.5677 143.971 88.9531 143.93L90.4297 143.867V143.344C90.4297 142.604 90.2708 142.086 89.9531 141.789C89.6354 141.492 89.1875 141.344 88.6094 141.344C88.1615 141.344 87.7344 141.409 87.3281 141.539C86.9219 141.669 86.5365 141.823 86.1719 142L85.7734 141.016C86.1589 140.818 86.6016 140.648 87.1016 140.508C87.6016 140.367 88.1276 140.297 88.6797 140.297ZM90.4141 144.781L89.1094 144.836C88.0417 144.878 87.2891 145.052 86.8516 145.359C86.4141 145.667 86.1953 146.102 86.1953 146.664C86.1953 147.154 86.3438 147.516 86.6406 147.75C86.9375 147.984 87.3307 148.102 87.8203 148.102C88.5807 148.102 89.2031 147.891 89.6875 147.469C90.1719 147.047 90.4141 146.414 90.4141 145.57V144.781ZM97.7969 149.156C97.026 149.156 96.3464 148.997 95.7578 148.68C95.1693 148.362 94.7109 147.878 94.3828 147.227C94.0547 146.576 93.8906 145.755 93.8906 144.766C93.8906 143.729 94.0625 142.883 94.4062 142.227C94.7552 141.565 95.2344 141.076 95.8438 140.758C96.4531 140.44 97.1458 140.281 97.9219 140.281C98.349 140.281 98.7604 140.326 99.1562 140.414C99.5573 140.497 99.8854 140.604 100.141 140.734L99.75 141.82C99.4896 141.716 99.1875 141.622 98.8438 141.539C98.5052 141.456 98.1875 141.414 97.8906 141.414C97.2969 141.414 96.8021 141.542 96.4062 141.797C96.0156 142.052 95.7214 142.427 95.5234 142.922C95.3307 143.417 95.2344 144.026 95.2344 144.75C95.2344 145.443 95.3281 146.034 95.5156 146.523C95.7083 147.013 95.9922 147.388 96.3672 147.648C96.7474 147.904 97.2214 148.031 97.7891 148.031C98.2422 148.031 98.651 147.984 99.0156 147.891C99.3802 147.792 99.7109 147.677 100.008 147.547V148.703C99.7214 148.849 99.401 148.961 99.0469 149.039C98.6979 149.117 98.2812 149.156 97.7969 149.156ZM104.805 148.094C105.018 148.094 105.237 148.076 105.461 148.039C105.685 148.003 105.867 147.958 106.008 147.906V148.914C105.857 148.982 105.646 149.039 105.375 149.086C105.109 149.133 104.849 149.156 104.594 149.156C104.141 149.156 103.729 149.078 103.359 148.922C102.99 148.76 102.693 148.49 102.469 148.109C102.25 147.729 102.141 147.203 102.141 146.531V141.453H100.922V140.82L102.148 140.312L102.664 138.453H103.445V140.438H105.953V141.453H103.445V146.492C103.445 147.029 103.568 147.43 103.812 147.695C104.062 147.961 104.393 148.094 104.805 148.094ZM111.039 140.281C111.768 140.281 112.393 140.443 112.914 140.766C113.435 141.089 113.833 141.542 114.109 142.125C114.385 142.703 114.523 143.38 114.523 144.156V144.961H108.609C108.625 145.966 108.875 146.732 109.359 147.258C109.844 147.784 110.526 148.047 111.406 148.047C111.948 148.047 112.427 147.997 112.844 147.898C113.26 147.799 113.693 147.654 114.141 147.461V148.602C113.708 148.794 113.279 148.935 112.852 149.023C112.43 149.112 111.93 149.156 111.352 149.156C110.529 149.156 109.81 148.99 109.195 148.656C108.586 148.318 108.112 147.823 107.773 147.172C107.435 146.521 107.266 145.724 107.266 144.781C107.266 143.859 107.419 143.062 107.727 142.391C108.039 141.714 108.477 141.193 109.039 140.828C109.607 140.464 110.273 140.281 111.039 140.281ZM111.023 141.344C110.331 141.344 109.779 141.57 109.367 142.023C108.956 142.477 108.711 143.109 108.633 143.922H113.164C113.159 143.411 113.078 142.964 112.922 142.578C112.771 142.188 112.539 141.885 112.227 141.672C111.914 141.453 111.513 141.344 111.023 141.344ZM120.617 140.281C120.789 140.281 120.969 140.292 121.156 140.312C121.344 140.328 121.51 140.352 121.656 140.383L121.492 141.586C121.352 141.549 121.195 141.521 121.023 141.5C120.852 141.479 120.69 141.469 120.539 141.469C120.195 141.469 119.87 141.539 119.562 141.68C119.26 141.815 118.995 142.013 118.766 142.273C118.536 142.529 118.357 142.839 118.227 143.203C118.096 143.562 118.031 143.964 118.031 144.406V149H116.727V140.438H117.805L117.945 142.016H118C118.177 141.698 118.391 141.409 118.641 141.148C118.891 140.883 119.18 140.672 119.508 140.516C119.841 140.359 120.211 140.281 120.617 140.281ZM126.57 140.281C127.299 140.281 127.924 140.443 128.445 140.766C128.966 141.089 129.365 141.542 129.641 142.125C129.917 142.703 130.055 143.38 130.055 144.156V144.961H124.141C124.156 145.966 124.406 146.732 124.891 147.258C125.375 147.784 126.057 148.047 126.938 148.047C127.479 148.047 127.958 147.997 128.375 147.898C128.792 147.799 129.224 147.654 129.672 147.461V148.602C129.24 148.794 128.81 148.935 128.383 149.023C127.961 149.112 127.461 149.156 126.883 149.156C126.06 149.156 125.341 148.99 124.727 148.656C124.117 148.318 123.643 147.823 123.305 147.172C122.966 146.521 122.797 145.724 122.797 144.781C122.797 143.859 122.951 143.062 123.258 142.391C123.57 141.714 124.008 141.193 124.57 140.828C125.138 140.464 125.805 140.281 126.57 140.281ZM126.555 141.344C125.862 141.344 125.31 141.57 124.898 142.023C124.487 142.477 124.242 143.109 124.164 143.922H128.695C128.69 143.411 128.609 142.964 128.453 142.578C128.302 142.188 128.07 141.885 127.758 141.672C127.445 141.453 127.044 141.344 126.555 141.344ZM137.797 146.656C137.797 147.203 137.659 147.664 137.383 148.039C137.112 148.409 136.721 148.688 136.211 148.875C135.706 149.062 135.102 149.156 134.398 149.156C133.799 149.156 133.281 149.109 132.844 149.016C132.406 148.922 132.023 148.789 131.695 148.617V147.422C132.044 147.594 132.461 147.75 132.945 147.891C133.43 148.031 133.924 148.102 134.43 148.102C135.169 148.102 135.706 147.982 136.039 147.742C136.372 147.503 136.539 147.177 136.539 146.766C136.539 146.531 136.471 146.326 136.336 146.148C136.206 145.966 135.984 145.792 135.672 145.625C135.359 145.453 134.927 145.266 134.375 145.062C133.828 144.854 133.354 144.648 132.953 144.445C132.557 144.237 132.25 143.984 132.031 143.688C131.818 143.391 131.711 143.005 131.711 142.531C131.711 141.807 132.003 141.253 132.586 140.867C133.174 140.477 133.945 140.281 134.898 140.281C135.414 140.281 135.896 140.333 136.344 140.438C136.797 140.536 137.219 140.672 137.609 140.844L137.172 141.883C136.818 141.732 136.44 141.604 136.039 141.5C135.638 141.396 135.229 141.344 134.812 141.344C134.214 141.344 133.753 141.443 133.43 141.641C133.112 141.839 132.953 142.109 132.953 142.453C132.953 142.719 133.026 142.938 133.172 143.109C133.323 143.281 133.562 143.443 133.891 143.594C134.219 143.745 134.651 143.922 135.188 144.125C135.724 144.323 136.188 144.529 136.578 144.742C136.969 144.951 137.268 145.206 137.477 145.508C137.69 145.805 137.797 146.188 137.797 146.656ZM148.062 140.281C149.13 140.281 149.982 140.648 150.617 141.383C151.253 142.117 151.57 143.221 151.57 144.695C151.57 145.669 151.424 146.487 151.133 147.148C150.841 147.81 150.43 148.31 149.898 148.648C149.372 148.987 148.75 149.156 148.031 149.156C147.578 149.156 147.18 149.096 146.836 148.977C146.492 148.857 146.198 148.695 145.953 148.492C145.708 148.289 145.505 148.068 145.344 147.828H145.25C145.266 148.031 145.284 148.276 145.305 148.562C145.331 148.849 145.344 149.099 145.344 149.312V152.828H144.039V140.438H145.109L145.281 141.703H145.344C145.51 141.443 145.714 141.206 145.953 140.992C146.193 140.773 146.484 140.602 146.828 140.477C147.177 140.346 147.589 140.281 148.062 140.281ZM147.836 141.375C147.242 141.375 146.763 141.49 146.398 141.719C146.039 141.948 145.776 142.292 145.609 142.75C145.443 143.203 145.354 143.773 145.344 144.461V144.711C145.344 145.435 145.422 146.047 145.578 146.547C145.74 147.047 146.003 147.427 146.367 147.688C146.737 147.948 147.232 148.078 147.852 148.078C148.383 148.078 148.826 147.935 149.18 147.648C149.534 147.362 149.797 146.964 149.969 146.453C150.146 145.938 150.234 145.346 150.234 144.68C150.234 143.669 150.036 142.867 149.641 142.273C149.25 141.674 148.648 141.375 147.836 141.375ZM157.133 140.281C157.862 140.281 158.487 140.443 159.008 140.766C159.529 141.089 159.927 141.542 160.203 142.125C160.479 142.703 160.617 143.38 160.617 144.156V144.961H154.703C154.719 145.966 154.969 146.732 155.453 147.258C155.938 147.784 156.62 148.047 157.5 148.047C158.042 148.047 158.521 147.997 158.938 147.898C159.354 147.799 159.786 147.654 160.234 147.461V148.602C159.802 148.794 159.372 148.935 158.945 149.023C158.523 149.112 158.023 149.156 157.445 149.156C156.622 149.156 155.904 148.99 155.289 148.656C154.68 148.318 154.206 147.823 153.867 147.172C153.529 146.521 153.359 145.724 153.359 144.781C153.359 143.859 153.513 143.062 153.82 142.391C154.133 141.714 154.57 141.193 155.133 140.828C155.701 140.464 156.367 140.281 157.133 140.281ZM157.117 141.344C156.424 141.344 155.872 141.57 155.461 142.023C155.049 142.477 154.805 143.109 154.727 143.922H159.258C159.253 143.411 159.172 142.964 159.016 142.578C158.865 142.188 158.633 141.885 158.32 141.672C158.008 141.453 157.607 141.344 157.117 141.344ZM166.711 140.281C166.883 140.281 167.062 140.292 167.25 140.312C167.438 140.328 167.604 140.352 167.75 140.383L167.586 141.586C167.445 141.549 167.289 141.521 167.117 141.5C166.945 141.479 166.784 141.469 166.633 141.469C166.289 141.469 165.964 141.539 165.656 141.68C165.354 141.815 165.089 142.013 164.859 142.273C164.63 142.529 164.451 142.839 164.32 143.203C164.19 143.562 164.125 143.964 164.125 144.406V149H162.82V140.438H163.898L164.039 142.016H164.094C164.271 141.698 164.484 141.409 164.734 141.148C164.984 140.883 165.273 140.672 165.602 140.516C165.935 140.359 166.305 140.281 166.711 140.281ZM178.664 140.281C179.607 140.281 180.318 140.529 180.797 141.023C181.276 141.513 181.516 142.302 181.516 143.391V149H180.234V143.453C180.234 142.76 180.083 142.242 179.781 141.898C179.484 141.549 179.042 141.375 178.453 141.375C177.625 141.375 177.023 141.615 176.648 142.094C176.273 142.573 176.086 143.279 176.086 144.211V149H174.797V143.453C174.797 142.99 174.729 142.604 174.594 142.297C174.464 141.99 174.266 141.76 174 141.609C173.74 141.453 173.409 141.375 173.008 141.375C172.44 141.375 171.984 141.492 171.641 141.727C171.297 141.961 171.047 142.31 170.891 142.773C170.74 143.232 170.664 143.797 170.664 144.469V149H169.367V140.438H170.414L170.609 141.648H170.68C170.852 141.352 171.068 141.102 171.328 140.898C171.589 140.695 171.88 140.542 172.203 140.438C172.526 140.333 172.87 140.281 173.234 140.281C173.885 140.281 174.43 140.404 174.867 140.648C175.31 140.888 175.63 141.255 175.828 141.75H175.898C176.18 141.255 176.565 140.888 177.055 140.648C177.544 140.404 178.081 140.281 178.664 140.281ZM185.477 140.438V149H184.18V140.438H185.477ZM184.844 137.234C185.057 137.234 185.24 137.305 185.391 137.445C185.547 137.581 185.625 137.794 185.625 138.086C185.625 138.372 185.547 138.586 185.391 138.727C185.24 138.867 185.057 138.938 184.844 138.938C184.62 138.938 184.432 138.867 184.281 138.727C184.135 138.586 184.062 138.372 184.062 138.086C184.062 137.794 184.135 137.581 184.281 137.445C184.432 137.305 184.62 137.234 184.844 137.234ZM190.992 148.094C191.206 148.094 191.424 148.076 191.648 148.039C191.872 148.003 192.055 147.958 192.195 147.906V148.914C192.044 148.982 191.833 149.039 191.562 149.086C191.297 149.133 191.036 149.156 190.781 149.156C190.328 149.156 189.917 149.078 189.547 148.922C189.177 148.76 188.88 148.49 188.656 148.109C188.438 147.729 188.328 147.203 188.328 146.531V141.453H187.109V140.82L188.336 140.312L188.852 138.453H189.633V140.438H192.141V141.453H189.633V146.492C189.633 147.029 189.755 147.43 190 147.695C190.25 147.961 190.581 148.094 190.992 148.094ZM195.227 140.438V149H193.93V140.438H195.227ZM194.594 137.234C194.807 137.234 194.99 137.305 195.141 137.445C195.297 137.581 195.375 137.794 195.375 138.086C195.375 138.372 195.297 138.586 195.141 138.727C194.99 138.867 194.807 138.938 194.594 138.938C194.37 138.938 194.182 138.867 194.031 138.727C193.885 138.586 193.812 138.372 193.812 138.086C193.812 137.794 193.885 137.581 194.031 137.445C194.182 137.305 194.37 137.234 194.594 137.234ZM201.023 149.156C199.94 149.156 199.081 148.786 198.445 148.047C197.815 147.307 197.5 146.208 197.5 144.75C197.5 143.276 197.823 142.164 198.469 141.414C199.115 140.659 199.974 140.281 201.047 140.281C201.5 140.281 201.896 140.341 202.234 140.461C202.573 140.581 202.865 140.742 203.109 140.945C203.354 141.143 203.56 141.37 203.727 141.625H203.82C203.799 141.464 203.779 141.242 203.758 140.961C203.737 140.68 203.727 140.451 203.727 140.273V136.844H205.023V149H203.977L203.781 147.781H203.727C203.565 148.036 203.359 148.268 203.109 148.477C202.865 148.685 202.57 148.852 202.227 148.977C201.888 149.096 201.487 149.156 201.023 149.156ZM201.227 148.078C202.143 148.078 202.792 147.818 203.172 147.297C203.552 146.776 203.742 146.003 203.742 144.977V144.742C203.742 143.654 203.56 142.818 203.195 142.234C202.836 141.651 202.18 141.359 201.227 141.359C200.43 141.359 199.833 141.667 199.438 142.281C199.042 142.891 198.844 143.724 198.844 144.781C198.844 145.833 199.039 146.646 199.43 147.219C199.826 147.792 200.424 148.078 201.227 148.078ZM215.156 144.703C215.156 145.406 215.065 146.034 214.883 146.586C214.701 147.138 214.438 147.604 214.094 147.984C213.75 148.365 213.333 148.656 212.844 148.859C212.359 149.057 211.81 149.156 211.195 149.156C210.622 149.156 210.096 149.057 209.617 148.859C209.143 148.656 208.732 148.365 208.383 147.984C208.039 147.604 207.771 147.138 207.578 146.586C207.391 146.034 207.297 145.406 207.297 144.703C207.297 143.766 207.456 142.969 207.773 142.312C208.091 141.651 208.544 141.148 209.133 140.805C209.727 140.456 210.432 140.281 211.25 140.281C212.031 140.281 212.714 140.456 213.297 140.805C213.885 141.154 214.341 141.659 214.664 142.32C214.992 142.977 215.156 143.771 215.156 144.703ZM208.641 144.703C208.641 145.391 208.732 145.987 208.914 146.492C209.096 146.997 209.378 147.388 209.758 147.664C210.138 147.94 210.628 148.078 211.227 148.078C211.82 148.078 212.307 147.94 212.688 147.664C213.073 147.388 213.357 146.997 213.539 146.492C213.721 145.987 213.812 145.391 213.812 144.703C213.812 144.021 213.721 143.432 213.539 142.938C213.357 142.438 213.076 142.052 212.695 141.781C212.315 141.51 211.823 141.375 211.219 141.375C210.328 141.375 209.674 141.669 209.258 142.258C208.846 142.846 208.641 143.661 208.641 144.703ZM222.938 146.656C222.938 147.203 222.799 147.664 222.523 148.039C222.253 148.409 221.862 148.688 221.352 148.875C220.846 149.062 220.242 149.156 219.539 149.156C218.94 149.156 218.422 149.109 217.984 149.016C217.547 148.922 217.164 148.789 216.836 148.617V147.422C217.185 147.594 217.602 147.75 218.086 147.891C218.57 148.031 219.065 148.102 219.57 148.102C220.31 148.102 220.846 147.982 221.18 147.742C221.513 147.503 221.68 147.177 221.68 146.766C221.68 146.531 221.612 146.326 221.477 146.148C221.346 145.966 221.125 145.792 220.812 145.625C220.5 145.453 220.068 145.266 219.516 145.062C218.969 144.854 218.495 144.648 218.094 144.445C217.698 144.237 217.391 143.984 217.172 143.688C216.958 143.391 216.852 143.005 216.852 142.531C216.852 141.807 217.143 141.253 217.727 140.867C218.315 140.477 219.086 140.281 220.039 140.281C220.555 140.281 221.036 140.333 221.484 140.438C221.938 140.536 222.359 140.672 222.75 140.844L222.312 141.883C221.958 141.732 221.581 141.604 221.18 141.5C220.779 141.396 220.37 141.344 219.953 141.344C219.354 141.344 218.893 141.443 218.57 141.641C218.253 141.839 218.094 142.109 218.094 142.453C218.094 142.719 218.167 142.938 218.312 143.109C218.464 143.281 218.703 143.443 219.031 143.594C219.359 143.745 219.792 143.922 220.328 144.125C220.865 144.323 221.328 144.529 221.719 144.742C222.109 144.951 222.409 145.206 222.617 145.508C222.831 145.805 222.938 146.188 222.938 146.656Z" fill="#38485C"/>
<path d="M146.737 226.539C146.225 226.539 145.764 226.627 145.353 226.805C144.947 226.979 144.6 227.233 144.312 227.567C144.028 227.897 143.811 228.297 143.658 228.767C143.506 229.236 143.43 229.765 143.43 230.354C143.43 231.132 143.55 231.809 143.792 232.385C144.037 232.956 144.401 233.398 144.883 233.711C145.37 234.025 145.977 234.181 146.705 234.181C147.12 234.181 147.509 234.147 147.873 234.08C148.241 234.008 148.599 233.919 148.946 233.813V234.752C148.607 234.879 148.252 234.972 147.879 235.032C147.507 235.095 147.065 235.127 146.553 235.127C145.609 235.127 144.82 234.932 144.185 234.543C143.555 234.149 143.081 233.595 142.763 232.88C142.45 232.165 142.293 231.32 142.293 230.347C142.293 229.645 142.391 229.004 142.585 228.424C142.784 227.84 143.072 227.336 143.449 226.913C143.83 226.49 144.295 226.164 144.845 225.936C145.4 225.703 146.034 225.586 146.75 225.586C147.219 225.586 147.672 225.633 148.108 225.726C148.544 225.819 148.937 225.952 149.289 226.126L148.857 227.04C148.561 226.905 148.235 226.788 147.879 226.691C147.528 226.589 147.147 226.539 146.737 226.539ZM156.798 231.509C156.798 232.08 156.724 232.59 156.576 233.039C156.428 233.487 156.214 233.866 155.935 234.175C155.655 234.484 155.317 234.721 154.919 234.886C154.525 235.047 154.079 235.127 153.58 235.127C153.114 235.127 152.687 235.047 152.297 234.886C151.912 234.721 151.578 234.484 151.294 234.175C151.015 233.866 150.797 233.487 150.641 233.039C150.488 232.59 150.412 232.08 150.412 231.509C150.412 230.747 150.541 230.1 150.799 229.566C151.057 229.029 151.426 228.621 151.904 228.341C152.386 228.058 152.96 227.916 153.624 227.916C154.259 227.916 154.813 228.058 155.287 228.341C155.765 228.625 156.136 229.035 156.398 229.573C156.665 230.106 156.798 230.751 156.798 231.509ZM151.504 231.509C151.504 232.067 151.578 232.552 151.726 232.962C151.874 233.373 152.103 233.69 152.412 233.915C152.721 234.139 153.118 234.251 153.605 234.251C154.087 234.251 154.483 234.139 154.792 233.915C155.105 233.69 155.336 233.373 155.484 232.962C155.632 232.552 155.706 232.067 155.706 231.509C155.706 230.954 155.632 230.476 155.484 230.074C155.336 229.668 155.107 229.355 154.798 229.135C154.489 228.915 154.09 228.805 153.599 228.805C152.875 228.805 152.344 229.044 152.005 229.522C151.671 230 151.504 230.662 151.504 231.509ZM161.914 227.916C162.739 227.916 163.363 228.119 163.787 228.525C164.21 228.927 164.421 229.575 164.421 230.468V235H163.38V230.538C163.38 229.958 163.247 229.524 162.98 229.236C162.718 228.949 162.314 228.805 161.768 228.805C160.998 228.805 160.456 229.023 160.143 229.458C159.83 229.894 159.673 230.527 159.673 231.356V235H158.62V228.043H159.47L159.629 229.046H159.686C159.834 228.8 160.022 228.595 160.251 228.43C160.479 228.261 160.736 228.134 161.019 228.049C161.303 227.96 161.601 227.916 161.914 227.916ZM172.216 234.264C172.39 234.264 172.568 234.249 172.75 234.219C172.931 234.19 173.08 234.154 173.194 234.111V234.93C173.071 234.985 172.9 235.032 172.68 235.07C172.464 235.108 172.252 235.127 172.045 235.127C171.677 235.127 171.342 235.063 171.042 234.937C170.742 234.805 170.5 234.585 170.318 234.276C170.141 233.967 170.052 233.54 170.052 232.994V228.868H169.062V228.354L170.058 227.941L170.477 226.431H171.112V228.043H173.149V228.868H171.112V232.962C171.112 233.398 171.211 233.724 171.41 233.94C171.613 234.156 171.882 234.264 172.216 234.264ZM177.282 227.916C177.874 227.916 178.382 228.047 178.805 228.31C179.228 228.572 179.552 228.94 179.776 229.414C180.001 229.884 180.113 230.434 180.113 231.064V231.718H175.308C175.32 232.535 175.523 233.157 175.917 233.584C176.311 234.012 176.865 234.226 177.58 234.226C178.02 234.226 178.41 234.185 178.748 234.105C179.087 234.025 179.438 233.906 179.802 233.75V234.676C179.451 234.833 179.101 234.947 178.754 235.019C178.412 235.091 178.005 235.127 177.536 235.127C176.867 235.127 176.283 234.992 175.784 234.721C175.289 234.446 174.903 234.044 174.628 233.515C174.353 232.986 174.216 232.338 174.216 231.572C174.216 230.823 174.341 230.176 174.59 229.63C174.844 229.08 175.2 228.657 175.657 228.36C176.118 228.064 176.66 227.916 177.282 227.916ZM177.269 228.779C176.706 228.779 176.258 228.963 175.923 229.332C175.589 229.7 175.39 230.214 175.327 230.874H179.008C179.004 230.459 178.938 230.095 178.812 229.782C178.689 229.465 178.5 229.219 178.247 229.046C177.993 228.868 177.667 228.779 177.269 228.779ZM183.56 231.439L181.154 228.043H182.36L184.194 230.722L186.022 228.043H187.216L184.81 231.439L187.349 235H186.143L184.194 232.163L182.233 235H181.04L183.56 231.439ZM190.955 234.264C191.128 234.264 191.306 234.249 191.488 234.219C191.67 234.19 191.818 234.154 191.932 234.111V234.93C191.809 234.985 191.638 235.032 191.418 235.07C191.202 235.108 190.991 235.127 190.783 235.127C190.415 235.127 190.081 235.063 189.78 234.937C189.48 234.805 189.239 234.585 189.057 234.276C188.879 233.967 188.79 233.54 188.79 232.994V228.868H187.8V228.354L188.796 227.941L189.215 226.431H189.85V228.043H191.888V228.868H189.85V232.962C189.85 233.398 189.95 233.724 190.148 233.94C190.352 234.156 190.62 234.264 190.955 234.264ZM199.34 231.509C199.34 232.08 199.266 232.59 199.118 233.039C198.97 233.487 198.756 233.866 198.477 234.175C198.197 234.484 197.859 234.721 197.461 234.886C197.067 235.047 196.621 235.127 196.122 235.127C195.656 235.127 195.229 235.047 194.839 234.886C194.454 234.721 194.12 234.484 193.836 234.175C193.557 233.866 193.339 233.487 193.183 233.039C193.03 232.59 192.954 232.08 192.954 231.509C192.954 230.747 193.083 230.1 193.341 229.566C193.599 229.029 193.968 228.621 194.446 228.341C194.928 228.058 195.502 227.916 196.166 227.916C196.801 227.916 197.355 228.058 197.829 228.341C198.307 228.625 198.678 229.035 198.94 229.573C199.207 230.106 199.34 230.751 199.34 231.509ZM194.046 231.509C194.046 232.067 194.12 232.552 194.268 232.962C194.416 233.373 194.645 233.69 194.954 233.915C195.263 234.139 195.66 234.251 196.147 234.251C196.629 234.251 197.025 234.139 197.334 233.915C197.647 233.69 197.878 233.373 198.026 232.962C198.174 232.552 198.248 232.067 198.248 231.509C198.248 230.954 198.174 230.476 198.026 230.074C197.878 229.668 197.649 229.355 197.34 229.135C197.031 228.915 196.632 228.805 196.141 228.805C195.417 228.805 194.886 229.044 194.547 229.522C194.213 230 194.046 230.662 194.046 231.509Z" fill="#38485C"/>
</svg>
