<svg width="342" height="260" viewBox="0 0 342 260" fill="none" xmlns="http://www.w3.org/2000/svg">
<rect x="1" y="1" width="340" height="212" rx="9" fill="#F3F6F9" stroke="#E6EBF0" stroke-width="2"/>
<path d="M144.454 226.539C143.942 226.539 143.481 226.627 143.07 226.805C142.664 226.979 142.317 227.233 142.029 227.567C141.746 227.897 141.528 228.297 141.375 228.767C141.223 229.236 141.147 229.765 141.147 230.354C141.147 231.132 141.268 231.809 141.509 232.385C141.754 232.956 142.118 233.398 142.601 233.711C143.087 234.025 143.694 234.181 144.422 234.181C144.837 234.181 145.226 234.147 145.59 234.08C145.958 234.008 146.316 233.919 146.663 233.813V234.752C146.325 234.879 145.969 234.972 145.597 235.032C145.224 235.095 144.782 235.127 144.27 235.127C143.326 235.127 142.537 234.932 141.902 234.543C141.272 234.149 140.798 233.595 140.48 232.88C140.167 232.165 140.011 231.32 140.011 230.347C140.011 229.645 140.108 229.004 140.303 228.424C140.502 227.84 140.789 227.336 141.166 226.913C141.547 226.49 142.012 226.164 142.562 225.936C143.117 225.703 143.752 225.586 144.467 225.586C144.937 225.586 145.389 225.633 145.825 225.726C146.261 225.819 146.655 225.952 147.006 226.126L146.574 227.04C146.278 226.905 145.952 226.788 145.597 226.691C145.245 226.589 144.865 226.539 144.454 226.539ZM154.515 231.509C154.515 232.08 154.441 232.59 154.293 233.039C154.145 233.487 153.931 233.866 153.652 234.175C153.373 234.484 153.034 234.721 152.636 234.886C152.243 235.047 151.796 235.127 151.297 235.127C150.831 235.127 150.404 235.047 150.015 234.886C149.63 234.721 149.295 234.484 149.012 234.175C148.732 233.866 148.514 233.487 148.358 233.039C148.206 232.59 148.129 232.08 148.129 231.509C148.129 230.747 148.258 230.1 148.517 229.566C148.775 229.029 149.143 228.621 149.621 228.341C150.104 228.058 150.677 227.916 151.341 227.916C151.976 227.916 152.53 228.058 153.004 228.341C153.483 228.625 153.853 229.035 154.115 229.573C154.382 230.106 154.515 230.751 154.515 231.509ZM149.221 231.509C149.221 232.067 149.295 232.552 149.443 232.962C149.591 233.373 149.82 233.69 150.129 233.915C150.438 234.139 150.836 234.251 151.322 234.251C151.805 234.251 152.2 234.139 152.509 233.915C152.822 233.69 153.053 233.373 153.201 232.962C153.349 232.552 153.423 232.067 153.423 231.509C153.423 230.954 153.349 230.476 153.201 230.074C153.053 229.668 152.825 229.355 152.516 229.135C152.207 228.915 151.807 228.805 151.316 228.805C150.592 228.805 150.061 229.044 149.723 229.522C149.388 230 149.221 230.662 149.221 231.509ZM159.631 227.916C160.457 227.916 161.081 228.119 161.504 228.525C161.927 228.927 162.139 229.575 162.139 230.468V235H161.098V230.538C161.098 229.958 160.964 229.524 160.698 229.236C160.435 228.949 160.031 228.805 159.485 228.805C158.715 228.805 158.174 229.023 157.86 229.458C157.547 229.894 157.391 230.527 157.391 231.356V235H156.337V228.043H157.188L157.346 229.046H157.403C157.551 228.8 157.74 228.595 157.968 228.43C158.197 228.261 158.453 228.134 158.736 228.049C159.02 227.96 159.318 227.916 159.631 227.916ZM168.74 225.123V227.592C168.74 227.876 168.732 228.151 168.715 228.417C168.702 228.684 168.692 228.891 168.683 229.04H168.74C168.931 228.726 169.206 228.462 169.565 228.246C169.925 228.03 170.384 227.922 170.943 227.922C171.815 227.922 172.509 228.225 173.025 228.83C173.545 229.431 173.806 230.326 173.806 231.515C173.806 232.298 173.687 232.958 173.45 233.496C173.213 234.033 172.879 234.439 172.447 234.714C172.016 234.989 171.506 235.127 170.917 235.127C170.367 235.127 169.915 235.025 169.559 234.822C169.208 234.615 168.937 234.363 168.747 234.067H168.664L168.448 235H167.687V225.123H168.74ZM170.771 228.805C170.268 228.805 169.868 228.904 169.572 229.103C169.276 229.298 169.062 229.594 168.931 229.992C168.804 230.385 168.74 230.885 168.74 231.49V231.547C168.74 232.423 168.886 233.094 169.178 233.559C169.47 234.02 170.001 234.251 170.771 234.251C171.419 234.251 171.903 234.014 172.225 233.54C172.551 233.066 172.714 232.389 172.714 231.509C172.714 230.612 172.553 229.937 172.231 229.484C171.914 229.031 171.427 228.805 170.771 228.805ZM181.645 231.509C181.645 232.08 181.571 232.59 181.423 233.039C181.275 233.487 181.061 233.866 180.782 234.175C180.502 234.484 180.164 234.721 179.766 234.886C179.373 235.047 178.926 235.127 178.427 235.127C177.961 235.127 177.534 235.047 177.145 234.886C176.759 234.721 176.425 234.484 176.142 234.175C175.862 233.866 175.644 233.487 175.488 233.039C175.335 232.59 175.259 232.08 175.259 231.509C175.259 230.747 175.388 230.1 175.646 229.566C175.905 229.029 176.273 228.621 176.751 228.341C177.233 228.058 177.807 227.916 178.471 227.916C179.106 227.916 179.66 228.058 180.134 228.341C180.612 228.625 180.983 229.035 181.245 229.573C181.512 230.106 181.645 230.751 181.645 231.509ZM176.351 231.509C176.351 232.067 176.425 232.552 176.573 232.962C176.721 233.373 176.95 233.69 177.259 233.915C177.568 234.139 177.965 234.251 178.452 234.251C178.935 234.251 179.33 234.139 179.639 233.915C179.952 233.69 180.183 233.373 180.331 232.962C180.479 232.552 180.553 232.067 180.553 231.509C180.553 230.954 180.479 230.476 180.331 230.074C180.183 229.668 179.954 229.355 179.646 229.135C179.337 228.915 178.937 228.805 178.446 228.805C177.722 228.805 177.191 229.044 176.853 229.522C176.518 230 176.351 230.662 176.351 231.509ZM185.714 234.264C185.887 234.264 186.065 234.249 186.247 234.219C186.429 234.19 186.577 234.154 186.691 234.111V234.93C186.569 234.985 186.397 235.032 186.177 235.07C185.961 235.108 185.75 235.127 185.542 235.127C185.174 235.127 184.84 235.063 184.54 234.937C184.239 234.805 183.998 234.585 183.816 234.276C183.638 233.967 183.549 233.54 183.549 232.994V228.868H182.559V228.354L183.556 227.941L183.975 226.431H184.609V228.043H186.647V228.868H184.609V232.962C184.609 233.398 184.709 233.724 184.908 233.94C185.111 234.156 185.38 234.264 185.714 234.264ZM194.099 231.509C194.099 232.08 194.025 232.59 193.877 233.039C193.729 233.487 193.515 233.866 193.236 234.175C192.957 234.484 192.618 234.721 192.22 234.886C191.827 235.047 191.38 235.127 190.881 235.127C190.415 235.127 189.988 235.047 189.599 234.886C189.214 234.721 188.879 234.484 188.596 234.175C188.316 233.866 188.098 233.487 187.942 233.039C187.79 232.59 187.713 232.08 187.713 231.509C187.713 230.747 187.842 230.1 188.101 229.566C188.359 229.029 188.727 228.621 189.205 228.341C189.688 228.058 190.261 227.916 190.925 227.916C191.56 227.916 192.114 228.058 192.588 228.341C193.067 228.625 193.437 229.035 193.699 229.573C193.966 230.106 194.099 230.751 194.099 231.509ZM188.805 231.509C188.805 232.067 188.879 232.552 189.027 232.962C189.175 233.373 189.404 233.69 189.713 233.915C190.022 234.139 190.42 234.251 190.906 234.251C191.389 234.251 191.784 234.139 192.093 233.915C192.406 233.69 192.637 233.373 192.785 232.962C192.933 232.552 193.007 232.067 193.007 231.509C193.007 230.954 192.933 230.476 192.785 230.074C192.637 229.668 192.409 229.355 192.1 229.135C191.791 228.915 191.391 228.805 190.9 228.805C190.176 228.805 189.645 229.044 189.307 229.522C188.972 230 188.805 230.662 188.805 231.509ZM192.747 225.041V225.167C192.662 225.29 192.546 225.438 192.398 225.612C192.254 225.781 192.093 225.961 191.916 226.151C191.738 226.338 191.558 226.515 191.376 226.685C191.198 226.854 191.033 227 190.881 227.123H190.176V226.97C190.312 226.809 190.46 226.617 190.621 226.393C190.781 226.164 190.938 225.931 191.09 225.694C191.243 225.453 191.37 225.235 191.471 225.041H192.747ZM199.215 227.916C200.041 227.916 200.665 228.119 201.088 228.525C201.511 228.927 201.723 229.575 201.723 230.468V235H200.682V230.538C200.682 229.958 200.548 229.524 200.282 229.236C200.019 228.949 199.615 228.805 199.069 228.805C198.299 228.805 197.757 229.023 197.444 229.458C197.131 229.894 196.975 230.527 196.975 231.356V235H195.921V228.043H196.771L196.93 229.046H196.987C197.135 228.8 197.324 228.595 197.552 228.43C197.781 228.261 198.037 228.134 198.32 228.049C198.604 227.96 198.902 227.916 199.215 227.916Z" fill="#38485C"/>
<path d="M23.8169 251.439C23.8169 250.724 23.8846 250.028 24.02 249.351C24.1597 248.674 24.3713 248.028 24.6548 247.415C24.9383 246.801 25.2959 246.236 25.7275 245.72H26.7368C26.1232 246.524 25.6619 247.417 25.353 248.398C25.0441 249.38 24.8896 250.389 24.8896 251.426C24.8896 252.103 24.9574 252.772 25.0928 253.432C25.2324 254.088 25.4377 254.721 25.7085 255.33C25.9836 255.939 26.3221 256.515 26.7241 257.057H25.7275C25.2959 256.549 24.9383 255.994 24.6548 255.394C24.3713 254.797 24.1597 254.164 24.02 253.496C23.8846 252.827 23.8169 252.141 23.8169 251.439ZM32.7417 253.096C32.7417 253.54 32.6296 253.915 32.4053 254.219C32.1852 254.52 31.8678 254.746 31.4531 254.898C31.0426 255.051 30.5518 255.127 29.9805 255.127C29.4938 255.127 29.0728 255.089 28.7173 255.013C28.3618 254.937 28.0508 254.829 27.7842 254.689V253.718C28.0677 253.857 28.4062 253.984 28.7998 254.099C29.1934 254.213 29.5954 254.27 30.0059 254.27C30.6068 254.27 31.0426 254.173 31.3135 253.978C31.5843 253.783 31.7197 253.519 31.7197 253.185C31.7197 252.994 31.6647 252.827 31.5547 252.683C31.4489 252.535 31.269 252.393 31.0151 252.258C30.7612 252.118 30.41 251.966 29.9614 251.801C29.5171 251.632 29.132 251.464 28.8062 251.299C28.4845 251.13 28.2349 250.925 28.0571 250.684C27.8836 250.442 27.7969 250.129 27.7969 249.744C27.7969 249.156 28.0339 248.705 28.5078 248.392C28.986 248.075 29.6123 247.916 30.3867 247.916C30.8057 247.916 31.1971 247.958 31.561 248.043C31.9292 248.123 32.272 248.233 32.5894 248.373L32.2339 249.217C31.9461 249.095 31.6393 248.991 31.3135 248.906C30.9876 248.822 30.6554 248.779 30.3169 248.779C29.8302 248.779 29.4557 248.86 29.1934 249.021C28.9352 249.181 28.8062 249.401 28.8062 249.681C28.8062 249.896 28.8654 250.074 28.9839 250.214C29.1066 250.354 29.3013 250.485 29.5679 250.607C29.8345 250.73 30.1857 250.874 30.6216 251.039C31.0575 251.2 31.4341 251.367 31.7515 251.541C32.0688 251.71 32.3122 251.917 32.4814 252.163C32.6549 252.404 32.7417 252.715 32.7417 253.096ZM37.1152 247.916C37.7077 247.916 38.2155 248.047 38.6387 248.31C39.0618 248.572 39.3856 248.94 39.6099 249.414C39.8341 249.884 39.9463 250.434 39.9463 251.064V251.718H35.1411C35.1538 252.535 35.3569 253.157 35.7505 253.584C36.144 254.012 36.6984 254.226 37.4136 254.226C37.8537 254.226 38.243 254.185 38.5815 254.105C38.9201 254.025 39.2713 253.906 39.6353 253.75V254.676C39.284 254.833 38.9349 254.947 38.5879 255.019C38.2451 255.091 37.8389 255.127 37.3691 255.127C36.7005 255.127 36.1165 254.992 35.6172 254.721C35.1221 254.446 34.737 254.044 34.4619 253.515C34.1868 252.986 34.0493 252.338 34.0493 251.572C34.0493 250.823 34.1742 250.176 34.4238 249.63C34.6777 249.08 35.0332 248.657 35.4902 248.36C35.9515 248.064 36.4932 247.916 37.1152 247.916ZM37.1025 248.779C36.5397 248.779 36.0911 248.963 35.7568 249.332C35.4225 249.7 35.2236 250.214 35.1602 250.874H38.8418C38.8376 250.459 38.772 250.095 38.645 249.782C38.5223 249.465 38.334 249.219 38.0801 249.046C37.8262 248.868 37.5003 248.779 37.1025 248.779ZM50.8579 248.043V255H49.9946L49.8423 254.022H49.7852C49.6413 254.264 49.4551 254.467 49.2266 254.632C48.998 254.797 48.7399 254.92 48.4521 255C48.1686 255.085 47.866 255.127 47.5444 255.127C46.9943 255.127 46.533 255.038 46.1606 254.86C45.7882 254.683 45.5068 254.408 45.3164 254.035C45.1302 253.663 45.0371 253.185 45.0371 252.601V248.043H46.1035V252.524C46.1035 253.104 46.2347 253.538 46.4971 253.826C46.7594 254.109 47.1593 254.251 47.6968 254.251C48.2131 254.251 48.6235 254.154 48.9282 253.959C49.2371 253.764 49.4593 253.479 49.5947 253.102C49.7301 252.721 49.7979 252.256 49.7979 251.706V248.043H50.8579ZM55.333 254.264C55.5065 254.264 55.6842 254.249 55.8662 254.219C56.0482 254.19 56.1963 254.154 56.3105 254.111V254.93C56.1878 254.985 56.0164 255.032 55.7964 255.07C55.5806 255.108 55.369 255.127 55.1616 255.127C54.7935 255.127 54.4591 255.063 54.1587 254.937C53.8582 254.805 53.617 254.585 53.4351 254.276C53.2573 253.967 53.1685 253.54 53.1685 252.994V248.868H52.1782V248.354L53.1748 247.941L53.5938 246.431H54.2285V248.043H56.2661V248.868H54.2285V252.962C54.2285 253.398 54.328 253.724 54.5269 253.94C54.73 254.156 54.9987 254.264 55.333 254.264ZM58.7734 248.043V255H57.7197V248.043H58.7734ZM58.2593 245.44C58.4328 245.44 58.5809 245.498 58.7036 245.612C58.8306 245.722 58.894 245.895 58.894 246.132C58.894 246.365 58.8306 246.539 58.7036 246.653C58.5809 246.767 58.4328 246.824 58.2593 246.824C58.0773 246.824 57.925 246.767 57.8022 246.653C57.6838 246.539 57.6245 246.365 57.6245 246.132C57.6245 245.895 57.6838 245.722 57.8022 245.612C57.925 245.498 58.0773 245.44 58.2593 245.44ZM62.0679 255H61.0078V245.123H62.0679V255ZM65.3496 248.043V255H64.2959V248.043H65.3496ZM64.8354 245.44C65.009 245.44 65.1571 245.498 65.2798 245.612C65.4067 245.722 65.4702 245.895 65.4702 246.132C65.4702 246.365 65.4067 246.539 65.2798 246.653C65.1571 246.767 65.009 246.824 64.8354 246.824C64.6535 246.824 64.5011 246.767 64.3784 246.653C64.2599 246.539 64.2007 246.365 64.2007 246.132C64.2007 245.895 64.2599 245.722 64.3784 245.612C64.5011 245.498 64.6535 245.44 64.8354 245.44ZM72.0527 255H66.981V254.302L70.7959 248.868H67.2222V248.043H71.9702V248.824L68.2061 254.181H72.0527V255ZM76.2803 247.929C77.1097 247.929 77.7254 248.115 78.1274 248.487C78.5295 248.86 78.7305 249.454 78.7305 250.271V255H77.9624L77.7593 253.972H77.7085C77.5138 254.226 77.3107 254.439 77.0991 254.613C76.8875 254.782 76.6421 254.911 76.3628 255C76.0877 255.085 75.7492 255.127 75.3472 255.127C74.924 255.127 74.5474 255.053 74.2173 254.905C73.8914 254.757 73.6333 254.532 73.4429 254.232C73.2567 253.931 73.1636 253.551 73.1636 253.089C73.1636 252.395 73.4386 251.862 73.9888 251.49C74.5389 251.117 75.3768 250.914 76.5024 250.88L77.7021 250.83V250.404C77.7021 249.803 77.5731 249.382 77.3149 249.141C77.0568 248.9 76.6929 248.779 76.2231 248.779C75.8592 248.779 75.5122 248.832 75.1821 248.938C74.8521 249.044 74.5389 249.169 74.2427 249.312L73.9189 248.513C74.2321 248.352 74.5918 248.214 74.998 248.1C75.4043 247.986 75.8317 247.929 76.2803 247.929ZM77.6895 251.572L76.6294 251.617C75.7619 251.651 75.1504 251.792 74.7949 252.042C74.4395 252.292 74.2617 252.645 74.2617 253.102C74.2617 253.5 74.3823 253.794 74.6235 253.984C74.8647 254.175 75.1842 254.27 75.582 254.27C76.1999 254.27 76.7056 254.099 77.0991 253.756C77.4927 253.413 77.6895 252.899 77.6895 252.213V251.572ZM86.957 247.916C87.5495 247.916 88.0573 248.047 88.4805 248.31C88.9036 248.572 89.2274 248.94 89.4517 249.414C89.6759 249.884 89.7881 250.434 89.7881 251.064V251.718H84.9829C84.9956 252.535 85.1987 253.157 85.5923 253.584C85.9858 254.012 86.5402 254.226 87.2554 254.226C87.6955 254.226 88.0848 254.185 88.4233 254.105C88.7619 254.025 89.1131 253.906 89.4771 253.75V254.676C89.1258 254.833 88.7767 254.947 88.4297 255.019C88.0869 255.091 87.6807 255.127 87.2109 255.127C86.5423 255.127 85.9583 254.992 85.459 254.721C84.9639 254.446 84.5788 254.044 84.3037 253.515C84.0286 252.986 83.8911 252.338 83.8911 251.572C83.8911 250.823 84.016 250.176 84.2656 249.63C84.5195 249.08 84.875 248.657 85.332 248.36C85.7933 248.064 86.335 247.916 86.957 247.916ZM86.9443 248.779C86.3815 248.779 85.9329 248.963 85.5986 249.332C85.2643 249.7 85.0654 250.214 85.002 250.874H88.6836C88.6794 250.459 88.6138 250.095 88.4868 249.782C88.3641 249.465 88.1758 249.219 87.9219 249.046C87.668 248.868 87.3421 248.779 86.9443 248.779ZM92.6382 255H91.5781V245.123H92.6382V255ZM99.2969 245.123V247.592C99.2969 247.876 99.2884 248.151 99.2715 248.417C99.2588 248.684 99.2482 248.891 99.2397 249.04H99.2969C99.4873 248.726 99.7624 248.462 100.122 248.246C100.482 248.03 100.941 247.922 101.5 247.922C102.371 247.922 103.065 248.225 103.582 248.83C104.102 249.431 104.362 250.326 104.362 251.515C104.362 252.298 104.244 252.958 104.007 253.496C103.77 254.033 103.436 254.439 103.004 254.714C102.572 254.989 102.062 255.127 101.474 255.127C100.924 255.127 100.471 255.025 100.116 254.822C99.7645 254.615 99.4937 254.363 99.3032 254.067H99.2207L99.0049 255H98.2432V245.123H99.2969ZM101.328 248.805C100.825 248.805 100.425 248.904 100.128 249.103C99.8322 249.298 99.6185 249.594 99.4873 249.992C99.3604 250.385 99.2969 250.885 99.2969 251.49V251.547C99.2969 252.423 99.4429 253.094 99.7349 253.559C100.027 254.02 100.558 254.251 101.328 254.251C101.976 254.251 102.46 254.014 102.782 253.54C103.108 253.066 103.271 252.389 103.271 251.509C103.271 250.612 103.11 249.937 102.788 249.484C102.471 249.031 101.984 248.805 101.328 248.805ZM112.202 251.509C112.202 252.08 112.128 252.59 111.979 253.039C111.831 253.487 111.618 253.866 111.338 254.175C111.059 254.484 110.721 254.721 110.323 254.886C109.929 255.047 109.483 255.127 108.983 255.127C108.518 255.127 108.09 255.047 107.701 254.886C107.316 254.721 106.982 254.484 106.698 254.175C106.419 253.866 106.201 253.487 106.044 253.039C105.892 252.59 105.816 252.08 105.816 251.509C105.816 250.747 105.945 250.1 106.203 249.566C106.461 249.029 106.829 248.621 107.308 248.341C107.79 248.058 108.363 247.916 109.028 247.916C109.663 247.916 110.217 248.058 110.691 248.341C111.169 248.625 111.539 249.035 111.802 249.573C112.068 250.106 112.202 250.751 112.202 251.509ZM106.908 251.509C106.908 252.067 106.982 252.552 107.13 252.962C107.278 253.373 107.507 253.69 107.815 253.915C108.124 254.139 108.522 254.251 109.009 254.251C109.491 254.251 109.887 254.139 110.196 253.915C110.509 253.69 110.74 253.373 110.888 252.962C111.036 252.552 111.11 252.067 111.11 251.509C111.11 250.954 111.036 250.476 110.888 250.074C110.74 249.668 110.511 249.355 110.202 249.135C109.893 248.915 109.493 248.805 109.002 248.805C108.279 248.805 107.748 249.044 107.409 249.522C107.075 250 106.908 250.662 106.908 251.509ZM116.271 254.264C116.444 254.264 116.622 254.249 116.804 254.219C116.986 254.19 117.134 254.154 117.248 254.111V254.93C117.125 254.985 116.954 255.032 116.734 255.07C116.518 255.108 116.306 255.127 116.099 255.127C115.731 255.127 115.397 255.063 115.096 254.937C114.796 254.805 114.555 254.585 114.373 254.276C114.195 253.967 114.106 253.54 114.106 252.994V248.868H113.116V248.354L114.112 247.941L114.531 246.431H115.166V248.043H117.204V248.868H115.166V252.962C115.166 253.398 115.265 253.724 115.464 253.94C115.667 254.156 115.936 254.264 116.271 254.264ZM124.656 251.509C124.656 252.08 124.582 252.59 124.434 253.039C124.285 253.487 124.072 253.866 123.792 254.175C123.513 254.484 123.175 254.721 122.777 254.886C122.383 255.047 121.937 255.127 121.438 255.127C120.972 255.127 120.545 255.047 120.155 254.886C119.77 254.721 119.436 254.484 119.152 254.175C118.873 253.866 118.655 253.487 118.499 253.039C118.346 252.59 118.27 252.08 118.27 251.509C118.27 250.747 118.399 250.1 118.657 249.566C118.915 249.029 119.284 248.621 119.762 248.341C120.244 248.058 120.818 247.916 121.482 247.916C122.117 247.916 122.671 248.058 123.145 248.341C123.623 248.625 123.993 249.035 124.256 249.573C124.522 250.106 124.656 250.751 124.656 251.509ZM119.362 251.509C119.362 252.067 119.436 252.552 119.584 252.962C119.732 253.373 119.961 253.69 120.27 253.915C120.578 254.139 120.976 254.251 121.463 254.251C121.945 254.251 122.341 254.139 122.65 253.915C122.963 253.69 123.194 253.373 123.342 252.962C123.49 252.552 123.564 252.067 123.564 251.509C123.564 250.954 123.49 250.476 123.342 250.074C123.194 249.668 122.965 249.355 122.656 249.135C122.347 248.915 121.947 248.805 121.457 248.805C120.733 248.805 120.202 249.044 119.863 249.522C119.529 250 119.362 250.662 119.362 251.509ZM123.304 245.041V245.167C123.219 245.29 123.103 245.438 122.955 245.612C122.811 245.781 122.65 245.961 122.472 246.151C122.294 246.338 122.115 246.515 121.933 246.685C121.755 246.854 121.59 247 121.438 247.123H120.733V246.97C120.868 246.809 121.016 246.617 121.177 246.393C121.338 246.164 121.495 245.931 121.647 245.694C121.799 245.453 121.926 245.235 122.028 245.041H123.304ZM129.772 247.916C130.597 247.916 131.221 248.119 131.645 248.525C132.068 248.927 132.279 249.575 132.279 250.468V255H131.238V250.538C131.238 249.958 131.105 249.524 130.838 249.236C130.576 248.949 130.172 248.805 129.626 248.805C128.856 248.805 128.314 249.023 128.001 249.458C127.688 249.894 127.531 250.527 127.531 251.356V255H126.478V248.043H127.328L127.487 249.046H127.544C127.692 248.8 127.88 248.595 128.109 248.43C128.337 248.261 128.593 248.134 128.877 248.049C129.16 247.96 129.459 247.916 129.772 247.916ZM141.096 247.916C141.964 247.916 142.656 248.214 143.172 248.811C143.688 249.408 143.946 250.305 143.946 251.502C143.946 252.294 143.828 252.958 143.591 253.496C143.354 254.033 143.02 254.439 142.588 254.714C142.16 254.989 141.655 255.127 141.071 255.127C140.703 255.127 140.379 255.078 140.1 254.981C139.82 254.884 139.581 254.752 139.382 254.587C139.183 254.422 139.018 254.243 138.887 254.048H138.811C138.824 254.213 138.839 254.412 138.855 254.645C138.877 254.877 138.887 255.08 138.887 255.254V258.11H137.827V248.043H138.697L138.836 249.071H138.887C139.023 248.86 139.188 248.667 139.382 248.494C139.577 248.316 139.814 248.176 140.093 248.075C140.377 247.969 140.711 247.916 141.096 247.916ZM140.912 248.805C140.43 248.805 140.04 248.898 139.744 249.084C139.452 249.27 139.238 249.549 139.103 249.922C138.968 250.29 138.896 250.753 138.887 251.312V251.515C138.887 252.103 138.951 252.601 139.078 253.007C139.209 253.413 139.423 253.722 139.719 253.934C140.019 254.145 140.421 254.251 140.925 254.251C141.356 254.251 141.716 254.135 142.004 253.902C142.292 253.669 142.505 253.345 142.645 252.931C142.789 252.512 142.861 252.031 142.861 251.49C142.861 250.669 142.7 250.017 142.378 249.535C142.061 249.048 141.572 248.805 140.912 248.805ZM148.948 247.916C149.088 247.916 149.234 247.924 149.386 247.941C149.539 247.954 149.674 247.973 149.792 247.999L149.659 248.976C149.545 248.946 149.418 248.923 149.278 248.906C149.139 248.889 149.007 248.881 148.885 248.881C148.605 248.881 148.341 248.938 148.091 249.052C147.846 249.162 147.63 249.323 147.444 249.535C147.258 249.742 147.112 249.994 147.006 250.29C146.9 250.582 146.847 250.908 146.847 251.268V255H145.787V248.043H146.663L146.777 249.325H146.822C146.966 249.067 147.139 248.832 147.342 248.621C147.545 248.405 147.78 248.233 148.047 248.106C148.318 247.979 148.618 247.916 148.948 247.916ZM152.16 248.043V255H151.106V248.043H152.16ZM151.646 245.44C151.819 245.44 151.968 245.498 152.09 245.612C152.217 245.722 152.281 245.895 152.281 246.132C152.281 246.365 152.217 246.539 152.09 246.653C151.968 246.767 151.819 246.824 151.646 246.824C151.464 246.824 151.312 246.767 151.189 246.653C151.07 246.539 151.011 246.365 151.011 246.132C151.011 245.895 151.07 245.722 151.189 245.612C151.312 245.498 151.464 245.44 151.646 245.44ZM161.948 247.916C162.714 247.916 163.292 248.117 163.681 248.519C164.07 248.917 164.265 249.558 164.265 250.442V255H163.224V250.493C163.224 249.93 163.101 249.509 162.856 249.23C162.615 248.946 162.255 248.805 161.777 248.805C161.104 248.805 160.615 248.999 160.311 249.389C160.006 249.778 159.854 250.351 159.854 251.109V255H158.806V250.493C158.806 250.117 158.751 249.803 158.641 249.554C158.535 249.304 158.375 249.118 158.159 248.995C157.947 248.868 157.678 248.805 157.353 248.805C156.891 248.805 156.521 248.9 156.242 249.09C155.962 249.281 155.759 249.564 155.632 249.941C155.51 250.313 155.448 250.772 155.448 251.318V255H154.395V248.043H155.245L155.404 249.027H155.461C155.601 248.786 155.776 248.583 155.988 248.417C156.199 248.252 156.436 248.128 156.699 248.043C156.961 247.958 157.24 247.916 157.537 247.916C158.066 247.916 158.508 248.015 158.863 248.214C159.223 248.409 159.483 248.707 159.644 249.109H159.701C159.93 248.707 160.243 248.409 160.641 248.214C161.038 248.015 161.474 247.916 161.948 247.916ZM169.032 247.929C169.862 247.929 170.477 248.115 170.879 248.487C171.281 248.86 171.482 249.454 171.482 250.271V255H170.714L170.511 253.972H170.46C170.266 254.226 170.063 254.439 169.851 254.613C169.639 254.782 169.394 254.911 169.115 255C168.84 255.085 168.501 255.127 168.099 255.127C167.676 255.127 167.299 255.053 166.969 254.905C166.643 254.757 166.385 254.532 166.195 254.232C166.009 253.931 165.916 253.551 165.916 253.089C165.916 252.395 166.191 251.862 166.741 251.49C167.291 251.117 168.129 250.914 169.254 250.88L170.454 250.83V250.404C170.454 249.803 170.325 249.382 170.067 249.141C169.809 248.9 169.445 248.779 168.975 248.779C168.611 248.779 168.264 248.832 167.934 248.938C167.604 249.044 167.291 249.169 166.995 249.312L166.671 248.513C166.984 248.352 167.344 248.214 167.75 248.1C168.156 247.986 168.584 247.929 169.032 247.929ZM170.441 251.572L169.381 251.617C168.514 251.651 167.902 251.792 167.547 252.042C167.191 252.292 167.014 252.645 167.014 253.102C167.014 253.5 167.134 253.794 167.375 253.984C167.617 254.175 167.936 254.27 168.334 254.27C168.952 254.27 169.458 254.099 169.851 253.756C170.245 253.413 170.441 252.899 170.441 252.213V251.572ZM176.814 247.916C176.954 247.916 177.1 247.924 177.252 247.941C177.405 247.954 177.54 247.973 177.659 247.999L177.525 248.976C177.411 248.946 177.284 248.923 177.145 248.906C177.005 248.889 176.874 248.881 176.751 248.881C176.472 248.881 176.207 248.938 175.958 249.052C175.712 249.162 175.496 249.323 175.31 249.535C175.124 249.742 174.978 249.994 174.872 250.29C174.766 250.582 174.713 250.908 174.713 251.268V255H173.653V248.043H174.529L174.644 249.325H174.688C174.832 249.067 175.005 248.832 175.208 248.621C175.412 248.405 175.646 248.233 175.913 248.106C176.184 247.979 176.484 247.916 176.814 247.916ZM180.026 248.043V255H178.973V248.043H180.026ZM179.512 245.44C179.686 245.44 179.834 245.498 179.957 245.612C180.083 245.722 180.147 245.895 180.147 246.132C180.147 246.365 180.083 246.539 179.957 246.653C179.834 246.767 179.686 246.824 179.512 246.824C179.33 246.824 179.178 246.767 179.055 246.653C178.937 246.539 178.877 246.365 178.877 246.132C178.877 245.895 178.937 245.722 179.055 245.612C179.178 245.498 179.33 245.44 179.512 245.44ZM188.259 251.509C188.259 252.08 188.185 252.59 188.037 253.039C187.889 253.487 187.675 253.866 187.396 254.175C187.117 254.484 186.778 254.721 186.38 254.886C185.987 255.047 185.54 255.127 185.041 255.127C184.576 255.127 184.148 255.047 183.759 254.886C183.374 254.721 183.039 254.484 182.756 254.175C182.477 253.866 182.259 253.487 182.102 253.039C181.95 252.59 181.874 252.08 181.874 251.509C181.874 250.747 182.003 250.1 182.261 249.566C182.519 249.029 182.887 248.621 183.365 248.341C183.848 248.058 184.421 247.916 185.085 247.916C185.72 247.916 186.275 248.058 186.749 248.341C187.227 248.625 187.597 249.035 187.859 249.573C188.126 250.106 188.259 250.751 188.259 251.509ZM182.965 251.509C182.965 252.067 183.039 252.552 183.188 252.962C183.336 253.373 183.564 253.69 183.873 253.915C184.182 254.139 184.58 254.251 185.066 254.251C185.549 254.251 185.944 254.139 186.253 253.915C186.567 253.69 186.797 253.373 186.945 252.962C187.093 252.552 187.167 252.067 187.167 251.509C187.167 250.954 187.093 250.476 186.945 250.074C186.797 249.668 186.569 249.355 186.26 249.135C185.951 248.915 185.551 248.805 185.06 248.805C184.336 248.805 183.805 249.044 183.467 249.522C183.132 250 182.965 250.662 182.965 251.509ZM195.934 255.127C195.053 255.127 194.355 254.826 193.839 254.226C193.327 253.625 193.071 252.732 193.071 251.547C193.071 250.349 193.333 249.446 193.858 248.836C194.383 248.223 195.081 247.916 195.953 247.916C196.321 247.916 196.642 247.965 196.917 248.062C197.193 248.159 197.43 248.291 197.628 248.456C197.827 248.616 197.994 248.8 198.13 249.008H198.206C198.189 248.877 198.172 248.697 198.155 248.468C198.138 248.24 198.13 248.054 198.13 247.91V245.123H199.184V255H198.333L198.174 254.01H198.13C197.999 254.217 197.832 254.405 197.628 254.575C197.43 254.744 197.19 254.879 196.911 254.981C196.636 255.078 196.31 255.127 195.934 255.127ZM196.099 254.251C196.843 254.251 197.37 254.039 197.679 253.616C197.988 253.193 198.143 252.565 198.143 251.731V251.541C198.143 250.656 197.994 249.977 197.698 249.503C197.406 249.029 196.873 248.792 196.099 248.792C195.451 248.792 194.967 249.042 194.645 249.541C194.323 250.036 194.163 250.713 194.163 251.572C194.163 252.427 194.321 253.087 194.639 253.553C194.96 254.018 195.447 254.251 196.099 254.251ZM204.097 247.916C204.689 247.916 205.197 248.047 205.62 248.31C206.043 248.572 206.367 248.94 206.591 249.414C206.816 249.884 206.928 250.434 206.928 251.064V251.718H202.123C202.135 252.535 202.338 253.157 202.732 253.584C203.125 254.012 203.68 254.226 204.395 254.226C204.835 254.226 205.224 254.185 205.563 254.105C205.902 254.025 206.253 253.906 206.617 253.75V254.676C206.265 254.833 205.916 254.947 205.569 255.019C205.227 255.091 204.82 255.127 204.351 255.127C203.682 255.127 203.098 254.992 202.599 254.721C202.104 254.446 201.718 254.044 201.443 253.515C201.168 252.986 201.031 252.338 201.031 251.572C201.031 250.823 201.156 250.176 201.405 249.63C201.659 249.08 202.015 248.657 202.472 248.36C202.933 248.064 203.475 247.916 204.097 247.916ZM204.084 248.779C203.521 248.779 203.073 248.963 202.738 249.332C202.404 249.7 202.205 250.214 202.142 250.874H205.823C205.819 250.459 205.753 250.095 205.626 249.782C205.504 249.465 205.315 249.219 205.062 249.046C204.808 248.868 204.482 248.779 204.084 248.779ZM214.342 254.264C214.515 254.264 214.693 254.249 214.875 254.219C215.057 254.19 215.205 254.154 215.319 254.111V254.93C215.197 254.985 215.025 255.032 214.805 255.07C214.589 255.108 214.378 255.127 214.17 255.127C213.802 255.127 213.468 255.063 213.167 254.937C212.867 254.805 212.626 254.585 212.444 254.276C212.266 253.967 212.177 253.54 212.177 252.994V248.868H211.187V248.354L212.184 247.941L212.603 246.431H213.237V248.043H215.275V248.868H213.237V252.962C213.237 253.398 213.337 253.724 213.536 253.94C213.739 254.156 214.007 254.264 214.342 254.264ZM219.331 247.929C220.16 247.929 220.776 248.115 221.178 248.487C221.58 248.86 221.781 249.454 221.781 250.271V255H221.013L220.81 253.972H220.759C220.565 254.226 220.361 254.439 220.15 254.613C219.938 254.782 219.693 254.911 219.414 255C219.139 255.085 218.8 255.127 218.398 255.127C217.975 255.127 217.598 255.053 217.268 254.905C216.942 254.757 216.684 254.532 216.494 254.232C216.307 253.931 216.214 253.551 216.214 253.089C216.214 252.395 216.489 251.862 217.04 251.49C217.59 251.117 218.428 250.914 219.553 250.88L220.753 250.83V250.404C220.753 249.803 220.624 249.382 220.366 249.141C220.108 248.9 219.744 248.779 219.274 248.779C218.91 248.779 218.563 248.832 218.233 248.938C217.903 249.044 217.59 249.169 217.293 249.312L216.97 248.513C217.283 248.352 217.643 248.214 218.049 248.1C218.455 247.986 218.882 247.929 219.331 247.929ZM220.74 251.572L219.68 251.617C218.813 251.651 218.201 251.792 217.846 252.042C217.49 252.292 217.312 252.645 217.312 253.102C217.312 253.5 217.433 253.794 217.674 253.984C217.916 254.175 218.235 254.27 218.633 254.27C219.251 254.27 219.756 254.099 220.15 253.756C220.543 253.413 220.74 252.899 220.74 252.213V251.572ZM231.506 247.916C232.272 247.916 232.849 248.117 233.239 248.519C233.628 248.917 233.823 249.558 233.823 250.442V255H232.782V250.493C232.782 249.93 232.659 249.509 232.414 249.23C232.172 248.946 231.813 248.805 231.334 248.805C230.662 248.805 230.173 248.999 229.868 249.389C229.563 249.778 229.411 250.351 229.411 251.109V255H228.364V250.493C228.364 250.117 228.309 249.803 228.199 249.554C228.093 249.304 227.932 249.118 227.716 248.995C227.505 248.868 227.236 248.805 226.91 248.805C226.449 248.805 226.079 248.9 225.799 249.09C225.52 249.281 225.317 249.564 225.19 249.941C225.067 250.313 225.006 250.772 225.006 251.318V255H223.952V248.043H224.803L224.961 249.027H225.019C225.158 248.786 225.334 248.583 225.545 248.417C225.757 248.252 225.994 248.128 226.256 248.043C226.519 247.958 226.798 247.916 227.094 247.916C227.623 247.916 228.065 248.015 228.421 248.214C228.781 248.409 229.041 248.707 229.202 249.109H229.259C229.487 248.707 229.8 248.409 230.198 248.214C230.596 248.015 231.032 247.916 231.506 247.916ZM238.59 247.929C239.419 247.929 240.035 248.115 240.437 248.487C240.839 248.86 241.04 249.454 241.04 250.271V255H240.272L240.069 253.972H240.018C239.823 254.226 239.62 254.439 239.409 254.613C239.197 254.782 238.952 254.911 238.672 255C238.397 255.085 238.059 255.127 237.657 255.127C237.234 255.127 236.857 255.053 236.527 254.905C236.201 254.757 235.943 254.532 235.752 254.232C235.566 253.931 235.473 253.551 235.473 253.089C235.473 252.395 235.748 251.862 236.298 251.49C236.848 251.117 237.686 250.914 238.812 250.88L240.012 250.83V250.404C240.012 249.803 239.883 249.382 239.625 249.141C239.366 248.9 239.002 248.779 238.533 248.779C238.169 248.779 237.822 248.832 237.492 248.938C237.162 249.044 236.848 249.169 236.552 249.312L236.229 248.513C236.542 248.352 236.901 248.214 237.308 248.1C237.714 247.986 238.141 247.929 238.59 247.929ZM239.999 251.572L238.939 251.617C238.071 251.651 237.46 251.792 237.104 252.042C236.749 252.292 236.571 252.645 236.571 253.102C236.571 253.5 236.692 253.794 236.933 253.984C237.174 254.175 237.494 254.27 237.892 254.27C238.509 254.27 239.015 254.099 239.409 253.756C239.802 253.413 239.999 252.899 239.999 252.213V251.572ZM246.505 247.916C247.331 247.916 247.955 248.119 248.378 248.525C248.801 248.927 249.013 249.575 249.013 250.468V255H247.972V250.538C247.972 249.958 247.838 249.524 247.572 249.236C247.309 248.949 246.905 248.805 246.359 248.805C245.589 248.805 245.048 249.023 244.734 249.458C244.421 249.894 244.265 250.527 244.265 251.356V255H243.211V248.043H244.062L244.22 249.046H244.277C244.425 248.8 244.614 248.595 244.842 248.43C245.071 248.261 245.327 248.134 245.61 248.049C245.894 247.96 246.192 247.916 246.505 247.916ZM243.712 247.104C243.738 246.85 243.786 246.623 243.858 246.424C243.93 246.225 244.026 246.056 244.144 245.917C244.263 245.777 244.402 245.671 244.563 245.599C244.728 245.523 244.91 245.485 245.109 245.485C245.304 245.485 245.49 245.525 245.667 245.605C245.845 245.682 246.014 245.771 246.175 245.872C246.336 245.969 246.491 246.058 246.639 246.139C246.791 246.215 246.937 246.253 247.077 246.253C247.28 246.253 247.436 246.192 247.546 246.069C247.661 245.942 247.747 245.743 247.807 245.472H248.429C248.374 245.967 248.228 246.363 247.991 246.659C247.754 246.951 247.434 247.097 247.032 247.097C246.846 247.097 246.666 247.059 246.493 246.983C246.319 246.903 246.152 246.814 245.991 246.716C245.83 246.615 245.672 246.526 245.515 246.45C245.363 246.369 245.213 246.329 245.064 246.329C244.857 246.329 244.698 246.393 244.588 246.52C244.478 246.642 244.394 246.837 244.334 247.104H243.712ZM257.182 251.509C257.182 252.08 257.108 252.59 256.96 253.039C256.812 253.487 256.598 253.866 256.319 254.175C256.04 254.484 255.701 254.721 255.303 254.886C254.91 255.047 254.463 255.127 253.964 255.127C253.498 255.127 253.071 255.047 252.682 254.886C252.297 254.721 251.962 254.484 251.679 254.175C251.399 253.866 251.181 253.487 251.025 253.039C250.873 252.59 250.796 252.08 250.796 251.509C250.796 250.747 250.925 250.1 251.184 249.566C251.442 249.029 251.81 248.621 252.288 248.341C252.771 248.058 253.344 247.916 254.008 247.916C254.643 247.916 255.197 248.058 255.671 248.341C256.15 248.625 256.52 249.035 256.782 249.573C257.049 250.106 257.182 250.751 257.182 251.509ZM251.888 251.509C251.888 252.067 251.962 252.552 252.11 252.962C252.258 253.373 252.487 253.69 252.796 253.915C253.105 254.139 253.503 254.251 253.989 254.251C254.472 254.251 254.867 254.139 255.176 253.915C255.489 253.69 255.72 253.373 255.868 252.962C256.016 252.552 256.09 252.067 256.09 251.509C256.09 250.954 256.016 250.476 255.868 250.074C255.72 249.668 255.492 249.355 255.183 249.135C254.874 248.915 254.474 248.805 253.983 248.805C253.259 248.805 252.728 249.044 252.39 249.522C252.055 250 251.888 250.662 251.888 251.509ZM269.935 247.916C270.701 247.916 271.278 248.117 271.667 248.519C272.057 248.917 272.251 249.558 272.251 250.442V255H271.21V250.493C271.21 249.93 271.088 249.509 270.842 249.23C270.601 248.946 270.241 248.805 269.763 248.805C269.09 248.805 268.602 248.999 268.297 249.389C267.992 249.778 267.84 250.351 267.84 251.109V255H266.792V250.493C266.792 250.117 266.737 249.803 266.627 249.554C266.522 249.304 266.361 249.118 266.145 248.995C265.933 248.868 265.665 248.805 265.339 248.805C264.878 248.805 264.507 248.9 264.228 249.09C263.949 249.281 263.746 249.564 263.619 249.941C263.496 250.313 263.435 250.772 263.435 251.318V255H262.381V248.043H263.231L263.39 249.027H263.447C263.587 248.786 263.763 248.583 263.974 248.417C264.186 248.252 264.423 248.128 264.685 248.043C264.947 247.958 265.227 247.916 265.523 247.916C266.052 247.916 266.494 248.015 266.85 248.214C267.209 248.409 267.47 248.707 267.63 249.109H267.688C267.916 248.707 268.229 248.409 268.627 248.214C269.025 248.015 269.461 247.916 269.935 247.916ZM277.095 247.916C277.687 247.916 278.195 248.047 278.618 248.31C279.041 248.572 279.365 248.94 279.589 249.414C279.814 249.884 279.926 250.434 279.926 251.064V251.718H275.121C275.133 252.535 275.336 253.157 275.73 253.584C276.124 254.012 276.678 254.226 277.393 254.226C277.833 254.226 278.222 254.185 278.561 254.105C278.9 254.025 279.251 253.906 279.615 253.75V254.676C279.264 254.833 278.914 254.947 278.567 255.019C278.225 255.091 277.818 255.127 277.349 255.127C276.68 255.127 276.096 254.992 275.597 254.721C275.102 254.446 274.716 254.044 274.441 253.515C274.166 252.986 274.029 252.338 274.029 251.572C274.029 250.823 274.154 250.176 274.403 249.63C274.657 249.08 275.013 248.657 275.47 248.36C275.931 248.064 276.473 247.916 277.095 247.916ZM277.082 248.779C276.519 248.779 276.071 248.963 275.736 249.332C275.402 249.7 275.203 250.214 275.14 250.874H278.821C278.817 250.459 278.751 250.095 278.625 249.782C278.502 249.465 278.313 249.219 278.06 249.046C277.806 248.868 277.48 248.779 277.082 248.779ZM284.191 255.127C283.311 255.127 282.613 254.826 282.097 254.226C281.585 253.625 281.329 252.732 281.329 251.547C281.329 250.349 281.591 249.446 282.116 248.836C282.64 248.223 283.339 247.916 284.21 247.916C284.579 247.916 284.9 247.965 285.175 248.062C285.45 248.159 285.687 248.291 285.886 248.456C286.085 248.616 286.252 248.8 286.388 249.008H286.464C286.447 248.877 286.43 248.697 286.413 248.468C286.396 248.24 286.388 248.054 286.388 247.91V245.123H287.441V255H286.591L286.432 254.01H286.388C286.257 254.217 286.089 254.405 285.886 254.575C285.687 254.744 285.448 254.879 285.169 254.981C284.894 255.078 284.568 255.127 284.191 255.127ZM284.356 254.251C285.101 254.251 285.628 254.039 285.937 253.616C286.246 253.193 286.4 252.565 286.4 251.731V251.541C286.4 250.656 286.252 249.977 285.956 249.503C285.664 249.029 285.131 248.792 284.356 248.792C283.709 248.792 283.224 249.042 282.903 249.541C282.581 250.036 282.42 250.713 282.42 251.572C282.42 252.427 282.579 253.087 282.896 253.553C283.218 254.018 283.705 254.251 284.356 254.251ZM290.729 248.043V255H289.676V248.043H290.729ZM290.215 245.44C290.389 245.44 290.537 245.498 290.66 245.612C290.787 245.722 290.85 245.895 290.85 246.132C290.85 246.365 290.787 246.539 290.66 246.653C290.537 246.767 290.389 246.824 290.215 246.824C290.033 246.824 289.881 246.767 289.758 246.653C289.64 246.539 289.581 246.365 289.581 246.132C289.581 245.895 289.64 245.722 289.758 245.612C289.881 245.498 290.033 245.44 290.215 245.44ZM295.566 247.929C296.396 247.929 297.012 248.115 297.414 248.487C297.816 248.86 298.017 249.454 298.017 250.271V255H297.249L297.045 253.972H296.995C296.8 254.226 296.597 254.439 296.385 254.613C296.174 254.782 295.928 254.911 295.649 255C295.374 255.085 295.035 255.127 294.633 255.127C294.21 255.127 293.833 255.053 293.503 254.905C293.178 254.757 292.919 254.532 292.729 254.232C292.543 253.931 292.45 253.551 292.45 253.089C292.45 252.395 292.725 251.862 293.275 251.49C293.825 251.117 294.663 250.914 295.789 250.88L296.988 250.83V250.404C296.988 249.803 296.859 249.382 296.601 249.141C296.343 248.9 295.979 248.779 295.509 248.779C295.145 248.779 294.798 248.832 294.468 248.938C294.138 249.044 293.825 249.169 293.529 249.312L293.205 248.513C293.518 248.352 293.878 248.214 294.284 248.1C294.69 247.986 295.118 247.929 295.566 247.929ZM296.976 251.572L295.916 251.617C295.048 251.651 294.437 251.792 294.081 252.042C293.726 252.292 293.548 252.645 293.548 253.102C293.548 253.5 293.668 253.794 293.91 253.984C294.151 254.175 294.47 254.27 294.868 254.27C295.486 254.27 295.992 254.099 296.385 253.756C296.779 253.413 296.976 252.899 296.976 252.213V251.572ZM303.482 247.916C304.307 247.916 304.931 248.119 305.354 248.525C305.778 248.927 305.989 249.575 305.989 250.468V255H304.948V250.538C304.948 249.958 304.815 249.524 304.548 249.236C304.286 248.949 303.882 248.805 303.336 248.805C302.566 248.805 302.024 249.023 301.711 249.458C301.398 249.894 301.241 250.527 301.241 251.356V255H300.188V248.043H301.038L301.197 249.046H301.254C301.402 248.8 301.59 248.595 301.819 248.43C302.047 248.261 302.303 248.134 302.587 248.049C302.87 247.96 303.169 247.916 303.482 247.916ZM314.159 251.509C314.159 252.08 314.085 252.59 313.937 253.039C313.788 253.487 313.575 253.866 313.295 254.175C313.016 254.484 312.678 254.721 312.28 254.886C311.886 255.047 311.44 255.127 310.94 255.127C310.475 255.127 310.048 255.047 309.658 254.886C309.273 254.721 308.939 254.484 308.655 254.175C308.376 253.866 308.158 253.487 308.001 253.039C307.849 252.59 307.773 252.08 307.773 251.509C307.773 250.747 307.902 250.1 308.16 249.566C308.418 249.029 308.786 248.621 309.265 248.341C309.747 248.058 310.32 247.916 310.985 247.916C311.62 247.916 312.174 248.058 312.648 248.341C313.126 248.625 313.496 249.035 313.759 249.573C314.025 250.106 314.159 250.751 314.159 251.509ZM308.865 251.509C308.865 252.067 308.939 252.552 309.087 252.962C309.235 253.373 309.464 253.69 309.772 253.915C310.081 254.139 310.479 254.251 310.966 254.251C311.448 254.251 311.844 254.139 312.153 253.915C312.466 253.69 312.697 253.373 312.845 252.962C312.993 252.552 313.067 252.067 313.067 251.509C313.067 250.954 312.993 250.476 312.845 250.074C312.697 249.668 312.468 249.355 312.159 249.135C311.85 248.915 311.45 248.805 310.959 248.805C310.236 248.805 309.705 249.044 309.366 249.522C309.032 250 308.865 250.662 308.865 251.509ZM318.183 251.426C318.183 252.133 318.113 252.823 317.974 253.496C317.838 254.164 317.629 254.799 317.345 255.4C317.066 256.001 316.708 256.553 316.272 257.057H315.276C315.682 256.519 316.021 255.944 316.292 255.33C316.567 254.716 316.772 254.082 316.907 253.426C317.047 252.766 317.117 252.097 317.117 251.42C317.117 250.73 317.047 250.051 316.907 249.382C316.768 248.714 316.56 248.07 316.285 247.453C316.014 246.835 315.674 246.257 315.263 245.72H316.272C316.708 246.24 317.066 246.807 317.345 247.421C317.629 248.03 317.838 248.674 317.974 249.351C318.113 250.023 318.183 250.715 318.183 251.426Z" fill="#505E70"/>
<rect x="103.5" y="75.5" width="135" height="63" fill="white"/>
<rect x="103.5" y="75.5" width="135" height="63" stroke="#E6EBF0"/>
<rect x="119" y="87" width="103" height="40" rx="8" fill="#FFDB2E"/>
<path d="M143 100.333C139.32 100.333 136.333 103.32 136.333 107C136.333 110.68 139.32 113.667 143 113.667C146.68 113.667 149.667 110.68 149.667 107C149.667 103.32 146.68 100.333 143 100.333ZM143 110.333C142.633 110.333 142.333 110.033 142.333 109.667V107C142.333 106.633 142.633 106.333 143 106.333C143.367 106.333 143.667 106.633 143.667 107V109.667C143.667 110.033 143.367 110.333 143 110.333ZM143.667 105H142.333V103.667H143.667V105Z" fill="#38485C"/>
<path d="M157.61 113C157.214 113 156.908 112.898 156.692 112.694C156.488 112.478 156.386 112.172 156.386 111.776V101.534C156.386 101.138 156.488 100.838 156.692 100.634C156.908 100.418 157.214 100.31 157.61 100.31H161.93C162.818 100.31 163.574 100.442 164.198 100.706C164.822 100.97 165.296 101.348 165.62 101.84C165.956 102.332 166.124 102.92 166.124 103.604C166.124 104.372 165.902 105.02 165.458 105.548C165.014 106.076 164.408 106.43 163.64 106.61V106.34C164.528 106.472 165.218 106.808 165.71 107.348C166.202 107.888 166.448 108.59 166.448 109.454C166.448 110.582 166.064 111.458 165.296 112.082C164.54 112.694 163.484 113 162.128 113H157.61ZM158.6 111.254H161.84C162.656 111.254 163.256 111.098 163.64 110.786C164.024 110.462 164.216 109.982 164.216 109.346C164.216 108.698 164.024 108.218 163.64 107.906C163.256 107.594 162.656 107.438 161.84 107.438H158.6V111.254ZM158.6 105.692H161.534C162.326 105.692 162.914 105.542 163.298 105.242C163.694 104.93 163.892 104.474 163.892 103.874C163.892 103.274 163.694 102.824 163.298 102.524C162.914 102.212 162.326 102.056 161.534 102.056H158.6V105.692ZM172.577 113.18C171.665 113.18 170.873 112.994 170.201 112.622C169.529 112.25 169.007 111.722 168.635 111.038C168.263 110.342 168.077 109.526 168.077 108.59C168.077 107.882 168.179 107.252 168.383 106.7C168.599 106.136 168.905 105.656 169.301 105.26C169.697 104.852 170.171 104.546 170.723 104.342C171.275 104.126 171.893 104.018 172.577 104.018C173.489 104.018 174.281 104.204 174.953 104.576C175.625 104.948 176.147 105.476 176.519 106.16C176.891 106.844 177.077 107.654 177.077 108.59C177.077 109.298 176.969 109.934 176.753 110.498C176.549 111.062 176.249 111.548 175.853 111.956C175.457 112.352 174.983 112.658 174.431 112.874C173.879 113.078 173.261 113.18 172.577 113.18ZM172.577 111.47C173.021 111.47 173.411 111.362 173.747 111.146C174.083 110.93 174.341 110.612 174.521 110.192C174.713 109.76 174.809 109.226 174.809 108.59C174.809 107.63 174.605 106.916 174.197 106.448C173.789 105.968 173.249 105.728 172.577 105.728C172.133 105.728 171.743 105.836 171.407 106.052C171.071 106.256 170.807 106.574 170.615 107.006C170.435 107.426 170.345 107.954 170.345 108.59C170.345 109.538 170.549 110.258 170.957 110.75C171.365 111.23 171.905 111.47 172.577 111.47ZM182.878 113.18C182.098 113.18 181.444 113.048 180.916 112.784C180.4 112.52 180.016 112.136 179.764 111.632C179.512 111.116 179.386 110.48 179.386 109.724V105.89H178.45C178.162 105.89 177.94 105.818 177.784 105.674C177.628 105.518 177.55 105.308 177.55 105.044C177.55 104.768 177.628 104.558 177.784 104.414C177.94 104.27 178.162 104.198 178.45 104.198H179.386V102.56C179.386 102.188 179.482 101.906 179.674 101.714C179.878 101.522 180.16 101.426 180.52 101.426C180.88 101.426 181.156 101.522 181.348 101.714C181.54 101.906 181.636 102.188 181.636 102.56V104.198H183.544C183.832 104.198 184.054 104.27 184.21 104.414C184.366 104.558 184.444 104.768 184.444 105.044C184.444 105.308 184.366 105.518 184.21 105.674C184.054 105.818 183.832 105.89 183.544 105.89H181.636V109.598C181.636 110.174 181.762 110.606 182.014 110.894C182.266 111.182 182.674 111.326 183.238 111.326C183.442 111.326 183.622 111.308 183.778 111.272C183.934 111.236 184.072 111.212 184.192 111.2C184.336 111.188 184.456 111.236 184.552 111.344C184.648 111.44 184.696 111.644 184.696 111.956C184.696 112.196 184.654 112.412 184.57 112.604C184.498 112.784 184.36 112.91 184.156 112.982C184 113.03 183.796 113.072 183.544 113.108C183.292 113.156 183.07 113.18 182.878 113.18ZM189.68 113.18C188.768 113.18 187.976 112.994 187.304 112.622C186.632 112.25 186.11 111.722 185.738 111.038C185.366 110.342 185.18 109.526 185.18 108.59C185.18 107.882 185.282 107.252 185.486 106.7C185.702 106.136 186.008 105.656 186.404 105.26C186.8 104.852 187.274 104.546 187.826 104.342C188.378 104.126 188.996 104.018 189.68 104.018C190.592 104.018 191.384 104.204 192.056 104.576C192.728 104.948 193.25 105.476 193.622 106.16C193.994 106.844 194.18 107.654 194.18 108.59C194.18 109.298 194.072 109.934 193.856 110.498C193.652 111.062 193.352 111.548 192.956 111.956C192.56 112.352 192.086 112.658 191.534 112.874C190.982 113.078 190.364 113.18 189.68 113.18ZM189.68 111.47C190.124 111.47 190.514 111.362 190.85 111.146C191.186 110.93 191.444 110.612 191.624 110.192C191.816 109.76 191.912 109.226 191.912 108.59C191.912 107.63 191.708 106.916 191.3 106.448C190.892 105.968 190.352 105.728 189.68 105.728C189.236 105.728 188.846 105.836 188.51 106.052C188.174 106.256 187.91 106.574 187.718 107.006C187.538 107.426 187.448 107.954 187.448 108.59C187.448 109.538 187.652 110.258 188.06 110.75C188.468 111.23 189.008 111.47 189.68 111.47ZM190.526 102.92C190.406 103.088 190.262 103.184 190.094 103.208C189.926 103.232 189.764 103.202 189.608 103.118C189.452 103.034 189.338 102.914 189.266 102.758C189.206 102.602 189.224 102.428 189.32 102.236L190.688 99.554C190.796 99.326 190.94 99.182 191.12 99.122C191.3 99.05 191.486 99.038 191.678 99.086C191.87 99.134 192.032 99.224 192.164 99.356C192.308 99.488 192.392 99.65 192.416 99.842C192.452 100.022 192.404 100.208 192.272 100.4L190.526 102.92ZM197.153 113.144C196.793 113.144 196.517 113.048 196.325 112.856C196.133 112.652 196.037 112.364 196.037 111.992V105.188C196.037 104.816 196.133 104.534 196.325 104.342C196.517 104.15 196.787 104.054 197.135 104.054C197.483 104.054 197.753 104.15 197.945 104.342C198.137 104.534 198.233 104.816 198.233 105.188V106.412L198.035 105.962C198.299 105.326 198.707 104.846 199.259 104.522C199.823 104.186 200.459 104.018 201.167 104.018C201.875 104.018 202.457 104.15 202.913 104.414C203.369 104.678 203.711 105.08 203.939 105.62C204.167 106.148 204.281 106.82 204.281 107.636V111.992C204.281 112.364 204.185 112.652 203.993 112.856C203.801 113.048 203.525 113.144 203.165 113.144C202.805 113.144 202.523 113.048 202.319 112.856C202.127 112.652 202.031 112.364 202.031 111.992V107.744C202.031 107.06 201.899 106.562 201.635 106.25C201.383 105.938 200.987 105.782 200.447 105.782C199.787 105.782 199.259 105.992 198.863 106.412C198.479 106.82 198.287 107.366 198.287 108.05V111.992C198.287 112.76 197.909 113.144 197.153 113.144Z" fill="#38485C"/>
</svg>
