<svg xmlns="http://www.w3.org/2000/svg" width="712" height="200" viewBox="0 0 712 200">
  <g id="Group_32478" data-name="Group 32478" transform="translate(11032 15796)">
    <g id="Group_32469" data-name="Group 32469">
      <rect id="Rectangle_26464" data-name="Rectangle 26464" width="712" height="200" rx="8" transform="translate(-11032 -15796)" fill="#fff"/>
      <path id="Rectangle_26464_-_Outline" data-name="Rectangle 26464 - Outline" d="M8,2A6.007,6.007,0,0,0,2,8V192a6.007,6.007,0,0,0,6,6H704a6.007,6.007,0,0,0,6-6V8a6.007,6.007,0,0,0-6-6H8M8,0H704a8,8,0,0,1,8,8V192a8,8,0,0,1-8,8H8a8,8,0,0,1-8-8V8A8,8,0,0,1,8,0Z" transform="translate(-11032 -15796)" fill="#38485c"/>
      <rect id="Rectangle_26318" data-name="Rectangle 26318" width="100" height="20" transform="translate(-10726 -15748)" fill="none"/>
      <path id="Path_31936" data-name="Path 31936" d="M10.02-5.457A5.406,5.406,0,0,1,8.58-1.4,5.694,5.694,0,0,1,4.438,0H1.472V-10.708H4.753A5.248,5.248,0,0,1,8.635-9.324,5.228,5.228,0,0,1,10.02-5.457ZM8.7-5.413A4.311,4.311,0,0,0,7.65-8.569,4.212,4.212,0,0,0,4.526-9.631H2.717v8.555H4.233A4.61,4.61,0,0,0,7.581-2.172,4.335,4.335,0,0,0,8.7-5.413ZM15.615.146A3.688,3.688,0,0,1,12.806-.937a4.2,4.2,0,0,1-1.029-3.01,4.654,4.654,0,0,1,.956-3.083A3.175,3.175,0,0,1,15.3-8.174a3.027,3.027,0,0,1,2.388.992,3.8,3.8,0,0,1,.879,2.618v.769h-5.53a3.182,3.182,0,0,0,.714,2.146,2.47,2.47,0,0,0,1.908.732,6.466,6.466,0,0,0,2.563-.542V-.374A6.434,6.434,0,0,1,17,.026,6.853,6.853,0,0,1,15.615.146Zm-.33-7.3a1.985,1.985,0,0,0-1.542.63,2.9,2.9,0,0,0-.677,1.743h4.2a2.673,2.673,0,0,0-.513-1.761A1.8,1.8,0,0,0,15.286-7.156ZM25.818-2.19a2.011,2.011,0,0,1-.835,1.729,3.925,3.925,0,0,1-2.344.608,5.1,5.1,0,0,1-2.49-.505V-1.487a6.022,6.022,0,0,0,1.241.461,5.184,5.184,0,0,0,1.278.168,2.9,2.9,0,0,0,1.465-.3,1,1,0,0,0,.513-.927,1.006,1.006,0,0,0-.406-.8,6.394,6.394,0,0,0-1.586-.787,8.6,8.6,0,0,1-1.593-.729,2.176,2.176,0,0,1-.7-.707,1.843,1.843,0,0,1-.231-.945,1.8,1.8,0,0,1,.8-1.549,3.72,3.72,0,0,1,2.19-.568,6.408,6.408,0,0,1,2.534.527l-.432.989a5.817,5.817,0,0,0-2.19-.5,2.52,2.52,0,0,0-1.3.271.838.838,0,0,0-.439.747.91.91,0,0,0,.165.549,1.626,1.626,0,0,0,.531.432,11.867,11.867,0,0,0,1.406.593,5.254,5.254,0,0,1,1.93,1.047A1.847,1.847,0,0,1,25.818-2.19ZM31,.146A3.426,3.426,0,0,1,28.3-.927a4.412,4.412,0,0,1-.956-3.036,4.55,4.55,0,0,1,.97-3.113,3.494,3.494,0,0,1,2.765-1.1,5.487,5.487,0,0,1,1.157.125,3.812,3.812,0,0,1,.908.293l-.374,1.033a5.717,5.717,0,0,0-.879-.267,3.924,3.924,0,0,0-.842-.106q-2.446,0-2.446,3.12a3.715,3.715,0,0,0,.6,2.271,2.077,2.077,0,0,0,1.769.791,5.408,5.408,0,0,0,2.058-.432V-.271A4.386,4.386,0,0,1,31,.146ZM39.873,0l-.242-1.143h-.059a3.378,3.378,0,0,1-1.2,1.022,3.65,3.65,0,0,1-1.49.267,2.681,2.681,0,0,1-1.871-.615,2.244,2.244,0,0,1-.677-1.75q0-2.432,3.889-2.549l1.362-.044v-.5a2.035,2.035,0,0,0-.406-1.4,1.672,1.672,0,0,0-1.3-.45,5.3,5.3,0,0,0-2.271.615l-.374-.93a5.713,5.713,0,0,1,1.3-.505,5.631,5.631,0,0,1,1.417-.183,3.058,3.058,0,0,1,2.128.637,2.66,2.66,0,0,1,.692,2.043V0ZM37.126-.857a2.468,2.468,0,0,0,1.783-.623,2.3,2.3,0,0,0,.648-1.743v-.725L38.342-3.9a4.422,4.422,0,0,0-2.091.45A1.358,1.358,0,0,0,35.61-2.2a1.253,1.253,0,0,0,.4,1A1.657,1.657,0,0,0,37.126-.857Zm9.814-7.317a4.757,4.757,0,0,1,.959.088l-.168,1.128a4.142,4.142,0,0,0-.879-.11,2.139,2.139,0,0,0-1.666.791,2.884,2.884,0,0,0-.692,1.97V0H43.279V-8.027h1l.139,1.487h.059a3.529,3.529,0,0,1,1.077-1.208A2.424,2.424,0,0,1,46.941-8.174Zm8.884.146v.769l-1.487.176a2.556,2.556,0,0,1,.366.67,2.557,2.557,0,0,1,.161.934A2.373,2.373,0,0,1,54.06-3.6a3.25,3.25,0,0,1-2.212.7,3.683,3.683,0,0,1-.674-.059A1.2,1.2,0,0,0,50.4-1.919a.525.525,0,0,0,.271.487,1.98,1.98,0,0,0,.93.157H53.02a3.182,3.182,0,0,1,2,.549,1.909,1.909,0,0,1,.7,1.6A2.279,2.279,0,0,1,54.653,2.9a5.723,5.723,0,0,1-3.12.7,4.263,4.263,0,0,1-2.428-.586,1.892,1.892,0,0,1-.853-1.655A1.859,1.859,0,0,1,48.721.1,2.387,2.387,0,0,1,50.039-.63a1.272,1.272,0,0,1-.516-.432,1.144,1.144,0,0,1-.209-.681,1.293,1.293,0,0,1,.234-.769,2.464,2.464,0,0,1,.74-.637,2.168,2.168,0,0,1-1.014-.872,2.561,2.561,0,0,1-.392-1.406,2.6,2.6,0,0,1,.791-2.032,3.23,3.23,0,0,1,2.241-.714,4.075,4.075,0,0,1,1.135.146Zm-6.4,9.375a1.09,1.09,0,0,0,.549.989,3.032,3.032,0,0,0,1.575.337,4.394,4.394,0,0,0,2.267-.458A1.4,1.4,0,0,0,54.551.974a.982.982,0,0,0-.4-.9,3.129,3.129,0,0,0-1.516-.253H51.174a1.92,1.92,0,0,0-1.289.4A1.413,1.413,0,0,0,49.424,1.348Zm.659-6.8a1.634,1.634,0,0,0,.476,1.274,1.9,1.9,0,0,0,1.326.432,1.551,1.551,0,0,0,1.78-1.729,1.6,1.6,0,0,0-1.8-1.809,1.784,1.784,0,0,0-1.318.461A1.858,1.858,0,0,0,50.083-5.457ZM62.41,0l-.242-1.143h-.059a3.378,3.378,0,0,1-1.2,1.022,3.65,3.65,0,0,1-1.49.267A2.681,2.681,0,0,1,57.55-.469a2.244,2.244,0,0,1-.677-1.75q0-2.432,3.889-2.549l1.362-.044v-.5a2.035,2.035,0,0,0-.406-1.4,1.672,1.672,0,0,0-1.3-.45,5.3,5.3,0,0,0-2.271.615l-.374-.93a5.713,5.713,0,0,1,1.3-.505,5.631,5.631,0,0,1,1.417-.183,3.058,3.058,0,0,1,2.128.637,2.66,2.66,0,0,1,.692,2.043V0ZM59.663-.857a2.468,2.468,0,0,0,1.783-.623,2.3,2.3,0,0,0,.648-1.743v-.725L60.879-3.9a4.422,4.422,0,0,0-2.091.45A1.358,1.358,0,0,0,58.147-2.2a1.253,1.253,0,0,0,.4,1A1.657,1.657,0,0,0,59.663-.857ZM73.66,0H72.473V-7.632q0-.952.059-1.8-.154.154-.344.322T70.444-7.683L69.8-8.518l2.834-2.19H73.66ZM0,1H47.252V2H0ZM56.723,1H77V2H56.723Z" transform="translate(-10703 -15732)" fill="#007bc7"/>
      <g id="download" transform="translate(-10726 -15747)">
        <rect id="Rectangle_26" data-name="Rectangle 26" width="19" height="19" fill="none"/>
        <path id="Path_12409" data-name="Path 12409" d="M110.658,56.25h-1.325V52.292a.816.816,0,0,0-.833-.792h-3.333a.816.816,0,0,0-.833.792V56.25h-1.325a.79.79,0,0,0-.592,1.354l3.825,3.634a.861.861,0,0,0,1.175,0l3.825-3.634A.787.787,0,0,0,110.658,56.25ZM101,64.167a.816.816,0,0,0,.833.792h10a.793.793,0,1,0,0-1.583h-10A.816.816,0,0,0,101,64.167Z" transform="translate(-96.834 -48.73)" fill="#007bc7"/>
      </g>
      <rect id="Rectangle_26318-2" data-name="Rectangle 26318" width="100" height="20" transform="translate(-10726 -15692)" fill="none"/>
      <path id="Path_31938" data-name="Path 31938" d="M10.02-5.457A5.406,5.406,0,0,1,8.58-1.4,5.694,5.694,0,0,1,4.438,0H1.472V-10.708H4.753A5.248,5.248,0,0,1,8.635-9.324,5.228,5.228,0,0,1,10.02-5.457ZM8.7-5.413A4.311,4.311,0,0,0,7.65-8.569,4.212,4.212,0,0,0,4.526-9.631H2.717v8.555H4.233A4.61,4.61,0,0,0,7.581-2.172,4.335,4.335,0,0,0,8.7-5.413ZM15.615.146A3.688,3.688,0,0,1,12.806-.937a4.2,4.2,0,0,1-1.029-3.01,4.654,4.654,0,0,1,.956-3.083A3.175,3.175,0,0,1,15.3-8.174a3.027,3.027,0,0,1,2.388.992,3.8,3.8,0,0,1,.879,2.618v.769h-5.53a3.182,3.182,0,0,0,.714,2.146,2.47,2.47,0,0,0,1.908.732,6.466,6.466,0,0,0,2.563-.542V-.374A6.434,6.434,0,0,1,17,.026,6.853,6.853,0,0,1,15.615.146Zm-.33-7.3a1.985,1.985,0,0,0-1.542.63,2.9,2.9,0,0,0-.677,1.743h4.2a2.673,2.673,0,0,0-.513-1.761A1.8,1.8,0,0,0,15.286-7.156ZM25.818-2.19a2.011,2.011,0,0,1-.835,1.729,3.925,3.925,0,0,1-2.344.608,5.1,5.1,0,0,1-2.49-.505V-1.487a6.022,6.022,0,0,0,1.241.461,5.184,5.184,0,0,0,1.278.168,2.9,2.9,0,0,0,1.465-.3,1,1,0,0,0,.513-.927,1.006,1.006,0,0,0-.406-.8,6.394,6.394,0,0,0-1.586-.787,8.6,8.6,0,0,1-1.593-.729,2.176,2.176,0,0,1-.7-.707,1.843,1.843,0,0,1-.231-.945,1.8,1.8,0,0,1,.8-1.549,3.72,3.72,0,0,1,2.19-.568,6.408,6.408,0,0,1,2.534.527l-.432.989a5.817,5.817,0,0,0-2.19-.5,2.52,2.52,0,0,0-1.3.271.838.838,0,0,0-.439.747.91.91,0,0,0,.165.549,1.626,1.626,0,0,0,.531.432,11.867,11.867,0,0,0,1.406.593,5.254,5.254,0,0,1,1.93,1.047A1.847,1.847,0,0,1,25.818-2.19ZM31,.146A3.426,3.426,0,0,1,28.3-.927a4.412,4.412,0,0,1-.956-3.036,4.55,4.55,0,0,1,.97-3.113,3.494,3.494,0,0,1,2.765-1.1,5.487,5.487,0,0,1,1.157.125,3.812,3.812,0,0,1,.908.293l-.374,1.033a5.717,5.717,0,0,0-.879-.267,3.924,3.924,0,0,0-.842-.106q-2.446,0-2.446,3.12a3.715,3.715,0,0,0,.6,2.271,2.077,2.077,0,0,0,1.769.791,5.408,5.408,0,0,0,2.058-.432V-.271A4.386,4.386,0,0,1,31,.146ZM39.873,0l-.242-1.143h-.059a3.378,3.378,0,0,1-1.2,1.022,3.65,3.65,0,0,1-1.49.267,2.681,2.681,0,0,1-1.871-.615,2.244,2.244,0,0,1-.677-1.75q0-2.432,3.889-2.549l1.362-.044v-.5a2.035,2.035,0,0,0-.406-1.4,1.672,1.672,0,0,0-1.3-.45,5.3,5.3,0,0,0-2.271.615l-.374-.93a5.713,5.713,0,0,1,1.3-.505,5.631,5.631,0,0,1,1.417-.183,3.058,3.058,0,0,1,2.128.637,2.66,2.66,0,0,1,.692,2.043V0ZM37.126-.857a2.468,2.468,0,0,0,1.783-.623,2.3,2.3,0,0,0,.648-1.743v-.725L38.342-3.9a4.422,4.422,0,0,0-2.091.45A1.358,1.358,0,0,0,35.61-2.2a1.253,1.253,0,0,0,.4,1A1.657,1.657,0,0,0,37.126-.857Zm9.814-7.317a4.757,4.757,0,0,1,.959.088l-.168,1.128a4.142,4.142,0,0,0-.879-.11,2.139,2.139,0,0,0-1.666.791,2.884,2.884,0,0,0-.692,1.97V0H43.279V-8.027h1l.139,1.487h.059a3.529,3.529,0,0,1,1.077-1.208A2.424,2.424,0,0,1,46.941-8.174Zm8.884.146v.769l-1.487.176a2.556,2.556,0,0,1,.366.67,2.557,2.557,0,0,1,.161.934A2.373,2.373,0,0,1,54.06-3.6a3.25,3.25,0,0,1-2.212.7,3.683,3.683,0,0,1-.674-.059A1.2,1.2,0,0,0,50.4-1.919a.525.525,0,0,0,.271.487,1.98,1.98,0,0,0,.93.157H53.02a3.182,3.182,0,0,1,2,.549,1.909,1.909,0,0,1,.7,1.6A2.279,2.279,0,0,1,54.653,2.9a5.723,5.723,0,0,1-3.12.7,4.263,4.263,0,0,1-2.428-.586,1.892,1.892,0,0,1-.853-1.655A1.859,1.859,0,0,1,48.721.1,2.387,2.387,0,0,1,50.039-.63a1.272,1.272,0,0,1-.516-.432,1.144,1.144,0,0,1-.209-.681,1.293,1.293,0,0,1,.234-.769,2.464,2.464,0,0,1,.74-.637,2.168,2.168,0,0,1-1.014-.872,2.561,2.561,0,0,1-.392-1.406,2.6,2.6,0,0,1,.791-2.032,3.23,3.23,0,0,1,2.241-.714,4.075,4.075,0,0,1,1.135.146Zm-6.4,9.375a1.09,1.09,0,0,0,.549.989,3.032,3.032,0,0,0,1.575.337,4.394,4.394,0,0,0,2.267-.458A1.4,1.4,0,0,0,54.551.974a.982.982,0,0,0-.4-.9,3.129,3.129,0,0,0-1.516-.253H51.174a1.92,1.92,0,0,0-1.289.4A1.413,1.413,0,0,0,49.424,1.348Zm.659-6.8a1.634,1.634,0,0,0,.476,1.274,1.9,1.9,0,0,0,1.326.432,1.551,1.551,0,0,0,1.78-1.729,1.6,1.6,0,0,0-1.8-1.809,1.784,1.784,0,0,0-1.318.461A1.858,1.858,0,0,0,50.083-5.457ZM62.41,0l-.242-1.143h-.059a3.378,3.378,0,0,1-1.2,1.022,3.65,3.65,0,0,1-1.49.267A2.681,2.681,0,0,1,57.55-.469a2.244,2.244,0,0,1-.677-1.75q0-2.432,3.889-2.549l1.362-.044v-.5a2.035,2.035,0,0,0-.406-1.4,1.672,1.672,0,0,0-1.3-.45,5.3,5.3,0,0,0-2.271.615l-.374-.93a5.713,5.713,0,0,1,1.3-.505,5.631,5.631,0,0,1,1.417-.183,3.058,3.058,0,0,1,2.128.637,2.66,2.66,0,0,1,.692,2.043V0ZM59.663-.857a2.468,2.468,0,0,0,1.783-.623,2.3,2.3,0,0,0,.648-1.743v-.725L60.879-3.9a4.422,4.422,0,0,0-2.091.45A1.358,1.358,0,0,0,58.147-2.2a1.253,1.253,0,0,0,.4,1A1.657,1.657,0,0,0,59.663-.857ZM75.791-8.188a2.442,2.442,0,0,1-.575,1.677,2.878,2.878,0,0,1-1.63.872v.059a3.065,3.065,0,0,1,1.912.82,2.414,2.414,0,0,1,.623,1.729A2.8,2.8,0,0,1,75.059-.677a4.83,4.83,0,0,1-3.018.824A8.745,8.745,0,0,1,70.485.018a5.326,5.326,0,0,1-1.373-.45V-1.589a6.678,6.678,0,0,0,1.483.524,6.717,6.717,0,0,0,1.49.179q2.776,0,2.776-2.175,0-1.948-3.062-1.948H70.745V-6.057h1.069A3.22,3.22,0,0,0,73.8-6.61a1.815,1.815,0,0,0,.732-1.534,1.513,1.513,0,0,0-.538-1.23,2.218,2.218,0,0,0-1.461-.447,4.509,4.509,0,0,0-1.326.19,5.933,5.933,0,0,0-1.421.7l-.615-.82a5.129,5.129,0,0,1,1.52-.817,5.524,5.524,0,0,1,1.813-.3,3.7,3.7,0,0,1,2.424.714A2.4,2.4,0,0,1,75.791-8.188ZM0,1H47.252V2H0ZM56.723,1H77V2H56.723Z" transform="translate(-10703 -15676)" fill="#007bc7"/>
      <g id="download-2" data-name="download" transform="translate(-10726 -15691)">
        <rect id="Rectangle_26-2" data-name="Rectangle 26" width="19" height="19" fill="none"/>
        <path id="Path_12409-2" data-name="Path 12409" d="M110.658,56.25h-1.325V52.292a.816.816,0,0,0-.833-.792h-3.333a.816.816,0,0,0-.833.792V56.25h-1.325a.79.79,0,0,0-.592,1.354l3.825,3.634a.861.861,0,0,0,1.175,0l3.825-3.634A.787.787,0,0,0,110.658,56.25ZM101,64.167a.816.816,0,0,0,.833.792h10a.793.793,0,1,0,0-1.583h-10A.816.816,0,0,0,101,64.167Z" transform="translate(-96.834 -48.73)" fill="#007bc7"/>
      </g>
      <rect id="Rectangle_26318-3" data-name="Rectangle 26318" width="100" height="20" transform="translate(-10726 -15720)" fill="none"/>
      <path id="Path_31937" data-name="Path 31937" d="M10.02-5.457A5.406,5.406,0,0,1,8.58-1.4,5.694,5.694,0,0,1,4.438,0H1.472V-10.708H4.753A5.248,5.248,0,0,1,8.635-9.324,5.228,5.228,0,0,1,10.02-5.457ZM8.7-5.413A4.311,4.311,0,0,0,7.65-8.569,4.212,4.212,0,0,0,4.526-9.631H2.717v8.555H4.233A4.61,4.61,0,0,0,7.581-2.172,4.335,4.335,0,0,0,8.7-5.413ZM15.615.146A3.688,3.688,0,0,1,12.806-.937a4.2,4.2,0,0,1-1.029-3.01,4.654,4.654,0,0,1,.956-3.083A3.175,3.175,0,0,1,15.3-8.174a3.027,3.027,0,0,1,2.388.992,3.8,3.8,0,0,1,.879,2.618v.769h-5.53a3.182,3.182,0,0,0,.714,2.146,2.47,2.47,0,0,0,1.908.732,6.466,6.466,0,0,0,2.563-.542V-.374A6.434,6.434,0,0,1,17,.026,6.853,6.853,0,0,1,15.615.146Zm-.33-7.3a1.985,1.985,0,0,0-1.542.63,2.9,2.9,0,0,0-.677,1.743h4.2a2.673,2.673,0,0,0-.513-1.761A1.8,1.8,0,0,0,15.286-7.156ZM25.818-2.19a2.011,2.011,0,0,1-.835,1.729,3.925,3.925,0,0,1-2.344.608,5.1,5.1,0,0,1-2.49-.505V-1.487a6.022,6.022,0,0,0,1.241.461,5.184,5.184,0,0,0,1.278.168,2.9,2.9,0,0,0,1.465-.3,1,1,0,0,0,.513-.927,1.006,1.006,0,0,0-.406-.8,6.394,6.394,0,0,0-1.586-.787,8.6,8.6,0,0,1-1.593-.729,2.176,2.176,0,0,1-.7-.707,1.843,1.843,0,0,1-.231-.945,1.8,1.8,0,0,1,.8-1.549,3.72,3.72,0,0,1,2.19-.568,6.408,6.408,0,0,1,2.534.527l-.432.989a5.817,5.817,0,0,0-2.19-.5,2.52,2.52,0,0,0-1.3.271.838.838,0,0,0-.439.747.91.91,0,0,0,.165.549,1.626,1.626,0,0,0,.531.432,11.867,11.867,0,0,0,1.406.593,5.254,5.254,0,0,1,1.93,1.047A1.847,1.847,0,0,1,25.818-2.19ZM31,.146A3.426,3.426,0,0,1,28.3-.927a4.412,4.412,0,0,1-.956-3.036,4.55,4.55,0,0,1,.97-3.113,3.494,3.494,0,0,1,2.765-1.1,5.487,5.487,0,0,1,1.157.125,3.812,3.812,0,0,1,.908.293l-.374,1.033a5.717,5.717,0,0,0-.879-.267,3.924,3.924,0,0,0-.842-.106q-2.446,0-2.446,3.12a3.715,3.715,0,0,0,.6,2.271,2.077,2.077,0,0,0,1.769.791,5.408,5.408,0,0,0,2.058-.432V-.271A4.386,4.386,0,0,1,31,.146ZM39.873,0l-.242-1.143h-.059a3.378,3.378,0,0,1-1.2,1.022,3.65,3.65,0,0,1-1.49.267,2.681,2.681,0,0,1-1.871-.615,2.244,2.244,0,0,1-.677-1.75q0-2.432,3.889-2.549l1.362-.044v-.5a2.035,2.035,0,0,0-.406-1.4,1.672,1.672,0,0,0-1.3-.45,5.3,5.3,0,0,0-2.271.615l-.374-.93a5.713,5.713,0,0,1,1.3-.505,5.631,5.631,0,0,1,1.417-.183,3.058,3.058,0,0,1,2.128.637,2.66,2.66,0,0,1,.692,2.043V0ZM37.126-.857a2.468,2.468,0,0,0,1.783-.623,2.3,2.3,0,0,0,.648-1.743v-.725L38.342-3.9a4.422,4.422,0,0,0-2.091.45A1.358,1.358,0,0,0,35.61-2.2a1.253,1.253,0,0,0,.4,1A1.657,1.657,0,0,0,37.126-.857Zm9.814-7.317a4.757,4.757,0,0,1,.959.088l-.168,1.128a4.142,4.142,0,0,0-.879-.11,2.139,2.139,0,0,0-1.666.791,2.884,2.884,0,0,0-.692,1.97V0H43.279V-8.027h1l.139,1.487h.059a3.529,3.529,0,0,1,1.077-1.208A2.424,2.424,0,0,1,46.941-8.174Zm8.884.146v.769l-1.487.176a2.556,2.556,0,0,1,.366.67,2.557,2.557,0,0,1,.161.934A2.373,2.373,0,0,1,54.06-3.6a3.25,3.25,0,0,1-2.212.7,3.683,3.683,0,0,1-.674-.059A1.2,1.2,0,0,0,50.4-1.919a.525.525,0,0,0,.271.487,1.98,1.98,0,0,0,.93.157H53.02a3.182,3.182,0,0,1,2,.549,1.909,1.909,0,0,1,.7,1.6A2.279,2.279,0,0,1,54.653,2.9a5.723,5.723,0,0,1-3.12.7,4.263,4.263,0,0,1-2.428-.586,1.892,1.892,0,0,1-.853-1.655A1.859,1.859,0,0,1,48.721.1,2.387,2.387,0,0,1,50.039-.63a1.272,1.272,0,0,1-.516-.432,1.144,1.144,0,0,1-.209-.681,1.293,1.293,0,0,1,.234-.769,2.464,2.464,0,0,1,.74-.637,2.168,2.168,0,0,1-1.014-.872,2.561,2.561,0,0,1-.392-1.406,2.6,2.6,0,0,1,.791-2.032,3.23,3.23,0,0,1,2.241-.714,4.075,4.075,0,0,1,1.135.146Zm-6.4,9.375a1.09,1.09,0,0,0,.549.989,3.032,3.032,0,0,0,1.575.337,4.394,4.394,0,0,0,2.267-.458A1.4,1.4,0,0,0,54.551.974a.982.982,0,0,0-.4-.9,3.129,3.129,0,0,0-1.516-.253H51.174a1.92,1.92,0,0,0-1.289.4A1.413,1.413,0,0,0,49.424,1.348Zm.659-6.8a1.634,1.634,0,0,0,.476,1.274,1.9,1.9,0,0,0,1.326.432,1.551,1.551,0,0,0,1.78-1.729,1.6,1.6,0,0,0-1.8-1.809,1.784,1.784,0,0,0-1.318.461A1.858,1.858,0,0,0,50.083-5.457ZM62.41,0l-.242-1.143h-.059a3.378,3.378,0,0,1-1.2,1.022,3.65,3.65,0,0,1-1.49.267A2.681,2.681,0,0,1,57.55-.469a2.244,2.244,0,0,1-.677-1.75q0-2.432,3.889-2.549l1.362-.044v-.5a2.035,2.035,0,0,0-.406-1.4,1.672,1.672,0,0,0-1.3-.45,5.3,5.3,0,0,0-2.271.615l-.374-.93a5.713,5.713,0,0,1,1.3-.505,5.631,5.631,0,0,1,1.417-.183,3.058,3.058,0,0,1,2.128.637,2.66,2.66,0,0,1,.692,2.043V0ZM59.663-.857a2.468,2.468,0,0,0,1.783-.623,2.3,2.3,0,0,0,.648-1.743v-.725L60.879-3.9a4.422,4.422,0,0,0-2.091.45A1.358,1.358,0,0,0,58.147-2.2a1.253,1.253,0,0,0,.4,1A1.657,1.657,0,0,0,59.663-.857ZM76.194,0H69.155V-1.047l2.82-2.834a20.765,20.765,0,0,0,1.7-1.86,4.748,4.748,0,0,0,.615-1.084,3.1,3.1,0,0,0,.205-1.135,1.8,1.8,0,0,0-.52-1.359,1.992,1.992,0,0,0-1.443-.5,3.628,3.628,0,0,0-1.263.22,5.036,5.036,0,0,0-1.329.8l-.645-.828a4.936,4.936,0,0,1,3.223-1.23,3.4,3.4,0,0,1,2.366.773,2.658,2.658,0,0,1,.857,2.076A4.01,4.01,0,0,1,75.168-6a12.788,12.788,0,0,1-2.139,2.52L70.686-1.187v.059h5.508ZM0,1H47.252V2H0ZM56.723,1H77V2H56.723Z" transform="translate(-10703 -15704)" fill="#007bc7"/>
      <g id="download-3" data-name="download" transform="translate(-10726 -15719)">
        <rect id="Rectangle_26-3" data-name="Rectangle 26" width="19" height="19" fill="none"/>
        <path id="Path_12409-3" data-name="Path 12409" d="M110.658,56.25h-1.325V52.292a.816.816,0,0,0-.833-.792h-3.333a.816.816,0,0,0-.833.792V56.25h-1.325a.79.79,0,0,0-.592,1.354l3.825,3.634a.861.861,0,0,0,1.175,0l3.825-3.634A.787.787,0,0,0,110.658,56.25ZM101,64.167a.816.816,0,0,0,.833.792h10a.793.793,0,1,0,0-1.583h-10A.816.816,0,0,0,101,64.167Z" transform="translate(-96.834 -48.73)" fill="#007bc7"/>
      </g>
      <rect id="Rectangle_26318-4" data-name="Rectangle 26318" width="100" height="20" transform="translate(-10726 -15664)" fill="none"/>
      <path id="Path_31939" data-name="Path 31939" d="M10.02-5.457A5.406,5.406,0,0,1,8.58-1.4,5.694,5.694,0,0,1,4.438,0H1.472V-10.708H4.753A5.248,5.248,0,0,1,8.635-9.324,5.228,5.228,0,0,1,10.02-5.457ZM8.7-5.413A4.311,4.311,0,0,0,7.65-8.569,4.212,4.212,0,0,0,4.526-9.631H2.717v8.555H4.233A4.61,4.61,0,0,0,7.581-2.172,4.335,4.335,0,0,0,8.7-5.413ZM15.615.146A3.688,3.688,0,0,1,12.806-.937a4.2,4.2,0,0,1-1.029-3.01,4.654,4.654,0,0,1,.956-3.083A3.175,3.175,0,0,1,15.3-8.174a3.027,3.027,0,0,1,2.388.992,3.8,3.8,0,0,1,.879,2.618v.769h-5.53a3.182,3.182,0,0,0,.714,2.146,2.47,2.47,0,0,0,1.908.732,6.466,6.466,0,0,0,2.563-.542V-.374A6.434,6.434,0,0,1,17,.026,6.853,6.853,0,0,1,15.615.146Zm-.33-7.3a1.985,1.985,0,0,0-1.542.63,2.9,2.9,0,0,0-.677,1.743h4.2a2.673,2.673,0,0,0-.513-1.761A1.8,1.8,0,0,0,15.286-7.156ZM25.818-2.19a2.011,2.011,0,0,1-.835,1.729,3.925,3.925,0,0,1-2.344.608,5.1,5.1,0,0,1-2.49-.505V-1.487a6.022,6.022,0,0,0,1.241.461,5.184,5.184,0,0,0,1.278.168,2.9,2.9,0,0,0,1.465-.3,1,1,0,0,0,.513-.927,1.006,1.006,0,0,0-.406-.8,6.394,6.394,0,0,0-1.586-.787,8.6,8.6,0,0,1-1.593-.729,2.176,2.176,0,0,1-.7-.707,1.843,1.843,0,0,1-.231-.945,1.8,1.8,0,0,1,.8-1.549,3.72,3.72,0,0,1,2.19-.568,6.408,6.408,0,0,1,2.534.527l-.432.989a5.817,5.817,0,0,0-2.19-.5,2.52,2.52,0,0,0-1.3.271.838.838,0,0,0-.439.747.91.91,0,0,0,.165.549,1.626,1.626,0,0,0,.531.432,11.867,11.867,0,0,0,1.406.593,5.254,5.254,0,0,1,1.93,1.047A1.847,1.847,0,0,1,25.818-2.19ZM31,.146A3.426,3.426,0,0,1,28.3-.927a4.412,4.412,0,0,1-.956-3.036,4.55,4.55,0,0,1,.97-3.113,3.494,3.494,0,0,1,2.765-1.1,5.487,5.487,0,0,1,1.157.125,3.812,3.812,0,0,1,.908.293l-.374,1.033a5.717,5.717,0,0,0-.879-.267,3.924,3.924,0,0,0-.842-.106q-2.446,0-2.446,3.12a3.715,3.715,0,0,0,.6,2.271,2.077,2.077,0,0,0,1.769.791,5.408,5.408,0,0,0,2.058-.432V-.271A4.386,4.386,0,0,1,31,.146ZM39.873,0l-.242-1.143h-.059a3.378,3.378,0,0,1-1.2,1.022,3.65,3.65,0,0,1-1.49.267,2.681,2.681,0,0,1-1.871-.615,2.244,2.244,0,0,1-.677-1.75q0-2.432,3.889-2.549l1.362-.044v-.5a2.035,2.035,0,0,0-.406-1.4,1.672,1.672,0,0,0-1.3-.45,5.3,5.3,0,0,0-2.271.615l-.374-.93a5.713,5.713,0,0,1,1.3-.505,5.631,5.631,0,0,1,1.417-.183,3.058,3.058,0,0,1,2.128.637,2.66,2.66,0,0,1,.692,2.043V0ZM37.126-.857a2.468,2.468,0,0,0,1.783-.623,2.3,2.3,0,0,0,.648-1.743v-.725L38.342-3.9a4.422,4.422,0,0,0-2.091.45A1.358,1.358,0,0,0,35.61-2.2a1.253,1.253,0,0,0,.4,1A1.657,1.657,0,0,0,37.126-.857Zm9.814-7.317a4.757,4.757,0,0,1,.959.088l-.168,1.128a4.142,4.142,0,0,0-.879-.11,2.139,2.139,0,0,0-1.666.791,2.884,2.884,0,0,0-.692,1.97V0H43.279V-8.027h1l.139,1.487h.059a3.529,3.529,0,0,1,1.077-1.208A2.424,2.424,0,0,1,46.941-8.174Zm8.884.146v.769l-1.487.176a2.556,2.556,0,0,1,.366.67,2.557,2.557,0,0,1,.161.934A2.373,2.373,0,0,1,54.06-3.6a3.25,3.25,0,0,1-2.212.7,3.683,3.683,0,0,1-.674-.059A1.2,1.2,0,0,0,50.4-1.919a.525.525,0,0,0,.271.487,1.98,1.98,0,0,0,.93.157H53.02a3.182,3.182,0,0,1,2,.549,1.909,1.909,0,0,1,.7,1.6A2.279,2.279,0,0,1,54.653,2.9a5.723,5.723,0,0,1-3.12.7,4.263,4.263,0,0,1-2.428-.586,1.892,1.892,0,0,1-.853-1.655A1.859,1.859,0,0,1,48.721.1,2.387,2.387,0,0,1,50.039-.63a1.272,1.272,0,0,1-.516-.432,1.144,1.144,0,0,1-.209-.681,1.293,1.293,0,0,1,.234-.769,2.464,2.464,0,0,1,.74-.637,2.168,2.168,0,0,1-1.014-.872,2.561,2.561,0,0,1-.392-1.406,2.6,2.6,0,0,1,.791-2.032,3.23,3.23,0,0,1,2.241-.714,4.075,4.075,0,0,1,1.135.146Zm-6.4,9.375a1.09,1.09,0,0,0,.549.989,3.032,3.032,0,0,0,1.575.337,4.394,4.394,0,0,0,2.267-.458A1.4,1.4,0,0,0,54.551.974a.982.982,0,0,0-.4-.9,3.129,3.129,0,0,0-1.516-.253H51.174a1.92,1.92,0,0,0-1.289.4A1.413,1.413,0,0,0,49.424,1.348Zm.659-6.8a1.634,1.634,0,0,0,.476,1.274,1.9,1.9,0,0,0,1.326.432,1.551,1.551,0,0,0,1.78-1.729,1.6,1.6,0,0,0-1.8-1.809,1.784,1.784,0,0,0-1.318.461A1.858,1.858,0,0,0,50.083-5.457ZM62.41,0l-.242-1.143h-.059a3.378,3.378,0,0,1-1.2,1.022,3.65,3.65,0,0,1-1.49.267A2.681,2.681,0,0,1,57.55-.469a2.244,2.244,0,0,1-.677-1.75q0-2.432,3.889-2.549l1.362-.044v-.5a2.035,2.035,0,0,0-.406-1.4,1.672,1.672,0,0,0-1.3-.45,5.3,5.3,0,0,0-2.271.615l-.374-.93a5.713,5.713,0,0,1,1.3-.505,5.631,5.631,0,0,1,1.417-.183,3.058,3.058,0,0,1,2.128.637,2.66,2.66,0,0,1,.692,2.043V0ZM59.663-.857a2.468,2.468,0,0,0,1.783-.623,2.3,2.3,0,0,0,.648-1.743v-.725L60.879-3.9a4.422,4.422,0,0,0-2.091.45A1.358,1.358,0,0,0,58.147-2.2a1.253,1.253,0,0,0,.4,1A1.657,1.657,0,0,0,59.663-.857ZM76.7-2.461H75.11V0H73.945V-2.461H68.738V-3.523l5.083-7.244H75.11v7.2H76.7ZM73.945-3.567v-3.56q0-1.047.073-2.366H73.96A11.006,11.006,0,0,1,73.3-8.328L69.954-3.567ZM0,1H47.252V2H0ZM56.723,1H77V2H56.723Z" transform="translate(-10703 -15648)" fill="#007bc7"/>
      <g id="download-4" data-name="download" transform="translate(-10726 -15663)">
        <rect id="Rectangle_26-4" data-name="Rectangle 26" width="19" height="19" fill="none"/>
        <path id="Path_12409-4" data-name="Path 12409" d="M110.658,56.25h-1.325V52.292a.816.816,0,0,0-.833-.792h-3.333a.816.816,0,0,0-.833.792V56.25h-1.325a.79.79,0,0,0-.592,1.354l3.825,3.634a.861.861,0,0,0,1.175,0l3.825-3.634A.787.787,0,0,0,110.658,56.25ZM101,64.167a.816.816,0,0,0,.833.792h10a.793.793,0,1,0,0-1.583h-10A.816.816,0,0,0,101,64.167Z" transform="translate(-96.834 -48.73)" fill="#007bc7"/>
      </g>
    </g>
  </g>
</svg>
