<svg width="173" height="17" viewBox="0 0 173 17" fill="none" xmlns="http://www.w3.org/2000/svg">
<path d="M6.4375 13H0.0703125V1.57812H6.4375V2.75781H1.39844V6.4375H6.13281V7.60938H1.39844V11.8125H6.4375V13ZM14.6406 13V7.46094C14.6406 6.76302 14.4818 6.24219 14.1641 5.89844C13.8464 5.55469 13.349 5.38281 12.6719 5.38281C11.776 5.38281 11.1198 5.625 10.7031 6.10938C10.2865 6.59375 10.0781 7.39323 10.0781 8.50781V13H8.78125V4.4375H9.83594L10.0469 5.60938H10.1094C10.375 5.1875 10.7474 4.86198 11.2266 4.63281C11.7057 4.39844 12.2396 4.28125 12.8281 4.28125C13.8594 4.28125 14.6354 4.53125 15.1562 5.03125C15.6771 5.52604 15.9375 6.32031 15.9375 7.41406V13H14.6406ZM19.9062 13H18.6094V0.84375H19.9062V13ZM27.9219 13L27.6641 11.7812H27.6016C27.1745 12.3177 26.7474 12.6823 26.3203 12.875C25.8984 13.0625 25.3698 13.1562 24.7344 13.1562C23.8854 13.1562 23.2188 12.9375 22.7344 12.5C22.2552 12.0625 22.0156 11.4401 22.0156 10.6328C22.0156 8.90365 23.3984 7.9974 26.1641 7.91406L27.6172 7.86719V7.33594C27.6172 6.66406 27.4714 6.16927 27.1797 5.85156C26.8932 5.52865 26.4323 5.36719 25.7969 5.36719C25.0833 5.36719 24.276 5.58594 23.375 6.02344L22.9766 5.03125C23.3984 4.80208 23.8594 4.6224 24.3594 4.49219C24.8646 4.36198 25.3698 4.29688 25.875 4.29688C26.8958 4.29688 27.651 4.52344 28.1406 4.97656C28.6354 5.42969 28.8828 6.15625 28.8828 7.15625V13H27.9219ZM24.9922 12.0859C25.7995 12.0859 26.4323 11.8646 26.8906 11.4219C27.3542 10.9792 27.5859 10.3594 27.5859 9.5625V8.78906L26.2891 8.84375C25.2578 8.88021 24.513 9.04167 24.0547 9.32812C23.6016 9.60938 23.375 10.0495 23.375 10.6484C23.375 11.1172 23.5156 11.474 23.7969 11.7188C24.0833 11.9635 24.4818 12.0859 24.9922 12.0859ZM34.9844 13.1562C33.7448 13.1562 32.7839 12.776 32.1016 12.0156C31.4245 11.25 31.0859 10.1693 31.0859 8.77344C31.0859 7.34115 31.4297 6.23438 32.1172 5.45312C32.8099 4.67188 33.7943 4.28125 35.0703 4.28125C35.4818 4.28125 35.8932 4.32552 36.3047 4.41406C36.7161 4.5026 37.0391 4.60677 37.2734 4.72656L36.875 5.82812C36.5885 5.71354 36.276 5.61979 35.9375 5.54688C35.599 5.46875 35.2995 5.42969 35.0391 5.42969C33.2995 5.42969 32.4297 6.53906 32.4297 8.75781C32.4297 9.8099 32.6406 10.6172 33.0625 11.1797C33.4896 11.7422 34.1198 12.0234 34.9531 12.0234C35.6667 12.0234 36.3984 11.8698 37.1484 11.5625V12.7109C36.5755 13.0078 35.8542 13.1562 34.9844 13.1562ZM42.8047 13.1562C41.5391 13.1562 40.5391 12.7708 39.8047 12C39.0755 11.2292 38.7109 10.1589 38.7109 8.78906C38.7109 7.40885 39.0495 6.3125 39.7266 5.5C40.4089 4.6875 41.3229 4.28125 42.4688 4.28125C43.5417 4.28125 44.3906 4.63542 45.0156 5.34375C45.6406 6.04688 45.9531 6.97656 45.9531 8.13281V8.95312H40.0547C40.0807 9.95833 40.3333 10.7214 40.8125 11.2422C41.2969 11.763 41.9766 12.0234 42.8516 12.0234C43.7734 12.0234 44.6849 11.8307 45.5859 11.4453V12.6016C45.1276 12.7995 44.6927 12.9401 44.2812 13.0234C43.875 13.112 43.3828 13.1562 42.8047 13.1562ZM42.4531 5.36719C41.7656 5.36719 41.2161 5.59115 40.8047 6.03906C40.3984 6.48698 40.1589 7.10677 40.0859 7.89844H44.5625C44.5625 7.08073 44.3802 6.45573 44.0156 6.02344C43.651 5.58594 43.1302 5.36719 42.4531 5.36719ZM56.3125 13.1562C55.7552 13.1562 55.2448 13.0547 54.7812 12.8516C54.3229 12.6432 53.9375 12.3255 53.625 11.8984H53.5312C53.5938 12.3984 53.625 12.8724 53.625 13.3203V16.8438H52.3281V4.4375H53.3828L53.5625 5.60938H53.625C53.9583 5.14062 54.3464 4.80208 54.7891 4.59375C55.2318 4.38542 55.7396 4.28125 56.3125 4.28125C57.4479 4.28125 58.3229 4.66927 58.9375 5.44531C59.5573 6.22135 59.8672 7.3099 59.8672 8.71094C59.8672 10.1172 59.5521 11.2109 58.9219 11.9922C58.2969 12.7682 57.4271 13.1562 56.3125 13.1562ZM56.125 5.38281C55.25 5.38281 54.6172 5.625 54.2266 6.10938C53.8359 6.59375 53.6354 7.36458 53.625 8.42188V8.71094C53.625 9.91406 53.8255 10.776 54.2266 11.2969C54.6276 11.8125 55.2708 12.0703 56.1562 12.0703C56.8958 12.0703 57.474 11.7708 57.8906 11.1719C58.3125 10.5729 58.5234 9.7474 58.5234 8.69531C58.5234 7.6276 58.3125 6.8099 57.8906 6.24219C57.474 5.66927 56.8854 5.38281 56.125 5.38281ZM66.0469 4.28125C66.4271 4.28125 66.7682 4.3125 67.0703 4.375L66.8906 5.57812C66.5365 5.5 66.224 5.46094 65.9531 5.46094C65.2604 5.46094 64.6667 5.74219 64.1719 6.30469C63.6823 6.86719 63.4375 7.56771 63.4375 8.40625V13H62.1406V4.4375H63.2109L63.3594 6.02344H63.4219C63.7396 5.46615 64.1224 5.03646 64.5703 4.73438C65.0182 4.43229 65.5104 4.28125 66.0469 4.28125ZM72.2891 13.1562C71.0234 13.1562 70.0234 12.7708 69.2891 12C68.5599 11.2292 68.1953 10.1589 68.1953 8.78906C68.1953 7.40885 68.5339 6.3125 69.2109 5.5C69.8932 4.6875 70.8073 4.28125 71.9531 4.28125C73.026 4.28125 73.875 4.63542 74.5 5.34375C75.125 6.04688 75.4375 6.97656 75.4375 8.13281V8.95312H69.5391C69.5651 9.95833 69.8177 10.7214 70.2969 11.2422C70.7812 11.763 71.4609 12.0234 72.3359 12.0234C73.2578 12.0234 74.1693 11.8307 75.0703 11.4453V12.6016C74.612 12.7995 74.1771 12.9401 73.7656 13.0234C73.3594 13.112 72.8672 13.1562 72.2891 13.1562ZM71.9375 5.36719C71.25 5.36719 70.7005 5.59115 70.2891 6.03906C69.8828 6.48698 69.6432 7.10677 69.5703 7.89844H74.0469C74.0469 7.08073 73.8646 6.45573 73.5 6.02344C73.1354 5.58594 72.6146 5.36719 71.9375 5.36719ZM83.4844 11.8516H83.4141C82.8151 12.7214 81.9193 13.1562 80.7266 13.1562C79.6068 13.1562 78.7344 12.7734 78.1094 12.0078C77.4896 11.2422 77.1797 10.1536 77.1797 8.74219C77.1797 7.33073 77.4922 6.23438 78.1172 5.45312C78.7422 4.67188 79.612 4.28125 80.7266 4.28125C81.888 4.28125 82.7786 4.70312 83.3984 5.54688H83.5L83.4453 4.92969L83.4141 4.32812V0.84375H84.7109V13H83.6562L83.4844 11.8516ZM80.8906 12.0703C81.776 12.0703 82.4167 11.8307 82.8125 11.3516C83.2135 10.8672 83.4141 10.0885 83.4141 9.01562V8.74219C83.4141 7.52865 83.2109 6.66406 82.8047 6.14844C82.4036 5.6276 81.7604 5.36719 80.875 5.36719C80.1146 5.36719 79.5312 5.66406 79.125 6.25781C78.724 6.84635 78.5234 7.67969 78.5234 8.75781C78.5234 9.85156 78.724 10.6771 79.125 11.2344C79.526 11.7917 80.1146 12.0703 80.8906 12.0703ZM91.0859 13.1562C89.8203 13.1562 88.8203 12.7708 88.0859 12C87.3568 11.2292 86.9922 10.1589 86.9922 8.78906C86.9922 7.40885 87.3307 6.3125 88.0078 5.5C88.6901 4.6875 89.6042 4.28125 90.75 4.28125C91.8229 4.28125 92.6719 4.63542 93.2969 5.34375C93.9219 6.04688 94.2344 6.97656 94.2344 8.13281V8.95312H88.3359C88.362 9.95833 88.6146 10.7214 89.0938 11.2422C89.5781 11.763 90.2578 12.0234 91.1328 12.0234C92.0547 12.0234 92.9661 11.8307 93.8672 11.4453V12.6016C93.4089 12.7995 92.974 12.9401 92.5625 13.0234C92.1562 13.112 91.6641 13.1562 91.0859 13.1562ZM90.7344 5.36719C90.0469 5.36719 89.4974 5.59115 89.0859 6.03906C88.6797 6.48698 88.4401 7.10677 88.3672 7.89844H92.8438C92.8438 7.08073 92.6615 6.45573 92.2969 6.02344C91.9323 5.58594 91.4115 5.36719 90.7344 5.36719ZM99.2188 12.0859C99.4479 12.0859 99.6693 12.0703 99.8828 12.0391C100.096 12.0026 100.266 11.9661 100.391 11.9297V12.9219C100.25 12.9896 100.042 13.0443 99.7656 13.0859C99.4948 13.1328 99.25 13.1562 99.0312 13.1562C97.375 13.1562 96.5469 12.2839 96.5469 10.5391V5.44531H95.3203V4.82031L96.5469 4.28125L97.0938 2.45312H97.8438V4.4375H100.328V5.44531H97.8438V10.4844C97.8438 11 97.9661 11.3958 98.2109 11.6719C98.4557 11.9479 98.7917 12.0859 99.2188 12.0859ZM105.727 13.1562C104.461 13.1562 103.461 12.7708 102.727 12C101.997 11.2292 101.633 10.1589 101.633 8.78906C101.633 7.40885 101.971 6.3125 102.648 5.5C103.331 4.6875 104.245 4.28125 105.391 4.28125C106.464 4.28125 107.312 4.63542 107.938 5.34375C108.562 6.04688 108.875 6.97656 108.875 8.13281V8.95312H102.977C103.003 9.95833 103.255 10.7214 103.734 11.2422C104.219 11.763 104.898 12.0234 105.773 12.0234C106.695 12.0234 107.607 11.8307 108.508 11.4453V12.6016C108.049 12.7995 107.615 12.9401 107.203 13.0234C106.797 13.112 106.305 13.1562 105.727 13.1562ZM105.375 5.36719C104.688 5.36719 104.138 5.59115 103.727 6.03906C103.32 6.48698 103.081 7.10677 103.008 7.89844H107.484C107.484 7.08073 107.302 6.45573 106.938 6.02344C106.573 5.58594 106.052 5.36719 105.375 5.36719ZM115 4.28125C115.38 4.28125 115.721 4.3125 116.023 4.375L115.844 5.57812C115.49 5.5 115.177 5.46094 114.906 5.46094C114.214 5.46094 113.62 5.74219 113.125 6.30469C112.635 6.86719 112.391 7.56771 112.391 8.40625V13H111.094V4.4375H112.164L112.312 6.02344H112.375C112.693 5.46615 113.076 5.03646 113.523 4.73438C113.971 4.43229 114.464 4.28125 115 4.28125ZM128.539 13V7.42969C128.539 6.7474 128.393 6.23698 128.102 5.89844C127.81 5.55469 127.357 5.38281 126.742 5.38281C125.935 5.38281 125.339 5.61458 124.953 6.07812C124.568 6.54167 124.375 7.25521 124.375 8.21875V13H123.078V7.42969C123.078 6.7474 122.932 6.23698 122.641 5.89844C122.349 5.55469 121.893 5.38281 121.273 5.38281C120.461 5.38281 119.865 5.6276 119.484 6.11719C119.109 6.60156 118.922 7.39844 118.922 8.50781V13H117.625V4.4375H118.68L118.891 5.60938H118.953C119.198 5.19271 119.542 4.86719 119.984 4.63281C120.432 4.39844 120.932 4.28125 121.484 4.28125C122.823 4.28125 123.698 4.76562 124.109 5.73438H124.172C124.427 5.28646 124.797 4.93229 125.281 4.67188C125.766 4.41146 126.318 4.28125 126.938 4.28125C127.906 4.28125 128.63 4.53125 129.109 5.03125C129.594 5.52604 129.836 6.32031 129.836 7.41406V13H128.539ZM133.812 13H132.516V4.4375H133.812V13ZM132.406 2.11719C132.406 1.82031 132.479 1.60417 132.625 1.46875C132.771 1.32812 132.953 1.25781 133.172 1.25781C133.38 1.25781 133.56 1.32812 133.711 1.46875C133.862 1.60938 133.938 1.82552 133.938 2.11719C133.938 2.40885 133.862 2.6276 133.711 2.77344C133.56 2.91406 133.38 2.98438 133.172 2.98438C132.953 2.98438 132.771 2.91406 132.625 2.77344C132.479 2.6276 132.406 2.40885 132.406 2.11719ZM142.422 13V7.46094C142.422 6.76302 142.263 6.24219 141.945 5.89844C141.628 5.55469 141.13 5.38281 140.453 5.38281C139.557 5.38281 138.901 5.625 138.484 6.10938C138.068 6.59375 137.859 7.39323 137.859 8.50781V13H136.562V4.4375H137.617L137.828 5.60938H137.891C138.156 5.1875 138.529 4.86198 139.008 4.63281C139.487 4.39844 140.021 4.28125 140.609 4.28125C141.641 4.28125 142.417 4.53125 142.938 5.03125C143.458 5.52604 143.719 6.32031 143.719 7.41406V13H142.422ZM151.656 13L151.398 11.7812H151.336C150.909 12.3177 150.482 12.6823 150.055 12.875C149.633 13.0625 149.104 13.1562 148.469 13.1562C147.62 13.1562 146.953 12.9375 146.469 12.5C145.99 12.0625 145.75 11.4401 145.75 10.6328C145.75 8.90365 147.133 7.9974 149.898 7.91406L151.352 7.86719V7.33594C151.352 6.66406 151.206 6.16927 150.914 5.85156C150.628 5.52865 150.167 5.36719 149.531 5.36719C148.818 5.36719 148.01 5.58594 147.109 6.02344L146.711 5.03125C147.133 4.80208 147.594 4.6224 148.094 4.49219C148.599 4.36198 149.104 4.29688 149.609 4.29688C150.63 4.29688 151.385 4.52344 151.875 4.97656C152.37 5.42969 152.617 6.15625 152.617 7.15625V13H151.656ZM148.727 12.0859C149.534 12.0859 150.167 11.8646 150.625 11.4219C151.089 10.9792 151.32 10.3594 151.32 9.5625V8.78906L150.023 8.84375C148.992 8.88021 148.247 9.04167 147.789 9.32812C147.336 9.60938 147.109 10.0495 147.109 10.6484C147.109 11.1172 147.25 11.474 147.531 11.7188C147.818 11.9635 148.216 12.0859 148.727 12.0859ZM161.125 11.8516H161.055C160.456 12.7214 159.56 13.1562 158.367 13.1562C157.247 13.1562 156.375 12.7734 155.75 12.0078C155.13 11.2422 154.82 10.1536 154.82 8.74219C154.82 7.33073 155.133 6.23438 155.758 5.45312C156.383 4.67188 157.253 4.28125 158.367 4.28125C159.529 4.28125 160.419 4.70312 161.039 5.54688H161.141L161.086 4.92969L161.055 4.32812V0.84375H162.352V13H161.297L161.125 11.8516ZM158.531 12.0703C159.417 12.0703 160.057 11.8307 160.453 11.3516C160.854 10.8672 161.055 10.0885 161.055 9.01562V8.74219C161.055 7.52865 160.852 6.66406 160.445 6.14844C160.044 5.6276 159.401 5.36719 158.516 5.36719C157.755 5.36719 157.172 5.66406 156.766 6.25781C156.365 6.84635 156.164 7.67969 156.164 8.75781C156.164 9.85156 156.365 10.6771 156.766 11.2344C157.167 11.7917 157.755 12.0703 158.531 12.0703ZM172.5 8.71094C172.5 10.1068 172.148 11.1979 171.445 11.9844C170.742 12.7656 169.771 13.1562 168.531 13.1562C167.766 13.1562 167.086 12.9766 166.492 12.6172C165.898 12.2578 165.44 11.7422 165.117 11.0703C164.794 10.3984 164.633 9.61198 164.633 8.71094C164.633 7.3151 164.982 6.22917 165.68 5.45312C166.378 4.67188 167.346 4.28125 168.586 4.28125C169.784 4.28125 170.734 4.67969 171.438 5.47656C172.146 6.27344 172.5 7.35156 172.5 8.71094ZM165.977 8.71094C165.977 9.80469 166.195 10.638 166.633 11.2109C167.07 11.7839 167.714 12.0703 168.562 12.0703C169.411 12.0703 170.055 11.7865 170.492 11.2188C170.935 10.6458 171.156 9.8099 171.156 8.71094C171.156 7.6224 170.935 6.79688 170.492 6.23438C170.055 5.66667 169.406 5.38281 168.547 5.38281C167.698 5.38281 167.057 5.66146 166.625 6.21875C166.193 6.77604 165.977 7.60677 165.977 8.71094Z" fill="#007BC7"/>
<path d="M-1.5 14.6016H173.398V15.3984H-1.5V14.6016Z" fill="#007BC7"/>
</svg>
