<svg width="166" height="24" viewBox="0 0 166 24" fill="none" xmlns="http://www.w3.org/2000/svg">
<path d="M14.325 9.91667H13V5.75001C13 5.29167 12.625 4.91667 12.1666 4.91667H8.83329C8.37496 4.91667 7.99996 5.29167 7.99996 5.75001V9.91667H6.67496C5.93329 9.91667 5.55829 10.8167 6.08329 11.3417L9.90829 15.1667C10.2333 15.4917 10.7583 15.4917 11.0833 15.1667L14.9083 11.3417C15.4333 10.8167 15.0666 9.91667 14.325 9.91667ZM4.66663 18.25C4.66663 18.7083 5.04163 19.0833 5.49996 19.0833H15.5C15.9583 19.0833 16.3333 18.7083 16.3333 18.25C16.3333 17.7917 15.9583 17.4167 15.5 17.4167H5.49996C5.04163 17.4167 4.66663 17.7917 4.66663 18.25Z" fill="#007BC7"/>
<path d="M30.4375 18H24.0703V6.57812H30.4375V7.75781H25.3984V11.4375H30.1328V12.6094H25.3984V16.8125H30.4375V18ZM38.6406 18V12.4609C38.6406 11.763 38.4818 11.2422 38.1641 10.8984C37.8464 10.5547 37.349 10.3828 36.6719 10.3828C35.776 10.3828 35.1198 10.625 34.7031 11.1094C34.2865 11.5938 34.0781 12.3932 34.0781 13.5078V18H32.7812V9.4375H33.8359L34.0469 10.6094H34.1094C34.375 10.1875 34.7474 9.86198 35.2266 9.63281C35.7057 9.39844 36.2396 9.28125 36.8281 9.28125C37.8594 9.28125 38.6354 9.53125 39.1562 10.0312C39.6771 10.526 39.9375 11.3203 39.9375 12.4141V18H38.6406ZM43.9062 18H42.6094V5.84375H43.9062V18ZM51.9219 18L51.6641 16.7812H51.6016C51.1745 17.3177 50.7474 17.6823 50.3203 17.875C49.8984 18.0625 49.3698 18.1562 48.7344 18.1562C47.8854 18.1562 47.2188 17.9375 46.7344 17.5C46.2552 17.0625 46.0156 16.4401 46.0156 15.6328C46.0156 13.9036 47.3984 12.9974 50.1641 12.9141L51.6172 12.8672V12.3359C51.6172 11.6641 51.4714 11.1693 51.1797 10.8516C50.8932 10.5286 50.4323 10.3672 49.7969 10.3672C49.0833 10.3672 48.276 10.5859 47.375 11.0234L46.9766 10.0312C47.3984 9.80208 47.8594 9.6224 48.3594 9.49219C48.8646 9.36198 49.3698 9.29688 49.875 9.29688C50.8958 9.29688 51.651 9.52344 52.1406 9.97656C52.6354 10.4297 52.8828 11.1562 52.8828 12.1562V18H51.9219ZM48.9922 17.0859C49.7995 17.0859 50.4323 16.8646 50.8906 16.4219C51.3542 15.9792 51.5859 15.3594 51.5859 14.5625V13.7891L50.2891 13.8438C49.2578 13.8802 48.513 14.0417 48.0547 14.3281C47.6016 14.6094 47.375 15.0495 47.375 15.6484C47.375 16.1172 47.5156 16.474 47.7969 16.7188C48.0833 16.9635 48.4818 17.0859 48.9922 17.0859ZM58.9844 18.1562C57.7448 18.1562 56.7839 17.776 56.1016 17.0156C55.4245 16.25 55.0859 15.1693 55.0859 13.7734C55.0859 12.3411 55.4297 11.2344 56.1172 10.4531C56.8099 9.67188 57.7943 9.28125 59.0703 9.28125C59.4818 9.28125 59.8932 9.32552 60.3047 9.41406C60.7161 9.5026 61.0391 9.60677 61.2734 9.72656L60.875 10.8281C60.5885 10.7135 60.276 10.6198 59.9375 10.5469C59.599 10.4688 59.2995 10.4297 59.0391 10.4297C57.2995 10.4297 56.4297 11.5391 56.4297 13.7578C56.4297 14.8099 56.6406 15.6172 57.0625 16.1797C57.4896 16.7422 58.1198 17.0234 58.9531 17.0234C59.6667 17.0234 60.3984 16.8698 61.1484 16.5625V17.7109C60.5755 18.0078 59.8542 18.1562 58.9844 18.1562ZM66.8047 18.1562C65.5391 18.1562 64.5391 17.7708 63.8047 17C63.0755 16.2292 62.7109 15.1589 62.7109 13.7891C62.7109 12.4089 63.0495 11.3125 63.7266 10.5C64.4089 9.6875 65.3229 9.28125 66.4688 9.28125C67.5417 9.28125 68.3906 9.63542 69.0156 10.3438C69.6406 11.0469 69.9531 11.9766 69.9531 13.1328V13.9531H64.0547C64.0807 14.9583 64.3333 15.7214 64.8125 16.2422C65.2969 16.763 65.9766 17.0234 66.8516 17.0234C67.7734 17.0234 68.6849 16.8307 69.5859 16.4453V17.6016C69.1276 17.7995 68.6927 17.9401 68.2812 18.0234C67.875 18.112 67.3828 18.1562 66.8047 18.1562ZM66.4531 10.3672C65.7656 10.3672 65.2161 10.5911 64.8047 11.0391C64.3984 11.487 64.1589 12.1068 64.0859 12.8984H68.5625C68.5625 12.0807 68.3802 11.4557 68.0156 11.0234C67.651 10.5859 67.1302 10.3672 66.4531 10.3672ZM82.1562 16.8516H82.0859C81.487 17.7214 80.5911 18.1562 79.3984 18.1562C78.2786 18.1562 77.4062 17.7734 76.7812 17.0078C76.1615 16.2422 75.8516 15.1536 75.8516 13.7422C75.8516 12.3307 76.1641 11.2344 76.7891 10.4531C77.4141 9.67188 78.2839 9.28125 79.3984 9.28125C80.5599 9.28125 81.4505 9.70312 82.0703 10.5469H82.1719L82.1172 9.92969L82.0859 9.32812V5.84375H83.3828V18H82.3281L82.1562 16.8516ZM79.5625 17.0703C80.4479 17.0703 81.0885 16.8307 81.4844 16.3516C81.8854 15.8672 82.0859 15.0885 82.0859 14.0156V13.7422C82.0859 12.5286 81.8828 11.6641 81.4766 11.1484C81.0755 10.6276 80.4323 10.3672 79.5469 10.3672C78.7865 10.3672 78.2031 10.6641 77.7969 11.2578C77.3958 11.8464 77.1953 12.6797 77.1953 13.7578C77.1953 14.8516 77.3958 15.6771 77.7969 16.2344C78.1979 16.7917 78.7865 17.0703 79.5625 17.0703ZM89.7578 18.1562C88.4922 18.1562 87.4922 17.7708 86.7578 17C86.0286 16.2292 85.6641 15.1589 85.6641 13.7891C85.6641 12.4089 86.0026 11.3125 86.6797 10.5C87.362 9.6875 88.276 9.28125 89.4219 9.28125C90.4948 9.28125 91.3438 9.63542 91.9688 10.3438C92.5938 11.0469 92.9062 11.9766 92.9062 13.1328V13.9531H87.0078C87.0339 14.9583 87.2865 15.7214 87.7656 16.2422C88.25 16.763 88.9297 17.0234 89.8047 17.0234C90.7266 17.0234 91.638 16.8307 92.5391 16.4453V17.6016C92.0807 17.7995 91.6458 17.9401 91.2344 18.0234C90.8281 18.112 90.3359 18.1562 89.7578 18.1562ZM89.4062 10.3672C88.7188 10.3672 88.1693 10.5911 87.7578 11.0391C87.3516 11.487 87.112 12.1068 87.0391 12.8984H91.5156C91.5156 12.0807 91.3333 11.4557 90.9688 11.0234C90.6042 10.5859 90.0833 10.3672 89.4062 10.3672ZM105.109 16.8516H105.039C104.44 17.7214 103.544 18.1562 102.352 18.1562C101.232 18.1562 100.359 17.7734 99.7344 17.0078C99.1146 16.2422 98.8047 15.1536 98.8047 13.7422C98.8047 12.3307 99.1172 11.2344 99.7422 10.4531C100.367 9.67188 101.237 9.28125 102.352 9.28125C103.513 9.28125 104.404 9.70312 105.023 10.5469H105.125L105.07 9.92969L105.039 9.32812V5.84375H106.336V18H105.281L105.109 16.8516ZM102.516 17.0703C103.401 17.0703 104.042 16.8307 104.438 16.3516C104.839 15.8672 105.039 15.0885 105.039 14.0156V13.7422C105.039 12.5286 104.836 11.6641 104.43 11.1484C104.029 10.6276 103.385 10.3672 102.5 10.3672C101.74 10.3672 101.156 10.6641 100.75 11.2578C100.349 11.8464 100.148 12.6797 100.148 13.7578C100.148 14.8516 100.349 15.6771 100.75 16.2344C101.151 16.7917 101.74 17.0703 102.516 17.0703ZM112.711 18.1562C111.445 18.1562 110.445 17.7708 109.711 17C108.982 16.2292 108.617 15.1589 108.617 13.7891C108.617 12.4089 108.956 11.3125 109.633 10.5C110.315 9.6875 111.229 9.28125 112.375 9.28125C113.448 9.28125 114.297 9.63542 114.922 10.3438C115.547 11.0469 115.859 11.9766 115.859 13.1328V13.9531H109.961C109.987 14.9583 110.24 15.7214 110.719 16.2422C111.203 16.763 111.883 17.0234 112.758 17.0234C113.68 17.0234 114.591 16.8307 115.492 16.4453V17.6016C115.034 17.7995 114.599 17.9401 114.188 18.0234C113.781 18.112 113.289 18.1562 112.711 18.1562ZM112.359 10.3672C111.672 10.3672 111.122 10.5911 110.711 11.0391C110.305 11.487 110.065 12.1068 109.992 12.8984H114.469C114.469 12.0807 114.286 11.4557 113.922 11.0234C113.557 10.5859 113.036 10.3672 112.359 10.3672ZM123.602 15.6641C123.602 16.4609 123.305 17.0755 122.711 17.5078C122.117 17.9401 121.284 18.1562 120.211 18.1562C119.076 18.1562 118.19 17.9766 117.555 17.6172V16.4141C117.966 16.6224 118.406 16.7865 118.875 16.9062C119.349 17.026 119.805 17.0859 120.242 17.0859C120.919 17.0859 121.44 16.9792 121.805 16.7656C122.169 16.5469 122.352 16.2161 122.352 15.7734C122.352 15.4401 122.206 15.1562 121.914 14.9219C121.628 14.6823 121.065 14.401 120.227 14.0781C119.43 13.7812 118.862 13.5234 118.523 13.3047C118.19 13.0807 117.94 12.8281 117.773 12.5469C117.612 12.2656 117.531 11.9297 117.531 11.5391C117.531 10.8411 117.815 10.2917 118.383 9.89062C118.951 9.48438 119.729 9.28125 120.719 9.28125C121.641 9.28125 122.542 9.46875 123.422 9.84375L122.961 10.8984C122.102 10.5443 121.323 10.3672 120.625 10.3672C120.01 10.3672 119.547 10.4635 119.234 10.6562C118.922 10.849 118.766 11.1146 118.766 11.4531C118.766 11.6823 118.823 11.8776 118.938 12.0391C119.057 12.2005 119.247 12.3542 119.508 12.5C119.768 12.6458 120.268 12.8568 121.008 13.1328C122.023 13.5026 122.708 13.875 123.062 14.25C123.422 14.625 123.602 15.0964 123.602 15.6641ZM129.141 18.1562C127.901 18.1562 126.94 17.776 126.258 17.0156C125.581 16.25 125.242 15.1693 125.242 13.7734C125.242 12.3411 125.586 11.2344 126.273 10.4531C126.966 9.67188 127.951 9.28125 129.227 9.28125C129.638 9.28125 130.049 9.32552 130.461 9.41406C130.872 9.5026 131.195 9.60677 131.43 9.72656L131.031 10.8281C130.745 10.7135 130.432 10.6198 130.094 10.5469C129.755 10.4688 129.456 10.4297 129.195 10.4297C127.456 10.4297 126.586 11.5391 126.586 13.7578C126.586 14.8099 126.797 15.6172 127.219 16.1797C127.646 16.7422 128.276 17.0234 129.109 17.0234C129.823 17.0234 130.555 16.8698 131.305 16.5625V17.7109C130.732 18.0078 130.01 18.1562 129.141 18.1562ZM138.609 18L138.352 16.7812H138.289C137.862 17.3177 137.435 17.6823 137.008 17.875C136.586 18.0625 136.057 18.1562 135.422 18.1562C134.573 18.1562 133.906 17.9375 133.422 17.5C132.943 17.0625 132.703 16.4401 132.703 15.6328C132.703 13.9036 134.086 12.9974 136.852 12.9141L138.305 12.8672V12.3359C138.305 11.6641 138.159 11.1693 137.867 10.8516C137.581 10.5286 137.12 10.3672 136.484 10.3672C135.771 10.3672 134.964 10.5859 134.062 11.0234L133.664 10.0312C134.086 9.80208 134.547 9.6224 135.047 9.49219C135.552 9.36198 136.057 9.29688 136.562 9.29688C137.583 9.29688 138.339 9.52344 138.828 9.97656C139.323 10.4297 139.57 11.1562 139.57 12.1562V18H138.609ZM135.68 17.0859C136.487 17.0859 137.12 16.8646 137.578 16.4219C138.042 15.9792 138.273 15.3594 138.273 14.5625V13.7891L136.977 13.8438C135.945 13.8802 135.201 14.0417 134.742 14.3281C134.289 14.6094 134.062 15.0495 134.062 15.6484C134.062 16.1172 134.203 16.474 134.484 16.7188C134.771 16.9635 135.169 17.0859 135.68 17.0859ZM146.156 9.28125C146.536 9.28125 146.878 9.3125 147.18 9.375L147 10.5781C146.646 10.5 146.333 10.4609 146.062 10.4609C145.37 10.4609 144.776 10.7422 144.281 11.3047C143.792 11.8672 143.547 12.5677 143.547 13.4062V18H142.25V9.4375H143.32L143.469 11.0234H143.531C143.849 10.4661 144.232 10.0365 144.68 9.73438C145.128 9.43229 145.62 9.28125 146.156 9.28125ZM155.789 9.4375V10.2578L154.203 10.4453C154.349 10.6276 154.479 10.8672 154.594 11.1641C154.708 11.4557 154.766 11.7865 154.766 12.1562C154.766 12.9948 154.479 13.6641 153.906 14.1641C153.333 14.6641 152.547 14.9141 151.547 14.9141C151.292 14.9141 151.052 14.8932 150.828 14.8516C150.276 15.1432 150 15.5104 150 15.9531C150 16.1875 150.096 16.362 150.289 16.4766C150.482 16.5859 150.812 16.6406 151.281 16.6406H152.797C153.724 16.6406 154.435 16.8359 154.93 17.2266C155.43 17.6172 155.68 18.1849 155.68 18.9297C155.68 19.8776 155.299 20.599 154.539 21.0938C153.779 21.5938 152.669 21.8438 151.211 21.8438C150.091 21.8438 149.227 21.6354 148.617 21.2188C148.013 20.8021 147.711 20.2135 147.711 19.4531C147.711 18.9323 147.878 18.4818 148.211 18.1016C148.544 17.7214 149.013 17.4635 149.617 17.3281C149.398 17.2292 149.214 17.0755 149.062 16.8672C148.917 16.6589 148.844 16.4167 148.844 16.1406C148.844 15.8281 148.927 15.5547 149.094 15.3203C149.26 15.0859 149.523 14.8594 149.883 14.6406C149.44 14.4583 149.078 14.1484 148.797 13.7109C148.521 13.2734 148.383 12.7734 148.383 12.2109C148.383 11.2734 148.664 10.5521 149.227 10.0469C149.789 9.53646 150.586 9.28125 151.617 9.28125C152.065 9.28125 152.469 9.33333 152.828 9.4375H155.789ZM148.961 19.4375C148.961 19.901 149.156 20.2526 149.547 20.4922C149.938 20.7318 150.497 20.8516 151.227 20.8516C152.315 20.8516 153.12 20.6875 153.641 20.3594C154.167 20.0365 154.43 19.5964 154.43 19.0391C154.43 18.5755 154.286 18.2526 154 18.0703C153.714 17.8932 153.174 17.8047 152.383 17.8047H150.828C150.24 17.8047 149.781 17.9453 149.453 18.2266C149.125 18.5078 148.961 18.9115 148.961 19.4375ZM149.664 12.1797C149.664 12.7786 149.833 13.2318 150.172 13.5391C150.51 13.8464 150.982 14 151.586 14C152.852 14 153.484 13.3854 153.484 12.1562C153.484 10.8698 152.844 10.2266 151.562 10.2266C150.953 10.2266 150.484 10.3906 150.156 10.7188C149.828 11.0469 149.664 11.5339 149.664 12.1797ZM162.812 18L162.555 16.7812H162.492C162.065 17.3177 161.638 17.6823 161.211 17.875C160.789 18.0625 160.26 18.1562 159.625 18.1562C158.776 18.1562 158.109 17.9375 157.625 17.5C157.146 17.0625 156.906 16.4401 156.906 15.6328C156.906 13.9036 158.289 12.9974 161.055 12.9141L162.508 12.8672V12.3359C162.508 11.6641 162.362 11.1693 162.07 10.8516C161.784 10.5286 161.323 10.3672 160.688 10.3672C159.974 10.3672 159.167 10.5859 158.266 11.0234L157.867 10.0312C158.289 9.80208 158.75 9.6224 159.25 9.49219C159.755 9.36198 160.26 9.29688 160.766 9.29688C161.786 9.29688 162.542 9.52344 163.031 9.97656C163.526 10.4297 163.773 11.1562 163.773 12.1562V18H162.812ZM159.883 17.0859C160.69 17.0859 161.323 16.8646 161.781 16.4219C162.245 15.9792 162.477 15.3594 162.477 14.5625V13.7891L161.18 13.8438C160.148 13.8802 159.404 14.0417 158.945 14.3281C158.492 14.6094 158.266 15.0495 158.266 15.6484C158.266 16.1172 158.406 16.474 158.688 16.7188C158.974 16.9635 159.372 17.0859 159.883 17.0859Z" fill="#007BC7"/>
<path d="M22.5 19.6016H165.07V20.3984H22.5V19.6016Z" fill="#007BC7"/>
</svg>
