<svg width="712" height="230" viewBox="0 0 712 230" fill="none" xmlns="http://www.w3.org/2000/svg">
<rect x="1" y="1" width="710" height="228" rx="7" fill="#F3F6F9" stroke="#E6EBF0" stroke-width="2"/>
<rect width="145" height="168" transform="translate(295 31)" fill="#F3F6F9"/>
<path d="M303.812 40.9062C303.812 42.0625 303.417 42.9531 302.625 43.5781C301.839 44.1979 300.711 44.5078 299.242 44.5078H297.898V49H296.57V37.5781H299.531C302.385 37.5781 303.812 38.6875 303.812 40.9062ZM297.898 43.3672H299.094C300.271 43.3672 301.122 43.1771 301.648 42.7969C302.174 42.4167 302.438 41.8073 302.438 40.9688C302.438 40.2135 302.19 39.651 301.695 39.2812C301.201 38.9115 300.43 38.7266 299.383 38.7266H297.898V43.3672ZM309.922 40.2812C310.302 40.2812 310.643 40.3125 310.945 40.375L310.766 41.5781C310.411 41.5 310.099 41.4609 309.828 41.4609C309.135 41.4609 308.542 41.7422 308.047 42.3047C307.557 42.8672 307.312 43.5677 307.312 44.4062V49H306.016V40.4375H307.086L307.234 42.0234H307.297C307.615 41.4661 307.997 41.0365 308.445 40.7344C308.893 40.4323 309.385 40.2812 309.922 40.2812ZM316.164 49.1562C314.898 49.1562 313.898 48.7708 313.164 48C312.435 47.2292 312.07 46.1589 312.07 44.7891C312.07 43.4089 312.409 42.3125 313.086 41.5C313.768 40.6875 314.682 40.2812 315.828 40.2812C316.901 40.2812 317.75 40.6354 318.375 41.3438C319 42.0469 319.312 42.9766 319.312 44.1328V44.9531H313.414C313.44 45.9583 313.693 46.7214 314.172 47.2422C314.656 47.763 315.336 48.0234 316.211 48.0234C317.133 48.0234 318.044 47.8307 318.945 47.4453V48.6016C318.487 48.7995 318.052 48.9401 317.641 49.0234C317.234 49.112 316.742 49.1562 316.164 49.1562ZM315.812 41.3672C315.125 41.3672 314.576 41.5911 314.164 42.0391C313.758 42.487 313.518 43.1068 313.445 43.8984H317.922C317.922 43.0807 317.74 42.4557 317.375 42.0234C317.01 41.5859 316.49 41.3672 315.812 41.3672ZM327.359 47.8516H327.289C326.69 48.7214 325.794 49.1562 324.602 49.1562C323.482 49.1562 322.609 48.7734 321.984 48.0078C321.365 47.2422 321.055 46.1536 321.055 44.7422C321.055 43.3307 321.367 42.2344 321.992 41.4531C322.617 40.6719 323.487 40.2812 324.602 40.2812C325.763 40.2812 326.654 40.7031 327.273 41.5469H327.375L327.32 40.9297L327.289 40.3281V36.8438H328.586V49H327.531L327.359 47.8516ZM324.766 48.0703C325.651 48.0703 326.292 47.8307 326.688 47.3516C327.089 46.8672 327.289 46.0885 327.289 45.0156V44.7422C327.289 43.5286 327.086 42.6641 326.68 42.1484C326.279 41.6276 325.635 41.3672 324.75 41.3672C323.99 41.3672 323.406 41.6641 323 42.2578C322.599 42.8464 322.398 43.6797 322.398 44.7578C322.398 45.8516 322.599 46.6771 323 47.2344C323.401 47.7917 323.99 48.0703 324.766 48.0703ZM334.961 49.1562C333.695 49.1562 332.695 48.7708 331.961 48C331.232 47.2292 330.867 46.1589 330.867 44.7891C330.867 43.4089 331.206 42.3125 331.883 41.5C332.565 40.6875 333.479 40.2812 334.625 40.2812C335.698 40.2812 336.547 40.6354 337.172 41.3438C337.797 42.0469 338.109 42.9766 338.109 44.1328V44.9531H332.211C332.237 45.9583 332.49 46.7214 332.969 47.2422C333.453 47.763 334.133 48.0234 335.008 48.0234C335.93 48.0234 336.841 47.8307 337.742 47.4453V48.6016C337.284 48.7995 336.849 48.9401 336.438 49.0234C336.031 49.112 335.539 49.1562 334.961 49.1562ZM334.609 41.3672C333.922 41.3672 333.372 41.5911 332.961 42.0391C332.555 42.487 332.315 43.1068 332.242 43.8984H336.719C336.719 43.0807 336.536 42.4557 336.172 42.0234C335.807 41.5859 335.286 41.3672 334.609 41.3672ZM343.094 48.0859C343.323 48.0859 343.544 48.0703 343.758 48.0391C343.971 48.0026 344.141 47.9661 344.266 47.9297V48.9219C344.125 48.9896 343.917 49.0443 343.641 49.0859C343.37 49.1328 343.125 49.1562 342.906 49.1562C341.25 49.1562 340.422 48.2839 340.422 46.5391V41.4453H339.195V40.8203L340.422 40.2812L340.969 38.4531H341.719V40.4375H344.203V41.4453H341.719V46.4844C341.719 47 341.841 47.3958 342.086 47.6719C342.331 47.9479 342.667 48.0859 343.094 48.0859ZM349.602 49.1562C348.336 49.1562 347.336 48.7708 346.602 48C345.872 47.2292 345.508 46.1589 345.508 44.7891C345.508 43.4089 345.846 42.3125 346.523 41.5C347.206 40.6875 348.12 40.2812 349.266 40.2812C350.339 40.2812 351.188 40.6354 351.812 41.3438C352.438 42.0469 352.75 42.9766 352.75 44.1328V44.9531H346.852C346.878 45.9583 347.13 46.7214 347.609 47.2422C348.094 47.763 348.773 48.0234 349.648 48.0234C350.57 48.0234 351.482 47.8307 352.383 47.4453V48.6016C351.924 48.7995 351.49 48.9401 351.078 49.0234C350.672 49.112 350.18 49.1562 349.602 49.1562ZM349.25 41.3672C348.562 41.3672 348.013 41.5911 347.602 42.0391C347.195 42.487 346.956 43.1068 346.883 43.8984H351.359C351.359 43.0807 351.177 42.4557 350.812 42.0234C350.448 41.5859 349.927 41.3672 349.25 41.3672ZM358.875 40.2812C359.255 40.2812 359.596 40.3125 359.898 40.375L359.719 41.5781C359.365 41.5 359.052 41.4609 358.781 41.4609C358.089 41.4609 357.495 41.7422 357 42.3047C356.51 42.8672 356.266 43.5677 356.266 44.4062V49H354.969V40.4375H356.039L356.188 42.0234H356.25C356.568 41.4661 356.951 41.0365 357.398 40.7344C357.846 40.4323 358.339 40.2812 358.875 40.2812ZM372.414 49V43.4297C372.414 42.7474 372.268 42.237 371.977 41.8984C371.685 41.5547 371.232 41.3828 370.617 41.3828C369.81 41.3828 369.214 41.6146 368.828 42.0781C368.443 42.5417 368.25 43.2552 368.25 44.2188V49H366.953V43.4297C366.953 42.7474 366.807 42.237 366.516 41.8984C366.224 41.5547 365.768 41.3828 365.148 41.3828C364.336 41.3828 363.74 41.6276 363.359 42.1172C362.984 42.6016 362.797 43.3984 362.797 44.5078V49H361.5V40.4375H362.555L362.766 41.6094H362.828C363.073 41.1927 363.417 40.8672 363.859 40.6328C364.307 40.3984 364.807 40.2812 365.359 40.2812C366.698 40.2812 367.573 40.7656 367.984 41.7344H368.047C368.302 41.2865 368.672 40.9323 369.156 40.6719C369.641 40.4115 370.193 40.2812 370.812 40.2812C371.781 40.2812 372.505 40.5312 372.984 41.0312C373.469 41.526 373.711 42.3203 373.711 43.4141V49H372.414ZM377.688 49H376.391V40.4375H377.688V49ZM376.281 38.1172C376.281 37.8203 376.354 37.6042 376.5 37.4688C376.646 37.3281 376.828 37.2578 377.047 37.2578C377.255 37.2578 377.435 37.3281 377.586 37.4688C377.737 37.6094 377.812 37.8255 377.812 38.1172C377.812 38.4089 377.737 38.6276 377.586 38.7734C377.435 38.9141 377.255 38.9844 377.047 38.9844C376.828 38.9844 376.646 38.9141 376.5 38.7734C376.354 38.6276 376.281 38.4089 376.281 38.1172ZM386.297 49V43.4609C386.297 42.763 386.138 42.2422 385.82 41.8984C385.503 41.5547 385.005 41.3828 384.328 41.3828C383.432 41.3828 382.776 41.625 382.359 42.1094C381.943 42.5938 381.734 43.3932 381.734 44.5078V49H380.438V40.4375H381.492L381.703 41.6094H381.766C382.031 41.1875 382.404 40.862 382.883 40.6328C383.362 40.3984 383.896 40.2812 384.484 40.2812C385.516 40.2812 386.292 40.5312 386.812 41.0312C387.333 41.526 387.594 42.3203 387.594 43.4141V49H386.297ZM395.531 49L395.273 47.7812H395.211C394.784 48.3177 394.357 48.6823 393.93 48.875C393.508 49.0625 392.979 49.1562 392.344 49.1562C391.495 49.1562 390.828 48.9375 390.344 48.5C389.865 48.0625 389.625 47.4401 389.625 46.6328C389.625 44.9036 391.008 43.9974 393.773 43.9141L395.227 43.8672V43.3359C395.227 42.6641 395.081 42.1693 394.789 41.8516C394.503 41.5286 394.042 41.3672 393.406 41.3672C392.693 41.3672 391.885 41.5859 390.984 42.0234L390.586 41.0312C391.008 40.8021 391.469 40.6224 391.969 40.4922C392.474 40.362 392.979 40.2969 393.484 40.2969C394.505 40.2969 395.26 40.5234 395.75 40.9766C396.245 41.4297 396.492 42.1562 396.492 43.1562V49H395.531ZM392.602 48.0859C393.409 48.0859 394.042 47.8646 394.5 47.4219C394.964 46.9792 395.195 46.3594 395.195 45.5625V44.7891L393.898 44.8438C392.867 44.8802 392.122 45.0417 391.664 45.3281C391.211 45.6094 390.984 46.0495 390.984 46.6484C390.984 47.1172 391.125 47.474 391.406 47.7188C391.693 47.9635 392.091 48.0859 392.602 48.0859ZM405 47.8516H404.93C404.331 48.7214 403.435 49.1562 402.242 49.1562C401.122 49.1562 400.25 48.7734 399.625 48.0078C399.005 47.2422 398.695 46.1536 398.695 44.7422C398.695 43.3307 399.008 42.2344 399.633 41.4531C400.258 40.6719 401.128 40.2812 402.242 40.2812C403.404 40.2812 404.294 40.7031 404.914 41.5469H405.016L404.961 40.9297L404.93 40.3281V36.8438H406.227V49H405.172L405 47.8516ZM402.406 48.0703C403.292 48.0703 403.932 47.8307 404.328 47.3516C404.729 46.8672 404.93 46.0885 404.93 45.0156V44.7422C404.93 43.5286 404.727 42.6641 404.32 42.1484C403.919 41.6276 403.276 41.3672 402.391 41.3672C401.63 41.3672 401.047 41.6641 400.641 42.2578C400.24 42.8464 400.039 43.6797 400.039 44.7578C400.039 45.8516 400.24 46.6771 400.641 47.2344C401.042 47.7917 401.63 48.0703 402.406 48.0703ZM416.375 44.7109C416.375 46.1068 416.023 47.1979 415.32 47.9844C414.617 48.7656 413.646 49.1562 412.406 49.1562C411.641 49.1562 410.961 48.9766 410.367 48.6172C409.773 48.2578 409.315 47.7422 408.992 47.0703C408.669 46.3984 408.508 45.612 408.508 44.7109C408.508 43.3151 408.857 42.2292 409.555 41.4531C410.253 40.6719 411.221 40.2812 412.461 40.2812C413.659 40.2812 414.609 40.6797 415.312 41.4766C416.021 42.2734 416.375 43.3516 416.375 44.7109ZM409.852 44.7109C409.852 45.8047 410.07 46.638 410.508 47.2109C410.945 47.7839 411.589 48.0703 412.438 48.0703C413.286 48.0703 413.93 47.7865 414.367 47.2188C414.81 46.6458 415.031 45.8099 415.031 44.7109C415.031 43.6224 414.81 42.7969 414.367 42.2344C413.93 41.6667 413.281 41.3828 412.422 41.3828C411.573 41.3828 410.932 41.6615 410.5 42.2188C410.068 42.776 409.852 43.6068 409.852 44.7109Z" fill="#007BC7"/>
<path d="M295 50.6016H417.273V51.3984H295V50.6016Z" fill="#007BC7"/>
<path d="M424.341 43.8333H433.649L429.582 47.9C429.257 48.225 429.257 48.7583 429.582 49.0833C429.907 49.4083 430.432 49.4083 430.757 49.0833L436.249 43.5917C436.574 43.2667 436.574 42.7417 436.249 42.4167L430.766 36.9167C430.441 36.5917 429.916 36.5917 429.591 36.9167C429.266 37.2417 429.266 37.7667 429.591 38.0917L433.649 42.1667H424.341C423.882 42.1667 423.507 42.5417 423.507 43C423.507 43.4583 423.882 43.8333 424.341 43.8333Z" fill="#007BC7"/>
<path d="M303.016 93.9609C303.016 94.9661 302.651 95.75 301.922 96.3125C301.193 96.875 300.203 97.1562 298.953 97.1562C297.599 97.1562 296.557 96.9818 295.828 96.6328V95.3516C296.297 95.5495 296.807 95.7057 297.359 95.8203C297.911 95.9349 298.458 95.9922 299 95.9922C299.885 95.9922 300.552 95.8255 301 95.4922C301.448 95.1536 301.672 94.6849 301.672 94.0859C301.672 93.6901 301.591 93.3672 301.43 93.1172C301.273 92.862 301.008 92.6276 300.633 92.4141C300.263 92.2005 299.698 91.9583 298.938 91.6875C297.875 91.3073 297.115 90.8568 296.656 90.3359C296.203 89.8151 295.977 89.1354 295.977 88.2969C295.977 87.4167 296.307 86.7161 296.969 86.1953C297.63 85.6745 298.505 85.4141 299.594 85.4141C300.729 85.4141 301.773 85.6224 302.727 86.0391L302.312 87.1953C301.37 86.7995 300.453 86.6016 299.562 86.6016C298.859 86.6016 298.31 86.7526 297.914 87.0547C297.518 87.3568 297.32 87.776 297.32 88.3125C297.32 88.7083 297.393 89.0339 297.539 89.2891C297.685 89.5391 297.93 89.7708 298.273 89.9844C298.622 90.1927 299.154 90.4245 299.867 90.6797C301.065 91.1068 301.888 91.5651 302.336 92.0547C302.789 92.5443 303.016 93.1797 303.016 93.9609ZM312.547 92.7109C312.547 94.1068 312.195 95.1979 311.492 95.9844C310.789 96.7656 309.818 97.1562 308.578 97.1562C307.812 97.1562 307.133 96.9766 306.539 96.6172C305.945 96.2578 305.487 95.7422 305.164 95.0703C304.841 94.3984 304.68 93.612 304.68 92.7109C304.68 91.3151 305.029 90.2292 305.727 89.4531C306.424 88.6719 307.393 88.2812 308.633 88.2812C309.831 88.2812 310.781 88.6797 311.484 89.4766C312.193 90.2734 312.547 91.3516 312.547 92.7109ZM306.023 92.7109C306.023 93.8047 306.242 94.638 306.68 95.2109C307.117 95.7839 307.76 96.0703 308.609 96.0703C309.458 96.0703 310.102 95.7865 310.539 95.2188C310.982 94.6458 311.203 93.8099 311.203 92.7109C311.203 91.6224 310.982 90.7969 310.539 90.2344C310.102 89.6667 309.453 89.3828 308.594 89.3828C307.745 89.3828 307.104 89.6615 306.672 90.2188C306.24 90.776 306.023 91.6068 306.023 92.7109ZM318.812 88.2969C319.938 88.2969 320.81 88.6823 321.43 89.4531C322.055 90.2188 322.367 91.3047 322.367 92.7109C322.367 94.1172 322.052 95.2109 321.422 95.9922C320.797 96.7682 319.927 97.1562 318.812 97.1562C318.255 97.1562 317.745 97.0547 317.281 96.8516C316.823 96.6432 316.438 96.3255 316.125 95.8984H316.031L315.758 97H314.828V84.8438H316.125V87.7969C316.125 88.4583 316.104 89.0521 316.062 89.5781H316.125C316.729 88.724 317.625 88.2969 318.812 88.2969ZM318.625 89.3828C317.74 89.3828 317.102 89.638 316.711 90.1484C316.32 90.6536 316.125 91.5078 316.125 92.7109C316.125 93.9141 316.326 94.776 316.727 95.2969C317.128 95.8125 317.771 96.0703 318.656 96.0703C319.453 96.0703 320.047 95.7812 320.438 95.2031C320.828 94.6198 321.023 93.7839 321.023 92.6953C321.023 91.5807 320.828 90.75 320.438 90.2031C320.047 89.6562 319.443 89.3828 318.625 89.3828ZM328.547 88.2812C328.927 88.2812 329.268 88.3125 329.57 88.375L329.391 89.5781C329.036 89.5 328.724 89.4609 328.453 89.4609C327.76 89.4609 327.167 89.7422 326.672 90.3047C326.182 90.8672 325.938 91.5677 325.938 92.4062V97H324.641V88.4375H325.711L325.859 90.0234H325.922C326.24 89.4661 326.622 89.0365 327.07 88.7344C327.518 88.4323 328.01 88.2812 328.547 88.2812ZM334.789 97.1562C333.523 97.1562 332.523 96.7708 331.789 96C331.06 95.2292 330.695 94.1589 330.695 92.7891C330.695 91.4089 331.034 90.3125 331.711 89.5C332.393 88.6875 333.307 88.2812 334.453 88.2812C335.526 88.2812 336.375 88.6354 337 89.3438C337.625 90.0469 337.938 90.9766 337.938 92.1328V92.9531H332.039C332.065 93.9583 332.318 94.7214 332.797 95.2422C333.281 95.763 333.961 96.0234 334.836 96.0234C335.758 96.0234 336.669 95.8307 337.57 95.4453V96.6016C337.112 96.7995 336.677 96.9401 336.266 97.0234C335.859 97.112 335.367 97.1562 334.789 97.1562ZM334.438 89.3672C333.75 89.3672 333.201 89.5911 332.789 90.0391C332.383 90.487 332.143 91.1068 332.07 91.8984H336.547C336.547 91.0807 336.365 90.4557 336 90.0234C335.635 89.5859 335.115 89.3672 334.438 89.3672Z" fill="#005387"/>
<path d="M295 98.6016H338.773V99.3984H295V98.6016Z" fill="#005387"/>
<path d="M345.341 91.8333H354.649L350.582 95.9C350.257 96.225 350.257 96.7583 350.582 97.0833C350.907 97.4083 351.432 97.4083 351.757 97.0833L357.249 91.5917C357.574 91.2667 357.574 90.7417 357.249 90.4167L351.766 84.9167C351.441 84.5917 350.916 84.5917 350.591 84.9167C350.266 85.2417 350.266 85.7667 350.591 86.0917L354.649 90.1667H345.341C344.882 90.1667 344.507 90.5417 344.507 91C344.507 91.4583 344.882 91.8333 345.341 91.8333Z" fill="#005387"/>
<path d="M302.938 145H296.57V133.578H302.938V134.758H297.898V138.438H302.633V139.609H297.898V143.812H302.938V145ZM311.141 145V139.461C311.141 138.763 310.982 138.242 310.664 137.898C310.346 137.555 309.849 137.383 309.172 137.383C308.276 137.383 307.62 137.625 307.203 138.109C306.786 138.594 306.578 139.393 306.578 140.508V145H305.281V136.438H306.336L306.547 137.609H306.609C306.875 137.188 307.247 136.862 307.727 136.633C308.206 136.398 308.74 136.281 309.328 136.281C310.359 136.281 311.135 136.531 311.656 137.031C312.177 137.526 312.438 138.32 312.438 139.414V145H311.141ZM323.125 137.445H320.945V145H319.648V137.445H318.117V136.859L319.648 136.391V135.914C319.648 133.81 320.568 132.758 322.406 132.758C322.859 132.758 323.391 132.849 324 133.031L323.664 134.07C323.164 133.909 322.737 133.828 322.383 133.828C321.893 133.828 321.531 133.992 321.297 134.32C321.062 134.643 320.945 135.164 320.945 135.883V136.438H323.125V137.445ZM332.078 140.711C332.078 142.107 331.727 143.198 331.023 143.984C330.32 144.766 329.349 145.156 328.109 145.156C327.344 145.156 326.664 144.977 326.07 144.617C325.477 144.258 325.018 143.742 324.695 143.07C324.372 142.398 324.211 141.612 324.211 140.711C324.211 139.315 324.56 138.229 325.258 137.453C325.956 136.672 326.924 136.281 328.164 136.281C329.362 136.281 330.312 136.68 331.016 137.477C331.724 138.273 332.078 139.352 332.078 140.711ZM325.555 140.711C325.555 141.805 325.773 142.638 326.211 143.211C326.648 143.784 327.292 144.07 328.141 144.07C328.99 144.07 329.633 143.786 330.07 143.219C330.513 142.646 330.734 141.81 330.734 140.711C330.734 139.622 330.513 138.797 330.07 138.234C329.633 137.667 328.984 137.383 328.125 137.383C327.276 137.383 326.635 137.661 326.203 138.219C325.771 138.776 325.555 139.607 325.555 140.711ZM337.781 145.156C336.542 145.156 335.581 144.776 334.898 144.016C334.221 143.25 333.883 142.169 333.883 140.773C333.883 139.341 334.227 138.234 334.914 137.453C335.607 136.672 336.591 136.281 337.867 136.281C338.279 136.281 338.69 136.326 339.102 136.414C339.513 136.503 339.836 136.607 340.07 136.727L339.672 137.828C339.385 137.714 339.073 137.62 338.734 137.547C338.396 137.469 338.096 137.43 337.836 137.43C336.096 137.43 335.227 138.539 335.227 140.758C335.227 141.81 335.438 142.617 335.859 143.18C336.286 143.742 336.917 144.023 337.75 144.023C338.464 144.023 339.195 143.87 339.945 143.562V144.711C339.372 145.008 338.651 145.156 337.781 145.156ZM349.375 140.711C349.375 142.107 349.023 143.198 348.32 143.984C347.617 144.766 346.646 145.156 345.406 145.156C344.641 145.156 343.961 144.977 343.367 144.617C342.773 144.258 342.315 143.742 341.992 143.07C341.669 142.398 341.508 141.612 341.508 140.711C341.508 139.315 341.857 138.229 342.555 137.453C343.253 136.672 344.221 136.281 345.461 136.281C346.659 136.281 347.609 136.68 348.312 137.477C349.021 138.273 349.375 139.352 349.375 140.711ZM342.852 140.711C342.852 141.805 343.07 142.638 343.508 143.211C343.945 143.784 344.589 144.07 345.438 144.07C346.286 144.07 346.93 143.786 347.367 143.219C347.81 142.646 348.031 141.81 348.031 140.711C348.031 139.622 347.81 138.797 347.367 138.234C346.93 137.667 346.281 137.383 345.422 137.383C344.573 137.383 343.932 137.661 343.5 138.219C343.068 138.776 342.852 139.607 342.852 140.711Z" fill="#005387"/>
<path d="M295 146.602H350.273V147.398H295V146.602Z" fill="#005387"/>
<path d="M357.341 139.833H366.649L362.582 143.9C362.257 144.225 362.257 144.758 362.582 145.083C362.907 145.408 363.432 145.408 363.757 145.083L369.249 139.592C369.574 139.267 369.574 138.742 369.249 138.417L363.766 132.917C363.441 132.592 362.916 132.592 362.591 132.917C362.266 133.242 362.266 133.767 362.591 134.092L366.649 138.167H357.341C356.882 138.167 356.507 138.542 356.507 139C356.507 139.458 356.882 139.833 357.341 139.833Z" fill="#005387"/>
<rect x="294" y="126" width="80" height="26" rx="9" stroke="#005387" stroke-width="2"/>
<path d="M303.094 181.578H304.523L300.406 193H299.094L295 181.578H296.406L299.031 188.969C299.333 189.818 299.573 190.643 299.75 191.445C299.938 190.602 300.182 189.76 300.484 188.922L303.094 181.578ZM307.203 193H305.906V184.438H307.203V193ZM305.797 182.117C305.797 181.82 305.87 181.604 306.016 181.469C306.161 181.328 306.344 181.258 306.562 181.258C306.771 181.258 306.951 181.328 307.102 181.469C307.253 181.609 307.328 181.826 307.328 182.117C307.328 182.409 307.253 182.628 307.102 182.773C306.951 182.914 306.771 182.984 306.562 182.984C306.344 182.984 306.161 182.914 306.016 182.773C305.87 182.628 305.797 182.409 305.797 182.117ZM315.477 190.664C315.477 191.461 315.18 192.076 314.586 192.508C313.992 192.94 313.159 193.156 312.086 193.156C310.951 193.156 310.065 192.977 309.43 192.617V191.414C309.841 191.622 310.281 191.786 310.75 191.906C311.224 192.026 311.68 192.086 312.117 192.086C312.794 192.086 313.315 191.979 313.68 191.766C314.044 191.547 314.227 191.216 314.227 190.773C314.227 190.44 314.081 190.156 313.789 189.922C313.503 189.682 312.94 189.401 312.102 189.078C311.305 188.781 310.737 188.523 310.398 188.305C310.065 188.081 309.815 187.828 309.648 187.547C309.487 187.266 309.406 186.93 309.406 186.539C309.406 185.841 309.69 185.292 310.258 184.891C310.826 184.484 311.604 184.281 312.594 184.281C313.516 184.281 314.417 184.469 315.297 184.844L314.836 185.898C313.977 185.544 313.198 185.367 312.5 185.367C311.885 185.367 311.422 185.464 311.109 185.656C310.797 185.849 310.641 186.115 310.641 186.453C310.641 186.682 310.698 186.878 310.812 187.039C310.932 187.201 311.122 187.354 311.383 187.5C311.643 187.646 312.143 187.857 312.883 188.133C313.898 188.503 314.583 188.875 314.938 189.25C315.297 189.625 315.477 190.096 315.477 190.664ZM318.891 193H317.594V184.438H318.891V193ZM317.484 182.117C317.484 181.82 317.557 181.604 317.703 181.469C317.849 181.328 318.031 181.258 318.25 181.258C318.458 181.258 318.638 181.328 318.789 181.469C318.94 181.609 319.016 181.826 319.016 182.117C319.016 182.409 318.94 182.628 318.789 182.773C318.638 182.914 318.458 182.984 318.25 182.984C318.031 182.984 317.849 182.914 317.703 182.773C317.557 182.628 317.484 182.409 317.484 182.117ZM324.406 192.086C324.635 192.086 324.857 192.07 325.07 192.039C325.284 192.003 325.453 191.966 325.578 191.93V192.922C325.438 192.99 325.229 193.044 324.953 193.086C324.682 193.133 324.438 193.156 324.219 193.156C322.562 193.156 321.734 192.284 321.734 190.539V185.445H320.508V184.82L321.734 184.281L322.281 182.453H323.031V184.438H325.516V185.445H323.031V190.484C323.031 191 323.154 191.396 323.398 191.672C323.643 191.948 323.979 192.086 324.406 192.086ZM332.562 193L332.305 191.781H332.242C331.815 192.318 331.388 192.682 330.961 192.875C330.539 193.062 330.01 193.156 329.375 193.156C328.526 193.156 327.859 192.938 327.375 192.5C326.896 192.062 326.656 191.44 326.656 190.633C326.656 188.904 328.039 187.997 330.805 187.914L332.258 187.867V187.336C332.258 186.664 332.112 186.169 331.82 185.852C331.534 185.529 331.073 185.367 330.438 185.367C329.724 185.367 328.917 185.586 328.016 186.023L327.617 185.031C328.039 184.802 328.5 184.622 329 184.492C329.505 184.362 330.01 184.297 330.516 184.297C331.536 184.297 332.292 184.523 332.781 184.977C333.276 185.43 333.523 186.156 333.523 187.156V193H332.562ZM329.633 192.086C330.44 192.086 331.073 191.865 331.531 191.422C331.995 190.979 332.227 190.359 332.227 189.562V188.789L330.93 188.844C329.898 188.88 329.154 189.042 328.695 189.328C328.242 189.609 328.016 190.049 328.016 190.648C328.016 191.117 328.156 191.474 328.438 191.719C328.724 191.964 329.122 192.086 329.633 192.086ZM342.031 191.852H341.961C341.362 192.721 340.466 193.156 339.273 193.156C338.154 193.156 337.281 192.773 336.656 192.008C336.036 191.242 335.727 190.154 335.727 188.742C335.727 187.331 336.039 186.234 336.664 185.453C337.289 184.672 338.159 184.281 339.273 184.281C340.435 184.281 341.326 184.703 341.945 185.547H342.047L341.992 184.93L341.961 184.328V180.844H343.258V193H342.203L342.031 191.852ZM339.438 192.07C340.323 192.07 340.964 191.831 341.359 191.352C341.76 190.867 341.961 190.089 341.961 189.016V188.742C341.961 187.529 341.758 186.664 341.352 186.148C340.951 185.628 340.307 185.367 339.422 185.367C338.661 185.367 338.078 185.664 337.672 186.258C337.271 186.846 337.07 187.68 337.07 188.758C337.07 189.852 337.271 190.677 337.672 191.234C338.073 191.792 338.661 192.07 339.438 192.07ZM353.406 188.711C353.406 190.107 353.055 191.198 352.352 191.984C351.648 192.766 350.677 193.156 349.438 193.156C348.672 193.156 347.992 192.977 347.398 192.617C346.805 192.258 346.346 191.742 346.023 191.07C345.701 190.398 345.539 189.612 345.539 188.711C345.539 187.315 345.888 186.229 346.586 185.453C347.284 184.672 348.253 184.281 349.492 184.281C350.69 184.281 351.641 184.68 352.344 185.477C353.052 186.273 353.406 187.352 353.406 188.711ZM346.883 188.711C346.883 189.805 347.102 190.638 347.539 191.211C347.977 191.784 348.62 192.07 349.469 192.07C350.318 192.07 350.961 191.786 351.398 191.219C351.841 190.646 352.062 189.81 352.062 188.711C352.062 187.622 351.841 186.797 351.398 186.234C350.961 185.667 350.312 185.383 349.453 185.383C348.604 185.383 347.964 185.661 347.531 186.219C347.099 186.776 346.883 187.607 346.883 188.711Z" fill="#005387"/>
<path d="M295 194.602H354.305V195.398H295V194.602Z" fill="#005387"/>
<path d="M361.341 187.833H370.649L366.582 191.9C366.257 192.225 366.257 192.758 366.582 193.083C366.907 193.408 367.432 193.408 367.757 193.083L373.249 187.592C373.574 187.267 373.574 186.742 373.249 186.417L367.766 180.917C367.441 180.592 366.916 180.592 366.591 180.917C366.266 181.242 366.266 181.767 366.591 182.092L370.649 186.167H361.341C360.882 186.167 360.507 186.542 360.507 187C360.507 187.458 360.882 187.833 361.341 187.833Z" fill="#005387"/>
</svg>
