<svg xmlns="http://www.w3.org/2000/svg" width="340" height="257" viewBox="0 0 340 257"><defs><style>.a{fill:#f3f6f9;}.b{fill:#fff;}.c{fill:#505e70;font-size:16px;font-family:OpenSans-Bold, Open Sans;letter-spacing:0.002em;font-weight:700;}.d{font-family:OpenSans-Regular, Open Sans;font-weight:400;}.e,.h{fill:none;}.e{stroke:#d1d8e0;}.f,.g{stroke:none;}.g{fill:#d1d8e0;}</style></defs><g transform="translate(-885 -541)"><g transform="translate(372 -82)"><rect class="a" width="340" height="257" rx="4" transform="translate(513 623)"/><g class="b" transform="translate(682 732)"><path class="f" d="M 73.99980163574219 75.49960327148438 L 0.5000025629997253 75.49960327148438 L 0.5000025629997253 8.000102043151855 C 0.5000025629997253 3.864531517028809 3.864532470703125 0.5000016093254089 8.000102996826172 0.5000016093254089 L 77.50030517578125 0.5000016093254089 L 77.50030517578125 72 C 77.50030517578125 73.92969512939453 75.92998504638672 75.49960327148438 73.99980163574219 75.49960327148438 Z"/><path class="g" d="M 73.99980926513672 74.99960327148438 C 75.65428924560547 74.99960327148438 77.00030517578125 73.65399169921875 77.00030517578125 72 L 77.00030517578125 1.000001668930054 L 8.000097274780273 1.000001668930054 C 4.140230178833008 1.000001668930054 0.9999970197677612 4.14023494720459 0.9999970197677612 8.000102043151855 L 0.9999970197677612 74.99960327148438 L 73.99980926513672 74.99960327148438 M 73.99980926513672 75.99960327148438 L -2.967664840980433e-06 75.99960327148438 L -2.967664840980433e-06 8.000102043151855 C -2.967664840980433e-06 3.582001686096191 3.581996917724609 1.635742137295892e-06 8.000097274780273 1.635742137295892e-06 L 78.00030517578125 1.635742137295892e-06 L 78.00030517578125 72 C 78.00030517578125 74.20860290527344 76.20930480957031 75.99960327148438 73.99980926513672 75.99960327148438 Z"/></g><text class="c" transform="translate(591 824)"><tspan x="0" y="17">Border redondeado:</tspan><tspan class="d" y="17"> </tspan></text><g class="e" transform="translate(606 657)"><rect class="f" width="154" height="151" rx="4"/><rect class="h" x="0.5" y="0.5" width="153" height="150" rx="3.5"/></g></g></g></svg>