<svg xmlns="http://www.w3.org/2000/svg" width="712" height="360" viewBox="0 0 712 360"><defs><style>.a{fill:#fff;stroke:#d1d8e0;}.b{opacity:0.35;}.c{fill:#9eaab8;}.d{fill:none;}.e{stroke:none;}</style></defs><g transform="translate(-513 -2948)"><g transform="translate(548.601 2971)"><g transform="translate(0)"><g class="a" transform="translate(0.399)"><rect class="e" width="150" height="150" rx="8"/><rect class="d" x="0.5" y="0.5" width="149" height="149" rx="7.5"/></g><g class="a" transform="translate(0.399 164)"><rect class="e" width="150" height="150" rx="8"/><rect class="d" x="0.5" y="0.5" width="149" height="149" rx="7.5"/></g></g><g transform="translate(164.155)"><g class="a" transform="translate(0.244)"><rect class="e" width="150" height="150" rx="8"/><rect class="d" x="0.5" y="0.5" width="149" height="149" rx="7.5"/></g><g class="a" transform="translate(0.244 164)"><rect class="e" width="150" height="150" rx="8"/><rect class="d" x="0.5" y="0.5" width="149" height="149" rx="7.5"/></g></g><g transform="translate(328.311)"><g class="a" transform="translate(0.088)"><rect class="e" width="150" height="150" rx="8"/><rect class="d" x="0.5" y="0.5" width="149" height="149" rx="7.5"/></g><g class="a" transform="translate(0.088 164)"><rect class="e" width="150" height="150" rx="8"/><rect class="d" x="0.5" y="0.5" width="149" height="149" rx="7.5"/></g></g><g transform="translate(492.467)"><g class="a" transform="translate(-0.067)"><rect class="e" width="150" height="150" rx="8"/><rect class="d" x="0.5" y="0.5" width="149" height="149" rx="7.5"/></g><g class="a" transform="translate(-0.067 164)"><rect class="e" width="150" height="150" rx="8"/><rect class="d" x="0.5" y="0.5" width="149" height="149" rx="7.5"/></g></g></g><rect class="b" width="712" height="360" rx="4" transform="translate(513 2948)"/><g class="a" transform="translate(644 3025)"><rect class="e" width="451" height="206" rx="8"/><rect class="d" x="0.5" y="0.5" width="450" height="205" rx="7.5"/></g><g transform="translate(1054 3041)"><path class="c" d="M16.192,6.344l-4.243,4.242L7.707,6.344,6.293,7.758,10.535,12,6.293,16.242l1.414,1.414,4.242-4.242,4.243,4.242,1.414-1.414L13.364,12l4.242-4.242Z" transform="translate(0.394 0.129)"/><rect class="d" width="24" height="25"/></g></g></svg>