<svg width="448" height="85" viewBox="0 0 448 85" fill="none" xmlns="http://www.w3.org/2000/svg">
<rect x="0.904943" y="1.15494" width="446.19" height="82.8156" rx="7.60551" fill="white"/>
<rect x="0.904943" y="1.15494" width="446.19" height="82.8156" rx="7.60551" stroke="#E6EBF0" stroke-width="1.69011"/>
<rect x="15.2709" y="15.5209" width="54.0836" height="54.0836" rx="6.76046" fill="#F3F6F9"/>
<path d="M42.3127 31.2953C36.0931 31.2953 31.0453 36.3431 31.0453 42.5627C31.0453 48.7823 36.0931 53.8302 42.3127 53.8302C48.5324 53.8302 53.5802 48.7823 53.5802 42.5627C53.5802 36.3431 48.5324 31.2953 42.3127 31.2953ZM42.3127 48.1964C41.693 48.1964 41.186 47.6894 41.186 47.0697V42.5627C41.186 41.943 41.693 41.436 42.3127 41.436C42.9324 41.436 43.4395 41.943 43.4395 42.5627V47.0697C43.4395 47.6894 42.9324 48.1964 42.3127 48.1964ZM43.4395 39.1825H41.186V36.929H43.4395V39.1825Z" fill="#38485C"/>
<path d="M87.8689 35.0011C87.5371 35.0011 87.2802 34.9101 87.0982 34.7281C86.927 34.5354 86.8413 34.2732 86.8413 33.9414V25.2711H83.7104C83.4321 25.2711 83.2127 25.1962 83.0521 25.0463C82.9022 24.8857 82.8273 24.6717 82.8273 24.4041C82.8273 24.1257 82.9022 23.917 83.0521 23.7779C83.2127 23.628 83.4321 23.5531 83.7104 23.5531H92.0274C92.3057 23.5531 92.5198 23.628 92.6697 23.7779C92.8302 23.917 92.9105 24.1257 92.9105 24.4041C92.9105 24.6717 92.8302 24.8857 92.6697 25.0463C92.5198 25.1962 92.3057 25.2711 92.0274 25.2711H88.8965V33.9414C88.8965 34.2732 88.8109 34.5354 88.6396 34.7281C88.4683 34.9101 88.2114 35.0011 87.8689 35.0011ZM95.765 34.985C95.4439 34.985 95.1977 34.8887 95.0264 34.696C94.8552 34.5033 94.7695 34.2357 94.7695 33.8932V28.0006C94.7695 27.6474 94.8552 27.3798 95.0264 27.1978C95.1977 27.0051 95.4439 26.9088 95.765 26.9088C96.0861 26.9088 96.3323 27.0051 96.5036 27.1978C96.6855 27.3798 96.7765 27.6474 96.7765 28.0006V33.8932C96.7765 34.2357 96.6909 34.5033 96.5196 34.696C96.3484 34.8887 96.0968 34.985 95.765 34.985ZM96.5196 25.8812C96.4126 26.0311 96.2841 26.1167 96.1343 26.1381C95.9844 26.1595 95.8399 26.1328 95.7008 26.0578C95.5616 25.9829 95.4599 25.8759 95.3957 25.7367C95.3422 25.5976 95.3582 25.4423 95.4439 25.2711L96.6641 22.8787C96.7605 22.6753 96.8889 22.5469 97.0495 22.4934C97.21 22.4292 97.376 22.4185 97.5472 22.4613C97.7185 22.5041 97.863 22.5844 97.9807 22.7021C98.1092 22.8199 98.1841 22.9644 98.2055 23.1356C98.2376 23.2962 98.1948 23.4621 98.0771 23.6334L96.5196 25.8812ZM102.459 35.0332C101.763 35.0332 101.179 34.9154 100.708 34.6799C100.248 34.4445 99.9056 34.1019 99.6808 33.6524C99.456 33.1921 99.3436 32.6248 99.3436 31.9504V28.5305H98.5087C98.2518 28.5305 98.0538 28.4662 97.9146 28.3378C97.7755 28.1986 97.7059 28.0113 97.7059 27.7758C97.7059 27.5296 97.7755 27.3423 97.9146 27.2139C98.0538 27.0854 98.2518 27.0212 98.5087 27.0212H99.3436V25.5601C99.3436 25.2283 99.4293 24.9767 99.6005 24.8055C99.7825 24.6342 100.034 24.5486 100.355 24.5486C100.676 24.5486 100.922 24.6342 101.094 24.8055C101.265 24.9767 101.351 25.2283 101.351 25.5601V27.0212H103.053C103.309 27.0212 103.507 27.0854 103.647 27.2139C103.786 27.3423 103.855 27.5296 103.855 27.7758C103.855 28.0113 103.786 28.1986 103.647 28.3378C103.507 28.4662 103.309 28.5305 103.053 28.5305H101.351V31.838C101.351 32.3518 101.463 32.7372 101.688 32.9941C101.913 33.251 102.277 33.3794 102.78 33.3794C102.962 33.3794 103.122 33.3633 103.261 33.3312C103.4 33.2991 103.524 33.2777 103.631 33.267C103.759 33.2563 103.866 33.2991 103.952 33.3955C104.037 33.4811 104.08 33.6631 104.08 33.9414C104.08 34.1554 104.043 34.3481 103.968 34.5194C103.904 34.6799 103.78 34.7923 103.598 34.8566C103.459 34.8994 103.277 34.9368 103.053 34.969C102.828 35.0118 102.63 35.0332 102.459 35.0332ZM107.866 35.0332C107.213 35.0332 106.673 34.9154 106.244 34.6799C105.816 34.4338 105.495 34.0698 105.281 33.5881C105.078 33.1065 104.976 32.507 104.976 31.7899V27.9043C104.976 27.5617 105.062 27.3102 105.233 27.1496C105.404 26.9784 105.65 26.8927 105.971 26.8927C106.293 26.8927 106.539 26.9784 106.71 27.1496C106.892 27.3102 106.983 27.5617 106.983 27.9043V31.822C106.983 32.3786 107.095 32.7907 107.32 33.0583C107.545 33.3259 107.903 33.4597 108.396 33.4597C108.931 33.4597 109.37 33.2777 109.712 32.9138C110.055 32.5391 110.226 32.0467 110.226 31.4366V27.9043C110.226 27.5617 110.312 27.3102 110.483 27.1496C110.654 26.9784 110.901 26.8927 111.222 26.8927C111.543 26.8927 111.789 26.9784 111.96 27.1496C112.142 27.3102 112.233 27.5617 112.233 27.9043V33.9735C112.233 34.6585 111.907 35.0011 111.254 35.0011C110.943 35.0011 110.703 34.9154 110.531 34.7442C110.36 34.5622 110.274 34.3053 110.274 33.9735V32.7532L110.499 33.2349C110.274 33.8129 109.932 34.2571 109.472 34.5676C109.022 34.878 108.487 35.0332 107.866 35.0332ZM117.004 35.0332C116.115 35.0332 115.446 34.7816 114.997 34.2785C114.547 33.7647 114.322 33.0155 114.322 32.0307V24.4362C114.322 24.1043 114.408 23.8528 114.579 23.6815C114.75 23.5103 114.997 23.4246 115.318 23.4246C115.639 23.4246 115.885 23.5103 116.056 23.6815C116.238 23.8528 116.329 24.1043 116.329 24.4362V31.9344C116.329 32.4267 116.431 32.7907 116.634 33.0262C116.848 33.2617 117.148 33.3794 117.533 33.3794C117.619 33.3794 117.699 33.3794 117.774 33.3794C117.849 33.3687 117.924 33.358 117.999 33.3473C118.149 33.3259 118.251 33.3687 118.304 33.4757C118.358 33.5721 118.384 33.7755 118.384 34.0859C118.384 34.3535 118.331 34.5622 118.224 34.7121C118.117 34.8619 117.94 34.9529 117.694 34.985C117.587 34.9957 117.475 35.0064 117.357 35.0171C117.239 35.0278 117.121 35.0332 117.004 35.0332ZM122.952 35.0332C122.138 35.0332 121.432 34.8673 120.832 34.5354C120.233 34.2036 119.767 33.7326 119.435 33.1225C119.103 32.5017 118.938 31.7738 118.938 30.9389C118.938 30.3073 119.029 29.7454 119.211 29.253C119.403 28.7499 119.676 28.3217 120.029 27.9685C120.383 27.6046 120.805 27.3316 121.298 27.1496C121.79 26.957 122.341 26.8606 122.952 26.8606C123.765 26.8606 124.472 27.0265 125.071 27.3584C125.67 27.6902 126.136 28.1612 126.468 28.7713C126.8 29.3814 126.966 30.104 126.966 30.9389C126.966 31.5704 126.869 32.1377 126.677 32.6408C126.495 33.1439 126.227 33.5774 125.874 33.9414C125.521 34.2946 125.098 34.5676 124.605 34.7602C124.113 34.9422 123.562 35.0332 122.952 35.0332ZM122.952 33.5079C123.348 33.5079 123.696 33.4115 123.995 33.2188C124.295 33.0262 124.525 32.7425 124.686 32.3679C124.857 31.9825 124.943 31.5062 124.943 30.9389C124.943 30.0826 124.761 29.4457 124.397 29.0282C124.033 28.6 123.551 28.386 122.952 28.386C122.556 28.386 122.208 28.4823 121.908 28.675C121.608 28.8569 121.373 29.1406 121.201 29.5259C121.041 29.9006 120.961 30.3716 120.961 30.9389C120.961 31.7845 121.143 32.4267 121.507 32.8656C121.87 33.2938 122.352 33.5079 122.952 33.5079ZM136 35.0332C135.315 35.0332 134.71 34.8673 134.185 34.5354C133.672 34.2036 133.27 33.7326 132.981 33.1225C132.692 32.5017 132.548 31.7738 132.548 30.9389C132.548 30.0933 132.692 29.3707 132.981 28.7713C133.27 28.1612 133.672 27.6902 134.185 27.3584C134.71 27.0265 135.315 26.8606 136 26.8606C136.653 26.8606 137.22 27.0212 137.702 27.3423C138.194 27.6634 138.526 28.0862 138.697 28.6107H138.52V24.4362C138.52 24.1043 138.606 23.8528 138.777 23.6815C138.949 23.5103 139.195 23.4246 139.516 23.4246C139.837 23.4246 140.083 23.5103 140.255 23.6815C140.436 23.8528 140.527 24.1043 140.527 24.4362V33.9735C140.527 34.3053 140.442 34.5622 140.271 34.7442C140.099 34.9154 139.853 35.0011 139.532 35.0011C139.211 35.0011 138.965 34.9154 138.793 34.7442C138.622 34.5622 138.537 34.3053 138.537 33.9735V32.7211L138.713 33.2028C138.553 33.7594 138.226 34.2036 137.734 34.5354C137.241 34.8673 136.663 35.0332 136 35.0332ZM136.562 33.5079C136.958 33.5079 137.306 33.4115 137.605 33.2188C137.905 33.0262 138.135 32.7425 138.296 32.3679C138.467 31.9825 138.553 31.5062 138.553 30.9389C138.553 30.0826 138.371 29.4457 138.007 29.0282C137.643 28.6 137.161 28.386 136.562 28.386C136.166 28.386 135.818 28.4823 135.518 28.675C135.218 28.8569 134.983 29.1406 134.812 29.5259C134.651 29.9006 134.571 30.3716 134.571 30.9389C134.571 31.7845 134.753 32.4267 135.117 32.8656C135.481 33.2938 135.962 33.5079 136.562 33.5079ZM146.478 35.0332C145.59 35.0332 144.824 34.8673 144.182 34.5354C143.54 34.2036 143.042 33.7326 142.689 33.1225C142.346 32.5124 142.175 31.7899 142.175 30.9549C142.175 30.1414 142.341 29.4296 142.673 28.8195C143.015 28.2093 143.481 27.733 144.07 27.3905C144.669 27.0373 145.349 26.8606 146.109 26.8606C146.665 26.8606 147.163 26.9516 147.602 27.1336C148.052 27.3156 148.432 27.5778 148.742 27.9203C149.063 28.2629 149.304 28.6803 149.464 29.1727C149.636 29.6544 149.721 30.2003 149.721 30.8104C149.721 31.0031 149.652 31.153 149.513 31.26C149.384 31.3563 149.197 31.4045 148.951 31.4045H143.797V30.2485H148.308L148.052 30.4893C148.052 29.9969 147.977 29.5848 147.827 29.253C147.688 28.9212 147.479 28.6696 147.201 28.4984C146.933 28.3164 146.596 28.2254 146.189 28.2254C145.739 28.2254 145.354 28.3324 145.033 28.5465C144.723 28.7499 144.482 29.0443 144.31 29.4296C144.15 29.8042 144.07 30.2538 144.07 30.7783V30.8907C144.07 31.7684 144.273 32.4267 144.68 32.8656C145.097 33.2938 145.707 33.5079 146.51 33.5079C146.788 33.5079 147.099 33.4757 147.441 33.4115C147.795 33.3366 148.126 33.2135 148.437 33.0422C148.662 32.9138 148.86 32.8603 149.031 32.8817C149.202 32.8924 149.336 32.9512 149.432 33.0583C149.539 33.1653 149.604 33.2991 149.625 33.4597C149.646 33.6095 149.614 33.7647 149.529 33.9253C149.454 34.0859 149.32 34.225 149.127 34.3428C148.753 34.5783 148.319 34.7549 147.827 34.8726C147.345 34.9797 146.895 35.0332 146.478 35.0332ZM158.351 35.0332C157.463 35.0332 156.794 34.7816 156.344 34.2785C155.895 33.7647 155.67 33.0155 155.67 32.0307V24.4362C155.67 24.1043 155.755 23.8528 155.927 23.6815C156.098 23.5103 156.344 23.4246 156.665 23.4246C156.986 23.4246 157.233 23.5103 157.404 23.6815C157.586 23.8528 157.677 24.1043 157.677 24.4362V31.9344C157.677 32.4267 157.778 32.7907 157.982 33.0262C158.196 33.2617 158.496 33.3794 158.881 33.3794C158.967 33.3794 159.047 33.3794 159.122 33.3794C159.197 33.3687 159.272 33.358 159.347 33.3473C159.496 33.3259 159.598 33.3687 159.652 33.4757C159.705 33.5721 159.732 33.7755 159.732 34.0859C159.732 34.3535 159.678 34.5622 159.571 34.7121C159.464 34.8619 159.288 34.9529 159.042 34.985C158.934 34.9957 158.822 35.0064 158.704 35.0171C158.587 35.0278 158.469 35.0332 158.351 35.0332ZM163.382 35.0332C162.815 35.0332 162.306 34.9261 161.857 34.7121C161.418 34.4873 161.07 34.1876 160.813 33.8129C160.567 33.4383 160.444 33.0155 160.444 32.5445C160.444 31.9665 160.594 31.5115 160.893 31.1797C161.193 30.8372 161.68 30.591 162.354 30.4411C163.029 30.2913 163.933 30.2164 165.068 30.2164H165.871V31.3724H165.084C164.42 31.3724 163.89 31.4045 163.494 31.4687C163.098 31.533 162.815 31.6453 162.643 31.8059C162.483 31.9558 162.403 32.1698 162.403 32.4482C162.403 32.8014 162.526 33.0904 162.772 33.3152C163.018 33.54 163.361 33.6524 163.8 33.6524C164.153 33.6524 164.463 33.5721 164.731 33.4115C165.009 33.2403 165.229 33.0101 165.389 32.7211C165.55 32.4321 165.63 32.1003 165.63 31.7256V29.8792C165.63 29.344 165.512 28.9586 165.277 28.7231C165.041 28.4876 164.645 28.3699 164.089 28.3699C163.778 28.3699 163.441 28.4074 163.077 28.4823C162.724 28.5572 162.349 28.6857 161.953 28.8676C161.75 28.964 161.568 28.9907 161.407 28.9479C161.257 28.9051 161.14 28.8195 161.054 28.691C160.968 28.5519 160.925 28.402 160.925 28.2415C160.925 28.0809 160.968 27.9257 161.054 27.7758C161.14 27.6153 161.284 27.4975 161.487 27.4226C161.98 27.2192 162.451 27.0747 162.9 26.9891C163.361 26.9034 163.778 26.8606 164.153 26.8606C164.923 26.8606 165.555 26.9784 166.047 27.2139C166.55 27.4494 166.925 27.8079 167.171 28.2896C167.417 28.7606 167.541 29.3707 167.541 30.12V33.9735C167.541 34.3053 167.46 34.5622 167.3 34.7442C167.139 34.9154 166.909 35.0011 166.609 35.0011C166.31 35.0011 166.074 34.9154 165.903 34.7442C165.742 34.5622 165.662 34.3053 165.662 33.9735V33.2028H165.79C165.716 33.5774 165.566 33.9039 165.341 34.1822C165.127 34.4498 164.854 34.6585 164.522 34.8084C164.19 34.9583 163.81 35.0332 163.382 35.0332ZM177.533 35.0332C176.837 35.0332 176.254 34.9154 175.783 34.6799C175.323 34.4445 174.98 34.1019 174.756 33.6524C174.531 33.1921 174.418 32.6248 174.418 31.9504V28.5305H173.583C173.327 28.5305 173.129 28.4662 172.989 28.3378C172.85 28.1986 172.781 28.0113 172.781 27.7758C172.781 27.5296 172.85 27.3423 172.989 27.2139C173.129 27.0854 173.327 27.0212 173.583 27.0212H174.418V25.5601C174.418 25.2283 174.504 24.9767 174.675 24.8055C174.857 24.6342 175.109 24.5486 175.43 24.5486C175.751 24.5486 175.997 24.6342 176.168 24.8055C176.34 24.9767 176.425 25.2283 176.425 25.5601V27.0212H178.127C178.384 27.0212 178.582 27.0854 178.721 27.2139C178.861 27.3423 178.93 27.5296 178.93 27.7758C178.93 28.0113 178.861 28.1986 178.721 28.3378C178.582 28.4662 178.384 28.5305 178.127 28.5305H176.425V31.838C176.425 32.3518 176.538 32.7372 176.763 32.9941C176.987 33.251 177.351 33.3794 177.854 33.3794C178.036 33.3794 178.197 33.3633 178.336 33.3312C178.475 33.2991 178.598 33.2777 178.705 33.267C178.834 33.2563 178.941 33.2991 179.026 33.3955C179.112 33.4811 179.155 33.6631 179.155 33.9414C179.155 34.1554 179.117 34.3481 179.043 34.5194C178.978 34.6799 178.855 34.7923 178.673 34.8566C178.534 34.8994 178.352 34.9368 178.127 34.969C177.903 35.0118 177.705 35.0332 177.533 35.0332ZM182.684 35.0332C182.117 35.0332 181.608 34.9261 181.159 34.7121C180.72 34.4873 180.372 34.1876 180.115 33.8129C179.869 33.4383 179.746 33.0155 179.746 32.5445C179.746 31.9665 179.895 31.5115 180.195 31.1797C180.495 30.8372 180.982 30.591 181.656 30.4411C182.331 30.2913 183.235 30.2164 184.37 30.2164H185.173V31.3724H184.386C183.722 31.3724 183.192 31.4045 182.796 31.4687C182.4 31.533 182.117 31.6453 181.945 31.8059C181.785 31.9558 181.704 32.1698 181.704 32.4482C181.704 32.8014 181.828 33.0904 182.074 33.3152C182.32 33.54 182.662 33.6524 183.101 33.6524C183.455 33.6524 183.765 33.5721 184.033 33.4115C184.311 33.2403 184.53 33.0101 184.691 32.7211C184.851 32.4321 184.932 32.1003 184.932 31.7256V29.8792C184.932 29.344 184.814 28.9586 184.578 28.7231C184.343 28.4876 183.947 28.3699 183.39 28.3699C183.08 28.3699 182.743 28.4074 182.379 28.4823C182.026 28.5572 181.651 28.6857 181.255 28.8676C181.051 28.964 180.87 28.9907 180.709 28.9479C180.559 28.9051 180.441 28.8195 180.356 28.691C180.27 28.5519 180.227 28.402 180.227 28.2415C180.227 28.0809 180.27 27.9257 180.356 27.7758C180.441 27.6153 180.586 27.4975 180.789 27.4226C181.282 27.2192 181.753 27.0747 182.202 26.9891C182.662 26.9034 183.08 26.8606 183.455 26.8606C184.225 26.8606 184.857 26.9784 185.349 27.2139C185.852 27.4494 186.227 27.8079 186.473 28.2896C186.719 28.7606 186.842 29.3707 186.842 30.12V33.9735C186.842 34.3053 186.762 34.5622 186.602 34.7442C186.441 34.9154 186.211 35.0011 185.911 35.0011C185.611 35.0011 185.376 34.9154 185.205 34.7442C185.044 34.5622 184.964 34.3053 184.964 33.9735V33.2028H185.092C185.017 33.5774 184.867 33.9039 184.643 34.1822C184.429 34.4498 184.156 34.6585 183.824 34.8084C183.492 34.9583 183.112 35.0332 182.684 35.0332ZM189.907 35.0011C189.575 35.0011 189.318 34.9154 189.136 34.7442C188.965 34.5622 188.879 34.3053 188.879 33.9735V27.9043C188.879 27.5725 188.965 27.3209 189.136 27.1496C189.308 26.9784 189.548 26.8927 189.859 26.8927C190.169 26.8927 190.41 26.9784 190.581 27.1496C190.753 27.3209 190.838 27.5725 190.838 27.9043V28.9158H190.678C190.828 28.2736 191.122 27.7865 191.561 27.4547C192 27.1229 192.583 26.9249 193.311 26.8606C193.536 26.8392 193.712 26.8981 193.841 27.0373C193.98 27.1657 194.06 27.3691 194.082 27.6474C194.103 27.915 194.039 28.1344 193.889 28.3057C193.75 28.4662 193.536 28.5626 193.247 28.5947L192.894 28.6268C192.241 28.691 191.748 28.8944 191.416 29.2369C191.085 29.5688 190.919 30.0397 190.919 30.6499V33.9735C190.919 34.3053 190.833 34.5622 190.662 34.7442C190.49 34.9154 190.239 35.0011 189.907 35.0011ZM194.204 37.9072C193.968 37.9286 193.776 37.8912 193.626 37.7948C193.476 37.7092 193.374 37.5968 193.321 37.4576C193.256 37.3185 193.235 37.174 193.256 37.0241C193.278 36.8743 193.342 36.7405 193.449 36.6227C193.545 36.5157 193.679 36.4568 193.85 36.4461C194.332 36.4033 194.68 36.2641 194.894 36.0287C195.119 35.8039 195.231 35.456 195.231 34.985V27.9043C195.231 27.5725 195.317 27.3209 195.488 27.1496C195.67 26.9784 195.922 26.8927 196.243 26.8927C196.564 26.8927 196.81 26.9784 196.981 27.1496C197.153 27.3209 197.238 27.5725 197.238 27.9043V34.8084C197.238 35.4935 197.126 36.0554 196.901 36.4943C196.687 36.9332 196.355 37.265 195.906 37.4898C195.467 37.7145 194.899 37.8537 194.204 37.9072ZM196.227 25.4156C195.852 25.4156 195.558 25.3246 195.344 25.1426C195.14 24.95 195.039 24.6877 195.039 24.3559C195.039 24.0134 195.14 23.7511 195.344 23.5691C195.558 23.3872 195.852 23.2962 196.227 23.2962C196.612 23.2962 196.906 23.3872 197.11 23.5691C197.313 23.7511 197.415 24.0134 197.415 24.3559C197.415 24.6877 197.313 24.95 197.11 25.1426C196.906 25.3246 196.612 25.4156 196.227 25.4156ZM203.192 35.0332C202.303 35.0332 201.538 34.8673 200.896 34.5354C200.253 34.2036 199.756 33.7326 199.403 33.1225C199.06 32.5124 198.889 31.7899 198.889 30.9549C198.889 30.1414 199.055 29.4296 199.386 28.8195C199.729 28.2093 200.195 27.733 200.783 27.3905C201.383 27.0373 202.062 26.8606 202.822 26.8606C203.379 26.8606 203.877 26.9516 204.316 27.1336C204.765 27.3156 205.145 27.5778 205.456 27.9203C205.777 28.2629 206.018 28.6803 206.178 29.1727C206.349 29.6544 206.435 30.2003 206.435 30.8104C206.435 31.0031 206.365 31.153 206.226 31.26C206.098 31.3563 205.911 31.4045 205.664 31.4045H200.51V30.2485H205.022L204.765 30.4893C204.765 29.9969 204.69 29.5848 204.54 29.253C204.401 28.9212 204.193 28.6696 203.914 28.4984C203.647 28.3164 203.309 28.2254 202.903 28.2254C202.453 28.2254 202.068 28.3324 201.747 28.5465C201.436 28.7499 201.195 29.0443 201.024 29.4296C200.864 29.8042 200.783 30.2538 200.783 30.7783V30.8907C200.783 31.7684 200.987 32.4267 201.393 32.8656C201.811 33.2938 202.421 33.5079 203.224 33.5079C203.502 33.5079 203.813 33.4757 204.155 33.4115C204.508 33.3366 204.84 33.2135 205.151 33.0422C205.375 32.9138 205.573 32.8603 205.745 32.8817C205.916 32.8924 206.05 32.9512 206.146 33.0583C206.253 33.1653 206.317 33.2991 206.339 33.4597C206.36 33.6095 206.328 33.7647 206.242 33.9253C206.167 34.0859 206.034 34.225 205.841 34.3428C205.466 34.5783 205.033 34.7549 204.54 34.8726C204.059 34.9797 203.609 35.0332 203.192 35.0332ZM211.59 35.0332C210.894 35.0332 210.311 34.9154 209.84 34.6799C209.379 34.4445 209.037 34.1019 208.812 33.6524C208.587 33.1921 208.475 32.6248 208.475 31.9504V28.5305H207.64C207.383 28.5305 207.185 28.4662 207.046 28.3378C206.907 28.1986 206.837 28.0113 206.837 27.7758C206.837 27.5296 206.907 27.3423 207.046 27.2139C207.185 27.0854 207.383 27.0212 207.64 27.0212H208.475V25.5601C208.475 25.2283 208.56 24.9767 208.732 24.8055C208.914 24.6342 209.165 24.5486 209.486 24.5486C209.807 24.5486 210.054 24.6342 210.225 24.8055C210.396 24.9767 210.482 25.2283 210.482 25.5601V27.0212H212.184C212.441 27.0212 212.639 27.0854 212.778 27.2139C212.917 27.3423 212.987 27.5296 212.987 27.7758C212.987 28.0113 212.917 28.1986 212.778 28.3378C212.639 28.4662 212.441 28.5305 212.184 28.5305H210.482V31.838C210.482 32.3518 210.594 32.7372 210.819 32.9941C211.044 33.251 211.408 33.3794 211.911 33.3794C212.093 33.3794 212.253 33.3633 212.392 33.3312C212.532 33.2991 212.655 33.2777 212.762 33.267C212.89 33.2563 212.997 33.2991 213.083 33.3955C213.169 33.4811 213.211 33.6631 213.211 33.9414C213.211 34.1554 213.174 34.3481 213.099 34.5194C213.035 34.6799 212.912 34.7923 212.73 34.8566C212.591 34.8994 212.409 34.9368 212.184 34.969C211.959 35.0118 211.761 35.0332 211.59 35.0332ZM216.74 35.0332C216.173 35.0332 215.665 34.9261 215.215 34.7121C214.776 34.4873 214.428 34.1876 214.171 33.8129C213.925 33.4383 213.802 33.0155 213.802 32.5445C213.802 31.9665 213.952 31.5115 214.252 31.1797C214.551 30.8372 215.038 30.591 215.713 30.4411C216.387 30.2913 217.292 30.2164 218.426 30.2164H219.229V31.3724H218.442C217.779 31.3724 217.249 31.4045 216.853 31.4687C216.457 31.533 216.173 31.6453 216.002 31.8059C215.841 31.9558 215.761 32.1698 215.761 32.4482C215.761 32.8014 215.884 33.0904 216.13 33.3152C216.376 33.54 216.719 33.6524 217.158 33.6524C217.511 33.6524 217.821 33.5721 218.089 33.4115C218.367 33.2403 218.587 33.0101 218.747 32.7211C218.908 32.4321 218.988 32.1003 218.988 31.7256V29.8792C218.988 29.344 218.87 28.9586 218.635 28.7231C218.399 28.4876 218.003 28.3699 217.447 28.3699C217.136 28.3699 216.799 28.4074 216.435 28.4823C216.082 28.5572 215.707 28.6857 215.311 28.8676C215.108 28.964 214.926 28.9907 214.765 28.9479C214.616 28.9051 214.498 28.8195 214.412 28.691C214.327 28.5519 214.284 28.402 214.284 28.2415C214.284 28.0809 214.327 27.9257 214.412 27.7758C214.498 27.6153 214.642 27.4975 214.846 27.4226C215.338 27.2192 215.809 27.0747 216.259 26.9891C216.719 26.9034 217.136 26.8606 217.511 26.8606C218.282 26.8606 218.913 26.9784 219.406 27.2139C219.909 27.4494 220.283 27.8079 220.53 28.2896C220.776 28.7606 220.899 29.3707 220.899 30.12V33.9735C220.899 34.3053 220.819 34.5622 220.658 34.7442C220.497 34.9154 220.267 35.0011 219.968 35.0011C219.668 35.0011 219.432 34.9154 219.261 34.7442C219.101 34.5622 219.02 34.3053 219.02 33.9735V33.2028H219.149C219.074 33.5774 218.924 33.9039 218.699 34.1822C218.485 34.4498 218.212 34.6585 217.88 34.8084C217.548 34.9583 217.168 35.0332 216.74 35.0332ZM230.924 35.0332C230.099 35.0332 229.382 34.8673 228.772 34.5354C228.162 34.1929 227.691 33.7112 227.359 33.0904C227.027 32.4696 226.861 31.7417 226.861 30.9068C226.861 30.2752 226.952 29.7133 227.134 29.2209C227.327 28.7178 227.6 28.295 227.953 27.9524C228.306 27.5992 228.735 27.3316 229.238 27.1496C229.741 26.957 230.303 26.8606 230.924 26.8606C231.277 26.8606 231.657 26.9088 232.064 27.0051C232.481 27.1015 232.872 27.262 233.236 27.4868C233.407 27.5939 233.519 27.7223 233.573 27.8722C233.626 28.022 233.637 28.1772 233.605 28.3378C233.573 28.4877 233.503 28.6215 233.396 28.7392C233.3 28.8462 233.177 28.9158 233.027 28.9479C232.877 28.9693 232.711 28.9319 232.529 28.8355C232.294 28.6964 232.053 28.5947 231.807 28.5305C231.56 28.4555 231.325 28.4181 231.1 28.4181C230.747 28.4181 230.437 28.4769 230.169 28.5947C229.901 28.7017 229.671 28.8623 229.479 29.0764C229.297 29.2798 229.157 29.5366 229.061 29.8471C228.965 30.1575 228.917 30.5161 228.917 30.9228C228.917 31.7149 229.104 32.3411 229.479 32.8014C229.864 33.251 230.404 33.4757 231.1 33.4757C231.325 33.4757 231.555 33.4436 231.791 33.3794C232.037 33.3152 232.283 33.2135 232.529 33.0743C232.711 32.978 232.872 32.9459 233.011 32.978C233.161 33.0101 233.284 33.085 233.38 33.2028C233.477 33.3098 233.535 33.4436 233.557 33.6042C233.578 33.754 233.557 33.9039 233.493 34.0538C233.439 34.2036 233.332 34.3267 233.171 34.423C232.818 34.6371 232.444 34.7923 232.048 34.8887C231.651 34.985 231.277 35.0332 230.924 35.0332ZM238.292 35.0332C237.478 35.0332 236.772 34.8673 236.173 34.5354C235.573 34.2036 235.108 33.7326 234.776 33.1225C234.444 32.5017 234.278 31.7738 234.278 30.9389C234.278 30.3073 234.369 29.7454 234.551 29.253C234.744 28.7499 235.017 28.3217 235.37 27.9685C235.723 27.6046 236.146 27.3316 236.638 27.1496C237.131 26.957 237.682 26.8606 238.292 26.8606C239.105 26.8606 239.812 27.0265 240.411 27.3584C241.011 27.6902 241.476 28.1612 241.808 28.7713C242.14 29.3814 242.306 30.104 242.306 30.9389C242.306 31.5704 242.21 32.1377 242.017 32.6408C241.835 33.1439 241.567 33.5774 241.214 33.9414C240.861 34.2946 240.438 34.5676 239.946 34.7602C239.453 34.9422 238.902 35.0332 238.292 35.0332ZM238.292 33.5079C238.688 33.5079 239.036 33.4115 239.336 33.2188C239.635 33.0262 239.865 32.7425 240.026 32.3679C240.197 31.9825 240.283 31.5062 240.283 30.9389C240.283 30.0826 240.101 29.4457 239.737 29.0282C239.373 28.6 238.891 28.386 238.292 28.386C237.896 28.386 237.548 28.4823 237.248 28.675C236.949 28.8569 236.713 29.1406 236.542 29.5259C236.381 29.9006 236.301 30.3716 236.301 30.9389C236.301 31.7845 236.483 32.4267 236.847 32.8656C237.211 33.2938 237.693 33.5079 238.292 33.5079ZM244.958 35.0011C244.637 35.0011 244.391 34.9154 244.219 34.7442C244.048 34.5622 243.963 34.3053 243.963 33.9735V27.9043C243.963 27.5725 244.048 27.3209 244.219 27.1496C244.391 26.9784 244.632 26.8927 244.942 26.8927C245.252 26.8927 245.493 26.9784 245.664 27.1496C245.836 27.3209 245.921 27.5725 245.921 27.9043V28.9961L245.745 28.5947C245.98 28.0274 246.344 27.5992 246.837 27.3102C247.34 27.0105 247.907 26.8606 248.539 26.8606C249.17 26.8606 249.689 26.9784 250.096 27.2139C250.503 27.4494 250.808 27.8079 251.011 28.2896C251.215 28.7606 251.316 29.36 251.316 30.0879V33.9735C251.316 34.3053 251.231 34.5622 251.059 34.7442C250.888 34.9154 250.642 35.0011 250.321 35.0011C250 35.0011 249.748 34.9154 249.566 34.7442C249.395 34.5622 249.309 34.3053 249.309 33.9735V30.1842C249.309 29.5741 249.191 29.1299 248.956 28.8516C248.731 28.5733 248.378 28.4341 247.896 28.4341C247.308 28.4341 246.837 28.6215 246.483 28.9961C246.141 29.36 245.97 29.8471 245.97 30.4572V33.9735C245.97 34.6585 245.632 35.0011 244.958 35.0011ZM258.741 35.0011C258.42 35.0011 258.174 34.9154 258.003 34.7442C257.831 34.5622 257.746 34.3053 257.746 33.9735V27.9043C257.746 27.5725 257.831 27.3209 258.003 27.1496C258.174 26.9784 258.415 26.8927 258.725 26.8927C259.036 26.8927 259.276 26.9784 259.448 27.1496C259.619 27.3209 259.705 27.5725 259.705 27.9043V29.0764L259.528 28.5947C259.742 28.0595 260.074 27.6367 260.524 27.3263C260.973 27.0158 261.508 26.8606 262.129 26.8606C262.761 26.8606 263.28 27.0105 263.687 27.3102C264.093 27.6099 264.377 28.0702 264.538 28.691H264.313C264.527 28.1237 264.88 27.6795 265.372 27.3584C265.865 27.0265 266.432 26.8606 267.074 26.8606C267.674 26.8606 268.166 26.9784 268.552 27.2139C268.948 27.4494 269.242 27.8079 269.435 28.2896C269.627 28.7606 269.724 29.36 269.724 30.0879V33.9735C269.724 34.3053 269.633 34.5622 269.451 34.7442C269.279 34.9154 269.033 35.0011 268.712 35.0011C268.391 35.0011 268.145 34.9154 267.974 34.7442C267.802 34.5622 267.717 34.3053 267.717 33.9735V30.1682C267.717 29.5688 267.615 29.1299 267.412 28.8516C267.219 28.5733 266.887 28.4341 266.416 28.4341C265.892 28.4341 265.479 28.6215 265.18 28.9961C264.88 29.36 264.73 29.8685 264.73 30.5214V33.9735C264.73 34.3053 264.645 34.5622 264.473 34.7442C264.302 34.9154 264.056 35.0011 263.735 35.0011C263.414 35.0011 263.162 34.9154 262.98 34.7442C262.809 34.5622 262.723 34.3053 262.723 33.9735V30.1682C262.723 29.5688 262.621 29.1299 262.418 28.8516C262.225 28.5733 261.899 28.4341 261.439 28.4341C260.914 28.4341 260.502 28.6215 260.202 28.9961C259.903 29.36 259.753 29.8685 259.753 30.5214V33.9735C259.753 34.6585 259.416 35.0011 258.741 35.0011ZM274.379 35.0332C273.812 35.0332 273.303 34.9261 272.854 34.7121C272.415 34.4873 272.067 34.1876 271.81 33.8129C271.564 33.4383 271.441 33.0155 271.441 32.5445C271.441 31.9665 271.591 31.5115 271.89 31.1797C272.19 30.8372 272.677 30.591 273.352 30.4411C274.026 30.2913 274.93 30.2164 276.065 30.2164H276.868V31.3724H276.081C275.417 31.3724 274.888 31.4045 274.492 31.4687C274.095 31.533 273.812 31.6453 273.641 31.8059C273.48 31.9558 273.4 32.1698 273.4 32.4482C273.4 32.8014 273.523 33.0904 273.769 33.3152C274.015 33.54 274.358 33.6524 274.797 33.6524C275.15 33.6524 275.46 33.5721 275.728 33.4115C276.006 33.2403 276.226 33.0101 276.386 32.7211C276.547 32.4321 276.627 32.1003 276.627 31.7256V29.8792C276.627 29.344 276.509 28.9586 276.274 28.7231C276.038 28.4876 275.642 28.3699 275.086 28.3699C274.775 28.3699 274.438 28.4074 274.074 28.4823C273.721 28.5572 273.346 28.6857 272.95 28.8676C272.747 28.964 272.565 28.9907 272.404 28.9479C272.254 28.9051 272.137 28.8195 272.051 28.691C271.965 28.5519 271.923 28.402 271.923 28.2415C271.923 28.0809 271.965 27.9257 272.051 27.7758C272.137 27.6153 272.281 27.4975 272.485 27.4226C272.977 27.2192 273.448 27.0747 273.897 26.9891C274.358 26.9034 274.775 26.8606 275.15 26.8606C275.921 26.8606 276.552 26.9784 277.044 27.2139C277.548 27.4494 277.922 27.8079 278.168 28.2896C278.415 28.7606 278.538 29.3707 278.538 30.12V33.9735C278.538 34.3053 278.457 34.5622 278.297 34.7442C278.136 34.9154 277.906 35.0011 277.606 35.0011C277.307 35.0011 277.071 34.9154 276.9 34.7442C276.739 34.5622 276.659 34.3053 276.659 33.9735V33.2028H276.788C276.713 33.5774 276.563 33.9039 276.338 34.1822C276.124 34.4498 275.851 34.6585 275.519 34.8084C275.187 34.9583 274.807 35.0332 274.379 35.0332ZM275.985 25.8812C275.878 26.0311 275.749 26.1167 275.599 26.1381C275.45 26.1595 275.305 26.1328 275.166 26.0578C275.027 25.9829 274.925 25.8759 274.861 25.7367C274.807 25.5976 274.823 25.4423 274.909 25.2711L276.129 22.8787C276.226 22.6753 276.354 22.5469 276.515 22.4934C276.675 22.4292 276.841 22.4185 277.012 22.4613C277.184 22.5041 277.328 22.5844 277.446 22.7021C277.574 22.8199 277.649 22.9644 277.671 23.1356C277.703 23.2962 277.66 23.4621 277.542 23.6334L275.985 25.8812ZM283.449 35.0332C282.989 35.0332 282.502 34.985 281.988 34.8887C281.474 34.7923 281.014 34.6264 280.607 34.3909C280.436 34.2839 280.313 34.1608 280.238 34.0216C280.173 33.8718 280.147 33.7273 280.157 33.5881C280.179 33.4383 280.232 33.3098 280.318 33.2028C280.414 33.0957 280.532 33.0262 280.671 32.9941C280.821 32.9619 280.982 32.9887 281.153 33.0743C281.581 33.2777 281.982 33.4222 282.357 33.5079C282.732 33.5828 283.101 33.6202 283.465 33.6202C283.979 33.6202 284.359 33.5346 284.605 33.3633C284.862 33.1814 284.99 32.9459 284.99 32.6569C284.99 32.4107 284.905 32.2234 284.733 32.0949C284.573 31.9558 284.327 31.8541 283.995 31.7899L282.389 31.4848C281.725 31.3563 281.217 31.1155 280.864 30.7623C280.521 30.3983 280.35 29.9327 280.35 29.3654C280.35 28.8516 280.489 28.4074 280.767 28.0327C281.056 27.6581 281.453 27.3691 281.956 27.1657C282.459 26.9623 283.037 26.8606 283.69 26.8606C284.161 26.8606 284.6 26.9142 285.006 27.0212C285.424 27.1175 285.825 27.2727 286.21 27.4868C286.371 27.5725 286.478 27.6848 286.532 27.824C286.596 27.9632 286.612 28.1077 286.58 28.2575C286.548 28.3967 286.483 28.5251 286.387 28.6429C286.291 28.7499 286.168 28.8195 286.018 28.8516C285.879 28.873 285.718 28.8409 285.536 28.7553C285.204 28.584 284.883 28.4609 284.573 28.386C284.273 28.311 283.984 28.2736 283.706 28.2736C283.181 28.2736 282.791 28.3646 282.534 28.5465C282.287 28.7285 282.164 28.9693 282.164 29.269C282.164 29.4938 282.239 29.6812 282.389 29.831C282.539 29.9809 282.769 30.0826 283.08 30.1361L284.685 30.4411C285.381 30.5696 285.905 30.8051 286.259 31.1476C286.623 31.4901 286.805 31.9504 286.805 32.5284C286.805 33.3098 286.499 33.9253 285.889 34.3749C285.279 34.8137 284.466 35.0332 283.449 35.0332ZM295.792 35.0332C295.107 35.0332 294.502 34.8673 293.978 34.5354C293.464 34.2036 293.063 33.7326 292.774 33.1225C292.485 32.5017 292.34 31.7738 292.34 30.9389C292.34 30.0933 292.485 29.3707 292.774 28.7713C293.063 28.1612 293.464 27.6902 293.978 27.3584C294.502 27.0265 295.107 26.8606 295.792 26.8606C296.445 26.8606 297.012 27.0212 297.494 27.3423C297.987 27.6634 298.318 28.0862 298.49 28.6107H298.313V24.4362C298.313 24.1043 298.399 23.8528 298.57 23.6815C298.741 23.5103 298.987 23.4246 299.308 23.4246C299.63 23.4246 299.876 23.5103 300.047 23.6815C300.229 23.8528 300.32 24.1043 300.32 24.4362V33.9735C300.32 34.3053 300.234 34.5622 300.063 34.7442C299.892 34.9154 299.646 35.0011 299.325 35.0011C299.003 35.0011 298.757 34.9154 298.586 34.7442C298.415 34.5622 298.329 34.3053 298.329 33.9735V32.7211L298.506 33.2028C298.345 33.7594 298.019 34.2036 297.526 34.5354C297.034 34.8673 296.456 35.0332 295.792 35.0332ZM296.354 33.5079C296.75 33.5079 297.098 33.4115 297.398 33.2188C297.698 33.0262 297.928 32.7425 298.088 32.3679C298.259 31.9825 298.345 31.5062 298.345 30.9389C298.345 30.0826 298.163 29.4457 297.799 29.0282C297.435 28.6 296.954 28.386 296.354 28.386C295.958 28.386 295.61 28.4823 295.311 28.675C295.011 28.8569 294.775 29.1406 294.604 29.5259C294.443 29.9006 294.363 30.3716 294.363 30.9389C294.363 31.7845 294.545 32.4267 294.909 32.8656C295.273 33.2938 295.755 33.5079 296.354 33.5079ZM306.271 35.0332C305.382 35.0332 304.617 34.8673 303.975 34.5354C303.332 34.2036 302.835 33.7326 302.481 33.1225C302.139 32.5124 301.968 31.7899 301.968 30.9549C301.968 30.1414 302.133 29.4296 302.465 28.8195C302.808 28.2093 303.273 27.733 303.862 27.3905C304.462 27.0373 305.141 26.8606 305.901 26.8606C306.458 26.8606 306.956 26.9516 307.394 27.1336C307.844 27.3156 308.224 27.5778 308.534 27.9203C308.856 28.2629 309.096 28.6803 309.257 29.1727C309.428 29.6544 309.514 30.2003 309.514 30.8104C309.514 31.0031 309.444 31.153 309.305 31.26C309.177 31.3563 308.989 31.4045 308.743 31.4045H303.589V30.2485H308.101L307.844 30.4893C307.844 29.9969 307.769 29.5848 307.619 29.253C307.48 28.9212 307.271 28.6696 306.993 28.4984C306.725 28.3164 306.388 28.2254 305.982 28.2254C305.532 28.2254 305.147 28.3324 304.825 28.5465C304.515 28.7499 304.274 29.0443 304.103 29.4296C303.942 29.8042 303.862 30.2538 303.862 30.7783V30.8907C303.862 31.7684 304.066 32.4267 304.472 32.8656C304.89 33.2938 305.5 33.5079 306.303 33.5079C306.581 33.5079 306.891 33.4757 307.234 33.4115C307.587 33.3366 307.919 33.2135 308.229 33.0422C308.454 32.9138 308.652 32.8603 308.823 32.8817C308.995 32.8924 309.129 32.9512 309.225 33.0583C309.332 33.1653 309.396 33.2991 309.418 33.4597C309.439 33.6095 309.407 33.7647 309.321 33.9253C309.246 34.0859 309.112 34.225 308.92 34.3428C308.545 34.5783 308.112 34.7549 307.619 34.8726C307.138 34.9797 306.688 35.0332 306.271 35.0332ZM318.304 35.0332C317.651 35.0332 317.111 34.9154 316.683 34.6799C316.254 34.4338 315.933 34.0698 315.719 33.5881C315.516 33.1065 315.414 32.507 315.414 31.7899V27.9043C315.414 27.5617 315.5 27.3102 315.671 27.1496C315.842 26.9784 316.088 26.8927 316.41 26.8927C316.731 26.8927 316.977 26.9784 317.148 27.1496C317.33 27.3102 317.421 27.5617 317.421 27.9043V31.822C317.421 32.3786 317.534 32.7907 317.758 33.0583C317.983 33.3259 318.342 33.4597 318.834 33.4597C319.369 33.4597 319.808 33.2777 320.151 32.9138C320.493 32.5391 320.664 32.0467 320.664 31.4366V27.9043C320.664 27.5617 320.75 27.3102 320.921 27.1496C321.093 26.9784 321.339 26.8927 321.66 26.8927C321.981 26.8927 322.227 26.9784 322.398 27.1496C322.58 27.3102 322.671 27.5617 322.671 27.9043V33.9735C322.671 34.6585 322.345 35.0011 321.692 35.0011C321.382 35.0011 321.141 34.9154 320.97 34.7442C320.798 34.5622 320.713 34.3053 320.713 33.9735V32.7532L320.937 33.2349C320.713 33.8129 320.37 34.2571 319.91 34.5676C319.46 34.878 318.925 35.0332 318.304 35.0332ZM325.756 35.0011C325.435 35.0011 325.189 34.9154 325.017 34.7442C324.846 34.5622 324.76 34.3053 324.76 33.9735V27.9043C324.76 27.5725 324.846 27.3209 325.017 27.1496C325.189 26.9784 325.429 26.8927 325.74 26.8927C326.05 26.8927 326.291 26.9784 326.462 27.1496C326.634 27.3209 326.719 27.5725 326.719 27.9043V28.9961L326.543 28.5947C326.778 28.0274 327.142 27.5992 327.634 27.3102C328.138 27.0105 328.705 26.8606 329.336 26.8606C329.968 26.8606 330.487 26.9784 330.894 27.2139C331.301 27.4494 331.606 27.8079 331.809 28.2896C332.012 28.7606 332.114 29.36 332.114 30.0879V33.9735C332.114 34.3053 332.028 34.5622 331.857 34.7442C331.686 34.9154 331.44 35.0011 331.119 35.0011C330.797 35.0011 330.546 34.9154 330.364 34.7442C330.193 34.5622 330.107 34.3053 330.107 33.9735V30.1842C330.107 29.5741 329.989 29.1299 329.754 28.8516C329.529 28.5733 329.176 28.4341 328.694 28.4341C328.105 28.4341 327.634 28.6215 327.281 28.9961C326.939 29.36 326.767 29.8471 326.767 30.4572V33.9735C326.767 34.6585 326.43 35.0011 325.756 35.0011ZM336.738 35.0332C336.17 35.0332 335.662 34.9261 335.212 34.7121C334.773 34.4873 334.426 34.1876 334.169 33.8129C333.922 33.4383 333.799 33.0155 333.799 32.5445C333.799 31.9665 333.949 31.5115 334.249 31.1797C334.549 30.8372 335.036 30.591 335.71 30.4411C336.384 30.2913 337.289 30.2164 338.423 30.2164H339.226V31.3724H338.44C337.776 31.3724 337.246 31.4045 336.85 31.4687C336.454 31.533 336.17 31.6453 335.999 31.8059C335.838 31.9558 335.758 32.1698 335.758 32.4482C335.758 32.8014 335.881 33.0904 336.127 33.3152C336.374 33.54 336.716 33.6524 337.155 33.6524C337.508 33.6524 337.819 33.5721 338.086 33.4115C338.365 33.2403 338.584 33.0101 338.745 32.7211C338.905 32.4321 338.985 32.1003 338.985 31.7256V29.8792C338.985 29.344 338.868 28.9586 338.632 28.7231C338.397 28.4876 338.001 28.3699 337.444 28.3699C337.134 28.3699 336.796 28.4074 336.433 28.4823C336.079 28.5572 335.705 28.6857 335.309 28.8676C335.105 28.964 334.923 28.9907 334.763 28.9479C334.613 28.9051 334.495 28.8195 334.409 28.691C334.324 28.5519 334.281 28.402 334.281 28.2415C334.281 28.0809 334.324 27.9257 334.409 27.7758C334.495 27.6153 334.64 27.4975 334.843 27.4226C335.335 27.2192 335.806 27.0747 336.256 26.9891C336.716 26.9034 337.134 26.8606 337.508 26.8606C338.279 26.8606 338.911 26.9784 339.403 27.2139C339.906 27.4494 340.281 27.8079 340.527 28.2896C340.773 28.7606 340.896 29.3707 340.896 30.12V33.9735C340.896 34.3053 340.816 34.5622 340.655 34.7442C340.495 34.9154 340.265 35.0011 339.965 35.0011C339.665 35.0011 339.43 34.9154 339.258 34.7442C339.098 34.5622 339.018 34.3053 339.018 33.9735V33.2028H339.146C339.071 33.5774 338.921 33.9039 338.696 34.1822C338.482 34.4498 338.209 34.6585 337.878 34.8084C337.546 34.9583 337.166 35.0332 336.738 35.0332ZM349.974 35.0332C349.085 35.0332 348.416 34.7816 347.967 34.2785C347.517 33.7647 347.292 33.0155 347.292 32.0307V24.4362C347.292 24.1043 347.378 23.8528 347.549 23.6815C347.72 23.5103 347.967 23.4246 348.288 23.4246C348.609 23.4246 348.855 23.5103 349.026 23.6815C349.208 23.8528 349.299 24.1043 349.299 24.4362V31.9344C349.299 32.4267 349.401 32.7907 349.604 33.0262C349.818 33.2617 350.118 33.3794 350.503 33.3794C350.589 33.3794 350.669 33.3794 350.744 33.3794C350.819 33.3687 350.894 33.358 350.969 33.3473C351.119 33.3259 351.221 33.3687 351.274 33.4757C351.328 33.5721 351.354 33.7755 351.354 34.0859C351.354 34.3535 351.301 34.5622 351.194 34.7121C351.087 34.8619 350.91 34.9529 350.664 34.985C350.557 34.9957 350.445 35.0064 350.327 35.0171C350.209 35.0278 350.091 35.0332 349.974 35.0332ZM353.415 34.985C353.094 34.985 352.848 34.8887 352.676 34.696C352.505 34.5033 352.419 34.2357 352.419 33.8932V28.0006C352.419 27.6474 352.505 27.3798 352.676 27.1978C352.848 27.0051 353.094 26.9088 353.415 26.9088C353.736 26.9088 353.982 27.0051 354.154 27.1978C354.336 27.3798 354.426 27.6474 354.426 28.0006V33.8932C354.426 34.2357 354.341 34.5033 354.17 34.696C353.998 34.8887 353.747 34.985 353.415 34.985ZM354.17 25.8812C354.063 26.0311 353.934 26.1167 353.784 26.1381C353.634 26.1595 353.49 26.1328 353.351 26.0578C353.212 25.9829 353.11 25.8759 353.046 25.7367C352.992 25.5976 353.008 25.4423 353.094 25.2711L354.314 22.8787C354.41 22.6753 354.539 22.5469 354.699 22.4934C354.86 22.4292 355.026 22.4185 355.197 22.4613C355.368 22.5041 355.513 22.5844 355.631 22.7021C355.759 22.8199 355.834 22.9644 355.855 23.1356C355.888 23.2962 355.845 23.4621 355.727 23.6334L354.17 25.8812ZM357.507 35.0011C357.186 35.0011 356.94 34.9154 356.769 34.7442C356.598 34.5622 356.512 34.3053 356.512 33.9735V27.9043C356.512 27.5725 356.598 27.3209 356.769 27.1496C356.94 26.9784 357.181 26.8927 357.491 26.8927C357.802 26.8927 358.043 26.9784 358.214 27.1496C358.385 27.3209 358.471 27.5725 358.471 27.9043V28.9961L358.294 28.5947C358.53 28.0274 358.894 27.5992 359.386 27.3102C359.889 27.0105 360.456 26.8606 361.088 26.8606C361.719 26.8606 362.239 26.9784 362.645 27.2139C363.052 27.4494 363.357 27.8079 363.561 28.2896C363.764 28.7606 363.866 29.36 363.866 30.0879V33.9735C363.866 34.3053 363.78 34.5622 363.609 34.7442C363.437 34.9154 363.191 35.0011 362.87 35.0011C362.549 35.0011 362.297 34.9154 362.115 34.7442C361.944 34.5622 361.859 34.3053 361.859 33.9735V30.1842C361.859 29.5741 361.741 29.1299 361.505 28.8516C361.281 28.5733 360.927 28.4341 360.446 28.4341C359.857 28.4341 359.386 28.6215 359.033 28.9961C358.69 29.36 358.519 29.8471 358.519 30.4572V33.9735C358.519 34.6585 358.182 35.0011 357.507 35.0011ZM369.774 35.0332C368.885 35.0332 368.12 34.8673 367.478 34.5354C366.835 34.2036 366.338 33.7326 365.984 33.1225C365.642 32.5124 365.471 31.7899 365.471 30.9549C365.471 30.1414 365.637 29.4296 365.968 28.8195C366.311 28.2093 366.776 27.733 367.365 27.3905C367.965 27.0373 368.644 26.8606 369.404 26.8606C369.961 26.8606 370.459 26.9516 370.898 27.1336C371.347 27.3156 371.727 27.5778 372.038 27.9203C372.359 28.2629 372.599 28.6803 372.76 29.1727C372.931 29.6544 373.017 30.2003 373.017 30.8104C373.017 31.0031 372.947 31.153 372.808 31.26C372.68 31.3563 372.492 31.4045 372.246 31.4045H367.092V30.2485H371.604L371.347 30.4893C371.347 29.9969 371.272 29.5848 371.122 29.253C370.983 28.9212 370.774 28.6696 370.496 28.4984C370.229 28.3164 369.891 28.2254 369.485 28.2254C369.035 28.2254 368.65 28.3324 368.329 28.5465C368.018 28.7499 367.777 29.0443 367.606 29.4296C367.445 29.8042 367.365 30.2538 367.365 30.7783V30.8907C367.365 31.7684 367.569 32.4267 367.975 32.8656C368.393 33.2938 369.003 33.5079 369.806 33.5079C370.084 33.5079 370.394 33.4757 370.737 33.4115C371.09 33.3366 371.422 33.2135 371.732 33.0422C371.957 32.9138 372.155 32.8603 372.327 32.8817C372.498 32.8924 372.632 32.9512 372.728 33.0583C372.835 33.1653 372.899 33.2991 372.921 33.4597C372.942 33.6095 372.91 33.7647 372.824 33.9253C372.749 34.0859 372.616 34.225 372.423 34.3428C372.048 34.5783 371.615 34.7549 371.122 34.8726C370.641 34.9797 370.191 35.0332 369.774 35.0332ZM377.191 35.0332C376.624 35.0332 376.116 34.9261 375.666 34.7121C375.227 34.4873 374.879 34.1876 374.622 33.8129C374.376 33.4383 374.253 33.0155 374.253 32.5445C374.253 31.9665 374.403 31.5115 374.703 31.1797C375.002 30.8372 375.489 30.591 376.164 30.4411C376.838 30.2913 377.743 30.2164 378.877 30.2164H379.68V31.3724H378.893C378.23 31.3724 377.7 31.4045 377.304 31.4687C376.908 31.533 376.624 31.6453 376.453 31.8059C376.292 31.9558 376.212 32.1698 376.212 32.4482C376.212 32.8014 376.335 33.0904 376.581 33.3152C376.827 33.54 377.17 33.6524 377.609 33.6524C377.962 33.6524 378.273 33.5721 378.54 33.4115C378.818 33.2403 379.038 33.0101 379.198 32.7211C379.359 32.4321 379.439 32.1003 379.439 31.7256V29.8792C379.439 29.344 379.322 28.9586 379.086 28.7231C378.851 28.4876 378.454 28.3699 377.898 28.3699C377.587 28.3699 377.25 28.4074 376.886 28.4823C376.533 28.5572 376.158 28.6857 375.762 28.8676C375.559 28.964 375.377 28.9907 375.217 28.9479C375.067 28.9051 374.949 28.8195 374.863 28.691C374.778 28.5519 374.735 28.402 374.735 28.2415C374.735 28.0809 374.778 27.9257 374.863 27.7758C374.949 27.6153 375.093 27.4975 375.297 27.4226C375.789 27.2192 376.26 27.0747 376.71 26.9891C377.17 26.9034 377.587 26.8606 377.962 26.8606C378.733 26.8606 379.364 26.9784 379.857 27.2139C380.36 27.4494 380.734 27.8079 380.981 28.2896C381.227 28.7606 381.35 29.3707 381.35 30.12V33.9735C381.35 34.3053 381.27 34.5622 381.109 34.7442C380.949 34.9154 380.718 35.0011 380.419 35.0011C380.119 35.0011 379.883 34.9154 379.712 34.7442C379.552 34.5622 379.471 34.3053 379.471 33.9735V33.2028H379.6C379.525 33.5774 379.375 33.9039 379.15 34.1822C378.936 34.4498 378.663 34.6585 378.331 34.8084C378 34.9583 377.62 35.0332 377.191 35.0332Z" fill="#38485C"/>
<path d="M91.8608 54.3343C91.8608 55.4215 91.6627 56.3304 91.2666 57.061C90.8705 57.7872 90.2961 58.3352 89.5435 58.7049C88.7953 59.0702 87.8864 59.2528 86.8169 59.2528H84.1959V49.6007H87.1074C88.0889 49.6007 88.9339 49.7812 89.6425 50.1421C90.3511 50.4986 90.8969 51.0289 91.2798 51.7332C91.6671 52.433 91.8608 53.3 91.8608 54.3343ZM90.679 54.374C90.679 53.5069 90.5338 52.7917 90.2433 52.2283C89.9572 51.6649 89.5347 51.2468 88.9757 50.9739C88.4212 50.6966 87.7412 50.558 86.9357 50.558H85.3182V58.289H86.6848C88.014 58.289 89.0109 57.9611 89.6755 57.3053C90.3445 56.6495 90.679 55.6724 90.679 54.374ZM96.6275 51.885C97.2436 51.885 97.7718 52.0214 98.2119 52.2943C98.6521 52.5672 98.9888 52.9501 99.222 53.4431C99.4553 53.9316 99.572 54.5038 99.572 55.1596V55.8396H94.5742C94.5874 56.6891 94.7987 57.3361 95.208 57.7806C95.6173 58.2251 96.1939 58.4474 96.9378 58.4474C97.3955 58.4474 97.8004 58.4056 98.1525 58.322C98.5046 58.2383 98.8699 58.1151 99.2485 57.9523V58.9161C98.8831 59.079 98.52 59.1978 98.1591 59.2727C97.8026 59.3475 97.3801 59.3849 96.8915 59.3849C96.1961 59.3849 95.5887 59.244 95.0694 58.9624C94.5544 58.6763 94.1539 58.2581 93.8678 57.708C93.5817 57.1578 93.4387 56.4844 93.4387 55.6878C93.4387 54.9087 93.5685 54.2353 93.8282 53.6675C94.0923 53.0954 94.462 52.6552 94.9373 52.3471C95.4171 52.0391 95.9805 51.885 96.6275 51.885ZM96.6143 52.7829C96.0289 52.7829 95.5623 52.9743 95.2146 53.3573C94.8669 53.7402 94.6601 54.2749 94.594 54.9615H98.4232C98.4188 54.5302 98.3506 54.1517 98.2185 53.826C98.0909 53.4959 97.895 53.2406 97.631 53.0602C97.3669 52.8753 97.028 52.7829 96.6143 52.7829ZM106.115 57.2722C106.115 57.7344 105.998 58.1239 105.765 58.4408C105.536 58.7533 105.206 58.9888 104.774 59.1472C104.347 59.3057 103.837 59.3849 103.243 59.3849C102.737 59.3849 102.299 59.3453 101.929 59.266C101.559 59.1868 101.236 59.0746 100.958 58.9293V57.9192C101.253 58.0645 101.605 58.1965 102.015 58.3154C102.424 58.4342 102.842 58.4936 103.269 58.4936C103.894 58.4936 104.347 58.3924 104.629 58.1899C104.911 57.9875 105.052 57.7124 105.052 57.3647C105.052 57.1666 104.994 56.9928 104.88 56.8431C104.77 56.6891 104.583 56.5416 104.319 56.4008C104.055 56.2555 103.689 56.0971 103.223 55.9254C102.761 55.7494 102.36 55.5755 102.021 55.4039C101.687 55.2278 101.427 55.0144 101.242 54.7635C101.062 54.5126 100.972 54.1869 100.972 53.7864C100.972 53.1746 101.218 52.7059 101.711 52.3802C102.208 52.0501 102.86 51.885 103.665 51.885C104.101 51.885 104.508 51.929 104.887 52.017C105.269 52.1007 105.626 52.2151 105.956 52.3603L105.586 53.2384C105.287 53.1108 104.968 53.0029 104.629 52.9149C104.29 52.8269 103.945 52.7829 103.593 52.7829C103.086 52.7829 102.697 52.8665 102.424 53.0338C102.156 53.201 102.021 53.4299 102.021 53.7204C102.021 53.9448 102.083 54.1297 102.206 54.2749C102.334 54.4202 102.536 54.5566 102.814 54.6843C103.091 54.8119 103.456 54.9615 103.909 55.1332C104.363 55.3004 104.755 55.4743 105.085 55.6548C105.415 55.8308 105.668 56.0465 105.844 56.3017C106.024 56.5526 106.115 56.8761 106.115 57.2722ZM110.776 59.3849C110.124 59.3849 109.55 59.2506 109.052 58.9822C108.555 58.7137 108.168 58.3044 107.89 57.7542C107.613 57.204 107.475 56.5108 107.475 55.6746C107.475 54.7987 107.62 54.0835 107.91 53.5289C108.205 52.9699 108.61 52.5562 109.125 52.2877C109.64 52.0192 110.225 51.885 110.881 51.885C111.242 51.885 111.59 51.9224 111.924 51.9972C112.263 52.0677 112.54 52.1579 112.756 52.2679L112.426 53.1856C112.206 53.0976 111.951 53.0183 111.66 52.9479C111.374 52.8775 111.106 52.8423 110.855 52.8423C110.353 52.8423 109.935 52.9501 109.6 53.1658C109.27 53.3815 109.022 53.6984 108.854 54.1165C108.692 54.5346 108.61 55.0496 108.61 55.6614C108.61 56.2467 108.689 56.7463 108.848 57.16C109.011 57.5737 109.25 57.8906 109.567 58.1107C109.889 58.3264 110.289 58.4342 110.769 58.4342C111.152 58.4342 111.497 58.3946 111.805 58.3154C112.114 58.2317 112.393 58.1349 112.644 58.0249V59.002C112.402 59.1252 112.131 59.2198 111.832 59.2859C111.537 59.3519 111.185 59.3849 110.776 59.3849ZM117.648 51.885C117.793 51.885 117.945 51.8938 118.104 51.9114C118.262 51.9246 118.403 51.9444 118.526 51.9708L118.388 52.9875C118.269 52.9567 118.137 52.9325 117.992 52.9149C117.846 52.8973 117.71 52.8885 117.582 52.8885C117.292 52.8885 117.017 52.9479 116.757 53.0668C116.502 53.1812 116.277 53.3485 116.084 53.5685C115.89 53.7842 115.738 54.0461 115.628 54.3542C115.518 54.6578 115.463 54.9968 115.463 55.3709V59.2528H114.36V52.017H115.272L115.39 53.3507H115.437C115.586 53.0822 115.767 52.8379 115.978 52.6178C116.189 52.3934 116.433 52.2151 116.711 52.0831C116.992 51.951 117.305 51.885 117.648 51.885ZM120.989 52.017V59.2528H119.893V52.017H120.989ZM120.454 49.3102C120.635 49.3102 120.789 49.3696 120.916 49.4885C121.048 49.6029 121.114 49.7834 121.114 50.0298C121.114 50.2719 121.048 50.4524 120.916 50.5712C120.789 50.69 120.635 50.7495 120.454 50.7495C120.265 50.7495 120.106 50.69 119.979 50.5712C119.856 50.4524 119.794 50.2719 119.794 50.0298C119.794 49.7834 119.856 49.6029 119.979 49.4885C120.106 49.3696 120.265 49.3102 120.454 49.3102ZM126.713 51.885C127.615 51.885 128.335 52.1953 128.872 52.8159C129.409 53.4365 129.677 54.3696 129.677 55.6151C129.677 56.4382 129.554 57.1292 129.307 57.6882C129.061 58.2471 128.713 58.6697 128.264 58.9558C127.82 59.2418 127.294 59.3849 126.686 59.3849C126.303 59.3849 125.967 59.3343 125.676 59.233C125.386 59.1318 125.137 58.9954 124.93 58.8237C124.723 58.6521 124.552 58.465 124.415 58.2625H124.336C124.349 58.4342 124.365 58.6411 124.382 58.8831C124.404 59.1252 124.415 59.3365 124.415 59.5169V62.4878H123.313V52.017H124.217L124.362 53.0866H124.415C124.556 52.8665 124.728 52.6662 124.93 52.4858C125.133 52.3009 125.379 52.1557 125.67 52.0501C125.965 51.94 126.312 51.885 126.713 51.885ZM126.521 52.8093C126.02 52.8093 125.615 52.9061 125.307 53.0998C125.003 53.2934 124.781 53.5839 124.64 53.9712C124.499 54.3542 124.424 54.8361 124.415 55.4171V55.6283C124.415 56.2401 124.481 56.7573 124.613 57.1798C124.75 57.6023 124.972 57.9236 125.28 58.1437C125.593 58.3638 126.011 58.4738 126.535 58.4738C126.983 58.4738 127.358 58.3528 127.657 58.1107C127.956 57.8686 128.178 57.5319 128.324 57.1006C128.473 56.6649 128.548 56.1653 128.548 55.6019C128.548 54.7481 128.381 54.0703 128.046 53.5685C127.716 53.0624 127.208 52.8093 126.521 52.8093ZM134.49 59.3849C133.839 59.3849 133.264 59.2506 132.767 58.9822C132.269 58.7137 131.882 58.3044 131.605 57.7542C131.328 57.204 131.189 56.5108 131.189 55.6746C131.189 54.7987 131.334 54.0835 131.625 53.5289C131.92 52.9699 132.325 52.5562 132.839 52.2877C133.354 52.0192 133.94 51.885 134.596 51.885C134.957 51.885 135.304 51.9224 135.639 51.9972C135.978 52.0677 136.255 52.1579 136.471 52.2679L136.14 53.1856C135.92 53.0976 135.665 53.0183 135.375 52.9479C135.089 52.8775 134.82 52.8423 134.569 52.8423C134.067 52.8423 133.649 52.9501 133.315 53.1658C132.985 53.3815 132.736 53.6984 132.569 54.1165C132.406 54.5346 132.325 55.0496 132.325 55.6614C132.325 56.2467 132.404 56.7463 132.562 57.16C132.725 57.5737 132.965 57.8906 133.282 58.1107C133.603 58.3264 134.004 58.4342 134.483 58.4342C134.866 58.4342 135.212 58.3946 135.52 58.3154C135.828 58.2317 136.107 58.1349 136.358 58.0249V59.002C136.116 59.1252 135.846 59.2198 135.546 59.2859C135.251 59.3519 134.899 59.3849 134.49 59.3849ZM139.171 52.017V59.2528H138.075V52.017H139.171ZM138.636 49.3102C138.816 49.3102 138.971 49.3696 139.098 49.4885C139.23 49.6029 139.296 49.7834 139.296 50.0298C139.296 50.2719 139.23 50.4524 139.098 50.5712C138.971 50.69 138.816 50.7495 138.636 50.7495C138.447 50.7495 138.288 50.69 138.161 50.5712C138.037 50.4524 137.976 50.2719 137.976 50.0298C137.976 49.7834 138.037 49.6029 138.161 49.4885C138.288 49.3696 138.447 49.3102 138.636 49.3102ZM147.734 55.6217C147.734 56.2159 147.657 56.7463 147.503 57.2128C147.348 57.6794 147.126 58.0733 146.836 58.3946C146.545 58.7159 146.193 58.9624 145.779 59.134C145.37 59.3013 144.906 59.3849 144.386 59.3849C143.902 59.3849 143.458 59.3013 143.053 59.134C142.652 58.9624 142.305 58.7159 142.01 58.3946C141.719 58.0733 141.493 57.6794 141.33 57.2128C141.171 56.7463 141.092 56.2159 141.092 55.6217C141.092 54.8295 141.226 54.1561 141.495 53.6015C141.763 53.0426 142.146 52.6178 142.643 52.3273C143.145 52.0324 143.742 51.885 144.433 51.885C145.093 51.885 145.669 52.0324 146.162 52.3273C146.66 52.6222 147.045 53.0492 147.318 53.6081C147.595 54.1627 147.734 54.8339 147.734 55.6217ZM142.228 55.6217C142.228 56.2027 142.305 56.7067 142.459 57.1336C142.613 57.5605 142.85 57.8906 143.172 58.1239C143.493 58.3572 143.907 58.4738 144.413 58.4738C144.915 58.4738 145.326 58.3572 145.647 58.1239C145.973 57.8906 146.213 57.5605 146.367 57.1336C146.521 56.7067 146.598 56.2027 146.598 55.6217C146.598 55.0452 146.521 54.5478 146.367 54.1297C146.213 53.7072 145.975 53.3815 145.654 53.1526C145.333 52.9237 144.917 52.8093 144.406 52.8093C143.654 52.8093 143.101 53.058 142.749 53.5553C142.401 54.0527 142.228 54.7415 142.228 55.6217ZM146.327 48.8943V49.0263C146.239 49.154 146.118 49.308 145.964 49.4885C145.815 49.6645 145.647 49.8516 145.463 50.0496C145.278 50.2433 145.091 50.4282 144.901 50.6042C144.716 50.7803 144.545 50.9321 144.386 51.0598H143.654V50.9013C143.794 50.7341 143.948 50.5338 144.116 50.3005C144.283 50.0629 144.446 49.8208 144.604 49.5743C144.763 49.3234 144.895 49.0968 145 48.8943H146.327ZM153.055 51.885C153.913 51.885 154.562 52.0963 155.002 52.5188C155.443 52.9369 155.663 53.6103 155.663 54.539V59.2528H154.58V54.6116C154.58 54.0087 154.441 53.5575 154.164 53.2582C153.891 52.9589 153.471 52.8093 152.903 52.8093C152.102 52.8093 151.539 53.036 151.213 53.4893C150.887 53.9426 150.724 54.6006 150.724 55.4633V59.2528H149.628V52.017H150.513L150.678 53.0602H150.738C150.892 52.8049 151.087 52.5914 151.325 52.4198C151.563 52.2437 151.829 52.1117 152.124 52.0236C152.419 51.9312 152.729 51.885 153.055 51.885ZM164.008 59.3849C163.092 59.3849 162.366 59.0724 161.829 58.4474C161.296 57.8224 161.03 56.8937 161.03 55.6614C161.03 54.4158 161.303 53.4761 161.849 52.8423C162.394 52.2041 163.121 51.885 164.027 51.885C164.41 51.885 164.745 51.9356 165.031 52.0369C165.317 52.1381 165.563 52.2745 165.77 52.4462C165.977 52.6134 166.151 52.8049 166.292 53.0206H166.371C166.353 52.8841 166.336 52.6971 166.318 52.4594C166.301 52.2217 166.292 52.028 166.292 51.8784V48.9801H167.388V59.2528H166.503L166.338 58.2229H166.292C166.155 58.4386 165.982 58.6345 165.77 58.8105C165.563 58.9866 165.315 59.1274 165.024 59.233C164.738 59.3343 164.399 59.3849 164.008 59.3849ZM164.179 58.4738C164.954 58.4738 165.502 58.2537 165.823 57.8136C166.144 57.3735 166.305 56.7199 166.305 55.8528V55.6548C166.305 54.7349 166.151 54.0285 165.843 53.5355C165.539 53.0426 164.985 52.7961 164.179 52.7961C163.506 52.7961 163.002 53.0558 162.667 53.5751C162.333 54.0901 162.166 54.7943 162.166 55.6878C162.166 56.5768 162.331 57.2634 162.661 57.7476C162.995 58.2317 163.501 58.4738 164.179 58.4738ZM172.498 51.885C173.114 51.885 173.642 52.0214 174.082 52.2943C174.522 52.5672 174.859 52.9501 175.092 53.4431C175.326 53.9316 175.442 54.5038 175.442 55.1596V55.8396H170.445C170.458 56.6891 170.669 57.3361 171.078 57.7806C171.488 58.2251 172.064 58.4474 172.808 58.4474C173.266 58.4474 173.671 58.4056 174.023 58.322C174.375 58.2383 174.74 58.1151 175.119 57.9523V58.9161C174.753 59.079 174.39 59.1978 174.029 59.2727C173.673 59.3475 173.25 59.3849 172.762 59.3849C172.066 59.3849 171.459 59.244 170.94 58.9624C170.425 58.6763 170.024 58.2581 169.738 57.708C169.452 57.1578 169.309 56.4844 169.309 55.6878C169.309 54.9087 169.439 54.2353 169.698 53.6675C169.963 53.0954 170.332 52.6552 170.808 52.3471C171.287 52.0391 171.851 51.885 172.498 51.885ZM172.485 52.7829C171.899 52.7829 171.433 52.9743 171.085 53.3573C170.737 53.7402 170.53 54.2749 170.464 54.9615H174.293C174.289 54.5302 174.221 54.1517 174.089 53.826C173.961 53.4959 173.765 53.2406 173.501 53.0602C173.237 52.8753 172.898 52.7829 172.485 52.7829ZM181.919 59.2528H180.816V48.9801H181.919V59.2528ZM186.943 51.8982C187.806 51.8982 188.446 52.0919 188.864 52.4792C189.282 52.8665 189.491 53.4849 189.491 54.3343V59.2528H188.692L188.481 58.1833H188.428C188.226 58.4474 188.015 58.6697 187.795 58.8501C187.575 59.0262 187.319 59.1604 187.029 59.2528C186.743 59.3409 186.391 59.3849 185.972 59.3849C185.532 59.3849 185.141 59.3079 184.797 59.1538C184.458 58.9998 184.19 58.7665 183.992 58.454C183.798 58.1415 183.701 57.7454 183.701 57.2656C183.701 56.5438 183.987 55.9893 184.56 55.6019C185.132 55.2146 186.003 55.0034 187.174 54.9681L188.422 54.9153V54.473C188.422 53.848 188.288 53.4101 188.019 53.1592C187.751 52.9083 187.372 52.7829 186.884 52.7829C186.505 52.7829 186.144 52.8379 185.801 52.9479C185.457 53.058 185.132 53.1878 184.824 53.3374L184.487 52.5056C184.813 52.3383 185.187 52.1953 185.609 52.0765C186.032 51.9576 186.476 51.8982 186.943 51.8982ZM188.409 55.6878L187.306 55.734C186.404 55.7692 185.768 55.9166 185.398 56.1763C185.028 56.436 184.843 56.8035 184.843 57.2788C184.843 57.6926 184.969 57.9985 185.22 58.1965C185.471 58.3946 185.803 58.4936 186.217 58.4936C186.859 58.4936 187.385 58.3154 187.795 57.9589C188.204 57.6023 188.409 57.0676 188.409 56.3546V55.6878ZM197.599 58.487C197.779 58.487 197.964 58.4716 198.153 58.4408C198.342 58.41 198.496 58.3726 198.615 58.3286V59.1802C198.488 59.2374 198.309 59.2859 198.081 59.3255C197.856 59.3651 197.636 59.3849 197.42 59.3849C197.037 59.3849 196.69 59.3189 196.377 59.1868C196.065 59.0504 195.814 58.8215 195.625 58.5002C195.44 58.1789 195.347 57.7344 195.347 57.1666V52.8753H194.317V52.3405L195.354 51.9114L195.79 50.3401H196.45V52.017H198.569V52.8753H196.45V57.1336C196.45 57.5869 196.553 57.9258 196.76 58.1503C196.971 58.3748 197.251 58.487 197.599 58.487ZM202.788 51.8982C203.65 51.8982 204.291 52.0919 204.709 52.4792C205.127 52.8665 205.336 53.4849 205.336 54.3343V59.2528H204.537L204.326 58.1833H204.273C204.071 58.4474 203.859 58.6697 203.639 58.8501C203.419 59.0262 203.164 59.1604 202.874 59.2528C202.587 59.3409 202.235 59.3849 201.817 59.3849C201.377 59.3849 200.985 59.3079 200.642 59.1538C200.303 58.9998 200.035 58.7665 199.837 58.454C199.643 58.1415 199.546 57.7454 199.546 57.2656C199.546 56.5438 199.832 55.9893 200.404 55.6019C200.977 55.2146 201.848 55.0034 203.019 54.9681L204.267 54.9153V54.473C204.267 53.848 204.132 53.4101 203.864 53.1592C203.595 52.9083 203.217 52.7829 202.728 52.7829C202.35 52.7829 201.989 52.8379 201.646 52.9479C201.302 53.058 200.977 53.1878 200.668 53.3374L200.332 52.5056C200.657 52.3383 201.032 52.1953 201.454 52.0765C201.877 51.9576 202.321 51.8982 202.788 51.8982ZM204.253 55.6878L203.151 55.734C202.249 55.7692 201.613 55.9166 201.243 56.1763C200.873 56.436 200.688 56.8035 200.688 57.2788C200.688 57.6926 200.814 57.9985 201.065 58.1965C201.315 58.3946 201.648 58.4936 202.062 58.4936C202.704 58.4936 203.23 58.3154 203.639 57.9589C204.049 57.6023 204.253 57.0676 204.253 56.3546V55.6878ZM210.882 51.885C211.027 51.885 211.179 51.8938 211.337 51.9114C211.496 51.9246 211.637 51.9444 211.76 51.9708L211.621 52.9875C211.502 52.9567 211.37 52.9325 211.225 52.9149C211.08 52.8973 210.943 52.8885 210.816 52.8885C210.525 52.8885 210.25 52.9479 209.991 53.0668C209.735 53.1812 209.511 53.3485 209.317 53.5685C209.123 53.7842 208.972 54.0461 208.862 54.3542C208.752 54.6578 208.697 54.9968 208.697 55.3709V59.2528H207.594V52.017H208.505L208.624 53.3507H208.67C208.82 53.0822 209 52.8379 209.211 52.6178C209.423 52.3934 209.667 52.2151 209.944 52.0831C210.226 51.951 210.538 51.885 210.882 51.885ZM212.255 62.501C212.031 62.501 211.835 62.4834 211.667 62.4482C211.5 62.4174 211.355 62.38 211.232 62.336V61.4447C211.368 61.4887 211.507 61.5217 211.648 61.5437C211.788 61.5702 211.947 61.5834 212.123 61.5834C212.422 61.5834 212.664 61.4997 212.849 61.3325C213.034 61.1652 213.126 60.8615 213.126 60.4214V52.017H214.222V60.395C214.222 60.8351 214.152 61.2114 214.011 61.5239C213.87 61.8408 213.655 62.0829 213.364 62.2502C213.074 62.4174 212.704 62.501 212.255 62.501ZM213.027 50.0298C213.027 49.7834 213.089 49.6029 213.212 49.4885C213.34 49.3696 213.498 49.3102 213.688 49.3102C213.868 49.3102 214.022 49.3696 214.15 49.4885C214.282 49.6029 214.348 49.7834 214.348 50.0298C214.348 50.2719 214.282 50.4524 214.15 50.5712C214.022 50.69 213.868 50.7495 213.688 50.7495C213.498 50.7495 213.34 50.69 213.212 50.5712C213.089 50.4524 213.027 50.2719 213.027 50.0298ZM219.332 51.885C219.949 51.885 220.477 52.0214 220.917 52.2943C221.357 52.5672 221.694 52.9501 221.927 53.4431C222.16 53.9316 222.277 54.5038 222.277 55.1596V55.8396H217.279C217.292 56.6891 217.504 57.3361 217.913 57.7806C218.322 58.2251 218.899 58.4474 219.643 58.4474C220.1 58.4474 220.505 58.4056 220.857 58.322C221.21 58.2383 221.575 58.1151 221.953 57.9523V58.9161C221.588 59.079 221.225 59.1978 220.864 59.2727C220.508 59.3475 220.085 59.3849 219.596 59.3849C218.901 59.3849 218.294 59.244 217.774 58.9624C217.259 58.6763 216.859 58.2581 216.573 57.708C216.287 57.1578 216.144 56.4844 216.144 55.6878C216.144 54.9087 216.273 54.2353 216.533 53.6675C216.797 53.0954 217.167 52.6552 217.642 52.3471C218.122 52.0391 218.685 51.885 219.332 51.885ZM219.319 52.7829C218.734 52.7829 218.267 52.9743 217.92 53.3573C217.572 53.7402 217.365 54.2749 217.299 54.9615H221.128C221.124 54.5302 221.055 54.1517 220.923 53.826C220.796 53.4959 220.6 53.2406 220.336 53.0602C220.072 52.8753 219.733 52.7829 219.319 52.7829ZM226.476 58.487C226.656 58.487 226.841 58.4716 227.03 58.4408C227.22 58.41 227.374 58.3726 227.492 58.3286V59.1802C227.365 59.2374 227.187 59.2859 226.958 59.3255C226.733 59.3651 226.513 59.3849 226.297 59.3849C225.915 59.3849 225.567 59.3189 225.254 59.1868C224.942 59.0504 224.691 58.8215 224.502 58.5002C224.317 58.1789 224.224 57.7344 224.224 57.1666V52.8753H223.195V52.3405L224.231 51.9114L224.667 50.3401H225.327V52.017H227.446V52.8753H225.327V57.1336C225.327 57.5869 225.43 57.9258 225.637 58.1503C225.849 58.3748 226.128 58.487 226.476 58.487ZM231.665 51.8982C232.528 51.8982 233.168 52.0919 233.586 52.4792C234.004 52.8665 234.213 53.4849 234.213 54.3343V59.2528H233.414L233.203 58.1833H233.15C232.948 58.4474 232.737 58.6697 232.517 58.8501C232.297 59.0262 232.041 59.1604 231.751 59.2528C231.465 59.3409 231.113 59.3849 230.694 59.3849C230.254 59.3849 229.863 59.3079 229.519 59.1538C229.18 58.9998 228.912 58.7665 228.714 58.454C228.52 58.1415 228.423 57.7454 228.423 57.2656C228.423 56.5438 228.709 55.9893 229.282 55.6019C229.854 55.2146 230.725 55.0034 231.896 54.9681L233.144 54.9153V54.473C233.144 53.848 233.01 53.4101 232.741 53.1592C232.473 52.9083 232.094 52.7829 231.606 52.7829C231.227 52.7829 230.866 52.8379 230.523 52.9479C230.179 53.058 229.854 53.1878 229.546 53.3374L229.209 52.5056C229.535 52.3383 229.909 52.1953 230.331 52.0765C230.754 51.9576 231.198 51.8982 231.665 51.8982ZM233.131 55.6878L232.028 55.734C231.126 55.7692 230.49 55.9166 230.12 56.1763C229.75 56.436 229.565 56.8035 229.565 57.2788C229.565 57.6926 229.691 57.9985 229.942 58.1965C230.193 58.3946 230.525 58.4936 230.939 58.4936C231.581 58.4936 232.107 58.3154 232.517 57.9589C232.926 57.6023 233.131 57.0676 233.131 56.3546V55.6878Z" fill="#38485C"/>
</svg>
