<svg width="288" height="94" viewBox="0 0 288 94" fill="none" xmlns="http://www.w3.org/2000/svg">
<rect x="13.8612" y="14.1939" width="54.0836" height="54.0836" rx="6.76046" fill="#F3F6F9"/>
<path d="M40.903 29.9683C34.6834 29.9683 29.6356 35.0161 29.6356 41.2357C29.6356 47.4554 34.6834 52.5032 40.903 52.5032C47.1227 52.5032 52.1705 47.4554 52.1705 41.2357C52.1705 35.0161 47.1227 29.9683 40.903 29.9683ZM40.903 46.8695C40.2833 46.8695 39.7763 46.3624 39.7763 45.7427V41.2357C39.7763 40.616 40.2833 40.109 40.903 40.109C41.5227 40.109 42.0298 40.616 42.0298 41.2357V45.7427C42.0298 46.3624 41.5227 46.8695 40.903 46.8695ZM42.0298 37.8555H39.7763V35.602H42.0298V37.8555Z" fill="#38485C"/>
<path d="M86.4592 29.3224C86.1274 29.3224 85.8705 29.2314 85.6885 29.0494C85.5173 28.8567 85.4316 28.5945 85.4316 28.2627V19.5924H82.3007C82.0224 19.5924 81.803 19.5174 81.6424 19.3676C81.4925 19.207 81.4176 18.9929 81.4176 18.7253C81.4176 18.447 81.4925 18.2383 81.6424 18.0992C81.803 17.9493 82.0224 17.8744 82.3007 17.8744H90.6178C90.8961 17.8744 91.1101 17.9493 91.26 18.0992C91.4206 18.2383 91.5008 18.447 91.5008 18.7253C91.5008 18.9929 91.4206 19.207 91.26 19.3676C91.1101 19.5174 90.8961 19.5924 90.6178 19.5924H87.4868V28.2627C87.4868 28.5945 87.4012 28.8567 87.2299 29.0494C87.0587 29.2314 86.8018 29.3224 86.4592 29.3224ZM94.3553 29.3063C94.0342 29.3063 93.788 29.21 93.6167 29.0173C93.4455 28.8246 93.3598 28.557 93.3598 28.2145V22.3219C93.3598 21.9687 93.4455 21.7011 93.6167 21.5191C93.788 21.3264 94.0342 21.2301 94.3553 21.2301C94.6764 21.2301 94.9226 21.3264 95.0939 21.5191C95.2759 21.7011 95.3668 21.9687 95.3668 22.3219V28.2145C95.3668 28.557 95.2812 28.8246 95.1099 29.0173C94.9387 29.21 94.6871 29.3063 94.3553 29.3063ZM95.1099 20.2025C95.0029 20.3524 94.8745 20.438 94.7246 20.4594C94.5747 20.4808 94.4302 20.454 94.2911 20.3791C94.1519 20.3042 94.0502 20.1971 93.986 20.058C93.9325 19.9188 93.9486 19.7636 94.0342 19.5924L95.2544 17.2C95.3508 16.9966 95.4792 16.8682 95.6398 16.8147C95.8004 16.7504 95.9663 16.7397 96.1375 16.7826C96.3088 16.8254 96.4533 16.9057 96.571 17.0234C96.6995 17.1411 96.7744 17.2856 96.7958 17.4569C96.8279 17.6175 96.7851 17.7834 96.6674 17.9546L95.1099 20.2025ZM101.049 29.3545C100.353 29.3545 99.7697 29.2367 99.2987 29.0012C98.8384 28.7657 98.4959 28.4232 98.2711 27.9736C98.0463 27.5134 97.9339 26.9461 97.9339 26.2717V22.8518H97.099C96.8421 22.8518 96.6441 22.7875 96.5049 22.6591C96.3658 22.5199 96.2962 22.3326 96.2962 22.0971C96.2962 21.8509 96.3658 21.6636 96.5049 21.5352C96.6441 21.4067 96.8421 21.3425 97.099 21.3425H97.9339V19.8814C97.9339 19.5496 98.0196 19.298 98.1908 19.1267C98.3728 18.9555 98.6243 18.8698 98.9455 18.8698C99.2666 18.8698 99.5128 18.9555 99.684 19.1267C99.8553 19.298 99.9409 19.5496 99.9409 19.8814V21.3425H101.643C101.9 21.3425 102.098 21.4067 102.237 21.5352C102.376 21.6636 102.446 21.8509 102.446 22.0971C102.446 22.3326 102.376 22.5199 102.237 22.6591C102.098 22.7875 101.9 22.8518 101.643 22.8518H99.9409V26.1593C99.9409 26.6731 100.053 27.0584 100.278 27.3153C100.503 27.5722 100.867 27.7007 101.37 27.7007C101.552 27.7007 101.712 27.6846 101.852 27.6525C101.991 27.6204 102.114 27.599 102.221 27.5883C102.349 27.5776 102.456 27.6204 102.542 27.7167C102.628 27.8024 102.67 27.9844 102.67 28.2627C102.67 28.4767 102.633 28.6694 102.558 28.8407C102.494 29.0012 102.371 29.1136 102.189 29.1779C102.05 29.2207 101.868 29.2581 101.643 29.2902C101.418 29.3331 101.22 29.3545 101.049 29.3545ZM106.456 29.3545C105.803 29.3545 105.263 29.2367 104.835 29.0012C104.406 28.755 104.085 28.3911 103.871 27.9094C103.668 27.4277 103.566 26.8283 103.566 26.1111V22.2256C103.566 21.883 103.652 21.6315 103.823 21.4709C103.994 21.2997 104.241 21.214 104.562 21.214C104.883 21.214 105.129 21.2997 105.3 21.4709C105.482 21.6315 105.573 21.883 105.573 22.2256V26.1433C105.573 26.6999 105.686 27.112 105.91 27.3796C106.135 27.6472 106.494 27.781 106.986 27.781C107.521 27.781 107.96 27.599 108.303 27.2351C108.645 26.8604 108.817 26.368 108.817 25.7579V22.2256C108.817 21.883 108.902 21.6315 109.073 21.4709C109.245 21.2997 109.491 21.214 109.812 21.214C110.133 21.214 110.379 21.2997 110.551 21.4709C110.733 21.6315 110.824 21.883 110.824 22.2256V28.2948C110.824 28.9798 110.497 29.3224 109.844 29.3224C109.534 29.3224 109.293 29.2367 109.122 29.0655C108.95 28.8835 108.865 28.6266 108.865 28.2948V27.0745L109.09 27.5562C108.865 28.1342 108.522 28.5784 108.062 28.8888C107.612 29.1993 107.077 29.3545 106.456 29.3545ZM115.594 29.3545C114.705 29.3545 114.036 29.1029 113.587 28.5998C113.137 28.086 112.913 27.3368 112.913 26.352V18.7575C112.913 18.4256 112.998 18.1741 113.169 18.0028C113.341 17.8316 113.587 17.7459 113.908 17.7459C114.229 17.7459 114.475 17.8316 114.647 18.0028C114.829 18.1741 114.92 18.4256 114.92 18.7575V26.2556C114.92 26.748 115.021 27.112 115.225 27.3475C115.439 27.5829 115.738 27.7007 116.124 27.7007C116.209 27.7007 116.29 27.7007 116.365 27.7007C116.439 27.69 116.514 27.6793 116.589 27.6686C116.739 27.6472 116.841 27.69 116.894 27.797C116.948 27.8934 116.975 28.0967 116.975 28.4072C116.975 28.6748 116.921 28.8835 116.814 29.0333C116.707 29.1832 116.53 29.2742 116.284 29.3063C116.177 29.317 116.065 29.3277 115.947 29.3384C115.829 29.3491 115.712 29.3545 115.594 29.3545ZM121.542 29.3545C120.728 29.3545 120.022 29.1886 119.422 28.8567C118.823 28.5249 118.357 28.0539 118.026 27.4438C117.694 26.823 117.528 26.0951 117.528 25.2602C117.528 24.6286 117.619 24.0667 117.801 23.5743C117.993 23.0712 118.266 22.643 118.62 22.2898C118.973 21.9259 119.396 21.6529 119.888 21.4709C120.381 21.2783 120.932 21.1819 121.542 21.1819C122.355 21.1819 123.062 21.3478 123.661 21.6797C124.261 22.0115 124.726 22.4825 125.058 23.0926C125.39 23.7027 125.556 24.4253 125.556 25.2602C125.556 25.8917 125.46 26.459 125.267 26.9621C125.085 27.4652 124.817 27.8987 124.464 28.2627C124.111 28.6159 123.688 28.8888 123.196 29.0815C122.703 29.2635 122.152 29.3545 121.542 29.3545ZM121.542 27.8291C121.938 27.8291 122.286 27.7328 122.586 27.5401C122.885 27.3475 123.115 27.0638 123.276 26.6892C123.447 26.3038 123.533 25.8275 123.533 25.2602C123.533 24.4038 123.351 23.767 122.987 23.3495C122.623 22.9213 122.141 22.7073 121.542 22.7073C121.146 22.7073 120.798 22.8036 120.498 22.9963C120.199 23.1782 119.963 23.4619 119.792 23.8472C119.631 24.2219 119.551 24.6929 119.551 25.2602C119.551 26.1058 119.733 26.748 120.097 27.1869C120.461 27.6151 120.942 27.8291 121.542 27.8291ZM134.59 29.3545C133.905 29.3545 133.3 29.1886 132.776 28.8567C132.262 28.5249 131.86 28.0539 131.571 27.4438C131.282 26.823 131.138 26.0951 131.138 25.2602C131.138 24.4145 131.282 23.692 131.571 23.0926C131.86 22.4825 132.262 22.0115 132.776 21.6797C133.3 21.3478 133.905 21.1819 134.59 21.1819C135.243 21.1819 135.81 21.3425 136.292 21.6636C136.784 21.9847 137.116 22.4075 137.287 22.932H137.111V18.7575C137.111 18.4256 137.196 18.1741 137.368 18.0028C137.539 17.8316 137.785 17.7459 138.106 17.7459C138.427 17.7459 138.674 17.8316 138.845 18.0028C139.027 18.1741 139.118 18.4256 139.118 18.7575V28.2948C139.118 28.6266 139.032 28.8835 138.861 29.0655C138.69 29.2367 138.443 29.3224 138.122 29.3224C137.801 29.3224 137.555 29.2367 137.384 29.0655C137.212 28.8835 137.127 28.6266 137.127 28.2948V27.0424L137.303 27.5241C137.143 28.0807 136.816 28.5249 136.324 28.8567C135.832 29.1886 135.254 29.3545 134.59 29.3545ZM135.152 27.8291C135.548 27.8291 135.896 27.7328 136.196 27.5401C136.495 27.3475 136.725 27.0638 136.886 26.6892C137.057 26.3038 137.143 25.8275 137.143 25.2602C137.143 24.4038 136.961 23.767 136.597 23.3495C136.233 22.9213 135.751 22.7073 135.152 22.7073C134.756 22.7073 134.408 22.8036 134.108 22.9963C133.809 23.1782 133.573 23.4619 133.402 23.8472C133.241 24.2219 133.161 24.6929 133.161 25.2602C133.161 26.1058 133.343 26.748 133.707 27.1869C134.071 27.6151 134.553 27.8291 135.152 27.8291ZM145.068 29.3545C144.18 29.3545 143.415 29.1886 142.772 28.8567C142.13 28.5249 141.632 28.0539 141.279 27.4438C140.937 26.8337 140.765 26.1111 140.765 25.2762C140.765 24.4627 140.931 23.7509 141.263 23.1408C141.606 22.5306 142.071 22.0543 142.66 21.7118C143.259 21.3585 143.939 21.1819 144.699 21.1819C145.256 21.1819 145.753 21.2729 146.192 21.4549C146.642 21.6368 147.022 21.8991 147.332 22.2416C147.653 22.5842 147.894 23.0016 148.055 23.494C148.226 23.9757 148.312 24.5216 148.312 25.1317C148.312 25.3244 148.242 25.4742 148.103 25.5813C147.974 25.6776 147.787 25.7258 147.541 25.7258H142.387V24.5698H146.899L146.642 24.8106C146.642 24.3182 146.567 23.9061 146.417 23.5743C146.278 23.2425 146.069 22.9909 145.791 22.8196C145.523 22.6377 145.186 22.5467 144.779 22.5467C144.33 22.5467 143.944 22.6537 143.623 22.8678C143.313 23.0712 143.072 23.3655 142.901 23.7509C142.74 24.1255 142.66 24.5751 142.66 25.0996V25.212C142.66 26.0897 142.863 26.748 143.27 27.1869C143.687 27.6151 144.298 27.8291 145.1 27.8291C145.379 27.8291 145.689 27.797 146.032 27.7328C146.385 27.6579 146.717 27.5348 147.027 27.3635C147.252 27.2351 147.45 27.1815 147.621 27.203C147.793 27.2137 147.926 27.2725 148.023 27.3796C148.13 27.4866 148.194 27.6204 148.215 27.781C148.237 27.9308 148.205 28.086 148.119 28.2466C148.044 28.4072 147.91 28.5463 147.718 28.6641C147.343 28.8995 146.909 29.0762 146.417 29.1939C145.935 29.3009 145.486 29.3545 145.068 29.3545ZM156.941 29.3545C156.053 29.3545 155.384 29.1029 154.934 28.5998C154.485 28.086 154.26 27.3368 154.26 26.352V18.7575C154.26 18.4256 154.346 18.1741 154.517 18.0028C154.688 17.8316 154.934 17.7459 155.256 17.7459C155.577 17.7459 155.823 17.8316 155.994 18.0028C156.176 18.1741 156.267 18.4256 156.267 18.7575V26.2556C156.267 26.748 156.369 27.112 156.572 27.3475C156.786 27.5829 157.086 27.7007 157.471 27.7007C157.557 27.7007 157.637 27.7007 157.712 27.7007C157.787 27.69 157.862 27.6793 157.937 27.6686C158.087 27.6472 158.188 27.69 158.242 27.797C158.295 27.8934 158.322 28.0967 158.322 28.4072C158.322 28.6748 158.269 28.8835 158.162 29.0333C158.055 29.1832 157.878 29.2742 157.632 29.3063C157.525 29.317 157.412 29.3277 157.295 29.3384C157.177 29.3491 157.059 29.3545 156.941 29.3545ZM161.972 29.3545C161.405 29.3545 160.897 29.2474 160.447 29.0333C160.008 28.8086 159.66 28.5088 159.403 28.1342C159.157 27.7596 159.034 27.3368 159.034 26.8658C159.034 26.2878 159.184 25.8328 159.484 25.501C159.783 25.1585 160.27 24.9123 160.945 24.7624C161.619 24.6126 162.524 24.5376 163.658 24.5376H164.461V25.6937H163.674C163.011 25.6937 162.481 25.7258 162.085 25.79C161.689 25.8542 161.405 25.9666 161.234 26.1272C161.073 26.2771 160.993 26.4911 160.993 26.7694C160.993 27.1227 161.116 27.4117 161.362 27.6365C161.608 27.8613 161.951 27.9736 162.39 27.9736C162.743 27.9736 163.053 27.8934 163.321 27.7328C163.599 27.5615 163.819 27.3314 163.979 27.0424C164.14 26.7534 164.22 26.4216 164.22 26.0469V24.2005C164.22 23.6653 164.102 23.2799 163.867 23.0444C163.631 22.8089 163.235 22.6912 162.679 22.6912C162.368 22.6912 162.031 22.7287 161.667 22.8036C161.314 22.8785 160.939 23.007 160.543 23.1889C160.34 23.2853 160.158 23.312 159.997 23.2692C159.848 23.2264 159.73 23.1408 159.644 23.0123C159.559 22.8732 159.516 22.7233 159.516 22.5627C159.516 22.4022 159.559 22.247 159.644 22.0971C159.73 21.9366 159.874 21.8188 160.078 21.7439C160.57 21.5405 161.041 21.396 161.491 21.3104C161.951 21.2247 162.368 21.1819 162.743 21.1819C163.514 21.1819 164.145 21.2997 164.638 21.5352C165.141 21.7706 165.515 22.1292 165.762 22.6109C166.008 23.0819 166.131 23.692 166.131 24.4413V28.2948C166.131 28.6266 166.051 28.8835 165.89 29.0655C165.729 29.2367 165.499 29.3224 165.2 29.3224C164.9 29.3224 164.664 29.2367 164.493 29.0655C164.333 28.8835 164.252 28.6266 164.252 28.2948V27.5241H164.381C164.306 27.8987 164.156 28.2252 163.931 28.5035C163.717 28.7711 163.444 28.9798 163.112 29.1297C162.781 29.2795 162.401 29.3545 161.972 29.3545ZM176.124 29.3545C175.428 29.3545 174.844 29.2367 174.373 29.0012C173.913 28.7657 173.571 28.4232 173.346 27.9736C173.121 27.5134 173.009 26.9461 173.009 26.2717V22.8518H172.174C171.917 22.8518 171.719 22.7875 171.58 22.6591C171.441 22.5199 171.371 22.3326 171.371 22.0971C171.371 21.8509 171.441 21.6636 171.58 21.5352C171.719 21.4067 171.917 21.3425 172.174 21.3425H173.009V19.8814C173.009 19.5496 173.094 19.298 173.266 19.1267C173.448 18.9555 173.699 18.8698 174.02 18.8698C174.341 18.8698 174.588 18.9555 174.759 19.1267C174.93 19.298 175.016 19.5496 175.016 19.8814V21.3425H176.718C176.975 21.3425 177.173 21.4067 177.312 21.5352C177.451 21.6636 177.52 21.8509 177.52 22.0971C177.52 22.3326 177.451 22.5199 177.312 22.6591C177.173 22.7875 176.975 22.8518 176.718 22.8518H175.016V26.1593C175.016 26.6731 175.128 27.0584 175.353 27.3153C175.578 27.5722 175.942 27.7007 176.445 27.7007C176.627 27.7007 176.787 27.6846 176.926 27.6525C177.066 27.6204 177.189 27.599 177.296 27.5883C177.424 27.5776 177.531 27.6204 177.617 27.7167C177.702 27.8024 177.745 27.9844 177.745 28.2627C177.745 28.4767 177.708 28.6694 177.633 28.8407C177.569 29.0012 177.445 29.1136 177.264 29.1779C177.124 29.2207 176.942 29.2581 176.718 29.2902C176.493 29.3331 176.295 29.3545 176.124 29.3545ZM181.274 29.3545C180.707 29.3545 180.198 29.2474 179.749 29.0333C179.31 28.8086 178.962 28.5088 178.705 28.1342C178.459 27.7596 178.336 27.3368 178.336 26.8658C178.336 26.2878 178.486 25.8328 178.785 25.501C179.085 25.1585 179.572 24.9123 180.247 24.7624C180.921 24.6126 181.825 24.5376 182.96 24.5376H183.763V25.6937H182.976C182.312 25.6937 181.783 25.7258 181.387 25.79C180.991 25.8542 180.707 25.9666 180.536 26.1272C180.375 26.2771 180.295 26.4911 180.295 26.7694C180.295 27.1227 180.418 27.4117 180.664 27.6365C180.91 27.8613 181.253 27.9736 181.692 27.9736C182.045 27.9736 182.355 27.8934 182.623 27.7328C182.901 27.5615 183.121 27.3314 183.281 27.0424C183.442 26.7534 183.522 26.4216 183.522 26.0469V24.2005C183.522 23.6653 183.404 23.2799 183.169 23.0444C182.933 22.8089 182.537 22.6912 181.981 22.6912C181.67 22.6912 181.333 22.7287 180.969 22.8036C180.616 22.8785 180.241 23.007 179.845 23.1889C179.642 23.2853 179.46 23.312 179.299 23.2692C179.149 23.2264 179.032 23.1408 178.946 23.0123C178.86 22.8732 178.818 22.7233 178.818 22.5627C178.818 22.4022 178.86 22.247 178.946 22.0971C179.032 21.9366 179.176 21.8188 179.38 21.7439C179.872 21.5405 180.343 21.396 180.792 21.3104C181.253 21.2247 181.67 21.1819 182.045 21.1819C182.816 21.1819 183.447 21.2997 183.939 21.5352C184.443 21.7706 184.817 22.1292 185.063 22.6109C185.31 23.0819 185.433 23.692 185.433 24.4413V28.2948C185.433 28.6266 185.352 28.8835 185.192 29.0655C185.031 29.2367 184.801 29.3224 184.501 29.3224C184.202 29.3224 183.966 29.2367 183.795 29.0655C183.634 28.8835 183.554 28.6266 183.554 28.2948V27.5241H183.683C183.608 27.8987 183.458 28.2252 183.233 28.5035C183.019 28.7711 182.746 28.9798 182.414 29.1297C182.082 29.2795 181.702 29.3545 181.274 29.3545ZM188.497 29.3224C188.166 29.3224 187.909 29.2367 187.727 29.0655C187.555 28.8835 187.47 28.6266 187.47 28.2948V22.2256C187.47 21.8937 187.555 21.6422 187.727 21.4709C187.898 21.2997 188.139 21.214 188.449 21.214C188.76 21.214 189 21.2997 189.172 21.4709C189.343 21.6422 189.429 21.8937 189.429 22.2256V23.2371H189.268C189.418 22.5949 189.712 22.1078 190.151 21.776C190.59 21.4442 191.173 21.2461 191.901 21.1819C192.126 21.1605 192.303 21.2194 192.431 21.3585C192.57 21.487 192.651 21.6904 192.672 21.9687C192.693 22.2363 192.629 22.4557 192.479 22.627C192.34 22.7875 192.126 22.8839 191.837 22.916L191.484 22.9481C190.831 23.0123 190.338 23.2157 190.007 23.5582C189.675 23.89 189.509 24.361 189.509 24.9712V28.2948C189.509 28.6266 189.423 28.8835 189.252 29.0655C189.081 29.2367 188.829 29.3224 188.497 29.3224ZM192.794 32.2285C192.559 32.2499 192.366 32.2125 192.216 32.1161C192.066 32.0305 191.964 31.9181 191.911 31.7789C191.847 31.6398 191.825 31.4953 191.847 31.3454C191.868 31.1956 191.932 31.0618 192.039 30.944C192.136 30.837 192.27 30.7781 192.441 30.7674C192.922 30.7246 193.27 30.5854 193.484 30.3499C193.709 30.1252 193.822 29.7773 193.822 29.3063V22.2256C193.822 21.8937 193.907 21.6422 194.079 21.4709C194.26 21.2997 194.512 21.214 194.833 21.214C195.154 21.214 195.4 21.2997 195.572 21.4709C195.743 21.6422 195.829 21.8937 195.829 22.2256V29.1297C195.829 29.8147 195.716 30.3767 195.491 30.8156C195.277 31.2544 194.946 31.5863 194.496 31.8111C194.057 32.0358 193.49 32.175 192.794 32.2285ZM194.817 19.7369C194.442 19.7369 194.148 19.6459 193.934 19.4639C193.731 19.2712 193.629 19.009 193.629 18.6772C193.629 18.3346 193.731 18.0724 193.934 17.8904C194.148 17.7085 194.442 17.6175 194.817 17.6175C195.202 17.6175 195.497 17.7085 195.7 17.8904C195.904 18.0724 196.005 18.3346 196.005 18.6772C196.005 19.009 195.904 19.2712 195.7 19.4639C195.497 19.6459 195.202 19.7369 194.817 19.7369ZM201.782 29.3545C200.894 29.3545 200.128 29.1886 199.486 28.8567C198.844 28.5249 198.346 28.0539 197.993 27.4438C197.65 26.8337 197.479 26.1111 197.479 25.2762C197.479 24.4627 197.645 23.7509 197.977 23.1408C198.319 22.5306 198.785 22.0543 199.374 21.7118C199.973 21.3585 200.653 21.1819 201.413 21.1819C201.969 21.1819 202.467 21.2729 202.906 21.4549C203.356 21.6368 203.736 21.8991 204.046 22.2416C204.367 22.5842 204.608 23.0016 204.768 23.494C204.94 23.9757 205.025 24.5216 205.025 25.1317C205.025 25.3244 204.956 25.4742 204.817 25.5813C204.688 25.6776 204.501 25.7258 204.255 25.7258H199.101V24.5698H203.612L203.356 24.8106C203.356 24.3182 203.281 23.9061 203.131 23.5743C202.992 23.2425 202.783 22.9909 202.505 22.8196C202.237 22.6377 201.9 22.5467 201.493 22.5467C201.043 22.5467 200.658 22.6537 200.337 22.8678C200.027 23.0712 199.786 23.3655 199.614 23.7509C199.454 24.1255 199.374 24.5751 199.374 25.0996V25.212C199.374 26.0897 199.577 26.748 199.984 27.1869C200.401 27.6151 201.011 27.8291 201.814 27.8291C202.092 27.8291 202.403 27.797 202.745 27.7328C203.099 27.6579 203.43 27.5348 203.741 27.3635C203.966 27.2351 204.164 27.1815 204.335 27.203C204.506 27.2137 204.64 27.2725 204.736 27.3796C204.843 27.4866 204.908 27.6204 204.929 27.781C204.95 27.9308 204.918 28.086 204.833 28.2466C204.758 28.4072 204.624 28.5463 204.431 28.6641C204.057 28.8995 203.623 29.0762 203.131 29.1939C202.649 29.3009 202.2 29.3545 201.782 29.3545ZM210.18 29.3545C209.484 29.3545 208.901 29.2367 208.43 29.0012C207.97 28.7657 207.627 28.4232 207.402 27.9736C207.178 27.5134 207.065 26.9461 207.065 26.2717V22.8518H206.23C205.973 22.8518 205.775 22.7875 205.636 22.6591C205.497 22.5199 205.427 22.3326 205.427 22.0971C205.427 21.8509 205.497 21.6636 205.636 21.5352C205.775 21.4067 205.973 21.3425 206.23 21.3425H207.065V19.8814C207.065 19.5496 207.151 19.298 207.322 19.1267C207.504 18.9555 207.756 18.8698 208.077 18.8698C208.398 18.8698 208.644 18.9555 208.815 19.1267C208.987 19.298 209.072 19.5496 209.072 19.8814V21.3425H210.774C211.031 21.3425 211.229 21.4067 211.368 21.5352C211.507 21.6636 211.577 21.8509 211.577 22.0971C211.577 22.3326 211.507 22.5199 211.368 22.6591C211.229 22.7875 211.031 22.8518 210.774 22.8518H209.072V26.1593C209.072 26.6731 209.185 27.0584 209.409 27.3153C209.634 27.5722 209.998 27.7007 210.501 27.7007C210.683 27.7007 210.844 27.6846 210.983 27.6525C211.122 27.6204 211.245 27.599 211.352 27.5883C211.481 27.5776 211.588 27.6204 211.673 27.7167C211.759 27.8024 211.802 27.9844 211.802 28.2627C211.802 28.4767 211.764 28.6694 211.689 28.8407C211.625 29.0012 211.502 29.1136 211.32 29.1779C211.181 29.2207 210.999 29.2581 210.774 29.2902C210.549 29.3331 210.351 29.3545 210.18 29.3545ZM215.331 29.3545C214.763 29.3545 214.255 29.2474 213.805 29.0333C213.366 28.8086 213.019 28.5088 212.762 28.1342C212.515 27.7596 212.392 27.3368 212.392 26.8658C212.392 26.2878 212.542 25.8328 212.842 25.501C213.142 25.1585 213.629 24.9123 214.303 24.7624C214.977 24.6126 215.882 24.5376 217.017 24.5376H217.819V25.6937H217.033C216.369 25.6937 215.839 25.7258 215.443 25.79C215.047 25.8542 214.763 25.9666 214.592 26.1272C214.431 26.2771 214.351 26.4911 214.351 26.7694C214.351 27.1227 214.474 27.4117 214.72 27.6365C214.967 27.8613 215.309 27.9736 215.748 27.9736C216.101 27.9736 216.412 27.8934 216.679 27.7328C216.958 27.5615 217.177 27.3314 217.338 27.0424C217.498 26.7534 217.578 26.4216 217.578 26.0469V24.2005C217.578 23.6653 217.461 23.2799 217.225 23.0444C216.99 22.8089 216.594 22.6912 216.037 22.6912C215.727 22.6912 215.389 22.7287 215.026 22.8036C214.672 22.8785 214.298 23.007 213.902 23.1889C213.698 23.2853 213.516 23.312 213.356 23.2692C213.206 23.2264 213.088 23.1408 213.002 23.0123C212.917 22.8732 212.874 22.7233 212.874 22.5627C212.874 22.4022 212.917 22.247 213.002 22.0971C213.088 21.9366 213.233 21.8188 213.436 21.7439C213.928 21.5405 214.399 21.396 214.849 21.3104C215.309 21.2247 215.727 21.1819 216.101 21.1819C216.872 21.1819 217.504 21.2997 217.996 21.5352C218.499 21.7706 218.874 22.1292 219.12 22.6109C219.366 23.0819 219.489 23.692 219.489 24.4413V28.2948C219.489 28.6266 219.409 28.8835 219.248 29.0655C219.088 29.2367 218.858 29.3224 218.558 29.3224C218.258 29.3224 218.023 29.2367 217.851 29.0655C217.691 28.8835 217.611 28.6266 217.611 28.2948V27.5241H217.739C217.664 27.8987 217.514 28.2252 217.289 28.5035C217.075 28.7711 216.802 28.9798 216.471 29.1297C216.139 29.2795 215.759 29.3545 215.331 29.3545ZM86.1381 50.3545C85.3139 50.3545 84.5967 50.1886 83.9866 49.8567C83.3765 49.5142 82.9055 49.0325 82.5737 48.4117C82.2418 47.7908 82.0759 47.063 82.0759 46.2281C82.0759 45.5965 82.1669 45.0346 82.3489 44.5422C82.5415 44.0391 82.8145 43.6163 83.1677 43.2737C83.521 42.9205 83.9491 42.6529 84.4522 42.4709C84.9553 42.2783 85.5173 42.1819 86.1381 42.1819C86.4913 42.1819 86.8713 42.2301 87.2781 42.3264C87.6955 42.4228 88.0862 42.5833 88.4502 42.8081C88.6214 42.9152 88.7338 43.0436 88.7874 43.1935C88.8409 43.3433 88.8516 43.4985 88.8195 43.6591C88.7874 43.8089 88.7178 43.9427 88.6107 44.0605C88.5144 44.1675 88.3913 44.2371 88.2414 44.2692C88.0916 44.2906 87.9257 44.2532 87.7437 44.1568C87.5082 44.0177 87.2674 43.916 87.0212 43.8518C86.775 43.7768 86.5395 43.7394 86.3147 43.7394C85.9615 43.7394 85.6511 43.7982 85.3835 43.916C85.1159 44.023 84.8857 44.1836 84.6931 44.3977C84.5111 44.601 84.3719 44.8579 84.2756 45.1684C84.1793 45.4788 84.1311 45.8374 84.1311 46.2441C84.1311 47.0362 84.3184 47.6624 84.6931 48.1227C85.0784 48.5722 85.619 48.797 86.3147 48.797C86.5395 48.797 86.7696 48.7649 87.0051 48.7007C87.2513 48.6365 87.4975 48.5348 87.7437 48.3956C87.9257 48.2993 88.0862 48.2672 88.2254 48.2993C88.3753 48.3314 88.4983 48.4063 88.5947 48.5241C88.691 48.6311 88.7499 48.7649 88.7713 48.9255C88.7927 49.0753 88.7713 49.2252 88.7071 49.375C88.6536 49.5249 88.5465 49.648 88.386 49.7443C88.0327 49.9584 87.6581 50.1136 87.262 50.21C86.866 50.3063 86.4913 50.3545 86.1381 50.3545ZM93.5065 50.3545C92.693 50.3545 91.9865 50.1886 91.3871 49.8567C90.7876 49.5249 90.322 49.0539 89.9902 48.4438C89.6584 47.823 89.4924 47.0951 89.4924 46.2602C89.4924 45.6286 89.5834 45.0667 89.7654 44.5743C89.9581 44.0712 90.231 43.643 90.5843 43.2898C90.9375 42.9259 91.3603 42.6529 91.8527 42.4709C92.3451 42.2783 92.8963 42.1819 93.5065 42.1819C94.32 42.1819 95.0264 42.3478 95.6259 42.6797C96.2253 43.0115 96.6909 43.4825 97.0227 44.0926C97.3546 44.7027 97.5205 45.4253 97.5205 46.2602C97.5205 46.8917 97.4242 47.459 97.2315 47.9621C97.0495 48.4652 96.7819 48.8987 96.4287 49.2627C96.0754 49.6159 95.6526 49.8888 95.1602 50.0815C94.6679 50.2635 94.1166 50.3545 93.5065 50.3545ZM93.5065 48.8291C93.9025 48.8291 94.2504 48.7328 94.5501 48.5401C94.8498 48.3475 95.08 48.0638 95.2405 47.6892C95.4118 47.3038 95.4974 46.8275 95.4974 46.2602C95.4974 45.4038 95.3155 44.767 94.9515 44.3495C94.5876 43.9213 94.1059 43.7073 93.5065 43.7073C93.1104 43.7073 92.7625 43.8036 92.4628 43.9963C92.1631 44.1782 91.9276 44.4619 91.7564 44.8472C91.5958 45.2219 91.5155 45.6929 91.5155 46.2602C91.5155 47.1058 91.6975 47.748 92.0614 48.1869C92.4254 48.6151 92.907 48.8291 93.5065 48.8291ZM100.172 50.3224C99.8514 50.3224 99.6052 50.2367 99.4339 50.0655C99.2627 49.8835 99.177 49.6266 99.177 49.2948V43.2256C99.177 42.8937 99.2627 42.6422 99.4339 42.4709C99.6052 42.2997 99.846 42.214 100.156 42.214C100.467 42.214 100.708 42.2997 100.879 42.4709C101.05 42.6422 101.136 42.8937 101.136 43.2256V44.3174L100.959 43.916C101.195 43.3487 101.559 42.9205 102.051 42.6315C102.554 42.3318 103.121 42.1819 103.753 42.1819C104.385 42.1819 104.904 42.2997 105.31 42.5352C105.717 42.7706 106.022 43.1292 106.226 43.6109C106.429 44.0819 106.531 44.6813 106.531 45.4092V49.2948C106.531 49.6266 106.445 49.8835 106.274 50.0655C106.103 50.2367 105.856 50.3224 105.535 50.3224C105.214 50.3224 104.963 50.2367 104.781 50.0655C104.609 49.8835 104.524 49.6266 104.524 49.2948V45.5055C104.524 44.8954 104.406 44.4512 104.17 44.1729C103.946 43.8946 103.592 43.7554 103.111 43.7554C102.522 43.7554 102.051 43.9427 101.698 44.3174C101.355 44.6813 101.184 45.1684 101.184 45.7785V49.2948C101.184 49.9798 100.847 50.3224 100.172 50.3224ZM113.956 50.3224C113.635 50.3224 113.388 50.2367 113.217 50.0655C113.046 49.8835 112.96 49.6266 112.96 49.2948V43.2256C112.96 42.8937 113.046 42.6422 113.217 42.4709C113.388 42.2997 113.629 42.214 113.94 42.214C114.25 42.214 114.491 42.2997 114.662 42.4709C114.834 42.6422 114.919 42.8937 114.919 43.2256V44.3977L114.743 43.916C114.957 43.3808 115.288 42.958 115.738 42.6475C116.188 42.3371 116.723 42.1819 117.344 42.1819C117.975 42.1819 118.494 42.3318 118.901 42.6315C119.308 42.9312 119.591 43.3915 119.752 44.0123H119.527C119.741 43.445 120.095 43.0008 120.587 42.6797C121.079 42.3478 121.647 42.1819 122.289 42.1819C122.888 42.1819 123.381 42.2997 123.766 42.5352C124.162 42.7706 124.456 43.1292 124.649 43.6109C124.842 44.0819 124.938 44.6813 124.938 45.4092V49.2948C124.938 49.6266 124.847 49.8835 124.665 50.0655C124.494 50.2367 124.248 50.3224 123.927 50.3224C123.605 50.3224 123.359 50.2367 123.188 50.0655C123.017 49.8835 122.931 49.6266 122.931 49.2948V45.4895C122.931 44.89 122.829 44.4512 122.626 44.1729C122.433 43.8946 122.102 43.7554 121.631 43.7554C121.106 43.7554 120.694 43.9427 120.394 44.3174C120.095 44.6813 119.945 45.1898 119.945 45.8427V49.2948C119.945 49.6266 119.859 49.8835 119.688 50.0655C119.517 50.2367 119.27 50.3224 118.949 50.3224C118.628 50.3224 118.377 50.2367 118.195 50.0655C118.023 49.8835 117.938 49.6266 117.938 49.2948V45.4895C117.938 44.89 117.836 44.4512 117.633 44.1729C117.44 43.8946 117.113 43.7554 116.653 43.7554C116.129 43.7554 115.717 43.9427 115.417 44.3174C115.117 44.6813 114.967 45.1898 114.967 45.8427V49.2948C114.967 49.9798 114.63 50.3224 113.956 50.3224ZM129.594 50.3545C129.026 50.3545 128.518 50.2474 128.068 50.0333C127.629 49.8086 127.282 49.5088 127.025 49.1342C126.778 48.7596 126.655 48.3368 126.655 47.8658C126.655 47.2878 126.805 46.8328 127.105 46.501C127.405 46.1585 127.892 45.9123 128.566 45.7624C129.24 45.6126 130.145 45.5376 131.28 45.5376H132.082V46.6937H131.296C130.632 46.6937 130.102 46.7258 129.706 46.79C129.31 46.8542 129.026 46.9666 128.855 47.1272C128.695 47.2771 128.614 47.4911 128.614 47.7694C128.614 48.1227 128.737 48.4117 128.984 48.6365C129.23 48.8613 129.572 48.9736 130.011 48.9736C130.364 48.9736 130.675 48.8934 130.942 48.7328C131.221 48.5615 131.44 48.3314 131.601 48.0424C131.761 47.7534 131.841 47.4216 131.841 47.0469V45.2005C131.841 44.6653 131.724 44.2799 131.488 44.0444C131.253 43.8089 130.857 43.6912 130.3 43.6912C129.99 43.6912 129.653 43.7287 129.289 43.8036C128.935 43.8785 128.561 44.007 128.165 44.1889C127.961 44.2853 127.779 44.312 127.619 44.2692C127.469 44.2264 127.351 44.1408 127.266 44.0123C127.18 43.8732 127.137 43.7233 127.137 43.5627C127.137 43.4022 127.18 43.247 127.266 43.0971C127.351 42.9366 127.496 42.8188 127.699 42.7439C128.191 42.5405 128.662 42.396 129.112 42.3104C129.572 42.2247 129.99 42.1819 130.364 42.1819C131.135 42.1819 131.767 42.2997 132.259 42.5352C132.762 42.7706 133.137 43.1292 133.383 43.6109C133.629 44.0819 133.752 44.692 133.752 45.4413V49.2948C133.752 49.6266 133.672 49.8835 133.511 50.0655C133.351 50.2367 133.121 50.3224 132.821 50.3224C132.521 50.3224 132.286 50.2367 132.114 50.0655C131.954 49.8835 131.874 49.6266 131.874 49.2948V48.5241H132.002C131.927 48.8987 131.777 49.2252 131.552 49.5035C131.338 49.7711 131.065 49.9798 130.734 50.1297C130.402 50.2795 130.022 50.3545 129.594 50.3545ZM131.199 41.2025C131.092 41.3524 130.964 41.438 130.814 41.4594C130.664 41.4808 130.52 41.454 130.38 41.3791C130.241 41.3042 130.14 41.1971 130.075 41.058C130.022 40.9188 130.038 40.7636 130.123 40.5924L131.344 38.2C131.44 37.9966 131.569 37.8682 131.729 37.8147C131.89 37.7504 132.056 37.7397 132.227 37.7826C132.398 37.8254 132.543 37.9057 132.66 38.0234C132.789 38.1411 132.864 38.2856 132.885 38.4569C132.917 38.6175 132.874 38.7834 132.757 38.9546L131.199 41.2025ZM138.663 50.3545C138.203 50.3545 137.716 50.3063 137.202 50.21C136.688 50.1136 136.228 49.9477 135.821 49.7122C135.65 49.6052 135.527 49.4821 135.452 49.3429C135.388 49.1931 135.361 49.0486 135.372 48.9094C135.393 48.7596 135.447 48.6311 135.532 48.5241C135.629 48.417 135.746 48.3475 135.886 48.3153C136.035 48.2832 136.196 48.31 136.367 48.3956C136.795 48.599 137.197 48.7435 137.572 48.8291C137.946 48.9041 138.315 48.9415 138.679 48.9415C139.193 48.9415 139.573 48.8559 139.819 48.6846C140.076 48.5027 140.205 48.2672 140.205 47.9782C140.205 47.732 140.119 47.5447 139.948 47.4162C139.787 47.2771 139.541 47.1754 139.209 47.1111L137.604 46.8061C136.94 46.6776 136.432 46.4368 136.078 46.0836C135.736 45.7196 135.565 45.254 135.565 44.6867C135.565 44.1729 135.704 43.7287 135.982 43.354C136.271 42.9794 136.667 42.6904 137.17 42.487C137.673 42.2836 138.251 42.1819 138.904 42.1819C139.375 42.1819 139.814 42.2354 140.221 42.3425C140.638 42.4388 141.04 42.594 141.425 42.8081C141.586 42.8937 141.693 43.0061 141.746 43.1453C141.81 43.2844 141.826 43.4289 141.794 43.5788C141.762 43.718 141.698 43.8464 141.602 43.9641C141.505 44.0712 141.382 44.1408 141.232 44.1729C141.093 44.1943 140.933 44.1622 140.751 44.0765C140.419 43.9053 140.098 43.7822 139.787 43.7073C139.488 43.6323 139.199 43.5949 138.92 43.5949C138.396 43.5949 138.005 43.6858 137.748 43.8678C137.502 44.0498 137.379 44.2906 137.379 44.5903C137.379 44.8151 137.454 45.0024 137.604 45.1523C137.753 45.3022 137.984 45.4038 138.294 45.4574L139.9 45.7624C140.595 45.8909 141.12 46.1264 141.473 46.4689C141.837 46.8114 142.019 47.2717 142.019 47.8497C142.019 48.6311 141.714 49.2466 141.104 49.6962C140.494 50.135 139.68 50.3545 138.663 50.3545ZM151.007 50.3545C150.322 50.3545 149.717 50.1886 149.192 49.8567C148.679 49.5249 148.277 49.0539 147.988 48.4438C147.699 47.823 147.555 47.0951 147.555 46.2602C147.555 45.4145 147.699 44.692 147.988 44.0926C148.277 43.4825 148.679 43.0115 149.192 42.6797C149.717 42.3478 150.322 42.1819 151.007 42.1819C151.66 42.1819 152.227 42.3425 152.709 42.6636C153.201 42.9847 153.533 43.4075 153.704 43.932H153.527V39.7575C153.527 39.4256 153.613 39.1741 153.784 39.0028C153.956 38.8316 154.202 38.7459 154.523 38.7459C154.844 38.7459 155.09 38.8316 155.262 39.0028C155.444 39.1741 155.535 39.4256 155.535 39.7575V49.2948C155.535 49.6266 155.449 49.8835 155.278 50.0655C155.106 50.2367 154.86 50.3224 154.539 50.3224C154.218 50.3224 153.972 50.2367 153.8 50.0655C153.629 49.8835 153.544 49.6266 153.544 49.2948V48.0424L153.72 48.5241C153.56 49.0807 153.233 49.5249 152.741 49.8567C152.248 50.1886 151.67 50.3545 151.007 50.3545ZM151.569 48.8291C151.965 48.8291 152.313 48.7328 152.612 48.5401C152.912 48.3475 153.142 48.0638 153.303 47.6892C153.474 47.3038 153.56 46.8275 153.56 46.2602C153.56 45.4038 153.378 44.767 153.014 44.3495C152.65 43.9213 152.168 43.7073 151.569 43.7073C151.173 43.7073 150.825 43.8036 150.525 43.9963C150.225 44.1782 149.99 44.4619 149.819 44.8472C149.658 45.2219 149.578 45.6929 149.578 46.2602C149.578 47.1058 149.76 47.748 150.124 48.1869C150.488 48.6151 150.969 48.8291 151.569 48.8291ZM161.485 50.3545C160.597 50.3545 159.831 50.1886 159.189 49.8567C158.547 49.5249 158.049 49.0539 157.696 48.4438C157.353 47.8337 157.182 47.1111 157.182 46.2762C157.182 45.4627 157.348 44.7509 157.68 44.1408C158.022 43.5306 158.488 43.0543 159.077 42.7118C159.676 42.3585 160.356 42.1819 161.116 42.1819C161.672 42.1819 162.17 42.2729 162.609 42.4549C163.059 42.6368 163.439 42.8991 163.749 43.2416C164.07 43.5842 164.311 44.0016 164.471 44.494C164.643 44.9757 164.728 45.5216 164.728 46.1317C164.728 46.3244 164.659 46.4742 164.52 46.5813C164.391 46.6776 164.204 46.7258 163.958 46.7258H158.804V45.5698H163.315L163.059 45.8106C163.059 45.3182 162.984 44.9061 162.834 44.5743C162.695 44.2425 162.486 43.9909 162.208 43.8196C161.94 43.6377 161.603 43.5467 161.196 43.5467C160.746 43.5467 160.361 43.6537 160.04 43.8678C159.73 44.0712 159.489 44.3655 159.317 44.7509C159.157 45.1255 159.077 45.5751 159.077 46.0996V46.212C159.077 47.0897 159.28 47.748 159.687 48.1869C160.104 48.6151 160.714 48.8291 161.517 48.8291C161.795 48.8291 162.106 48.797 162.448 48.7328C162.802 48.6579 163.133 48.5348 163.444 48.3635C163.669 48.2351 163.867 48.1815 164.038 48.203C164.209 48.2137 164.343 48.2725 164.439 48.3796C164.546 48.4866 164.611 48.6204 164.632 48.781C164.653 48.9308 164.621 49.086 164.536 49.2466C164.461 49.4072 164.327 49.5463 164.134 49.6641C163.76 49.8995 163.326 50.0762 162.834 50.1939C162.352 50.3009 161.902 50.3545 161.485 50.3545ZM173.519 50.3545C172.866 50.3545 172.325 50.2367 171.897 50.0012C171.469 49.755 171.148 49.3911 170.934 48.9094C170.73 48.4277 170.629 47.8283 170.629 47.1111V43.2256C170.629 42.883 170.714 42.6315 170.885 42.4709C171.057 42.2997 171.303 42.214 171.624 42.214C171.945 42.214 172.191 42.2997 172.363 42.4709C172.545 42.6315 172.636 42.883 172.636 43.2256V47.1433C172.636 47.6999 172.748 48.112 172.973 48.3796C173.198 48.6472 173.556 48.781 174.049 48.781C174.584 48.781 175.023 48.599 175.365 48.2351C175.708 47.8604 175.879 47.368 175.879 46.7579V43.2256C175.879 42.883 175.965 42.6315 176.136 42.4709C176.307 42.2997 176.553 42.214 176.874 42.214C177.196 42.214 177.442 42.2997 177.613 42.4709C177.795 42.6315 177.886 42.883 177.886 43.2256V49.2948C177.886 49.9798 177.559 50.3224 176.907 50.3224C176.596 50.3224 176.355 50.2367 176.184 50.0655C176.013 49.8835 175.927 49.6266 175.927 49.2948V48.0745L176.152 48.5562C175.927 49.1342 175.585 49.5784 175.124 49.8888C174.675 50.1993 174.14 50.3545 173.519 50.3545ZM180.97 50.3224C180.649 50.3224 180.403 50.2367 180.232 50.0655C180.061 49.8835 179.975 49.6266 179.975 49.2948V43.2256C179.975 42.8937 180.061 42.6422 180.232 42.4709C180.403 42.2997 180.644 42.214 180.954 42.214C181.265 42.214 181.506 42.2997 181.677 42.4709C181.848 42.6422 181.934 42.8937 181.934 43.2256V44.3174L181.757 43.916C181.993 43.3487 182.357 42.9205 182.849 42.6315C183.352 42.3318 183.919 42.1819 184.551 42.1819C185.182 42.1819 185.702 42.2997 186.108 42.5352C186.515 42.7706 186.82 43.1292 187.023 43.6109C187.227 44.0819 187.329 44.6813 187.329 45.4092V49.2948C187.329 49.6266 187.243 49.8835 187.072 50.0655C186.9 50.2367 186.654 50.3224 186.333 50.3224C186.012 50.3224 185.76 50.2367 185.578 50.0655C185.407 49.8835 185.322 49.6266 185.322 49.2948V45.5055C185.322 44.8954 185.204 44.4512 184.968 44.1729C184.744 43.8946 184.39 43.7554 183.909 43.7554C183.32 43.7554 182.849 43.9427 182.496 44.3174C182.153 44.6813 181.982 45.1684 181.982 45.7785V49.2948C181.982 49.9798 181.645 50.3224 180.97 50.3224ZM191.952 50.3545C191.385 50.3545 190.876 50.2474 190.427 50.0333C189.988 49.8086 189.64 49.5088 189.383 49.1342C189.137 48.7596 189.014 48.3368 189.014 47.8658C189.014 47.2878 189.164 46.8328 189.463 46.501C189.763 46.1585 190.25 45.9123 190.924 45.7624C191.599 45.6126 192.503 45.5376 193.638 45.5376H194.441V46.6937H193.654C192.99 46.6937 192.461 46.7258 192.064 46.79C191.668 46.8542 191.385 46.9666 191.214 47.1272C191.053 47.2771 190.973 47.4911 190.973 47.7694C190.973 48.1227 191.096 48.4117 191.342 48.6365C191.588 48.8613 191.931 48.9736 192.37 48.9736C192.723 48.9736 193.033 48.8934 193.301 48.7328C193.579 48.5615 193.799 48.3314 193.959 48.0424C194.12 47.7534 194.2 47.4216 194.2 47.0469V45.2005C194.2 44.6653 194.082 44.2799 193.847 44.0444C193.611 43.8089 193.215 43.6912 192.659 43.6912C192.348 43.6912 192.011 43.7287 191.647 43.8036C191.294 43.8785 190.919 44.007 190.523 44.1889C190.32 44.2853 190.138 44.312 189.977 44.2692C189.827 44.2264 189.71 44.1408 189.624 44.0123C189.538 43.8732 189.496 43.7233 189.496 43.5627C189.496 43.4022 189.538 43.247 189.624 43.0971C189.71 42.9366 189.854 42.8188 190.057 42.7439C190.55 42.5405 191.021 42.396 191.47 42.3104C191.931 42.2247 192.348 42.1819 192.723 42.1819C193.493 42.1819 194.125 42.2997 194.617 42.5352C195.12 42.7706 195.495 43.1292 195.741 43.6109C195.988 44.0819 196.111 44.692 196.111 45.4413V49.2948C196.111 49.6266 196.03 49.8835 195.87 50.0655C195.709 50.2367 195.479 50.3224 195.179 50.3224C194.88 50.3224 194.644 50.2367 194.473 50.0655C194.312 49.8835 194.232 49.6266 194.232 49.2948V48.5241H194.36C194.286 48.8987 194.136 49.2252 193.911 49.5035C193.697 49.7711 193.424 49.9798 193.092 50.1297C192.76 50.2795 192.38 50.3545 191.952 50.3545ZM205.188 50.3545C204.3 50.3545 203.631 50.1029 203.181 49.5998C202.731 49.086 202.507 48.3368 202.507 47.352V39.7575C202.507 39.4256 202.592 39.1741 202.764 39.0028C202.935 38.8316 203.181 38.7459 203.502 38.7459C203.823 38.7459 204.069 38.8316 204.241 39.0028C204.423 39.1741 204.514 39.4256 204.514 39.7575V47.2556C204.514 47.748 204.615 48.112 204.819 48.3475C205.033 48.5829 205.333 48.7007 205.718 48.7007C205.804 48.7007 205.884 48.7007 205.959 48.7007C206.034 48.69 206.109 48.6793 206.184 48.6686C206.333 48.6472 206.435 48.69 206.489 48.797C206.542 48.8934 206.569 49.0967 206.569 49.4072C206.569 49.6748 206.515 49.8835 206.408 50.0333C206.301 50.1832 206.125 50.2742 205.878 50.3063C205.771 50.317 205.659 50.3277 205.541 50.3384C205.424 50.3491 205.306 50.3545 205.188 50.3545ZM208.629 50.3063C208.308 50.3063 208.062 50.21 207.891 50.0173C207.72 49.8246 207.634 49.557 207.634 49.2145V43.3219C207.634 42.9687 207.72 42.7011 207.891 42.5191C208.062 42.3264 208.308 42.2301 208.629 42.2301C208.951 42.2301 209.197 42.3264 209.368 42.5191C209.55 42.7011 209.641 42.9687 209.641 43.3219V49.2145C209.641 49.557 209.555 49.8246 209.384 50.0173C209.213 50.21 208.961 50.3063 208.629 50.3063ZM209.384 41.2025C209.277 41.3524 209.149 41.438 208.999 41.4594C208.849 41.4808 208.704 41.454 208.565 41.3791C208.426 41.3042 208.324 41.1971 208.26 41.058C208.207 40.9188 208.223 40.7636 208.308 40.5924L209.529 38.2C209.625 37.9966 209.753 37.8682 209.914 37.8147C210.075 37.7504 210.24 37.7397 210.412 37.7826C210.583 37.8254 210.727 37.9057 210.845 38.0234C210.974 38.1411 211.049 38.2856 211.07 38.4569C211.102 38.6175 211.059 38.7834 210.942 38.9546L209.384 41.2025ZM212.722 50.3224C212.401 50.3224 212.155 50.2367 211.983 50.0655C211.812 49.8835 211.726 49.6266 211.726 49.2948V43.2256C211.726 42.8937 211.812 42.6422 211.983 42.4709C212.155 42.2997 212.395 42.214 212.706 42.214C213.016 42.214 213.257 42.2997 213.428 42.4709C213.6 42.6422 213.685 42.8937 213.685 43.2256V44.3174L213.509 43.916C213.744 43.3487 214.108 42.9205 214.6 42.6315C215.104 42.3318 215.671 42.1819 216.302 42.1819C216.934 42.1819 217.453 42.2997 217.86 42.5352C218.267 42.7706 218.572 43.1292 218.775 43.6109C218.978 44.0819 219.08 44.6813 219.08 45.4092V49.2948C219.08 49.6266 218.994 49.8835 218.823 50.0655C218.652 50.2367 218.406 50.3224 218.085 50.3224C217.763 50.3224 217.512 50.2367 217.33 50.0655C217.159 49.8835 217.073 49.6266 217.073 49.2948V45.5055C217.073 44.8954 216.955 44.4512 216.72 44.1729C216.495 43.8946 216.142 43.7554 215.66 43.7554C215.071 43.7554 214.6 43.9427 214.247 44.3174C213.905 44.6813 213.733 45.1684 213.733 45.7785V49.2948C213.733 49.9798 213.396 50.3224 212.722 50.3224ZM224.988 50.3545C224.1 50.3545 223.334 50.1886 222.692 49.8567C222.05 49.5249 221.552 49.0539 221.199 48.4438C220.856 47.8337 220.685 47.1111 220.685 46.2762C220.685 45.4627 220.851 44.7509 221.183 44.1408C221.525 43.5306 221.991 43.0543 222.58 42.7118C223.179 42.3585 223.859 42.1819 224.619 42.1819C225.175 42.1819 225.673 42.2729 226.112 42.4549C226.562 42.6368 226.942 42.8991 227.252 43.2416C227.573 43.5842 227.814 44.0016 227.975 44.494C228.146 44.9757 228.231 45.5216 228.231 46.1317C228.231 46.3244 228.162 46.4742 228.023 46.5813C227.894 46.6776 227.707 46.7258 227.461 46.7258H222.307V45.5698H226.818L226.562 45.8106C226.562 45.3182 226.487 44.9061 226.337 44.5743C226.198 44.2425 225.989 43.9909 225.711 43.8196C225.443 43.6377 225.106 43.5467 224.699 43.5467C224.25 43.5467 223.864 43.6537 223.543 43.8678C223.233 44.0712 222.992 44.3655 222.821 44.7509C222.66 45.1255 222.58 45.5751 222.58 46.0996V46.212C222.58 47.0897 222.783 47.748 223.19 48.1869C223.607 48.6151 224.217 48.8291 225.02 48.8291C225.299 48.8291 225.609 48.797 225.951 48.7328C226.305 48.6579 226.637 48.5348 226.947 48.3635C227.172 48.2351 227.37 48.1815 227.541 48.203C227.712 48.2137 227.846 48.2725 227.942 48.3796C228.049 48.4866 228.114 48.6204 228.135 48.781C228.157 48.9308 228.124 49.086 228.039 49.2466C227.964 49.4072 227.83 49.5463 227.637 49.6641C227.263 49.8995 226.829 50.0762 226.337 50.1939C225.855 50.3009 225.406 50.3545 224.988 50.3545ZM232.406 50.3545C231.839 50.3545 231.33 50.2474 230.881 50.0333C230.442 49.8086 230.094 49.5088 229.837 49.1342C229.591 48.7596 229.468 48.3368 229.468 47.8658C229.468 47.2878 229.617 46.8328 229.917 46.501C230.217 46.1585 230.704 45.9123 231.378 45.7624C232.053 45.6126 232.957 45.5376 234.092 45.5376H234.895V46.6937H234.108C233.444 46.6937 232.914 46.7258 232.518 46.79C232.122 46.8542 231.839 46.9666 231.667 47.1272C231.507 47.2771 231.426 47.4911 231.426 47.7694C231.426 48.1227 231.55 48.4117 231.796 48.6365C232.042 48.8613 232.384 48.9736 232.823 48.9736C233.177 48.9736 233.487 48.8934 233.755 48.7328C234.033 48.5615 234.252 48.3314 234.413 48.0424C234.573 47.7534 234.654 47.4216 234.654 47.0469V45.2005C234.654 44.6653 234.536 44.2799 234.301 44.0444C234.065 43.8089 233.669 43.6912 233.112 43.6912C232.802 43.6912 232.465 43.7287 232.101 43.8036C231.748 43.8785 231.373 44.007 230.977 44.1889C230.774 44.2853 230.592 44.312 230.431 44.2692C230.281 44.2264 230.163 44.1408 230.078 44.0123C229.992 43.8732 229.949 43.7233 229.949 43.5627C229.949 43.4022 229.992 43.247 230.078 43.0971C230.163 42.9366 230.308 42.8188 230.511 42.7439C231.004 42.5405 231.475 42.396 231.924 42.3104C232.384 42.2247 232.802 42.1819 233.177 42.1819C233.947 42.1819 234.579 42.2997 235.071 42.5352C235.574 42.7706 235.949 43.1292 236.195 43.6109C236.441 44.0819 236.564 44.692 236.564 45.4413V49.2948C236.564 49.6266 236.484 49.8835 236.324 50.0655C236.163 50.2367 235.933 50.3224 235.633 50.3224C235.333 50.3224 235.098 50.2367 234.927 50.0655C234.766 49.8835 234.686 49.6266 234.686 49.2948V48.5241H234.814C234.739 48.8987 234.59 49.2252 234.365 49.5035C234.151 49.7711 233.878 49.9798 233.546 50.1297C233.214 50.2795 232.834 50.3545 232.406 50.3545Z" fill="#007BC7"/>
<path d="M81.4658 30.7032H220.485V31.1528H81.4658V30.7032ZM81.4658 51.7032H237.56V52.1528H81.4658V51.7032Z" fill="#007BC7"/>
<path d="M90.4511 68.6556C90.4511 69.7428 90.2531 70.6516 89.8569 71.3823C89.4608 72.1085 88.8864 72.6564 88.1338 73.0262C87.3856 73.3915 86.4767 73.5741 85.4072 73.5741H82.7862V63.922H85.6977C86.6792 63.922 87.5242 64.1024 88.2328 64.4634C88.9415 64.8199 89.4872 65.3502 89.8701 66.0544C90.2575 66.7543 90.4511 67.6213 90.4511 68.6556ZM89.2694 68.6952C89.2694 67.8282 89.1241 67.113 88.8336 66.5496C88.5475 65.9862 88.125 65.5681 87.566 65.2952C87.0115 65.0179 86.3315 64.8793 85.526 64.8793H83.9085V72.6102H85.2751C86.6043 72.6102 87.6012 72.2823 88.2659 71.6265C88.9349 70.9707 89.2694 69.9936 89.2694 68.6952ZM95.2178 66.2063C95.834 66.2063 96.3621 66.3427 96.8022 66.6156C97.2424 66.8885 97.5791 67.2714 97.8124 67.7644C98.0456 68.2529 98.1623 68.8251 98.1623 69.4809V70.1609H93.1645C93.1777 71.0103 93.389 71.6573 93.7983 72.1019C94.2077 72.5464 94.7842 72.7687 95.5281 72.7687C95.9858 72.7687 96.3907 72.7269 96.7428 72.6432C97.0949 72.5596 97.4602 72.4364 97.8388 72.2735V73.2374C97.4735 73.4003 97.1103 73.5191 96.7494 73.5939C96.3929 73.6688 95.9704 73.7062 95.4818 73.7062C94.7864 73.7062 94.179 73.5653 93.6597 73.2836C93.1447 72.9976 92.7442 72.5794 92.4581 72.0293C92.172 71.4791 92.029 70.8057 92.029 70.009C92.029 69.23 92.1588 68.5566 92.4185 67.9888C92.6826 67.4167 93.0523 66.9765 93.5277 66.6684C94.0074 66.3603 94.5708 66.2063 95.2178 66.2063ZM95.2046 67.1042C94.6192 67.1042 94.1526 67.2956 93.8049 67.6785C93.4572 68.0615 93.2504 68.5962 93.1843 69.2828H97.0135C97.0091 68.8515 96.9409 68.473 96.8088 68.1473C96.6812 67.8172 96.4854 67.5619 96.2213 67.3814C95.9572 67.1966 95.6183 67.1042 95.2046 67.1042ZM104.705 71.5935C104.705 72.0557 104.588 72.4452 104.355 72.7621C104.126 73.0746 103.796 73.31 103.365 73.4685C102.938 73.6269 102.427 73.7062 101.833 73.7062C101.327 73.7062 100.889 73.6666 100.519 73.5873C100.149 73.5081 99.826 73.3959 99.5487 73.2506V72.2405C99.8436 72.3858 100.196 72.5178 100.605 72.6366C101.014 72.7555 101.432 72.8149 101.859 72.8149C102.484 72.8149 102.938 72.7137 103.219 72.5112C103.501 72.3087 103.642 72.0337 103.642 71.686C103.642 71.4879 103.585 71.314 103.47 71.1644C103.36 71.0103 103.173 70.8629 102.909 70.7221C102.645 70.5768 102.28 70.4184 101.813 70.2467C101.351 70.0707 100.951 69.8968 100.612 69.7252C100.277 69.5491 100.017 69.3356 99.8326 69.0848C99.6521 68.8339 99.5619 68.5082 99.5619 68.1077C99.5619 67.4959 99.8084 67.0271 100.301 66.7014C100.799 66.3713 101.45 66.2063 102.256 66.2063C102.691 66.2063 103.098 66.2503 103.477 66.3383C103.86 66.422 104.216 66.5364 104.546 66.6816L104.177 67.5597C103.877 67.4321 103.558 67.3242 103.219 67.2362C102.88 67.1482 102.535 67.1042 102.183 67.1042C101.677 67.1042 101.287 67.1878 101.014 67.355C100.746 67.5223 100.612 67.7512 100.612 68.0416C100.612 68.2661 100.673 68.451 100.796 68.5962C100.924 68.7415 101.127 68.8779 101.404 69.0055C101.681 69.1332 102.046 69.2828 102.5 69.4545C102.953 69.6217 103.345 69.7956 103.675 69.976C104.005 70.1521 104.258 70.3678 104.434 70.623C104.615 70.8739 104.705 71.1974 104.705 71.5935ZM109.366 73.7062C108.714 73.7062 108.14 73.5719 107.643 73.3034C107.145 73.035 106.758 72.6256 106.481 72.0755C106.204 71.5253 106.065 70.8321 106.065 69.9958C106.065 69.12 106.21 68.4048 106.501 67.8502C106.795 67.2912 107.2 66.8775 107.715 66.609C108.23 66.3405 108.816 66.2063 109.471 66.2063C109.832 66.2063 110.18 66.2437 110.515 66.3185C110.854 66.3889 111.131 66.4792 111.346 66.5892L111.016 67.5069C110.796 67.4189 110.541 67.3396 110.251 67.2692C109.964 67.1988 109.696 67.1636 109.445 67.1636C108.943 67.1636 108.525 67.2714 108.191 67.4871C107.861 67.7027 107.612 68.0196 107.445 68.4378C107.282 68.8559 107.2 69.3708 107.2 69.9826C107.2 70.568 107.28 71.0676 107.438 71.4813C107.601 71.895 107.841 72.2119 108.158 72.432C108.479 72.6476 108.88 72.7555 109.359 72.7555C109.742 72.7555 110.088 72.7159 110.396 72.6366C110.704 72.553 110.983 72.4562 111.234 72.3462V73.3233C110.992 73.4465 110.721 73.5411 110.422 73.6071C110.127 73.6732 109.775 73.7062 109.366 73.7062ZM116.239 66.2063C116.384 66.2063 116.536 66.2151 116.694 66.2327C116.853 66.2459 116.993 66.2657 117.117 66.2921L116.978 67.3088C116.859 67.278 116.727 67.2538 116.582 67.2362C116.437 67.2186 116.3 67.2098 116.173 67.2098C115.882 67.2098 115.607 67.2692 115.347 67.388C115.092 67.5025 114.868 67.6697 114.674 67.8898C114.48 68.1055 114.328 68.3673 114.218 68.6754C114.108 68.9791 114.053 69.318 114.053 69.6921V73.5741H112.951V66.3383H113.862L113.981 67.6719H114.027C114.177 67.4035 114.357 67.1592 114.568 66.9391C114.78 66.7146 115.024 66.5364 115.301 66.4043C115.583 66.2723 115.895 66.2063 116.239 66.2063ZM119.579 66.3383V73.5741H118.483V66.3383H119.579ZM119.044 63.6315C119.225 63.6315 119.379 63.6909 119.507 63.8098C119.639 63.9242 119.705 64.1046 119.705 64.3511C119.705 64.5932 119.639 64.7737 119.507 64.8925C119.379 65.0113 119.225 65.0707 119.044 65.0707C118.855 65.0707 118.697 65.0113 118.569 64.8925C118.446 64.7737 118.384 64.5932 118.384 64.3511C118.384 64.1046 118.446 63.9242 118.569 63.8098C118.697 63.6909 118.855 63.6315 119.044 63.6315ZM125.303 66.2063C126.205 66.2063 126.925 66.5166 127.462 67.1372C127.999 67.7578 128.267 68.6908 128.267 69.9364C128.267 70.7595 128.144 71.4505 127.898 72.0095C127.651 72.5684 127.304 72.9909 126.855 73.277C126.41 73.5631 125.884 73.7062 125.277 73.7062C124.894 73.7062 124.557 73.6556 124.267 73.5543C123.976 73.4531 123.727 73.3166 123.521 73.145C123.314 72.9733 123.142 72.7863 123.006 72.5838H122.926C122.94 72.7555 122.955 72.9623 122.973 73.2044C122.995 73.4465 123.006 73.6578 123.006 73.8382V76.8091H121.903V66.3383H122.808L122.953 67.4079H123.006C123.146 67.1878 123.318 66.9875 123.521 66.8071C123.723 66.6222 123.97 66.477 124.26 66.3713C124.555 66.2613 124.903 66.2063 125.303 66.2063ZM125.112 67.1306C124.61 67.1306 124.205 67.2274 123.897 67.4211C123.593 67.6147 123.371 67.9052 123.23 68.2925C123.089 68.6754 123.014 69.1574 123.006 69.7384V69.9496C123.006 70.5614 123.072 71.0786 123.204 71.5011C123.34 71.9236 123.562 72.2449 123.87 72.465C124.183 72.6851 124.601 72.7951 125.125 72.7951C125.574 72.7951 125.948 72.6741 126.247 72.432C126.546 72.1899 126.769 71.8532 126.914 71.4219C127.064 70.9861 127.138 70.4866 127.138 69.9232C127.138 69.0694 126.971 68.3916 126.637 67.8898C126.307 67.3836 125.798 67.1306 125.112 67.1306ZM133.08 73.7062C132.429 73.7062 131.855 73.5719 131.357 73.3034C130.86 73.035 130.472 72.6256 130.195 72.0755C129.918 71.5253 129.779 70.8321 129.779 69.9958C129.779 69.12 129.925 68.4048 130.215 67.8502C130.51 67.2912 130.915 66.8775 131.43 66.609C131.945 66.3405 132.53 66.2063 133.186 66.2063C133.547 66.2063 133.895 66.2437 134.229 66.3185C134.568 66.3889 134.845 66.4792 135.061 66.5892L134.731 67.5069C134.511 67.4189 134.255 67.3396 133.965 67.2692C133.679 67.1988 133.41 67.1636 133.16 67.1636C132.658 67.1636 132.24 67.2714 131.905 67.4871C131.575 67.7027 131.326 68.0196 131.159 68.4378C130.996 68.8559 130.915 69.3708 130.915 69.9826C130.915 70.568 130.994 71.0676 131.152 71.4813C131.315 71.895 131.555 72.2119 131.872 72.432C132.193 72.6476 132.594 72.7555 133.074 72.7555C133.457 72.7555 133.802 72.7159 134.11 72.6366C134.418 72.553 134.698 72.4562 134.949 72.3462V73.3233C134.707 73.4465 134.436 73.5411 134.137 73.6071C133.842 73.6732 133.49 73.7062 133.08 73.7062ZM137.761 66.3383V73.5741H136.665V66.3383H137.761ZM137.226 63.6315C137.407 63.6315 137.561 63.6909 137.688 63.8098C137.821 63.9242 137.887 64.1046 137.887 64.3511C137.887 64.5932 137.821 64.7737 137.688 64.8925C137.561 65.0113 137.407 65.0707 137.226 65.0707C137.037 65.0707 136.879 65.0113 136.751 64.8925C136.628 64.7737 136.566 64.5932 136.566 64.3511C136.566 64.1046 136.628 63.9242 136.751 63.8098C136.879 63.6909 137.037 63.6315 137.226 63.6315ZM146.324 69.943C146.324 70.5372 146.247 71.0676 146.093 71.5341C145.939 72.0006 145.717 72.3946 145.426 72.7159C145.136 73.0372 144.783 73.2836 144.37 73.4553C143.96 73.6225 143.496 73.7062 142.977 73.7062C142.493 73.7062 142.048 73.6225 141.643 73.4553C141.243 73.2836 140.895 73.0372 140.6 72.7159C140.309 72.3946 140.083 72.0006 139.92 71.5341C139.762 71.0676 139.682 70.5372 139.682 69.943C139.682 69.1508 139.817 68.4774 140.085 67.9228C140.353 67.3638 140.736 66.9391 141.234 66.6486C141.736 66.3537 142.332 66.2063 143.023 66.2063C143.683 66.2063 144.26 66.3537 144.753 66.6486C145.25 66.9435 145.635 67.3704 145.908 67.9294C146.185 68.484 146.324 69.1552 146.324 69.943ZM140.818 69.943C140.818 70.524 140.895 71.028 141.049 71.4549C141.203 71.8818 141.441 72.2119 141.762 72.4452C142.083 72.6785 142.497 72.7951 143.003 72.7951C143.505 72.7951 143.916 72.6785 144.238 72.4452C144.563 72.2119 144.803 71.8818 144.957 71.4549C145.111 71.028 145.188 70.524 145.188 69.943C145.188 69.3664 145.111 68.8691 144.957 68.451C144.803 68.0284 144.566 67.7027 144.244 67.4739C143.923 67.245 143.507 67.1306 142.996 67.1306C142.244 67.1306 141.692 67.3792 141.339 67.8766C140.992 68.3739 140.818 69.0628 140.818 69.943ZM144.918 63.2156V63.3476C144.83 63.4753 144.709 63.6293 144.555 63.8098C144.405 63.9858 144.238 64.1729 144.053 64.3709C143.868 64.5646 143.681 64.7494 143.492 64.9255C143.307 65.1016 143.135 65.2534 142.977 65.381H142.244V65.2226C142.385 65.0553 142.539 64.8551 142.706 64.6218C142.873 64.3841 143.036 64.1421 143.195 63.8956C143.353 63.6447 143.485 63.418 143.591 63.2156H144.918ZM151.645 66.2063C152.503 66.2063 153.153 66.4176 153.593 66.8401C154.033 67.2582 154.253 67.9316 154.253 68.8603V73.5741H153.17V68.9329C153.17 68.3299 153.032 67.8788 152.754 67.5795C152.481 67.2802 152.061 67.1306 151.493 67.1306C150.692 67.1306 150.129 67.3572 149.803 67.8106C149.477 68.2639 149.315 68.9219 149.315 69.7846V73.5741H148.219V66.3383H149.103L149.268 67.3814H149.328C149.482 67.1262 149.678 66.9127 149.915 66.741C150.153 66.565 150.419 66.433 150.714 66.3449C151.009 66.2525 151.319 66.2063 151.645 66.2063ZM162.598 73.7062C161.682 73.7062 160.956 73.3937 160.419 72.7687C159.887 72.1437 159.62 71.215 159.62 69.9826C159.62 68.7371 159.893 67.7974 160.439 67.1636C160.985 66.5254 161.711 66.2063 162.618 66.2063C163.001 66.2063 163.335 66.2569 163.621 66.3581C163.907 66.4594 164.154 66.5958 164.361 66.7675C164.567 66.9347 164.741 67.1262 164.882 67.3418H164.961C164.944 67.2054 164.926 67.0183 164.909 66.7807C164.891 66.543 164.882 66.3493 164.882 66.1997V63.3014H165.978V73.5741H165.093L164.928 72.5442H164.882C164.746 72.7599 164.572 72.9557 164.361 73.1318C164.154 73.3078 163.905 73.4487 163.615 73.5543C163.328 73.6556 162.99 73.7062 162.598 73.7062ZM162.77 72.7951C163.544 72.7951 164.092 72.575 164.413 72.1349C164.735 71.6948 164.895 71.0412 164.895 70.1741V69.976C164.895 69.0562 164.741 68.3497 164.433 67.8568C164.13 67.3638 163.575 67.1174 162.77 67.1174C162.096 67.1174 161.592 67.377 161.258 67.8964C160.923 68.4114 160.756 69.1156 160.756 70.009C160.756 70.8981 160.921 71.5847 161.251 72.0689C161.586 72.553 162.092 72.7951 162.77 72.7951ZM171.088 66.2063C171.704 66.2063 172.232 66.3427 172.673 66.6156C173.113 66.8885 173.449 67.2714 173.683 67.7644C173.916 68.2529 174.033 68.8251 174.033 69.4809V70.1609H169.035C169.048 71.0103 169.259 71.6573 169.669 72.1019C170.078 72.5464 170.655 72.7687 171.398 72.7687C171.856 72.7687 172.261 72.7269 172.613 72.6432C172.965 72.5596 173.331 72.4364 173.709 72.2735V73.2374C173.344 73.4003 172.981 73.5191 172.62 73.5939C172.263 73.6688 171.841 73.7062 171.352 73.7062C170.657 73.7062 170.049 73.5653 169.53 73.2836C169.015 72.9976 168.614 72.5794 168.328 72.0293C168.042 71.4791 167.899 70.8057 167.899 70.009C167.899 69.23 168.029 68.5566 168.289 67.9888C168.553 67.4167 168.923 66.9765 169.398 66.6684C169.878 66.3603 170.441 66.2063 171.088 66.2063ZM171.075 67.1042C170.489 67.1042 170.023 67.2956 169.675 67.6785C169.328 68.0615 169.121 68.5962 169.055 69.2828H172.884C172.879 68.8515 172.811 68.473 172.679 68.1473C172.551 67.8172 172.356 67.5619 172.092 67.3814C171.827 67.1966 171.489 67.1042 171.075 67.1042ZM180.509 73.5741H179.407V63.3014H180.509V73.5741ZM185.533 66.2195C186.396 66.2195 187.036 66.4131 187.454 66.8005C187.873 67.1878 188.082 67.8062 188.082 68.6556V73.5741H187.283L187.072 72.5046H187.019C186.816 72.7687 186.605 72.9909 186.385 73.1714C186.165 73.3475 185.91 73.4817 185.619 73.5741C185.333 73.6622 184.981 73.7062 184.563 73.7062C184.123 73.7062 183.731 73.6291 183.388 73.4751C183.049 73.3211 182.78 73.0878 182.582 72.7753C182.388 72.4628 182.292 72.0667 182.292 71.5869C182.292 70.8651 182.578 70.3105 183.15 69.9232C183.722 69.5359 184.594 69.3246 185.764 69.2894L187.012 69.2366V68.7943C187.012 68.1693 186.878 67.7314 186.609 67.4805C186.341 67.2296 185.962 67.1042 185.474 67.1042C185.095 67.1042 184.734 67.1592 184.391 67.2692C184.048 67.3792 183.722 67.5091 183.414 67.6587L183.077 66.8269C183.403 66.6596 183.777 66.5166 184.2 66.3977C184.622 66.2789 185.067 66.2195 185.533 66.2195ZM186.999 70.009L185.896 70.0553C184.994 70.0905 184.358 70.2379 183.988 70.4976C183.619 70.7573 183.434 71.1248 183.434 71.6001C183.434 72.0139 183.559 72.3197 183.81 72.5178C184.061 72.7159 184.393 72.8149 184.807 72.8149C185.45 72.8149 185.976 72.6366 186.385 72.2801C186.794 71.9236 186.999 71.3889 186.999 70.6758V70.009ZM196.189 72.8083C196.369 72.8083 196.554 72.7929 196.743 72.7621C196.933 72.7313 197.087 72.6939 197.206 72.6498V73.5015C197.078 73.5587 196.9 73.6071 196.671 73.6467C196.446 73.6864 196.226 73.7062 196.011 73.7062C195.628 73.7062 195.28 73.6401 194.968 73.5081C194.655 73.3717 194.404 73.1428 194.215 72.8215C194.03 72.5002 193.938 72.0557 193.938 71.4879V67.1966H192.908V66.6618L193.944 66.2327L194.38 64.6614H195.04V66.3383H197.159V67.1966H195.04V71.4549C195.04 71.9082 195.144 72.2471 195.35 72.4716C195.562 72.6961 195.841 72.8083 196.189 72.8083ZM201.378 66.2195C202.241 66.2195 202.881 66.4131 203.299 66.8005C203.717 67.1878 203.926 67.8062 203.926 68.6556V73.5741H203.128L202.916 72.5046H202.864C202.661 72.7687 202.45 72.9909 202.23 73.1714C202.01 73.3475 201.754 73.4817 201.464 73.5741C201.178 73.6622 200.826 73.7062 200.408 73.7062C199.967 73.7062 199.576 73.6291 199.232 73.4751C198.893 73.3211 198.625 73.0878 198.427 72.7753C198.233 72.4628 198.136 72.0667 198.136 71.5869C198.136 70.8651 198.423 70.3105 198.995 69.9232C199.567 69.5359 200.438 69.3246 201.609 69.2894L202.857 69.2366V68.7943C202.857 68.1693 202.723 67.7314 202.454 67.4805C202.186 67.2296 201.807 67.1042 201.319 67.1042C200.94 67.1042 200.579 67.1592 200.236 67.2692C199.893 67.3792 199.567 67.5091 199.259 67.6587L198.922 66.8269C199.248 66.6596 199.622 66.5166 200.044 66.3977C200.467 66.2789 200.912 66.2195 201.378 66.2195ZM202.844 70.009L201.741 70.0553C200.839 70.0905 200.203 70.2379 199.833 70.4976C199.463 70.7573 199.279 71.1248 199.279 71.6001C199.279 72.0139 199.404 72.3197 199.655 72.5178C199.906 72.7159 200.238 72.8149 200.652 72.8149C201.294 72.8149 201.82 72.6366 202.23 72.2801C202.639 71.9236 202.844 71.3889 202.844 70.6758V70.009ZM209.472 66.2063C209.617 66.2063 209.769 66.2151 209.928 66.2327C210.086 66.2459 210.227 66.2657 210.35 66.2921L210.212 67.3088C210.093 67.278 209.961 67.2538 209.815 67.2362C209.67 67.2186 209.534 67.2098 209.406 67.2098C209.116 67.2098 208.841 67.2692 208.581 67.388C208.326 67.5025 208.101 67.6697 207.907 67.8898C207.714 68.1055 207.562 68.3673 207.452 68.6754C207.342 68.9791 207.287 69.318 207.287 69.6921V73.5741H206.184V66.3383H207.095L207.214 67.6719H207.26C207.41 67.4035 207.591 67.1592 207.802 66.9391C208.013 66.7146 208.257 66.5364 208.535 66.4043C208.816 66.2723 209.129 66.2063 209.472 66.2063ZM210.845 76.8223C210.621 76.8223 210.425 76.8047 210.258 76.7695C210.09 76.7387 209.945 76.7013 209.822 76.6573V75.766C209.958 75.81 210.097 75.843 210.238 75.865C210.379 75.8914 210.537 75.9046 210.713 75.9046C211.013 75.9046 211.255 75.821 211.44 75.6538C211.624 75.4865 211.717 75.1828 211.717 74.7427V66.3383H212.813V74.7163C212.813 75.1564 212.742 75.5327 212.601 75.8452C212.461 76.1621 212.245 76.4042 211.954 76.5714C211.664 76.7387 211.294 76.8223 210.845 76.8223ZM211.618 64.3511C211.618 64.1046 211.679 63.9242 211.803 63.8098C211.93 63.6909 212.089 63.6315 212.278 63.6315C212.458 63.6315 212.612 63.6909 212.74 63.8098C212.872 63.9242 212.938 64.1046 212.938 64.3511C212.938 64.5932 212.872 64.7737 212.74 64.8925C212.612 65.0113 212.458 65.0707 212.278 65.0707C212.089 65.0707 211.93 65.0113 211.803 64.8925C211.679 64.7737 211.618 64.5932 211.618 64.3511ZM217.923 66.2063C218.539 66.2063 219.067 66.3427 219.507 66.6156C219.947 66.8885 220.284 67.2714 220.517 67.7644C220.751 68.2529 220.867 68.8251 220.867 69.4809V70.1609H215.869C215.883 71.0103 216.094 71.6573 216.503 72.1019C216.913 72.5464 217.489 72.7687 218.233 72.7687C218.691 72.7687 219.096 72.7269 219.448 72.6432C219.8 72.5596 220.165 72.4364 220.544 72.2735V73.2374C220.178 73.4003 219.815 73.5191 219.454 73.5939C219.098 73.6688 218.675 73.7062 218.187 73.7062C217.491 73.7062 216.884 73.5653 216.365 73.2836C215.85 72.9976 215.449 72.5794 215.163 72.0293C214.877 71.4791 214.734 70.8057 214.734 70.009C214.734 69.23 214.864 68.5566 215.123 67.9888C215.388 67.4167 215.757 66.9765 216.233 66.6684C216.712 66.3603 217.276 66.2063 217.923 66.2063ZM217.909 67.1042C217.324 67.1042 216.858 67.2956 216.51 67.6785C216.162 68.0615 215.955 68.5962 215.889 69.2828H219.718C219.714 68.8515 219.646 68.473 219.514 68.1473C219.386 67.8172 219.19 67.5619 218.926 67.3814C218.662 67.1966 218.323 67.1042 217.909 67.1042ZM225.066 72.8083C225.247 72.8083 225.431 72.7929 225.621 72.7621C225.81 72.7313 225.964 72.6939 226.083 72.6498V73.5015C225.955 73.5587 225.777 73.6071 225.548 73.6467C225.324 73.6864 225.103 73.7062 224.888 73.7062C224.505 73.7062 224.157 73.6401 223.845 73.5081C223.532 73.3717 223.281 73.1428 223.092 72.8215C222.907 72.5002 222.815 72.0557 222.815 71.4879V67.1966H221.785V66.6618L222.821 66.2327L223.257 64.6614H223.917V66.3383H226.037V67.1966H223.917V71.4549C223.917 71.9082 224.021 72.2471 224.228 72.4716C224.439 72.6961 224.718 72.8083 225.066 72.8083ZM230.255 66.2195C231.118 66.2195 231.758 66.4131 232.176 66.8005C232.595 67.1878 232.804 67.8062 232.804 68.6556V73.5741H232.005L231.794 72.5046H231.741C231.538 72.7687 231.327 72.9909 231.107 73.1714C230.887 73.3475 230.632 73.4817 230.341 73.5741C230.055 73.6622 229.703 73.7062 229.285 73.7062C228.845 73.7062 228.453 73.6291 228.11 73.4751C227.771 73.3211 227.502 73.0878 227.304 72.7753C227.11 72.4628 227.014 72.0667 227.014 71.5869C227.014 70.8651 227.3 70.3105 227.872 69.9232C228.444 69.5359 229.316 69.3246 230.486 69.2894L231.734 69.2366V68.7943C231.734 68.1693 231.6 67.7314 231.331 67.4805C231.063 67.2296 230.684 67.1042 230.196 67.1042C229.817 67.1042 229.456 67.1592 229.113 67.2692C228.77 67.3792 228.444 67.5091 228.136 67.6587L227.799 66.8269C228.125 66.6596 228.499 66.5166 228.922 66.3977C229.344 66.2789 229.789 66.2195 230.255 66.2195ZM231.721 70.009L230.618 70.0553C229.716 70.0905 229.08 70.2379 228.71 70.4976C228.341 70.7573 228.156 71.1248 228.156 71.6001C228.156 72.0139 228.281 72.3197 228.532 72.5178C228.783 72.7159 229.115 72.8149 229.529 72.8149C230.172 72.8149 230.698 72.6366 231.107 72.2801C231.516 71.9236 231.721 71.3889 231.721 70.6758V70.009Z" fill="#38485C"/>
</svg>
