<svg width="712" height="382" viewBox="0 0 712 382" fill="none" xmlns="http://www.w3.org/2000/svg">
<rect x="0.63522" y="0.63522" width="710.73" height="380.73" rx="4.44654" fill="#F3F6F9"/>
<rect x="0.63522" y="0.63522" width="710.73" height="380.73" rx="4.44654" stroke="#E6EBF0" stroke-width="1.27044"/>
<g clip-path="url(#clip0_5903_3222)">
<rect x="154.254" y="25.8923" width="185.746" height="330.215" rx="10.3192" fill="white"/>
<g clip-path="url(#clip1_5903_3222)">
<rect x="162.509" y="33.9509" width="169.235" height="107.044" rx="4.0661" fill="white"/>
<rect x="174.707" y="46.1492" width="32.5288" height="32.5288" rx="4.0661" fill="#F3F6F9"/>
<rect width="172.809" height="62.317" transform="translate(162.509 78.678)" fill="white"/>
<rect x="174.707" y="89.2974" width="108.192" height="9.25709" rx="4.62855" fill="#9EAAB8"/>
<rect x="174.708" y="103.183" width="148.412" height="7.52139" rx="3.76069" fill="#E6EBF0"/>
<rect x="174.708" y="113.019" width="148.412" height="7.52139" rx="3.76069" fill="#E6EBF0"/>
<rect x="174.708" y="122.854" width="148.412" height="7.52139" rx="3.76069" fill="#E6EBF0"/>
</g>
<rect x="162.001" y="33.4427" width="170.252" height="108.061" rx="4.57436" stroke="#E6EBF0" stroke-width="1.01652"/>
<g clip-path="url(#clip2_5903_3222)">
<rect x="162.509" y="151.314" width="169.235" height="107.044" rx="4.0661" fill="white"/>
<rect x="174.707" y="163.512" width="32.5288" height="32.5288" rx="4.0661" fill="#F3F6F9"/>
<rect width="172.809" height="62.317" transform="translate(162.509 196.041)" fill="white"/>
<rect x="174.707" y="206.661" width="108.192" height="9.25709" rx="4.62855" fill="#9EAAB8"/>
<rect x="174.708" y="220.546" width="148.412" height="7.52139" rx="3.76069" fill="#E6EBF0"/>
<rect x="174.708" y="230.382" width="148.412" height="7.52139" rx="3.76069" fill="#E6EBF0"/>
<rect x="174.708" y="240.218" width="148.412" height="7.52139" rx="3.76069" fill="#E6EBF0"/>
</g>
<rect x="162.001" y="150.806" width="170.252" height="108.061" rx="4.57436" stroke="#E6EBF0" stroke-width="1.01652"/>
<g clip-path="url(#clip3_5903_3222)">
<rect x="162.509" y="268.677" width="169.235" height="107.044" rx="4.0661" fill="white"/>
<rect x="174.707" y="280.876" width="32.5288" height="32.5288" rx="4.0661" fill="#F3F6F9"/>
<rect width="172.809" height="62.317" transform="translate(162.509 313.405)" fill="white"/>
<rect x="174.707" y="324.024" width="108.192" height="9.25709" rx="4.62855" fill="#9EAAB8"/>
<rect x="174.708" y="337.909" width="148.412" height="7.52139" rx="3.76069" fill="#E6EBF0"/>
<rect x="174.708" y="347.745" width="148.412" height="7.52139" rx="3.76069" fill="#E6EBF0"/>
</g>
<rect x="162.001" y="268.169" width="170.252" height="108.061" rx="4.57436" stroke="#E6EBF0" stroke-width="1.01652"/>
</g>
<rect x="156.318" y="27.9562" width="181.619" height="326.088" rx="8.25539" stroke="#505E70" stroke-width="4.12769"/>
<g clip-path="url(#clip4_5903_3222)">
<rect x="372" y="25.8923" width="185.746" height="330.215" rx="10.3192" fill="white"/>
<rect x="379.739" y="34.2436" width="170.267" height="50.5642" rx="4.64365" fill="white"/>
<rect x="379.739" y="34.2436" width="170.267" height="50.5642" rx="4.64365" stroke="#E6EBF0" stroke-width="1.03192"/>
<rect x="388.511" y="43.0149" width="33.0215" height="33.0215" rx="4.12769" fill="#F3F6F9"/>
<rect x="429.788" y="45.0789" width="103.192" height="7.22346" rx="3.61173" fill="#9EAAB8"/>
<rect x="429.788" y="54.3662" width="73.7825" height="7.73943" rx="3.86971" fill="#9EAAB8"/>
<rect x="429.788" y="66.2332" width="89.7773" height="7.73943" rx="3.86971" fill="#E6EBF0"/>
<rect x="379.739" y="94.0951" width="170.267" height="50.5642" rx="4.64365" fill="white"/>
<rect x="379.739" y="94.0951" width="170.267" height="50.5642" rx="4.64365" stroke="#E6EBF0" stroke-width="1.03192"/>
<rect x="388.511" y="102.866" width="33.0215" height="33.0215" rx="4.12769" fill="#F3F6F9"/>
<rect x="429.788" y="104.93" width="103.192" height="7.22346" rx="3.61173" fill="#9EAAB8"/>
<rect x="429.788" y="114.218" width="73.7825" height="7.73943" rx="3.86971" fill="#9EAAB8"/>
<rect x="429.788" y="126.085" width="89.7773" height="7.73943" rx="3.86971" fill="#E6EBF0"/>
<rect x="379.739" y="153.947" width="170.267" height="50.5642" rx="4.64365" fill="white"/>
<rect x="379.739" y="153.947" width="170.267" height="50.5642" rx="4.64365" stroke="#E6EBF0" stroke-width="1.03192"/>
<rect x="388.511" y="162.718" width="33.0215" height="33.0215" rx="4.12769" fill="#F3F6F9"/>
<rect x="429.788" y="164.782" width="103.192" height="7.22346" rx="3.61173" fill="#9EAAB8"/>
<rect x="429.788" y="174.069" width="73.7825" height="7.73943" rx="3.86971" fill="#9EAAB8"/>
<rect x="429.788" y="185.937" width="89.7773" height="7.73943" rx="3.86971" fill="#E6EBF0"/>
<rect x="379.739" y="213.798" width="170.267" height="50.5642" rx="4.64365" fill="white"/>
<rect x="379.739" y="213.798" width="170.267" height="50.5642" rx="4.64365" stroke="#E6EBF0" stroke-width="1.03192"/>
<rect x="388.511" y="222.57" width="33.0215" height="33.0215" rx="4.12769" fill="#F3F6F9"/>
<rect x="429.788" y="224.634" width="103.192" height="7.22346" rx="3.61173" fill="#9EAAB8"/>
<rect x="429.788" y="233.921" width="73.7825" height="7.73943" rx="3.86971" fill="#9EAAB8"/>
<rect x="429.788" y="245.788" width="89.7773" height="7.73943" rx="3.86971" fill="#E6EBF0"/>
<rect x="379.739" y="273.65" width="170.267" height="50.5642" rx="4.64365" fill="white"/>
<rect x="379.739" y="273.65" width="170.267" height="50.5642" rx="4.64365" stroke="#E6EBF0" stroke-width="1.03192"/>
<rect x="388.511" y="282.421" width="33.0215" height="33.0215" rx="4.12769" fill="#F3F6F9"/>
<rect x="429.788" y="284.485" width="103.192" height="7.22346" rx="3.61173" fill="#9EAAB8"/>
<rect x="429.788" y="293.772" width="73.7825" height="7.73943" rx="3.86971" fill="#9EAAB8"/>
<rect x="429.788" y="305.639" width="89.7773" height="7.73943" rx="3.86971" fill="#E6EBF0"/>
<rect x="379.739" y="333.501" width="170.267" height="50.5642" rx="4.64365" fill="white"/>
<rect x="379.739" y="333.501" width="170.267" height="50.5642" rx="4.64365" stroke="#E6EBF0" stroke-width="1.03192"/>
<rect x="388.511" y="342.273" width="33.0215" height="33.0215" rx="4.12769" fill="#F3F6F9"/>
<rect x="429.788" y="344.337" width="103.192" height="7.22346" rx="3.61173" fill="#9EAAB8"/>
<rect x="429.788" y="353.624" width="73.7825" height="7.73943" rx="3.86971" fill="#9EAAB8"/>
</g>
<rect x="374.064" y="27.9562" width="181.619" height="326.088" rx="8.25539" stroke="#505E70" stroke-width="4.12769"/>
<defs>
<clipPath id="clip0_5903_3222">
<rect x="154.254" y="25.8923" width="185.746" height="330.215" rx="10.3192" fill="white"/>
</clipPath>
<clipPath id="clip1_5903_3222">
<rect x="162.509" y="33.9509" width="169.235" height="107.044" rx="4.0661" fill="white"/>
</clipPath>
<clipPath id="clip2_5903_3222">
<rect x="162.509" y="151.314" width="169.235" height="107.044" rx="4.0661" fill="white"/>
</clipPath>
<clipPath id="clip3_5903_3222">
<rect x="162.509" y="268.677" width="169.235" height="107.044" rx="4.0661" fill="white"/>
</clipPath>
<clipPath id="clip4_5903_3222">
<rect x="372" y="25.8923" width="185.746" height="330.215" rx="10.3192" fill="white"/>
</clipPath>
</defs>
</svg>
