<svg width="292" height="97" viewBox="0 0 292 97" fill="none" xmlns="http://www.w3.org/2000/svg">
<rect x="1.49524" y="1.40589" width="289.01" height="94.1122" rx="7.60551" fill="white"/>
<rect x="1.49524" y="1.40589" width="289.01" height="94.1122" rx="7.60551" stroke="#E6EBF0" stroke-width="1.69011"/>
<rect x="15.8612" y="15.7719" width="54.0836" height="54.0836" rx="6.76046" fill="#F3F6F9"/>
<path d="M42.903 31.5463C36.6834 31.5463 31.6356 36.5941 31.6356 42.8137C31.6356 49.0333 36.6834 54.0811 42.903 54.0811C49.1227 54.0811 54.1705 49.0333 54.1705 42.8137C54.1705 36.5941 49.1227 31.5463 42.903 31.5463ZM42.903 48.4474C42.2833 48.4474 41.7763 47.9404 41.7763 47.3207V42.8137C41.7763 42.194 42.2833 41.6869 42.903 41.6869C43.5227 41.6869 44.0298 42.194 44.0298 42.8137V47.3207C44.0298 47.9404 43.5227 48.4474 42.903 48.4474ZM44.0298 39.4335H41.7763V37.18H44.0298V39.4335Z" fill="#38485C"/>
<path d="M88.4592 30.9003C88.1274 30.9003 87.8705 30.8093 87.6885 30.6274C87.5173 30.4347 87.4316 30.1724 87.4316 29.8406V21.1703H84.3007C84.0224 21.1703 83.803 21.0954 83.6424 20.9455C83.4925 20.785 83.4176 20.5709 83.4176 20.3033C83.4176 20.025 83.4925 19.8163 83.6424 19.6771C83.803 19.5272 84.0224 19.4523 84.3007 19.4523H92.6178C92.8961 19.4523 93.1101 19.5272 93.26 19.6771C93.4206 19.8163 93.5008 20.025 93.5008 20.3033C93.5008 20.5709 93.4206 20.785 93.26 20.9455C93.1101 21.0954 92.8961 21.1703 92.6178 21.1703H89.4868V29.8406C89.4868 30.1724 89.4012 30.4347 89.2299 30.6274C89.0587 30.8093 88.8018 30.9003 88.4592 30.9003ZM96.3553 30.8843C96.0342 30.8843 95.788 30.7879 95.6167 30.5952C95.4455 30.4026 95.3598 30.135 95.3598 29.7924V23.8999C95.3598 23.5466 95.4455 23.279 95.6167 23.097C95.788 22.9044 96.0342 22.808 96.3553 22.808C96.6764 22.808 96.9226 22.9044 97.0939 23.097C97.2759 23.279 97.3668 23.5466 97.3668 23.8999V29.7924C97.3668 30.135 97.2812 30.4026 97.1099 30.5952C96.9387 30.7879 96.6871 30.8843 96.3553 30.8843ZM97.1099 21.7805C97.0029 21.9303 96.8745 22.0159 96.7246 22.0373C96.5747 22.0588 96.4302 22.032 96.2911 21.9571C96.1519 21.8821 96.0502 21.7751 95.986 21.6359C95.9325 21.4968 95.9486 21.3416 96.0342 21.1703L97.2544 18.778C97.3508 18.5746 97.4792 18.4461 97.6398 18.3926C97.8004 18.3284 97.9663 18.3177 98.1375 18.3605C98.3088 18.4033 98.4533 18.4836 98.571 18.6013C98.6995 18.7191 98.7744 18.8636 98.7958 19.0349C98.8279 19.1954 98.7851 19.3613 98.6674 19.5326L97.1099 21.7805ZM103.049 30.9324C102.353 30.9324 101.77 30.8147 101.299 30.5792C100.838 30.3437 100.496 30.0012 100.271 29.5516C100.046 29.0913 99.9339 28.524 99.9339 27.8497V24.4297H99.099C98.8421 24.4297 98.6441 24.3655 98.5049 24.237C98.3658 24.0979 98.2962 23.9106 98.2962 23.6751C98.2962 23.4289 98.3658 23.2416 98.5049 23.1131C98.6441 22.9847 98.8421 22.9204 99.099 22.9204H99.9339V21.4593C99.9339 21.1275 100.02 20.876 100.191 20.7047C100.373 20.5334 100.624 20.4478 100.945 20.4478C101.267 20.4478 101.513 20.5334 101.684 20.7047C101.855 20.876 101.941 21.1275 101.941 21.4593V22.9204H103.643C103.9 22.9204 104.098 22.9847 104.237 23.1131C104.376 23.2416 104.446 23.4289 104.446 23.6751C104.446 23.9106 104.376 24.0979 104.237 24.237C104.098 24.3655 103.9 24.4297 103.643 24.4297H101.941V27.7373C101.941 28.2511 102.053 28.6364 102.278 28.8933C102.503 29.1502 102.867 29.2786 103.37 29.2786C103.552 29.2786 103.712 29.2626 103.852 29.2305C103.991 29.1984 104.114 29.177 104.221 29.1662C104.349 29.1555 104.456 29.1984 104.542 29.2947C104.628 29.3803 104.67 29.5623 104.67 29.8406C104.67 30.0547 104.633 30.2474 104.558 30.4186C104.494 30.5792 104.371 30.6916 104.189 30.7558C104.05 30.7986 103.868 30.8361 103.643 30.8682C103.418 30.911 103.22 30.9324 103.049 30.9324ZM108.456 30.9324C107.803 30.9324 107.263 30.8147 106.835 30.5792C106.406 30.333 106.085 29.9691 105.871 29.4874C105.668 29.0057 105.566 28.4063 105.566 27.6891V23.8035C105.566 23.461 105.652 23.2094 105.823 23.0489C105.994 22.8776 106.241 22.792 106.562 22.792C106.883 22.792 107.129 22.8776 107.3 23.0489C107.482 23.2094 107.573 23.461 107.573 23.8035V27.7212C107.573 28.2778 107.686 28.6899 107.91 28.9575C108.135 29.2251 108.494 29.3589 108.986 29.3589C109.521 29.3589 109.96 29.177 110.303 28.813C110.645 28.4384 110.817 27.946 110.817 27.3359V23.8035C110.817 23.461 110.902 23.2094 111.073 23.0489C111.245 22.8776 111.491 22.792 111.812 22.792C112.133 22.792 112.379 22.8776 112.551 23.0489C112.733 23.2094 112.824 23.461 112.824 23.8035V29.8727C112.824 30.5578 112.497 30.9003 111.844 30.9003C111.534 30.9003 111.293 30.8147 111.122 30.6434C110.95 30.4614 110.865 30.2045 110.865 29.8727V28.6525L111.09 29.1341C110.865 29.7122 110.522 30.1564 110.062 30.4668C109.612 30.7772 109.077 30.9324 108.456 30.9324ZM117.594 30.9324C116.705 30.9324 116.036 30.6809 115.587 30.1778C115.137 29.664 114.913 28.9147 114.913 27.9299V20.3354C114.913 20.0036 114.998 19.752 115.169 19.5808C115.341 19.4095 115.587 19.3239 115.908 19.3239C116.229 19.3239 116.475 19.4095 116.647 19.5808C116.829 19.752 116.92 20.0036 116.92 20.3354V27.8336C116.92 28.326 117.021 28.6899 117.225 28.9254C117.439 29.1609 117.738 29.2786 118.124 29.2786C118.209 29.2786 118.29 29.2786 118.365 29.2786C118.439 29.2679 118.514 29.2572 118.589 29.2465C118.739 29.2251 118.841 29.2679 118.894 29.375C118.948 29.4713 118.975 29.6747 118.975 29.9851C118.975 30.2527 118.921 30.4614 118.814 30.6113C118.707 30.7612 118.53 30.8521 118.284 30.8843C118.177 30.895 118.065 30.9057 117.947 30.9164C117.829 30.9271 117.712 30.9324 117.594 30.9324ZM123.542 30.9324C122.728 30.9324 122.022 30.7665 121.422 30.4347C120.823 30.1029 120.357 29.6319 120.026 29.0217C119.694 28.4009 119.528 27.673 119.528 26.8381C119.528 26.2066 119.619 25.6446 119.801 25.1522C119.993 24.6491 120.266 24.221 120.62 23.8677C120.973 23.5038 121.396 23.2309 121.888 23.0489C122.381 22.8562 122.932 22.7599 123.542 22.7599C124.355 22.7599 125.062 22.9258 125.661 23.2576C126.261 23.5894 126.726 24.0604 127.058 24.6705C127.39 25.2807 127.556 26.0032 127.556 26.8381C127.556 27.4697 127.46 28.037 127.267 28.5401C127.085 29.0432 126.817 29.4767 126.464 29.8406C126.111 30.1938 125.688 30.4668 125.196 30.6595C124.703 30.8414 124.152 30.9324 123.542 30.9324ZM123.542 29.4071C123.938 29.4071 124.286 29.3108 124.586 29.1181C124.885 28.9254 125.115 28.6418 125.276 28.2671C125.447 27.8818 125.533 27.4054 125.533 26.8381C125.533 25.9818 125.351 25.3449 124.987 24.9274C124.623 24.4993 124.141 24.2852 123.542 24.2852C123.146 24.2852 122.798 24.3815 122.498 24.5742C122.199 24.7562 121.963 25.0398 121.792 25.4252C121.631 25.7998 121.551 26.2708 121.551 26.8381C121.551 27.6837 121.733 28.326 122.097 28.7648C122.461 29.193 122.942 29.4071 123.542 29.4071ZM136.59 30.9324C135.905 30.9324 135.3 30.7665 134.776 30.4347C134.262 30.1029 133.86 29.6319 133.571 29.0217C133.282 28.4009 133.138 27.673 133.138 26.8381C133.138 25.9925 133.282 25.27 133.571 24.6705C133.86 24.0604 134.262 23.5894 134.776 23.2576C135.3 22.9258 135.905 22.7599 136.59 22.7599C137.243 22.7599 137.81 22.9204 138.292 23.2416C138.784 23.5627 139.116 23.9855 139.287 24.51H139.111V20.3354C139.111 20.0036 139.196 19.752 139.368 19.5808C139.539 19.4095 139.785 19.3239 140.106 19.3239C140.427 19.3239 140.674 19.4095 140.845 19.5808C141.027 19.752 141.118 20.0036 141.118 20.3354V29.8727C141.118 30.2045 141.032 30.4614 140.861 30.6434C140.69 30.8147 140.443 30.9003 140.122 30.9003C139.801 30.9003 139.555 30.8147 139.384 30.6434C139.212 30.4614 139.127 30.2045 139.127 29.8727V28.6203L139.303 29.102C139.143 29.6586 138.816 30.1029 138.324 30.4347C137.832 30.7665 137.254 30.9324 136.59 30.9324ZM137.152 29.4071C137.548 29.4071 137.896 29.3108 138.196 29.1181C138.495 28.9254 138.725 28.6418 138.886 28.2671C139.057 27.8818 139.143 27.4054 139.143 26.8381C139.143 25.9818 138.961 25.3449 138.597 24.9274C138.233 24.4993 137.751 24.2852 137.152 24.2852C136.756 24.2852 136.408 24.3815 136.108 24.5742C135.809 24.7562 135.573 25.0398 135.402 25.4252C135.241 25.7998 135.161 26.2708 135.161 26.8381C135.161 27.6837 135.343 28.326 135.707 28.7648C136.071 29.193 136.553 29.4071 137.152 29.4071ZM147.068 30.9324C146.18 30.9324 145.415 30.7665 144.772 30.4347C144.13 30.1029 143.632 29.6319 143.279 29.0217C142.937 28.4116 142.765 27.6891 142.765 26.8542C142.765 26.0407 142.931 25.3288 143.263 24.7187C143.606 24.1086 144.071 23.6323 144.66 23.2897C145.259 22.9365 145.939 22.7599 146.699 22.7599C147.256 22.7599 147.753 22.8509 148.192 23.0328C148.642 23.2148 149.022 23.477 149.332 23.8196C149.653 24.1621 149.894 24.5796 150.055 25.0719C150.226 25.5536 150.312 26.0995 150.312 26.7097C150.312 26.9023 150.242 27.0522 150.103 27.1592C149.974 27.2556 149.787 27.3037 149.541 27.3037H144.387V26.1477H148.899L148.642 26.3885C148.642 25.8962 148.567 25.4841 148.417 25.1522C148.278 24.8204 148.069 24.5689 147.791 24.3976C147.523 24.2156 147.186 24.1246 146.779 24.1246C146.33 24.1246 145.944 24.2317 145.623 24.4458C145.313 24.6491 145.072 24.9435 144.901 25.3288C144.74 25.7035 144.66 26.1531 144.66 26.6776V26.7899C144.66 27.6677 144.863 28.326 145.27 28.7648C145.687 29.193 146.298 29.4071 147.1 29.4071C147.379 29.4071 147.689 29.375 148.032 29.3108C148.385 29.2358 148.717 29.1127 149.027 28.9415C149.252 28.813 149.45 28.7595 149.621 28.7809C149.793 28.7916 149.926 28.8505 150.023 28.9575C150.13 29.0646 150.194 29.1984 150.215 29.3589C150.237 29.5088 150.205 29.664 150.119 29.8245C150.044 29.9851 149.91 30.1243 149.718 30.242C149.343 30.4775 148.909 30.6541 148.417 30.7719C147.935 30.8789 147.486 30.9324 147.068 30.9324ZM158.941 30.9324C158.053 30.9324 157.384 30.6809 156.934 30.1778C156.485 29.664 156.26 28.9147 156.26 27.9299V20.3354C156.26 20.0036 156.346 19.752 156.517 19.5808C156.688 19.4095 156.934 19.3239 157.256 19.3239C157.577 19.3239 157.823 19.4095 157.994 19.5808C158.176 19.752 158.267 20.0036 158.267 20.3354V27.8336C158.267 28.326 158.369 28.6899 158.572 28.9254C158.786 29.1609 159.086 29.2786 159.471 29.2786C159.557 29.2786 159.637 29.2786 159.712 29.2786C159.787 29.2679 159.862 29.2572 159.937 29.2465C160.087 29.2251 160.188 29.2679 160.242 29.375C160.295 29.4713 160.322 29.6747 160.322 29.9851C160.322 30.2527 160.269 30.4614 160.162 30.6113C160.055 30.7612 159.878 30.8521 159.632 30.8843C159.525 30.895 159.412 30.9057 159.295 30.9164C159.177 30.9271 159.059 30.9324 158.941 30.9324ZM163.972 30.9324C163.405 30.9324 162.897 30.8254 162.447 30.6113C162.008 30.3865 161.66 30.0868 161.403 29.7122C161.157 29.3375 161.034 28.9147 161.034 28.4437C161.034 27.8657 161.184 27.4108 161.484 27.079C161.783 26.7364 162.27 26.4902 162.945 26.3404C163.619 26.1905 164.524 26.1156 165.658 26.1156H166.461V27.2716H165.674C165.011 27.2716 164.481 27.3037 164.085 27.368C163.689 27.4322 163.405 27.5446 163.234 27.7051C163.073 27.855 162.993 28.0691 162.993 28.3474C162.993 28.7006 163.116 28.9896 163.362 29.2144C163.608 29.4392 163.951 29.5516 164.39 29.5516C164.743 29.5516 165.053 29.4713 165.321 29.3108C165.599 29.1395 165.819 28.9094 165.979 28.6203C166.14 28.3313 166.22 27.9995 166.22 27.6249V25.7784C166.22 25.2432 166.102 24.8579 165.867 24.6224C165.631 24.3869 165.235 24.2691 164.679 24.2691C164.368 24.2691 164.031 24.3066 163.667 24.3815C163.314 24.4565 162.939 24.5849 162.543 24.7669C162.34 24.8632 162.158 24.89 161.997 24.8472C161.848 24.8043 161.73 24.7187 161.644 24.5903C161.559 24.4511 161.516 24.3013 161.516 24.1407C161.516 23.9801 161.559 23.8249 161.644 23.6751C161.73 23.5145 161.874 23.3968 162.078 23.3218C162.57 23.1185 163.041 22.974 163.491 22.8883C163.951 22.8027 164.368 22.7599 164.743 22.7599C165.514 22.7599 166.145 22.8776 166.638 23.1131C167.141 23.3486 167.515 23.7072 167.762 24.1889C168.008 24.6598 168.131 25.27 168.131 26.0193V29.8727C168.131 30.2045 168.051 30.4614 167.89 30.6434C167.729 30.8147 167.499 30.9003 167.2 30.9003C166.9 30.9003 166.664 30.8147 166.493 30.6434C166.333 30.4614 166.252 30.2045 166.252 29.8727V29.102H166.381C166.306 29.4767 166.156 29.8031 165.931 30.0814C165.717 30.349 165.444 30.5578 165.112 30.7076C164.781 30.8575 164.401 30.9324 163.972 30.9324ZM178.124 30.9324C177.428 30.9324 176.844 30.8147 176.373 30.5792C175.913 30.3437 175.571 30.0012 175.346 29.5516C175.121 29.0913 175.009 28.524 175.009 27.8497V24.4297H174.174C173.917 24.4297 173.719 24.3655 173.58 24.237C173.441 24.0979 173.371 23.9106 173.371 23.6751C173.371 23.4289 173.441 23.2416 173.58 23.1131C173.719 22.9847 173.917 22.9204 174.174 22.9204H175.009V21.4593C175.009 21.1275 175.094 20.876 175.266 20.7047C175.448 20.5334 175.699 20.4478 176.02 20.4478C176.341 20.4478 176.588 20.5334 176.759 20.7047C176.93 20.876 177.016 21.1275 177.016 21.4593V22.9204H178.718C178.975 22.9204 179.173 22.9847 179.312 23.1131C179.451 23.2416 179.52 23.4289 179.52 23.6751C179.52 23.9106 179.451 24.0979 179.312 24.237C179.173 24.3655 178.975 24.4297 178.718 24.4297H177.016V27.7373C177.016 28.2511 177.128 28.6364 177.353 28.8933C177.578 29.1502 177.942 29.2786 178.445 29.2786C178.627 29.2786 178.787 29.2626 178.926 29.2305C179.066 29.1984 179.189 29.177 179.296 29.1662C179.424 29.1555 179.531 29.1984 179.617 29.2947C179.702 29.3803 179.745 29.5623 179.745 29.8406C179.745 30.0547 179.708 30.2474 179.633 30.4186C179.569 30.5792 179.445 30.6916 179.264 30.7558C179.124 30.7986 178.942 30.8361 178.718 30.8682C178.493 30.911 178.295 30.9324 178.124 30.9324ZM183.274 30.9324C182.707 30.9324 182.198 30.8254 181.749 30.6113C181.31 30.3865 180.962 30.0868 180.705 29.7122C180.459 29.3375 180.336 28.9147 180.336 28.4437C180.336 27.8657 180.486 27.4108 180.785 27.079C181.085 26.7364 181.572 26.4902 182.247 26.3404C182.921 26.1905 183.825 26.1156 184.96 26.1156H185.763V27.2716H184.976C184.312 27.2716 183.783 27.3037 183.387 27.368C182.991 27.4322 182.707 27.5446 182.536 27.7051C182.375 27.855 182.295 28.0691 182.295 28.3474C182.295 28.7006 182.418 28.9896 182.664 29.2144C182.91 29.4392 183.253 29.5516 183.692 29.5516C184.045 29.5516 184.355 29.4713 184.623 29.3108C184.901 29.1395 185.121 28.9094 185.281 28.6203C185.442 28.3313 185.522 27.9995 185.522 27.6249V25.7784C185.522 25.2432 185.404 24.8579 185.169 24.6224C184.933 24.3869 184.537 24.2691 183.981 24.2691C183.67 24.2691 183.333 24.3066 182.969 24.3815C182.616 24.4565 182.241 24.5849 181.845 24.7669C181.642 24.8632 181.46 24.89 181.299 24.8472C181.149 24.8043 181.032 24.7187 180.946 24.5903C180.86 24.4511 180.818 24.3013 180.818 24.1407C180.818 23.9801 180.86 23.8249 180.946 23.6751C181.032 23.5145 181.176 23.3968 181.38 23.3218C181.872 23.1185 182.343 22.974 182.792 22.8883C183.253 22.8027 183.67 22.7599 184.045 22.7599C184.816 22.7599 185.447 22.8776 185.939 23.1131C186.443 23.3486 186.817 23.7072 187.063 24.1889C187.31 24.6598 187.433 25.27 187.433 26.0193V29.8727C187.433 30.2045 187.352 30.4614 187.192 30.6434C187.031 30.8147 186.801 30.9003 186.501 30.9003C186.202 30.9003 185.966 30.8147 185.795 30.6434C185.634 30.4614 185.554 30.2045 185.554 29.8727V29.102H185.683C185.608 29.4767 185.458 29.8031 185.233 30.0814C185.019 30.349 184.746 30.5578 184.414 30.7076C184.082 30.8575 183.702 30.9324 183.274 30.9324ZM190.497 30.9003C190.166 30.9003 189.909 30.8147 189.727 30.6434C189.555 30.4614 189.47 30.2045 189.47 29.8727V23.8035C189.47 23.4717 189.555 23.2201 189.727 23.0489C189.898 22.8776 190.139 22.792 190.449 22.792C190.76 22.792 191 22.8776 191.172 23.0489C191.343 23.2201 191.429 23.4717 191.429 23.8035V24.8151H191.268C191.418 24.1728 191.712 23.6858 192.151 23.3539C192.59 23.0221 193.173 22.8241 193.901 22.7599C194.126 22.7385 194.303 22.7973 194.431 22.9365C194.57 23.0649 194.651 23.2683 194.672 23.5466C194.693 23.8142 194.629 24.0337 194.479 24.2049C194.34 24.3655 194.126 24.4618 193.837 24.4939L193.484 24.526C192.831 24.5903 192.338 24.7936 192.007 25.1362C191.675 25.468 191.509 25.939 191.509 26.5491V29.8727C191.509 30.2045 191.423 30.4614 191.252 30.6434C191.081 30.8147 190.829 30.9003 190.497 30.9003ZM194.794 33.8065C194.559 33.8279 194.366 33.7904 194.216 33.6941C194.066 33.6084 193.964 33.496 193.911 33.3569C193.847 33.2177 193.825 33.0732 193.847 32.9234C193.868 32.7735 193.932 32.6397 194.039 32.522C194.136 32.4149 194.27 32.3561 194.441 32.3454C194.922 32.3025 195.27 32.1634 195.484 31.9279C195.709 31.7031 195.822 31.3552 195.822 30.8843V23.8035C195.822 23.4717 195.907 23.2201 196.079 23.0489C196.26 22.8776 196.512 22.792 196.833 22.792C197.154 22.792 197.4 22.8776 197.572 23.0489C197.743 23.2201 197.829 23.4717 197.829 23.8035V30.7076C197.829 31.3927 197.716 31.9547 197.491 32.3935C197.277 32.8324 196.946 33.1642 196.496 33.389C196.057 33.6138 195.49 33.7529 194.794 33.8065ZM196.817 21.3148C196.442 21.3148 196.148 21.2238 195.934 21.0419C195.731 20.8492 195.629 20.5869 195.629 20.2551C195.629 19.9126 195.731 19.6503 195.934 19.4684C196.148 19.2864 196.442 19.1954 196.817 19.1954C197.202 19.1954 197.497 19.2864 197.7 19.4684C197.904 19.6503 198.005 19.9126 198.005 20.2551C198.005 20.5869 197.904 20.8492 197.7 21.0419C197.497 21.2238 197.202 21.3148 196.817 21.3148ZM203.782 30.9324C202.894 30.9324 202.128 30.7665 201.486 30.4347C200.844 30.1029 200.346 29.6319 199.993 29.0217C199.65 28.4116 199.479 27.6891 199.479 26.8542C199.479 26.0407 199.645 25.3288 199.977 24.7187C200.319 24.1086 200.785 23.6323 201.374 23.2897C201.973 22.9365 202.653 22.7599 203.413 22.7599C203.969 22.7599 204.467 22.8509 204.906 23.0328C205.356 23.2148 205.736 23.477 206.046 23.8196C206.367 24.1621 206.608 24.5796 206.768 25.0719C206.94 25.5536 207.025 26.0995 207.025 26.7097C207.025 26.9023 206.956 27.0522 206.817 27.1592C206.688 27.2556 206.501 27.3037 206.255 27.3037H201.101V26.1477H205.612L205.356 26.3885C205.356 25.8962 205.281 25.4841 205.131 25.1522C204.992 24.8204 204.783 24.5689 204.505 24.3976C204.237 24.2156 203.9 24.1246 203.493 24.1246C203.043 24.1246 202.658 24.2317 202.337 24.4458C202.027 24.6491 201.786 24.9435 201.614 25.3288C201.454 25.7035 201.374 26.1531 201.374 26.6776V26.7899C201.374 27.6677 201.577 28.326 201.984 28.7648C202.401 29.193 203.011 29.4071 203.814 29.4071C204.092 29.4071 204.403 29.375 204.745 29.3108C205.099 29.2358 205.43 29.1127 205.741 28.9415C205.966 28.813 206.164 28.7595 206.335 28.7809C206.506 28.7916 206.64 28.8505 206.736 28.9575C206.843 29.0646 206.908 29.1984 206.929 29.3589C206.95 29.5088 206.918 29.664 206.833 29.8245C206.758 29.9851 206.624 30.1243 206.431 30.242C206.057 30.4775 205.623 30.6541 205.131 30.7719C204.649 30.8789 204.2 30.9324 203.782 30.9324ZM212.18 30.9324C211.484 30.9324 210.901 30.8147 210.43 30.5792C209.97 30.3437 209.627 30.0012 209.402 29.5516C209.178 29.0913 209.065 28.524 209.065 27.8497V24.4297H208.23C207.973 24.4297 207.775 24.3655 207.636 24.237C207.497 24.0979 207.427 23.9106 207.427 23.6751C207.427 23.4289 207.497 23.2416 207.636 23.1131C207.775 22.9847 207.973 22.9204 208.23 22.9204H209.065V21.4593C209.065 21.1275 209.151 20.876 209.322 20.7047C209.504 20.5334 209.756 20.4478 210.077 20.4478C210.398 20.4478 210.644 20.5334 210.815 20.7047C210.987 20.876 211.072 21.1275 211.072 21.4593V22.9204H212.774C213.031 22.9204 213.229 22.9847 213.368 23.1131C213.507 23.2416 213.577 23.4289 213.577 23.6751C213.577 23.9106 213.507 24.0979 213.368 24.237C213.229 24.3655 213.031 24.4297 212.774 24.4297H211.072V27.7373C211.072 28.2511 211.185 28.6364 211.409 28.8933C211.634 29.1502 211.998 29.2786 212.501 29.2786C212.683 29.2786 212.844 29.2626 212.983 29.2305C213.122 29.1984 213.245 29.177 213.352 29.1662C213.481 29.1555 213.588 29.1984 213.673 29.2947C213.759 29.3803 213.802 29.5623 213.802 29.8406C213.802 30.0547 213.764 30.2474 213.689 30.4186C213.625 30.5792 213.502 30.6916 213.32 30.7558C213.181 30.7986 212.999 30.8361 212.774 30.8682C212.549 30.911 212.351 30.9324 212.18 30.9324ZM217.331 30.9324C216.763 30.9324 216.255 30.8254 215.805 30.6113C215.366 30.3865 215.019 30.0868 214.762 29.7122C214.515 29.3375 214.392 28.9147 214.392 28.4437C214.392 27.8657 214.542 27.4108 214.842 27.079C215.142 26.7364 215.629 26.4902 216.303 26.3404C216.977 26.1905 217.882 26.1156 219.017 26.1156H219.819V27.2716H219.033C218.369 27.2716 217.839 27.3037 217.443 27.368C217.047 27.4322 216.763 27.5446 216.592 27.7051C216.431 27.855 216.351 28.0691 216.351 28.3474C216.351 28.7006 216.474 28.9896 216.72 29.2144C216.967 29.4392 217.309 29.5516 217.748 29.5516C218.101 29.5516 218.412 29.4713 218.679 29.3108C218.958 29.1395 219.177 28.9094 219.338 28.6203C219.498 28.3313 219.578 27.9995 219.578 27.6249V25.7784C219.578 25.2432 219.461 24.8579 219.225 24.6224C218.99 24.3869 218.594 24.2691 218.037 24.2691C217.727 24.2691 217.389 24.3066 217.026 24.3815C216.672 24.4565 216.298 24.5849 215.902 24.7669C215.698 24.8632 215.516 24.89 215.356 24.8472C215.206 24.8043 215.088 24.7187 215.002 24.5903C214.917 24.4511 214.874 24.3013 214.874 24.1407C214.874 23.9801 214.917 23.8249 215.002 23.6751C215.088 23.5145 215.233 23.3968 215.436 23.3218C215.928 23.1185 216.399 22.974 216.849 22.8883C217.309 22.8027 217.727 22.7599 218.101 22.7599C218.872 22.7599 219.504 22.8776 219.996 23.1131C220.499 23.3486 220.874 23.7072 221.12 24.1889C221.366 24.6598 221.489 25.27 221.489 26.0193V29.8727C221.489 30.2045 221.409 30.4614 221.248 30.6434C221.088 30.8147 220.858 30.9003 220.558 30.9003C220.258 30.9003 220.023 30.8147 219.851 30.6434C219.691 30.4614 219.611 30.2045 219.611 29.8727V29.102H219.739C219.664 29.4767 219.514 29.8031 219.289 30.0814C219.075 30.349 218.802 30.5578 218.471 30.7076C218.139 30.8575 217.759 30.9324 217.331 30.9324ZM88.1381 51.9324C87.3139 51.9324 86.5967 51.7665 85.9866 51.4347C85.3765 51.0922 84.9055 50.6105 84.5737 49.9896C84.2418 49.3688 84.0759 48.6409 84.0759 47.806C84.0759 47.1745 84.1669 46.6125 84.3489 46.1201C84.5415 45.617 84.8145 45.1942 85.1677 44.8517C85.521 44.4985 85.9491 44.2309 86.4522 44.0489C86.9553 43.8562 87.5173 43.7599 88.1381 43.7599C88.4913 43.7599 88.8713 43.808 89.2781 43.9044C89.6955 44.0007 90.0862 44.1613 90.4502 44.3861C90.6214 44.4931 90.7338 44.6215 90.7874 44.7714C90.8409 44.9213 90.8516 45.0765 90.8195 45.237C90.7874 45.3869 90.7178 45.5207 90.6107 45.6384C90.5144 45.7455 90.3913 45.8151 90.2414 45.8472C90.0916 45.8686 89.9257 45.8311 89.7437 45.7348C89.5082 45.5956 89.2674 45.4939 89.0212 45.4297C88.775 45.3548 88.5395 45.3173 88.3147 45.3173C87.9615 45.3173 87.6511 45.3762 87.3835 45.4939C87.1159 45.601 86.8857 45.7615 86.6931 45.9756C86.5111 46.179 86.3719 46.4359 86.2756 46.7463C86.1793 47.0567 86.1311 47.4153 86.1311 47.8221C86.1311 48.6142 86.3184 49.2403 86.6931 49.7006C87.0784 50.1502 87.619 50.375 88.3147 50.375C88.5395 50.375 88.7696 50.3429 89.0051 50.2786C89.2513 50.2144 89.4975 50.1127 89.7437 49.9736C89.9257 49.8772 90.0862 49.8451 90.2254 49.8772C90.3753 49.9094 90.4983 49.9843 90.5947 50.102C90.691 50.2091 90.7499 50.3429 90.7713 50.5034C90.7927 50.6533 90.7713 50.8031 90.7071 50.953C90.6536 51.1029 90.5465 51.226 90.386 51.3223C90.0327 51.5364 89.6581 51.6916 89.262 51.7879C88.866 51.8843 88.4913 51.9324 88.1381 51.9324ZM95.5065 51.9324C94.693 51.9324 93.9865 51.7665 93.3871 51.4347C92.7876 51.1029 92.322 50.6319 91.9902 50.0217C91.6584 49.4009 91.4924 48.673 91.4924 47.8381C91.4924 47.2066 91.5834 46.6446 91.7654 46.1522C91.9581 45.6491 92.231 45.221 92.5843 44.8677C92.9375 44.5038 93.3603 44.2309 93.8527 44.0489C94.3451 43.8562 94.8963 43.7599 95.5065 43.7599C96.32 43.7599 97.0264 43.9258 97.6259 44.2576C98.2253 44.5894 98.6909 45.0604 99.0227 45.6705C99.3546 46.2807 99.5205 47.0032 99.5205 47.8381C99.5205 48.4697 99.4242 49.037 99.2315 49.5401C99.0495 50.0432 98.7819 50.4767 98.4287 50.8406C98.0754 51.1938 97.6526 51.4668 97.1602 51.6595C96.6679 51.8414 96.1166 51.9324 95.5065 51.9324ZM95.5065 50.4071C95.9025 50.4071 96.2504 50.3108 96.5501 50.1181C96.8498 49.9254 97.08 49.6418 97.2405 49.2671C97.4118 48.8818 97.4974 48.4054 97.4974 47.8381C97.4974 46.9818 97.3155 46.3449 96.9515 45.9274C96.5876 45.4993 96.1059 45.2852 95.5065 45.2852C95.1104 45.2852 94.7625 45.3815 94.4628 45.5742C94.1631 45.7562 93.9276 46.0398 93.7564 46.4252C93.5958 46.7998 93.5155 47.2708 93.5155 47.8381C93.5155 48.6837 93.6975 49.326 94.0614 49.7648C94.4254 50.193 94.907 50.4071 95.5065 50.4071ZM102.172 51.9003C101.851 51.9003 101.605 51.8147 101.434 51.6434C101.263 51.4614 101.177 51.2045 101.177 50.8727V44.8035C101.177 44.4717 101.263 44.2201 101.434 44.0489C101.605 43.8776 101.846 43.792 102.156 43.792C102.467 43.792 102.708 43.8776 102.879 44.0489C103.05 44.2201 103.136 44.4717 103.136 44.8035V45.8953L102.959 45.4939C103.195 44.9266 103.559 44.4985 104.051 44.2094C104.554 43.9097 105.121 43.7599 105.753 43.7599C106.385 43.7599 106.904 43.8776 107.31 44.1131C107.717 44.3486 108.022 44.7072 108.226 45.1889C108.429 45.6598 108.531 46.2593 108.531 46.9871V50.8727C108.531 51.2045 108.445 51.4614 108.274 51.6434C108.103 51.8147 107.856 51.9003 107.535 51.9003C107.214 51.9003 106.963 51.8147 106.781 51.6434C106.609 51.4614 106.524 51.2045 106.524 50.8727V47.0835C106.524 46.4734 106.406 46.0291 106.17 45.7508C105.946 45.4725 105.592 45.3334 105.111 45.3334C104.522 45.3334 104.051 45.5207 103.698 45.8953C103.355 46.2593 103.184 46.7463 103.184 47.3564V50.8727C103.184 51.5578 102.847 51.9003 102.172 51.9003ZM115.956 51.9003C115.635 51.9003 115.388 51.8147 115.217 51.6434C115.046 51.4614 114.96 51.2045 114.96 50.8727V44.8035C114.96 44.4717 115.046 44.2201 115.217 44.0489C115.388 43.8776 115.629 43.792 115.94 43.792C116.25 43.792 116.491 43.8776 116.662 44.0489C116.834 44.2201 116.919 44.4717 116.919 44.8035V45.9756L116.743 45.4939C116.957 44.9587 117.288 44.5359 117.738 44.2255C118.188 43.9151 118.723 43.7599 119.344 43.7599C119.975 43.7599 120.494 43.9097 120.901 44.2094C121.308 44.5092 121.591 44.9694 121.752 45.5903H121.527C121.741 45.023 122.095 44.5787 122.587 44.2576C123.079 43.9258 123.647 43.7599 124.289 43.7599C124.888 43.7599 125.381 43.8776 125.766 44.1131C126.162 44.3486 126.456 44.7072 126.649 45.1889C126.842 45.6598 126.938 46.2593 126.938 46.9871V50.8727C126.938 51.2045 126.847 51.4614 126.665 51.6434C126.494 51.8147 126.248 51.9003 125.927 51.9003C125.605 51.9003 125.359 51.8147 125.188 51.6434C125.017 51.4614 124.931 51.2045 124.931 50.8727V47.0674C124.931 46.468 124.829 46.0291 124.626 45.7508C124.433 45.4725 124.102 45.3334 123.631 45.3334C123.106 45.3334 122.694 45.5207 122.394 45.8953C122.095 46.2593 121.945 46.7677 121.945 47.4207V50.8727C121.945 51.2045 121.859 51.4614 121.688 51.6434C121.517 51.8147 121.27 51.9003 120.949 51.9003C120.628 51.9003 120.377 51.8147 120.195 51.6434C120.023 51.4614 119.938 51.2045 119.938 50.8727V47.0674C119.938 46.468 119.836 46.0291 119.633 45.7508C119.44 45.4725 119.113 45.3334 118.653 45.3334C118.129 45.3334 117.717 45.5207 117.417 45.8953C117.117 46.2593 116.967 46.7677 116.967 47.4207V50.8727C116.967 51.5578 116.63 51.9003 115.956 51.9003ZM131.594 51.9324C131.026 51.9324 130.518 51.8254 130.068 51.6113C129.629 51.3865 129.282 51.0868 129.025 50.7122C128.778 50.3375 128.655 49.9147 128.655 49.4437C128.655 48.8657 128.805 48.4108 129.105 48.079C129.405 47.7364 129.892 47.4902 130.566 47.3404C131.24 47.1905 132.145 47.1156 133.28 47.1156H134.082V48.2716H133.296C132.632 48.2716 132.102 48.3037 131.706 48.368C131.31 48.4322 131.026 48.5446 130.855 48.7051C130.695 48.855 130.614 49.0691 130.614 49.3474C130.614 49.7006 130.737 49.9896 130.984 50.2144C131.23 50.4392 131.572 50.5516 132.011 50.5516C132.364 50.5516 132.675 50.4713 132.942 50.3108C133.221 50.1395 133.44 49.9094 133.601 49.6203C133.761 49.3313 133.841 48.9995 133.841 48.6249V46.7784C133.841 46.2432 133.724 45.8579 133.488 45.6224C133.253 45.3869 132.857 45.2691 132.3 45.2691C131.99 45.2691 131.653 45.3066 131.289 45.3815C130.935 45.4565 130.561 45.5849 130.165 45.7669C129.961 45.8632 129.779 45.89 129.619 45.8472C129.469 45.8043 129.351 45.7187 129.266 45.5903C129.18 45.4511 129.137 45.3013 129.137 45.1407C129.137 44.9801 129.18 44.8249 129.266 44.6751C129.351 44.5145 129.496 44.3968 129.699 44.3218C130.191 44.1185 130.662 43.974 131.112 43.8883C131.572 43.8027 131.99 43.7599 132.364 43.7599C133.135 43.7599 133.767 43.8776 134.259 44.1131C134.762 44.3486 135.137 44.7072 135.383 45.1889C135.629 45.6598 135.752 46.27 135.752 47.0193V50.8727C135.752 51.2045 135.672 51.4614 135.511 51.6434C135.351 51.8147 135.121 51.9003 134.821 51.9003C134.521 51.9003 134.286 51.8147 134.114 51.6434C133.954 51.4614 133.874 51.2045 133.874 50.8727V50.102H134.002C133.927 50.4767 133.777 50.8031 133.552 51.0814C133.338 51.349 133.065 51.5578 132.734 51.7076C132.402 51.8575 132.022 51.9324 131.594 51.9324ZM133.199 42.7805C133.092 42.9303 132.964 43.0159 132.814 43.0373C132.664 43.0588 132.52 43.032 132.38 42.9571C132.241 42.8821 132.14 42.7751 132.075 42.6359C132.022 42.4968 132.038 42.3416 132.123 42.1703L133.344 39.778C133.44 39.5746 133.569 39.4461 133.729 39.3926C133.89 39.3284 134.056 39.3177 134.227 39.3605C134.398 39.4033 134.543 39.4836 134.66 39.6013C134.789 39.7191 134.864 39.8636 134.885 40.0349C134.917 40.1954 134.874 40.3613 134.757 40.5326L133.199 42.7805ZM140.663 51.9324C140.203 51.9324 139.716 51.8843 139.202 51.7879C138.688 51.6916 138.228 51.5257 137.821 51.2902C137.65 51.1831 137.527 51.06 137.452 50.9209C137.388 50.771 137.361 50.6265 137.372 50.4874C137.393 50.3375 137.447 50.2091 137.532 50.102C137.629 49.995 137.746 49.9254 137.886 49.8933C138.035 49.8612 138.196 49.8879 138.367 49.9736C138.795 50.177 139.197 50.3215 139.572 50.4071C139.946 50.482 140.315 50.5195 140.679 50.5195C141.193 50.5195 141.573 50.4339 141.819 50.2626C142.076 50.0806 142.205 49.8451 142.205 49.5561C142.205 49.3099 142.119 49.1226 141.948 48.9942C141.787 48.855 141.541 48.7533 141.209 48.6891L139.604 48.384C138.94 48.2556 138.432 48.0147 138.078 47.6615C137.736 47.2976 137.565 46.8319 137.565 46.2646C137.565 45.7508 137.704 45.3066 137.982 44.932C138.271 44.5573 138.667 44.2683 139.17 44.0649C139.673 43.8616 140.251 43.7599 140.904 43.7599C141.375 43.7599 141.814 43.8134 142.221 43.9204C142.638 44.0168 143.04 44.172 143.425 44.3861C143.586 44.4717 143.693 44.5841 143.746 44.7232C143.81 44.8624 143.826 45.0069 143.794 45.1568C143.762 45.2959 143.698 45.4244 143.602 45.5421C143.505 45.6491 143.382 45.7187 143.232 45.7508C143.093 45.7722 142.933 45.7401 142.751 45.6545C142.419 45.4832 142.098 45.3601 141.787 45.2852C141.488 45.2103 141.199 45.1728 140.92 45.1728C140.396 45.1728 140.005 45.2638 139.748 45.4458C139.502 45.6277 139.379 45.8686 139.379 46.1683C139.379 46.3931 139.454 46.5804 139.604 46.7302C139.753 46.8801 139.984 46.9818 140.294 47.0353L141.9 47.3404C142.595 47.4688 143.12 47.7043 143.473 48.0468C143.837 48.3894 144.019 48.8497 144.019 49.4277C144.019 50.2091 143.714 50.8245 143.104 51.2741C142.494 51.713 141.68 51.9324 140.663 51.9324ZM153.007 51.9324C152.322 51.9324 151.717 51.7665 151.192 51.4347C150.679 51.1029 150.277 50.6319 149.988 50.0217C149.699 49.4009 149.555 48.673 149.555 47.8381C149.555 46.9925 149.699 46.27 149.988 45.6705C150.277 45.0604 150.679 44.5894 151.192 44.2576C151.717 43.9258 152.322 43.7599 153.007 43.7599C153.66 43.7599 154.227 43.9204 154.709 44.2416C155.201 44.5627 155.533 44.9855 155.704 45.51H155.527V41.3354C155.527 41.0036 155.613 40.752 155.784 40.5808C155.956 40.4095 156.202 40.3239 156.523 40.3239C156.844 40.3239 157.09 40.4095 157.262 40.5808C157.444 40.752 157.535 41.0036 157.535 41.3354V50.8727C157.535 51.2045 157.449 51.4614 157.278 51.6434C157.106 51.8147 156.86 51.9003 156.539 51.9003C156.218 51.9003 155.972 51.8147 155.8 51.6434C155.629 51.4614 155.544 51.2045 155.544 50.8727V49.6203L155.72 50.102C155.56 50.6586 155.233 51.1029 154.741 51.4347C154.248 51.7665 153.67 51.9324 153.007 51.9324ZM153.569 50.4071C153.965 50.4071 154.313 50.3108 154.612 50.1181C154.912 49.9254 155.142 49.6418 155.303 49.2671C155.474 48.8818 155.56 48.4054 155.56 47.8381C155.56 46.9818 155.378 46.3449 155.014 45.9274C154.65 45.4993 154.168 45.2852 153.569 45.2852C153.173 45.2852 152.825 45.3815 152.525 45.5742C152.225 45.7562 151.99 46.0398 151.819 46.4252C151.658 46.7998 151.578 47.2708 151.578 47.8381C151.578 48.6837 151.76 49.326 152.124 49.7648C152.488 50.193 152.969 50.4071 153.569 50.4071ZM163.485 51.9324C162.597 51.9324 161.831 51.7665 161.189 51.4347C160.547 51.1029 160.049 50.6319 159.696 50.0217C159.353 49.4116 159.182 48.6891 159.182 47.8542C159.182 47.0407 159.348 46.3288 159.68 45.7187C160.022 45.1086 160.488 44.6323 161.077 44.2897C161.676 43.9365 162.356 43.7599 163.116 43.7599C163.672 43.7599 164.17 43.8509 164.609 44.0328C165.059 44.2148 165.439 44.477 165.749 44.8196C166.07 45.1621 166.311 45.5796 166.471 46.0719C166.643 46.5536 166.728 47.0995 166.728 47.7097C166.728 47.9023 166.659 48.0522 166.52 48.1592C166.391 48.2556 166.204 48.3037 165.958 48.3037H160.804V47.1477H165.315L165.059 47.3885C165.059 46.8962 164.984 46.4841 164.834 46.1522C164.695 45.8204 164.486 45.5689 164.208 45.3976C163.94 45.2156 163.603 45.1246 163.196 45.1246C162.746 45.1246 162.361 45.2317 162.04 45.4458C161.73 45.6491 161.489 45.9435 161.317 46.3288C161.157 46.7035 161.077 47.1531 161.077 47.6776V47.7899C161.077 48.6677 161.28 49.326 161.687 49.7648C162.104 50.193 162.714 50.4071 163.517 50.4071C163.795 50.4071 164.106 50.375 164.448 50.3108C164.802 50.2358 165.133 50.1127 165.444 49.9415C165.669 49.813 165.867 49.7595 166.038 49.7809C166.209 49.7916 166.343 49.8505 166.439 49.9575C166.546 50.0646 166.611 50.1984 166.632 50.3589C166.653 50.5088 166.621 50.664 166.536 50.8245C166.461 50.9851 166.327 51.1243 166.134 51.242C165.76 51.4775 165.326 51.6541 164.834 51.7719C164.352 51.8789 163.902 51.9324 163.485 51.9324ZM175.519 51.9324C174.866 51.9324 174.325 51.8147 173.897 51.5792C173.469 51.333 173.148 50.9691 172.934 50.4874C172.73 50.0057 172.629 49.4063 172.629 48.6891V44.8035C172.629 44.461 172.714 44.2094 172.885 44.0489C173.057 43.8776 173.303 43.792 173.624 43.792C173.945 43.792 174.191 43.8776 174.363 44.0489C174.545 44.2094 174.636 44.461 174.636 44.8035V48.7212C174.636 49.2778 174.748 49.6899 174.973 49.9575C175.198 50.2251 175.556 50.3589 176.049 50.3589C176.584 50.3589 177.023 50.177 177.365 49.813C177.708 49.4384 177.879 48.946 177.879 48.3359V44.8035C177.879 44.461 177.965 44.2094 178.136 44.0489C178.307 43.8776 178.553 43.792 178.874 43.792C179.196 43.792 179.442 43.8776 179.613 44.0489C179.795 44.2094 179.886 44.461 179.886 44.8035V50.8727C179.886 51.5578 179.559 51.9003 178.907 51.9003C178.596 51.9003 178.355 51.8147 178.184 51.6434C178.013 51.4614 177.927 51.2045 177.927 50.8727V49.6525L178.152 50.1341C177.927 50.7122 177.585 51.1564 177.124 51.4668C176.675 51.7772 176.14 51.9324 175.519 51.9324ZM182.97 51.9003C182.649 51.9003 182.403 51.8147 182.232 51.6434C182.061 51.4614 181.975 51.2045 181.975 50.8727V44.8035C181.975 44.4717 182.061 44.2201 182.232 44.0489C182.403 43.8776 182.644 43.792 182.954 43.792C183.265 43.792 183.506 43.8776 183.677 44.0489C183.848 44.2201 183.934 44.4717 183.934 44.8035V45.8953L183.757 45.4939C183.993 44.9266 184.357 44.4985 184.849 44.2094C185.352 43.9097 185.919 43.7599 186.551 43.7599C187.182 43.7599 187.702 43.8776 188.108 44.1131C188.515 44.3486 188.82 44.7072 189.023 45.1889C189.227 45.6598 189.329 46.2593 189.329 46.9871V50.8727C189.329 51.2045 189.243 51.4614 189.072 51.6434C188.9 51.8147 188.654 51.9003 188.333 51.9003C188.012 51.9003 187.76 51.8147 187.578 51.6434C187.407 51.4614 187.322 51.2045 187.322 50.8727V47.0835C187.322 46.4734 187.204 46.0291 186.968 45.7508C186.744 45.4725 186.39 45.3334 185.909 45.3334C185.32 45.3334 184.849 45.5207 184.496 45.8953C184.153 46.2593 183.982 46.7463 183.982 47.3564V50.8727C183.982 51.5578 183.645 51.9003 182.97 51.9003ZM193.952 51.9324C193.385 51.9324 192.876 51.8254 192.427 51.6113C191.988 51.3865 191.64 51.0868 191.383 50.7122C191.137 50.3375 191.014 49.9147 191.014 49.4437C191.014 48.8657 191.164 48.4108 191.463 48.079C191.763 47.7364 192.25 47.4902 192.924 47.3404C193.599 47.1905 194.503 47.1156 195.638 47.1156H196.441V48.2716H195.654C194.99 48.2716 194.461 48.3037 194.064 48.368C193.668 48.4322 193.385 48.5446 193.214 48.7051C193.053 48.855 192.973 49.0691 192.973 49.3474C192.973 49.7006 193.096 49.9896 193.342 50.2144C193.588 50.4392 193.931 50.5516 194.37 50.5516C194.723 50.5516 195.033 50.4713 195.301 50.3108C195.579 50.1395 195.799 49.9094 195.959 49.6203C196.12 49.3313 196.2 48.9995 196.2 48.6249V46.7784C196.2 46.2432 196.082 45.8579 195.847 45.6224C195.611 45.3869 195.215 45.2691 194.659 45.2691C194.348 45.2691 194.011 45.3066 193.647 45.3815C193.294 45.4565 192.919 45.5849 192.523 45.7669C192.32 45.8632 192.138 45.89 191.977 45.8472C191.827 45.8043 191.71 45.7187 191.624 45.5903C191.538 45.4511 191.496 45.3013 191.496 45.1407C191.496 44.9801 191.538 44.8249 191.624 44.6751C191.71 44.5145 191.854 44.3968 192.057 44.3218C192.55 44.1185 193.021 43.974 193.47 43.8883C193.931 43.8027 194.348 43.7599 194.723 43.7599C195.493 43.7599 196.125 43.8776 196.617 44.1131C197.12 44.3486 197.495 44.7072 197.741 45.1889C197.988 45.6598 198.111 46.27 198.111 47.0193V50.8727C198.111 51.2045 198.03 51.4614 197.87 51.6434C197.709 51.8147 197.479 51.9003 197.179 51.9003C196.88 51.9003 196.644 51.8147 196.473 51.6434C196.312 51.4614 196.232 51.2045 196.232 50.8727V50.102H196.36C196.286 50.4767 196.136 50.8031 195.911 51.0814C195.697 51.349 195.424 51.5578 195.092 51.7076C194.76 51.8575 194.38 51.9324 193.952 51.9324ZM207.188 51.9324C206.3 51.9324 205.631 51.6809 205.181 51.1778C204.731 50.664 204.507 49.9147 204.507 48.9299V41.3354C204.507 41.0036 204.592 40.752 204.764 40.5808C204.935 40.4095 205.181 40.3239 205.502 40.3239C205.823 40.3239 206.069 40.4095 206.241 40.5808C206.423 40.752 206.514 41.0036 206.514 41.3354V48.8336C206.514 49.326 206.615 49.6899 206.819 49.9254C207.033 50.1609 207.333 50.2786 207.718 50.2786C207.804 50.2786 207.884 50.2786 207.959 50.2786C208.034 50.2679 208.109 50.2572 208.184 50.2465C208.333 50.2251 208.435 50.2679 208.489 50.375C208.542 50.4713 208.569 50.6747 208.569 50.9851C208.569 51.2527 208.515 51.4614 208.408 51.6113C208.301 51.7612 208.125 51.8521 207.878 51.8843C207.771 51.895 207.659 51.9057 207.541 51.9164C207.424 51.9271 207.306 51.9324 207.188 51.9324ZM210.629 51.8843C210.308 51.8843 210.062 51.7879 209.891 51.5952C209.72 51.4026 209.634 51.135 209.634 50.7924V44.8999C209.634 44.5466 209.72 44.279 209.891 44.097C210.062 43.9044 210.308 43.808 210.629 43.808C210.951 43.808 211.197 43.9044 211.368 44.097C211.55 44.279 211.641 44.5466 211.641 44.8999V50.7924C211.641 51.135 211.555 51.4026 211.384 51.5952C211.213 51.7879 210.961 51.8843 210.629 51.8843ZM211.384 42.7805C211.277 42.9303 211.149 43.0159 210.999 43.0373C210.849 43.0588 210.704 43.032 210.565 42.9571C210.426 42.8821 210.324 42.7751 210.26 42.6359C210.207 42.4968 210.223 42.3416 210.308 42.1703L211.529 39.778C211.625 39.5746 211.753 39.4461 211.914 39.3926C212.075 39.3284 212.24 39.3177 212.412 39.3605C212.583 39.4033 212.727 39.4836 212.845 39.6013C212.974 39.7191 213.049 39.8636 213.07 40.0349C213.102 40.1954 213.059 40.3613 212.942 40.5326L211.384 42.7805ZM214.722 51.9003C214.401 51.9003 214.155 51.8147 213.983 51.6434C213.812 51.4614 213.726 51.2045 213.726 50.8727V44.8035C213.726 44.4717 213.812 44.2201 213.983 44.0489C214.155 43.8776 214.395 43.792 214.706 43.792C215.016 43.792 215.257 43.8776 215.428 44.0489C215.6 44.2201 215.685 44.4717 215.685 44.8035V45.8953L215.509 45.4939C215.744 44.9266 216.108 44.4985 216.6 44.2094C217.104 43.9097 217.671 43.7599 218.302 43.7599C218.934 43.7599 219.453 43.8776 219.86 44.1131C220.267 44.3486 220.572 44.7072 220.775 45.1889C220.978 45.6598 221.08 46.2593 221.08 46.9871V50.8727C221.08 51.2045 220.994 51.4614 220.823 51.6434C220.652 51.8147 220.406 51.9003 220.085 51.9003C219.763 51.9003 219.512 51.8147 219.33 51.6434C219.159 51.4614 219.073 51.2045 219.073 50.8727V47.0835C219.073 46.4734 218.955 46.0291 218.72 45.7508C218.495 45.4725 218.142 45.3334 217.66 45.3334C217.071 45.3334 216.6 45.5207 216.247 45.8953C215.905 46.2593 215.733 46.7463 215.733 47.3564V50.8727C215.733 51.5578 215.396 51.9003 214.722 51.9003ZM226.988 51.9324C226.1 51.9324 225.334 51.7665 224.692 51.4347C224.05 51.1029 223.552 50.6319 223.199 50.0217C222.856 49.4116 222.685 48.6891 222.685 47.8542C222.685 47.0407 222.851 46.3288 223.183 45.7187C223.525 45.1086 223.991 44.6323 224.58 44.2897C225.179 43.9365 225.859 43.7599 226.619 43.7599C227.175 43.7599 227.673 43.8509 228.112 44.0328C228.562 44.2148 228.942 44.477 229.252 44.8196C229.573 45.1621 229.814 45.5796 229.975 46.0719C230.146 46.5536 230.231 47.0995 230.231 47.7097C230.231 47.9023 230.162 48.0522 230.023 48.1592C229.894 48.2556 229.707 48.3037 229.461 48.3037H224.307V47.1477H228.818L228.562 47.3885C228.562 46.8962 228.487 46.4841 228.337 46.1522C228.198 45.8204 227.989 45.5689 227.711 45.3976C227.443 45.2156 227.106 45.1246 226.699 45.1246C226.25 45.1246 225.864 45.2317 225.543 45.4458C225.233 45.6491 224.992 45.9435 224.821 46.3288C224.66 46.7035 224.58 47.1531 224.58 47.6776V47.7899C224.58 48.6677 224.783 49.326 225.19 49.7648C225.607 50.193 226.217 50.4071 227.02 50.4071C227.299 50.4071 227.609 50.375 227.951 50.3108C228.305 50.2358 228.637 50.1127 228.947 49.9415C229.172 49.813 229.37 49.7595 229.541 49.7809C229.712 49.7916 229.846 49.8505 229.942 49.9575C230.049 50.0646 230.114 50.1984 230.135 50.3589C230.157 50.5088 230.124 50.664 230.039 50.8245C229.964 50.9851 229.83 51.1243 229.637 51.242C229.263 51.4775 228.829 51.6541 228.337 51.7719C227.855 51.8789 227.406 51.9324 226.988 51.9324ZM234.406 51.9324C233.839 51.9324 233.33 51.8254 232.881 51.6113C232.442 51.3865 232.094 51.0868 231.837 50.7122C231.591 50.3375 231.468 49.9147 231.468 49.4437C231.468 48.8657 231.617 48.4108 231.917 48.079C232.217 47.7364 232.704 47.4902 233.378 47.3404C234.053 47.1905 234.957 47.1156 236.092 47.1156H236.895V48.2716H236.108C235.444 48.2716 234.914 48.3037 234.518 48.368C234.122 48.4322 233.839 48.5446 233.667 48.7051C233.507 48.855 233.426 49.0691 233.426 49.3474C233.426 49.7006 233.55 49.9896 233.796 50.2144C234.042 50.4392 234.384 50.5516 234.823 50.5516C235.177 50.5516 235.487 50.4713 235.755 50.3108C236.033 50.1395 236.252 49.9094 236.413 49.6203C236.573 49.3313 236.654 48.9995 236.654 48.6249V46.7784C236.654 46.2432 236.536 45.8579 236.301 45.6224C236.065 45.3869 235.669 45.2691 235.112 45.2691C234.802 45.2691 234.465 45.3066 234.101 45.3815C233.748 45.4565 233.373 45.5849 232.977 45.7669C232.774 45.8632 232.592 45.89 232.431 45.8472C232.281 45.8043 232.163 45.7187 232.078 45.5903C231.992 45.4511 231.949 45.3013 231.949 45.1407C231.949 44.9801 231.992 44.8249 232.078 44.6751C232.163 44.5145 232.308 44.3968 232.511 44.3218C233.004 44.1185 233.475 43.974 233.924 43.8883C234.384 43.8027 234.802 43.7599 235.177 43.7599C235.947 43.7599 236.579 43.8776 237.071 44.1131C237.574 44.3486 237.949 44.7072 238.195 45.1889C238.441 45.6598 238.564 46.27 238.564 47.0193V50.8727C238.564 51.2045 238.484 51.4614 238.324 51.6434C238.163 51.8147 237.933 51.9003 237.633 51.9003C237.333 51.9003 237.098 51.8147 236.927 51.6434C236.766 51.4614 236.686 51.2045 236.686 50.8727V50.102H236.814C236.739 50.4767 236.59 50.8031 236.365 51.0814C236.151 51.349 235.878 51.5578 235.546 51.7076C235.214 51.8575 234.834 51.9324 234.406 51.9324Z" fill="#38485C"/>
<path d="M92.4511 70.2336C92.4511 71.3207 92.2531 72.2296 91.8569 72.9602C91.4608 73.6864 90.8864 74.2344 90.1338 74.6041C89.3856 74.9694 88.4767 75.1521 87.4072 75.1521H84.7862V65.4999H87.6977C88.6792 65.4999 89.5242 65.6804 90.2328 66.0413C90.9415 66.3978 91.4872 66.9282 91.8701 67.6324C92.2575 68.3322 92.4511 69.1993 92.4511 70.2336ZM91.2694 70.2732C91.2694 69.4061 91.1241 68.6909 90.8336 68.1275C90.5475 67.5642 90.125 67.146 89.566 66.8732C89.0115 66.5959 88.3315 66.4572 87.526 66.4572H85.9085V74.1882H87.2751C88.6043 74.1882 89.6012 73.8603 90.2659 73.2045C90.9349 72.5487 91.2694 71.5716 91.2694 70.2732ZM97.2178 67.7842C97.834 67.7842 98.3621 67.9207 98.8022 68.1936C99.2424 68.4665 99.5791 68.8494 99.8124 69.3423C100.046 69.8309 100.162 70.403 100.162 71.0588V71.7388H95.1645C95.1777 72.5883 95.389 73.2353 95.7983 73.6798C96.2077 74.1244 96.7842 74.3466 97.5281 74.3466C97.9858 74.3466 98.3907 74.3048 98.7428 74.2212C99.0949 74.1376 99.4602 74.0143 99.8388 73.8515V74.8154C99.4735 74.9782 99.1103 75.0971 98.7494 75.1719C98.3929 75.2467 97.9704 75.2841 97.4818 75.2841C96.7864 75.2841 96.179 75.1433 95.6597 74.8616C95.1447 74.5755 94.7442 74.1574 94.4581 73.6072C94.172 73.057 94.029 72.3836 94.029 71.587C94.029 70.808 94.1588 70.1346 94.4185 69.5668C94.6826 68.9946 95.0523 68.5545 95.5277 68.2464C96.0074 67.9383 96.5708 67.7842 97.2178 67.7842ZM97.2046 68.6821C96.6192 68.6821 96.1526 68.8736 95.8049 69.2565C95.4572 69.6394 95.2504 70.1742 95.1843 70.8608H99.0135C99.0091 70.4294 98.9409 70.0509 98.8088 69.7252C98.6812 69.3951 98.4854 69.1399 98.2213 68.9594C97.9572 68.7745 97.6183 68.6821 97.2046 68.6821ZM106.705 73.1715C106.705 73.6336 106.588 74.0231 106.355 74.34C106.126 74.6525 105.796 74.888 105.365 75.0465C104.938 75.2049 104.427 75.2841 103.833 75.2841C103.327 75.2841 102.889 75.2445 102.519 75.1653C102.149 75.0861 101.826 74.9738 101.549 74.8286V73.8185C101.844 73.9637 102.196 74.0958 102.605 74.2146C103.014 74.3334 103.432 74.3929 103.859 74.3929C104.484 74.3929 104.938 74.2916 105.219 74.0892C105.501 73.8867 105.642 73.6116 105.642 73.2639C105.642 73.0658 105.585 72.892 105.47 72.7424C105.36 72.5883 105.173 72.4409 104.909 72.3C104.645 72.1548 104.28 71.9963 103.813 71.8247C103.351 71.6486 102.951 71.4748 102.612 71.3031C102.277 71.1271 102.017 70.9136 101.833 70.6627C101.652 70.4118 101.562 70.0861 101.562 69.6856C101.562 69.0738 101.808 68.6051 102.301 68.2794C102.799 67.9493 103.45 67.7842 104.256 67.7842C104.691 67.7842 105.098 67.8283 105.477 67.9163C105.86 67.9999 106.216 68.1143 106.546 68.2596L106.177 69.1377C105.877 69.01 105.558 68.9022 105.219 68.8142C104.88 68.7261 104.535 68.6821 104.183 68.6821C103.677 68.6821 103.287 68.7657 103.014 68.933C102.746 69.1002 102.612 69.3291 102.612 69.6196C102.612 69.8441 102.673 70.0289 102.796 70.1742C102.924 70.3194 103.127 70.4559 103.404 70.5835C103.681 70.7111 104.046 70.8608 104.5 71.0324C104.953 71.1997 105.345 71.3735 105.675 71.554C106.005 71.73 106.258 71.9457 106.434 72.201C106.615 72.4519 106.705 72.7754 106.705 73.1715ZM111.366 75.2841C110.714 75.2841 110.14 75.1499 109.643 74.8814C109.145 74.6129 108.758 74.2036 108.481 73.6534C108.204 73.1033 108.065 72.4101 108.065 71.5738C108.065 70.6979 108.21 69.9827 108.501 69.4281C108.795 68.8692 109.2 68.4554 109.715 68.187C110.23 67.9185 110.816 67.7842 111.471 67.7842C111.832 67.7842 112.18 67.8217 112.515 67.8965C112.854 67.9669 113.131 68.0571 113.346 68.1672L113.016 69.0848C112.796 68.9968 112.541 68.9176 112.251 68.8472C111.964 68.7767 111.696 68.7415 111.445 68.7415C110.943 68.7415 110.525 68.8494 110.191 69.065C109.861 69.2807 109.612 69.5976 109.445 70.0157C109.282 70.4338 109.2 70.9488 109.2 71.5606C109.2 72.146 109.28 72.6455 109.438 73.0592C109.601 73.473 109.841 73.7899 110.158 74.0099C110.479 74.2256 110.88 74.3334 111.359 74.3334C111.742 74.3334 112.088 74.2938 112.396 74.2146C112.704 74.131 112.983 74.0341 113.234 73.9241V74.9012C112.992 75.0244 112.721 75.1191 112.422 75.1851C112.127 75.2511 111.775 75.2841 111.366 75.2841ZM118.239 67.7842C118.384 67.7842 118.536 67.793 118.694 67.8107C118.853 67.8239 118.993 67.8437 119.117 67.8701L118.978 68.8868C118.859 68.856 118.727 68.8318 118.582 68.8142C118.437 68.7966 118.3 68.7877 118.173 68.7877C117.882 68.7877 117.607 68.8472 117.347 68.966C117.092 69.0804 116.868 69.2477 116.674 69.4678C116.48 69.6834 116.328 69.9453 116.218 70.2534C116.108 70.5571 116.053 70.896 116.053 71.2701V75.1521H114.951V67.9163H115.862L115.981 69.2499H116.027C116.177 68.9814 116.357 68.7371 116.568 68.5171C116.78 68.2926 117.024 68.1143 117.301 67.9823C117.583 67.8503 117.895 67.7842 118.239 67.7842ZM121.579 67.9163V75.1521H120.483V67.9163H121.579ZM121.044 65.2095C121.225 65.2095 121.379 65.2689 121.507 65.3877C121.639 65.5021 121.705 65.6826 121.705 65.9291C121.705 66.1712 121.639 66.3516 121.507 66.4704C121.379 66.5893 121.225 66.6487 121.044 66.6487C120.855 66.6487 120.697 66.5893 120.569 66.4704C120.446 66.3516 120.384 66.1712 120.384 65.9291C120.384 65.6826 120.446 65.5021 120.569 65.3877C120.697 65.2689 120.855 65.2095 121.044 65.2095ZM127.303 67.7842C128.205 67.7842 128.925 68.0945 129.462 68.7151C129.999 69.3357 130.267 70.2688 130.267 71.5144C130.267 72.3374 130.144 73.0284 129.898 73.5874C129.651 74.1464 129.304 74.5689 128.855 74.855C128.41 75.1411 127.884 75.2841 127.277 75.2841C126.894 75.2841 126.557 75.2335 126.267 75.1323C125.976 75.031 125.727 74.8946 125.521 74.723C125.314 74.5513 125.142 74.3642 125.006 74.1618H124.926C124.94 74.3334 124.955 74.5403 124.973 74.7824C124.995 75.0244 125.006 75.2357 125.006 75.4162V78.3871H123.903V67.9163H124.808L124.953 68.9858H125.006C125.146 68.7657 125.318 68.5655 125.521 68.385C125.723 68.2002 125.97 68.0549 126.26 67.9493C126.555 67.8393 126.903 67.7842 127.303 67.7842ZM127.112 68.7085C126.61 68.7085 126.205 68.8054 125.897 68.999C125.593 69.1927 125.371 69.4832 125.23 69.8705C125.089 70.2534 125.014 70.7353 125.006 71.3163V71.5276C125.006 72.1394 125.072 72.6565 125.204 73.0791C125.34 73.5016 125.562 73.8229 125.87 74.0429C126.183 74.263 126.601 74.373 127.125 74.373C127.574 74.373 127.948 74.252 128.247 74.0099C128.546 73.7679 128.769 73.4312 128.914 72.9998C129.064 72.5641 129.138 72.0645 129.138 71.5012C129.138 70.6473 128.971 69.9695 128.637 69.4678C128.307 68.9616 127.798 68.7085 127.112 68.7085ZM135.08 75.2841C134.429 75.2841 133.855 75.1499 133.357 74.8814C132.86 74.6129 132.472 74.2036 132.195 73.6534C131.918 73.1033 131.779 72.4101 131.779 71.5738C131.779 70.6979 131.925 69.9827 132.215 69.4281C132.51 68.8692 132.915 68.4554 133.43 68.187C133.945 67.9185 134.53 67.7842 135.186 67.7842C135.547 67.7842 135.895 67.8217 136.229 67.8965C136.568 67.9669 136.845 68.0571 137.061 68.1672L136.731 69.0848C136.511 68.9968 136.255 68.9176 135.965 68.8472C135.679 68.7767 135.41 68.7415 135.16 68.7415C134.658 68.7415 134.24 68.8494 133.905 69.065C133.575 69.2807 133.326 69.5976 133.159 70.0157C132.996 70.4338 132.915 70.9488 132.915 71.5606C132.915 72.146 132.994 72.6455 133.152 73.0592C133.315 73.473 133.555 73.7899 133.872 74.0099C134.193 74.2256 134.594 74.3334 135.074 74.3334C135.457 74.3334 135.802 74.2938 136.11 74.2146C136.418 74.131 136.698 74.0341 136.949 73.9241V74.9012C136.707 75.0244 136.436 75.1191 136.137 75.1851C135.842 75.2511 135.49 75.2841 135.08 75.2841ZM139.761 67.9163V75.1521H138.665V67.9163H139.761ZM139.226 65.2095C139.407 65.2095 139.561 65.2689 139.688 65.3877C139.821 65.5021 139.887 65.6826 139.887 65.9291C139.887 66.1712 139.821 66.3516 139.688 66.4704C139.561 66.5893 139.407 66.6487 139.226 66.6487C139.037 66.6487 138.879 66.5893 138.751 66.4704C138.628 66.3516 138.566 66.1712 138.566 65.9291C138.566 65.6826 138.628 65.5021 138.751 65.3877C138.879 65.2689 139.037 65.2095 139.226 65.2095ZM148.324 71.521C148.324 72.1152 148.247 72.6455 148.093 73.1121C147.939 73.5786 147.717 73.9725 147.426 74.2938C147.136 74.6151 146.783 74.8616 146.37 75.0332C145.96 75.2005 145.496 75.2841 144.977 75.2841C144.493 75.2841 144.048 75.2005 143.643 75.0332C143.243 74.8616 142.895 74.6151 142.6 74.2938C142.309 73.9725 142.083 73.5786 141.92 73.1121C141.762 72.6455 141.682 72.1152 141.682 71.521C141.682 70.7287 141.817 70.0553 142.085 69.5008C142.353 68.9418 142.736 68.5171 143.234 68.2266C143.736 67.9317 144.332 67.7842 145.023 67.7842C145.683 67.7842 146.26 67.9317 146.753 68.2266C147.25 68.5215 147.635 68.9484 147.908 69.5074C148.185 70.0619 148.324 70.7331 148.324 71.521ZM142.818 71.521C142.818 72.102 142.895 72.6059 143.049 73.0328C143.203 73.4598 143.441 73.7899 143.762 74.0231C144.083 74.2564 144.497 74.373 145.003 74.373C145.505 74.373 145.916 74.2564 146.238 74.0231C146.563 73.7899 146.803 73.4598 146.957 73.0328C147.111 72.6059 147.188 72.102 147.188 71.521C147.188 70.9444 147.111 70.4471 146.957 70.0289C146.803 69.6064 146.566 69.2807 146.244 69.0518C145.923 68.823 145.507 68.7085 144.996 68.7085C144.244 68.7085 143.692 68.9572 143.339 69.4546C142.992 69.9519 142.818 70.6407 142.818 71.521ZM146.918 64.7935V64.9256C146.83 65.0532 146.709 65.2073 146.555 65.3877C146.405 65.5638 146.238 65.7508 146.053 65.9489C145.868 66.1425 145.681 66.3274 145.492 66.5035C145.307 66.6795 145.135 66.8314 144.977 66.959H144.244V66.8005C144.385 66.6333 144.539 66.433 144.706 66.1998C144.873 65.9621 145.036 65.72 145.195 65.4735C145.353 65.2227 145.485 64.996 145.591 64.7935H146.918ZM153.645 67.7842C154.503 67.7842 155.153 67.9955 155.593 68.418C156.033 68.8362 156.253 69.5096 156.253 70.4383V75.1521H155.17V70.5109C155.17 69.9079 155.032 69.4568 154.754 69.1575C154.481 68.8582 154.061 68.7085 153.493 68.7085C152.692 68.7085 152.129 68.9352 151.803 69.3885C151.477 69.8419 151.315 70.4999 151.315 71.3625V75.1521H150.219V67.9163H151.103L151.268 68.9594H151.328C151.482 68.7041 151.678 68.4907 151.915 68.319C152.153 68.143 152.419 68.0109 152.714 67.9229C153.009 67.8305 153.319 67.7842 153.645 67.7842ZM164.598 75.2841C163.682 75.2841 162.956 74.9716 162.419 74.3466C161.887 73.7216 161.62 72.793 161.62 71.5606C161.62 70.315 161.893 69.3753 162.439 68.7415C162.985 68.1033 163.711 67.7842 164.618 67.7842C165.001 67.7842 165.335 67.8349 165.621 67.9361C165.907 68.0373 166.154 68.1738 166.361 68.3454C166.567 68.5127 166.741 68.7041 166.882 68.9198H166.961C166.944 68.7833 166.926 68.5963 166.909 68.3586C166.891 68.1209 166.882 67.9273 166.882 67.7776V64.8794H167.978V75.1521H167.093L166.928 74.1222H166.882C166.746 74.3378 166.572 74.5337 166.361 74.7097C166.154 74.8858 165.905 75.0266 165.615 75.1323C165.328 75.2335 164.99 75.2841 164.598 75.2841ZM164.77 74.373C165.544 74.373 166.092 74.153 166.413 73.7128C166.735 73.2727 166.895 72.6191 166.895 71.7521V71.554C166.895 70.6341 166.741 69.9277 166.433 69.4347C166.13 68.9418 165.575 68.6953 164.77 68.6953C164.096 68.6953 163.592 68.955 163.258 69.4744C162.923 69.9893 162.756 70.6935 162.756 71.587C162.756 72.4761 162.921 73.1627 163.251 73.6468C163.586 74.131 164.092 74.373 164.77 74.373ZM173.088 67.7842C173.704 67.7842 174.232 67.9207 174.673 68.1936C175.113 68.4665 175.449 68.8494 175.683 69.3423C175.916 69.8309 176.033 70.403 176.033 71.0588V71.7388H171.035C171.048 72.5883 171.259 73.2353 171.669 73.6798C172.078 74.1244 172.655 74.3466 173.398 74.3466C173.856 74.3466 174.261 74.3048 174.613 74.2212C174.965 74.1376 175.331 74.0143 175.709 73.8515V74.8154C175.344 74.9782 174.981 75.0971 174.62 75.1719C174.263 75.2467 173.841 75.2841 173.352 75.2841C172.657 75.2841 172.049 75.1433 171.53 74.8616C171.015 74.5755 170.614 74.1574 170.328 73.6072C170.042 73.057 169.899 72.3836 169.899 71.587C169.899 70.808 170.029 70.1346 170.289 69.5668C170.553 68.9946 170.923 68.5545 171.398 68.2464C171.878 67.9383 172.441 67.7842 173.088 67.7842ZM173.075 68.6821C172.489 68.6821 172.023 68.8736 171.675 69.2565C171.328 69.6394 171.121 70.1742 171.055 70.8608H174.884C174.879 70.4294 174.811 70.0509 174.679 69.7252C174.551 69.3951 174.356 69.1399 174.092 68.9594C173.827 68.7745 173.489 68.6821 173.075 68.6821ZM182.509 75.1521H181.407V64.8794H182.509V75.1521ZM187.533 67.7974C188.396 67.7974 189.036 67.9911 189.454 68.3784C189.873 68.7657 190.082 69.3841 190.082 70.2336V75.1521H189.283L189.072 74.0826H189.019C188.816 74.3466 188.605 74.5689 188.385 74.7494C188.165 74.9254 187.91 75.0597 187.619 75.1521C187.333 75.2401 186.981 75.2841 186.563 75.2841C186.123 75.2841 185.731 75.2071 185.388 75.0531C185.049 74.899 184.78 74.6657 184.582 74.3532C184.388 74.0407 184.292 73.6446 184.292 73.1649C184.292 72.4431 184.578 71.8885 185.15 71.5012C185.722 71.1139 186.594 70.9026 187.764 70.8674L189.012 70.8146V70.3722C189.012 69.7472 188.878 69.3093 188.609 69.0584C188.341 68.8076 187.962 68.6821 187.474 68.6821C187.095 68.6821 186.734 68.7371 186.391 68.8472C186.048 68.9572 185.722 69.087 185.414 69.2367L185.077 68.4048C185.403 68.2376 185.777 68.0945 186.2 67.9757C186.622 67.8569 187.067 67.7974 187.533 67.7974ZM188.999 71.587L187.896 71.6332C186.994 71.6684 186.358 71.8159 185.988 72.0755C185.619 72.3352 185.434 72.7027 185.434 73.1781C185.434 73.5918 185.559 73.8977 185.81 74.0958C186.061 74.2938 186.393 74.3929 186.807 74.3929C187.45 74.3929 187.976 74.2146 188.385 73.8581C188.794 73.5016 188.999 72.9668 188.999 72.2538V71.587ZM198.189 74.3863C198.369 74.3863 198.554 74.3708 198.743 74.34C198.933 74.3092 199.087 74.2718 199.206 74.2278V75.0795C199.078 75.1367 198.9 75.1851 198.671 75.2247C198.446 75.2643 198.226 75.2841 198.011 75.2841C197.628 75.2841 197.28 75.2181 196.968 75.0861C196.655 74.9496 196.404 74.7208 196.215 74.3995C196.03 74.0782 195.938 73.6336 195.938 73.0658V68.7745H194.908V68.2398L195.944 67.8107L196.38 66.2394H197.04V67.9163H199.159V68.7745H197.04V73.0328C197.04 73.4862 197.144 73.8251 197.35 74.0495C197.562 74.274 197.841 74.3863 198.189 74.3863ZM203.378 67.7974C204.241 67.7974 204.881 67.9911 205.299 68.3784C205.717 68.7657 205.926 69.3841 205.926 70.2336V75.1521H205.128L204.916 74.0826H204.864C204.661 74.3466 204.45 74.5689 204.23 74.7494C204.01 74.9254 203.754 75.0597 203.464 75.1521C203.178 75.2401 202.826 75.2841 202.408 75.2841C201.967 75.2841 201.576 75.2071 201.232 75.0531C200.893 74.899 200.625 74.6657 200.427 74.3532C200.233 74.0407 200.136 73.6446 200.136 73.1649C200.136 72.4431 200.423 71.8885 200.995 71.5012C201.567 71.1139 202.438 70.9026 203.609 70.8674L204.857 70.8146V70.3722C204.857 69.7472 204.723 69.3093 204.454 69.0584C204.186 68.8076 203.807 68.6821 203.319 68.6821C202.94 68.6821 202.579 68.7371 202.236 68.8472C201.893 68.9572 201.567 69.087 201.259 69.2367L200.922 68.4048C201.248 68.2376 201.622 68.0945 202.044 67.9757C202.467 67.8569 202.912 67.7974 203.378 67.7974ZM204.844 71.587L203.741 71.6332C202.839 71.6684 202.203 71.8159 201.833 72.0755C201.463 72.3352 201.279 72.7027 201.279 73.1781C201.279 73.5918 201.404 73.8977 201.655 74.0958C201.906 74.2938 202.238 74.3929 202.652 74.3929C203.294 74.3929 203.82 74.2146 204.23 73.8581C204.639 73.5016 204.844 72.9668 204.844 72.2538V71.587ZM211.472 67.7842C211.617 67.7842 211.769 67.793 211.928 67.8107C212.086 67.8239 212.227 67.8437 212.35 67.8701L212.212 68.8868C212.093 68.856 211.961 68.8318 211.815 68.8142C211.67 68.7966 211.534 68.7877 211.406 68.7877C211.116 68.7877 210.841 68.8472 210.581 68.966C210.326 69.0804 210.101 69.2477 209.907 69.4678C209.714 69.6834 209.562 69.9453 209.452 70.2534C209.342 70.5571 209.287 70.896 209.287 71.2701V75.1521H208.184V67.9163H209.095L209.214 69.2499H209.26C209.41 68.9814 209.591 68.7371 209.802 68.5171C210.013 68.2926 210.257 68.1143 210.535 67.9823C210.816 67.8503 211.129 67.7842 211.472 67.7842ZM212.845 78.4003C212.621 78.4003 212.425 78.3827 212.258 78.3475C212.09 78.3166 211.945 78.2792 211.822 78.2352V77.344C211.958 77.388 212.097 77.421 212.238 77.443C212.379 77.4694 212.537 77.4826 212.713 77.4826C213.013 77.4826 213.255 77.399 213.44 77.2317C213.624 77.0645 213.717 76.7608 213.717 76.3206V67.9163H214.813V76.2942C214.813 76.7344 214.742 77.1107 214.601 77.4232C214.461 77.7401 214.245 77.9821 213.954 78.1494C213.664 78.3166 213.294 78.4003 212.845 78.4003ZM213.618 65.9291C213.618 65.6826 213.679 65.5021 213.803 65.3877C213.93 65.2689 214.089 65.2095 214.278 65.2095C214.458 65.2095 214.612 65.2689 214.74 65.3877C214.872 65.5021 214.938 65.6826 214.938 65.9291C214.938 66.1712 214.872 66.3516 214.74 66.4704C214.612 66.5893 214.458 66.6487 214.278 66.6487C214.089 66.6487 213.93 66.5893 213.803 66.4704C213.679 66.3516 213.618 66.1712 213.618 65.9291ZM219.923 67.7842C220.539 67.7842 221.067 67.9207 221.507 68.1936C221.947 68.4665 222.284 68.8494 222.517 69.3423C222.751 69.8309 222.867 70.403 222.867 71.0588V71.7388H217.869C217.883 72.5883 218.094 73.2353 218.503 73.6798C218.913 74.1244 219.489 74.3466 220.233 74.3466C220.691 74.3466 221.096 74.3048 221.448 74.2212C221.8 74.1376 222.165 74.0143 222.544 73.8515V74.8154C222.178 74.9782 221.815 75.0971 221.454 75.1719C221.098 75.2467 220.675 75.2841 220.187 75.2841C219.491 75.2841 218.884 75.1433 218.365 74.8616C217.85 74.5755 217.449 74.1574 217.163 73.6072C216.877 73.057 216.734 72.3836 216.734 71.587C216.734 70.808 216.864 70.1346 217.123 69.5668C217.388 68.9946 217.757 68.5545 218.233 68.2464C218.712 67.9383 219.276 67.7842 219.923 67.7842ZM219.909 68.6821C219.324 68.6821 218.858 68.8736 218.51 69.2565C218.162 69.6394 217.955 70.1742 217.889 70.8608H221.718C221.714 70.4294 221.646 70.0509 221.514 69.7252C221.386 69.3951 221.19 69.1399 220.926 68.9594C220.662 68.7745 220.323 68.6821 219.909 68.6821ZM227.066 74.3863C227.247 74.3863 227.431 74.3708 227.621 74.34C227.81 74.3092 227.964 74.2718 228.083 74.2278V75.0795C227.955 75.1367 227.777 75.1851 227.548 75.2247C227.324 75.2643 227.103 75.2841 226.888 75.2841C226.505 75.2841 226.157 75.2181 225.845 75.0861C225.532 74.9496 225.281 74.7208 225.092 74.3995C224.907 74.0782 224.815 73.6336 224.815 73.0658V68.7745H223.785V68.2398L224.821 67.8107L225.257 66.2394H225.917V67.9163H228.037V68.7745H225.917V73.0328C225.917 73.4862 226.021 73.8251 226.228 74.0495C226.439 74.274 226.718 74.3863 227.066 74.3863ZM232.255 67.7974C233.118 67.7974 233.758 67.9911 234.176 68.3784C234.595 68.7657 234.804 69.3841 234.804 70.2336V75.1521H234.005L233.794 74.0826H233.741C233.538 74.3466 233.327 74.5689 233.107 74.7494C232.887 74.9254 232.632 75.0597 232.341 75.1521C232.055 75.2401 231.703 75.2841 231.285 75.2841C230.845 75.2841 230.453 75.2071 230.11 75.0531C229.771 74.899 229.502 74.6657 229.304 74.3532C229.11 74.0407 229.014 73.6446 229.014 73.1649C229.014 72.4431 229.3 71.8885 229.872 71.5012C230.444 71.1139 231.316 70.9026 232.486 70.8674L233.734 70.8146V70.3722C233.734 69.7472 233.6 69.3093 233.331 69.0584C233.063 68.8076 232.684 68.6821 232.196 68.6821C231.817 68.6821 231.456 68.7371 231.113 68.8472C230.77 68.9572 230.444 69.087 230.136 69.2367L229.799 68.4048C230.125 68.2376 230.499 68.0945 230.922 67.9757C231.344 67.8569 231.789 67.7974 232.255 67.7974ZM233.721 71.587L232.618 71.6332C231.716 71.6684 231.08 71.8159 230.71 72.0755C230.341 72.3352 230.156 72.7027 230.156 73.1781C230.156 73.5918 230.281 73.8977 230.532 74.0958C230.783 74.2938 231.115 74.3929 231.529 74.3929C232.172 74.3929 232.698 74.2146 233.107 73.8581C233.516 73.5016 233.721 72.9668 233.721 72.2538V71.587Z" fill="#38485C"/>
</svg>
