<svg width="303" height="172" viewBox="0 0 303 172" fill="none" xmlns="http://www.w3.org/2000/svg">
<g clip-path="url(#clip0_5895_687)">
<rect x="2" y="2.50623" width="298.684" height="166.987" rx="7.02786" fill="white"/>
<rect x="23.0836" y="23.5898" width="56.2228" height="56.2228" rx="7.02786" fill="#F3F6F9"/>
<path d="M51.195 39.988C44.7294 39.988 39.4819 45.2355 39.4819 51.7011C39.4819 58.1668 44.7294 63.4142 51.195 63.4142C57.6606 63.4142 62.9081 58.1668 62.9081 51.7011C62.9081 45.2355 57.6606 39.988 51.195 39.988ZM51.195 57.5577C50.5508 57.5577 50.0237 57.0306 50.0237 56.3864V51.7011C50.0237 51.0569 50.5508 50.5298 51.195 50.5298C51.8392 50.5298 52.3663 51.0569 52.3663 51.7011V56.3864C52.3663 57.0306 51.8392 57.5577 51.195 57.5577ZM52.3663 48.1872H50.0237V45.8446H52.3663V48.1872Z" fill="#38485C"/>
<rect width="298.684" height="89.6811" transform="translate(2 79.8126)" fill="white"/>
<path d="M28.2745 117.03C27.9296 117.03 27.6625 116.935 27.4733 116.746C27.2953 116.546 27.2063 116.273 27.2063 115.928V106.915H23.9515C23.6622 106.915 23.4341 106.837 23.2672 106.681C23.1114 106.514 23.0335 106.292 23.0335 106.014C23.0335 105.724 23.1114 105.507 23.2672 105.363C23.4341 105.207 23.6622 105.129 23.9515 105.129H32.5975C32.8868 105.129 33.1094 105.207 33.2652 105.363C33.4321 105.507 33.5155 105.724 33.5155 106.014C33.5155 106.292 33.4321 106.514 33.2652 106.681C33.1094 106.837 32.8868 106.915 32.5975 106.915H29.3428V115.928C29.3428 116.273 29.2537 116.546 29.0757 116.746C28.8977 116.935 28.6306 117.03 28.2745 117.03ZM36.4829 117.013C36.1491 117.013 35.8932 116.913 35.7151 116.713C35.5371 116.512 35.4481 116.234 35.4481 115.878V109.752C35.4481 109.385 35.5371 109.107 35.7151 108.918C35.8932 108.718 36.1491 108.617 36.4829 108.617C36.8167 108.617 37.0727 108.718 37.2507 108.918C37.4399 109.107 37.5345 109.385 37.5345 109.752V115.878C37.5345 116.234 37.4454 116.512 37.2674 116.713C37.0894 116.913 36.8279 117.013 36.4829 117.013ZM37.2674 107.549C37.1561 107.705 37.0226 107.794 36.8668 107.816C36.711 107.839 36.5608 107.811 36.4162 107.733C36.2715 107.655 36.1658 107.544 36.099 107.399C36.0434 107.254 36.0601 107.093 36.1491 106.915L37.4176 104.428C37.5178 104.217 37.6513 104.083 37.8182 104.027C37.9851 103.961 38.1576 103.949 38.3356 103.994C38.5137 104.038 38.6639 104.122 38.7863 104.244C38.9198 104.367 38.9977 104.517 39.02 104.695C39.0534 104.862 39.0088 105.034 38.8864 105.212L37.2674 107.549ZM43.4412 117.063C42.7179 117.063 42.1114 116.941 41.6218 116.696C41.1434 116.451 40.7873 116.095 40.5536 115.628C40.3199 115.149 40.2031 114.559 40.2031 113.858V110.303H39.3352C39.0681 110.303 38.8622 110.236 38.7176 110.103C38.5729 109.958 38.5006 109.764 38.5006 109.519C38.5006 109.263 38.5729 109.068 38.7176 108.935C38.8622 108.801 39.0681 108.734 39.3352 108.734H40.2031V107.215C40.2031 106.87 40.2921 106.609 40.4702 106.431C40.6593 106.253 40.9208 106.164 41.2546 106.164C41.5885 106.164 41.8444 106.253 42.0224 106.431C42.2005 106.609 42.2895 106.87 42.2895 107.215V108.734H44.0588C44.3258 108.734 44.5317 108.801 44.6763 108.935C44.821 109.068 44.8933 109.263 44.8933 109.519C44.8933 109.764 44.821 109.958 44.6763 110.103C44.5317 110.236 44.3258 110.303 44.0588 110.303H42.2895V113.742C42.2895 114.276 42.4063 114.676 42.64 114.943C42.8737 115.21 43.252 115.344 43.775 115.344C43.9642 115.344 44.1311 115.327 44.2757 115.294C44.4204 115.261 44.5484 115.238 44.6596 115.227C44.7932 115.216 44.9044 115.261 44.9935 115.361C45.0825 115.45 45.127 115.639 45.127 115.928C45.127 116.151 45.088 116.351 45.0101 116.529C44.9434 116.696 44.8154 116.813 44.6263 116.88C44.4816 116.924 44.2924 116.963 44.0588 116.996C43.8251 117.041 43.6192 117.063 43.4412 117.063ZM49.0626 117.063C48.3838 117.063 47.8219 116.941 47.3768 116.696C46.9317 116.44 46.5978 116.062 46.3753 115.561C46.1639 115.06 46.0582 114.437 46.0582 113.692V109.652C46.0582 109.296 46.1472 109.035 46.3252 108.868C46.5033 108.69 46.7592 108.601 47.093 108.601C47.4268 108.601 47.6828 108.69 47.8608 108.868C48.05 109.035 48.1446 109.296 48.1446 109.652V113.725C48.1446 114.304 48.2614 114.732 48.4951 115.01C48.7288 115.288 49.1015 115.427 49.6134 115.427C50.1698 115.427 50.626 115.238 50.9821 114.86C51.3381 114.47 51.5162 113.959 51.5162 113.324V109.652C51.5162 109.296 51.6052 109.035 51.7832 108.868C51.9613 108.69 52.2172 108.601 52.551 108.601C52.8849 108.601 53.1408 108.69 53.3188 108.868C53.508 109.035 53.6026 109.296 53.6026 109.652V115.962C53.6026 116.674 53.2632 117.03 52.5844 117.03C52.2617 117.03 52.0113 116.941 51.8333 116.763C51.6553 116.574 51.5663 116.306 51.5663 115.962V114.693L51.7999 115.194C51.5663 115.795 51.2102 116.256 50.7317 116.579C50.2643 116.902 49.708 117.063 49.0626 117.063ZM58.5615 117.063C57.638 117.063 56.9425 116.802 56.4751 116.279C56.0078 115.745 55.7741 114.966 55.7741 113.942V106.047C55.7741 105.702 55.8631 105.441 56.0412 105.263C56.2192 105.084 56.4751 104.995 56.809 104.995C57.1428 104.995 57.3987 105.084 57.5768 105.263C57.7659 105.441 57.8605 105.702 57.8605 106.047V113.842C57.8605 114.354 57.9662 114.732 58.1776 114.977C58.4002 115.222 58.7118 115.344 59.1123 115.344C59.2014 115.344 59.2848 115.344 59.3627 115.344C59.4406 115.333 59.5185 115.322 59.5964 115.311C59.7522 115.288 59.8579 115.333 59.9135 115.444C59.9692 115.544 59.997 115.756 59.997 116.078C59.997 116.357 59.9413 116.574 59.8301 116.729C59.7188 116.885 59.5352 116.98 59.2793 117.013C59.168 117.024 59.0511 117.035 58.9287 117.046C58.8063 117.058 58.6839 117.063 58.5615 117.063ZM64.7448 117.063C63.8991 117.063 63.1647 116.891 62.5416 116.546C61.9185 116.201 61.4344 115.711 61.0895 115.077C60.7445 114.432 60.572 113.675 60.572 112.807C60.572 112.15 60.6666 111.566 60.8558 111.054C61.0561 110.531 61.3398 110.086 61.707 109.719C62.0742 109.341 62.5138 109.057 63.0256 108.868C63.5375 108.667 64.1106 108.567 64.7448 108.567C65.5905 108.567 66.3249 108.74 66.9481 109.085C67.5712 109.43 68.0552 109.919 68.4002 110.554C68.7451 111.188 68.9176 111.939 68.9176 112.807C68.9176 113.463 68.8175 114.053 68.6172 114.576C68.428 115.099 68.1498 115.55 67.7826 115.928C67.4154 116.295 66.9759 116.579 66.464 116.779C65.9522 116.969 65.3791 117.063 64.7448 117.063ZM64.7448 115.477C65.1565 115.477 65.5182 115.377 65.8298 115.177C66.1413 114.977 66.3806 114.682 66.5475 114.292C66.7255 113.892 66.8145 113.397 66.8145 112.807C66.8145 111.917 66.6254 111.255 66.247 110.821C65.8687 110.376 65.368 110.153 64.7448 110.153C64.3331 110.153 63.9715 110.253 63.6599 110.453C63.3483 110.643 63.1035 110.937 62.9255 111.338C62.7586 111.728 62.6751 112.217 62.6751 112.807C62.6751 113.686 62.8643 114.354 63.2426 114.81C63.621 115.255 64.1217 115.477 64.7448 115.477ZM78.309 117.063C77.5969 117.063 76.9682 116.891 76.4229 116.546C75.8888 116.201 75.4715 115.711 75.1711 115.077C74.8706 114.432 74.7204 113.675 74.7204 112.807C74.7204 111.928 74.8706 111.177 75.1711 110.554C75.4715 109.919 75.8888 109.43 76.4229 109.085C76.9682 108.74 77.5969 108.567 78.309 108.567C78.9878 108.567 79.5775 108.734 80.0783 109.068C80.5901 109.402 80.9351 109.841 81.1131 110.387H80.9295V106.047C80.9295 105.702 81.0185 105.441 81.1966 105.263C81.3746 105.084 81.6305 104.995 81.9644 104.995C82.2982 104.995 82.5541 105.084 82.7322 105.263C82.9213 105.441 83.0159 105.702 83.0159 106.047V115.962C83.0159 116.306 82.9269 116.574 82.7489 116.763C82.5708 116.941 82.3149 117.03 81.9811 117.03C81.6472 117.03 81.3913 116.941 81.2133 116.763C81.0352 116.574 80.9462 116.306 80.9462 115.962V114.66L81.1298 115.16C80.9629 115.739 80.6235 116.201 80.1117 116.546C79.5998 116.891 78.9989 117.063 78.309 117.063ZM78.8932 115.477C79.3049 115.477 79.6666 115.377 79.9781 115.177C80.2897 114.977 80.5289 114.682 80.6958 114.292C80.8739 113.892 80.9629 113.397 80.9629 112.807C80.9629 111.917 80.7737 111.255 80.3954 110.821C80.0171 110.376 79.5163 110.153 78.8932 110.153C78.4815 110.153 78.1198 110.253 77.8083 110.453C77.4967 110.643 77.2519 110.937 77.0739 111.338C76.9069 111.728 76.8235 112.217 76.8235 112.807C76.8235 113.686 77.0127 114.354 77.391 114.81C77.7693 115.255 78.2701 115.477 78.8932 115.477ZM89.2018 117.063C88.2782 117.063 87.4826 116.891 86.815 116.546C86.1473 116.201 85.6299 115.711 85.2627 115.077C84.9066 114.443 84.7286 113.692 84.7286 112.824C84.7286 111.978 84.9011 111.238 85.246 110.604C85.6021 109.969 86.0861 109.474 86.6981 109.118C87.3213 108.751 88.0279 108.567 88.8179 108.567C89.3965 108.567 89.914 108.662 90.3702 108.851C90.8375 109.04 91.2326 109.313 91.5553 109.669C91.8891 110.025 92.1395 110.459 92.3064 110.971C92.4844 111.472 92.5734 112.039 92.5734 112.673C92.5734 112.874 92.5011 113.029 92.3564 113.141C92.2229 113.241 92.0282 113.291 91.7723 113.291H86.4144V112.089H91.1046L90.8375 112.34C90.8375 111.828 90.7597 111.399 90.6039 111.054C90.4592 110.709 90.2422 110.448 89.9529 110.27C89.6747 110.081 89.3242 109.986 88.9014 109.986C88.434 109.986 88.0334 110.097 87.6996 110.32C87.3769 110.531 87.1265 110.837 86.9485 111.238C86.7816 111.627 86.6981 112.095 86.6981 112.64V112.757C86.6981 113.669 86.9096 114.354 87.3324 114.81C87.7664 115.255 88.4006 115.477 89.2352 115.477C89.5245 115.477 89.8472 115.444 90.2033 115.377C90.5705 115.299 90.9154 115.171 91.2381 114.993C91.4718 114.86 91.6777 114.804 91.8557 114.827C92.0337 114.838 92.1728 114.899 92.273 115.01C92.3843 115.121 92.451 115.261 92.4733 115.427C92.4955 115.583 92.4622 115.745 92.3731 115.911C92.2952 116.078 92.1561 116.223 91.9559 116.345C91.5664 116.59 91.1157 116.774 90.6039 116.896C90.1031 117.008 89.6358 117.063 89.2018 117.063ZM101.545 117.063C100.621 117.063 99.9255 116.802 99.4581 116.279C98.9908 115.745 98.7571 114.966 98.7571 113.942V106.047C98.7571 105.702 98.8461 105.441 99.0242 105.263C99.2022 105.084 99.4581 104.995 99.792 104.995C100.126 104.995 100.382 105.084 100.56 105.263C100.749 105.441 100.844 105.702 100.844 106.047V113.842C100.844 114.354 100.949 114.732 101.161 114.977C101.383 115.222 101.695 115.344 102.095 115.344C102.184 115.344 102.268 115.344 102.346 115.344C102.424 115.333 102.501 115.322 102.579 115.311C102.735 115.288 102.841 115.333 102.897 115.444C102.952 115.544 102.98 115.756 102.98 116.078C102.98 116.357 102.924 116.574 102.813 116.729C102.702 116.885 102.518 116.98 102.262 117.013C102.151 117.024 102.034 117.035 101.912 117.046C101.789 117.058 101.667 117.063 101.545 117.063ZM106.774 117.063C106.185 117.063 105.656 116.952 105.189 116.729C104.733 116.496 104.371 116.184 104.104 115.795C103.848 115.405 103.72 114.966 103.72 114.476C103.72 113.875 103.876 113.402 104.187 113.057C104.499 112.701 105.005 112.445 105.706 112.289C106.407 112.134 107.348 112.056 108.527 112.056H109.362V113.258H108.544C107.854 113.258 107.303 113.291 106.891 113.358C106.48 113.424 106.185 113.541 106.007 113.708C105.84 113.864 105.756 114.087 105.756 114.376C105.756 114.743 105.884 115.044 106.14 115.277C106.396 115.511 106.752 115.628 107.208 115.628C107.576 115.628 107.898 115.544 108.177 115.377C108.466 115.199 108.694 114.96 108.861 114.66C109.028 114.359 109.111 114.014 109.111 113.625V111.705C109.111 111.149 108.989 110.748 108.744 110.504C108.499 110.259 108.088 110.136 107.509 110.136C107.186 110.136 106.836 110.175 106.457 110.253C106.09 110.331 105.701 110.465 105.289 110.654C105.078 110.754 104.888 110.782 104.721 110.737C104.566 110.693 104.443 110.604 104.354 110.47C104.265 110.325 104.221 110.17 104.221 110.003C104.221 109.836 104.265 109.675 104.354 109.519C104.443 109.352 104.593 109.229 104.805 109.152C105.317 108.94 105.806 108.79 106.274 108.701C106.752 108.612 107.186 108.567 107.576 108.567C108.377 108.567 109.033 108.69 109.545 108.935C110.068 109.179 110.458 109.552 110.714 110.053C110.97 110.542 111.097 111.177 111.097 111.956V115.962C111.097 116.306 111.014 116.574 110.847 116.763C110.68 116.941 110.441 117.03 110.129 117.03C109.818 117.03 109.573 116.941 109.395 116.763C109.228 116.574 109.145 116.306 109.145 115.962V115.16H109.278C109.2 115.55 109.044 115.889 108.811 116.179C108.588 116.457 108.304 116.674 107.96 116.829C107.615 116.985 107.22 117.063 106.774 117.063ZM121.485 117.063C120.762 117.063 120.156 116.941 119.666 116.696C119.188 116.451 118.831 116.095 118.598 115.628C118.364 115.149 118.247 114.559 118.247 113.858V110.303H117.379C117.112 110.303 116.906 110.236 116.762 110.103C116.617 109.958 116.545 109.764 116.545 109.519C116.545 109.263 116.617 109.068 116.762 108.935C116.906 108.801 117.112 108.734 117.379 108.734H118.247V107.215C118.247 106.87 118.336 106.609 118.514 106.431C118.704 106.253 118.965 106.164 119.299 106.164C119.633 106.164 119.889 106.253 120.067 106.431C120.245 106.609 120.334 106.87 120.334 107.215V108.734H122.103C122.37 108.734 122.576 108.801 122.721 108.935C122.865 109.068 122.938 109.263 122.938 109.519C122.938 109.764 122.865 109.958 122.721 110.103C122.576 110.236 122.37 110.303 122.103 110.303H120.334V113.742C120.334 114.276 120.451 114.676 120.684 114.943C120.918 115.21 121.296 115.344 121.819 115.344C122.008 115.344 122.175 115.327 122.32 115.294C122.465 115.261 122.593 115.238 122.704 115.227C122.837 115.216 122.949 115.261 123.038 115.361C123.127 115.45 123.171 115.639 123.171 115.928C123.171 116.151 123.132 116.351 123.054 116.529C122.988 116.696 122.86 116.813 122.67 116.88C122.526 116.924 122.337 116.963 122.103 116.996C121.869 117.041 121.663 117.063 121.485 117.063ZM126.84 117.063C126.25 117.063 125.721 116.952 125.254 116.729C124.798 116.496 124.436 116.184 124.169 115.795C123.913 115.405 123.785 114.966 123.785 114.476C123.785 113.875 123.941 113.402 124.253 113.057C124.564 112.701 125.07 112.445 125.771 112.289C126.473 112.134 127.413 112.056 128.592 112.056H129.427V113.258H128.609C127.919 113.258 127.368 113.291 126.957 113.358C126.545 113.424 126.25 113.541 126.072 113.708C125.905 113.864 125.822 114.087 125.822 114.376C125.822 114.743 125.95 115.044 126.205 115.277C126.461 115.511 126.817 115.628 127.274 115.628C127.641 115.628 127.964 115.544 128.242 115.377C128.531 115.199 128.759 114.96 128.926 114.66C129.093 114.359 129.176 114.014 129.176 113.625V111.705C129.176 111.149 129.054 110.748 128.809 110.504C128.564 110.259 128.153 110.136 127.574 110.136C127.251 110.136 126.901 110.175 126.523 110.253C126.155 110.331 125.766 110.465 125.354 110.654C125.143 110.754 124.954 110.782 124.787 110.737C124.631 110.693 124.509 110.604 124.42 110.47C124.33 110.325 124.286 110.17 124.286 110.003C124.286 109.836 124.33 109.675 124.42 109.519C124.509 109.352 124.659 109.229 124.87 109.152C125.382 108.94 125.872 108.79 126.339 108.701C126.817 108.612 127.251 108.567 127.641 108.567C128.442 108.567 129.099 108.69 129.61 108.935C130.133 109.179 130.523 109.552 130.779 110.053C131.035 110.542 131.163 111.177 131.163 111.956V115.962C131.163 116.306 131.079 116.574 130.912 116.763C130.745 116.941 130.506 117.03 130.195 117.03C129.883 117.03 129.638 116.941 129.46 116.763C129.293 116.574 129.21 116.306 129.21 115.962V115.16H129.343C129.266 115.55 129.11 115.889 128.876 116.179C128.653 116.457 128.37 116.674 128.025 116.829C127.68 116.985 127.285 117.063 126.84 117.063ZM134.349 117.03C134.004 117.03 133.737 116.941 133.547 116.763C133.369 116.574 133.28 116.306 133.28 115.962V109.652C133.28 109.307 133.369 109.046 133.547 108.868C133.726 108.69 133.976 108.601 134.299 108.601C134.621 108.601 134.872 108.69 135.05 108.868C135.228 109.046 135.317 109.307 135.317 109.652V110.704H135.15C135.306 110.036 135.612 109.53 136.068 109.185C136.524 108.84 137.131 108.634 137.887 108.567C138.121 108.545 138.304 108.606 138.438 108.751C138.583 108.884 138.666 109.096 138.688 109.385C138.711 109.663 138.644 109.892 138.488 110.07C138.343 110.236 138.121 110.337 137.82 110.37L137.453 110.403C136.774 110.47 136.263 110.682 135.918 111.038C135.573 111.383 135.4 111.872 135.4 112.506V115.962C135.4 116.306 135.311 116.574 135.133 116.763C134.955 116.941 134.694 117.03 134.349 117.03ZM138.815 120.051C138.57 120.073 138.37 120.034 138.214 119.934C138.059 119.845 137.953 119.728 137.897 119.584C137.83 119.439 137.808 119.289 137.83 119.133C137.853 118.977 137.919 118.838 138.031 118.716C138.131 118.604 138.27 118.543 138.448 118.532C138.949 118.487 139.31 118.343 139.533 118.098C139.767 117.864 139.883 117.503 139.883 117.013V109.652C139.883 109.307 139.972 109.046 140.151 108.868C140.34 108.69 140.601 108.601 140.935 108.601C141.269 108.601 141.525 108.69 141.703 108.868C141.881 109.046 141.97 109.307 141.97 109.652V116.829C141.97 117.542 141.853 118.126 141.619 118.582C141.397 119.038 141.052 119.383 140.584 119.617C140.128 119.851 139.539 119.995 138.815 120.051ZM140.918 107.065C140.529 107.065 140.223 106.971 140 106.781C139.789 106.581 139.683 106.308 139.683 105.964C139.683 105.607 139.789 105.335 140 105.146C140.223 104.956 140.529 104.862 140.918 104.862C141.319 104.862 141.625 104.956 141.836 105.146C142.048 105.335 142.153 105.607 142.153 105.964C142.153 106.308 142.048 106.581 141.836 106.781C141.625 106.971 141.319 107.065 140.918 107.065ZM148.159 117.063C147.235 117.063 146.44 116.891 145.772 116.546C145.104 116.201 144.587 115.711 144.22 115.077C143.864 114.443 143.686 113.692 143.686 112.824C143.686 111.978 143.858 111.238 144.203 110.604C144.559 109.969 145.043 109.474 145.655 109.118C146.278 108.751 146.985 108.567 147.775 108.567C148.353 108.567 148.871 108.662 149.327 108.851C149.794 109.04 150.19 109.313 150.512 109.669C150.846 110.025 151.096 110.459 151.263 110.971C151.441 111.472 151.53 112.039 151.53 112.673C151.53 112.874 151.458 113.029 151.313 113.141C151.18 113.241 150.985 113.291 150.729 113.291H145.371V112.089H150.062L149.794 112.34C149.794 111.828 149.717 111.399 149.561 111.054C149.416 110.709 149.199 110.448 148.91 110.27C148.632 110.081 148.281 109.986 147.858 109.986C147.391 109.986 146.99 110.097 146.657 110.32C146.334 110.531 146.083 110.837 145.905 111.238C145.739 111.627 145.655 112.095 145.655 112.64V112.757C145.655 113.669 145.867 114.354 146.289 114.81C146.723 115.255 147.358 115.477 148.192 115.477C148.481 115.477 148.804 115.444 149.16 115.377C149.527 115.299 149.872 115.171 150.195 114.993C150.429 114.86 150.635 114.804 150.813 114.827C150.991 114.838 151.13 114.899 151.23 115.01C151.341 115.121 151.408 115.261 151.43 115.427C151.452 115.583 151.419 115.745 151.33 115.911C151.252 116.078 151.113 116.223 150.913 116.345C150.523 116.59 150.073 116.774 149.561 116.896C149.06 117.008 148.593 117.063 148.159 117.063ZM156.889 117.063C156.166 117.063 155.559 116.941 155.07 116.696C154.591 116.451 154.235 116.095 154.001 115.628C153.768 115.149 153.651 114.559 153.651 113.858V110.303H152.783C152.516 110.303 152.31 110.236 152.165 110.103C152.021 109.958 151.948 109.764 151.948 109.519C151.948 109.263 152.021 109.068 152.165 108.935C152.31 108.801 152.516 108.734 152.783 108.734H153.651V107.215C153.651 106.87 153.74 106.609 153.918 106.431C154.107 106.253 154.369 106.164 154.702 106.164C155.036 106.164 155.292 106.253 155.47 106.431C155.648 106.609 155.737 106.87 155.737 107.215V108.734H157.506C157.774 108.734 157.979 108.801 158.124 108.935C158.269 109.068 158.341 109.263 158.341 109.519C158.341 109.764 158.269 109.958 158.124 110.103C157.979 110.236 157.774 110.303 157.506 110.303H155.737V113.742C155.737 114.276 155.854 114.676 156.088 114.943C156.321 115.21 156.7 115.344 157.223 115.344C157.412 115.344 157.579 115.327 157.723 115.294C157.868 115.261 157.996 115.238 158.107 115.227C158.241 115.216 158.352 115.261 158.441 115.361C158.53 115.45 158.575 115.639 158.575 115.928C158.575 116.151 158.536 116.351 158.458 116.529C158.391 116.696 158.263 116.813 158.074 116.88C157.929 116.924 157.74 116.963 157.506 116.996C157.273 117.041 157.067 117.063 156.889 117.063ZM162.243 117.063C161.653 117.063 161.125 116.952 160.658 116.729C160.201 116.496 159.84 116.184 159.573 115.795C159.317 115.405 159.189 114.966 159.189 114.476C159.189 113.875 159.345 113.402 159.656 113.057C159.968 112.701 160.474 112.445 161.175 112.289C161.876 112.134 162.816 112.056 163.996 112.056H164.83V113.258H164.013C163.323 113.258 162.772 113.291 162.36 113.358C161.948 113.424 161.653 113.541 161.475 113.708C161.309 113.864 161.225 114.087 161.225 114.376C161.225 114.743 161.353 115.044 161.609 115.277C161.865 115.511 162.221 115.628 162.677 115.628C163.044 115.628 163.367 115.544 163.645 115.377C163.935 115.199 164.163 114.96 164.33 114.66C164.497 114.359 164.58 114.014 164.58 113.625V111.705C164.58 111.149 164.458 110.748 164.213 110.504C163.968 110.259 163.556 110.136 162.978 110.136C162.655 110.136 162.304 110.175 161.926 110.253C161.559 110.331 161.169 110.465 160.758 110.654C160.546 110.754 160.357 110.782 160.19 110.737C160.034 110.693 159.912 110.604 159.823 110.47C159.734 110.325 159.689 110.17 159.689 110.003C159.689 109.836 159.734 109.675 159.823 109.519C159.912 109.352 160.062 109.229 160.274 109.152C160.786 108.94 161.275 108.79 161.743 108.701C162.221 108.612 162.655 108.567 163.044 108.567C163.846 108.567 164.502 108.69 165.014 108.935C165.537 109.179 165.926 109.552 166.182 110.053C166.438 110.542 166.566 111.177 166.566 111.956V115.962C166.566 116.306 166.483 116.574 166.316 116.763C166.149 116.941 165.91 117.03 165.598 117.03C165.287 117.03 165.042 116.941 164.864 116.763C164.697 116.574 164.613 116.306 164.613 115.962V115.16H164.747C164.669 115.55 164.513 115.889 164.28 116.179C164.057 116.457 163.773 116.674 163.428 116.829C163.083 116.985 162.688 117.063 162.243 117.063Z" fill="#38485C"/>
<path d="M32.4243 137.297C32.4243 138.427 32.2184 139.372 31.8066 140.132C31.3948 140.887 30.7977 141.456 30.0153 141.841C29.2375 142.22 28.2927 142.41 27.1809 142.41H24.4562V132.376H27.4828C28.5032 132.376 29.3816 132.564 30.1183 132.939C30.8549 133.31 31.4223 133.861 31.8204 134.593C32.223 135.321 32.4243 136.222 32.4243 137.297ZM31.1958 137.338C31.1958 136.437 31.0448 135.693 30.7428 135.108C30.4454 134.522 30.0062 134.087 29.4251 133.804C28.8486 133.516 28.1417 133.371 27.3044 133.371H25.6229V141.408H27.0436C28.4254 141.408 29.4617 141.067 30.1526 140.386C30.8481 139.704 31.1958 138.688 31.1958 137.338ZM37.3795 134.751C38.0201 134.751 38.5691 134.893 39.0266 135.176C39.4842 135.46 39.8342 135.858 40.0767 136.371C40.3192 136.878 40.4405 137.473 40.4405 138.155V138.862H35.2451C35.2588 139.745 35.4784 140.418 35.9039 140.88C36.3294 141.342 36.9288 141.573 37.7021 141.573C38.1779 141.573 38.5988 141.529 38.9649 141.442C39.3309 141.356 39.7107 141.227 40.1042 141.058V142.06C39.7244 142.229 39.3469 142.353 38.9717 142.431C38.6011 142.509 38.1619 142.547 37.654 142.547C36.9311 142.547 36.2997 142.401 35.7598 142.108C35.2245 141.811 34.8081 141.376 34.5107 140.804C34.2133 140.232 34.0646 139.532 34.0646 138.704C34.0646 137.894 34.1996 137.194 34.4695 136.604C34.744 136.009 35.1284 135.552 35.6225 135.231C36.1213 134.911 36.7069 134.751 37.3795 134.751ZM37.3658 135.684C36.7572 135.684 36.2722 135.883 35.9108 136.281C35.5493 136.679 35.3343 137.235 35.2656 137.949H39.2463C39.2417 137.501 39.1708 137.107 39.0335 136.769C38.9008 136.425 38.6972 136.16 38.4227 135.973C38.1482 135.78 37.7959 135.684 37.3658 135.684ZM47.2418 140.351C47.2418 140.832 47.1206 141.237 46.8781 141.566C46.6402 141.891 46.297 142.136 45.8486 142.3C45.4048 142.465 44.874 142.547 44.2564 142.547C43.7302 142.547 43.2749 142.506 42.8906 142.424C42.5063 142.342 42.17 142.225 41.8817 142.074V141.024C42.1883 141.175 42.5543 141.312 42.9798 141.436C43.4053 141.559 43.84 141.621 44.2838 141.621C44.9335 141.621 45.4048 141.516 45.6976 141.305C45.9904 141.095 46.1369 140.809 46.1369 140.447C46.1369 140.241 46.0774 140.061 45.9584 139.905C45.844 139.745 45.6496 139.592 45.3751 139.445C45.1005 139.294 44.7208 139.13 44.2358 138.951C43.7554 138.768 43.339 138.587 42.9867 138.409C42.6389 138.226 42.369 138.004 42.1768 137.743C41.9892 137.482 41.8954 137.144 41.8954 136.727C41.8954 136.091 42.1517 135.604 42.6641 135.266C43.1811 134.922 43.8583 134.751 44.6956 134.751C45.1486 134.751 45.5718 134.797 45.9653 134.888C46.3633 134.975 46.734 135.094 47.0771 135.245L46.6928 136.158C46.3816 136.025 46.0499 135.913 45.6976 135.822C45.3453 135.73 44.9861 135.684 44.6201 135.684C44.0939 135.684 43.689 135.771 43.4053 135.945C43.1262 136.119 42.9867 136.357 42.9867 136.659C42.9867 136.892 43.0507 137.084 43.1788 137.235C43.3115 137.386 43.522 137.528 43.8103 137.661C44.0985 137.794 44.4783 137.949 44.9495 138.128C45.4208 138.301 45.828 138.482 46.1712 138.67C46.5143 138.853 46.7774 139.077 46.9604 139.342C47.148 139.603 47.2418 139.939 47.2418 140.351ZM52.0872 142.547C51.41 142.547 50.8129 142.408 50.2959 142.129C49.7789 141.85 49.3763 141.424 49.088 140.852C48.7998 140.28 48.6556 139.56 48.6556 138.69C48.6556 137.78 48.8066 137.036 49.1086 136.46C49.4152 135.879 49.8361 135.449 50.3714 135.17C50.9067 134.89 51.5153 134.751 52.197 134.751C52.5722 134.751 52.9337 134.79 53.2814 134.868C53.6337 134.941 53.922 135.035 54.1461 135.149L53.803 136.103C53.5742 136.011 53.3088 135.929 53.0069 135.856C52.7095 135.783 52.4304 135.746 52.1696 135.746C51.648 135.746 51.2133 135.858 50.8656 136.082C50.5224 136.307 50.2639 136.636 50.09 137.071C49.9207 137.505 49.8361 138.041 49.8361 138.677C49.8361 139.285 49.9185 139.804 50.0832 140.235C50.2525 140.665 50.5018 140.994 50.8312 141.223C51.1653 141.447 51.5816 141.559 52.0803 141.559C52.4784 141.559 52.8376 141.518 53.1579 141.436C53.4781 141.349 53.7687 141.248 54.0295 141.134V142.149C53.7778 142.277 53.4964 142.376 53.1853 142.444C52.8788 142.513 52.5127 142.547 52.0872 142.547ZM59.2317 134.751C59.3827 134.751 59.5406 134.76 59.7053 134.778C59.87 134.792 60.0164 134.813 60.1445 134.84L60.0004 135.897C59.8769 135.865 59.7396 135.84 59.5886 135.822C59.4376 135.803 59.2958 135.794 59.1631 135.794C58.8611 135.794 58.5752 135.856 58.3052 135.979C58.0398 136.098 57.8065 136.272 57.6052 136.501C57.4038 136.725 57.246 136.997 57.1316 137.318C57.0172 137.633 56.96 137.986 56.96 138.375V142.41H55.8139V134.888H56.761L56.8845 136.275H56.9326C57.0881 135.995 57.2757 135.741 57.4954 135.513C57.715 135.279 57.9689 135.094 58.2572 134.957C58.55 134.82 58.8748 134.751 59.2317 134.751ZM62.7045 134.888V142.41H61.5652V134.888H62.7045ZM62.1486 132.074C62.3362 132.074 62.4963 132.136 62.629 132.26C62.7663 132.379 62.8349 132.566 62.8349 132.822C62.8349 133.074 62.7663 133.262 62.629 133.385C62.4963 133.509 62.3362 133.57 62.1486 133.57C61.9518 133.57 61.7871 133.509 61.6544 133.385C61.5263 133.262 61.4623 133.074 61.4623 132.822C61.4623 132.566 61.5263 132.379 61.6544 132.26C61.7871 132.136 61.9518 132.074 62.1486 132.074ZM68.6548 134.751C69.5928 134.751 70.3409 135.073 70.8991 135.719C71.4573 136.364 71.7364 137.334 71.7364 138.629C71.7364 139.484 71.6083 140.203 71.352 140.784C71.0958 141.365 70.7344 141.804 70.2677 142.101C69.8055 142.399 69.2588 142.547 68.6274 142.547C68.2293 142.547 67.8793 142.495 67.5773 142.39C67.2753 142.284 67.0168 142.142 66.8018 141.964C66.5867 141.786 66.4083 141.591 66.2665 141.381H66.1841C66.1978 141.559 66.2138 141.774 66.2321 142.026C66.255 142.277 66.2665 142.497 66.2665 142.685V145.773H65.1203V134.888H66.0606L66.2115 136H66.2665C66.4129 135.771 66.5913 135.563 66.8018 135.375C67.0122 135.183 67.2685 135.032 67.5704 134.922C67.877 134.808 68.2385 134.751 68.6548 134.751ZM68.4558 135.712C67.9342 135.712 67.5133 135.812 67.193 136.014C66.8773 136.215 66.6462 136.517 66.4998 136.92C66.3534 137.318 66.2756 137.819 66.2665 138.423V138.642C66.2665 139.278 66.3351 139.816 66.4723 140.255C66.6142 140.694 66.8452 141.028 67.1655 141.257C67.4904 141.486 67.925 141.6 68.4695 141.6C68.9362 141.6 69.3251 141.474 69.6363 141.223C69.9474 140.971 70.1784 140.621 70.3294 140.173C70.485 139.72 70.5628 139.2 70.5628 138.615C70.5628 137.727 70.3889 137.023 70.0412 136.501C69.698 135.975 69.1696 135.712 68.4558 135.712ZM76.7396 142.547C76.0624 142.547 75.4654 142.408 74.9483 142.129C74.4313 141.85 74.0287 141.424 73.7404 140.852C73.4522 140.28 73.308 139.56 73.308 138.69C73.308 137.78 73.459 137.036 73.761 136.46C74.0676 135.879 74.4885 135.449 75.0238 135.17C75.5591 134.89 76.1677 134.751 76.8494 134.751C77.2246 134.751 77.5861 134.79 77.9338 134.868C78.2861 134.941 78.5744 135.035 78.7985 135.149L78.4554 136.103C78.2266 136.011 77.9612 135.929 77.6593 135.856C77.3619 135.783 77.0828 135.746 76.822 135.746C76.3004 135.746 75.8657 135.858 75.518 136.082C75.1748 136.307 74.9163 136.636 74.7424 137.071C74.5731 137.505 74.4885 138.041 74.4885 138.677C74.4885 139.285 74.5709 139.804 74.7356 140.235C74.9049 140.665 75.1542 140.994 75.4837 141.223C75.8177 141.447 76.234 141.559 76.7327 141.559C77.1308 141.559 77.49 141.518 77.8103 141.436C78.1305 141.349 78.4211 141.248 78.6819 141.134V142.149C78.4302 142.277 78.1488 142.376 77.8377 142.444C77.5312 142.513 77.1651 142.547 76.7396 142.547ZM81.6056 134.888V142.41H80.4663V134.888H81.6056ZM81.0497 132.074C81.2372 132.074 81.3974 132.136 81.5301 132.26C81.6673 132.379 81.736 132.566 81.736 132.822C81.736 133.074 81.6673 133.262 81.5301 133.385C81.3974 133.509 81.2372 133.57 81.0497 133.57C80.8529 133.57 80.6882 133.509 80.5555 133.385C80.4274 133.262 80.3633 133.074 80.3633 132.822C80.3633 132.566 80.4274 132.379 80.5555 132.26C80.6882 132.136 80.8529 132.074 81.0497 132.074ZM90.5071 138.635C90.5071 139.253 90.427 139.804 90.2669 140.289C90.1067 140.774 89.8757 141.184 89.5737 141.518C89.2717 141.852 88.9057 142.108 88.4756 142.287C88.0501 142.46 87.5674 142.547 87.0275 142.547C86.5242 142.547 86.062 142.46 85.6411 142.287C85.2247 142.108 84.8633 141.852 84.5567 141.518C84.2547 141.184 84.0191 140.774 83.8498 140.289C83.6851 139.804 83.6027 139.253 83.6027 138.635C83.6027 137.812 83.7423 137.112 84.0214 136.535C84.3005 135.954 84.6986 135.513 85.2156 135.211C85.7372 134.904 86.3572 134.751 87.0755 134.751C87.7618 134.751 88.3612 134.904 88.8736 135.211C89.3907 135.517 89.791 135.961 90.0747 136.542C90.3629 137.119 90.5071 137.816 90.5071 138.635ZM84.7832 138.635C84.7832 139.239 84.8633 139.763 85.0234 140.207C85.1836 140.651 85.4306 140.994 85.7646 141.237C86.0986 141.479 86.5287 141.6 87.0549 141.6C87.5765 141.6 88.0043 141.479 88.3383 141.237C88.6769 140.994 88.9263 140.651 89.0864 140.207C89.2465 139.763 89.3266 139.239 89.3266 138.635C89.3266 138.036 89.2465 137.519 89.0864 137.084C88.9263 136.645 88.6792 136.307 88.3452 136.069C88.0112 135.831 87.5788 135.712 87.048 135.712C86.2656 135.712 85.6914 135.97 85.3254 136.487C84.9639 137.004 84.7832 137.72 84.7832 138.635ZM89.0452 131.642V131.779C88.9537 131.912 88.8279 132.072 88.6677 132.26C88.5122 132.443 88.3383 132.637 88.1461 132.843C87.954 133.044 87.7595 133.236 87.5628 133.419C87.3706 133.602 87.1922 133.76 87.0275 133.893H86.2656V133.728C86.4121 133.554 86.5722 133.346 86.7461 133.104C86.9199 132.857 87.0892 132.605 87.2539 132.349C87.4187 132.088 87.5559 131.852 87.6657 131.642H89.0452ZM96.0388 134.751C96.931 134.751 97.6058 134.971 98.0634 135.41C98.5209 135.844 98.7497 136.544 98.7497 137.51V142.41H97.6241V137.585C97.6241 136.959 97.48 136.49 97.1918 136.178C96.9081 135.867 96.4711 135.712 95.8809 135.712C95.0482 135.712 94.4625 135.947 94.1239 136.419C93.7854 136.89 93.6161 137.574 93.6161 138.471V142.41H92.4768V134.888H93.3964L93.568 135.973H93.6298C93.7899 135.707 93.9935 135.485 94.2406 135.307C94.4877 135.124 94.7645 134.987 95.0711 134.895C95.3776 134.799 95.7002 134.751 96.0388 134.751ZM107.425 142.547C106.473 142.547 105.718 142.223 105.16 141.573C104.606 140.923 104.329 139.958 104.329 138.677C104.329 137.382 104.613 136.405 105.18 135.746C105.748 135.083 106.503 134.751 107.445 134.751C107.843 134.751 108.191 134.804 108.488 134.909C108.786 135.014 109.042 135.156 109.257 135.334C109.472 135.508 109.653 135.707 109.799 135.931H109.882C109.863 135.79 109.845 135.595 109.827 135.348C109.809 135.101 109.799 134.9 109.799 134.744V131.731H110.939V142.41H110.019L109.847 141.34H109.799C109.658 141.564 109.477 141.767 109.257 141.95C109.042 142.133 108.784 142.28 108.482 142.39C108.184 142.495 107.832 142.547 107.425 142.547ZM107.603 141.6C108.408 141.6 108.978 141.372 109.312 140.914C109.646 140.456 109.813 139.777 109.813 138.876V138.67C109.813 137.713 109.653 136.979 109.333 136.467C109.017 135.954 108.44 135.698 107.603 135.698C106.903 135.698 106.379 135.968 106.031 136.508C105.684 137.043 105.51 137.775 105.51 138.704C105.51 139.628 105.681 140.342 106.025 140.845C106.372 141.349 106.899 141.6 107.603 141.6ZM116.251 134.751C116.891 134.751 117.44 134.893 117.898 135.176C118.355 135.46 118.705 135.858 118.948 136.371C119.19 136.878 119.312 137.473 119.312 138.155V138.862H114.116C114.13 139.745 114.35 140.418 114.775 140.88C115.201 141.342 115.8 141.573 116.573 141.573C117.049 141.573 117.47 141.529 117.836 141.442C118.202 141.356 118.582 141.227 118.975 141.058V142.06C118.596 142.229 118.218 142.353 117.843 142.431C117.472 142.509 117.033 142.547 116.525 142.547C115.802 142.547 115.171 142.401 114.631 142.108C114.096 141.811 113.679 141.376 113.382 140.804C113.085 140.232 112.936 139.532 112.936 138.704C112.936 137.894 113.071 137.194 113.341 136.604C113.615 136.009 114 135.552 114.494 135.231C114.992 134.911 115.578 134.751 116.251 134.751ZM116.237 135.684C115.628 135.684 115.143 135.883 114.782 136.281C114.421 136.679 114.205 137.235 114.137 137.949H118.117C118.113 137.501 118.042 137.107 117.905 136.769C117.772 136.425 117.568 136.16 117.294 135.973C117.019 135.78 116.667 135.684 116.237 135.684ZM126.044 142.41H124.898V131.731H126.044V142.41ZM131.267 134.765C132.164 134.765 132.83 134.966 133.264 135.369C133.699 135.771 133.916 136.414 133.916 137.297V142.41H133.086L132.866 141.298H132.811C132.601 141.573 132.381 141.804 132.153 141.992C131.924 142.175 131.658 142.314 131.356 142.41C131.059 142.502 130.693 142.547 130.258 142.547C129.801 142.547 129.394 142.467 129.037 142.307C128.684 142.147 128.405 141.905 128.199 141.58C127.998 141.255 127.897 140.843 127.897 140.344C127.897 139.594 128.195 139.017 128.79 138.615C129.384 138.212 130.29 137.993 131.507 137.956L132.805 137.901V137.441C132.805 136.792 132.665 136.336 132.386 136.075C132.107 135.815 131.713 135.684 131.205 135.684C130.812 135.684 130.437 135.741 130.08 135.856C129.723 135.97 129.384 136.105 129.064 136.261L128.714 135.396C129.053 135.222 129.442 135.073 129.881 134.95C130.32 134.826 130.782 134.765 131.267 134.765ZM132.791 138.704L131.645 138.752C130.707 138.789 130.046 138.942 129.661 139.212C129.277 139.482 129.085 139.864 129.085 140.358C129.085 140.788 129.215 141.106 129.476 141.312C129.737 141.518 130.082 141.621 130.512 141.621C131.18 141.621 131.727 141.436 132.153 141.065C132.578 140.694 132.791 140.138 132.791 139.397V138.704ZM142.344 141.614C142.532 141.614 142.724 141.598 142.921 141.566C143.118 141.534 143.278 141.495 143.401 141.449V142.335C143.269 142.394 143.083 142.444 142.845 142.486C142.612 142.527 142.383 142.547 142.159 142.547C141.761 142.547 141.4 142.479 141.075 142.342C140.75 142.2 140.489 141.962 140.292 141.628C140.1 141.294 140.004 140.832 140.004 140.241V135.78H138.933V135.224L140.011 134.778L140.464 133.145H141.15V134.888H143.353V135.78H141.15V140.207C141.15 140.678 141.258 141.031 141.473 141.264C141.692 141.497 141.983 141.614 142.344 141.614ZM147.739 134.765C148.636 134.765 149.301 134.966 149.736 135.369C150.171 135.771 150.388 136.414 150.388 137.297V142.41H149.558L149.338 141.298H149.283C149.073 141.573 148.853 141.804 148.624 141.992C148.395 142.175 148.13 142.314 147.828 142.41C147.531 142.502 147.165 142.547 146.73 142.547C146.272 142.547 145.865 142.467 145.508 142.307C145.156 142.147 144.877 141.905 144.671 141.58C144.47 141.255 144.369 140.843 144.369 140.344C144.369 139.594 144.666 139.017 145.261 138.615C145.856 138.212 146.762 137.993 147.979 137.956L149.276 137.901V137.441C149.276 136.792 149.137 136.336 148.857 136.075C148.578 135.815 148.185 135.684 147.677 135.684C147.284 135.684 146.908 135.741 146.551 135.856C146.195 135.97 145.856 136.105 145.536 136.261L145.186 135.396C145.524 135.222 145.913 135.073 146.352 134.95C146.792 134.826 147.254 134.765 147.739 134.765ZM149.262 138.704L148.116 138.752C147.178 138.789 146.517 138.942 146.133 139.212C145.748 139.482 145.556 139.864 145.556 140.358C145.556 140.788 145.687 141.106 145.948 141.312C146.208 141.518 146.554 141.621 146.984 141.621C147.652 141.621 148.199 141.436 148.624 141.065C149.05 140.694 149.262 140.138 149.262 139.397V138.704ZM156.153 134.751C156.304 134.751 156.462 134.76 156.627 134.778C156.791 134.792 156.938 134.813 157.066 134.84L156.922 135.897C156.798 135.865 156.661 135.84 156.51 135.822C156.359 135.803 156.217 135.794 156.084 135.794C155.782 135.794 155.496 135.856 155.226 135.979C154.961 136.098 154.728 136.272 154.526 136.501C154.325 136.725 154.167 136.997 154.053 137.318C153.939 137.633 153.881 137.986 153.881 138.375V142.41H152.735V134.888H153.682L153.806 136.275H153.854C154.009 135.995 154.197 135.741 154.417 135.513C154.636 135.279 154.89 135.094 155.178 134.957C155.471 134.82 155.796 134.751 156.153 134.751ZM157.581 145.787C157.347 145.787 157.144 145.769 156.97 145.732C156.796 145.7 156.645 145.661 156.517 145.615V144.689C156.659 144.734 156.803 144.769 156.949 144.792C157.096 144.819 157.26 144.833 157.443 144.833C157.754 144.833 158.006 144.746 158.198 144.572C158.39 144.398 158.486 144.082 158.486 143.625V134.888H159.626V143.597C159.626 144.055 159.553 144.446 159.406 144.771C159.26 145.101 159.036 145.352 158.734 145.526C158.432 145.7 158.047 145.787 157.581 145.787ZM158.384 132.822C158.384 132.566 158.448 132.379 158.576 132.26C158.708 132.136 158.873 132.074 159.07 132.074C159.257 132.074 159.418 132.136 159.55 132.26C159.688 132.379 159.756 132.566 159.756 132.822C159.756 133.074 159.688 133.262 159.55 133.385C159.418 133.509 159.257 133.57 159.07 133.57C158.873 133.57 158.708 133.509 158.576 133.385C158.448 133.262 158.384 133.074 158.384 132.822ZM164.938 134.751C165.578 134.751 166.127 134.893 166.585 135.176C167.043 135.46 167.393 135.858 167.635 136.371C167.878 136.878 167.999 137.473 167.999 138.155V138.862H162.803C162.817 139.745 163.037 140.418 163.462 140.88C163.888 141.342 164.487 141.573 165.26 141.573C165.736 141.573 166.157 141.529 166.523 141.442C166.889 141.356 167.269 141.227 167.662 141.058V142.06C167.283 142.229 166.905 142.353 166.53 142.431C166.159 142.509 165.72 142.547 165.212 142.547C164.489 142.547 163.858 142.401 163.318 142.108C162.783 141.811 162.366 141.376 162.069 140.804C161.772 140.232 161.623 139.532 161.623 138.704C161.623 137.894 161.758 137.194 162.028 136.604C162.302 136.009 162.687 135.552 163.181 135.231C163.68 134.911 164.265 134.751 164.938 134.751ZM164.924 135.684C164.316 135.684 163.831 135.883 163.469 136.281C163.108 136.679 162.893 137.235 162.824 137.949H166.805C166.8 137.501 166.729 137.107 166.592 136.769C166.459 136.425 166.256 136.16 165.981 135.973C165.706 135.78 165.354 135.684 164.924 135.684ZM172.364 141.614C172.551 141.614 172.744 141.598 172.94 141.566C173.137 141.534 173.297 141.495 173.421 141.449V142.335C173.288 142.394 173.103 142.444 172.865 142.486C172.631 142.527 172.403 142.547 172.178 142.547C171.78 142.547 171.419 142.479 171.094 142.342C170.769 142.2 170.508 141.962 170.312 141.628C170.119 141.294 170.023 140.832 170.023 140.241V135.78H168.953V135.224L170.03 134.778L170.483 133.145H171.17V134.888H173.373V135.78H171.17V140.207C171.17 140.678 171.277 141.031 171.492 141.264C171.712 141.497 172.002 141.614 172.364 141.614ZM177.758 134.765C178.655 134.765 179.321 134.966 179.755 135.369C180.19 135.771 180.407 136.414 180.407 137.297V142.41H179.577L179.357 141.298H179.302C179.092 141.573 178.872 141.804 178.644 141.992C178.415 142.175 178.149 142.314 177.847 142.41C177.55 142.502 177.184 142.547 176.749 142.547C176.292 142.547 175.885 142.467 175.528 142.307C175.175 142.147 174.896 141.905 174.69 141.58C174.489 141.255 174.388 140.843 174.388 140.344C174.388 139.594 174.686 139.017 175.281 138.615C175.875 138.212 176.781 137.993 177.998 137.956L179.296 137.901V137.441C179.296 136.792 179.156 136.336 178.877 136.075C178.598 135.815 178.204 135.684 177.696 135.684C177.303 135.684 176.928 135.741 176.571 135.856C176.214 135.97 175.875 136.105 175.555 136.261L175.205 135.396C175.544 135.222 175.933 135.073 176.372 134.95C176.811 134.826 177.273 134.765 177.758 134.765ZM179.282 138.704L178.136 138.752C177.198 138.789 176.537 138.942 176.152 139.212C175.768 139.482 175.576 139.864 175.576 140.358C175.576 140.788 175.706 141.106 175.967 141.312C176.228 141.518 176.573 141.621 177.003 141.621C177.671 141.621 178.218 141.436 178.644 141.065C179.069 140.694 179.282 140.138 179.282 139.397V138.704Z" fill="#38485C"/>
</g>
<rect x="1.12152" y="1.62774" width="300.441" height="168.744" rx="7.90634" stroke="#E6EBF0" stroke-width="1.75696"/>
<defs>
<clipPath id="clip0_5895_687">
<rect x="2" y="2.50623" width="298.684" height="166.987" rx="7.02786" fill="white"/>
</clipPath>
</defs>
</svg>
