<svg width="712" height="141" viewBox="0 0 712 141" fill="none" xmlns="http://www.w3.org/2000/svg">
<rect x="1" y="1" width="710" height="138.419" rx="5.19685" fill="#F3F6F9"/>
<rect x="1" y="1" width="710" height="138.419" rx="5.19685" stroke="#E6EBF0" stroke-width="2"/>
<rect x="31.3706" y="39.3706" width="206.592" height="61.678" rx="5.6643" fill="white"/>
<rect x="31.3706" y="39.3706" width="206.592" height="61.678" rx="5.6643" stroke="#E6EBF0" stroke-width="1.25873"/>
<rect x="42.0699" y="50.0698" width="40.2795" height="40.2795" rx="5.03494" fill="#F3F6F9"/>
<rect x="92.4192" y="56.1448" width="124.774" height="11.1714" rx="5.58572" fill="#9EAAB8"/>
<rect x="92.4192" y="73.2744" width="106" height="11" rx="5.5" fill="#E6EBF0"/>
<rect x="252.704" y="39.3706" width="206.592" height="61.678" rx="5.6643" fill="white"/>
<rect x="252.704" y="39.3706" width="206.592" height="61.678" rx="5.6643" stroke="#E6EBF0" stroke-width="1.25873"/>
<rect x="263.403" y="50.0698" width="40.2795" height="40.2795" rx="5.03494" fill="#F3F6F9"/>
<rect x="313.753" y="56.1448" width="124.774" height="11.1714" rx="5.58572" fill="#9EAAB8"/>
<rect x="313.753" y="73.2744" width="105" height="11" rx="5.5" fill="#E6EBF0"/>
<rect x="474.037" y="39.3706" width="206.592" height="61.678" rx="5.6643" fill="white"/>
<rect x="474.037" y="39.3706" width="206.592" height="61.678" rx="5.6643" stroke="#E6EBF0" stroke-width="1.25873"/>
<rect x="484.737" y="50.0698" width="40.2795" height="40.2795" rx="5.03494" fill="#F3F6F9"/>
<rect x="535.086" y="56.1448" width="124.774" height="11.1714" rx="5.58572" fill="#9EAAB8"/>
<rect x="535.086" y="73.2744" width="105" height="11" rx="5.5" fill="#E6EBF0"/>
</svg>
