<svg xmlns="http://www.w3.org/2000/svg" width="712" height="220" viewBox="0 0 712 220">
  <g id="Grupo_32454" data-name="Grupo 32454" transform="translate(-513 -5559)">
    <g id="Rectángulo_26419" data-name="Rectángulo 26419" transform="translate(513 5559)" fill="#fff" stroke="#38485c" stroke-width="2">
      <rect width="712" height="220" rx="8" stroke="none"/>
      <rect x="1" y="1" width="710" height="218" rx="7" fill="none"/>
    </g>
    <g id="Grupo_32313" data-name="Grupo 32313" transform="translate(545 5607.018)">
      <g id="Rectángulo_4827" data-name="Rectángulo 4827" transform="translate(0 -0.018)" fill="#fff" stroke="#d1d8df" stroke-width="1">
        <rect width="208" height="124" rx="4" stroke="none"/>
        <rect x="0.5" y="0.5" width="207" height="123" rx="3.5" fill="none"/>
      </g>
      <rect id="Rectángulo_4828" data-name="Rectángulo 4828" width="46" height="46" transform="translate(11 11.982)" fill="#e6ebf0"/>
      <rect id="Rectángulo_4830" data-name="Rectángulo 4830" width="186" height="24" transform="translate(11 61.982)" fill="#d1d8df"/>
      <rect id="Rectángulo_4831" data-name="Rectángulo 4831" width="186" height="5" transform="translate(11 91.982)" fill="#e6ebf0"/>
      <rect id="Rectángulo_8714" data-name="Rectángulo 8714" width="186" height="6" transform="translate(11 98.982)" fill="#e6ebf0"/>
      <rect id="Rectángulo_8715" data-name="Rectángulo 8715" width="186" height="5" transform="translate(11 106.982)" fill="#e6ebf0"/>
      <path id="bxs-image-alt" d="M6.444,34H30.552A3.445,3.445,0,0,0,34,30.552V6.444A3.445,3.445,0,0,0,30.552,3H6.444A3.445,3.445,0,0,0,3,6.444V30.552A3.445,3.445,0,0,0,6.444,34ZM11.61,21.942l4.069,4.069,6.263-9.235,8.61,12.054H6.444Z" transform="translate(15.536 16.378)" fill="#9eaab8" opacity="0.51"/>
    </g>
    <g id="Grupo_32314" data-name="Grupo 32314" transform="translate(764.875 5607.018)">
      <g id="Rectángulo_4827-2" data-name="Rectángulo 4827" transform="translate(0.125 -0.018)" fill="#fff" stroke="#d1d8df" stroke-width="1">
        <rect width="208" height="124" rx="4" stroke="none"/>
        <rect x="0.5" y="0.5" width="207" height="123" rx="3.5" fill="none"/>
      </g>
      <rect id="Rectángulo_4828-2" data-name="Rectángulo 4828" width="46" height="46" transform="translate(11.125 11.982)" fill="#e6ebf0"/>
      <rect id="Rectángulo_4830-2" data-name="Rectángulo 4830" width="186" height="24" transform="translate(11.125 61.982)" fill="#d1d8df"/>
      <rect id="Rectángulo_4831-2" data-name="Rectángulo 4831" width="186" height="5" transform="translate(11.125 91.982)" fill="#e6ebf0"/>
      <rect id="Rectángulo_8714-2" data-name="Rectángulo 8714" width="186" height="6" transform="translate(11.125 98.982)" fill="#e6ebf0"/>
      <rect id="Rectángulo_8715-2" data-name="Rectángulo 8715" width="186" height="5" transform="translate(11.125 106.982)" fill="#e6ebf0"/>
      <path id="bxs-image-alt-2" data-name="bxs-image-alt" d="M6.444,34H30.552A3.445,3.445,0,0,0,34,30.552V6.444A3.445,3.445,0,0,0,30.552,3H6.444A3.445,3.445,0,0,0,3,6.444V30.552A3.445,3.445,0,0,0,6.444,34ZM11.61,21.942l4.069,4.069,6.263-9.235,8.61,12.054H6.444Z" transform="translate(15.536 16.378)" fill="#9eaab8" opacity="0.51"/>
    </g>
    <g id="Grupo_32315" data-name="Grupo 32315" transform="translate(984.748 5607.018)">
      <g id="Rectángulo_4827-3" data-name="Rectángulo 4827" transform="translate(0.252 -0.018)" fill="#fff" stroke="#d1d8df" stroke-width="1">
        <rect width="208" height="124" rx="4" stroke="none"/>
        <rect x="0.5" y="0.5" width="207" height="123" rx="3.5" fill="none"/>
      </g>
      <rect id="Rectángulo_4828-3" data-name="Rectángulo 4828" width="47" height="46" transform="translate(10.252 11.982)" fill="#e6ebf0"/>
      <rect id="Rectángulo_4830-3" data-name="Rectángulo 4830" width="186" height="24" transform="translate(10.252 61.982)" fill="#d1d8df"/>
      <rect id="Rectángulo_4831-3" data-name="Rectángulo 4831" width="186" height="5" transform="translate(10.252 91.982)" fill="#e6ebf0"/>
      <rect id="Rectángulo_8714-3" data-name="Rectángulo 8714" width="186" height="6" transform="translate(10.252 98.982)" fill="#e6ebf0"/>
      <rect id="Rectángulo_8715-3" data-name="Rectángulo 8715" width="186" height="5" transform="translate(10.252 106.982)" fill="#e6ebf0"/>
      <path id="bxs-image-alt-3" data-name="bxs-image-alt" d="M6.444,34H30.552A3.445,3.445,0,0,0,34,30.552V6.444A3.445,3.445,0,0,0,30.552,3H6.444A3.445,3.445,0,0,0,3,6.444V30.552A3.445,3.445,0,0,0,6.444,34ZM11.61,21.942l4.069,4.069,6.263-9.235,8.61,12.054H6.444Z" transform="translate(15.536 16.378)" fill="#9eaab8" opacity="0.51"/>
    </g>
  </g>
</svg>
