<svg xmlns="http://www.w3.org/2000/svg" xmlns:xlink="http://www.w3.org/1999/xlink" width="748" height="175" viewBox="0 0 748 175"><defs><style>.a{fill:#fff;}.b{fill:#e6ebf0;}.c{filter:url(#g);}.d{filter:url(#e);}.e{filter:url(#c);}.f{filter:url(#a);}</style><filter id="a" x="362" y="0" width="205" height="175" filterUnits="userSpaceOnUse"><feOffset input="SourceAlpha"/><feGaussianBlur stdDeviation="6" result="b"/><feFlood flood-color="#38485c" flood-opacity="0.161"/><feComposite operator="in" in2="b"/><feComposite in="SourceGraphic"/></filter><filter id="c" x="181" y="0" width="205" height="175" filterUnits="userSpaceOnUse"><feOffset input="SourceAlpha"/><feGaussianBlur stdDeviation="6" result="d"/><feFlood flood-color="#38485c" flood-opacity="0.161"/><feComposite operator="in" in2="d"/><feComposite in="SourceGraphic"/></filter><filter id="e" x="0" y="0" width="205" height="175" filterUnits="userSpaceOnUse"><feOffset input="SourceAlpha"/><feGaussianBlur stdDeviation="6" result="f"/><feFlood flood-color="#38485c" flood-opacity="0.161"/><feComposite operator="in" in2="f"/><feComposite in="SourceGraphic"/></filter><filter id="g" x="543" y="0" width="205" height="175" filterUnits="userSpaceOnUse"><feOffset input="SourceAlpha"/><feGaussianBlur stdDeviation="6" result="h"/><feFlood flood-color="#38485c" flood-opacity="0.161"/><feComposite operator="in" in2="h"/><feComposite in="SourceGraphic"/></filter></defs><g transform="translate(-495 -3349)"><g class="f" transform="matrix(1, 0, 0, 1, 495, 3349)"><rect class="a" width="169" height="139" rx="4" transform="translate(380 18)"/></g><rect class="b" width="145" height="96" transform="translate(887 3379)"/><rect class="b" width="145" height="14" transform="translate(887 3481)"/><g class="e" transform="matrix(1, 0, 0, 1, 495, 3349)"><rect class="a" width="169" height="139" rx="4" transform="translate(199 18)"/></g><rect class="b" width="145" height="96" transform="translate(706 3379)"/><rect class="b" width="145" height="14" transform="translate(706 3481)"/><g class="d" transform="matrix(1, 0, 0, 1, 495, 3349)"><rect class="a" width="169" height="139" rx="4" transform="translate(18 18)"/></g><rect class="b" width="145" height="96" transform="translate(525 3379)"/><rect class="b" width="145" height="14" transform="translate(525 3481)"/><g class="c" transform="matrix(1, 0, 0, 1, 495, 3349)"><rect class="a" width="169" height="139" rx="4" transform="translate(561 18)"/></g><rect class="b" width="145" height="96" transform="translate(1068 3379)"/><rect class="b" width="145" height="14" transform="translate(1068 3481)"/></g></svg>