<svg xmlns="http://www.w3.org/2000/svg" xmlns:xlink="http://www.w3.org/1999/xlink" width="748" height="207" viewBox="0 0 748 207"><defs><style>.a{fill:#fff;}.b{fill:#e6ebf0;}.c{filter:url(#e);}.d{filter:url(#c);}.e{filter:url(#a);}</style><filter id="a" x="0" y="0" width="261" height="207" filterUnits="userSpaceOnUse"><feOffset input="SourceAlpha"/><feGaussianBlur stdDeviation="6" result="b"/><feFlood flood-color="#38485c" flood-opacity="0.161"/><feComposite operator="in" in2="b"/><feComposite in="SourceGraphic"/></filter><filter id="c" x="244" y="0" width="261" height="207" filterUnits="userSpaceOnUse"><feOffset input="SourceAlpha"/><feGaussianBlur stdDeviation="6" result="d"/><feFlood flood-color="#38485c" flood-opacity="0.161"/><feComposite operator="in" in2="d"/><feComposite in="SourceGraphic"/></filter><filter id="e" x="487" y="0" width="261" height="207" filterUnits="userSpaceOnUse"><feOffset input="SourceAlpha"/><feGaussianBlur stdDeviation="6" result="f"/><feFlood flood-color="#38485c" flood-opacity="0.161"/><feComposite operator="in" in2="f"/><feComposite in="SourceGraphic"/></filter></defs><g transform="translate(-495 -3590)"><g class="e" transform="matrix(1, 0, 0, 1, 495, 3590)"><rect class="a" width="225" height="171" rx="4" transform="translate(18 18)"/></g><rect class="b" width="201" height="96" transform="translate(525 3620)"/><rect class="b" width="201" height="14" transform="translate(525 3722)"/><rect class="b" width="201" height="6" transform="translate(525 3742)"/><rect class="b" width="201" height="6" transform="translate(525 3750)"/><rect class="b" width="201" height="6" transform="translate(525 3758)"/><g class="d" transform="matrix(1, 0, 0, 1, 495, 3590)"><rect class="a" width="225" height="171" rx="4" transform="translate(262 18)"/></g><rect class="b" width="201" height="96" transform="translate(769 3620)"/><rect class="b" width="201" height="14" transform="translate(769 3722)"/><rect class="b" width="201" height="6" transform="translate(769 3742)"/><rect class="b" width="201" height="6" transform="translate(769 3750)"/><rect class="b" width="201" height="6" transform="translate(769 3758)"/><g class="c" transform="matrix(1, 0, 0, 1, 495, 3590)"><rect class="a" width="225" height="171" rx="4" transform="translate(505 18)"/></g><rect class="b" width="201" height="96" transform="translate(1012 3620)"/><rect class="b" width="201" height="14" transform="translate(1012 3722)"/><rect class="b" width="201" height="6" transform="translate(1012 3742)"/><rect class="b" width="201" height="6" transform="translate(1012 3750)"/><rect class="b" width="201" height="6" transform="translate(1012 3758)"/></g></svg>