<svg xmlns="http://www.w3.org/2000/svg" width="712" height="200" viewBox="0 0 712 200">
  <g id="Grupo_32451" data-name="Grupo 32451" transform="translate(-513 -6789)">
    <g id="Rectángulo_26426" data-name="Rectángulo 26426" transform="translate(513 6789)" fill="#fff" stroke="#38485c" stroke-width="2">
      <rect width="712" height="200" rx="8" stroke="none"/>
      <rect x="1" y="1" width="710" height="198" rx="7" fill="none"/>
    </g>
    <g id="Grupo_32336" data-name="Grupo 32336" transform="translate(545 6837.018)">
      <g id="Rectángulo_4827" data-name="Rectángulo 4827" transform="translate(0 -0.018)" fill="#fff" stroke="#d1d8df" stroke-width="1">
        <rect width="208" height="104" rx="4" stroke="none"/>
        <rect x="0.5" y="0.5" width="207" height="103" rx="3.5" fill="none"/>
      </g>
      <rect id="Rectángulo_4828" data-name="Rectángulo 4828" width="46" height="46" transform="translate(11 11.982)" fill="#e6ebf0"/>
      <rect id="Rectángulo_4830" data-name="Rectángulo 4830" width="135" height="16" transform="translate(62 11.982)" fill="#d1d8df"/>
      <rect id="Rectángulo_26422" data-name="Rectángulo 26422" width="135" height="16" transform="translate(62 29.982)" fill="#d1d8df"/>
      <rect id="Rectángulo_4831" data-name="Rectángulo 4831" width="135" height="5" transform="translate(62 49.982)" fill="#e6ebf0"/>
      <rect id="Rectángulo_26423" data-name="Rectángulo 26423" width="135" height="5" transform="translate(62 71.982)" fill="#e6ebf0"/>
      <rect id="Rectángulo_8714" data-name="Rectángulo 8714" width="135" height="6" transform="translate(62 56.982)" fill="#e6ebf0"/>
      <rect id="Rectángulo_26424" data-name="Rectángulo 26424" width="135" height="6" transform="translate(62 78.982)" fill="#e6ebf0"/>
      <rect id="Rectángulo_8715" data-name="Rectángulo 8715" width="135" height="5" transform="translate(62 64.982)" fill="#e6ebf0"/>
      <rect id="Rectángulo_26425" data-name="Rectángulo 26425" width="135" height="5" transform="translate(62 86.982)" fill="#e6ebf0"/>
      <path id="bxs-image-alt" d="M6.444,34H30.552A3.445,3.445,0,0,0,34,30.552V6.444A3.445,3.445,0,0,0,30.552,3H6.444A3.445,3.445,0,0,0,3,6.444V30.552A3.445,3.445,0,0,0,6.444,34ZM11.61,21.942l4.069,4.069,6.263-9.235,8.61,12.054H6.444Z" transform="translate(15.536 16.378)" fill="#9eaab8" opacity="0.51"/>
    </g>
    <g id="Grupo_32337" data-name="Grupo 32337" transform="translate(765 6837.018)">
      <g id="Rectángulo_4827-2" data-name="Rectángulo 4827" transform="translate(0 -0.018)" fill="#fff" stroke="#d1d8df" stroke-width="1">
        <rect width="208" height="104" rx="4" stroke="none"/>
        <rect x="0.5" y="0.5" width="207" height="103" rx="3.5" fill="none"/>
      </g>
      <rect id="Rectángulo_4828-2" data-name="Rectángulo 4828" width="46" height="46" transform="translate(11 11.982)" fill="#e6ebf0"/>
      <rect id="Rectángulo_4830-2" data-name="Rectángulo 4830" width="135" height="16" transform="translate(62 11.982)" fill="#d1d8df"/>
      <rect id="Rectángulo_26422-2" data-name="Rectángulo 26422" width="135" height="16" transform="translate(62 29.982)" fill="#d1d8df"/>
      <rect id="Rectángulo_4831-2" data-name="Rectángulo 4831" width="135" height="5" transform="translate(62 49.982)" fill="#e6ebf0"/>
      <rect id="Rectángulo_26423-2" data-name="Rectángulo 26423" width="135" height="5" transform="translate(62 71.982)" fill="#e6ebf0"/>
      <rect id="Rectángulo_8714-2" data-name="Rectángulo 8714" width="135" height="6" transform="translate(62 56.982)" fill="#e6ebf0"/>
      <rect id="Rectángulo_26424-2" data-name="Rectángulo 26424" width="135" height="6" transform="translate(62 78.982)" fill="#e6ebf0"/>
      <rect id="Rectángulo_8715-2" data-name="Rectángulo 8715" width="135" height="5" transform="translate(62 64.982)" fill="#e6ebf0"/>
      <rect id="Rectángulo_26425-2" data-name="Rectángulo 26425" width="135" height="5" transform="translate(62 86.982)" fill="#e6ebf0"/>
      <path id="bxs-image-alt-2" data-name="bxs-image-alt" d="M6.444,34H30.552A3.445,3.445,0,0,0,34,30.552V6.444A3.445,3.445,0,0,0,30.552,3H6.444A3.445,3.445,0,0,0,3,6.444V30.552A3.445,3.445,0,0,0,6.444,34ZM11.61,21.942l4.069,4.069,6.263-9.235,8.61,12.054H6.444Z" transform="translate(15.536 16.378)" fill="#9eaab8" opacity="0.51"/>
    </g>
    <g id="Grupo_32338" data-name="Grupo 32338" transform="translate(985 6837.018)">
      <g id="Rectángulo_4827-3" data-name="Rectángulo 4827" transform="translate(0 -0.018)" fill="#fff" stroke="#d1d8df" stroke-width="1">
        <rect width="208" height="104" rx="4" stroke="none"/>
        <rect x="0.5" y="0.5" width="207" height="103" rx="3.5" fill="none"/>
      </g>
      <rect id="Rectángulo_4828-3" data-name="Rectángulo 4828" width="46" height="46" transform="translate(11 11.982)" fill="#e6ebf0"/>
      <rect id="Rectángulo_4830-3" data-name="Rectángulo 4830" width="135" height="16" transform="translate(62 11.982)" fill="#d1d8df"/>
      <rect id="Rectángulo_26422-3" data-name="Rectángulo 26422" width="135" height="16" transform="translate(62 29.982)" fill="#d1d8df"/>
      <rect id="Rectángulo_4831-3" data-name="Rectángulo 4831" width="135" height="5" transform="translate(62 49.982)" fill="#e6ebf0"/>
      <rect id="Rectángulo_26423-3" data-name="Rectángulo 26423" width="135" height="5" transform="translate(62 71.982)" fill="#e6ebf0"/>
      <rect id="Rectángulo_8714-3" data-name="Rectángulo 8714" width="135" height="6" transform="translate(62 56.982)" fill="#e6ebf0"/>
      <rect id="Rectángulo_26424-3" data-name="Rectángulo 26424" width="135" height="6" transform="translate(62 78.982)" fill="#e6ebf0"/>
      <rect id="Rectángulo_8715-3" data-name="Rectángulo 8715" width="135" height="5" transform="translate(62 64.982)" fill="#e6ebf0"/>
      <rect id="Rectángulo_26425-3" data-name="Rectángulo 26425" width="135" height="5" transform="translate(62 86.982)" fill="#e6ebf0"/>
      <path id="bxs-image-alt-3" data-name="bxs-image-alt" d="M6.444,34H30.552A3.445,3.445,0,0,0,34,30.552V6.444A3.445,3.445,0,0,0,30.552,3H6.444A3.445,3.445,0,0,0,3,6.444V30.552A3.445,3.445,0,0,0,6.444,34ZM11.61,21.942l4.069,4.069,6.263-9.235,8.61,12.054H6.444Z" transform="translate(15.536 16.378)" fill="#9eaab8" opacity="0.51"/>
    </g>
  </g>
</svg>
