<svg xmlns="http://www.w3.org/2000/svg" width="712" height="348" viewBox="0 0 712 348">
  <g id="Grupo_32453" data-name="Grupo 32453" transform="translate(-513 -5933)">
    <g id="Rectángulo_26412" data-name="Rectángulo 26412" transform="translate(513 5933)" fill="#fff" stroke="#38485c" stroke-width="2">
      <rect width="712" height="348" rx="8" stroke="none"/>
      <rect x="1" y="1" width="710" height="346" rx="7" fill="none"/>
    </g>
    <g id="Grupo_32322" data-name="Grupo 32322" transform="translate(537 6121)">
      <rect id="Rectángulo_4828" data-name="Rectángulo 4828" width="32" height="32" transform="translate(8 18)" fill="#e6ebf0"/>
      <rect id="Rectángulo_4830" data-name="Rectángulo 4830" width="139" height="12" transform="translate(8 76)" fill="#d1d8df"/>
      <rect id="Rectángulo_4831" data-name="Rectángulo 4831" width="139" height="5" transform="translate(8 92)" fill="#e6ebf0"/>
      <rect id="Rectángulo_8714" data-name="Rectángulo 8714" width="139" height="6" transform="translate(8 99)" fill="#e6ebf0"/>
      <rect id="Rectángulo_8715" data-name="Rectángulo 8715" width="139" height="5" transform="translate(8 107)" fill="#e6ebf0"/>
      <path id="bxs-image-alt" d="M5.571,26.14h18a2.572,2.572,0,0,0,2.571-2.571v-18A2.572,2.572,0,0,0,23.568,3h-18A2.572,2.572,0,0,0,3,5.571v18A2.572,2.572,0,0,0,5.571,26.14Zm3.857-9,3.038,3.038,4.675-6.894,6.428,9h-18Z" transform="translate(9.838 19.397)" fill="#9eaab8" opacity="0.51"/>
      <rect id="Rectángulo_26421" data-name="Rectángulo 26421" width="139" height="12" transform="translate(8 62)" fill="#d1d8df"/>
    </g>
    <g id="Grupo_32330" data-name="Grupo 32330" transform="translate(537 5963.216)">
      <rect id="Rectángulo_4828-2" data-name="Rectángulo 4828" width="43" height="43" transform="translate(8 17.784)" fill="#e6ebf0"/>
      <rect id="Rectángulo_4830-2" data-name="Rectángulo 4830" width="186" height="16" transform="translate(8 95.784)" fill="#d1d8df"/>
      <rect id="Rectángulo_4831-2" data-name="Rectángulo 4831" width="186" height="7" transform="translate(8 116.784)" fill="#e6ebf0"/>
      <rect id="Rectángulo_8714-2" data-name="Rectángulo 8714" width="186" height="8" transform="translate(8 126.784)" fill="#e6ebf0"/>
      <rect id="Rectángulo_8715-2" data-name="Rectángulo 8715" width="186" height="7" transform="translate(8 136.784)" fill="#e6ebf0"/>
      <path id="bxs-image-alt-2" data-name="bxs-image-alt" d="M6.44,33.964H30.523a3.442,3.442,0,0,0,3.44-3.44V6.44A3.442,3.442,0,0,0,30.523,3H6.44A3.442,3.442,0,0,0,3,6.44V30.523A3.442,3.442,0,0,0,6.44,33.964ZM11.6,21.922l4.065,4.065,6.256-9.225,8.6,12.041H6.44Z" transform="translate(11.474 20.883)" fill="#9eaab8" opacity="0.51"/>
      <rect id="Rectángulo_26421-2" data-name="Rectángulo 26421" width="186" height="16" transform="translate(8 76.784)" fill="#d1d8df"/>
    </g>
    <g id="Grupo_32331" data-name="Grupo 32331" transform="translate(768 5963.216)">
      <rect id="Rectángulo_4828-3" data-name="Rectángulo 4828" width="43" height="43" transform="translate(8 17.784)" fill="#e6ebf0"/>
      <rect id="Rectángulo_4830-3" data-name="Rectángulo 4830" width="186" height="16" transform="translate(8 95.784)" fill="#d1d8df"/>
      <rect id="Rectángulo_4831-3" data-name="Rectángulo 4831" width="186" height="7" transform="translate(8 116.784)" fill="#e6ebf0"/>
      <rect id="Rectángulo_8714-3" data-name="Rectángulo 8714" width="186" height="8" transform="translate(8 126.784)" fill="#e6ebf0"/>
      <rect id="Rectángulo_8715-3" data-name="Rectángulo 8715" width="186" height="7" transform="translate(8 136.784)" fill="#e6ebf0"/>
      <path id="bxs-image-alt-3" data-name="bxs-image-alt" d="M6.44,33.964H30.523a3.442,3.442,0,0,0,3.44-3.44V6.44A3.442,3.442,0,0,0,30.523,3H6.44A3.442,3.442,0,0,0,3,6.44V30.523A3.442,3.442,0,0,0,6.44,33.964ZM11.6,21.922l4.065,4.065,6.256-9.225,8.6,12.041H6.44Z" transform="translate(11.474 20.883)" fill="#9eaab8" opacity="0.51"/>
      <rect id="Rectángulo_26421-3" data-name="Rectángulo 26421" width="186" height="16" transform="translate(8 76.784)" fill="#d1d8df"/>
    </g>
    <g id="Grupo_32332" data-name="Grupo 32332" transform="translate(999 5963.216)">
      <rect id="Rectángulo_4828-4" data-name="Rectángulo 4828" width="43" height="43" transform="translate(8 17.784)" fill="#e6ebf0"/>
      <rect id="Rectángulo_4830-4" data-name="Rectángulo 4830" width="186" height="16" transform="translate(8 95.784)" fill="#d1d8df"/>
      <rect id="Rectángulo_4831-4" data-name="Rectángulo 4831" width="186" height="7" transform="translate(8 116.784)" fill="#e6ebf0"/>
      <rect id="Rectángulo_8714-4" data-name="Rectángulo 8714" width="186" height="8" transform="translate(8 126.784)" fill="#e6ebf0"/>
      <rect id="Rectángulo_8715-4" data-name="Rectángulo 8715" width="186" height="7" transform="translate(8 136.784)" fill="#e6ebf0"/>
      <path id="bxs-image-alt-4" data-name="bxs-image-alt" d="M6.44,33.964H30.523a3.442,3.442,0,0,0,3.44-3.44V6.44A3.442,3.442,0,0,0,30.523,3H6.44A3.442,3.442,0,0,0,3,6.44V30.523A3.442,3.442,0,0,0,6.44,33.964ZM11.6,21.922l4.065,4.065,6.256-9.225,8.6,12.041H6.44Z" transform="translate(11.474 20.883)" fill="#9eaab8" opacity="0.51"/>
      <rect id="Rectángulo_26421-4" data-name="Rectángulo 26421" width="186" height="16" transform="translate(8 76.784)" fill="#d1d8df"/>
    </g>
    <g id="Grupo_32327" data-name="Grupo 32327" transform="translate(1046 6121)">
      <rect id="Rectángulo_4828-5" data-name="Rectángulo 4828" width="32" height="32" transform="translate(8 18)" fill="#e6ebf0"/>
      <rect id="Rectángulo_4830-5" data-name="Rectángulo 4830" width="139" height="12" transform="translate(8 76)" fill="#d1d8df"/>
      <rect id="Rectángulo_4831-5" data-name="Rectángulo 4831" width="139" height="5" transform="translate(8 92)" fill="#e6ebf0"/>
      <rect id="Rectángulo_8714-5" data-name="Rectángulo 8714" width="139" height="6" transform="translate(8 99)" fill="#e6ebf0"/>
      <rect id="Rectángulo_8715-5" data-name="Rectángulo 8715" width="139" height="5" transform="translate(8 107)" fill="#e6ebf0"/>
      <path id="bxs-image-alt-5" data-name="bxs-image-alt" d="M5.571,26.14h18a2.572,2.572,0,0,0,2.571-2.571v-18A2.572,2.572,0,0,0,23.568,3h-18A2.572,2.572,0,0,0,3,5.571v18A2.572,2.572,0,0,0,5.571,26.14Zm3.857-9,3.038,3.038,4.675-6.894,6.428,9h-18Z" transform="translate(9.838 19.397)" fill="#9eaab8" opacity="0.51"/>
      <rect id="Rectángulo_26421-5" data-name="Rectángulo 26421" width="139" height="12" transform="translate(8 62)" fill="#d1d8df"/>
    </g>
    <g id="Grupo_32328" data-name="Grupo 32328" transform="translate(876 6121)">
      <rect id="Rectángulo_4828-6" data-name="Rectángulo 4828" width="32" height="32" transform="translate(8 18)" fill="#e6ebf0"/>
      <rect id="Rectángulo_4830-6" data-name="Rectángulo 4830" width="139" height="12" transform="translate(8 76)" fill="#d1d8df"/>
      <rect id="Rectángulo_4831-6" data-name="Rectángulo 4831" width="139" height="5" transform="translate(8 92)" fill="#e6ebf0"/>
      <rect id="Rectángulo_8714-6" data-name="Rectángulo 8714" width="139" height="6" transform="translate(8 99)" fill="#e6ebf0"/>
      <rect id="Rectángulo_8715-6" data-name="Rectángulo 8715" width="139" height="5" transform="translate(8 107)" fill="#e6ebf0"/>
      <path id="bxs-image-alt-6" data-name="bxs-image-alt" d="M5.571,26.14h18a2.572,2.572,0,0,0,2.571-2.571v-18A2.572,2.572,0,0,0,23.568,3h-18A2.572,2.572,0,0,0,3,5.571v18A2.572,2.572,0,0,0,5.571,26.14Zm3.857-9,3.038,3.038,4.675-6.894,6.428,9h-18Z" transform="translate(9.838 19.397)" fill="#9eaab8" opacity="0.51"/>
      <rect id="Rectángulo_26421-6" data-name="Rectángulo 26421" width="139" height="12" transform="translate(8 62)" fill="#d1d8df"/>
    </g>
    <g id="Grupo_32329" data-name="Grupo 32329" transform="translate(707 6121)">
      <rect id="Rectángulo_4828-7" data-name="Rectángulo 4828" width="32" height="32" transform="translate(8 18)" fill="#e6ebf0"/>
      <rect id="Rectángulo_4830-7" data-name="Rectángulo 4830" width="139" height="12" transform="translate(8 76)" fill="#d1d8df"/>
      <rect id="Rectángulo_4831-7" data-name="Rectángulo 4831" width="139" height="5" transform="translate(8 92)" fill="#e6ebf0"/>
      <rect id="Rectángulo_8714-7" data-name="Rectángulo 8714" width="139" height="6" transform="translate(8 99)" fill="#e6ebf0"/>
      <rect id="Rectángulo_8715-7" data-name="Rectángulo 8715" width="139" height="5" transform="translate(8 107)" fill="#e6ebf0"/>
      <path id="bxs-image-alt-7" data-name="bxs-image-alt" d="M5.571,26.14h18a2.572,2.572,0,0,0,2.571-2.571v-18A2.572,2.572,0,0,0,23.568,3h-18A2.572,2.572,0,0,0,3,5.571v18A2.572,2.572,0,0,0,5.571,26.14Zm3.857-9,3.038,3.038,4.675-6.894,6.428,9h-18Z" transform="translate(9.838 19.397)" fill="#9eaab8" opacity="0.51"/>
      <rect id="Rectángulo_26421-7" data-name="Rectángulo 26421" width="139" height="12" transform="translate(8 62)" fill="#d1d8df"/>
    </g>
  </g>
</svg>
