<svg xmlns="http://www.w3.org/2000/svg" width="712" height="270" viewBox="0 0 712 270">
  <g id="Grupo_32448" data-name="Grupo 32448" transform="translate(-513 -7829)">
    <g id="Rectángulo_26417" data-name="Rectángulo 26417" transform="translate(513 7829)" fill="#fff" stroke="#38485c" stroke-width="2">
      <rect width="712" height="270" rx="8" stroke="none"/>
      <rect x="1" y="1" width="710" height="268" rx="7" fill="none"/>
    </g>
    <g id="Grupo_32346" data-name="Grupo 32346" transform="translate(545 7884.514)">
      <g id="Rectángulo_4827" data-name="Rectángulo 4827" transform="translate(0.001 0.486)" fill="#fff" stroke="#d1d8df" stroke-width="1">
        <rect width="207" height="166" rx="4" stroke="none"/>
        <rect x="0.5" y="0.5" width="206" height="165" rx="3.5" fill="none"/>
      </g>
      <rect id="Rectángulo_4828" data-name="Rectángulo 4828" width="185" height="90" transform="translate(11.001 9.486)" fill="#e6ebf0"/>
      <rect id="Rectángulo_4830" data-name="Rectángulo 4830" width="185" height="24" transform="translate(11.001 104.486)" fill="#d1d8df"/>
      <rect id="Rectángulo_4831" data-name="Rectángulo 4831" width="185" height="6" transform="translate(11.001 133.486)" fill="#e6ebf0"/>
      <rect id="Rectángulo_8714" data-name="Rectángulo 8714" width="185" height="6" transform="translate(11.001 141.486)" fill="#e6ebf0"/>
      <rect id="Rectángulo_8715" data-name="Rectángulo 8715" width="185" height="5" transform="translate(11.001 149.486)" fill="#e6ebf0"/>
      <path id="bxs-image-alt" d="M6.7,36.271H32.574a3.7,3.7,0,0,0,3.7-3.7V6.7a3.7,3.7,0,0,0-3.7-3.7H6.7A3.7,3.7,0,0,0,3,6.7V32.574A3.7,3.7,0,0,0,6.7,36.271Zm5.545-12.939L16.61,27.7l6.723-9.913,9.242,12.939H6.7Z" transform="translate(82.95 35.025)" fill="#9eaab8" opacity="0.51"/>
    </g>
    <g id="Grupo_32347" data-name="Grupo 32347" transform="translate(764.322 7884.514)">
      <g id="Rectángulo_4827-2" data-name="Rectángulo 4827" transform="translate(-0.323 0.486)" fill="#fff" stroke="#d1d8df" stroke-width="1">
        <rect width="210" height="166" rx="4" stroke="none"/>
        <rect x="0.5" y="0.5" width="209" height="165" rx="3.5" fill="none"/>
      </g>
      <rect id="Rectángulo_4828-2" data-name="Rectángulo 4828" width="186" height="90" transform="translate(11.677 9.486)" fill="#e6ebf0"/>
      <rect id="Rectángulo_4830-2" data-name="Rectángulo 4830" width="186" height="24" transform="translate(11.677 104.486)" fill="#d1d8df"/>
      <rect id="Rectángulo_4831-2" data-name="Rectángulo 4831" width="186" height="6" transform="translate(11.677 133.486)" fill="#e6ebf0"/>
      <rect id="Rectángulo_8714-2" data-name="Rectángulo 8714" width="186" height="6" transform="translate(11.677 141.486)" fill="#e6ebf0"/>
      <rect id="Rectángulo_8715-2" data-name="Rectángulo 8715" width="186" height="5" transform="translate(11.677 149.486)" fill="#e6ebf0"/>
      <path id="bxs-image-alt-2" data-name="bxs-image-alt" d="M6.7,36.271H32.574a3.7,3.7,0,0,0,3.7-3.7V6.7a3.7,3.7,0,0,0-3.7-3.7H6.7A3.7,3.7,0,0,0,3,6.7V32.574A3.7,3.7,0,0,0,6.7,36.271Zm5.545-12.939L16.61,27.7l6.723-9.913,9.242,12.939H6.7Z" transform="translate(83.655 35.025)" fill="#9eaab8" opacity="0.51"/>
    </g>
    <g id="Grupo_32348" data-name="Grupo 32348" transform="translate(985.639 7884.514)">
      <g id="Rectángulo_4827-3" data-name="Rectángulo 4827" transform="translate(0.361 0.486)" fill="#fff" stroke="#d1d8df" stroke-width="1">
        <rect width="207" height="166" rx="4" stroke="none"/>
        <rect x="0.5" y="0.5" width="206" height="165" rx="3.5" fill="none"/>
      </g>
      <rect id="Rectángulo_4828-3" data-name="Rectángulo 4828" width="185" height="90" transform="translate(11.361 9.486)" fill="#e6ebf0"/>
      <rect id="Rectángulo_4830-3" data-name="Rectángulo 4830" width="185" height="24" transform="translate(11.361 104.486)" fill="#d1d8df"/>
      <rect id="Rectángulo_4831-3" data-name="Rectángulo 4831" width="185" height="6" transform="translate(11.361 133.486)" fill="#e6ebf0"/>
      <rect id="Rectángulo_8714-3" data-name="Rectángulo 8714" width="185" height="6" transform="translate(11.361 141.486)" fill="#e6ebf0"/>
      <rect id="Rectángulo_8715-3" data-name="Rectángulo 8715" width="185" height="5" transform="translate(11.361 149.486)" fill="#e6ebf0"/>
      <path id="bxs-image-alt-3" data-name="bxs-image-alt" d="M6.7,36.271H32.574a3.7,3.7,0,0,0,3.7-3.7V6.7a3.7,3.7,0,0,0-3.7-3.7H6.7A3.7,3.7,0,0,0,3,6.7V32.574A3.7,3.7,0,0,0,6.7,36.271Zm5.545-12.939L16.61,27.7l6.723-9.913,9.242,12.939H6.7Z" transform="translate(82.367 35.025)" fill="#9eaab8" opacity="0.51"/>
    </g>
  </g>
</svg>
