<?xml version="1.0" encoding="utf-8"?>
<!-- Generator: Adobe Illustrator 25.0.0, SVG Export Plug-In . SVG Version: 6.00 Build 0)  -->
<svg version="1.1" xmlns="http://www.w3.org/2000/svg" xmlns:xlink="http://www.w3.org/1999/xlink" x="0px" y="0px"
	 viewBox="0 0 347.33 411.43" style="enable-background:new 0 0 347.33 411.43;" xml:space="preserve">
<style type="text/css">
	.st0{fill:#383838;}
	.st1{fill:#38485C;}
	.st2{fill:#FFFFFF;}
	.st3{fill:none;stroke:#383838;stroke-miterlimit:10;}
	.st4{fill:none;stroke:#383838;stroke-width:3;stroke-miterlimit:10;}
	.st5{fill:#FFFFFF;stroke:#383838;stroke-miterlimit:10;}
</style>
<g id="Capa_1">
	<g>
		<g>
			<g>
				<path class="st1" d="M185.01,54.87c0,8.56-6.93,15.53-15.44,15.53c-8.47,0-15.38-6.74-15.61-15.1
					c-1.11-1.66-2.48-2.58-3.91-2.58c-1.43,0-2.8,0.92-3.91,2.58c-0.23,8.37-7.05,15.1-15.41,15.1c-8.18,0-14.9-6.28-15.56-14.24
					h-2.65c-0.08,0-0.13-0.07-0.21-0.09c0.64,20.32,17.27,36.6,37.75,36.6c20.88,0,37.81-16.93,37.81-37.81
					c0-0.04-0.01-0.07-0.01-0.11c-0.1,0.02-0.16,0.11-0.27,0.11H185.01z"/>
				<path class="st1" d="M115.18,53.58c0.66-7.96,7.38-14.24,15.56-14.24c7.44,0,13.68,5.33,15.12,12.4
					c1.26-1.05,2.69-1.61,4.2-1.61c1.51,0,2.94,0.56,4.2,1.61c1.46-7.07,7.77-12.4,15.31-12.4c7.63,0,13.97,5.61,15.21,12.94h2.82
					c0.06,0,0.09,0.05,0.14,0.06c-1.31-19.69-17.65-35.28-37.68-35.28c-20.47,0-37.1,16.28-37.75,36.6
					c0.08-0.01,0.13-0.09,0.21-0.09H115.18z"/>
			</g>
			<g>
				<path class="st1" d="M238.18,221.89l-8.9-50.24l-4.84-27.31c-0.01-0.05-0.02-0.1-0.03-0.15c-0.07-0.41-0.18-0.82-0.27-1.23
					c-0.05-0.27-0.13-0.53-0.19-0.79c-4.17-16.93-16.02-31.01-31.72-37.33c-0.15-0.06-0.3-0.13-0.45-0.2
					c-0.37-0.15-0.76-0.26-1.13-0.4c-3.48-1.27-7.12-2.18-10.9-2.65c-1.15-0.14-2.29-0.24-3.44-0.3c0.09-0.04-11.56-0.06-23.39-0.06
					s-23.48,0.02-23.39,0.06c-1.14,0.06-2.29,0.15-3.44,0.3c-3.79,0.46-7.42,1.38-10.9,2.65c-0.37,0.14-0.76,0.25-1.13,0.4
					c-0.15,0.06-0.3,0.14-0.45,0.2c-15.7,6.32-27.55,20.4-31.72,37.33c-0.06,0.27-0.14,0.53-0.19,0.79
					c-0.08,0.41-0.19,0.82-0.27,1.23c-0.01,0.05-0.02,0.1-0.03,0.15l-4.84,27.31l-8.9,50.24c-0.54,3.03,0.51,5.93,2.5,7.96
					l2.37-9.25c0.56-2.17,2.76-3.49,4.94-2.93c2.17,0.56,3.48,2.77,2.93,4.94l-2.54,9.91c3.82-0.5,7.03-3.37,7.79-7.31l10.02-52.05
					l3.34-17.33c0.66-3.45,3.71-6.14,7.16-5.92c0.59-0.06,1.19-0.07,1.79,0.06c0.14,0.14,0.26,0.33,0.39,0.49
					c0.01,0,0.02,0.01,0.03,0.01c0,0.01,0,0.02,0.01,0.03c4.47,5.66,5.43,25.97,5.43,25.97c0.91,17.86-9.86,191.54-9.86,191.54
					c0,3.56,1.44,6.78,3.77,9.11c0,0,0,0,0.01,0.01c1.63,1.63,3.7,2.78,6.01,3.35c0.18,0.05,0.34,0.12,0.52,0.16
					c0.35,0.07,0.73,0.07,1.1,0.11c0.34,0.04,0.67,0.07,1.01,0.1c0.28-0.01,0.55-0.05,0.83-0.08c0.74-0.08,1.49-0.22,2.25-0.43
					c0.17-0.05,0.33-0.04,0.49-0.09c0.2-0.06,0.37-0.16,0.56-0.23c0.25-0.1,0.5-0.2,0.74-0.31c0.48-0.22,0.94-0.47,1.38-0.75
					c0.24-0.15,0.49-0.29,0.72-0.47c0.23-0.17,0.44-0.36,0.65-0.54c2.92-2.49,4.66-6.32,4.66-10.32l19.12-107.18
					c0.45-2.54,9.8-2.54,10.25,0l19.12,107.18c0,4,1.74,7.83,4.66,10.32c0.21,0.18,0.42,0.37,0.65,0.54
					c0.23,0.17,0.48,0.31,0.72,0.47c0.44,0.28,0.9,0.53,1.38,0.75c0.24,0.11,0.49,0.21,0.74,0.31c0.19,0.07,0.37,0.17,0.56,0.23
					c0.17,0.05,0.33,0.05,0.49,0.09c0.76,0.21,1.51,0.35,2.25,0.43c0.28,0.03,0.56,0.07,0.83,0.08c0.34-0.03,0.67-0.06,1.01-0.1
					c0.36-0.04,0.74-0.04,1.1-0.11c0.18-0.04,0.35-0.11,0.52-0.16c2.3-0.57,4.38-1.73,6.01-3.35c0,0,0,0,0.01-0.01
					c2.33-2.33,3.77-5.55,3.77-9.11c0,0-10.77-173.67-9.86-191.54c0,0,0.96-20.32,5.43-25.97c0-0.01,0-0.02,0.01-0.03
					c0.01,0,0.02-0.01,0.03-0.01c0.13-0.16,0.25-0.36,0.39-0.49c0.6-0.12,1.2-0.12,1.79-0.06c3.44-0.22,6.49,2.47,7.16,5.92
					l3.34,17.32l10.02,52.05c0.9,4.67,5.23,7.87,9.96,7.36C235.42,232.02,239.1,227.11,238.18,221.89z"/>
				<path class="st1" d="M75.68,232.58c-0.67-0.07-1.31-0.22-1.92-0.42L35.83,380.35l37.92-148.19c-1.4-0.47-2.61-1.29-3.6-2.3
					L31.9,379.34c-0.56,2.17,0.75,4.39,2.93,4.94c0.34,0.09,0.68,0.13,1.01,0.13c1.81,0,3.46-1.22,3.93-3.06l38.09-148.83
					C77.15,232.62,76.42,232.66,75.68,232.58z"/>
			</g>
		</g>
		<path class="st1" d="M328.99,339.65c-2.27,0-4.1,1.84-4.1,4.1v1.24c0,11.73-9.54,21.27-21.27,21.27h-1.63
			c-3.06-26.55-24.17-47.65-50.71-50.72v-40.14c0-2.27-1.84-4.1-4.1-4.1s-4.1,1.84-4.1,4.1v8.42l-34.25,17.13
			c-1.03,0.51-1.79,1.43-2.11,2.54c-0.32,1.1-0.16,2.29,0.44,3.27l8.51,13.93c0.74,1.22,2.07,1.96,3.5,1.96h23.33
			c0.2,0.12,0.36,0.28,0.58,0.37v50.99c0,2.27,1.84,4.1,4.1,4.1s4.1-1.84,4.1-4.1v-50.18c17.83,2.41,32.67,14.3,39.25,30.44
			c-3.13-1.67-6.7-2.62-10.49-2.62c-12.33,0-22.36,10.03-22.36,22.36c0,2.27,1.84,4.1,4.1,4.1c2.27,0,4.1-1.84,4.1-4.1
			c0-7.81,6.35-14.16,14.16-14.16c7.81,0,14.16,6.35,14.16,14.16c0,2.27,1.84,4.1,4.1,4.1c2.11,0,3.78-1.61,4.01-3.65h1.31
			c16.26,0,29.48-13.22,29.48-29.48v-1.24C333.09,341.49,331.26,339.65,328.99,339.65z"/>
	</g>
</g>
<g id="Capa_2">
</g>
<g id="Capa_3">
</g>
<g id="Capa_4">
</g>
<g id="Capa_5">
</g>
</svg>
