<?xml version="1.0" encoding="utf-8"?>
<!-- Generator: Adobe Illustrator 25.0.0, SVG Export Plug-In . SVG Version: 6.00 Build 0)  -->
<svg version="1.1" xmlns="http://www.w3.org/2000/svg" xmlns:xlink="http://www.w3.org/1999/xlink" x="0px" y="0px"
	 viewBox="0 0 347.33 398.57" style="enable-background:new 0 0 347.33 398.57;" xml:space="preserve">
<style type="text/css">
	.st0{fill:#383838;}
	.st1{fill:#38485C;}
	.st2{fill:#FFFFFF;}
	.st3{fill:none;stroke:#383838;stroke-miterlimit:10;}
	.st4{fill:none;stroke:#383838;stroke-width:3;stroke-miterlimit:10;}
	.st5{fill:#FFFFFF;stroke:#383838;stroke-miterlimit:10;}
</style>
<g id="Capa_1">
	<g>
		<path class="st1" d="M272.74,224.84l-9.14-51.59l-4.97-28.04c-0.01-0.05-0.02-0.1-0.03-0.15c-0.08-0.43-0.19-0.84-0.27-1.26
			c-0.06-0.27-0.14-0.54-0.2-0.81c-4.28-17.39-16.45-31.84-32.57-38.33c-0.15-0.06-0.3-0.14-0.46-0.2
			c-0.38-0.15-0.78-0.26-1.16-0.41c-3.57-1.3-7.31-2.24-11.19-2.72c-1.18-0.14-2.35-0.25-3.53-0.3c0.1-0.04-11.87-0.06-24.02-0.06
			c-12.15,0-24.11,0.02-24.02,0.06c-1.18,0.06-2.35,0.16-3.53,0.3c-3.89,0.47-7.62,1.42-11.19,2.72c-0.38,0.14-0.78,0.26-1.16,0.41
			c-0.16,0.06-0.31,0.14-0.46,0.2c-16.12,6.49-28.29,20.95-32.57,38.33c-0.06,0.27-0.14,0.54-0.2,0.81
			c-0.09,0.43-0.2,0.84-0.27,1.26c-0.01,0.05-0.02,0.1-0.03,0.15l-4.97,28.04l-8.79,49.63H85.2c-2.3,0-4.17,1.87-4.17,4.17
			s1.87,4.17,4.17,4.17h13.64c0.89,1.51,2.18,2.76,3.77,3.58v153.17c0,2.3,1.87,4.17,4.17,4.17s4.17-1.87,4.17-4.17V234.95
			c2.6-1.25,4.58-3.67,5.16-6.69l10.29-53.45l3.43-17.79c0.68-3.54,3.81-6.31,7.35-6.08c0.6-0.06,1.22-0.07,1.84,0.06
			c0.14,0.14,0.26,0.34,0.4,0.51c0.01,0,0.02,0.01,0.03,0.01c0,0.01,0,0.02,0.01,0.03c4.59,5.81,5.58,26.67,5.58,26.67
			c0.94,18.34-10.13,196.67-10.13,196.67c0,3.65,1.48,6.96,3.88,9.35c0,0,0,0,0.01,0.01c1.67,1.67,3.8,2.86,6.17,3.44
			c0.18,0.05,0.35,0.13,0.54,0.16c0.36,0.07,0.75,0.07,1.13,0.11c0.34,0.04,0.69,0.07,1.04,0.1c0.28-0.01,0.57-0.05,0.86-0.09
			c0.76-0.08,1.54-0.22,2.31-0.44c0.17-0.05,0.34-0.04,0.51-0.1c0.2-0.06,0.38-0.17,0.58-0.24c0.26-0.1,0.51-0.2,0.76-0.32
			c0.49-0.23,0.97-0.48,1.42-0.77c0.25-0.16,0.51-0.3,0.74-0.48c0.23-0.17,0.45-0.36,0.67-0.55c3-2.56,4.79-6.49,4.79-10.6
			l19.63-110.05c0.47-2.6,10.07-2.6,10.53,0l19.63,110.05c0,4.11,1.78,8.04,4.79,10.6c0.22,0.19,0.44,0.38,0.67,0.55
			c0.24,0.18,0.49,0.32,0.74,0.48c0.45,0.29,0.92,0.54,1.42,0.77c0.25,0.12,0.5,0.22,0.76,0.32c0.2,0.07,0.38,0.18,0.58,0.24
			c0.17,0.05,0.34,0.05,0.51,0.1c0.78,0.22,1.55,0.36,2.32,0.44c0.29,0.03,0.57,0.07,0.86,0.09c0.35-0.03,0.69-0.06,1.04-0.1
			c0.37-0.04,0.76-0.04,1.13-0.11c0.19-0.04,0.35-0.12,0.54-0.16c2.37-0.59,4.5-1.77,6.17-3.44c0,0,0.01,0,0.01-0.01
			c2.39-2.39,3.87-5.7,3.87-9.35c0,0-11.06-178.33-10.12-196.67c0,0,0.98-20.86,5.58-26.67c0-0.01,0-0.02,0.01-0.03
			c0.01,0,0.02-0.01,0.03-0.01c0.13-0.17,0.26-0.37,0.4-0.51c0.62-0.13,1.23-0.12,1.84-0.06c3.53-0.23,6.67,2.54,7.35,6.08
			l3.43,17.79l10.29,53.45c0.92,4.8,5.37,8.09,10.23,7.56C269.91,235.24,273.69,230.2,272.74,224.84z"/>
		<path class="st1" d="M218.21,55.64c0,8.79-7.11,15.94-15.86,15.94c-8.7,0-15.79-6.92-16.02-15.51c-1.14-1.71-2.54-2.65-4.01-2.65
			s-2.87,0.95-4.01,2.65c-0.23,8.59-7.24,15.51-15.83,15.51c-8.4,0-15.3-6.44-15.98-14.62h-2.73c-0.08,0-0.14-0.07-0.22-0.09
			c0.66,20.86,17.74,37.58,38.76,37.58c21.44,0,38.82-17.38,38.82-38.82c0-0.04,0-0.07,0-0.11c-0.1,0.02-0.17,0.11-0.27,0.11H218.21
			z"/>
		<path class="st1" d="M146.5,54.31c0.68-8.18,7.58-14.62,15.98-14.62c7.64,0,14.04,5.47,15.52,12.73c1.29-1.08,2.76-1.65,4.32-1.65
			s3.02,0.57,4.32,1.65c1.5-7.25,7.98-12.73,15.72-12.73c7.84,0,14.35,5.76,15.61,13.29h2.89c0.06,0,0.09,0.05,0.15,0.06
			c-1.34-20.22-18.13-36.22-38.69-36.22c-21.02,0-38.1,16.72-38.76,37.58c0.08-0.02,0.13-0.09,0.22-0.09H146.5z"/>
		<path class="st1" d="M222.19,54.31c0-0.68-0.53-1.19-1.19-1.27c0.05,0.83,0.12,1.65,0.13,2.49
			C221.72,55.39,222.19,54.94,222.19,54.31z"/>
		<path class="st1" d="M143.56,56.88c-0.01-0.42-0.06-0.82-0.06-1.24c0-0.42,0.05-0.82,0.06-1.24c-0.62,0.12-1.11,0.59-1.11,1.24
			C142.45,56.29,142.94,56.76,143.56,56.88z"/>
		<path class="st1" d="M162.38,69.66c7.74,0,14.02-6.28,14.02-14.02s-6.28-14.02-14.02-14.02s-14.02,6.28-14.02,14.02
			S154.64,69.66,162.38,69.66z M162.48,42.35c7.4,0,13.19,5.83,13.19,13.29c0,7.45-5.79,13.29-13.19,13.29
			c-7.39,0-13.39-5.96-13.39-13.29C149.09,48.31,155.09,42.35,162.48,42.35z"/>
		<path class="st1" d="M202.25,69.66c7.74,0,14.02-6.28,14.02-14.02s-6.28-14.02-14.02-14.02s-14.02,6.28-14.02,14.02
			S194.51,69.66,202.25,69.66z M202.35,42.35c7.4,0,13.19,5.83,13.19,13.29c0,7.45-5.79,13.29-13.19,13.29
			c-7.39,0-13.39-5.96-13.39-13.29C188.96,48.31,194.97,42.35,202.35,42.35z"/>
		<path class="st1" d="M202.25,66.07c5.76,0,10.43-4.67,10.43-10.43c0-5.76-4.67-10.43-10.43-10.43c-5.76,0-10.43,4.67-10.43,10.43
			C191.82,61.4,196.49,66.07,202.25,66.07z M202.25,46.26c5.18,0,9.39,4.21,9.39,9.39s-4.21,9.39-9.39,9.39
			c-5.18,0-9.39-4.21-9.39-9.39S197.08,46.26,202.25,46.26z"/>
		<path class="st1" d="M162.38,66.07c5.76,0,10.43-4.67,10.43-10.43c0-5.76-4.67-10.43-10.43-10.43c-5.76,0-10.43,4.67-10.43,10.43
			C151.95,61.4,156.62,66.07,162.38,66.07z M162.38,46.26c5.18,0,9.39,4.21,9.39,9.39s-4.21,9.39-9.39,9.39
			c-5.18,0-9.39-4.21-9.39-9.39S157.21,46.26,162.38,46.26z"/>
	</g>
</g>
<g id="Capa_2">
</g>
<g id="Capa_3">
</g>
<g id="Capa_4">
</g>
<g id="Capa_5">
</g>
</svg>
